<?xml version="1.0" encoding="utf-8" standalone="no"?>
<!DOCTYPE svg PUBLIC "-//W3C//DTD SVG 1.1//EN"
  "http://www.w3.org/Graphics/SVG/1.1/DTD/svg11.dtd">
<!-- Created with matplotlib (http://matplotlib.org/) -->
<svg height="324pt" version="1.1" viewBox="0 0 432 324" width="432pt" xmlns="http://www.w3.org/2000/svg" xmlns:xlink="http://www.w3.org/1999/xlink">
 <defs>
  <style type="text/css">
*{stroke-linecap:butt;stroke-linejoin:round;}
  </style>
 </defs>
 <g id="figure_1">
  <g id="patch_1">
   <path d="M 0 324 
L 432 324 
L 432 0 
L 0 0 
z
" style="fill:none;"/>
  </g>
  <g id="axes_1">
   <g id="patch_2">
    <path d="M 43.55 125.1 
L 190.85 125.1 
L 190.85 16.8 
L 43.55 16.8 
z
" style="fill:none;"/>
   </g>
   <g id="matplotlib.axis_1">
    <g id="xtick_1">
     <g id="line2d_1">
      <defs>
       <path d="M 0 0 
L 0 6 
" id="m1cf5282999" style="stroke:#d2d2d2;"/>
      </defs>
      <g>
       <use style="fill:#d2d2d2;stroke:#d2d2d2;" x="43.55" xlink:href="#m1cf5282999" y="125.1"/>
      </g>
     </g>
     <g id="text_1">
      <!-- 0 -->
      <defs>
       <path d="M 31.78125 66.40625 
Q 24.171875 66.40625 20.328125 58.90625 
Q 16.5 51.421875 16.5 36.375 
Q 16.5 21.390625 20.328125 13.890625 
Q 24.171875 6.390625 31.78125 6.390625 
Q 39.453125 6.390625 43.28125 13.890625 
Q 47.125 21.390625 47.125 36.375 
Q 47.125 51.421875 43.28125 58.90625 
Q 39.453125 66.40625 31.78125 66.40625 
M 31.78125 74.21875 
Q 44.046875 74.21875 50.515625 64.515625 
Q 56.984375 54.828125 56.984375 36.375 
Q 56.984375 17.96875 50.515625 8.265625 
Q 44.046875 -1.421875 31.78125 -1.421875 
Q 19.53125 -1.421875 13.0625 8.265625 
Q 6.59375 17.96875 6.59375 36.375 
Q 6.59375 54.828125 13.0625 64.515625 
Q 19.53125 74.21875 31.78125 74.21875 
" id="DejaVuSans-30"/>
      </defs>
      <g style="fill:#d2d2d2;" transform="translate(41.005 140.67875)scale(0.08 -0.08)">
       <use xlink:href="#DejaVuSans-30"/>
      </g>
     </g>
    </g>
    <g id="xtick_2">
     <g id="line2d_2">
      <g>
       <use style="fill:#d2d2d2;stroke:#d2d2d2;" x="65.645" xlink:href="#m1cf5282999" y="125.1"/>
      </g>
     </g>
     <g id="text_2">
      <!-- 3 -->
      <defs>
       <path d="M 40.578125 39.3125 
Q 47.65625 37.796875 51.625 33 
Q 55.609375 28.21875 55.609375 21.1875 
Q 55.609375 10.40625 48.1875 4.484375 
Q 40.765625 -1.421875 27.09375 -1.421875 
Q 22.515625 -1.421875 17.65625 -0.515625 
Q 12.796875 0.390625 7.625 2.203125 
L 7.625 11.71875 
Q 11.71875 9.328125 16.59375 8.109375 
Q 21.484375 6.890625 26.8125 6.890625 
Q 36.078125 6.890625 40.9375 10.546875 
Q 45.796875 14.203125 45.796875 21.1875 
Q 45.796875 27.640625 41.28125 31.265625 
Q 36.765625 34.90625 28.71875 34.90625 
L 20.21875 34.90625 
L 20.21875 43.015625 
L 29.109375 43.015625 
Q 36.375 43.015625 40.234375 45.921875 
Q 44.09375 48.828125 44.09375 54.296875 
Q 44.09375 59.90625 40.109375 62.90625 
Q 36.140625 65.921875 28.71875 65.921875 
Q 24.65625 65.921875 20.015625 65.03125 
Q 15.375 64.15625 9.8125 62.3125 
L 9.8125 71.09375 
Q 15.4375 72.65625 20.34375 73.4375 
Q 25.25 74.21875 29.59375 74.21875 
Q 40.828125 74.21875 47.359375 69.109375 
Q 53.90625 64.015625 53.90625 55.328125 
Q 53.90625 49.265625 50.4375 45.09375 
Q 46.96875 40.921875 40.578125 39.3125 
" id="DejaVuSans-33"/>
      </defs>
      <g style="fill:#d2d2d2;" transform="translate(63.1 140.67875)scale(0.08 -0.08)">
       <use xlink:href="#DejaVuSans-33"/>
      </g>
     </g>
    </g>
    <g id="xtick_3">
     <g id="line2d_3">
      <g>
       <use style="fill:#d2d2d2;stroke:#d2d2d2;" x="87.74" xlink:href="#m1cf5282999" y="125.1"/>
      </g>
     </g>
     <g id="text_3">
      <!-- 6 -->
      <defs>
       <path d="M 33.015625 40.375 
Q 26.375 40.375 22.484375 35.828125 
Q 18.609375 31.296875 18.609375 23.390625 
Q 18.609375 15.53125 22.484375 10.953125 
Q 26.375 6.390625 33.015625 6.390625 
Q 39.65625 6.390625 43.53125 10.953125 
Q 47.40625 15.53125 47.40625 23.390625 
Q 47.40625 31.296875 43.53125 35.828125 
Q 39.65625 40.375 33.015625 40.375 
M 52.59375 71.296875 
L 52.59375 62.3125 
Q 48.875 64.0625 45.09375 64.984375 
Q 41.3125 65.921875 37.59375 65.921875 
Q 27.828125 65.921875 22.671875 59.328125 
Q 17.53125 52.734375 16.796875 39.40625 
Q 19.671875 43.65625 24.015625 45.921875 
Q 28.375 48.1875 33.59375 48.1875 
Q 44.578125 48.1875 50.953125 41.515625 
Q 57.328125 34.859375 57.328125 23.390625 
Q 57.328125 12.15625 50.6875 5.359375 
Q 44.046875 -1.421875 33.015625 -1.421875 
Q 20.359375 -1.421875 13.671875 8.265625 
Q 6.984375 17.96875 6.984375 36.375 
Q 6.984375 53.65625 15.1875 63.9375 
Q 23.390625 74.21875 37.203125 74.21875 
Q 40.921875 74.21875 44.703125 73.484375 
Q 48.484375 72.75 52.59375 71.296875 
" id="DejaVuSans-36"/>
      </defs>
      <g style="fill:#d2d2d2;" transform="translate(85.195 140.67875)scale(0.08 -0.08)">
       <use xlink:href="#DejaVuSans-36"/>
      </g>
     </g>
    </g>
    <g id="xtick_4">
     <g id="line2d_4">
      <g>
       <use style="fill:#d2d2d2;stroke:#d2d2d2;" x="109.835" xlink:href="#m1cf5282999" y="125.1"/>
      </g>
     </g>
     <g id="text_4">
      <!-- 9 -->
      <defs>
       <path d="M 10.984375 1.515625 
L 10.984375 10.5 
Q 14.703125 8.734375 18.5 7.8125 
Q 22.3125 6.890625 25.984375 6.890625 
Q 35.75 6.890625 40.890625 13.453125 
Q 46.046875 20.015625 46.78125 33.40625 
Q 43.953125 29.203125 39.59375 26.953125 
Q 35.25 24.703125 29.984375 24.703125 
Q 19.046875 24.703125 12.671875 31.3125 
Q 6.296875 37.9375 6.296875 49.421875 
Q 6.296875 60.640625 12.9375 67.421875 
Q 19.578125 74.21875 30.609375 74.21875 
Q 43.265625 74.21875 49.921875 64.515625 
Q 56.59375 54.828125 56.59375 36.375 
Q 56.59375 19.140625 48.40625 8.859375 
Q 40.234375 -1.421875 26.421875 -1.421875 
Q 22.703125 -1.421875 18.890625 -0.6875 
Q 15.09375 0.046875 10.984375 1.515625 
M 30.609375 32.421875 
Q 37.25 32.421875 41.125 36.953125 
Q 45.015625 41.5 45.015625 49.421875 
Q 45.015625 57.28125 41.125 61.84375 
Q 37.25 66.40625 30.609375 66.40625 
Q 23.96875 66.40625 20.09375 61.84375 
Q 16.21875 57.28125 16.21875 49.421875 
Q 16.21875 41.5 20.09375 36.953125 
Q 23.96875 32.421875 30.609375 32.421875 
" id="DejaVuSans-39"/>
      </defs>
      <g style="fill:#d2d2d2;" transform="translate(107.29 140.67875)scale(0.08 -0.08)">
       <use xlink:href="#DejaVuSans-39"/>
      </g>
     </g>
    </g>
    <g id="xtick_5">
     <g id="line2d_5">
      <g>
       <use style="fill:#d2d2d2;stroke:#d2d2d2;" x="131.93" xlink:href="#m1cf5282999" y="125.1"/>
      </g>
     </g>
     <g id="text_5">
      <!-- 12 -->
      <defs>
       <path d="M 12.40625 8.296875 
L 28.515625 8.296875 
L 28.515625 63.921875 
L 10.984375 60.40625 
L 10.984375 69.390625 
L 28.421875 72.90625 
L 38.28125 72.90625 
L 38.28125 8.296875 
L 54.390625 8.296875 
L 54.390625 0 
L 12.40625 0 
z
" id="DejaVuSans-31"/>
       <path d="M 19.1875 8.296875 
L 53.609375 8.296875 
L 53.609375 0 
L 7.328125 0 
L 7.328125 8.296875 
Q 12.9375 14.109375 22.625 23.890625 
Q 32.328125 33.6875 34.8125 36.53125 
Q 39.546875 41.84375 41.421875 45.53125 
Q 43.3125 49.21875 43.3125 52.78125 
Q 43.3125 58.59375 39.234375 62.25 
Q 35.15625 65.921875 28.609375 65.921875 
Q 23.96875 65.921875 18.8125 64.3125 
Q 13.671875 62.703125 7.8125 59.421875 
L 7.8125 69.390625 
Q 13.765625 71.78125 18.9375 73 
Q 24.125 74.21875 28.421875 74.21875 
Q 39.75 74.21875 46.484375 68.546875 
Q 53.21875 62.890625 53.21875 53.421875 
Q 53.21875 48.921875 51.53125 44.890625 
Q 49.859375 40.875 45.40625 35.40625 
Q 44.1875 33.984375 37.640625 27.21875 
Q 31.109375 20.453125 19.1875 8.296875 
" id="DejaVuSans-32"/>
      </defs>
      <g style="fill:#d2d2d2;" transform="translate(126.84 140.67875)scale(0.08 -0.08)">
       <use xlink:href="#DejaVuSans-31"/>
       <use x="63.623047" xlink:href="#DejaVuSans-32"/>
      </g>
     </g>
    </g>
    <g id="xtick_6">
     <g id="line2d_6">
      <g>
       <use style="fill:#d2d2d2;stroke:#d2d2d2;" x="154.025" xlink:href="#m1cf5282999" y="125.1"/>
      </g>
     </g>
     <g id="text_6">
      <!-- 15 -->
      <defs>
       <path d="M 10.796875 72.90625 
L 49.515625 72.90625 
L 49.515625 64.59375 
L 19.828125 64.59375 
L 19.828125 46.734375 
Q 21.96875 47.46875 24.109375 47.828125 
Q 26.265625 48.1875 28.421875 48.1875 
Q 40.625 48.1875 47.75 41.5 
Q 54.890625 34.8125 54.890625 23.390625 
Q 54.890625 11.625 47.5625 5.09375 
Q 40.234375 -1.421875 26.90625 -1.421875 
Q 22.3125 -1.421875 17.546875 -0.640625 
Q 12.796875 0.140625 7.71875 1.703125 
L 7.71875 11.625 
Q 12.109375 9.234375 16.796875 8.0625 
Q 21.484375 6.890625 26.703125 6.890625 
Q 35.15625 6.890625 40.078125 11.328125 
Q 45.015625 15.765625 45.015625 23.390625 
Q 45.015625 31 40.078125 35.4375 
Q 35.15625 39.890625 26.703125 39.890625 
Q 22.75 39.890625 18.8125 39.015625 
Q 14.890625 38.140625 10.796875 36.28125 
z
" id="DejaVuSans-35"/>
      </defs>
      <g style="fill:#d2d2d2;" transform="translate(148.935 140.67875)scale(0.08 -0.08)">
       <use xlink:href="#DejaVuSans-31"/>
       <use x="63.623047" xlink:href="#DejaVuSans-35"/>
      </g>
     </g>
    </g>
    <g id="xtick_7">
     <g id="line2d_7">
      <g>
       <use style="fill:#d2d2d2;stroke:#d2d2d2;" x="176.12" xlink:href="#m1cf5282999" y="125.1"/>
      </g>
     </g>
     <g id="text_7">
      <!-- 18 -->
      <defs>
       <path d="M 31.78125 34.625 
Q 24.75 34.625 20.71875 30.859375 
Q 16.703125 27.09375 16.703125 20.515625 
Q 16.703125 13.921875 20.71875 10.15625 
Q 24.75 6.390625 31.78125 6.390625 
Q 38.8125 6.390625 42.859375 10.171875 
Q 46.921875 13.96875 46.921875 20.515625 
Q 46.921875 27.09375 42.890625 30.859375 
Q 38.875 34.625 31.78125 34.625 
M 21.921875 38.8125 
Q 15.578125 40.375 12.03125 44.71875 
Q 8.5 49.078125 8.5 55.328125 
Q 8.5 64.0625 14.71875 69.140625 
Q 20.953125 74.21875 31.78125 74.21875 
Q 42.671875 74.21875 48.875 69.140625 
Q 55.078125 64.0625 55.078125 55.328125 
Q 55.078125 49.078125 51.53125 44.71875 
Q 48 40.375 41.703125 38.8125 
Q 48.828125 37.15625 52.796875 32.3125 
Q 56.78125 27.484375 56.78125 20.515625 
Q 56.78125 9.90625 50.3125 4.234375 
Q 43.84375 -1.421875 31.78125 -1.421875 
Q 19.734375 -1.421875 13.25 4.234375 
Q 6.78125 9.90625 6.78125 20.515625 
Q 6.78125 27.484375 10.78125 32.3125 
Q 14.796875 37.15625 21.921875 38.8125 
M 18.3125 54.390625 
Q 18.3125 48.734375 21.84375 45.5625 
Q 25.390625 42.390625 31.78125 42.390625 
Q 38.140625 42.390625 41.71875 45.5625 
Q 45.3125 48.734375 45.3125 54.390625 
Q 45.3125 60.0625 41.71875 63.234375 
Q 38.140625 66.40625 31.78125 66.40625 
Q 25.390625 66.40625 21.84375 63.234375 
Q 18.3125 60.0625 18.3125 54.390625 
" id="DejaVuSans-38"/>
      </defs>
      <g style="fill:#d2d2d2;" transform="translate(171.03 140.67875)scale(0.08 -0.08)">
       <use xlink:href="#DejaVuSans-31"/>
       <use x="63.623047" xlink:href="#DejaVuSans-38"/>
      </g>
     </g>
    </g>
    <g id="text_8">
     <!-- x -->
     <defs>
      <path d="M 54.890625 54.6875 
L 35.109375 28.078125 
L 55.90625 0 
L 45.3125 0 
L 29.390625 21.484375 
L 13.484375 0 
L 2.875 0 
L 24.125 28.609375 
L 4.6875 54.6875 
L 15.28125 54.6875 
L 29.78125 35.203125 
L 44.28125 54.6875 
z
" id="DejaVuSans-78"/>
     </defs>
     <g style="fill:#d2d2d2;" transform="translate(113.64875 151.460625)scale(0.12 -0.12)">
      <use xlink:href="#DejaVuSans-78"/>
     </g>
    </g>
   </g>
   <g id="matplotlib.axis_2">
    <g id="ytick_1">
     <g id="line2d_8">
      <defs>
       <path d="M 0 0 
L -6 0 
" id="m769bfd5f1a" style="stroke:#d2d2d2;"/>
      </defs>
      <g>
       <use style="fill:#d2d2d2;stroke:#d2d2d2;" x="43.55" xlink:href="#m769bfd5f1a" y="125.1"/>
      </g>
     </g>
     <g id="text_9">
      <!-- 0 -->
      <g style="fill:#d2d2d2;" transform="translate(28.96 128.139375)scale(0.08 -0.08)">
       <use xlink:href="#DejaVuSans-30"/>
      </g>
     </g>
    </g>
    <g id="ytick_2">
     <g id="line2d_9">
      <g>
       <use style="fill:#d2d2d2;stroke:#d2d2d2;" x="43.55" xlink:href="#m769bfd5f1a" y="101.892857"/>
      </g>
     </g>
     <g id="text_10">
      <!-- 3 -->
      <g style="fill:#d2d2d2;" transform="translate(28.96 104.932232)scale(0.08 -0.08)">
       <use xlink:href="#DejaVuSans-33"/>
      </g>
     </g>
    </g>
    <g id="ytick_3">
     <g id="line2d_10">
      <g>
       <use style="fill:#d2d2d2;stroke:#d2d2d2;" x="43.55" xlink:href="#m769bfd5f1a" y="78.685714"/>
      </g>
     </g>
     <g id="text_11">
      <!-- 6 -->
      <g style="fill:#d2d2d2;" transform="translate(28.96 81.725089)scale(0.08 -0.08)">
       <use xlink:href="#DejaVuSans-36"/>
      </g>
     </g>
    </g>
    <g id="ytick_4">
     <g id="line2d_11">
      <g>
       <use style="fill:#d2d2d2;stroke:#d2d2d2;" x="43.55" xlink:href="#m769bfd5f1a" y="55.478571"/>
      </g>
     </g>
     <g id="text_12">
      <!-- 9 -->
      <g style="fill:#d2d2d2;" transform="translate(28.96 58.517946)scale(0.08 -0.08)">
       <use xlink:href="#DejaVuSans-39"/>
      </g>
     </g>
    </g>
    <g id="ytick_5">
     <g id="line2d_12">
      <g>
       <use style="fill:#d2d2d2;stroke:#d2d2d2;" x="43.55" xlink:href="#m769bfd5f1a" y="32.271429"/>
      </g>
     </g>
     <g id="text_13">
      <!-- 12 -->
      <g style="fill:#d2d2d2;" transform="translate(23.87 35.310804)scale(0.08 -0.08)">
       <use xlink:href="#DejaVuSans-31"/>
       <use x="63.623047" xlink:href="#DejaVuSans-32"/>
      </g>
     </g>
    </g>
    <g id="text_14">
     <!-- y -->
     <defs>
      <path d="M 32.171875 -5.078125 
Q 28.375 -14.84375 24.75 -17.8125 
Q 21.140625 -20.796875 15.09375 -20.796875 
L 7.90625 -20.796875 
L 7.90625 -13.28125 
L 13.1875 -13.28125 
Q 16.890625 -13.28125 18.9375 -11.515625 
Q 21 -9.765625 23.484375 -3.21875 
L 25.09375 0.875 
L 2.984375 54.6875 
L 12.5 54.6875 
L 29.59375 11.921875 
L 46.6875 54.6875 
L 56.203125 54.6875 
z
" id="DejaVuSans-79"/>
     </defs>
     <g style="fill:#d2d2d2;" transform="translate(21.374375 74.50125)rotate(-90)scale(0.12 -0.12)">
      <use xlink:href="#DejaVuSans-79"/>
     </g>
    </g>
   </g>
   <g id="line2d_13">
    <path clip-path="url(#pc76a38a74f)" d="M 43.55 101.892154 
L 50.915 98.023594 
L 58.28 94.155033 
L 65.645 90.286473 
L 73.01 86.417912 
L 80.375 82.549352 
L 87.74 78.680792 
L 95.105 74.812231 
L 102.47 70.943671 
L 109.835 67.07511 
L 117.2 63.20655 
L 124.565 59.33799 
L 131.93 55.469429 
L 139.295 51.600869 
L 146.66 47.732308 
L 154.025 43.863748 
L 161.39 39.995188 
L 168.755 36.126627 
L 176.12 32.258067 
L 183.485 28.389506 
" style="fill:none;stroke:#5bc0de;stroke-linecap:square;stroke-width:1.5;"/>
   </g>
   <g id="patch_3">
    <path d="M 43.55 125.1 
L 43.55 16.8 
" style="fill:none;stroke:#d2d2d2;stroke-linecap:square;stroke-linejoin:miter;stroke-width:0.8;"/>
   </g>
   <g id="patch_4">
    <path d="M 43.55 125.1 
L 190.85 125.1 
" style="fill:none;stroke:#d2d2d2;stroke-linecap:square;stroke-linejoin:miter;stroke-width:0.8;"/>
   </g>
   <g id="text_15">
    <!-- Dataset #0 -->
    <defs>
     <path d="M 19.671875 64.796875 
L 19.671875 8.109375 
L 31.59375 8.109375 
Q 46.6875 8.109375 53.6875 14.9375 
Q 60.6875 21.78125 60.6875 36.53125 
Q 60.6875 51.171875 53.6875 57.984375 
Q 46.6875 64.796875 31.59375 64.796875 
z
M 9.8125 72.90625 
L 30.078125 72.90625 
Q 51.265625 72.90625 61.171875 64.09375 
Q 71.09375 55.28125 71.09375 36.53125 
Q 71.09375 17.671875 61.125 8.828125 
Q 51.171875 0 30.078125 0 
L 9.8125 0 
z
" id="DejaVuSans-44"/>
     <path d="M 34.28125 27.484375 
Q 23.390625 27.484375 19.1875 25 
Q 14.984375 22.515625 14.984375 16.5 
Q 14.984375 11.71875 18.140625 8.90625 
Q 21.296875 6.109375 26.703125 6.109375 
Q 34.1875 6.109375 38.703125 11.40625 
Q 43.21875 16.703125 43.21875 25.484375 
L 43.21875 27.484375 
z
M 52.203125 31.203125 
L 52.203125 0 
L 43.21875 0 
L 43.21875 8.296875 
Q 40.140625 3.328125 35.546875 0.953125 
Q 30.953125 -1.421875 24.3125 -1.421875 
Q 15.921875 -1.421875 10.953125 3.296875 
Q 6 8.015625 6 15.921875 
Q 6 25.140625 12.171875 29.828125 
Q 18.359375 34.515625 30.609375 34.515625 
L 43.21875 34.515625 
L 43.21875 35.40625 
Q 43.21875 41.609375 39.140625 45 
Q 35.0625 48.390625 27.6875 48.390625 
Q 23 48.390625 18.546875 47.265625 
Q 14.109375 46.140625 10.015625 43.890625 
L 10.015625 52.203125 
Q 14.9375 54.109375 19.578125 55.046875 
Q 24.21875 56 28.609375 56 
Q 40.484375 56 46.34375 49.84375 
Q 52.203125 43.703125 52.203125 31.203125 
" id="DejaVuSans-61"/>
     <path d="M 18.3125 70.21875 
L 18.3125 54.6875 
L 36.8125 54.6875 
L 36.8125 47.703125 
L 18.3125 47.703125 
L 18.3125 18.015625 
Q 18.3125 11.328125 20.140625 9.421875 
Q 21.96875 7.515625 27.59375 7.515625 
L 36.8125 7.515625 
L 36.8125 0 
L 27.59375 0 
Q 17.1875 0 13.234375 3.875 
Q 9.28125 7.765625 9.28125 18.015625 
L 9.28125 47.703125 
L 2.6875 47.703125 
L 2.6875 54.6875 
L 9.28125 54.6875 
L 9.28125 70.21875 
z
" id="DejaVuSans-74"/>
     <path d="M 44.28125 53.078125 
L 44.28125 44.578125 
Q 40.484375 46.53125 36.375 47.5 
Q 32.28125 48.484375 27.875 48.484375 
Q 21.1875 48.484375 17.84375 46.4375 
Q 14.5 44.390625 14.5 40.28125 
Q 14.5 37.15625 16.890625 35.375 
Q 19.28125 33.59375 26.515625 31.984375 
L 29.59375 31.296875 
Q 39.15625 29.25 43.1875 25.515625 
Q 47.21875 21.78125 47.21875 15.09375 
Q 47.21875 7.46875 41.1875 3.015625 
Q 35.15625 -1.421875 24.609375 -1.421875 
Q 20.21875 -1.421875 15.453125 -0.5625 
Q 10.6875 0.296875 5.421875 2 
L 5.421875 11.28125 
Q 10.40625 8.6875 15.234375 7.390625 
Q 20.0625 6.109375 24.8125 6.109375 
Q 31.15625 6.109375 34.5625 8.28125 
Q 37.984375 10.453125 37.984375 14.40625 
Q 37.984375 18.0625 35.515625 20.015625 
Q 33.0625 21.96875 24.703125 23.78125 
L 21.578125 24.515625 
Q 13.234375 26.265625 9.515625 29.90625 
Q 5.8125 33.546875 5.8125 39.890625 
Q 5.8125 47.609375 11.28125 51.796875 
Q 16.75 56 26.8125 56 
Q 31.78125 56 36.171875 55.265625 
Q 40.578125 54.546875 44.28125 53.078125 
" id="DejaVuSans-73"/>
     <path d="M 56.203125 29.59375 
L 56.203125 25.203125 
L 14.890625 25.203125 
Q 15.484375 15.921875 20.484375 11.0625 
Q 25.484375 6.203125 34.421875 6.203125 
Q 39.59375 6.203125 44.453125 7.46875 
Q 49.3125 8.734375 54.109375 11.28125 
L 54.109375 2.78125 
Q 49.265625 0.734375 44.1875 -0.34375 
Q 39.109375 -1.421875 33.890625 -1.421875 
Q 20.796875 -1.421875 13.15625 6.1875 
Q 5.515625 13.8125 5.515625 26.8125 
Q 5.515625 40.234375 12.765625 48.109375 
Q 20.015625 56 32.328125 56 
Q 43.359375 56 49.78125 48.890625 
Q 56.203125 41.796875 56.203125 29.59375 
M 47.21875 32.234375 
Q 47.125 39.59375 43.09375 43.984375 
Q 39.0625 48.390625 32.421875 48.390625 
Q 24.90625 48.390625 20.390625 44.140625 
Q 15.875 39.890625 15.1875 32.171875 
z
" id="DejaVuSans-65"/>
     <path id="DejaVuSans-20"/>
     <path d="M 51.125 44 
L 36.921875 44 
L 32.8125 27.6875 
L 47.125 27.6875 
z
M 43.796875 71.78125 
L 38.71875 51.515625 
L 52.984375 51.515625 
L 58.109375 71.78125 
L 65.921875 71.78125 
L 60.890625 51.515625 
L 76.125 51.515625 
L 76.125 44 
L 58.984375 44 
L 54.984375 27.6875 
L 70.515625 27.6875 
L 70.515625 20.21875 
L 53.078125 20.21875 
L 48 0 
L 40.1875 0 
L 45.21875 20.21875 
L 30.90625 20.21875 
L 25.875 0 
L 18.015625 0 
L 23.09375 20.21875 
L 7.71875 20.21875 
L 7.71875 27.6875 
L 24.90625 27.6875 
L 29 44 
L 13.28125 44 
L 13.28125 51.515625 
L 30.90625 51.515625 
L 35.890625 71.78125 
z
" id="DejaVuSans-23"/>
    </defs>
    <g style="fill:#d2d2d2;" transform="translate(47.2325 28.403571)scale(0.1 -0.1)">
     <use xlink:href="#DejaVuSans-44"/>
     <use x="77.001953" xlink:href="#DejaVuSans-61"/>
     <use x="138.28125" xlink:href="#DejaVuSans-74"/>
     <use x="177.490234" xlink:href="#DejaVuSans-61"/>
     <use x="238.769531" xlink:href="#DejaVuSans-73"/>
     <use x="290.869141" xlink:href="#DejaVuSans-65"/>
     <use x="352.392578" xlink:href="#DejaVuSans-74"/>
     <use x="391.601562" xlink:href="#DejaVuSans-20"/>
     <use x="423.388672" xlink:href="#DejaVuSans-23"/>
     <use x="507.177734" xlink:href="#DejaVuSans-30"/>
    </g>
   </g>
  </g>
  <g id="axes_2">
   <g id="patch_5">
    <path d="M 254.15 125.1 
L 401.45 125.1 
L 401.45 16.8 
L 254.15 16.8 
z
" style="fill:none;"/>
   </g>
   <g id="matplotlib.axis_3">
    <g id="xtick_8">
     <g id="line2d_14">
      <g>
       <use style="fill:#d2d2d2;stroke:#d2d2d2;" x="254.15" xlink:href="#m1cf5282999" y="125.1"/>
      </g>
     </g>
     <g id="text_16">
      <!-- 0 -->
      <g style="fill:#d2d2d2;" transform="translate(251.605 140.67875)scale(0.08 -0.08)">
       <use xlink:href="#DejaVuSans-30"/>
      </g>
     </g>
    </g>
    <g id="xtick_9">
     <g id="line2d_15">
      <g>
       <use style="fill:#d2d2d2;stroke:#d2d2d2;" x="276.245" xlink:href="#m1cf5282999" y="125.1"/>
      </g>
     </g>
     <g id="text_17">
      <!-- 3 -->
      <g style="fill:#d2d2d2;" transform="translate(273.7 140.67875)scale(0.08 -0.08)">
       <use xlink:href="#DejaVuSans-33"/>
      </g>
     </g>
    </g>
    <g id="xtick_10">
     <g id="line2d_16">
      <g>
       <use style="fill:#d2d2d2;stroke:#d2d2d2;" x="298.34" xlink:href="#m1cf5282999" y="125.1"/>
      </g>
     </g>
     <g id="text_18">
      <!-- 6 -->
      <g style="fill:#d2d2d2;" transform="translate(295.795 140.67875)scale(0.08 -0.08)">
       <use xlink:href="#DejaVuSans-36"/>
      </g>
     </g>
    </g>
    <g id="xtick_11">
     <g id="line2d_17">
      <g>
       <use style="fill:#d2d2d2;stroke:#d2d2d2;" x="320.435" xlink:href="#m1cf5282999" y="125.1"/>
      </g>
     </g>
     <g id="text_19">
      <!-- 9 -->
      <g style="fill:#d2d2d2;" transform="translate(317.89 140.67875)scale(0.08 -0.08)">
       <use xlink:href="#DejaVuSans-39"/>
      </g>
     </g>
    </g>
    <g id="xtick_12">
     <g id="line2d_18">
      <g>
       <use style="fill:#d2d2d2;stroke:#d2d2d2;" x="342.53" xlink:href="#m1cf5282999" y="125.1"/>
      </g>
     </g>
     <g id="text_20">
      <!-- 12 -->
      <g style="fill:#d2d2d2;" transform="translate(337.44 140.67875)scale(0.08 -0.08)">
       <use xlink:href="#DejaVuSans-31"/>
       <use x="63.623047" xlink:href="#DejaVuSans-32"/>
      </g>
     </g>
    </g>
    <g id="xtick_13">
     <g id="line2d_19">
      <g>
       <use style="fill:#d2d2d2;stroke:#d2d2d2;" x="364.625" xlink:href="#m1cf5282999" y="125.1"/>
      </g>
     </g>
     <g id="text_21">
      <!-- 15 -->
      <g style="fill:#d2d2d2;" transform="translate(359.535 140.67875)scale(0.08 -0.08)">
       <use xlink:href="#DejaVuSans-31"/>
       <use x="63.623047" xlink:href="#DejaVuSans-35"/>
      </g>
     </g>
    </g>
    <g id="xtick_14">
     <g id="line2d_20">
      <g>
       <use style="fill:#d2d2d2;stroke:#d2d2d2;" x="386.72" xlink:href="#m1cf5282999" y="125.1"/>
      </g>
     </g>
     <g id="text_22">
      <!-- 18 -->
      <g style="fill:#d2d2d2;" transform="translate(381.63 140.67875)scale(0.08 -0.08)">
       <use xlink:href="#DejaVuSans-31"/>
       <use x="63.623047" xlink:href="#DejaVuSans-38"/>
      </g>
     </g>
    </g>
    <g id="text_23">
     <!-- x -->
     <g style="fill:#d2d2d2;" transform="translate(324.24875 151.460625)scale(0.12 -0.12)">
      <use xlink:href="#DejaVuSans-78"/>
     </g>
    </g>
   </g>
   <g id="matplotlib.axis_4">
    <g id="ytick_6">
     <g id="line2d_21">
      <g>
       <use style="fill:#d2d2d2;stroke:#d2d2d2;" x="254.15" xlink:href="#m769bfd5f1a" y="125.1"/>
      </g>
     </g>
     <g id="text_24">
      <!-- 0 -->
      <g style="fill:#d2d2d2;" transform="translate(239.56 128.139375)scale(0.08 -0.08)">
       <use xlink:href="#DejaVuSans-30"/>
      </g>
     </g>
    </g>
    <g id="ytick_7">
     <g id="line2d_22">
      <g>
       <use style="fill:#d2d2d2;stroke:#d2d2d2;" x="254.15" xlink:href="#m769bfd5f1a" y="101.892857"/>
      </g>
     </g>
     <g id="text_25">
      <!-- 3 -->
      <g style="fill:#d2d2d2;" transform="translate(239.56 104.932232)scale(0.08 -0.08)">
       <use xlink:href="#DejaVuSans-33"/>
      </g>
     </g>
    </g>
    <g id="ytick_8">
     <g id="line2d_23">
      <g>
       <use style="fill:#d2d2d2;stroke:#d2d2d2;" x="254.15" xlink:href="#m769bfd5f1a" y="78.685714"/>
      </g>
     </g>
     <g id="text_26">
      <!-- 6 -->
      <g style="fill:#d2d2d2;" transform="translate(239.56 81.725089)scale(0.08 -0.08)">
       <use xlink:href="#DejaVuSans-36"/>
      </g>
     </g>
    </g>
    <g id="ytick_9">
     <g id="line2d_24">
      <g>
       <use style="fill:#d2d2d2;stroke:#d2d2d2;" x="254.15" xlink:href="#m769bfd5f1a" y="55.478571"/>
      </g>
     </g>
     <g id="text_27">
      <!-- 9 -->
      <g style="fill:#d2d2d2;" transform="translate(239.56 58.517946)scale(0.08 -0.08)">
       <use xlink:href="#DejaVuSans-39"/>
      </g>
     </g>
    </g>
    <g id="ytick_10">
     <g id="line2d_25">
      <g>
       <use style="fill:#d2d2d2;stroke:#d2d2d2;" x="254.15" xlink:href="#m769bfd5f1a" y="32.271429"/>
      </g>
     </g>
     <g id="text_28">
      <!-- 12 -->
      <g style="fill:#d2d2d2;" transform="translate(234.47 35.310804)scale(0.08 -0.08)">
       <use xlink:href="#DejaVuSans-31"/>
       <use x="63.623047" xlink:href="#DejaVuSans-32"/>
      </g>
     </g>
    </g>
    <g id="text_29">
     <!-- y -->
     <g style="fill:#d2d2d2;" transform="translate(231.974375 74.50125)rotate(-90)scale(0.12 -0.12)">
      <use xlink:href="#DejaVuSans-79"/>
     </g>
    </g>
   </g>
   <g id="line2d_26">
    <path clip-path="url(#pa640f54043)" d="M 254.15 101.885825 
L 261.515 98.017968 
L 268.88 94.15011 
L 276.245 90.282253 
L 283.61 86.414396 
L 290.975 82.546539 
L 298.34 78.678682 
L 305.705 74.810825 
L 313.07 70.942968 
L 320.435 67.07511 
L 327.8 63.207253 
L 335.165 59.339396 
L 342.53 55.471539 
L 349.895 51.603682 
L 357.26 47.735825 
L 364.625 43.867968 
L 371.99 40.00011 
L 379.355 36.132253 
L 386.72 32.264396 
L 394.085 28.396539 
" style="fill:none;stroke:#5bc0de;stroke-linecap:square;stroke-width:1.5;"/>
   </g>
   <g id="patch_6">
    <path d="M 254.15 125.1 
L 254.15 16.8 
" style="fill:none;stroke:#d2d2d2;stroke-linecap:square;stroke-linejoin:miter;stroke-width:0.8;"/>
   </g>
   <g id="patch_7">
    <path d="M 254.15 125.1 
L 401.45 125.1 
" style="fill:none;stroke:#d2d2d2;stroke-linecap:square;stroke-linejoin:miter;stroke-width:0.8;"/>
   </g>
   <g id="text_30">
    <!-- Dataset #1 -->
    <g style="fill:#d2d2d2;" transform="translate(257.8325 28.403571)scale(0.1 -0.1)">
     <use xlink:href="#DejaVuSans-44"/>
     <use x="77.001953" xlink:href="#DejaVuSans-61"/>
     <use x="138.28125" xlink:href="#DejaVuSans-74"/>
     <use x="177.490234" xlink:href="#DejaVuSans-61"/>
     <use x="238.769531" xlink:href="#DejaVuSans-73"/>
     <use x="290.869141" xlink:href="#DejaVuSans-65"/>
     <use x="352.392578" xlink:href="#DejaVuSans-74"/>
     <use x="391.601562" xlink:href="#DejaVuSans-20"/>
     <use x="423.388672" xlink:href="#DejaVuSans-23"/>
     <use x="507.177734" xlink:href="#DejaVuSans-31"/>
    </g>
   </g>
  </g>
  <g id="axes_3">
   <g id="patch_8">
    <path d="M 43.55 281.7 
L 190.85 281.7 
L 190.85 173.4 
L 43.55 173.4 
z
" style="fill:none;"/>
   </g>
   <g id="matplotlib.axis_5">
    <g id="xtick_15">
     <g id="line2d_27">
      <g>
       <use style="fill:#d2d2d2;stroke:#d2d2d2;" x="43.55" xlink:href="#m1cf5282999" y="281.7"/>
      </g>
     </g>
     <g id="text_31">
      <!-- 0 -->
      <g style="fill:#d2d2d2;" transform="translate(41.005 297.27875)scale(0.08 -0.08)">
       <use xlink:href="#DejaVuSans-30"/>
      </g>
     </g>
    </g>
    <g id="xtick_16">
     <g id="line2d_28">
      <g>
       <use style="fill:#d2d2d2;stroke:#d2d2d2;" x="65.645" xlink:href="#m1cf5282999" y="281.7"/>
      </g>
     </g>
     <g id="text_32">
      <!-- 3 -->
      <g style="fill:#d2d2d2;" transform="translate(63.1 297.27875)scale(0.08 -0.08)">
       <use xlink:href="#DejaVuSans-33"/>
      </g>
     </g>
    </g>
    <g id="xtick_17">
     <g id="line2d_29">
      <g>
       <use style="fill:#d2d2d2;stroke:#d2d2d2;" x="87.74" xlink:href="#m1cf5282999" y="281.7"/>
      </g>
     </g>
     <g id="text_33">
      <!-- 6 -->
      <g style="fill:#d2d2d2;" transform="translate(85.195 297.27875)scale(0.08 -0.08)">
       <use xlink:href="#DejaVuSans-36"/>
      </g>
     </g>
    </g>
    <g id="xtick_18">
     <g id="line2d_30">
      <g>
       <use style="fill:#d2d2d2;stroke:#d2d2d2;" x="109.835" xlink:href="#m1cf5282999" y="281.7"/>
      </g>
     </g>
     <g id="text_34">
      <!-- 9 -->
      <g style="fill:#d2d2d2;" transform="translate(107.29 297.27875)scale(0.08 -0.08)">
       <use xlink:href="#DejaVuSans-39"/>
      </g>
     </g>
    </g>
    <g id="xtick_19">
     <g id="line2d_31">
      <g>
       <use style="fill:#d2d2d2;stroke:#d2d2d2;" x="131.93" xlink:href="#m1cf5282999" y="281.7"/>
      </g>
     </g>
     <g id="text_35">
      <!-- 12 -->
      <g style="fill:#d2d2d2;" transform="translate(126.84 297.27875)scale(0.08 -0.08)">
       <use xlink:href="#DejaVuSans-31"/>
       <use x="63.623047" xlink:href="#DejaVuSans-32"/>
      </g>
     </g>
    </g>
    <g id="xtick_20">
     <g id="line2d_32">
      <g>
       <use style="fill:#d2d2d2;stroke:#d2d2d2;" x="154.025" xlink:href="#m1cf5282999" y="281.7"/>
      </g>
     </g>
     <g id="text_36">
      <!-- 15 -->
      <g style="fill:#d2d2d2;" transform="translate(148.935 297.27875)scale(0.08 -0.08)">
       <use xlink:href="#DejaVuSans-31"/>
       <use x="63.623047" xlink:href="#DejaVuSans-35"/>
      </g>
     </g>
    </g>
    <g id="xtick_21">
     <g id="line2d_33">
      <g>
       <use style="fill:#d2d2d2;stroke:#d2d2d2;" x="176.12" xlink:href="#m1cf5282999" y="281.7"/>
      </g>
     </g>
     <g id="text_37">
      <!-- 18 -->
      <g style="fill:#d2d2d2;" transform="translate(171.03 297.27875)scale(0.08 -0.08)">
       <use xlink:href="#DejaVuSans-31"/>
       <use x="63.623047" xlink:href="#DejaVuSans-38"/>
      </g>
     </g>
    </g>
    <g id="text_38">
     <!-- x -->
     <g style="fill:#d2d2d2;" transform="translate(113.64875 308.060625)scale(0.12 -0.12)">
      <use xlink:href="#DejaVuSans-78"/>
     </g>
    </g>
   </g>
   <g id="matplotlib.axis_6">
    <g id="ytick_11">
     <g id="line2d_34">
      <g>
       <use style="fill:#d2d2d2;stroke:#d2d2d2;" x="43.55" xlink:href="#m769bfd5f1a" y="281.7"/>
      </g>
     </g>
     <g id="text_39">
      <!-- 0 -->
      <g style="fill:#d2d2d2;" transform="translate(28.96 284.739375)scale(0.08 -0.08)">
       <use xlink:href="#DejaVuSans-30"/>
      </g>
     </g>
    </g>
    <g id="ytick_12">
     <g id="line2d_35">
      <g>
       <use style="fill:#d2d2d2;stroke:#d2d2d2;" x="43.55" xlink:href="#m769bfd5f1a" y="258.492857"/>
      </g>
     </g>
     <g id="text_40">
      <!-- 3 -->
      <g style="fill:#d2d2d2;" transform="translate(28.96 261.532232)scale(0.08 -0.08)">
       <use xlink:href="#DejaVuSans-33"/>
      </g>
     </g>
    </g>
    <g id="ytick_13">
     <g id="line2d_36">
      <g>
       <use style="fill:#d2d2d2;stroke:#d2d2d2;" x="43.55" xlink:href="#m769bfd5f1a" y="235.285714"/>
      </g>
     </g>
     <g id="text_41">
      <!-- 6 -->
      <g style="fill:#d2d2d2;" transform="translate(28.96 238.325089)scale(0.08 -0.08)">
       <use xlink:href="#DejaVuSans-36"/>
      </g>
     </g>
    </g>
    <g id="ytick_14">
     <g id="line2d_37">
      <g>
       <use style="fill:#d2d2d2;stroke:#d2d2d2;" x="43.55" xlink:href="#m769bfd5f1a" y="212.078571"/>
      </g>
     </g>
     <g id="text_42">
      <!-- 9 -->
      <g style="fill:#d2d2d2;" transform="translate(28.96 215.117946)scale(0.08 -0.08)">
       <use xlink:href="#DejaVuSans-39"/>
      </g>
     </g>
    </g>
    <g id="ytick_15">
     <g id="line2d_38">
      <g>
       <use style="fill:#d2d2d2;stroke:#d2d2d2;" x="43.55" xlink:href="#m769bfd5f1a" y="188.871429"/>
      </g>
     </g>
     <g id="text_43">
      <!-- 12 -->
      <g style="fill:#d2d2d2;" transform="translate(23.87 191.910804)scale(0.08 -0.08)">
       <use xlink:href="#DejaVuSans-31"/>
       <use x="63.623047" xlink:href="#DejaVuSans-32"/>
      </g>
     </g>
    </g>
    <g id="text_44">
     <!-- y -->
     <g style="fill:#d2d2d2;" transform="translate(21.374375 231.10125)rotate(-90)scale(0.12 -0.12)">
      <use xlink:href="#DejaVuSans-79"/>
     </g>
    </g>
   </g>
   <g id="line2d_39">
    <path clip-path="url(#p3375aecbba)" d="M 43.55 258.473869 
L 50.915 254.608122 
L 58.28 250.742375 
L 65.645 246.876627 
L 73.01 243.01088 
L 80.375 239.145132 
L 87.74 235.279385 
L 95.105 231.413638 
L 102.47 227.54789 
L 109.835 223.682143 
L 117.2 219.816395 
L 124.565 215.950648 
L 131.93 212.084901 
L 139.295 208.219153 
L 146.66 204.353406 
L 154.025 200.487658 
L 161.39 196.621911 
L 168.755 192.756164 
L 176.12 188.890416 
L 183.485 185.024669 
" style="fill:none;stroke:#5bc0de;stroke-linecap:square;stroke-width:1.5;"/>
   </g>
   <g id="patch_9">
    <path d="M 43.55 281.7 
L 43.55 173.4 
" style="fill:none;stroke:#d2d2d2;stroke-linecap:square;stroke-linejoin:miter;stroke-width:0.8;"/>
   </g>
   <g id="patch_10">
    <path d="M 43.55 281.7 
L 190.85 281.7 
" style="fill:none;stroke:#d2d2d2;stroke-linecap:square;stroke-linejoin:miter;stroke-width:0.8;"/>
   </g>
   <g id="text_45">
    <!-- Dataset #2 -->
    <g style="fill:#d2d2d2;" transform="translate(47.2325 185.003571)scale(0.1 -0.1)">
     <use xlink:href="#DejaVuSans-44"/>
     <use x="77.001953" xlink:href="#DejaVuSans-61"/>
     <use x="138.28125" xlink:href="#DejaVuSans-74"/>
     <use x="177.490234" xlink:href="#DejaVuSans-61"/>
     <use x="238.769531" xlink:href="#DejaVuSans-73"/>
     <use x="290.869141" xlink:href="#DejaVuSans-65"/>
     <use x="352.392578" xlink:href="#DejaVuSans-74"/>
     <use x="391.601562" xlink:href="#DejaVuSans-20"/>
     <use x="423.388672" xlink:href="#DejaVuSans-23"/>
     <use x="507.177734" xlink:href="#DejaVuSans-32"/>
    </g>
   </g>
  </g>
  <g id="axes_4">
   <g id="patch_11">
    <path d="M 254.15 281.7 
L 401.45 281.7 
L 401.45 173.4 
L 254.15 173.4 
z
" style="fill:none;"/>
   </g>
   <g id="matplotlib.axis_7">
    <g id="xtick_22">
     <g id="line2d_40">
      <g>
       <use style="fill:#d2d2d2;stroke:#d2d2d2;" x="254.15" xlink:href="#m1cf5282999" y="281.7"/>
      </g>
     </g>
     <g id="text_46">
      <!-- 0 -->
      <g style="fill:#d2d2d2;" transform="translate(251.605 297.27875)scale(0.08 -0.08)">
       <use xlink:href="#DejaVuSans-30"/>
      </g>
     </g>
    </g>
    <g id="xtick_23">
     <g id="line2d_41">
      <g>
       <use style="fill:#d2d2d2;stroke:#d2d2d2;" x="276.245" xlink:href="#m1cf5282999" y="281.7"/>
      </g>
     </g>
     <g id="text_47">
      <!-- 3 -->
      <g style="fill:#d2d2d2;" transform="translate(273.7 297.27875)scale(0.08 -0.08)">
       <use xlink:href="#DejaVuSans-33"/>
      </g>
     </g>
    </g>
    <g id="xtick_24">
     <g id="line2d_42">
      <g>
       <use style="fill:#d2d2d2;stroke:#d2d2d2;" x="298.34" xlink:href="#m1cf5282999" y="281.7"/>
      </g>
     </g>
     <g id="text_48">
      <!-- 6 -->
      <g style="fill:#d2d2d2;" transform="translate(295.795 297.27875)scale(0.08 -0.08)">
       <use xlink:href="#DejaVuSans-36"/>
      </g>
     </g>
    </g>
    <g id="xtick_25">
     <g id="line2d_43">
      <g>
       <use style="fill:#d2d2d2;stroke:#d2d2d2;" x="320.435" xlink:href="#m1cf5282999" y="281.7"/>
      </g>
     </g>
     <g id="text_49">
      <!-- 9 -->
      <g style="fill:#d2d2d2;" transform="translate(317.89 297.27875)scale(0.08 -0.08)">
       <use xlink:href="#DejaVuSans-39"/>
      </g>
     </g>
    </g>
    <g id="xtick_26">
     <g id="line2d_44">
      <g>
       <use style="fill:#d2d2d2;stroke:#d2d2d2;" x="342.53" xlink:href="#m1cf5282999" y="281.7"/>
      </g>
     </g>
     <g id="text_50">
      <!-- 12 -->
      <g style="fill:#d2d2d2;" transform="translate(337.44 297.27875)scale(0.08 -0.08)">
       <use xlink:href="#DejaVuSans-31"/>
       <use x="63.623047" xlink:href="#DejaVuSans-32"/>
      </g>
     </g>
    </g>
    <g id="xtick_27">
     <g id="line2d_45">
      <g>
       <use style="fill:#d2d2d2;stroke:#d2d2d2;" x="364.625" xlink:href="#m1cf5282999" y="281.7"/>
      </g>
     </g>
     <g id="text_51">
      <!-- 15 -->
      <g style="fill:#d2d2d2;" transform="translate(359.535 297.27875)scale(0.08 -0.08)">
       <use xlink:href="#DejaVuSans-31"/>
       <use x="63.623047" xlink:href="#DejaVuSans-35"/>
      </g>
     </g>
    </g>
    <g id="xtick_28">
     <g id="line2d_46">
      <g>
       <use style="fill:#d2d2d2;stroke:#d2d2d2;" x="386.72" xlink:href="#m1cf5282999" y="281.7"/>
      </g>
     </g>
     <g id="text_52">
      <!-- 18 -->
      <g style="fill:#d2d2d2;" transform="translate(381.63 297.27875)scale(0.08 -0.08)">
       <use xlink:href="#DejaVuSans-31"/>
       <use x="63.623047" xlink:href="#DejaVuSans-38"/>
      </g>
     </g>
    </g>
    <g id="text_53">
     <!-- x -->
     <g style="fill:#d2d2d2;" transform="translate(324.24875 308.060625)scale(0.12 -0.12)">
      <use xlink:href="#DejaVuSans-78"/>
     </g>
    </g>
   </g>
   <g id="matplotlib.axis_8">
    <g id="ytick_16">
     <g id="line2d_47">
      <g>
       <use style="fill:#d2d2d2;stroke:#d2d2d2;" x="254.15" xlink:href="#m769bfd5f1a" y="281.7"/>
      </g>
     </g>
     <g id="text_54">
      <!-- 0 -->
      <g style="fill:#d2d2d2;" transform="translate(239.56 284.739375)scale(0.08 -0.08)">
       <use xlink:href="#DejaVuSans-30"/>
      </g>
     </g>
    </g>
    <g id="ytick_17">
     <g id="line2d_48">
      <g>
       <use style="fill:#d2d2d2;stroke:#d2d2d2;" x="254.15" xlink:href="#m769bfd5f1a" y="258.492857"/>
      </g>
     </g>
     <g id="text_55">
      <!-- 3 -->
      <g style="fill:#d2d2d2;" transform="translate(239.56 261.532232)scale(0.08 -0.08)">
       <use xlink:href="#DejaVuSans-33"/>
      </g>
     </g>
    </g>
    <g id="ytick_18">
     <g id="line2d_49">
      <g>
       <use style="fill:#d2d2d2;stroke:#d2d2d2;" x="254.15" xlink:href="#m769bfd5f1a" y="235.285714"/>
      </g>
     </g>
     <g id="text_56">
      <!-- 6 -->
      <g style="fill:#d2d2d2;" transform="translate(239.56 238.325089)scale(0.08 -0.08)">
       <use xlink:href="#DejaVuSans-36"/>
      </g>
     </g>
    </g>
    <g id="ytick_19">
     <g id="line2d_50">
      <g>
       <use style="fill:#d2d2d2;stroke:#d2d2d2;" x="254.15" xlink:href="#m769bfd5f1a" y="212.078571"/>
      </g>
     </g>
     <g id="text_57">
      <!-- 9 -->
      <g style="fill:#d2d2d2;" transform="translate(239.56 215.117946)scale(0.08 -0.08)">
       <use xlink:href="#DejaVuSans-39"/>
      </g>
     </g>
    </g>
    <g id="ytick_20">
     <g id="line2d_51">
      <g>
       <use style="fill:#d2d2d2;stroke:#d2d2d2;" x="254.15" xlink:href="#m769bfd5f1a" y="188.871429"/>
      </g>
     </g>
     <g id="text_58">
      <!-- 12 -->
      <g style="fill:#d2d2d2;" transform="translate(234.47 191.910804)scale(0.08 -0.08)">
       <use xlink:href="#DejaVuSans-31"/>
       <use x="63.623047" xlink:href="#DejaVuSans-32"/>
      </g>
     </g>
    </g>
    <g id="text_59">
     <!-- y -->
     <g style="fill:#d2d2d2;" transform="translate(231.974375 231.10125)rotate(-90)scale(0.12 -0.12)">
      <use xlink:href="#DejaVuSans-79"/>
     </g>
    </g>
   </g>
   <g id="line2d_52">
    <path clip-path="url(#p72a46fc4ab)" d="M 254.15 258.479495 
L 261.515 254.612342 
L 268.88 250.745188 
L 276.245 246.878034 
L 283.61 243.01088 
L 290.975 239.143726 
L 298.34 235.276572 
L 305.705 231.409418 
L 313.07 227.542264 
L 320.435 223.67511 
L 327.8 219.807956 
L 335.165 215.940803 
L 342.53 212.073649 
L 349.895 208.206495 
L 357.26 204.339341 
L 364.625 200.472187 
L 371.99 196.605033 
L 379.355 192.737879 
L 386.72 188.870725 
L 394.085 185.003571 
" style="fill:none;stroke:#5bc0de;stroke-linecap:square;stroke-width:1.5;"/>
   </g>
   <g id="patch_12">
    <path d="M 254.15 281.7 
L 254.15 173.4 
" style="fill:none;stroke:#d2d2d2;stroke-linecap:square;stroke-linejoin:miter;stroke-width:0.8;"/>
   </g>
   <g id="patch_13">
    <path d="M 254.15 281.7 
L 401.45 281.7 
" style="fill:none;stroke:#d2d2d2;stroke-linecap:square;stroke-linejoin:miter;stroke-width:0.8;"/>
   </g>
   <g id="text_60">
    <!-- Dataset #3 -->
    <g style="fill:#d2d2d2;" transform="translate(257.8325 185.003571)scale(0.1 -0.1)">
     <use xlink:href="#DejaVuSans-44"/>
     <use x="77.001953" xlink:href="#DejaVuSans-61"/>
     <use x="138.28125" xlink:href="#DejaVuSans-74"/>
     <use x="177.490234" xlink:href="#DejaVuSans-61"/>
     <use x="238.769531" xlink:href="#DejaVuSans-73"/>
     <use x="290.869141" xlink:href="#DejaVuSans-65"/>
     <use x="352.392578" xlink:href="#DejaVuSans-74"/>
     <use x="391.601562" xlink:href="#DejaVuSans-20"/>
     <use x="423.388672" xlink:href="#DejaVuSans-23"/>
     <use x="507.177734" xlink:href="#DejaVuSans-33"/>
    </g>
   </g>
  </g>
  <g id="axes_5">
   <g id="PathCollection_1">
    <defs>
     <path d="M 0 3 
C 0.795609 3 1.55874 2.683901 2.12132 2.12132 
C 2.683901 1.55874 3 0.795609 3 0 
C 3 -0.795609 2.683901 -1.55874 2.12132 -2.12132 
C 1.55874 -2.683901 0.795609 -3 0 -3 
C -0.795609 -3 -1.55874 -2.683901 -2.12132 -2.12132 
C -2.683901 -1.55874 -3 -0.795609 -3 0 
C -3 0.795609 -2.683901 1.55874 -2.12132 2.12132 
C -1.55874 2.683901 -0.795609 3 0 3 
z
" id="me0c1bf4262" style="stroke:#f0ad4e;"/>
    </defs>
    <g clip-path="url(#pc76a38a74f)">
     <use style="fill:#f0ad4e;stroke:#f0ad4e;" x="117.2" xlink:href="#me0c1bf4262" y="62.904857"/>
     <use style="fill:#f0ad4e;stroke:#f0ad4e;" x="102.47" xlink:href="#me0c1bf4262" y="71.336786"/>
     <use style="fill:#f0ad4e;stroke:#f0ad4e;" x="139.295" xlink:href="#me0c1bf4262" y="66.463286"/>
     <use style="fill:#f0ad4e;stroke:#f0ad4e;" x="109.835" xlink:href="#me0c1bf4262" y="56.948357"/>
     <use style="fill:#f0ad4e;stroke:#f0ad4e;" x="124.565" xlink:href="#me0c1bf4262" y="60.6615"/>
     <use style="fill:#f0ad4e;stroke:#f0ad4e;" x="146.66" xlink:href="#me0c1bf4262" y="48.052286"/>
     <use style="fill:#f0ad4e;stroke:#f0ad4e;" x="87.74" xlink:href="#me0c1bf4262" y="69.093429"/>
     <use style="fill:#f0ad4e;stroke:#f0ad4e;" x="73.01" xlink:href="#me0c1bf4262" y="92.145857"/>
     <use style="fill:#f0ad4e;stroke:#f0ad4e;" x="131.93" xlink:href="#me0c1bf4262" y="41.244857"/>
     <use style="fill:#f0ad4e;stroke:#f0ad4e;" x="95.105" xlink:href="#me0c1bf4262" y="87.813857"/>
     <use style="fill:#f0ad4e;stroke:#f0ad4e;" x="80.375" xlink:href="#me0c1bf4262" y="81.161143"/>
    </g>
   </g>
  </g>
  <g id="axes_6">
   <g id="PathCollection_2">
    <g clip-path="url(#pa640f54043)">
     <use style="fill:#f0ad4e;stroke:#f0ad4e;" x="327.8" xlink:href="#me0c1bf4262" y="54.395571"/>
     <use style="fill:#f0ad4e;stroke:#f0ad4e;" x="313.07" xlink:href="#me0c1bf4262" y="62.131286"/>
     <use style="fill:#f0ad4e;stroke:#f0ad4e;" x="349.895" xlink:href="#me0c1bf4262" y="57.489857"/>
     <use style="fill:#f0ad4e;stroke:#f0ad4e;" x="320.435" xlink:href="#me0c1bf4262" y="57.257786"/>
     <use style="fill:#f0ad4e;stroke:#f0ad4e;" x="335.165" xlink:href="#me0c1bf4262" y="53.467286"/>
     <use style="fill:#f0ad4e;stroke:#f0ad4e;" x="357.26" xlink:href="#me0c1bf4262" y="62.440714"/>
     <use style="fill:#f0ad4e;stroke:#f0ad4e;" x="298.34" xlink:href="#me0c1bf4262" y="77.680071"/>
     <use style="fill:#f0ad4e;stroke:#f0ad4e;" x="283.61" xlink:href="#me0c1bf4262" y="101.119286"/>
     <use style="fill:#f0ad4e;stroke:#f0ad4e;" x="342.53" xlink:href="#me0c1bf4262" y="54.472929"/>
     <use style="fill:#f0ad4e;stroke:#f0ad4e;" x="305.705" xlink:href="#me0c1bf4262" y="68.938714"/>
     <use style="fill:#f0ad4e;stroke:#f0ad4e;" x="290.975" xlink:href="#me0c1bf4262" y="88.432714"/>
    </g>
   </g>
  </g>
  <g id="axes_7">
   <g id="PathCollection_3">
    <g clip-path="url(#p3375aecbba)">
     <use style="fill:#f0ad4e;stroke:#f0ad4e;" x="117.2" xlink:href="#me0c1bf4262" y="223.991571"/>
     <use style="fill:#f0ad4e;stroke:#f0ad4e;" x="102.47" xlink:href="#me0c1bf4262" y="229.329214"/>
     <use style="fill:#f0ad4e;stroke:#f0ad4e;" x="139.295" xlink:href="#me0c1bf4262" y="183.147"/>
     <use style="fill:#f0ad4e;stroke:#f0ad4e;" x="109.835" xlink:href="#me0c1bf4262" y="226.699071"/>
     <use style="fill:#f0ad4e;stroke:#f0ad4e;" x="124.565" xlink:href="#me0c1bf4262" y="221.284071"/>
     <use style="fill:#f0ad4e;stroke:#f0ad4e;" x="146.66" xlink:href="#me0c1bf4262" y="213.316286"/>
     <use style="fill:#f0ad4e;stroke:#f0ad4e;" x="87.74" xlink:href="#me0c1bf4262" y="234.666857"/>
     <use style="fill:#f0ad4e;stroke:#f0ad4e;" x="73.01" xlink:href="#me0c1bf4262" y="240.0045"/>
     <use style="fill:#f0ad4e;stroke:#f0ad4e;" x="131.93" xlink:href="#me0c1bf4262" y="218.653929"/>
     <use style="fill:#f0ad4e;stroke:#f0ad4e;" x="95.105" xlink:href="#me0c1bf4262" y="232.036714"/>
     <use style="fill:#f0ad4e;stroke:#f0ad4e;" x="80.375" xlink:href="#me0c1bf4262" y="237.374357"/>
    </g>
   </g>
  </g>
  <g id="axes_8">
   <g id="PathCollection_4">
    <g clip-path="url(#p72a46fc4ab)">
     <use style="fill:#f0ad4e;stroke:#f0ad4e;" x="313.07" xlink:href="#me0c1bf4262" y="230.799"/>
     <use style="fill:#f0ad4e;stroke:#f0ad4e;" x="313.07" xlink:href="#me0c1bf4262" y="237.142286"/>
     <use style="fill:#f0ad4e;stroke:#f0ad4e;" x="313.07" xlink:href="#me0c1bf4262" y="222.057643"/>
     <use style="fill:#f0ad4e;stroke:#f0ad4e;" x="313.07" xlink:href="#me0c1bf4262" y="213.316286"/>
     <use style="fill:#f0ad4e;stroke:#f0ad4e;" x="313.07" xlink:href="#me0c1bf4262" y="216.1785"/>
     <use style="fill:#f0ad4e;stroke:#f0ad4e;" x="313.07" xlink:href="#me0c1bf4262" y="227.240571"/>
     <use style="fill:#f0ad4e;stroke:#f0ad4e;" x="313.07" xlink:href="#me0c1bf4262" y="241.0875"/>
     <use style="fill:#f0ad4e;stroke:#f0ad4e;" x="394.085" xlink:href="#me0c1bf4262" y="185.003571"/>
     <use style="fill:#f0ad4e;stroke:#f0ad4e;" x="313.07" xlink:href="#me0c1bf4262" y="238.689429"/>
     <use style="fill:#f0ad4e;stroke:#f0ad4e;" x="313.07" xlink:href="#me0c1bf4262" y="220.5105"/>
     <use style="fill:#f0ad4e;stroke:#f0ad4e;" x="313.07" xlink:href="#me0c1bf4262" y="228.400929"/>
    </g>
   </g>
  </g>
 </g>
 <defs>
  <clipPath id="pc76a38a74f">
   <rect height="108.3" width="147.3" x="43.55" y="16.8"/>
  </clipPath>
  <clipPath id="pa640f54043">
   <rect height="108.3" width="147.3" x="254.15" y="16.8"/>
  </clipPath>
  <clipPath id="p3375aecbba">
   <rect height="108.3" width="147.3" x="43.55" y="173.4"/>
  </clipPath>
  <clipPath id="p72a46fc4ab">
   <rect height="108.3" width="147.3" x="254.15" y="173.4"/>
  </clipPath>
 </defs>
</svg>
