<?xml version="1.0" encoding="utf-8" standalone="no"?>
<!DOCTYPE svg PUBLIC "-//W3C//DTD SVG 1.1//EN"
  "http://www.w3.org/Graphics/SVG/1.1/DTD/svg11.dtd">
<!-- Created with matplotlib (http://matplotlib.org/) -->
<svg height="288pt" version="1.1" viewBox="0 0 432 288" width="432pt" xmlns="http://www.w3.org/2000/svg" xmlns:xlink="http://www.w3.org/1999/xlink">
 <defs>
  <style type="text/css">
*{stroke-linecap:butt;stroke-linejoin:round;}
  </style>
 </defs>
 <g id="figure_1">
  <g id="patch_1">
   <path d="M 0 288 
L 432 288 
L 432 0 
L 0 0 
z
" style="fill:none;"/>
  </g>
  <g id="axes_1">
   <g id="patch_2">
    <path d="M 56.16 244.8 
L 371.52 244.8 
L 371.52 14.4 
L 56.16 14.4 
z
" style="fill:none;"/>
   </g>
   <g id="patch_3">
    <path clip-path="url(#p51a654251c)" d="M 56.16 244.8 
L 58.076956 244.8 
L 58.076956 25.371429 
L 56.16 25.371429 
z
" style="fill:#5bc0de;"/>
   </g>
   <g id="patch_4">
    <path clip-path="url(#p51a654251c)" d="M 58.076956 244.8 
L 59.993912 244.8 
L 59.993912 51.437919 
L 58.076956 51.437919 
z
" style="fill:#5bc0de;"/>
   </g>
   <g id="patch_5">
    <path clip-path="url(#p51a654251c)" d="M 59.993912 244.8 
L 61.910868 244.8 
L 61.910868 58.916011 
L 59.993912 58.916011 
z
" style="fill:#5bc0de;"/>
   </g>
   <g id="patch_6">
    <path clip-path="url(#p51a654251c)" d="M 61.910868 244.8 
L 63.827824 244.8 
L 63.827824 80.922966 
L 61.910868 80.922966 
z
" style="fill:#5bc0de;"/>
   </g>
   <g id="patch_7">
    <path clip-path="url(#p51a654251c)" d="M 63.827824 244.8 
L 65.74478 244.8 
L 65.74478 102.929921 
L 63.827824 102.929921 
z
" style="fill:#5bc0de;"/>
   </g>
   <g id="patch_8">
    <path clip-path="url(#p51a654251c)" d="M 65.74478 244.8 
L 67.661736 244.8 
L 67.661736 120.663681 
L 65.74478 120.663681 
z
" style="fill:#5bc0de;"/>
   </g>
   <g id="patch_9">
    <path clip-path="url(#p51a654251c)" d="M 67.661736 244.8 
L 69.578692 244.8 
L 69.578692 132.842287 
L 67.661736 132.842287 
z
" style="fill:#5bc0de;"/>
   </g>
   <g id="patch_10">
    <path clip-path="url(#p51a654251c)" d="M 69.578692 244.8 
L 71.495648 244.8 
L 71.495648 151.644346 
L 69.578692 151.644346 
z
" style="fill:#5bc0de;"/>
   </g>
   <g id="patch_11">
    <path clip-path="url(#p51a654251c)" d="M 71.495648 244.8 
L 73.412605 244.8 
L 73.412605 157.413159 
L 71.495648 157.413159 
z
" style="fill:#5bc0de;"/>
   </g>
   <g id="patch_12">
    <path clip-path="url(#p51a654251c)" d="M 73.412605 244.8 
L 75.329561 244.8 
L 75.329561 171.301043 
L 73.412605 171.301043 
z
" style="fill:#5bc0de;"/>
   </g>
   <g id="patch_13">
    <path clip-path="url(#p51a654251c)" d="M 75.329561 244.8 
L 77.246517 244.8 
L 77.246517 172.796662 
L 75.329561 172.796662 
z
" style="fill:#5bc0de;"/>
   </g>
   <g id="patch_14">
    <path clip-path="url(#p51a654251c)" d="M 77.246517 244.8 
L 79.163473 244.8 
L 79.163473 188.607484 
L 77.246517 188.607484 
z
" style="fill:#5bc0de;"/>
   </g>
   <g id="patch_15">
    <path clip-path="url(#p51a654251c)" d="M 79.163473 244.8 
L 81.080429 244.8 
L 81.080429 186.043567 
L 79.163473 186.043567 
z
" style="fill:#5bc0de;"/>
   </g>
   <g id="patch_16">
    <path clip-path="url(#p51a654251c)" d="M 81.080429 244.8 
L 82.997385 244.8 
L 82.997385 197.581193 
L 81.080429 197.581193 
z
" style="fill:#5bc0de;"/>
   </g>
   <g id="patch_17">
    <path clip-path="url(#p51a654251c)" d="M 82.997385 244.8 
L 84.914341 244.8 
L 84.914341 198.863152 
L 82.997385 198.863152 
z
" style="fill:#5bc0de;"/>
   </g>
   <g id="patch_18">
    <path clip-path="url(#p51a654251c)" d="M 84.914341 244.8 
L 86.831297 244.8 
L 86.831297 205.059285 
L 84.914341 205.059285 
z
" style="fill:#5bc0de;"/>
   </g>
   <g id="patch_19">
    <path clip-path="url(#p51a654251c)" d="M 86.831297 244.8 
L 88.748253 244.8 
L 88.748253 205.486605 
L 86.831297 205.486605 
z
" style="fill:#5bc0de;"/>
   </g>
   <g id="patch_20">
    <path clip-path="url(#p51a654251c)" d="M 88.748253 244.8 
L 90.665209 244.8 
L 90.665209 212.537377 
L 88.748253 212.537377 
z
" style="fill:#5bc0de;"/>
   </g>
   <g id="patch_21">
    <path clip-path="url(#p51a654251c)" d="M 90.665209 244.8 
L 92.582165 244.8 
L 92.582165 217.87887 
L 90.665209 217.87887 
z
" style="fill:#5bc0de;"/>
   </g>
   <g id="patch_22">
    <path clip-path="url(#p51a654251c)" d="M 92.582165 244.8 
L 94.499121 244.8 
L 94.499121 219.160829 
L 92.582165 219.160829 
z
" style="fill:#5bc0de;"/>
   </g>
   <g id="patch_23">
    <path clip-path="url(#p51a654251c)" d="M 94.499121 244.8 
L 96.416077 244.8 
L 96.416077 221.083767 
L 94.499121 221.083767 
z
" style="fill:#5bc0de;"/>
   </g>
   <g id="patch_24">
    <path clip-path="url(#p51a654251c)" d="M 96.416077 244.8 
L 98.333033 244.8 
L 98.333033 224.288663 
L 96.416077 224.288663 
z
" style="fill:#5bc0de;"/>
   </g>
   <g id="patch_25">
    <path clip-path="url(#p51a654251c)" d="M 98.333033 244.8 
L 100.249989 244.8 
L 100.249989 222.793045 
L 98.333033 222.793045 
z
" style="fill:#5bc0de;"/>
   </g>
   <g id="patch_26">
    <path clip-path="url(#p51a654251c)" d="M 100.249989 244.8 
L 102.166945 244.8 
L 102.166945 226.425261 
L 100.249989 226.425261 
z
" style="fill:#5bc0de;"/>
   </g>
   <g id="patch_27">
    <path clip-path="url(#p51a654251c)" d="M 102.166945 244.8 
L 104.083902 244.8 
L 104.083902 227.707219 
L 102.166945 227.707219 
z
" style="fill:#5bc0de;"/>
   </g>
   <g id="patch_28">
    <path clip-path="url(#p51a654251c)" d="M 104.083902 244.8 
L 106.000858 244.8 
L 106.000858 229.202838 
L 104.083902 229.202838 
z
" style="fill:#5bc0de;"/>
   </g>
   <g id="patch_29">
    <path clip-path="url(#p51a654251c)" d="M 106.000858 244.8 
L 107.917814 244.8 
L 107.917814 231.125775 
L 106.000858 231.125775 
z
" style="fill:#5bc0de;"/>
   </g>
   <g id="patch_30">
    <path clip-path="url(#p51a654251c)" d="M 107.917814 244.8 
L 109.83477 244.8 
L 109.83477 231.980415 
L 107.917814 231.980415 
z
" style="fill:#5bc0de;"/>
   </g>
   <g id="patch_31">
    <path clip-path="url(#p51a654251c)" d="M 109.83477 244.8 
L 111.751726 244.8 
L 111.751726 235.185311 
L 109.83477 235.185311 
z
" style="fill:#5bc0de;"/>
   </g>
   <g id="patch_32">
    <path clip-path="url(#p51a654251c)" d="M 111.751726 244.8 
L 113.668682 244.8 
L 113.668682 235.185311 
L 111.751726 235.185311 
z
" style="fill:#5bc0de;"/>
   </g>
   <g id="patch_33">
    <path clip-path="url(#p51a654251c)" d="M 113.668682 244.8 
L 115.585638 244.8 
L 115.585638 234.544332 
L 113.668682 234.544332 
z
" style="fill:#5bc0de;"/>
   </g>
   <g id="patch_34">
    <path clip-path="url(#p51a654251c)" d="M 115.585638 244.8 
L 117.502594 244.8 
L 117.502594 236.467269 
L 115.585638 236.467269 
z
" style="fill:#5bc0de;"/>
   </g>
   <g id="patch_35">
    <path clip-path="url(#p51a654251c)" d="M 117.502594 244.8 
L 119.41955 244.8 
L 119.41955 235.61263 
L 117.502594 235.61263 
z
" style="fill:#5bc0de;"/>
   </g>
   <g id="patch_36">
    <path clip-path="url(#p51a654251c)" d="M 119.41955 244.8 
L 121.336506 244.8 
L 121.336506 236.25361 
L 119.41955 236.25361 
z
" style="fill:#5bc0de;"/>
   </g>
   <g id="patch_37">
    <path clip-path="url(#p51a654251c)" d="M 121.336506 244.8 
L 123.253462 244.8 
L 123.253462 239.885826 
L 121.336506 239.885826 
z
" style="fill:#5bc0de;"/>
   </g>
   <g id="patch_38">
    <path clip-path="url(#p51a654251c)" d="M 123.253462 244.8 
L 125.170418 244.8 
L 125.170418 238.817527 
L 123.253462 238.817527 
z
" style="fill:#5bc0de;"/>
   </g>
   <g id="patch_39">
    <path clip-path="url(#p51a654251c)" d="M 125.170418 244.8 
L 127.087374 244.8 
L 127.087374 237.535568 
L 125.170418 237.535568 
z
" style="fill:#5bc0de;"/>
   </g>
   <g id="patch_40">
    <path clip-path="url(#p51a654251c)" d="M 127.087374 244.8 
L 129.00433 244.8 
L 129.00433 239.458506 
L 127.087374 239.458506 
z
" style="fill:#5bc0de;"/>
   </g>
   <g id="patch_41">
    <path clip-path="url(#p51a654251c)" d="M 129.00433 244.8 
L 130.921286 244.8 
L 130.921286 239.458506 
L 129.00433 239.458506 
z
" style="fill:#5bc0de;"/>
   </g>
   <g id="patch_42">
    <path clip-path="url(#p51a654251c)" d="M 130.921286 244.8 
L 132.838242 244.8 
L 132.838242 241.381444 
L 130.921286 241.381444 
z
" style="fill:#5bc0de;"/>
   </g>
   <g id="patch_43">
    <path clip-path="url(#p51a654251c)" d="M 132.838242 244.8 
L 134.755199 244.8 
L 134.755199 239.885826 
L 132.838242 239.885826 
z
" style="fill:#5bc0de;"/>
   </g>
   <g id="patch_44">
    <path clip-path="url(#p51a654251c)" d="M 134.755199 244.8 
L 136.672155 244.8 
L 136.672155 241.381444 
L 134.755199 241.381444 
z
" style="fill:#5bc0de;"/>
   </g>
   <g id="patch_45">
    <path clip-path="url(#p51a654251c)" d="M 136.672155 244.8 
L 138.589111 244.8 
L 138.589111 241.381444 
L 136.672155 241.381444 
z
" style="fill:#5bc0de;"/>
   </g>
   <g id="patch_46">
    <path clip-path="url(#p51a654251c)" d="M 138.589111 244.8 
L 140.506067 244.8 
L 140.506067 239.244846 
L 138.589111 239.244846 
z
" style="fill:#5bc0de;"/>
   </g>
   <g id="patch_47">
    <path clip-path="url(#p51a654251c)" d="M 140.506067 244.8 
L 142.423023 244.8 
L 142.423023 240.313145 
L 140.506067 240.313145 
z
" style="fill:#5bc0de;"/>
   </g>
   <g id="patch_48">
    <path clip-path="url(#p51a654251c)" d="M 142.423023 244.8 
L 144.339979 244.8 
L 144.339979 241.595104 
L 142.423023 241.595104 
z
" style="fill:#5bc0de;"/>
   </g>
   <g id="patch_49">
    <path clip-path="url(#p51a654251c)" d="M 144.339979 244.8 
L 146.256935 244.8 
L 146.256935 240.526805 
L 144.339979 240.526805 
z
" style="fill:#5bc0de;"/>
   </g>
   <g id="patch_50">
    <path clip-path="url(#p51a654251c)" d="M 146.256935 244.8 
L 148.173891 244.8 
L 148.173891 242.877062 
L 146.256935 242.877062 
z
" style="fill:#5bc0de;"/>
   </g>
   <g id="patch_51">
    <path clip-path="url(#p51a654251c)" d="M 148.173891 244.8 
L 150.090847 244.8 
L 150.090847 243.090722 
L 148.173891 243.090722 
z
" style="fill:#5bc0de;"/>
   </g>
   <g id="patch_52">
    <path clip-path="url(#p51a654251c)" d="M 150.090847 244.8 
L 152.007803 244.8 
L 152.007803 242.877062 
L 150.090847 242.877062 
z
" style="fill:#5bc0de;"/>
   </g>
   <g id="patch_53">
    <path clip-path="url(#p51a654251c)" d="M 152.007803 244.8 
L 153.924759 244.8 
L 153.924759 242.663402 
L 152.007803 242.663402 
z
" style="fill:#5bc0de;"/>
   </g>
   <g id="patch_54">
    <path clip-path="url(#p51a654251c)" d="M 153.924759 244.8 
L 155.841715 244.8 
L 155.841715 242.663402 
L 153.924759 242.663402 
z
" style="fill:#5bc0de;"/>
   </g>
   <g id="patch_55">
    <path clip-path="url(#p51a654251c)" d="M 155.841715 244.8 
L 157.758671 244.8 
L 157.758671 241.167784 
L 155.841715 241.167784 
z
" style="fill:#5bc0de;"/>
   </g>
   <g id="patch_56">
    <path clip-path="url(#p51a654251c)" d="M 157.758671 244.8 
L 159.675627 244.8 
L 159.675627 243.731701 
L 157.758671 243.731701 
z
" style="fill:#5bc0de;"/>
   </g>
   <g id="patch_57">
    <path clip-path="url(#p51a654251c)" d="M 159.675627 244.8 
L 161.592583 244.8 
L 161.592583 243.518041 
L 159.675627 243.518041 
z
" style="fill:#5bc0de;"/>
   </g>
   <g id="patch_58">
    <path clip-path="url(#p51a654251c)" d="M 161.592583 244.8 
L 163.509539 244.8 
L 163.509539 243.731701 
L 161.592583 243.731701 
z
" style="fill:#5bc0de;"/>
   </g>
   <g id="patch_59">
    <path clip-path="url(#p51a654251c)" d="M 163.509539 244.8 
L 165.426496 244.8 
L 165.426496 242.449743 
L 163.509539 242.449743 
z
" style="fill:#5bc0de;"/>
   </g>
   <g id="patch_60">
    <path clip-path="url(#p51a654251c)" d="M 165.426496 244.8 
L 167.343452 244.8 
L 167.343452 243.731701 
L 165.426496 243.731701 
z
" style="fill:#5bc0de;"/>
   </g>
   <g id="patch_61">
    <path clip-path="url(#p51a654251c)" d="M 167.343452 244.8 
L 169.260408 244.8 
L 169.260408 244.159021 
L 167.343452 244.159021 
z
" style="fill:#5bc0de;"/>
   </g>
   <g id="patch_62">
    <path clip-path="url(#p51a654251c)" d="M 169.260408 244.8 
L 171.177364 244.8 
L 171.177364 244.37268 
L 169.260408 244.37268 
z
" style="fill:#5bc0de;"/>
   </g>
   <g id="patch_63">
    <path clip-path="url(#p51a654251c)" d="M 171.177364 244.8 
L 173.09432 244.8 
L 173.09432 244.37268 
L 171.177364 244.37268 
z
" style="fill:#5bc0de;"/>
   </g>
   <g id="patch_64">
    <path clip-path="url(#p51a654251c)" d="M 173.09432 244.8 
L 175.011276 244.8 
L 175.011276 243.518041 
L 173.09432 243.518041 
z
" style="fill:#5bc0de;"/>
   </g>
   <g id="patch_65">
    <path clip-path="url(#p51a654251c)" d="M 175.011276 244.8 
L 176.928232 244.8 
L 176.928232 243.731701 
L 175.011276 243.731701 
z
" style="fill:#5bc0de;"/>
   </g>
   <g id="patch_66">
    <path clip-path="url(#p51a654251c)" d="M 176.928232 244.8 
L 178.845188 244.8 
L 178.845188 243.304382 
L 176.928232 243.304382 
z
" style="fill:#5bc0de;"/>
   </g>
   <g id="patch_67">
    <path clip-path="url(#p51a654251c)" d="M 178.845188 244.8 
L 180.762144 244.8 
L 180.762144 243.518041 
L 178.845188 243.518041 
z
" style="fill:#5bc0de;"/>
   </g>
   <g id="patch_68">
    <path clip-path="url(#p51a654251c)" d="M 180.762144 244.8 
L 182.6791 244.8 
L 182.6791 244.37268 
L 180.762144 244.37268 
z
" style="fill:#5bc0de;"/>
   </g>
   <g id="patch_69">
    <path clip-path="url(#p51a654251c)" d="M 182.6791 244.8 
L 184.596056 244.8 
L 184.596056 244.37268 
L 182.6791 244.37268 
z
" style="fill:#5bc0de;"/>
   </g>
   <g id="patch_70">
    <path clip-path="url(#p51a654251c)" d="M 184.596056 244.8 
L 186.513012 244.8 
L 186.513012 244.8 
L 184.596056 244.8 
z
" style="fill:#5bc0de;"/>
   </g>
   <g id="patch_71">
    <path clip-path="url(#p51a654251c)" d="M 186.513012 244.8 
L 188.429968 244.8 
L 188.429968 244.159021 
L 186.513012 244.159021 
z
" style="fill:#5bc0de;"/>
   </g>
   <g id="patch_72">
    <path clip-path="url(#p51a654251c)" d="M 188.429968 244.8 
L 190.346924 244.8 
L 190.346924 244.58634 
L 188.429968 244.58634 
z
" style="fill:#5bc0de;"/>
   </g>
   <g id="patch_73">
    <path clip-path="url(#p51a654251c)" d="M 190.346924 244.8 
L 192.26388 244.8 
L 192.26388 244.37268 
L 190.346924 244.37268 
z
" style="fill:#5bc0de;"/>
   </g>
   <g id="patch_74">
    <path clip-path="url(#p51a654251c)" d="M 192.26388 244.8 
L 194.180836 244.8 
L 194.180836 244.8 
L 192.26388 244.8 
z
" style="fill:#5bc0de;"/>
   </g>
   <g id="patch_75">
    <path clip-path="url(#p51a654251c)" d="M 194.180836 244.8 
L 196.097793 244.8 
L 196.097793 244.58634 
L 194.180836 244.58634 
z
" style="fill:#5bc0de;"/>
   </g>
   <g id="patch_76">
    <path clip-path="url(#p51a654251c)" d="M 196.097793 244.8 
L 198.014749 244.8 
L 198.014749 244.58634 
L 196.097793 244.58634 
z
" style="fill:#5bc0de;"/>
   </g>
   <g id="patch_77">
    <path clip-path="url(#p51a654251c)" d="M 198.014749 244.8 
L 199.931705 244.8 
L 199.931705 243.731701 
L 198.014749 243.731701 
z
" style="fill:#5bc0de;"/>
   </g>
   <g id="patch_78">
    <path clip-path="url(#p51a654251c)" d="M 199.931705 244.8 
L 201.848661 244.8 
L 201.848661 244.8 
L 199.931705 244.8 
z
" style="fill:#5bc0de;"/>
   </g>
   <g id="patch_79">
    <path clip-path="url(#p51a654251c)" d="M 201.848661 244.8 
L 203.765617 244.8 
L 203.765617 244.58634 
L 201.848661 244.58634 
z
" style="fill:#5bc0de;"/>
   </g>
   <g id="patch_80">
    <path clip-path="url(#p51a654251c)" d="M 203.765617 244.8 
L 205.682573 244.8 
L 205.682573 244.58634 
L 203.765617 244.58634 
z
" style="fill:#5bc0de;"/>
   </g>
   <g id="patch_81">
    <path clip-path="url(#p51a654251c)" d="M 205.682573 244.8 
L 207.599529 244.8 
L 207.599529 244.37268 
L 205.682573 244.37268 
z
" style="fill:#5bc0de;"/>
   </g>
   <g id="patch_82">
    <path clip-path="url(#p51a654251c)" d="M 207.599529 244.8 
L 209.516485 244.8 
L 209.516485 244.58634 
L 207.599529 244.58634 
z
" style="fill:#5bc0de;"/>
   </g>
   <g id="patch_83">
    <path clip-path="url(#p51a654251c)" d="M 209.516485 244.8 
L 211.433441 244.8 
L 211.433441 244.8 
L 209.516485 244.8 
z
" style="fill:#5bc0de;"/>
   </g>
   <g id="patch_84">
    <path clip-path="url(#p51a654251c)" d="M 211.433441 244.8 
L 213.350397 244.8 
L 213.350397 244.159021 
L 211.433441 244.159021 
z
" style="fill:#5bc0de;"/>
   </g>
   <g id="patch_85">
    <path clip-path="url(#p51a654251c)" d="M 213.350397 244.8 
L 215.267353 244.8 
L 215.267353 244.37268 
L 213.350397 244.37268 
z
" style="fill:#5bc0de;"/>
   </g>
   <g id="patch_86">
    <path clip-path="url(#p51a654251c)" d="M 215.267353 244.8 
L 217.184309 244.8 
L 217.184309 244.159021 
L 215.267353 244.159021 
z
" style="fill:#5bc0de;"/>
   </g>
   <g id="patch_87">
    <path clip-path="url(#p51a654251c)" d="M 217.184309 244.8 
L 219.101265 244.8 
L 219.101265 244.8 
L 217.184309 244.8 
z
" style="fill:#5bc0de;"/>
   </g>
   <g id="patch_88">
    <path clip-path="url(#p51a654251c)" d="M 219.101265 244.8 
L 221.018221 244.8 
L 221.018221 244.8 
L 219.101265 244.8 
z
" style="fill:#5bc0de;"/>
   </g>
   <g id="patch_89">
    <path clip-path="url(#p51a654251c)" d="M 221.018221 244.8 
L 222.935177 244.8 
L 222.935177 244.37268 
L 221.018221 244.37268 
z
" style="fill:#5bc0de;"/>
   </g>
   <g id="patch_90">
    <path clip-path="url(#p51a654251c)" d="M 222.935177 244.8 
L 224.852133 244.8 
L 224.852133 244.8 
L 222.935177 244.8 
z
" style="fill:#5bc0de;"/>
   </g>
   <g id="patch_91">
    <path clip-path="url(#p51a654251c)" d="M 224.852133 244.8 
L 226.76909 244.8 
L 226.76909 244.8 
L 224.852133 244.8 
z
" style="fill:#5bc0de;"/>
   </g>
   <g id="patch_92">
    <path clip-path="url(#p51a654251c)" d="M 226.76909 244.8 
L 228.686046 244.8 
L 228.686046 244.58634 
L 226.76909 244.58634 
z
" style="fill:#5bc0de;"/>
   </g>
   <g id="patch_93">
    <path clip-path="url(#p51a654251c)" d="M 228.686046 244.8 
L 230.603002 244.8 
L 230.603002 244.8 
L 228.686046 244.8 
z
" style="fill:#5bc0de;"/>
   </g>
   <g id="patch_94">
    <path clip-path="url(#p51a654251c)" d="M 230.603002 244.8 
L 232.519958 244.8 
L 232.519958 244.58634 
L 230.603002 244.58634 
z
" style="fill:#5bc0de;"/>
   </g>
   <g id="patch_95">
    <path clip-path="url(#p51a654251c)" d="M 232.519958 244.8 
L 234.436914 244.8 
L 234.436914 244.159021 
L 232.519958 244.159021 
z
" style="fill:#5bc0de;"/>
   </g>
   <g id="patch_96">
    <path clip-path="url(#p51a654251c)" d="M 234.436914 244.8 
L 236.35387 244.8 
L 236.35387 244.159021 
L 234.436914 244.159021 
z
" style="fill:#5bc0de;"/>
   </g>
   <g id="patch_97">
    <path clip-path="url(#p51a654251c)" d="M 236.35387 244.8 
L 238.270826 244.8 
L 238.270826 244.8 
L 236.35387 244.8 
z
" style="fill:#5bc0de;"/>
   </g>
   <g id="patch_98">
    <path clip-path="url(#p51a654251c)" d="M 238.270826 244.8 
L 240.187782 244.8 
L 240.187782 244.8 
L 238.270826 244.8 
z
" style="fill:#5bc0de;"/>
   </g>
   <g id="patch_99">
    <path clip-path="url(#p51a654251c)" d="M 240.187782 244.8 
L 242.104738 244.8 
L 242.104738 244.37268 
L 240.187782 244.37268 
z
" style="fill:#5bc0de;"/>
   </g>
   <g id="patch_100">
    <path clip-path="url(#p51a654251c)" d="M 242.104738 244.8 
L 244.021694 244.8 
L 244.021694 244.58634 
L 242.104738 244.58634 
z
" style="fill:#5bc0de;"/>
   </g>
   <g id="patch_101">
    <path clip-path="url(#p51a654251c)" d="M 244.021694 244.8 
L 245.93865 244.8 
L 245.93865 244.8 
L 244.021694 244.8 
z
" style="fill:#5bc0de;"/>
   </g>
   <g id="patch_102">
    <path clip-path="url(#p51a654251c)" d="M 245.93865 244.8 
L 247.855606 244.8 
L 247.855606 244.8 
L 245.93865 244.8 
z
" style="fill:#5bc0de;"/>
   </g>
   <g id="patch_103">
    <path clip-path="url(#p51a654251c)" d="M 247.855606 244.8 
L 249.772562 244.8 
L 249.772562 244.8 
L 247.855606 244.8 
z
" style="fill:#5bc0de;"/>
   </g>
   <g id="patch_104">
    <path clip-path="url(#p51a654251c)" d="M 249.772562 244.8 
L 251.689518 244.8 
L 251.689518 244.58634 
L 249.772562 244.58634 
z
" style="fill:#5bc0de;"/>
   </g>
   <g id="patch_105">
    <path clip-path="url(#p51a654251c)" d="M 251.689518 244.8 
L 253.606474 244.8 
L 253.606474 244.8 
L 251.689518 244.8 
z
" style="fill:#5bc0de;"/>
   </g>
   <g id="patch_106">
    <path clip-path="url(#p51a654251c)" d="M 253.606474 244.8 
L 255.52343 244.8 
L 255.52343 244.8 
L 253.606474 244.8 
z
" style="fill:#5bc0de;"/>
   </g>
   <g id="patch_107">
    <path clip-path="url(#p51a654251c)" d="M 255.52343 244.8 
L 257.440386 244.8 
L 257.440386 244.58634 
L 255.52343 244.58634 
z
" style="fill:#5bc0de;"/>
   </g>
   <g id="patch_108">
    <path clip-path="url(#p51a654251c)" d="M 257.440386 244.8 
L 259.357343 244.8 
L 259.357343 244.8 
L 257.440386 244.8 
z
" style="fill:#5bc0de;"/>
   </g>
   <g id="patch_109">
    <path clip-path="url(#p51a654251c)" d="M 259.357343 244.8 
L 261.274299 244.8 
L 261.274299 244.8 
L 259.357343 244.8 
z
" style="fill:#5bc0de;"/>
   </g>
   <g id="patch_110">
    <path clip-path="url(#p51a654251c)" d="M 261.274299 244.8 
L 263.191255 244.8 
L 263.191255 244.8 
L 261.274299 244.8 
z
" style="fill:#5bc0de;"/>
   </g>
   <g id="patch_111">
    <path clip-path="url(#p51a654251c)" d="M 263.191255 244.8 
L 265.108211 244.8 
L 265.108211 244.8 
L 263.191255 244.8 
z
" style="fill:#5bc0de;"/>
   </g>
   <g id="patch_112">
    <path clip-path="url(#p51a654251c)" d="M 265.108211 244.8 
L 267.025167 244.8 
L 267.025167 244.8 
L 265.108211 244.8 
z
" style="fill:#5bc0de;"/>
   </g>
   <g id="patch_113">
    <path clip-path="url(#p51a654251c)" d="M 267.025167 244.8 
L 268.942123 244.8 
L 268.942123 244.8 
L 267.025167 244.8 
z
" style="fill:#5bc0de;"/>
   </g>
   <g id="patch_114">
    <path clip-path="url(#p51a654251c)" d="M 268.942123 244.8 
L 270.859079 244.8 
L 270.859079 244.8 
L 268.942123 244.8 
z
" style="fill:#5bc0de;"/>
   </g>
   <g id="patch_115">
    <path clip-path="url(#p51a654251c)" d="M 270.859079 244.8 
L 272.776035 244.8 
L 272.776035 244.8 
L 270.859079 244.8 
z
" style="fill:#5bc0de;"/>
   </g>
   <g id="patch_116">
    <path clip-path="url(#p51a654251c)" d="M 272.776035 244.8 
L 274.692991 244.8 
L 274.692991 244.8 
L 272.776035 244.8 
z
" style="fill:#5bc0de;"/>
   </g>
   <g id="patch_117">
    <path clip-path="url(#p51a654251c)" d="M 274.692991 244.8 
L 276.609947 244.8 
L 276.609947 244.8 
L 274.692991 244.8 
z
" style="fill:#5bc0de;"/>
   </g>
   <g id="patch_118">
    <path clip-path="url(#p51a654251c)" d="M 276.609947 244.8 
L 278.526903 244.8 
L 278.526903 244.8 
L 276.609947 244.8 
z
" style="fill:#5bc0de;"/>
   </g>
   <g id="patch_119">
    <path clip-path="url(#p51a654251c)" d="M 278.526903 244.8 
L 280.443859 244.8 
L 280.443859 244.8 
L 278.526903 244.8 
z
" style="fill:#5bc0de;"/>
   </g>
   <g id="patch_120">
    <path clip-path="url(#p51a654251c)" d="M 280.443859 244.8 
L 282.360815 244.8 
L 282.360815 244.8 
L 280.443859 244.8 
z
" style="fill:#5bc0de;"/>
   </g>
   <g id="patch_121">
    <path clip-path="url(#p51a654251c)" d="M 282.360815 244.8 
L 284.277771 244.8 
L 284.277771 244.8 
L 282.360815 244.8 
z
" style="fill:#5bc0de;"/>
   </g>
   <g id="patch_122">
    <path clip-path="url(#p51a654251c)" d="M 284.277771 244.8 
L 286.194727 244.8 
L 286.194727 244.8 
L 284.277771 244.8 
z
" style="fill:#5bc0de;"/>
   </g>
   <g id="patch_123">
    <path clip-path="url(#p51a654251c)" d="M 286.194727 244.8 
L 288.111683 244.8 
L 288.111683 244.8 
L 286.194727 244.8 
z
" style="fill:#5bc0de;"/>
   </g>
   <g id="patch_124">
    <path clip-path="url(#p51a654251c)" d="M 288.111683 244.8 
L 290.02864 244.8 
L 290.02864 244.8 
L 288.111683 244.8 
z
" style="fill:#5bc0de;"/>
   </g>
   <g id="patch_125">
    <path clip-path="url(#p51a654251c)" d="M 290.02864 244.8 
L 291.945596 244.8 
L 291.945596 244.8 
L 290.02864 244.8 
z
" style="fill:#5bc0de;"/>
   </g>
   <g id="patch_126">
    <path clip-path="url(#p51a654251c)" d="M 291.945596 244.8 
L 293.862552 244.8 
L 293.862552 244.8 
L 291.945596 244.8 
z
" style="fill:#5bc0de;"/>
   </g>
   <g id="patch_127">
    <path clip-path="url(#p51a654251c)" d="M 293.862552 244.8 
L 295.779508 244.8 
L 295.779508 244.8 
L 293.862552 244.8 
z
" style="fill:#5bc0de;"/>
   </g>
   <g id="patch_128">
    <path clip-path="url(#p51a654251c)" d="M 295.779508 244.8 
L 297.696464 244.8 
L 297.696464 244.58634 
L 295.779508 244.58634 
z
" style="fill:#5bc0de;"/>
   </g>
   <g id="patch_129">
    <path clip-path="url(#p51a654251c)" d="M 297.696464 244.8 
L 299.61342 244.8 
L 299.61342 244.8 
L 297.696464 244.8 
z
" style="fill:#5bc0de;"/>
   </g>
   <g id="patch_130">
    <path clip-path="url(#p51a654251c)" d="M 299.61342 244.8 
L 301.530376 244.8 
L 301.530376 244.8 
L 299.61342 244.8 
z
" style="fill:#5bc0de;"/>
   </g>
   <g id="patch_131">
    <path clip-path="url(#p51a654251c)" d="M 301.530376 244.8 
L 303.447332 244.8 
L 303.447332 244.8 
L 301.530376 244.8 
z
" style="fill:#5bc0de;"/>
   </g>
   <g id="patch_132">
    <path clip-path="url(#p51a654251c)" d="M 303.447332 244.8 
L 305.364288 244.8 
L 305.364288 244.8 
L 303.447332 244.8 
z
" style="fill:#5bc0de;"/>
   </g>
   <g id="patch_133">
    <path clip-path="url(#p51a654251c)" d="M 305.364288 244.8 
L 307.281244 244.8 
L 307.281244 244.8 
L 305.364288 244.8 
z
" style="fill:#5bc0de;"/>
   </g>
   <g id="patch_134">
    <path clip-path="url(#p51a654251c)" d="M 307.281244 244.8 
L 309.1982 244.8 
L 309.1982 244.8 
L 307.281244 244.8 
z
" style="fill:#5bc0de;"/>
   </g>
   <g id="patch_135">
    <path clip-path="url(#p51a654251c)" d="M 309.1982 244.8 
L 311.115156 244.8 
L 311.115156 244.8 
L 309.1982 244.8 
z
" style="fill:#5bc0de;"/>
   </g>
   <g id="patch_136">
    <path clip-path="url(#p51a654251c)" d="M 311.115156 244.8 
L 313.032112 244.8 
L 313.032112 244.8 
L 311.115156 244.8 
z
" style="fill:#5bc0de;"/>
   </g>
   <g id="patch_137">
    <path clip-path="url(#p51a654251c)" d="M 313.032112 244.8 
L 314.949068 244.8 
L 314.949068 244.8 
L 313.032112 244.8 
z
" style="fill:#5bc0de;"/>
   </g>
   <g id="patch_138">
    <path clip-path="url(#p51a654251c)" d="M 314.949068 244.8 
L 316.866024 244.8 
L 316.866024 244.8 
L 314.949068 244.8 
z
" style="fill:#5bc0de;"/>
   </g>
   <g id="patch_139">
    <path clip-path="url(#p51a654251c)" d="M 316.866024 244.8 
L 318.78298 244.8 
L 318.78298 244.8 
L 316.866024 244.8 
z
" style="fill:#5bc0de;"/>
   </g>
   <g id="patch_140">
    <path clip-path="url(#p51a654251c)" d="M 318.78298 244.8 
L 320.699937 244.8 
L 320.699937 244.8 
L 318.78298 244.8 
z
" style="fill:#5bc0de;"/>
   </g>
   <g id="patch_141">
    <path clip-path="url(#p51a654251c)" d="M 320.699937 244.8 
L 322.616893 244.8 
L 322.616893 244.8 
L 320.699937 244.8 
z
" style="fill:#5bc0de;"/>
   </g>
   <g id="patch_142">
    <path clip-path="url(#p51a654251c)" d="M 322.616893 244.8 
L 324.533849 244.8 
L 324.533849 244.8 
L 322.616893 244.8 
z
" style="fill:#5bc0de;"/>
   </g>
   <g id="patch_143">
    <path clip-path="url(#p51a654251c)" d="M 324.533849 244.8 
L 326.450805 244.8 
L 326.450805 244.8 
L 324.533849 244.8 
z
" style="fill:#5bc0de;"/>
   </g>
   <g id="patch_144">
    <path clip-path="url(#p51a654251c)" d="M 326.450805 244.8 
L 328.367761 244.8 
L 328.367761 244.8 
L 326.450805 244.8 
z
" style="fill:#5bc0de;"/>
   </g>
   <g id="patch_145">
    <path clip-path="url(#p51a654251c)" d="M 328.367761 244.8 
L 330.284717 244.8 
L 330.284717 244.8 
L 328.367761 244.8 
z
" style="fill:#5bc0de;"/>
   </g>
   <g id="patch_146">
    <path clip-path="url(#p51a654251c)" d="M 330.284717 244.8 
L 332.201673 244.8 
L 332.201673 244.8 
L 330.284717 244.8 
z
" style="fill:#5bc0de;"/>
   </g>
   <g id="patch_147">
    <path clip-path="url(#p51a654251c)" d="M 332.201673 244.8 
L 334.118629 244.8 
L 334.118629 244.8 
L 332.201673 244.8 
z
" style="fill:#5bc0de;"/>
   </g>
   <g id="patch_148">
    <path clip-path="url(#p51a654251c)" d="M 334.118629 244.8 
L 336.035585 244.8 
L 336.035585 244.8 
L 334.118629 244.8 
z
" style="fill:#5bc0de;"/>
   </g>
   <g id="patch_149">
    <path clip-path="url(#p51a654251c)" d="M 336.035585 244.8 
L 337.952541 244.8 
L 337.952541 244.8 
L 336.035585 244.8 
z
" style="fill:#5bc0de;"/>
   </g>
   <g id="patch_150">
    <path clip-path="url(#p51a654251c)" d="M 337.952541 244.8 
L 339.869497 244.8 
L 339.869497 244.8 
L 337.952541 244.8 
z
" style="fill:#5bc0de;"/>
   </g>
   <g id="patch_151">
    <path clip-path="url(#p51a654251c)" d="M 339.869497 244.8 
L 341.786453 244.8 
L 341.786453 244.8 
L 339.869497 244.8 
z
" style="fill:#5bc0de;"/>
   </g>
   <g id="patch_152">
    <path clip-path="url(#p51a654251c)" d="M 341.786453 244.8 
L 343.703409 244.8 
L 343.703409 244.58634 
L 341.786453 244.58634 
z
" style="fill:#5bc0de;"/>
   </g>
   <g id="patch_153">
    <path clip-path="url(#p51a654251c)" d="M 343.703409 244.8 
L 345.620365 244.8 
L 345.620365 244.8 
L 343.703409 244.8 
z
" style="fill:#5bc0de;"/>
   </g>
   <g id="patch_154">
    <path clip-path="url(#p51a654251c)" d="M 345.620365 244.8 
L 347.537321 244.8 
L 347.537321 244.8 
L 345.620365 244.8 
z
" style="fill:#5bc0de;"/>
   </g>
   <g id="patch_155">
    <path clip-path="url(#p51a654251c)" d="M 347.537321 244.8 
L 349.454277 244.8 
L 349.454277 244.8 
L 347.537321 244.8 
z
" style="fill:#5bc0de;"/>
   </g>
   <g id="patch_156">
    <path clip-path="url(#p51a654251c)" d="M 349.454277 244.8 
L 351.371234 244.8 
L 351.371234 244.8 
L 349.454277 244.8 
z
" style="fill:#5bc0de;"/>
   </g>
   <g id="patch_157">
    <path clip-path="url(#p51a654251c)" d="M 351.371234 244.8 
L 353.28819 244.8 
L 353.28819 244.8 
L 351.371234 244.8 
z
" style="fill:#5bc0de;"/>
   </g>
   <g id="patch_158">
    <path clip-path="url(#p51a654251c)" d="M 353.28819 244.8 
L 355.205146 244.8 
L 355.205146 244.8 
L 353.28819 244.8 
z
" style="fill:#5bc0de;"/>
   </g>
   <g id="patch_159">
    <path clip-path="url(#p51a654251c)" d="M 355.205146 244.8 
L 357.122102 244.8 
L 357.122102 244.8 
L 355.205146 244.8 
z
" style="fill:#5bc0de;"/>
   </g>
   <g id="patch_160">
    <path clip-path="url(#p51a654251c)" d="M 357.122102 244.8 
L 359.039058 244.8 
L 359.039058 244.8 
L 357.122102 244.8 
z
" style="fill:#5bc0de;"/>
   </g>
   <g id="patch_161">
    <path clip-path="url(#p51a654251c)" d="M 359.039058 244.8 
L 360.956014 244.8 
L 360.956014 244.8 
L 359.039058 244.8 
z
" style="fill:#5bc0de;"/>
   </g>
   <g id="patch_162">
    <path clip-path="url(#p51a654251c)" d="M 360.956014 244.8 
L 362.87297 244.8 
L 362.87297 244.8 
L 360.956014 244.8 
z
" style="fill:#5bc0de;"/>
   </g>
   <g id="patch_163">
    <path clip-path="url(#p51a654251c)" d="M 362.87297 244.8 
L 364.789926 244.8 
L 364.789926 244.8 
L 362.87297 244.8 
z
" style="fill:#5bc0de;"/>
   </g>
   <g id="patch_164">
    <path clip-path="url(#p51a654251c)" d="M 364.789926 244.8 
L 366.706882 244.8 
L 366.706882 244.8 
L 364.789926 244.8 
z
" style="fill:#5bc0de;"/>
   </g>
   <g id="patch_165">
    <path clip-path="url(#p51a654251c)" d="M 366.706882 244.8 
L 368.623838 244.8 
L 368.623838 244.58634 
L 366.706882 244.58634 
z
" style="fill:#5bc0de;"/>
   </g>
   <g id="matplotlib.axis_1">
    <g id="xtick_1">
     <g id="line2d_1">
      <defs>
       <path d="M 0 0 
L 0 4 
" id="mc91e1e09d9" style="stroke:#d2d2d2;"/>
      </defs>
      <g>
       <use style="fill:#d2d2d2;stroke:#d2d2d2;" x="56.16" xlink:href="#mc91e1e09d9" y="244.8"/>
      </g>
     </g>
     <g id="text_1">
      <!-- 0 -->
      <defs>
       <path d="M 31.78125 66.40625 
Q 24.171875 66.40625 20.328125 58.90625 
Q 16.5 51.421875 16.5 36.375 
Q 16.5 21.390625 20.328125 13.890625 
Q 24.171875 6.390625 31.78125 6.390625 
Q 39.453125 6.390625 43.28125 13.890625 
Q 47.125 21.390625 47.125 36.375 
Q 47.125 51.421875 43.28125 58.90625 
Q 39.453125 66.40625 31.78125 66.40625 
M 31.78125 74.21875 
Q 44.046875 74.21875 50.515625 64.515625 
Q 56.984375 54.828125 56.984375 36.375 
Q 56.984375 17.96875 50.515625 8.265625 
Q 44.046875 -1.421875 31.78125 -1.421875 
Q 19.53125 -1.421875 13.0625 8.265625 
Q 6.59375 17.96875 6.59375 36.375 
Q 6.59375 54.828125 13.0625 64.515625 
Q 19.53125 74.21875 31.78125 74.21875 
" id="DejaVuSans-30"/>
      </defs>
      <g style="fill:#d2d2d2;" transform="translate(52.024375 262.677969)scale(0.13 -0.13)">
       <use xlink:href="#DejaVuSans-30"/>
      </g>
     </g>
    </g>
    <g id="xtick_2">
     <g id="line2d_2">
      <g>
       <use style="fill:#d2d2d2;stroke:#d2d2d2;" x="91.395754" xlink:href="#mc91e1e09d9" y="244.8"/>
      </g>
     </g>
     <g id="text_2">
      <!-- 2 -->
      <defs>
       <path d="M 19.1875 8.296875 
L 53.609375 8.296875 
L 53.609375 0 
L 7.328125 0 
L 7.328125 8.296875 
Q 12.9375 14.109375 22.625 23.890625 
Q 32.328125 33.6875 34.8125 36.53125 
Q 39.546875 41.84375 41.421875 45.53125 
Q 43.3125 49.21875 43.3125 52.78125 
Q 43.3125 58.59375 39.234375 62.25 
Q 35.15625 65.921875 28.609375 65.921875 
Q 23.96875 65.921875 18.8125 64.3125 
Q 13.671875 62.703125 7.8125 59.421875 
L 7.8125 69.390625 
Q 13.765625 71.78125 18.9375 73 
Q 24.125 74.21875 28.421875 74.21875 
Q 39.75 74.21875 46.484375 68.546875 
Q 53.21875 62.890625 53.21875 53.421875 
Q 53.21875 48.921875 51.53125 44.890625 
Q 49.859375 40.875 45.40625 35.40625 
Q 44.1875 33.984375 37.640625 27.21875 
Q 31.109375 20.453125 19.1875 8.296875 
" id="DejaVuSans-32"/>
      </defs>
      <g style="fill:#d2d2d2;" transform="translate(87.260129 262.677969)scale(0.13 -0.13)">
       <use xlink:href="#DejaVuSans-32"/>
      </g>
     </g>
    </g>
    <g id="xtick_3">
     <g id="line2d_3">
      <g>
       <use style="fill:#d2d2d2;stroke:#d2d2d2;" x="126.631508" xlink:href="#mc91e1e09d9" y="244.8"/>
      </g>
     </g>
     <g id="text_3">
      <!-- 4 -->
      <defs>
       <path d="M 37.796875 64.3125 
L 12.890625 25.390625 
L 37.796875 25.390625 
z
M 35.203125 72.90625 
L 47.609375 72.90625 
L 47.609375 25.390625 
L 58.015625 25.390625 
L 58.015625 17.1875 
L 47.609375 17.1875 
L 47.609375 0 
L 37.796875 0 
L 37.796875 17.1875 
L 4.890625 17.1875 
L 4.890625 26.703125 
z
" id="DejaVuSans-34"/>
      </defs>
      <g style="fill:#d2d2d2;" transform="translate(122.495883 262.677969)scale(0.13 -0.13)">
       <use xlink:href="#DejaVuSans-34"/>
      </g>
     </g>
    </g>
    <g id="xtick_4">
     <g id="line2d_4">
      <g>
       <use style="fill:#d2d2d2;stroke:#d2d2d2;" x="161.867263" xlink:href="#mc91e1e09d9" y="244.8"/>
      </g>
     </g>
     <g id="text_4">
      <!-- 6 -->
      <defs>
       <path d="M 33.015625 40.375 
Q 26.375 40.375 22.484375 35.828125 
Q 18.609375 31.296875 18.609375 23.390625 
Q 18.609375 15.53125 22.484375 10.953125 
Q 26.375 6.390625 33.015625 6.390625 
Q 39.65625 6.390625 43.53125 10.953125 
Q 47.40625 15.53125 47.40625 23.390625 
Q 47.40625 31.296875 43.53125 35.828125 
Q 39.65625 40.375 33.015625 40.375 
M 52.59375 71.296875 
L 52.59375 62.3125 
Q 48.875 64.0625 45.09375 64.984375 
Q 41.3125 65.921875 37.59375 65.921875 
Q 27.828125 65.921875 22.671875 59.328125 
Q 17.53125 52.734375 16.796875 39.40625 
Q 19.671875 43.65625 24.015625 45.921875 
Q 28.375 48.1875 33.59375 48.1875 
Q 44.578125 48.1875 50.953125 41.515625 
Q 57.328125 34.859375 57.328125 23.390625 
Q 57.328125 12.15625 50.6875 5.359375 
Q 44.046875 -1.421875 33.015625 -1.421875 
Q 20.359375 -1.421875 13.671875 8.265625 
Q 6.984375 17.96875 6.984375 36.375 
Q 6.984375 53.65625 15.1875 63.9375 
Q 23.390625 74.21875 37.203125 74.21875 
Q 40.921875 74.21875 44.703125 73.484375 
Q 48.484375 72.75 52.59375 71.296875 
" id="DejaVuSans-36"/>
      </defs>
      <g style="fill:#d2d2d2;" transform="translate(157.731638 262.677969)scale(0.13 -0.13)">
       <use xlink:href="#DejaVuSans-36"/>
      </g>
     </g>
    </g>
    <g id="xtick_5">
     <g id="line2d_5">
      <g>
       <use style="fill:#d2d2d2;stroke:#d2d2d2;" x="197.103017" xlink:href="#mc91e1e09d9" y="244.8"/>
      </g>
     </g>
     <g id="text_5">
      <!-- 8 -->
      <defs>
       <path d="M 31.78125 34.625 
Q 24.75 34.625 20.71875 30.859375 
Q 16.703125 27.09375 16.703125 20.515625 
Q 16.703125 13.921875 20.71875 10.15625 
Q 24.75 6.390625 31.78125 6.390625 
Q 38.8125 6.390625 42.859375 10.171875 
Q 46.921875 13.96875 46.921875 20.515625 
Q 46.921875 27.09375 42.890625 30.859375 
Q 38.875 34.625 31.78125 34.625 
M 21.921875 38.8125 
Q 15.578125 40.375 12.03125 44.71875 
Q 8.5 49.078125 8.5 55.328125 
Q 8.5 64.0625 14.71875 69.140625 
Q 20.953125 74.21875 31.78125 74.21875 
Q 42.671875 74.21875 48.875 69.140625 
Q 55.078125 64.0625 55.078125 55.328125 
Q 55.078125 49.078125 51.53125 44.71875 
Q 48 40.375 41.703125 38.8125 
Q 48.828125 37.15625 52.796875 32.3125 
Q 56.78125 27.484375 56.78125 20.515625 
Q 56.78125 9.90625 50.3125 4.234375 
Q 43.84375 -1.421875 31.78125 -1.421875 
Q 19.734375 -1.421875 13.25 4.234375 
Q 6.78125 9.90625 6.78125 20.515625 
Q 6.78125 27.484375 10.78125 32.3125 
Q 14.796875 37.15625 21.921875 38.8125 
M 18.3125 54.390625 
Q 18.3125 48.734375 21.84375 45.5625 
Q 25.390625 42.390625 31.78125 42.390625 
Q 38.140625 42.390625 41.71875 45.5625 
Q 45.3125 48.734375 45.3125 54.390625 
Q 45.3125 60.0625 41.71875 63.234375 
Q 38.140625 66.40625 31.78125 66.40625 
Q 25.390625 66.40625 21.84375 63.234375 
Q 18.3125 60.0625 18.3125 54.390625 
" id="DejaVuSans-38"/>
      </defs>
      <g style="fill:#d2d2d2;" transform="translate(192.967392 262.677969)scale(0.13 -0.13)">
       <use xlink:href="#DejaVuSans-38"/>
      </g>
     </g>
    </g>
    <g id="xtick_6">
     <g id="line2d_6">
      <g>
       <use style="fill:#d2d2d2;stroke:#d2d2d2;" x="232.338771" xlink:href="#mc91e1e09d9" y="244.8"/>
      </g>
     </g>
     <g id="text_6">
      <!-- 10 -->
      <defs>
       <path d="M 12.40625 8.296875 
L 28.515625 8.296875 
L 28.515625 63.921875 
L 10.984375 60.40625 
L 10.984375 69.390625 
L 28.421875 72.90625 
L 38.28125 72.90625 
L 38.28125 8.296875 
L 54.390625 8.296875 
L 54.390625 0 
L 12.40625 0 
z
" id="DejaVuSans-31"/>
      </defs>
      <g style="fill:#d2d2d2;" transform="translate(224.067521 262.677969)scale(0.13 -0.13)">
       <use xlink:href="#DejaVuSans-31"/>
       <use x="63.623047" xlink:href="#DejaVuSans-30"/>
      </g>
     </g>
    </g>
    <g id="xtick_7">
     <g id="line2d_7">
      <g>
       <use style="fill:#d2d2d2;stroke:#d2d2d2;" x="267.574525" xlink:href="#mc91e1e09d9" y="244.8"/>
      </g>
     </g>
     <g id="text_7">
      <!-- 12 -->
      <g style="fill:#d2d2d2;" transform="translate(259.303275 262.677969)scale(0.13 -0.13)">
       <use xlink:href="#DejaVuSans-31"/>
       <use x="63.623047" xlink:href="#DejaVuSans-32"/>
      </g>
     </g>
    </g>
    <g id="xtick_8">
     <g id="line2d_8">
      <g>
       <use style="fill:#d2d2d2;stroke:#d2d2d2;" x="302.810279" xlink:href="#mc91e1e09d9" y="244.8"/>
      </g>
     </g>
     <g id="text_8">
      <!-- 14 -->
      <g style="fill:#d2d2d2;" transform="translate(294.539029 262.677969)scale(0.13 -0.13)">
       <use xlink:href="#DejaVuSans-31"/>
       <use x="63.623047" xlink:href="#DejaVuSans-34"/>
      </g>
     </g>
    </g>
    <g id="xtick_9">
     <g id="line2d_9">
      <g>
       <use style="fill:#d2d2d2;stroke:#d2d2d2;" x="338.046034" xlink:href="#mc91e1e09d9" y="244.8"/>
      </g>
     </g>
     <g id="text_9">
      <!-- 16 -->
      <g style="fill:#d2d2d2;" transform="translate(329.774784 262.677969)scale(0.13 -0.13)">
       <use xlink:href="#DejaVuSans-31"/>
       <use x="63.623047" xlink:href="#DejaVuSans-36"/>
      </g>
     </g>
    </g>
    <g id="text_10">
     <!-- $F$ (under $H_0$ assumption) -->
     <defs>
      <path d="M 16.890625 72.90625 
L 58.6875 72.90625 
L 57.078125 64.59375 
L 25.09375 64.59375 
L 20.90625 43.109375 
L 49.8125 43.109375 
L 48.1875 34.8125 
L 19.28125 34.8125 
L 12.5 0 
L 2.6875 0 
z
" id="DejaVuSans-Oblique-46"/>
      <path id="DejaVuSans-20"/>
      <path d="M 31 75.875 
Q 24.46875 64.65625 21.28125 53.65625 
Q 18.109375 42.671875 18.109375 31.390625 
Q 18.109375 20.125 21.3125 9.0625 
Q 24.515625 -2 31 -13.1875 
L 23.1875 -13.1875 
Q 15.875 -1.703125 12.234375 9.375 
Q 8.59375 20.453125 8.59375 31.390625 
Q 8.59375 42.28125 12.203125 53.3125 
Q 15.828125 64.359375 23.1875 75.875 
z
" id="DejaVuSans-28"/>
      <path d="M 8.5 21.578125 
L 8.5 54.6875 
L 17.484375 54.6875 
L 17.484375 21.921875 
Q 17.484375 14.15625 20.5 10.265625 
Q 23.53125 6.390625 29.59375 6.390625 
Q 36.859375 6.390625 41.078125 11.03125 
Q 45.3125 15.671875 45.3125 23.6875 
L 45.3125 54.6875 
L 54.296875 54.6875 
L 54.296875 0 
L 45.3125 0 
L 45.3125 8.40625 
Q 42.046875 3.421875 37.71875 1 
Q 33.40625 -1.421875 27.6875 -1.421875 
Q 18.265625 -1.421875 13.375 4.4375 
Q 8.5 10.296875 8.5 21.578125 
M 31.109375 56 
z
" id="DejaVuSans-75"/>
      <path d="M 54.890625 33.015625 
L 54.890625 0 
L 45.90625 0 
L 45.90625 32.71875 
Q 45.90625 40.484375 42.875 44.328125 
Q 39.84375 48.1875 33.796875 48.1875 
Q 26.515625 48.1875 22.3125 43.546875 
Q 18.109375 38.921875 18.109375 30.90625 
L 18.109375 0 
L 9.078125 0 
L 9.078125 54.6875 
L 18.109375 54.6875 
L 18.109375 46.1875 
Q 21.34375 51.125 25.703125 53.5625 
Q 30.078125 56 35.796875 56 
Q 45.21875 56 50.046875 50.171875 
Q 54.890625 44.34375 54.890625 33.015625 
" id="DejaVuSans-6e"/>
      <path d="M 45.40625 46.390625 
L 45.40625 75.984375 
L 54.390625 75.984375 
L 54.390625 0 
L 45.40625 0 
L 45.40625 8.203125 
Q 42.578125 3.328125 38.25 0.953125 
Q 33.9375 -1.421875 27.875 -1.421875 
Q 17.96875 -1.421875 11.734375 6.484375 
Q 5.515625 14.40625 5.515625 27.296875 
Q 5.515625 40.1875 11.734375 48.09375 
Q 17.96875 56 27.875 56 
Q 33.9375 56 38.25 53.625 
Q 42.578125 51.265625 45.40625 46.390625 
M 14.796875 27.296875 
Q 14.796875 17.390625 18.875 11.75 
Q 22.953125 6.109375 30.078125 6.109375 
Q 37.203125 6.109375 41.296875 11.75 
Q 45.40625 17.390625 45.40625 27.296875 
Q 45.40625 37.203125 41.296875 42.84375 
Q 37.203125 48.484375 30.078125 48.484375 
Q 22.953125 48.484375 18.875 42.84375 
Q 14.796875 37.203125 14.796875 27.296875 
" id="DejaVuSans-64"/>
      <path d="M 56.203125 29.59375 
L 56.203125 25.203125 
L 14.890625 25.203125 
Q 15.484375 15.921875 20.484375 11.0625 
Q 25.484375 6.203125 34.421875 6.203125 
Q 39.59375 6.203125 44.453125 7.46875 
Q 49.3125 8.734375 54.109375 11.28125 
L 54.109375 2.78125 
Q 49.265625 0.734375 44.1875 -0.34375 
Q 39.109375 -1.421875 33.890625 -1.421875 
Q 20.796875 -1.421875 13.15625 6.1875 
Q 5.515625 13.8125 5.515625 26.8125 
Q 5.515625 40.234375 12.765625 48.109375 
Q 20.015625 56 32.328125 56 
Q 43.359375 56 49.78125 48.890625 
Q 56.203125 41.796875 56.203125 29.59375 
M 47.21875 32.234375 
Q 47.125 39.59375 43.09375 43.984375 
Q 39.0625 48.390625 32.421875 48.390625 
Q 24.90625 48.390625 20.390625 44.140625 
Q 15.875 39.890625 15.1875 32.171875 
z
" id="DejaVuSans-65"/>
      <path d="M 41.109375 46.296875 
Q 39.59375 47.171875 37.8125 47.578125 
Q 36.03125 48 33.890625 48 
Q 26.265625 48 22.1875 43.046875 
Q 18.109375 38.09375 18.109375 28.8125 
L 18.109375 0 
L 9.078125 0 
L 9.078125 54.6875 
L 18.109375 54.6875 
L 18.109375 46.1875 
Q 20.953125 51.171875 25.484375 53.578125 
Q 30.03125 56 36.53125 56 
Q 37.453125 56 38.578125 55.875 
Q 39.703125 55.765625 41.0625 55.515625 
z
" id="DejaVuSans-72"/>
      <path d="M 16.890625 72.90625 
L 26.8125 72.90625 
L 21 43.015625 
L 56.78125 43.015625 
L 62.59375 72.90625 
L 72.515625 72.90625 
L 58.296875 0 
L 48.390625 0 
L 55.171875 34.71875 
L 19.390625 34.71875 
L 12.59375 0 
L 2.6875 0 
z
" id="DejaVuSans-Oblique-48"/>
      <path d="M 34.28125 27.484375 
Q 23.390625 27.484375 19.1875 25 
Q 14.984375 22.515625 14.984375 16.5 
Q 14.984375 11.71875 18.140625 8.90625 
Q 21.296875 6.109375 26.703125 6.109375 
Q 34.1875 6.109375 38.703125 11.40625 
Q 43.21875 16.703125 43.21875 25.484375 
L 43.21875 27.484375 
z
M 52.203125 31.203125 
L 52.203125 0 
L 43.21875 0 
L 43.21875 8.296875 
Q 40.140625 3.328125 35.546875 0.953125 
Q 30.953125 -1.421875 24.3125 -1.421875 
Q 15.921875 -1.421875 10.953125 3.296875 
Q 6 8.015625 6 15.921875 
Q 6 25.140625 12.171875 29.828125 
Q 18.359375 34.515625 30.609375 34.515625 
L 43.21875 34.515625 
L 43.21875 35.40625 
Q 43.21875 41.609375 39.140625 45 
Q 35.0625 48.390625 27.6875 48.390625 
Q 23 48.390625 18.546875 47.265625 
Q 14.109375 46.140625 10.015625 43.890625 
L 10.015625 52.203125 
Q 14.9375 54.109375 19.578125 55.046875 
Q 24.21875 56 28.609375 56 
Q 40.484375 56 46.34375 49.84375 
Q 52.203125 43.703125 52.203125 31.203125 
" id="DejaVuSans-61"/>
      <path d="M 44.28125 53.078125 
L 44.28125 44.578125 
Q 40.484375 46.53125 36.375 47.5 
Q 32.28125 48.484375 27.875 48.484375 
Q 21.1875 48.484375 17.84375 46.4375 
Q 14.5 44.390625 14.5 40.28125 
Q 14.5 37.15625 16.890625 35.375 
Q 19.28125 33.59375 26.515625 31.984375 
L 29.59375 31.296875 
Q 39.15625 29.25 43.1875 25.515625 
Q 47.21875 21.78125 47.21875 15.09375 
Q 47.21875 7.46875 41.1875 3.015625 
Q 35.15625 -1.421875 24.609375 -1.421875 
Q 20.21875 -1.421875 15.453125 -0.5625 
Q 10.6875 0.296875 5.421875 2 
L 5.421875 11.28125 
Q 10.40625 8.6875 15.234375 7.390625 
Q 20.0625 6.109375 24.8125 6.109375 
Q 31.15625 6.109375 34.5625 8.28125 
Q 37.984375 10.453125 37.984375 14.40625 
Q 37.984375 18.0625 35.515625 20.015625 
Q 33.0625 21.96875 24.703125 23.78125 
L 21.578125 24.515625 
Q 13.234375 26.265625 9.515625 29.90625 
Q 5.8125 33.546875 5.8125 39.890625 
Q 5.8125 47.609375 11.28125 51.796875 
Q 16.75 56 26.8125 56 
Q 31.78125 56 36.171875 55.265625 
Q 40.578125 54.546875 44.28125 53.078125 
" id="DejaVuSans-73"/>
      <path d="M 52 44.1875 
Q 55.375 50.25 60.0625 53.125 
Q 64.75 56 71.09375 56 
Q 79.640625 56 84.28125 50.015625 
Q 88.921875 44.046875 88.921875 33.015625 
L 88.921875 0 
L 79.890625 0 
L 79.890625 32.71875 
Q 79.890625 40.578125 77.09375 44.375 
Q 74.3125 48.1875 68.609375 48.1875 
Q 61.625 48.1875 57.5625 43.546875 
Q 53.515625 38.921875 53.515625 30.90625 
L 53.515625 0 
L 44.484375 0 
L 44.484375 32.71875 
Q 44.484375 40.625 41.703125 44.40625 
Q 38.921875 48.1875 33.109375 48.1875 
Q 26.21875 48.1875 22.15625 43.53125 
Q 18.109375 38.875 18.109375 30.90625 
L 18.109375 0 
L 9.078125 0 
L 9.078125 54.6875 
L 18.109375 54.6875 
L 18.109375 46.1875 
Q 21.1875 51.21875 25.484375 53.609375 
Q 29.78125 56 35.6875 56 
Q 41.65625 56 45.828125 52.96875 
Q 50 49.953125 52 44.1875 
" id="DejaVuSans-6d"/>
      <path d="M 18.109375 8.203125 
L 18.109375 -20.796875 
L 9.078125 -20.796875 
L 9.078125 54.6875 
L 18.109375 54.6875 
L 18.109375 46.390625 
Q 20.953125 51.265625 25.265625 53.625 
Q 29.59375 56 35.59375 56 
Q 45.5625 56 51.78125 48.09375 
Q 58.015625 40.1875 58.015625 27.296875 
Q 58.015625 14.40625 51.78125 6.484375 
Q 45.5625 -1.421875 35.59375 -1.421875 
Q 29.59375 -1.421875 25.265625 0.953125 
Q 20.953125 3.328125 18.109375 8.203125 
M 48.6875 27.296875 
Q 48.6875 37.203125 44.609375 42.84375 
Q 40.53125 48.484375 33.40625 48.484375 
Q 26.265625 48.484375 22.1875 42.84375 
Q 18.109375 37.203125 18.109375 27.296875 
Q 18.109375 17.390625 22.1875 11.75 
Q 26.265625 6.109375 33.40625 6.109375 
Q 40.53125 6.109375 44.609375 11.75 
Q 48.6875 17.390625 48.6875 27.296875 
" id="DejaVuSans-70"/>
      <path d="M 18.3125 70.21875 
L 18.3125 54.6875 
L 36.8125 54.6875 
L 36.8125 47.703125 
L 18.3125 47.703125 
L 18.3125 18.015625 
Q 18.3125 11.328125 20.140625 9.421875 
Q 21.96875 7.515625 27.59375 7.515625 
L 36.8125 7.515625 
L 36.8125 0 
L 27.59375 0 
Q 17.1875 0 13.234375 3.875 
Q 9.28125 7.765625 9.28125 18.015625 
L 9.28125 47.703125 
L 2.6875 47.703125 
L 2.6875 54.6875 
L 9.28125 54.6875 
L 9.28125 70.21875 
z
" id="DejaVuSans-74"/>
      <path d="M 9.421875 54.6875 
L 18.40625 54.6875 
L 18.40625 0 
L 9.421875 0 
z
M 9.421875 75.984375 
L 18.40625 75.984375 
L 18.40625 64.59375 
L 9.421875 64.59375 
z
" id="DejaVuSans-69"/>
      <path d="M 30.609375 48.390625 
Q 23.390625 48.390625 19.1875 42.75 
Q 14.984375 37.109375 14.984375 27.296875 
Q 14.984375 17.484375 19.15625 11.84375 
Q 23.34375 6.203125 30.609375 6.203125 
Q 37.796875 6.203125 41.984375 11.859375 
Q 46.1875 17.53125 46.1875 27.296875 
Q 46.1875 37.015625 41.984375 42.703125 
Q 37.796875 48.390625 30.609375 48.390625 
M 30.609375 56 
Q 42.328125 56 49.015625 48.375 
Q 55.71875 40.765625 55.71875 27.296875 
Q 55.71875 13.875 49.015625 6.21875 
Q 42.328125 -1.421875 30.609375 -1.421875 
Q 18.84375 -1.421875 12.171875 6.21875 
Q 5.515625 13.875 5.515625 27.296875 
Q 5.515625 40.765625 12.171875 48.375 
Q 18.84375 56 30.609375 56 
" id="DejaVuSans-6f"/>
      <path d="M 8.015625 75.875 
L 15.828125 75.875 
Q 23.140625 64.359375 26.78125 53.3125 
Q 30.421875 42.28125 30.421875 31.390625 
Q 30.421875 20.453125 26.78125 9.375 
Q 23.140625 -1.703125 15.828125 -13.1875 
L 8.015625 -13.1875 
Q 14.5 -2 17.703125 9.0625 
Q 20.90625 20.125 20.90625 31.390625 
Q 20.90625 42.671875 17.703125 53.65625 
Q 14.5 64.65625 8.015625 75.875 
" id="DejaVuSans-29"/>
     </defs>
     <g style="fill:#d2d2d2;" transform="translate(115.6 281.541562)scale(0.16 -0.16)">
      <use transform="translate(0 0.015625)" xlink:href="#DejaVuSans-Oblique-46"/>
      <use transform="translate(57.519531 0.015625)" xlink:href="#DejaVuSans-20"/>
      <use transform="translate(89.306641 0.015625)" xlink:href="#DejaVuSans-28"/>
      <use transform="translate(128.320312 0.015625)" xlink:href="#DejaVuSans-75"/>
      <use transform="translate(191.699219 0.015625)" xlink:href="#DejaVuSans-6e"/>
      <use transform="translate(255.078125 0.015625)" xlink:href="#DejaVuSans-64"/>
      <use transform="translate(318.554688 0.015625)" xlink:href="#DejaVuSans-65"/>
      <use transform="translate(380.078125 0.015625)" xlink:href="#DejaVuSans-72"/>
      <use transform="translate(421.191406 0.015625)" xlink:href="#DejaVuSans-20"/>
      <use transform="translate(452.978516 0.015625)" xlink:href="#DejaVuSans-Oblique-48"/>
      <use transform="translate(528.173828 -16.390625)scale(0.7)" xlink:href="#DejaVuSans-30"/>
      <use transform="translate(575.444336 0.015625)" xlink:href="#DejaVuSans-20"/>
      <use transform="translate(607.231445 0.015625)" xlink:href="#DejaVuSans-61"/>
      <use transform="translate(668.510742 0.015625)" xlink:href="#DejaVuSans-73"/>
      <use transform="translate(720.610352 0.015625)" xlink:href="#DejaVuSans-73"/>
      <use transform="translate(772.709961 0.015625)" xlink:href="#DejaVuSans-75"/>
      <use transform="translate(836.088867 0.015625)" xlink:href="#DejaVuSans-6d"/>
      <use transform="translate(933.500977 0.015625)" xlink:href="#DejaVuSans-70"/>
      <use transform="translate(996.977539 0.015625)" xlink:href="#DejaVuSans-74"/>
      <use transform="translate(1036.186523 0.015625)" xlink:href="#DejaVuSans-69"/>
      <use transform="translate(1063.969727 0.015625)" xlink:href="#DejaVuSans-6f"/>
      <use transform="translate(1125.151367 0.015625)" xlink:href="#DejaVuSans-6e"/>
      <use transform="translate(1188.530273 0.015625)" xlink:href="#DejaVuSans-29"/>
     </g>
    </g>
   </g>
   <g id="matplotlib.axis_2">
    <g id="ytick_1">
     <g id="line2d_10">
      <defs>
       <path d="M 0 0 
L -4 0 
" id="mceac4df22f" style="stroke:#d2d2d2;"/>
      </defs>
      <g>
       <use style="fill:#d2d2d2;stroke:#d2d2d2;" x="56.16" xlink:href="#mceac4df22f" y="244.8"/>
      </g>
     </g>
     <g id="text_11">
      <!-- 0 -->
      <g style="fill:#d2d2d2;" transform="translate(39.88875 249.738984)scale(0.13 -0.13)">
       <use xlink:href="#DejaVuSans-30"/>
      </g>
     </g>
    </g>
    <g id="ytick_2">
     <g id="line2d_11">
      <g>
       <use style="fill:#d2d2d2;stroke:#d2d2d2;" x="56.16" xlink:href="#mceac4df22f" y="202.068048"/>
      </g>
     </g>
     <g id="text_12">
      <!-- 200 -->
      <g style="fill:#d2d2d2;" transform="translate(23.34625 207.007033)scale(0.13 -0.13)">
       <use xlink:href="#DejaVuSans-32"/>
       <use x="63.623047" xlink:href="#DejaVuSans-30"/>
       <use x="127.246094" xlink:href="#DejaVuSans-30"/>
      </g>
     </g>
    </g>
    <g id="ytick_3">
     <g id="line2d_12">
      <g>
       <use style="fill:#d2d2d2;stroke:#d2d2d2;" x="56.16" xlink:href="#mceac4df22f" y="159.336097"/>
      </g>
     </g>
     <g id="text_13">
      <!-- 400 -->
      <g style="fill:#d2d2d2;" transform="translate(23.34625 164.275081)scale(0.13 -0.13)">
       <use xlink:href="#DejaVuSans-34"/>
       <use x="63.623047" xlink:href="#DejaVuSans-30"/>
       <use x="127.246094" xlink:href="#DejaVuSans-30"/>
      </g>
     </g>
    </g>
    <g id="ytick_4">
     <g id="line2d_13">
      <g>
       <use style="fill:#d2d2d2;stroke:#d2d2d2;" x="56.16" xlink:href="#mceac4df22f" y="116.604145"/>
      </g>
     </g>
     <g id="text_14">
      <!-- 600 -->
      <g style="fill:#d2d2d2;" transform="translate(23.34625 121.54313)scale(0.13 -0.13)">
       <use xlink:href="#DejaVuSans-36"/>
       <use x="63.623047" xlink:href="#DejaVuSans-30"/>
       <use x="127.246094" xlink:href="#DejaVuSans-30"/>
      </g>
     </g>
    </g>
    <g id="ytick_5">
     <g id="line2d_14">
      <g>
       <use style="fill:#d2d2d2;stroke:#d2d2d2;" x="56.16" xlink:href="#mceac4df22f" y="73.872194"/>
      </g>
     </g>
     <g id="text_15">
      <!-- 800 -->
      <g style="fill:#d2d2d2;" transform="translate(23.34625 78.811178)scale(0.13 -0.13)">
       <use xlink:href="#DejaVuSans-38"/>
       <use x="63.623047" xlink:href="#DejaVuSans-30"/>
       <use x="127.246094" xlink:href="#DejaVuSans-30"/>
      </g>
     </g>
    </g>
    <g id="ytick_6">
     <g id="line2d_15">
      <g>
       <use style="fill:#d2d2d2;stroke:#d2d2d2;" x="56.16" xlink:href="#mceac4df22f" y="31.140242"/>
      </g>
     </g>
     <g id="text_16">
      <!-- 1000 -->
      <g style="fill:#d2d2d2;" transform="translate(15.075 36.079226)scale(0.13 -0.13)">
       <use xlink:href="#DejaVuSans-31"/>
       <use x="63.623047" xlink:href="#DejaVuSans-30"/>
       <use x="127.246094" xlink:href="#DejaVuSans-30"/>
       <use x="190.869141" xlink:href="#DejaVuSans-30"/>
      </g>
     </g>
    </g>
    <g id="text_17">
     <!-- Frequency -->
     <defs>
      <path d="M 9.8125 72.90625 
L 51.703125 72.90625 
L 51.703125 64.59375 
L 19.671875 64.59375 
L 19.671875 43.109375 
L 48.578125 43.109375 
L 48.578125 34.8125 
L 19.671875 34.8125 
L 19.671875 0 
L 9.8125 0 
z
" id="DejaVuSans-46"/>
      <path d="M 14.796875 27.296875 
Q 14.796875 17.390625 18.875 11.75 
Q 22.953125 6.109375 30.078125 6.109375 
Q 37.203125 6.109375 41.296875 11.75 
Q 45.40625 17.390625 45.40625 27.296875 
Q 45.40625 37.203125 41.296875 42.84375 
Q 37.203125 48.484375 30.078125 48.484375 
Q 22.953125 48.484375 18.875 42.84375 
Q 14.796875 37.203125 14.796875 27.296875 
M 45.40625 8.203125 
Q 42.578125 3.328125 38.25 0.953125 
Q 33.9375 -1.421875 27.875 -1.421875 
Q 17.96875 -1.421875 11.734375 6.484375 
Q 5.515625 14.40625 5.515625 27.296875 
Q 5.515625 40.1875 11.734375 48.09375 
Q 17.96875 56 27.875 56 
Q 33.9375 56 38.25 53.625 
Q 42.578125 51.265625 45.40625 46.390625 
L 45.40625 54.6875 
L 54.390625 54.6875 
L 54.390625 -20.796875 
L 45.40625 -20.796875 
z
" id="DejaVuSans-71"/>
      <path d="M 48.78125 52.59375 
L 48.78125 44.1875 
Q 44.96875 46.296875 41.140625 47.34375 
Q 37.3125 48.390625 33.40625 48.390625 
Q 24.65625 48.390625 19.8125 42.84375 
Q 14.984375 37.3125 14.984375 27.296875 
Q 14.984375 17.28125 19.8125 11.734375 
Q 24.65625 6.203125 33.40625 6.203125 
Q 37.3125 6.203125 41.140625 7.25 
Q 44.96875 8.296875 48.78125 10.40625 
L 48.78125 2.09375 
Q 45.015625 0.34375 40.984375 -0.53125 
Q 36.96875 -1.421875 32.421875 -1.421875 
Q 20.0625 -1.421875 12.78125 6.34375 
Q 5.515625 14.109375 5.515625 27.296875 
Q 5.515625 40.671875 12.859375 48.328125 
Q 20.21875 56 33.015625 56 
Q 37.15625 56 41.109375 55.140625 
Q 45.0625 54.296875 48.78125 52.59375 
" id="DejaVuSans-63"/>
      <path d="M 32.171875 -5.078125 
Q 28.375 -14.84375 24.75 -17.8125 
Q 21.140625 -20.796875 15.09375 -20.796875 
L 7.90625 -20.796875 
L 7.90625 -13.28125 
L 13.1875 -13.28125 
Q 16.890625 -13.28125 18.9375 -11.515625 
Q 21 -9.765625 23.484375 -3.21875 
L 25.09375 0.875 
L 2.984375 54.6875 
L 12.5 54.6875 
L 29.59375 11.921875 
L 46.6875 54.6875 
L 56.203125 54.6875 
z
" id="DejaVuSans-79"/>
     </defs>
     <g style="fill:#d2d2d2;" transform="translate(7.7475 171.67625)rotate(-90)scale(0.16 -0.16)">
      <use xlink:href="#DejaVuSans-46"/>
      <use x="57.410156" xlink:href="#DejaVuSans-72"/>
      <use x="98.492188" xlink:href="#DejaVuSans-65"/>
      <use x="160.015625" xlink:href="#DejaVuSans-71"/>
      <use x="223.492188" xlink:href="#DejaVuSans-75"/>
      <use x="286.871094" xlink:href="#DejaVuSans-65"/>
      <use x="348.394531" xlink:href="#DejaVuSans-6e"/>
      <use x="411.773438" xlink:href="#DejaVuSans-63"/>
      <use x="466.753906" xlink:href="#DejaVuSans-79"/>
     </g>
    </g>
   </g>
   <g id="patch_166">
    <path d="M 56.16 244.8 
L 56.16 14.4 
" style="fill:none;stroke:#d2d2d2;stroke-linecap:square;stroke-linejoin:miter;"/>
   </g>
   <g id="patch_167">
    <path d="M 56.16 244.8 
L 371.52 244.8 
" style="fill:none;stroke:#d2d2d2;stroke-linecap:square;stroke-linejoin:miter;"/>
   </g>
   <g id="text_18">
    <!-- 10000 simulations -->
    <defs>
     <path d="M 9.421875 75.984375 
L 18.40625 75.984375 
L 18.40625 0 
L 9.421875 0 
z
" id="DejaVuSans-6c"/>
    </defs>
    <g style="fill:#5bc0de;" transform="translate(239.109212 221.76)scale(0.14 -0.14)">
     <use xlink:href="#DejaVuSans-31"/>
     <use x="63.623047" xlink:href="#DejaVuSans-30"/>
     <use x="127.246094" xlink:href="#DejaVuSans-30"/>
     <use x="190.869141" xlink:href="#DejaVuSans-30"/>
     <use x="254.492188" xlink:href="#DejaVuSans-30"/>
     <use x="318.115234" xlink:href="#DejaVuSans-20"/>
     <use x="349.902344" xlink:href="#DejaVuSans-73"/>
     <use x="402.001953" xlink:href="#DejaVuSans-69"/>
     <use x="429.785156" xlink:href="#DejaVuSans-6d"/>
     <use x="527.197266" xlink:href="#DejaVuSans-75"/>
     <use x="590.576172" xlink:href="#DejaVuSans-6c"/>
     <use x="618.359375" xlink:href="#DejaVuSans-61"/>
     <use x="679.638672" xlink:href="#DejaVuSans-74"/>
     <use x="718.847656" xlink:href="#DejaVuSans-69"/>
     <use x="746.630859" xlink:href="#DejaVuSans-6f"/>
     <use x="807.8125" xlink:href="#DejaVuSans-6e"/>
     <use x="871.191406" xlink:href="#DejaVuSans-73"/>
    </g>
   </g>
  </g>
  <g id="axes_2">
   <g id="line2d_16">
    <path clip-path="url(#p51a654251c)" d="M 155.290043 244.8 
L 155.290043 37.44 
" style="fill:none;stroke:#f0ad4e;stroke-linecap:square;stroke-width:1.5;"/>
   </g>
   <g id="text_19">
    <!-- Observed F -->
    <defs>
     <path d="M 39.40625 66.21875 
Q 28.65625 66.21875 22.328125 58.203125 
Q 16.015625 50.203125 16.015625 36.375 
Q 16.015625 22.609375 22.328125 14.59375 
Q 28.65625 6.59375 39.40625 6.59375 
Q 50.140625 6.59375 56.421875 14.59375 
Q 62.703125 22.609375 62.703125 36.375 
Q 62.703125 50.203125 56.421875 58.203125 
Q 50.140625 66.21875 39.40625 66.21875 
M 39.40625 74.21875 
Q 54.734375 74.21875 63.90625 63.9375 
Q 73.09375 53.65625 73.09375 36.375 
Q 73.09375 19.140625 63.90625 8.859375 
Q 54.734375 -1.421875 39.40625 -1.421875 
Q 24.03125 -1.421875 14.8125 8.828125 
Q 5.609375 19.09375 5.609375 36.375 
Q 5.609375 53.65625 14.8125 63.9375 
Q 24.03125 74.21875 39.40625 74.21875 
" id="DejaVuSans-4f"/>
     <path d="M 48.6875 27.296875 
Q 48.6875 37.203125 44.609375 42.84375 
Q 40.53125 48.484375 33.40625 48.484375 
Q 26.265625 48.484375 22.1875 42.84375 
Q 18.109375 37.203125 18.109375 27.296875 
Q 18.109375 17.390625 22.1875 11.75 
Q 26.265625 6.109375 33.40625 6.109375 
Q 40.53125 6.109375 44.609375 11.75 
Q 48.6875 17.390625 48.6875 27.296875 
M 18.109375 46.390625 
Q 20.953125 51.265625 25.265625 53.625 
Q 29.59375 56 35.59375 56 
Q 45.5625 56 51.78125 48.09375 
Q 58.015625 40.1875 58.015625 27.296875 
Q 58.015625 14.40625 51.78125 6.484375 
Q 45.5625 -1.421875 35.59375 -1.421875 
Q 29.59375 -1.421875 25.265625 0.953125 
Q 20.953125 3.328125 18.109375 8.203125 
L 18.109375 0 
L 9.078125 0 
L 9.078125 75.984375 
L 18.109375 75.984375 
z
" id="DejaVuSans-62"/>
     <path d="M 2.984375 54.6875 
L 12.5 54.6875 
L 29.59375 8.796875 
L 46.6875 54.6875 
L 56.203125 54.6875 
L 35.6875 0 
L 23.484375 0 
z
" id="DejaVuSans-76"/>
    </defs>
    <g style="fill:#f0ad4e;" transform="translate(115.359418 14.2435)scale(0.14 -0.14)">
     <use xlink:href="#DejaVuSans-4f"/>
     <use x="78.710938" xlink:href="#DejaVuSans-62"/>
     <use x="142.1875" xlink:href="#DejaVuSans-73"/>
     <use x="194.287109" xlink:href="#DejaVuSans-65"/>
     <use x="255.810547" xlink:href="#DejaVuSans-72"/>
     <use x="296.923828" xlink:href="#DejaVuSans-76"/>
     <use x="356.103516" xlink:href="#DejaVuSans-65"/>
     <use x="417.626953" xlink:href="#DejaVuSans-64"/>
     <use x="481.103516" xlink:href="#DejaVuSans-20"/>
     <use x="512.890625" xlink:href="#DejaVuSans-46"/>
    </g>
    <!-- 5.63 -->
    <defs>
     <path d="M 10.796875 72.90625 
L 49.515625 72.90625 
L 49.515625 64.59375 
L 19.828125 64.59375 
L 19.828125 46.734375 
Q 21.96875 47.46875 24.109375 47.828125 
Q 26.265625 48.1875 28.421875 48.1875 
Q 40.625 48.1875 47.75 41.5 
Q 54.890625 34.8125 54.890625 23.390625 
Q 54.890625 11.625 47.5625 5.09375 
Q 40.234375 -1.421875 26.90625 -1.421875 
Q 22.3125 -1.421875 17.546875 -0.640625 
Q 12.796875 0.140625 7.71875 1.703125 
L 7.71875 11.625 
Q 12.109375 9.234375 16.796875 8.0625 
Q 21.484375 6.890625 26.703125 6.890625 
Q 35.15625 6.890625 40.078125 11.328125 
Q 45.015625 15.765625 45.015625 23.390625 
Q 45.015625 31 40.078125 35.4375 
Q 35.15625 39.890625 26.703125 39.890625 
Q 22.75 39.890625 18.8125 39.015625 
Q 14.890625 38.140625 10.796875 36.28125 
z
" id="DejaVuSans-35"/>
     <path d="M 10.6875 12.40625 
L 21 12.40625 
L 21 0 
L 10.6875 0 
z
" id="DejaVuSans-2e"/>
     <path d="M 40.578125 39.3125 
Q 47.65625 37.796875 51.625 33 
Q 55.609375 28.21875 55.609375 21.1875 
Q 55.609375 10.40625 48.1875 4.484375 
Q 40.765625 -1.421875 27.09375 -1.421875 
Q 22.515625 -1.421875 17.65625 -0.515625 
Q 12.796875 0.390625 7.625 2.203125 
L 7.625 11.71875 
Q 11.71875 9.328125 16.59375 8.109375 
Q 21.484375 6.890625 26.8125 6.890625 
Q 36.078125 6.890625 40.9375 10.546875 
Q 45.796875 14.203125 45.796875 21.1875 
Q 45.796875 27.640625 41.28125 31.265625 
Q 36.765625 34.90625 28.71875 34.90625 
L 20.21875 34.90625 
L 20.21875 43.015625 
L 29.109375 43.015625 
Q 36.375 43.015625 40.234375 45.921875 
Q 44.09375 48.828125 44.09375 54.296875 
Q 44.09375 59.90625 40.109375 62.90625 
Q 36.140625 65.921875 28.71875 65.921875 
Q 24.65625 65.921875 20.015625 65.03125 
Q 15.375 64.15625 9.8125 62.3125 
L 9.8125 71.09375 
Q 15.4375 72.65625 20.34375 73.4375 
Q 25.25 74.21875 29.59375 74.21875 
Q 40.828125 74.21875 47.359375 69.109375 
Q 53.90625 64.015625 53.90625 55.328125 
Q 53.90625 49.265625 50.4375 45.09375 
Q 46.96875 40.921875 40.578125 39.3125 
" id="DejaVuSans-33"/>
    </defs>
    <g style="fill:#f0ad4e;" transform="translate(139.704105 29.920437)scale(0.14 -0.14)">
     <use xlink:href="#DejaVuSans-35"/>
     <use x="63.623047" xlink:href="#DejaVuSans-2e"/>
     <use x="95.410156" xlink:href="#DejaVuSans-36"/>
     <use x="159.033203" xlink:href="#DejaVuSans-33"/>
    </g>
   </g>
  </g>
  <g id="axes_3">
   <g id="text_20">
    <!-- 131 simulations -->
    <g style="fill:#d2d2d2;" transform="translate(164.098981 90.883062)scale(0.14 -0.14)">
     <use xlink:href="#DejaVuSans-31"/>
     <use x="63.623047" xlink:href="#DejaVuSans-33"/>
     <use x="127.246094" xlink:href="#DejaVuSans-31"/>
     <use x="190.869141" xlink:href="#DejaVuSans-20"/>
     <use x="222.65625" xlink:href="#DejaVuSans-73"/>
     <use x="274.755859" xlink:href="#DejaVuSans-69"/>
     <use x="302.539062" xlink:href="#DejaVuSans-6d"/>
     <use x="399.951172" xlink:href="#DejaVuSans-75"/>
     <use x="463.330078" xlink:href="#DejaVuSans-6c"/>
     <use x="491.113281" xlink:href="#DejaVuSans-61"/>
     <use x="552.392578" xlink:href="#DejaVuSans-74"/>
     <use x="591.601562" xlink:href="#DejaVuSans-69"/>
     <use x="619.384766" xlink:href="#DejaVuSans-6f"/>
     <use x="680.566406" xlink:href="#DejaVuSans-6e"/>
     <use x="743.945312" xlink:href="#DejaVuSans-73"/>
    </g>
    <!-- with F$\geq$5.63 -->
    <defs>
     <path d="M 4.203125 54.6875 
L 13.1875 54.6875 
L 24.421875 12.015625 
L 35.59375 54.6875 
L 46.1875 54.6875 
L 57.421875 12.015625 
L 68.609375 54.6875 
L 77.59375 54.6875 
L 63.28125 0 
L 52.6875 0 
L 40.921875 44.828125 
L 29.109375 0 
L 18.5 0 
z
" id="DejaVuSans-77"/>
     <path d="M 54.890625 33.015625 
L 54.890625 0 
L 45.90625 0 
L 45.90625 32.71875 
Q 45.90625 40.484375 42.875 44.328125 
Q 39.84375 48.1875 33.796875 48.1875 
Q 26.515625 48.1875 22.3125 43.546875 
Q 18.109375 38.921875 18.109375 30.90625 
L 18.109375 0 
L 9.078125 0 
L 9.078125 75.984375 
L 18.109375 75.984375 
L 18.109375 46.1875 
Q 21.34375 51.125 25.703125 53.5625 
Q 30.078125 56 35.796875 56 
Q 45.21875 56 50.046875 50.171875 
Q 54.890625 44.34375 54.890625 33.015625 
" id="DejaVuSans-68"/>
     <path d="M 10.59375 49.609375 
L 10.59375 58.203125 
L 73.1875 40.28125 
L 73.1875 31.984375 
L 10.59375 14.015625 
L 10.59375 22.703125 
L 57.515625 36.078125 
z
M 73.1875 8.296875 
L 73.1875 0 
L 10.59375 0 
L 10.59375 8.296875 
z
" id="DejaVuSans-2265"/>
    </defs>
    <g style="fill:#d2d2d2;" transform="translate(164.098981 106.56)scale(0.14 -0.14)">
     <use transform="translate(0 0.015625)" xlink:href="#DejaVuSans-77"/>
     <use transform="translate(81.787109 0.015625)" xlink:href="#DejaVuSans-69"/>
     <use transform="translate(109.570312 0.015625)" xlink:href="#DejaVuSans-74"/>
     <use transform="translate(148.779297 0.015625)" xlink:href="#DejaVuSans-68"/>
     <use transform="translate(212.158203 0.015625)" xlink:href="#DejaVuSans-20"/>
     <use transform="translate(243.945312 0.015625)" xlink:href="#DejaVuSans-46"/>
     <use transform="translate(320.947266 0.015625)" xlink:href="#DejaVuSans-2265"/>
     <use transform="translate(424.21875 0.015625)" xlink:href="#DejaVuSans-35"/>
     <use transform="translate(487.841797 0.015625)" xlink:href="#DejaVuSans-2e"/>
     <use transform="translate(519.628906 0.015625)" xlink:href="#DejaVuSans-36"/>
     <use transform="translate(583.251953 0.015625)" xlink:href="#DejaVuSans-33"/>
    </g>
   </g>
   <g id="text_21">
    <!-- p-value = 0.013 -->
    <defs>
     <path d="M 4.890625 31.390625 
L 31.203125 31.390625 
L 31.203125 23.390625 
L 4.890625 23.390625 
z
" id="DejaVuSans-2d"/>
     <path d="M 10.59375 45.40625 
L 73.1875 45.40625 
L 73.1875 37.203125 
L 10.59375 37.203125 
z
M 10.59375 25.484375 
L 73.1875 25.484375 
L 73.1875 17.1875 
L 10.59375 17.1875 
z
" id="DejaVuSans-3d"/>
    </defs>
    <g style="fill:#d9534f;" transform="translate(164.098981 152.64)scale(0.14 -0.14)">
     <use xlink:href="#DejaVuSans-70"/>
     <use x="63.476562" xlink:href="#DejaVuSans-2d"/>
     <use x="99.529297" xlink:href="#DejaVuSans-76"/>
     <use x="158.708984" xlink:href="#DejaVuSans-61"/>
     <use x="219.988281" xlink:href="#DejaVuSans-6c"/>
     <use x="247.771484" xlink:href="#DejaVuSans-75"/>
     <use x="311.150391" xlink:href="#DejaVuSans-65"/>
     <use x="372.673828" xlink:href="#DejaVuSans-20"/>
     <use x="404.460938" xlink:href="#DejaVuSans-3d"/>
     <use x="488.25" xlink:href="#DejaVuSans-20"/>
     <use x="520.037109" xlink:href="#DejaVuSans-30"/>
     <use x="583.660156" xlink:href="#DejaVuSans-2e"/>
     <use x="615.447266" xlink:href="#DejaVuSans-30"/>
     <use x="679.070312" xlink:href="#DejaVuSans-31"/>
     <use x="742.693359" xlink:href="#DejaVuSans-33"/>
    </g>
   </g>
  </g>
 </g>
 <defs>
  <clipPath id="p51a654251c">
   <rect height="230.4" width="315.36" x="56.16" y="14.4"/>
  </clipPath>
 </defs>
</svg>
