<?xml version="1.0" encoding="utf-8"?>
<!-- Generator: Adobe Illustrator 16.0.4, SVG Export Plug-In . SVG Version: 6.00 Build 0)  -->
<!DOCTYPE svg PUBLIC "-//W3C//DTD SVG 1.1//EN" "http://www.w3.org/Graphics/SVG/1.1/DTD/svg11.dtd">
<svg version="1.1" xmlns="http://www.w3.org/2000/svg" xmlns:xlink="http://www.w3.org/1999/xlink" x="0px" y="0px" width="432px"
	 height="144px" viewBox="0 0 432 144" enable-background="new 0 0 432 144" xml:space="preserve">
<g id="layer1">
	<g>
		<path fill="none" stroke="#D9534F" stroke-width="3" stroke-miterlimit="10" d="M427.727,67.461
			c0,6.263-5.076,11.339-11.338,11.339h-63.724c-6.262,0-11.339-5.076-11.339-11.339V16.539c0-6.262,5.077-11.338,11.339-11.338
			h63.724c6.262,0,11.338,5.077,11.338,11.338V67.461z"/>
		<g>
			<g>
				<path fill="#D2D2D2" d="M379.225,26.73l5.005,6.72l0.28,0.56l0.314-0.56l4.971-6.72h3.254l-6.824,9.17l6.859,9.1h-3.255
					l-5.005-6.685l-0.314-0.525l-0.28,0.525L379.225,45h-3.256l6.86-9.1l-6.825-9.17H379.225z"/>
			</g>
			<line fill="none" stroke="#D2D2D2" stroke-width="2" stroke-miterlimit="10" x1="376.277" y1="18.8" x2="392.775" y2="18.8"/>
		</g>
		<g>
			<path fill="#D2D2D2" d="M364.906,58.221V71h-1.619v-5.814h-7.039V71h-1.619V58.221h1.619v5.525h7.039v-5.525H364.906z"/>
			<path fill="#D2D2D2" d="M370.037,71.18c-0.444,0-0.858-0.074-1.242-0.225c-0.385-0.15-0.717-0.357-0.999-0.621
				s-0.505-0.572-0.666-0.927c-0.162-0.354-0.243-0.741-0.243-1.161c0-0.432,0.096-0.825,0.288-1.18
				c0.192-0.354,0.465-0.656,0.819-0.908c0.354-0.252,0.773-0.45,1.26-0.594c0.486-0.145,1.017-0.217,1.593-0.217
				c0.456,0,0.918,0.043,1.386,0.127c0.469,0.084,0.883,0.197,1.242,0.342v-0.756c0-0.769-0.216-1.371-0.648-1.81
				c-0.432-0.438-1.043-0.657-1.836-0.657c-0.947,0-1.943,0.366-2.988,1.098l-0.521-1.025c1.212-0.816,2.43-1.225,3.654-1.225
				c1.236,0,2.199,0.33,2.889,0.99s1.035,1.59,1.035,2.791v3.834c0,0.371,0.168,0.563,0.504,0.575V71
				c-0.168,0.023-0.306,0.042-0.414,0.055c-0.107,0.012-0.223,0.018-0.342,0.018c-0.312,0-0.561-0.094-0.747-0.279
				s-0.297-0.41-0.333-0.675l-0.035-0.666c-0.421,0.563-0.952,0.993-1.594,1.286C371.455,71.033,370.769,71.18,370.037,71.18z
				 M370.451,69.992c0.563,0,1.088-0.105,1.574-0.315s0.855-0.489,1.107-0.837c0.228-0.228,0.342-0.461,0.342-0.701v-1.387
				c-0.768-0.3-1.566-0.45-2.395-0.45c-0.791,0-1.437,0.169-1.935,0.505s-0.747,0.773-0.747,1.313c0,0.265,0.051,0.511,0.153,0.737
				c0.102,0.229,0.245,0.427,0.433,0.595c0.186,0.168,0.404,0.3,0.656,0.396C369.893,69.944,370.162,69.992,370.451,69.992z"/>
			<path fill="#D2D2D2" d="M391.762,71h-1.584v-5.256c0-0.984-0.158-1.71-0.477-2.178c-0.318-0.469-0.789-0.703-1.412-0.703
				c-0.648,0-1.229,0.232-1.738,0.693c-0.51,0.463-0.873,1.06-1.088,1.791V71h-1.584v-5.256c0-1.008-0.156-1.74-0.469-2.196
				s-0.779-0.685-1.404-0.685c-0.636,0-1.212,0.226-1.728,0.676c-0.517,0.449-0.882,1.047-1.099,1.791V71h-1.584v-9.396h1.44v2.017
				c0.384-0.696,0.882-1.233,1.494-1.611s1.302-0.567,2.07-0.567c0.792,0,1.419,0.214,1.881,0.64
				c0.462,0.427,0.747,0.976,0.854,1.647c0.84-1.524,2.034-2.287,3.582-2.287c0.541,0,0.993,0.1,1.359,0.297
				c0.365,0.199,0.657,0.475,0.873,0.828c0.216,0.354,0.371,0.771,0.468,1.252c0.097,0.479,0.144,1.002,0.144,1.565V71z"/>
			<path fill="#D2D2D2" d="M403.031,71l-1.332-1.387c-0.517,0.505-1.096,0.892-1.737,1.162c-0.642,0.27-1.329,0.404-2.062,0.404
				c-0.588,0-1.134-0.09-1.638-0.27s-0.942-0.43-1.313-0.747c-0.373-0.317-0.664-0.692-0.873-1.125
				c-0.211-0.433-0.315-0.905-0.315-1.422c0-0.42,0.069-0.81,0.207-1.171c0.138-0.359,0.323-0.689,0.558-0.989
				s0.501-0.579,0.801-0.837c0.301-0.258,0.619-0.501,0.955-0.729c-0.289-0.324-0.535-0.619-0.738-0.883
				c-0.205-0.264-0.369-0.513-0.495-0.746c-0.126-0.234-0.22-0.457-0.279-0.666c-0.06-0.211-0.09-0.43-0.09-0.658
				c0-0.407,0.084-0.789,0.252-1.143s0.399-0.66,0.692-0.918c0.295-0.258,0.643-0.459,1.045-0.604
				c0.402-0.144,0.837-0.215,1.305-0.215c0.432,0,0.837,0.06,1.215,0.18c0.379,0.119,0.708,0.294,0.99,0.521
				c0.281,0.229,0.504,0.504,0.666,0.828s0.243,0.684,0.243,1.08c0,0.359-0.069,0.696-0.207,1.008
				c-0.138,0.312-0.324,0.604-0.558,0.873c-0.234,0.27-0.514,0.525-0.838,0.766s-0.666,0.479-1.025,0.72l3.258,3.42
				c0.228-0.433,0.404-0.903,0.531-1.413c0.125-0.51,0.188-1.053,0.188-1.629h1.313c-0.012,0.78-0.11,1.506-0.297,2.178
				c-0.186,0.672-0.453,1.284-0.801,1.836L405.119,71H403.031z M398.062,69.92c0.54,0,1.044-0.107,1.512-0.324
				c0.469-0.216,0.889-0.516,1.26-0.9l-3.635-3.834c-0.564,0.408-1.023,0.832-1.377,1.27c-0.354,0.438-0.531,0.939-0.531,1.503
				c0,0.36,0.078,0.685,0.234,0.972c0.155,0.289,0.362,0.529,0.62,0.721c0.259,0.191,0.552,0.339,0.882,0.441
				C397.357,69.869,397.703,69.92,398.062,69.92z M396.137,60.902c0,0.132,0.021,0.261,0.062,0.387
				c0.043,0.126,0.114,0.27,0.217,0.432c0.102,0.162,0.242,0.354,0.423,0.576c0.18,0.223,0.413,0.483,0.702,0.783
				c0.623-0.396,1.127-0.777,1.512-1.143c0.384-0.366,0.576-0.777,0.576-1.233c0-0.42-0.156-0.765-0.469-1.035
				c-0.312-0.271-0.707-0.405-1.188-0.405c-0.54,0-0.98,0.16-1.322,0.478C396.308,60.059,396.137,60.446,396.137,60.902z"/>
			<path fill="#D2D2D2" d="M406.738,71V58.221h5.328c0.564,0,1.083,0.116,1.557,0.35c0.475,0.234,0.883,0.547,1.225,0.937
				s0.609,0.828,0.801,1.313c0.191,0.486,0.288,0.981,0.288,1.486c0,0.527-0.09,1.037-0.271,1.529
				c-0.18,0.492-0.435,0.93-0.765,1.314c-0.33,0.384-0.726,0.689-1.188,0.918c-0.461,0.228-0.975,0.342-1.539,0.342h-3.815V71
				H406.738z M408.358,64.971h3.726c0.336,0,0.64-0.07,0.91-0.207c0.27-0.139,0.5-0.33,0.692-0.576s0.342-0.531,0.45-0.855
				c0.107-0.324,0.162-0.666,0.162-1.025c0-0.373-0.063-0.721-0.189-1.045s-0.294-0.605-0.504-0.846s-0.456-0.426-0.738-0.559
				c-0.281-0.131-0.578-0.197-0.891-0.197h-3.618V64.971z"/>
		</g>
	</g>
	<g>
		<path fill="none" stroke="#5BC0DE" stroke-width="3" stroke-miterlimit="10" d="M259.414,67.461
			c0,6.263-5.076,11.339-11.338,11.339h-63.724c-6.262,0-11.339-5.076-11.339-11.339V16.539c0-6.262,5.077-11.338,11.339-11.338
			h63.724c6.262,0,11.338,5.077,11.338,11.338V67.461z"/>
		<g>
			<g>
				<path fill="#D2D2D2" d="M210.911,26.73l5.005,6.72l0.28,0.56l0.315-0.56l4.97-6.72h3.255l-6.825,9.17l6.86,9.1h-3.256
					l-5.004-6.685l-0.315-0.525l-0.28,0.525L210.911,45h-3.255l6.86-9.1l-6.825-9.17H210.911z"/>
			</g>
			<line fill="none" stroke="#D2D2D2" stroke-width="2" stroke-miterlimit="10" x1="207.964" y1="18.8" x2="224.463" y2="18.8"/>
		</g>
		<g>
			<path fill="#D2D2D2" d="M206.098,71V58.221h5.328c0.564,0,1.083,0.116,1.557,0.35c0.474,0.234,0.882,0.547,1.224,0.937
				c0.342,0.39,0.609,0.828,0.801,1.313c0.192,0.486,0.288,0.981,0.288,1.486c0,0.527-0.09,1.037-0.27,1.529
				s-0.435,0.93-0.765,1.314c-0.33,0.384-0.726,0.689-1.188,0.918c-0.462,0.228-0.975,0.342-1.539,0.342h-3.816V71H206.098z
				 M207.718,64.971h3.726c0.336,0,0.639-0.07,0.909-0.207c0.27-0.139,0.501-0.33,0.693-0.576s0.342-0.531,0.45-0.855
				c0.108-0.324,0.162-0.666,0.162-1.025c0-0.373-0.063-0.721-0.189-1.045s-0.294-0.605-0.504-0.846s-0.456-0.426-0.738-0.559
				c-0.282-0.131-0.579-0.197-0.891-0.197h-3.618V64.971z"/>
			<path fill="#D2D2D2" d="M227.122,67.706c0,0.492-0.099,0.942-0.297,1.351c-0.198,0.407-0.468,0.756-0.81,1.043
				c-0.342,0.289-0.738,0.511-1.188,0.666c-0.45,0.156-0.933,0.234-1.448,0.234h-6.066V58.221h6.354
				c0.443,0,0.846,0.096,1.206,0.287c0.36,0.192,0.666,0.441,0.918,0.747s0.447,0.654,0.585,1.044
				c0.139,0.391,0.207,0.783,0.207,1.18c0,0.636-0.159,1.224-0.477,1.764c-0.318,0.54-0.771,0.941-1.359,1.206
				c0.732,0.216,1.311,0.614,1.737,1.196C226.909,66.227,227.122,66.914,227.122,67.706z M218.932,59.624v4.267H223
				c0.288,0,0.553-0.058,0.792-0.172c0.24-0.113,0.447-0.267,0.621-0.459c0.174-0.191,0.312-0.416,0.414-0.675
				c0.103-0.258,0.153-0.53,0.153-0.819c0-0.299-0.049-0.582-0.145-0.846s-0.225-0.492-0.387-0.684
				c-0.162-0.192-0.359-0.342-0.594-0.45s-0.483-0.162-0.747-0.162H218.932z M225.484,67.418c0-0.288-0.051-0.566-0.153-0.837
				s-0.24-0.507-0.414-0.711s-0.381-0.366-0.62-0.486c-0.24-0.12-0.505-0.18-0.793-0.18h-4.572v4.392h4.447
				c0.299,0,0.575-0.06,0.827-0.18c0.252-0.119,0.474-0.279,0.666-0.477c0.192-0.198,0.343-0.43,0.45-0.693
				S225.484,67.706,225.484,67.418z"/>
		</g>
	</g>
	<g>
		<path fill="none" stroke="#F0AD4E" stroke-width="3" stroke-miterlimit="10" d="M91.102,67.461
			c0,6.263-5.076,11.339-11.338,11.339H16.04c-6.262,0-11.339-5.076-11.339-11.339V16.539C4.701,10.277,9.778,5.2,16.04,5.2h63.724
			c6.262,0,11.338,5.077,11.338,11.338V67.461z"/>
		<g>
			<g>
				<path fill="#D2D2D2" d="M42.599,26.73l5.005,6.72l0.28,0.56l0.315-0.56l4.97-6.72h3.255l-6.825,9.17l6.86,9.1h-3.255
					l-5.005-6.685l-0.315-0.525l-0.28,0.525L42.599,45h-3.255l6.86-9.1l-6.825-9.17H42.599z"/>
			</g>
			<line fill="none" stroke="#D2D2D2" stroke-width="2" stroke-miterlimit="10" x1="39.651" y1="18.8" x2="56.15" y2="18.8"/>
		</g>
		<g>
			<path fill="#D2D2D2" d="M34.464,71l-3.708-9.396h1.638l2.97,8.01l2.988-8.01h1.512L36.156,71H34.464z"/>
			<path fill="#D2D2D2" d="M45.264,71.18c-0.708,0-1.356-0.129-1.944-0.387c-0.588-0.258-1.092-0.609-1.512-1.053
				c-0.42-0.443-0.747-0.963-0.981-1.557c-0.234-0.595-0.351-1.222-0.351-1.882c0-0.659,0.117-1.284,0.351-1.872
				s0.564-1.104,0.99-1.548c0.426-0.444,0.933-0.794,1.521-1.053c0.588-0.258,1.236-0.388,1.944-0.388
				c0.708,0,1.353,0.133,1.935,0.396c0.582,0.264,1.077,0.615,1.485,1.053c0.408,0.438,0.723,0.948,0.945,1.53
				c0.222,0.583,0.333,1.185,0.333,1.81c0,0.132-0.003,0.252-0.009,0.359c-0.006,0.108-0.015,0.192-0.027,0.252H42.15
				c0.036,0.469,0.144,0.895,0.324,1.278s0.414,0.714,0.702,0.989c0.288,0.277,0.615,0.492,0.981,0.648
				c0.366,0.156,0.753,0.234,1.161,0.234c0.288,0,0.569-0.039,0.846-0.117c0.276-0.078,0.534-0.183,0.774-0.314
				c0.24-0.133,0.453-0.295,0.639-0.486s0.327-0.408,0.423-0.648l1.368,0.379c-0.156,0.348-0.369,0.666-0.639,0.953
				c-0.27,0.288-0.582,0.537-0.936,0.747S47.046,70.881,46.614,71C46.182,71.119,45.732,71.18,45.264,71.18z M48.486,65.672
				c-0.036-0.443-0.147-0.855-0.333-1.232c-0.187-0.379-0.42-0.699-0.702-0.963c-0.282-0.264-0.609-0.471-0.981-0.621
				c-0.372-0.15-0.768-0.226-1.188-0.226c-0.42,0-0.816,0.075-1.188,0.226c-0.372,0.15-0.699,0.359-0.981,0.629
				c-0.282,0.271-0.51,0.592-0.684,0.964c-0.174,0.372-0.279,0.78-0.315,1.224H48.486z"/>
			<path fill="#D2D2D2" d="M55.488,71.107c-0.636,0-1.221-0.131-1.755-0.396c-0.534-0.264-0.993-0.618-1.377-1.062
				c-0.384-0.444-0.681-0.955-0.891-1.53c-0.21-0.576-0.315-1.176-0.315-1.8c0-0.66,0.105-1.287,0.315-1.881
				s0.507-1.113,0.891-1.558c0.384-0.444,0.843-0.794,1.377-1.053c0.534-0.258,1.125-0.388,1.773-0.388
				c0.792,0,1.476,0.193,2.052,0.576c0.576,0.385,1.062,0.871,1.458,1.459v-1.873h1.404v9.289c0,0.672-0.126,1.262-0.378,1.772
				c-0.252,0.51-0.594,0.938-1.026,1.287c-0.432,0.348-0.939,0.612-1.521,0.792s-1.203,0.27-1.863,0.27
				c-1.068,0-1.935-0.183-2.601-0.549s-1.221-0.873-1.665-1.521l0.918-0.81c0.372,0.552,0.852,0.966,1.44,1.242
				s1.224,0.414,1.908,0.414c0.432,0,0.843-0.06,1.233-0.181c0.39-0.119,0.729-0.299,1.017-0.539s0.519-0.541,0.693-0.9
				s0.261-0.786,0.261-1.277v-1.656c-0.18,0.287-0.393,0.549-0.639,0.783c-0.246,0.233-0.513,0.432-0.801,0.594
				c-0.288,0.162-0.594,0.285-0.918,0.369C56.154,71.066,55.824,71.107,55.488,71.107z M55.974,69.812
				c0.336,0,0.66-0.061,0.972-0.181s0.6-0.278,0.864-0.478c0.264-0.197,0.486-0.422,0.666-0.674c0.18-0.252,0.3-0.51,0.36-0.774
				v-2.7c-0.132-0.324-0.303-0.617-0.513-0.882c-0.21-0.264-0.447-0.495-0.711-0.692c-0.264-0.199-0.549-0.352-0.855-0.459
				c-0.306-0.109-0.615-0.162-0.927-0.162c-0.48,0-0.909,0.102-1.287,0.306s-0.699,0.474-0.963,0.81
				c-0.264,0.336-0.468,0.717-0.612,1.143c-0.144,0.427-0.216,0.855-0.216,1.287c0,0.469,0.083,0.912,0.252,1.332
				c0.168,0.421,0.396,0.787,0.684,1.099c0.288,0.312,0.627,0.562,1.017,0.747C55.095,69.719,55.518,69.812,55.974,69.812z"/>
			<path fill="#D2D2D2" d="M62.85,71v-2.016h1.332V71H62.85z"/>
		</g>
	</g>
</g>
<g id="layer2">
	<g>
		<g>
			<g>
				<path fill="#D2D2D2" d="M108.414,40.844c0,0,0.759-0.055,2.088-0.151c1.329-0.103,3.228-0.178,5.506-0.305
					c4.557-0.232,10.633-0.386,16.708-0.388c3.038,0.006,6.076,0.035,8.924,0.103c2.848,0.073,5.506,0.154,7.785,0.278
					c2.278,0.126,4.177,0.205,5.506,0.305c1.329,0.097,2.088,0.152,2.088,0.152v2.322c0,0-0.759,0.055-2.088,0.152
					c-1.329,0.1-3.228,0.178-5.506,0.305c-2.278,0.124-4.937,0.205-7.785,0.278c-2.848,0.068-5.886,0.097-8.924,0.103
					c-6.076-0.002-12.152-0.156-16.708-0.388c-2.278-0.126-4.177-0.202-5.506-0.305c-1.329-0.096-2.088-0.151-2.088-0.151V40.844z"
					/>
				<g>
					<polygon fill="#D2D2D2" points="97.117,42 113.036,48.505 109.259,42 113.036,35.497 					"/>
				</g>
				<g>
					<polygon fill="#D2D2D2" points="168.317,42 152.398,48.505 156.176,42 152.398,35.497 					"/>
				</g>
			</g>
		</g>
		<g>
			<path fill="#D2D2D2" d="M129.524,26.8c-0.72,0-1.387-0.147-2-0.44c-0.614-0.293-1.14-0.687-1.58-1.18s-0.784-1.066-1.03-1.72
				c-0.247-0.653-0.37-1.34-0.37-2.06c0-0.733,0.116-1.43,0.35-2.09s0.56-1.236,0.98-1.73c0.42-0.493,0.92-0.883,1.5-1.17
				c0.58-0.287,1.217-0.43,1.91-0.43c0.84,0,1.59,0.22,2.25,0.66s1.183,0.974,1.57,1.6V12h1.76v12.44c0,0.414,0.187,0.627,0.56,0.64
				v1.52c-0.187,0.026-0.337,0.046-0.45,0.06c-0.113,0.013-0.223,0.02-0.33,0.02c-0.347,0-0.65-0.117-0.91-0.35
				c-0.26-0.233-0.39-0.503-0.39-0.81v-0.88c-0.414,0.68-0.963,1.21-1.65,1.59C131.007,26.609,130.284,26.8,129.524,26.8z
				 M129.944,25.28c0.32,0,0.65-0.06,0.99-0.18c0.34-0.12,0.66-0.287,0.96-0.5c0.3-0.213,0.56-0.463,0.78-0.75
				c0.22-0.287,0.363-0.59,0.43-0.91v-3c-0.12-0.333-0.3-0.65-0.54-0.95c-0.24-0.3-0.51-0.56-0.81-0.78
				c-0.3-0.22-0.62-0.393-0.96-0.52c-0.34-0.126-0.677-0.19-1.01-0.19c-0.52,0-0.99,0.11-1.41,0.33c-0.42,0.22-0.78,0.514-1.08,0.88
				c-0.3,0.367-0.53,0.787-0.69,1.26c-0.16,0.473-0.24,0.957-0.24,1.45c0,0.52,0.093,1.017,0.28,1.49s0.44,0.883,0.76,1.23
				c0.32,0.347,0.696,0.624,1.13,0.83C128.967,25.176,129.437,25.28,129.944,25.28z"/>
			<path fill="#D2D2D2" d="M141.351,32.327v0.933h-4.186v-0.933h1.656V27.78c-0.07,0.093-0.179,0.192-0.327,0.297
				c-0.147,0.105-0.313,0.203-0.496,0.292c-0.183,0.09-0.371,0.166-0.565,0.228c-0.194,0.062-0.365,0.093-0.513,0.093v-0.979
				c0.171,0,0.362-0.048,0.572-0.146c0.209-0.097,0.41-0.21,0.6-0.338c0.19-0.128,0.354-0.252,0.49-0.373
				c0.136-0.121,0.216-0.204,0.239-0.25h1.049v5.725H141.351z"/>
		</g>
	</g>
</g>
<g id="layer3">
	<g>
		<g>
			<g>
				<path fill="#D2D2D2" d="M276.242,40.844c0,0,0.76-0.055,2.089-0.151c1.329-0.103,3.228-0.178,5.506-0.305
					c4.557-0.232,10.633-0.386,16.708-0.388c3.038,0.006,6.076,0.035,8.924,0.103c2.849,0.073,5.507,0.154,7.785,0.278
					c2.278,0.126,4.177,0.205,5.506,0.305c1.329,0.097,2.089,0.152,2.089,0.152v2.322c0,0-0.76,0.055-2.089,0.152
					c-1.329,0.1-3.228,0.178-5.506,0.305c-2.278,0.124-4.937,0.205-7.785,0.278c-2.848,0.068-5.886,0.097-8.924,0.103
					c-6.075-0.002-12.151-0.156-16.708-0.388c-2.278-0.126-4.177-0.202-5.506-0.305c-1.329-0.096-2.089-0.151-2.089-0.151V40.844z"
					/>
				<g>
					<polygon fill="#D2D2D2" points="264.945,42 280.864,48.505 277.087,42 280.864,35.497 					"/>
				</g>
				<g>
					<polygon fill="#D2D2D2" points="336.146,42 320.227,48.505 324.004,42 320.227,35.497 					"/>
				</g>
			</g>
		</g>
		<g>
			<path fill="#D2D2D2" d="M296.855,26.8c-0.721,0-1.387-0.147-2-0.44c-0.613-0.293-1.141-0.687-1.58-1.18s-0.783-1.066-1.03-1.72
				c-0.247-0.653-0.37-1.34-0.37-2.06c0-0.733,0.117-1.43,0.35-2.09c0.234-0.66,0.561-1.236,0.98-1.73
				c0.42-0.493,0.92-0.883,1.5-1.17s1.217-0.43,1.91-0.43c0.84,0,1.59,0.22,2.25,0.66s1.184,0.974,1.57,1.6V12h1.76v12.44
				c0,0.414,0.187,0.627,0.561,0.64v1.52c-0.188,0.026-0.338,0.046-0.451,0.06c-0.113,0.013-0.223,0.02-0.33,0.02
				c-0.346,0-0.649-0.117-0.909-0.35c-0.261-0.233-0.39-0.503-0.39-0.81v-0.88c-0.414,0.68-0.964,1.21-1.65,1.59
				C298.338,26.609,297.615,26.8,296.855,26.8z M297.275,25.28c0.32,0,0.65-0.06,0.99-0.18s0.66-0.287,0.959-0.5
				c0.301-0.213,0.561-0.463,0.781-0.75c0.219-0.287,0.362-0.59,0.43-0.91v-3c-0.12-0.333-0.301-0.65-0.541-0.95
				c-0.239-0.3-0.51-0.56-0.809-0.78c-0.301-0.22-0.621-0.393-0.961-0.52c-0.34-0.126-0.677-0.19-1.01-0.19
				c-0.52,0-0.99,0.11-1.41,0.33s-0.779,0.514-1.08,0.88c-0.3,0.367-0.529,0.787-0.689,1.26s-0.24,0.957-0.24,1.45
				c0,0.52,0.094,1.017,0.279,1.49c0.188,0.473,0.44,0.883,0.761,1.23c0.319,0.347,0.696,0.624,1.13,0.83
				S296.769,25.28,297.275,25.28z"/>
			<path fill="#D2D2D2" d="M304.217,33.26c0-0.311,0.025-0.603,0.076-0.875c0.05-0.272,0.146-0.532,0.285-0.781
				c0.141-0.249,0.332-0.486,0.577-0.711c0.245-0.225,0.565-0.451,0.962-0.676c0.233-0.124,0.471-0.247,0.711-0.367
				c0.241-0.12,0.461-0.249,0.659-0.385c0.198-0.136,0.361-0.282,0.489-0.437c0.129-0.156,0.193-0.338,0.193-0.548
				c0-0.132-0.031-0.264-0.094-0.396c-0.062-0.132-0.151-0.249-0.268-0.35c-0.117-0.101-0.264-0.183-0.438-0.245
				c-0.176-0.062-0.375-0.093-0.602-0.093c-0.232,0-0.444,0.033-0.635,0.099c-0.19,0.066-0.359,0.148-0.508,0.245
				c-0.146,0.097-0.275,0.2-0.385,0.309c-0.108,0.109-0.197,0.206-0.268,0.292l-0.664-0.747c0.062-0.07,0.166-0.165,0.314-0.286
				c0.147-0.12,0.334-0.243,0.56-0.367c0.226-0.124,0.485-0.231,0.781-0.32s0.626-0.134,0.991-0.134c0.357,0,0.68,0.049,0.968,0.146
				c0.287,0.098,0.53,0.231,0.729,0.402c0.198,0.171,0.352,0.372,0.46,0.601c0.109,0.229,0.164,0.472,0.164,0.729
				c0,0.303-0.066,0.567-0.198,0.792c-0.132,0.226-0.294,0.424-0.483,0.595c-0.191,0.171-0.396,0.317-0.613,0.438
				c-0.217,0.121-0.412,0.224-0.582,0.309c-0.172,0.085-0.363,0.188-0.578,0.309c-0.213,0.121-0.418,0.257-0.611,0.408
				c-0.195,0.152-0.363,0.321-0.508,0.507c-0.144,0.187-0.234,0.389-0.273,0.606h3.976v0.933H304.217z"/>
		</g>
	</g>
</g>
<g id="layer4">
	<g>
		<g>
			<g>
				<path fill="#D2D2D2" d="M49.025,96.097l0.239,14.703l-0.461-0.461l20.979-0.399l20.979-0.328l41.958-0.465l41.957-0.262
					l41.957-0.084l41.958,0.082l41.957,0.257c13.985,0.15,27.971,0.248,41.957,0.467l20.979,0.327l20.979,0.403l-0.463,0.463
					l0.239-14.703c0.002-0.124,0.104-0.222,0.228-0.22c0.121,0.002,0.218,0.1,0.22,0.22l0.239,14.703
					c0.005,0.252-0.196,0.459-0.448,0.463h-0.015l-20.979,0.403l-20.979,0.327c-13.986,0.219-27.972,0.316-41.957,0.467
					l-41.957,0.257l-41.958,0.082l-41.957-0.084l-41.957-0.262l-41.958-0.465l-20.979-0.328l-20.979-0.399h-0.016
					c-0.25-0.005-0.45-0.211-0.445-0.461l0.239-14.703c0.002-0.123,0.103-0.221,0.226-0.219
					C48.927,95.88,49.023,95.978,49.025,96.097z"/>
				<g>
					<polygon fill="#D2D2D2" points="48.803,84.8 42.298,100.719 48.803,96.941 55.306,100.719 					"/>
				</g>
				<g>
					<polygon fill="#D2D2D2" points="384.46,84.8 390.965,100.719 384.46,96.941 377.957,100.719 					"/>
				</g>
			</g>
		</g>
		<g>
			<path fill="#D2D2D2" d="M212.914,132.4c-0.72,0-1.387-0.146-2-0.44c-0.614-0.293-1.14-0.687-1.58-1.18s-0.784-1.066-1.03-1.72
				s-0.37-1.34-0.37-2.061c0-0.732,0.116-1.43,0.35-2.09s0.56-1.236,0.98-1.73c0.42-0.492,0.92-0.883,1.5-1.17
				c0.58-0.286,1.217-0.43,1.91-0.43c0.84,0,1.59,0.221,2.25,0.66s1.183,0.974,1.57,1.6v-6.24h1.761v12.44
				c0,0.413,0.186,0.627,0.56,0.64v1.521c-0.187,0.026-0.337,0.046-0.45,0.06s-0.223,0.021-0.33,0.021
				c-0.347,0-0.65-0.116-0.91-0.351c-0.26-0.232-0.39-0.502-0.39-0.81v-0.88c-0.414,0.68-0.963,1.21-1.65,1.59
				C214.396,132.21,213.673,132.4,212.914,132.4z M213.333,130.881c0.32,0,0.65-0.061,0.99-0.181c0.34-0.12,0.66-0.286,0.96-0.5
				c0.3-0.213,0.56-0.463,0.78-0.75c0.22-0.286,0.363-0.59,0.43-0.91v-3c-0.12-0.333-0.3-0.649-0.54-0.95
				c-0.24-0.3-0.51-0.56-0.81-0.779c-0.3-0.221-0.62-0.394-0.96-0.521c-0.34-0.126-0.677-0.19-1.01-0.19
				c-0.52,0-0.99,0.11-1.41,0.33c-0.42,0.221-0.78,0.514-1.08,0.881c-0.3,0.367-0.53,0.787-0.69,1.26
				c-0.16,0.473-0.24,0.957-0.24,1.449c0,0.521,0.093,1.018,0.28,1.49c0.187,0.474,0.44,0.884,0.76,1.23
				c0.32,0.347,0.696,0.623,1.13,0.83C212.356,130.777,212.827,130.881,213.333,130.881z"/>
			<path fill="#D2D2D2" d="M223.947,136.108c0.498,0.086,0.893,0.315,1.184,0.688s0.438,0.836,0.438,1.387
				c0,0.357-0.066,0.685-0.199,0.98c-0.132,0.295-0.32,0.547-0.564,0.758c-0.245,0.209-0.539,0.371-0.881,0.483
				s-0.723,0.169-1.143,0.169c-0.591,0-1.109-0.111-1.557-0.332c-0.447-0.222-0.795-0.535-1.043-0.939l0.688-0.688
				c0.179,0.318,0.42,0.57,0.723,0.752c0.303,0.184,0.699,0.274,1.189,0.274c0.536,0,0.958-0.12,1.266-0.361
				c0.307-0.241,0.46-0.606,0.46-1.097c0-0.489-0.165-0.88-0.495-1.172c-0.331-0.291-0.811-0.437-1.44-0.437h-0.304v-0.863h0.327
				c0.56,0,0.989-0.134,1.288-0.401c0.299-0.27,0.449-0.609,0.449-1.021c0-0.411-0.145-0.719-0.432-0.92
				c-0.287-0.203-0.648-0.304-1.084-0.304c-0.428,0-0.803,0.091-1.125,0.274c-0.323,0.182-0.574,0.437-0.752,0.764l-0.631-0.653
				c0.102-0.194,0.24-0.371,0.414-0.53c0.176-0.16,0.377-0.298,0.607-0.414c0.229-0.117,0.478-0.206,0.746-0.269
				c0.268-0.062,0.549-0.093,0.846-0.093c0.365,0,0.701,0.051,1.008,0.151s0.571,0.241,0.793,0.419
				c0.222,0.18,0.393,0.396,0.514,0.654c0.119,0.256,0.18,0.539,0.18,0.851c0,0.233-0.033,0.454-0.099,0.665
				c-0.066,0.209-0.163,0.4-0.292,0.57c-0.128,0.172-0.283,0.313-0.466,0.426C224.377,135.994,224.172,136.07,223.947,136.108z"/>
		</g>
	</g>
	<g>
	</g>
	<g>
	</g>
	<g>
	</g>
	<g>
	</g>
	<g>
	</g>
	<g>
	</g>
	<g>
	</g>
</g>
</svg>
