<?xml version="1.0" encoding="utf-8" standalone="no"?>
<!DOCTYPE svg PUBLIC "-//W3C//DTD SVG 1.1//EN"
  "http://www.w3.org/Graphics/SVG/1.1/DTD/svg11.dtd">
<!-- Created with matplotlib (http://matplotlib.org/) -->
<svg height="288pt" version="1.1" viewBox="0 0 432 288" width="432pt" xmlns="http://www.w3.org/2000/svg" xmlns:xlink="http://www.w3.org/1999/xlink">
 <defs>
  <style type="text/css">
*{stroke-linecap:butt;stroke-linejoin:round;}
  </style>
 </defs>
 <g id="figure_1">
  <g id="patch_1">
   <path d="M 0 288 
L 432 288 
L 432 0 
L 0 0 
z
" style="fill:none;"/>
  </g>
  <g id="axes_1">
   <g id="patch_2">
    <path d="M 64.8 244.8 
L 419.04 244.8 
L 419.04 43.2 
L 64.8 43.2 
z
" style="fill:none;"/>
   </g>
   <g id="matplotlib.axis_1">
    <g id="xtick_1">
     <g id="line2d_1">
      <defs>
       <path d="M 0 0 
L 0 4 
" id="m383f55516c" style="stroke:#d2d2d2;"/>
      </defs>
      <g>
       <use style="fill:#d2d2d2;stroke:#d2d2d2;" x="64.8" xlink:href="#m383f55516c" y="244.8"/>
      </g>
     </g>
     <g id="text_1">
      <!-- 0 -->
      <defs>
       <path d="M 31.78125 66.40625 
Q 24.171875 66.40625 20.328125 58.90625 
Q 16.5 51.421875 16.5 36.375 
Q 16.5 21.390625 20.328125 13.890625 
Q 24.171875 6.390625 31.78125 6.390625 
Q 39.453125 6.390625 43.28125 13.890625 
Q 47.125 21.390625 47.125 36.375 
Q 47.125 51.421875 43.28125 58.90625 
Q 39.453125 66.40625 31.78125 66.40625 
M 31.78125 74.21875 
Q 44.046875 74.21875 50.515625 64.515625 
Q 56.984375 54.828125 56.984375 36.375 
Q 56.984375 17.96875 50.515625 8.265625 
Q 44.046875 -1.421875 31.78125 -1.421875 
Q 19.53125 -1.421875 13.0625 8.265625 
Q 6.59375 17.96875 6.59375 36.375 
Q 6.59375 54.828125 13.0625 64.515625 
Q 19.53125 74.21875 31.78125 74.21875 
" id="DejaVuSans-30"/>
      </defs>
      <g style="fill:#d2d2d2;" transform="translate(60.664375 262.677969)scale(0.13 -0.13)">
       <use xlink:href="#DejaVuSans-30"/>
      </g>
     </g>
    </g>
    <g id="xtick_2">
     <g id="line2d_2">
      <g>
       <use style="fill:#d2d2d2;stroke:#d2d2d2;" x="104.379888" xlink:href="#m383f55516c" y="244.8"/>
      </g>
     </g>
     <g id="text_2">
      <!-- 2 -->
      <defs>
       <path d="M 19.1875 8.296875 
L 53.609375 8.296875 
L 53.609375 0 
L 7.328125 0 
L 7.328125 8.296875 
Q 12.9375 14.109375 22.625 23.890625 
Q 32.328125 33.6875 34.8125 36.53125 
Q 39.546875 41.84375 41.421875 45.53125 
Q 43.3125 49.21875 43.3125 52.78125 
Q 43.3125 58.59375 39.234375 62.25 
Q 35.15625 65.921875 28.609375 65.921875 
Q 23.96875 65.921875 18.8125 64.3125 
Q 13.671875 62.703125 7.8125 59.421875 
L 7.8125 69.390625 
Q 13.765625 71.78125 18.9375 73 
Q 24.125 74.21875 28.421875 74.21875 
Q 39.75 74.21875 46.484375 68.546875 
Q 53.21875 62.890625 53.21875 53.421875 
Q 53.21875 48.921875 51.53125 44.890625 
Q 49.859375 40.875 45.40625 35.40625 
Q 44.1875 33.984375 37.640625 27.21875 
Q 31.109375 20.453125 19.1875 8.296875 
" id="DejaVuSans-32"/>
      </defs>
      <g style="fill:#d2d2d2;" transform="translate(100.244263 262.677969)scale(0.13 -0.13)">
       <use xlink:href="#DejaVuSans-32"/>
      </g>
     </g>
    </g>
    <g id="xtick_3">
     <g id="line2d_3">
      <g>
       <use style="fill:#d2d2d2;stroke:#d2d2d2;" x="143.959777" xlink:href="#m383f55516c" y="244.8"/>
      </g>
     </g>
     <g id="text_3">
      <!-- 4 -->
      <defs>
       <path d="M 37.796875 64.3125 
L 12.890625 25.390625 
L 37.796875 25.390625 
z
M 35.203125 72.90625 
L 47.609375 72.90625 
L 47.609375 25.390625 
L 58.015625 25.390625 
L 58.015625 17.1875 
L 47.609375 17.1875 
L 47.609375 0 
L 37.796875 0 
L 37.796875 17.1875 
L 4.890625 17.1875 
L 4.890625 26.703125 
z
" id="DejaVuSans-34"/>
      </defs>
      <g style="fill:#d2d2d2;" transform="translate(139.824152 262.677969)scale(0.13 -0.13)">
       <use xlink:href="#DejaVuSans-34"/>
      </g>
     </g>
    </g>
    <g id="xtick_4">
     <g id="line2d_4">
      <g>
       <use style="fill:#d2d2d2;stroke:#d2d2d2;" x="183.539665" xlink:href="#m383f55516c" y="244.8"/>
      </g>
     </g>
     <g id="text_4">
      <!-- 6 -->
      <defs>
       <path d="M 33.015625 40.375 
Q 26.375 40.375 22.484375 35.828125 
Q 18.609375 31.296875 18.609375 23.390625 
Q 18.609375 15.53125 22.484375 10.953125 
Q 26.375 6.390625 33.015625 6.390625 
Q 39.65625 6.390625 43.53125 10.953125 
Q 47.40625 15.53125 47.40625 23.390625 
Q 47.40625 31.296875 43.53125 35.828125 
Q 39.65625 40.375 33.015625 40.375 
M 52.59375 71.296875 
L 52.59375 62.3125 
Q 48.875 64.0625 45.09375 64.984375 
Q 41.3125 65.921875 37.59375 65.921875 
Q 27.828125 65.921875 22.671875 59.328125 
Q 17.53125 52.734375 16.796875 39.40625 
Q 19.671875 43.65625 24.015625 45.921875 
Q 28.375 48.1875 33.59375 48.1875 
Q 44.578125 48.1875 50.953125 41.515625 
Q 57.328125 34.859375 57.328125 23.390625 
Q 57.328125 12.15625 50.6875 5.359375 
Q 44.046875 -1.421875 33.015625 -1.421875 
Q 20.359375 -1.421875 13.671875 8.265625 
Q 6.984375 17.96875 6.984375 36.375 
Q 6.984375 53.65625 15.1875 63.9375 
Q 23.390625 74.21875 37.203125 74.21875 
Q 40.921875 74.21875 44.703125 73.484375 
Q 48.484375 72.75 52.59375 71.296875 
" id="DejaVuSans-36"/>
      </defs>
      <g style="fill:#d2d2d2;" transform="translate(179.40404 262.677969)scale(0.13 -0.13)">
       <use xlink:href="#DejaVuSans-36"/>
      </g>
     </g>
    </g>
    <g id="xtick_5">
     <g id="line2d_5">
      <g>
       <use style="fill:#d2d2d2;stroke:#d2d2d2;" x="223.119553" xlink:href="#m383f55516c" y="244.8"/>
      </g>
     </g>
     <g id="text_5">
      <!-- 8 -->
      <defs>
       <path d="M 31.78125 34.625 
Q 24.75 34.625 20.71875 30.859375 
Q 16.703125 27.09375 16.703125 20.515625 
Q 16.703125 13.921875 20.71875 10.15625 
Q 24.75 6.390625 31.78125 6.390625 
Q 38.8125 6.390625 42.859375 10.171875 
Q 46.921875 13.96875 46.921875 20.515625 
Q 46.921875 27.09375 42.890625 30.859375 
Q 38.875 34.625 31.78125 34.625 
M 21.921875 38.8125 
Q 15.578125 40.375 12.03125 44.71875 
Q 8.5 49.078125 8.5 55.328125 
Q 8.5 64.0625 14.71875 69.140625 
Q 20.953125 74.21875 31.78125 74.21875 
Q 42.671875 74.21875 48.875 69.140625 
Q 55.078125 64.0625 55.078125 55.328125 
Q 55.078125 49.078125 51.53125 44.71875 
Q 48 40.375 41.703125 38.8125 
Q 48.828125 37.15625 52.796875 32.3125 
Q 56.78125 27.484375 56.78125 20.515625 
Q 56.78125 9.90625 50.3125 4.234375 
Q 43.84375 -1.421875 31.78125 -1.421875 
Q 19.734375 -1.421875 13.25 4.234375 
Q 6.78125 9.90625 6.78125 20.515625 
Q 6.78125 27.484375 10.78125 32.3125 
Q 14.796875 37.15625 21.921875 38.8125 
M 18.3125 54.390625 
Q 18.3125 48.734375 21.84375 45.5625 
Q 25.390625 42.390625 31.78125 42.390625 
Q 38.140625 42.390625 41.71875 45.5625 
Q 45.3125 48.734375 45.3125 54.390625 
Q 45.3125 60.0625 41.71875 63.234375 
Q 38.140625 66.40625 31.78125 66.40625 
Q 25.390625 66.40625 21.84375 63.234375 
Q 18.3125 60.0625 18.3125 54.390625 
" id="DejaVuSans-38"/>
      </defs>
      <g style="fill:#d2d2d2;" transform="translate(218.983928 262.677969)scale(0.13 -0.13)">
       <use xlink:href="#DejaVuSans-38"/>
      </g>
     </g>
    </g>
    <g id="xtick_6">
     <g id="line2d_6">
      <g>
       <use style="fill:#d2d2d2;stroke:#d2d2d2;" x="262.699441" xlink:href="#m383f55516c" y="244.8"/>
      </g>
     </g>
     <g id="text_6">
      <!-- 10 -->
      <defs>
       <path d="M 12.40625 8.296875 
L 28.515625 8.296875 
L 28.515625 63.921875 
L 10.984375 60.40625 
L 10.984375 69.390625 
L 28.421875 72.90625 
L 38.28125 72.90625 
L 38.28125 8.296875 
L 54.390625 8.296875 
L 54.390625 0 
L 12.40625 0 
z
" id="DejaVuSans-31"/>
      </defs>
      <g style="fill:#d2d2d2;" transform="translate(254.428191 262.677969)scale(0.13 -0.13)">
       <use xlink:href="#DejaVuSans-31"/>
       <use x="63.623047" xlink:href="#DejaVuSans-30"/>
      </g>
     </g>
    </g>
    <g id="xtick_7">
     <g id="line2d_7">
      <g>
       <use style="fill:#d2d2d2;stroke:#d2d2d2;" x="302.27933" xlink:href="#m383f55516c" y="244.8"/>
      </g>
     </g>
     <g id="text_7">
      <!-- 12 -->
      <g style="fill:#d2d2d2;" transform="translate(294.00808 262.677969)scale(0.13 -0.13)">
       <use xlink:href="#DejaVuSans-31"/>
       <use x="63.623047" xlink:href="#DejaVuSans-32"/>
      </g>
     </g>
    </g>
    <g id="xtick_8">
     <g id="line2d_8">
      <g>
       <use style="fill:#d2d2d2;stroke:#d2d2d2;" x="341.859218" xlink:href="#m383f55516c" y="244.8"/>
      </g>
     </g>
     <g id="text_8">
      <!-- 14 -->
      <g style="fill:#d2d2d2;" transform="translate(333.587968 262.677969)scale(0.13 -0.13)">
       <use xlink:href="#DejaVuSans-31"/>
       <use x="63.623047" xlink:href="#DejaVuSans-34"/>
      </g>
     </g>
    </g>
    <g id="xtick_9">
     <g id="line2d_9">
      <g>
       <use style="fill:#d2d2d2;stroke:#d2d2d2;" x="381.439106" xlink:href="#m383f55516c" y="244.8"/>
      </g>
     </g>
     <g id="text_9">
      <!-- 16 -->
      <g style="fill:#d2d2d2;" transform="translate(373.167856 262.677969)scale(0.13 -0.13)">
       <use xlink:href="#DejaVuSans-31"/>
       <use x="63.623047" xlink:href="#DejaVuSans-36"/>
      </g>
     </g>
    </g>
    <g id="text_10">
     <!-- $F$ -->
     <defs>
      <path d="M 16.890625 72.90625 
L 58.6875 72.90625 
L 57.078125 64.59375 
L 25.09375 64.59375 
L 20.90625 43.109375 
L 49.8125 43.109375 
L 48.1875 34.8125 
L 19.28125 34.8125 
L 12.5 0 
L 2.6875 0 
z
" id="DejaVuSans-Oblique-46"/>
     </defs>
     <g style="fill:#d2d2d2;" transform="translate(237.28 281.539062)scale(0.16 -0.16)">
      <use transform="translate(0 0.09375)" xlink:href="#DejaVuSans-Oblique-46"/>
     </g>
    </g>
   </g>
   <g id="matplotlib.axis_2">
    <g id="ytick_1">
     <g id="line2d_10">
      <defs>
       <path d="M 0 0 
L -4 0 
" id="mfd7856915b" style="stroke:#d2d2d2;"/>
      </defs>
      <g>
       <use style="fill:#d2d2d2;stroke:#d2d2d2;" x="64.8" xlink:href="#mfd7856915b" y="244.8"/>
      </g>
     </g>
     <g id="text_11">
      <!-- 0.0 -->
      <defs>
       <path d="M 10.6875 12.40625 
L 21 12.40625 
L 21 0 
L 10.6875 0 
z
" id="DejaVuSans-2e"/>
      </defs>
      <g style="fill:#d2d2d2;" transform="translate(36.125937 249.738984)scale(0.13 -0.13)">
       <use xlink:href="#DejaVuSans-30"/>
       <use x="63.623047" xlink:href="#DejaVuSans-2e"/>
       <use x="95.410156" xlink:href="#DejaVuSans-30"/>
      </g>
     </g>
    </g>
    <g id="ytick_2">
     <g id="line2d_11">
      <g>
       <use style="fill:#d2d2d2;stroke:#d2d2d2;" x="64.8" xlink:href="#mfd7856915b" y="206.399998"/>
      </g>
     </g>
     <g id="text_12">
      <!-- 0.2 -->
      <g style="fill:#d2d2d2;" transform="translate(36.125937 211.338983)scale(0.13 -0.13)">
       <use xlink:href="#DejaVuSans-30"/>
       <use x="63.623047" xlink:href="#DejaVuSans-2e"/>
       <use x="95.410156" xlink:href="#DejaVuSans-32"/>
      </g>
     </g>
    </g>
    <g id="ytick_3">
     <g id="line2d_12">
      <g>
       <use style="fill:#d2d2d2;stroke:#d2d2d2;" x="64.8" xlink:href="#mfd7856915b" y="167.999997"/>
      </g>
     </g>
     <g id="text_13">
      <!-- 0.4 -->
      <g style="fill:#d2d2d2;" transform="translate(36.125937 172.938981)scale(0.13 -0.13)">
       <use xlink:href="#DejaVuSans-30"/>
       <use x="63.623047" xlink:href="#DejaVuSans-2e"/>
       <use x="95.410156" xlink:href="#DejaVuSans-34"/>
      </g>
     </g>
    </g>
    <g id="ytick_4">
     <g id="line2d_13">
      <g>
       <use style="fill:#d2d2d2;stroke:#d2d2d2;" x="64.8" xlink:href="#mfd7856915b" y="129.599995"/>
      </g>
     </g>
     <g id="text_14">
      <!-- 0.6 -->
      <g style="fill:#d2d2d2;" transform="translate(36.125937 134.53898)scale(0.13 -0.13)">
       <use xlink:href="#DejaVuSans-30"/>
       <use x="63.623047" xlink:href="#DejaVuSans-2e"/>
       <use x="95.410156" xlink:href="#DejaVuSans-36"/>
      </g>
     </g>
    </g>
    <g id="ytick_5">
     <g id="line2d_14">
      <g>
       <use style="fill:#d2d2d2;stroke:#d2d2d2;" x="64.8" xlink:href="#mfd7856915b" y="91.199994"/>
      </g>
     </g>
     <g id="text_15">
      <!-- 0.8 -->
      <g style="fill:#d2d2d2;" transform="translate(36.125937 96.138978)scale(0.13 -0.13)">
       <use xlink:href="#DejaVuSans-30"/>
       <use x="63.623047" xlink:href="#DejaVuSans-2e"/>
       <use x="95.410156" xlink:href="#DejaVuSans-38"/>
      </g>
     </g>
    </g>
    <g id="ytick_6">
     <g id="line2d_15">
      <g>
       <use style="fill:#d2d2d2;stroke:#d2d2d2;" x="64.8" xlink:href="#mfd7856915b" y="52.799992"/>
      </g>
     </g>
     <g id="text_16">
      <!-- 1.0 -->
      <g style="fill:#d2d2d2;" transform="translate(36.125937 57.738977)scale(0.13 -0.13)">
       <use xlink:href="#DejaVuSans-31"/>
       <use x="63.623047" xlink:href="#DejaVuSans-2e"/>
       <use x="95.410156" xlink:href="#DejaVuSans-30"/>
      </g>
     </g>
    </g>
    <g id="text_17">
     <!-- Relative frequency -->
     <defs>
      <path d="M 44.390625 34.1875 
Q 47.5625 33.109375 50.5625 29.59375 
Q 53.5625 26.078125 56.59375 19.921875 
L 66.609375 0 
L 56 0 
L 46.6875 18.703125 
Q 43.0625 26.03125 39.671875 28.421875 
Q 36.28125 30.8125 30.421875 30.8125 
L 19.671875 30.8125 
L 19.671875 0 
L 9.8125 0 
L 9.8125 72.90625 
L 32.078125 72.90625 
Q 44.578125 72.90625 50.734375 67.671875 
Q 56.890625 62.453125 56.890625 51.90625 
Q 56.890625 45.015625 53.6875 40.46875 
Q 50.484375 35.9375 44.390625 34.1875 
M 19.671875 64.796875 
L 19.671875 38.921875 
L 32.078125 38.921875 
Q 39.203125 38.921875 42.84375 42.21875 
Q 46.484375 45.515625 46.484375 51.90625 
Q 46.484375 58.296875 42.84375 61.546875 
Q 39.203125 64.796875 32.078125 64.796875 
z
" id="DejaVuSans-52"/>
      <path d="M 56.203125 29.59375 
L 56.203125 25.203125 
L 14.890625 25.203125 
Q 15.484375 15.921875 20.484375 11.0625 
Q 25.484375 6.203125 34.421875 6.203125 
Q 39.59375 6.203125 44.453125 7.46875 
Q 49.3125 8.734375 54.109375 11.28125 
L 54.109375 2.78125 
Q 49.265625 0.734375 44.1875 -0.34375 
Q 39.109375 -1.421875 33.890625 -1.421875 
Q 20.796875 -1.421875 13.15625 6.1875 
Q 5.515625 13.8125 5.515625 26.8125 
Q 5.515625 40.234375 12.765625 48.109375 
Q 20.015625 56 32.328125 56 
Q 43.359375 56 49.78125 48.890625 
Q 56.203125 41.796875 56.203125 29.59375 
M 47.21875 32.234375 
Q 47.125 39.59375 43.09375 43.984375 
Q 39.0625 48.390625 32.421875 48.390625 
Q 24.90625 48.390625 20.390625 44.140625 
Q 15.875 39.890625 15.1875 32.171875 
z
" id="DejaVuSans-65"/>
      <path d="M 9.421875 75.984375 
L 18.40625 75.984375 
L 18.40625 0 
L 9.421875 0 
z
" id="DejaVuSans-6c"/>
      <path d="M 34.28125 27.484375 
Q 23.390625 27.484375 19.1875 25 
Q 14.984375 22.515625 14.984375 16.5 
Q 14.984375 11.71875 18.140625 8.90625 
Q 21.296875 6.109375 26.703125 6.109375 
Q 34.1875 6.109375 38.703125 11.40625 
Q 43.21875 16.703125 43.21875 25.484375 
L 43.21875 27.484375 
z
M 52.203125 31.203125 
L 52.203125 0 
L 43.21875 0 
L 43.21875 8.296875 
Q 40.140625 3.328125 35.546875 0.953125 
Q 30.953125 -1.421875 24.3125 -1.421875 
Q 15.921875 -1.421875 10.953125 3.296875 
Q 6 8.015625 6 15.921875 
Q 6 25.140625 12.171875 29.828125 
Q 18.359375 34.515625 30.609375 34.515625 
L 43.21875 34.515625 
L 43.21875 35.40625 
Q 43.21875 41.609375 39.140625 45 
Q 35.0625 48.390625 27.6875 48.390625 
Q 23 48.390625 18.546875 47.265625 
Q 14.109375 46.140625 10.015625 43.890625 
L 10.015625 52.203125 
Q 14.9375 54.109375 19.578125 55.046875 
Q 24.21875 56 28.609375 56 
Q 40.484375 56 46.34375 49.84375 
Q 52.203125 43.703125 52.203125 31.203125 
" id="DejaVuSans-61"/>
      <path d="M 18.3125 70.21875 
L 18.3125 54.6875 
L 36.8125 54.6875 
L 36.8125 47.703125 
L 18.3125 47.703125 
L 18.3125 18.015625 
Q 18.3125 11.328125 20.140625 9.421875 
Q 21.96875 7.515625 27.59375 7.515625 
L 36.8125 7.515625 
L 36.8125 0 
L 27.59375 0 
Q 17.1875 0 13.234375 3.875 
Q 9.28125 7.765625 9.28125 18.015625 
L 9.28125 47.703125 
L 2.6875 47.703125 
L 2.6875 54.6875 
L 9.28125 54.6875 
L 9.28125 70.21875 
z
" id="DejaVuSans-74"/>
      <path d="M 9.421875 54.6875 
L 18.40625 54.6875 
L 18.40625 0 
L 9.421875 0 
z
M 9.421875 75.984375 
L 18.40625 75.984375 
L 18.40625 64.59375 
L 9.421875 64.59375 
z
" id="DejaVuSans-69"/>
      <path d="M 2.984375 54.6875 
L 12.5 54.6875 
L 29.59375 8.796875 
L 46.6875 54.6875 
L 56.203125 54.6875 
L 35.6875 0 
L 23.484375 0 
z
" id="DejaVuSans-76"/>
      <path id="DejaVuSans-20"/>
      <path d="M 37.109375 75.984375 
L 37.109375 68.5 
L 28.515625 68.5 
Q 23.6875 68.5 21.796875 66.546875 
Q 19.921875 64.59375 19.921875 59.515625 
L 19.921875 54.6875 
L 34.71875 54.6875 
L 34.71875 47.703125 
L 19.921875 47.703125 
L 19.921875 0 
L 10.890625 0 
L 10.890625 47.703125 
L 2.296875 47.703125 
L 2.296875 54.6875 
L 10.890625 54.6875 
L 10.890625 58.5 
Q 10.890625 67.625 15.140625 71.796875 
Q 19.390625 75.984375 28.609375 75.984375 
z
" id="DejaVuSans-66"/>
      <path d="M 41.109375 46.296875 
Q 39.59375 47.171875 37.8125 47.578125 
Q 36.03125 48 33.890625 48 
Q 26.265625 48 22.1875 43.046875 
Q 18.109375 38.09375 18.109375 28.8125 
L 18.109375 0 
L 9.078125 0 
L 9.078125 54.6875 
L 18.109375 54.6875 
L 18.109375 46.1875 
Q 20.953125 51.171875 25.484375 53.578125 
Q 30.03125 56 36.53125 56 
Q 37.453125 56 38.578125 55.875 
Q 39.703125 55.765625 41.0625 55.515625 
z
" id="DejaVuSans-72"/>
      <path d="M 14.796875 27.296875 
Q 14.796875 17.390625 18.875 11.75 
Q 22.953125 6.109375 30.078125 6.109375 
Q 37.203125 6.109375 41.296875 11.75 
Q 45.40625 17.390625 45.40625 27.296875 
Q 45.40625 37.203125 41.296875 42.84375 
Q 37.203125 48.484375 30.078125 48.484375 
Q 22.953125 48.484375 18.875 42.84375 
Q 14.796875 37.203125 14.796875 27.296875 
M 45.40625 8.203125 
Q 42.578125 3.328125 38.25 0.953125 
Q 33.9375 -1.421875 27.875 -1.421875 
Q 17.96875 -1.421875 11.734375 6.484375 
Q 5.515625 14.40625 5.515625 27.296875 
Q 5.515625 40.1875 11.734375 48.09375 
Q 17.96875 56 27.875 56 
Q 33.9375 56 38.25 53.625 
Q 42.578125 51.265625 45.40625 46.390625 
L 45.40625 54.6875 
L 54.390625 54.6875 
L 54.390625 -20.796875 
L 45.40625 -20.796875 
z
" id="DejaVuSans-71"/>
      <path d="M 8.5 21.578125 
L 8.5 54.6875 
L 17.484375 54.6875 
L 17.484375 21.921875 
Q 17.484375 14.15625 20.5 10.265625 
Q 23.53125 6.390625 29.59375 6.390625 
Q 36.859375 6.390625 41.078125 11.03125 
Q 45.3125 15.671875 45.3125 23.6875 
L 45.3125 54.6875 
L 54.296875 54.6875 
L 54.296875 0 
L 45.3125 0 
L 45.3125 8.40625 
Q 42.046875 3.421875 37.71875 1 
Q 33.40625 -1.421875 27.6875 -1.421875 
Q 18.265625 -1.421875 13.375 4.4375 
Q 8.5 10.296875 8.5 21.578125 
M 31.109375 56 
z
" id="DejaVuSans-75"/>
      <path d="M 54.890625 33.015625 
L 54.890625 0 
L 45.90625 0 
L 45.90625 32.71875 
Q 45.90625 40.484375 42.875 44.328125 
Q 39.84375 48.1875 33.796875 48.1875 
Q 26.515625 48.1875 22.3125 43.546875 
Q 18.109375 38.921875 18.109375 30.90625 
L 18.109375 0 
L 9.078125 0 
L 9.078125 54.6875 
L 18.109375 54.6875 
L 18.109375 46.1875 
Q 21.34375 51.125 25.703125 53.5625 
Q 30.078125 56 35.796875 56 
Q 45.21875 56 50.046875 50.171875 
Q 54.890625 44.34375 54.890625 33.015625 
" id="DejaVuSans-6e"/>
      <path d="M 48.78125 52.59375 
L 48.78125 44.1875 
Q 44.96875 46.296875 41.140625 47.34375 
Q 37.3125 48.390625 33.40625 48.390625 
Q 24.65625 48.390625 19.8125 42.84375 
Q 14.984375 37.3125 14.984375 27.296875 
Q 14.984375 17.28125 19.8125 11.734375 
Q 24.65625 6.203125 33.40625 6.203125 
Q 37.3125 6.203125 41.140625 7.25 
Q 44.96875 8.296875 48.78125 10.40625 
L 48.78125 2.09375 
Q 45.015625 0.34375 40.984375 -0.53125 
Q 36.96875 -1.421875 32.421875 -1.421875 
Q 20.0625 -1.421875 12.78125 6.34375 
Q 5.515625 14.109375 5.515625 27.296875 
Q 5.515625 40.671875 12.859375 48.328125 
Q 20.21875 56 33.015625 56 
Q 37.15625 56 41.109375 55.140625 
Q 45.0625 54.296875 48.78125 52.59375 
" id="DejaVuSans-63"/>
      <path d="M 32.171875 -5.078125 
Q 28.375 -14.84375 24.75 -17.8125 
Q 21.140625 -20.796875 15.09375 -20.796875 
L 7.90625 -20.796875 
L 7.90625 -13.28125 
L 13.1875 -13.28125 
Q 16.890625 -13.28125 18.9375 -11.515625 
Q 21 -9.765625 23.484375 -3.21875 
L 25.09375 0.875 
L 2.984375 54.6875 
L 12.5 54.6875 
L 29.59375 11.921875 
L 46.6875 54.6875 
L 56.203125 54.6875 
z
" id="DejaVuSans-79"/>
     </defs>
     <g style="fill:#d2d2d2;" transform="translate(28.798437 219.46)rotate(-90)scale(0.16 -0.16)">
      <use xlink:href="#DejaVuSans-52"/>
      <use x="69.419922" xlink:href="#DejaVuSans-65"/>
      <use x="130.943359" xlink:href="#DejaVuSans-6c"/>
      <use x="158.726562" xlink:href="#DejaVuSans-61"/>
      <use x="220.005859" xlink:href="#DejaVuSans-74"/>
      <use x="259.214844" xlink:href="#DejaVuSans-69"/>
      <use x="286.998047" xlink:href="#DejaVuSans-76"/>
      <use x="346.177734" xlink:href="#DejaVuSans-65"/>
      <use x="407.701172" xlink:href="#DejaVuSans-20"/>
      <use x="439.488281" xlink:href="#DejaVuSans-66"/>
      <use x="474.693359" xlink:href="#DejaVuSans-72"/>
      <use x="515.775391" xlink:href="#DejaVuSans-65"/>
      <use x="577.298828" xlink:href="#DejaVuSans-71"/>
      <use x="640.775391" xlink:href="#DejaVuSans-75"/>
      <use x="704.154297" xlink:href="#DejaVuSans-65"/>
      <use x="765.677734" xlink:href="#DejaVuSans-6e"/>
      <use x="829.056641" xlink:href="#DejaVuSans-63"/>
      <use x="884.037109" xlink:href="#DejaVuSans-79"/>
     </g>
    </g>
   </g>
   <g id="line2d_16">
    <path clip-path="url(#pf0d437225a)" d="M 64.8 52.799992 
L 66.454678 69.537824 
L 68.109355 84.701643 
L 69.764033 98.450109 
L 71.41871 110.924831 
L 73.073388 122.252315 
L 74.728066 132.545669 
L 76.382743 141.906111 
L 78.037421 150.424297 
L 79.692098 158.181487 
L 81.346776 165.250581 
L 83.001454 171.697033 
L 84.656131 177.579654 
L 86.310809 182.951333 
L 87.965486 187.859665 
L 89.620164 192.347517 
L 91.274842 196.453526 
L 92.929519 200.21254 
L 94.584197 203.656016 
L 96.238874 206.812369 
L 97.893552 209.70728 
L 99.54823 212.363984 
L 101.202907 214.80351 
L 104.512262 219.105441 
L 107.821618 222.745111 
L 111.130973 225.831276 
L 114.440328 228.453739 
L 117.749683 230.686844 
L 121.059039 232.592283 
L 124.368394 234.221373 
L 127.677749 235.616898 
L 130.987104 236.81461 
L 135.951137 238.304431 
L 140.91517 239.497018 
L 145.879203 240.455397 
L 152.497913 241.451816 
L 159.116623 242.204776 
L 167.390011 242.897864 
L 177.318077 243.475685 
L 188.90082 243.919805 
L 203.792919 244.268671 
L 225.303728 244.534052 
L 260.051957 244.705701 
L 332.857772 244.786031 
L 433 244.798446 
L 433 244.798446 
" style="fill:none;stroke:#5bc0de;stroke-linecap:square;stroke-width:2;"/>
   </g>
   <g id="patch_3">
    <path d="M 64.8 244.8 
L 64.8 43.2 
" style="fill:none;stroke:#d2d2d2;stroke-linecap:square;stroke-linejoin:miter;"/>
   </g>
   <g id="patch_4">
    <path d="M 64.8 244.8 
L 419.04 244.8 
" style="fill:none;stroke:#d2d2d2;stroke-linecap:square;stroke-linejoin:miter;"/>
   </g>
   <g id="legend_1">
    <g id="line2d_17">
     <path d="M 271.36 34.4595 
L 303.36 34.4595 
" style="fill:none;stroke:#5bc0de;stroke-linecap:square;stroke-width:2;"/>
    </g>
    <g id="line2d_18"/>
    <g id="text_18">
     <!-- df$_{between}$=2 -->
     <defs>
      <path d="M 45.40625 46.390625 
L 45.40625 75.984375 
L 54.390625 75.984375 
L 54.390625 0 
L 45.40625 0 
L 45.40625 8.203125 
Q 42.578125 3.328125 38.25 0.953125 
Q 33.9375 -1.421875 27.875 -1.421875 
Q 17.96875 -1.421875 11.734375 6.484375 
Q 5.515625 14.40625 5.515625 27.296875 
Q 5.515625 40.1875 11.734375 48.09375 
Q 17.96875 56 27.875 56 
Q 33.9375 56 38.25 53.625 
Q 42.578125 51.265625 45.40625 46.390625 
M 14.796875 27.296875 
Q 14.796875 17.390625 18.875 11.75 
Q 22.953125 6.109375 30.078125 6.109375 
Q 37.203125 6.109375 41.296875 11.75 
Q 45.40625 17.390625 45.40625 27.296875 
Q 45.40625 37.203125 41.296875 42.84375 
Q 37.203125 48.484375 30.078125 48.484375 
Q 22.953125 48.484375 18.875 42.84375 
Q 14.796875 37.203125 14.796875 27.296875 
" id="DejaVuSans-64"/>
      <path d="M 49.515625 33.40625 
Q 49.515625 40.484375 46.265625 44.484375 
Q 43.015625 48.484375 37.3125 48.484375 
Q 33.15625 48.484375 29.515625 46.453125 
Q 25.875 44.4375 23.1875 40.578125 
Q 20.359375 36.53125 18.71875 31.171875 
Q 17.09375 25.828125 17.09375 20.515625 
Q 17.09375 13.765625 20.28125 9.9375 
Q 23.484375 6.109375 29.109375 6.109375 
Q 33.34375 6.109375 36.953125 8.078125 
Q 40.578125 10.0625 43.3125 13.921875 
Q 46.09375 17.921875 47.796875 23.234375 
Q 49.515625 28.5625 49.515625 33.40625 
M 21.578125 46.390625 
Q 24.90625 50.875 29.90625 53.4375 
Q 34.90625 56 40.375 56 
Q 48.78125 56 53.734375 50.328125 
Q 58.6875 44.671875 58.6875 35.015625 
Q 58.6875 27.09375 55.78125 19.671875 
Q 52.875 12.25 47.515625 6.5 
Q 44 2.6875 39.40625 0.625 
Q 34.8125 -1.421875 29.78125 -1.421875 
Q 24.46875 -1.421875 20.5625 1.015625 
Q 16.65625 3.46875 14.203125 8.296875 
L 12.59375 0 
L 3.609375 0 
L 18.40625 75.984375 
L 27.390625 75.984375 
z
" id="DejaVuSans-Oblique-62"/>
      <path d="M 48.09375 32.234375 
Q 48.25 33.015625 48.3125 33.84375 
Q 48.390625 34.671875 48.390625 35.5 
Q 48.390625 41.453125 44.890625 44.921875 
Q 41.40625 48.390625 35.40625 48.390625 
Q 28.71875 48.390625 23.578125 44.15625 
Q 18.453125 39.9375 15.828125 32.171875 
z
M 55.90625 25.203125 
L 14.109375 25.203125 
Q 13.8125 23.34375 13.71875 22.265625 
Q 13.625 21.1875 13.625 20.40625 
Q 13.625 13.625 17.796875 9.90625 
Q 21.96875 6.203125 29.59375 6.203125 
Q 35.453125 6.203125 40.671875 7.515625 
Q 45.90625 8.84375 50.390625 11.375 
L 48.6875 2.484375 
Q 43.84375 0.53125 38.6875 -0.4375 
Q 33.546875 -1.421875 28.21875 -1.421875 
Q 16.84375 -1.421875 10.71875 4.015625 
Q 4.59375 9.46875 4.59375 19.484375 
Q 4.59375 28.03125 7.640625 35.375 
Q 10.6875 42.71875 16.609375 48.484375 
Q 20.40625 52.09375 25.65625 54.046875 
Q 30.90625 56 36.8125 56 
Q 46.09375 56 51.578125 50.4375 
Q 57.078125 44.875 57.078125 35.5 
Q 57.078125 33.25 56.78125 30.6875 
Q 56.5 28.125 55.90625 25.203125 
" id="DejaVuSans-Oblique-65"/>
      <path d="M 42.28125 54.6875 
L 40.921875 47.703125 
L 23 47.703125 
L 17.1875 18.015625 
Q 16.890625 16.359375 16.75 15.234375 
Q 16.609375 14.109375 16.609375 13.484375 
Q 16.609375 10.359375 18.484375 8.9375 
Q 20.359375 7.515625 24.515625 7.515625 
L 33.59375 7.515625 
L 32.078125 0 
L 23.484375 0 
Q 15.484375 0 11.546875 3.125 
Q 7.625 6.25 7.625 12.59375 
Q 7.625 13.71875 7.765625 15.0625 
Q 7.90625 16.40625 8.203125 18.015625 
L 14.015625 47.703125 
L 6.390625 47.703125 
L 7.8125 54.6875 
L 15.28125 54.6875 
L 18.3125 70.21875 
L 27.296875 70.21875 
L 24.3125 54.6875 
z
" id="DejaVuSans-Oblique-74"/>
      <path d="M 8.5 54.6875 
L 17.390625 54.6875 
L 19.671875 10.6875 
L 40.09375 54.6875 
L 50.484375 54.6875 
L 53.515625 10.6875 
L 72.90625 54.6875 
L 81.890625 54.6875 
L 56.890625 0 
L 46.390625 0 
L 43.703125 45.3125 
L 22.796875 0 
L 12.203125 0 
z
" id="DejaVuSans-Oblique-77"/>
      <path d="M 55.71875 33.015625 
L 49.3125 0 
L 40.28125 0 
L 46.6875 32.671875 
Q 47.125 34.96875 47.359375 36.71875 
Q 47.609375 38.484375 47.609375 39.5 
Q 47.609375 43.609375 45.015625 45.890625 
Q 42.4375 48.1875 37.796875 48.1875 
Q 30.5625 48.1875 25.34375 43.375 
Q 20.125 38.578125 18.5 30.328125 
L 12.5 0 
L 3.515625 0 
L 14.109375 54.6875 
L 23.09375 54.6875 
L 21.296875 46.09375 
Q 25.046875 50.828125 30.3125 53.40625 
Q 35.59375 56 41.40625 56 
Q 48.640625 56 52.609375 52.09375 
Q 56.59375 48.1875 56.59375 41.109375 
Q 56.59375 39.359375 56.375 37.359375 
Q 56.15625 35.359375 55.71875 33.015625 
" id="DejaVuSans-Oblique-6e"/>
      <path d="M 10.59375 45.40625 
L 73.1875 45.40625 
L 73.1875 37.203125 
L 10.59375 37.203125 
z
M 10.59375 25.484375 
L 73.1875 25.484375 
L 73.1875 17.1875 
L 10.59375 17.1875 
z
" id="DejaVuSans-3d"/>
     </defs>
     <g style="fill:#d2d2d2;" transform="translate(316.16 29.4375)scale(0.16 -0.16)">
      <use transform="translate(0 0.015625)" xlink:href="#DejaVuSans-64"/>
      <use transform="translate(63.476562 0.015625)" xlink:href="#DejaVuSans-66"/>
      <use transform="translate(99.638672 -16.390625)scale(0.7)" xlink:href="#DejaVuSans-Oblique-62"/>
      <use transform="translate(144.072266 -16.390625)scale(0.7)" xlink:href="#DejaVuSans-Oblique-65"/>
      <use transform="translate(187.138672 -16.390625)scale(0.7)" xlink:href="#DejaVuSans-Oblique-74"/>
      <use transform="translate(214.584961 -16.390625)scale(0.7)" xlink:href="#DejaVuSans-Oblique-77"/>
      <use transform="translate(271.835938 -16.390625)scale(0.7)" xlink:href="#DejaVuSans-Oblique-65"/>
      <use transform="translate(314.902344 -16.390625)scale(0.7)" xlink:href="#DejaVuSans-Oblique-65"/>
      <use transform="translate(357.96875 -16.390625)scale(0.7)" xlink:href="#DejaVuSans-Oblique-6e"/>
      <use transform="translate(405.068359 0.015625)" xlink:href="#DejaVuSans-3d"/>
      <use transform="translate(488.857422 0.015625)" xlink:href="#DejaVuSans-32"/>
     </g>
     <!-- df$_{within}$=21 -->
     <defs>
      <path d="M 18.3125 75.984375 
L 27.296875 75.984375 
L 25.09375 64.59375 
L 16.109375 64.59375 
z
M 14.203125 54.6875 
L 23.1875 54.6875 
L 12.5 0 
L 3.515625 0 
z
" id="DejaVuSans-Oblique-69"/>
      <path d="M 55.71875 33.015625 
L 49.3125 0 
L 40.28125 0 
L 46.6875 32.671875 
Q 47.125 34.96875 47.359375 36.71875 
Q 47.609375 38.484375 47.609375 39.5 
Q 47.609375 43.609375 45.015625 45.890625 
Q 42.4375 48.1875 37.796875 48.1875 
Q 30.5625 48.1875 25.265625 43.296875 
Q 19.96875 38.421875 18.40625 30.328125 
L 12.5 0 
L 3.515625 0 
L 18.3125 75.984375 
L 27.296875 75.984375 
L 21.484375 46.09375 
Q 24.90625 50.6875 30.21875 53.34375 
Q 35.546875 56 41.40625 56 
Q 48.640625 56 52.609375 52.09375 
Q 56.59375 48.1875 56.59375 41.109375 
Q 56.59375 39.359375 56.375 37.359375 
Q 56.15625 35.359375 55.71875 33.015625 
" id="DejaVuSans-Oblique-68"/>
     </defs>
     <g style="fill:#d2d2d2;" transform="translate(316.16 47.354)scale(0.16 -0.16)">
      <use transform="translate(0 0.015625)" xlink:href="#DejaVuSans-64"/>
      <use transform="translate(63.476562 0.015625)" xlink:href="#DejaVuSans-66"/>
      <use transform="translate(99.638672 -16.390625)scale(0.7)" xlink:href="#DejaVuSans-Oblique-77"/>
      <use transform="translate(156.889648 -16.390625)scale(0.7)" xlink:href="#DejaVuSans-Oblique-69"/>
      <use transform="translate(176.337891 -16.390625)scale(0.7)" xlink:href="#DejaVuSans-Oblique-74"/>
      <use transform="translate(203.78418 -16.390625)scale(0.7)" xlink:href="#DejaVuSans-Oblique-68"/>
      <use transform="translate(248.149414 -16.390625)scale(0.7)" xlink:href="#DejaVuSans-Oblique-69"/>
      <use transform="translate(267.597656 -16.390625)scale(0.7)" xlink:href="#DejaVuSans-Oblique-6e"/>
      <use transform="translate(314.697266 0.015625)" xlink:href="#DejaVuSans-3d"/>
      <use transform="translate(398.486328 0.015625)" xlink:href="#DejaVuSans-32"/>
      <use transform="translate(462.109375 0.015625)" xlink:href="#DejaVuSans-31"/>
     </g>
    </g>
   </g>
  </g>
  <g id="axes_2">
   <g id="PolyCollection_1">
    <defs>
     <path d="M 177.318077 -43.2 
L 177.318077 -44.524315 
L 178.972755 -44.448123 
L 180.627432 -44.376673 
L 182.28211 -44.309646 
L 183.936787 -44.246749 
L 185.591465 -44.187708 
L 187.246143 -44.132269 
L 188.90082 -44.080195 
L 190.555498 -44.031268 
L 192.210175 -43.985283 
L 193.864853 -43.94205 
L 195.519531 -43.901391 
L 197.174208 -43.863142 
L 198.828886 -43.82715 
L 200.483563 -43.793271 
L 202.138241 -43.761372 
L 203.792919 -43.731329 
L 205.447596 -43.703025 
L 207.102274 -43.676353 
L 208.756951 -43.65121 
L 210.411629 -43.627504 
L 212.066307 -43.605145 
L 213.720984 -43.584051 
L 215.375662 -43.564146 
L 217.03034 -43.545357 
L 218.685017 -43.527617 
L 220.339695 -43.510864 
L 221.994372 -43.495037 
L 223.64905 -43.480082 
L 225.303728 -43.465948 
L 226.958405 -43.452585 
L 228.613083 -43.439949 
L 230.26776 -43.427997 
L 231.922438 -43.41669 
L 233.577116 -43.405989 
L 235.231793 -43.395861 
L 236.886471 -43.386271 
L 238.541148 -43.377189 
L 240.195826 -43.368587 
L 241.850504 -43.360437 
L 243.505181 -43.352713 
L 245.159859 -43.345392 
L 246.814536 -43.338451 
L 248.469214 -43.331868 
L 250.123892 -43.325624 
L 251.778569 -43.3197 
L 253.433247 -43.314079 
L 255.087924 -43.308743 
L 256.742602 -43.303678 
L 258.39728 -43.298868 
L 260.051957 -43.294299 
L 261.706635 -43.289959 
L 263.361312 -43.285836 
L 265.01599 -43.281917 
L 266.670668 -43.278191 
L 268.325345 -43.274649 
L 269.980023 -43.271281 
L 271.6347 -43.268077 
L 273.289378 -43.26503 
L 274.944056 -43.26213 
L 276.598733 -43.25937 
L 278.253411 -43.256742 
L 279.908088 -43.254241 
L 281.562766 -43.251859 
L 283.217444 -43.24959 
L 284.872121 -43.247429 
L 286.526799 -43.24537 
L 288.181476 -43.243407 
L 289.836154 -43.241537 
L 291.490832 -43.239754 
L 293.145509 -43.238053 
L 294.800187 -43.236432 
L 296.454864 -43.234885 
L 298.109542 -43.233409 
L 299.76422 -43.232001 
L 301.418897 -43.230658 
L 303.073575 -43.229375 
L 304.728252 -43.228151 
L 306.38293 -43.226981 
L 308.037608 -43.225865 
L 309.692285 -43.224798 
L 311.346963 -43.223779 
L 313.00164 -43.222805 
L 314.656318 -43.221875 
L 316.310996 -43.220986 
L 317.965673 -43.220136 
L 319.620351 -43.219323 
L 321.275029 -43.218545 
L 322.929706 -43.217802 
L 324.584384 -43.217091 
L 326.239061 -43.21641 
L 327.893739 -43.215759 
L 329.548417 -43.215136 
L 331.203094 -43.21454 
L 332.857772 -43.213969 
L 334.512449 -43.213422 
L 336.167127 -43.212899 
L 337.821805 -43.212397 
L 339.476482 -43.211917 
L 341.13116 -43.211457 
L 342.785837 -43.211016 
L 344.440515 -43.210594 
L 346.095193 -43.210189 
L 347.74987 -43.209801 
L 349.404548 -43.209429 
L 351.059225 -43.209072 
L 352.713903 -43.208729 
L 354.368581 -43.208401 
L 356.023258 -43.208086 
L 357.677936 -43.207784 
L 359.332613 -43.207495 
L 360.987291 -43.207216 
L 362.641969 -43.206949 
L 364.296646 -43.206693 
L 365.951324 -43.206447 
L 367.606001 -43.206211 
L 369.260679 -43.205984 
L 370.915357 -43.205766 
L 372.570034 -43.205557 
L 374.224712 -43.205356 
L 375.879389 -43.205163 
L 377.534067 -43.204977 
L 379.188745 -43.204799 
L 380.843422 -43.204627 
L 382.4981 -43.204462 
L 384.152777 -43.204304 
L 385.807455 -43.204152 
L 387.462133 -43.204005 
L 389.11681 -43.203864 
L 390.771488 -43.203729 
L 392.426165 -43.203598 
L 394.080843 -43.203473 
L 395.735521 -43.203352 
L 397.390198 -43.203236 
L 399.044876 -43.203124 
L 400.699553 -43.203017 
L 402.354231 -43.202913 
L 404.008909 -43.202813 
L 405.663586 -43.202717 
L 407.318264 -43.202625 
L 408.972941 -43.202536 
L 410.627619 -43.20245 
L 412.282297 -43.202367 
L 413.936974 -43.202288 
L 415.591652 -43.202211 
L 417.246329 -43.202137 
L 418.901007 -43.202066 
L 420.555685 -43.201997 
L 422.210362 -43.201931 
L 423.86504 -43.201867 
L 425.519717 -43.201805 
L 427.174395 -43.201746 
L 428.829073 -43.201689 
L 430.48375 -43.201634 
L 432.138428 -43.20158 
L 433.793106 -43.201529 
L 435.447783 -43.201479 
L 437.102461 -43.201432 
L 438.757138 -43.201386 
L 440.411816 -43.201341 
L 442.066494 -43.201298 
L 443.721171 -43.201257 
L 445.375849 -43.201216 
L 447.030526 -43.201178 
L 448.685204 -43.20114 
L 450.339882 -43.201104 
L 451.994559 -43.20107 
L 453.649237 -43.201036 
L 455.303914 -43.201004 
L 456.958592 -43.200972 
L 458.61327 -43.200942 
L 460.267947 -43.200913 
L 461.922625 -43.200884 
L 463.577302 -43.200857 
L 465.23198 -43.200831 
L 466.886658 -43.200805 
L 468.541335 -43.20078 
L 470.196013 -43.200756 
L 471.85069 -43.200733 
L 473.505368 -43.200711 
L 475.160046 -43.200689 
L 476.814723 -43.200669 
L 478.469401 -43.200648 
L 480.124078 -43.200629 
L 481.778756 -43.20061 
L 483.433434 -43.200592 
L 485.088111 -43.200574 
L 486.742789 -43.200557 
L 488.397466 -43.20054 
L 490.052144 -43.200524 
L 491.706822 -43.200509 
L 493.361499 -43.200494 
L 495.016177 -43.200479 
L 496.670854 -43.200465 
L 498.325532 -43.200452 
L 499.98021 -43.200438 
L 501.634887 -43.200426 
L 503.289565 -43.200413 
L 504.944242 -43.200401 
L 506.59892 -43.20039 
L 508.253598 -43.200378 
L 509.908275 -43.200368 
L 511.562953 -43.200357 
L 513.21763 -43.200347 
L 514.872308 -43.200337 
L 516.526986 -43.200327 
L 518.181663 -43.200318 
L 519.836341 -43.200309 
L 521.491018 -43.2003 
L 523.145696 -43.200292 
L 524.800374 -43.200284 
L 526.455051 -43.200276 
L 528.109729 -43.200268 
L 529.764406 -43.20026 
L 531.419084 -43.200253 
L 533.073762 -43.200246 
L 534.728439 -43.200239 
L 536.383117 -43.200233 
L 538.037795 -43.200226 
L 539.692472 -43.20022 
L 541.34715 -43.200214 
L 543.001827 -43.200208 
L 544.656505 -43.200202 
L 546.311183 -43.200197 
L 547.96586 -43.200192 
L 549.620538 -43.200186 
L 551.275215 -43.200181 
L 552.929893 -43.200176 
L 554.584571 -43.200172 
L 556.239248 -43.200167 
L 557.893926 -43.200163 
L 559.548603 -43.200158 
L 559.548603 -43.2 
L 559.548603 -43.2 
L 557.893926 -43.2 
L 556.239248 -43.2 
L 554.584571 -43.2 
L 552.929893 -43.2 
L 551.275215 -43.2 
L 549.620538 -43.2 
L 547.96586 -43.2 
L 546.311183 -43.2 
L 544.656505 -43.2 
L 543.001827 -43.2 
L 541.34715 -43.2 
L 539.692472 -43.2 
L 538.037795 -43.2 
L 536.383117 -43.2 
L 534.728439 -43.2 
L 533.073762 -43.2 
L 531.419084 -43.2 
L 529.764406 -43.2 
L 528.109729 -43.2 
L 526.455051 -43.2 
L 524.800374 -43.2 
L 523.145696 -43.2 
L 521.491018 -43.2 
L 519.836341 -43.2 
L 518.181663 -43.2 
L 516.526986 -43.2 
L 514.872308 -43.2 
L 513.21763 -43.2 
L 511.562953 -43.2 
L 509.908275 -43.2 
L 508.253598 -43.2 
L 506.59892 -43.2 
L 504.944242 -43.2 
L 503.289565 -43.2 
L 501.634887 -43.2 
L 499.98021 -43.2 
L 498.325532 -43.2 
L 496.670854 -43.2 
L 495.016177 -43.2 
L 493.361499 -43.2 
L 491.706822 -43.2 
L 490.052144 -43.2 
L 488.397466 -43.2 
L 486.742789 -43.2 
L 485.088111 -43.2 
L 483.433434 -43.2 
L 481.778756 -43.2 
L 480.124078 -43.2 
L 478.469401 -43.2 
L 476.814723 -43.2 
L 475.160046 -43.2 
L 473.505368 -43.2 
L 471.85069 -43.2 
L 470.196013 -43.2 
L 468.541335 -43.2 
L 466.886658 -43.2 
L 465.23198 -43.2 
L 463.577302 -43.2 
L 461.922625 -43.2 
L 460.267947 -43.2 
L 458.61327 -43.2 
L 456.958592 -43.2 
L 455.303914 -43.2 
L 453.649237 -43.2 
L 451.994559 -43.2 
L 450.339882 -43.2 
L 448.685204 -43.2 
L 447.030526 -43.2 
L 445.375849 -43.2 
L 443.721171 -43.2 
L 442.066494 -43.2 
L 440.411816 -43.2 
L 438.757138 -43.2 
L 437.102461 -43.2 
L 435.447783 -43.2 
L 433.793106 -43.2 
L 432.138428 -43.2 
L 430.48375 -43.2 
L 428.829073 -43.2 
L 427.174395 -43.2 
L 425.519717 -43.2 
L 423.86504 -43.2 
L 422.210362 -43.2 
L 420.555685 -43.2 
L 418.901007 -43.2 
L 417.246329 -43.2 
L 415.591652 -43.2 
L 413.936974 -43.2 
L 412.282297 -43.2 
L 410.627619 -43.2 
L 408.972941 -43.2 
L 407.318264 -43.2 
L 405.663586 -43.2 
L 404.008909 -43.2 
L 402.354231 -43.2 
L 400.699553 -43.2 
L 399.044876 -43.2 
L 397.390198 -43.2 
L 395.735521 -43.2 
L 394.080843 -43.2 
L 392.426165 -43.2 
L 390.771488 -43.2 
L 389.11681 -43.2 
L 387.462133 -43.2 
L 385.807455 -43.2 
L 384.152777 -43.2 
L 382.4981 -43.2 
L 380.843422 -43.2 
L 379.188745 -43.2 
L 377.534067 -43.2 
L 375.879389 -43.2 
L 374.224712 -43.2 
L 372.570034 -43.2 
L 370.915357 -43.2 
L 369.260679 -43.2 
L 367.606001 -43.2 
L 365.951324 -43.2 
L 364.296646 -43.2 
L 362.641969 -43.2 
L 360.987291 -43.2 
L 359.332613 -43.2 
L 357.677936 -43.2 
L 356.023258 -43.2 
L 354.368581 -43.2 
L 352.713903 -43.2 
L 351.059225 -43.2 
L 349.404548 -43.2 
L 347.74987 -43.2 
L 346.095193 -43.2 
L 344.440515 -43.2 
L 342.785837 -43.2 
L 341.13116 -43.2 
L 339.476482 -43.2 
L 337.821805 -43.2 
L 336.167127 -43.2 
L 334.512449 -43.2 
L 332.857772 -43.2 
L 331.203094 -43.2 
L 329.548417 -43.2 
L 327.893739 -43.2 
L 326.239061 -43.2 
L 324.584384 -43.2 
L 322.929706 -43.2 
L 321.275029 -43.2 
L 319.620351 -43.2 
L 317.965673 -43.2 
L 316.310996 -43.2 
L 314.656318 -43.2 
L 313.00164 -43.2 
L 311.346963 -43.2 
L 309.692285 -43.2 
L 308.037608 -43.2 
L 306.38293 -43.2 
L 304.728252 -43.2 
L 303.073575 -43.2 
L 301.418897 -43.2 
L 299.76422 -43.2 
L 298.109542 -43.2 
L 296.454864 -43.2 
L 294.800187 -43.2 
L 293.145509 -43.2 
L 291.490832 -43.2 
L 289.836154 -43.2 
L 288.181476 -43.2 
L 286.526799 -43.2 
L 284.872121 -43.2 
L 283.217444 -43.2 
L 281.562766 -43.2 
L 279.908088 -43.2 
L 278.253411 -43.2 
L 276.598733 -43.2 
L 274.944056 -43.2 
L 273.289378 -43.2 
L 271.6347 -43.2 
L 269.980023 -43.2 
L 268.325345 -43.2 
L 266.670668 -43.2 
L 265.01599 -43.2 
L 263.361312 -43.2 
L 261.706635 -43.2 
L 260.051957 -43.2 
L 258.39728 -43.2 
L 256.742602 -43.2 
L 255.087924 -43.2 
L 253.433247 -43.2 
L 251.778569 -43.2 
L 250.123892 -43.2 
L 248.469214 -43.2 
L 246.814536 -43.2 
L 245.159859 -43.2 
L 243.505181 -43.2 
L 241.850504 -43.2 
L 240.195826 -43.2 
L 238.541148 -43.2 
L 236.886471 -43.2 
L 235.231793 -43.2 
L 233.577116 -43.2 
L 231.922438 -43.2 
L 230.26776 -43.2 
L 228.613083 -43.2 
L 226.958405 -43.2 
L 225.303728 -43.2 
L 223.64905 -43.2 
L 221.994372 -43.2 
L 220.339695 -43.2 
L 218.685017 -43.2 
L 217.03034 -43.2 
L 215.375662 -43.2 
L 213.720984 -43.2 
L 212.066307 -43.2 
L 210.411629 -43.2 
L 208.756951 -43.2 
L 207.102274 -43.2 
L 205.447596 -43.2 
L 203.792919 -43.2 
L 202.138241 -43.2 
L 200.483563 -43.2 
L 198.828886 -43.2 
L 197.174208 -43.2 
L 195.519531 -43.2 
L 193.864853 -43.2 
L 192.210175 -43.2 
L 190.555498 -43.2 
L 188.90082 -43.2 
L 187.246143 -43.2 
L 185.591465 -43.2 
L 183.936787 -43.2 
L 182.28211 -43.2 
L 180.627432 -43.2 
L 178.972755 -43.2 
L 177.318077 -43.2 
z
" id="m0e5af49957" style="stroke:#d9534f;stroke-opacity:0.6;"/>
    </defs>
    <g clip-path="url(#pf0d437225a)">
     <use style="fill:#d9534f;fill-opacity:0.6;stroke:#d9534f;stroke-opacity:0.6;" x="0" xlink:href="#m0e5af49957" y="288"/>
    </g>
   </g>
   <g id="line2d_19">
    <path clip-path="url(#pf0d437225a)" d="M 176.151555 244.8 
L 176.151555 43.2 
" style="fill:none;stroke:#f0ad4e;stroke-linecap:square;stroke-width:1.5;"/>
   </g>
   <g id="text_19">
    <!-- Observed $F$ -->
    <defs>
     <path d="M 39.40625 66.21875 
Q 28.65625 66.21875 22.328125 58.203125 
Q 16.015625 50.203125 16.015625 36.375 
Q 16.015625 22.609375 22.328125 14.59375 
Q 28.65625 6.59375 39.40625 6.59375 
Q 50.140625 6.59375 56.421875 14.59375 
Q 62.703125 22.609375 62.703125 36.375 
Q 62.703125 50.203125 56.421875 58.203125 
Q 50.140625 66.21875 39.40625 66.21875 
M 39.40625 74.21875 
Q 54.734375 74.21875 63.90625 63.9375 
Q 73.09375 53.65625 73.09375 36.375 
Q 73.09375 19.140625 63.90625 8.859375 
Q 54.734375 -1.421875 39.40625 -1.421875 
Q 24.03125 -1.421875 14.8125 8.828125 
Q 5.609375 19.09375 5.609375 36.375 
Q 5.609375 53.65625 14.8125 63.9375 
Q 24.03125 74.21875 39.40625 74.21875 
" id="DejaVuSans-4f"/>
     <path d="M 48.6875 27.296875 
Q 48.6875 37.203125 44.609375 42.84375 
Q 40.53125 48.484375 33.40625 48.484375 
Q 26.265625 48.484375 22.1875 42.84375 
Q 18.109375 37.203125 18.109375 27.296875 
Q 18.109375 17.390625 22.1875 11.75 
Q 26.265625 6.109375 33.40625 6.109375 
Q 40.53125 6.109375 44.609375 11.75 
Q 48.6875 17.390625 48.6875 27.296875 
M 18.109375 46.390625 
Q 20.953125 51.265625 25.265625 53.625 
Q 29.59375 56 35.59375 56 
Q 45.5625 56 51.78125 48.09375 
Q 58.015625 40.1875 58.015625 27.296875 
Q 58.015625 14.40625 51.78125 6.484375 
Q 45.5625 -1.421875 35.59375 -1.421875 
Q 29.59375 -1.421875 25.265625 0.953125 
Q 20.953125 3.328125 18.109375 8.203125 
L 18.109375 0 
L 9.078125 0 
L 9.078125 75.984375 
L 18.109375 75.984375 
z
" id="DejaVuSans-62"/>
     <path d="M 44.28125 53.078125 
L 44.28125 44.578125 
Q 40.484375 46.53125 36.375 47.5 
Q 32.28125 48.484375 27.875 48.484375 
Q 21.1875 48.484375 17.84375 46.4375 
Q 14.5 44.390625 14.5 40.28125 
Q 14.5 37.15625 16.890625 35.375 
Q 19.28125 33.59375 26.515625 31.984375 
L 29.59375 31.296875 
Q 39.15625 29.25 43.1875 25.515625 
Q 47.21875 21.78125 47.21875 15.09375 
Q 47.21875 7.46875 41.1875 3.015625 
Q 35.15625 -1.421875 24.609375 -1.421875 
Q 20.21875 -1.421875 15.453125 -0.5625 
Q 10.6875 0.296875 5.421875 2 
L 5.421875 11.28125 
Q 10.40625 8.6875 15.234375 7.390625 
Q 20.0625 6.109375 24.8125 6.109375 
Q 31.15625 6.109375 34.5625 8.28125 
Q 37.984375 10.453125 37.984375 14.40625 
Q 37.984375 18.0625 35.515625 20.015625 
Q 33.0625 21.96875 24.703125 23.78125 
L 21.578125 24.515625 
Q 13.234375 26.265625 9.515625 29.90625 
Q 5.8125 33.546875 5.8125 39.890625 
Q 5.8125 47.609375 11.28125 51.796875 
Q 16.75 56 26.8125 56 
Q 31.78125 56 36.171875 55.265625 
Q 40.578125 54.546875 44.28125 53.078125 
" id="DejaVuSans-73"/>
    </defs>
    <g style="fill:#f0ad4e;" transform="translate(136.181555 20.5795)scale(0.14 -0.14)">
     <use transform="translate(0 0.015625)" xlink:href="#DejaVuSans-4f"/>
     <use transform="translate(78.710938 0.015625)" xlink:href="#DejaVuSans-62"/>
     <use transform="translate(142.1875 0.015625)" xlink:href="#DejaVuSans-73"/>
     <use transform="translate(194.287109 0.015625)" xlink:href="#DejaVuSans-65"/>
     <use transform="translate(255.810547 0.015625)" xlink:href="#DejaVuSans-72"/>
     <use transform="translate(296.923828 0.015625)" xlink:href="#DejaVuSans-76"/>
     <use transform="translate(356.103516 0.015625)" xlink:href="#DejaVuSans-65"/>
     <use transform="translate(417.626953 0.015625)" xlink:href="#DejaVuSans-64"/>
     <use transform="translate(481.103516 0.015625)" xlink:href="#DejaVuSans-20"/>
     <use transform="translate(512.890625 0.015625)" xlink:href="#DejaVuSans-Oblique-46"/>
    </g>
    <!-- 5.63 -->
    <defs>
     <path d="M 10.796875 72.90625 
L 49.515625 72.90625 
L 49.515625 64.59375 
L 19.828125 64.59375 
L 19.828125 46.734375 
Q 21.96875 47.46875 24.109375 47.828125 
Q 26.265625 48.1875 28.421875 48.1875 
Q 40.625 48.1875 47.75 41.5 
Q 54.890625 34.8125 54.890625 23.390625 
Q 54.890625 11.625 47.5625 5.09375 
Q 40.234375 -1.421875 26.90625 -1.421875 
Q 22.3125 -1.421875 17.546875 -0.640625 
Q 12.796875 0.140625 7.71875 1.703125 
L 7.71875 11.625 
Q 12.109375 9.234375 16.796875 8.0625 
Q 21.484375 6.890625 26.703125 6.890625 
Q 35.15625 6.890625 40.078125 11.328125 
Q 45.015625 15.765625 45.015625 23.390625 
Q 45.015625 31 40.078125 35.4375 
Q 35.15625 39.890625 26.703125 39.890625 
Q 22.75 39.890625 18.8125 39.015625 
Q 14.890625 38.140625 10.796875 36.28125 
z
" id="DejaVuSans-35"/>
     <path d="M 40.578125 39.3125 
Q 47.65625 37.796875 51.625 33 
Q 55.609375 28.21875 55.609375 21.1875 
Q 55.609375 10.40625 48.1875 4.484375 
Q 40.765625 -1.421875 27.09375 -1.421875 
Q 22.515625 -1.421875 17.65625 -0.515625 
Q 12.796875 0.390625 7.625 2.203125 
L 7.625 11.71875 
Q 11.71875 9.328125 16.59375 8.109375 
Q 21.484375 6.890625 26.8125 6.890625 
Q 36.078125 6.890625 40.9375 10.546875 
Q 45.796875 14.203125 45.796875 21.1875 
Q 45.796875 27.640625 41.28125 31.265625 
Q 36.765625 34.90625 28.71875 34.90625 
L 20.21875 34.90625 
L 20.21875 43.015625 
L 29.109375 43.015625 
Q 36.375 43.015625 40.234375 45.921875 
Q 44.09375 48.828125 44.09375 54.296875 
Q 44.09375 59.90625 40.109375 62.90625 
Q 36.140625 65.921875 28.71875 65.921875 
Q 24.65625 65.921875 20.015625 65.03125 
Q 15.375 64.15625 9.8125 62.3125 
L 9.8125 71.09375 
Q 15.4375 72.65625 20.34375 73.4375 
Q 25.25 74.21875 29.59375 74.21875 
Q 40.828125 74.21875 47.359375 69.109375 
Q 53.90625 64.015625 53.90625 55.328125 
Q 53.90625 49.265625 50.4375 45.09375 
Q 46.96875 40.921875 40.578125 39.3125 
" id="DejaVuSans-33"/>
    </defs>
    <g style="fill:#f0ad4e;" transform="translate(160.565617 36.256438)scale(0.14 -0.14)">
     <use xlink:href="#DejaVuSans-35"/>
     <use x="63.623047" xlink:href="#DejaVuSans-2e"/>
     <use x="95.410156" xlink:href="#DejaVuSans-36"/>
     <use x="159.033203" xlink:href="#DejaVuSans-33"/>
    </g>
   </g>
   <g id="text_20">
    <!-- Area under the curve -->
    <defs>
     <path d="M 34.1875 63.1875 
L 20.796875 26.90625 
L 47.609375 26.90625 
z
M 28.609375 72.90625 
L 39.796875 72.90625 
L 67.578125 0 
L 57.328125 0 
L 50.6875 18.703125 
L 17.828125 18.703125 
L 11.1875 0 
L 0.78125 0 
z
" id="DejaVuSans-41"/>
     <path d="M 54.890625 33.015625 
L 54.890625 0 
L 45.90625 0 
L 45.90625 32.71875 
Q 45.90625 40.484375 42.875 44.328125 
Q 39.84375 48.1875 33.796875 48.1875 
Q 26.515625 48.1875 22.3125 43.546875 
Q 18.109375 38.921875 18.109375 30.90625 
L 18.109375 0 
L 9.078125 0 
L 9.078125 75.984375 
L 18.109375 75.984375 
L 18.109375 46.1875 
Q 21.34375 51.125 25.703125 53.5625 
Q 30.078125 56 35.796875 56 
Q 45.21875 56 50.046875 50.171875 
Q 54.890625 44.34375 54.890625 33.015625 
" id="DejaVuSans-68"/>
    </defs>
    <g style="fill:#d2d2d2;" transform="translate(224.208 108.163062)scale(0.14 -0.14)">
     <use xlink:href="#DejaVuSans-41"/>
     <use x="68.408203" xlink:href="#DejaVuSans-72"/>
     <use x="109.490234" xlink:href="#DejaVuSans-65"/>
     <use x="171.013672" xlink:href="#DejaVuSans-61"/>
     <use x="232.292969" xlink:href="#DejaVuSans-20"/>
     <use x="264.080078" xlink:href="#DejaVuSans-75"/>
     <use x="327.458984" xlink:href="#DejaVuSans-6e"/>
     <use x="390.837891" xlink:href="#DejaVuSans-64"/>
     <use x="454.314453" xlink:href="#DejaVuSans-65"/>
     <use x="515.837891" xlink:href="#DejaVuSans-72"/>
     <use x="556.951172" xlink:href="#DejaVuSans-20"/>
     <use x="588.738281" xlink:href="#DejaVuSans-74"/>
     <use x="627.947266" xlink:href="#DejaVuSans-68"/>
     <use x="691.326172" xlink:href="#DejaVuSans-65"/>
     <use x="752.849609" xlink:href="#DejaVuSans-20"/>
     <use x="784.636719" xlink:href="#DejaVuSans-63"/>
     <use x="839.617188" xlink:href="#DejaVuSans-75"/>
     <use x="902.996094" xlink:href="#DejaVuSans-72"/>
     <use x="944.109375" xlink:href="#DejaVuSans-76"/>
     <use x="1003.289062" xlink:href="#DejaVuSans-65"/>
    </g>
    <!-- for $F\geq$5.63 -->
    <defs>
     <path d="M 30.609375 48.390625 
Q 23.390625 48.390625 19.1875 42.75 
Q 14.984375 37.109375 14.984375 27.296875 
Q 14.984375 17.484375 19.15625 11.84375 
Q 23.34375 6.203125 30.609375 6.203125 
Q 37.796875 6.203125 41.984375 11.859375 
Q 46.1875 17.53125 46.1875 27.296875 
Q 46.1875 37.015625 41.984375 42.703125 
Q 37.796875 48.390625 30.609375 48.390625 
M 30.609375 56 
Q 42.328125 56 49.015625 48.375 
Q 55.71875 40.765625 55.71875 27.296875 
Q 55.71875 13.875 49.015625 6.21875 
Q 42.328125 -1.421875 30.609375 -1.421875 
Q 18.84375 -1.421875 12.171875 6.21875 
Q 5.515625 13.875 5.515625 27.296875 
Q 5.515625 40.765625 12.171875 48.375 
Q 18.84375 56 30.609375 56 
" id="DejaVuSans-6f"/>
     <path d="M 10.59375 49.609375 
L 10.59375 58.203125 
L 73.1875 40.28125 
L 73.1875 31.984375 
L 10.59375 14.015625 
L 10.59375 22.703125 
L 57.515625 36.078125 
z
M 73.1875 8.296875 
L 73.1875 0 
L 10.59375 0 
L 10.59375 8.296875 
z
" id="DejaVuSans-2265"/>
    </defs>
    <g style="fill:#d2d2d2;" transform="translate(224.208 123.84)scale(0.14 -0.14)">
     <use transform="translate(0 0.015625)" xlink:href="#DejaVuSans-66"/>
     <use transform="translate(35.205078 0.015625)" xlink:href="#DejaVuSans-6f"/>
     <use transform="translate(96.386719 0.015625)" xlink:href="#DejaVuSans-72"/>
     <use transform="translate(137.5 0.015625)" xlink:href="#DejaVuSans-20"/>
     <use transform="translate(169.287109 0.015625)" xlink:href="#DejaVuSans-Oblique-46"/>
     <use transform="translate(246.289062 0.015625)" xlink:href="#DejaVuSans-2265"/>
     <use transform="translate(349.560547 0.015625)" xlink:href="#DejaVuSans-35"/>
     <use transform="translate(413.183594 0.015625)" xlink:href="#DejaVuSans-2e"/>
     <use transform="translate(444.970703 0.015625)" xlink:href="#DejaVuSans-36"/>
     <use transform="translate(508.59375 0.015625)" xlink:href="#DejaVuSans-33"/>
    </g>
   </g>
   <g id="text_21">
    <!-- p-value = 0.011 -->
    <defs>
     <path d="M 18.109375 8.203125 
L 18.109375 -20.796875 
L 9.078125 -20.796875 
L 9.078125 54.6875 
L 18.109375 54.6875 
L 18.109375 46.390625 
Q 20.953125 51.265625 25.265625 53.625 
Q 29.59375 56 35.59375 56 
Q 45.5625 56 51.78125 48.09375 
Q 58.015625 40.1875 58.015625 27.296875 
Q 58.015625 14.40625 51.78125 6.484375 
Q 45.5625 -1.421875 35.59375 -1.421875 
Q 29.59375 -1.421875 25.265625 0.953125 
Q 20.953125 3.328125 18.109375 8.203125 
M 48.6875 27.296875 
Q 48.6875 37.203125 44.609375 42.84375 
Q 40.53125 48.484375 33.40625 48.484375 
Q 26.265625 48.484375 22.1875 42.84375 
Q 18.109375 37.203125 18.109375 27.296875 
Q 18.109375 17.390625 22.1875 11.75 
Q 26.265625 6.109375 33.40625 6.109375 
Q 40.53125 6.109375 44.609375 11.75 
Q 48.6875 17.390625 48.6875 27.296875 
" id="DejaVuSans-70"/>
     <path d="M 4.890625 31.390625 
L 31.203125 31.390625 
L 31.203125 23.390625 
L 4.890625 23.390625 
z
" id="DejaVuSans-2d"/>
    </defs>
    <g style="fill:#d9534f;" transform="translate(224.208 164.16)scale(0.14 -0.14)">
     <use xlink:href="#DejaVuSans-70"/>
     <use x="63.476562" xlink:href="#DejaVuSans-2d"/>
     <use x="99.529297" xlink:href="#DejaVuSans-76"/>
     <use x="158.708984" xlink:href="#DejaVuSans-61"/>
     <use x="219.988281" xlink:href="#DejaVuSans-6c"/>
     <use x="247.771484" xlink:href="#DejaVuSans-75"/>
     <use x="311.150391" xlink:href="#DejaVuSans-65"/>
     <use x="372.673828" xlink:href="#DejaVuSans-20"/>
     <use x="404.460938" xlink:href="#DejaVuSans-3d"/>
     <use x="488.25" xlink:href="#DejaVuSans-20"/>
     <use x="520.037109" xlink:href="#DejaVuSans-30"/>
     <use x="583.660156" xlink:href="#DejaVuSans-2e"/>
     <use x="615.447266" xlink:href="#DejaVuSans-30"/>
     <use x="679.070312" xlink:href="#DejaVuSans-31"/>
     <use x="742.693359" xlink:href="#DejaVuSans-31"/>
    </g>
   </g>
  </g>
 </g>
 <defs>
  <clipPath id="pf0d437225a">
   <rect height="201.6" width="354.24" x="64.8" y="43.2"/>
  </clipPath>
 </defs>
</svg>
