<?xml version="1.0" encoding="utf-8"?>
<!-- Generator: Adobe Illustrator 16.0.4, SVG Export Plug-In . SVG Version: 6.00 Build 0)  -->
<!DOCTYPE svg PUBLIC "-//W3C//DTD SVG 1.1//EN" "http://www.w3.org/Graphics/SVG/1.1/DTD/svg11.dtd">
<svg version="1.1" id="all" xmlns="http://www.w3.org/2000/svg" xmlns:xlink="http://www.w3.org/1999/xlink" x="0px" y="0px"
	 width="259.35px" height="171.545px" viewBox="0 0 259.35 171.545" enable-background="new 0 0 259.35 171.545"
	 xml:space="preserve">
<rect x="245.932" y="66.541" fill="#636C72" width="0.499" height="46.414"/>
<rect x="177.319" y="89.498" transform="matrix(-0.0014 -1 1 -0.0014 111.0526 290.396)" fill="#636C72" width="46.414" height="0.5"/>
<rect x="131.631" y="89.499" transform="matrix(-0.0014 -1 1 -0.0014 65.3092 244.7123)" fill="#636C72" width="46.414" height="0.498"/>
<rect x="85.946" y="89.498" transform="matrix(-0.0014 -1 1 -0.0014 19.5578 199.0256)" fill="#636C72" width="46.414" height="0.499"/>
<rect x="63.181" y="66.494" fill="#636C72" width="0.5" height="46.414"/>
<rect x="19.575" y="120.228" fill="#636C72" width="228.56" height="0.5"/>
<rect x="19.574" y="137.704" fill="#636C72" width="228.56" height="0.5"/>
<rect x="114.021" y="89.498" transform="matrix(-0.0014 -1 1 -0.0014 47.674 227.102)" fill="#636C72" width="46.414" height="0.5"/>
<rect x="205.362" y="89.498" transform="matrix(-0.0014 -1 1 -0.0014 139.134 318.4389)" fill="#636C72" width="46.414" height="0.5"/>
<rect x="159.739" y="89.498" transform="matrix(-0.0014 -1 1 -0.0014 93.449 272.8164)" fill="#636C72" width="46.414" height="0.499"/>
<rect x="68.379" y="89.498" transform="matrix(-0.0014 -1 1 -0.0014 1.9664 181.4587)" fill="#636C72" width="46.414" height="0.499"/>
<rect x="45.535" y="66.541" fill="#636C72" width="0.5" height="46.414"/>
<g>
	<path fill="#D2D2D2" d="M8.152,70.979v4.042H7.63v-4.042H8.152z"/>
	<path fill="#D2D2D2" d="M9.682,71.285v0.834h0.756v0.401H9.682v1.565c0,0.36,0.102,0.563,0.396,0.563
		c0.138,0,0.24-0.018,0.306-0.036l0.024,0.396c-0.102,0.042-0.264,0.071-0.468,0.071c-0.246,0-0.443-0.077-0.569-0.222
		c-0.15-0.155-0.204-0.413-0.204-0.756v-1.583h-0.45v-0.401h0.45v-0.695L9.682,71.285z"/>
	<path fill="#D2D2D2" d="M11.326,73.666c0.012,0.714,0.468,1.008,0.996,1.008c0.378,0,0.605-0.066,0.804-0.15l0.09,0.378
		c-0.186,0.084-0.504,0.18-0.965,0.18c-0.894,0-1.427-0.587-1.427-1.463c0-0.875,0.516-1.565,1.361-1.565
		c0.947,0,1.199,0.834,1.199,1.367c0,0.108-0.012,0.192-0.018,0.246H11.326z M12.874,73.288c0.006-0.336-0.138-0.857-0.731-0.857
		c-0.534,0-0.768,0.492-0.81,0.857H12.874z"/>
	<path fill="#D2D2D2" d="M14.039,72.904c0-0.3-0.006-0.545-0.024-0.785h0.462l0.024,0.468h0.018
		c0.162-0.276,0.432-0.534,0.912-0.534c0.396,0,0.695,0.24,0.821,0.582h0.012c0.09-0.162,0.204-0.288,0.324-0.378
		c0.174-0.132,0.366-0.204,0.642-0.204c0.384,0,0.954,0.252,0.954,1.26v1.709h-0.516v-1.644c0-0.558-0.204-0.893-0.63-0.893
		c-0.3,0-0.534,0.222-0.624,0.479c-0.024,0.071-0.042,0.168-0.042,0.264v1.793h-0.516v-1.739c0-0.462-0.204-0.797-0.606-0.797
		c-0.33,0-0.569,0.264-0.653,0.527c-0.03,0.078-0.042,0.168-0.042,0.258v1.751h-0.516V72.904z"/>
	<path fill="#D2D2D2" d="M21.292,71.615H21.28l-0.678,0.366L20.5,71.579l0.852-0.455h0.45v3.897h-0.51V71.615z"/>
</g>
<g>
	<path fill="#D2D2D2" d="M8.152,78.972v4.042H7.63v-4.042H8.152z"/>
	<path fill="#D2D2D2" d="M9.682,79.277v0.834h0.756v0.401H9.682v1.565c0,0.36,0.102,0.563,0.396,0.563
		c0.138,0,0.24-0.018,0.306-0.036l0.024,0.396c-0.102,0.042-0.264,0.071-0.468,0.071c-0.246,0-0.443-0.077-0.569-0.222
		c-0.15-0.155-0.204-0.413-0.204-0.756v-1.583h-0.45v-0.401h0.45v-0.695L9.682,79.277z"/>
	<path fill="#D2D2D2" d="M11.326,81.658c0.012,0.714,0.468,1.008,0.996,1.008c0.378,0,0.605-0.066,0.804-0.15l0.09,0.378
		c-0.186,0.084-0.504,0.18-0.965,0.18c-0.894,0-1.427-0.587-1.427-1.463c0-0.875,0.516-1.565,1.361-1.565
		c0.947,0,1.199,0.834,1.199,1.367c0,0.108-0.012,0.192-0.018,0.246H11.326z M12.874,81.28c0.006-0.336-0.138-0.857-0.731-0.857
		c-0.534,0-0.768,0.492-0.81,0.857H12.874z"/>
	<path fill="#D2D2D2" d="M14.039,80.896c0-0.3-0.006-0.545-0.024-0.785h0.462l0.024,0.468h0.018
		c0.162-0.276,0.432-0.534,0.912-0.534c0.396,0,0.695,0.24,0.821,0.582h0.012c0.09-0.162,0.204-0.288,0.324-0.378
		c0.174-0.132,0.366-0.204,0.642-0.204c0.384,0,0.954,0.252,0.954,1.26v1.709h-0.516V81.37c0-0.558-0.204-0.893-0.63-0.893
		c-0.3,0-0.534,0.222-0.624,0.479c-0.024,0.071-0.042,0.168-0.042,0.264v1.793h-0.516v-1.739c0-0.462-0.204-0.797-0.606-0.797
		c-0.33,0-0.569,0.264-0.653,0.527c-0.03,0.078-0.042,0.168-0.042,0.258v1.751h-0.516V80.896z"/>
	<path fill="#D2D2D2" d="M20.146,83.014v-0.324l0.414-0.401c0.996-0.947,1.445-1.451,1.451-2.039c0-0.396-0.192-0.762-0.773-0.762
		c-0.354,0-0.648,0.181-0.828,0.33l-0.168-0.372c0.27-0.228,0.654-0.396,1.104-0.396c0.839,0,1.193,0.576,1.193,1.134
		c0,0.72-0.522,1.301-1.343,2.093l-0.312,0.287v0.013h1.751v0.438H20.146z"/>
</g>
<g>
	<path fill="#D2D2D2" d="M8.152,88.11v4.042H7.63V88.11H8.152z"/>
	<path fill="#D2D2D2" d="M9.682,88.416v0.834h0.756v0.401H9.682v1.565c0,0.36,0.102,0.563,0.396,0.563
		c0.138,0,0.24-0.018,0.306-0.036l0.024,0.396c-0.102,0.042-0.264,0.071-0.468,0.071c-0.246,0-0.443-0.077-0.569-0.222
		c-0.15-0.155-0.204-0.413-0.204-0.756v-1.583h-0.45V89.25h0.45v-0.695L9.682,88.416z"/>
	<path fill="#D2D2D2" d="M11.326,90.797c0.012,0.714,0.468,1.008,0.996,1.008c0.378,0,0.605-0.066,0.804-0.15l0.09,0.378
		c-0.186,0.084-0.504,0.18-0.965,0.18c-0.894,0-1.427-0.587-1.427-1.463c0-0.875,0.516-1.565,1.361-1.565
		c0.947,0,1.199,0.834,1.199,1.367c0,0.108-0.012,0.192-0.018,0.246H11.326z M12.874,90.419c0.006-0.336-0.138-0.857-0.731-0.857
		c-0.534,0-0.768,0.492-0.81,0.857H12.874z"/>
	<path fill="#D2D2D2" d="M14.039,90.035c0-0.3-0.006-0.545-0.024-0.785h0.462l0.024,0.468h0.018
		c0.162-0.276,0.432-0.534,0.912-0.534c0.396,0,0.695,0.24,0.821,0.582h0.012c0.09-0.162,0.204-0.288,0.324-0.378
		c0.174-0.132,0.366-0.204,0.642-0.204c0.384,0,0.954,0.252,0.954,1.26v1.709h-0.516v-1.644c0-0.558-0.204-0.893-0.63-0.893
		c-0.3,0-0.534,0.222-0.624,0.479c-0.024,0.071-0.042,0.168-0.042,0.264v1.793h-0.516v-1.739c0-0.462-0.204-0.797-0.606-0.797
		c-0.33,0-0.569,0.264-0.653,0.527c-0.03,0.078-0.042,0.168-0.042,0.258v1.751h-0.516V90.035z"/>
	<path fill="#D2D2D2" d="M20.272,91.547c0.15,0.096,0.498,0.246,0.863,0.246c0.678,0,0.888-0.433,0.881-0.756
		c-0.006-0.546-0.498-0.779-1.007-0.779h-0.294v-0.396h0.294c0.384,0,0.87-0.197,0.87-0.659c0-0.312-0.198-0.588-0.684-0.588
		c-0.312,0-0.612,0.138-0.78,0.258l-0.138-0.384c0.204-0.149,0.6-0.3,1.02-0.3c0.768,0,1.115,0.456,1.115,0.93
		c0,0.401-0.24,0.743-0.72,0.917v0.013c0.48,0.096,0.87,0.455,0.87,1.001c0,0.624-0.486,1.17-1.421,1.17
		c-0.438,0-0.821-0.139-1.013-0.265L20.272,91.547z"/>
</g>
<g>
	<path fill="#D2D2D2" d="M8.152,96.102v4.042H7.63v-4.042H8.152z"/>
	<path fill="#D2D2D2" d="M9.682,96.407v0.834h0.756v0.401H9.682v1.565c0,0.359,0.102,0.563,0.396,0.563
		c0.138,0,0.24-0.018,0.306-0.036l0.024,0.396c-0.102,0.042-0.264,0.071-0.468,0.071c-0.246,0-0.443-0.077-0.569-0.222
		c-0.15-0.155-0.204-0.414-0.204-0.756v-1.583h-0.45v-0.401h0.45v-0.695L9.682,96.407z"/>
	<path fill="#D2D2D2" d="M11.326,98.788c0.012,0.714,0.468,1.008,0.996,1.008c0.378,0,0.605-0.066,0.804-0.15l0.09,0.378
		c-0.186,0.084-0.504,0.18-0.965,0.18c-0.894,0-1.427-0.587-1.427-1.463c0-0.875,0.516-1.565,1.361-1.565
		c0.947,0,1.199,0.834,1.199,1.367c0,0.108-0.012,0.192-0.018,0.246H11.326z M12.874,98.41c0.006-0.336-0.138-0.857-0.731-0.857
		c-0.534,0-0.768,0.492-0.81,0.857H12.874z"/>
	<path fill="#D2D2D2" d="M14.039,98.026c0-0.3-0.006-0.545-0.024-0.785h0.462l0.024,0.468h0.018
		c0.162-0.276,0.432-0.534,0.912-0.534c0.396,0,0.695,0.24,0.821,0.582h0.012c0.09-0.162,0.204-0.288,0.324-0.378
		c0.174-0.132,0.366-0.204,0.642-0.204c0.384,0,0.954,0.252,0.954,1.26v1.709h-0.516V98.5c0-0.558-0.204-0.893-0.63-0.893
		c-0.3,0-0.534,0.222-0.624,0.479c-0.024,0.071-0.042,0.168-0.042,0.264v1.793h-0.516v-1.739c0-0.462-0.204-0.797-0.606-0.797
		c-0.33,0-0.569,0.264-0.653,0.527c-0.03,0.078-0.042,0.168-0.042,0.258v1.751h-0.516V98.026z"/>
	<path fill="#D2D2D2" d="M21.777,100.144v-1.062h-1.811v-0.348l1.739-2.488h0.57v2.422h0.545v0.414h-0.545v1.062H21.777z
		 M21.777,98.668v-1.301c0-0.204,0.006-0.408,0.018-0.611h-0.018c-0.12,0.228-0.216,0.396-0.324,0.575L20.5,98.656v0.012H21.777z"/>
</g>
<g>
	<path fill="#D2D2D2" d="M8.152,105.096v4.042H7.63v-4.042H8.152z"/>
	<path fill="#D2D2D2" d="M9.682,105.401v0.834h0.756v0.401H9.682v1.565c0,0.359,0.102,0.563,0.396,0.563
		c0.138,0,0.24-0.018,0.306-0.036l0.024,0.396c-0.102,0.042-0.264,0.071-0.468,0.071c-0.246,0-0.443-0.077-0.569-0.222
		c-0.15-0.155-0.204-0.414-0.204-0.756v-1.583h-0.45v-0.401h0.45v-0.695L9.682,105.401z"/>
	<path fill="#D2D2D2" d="M11.326,107.782c0.012,0.714,0.468,1.008,0.996,1.008c0.378,0,0.605-0.066,0.804-0.15l0.09,0.378
		c-0.186,0.084-0.504,0.18-0.965,0.18c-0.894,0-1.427-0.587-1.427-1.463c0-0.875,0.516-1.565,1.361-1.565
		c0.947,0,1.199,0.834,1.199,1.367c0,0.108-0.012,0.192-0.018,0.246H11.326z M12.874,107.404c0.006-0.336-0.138-0.857-0.731-0.857
		c-0.534,0-0.768,0.492-0.81,0.857H12.874z"/>
	<path fill="#D2D2D2" d="M14.039,107.021c0-0.3-0.006-0.545-0.024-0.785h0.462l0.024,0.468h0.018
		c0.162-0.276,0.432-0.534,0.912-0.534c0.396,0,0.695,0.24,0.821,0.582h0.012c0.09-0.162,0.204-0.288,0.324-0.378
		c0.174-0.132,0.366-0.204,0.642-0.204c0.384,0,0.954,0.252,0.954,1.26v1.709h-0.516v-1.644c0-0.558-0.204-0.893-0.63-0.893
		c-0.3,0-0.534,0.222-0.624,0.479c-0.024,0.071-0.042,0.168-0.042,0.264v1.793h-0.516v-1.739c0-0.462-0.204-0.797-0.606-0.797
		c-0.33,0-0.569,0.264-0.653,0.527c-0.03,0.078-0.042,0.168-0.042,0.258v1.751h-0.516V107.021z"/>
	<path fill="#D2D2D2" d="M22.473,105.684h-1.487l-0.15,1.001c0.09-0.012,0.174-0.023,0.318-0.023c0.3,0,0.6,0.065,0.839,0.21
		c0.306,0.174,0.558,0.51,0.558,1.001c0,0.762-0.605,1.332-1.451,1.332c-0.426,0-0.785-0.12-0.971-0.24l0.132-0.402
		c0.162,0.097,0.48,0.217,0.833,0.217c0.498,0,0.923-0.324,0.923-0.846c-0.006-0.504-0.342-0.864-1.121-0.864
		c-0.222,0-0.396,0.024-0.54,0.042l0.251-1.87h1.865V105.684z"/>
</g>
<g>
	<path fill="#D2D2D2" d="M32.902,159.294v4.042H32.38v-4.042H32.902z"/>
	<path fill="#D2D2D2" d="M34.432,159.6v0.834h0.756v0.401h-0.756v1.565c0,0.36,0.102,0.563,0.396,0.563
		c0.138,0,0.24-0.018,0.306-0.036l0.024,0.396c-0.102,0.042-0.264,0.071-0.468,0.071c-0.246,0-0.443-0.077-0.569-0.222
		c-0.15-0.155-0.204-0.413-0.204-0.756v-1.583h-0.45v-0.401h0.45v-0.695L34.432,159.6z"/>
	<path fill="#D2D2D2" d="M36.076,161.98c0.012,0.714,0.468,1.008,0.996,1.008c0.378,0,0.605-0.066,0.804-0.15l0.09,0.378
		c-0.186,0.084-0.504,0.18-0.965,0.18c-0.894,0-1.427-0.587-1.427-1.463c0-0.875,0.516-1.565,1.361-1.565
		c0.947,0,1.199,0.834,1.199,1.367c0,0.108-0.012,0.192-0.018,0.246H36.076z M37.624,161.603c0.006-0.336-0.138-0.857-0.731-0.857
		c-0.534,0-0.768,0.492-0.81,0.857H37.624z"/>
	<path fill="#D2D2D2" d="M38.789,161.219c0-0.3-0.006-0.545-0.024-0.785h0.462l0.024,0.468h0.018
		c0.162-0.276,0.432-0.534,0.912-0.534c0.396,0,0.695,0.24,0.821,0.582h0.012c0.09-0.162,0.204-0.288,0.324-0.378
		c0.174-0.132,0.366-0.204,0.642-0.204c0.384,0,0.954,0.252,0.954,1.26v1.709h-0.516v-1.644c0-0.558-0.204-0.893-0.63-0.893
		c-0.3,0-0.534,0.222-0.624,0.479c-0.024,0.071-0.042,0.168-0.042,0.264v1.793h-0.516v-1.739c0-0.462-0.204-0.797-0.606-0.797
		c-0.33,0-0.569,0.264-0.653,0.527c-0.03,0.078-0.042,0.168-0.042,0.258v1.751h-0.516V161.219z"/>
	<path fill="#D2D2D2" d="M46.042,159.93H46.03l-0.678,0.366l-0.102-0.402l0.852-0.455h0.45v3.897h-0.51V159.93z"/>
</g>
<rect x="24.256" y="148.285" fill="#5BC0DE" width="6.576" height="7.116"/>
<rect x="30.832" y="121.493" fill="#D9534F" width="6.579" height="33.908"/>
<rect x="37.411" y="134.26" fill="#5CB85C" width="6.577" height="21.142"/>
<rect x="43.989" y="120.444" fill="#CB79A7" width="6.578" height="34.957"/>
<rect x="50.566" y="147.238" fill="#F0AD4E" width="6.578" height="8.163"/>
<g>
	<path fill="#D2D2D2" d="M80.247,159.3v4.042h-0.522V159.3H80.247z"/>
	<path fill="#D2D2D2" d="M81.777,159.605v0.834h0.756v0.401h-0.756v1.565c0,0.36,0.102,0.563,0.396,0.563
		c0.138,0,0.24-0.018,0.306-0.036l0.024,0.396c-0.102,0.042-0.264,0.071-0.468,0.071c-0.246,0-0.443-0.077-0.569-0.222
		c-0.15-0.155-0.204-0.413-0.204-0.756v-1.583h-0.45v-0.401h0.45v-0.695L81.777,159.605z"/>
	<path fill="#D2D2D2" d="M83.421,161.986c0.012,0.714,0.468,1.008,0.996,1.008c0.378,0,0.605-0.066,0.804-0.15l0.09,0.378
		c-0.186,0.084-0.504,0.18-0.965,0.18c-0.894,0-1.427-0.587-1.427-1.463c0-0.875,0.516-1.565,1.361-1.565
		c0.947,0,1.199,0.834,1.199,1.367c0,0.108-0.012,0.192-0.018,0.246H83.421z M84.968,161.608c0.006-0.336-0.138-0.857-0.731-0.857
		c-0.534,0-0.768,0.492-0.81,0.857H84.968z"/>
	<path fill="#D2D2D2" d="M86.133,161.225c0-0.3-0.006-0.545-0.024-0.785h0.462l0.024,0.468h0.018
		c0.162-0.276,0.432-0.534,0.912-0.534c0.396,0,0.695,0.24,0.821,0.582h0.012c0.09-0.162,0.204-0.288,0.324-0.378
		c0.174-0.132,0.366-0.204,0.642-0.204c0.384,0,0.954,0.252,0.954,1.26v1.709h-0.516v-1.644c0-0.558-0.204-0.893-0.63-0.893
		c-0.3,0-0.534,0.222-0.624,0.479c-0.024,0.071-0.042,0.168-0.042,0.264v1.793H87.95v-1.739c0-0.462-0.204-0.797-0.606-0.797
		c-0.33,0-0.569,0.264-0.653,0.527c-0.03,0.078-0.042,0.168-0.042,0.258v1.751h-0.516V161.225z"/>
	<path fill="#D2D2D2" d="M92.241,163.342v-0.324l0.414-0.401c0.996-0.947,1.445-1.451,1.451-2.039c0-0.396-0.192-0.762-0.773-0.762
		c-0.354,0-0.648,0.181-0.828,0.33l-0.168-0.372c0.27-0.228,0.654-0.396,1.104-0.396c0.839,0,1.193,0.576,1.193,1.134
		c0,0.72-0.522,1.301-1.343,2.093l-0.312,0.287v0.013h1.751v0.438H92.241z"/>
</g>
<rect x="70.924" y="145.983" fill="#5BC0DE" width="6.578" height="9.419"/>
<rect x="77.501" y="123.796" fill="#D9534F" width="6.577" height="31.606"/>
<rect x="84.079" y="135.519" fill="#5CB85C" width="6.578" height="19.884"/>
<rect x="90.658" y="141.379" fill="#CB79A7" width="6.577" height="14.023"/>
<rect x="97.235" y="141.379" fill="#F0AD4E" width="6.577" height="14.023"/>
<g>
	<path fill="#D2D2D2" d="M126.312,159.3v4.042h-0.522V159.3H126.312z"/>
	<path fill="#D2D2D2" d="M127.841,159.605v0.834h0.756v0.401h-0.756v1.565c0,0.36,0.103,0.563,0.396,0.563
		c0.138,0,0.24-0.018,0.306-0.036l0.024,0.396c-0.102,0.042-0.264,0.071-0.469,0.071c-0.245,0-0.443-0.077-0.568-0.222
		c-0.15-0.155-0.205-0.413-0.205-0.756v-1.583h-0.449v-0.401h0.449v-0.695L127.841,159.605z"/>
	<path fill="#D2D2D2" d="M129.485,161.986c0.012,0.714,0.468,1.008,0.996,1.008c0.377,0,0.605-0.066,0.803-0.15l0.09,0.378
		c-0.186,0.084-0.504,0.18-0.965,0.18c-0.894,0-1.428-0.587-1.428-1.463c0-0.875,0.516-1.565,1.361-1.565
		c0.947,0,1.199,0.834,1.199,1.367c0,0.108-0.012,0.192-0.018,0.246H129.485z M131.032,161.608c0.006-0.336-0.138-0.857-0.73-0.857
		c-0.534,0-0.768,0.492-0.811,0.857H131.032z"/>
	<path fill="#D2D2D2" d="M132.198,161.225c0-0.3-0.007-0.545-0.025-0.785h0.463l0.023,0.468h0.018
		c0.162-0.276,0.432-0.534,0.912-0.534c0.396,0,0.695,0.24,0.821,0.582h0.013c0.09-0.162,0.203-0.288,0.323-0.378
		c0.174-0.132,0.366-0.204,0.642-0.204c0.384,0,0.953,0.252,0.953,1.26v1.709h-0.516v-1.644c0-0.558-0.203-0.893-0.629-0.893
		c-0.301,0-0.534,0.222-0.624,0.479c-0.024,0.071-0.042,0.168-0.042,0.264v1.793h-0.516v-1.739c0-0.462-0.204-0.797-0.605-0.797
		c-0.33,0-0.57,0.264-0.654,0.527c-0.029,0.078-0.041,0.168-0.041,0.258v1.751h-0.516V161.225z"/>
	<path fill="#D2D2D2" d="M138.432,162.736c0.149,0.096,0.497,0.246,0.863,0.246c0.678,0,0.888-0.433,0.882-0.756
		c-0.006-0.546-0.498-0.779-1.008-0.779h-0.294v-0.396h0.294c0.384,0,0.869-0.197,0.869-0.659c0-0.312-0.197-0.588-0.684-0.588
		c-0.312,0-0.611,0.138-0.779,0.258l-0.138-0.384c0.204-0.149,0.6-0.3,1.02-0.3c0.768,0,1.115,0.456,1.115,0.93
		c0,0.401-0.239,0.743-0.72,0.917v0.013c0.48,0.096,0.869,0.455,0.869,1.001c0,0.624-0.485,1.17-1.421,1.17
		c-0.438,0-0.821-0.139-1.013-0.265L138.432,162.736z"/>
</g>
<rect x="117.458" y="141.379" fill="#5BC0DE" width="6.577" height="14.023"/>
<rect x="124.035" y="130.913" fill="#D9534F" width="6.578" height="24.489"/>
<rect x="130.612" y="136.563" fill="#5CB85C" width="6.853" height="18.839"/>
<rect x="137.465" y="151.844" fill="#CB79A7" width="6.575" height="3.559"/>
<rect x="144.04" y="133.217" fill="#F0AD4E" width="6.578" height="22.186"/>
<g>
	<path fill="#D2D2D2" d="M173.52,159.3v4.042h-0.522V159.3H173.52z"/>
	<path fill="#D2D2D2" d="M175.05,159.605v0.834h0.756v0.401h-0.756v1.565c0,0.36,0.102,0.563,0.396,0.563
		c0.138,0,0.239-0.018,0.306-0.036l0.023,0.396c-0.102,0.042-0.264,0.071-0.467,0.071c-0.246,0-0.443-0.077-0.57-0.222
		c-0.149-0.155-0.203-0.413-0.203-0.756v-1.583h-0.45v-0.401h0.45v-0.695L175.05,159.605z"/>
	<path fill="#D2D2D2" d="M176.693,161.986c0.013,0.714,0.468,1.008,0.995,1.008c0.379,0,0.605-0.066,0.805-0.15l0.09,0.378
		c-0.187,0.084-0.504,0.18-0.966,0.18c-0.894,0-1.427-0.587-1.427-1.463c0-0.875,0.516-1.565,1.361-1.565
		c0.947,0,1.199,0.834,1.199,1.367c0,0.108-0.013,0.192-0.019,0.246H176.693z M178.241,161.608c0.006-0.336-0.139-0.857-0.732-0.857
		c-0.533,0-0.768,0.492-0.809,0.857H178.241z"/>
	<path fill="#D2D2D2" d="M179.405,161.225c0-0.3-0.006-0.545-0.023-0.785h0.461l0.024,0.468h0.019
		c0.162-0.276,0.432-0.534,0.911-0.534c0.396,0,0.695,0.24,0.821,0.582h0.012c0.09-0.162,0.204-0.288,0.324-0.378
		c0.174-0.132,0.365-0.204,0.642-0.204c0.384,0,0.954,0.252,0.954,1.26v1.709h-0.516v-1.644c0-0.558-0.205-0.893-0.631-0.893
		c-0.299,0-0.533,0.222-0.623,0.479c-0.023,0.071-0.042,0.168-0.042,0.264v1.793h-0.516v-1.739c0-0.462-0.204-0.797-0.606-0.797
		c-0.329,0-0.568,0.264-0.652,0.527c-0.031,0.078-0.043,0.168-0.043,0.258v1.751h-0.516V161.225z"/>
	<path fill="#D2D2D2" d="M187.145,163.342v-1.062h-1.812v-0.348l1.74-2.488h0.569v2.422h0.546v0.414h-0.546v1.062H187.145z
		 M187.145,161.866v-1.301c0-0.204,0.006-0.408,0.019-0.611h-0.019c-0.12,0.228-0.216,0.396-0.323,0.575l-0.954,1.325v0.012H187.145
		z"/>
</g>
<rect x="164.264" y="131.961" fill="#5BC0DE" width="6.578" height="23.441"/>
<rect x="170.842" y="134.261" fill="#D9534F" width="6.577" height="21.142"/>
<rect x="177.419" y="136.563" fill="#5CB85C" width="6.578" height="18.839"/>
<rect x="183.997" y="144.728" fill="#CB79A7" width="6.578" height="10.675"/>
<rect x="190.575" y="147.24" fill="#F0AD4E" width="6.578" height="8.162"/>
<rect x="210.934" y="129.658" fill="#5BC0DE" width="6.578" height="25.744"/>
<rect x="217.512" y="149.543" fill="#D9534F" width="6.58" height="5.859"/>
<rect x="224.092" y="137.819" fill="#5CB85C" width="6.577" height="17.583"/>
<rect x="230.669" y="131.961" fill="#CB79A7" width="6.576" height="23.441"/>
<rect x="237.245" y="154.146" fill="#F0AD4E" width="6.578" height="1.256"/>
<g>
	<path fill="#D2D2D2" d="M219.723,159.3v4.042H219.2V159.3H219.723z"/>
	<path fill="#D2D2D2" d="M221.253,159.605v0.834h0.756v0.401h-0.756v1.565c0,0.36,0.102,0.563,0.396,0.563
		c0.138,0,0.239-0.018,0.306-0.036l0.023,0.396c-0.102,0.042-0.264,0.071-0.467,0.071c-0.246,0-0.443-0.077-0.57-0.222
		c-0.149-0.155-0.203-0.413-0.203-0.756v-1.583h-0.45v-0.401h0.45v-0.695L221.253,159.605z"/>
	<path fill="#D2D2D2" d="M222.896,161.986c0.013,0.714,0.468,1.008,0.995,1.008c0.379,0,0.605-0.066,0.805-0.15l0.09,0.378
		c-0.187,0.084-0.504,0.18-0.966,0.18c-0.894,0-1.427-0.587-1.427-1.463c0-0.875,0.516-1.565,1.361-1.565
		c0.947,0,1.199,0.834,1.199,1.367c0,0.108-0.013,0.192-0.019,0.246H222.896z M224.444,161.608c0.006-0.336-0.139-0.857-0.732-0.857
		c-0.533,0-0.768,0.492-0.809,0.857H224.444z"/>
	<path fill="#D2D2D2" d="M225.608,161.225c0-0.3-0.006-0.545-0.023-0.785h0.461l0.024,0.468h0.019
		c0.162-0.276,0.432-0.534,0.911-0.534c0.396,0,0.695,0.24,0.821,0.582h0.012c0.09-0.162,0.204-0.288,0.324-0.378
		c0.174-0.132,0.365-0.204,0.642-0.204c0.384,0,0.954,0.252,0.954,1.26v1.709h-0.516v-1.644c0-0.558-0.205-0.893-0.631-0.893
		c-0.299,0-0.533,0.222-0.623,0.479c-0.023,0.071-0.042,0.168-0.042,0.264v1.793h-0.516v-1.739c0-0.462-0.204-0.797-0.606-0.797
		c-0.329,0-0.568,0.264-0.652,0.527c-0.031,0.078-0.043,0.168-0.043,0.258v1.751h-0.516V161.225z"/>
	<path fill="#D2D2D2" d="M234.044,159.888h-1.488l-0.149,1.001c0.09-0.012,0.174-0.023,0.317-0.023c0.301,0,0.6,0.065,0.84,0.21
		c0.307,0.174,0.558,0.51,0.558,1.001c0,0.762-0.605,1.332-1.451,1.332c-0.426,0-0.785-0.12-0.972-0.24l0.133-0.401
		c0.162,0.096,0.479,0.216,0.833,0.216c0.497,0,0.923-0.324,0.923-0.846c-0.006-0.504-0.342-0.864-1.121-0.864
		c-0.222,0-0.396,0.024-0.539,0.042l0.252-1.87h1.865V159.888z"/>
</g>
<path fill="#CB79A7" d="M188.864,103.337h-23.295v6.799h23.295V103.337z M175.981,95.021h-10.412v6.528h10.412V95.021z
	 M169.131,86.436h-3.562v6.529h3.562V86.436z M179.547,77.851h-13.978v6.527h13.978V77.851z M200.524,69.264h-34.955v6.801h34.955
	V69.264z"/>
<path fill="#5BC0DE" d="M54.325,103.448H28.306v6.553h26.019V103.448z M51.96,94.801H28.306v6.826H51.96V94.801z M42.498,86.428
	H28.306v6.553h14.192V86.428z M37.768,77.783h-9.462v6.824h9.462V77.783z M35.403,69.409h-7.097v6.553h7.097V69.409z"/>
<path fill="#D9534F" d="M79.766,103.484h-5.773v6.517h5.773V103.484z M95.159,94.845H73.993v6.514h21.166V94.845z M98.767,86.447
	H73.994v6.515h24.773V86.447z M105.741,77.807H73.993v6.516h31.748V77.807z M108.146,69.409H73.993v6.514h34.153V69.409z"/>
<path fill="#5CB85C" d="M136.905,103.596h-17.01v6.54h17.01V103.596z M138.079,94.892h-18.184v6.54h18.184V94.892z M138.079,86.43
	h-18.184v6.539h18.184V86.43z M139.251,77.726h-19.355v6.541h19.355V77.726z M140.425,69.264h-20.529v6.54h20.529V69.264z"/>
<path fill="#F0AD4E" d="M212.202,103.53h-1.151v6.535h1.151V103.53z M219.306,94.835h-8.255v6.778h8.255V94.835z M233.321,86.381
	h-22.271v6.536h22.271V86.381z M225.065,77.928h-14.015v6.536h14.015V77.928z M219.306,69.475h-8.255v6.536h8.255V69.475z"/>
<path fill="#5BC0DE" d="M166.753,47.044h-25.657v6.038h25.657V47.044z M164.513,38.455h-23.417v6.289h23.417V38.455z
	 M155.146,30.117h-14.05v6.036h14.05V30.117z M150.462,21.527h-9.366v6.289h9.366V21.527z M148.019,13.189h-6.923v6.289h6.923
	V13.189z"/>
<path fill="#D9534F" d="M172.657,47.044h-5.904v6.038h5.904V47.044z M185.485,38.455h-20.973v6.289h20.973V38.455z M179.581,30.117
	h-24.436v6.036h24.436V30.117z M181.821,21.527h-31.359v6.289h31.359V21.527z M181.821,13.189h-33.803v6.289h33.803V13.189z"/>
<path fill="#5CB85C" d="M190.169,47.044h-17.512v6.038h17.512V47.044z M204.016,38.455h-18.53v6.289h18.53V38.455z M198.313,30.117
	h-18.732v6.036h18.732V30.117z M201.775,21.527h-19.954v6.289h19.954V21.527z M202.997,13.189h-21.176v6.289h21.176V13.189z"/>
<path fill="#CB79A7" d="M213.383,47.044h-23.214v6.038h23.214V47.044z M214.604,38.455h-10.589v6.289h10.589V38.455z
	 M201.775,30.117h-3.462v6.036h3.462V30.117z M215.827,21.527h-14.052v6.289h14.052V21.527z M237.817,13.189h-34.82v6.289h34.82
	V13.189z"/>
<path fill="#F0AD4E" d="M214.604,47.044h-1.222v6.038h1.222V47.044z M222.749,38.455h-8.145v6.289h8.145V38.455z M223.973,30.117
	h-22.197v6.036h22.197V30.117z M229.674,21.527h-13.847v6.289h13.847V21.527z M245.964,13.189h-8.146v6.289h8.146V13.189z"/>
<g>
	<path fill="#D2D2D2" d="M121.068,14.296v4.042h-0.522v-4.042H121.068z"/>
	<path fill="#D2D2D2" d="M122.598,14.602v0.834h0.756v0.401h-0.756v1.565c0,0.36,0.102,0.563,0.396,0.563
		c0.138,0,0.24-0.018,0.306-0.036l0.024,0.396c-0.102,0.042-0.264,0.071-0.468,0.071c-0.246,0-0.443-0.077-0.569-0.222
		c-0.15-0.155-0.204-0.413-0.204-0.756v-1.583h-0.45v-0.401h0.45V14.74L122.598,14.602z"/>
	<path fill="#D2D2D2" d="M124.242,16.982c0.012,0.714,0.468,1.008,0.996,1.008c0.378,0,0.605-0.066,0.804-0.15l0.09,0.378
		c-0.186,0.084-0.504,0.18-0.965,0.18c-0.894,0-1.427-0.587-1.427-1.463c0-0.875,0.516-1.565,1.361-1.565
		c0.947,0,1.199,0.834,1.199,1.367c0,0.108-0.012,0.192-0.018,0.246H124.242z M125.79,16.604c0.006-0.336-0.138-0.857-0.731-0.857
		c-0.534,0-0.768,0.492-0.81,0.857H125.79z"/>
	<path fill="#D2D2D2" d="M126.954,16.221c0-0.3-0.006-0.545-0.023-0.785h0.461l0.024,0.468h0.019
		c0.162-0.276,0.432-0.534,0.911-0.534c0.396,0,0.695,0.24,0.821,0.582h0.012c0.09-0.162,0.204-0.288,0.324-0.378
		c0.174-0.132,0.365-0.204,0.642-0.204c0.384,0,0.954,0.252,0.954,1.26v1.709h-0.516v-1.644c0-0.558-0.205-0.893-0.631-0.893
		c-0.299,0-0.533,0.222-0.623,0.479c-0.023,0.071-0.042,0.168-0.042,0.264v1.793h-0.516v-1.739c0-0.462-0.204-0.797-0.606-0.797
		c-0.329,0-0.568,0.264-0.652,0.527c-0.031,0.078-0.043,0.168-0.043,0.258v1.751h-0.516V16.221z"/>
	<path fill="#D2D2D2" d="M134.208,14.932h-0.012l-0.678,0.366l-0.103-0.402l0.852-0.455h0.45v3.897h-0.51V14.932z"/>
</g>
<g>
	<path fill="#D2D2D2" d="M121.068,22.72v4.042h-0.522V22.72H121.068z"/>
	<path fill="#D2D2D2" d="M122.598,23.025v0.834h0.756v0.401h-0.756v1.565c0,0.36,0.102,0.563,0.396,0.563
		c0.138,0,0.24-0.018,0.306-0.036l0.024,0.396c-0.102,0.042-0.264,0.071-0.468,0.071c-0.246,0-0.443-0.077-0.569-0.222
		c-0.15-0.155-0.204-0.413-0.204-0.756v-1.583h-0.45v-0.401h0.45v-0.695L122.598,23.025z"/>
	<path fill="#D2D2D2" d="M124.242,25.406c0.012,0.714,0.468,1.008,0.996,1.008c0.378,0,0.605-0.066,0.804-0.15l0.09,0.378
		c-0.186,0.084-0.504,0.18-0.965,0.18c-0.894,0-1.427-0.587-1.427-1.463c0-0.875,0.516-1.565,1.361-1.565
		c0.947,0,1.199,0.834,1.199,1.367c0,0.108-0.012,0.192-0.018,0.246H124.242z M125.79,25.028c0.006-0.336-0.138-0.857-0.731-0.857
		c-0.534,0-0.768,0.492-0.81,0.857H125.79z"/>
	<path fill="#D2D2D2" d="M126.954,24.645c0-0.3-0.006-0.545-0.023-0.785h0.461l0.024,0.468h0.019
		c0.162-0.276,0.432-0.534,0.911-0.534c0.396,0,0.695,0.24,0.821,0.582h0.012c0.09-0.162,0.204-0.288,0.324-0.378
		c0.174-0.132,0.365-0.204,0.642-0.204c0.384,0,0.954,0.252,0.954,1.26v1.709h-0.516v-1.644c0-0.558-0.205-0.893-0.631-0.893
		c-0.299,0-0.533,0.222-0.623,0.479c-0.023,0.071-0.042,0.168-0.042,0.264v1.793h-0.516v-1.739c0-0.462-0.204-0.797-0.606-0.797
		c-0.329,0-0.568,0.264-0.652,0.527c-0.031,0.078-0.043,0.168-0.043,0.258v1.751h-0.516V24.645z"/>
	<path fill="#D2D2D2" d="M133.062,26.762v-0.324l0.413-0.401c0.996-0.947,1.445-1.451,1.451-2.039c0-0.396-0.191-0.762-0.773-0.762
		c-0.354,0-0.647,0.181-0.827,0.33l-0.168-0.372c0.271-0.228,0.653-0.396,1.104-0.396c0.839,0,1.193,0.576,1.193,1.134
		c0,0.72-0.522,1.301-1.343,2.093l-0.312,0.287v0.013h1.751v0.438H133.062z"/>
</g>
<g>
	<path fill="#D2D2D2" d="M121.068,31.144v4.042h-0.522v-4.042H121.068z"/>
	<path fill="#D2D2D2" d="M122.598,31.449v0.834h0.756v0.401h-0.756v1.565c0,0.36,0.102,0.563,0.396,0.563
		c0.138,0,0.24-0.018,0.306-0.036l0.024,0.396c-0.102,0.042-0.264,0.071-0.468,0.071c-0.246,0-0.443-0.077-0.569-0.222
		c-0.15-0.155-0.204-0.413-0.204-0.756v-1.583h-0.45v-0.401h0.45v-0.695L122.598,31.449z"/>
	<path fill="#D2D2D2" d="M124.242,33.83c0.012,0.714,0.468,1.008,0.996,1.008c0.378,0,0.605-0.066,0.804-0.15l0.09,0.378
		c-0.186,0.084-0.504,0.18-0.965,0.18c-0.894,0-1.427-0.587-1.427-1.463c0-0.875,0.516-1.565,1.361-1.565
		c0.947,0,1.199,0.834,1.199,1.367c0,0.108-0.012,0.192-0.018,0.246H124.242z M125.79,33.452c0.006-0.336-0.138-0.857-0.731-0.857
		c-0.534,0-0.768,0.492-0.81,0.857H125.79z"/>
	<path fill="#D2D2D2" d="M126.954,33.068c0-0.3-0.006-0.545-0.023-0.785h0.461l0.024,0.468h0.019
		c0.162-0.276,0.432-0.534,0.911-0.534c0.396,0,0.695,0.24,0.821,0.582h0.012c0.09-0.162,0.204-0.288,0.324-0.378
		c0.174-0.132,0.365-0.204,0.642-0.204c0.384,0,0.954,0.252,0.954,1.26v1.709h-0.516v-1.644c0-0.558-0.205-0.893-0.631-0.893
		c-0.299,0-0.533,0.222-0.623,0.479c-0.023,0.071-0.042,0.168-0.042,0.264v1.793h-0.516v-1.739c0-0.462-0.204-0.797-0.606-0.797
		c-0.329,0-0.568,0.264-0.652,0.527c-0.031,0.078-0.043,0.168-0.043,0.258v1.751h-0.516V33.068z"/>
	<path fill="#D2D2D2" d="M133.188,34.58c0.15,0.096,0.498,0.246,0.863,0.246c0.678,0,0.888-0.433,0.881-0.756
		c-0.006-0.546-0.497-0.779-1.007-0.779h-0.294v-0.396h0.294c0.384,0,0.87-0.197,0.87-0.659c0-0.312-0.198-0.588-0.684-0.588
		c-0.312,0-0.612,0.138-0.78,0.258l-0.138-0.384c0.203-0.149,0.6-0.3,1.02-0.3c0.768,0,1.115,0.456,1.115,0.93
		c0,0.401-0.24,0.743-0.72,0.917v0.013c0.479,0.096,0.87,0.455,0.87,1.001c0,0.624-0.486,1.17-1.422,1.17
		c-0.438,0-0.821-0.139-1.014-0.265L133.188,34.58z"/>
</g>
<g>
	<path fill="#D2D2D2" d="M121.068,39.568v4.042h-0.522v-4.042H121.068z"/>
	<path fill="#D2D2D2" d="M122.598,39.874v0.834h0.756v0.401h-0.756v1.565c0,0.359,0.102,0.563,0.396,0.563
		c0.138,0,0.24-0.018,0.306-0.036l0.024,0.396c-0.102,0.042-0.264,0.071-0.468,0.071c-0.246,0-0.443-0.077-0.569-0.222
		c-0.15-0.155-0.204-0.414-0.204-0.756v-1.583h-0.45v-0.401h0.45v-0.695L122.598,39.874z"/>
	<path fill="#D2D2D2" d="M124.242,42.255c0.012,0.714,0.468,1.008,0.996,1.008c0.378,0,0.605-0.066,0.804-0.15l0.09,0.378
		c-0.186,0.084-0.504,0.18-0.965,0.18c-0.894,0-1.427-0.587-1.427-1.463c0-0.875,0.516-1.565,1.361-1.565
		c0.947,0,1.199,0.834,1.199,1.367c0,0.108-0.012,0.192-0.018,0.246H124.242z M125.79,41.877c0.006-0.336-0.138-0.857-0.731-0.857
		c-0.534,0-0.768,0.492-0.81,0.857H125.79z"/>
	<path fill="#D2D2D2" d="M126.954,41.493c0-0.3-0.006-0.545-0.023-0.785h0.461l0.024,0.468h0.019
		c0.162-0.276,0.432-0.534,0.911-0.534c0.396,0,0.695,0.24,0.821,0.582h0.012c0.09-0.162,0.204-0.288,0.324-0.378
		c0.174-0.132,0.365-0.204,0.642-0.204c0.384,0,0.954,0.252,0.954,1.26v1.709h-0.516v-1.644c0-0.558-0.205-0.893-0.631-0.893
		c-0.299,0-0.533,0.222-0.623,0.479c-0.023,0.071-0.042,0.168-0.042,0.264v1.793h-0.516v-1.739c0-0.462-0.204-0.797-0.606-0.797
		c-0.329,0-0.568,0.264-0.652,0.527c-0.031,0.078-0.043,0.168-0.043,0.258v1.751h-0.516V41.493z"/>
	<path fill="#D2D2D2" d="M134.693,43.61v-1.062h-1.812v-0.348l1.74-2.488h0.569v2.422h0.546v0.414h-0.546v1.062H134.693z
		 M134.693,42.135v-1.301c0-0.204,0.006-0.408,0.019-0.611h-0.019c-0.12,0.228-0.216,0.396-0.323,0.575l-0.954,1.325v0.012H134.693z
		"/>
</g>
<g>
	<path fill="#D2D2D2" d="M121.068,47.992v4.042h-0.522v-4.042H121.068z"/>
	<path fill="#D2D2D2" d="M122.598,48.298v0.834h0.756v0.401h-0.756v1.565c0,0.359,0.102,0.563,0.396,0.563
		c0.138,0,0.24-0.018,0.306-0.036l0.024,0.396c-0.102,0.042-0.264,0.071-0.468,0.071c-0.246,0-0.443-0.077-0.569-0.222
		c-0.15-0.155-0.204-0.414-0.204-0.756v-1.583h-0.45v-0.401h0.45v-0.695L122.598,48.298z"/>
	<path fill="#D2D2D2" d="M124.242,50.679c0.012,0.714,0.468,1.008,0.996,1.008c0.378,0,0.605-0.066,0.804-0.15l0.09,0.378
		c-0.186,0.084-0.504,0.18-0.965,0.18c-0.894,0-1.427-0.587-1.427-1.463c0-0.875,0.516-1.565,1.361-1.565
		c0.947,0,1.199,0.834,1.199,1.367c0,0.108-0.012,0.192-0.018,0.246H124.242z M125.79,50.301c0.006-0.336-0.138-0.857-0.731-0.857
		c-0.534,0-0.768,0.492-0.81,0.857H125.79z"/>
	<path fill="#D2D2D2" d="M126.954,49.917c0-0.3-0.006-0.545-0.023-0.785h0.461l0.024,0.468h0.019
		c0.162-0.276,0.432-0.534,0.911-0.534c0.396,0,0.695,0.24,0.821,0.582h0.012c0.09-0.162,0.204-0.288,0.324-0.378
		c0.174-0.132,0.365-0.204,0.642-0.204c0.384,0,0.954,0.252,0.954,1.26v1.709h-0.516v-1.644c0-0.558-0.205-0.893-0.631-0.893
		c-0.299,0-0.533,0.222-0.623,0.479c-0.023,0.071-0.042,0.168-0.042,0.264v1.793h-0.516v-1.739c0-0.462-0.204-0.797-0.606-0.797
		c-0.329,0-0.568,0.264-0.652,0.527c-0.031,0.078-0.043,0.168-0.043,0.258v1.751h-0.516V49.917z"/>
	<path fill="#D2D2D2" d="M135.39,48.58h-1.488l-0.149,1.001c0.09-0.012,0.174-0.023,0.317-0.023c0.301,0,0.6,0.065,0.84,0.21
		c0.307,0.174,0.558,0.51,0.558,1.001c0,0.762-0.605,1.332-1.451,1.332c-0.426,0-0.785-0.12-0.972-0.24l0.133-0.402
		c0.162,0.097,0.479,0.217,0.833,0.217c0.497,0,0.923-0.324,0.923-0.846c-0.006-0.504-0.342-0.864-1.121-0.864
		c-0.222,0-0.396,0.024-0.539,0.042l0.252-1.87h1.865V48.58z"/>
</g>
<rect x="140.969" y="8.239" fill="#D2D2D2" width="0.499" height="1.396"/>
<rect x="210.8" y="8.235" fill="#D2D2D2" width="0.5" height="1.397"/>
<rect x="175.885" y="8.235" fill="#D2D2D2" width="0.5" height="1.397"/>
<g>
	<path fill="#D2D2D2" d="M173.93,6.126c0.125,0.08,0.415,0.205,0.721,0.205c0.565,0,0.74-0.359,0.735-0.63
		c-0.005-0.456-0.415-0.651-0.841-0.651H174.3V4.72h0.245c0.32,0,0.726-0.165,0.726-0.551c0-0.26-0.165-0.49-0.57-0.49
		c-0.26,0-0.511,0.115-0.65,0.216l-0.115-0.32c0.17-0.126,0.5-0.251,0.851-0.251c0.641,0,0.931,0.381,0.931,0.776
		c0,0.335-0.199,0.62-0.6,0.766v0.01c0.4,0.08,0.725,0.381,0.725,0.836c0,0.521-0.404,0.976-1.186,0.976
		c-0.365,0-0.686-0.115-0.846-0.22L173.93,6.126z"/>
	<path fill="#D2D2D2" d="M178.552,4.97c0,1.106-0.41,1.717-1.131,1.717c-0.637,0-1.066-0.596-1.076-1.671
		c0-1.092,0.47-1.692,1.131-1.692C178.161,3.323,178.552,3.935,178.552,4.97z M176.784,5.021c0,0.846,0.261,1.326,0.661,1.326
		c0.45,0,0.665-0.525,0.665-1.356c0-0.801-0.205-1.326-0.66-1.326C177.065,3.664,176.784,4.135,176.784,5.021z"/>
</g>
<g>
	<path fill="#D2D2D2" d="M248.599,4.97c0,1.106-0.41,1.717-1.131,1.717c-0.637,0-1.066-0.596-1.076-1.671
		c0-1.092,0.47-1.692,1.131-1.692C248.208,3.323,248.599,3.935,248.599,4.97z M246.831,5.021c0,0.846,0.261,1.326,0.661,1.326
		c0.45,0,0.665-0.525,0.665-1.356c0-0.801-0.205-1.326-0.66-1.326C247.112,3.664,246.831,4.135,246.831,5.021z"/>
</g>
<g>
	<path fill="#D2D2D2" d="M210.353,3.688c-0.09-0.005-0.205,0-0.33,0.021c-0.69,0.115-1.056,0.62-1.131,1.156h0.016
		c0.154-0.205,0.425-0.376,0.785-0.376c0.576,0,0.98,0.416,0.98,1.052c0,0.596-0.404,1.146-1.08,1.146
		c-0.696,0-1.151-0.54-1.151-1.386c0-0.641,0.229-1.146,0.55-1.467c0.271-0.265,0.631-0.431,1.041-0.48
		c0.131-0.02,0.24-0.024,0.32-0.024V3.688z M210.228,5.565c0-0.465-0.265-0.745-0.67-0.745c-0.266,0-0.511,0.165-0.631,0.4
		c-0.03,0.05-0.051,0.115-0.051,0.195c0.011,0.535,0.256,0.931,0.717,0.931C209.973,6.347,210.228,6.031,210.228,5.565z"/>
	<path fill="#D2D2D2" d="M213.224,4.97c0,1.106-0.41,1.717-1.131,1.717c-0.637,0-1.066-0.596-1.076-1.671
		c0-1.092,0.47-1.692,1.131-1.692C212.833,3.323,213.224,3.935,213.224,4.97z M211.456,5.021c0,0.846,0.261,1.326,0.661,1.326
		c0.45,0,0.665-0.525,0.665-1.356c0-0.801-0.205-1.326-0.66-1.326C211.737,3.664,211.456,4.135,211.456,5.021z"/>
</g>
<polygon fill="#D2D2D2" points="245.714,8.236 245.714,9.632 245.714,9.636 245.964,9.636 245.964,9.386 140.97,9.386 
	140.97,56.051 141.47,56.051 141.47,9.886 246.214,9.886 246.214,9.632 246.214,8.236 "/>
<g>
	<path fill="#D2D2D2" d="M73.66,7.814v4.042h-0.522V7.814H73.66z"/>
	<path fill="#D2D2D2" d="M75.19,8.12v0.834h0.756v0.401H75.19v1.565c0,0.359,0.102,0.563,0.396,0.563
		c0.138,0,0.24-0.018,0.306-0.036l0.024,0.396c-0.102,0.042-0.264,0.071-0.468,0.071c-0.246,0-0.443-0.077-0.569-0.222
		c-0.15-0.155-0.204-0.414-0.204-0.756V9.355h-0.45V8.954h0.45V8.259L75.19,8.12z"/>
	<path fill="#D2D2D2" d="M76.834,10.501c0.012,0.714,0.468,1.008,0.996,1.008c0.378,0,0.605-0.066,0.804-0.15l0.09,0.378
		c-0.186,0.084-0.504,0.18-0.965,0.18c-0.894,0-1.427-0.587-1.427-1.463c0-0.875,0.516-1.565,1.361-1.565
		c0.947,0,1.199,0.834,1.199,1.367c0,0.108-0.012,0.192-0.018,0.246H76.834z M78.381,10.123c0.006-0.336-0.138-0.857-0.731-0.857
		c-0.534,0-0.768,0.492-0.81,0.857H78.381z"/>
	<path fill="#D2D2D2" d="M79.546,9.739c0-0.3-0.006-0.545-0.024-0.785h0.462l0.024,0.468h0.018c0.162-0.276,0.432-0.534,0.912-0.534
		c0.396,0,0.695,0.24,0.821,0.582h0.012c0.09-0.162,0.204-0.288,0.324-0.378c0.174-0.132,0.366-0.204,0.642-0.204
		c0.384,0,0.954,0.252,0.954,1.26v1.709h-0.516v-1.644c0-0.558-0.204-0.893-0.63-0.893c-0.3,0-0.534,0.222-0.624,0.479
		c-0.024,0.071-0.042,0.168-0.042,0.264v1.793h-0.516v-1.739c0-0.462-0.204-0.797-0.606-0.797c-0.33,0-0.569,0.264-0.653,0.527
		c-0.03,0.078-0.042,0.168-0.042,0.258v1.751h-0.516V9.739z"/>
	<path fill="#D2D2D2" d="M85.78,11.251c0.15,0.096,0.498,0.246,0.863,0.246c0.678,0,0.888-0.433,0.881-0.756
		c-0.006-0.546-0.498-0.779-1.007-0.779h-0.294V9.565h0.294c0.384,0,0.87-0.197,0.87-0.659c0-0.312-0.198-0.588-0.684-0.588
		c-0.312,0-0.612,0.138-0.78,0.258l-0.138-0.384c0.204-0.149,0.6-0.3,1.02-0.3c0.768,0,1.115,0.456,1.115,0.93
		c0,0.401-0.24,0.743-0.72,0.917v0.013c0.48,0.096,0.87,0.455,0.87,1.001c0,0.624-0.486,1.17-1.421,1.17
		c-0.438,0-0.821-0.139-1.013-0.265L85.78,11.251z"/>
</g>
<g>
	<path fill="#D2D2D2" d="M61.013,63.172c0.125,0.08,0.416,0.206,0.721,0.206c0.566,0,0.741-0.361,0.736-0.631
		c-0.005-0.456-0.416-0.65-0.841-0.65h-0.245v-0.331h0.245c0.32,0,0.726-0.165,0.726-0.55c0-0.261-0.166-0.491-0.571-0.491
		c-0.26,0-0.51,0.115-0.651,0.216l-0.115-0.32c0.17-0.125,0.5-0.251,0.851-0.251c0.641,0,0.931,0.381,0.931,0.776
		c0,0.335-0.2,0.62-0.601,0.766v0.01c0.4,0.08,0.726,0.381,0.726,0.836c0,0.521-0.405,0.976-1.186,0.976
		c-0.366,0-0.686-0.114-0.846-0.22L61.013,63.172z"/>
	<path fill="#D2D2D2" d="M65.635,62.017c0,1.105-0.41,1.716-1.131,1.716c-0.636,0-1.066-0.595-1.076-1.671
		c0-1.092,0.471-1.692,1.131-1.692C65.245,60.369,65.635,60.98,65.635,62.017z M63.868,62.066c0,0.846,0.26,1.326,0.661,1.326
		c0.451,0,0.666-0.525,0.666-1.356c0-0.801-0.205-1.326-0.661-1.326C64.148,60.71,63.868,61.181,63.868,62.066z"/>
</g>
<g>
	<path fill="#D2D2D2" d="M29.3,62.017c0,1.105-0.41,1.716-1.131,1.716c-0.636,0-1.066-0.595-1.076-1.671
		c0-1.092,0.471-1.692,1.131-1.692C28.91,60.369,29.3,60.98,29.3,62.017z M27.533,62.066c0,0.846,0.26,1.326,0.661,1.326
		c0.451,0,0.666-0.525,0.666-1.356c0-0.801-0.205-1.326-0.661-1.326C27.813,60.71,27.533,61.181,27.533,62.066z"/>
</g>
<rect x="28.055" y="65.144" fill="#D2D2D2" width="0.5" height="1.397"/>
<polygon fill="#D2D2D2" points="63.215,65.144 63.215,66.541 63.215,66.542 63.465,66.542 63.465,66.292 28.056,66.291 
	28.056,112.955 28.556,112.955 28.556,66.791 63.715,66.792 63.715,66.541 63.715,65.144 "/>
<rect x="45.57" y="65.144" fill="#D2D2D2" width="0.5" height="1.397"/>
<g>
	<path fill="#D2D2D2" d="M44.219,60.835h-0.01l-0.566,0.306l-0.085-0.336l0.71-0.38h0.375v3.253h-0.425V60.835z"/>
	<path fill="#D2D2D2" d="M47.77,60.795h-1.241l-0.125,0.836c0.075-0.01,0.145-0.021,0.265-0.021c0.25,0,0.5,0.056,0.701,0.176
		c0.255,0.145,0.466,0.425,0.466,0.836c0,0.635-0.506,1.11-1.211,1.11c-0.355,0-0.656-0.1-0.811-0.2l0.11-0.335
		c0.135,0.08,0.4,0.181,0.696,0.181c0.416,0,0.771-0.271,0.771-0.706c-0.005-0.421-0.285-0.721-0.936-0.721
		c-0.185,0-0.33,0.02-0.45,0.035l0.21-1.562h1.557V60.795z"/>
</g>
<g>
	<path fill="#D2D2D2" d="M106.703,63.172c0.125,0.08,0.415,0.206,0.721,0.206c0.565,0,0.74-0.361,0.735-0.631
		c-0.005-0.456-0.415-0.65-0.841-0.65h-0.245v-0.331h0.245c0.32,0,0.726-0.165,0.726-0.55c0-0.261-0.165-0.491-0.57-0.491
		c-0.26,0-0.511,0.115-0.65,0.216l-0.115-0.32c0.17-0.125,0.5-0.251,0.851-0.251c0.641,0,0.931,0.381,0.931,0.776
		c0,0.335-0.2,0.62-0.601,0.766v0.01c0.4,0.08,0.726,0.381,0.726,0.836c0,0.521-0.405,0.976-1.186,0.976
		c-0.365,0-0.686-0.114-0.846-0.22L106.703,63.172z"/>
	<path fill="#D2D2D2" d="M111.325,62.017c0,1.105-0.41,1.716-1.131,1.716c-0.636,0-1.066-0.595-1.076-1.671
		c0-1.092,0.47-1.692,1.131-1.692C110.935,60.369,111.325,60.98,111.325,62.017z M109.558,62.066c0,0.846,0.26,1.326,0.661,1.326
		c0.45,0,0.666-0.525,0.666-1.356c0-0.801-0.205-1.326-0.661-1.326C109.838,60.71,109.558,61.181,109.558,62.066z"/>
</g>
<g>
	<path fill="#D2D2D2" d="M74.99,62.017c0,1.105-0.41,1.716-1.131,1.716c-0.636,0-1.066-0.595-1.076-1.671
		c0-1.092,0.47-1.692,1.131-1.692C74.6,60.369,74.99,60.98,74.99,62.017z M73.223,62.066c0,0.846,0.26,1.326,0.661,1.326
		c0.45,0,0.666-0.525,0.666-1.356c0-0.801-0.205-1.326-0.661-1.326C73.503,60.71,73.223,61.181,73.223,62.066z"/>
</g>
<rect x="73.743" y="65.144" fill="#D2D2D2" width="0.5" height="1.397"/>
<polygon fill="#D2D2D2" points="108.902,65.144 108.902,66.541 108.902,66.542 109.152,66.542 109.152,66.292 73.743,66.291 
	73.743,112.955 74.243,112.955 74.243,66.791 109.402,66.792 109.402,66.541 109.402,65.144 "/>
<rect x="91.258" y="65.144" fill="#D2D2D2" width="0.5" height="1.397"/>
<g>
	<path fill="#D2D2D2" d="M89.907,60.835h-0.01l-0.566,0.306l-0.085-0.336l0.71-0.38h0.375v3.253h-0.425V60.835z"/>
	<path fill="#D2D2D2" d="M93.458,60.795h-1.241l-0.125,0.836c0.075-0.01,0.145-0.021,0.265-0.021c0.25,0,0.5,0.056,0.701,0.176
		c0.255,0.145,0.466,0.425,0.466,0.836c0,0.635-0.506,1.11-1.211,1.11c-0.355,0-0.656-0.1-0.811-0.2l0.11-0.335
		c0.135,0.08,0.4,0.181,0.696,0.181c0.416,0,0.771-0.271,0.771-0.706c-0.005-0.421-0.285-0.721-0.936-0.721
		c-0.185,0-0.33,0.02-0.45,0.035l0.21-1.562h1.557V60.795z"/>
</g>
<g>
	<path fill="#D2D2D2" d="M152.387,63.172c0.125,0.08,0.415,0.206,0.721,0.206c0.565,0,0.74-0.361,0.735-0.631
		c-0.005-0.456-0.415-0.65-0.841-0.65h-0.245v-0.331h0.245c0.32,0,0.726-0.165,0.726-0.55c0-0.261-0.165-0.491-0.57-0.491
		c-0.26,0-0.511,0.115-0.65,0.216l-0.115-0.32c0.17-0.125,0.5-0.251,0.851-0.251c0.641,0,0.931,0.381,0.931,0.776
		c0,0.335-0.199,0.62-0.6,0.766v0.01c0.4,0.08,0.725,0.381,0.725,0.836c0,0.521-0.404,0.976-1.186,0.976
		c-0.365,0-0.686-0.114-0.846-0.22L152.387,63.172z"/>
	<path fill="#D2D2D2" d="M157.009,62.017c0,1.105-0.41,1.716-1.131,1.716c-0.637,0-1.066-0.595-1.076-1.671
		c0-1.092,0.47-1.692,1.131-1.692C156.618,60.369,157.009,60.98,157.009,62.017z M155.241,62.066c0,0.846,0.261,1.326,0.661,1.326
		c0.45,0,0.665-0.525,0.665-1.356c0-0.801-0.205-1.326-0.66-1.326C155.522,60.71,155.241,61.181,155.241,62.066z"/>
</g>
<g>
	<path fill="#D2D2D2" d="M120.673,62.017c0,1.105-0.41,1.716-1.131,1.716c-0.636,0-1.066-0.595-1.076-1.671
		c0-1.092,0.47-1.692,1.131-1.692C120.283,60.369,120.673,60.98,120.673,62.017z M118.907,62.066c0,0.846,0.26,1.326,0.661,1.326
		c0.45,0,0.666-0.525,0.666-1.356c0-0.801-0.205-1.326-0.661-1.326C119.187,60.71,118.907,61.181,118.907,62.066z"/>
</g>
<rect x="119.431" y="65.144" fill="#D2D2D2" width="0.499" height="1.397"/>
<polygon fill="#D2D2D2" points="154.59,65.144 154.59,66.541 154.59,66.542 154.84,66.542 154.84,66.292 119.43,66.291 
	119.43,112.955 119.93,112.955 119.93,66.791 155.09,66.792 155.09,66.541 155.09,65.144 "/>
<rect x="136.946" y="65.144" fill="#D2D2D2" width="0.498" height="1.397"/>
<g>
	<path fill="#D2D2D2" d="M135.595,60.835h-0.01l-0.565,0.306l-0.085-0.336l0.711-0.38h0.375v3.253h-0.426V60.835z"/>
	<path fill="#D2D2D2" d="M139.146,60.795h-1.24l-0.125,0.836c0.074-0.01,0.145-0.021,0.265-0.021c0.251,0,0.501,0.056,0.7,0.176
		c0.256,0.145,0.466,0.425,0.466,0.836c0,0.635-0.505,1.11-1.211,1.11c-0.355,0-0.655-0.1-0.811-0.2l0.11-0.335
		c0.135,0.08,0.4,0.181,0.695,0.181c0.415,0,0.771-0.271,0.771-0.706c-0.005-0.421-0.285-0.721-0.936-0.721
		c-0.186,0-0.331,0.02-0.45,0.035l0.21-1.562h1.556V60.795z"/>
</g>
<g>
	<path fill="#D2D2D2" d="M198.074,63.172c0.126,0.08,0.415,0.206,0.721,0.206c0.565,0,0.741-0.361,0.735-0.631
		c-0.004-0.456-0.415-0.65-0.84-0.65h-0.246v-0.331h0.246c0.32,0,0.726-0.165,0.726-0.55c0-0.261-0.165-0.491-0.571-0.491
		c-0.26,0-0.51,0.115-0.65,0.216l-0.115-0.32c0.17-0.125,0.501-0.251,0.852-0.251c0.641,0,0.931,0.381,0.931,0.776
		c0,0.335-0.2,0.62-0.601,0.766v0.01c0.4,0.08,0.726,0.381,0.726,0.836c0,0.521-0.405,0.976-1.187,0.976
		c-0.365,0-0.686-0.114-0.846-0.22L198.074,63.172z"/>
	<path fill="#D2D2D2" d="M202.696,62.017c0,1.105-0.41,1.716-1.131,1.716c-0.636,0-1.066-0.595-1.076-1.671
		c0-1.092,0.471-1.692,1.131-1.692C202.306,60.369,202.696,60.98,202.696,62.017z M200.93,62.066c0,0.846,0.261,1.326,0.661,1.326
		c0.45,0,0.665-0.525,0.665-1.356c0-0.801-0.205-1.326-0.661-1.326C201.21,60.71,200.93,61.181,200.93,62.066z"/>
</g>
<g>
	<path fill="#D2D2D2" d="M166.361,62.017c0,1.105-0.41,1.716-1.131,1.716c-0.636,0-1.066-0.595-1.076-1.671
		c0-1.092,0.471-1.692,1.131-1.692C165.972,60.369,166.361,60.98,166.361,62.017z M164.595,62.066c0,0.846,0.26,1.326,0.66,1.326
		c0.451,0,0.666-0.525,0.666-1.356c0-0.801-0.205-1.326-0.66-1.326C164.875,60.71,164.595,61.181,164.595,62.066z"/>
</g>
<rect x="165.116" y="65.144" fill="#D2D2D2" width="0.5" height="1.397"/>
<polygon fill="#D2D2D2" points="200.274,65.144 200.274,66.541 200.274,66.542 200.524,66.542 200.524,66.292 165.116,66.291 
	165.116,112.955 165.616,112.955 165.616,66.791 200.774,66.792 200.774,66.541 200.774,65.144 "/>
<rect x="182.631" y="65.144" fill="#D2D2D2" width="0.5" height="1.397"/>
<g>
	<path fill="#D2D2D2" d="M181.282,60.835h-0.01l-0.566,0.306l-0.084-0.336l0.71-0.38h0.376v3.253h-0.426V60.835z"/>
	<path fill="#D2D2D2" d="M184.833,60.795h-1.241l-0.125,0.836c0.075-0.01,0.146-0.021,0.265-0.021c0.251,0,0.501,0.056,0.701,0.176
		c0.256,0.145,0.466,0.425,0.466,0.836c0,0.635-0.506,1.11-1.212,1.11c-0.355,0-0.655-0.1-0.811-0.2l0.11-0.335
		c0.136,0.08,0.4,0.181,0.696,0.181c0.415,0,0.77-0.271,0.77-0.706c-0.004-0.421-0.285-0.721-0.936-0.721
		c-0.186,0-0.33,0.02-0.45,0.035l0.21-1.562h1.557V60.795z"/>
</g>
<g>
	<path fill="#D2D2D2" d="M243.767,63.172c0.125,0.08,0.415,0.206,0.721,0.206c0.565,0,0.74-0.361,0.735-0.631
		c-0.005-0.456-0.415-0.65-0.841-0.65h-0.245v-0.331h0.245c0.32,0,0.726-0.165,0.726-0.55c0-0.261-0.165-0.491-0.57-0.491
		c-0.261,0-0.511,0.115-0.65,0.216l-0.115-0.32c0.17-0.125,0.501-0.251,0.851-0.251c0.641,0,0.932,0.381,0.932,0.776
		c0,0.335-0.201,0.62-0.602,0.766v0.01c0.4,0.08,0.727,0.381,0.727,0.836c0,0.521-0.406,0.976-1.187,0.976
		c-0.365,0-0.686-0.114-0.846-0.22L243.767,63.172z"/>
	<path fill="#D2D2D2" d="M248.388,62.017c0,1.105-0.41,1.716-1.131,1.716c-0.635,0-1.065-0.595-1.076-1.671
		c0-1.092,0.471-1.692,1.132-1.692C247.998,60.369,248.388,60.98,248.388,62.017z M246.622,62.066c0,0.846,0.26,1.326,0.66,1.326
		c0.45,0,0.666-0.525,0.666-1.356c0-0.801-0.205-1.326-0.661-1.326C246.901,60.71,246.622,61.181,246.622,62.066z"/>
</g>
<g>
	<path fill="#D2D2D2" d="M212.054,62.017c0,1.105-0.41,1.716-1.131,1.716c-0.637,0-1.066-0.595-1.076-1.671
		c0-1.092,0.47-1.692,1.131-1.692C211.663,60.369,212.054,60.98,212.054,62.017z M210.286,62.066c0,0.846,0.261,1.326,0.661,1.326
		c0.45,0,0.665-0.525,0.665-1.356c0-0.801-0.205-1.326-0.66-1.326C210.567,60.71,210.286,61.181,210.286,62.066z"/>
</g>
<rect x="210.801" y="65.144" fill="#D2D2D2" width="0.5" height="1.397"/>
<polygon fill="#D2D2D2" points="245.961,65.144 245.961,66.541 245.961,66.542 246.211,66.542 246.211,66.292 210.801,66.291 
	210.801,112.955 211.301,112.955 211.301,66.791 246.461,66.792 246.461,66.541 246.461,65.144 "/>
<rect x="228.315" y="65.144" fill="#D2D2D2" width="0.5" height="1.397"/>
<g>
	<path fill="#D2D2D2" d="M226.97,60.835h-0.01l-0.565,0.306l-0.085-0.336l0.711-0.38h0.375v3.253h-0.426V60.835z"/>
	<path fill="#D2D2D2" d="M230.521,60.795h-1.24l-0.125,0.836c0.074-0.01,0.145-0.021,0.265-0.021c0.251,0,0.501,0.056,0.7,0.176
		c0.256,0.145,0.466,0.425,0.466,0.836c0,0.635-0.505,1.11-1.211,1.11c-0.355,0-0.655-0.1-0.811-0.2l0.11-0.335
		c0.135,0.08,0.4,0.181,0.695,0.181c0.415,0,0.771-0.271,0.771-0.706c-0.005-0.421-0.285-0.721-0.936-0.721
		c-0.186,0-0.331,0.02-0.45,0.035l0.21-1.562h1.556V60.795z"/>
</g>
<g>
	<path fill="#D2D2D2" d="M11.494,121.562c0.125,0.08,0.416,0.206,0.721,0.206c0.566,0,0.741-0.361,0.736-0.631
		c-0.005-0.456-0.416-0.65-0.841-0.65h-0.245v-0.331h0.245c0.32,0,0.726-0.165,0.726-0.55c0-0.261-0.166-0.491-0.571-0.491
		c-0.26,0-0.51,0.115-0.651,0.216l-0.115-0.32c0.17-0.125,0.5-0.251,0.851-0.251c0.641,0,0.931,0.381,0.931,0.776
		c0,0.335-0.2,0.62-0.601,0.766v0.01c0.4,0.08,0.726,0.381,0.726,0.836c0,0.521-0.405,0.976-1.186,0.976
		c-0.366,0-0.686-0.114-0.846-0.22L11.494,121.562z"/>
	<path fill="#D2D2D2" d="M16.116,120.407c0,1.105-0.41,1.716-1.131,1.716c-0.636,0-1.066-0.595-1.076-1.671
		c0-1.092,0.471-1.692,1.131-1.692C15.726,118.76,16.116,119.371,16.116,120.407z M14.35,120.457c0,0.846,0.26,1.326,0.661,1.326
		c0.451,0,0.666-0.525,0.666-1.356c0-0.801-0.205-1.326-0.661-1.326C14.63,119.101,14.35,119.571,14.35,120.457z"/>
</g>
<g>
	<path fill="#D2D2D2" d="M16.331,155.382c0,1.105-0.41,1.716-1.131,1.716c-0.636,0-1.066-0.595-1.076-1.671
		c0-1.092,0.471-1.692,1.131-1.692C15.941,153.734,16.331,154.346,16.331,155.382z M14.564,155.432c0,0.846,0.26,1.326,0.661,1.326
		c0.451,0,0.666-0.525,0.666-1.356c0-0.801-0.205-1.326-0.661-1.326C14.845,154.075,14.564,154.546,14.564,155.432z"/>
</g>
<g>
	<path fill="#D2D2D2" d="M12.345,136.905h-0.01l-0.565,0.306l-0.085-0.336l0.711-0.38h0.375v3.253h-0.425V136.905z"/>
	<path fill="#D2D2D2" d="M15.896,136.865h-1.241l-0.125,0.836c0.075-0.01,0.145-0.021,0.265-0.021c0.25,0,0.5,0.056,0.701,0.176
		c0.255,0.145,0.465,0.425,0.465,0.836c0,0.635-0.505,1.11-1.211,1.11c-0.355,0-0.656-0.1-0.811-0.2l0.11-0.335
		c0.135,0.08,0.4,0.181,0.696,0.181c0.415,0,0.771-0.271,0.771-0.706c-0.005-0.421-0.285-0.721-0.936-0.721
		c-0.186,0-0.331,0.02-0.451,0.035l0.21-1.562h1.556V136.865z"/>
</g>
<polygon fill="#D2D2D2" points="17.777,120.694 18.924,120.694 18.924,155.546 248.781,155.546 248.781,155.046 19.423,155.046 
	19.423,120.194 17.777,120.194 "/>
<rect x="17.777" y="155.047" fill="#D2D2D2" width="1.397" height="0.499"/>
<rect x="17.777" y="137.621" fill="#D2D2D2" width="1.397" height="0.5"/>
<g>
	<path fill="#D2D2D2" d="M10.585,18.388c-0.192,0.096-0.576,0.191-1.067,0.191c-1.14,0-1.997-0.719-1.997-2.045
		c0-1.265,0.857-2.122,2.111-2.122c0.504,0,0.822,0.107,0.959,0.18l-0.126,0.426c-0.198-0.096-0.479-0.168-0.815-0.168
		c-0.947,0-1.577,0.605-1.577,1.667c0,0.989,0.57,1.625,1.553,1.625c0.318,0,0.642-0.065,0.852-0.168L10.585,18.388z"/>
	<path fill="#D2D2D2" d="M12.83,18.52l-0.042-0.366H12.77c-0.162,0.229-0.474,0.433-0.888,0.433c-0.587,0-0.887-0.414-0.887-0.834
		c0-0.701,0.624-1.085,1.745-1.079v-0.061c0-0.239-0.066-0.671-0.66-0.671c-0.27,0-0.552,0.083-0.756,0.216l-0.12-0.349
		c0.24-0.155,0.587-0.258,0.953-0.258c0.888,0,1.104,0.606,1.104,1.188v1.086c0,0.252,0.012,0.497,0.048,0.695H12.83z
		 M12.751,17.038c-0.576-0.012-1.229,0.09-1.229,0.654c0,0.342,0.228,0.503,0.498,0.503c0.378,0,0.618-0.239,0.702-0.485
		c0.018-0.054,0.03-0.114,0.03-0.168V17.038z"/>
	<path fill="#D2D2D2" d="M14.75,14.783v0.834h0.756v0.401H14.75v1.565c0,0.36,0.102,0.563,0.396,0.563
		c0.138,0,0.24-0.018,0.306-0.036l0.024,0.396c-0.102,0.042-0.264,0.071-0.468,0.071c-0.246,0-0.443-0.077-0.569-0.222
		c-0.15-0.155-0.204-0.413-0.204-0.756v-1.583h-0.45v-0.401h0.45v-0.695L14.75,14.783z"/>
	<path fill="#D2D2D2" d="M16.394,17.164c0.012,0.714,0.468,1.008,0.996,1.008c0.378,0,0.605-0.066,0.804-0.15l0.09,0.378
		c-0.186,0.084-0.504,0.18-0.965,0.18c-0.894,0-1.427-0.587-1.427-1.463c0-0.875,0.516-1.565,1.361-1.565
		c0.947,0,1.199,0.834,1.199,1.367c0,0.108-0.012,0.192-0.018,0.246H16.394z M17.941,16.786c0.006-0.336-0.138-0.857-0.731-0.857
		c-0.534,0-0.768,0.492-0.81,0.857H17.941z"/>
	<path fill="#D2D2D2" d="M21.607,15.617c-0.012,0.21-0.024,0.443-0.024,0.798V18.1c0,0.666-0.132,1.073-0.414,1.325
		c-0.282,0.264-0.689,0.348-1.055,0.348c-0.348,0-0.732-0.084-0.965-0.239l0.132-0.402c0.192,0.12,0.492,0.229,0.852,0.229
		c0.54,0,0.936-0.282,0.936-1.014v-0.324h-0.012c-0.162,0.271-0.474,0.486-0.923,0.486c-0.72,0-1.235-0.612-1.235-1.415
		c0-0.984,0.642-1.542,1.307-1.542c0.504,0,0.78,0.265,0.905,0.504h0.012l0.024-0.438H21.607z M21.061,16.763
		c0-0.09-0.006-0.168-0.03-0.24c-0.096-0.306-0.354-0.558-0.738-0.558c-0.503,0-0.863,0.426-0.863,1.098
		c0,0.569,0.288,1.043,0.857,1.043c0.324,0,0.618-0.203,0.731-0.539c0.03-0.09,0.042-0.192,0.042-0.282V16.763z"/>
	<path fill="#D2D2D2" d="M25.087,17.044c0,1.074-0.744,1.542-1.445,1.542c-0.786,0-1.391-0.576-1.391-1.493
		c0-0.972,0.635-1.542,1.439-1.542C24.523,15.551,25.087,16.157,25.087,17.044z M22.784,17.074c0,0.636,0.366,1.115,0.881,1.115
		c0.504,0,0.881-0.474,0.881-1.127c0-0.492-0.246-1.115-0.869-1.115C23.054,15.947,22.784,16.522,22.784,17.074z"/>
	<path fill="#D2D2D2" d="M25.754,16.522c0-0.342-0.006-0.636-0.024-0.905h0.462l0.018,0.569h0.024
		c0.132-0.39,0.45-0.636,0.804-0.636c0.06,0,0.102,0.007,0.15,0.019v0.497c-0.054-0.012-0.108-0.018-0.18-0.018
		c-0.372,0-0.635,0.282-0.708,0.678c-0.012,0.072-0.024,0.156-0.024,0.246v1.547h-0.521V16.522z"/>
	<path fill="#D2D2D2" d="M27.908,15.617l0.635,1.715c0.066,0.192,0.138,0.42,0.186,0.594h0.012c0.054-0.174,0.114-0.396,0.186-0.605
		l0.576-1.703h0.558l-0.792,2.068c-0.377,0.996-0.635,1.506-0.995,1.817c-0.258,0.228-0.516,0.318-0.648,0.342l-0.132-0.443
		c0.132-0.042,0.306-0.126,0.462-0.258c0.144-0.114,0.324-0.318,0.444-0.588c0.024-0.054,0.042-0.096,0.042-0.126
		s-0.012-0.072-0.036-0.138l-1.073-2.675H27.908z"/>
	<path fill="#D2D2D2" d="M32.792,15.113H32.78l-0.678,0.366L32,15.077l0.852-0.455h0.45v3.897h-0.51V15.113z"/>
</g>
<path fill="#5BC0DE" d="M46.352,16.432c0,1.79-1.449,3.24-3.24,3.24c-1.789,0-3.24-1.45-3.24-3.24c0-1.789,1.451-3.24,3.24-3.24
	C44.902,13.191,46.352,14.643,46.352,16.432"/>
<g>
	<path fill="#D2D2D2" d="M10.585,26.806c-0.192,0.096-0.576,0.191-1.067,0.191c-1.14,0-1.997-0.719-1.997-2.045
		c0-1.265,0.857-2.122,2.111-2.122c0.504,0,0.822,0.107,0.959,0.18l-0.126,0.426c-0.198-0.096-0.479-0.168-0.815-0.168
		c-0.947,0-1.577,0.605-1.577,1.667c0,0.989,0.57,1.625,1.553,1.625c0.318,0,0.642-0.065,0.852-0.168L10.585,26.806z"/>
	<path fill="#D2D2D2" d="M12.83,26.938l-0.042-0.366H12.77c-0.162,0.229-0.474,0.433-0.888,0.433c-0.587,0-0.887-0.414-0.887-0.834
		c0-0.701,0.624-1.085,1.745-1.079V25.03c0-0.239-0.066-0.671-0.66-0.671c-0.27,0-0.552,0.083-0.756,0.216l-0.12-0.349
		c0.24-0.155,0.587-0.258,0.953-0.258c0.888,0,1.104,0.606,1.104,1.188v1.086c0,0.252,0.012,0.497,0.048,0.695H12.83z
		 M12.751,25.456c-0.576-0.012-1.229,0.09-1.229,0.654c0,0.342,0.228,0.503,0.498,0.503c0.378,0,0.618-0.239,0.702-0.485
		c0.018-0.054,0.03-0.114,0.03-0.168V25.456z"/>
	<path fill="#D2D2D2" d="M14.75,23.201v0.834h0.756v0.401H14.75v1.565c0,0.36,0.102,0.563,0.396,0.563
		c0.138,0,0.24-0.018,0.306-0.036l0.024,0.396c-0.102,0.042-0.264,0.071-0.468,0.071c-0.246,0-0.443-0.077-0.569-0.222
		c-0.15-0.155-0.204-0.413-0.204-0.756v-1.583h-0.45v-0.401h0.45V23.34L14.75,23.201z"/>
	<path fill="#D2D2D2" d="M16.394,25.582c0.012,0.714,0.468,1.008,0.996,1.008c0.378,0,0.605-0.066,0.804-0.15l0.09,0.378
		c-0.186,0.084-0.504,0.18-0.965,0.18c-0.894,0-1.427-0.587-1.427-1.463c0-0.875,0.516-1.565,1.361-1.565
		c0.947,0,1.199,0.834,1.199,1.367c0,0.108-0.012,0.192-0.018,0.246H16.394z M17.941,25.204c0.006-0.336-0.138-0.857-0.731-0.857
		c-0.534,0-0.768,0.492-0.81,0.857H17.941z"/>
	<path fill="#D2D2D2" d="M21.607,24.035c-0.012,0.21-0.024,0.443-0.024,0.798v1.685c0,0.666-0.132,1.073-0.414,1.325
		c-0.282,0.264-0.689,0.348-1.055,0.348c-0.348,0-0.732-0.084-0.965-0.239l0.132-0.402c0.192,0.12,0.492,0.229,0.852,0.229
		c0.54,0,0.936-0.282,0.936-1.014v-0.324h-0.012c-0.162,0.271-0.474,0.486-0.923,0.486c-0.72,0-1.235-0.612-1.235-1.415
		c0-0.984,0.642-1.542,1.307-1.542c0.504,0,0.78,0.265,0.905,0.504h0.012l0.024-0.438H21.607z M21.061,25.181
		c0-0.09-0.006-0.168-0.03-0.24c-0.096-0.306-0.354-0.558-0.738-0.558c-0.503,0-0.863,0.426-0.863,1.098
		c0,0.569,0.288,1.043,0.857,1.043c0.324,0,0.618-0.203,0.731-0.539c0.03-0.09,0.042-0.192,0.042-0.282V25.181z"/>
	<path fill="#D2D2D2" d="M25.087,25.462c0,1.074-0.744,1.542-1.445,1.542c-0.786,0-1.391-0.576-1.391-1.493
		c0-0.972,0.635-1.542,1.439-1.542C24.523,23.969,25.087,24.575,25.087,25.462z M22.784,25.492c0,0.636,0.366,1.115,0.881,1.115
		c0.504,0,0.881-0.474,0.881-1.127c0-0.492-0.246-1.115-0.869-1.115C23.054,24.365,22.784,24.94,22.784,25.492z"/>
	<path fill="#D2D2D2" d="M25.754,24.94c0-0.342-0.006-0.636-0.024-0.905h0.462l0.018,0.569h0.024c0.132-0.39,0.45-0.636,0.804-0.636
		c0.06,0,0.102,0.007,0.15,0.019v0.497c-0.054-0.012-0.108-0.018-0.18-0.018c-0.372,0-0.635,0.282-0.708,0.678
		c-0.012,0.072-0.024,0.156-0.024,0.246v1.547h-0.521V24.94z"/>
	<path fill="#D2D2D2" d="M27.908,24.035l0.635,1.715c0.066,0.192,0.138,0.42,0.186,0.594h0.012c0.054-0.174,0.114-0.396,0.186-0.605
		l0.576-1.703h0.558l-0.792,2.068c-0.377,0.996-0.635,1.506-0.995,1.817c-0.258,0.228-0.516,0.318-0.648,0.342l-0.132-0.443
		c0.132-0.042,0.306-0.126,0.462-0.258c0.144-0.114,0.324-0.318,0.444-0.588c0.024-0.054,0.042-0.096,0.042-0.126
		s-0.012-0.072-0.036-0.138l-1.073-2.675H27.908z"/>
	<path fill="#D2D2D2" d="M31.646,26.938v-0.324l0.414-0.401c0.996-0.947,1.445-1.451,1.451-2.039c0-0.396-0.192-0.762-0.773-0.762
		c-0.354,0-0.648,0.181-0.828,0.33l-0.168-0.372c0.27-0.228,0.654-0.396,1.104-0.396c0.839,0,1.193,0.576,1.193,1.134
		c0,0.72-0.522,1.301-1.343,2.093l-0.312,0.287V26.5h1.751v0.438H31.646z"/>
</g>
<path fill="#D9534F" d="M46.352,24.854c0,1.79-1.449,3.24-3.24,3.24c-1.789,0-3.24-1.45-3.24-3.24c0-1.789,1.451-3.238,3.24-3.238
	C44.902,21.616,46.352,23.065,46.352,24.854"/>
<g>
	<path fill="#D2D2D2" d="M10.585,35.224c-0.192,0.096-0.576,0.191-1.067,0.191c-1.14,0-1.997-0.719-1.997-2.045
		c0-1.265,0.857-2.122,2.111-2.122c0.504,0,0.822,0.107,0.959,0.18l-0.126,0.426c-0.198-0.096-0.479-0.168-0.815-0.168
		c-0.947,0-1.577,0.605-1.577,1.667c0,0.989,0.57,1.625,1.553,1.625c0.318,0,0.642-0.065,0.852-0.168L10.585,35.224z"/>
	<path fill="#D2D2D2" d="M12.83,35.355l-0.042-0.366H12.77c-0.162,0.229-0.474,0.433-0.888,0.433c-0.587,0-0.887-0.414-0.887-0.834
		c0-0.701,0.624-1.085,1.745-1.079v-0.061c0-0.239-0.066-0.671-0.66-0.671c-0.27,0-0.552,0.083-0.756,0.216l-0.12-0.349
		c0.24-0.155,0.587-0.258,0.953-0.258c0.888,0,1.104,0.606,1.104,1.188v1.086c0,0.252,0.012,0.497,0.048,0.695H12.83z
		 M12.751,33.874c-0.576-0.012-1.229,0.09-1.229,0.654c0,0.342,0.228,0.503,0.498,0.503c0.378,0,0.618-0.239,0.702-0.485
		c0.018-0.054,0.03-0.114,0.03-0.168V33.874z"/>
	<path fill="#D2D2D2" d="M14.75,31.619v0.834h0.756v0.401H14.75v1.565c0,0.36,0.102,0.563,0.396,0.563
		c0.138,0,0.24-0.018,0.306-0.036l0.024,0.396c-0.102,0.042-0.264,0.071-0.468,0.071c-0.246,0-0.443-0.077-0.569-0.222
		c-0.15-0.155-0.204-0.413-0.204-0.756v-1.583h-0.45v-0.401h0.45v-0.695L14.75,31.619z"/>
	<path fill="#D2D2D2" d="M16.394,34c0.012,0.714,0.468,1.008,0.996,1.008c0.378,0,0.605-0.066,0.804-0.15l0.09,0.378
		c-0.186,0.084-0.504,0.18-0.965,0.18c-0.894,0-1.427-0.587-1.427-1.463c0-0.875,0.516-1.565,1.361-1.565
		c0.947,0,1.199,0.834,1.199,1.367c0,0.108-0.012,0.192-0.018,0.246H16.394z M17.941,33.622c0.006-0.336-0.138-0.857-0.731-0.857
		c-0.534,0-0.768,0.492-0.81,0.857H17.941z"/>
	<path fill="#D2D2D2" d="M21.607,32.453c-0.012,0.21-0.024,0.443-0.024,0.798v1.685c0,0.666-0.132,1.073-0.414,1.325
		c-0.282,0.264-0.689,0.348-1.055,0.348c-0.348,0-0.732-0.084-0.965-0.239l0.132-0.402c0.192,0.12,0.492,0.229,0.852,0.229
		c0.54,0,0.936-0.282,0.936-1.014v-0.324h-0.012c-0.162,0.271-0.474,0.486-0.923,0.486c-0.72,0-1.235-0.612-1.235-1.415
		c0-0.984,0.642-1.542,1.307-1.542c0.504,0,0.78,0.265,0.905,0.504h0.012l0.024-0.438H21.607z M21.061,33.599
		c0-0.09-0.006-0.168-0.03-0.24c-0.096-0.306-0.354-0.558-0.738-0.558c-0.503,0-0.863,0.426-0.863,1.098
		c0,0.569,0.288,1.043,0.857,1.043c0.324,0,0.618-0.203,0.731-0.539c0.03-0.09,0.042-0.192,0.042-0.282V33.599z"/>
	<path fill="#D2D2D2" d="M25.087,33.88c0,1.074-0.744,1.542-1.445,1.542c-0.786,0-1.391-0.576-1.391-1.493
		c0-0.972,0.635-1.542,1.439-1.542C24.523,32.387,25.087,32.993,25.087,33.88z M22.784,33.91c0,0.636,0.366,1.115,0.881,1.115
		c0.504,0,0.881-0.474,0.881-1.127c0-0.492-0.246-1.115-0.869-1.115C23.054,32.783,22.784,33.358,22.784,33.91z"/>
	<path fill="#D2D2D2" d="M25.754,33.358c0-0.342-0.006-0.636-0.024-0.905h0.462l0.018,0.569h0.024
		c0.132-0.39,0.45-0.636,0.804-0.636c0.06,0,0.102,0.007,0.15,0.019v0.497c-0.054-0.012-0.108-0.018-0.18-0.018
		c-0.372,0-0.635,0.282-0.708,0.678c-0.012,0.072-0.024,0.156-0.024,0.246v1.547h-0.521V33.358z"/>
	<path fill="#D2D2D2" d="M27.908,32.453l0.635,1.715c0.066,0.192,0.138,0.42,0.186,0.594h0.012c0.054-0.174,0.114-0.396,0.186-0.605
		l0.576-1.703h0.558l-0.792,2.068c-0.377,0.996-0.635,1.506-0.995,1.817c-0.258,0.228-0.516,0.318-0.648,0.342l-0.132-0.443
		c0.132-0.042,0.306-0.126,0.462-0.258c0.144-0.114,0.324-0.318,0.444-0.588c0.024-0.054,0.042-0.096,0.042-0.126
		s-0.012-0.072-0.036-0.138l-1.073-2.675H27.908z"/>
	<path fill="#D2D2D2" d="M31.772,34.75c0.15,0.096,0.498,0.246,0.863,0.246c0.678,0,0.888-0.433,0.881-0.756
		c-0.006-0.546-0.498-0.779-1.007-0.779h-0.294v-0.396h0.294c0.384,0,0.87-0.197,0.87-0.659c0-0.312-0.198-0.588-0.684-0.588
		c-0.312,0-0.612,0.138-0.78,0.258l-0.138-0.384c0.204-0.149,0.6-0.3,1.02-0.3c0.768,0,1.115,0.456,1.115,0.93
		c0,0.401-0.24,0.743-0.72,0.917v0.013c0.48,0.096,0.87,0.455,0.87,1.001c0,0.624-0.486,1.17-1.421,1.17
		c-0.438,0-0.821-0.139-1.013-0.265L31.772,34.75z"/>
</g>
<path fill="#5CB85C" d="M46.352,33.278c0,1.79-1.449,3.24-3.24,3.24c-1.789,0-3.24-1.45-3.24-3.24c0-1.789,1.451-3.238,3.24-3.238
	C44.902,30.04,46.352,31.489,46.352,33.278"/>
<g>
	<path fill="#D2D2D2" d="M10.585,43.642c-0.192,0.096-0.576,0.191-1.067,0.191c-1.14,0-1.997-0.719-1.997-2.045
		c0-1.265,0.857-2.122,2.111-2.122c0.504,0,0.822,0.107,0.959,0.18l-0.126,0.426c-0.198-0.096-0.479-0.168-0.815-0.168
		c-0.947,0-1.577,0.605-1.577,1.667c0,0.989,0.57,1.625,1.553,1.625c0.318,0,0.642-0.065,0.852-0.168L10.585,43.642z"/>
	<path fill="#D2D2D2" d="M12.83,43.773l-0.042-0.366H12.77c-0.162,0.229-0.474,0.433-0.888,0.433c-0.587,0-0.887-0.414-0.887-0.834
		c0-0.701,0.624-1.085,1.745-1.079v-0.061c0-0.239-0.066-0.671-0.66-0.671c-0.27,0-0.552,0.083-0.756,0.216l-0.12-0.349
		c0.24-0.155,0.587-0.258,0.953-0.258c0.888,0,1.104,0.606,1.104,1.188v1.086c0,0.252,0.012,0.497,0.048,0.695H12.83z
		 M12.751,42.292c-0.576-0.012-1.229,0.09-1.229,0.654c0,0.342,0.228,0.503,0.498,0.503c0.378,0,0.618-0.239,0.702-0.485
		c0.018-0.054,0.03-0.114,0.03-0.168V42.292z"/>
	<path fill="#D2D2D2" d="M14.75,40.037v0.834h0.756v0.401H14.75v1.565c0,0.36,0.102,0.563,0.396,0.563
		c0.138,0,0.24-0.018,0.306-0.036l0.024,0.396c-0.102,0.042-0.264,0.071-0.468,0.071c-0.246,0-0.443-0.077-0.569-0.222
		c-0.15-0.155-0.204-0.413-0.204-0.756v-1.583h-0.45v-0.401h0.45v-0.695L14.75,40.037z"/>
	<path fill="#D2D2D2" d="M16.394,42.418c0.012,0.714,0.468,1.008,0.996,1.008c0.378,0,0.605-0.066,0.804-0.15l0.09,0.378
		c-0.186,0.084-0.504,0.18-0.965,0.18c-0.894,0-1.427-0.587-1.427-1.463c0-0.875,0.516-1.565,1.361-1.565
		c0.947,0,1.199,0.834,1.199,1.367c0,0.108-0.012,0.192-0.018,0.246H16.394z M17.941,42.04c0.006-0.336-0.138-0.857-0.731-0.857
		c-0.534,0-0.768,0.492-0.81,0.857H17.941z"/>
	<path fill="#D2D2D2" d="M21.607,40.871c-0.012,0.21-0.024,0.443-0.024,0.798v1.685c0,0.666-0.132,1.073-0.414,1.325
		c-0.282,0.264-0.689,0.348-1.055,0.348c-0.348,0-0.732-0.084-0.965-0.239l0.132-0.402c0.192,0.12,0.492,0.229,0.852,0.229
		c0.54,0,0.936-0.282,0.936-1.014v-0.324h-0.012c-0.162,0.271-0.474,0.486-0.923,0.486c-0.72,0-1.235-0.612-1.235-1.415
		c0-0.984,0.642-1.542,1.307-1.542c0.504,0,0.78,0.265,0.905,0.504h0.012l0.024-0.438H21.607z M21.061,42.017
		c0-0.09-0.006-0.168-0.03-0.24c-0.096-0.306-0.354-0.558-0.738-0.558c-0.503,0-0.863,0.426-0.863,1.098
		c0,0.569,0.288,1.043,0.857,1.043c0.324,0,0.618-0.203,0.731-0.539c0.03-0.09,0.042-0.192,0.042-0.282V42.017z"/>
	<path fill="#D2D2D2" d="M25.087,42.298c0,1.074-0.744,1.542-1.445,1.542c-0.786,0-1.391-0.576-1.391-1.493
		c0-0.972,0.635-1.542,1.439-1.542C24.523,40.805,25.087,41.411,25.087,42.298z M22.784,42.328c0,0.636,0.366,1.115,0.881,1.115
		c0.504,0,0.881-0.474,0.881-1.127c0-0.492-0.246-1.115-0.869-1.115C23.054,41.201,22.784,41.776,22.784,42.328z"/>
	<path fill="#D2D2D2" d="M25.754,41.776c0-0.342-0.006-0.636-0.024-0.905h0.462l0.018,0.569h0.024
		c0.132-0.39,0.45-0.636,0.804-0.636c0.06,0,0.102,0.007,0.15,0.019v0.497c-0.054-0.012-0.108-0.018-0.18-0.018
		c-0.372,0-0.635,0.282-0.708,0.678c-0.012,0.072-0.024,0.156-0.024,0.246v1.547h-0.521V41.776z"/>
	<path fill="#D2D2D2" d="M27.908,40.871l0.635,1.715c0.066,0.192,0.138,0.42,0.186,0.594h0.012c0.054-0.174,0.114-0.396,0.186-0.605
		l0.576-1.703h0.558l-0.792,2.068c-0.377,0.996-0.635,1.506-0.995,1.817c-0.258,0.228-0.516,0.318-0.648,0.342l-0.132-0.443
		c0.132-0.042,0.306-0.126,0.462-0.258c0.144-0.114,0.324-0.318,0.444-0.588c0.024-0.054,0.042-0.096,0.042-0.126
		s-0.012-0.072-0.036-0.138l-1.073-2.675H27.908z"/>
	<path fill="#D2D2D2" d="M33.277,43.773v-1.062h-1.811v-0.348l1.739-2.488h0.57v2.422h0.545v0.414h-0.545v1.062H33.277z
		 M33.277,42.298v-1.301c0-0.204,0.006-0.408,0.018-0.611h-0.018c-0.12,0.228-0.216,0.396-0.324,0.575L32,42.286v0.012H33.277z"/>
</g>
<path fill="#CB79A7" d="M46.352,41.702c0,1.789-1.449,3.24-3.24,3.24c-1.789,0-3.24-1.451-3.24-3.24c0-1.79,1.451-3.239,3.24-3.239
	C44.902,38.463,46.352,39.912,46.352,41.702"/>
<g>
	<path fill="#D2D2D2" d="M10.585,52.059c-0.192,0.096-0.576,0.191-1.067,0.191c-1.14,0-1.997-0.719-1.997-2.045
		c0-1.265,0.857-2.122,2.111-2.122c0.504,0,0.822,0.107,0.959,0.18l-0.126,0.426c-0.198-0.096-0.479-0.168-0.815-0.168
		c-0.947,0-1.577,0.605-1.577,1.667c0,0.989,0.57,1.625,1.553,1.625c0.318,0,0.642-0.065,0.852-0.168L10.585,52.059z"/>
	<path fill="#D2D2D2" d="M12.83,52.19l-0.042-0.366H12.77c-0.162,0.229-0.474,0.433-0.888,0.433c-0.587,0-0.887-0.414-0.887-0.834
		c0-0.701,0.624-1.085,1.745-1.079v-0.061c0-0.239-0.066-0.671-0.66-0.671c-0.27,0-0.552,0.084-0.756,0.216l-0.12-0.349
		c0.24-0.155,0.587-0.258,0.953-0.258c0.888,0,1.104,0.606,1.104,1.188v1.086c0,0.252,0.012,0.497,0.048,0.695H12.83z
		 M12.751,50.709c-0.576-0.012-1.229,0.09-1.229,0.654c0,0.342,0.228,0.503,0.498,0.503c0.378,0,0.618-0.239,0.702-0.485
		c0.018-0.054,0.03-0.114,0.03-0.168V50.709z"/>
	<path fill="#D2D2D2" d="M14.75,48.454v0.834h0.756v0.401H14.75v1.565c0,0.359,0.102,0.563,0.396,0.563
		c0.138,0,0.24-0.018,0.306-0.036l0.024,0.396c-0.102,0.042-0.264,0.071-0.468,0.071c-0.246,0-0.443-0.077-0.569-0.222
		c-0.15-0.155-0.204-0.414-0.204-0.756v-1.583h-0.45v-0.401h0.45v-0.695L14.75,48.454z"/>
	<path fill="#D2D2D2" d="M16.394,50.835c0.012,0.714,0.468,1.008,0.996,1.008c0.378,0,0.605-0.066,0.804-0.15l0.09,0.378
		c-0.186,0.084-0.504,0.18-0.965,0.18c-0.894,0-1.427-0.587-1.427-1.463c0-0.875,0.516-1.565,1.361-1.565
		c0.947,0,1.199,0.834,1.199,1.367c0,0.108-0.012,0.192-0.018,0.246H16.394z M17.941,50.457c0.006-0.336-0.138-0.857-0.731-0.857
		c-0.534,0-0.768,0.492-0.81,0.857H17.941z"/>
	<path fill="#D2D2D2" d="M21.607,49.288c-0.012,0.21-0.024,0.443-0.024,0.798v1.685c0,0.666-0.132,1.073-0.414,1.325
		c-0.282,0.264-0.689,0.348-1.055,0.348c-0.348,0-0.732-0.084-0.965-0.239l0.132-0.402c0.192,0.12,0.492,0.229,0.852,0.229
		c0.54,0,0.936-0.282,0.936-1.014v-0.324h-0.012c-0.162,0.271-0.474,0.486-0.923,0.486c-0.72,0-1.235-0.612-1.235-1.415
		c0-0.984,0.642-1.542,1.307-1.542c0.504,0,0.78,0.265,0.905,0.504h0.012l0.024-0.438H21.607z M21.061,50.434
		c0-0.09-0.006-0.168-0.03-0.24c-0.096-0.306-0.354-0.558-0.738-0.558c-0.503,0-0.863,0.426-0.863,1.098
		c0,0.569,0.288,1.043,0.857,1.043c0.324,0,0.618-0.203,0.731-0.539c0.03-0.09,0.042-0.192,0.042-0.282V50.434z"/>
	<path fill="#D2D2D2" d="M25.087,50.715c0,1.074-0.744,1.542-1.445,1.542c-0.786,0-1.391-0.576-1.391-1.493
		c0-0.972,0.635-1.542,1.439-1.542C24.523,49.222,25.087,49.828,25.087,50.715z M22.784,50.745c0,0.636,0.366,1.115,0.881,1.115
		c0.504,0,0.881-0.474,0.881-1.127c0-0.492-0.246-1.115-0.869-1.115C23.054,49.618,22.784,50.193,22.784,50.745z"/>
	<path fill="#D2D2D2" d="M25.754,50.193c0-0.342-0.006-0.636-0.024-0.905h0.462l0.018,0.569h0.024
		c0.132-0.39,0.45-0.636,0.804-0.636c0.06,0,0.102,0.007,0.15,0.019v0.497c-0.054-0.012-0.108-0.018-0.18-0.018
		c-0.372,0-0.635,0.282-0.708,0.678c-0.012,0.072-0.024,0.156-0.024,0.246v1.547h-0.521V50.193z"/>
	<path fill="#D2D2D2" d="M27.908,49.288l0.635,1.715c0.066,0.192,0.138,0.42,0.186,0.594h0.012c0.054-0.174,0.114-0.396,0.186-0.605
		l0.576-1.703h0.558l-0.792,2.068c-0.377,0.996-0.635,1.506-0.995,1.817c-0.258,0.228-0.516,0.318-0.648,0.342l-0.132-0.443
		c0.132-0.042,0.306-0.126,0.462-0.258C28.1,52.7,28.28,52.496,28.4,52.227c0.024-0.054,0.042-0.096,0.042-0.126
		s-0.012-0.072-0.036-0.138l-1.073-2.675H27.908z"/>
	<path fill="#D2D2D2" d="M33.973,48.736h-1.487l-0.15,1.001c0.09-0.012,0.174-0.023,0.318-0.023c0.3,0,0.6,0.065,0.839,0.21
		c0.306,0.174,0.558,0.51,0.558,1.001c0,0.762-0.605,1.332-1.451,1.332c-0.426,0-0.785-0.12-0.971-0.24l0.132-0.402
		c0.162,0.097,0.48,0.217,0.833,0.217c0.498,0,0.923-0.324,0.923-0.846c-0.006-0.504-0.342-0.864-1.121-0.864
		c-0.222,0-0.396,0.024-0.54,0.042l0.251-1.87h1.865V48.736z"/>
</g>
<path fill="#F0AD4E" d="M46.352,50.126c0,1.789-1.449,3.24-3.24,3.24c-1.789,0-3.24-1.451-3.24-3.24c0-1.79,1.451-3.24,3.24-3.24
	C44.902,46.886,46.352,48.336,46.352,50.126"/>
<g>
	<path fill-rule="evenodd" clip-rule="evenodd" fill="#5BC0DE" d="M81.63,15.677c6.853,0,13.173,3.71,16.512,9.696L81.63,34.584
		V15.677z"/>
	<path fill-rule="evenodd" clip-rule="evenodd" fill="#D9534F" d="M98.142,25.373c5.087,9.119,1.818,20.637-7.302,25.724
		c-1.585,0.885-3.29,1.536-5.06,1.935l-4.15-18.447L98.142,25.373z"/>
	<path fill-rule="evenodd" clip-rule="evenodd" fill="#5CB85C" d="M85.779,53.031c-9.09,2.044-18.313-2.837-21.735-11.501
		l17.586-6.946L85.779,53.031z"/>
	<path fill-rule="evenodd" clip-rule="evenodd" fill="#CB79A7" d="M64.044,41.529c-0.615-1.559-1.021-3.191-1.206-4.856
		l18.792-2.088L64.044,41.529z"/>
	<path fill-rule="evenodd" clip-rule="evenodd" fill="#F0AD4E" d="M62.838,36.672c-1.152-10.379,6.326-19.727,16.704-20.879
		c0.694-0.077,1.391-0.115,2.088-0.115v18.906L62.838,36.672z"/>
</g>
<g>
</g>
<g>
</g>
<g>
</g>
<g>
</g>
<g>
</g>
<g>
</g>
</svg>
