<?xml version="1.0" encoding="utf-8"?>
<!-- Generator: Adobe Illustrator 16.0.4, SVG Export Plug-In . SVG Version: 6.00 Build 0)  -->
<!DOCTYPE svg PUBLIC "-//W3C//DTD SVG 1.1//EN" "http://www.w3.org/Graphics/SVG/1.1/DTD/svg11.dtd">
<svg version="1.1" id="Isolation_Mode" xmlns="http://www.w3.org/2000/svg" xmlns:xlink="http://www.w3.org/1999/xlink" x="0px"
	 y="0px" width="352px" height="258px" viewBox="0 0 352 258" enable-background="new 0 0 352 258" xml:space="preserve">
<g>
	<path fill-rule="evenodd" clip-rule="evenodd" fill="#D2D2D2" d="M146.001,248.015c-7.858,0.103-15.716,0.277-23.575,0.296
		c-27.112,0.063-54.226,0.047-81.338,0.147c-2.364,0.009-2.496-0.935-2.481-2.923c0.118-16.367,0.139-49.102,0.139-49.102
		c0.053-4.292-2.05-3.15-2.05-3.15s-0.944,0.596-1.32-0.943s0.769-1.17,0.769-1.17c0.437-0.379,2.688,1.407,2.64-4.939
		c0,0-0.124-42.644-0.123-43.495c0.006-5.735-1.578-7.485-3.328-6.735c-0.171,0.073-0.423,0.225-0.332-0.291
		c0.107-0.607,0.582-1.125,0.582-1.125s3.167,0.5,3.083-4.267c-0.263-14.99-0.108-29.986-0.155-44.98
		c-0.006-1.725,0.828-4.013-2.375-3.796c-0.556,0.038-0.99-0.493-0.86-0.983c0.103-0.388,0.646-0.941,0.991-0.939
		c2.542,0.01,2.255-1.745,2.242-3.38c-0.133-15.868-0.259-31.736-0.39-47.605c-0.012-1.5,0.132-3.06-1.942-3.459
		c-0.573-0.109-1.217-0.586-0.877-1.312c0.164-0.352,0.753-0.603,1.195-0.709c3.204-0.769,4.36,0.453,4.352,4.501
		c-0.03,14.117-0.085,28.234-0.071,42.352c0.057,56.983,0.136,113.966,0.21,170.95c0.001,0.874,0.11,1.757,0.028,2.622
		c-0.16,1.688,0.37,2.335,2.229,2.473c8.995,0.663,9.023,0.731,9.084-8.258c0.328-48.364-0.04-96.728-0.303-145.092
		c-0.001-0.25,0-0.5-0.008-0.749c-0.272-8.483-0.273-8.483,8.487-7.45c-0.088,1.588-1.387,1.629-2.442,1.746
		c-2.582,0.285-3.281,1.904-3.237,4.174c0.017,0.874-0.011,1.749-0.011,2.624c-0.001,49.223-0.002,98.446,0.001,147.669
		c0,5.455,0.011,5.466,5.307,5.472c8.995,0.011,17.99,0.007,26.985,0.002c6.071-0.004,6.081-0.009,6.082-5.949
		c0.003-48.6-0.011-97.198,0.04-145.796c0.002-2.076-0.785-4.512,1.552-6.164c1.032,1.479,0.56,3.024,0.561,4.465
		c0.028,49.723,0.023,99.446,0.024,149.168c0,4.22,0.005,4.219,4.242,4.226c2.624,0.004,5.249-0.014,7.873,0.01
		c11.417,0.092,22.835-0.018,34.252,0.099C143.269,246.262,145.381,245.52,146.001,248.015z"/>
	<path fill-rule="evenodd" clip-rule="evenodd" fill="#D2D2D2" d="M216.411,125.555c-0.103-0.279-0.013-0.463,0.271-0.551
		c6.309-0.779,12.64-0.222,18.959-0.31c0.163,1.709,0.061,1.78-2.971,2.074c-1.299,0.021-2.602-0.013-3.903,0.014
		c-1.077-0.041-2.133,0.239-3.209,0.231c-1.116-0.167-2.24-0.247-3.365-0.162c-3.461,0.263-3.713,1.027-3.691,4.485
		c0.037,5.955,1.055,11.926-0.038,17.873c-0.422,2.294,0.596,4.425,0.588,6.685c-0.034,10.124,0.464,20.277-0.128,30.368
		c-1.055,17.969-0.348,35.934-0.617,53.896c-0.026,1.729-0.273,3.518,0.662,5.138c0.169,0.424,0.233,0.862,0.204,1.316
		c-0.08,0.48-0.353,0.799-0.814,0.954c-4.861,0.325-9.752-0.431-14.601,0.392c-8.5,0.304-17,0.391-25.5-0.008
		c0.598-2.23,2.49-1.674,3.965-1.706c4.978-0.107,9.958-0.01,14.938-0.06c1.32-0.014,2.798,0.342,3.733-1.071
		c0.63-1.919,0.094-3.968,0.677-5.888c0.577-1.836,0.358-3.725,0.359-5.589c0.016-25.984,0.011-51.97,0.006-77.952
		c0.025-1.59,0.039-3.182-0.502-4.713c-0.425-2.075-0.345-4.197-0.263-6.275c0.124-3.178-1.096-4.447-4.318-4.354
		c-4.562,0.133-9.135,0.127-13.707,0.006c-5.701-0.098-11.397,0.015-17.093-0.061c-1.572-0.021-3.268,0.292-4.526-1.098
		c0.433-2.073,1.945-1.771,3.502-1.742c4.747,0.087,9.497-0.037,14.242,0.076c2.108,0.05,2.696-0.634,2.687-2.792
		c-0.144-32.236-0.169-64.474-0.271-96.71c-0.019-5.911-0.118-5.91-6.212-5.908c-1.874,0-3.749,0.017-5.623-0.025
		c-0.576-0.013-1.336,0.063-1.441-0.79c-0.095-0.772,0.525-1.107,1.113-1.239c0.72-0.161,1.48-0.173,2.225-0.184
		c7.246-0.102,14.492-0.213,21.739-0.255c0.999-0.006,2.599-0.548,2.716,1.081c0.114,1.577-1.552,1.477-2.538,1.529
		c-2.104,0.11-4.244,0.079-6.333-0.179c-2.501-0.31-3.205,0.681-3.19,3.068c0.061,10.121-0.053,20.243-0.047,30.365
		c0.014,22.741,0.14,45.482,0.007,68.223c-0.02,3.286,0.982,3.908,3.96,3.671c4.227-0.338,8.49-0.223,12.737-0.291
		c4.348-0.07,4.533,0.059,4.559,4.627c0.029,5.242-0.085,10.486-0.11,15.729c-0.133,27.608-0.266,55.218-0.378,82.827
		c-0.021,5.52,0.02,5.52,5.573,5.461c5.532-0.059,5.482-0.059,5.491-5.781c0.043-32.613,0.111-65.226,0.186-97.839
		c0.001-0.354,0.184-0.706,0.282-1.061C215.973,135.888,215.957,130.721,216.411,125.555z"/>
	<path fill-rule="evenodd" clip-rule="evenodd" fill="#D2D2D2" d="M107.736,246.535c-3.125,0.002-6.258-0.133-9.373,0.05
		c-2.612,0.152-3.457-0.769-3.428-3.405c0.121-11.123,0.046-22.248,0.044-33.373c-0.005-39.25-0.01-78.5-0.015-117.749
		c0-0.982,0-1.964,0-2.946c-0.239-0.003-0.478-0.005-0.718-0.008c0,1.37,0,2.741,0,4.111c0.004,49.749,0.009,99.499,0.013,149.248
		c0,4.785-0.003,4.789-4.932,4.789c-10.75,0.002-21.5-0.074-32.249,0.056c-2.657,0.032-3.383-0.854-3.38-3.437
		c0.062-51.374,0.057-102.749,0.014-154.123c-0.002-3.149,1.171-4.715,4.411-4.511c0.861,0.055,1.777,0.123,2.377-0.736
		c3.318-0.004,6.637-0.058,9.953,0.013c1.423,0.03,2.349-0.039,2.127-1.917c-0.272-2.311-0.256-4.655-0.365-6.985
		c2.301-0.263,1.544,1.53,1.772,2.649c0.403,1.985-0.846,4.214,0.882,6.006c5.969,0.609,11.966,0.585,17.944,0.449
		c2.416-0.055,2.888,0.478,2.887,2.857c-0.031,51.612,0.07,103.226,0.014,154.838c-0.003,3.089,0.99,3.863,3.784,3.597
		c2.724-0.26,5.475-0.244,8.214-0.35C107.925,245.945,107.933,246.238,107.736,246.535z"/>
	<path fill-rule="evenodd" clip-rule="evenodd" fill="#D2D2D2" d="M107.736,246.535c-0.008-0.292-0.016-0.584-0.023-0.877
		c-0.071-21.466-0.129-42.932-0.222-64.397c-0.023-5.364-0.196-10.729-0.223-16.094c-0.019-3.63,0.525-3.886,4.147-3.723
		c4.732,0.214,9.48,0.06,14.219,0.173c1.553,0.036,1.932-0.661,1.905-2.007c-0.073-3.616-0.198-7.234-0.108-10.848
		c0.042-1.695-0.603-2.155-2.148-2.138c-3.74,0.043-7.48-0.013-11.221-0.029c-0.87-1.882-0.301-2.865,1.806-2.859
		c8.333,0.023,16.667,0.057,25,0.076c1,0.004,2.202-0.153,2.306,1.207c0.108,1.422-0.906,1.889-2.212,1.839
		c-2.736-0.104-5.476-0.129-8.206-0.31c-1.773-0.117-2.796,0.186-2.709,2.34c0.136,3.353,0.119,6.721-0.054,10.07
		c-0.112,2.16,0.671,2.756,2.757,2.705c5.099-0.125,10.203-0.033,15.305-0.012c0.745,0.004,1.503,0.057,2.019,0.733
		c-2.954,1.101-6.024,0.102-8.889,0.538c1.884-0.092,3.911,0.124,5.908-0.07c2.709-0.264,3.491,0.977,3.424,3.475
		c-0.248,9.21-0.078,18.423-0.299,27.639c-0.316,13.182-0.173,26.379-0.078,39.568c0.017,2.321-0.769,4.707,0.388,6.971
		c0.012,0.494,0.023,0.986,0.035,1.48c-0.91,0.826,0.444,1.43,0.214,2.198c-0.134,0.352-0.275,0.689-0.429,1.033
		c-1.251,1.461-2.098,0.792-2.827-0.531c-0.372-0.954-0.446-1.952-0.446-2.949c0.001-20.076-0.159-40.152,0.07-60.226
		c0.13-4.494-0.196-8.992-0.03-13.487c0.077-2.066-0.695-2.978-2.795-2.972c-9.87,0.027-19.74-0.003-29.61,0.01
		c-1.045,0-1.976,0.23-2.706,1.019c-1.105,1.57-0.806,3.372-0.81,5.093c-0.028,12.241,0.229,24.49-0.09,36.724
		c-0.268,10.213,0.27,20.431-0.584,30.647c-0.469,5.611,0.26,6.002,5.788,6.02c8.869,0.028,17.739-0.012,26.608,0.023
		c1.727,0.007,3.525-0.217,5.063,0.912c0.922,0.748,0.896,1.599,0.272,2.514c-0.749,0-1.498,0-2.247,0.001
		c-1.083-1.263-2.549-0.732-3.847-0.737c-10.18-0.043-20.36-0.007-30.54-0.047C110.308,247.225,108.854,247.717,107.736,246.535z"/>
	<path fill-rule="evenodd" clip-rule="evenodd" fill="#D2D2D2" d="M218.742,247.235c0.004-0.244,0.006-0.487,0.008-0.731
		c1.3-1.292,2.976-1.031,4.555-1.043c5.93-0.042,11.861-0.023,17.793-0.01c1.614,0.004,3.208-0.068,4.757-0.572
		c1.848-0.374,3.726-0.368,5.593-0.34c2.544,0.038,3.62-1.194,3.574-3.653c-0.021-1.121,0.024-2.245,0.024-3.366
		c0.001-34.551,0.002-69.101-0.003-103.65c0-1.743,0.114-3.497-0.353-5.2c-2.169-3.263-5.434-1.918-8.143-1.559
		c-3.858,0.511-7.679,0.362-11.515,0.351c-1.153-0.004-2.605,0.079-2.785-1.701c1.247-0.2,2.656,0.483,3.727-0.684
		c0.776-2.312,0.156-4.713,0.441-7.045c0.29-2.373-0.591-3.504-2.982-3.441c-0.756,0.271-1.509,0.354-2.252-0.04
		c-1.289,0.438-2.576,0.438-3.863,0c-0.198,0.346-0.408,0.338-0.627,0.021c-0.909,0.247-1.819,0.524-2.709-0.06l0.01,0.003
		c-0.388-0.484-0.441-0.967,0.01-1.446l0.116-0.186l0.212,0.052c6.414-0.672,12.848-0.099,19.268-0.31
		c1.467-0.048,2.97,0.315,4.397-0.311c0.253-0.007,0.507-0.014,0.76-0.021c0.373,0.417,1.046,0.245,1.394,0.71
		c0.069,0.164,0.163,0.324,0.195,0.494c0.014,0.073-0.1,0.172-0.154,0.258c-0.225,0.257-0.452,0.51-0.682,0.761l0.011-0.006
		c-0.884,0.577-1.786,0.323-2.688,0.056l0.095-0.006c-1.916,0.578-3.89,0.337-5.823,0.262c-1.916-0.074-2.627,0.578-2.527,2.513
		c0.087,1.688,0.286,3.419-0.269,5.089l0.027-0.081c0.114,1.924,1.203,2.373,3.002,2.331c4.724-0.111,9.453-0.064,14.18-0.018
		c1.213,0.012,2.49-0.354,3.64,0.371c0.627,2.635-0.068,5.261-0.071,7.892c-0.024,29.539-0.083,59.076-0.127,88.615
		c-0.01,6.605,0.004,13.21,0.003,19.814c0,4.127,0.005,4.28,4.294,4.049c1.93-0.105,4.273,1.205,5.795-1.147
		c0.295-0.24,0.619-0.279,0.973-0.149c0.797,0.535,1.694,0.639,2.631,0.591c7.113-0.306,14.199-1.071,21.328-0.806
		c2.249,0.084,4.493,0.109,6.689,0.701c1.855,0.247,3.771-0.141,5.575,0.518c0.733,0.268,1.347,0.738,1.157,1.646
		c-0.156,0.748-0.815,0.821-1.445,0.851c-0.499,0.021-1,0.014-1.499,0.014c-27.85,0-55.699,0.002-83.549-0.004
		C220.17,247.609,219.4,247.732,218.742,247.235z"/>
	<path fill-rule="evenodd" clip-rule="evenodd" fill="none" stroke="#D2D2D2" stroke-width="3" stroke-miterlimit="10" d="
		M259.882,42.54c0.262,0.686,0.495,1.384,0.79,2.055c3.215,7.326,3.076,14.15-2.924,20.147c-0.776,0.778-1.415,1.695-2.118,2.547
		c-0.415,0.629-0.901,1.175-1.646,1.424c-5.63,5.677-13.059,7.969-20.281,10.545c-1.87,0.667-2.239,1.3-1.898,3.109
		c0.921,4.886,1.926,16.902,1.926,16.902s-5.672-10.665-7.775-15.169c-0.95-2.035-2.023-4.136-4.954-3.377
		c-7.594-2.006-14.29-5.465-20.083-10.966c-12.021-11.416-7.344-31.694,4.772-38.407c9.122-5.054,18.747-6.472,28.92-4.377
		c3.542,0.729,7.034,1.608,10.368,3.094C251.146,32.816,256.452,36.543,259.882,42.54z"/>
	<path fill-rule="evenodd" clip-rule="evenodd" fill="#D2D2D2" d="M150.303,244.406c0.003-0.353,0.007-0.705,0.011-1.06
		c-0.134-0.36-0.033-0.635,0.304-0.822c0.116,2.351,0.756,4.031,3.708,3.389c1.066-0.231,2.256-0.177,3.341,0.02
		c3.255,0.587,4.529-0.749,4.111-3.931c1.018-1.023,0.713-2.334,0.713-3.547c0.019-30.18,0.007-60.36,0.011-90.541
		c0-0.623,0.169-1.312-0.056-1.855c-0.401-0.97-0.489,0.317-0.82,0.192c-0.19-0.132-0.372-0.272-0.548-0.423
		c0.345-2.199-0.294-4.465,0.448-6.637c7.376,0.049,14.753,0.098,22.13,0.147c-0.728,2.036-2.561,1.694-4.098,1.811
		c-3.118,0.235-6.24-0.175-9.363-0.087c-4.622,0.132-5.097,0.521-5.112,5.262c-0.031,9.868,0.002,19.737-0.013,29.606
		c-0.032,21.232,0.071,42.466-0.005,63.698c-0.018,5.041,0.015,5.052,5.187,5.059c8.995,0.011,17.99-0.014,26.985,0.017
		c1.722,0.007,3.537-0.28,5.002,1.036c-0.323,2.13-2.01,1.471-3.242,1.482c-5.738,0.057-11.477,0.003-17.214,0.044
		c-1.196,0.009-2.526-0.426-3.526,0.685c-1.252,0.013-2.505,0.025-3.758,0.038c-6.922-0.603-13.867-0.538-20.803-0.755
		C151.872,247.177,149.603,247.544,150.303,244.406z"/>
	<path fill-rule="evenodd" clip-rule="evenodd" fill="#D2D2D2" d="M311.71,238.994c0.288,1.005,0.312,2.01,0.001,3.015
		c-0.499,0.751-0.523,1.497,0.021,2.238c1.142,1.503,2.762,0.835,4.177,0.833c3.864-0.007,7.729-0.147,11.593-0.235
		c3.114,0.073,6.231,0.104,9.345,0.239c1.415,0.061,3.006-0.214,4.522,2.056c-10.58,1.055-20.658,0.58-30.734,0.196
		c-1.526,0.484-2.633,0.07-2.08-1.657c1.116-3.487,0.481-7.006,0.563-10.513c0.256-3.451-0.804-7.021,0.94-10.335
		c2.058-0.179,1.207,1.432,1.266,2.271C311.605,231.059,310.962,235.047,311.71,238.994z"/>
	<path fill-rule="evenodd" clip-rule="evenodd" fill="#D2D2D2" d="M310.161,235.094c-0.27,3.692,1.101,7.49-0.915,11.097
		c-0.508,0.909,0.734,0.964,1.389,1.146c-3.949,0.73-7.941,0.368-11.91,0.391c-30.788,0.169-61.577,0.276-92.365,0.393
		c-0.867,0.004-1.734-0.104-2.602-0.16c3.295-1.558,6.781-0.357,10.166-0.684c1.593-0.155,3.211-0.035,4.818-0.04
		c29.332,0,58.663,0,87.994,0c-2.15-2.258-4.796-1.029-7.148-1.601c1.122-2.35,3.344-1.699,5.158-1.685
		c2.699,0.023,3.719-1.056,3.705-3.728C308.441,238.415,307.773,236.184,310.161,235.094z"/>
	<path fill-rule="evenodd" clip-rule="evenodd" fill="#D2D2D2" d="M74.87,84.267c-1.513-0.438-1.401-0.455-1.638-2.012
		c-0.336-2.215,1.039-4.698-1.016-6.644c-3.357,0.067-6.716,0.08-10.069,0.233c-1.137,0.052-2.482,0.503-2.608-1.099
		c-0.125-1.591,1.315-1.521,2.433-1.538c6.729-0.094,13.458-0.167,20.186-0.257c1.12-0.016,2.239-0.073,3.357-0.123
		c1.068-0.048,2.224,0.107,2.253,1.354c0.026,1.149-1.094,1.61-2.13,1.612c-2.735,0.003-5.473-0.036-8.204-0.187
		c-1.748-0.096-2.482,0.479-2.41,2.314C75.108,80.031,74.933,82.152,74.87,84.267z"/>
	<path fill-rule="evenodd" clip-rule="evenodd" fill="#D2D2D2" d="M150.303,244.406c0.093,2.144,1.559,2.207,3.165,2.127
		c6.36-0.313,12.651,1.229,19.021,0.728c0.759-0.06,1.504,0.037,2.012,0.729c-8.75,0.438-17.5,0.341-26.251,0.024
		c0-0.752,0.001-1.504,0.001-2.255l0.009-0.009C149.344,245.917,149.628,244.864,150.303,244.406z"/>
	<path fill-rule="evenodd" clip-rule="evenodd" fill="#D2D2D2" d="M233.434,114.59c2.354-0.484,3.666,0.257,3.323,2.872
		c-0.332,2.531,0.832,5.216-0.782,7.614c-6.431-0.024-12.861-0.048-19.292-0.072c0.551-1.314,1.671-0.758,2.589-0.754
		c4.611,0.022,9.23-0.065,13.831,0.178c2.519,0.134,3.312-0.713,2.978-3.111c-0.169-1.222-0.168-2.506,0.002-3.728
		C236.378,115.457,235.249,114.764,233.434,114.59z"/>
	<path fill-rule="evenodd" clip-rule="evenodd" fill="#D2D2D2" d="M247.995,112.313c-0.759,0.903-1.808,0.681-2.777,0.68
		c-6.963-0.009-13.925-0.038-20.888-0.06c5.004-1.133,10.09-0.369,15.132-0.641C242.297,112.139,245.15,112.296,247.995,112.313z"/>
	<path fill-rule="evenodd" clip-rule="evenodd" fill="#D2D2D2" d="M259.155,125.026c-6.032-0.001-12.066-0.046-18.1,0.02
		c-1.963,0.022-3.145-0.458-2.722-2.703c0.301,1.909,1.593,2.088,3.231,2.063c5.829-0.087,11.659-0.056,17.489-0.07
		C259.1,124.565,259.134,124.795,259.155,125.026z"/>
	<path fill-rule="evenodd" clip-rule="evenodd" fill="#D2D2D2" d="M238.307,122.424c0.026-9.458-1.682-7.851,8.619-7.864
		c-0.107,0.062-0.209,0.144-0.324,0.182c-2.406,0.779-5.459-0.706-7.189,0.66C237.575,116.851,239.505,120.137,238.307,122.424z"/>
	<path fill-rule="evenodd" clip-rule="evenodd" fill="#D2D2D2" d="M216.411,125.555c-0.003,5.167-0.007,10.333-0.01,15.499
		C216.015,135.888,215.588,130.721,216.411,125.555z"/>
	<path fill-rule="evenodd" clip-rule="evenodd" fill="#D2D2D2" d="M227.318,114.55c1.287,0,2.574,0,3.863,0
		C229.893,115.072,228.605,115.084,227.318,114.55z"/>
	<path fill-rule="evenodd" clip-rule="evenodd" fill="#D2D2D2" d="M223.982,114.51c0.902,0.02,1.806,0.041,2.709,0.06
		C225.776,115.094,224.87,115.208,223.982,114.51z"/>
	<path fill-rule="evenodd" clip-rule="evenodd" fill="#D2D2D2" d="M246.831,114.566c0.896-0.018,1.792-0.037,2.688-0.056
		C248.642,115.439,247.736,115.002,246.831,114.566z"/>
	<path fill-rule="evenodd" clip-rule="evenodd" fill="#D2D2D2" d="M250.148,113.003c-0.582-0.007-1.098-0.144-1.394-0.71
		C249.398,112.179,249.962,112.222,250.148,113.003z"/>
	<path fill-rule="evenodd" clip-rule="evenodd" fill="#D2D2D2" d="M224.002,113.067c-0.004,0.482-0.006,0.964-0.01,1.446
		c-0.245-0.175-0.656-0.315-0.702-0.533C223.188,113.502,223.432,113.113,224.002,113.067z"/>
	<path fill-rule="evenodd" clip-rule="evenodd" fill="#0F0F0F" d="M249.508,114.516c0.227-0.253,0.453-0.507,0.682-0.761
		C250.221,114.241,250.031,114.528,249.508,114.516z"/>
	<path fill-rule="evenodd" clip-rule="evenodd" fill="#D2D2D2" d="M311.71,238.994c-1.542-3.278-0.296-6.753-0.718-10.108
		c-0.176-1.396,0.602-2.988-0.823-4.136c-1.651-2.078-1.105-4.546-1.106-6.865c-0.034-50.484-0.025-100.97-0.025-151.455
		c0-1.124-0.004-2.249,0-3.374c0.028-7.144-0.229-7.673-6.429-7.462c-0.996,0.034-1.983-0.266-2.749-1.005
		c-0.33-1.865,1.153-1.406,2.072-1.547c1.298-0.199,2.733,0.264,3.82-0.866c5.258-1.512,7.016,0.395,6.979,5.936
		c-0.351,51.936-0.434,103.873-0.633,155.809C312.066,222.279,311.845,230.637,311.71,238.994z"/>
	<path fill-rule="evenodd" clip-rule="evenodd" fill="#D2D2D2" d="M305.752,52.176c-1.353,3.179-4.205,0.802-6.182,1.669
		c-1.459,1.291-3.264,0.96-4.969,1.018c-5.696,0.195-11.408-0.355-17.093,0.478c-5.104,0.748-5.11,0.704-5.137,5.992
		c-0.005,0.744,0.022,1.488-0.014,2.229c-0.021,0.417-0.044,0.837-0.056,1.255c-0.058,1.616,0.035,3.239-0.106,4.854
		c-0.112,1.117-0.512,2.216-0.209,3.365c0.226,1.188,0.261,2.386,0.251,3.592c0.011,1.12-0.188,2.204-0.486,3.277
		c-0.486,2.105-0.178,4.233-0.179,6.344c-0.017,49.293-0.014,98.585-0.014,147.879c0,3.481,0.013,6.965-1.812,10.119
		c-0.232,0.001-0.465,0.001-0.698,0.002c-0.336-2.755-0.336-5.508,0.018-8.261c0.512-2.495,0.551-4.99-0.02-7.484
		c0.003-0.754,0.005-1.508,0.008-2.263c0.569-1.057,0.32-2.203,0.32-3.308c0.014-41.041,0.014-82.082,0-123.123
		c-0.001-1.104,0.258-2.251-0.331-3.303c-0.105-10.106-0.188-20.212-0.328-30.317c-0.056-3.99-0.224-7.98-0.371-11.97
		c-0.076-2.061,0.223-3.068,2.917-2.801c5.199,0.516,10.465,0.314,15.696,0.551c1.936,0.088,2.518-0.512,2.63-2.485
		c0.497-8.712,0.569-8.708-8.061-8.657c-0.748,0.005-1.504,0.091-2.245,0.019c-1.216-0.117-3.189,0.705-3.179-1.345
		c0.007-1.549,1.766-1.378,3.01-1.381c7.865-0.014,15.729-0.03,23.594-0.045l-0.05-0.023c1.538,1.863,1.232,2.942-1.312,2.976
		c-1.992,0.027-4.015,0.189-5.971-0.084c-2.947-0.413-3.419,1.061-3.098,3.43c0.082,0.611,0.175,1.23,0.165,1.845
		c-0.091,5.769-0.097,5.75,5.483,5.779C300.534,52.014,303.144,52.114,305.752,52.176z"/>
	<path fill-rule="evenodd" clip-rule="evenodd" fill="#D2D2D2" d="M269.044,96.507c1.116,0.997,0.689,2.328,0.69,3.521
		c0.021,40.895,0.021,81.791,0,122.686c0,1.194,0.426,2.523-0.68,3.526c-0.034-19.939-0.076-39.879-0.101-59.819
		c-0.028-22.687-0.044-45.373-0.056-68.06C268.897,97.744,268.993,97.125,269.044,96.507z"/>
	<path fill-rule="evenodd" clip-rule="evenodd" fill="#D2D2D2" d="M269.047,228.504c1.109,2.492,1.082,4.987,0.02,7.484
		C269.061,233.494,269.054,230.999,269.047,228.504z"/>
	<path fill-rule="evenodd" clip-rule="evenodd" fill="#D2D2D2" d="M311.732,244.247c-0.95-0.737-0.955-1.483-0.021-2.238
		C311.718,242.755,311.725,243.501,311.732,244.247z"/>
	<polygon fill-rule="evenodd" clip-rule="evenodd" fill="#FEFEFE" points="317.75,243.5 317.572,243.823 317.427,243.677 	"/>
	<path fill-rule="evenodd" clip-rule="evenodd" fill="#D2D2D2" d="M161.626,146.251c0.45-1.639-0.339-3.452,0.688-5.143
		c1.475,0.688,0.896,1.976,0.897,2.927c0.034,31.896,0.035,63.794-0.042,95.689c-0.002,0.744,1.281,2.918-1.392,2.277
		c-0.042-18.457-0.092-36.914-0.123-55.371C161.632,173.171,161.635,159.711,161.626,146.251z"/>
	<path fill-rule="evenodd" clip-rule="evenodd" fill="#D2D2D2" d="M150.527,240.506c-1.011-0.896-1.3-2.135-1.242-3.355
		c0.914-19.146,0.421-38.293,0.261-57.443c-0.033-3.957,0.156-7.942,0.191-11.915c0.041-4.54,0.003-4.538-4.369-4.554
		c-2.117-0.008-4.234-0.022-6.351-0.045c-0.107-0.001-0.212-0.109-0.336-0.808c3.797,0,7.595,0,11.392,0
		c1.075,0.575,1.03,1.581,1.025,2.595c-0.132,24.809-0.257,49.616-0.393,74.425C150.704,239.772,150.589,240.139,150.527,240.506z"
		/>
	<path fill-rule="evenodd" clip-rule="evenodd" fill="#D2D2D2" d="M150.618,242.524c-0.102,0.274-0.203,0.549-0.304,0.822
		c-0.805-0.615-0.398-1.01,0.248-1.36l0.187,0.252L150.618,242.524z"/>
	<path fill-rule="evenodd" clip-rule="evenodd" fill="#9364BC" d="M202.24,245.74c-11.604,0.018-23.209-0.039-34.811,0.106
		c-2.766,0.034-3.595-0.755-3.583-3.597c0.138-32.69,0.188-65.381,0.097-98.071c-0.009-3.261,0.791-4.296,4.113-4.296
		c5.193-0.001,10.439,0.657,15.6-0.544c4.951,0.003,9.906,0.112,14.854-0.032c2.693-0.078,4.221,0.426,3.887,3.629
		c-0.282,2.693-0.061,5.441-0.062,8.164c0.448,1.201,0.364,14.288,0.281,15.129c-0.005,23.17,0.005,46.332-0.014,69.495
		c-0.002,1.356,0.25,2.741-0.259,4.069C202.309,241.775,202.274,243.757,202.24,245.74z"/>
	<path fill-rule="evenodd" clip-rule="evenodd" fill="#D2D2D2" d="M232.248,125.76c4.494,1.433,9.045,0.777,13.581,0.327
		c3.563-0.353,7.158-1.138,10.405,1.197c-1.558,1.349-3.47,1.15-5.307,1.154c-9.276,0.02-18.553,0.043-27.824,0.005
		c-2.353-0.427-3.379,0.472-3.337,2.945c0.068,4.042,0.142,8.088,0.03,12.135c0.003,0.882,0,1.764-0.002,2.646
		c-0.03,1.613,0.055,3.225,0.023,4.838c0.305,29.987,0.072,59.972,0.125,89.957c0.003,1.247,0.001,2.502-0.404,3.711
		c-0.181,0.478-0.477,0.869-0.883,1.177c-1.742-0.412-1.398-1.824-1.399-3.02c-0.011-14.216-0.352-28.443,0.099-42.646
		c0.465-14.644,0.994-29.293,0.473-43.918c-0.24-6.712,0.789-13.447-0.416-20.14c-0.185-1.021,0.672-2.241,0.461-3.245
		c-0.464-2.205-1.604-5.616-0.151-6.292c2.4-1.116,5.668-1.641,8.535-0.153c0.643-0.579,1.637,0.009,2.247-0.678
		C229.752,125.761,231,125.76,232.248,125.76z"/>
	<path fill-rule="evenodd" clip-rule="evenodd" fill="#D2D2D2" d="M245.75,245.751c-1.094,1.246-2.561,0.716-3.863,0.724
		c-7.712,0.051-15.424,0.027-23.137,0.029c-0.006-0.222-0.037-0.438-0.094-0.651l0.132-0.148c0.978-0.913,2.208-1.096,3.458-1.112
		c6.693-0.087,13.387-0.098,20.08,0.008C243.564,244.618,244.819,244.742,245.75,245.751z"/>
	<path fill-rule="evenodd" clip-rule="evenodd" fill="#D2D2D2" d="M228.504,125.762c-0.554,0.872-1.419,0.713-2.247,0.678
		C226.821,125.602,227.691,125.777,228.504,125.762z"/>
	<path fill-rule="evenodd" clip-rule="evenodd" fill="#9364BC" d="M93.463,183.125c0,19.373,0.003,38.746-0.002,58.119
		c-0.001,4.612-0.013,4.607-4.77,4.607c-9.874-0.002-19.75-0.105-29.62,0.069c-3.011,0.053-4.028-0.66-4.015-3.884
		c0.11-26.746,0.323-53.499-0.089-80.24c-0.35-22.741-0.237-45.479-0.398-68.217c-0.008-1.125,0.058-2.25,0.034-3.374
		c-0.057-2.667,1.079-3.654,3.863-3.557c10.359,0.363,20.733,0.019,31.096,0.632c2.442,0.144,3.289,0.851,3.24,3.261
		c-0.094,4.622-0.017,9.249,0.086,13.872C93.469,130.649,93.467,156.887,93.463,183.125z"/>
	<path fill-rule="evenodd" clip-rule="evenodd" fill="#9364BC" d="M148.25,245.759c-11.749,0.027-23.5-0.031-35.246,0.141
		c-3.006,0.044-3.629-1.385-3.57-3.852c0.15-6.241,0.359-12.482,0.39-18.724c0.091-18.48,0.1-36.963,0.169-55.443
		c0.004-1.078-0.335-2.277,0.629-3.188c6.797-0.396,13.579-0.196,20.383-0.016c3.538,0.094,7.223,0.581,10.886-0.134
		c1.501-0.293,3.974-1.573,5.129,1.127c0.257,0.656,1.229,11.831,1.25,15.585c-0.003,21.498-0.007,42.996-0.011,64.494
		L148.25,245.759z"/>
	<path fill-rule="evenodd" clip-rule="evenodd" fill="#9364BC" d="M271.346,64.102c-0.338-9.984-0.338-10.019,9.582-10.166
		c6.214-0.091,12.429-0.065,18.643-0.091c2.139,1.045,4.435,0.534,6.627,0.487c2.876-0.062,3.937,0.862,3.93,3.874
		c-0.053,23.578,0.076,47.157,0.086,70.736c0.015,31.937-0.026,63.872-0.044,95.809c-0.003,3.447-0.005,6.895-0.008,10.344
		c-1.05,2.227-0.514,4.598-0.479,6.884c0.036,2.421-0.809,3.156-3.22,3.137c-2.274-0.019-4.662-0.581-6.875,0.521
		c-5.26-1.046-10.574-0.346-15.859-0.434c-4.054-0.067-8.113,0.281-12.17,0.444c-1.429-0.956-1.116-2.463-1.011-3.763
		c0.717-8.859,0.312-17.729,0.312-26.592c-0.002-44.866,0.147-89.733-0.068-134.598C270.789,80.183,271.28,69.006,271.346,64.102z"
		/>
	<path fill-rule="evenodd" clip-rule="evenodd" fill="#9364BC" d="M245.75,245.751c-8.987-0.016-17.975-0.032-26.962-0.047
		c-0.046-13.365-0.127-26.73-0.128-40.096c0-18.366,0.061-36.732,0.095-55.099c-0.833-9.876,0.204-14.93-0.022-15.753
		c-0.726-2.646,0.988-6.582,3.769-7.46c11.245-0.004,22.489-0.008,33.733-0.012c0.025,38.365,0.029,76.729,0.123,115.093
		c0.006,2.41-0.596,3.417-3.119,3.268C250.752,245.498,248.247,245.701,245.75,245.751z"/>
	<path fill-rule="evenodd" clip-rule="evenodd" fill="#D2D2D2" d="M271.096,79.248c0.06,18.24,0.158,36.48,0.172,54.721
		c0.027,35.86,0.004,71.723,0.019,107.583c0.001,1.364,0.178,2.729,0.272,4.094c-1.072,0.142-1.747-0.233-1.812-1.398
		c1.711-52.624,0.286-105.263,0.734-157.894c0.017-1.975,0.308-3.979-0.429-5.927C269.748,79.624,270.465,79.396,271.096,79.248z"/>
	<path fill-rule="evenodd" clip-rule="evenodd" fill="#F3E39B" d="M207.446,33.033c-0.213,0.149-0.427,0.298-0.64,0.447
		C207.02,33.332,207.233,33.183,207.446,33.033z"/>
	<path fill-rule="evenodd" clip-rule="evenodd" fill="#F3E39B" d="M210.461,31.521c-0.266,0.137-0.531,0.274-0.796,0.411
		C209.93,31.795,210.195,31.658,210.461,31.521z"/>
	<path fill-rule="evenodd" clip-rule="evenodd" fill="#231F20" d="M275.72,77.051c-0.745-0.259-1.49-0.518-2.235-0.776
		c-1.609-0.746-1.518-2.499-2.234-3.772c-0.914-0.762,0.271-1.513,0.012-2.272c2.016-1.664,1.158-3.372,0.078-5.083
		c0.002-0.349,0.004-0.697,0.006-1.046c3.179,1.838,6.358,3.676,9.538,5.514c0.538,0.133,1.023,0.328,1.124,0.968
		c-0.062,0.371-0.271,0.631-0.605,0.794c-1.705,0.368-3.115-0.688-4.817-1.058c0.564,1.58,3.146,0.929,3.035,2.977
		c-0.354,0.404-0.818,0.599-1.331,0.694c-0.543,0.771-3.67-1.742-2.121,1.686C276.242,76.21,276.141,76.683,275.72,77.051z"/>
	<path fill-rule="evenodd" clip-rule="evenodd" fill="#F2F1C2" d="M185.703,158.817c-0.212,0.468-0.425,0.935-0.637,1.401
		c-1.436,2.719-3.891,3.07-6.292,2.037c-2.378-1.023-3.899-2.988-2.812-5.918c0.204-0.322,0.417-0.646,0.631-0.963
		c0.107-0.154,0.219-0.309,0.325-0.463c0.245-0.279,0.525-0.523,0.83-0.736c0.15-0.103,0.306-0.204,0.457-0.307
		c0.428-0.337,0.845-0.698,1.431-0.724c1.482-0.08,2.947,0.01,4.377,0.453c1.02,0.317,1.382,0.945,0.97,1.96
		C184.034,156.904,184.936,157.846,185.703,158.817z"/>
	<path fill-rule="evenodd" clip-rule="evenodd" fill="#231F20" d="M199.196,181.969c-1.255-2.88-2.901-5.181-6.065-6.504
		c-6.302-2.635-13.2,0.171-15.323,6.592c-0.105,0.322-0.391,0.585-0.651,0.96c-0.653-4.756,1.718-7.954,6.227-8.586
		c3.26-0.457,6.456-1.838,9.826-0.661c1.479,0.81,3.518,0.542,4.491,2.329C199.441,177.738,199.473,179.814,199.196,181.969z"/>
	<path fill-rule="evenodd" clip-rule="evenodd" fill="#231F20" d="M176.885,155.619c-1.102,1.636-1.033,3.153,0.279,4.693
		c1.273,1.493,2.835,1.732,4.648,1.525c1.314-0.15,2.155-1.112,3.254-1.619l0.074,0.293c0.207,0.107,0.381,0.253,0.523,0.438
		c-0.402,0.447-0.815,0.885-1.205,1.343c-3.389,3.999-4.966,4.157-9.166,0.912l0.02,0.005c0.09-1.048,0.625-1.847,0.166-3.198
		c-0.88-2.586-0.696-5.417,2.674-6.604c0.142,0.107,0.282,0.214,0.424,0.322c-0.082,0.156-0.165,0.313-0.248,0.472l-0.172,0.105
		c-0.172,0.198-0.363,0.373-0.579,0.521l-0.22,0.27C177.207,155.277,177.049,155.451,176.885,155.619z"/>
	<path fill-rule="evenodd" clip-rule="evenodd" fill="#231F20" d="M172.968,155.69c-2.61-2.816-1.215-6.7,2.917-8.028
		c2.998-0.963,6.284-0.732,9.238-2.156c-0.981,2.074-2.691,2.622-4.853,2.809c-6.019,0.52-7.229,1.838-7.319,7.399L172.968,155.69z"
		/>
	<path fill-rule="evenodd" clip-rule="evenodd" fill="#231F20" d="M190.592,142.818c6.013-1.533,8.208-0.408,10.323,5.274
		c-1.845-1.312-2.804-3.293-4.651-4.31C194.554,142.841,192.427,144.247,190.592,142.818z"/>
	<path fill-rule="evenodd" clip-rule="evenodd" fill="#231F20" d="M190.241,158.012c-2.33-1.496-2.079-3.631-0.804-5.418
		c1.184-1.656,2.567-3.947,5.347-2.186c0.176,0.193,0.251,0.398,0.228,0.615c-0.023,0.224-0.06,0.336-0.106,0.335
		c-3.204,1.1-3.839,3.715-3.918,6.657l-0.209,0.242C190.563,158.254,190.385,158.172,190.241,158.012z"/>
	<path fill-rule="evenodd" clip-rule="evenodd" fill="#231F20" d="M185.703,158.817c-2.376-0.042-3.523-0.787-1.811-3.168
		c0.92-0.016,1.58-1.069,2.607-0.653C187.746,157.738,187.574,158.564,185.703,158.817z"/>
	<path fill-rule="evenodd" clip-rule="evenodd" fill="#271925" d="M186.5,154.996c-0.823,0.398-1.633,0.854-2.607,0.653
		c0.447-0.487,1.438-0.979,0.043-1.494c-1.545-0.569-3.146-0.629-4.767-0.424c-0.288,0.061-0.563,0.028-0.829-0.099l-0.188-0.226
		C182.086,151.863,184.187,152.263,186.5,154.996z"/>
	<path fill-rule="evenodd" clip-rule="evenodd" fill="#231F20" d="M200.027,154.242c-0.219-0.018-0.439-0.035-0.658-0.053
		c-0.515,0.044-0.968-0.135-1.405-0.377c-0.948-0.626-2.141-0.944-2.675-2.101c-0.019-0.606,0.396-0.861,0.87-1.065
		c1.544,0.209,2.552,1.357,3.768,2.142C200.437,153.24,200.439,153.727,200.027,154.242z"/>
	<path fill-rule="evenodd" clip-rule="evenodd" fill="#1A002A" d="M196.159,150.646c-0.274,0.232-0.55,0.464-0.825,0.695
		l-0.344,0.12l-0.225-0.287c0.006-0.256,0.013-0.512,0.019-0.767C195.243,150.487,195.701,150.567,196.159,150.646z"/>
	<path fill-rule="evenodd" clip-rule="evenodd" fill="#5F3B74" d="M200.027,154.242c-0.033-0.484-0.067-0.969-0.101-1.454
		c0.688,0.229,0.808,0.801,0.854,1.416C200.529,154.217,200.278,154.23,200.027,154.242z"/>
	<path fill-rule="evenodd" clip-rule="evenodd" fill="#6F3097" d="M170,148.999c0.108,0.06,0.314,0.142,0.308,0.175
		c-0.059,0.26-0.179,0.198-0.308-0.173V148.999z"/>
	<path fill-rule="evenodd" clip-rule="evenodd" fill="#140105" d="M190.241,158.012c0.188,0.062,0.367,0.145,0.537,0.246
		c0.064,0.153,0.128,0.307,0.19,0.461C190.513,158.703,190.282,158.455,190.241,158.012z"/>
	<path fill-rule="evenodd" clip-rule="evenodd" fill="#160512" d="M185.664,160.949c-0.255-0.055-0.429-0.199-0.523-0.438
		C185.532,160.398,185.742,160.5,185.664,160.949z"/>
	<path fill-rule="evenodd" clip-rule="evenodd" fill="#6F3097" d="M191.767,161.73c-0.104,0.105-0.208,0.211-0.312,0.316
		c0.019-0.064,0.019-0.151,0.062-0.188c0.07-0.059,0.168-0.086,0.254-0.127L191.767,161.73z"/>
	<path fill-rule="evenodd" clip-rule="evenodd" fill="#6F3097" d="M202.181,164.025c0.056,0.233,0.058,0.467,0.005,0.701
		c-0.092-0.167-0.199-0.329-0.263-0.506C201.912,164.189,202.09,164.092,202.181,164.025z"/>
	<path fill-rule="evenodd" clip-rule="evenodd" fill="#231F20" d="M218.74,143.763c1.684-0.729,2.312-2.94,4.382-3.129
		c0.429-0.617,0.921-1.081,1.754-0.737c0.738,0.515,1.477,1.029,2.215,1.544c-0.123,0.556-0.472,0.907-0.995,1.101
		c-2.713-0.31-4.448,0.754-4.951,3.543c-0.417,0.373-0.909,0.5-1.457,0.451c-0.342-0.103-0.648-0.268-0.916-0.504
		C218.761,145.274,218.75,144.519,218.74,143.763z"/>
	<path fill-rule="evenodd" clip-rule="evenodd" fill="#F1F1C4" d="M194.766,151.175c0.154,0.175,0.344,0.231,0.568,0.167
		c1.045,0.719,2.089,1.437,3.133,2.154c-0.975,0.974-1.67,1.875,0.532,2.021c0.655,0.509,0.752,1.106,0.29,1.792
		c-0.09,0.182-0.148,0.373-0.176,0.573c-1.053,1.576-2.239,2.831-4.367,1.802c-1.438-0.139-2.668-0.745-3.759-1.668
		C189.155,153.315,189.837,152.08,194.766,151.175z"/>
	<path fill-rule="evenodd" clip-rule="evenodd" fill="#231F20" d="M194.746,159.684c1.645-0.144,2.928-1.162,4.367-1.802
		c1.188,2.607-1.446,2.767-2.577,3.511C195.549,162.041,194.935,160.732,194.746,159.684z"/>
	<path fill-rule="evenodd" clip-rule="evenodd" fill="#231F20" d="M198.745,155.817c-0.964,1.006-1.973,0.987-2.867-0.021
		c-0.27-0.303-0.421-0.973-0.275-1.333c0.546-1.36,1.751-1.094,2.864-0.967c0.301,0.231,0.602,0.463,0.902,0.693
		c-0.055,0.127-0.094,0.258-0.117,0.395C199.383,155.118,199.056,155.465,198.745,155.817z"/>
	<path fill-rule="evenodd" clip-rule="evenodd" fill="#D7C5CE" d="M198.745,155.817c0.169-0.411,0.338-0.822,0.507-1.233
		c0.734,0.898,1.3,1.799,0.037,2.725C199.108,156.812,198.927,156.314,198.745,155.817z"/>
	<path fill-rule="evenodd" clip-rule="evenodd" fill="#28122D" d="M59.729,110.752c1.88-1.455,0.269-1.735-0.739-2.276
		c-0.643-0.345-1.472-0.795-1.075-1.661c0.376-0.819,1.302-0.562,1.982-0.373c3.446,0.958,6.761,2.382,10.336,2.882
		c1.049,0.649,2.738-0.122,3.347,1.508c0.147,0.828-0.053,1.46-0.959,1.692c-3.553-0.62-7-2.623-10.742-0.829
		c-0.173,0.052-0.347,0.094-0.522,0.143c-0.182,0.005-0.362,0.004-0.544,0.006c-0.358-0.1-0.656-0.294-0.896-0.579
		C59.854,111.095,59.792,110.924,59.729,110.752z"/>
	<path fill-rule="evenodd" clip-rule="evenodd" fill="#1F0D25" d="M73.363,114.489c-3.724,5.001-5.686,5.821-10.539,4.409
		c-0.178-0.65,0.226-0.955,0.713-1.212c3.331-0.648,5.194-4.438,8.948-4.192C73.076,113.562,73.462,113.813,73.363,114.489z"/>
	<path fill-rule="evenodd" clip-rule="evenodd" fill="#231F20" d="M80.337,130.765c-4.355,0.921-8.734,1.148-13.149,0.348
		C71.534,129.941,75.929,130.158,80.337,130.765z"/>
	<path fill-rule="evenodd" clip-rule="evenodd" fill="#211427" d="M77.052,109.146c1.697,0.007,3.395,0.013,5.093,0.019
		c1.429-0.101,3.123-1.302,3.979,0.963c0.03,0.199,0.072,0.395,0.126,0.588c-0.222,0.279-0.503,0.476-0.84,0.592
		c-2.602-0.105-5.089,0.413-7.49,1.413c-0.371,0-0.722-0.077-1.062-0.223c-0.768-0.561-1.486-1.162-1.729-2.145
		C75.226,109.084,75.837,108.633,77.052,109.146z"/>
	<path fill-rule="evenodd" clip-rule="evenodd" fill="#1F151D" d="M86.851,115.373c-0.552,2.476-2.762,2.377-4.552,2.933
		c-0.693,0.299-1.021-0.114-1.283-0.659c-0.158-0.569-0.123-1.129,0.082-1.682c0.448-0.882,1.129-1.528,2.009-1.973
		c1.259-0.369,2.508-0.953,3.833-0.23C87.227,114.315,87.14,114.85,86.851,115.373z"/>
	<path fill-rule="evenodd" clip-rule="evenodd" fill="#231F20" d="M81.506,117.515c0.264,0.264,0.529,0.527,0.792,0.791
		c-3.283,1-4.866,0.034-6.207-3.791c-0.326-0.977-0.746-1.988,0.836-2.26c0.268-0.003,0.536-0.007,0.804-0.011
		C78.206,114.563,79.508,116.288,81.506,117.515z"/>
	<path fill-rule="evenodd" clip-rule="evenodd" fill="#311340" d="M86.124,110.128c-1.058-1.43-2.65-0.652-3.979-0.963
		c2.363-1.331,5.421-0.118,7.612-2.079c0.251-0.025,0.503-0.05,0.754-0.075c1.27,0.037,1.403,0.539,0.588,1.432
		C89.44,109.005,87.782,109.566,86.124,110.128z"/>
	<path fill-rule="evenodd" clip-rule="evenodd" fill="#231F20" d="M59.766,116.647c-1.66-1.509-1.675-3.951-0.037-5.896l0.259,0.08
		l0.076,0.259l0.27,0.019c0.129,0.09,0.182,0.212,0.156,0.368c0.72,0.693,0.525,1.567,0.486,2.414
		c-0.034,0.341-0.107,0.674-0.208,1.002C60.576,115.559,60.275,116.163,59.766,116.647z"/>
	<path fill-rule="evenodd" clip-rule="evenodd" fill="#231F20" d="M59.766,116.647c-0.007-0.766-0.117-1.557,0.513-2.172
		c0.297,0,0.549,0.107,0.762,0.312c0.328,0.283,0.659,0.563,1.011,0.822c0.792,0.684,1.793,1.241,1.571,2.548
		c-0.266,0.247-0.531,0.494-0.797,0.741C61.392,118.709,61.227,116.798,59.766,116.647z"/>
	<path fill-rule="evenodd" clip-rule="evenodd" fill="#311340" d="M86.851,115.373c-0.069-0.629-0.139-1.258-0.208-1.888
		c-0.982-0.605-1.697-1.37-1.565-2.637c0.391-0.044,0.782-0.088,1.173-0.132C87.575,112.123,89.126,113.501,86.851,115.373z"/>
	<path fill-rule="evenodd" clip-rule="evenodd" fill="#231F20" d="M144.007,192.6c-7.143-0.24-13.739,3.395-20.91,2.826
		C130.026,194.127,136.667,190.968,144.007,192.6z"/>
	<path fill-rule="evenodd" clip-rule="evenodd" fill="#231F20" d="M144.7,172.941c3.195,4.666,2.575,7.014-2.36,9.007
		c-0.549,0.221-1.061,0.534-1.59,0.805c-0.965-0.024-1.93-0.049-2.896-0.073c-0.333-0.166-0.596-0.417-0.842-0.689l-0.003-0.004
		c-0.259-0.241-0.505-0.495-0.762-0.739l0.004,0.005c-1.823-2.687-0.566-4.992,0.891-7.275c0.275-0.304,0.621-0.473,1.03-0.512
		c0.604,0.102,1.019,0.457,1.301,0.983c0.079,0.366,0.037,0.733,0.004,1.107c-0.13,1.456-2.438,3.03-0.38,4.27
		c1.83,1.104,3.536-0.358,4.954-1.627c1.995-1.021-0.29-1.915-0.117-2.88c-0.287-0.809-0.712-1.61-0.209-2.486
		C144.068,172.697,144.394,172.734,144.7,172.941z"/>
	<path fill-rule="evenodd" clip-rule="evenodd" fill="#231F20" d="M123.433,183.638c-1.267-1.698-0.885-3.647-0.453-5.396
		c0.348-1.408,0.16-2.221-1.868-2.767c3.992-1.422,7.432-0.927,10.68-1.655c0.669,0.443,1.307,0.896,0.539,1.775
		c-0.403,0.282-0.841,0.583-1.323,0.605c-4.104,0.188-6.15,2.352-6.267,6.422C124.451,183.15,124.033,183.513,123.433,183.638z"/>
	<path fill-rule="evenodd" clip-rule="evenodd" fill="#231F20" d="M123.433,183.638c0.256-0.295,0.512-0.591,0.768-0.886
		c3.147,0.956,6.081,0.223,8.939-1.129c0.548,0.144,1.051,0.32,0.771,1.062l0.029,0.021c-0.119,0.364-0.344,0.634-0.701,0.786
		l0.003-0.004c-0.72,2.289-2.976,1.543-4.486,2.268C126.671,185.83,124.574,185.936,123.433,183.638z"/>
	<path fill-rule="evenodd" clip-rule="evenodd" fill="#221226" d="M144.7,172.941c-0.418,0.08-0.836,0.16-1.254,0.239
		c-1.338,0.858-2.853,1.125-4.391,1.313c-0.191-0.251-0.382-0.502-0.573-0.754c-0.374-0.4-1.157-0.604-0.679-1.415
		c0.979-0.536,1.958-1.074,2.937-1.611C143.293,169.264,143.611,171.789,144.7,172.941z"/>
	<path fill-rule="evenodd" clip-rule="evenodd" fill="#200D2E" d="M133.954,174.419c-0.172,2.327,1.848,4.4,0.79,6.829l0.003-0.004
		c-0.398,0.48-0.898,0.402-1.41,0.26c-0.272-0.217-0.46-0.492-0.552-0.83c-0.088-0.984-0.192-1.969-0.535-2.909
		c-0.098-0.816-0.12-1.628,0.205-2.408c-0.221-0.513-0.442-1.024-0.663-1.536c0.465-0.044,0.931-0.088,1.396-0.133
		C133.978,173.371,134.105,173.748,133.954,174.419z"/>
	<path fill-rule="evenodd" clip-rule="evenodd" fill="#231F20" d="M133.954,174.419c-0.255-0.244-0.511-0.487-0.766-0.731
		c1.297-1.27,2.705-2.166,4.615-1.362c0.227,0.472,0.453,0.943,0.679,1.415c-0.241,0.003-0.481,0.005-0.722,0.005
		C136.491,173.97,135.223,174.193,133.954,174.419z"/>
	<path fill-rule="evenodd" clip-rule="evenodd" fill="#653586" d="M146.001,166.249c-0.107-0.059-0.313-0.14-0.306-0.173
		c0.058-0.258,0.177-0.195,0.304,0.176L146.001,166.249z"/>
	<path fill-rule="evenodd" clip-rule="evenodd" fill="#5F3B7A" d="M133.996,183.504c0.108,0.058,0.315,0.138,0.309,0.169
		c-0.059,0.258-0.176,0.194-0.301-0.177L133.996,183.504z"/>
	<path fill-rule="evenodd" clip-rule="evenodd" fill="#5F3B7A" d="M137.013,181.99c0.281,0.229,0.562,0.459,0.842,0.689
		C137.575,182.449,137.294,182.22,137.013,181.99z"/>
	<path fill-rule="evenodd" clip-rule="evenodd" fill="#5F3B7A" d="M136.248,181.247c0.254,0.247,0.508,0.493,0.762,0.739
		C136.756,181.74,136.502,181.494,136.248,181.247z"/>
	<path fill-rule="evenodd" clip-rule="evenodd" fill="#110517" d="M281.676,71.12c0.032-0.262,0.064-0.524,0.096-0.787
		c2.332-2.431,4.154-1.137,5.889,0.803c0.279,0.219,0.557,0.438,0.835,0.656c0.636,0.635,1.631,0.073,2.275,0.682l0.012-0.002
		c0.298,0.487,0.034,0.809-0.317,1.104c-0.343,0.197-0.72,0.307-1.102,0.401c-0.226,0.118-0.414,0.276-0.549,0.496
		c-0.023,0.275-0.066,0.533-0.108,0.795c-0.146,0.364-0.354,0.699-0.452,1.079c0.045,0.268,0.104,0.524,0.209,0.775
		c0.212,0.391,0.38,0.79,0.427,1.232c-0.026,0.313-0.149,0.581-0.367,0.805c-1.509-0.422-1.737-2.18-2.991-2.87
		c-0.297-0.025-0.584-0.091-0.863-0.194c-0.137-0.056-0.271-0.12-0.408-0.173c-0.818-0.387-1.732-0.355-2.588-0.574
		c-0.284-0.096-0.534-0.252-0.754-0.454c-0.207-0.489-0.022-0.881,0.3-1.234c0.186-0.19,0.376-0.391,0.534-0.592
		c0.071-0.221,0.081-0.45-0.01-0.679c-0.117-0.206-0.205-0.423-0.28-0.647C281.354,71.473,281.426,71.266,281.676,71.12z"/>
	<path fill-rule="evenodd" clip-rule="evenodd" fill="#1F0B24" d="M299.122,74.647c2.094,0,4.187,0,6.524,0
		c-1.686,1.901-4.166,2.723-4.373,5.373c-0.429,0.419-0.949,0.597-1.539,0.596c-1.666-0.305-3.311-0.664-4.562-1.943
		c-0.208-0.594,0.044-1.009,0.522-1.331c0.886-0.576,3.299,0.415,2.234-2.18C298.177,74.637,298.516,74.327,299.122,74.647z"/>
	<path fill-rule="evenodd" clip-rule="evenodd" fill="#231F20" d="M292.43,93.383c-3.26-0.845-5.686-0.55-8.105-0.345
		c-0.707,0.061-1.555,0.516-1.63-0.667c-0.051-0.794,0.665-1.005,1.289-0.955C286.557,91.621,289.392,90.393,292.43,93.383z"/>
	<path fill-rule="evenodd" clip-rule="evenodd" fill="#231F20" d="M299.122,74.647c-0.3,0.309-0.6,0.617-0.899,0.925
		c-3.15,0.662-6.188,0.915-8.291-2.262c0.283-0.279,0.567-0.558,0.851-0.838C293.631,72.934,296.449,73.514,299.122,74.647z"/>
	<path fill-rule="evenodd" clip-rule="evenodd" fill="#1E1A18" d="M288.522,79.161c0.021-0.259,0.043-0.519,0.063-0.779
		c1.873-1.281,3.435-0.741,4.827,0.818c0.235,0.33,0.411,0.691,0.535,1.077c0.029,0.196,0.054,0.396,0.081,0.594
		c-0.292,1.022-0.91,1.18-1.779,0.664l-0.035-0.013c-0.542-0.765-1.628-0.061-2.178-0.807
		C289.533,80.197,289.028,79.679,288.522,79.161z"/>
	<path fill-rule="evenodd" clip-rule="evenodd" fill="#231F20" d="M284.68,75.586c0.284,0.235,0.567,0.469,0.852,0.705
		c-2.336,2.995-5.295,2.717-8.413,1.601c0.456-0.882,1.335-1.038,2.17-1.271C281.138,76.556,282.877,75.903,284.68,75.586z"/>
	<path fill-rule="evenodd" clip-rule="evenodd" fill="#231F20" d="M292.25,81.534c0.605-0.112,1.234-0.179,1.543-0.837
		c2.079-1.429,4.033-0.969,5.93,0.39c0.279,0.387,0.289,0.78,0.029,1.18C297.24,82.123,294.634,82.973,292.25,81.534z"/>
	<path fill-rule="evenodd" clip-rule="evenodd" fill="#1C1818" d="M279.464,77.096c-0.556,0.932-1.549,0.574-2.346,0.796
		c-0.466-0.281-0.932-0.561-1.398-0.841c0.009-0.453,0.017-0.905,0.025-1.356C277.668,74.35,279.127,74.235,279.464,77.096z"/>
	<path fill-rule="evenodd" clip-rule="evenodd" fill="#231F20" d="M299.752,82.267c-0.057-0.356-0.111-0.713-0.168-1.07
		c-0.23-0.375-0.298-0.746,0.024-1.108c0.556-0.023,1.11-0.046,1.665-0.068C302.031,81.627,301.258,82.195,299.752,82.267z"/>
	<path fill-rule="evenodd" clip-rule="evenodd" fill="#2A0B3E" d="M290.771,72.475c-0.843,0.053-1.707,0.18-2.275-0.682
		C289.339,71.733,290.194,71.638,290.771,72.475z"/>
	<path fill-rule="evenodd" clip-rule="evenodd" fill="#43284E" d="M290.037,80.715c0.799,0.073,1.67-0.052,2.178,0.807
		C291.367,81.58,290.519,81.644,290.037,80.715z"/>
	<path fill-rule="evenodd" clip-rule="evenodd" fill="#060308" d="M224.858,160.293c4.146-2.576,9.449-1.808,14.451,2.155
		c0.769,0.609,1.37,1.429,2.05,2.151c0.332,0.574,0.366,1.157,0.056,1.751c-1.339,1.125-2.974,0.812-4.515,0.939
		c-1.803-0.097-2.717,0.818-3.113,2.535c-0.289,1.245-0.157,2.923-2.174,2.942c-0.343-0.081-0.638-0.244-0.879-0.5l0.094-0.225
		c-1.485-1.033-3.174-1.77-4.5-3.046C223.646,166.283,223.271,164.061,224.858,160.293z"/>
	<path fill-rule="evenodd" clip-rule="evenodd" fill="#231F20" d="M240.483,158.764c-5.15-1.658-7.165-6.392-4.513-10.601
		c0.289,0.199,0.521,0.449,0.696,0.753c1.845,2.537,2.418,6.449,6.787,6.256c0.499,0.254,0.903,0.568,0.745,1.221
		c-0.719,0.592,1.295,2.096-0.749,2.246C242.441,158.209,241.459,158.416,240.483,158.764z"/>
	<path fill-rule="evenodd" clip-rule="evenodd" fill="#330627" d="M241.24,166.33c0.039-0.576,0.079-1.154,0.119-1.73
		c0.936,0.139,1.309,0.804,1.521,1.621c0.804,1.533,0.896,3.045-0.137,4.522c-1.002,1.304-2.119,2.469-3.708,3.062
		c-2.811,0.981-5.547,1.598-7.522-1.529c1.843-0.277,1.165-1.904,1.412-2.908c0.432-1.753,1.166-2.938,3.095-3.052
		c0.37,0.757,0.06,1.436-0.312,2.054c-1.438,2.393-0.299,3.03,1.953,2.934c0.959-0.004,1.766-0.334,2.354-1.121
		C241.112,169.115,240.297,167.44,241.24,166.33z"/>
	<path fill-rule="evenodd" clip-rule="evenodd" fill="#231F20" d="M236.039,149.119c-0.023-0.319-0.046-0.638-0.068-0.956
		c-1.574-1.95-3.379-2.93-5.042-2.739c-0.305-0.093-0.544-0.272-0.722-0.535c-0.338-0.819-1.172-1.459-0.924-2.497
		c0.736-0.104,1.787,0.062,2.15-0.361c1.173-1.37,2.125-1.489,2.256,0.421c0.214,3.096,3.312,2.593,4.679,4.178
		c0.035,0.538-1.481,0.293-0.625,1.245C237.498,148.732,237.059,149.324,236.039,149.119z"/>
	<path fill-rule="evenodd" clip-rule="evenodd" fill="#231F20" d="M241.246,147.582c2.264,0.467,4.529,0.935,6.793,1.402
		c0.407,0.497,0.414,1.011,0.065,1.541l-0.067,0.025c-0.463,0.359-0.978,0.569-1.57,0.566c-1.979-0.508-4.144-0.611-5.502-2.494
		C240.879,148.229,240.973,147.881,241.246,147.582z"/>
	<path fill-rule="evenodd" clip-rule="evenodd" fill="#231F20" d="M230.929,145.424c-0.074,3.153-1.384,5.344-4.669,5.998
		c-0.107-0.139-0.215-0.278-0.322-0.416c-0.088-0.346-0.073-0.69,0.022-1.032c1.355-1.544,2.673-3.12,3.837-4.821
		c0.334-0.185,0.65-0.156,0.947,0.084L230.929,145.424z"/>
	<path fill-rule="evenodd" clip-rule="evenodd" fill="#231F20" d="M224.876,139.896c-0.585,0.246-1.17,0.492-1.754,0.737
		c-0.664-1.369-1.995-2.09-2.986-3.134c-0.928-0.977,0.135-1.089,0.843-1.215C221.858,137.941,224.045,138.188,224.876,139.896z"/>
	<path fill-rule="evenodd" clip-rule="evenodd" fill="#221221" d="M230.744,145.236c-0.254,0.004-0.508,0.008-0.764,0.012
		c-1.805-0.318-3.496-0.776-3.719-3.035c0.276-0.258,0.553-0.516,0.829-0.772c0.731,0.317,1.461,0.634,2.192,0.951
		C230.154,143.143,231.097,143.856,230.744,145.236z"/>
	<path fill-rule="evenodd" clip-rule="evenodd" fill="#231F20" d="M248.104,150.525c-0.021-0.514-0.044-1.027-0.065-1.541
		c1.371,0.117,2.854-0.381,4.436,0.743C250.951,150.945,249.451,150.358,248.104,150.525z"/>
	<path fill-rule="evenodd" clip-rule="evenodd" fill="#35173B" d="M244.199,156.393c-0.331-0.264-0.661-0.528-0.992-0.793
		c0.493-1.622,1.908-2.29,3.196-3.092c0.353-0.049,0.668,0.039,0.947,0.262C247.089,154.662,245.713,155.588,244.199,156.393z"/>
	<path fill-rule="evenodd" clip-rule="evenodd" fill="#231F20" d="M241.246,147.582c-0.023,0.312-0.047,0.626-0.069,0.939
		c-0.537,0.395-1.135,0.389-1.751,0.271c-0.443-0.113-0.846-0.316-1.219-0.582c-0.222-0.199-0.42-0.423-0.598-0.666
		c-0.788-1.167,0.499-0.615,0.759-0.916C239.421,146.664,240.386,146.967,241.246,147.582z"/>
	<path fill-rule="evenodd" clip-rule="evenodd" fill="#240823" d="M227.812,170.676c-0.225-0.486-0.448-0.973-0.673-1.459
		c1.593,0.469,3.284,0.808,3.688,2.826c-0.215,0.066-0.436,0.106-0.661,0.121c-0.84-0.408-1.786-0.649-2.363-1.477L227.812,170.676z
		"/>
	<path fill-rule="evenodd" clip-rule="evenodd" fill="#361745" d="M247.351,152.77l-0.375-0.009h-0.374
		c-0.74-0.74-0.732-1.496-0.046-2.265c0.493,0.018,0.987,0.036,1.481,0.055C248.016,151.354,248.205,152.224,247.351,152.77z"/>
	<path fill-rule="evenodd" clip-rule="evenodd" fill="#210732" d="M240.483,158.764c0.946-1.062,1.938-1.029,2.967-0.125
		C242.471,158.918,241.502,159.426,240.483,158.764z"/>
	<path fill-rule="evenodd" clip-rule="evenodd" fill="#E2E1CD" d="M279.464,77.096c-0.853-1.494-2.097-1.949-3.719-1.401
		c-1.012-0.721-1.957-1.493-2.256-2.85c1.554-0.749,2.803,0.851,4.262,0.49c1.032,0.612,2.608-0.227,3.316,1.248
		c0.183,0.193,0.403,0.252,0.657,0.174c0.834,0.853,2.17-0.12,2.979,0.819l-0.024,0.011
		C283.34,77.467,281.424,77.355,279.464,77.096z"/>
	<path fill-rule="evenodd" clip-rule="evenodd" fill="#9364BC" d="M281.676,71.12c0.025,0.2,0.062,0.398,0.106,0.595
		c0.22,0.271,0.444,0.54,0.673,0.804l0.003,0.019c0.313,0.766-0.188,0.945-0.769,1.066c-0.732,0.081-1.487,0.273-2.066-0.413
		c-1.186-0.952-2.656-1.207-4.041-1.682c-0.716-0.245-1.43-0.667-1.116-1.59c0.339-0.999,1.062-1.207,2.061-0.791
		C278.225,69.837,279.958,70.461,281.676,71.12z"/>
	<path fill-rule="evenodd" clip-rule="evenodd" fill="#231F20" d="M279.623,73.191c0.688,0.059,1.374,0.117,2.061,0.176
		c0.301,0.125,0.408,0.265,0.322,0.419c-0.088,0.161-0.178,0.242-0.271,0.242c-0.223,0.184-0.444,0.369-0.667,0.553
		c-1.105-0.416-2.211-0.832-3.316-1.248C278.375,73.287,278.999,73.239,279.623,73.191z"/>
	<path fill-rule="evenodd" clip-rule="evenodd" fill="#6A3293" d="M178.34,153.633c0.276,0.033,0.553,0.065,0.829,0.099
		c-0.28,0.157-0.561,0.312-0.841,0.47C178.331,154.012,178.335,153.822,178.34,153.633z"/>
	<path fill-rule="evenodd" clip-rule="evenodd" fill="#6A3293" d="M177.577,154.828c0.192-0.173,0.386-0.348,0.579-0.521
		C177.963,154.48,177.77,154.655,177.577,154.828z"/>
	<path fill-rule="evenodd" clip-rule="evenodd" fill="#6A3293" d="M176.885,155.619c0.158-0.174,0.315-0.348,0.473-0.521
		C177.2,155.271,177.043,155.445,176.885,155.619z"/>
	<path fill-rule="evenodd" clip-rule="evenodd" fill="#6F3097" d="M221.002,135.499c-0.104-0.102-0.205-0.205-0.309-0.306
		c0.063,0.018,0.151,0.016,0.186,0.058c0.059,0.069,0.082,0.167,0.119,0.252L221.002,135.499z"/>
	<path fill-rule="evenodd" clip-rule="evenodd" fill="#EFEFC5" d="M226.262,142.213c1.24,1.012,2.48,2.023,3.719,3.035
		c-0.276,2.435-1.49,4.172-3.793,5.1c-0.513,0.805-1.293,0.438-1.984,0.455c-1.877-1.11-2.158-3.187-2.979-4.936
		c-1.22-0.826-1.104-1.679-0.14-2.66C222.601,141.665,224.223,140.918,226.262,142.213z"/>
	<path fill-rule="evenodd" clip-rule="evenodd" fill="#231F20" d="M221.225,145.867c2.78,0.334,1.364,3.319,2.831,4.484
		c0.235,0.2,0.306,0.392,0.213,0.573c-0.091,0.177-0.178,0.265-0.264,0.265c-0.753-0.274-1.507-0.548-2.261-0.822
		c-0.224-0.225-0.447-0.449-0.67-0.673c-0.284-0.476-0.568-0.952-0.853-1.429c-0.42-0.422-0.248-1.101-0.661-1.524
		c-0.042-0.244-0.073-0.489-0.092-0.737C220.054,145.959,220.639,145.913,221.225,145.867z"/>
	<path fill-rule="evenodd" clip-rule="evenodd" fill="#311F34" d="M219.561,146.741c0.571,0.356,0.675,0.915,0.661,1.524
		C219.648,147.911,219.499,147.371,219.561,146.741z"/>
	<path fill-rule="evenodd" clip-rule="evenodd" fill="#F3F2C0" d="M60.563,115.065c0.005-0.245-0.09-0.442-0.285-0.59l0.337,0.04
		c0.261-1.077,0.052-2.232,0.555-3.268c2.788-1.84,7.923-1.391,11.358,0.994c0.001,0.52,0.002,1.039,0.002,1.558
		c-1.02,2.113-4.224,0.306-4.865,2.406c-0.751,2.462-2.46,1.825-4.045,1.952c-0.774-0.731-1.548-1.462-2.323-2.193
		C60.98,115.725,60.709,115.447,60.563,115.065z"/>
	<path fill-rule="evenodd" clip-rule="evenodd" fill="#FDF1F1" d="M61.17,111.247c-0.007,1.119,0.459,2.319-0.555,3.268
		c-0.957-0.975-0.347-2.014-0.125-3.036C60.701,111.355,60.928,111.278,61.17,111.247z"/>
	<path fill-rule="evenodd" clip-rule="evenodd" fill="#1D0B16" d="M60.334,111.11l-0.3,0.028l-0.045-0.306
		C60.14,110.879,60.255,110.972,60.334,111.11z"/>
	<path fill-rule="evenodd" clip-rule="evenodd" fill="#F2EED1" d="M85.077,110.848c0.722,0.76,1.417,1.537,1.565,2.637
		c-0.881,1.034-2.031,1.301-3.321,1.167c-1.551,0.992-0.318-2.383-2.005-1.264c-1.655,1.099,0.985,1.743,0.242,2.716
		c-0.017,0.471-0.035,0.94-0.052,1.41c-3.607-0.664-4.299-1.629-3.774-5.271C79.961,110.626,82.361,109.908,85.077,110.848z"/>
	<path fill-rule="evenodd" clip-rule="evenodd" fill="#F5F1B7" d="M81.558,116.104c-0.975-0.586-3.022-0.265-2.245-2.376
		c1.145-3.106,3.536-0.638,5.261-1.693c0.103,1.897-1.359,1.35-1.72,2.099c-0.033,0.068,0.073,0.233,0.152,0.319
		c0.081,0.088,0.208,0.135,0.314,0.199C82.733,115.137,82.146,115.621,81.558,116.104z"/>
	<path fill-rule="evenodd" clip-rule="evenodd" fill="#4E364A" d="M60.563,115.065c0.245,0.3,0.49,0.599,0.735,0.898
		C61.054,115.665,60.809,115.365,60.563,115.065z"/>
	<path fill-rule="evenodd" clip-rule="evenodd" fill="#F0EFC2" d="M139.055,174.494c1.081-1.718,2.583-2.025,4.391-1.313
		c0.501,0.556,1.26,1.007,0.791,1.954c-0.348,1.084,0.729,2.006,0.35,3.094c-0.972,2.254-4.674,3.895-6.42,2.783
		c-1.261-0.803-1.229-2.036-0.721-3.248C137.915,176.646,138.514,175.582,139.055,174.494z"/>
	<path fill-rule="evenodd" clip-rule="evenodd" fill="#211E0E" d="M144.587,178.229c-0.343-1.006-2.792-1.773-0.35-3.094
		C145.274,176.062,146.252,176.995,144.587,178.229z"/>
	<path fill-rule="evenodd" clip-rule="evenodd" fill="#F2F0C0" d="M133.32,181.197c-0.071,0.244-0.142,0.488-0.212,0.733
		c-3.659,2.825-5.785,3.021-8.906,0.821c-0.024-6.712,0.405-7.096,8.254-7.396c0.515,0.709,0.139,1.429,0.026,2.146
		c-0.051,1.098,0.352,2.092,0.708,3.096C133.185,180.809,133.229,181.008,133.32,181.197z"/>
	<path fill-rule="evenodd" clip-rule="evenodd" fill="#0B0600" d="M133.188,180.598c-1.551-0.73-1.634-1.798-0.708-3.096
		C133.684,178.312,133.878,179.354,133.188,180.598z"/>
	<path fill-rule="evenodd" clip-rule="evenodd" fill="#9364BC" d="M289.932,73.311c2.535,1.593,5.512,1.565,8.291,2.262
		c0.311,1.046,1.863,1.125,1.927,2.453c-1.477,0.865-2.721-0.648-4.099-0.347c-2.81-0.25-5.648-0.422-7.644-2.854
		c-0.213-0.281-0.425-0.563-0.637-0.846c0.28-0.211,0.493-0.499,0.798-0.681C289.023,73.302,289.478,73.307,289.932,73.311z"/>
	<path fill-rule="evenodd" clip-rule="evenodd" fill="#E9E4D2" d="M299.608,80.089c-0.008,0.369-0.016,0.739-0.024,1.108
		c-1.93-0.167-3.861-0.333-5.791-0.5l0.019,0.017c-0.3-0.215-0.562-0.466-0.757-0.783c-0.978-1.994-2.96-1.088-4.469-1.55
		c-0.368-0.485-0.736-0.97-1.104-1.455c0.095-0.142,0.189-0.284,0.284-0.427c0.397-0.345,0.822-0.613,1.383-0.52
		c2.166,0.482,4.34,0.947,6.123,2.404C296.718,78.953,298.163,79.521,299.608,80.089z"/>
	<path fill-rule="evenodd" clip-rule="evenodd" fill="#231F20" d="M295.272,78.384c-2.27-0.634-4.538-1.268-6.808-1.902
		c-0.25,0.072-0.505,0.107-0.765,0.112c-0.258-0.05-0.487-0.16-0.693-0.322c0.466-0.483,0.933-0.965,1.4-1.448
		c2.548,0.951,5.096,1.902,7.644,2.854C295.791,77.913,295.532,78.149,295.272,78.384z"/>
	<path fill-rule="evenodd" clip-rule="evenodd" fill="#2F2523" d="M284.704,75.575c-1.01-0.211-2.167,0.114-2.979-0.819
		C282.784,74.788,283.979,74.333,284.704,75.575z"/>
	<path fill-rule="evenodd" clip-rule="evenodd" fill="#231F20" d="M281.734,74.028c-0.004-0.222-0.021-0.441-0.051-0.661
		c0.259-0.276,0.517-0.553,0.774-0.829C283.662,73.736,282.707,73.887,281.734,74.028z"/>
	<path fill-rule="evenodd" clip-rule="evenodd" fill="#2A0B3E" d="M288.568,73.298c-0.266,0.227-0.532,0.454-0.798,0.681
		C288.036,73.752,288.303,73.524,288.568,73.298z"/>
	<path fill-rule="evenodd" clip-rule="evenodd" fill="#432B54" d="M282.455,72.519c-0.225-0.268-0.449-0.536-0.673-0.804
		C282.006,71.983,282.23,72.251,282.455,72.519z"/>
	<path fill-rule="evenodd" clip-rule="evenodd" fill="#6F3097" d="M287.007,76.272c0.211-0.036,0.417-0.018,0.619,0.054
		c0.265,0.13,0.378,0.345,0.36,0.635l-0.262,0.12l-0.242-0.154C287.033,76.919,286.974,76.629,287.007,76.272z"/>
	<path fill-rule="evenodd" clip-rule="evenodd" fill="#43284E" d="M293.055,79.931c0.252,0.261,0.505,0.521,0.757,0.783
		C293.56,80.453,293.307,80.192,293.055,79.931z"/>
	<path fill-rule="evenodd" clip-rule="evenodd" fill="#8A0A2F" d="M241.24,166.33c0.445,1.592,1.076,3.214-0.719,4.442
		c-0.735,0.524-1.657,0.741-2.311,1.4c-1.461-0.15-3.274,0.894-4.271-0.841c-0.779-1.357,0.141-2.485,1.126-3.482
		c0.414-0.418,0.642-1.018,0.954-1.534C237.76,166.32,239.5,166.325,241.24,166.33z"/>
	<path fill-rule="evenodd" clip-rule="evenodd" fill="#F2EFC2" d="M246.556,150.496c0.015,0.755,0.03,1.51,0.046,2.265
		c-1.132,0.946-2.263,1.893-3.395,2.839c-1.109,0.102-2.219,0.254-3.33,0.279c-0.472,0.01-0.95-0.25-1.426-0.388
		c1.565-3.021-2.654-3.853-2.412-6.372c0.523-0.525,1.047-1.049,1.57-1.574c0.209,0.021,0.417,0.051,0.624,0.088
		c0.207,0.152,0.437,0.257,0.685,0.321c0.753,0.188,1.506,0.378,2.259,0.567C242.97,149.18,244.763,149.838,246.556,150.496z"/>
	<path fill-rule="evenodd" clip-rule="evenodd" fill="#621833" d="M238.211,172.173c0.154-1.482,1.229-1.447,2.311-1.4
		C240.046,171.726,239.327,172.277,238.211,172.173z"/>
	<path fill-rule="evenodd" clip-rule="evenodd" fill="#14070F" d="M224.005,151.189c0.017-0.279,0.034-0.559,0.051-0.838
		c0.711-0.002,1.423-0.002,2.133-0.004c0.017,0.277,0.032,0.555,0.048,0.83C225.492,151.182,224.749,151.186,224.005,151.189z"/>
	<path fill-rule="evenodd" clip-rule="evenodd" fill="#6F3097" d="M238.918,147.954c-0.356,0.168-0.559,0.004-0.685-0.321
		C238.575,147.498,238.828,147.55,238.918,147.954z"/>
	<path fill-rule="evenodd" clip-rule="evenodd" fill="#F4EAD7" d="M287.986,76.961c-0.121-0.211-0.24-0.423-0.36-0.635
		c0.28,0.052,0.56,0.104,0.839,0.156C288.361,76.699,288.202,76.858,287.986,76.961z"/>
	<g>
		<path fill="#D2D2D2" d="M26.92,245.764c0-1.61,0.224-2.824,0.672-3.64c0.448-0.815,1.178-1.224,2.192-1.224
			c1.024,0,1.762,0.362,2.216,1.088c0.453,0.725,0.68,1.787,0.68,3.184c0,0.918-0.045,1.718-0.136,2.4s-0.245,1.25-0.464,1.703
			c-0.219,0.454-0.518,0.795-0.896,1.024c-0.379,0.229-0.856,0.345-1.432,0.345c-0.586,0-1.064-0.112-1.432-0.336
			c-0.368-0.225-0.656-0.547-0.864-0.969c-0.208-0.421-0.35-0.934-0.424-1.535C26.958,247.201,26.92,246.521,26.92,245.764z
			 M28.872,245.828c0,0.607,0.011,1.117,0.032,1.527c0.021,0.411,0.064,0.742,0.128,0.992c0.064,0.251,0.157,0.43,0.28,0.536
			s0.291,0.16,0.504,0.16c0.16,0,0.301-0.066,0.424-0.2c0.123-0.133,0.224-0.352,0.304-0.656c0.08-0.304,0.142-0.701,0.184-1.191
			s0.064-1.099,0.064-1.824c0-0.863-0.059-1.53-0.176-2c-0.118-0.469-0.363-0.704-0.736-0.704c-0.213,0-0.387,0.08-0.52,0.24
			s-0.237,0.384-0.312,0.672c-0.075,0.288-0.123,0.64-0.144,1.056C28.883,244.852,28.872,245.316,28.872,245.828z"/>
	</g>
	<g>
		<path fill="#D2D2D2" d="M21.048,187.41c-0.107-0.234-0.171-0.477-0.192-0.728s-0.032-0.445-0.032-0.584
			c0-0.128,0.083-0.245,0.248-0.353c0.165-0.105,0.384-0.199,0.656-0.279s0.579-0.145,0.92-0.191
			c0.341-0.049,0.693-0.072,1.056-0.072c0.907,0,1.542,0.191,1.904,0.576c0.362,0.383,0.544,0.943,0.544,1.68
			c0,0.48-0.102,0.934-0.304,1.359c-0.203,0.428-0.458,0.859-0.768,1.297s-0.659,0.898-1.048,1.383
			c-0.39,0.486-0.766,1.027-1.128,1.625h1.184c0.33,0,0.632-0.008,0.904-0.024s0.504-0.034,0.696-0.056
			c0.224-0.032,0.421-0.064,0.592-0.096c0,0.373-0.003,0.68-0.008,0.92s-0.021,0.43-0.048,0.567
			c-0.027,0.139-0.069,0.235-0.128,0.288c-0.059,0.054-0.136,0.08-0.232,0.08h-5.28c-0.032-0.096-0.051-0.197-0.056-0.305
			c-0.006-0.105-0.008-0.17-0.008-0.191c0-0.139,0.005-0.264,0.016-0.376s0.032-0.218,0.064-0.319
			c0.032-0.102,0.075-0.209,0.128-0.32c0.053-0.112,0.123-0.248,0.208-0.408c0.331-0.586,0.683-1.123,1.056-1.607
			c0.373-0.486,0.714-0.932,1.024-1.336c0.31-0.406,0.565-0.787,0.768-1.145s0.304-0.701,0.304-1.032
			c0-0.277-0.085-0.487-0.256-0.632c-0.17-0.145-0.4-0.217-0.688-0.217c-0.128,0-0.283,0.012-0.464,0.033
			c-0.182,0.021-0.371,0.053-0.568,0.096c-0.198,0.043-0.39,0.094-0.576,0.152s-0.35,0.125-0.488,0.199V187.41z"/>
		<path fill="#D2D2D2" d="M32.536,185.203c0,0.32-0.008,0.584-0.024,0.791c-0.016,0.209-0.056,0.371-0.12,0.488
			s-0.155,0.197-0.272,0.24c-0.118,0.043-0.277,0.064-0.48,0.064s-0.443-0.003-0.72-0.008c-0.277-0.006-0.549-0.02-0.816-0.041
			c-0.31-0.01-0.624-0.025-0.944-0.047l-0.192,1.983c0.085-0.021,0.184-0.037,0.296-0.048c0.112-0.011,0.243-0.016,0.392-0.016
			c0.298,0,0.616,0.029,0.952,0.088c0.336,0.059,0.648,0.194,0.936,0.408c0.288,0.213,0.525,0.525,0.712,0.936
			s0.28,0.963,0.28,1.656c0,0.715-0.083,1.362-0.248,1.943c-0.166,0.582-0.405,1.074-0.72,1.48c-0.314,0.404-0.704,0.72-1.168,0.943
			c-0.464,0.225-0.989,0.336-1.576,0.336c-0.331,0-0.608-0.023-0.832-0.072c-0.224-0.047-0.406-0.105-0.544-0.176
			c-0.139-0.068-0.24-0.144-0.304-0.224s-0.096-0.146-0.096-0.2c0-0.342,0.013-0.615,0.04-0.824
			c0.027-0.207,0.078-0.418,0.152-0.631c0.32,0.309,0.773,0.463,1.36,0.463c0.341,0,0.637-0.082,0.888-0.248
			c0.25-0.164,0.461-0.373,0.632-0.623c0.17-0.251,0.296-0.528,0.376-0.832c0.08-0.305,0.12-0.601,0.12-0.889
			c0-0.395-0.027-0.725-0.08-0.992c-0.054-0.266-0.155-0.479-0.304-0.64s-0.357-0.272-0.624-0.336s-0.619-0.097-1.056-0.097
			c-0.47,0-0.939,0.06-1.408,0.177l0.496-5.056H32.536z"/>
	</g>
	<g>
		<path fill="#D2D2D2" d="M26.136,129.84c0,0.32-0.008,0.584-0.024,0.792s-0.056,0.371-0.12,0.488s-0.155,0.197-0.272,0.24
			c-0.118,0.043-0.277,0.064-0.48,0.064s-0.443-0.002-0.72-0.008s-0.549-0.019-0.816-0.04c-0.31-0.011-0.624-0.026-0.944-0.048
			l-0.192,1.984c0.085-0.021,0.184-0.037,0.296-0.048c0.112-0.011,0.243-0.016,0.392-0.016c0.298,0,0.616,0.029,0.952,0.088
			c0.336,0.059,0.648,0.195,0.936,0.408s0.525,0.525,0.712,0.936s0.28,0.962,0.28,1.656c0,0.714-0.083,1.363-0.248,1.944
			c-0.166,0.581-0.405,1.075-0.72,1.479c-0.314,0.406-0.704,0.721-1.168,0.945c-0.464,0.223-0.989,0.336-1.576,0.336
			c-0.331,0-0.608-0.024-0.832-0.072c-0.224-0.049-0.406-0.107-0.544-0.176c-0.139-0.07-0.24-0.145-0.304-0.225
			s-0.096-0.146-0.096-0.199c0-0.342,0.013-0.617,0.04-0.824c0.027-0.209,0.078-0.419,0.152-0.633
			c0.32,0.311,0.773,0.465,1.36,0.465c0.341,0,0.637-0.083,0.888-0.248c0.25-0.166,0.461-0.373,0.632-0.625
			c0.17-0.25,0.296-0.527,0.376-0.832c0.08-0.303,0.12-0.6,0.12-0.887c0-0.395-0.027-0.726-0.08-0.992
			c-0.054-0.267-0.155-0.48-0.304-0.64s-0.357-0.272-0.624-0.336s-0.619-0.096-1.056-0.096c-0.47,0-0.939,0.059-1.408,0.176
			l0.496-5.056H26.136z"/>
		<path fill="#D2D2D2" d="M26.92,134.705c0-1.611,0.224-2.824,0.672-3.64c0.448-0.816,1.178-1.224,2.192-1.224
			c1.024,0,1.762,0.363,2.216,1.088c0.453,0.726,0.68,1.787,0.68,3.184c0,0.917-0.045,1.718-0.136,2.4
			c-0.091,0.683-0.245,1.251-0.464,1.705s-0.518,0.795-0.896,1.023c-0.379,0.229-0.856,0.344-1.432,0.344
			c-0.586,0-1.064-0.111-1.432-0.336c-0.368-0.224-0.656-0.546-0.864-0.968c-0.208-0.421-0.35-0.933-0.424-1.536
			C26.958,136.142,26.92,135.462,26.92,134.705z M28.872,134.769c0,0.608,0.011,1.117,0.032,1.528
			c0.021,0.411,0.064,0.742,0.128,0.993c0.064,0.25,0.157,0.429,0.28,0.535c0.123,0.107,0.291,0.16,0.504,0.16
			c0.16,0,0.301-0.066,0.424-0.199c0.123-0.134,0.224-0.353,0.304-0.656c0.08-0.305,0.142-0.702,0.184-1.192
			s0.064-1.099,0.064-1.824c0-0.864-0.059-1.53-0.176-2c-0.118-0.469-0.363-0.704-0.736-0.704c-0.213,0-0.387,0.08-0.52,0.24
			s-0.237,0.384-0.312,0.672c-0.075,0.288-0.123,0.64-0.144,1.056C28.883,133.792,28.872,134.256,28.872,134.769z"/>
	</g>
	<g>
		<path fill="#D2D2D2" d="M26.536,74.667c-0.512,1.152-0.971,2.243-1.376,3.272c-0.405,1.03-0.747,2-1.024,2.912
			s-0.494,1.773-0.648,2.584c-0.155,0.811-0.232,1.579-0.232,2.304c-0.374,0-0.68-0.006-0.92-0.016
			c-0.24-0.011-0.43-0.035-0.568-0.072c-0.139-0.037-0.232-0.088-0.28-0.152s-0.072-0.149-0.072-0.256
			c0-0.619,0.091-1.344,0.272-2.176c0.182-0.832,0.411-1.677,0.688-2.536c0.277-0.859,0.579-1.675,0.904-2.448
			c0.325-0.773,0.632-1.411,0.92-1.912c-0.47,0.032-0.934,0.056-1.392,0.072s-0.976,0.024-1.552,0.024
			c-0.096,0-0.176-0.048-0.24-0.144s-0.112-0.218-0.144-0.368c-0.032-0.149-0.056-0.32-0.072-0.512s-0.024-0.384-0.024-0.576H26.536
			z"/>
		<path fill="#D2D2D2" d="M32.536,74.667c0,0.32-0.008,0.584-0.024,0.792s-0.056,0.371-0.12,0.488s-0.155,0.197-0.272,0.24
			c-0.118,0.043-0.277,0.064-0.48,0.064s-0.443-0.002-0.72-0.008s-0.549-0.019-0.816-0.04c-0.31-0.011-0.624-0.026-0.944-0.048
			l-0.192,1.984c0.085-0.021,0.184-0.037,0.296-0.048c0.112-0.011,0.243-0.016,0.392-0.016c0.298,0,0.616,0.029,0.952,0.088
			c0.336,0.059,0.648,0.195,0.936,0.408s0.525,0.525,0.712,0.936s0.28,0.962,0.28,1.656c0,0.715-0.083,1.363-0.248,1.944
			c-0.166,0.582-0.405,1.075-0.72,1.48c-0.314,0.405-0.704,0.72-1.168,0.944c-0.464,0.224-0.989,0.336-1.576,0.336
			c-0.331,0-0.608-0.024-0.832-0.072c-0.224-0.048-0.406-0.106-0.544-0.176c-0.139-0.069-0.24-0.144-0.304-0.224
			s-0.096-0.146-0.096-0.2c0-0.342,0.013-0.616,0.04-0.824c0.027-0.208,0.078-0.418,0.152-0.632c0.32,0.31,0.773,0.464,1.36,0.464
			c0.341,0,0.637-0.083,0.888-0.248c0.25-0.165,0.461-0.373,0.632-0.624c0.17-0.25,0.296-0.528,0.376-0.832
			c0.08-0.304,0.12-0.6,0.12-0.888c0-0.395-0.027-0.726-0.08-0.992c-0.054-0.267-0.155-0.48-0.304-0.64s-0.357-0.272-0.624-0.336
			s-0.619-0.096-1.056-0.096c-0.47,0-0.939,0.059-1.408,0.176l0.496-5.056H32.536z"/>
	</g>
	<g>
		<path fill="#D2D2D2" d="M14.76,19.818c-0.182-0.32-0.272-0.688-0.272-1.104c0-0.064,0.061-0.13,0.184-0.2
			c0.123-0.069,0.28-0.136,0.472-0.2c0.192-0.064,0.408-0.128,0.648-0.192c0.24-0.064,0.48-0.12,0.72-0.168
			c0.24-0.048,0.469-0.085,0.688-0.112c0.219-0.026,0.397-0.04,0.536-0.04c0.075,0,0.16,0.008,0.256,0.024
			c0.096,0.016,0.166,0.04,0.208,0.072l-0.192,7.824h0.896c0.117,0,0.237-0.002,0.36-0.008s0.227-0.013,0.312-0.024
			c0.106-0.011,0.208-0.021,0.304-0.032c0,0.342-0.003,0.624-0.008,0.848s-0.019,0.403-0.04,0.536
			c-0.021,0.133-0.062,0.227-0.12,0.28c-0.059,0.054-0.136,0.08-0.232,0.08h-5.328c-0.032-0.395-0.048-0.789-0.048-1.184
			c0-0.203,0.152-0.336,0.456-0.4c0.304-0.064,0.83-0.096,1.576-0.096l0.144-6.096c-0.213,0.011-0.411,0.027-0.592,0.048
			c-0.182,0.021-0.342,0.043-0.48,0.064C15.048,19.771,14.899,19.797,14.76,19.818z"/>
		<path fill="#D2D2D2" d="M20.52,22.667c0-1.611,0.224-2.824,0.672-3.64c0.448-0.816,1.178-1.224,2.192-1.224
			c1.024,0,1.762,0.363,2.216,1.088c0.453,0.726,0.68,1.787,0.68,3.184c0,0.917-0.045,1.718-0.136,2.4
			c-0.091,0.683-0.245,1.251-0.464,1.704c-0.219,0.454-0.518,0.795-0.896,1.024c-0.379,0.229-0.856,0.344-1.432,0.344
			c-0.586,0-1.064-0.112-1.432-0.336c-0.368-0.224-0.656-0.546-0.864-0.968c-0.208-0.421-0.35-0.933-0.424-1.536
			C20.558,24.104,20.52,23.424,20.52,22.667z M22.472,22.73c0,0.608,0.011,1.117,0.032,1.528c0.021,0.411,0.064,0.742,0.128,0.992
			s0.157,0.429,0.28,0.536c0.123,0.107,0.291,0.16,0.504,0.16c0.16,0,0.301-0.066,0.424-0.2c0.123-0.133,0.224-0.352,0.304-0.656
			s0.142-0.701,0.184-1.192s0.064-1.099,0.064-1.824c0-0.864-0.059-1.53-0.176-2c-0.118-0.469-0.363-0.704-0.736-0.704
			c-0.213,0-0.387,0.08-0.52,0.24s-0.237,0.384-0.312,0.672c-0.075,0.288-0.123,0.64-0.144,1.056
			C22.483,21.754,22.472,22.218,22.472,22.73z"/>
		<path fill="#D2D2D2" d="M26.92,22.667c0-1.611,0.224-2.824,0.672-3.64c0.448-0.816,1.178-1.224,2.192-1.224
			c1.024,0,1.762,0.363,2.216,1.088c0.453,0.726,0.68,1.787,0.68,3.184c0,0.917-0.045,1.718-0.136,2.4
			c-0.091,0.683-0.245,1.251-0.464,1.704c-0.219,0.454-0.518,0.795-0.896,1.024c-0.379,0.229-0.856,0.344-1.432,0.344
			c-0.586,0-1.064-0.112-1.432-0.336c-0.368-0.224-0.656-0.546-0.864-0.968c-0.208-0.421-0.35-0.933-0.424-1.536
			C26.958,24.104,26.92,23.424,26.92,22.667z M28.872,22.73c0,0.608,0.011,1.117,0.032,1.528c0.021,0.411,0.064,0.742,0.128,0.992
			s0.157,0.429,0.28,0.536c0.123,0.107,0.291,0.16,0.504,0.16c0.16,0,0.301-0.066,0.424-0.2c0.123-0.133,0.224-0.352,0.304-0.656
			s0.142-0.701,0.184-1.192s0.064-1.099,0.064-1.824c0-0.864-0.059-1.53-0.176-2c-0.118-0.469-0.363-0.704-0.736-0.704
			c-0.213,0-0.387,0.08-0.52,0.24s-0.237,0.384-0.312,0.672c-0.075,0.288-0.123,0.64-0.144,1.056
			C28.883,21.754,28.872,22.218,28.872,22.73z"/>
	</g>
	<g>
		<path fill="#D2D2D2" d="M216.799,39.709c0,0.493-0.164,0.898-0.49,1.215s-0.779,0.481-1.359,0.495
			c-0.146,0-0.304-0.023-0.471-0.07c-0.307-0.086-0.467-0.13-0.48-0.13c-0.159-0.033-0.32-0.068-0.484-0.105
			s-0.305-0.111-0.425-0.225c-0.181-0.16-0.327-0.42-0.44-0.78c-0.14-0.42-0.246-0.683-0.32-0.79
			c-0.053-0.053-0.116-0.146-0.189-0.28c-0.02-0.1-0.002-0.199,0.055-0.295c0.057-0.096,0.125-0.158,0.205-0.185
			c0.041-0.014,0.113-0.02,0.221-0.02c0.232,0,0.518,0.028,0.854,0.085s0.524,0.108,0.565,0.155c0.039,0.047,0.093,0.287,0.16,0.72
			c0.06,0.4,0.149,0.623,0.27,0.67c0.026,0.013,0.057,0.02,0.09,0.02c0.127,0,0.235-0.105,0.325-0.315s0.135-0.448,0.135-0.715
			c0-0.58-0.18-0.966-0.54-1.16c-0.826-0.447-1.406-0.86-1.74-1.24c-0.387-0.44-0.56-0.96-0.52-1.56
			c0.033-0.5,0.215-1.005,0.545-1.515c0.33-0.51,0.678-0.809,1.045-0.895c0.153-0.034,0.62,0.113,1.4,0.44
			c0.193,0.073,0.389,0.15,0.585,0.23s0.354,0.197,0.475,0.35c0.187,0.233,0.28,0.637,0.28,1.21c0,0.106-0.004,0.263-0.01,0.47
			c-0.007,0.18-0.01,0.307-0.01,0.38c0.006,0.047,0.029,0.124,0.069,0.23c0.033,0.074,0.047,0.147,0.04,0.22
			c-0.014,0.293-0.137,0.457-0.37,0.49c-0.134,0.02-0.38-0.03-0.739-0.15c-0.4-0.126-0.654-0.263-0.761-0.41
			c-0.013-0.02-0.021-0.087-0.021-0.2c0-0.1,0.012-0.327,0.035-0.68c0.023-0.353,0.035-0.61,0.035-0.77
			c0-0.286-0.033-0.426-0.1-0.42c-0.207,0.014-0.379,0.162-0.516,0.445c-0.137,0.283-0.205,0.605-0.205,0.965
			c0,0.6,0.178,1.027,0.531,1.28c0.399,0.253,0.799,0.507,1.199,0.76c0.381,0.247,0.644,0.493,0.79,0.74
			C216.705,38.689,216.799,39.136,216.799,39.709z"/>
		<path fill="#D2D2D2" d="M220.789,41.369c-0.141,0.014-0.297-0.005-0.471-0.055c-0.173-0.05-0.343-0.102-0.51-0.155
			c-0.199-0.053-0.514-0.15-0.939-0.29c-0.533-0.233-0.938-0.693-1.211-1.38c-0.239-0.606-0.359-1.34-0.359-2.2
			c0-0.7,0.12-1.517,0.359-2.45c0.327-1.253,0.75-1.88,1.271-1.88c0.047,0,0.112,0.012,0.195,0.035
			c0.083,0.023,0.147,0.039,0.194,0.045c0.494-0.14,0.811-0.21,0.951-0.21c0.066,0,0.133,0.004,0.199,0.01
			c0.801,0.1,1.43,0.6,1.891,1.5c0.412,0.813,0.619,1.783,0.619,2.91c0,1.066-0.187,1.983-0.56,2.75
			C222.02,40.833,221.476,41.29,220.789,41.369z M220.609,34.04c-0.147-0.04-0.293,0.157-0.436,0.59
			c-0.144,0.434-0.289,0.65-0.436,0.65c-0.033,0-0.081-0.018-0.145-0.055c-0.063-0.036-0.115-0.058-0.154-0.065
			c-0.228,0.5-0.341,1.213-0.341,2.14c0,0.727,0.077,1.35,0.229,1.87c0.174,0.58,0.414,0.9,0.721,0.96
			c0.359,0.067,0.65-0.303,0.87-1.11c0.193-0.707,0.29-1.547,0.29-2.52c0-0.66-0.051-1.213-0.15-1.66
			C220.952,34.359,220.803,34.093,220.609,34.04z"/>
		<path fill="#D2D2D2" d="M229.248,39.879c0.061,0.113-0.058,0.392-0.354,0.835s-0.545,0.662-0.745,0.655
			c-0.213-0.006-0.383-0.12-0.51-0.34c-0.02-0.066-0.07-0.163-0.15-0.29l-2.109-1.97v1.85c0,0.074,0.027,0.167,0.085,0.28
			c0.056,0.113,0.085,0.196,0.085,0.25c0,0.2-0.131,0.31-0.391,0.33c-0.199,0.02-0.496-0.017-0.89-0.11
			c-0.427-0.093-0.64-0.193-0.64-0.3c0-0.033,0.008-0.078,0.025-0.135c0.016-0.057,0.024-0.128,0.024-0.215v-6.98
			c0-0.046-0.011-0.088-0.03-0.125s-0.029-0.065-0.029-0.085c0.006-0.18,0.14-0.287,0.399-0.32c0.08-0.013,0.262,0.018,0.545,0.095
			s0.485,0.112,0.604,0.105c0.113-0.006,0.346-0.098,0.695-0.275c0.351-0.176,0.655-0.265,0.916-0.265c0.1,0,0.203,0.01,0.31,0.03
			c0.187,0.04,0.356,0.126,0.51,0.26c0.153,0.134,0.3,0.267,0.44,0.4c0.366,0.347,0.557,0.53,0.569,0.55
			c0.173,0.2,0.267,0.423,0.28,0.67c0.04,0.773-0.62,1.767-1.98,2.98c0.28,0.253,0.896,0.87,1.851,1.85
			c0.06,0.02,0.146,0.06,0.26,0.12C229.085,39.763,229.162,39.813,229.248,39.879z M227.039,34.29c-0.314,0-0.867,0.327-1.66,0.98
			v1.53c0.286-0.113,0.663-0.457,1.13-1.03c0.466-0.573,0.7-1,0.7-1.28C227.209,34.356,227.152,34.29,227.039,34.29z"/>
		<path fill="#D2D2D2" d="M235.598,39.879c0.061,0.113-0.058,0.392-0.354,0.835s-0.545,0.662-0.745,0.655
			c-0.213-0.006-0.383-0.12-0.51-0.34c-0.02-0.066-0.07-0.163-0.15-0.29l-2.109-1.97v1.85c0,0.074,0.027,0.167,0.085,0.28
			c0.056,0.113,0.085,0.196,0.085,0.25c0,0.2-0.131,0.31-0.391,0.33c-0.199,0.02-0.496-0.017-0.89-0.11
			c-0.427-0.093-0.64-0.193-0.64-0.3c0-0.033,0.008-0.078,0.025-0.135c0.016-0.057,0.024-0.128,0.024-0.215v-6.98
			c0-0.046-0.011-0.088-0.03-0.125s-0.029-0.065-0.029-0.085c0.006-0.18,0.14-0.287,0.399-0.32c0.08-0.013,0.262,0.018,0.545,0.095
			s0.485,0.112,0.604,0.105c0.113-0.006,0.346-0.098,0.695-0.275c0.351-0.176,0.655-0.265,0.916-0.265c0.1,0,0.203,0.01,0.31,0.03
			c0.187,0.04,0.356,0.126,0.51,0.26c0.153,0.134,0.3,0.267,0.44,0.4c0.366,0.347,0.557,0.53,0.569,0.55
			c0.173,0.2,0.267,0.423,0.28,0.67c0.04,0.773-0.62,1.767-1.98,2.98c0.28,0.253,0.896,0.87,1.851,1.85
			c0.06,0.02,0.146,0.06,0.26,0.12C235.435,39.763,235.512,39.813,235.598,39.879z M233.389,34.29c-0.314,0-0.867,0.327-1.66,0.98
			v1.53c0.286-0.113,0.663-0.457,1.13-1.03c0.466-0.573,0.7-1,0.7-1.28C233.559,34.356,233.502,34.29,233.389,34.29z"/>
		<path fill="#D2D2D2" d="M242.098,33.689c0.041,0.347-0.039,0.566-0.239,0.66c-0.114,0.054-0.167,0.08-0.16,0.08
			c-0.387,0.594-0.896,1.637-1.53,3.13c-0.594,1.413-0.903,2.263-0.93,2.55c-0.007,0.053,0.006,0.146,0.04,0.28
			c0.033,0.134,0.046,0.244,0.04,0.33c-0.04,0.454-0.153,0.697-0.34,0.73c-0.094,0.013-0.325-0.037-0.695-0.15
			s-0.618-0.21-0.745-0.29c-0.227-0.16-0.34-0.32-0.34-0.48c0-0.08,0.023-0.17,0.069-0.27c0.094-0.26,0.291-0.793,0.591-1.6
			c-0.554-1.14-0.927-1.926-1.12-2.36c-0.387-0.867-0.66-1.577-0.82-2.13c-0.014-0.033-0.051-0.083-0.115-0.15
			c-0.062-0.067-0.095-0.127-0.095-0.18c0-0.1,0.13-0.25,0.39-0.45c0.554-0.426,0.934-0.626,1.141-0.6
			c0.106,0.013,0.203,0.083,0.29,0.21c0.073,0.1,0.116,0.19,0.13,0.27c0,0.126,0.02,0.33,0.061,0.61
			c0.152,0.827,0.473,1.723,0.959,2.69c0.374-0.913,0.584-1.417,0.631-1.51c0.253-0.567,0.539-1.097,0.859-1.59
			c0.027-0.106,0.074-0.243,0.141-0.41c0.133-0.153,0.312-0.217,0.539-0.19c0.16,0.02,0.406,0.137,0.735,0.35
			C241.913,33.433,242.085,33.589,242.098,33.689z"/>
		<path fill="#D2D2D2" d="M242.379,40.129c0.06,0.106,0.09,0.24,0.09,0.4c0,0.38-0.144,0.753-0.43,1.12
			c-0.32,0.406-0.701,0.617-1.141,0.63c-0.213,0.007-0.42-0.037-0.62-0.13c-0.247-0.113-0.37-0.267-0.37-0.46s0.051-0.267,0.15-0.22
			c0.033,0.013,0.07,0.02,0.109,0.02c0.193,0,0.396-0.09,0.61-0.27c0.24-0.193,0.36-0.413,0.36-0.66c0-0.047-0.012-0.11-0.035-0.19
			c-0.023-0.08-0.035-0.143-0.035-0.19c0-0.213,0.08-0.35,0.24-0.41c0.086-0.034,0.273-0.003,0.561,0.09
			C242.155,39.953,242.325,40.043,242.379,40.129z"/>
		<path fill="#D2D2D2" d="M216.748,43.639c-0.513,0.94-0.979,2.37-1.399,4.29c-0.347,1.574-0.507,2.527-0.479,2.86
			c-0.014,0.053-0.011,0.12,0.01,0.2c0.02,0.08,0.026,0.14,0.02,0.18c-0.047,0.313-0.137,0.48-0.27,0.5
			c-0.107,0.02-0.44-0.097-1-0.35c-0.58-0.247-0.891-0.43-0.93-0.55c-0.008-0.014-0.018-0.22-0.031-0.62
			c-0.286-0.88-0.477-1.773-0.569-2.68c-0.187,0.48-0.37,0.96-0.55,1.44c-0.174,0.52-0.254,1.037-0.24,1.55
			c-0.014,0.06-0.014,0.14,0,0.24c0.02,0.107,0.023,0.19,0.01,0.25c-0.06,0.287-0.153,0.45-0.279,0.49
			c-0.041,0.013-0.094,0.02-0.16,0.02c-0.307,0-0.654-0.07-1.041-0.21c-0.473-0.167-0.742-0.367-0.81-0.6
			c0.007-0.053,0-0.227-0.02-0.52c-0.313-1.14-0.523-2.173-0.63-3.1c-0.107-0.887-0.15-1.963-0.131-3.23
			c-0.06-0.313-0.076-0.51-0.049-0.59c0.086-0.287,0.206-0.427,0.359-0.42c0.174,0.006,0.45,0.11,0.83,0.31
			c0.38,0.2,0.583,0.36,0.609,0.48c0.007,0.04-0.003,0.23-0.029,0.57c-0.027,0.307-0.04,0.59-0.04,0.85
			c0,0.566,0.097,1.493,0.29,2.78l1.4-4.39c0.013-0.086,0.053-0.207,0.119-0.36c0.08-0.1,0.18-0.16,0.301-0.18
			c0.072-0.013,0.34,0.092,0.799,0.315c0.461,0.223,0.693,0.378,0.701,0.465c0,0.047-0.008,0.27-0.021,0.67
			c-0.021,0.474-0.03,0.887-0.03,1.24c0,0.867,0.054,1.61,0.16,2.23c0.18-0.92,0.414-1.87,0.7-2.85c0.22-0.78,0.39-1.31,0.51-1.59
			c0.073-0.333,0.25-0.48,0.53-0.44c0.227,0.034,0.473,0.11,0.74,0.23C216.482,43.279,216.688,43.453,216.748,43.639z"/>
		<path fill="#D2D2D2" d="M221.898,49.959c-0.02,0.113-0.078,0.235-0.175,0.365s-0.183,0.208-0.255,0.235
			c-0.021,0.006-0.057-0.005-0.11-0.035c-0.054-0.03-0.097-0.045-0.13-0.045c-0.014,0-0.027,0.003-0.04,0.01
			c-0.206,0.06-0.413,0.14-0.62,0.24c-0.493,0.227-0.947,0.517-1.359,0.87c-0.668-0.273-1.031-0.423-1.09-0.45
			c-0.414-0.18-0.621-0.313-0.621-0.4v-7.52c0-0.047,0.078-0.113,0.235-0.2c0.157-0.086,0.271-0.126,0.345-0.12
			c0.08,0.007,0.24,0.059,0.48,0.155s0.437,0.145,0.59,0.145c0.2,0,0.46-0.09,0.779-0.27c0.294-0.173,0.477-0.247,0.551-0.22
			c0.16,0.054,0.398,0.229,0.715,0.525c0.316,0.297,0.488,0.509,0.516,0.635c0.013,0.06-0.049,0.164-0.186,0.31
			s-0.248,0.22-0.335,0.22c-0.073,0-0.127-0.01-0.16-0.03s-0.057-0.027-0.069-0.02c-0.24,0.053-0.464,0.117-0.67,0.19
			c-0.494,0.167-0.857,0.36-1.091,0.58v1.63c0.233-0.12,0.536-0.243,0.91-0.37c0.106-0.013,0.331,0.135,0.675,0.445
			s0.516,0.525,0.516,0.645c0,0.073-0.047,0.16-0.141,0.26s-0.184,0.164-0.27,0.19c-0.066,0-0.184,0.007-0.35,0.02
			c-0.254,0.047-0.701,0.26-1.341,0.64v1.05c0.2-0.12,0.472-0.261,0.815-0.425c0.344-0.163,0.555-0.245,0.635-0.245
			c0.094,0,0.328,0.145,0.705,0.435S221.912,49.879,221.898,49.959z"/>
		<path fill="#D2D2D2" d="M229.248,43.229c0.047,0.18,0.04,0.45-0.02,0.81c0,0.08,0,0.296,0,0.65c0.006,0.433,0.01,0.793,0.01,1.08
			c0,3.506-0.403,5.39-1.21,5.65c-0.106,0.033-0.214,0.05-0.319,0.05c-0.141,0-0.317-0.03-0.531-0.09
			c-0.186-0.06-0.376-0.12-0.569-0.18c-0.16-0.04-0.323-0.08-0.49-0.12c-0.167-0.04-0.31-0.1-0.43-0.18
			c-0.294-0.193-0.526-0.497-0.7-0.91c-0.12-0.293-0.203-0.633-0.25-1.02c-0.02-0.18-0.037-0.36-0.05-0.54
			c-0.094-0.227-0.127-0.386-0.101-0.48c0.061-0.213,0.2-0.333,0.42-0.36c0.181-0.02,0.438,0.007,0.771,0.08
			c0.399,0.086,0.637,0.2,0.71,0.34c0.026,0.047,0.04,0.1,0.04,0.16c0,0.013-0.011,0.073-0.03,0.18
			c-0.006,0.08-0.004,0.147,0.01,0.2c0.014,0.333,0.061,0.657,0.141,0.97c0.086,0.353,0.18,0.53,0.279,0.53
			c0.201,0,0.324-0.957,0.371-2.87c0.006-0.38,0.01-1.58,0.01-3.6c0-0.046-0.014-0.106-0.041-0.18
			c-0.025-0.073-0.039-0.117-0.039-0.13c0-0.087,0.048-0.175,0.145-0.265s0.195-0.142,0.295-0.155c0.18-0.02,0.467,0.003,0.86,0.07
			C228.975,43.006,229.215,43.109,229.248,43.229z"/>
		<path fill="#D2D2D2" d="M235.238,43.659c0.007-0.073,0.01,0.563,0.01,1.91c0,3.8-0.529,5.76-1.59,5.88
			c-0.187,0.02-0.412-0.013-0.675-0.1c-0.264-0.086-0.522-0.173-0.774-0.26c-0.221-0.053-0.442-0.112-0.666-0.175
			c-0.223-0.063-0.398-0.165-0.524-0.305c-0.273-0.3-0.493-0.953-0.66-1.96c-0.147-0.927-0.22-1.953-0.22-3.08
			c0-0.867,0.047-1.63,0.14-2.29c0.026-0.207,0.124-0.34,0.29-0.4c0.073-0.027,0.328,0.02,0.766,0.14
			c0.436,0.12,0.691,0.223,0.764,0.31c0.034,0.04,0.051,0.094,0.051,0.16c0,0.087-0.033,0.205-0.1,0.355
			c-0.067,0.15-0.098,0.269-0.09,0.355c-0.034,0.127-0.051,0.494-0.051,1.1c0,1.173,0.053,2.237,0.16,3.19
			c0.133,1.227,0.326,1.827,0.58,1.8c0.32-0.034,0.561-0.617,0.72-1.75c0.127-0.874,0.19-1.903,0.19-3.09
			c0-0.78-0.023-1.27-0.07-1.47c0.014-0.113,0-0.224-0.04-0.33c-0.06-0.146-0.09-0.227-0.09-0.24c-0.04-0.227,0.033-0.396,0.22-0.51
			c0.033-0.02,0.09-0.03,0.17-0.03c0.2,0,0.48,0.05,0.84,0.15c0.36,0.1,0.57,0.183,0.631,0.25
			C235.258,43.316,235.266,43.446,235.238,43.659z"/>
		<path fill="#D2D2D2" d="M240.668,49.709c0,0.493-0.164,0.898-0.49,1.215s-0.779,0.481-1.359,0.495
			c-0.146,0-0.304-0.023-0.471-0.07c-0.307-0.086-0.467-0.13-0.48-0.13c-0.159-0.033-0.32-0.068-0.484-0.105
			s-0.305-0.111-0.425-0.225c-0.181-0.16-0.327-0.42-0.44-0.78c-0.14-0.42-0.246-0.683-0.32-0.79
			c-0.053-0.053-0.116-0.146-0.189-0.28c-0.02-0.1-0.002-0.199,0.055-0.295c0.057-0.096,0.125-0.158,0.205-0.185
			c0.041-0.014,0.113-0.02,0.221-0.02c0.232,0,0.518,0.028,0.854,0.085s0.524,0.108,0.565,0.155c0.039,0.047,0.093,0.287,0.16,0.72
			c0.06,0.4,0.149,0.623,0.27,0.67c0.026,0.013,0.057,0.02,0.09,0.02c0.127,0,0.235-0.105,0.325-0.315s0.135-0.448,0.135-0.715
			c0-0.58-0.18-0.966-0.54-1.16c-0.826-0.447-1.406-0.86-1.74-1.24c-0.387-0.44-0.56-0.96-0.52-1.56
			c0.033-0.5,0.215-1.005,0.545-1.515c0.33-0.51,0.678-0.809,1.045-0.895c0.153-0.034,0.62,0.113,1.4,0.44
			c0.193,0.073,0.389,0.15,0.585,0.23s0.354,0.197,0.475,0.35c0.187,0.233,0.28,0.637,0.28,1.21c0,0.106-0.004,0.263-0.01,0.47
			c-0.007,0.18-0.01,0.307-0.01,0.38c0.006,0.047,0.029,0.124,0.069,0.23c0.033,0.074,0.047,0.147,0.04,0.22
			c-0.014,0.293-0.137,0.457-0.37,0.49c-0.134,0.02-0.38-0.03-0.739-0.15c-0.4-0.126-0.654-0.263-0.761-0.41
			c-0.013-0.02-0.021-0.087-0.021-0.2c0-0.1,0.012-0.327,0.035-0.68c0.023-0.353,0.035-0.61,0.035-0.77
			c0-0.286-0.033-0.426-0.1-0.42c-0.207,0.014-0.379,0.162-0.516,0.445c-0.137,0.283-0.205,0.605-0.205,0.965
			c0,0.6,0.178,1.027,0.531,1.28c0.399,0.253,0.799,0.507,1.199,0.76c0.381,0.247,0.644,0.493,0.79,0.74
			C240.574,48.689,240.668,49.136,240.668,49.709z"/>
		<path fill="#D2D2D2" d="M246.178,44.56c-0.053,0-0.127-0.022-0.22-0.065c-0.093-0.043-0.17-0.058-0.229-0.045l-1.031,0.28v5.26
			c0,0.193,0.047,0.403,0.141,0.63c0.027,0.067,0.02,0.194-0.02,0.38c-0.041,0.207-0.104,0.336-0.19,0.39
			c-0.013,0.007-0.047,0.01-0.101,0.01c-0.219,0-0.525-0.043-0.92-0.13c-0.439-0.1-0.699-0.197-0.779-0.29
			c-0.094-0.12-0.09-0.28,0.01-0.48c0.086-0.173,0.13-0.3,0.13-0.38v-4.95l-0.71,0.18c-0.033,0.007-0.088,0.035-0.165,0.085
			c-0.077,0.05-0.142,0.068-0.194,0.055c-0.154-0.04-0.363-0.238-0.631-0.595c-0.266-0.357-0.383-0.599-0.35-0.725
			c0.053-0.153,0.21-0.27,0.471-0.35c0.066-0.02,0.152-0.023,0.26-0.01c0.105,0.013,0.189,0.013,0.25,0l3.479-0.89
			c0.033-0.007,0.13-0.047,0.29-0.12c0.106-0.046,0.203-0.063,0.29-0.05c0.187,0.026,0.313,0.1,0.38,0.22
			c0.047,0.08,0.097,0.23,0.15,0.45c0.066,0.26,0.1,0.487,0.1,0.68c0,0.147-0.019,0.259-0.055,0.335
			C246.496,44.511,246.378,44.553,246.178,44.56z"/>
		<path fill="#D2D2D2" d="M203.214,59.109c-0.021,0.167-0.083,0.3-0.19,0.4c-0.193,0.414-0.489,0.83-0.889,1.25
			c-0.434,0.447-0.784,0.67-1.051,0.67c-0.04,0-0.076-0.003-0.109-0.01c-0.294-0.094-0.624-0.21-0.99-0.35
			c-0.654-0.267-1.154-0.776-1.5-1.53c-0.307-0.68-0.461-1.47-0.461-2.37c0-1.1,0.211-2.07,0.631-2.91
			c0.446-0.893,1.006-1.356,1.68-1.39c0.26-0.013,0.642,0.12,1.145,0.4c0.504,0.28,0.836,0.558,0.996,0.835
			c0.16,0.276,0.27,0.881,0.33,1.815c0.013,0.2-0.014,0.403-0.08,0.61c-0.08,0.247-0.184,0.36-0.311,0.34
			c-0.233-0.033-0.527-0.106-0.88-0.22c-0.427-0.14-0.657-0.257-0.69-0.35c-0.014-0.033-0.02-0.063-0.02-0.09
			c0-0.06,0.028-0.135,0.085-0.225s0.085-0.165,0.085-0.225c0.033-0.273,0.05-0.53,0.05-0.77c0-0.347-0.04-0.586-0.12-0.72
			c-0.4,0.293-0.703,0.783-0.91,1.47c-0.173,0.58-0.26,1.237-0.26,1.97c0,0.566,0.051,1.072,0.15,1.515
			c0.1,0.444,0.22,0.712,0.359,0.805c0.066,0.04,0.252-0.095,0.555-0.405c0.305-0.31,0.499-0.559,0.586-0.745
			c0.006-0.007,0.036-0.113,0.09-0.32c0.04-0.12,0.094-0.193,0.16-0.22c0.113-0.04,0.404,0.055,0.875,0.285
			C202.999,58.854,203.228,59.016,203.214,59.109z"/>
		<path fill="#D2D2D2" d="M209.764,60.659c-0.006,0.06-0.02,0.204-0.039,0.43c-0.008,0.12-0.034,0.21-0.08,0.27
			c-0.034,0.02-0.091,0.03-0.17,0.03c-0.221,0-0.494-0.057-0.82-0.17c-0.354-0.106-0.594-0.233-0.721-0.38
			c-0.053-0.06-0.106-0.26-0.16-0.6c-0.072-0.446-0.156-0.816-0.25-1.11c-0.253,0.033-0.623,0.125-1.109,0.275
			s-0.804,0.275-0.95,0.375c-0.101,0.287-0.233,0.64-0.399,1.06c-0.021,0.093-0.042,0.182-0.065,0.265
			c-0.023,0.083-0.082,0.151-0.175,0.205c-0.021,0.013-0.051,0.02-0.09,0.02c-0.16,0-0.429-0.083-0.806-0.25
			c-0.376-0.167-0.571-0.276-0.585-0.33c-0.026-0.093,0.037-0.323,0.19-0.69c0.213-0.534,0.337-0.86,0.37-0.98
			c-0.141-0.14-0.211-0.28-0.211-0.42c0-0.033,0.004-0.07,0.011-0.11c0.013-0.08,0.216-0.223,0.61-0.43l1.289-4.41
			c0.021-0.08,0.023-0.227,0.01-0.44c-0.013-0.18,0.008-0.293,0.061-0.34c0.033-0.033,0.113-0.05,0.24-0.05
			c0.312,0,0.76,0.08,1.34,0.24c0.58,0.16,0.927,0.304,1.04,0.43c0.04,0.74,0.19,1.85,0.45,3.33
			C209.077,58.706,209.417,59.966,209.764,60.659z M207.154,57.619c-0.087-0.42-0.141-0.696-0.16-0.83
			c-0.074-0.447-0.123-0.91-0.15-1.39c-0.133,0.327-0.29,0.78-0.47,1.36c-0.193,0.607-0.297,0.987-0.31,1.14
			C206.19,57.846,206.554,57.753,207.154,57.619z"/>
		<path fill="#D2D2D2" d="M216.224,53.359c0,0.073-0.014,0.144-0.04,0.21c-0.047,0.113-0.076,0.204-0.09,0.27v6.6
			c0-0.02,0.016,0.104,0.05,0.37c0.04,0.306,0,0.506-0.12,0.6s-0.391,0.12-0.811,0.08c-0.239-0.02-0.516-0.083-0.83-0.19
			c-0.406-0.126-0.629-0.26-0.67-0.4c0.008-0.093-0.003-0.237-0.029-0.43c-0.373-0.986-0.807-2.07-1.301-3.25v2.96
			c0,0.054,0.023,0.124,0.07,0.21c0.061,0.114,0.09,0.174,0.09,0.18c0.033,0.1,0.051,0.2,0.051,0.3c0,0.267-0.12,0.4-0.36,0.4
			c-0.233,0-0.563-0.067-0.989-0.2c-0.4-0.133-0.627-0.236-0.681-0.31c-0.08-0.106-0.08-0.243,0-0.41
			c0.08-0.167,0.12-0.27,0.12-0.31v-6.27c0-0.04-0.01-0.1-0.03-0.18s-0.023-0.143-0.01-0.19c0.066-0.227,0.196-0.38,0.39-0.46
			c0.033-0.013,0.107-0.02,0.221-0.02c0.26,0,0.526,0.033,0.8,0.1c0.353,0.08,0.6,0.193,0.739,0.34c0.188,0.2,0.431,0.81,0.73,1.83
			c0.367,1.253,0.653,2.1,0.859,2.54v-3.93c0-0.053-0.013-0.128-0.039-0.225c-0.027-0.097-0.04-0.171-0.04-0.225
			c0-0.04,0.007-0.076,0.021-0.11c0.033-0.113,0.159-0.196,0.379-0.25c0.174-0.046,0.34-0.063,0.5-0.05
			c0.154,0.013,0.337,0.05,0.551,0.11C216.061,53.143,216.217,53.246,216.224,53.359z"/>
		<path fill="#D2D2D2" d="M218.623,55.399c-0.173,0.187-0.445,0.323-0.819,0.41c-0.073,0.02-0.158-0.01-0.255-0.09
			s-0.145-0.153-0.145-0.22c0-0.034,0.016-0.057,0.049-0.07c0.088-0.033,0.166-0.13,0.236-0.29c0.069-0.16,0.104-0.33,0.104-0.51
			c0-0.374-0.147-0.626-0.44-0.76c-0.16-0.073-0.24-0.213-0.24-0.42c0-0.046,0.007-0.086,0.021-0.12
			c0.04-0.086,0.194-0.198,0.465-0.335c0.271-0.136,0.452-0.191,0.545-0.165c0.227,0.054,0.425,0.235,0.595,0.545
			s0.256,0.642,0.256,0.995C218.994,54.79,218.87,55.133,218.623,55.399z"/>
		<path fill="#D2D2D2" d="M224.963,54.56c-0.053,0-0.126-0.022-0.219-0.065c-0.094-0.043-0.17-0.058-0.23-0.045l-1.03,0.28v5.26
			c0,0.193,0.047,0.403,0.14,0.63c0.027,0.067,0.021,0.194-0.02,0.38c-0.04,0.207-0.104,0.336-0.189,0.39
			c-0.014,0.007-0.047,0.01-0.101,0.01c-0.22,0-0.526-0.043-0.92-0.13c-0.44-0.1-0.7-0.197-0.78-0.29
			c-0.094-0.12-0.09-0.28,0.01-0.48c0.087-0.173,0.131-0.3,0.131-0.38v-4.95l-0.711,0.18c-0.033,0.007-0.088,0.035-0.164,0.085
			c-0.077,0.05-0.143,0.068-0.195,0.055c-0.153-0.04-0.363-0.238-0.63-0.595c-0.267-0.357-0.384-0.599-0.351-0.725
			c0.054-0.153,0.211-0.27,0.471-0.35c0.066-0.02,0.152-0.023,0.26-0.01c0.106,0.013,0.189,0.013,0.25,0l3.48-0.89
			c0.033-0.007,0.129-0.047,0.289-0.12c0.107-0.046,0.203-0.063,0.291-0.05c0.186,0.026,0.312,0.1,0.379,0.22
			c0.047,0.08,0.098,0.23,0.15,0.45c0.066,0.26,0.1,0.487,0.1,0.68c0,0.147-0.018,0.259-0.055,0.335S225.164,54.553,224.963,54.56z"
			/>
		<path fill="#D2D2D2" d="M233.163,54.56c-0.054,0-0.126-0.022-0.22-0.065c-0.094-0.043-0.17-0.058-0.23-0.045l-1.029,0.28v5.26
			c0,0.193,0.047,0.403,0.14,0.63c0.026,0.067,0.021,0.194-0.021,0.38c-0.039,0.207-0.104,0.336-0.189,0.39
			c-0.014,0.007-0.047,0.01-0.1,0.01c-0.221,0-0.527-0.043-0.92-0.13c-0.44-0.1-0.7-0.197-0.78-0.29
			c-0.094-0.12-0.091-0.28,0.01-0.48c0.087-0.173,0.13-0.3,0.13-0.38v-4.95l-0.71,0.18c-0.033,0.007-0.089,0.035-0.165,0.085
			c-0.076,0.05-0.142,0.068-0.195,0.055c-0.152-0.04-0.363-0.238-0.629-0.595c-0.268-0.357-0.384-0.599-0.351-0.725
			c0.054-0.153,0.21-0.27,0.47-0.35c0.066-0.02,0.153-0.023,0.26-0.01c0.107,0.013,0.19,0.013,0.25,0l3.48-0.89
			c0.033-0.007,0.13-0.047,0.29-0.12c0.106-0.046,0.203-0.063,0.29-0.05c0.187,0.026,0.313,0.1,0.38,0.22
			c0.047,0.08,0.097,0.23,0.149,0.45c0.067,0.26,0.101,0.487,0.101,0.68c0,0.147-0.019,0.259-0.055,0.335
			C233.481,54.511,233.363,54.553,233.163,54.56z"/>
		<path fill="#D2D2D2" d="M239.844,59.879c0.06,0.113-0.059,0.392-0.355,0.835s-0.545,0.662-0.745,0.655
			c-0.214-0.006-0.384-0.12-0.51-0.34c-0.021-0.066-0.069-0.163-0.149-0.29l-2.111-1.97v1.85c0,0.074,0.029,0.167,0.086,0.28
			s0.085,0.196,0.085,0.25c0,0.2-0.13,0.31-0.39,0.33c-0.201,0.02-0.497-0.017-0.891-0.11c-0.427-0.093-0.641-0.193-0.641-0.3
			c0-0.033,0.009-0.078,0.025-0.135c0.018-0.057,0.025-0.128,0.025-0.215v-6.98c0-0.046-0.01-0.088-0.03-0.125
			s-0.03-0.065-0.03-0.085c0.007-0.18,0.141-0.287,0.4-0.32c0.08-0.013,0.262,0.018,0.545,0.095s0.485,0.112,0.605,0.105
			c0.113-0.006,0.345-0.098,0.695-0.275c0.35-0.176,0.654-0.265,0.914-0.265c0.1,0,0.203,0.01,0.311,0.03
			c0.187,0.04,0.356,0.126,0.51,0.26c0.153,0.134,0.3,0.267,0.439,0.4c0.367,0.347,0.557,0.53,0.57,0.55
			c0.174,0.2,0.267,0.423,0.28,0.67c0.04,0.773-0.62,1.767-1.979,2.98c0.279,0.253,0.896,0.87,1.85,1.85
			c0.061,0.02,0.146,0.06,0.26,0.12C239.68,59.763,239.757,59.813,239.844,59.879z M237.633,54.29c-0.312,0-0.866,0.327-1.66,0.98
			v1.53c0.287-0.113,0.664-0.457,1.131-1.03s0.699-1,0.699-1.28C237.803,54.356,237.746,54.29,237.633,54.29z"/>
		<path fill="#D2D2D2" d="M245.363,53.659c0.007-0.073,0.01,0.563,0.01,1.91c0,3.8-0.529,5.76-1.59,5.88
			c-0.187,0.02-0.412-0.013-0.675-0.1c-0.264-0.086-0.522-0.173-0.774-0.26c-0.221-0.053-0.442-0.112-0.666-0.175
			c-0.223-0.063-0.398-0.165-0.524-0.305c-0.273-0.3-0.493-0.953-0.66-1.96c-0.147-0.927-0.22-1.953-0.22-3.08
			c0-0.867,0.047-1.63,0.14-2.29c0.026-0.207,0.124-0.34,0.29-0.4c0.073-0.027,0.328,0.02,0.766,0.14
			c0.436,0.12,0.691,0.223,0.764,0.31c0.034,0.04,0.051,0.094,0.051,0.16c0,0.087-0.033,0.205-0.1,0.355
			c-0.067,0.15-0.098,0.269-0.09,0.355c-0.034,0.127-0.051,0.494-0.051,1.1c0,1.173,0.053,2.237,0.16,3.19
			c0.133,1.227,0.326,1.827,0.58,1.8c0.32-0.034,0.561-0.617,0.72-1.75c0.127-0.874,0.19-1.903,0.19-3.09
			c0-0.78-0.023-1.27-0.07-1.47c0.014-0.113,0-0.224-0.04-0.33c-0.06-0.146-0.09-0.227-0.09-0.24c-0.04-0.227,0.033-0.396,0.22-0.51
			c0.033-0.02,0.09-0.03,0.17-0.03c0.2,0,0.48,0.05,0.84,0.15c0.36,0.1,0.57,0.183,0.631,0.25
			C245.383,53.316,245.391,53.446,245.363,53.659z"/>
		<path fill="#D2D2D2" d="M250.793,59.709c0,0.493-0.164,0.898-0.49,1.215s-0.779,0.481-1.359,0.495
			c-0.146,0-0.304-0.023-0.471-0.07c-0.307-0.086-0.467-0.13-0.48-0.13c-0.159-0.033-0.32-0.068-0.484-0.105
			s-0.305-0.111-0.425-0.225c-0.181-0.16-0.327-0.42-0.44-0.78c-0.14-0.42-0.246-0.683-0.32-0.79
			c-0.053-0.053-0.116-0.146-0.189-0.28c-0.02-0.1-0.002-0.199,0.055-0.295c0.057-0.096,0.125-0.158,0.205-0.185
			c0.041-0.014,0.113-0.02,0.221-0.02c0.232,0,0.518,0.028,0.854,0.085s0.524,0.108,0.565,0.155c0.039,0.047,0.093,0.287,0.16,0.72
			c0.06,0.4,0.149,0.623,0.27,0.67c0.026,0.013,0.057,0.02,0.09,0.02c0.127,0,0.235-0.105,0.325-0.315s0.135-0.448,0.135-0.715
			c0-0.58-0.18-0.966-0.54-1.16c-0.826-0.447-1.406-0.86-1.74-1.24c-0.387-0.44-0.56-0.96-0.52-1.56
			c0.033-0.5,0.215-1.005,0.545-1.515c0.33-0.51,0.678-0.809,1.045-0.895c0.153-0.034,0.62,0.113,1.4,0.44
			c0.193,0.073,0.389,0.15,0.585,0.23s0.354,0.197,0.475,0.35c0.187,0.233,0.28,0.637,0.28,1.21c0,0.106-0.004,0.263-0.01,0.47
			c-0.007,0.18-0.01,0.307-0.01,0.38c0.006,0.047,0.029,0.124,0.069,0.23c0.033,0.074,0.047,0.147,0.04,0.22
			c-0.014,0.293-0.137,0.457-0.37,0.49c-0.134,0.02-0.38-0.03-0.739-0.15c-0.4-0.126-0.654-0.263-0.761-0.41
			c-0.013-0.02-0.021-0.087-0.021-0.2c0-0.1,0.012-0.327,0.035-0.68c0.023-0.353,0.035-0.61,0.035-0.77
			c0-0.286-0.033-0.426-0.1-0.42c-0.207,0.014-0.379,0.162-0.516,0.445c-0.137,0.283-0.205,0.605-0.205,0.965
			c0,0.6,0.178,1.027,0.531,1.28c0.399,0.253,0.799,0.507,1.199,0.76c0.381,0.247,0.644,0.493,0.79,0.74
			C250.699,58.689,250.793,59.136,250.793,59.709z"/>
		<path fill="#D2D2D2" d="M256.303,54.56c-0.053,0-0.127-0.022-0.22-0.065c-0.093-0.043-0.17-0.058-0.229-0.045l-1.031,0.28v5.26
			c0,0.193,0.047,0.403,0.141,0.63c0.027,0.067,0.02,0.194-0.02,0.38c-0.041,0.207-0.104,0.336-0.19,0.39
			c-0.013,0.007-0.047,0.01-0.101,0.01c-0.219,0-0.525-0.043-0.92-0.13c-0.439-0.1-0.699-0.197-0.779-0.29
			c-0.094-0.12-0.09-0.28,0.01-0.48c0.086-0.173,0.13-0.3,0.13-0.38v-4.95l-0.71,0.18c-0.033,0.007-0.088,0.035-0.165,0.085
			c-0.077,0.05-0.142,0.068-0.194,0.055c-0.154-0.04-0.363-0.238-0.631-0.595c-0.266-0.357-0.383-0.599-0.35-0.725
			c0.053-0.153,0.21-0.27,0.471-0.35c0.066-0.02,0.152-0.023,0.26-0.01c0.105,0.013,0.189,0.013,0.25,0l3.479-0.89
			c0.033-0.007,0.13-0.047,0.29-0.12c0.106-0.046,0.203-0.063,0.29-0.05c0.187,0.026,0.313,0.1,0.38,0.22
			c0.047,0.08,0.097,0.23,0.15,0.45c0.066,0.26,0.1,0.487,0.1,0.68c0,0.147-0.019,0.259-0.055,0.335
			C256.621,54.511,256.503,54.553,256.303,54.56z"/>
		<path fill="#D2D2D2" d="M221.193,63.689c0.041,0.347-0.039,0.566-0.239,0.66c-0.114,0.054-0.167,0.08-0.16,0.08
			c-0.387,0.594-0.896,1.637-1.53,3.13c-0.594,1.413-0.903,2.263-0.93,2.55c-0.007,0.053,0.006,0.146,0.04,0.28
			c0.033,0.134,0.046,0.244,0.04,0.33c-0.04,0.454-0.153,0.697-0.34,0.73c-0.094,0.013-0.325-0.037-0.695-0.15
			s-0.618-0.21-0.745-0.29c-0.227-0.16-0.34-0.32-0.34-0.48c0-0.08,0.023-0.17,0.069-0.27c0.094-0.26,0.291-0.793,0.591-1.6
			c-0.554-1.14-0.927-1.926-1.12-2.36c-0.387-0.867-0.66-1.577-0.82-2.13c-0.014-0.033-0.051-0.083-0.115-0.15
			c-0.062-0.067-0.095-0.127-0.095-0.18c0-0.1,0.13-0.25,0.39-0.45c0.554-0.426,0.934-0.626,1.141-0.6
			c0.106,0.013,0.203,0.083,0.29,0.21c0.073,0.1,0.116,0.19,0.13,0.27c0,0.126,0.02,0.33,0.061,0.61
			c0.152,0.827,0.473,1.723,0.959,2.69c0.374-0.913,0.584-1.417,0.631-1.51c0.253-0.567,0.539-1.097,0.859-1.59
			c0.027-0.106,0.074-0.243,0.141-0.41c0.133-0.153,0.312-0.217,0.539-0.19c0.16,0.02,0.406,0.137,0.735,0.35
			C221.009,63.433,221.181,63.589,221.193,63.689z"/>
		<path fill="#D2D2D2" d="M224.784,71.369c-0.14,0.014-0.297-0.005-0.47-0.055c-0.174-0.05-0.344-0.102-0.511-0.155
			c-0.2-0.053-0.513-0.15-0.94-0.29c-0.533-0.233-0.936-0.693-1.209-1.38c-0.24-0.606-0.36-1.34-0.36-2.2
			c0-0.7,0.12-1.517,0.36-2.45c0.326-1.253,0.75-1.88,1.27-1.88c0.047,0,0.111,0.012,0.195,0.035
			c0.083,0.023,0.148,0.039,0.195,0.045c0.492-0.14,0.81-0.21,0.949-0.21c0.066,0,0.134,0.004,0.2,0.01c0.8,0.1,1.431,0.6,1.89,1.5
			c0.414,0.813,0.621,1.783,0.621,2.91c0,1.066-0.188,1.983-0.561,2.75C226.014,70.833,225.471,71.29,224.784,71.369z
			 M224.604,64.04c-0.146-0.04-0.291,0.157-0.435,0.59c-0.144,0.434-0.288,0.65-0.435,0.65c-0.033,0-0.082-0.018-0.146-0.055
			c-0.063-0.036-0.114-0.058-0.155-0.065c-0.227,0.5-0.34,1.213-0.34,2.14c0,0.727,0.076,1.35,0.23,1.87
			c0.173,0.58,0.413,0.9,0.72,0.96c0.36,0.067,0.649-0.303,0.87-1.11c0.193-0.707,0.29-1.547,0.29-2.52c0-0.66-0.05-1.213-0.15-1.66
			C224.947,64.359,224.797,64.093,224.604,64.04z"/>
		<path fill="#D2D2D2" d="M232.764,63.659c0.007-0.073,0.01,0.563,0.01,1.91c0,3.8-0.529,5.76-1.59,5.88
			c-0.187,0.02-0.412-0.013-0.675-0.1c-0.264-0.086-0.522-0.173-0.774-0.26c-0.221-0.053-0.442-0.112-0.666-0.175
			c-0.223-0.063-0.398-0.165-0.524-0.305c-0.273-0.3-0.493-0.953-0.66-1.96c-0.147-0.927-0.22-1.953-0.22-3.08
			c0-0.867,0.047-1.63,0.14-2.29c0.026-0.207,0.124-0.34,0.29-0.4c0.073-0.027,0.328,0.02,0.766,0.14
			c0.436,0.12,0.691,0.223,0.764,0.31c0.034,0.04,0.051,0.094,0.051,0.16c0,0.087-0.033,0.205-0.1,0.355
			c-0.067,0.15-0.098,0.269-0.09,0.355c-0.034,0.127-0.051,0.494-0.051,1.1c0,1.173,0.053,2.237,0.16,3.19
			c0.133,1.227,0.326,1.827,0.58,1.8c0.32-0.034,0.561-0.617,0.72-1.75c0.127-0.874,0.19-1.903,0.19-3.09
			c0-0.78-0.023-1.27-0.07-1.47c0.014-0.113,0-0.224-0.04-0.33c-0.06-0.146-0.09-0.227-0.09-0.24c-0.04-0.227,0.033-0.396,0.22-0.51
			c0.033-0.02,0.09-0.03,0.17-0.03c0.2,0,0.48,0.05,0.84,0.15c0.36,0.1,0.57,0.183,0.631,0.25
			C232.783,63.316,232.791,63.446,232.764,63.659z"/>
		<path fill="#D2D2D2" d="M234.804,70.029c0.014,0.073-0.026,0.2-0.12,0.38c-0.106,0.2-0.16,0.36-0.16,0.48
			c0.007,0.054,0.007,0.13,0,0.23c-0.026,0.193-0.08,0.307-0.16,0.34c-0.093,0.04-0.312-0.02-0.659-0.18s-0.54-0.283-0.58-0.37
			c-0.034-0.06,0.013-0.247,0.14-0.56c0.107-0.266,0.2-0.466,0.28-0.6c0.04-0.067,0.113-0.1,0.22-0.1c-0.039,0,0.16,0.04,0.6,0.12
			C234.631,69.816,234.777,69.903,234.804,70.029z"/>
		<path fill="#D2D2D2" d="M237.254,70.029c0.014,0.073-0.027,0.2-0.12,0.38c-0.106,0.2-0.16,0.36-0.16,0.48
			c0.007,0.054,0.007,0.13,0,0.23c-0.026,0.193-0.08,0.307-0.16,0.34c-0.093,0.04-0.313-0.02-0.659-0.18
			c-0.348-0.16-0.541-0.283-0.58-0.37c-0.034-0.06,0.013-0.247,0.14-0.56c0.106-0.266,0.2-0.466,0.28-0.6
			c0.039-0.067,0.113-0.1,0.22-0.1c-0.04,0,0.159,0.04,0.6,0.12C237.08,69.816,237.227,69.903,237.254,70.029z"/>
		<path fill="#D2D2D2" d="M239.703,70.029c0.014,0.073-0.026,0.2-0.119,0.38c-0.107,0.2-0.16,0.36-0.16,0.48
			c0.006,0.054,0.006,0.13,0,0.23c-0.027,0.193-0.08,0.307-0.16,0.34c-0.094,0.04-0.314-0.02-0.66-0.18
			c-0.347-0.16-0.54-0.283-0.58-0.37c-0.033-0.06,0.014-0.247,0.141-0.56c0.105-0.266,0.199-0.466,0.279-0.6
			c0.04-0.067,0.113-0.1,0.221-0.1c-0.041,0,0.159,0.04,0.6,0.12C239.529,69.816,239.677,69.903,239.703,70.029z"/>
	</g>
</g>
</svg>
