<?xml version="1.0" encoding="utf-8" standalone="no"?>
<!DOCTYPE svg PUBLIC "-//W3C//DTD SVG 1.1//EN"
  "http://www.w3.org/Graphics/SVG/1.1/DTD/svg11.dtd">
<!-- Created with matplotlib (http://matplotlib.org/) -->
<svg height="288pt" version="1.1" viewBox="0 0 864 288" width="864pt" xmlns="http://www.w3.org/2000/svg" xmlns:xlink="http://www.w3.org/1999/xlink">
 <defs>
  <style type="text/css">
*{stroke-linecap:butt;stroke-linejoin:round;}
  </style>
 </defs>
 <g id="figure_1">
  <g id="patch_1">
   <path d="M 0 288 
L 864 288 
L 864 0 
L 0 0 
z
" style="fill:none;"/>
  </g>
  <g id="axes_1">
   <g id="patch_2">
    <path d="M 56.16 243.36 
L 228.96 243.36 
L 228.96 56.16 
L 56.16 56.16 
z
" style="fill:none;"/>
   </g>
   <g id="matplotlib.axis_1">
    <g id="xtick_1">
     <g id="line2d_1"/>
     <g id="text_1">
      <!-- Steel -->
      <defs>
       <path d="M 53.515625 70.515625 
L 53.515625 60.890625 
Q 47.90625 63.578125 42.921875 64.890625 
Q 37.9375 66.21875 33.296875 66.21875 
Q 25.25 66.21875 20.875 63.09375 
Q 16.5 59.96875 16.5 54.203125 
Q 16.5 49.359375 19.40625 46.890625 
Q 22.3125 44.4375 30.421875 42.921875 
L 36.375 41.703125 
Q 47.40625 39.59375 52.65625 34.296875 
Q 57.90625 29 57.90625 20.125 
Q 57.90625 9.515625 50.796875 4.046875 
Q 43.703125 -1.421875 29.984375 -1.421875 
Q 24.8125 -1.421875 18.96875 -0.25 
Q 13.140625 0.921875 6.890625 3.21875 
L 6.890625 13.375 
Q 12.890625 10.015625 18.65625 8.296875 
Q 24.421875 6.59375 29.984375 6.59375 
Q 38.421875 6.59375 43.015625 9.90625 
Q 47.609375 13.234375 47.609375 19.390625 
Q 47.609375 24.75 44.3125 27.78125 
Q 41.015625 30.8125 33.5 32.328125 
L 27.484375 33.5 
Q 16.453125 35.6875 11.515625 40.375 
Q 6.59375 45.0625 6.59375 53.421875 
Q 6.59375 63.09375 13.40625 68.65625 
Q 20.21875 74.21875 32.171875 74.21875 
Q 37.3125 74.21875 42.625 73.28125 
Q 47.953125 72.359375 53.515625 70.515625 
" id="DejaVuSans-53"/>
       <path d="M 18.3125 70.21875 
L 18.3125 54.6875 
L 36.8125 54.6875 
L 36.8125 47.703125 
L 18.3125 47.703125 
L 18.3125 18.015625 
Q 18.3125 11.328125 20.140625 9.421875 
Q 21.96875 7.515625 27.59375 7.515625 
L 36.8125 7.515625 
L 36.8125 0 
L 27.59375 0 
Q 17.1875 0 13.234375 3.875 
Q 9.28125 7.765625 9.28125 18.015625 
L 9.28125 47.703125 
L 2.6875 47.703125 
L 2.6875 54.6875 
L 9.28125 54.6875 
L 9.28125 70.21875 
z
" id="DejaVuSans-74"/>
       <path d="M 56.203125 29.59375 
L 56.203125 25.203125 
L 14.890625 25.203125 
Q 15.484375 15.921875 20.484375 11.0625 
Q 25.484375 6.203125 34.421875 6.203125 
Q 39.59375 6.203125 44.453125 7.46875 
Q 49.3125 8.734375 54.109375 11.28125 
L 54.109375 2.78125 
Q 49.265625 0.734375 44.1875 -0.34375 
Q 39.109375 -1.421875 33.890625 -1.421875 
Q 20.796875 -1.421875 13.15625 6.1875 
Q 5.515625 13.8125 5.515625 26.8125 
Q 5.515625 40.234375 12.765625 48.109375 
Q 20.015625 56 32.328125 56 
Q 43.359375 56 49.78125 48.890625 
Q 56.203125 41.796875 56.203125 29.59375 
M 47.21875 32.234375 
Q 47.125 39.59375 43.09375 43.984375 
Q 39.0625 48.390625 32.421875 48.390625 
Q 24.90625 48.390625 20.390625 44.140625 
Q 15.875 39.890625 15.1875 32.171875 
z
" id="DejaVuSans-65"/>
       <path d="M 9.421875 75.984375 
L 18.40625 75.984375 
L 18.40625 0 
L 9.421875 0 
z
" id="DejaVuSans-6c"/>
      </defs>
      <g style="fill:#d2d2d2;" transform="translate(82.880469 259.237969)scale(0.13 -0.13)">
       <use xlink:href="#DejaVuSans-53"/>
       <use x="63.476562" xlink:href="#DejaVuSans-74"/>
       <use x="102.685547" xlink:href="#DejaVuSans-65"/>
       <use x="164.208984" xlink:href="#DejaVuSans-65"/>
       <use x="225.732422" xlink:href="#DejaVuSans-6c"/>
      </g>
      <!-- frame -->
      <defs>
       <path d="M 37.109375 75.984375 
L 37.109375 68.5 
L 28.515625 68.5 
Q 23.6875 68.5 21.796875 66.546875 
Q 19.921875 64.59375 19.921875 59.515625 
L 19.921875 54.6875 
L 34.71875 54.6875 
L 34.71875 47.703125 
L 19.921875 47.703125 
L 19.921875 0 
L 10.890625 0 
L 10.890625 47.703125 
L 2.296875 47.703125 
L 2.296875 54.6875 
L 10.890625 54.6875 
L 10.890625 58.5 
Q 10.890625 67.625 15.140625 71.796875 
Q 19.390625 75.984375 28.609375 75.984375 
z
" id="DejaVuSans-66"/>
       <path d="M 41.109375 46.296875 
Q 39.59375 47.171875 37.8125 47.578125 
Q 36.03125 48 33.890625 48 
Q 26.265625 48 22.1875 43.046875 
Q 18.109375 38.09375 18.109375 28.8125 
L 18.109375 0 
L 9.078125 0 
L 9.078125 54.6875 
L 18.109375 54.6875 
L 18.109375 46.1875 
Q 20.953125 51.171875 25.484375 53.578125 
Q 30.03125 56 36.53125 56 
Q 37.453125 56 38.578125 55.875 
Q 39.703125 55.765625 41.0625 55.515625 
z
" id="DejaVuSans-72"/>
       <path d="M 34.28125 27.484375 
Q 23.390625 27.484375 19.1875 25 
Q 14.984375 22.515625 14.984375 16.5 
Q 14.984375 11.71875 18.140625 8.90625 
Q 21.296875 6.109375 26.703125 6.109375 
Q 34.1875 6.109375 38.703125 11.40625 
Q 43.21875 16.703125 43.21875 25.484375 
L 43.21875 27.484375 
z
M 52.203125 31.203125 
L 52.203125 0 
L 43.21875 0 
L 43.21875 8.296875 
Q 40.140625 3.328125 35.546875 0.953125 
Q 30.953125 -1.421875 24.3125 -1.421875 
Q 15.921875 -1.421875 10.953125 3.296875 
Q 6 8.015625 6 15.921875 
Q 6 25.140625 12.171875 29.828125 
Q 18.359375 34.515625 30.609375 34.515625 
L 43.21875 34.515625 
L 43.21875 35.40625 
Q 43.21875 41.609375 39.140625 45 
Q 35.0625 48.390625 27.6875 48.390625 
Q 23 48.390625 18.546875 47.265625 
Q 14.109375 46.140625 10.015625 43.890625 
L 10.015625 52.203125 
Q 14.9375 54.109375 19.578125 55.046875 
Q 24.21875 56 28.609375 56 
Q 40.484375 56 46.34375 49.84375 
Q 52.203125 43.703125 52.203125 31.203125 
" id="DejaVuSans-61"/>
       <path d="M 52 44.1875 
Q 55.375 50.25 60.0625 53.125 
Q 64.75 56 71.09375 56 
Q 79.640625 56 84.28125 50.015625 
Q 88.921875 44.046875 88.921875 33.015625 
L 88.921875 0 
L 79.890625 0 
L 79.890625 32.71875 
Q 79.890625 40.578125 77.09375 44.375 
Q 74.3125 48.1875 68.609375 48.1875 
Q 61.625 48.1875 57.5625 43.546875 
Q 53.515625 38.921875 53.515625 30.90625 
L 53.515625 0 
L 44.484375 0 
L 44.484375 32.71875 
Q 44.484375 40.625 41.703125 44.40625 
Q 38.921875 48.1875 33.109375 48.1875 
Q 26.21875 48.1875 22.15625 43.53125 
Q 18.109375 38.875 18.109375 30.90625 
L 18.109375 0 
L 9.078125 0 
L 9.078125 54.6875 
L 18.109375 54.6875 
L 18.109375 46.1875 
Q 21.1875 51.21875 25.484375 53.609375 
Q 29.78125 56 35.6875 56 
Q 41.65625 56 45.828125 52.96875 
Q 50 49.953125 52 44.1875 
" id="DejaVuSans-6d"/>
      </defs>
      <g style="fill:#d2d2d2;" transform="translate(80.085469 273.795125)scale(0.13 -0.13)">
       <use xlink:href="#DejaVuSans-66"/>
       <use x="35.205078" xlink:href="#DejaVuSans-72"/>
       <use x="76.318359" xlink:href="#DejaVuSans-61"/>
       <use x="137.597656" xlink:href="#DejaVuSans-6d"/>
       <use x="235.009766" xlink:href="#DejaVuSans-65"/>
      </g>
     </g>
    </g>
    <g id="xtick_2">
     <g id="line2d_2"/>
     <g id="text_2">
      <!-- Carbon -->
      <defs>
       <path d="M 64.40625 67.28125 
L 64.40625 56.890625 
Q 59.421875 61.53125 53.78125 63.8125 
Q 48.140625 66.109375 41.796875 66.109375 
Q 29.296875 66.109375 22.65625 58.46875 
Q 16.015625 50.828125 16.015625 36.375 
Q 16.015625 21.96875 22.65625 14.328125 
Q 29.296875 6.6875 41.796875 6.6875 
Q 48.140625 6.6875 53.78125 8.984375 
Q 59.421875 11.28125 64.40625 15.921875 
L 64.40625 5.609375 
Q 59.234375 2.09375 53.4375 0.328125 
Q 47.65625 -1.421875 41.21875 -1.421875 
Q 24.65625 -1.421875 15.125 8.703125 
Q 5.609375 18.84375 5.609375 36.375 
Q 5.609375 53.953125 15.125 64.078125 
Q 24.65625 74.21875 41.21875 74.21875 
Q 47.75 74.21875 53.53125 72.484375 
Q 59.328125 70.75 64.40625 67.28125 
" id="DejaVuSans-43"/>
       <path d="M 48.6875 27.296875 
Q 48.6875 37.203125 44.609375 42.84375 
Q 40.53125 48.484375 33.40625 48.484375 
Q 26.265625 48.484375 22.1875 42.84375 
Q 18.109375 37.203125 18.109375 27.296875 
Q 18.109375 17.390625 22.1875 11.75 
Q 26.265625 6.109375 33.40625 6.109375 
Q 40.53125 6.109375 44.609375 11.75 
Q 48.6875 17.390625 48.6875 27.296875 
M 18.109375 46.390625 
Q 20.953125 51.265625 25.265625 53.625 
Q 29.59375 56 35.59375 56 
Q 45.5625 56 51.78125 48.09375 
Q 58.015625 40.1875 58.015625 27.296875 
Q 58.015625 14.40625 51.78125 6.484375 
Q 45.5625 -1.421875 35.59375 -1.421875 
Q 29.59375 -1.421875 25.265625 0.953125 
Q 20.953125 3.328125 18.109375 8.203125 
L 18.109375 0 
L 9.078125 0 
L 9.078125 75.984375 
L 18.109375 75.984375 
z
" id="DejaVuSans-62"/>
       <path d="M 30.609375 48.390625 
Q 23.390625 48.390625 19.1875 42.75 
Q 14.984375 37.109375 14.984375 27.296875 
Q 14.984375 17.484375 19.15625 11.84375 
Q 23.34375 6.203125 30.609375 6.203125 
Q 37.796875 6.203125 41.984375 11.859375 
Q 46.1875 17.53125 46.1875 27.296875 
Q 46.1875 37.015625 41.984375 42.703125 
Q 37.796875 48.390625 30.609375 48.390625 
M 30.609375 56 
Q 42.328125 56 49.015625 48.375 
Q 55.71875 40.765625 55.71875 27.296875 
Q 55.71875 13.875 49.015625 6.21875 
Q 42.328125 -1.421875 30.609375 -1.421875 
Q 18.84375 -1.421875 12.171875 6.21875 
Q 5.515625 13.875 5.515625 27.296875 
Q 5.515625 40.765625 12.171875 48.375 
Q 18.84375 56 30.609375 56 
" id="DejaVuSans-6f"/>
       <path d="M 54.890625 33.015625 
L 54.890625 0 
L 45.90625 0 
L 45.90625 32.71875 
Q 45.90625 40.484375 42.875 44.328125 
Q 39.84375 48.1875 33.796875 48.1875 
Q 26.515625 48.1875 22.3125 43.546875 
Q 18.109375 38.921875 18.109375 30.90625 
L 18.109375 0 
L 9.078125 0 
L 9.078125 54.6875 
L 18.109375 54.6875 
L 18.109375 46.1875 
Q 21.34375 51.125 25.703125 53.5625 
Q 30.078125 56 35.796875 56 
Q 45.21875 56 50.046875 50.171875 
Q 54.890625 44.34375 54.890625 33.015625 
" id="DejaVuSans-6e"/>
      </defs>
      <g style="fill:#d2d2d2;" transform="translate(162.342734 259.237969)scale(0.13 -0.13)">
       <use xlink:href="#DejaVuSans-43"/>
       <use x="69.824219" xlink:href="#DejaVuSans-61"/>
       <use x="131.103516" xlink:href="#DejaVuSans-72"/>
       <use x="172.216797" xlink:href="#DejaVuSans-62"/>
       <use x="235.693359" xlink:href="#DejaVuSans-6f"/>
       <use x="296.875" xlink:href="#DejaVuSans-6e"/>
      </g>
      <!-- frame -->
      <g style="fill:#d2d2d2;" transform="translate(166.485469 273.795125)scale(0.13 -0.13)">
       <use xlink:href="#DejaVuSans-66"/>
       <use x="35.205078" xlink:href="#DejaVuSans-72"/>
       <use x="76.318359" xlink:href="#DejaVuSans-61"/>
       <use x="137.597656" xlink:href="#DejaVuSans-6d"/>
       <use x="235.009766" xlink:href="#DejaVuSans-65"/>
      </g>
     </g>
    </g>
   </g>
   <g id="matplotlib.axis_2">
    <g id="ytick_1">
     <g id="line2d_3">
      <defs>
       <path d="M 0 0 
L -4 0 
" id="m12b88a5cc7" style="stroke:#d2d2d2;"/>
      </defs>
      <g>
       <use style="fill:#d2d2d2;stroke:#d2d2d2;" x="56.16" xlink:href="#m12b88a5cc7" y="219.379835"/>
      </g>
     </g>
     <g id="text_3">
      <!-- 100 -->
      <defs>
       <path d="M 12.40625 8.296875 
L 28.515625 8.296875 
L 28.515625 63.921875 
L 10.984375 60.40625 
L 10.984375 69.390625 
L 28.421875 72.90625 
L 38.28125 72.90625 
L 38.28125 8.296875 
L 54.390625 8.296875 
L 54.390625 0 
L 12.40625 0 
z
" id="DejaVuSans-31"/>
       <path d="M 31.78125 66.40625 
Q 24.171875 66.40625 20.328125 58.90625 
Q 16.5 51.421875 16.5 36.375 
Q 16.5 21.390625 20.328125 13.890625 
Q 24.171875 6.390625 31.78125 6.390625 
Q 39.453125 6.390625 43.28125 13.890625 
Q 47.125 21.390625 47.125 36.375 
Q 47.125 51.421875 43.28125 58.90625 
Q 39.453125 66.40625 31.78125 66.40625 
M 31.78125 74.21875 
Q 44.046875 74.21875 50.515625 64.515625 
Q 56.984375 54.828125 56.984375 36.375 
Q 56.984375 17.96875 50.515625 8.265625 
Q 44.046875 -1.421875 31.78125 -1.421875 
Q 19.53125 -1.421875 13.0625 8.265625 
Q 6.59375 17.96875 6.59375 36.375 
Q 6.59375 54.828125 13.0625 64.515625 
Q 19.53125 74.21875 31.78125 74.21875 
" id="DejaVuSans-30"/>
      </defs>
      <g style="fill:#d2d2d2;" transform="translate(23.34625 224.318819)scale(0.13 -0.13)">
       <use xlink:href="#DejaVuSans-31"/>
       <use x="63.623047" xlink:href="#DejaVuSans-30"/>
       <use x="127.246094" xlink:href="#DejaVuSans-30"/>
      </g>
     </g>
    </g>
    <g id="ytick_2">
     <g id="line2d_4">
      <g>
       <use style="fill:#d2d2d2;stroke:#d2d2d2;" x="56.16" xlink:href="#m12b88a5cc7" y="186.227532"/>
      </g>
     </g>
     <g id="text_4">
      <!-- 105 -->
      <defs>
       <path d="M 10.796875 72.90625 
L 49.515625 72.90625 
L 49.515625 64.59375 
L 19.828125 64.59375 
L 19.828125 46.734375 
Q 21.96875 47.46875 24.109375 47.828125 
Q 26.265625 48.1875 28.421875 48.1875 
Q 40.625 48.1875 47.75 41.5 
Q 54.890625 34.8125 54.890625 23.390625 
Q 54.890625 11.625 47.5625 5.09375 
Q 40.234375 -1.421875 26.90625 -1.421875 
Q 22.3125 -1.421875 17.546875 -0.640625 
Q 12.796875 0.140625 7.71875 1.703125 
L 7.71875 11.625 
Q 12.109375 9.234375 16.796875 8.0625 
Q 21.484375 6.890625 26.703125 6.890625 
Q 35.15625 6.890625 40.078125 11.328125 
Q 45.015625 15.765625 45.015625 23.390625 
Q 45.015625 31 40.078125 35.4375 
Q 35.15625 39.890625 26.703125 39.890625 
Q 22.75 39.890625 18.8125 39.015625 
Q 14.890625 38.140625 10.796875 36.28125 
z
" id="DejaVuSans-35"/>
      </defs>
      <g style="fill:#d2d2d2;" transform="translate(23.34625 191.166516)scale(0.13 -0.13)">
       <use xlink:href="#DejaVuSans-31"/>
       <use x="63.623047" xlink:href="#DejaVuSans-30"/>
       <use x="127.246094" xlink:href="#DejaVuSans-35"/>
      </g>
     </g>
    </g>
    <g id="ytick_3">
     <g id="line2d_5">
      <g>
       <use style="fill:#d2d2d2;stroke:#d2d2d2;" x="56.16" xlink:href="#m12b88a5cc7" y="153.075229"/>
      </g>
     </g>
     <g id="text_5">
      <!-- 110 -->
      <g style="fill:#d2d2d2;" transform="translate(23.34625 158.014214)scale(0.13 -0.13)">
       <use xlink:href="#DejaVuSans-31"/>
       <use x="63.623047" xlink:href="#DejaVuSans-31"/>
       <use x="127.246094" xlink:href="#DejaVuSans-30"/>
      </g>
     </g>
    </g>
    <g id="ytick_4">
     <g id="line2d_6">
      <g>
       <use style="fill:#d2d2d2;stroke:#d2d2d2;" x="56.16" xlink:href="#m12b88a5cc7" y="119.922927"/>
      </g>
     </g>
     <g id="text_6">
      <!-- 115 -->
      <g style="fill:#d2d2d2;" transform="translate(23.34625 124.861911)scale(0.13 -0.13)">
       <use xlink:href="#DejaVuSans-31"/>
       <use x="63.623047" xlink:href="#DejaVuSans-31"/>
       <use x="127.246094" xlink:href="#DejaVuSans-35"/>
      </g>
     </g>
    </g>
    <g id="ytick_5">
     <g id="line2d_7">
      <g>
       <use style="fill:#d2d2d2;stroke:#d2d2d2;" x="56.16" xlink:href="#m12b88a5cc7" y="86.770624"/>
      </g>
     </g>
     <g id="text_7">
      <!-- 120 -->
      <defs>
       <path d="M 19.1875 8.296875 
L 53.609375 8.296875 
L 53.609375 0 
L 7.328125 0 
L 7.328125 8.296875 
Q 12.9375 14.109375 22.625 23.890625 
Q 32.328125 33.6875 34.8125 36.53125 
Q 39.546875 41.84375 41.421875 45.53125 
Q 43.3125 49.21875 43.3125 52.78125 
Q 43.3125 58.59375 39.234375 62.25 
Q 35.15625 65.921875 28.609375 65.921875 
Q 23.96875 65.921875 18.8125 64.3125 
Q 13.671875 62.703125 7.8125 59.421875 
L 7.8125 69.390625 
Q 13.765625 71.78125 18.9375 73 
Q 24.125 74.21875 28.421875 74.21875 
Q 39.75 74.21875 46.484375 68.546875 
Q 53.21875 62.890625 53.21875 53.421875 
Q 53.21875 48.921875 51.53125 44.890625 
Q 49.859375 40.875 45.40625 35.40625 
Q 44.1875 33.984375 37.640625 27.21875 
Q 31.109375 20.453125 19.1875 8.296875 
" id="DejaVuSans-32"/>
      </defs>
      <g style="fill:#d2d2d2;" transform="translate(23.34625 91.709608)scale(0.13 -0.13)">
       <use xlink:href="#DejaVuSans-31"/>
       <use x="63.623047" xlink:href="#DejaVuSans-32"/>
       <use x="127.246094" xlink:href="#DejaVuSans-30"/>
      </g>
     </g>
    </g>
    <g id="text_8">
     <!-- Commuting time -->
     <defs>
      <path d="M 8.5 21.578125 
L 8.5 54.6875 
L 17.484375 54.6875 
L 17.484375 21.921875 
Q 17.484375 14.15625 20.5 10.265625 
Q 23.53125 6.390625 29.59375 6.390625 
Q 36.859375 6.390625 41.078125 11.03125 
Q 45.3125 15.671875 45.3125 23.6875 
L 45.3125 54.6875 
L 54.296875 54.6875 
L 54.296875 0 
L 45.3125 0 
L 45.3125 8.40625 
Q 42.046875 3.421875 37.71875 1 
Q 33.40625 -1.421875 27.6875 -1.421875 
Q 18.265625 -1.421875 13.375 4.4375 
Q 8.5 10.296875 8.5 21.578125 
M 31.109375 56 
z
" id="DejaVuSans-75"/>
      <path d="M 9.421875 54.6875 
L 18.40625 54.6875 
L 18.40625 0 
L 9.421875 0 
z
M 9.421875 75.984375 
L 18.40625 75.984375 
L 18.40625 64.59375 
L 9.421875 64.59375 
z
" id="DejaVuSans-69"/>
      <path d="M 45.40625 27.984375 
Q 45.40625 37.75 41.375 43.109375 
Q 37.359375 48.484375 30.078125 48.484375 
Q 22.859375 48.484375 18.828125 43.109375 
Q 14.796875 37.75 14.796875 27.984375 
Q 14.796875 18.265625 18.828125 12.890625 
Q 22.859375 7.515625 30.078125 7.515625 
Q 37.359375 7.515625 41.375 12.890625 
Q 45.40625 18.265625 45.40625 27.984375 
M 54.390625 6.78125 
Q 54.390625 -7.171875 48.1875 -13.984375 
Q 42 -20.796875 29.203125 -20.796875 
Q 24.46875 -20.796875 20.265625 -20.09375 
Q 16.0625 -19.390625 12.109375 -17.921875 
L 12.109375 -9.1875 
Q 16.0625 -11.328125 19.921875 -12.34375 
Q 23.78125 -13.375 27.78125 -13.375 
Q 36.625 -13.375 41.015625 -8.765625 
Q 45.40625 -4.15625 45.40625 5.171875 
L 45.40625 9.625 
Q 42.625 4.78125 38.28125 2.390625 
Q 33.9375 0 27.875 0 
Q 17.828125 0 11.671875 7.65625 
Q 5.515625 15.328125 5.515625 27.984375 
Q 5.515625 40.671875 11.671875 48.328125 
Q 17.828125 56 27.875 56 
Q 33.9375 56 38.28125 53.609375 
Q 42.625 51.21875 45.40625 46.390625 
L 45.40625 54.6875 
L 54.390625 54.6875 
z
" id="DejaVuSans-67"/>
      <path id="DejaVuSans-20"/>
     </defs>
     <g style="fill:#d2d2d2;" transform="translate(15.602812 225.4275)rotate(-90)scale(0.18 -0.18)">
      <use xlink:href="#DejaVuSans-43"/>
      <use x="69.824219" xlink:href="#DejaVuSans-6f"/>
      <use x="131.005859" xlink:href="#DejaVuSans-6d"/>
      <use x="228.417969" xlink:href="#DejaVuSans-6d"/>
      <use x="325.830078" xlink:href="#DejaVuSans-75"/>
      <use x="389.208984" xlink:href="#DejaVuSans-74"/>
      <use x="428.417969" xlink:href="#DejaVuSans-69"/>
      <use x="456.201172" xlink:href="#DejaVuSans-6e"/>
      <use x="519.580078" xlink:href="#DejaVuSans-67"/>
      <use x="583.056641" xlink:href="#DejaVuSans-20"/>
      <use x="614.84375" xlink:href="#DejaVuSans-74"/>
      <use x="654.052734" xlink:href="#DejaVuSans-69"/>
      <use x="681.835938" xlink:href="#DejaVuSans-6d"/>
      <use x="779.248047" xlink:href="#DejaVuSans-65"/>
     </g>
    </g>
   </g>
   <g id="line2d_8">
    <path clip-path="url(#p9f246cdb49)" d="M 92.88 188.382432 
L 105.84 188.382432 
L 105.84 144.814779 
L 92.88 144.814779 
L 92.88 188.382432 
" style="fill:none;stroke:#d2d2d2;stroke-linecap:square;stroke-width:2;"/>
   </g>
   <g id="line2d_9">
    <path clip-path="url(#p9f246cdb49)" d="M 99.36 188.382432 
L 99.36 234.850909 
" style="fill:none;stroke:#d2d2d2;stroke-linecap:square;stroke-width:2;"/>
   </g>
   <g id="line2d_10">
    <path clip-path="url(#p9f246cdb49)" d="M 99.36 144.814779 
L 99.36 101.79967 
" style="fill:none;stroke:#d2d2d2;stroke-linecap:square;stroke-width:2;"/>
   </g>
   <g id="line2d_11">
    <path clip-path="url(#p9f246cdb49)" d="M 96.12 234.850909 
L 102.6 234.850909 
" style="fill:none;stroke:#d2d2d2;stroke-linecap:square;stroke-width:2;"/>
   </g>
   <g id="line2d_12">
    <path clip-path="url(#p9f246cdb49)" d="M 96.12 101.79967 
L 102.6 101.79967 
" style="fill:none;stroke:#d2d2d2;stroke-linecap:square;stroke-width:2;"/>
   </g>
   <g id="line2d_13"/>
   <g id="line2d_14">
    <path clip-path="url(#p9f246cdb49)" d="M 179.28 200.897426 
L 192.24 200.897426 
L 192.24 136.609586 
L 179.28 136.609586 
L 179.28 200.897426 
" style="fill:none;stroke:#d2d2d2;stroke-linecap:square;stroke-width:2;"/>
   </g>
   <g id="line2d_15">
    <path clip-path="url(#p9f246cdb49)" d="M 185.76 200.897426 
L 185.76 218.827299 
" style="fill:none;stroke:#d2d2d2;stroke-linecap:square;stroke-width:2;"/>
   </g>
   <g id="line2d_16">
    <path clip-path="url(#p9f246cdb49)" d="M 185.76 136.609586 
L 185.76 64.669091 
" style="fill:none;stroke:#d2d2d2;stroke-linecap:square;stroke-width:2;"/>
   </g>
   <g id="line2d_17">
    <path clip-path="url(#p9f246cdb49)" d="M 182.52 218.827299 
L 189 218.827299 
" style="fill:none;stroke:#d2d2d2;stroke-linecap:square;stroke-width:2;"/>
   </g>
   <g id="line2d_18">
    <path clip-path="url(#p9f246cdb49)" d="M 182.52 64.669091 
L 189 64.669091 
" style="fill:none;stroke:#d2d2d2;stroke-linecap:square;stroke-width:2;"/>
   </g>
   <g id="line2d_19"/>
   <g id="line2d_20">
    <path clip-path="url(#p9f246cdb49)" d="M 92.88 169.375113 
L 105.84 169.375113 
" style="fill:none;stroke:#f0ad4e;stroke-linecap:square;stroke-width:2;"/>
   </g>
   <g id="line2d_21">
    <path clip-path="url(#p9f246cdb49)" d="M 179.28 168.270036 
L 192.24 168.270036 
" style="fill:none;stroke:#5bc0de;stroke-linecap:square;stroke-width:2;"/>
   </g>
   <g id="patch_3">
    <path d="M 56.16 243.36 
L 56.16 56.16 
" style="fill:none;stroke:#d2d2d2;stroke-linecap:square;stroke-linejoin:miter;"/>
   </g>
   <g id="patch_4">
    <path d="M 56.16 243.36 
L 228.96 243.36 
" style="fill:none;stroke:#d2d2d2;stroke-linecap:square;stroke-linejoin:miter;"/>
   </g>
   <g id="text_9">
    <!-- Boxplot -->
    <defs>
     <path d="M 19.671875 34.8125 
L 19.671875 8.109375 
L 35.5 8.109375 
Q 43.453125 8.109375 47.28125 11.40625 
Q 51.125 14.703125 51.125 21.484375 
Q 51.125 28.328125 47.28125 31.5625 
Q 43.453125 34.8125 35.5 34.8125 
z
M 19.671875 64.796875 
L 19.671875 42.828125 
L 34.28125 42.828125 
Q 41.5 42.828125 45.03125 45.53125 
Q 48.578125 48.25 48.578125 53.8125 
Q 48.578125 59.328125 45.03125 62.0625 
Q 41.5 64.796875 34.28125 64.796875 
z
M 9.8125 72.90625 
L 35.015625 72.90625 
Q 46.296875 72.90625 52.390625 68.21875 
Q 58.5 63.53125 58.5 54.890625 
Q 58.5 48.1875 55.375 44.234375 
Q 52.25 40.28125 46.1875 39.3125 
Q 53.46875 37.75 57.5 32.78125 
Q 61.53125 27.828125 61.53125 20.40625 
Q 61.53125 10.640625 54.890625 5.3125 
Q 48.25 0 35.984375 0 
L 9.8125 0 
z
" id="DejaVuSans-42"/>
     <path d="M 54.890625 54.6875 
L 35.109375 28.078125 
L 55.90625 0 
L 45.3125 0 
L 29.390625 21.484375 
L 13.484375 0 
L 2.875 0 
L 24.125 28.609375 
L 4.6875 54.6875 
L 15.28125 54.6875 
L 29.78125 35.203125 
L 44.28125 54.6875 
z
" id="DejaVuSans-78"/>
     <path d="M 18.109375 8.203125 
L 18.109375 -20.796875 
L 9.078125 -20.796875 
L 9.078125 54.6875 
L 18.109375 54.6875 
L 18.109375 46.390625 
Q 20.953125 51.265625 25.265625 53.625 
Q 29.59375 56 35.59375 56 
Q 45.5625 56 51.78125 48.09375 
Q 58.015625 40.1875 58.015625 27.296875 
Q 58.015625 14.40625 51.78125 6.484375 
Q 45.5625 -1.421875 35.59375 -1.421875 
Q 29.59375 -1.421875 25.265625 0.953125 
Q 20.953125 3.328125 18.109375 8.203125 
M 48.6875 27.296875 
Q 48.6875 37.203125 44.609375 42.84375 
Q 40.53125 48.484375 33.40625 48.484375 
Q 26.265625 48.484375 22.1875 42.84375 
Q 18.109375 37.203125 18.109375 27.296875 
Q 18.109375 17.390625 22.1875 11.75 
Q 26.265625 6.109375 33.40625 6.109375 
Q 40.53125 6.109375 44.609375 11.75 
Q 48.6875 17.390625 48.6875 27.296875 
" id="DejaVuSans-70"/>
    </defs>
    <g style="fill:#d2d2d2;" transform="translate(112.1125 32.2435)scale(0.16 -0.16)">
     <use xlink:href="#DejaVuSans-42"/>
     <use x="68.603516" xlink:href="#DejaVuSans-6f"/>
     <use x="129.738281" xlink:href="#DejaVuSans-78"/>
     <use x="188.917969" xlink:href="#DejaVuSans-70"/>
     <use x="252.394531" xlink:href="#DejaVuSans-6c"/>
     <use x="280.177734" xlink:href="#DejaVuSans-6f"/>
     <use x="341.359375" xlink:href="#DejaVuSans-74"/>
    </g>
    <!-- of the samples -->
    <defs>
     <path d="M 54.890625 33.015625 
L 54.890625 0 
L 45.90625 0 
L 45.90625 32.71875 
Q 45.90625 40.484375 42.875 44.328125 
Q 39.84375 48.1875 33.796875 48.1875 
Q 26.515625 48.1875 22.3125 43.546875 
Q 18.109375 38.921875 18.109375 30.90625 
L 18.109375 0 
L 9.078125 0 
L 9.078125 75.984375 
L 18.109375 75.984375 
L 18.109375 46.1875 
Q 21.34375 51.125 25.703125 53.5625 
Q 30.078125 56 35.796875 56 
Q 45.21875 56 50.046875 50.171875 
Q 54.890625 44.34375 54.890625 33.015625 
" id="DejaVuSans-68"/>
     <path d="M 44.28125 53.078125 
L 44.28125 44.578125 
Q 40.484375 46.53125 36.375 47.5 
Q 32.28125 48.484375 27.875 48.484375 
Q 21.1875 48.484375 17.84375 46.4375 
Q 14.5 44.390625 14.5 40.28125 
Q 14.5 37.15625 16.890625 35.375 
Q 19.28125 33.59375 26.515625 31.984375 
L 29.59375 31.296875 
Q 39.15625 29.25 43.1875 25.515625 
Q 47.21875 21.78125 47.21875 15.09375 
Q 47.21875 7.46875 41.1875 3.015625 
Q 35.15625 -1.421875 24.609375 -1.421875 
Q 20.21875 -1.421875 15.453125 -0.5625 
Q 10.6875 0.296875 5.421875 2 
L 5.421875 11.28125 
Q 10.40625 8.6875 15.234375 7.390625 
Q 20.0625 6.109375 24.8125 6.109375 
Q 31.15625 6.109375 34.5625 8.28125 
Q 37.984375 10.453125 37.984375 14.40625 
Q 37.984375 18.0625 35.515625 20.015625 
Q 33.0625 21.96875 24.703125 23.78125 
L 21.578125 24.515625 
Q 13.234375 26.265625 9.515625 29.90625 
Q 5.8125 33.546875 5.8125 39.890625 
Q 5.8125 47.609375 11.28125 51.796875 
Q 16.75 56 26.8125 56 
Q 31.78125 56 36.171875 55.265625 
Q 40.578125 54.546875 44.28125 53.078125 
" id="DejaVuSans-73"/>
    </defs>
    <g style="fill:#d2d2d2;" transform="translate(83.38125 50.16)scale(0.16 -0.16)">
     <use xlink:href="#DejaVuSans-6f"/>
     <use x="61.181641" xlink:href="#DejaVuSans-66"/>
     <use x="96.386719" xlink:href="#DejaVuSans-20"/>
     <use x="128.173828" xlink:href="#DejaVuSans-74"/>
     <use x="167.382812" xlink:href="#DejaVuSans-68"/>
     <use x="230.761719" xlink:href="#DejaVuSans-65"/>
     <use x="292.285156" xlink:href="#DejaVuSans-20"/>
     <use x="324.072266" xlink:href="#DejaVuSans-73"/>
     <use x="376.171875" xlink:href="#DejaVuSans-61"/>
     <use x="437.451172" xlink:href="#DejaVuSans-6d"/>
     <use x="534.863281" xlink:href="#DejaVuSans-70"/>
     <use x="598.339844" xlink:href="#DejaVuSans-6c"/>
     <use x="626.123047" xlink:href="#DejaVuSans-65"/>
     <use x="687.646484" xlink:href="#DejaVuSans-73"/>
    </g>
   </g>
  </g>
  <g id="axes_2">
   <g id="patch_5">
    <path d="M 272.16 243.36 
L 540 243.36 
L 540 56.16 
L 272.16 56.16 
z
" style="fill:none;"/>
   </g>
   <g id="patch_6">
    <path clip-path="url(#p847240b943)" d="M 319.425883 243.36 
L 342.008471 243.36 
L 342.008471 203.740952 
L 319.425883 203.740952 
z
" style="fill:#f0ad4e;opacity:0.7;"/>
   </g>
   <g id="patch_7">
    <path clip-path="url(#p847240b943)" d="M 342.008471 243.36 
L 364.591059 243.36 
L 364.591059 144.312381 
L 342.008471 144.312381 
z
" style="fill:#f0ad4e;opacity:0.7;"/>
   </g>
   <g id="patch_8">
    <path clip-path="url(#p847240b943)" d="M 364.591059 243.36 
L 387.173647 243.36 
L 387.173647 84.88381 
L 364.591059 84.88381 
z
" style="fill:#f0ad4e;opacity:0.7;"/>
   </g>
   <g id="patch_9">
    <path clip-path="url(#p847240b943)" d="M 387.173647 243.36 
L 409.756235 243.36 
L 409.756235 104.693333 
L 387.173647 104.693333 
z
" style="fill:#f0ad4e;opacity:0.7;"/>
   </g>
   <g id="patch_10">
    <path clip-path="url(#p847240b943)" d="M 409.756235 243.36 
L 432.338823 243.36 
L 432.338823 144.312381 
L 409.756235 144.312381 
z
" style="fill:#f0ad4e;opacity:0.7;"/>
   </g>
   <g id="patch_11">
    <path clip-path="url(#p847240b943)" d="M 432.338823 243.36 
L 454.921411 243.36 
L 454.921411 183.931429 
L 432.338823 183.931429 
z
" style="fill:#f0ad4e;opacity:0.7;"/>
   </g>
   <g id="patch_12">
    <path clip-path="url(#p847240b943)" d="M 335.743864 243.36 
L 361.908906 243.36 
L 361.908906 65.074286 
L 335.743864 65.074286 
z
" style="fill:#5bc0de;opacity:0.7;"/>
   </g>
   <g id="patch_13">
    <path clip-path="url(#p847240b943)" d="M 361.908906 243.36 
L 388.073948 243.36 
L 388.073948 164.121905 
L 361.908906 164.121905 
z
" style="fill:#5bc0de;opacity:0.7;"/>
   </g>
   <g id="patch_14">
    <path clip-path="url(#p847240b943)" d="M 388.073948 243.36 
L 414.23899 243.36 
L 414.23899 144.312381 
L 388.073948 144.312381 
z
" style="fill:#5bc0de;opacity:0.7;"/>
   </g>
   <g id="patch_15">
    <path clip-path="url(#p847240b943)" d="M 414.23899 243.36 
L 440.404033 243.36 
L 440.404033 164.121905 
L 414.23899 164.121905 
z
" style="fill:#5bc0de;opacity:0.7;"/>
   </g>
   <g id="patch_16">
    <path clip-path="url(#p847240b943)" d="M 440.404033 243.36 
L 466.569075 243.36 
L 466.569075 183.931429 
L 440.404033 183.931429 
z
" style="fill:#5bc0de;opacity:0.7;"/>
   </g>
   <g id="patch_17">
    <path clip-path="url(#p847240b943)" d="M 466.569075 243.36 
L 492.734117 243.36 
L 492.734117 223.550476 
L 466.569075 223.550476 
z
" style="fill:#5bc0de;opacity:0.7;"/>
   </g>
   <g id="matplotlib.axis_3">
    <g id="xtick_3">
     <g id="line2d_22">
      <defs>
       <path d="M 0 0 
L 0 4 
" id="m8daeca0f6e" style="stroke:#d2d2d2;"/>
      </defs>
      <g>
       <use style="fill:#d2d2d2;stroke:#d2d2d2;" x="301.419832" xlink:href="#m8daeca0f6e" y="243.36"/>
      </g>
     </g>
     <g id="text_10">
      <!-- 95 -->
      <defs>
       <path d="M 10.984375 1.515625 
L 10.984375 10.5 
Q 14.703125 8.734375 18.5 7.8125 
Q 22.3125 6.890625 25.984375 6.890625 
Q 35.75 6.890625 40.890625 13.453125 
Q 46.046875 20.015625 46.78125 33.40625 
Q 43.953125 29.203125 39.59375 26.953125 
Q 35.25 24.703125 29.984375 24.703125 
Q 19.046875 24.703125 12.671875 31.3125 
Q 6.296875 37.9375 6.296875 49.421875 
Q 6.296875 60.640625 12.9375 67.421875 
Q 19.578125 74.21875 30.609375 74.21875 
Q 43.265625 74.21875 49.921875 64.515625 
Q 56.59375 54.828125 56.59375 36.375 
Q 56.59375 19.140625 48.40625 8.859375 
Q 40.234375 -1.421875 26.421875 -1.421875 
Q 22.703125 -1.421875 18.890625 -0.6875 
Q 15.09375 0.046875 10.984375 1.515625 
M 30.609375 32.421875 
Q 37.25 32.421875 41.125 36.953125 
Q 45.015625 41.5 45.015625 49.421875 
Q 45.015625 57.28125 41.125 61.84375 
Q 37.25 66.40625 30.609375 66.40625 
Q 23.96875 66.40625 20.09375 61.84375 
Q 16.21875 57.28125 16.21875 49.421875 
Q 16.21875 41.5 20.09375 36.953125 
Q 23.96875 32.421875 30.609375 32.421875 
" id="DejaVuSans-39"/>
      </defs>
      <g style="fill:#d2d2d2;" transform="translate(293.148582 263.237969)scale(0.13 -0.13)">
       <use xlink:href="#DejaVuSans-39"/>
       <use x="63.623047" xlink:href="#DejaVuSans-35"/>
      </g>
     </g>
    </g>
    <g id="xtick_4">
     <g id="line2d_23">
      <g>
       <use style="fill:#d2d2d2;stroke:#d2d2d2;" x="335.181177" xlink:href="#m8daeca0f6e" y="243.36"/>
      </g>
     </g>
     <g id="text_11">
      <!-- 100 -->
      <g style="fill:#d2d2d2;" transform="translate(322.774302 263.237969)scale(0.13 -0.13)">
       <use xlink:href="#DejaVuSans-31"/>
       <use x="63.623047" xlink:href="#DejaVuSans-30"/>
       <use x="127.246094" xlink:href="#DejaVuSans-30"/>
      </g>
     </g>
    </g>
    <g id="xtick_5">
     <g id="line2d_24">
      <g>
       <use style="fill:#d2d2d2;stroke:#d2d2d2;" x="368.942522" xlink:href="#m8daeca0f6e" y="243.36"/>
      </g>
     </g>
     <g id="text_12">
      <!-- 105 -->
      <g style="fill:#d2d2d2;" transform="translate(356.535647 263.237969)scale(0.13 -0.13)">
       <use xlink:href="#DejaVuSans-31"/>
       <use x="63.623047" xlink:href="#DejaVuSans-30"/>
       <use x="127.246094" xlink:href="#DejaVuSans-35"/>
      </g>
     </g>
    </g>
    <g id="xtick_6">
     <g id="line2d_25">
      <g>
       <use style="fill:#d2d2d2;stroke:#d2d2d2;" x="402.703867" xlink:href="#m8daeca0f6e" y="243.36"/>
      </g>
     </g>
     <g id="text_13">
      <!-- 110 -->
      <g style="fill:#d2d2d2;" transform="translate(390.296992 263.237969)scale(0.13 -0.13)">
       <use xlink:href="#DejaVuSans-31"/>
       <use x="63.623047" xlink:href="#DejaVuSans-31"/>
       <use x="127.246094" xlink:href="#DejaVuSans-30"/>
      </g>
     </g>
    </g>
    <g id="xtick_7">
     <g id="line2d_26">
      <g>
       <use style="fill:#d2d2d2;stroke:#d2d2d2;" x="436.465211" xlink:href="#m8daeca0f6e" y="243.36"/>
      </g>
     </g>
     <g id="text_14">
      <!-- 115 -->
      <g style="fill:#d2d2d2;" transform="translate(424.058336 263.237969)scale(0.13 -0.13)">
       <use xlink:href="#DejaVuSans-31"/>
       <use x="63.623047" xlink:href="#DejaVuSans-31"/>
       <use x="127.246094" xlink:href="#DejaVuSans-35"/>
      </g>
     </g>
    </g>
    <g id="xtick_8">
     <g id="line2d_27">
      <g>
       <use style="fill:#d2d2d2;stroke:#d2d2d2;" x="470.226556" xlink:href="#m8daeca0f6e" y="243.36"/>
      </g>
     </g>
     <g id="text_15">
      <!-- 120 -->
      <g style="fill:#d2d2d2;" transform="translate(457.819681 263.237969)scale(0.13 -0.13)">
       <use xlink:href="#DejaVuSans-31"/>
       <use x="63.623047" xlink:href="#DejaVuSans-32"/>
       <use x="127.246094" xlink:href="#DejaVuSans-30"/>
      </g>
     </g>
    </g>
    <g id="xtick_9">
     <g id="line2d_28">
      <g>
       <use style="fill:#d2d2d2;stroke:#d2d2d2;" x="503.987901" xlink:href="#m8daeca0f6e" y="243.36"/>
      </g>
     </g>
     <g id="text_16">
      <!-- 125 -->
      <g style="fill:#d2d2d2;" transform="translate(491.581026 263.237969)scale(0.13 -0.13)">
       <use xlink:href="#DejaVuSans-31"/>
       <use x="63.623047" xlink:href="#DejaVuSans-32"/>
       <use x="127.246094" xlink:href="#DejaVuSans-35"/>
      </g>
     </g>
    </g>
    <g id="xtick_10">
     <g id="line2d_29">
      <g>
       <use style="fill:#d2d2d2;stroke:#d2d2d2;" x="537.749246" xlink:href="#m8daeca0f6e" y="243.36"/>
      </g>
     </g>
     <g id="text_17">
      <!-- 130 -->
      <defs>
       <path d="M 40.578125 39.3125 
Q 47.65625 37.796875 51.625 33 
Q 55.609375 28.21875 55.609375 21.1875 
Q 55.609375 10.40625 48.1875 4.484375 
Q 40.765625 -1.421875 27.09375 -1.421875 
Q 22.515625 -1.421875 17.65625 -0.515625 
Q 12.796875 0.390625 7.625 2.203125 
L 7.625 11.71875 
Q 11.71875 9.328125 16.59375 8.109375 
Q 21.484375 6.890625 26.8125 6.890625 
Q 36.078125 6.890625 40.9375 10.546875 
Q 45.796875 14.203125 45.796875 21.1875 
Q 45.796875 27.640625 41.28125 31.265625 
Q 36.765625 34.90625 28.71875 34.90625 
L 20.21875 34.90625 
L 20.21875 43.015625 
L 29.109375 43.015625 
Q 36.375 43.015625 40.234375 45.921875 
Q 44.09375 48.828125 44.09375 54.296875 
Q 44.09375 59.90625 40.109375 62.90625 
Q 36.140625 65.921875 28.71875 65.921875 
Q 24.65625 65.921875 20.015625 65.03125 
Q 15.375 64.15625 9.8125 62.3125 
L 9.8125 71.09375 
Q 15.4375 72.65625 20.34375 73.4375 
Q 25.25 74.21875 29.59375 74.21875 
Q 40.828125 74.21875 47.359375 69.109375 
Q 53.90625 64.015625 53.90625 55.328125 
Q 53.90625 49.265625 50.4375 45.09375 
Q 46.96875 40.921875 40.578125 39.3125 
" id="DejaVuSans-33"/>
      </defs>
      <g style="fill:#d2d2d2;" transform="translate(525.342371 263.237969)scale(0.13 -0.13)">
       <use xlink:href="#DejaVuSans-31"/>
       <use x="63.623047" xlink:href="#DejaVuSans-33"/>
       <use x="127.246094" xlink:href="#DejaVuSans-30"/>
      </g>
     </g>
    </g>
    <g id="text_18">
     <!-- Commuting time -->
     <g style="fill:#d2d2d2;" transform="translate(330.4125 283.61875)scale(0.18 -0.18)">
      <use xlink:href="#DejaVuSans-43"/>
      <use x="69.824219" xlink:href="#DejaVuSans-6f"/>
      <use x="131.005859" xlink:href="#DejaVuSans-6d"/>
      <use x="228.417969" xlink:href="#DejaVuSans-6d"/>
      <use x="325.830078" xlink:href="#DejaVuSans-75"/>
      <use x="389.208984" xlink:href="#DejaVuSans-74"/>
      <use x="428.417969" xlink:href="#DejaVuSans-69"/>
      <use x="456.201172" xlink:href="#DejaVuSans-6e"/>
      <use x="519.580078" xlink:href="#DejaVuSans-67"/>
      <use x="583.056641" xlink:href="#DejaVuSans-20"/>
      <use x="614.84375" xlink:href="#DejaVuSans-74"/>
      <use x="654.052734" xlink:href="#DejaVuSans-69"/>
      <use x="681.835938" xlink:href="#DejaVuSans-6d"/>
      <use x="779.248047" xlink:href="#DejaVuSans-65"/>
     </g>
    </g>
   </g>
   <g id="matplotlib.axis_4">
    <g id="ytick_6">
     <g id="line2d_30">
      <g>
       <use style="fill:#d2d2d2;stroke:#d2d2d2;" x="272.16" xlink:href="#m12b88a5cc7" y="243.36"/>
      </g>
     </g>
     <g id="text_19">
      <!-- 0 -->
      <g style="fill:#d2d2d2;" transform="translate(255.88875 248.298984)scale(0.13 -0.13)">
       <use xlink:href="#DejaVuSans-30"/>
      </g>
     </g>
    </g>
    <g id="ytick_7">
     <g id="line2d_31">
      <g>
       <use style="fill:#d2d2d2;stroke:#d2d2d2;" x="272.16" xlink:href="#m12b88a5cc7" y="203.740952"/>
      </g>
     </g>
     <g id="text_20">
      <!-- 2 -->
      <g style="fill:#d2d2d2;" transform="translate(255.88875 208.679937)scale(0.13 -0.13)">
       <use xlink:href="#DejaVuSans-32"/>
      </g>
     </g>
    </g>
    <g id="ytick_8">
     <g id="line2d_32">
      <g>
       <use style="fill:#d2d2d2;stroke:#d2d2d2;" x="272.16" xlink:href="#m12b88a5cc7" y="164.121905"/>
      </g>
     </g>
     <g id="text_21">
      <!-- 4 -->
      <defs>
       <path d="M 37.796875 64.3125 
L 12.890625 25.390625 
L 37.796875 25.390625 
z
M 35.203125 72.90625 
L 47.609375 72.90625 
L 47.609375 25.390625 
L 58.015625 25.390625 
L 58.015625 17.1875 
L 47.609375 17.1875 
L 47.609375 0 
L 37.796875 0 
L 37.796875 17.1875 
L 4.890625 17.1875 
L 4.890625 26.703125 
z
" id="DejaVuSans-34"/>
      </defs>
      <g style="fill:#d2d2d2;" transform="translate(255.88875 169.060889)scale(0.13 -0.13)">
       <use xlink:href="#DejaVuSans-34"/>
      </g>
     </g>
    </g>
    <g id="ytick_9">
     <g id="line2d_33">
      <g>
       <use style="fill:#d2d2d2;stroke:#d2d2d2;" x="272.16" xlink:href="#m12b88a5cc7" y="124.502857"/>
      </g>
     </g>
     <g id="text_22">
      <!-- 6 -->
      <defs>
       <path d="M 33.015625 40.375 
Q 26.375 40.375 22.484375 35.828125 
Q 18.609375 31.296875 18.609375 23.390625 
Q 18.609375 15.53125 22.484375 10.953125 
Q 26.375 6.390625 33.015625 6.390625 
Q 39.65625 6.390625 43.53125 10.953125 
Q 47.40625 15.53125 47.40625 23.390625 
Q 47.40625 31.296875 43.53125 35.828125 
Q 39.65625 40.375 33.015625 40.375 
M 52.59375 71.296875 
L 52.59375 62.3125 
Q 48.875 64.0625 45.09375 64.984375 
Q 41.3125 65.921875 37.59375 65.921875 
Q 27.828125 65.921875 22.671875 59.328125 
Q 17.53125 52.734375 16.796875 39.40625 
Q 19.671875 43.65625 24.015625 45.921875 
Q 28.375 48.1875 33.59375 48.1875 
Q 44.578125 48.1875 50.953125 41.515625 
Q 57.328125 34.859375 57.328125 23.390625 
Q 57.328125 12.15625 50.6875 5.359375 
Q 44.046875 -1.421875 33.015625 -1.421875 
Q 20.359375 -1.421875 13.671875 8.265625 
Q 6.984375 17.96875 6.984375 36.375 
Q 6.984375 53.65625 15.1875 63.9375 
Q 23.390625 74.21875 37.203125 74.21875 
Q 40.921875 74.21875 44.703125 73.484375 
Q 48.484375 72.75 52.59375 71.296875 
" id="DejaVuSans-36"/>
      </defs>
      <g style="fill:#d2d2d2;" transform="translate(255.88875 129.441842)scale(0.13 -0.13)">
       <use xlink:href="#DejaVuSans-36"/>
      </g>
     </g>
    </g>
    <g id="ytick_10">
     <g id="line2d_34">
      <g>
       <use style="fill:#d2d2d2;stroke:#d2d2d2;" x="272.16" xlink:href="#m12b88a5cc7" y="84.88381"/>
      </g>
     </g>
     <g id="text_23">
      <!-- 8 -->
      <defs>
       <path d="M 31.78125 34.625 
Q 24.75 34.625 20.71875 30.859375 
Q 16.703125 27.09375 16.703125 20.515625 
Q 16.703125 13.921875 20.71875 10.15625 
Q 24.75 6.390625 31.78125 6.390625 
Q 38.8125 6.390625 42.859375 10.171875 
Q 46.921875 13.96875 46.921875 20.515625 
Q 46.921875 27.09375 42.890625 30.859375 
Q 38.875 34.625 31.78125 34.625 
M 21.921875 38.8125 
Q 15.578125 40.375 12.03125 44.71875 
Q 8.5 49.078125 8.5 55.328125 
Q 8.5 64.0625 14.71875 69.140625 
Q 20.953125 74.21875 31.78125 74.21875 
Q 42.671875 74.21875 48.875 69.140625 
Q 55.078125 64.0625 55.078125 55.328125 
Q 55.078125 49.078125 51.53125 44.71875 
Q 48 40.375 41.703125 38.8125 
Q 48.828125 37.15625 52.796875 32.3125 
Q 56.78125 27.484375 56.78125 20.515625 
Q 56.78125 9.90625 50.3125 4.234375 
Q 43.84375 -1.421875 31.78125 -1.421875 
Q 19.734375 -1.421875 13.25 4.234375 
Q 6.78125 9.90625 6.78125 20.515625 
Q 6.78125 27.484375 10.78125 32.3125 
Q 14.796875 37.15625 21.921875 38.8125 
M 18.3125 54.390625 
Q 18.3125 48.734375 21.84375 45.5625 
Q 25.390625 42.390625 31.78125 42.390625 
Q 38.140625 42.390625 41.71875 45.5625 
Q 45.3125 48.734375 45.3125 54.390625 
Q 45.3125 60.0625 41.71875 63.234375 
Q 38.140625 66.40625 31.78125 66.40625 
Q 25.390625 66.40625 21.84375 63.234375 
Q 18.3125 60.0625 18.3125 54.390625 
" id="DejaVuSans-38"/>
      </defs>
      <g style="fill:#d2d2d2;" transform="translate(255.88875 89.822794)scale(0.13 -0.13)">
       <use xlink:href="#DejaVuSans-38"/>
      </g>
     </g>
    </g>
    <g id="text_24">
     <!-- Frequency -->
     <defs>
      <path d="M 9.8125 72.90625 
L 51.703125 72.90625 
L 51.703125 64.59375 
L 19.671875 64.59375 
L 19.671875 43.109375 
L 48.578125 43.109375 
L 48.578125 34.8125 
L 19.671875 34.8125 
L 19.671875 0 
L 9.8125 0 
z
" id="DejaVuSans-46"/>
      <path d="M 14.796875 27.296875 
Q 14.796875 17.390625 18.875 11.75 
Q 22.953125 6.109375 30.078125 6.109375 
Q 37.203125 6.109375 41.296875 11.75 
Q 45.40625 17.390625 45.40625 27.296875 
Q 45.40625 37.203125 41.296875 42.84375 
Q 37.203125 48.484375 30.078125 48.484375 
Q 22.953125 48.484375 18.875 42.84375 
Q 14.796875 37.203125 14.796875 27.296875 
M 45.40625 8.203125 
Q 42.578125 3.328125 38.25 0.953125 
Q 33.9375 -1.421875 27.875 -1.421875 
Q 17.96875 -1.421875 11.734375 6.484375 
Q 5.515625 14.40625 5.515625 27.296875 
Q 5.515625 40.1875 11.734375 48.09375 
Q 17.96875 56 27.875 56 
Q 33.9375 56 38.25 53.625 
Q 42.578125 51.265625 45.40625 46.390625 
L 45.40625 54.6875 
L 54.390625 54.6875 
L 54.390625 -20.796875 
L 45.40625 -20.796875 
z
" id="DejaVuSans-71"/>
      <path d="M 48.78125 52.59375 
L 48.78125 44.1875 
Q 44.96875 46.296875 41.140625 47.34375 
Q 37.3125 48.390625 33.40625 48.390625 
Q 24.65625 48.390625 19.8125 42.84375 
Q 14.984375 37.3125 14.984375 27.296875 
Q 14.984375 17.28125 19.8125 11.734375 
Q 24.65625 6.203125 33.40625 6.203125 
Q 37.3125 6.203125 41.140625 7.25 
Q 44.96875 8.296875 48.78125 10.40625 
L 48.78125 2.09375 
Q 45.015625 0.34375 40.984375 -0.53125 
Q 36.96875 -1.421875 32.421875 -1.421875 
Q 20.0625 -1.421875 12.78125 6.34375 
Q 5.515625 14.109375 5.515625 27.296875 
Q 5.515625 40.671875 12.859375 48.328125 
Q 20.21875 56 33.015625 56 
Q 37.15625 56 41.109375 55.140625 
Q 45.0625 54.296875 48.78125 52.59375 
" id="DejaVuSans-63"/>
      <path d="M 32.171875 -5.078125 
Q 28.375 -14.84375 24.75 -17.8125 
Q 21.140625 -20.796875 15.09375 -20.796875 
L 7.90625 -20.796875 
L 7.90625 -13.28125 
L 13.1875 -13.28125 
Q 16.890625 -13.28125 18.9375 -11.515625 
Q 21 -9.765625 23.484375 -3.21875 
L 25.09375 0.875 
L 2.984375 54.6875 
L 12.5 54.6875 
L 29.59375 11.921875 
L 46.6875 54.6875 
L 56.203125 54.6875 
z
" id="DejaVuSans-79"/>
     </defs>
     <g style="fill:#d2d2d2;" transform="translate(248.145313 197.095781)rotate(-90)scale(0.18 -0.18)">
      <use xlink:href="#DejaVuSans-46"/>
      <use x="57.410156" xlink:href="#DejaVuSans-72"/>
      <use x="98.492188" xlink:href="#DejaVuSans-65"/>
      <use x="160.015625" xlink:href="#DejaVuSans-71"/>
      <use x="223.492188" xlink:href="#DejaVuSans-75"/>
      <use x="286.871094" xlink:href="#DejaVuSans-65"/>
      <use x="348.394531" xlink:href="#DejaVuSans-6e"/>
      <use x="411.773438" xlink:href="#DejaVuSans-63"/>
      <use x="466.753906" xlink:href="#DejaVuSans-79"/>
     </g>
    </g>
   </g>
   <g id="patch_18">
    <path d="M 272.16 243.36 
L 272.16 56.16 
" style="fill:none;stroke:#d2d2d2;stroke-linecap:square;stroke-linejoin:miter;"/>
   </g>
   <g id="patch_19">
    <path d="M 272.16 243.36 
L 540 243.36 
" style="fill:none;stroke:#d2d2d2;stroke-linecap:square;stroke-linejoin:miter;"/>
   </g>
   <g id="text_25">
    <!-- Underlying distributions -->
    <defs>
     <path d="M 8.6875 72.90625 
L 18.609375 72.90625 
L 18.609375 28.609375 
Q 18.609375 16.890625 22.84375 11.734375 
Q 27.09375 6.59375 36.625 6.59375 
Q 46.09375 6.59375 50.34375 11.734375 
Q 54.59375 16.890625 54.59375 28.609375 
L 54.59375 72.90625 
L 64.5 72.90625 
L 64.5 27.390625 
Q 64.5 13.140625 57.4375 5.859375 
Q 50.390625 -1.421875 36.625 -1.421875 
Q 22.796875 -1.421875 15.734375 5.859375 
Q 8.6875 13.140625 8.6875 27.390625 
z
" id="DejaVuSans-55"/>
     <path d="M 45.40625 46.390625 
L 45.40625 75.984375 
L 54.390625 75.984375 
L 54.390625 0 
L 45.40625 0 
L 45.40625 8.203125 
Q 42.578125 3.328125 38.25 0.953125 
Q 33.9375 -1.421875 27.875 -1.421875 
Q 17.96875 -1.421875 11.734375 6.484375 
Q 5.515625 14.40625 5.515625 27.296875 
Q 5.515625 40.1875 11.734375 48.09375 
Q 17.96875 56 27.875 56 
Q 33.9375 56 38.25 53.625 
Q 42.578125 51.265625 45.40625 46.390625 
M 14.796875 27.296875 
Q 14.796875 17.390625 18.875 11.75 
Q 22.953125 6.109375 30.078125 6.109375 
Q 37.203125 6.109375 41.296875 11.75 
Q 45.40625 17.390625 45.40625 27.296875 
Q 45.40625 37.203125 41.296875 42.84375 
Q 37.203125 48.484375 30.078125 48.484375 
Q 22.953125 48.484375 18.875 42.84375 
Q 14.796875 37.203125 14.796875 27.296875 
" id="DejaVuSans-64"/>
    </defs>
    <g style="fill:#d2d2d2;" transform="translate(310.2375 14.327)scale(0.16 -0.16)">
     <use xlink:href="#DejaVuSans-55"/>
     <use x="73.193359" xlink:href="#DejaVuSans-6e"/>
     <use x="136.572266" xlink:href="#DejaVuSans-64"/>
     <use x="200.048828" xlink:href="#DejaVuSans-65"/>
     <use x="261.572266" xlink:href="#DejaVuSans-72"/>
     <use x="302.685547" xlink:href="#DejaVuSans-6c"/>
     <use x="330.46875" xlink:href="#DejaVuSans-79"/>
     <use x="389.648438" xlink:href="#DejaVuSans-69"/>
     <use x="417.431641" xlink:href="#DejaVuSans-6e"/>
     <use x="480.810547" xlink:href="#DejaVuSans-67"/>
     <use x="544.287109" xlink:href="#DejaVuSans-20"/>
     <use x="576.074219" xlink:href="#DejaVuSans-64"/>
     <use x="639.550781" xlink:href="#DejaVuSans-69"/>
     <use x="667.333984" xlink:href="#DejaVuSans-73"/>
     <use x="719.433594" xlink:href="#DejaVuSans-74"/>
     <use x="758.642578" xlink:href="#DejaVuSans-72"/>
     <use x="799.755859" xlink:href="#DejaVuSans-69"/>
     <use x="827.539062" xlink:href="#DejaVuSans-62"/>
     <use x="891.015625" xlink:href="#DejaVuSans-75"/>
     <use x="954.394531" xlink:href="#DejaVuSans-74"/>
     <use x="993.603516" xlink:href="#DejaVuSans-69"/>
     <use x="1021.386719" xlink:href="#DejaVuSans-6f"/>
     <use x="1082.568359" xlink:href="#DejaVuSans-6e"/>
     <use x="1145.947266" xlink:href="#DejaVuSans-73"/>
    </g>
    <!-- of the populations the -->
    <g style="fill:#d2d2d2;" transform="translate(317.745 32.2435)scale(0.16 -0.16)">
     <use xlink:href="#DejaVuSans-6f"/>
     <use x="61.181641" xlink:href="#DejaVuSans-66"/>
     <use x="96.386719" xlink:href="#DejaVuSans-20"/>
     <use x="128.173828" xlink:href="#DejaVuSans-74"/>
     <use x="167.382812" xlink:href="#DejaVuSans-68"/>
     <use x="230.761719" xlink:href="#DejaVuSans-65"/>
     <use x="292.285156" xlink:href="#DejaVuSans-20"/>
     <use x="324.072266" xlink:href="#DejaVuSans-70"/>
     <use x="387.548828" xlink:href="#DejaVuSans-6f"/>
     <use x="448.730469" xlink:href="#DejaVuSans-70"/>
     <use x="512.207031" xlink:href="#DejaVuSans-75"/>
     <use x="575.585938" xlink:href="#DejaVuSans-6c"/>
     <use x="603.369141" xlink:href="#DejaVuSans-61"/>
     <use x="664.648438" xlink:href="#DejaVuSans-74"/>
     <use x="703.857422" xlink:href="#DejaVuSans-69"/>
     <use x="731.640625" xlink:href="#DejaVuSans-6f"/>
     <use x="792.822266" xlink:href="#DejaVuSans-6e"/>
     <use x="856.201172" xlink:href="#DejaVuSans-73"/>
     <use x="908.300781" xlink:href="#DejaVuSans-20"/>
     <use x="940.087891" xlink:href="#DejaVuSans-74"/>
     <use x="979.296875" xlink:href="#DejaVuSans-68"/>
     <use x="1042.675781" xlink:href="#DejaVuSans-65"/>
    </g>
    <!-- samples are coming from -->
    <g style="fill:#d2d2d2;" transform="translate(303.84 50.16)scale(0.16 -0.16)">
     <use xlink:href="#DejaVuSans-73"/>
     <use x="52.099609" xlink:href="#DejaVuSans-61"/>
     <use x="113.378906" xlink:href="#DejaVuSans-6d"/>
     <use x="210.791016" xlink:href="#DejaVuSans-70"/>
     <use x="274.267578" xlink:href="#DejaVuSans-6c"/>
     <use x="302.050781" xlink:href="#DejaVuSans-65"/>
     <use x="363.574219" xlink:href="#DejaVuSans-73"/>
     <use x="415.673828" xlink:href="#DejaVuSans-20"/>
     <use x="447.460938" xlink:href="#DejaVuSans-61"/>
     <use x="508.740234" xlink:href="#DejaVuSans-72"/>
     <use x="549.822266" xlink:href="#DejaVuSans-65"/>
     <use x="611.345703" xlink:href="#DejaVuSans-20"/>
     <use x="643.132812" xlink:href="#DejaVuSans-63"/>
     <use x="698.113281" xlink:href="#DejaVuSans-6f"/>
     <use x="759.294922" xlink:href="#DejaVuSans-6d"/>
     <use x="856.707031" xlink:href="#DejaVuSans-69"/>
     <use x="884.490234" xlink:href="#DejaVuSans-6e"/>
     <use x="947.869141" xlink:href="#DejaVuSans-67"/>
     <use x="1011.345703" xlink:href="#DejaVuSans-20"/>
     <use x="1043.132812" xlink:href="#DejaVuSans-66"/>
     <use x="1078.337891" xlink:href="#DejaVuSans-72"/>
     <use x="1119.419922" xlink:href="#DejaVuSans-6f"/>
     <use x="1180.601562" xlink:href="#DejaVuSans-6d"/>
    </g>
   </g>
   <g id="legend_1">
    <g id="patch_20">
     <path d="M 437.762812 70.037813 
L 465.762812 70.037813 
L 465.762812 60.237813 
L 437.762812 60.237813 
z
" style="fill:#f0ad4e;opacity:0.7;"/>
    </g>
    <g id="text_26">
     <!-- Steel -->
     <g style="fill:#d2d2d2;" transform="translate(476.962812 70.037813)scale(0.14 -0.14)">
      <use xlink:href="#DejaVuSans-53"/>
      <use x="63.476562" xlink:href="#DejaVuSans-74"/>
      <use x="102.685547" xlink:href="#DejaVuSans-65"/>
      <use x="164.208984" xlink:href="#DejaVuSans-65"/>
      <use x="225.732422" xlink:href="#DejaVuSans-6c"/>
     </g>
    </g>
    <g id="patch_21">
     <path d="M 437.762812 90.587188 
L 465.762812 90.587188 
L 465.762812 80.787188 
L 437.762812 80.787188 
z
" style="fill:#5bc0de;opacity:0.7;"/>
    </g>
    <g id="text_27">
     <!-- Carbon -->
     <g style="fill:#d2d2d2;" transform="translate(476.962812 90.587188)scale(0.14 -0.14)">
      <use xlink:href="#DejaVuSans-43"/>
      <use x="69.824219" xlink:href="#DejaVuSans-61"/>
      <use x="131.103516" xlink:href="#DejaVuSans-72"/>
      <use x="172.216797" xlink:href="#DejaVuSans-62"/>
      <use x="235.693359" xlink:href="#DejaVuSans-6f"/>
      <use x="296.875" xlink:href="#DejaVuSans-6e"/>
     </g>
    </g>
   </g>
  </g>
  <g id="axes_3">
   <g id="line2d_35">
    <path clip-path="url(#p847240b943)" d="M 272.16 242.975824 
L 274.865455 242.84981 
L 277.570909 242.686994 
L 280.276364 242.478154 
L 282.981818 242.212235 
L 285.687273 241.876118 
L 288.392727 241.454399 
L 291.098182 240.92919 
L 293.803636 240.27996 
L 296.509091 239.483426 
L 299.214545 238.513525 
L 301.92 237.341473 
L 304.625455 235.935952 
L 307.330909 234.26343 
L 310.036364 232.288643 
L 312.741818 229.975248 
L 315.447273 227.286661 
L 318.152727 224.187082 
L 320.858182 220.642705 
L 323.563636 216.623082 
L 326.269091 212.102635 
L 328.974545 207.062251 
L 331.68 201.490928 
L 334.385455 195.387397 
L 337.090909 188.761646 
L 339.796364 181.636277 
L 342.501818 174.047592 
L 345.207273 166.046351 
L 347.912727 157.698107 
L 350.618182 149.083062 
L 353.323636 140.295387 
L 356.029091 131.441986 
L 358.734545 122.640697 
L 361.44 114.017946 
L 364.145455 105.705917 
L 366.850909 97.839309 
L 369.556364 90.551783 
L 372.261818 83.972237 
L 374.967273 78.221037 
L 377.672727 73.406373 
L 380.378182 69.620875 
L 383.083636 66.938654 
L 385.789091 65.412889 
L 388.494545 65.074074 
L 391.2 65.929005 
L 393.905455 67.960552 
L 396.610909 71.12823 
L 399.316364 75.369541 
L 402.021818 80.602025 
L 404.727273 86.725925 
L 407.432727 93.627345 
L 410.138182 101.181768 
L 412.843636 109.257769 
L 415.549091 117.720787 
L 418.254545 126.436793 
L 420.96 135.275719 
L 423.665455 144.114536 
L 426.370909 152.839884 
L 429.076364 161.350183 
L 431.781818 169.55719 
L 434.487273 177.386996 
L 437.192727 184.780464 
L 439.898182 191.693159 
L 442.603636 198.094826 
L 445.309091 203.968476 
L 448.014545 209.309171 
L 450.72 214.12259 
L 453.425455 218.423447 
L 456.130909 222.233855 
L 458.836364 225.581694 
L 461.541818 228.499041 
L 464.247273 231.020727 
L 466.952727 233.183026 
L 469.658182 235.022535 
L 472.363636 236.575221 
L 475.069091 237.875669 
L 477.774545 238.9565 
L 480.48 239.847967 
L 483.185455 240.57769 
L 485.890909 241.170531 
L 488.596364 241.648574 
L 491.301818 242.031186 
L 494.007273 242.33516 
L 496.712727 242.574882 
L 499.418182 242.762553 
L 502.123636 242.908404 
L 504.829091 243.020931 
L 507.534545 243.107122 
L 510.24 243.172664 
L 512.945455 243.222146 
L 515.650909 243.259237 
L 518.356364 243.286841 
L 521.061818 243.307238 
L 523.767273 243.322202 
L 526.472727 243.333104 
L 529.178182 243.340989 
L 531.883636 243.346652 
L 534.589091 243.350691 
L 537.294545 243.353551 
L 540 243.355563 
" style="fill:none;stroke:#f0ad4e;stroke-linecap:square;stroke-width:1.5;"/>
   </g>
   <g id="line2d_36">
    <path clip-path="url(#p847240b943)" d="M 272.16 240.808595 
L 274.865455 240.307325 
L 277.570909 239.72256 
L 280.276364 239.043566 
L 282.981818 238.258846 
L 285.687273 237.356207 
L 288.392727 236.322847 
L 291.098182 235.145478 
L 293.803636 233.810478 
L 296.509091 232.304078 
L 299.214545 230.612579 
L 301.92 228.722608 
L 304.625455 226.621402 
L 307.330909 224.297122 
L 310.036364 221.739194 
L 312.741818 218.93867 
L 315.447273 215.888603 
L 318.152727 212.584424 
L 320.858182 209.024321 
L 323.563636 205.209598 
L 326.269091 201.145019 
L 328.974545 196.839101 
L 331.68 192.304373 
L 334.385455 187.557566 
L 337.090909 182.619735 
L 339.796364 177.516299 
L 342.501818 172.276992 
L 345.207273 166.935717 
L 347.912727 161.530299 
L 350.618182 156.102137 
L 353.323636 150.695755 
L 356.029091 145.358252 
L 358.734545 140.138667 
L 361.44 135.087261 
L 364.145455 130.254743 
L 366.850909 125.69143 
L 369.556364 121.446395 
L 372.261818 117.566592 
L 374.967273 114.095995 
L 377.672727 111.074774 
L 380.378182 108.53852 
L 383.083636 106.517546 
L 385.789091 105.036289 
L 388.494545 104.112817 
L 391.2 103.758456 
L 393.905455 103.977568 
L 396.610909 104.767456 
L 399.316364 106.118421 
L 402.021818 108.013957 
L 404.727273 110.431094 
L 407.432727 113.340853 
L 410.138182 116.70883 
L 412.843636 120.495869 
L 415.549091 124.658821 
L 418.254545 129.151358 
L 420.96 133.924831 
L 423.665455 138.929135 
L 426.370909 144.113581 
L 429.076364 149.427726 
L 431.781818 154.822178 
L 434.487273 160.249318 
L 437.192727 165.663962 
L 439.898182 171.02393 
L 442.603636 176.290516 
L 445.309091 181.428866 
L 448.014545 186.408245 
L 450.72 191.202208 
L 453.425455 195.788669 
L 456.130909 200.149885 
L 458.836364 204.272351 
L 461.541818 208.146621 
L 464.247273 211.767074 
L 466.952727 215.131615 
L 469.658182 218.241355 
L 472.363636 221.100244 
L 475.069091 223.714702 
L 477.774545 226.09324 
L 480.48 228.246081 
L 483.185455 230.184797 
L 485.890909 231.921961 
L 488.596364 233.470829 
L 491.301818 234.845049 
L 494.007273 236.058393 
L 496.712727 237.124536 
L 499.418182 238.05686 
L 502.123636 238.868293 
L 504.829091 239.571182 
L 507.534545 240.177194 
L 510.24 240.697249 
L 512.945455 241.141472 
L 515.650909 241.519171 
L 518.356364 241.838837 
L 521.061818 242.10815 
L 523.767273 242.334011 
L 526.472727 242.522573 
L 529.178182 242.679285 
L 531.883636 242.808941 
L 534.589091 242.915732 
L 537.294545 243.003298 
L 540 243.07478 
" style="fill:none;stroke:#5bc0de;stroke-linecap:square;stroke-width:1.5;"/>
   </g>
  </g>
  <g id="axes_4">
   <g id="patch_22">
    <path d="M 557.28 243.36 
L 816.48 243.36 
L 816.48 56.16 
L 557.28 56.16 
z
" style="fill:none;"/>
   </g>
   <g id="PolyCollection_1">
    <defs>
     <path d="M 569.061818 -44.64 
L 569.061818 -44.778167 
L 571.441983 -44.812541 
L 573.822149 -44.855295 
L 576.202314 -44.908403 
L 578.582479 -44.974274 
L 580.962645 -45.055843 
L 583.34281 -45.156671 
L 585.722975 -45.281067 
L 588.10314 -45.434218 
L 590.483306 -45.622345 
L 592.863471 -45.852872 
L 595.243636 -46.134618 
L 597.623802 -46.477992 
L 600.003967 -46.895217 
L 602.384132 -47.400545 
L 604.764298 -48.01048 
L 607.144463 -48.743988 
L 609.524628 -49.622674 
L 611.904793 -50.670932 
L 614.284959 -51.916012 
L 616.665124 -53.388015 
L 619.045289 -55.119767 
L 621.425455 -57.14654 
L 623.80562 -59.50561 
L 626.185785 -62.235598 
L 628.56595 -65.375577 
L 630.946116 -68.963928 
L 633.326281 -73.036926 
L 635.706446 -77.627061 
L 638.086612 -82.76112 
L 640.466777 -88.458058 
L 642.846942 -94.72674 
L 645.227107 -101.563629 
L 647.607273 -108.950548 
L 649.987438 -116.852645 
L 652.367603 -125.216727 
L 654.747769 -133.970109 
L 657.127934 -143.020157 
L 659.508099 -152.254657 
L 661.888264 -161.543125 
L 664.26843 -170.739132 
L 666.648595 -179.683646 
L 669.02876 -188.209329 
L 671.408926 -196.145676 
L 673.789091 -203.324762 
L 676.169256 -209.587358 
L 678.549421 -214.78908 
L 680.929587 -218.806235 
L 683.309752 -221.541014 
L 685.689917 -222.925714 
L 688.070083 -222.925714 
L 690.450248 -221.541014 
L 692.830413 -218.806235 
L 695.210579 -214.78908 
L 697.590744 -209.587358 
L 699.970909 -203.324762 
L 702.351074 -196.145676 
L 704.73124 -188.209329 
L 707.111405 -179.683646 
L 709.49157 -170.739132 
L 711.871736 -161.543125 
L 714.251901 -152.254657 
L 716.632066 -143.020157 
L 719.012231 -133.970109 
L 721.392397 -125.216727 
L 723.772562 -116.852645 
L 726.152727 -108.950548 
L 728.532893 -101.563629 
L 730.913058 -94.72674 
L 733.293223 -88.458058 
L 735.673388 -82.76112 
L 738.053554 -77.627061 
L 740.433719 -73.036926 
L 742.813884 -68.963928 
L 745.19405 -65.375577 
L 747.574215 -62.235598 
L 749.95438 -59.50561 
L 752.334545 -57.14654 
L 754.714711 -55.119767 
L 757.094876 -53.388015 
L 759.475041 -51.916012 
L 761.855207 -50.670932 
L 764.235372 -49.622674 
L 766.615537 -48.743988 
L 768.995702 -48.01048 
L 771.375868 -47.400545 
L 773.756033 -46.895217 
L 776.136198 -46.477992 
L 778.516364 -46.134618 
L 780.896529 -45.852872 
L 783.276694 -45.622345 
L 785.65686 -45.434218 
L 788.037025 -45.281067 
L 790.41719 -45.156671 
L 792.797355 -45.055843 
L 795.177521 -44.974274 
L 797.557686 -44.908403 
L 799.937851 -44.855295 
L 802.318017 -44.812541 
L 804.698182 -44.778167 
L 804.698182 -44.64 
L 804.698182 -44.64 
L 802.318017 -44.64 
L 799.937851 -44.64 
L 797.557686 -44.64 
L 795.177521 -44.64 
L 792.797355 -44.64 
L 790.41719 -44.64 
L 788.037025 -44.64 
L 785.65686 -44.64 
L 783.276694 -44.64 
L 780.896529 -44.64 
L 778.516364 -44.64 
L 776.136198 -44.64 
L 773.756033 -44.64 
L 771.375868 -44.64 
L 768.995702 -44.64 
L 766.615537 -44.64 
L 764.235372 -44.64 
L 761.855207 -44.64 
L 759.475041 -44.64 
L 757.094876 -44.64 
L 754.714711 -44.64 
L 752.334545 -44.64 
L 749.95438 -44.64 
L 747.574215 -44.64 
L 745.19405 -44.64 
L 742.813884 -44.64 
L 740.433719 -44.64 
L 738.053554 -44.64 
L 735.673388 -44.64 
L 733.293223 -44.64 
L 730.913058 -44.64 
L 728.532893 -44.64 
L 726.152727 -44.64 
L 723.772562 -44.64 
L 721.392397 -44.64 
L 719.012231 -44.64 
L 716.632066 -44.64 
L 714.251901 -44.64 
L 711.871736 -44.64 
L 709.49157 -44.64 
L 707.111405 -44.64 
L 704.73124 -44.64 
L 702.351074 -44.64 
L 699.970909 -44.64 
L 697.590744 -44.64 
L 695.210579 -44.64 
L 692.830413 -44.64 
L 690.450248 -44.64 
L 688.070083 -44.64 
L 685.689917 -44.64 
L 683.309752 -44.64 
L 680.929587 -44.64 
L 678.549421 -44.64 
L 676.169256 -44.64 
L 673.789091 -44.64 
L 671.408926 -44.64 
L 669.02876 -44.64 
L 666.648595 -44.64 
L 664.26843 -44.64 
L 661.888264 -44.64 
L 659.508099 -44.64 
L 657.127934 -44.64 
L 654.747769 -44.64 
L 652.367603 -44.64 
L 649.987438 -44.64 
L 647.607273 -44.64 
L 645.227107 -44.64 
L 642.846942 -44.64 
L 640.466777 -44.64 
L 638.086612 -44.64 
L 635.706446 -44.64 
L 633.326281 -44.64 
L 630.946116 -44.64 
L 628.56595 -44.64 
L 626.185785 -44.64 
L 623.80562 -44.64 
L 621.425455 -44.64 
L 619.045289 -44.64 
L 616.665124 -44.64 
L 614.284959 -44.64 
L 611.904793 -44.64 
L 609.524628 -44.64 
L 607.144463 -44.64 
L 604.764298 -44.64 
L 602.384132 -44.64 
L 600.003967 -44.64 
L 597.623802 -44.64 
L 595.243636 -44.64 
L 592.863471 -44.64 
L 590.483306 -44.64 
L 588.10314 -44.64 
L 585.722975 -44.64 
L 583.34281 -44.64 
L 580.962645 -44.64 
L 578.582479 -44.64 
L 576.202314 -44.64 
L 573.822149 -44.64 
L 571.441983 -44.64 
L 569.061818 -44.64 
z
" id="m499ac88876" style="stroke:#d9534f;stroke-opacity:0.8;"/>
    </defs>
    <g clip-path="url(#p11c4472853)">
     <use style="fill:#d9534f;fill-opacity:0.8;stroke:#d9534f;stroke-opacity:0.8;" x="0" xlink:href="#m499ac88876" y="288"/>
    </g>
   </g>
   <g id="matplotlib.axis_5">
    <g id="xtick_11">
     <g id="line2d_37">
      <g>
       <use style="fill:#d2d2d2;stroke:#d2d2d2;" x="596.250629" xlink:href="#m8daeca0f6e" y="243.36"/>
      </g>
     </g>
     <g id="text_28">
      <!-- 5.0 -->
      <defs>
       <path d="M 10.59375 35.5 
L 73.1875 35.5 
L 73.1875 27.203125 
L 10.59375 27.203125 
z
" id="DejaVuSans-2212"/>
       <path d="M 10.6875 12.40625 
L 21 12.40625 
L 21 0 
L 10.6875 0 
z
" id="DejaVuSans-2e"/>
      </defs>
      <g style="fill:#d2d2d2;" transform="translate(580.466801 261.237969)scale(0.13 -0.13)">
       <use xlink:href="#DejaVuSans-2212"/>
       <use x="83.789062" xlink:href="#DejaVuSans-35"/>
       <use x="147.412109" xlink:href="#DejaVuSans-2e"/>
       <use x="179.199219" xlink:href="#DejaVuSans-30"/>
      </g>
     </g>
    </g>
    <g id="xtick_12">
     <g id="line2d_38">
      <g>
       <use style="fill:#d2d2d2;stroke:#d2d2d2;" x="641.565315" xlink:href="#m8daeca0f6e" y="243.36"/>
      </g>
     </g>
     <g id="text_29">
      <!-- 2.5 -->
      <g style="fill:#d2d2d2;" transform="translate(625.781487 261.237969)scale(0.13 -0.13)">
       <use xlink:href="#DejaVuSans-2212"/>
       <use x="83.789062" xlink:href="#DejaVuSans-32"/>
       <use x="147.412109" xlink:href="#DejaVuSans-2e"/>
       <use x="179.199219" xlink:href="#DejaVuSans-35"/>
      </g>
     </g>
    </g>
    <g id="xtick_13">
     <g id="line2d_39">
      <g>
       <use style="fill:#d2d2d2;stroke:#d2d2d2;" x="686.88" xlink:href="#m8daeca0f6e" y="243.36"/>
      </g>
     </g>
     <g id="text_30">
      <!-- 0.0 -->
      <g style="fill:#d2d2d2;" transform="translate(676.542969 261.237969)scale(0.13 -0.13)">
       <use xlink:href="#DejaVuSans-30"/>
       <use x="63.623047" xlink:href="#DejaVuSans-2e"/>
       <use x="95.410156" xlink:href="#DejaVuSans-30"/>
      </g>
     </g>
    </g>
    <g id="xtick_14">
     <g id="line2d_40">
      <g>
       <use style="fill:#d2d2d2;stroke:#d2d2d2;" x="732.194685" xlink:href="#m8daeca0f6e" y="243.36"/>
      </g>
     </g>
     <g id="text_31">
      <!-- 2.5 -->
      <g style="fill:#d2d2d2;" transform="translate(721.857654 261.237969)scale(0.13 -0.13)">
       <use xlink:href="#DejaVuSans-32"/>
       <use x="63.623047" xlink:href="#DejaVuSans-2e"/>
       <use x="95.410156" xlink:href="#DejaVuSans-35"/>
      </g>
     </g>
    </g>
    <g id="xtick_15">
     <g id="line2d_41">
      <g>
       <use style="fill:#d2d2d2;stroke:#d2d2d2;" x="777.509371" xlink:href="#m8daeca0f6e" y="243.36"/>
      </g>
     </g>
     <g id="text_32">
      <!-- 5.0 -->
      <g style="fill:#d2d2d2;" transform="translate(767.172339 261.237969)scale(0.13 -0.13)">
       <use xlink:href="#DejaVuSans-35"/>
       <use x="63.623047" xlink:href="#DejaVuSans-2e"/>
       <use x="95.410156" xlink:href="#DejaVuSans-30"/>
      </g>
     </g>
    </g>
    <g id="text_33">
     <!-- $\bar{x}_{\mathrm{carbon}}-\bar{x}_{\mathrm{steel}}$ -->
     <defs>
      <path d="M -39.34375 74.515625 
L -10.15625 74.515625 
L -10.15625 67.28125 
L -39.34375 67.28125 
z
" id="DejaVuSans-304"/>
      <path d="M 60.015625 54.6875 
L 34.90625 27.875 
L 50.296875 0 
L 39.984375 0 
L 28.421875 21.6875 
L 8.296875 0 
L -2.59375 0 
L 24.3125 28.8125 
L 10.015625 54.6875 
L 20.3125 54.6875 
L 30.8125 34.90625 
L 49.125 54.6875 
z
" id="DejaVuSans-Oblique-78"/>
     </defs>
     <g style="fill:#d2d2d2;" transform="translate(627.48 281.61875)scale(0.18 -0.18)">
      <use transform="translate(62.138672 0.484375)" xlink:href="#DejaVuSans-304"/>
      <use transform="translate(0 0.578125)" xlink:href="#DejaVuSans-Oblique-78"/>
      <use transform="translate(60.136719 -15.828125)scale(0.7)" xlink:href="#DejaVuSans-63"/>
      <use transform="translate(98.623047 -15.828125)scale(0.7)" xlink:href="#DejaVuSans-61"/>
      <use transform="translate(141.518555 -15.828125)scale(0.7)" xlink:href="#DejaVuSans-72"/>
      <use transform="translate(170.297852 -15.828125)scale(0.7)" xlink:href="#DejaVuSans-62"/>
      <use transform="translate(214.731445 -15.828125)scale(0.7)" xlink:href="#DejaVuSans-6f"/>
      <use transform="translate(257.558594 -15.828125)scale(0.7)" xlink:href="#DejaVuSans-6e"/>
      <use transform="translate(324.140625 0.578125)" xlink:href="#DejaVuSans-2212"/>
      <use transform="translate(489.550781 0.484375)" xlink:href="#DejaVuSans-304"/>
      <use transform="translate(427.412109 0.578125)" xlink:href="#DejaVuSans-Oblique-78"/>
      <use transform="translate(487.548828 -15.828125)scale(0.7)" xlink:href="#DejaVuSans-73"/>
      <use transform="translate(524.018555 -15.828125)scale(0.7)" xlink:href="#DejaVuSans-74"/>
      <use transform="translate(551.464844 -15.828125)scale(0.7)" xlink:href="#DejaVuSans-65"/>
      <use transform="translate(594.53125 -15.828125)scale(0.7)" xlink:href="#DejaVuSans-65"/>
      <use transform="translate(637.597656 -15.828125)scale(0.7)" xlink:href="#DejaVuSans-6c"/>
     </g>
    </g>
   </g>
   <g id="matplotlib.axis_6"/>
   <g id="patch_23">
    <path d="M 557.28 243.36 
L 816.48 243.36 
" style="fill:none;stroke:#d2d2d2;stroke-linecap:square;stroke-linejoin:miter;"/>
   </g>
   <g id="text_34">
    <!-- $\mu=0$ -->
    <defs>
     <path d="M -1.3125 -20.796875 
L 13.375 54.6875 
L 22.40625 54.6875 
L 15.765625 20.65625 
Q 15.578125 19.625 15.421875 18.359375 
Q 15.28125 17.09375 15.28125 15.828125 
Q 15.28125 11.28125 18.140625 8.828125 
Q 21 6.390625 26.3125 6.390625 
Q 33.546875 6.390625 37.984375 10.484375 
Q 42.4375 14.59375 44 22.796875 
L 50.203125 54.6875 
L 59.1875 54.6875 
L 51.03125 12.640625 
Q 50.828125 11.71875 50.75 11.03125 
Q 50.6875 10.359375 50.6875 9.8125 
Q 50.6875 8.296875 51.296875 7.59375 
Q 51.90625 6.890625 53.21875 6.890625 
Q 53.71875 6.890625 54.5625 7.125 
Q 55.421875 7.375 56.984375 8.015625 
L 55.609375 0.78125 
Q 53.46875 -0.296875 51.515625 -0.859375 
Q 49.5625 -1.421875 47.703125 -1.421875 
Q 44.484375 -1.421875 42.65625 0.625 
Q 40.828125 2.6875 40.828125 6.296875 
Q 38.09375 2.390625 34.296875 0.484375 
Q 30.515625 -1.421875 25.390625 -1.421875 
Q 20.84375 -1.421875 17.453125 0.671875 
Q 14.0625 2.78125 12.984375 6.203125 
L 7.71875 -20.796875 
z
" id="DejaVuSans-Oblique-3bc"/>
     <path d="M 10.59375 45.40625 
L 73.1875 45.40625 
L 73.1875 37.203125 
L 10.59375 37.203125 
z
M 10.59375 25.484375 
L 73.1875 25.484375 
L 73.1875 17.1875 
L 10.59375 17.1875 
z
" id="DejaVuSans-3d"/>
    </defs>
    <g style="fill:#d2d2d2;" transform="translate(732.194685 93.6)scale(0.13 -0.13)">
     <use transform="translate(0 0.78125)" xlink:href="#DejaVuSans-Oblique-3bc"/>
     <use transform="translate(83.105469 0.78125)" xlink:href="#DejaVuSans-3d"/>
     <use transform="translate(186.376953 0.78125)" xlink:href="#DejaVuSans-30"/>
    </g>
   </g>
   <g id="text_35">
    <!-- $\sigma=\sqrt{\frac{s_1^2}{n_1}+\frac{s_2^2}{n_2}}$ -->
    <defs>
     <path d="M 34.671875 47.5625 
Q 27.25 47.5625 22.21875 42.1875 
Q 16.890625 36.578125 15.140625 27.296875 
Q 13.1875 17.484375 16.3125 11.8125 
Q 19.390625 6.203125 26.65625 6.203125 
Q 33.84375 6.203125 39.109375 11.859375 
Q 44.4375 17.53125 46.34375 27.296875 
Q 48.046875 36.234375 45.015625 42.1875 
Q 42.1875 47.5625 34.671875 47.5625 
M 36.078125 54.734375 
L 65.921875 54.6875 
L 64.15625 45.703125 
L 54.109375 45.703125 
Q 57.90625 38.09375 55.859375 27.296875 
Q 53.21875 13.875 45.0625 6.25 
Q 36.859375 -1.421875 25.140625 -1.421875 
Q 13.375 -1.421875 8.203125 6.25 
Q 3.03125 13.875 5.671875 27.296875 
Q 8.25 40.765625 16.40625 48.390625 
Q 23.1875 54.734375 36.078125 54.734375 
" id="DejaVuSans-Oblique-3c3"/>
     <path d="M 108.90625 155.203125 
L 52.703125 -29.5 
L 48.5 -29.5 
L 25.40625 45.59375 
Q 24.296875 49.203125 22.890625 50.796875 
Q 21.5 52.40625 19.203125 52.40625 
Q 15.796875 52.40625 12.40625 49.703125 
L 11.203125 51.703125 
L 27.59375 64.296875 
L 30.09375 64.296875 
L 52.796875 -9.40625 
L 53.203125 -9.40625 
L 103.203125 155.203125 
z
" id="STIXSizeOneSym-Regular-221a"/>
     <path d="M 50 53.078125 
L 48.296875 44.578125 
Q 44.734375 46.53125 40.765625 47.5 
Q 36.8125 48.484375 32.625 48.484375 
Q 25.53125 48.484375 21.453125 46.0625 
Q 17.390625 43.65625 17.390625 39.5 
Q 17.390625 34.671875 26.859375 32.078125 
Q 27.59375 31.890625 27.9375 31.78125 
L 30.8125 30.90625 
Q 39.796875 28.421875 42.796875 25.6875 
Q 45.796875 22.953125 45.796875 18.21875 
Q 45.796875 9.515625 38.890625 4.046875 
Q 31.984375 -1.421875 20.796875 -1.421875 
Q 16.453125 -1.421875 11.671875 -0.578125 
Q 6.890625 0.25 1.125 2 
L 2.875 11.28125 
Q 7.8125 8.734375 12.59375 7.421875 
Q 17.390625 6.109375 21.78125 6.109375 
Q 28.375 6.109375 32.5 8.9375 
Q 36.625 11.765625 36.625 16.109375 
Q 36.625 20.796875 25.78125 23.6875 
L 24.859375 23.921875 
L 21.78125 24.703125 
Q 14.9375 26.515625 11.765625 29.46875 
Q 8.59375 32.421875 8.59375 37.015625 
Q 8.59375 45.75 15.15625 50.875 
Q 21.734375 56 33.015625 56 
Q 37.453125 56 41.671875 55.265625 
Q 45.90625 54.546875 50 53.078125 
" id="DejaVuSans-Oblique-73"/>
     <path d="M 55.71875 33.015625 
L 49.3125 0 
L 40.28125 0 
L 46.6875 32.671875 
Q 47.125 34.96875 47.359375 36.71875 
Q 47.609375 38.484375 47.609375 39.5 
Q 47.609375 43.609375 45.015625 45.890625 
Q 42.4375 48.1875 37.796875 48.1875 
Q 30.5625 48.1875 25.34375 43.375 
Q 20.125 38.578125 18.5 30.328125 
L 12.5 0 
L 3.515625 0 
L 14.109375 54.6875 
L 23.09375 54.6875 
L 21.296875 46.09375 
Q 25.046875 50.828125 30.3125 53.40625 
Q 35.59375 56 41.40625 56 
Q 48.640625 56 52.609375 52.09375 
Q 56.59375 48.1875 56.59375 41.109375 
Q 56.59375 39.359375 56.375 37.359375 
Q 56.15625 35.359375 55.71875 33.015625 
" id="DejaVuSans-Oblique-6e"/>
     <path d="M 46 62.703125 
L 46 35.5 
L 73.1875 35.5 
L 73.1875 27.203125 
L 46 27.203125 
L 46 0 
L 37.796875 0 
L 37.796875 27.203125 
L 10.59375 27.203125 
L 10.59375 35.5 
L 37.796875 35.5 
L 37.796875 62.703125 
z
" id="DejaVuSans-2b"/>
    </defs>
    <g style="fill:#d2d2d2;" transform="translate(732.194685 121.68)scale(0.13 -0.13)">
     <use transform="translate(0 0.35625)" xlink:href="#DejaVuSans-Oblique-3c3"/>
     <use transform="translate(82.861328 0.35625)" xlink:href="#DejaVuSans-3d"/>
     <use transform="translate(186.132812 -6.515625)scale(1.058396)" xlink:href="#STIXSizeOneSym-Regular-221a"/>
     <use transform="translate(312.542664 63.585938)scale(0.7)" xlink:href="#DejaVuSans-Oblique-73"/>
     <use transform="translate(352.267317 90.382812)scale(0.49)" xlink:href="#DejaVuSans-32"/>
     <use transform="translate(349.01239 44.445312)scale(0.49)" xlink:href="#DejaVuSans-31"/>
     <use transform="translate(310.542664 -26.004687)scale(0.7)" xlink:href="#DejaVuSans-Oblique-6e"/>
     <use transform="translate(354.907898 -37.489062)scale(0.49)" xlink:href="#DejaVuSans-31"/>
     <use transform="translate(419.979675 0.648438)" xlink:href="#DejaVuSans-2b"/>
     <use transform="translate(525.25116 63.585938)scale(0.7)" xlink:href="#DejaVuSans-Oblique-73"/>
     <use transform="translate(564.975813 90.382812)scale(0.49)" xlink:href="#DejaVuSans-32"/>
     <use transform="translate(561.720886 44.445312)scale(0.49)" xlink:href="#DejaVuSans-32"/>
     <use transform="translate(523.25116 -26.004687)scale(0.7)" xlink:href="#DejaVuSans-Oblique-6e"/>
     <use transform="translate(567.616394 -37.489062)scale(0.49)" xlink:href="#DejaVuSans-32"/>
     <path d="M 298.042664 151.5 
L 298.042664 157.75 
L 625.70575 157.75 
L 625.70575 151.5 
L 298.042664 151.5 
z
"/>
     <path d="M 310.542664 19.445312 
L 310.542664 25.695312 
L 387.997253 25.695312 
L 387.997253 19.445312 
L 310.542664 19.445312 
z
"/>
     <path d="M 523.25116 19.445312 
L 523.25116 25.695312 
L 600.70575 25.695312 
L 600.70575 19.445312 
L 523.25116 19.445312 
z
"/>
    </g>
   </g>
   <g id="text_36">
    <!-- df=$min(n_1-1;$ -->
    <defs>
     <path d="M 89.796875 33.015625 
L 83.40625 0 
L 74.421875 0 
L 80.71875 32.71875 
Q 81.109375 34.8125 81.296875 36.328125 
Q 81.5 37.84375 81.5 38.921875 
Q 81.5 43.3125 79.046875 45.75 
Q 76.609375 48.1875 72.21875 48.1875 
Q 65.671875 48.1875 60.546875 43.28125 
Q 55.421875 38.375 53.90625 30.515625 
L 47.90625 0 
L 38.921875 0 
L 45.3125 32.71875 
Q 45.703125 34.515625 45.890625 36.046875 
Q 46.09375 37.59375 46.09375 38.8125 
Q 46.09375 43.265625 43.65625 45.71875 
Q 41.21875 48.1875 36.921875 48.1875 
Q 30.28125 48.1875 25.140625 43.28125 
Q 20.015625 38.375 18.5 30.515625 
L 12.5 0 
L 3.515625 0 
L 14.203125 54.6875 
L 23.1875 54.6875 
L 21.484375 46.1875 
Q 25.140625 50.984375 30.046875 53.484375 
Q 34.96875 56 40.578125 56 
Q 46.53125 56 50.359375 52.875 
Q 54.203125 49.75 54.984375 44.1875 
Q 59.078125 49.953125 64.46875 52.96875 
Q 69.875 56 75.875 56 
Q 82.90625 56 86.734375 51.953125 
Q 90.578125 47.90625 90.578125 40.484375 
Q 90.578125 38.875 90.375 36.9375 
Q 90.1875 35.015625 89.796875 33.015625 
" id="DejaVuSans-Oblique-6d"/>
     <path d="M 18.3125 75.984375 
L 27.296875 75.984375 
L 25.09375 64.59375 
L 16.109375 64.59375 
z
M 14.203125 54.6875 
L 23.1875 54.6875 
L 12.5 0 
L 3.515625 0 
z
" id="DejaVuSans-Oblique-69"/>
     <path d="M 31 75.875 
Q 24.46875 64.65625 21.28125 53.65625 
Q 18.109375 42.671875 18.109375 31.390625 
Q 18.109375 20.125 21.3125 9.0625 
Q 24.515625 -2 31 -13.1875 
L 23.1875 -13.1875 
Q 15.875 -1.703125 12.234375 9.375 
Q 8.59375 20.453125 8.59375 31.390625 
Q 8.59375 42.28125 12.203125 53.3125 
Q 15.828125 64.359375 23.1875 75.875 
z
" id="DejaVuSans-28"/>
     <path d="M 11.71875 51.703125 
L 22.015625 51.703125 
L 22.015625 39.3125 
L 11.71875 39.3125 
z
M 11.71875 12.40625 
L 22.015625 12.40625 
L 22.015625 4 
L 14.015625 -11.625 
L 7.71875 -11.625 
L 11.71875 4 
z
" id="DejaVuSans-3b"/>
    </defs>
    <g style="fill:#d2d2d2;" transform="translate(728.425524 144.562844)scale(0.13 -0.13)">
     <use transform="translate(0 0.015625)" xlink:href="#DejaVuSans-64"/>
     <use transform="translate(63.476562 0.015625)" xlink:href="#DejaVuSans-66"/>
     <use transform="translate(98.681641 0.015625)" xlink:href="#DejaVuSans-3d"/>
     <use transform="translate(182.470703 0.015625)" xlink:href="#DejaVuSans-Oblique-6d"/>
     <use transform="translate(279.882812 0.015625)" xlink:href="#DejaVuSans-Oblique-69"/>
     <use transform="translate(307.666016 0.015625)" xlink:href="#DejaVuSans-Oblique-6e"/>
     <use transform="translate(371.044922 0.015625)" xlink:href="#DejaVuSans-28"/>
     <use transform="translate(410.058594 0.015625)" xlink:href="#DejaVuSans-Oblique-6e"/>
     <use transform="translate(473.4375 -16.390625)scale(0.7)" xlink:href="#DejaVuSans-31"/>
     <use transform="translate(540.19043 0.015625)" xlink:href="#DejaVuSans-2212"/>
     <use transform="translate(643.461914 0.015625)" xlink:href="#DejaVuSans-31"/>
     <use transform="translate(707.084961 0.015625)" xlink:href="#DejaVuSans-3b"/>
    </g>
    <!-- $n_2-1)$ -->
    <defs>
     <path d="M 8.015625 75.875 
L 15.828125 75.875 
Q 23.140625 64.359375 26.78125 53.3125 
Q 30.421875 42.28125 30.421875 31.390625 
Q 30.421875 20.453125 26.78125 9.375 
Q 23.140625 -1.703125 15.828125 -13.1875 
L 8.015625 -13.1875 
Q 14.5 -2 17.703125 9.0625 
Q 20.90625 20.125 20.90625 31.390625 
Q 20.90625 42.671875 17.703125 53.65625 
Q 14.5 64.65625 8.015625 75.875 
" id="DejaVuSans-29"/>
    </defs>
    <g style="fill:#d2d2d2;" transform="translate(783.545524 159.12)scale(0.13 -0.13)">
     <use transform="translate(0 0.125)" xlink:href="#DejaVuSans-Oblique-6e"/>
     <use transform="translate(63.378906 -16.28125)scale(0.7)" xlink:href="#DejaVuSans-32"/>
     <use transform="translate(130.131836 0.125)" xlink:href="#DejaVuSans-2212"/>
     <use transform="translate(233.40332 0.125)" xlink:href="#DejaVuSans-31"/>
     <use transform="translate(297.026367 0.125)" xlink:href="#DejaVuSans-29"/>
    </g>
   </g>
   <g id="text_37">
    <!-- Sampling distribution of the difference -->
    <g style="fill:#d2d2d2;" transform="translate(532.37875 14.292)scale(0.16 -0.16)">
     <use xlink:href="#DejaVuSans-53"/>
     <use x="63.476562" xlink:href="#DejaVuSans-61"/>
     <use x="124.755859" xlink:href="#DejaVuSans-6d"/>
     <use x="222.167969" xlink:href="#DejaVuSans-70"/>
     <use x="285.644531" xlink:href="#DejaVuSans-6c"/>
     <use x="313.427734" xlink:href="#DejaVuSans-69"/>
     <use x="341.210938" xlink:href="#DejaVuSans-6e"/>
     <use x="404.589844" xlink:href="#DejaVuSans-67"/>
     <use x="468.066406" xlink:href="#DejaVuSans-20"/>
     <use x="499.853516" xlink:href="#DejaVuSans-64"/>
     <use x="563.330078" xlink:href="#DejaVuSans-69"/>
     <use x="591.113281" xlink:href="#DejaVuSans-73"/>
     <use x="643.212891" xlink:href="#DejaVuSans-74"/>
     <use x="682.421875" xlink:href="#DejaVuSans-72"/>
     <use x="723.535156" xlink:href="#DejaVuSans-69"/>
     <use x="751.318359" xlink:href="#DejaVuSans-62"/>
     <use x="814.794922" xlink:href="#DejaVuSans-75"/>
     <use x="878.173828" xlink:href="#DejaVuSans-74"/>
     <use x="917.382812" xlink:href="#DejaVuSans-69"/>
     <use x="945.166016" xlink:href="#DejaVuSans-6f"/>
     <use x="1006.347656" xlink:href="#DejaVuSans-6e"/>
     <use x="1069.726562" xlink:href="#DejaVuSans-20"/>
     <use x="1101.513672" xlink:href="#DejaVuSans-6f"/>
     <use x="1162.695312" xlink:href="#DejaVuSans-66"/>
     <use x="1197.900391" xlink:href="#DejaVuSans-20"/>
     <use x="1229.6875" xlink:href="#DejaVuSans-74"/>
     <use x="1268.896484" xlink:href="#DejaVuSans-68"/>
     <use x="1332.275391" xlink:href="#DejaVuSans-65"/>
     <use x="1393.798828" xlink:href="#DejaVuSans-20"/>
     <use x="1425.585938" xlink:href="#DejaVuSans-64"/>
     <use x="1489.0625" xlink:href="#DejaVuSans-69"/>
     <use x="1516.845703" xlink:href="#DejaVuSans-66"/>
     <use x="1552.050781" xlink:href="#DejaVuSans-66"/>
     <use x="1587.255859" xlink:href="#DejaVuSans-65"/>
     <use x="1648.779297" xlink:href="#DejaVuSans-72"/>
     <use x="1689.861328" xlink:href="#DejaVuSans-65"/>
     <use x="1751.384766" xlink:href="#DejaVuSans-6e"/>
     <use x="1814.763672" xlink:href="#DejaVuSans-63"/>
     <use x="1869.744141" xlink:href="#DejaVuSans-65"/>
    </g>
    <!-- in means of two samples from the -->
    <defs>
     <path d="M 4.203125 54.6875 
L 13.1875 54.6875 
L 24.421875 12.015625 
L 35.59375 54.6875 
L 46.1875 54.6875 
L 57.421875 12.015625 
L 68.609375 54.6875 
L 77.59375 54.6875 
L 63.28125 0 
L 52.6875 0 
L 40.921875 44.828125 
L 29.109375 0 
L 18.5 0 
z
" id="DejaVuSans-77"/>
    </defs>
    <g style="fill:#d2d2d2;" transform="translate(550.02 32.2085)scale(0.16 -0.16)">
     <use xlink:href="#DejaVuSans-69"/>
     <use x="27.783203" xlink:href="#DejaVuSans-6e"/>
     <use x="91.162109" xlink:href="#DejaVuSans-20"/>
     <use x="122.949219" xlink:href="#DejaVuSans-6d"/>
     <use x="220.361328" xlink:href="#DejaVuSans-65"/>
     <use x="281.884766" xlink:href="#DejaVuSans-61"/>
     <use x="343.164062" xlink:href="#DejaVuSans-6e"/>
     <use x="406.542969" xlink:href="#DejaVuSans-73"/>
     <use x="458.642578" xlink:href="#DejaVuSans-20"/>
     <use x="490.429688" xlink:href="#DejaVuSans-6f"/>
     <use x="551.611328" xlink:href="#DejaVuSans-66"/>
     <use x="586.816406" xlink:href="#DejaVuSans-20"/>
     <use x="618.603516" xlink:href="#DejaVuSans-74"/>
     <use x="657.8125" xlink:href="#DejaVuSans-77"/>
     <use x="739.599609" xlink:href="#DejaVuSans-6f"/>
     <use x="800.78125" xlink:href="#DejaVuSans-20"/>
     <use x="832.568359" xlink:href="#DejaVuSans-73"/>
     <use x="884.667969" xlink:href="#DejaVuSans-61"/>
     <use x="945.947266" xlink:href="#DejaVuSans-6d"/>
     <use x="1043.359375" xlink:href="#DejaVuSans-70"/>
     <use x="1106.835938" xlink:href="#DejaVuSans-6c"/>
     <use x="1134.619141" xlink:href="#DejaVuSans-65"/>
     <use x="1196.142578" xlink:href="#DejaVuSans-73"/>
     <use x="1248.242188" xlink:href="#DejaVuSans-20"/>
     <use x="1280.029297" xlink:href="#DejaVuSans-66"/>
     <use x="1315.234375" xlink:href="#DejaVuSans-72"/>
     <use x="1356.316406" xlink:href="#DejaVuSans-6f"/>
     <use x="1417.498047" xlink:href="#DejaVuSans-6d"/>
     <use x="1514.910156" xlink:href="#DejaVuSans-20"/>
     <use x="1546.697266" xlink:href="#DejaVuSans-74"/>
     <use x="1585.90625" xlink:href="#DejaVuSans-68"/>
     <use x="1649.285156" xlink:href="#DejaVuSans-65"/>
    </g>
    <!-- underlying distributions if $\mu_\mathrm{carbon}=\mu_\mathrm{steel}$ -->
    <g style="fill:#d2d2d2;" transform="translate(528.32 50.128)scale(0.16 -0.16)">
     <use transform="translate(0 0.015625)" xlink:href="#DejaVuSans-75"/>
     <use transform="translate(63.378906 0.015625)" xlink:href="#DejaVuSans-6e"/>
     <use transform="translate(126.757812 0.015625)" xlink:href="#DejaVuSans-64"/>
     <use transform="translate(190.234375 0.015625)" xlink:href="#DejaVuSans-65"/>
     <use transform="translate(251.757812 0.015625)" xlink:href="#DejaVuSans-72"/>
     <use transform="translate(292.871094 0.015625)" xlink:href="#DejaVuSans-6c"/>
     <use transform="translate(320.654297 0.015625)" xlink:href="#DejaVuSans-79"/>
     <use transform="translate(379.833984 0.015625)" xlink:href="#DejaVuSans-69"/>
     <use transform="translate(407.617188 0.015625)" xlink:href="#DejaVuSans-6e"/>
     <use transform="translate(470.996094 0.015625)" xlink:href="#DejaVuSans-67"/>
     <use transform="translate(534.472656 0.015625)" xlink:href="#DejaVuSans-20"/>
     <use transform="translate(566.259766 0.015625)" xlink:href="#DejaVuSans-64"/>
     <use transform="translate(629.736328 0.015625)" xlink:href="#DejaVuSans-69"/>
     <use transform="translate(657.519531 0.015625)" xlink:href="#DejaVuSans-73"/>
     <use transform="translate(709.619141 0.015625)" xlink:href="#DejaVuSans-74"/>
     <use transform="translate(748.828125 0.015625)" xlink:href="#DejaVuSans-72"/>
     <use transform="translate(789.941406 0.015625)" xlink:href="#DejaVuSans-69"/>
     <use transform="translate(817.724609 0.015625)" xlink:href="#DejaVuSans-62"/>
     <use transform="translate(881.201172 0.015625)" xlink:href="#DejaVuSans-75"/>
     <use transform="translate(944.580078 0.015625)" xlink:href="#DejaVuSans-74"/>
     <use transform="translate(983.789062 0.015625)" xlink:href="#DejaVuSans-69"/>
     <use transform="translate(1011.572266 0.015625)" xlink:href="#DejaVuSans-6f"/>
     <use transform="translate(1072.753906 0.015625)" xlink:href="#DejaVuSans-6e"/>
     <use transform="translate(1136.132812 0.015625)" xlink:href="#DejaVuSans-73"/>
     <use transform="translate(1188.232422 0.015625)" xlink:href="#DejaVuSans-20"/>
     <use transform="translate(1220.019531 0.015625)" xlink:href="#DejaVuSans-69"/>
     <use transform="translate(1247.802734 0.015625)" xlink:href="#DejaVuSans-66"/>
     <use transform="translate(1283.007812 0.015625)" xlink:href="#DejaVuSans-20"/>
     <use transform="translate(1314.794922 0.015625)" xlink:href="#DejaVuSans-Oblique-3bc"/>
     <use transform="translate(1378.417969 -16.390625)scale(0.7)" xlink:href="#DejaVuSans-63"/>
     <use transform="translate(1416.904297 -16.390625)scale(0.7)" xlink:href="#DejaVuSans-61"/>
     <use transform="translate(1459.799805 -16.390625)scale(0.7)" xlink:href="#DejaVuSans-72"/>
     <use transform="translate(1488.579102 -16.390625)scale(0.7)" xlink:href="#DejaVuSans-62"/>
     <use transform="translate(1533.012695 -16.390625)scale(0.7)" xlink:href="#DejaVuSans-6f"/>
     <use transform="translate(1575.839844 -16.390625)scale(0.7)" xlink:href="#DejaVuSans-6e"/>
     <use transform="translate(1642.421875 0.015625)" xlink:href="#DejaVuSans-3d"/>
     <use transform="translate(1745.693359 0.015625)" xlink:href="#DejaVuSans-Oblique-3bc"/>
     <use transform="translate(1809.316406 -16.390625)scale(0.7)" xlink:href="#DejaVuSans-73"/>
     <use transform="translate(1845.786133 -16.390625)scale(0.7)" xlink:href="#DejaVuSans-74"/>
     <use transform="translate(1873.232422 -16.390625)scale(0.7)" xlink:href="#DejaVuSans-65"/>
     <use transform="translate(1916.298828 -16.390625)scale(0.7)" xlink:href="#DejaVuSans-65"/>
     <use transform="translate(1959.365234 -16.390625)scale(0.7)" xlink:href="#DejaVuSans-6c"/>
    </g>
   </g>
  </g>
 </g>
 <defs>
  <clipPath id="p9f246cdb49">
   <rect height="187.2" width="172.8" x="56.16" y="56.16"/>
  </clipPath>
  <clipPath id="p847240b943">
   <rect height="187.2" width="267.84" x="272.16" y="56.16"/>
  </clipPath>
  <clipPath id="p11c4472853">
   <rect height="187.2" width="259.2" x="557.28" y="56.16"/>
  </clipPath>
 </defs>
</svg>
