<?xml version="1.0" encoding="utf-8" standalone="no"?>
<!DOCTYPE svg PUBLIC "-//W3C//DTD SVG 1.1//EN"
  "http://www.w3.org/Graphics/SVG/1.1/DTD/svg11.dtd">
<!-- Created with matplotlib (http://matplotlib.org/) -->
<svg height="288pt" version="1.1" viewBox="0 0 432 288" width="432pt" xmlns="http://www.w3.org/2000/svg" xmlns:xlink="http://www.w3.org/1999/xlink">
 <defs>
  <style type="text/css">
*{stroke-linecap:butt;stroke-linejoin:round;}
  </style>
 </defs>
 <g id="figure_1">
  <g id="patch_1">
   <path d="M 0 288 
L 432 288 
L 432 0 
L 0 0 
z
" style="fill:none;"/>
  </g>
  <g id="axes_1">
   <g id="patch_2">
    <path d="M 14.8 231.2 
L 398.2 231.2 
L 398.2 14.8 
L 14.8 14.8 
z
" style="fill:none;"/>
   </g>
   <g id="matplotlib.axis_1">
    <g id="xtick_1">
     <g id="line2d_1">
      <defs>
       <path d="M 0 0 
L 0 4 
" id="m6cd8853e26" style="stroke:#d2d2d2;"/>
      </defs>
      <g>
       <use style="fill:#d2d2d2;stroke:#d2d2d2;" x="59.512" xlink:href="#m6cd8853e26" y="231.2"/>
      </g>
     </g>
     <g id="text_1">
      <!-- −6 -->
      <defs>
       <path d="M 10.59375 35.5 
L 73.1875 35.5 
L 73.1875 27.203125 
L 10.59375 27.203125 
z
" id="DejaVuSans-2212"/>
       <path d="M 33.015625 40.375 
Q 26.375 40.375 22.484375 35.828125 
Q 18.609375 31.296875 18.609375 23.390625 
Q 18.609375 15.53125 22.484375 10.953125 
Q 26.375 6.390625 33.015625 6.390625 
Q 39.65625 6.390625 43.53125 10.953125 
Q 47.40625 15.53125 47.40625 23.390625 
Q 47.40625 31.296875 43.53125 35.828125 
Q 39.65625 40.375 33.015625 40.375 
M 52.59375 71.296875 
L 52.59375 62.3125 
Q 48.875 64.0625 45.09375 64.984375 
Q 41.3125 65.921875 37.59375 65.921875 
Q 27.828125 65.921875 22.671875 59.328125 
Q 17.53125 52.734375 16.796875 39.40625 
Q 19.671875 43.65625 24.015625 45.921875 
Q 28.375 48.1875 33.59375 48.1875 
Q 44.578125 48.1875 50.953125 41.515625 
Q 57.328125 34.859375 57.328125 23.390625 
Q 57.328125 12.15625 50.6875 5.359375 
Q 44.046875 -1.421875 33.015625 -1.421875 
Q 20.359375 -1.421875 13.671875 8.265625 
Q 6.984375 17.96875 6.984375 36.375 
Q 6.984375 53.65625 15.1875 63.9375 
Q 23.390625 74.21875 37.203125 74.21875 
Q 40.921875 74.21875 44.703125 73.484375 
Q 48.484375 72.75 52.59375 71.296875 
" id="DejaVuSans-36"/>
      </defs>
      <g style="fill:#d2d2d2;" transform="translate(49.929578 249.077969)scale(0.13 -0.13)">
       <use xlink:href="#DejaVuSans-2212"/>
       <use x="83.789062" xlink:href="#DejaVuSans-36"/>
      </g>
     </g>
    </g>
    <g id="xtick_2">
     <g id="line2d_2">
      <g>
       <use style="fill:#d2d2d2;stroke:#d2d2d2;" x="111.352" xlink:href="#m6cd8853e26" y="231.2"/>
      </g>
     </g>
     <g id="text_2">
      <!-- −4 -->
      <defs>
       <path d="M 37.796875 64.3125 
L 12.890625 25.390625 
L 37.796875 25.390625 
z
M 35.203125 72.90625 
L 47.609375 72.90625 
L 47.609375 25.390625 
L 58.015625 25.390625 
L 58.015625 17.1875 
L 47.609375 17.1875 
L 47.609375 0 
L 37.796875 0 
L 37.796875 17.1875 
L 4.890625 17.1875 
L 4.890625 26.703125 
z
" id="DejaVuSans-34"/>
      </defs>
      <g style="fill:#d2d2d2;" transform="translate(101.769578 249.077969)scale(0.13 -0.13)">
       <use xlink:href="#DejaVuSans-2212"/>
       <use x="83.789062" xlink:href="#DejaVuSans-34"/>
      </g>
     </g>
    </g>
    <g id="xtick_3">
     <g id="line2d_3">
      <g>
       <use style="fill:#d2d2d2;stroke:#d2d2d2;" x="163.192" xlink:href="#m6cd8853e26" y="231.2"/>
      </g>
     </g>
     <g id="text_3">
      <!-- −2 -->
      <defs>
       <path d="M 19.1875 8.296875 
L 53.609375 8.296875 
L 53.609375 0 
L 7.328125 0 
L 7.328125 8.296875 
Q 12.9375 14.109375 22.625 23.890625 
Q 32.328125 33.6875 34.8125 36.53125 
Q 39.546875 41.84375 41.421875 45.53125 
Q 43.3125 49.21875 43.3125 52.78125 
Q 43.3125 58.59375 39.234375 62.25 
Q 35.15625 65.921875 28.609375 65.921875 
Q 23.96875 65.921875 18.8125 64.3125 
Q 13.671875 62.703125 7.8125 59.421875 
L 7.8125 69.390625 
Q 13.765625 71.78125 18.9375 73 
Q 24.125 74.21875 28.421875 74.21875 
Q 39.75 74.21875 46.484375 68.546875 
Q 53.21875 62.890625 53.21875 53.421875 
Q 53.21875 48.921875 51.53125 44.890625 
Q 49.859375 40.875 45.40625 35.40625 
Q 44.1875 33.984375 37.640625 27.21875 
Q 31.109375 20.453125 19.1875 8.296875 
" id="DejaVuSans-32"/>
      </defs>
      <g style="fill:#d2d2d2;" transform="translate(153.609578 249.077969)scale(0.13 -0.13)">
       <use xlink:href="#DejaVuSans-2212"/>
       <use x="83.789062" xlink:href="#DejaVuSans-32"/>
      </g>
     </g>
    </g>
    <g id="xtick_4">
     <g id="line2d_4">
      <g>
       <use style="fill:#d2d2d2;stroke:#d2d2d2;" x="215.032" xlink:href="#m6cd8853e26" y="231.2"/>
      </g>
     </g>
     <g id="text_4">
      <!-- 0 -->
      <defs>
       <path d="M 31.78125 66.40625 
Q 24.171875 66.40625 20.328125 58.90625 
Q 16.5 51.421875 16.5 36.375 
Q 16.5 21.390625 20.328125 13.890625 
Q 24.171875 6.390625 31.78125 6.390625 
Q 39.453125 6.390625 43.28125 13.890625 
Q 47.125 21.390625 47.125 36.375 
Q 47.125 51.421875 43.28125 58.90625 
Q 39.453125 66.40625 31.78125 66.40625 
M 31.78125 74.21875 
Q 44.046875 74.21875 50.515625 64.515625 
Q 56.984375 54.828125 56.984375 36.375 
Q 56.984375 17.96875 50.515625 8.265625 
Q 44.046875 -1.421875 31.78125 -1.421875 
Q 19.53125 -1.421875 13.0625 8.265625 
Q 6.59375 17.96875 6.59375 36.375 
Q 6.59375 54.828125 13.0625 64.515625 
Q 19.53125 74.21875 31.78125 74.21875 
" id="DejaVuSans-30"/>
      </defs>
      <g style="fill:#d2d2d2;" transform="translate(210.896375 249.077969)scale(0.13 -0.13)">
       <use xlink:href="#DejaVuSans-30"/>
      </g>
     </g>
    </g>
    <g id="xtick_5">
     <g id="line2d_5">
      <g>
       <use style="fill:#d2d2d2;stroke:#d2d2d2;" x="266.872" xlink:href="#m6cd8853e26" y="231.2"/>
      </g>
     </g>
     <g id="text_5">
      <!-- 2 -->
      <g style="fill:#d2d2d2;" transform="translate(262.736375 249.077969)scale(0.13 -0.13)">
       <use xlink:href="#DejaVuSans-32"/>
      </g>
     </g>
    </g>
    <g id="xtick_6">
     <g id="line2d_6">
      <g>
       <use style="fill:#d2d2d2;stroke:#d2d2d2;" x="318.712" xlink:href="#m6cd8853e26" y="231.2"/>
      </g>
     </g>
     <g id="text_6">
      <!-- 4 -->
      <g style="fill:#d2d2d2;" transform="translate(314.576375 249.077969)scale(0.13 -0.13)">
       <use xlink:href="#DejaVuSans-34"/>
      </g>
     </g>
    </g>
    <g id="xtick_7">
     <g id="line2d_7">
      <g>
       <use style="fill:#d2d2d2;stroke:#d2d2d2;" x="370.552" xlink:href="#m6cd8853e26" y="231.2"/>
      </g>
     </g>
     <g id="text_7">
      <!-- 6 -->
      <g style="fill:#d2d2d2;" transform="translate(366.416375 249.077969)scale(0.13 -0.13)">
       <use xlink:href="#DejaVuSans-36"/>
      </g>
     </g>
    </g>
    <g id="text_8">
     <!-- $\mathrm{m}_{\mathrm{carbon}}-\mathrm{m}_{\mathrm{steel}}$ (min) -->
     <defs>
      <path d="M 52 44.1875 
Q 55.375 50.25 60.0625 53.125 
Q 64.75 56 71.09375 56 
Q 79.640625 56 84.28125 50.015625 
Q 88.921875 44.046875 88.921875 33.015625 
L 88.921875 0 
L 79.890625 0 
L 79.890625 32.71875 
Q 79.890625 40.578125 77.09375 44.375 
Q 74.3125 48.1875 68.609375 48.1875 
Q 61.625 48.1875 57.5625 43.546875 
Q 53.515625 38.921875 53.515625 30.90625 
L 53.515625 0 
L 44.484375 0 
L 44.484375 32.71875 
Q 44.484375 40.625 41.703125 44.40625 
Q 38.921875 48.1875 33.109375 48.1875 
Q 26.21875 48.1875 22.15625 43.53125 
Q 18.109375 38.875 18.109375 30.90625 
L 18.109375 0 
L 9.078125 0 
L 9.078125 54.6875 
L 18.109375 54.6875 
L 18.109375 46.1875 
Q 21.1875 51.21875 25.484375 53.609375 
Q 29.78125 56 35.6875 56 
Q 41.65625 56 45.828125 52.96875 
Q 50 49.953125 52 44.1875 
" id="DejaVuSans-6d"/>
      <path d="M 48.78125 52.59375 
L 48.78125 44.1875 
Q 44.96875 46.296875 41.140625 47.34375 
Q 37.3125 48.390625 33.40625 48.390625 
Q 24.65625 48.390625 19.8125 42.84375 
Q 14.984375 37.3125 14.984375 27.296875 
Q 14.984375 17.28125 19.8125 11.734375 
Q 24.65625 6.203125 33.40625 6.203125 
Q 37.3125 6.203125 41.140625 7.25 
Q 44.96875 8.296875 48.78125 10.40625 
L 48.78125 2.09375 
Q 45.015625 0.34375 40.984375 -0.53125 
Q 36.96875 -1.421875 32.421875 -1.421875 
Q 20.0625 -1.421875 12.78125 6.34375 
Q 5.515625 14.109375 5.515625 27.296875 
Q 5.515625 40.671875 12.859375 48.328125 
Q 20.21875 56 33.015625 56 
Q 37.15625 56 41.109375 55.140625 
Q 45.0625 54.296875 48.78125 52.59375 
" id="DejaVuSans-63"/>
      <path d="M 34.28125 27.484375 
Q 23.390625 27.484375 19.1875 25 
Q 14.984375 22.515625 14.984375 16.5 
Q 14.984375 11.71875 18.140625 8.90625 
Q 21.296875 6.109375 26.703125 6.109375 
Q 34.1875 6.109375 38.703125 11.40625 
Q 43.21875 16.703125 43.21875 25.484375 
L 43.21875 27.484375 
z
M 52.203125 31.203125 
L 52.203125 0 
L 43.21875 0 
L 43.21875 8.296875 
Q 40.140625 3.328125 35.546875 0.953125 
Q 30.953125 -1.421875 24.3125 -1.421875 
Q 15.921875 -1.421875 10.953125 3.296875 
Q 6 8.015625 6 15.921875 
Q 6 25.140625 12.171875 29.828125 
Q 18.359375 34.515625 30.609375 34.515625 
L 43.21875 34.515625 
L 43.21875 35.40625 
Q 43.21875 41.609375 39.140625 45 
Q 35.0625 48.390625 27.6875 48.390625 
Q 23 48.390625 18.546875 47.265625 
Q 14.109375 46.140625 10.015625 43.890625 
L 10.015625 52.203125 
Q 14.9375 54.109375 19.578125 55.046875 
Q 24.21875 56 28.609375 56 
Q 40.484375 56 46.34375 49.84375 
Q 52.203125 43.703125 52.203125 31.203125 
" id="DejaVuSans-61"/>
      <path d="M 41.109375 46.296875 
Q 39.59375 47.171875 37.8125 47.578125 
Q 36.03125 48 33.890625 48 
Q 26.265625 48 22.1875 43.046875 
Q 18.109375 38.09375 18.109375 28.8125 
L 18.109375 0 
L 9.078125 0 
L 9.078125 54.6875 
L 18.109375 54.6875 
L 18.109375 46.1875 
Q 20.953125 51.171875 25.484375 53.578125 
Q 30.03125 56 36.53125 56 
Q 37.453125 56 38.578125 55.875 
Q 39.703125 55.765625 41.0625 55.515625 
z
" id="DejaVuSans-72"/>
      <path d="M 48.6875 27.296875 
Q 48.6875 37.203125 44.609375 42.84375 
Q 40.53125 48.484375 33.40625 48.484375 
Q 26.265625 48.484375 22.1875 42.84375 
Q 18.109375 37.203125 18.109375 27.296875 
Q 18.109375 17.390625 22.1875 11.75 
Q 26.265625 6.109375 33.40625 6.109375 
Q 40.53125 6.109375 44.609375 11.75 
Q 48.6875 17.390625 48.6875 27.296875 
M 18.109375 46.390625 
Q 20.953125 51.265625 25.265625 53.625 
Q 29.59375 56 35.59375 56 
Q 45.5625 56 51.78125 48.09375 
Q 58.015625 40.1875 58.015625 27.296875 
Q 58.015625 14.40625 51.78125 6.484375 
Q 45.5625 -1.421875 35.59375 -1.421875 
Q 29.59375 -1.421875 25.265625 0.953125 
Q 20.953125 3.328125 18.109375 8.203125 
L 18.109375 0 
L 9.078125 0 
L 9.078125 75.984375 
L 18.109375 75.984375 
z
" id="DejaVuSans-62"/>
      <path d="M 30.609375 48.390625 
Q 23.390625 48.390625 19.1875 42.75 
Q 14.984375 37.109375 14.984375 27.296875 
Q 14.984375 17.484375 19.15625 11.84375 
Q 23.34375 6.203125 30.609375 6.203125 
Q 37.796875 6.203125 41.984375 11.859375 
Q 46.1875 17.53125 46.1875 27.296875 
Q 46.1875 37.015625 41.984375 42.703125 
Q 37.796875 48.390625 30.609375 48.390625 
M 30.609375 56 
Q 42.328125 56 49.015625 48.375 
Q 55.71875 40.765625 55.71875 27.296875 
Q 55.71875 13.875 49.015625 6.21875 
Q 42.328125 -1.421875 30.609375 -1.421875 
Q 18.84375 -1.421875 12.171875 6.21875 
Q 5.515625 13.875 5.515625 27.296875 
Q 5.515625 40.765625 12.171875 48.375 
Q 18.84375 56 30.609375 56 
" id="DejaVuSans-6f"/>
      <path d="M 54.890625 33.015625 
L 54.890625 0 
L 45.90625 0 
L 45.90625 32.71875 
Q 45.90625 40.484375 42.875 44.328125 
Q 39.84375 48.1875 33.796875 48.1875 
Q 26.515625 48.1875 22.3125 43.546875 
Q 18.109375 38.921875 18.109375 30.90625 
L 18.109375 0 
L 9.078125 0 
L 9.078125 54.6875 
L 18.109375 54.6875 
L 18.109375 46.1875 
Q 21.34375 51.125 25.703125 53.5625 
Q 30.078125 56 35.796875 56 
Q 45.21875 56 50.046875 50.171875 
Q 54.890625 44.34375 54.890625 33.015625 
" id="DejaVuSans-6e"/>
      <path d="M 44.28125 53.078125 
L 44.28125 44.578125 
Q 40.484375 46.53125 36.375 47.5 
Q 32.28125 48.484375 27.875 48.484375 
Q 21.1875 48.484375 17.84375 46.4375 
Q 14.5 44.390625 14.5 40.28125 
Q 14.5 37.15625 16.890625 35.375 
Q 19.28125 33.59375 26.515625 31.984375 
L 29.59375 31.296875 
Q 39.15625 29.25 43.1875 25.515625 
Q 47.21875 21.78125 47.21875 15.09375 
Q 47.21875 7.46875 41.1875 3.015625 
Q 35.15625 -1.421875 24.609375 -1.421875 
Q 20.21875 -1.421875 15.453125 -0.5625 
Q 10.6875 0.296875 5.421875 2 
L 5.421875 11.28125 
Q 10.40625 8.6875 15.234375 7.390625 
Q 20.0625 6.109375 24.8125 6.109375 
Q 31.15625 6.109375 34.5625 8.28125 
Q 37.984375 10.453125 37.984375 14.40625 
Q 37.984375 18.0625 35.515625 20.015625 
Q 33.0625 21.96875 24.703125 23.78125 
L 21.578125 24.515625 
Q 13.234375 26.265625 9.515625 29.90625 
Q 5.8125 33.546875 5.8125 39.890625 
Q 5.8125 47.609375 11.28125 51.796875 
Q 16.75 56 26.8125 56 
Q 31.78125 56 36.171875 55.265625 
Q 40.578125 54.546875 44.28125 53.078125 
" id="DejaVuSans-73"/>
      <path d="M 18.3125 70.21875 
L 18.3125 54.6875 
L 36.8125 54.6875 
L 36.8125 47.703125 
L 18.3125 47.703125 
L 18.3125 18.015625 
Q 18.3125 11.328125 20.140625 9.421875 
Q 21.96875 7.515625 27.59375 7.515625 
L 36.8125 7.515625 
L 36.8125 0 
L 27.59375 0 
Q 17.1875 0 13.234375 3.875 
Q 9.28125 7.765625 9.28125 18.015625 
L 9.28125 47.703125 
L 2.6875 47.703125 
L 2.6875 54.6875 
L 9.28125 54.6875 
L 9.28125 70.21875 
z
" id="DejaVuSans-74"/>
      <path d="M 56.203125 29.59375 
L 56.203125 25.203125 
L 14.890625 25.203125 
Q 15.484375 15.921875 20.484375 11.0625 
Q 25.484375 6.203125 34.421875 6.203125 
Q 39.59375 6.203125 44.453125 7.46875 
Q 49.3125 8.734375 54.109375 11.28125 
L 54.109375 2.78125 
Q 49.265625 0.734375 44.1875 -0.34375 
Q 39.109375 -1.421875 33.890625 -1.421875 
Q 20.796875 -1.421875 13.15625 6.1875 
Q 5.515625 13.8125 5.515625 26.8125 
Q 5.515625 40.234375 12.765625 48.109375 
Q 20.015625 56 32.328125 56 
Q 43.359375 56 49.78125 48.890625 
Q 56.203125 41.796875 56.203125 29.59375 
M 47.21875 32.234375 
Q 47.125 39.59375 43.09375 43.984375 
Q 39.0625 48.390625 32.421875 48.390625 
Q 24.90625 48.390625 20.390625 44.140625 
Q 15.875 39.890625 15.1875 32.171875 
z
" id="DejaVuSans-65"/>
      <path d="M 9.421875 75.984375 
L 18.40625 75.984375 
L 18.40625 0 
L 9.421875 0 
z
" id="DejaVuSans-6c"/>
      <path id="DejaVuSans-20"/>
      <path d="M 31 75.875 
Q 24.46875 64.65625 21.28125 53.65625 
Q 18.109375 42.671875 18.109375 31.390625 
Q 18.109375 20.125 21.3125 9.0625 
Q 24.515625 -2 31 -13.1875 
L 23.1875 -13.1875 
Q 15.875 -1.703125 12.234375 9.375 
Q 8.59375 20.453125 8.59375 31.390625 
Q 8.59375 42.28125 12.203125 53.3125 
Q 15.828125 64.359375 23.1875 75.875 
z
" id="DejaVuSans-28"/>
      <path d="M 9.421875 54.6875 
L 18.40625 54.6875 
L 18.40625 0 
L 9.421875 0 
z
M 9.421875 75.984375 
L 18.40625 75.984375 
L 18.40625 64.59375 
L 9.421875 64.59375 
z
" id="DejaVuSans-69"/>
      <path d="M 8.015625 75.875 
L 15.828125 75.875 
Q 23.140625 64.359375 26.78125 53.3125 
Q 30.421875 42.28125 30.421875 31.390625 
Q 30.421875 20.453125 26.78125 9.375 
Q 23.140625 -1.703125 15.828125 -13.1875 
L 8.015625 -13.1875 
Q 14.5 -2 17.703125 9.0625 
Q 20.90625 20.125 20.90625 31.390625 
Q 20.90625 42.671875 17.703125 53.65625 
Q 14.5 64.65625 8.015625 75.875 
" id="DejaVuSans-29"/>
     </defs>
     <g style="fill:#d2d2d2;" transform="translate(113.35 269.45875)scale(0.18 -0.18)">
      <use transform="translate(0 0.015625)" xlink:href="#DejaVuSans-6d"/>
      <use transform="translate(98.369141 -16.390625)scale(0.7)" xlink:href="#DejaVuSans-63"/>
      <use transform="translate(136.855469 -16.390625)scale(0.7)" xlink:href="#DejaVuSans-61"/>
      <use transform="translate(179.750977 -16.390625)scale(0.7)" xlink:href="#DejaVuSans-72"/>
      <use transform="translate(208.530273 -16.390625)scale(0.7)" xlink:href="#DejaVuSans-62"/>
      <use transform="translate(252.963867 -16.390625)scale(0.7)" xlink:href="#DejaVuSans-6f"/>
      <use transform="translate(295.791016 -16.390625)scale(0.7)" xlink:href="#DejaVuSans-6e"/>
      <use transform="translate(362.373047 0.015625)" xlink:href="#DejaVuSans-2212"/>
      <use transform="translate(465.644531 0.015625)" xlink:href="#DejaVuSans-6d"/>
      <use transform="translate(564.013672 -16.390625)scale(0.7)" xlink:href="#DejaVuSans-73"/>
      <use transform="translate(600.483398 -16.390625)scale(0.7)" xlink:href="#DejaVuSans-74"/>
      <use transform="translate(627.929688 -16.390625)scale(0.7)" xlink:href="#DejaVuSans-65"/>
      <use transform="translate(670.996094 -16.390625)scale(0.7)" xlink:href="#DejaVuSans-65"/>
      <use transform="translate(714.0625 -16.390625)scale(0.7)" xlink:href="#DejaVuSans-6c"/>
      <use transform="translate(736.245117 0.015625)" xlink:href="#DejaVuSans-20"/>
      <use transform="translate(768.032227 0.015625)" xlink:href="#DejaVuSans-28"/>
      <use transform="translate(807.045898 0.015625)" xlink:href="#DejaVuSans-6d"/>
      <use transform="translate(904.458008 0.015625)" xlink:href="#DejaVuSans-69"/>
      <use transform="translate(932.241211 0.015625)" xlink:href="#DejaVuSans-6e"/>
      <use transform="translate(995.620117 0.015625)" xlink:href="#DejaVuSans-29"/>
     </g>
    </g>
   </g>
   <g id="matplotlib.axis_2"/>
   <g id="patch_3">
    <path d="M 14.8 231.2 
L 398.2 231.2 
" style="fill:none;stroke:#d2d2d2;stroke-linecap:square;stroke-linejoin:miter;"/>
   </g>
  </g>
  <g id="axes_2">
   <g id="PathCollection_1">
    <defs>
     <path d="M 0 3.535534 
C 0.937635 3.535534 1.836992 3.163008 2.5 2.5 
C 3.163008 1.836992 3.535534 0.937635 3.535534 0 
C 3.535534 -0.937635 3.163008 -1.836992 2.5 -2.5 
C 1.836992 -3.163008 0.937635 -3.535534 0 -3.535534 
C -0.937635 -3.535534 -1.836992 -3.163008 -2.5 -2.5 
C -3.163008 -1.836992 -3.535534 -0.937635 -3.535534 0 
C -3.535534 0.937635 -3.163008 1.836992 -2.5 2.5 
C -1.836992 3.163008 -0.937635 3.535534 0 3.535534 
z
" id="ma2a3ea239a" style="stroke:#5bc0de;"/>
    </defs>
    <g clip-path="url(#pf184acd9c0)">
     <use style="fill:#5bc0de;stroke:#5bc0de;" x="296.042795" xlink:href="#ma2a3ea239a" y="227.652459"/>
    </g>
   </g>
  </g>
  <g id="axes_3">
   <g id="PathCollection_2">
    <g clip-path="url(#pf184acd9c0)">
     <use style="fill:#5bc0de;stroke:#5bc0de;" x="333.432392" xlink:href="#ma2a3ea239a" y="227.652459"/>
    </g>
   </g>
  </g>
  <g id="axes_4">
   <g id="PathCollection_3">
    <g clip-path="url(#pf184acd9c0)">
     <use style="fill:#5bc0de;stroke:#5bc0de;" x="283.579596" xlink:href="#ma2a3ea239a" y="227.652459"/>
    </g>
   </g>
  </g>
  <g id="axes_5">
   <g id="PathCollection_4">
    <defs>
     <path d="M 0 3 
C 0.795609 3 1.55874 2.683901 2.12132 2.12132 
C 2.683901 1.55874 3 0.795609 3 0 
C 3 -0.795609 2.683901 -1.55874 2.12132 -2.12132 
C 1.55874 -2.683901 0.795609 -3 0 -3 
C -0.795609 -3 -1.55874 -2.683901 -2.12132 -2.12132 
C -2.683901 -1.55874 -3 -0.795609 -3 0 
C -3 0.795609 -2.683901 1.55874 -2.12132 2.12132 
C -1.55874 2.683901 -0.795609 3 0 3 
z
" id="m0fab5d0083" style="stroke:#5bc0de;"/>
    </defs>
    <g clip-path="url(#pf184acd9c0)">
     <use style="fill:#5bc0de;stroke:#5bc0de;" x="196.337202" xlink:href="#m0fab5d0083" y="227.652459"/>
     <use style="fill:#5bc0de;stroke:#5bc0de;" x="146.484405" xlink:href="#m0fab5d0083" y="227.652459"/>
     <use style="fill:#5bc0de;stroke:#5bc0de;" x="183.874002" xlink:href="#m0fab5d0083" y="227.652459"/>
     <use style="fill:#5bc0de;stroke:#5bc0de;" x="246.189998" xlink:href="#m0fab5d0083" y="227.652459"/>
     <use style="fill:#5bc0de;stroke:#5bc0de;" x="271.116396" xlink:href="#m0fab5d0083" y="227.652459"/>
     <use style="fill:#5bc0de;stroke:#5bc0de;" x="233.726799" xlink:href="#m0fab5d0083" y="227.652459"/>
     <use style="fill:#5bc0de;stroke:#5bc0de;" x="308.505994" xlink:href="#m0fab5d0083" y="227.652459"/>
     <use style="fill:#5bc0de;stroke:#5bc0de;" x="171.410803" xlink:href="#m0fab5d0083" y="227.652459"/>
     <use style="fill:#5bc0de;stroke:#5bc0de;" x="158.947604" xlink:href="#m0fab5d0083" y="227.652459"/>
     <use style="fill:#5bc0de;stroke:#5bc0de;" x="109.094807" xlink:href="#m0fab5d0083" y="227.652459"/>
     <use style="fill:#5bc0de;stroke:#5bc0de;" x="258.653197" xlink:href="#m0fab5d0083" y="227.652459"/>
     <use style="fill:#5bc0de;stroke:#5bc0de;" x="208.800401" xlink:href="#m0fab5d0083" y="227.652459"/>
     <use style="fill:#5bc0de;stroke:#5bc0de;" x="320.969193" xlink:href="#m0fab5d0083" y="227.652459"/>
     <use style="fill:#5bc0de;stroke:#5bc0de;" x="96.631608" xlink:href="#m0fab5d0083" y="227.652459"/>
     <use style="fill:#5bc0de;stroke:#5bc0de;" x="134.021206" xlink:href="#m0fab5d0083" y="227.652459"/>
     <use style="fill:#5bc0de;stroke:#5bc0de;" x="121.558007" xlink:href="#m0fab5d0083" y="227.652459"/>
     <use style="fill:#5bc0de;stroke:#5bc0de;" x="221.2636" xlink:href="#m0fab5d0083" y="227.652459"/>
     <use style="fill:#5bc0de;stroke:#5bc0de;" x="246.189998" xlink:href="#m0fab5d0083" y="218.783607"/>
     <use style="fill:#5bc0de;stroke:#5bc0de;" x="121.558007" xlink:href="#m0fab5d0083" y="218.783607"/>
     <use style="fill:#5bc0de;stroke:#5bc0de;" x="134.021206" xlink:href="#m0fab5d0083" y="218.783607"/>
     <use style="fill:#5bc0de;stroke:#5bc0de;" x="171.410803" xlink:href="#m0fab5d0083" y="218.783607"/>
     <use style="fill:#5bc0de;stroke:#5bc0de;" x="258.653197" xlink:href="#m0fab5d0083" y="218.783607"/>
    </g>
   </g>
  </g>
  <g id="axes_6">
   <g id="PathCollection_5">
    <g clip-path="url(#pf184acd9c0)">
     <use style="fill:#5bc0de;stroke:#5bc0de;" x="158.947604" xlink:href="#m0fab5d0083" y="218.783607"/>
     <use style="fill:#5bc0de;stroke:#5bc0de;" x="183.874002" xlink:href="#m0fab5d0083" y="218.783607"/>
     <use style="fill:#5bc0de;stroke:#5bc0de;" x="271.116396" xlink:href="#m0fab5d0083" y="218.783607"/>
     <use style="fill:#5bc0de;stroke:#5bc0de;" x="96.631608" xlink:href="#m0fab5d0083" y="218.783607"/>
     <use style="fill:#5bc0de;stroke:#5bc0de;" x="320.969193" xlink:href="#m0fab5d0083" y="218.783607"/>
     <use style="fill:#5bc0de;stroke:#5bc0de;" x="146.484405" xlink:href="#m0fab5d0083" y="218.783607"/>
     <use style="fill:#5bc0de;stroke:#5bc0de;" x="221.2636" xlink:href="#m0fab5d0083" y="218.783607"/>
     <use style="fill:#5bc0de;stroke:#5bc0de;" x="296.042795" xlink:href="#m0fab5d0083" y="218.783607"/>
     <use style="fill:#5bc0de;stroke:#5bc0de;" x="196.337202" xlink:href="#m0fab5d0083" y="218.783607"/>
     <use style="fill:#5bc0de;stroke:#5bc0de;" x="109.094807" xlink:href="#m0fab5d0083" y="218.783607"/>
     <use style="fill:#5bc0de;stroke:#5bc0de;" x="233.726799" xlink:href="#m0fab5d0083" y="218.783607"/>
     <use style="fill:#5bc0de;stroke:#5bc0de;" x="208.800401" xlink:href="#m0fab5d0083" y="218.783607"/>
     <use style="fill:#5bc0de;stroke:#5bc0de;" x="283.579596" xlink:href="#m0fab5d0083" y="218.783607"/>
     <use style="fill:#5bc0de;stroke:#5bc0de;" x="308.505994" xlink:href="#m0fab5d0083" y="218.783607"/>
     <use style="fill:#5bc0de;stroke:#5bc0de;" x="308.505994" xlink:href="#m0fab5d0083" y="209.914754"/>
     <use style="fill:#5bc0de;stroke:#5bc0de;" x="296.042795" xlink:href="#m0fab5d0083" y="209.914754"/>
     <use style="fill:#5bc0de;stroke:#5bc0de;" x="208.800401" xlink:href="#m0fab5d0083" y="209.914754"/>
     <use style="fill:#5bc0de;stroke:#5bc0de;" x="196.337202" xlink:href="#m0fab5d0083" y="209.914754"/>
     <use style="fill:#5bc0de;stroke:#5bc0de;" x="96.631608" xlink:href="#m0fab5d0083" y="209.914754"/>
     <use style="fill:#5bc0de;stroke:#5bc0de;" x="233.726799" xlink:href="#m0fab5d0083" y="209.914754"/>
     <use style="fill:#5bc0de;stroke:#5bc0de;" x="246.189998" xlink:href="#m0fab5d0083" y="209.914754"/>
     <use style="fill:#5bc0de;stroke:#5bc0de;" x="258.653197" xlink:href="#m0fab5d0083" y="209.914754"/>
     <use style="fill:#5bc0de;stroke:#5bc0de;" x="146.484405" xlink:href="#m0fab5d0083" y="209.914754"/>
     <use style="fill:#5bc0de;stroke:#5bc0de;" x="221.2636" xlink:href="#m0fab5d0083" y="209.914754"/>
     <use style="fill:#5bc0de;stroke:#5bc0de;" x="109.094807" xlink:href="#m0fab5d0083" y="209.914754"/>
    </g>
   </g>
  </g>
  <g id="axes_7">
   <g id="PathCollection_6">
    <g clip-path="url(#pf184acd9c0)">
     <use style="fill:#5bc0de;stroke:#5bc0de;" x="283.579596" xlink:href="#m0fab5d0083" y="209.914754"/>
     <use style="fill:#5bc0de;stroke:#5bc0de;" x="158.947604" xlink:href="#m0fab5d0083" y="209.914754"/>
     <use style="fill:#5bc0de;stroke:#5bc0de;" x="171.410803" xlink:href="#m0fab5d0083" y="209.914754"/>
     <use style="fill:#5bc0de;stroke:#5bc0de;" x="121.558007" xlink:href="#m0fab5d0083" y="209.914754"/>
     <use style="fill:#5bc0de;stroke:#5bc0de;" x="271.116396" xlink:href="#m0fab5d0083" y="209.914754"/>
     <use style="fill:#5bc0de;stroke:#5bc0de;" x="134.021206" xlink:href="#m0fab5d0083" y="209.914754"/>
     <use style="fill:#5bc0de;stroke:#5bc0de;" x="183.874002" xlink:href="#m0fab5d0083" y="209.914754"/>
     <use style="fill:#5bc0de;stroke:#5bc0de;" x="134.021206" xlink:href="#m0fab5d0083" y="201.045902"/>
     <use style="fill:#5bc0de;stroke:#5bc0de;" x="221.2636" xlink:href="#m0fab5d0083" y="201.045902"/>
     <use style="fill:#5bc0de;stroke:#5bc0de;" x="158.947604" xlink:href="#m0fab5d0083" y="201.045902"/>
     <use style="fill:#5bc0de;stroke:#5bc0de;" x="233.726799" xlink:href="#m0fab5d0083" y="201.045902"/>
     <use style="fill:#5bc0de;stroke:#5bc0de;" x="296.042795" xlink:href="#m0fab5d0083" y="201.045902"/>
     <use style="fill:#5bc0de;stroke:#5bc0de;" x="171.410803" xlink:href="#m0fab5d0083" y="201.045902"/>
     <use style="fill:#5bc0de;stroke:#5bc0de;" x="283.579596" xlink:href="#m0fab5d0083" y="201.045902"/>
     <use style="fill:#5bc0de;stroke:#5bc0de;" x="96.631608" xlink:href="#m0fab5d0083" y="201.045902"/>
     <use style="fill:#5bc0de;stroke:#5bc0de;" x="121.558007" xlink:href="#m0fab5d0083" y="201.045902"/>
     <use style="fill:#5bc0de;stroke:#5bc0de;" x="246.189998" xlink:href="#m0fab5d0083" y="201.045902"/>
     <use style="fill:#5bc0de;stroke:#5bc0de;" x="146.484405" xlink:href="#m0fab5d0083" y="201.045902"/>
     <use style="fill:#5bc0de;stroke:#5bc0de;" x="183.874002" xlink:href="#m0fab5d0083" y="201.045902"/>
     <use style="fill:#5bc0de;stroke:#5bc0de;" x="208.800401" xlink:href="#m0fab5d0083" y="201.045902"/>
     <use style="fill:#5bc0de;stroke:#5bc0de;" x="258.653197" xlink:href="#m0fab5d0083" y="201.045902"/>
     <use style="fill:#5bc0de;stroke:#5bc0de;" x="271.116396" xlink:href="#m0fab5d0083" y="201.045902"/>
     <use style="fill:#5bc0de;stroke:#5bc0de;" x="246.189998" xlink:href="#m0fab5d0083" y="192.177049"/>
     <use style="fill:#5bc0de;stroke:#5bc0de;" x="134.021206" xlink:href="#m0fab5d0083" y="192.177049"/>
     <use style="fill:#5bc0de;stroke:#5bc0de;" x="271.116396" xlink:href="#m0fab5d0083" y="192.177049"/>
     <use style="fill:#5bc0de;stroke:#5bc0de;" x="208.800401" xlink:href="#m0fab5d0083" y="192.177049"/>
     <use style="fill:#5bc0de;stroke:#5bc0de;" x="146.484405" xlink:href="#m0fab5d0083" y="192.177049"/>
     <use style="fill:#5bc0de;stroke:#5bc0de;" x="221.2636" xlink:href="#m0fab5d0083" y="192.177049"/>
     <use style="fill:#5bc0de;stroke:#5bc0de;" x="258.653197" xlink:href="#m0fab5d0083" y="192.177049"/>
     <use style="fill:#5bc0de;stroke:#5bc0de;" x="121.558007" xlink:href="#m0fab5d0083" y="192.177049"/>
    </g>
   </g>
  </g>
  <g id="axes_8">
   <g id="PathCollection_7">
    <g clip-path="url(#pf184acd9c0)">
     <use style="fill:#5bc0de;stroke:#5bc0de;" x="171.410803" xlink:href="#m0fab5d0083" y="192.177049"/>
     <use style="fill:#5bc0de;stroke:#5bc0de;" x="283.579596" xlink:href="#m0fab5d0083" y="192.177049"/>
     <use style="fill:#5bc0de;stroke:#5bc0de;" x="158.947604" xlink:href="#m0fab5d0083" y="192.177049"/>
     <use style="fill:#5bc0de;stroke:#5bc0de;" x="296.042795" xlink:href="#m0fab5d0083" y="192.177049"/>
     <use style="fill:#5bc0de;stroke:#5bc0de;" x="146.484405" xlink:href="#m0fab5d0083" y="183.308197"/>
     <use style="fill:#5bc0de;stroke:#5bc0de;" x="283.579596" xlink:href="#m0fab5d0083" y="183.308197"/>
     <use style="fill:#5bc0de;stroke:#5bc0de;" x="221.2636" xlink:href="#m0fab5d0083" y="183.308197"/>
     <use style="fill:#5bc0de;stroke:#5bc0de;" x="121.558007" xlink:href="#m0fab5d0083" y="183.308197"/>
     <use style="fill:#5bc0de;stroke:#5bc0de;" x="246.189998" xlink:href="#m0fab5d0083" y="183.308197"/>
     <use style="fill:#5bc0de;stroke:#5bc0de;" x="171.410803" xlink:href="#m0fab5d0083" y="183.308197"/>
     <use style="fill:#5bc0de;stroke:#5bc0de;" x="258.653197" xlink:href="#m0fab5d0083" y="183.308197"/>
     <use style="fill:#5bc0de;stroke:#5bc0de;" x="271.116396" xlink:href="#m0fab5d0083" y="183.308197"/>
     <use style="fill:#5bc0de;stroke:#5bc0de;" x="158.947604" xlink:href="#m0fab5d0083" y="183.308197"/>
     <use style="fill:#5bc0de;stroke:#5bc0de;" x="296.042795" xlink:href="#m0fab5d0083" y="183.308197"/>
     <use style="fill:#5bc0de;stroke:#5bc0de;" x="208.800401" xlink:href="#m0fab5d0083" y="183.308197"/>
     <use style="fill:#5bc0de;stroke:#5bc0de;" x="146.484405" xlink:href="#m0fab5d0083" y="174.439344"/>
     <use style="fill:#5bc0de;stroke:#5bc0de;" x="283.579596" xlink:href="#m0fab5d0083" y="174.439344"/>
     <use style="fill:#5bc0de;stroke:#5bc0de;" x="221.2636" xlink:href="#m0fab5d0083" y="174.439344"/>
     <use style="fill:#5bc0de;stroke:#5bc0de;" x="171.410803" xlink:href="#m0fab5d0083" y="174.439344"/>
     <use style="fill:#5bc0de;stroke:#5bc0de;" x="246.189998" xlink:href="#m0fab5d0083" y="174.439344"/>
     <use style="fill:#5bc0de;stroke:#5bc0de;" x="208.800401" xlink:href="#m0fab5d0083" y="174.439344"/>
     <use style="fill:#5bc0de;stroke:#5bc0de;" x="258.653197" xlink:href="#m0fab5d0083" y="174.439344"/>
     <use style="fill:#5bc0de;stroke:#5bc0de;" x="283.579596" xlink:href="#m0fab5d0083" y="165.570492"/>
     <use style="fill:#5bc0de;stroke:#5bc0de;" x="208.800401" xlink:href="#m0fab5d0083" y="165.570492"/>
     <use style="fill:#5bc0de;stroke:#5bc0de;" x="171.410803" xlink:href="#m0fab5d0083" y="165.570492"/>
     <use style="fill:#5bc0de;stroke:#5bc0de;" x="221.2636" xlink:href="#m0fab5d0083" y="165.570492"/>
     <use style="fill:#5bc0de;stroke:#5bc0de;" x="146.484405" xlink:href="#m0fab5d0083" y="165.570492"/>
     <use style="fill:#5bc0de;stroke:#5bc0de;" x="246.189998" xlink:href="#m0fab5d0083" y="165.570492"/>
     <use style="fill:#5bc0de;stroke:#5bc0de;" x="258.653197" xlink:href="#m0fab5d0083" y="165.570492"/>
     <use style="fill:#5bc0de;stroke:#5bc0de;" x="258.653197" xlink:href="#m0fab5d0083" y="156.701639"/>
     <use style="fill:#5bc0de;stroke:#5bc0de;" x="146.484405" xlink:href="#m0fab5d0083" y="156.701639"/>
     <use style="fill:#5bc0de;stroke:#5bc0de;" x="221.2636" xlink:href="#m0fab5d0083" y="156.701639"/>
     <use style="fill:#5bc0de;stroke:#5bc0de;" x="146.484405" xlink:href="#m0fab5d0083" y="147.832787"/>
     <use style="fill:#5bc0de;stroke:#5bc0de;" x="258.653197" xlink:href="#m0fab5d0083" y="147.832787"/>
     <use style="fill:#5bc0de;stroke:#5bc0de;" x="258.653197" xlink:href="#m0fab5d0083" y="138.963934"/>
     <use style="fill:#5bc0de;stroke:#5bc0de;" x="146.484405" xlink:href="#m0fab5d0083" y="138.963934"/>
     <use style="fill:#5bc0de;stroke:#5bc0de;" x="146.484405" xlink:href="#m0fab5d0083" y="130.095082"/>
     <use style="fill:#5bc0de;stroke:#5bc0de;" x="258.653197" xlink:href="#m0fab5d0083" y="130.095082"/>
     <use style="fill:#5bc0de;stroke:#5bc0de;" x="146.484405" xlink:href="#m0fab5d0083" y="121.22623"/>
     <use style="fill:#5bc0de;stroke:#5bc0de;" x="258.653197" xlink:href="#m0fab5d0083" y="121.22623"/>
    </g>
   </g>
  </g>
 </g>
 <defs>
  <clipPath id="pf184acd9c0">
   <rect height="216.4" width="383.4" x="14.8" y="14.8"/>
  </clipPath>
 </defs>
</svg>
