<?xml version="1.0" encoding="utf-8" standalone="no"?>
<!DOCTYPE svg PUBLIC "-//W3C//DTD SVG 1.1//EN"
  "http://www.w3.org/Graphics/SVG/1.1/DTD/svg11.dtd">
<!-- Created with matplotlib (http://matplotlib.org/) -->
<svg height="288pt" version="1.1" viewBox="0 0 864 288" width="864pt" xmlns="http://www.w3.org/2000/svg" xmlns:xlink="http://www.w3.org/1999/xlink">
 <defs>
  <style type="text/css">
*{stroke-linecap:butt;stroke-linejoin:round;}
  </style>
 </defs>
 <g id="figure_1">
  <g id="patch_1">
   <path d="M 0 288 
L 864 288 
L 864 0 
L 0 0 
z
" style="fill:none;"/>
  </g>
  <g id="axes_1">
   <g id="patch_2">
    <path d="M 56.16 244.8 
L 228.96 244.8 
L 228.96 57.6 
L 56.16 57.6 
z
" style="fill:none;"/>
   </g>
   <g id="matplotlib.axis_1">
    <g id="xtick_1">
     <g id="line2d_1"/>
     <g id="text_1">
      <!-- Steel -->
      <defs>
       <path d="M 53.515625 70.515625 
L 53.515625 60.890625 
Q 47.90625 63.578125 42.921875 64.890625 
Q 37.9375 66.21875 33.296875 66.21875 
Q 25.25 66.21875 20.875 63.09375 
Q 16.5 59.96875 16.5 54.203125 
Q 16.5 49.359375 19.40625 46.890625 
Q 22.3125 44.4375 30.421875 42.921875 
L 36.375 41.703125 
Q 47.40625 39.59375 52.65625 34.296875 
Q 57.90625 29 57.90625 20.125 
Q 57.90625 9.515625 50.796875 4.046875 
Q 43.703125 -1.421875 29.984375 -1.421875 
Q 24.8125 -1.421875 18.96875 -0.25 
Q 13.140625 0.921875 6.890625 3.21875 
L 6.890625 13.375 
Q 12.890625 10.015625 18.65625 8.296875 
Q 24.421875 6.59375 29.984375 6.59375 
Q 38.421875 6.59375 43.015625 9.90625 
Q 47.609375 13.234375 47.609375 19.390625 
Q 47.609375 24.75 44.3125 27.78125 
Q 41.015625 30.8125 33.5 32.328125 
L 27.484375 33.5 
Q 16.453125 35.6875 11.515625 40.375 
Q 6.59375 45.0625 6.59375 53.421875 
Q 6.59375 63.09375 13.40625 68.65625 
Q 20.21875 74.21875 32.171875 74.21875 
Q 37.3125 74.21875 42.625 73.28125 
Q 47.953125 72.359375 53.515625 70.515625 
" id="DejaVuSans-53"/>
       <path d="M 18.3125 70.21875 
L 18.3125 54.6875 
L 36.8125 54.6875 
L 36.8125 47.703125 
L 18.3125 47.703125 
L 18.3125 18.015625 
Q 18.3125 11.328125 20.140625 9.421875 
Q 21.96875 7.515625 27.59375 7.515625 
L 36.8125 7.515625 
L 36.8125 0 
L 27.59375 0 
Q 17.1875 0 13.234375 3.875 
Q 9.28125 7.765625 9.28125 18.015625 
L 9.28125 47.703125 
L 2.6875 47.703125 
L 2.6875 54.6875 
L 9.28125 54.6875 
L 9.28125 70.21875 
z
" id="DejaVuSans-74"/>
       <path d="M 56.203125 29.59375 
L 56.203125 25.203125 
L 14.890625 25.203125 
Q 15.484375 15.921875 20.484375 11.0625 
Q 25.484375 6.203125 34.421875 6.203125 
Q 39.59375 6.203125 44.453125 7.46875 
Q 49.3125 8.734375 54.109375 11.28125 
L 54.109375 2.78125 
Q 49.265625 0.734375 44.1875 -0.34375 
Q 39.109375 -1.421875 33.890625 -1.421875 
Q 20.796875 -1.421875 13.15625 6.1875 
Q 5.515625 13.8125 5.515625 26.8125 
Q 5.515625 40.234375 12.765625 48.109375 
Q 20.015625 56 32.328125 56 
Q 43.359375 56 49.78125 48.890625 
Q 56.203125 41.796875 56.203125 29.59375 
M 47.21875 32.234375 
Q 47.125 39.59375 43.09375 43.984375 
Q 39.0625 48.390625 32.421875 48.390625 
Q 24.90625 48.390625 20.390625 44.140625 
Q 15.875 39.890625 15.1875 32.171875 
z
" id="DejaVuSans-65"/>
       <path d="M 9.421875 75.984375 
L 18.40625 75.984375 
L 18.40625 0 
L 9.421875 0 
z
" id="DejaVuSans-6c"/>
      </defs>
      <g style="fill:#d2d2d2;" transform="translate(79.0775 262.9575)scale(0.16 -0.16)">
       <use xlink:href="#DejaVuSans-53"/>
       <use x="63.476562" xlink:href="#DejaVuSans-74"/>
       <use x="102.685547" xlink:href="#DejaVuSans-65"/>
       <use x="164.208984" xlink:href="#DejaVuSans-65"/>
       <use x="225.732422" xlink:href="#DejaVuSans-6c"/>
      </g>
      <!-- frame -->
      <defs>
       <path d="M 37.109375 75.984375 
L 37.109375 68.5 
L 28.515625 68.5 
Q 23.6875 68.5 21.796875 66.546875 
Q 19.921875 64.59375 19.921875 59.515625 
L 19.921875 54.6875 
L 34.71875 54.6875 
L 34.71875 47.703125 
L 19.921875 47.703125 
L 19.921875 0 
L 10.890625 0 
L 10.890625 47.703125 
L 2.296875 47.703125 
L 2.296875 54.6875 
L 10.890625 54.6875 
L 10.890625 58.5 
Q 10.890625 67.625 15.140625 71.796875 
Q 19.390625 75.984375 28.609375 75.984375 
z
" id="DejaVuSans-66"/>
       <path d="M 41.109375 46.296875 
Q 39.59375 47.171875 37.8125 47.578125 
Q 36.03125 48 33.890625 48 
Q 26.265625 48 22.1875 43.046875 
Q 18.109375 38.09375 18.109375 28.8125 
L 18.109375 0 
L 9.078125 0 
L 9.078125 54.6875 
L 18.109375 54.6875 
L 18.109375 46.1875 
Q 20.953125 51.171875 25.484375 53.578125 
Q 30.03125 56 36.53125 56 
Q 37.453125 56 38.578125 55.875 
Q 39.703125 55.765625 41.0625 55.515625 
z
" id="DejaVuSans-72"/>
       <path d="M 34.28125 27.484375 
Q 23.390625 27.484375 19.1875 25 
Q 14.984375 22.515625 14.984375 16.5 
Q 14.984375 11.71875 18.140625 8.90625 
Q 21.296875 6.109375 26.703125 6.109375 
Q 34.1875 6.109375 38.703125 11.40625 
Q 43.21875 16.703125 43.21875 25.484375 
L 43.21875 27.484375 
z
M 52.203125 31.203125 
L 52.203125 0 
L 43.21875 0 
L 43.21875 8.296875 
Q 40.140625 3.328125 35.546875 0.953125 
Q 30.953125 -1.421875 24.3125 -1.421875 
Q 15.921875 -1.421875 10.953125 3.296875 
Q 6 8.015625 6 15.921875 
Q 6 25.140625 12.171875 29.828125 
Q 18.359375 34.515625 30.609375 34.515625 
L 43.21875 34.515625 
L 43.21875 35.40625 
Q 43.21875 41.609375 39.140625 45 
Q 35.0625 48.390625 27.6875 48.390625 
Q 23 48.390625 18.546875 47.265625 
Q 14.109375 46.140625 10.015625 43.890625 
L 10.015625 52.203125 
Q 14.9375 54.109375 19.578125 55.046875 
Q 24.21875 56 28.609375 56 
Q 40.484375 56 46.34375 49.84375 
Q 52.203125 43.703125 52.203125 31.203125 
" id="DejaVuSans-61"/>
       <path d="M 52 44.1875 
Q 55.375 50.25 60.0625 53.125 
Q 64.75 56 71.09375 56 
Q 79.640625 56 84.28125 50.015625 
Q 88.921875 44.046875 88.921875 33.015625 
L 88.921875 0 
L 79.890625 0 
L 79.890625 32.71875 
Q 79.890625 40.578125 77.09375 44.375 
Q 74.3125 48.1875 68.609375 48.1875 
Q 61.625 48.1875 57.5625 43.546875 
Q 53.515625 38.921875 53.515625 30.90625 
L 53.515625 0 
L 44.484375 0 
L 44.484375 32.71875 
Q 44.484375 40.625 41.703125 44.40625 
Q 38.921875 48.1875 33.109375 48.1875 
Q 26.21875 48.1875 22.15625 43.53125 
Q 18.109375 38.875 18.109375 30.90625 
L 18.109375 0 
L 9.078125 0 
L 9.078125 54.6875 
L 18.109375 54.6875 
L 18.109375 46.1875 
Q 21.1875 51.21875 25.484375 53.609375 
Q 29.78125 56 35.6875 56 
Q 41.65625 56 45.828125 52.96875 
Q 50 49.953125 52 44.1875 
" id="DejaVuSans-6d"/>
      </defs>
      <g style="fill:#d2d2d2;" transform="translate(75.6375 280.874)scale(0.16 -0.16)">
       <use xlink:href="#DejaVuSans-66"/>
       <use x="35.205078" xlink:href="#DejaVuSans-72"/>
       <use x="76.318359" xlink:href="#DejaVuSans-61"/>
       <use x="137.597656" xlink:href="#DejaVuSans-6d"/>
       <use x="235.009766" xlink:href="#DejaVuSans-65"/>
      </g>
     </g>
    </g>
    <g id="xtick_2">
     <g id="line2d_2"/>
     <g id="text_2">
      <!-- Carbon -->
      <defs>
       <path d="M 64.40625 67.28125 
L 64.40625 56.890625 
Q 59.421875 61.53125 53.78125 63.8125 
Q 48.140625 66.109375 41.796875 66.109375 
Q 29.296875 66.109375 22.65625 58.46875 
Q 16.015625 50.828125 16.015625 36.375 
Q 16.015625 21.96875 22.65625 14.328125 
Q 29.296875 6.6875 41.796875 6.6875 
Q 48.140625 6.6875 53.78125 8.984375 
Q 59.421875 11.28125 64.40625 15.921875 
L 64.40625 5.609375 
Q 59.234375 2.09375 53.4375 0.328125 
Q 47.65625 -1.421875 41.21875 -1.421875 
Q 24.65625 -1.421875 15.125 8.703125 
Q 5.609375 18.84375 5.609375 36.375 
Q 5.609375 53.953125 15.125 64.078125 
Q 24.65625 74.21875 41.21875 74.21875 
Q 47.75 74.21875 53.53125 72.484375 
Q 59.328125 70.75 64.40625 67.28125 
" id="DejaVuSans-43"/>
       <path d="M 48.6875 27.296875 
Q 48.6875 37.203125 44.609375 42.84375 
Q 40.53125 48.484375 33.40625 48.484375 
Q 26.265625 48.484375 22.1875 42.84375 
Q 18.109375 37.203125 18.109375 27.296875 
Q 18.109375 17.390625 22.1875 11.75 
Q 26.265625 6.109375 33.40625 6.109375 
Q 40.53125 6.109375 44.609375 11.75 
Q 48.6875 17.390625 48.6875 27.296875 
M 18.109375 46.390625 
Q 20.953125 51.265625 25.265625 53.625 
Q 29.59375 56 35.59375 56 
Q 45.5625 56 51.78125 48.09375 
Q 58.015625 40.1875 58.015625 27.296875 
Q 58.015625 14.40625 51.78125 6.484375 
Q 45.5625 -1.421875 35.59375 -1.421875 
Q 29.59375 -1.421875 25.265625 0.953125 
Q 20.953125 3.328125 18.109375 8.203125 
L 18.109375 0 
L 9.078125 0 
L 9.078125 75.984375 
L 18.109375 75.984375 
z
" id="DejaVuSans-62"/>
       <path d="M 30.609375 48.390625 
Q 23.390625 48.390625 19.1875 42.75 
Q 14.984375 37.109375 14.984375 27.296875 
Q 14.984375 17.484375 19.15625 11.84375 
Q 23.34375 6.203125 30.609375 6.203125 
Q 37.796875 6.203125 41.984375 11.859375 
Q 46.1875 17.53125 46.1875 27.296875 
Q 46.1875 37.015625 41.984375 42.703125 
Q 37.796875 48.390625 30.609375 48.390625 
M 30.609375 56 
Q 42.328125 56 49.015625 48.375 
Q 55.71875 40.765625 55.71875 27.296875 
Q 55.71875 13.875 49.015625 6.21875 
Q 42.328125 -1.421875 30.609375 -1.421875 
Q 18.84375 -1.421875 12.171875 6.21875 
Q 5.515625 13.875 5.515625 27.296875 
Q 5.515625 40.765625 12.171875 48.375 
Q 18.84375 56 30.609375 56 
" id="DejaVuSans-6f"/>
       <path d="M 54.890625 33.015625 
L 54.890625 0 
L 45.90625 0 
L 45.90625 32.71875 
Q 45.90625 40.484375 42.875 44.328125 
Q 39.84375 48.1875 33.796875 48.1875 
Q 26.515625 48.1875 22.3125 43.546875 
Q 18.109375 38.921875 18.109375 30.90625 
L 18.109375 0 
L 9.078125 0 
L 9.078125 54.6875 
L 18.109375 54.6875 
L 18.109375 46.1875 
Q 21.34375 51.125 25.703125 53.5625 
Q 30.078125 56 35.796875 56 
Q 45.21875 56 50.046875 50.171875 
Q 54.890625 44.34375 54.890625 33.015625 
" id="DejaVuSans-6e"/>
      </defs>
      <g style="fill:#d2d2d2;" transform="translate(156.93875 262.9575)scale(0.16 -0.16)">
       <use xlink:href="#DejaVuSans-43"/>
       <use x="69.824219" xlink:href="#DejaVuSans-61"/>
       <use x="131.103516" xlink:href="#DejaVuSans-72"/>
       <use x="172.216797" xlink:href="#DejaVuSans-62"/>
       <use x="235.693359" xlink:href="#DejaVuSans-6f"/>
       <use x="296.875" xlink:href="#DejaVuSans-6e"/>
      </g>
      <!-- frame -->
      <g style="fill:#d2d2d2;" transform="translate(162.0375 280.874)scale(0.16 -0.16)">
       <use xlink:href="#DejaVuSans-66"/>
       <use x="35.205078" xlink:href="#DejaVuSans-72"/>
       <use x="76.318359" xlink:href="#DejaVuSans-61"/>
       <use x="137.597656" xlink:href="#DejaVuSans-6d"/>
       <use x="235.009766" xlink:href="#DejaVuSans-65"/>
      </g>
     </g>
    </g>
   </g>
   <g id="matplotlib.axis_2">
    <g id="ytick_1">
     <g id="line2d_3">
      <defs>
       <path d="M 0 0 
L -4 0 
" id="m994d198a87" style="stroke:#d2d2d2;"/>
      </defs>
      <g>
       <use style="fill:#d2d2d2;stroke:#d2d2d2;" x="56.16" xlink:href="#m994d198a87" y="220.819835"/>
      </g>
     </g>
     <g id="text_3">
      <!-- 100 -->
      <defs>
       <path d="M 12.40625 8.296875 
L 28.515625 8.296875 
L 28.515625 63.921875 
L 10.984375 60.40625 
L 10.984375 69.390625 
L 28.421875 72.90625 
L 38.28125 72.90625 
L 38.28125 8.296875 
L 54.390625 8.296875 
L 54.390625 0 
L 12.40625 0 
z
" id="DejaVuSans-31"/>
       <path d="M 31.78125 66.40625 
Q 24.171875 66.40625 20.328125 58.90625 
Q 16.5 51.421875 16.5 36.375 
Q 16.5 21.390625 20.328125 13.890625 
Q 24.171875 6.390625 31.78125 6.390625 
Q 39.453125 6.390625 43.28125 13.890625 
Q 47.125 21.390625 47.125 36.375 
Q 47.125 51.421875 43.28125 58.90625 
Q 39.453125 66.40625 31.78125 66.40625 
M 31.78125 74.21875 
Q 44.046875 74.21875 50.515625 64.515625 
Q 56.984375 54.828125 56.984375 36.375 
Q 56.984375 17.96875 50.515625 8.265625 
Q 44.046875 -1.421875 31.78125 -1.421875 
Q 19.53125 -1.421875 13.0625 8.265625 
Q 6.59375 17.96875 6.59375 36.375 
Q 6.59375 54.828125 13.0625 64.515625 
Q 19.53125 74.21875 31.78125 74.21875 
" id="DejaVuSans-30"/>
      </defs>
      <g style="fill:#d2d2d2;" transform="translate(23.34625 225.758819)scale(0.13 -0.13)">
       <use xlink:href="#DejaVuSans-31"/>
       <use x="63.623047" xlink:href="#DejaVuSans-30"/>
       <use x="127.246094" xlink:href="#DejaVuSans-30"/>
      </g>
     </g>
    </g>
    <g id="ytick_2">
     <g id="line2d_4">
      <g>
       <use style="fill:#d2d2d2;stroke:#d2d2d2;" x="56.16" xlink:href="#m994d198a87" y="187.667532"/>
      </g>
     </g>
     <g id="text_4">
      <!-- 105 -->
      <defs>
       <path d="M 10.796875 72.90625 
L 49.515625 72.90625 
L 49.515625 64.59375 
L 19.828125 64.59375 
L 19.828125 46.734375 
Q 21.96875 47.46875 24.109375 47.828125 
Q 26.265625 48.1875 28.421875 48.1875 
Q 40.625 48.1875 47.75 41.5 
Q 54.890625 34.8125 54.890625 23.390625 
Q 54.890625 11.625 47.5625 5.09375 
Q 40.234375 -1.421875 26.90625 -1.421875 
Q 22.3125 -1.421875 17.546875 -0.640625 
Q 12.796875 0.140625 7.71875 1.703125 
L 7.71875 11.625 
Q 12.109375 9.234375 16.796875 8.0625 
Q 21.484375 6.890625 26.703125 6.890625 
Q 35.15625 6.890625 40.078125 11.328125 
Q 45.015625 15.765625 45.015625 23.390625 
Q 45.015625 31 40.078125 35.4375 
Q 35.15625 39.890625 26.703125 39.890625 
Q 22.75 39.890625 18.8125 39.015625 
Q 14.890625 38.140625 10.796875 36.28125 
z
" id="DejaVuSans-35"/>
      </defs>
      <g style="fill:#d2d2d2;" transform="translate(23.34625 192.606516)scale(0.13 -0.13)">
       <use xlink:href="#DejaVuSans-31"/>
       <use x="63.623047" xlink:href="#DejaVuSans-30"/>
       <use x="127.246094" xlink:href="#DejaVuSans-35"/>
      </g>
     </g>
    </g>
    <g id="ytick_3">
     <g id="line2d_5">
      <g>
       <use style="fill:#d2d2d2;stroke:#d2d2d2;" x="56.16" xlink:href="#m994d198a87" y="154.515229"/>
      </g>
     </g>
     <g id="text_5">
      <!-- 110 -->
      <g style="fill:#d2d2d2;" transform="translate(23.34625 159.454214)scale(0.13 -0.13)">
       <use xlink:href="#DejaVuSans-31"/>
       <use x="63.623047" xlink:href="#DejaVuSans-31"/>
       <use x="127.246094" xlink:href="#DejaVuSans-30"/>
      </g>
     </g>
    </g>
    <g id="ytick_4">
     <g id="line2d_6">
      <g>
       <use style="fill:#d2d2d2;stroke:#d2d2d2;" x="56.16" xlink:href="#m994d198a87" y="121.362927"/>
      </g>
     </g>
     <g id="text_6">
      <!-- 115 -->
      <g style="fill:#d2d2d2;" transform="translate(23.34625 126.301911)scale(0.13 -0.13)">
       <use xlink:href="#DejaVuSans-31"/>
       <use x="63.623047" xlink:href="#DejaVuSans-31"/>
       <use x="127.246094" xlink:href="#DejaVuSans-35"/>
      </g>
     </g>
    </g>
    <g id="ytick_5">
     <g id="line2d_7">
      <g>
       <use style="fill:#d2d2d2;stroke:#d2d2d2;" x="56.16" xlink:href="#m994d198a87" y="88.210624"/>
      </g>
     </g>
     <g id="text_7">
      <!-- 120 -->
      <defs>
       <path d="M 19.1875 8.296875 
L 53.609375 8.296875 
L 53.609375 0 
L 7.328125 0 
L 7.328125 8.296875 
Q 12.9375 14.109375 22.625 23.890625 
Q 32.328125 33.6875 34.8125 36.53125 
Q 39.546875 41.84375 41.421875 45.53125 
Q 43.3125 49.21875 43.3125 52.78125 
Q 43.3125 58.59375 39.234375 62.25 
Q 35.15625 65.921875 28.609375 65.921875 
Q 23.96875 65.921875 18.8125 64.3125 
Q 13.671875 62.703125 7.8125 59.421875 
L 7.8125 69.390625 
Q 13.765625 71.78125 18.9375 73 
Q 24.125 74.21875 28.421875 74.21875 
Q 39.75 74.21875 46.484375 68.546875 
Q 53.21875 62.890625 53.21875 53.421875 
Q 53.21875 48.921875 51.53125 44.890625 
Q 49.859375 40.875 45.40625 35.40625 
Q 44.1875 33.984375 37.640625 27.21875 
Q 31.109375 20.453125 19.1875 8.296875 
" id="DejaVuSans-32"/>
      </defs>
      <g style="fill:#d2d2d2;" transform="translate(23.34625 93.149608)scale(0.13 -0.13)">
       <use xlink:href="#DejaVuSans-31"/>
       <use x="63.623047" xlink:href="#DejaVuSans-32"/>
       <use x="127.246094" xlink:href="#DejaVuSans-30"/>
      </g>
     </g>
    </g>
    <g id="text_8">
     <!-- Commuting time -->
     <defs>
      <path d="M 8.5 21.578125 
L 8.5 54.6875 
L 17.484375 54.6875 
L 17.484375 21.921875 
Q 17.484375 14.15625 20.5 10.265625 
Q 23.53125 6.390625 29.59375 6.390625 
Q 36.859375 6.390625 41.078125 11.03125 
Q 45.3125 15.671875 45.3125 23.6875 
L 45.3125 54.6875 
L 54.296875 54.6875 
L 54.296875 0 
L 45.3125 0 
L 45.3125 8.40625 
Q 42.046875 3.421875 37.71875 1 
Q 33.40625 -1.421875 27.6875 -1.421875 
Q 18.265625 -1.421875 13.375 4.4375 
Q 8.5 10.296875 8.5 21.578125 
M 31.109375 56 
z
" id="DejaVuSans-75"/>
      <path d="M 9.421875 54.6875 
L 18.40625 54.6875 
L 18.40625 0 
L 9.421875 0 
z
M 9.421875 75.984375 
L 18.40625 75.984375 
L 18.40625 64.59375 
L 9.421875 64.59375 
z
" id="DejaVuSans-69"/>
      <path d="M 45.40625 27.984375 
Q 45.40625 37.75 41.375 43.109375 
Q 37.359375 48.484375 30.078125 48.484375 
Q 22.859375 48.484375 18.828125 43.109375 
Q 14.796875 37.75 14.796875 27.984375 
Q 14.796875 18.265625 18.828125 12.890625 
Q 22.859375 7.515625 30.078125 7.515625 
Q 37.359375 7.515625 41.375 12.890625 
Q 45.40625 18.265625 45.40625 27.984375 
M 54.390625 6.78125 
Q 54.390625 -7.171875 48.1875 -13.984375 
Q 42 -20.796875 29.203125 -20.796875 
Q 24.46875 -20.796875 20.265625 -20.09375 
Q 16.0625 -19.390625 12.109375 -17.921875 
L 12.109375 -9.1875 
Q 16.0625 -11.328125 19.921875 -12.34375 
Q 23.78125 -13.375 27.78125 -13.375 
Q 36.625 -13.375 41.015625 -8.765625 
Q 45.40625 -4.15625 45.40625 5.171875 
L 45.40625 9.625 
Q 42.625 4.78125 38.28125 2.390625 
Q 33.9375 0 27.875 0 
Q 17.828125 0 11.671875 7.65625 
Q 5.515625 15.328125 5.515625 27.984375 
Q 5.515625 40.671875 11.671875 48.328125 
Q 17.828125 56 27.875 56 
Q 33.9375 56 38.28125 53.609375 
Q 42.625 51.21875 45.40625 46.390625 
L 45.40625 54.6875 
L 54.390625 54.6875 
z
" id="DejaVuSans-67"/>
      <path id="DejaVuSans-20"/>
     </defs>
     <g style="fill:#d2d2d2;" transform="translate(15.602812 226.8675)rotate(-90)scale(0.18 -0.18)">
      <use xlink:href="#DejaVuSans-43"/>
      <use x="69.824219" xlink:href="#DejaVuSans-6f"/>
      <use x="131.005859" xlink:href="#DejaVuSans-6d"/>
      <use x="228.417969" xlink:href="#DejaVuSans-6d"/>
      <use x="325.830078" xlink:href="#DejaVuSans-75"/>
      <use x="389.208984" xlink:href="#DejaVuSans-74"/>
      <use x="428.417969" xlink:href="#DejaVuSans-69"/>
      <use x="456.201172" xlink:href="#DejaVuSans-6e"/>
      <use x="519.580078" xlink:href="#DejaVuSans-67"/>
      <use x="583.056641" xlink:href="#DejaVuSans-20"/>
      <use x="614.84375" xlink:href="#DejaVuSans-74"/>
      <use x="654.052734" xlink:href="#DejaVuSans-69"/>
      <use x="681.835938" xlink:href="#DejaVuSans-6d"/>
      <use x="779.248047" xlink:href="#DejaVuSans-65"/>
     </g>
    </g>
   </g>
   <g id="line2d_8">
    <path clip-path="url(#p1a06e94c39)" d="M 92.88 189.822432 
L 105.84 189.822432 
L 105.84 146.254779 
L 92.88 146.254779 
L 92.88 189.822432 
" style="fill:none;stroke:#d2d2d2;stroke-linecap:square;stroke-width:2;"/>
   </g>
   <g id="line2d_9">
    <path clip-path="url(#p1a06e94c39)" d="M 99.36 189.822432 
L 99.36 236.290909 
" style="fill:none;stroke:#d2d2d2;stroke-linecap:square;stroke-width:2;"/>
   </g>
   <g id="line2d_10">
    <path clip-path="url(#p1a06e94c39)" d="M 99.36 146.254779 
L 99.36 103.23967 
" style="fill:none;stroke:#d2d2d2;stroke-linecap:square;stroke-width:2;"/>
   </g>
   <g id="line2d_11">
    <path clip-path="url(#p1a06e94c39)" d="M 96.12 236.290909 
L 102.6 236.290909 
" style="fill:none;stroke:#d2d2d2;stroke-linecap:square;stroke-width:2;"/>
   </g>
   <g id="line2d_12">
    <path clip-path="url(#p1a06e94c39)" d="M 96.12 103.23967 
L 102.6 103.23967 
" style="fill:none;stroke:#d2d2d2;stroke-linecap:square;stroke-width:2;"/>
   </g>
   <g id="line2d_13"/>
   <g id="line2d_14">
    <path clip-path="url(#p1a06e94c39)" d="M 179.28 202.337426 
L 192.24 202.337426 
L 192.24 138.049586 
L 179.28 138.049586 
L 179.28 202.337426 
" style="fill:none;stroke:#d2d2d2;stroke-linecap:square;stroke-width:2;"/>
   </g>
   <g id="line2d_15">
    <path clip-path="url(#p1a06e94c39)" d="M 185.76 202.337426 
L 185.76 220.267299 
" style="fill:none;stroke:#d2d2d2;stroke-linecap:square;stroke-width:2;"/>
   </g>
   <g id="line2d_16">
    <path clip-path="url(#p1a06e94c39)" d="M 185.76 138.049586 
L 185.76 66.109091 
" style="fill:none;stroke:#d2d2d2;stroke-linecap:square;stroke-width:2;"/>
   </g>
   <g id="line2d_17">
    <path clip-path="url(#p1a06e94c39)" d="M 182.52 220.267299 
L 189 220.267299 
" style="fill:none;stroke:#d2d2d2;stroke-linecap:square;stroke-width:2;"/>
   </g>
   <g id="line2d_18">
    <path clip-path="url(#p1a06e94c39)" d="M 182.52 66.109091 
L 189 66.109091 
" style="fill:none;stroke:#d2d2d2;stroke-linecap:square;stroke-width:2;"/>
   </g>
   <g id="line2d_19"/>
   <g id="line2d_20">
    <path clip-path="url(#p1a06e94c39)" d="M 92.88 170.815113 
L 105.84 170.815113 
" style="fill:none;stroke:#f0ad4e;stroke-linecap:square;stroke-width:2;"/>
   </g>
   <g id="line2d_21">
    <path clip-path="url(#p1a06e94c39)" d="M 179.28 169.710036 
L 192.24 169.710036 
" style="fill:none;stroke:#5bc0de;stroke-linecap:square;stroke-width:2;"/>
   </g>
   <g id="patch_3">
    <path d="M 56.16 244.8 
L 56.16 57.6 
" style="fill:none;stroke:#d2d2d2;stroke-linecap:square;stroke-linejoin:miter;"/>
   </g>
   <g id="patch_4">
    <path d="M 56.16 244.8 
L 228.96 244.8 
" style="fill:none;stroke:#d2d2d2;stroke-linecap:square;stroke-linejoin:miter;"/>
   </g>
   <g id="text_9">
    <!-- Boxplot -->
    <defs>
     <path d="M 19.671875 34.8125 
L 19.671875 8.109375 
L 35.5 8.109375 
Q 43.453125 8.109375 47.28125 11.40625 
Q 51.125 14.703125 51.125 21.484375 
Q 51.125 28.328125 47.28125 31.5625 
Q 43.453125 34.8125 35.5 34.8125 
z
M 19.671875 64.796875 
L 19.671875 42.828125 
L 34.28125 42.828125 
Q 41.5 42.828125 45.03125 45.53125 
Q 48.578125 48.25 48.578125 53.8125 
Q 48.578125 59.328125 45.03125 62.0625 
Q 41.5 64.796875 34.28125 64.796875 
z
M 9.8125 72.90625 
L 35.015625 72.90625 
Q 46.296875 72.90625 52.390625 68.21875 
Q 58.5 63.53125 58.5 54.890625 
Q 58.5 48.1875 55.375 44.234375 
Q 52.25 40.28125 46.1875 39.3125 
Q 53.46875 37.75 57.5 32.78125 
Q 61.53125 27.828125 61.53125 20.40625 
Q 61.53125 10.640625 54.890625 5.3125 
Q 48.25 0 35.984375 0 
L 9.8125 0 
z
" id="DejaVuSans-42"/>
     <path d="M 54.890625 54.6875 
L 35.109375 28.078125 
L 55.90625 0 
L 45.3125 0 
L 29.390625 21.484375 
L 13.484375 0 
L 2.875 0 
L 24.125 28.609375 
L 4.6875 54.6875 
L 15.28125 54.6875 
L 29.78125 35.203125 
L 44.28125 54.6875 
z
" id="DejaVuSans-78"/>
     <path d="M 18.109375 8.203125 
L 18.109375 -20.796875 
L 9.078125 -20.796875 
L 9.078125 54.6875 
L 18.109375 54.6875 
L 18.109375 46.390625 
Q 20.953125 51.265625 25.265625 53.625 
Q 29.59375 56 35.59375 56 
Q 45.5625 56 51.78125 48.09375 
Q 58.015625 40.1875 58.015625 27.296875 
Q 58.015625 14.40625 51.78125 6.484375 
Q 45.5625 -1.421875 35.59375 -1.421875 
Q 29.59375 -1.421875 25.265625 0.953125 
Q 20.953125 3.328125 18.109375 8.203125 
M 48.6875 27.296875 
Q 48.6875 37.203125 44.609375 42.84375 
Q 40.53125 48.484375 33.40625 48.484375 
Q 26.265625 48.484375 22.1875 42.84375 
Q 18.109375 37.203125 18.109375 27.296875 
Q 18.109375 17.390625 22.1875 11.75 
Q 26.265625 6.109375 33.40625 6.109375 
Q 40.53125 6.109375 44.609375 11.75 
Q 48.6875 17.390625 48.6875 27.296875 
" id="DejaVuSans-70"/>
    </defs>
    <g style="fill:#d2d2d2;" transform="translate(112.1125 33.6835)scale(0.16 -0.16)">
     <use xlink:href="#DejaVuSans-42"/>
     <use x="68.603516" xlink:href="#DejaVuSans-6f"/>
     <use x="129.738281" xlink:href="#DejaVuSans-78"/>
     <use x="188.917969" xlink:href="#DejaVuSans-70"/>
     <use x="252.394531" xlink:href="#DejaVuSans-6c"/>
     <use x="280.177734" xlink:href="#DejaVuSans-6f"/>
     <use x="341.359375" xlink:href="#DejaVuSans-74"/>
    </g>
    <!-- of the samples -->
    <defs>
     <path d="M 54.890625 33.015625 
L 54.890625 0 
L 45.90625 0 
L 45.90625 32.71875 
Q 45.90625 40.484375 42.875 44.328125 
Q 39.84375 48.1875 33.796875 48.1875 
Q 26.515625 48.1875 22.3125 43.546875 
Q 18.109375 38.921875 18.109375 30.90625 
L 18.109375 0 
L 9.078125 0 
L 9.078125 75.984375 
L 18.109375 75.984375 
L 18.109375 46.1875 
Q 21.34375 51.125 25.703125 53.5625 
Q 30.078125 56 35.796875 56 
Q 45.21875 56 50.046875 50.171875 
Q 54.890625 44.34375 54.890625 33.015625 
" id="DejaVuSans-68"/>
     <path d="M 44.28125 53.078125 
L 44.28125 44.578125 
Q 40.484375 46.53125 36.375 47.5 
Q 32.28125 48.484375 27.875 48.484375 
Q 21.1875 48.484375 17.84375 46.4375 
Q 14.5 44.390625 14.5 40.28125 
Q 14.5 37.15625 16.890625 35.375 
Q 19.28125 33.59375 26.515625 31.984375 
L 29.59375 31.296875 
Q 39.15625 29.25 43.1875 25.515625 
Q 47.21875 21.78125 47.21875 15.09375 
Q 47.21875 7.46875 41.1875 3.015625 
Q 35.15625 -1.421875 24.609375 -1.421875 
Q 20.21875 -1.421875 15.453125 -0.5625 
Q 10.6875 0.296875 5.421875 2 
L 5.421875 11.28125 
Q 10.40625 8.6875 15.234375 7.390625 
Q 20.0625 6.109375 24.8125 6.109375 
Q 31.15625 6.109375 34.5625 8.28125 
Q 37.984375 10.453125 37.984375 14.40625 
Q 37.984375 18.0625 35.515625 20.015625 
Q 33.0625 21.96875 24.703125 23.78125 
L 21.578125 24.515625 
Q 13.234375 26.265625 9.515625 29.90625 
Q 5.8125 33.546875 5.8125 39.890625 
Q 5.8125 47.609375 11.28125 51.796875 
Q 16.75 56 26.8125 56 
Q 31.78125 56 36.171875 55.265625 
Q 40.578125 54.546875 44.28125 53.078125 
" id="DejaVuSans-73"/>
    </defs>
    <g style="fill:#d2d2d2;" transform="translate(83.38125 51.6)scale(0.16 -0.16)">
     <use xlink:href="#DejaVuSans-6f"/>
     <use x="61.181641" xlink:href="#DejaVuSans-66"/>
     <use x="96.386719" xlink:href="#DejaVuSans-20"/>
     <use x="128.173828" xlink:href="#DejaVuSans-74"/>
     <use x="167.382812" xlink:href="#DejaVuSans-68"/>
     <use x="230.761719" xlink:href="#DejaVuSans-65"/>
     <use x="292.285156" xlink:href="#DejaVuSans-20"/>
     <use x="324.072266" xlink:href="#DejaVuSans-73"/>
     <use x="376.171875" xlink:href="#DejaVuSans-61"/>
     <use x="437.451172" xlink:href="#DejaVuSans-6d"/>
     <use x="534.863281" xlink:href="#DejaVuSans-70"/>
     <use x="598.339844" xlink:href="#DejaVuSans-6c"/>
     <use x="626.123047" xlink:href="#DejaVuSans-65"/>
     <use x="687.646484" xlink:href="#DejaVuSans-73"/>
    </g>
   </g>
  </g>
  <g id="axes_2">
   <g id="patch_5">
    <path d="M 272.16 244.8 
L 565.92 244.8 
L 565.92 57.6 
L 272.16 57.6 
z
" style="fill:none;"/>
   </g>
   <g id="patch_6">
    <path clip-path="url(#p039f1bfd16)" d="M 324 244.8 
L 339.84 244.8 
L 339.84 224.990476 
L 324 224.990476 
z
" style="fill:#f0ad4e;opacity:0.9;"/>
   </g>
   <g id="patch_7">
    <path clip-path="url(#p039f1bfd16)" d="M 339.84 244.8 
L 355.68 244.8 
L 355.68 185.371429 
L 339.84 185.371429 
z
" style="fill:#f0ad4e;opacity:0.9;"/>
   </g>
   <g id="patch_8">
    <path clip-path="url(#p039f1bfd16)" d="M 355.68 244.8 
L 371.52 244.8 
L 371.52 185.371429 
L 355.68 185.371429 
z
" style="fill:#f0ad4e;opacity:0.9;"/>
   </g>
   <g id="patch_9">
    <path clip-path="url(#p039f1bfd16)" d="M 371.52 244.8 
L 387.36 244.8 
L 387.36 125.942857 
L 371.52 125.942857 
z
" style="fill:#f0ad4e;opacity:0.9;"/>
   </g>
   <g id="patch_10">
    <path clip-path="url(#p039f1bfd16)" d="M 387.36 244.8 
L 403.2 244.8 
L 403.2 185.371429 
L 387.36 185.371429 
z
" style="fill:#f0ad4e;opacity:0.9;"/>
   </g>
   <g id="patch_11">
    <path clip-path="url(#p039f1bfd16)" d="M 403.2 244.8 
L 419.04 244.8 
L 419.04 145.752381 
L 403.2 145.752381 
z
" style="fill:#f0ad4e;opacity:0.9;"/>
   </g>
   <g id="patch_12">
    <path clip-path="url(#p039f1bfd16)" d="M 419.04 244.8 
L 434.88 244.8 
L 434.88 165.561905 
L 419.04 165.561905 
z
" style="fill:#f0ad4e;opacity:0.9;"/>
   </g>
   <g id="patch_13">
    <path clip-path="url(#p039f1bfd16)" d="M 434.88 244.8 
L 450.72 244.8 
L 450.72 205.180952 
L 434.88 205.180952 
z
" style="fill:#f0ad4e;opacity:0.9;"/>
   </g>
   <g id="patch_14">
    <path clip-path="url(#p039f1bfd16)" d="M 450.72 244.8 
L 466.56 244.8 
L 466.56 205.180952 
L 450.72 205.180952 
z
" style="fill:#f0ad4e;opacity:0.9;"/>
   </g>
   <g id="patch_15">
    <path clip-path="url(#p039f1bfd16)" d="M 466.56 244.8 
L 482.4 244.8 
L 482.4 224.990476 
L 466.56 224.990476 
z
" style="fill:#f0ad4e;opacity:0.9;"/>
   </g>
   <g id="patch_16">
    <path clip-path="url(#p039f1bfd16)" d="M 482.4 244.8 
L 498.24 244.8 
L 498.24 244.8 
L 482.4 244.8 
z
" style="fill:#f0ad4e;opacity:0.9;"/>
   </g>
   <g id="patch_17">
    <path clip-path="url(#p039f1bfd16)" d="M 498.24 244.8 
L 514.08 244.8 
L 514.08 244.8 
L 498.24 244.8 
z
" style="fill:#f0ad4e;opacity:0.9;"/>
   </g>
   <g id="patch_18">
    <path clip-path="url(#p039f1bfd16)" d="M 324 224.990476 
L 339.84 224.990476 
L 339.84 224.990476 
L 324 224.990476 
z
" style="fill:#5bc0de;opacity:0.9;"/>
   </g>
   <g id="patch_19">
    <path clip-path="url(#p039f1bfd16)" d="M 339.84 185.371429 
L 355.68 185.371429 
L 355.68 86.32381 
L 339.84 86.32381 
z
" style="fill:#5bc0de;opacity:0.9;"/>
   </g>
   <g id="patch_20">
    <path clip-path="url(#p039f1bfd16)" d="M 355.68 185.371429 
L 371.52 185.371429 
L 371.52 106.133333 
L 355.68 106.133333 
z
" style="fill:#5bc0de;opacity:0.9;"/>
   </g>
   <g id="patch_21">
    <path clip-path="url(#p039f1bfd16)" d="M 371.52 125.942857 
L 387.36 125.942857 
L 387.36 66.514286 
L 371.52 66.514286 
z
" style="fill:#5bc0de;opacity:0.9;"/>
   </g>
   <g id="patch_22">
    <path clip-path="url(#p039f1bfd16)" d="M 387.36 185.371429 
L 403.2 185.371429 
L 403.2 145.752381 
L 387.36 145.752381 
z
" style="fill:#5bc0de;opacity:0.9;"/>
   </g>
   <g id="patch_23">
    <path clip-path="url(#p039f1bfd16)" d="M 403.2 145.752381 
L 419.04 145.752381 
L 419.04 106.133333 
L 403.2 106.133333 
z
" style="fill:#5bc0de;opacity:0.9;"/>
   </g>
   <g id="patch_24">
    <path clip-path="url(#p039f1bfd16)" d="M 419.04 165.561905 
L 434.88 165.561905 
L 434.88 66.514286 
L 419.04 66.514286 
z
" style="fill:#5bc0de;opacity:0.9;"/>
   </g>
   <g id="patch_25">
    <path clip-path="url(#p039f1bfd16)" d="M 434.88 205.180952 
L 450.72 205.180952 
L 450.72 185.371429 
L 434.88 185.371429 
z
" style="fill:#5bc0de;opacity:0.9;"/>
   </g>
   <g id="patch_26">
    <path clip-path="url(#p039f1bfd16)" d="M 450.72 205.180952 
L 466.56 205.180952 
L 466.56 185.371429 
L 450.72 185.371429 
z
" style="fill:#5bc0de;opacity:0.9;"/>
   </g>
   <g id="patch_27">
    <path clip-path="url(#p039f1bfd16)" d="M 466.56 224.990476 
L 482.4 224.990476 
L 482.4 205.180952 
L 466.56 205.180952 
z
" style="fill:#5bc0de;opacity:0.9;"/>
   </g>
   <g id="patch_28">
    <path clip-path="url(#p039f1bfd16)" d="M 482.4 244.8 
L 498.24 244.8 
L 498.24 224.990476 
L 482.4 224.990476 
z
" style="fill:#5bc0de;opacity:0.9;"/>
   </g>
   <g id="patch_29">
    <path clip-path="url(#p039f1bfd16)" d="M 498.24 244.8 
L 514.08 244.8 
L 514.08 224.990476 
L 498.24 224.990476 
z
" style="fill:#5bc0de;opacity:0.9;"/>
   </g>
   <g id="matplotlib.axis_3">
    <g id="xtick_3">
     <g id="line2d_22"/>
     <g id="text_10">
      <!-- 95 -->
      <defs>
       <path d="M 10.984375 1.515625 
L 10.984375 10.5 
Q 14.703125 8.734375 18.5 7.8125 
Q 22.3125 6.890625 25.984375 6.890625 
Q 35.75 6.890625 40.890625 13.453125 
Q 46.046875 20.015625 46.78125 33.40625 
Q 43.953125 29.203125 39.59375 26.953125 
Q 35.25 24.703125 29.984375 24.703125 
Q 19.046875 24.703125 12.671875 31.3125 
Q 6.296875 37.9375 6.296875 49.421875 
Q 6.296875 60.640625 12.9375 67.421875 
Q 19.578125 74.21875 30.609375 74.21875 
Q 43.265625 74.21875 49.921875 64.515625 
Q 56.59375 54.828125 56.59375 36.375 
Q 56.59375 19.140625 48.40625 8.859375 
Q 40.234375 -1.421875 26.421875 -1.421875 
Q 22.703125 -1.421875 18.890625 -0.6875 
Q 15.09375 0.046875 10.984375 1.515625 
M 30.609375 32.421875 
Q 37.25 32.421875 41.125 36.953125 
Q 45.015625 41.5 45.015625 49.421875 
Q 45.015625 57.28125 41.125 61.84375 
Q 37.25 66.40625 30.609375 66.40625 
Q 23.96875 66.40625 20.09375 61.84375 
Q 16.21875 57.28125 16.21875 49.421875 
Q 16.21875 41.5 20.09375 36.953125 
Q 23.96875 32.421875 30.609375 32.421875 
" id="DejaVuSans-39"/>
      </defs>
      <g style="fill:#d2d2d2;" transform="translate(294.071429 262.9575)scale(0.16 -0.16)">
       <use xlink:href="#DejaVuSans-39"/>
       <use x="63.623047" xlink:href="#DejaVuSans-35"/>
      </g>
     </g>
    </g>
    <g id="xtick_4">
     <g id="line2d_23"/>
     <g id="text_11">
      <!-- 100 -->
      <g style="fill:#d2d2d2;" transform="translate(326.01 262.9575)scale(0.16 -0.16)">
       <use xlink:href="#DejaVuSans-31"/>
       <use x="63.623047" xlink:href="#DejaVuSans-30"/>
       <use x="127.246094" xlink:href="#DejaVuSans-30"/>
      </g>
     </g>
    </g>
    <g id="xtick_5">
     <g id="line2d_24"/>
     <g id="text_12">
      <!-- 105 -->
      <g style="fill:#d2d2d2;" transform="translate(363.038572 262.9575)scale(0.16 -0.16)">
       <use xlink:href="#DejaVuSans-31"/>
       <use x="63.623047" xlink:href="#DejaVuSans-30"/>
       <use x="127.246094" xlink:href="#DejaVuSans-35"/>
      </g>
     </g>
    </g>
    <g id="xtick_6">
     <g id="line2d_25"/>
     <g id="text_13">
      <!-- 110 -->
      <g style="fill:#d2d2d2;" transform="translate(400.067144 262.9575)scale(0.16 -0.16)">
       <use xlink:href="#DejaVuSans-31"/>
       <use x="63.623047" xlink:href="#DejaVuSans-31"/>
       <use x="127.246094" xlink:href="#DejaVuSans-30"/>
      </g>
     </g>
    </g>
    <g id="xtick_7">
     <g id="line2d_26"/>
     <g id="text_14">
      <!-- 115 -->
      <g style="fill:#d2d2d2;" transform="translate(437.095716 262.9575)scale(0.16 -0.16)">
       <use xlink:href="#DejaVuSans-31"/>
       <use x="63.623047" xlink:href="#DejaVuSans-31"/>
       <use x="127.246094" xlink:href="#DejaVuSans-35"/>
      </g>
     </g>
    </g>
    <g id="xtick_8">
     <g id="line2d_27"/>
     <g id="text_15">
      <!-- 120 -->
      <g style="fill:#d2d2d2;" transform="translate(474.124287 262.9575)scale(0.16 -0.16)">
       <use xlink:href="#DejaVuSans-31"/>
       <use x="63.623047" xlink:href="#DejaVuSans-32"/>
       <use x="127.246094" xlink:href="#DejaVuSans-30"/>
      </g>
     </g>
    </g>
    <g id="xtick_9">
     <g id="line2d_28"/>
     <g id="text_16">
      <!-- 125 -->
      <g style="fill:#d2d2d2;" transform="translate(511.152859 262.9575)scale(0.16 -0.16)">
       <use xlink:href="#DejaVuSans-31"/>
       <use x="63.623047" xlink:href="#DejaVuSans-32"/>
       <use x="127.246094" xlink:href="#DejaVuSans-35"/>
      </g>
     </g>
    </g>
    <g id="xtick_10">
     <g id="line2d_29"/>
     <g id="text_17">
      <!-- 130 -->
      <defs>
       <path d="M 40.578125 39.3125 
Q 47.65625 37.796875 51.625 33 
Q 55.609375 28.21875 55.609375 21.1875 
Q 55.609375 10.40625 48.1875 4.484375 
Q 40.765625 -1.421875 27.09375 -1.421875 
Q 22.515625 -1.421875 17.65625 -0.515625 
Q 12.796875 0.390625 7.625 2.203125 
L 7.625 11.71875 
Q 11.71875 9.328125 16.59375 8.109375 
Q 21.484375 6.890625 26.8125 6.890625 
Q 36.078125 6.890625 40.9375 10.546875 
Q 45.796875 14.203125 45.796875 21.1875 
Q 45.796875 27.640625 41.28125 31.265625 
Q 36.765625 34.90625 28.71875 34.90625 
L 20.21875 34.90625 
L 20.21875 43.015625 
L 29.109375 43.015625 
Q 36.375 43.015625 40.234375 45.921875 
Q 44.09375 48.828125 44.09375 54.296875 
Q 44.09375 59.90625 40.109375 62.90625 
Q 36.140625 65.921875 28.71875 65.921875 
Q 24.65625 65.921875 20.015625 65.03125 
Q 15.375 64.15625 9.8125 62.3125 
L 9.8125 71.09375 
Q 15.4375 72.65625 20.34375 73.4375 
Q 25.25 74.21875 29.59375 74.21875 
Q 40.828125 74.21875 47.359375 69.109375 
Q 53.90625 64.015625 53.90625 55.328125 
Q 53.90625 49.265625 50.4375 45.09375 
Q 46.96875 40.921875 40.578125 39.3125 
" id="DejaVuSans-33"/>
      </defs>
      <g style="fill:#d2d2d2;" transform="translate(548.181431 262.9575)scale(0.16 -0.16)">
       <use xlink:href="#DejaVuSans-31"/>
       <use x="63.623047" xlink:href="#DejaVuSans-33"/>
       <use x="127.246094" xlink:href="#DejaVuSans-30"/>
      </g>
     </g>
    </g>
    <g id="text_18">
     <!-- Commuting time -->
     <g style="fill:#d2d2d2;" transform="translate(343.3725 283.962188)scale(0.18 -0.18)">
      <use xlink:href="#DejaVuSans-43"/>
      <use x="69.824219" xlink:href="#DejaVuSans-6f"/>
      <use x="131.005859" xlink:href="#DejaVuSans-6d"/>
      <use x="228.417969" xlink:href="#DejaVuSans-6d"/>
      <use x="325.830078" xlink:href="#DejaVuSans-75"/>
      <use x="389.208984" xlink:href="#DejaVuSans-74"/>
      <use x="428.417969" xlink:href="#DejaVuSans-69"/>
      <use x="456.201172" xlink:href="#DejaVuSans-6e"/>
      <use x="519.580078" xlink:href="#DejaVuSans-67"/>
      <use x="583.056641" xlink:href="#DejaVuSans-20"/>
      <use x="614.84375" xlink:href="#DejaVuSans-74"/>
      <use x="654.052734" xlink:href="#DejaVuSans-69"/>
      <use x="681.835938" xlink:href="#DejaVuSans-6d"/>
      <use x="779.248047" xlink:href="#DejaVuSans-65"/>
     </g>
    </g>
   </g>
   <g id="matplotlib.axis_4">
    <g id="ytick_6">
     <g id="line2d_30">
      <g>
       <use style="fill:#d2d2d2;stroke:#d2d2d2;" x="272.16" xlink:href="#m994d198a87" y="244.8"/>
      </g>
     </g>
     <g id="text_19">
      <!-- 0 -->
      <g style="fill:#d2d2d2;" transform="translate(255.88875 249.738984)scale(0.13 -0.13)">
       <use xlink:href="#DejaVuSans-30"/>
      </g>
     </g>
    </g>
    <g id="ytick_7">
     <g id="line2d_31">
      <g>
       <use style="fill:#d2d2d2;stroke:#d2d2d2;" x="272.16" xlink:href="#m994d198a87" y="205.180952"/>
      </g>
     </g>
     <g id="text_20">
      <!-- 2 -->
      <g style="fill:#d2d2d2;" transform="translate(255.88875 210.119937)scale(0.13 -0.13)">
       <use xlink:href="#DejaVuSans-32"/>
      </g>
     </g>
    </g>
    <g id="ytick_8">
     <g id="line2d_32">
      <g>
       <use style="fill:#d2d2d2;stroke:#d2d2d2;" x="272.16" xlink:href="#m994d198a87" y="165.561905"/>
      </g>
     </g>
     <g id="text_21">
      <!-- 4 -->
      <defs>
       <path d="M 37.796875 64.3125 
L 12.890625 25.390625 
L 37.796875 25.390625 
z
M 35.203125 72.90625 
L 47.609375 72.90625 
L 47.609375 25.390625 
L 58.015625 25.390625 
L 58.015625 17.1875 
L 47.609375 17.1875 
L 47.609375 0 
L 37.796875 0 
L 37.796875 17.1875 
L 4.890625 17.1875 
L 4.890625 26.703125 
z
" id="DejaVuSans-34"/>
      </defs>
      <g style="fill:#d2d2d2;" transform="translate(255.88875 170.500889)scale(0.13 -0.13)">
       <use xlink:href="#DejaVuSans-34"/>
      </g>
     </g>
    </g>
    <g id="ytick_9">
     <g id="line2d_33">
      <g>
       <use style="fill:#d2d2d2;stroke:#d2d2d2;" x="272.16" xlink:href="#m994d198a87" y="125.942857"/>
      </g>
     </g>
     <g id="text_22">
      <!-- 6 -->
      <defs>
       <path d="M 33.015625 40.375 
Q 26.375 40.375 22.484375 35.828125 
Q 18.609375 31.296875 18.609375 23.390625 
Q 18.609375 15.53125 22.484375 10.953125 
Q 26.375 6.390625 33.015625 6.390625 
Q 39.65625 6.390625 43.53125 10.953125 
Q 47.40625 15.53125 47.40625 23.390625 
Q 47.40625 31.296875 43.53125 35.828125 
Q 39.65625 40.375 33.015625 40.375 
M 52.59375 71.296875 
L 52.59375 62.3125 
Q 48.875 64.0625 45.09375 64.984375 
Q 41.3125 65.921875 37.59375 65.921875 
Q 27.828125 65.921875 22.671875 59.328125 
Q 17.53125 52.734375 16.796875 39.40625 
Q 19.671875 43.65625 24.015625 45.921875 
Q 28.375 48.1875 33.59375 48.1875 
Q 44.578125 48.1875 50.953125 41.515625 
Q 57.328125 34.859375 57.328125 23.390625 
Q 57.328125 12.15625 50.6875 5.359375 
Q 44.046875 -1.421875 33.015625 -1.421875 
Q 20.359375 -1.421875 13.671875 8.265625 
Q 6.984375 17.96875 6.984375 36.375 
Q 6.984375 53.65625 15.1875 63.9375 
Q 23.390625 74.21875 37.203125 74.21875 
Q 40.921875 74.21875 44.703125 73.484375 
Q 48.484375 72.75 52.59375 71.296875 
" id="DejaVuSans-36"/>
      </defs>
      <g style="fill:#d2d2d2;" transform="translate(255.88875 130.881842)scale(0.13 -0.13)">
       <use xlink:href="#DejaVuSans-36"/>
      </g>
     </g>
    </g>
    <g id="ytick_10">
     <g id="line2d_34">
      <g>
       <use style="fill:#d2d2d2;stroke:#d2d2d2;" x="272.16" xlink:href="#m994d198a87" y="86.32381"/>
      </g>
     </g>
     <g id="text_23">
      <!-- 8 -->
      <defs>
       <path d="M 31.78125 34.625 
Q 24.75 34.625 20.71875 30.859375 
Q 16.703125 27.09375 16.703125 20.515625 
Q 16.703125 13.921875 20.71875 10.15625 
Q 24.75 6.390625 31.78125 6.390625 
Q 38.8125 6.390625 42.859375 10.171875 
Q 46.921875 13.96875 46.921875 20.515625 
Q 46.921875 27.09375 42.890625 30.859375 
Q 38.875 34.625 31.78125 34.625 
M 21.921875 38.8125 
Q 15.578125 40.375 12.03125 44.71875 
Q 8.5 49.078125 8.5 55.328125 
Q 8.5 64.0625 14.71875 69.140625 
Q 20.953125 74.21875 31.78125 74.21875 
Q 42.671875 74.21875 48.875 69.140625 
Q 55.078125 64.0625 55.078125 55.328125 
Q 55.078125 49.078125 51.53125 44.71875 
Q 48 40.375 41.703125 38.8125 
Q 48.828125 37.15625 52.796875 32.3125 
Q 56.78125 27.484375 56.78125 20.515625 
Q 56.78125 9.90625 50.3125 4.234375 
Q 43.84375 -1.421875 31.78125 -1.421875 
Q 19.734375 -1.421875 13.25 4.234375 
Q 6.78125 9.90625 6.78125 20.515625 
Q 6.78125 27.484375 10.78125 32.3125 
Q 14.796875 37.15625 21.921875 38.8125 
M 18.3125 54.390625 
Q 18.3125 48.734375 21.84375 45.5625 
Q 25.390625 42.390625 31.78125 42.390625 
Q 38.140625 42.390625 41.71875 45.5625 
Q 45.3125 48.734375 45.3125 54.390625 
Q 45.3125 60.0625 41.71875 63.234375 
Q 38.140625 66.40625 31.78125 66.40625 
Q 25.390625 66.40625 21.84375 63.234375 
Q 18.3125 60.0625 18.3125 54.390625 
" id="DejaVuSans-38"/>
      </defs>
      <g style="fill:#d2d2d2;" transform="translate(255.88875 91.262794)scale(0.13 -0.13)">
       <use xlink:href="#DejaVuSans-38"/>
      </g>
     </g>
    </g>
    <g id="text_24">
     <!-- Frequency -->
     <defs>
      <path d="M 9.8125 72.90625 
L 51.703125 72.90625 
L 51.703125 64.59375 
L 19.671875 64.59375 
L 19.671875 43.109375 
L 48.578125 43.109375 
L 48.578125 34.8125 
L 19.671875 34.8125 
L 19.671875 0 
L 9.8125 0 
z
" id="DejaVuSans-46"/>
      <path d="M 14.796875 27.296875 
Q 14.796875 17.390625 18.875 11.75 
Q 22.953125 6.109375 30.078125 6.109375 
Q 37.203125 6.109375 41.296875 11.75 
Q 45.40625 17.390625 45.40625 27.296875 
Q 45.40625 37.203125 41.296875 42.84375 
Q 37.203125 48.484375 30.078125 48.484375 
Q 22.953125 48.484375 18.875 42.84375 
Q 14.796875 37.203125 14.796875 27.296875 
M 45.40625 8.203125 
Q 42.578125 3.328125 38.25 0.953125 
Q 33.9375 -1.421875 27.875 -1.421875 
Q 17.96875 -1.421875 11.734375 6.484375 
Q 5.515625 14.40625 5.515625 27.296875 
Q 5.515625 40.1875 11.734375 48.09375 
Q 17.96875 56 27.875 56 
Q 33.9375 56 38.25 53.625 
Q 42.578125 51.265625 45.40625 46.390625 
L 45.40625 54.6875 
L 54.390625 54.6875 
L 54.390625 -20.796875 
L 45.40625 -20.796875 
z
" id="DejaVuSans-71"/>
      <path d="M 48.78125 52.59375 
L 48.78125 44.1875 
Q 44.96875 46.296875 41.140625 47.34375 
Q 37.3125 48.390625 33.40625 48.390625 
Q 24.65625 48.390625 19.8125 42.84375 
Q 14.984375 37.3125 14.984375 27.296875 
Q 14.984375 17.28125 19.8125 11.734375 
Q 24.65625 6.203125 33.40625 6.203125 
Q 37.3125 6.203125 41.140625 7.25 
Q 44.96875 8.296875 48.78125 10.40625 
L 48.78125 2.09375 
Q 45.015625 0.34375 40.984375 -0.53125 
Q 36.96875 -1.421875 32.421875 -1.421875 
Q 20.0625 -1.421875 12.78125 6.34375 
Q 5.515625 14.109375 5.515625 27.296875 
Q 5.515625 40.671875 12.859375 48.328125 
Q 20.21875 56 33.015625 56 
Q 37.15625 56 41.109375 55.140625 
Q 45.0625 54.296875 48.78125 52.59375 
" id="DejaVuSans-63"/>
      <path d="M 32.171875 -5.078125 
Q 28.375 -14.84375 24.75 -17.8125 
Q 21.140625 -20.796875 15.09375 -20.796875 
L 7.90625 -20.796875 
L 7.90625 -13.28125 
L 13.1875 -13.28125 
Q 16.890625 -13.28125 18.9375 -11.515625 
Q 21 -9.765625 23.484375 -3.21875 
L 25.09375 0.875 
L 2.984375 54.6875 
L 12.5 54.6875 
L 29.59375 11.921875 
L 46.6875 54.6875 
L 56.203125 54.6875 
z
" id="DejaVuSans-79"/>
     </defs>
     <g style="fill:#d2d2d2;" transform="translate(248.145313 198.535781)rotate(-90)scale(0.18 -0.18)">
      <use xlink:href="#DejaVuSans-46"/>
      <use x="57.410156" xlink:href="#DejaVuSans-72"/>
      <use x="98.492188" xlink:href="#DejaVuSans-65"/>
      <use x="160.015625" xlink:href="#DejaVuSans-71"/>
      <use x="223.492188" xlink:href="#DejaVuSans-75"/>
      <use x="286.871094" xlink:href="#DejaVuSans-65"/>
      <use x="348.394531" xlink:href="#DejaVuSans-6e"/>
      <use x="411.773438" xlink:href="#DejaVuSans-63"/>
      <use x="466.753906" xlink:href="#DejaVuSans-79"/>
     </g>
    </g>
   </g>
   <g id="patch_30">
    <path d="M 272.16 244.8 
L 272.16 57.6 
" style="fill:none;stroke:#d2d2d2;stroke-linecap:square;stroke-linejoin:miter;"/>
   </g>
   <g id="patch_31">
    <path d="M 272.16 244.8 
L 565.92 244.8 
" style="fill:none;stroke:#d2d2d2;stroke-linecap:square;stroke-linejoin:miter;"/>
   </g>
   <g id="text_25">
    <!-- Distribution of the -->
    <defs>
     <path d="M 19.671875 64.796875 
L 19.671875 8.109375 
L 31.59375 8.109375 
Q 46.6875 8.109375 53.6875 14.9375 
Q 60.6875 21.78125 60.6875 36.53125 
Q 60.6875 51.171875 53.6875 57.984375 
Q 46.6875 64.796875 31.59375 64.796875 
z
M 9.8125 72.90625 
L 30.078125 72.90625 
Q 51.265625 72.90625 61.171875 64.09375 
Q 71.09375 55.28125 71.09375 36.53125 
Q 71.09375 17.671875 61.125 8.828125 
Q 51.171875 0 30.078125 0 
L 9.8125 0 
z
" id="DejaVuSans-44"/>
    </defs>
    <g style="fill:#d2d2d2;" transform="translate(346.445 15.767)scale(0.16 -0.16)">
     <use xlink:href="#DejaVuSans-44"/>
     <use x="77.001953" xlink:href="#DejaVuSans-69"/>
     <use x="104.785156" xlink:href="#DejaVuSans-73"/>
     <use x="156.884766" xlink:href="#DejaVuSans-74"/>
     <use x="196.09375" xlink:href="#DejaVuSans-72"/>
     <use x="237.207031" xlink:href="#DejaVuSans-69"/>
     <use x="264.990234" xlink:href="#DejaVuSans-62"/>
     <use x="328.466797" xlink:href="#DejaVuSans-75"/>
     <use x="391.845703" xlink:href="#DejaVuSans-74"/>
     <use x="431.054688" xlink:href="#DejaVuSans-69"/>
     <use x="458.837891" xlink:href="#DejaVuSans-6f"/>
     <use x="520.019531" xlink:href="#DejaVuSans-6e"/>
     <use x="583.398438" xlink:href="#DejaVuSans-20"/>
     <use x="615.185547" xlink:href="#DejaVuSans-6f"/>
     <use x="676.367188" xlink:href="#DejaVuSans-66"/>
     <use x="711.572266" xlink:href="#DejaVuSans-20"/>
     <use x="743.359375" xlink:href="#DejaVuSans-74"/>
     <use x="782.568359" xlink:href="#DejaVuSans-68"/>
     <use x="845.947266" xlink:href="#DejaVuSans-65"/>
    </g>
    <!-- underlying population -->
    <defs>
     <path d="M 45.40625 46.390625 
L 45.40625 75.984375 
L 54.390625 75.984375 
L 54.390625 0 
L 45.40625 0 
L 45.40625 8.203125 
Q 42.578125 3.328125 38.25 0.953125 
Q 33.9375 -1.421875 27.875 -1.421875 
Q 17.96875 -1.421875 11.734375 6.484375 
Q 5.515625 14.40625 5.515625 27.296875 
Q 5.515625 40.1875 11.734375 48.09375 
Q 17.96875 56 27.875 56 
Q 33.9375 56 38.25 53.625 
Q 42.578125 51.265625 45.40625 46.390625 
M 14.796875 27.296875 
Q 14.796875 17.390625 18.875 11.75 
Q 22.953125 6.109375 30.078125 6.109375 
Q 37.203125 6.109375 41.296875 11.75 
Q 45.40625 17.390625 45.40625 27.296875 
Q 45.40625 37.203125 41.296875 42.84375 
Q 37.203125 48.484375 30.078125 48.484375 
Q 22.953125 48.484375 18.875 42.84375 
Q 14.796875 37.203125 14.796875 27.296875 
" id="DejaVuSans-64"/>
    </defs>
    <g style="fill:#d2d2d2;" transform="translate(331.1675 33.6835)scale(0.16 -0.16)">
     <use xlink:href="#DejaVuSans-75"/>
     <use x="63.378906" xlink:href="#DejaVuSans-6e"/>
     <use x="126.757812" xlink:href="#DejaVuSans-64"/>
     <use x="190.234375" xlink:href="#DejaVuSans-65"/>
     <use x="251.757812" xlink:href="#DejaVuSans-72"/>
     <use x="292.871094" xlink:href="#DejaVuSans-6c"/>
     <use x="320.654297" xlink:href="#DejaVuSans-79"/>
     <use x="379.833984" xlink:href="#DejaVuSans-69"/>
     <use x="407.617188" xlink:href="#DejaVuSans-6e"/>
     <use x="470.996094" xlink:href="#DejaVuSans-67"/>
     <use x="534.472656" xlink:href="#DejaVuSans-20"/>
     <use x="566.259766" xlink:href="#DejaVuSans-70"/>
     <use x="629.736328" xlink:href="#DejaVuSans-6f"/>
     <use x="690.917969" xlink:href="#DejaVuSans-70"/>
     <use x="754.394531" xlink:href="#DejaVuSans-75"/>
     <use x="817.773438" xlink:href="#DejaVuSans-6c"/>
     <use x="845.556641" xlink:href="#DejaVuSans-61"/>
     <use x="906.835938" xlink:href="#DejaVuSans-74"/>
     <use x="946.044922" xlink:href="#DejaVuSans-69"/>
     <use x="973.828125" xlink:href="#DejaVuSans-6f"/>
     <use x="1035.009766" xlink:href="#DejaVuSans-6e"/>
    </g>
    <!-- the samples are coming from -->
    <g style="fill:#d2d2d2;" transform="translate(301.12875 51.6)scale(0.16 -0.16)">
     <use xlink:href="#DejaVuSans-74"/>
     <use x="39.208984" xlink:href="#DejaVuSans-68"/>
     <use x="102.587891" xlink:href="#DejaVuSans-65"/>
     <use x="164.111328" xlink:href="#DejaVuSans-20"/>
     <use x="195.898438" xlink:href="#DejaVuSans-73"/>
     <use x="247.998047" xlink:href="#DejaVuSans-61"/>
     <use x="309.277344" xlink:href="#DejaVuSans-6d"/>
     <use x="406.689453" xlink:href="#DejaVuSans-70"/>
     <use x="470.166016" xlink:href="#DejaVuSans-6c"/>
     <use x="497.949219" xlink:href="#DejaVuSans-65"/>
     <use x="559.472656" xlink:href="#DejaVuSans-73"/>
     <use x="611.572266" xlink:href="#DejaVuSans-20"/>
     <use x="643.359375" xlink:href="#DejaVuSans-61"/>
     <use x="704.638672" xlink:href="#DejaVuSans-72"/>
     <use x="745.720703" xlink:href="#DejaVuSans-65"/>
     <use x="807.244141" xlink:href="#DejaVuSans-20"/>
     <use x="839.03125" xlink:href="#DejaVuSans-63"/>
     <use x="894.011719" xlink:href="#DejaVuSans-6f"/>
     <use x="955.193359" xlink:href="#DejaVuSans-6d"/>
     <use x="1052.605469" xlink:href="#DejaVuSans-69"/>
     <use x="1080.388672" xlink:href="#DejaVuSans-6e"/>
     <use x="1143.767578" xlink:href="#DejaVuSans-67"/>
     <use x="1207.244141" xlink:href="#DejaVuSans-20"/>
     <use x="1239.03125" xlink:href="#DejaVuSans-66"/>
     <use x="1274.236328" xlink:href="#DejaVuSans-72"/>
     <use x="1315.318359" xlink:href="#DejaVuSans-6f"/>
     <use x="1376.5" xlink:href="#DejaVuSans-6d"/>
    </g>
   </g>
   <g id="legend_1">
    <g id="patch_32">
     <path d="M 463.682813 71.477812 
L 491.682813 71.477812 
L 491.682813 61.677813 
L 463.682813 61.677813 
z
" style="fill:#f0ad4e;opacity:0.9;"/>
    </g>
    <g id="text_26">
     <!-- Steel -->
     <g style="fill:#d2d2d2;" transform="translate(502.882813 71.477812)scale(0.14 -0.14)">
      <use xlink:href="#DejaVuSans-53"/>
      <use x="63.476562" xlink:href="#DejaVuSans-74"/>
      <use x="102.685547" xlink:href="#DejaVuSans-65"/>
      <use x="164.208984" xlink:href="#DejaVuSans-65"/>
      <use x="225.732422" xlink:href="#DejaVuSans-6c"/>
     </g>
    </g>
    <g id="patch_33">
     <path d="M 463.682813 92.027187 
L 491.682813 92.027187 
L 491.682813 82.227187 
L 463.682813 82.227187 
z
" style="fill:#5bc0de;opacity:0.9;"/>
    </g>
    <g id="text_27">
     <!-- Carbon -->
     <g style="fill:#d2d2d2;" transform="translate(502.882813 92.027187)scale(0.14 -0.14)">
      <use xlink:href="#DejaVuSans-43"/>
      <use x="69.824219" xlink:href="#DejaVuSans-61"/>
      <use x="131.103516" xlink:href="#DejaVuSans-72"/>
      <use x="172.216797" xlink:href="#DejaVuSans-62"/>
      <use x="235.693359" xlink:href="#DejaVuSans-6f"/>
      <use x="296.875" xlink:href="#DejaVuSans-6e"/>
     </g>
    </g>
   </g>
  </g>
  <g id="axes_3">
   <g id="line2d_35">
    <path clip-path="url(#p039f1bfd16)" d="M 272.16 244.415824 
L 275.127273 244.28981 
L 278.094545 244.126994 
L 281.061818 243.918154 
L 284.029091 243.652235 
L 286.996364 243.316118 
L 289.963636 242.894399 
L 292.930909 242.36919 
L 295.898182 241.71996 
L 298.865455 240.923426 
L 301.832727 239.953525 
L 304.8 238.781473 
L 307.767273 237.375952 
L 310.734545 235.70343 
L 313.701818 233.728643 
L 316.669091 231.415248 
L 319.636364 228.726661 
L 322.603636 225.627082 
L 325.570909 222.082705 
L 328.538182 218.063082 
L 331.505455 213.542635 
L 334.472727 208.502251 
L 337.44 202.930928 
L 340.407273 196.827397 
L 343.374545 190.201646 
L 346.341818 183.076277 
L 349.309091 175.487592 
L 352.276364 167.486351 
L 355.243636 159.138107 
L 358.210909 150.523062 
L 361.178182 141.735387 
L 364.145455 132.881986 
L 367.112727 124.080697 
L 370.08 115.457946 
L 373.047273 107.145917 
L 376.014545 99.279309 
L 378.981818 91.991783 
L 381.949091 85.412237 
L 384.916364 79.661037 
L 387.883636 74.846373 
L 390.850909 71.060875 
L 393.818182 68.378654 
L 396.785455 66.852889 
L 399.752727 66.514074 
L 402.72 67.369005 
L 405.687273 69.400552 
L 408.654545 72.56823 
L 411.621818 76.809541 
L 414.589091 82.042025 
L 417.556364 88.165925 
L 420.523636 95.067345 
L 423.490909 102.621768 
L 426.458182 110.697769 
L 429.425455 119.160787 
L 432.392727 127.876793 
L 435.36 136.715719 
L 438.327273 145.554536 
L 441.294545 154.279884 
L 444.261818 162.790183 
L 447.229091 170.99719 
L 450.196364 178.826996 
L 453.163636 186.220464 
L 456.130909 193.133159 
L 459.098182 199.534826 
L 462.065455 205.408476 
L 465.032727 210.749171 
L 468 215.56259 
L 470.967273 219.863447 
L 473.934545 223.673855 
L 476.901818 227.021694 
L 479.869091 229.939041 
L 482.836364 232.460727 
L 485.803636 234.623026 
L 488.770909 236.462535 
L 491.738182 238.015221 
L 494.705455 239.315669 
L 497.672727 240.3965 
L 500.64 241.287967 
L 503.607273 242.01769 
L 506.574545 242.610531 
L 509.541818 243.088574 
L 512.509091 243.471186 
L 515.476364 243.77516 
L 518.443636 244.014882 
L 521.410909 244.202553 
L 524.378182 244.348404 
L 527.345455 244.460931 
L 530.312727 244.547122 
L 533.28 244.612664 
L 536.247273 244.662146 
L 539.214545 244.699237 
L 542.181818 244.726841 
L 545.149091 244.747238 
L 548.116364 244.762202 
L 551.083636 244.773104 
L 554.050909 244.780989 
L 557.018182 244.786652 
L 559.985455 244.790691 
L 562.952727 244.793551 
L 565.92 244.795563 
" style="fill:none;stroke:#d2d2d2;stroke-linecap:square;stroke-width:2;"/>
   </g>
  </g>
  <g id="axes_4">
   <g id="patch_34">
    <path d="M 583.2 244.8 
L 842.4 244.8 
L 842.4 57.6 
L 583.2 57.6 
z
" style="fill:none;"/>
   </g>
   <g id="PolyCollection_1">
    <defs>
     <path d="M 594.981818 -43.2 
L 594.981818 -43.255723 
L 597.361983 -43.273867 
L 599.742149 -43.29763 
L 602.122314 -43.328638 
L 604.502479 -43.368951 
L 606.882645 -43.421159 
L 609.26281 -43.488501 
L 611.642975 -43.575003 
L 614.02314 -43.685639 
L 616.403306 -43.826511 
L 618.783471 -44.005052 
L 621.163636 -44.230253 
L 623.543802 -44.512904 
L 625.923967 -44.865846 
L 628.304132 -45.304229 
L 630.684298 -45.845765 
L 633.064463 -46.510953 
L 635.444628 -47.323272 
L 637.824793 -48.309307 
L 640.204959 -49.498792 
L 642.585124 -50.924529 
L 644.965289 -52.622176 
L 647.345455 -54.629841 
L 649.72562 -56.98748 
L 652.105785 -59.736063 
L 654.48595 -62.916478 
L 656.866116 -66.568185 
L 659.246281 -70.727613 
L 661.626446 -75.426313 
L 664.006612 -80.688927 
L 666.386777 -86.531015 
L 668.766942 -92.956836 
L 671.147107 -99.95718 
L 673.527273 -107.507371 
L 675.907438 -115.565585 
L 678.287603 -124.071606 
L 680.667769 -132.946175 
L 683.047934 -142.091039 
L 685.428099 -151.389811 
L 687.808264 -160.7097 
L 690.18843 -169.904122 
L 692.568595 -178.816184 
L 694.94876 -187.282923 
L 697.328926 -195.140178 
L 699.709091 -202.227897 
L 702.089256 -208.395629 
L 704.469421 -213.507952 
L 706.849587 -217.449553 
L 709.229752 -220.129677 
L 711.609917 -221.485714 
L 713.990083 -221.485714 
L 716.370248 -220.129677 
L 718.750413 -217.449553 
L 721.130579 -213.507952 
L 723.510744 -208.395629 
L 725.890909 -202.227897 
L 728.271074 -195.140178 
L 730.65124 -187.282923 
L 733.031405 -178.816184 
L 735.41157 -169.904122 
L 737.791736 -160.7097 
L 740.171901 -151.389811 
L 742.552066 -142.091039 
L 744.932231 -132.946175 
L 747.312397 -124.071606 
L 749.692562 -115.565585 
L 752.072727 -107.507371 
L 754.452893 -99.95718 
L 756.833058 -92.956836 
L 759.213223 -86.531015 
L 761.593388 -80.688927 
L 763.973554 -75.426313 
L 766.353719 -70.727613 
L 768.733884 -66.568185 
L 771.11405 -62.916478 
L 773.494215 -59.736063 
L 775.87438 -56.98748 
L 778.254545 -54.629841 
L 780.634711 -52.622176 
L 783.014876 -50.924529 
L 785.395041 -49.498792 
L 787.775207 -48.309307 
L 790.155372 -47.323272 
L 792.535537 -46.510953 
L 794.915702 -45.845765 
L 797.295868 -45.304229 
L 799.676033 -44.865846 
L 802.056198 -44.512904 
L 804.436364 -44.230253 
L 806.816529 -44.005052 
L 809.196694 -43.826511 
L 811.57686 -43.685639 
L 813.957025 -43.575003 
L 816.33719 -43.488501 
L 818.717355 -43.421159 
L 821.097521 -43.368951 
L 823.477686 -43.328638 
L 825.857851 -43.29763 
L 828.238017 -43.273867 
L 830.618182 -43.255723 
L 830.618182 -43.2 
L 830.618182 -43.2 
L 828.238017 -43.2 
L 825.857851 -43.2 
L 823.477686 -43.2 
L 821.097521 -43.2 
L 818.717355 -43.2 
L 816.33719 -43.2 
L 813.957025 -43.2 
L 811.57686 -43.2 
L 809.196694 -43.2 
L 806.816529 -43.2 
L 804.436364 -43.2 
L 802.056198 -43.2 
L 799.676033 -43.2 
L 797.295868 -43.2 
L 794.915702 -43.2 
L 792.535537 -43.2 
L 790.155372 -43.2 
L 787.775207 -43.2 
L 785.395041 -43.2 
L 783.014876 -43.2 
L 780.634711 -43.2 
L 778.254545 -43.2 
L 775.87438 -43.2 
L 773.494215 -43.2 
L 771.11405 -43.2 
L 768.733884 -43.2 
L 766.353719 -43.2 
L 763.973554 -43.2 
L 761.593388 -43.2 
L 759.213223 -43.2 
L 756.833058 -43.2 
L 754.452893 -43.2 
L 752.072727 -43.2 
L 749.692562 -43.2 
L 747.312397 -43.2 
L 744.932231 -43.2 
L 742.552066 -43.2 
L 740.171901 -43.2 
L 737.791736 -43.2 
L 735.41157 -43.2 
L 733.031405 -43.2 
L 730.65124 -43.2 
L 728.271074 -43.2 
L 725.890909 -43.2 
L 723.510744 -43.2 
L 721.130579 -43.2 
L 718.750413 -43.2 
L 716.370248 -43.2 
L 713.990083 -43.2 
L 711.609917 -43.2 
L 709.229752 -43.2 
L 706.849587 -43.2 
L 704.469421 -43.2 
L 702.089256 -43.2 
L 699.709091 -43.2 
L 697.328926 -43.2 
L 694.94876 -43.2 
L 692.568595 -43.2 
L 690.18843 -43.2 
L 687.808264 -43.2 
L 685.428099 -43.2 
L 683.047934 -43.2 
L 680.667769 -43.2 
L 678.287603 -43.2 
L 675.907438 -43.2 
L 673.527273 -43.2 
L 671.147107 -43.2 
L 668.766942 -43.2 
L 666.386777 -43.2 
L 664.006612 -43.2 
L 661.626446 -43.2 
L 659.246281 -43.2 
L 656.866116 -43.2 
L 654.48595 -43.2 
L 652.105785 -43.2 
L 649.72562 -43.2 
L 647.345455 -43.2 
L 644.965289 -43.2 
L 642.585124 -43.2 
L 640.204959 -43.2 
L 637.824793 -43.2 
L 635.444628 -43.2 
L 633.064463 -43.2 
L 630.684298 -43.2 
L 628.304132 -43.2 
L 625.923967 -43.2 
L 623.543802 -43.2 
L 621.163636 -43.2 
L 618.783471 -43.2 
L 616.403306 -43.2 
L 614.02314 -43.2 
L 611.642975 -43.2 
L 609.26281 -43.2 
L 606.882645 -43.2 
L 604.502479 -43.2 
L 602.122314 -43.2 
L 599.742149 -43.2 
L 597.361983 -43.2 
L 594.981818 -43.2 
z
" id="mdeb4baf21c" style="stroke:#d9534f;stroke-opacity:0.8;"/>
    </defs>
    <g clip-path="url(#p35e4c68215)">
     <use style="fill:#d9534f;fill-opacity:0.8;stroke:#d9534f;stroke-opacity:0.8;" x="0" xlink:href="#mdeb4baf21c" y="288"/>
    </g>
   </g>
   <g id="matplotlib.axis_5">
    <g id="xtick_11">
     <g id="line2d_36">
      <defs>
       <path d="M 0 0 
L 0 4 
" id="m0f63334f6f" style="stroke:#000000;"/>
      </defs>
      <g>
       <use style="stroke:#000000;" x="622.170629" xlink:href="#m0f63334f6f" y="244.8"/>
      </g>
     </g>
     <g id="text_28">
      <!-- 5.0 -->
      <defs>
       <path d="M 10.59375 35.5 
L 73.1875 35.5 
L 73.1875 27.203125 
L 10.59375 27.203125 
z
" id="DejaVuSans-2212"/>
       <path d="M 10.6875 12.40625 
L 21 12.40625 
L 21 0 
L 10.6875 0 
z
" id="DejaVuSans-2e"/>
      </defs>
      <g style="fill:#d2d2d2;" transform="translate(606.386801 262.677969)scale(0.13 -0.13)">
       <use xlink:href="#DejaVuSans-2212"/>
       <use x="83.789062" xlink:href="#DejaVuSans-35"/>
       <use x="147.412109" xlink:href="#DejaVuSans-2e"/>
       <use x="179.199219" xlink:href="#DejaVuSans-30"/>
      </g>
     </g>
    </g>
    <g id="xtick_12">
     <g id="line2d_37">
      <g>
       <use style="stroke:#000000;" x="667.485315" xlink:href="#m0f63334f6f" y="244.8"/>
      </g>
     </g>
     <g id="text_29">
      <!-- 2.5 -->
      <g style="fill:#d2d2d2;" transform="translate(651.701487 262.677969)scale(0.13 -0.13)">
       <use xlink:href="#DejaVuSans-2212"/>
       <use x="83.789062" xlink:href="#DejaVuSans-32"/>
       <use x="147.412109" xlink:href="#DejaVuSans-2e"/>
       <use x="179.199219" xlink:href="#DejaVuSans-35"/>
      </g>
     </g>
    </g>
    <g id="xtick_13">
     <g id="line2d_38">
      <g>
       <use style="stroke:#000000;" x="712.8" xlink:href="#m0f63334f6f" y="244.8"/>
      </g>
     </g>
     <g id="text_30">
      <!-- 0.0 -->
      <g style="fill:#d2d2d2;" transform="translate(702.462969 262.677969)scale(0.13 -0.13)">
       <use xlink:href="#DejaVuSans-30"/>
       <use x="63.623047" xlink:href="#DejaVuSans-2e"/>
       <use x="95.410156" xlink:href="#DejaVuSans-30"/>
      </g>
     </g>
    </g>
    <g id="xtick_14">
     <g id="line2d_39">
      <g>
       <use style="stroke:#000000;" x="758.114685" xlink:href="#m0f63334f6f" y="244.8"/>
      </g>
     </g>
     <g id="text_31">
      <!-- 2.5 -->
      <g style="fill:#d2d2d2;" transform="translate(747.777654 262.677969)scale(0.13 -0.13)">
       <use xlink:href="#DejaVuSans-32"/>
       <use x="63.623047" xlink:href="#DejaVuSans-2e"/>
       <use x="95.410156" xlink:href="#DejaVuSans-35"/>
      </g>
     </g>
    </g>
    <g id="xtick_15">
     <g id="line2d_40">
      <g>
       <use style="stroke:#000000;" x="803.429371" xlink:href="#m0f63334f6f" y="244.8"/>
      </g>
     </g>
     <g id="text_32">
      <!-- 5.0 -->
      <g style="fill:#d2d2d2;" transform="translate(793.092339 262.677969)scale(0.13 -0.13)">
       <use xlink:href="#DejaVuSans-35"/>
       <use x="63.623047" xlink:href="#DejaVuSans-2e"/>
       <use x="95.410156" xlink:href="#DejaVuSans-30"/>
      </g>
     </g>
    </g>
    <g id="text_33">
     <!-- $\bar{x}_{\mathrm{carbon}}-\bar{x}_{\mathrm{steel}}$ -->
     <defs>
      <path d="M -39.34375 74.515625 
L -10.15625 74.515625 
L -10.15625 67.28125 
L -39.34375 67.28125 
z
" id="DejaVuSans-304"/>
      <path d="M 60.015625 54.6875 
L 34.90625 27.875 
L 50.296875 0 
L 39.984375 0 
L 28.421875 21.6875 
L 8.296875 0 
L -2.59375 0 
L 24.3125 28.8125 
L 10.015625 54.6875 
L 20.3125 54.6875 
L 30.8125 34.90625 
L 49.125 54.6875 
z
" id="DejaVuSans-Oblique-78"/>
     </defs>
     <g style="fill:#d2d2d2;" transform="translate(653.4 283.05875)scale(0.18 -0.18)">
      <use transform="translate(62.138672 0.484375)" xlink:href="#DejaVuSans-304"/>
      <use transform="translate(0 0.578125)" xlink:href="#DejaVuSans-Oblique-78"/>
      <use transform="translate(60.136719 -15.828125)scale(0.7)" xlink:href="#DejaVuSans-63"/>
      <use transform="translate(98.623047 -15.828125)scale(0.7)" xlink:href="#DejaVuSans-61"/>
      <use transform="translate(141.518555 -15.828125)scale(0.7)" xlink:href="#DejaVuSans-72"/>
      <use transform="translate(170.297852 -15.828125)scale(0.7)" xlink:href="#DejaVuSans-62"/>
      <use transform="translate(214.731445 -15.828125)scale(0.7)" xlink:href="#DejaVuSans-6f"/>
      <use transform="translate(257.558594 -15.828125)scale(0.7)" xlink:href="#DejaVuSans-6e"/>
      <use transform="translate(324.140625 0.578125)" xlink:href="#DejaVuSans-2212"/>
      <use transform="translate(489.550781 0.484375)" xlink:href="#DejaVuSans-304"/>
      <use transform="translate(427.412109 0.578125)" xlink:href="#DejaVuSans-Oblique-78"/>
      <use transform="translate(487.548828 -15.828125)scale(0.7)" xlink:href="#DejaVuSans-73"/>
      <use transform="translate(524.018555 -15.828125)scale(0.7)" xlink:href="#DejaVuSans-74"/>
      <use transform="translate(551.464844 -15.828125)scale(0.7)" xlink:href="#DejaVuSans-65"/>
      <use transform="translate(594.53125 -15.828125)scale(0.7)" xlink:href="#DejaVuSans-65"/>
      <use transform="translate(637.597656 -15.828125)scale(0.7)" xlink:href="#DejaVuSans-6c"/>
     </g>
    </g>
   </g>
   <g id="matplotlib.axis_6"/>
   <g id="patch_35">
    <path d="M 583.2 244.8 
L 842.4 244.8 
" style="fill:none;stroke:#d2d2d2;stroke-linecap:square;stroke-linejoin:miter;"/>
   </g>
   <g id="text_34">
    <!-- $\mu=0$ -->
    <defs>
     <path d="M -1.3125 -20.796875 
L 13.375 54.6875 
L 22.40625 54.6875 
L 15.765625 20.65625 
Q 15.578125 19.625 15.421875 18.359375 
Q 15.28125 17.09375 15.28125 15.828125 
Q 15.28125 11.28125 18.140625 8.828125 
Q 21 6.390625 26.3125 6.390625 
Q 33.546875 6.390625 37.984375 10.484375 
Q 42.4375 14.59375 44 22.796875 
L 50.203125 54.6875 
L 59.1875 54.6875 
L 51.03125 12.640625 
Q 50.828125 11.71875 50.75 11.03125 
Q 50.6875 10.359375 50.6875 9.8125 
Q 50.6875 8.296875 51.296875 7.59375 
Q 51.90625 6.890625 53.21875 6.890625 
Q 53.71875 6.890625 54.5625 7.125 
Q 55.421875 7.375 56.984375 8.015625 
L 55.609375 0.78125 
Q 53.46875 -0.296875 51.515625 -0.859375 
Q 49.5625 -1.421875 47.703125 -1.421875 
Q 44.484375 -1.421875 42.65625 0.625 
Q 40.828125 2.6875 40.828125 6.296875 
Q 38.09375 2.390625 34.296875 0.484375 
Q 30.515625 -1.421875 25.390625 -1.421875 
Q 20.84375 -1.421875 17.453125 0.671875 
Q 14.0625 2.78125 12.984375 6.203125 
L 7.71875 -20.796875 
z
" id="DejaVuSans-Oblique-3bc"/>
     <path d="M 10.59375 45.40625 
L 73.1875 45.40625 
L 73.1875 37.203125 
L 10.59375 37.203125 
z
M 10.59375 25.484375 
L 73.1875 25.484375 
L 73.1875 17.1875 
L 10.59375 17.1875 
z
" id="DejaVuSans-3d"/>
    </defs>
    <g style="fill:#d2d2d2;" transform="translate(758.114685 95.04)scale(0.13 -0.13)">
     <use transform="translate(0 0.78125)" xlink:href="#DejaVuSans-Oblique-3bc"/>
     <use transform="translate(83.105469 0.78125)" xlink:href="#DejaVuSans-3d"/>
     <use transform="translate(186.376953 0.78125)" xlink:href="#DejaVuSans-30"/>
    </g>
   </g>
   <g id="text_35">
    <!-- $\sigma=\sqrt{\frac{s_1^2}{n_1}+\frac{s_2^2}{n_2}}$ -->
    <defs>
     <path d="M 34.671875 47.5625 
Q 27.25 47.5625 22.21875 42.1875 
Q 16.890625 36.578125 15.140625 27.296875 
Q 13.1875 17.484375 16.3125 11.8125 
Q 19.390625 6.203125 26.65625 6.203125 
Q 33.84375 6.203125 39.109375 11.859375 
Q 44.4375 17.53125 46.34375 27.296875 
Q 48.046875 36.234375 45.015625 42.1875 
Q 42.1875 47.5625 34.671875 47.5625 
M 36.078125 54.734375 
L 65.921875 54.6875 
L 64.15625 45.703125 
L 54.109375 45.703125 
Q 57.90625 38.09375 55.859375 27.296875 
Q 53.21875 13.875 45.0625 6.25 
Q 36.859375 -1.421875 25.140625 -1.421875 
Q 13.375 -1.421875 8.203125 6.25 
Q 3.03125 13.875 5.671875 27.296875 
Q 8.25 40.765625 16.40625 48.390625 
Q 23.1875 54.734375 36.078125 54.734375 
" id="DejaVuSans-Oblique-3c3"/>
     <path d="M 108.90625 155.203125 
L 52.703125 -29.5 
L 48.5 -29.5 
L 25.40625 45.59375 
Q 24.296875 49.203125 22.890625 50.796875 
Q 21.5 52.40625 19.203125 52.40625 
Q 15.796875 52.40625 12.40625 49.703125 
L 11.203125 51.703125 
L 27.59375 64.296875 
L 30.09375 64.296875 
L 52.796875 -9.40625 
L 53.203125 -9.40625 
L 103.203125 155.203125 
z
" id="STIXSizeOneSym-Regular-221a"/>
     <path d="M 50 53.078125 
L 48.296875 44.578125 
Q 44.734375 46.53125 40.765625 47.5 
Q 36.8125 48.484375 32.625 48.484375 
Q 25.53125 48.484375 21.453125 46.0625 
Q 17.390625 43.65625 17.390625 39.5 
Q 17.390625 34.671875 26.859375 32.078125 
Q 27.59375 31.890625 27.9375 31.78125 
L 30.8125 30.90625 
Q 39.796875 28.421875 42.796875 25.6875 
Q 45.796875 22.953125 45.796875 18.21875 
Q 45.796875 9.515625 38.890625 4.046875 
Q 31.984375 -1.421875 20.796875 -1.421875 
Q 16.453125 -1.421875 11.671875 -0.578125 
Q 6.890625 0.25 1.125 2 
L 2.875 11.28125 
Q 7.8125 8.734375 12.59375 7.421875 
Q 17.390625 6.109375 21.78125 6.109375 
Q 28.375 6.109375 32.5 8.9375 
Q 36.625 11.765625 36.625 16.109375 
Q 36.625 20.796875 25.78125 23.6875 
L 24.859375 23.921875 
L 21.78125 24.703125 
Q 14.9375 26.515625 11.765625 29.46875 
Q 8.59375 32.421875 8.59375 37.015625 
Q 8.59375 45.75 15.15625 50.875 
Q 21.734375 56 33.015625 56 
Q 37.453125 56 41.671875 55.265625 
Q 45.90625 54.546875 50 53.078125 
" id="DejaVuSans-Oblique-73"/>
     <path d="M 55.71875 33.015625 
L 49.3125 0 
L 40.28125 0 
L 46.6875 32.671875 
Q 47.125 34.96875 47.359375 36.71875 
Q 47.609375 38.484375 47.609375 39.5 
Q 47.609375 43.609375 45.015625 45.890625 
Q 42.4375 48.1875 37.796875 48.1875 
Q 30.5625 48.1875 25.34375 43.375 
Q 20.125 38.578125 18.5 30.328125 
L 12.5 0 
L 3.515625 0 
L 14.109375 54.6875 
L 23.09375 54.6875 
L 21.296875 46.09375 
Q 25.046875 50.828125 30.3125 53.40625 
Q 35.59375 56 41.40625 56 
Q 48.640625 56 52.609375 52.09375 
Q 56.59375 48.1875 56.59375 41.109375 
Q 56.59375 39.359375 56.375 37.359375 
Q 56.15625 35.359375 55.71875 33.015625 
" id="DejaVuSans-Oblique-6e"/>
     <path d="M 46 62.703125 
L 46 35.5 
L 73.1875 35.5 
L 73.1875 27.203125 
L 46 27.203125 
L 46 0 
L 37.796875 0 
L 37.796875 27.203125 
L 10.59375 27.203125 
L 10.59375 35.5 
L 37.796875 35.5 
L 37.796875 62.703125 
z
" id="DejaVuSans-2b"/>
    </defs>
    <g style="fill:#d2d2d2;" transform="translate(758.114685 123.12)scale(0.13 -0.13)">
     <use transform="translate(0 0.35625)" xlink:href="#DejaVuSans-Oblique-3c3"/>
     <use transform="translate(82.861328 0.35625)" xlink:href="#DejaVuSans-3d"/>
     <use transform="translate(186.132812 -6.515625)scale(1.058396)" xlink:href="#STIXSizeOneSym-Regular-221a"/>
     <use transform="translate(312.542664 63.585938)scale(0.7)" xlink:href="#DejaVuSans-Oblique-73"/>
     <use transform="translate(352.267317 90.382812)scale(0.49)" xlink:href="#DejaVuSans-32"/>
     <use transform="translate(349.01239 44.445312)scale(0.49)" xlink:href="#DejaVuSans-31"/>
     <use transform="translate(310.542664 -26.004687)scale(0.7)" xlink:href="#DejaVuSans-Oblique-6e"/>
     <use transform="translate(354.907898 -37.489062)scale(0.49)" xlink:href="#DejaVuSans-31"/>
     <use transform="translate(419.979675 0.648438)" xlink:href="#DejaVuSans-2b"/>
     <use transform="translate(525.25116 63.585938)scale(0.7)" xlink:href="#DejaVuSans-Oblique-73"/>
     <use transform="translate(564.975813 90.382812)scale(0.49)" xlink:href="#DejaVuSans-32"/>
     <use transform="translate(561.720886 44.445312)scale(0.49)" xlink:href="#DejaVuSans-32"/>
     <use transform="translate(523.25116 -26.004687)scale(0.7)" xlink:href="#DejaVuSans-Oblique-6e"/>
     <use transform="translate(567.616394 -37.489062)scale(0.49)" xlink:href="#DejaVuSans-32"/>
     <path d="M 298.042664 151.5 
L 298.042664 157.75 
L 625.70575 157.75 
L 625.70575 151.5 
L 298.042664 151.5 
z
"/>
     <path d="M 310.542664 19.445312 
L 310.542664 25.695312 
L 387.997253 25.695312 
L 387.997253 19.445312 
L 310.542664 19.445312 
z
"/>
     <path d="M 523.25116 19.445312 
L 523.25116 25.695312 
L 600.70575 25.695312 
L 600.70575 19.445312 
L 523.25116 19.445312 
z
"/>
    </g>
   </g>
   <g id="text_36">
    <!-- df=$(n_1+n_2)-1$ -->
    <defs>
     <path d="M 31 75.875 
Q 24.46875 64.65625 21.28125 53.65625 
Q 18.109375 42.671875 18.109375 31.390625 
Q 18.109375 20.125 21.3125 9.0625 
Q 24.515625 -2 31 -13.1875 
L 23.1875 -13.1875 
Q 15.875 -1.703125 12.234375 9.375 
Q 8.59375 20.453125 8.59375 31.390625 
Q 8.59375 42.28125 12.203125 53.3125 
Q 15.828125 64.359375 23.1875 75.875 
z
" id="DejaVuSans-28"/>
     <path d="M 8.015625 75.875 
L 15.828125 75.875 
Q 23.140625 64.359375 26.78125 53.3125 
Q 30.421875 42.28125 30.421875 31.390625 
Q 30.421875 20.453125 26.78125 9.375 
Q 23.140625 -1.703125 15.828125 -13.1875 
L 8.015625 -13.1875 
Q 14.5 -2 17.703125 9.0625 
Q 20.90625 20.125 20.90625 31.390625 
Q 20.90625 42.671875 17.703125 53.65625 
Q 14.5 64.65625 8.015625 75.875 
" id="DejaVuSans-29"/>
    </defs>
    <g style="fill:#d2d2d2;" transform="translate(758.114685 151.2)scale(0.13 -0.13)">
     <use transform="translate(0 0.015625)" xlink:href="#DejaVuSans-64"/>
     <use transform="translate(63.476562 0.015625)" xlink:href="#DejaVuSans-66"/>
     <use transform="translate(98.681641 0.015625)" xlink:href="#DejaVuSans-3d"/>
     <use transform="translate(182.470703 0.015625)" xlink:href="#DejaVuSans-28"/>
     <use transform="translate(221.484375 0.015625)" xlink:href="#DejaVuSans-Oblique-6e"/>
     <use transform="translate(284.863281 -16.390625)scale(0.7)" xlink:href="#DejaVuSans-31"/>
     <use transform="translate(351.616211 0.015625)" xlink:href="#DejaVuSans-2b"/>
     <use transform="translate(454.887695 0.015625)" xlink:href="#DejaVuSans-Oblique-6e"/>
     <use transform="translate(518.266602 -16.390625)scale(0.7)" xlink:href="#DejaVuSans-32"/>
     <use transform="translate(565.537109 0.015625)" xlink:href="#DejaVuSans-29"/>
     <use transform="translate(624.033203 0.015625)" xlink:href="#DejaVuSans-2212"/>
     <use transform="translate(727.304688 0.015625)" xlink:href="#DejaVuSans-31"/>
    </g>
   </g>
   <g id="text_37">
    <!-- Sampling distribution of -->
    <g style="fill:#d2d2d2;" transform="translate(616.96875 15.767)scale(0.16 -0.16)">
     <use xlink:href="#DejaVuSans-53"/>
     <use x="63.476562" xlink:href="#DejaVuSans-61"/>
     <use x="124.755859" xlink:href="#DejaVuSans-6d"/>
     <use x="222.167969" xlink:href="#DejaVuSans-70"/>
     <use x="285.644531" xlink:href="#DejaVuSans-6c"/>
     <use x="313.427734" xlink:href="#DejaVuSans-69"/>
     <use x="341.210938" xlink:href="#DejaVuSans-6e"/>
     <use x="404.589844" xlink:href="#DejaVuSans-67"/>
     <use x="468.066406" xlink:href="#DejaVuSans-20"/>
     <use x="499.853516" xlink:href="#DejaVuSans-64"/>
     <use x="563.330078" xlink:href="#DejaVuSans-69"/>
     <use x="591.113281" xlink:href="#DejaVuSans-73"/>
     <use x="643.212891" xlink:href="#DejaVuSans-74"/>
     <use x="682.421875" xlink:href="#DejaVuSans-72"/>
     <use x="723.535156" xlink:href="#DejaVuSans-69"/>
     <use x="751.318359" xlink:href="#DejaVuSans-62"/>
     <use x="814.794922" xlink:href="#DejaVuSans-75"/>
     <use x="878.173828" xlink:href="#DejaVuSans-74"/>
     <use x="917.382812" xlink:href="#DejaVuSans-69"/>
     <use x="945.166016" xlink:href="#DejaVuSans-6f"/>
     <use x="1006.347656" xlink:href="#DejaVuSans-6e"/>
     <use x="1069.726562" xlink:href="#DejaVuSans-20"/>
     <use x="1101.513672" xlink:href="#DejaVuSans-6f"/>
     <use x="1162.695312" xlink:href="#DejaVuSans-66"/>
    </g>
    <!-- the difference in means of 2 samples -->
    <g style="fill:#d2d2d2;" transform="translate(563.7575 33.6835)scale(0.16 -0.16)">
     <use xlink:href="#DejaVuSans-74"/>
     <use x="39.208984" xlink:href="#DejaVuSans-68"/>
     <use x="102.587891" xlink:href="#DejaVuSans-65"/>
     <use x="164.111328" xlink:href="#DejaVuSans-20"/>
     <use x="195.898438" xlink:href="#DejaVuSans-64"/>
     <use x="259.375" xlink:href="#DejaVuSans-69"/>
     <use x="287.158203" xlink:href="#DejaVuSans-66"/>
     <use x="322.363281" xlink:href="#DejaVuSans-66"/>
     <use x="357.568359" xlink:href="#DejaVuSans-65"/>
     <use x="419.091797" xlink:href="#DejaVuSans-72"/>
     <use x="460.173828" xlink:href="#DejaVuSans-65"/>
     <use x="521.697266" xlink:href="#DejaVuSans-6e"/>
     <use x="585.076172" xlink:href="#DejaVuSans-63"/>
     <use x="640.056641" xlink:href="#DejaVuSans-65"/>
     <use x="701.580078" xlink:href="#DejaVuSans-20"/>
     <use x="733.367188" xlink:href="#DejaVuSans-69"/>
     <use x="761.150391" xlink:href="#DejaVuSans-6e"/>
     <use x="824.529297" xlink:href="#DejaVuSans-20"/>
     <use x="856.316406" xlink:href="#DejaVuSans-6d"/>
     <use x="953.728516" xlink:href="#DejaVuSans-65"/>
     <use x="1015.251953" xlink:href="#DejaVuSans-61"/>
     <use x="1076.53125" xlink:href="#DejaVuSans-6e"/>
     <use x="1139.910156" xlink:href="#DejaVuSans-73"/>
     <use x="1192.009766" xlink:href="#DejaVuSans-20"/>
     <use x="1223.796875" xlink:href="#DejaVuSans-6f"/>
     <use x="1284.978516" xlink:href="#DejaVuSans-66"/>
     <use x="1320.183594" xlink:href="#DejaVuSans-20"/>
     <use x="1351.970703" xlink:href="#DejaVuSans-32"/>
     <use x="1415.59375" xlink:href="#DejaVuSans-20"/>
     <use x="1447.380859" xlink:href="#DejaVuSans-73"/>
     <use x="1499.480469" xlink:href="#DejaVuSans-61"/>
     <use x="1560.759766" xlink:href="#DejaVuSans-6d"/>
     <use x="1658.171875" xlink:href="#DejaVuSans-70"/>
     <use x="1721.648438" xlink:href="#DejaVuSans-6c"/>
     <use x="1749.431641" xlink:href="#DejaVuSans-65"/>
     <use x="1810.955078" xlink:href="#DejaVuSans-73"/>
    </g>
    <!-- from the distribution -->
    <g style="fill:#d2d2d2;" transform="translate(630.2075 51.6)scale(0.16 -0.16)">
     <use xlink:href="#DejaVuSans-66"/>
     <use x="35.205078" xlink:href="#DejaVuSans-72"/>
     <use x="76.287109" xlink:href="#DejaVuSans-6f"/>
     <use x="137.46875" xlink:href="#DejaVuSans-6d"/>
     <use x="234.880859" xlink:href="#DejaVuSans-20"/>
     <use x="266.667969" xlink:href="#DejaVuSans-74"/>
     <use x="305.876953" xlink:href="#DejaVuSans-68"/>
     <use x="369.255859" xlink:href="#DejaVuSans-65"/>
     <use x="430.779297" xlink:href="#DejaVuSans-20"/>
     <use x="462.566406" xlink:href="#DejaVuSans-64"/>
     <use x="526.042969" xlink:href="#DejaVuSans-69"/>
     <use x="553.826172" xlink:href="#DejaVuSans-73"/>
     <use x="605.925781" xlink:href="#DejaVuSans-74"/>
     <use x="645.134766" xlink:href="#DejaVuSans-72"/>
     <use x="686.248047" xlink:href="#DejaVuSans-69"/>
     <use x="714.03125" xlink:href="#DejaVuSans-62"/>
     <use x="777.507812" xlink:href="#DejaVuSans-75"/>
     <use x="840.886719" xlink:href="#DejaVuSans-74"/>
     <use x="880.095703" xlink:href="#DejaVuSans-69"/>
     <use x="907.878906" xlink:href="#DejaVuSans-6f"/>
     <use x="969.060547" xlink:href="#DejaVuSans-6e"/>
    </g>
   </g>
  </g>
 </g>
 <defs>
  <clipPath id="p1a06e94c39">
   <rect height="187.2" width="172.8" x="56.16" y="57.6"/>
  </clipPath>
  <clipPath id="p039f1bfd16">
   <rect height="187.2" width="293.76" x="272.16" y="57.6"/>
  </clipPath>
  <clipPath id="p35e4c68215">
   <rect height="187.2" width="259.2" x="583.2" y="57.6"/>
  </clipPath>
 </defs>
</svg>
