<?xml version="1.0" encoding="utf-8"?>
<!-- Generator: Adobe Illustrator 16.0.4, SVG Export Plug-In . SVG Version: 6.00 Build 0)  -->
<!DOCTYPE svg PUBLIC "-//W3C//DTD SVG 1.1//EN" "http://www.w3.org/Graphics/SVG/1.1/DTD/svg11.dtd">
<svg version="1.1" id="Layer_1" xmlns="http://www.w3.org/2000/svg" xmlns:xlink="http://www.w3.org/1999/xlink" x="0px" y="0px"
	 width="399px" height="215.5px" viewBox="0 0 399 215.5" enable-background="new 0 0 399 215.5" xml:space="preserve">
<g>
	<circle fill="none" stroke="#D2D2D2" stroke-width="2" cx="58.969" cy="89.611" r="11.617"/>
	<g>
		<path fill="#D2D2D2" d="M61.709,85.249c0.551,1.016,0.826,2.408,0.826,4.175c0,1.676-0.25,3.062-0.749,4.158
			c-0.723,1.572-1.905,2.359-3.547,2.359c-1.48,0-2.583-0.643-3.306-1.929c-0.603-1.073-0.904-2.514-0.904-4.322
			c0-1.4,0.181-2.603,0.542-3.607c0.677-1.871,1.903-2.807,3.676-2.807C59.843,83.277,60.997,83.935,61.709,85.249z M60.149,93.462
			c0.477-0.712,0.716-2.038,0.716-3.978c0-1.4-0.173-2.553-0.518-3.457c-0.345-0.904-1.015-1.356-2.009-1.356
			c-0.914,0-1.583,0.429-2.005,1.287c-0.423,0.858-0.634,2.122-0.634,3.792c0,1.257,0.135,2.267,0.405,3.03
			c0.414,1.165,1.121,1.748,2.121,1.748C59.031,94.529,59.672,94.173,60.149,93.462z"/>
	</g>
</g>
<g>
	<circle fill="none" stroke="#D2D2D2" stroke-width="2" cx="28.026" cy="95.605" r="11.617"/>
	<g>
		<path fill="#D2D2D2" d="M30.766,91.243c0.551,1.016,0.826,2.408,0.826,4.175c0,1.676-0.25,3.062-0.749,4.158
			c-0.723,1.572-1.905,2.359-3.547,2.359c-1.48,0-2.583-0.643-3.306-1.929c-0.603-1.073-0.904-2.514-0.904-4.322
			c0-1.4,0.181-2.603,0.542-3.607c0.677-1.871,1.903-2.807,3.676-2.807C28.9,89.271,30.054,89.928,30.766,91.243z M29.207,99.456
			c0.477-0.712,0.716-2.038,0.716-3.978c0-1.4-0.173-2.553-0.518-3.457c-0.345-0.904-1.015-1.356-2.009-1.356
			c-0.914,0-1.583,0.429-2.005,1.287c-0.423,0.858-0.634,2.122-0.634,3.792c0,1.257,0.135,2.267,0.405,3.03
			c0.414,1.165,1.121,1.748,2.121,1.748C28.088,100.523,28.729,100.167,29.207,99.456z"/>
	</g>
</g>
<g>
	<circle fill="none" stroke="#D2D2D2" stroke-width="2" cx="50.849" cy="141.065" r="11.618"/>
	<g>
		<path fill="#D2D2D2" d="M53.588,136.703c0.551,1.016,0.826,2.407,0.826,4.175c0,1.676-0.25,3.062-0.749,4.158
			c-0.723,1.572-1.905,2.358-3.547,2.358c-1.48,0-2.583-0.643-3.306-1.928c-0.603-1.074-0.904-2.514-0.904-4.322
			c0-1.4,0.181-2.603,0.542-3.607c0.677-1.871,1.903-2.807,3.676-2.807C51.723,134.73,52.876,135.389,53.588,136.703z
			 M52.029,144.916c0.477-0.713,0.716-2.038,0.716-3.979c0-1.4-0.173-2.553-0.518-3.456c-0.345-0.903-1.015-1.356-2.009-1.356
			c-0.914,0-1.583,0.43-2.005,1.287c-0.423,0.858-0.634,2.123-0.634,3.793c0,1.257,0.135,2.268,0.405,3.03
			c0.414,1.165,1.121,1.747,2.121,1.747C50.911,145.982,51.551,145.627,52.029,144.916z"/>
	</g>
</g>
<g>
	<circle fill="none" stroke="#D2D2D2" stroke-width="2" cx="65.778" cy="162.805" r="11.617"/>
	<g>
		<path fill="#D2D2D2" d="M68.518,158.442c0.551,1.016,0.826,2.407,0.826,4.175c0,1.676-0.25,3.062-0.749,4.158
			c-0.723,1.572-1.905,2.359-3.547,2.359c-1.48,0-2.583-0.643-3.306-1.929c-0.603-1.073-0.904-2.514-0.904-4.321
			c0-1.4,0.181-2.604,0.542-3.607c0.677-1.871,1.903-2.807,3.676-2.807C66.652,156.471,67.806,157.128,68.518,158.442z
			 M66.958,166.655c0.477-0.712,0.716-2.038,0.716-3.978c0-1.4-0.173-2.553-0.518-3.457c-0.345-0.903-1.015-1.355-2.009-1.355
			c-0.914,0-1.583,0.43-2.005,1.287c-0.423,0.857-0.634,2.122-0.634,3.793c0,1.256,0.135,2.267,0.405,3.029
			c0.414,1.166,1.121,1.748,2.121,1.748C65.84,167.723,66.481,167.367,66.958,166.655z"/>
	</g>
</g>
<g>
	<circle fill="none" stroke="#D2D2D2" stroke-width="2" cx="105.438" cy="60.752" r="11.617"/>
	<g>
		<path fill="#D2D2D2" d="M108.178,56.39c0.551,1.016,0.826,2.408,0.826,4.175c0,1.676-0.25,3.062-0.749,4.158
			c-0.723,1.572-1.905,2.359-3.547,2.359c-1.48,0-2.583-0.643-3.306-1.929c-0.603-1.073-0.904-2.514-0.904-4.322
			c0-1.4,0.181-2.603,0.542-3.607c0.677-1.871,1.903-2.807,3.676-2.807C106.312,54.418,107.466,55.075,108.178,56.39z
			 M106.619,64.603c0.477-0.712,0.716-2.038,0.716-3.978c0-1.4-0.173-2.553-0.518-3.457c-0.345-0.904-1.015-1.356-2.009-1.356
			c-0.914,0-1.583,0.429-2.005,1.287c-0.423,0.858-0.634,2.122-0.634,3.792c0,1.257,0.135,2.267,0.405,3.03
			c0.414,1.165,1.121,1.748,2.121,1.748C105.5,65.67,106.141,65.314,106.619,64.603z"/>
	</g>
</g>
<g>
	<circle fill="none" stroke="#D2D2D2" stroke-width="2" cx="225.113" cy="29.544" r="11.617"/>
	<g>
		<path fill="#D2D2D2" d="M227.854,25.182c0.551,1.016,0.826,2.408,0.826,4.175c0,1.676-0.25,3.062-0.75,4.158
			c-0.723,1.572-1.904,2.359-3.547,2.359c-1.48,0-2.582-0.643-3.305-1.929c-0.604-1.073-0.904-2.514-0.904-4.322
			c0-1.4,0.181-2.603,0.542-3.607c0.677-1.871,1.903-2.807,3.677-2.807C225.987,23.21,227.141,23.868,227.854,25.182z
			 M226.293,33.395c0.478-0.712,0.717-2.038,0.717-3.978c0-1.4-0.174-2.553-0.518-3.457c-0.346-0.904-1.016-1.356-2.01-1.356
			c-0.914,0-1.582,0.429-2.005,1.287s-0.634,2.122-0.634,3.792c0,1.257,0.135,2.267,0.405,3.03c0.414,1.165,1.121,1.748,2.121,1.748
			C225.176,34.462,225.816,34.106,226.293,33.395z"/>
	</g>
</g>
<g>
	<circle fill="none" stroke="#D2D2D2" stroke-width="2" cx="198.416" cy="29.544" r="11.618"/>
	<g>
		<path fill="#D2D2D2" d="M201.155,25.182c0.551,1.016,0.826,2.408,0.826,4.175c0,1.676-0.25,3.062-0.749,4.158
			c-0.723,1.572-1.905,2.359-3.547,2.359c-1.48,0-2.583-0.643-3.306-1.929c-0.603-1.073-0.904-2.514-0.904-4.322
			c0-1.4,0.181-2.603,0.542-3.607c0.677-1.871,1.903-2.807,3.676-2.807C199.29,23.21,200.443,23.868,201.155,25.182z
			 M199.596,33.395c0.477-0.712,0.716-2.038,0.716-3.978c0-1.4-0.173-2.553-0.518-3.457c-0.345-0.904-1.015-1.356-2.009-1.356
			c-0.914,0-1.583,0.429-2.005,1.287c-0.423,0.858-0.634,2.122-0.634,3.792c0,1.257,0.135,2.267,0.405,3.03
			c0.414,1.165,1.121,1.748,2.121,1.748C198.478,34.462,199.118,34.106,199.596,33.395z"/>
	</g>
</g>
<g>
	<circle fill="none" stroke="#D2D2D2" stroke-width="2" cx="75.084" cy="129.447" r="11.617"/>
	<g>
		<path fill="#D2D2D2" d="M77.824,125.085c0.551,1.016,0.826,2.407,0.826,4.175c0,1.676-0.25,3.062-0.749,4.158
			c-0.723,1.572-1.905,2.359-3.547,2.359c-1.48,0-2.583-0.643-3.306-1.929c-0.603-1.073-0.904-2.514-0.904-4.321
			c0-1.4,0.181-2.604,0.542-3.607c0.677-1.871,1.903-2.807,3.676-2.807C75.958,123.113,77.112,123.771,77.824,125.085z
			 M76.264,133.298c0.477-0.712,0.716-2.038,0.716-3.978c0-1.4-0.173-2.553-0.518-3.457c-0.345-0.903-1.015-1.355-2.009-1.355
			c-0.914,0-1.583,0.43-2.005,1.287c-0.423,0.857-0.634,2.122-0.634,3.793c0,1.256,0.135,2.267,0.405,3.029
			c0.414,1.166,1.121,1.748,2.121,1.748C75.146,134.365,75.787,134.01,76.264,133.298z"/>
	</g>
</g>
<g>
	<circle fill="none" stroke="#D2D2D2" stroke-width="2" cx="225.113" cy="194.385" r="11.617"/>
	<g>
		<path fill="#D2D2D2" d="M227.854,190.022c0.551,1.016,0.826,2.407,0.826,4.175c0,1.676-0.25,3.062-0.75,4.158
			c-0.723,1.572-1.904,2.359-3.547,2.359c-1.48,0-2.582-0.643-3.305-1.929c-0.604-1.073-0.904-2.514-0.904-4.321
			c0-1.4,0.181-2.604,0.542-3.607c0.677-1.871,1.903-2.807,3.677-2.807C225.987,188.051,227.141,188.708,227.854,190.022z
			 M226.293,198.235c0.478-0.712,0.717-2.038,0.717-3.978c0-1.4-0.174-2.553-0.518-3.457c-0.346-0.903-1.016-1.355-2.01-1.355
			c-0.914,0-1.582,0.43-2.005,1.287s-0.634,2.122-0.634,3.793c0,1.256,0.135,2.267,0.405,3.029c0.414,1.166,1.121,1.748,2.121,1.748
			C225.176,199.303,225.816,198.947,226.293,198.235z"/>
	</g>
</g>
<g>
	<circle fill="none" stroke="#D2D2D2" stroke-width="2" cx="113.835" cy="109.37" r="11.617"/>
	<g>
		<path fill="#D2D2D2" d="M116.575,105.008c0.551,1.016,0.826,2.408,0.826,4.175c0,1.676-0.25,3.062-0.749,4.159
			c-0.723,1.572-1.905,2.358-3.547,2.358c-1.48,0-2.583-0.644-3.306-1.929c-0.603-1.073-0.904-2.514-0.904-4.322
			c0-1.4,0.181-2.603,0.542-3.607c0.677-1.871,1.903-2.807,3.676-2.807C114.709,103.036,115.863,103.693,116.575,105.008z
			 M115.016,113.221c0.477-0.712,0.716-2.038,0.716-3.978c0-1.4-0.173-2.553-0.518-3.457c-0.345-0.904-1.015-1.356-2.009-1.356
			c-0.914,0-1.583,0.429-2.005,1.287c-0.423,0.858-0.634,2.122-0.634,3.792c0,1.257,0.135,2.267,0.405,3.031
			c0.414,1.164,1.121,1.747,2.121,1.747C113.897,114.288,114.538,113.932,115.016,113.221z"/>
	</g>
</g>
<g>
	<circle fill="none" stroke="#D2D2D2" stroke-width="2" cx="327.518" cy="194.386" r="11.617"/>
	<g>
		<path fill="#D2D2D2" d="M330.257,190.023c0.551,1.016,0.826,2.407,0.826,4.175c0,1.676-0.249,3.062-0.749,4.158
			c-0.723,1.572-1.905,2.358-3.547,2.358c-1.48,0-2.582-0.643-3.306-1.928c-0.603-1.074-0.904-2.514-0.904-4.322
			c0-1.4,0.181-2.603,0.542-3.607c0.678-1.871,1.903-2.807,3.677-2.807C328.391,188.051,329.545,188.709,330.257,190.023z
			 M328.697,198.236c0.477-0.713,0.716-2.038,0.716-3.979c0-1.4-0.173-2.553-0.518-3.456s-1.015-1.356-2.009-1.356
			c-0.914,0-1.583,0.43-2.006,1.287c-0.422,0.858-0.633,2.123-0.633,3.793c0,1.257,0.135,2.268,0.404,3.03
			c0.414,1.165,1.121,1.747,2.121,1.747C327.579,199.303,328.22,198.947,328.697,198.236z"/>
	</g>
</g>
<g>
	<circle fill="none" stroke="#D2D2D2" stroke-width="2" cx="251.7" cy="120.158" r="11.618"/>
	<g>
		<path fill="#D2D2D2" d="M254.439,115.796c0.551,1.016,0.826,2.407,0.826,4.175c0,1.676-0.25,3.062-0.749,4.158
			c-0.724,1.572-1.905,2.359-3.547,2.359c-1.48,0-2.583-0.643-3.306-1.929c-0.604-1.073-0.904-2.514-0.904-4.321
			c0-1.4,0.182-2.604,0.543-3.607c0.677-1.871,1.902-2.807,3.676-2.807C252.574,113.824,253.728,114.481,254.439,115.796z
			 M252.88,124.009c0.478-0.712,0.716-2.038,0.716-3.978c0-1.4-0.173-2.553-0.518-3.457c-0.346-0.903-1.015-1.355-2.01-1.355
			c-0.914,0-1.582,0.43-2.004,1.287c-0.424,0.857-0.635,2.122-0.635,3.793c0,1.256,0.135,2.267,0.406,3.029
			c0.414,1.166,1.121,1.748,2.121,1.748C251.762,125.076,252.402,124.721,252.88,124.009z"/>
	</g>
</g>
<g>
	<circle fill="none" stroke="#D2D2D2" stroke-width="2" cx="225.113" cy="120.158" r="11.618"/>
	<g>
		<path fill="#D2D2D2" d="M227.854,115.796c0.551,1.016,0.826,2.407,0.826,4.175c0,1.676-0.25,3.062-0.749,4.158
			c-0.724,1.572-1.905,2.359-3.547,2.359c-1.48,0-2.583-0.643-3.306-1.929c-0.604-1.073-0.904-2.514-0.904-4.321
			c0-1.4,0.182-2.604,0.543-3.607c0.677-1.871,1.902-2.807,3.676-2.807C225.988,113.824,227.142,114.481,227.854,115.796z
			 M226.294,124.009c0.478-0.712,0.716-2.038,0.716-3.978c0-1.4-0.173-2.553-0.518-3.457c-0.346-0.903-1.015-1.355-2.01-1.355
			c-0.914,0-1.582,0.43-2.004,1.287c-0.424,0.857-0.635,2.122-0.635,3.793c0,1.256,0.135,2.267,0.406,3.029
			c0.414,1.166,1.121,1.748,2.121,1.748C225.176,125.076,225.816,124.721,226.294,124.009z"/>
	</g>
</g>
<g>
	<circle fill="none" stroke="#D2D2D2" stroke-width="2" cx="299.811" cy="79.134" r="11.617"/>
	<g>
		<path fill="#D2D2D2" d="M302.551,74.771c0.551,1.016,0.826,2.408,0.826,4.175c0,1.676-0.25,3.062-0.749,4.158
			c-0.724,1.572-1.905,2.359-3.547,2.359c-1.48,0-2.583-0.643-3.306-1.929c-0.604-1.073-0.904-2.514-0.904-4.322
			c0-1.4,0.182-2.603,0.543-3.607c0.677-1.871,1.902-2.807,3.676-2.807C300.686,72.8,301.839,73.457,302.551,74.771z
			 M300.991,82.984c0.478-0.712,0.716-2.038,0.716-3.978c0-1.4-0.173-2.553-0.518-3.457c-0.346-0.904-1.015-1.356-2.01-1.356
			c-0.914,0-1.582,0.429-2.004,1.287c-0.424,0.858-0.635,2.122-0.635,3.792c0,1.257,0.135,2.267,0.406,3.03
			c0.414,1.165,1.121,1.748,2.121,1.748C299.873,84.052,300.514,83.696,300.991,82.984z"/>
	</g>
</g>
<g>
	<circle fill="none" stroke="#D2D2D2" stroke-width="2" cx="327.517" cy="29.544" r="11.618"/>
	<g>
		<path fill="#D2D2D2" d="M330.257,25.182c0.551,1.016,0.826,2.408,0.826,4.175c0,1.676-0.249,3.062-0.749,4.158
			c-0.723,1.572-1.905,2.359-3.547,2.359c-1.48,0-2.582-0.643-3.306-1.929c-0.603-1.073-0.904-2.514-0.904-4.322
			c0-1.4,0.181-2.603,0.542-3.607c0.678-1.871,1.903-2.807,3.677-2.807C328.391,23.21,329.545,23.868,330.257,25.182z
			 M328.697,33.395c0.477-0.712,0.716-2.038,0.716-3.978c0-1.4-0.173-2.553-0.518-3.457s-1.015-1.356-2.009-1.356
			c-0.914,0-1.583,0.429-2.006,1.287c-0.422,0.858-0.633,2.122-0.633,3.792c0,1.257,0.135,2.267,0.404,3.03
			c0.414,1.165,1.121,1.748,2.121,1.748C327.579,34.462,328.22,34.106,328.697,33.395z"/>
	</g>
</g>
<g>
	<circle fill="none" stroke="#5BC0DE" stroke-width="2" cx="87.289" cy="103.376" r="11.618"/>
	<g>
		<path fill="#5BC0DE" d="M83.486,100.641v-1.188c1.119-0.109,1.899-0.292,2.341-0.547s0.772-0.859,0.99-1.812h1.223v12.276h-1.653
			v-8.729H83.486z"/>
	</g>
</g>
<g>
	<circle fill="none" stroke="#5BC0DE" stroke-width="2" cx="93.233" cy="167.448" r="11.618"/>
	<g>
		<path fill="#5BC0DE" d="M89.43,164.713v-1.188c1.119-0.109,1.899-0.292,2.341-0.547c0.442-0.256,0.772-0.859,0.99-1.812h1.223
			v12.276h-1.653v-8.729H89.43z"/>
	</g>
</g>
<g>
	<circle fill="none" stroke="#5BC0DE" stroke-width="2" cx="251.699" cy="194.386" r="11.617"/>
	<g>
		<path fill="#5BC0DE" d="M247.896,191.65v-1.188c1.119-0.109,1.898-0.292,2.341-0.547c0.442-0.256,0.772-0.859,0.99-1.812h1.223
			v12.276h-1.653v-8.729H247.896z"/>
	</g>
</g>
<g>
	<circle fill="none" stroke="#5BC0DE" stroke-width="2" cx="82.203" cy="74.932" r="11.617"/>
	<g>
		<path fill="#5BC0DE" d="M78.401,72.196v-1.188c1.119-0.109,1.899-0.292,2.341-0.547s0.772-0.859,0.99-1.812h1.223v12.276h-1.653
			v-8.729H78.401z"/>
	</g>
</g>
<g>
	<circle fill="none" stroke="#5BC0DE" stroke-width="2" cx="251.699" cy="29.544" r="11.617"/>
	<g>
		<path fill="#5BC0DE" d="M247.896,26.809v-1.188c1.119-0.109,1.898-0.292,2.341-0.547s0.772-0.859,0.99-1.812h1.223v12.276h-1.653
			v-8.729H247.896z"/>
	</g>
</g>
<g>
	<circle fill="none" stroke="#5BC0DE" stroke-width="2" cx="47.351" cy="114.994" r="11.617"/>
	<g>
		<path fill="#5BC0DE" d="M43.548,112.258v-1.188c1.119-0.109,1.899-0.292,2.341-0.547s0.772-0.859,0.99-1.812h1.223v12.277h-1.653
			v-8.73H43.548z"/>
	</g>
</g>
<g>
	<circle fill="none" stroke="#5BC0DE" stroke-width="2" cx="99.951" cy="141.064" r="11.617"/>
	<g>
		<path fill="#5BC0DE" d="M96.149,138.329v-1.188c1.119-0.108,1.899-0.291,2.341-0.547c0.442-0.255,0.772-0.859,0.99-1.812h1.223
			v12.276H99.05v-8.729H96.149z"/>
	</g>
</g>
<g>
	<circle fill="none" stroke="#5BC0DE" stroke-width="2" cx="299.811" cy="194.385" r="11.617"/>
	<g>
		<path fill="#5BC0DE" d="M296.008,191.649v-1.188c1.119-0.108,1.898-0.291,2.341-0.547c0.442-0.255,0.772-0.859,0.99-1.812h1.223
			v12.276h-1.653v-8.729H296.008z"/>
	</g>
</g>
<g>
	<circle fill="none" stroke="#5BC0DE" stroke-width="2" cx="198.416" cy="194.385" r="11.618"/>
	<g>
		<path fill="#5BC0DE" d="M194.613,191.649v-1.188c1.119-0.108,1.899-0.291,2.341-0.547c0.442-0.255,0.772-0.859,0.99-1.812h1.223
			v12.276h-1.653v-8.729H194.613z"/>
	</g>
</g>
<g>
	<circle fill="none" stroke="#5BC0DE" stroke-width="2" cx="327.517" cy="120.158" r="11.618"/>
	<g>
		<path fill="#5BC0DE" d="M323.715,117.422v-1.188c1.119-0.109,1.898-0.291,2.341-0.547s0.772-0.859,0.99-1.812h1.223v12.277h-1.653
			v-8.73H323.715z"/>
	</g>
</g>
<g>
	<circle fill="none" stroke="#5BC0DE" stroke-width="2" cx="299.811" cy="120.157" r="11.617"/>
	<g>
		<path fill="#5BC0DE" d="M296.008,117.422v-1.188c1.119-0.109,1.898-0.291,2.341-0.547s0.772-0.859,0.99-1.812h1.223v12.277h-1.653
			v-8.73H296.008z"/>
	</g>
</g>
<g>
	<circle fill="none" stroke="#5BC0DE" stroke-width="2" cx="198.416" cy="120.157" r="11.617"/>
	<g>
		<path fill="#5BC0DE" d="M194.613,117.422v-1.188c1.119-0.109,1.899-0.291,2.341-0.547s0.772-0.859,0.99-1.812h1.223v12.277h-1.653
			v-8.73H194.613z"/>
	</g>
</g>
<g>
	<circle fill="none" stroke="#5BC0DE" stroke-width="2" cx="35.734" cy="162.805" r="11.617"/>
	<g>
		<path fill="#5BC0DE" d="M31.931,160.069v-1.188c1.119-0.108,1.899-0.291,2.341-0.547c0.442-0.255,0.772-0.859,0.99-1.812h1.223
			v12.276h-1.653v-8.729H31.931z"/>
	</g>
</g>
<g>
	<circle fill="none" stroke="#5BC0DE" stroke-width="2" cx="25.102" cy="132.08" r="11.617"/>
	<g>
		<path fill="#5BC0DE" d="M21.299,129.344v-1.188c1.119-0.109,1.899-0.291,2.341-0.547s0.772-0.859,0.99-1.812h1.223v12.277H24.2
			v-8.73H21.299z"/>
	</g>
</g>
<g>
	<circle fill="none" stroke="#5BC0DE" stroke-width="2" cx="40.231" cy="69.308" r="11.617"/>
	<g>
		<path fill="#5BC0DE" d="M36.428,66.572v-1.188c1.119-0.109,1.899-0.292,2.341-0.547s0.772-0.859,0.99-1.812h1.223v12.276h-1.653
			v-8.729H36.428z"/>
	</g>
</g>
<g>
	<circle fill="none" stroke="#5BC0DE" stroke-width="2" cx="121.021" cy="83.987" r="11.617"/>
	<g>
		<path fill="#5BC0DE" d="M117.217,81.252v-1.188c1.119-0.109,1.899-0.292,2.341-0.547s0.772-0.859,0.99-1.812h1.223v12.276h-1.653
			v-8.729H117.217z"/>
	</g>
</g>
<g>
	<circle fill="none" stroke="#5BC0DE" stroke-width="2" cx="327.518" cy="79.134" r="11.617"/>
	<g>
		<path fill="#5BC0DE" d="M323.714,76.398V75.21c1.119-0.109,1.899-0.292,2.341-0.547c0.442-0.255,0.772-0.859,0.99-1.812h1.223
			v12.276h-1.652v-8.729H323.714z"/>
	</g>
</g>
<g>
	<circle fill="none" stroke="#5BC0DE" stroke-width="2" cx="251.699" cy="79.134" r="11.617"/>
	<g>
		<path fill="#5BC0DE" d="M247.896,76.398V75.21c1.119-0.109,1.898-0.292,2.341-0.547s0.772-0.859,0.99-1.812h1.223v12.276h-1.653
			v-8.729H247.896z"/>
	</g>
</g>
<g>
	<circle fill="none" stroke="#5BC0DE" stroke-width="2" cx="225.113" cy="79.134" r="11.617"/>
	<g>
		<path fill="#5BC0DE" d="M221.31,76.398V75.21c1.119-0.109,1.899-0.292,2.341-0.547c0.442-0.255,0.772-0.859,0.99-1.812h1.223
			v12.276h-1.652v-8.729H221.31z"/>
	</g>
</g>
<g>
	<circle fill="none" stroke="#5BC0DE" stroke-width="2" cx="198.416" cy="79.134" r="11.617"/>
	<g>
		<path fill="#5BC0DE" d="M194.612,76.398V75.21c1.119-0.109,1.899-0.292,2.341-0.547s0.772-0.859,0.99-1.812h1.223v12.276h-1.653
			v-8.729H194.612z"/>
	</g>
</g>
<g>
	<circle fill="none" stroke="#5BC0DE" stroke-width="2" cx="299.811" cy="29.544" r="11.617"/>
	<g>
		<path fill="#5BC0DE" d="M296.006,26.809v-1.188c1.119-0.109,1.9-0.292,2.342-0.547s0.771-0.859,0.99-1.812h1.223v12.276h-1.653
			v-8.729H296.006z"/>
	</g>
</g>
<path fill="none" stroke="#636C72" stroke-width="2" d="M138,174.929c0,6.114-4.783,11.071-10.684,11.071H18.184
	c-5.9,0-10.684-4.957-10.684-11.071V52.071C7.5,45.957,12.283,41,18.184,41h109.133c5.9,0,10.684,4.957,10.684,11.071V174.929z"/>
<g>
	<path fill="#D2D2D2" d="M21.13,35h-0.68v-2.91c0-0.62-0.092-1.07-0.275-1.35c-0.183-0.28-0.465-0.42-0.845-0.42
		c-0.2,0-0.4,0.037-0.6,0.11s-0.385,0.177-0.555,0.31c-0.17,0.133-0.321,0.292-0.455,0.475c-0.134,0.184-0.23,0.382-0.29,0.595V35
		h-0.68v-5.21h0.62v1.18c0.213-0.38,0.518-0.687,0.915-0.92c0.396-0.233,0.828-0.35,1.295-0.35c0.287,0,0.53,0.053,0.73,0.16
		c0.2,0.107,0.36,0.257,0.48,0.45s0.207,0.43,0.26,0.71c0.054,0.28,0.08,0.59,0.08,0.93V35z"/>
	<path fill="#D2D2D2" d="M22.51,31.91v-0.49h3.02v0.49H22.51z M22.51,33.06v-0.49h3.02v0.49H22.51z"/>
	<path fill="#D2D2D2" d="M26.65,35c0-0.227,0.02-0.455,0.06-0.685s0.118-0.458,0.235-0.685c0.117-0.227,0.283-0.445,0.5-0.655
		s0.505-0.408,0.865-0.595c0.193-0.1,0.395-0.198,0.605-0.295s0.403-0.205,0.58-0.325c0.176-0.12,0.321-0.255,0.435-0.405
		c0.113-0.15,0.17-0.325,0.17-0.525c0-0.126-0.029-0.251-0.085-0.375c-0.057-0.124-0.14-0.233-0.25-0.33
		c-0.11-0.097-0.247-0.175-0.41-0.235C29.191,29.83,29,29.8,28.78,29.8c-0.22,0-0.417,0.032-0.59,0.095s-0.325,0.138-0.455,0.225
		c-0.13,0.086-0.242,0.178-0.335,0.275s-0.164,0.175-0.21,0.235l-0.45-0.49c0.04-0.04,0.117-0.113,0.23-0.22
		c0.113-0.106,0.262-0.213,0.445-0.32c0.183-0.106,0.398-0.202,0.645-0.285c0.247-0.083,0.523-0.125,0.83-0.125
		c0.306,0,0.58,0.042,0.82,0.125c0.24,0.083,0.443,0.199,0.61,0.345s0.293,0.315,0.38,0.505c0.086,0.19,0.13,0.388,0.13,0.595
		c0,0.273-0.06,0.51-0.18,0.71c-0.12,0.2-0.269,0.373-0.445,0.52c-0.177,0.146-0.365,0.271-0.565,0.375
		c-0.2,0.103-0.38,0.191-0.54,0.265c-0.213,0.094-0.422,0.199-0.625,0.315c-0.204,0.117-0.385,0.245-0.545,0.385
		c-0.16,0.14-0.292,0.297-0.395,0.47c-0.104,0.174-0.155,0.367-0.155,0.58h3.56V35H26.65z"/>
	<path fill="#D2D2D2" d="M34.98,36.27v-1.78h-3.33v-0.6l3.55-4.6h0.46v4.58h0.88v0.62h-0.88v1.78H34.98z M32.37,33.87h2.68v-3.51
		L32.37,33.87z"/>
	<path fill="#D2D2D2" d="M37.24,31.73c0-0.34,0.065-0.658,0.195-0.955c0.13-0.296,0.308-0.555,0.535-0.775s0.494-0.393,0.8-0.52
		c0.307-0.126,0.636-0.19,0.99-0.19c0.374,0,0.717,0.068,1.03,0.205c0.313,0.137,0.582,0.332,0.805,0.585
		c0.224,0.253,0.398,0.565,0.525,0.935c0.126,0.37,0.19,0.785,0.19,1.245c0,0.72-0.063,1.349-0.19,1.885
		c-0.127,0.537-0.305,0.983-0.535,1.34c-0.23,0.357-0.507,0.622-0.83,0.795s-0.678,0.26-1.065,0.26c-0.467,0-0.889-0.117-1.265-0.35
		s-0.662-0.557-0.855-0.97l0.44-0.4c0.14,0.34,0.362,0.612,0.665,0.815c0.303,0.204,0.642,0.305,1.015,0.305
		c0.293,0,0.56-0.07,0.8-0.21c0.24-0.14,0.447-0.342,0.62-0.605s0.307-0.586,0.4-0.97c0.093-0.383,0.144-0.821,0.15-1.315
		c-0.153,0.394-0.408,0.707-0.765,0.94c-0.357,0.234-0.762,0.35-1.215,0.35c-0.34,0-0.658-0.062-0.955-0.185
		c-0.297-0.123-0.555-0.293-0.775-0.51c-0.22-0.217-0.393-0.472-0.52-0.765C37.303,32.377,37.24,32.063,37.24,31.73z M39.75,29.89
		c-0.253,0-0.492,0.048-0.715,0.145c-0.223,0.097-0.42,0.229-0.59,0.395s-0.305,0.361-0.405,0.585c-0.1,0.223-0.15,0.461-0.15,0.715
		s0.05,0.492,0.15,0.715c0.1,0.224,0.235,0.418,0.405,0.585c0.17,0.167,0.367,0.299,0.59,0.395c0.224,0.097,0.462,0.145,0.715,0.145
		c0.253,0,0.493-0.048,0.72-0.145c0.227-0.096,0.423-0.228,0.59-0.395c0.167-0.167,0.298-0.361,0.395-0.585
		c0.096-0.223,0.145-0.461,0.145-0.715c0-0.247-0.049-0.481-0.145-0.705c-0.097-0.223-0.23-0.42-0.4-0.59
		c-0.17-0.17-0.367-0.303-0.59-0.4C40.241,29.938,40.003,29.89,39.75,29.89z"/>
</g>
<g>
	<path fill="#D2D2D2" d="M28.339,17.997c-0.7,0-1.337-0.142-1.911-0.427c-0.574-0.285-1.066-0.663-1.477-1.134
		c-0.411-0.471-0.728-1.01-0.952-1.617c-0.224-0.606-0.336-1.227-0.336-1.862c0-0.663,0.119-1.297,0.357-1.904
		c0.238-0.606,0.567-1.143,0.987-1.61s0.917-0.838,1.491-1.113c0.574-0.275,1.197-0.413,1.869-0.413c0.7,0,1.334,0.147,1.904,0.441
		s1.06,0.679,1.47,1.155s0.728,1.015,0.952,1.617c0.224,0.602,0.336,1.216,0.336,1.841c0,0.663-0.119,1.297-0.357,1.904
		c-0.238,0.606-0.565,1.141-0.98,1.603c-0.416,0.462-0.91,0.831-1.484,1.106C29.634,17.859,29.011,17.997,28.339,17.997z
		 M24.937,12.957c0,0.504,0.082,0.992,0.245,1.463c0.163,0.471,0.394,0.889,0.693,1.253c0.299,0.364,0.658,0.653,1.078,0.868
		c0.42,0.215,0.887,0.322,1.4,0.322c0.532,0,1.008-0.114,1.428-0.343c0.42-0.229,0.777-0.527,1.071-0.896
		c0.294-0.368,0.518-0.786,0.672-1.253c0.154-0.466,0.231-0.938,0.231-1.414c0-0.504-0.082-0.991-0.245-1.463
		c-0.164-0.471-0.397-0.887-0.7-1.246c-0.303-0.359-0.663-0.646-1.078-0.861c-0.416-0.214-0.875-0.322-1.379-0.322
		c-0.532,0-1.008,0.112-1.428,0.336s-0.777,0.518-1.071,0.882c-0.294,0.364-0.52,0.779-0.679,1.246S24.937,12.472,24.937,12.957z"/>
	<path fill="#D2D2D2" d="M38.376,11.697c-0.616,0.019-1.16,0.177-1.631,0.476c-0.472,0.299-0.805,0.714-1.001,1.246v4.508h-1.232
		v-7.308h1.148v1.694c0.252-0.504,0.583-0.913,0.994-1.225c0.41-0.312,0.849-0.488,1.316-0.525c0.093,0,0.172,0,0.238,0
		s0.121,0.004,0.168,0.014V11.697z"/>
	<path fill="#D2D2D2" d="M39.595,9.247v-1.54h1.232v1.54H39.595z M39.595,17.927v-7.308h1.232v7.308H39.595z"/>
	<path fill="#D2D2D2" d="M45.726,18.011c-0.495,0-0.95-0.103-1.365-0.308c-0.416-0.205-0.772-0.48-1.071-0.826
		c-0.299-0.345-0.53-0.742-0.693-1.19c-0.163-0.448-0.245-0.915-0.245-1.4c0-0.513,0.082-1.001,0.245-1.463
		c0.164-0.462,0.395-0.866,0.693-1.211c0.298-0.345,0.655-0.618,1.071-0.819c0.415-0.201,0.875-0.301,1.379-0.301
		c0.616,0,1.148,0.149,1.596,0.448c0.448,0.299,0.826,0.677,1.134,1.134v-1.456h1.092v7.224c0,0.522-0.098,0.982-0.294,1.379
		c-0.196,0.396-0.462,0.73-0.798,1.001s-0.73,0.476-1.183,0.616c-0.453,0.14-0.936,0.21-1.449,0.21
		c-0.831,0-1.505-0.143-2.023-0.427s-0.95-0.679-1.295-1.183l0.714-0.63c0.289,0.429,0.663,0.751,1.12,0.966
		c0.457,0.214,0.952,0.322,1.484,0.322c0.336,0,0.656-0.047,0.959-0.14s0.567-0.233,0.791-0.42s0.403-0.42,0.539-0.7
		c0.135-0.28,0.203-0.611,0.203-0.994v-1.288c-0.14,0.224-0.306,0.427-0.497,0.609c-0.191,0.182-0.399,0.336-0.623,0.462
		c-0.224,0.126-0.462,0.222-0.714,0.287C46.244,17.978,45.987,18.011,45.726,18.011z M46.104,17.003c0.261,0,0.513-0.047,0.756-0.14
		s0.467-0.217,0.672-0.371c0.205-0.154,0.378-0.329,0.518-0.525s0.233-0.396,0.28-0.602v-2.1c-0.103-0.252-0.235-0.48-0.399-0.686
		c-0.163-0.205-0.348-0.385-0.553-0.539c-0.206-0.154-0.427-0.273-0.665-0.357c-0.238-0.084-0.479-0.126-0.721-0.126
		c-0.373,0-0.707,0.08-1.001,0.238s-0.544,0.369-0.749,0.63s-0.364,0.558-0.476,0.889c-0.112,0.331-0.168,0.665-0.168,1.001
		c0,0.364,0.065,0.709,0.196,1.036c0.13,0.327,0.308,0.612,0.532,0.854c0.224,0.243,0.488,0.437,0.791,0.581
		C45.42,16.931,45.75,17.003,46.104,17.003z"/>
	<path fill="#D2D2D2" d="M51.55,9.247v-1.54h1.232v1.54H51.55z M51.55,17.927v-7.308h1.232v7.308H51.55z"/>
	<path fill="#D2D2D2" d="M61.112,17.927H59.88v-4.088c0-0.784-0.119-1.354-0.357-1.708c-0.238-0.354-0.6-0.532-1.085-0.532
		c-0.252,0-0.504,0.049-0.756,0.147c-0.252,0.098-0.49,0.231-0.714,0.399c-0.224,0.168-0.42,0.369-0.588,0.602
		c-0.168,0.233-0.294,0.49-0.378,0.77v4.41h-1.232v-7.308h1.12v1.568c0.29-0.513,0.707-0.924,1.253-1.232
		c0.546-0.308,1.141-0.462,1.785-0.462c0.42,0,0.77,0.077,1.05,0.231c0.28,0.154,0.504,0.369,0.672,0.644
		c0.168,0.275,0.287,0.6,0.357,0.973c0.07,0.374,0.105,0.779,0.105,1.218V17.927z"/>
	<path fill="#D2D2D2" d="M64.906,18.067c-0.346,0-0.667-0.059-0.966-0.175c-0.299-0.116-0.558-0.277-0.777-0.483
		c-0.219-0.205-0.392-0.445-0.518-0.721s-0.189-0.577-0.189-0.903c0-0.336,0.075-0.642,0.224-0.917
		c0.149-0.275,0.361-0.511,0.637-0.707c0.275-0.196,0.602-0.35,0.98-0.462c0.378-0.112,0.791-0.168,1.239-0.168
		c0.354,0,0.714,0.033,1.078,0.098c0.364,0.065,0.686,0.154,0.966,0.266v-0.588c0-0.597-0.168-1.066-0.504-1.407
		s-0.812-0.511-1.428-0.511c-0.737,0-1.512,0.285-2.324,0.854l-0.406-0.798c0.943-0.635,1.89-0.952,2.842-0.952
		c0.961,0,1.71,0.257,2.247,0.77c0.537,0.514,0.805,1.237,0.805,2.17v2.982c0,0.29,0.131,0.439,0.392,0.448v1.064
		c-0.131,0.019-0.238,0.033-0.322,0.042s-0.173,0.014-0.266,0.014c-0.243,0-0.437-0.072-0.581-0.217
		c-0.145-0.145-0.231-0.319-0.259-0.525l-0.028-0.518c-0.327,0.439-0.74,0.772-1.239,1.001
		C66.01,17.952,65.475,18.067,64.906,18.067z M65.228,17.143c0.438,0,0.847-0.082,1.225-0.245c0.378-0.164,0.665-0.38,0.861-0.651
		c0.177-0.177,0.266-0.359,0.266-0.546v-1.078c-0.597-0.233-1.218-0.35-1.862-0.35c-0.616,0-1.118,0.131-1.505,0.392
		c-0.387,0.262-0.581,0.602-0.581,1.022c0,0.206,0.04,0.397,0.119,0.574s0.191,0.332,0.336,0.462
		c0.145,0.131,0.315,0.233,0.511,0.308S65.004,17.143,65.228,17.143z"/>
	<path fill="#D2D2D2" d="M70.814,7.707h1.232v8.33c0,0.271,0.072,0.483,0.217,0.637c0.145,0.154,0.347,0.231,0.609,0.231
		c0.103,0,0.224-0.016,0.364-0.049c0.14-0.033,0.271-0.072,0.392-0.119l0.196,0.994c-0.206,0.084-0.448,0.154-0.728,0.21
		c-0.28,0.056-0.528,0.084-0.742,0.084c-0.476,0-0.852-0.135-1.127-0.406c-0.275-0.271-0.413-0.648-0.413-1.134V7.707z"/>
	<path fill="#D2D2D2" d="M80.474,18.067c-0.588,0-1.167-0.091-1.736-0.273c-0.569-0.182-1.059-0.446-1.47-0.791l0.532-0.826
		c0.429,0.327,0.859,0.572,1.288,0.735c0.429,0.164,0.882,0.245,1.358,0.245c0.532,0,0.955-0.105,1.267-0.315
		s0.469-0.506,0.469-0.889c0-0.177-0.042-0.329-0.126-0.455s-0.21-0.235-0.378-0.329c-0.168-0.093-0.383-0.177-0.644-0.252
		c-0.262-0.075-0.565-0.154-0.91-0.238c-0.439-0.112-0.817-0.219-1.134-0.322s-0.579-0.224-0.784-0.364
		c-0.206-0.14-0.355-0.308-0.448-0.504s-0.14-0.438-0.14-0.728c0-0.364,0.072-0.688,0.217-0.973
		c0.145-0.285,0.343-0.522,0.595-0.714c0.252-0.191,0.548-0.336,0.889-0.434c0.341-0.098,0.707-0.147,1.099-0.147
		c0.551,0,1.064,0.089,1.54,0.266s0.877,0.411,1.204,0.7l-0.56,0.742c-0.308-0.271-0.653-0.474-1.036-0.609
		s-0.775-0.203-1.176-0.203c-0.448,0-0.829,0.096-1.141,0.287c-0.313,0.191-0.469,0.497-0.469,0.917c0,0.168,0.03,0.308,0.091,0.42
		c0.061,0.112,0.161,0.21,0.301,0.294s0.32,0.159,0.539,0.224s0.483,0.135,0.791,0.21c0.485,0.112,0.908,0.227,1.267,0.343
		c0.359,0.117,0.658,0.254,0.896,0.413c0.238,0.159,0.415,0.346,0.532,0.56c0.117,0.215,0.175,0.476,0.175,0.784
		c0,0.681-0.262,1.223-0.784,1.624C82.065,17.866,81.36,18.067,80.474,18.067z"/>
	<path fill="#D2D2D2" d="M86.704,18.067c-0.346,0-0.667-0.059-0.966-0.175c-0.299-0.116-0.558-0.277-0.777-0.483
		c-0.219-0.205-0.392-0.445-0.518-0.721s-0.189-0.577-0.189-0.903c0-0.336,0.075-0.642,0.224-0.917
		c0.149-0.275,0.361-0.511,0.637-0.707c0.275-0.196,0.602-0.35,0.98-0.462c0.378-0.112,0.791-0.168,1.239-0.168
		c0.354,0,0.714,0.033,1.078,0.098c0.364,0.065,0.686,0.154,0.966,0.266v-0.588c0-0.597-0.168-1.066-0.504-1.407
		s-0.812-0.511-1.428-0.511c-0.737,0-1.512,0.285-2.324,0.854l-0.406-0.798c0.943-0.635,1.89-0.952,2.842-0.952
		c0.961,0,1.71,0.257,2.247,0.77c0.537,0.514,0.805,1.237,0.805,2.17v2.982c0,0.29,0.131,0.439,0.392,0.448v1.064
		c-0.131,0.019-0.238,0.033-0.322,0.042s-0.173,0.014-0.266,0.014c-0.243,0-0.437-0.072-0.581-0.217
		c-0.145-0.145-0.231-0.319-0.259-0.525l-0.028-0.518c-0.327,0.439-0.74,0.772-1.239,1.001
		C87.807,17.952,87.272,18.067,86.704,18.067z M87.025,17.143c0.438,0,0.847-0.082,1.225-0.245c0.378-0.164,0.665-0.38,0.861-0.651
		c0.177-0.177,0.266-0.359,0.266-0.546v-1.078c-0.597-0.233-1.218-0.35-1.862-0.35c-0.616,0-1.118,0.131-1.505,0.392
		c-0.387,0.262-0.581,0.602-0.581,1.022c0,0.206,0.04,0.397,0.119,0.574s0.191,0.332,0.336,0.462
		c0.145,0.131,0.315,0.233,0.511,0.308S86.801,17.143,87.025,17.143z"/>
	<path fill="#D2D2D2" d="M103.602,17.927h-1.232v-4.088c0-0.765-0.124-1.33-0.371-1.694c-0.248-0.364-0.614-0.546-1.099-0.546
		c-0.504,0-0.955,0.18-1.351,0.539c-0.397,0.359-0.679,0.824-0.847,1.393v4.396h-1.232v-4.088c0-0.784-0.121-1.354-0.364-1.708
		c-0.243-0.354-0.607-0.532-1.092-0.532c-0.495,0-0.943,0.175-1.344,0.525c-0.401,0.35-0.686,0.814-0.854,1.393v4.41h-1.232v-7.308
		h1.12v1.568c0.299-0.541,0.686-0.959,1.162-1.253s1.013-0.441,1.61-0.441c0.616,0,1.104,0.166,1.463,0.497
		c0.359,0.332,0.581,0.758,0.665,1.281c0.653-1.186,1.582-1.778,2.786-1.778c0.42,0,0.772,0.077,1.057,0.231
		c0.285,0.154,0.511,0.369,0.679,0.644c0.168,0.275,0.289,0.6,0.364,0.973c0.075,0.374,0.112,0.779,0.112,1.218V17.927z"/>
	<path fill="#D2D2D2" d="M109.454,18.067c-0.607,0-1.141-0.149-1.603-0.448c-0.462-0.298-0.829-0.676-1.099-1.134v4.424h-1.232
		v-10.29h1.092v1.372c0.289-0.448,0.665-0.81,1.127-1.085s0.973-0.413,1.533-0.413c0.504,0,0.966,0.103,1.386,0.308
		c0.42,0.206,0.784,0.483,1.092,0.833s0.548,0.754,0.721,1.211c0.173,0.458,0.259,0.934,0.259,1.428c0,0.522-0.08,1.015-0.238,1.477
		c-0.159,0.462-0.383,0.863-0.672,1.204c-0.29,0.341-0.635,0.611-1.036,0.812S109.938,18.067,109.454,18.067z M109.075,17.003
		c0.364,0,0.693-0.077,0.987-0.231c0.294-0.154,0.546-0.359,0.756-0.616s0.371-0.548,0.483-0.875
		c0.112-0.327,0.168-0.663,0.168-1.008c0-0.364-0.065-0.712-0.196-1.043c-0.131-0.332-0.308-0.621-0.532-0.868
		c-0.224-0.247-0.488-0.443-0.791-0.588s-0.632-0.217-0.987-0.217c-0.224,0-0.455,0.044-0.693,0.133
		c-0.238,0.089-0.462,0.205-0.672,0.35c-0.21,0.145-0.392,0.317-0.546,0.518c-0.154,0.201-0.254,0.413-0.301,0.637v2.086
		c0.103,0.243,0.233,0.469,0.392,0.679c0.158,0.21,0.34,0.392,0.546,0.546c0.205,0.154,0.424,0.275,0.658,0.364
		C108.581,16.958,108.823,17.003,109.075,17.003z"/>
	<path fill="#D2D2D2" d="M114.269,7.707h1.232v8.33c0,0.271,0.072,0.483,0.217,0.637c0.145,0.154,0.347,0.231,0.609,0.231
		c0.103,0,0.224-0.016,0.364-0.049c0.14-0.033,0.271-0.072,0.392-0.119l0.196,0.994c-0.206,0.084-0.448,0.154-0.728,0.21
		c-0.28,0.056-0.528,0.084-0.742,0.084c-0.476,0-0.852-0.135-1.127-0.406c-0.275-0.271-0.413-0.648-0.413-1.134V7.707z"/>
	<path fill="#D2D2D2" d="M121.479,18.067c-0.551,0-1.055-0.101-1.512-0.301c-0.457-0.201-0.849-0.474-1.176-0.819
		s-0.581-0.749-0.763-1.211c-0.182-0.462-0.273-0.95-0.273-1.463s0.091-0.999,0.273-1.456c0.182-0.458,0.439-0.859,0.77-1.204
		c0.332-0.345,0.726-0.618,1.183-0.819c0.457-0.201,0.961-0.301,1.512-0.301c0.55,0,1.052,0.103,1.505,0.308
		c0.453,0.206,0.837,0.479,1.155,0.819c0.317,0.341,0.562,0.737,0.735,1.19c0.172,0.453,0.259,0.922,0.259,1.407
		c0,0.103-0.002,0.196-0.007,0.28c-0.005,0.084-0.012,0.149-0.021,0.196h-6.062c0.028,0.364,0.112,0.695,0.252,0.994
		c0.14,0.299,0.322,0.556,0.546,0.77c0.224,0.215,0.478,0.383,0.763,0.504c0.284,0.121,0.585,0.182,0.903,0.182
		c0.224,0,0.443-0.03,0.658-0.091c0.214-0.061,0.415-0.142,0.602-0.245c0.187-0.103,0.353-0.229,0.497-0.378
		c0.145-0.149,0.254-0.317,0.329-0.504l1.064,0.294c-0.121,0.271-0.287,0.518-0.497,0.742c-0.21,0.224-0.453,0.417-0.728,0.581
		c-0.275,0.163-0.581,0.292-0.917,0.385S121.843,18.067,121.479,18.067z M123.985,13.783c-0.028-0.345-0.114-0.665-0.259-0.959
		c-0.145-0.294-0.327-0.543-0.546-0.749c-0.22-0.205-0.474-0.366-0.763-0.483c-0.29-0.117-0.598-0.175-0.924-0.175
		c-0.327,0-0.635,0.058-0.924,0.175c-0.289,0.117-0.543,0.28-0.763,0.49c-0.22,0.21-0.397,0.46-0.532,0.749
		c-0.135,0.29-0.217,0.607-0.245,0.952H123.985z"/>
</g>
<g>
	<path fill="#D2D2D2" d="M195.63,12.5h-0.68V9.59c0-0.62-0.092-1.07-0.275-1.35c-0.183-0.28-0.465-0.42-0.845-0.42
		c-0.2,0-0.4,0.037-0.6,0.11s-0.385,0.177-0.555,0.31c-0.17,0.133-0.321,0.292-0.455,0.475c-0.134,0.184-0.23,0.382-0.29,0.595v3.19
		h-0.68V7.29h0.62v1.18c0.213-0.38,0.518-0.687,0.915-0.92c0.396-0.233,0.828-0.35,1.295-0.35c0.287,0,0.53,0.053,0.73,0.16
		c0.2,0.107,0.36,0.257,0.48,0.45s0.207,0.43,0.26,0.71c0.054,0.28,0.08,0.59,0.08,0.93V12.5z"/>
	<path fill="#D2D2D2" d="M197.01,9.41V8.92h3.02v0.49H197.01z M197.01,10.56v-0.49h3.02v0.49H197.01z"/>
	<path fill="#D2D2D2" d="M201.15,12.5c0-0.227,0.02-0.455,0.06-0.685s0.118-0.458,0.235-0.685c0.117-0.227,0.283-0.445,0.5-0.655
		s0.505-0.408,0.865-0.595c0.193-0.1,0.395-0.198,0.605-0.295s0.403-0.205,0.58-0.325c0.176-0.12,0.321-0.255,0.435-0.405
		c0.113-0.15,0.17-0.325,0.17-0.525c0-0.126-0.029-0.251-0.085-0.375c-0.057-0.124-0.14-0.233-0.25-0.33
		c-0.11-0.097-0.247-0.175-0.41-0.235c-0.164-0.06-0.355-0.09-0.575-0.09c-0.22,0-0.417,0.032-0.59,0.095s-0.325,0.138-0.455,0.225
		c-0.13,0.086-0.242,0.178-0.335,0.275s-0.164,0.175-0.21,0.235l-0.45-0.49c0.04-0.04,0.117-0.113,0.23-0.22
		c0.113-0.106,0.262-0.213,0.445-0.32c0.183-0.106,0.398-0.202,0.645-0.285c0.247-0.083,0.523-0.125,0.83-0.125
		c0.306,0,0.58,0.042,0.82,0.125c0.24,0.083,0.443,0.199,0.61,0.345s0.293,0.315,0.38,0.505s0.13,0.388,0.13,0.595
		c0,0.273-0.061,0.51-0.18,0.71c-0.121,0.2-0.269,0.373-0.445,0.52c-0.177,0.146-0.365,0.271-0.565,0.375
		c-0.2,0.103-0.38,0.191-0.54,0.265c-0.213,0.094-0.422,0.199-0.625,0.315c-0.204,0.117-0.385,0.245-0.545,0.385
		c-0.16,0.14-0.292,0.297-0.395,0.47c-0.104,0.174-0.155,0.367-0.155,0.58h3.56v0.62H201.15z"/>
	<path fill="#D2D2D2" d="M209.48,13.77v-1.78h-3.33v-0.6l3.549-4.6h0.461v4.58h0.88v0.62h-0.88v1.78H209.48z M206.87,11.37h2.68
		V7.86L206.87,11.37z"/>
	<path fill="#D2D2D2" d="M211.74,9.23c0-0.34,0.064-0.658,0.195-0.955c0.129-0.296,0.308-0.555,0.534-0.775s0.493-0.393,0.8-0.52
		c0.307-0.126,0.637-0.19,0.99-0.19c0.373,0,0.717,0.068,1.03,0.205s0.581,0.332,0.805,0.585s0.398,0.565,0.525,0.935
		c0.126,0.37,0.19,0.785,0.19,1.245c0,0.72-0.064,1.349-0.19,1.885c-0.127,0.537-0.306,0.983-0.535,1.34
		c-0.229,0.357-0.507,0.622-0.83,0.795s-0.679,0.26-1.065,0.26c-0.467,0-0.889-0.117-1.265-0.35s-0.661-0.557-0.854-0.97l0.439-0.4
		c0.141,0.34,0.361,0.612,0.665,0.815c0.304,0.204,0.642,0.305,1.015,0.305c0.294,0,0.561-0.07,0.801-0.21s0.446-0.342,0.619-0.605
		c0.174-0.263,0.307-0.586,0.4-0.97c0.094-0.383,0.144-0.821,0.15-1.315c-0.154,0.394-0.408,0.707-0.766,0.94
		c-0.356,0.234-0.762,0.35-1.215,0.35c-0.34,0-0.658-0.062-0.955-0.185c-0.297-0.123-0.555-0.293-0.775-0.51
		c-0.219-0.217-0.393-0.472-0.52-0.765C211.803,9.877,211.74,9.563,211.74,9.23z M214.25,7.39c-0.254,0-0.492,0.048-0.715,0.145
		c-0.224,0.097-0.42,0.229-0.59,0.395s-0.306,0.361-0.405,0.585c-0.101,0.223-0.15,0.461-0.15,0.715s0.05,0.492,0.15,0.715
		c0.1,0.224,0.235,0.418,0.405,0.585c0.17,0.167,0.366,0.299,0.59,0.395c0.223,0.097,0.461,0.145,0.715,0.145
		c0.253,0,0.493-0.048,0.72-0.145c0.227-0.096,0.423-0.228,0.591-0.395c0.166-0.167,0.298-0.361,0.395-0.585
		c0.096-0.223,0.145-0.461,0.145-0.715c0-0.247-0.049-0.481-0.145-0.705c-0.097-0.223-0.23-0.42-0.4-0.59s-0.367-0.303-0.59-0.4
		C214.741,7.438,214.503,7.39,214.25,7.39z"/>
</g>
<g>
	<path fill="#D2D2D2" d="M195.63,63.314h-0.68v-2.91c0-0.62-0.092-1.07-0.275-1.35c-0.183-0.28-0.465-0.42-0.845-0.42
		c-0.2,0-0.4,0.037-0.6,0.11s-0.385,0.177-0.555,0.31c-0.17,0.133-0.321,0.292-0.455,0.475c-0.134,0.184-0.23,0.382-0.29,0.595v3.19
		h-0.68v-5.21h0.62v1.18c0.213-0.38,0.518-0.687,0.915-0.92c0.396-0.233,0.828-0.35,1.295-0.35c0.287,0,0.53,0.053,0.73,0.16
		c0.2,0.107,0.36,0.257,0.48,0.45s0.207,0.43,0.26,0.71c0.054,0.28,0.08,0.59,0.08,0.93V63.314z"/>
	<path fill="#D2D2D2" d="M197.01,60.224v-0.49h3.02v0.49H197.01z M197.01,61.374v-0.49h3.02v0.49H197.01z"/>
	<path fill="#D2D2D2" d="M201.15,63.314c0-0.227,0.02-0.455,0.06-0.685s0.118-0.458,0.235-0.685c0.117-0.227,0.283-0.445,0.5-0.655
		s0.505-0.408,0.865-0.595c0.193-0.1,0.395-0.198,0.605-0.295s0.403-0.205,0.58-0.325c0.176-0.12,0.321-0.255,0.435-0.405
		c0.113-0.15,0.17-0.325,0.17-0.525c0-0.126-0.029-0.251-0.085-0.375c-0.057-0.124-0.14-0.233-0.25-0.33
		c-0.11-0.097-0.247-0.175-0.41-0.235c-0.164-0.06-0.355-0.09-0.575-0.09c-0.22,0-0.417,0.032-0.59,0.095s-0.325,0.138-0.455,0.225
		c-0.13,0.086-0.242,0.178-0.335,0.275s-0.164,0.175-0.21,0.235l-0.45-0.49c0.04-0.04,0.117-0.113,0.23-0.22
		c0.113-0.106,0.262-0.213,0.445-0.32c0.183-0.106,0.398-0.202,0.645-0.285c0.247-0.083,0.523-0.125,0.83-0.125
		c0.306,0,0.58,0.042,0.82,0.125c0.24,0.083,0.443,0.199,0.61,0.345s0.293,0.315,0.38,0.505s0.13,0.388,0.13,0.595
		c0,0.273-0.061,0.51-0.18,0.71c-0.121,0.2-0.269,0.373-0.445,0.52c-0.177,0.146-0.365,0.271-0.565,0.375
		c-0.2,0.103-0.38,0.191-0.54,0.265c-0.213,0.094-0.422,0.199-0.625,0.315c-0.204,0.117-0.385,0.245-0.545,0.385
		c-0.16,0.14-0.292,0.297-0.395,0.47c-0.104,0.174-0.155,0.367-0.155,0.58h3.56v0.62H201.15z"/>
	<path fill="#D2D2D2" d="M209.48,64.584v-1.78h-3.33v-0.6l3.549-4.6h0.461v4.58h0.88v0.62h-0.88v1.78H209.48z M206.87,62.184h2.68
		v-3.51L206.87,62.184z"/>
	<path fill="#D2D2D2" d="M211.74,60.044c0-0.34,0.064-0.658,0.195-0.955c0.129-0.296,0.308-0.555,0.534-0.775s0.493-0.393,0.8-0.52
		c0.307-0.126,0.637-0.19,0.99-0.19c0.373,0,0.717,0.068,1.03,0.205s0.581,0.332,0.805,0.585s0.398,0.565,0.525,0.935
		c0.126,0.37,0.19,0.785,0.19,1.245c0,0.72-0.064,1.349-0.19,1.885c-0.127,0.537-0.306,0.983-0.535,1.34
		c-0.229,0.357-0.507,0.622-0.83,0.795s-0.679,0.26-1.065,0.26c-0.467,0-0.889-0.117-1.265-0.35s-0.661-0.557-0.854-0.97l0.439-0.4
		c0.141,0.34,0.361,0.612,0.665,0.815c0.304,0.204,0.642,0.305,1.015,0.305c0.294,0,0.561-0.07,0.801-0.21s0.446-0.342,0.619-0.605
		c0.174-0.263,0.307-0.586,0.4-0.97c0.094-0.383,0.144-0.821,0.15-1.315c-0.154,0.394-0.408,0.707-0.766,0.94
		c-0.356,0.234-0.762,0.35-1.215,0.35c-0.34,0-0.658-0.062-0.955-0.185c-0.297-0.123-0.555-0.293-0.775-0.51
		c-0.219-0.217-0.393-0.472-0.52-0.765C211.803,60.691,211.74,60.377,211.74,60.044z M214.25,58.204
		c-0.254,0-0.492,0.048-0.715,0.145c-0.224,0.097-0.42,0.229-0.59,0.395s-0.306,0.361-0.405,0.585
		c-0.101,0.223-0.15,0.461-0.15,0.715s0.05,0.492,0.15,0.715c0.1,0.224,0.235,0.418,0.405,0.585c0.17,0.167,0.366,0.299,0.59,0.395
		c0.223,0.097,0.461,0.145,0.715,0.145c0.253,0,0.493-0.048,0.72-0.145c0.227-0.096,0.423-0.228,0.591-0.395
		c0.166-0.167,0.298-0.361,0.395-0.585c0.096-0.223,0.145-0.461,0.145-0.715c0-0.247-0.049-0.481-0.145-0.705
		c-0.097-0.223-0.23-0.42-0.4-0.59s-0.367-0.303-0.59-0.4C214.741,58.252,214.503,58.204,214.25,58.204z"/>
</g>
<g>
	<path fill="#D2D2D2" d="M195.63,103.376h-0.68v-2.91c0-0.62-0.092-1.07-0.275-1.35c-0.183-0.28-0.465-0.42-0.845-0.42
		c-0.2,0-0.4,0.037-0.6,0.11s-0.385,0.177-0.555,0.31c-0.17,0.133-0.321,0.292-0.455,0.475c-0.134,0.184-0.23,0.382-0.29,0.595v3.19
		h-0.68v-5.21h0.62v1.18c0.213-0.38,0.518-0.687,0.915-0.92c0.396-0.233,0.828-0.35,1.295-0.35c0.287,0,0.53,0.053,0.73,0.16
		c0.2,0.107,0.36,0.257,0.48,0.45s0.207,0.43,0.26,0.71c0.054,0.28,0.08,0.59,0.08,0.93V103.376z"/>
	<path fill="#D2D2D2" d="M197.01,100.286v-0.49h3.02v0.49H197.01z M197.01,101.436v-0.49h3.02v0.49H197.01z"/>
	<path fill="#D2D2D2" d="M201.15,103.376c0-0.227,0.02-0.455,0.06-0.685s0.118-0.458,0.235-0.685c0.117-0.227,0.283-0.445,0.5-0.655
		s0.505-0.408,0.865-0.595c0.193-0.1,0.395-0.198,0.605-0.295s0.403-0.205,0.58-0.325c0.176-0.12,0.321-0.255,0.435-0.405
		c0.113-0.15,0.17-0.325,0.17-0.525c0-0.126-0.029-0.251-0.085-0.375c-0.057-0.124-0.14-0.233-0.25-0.33
		c-0.11-0.097-0.247-0.175-0.41-0.235c-0.164-0.06-0.355-0.09-0.575-0.09c-0.22,0-0.417,0.032-0.59,0.095s-0.325,0.138-0.455,0.225
		c-0.13,0.086-0.242,0.178-0.335,0.275s-0.164,0.175-0.21,0.235l-0.45-0.49c0.04-0.04,0.117-0.113,0.23-0.22
		c0.113-0.106,0.262-0.213,0.445-0.32c0.183-0.106,0.398-0.202,0.645-0.285c0.247-0.083,0.523-0.125,0.83-0.125
		c0.306,0,0.58,0.042,0.82,0.125c0.24,0.083,0.443,0.199,0.61,0.345s0.293,0.315,0.38,0.505s0.13,0.388,0.13,0.595
		c0,0.273-0.061,0.51-0.18,0.71c-0.121,0.2-0.269,0.373-0.445,0.52c-0.177,0.146-0.365,0.271-0.565,0.375
		c-0.2,0.103-0.38,0.191-0.54,0.265c-0.213,0.094-0.422,0.199-0.625,0.315c-0.204,0.117-0.385,0.245-0.545,0.385
		c-0.16,0.14-0.292,0.297-0.395,0.47c-0.104,0.174-0.155,0.367-0.155,0.58h3.56v0.62H201.15z"/>
	<path fill="#D2D2D2" d="M209.48,104.646v-1.78h-3.33v-0.6l3.549-4.6h0.461v4.58h0.88v0.62h-0.88v1.78H209.48z M206.87,102.246h2.68
		v-3.51L206.87,102.246z"/>
	<path fill="#D2D2D2" d="M211.74,100.106c0-0.34,0.064-0.658,0.195-0.955c0.129-0.296,0.308-0.555,0.534-0.775s0.493-0.393,0.8-0.52
		c0.307-0.126,0.637-0.19,0.99-0.19c0.373,0,0.717,0.068,1.03,0.205s0.581,0.332,0.805,0.585s0.398,0.565,0.525,0.935
		c0.126,0.37,0.19,0.785,0.19,1.245c0,0.72-0.064,1.349-0.19,1.885c-0.127,0.537-0.306,0.983-0.535,1.34
		c-0.229,0.357-0.507,0.622-0.83,0.795s-0.679,0.26-1.065,0.26c-0.467,0-0.889-0.117-1.265-0.35s-0.661-0.557-0.854-0.97l0.439-0.4
		c0.141,0.34,0.361,0.612,0.665,0.815c0.304,0.204,0.642,0.305,1.015,0.305c0.294,0,0.561-0.07,0.801-0.21s0.446-0.342,0.619-0.605
		c0.174-0.263,0.307-0.586,0.4-0.97c0.094-0.383,0.144-0.821,0.15-1.315c-0.154,0.394-0.408,0.707-0.766,0.94
		c-0.356,0.234-0.762,0.35-1.215,0.35c-0.34,0-0.658-0.062-0.955-0.185c-0.297-0.123-0.555-0.293-0.775-0.51
		c-0.219-0.217-0.393-0.472-0.52-0.765C211.803,100.753,211.74,100.439,211.74,100.106z M214.25,98.266
		c-0.254,0-0.492,0.048-0.715,0.145c-0.224,0.097-0.42,0.229-0.59,0.395s-0.306,0.361-0.405,0.585
		c-0.101,0.223-0.15,0.461-0.15,0.715s0.05,0.492,0.15,0.715c0.1,0.224,0.235,0.418,0.405,0.585c0.17,0.167,0.366,0.299,0.59,0.395
		c0.223,0.097,0.461,0.145,0.715,0.145c0.253,0,0.493-0.048,0.72-0.145c0.227-0.096,0.423-0.228,0.591-0.395
		c0.166-0.167,0.298-0.361,0.395-0.585c0.096-0.223,0.145-0.461,0.145-0.715c0-0.247-0.049-0.481-0.145-0.705
		c-0.097-0.223-0.23-0.42-0.4-0.59s-0.367-0.303-0.59-0.4C214.741,98.314,214.503,98.266,214.25,98.266z"/>
</g>
<g>
	<path fill="#D2D2D2" d="M195.63,178.896h-0.68v-2.91c0-0.619-0.092-1.07-0.275-1.35c-0.183-0.28-0.465-0.42-0.845-0.42
		c-0.2,0-0.4,0.037-0.6,0.109c-0.2,0.074-0.385,0.178-0.555,0.311c-0.17,0.133-0.321,0.291-0.455,0.475
		c-0.134,0.184-0.23,0.382-0.29,0.596v3.189h-0.68v-5.21h0.62v1.181c0.213-0.381,0.518-0.688,0.915-0.921
		c0.396-0.233,0.828-0.35,1.295-0.35c0.287,0,0.53,0.054,0.73,0.159c0.2,0.107,0.36,0.258,0.48,0.451s0.207,0.43,0.26,0.709
		c0.054,0.28,0.08,0.59,0.08,0.931V178.896z"/>
	<path fill="#D2D2D2" d="M197.01,175.807v-0.49h3.02v0.49H197.01z M197.01,176.957v-0.49h3.02v0.49H197.01z"/>
	<path fill="#D2D2D2" d="M201.15,178.896c0-0.227,0.02-0.455,0.06-0.686c0.04-0.229,0.118-0.457,0.235-0.685
		c0.117-0.227,0.283-0.444,0.5-0.655c0.217-0.209,0.505-0.408,0.865-0.595c0.193-0.101,0.395-0.198,0.605-0.295
		s0.403-0.205,0.58-0.325c0.176-0.119,0.321-0.255,0.435-0.404c0.113-0.15,0.17-0.326,0.17-0.525c0-0.127-0.029-0.252-0.085-0.375
		c-0.057-0.123-0.14-0.233-0.25-0.33c-0.11-0.097-0.247-0.175-0.41-0.234c-0.164-0.061-0.355-0.091-0.575-0.091
		c-0.22,0-0.417,0.032-0.59,0.095c-0.173,0.064-0.325,0.139-0.455,0.226s-0.242,0.179-0.335,0.274
		c-0.093,0.098-0.164,0.176-0.21,0.235l-0.45-0.489c0.04-0.041,0.117-0.113,0.23-0.221c0.113-0.106,0.262-0.213,0.445-0.32
		c0.183-0.105,0.398-0.201,0.645-0.285c0.247-0.082,0.523-0.125,0.83-0.125c0.306,0,0.58,0.043,0.82,0.125
		c0.24,0.084,0.443,0.199,0.61,0.346s0.293,0.314,0.38,0.505s0.13,0.388,0.13,0.595c0,0.273-0.061,0.51-0.18,0.711
		c-0.121,0.199-0.269,0.373-0.445,0.52c-0.177,0.146-0.365,0.271-0.565,0.375c-0.2,0.104-0.38,0.191-0.54,0.265
		c-0.213,0.094-0.422,0.198-0.625,0.315c-0.204,0.116-0.385,0.244-0.545,0.385c-0.16,0.141-0.292,0.297-0.395,0.47
		c-0.104,0.174-0.155,0.366-0.155,0.58h3.56v0.62H201.15z"/>
	<path fill="#D2D2D2" d="M209.48,180.166v-1.779h-3.33v-0.6l3.549-4.601h0.461v4.58h0.88v0.62h-0.88v1.779H209.48z M206.87,177.767
		h2.68v-3.511L206.87,177.767z"/>
	<path fill="#D2D2D2" d="M211.74,175.627c0-0.34,0.064-0.658,0.195-0.955c0.129-0.297,0.308-0.555,0.534-0.775s0.493-0.393,0.8-0.52
		s0.637-0.19,0.99-0.19c0.373,0,0.717,0.068,1.03,0.205s0.581,0.331,0.805,0.585s0.398,0.564,0.525,0.936
		c0.126,0.369,0.19,0.784,0.19,1.244c0,0.721-0.064,1.349-0.19,1.885c-0.127,0.537-0.306,0.984-0.535,1.34
		c-0.229,0.357-0.507,0.622-0.83,0.795c-0.323,0.174-0.679,0.261-1.065,0.261c-0.467,0-0.889-0.116-1.265-0.351
		c-0.376-0.232-0.661-0.557-0.854-0.969l0.439-0.4c0.141,0.34,0.361,0.611,0.665,0.814s0.642,0.305,1.015,0.305
		c0.294,0,0.561-0.069,0.801-0.209c0.24-0.141,0.446-0.342,0.619-0.605c0.174-0.264,0.307-0.586,0.4-0.971
		c0.094-0.383,0.144-0.82,0.15-1.314c-0.154,0.394-0.408,0.707-0.766,0.939c-0.356,0.234-0.762,0.351-1.215,0.351
		c-0.34,0-0.658-0.062-0.955-0.185s-0.555-0.293-0.775-0.51c-0.219-0.217-0.393-0.473-0.52-0.766S211.74,175.96,211.74,175.627z
		 M214.25,173.787c-0.254,0-0.492,0.048-0.715,0.145c-0.224,0.097-0.42,0.229-0.59,0.395c-0.17,0.167-0.306,0.361-0.405,0.586
		c-0.101,0.223-0.15,0.461-0.15,0.715c0,0.253,0.05,0.491,0.15,0.715c0.1,0.223,0.235,0.418,0.405,0.584
		c0.17,0.168,0.366,0.299,0.59,0.396c0.223,0.097,0.461,0.146,0.715,0.146c0.253,0,0.493-0.049,0.72-0.146s0.423-0.228,0.591-0.396
		c0.166-0.166,0.298-0.361,0.395-0.584c0.096-0.224,0.145-0.462,0.145-0.715c0-0.247-0.049-0.482-0.145-0.705
		c-0.097-0.224-0.23-0.42-0.4-0.59s-0.367-0.304-0.59-0.4C214.741,173.835,214.503,173.787,214.25,173.787z"/>
</g>
<g>
	<g>
		<g>
			<path fill="#D2D2D2" d="M144.91,113.68c0,0,1.996-4.16,4.988-10.402c2.977-6.25,7.014-14.548,11.045-22.85
				c2.004-4.156,4.006-8.312,5.885-12.21c0.961-1.937,1.847-3.832,2.769-5.587c0.91-1.762,1.749-3.438,2.574-4.959
				c1.621-3.059,3.001-5.592,3.996-7.351c0.993-1.76,1.562-2.765,1.562-2.765l0.988,0.498c0,0-0.471,1.054-1.295,2.899
				c-0.822,1.846-2.037,4.462-3.53,7.585c-0.733,1.568-1.58,3.239-2.454,5.019c-0.863,1.785-1.859,3.624-2.844,5.55
				c-2.016,3.828-4.166,7.91-6.314,11.994c-4.274,8.179-8.543,16.36-11.795,22.471c-3.237,6.119-5.395,10.197-5.395,10.197
				L144.91,113.68z"/>
			<g>
				<polygon fill="#D2D2D2" points="181.4,41.5 180.553,52.215 177.984,48.276 173.293,48.556 				"/>
			</g>
		</g>
	</g>
	<g>
		<g>
			<path fill="#D2D2D2" d="M145.006,118.012c0,0,1.838,0.016,4.596,0.037c2.758,0.01,6.434,0.061,10.108,0.143
				c1.837,0.031,3.675,0.062,5.397,0.093c1.725,0.012,3.332,0.022,4.709,0.075c1.377,0.064,2.521,0.164,3.321,0.25
				c0.8,0.082,1.258,0.129,1.258,0.129l-0.093,1.794c0,0-0.46-0.001-1.265-0.003c-0.806,0.003-1.954-0.018-3.329-0.094
				c-1.375-0.092-2.976-0.246-4.691-0.412c-1.717-0.149-3.547-0.309-5.379-0.467c-3.662-0.3-7.324-0.629-10.068-0.904
				c-2.745-0.264-4.576-0.438-4.576-0.438L145.006,118.012z"/>
			<g>
				<polygon fill="#D2D2D2" points="181.4,120 171.254,123.545 173.822,119.607 171.674,115.426 				"/>
			</g>
		</g>
	</g>
	<g>
		<g>
			<polygon fill="#D2D2D2" points="145.064,120.229 146.251,121.148 146.059,121.38 144.936,120.383 			"/>
			<polygon fill="#D2D2D2" points="147.844,122.381 150.232,124.229 149.822,124.723 147.564,122.717 			"/>
			<polygon fill="#D2D2D2" points="151.824,125.461 154.213,127.311 153.586,128.066 151.328,126.061 			"/>
			<polygon fill="#D2D2D2" points="155.796,128.555 158.168,130.422 157.375,131.379 155.102,129.393 			"/>
			<polygon fill="#D2D2D2" points="159.75,131.668 162.123,133.537 161.166,134.689 158.893,132.703 			"/>
			<polygon fill="#D2D2D2" points="163.704,134.782 166.084,136.643 164.95,138.009 162.684,136.014 			"/>
			<path fill="#D2D2D2" d="M167.678,137.872c0,0,0.596,0.466,1.189,0.931c0.59,0.471,1.18,0.941,1.18,0.941l-1.314,1.586
				c0,0-0.572-0.492-1.145-0.984c-0.566-0.5-1.134-0.998-1.134-0.998L167.678,137.872z"/>
			<path fill="#D2D2D2" d="M171.6,141.025c0,0,0.572,0.492,1.143,0.985c0.564,0.503,1.128,1.007,1.128,1.007l-1.216,1.465
				c0,0-0.598-0.461-1.195-0.922c-0.592-0.472-1.182-0.941-1.182-0.941L171.6,141.025z"/>
			<polygon fill="#D2D2D2" points="175.363,144.369 176.465,145.391 175.467,146.594 174.259,145.701 			"/>
			<g>
				<polygon fill="#D2D2D2" points="181.4,150.5 171.146,147.277 175.56,145.654 176.338,141.02 				"/>
			</g>
		</g>
	</g>
	<g>
		<g>
			<path fill="#D2D2D2" d="M145.088,122.452c0,0,2.145,3.762,5.361,9.403c3.23,5.634,7.475,13.182,11.721,20.727
				c2.137,3.766,4.272,7.532,6.275,11.062c0.984,1.772,1.965,3.474,2.834,5.117c0.866,1.646,1.716,3.187,2.445,4.637
				c1.488,2.888,2.697,5.31,3.523,7.016c0.82,1.71,1.288,2.688,1.288,2.688l-1.007,0.547c0,0-0.564-0.926-1.551-2.545
				c-0.98-1.623-2.352-3.957-3.961-6.776c-0.818-1.402-1.646-2.954-2.555-4.578c-0.904-1.625-1.796-3.373-2.746-5.166
				c-1.869-3.604-3.861-7.446-5.855-11.29c-4.011-7.673-8.025-15.345-10.987-21.124c-2.978-5.772-4.962-9.62-4.962-9.62
				L145.088,122.452z"/>
			<g>
				<polygon fill="#D2D2D2" points="181.4,189.58 173.082,182.773 177.781,182.91 180.227,178.896 				"/>
			</g>
		</g>
	</g>
	<g>
		<g>
			<path fill="#D2D2D2" d="M144.933,115.846c0,0,1.892-1.854,4.729-4.635c1.421-1.388,3.078-3.008,4.854-4.742
				c1.788-1.723,3.694-3.561,5.601-5.398c1.901-1.843,3.804-3.686,5.586-5.414c1.765-1.746,3.442-3.344,4.927-4.662
				c2.982-2.624,5.053-4.282,5.053-4.282l1.034,1.126c0,0-1.829,1.922-4.697,4.67c-1.44,1.366-3.175,2.901-5.065,4.512
				c-1.874,1.629-3.872,3.365-5.871,5.104c-1.993,1.742-3.986,3.485-5.855,5.119c-1.88,1.621-3.635,3.135-5.139,4.432
				c-3.012,2.592-5.021,4.318-5.021,4.318L144.933,115.846z"/>
			<g>
				<polygon fill="#D2D2D2" points="181.4,82.5 176.82,92.223 175.811,87.632 171.322,86.234 				"/>
			</g>
		</g>
	</g>
</g>
<g>
	<g>
		
			<line fill="none" stroke="#D2D2D2" stroke-width="1.5" stroke-linecap="round" stroke-miterlimit="10" x1="270" y1="30.973" x2="271" y2="30.973"/>
		
			<line fill="none" stroke="#D2D2D2" stroke-width="1.5" stroke-linecap="round" stroke-miterlimit="10" stroke-dasharray="2.125,3.1875" x1="274.188" y1="30.973" x2="277.906" y2="30.973"/>
		
			<line fill="none" stroke="#D2D2D2" stroke-width="1.5" stroke-linecap="round" stroke-miterlimit="10" x1="279.5" y1="30.973" x2="280.5" y2="30.973"/>
	</g>
</g>
<g>
	<g>
		
			<line fill="none" stroke="#D2D2D2" stroke-width="1.5" stroke-linecap="round" stroke-miterlimit="10" x1="270" y1="80.562" x2="271" y2="80.562"/>
		
			<line fill="none" stroke="#D2D2D2" stroke-width="1.5" stroke-linecap="round" stroke-miterlimit="10" stroke-dasharray="2.125,3.1875" x1="274.188" y1="80.562" x2="277.906" y2="80.562"/>
		
			<line fill="none" stroke="#D2D2D2" stroke-width="1.5" stroke-linecap="round" stroke-miterlimit="10" x1="279.5" y1="80.562" x2="280.5" y2="80.562"/>
	</g>
</g>
<g>
	<g>
		
			<line fill="none" stroke="#D2D2D2" stroke-width="1.5" stroke-linecap="round" stroke-miterlimit="10" x1="270" y1="121.586" x2="271" y2="121.586"/>
		
			<line fill="none" stroke="#D2D2D2" stroke-width="1.5" stroke-linecap="round" stroke-miterlimit="10" stroke-dasharray="2.125,3.1875" x1="274.188" y1="121.586" x2="277.906" y2="121.586"/>
		
			<line fill="none" stroke="#D2D2D2" stroke-width="1.5" stroke-linecap="round" stroke-miterlimit="10" x1="279.5" y1="121.586" x2="280.5" y2="121.586"/>
	</g>
</g>
<g>
	<g>
		
			<line fill="none" stroke="#D2D2D2" stroke-width="1.5" stroke-linecap="round" stroke-miterlimit="10" x1="371" y1="150.581" x2="371" y2="151.581"/>
		
			<line fill="none" stroke="#D2D2D2" stroke-width="1.5" stroke-linecap="round" stroke-miterlimit="10" stroke-dasharray="2.125,3.1875" x1="371" y1="154.769" x2="371" y2="158.487"/>
		
			<line fill="none" stroke="#D2D2D2" stroke-width="1.5" stroke-linecap="round" stroke-miterlimit="10" x1="371" y1="160.081" x2="371" y2="161.081"/>
	</g>
</g>
<g>
	<g>
		
			<line fill="none" stroke="#D2D2D2" stroke-width="1.5" stroke-linecap="round" stroke-miterlimit="10" x1="227.5" y1="150.581" x2="227.5" y2="151.581"/>
		
			<line fill="none" stroke="#D2D2D2" stroke-width="1.5" stroke-linecap="round" stroke-miterlimit="10" stroke-dasharray="2.125,3.1875" x1="227.5" y1="154.769" x2="227.5" y2="158.487"/>
		
			<line fill="none" stroke="#D2D2D2" stroke-width="1.5" stroke-linecap="round" stroke-miterlimit="10" x1="227.5" y1="160.081" x2="227.5" y2="161.081"/>
	</g>
</g>
<g>
	<g>
		
			<line fill="none" stroke="#D2D2D2" stroke-width="1.5" stroke-linecap="round" stroke-miterlimit="10" x1="270" y1="195.813" x2="271" y2="195.813"/>
		
			<line fill="none" stroke="#D2D2D2" stroke-width="1.5" stroke-linecap="round" stroke-miterlimit="10" stroke-dasharray="2.125,3.1875" x1="274.188" y1="195.813" x2="277.906" y2="195.813"/>
		
			<line fill="none" stroke="#D2D2D2" stroke-width="1.5" stroke-linecap="round" stroke-miterlimit="10" x1="279.5" y1="195.813" x2="280.5" y2="195.813"/>
	</g>
</g>
<g>
	<path fill="#D2D2D2" d="M370.742,31.63c-0.563,0-1.06-0.138-1.488-0.416c-0.43-0.277-0.77-0.628-1.021-1.053v4.108h-1.145v-9.555
		h1.014v1.274c0.269-0.416,0.618-0.751,1.047-1.007c0.429-0.255,0.903-0.383,1.424-0.383c0.468,0,0.896,0.095,1.287,0.286
		c0.39,0.191,0.728,0.449,1.014,0.774c0.286,0.325,0.509,0.7,0.67,1.124c0.16,0.425,0.24,0.867,0.24,1.326
		c0,0.485-0.074,0.942-0.221,1.372c-0.147,0.429-0.355,0.802-0.624,1.118c-0.27,0.316-0.59,0.567-0.963,0.754
		C371.604,31.537,371.192,31.63,370.742,31.63z M370.391,30.642c0.339,0,0.644-0.072,0.917-0.214
		c0.272-0.143,0.507-0.334,0.702-0.572c0.194-0.238,0.345-0.509,0.448-0.812c0.104-0.303,0.156-0.615,0.156-0.936
		c0-0.338-0.061-0.661-0.183-0.968c-0.121-0.308-0.285-0.577-0.493-0.806s-0.453-0.412-0.735-0.546
		c-0.281-0.134-0.587-0.202-0.916-0.202c-0.208,0-0.423,0.042-0.644,0.124c-0.221,0.083-0.429,0.191-0.624,0.325
		s-0.364,0.294-0.507,0.481c-0.144,0.187-0.236,0.383-0.279,0.591v1.937c0.095,0.226,0.216,0.436,0.363,0.63
		c0.147,0.195,0.316,0.364,0.508,0.507c0.19,0.143,0.394,0.255,0.61,0.338S370.157,30.642,370.391,30.642z"/>
	<path fill="#D2D2D2" d="M377.493,35.223v0.606h-2.721v-0.606h1.076v-2.956c-0.046,0.061-0.116,0.125-0.212,0.193
		c-0.097,0.068-0.204,0.131-0.322,0.189c-0.119,0.058-0.241,0.107-0.368,0.147c-0.126,0.041-0.237,0.061-0.333,0.061v-0.636
		c0.111,0,0.235-0.032,0.371-0.095c0.137-0.063,0.267-0.137,0.391-0.22c0.124-0.083,0.229-0.164,0.318-0.242
		c0.088-0.079,0.141-0.133,0.155-0.163h0.683v3.721H377.493z"/>
</g>
<g>
	<path fill="#D2D2D2" d="M366.872,22.196l2.574-5.291h0.962l2.561,5.291h-0.975l-2.067-4.264l-2.105,4.264H366.872z"/>
</g>
<g>
	<path fill="#D2D2D2" d="M370.742,83.312c-0.563,0-1.06-0.138-1.488-0.416c-0.43-0.277-0.77-0.628-1.021-1.053v4.108h-1.145v-9.555
		h1.014v1.274c0.269-0.416,0.618-0.751,1.047-1.007c0.429-0.255,0.903-0.383,1.424-0.383c0.468,0,0.896,0.095,1.287,0.286
		c0.39,0.191,0.728,0.449,1.014,0.774c0.286,0.325,0.509,0.7,0.67,1.124c0.16,0.425,0.24,0.867,0.24,1.326
		c0,0.485-0.074,0.942-0.221,1.372c-0.147,0.429-0.355,0.802-0.624,1.118c-0.27,0.316-0.59,0.567-0.963,0.754
		C371.604,83.219,371.192,83.312,370.742,83.312z M370.391,82.325c0.339,0,0.644-0.072,0.917-0.214
		c0.272-0.143,0.507-0.334,0.702-0.572c0.194-0.238,0.345-0.509,0.448-0.812c0.104-0.303,0.156-0.615,0.156-0.936
		c0-0.338-0.061-0.661-0.183-0.968c-0.121-0.308-0.285-0.577-0.493-0.806s-0.453-0.412-0.735-0.546
		c-0.281-0.134-0.587-0.202-0.916-0.202c-0.208,0-0.423,0.042-0.644,0.124c-0.221,0.083-0.429,0.191-0.624,0.325
		s-0.364,0.294-0.507,0.481c-0.144,0.187-0.236,0.383-0.279,0.591v1.937c0.095,0.226,0.216,0.436,0.363,0.63
		c0.147,0.195,0.316,0.364,0.508,0.507c0.19,0.143,0.394,0.255,0.61,0.338S370.157,82.325,370.391,82.325z"/>
	<path fill="#D2D2D2" d="M374.591,87.512c0-0.202,0.016-0.392,0.049-0.568s0.095-0.346,0.186-0.508s0.216-0.316,0.375-0.462
		s0.368-0.293,0.626-0.439c0.151-0.081,0.306-0.161,0.462-0.239s0.3-0.162,0.429-0.25s0.234-0.183,0.318-0.284
		c0.083-0.101,0.125-0.22,0.125-0.356c0-0.086-0.021-0.172-0.061-0.258c-0.041-0.086-0.099-0.162-0.175-0.227
		c-0.076-0.066-0.171-0.119-0.284-0.159s-0.244-0.061-0.391-0.061c-0.151,0-0.289,0.021-0.413,0.064
		c-0.123,0.043-0.233,0.096-0.329,0.159c-0.097,0.063-0.18,0.13-0.25,0.201c-0.071,0.071-0.129,0.134-0.175,0.189l-0.432-0.485
		c0.04-0.045,0.108-0.107,0.204-0.186c0.097-0.078,0.218-0.158,0.364-0.239c0.146-0.081,0.315-0.15,0.508-0.208
		c0.191-0.058,0.406-0.087,0.645-0.087c0.231,0,0.441,0.032,0.629,0.095c0.187,0.063,0.345,0.15,0.474,0.261
		c0.129,0.111,0.229,0.242,0.299,0.391c0.071,0.149,0.106,0.307,0.106,0.474c0,0.197-0.043,0.369-0.129,0.515
		c-0.086,0.147-0.19,0.275-0.314,0.387s-0.257,0.206-0.398,0.284c-0.141,0.079-0.268,0.146-0.379,0.201
		c-0.11,0.056-0.235,0.123-0.375,0.201c-0.139,0.078-0.271,0.167-0.397,0.265c-0.127,0.099-0.236,0.208-0.33,0.33
		s-0.152,0.253-0.178,0.394h2.584v0.606H374.591z"/>
</g>
<g>
	<path fill="#D2D2D2" d="M366.872,73.878l2.574-5.291h0.962l2.561,5.291h-0.975l-2.067-4.264l-2.105,4.264H366.872z"/>
</g>
<g>
	<path fill="#D2D2D2" d="M370.742,123.265c-0.563,0-1.06-0.138-1.488-0.416c-0.43-0.277-0.77-0.628-1.021-1.053v4.108h-1.145v-9.556
		h1.014v1.274c0.269-0.416,0.618-0.752,1.047-1.008s0.903-0.383,1.424-0.383c0.468,0,0.896,0.095,1.287,0.285
		c0.39,0.191,0.728,0.449,1.014,0.773c0.286,0.325,0.509,0.7,0.67,1.125c0.16,0.424,0.24,0.867,0.24,1.326
		c0,0.484-0.074,0.941-0.221,1.371c-0.147,0.43-0.355,0.802-0.624,1.118c-0.27,0.316-0.59,0.567-0.963,0.754
		C371.604,123.172,371.192,123.265,370.742,123.265z M370.391,122.277c0.339,0,0.644-0.072,0.917-0.215
		c0.272-0.143,0.507-0.334,0.702-0.572c0.194-0.238,0.345-0.509,0.448-0.812c0.104-0.303,0.156-0.615,0.156-0.936
		c0-0.338-0.061-0.661-0.183-0.969c-0.121-0.308-0.285-0.576-0.493-0.807c-0.208-0.229-0.453-0.411-0.735-0.545
		c-0.281-0.135-0.587-0.202-0.916-0.202c-0.208,0-0.423,0.042-0.644,0.124s-0.429,0.19-0.624,0.324
		c-0.195,0.135-0.364,0.295-0.507,0.481c-0.144,0.187-0.236,0.384-0.279,0.591v1.938c0.095,0.226,0.216,0.436,0.363,0.631
		s0.316,0.363,0.508,0.507c0.19,0.144,0.394,0.255,0.61,0.338S370.157,122.277,370.391,122.277z"/>
	<path fill="#D2D2D2" d="M376.978,125.676c0.323,0.055,0.58,0.204,0.77,0.447c0.189,0.242,0.284,0.543,0.284,0.901
		c0,0.232-0.043,0.444-0.129,0.637s-0.208,0.356-0.367,0.492c-0.159,0.137-0.351,0.241-0.572,0.315
		c-0.223,0.072-0.47,0.109-0.743,0.109c-0.384,0-0.721-0.072-1.012-0.217c-0.29-0.144-0.517-0.347-0.678-0.609l0.447-0.447
		c0.115,0.207,0.272,0.37,0.47,0.488c0.196,0.119,0.454,0.179,0.772,0.179c0.349,0,0.623-0.079,0.822-0.235
		c0.2-0.156,0.3-0.394,0.3-0.712s-0.107-0.572-0.322-0.762s-0.526-0.284-0.936-0.284h-0.197v-0.561h0.212
		c0.364,0,0.643-0.088,0.838-0.262c0.194-0.174,0.292-0.396,0.292-0.664c0-0.268-0.094-0.467-0.281-0.598
		c-0.187-0.132-0.422-0.197-0.704-0.197c-0.278,0-0.522,0.059-0.731,0.178c-0.21,0.119-0.373,0.284-0.489,0.496l-0.409-0.424
		c0.065-0.127,0.155-0.241,0.27-0.345c0.113-0.104,0.244-0.193,0.394-0.269c0.149-0.076,0.311-0.135,0.485-0.175
		c0.174-0.04,0.357-0.062,0.549-0.062c0.238,0,0.456,0.033,0.656,0.1c0.199,0.065,0.371,0.156,0.516,0.272
		c0.144,0.116,0.255,0.258,0.333,0.425c0.078,0.166,0.117,0.352,0.117,0.553c0,0.152-0.021,0.296-0.064,0.432
		c-0.043,0.137-0.105,0.261-0.189,0.372c-0.083,0.11-0.185,0.203-0.303,0.276C377.257,125.601,377.124,125.65,376.978,125.676z"/>
</g>
<g>
	<path fill="#D2D2D2" d="M366.872,113.83l2.574-5.291h0.962l2.561,5.291h-0.975l-2.067-4.264l-2.105,4.264H366.872z"/>
</g>
<g>
	<path fill="#D2D2D2" d="M370.742,197.626c-0.563,0-1.06-0.138-1.488-0.416c-0.43-0.277-0.77-0.628-1.021-1.053v4.108h-1.145v-9.556
		h1.014v1.274c0.269-0.416,0.618-0.752,1.047-1.008s0.903-0.383,1.424-0.383c0.468,0,0.896,0.095,1.287,0.285
		c0.39,0.191,0.728,0.449,1.014,0.773c0.286,0.325,0.509,0.7,0.67,1.125c0.16,0.424,0.24,0.867,0.24,1.326
		c0,0.484-0.074,0.941-0.221,1.371c-0.147,0.43-0.355,0.802-0.624,1.118c-0.27,0.316-0.59,0.567-0.963,0.754
		C371.604,197.533,371.192,197.626,370.742,197.626z M370.391,196.639c0.339,0,0.644-0.072,0.917-0.215
		c0.272-0.143,0.507-0.334,0.702-0.572c0.194-0.238,0.345-0.509,0.448-0.812c0.104-0.303,0.156-0.615,0.156-0.936
		c0-0.338-0.061-0.661-0.183-0.969c-0.121-0.308-0.285-0.576-0.493-0.807c-0.208-0.229-0.453-0.411-0.735-0.545
		c-0.281-0.135-0.587-0.202-0.916-0.202c-0.208,0-0.423,0.042-0.644,0.124s-0.429,0.19-0.624,0.324
		c-0.195,0.135-0.364,0.295-0.507,0.481c-0.144,0.187-0.236,0.384-0.279,0.591v1.938c0.095,0.226,0.216,0.436,0.363,0.631
		s0.316,0.363,0.508,0.507c0.19,0.144,0.394,0.255,0.61,0.338S370.157,196.639,370.391,196.639z"/>
	<path fill="#D2D2D2" d="M377.493,201.219v0.606h-2.721v-0.606h1.076v-2.955c-0.046,0.061-0.116,0.125-0.212,0.193
		c-0.097,0.067-0.204,0.131-0.322,0.189c-0.119,0.058-0.241,0.107-0.368,0.146c-0.126,0.041-0.237,0.061-0.333,0.061v-0.636
		c0.111,0,0.235-0.032,0.371-0.095c0.137-0.063,0.267-0.137,0.391-0.221c0.124-0.082,0.229-0.164,0.318-0.242
		c0.088-0.078,0.141-0.133,0.155-0.162h0.683v3.721H377.493z"/>
	<path fill="#D2D2D2" d="M381.919,199.604c0,0.333-0.048,0.641-0.144,0.921c-0.097,0.28-0.23,0.523-0.402,0.728
		s-0.375,0.364-0.609,0.478c-0.235,0.113-0.489,0.17-0.762,0.17c-0.278,0-0.535-0.057-0.77-0.17
		c-0.235-0.113-0.438-0.273-0.606-0.478s-0.302-0.447-0.397-0.728c-0.097-0.28-0.145-0.588-0.145-0.921s0.048-0.64,0.145-0.921
		c0.096-0.28,0.229-0.523,0.397-0.728s0.371-0.364,0.606-0.481c0.234-0.115,0.491-0.174,0.77-0.174c0.272,0,0.526,0.059,0.762,0.174
		c0.234,0.117,0.438,0.277,0.609,0.481s0.306,0.447,0.402,0.728C381.871,198.965,381.919,199.271,381.919,199.604z M381.244,199.604
		c0-0.247-0.03-0.475-0.091-0.683c-0.061-0.207-0.146-0.385-0.258-0.533c-0.11-0.149-0.242-0.265-0.394-0.346
		c-0.151-0.08-0.318-0.121-0.5-0.121c-0.188,0-0.358,0.041-0.512,0.121c-0.154,0.081-0.286,0.196-0.395,0.346
		c-0.108,0.148-0.193,0.326-0.254,0.533c-0.061,0.208-0.091,0.436-0.091,0.683c0,0.253,0.03,0.481,0.091,0.687
		c0.061,0.204,0.146,0.38,0.254,0.526s0.24,0.261,0.395,0.341c0.153,0.081,0.324,0.121,0.512,0.121c0.182,0,0.349-0.04,0.5-0.121
		c0.151-0.08,0.283-0.194,0.394-0.341c0.111-0.146,0.197-0.322,0.258-0.526C381.214,200.086,381.244,199.857,381.244,199.604z"/>
	<path fill="#D2D2D2" d="M386.572,199.604c0,0.333-0.048,0.641-0.144,0.921c-0.097,0.28-0.23,0.523-0.402,0.728
		s-0.375,0.364-0.609,0.478c-0.235,0.113-0.489,0.17-0.762,0.17c-0.278,0-0.535-0.057-0.77-0.17
		c-0.235-0.113-0.438-0.273-0.606-0.478s-0.302-0.447-0.397-0.728c-0.097-0.28-0.145-0.588-0.145-0.921s0.048-0.64,0.145-0.921
		c0.096-0.28,0.229-0.523,0.397-0.728s0.371-0.364,0.606-0.481c0.234-0.115,0.491-0.174,0.77-0.174c0.272,0,0.526,0.059,0.762,0.174
		c0.234,0.117,0.438,0.277,0.609,0.481s0.306,0.447,0.402,0.728C386.524,198.965,386.572,199.271,386.572,199.604z M385.897,199.604
		c0-0.247-0.03-0.475-0.091-0.683c-0.061-0.207-0.146-0.385-0.258-0.533c-0.11-0.149-0.242-0.265-0.394-0.346
		c-0.151-0.08-0.318-0.121-0.5-0.121c-0.188,0-0.358,0.041-0.512,0.121c-0.154,0.081-0.286,0.196-0.395,0.346
		c-0.108,0.148-0.193,0.326-0.254,0.533c-0.061,0.208-0.091,0.436-0.091,0.683c0,0.253,0.03,0.481,0.091,0.687
		c0.061,0.204,0.146,0.38,0.254,0.526s0.24,0.261,0.395,0.341c0.153,0.081,0.324,0.121,0.512,0.121c0.182,0,0.349-0.04,0.5-0.121
		c0.151-0.08,0.283-0.194,0.394-0.341c0.111-0.146,0.197-0.322,0.258-0.526C385.867,200.086,385.897,199.857,385.897,199.604z"/>
	<path fill="#D2D2D2" d="M391.226,199.604c0,0.333-0.048,0.641-0.144,0.921c-0.097,0.28-0.23,0.523-0.402,0.728
		s-0.375,0.364-0.609,0.478c-0.235,0.113-0.489,0.17-0.762,0.17c-0.278,0-0.535-0.057-0.77-0.17
		c-0.235-0.113-0.438-0.273-0.606-0.478s-0.302-0.447-0.397-0.728c-0.097-0.28-0.145-0.588-0.145-0.921s0.048-0.64,0.145-0.921
		c0.096-0.28,0.229-0.523,0.397-0.728s0.371-0.364,0.606-0.481c0.234-0.115,0.491-0.174,0.77-0.174c0.272,0,0.526,0.059,0.762,0.174
		c0.234,0.117,0.438,0.277,0.609,0.481s0.306,0.447,0.402,0.728C391.178,198.965,391.226,199.271,391.226,199.604z M390.551,199.604
		c0-0.247-0.03-0.475-0.091-0.683c-0.061-0.207-0.146-0.385-0.258-0.533c-0.11-0.149-0.242-0.265-0.394-0.346
		c-0.151-0.08-0.318-0.121-0.5-0.121c-0.188,0-0.358,0.041-0.512,0.121c-0.154,0.081-0.286,0.196-0.395,0.346
		c-0.108,0.148-0.193,0.326-0.254,0.533c-0.061,0.208-0.091,0.436-0.091,0.683c0,0.253,0.03,0.481,0.091,0.687
		c0.061,0.204,0.146,0.38,0.254,0.526s0.24,0.261,0.395,0.341c0.153,0.081,0.324,0.121,0.512,0.121c0.182,0,0.349-0.04,0.5-0.121
		c0.151-0.08,0.283-0.194,0.394-0.341c0.111-0.146,0.197-0.322,0.258-0.526C390.521,200.086,390.551,199.857,390.551,199.604z"/>
	<path fill="#D2D2D2" d="M395.879,199.604c0,0.333-0.048,0.641-0.144,0.921c-0.097,0.28-0.23,0.523-0.402,0.728
		s-0.375,0.364-0.609,0.478c-0.235,0.113-0.489,0.17-0.762,0.17c-0.278,0-0.535-0.057-0.77-0.17
		c-0.235-0.113-0.438-0.273-0.606-0.478s-0.302-0.447-0.397-0.728c-0.097-0.28-0.145-0.588-0.145-0.921s0.048-0.64,0.145-0.921
		c0.096-0.28,0.229-0.523,0.397-0.728s0.371-0.364,0.606-0.481c0.234-0.115,0.491-0.174,0.77-0.174c0.272,0,0.526,0.059,0.762,0.174
		c0.234,0.117,0.438,0.277,0.609,0.481s0.306,0.447,0.402,0.728C395.831,198.965,395.879,199.271,395.879,199.604z M395.204,199.604
		c0-0.247-0.03-0.475-0.091-0.683c-0.061-0.207-0.146-0.385-0.258-0.533c-0.11-0.149-0.242-0.265-0.394-0.346
		c-0.151-0.08-0.318-0.121-0.5-0.121c-0.188,0-0.358,0.041-0.512,0.121c-0.154,0.081-0.286,0.196-0.395,0.346
		c-0.108,0.148-0.193,0.326-0.254,0.533c-0.061,0.208-0.091,0.436-0.091,0.683c0,0.253,0.03,0.481,0.091,0.687
		c0.061,0.204,0.146,0.38,0.254,0.526s0.24,0.261,0.395,0.341c0.153,0.081,0.324,0.121,0.512,0.121c0.182,0,0.349-0.04,0.5-0.121
		c0.151-0.08,0.283-0.194,0.394-0.341c0.111-0.146,0.197-0.322,0.258-0.526C395.174,200.086,395.204,199.857,395.204,199.604z"/>
</g>
<g>
	<path fill="#D2D2D2" d="M366.872,188.191l2.574-5.291h0.962l2.561,5.291h-0.975l-2.067-4.264l-2.105,4.264H366.872z"/>
</g>
<g>
</g>
<g>
</g>
<g>
</g>
<g>
</g>
<g>
</g>
<g>
</g>
</svg>
