<?xml version="1.0" encoding="utf-8"?>
<!-- Generator: Adobe Illustrator 16.0.4, SVG Export Plug-In . SVG Version: 6.00 Build 0)  -->
<!DOCTYPE svg PUBLIC "-//W3C//DTD SVG 1.1//EN" "http://www.w3.org/Graphics/SVG/1.1/DTD/svg11.dtd">
<svg version="1.1" id="Layer_1" xmlns="http://www.w3.org/2000/svg" xmlns:xlink="http://www.w3.org/1999/xlink" x="0px" y="0px"
	 width="399px" height="233.5px" viewBox="0 0 399 233.5" enable-background="new 0 0 399 233.5" xml:space="preserve">
<circle fill="#FFFFB3" cx="93.233" cy="185.448" r="11.618"/>
<circle fill="#FFFFB3" cx="299.812" cy="99.065" r="11.618"/>
<circle fill="#2E8EFF" cx="53.481" cy="121.376" r="11.617"/>
<circle fill="#2E8EFF" cx="299.811" cy="48.555" r="11.618"/>
<circle fill="#80B1D3" cx="95.985" cy="78.752" r="11.617"/>
<circle fill="#80B1D3" cx="226.159" cy="140.727" r="11.617"/>
<circle fill="#BEBADA" cx="111.569" cy="159.064" r="11.617"/>
<circle fill="#0FDB46" cx="200.384" cy="99.066" r="11.617"/>
<circle fill="#0FDB46" cx="23.117" cy="109.758" r="11.617"/>
<circle fill="#0FDB46" cx="226.159" cy="213.905" r="11.617"/>
<circle fill="#FFED6F" cx="65.099" cy="94.464" r="11.617"/>
<circle fill="#FFED6F" cx="299.811" cy="213.905" r="11.617"/>
<circle fill="#FFED6F" cx="252.979" cy="213.905" r="11.617"/>
<circle fill="#FFED6F" cx="226.16" cy="48.555" r="11.618"/>
<circle fill="#FCCDE5" cx="65.099" cy="173.831" r="11.617"/>
<circle fill="#FCCDE5" cx="200.384" cy="213.905" r="11.618"/>
<circle fill="#BC80BD" cx="252.979" cy="99.066" r="11.617"/>
<circle fill="#BC80BD" cx="69.478" cy="144.152" r="11.617"/>
<circle fill="#BC80BD" cx="226.159" cy="99.066" r="11.617"/>
<circle fill="#B3DE69" cx="99.951" cy="121.375" r="11.617"/>
<circle fill="#B3DE69" cx="326.37" cy="99.066" r="11.617"/>
<circle fill="#FB8072" cx="35.734" cy="180.805" r="11.617"/>
<circle fill="#FB8072" cx="326.371" cy="140.727" r="11.617"/>
<circle fill="#FB8072" cx="299.812" cy="140.727" r="11.617"/>
<circle fill="#FB8072" cx="200.384" cy="140.727" r="11.617"/>
<circle fill="#8C8C8C" cx="25.102" cy="150.08" r="11.617"/>
<circle fill="#8C8C8C" cx="252.979" cy="140.728" r="11.617"/>
<circle fill="#8C8C8C" cx="326.37" cy="48.555" r="11.617"/>
<circle fill="#8DD3C7" cx="35.734" cy="77.173" r="11.617"/>
<circle fill="#8DD3C7" cx="200.384" cy="48.555" r="11.617"/>
<circle fill="#FF8BA1" cx="121.021" cy="101.987" r="11.617"/>
<circle fill="#FF8BA1" cx="326.371" cy="213.905" r="11.617"/>
<circle fill="#FF8BA1" cx="252.979" cy="48.555" r="11.617"/>
<path fill="none" stroke="#636C72" stroke-width="2" d="M138,192.929c0,6.114-4.783,11.071-10.684,11.071H18.184
	c-5.9,0-10.684-4.957-10.684-11.071V70.071C7.5,63.957,12.283,59,18.184,59h109.133c5.9,0,10.684,4.957,10.684,11.071V192.929z"/>
<g>
	<path fill="#D2D2D2" d="M18.48,51.1c-0.407,0-0.803-0.067-1.19-0.2s-0.72-0.327-1-0.58l0.31-0.46c0.293,0.24,0.591,0.42,0.895,0.54
		c0.303,0.12,0.628,0.18,0.975,0.18c0.42,0,0.755-0.085,1.005-0.255c0.25-0.17,0.375-0.412,0.375-0.725
		c0-0.146-0.034-0.269-0.1-0.365c-0.067-0.096-0.165-0.182-0.295-0.255s-0.293-0.138-0.49-0.195S18.54,48.67,18.28,48.61
		c-0.3-0.073-0.56-0.146-0.78-0.22s-0.402-0.157-0.545-0.25c-0.144-0.093-0.25-0.208-0.32-0.345
		c-0.07-0.137-0.105-0.308-0.105-0.515c0-0.26,0.052-0.49,0.155-0.69c0.103-0.2,0.243-0.365,0.42-0.495
		c0.177-0.13,0.383-0.229,0.62-0.295c0.236-0.066,0.488-0.1,0.755-0.1c0.4,0,0.763,0.065,1.09,0.195s0.59,0.302,0.79,0.515
		l-0.33,0.4c-0.193-0.2-0.428-0.35-0.705-0.45c-0.277-0.1-0.565-0.15-0.865-0.15c-0.18,0-0.347,0.019-0.5,0.055
		s-0.289,0.095-0.405,0.175c-0.117,0.08-0.208,0.182-0.275,0.305c-0.066,0.124-0.1,0.269-0.1,0.435c0,0.14,0.023,0.253,0.07,0.34
		c0.046,0.087,0.123,0.162,0.23,0.225c0.106,0.063,0.242,0.12,0.405,0.17c0.164,0.05,0.362,0.102,0.595,0.155
		c0.333,0.08,0.626,0.16,0.88,0.24s0.465,0.173,0.635,0.28c0.17,0.107,0.298,0.237,0.385,0.39c0.087,0.153,0.13,0.34,0.13,0.56
		c0,0.48-0.183,0.86-0.55,1.14C19.593,50.96,19.1,51.1,18.48,51.1z"/>
	<path fill="#D2D2D2" d="M21.62,44.7v-1h0.68v1H21.62z M21.62,51v-5.21h0.68V51H21.62z"/>
	<path fill="#D2D2D2" d="M23.36,50.54l3.52-4.24h-3.44v-0.51h4.18v0.46l-3.51,4.24h3.5V51h-4.25V50.54z"/>
	<path fill="#D2D2D2" d="M30.83,51.1c-0.38,0-0.729-0.072-1.045-0.215c-0.317-0.143-0.592-0.34-0.825-0.59s-0.415-0.538-0.545-0.865
		s-0.195-0.677-0.195-1.05c0-0.366,0.065-0.711,0.195-1.035c0.13-0.324,0.31-0.607,0.54-0.85s0.505-0.437,0.825-0.58
		c0.32-0.144,0.667-0.215,1.04-0.215c0.38,0,0.728,0.071,1.045,0.215c0.316,0.144,0.588,0.338,0.815,0.585
		c0.227,0.247,0.403,0.53,0.53,0.85c0.126,0.32,0.19,0.66,0.19,1.02c0,0.053,0,0.106,0,0.16c0,0.054-0.003,0.09-0.01,0.11h-4.46
		c0.02,0.28,0.085,0.538,0.195,0.775s0.251,0.442,0.425,0.615c0.173,0.174,0.372,0.309,0.595,0.405s0.461,0.145,0.715,0.145
		c0.167,0,0.333-0.023,0.5-0.07c0.167-0.046,0.32-0.11,0.46-0.19c0.14-0.08,0.266-0.178,0.38-0.295
		c0.113-0.117,0.2-0.245,0.26-0.385l0.59,0.16c-0.08,0.194-0.194,0.369-0.34,0.525s-0.316,0.293-0.51,0.41
		c-0.193,0.117-0.407,0.207-0.64,0.27C31.327,51.068,31.083,51.1,30.83,51.1z M32.75,48.12c-0.02-0.28-0.085-0.535-0.195-0.765
		s-0.25-0.428-0.42-0.595c-0.17-0.167-0.367-0.296-0.59-0.39c-0.223-0.093-0.461-0.14-0.715-0.14s-0.494,0.047-0.72,0.14
		s-0.425,0.223-0.595,0.39c-0.17,0.167-0.307,0.367-0.41,0.6c-0.104,0.233-0.165,0.487-0.185,0.76H32.75z"/>
	<path fill="#D2D2D2" d="M41.379,51H40.7v-2.91c0-0.62-0.092-1.07-0.275-1.35c-0.183-0.28-0.465-0.42-0.845-0.42
		c-0.2,0-0.4,0.037-0.6,0.11s-0.385,0.177-0.555,0.31c-0.17,0.133-0.321,0.292-0.455,0.475c-0.134,0.184-0.23,0.382-0.29,0.595V51
		H37v-5.21h0.62v1.18c0.213-0.38,0.518-0.687,0.915-0.92c0.396-0.233,0.828-0.35,1.295-0.35c0.287,0,0.53,0.053,0.73,0.16
		c0.2,0.107,0.36,0.257,0.48,0.45s0.207,0.43,0.26,0.71c0.054,0.28,0.08,0.59,0.08,0.93V51z"/>
</g>
<g>
	<path fill="#D2D2D2" d="M191.48,33.6c-0.407,0-0.803-0.067-1.19-0.2s-0.72-0.327-1-0.58l0.31-0.46
		c0.293,0.24,0.591,0.42,0.895,0.54c0.303,0.12,0.628,0.18,0.975,0.18c0.42,0,0.755-0.085,1.005-0.255
		c0.25-0.17,0.375-0.412,0.375-0.725c0-0.146-0.034-0.269-0.1-0.365c-0.067-0.096-0.165-0.182-0.295-0.255s-0.293-0.138-0.49-0.195
		s-0.425-0.115-0.685-0.175c-0.3-0.073-0.56-0.146-0.78-0.22s-0.402-0.157-0.545-0.25c-0.144-0.093-0.25-0.208-0.32-0.345
		c-0.07-0.137-0.105-0.308-0.105-0.515c0-0.26,0.052-0.49,0.155-0.69c0.103-0.2,0.243-0.365,0.42-0.495
		c0.177-0.13,0.383-0.229,0.62-0.295c0.236-0.066,0.488-0.1,0.755-0.1c0.4,0,0.763,0.065,1.09,0.195s0.59,0.302,0.79,0.515
		l-0.33,0.4c-0.193-0.2-0.428-0.35-0.705-0.45c-0.277-0.1-0.565-0.15-0.865-0.15c-0.18,0-0.347,0.019-0.5,0.055
		s-0.289,0.095-0.405,0.175c-0.117,0.08-0.208,0.182-0.275,0.305c-0.066,0.124-0.1,0.269-0.1,0.435c0,0.14,0.023,0.253,0.07,0.34
		c0.046,0.087,0.123,0.162,0.23,0.225c0.106,0.063,0.242,0.12,0.405,0.17c0.164,0.05,0.362,0.102,0.595,0.155
		c0.333,0.08,0.626,0.16,0.88,0.24s0.465,0.173,0.635,0.28c0.17,0.107,0.298,0.237,0.385,0.39c0.087,0.153,0.13,0.34,0.13,0.56
		c0,0.48-0.183,0.86-0.55,1.14C192.593,33.46,192.1,33.6,191.48,33.6z"/>
	<path fill="#D2D2D2" d="M194.62,27.2v-1h0.68v1H194.62z M194.62,33.5v-5.21h0.68v5.21H194.62z"/>
	<path fill="#D2D2D2" d="M196.36,33.04l3.52-4.24h-3.44v-0.51h4.18v0.46l-3.51,4.24h3.5v0.51h-4.25V33.04z"/>
	<path fill="#D2D2D2" d="M203.83,33.6c-0.38,0-0.729-0.072-1.045-0.215c-0.317-0.143-0.592-0.34-0.825-0.59
		s-0.415-0.538-0.545-0.865s-0.195-0.677-0.195-1.05c0-0.366,0.065-0.711,0.195-1.035c0.13-0.324,0.31-0.607,0.54-0.85
		s0.505-0.437,0.825-0.58c0.32-0.144,0.667-0.215,1.04-0.215c0.38,0,0.728,0.071,1.045,0.215c0.316,0.144,0.588,0.338,0.814,0.585
		s0.404,0.53,0.53,0.85c0.126,0.32,0.19,0.66,0.19,1.02c0,0.053,0,0.106,0,0.16c0,0.054-0.004,0.09-0.01,0.11h-4.46
		c0.02,0.28,0.085,0.538,0.195,0.775s0.251,0.442,0.425,0.615c0.173,0.174,0.372,0.309,0.595,0.405s0.461,0.145,0.715,0.145
		c0.167,0,0.333-0.023,0.5-0.07c0.167-0.046,0.32-0.11,0.46-0.19c0.14-0.08,0.266-0.178,0.38-0.295
		c0.113-0.117,0.2-0.245,0.26-0.385l0.591,0.16c-0.08,0.194-0.194,0.369-0.341,0.525s-0.316,0.293-0.51,0.41
		c-0.193,0.117-0.407,0.207-0.64,0.27C204.327,33.568,204.083,33.6,203.83,33.6z M205.75,30.62c-0.02-0.28-0.085-0.535-0.195-0.765
		c-0.109-0.23-0.25-0.428-0.42-0.595c-0.17-0.167-0.366-0.296-0.59-0.39c-0.223-0.093-0.461-0.14-0.715-0.14s-0.494,0.047-0.72,0.14
		s-0.425,0.223-0.595,0.39c-0.17,0.167-0.307,0.367-0.41,0.6c-0.104,0.233-0.165,0.487-0.185,0.76H205.75z"/>
	<path fill="#D2D2D2" d="M214.379,33.5h-0.68v-2.91c0-0.62-0.092-1.07-0.275-1.35c-0.183-0.28-0.465-0.42-0.844-0.42
		c-0.201,0-0.4,0.037-0.601,0.11s-0.385,0.177-0.556,0.31c-0.17,0.133-0.32,0.292-0.454,0.475c-0.134,0.184-0.229,0.382-0.29,0.595
		v3.19H210v-5.21h0.619v1.18c0.214-0.38,0.519-0.687,0.916-0.92c0.396-0.233,0.828-0.35,1.295-0.35c0.286,0,0.529,0.053,0.729,0.16
		c0.2,0.107,0.36,0.257,0.479,0.45c0.121,0.193,0.207,0.43,0.26,0.71c0.055,0.28,0.08,0.59,0.08,0.93V33.5z"/>
</g>
<g>
	<path fill="#D2D2D2" d="M191.246,82.947c-0.407,0-0.803-0.067-1.19-0.2s-0.72-0.327-1-0.58l0.31-0.46
		c0.293,0.24,0.591,0.42,0.895,0.54c0.303,0.12,0.628,0.18,0.975,0.18c0.42,0,0.755-0.085,1.005-0.255
		c0.25-0.17,0.375-0.412,0.375-0.725c0-0.146-0.034-0.269-0.1-0.365c-0.067-0.096-0.165-0.182-0.295-0.255s-0.293-0.138-0.49-0.195
		s-0.425-0.115-0.685-0.175c-0.3-0.073-0.56-0.146-0.78-0.22s-0.402-0.157-0.545-0.25c-0.144-0.093-0.25-0.208-0.32-0.345
		c-0.07-0.137-0.105-0.308-0.105-0.515c0-0.26,0.052-0.49,0.155-0.69c0.103-0.2,0.243-0.365,0.42-0.495
		c0.177-0.13,0.383-0.229,0.62-0.295c0.236-0.066,0.488-0.1,0.755-0.1c0.4,0,0.763,0.065,1.09,0.195s0.59,0.302,0.79,0.515
		l-0.33,0.4c-0.193-0.2-0.428-0.35-0.705-0.45c-0.277-0.1-0.565-0.15-0.865-0.15c-0.18,0-0.347,0.019-0.5,0.055
		s-0.289,0.095-0.405,0.175c-0.117,0.08-0.208,0.182-0.275,0.305c-0.066,0.124-0.1,0.269-0.1,0.435c0,0.14,0.023,0.253,0.07,0.34
		c0.046,0.087,0.123,0.162,0.23,0.225c0.106,0.063,0.242,0.12,0.405,0.17c0.164,0.05,0.362,0.102,0.595,0.155
		c0.333,0.08,0.626,0.16,0.88,0.24s0.465,0.173,0.635,0.28c0.17,0.107,0.298,0.237,0.385,0.39c0.087,0.153,0.13,0.34,0.13,0.56
		c0,0.48-0.183,0.86-0.55,1.14C192.359,82.807,191.866,82.947,191.246,82.947z"/>
	<path fill="#D2D2D2" d="M194.386,76.547v-1h0.68v1H194.386z M194.386,82.847v-5.21h0.68v5.21H194.386z"/>
	<path fill="#D2D2D2" d="M196.126,82.387l3.52-4.24h-3.44v-0.51h4.18v0.46l-3.51,4.24h3.5v0.51h-4.25V82.387z"/>
	<path fill="#D2D2D2" d="M203.596,82.947c-0.38,0-0.729-0.072-1.045-0.215c-0.317-0.143-0.592-0.34-0.825-0.59
		s-0.415-0.538-0.545-0.865s-0.195-0.677-0.195-1.05c0-0.366,0.065-0.711,0.195-1.035c0.13-0.324,0.31-0.607,0.54-0.85
		s0.505-0.437,0.825-0.58c0.32-0.144,0.667-0.215,1.04-0.215c0.38,0,0.728,0.071,1.045,0.215c0.316,0.144,0.587,0.338,0.815,0.585
		c0.227,0.247,0.403,0.53,0.53,0.85c0.126,0.32,0.189,0.66,0.189,1.02c0,0.053,0,0.106,0,0.16c0,0.054-0.004,0.09-0.01,0.11h-4.46
		c0.02,0.28,0.085,0.538,0.195,0.775s0.251,0.442,0.425,0.615c0.173,0.174,0.372,0.309,0.595,0.405s0.461,0.145,0.715,0.145
		c0.167,0,0.333-0.023,0.5-0.07c0.167-0.046,0.32-0.11,0.46-0.19c0.14-0.08,0.266-0.178,0.38-0.295s0.2-0.245,0.26-0.385l0.59,0.16
		c-0.08,0.194-0.193,0.369-0.34,0.525s-0.316,0.293-0.51,0.41c-0.193,0.117-0.407,0.207-0.64,0.27
		C204.093,82.915,203.85,82.947,203.596,82.947z M205.516,79.967c-0.02-0.28-0.084-0.535-0.194-0.765s-0.25-0.428-0.42-0.595
		c-0.17-0.167-0.367-0.296-0.59-0.39c-0.223-0.093-0.461-0.14-0.715-0.14s-0.494,0.047-0.72,0.14s-0.425,0.223-0.595,0.39
		c-0.17,0.167-0.307,0.367-0.41,0.6c-0.104,0.233-0.165,0.487-0.185,0.76H205.516z"/>
	<path fill="#D2D2D2" d="M214.146,82.847h-0.68v-2.91c0-0.62-0.092-1.07-0.275-1.35c-0.183-0.28-0.465-0.42-0.845-0.42
		c-0.2,0-0.4,0.037-0.6,0.11c-0.201,0.073-0.385,0.177-0.556,0.31c-0.17,0.133-0.321,0.292-0.454,0.475
		c-0.135,0.184-0.23,0.382-0.291,0.595v3.19h-0.68v-5.21h0.62v1.18c0.214-0.38,0.519-0.687,0.915-0.92
		c0.396-0.233,0.828-0.35,1.295-0.35c0.287,0,0.529,0.053,0.73,0.16c0.199,0.107,0.359,0.257,0.479,0.45s0.206,0.43,0.26,0.71
		s0.08,0.59,0.08,0.93V82.847z"/>
</g>
<g>
	<path fill="#D2D2D2" d="M191.48,125.476c-0.407,0-0.803-0.067-1.19-0.2s-0.72-0.327-1-0.58l0.31-0.46
		c0.293,0.24,0.591,0.42,0.895,0.54c0.303,0.12,0.628,0.18,0.975,0.18c0.42,0,0.755-0.085,1.005-0.255
		c0.25-0.17,0.375-0.412,0.375-0.725c0-0.146-0.034-0.269-0.1-0.365c-0.067-0.096-0.165-0.182-0.295-0.255s-0.293-0.138-0.49-0.195
		s-0.425-0.115-0.685-0.175c-0.3-0.073-0.56-0.146-0.78-0.22s-0.402-0.157-0.545-0.25c-0.144-0.093-0.25-0.208-0.32-0.345
		c-0.07-0.137-0.105-0.308-0.105-0.515c0-0.26,0.052-0.49,0.155-0.69c0.103-0.2,0.243-0.365,0.42-0.495
		c0.177-0.13,0.383-0.229,0.62-0.295c0.236-0.066,0.488-0.1,0.755-0.1c0.4,0,0.763,0.065,1.09,0.195s0.59,0.302,0.79,0.515
		l-0.33,0.4c-0.193-0.2-0.428-0.35-0.705-0.45c-0.277-0.1-0.565-0.15-0.865-0.15c-0.18,0-0.347,0.019-0.5,0.055
		s-0.289,0.095-0.405,0.175c-0.117,0.08-0.208,0.182-0.275,0.305c-0.066,0.124-0.1,0.269-0.1,0.435c0,0.14,0.023,0.253,0.07,0.34
		c0.046,0.087,0.123,0.162,0.23,0.225c0.106,0.063,0.242,0.12,0.405,0.17c0.164,0.05,0.362,0.102,0.595,0.155
		c0.333,0.08,0.626,0.16,0.88,0.24s0.465,0.173,0.635,0.28c0.17,0.107,0.298,0.237,0.385,0.39c0.087,0.153,0.13,0.34,0.13,0.56
		c0,0.48-0.183,0.86-0.55,1.14C192.593,125.336,192.1,125.476,191.48,125.476z"/>
	<path fill="#D2D2D2" d="M194.62,119.076v-1h0.68v1H194.62z M194.62,125.376v-5.21h0.68v5.21H194.62z"/>
	<path fill="#D2D2D2" d="M196.36,124.916l3.52-4.24h-3.44v-0.51h4.18v0.46l-3.51,4.24h3.5v0.51h-4.25V124.916z"/>
	<path fill="#D2D2D2" d="M203.83,125.476c-0.38,0-0.729-0.072-1.045-0.215c-0.317-0.143-0.592-0.34-0.825-0.59
		s-0.415-0.538-0.545-0.865s-0.195-0.677-0.195-1.05c0-0.366,0.065-0.711,0.195-1.035c0.13-0.324,0.31-0.607,0.54-0.85
		s0.505-0.437,0.825-0.58c0.32-0.144,0.667-0.215,1.04-0.215c0.38,0,0.728,0.071,1.045,0.215c0.316,0.144,0.588,0.338,0.814,0.585
		s0.404,0.53,0.53,0.85c0.126,0.32,0.19,0.66,0.19,1.02c0,0.053,0,0.106,0,0.16c0,0.054-0.004,0.09-0.01,0.11h-4.46
		c0.02,0.28,0.085,0.538,0.195,0.775s0.251,0.442,0.425,0.615c0.173,0.174,0.372,0.309,0.595,0.405s0.461,0.145,0.715,0.145
		c0.167,0,0.333-0.023,0.5-0.07c0.167-0.046,0.32-0.11,0.46-0.19c0.14-0.08,0.266-0.178,0.38-0.295
		c0.113-0.117,0.2-0.245,0.26-0.385l0.591,0.16c-0.08,0.194-0.194,0.369-0.341,0.525s-0.316,0.293-0.51,0.41
		c-0.193,0.117-0.407,0.207-0.64,0.27C204.327,125.444,204.083,125.476,203.83,125.476z M205.75,122.496
		c-0.02-0.28-0.085-0.535-0.195-0.765c-0.109-0.23-0.25-0.428-0.42-0.595c-0.17-0.167-0.366-0.296-0.59-0.39
		c-0.223-0.093-0.461-0.14-0.715-0.14s-0.494,0.047-0.72,0.14s-0.425,0.223-0.595,0.39c-0.17,0.167-0.307,0.367-0.41,0.6
		c-0.104,0.233-0.165,0.487-0.185,0.76H205.75z"/>
	<path fill="#D2D2D2" d="M214.379,125.376h-0.68v-2.91c0-0.62-0.092-1.07-0.275-1.35c-0.183-0.28-0.465-0.42-0.844-0.42
		c-0.201,0-0.4,0.037-0.601,0.11s-0.385,0.177-0.556,0.31c-0.17,0.133-0.32,0.292-0.454,0.475c-0.134,0.184-0.229,0.382-0.29,0.595
		v3.19H210v-5.21h0.619v1.18c0.214-0.38,0.519-0.687,0.916-0.92c0.396-0.233,0.828-0.35,1.295-0.35c0.286,0,0.529,0.053,0.729,0.16
		c0.2,0.107,0.36,0.257,0.479,0.45c0.121,0.193,0.207,0.43,0.26,0.71c0.055,0.28,0.08,0.59,0.08,0.93V125.376z"/>
</g>
<g>
	<path fill="#D2D2D2" d="M191.48,197.166c-0.407,0-0.803-0.066-1.19-0.199c-0.387-0.134-0.72-0.327-1-0.58l0.31-0.461
		c0.293,0.24,0.591,0.42,0.895,0.541c0.303,0.119,0.628,0.18,0.975,0.18c0.42,0,0.755-0.085,1.005-0.255
		c0.25-0.171,0.375-0.411,0.375-0.726c0-0.146-0.034-0.268-0.1-0.365c-0.067-0.096-0.165-0.182-0.295-0.254
		c-0.13-0.074-0.293-0.139-0.49-0.195s-0.425-0.115-0.685-0.176c-0.3-0.072-0.56-0.146-0.78-0.219
		c-0.22-0.074-0.402-0.157-0.545-0.25c-0.144-0.094-0.25-0.209-0.32-0.346c-0.07-0.137-0.105-0.309-0.105-0.516
		c0-0.26,0.052-0.489,0.155-0.689c0.103-0.199,0.243-0.365,0.42-0.494c0.177-0.131,0.383-0.229,0.62-0.296
		c0.236-0.066,0.488-0.1,0.755-0.1c0.4,0,0.763,0.065,1.09,0.194c0.327,0.131,0.59,0.303,0.79,0.516l-0.33,0.4
		c-0.193-0.201-0.428-0.351-0.705-0.451c-0.277-0.1-0.565-0.149-0.865-0.149c-0.18,0-0.347,0.019-0.5,0.056
		c-0.153,0.036-0.289,0.094-0.405,0.174c-0.117,0.08-0.208,0.182-0.275,0.306c-0.066,0.124-0.1,0.269-0.1,0.435
		c0,0.141,0.023,0.254,0.07,0.34c0.046,0.088,0.123,0.162,0.23,0.226c0.106,0.063,0.242,0.12,0.405,0.17
		c0.164,0.05,0.362,0.102,0.595,0.155c0.333,0.08,0.626,0.16,0.88,0.24s0.465,0.173,0.635,0.279c0.17,0.107,0.298,0.236,0.385,0.391
		c0.087,0.152,0.13,0.34,0.13,0.56c0,0.479-0.183,0.86-0.55,1.14C192.593,197.026,192.1,197.166,191.48,197.166z"/>
	<path fill="#D2D2D2" d="M194.62,190.767v-1h0.68v1H194.62z M194.62,197.066v-5.21h0.68v5.21H194.62z"/>
	<path fill="#D2D2D2" d="M196.36,196.606l3.52-4.24h-3.44v-0.51h4.18v0.46l-3.51,4.24h3.5v0.51h-4.25V196.606z"/>
	<path fill="#D2D2D2" d="M203.83,197.166c-0.38,0-0.729-0.071-1.045-0.215c-0.317-0.143-0.592-0.34-0.825-0.59
		s-0.415-0.538-0.545-0.865c-0.13-0.326-0.195-0.676-0.195-1.05c0-0.366,0.065-0.712,0.195-1.034c0.13-0.324,0.31-0.607,0.54-0.851
		s0.505-0.437,0.825-0.58c0.32-0.144,0.667-0.215,1.04-0.215c0.38,0,0.728,0.071,1.045,0.215c0.316,0.144,0.588,0.339,0.814,0.585
		s0.404,0.529,0.53,0.85s0.19,0.66,0.19,1.021c0,0.054,0,0.106,0,0.159c0,0.055-0.004,0.091-0.01,0.111h-4.46
		c0.02,0.279,0.085,0.537,0.195,0.774s0.251,0.442,0.425,0.614c0.173,0.174,0.372,0.309,0.595,0.406
		c0.223,0.096,0.461,0.145,0.715,0.145c0.167,0,0.333-0.023,0.5-0.07c0.167-0.047,0.32-0.109,0.46-0.189
		c0.14-0.08,0.266-0.179,0.38-0.295c0.113-0.117,0.2-0.246,0.26-0.385l0.591,0.159c-0.08,0.194-0.194,0.368-0.341,0.525
		s-0.316,0.294-0.51,0.409c-0.193,0.117-0.407,0.207-0.64,0.271S204.083,197.166,203.83,197.166z M205.75,194.187
		c-0.02-0.28-0.085-0.535-0.195-0.765c-0.109-0.23-0.25-0.429-0.42-0.596c-0.17-0.166-0.366-0.297-0.59-0.39
		c-0.223-0.093-0.461-0.14-0.715-0.14s-0.494,0.047-0.72,0.14s-0.425,0.224-0.595,0.39c-0.17,0.167-0.307,0.367-0.41,0.6
		c-0.104,0.234-0.165,0.487-0.185,0.761H205.75z"/>
	<path fill="#D2D2D2" d="M214.379,197.066h-0.68v-2.91c0-0.619-0.092-1.07-0.275-1.35c-0.183-0.28-0.465-0.42-0.844-0.42
		c-0.201,0-0.4,0.037-0.601,0.109c-0.2,0.074-0.385,0.178-0.556,0.311c-0.17,0.133-0.32,0.291-0.454,0.475s-0.229,0.382-0.29,0.596
		v3.189H210v-5.21h0.619v1.181c0.214-0.381,0.519-0.688,0.916-0.921c0.396-0.233,0.828-0.35,1.295-0.35
		c0.286,0,0.529,0.054,0.729,0.159c0.2,0.107,0.36,0.258,0.479,0.451c0.121,0.193,0.207,0.43,0.26,0.709
		c0.055,0.28,0.08,0.59,0.08,0.931V197.066z"/>
</g>
<g>
	<path fill="#D2D2D2" d="M28.339,30.997c-0.7,0-1.337-0.142-1.911-0.427c-0.574-0.285-1.066-0.663-1.477-1.134
		c-0.411-0.471-0.728-1.01-0.952-1.617c-0.224-0.606-0.336-1.227-0.336-1.862c0-0.663,0.119-1.297,0.357-1.904
		c0.238-0.606,0.567-1.143,0.987-1.61s0.917-0.838,1.491-1.113c0.574-0.275,1.197-0.413,1.869-0.413c0.7,0,1.334,0.147,1.904,0.441
		s1.06,0.679,1.47,1.155s0.728,1.015,0.952,1.617c0.224,0.602,0.336,1.216,0.336,1.841c0,0.663-0.119,1.297-0.357,1.904
		c-0.238,0.606-0.565,1.141-0.98,1.603c-0.416,0.462-0.91,0.831-1.484,1.106C29.634,30.859,29.011,30.997,28.339,30.997z
		 M24.937,25.957c0,0.504,0.082,0.992,0.245,1.463c0.163,0.471,0.394,0.889,0.693,1.253c0.299,0.364,0.658,0.653,1.078,0.868
		c0.42,0.215,0.887,0.322,1.4,0.322c0.532,0,1.008-0.114,1.428-0.343c0.42-0.229,0.777-0.527,1.071-0.896
		c0.294-0.368,0.518-0.786,0.672-1.253c0.154-0.466,0.231-0.938,0.231-1.414c0-0.504-0.082-0.991-0.245-1.463
		c-0.164-0.471-0.397-0.887-0.7-1.246c-0.303-0.359-0.663-0.646-1.078-0.861c-0.416-0.214-0.875-0.322-1.379-0.322
		c-0.532,0-1.008,0.112-1.428,0.336s-0.777,0.518-1.071,0.882c-0.294,0.364-0.52,0.779-0.679,1.246S24.937,25.472,24.937,25.957z"/>
	<path fill="#D2D2D2" d="M38.376,24.697c-0.616,0.019-1.16,0.177-1.631,0.476c-0.472,0.299-0.805,0.714-1.001,1.246v4.508h-1.232
		v-7.308h1.148v1.694c0.252-0.504,0.583-0.913,0.994-1.225c0.41-0.312,0.849-0.488,1.316-0.525c0.093,0,0.172,0,0.238,0
		s0.121,0.004,0.168,0.014V24.697z"/>
	<path fill="#D2D2D2" d="M39.595,22.247v-1.54h1.232v1.54H39.595z M39.595,30.927v-7.308h1.232v7.308H39.595z"/>
	<path fill="#D2D2D2" d="M45.726,31.011c-0.495,0-0.95-0.103-1.365-0.308c-0.416-0.205-0.772-0.48-1.071-0.826
		c-0.299-0.345-0.53-0.742-0.693-1.19c-0.163-0.448-0.245-0.915-0.245-1.4c0-0.513,0.082-1.001,0.245-1.463
		c0.164-0.462,0.395-0.866,0.693-1.211c0.298-0.345,0.655-0.618,1.071-0.819c0.415-0.201,0.875-0.301,1.379-0.301
		c0.616,0,1.148,0.149,1.596,0.448c0.448,0.299,0.826,0.677,1.134,1.134v-1.456h1.092v7.224c0,0.522-0.098,0.982-0.294,1.379
		c-0.196,0.396-0.462,0.73-0.798,1.001s-0.73,0.476-1.183,0.616c-0.453,0.14-0.936,0.21-1.449,0.21
		c-0.831,0-1.505-0.143-2.023-0.427s-0.95-0.679-1.295-1.183l0.714-0.63c0.289,0.429,0.663,0.751,1.12,0.966
		c0.457,0.214,0.952,0.322,1.484,0.322c0.336,0,0.656-0.047,0.959-0.14s0.567-0.233,0.791-0.42s0.403-0.42,0.539-0.7
		c0.135-0.28,0.203-0.611,0.203-0.994v-1.288c-0.14,0.224-0.306,0.427-0.497,0.609c-0.191,0.182-0.399,0.336-0.623,0.462
		c-0.224,0.126-0.462,0.222-0.714,0.287C46.244,30.978,45.987,31.011,45.726,31.011z M46.104,30.003c0.261,0,0.513-0.047,0.756-0.14
		s0.467-0.217,0.672-0.371c0.205-0.154,0.378-0.329,0.518-0.525s0.233-0.396,0.28-0.602v-2.1c-0.103-0.252-0.235-0.48-0.399-0.686
		c-0.163-0.205-0.348-0.385-0.553-0.539c-0.206-0.154-0.427-0.273-0.665-0.357c-0.238-0.084-0.479-0.126-0.721-0.126
		c-0.373,0-0.707,0.08-1.001,0.238s-0.544,0.369-0.749,0.63s-0.364,0.558-0.476,0.889c-0.112,0.331-0.168,0.665-0.168,1.001
		c0,0.364,0.065,0.709,0.196,1.036c0.13,0.327,0.308,0.612,0.532,0.854c0.224,0.243,0.488,0.437,0.791,0.581
		C45.42,29.931,45.75,30.003,46.104,30.003z"/>
	<path fill="#D2D2D2" d="M51.55,22.247v-1.54h1.232v1.54H51.55z M51.55,30.927v-7.308h1.232v7.308H51.55z"/>
	<path fill="#D2D2D2" d="M61.112,30.927H59.88v-4.088c0-0.784-0.119-1.354-0.357-1.708c-0.238-0.354-0.6-0.532-1.085-0.532
		c-0.252,0-0.504,0.049-0.756,0.147c-0.252,0.098-0.49,0.231-0.714,0.399c-0.224,0.168-0.42,0.369-0.588,0.602
		c-0.168,0.233-0.294,0.49-0.378,0.77v4.41h-1.232v-7.308h1.12v1.568c0.29-0.513,0.707-0.924,1.253-1.232
		c0.546-0.308,1.141-0.462,1.785-0.462c0.42,0,0.77,0.077,1.05,0.231c0.28,0.154,0.504,0.369,0.672,0.644
		c0.168,0.275,0.287,0.6,0.357,0.973c0.07,0.374,0.105,0.779,0.105,1.218V30.927z"/>
	<path fill="#D2D2D2" d="M64.906,31.067c-0.346,0-0.667-0.059-0.966-0.175c-0.299-0.116-0.558-0.277-0.777-0.483
		c-0.219-0.205-0.392-0.445-0.518-0.721s-0.189-0.577-0.189-0.903c0-0.336,0.075-0.642,0.224-0.917
		c0.149-0.275,0.361-0.511,0.637-0.707c0.275-0.196,0.602-0.35,0.98-0.462c0.378-0.112,0.791-0.168,1.239-0.168
		c0.354,0,0.714,0.033,1.078,0.098c0.364,0.065,0.686,0.154,0.966,0.266v-0.588c0-0.597-0.168-1.066-0.504-1.407
		s-0.812-0.511-1.428-0.511c-0.737,0-1.512,0.285-2.324,0.854l-0.406-0.798c0.943-0.635,1.89-0.952,2.842-0.952
		c0.961,0,1.71,0.257,2.247,0.77c0.537,0.514,0.805,1.237,0.805,2.17v2.982c0,0.29,0.131,0.439,0.392,0.448v1.064
		c-0.131,0.019-0.238,0.033-0.322,0.042s-0.173,0.014-0.266,0.014c-0.243,0-0.437-0.072-0.581-0.217
		c-0.145-0.145-0.231-0.319-0.259-0.525l-0.028-0.518c-0.327,0.439-0.74,0.772-1.239,1.001
		C66.01,30.952,65.475,31.067,64.906,31.067z M65.228,30.143c0.438,0,0.847-0.082,1.225-0.245c0.378-0.164,0.665-0.38,0.861-0.651
		c0.177-0.177,0.266-0.359,0.266-0.546v-1.078c-0.597-0.233-1.218-0.35-1.862-0.35c-0.616,0-1.118,0.131-1.505,0.392
		c-0.387,0.262-0.581,0.602-0.581,1.022c0,0.206,0.04,0.397,0.119,0.574s0.191,0.332,0.336,0.462
		c0.145,0.131,0.315,0.233,0.511,0.308S65.004,30.143,65.228,30.143z"/>
	<path fill="#D2D2D2" d="M70.814,20.707h1.232v8.33c0,0.271,0.072,0.483,0.217,0.637c0.145,0.154,0.347,0.231,0.609,0.231
		c0.103,0,0.224-0.016,0.364-0.049c0.14-0.033,0.271-0.072,0.392-0.119l0.196,0.994c-0.206,0.084-0.448,0.154-0.728,0.21
		c-0.28,0.056-0.528,0.084-0.742,0.084c-0.476,0-0.852-0.135-1.127-0.406c-0.275-0.271-0.413-0.648-0.413-1.134V20.707z"/>
	<path fill="#D2D2D2" d="M80.474,31.067c-0.588,0-1.167-0.091-1.736-0.273c-0.569-0.182-1.059-0.446-1.47-0.791l0.532-0.826
		c0.429,0.327,0.859,0.572,1.288,0.735c0.429,0.164,0.882,0.245,1.358,0.245c0.532,0,0.955-0.105,1.267-0.315
		s0.469-0.506,0.469-0.889c0-0.177-0.042-0.329-0.126-0.455s-0.21-0.235-0.378-0.329c-0.168-0.093-0.383-0.177-0.644-0.252
		c-0.262-0.075-0.565-0.154-0.91-0.238c-0.439-0.112-0.817-0.219-1.134-0.322s-0.579-0.224-0.784-0.364
		c-0.206-0.14-0.355-0.308-0.448-0.504s-0.14-0.438-0.14-0.728c0-0.364,0.072-0.688,0.217-0.973
		c0.145-0.285,0.343-0.522,0.595-0.714c0.252-0.191,0.548-0.336,0.889-0.434c0.341-0.098,0.707-0.147,1.099-0.147
		c0.551,0,1.064,0.089,1.54,0.266s0.877,0.411,1.204,0.7l-0.56,0.742c-0.308-0.271-0.653-0.474-1.036-0.609
		s-0.775-0.203-1.176-0.203c-0.448,0-0.829,0.096-1.141,0.287c-0.313,0.191-0.469,0.497-0.469,0.917c0,0.168,0.03,0.308,0.091,0.42
		c0.061,0.112,0.161,0.21,0.301,0.294s0.32,0.159,0.539,0.224s0.483,0.135,0.791,0.21c0.485,0.112,0.908,0.227,1.267,0.343
		c0.359,0.117,0.658,0.254,0.896,0.413c0.238,0.159,0.415,0.346,0.532,0.56c0.117,0.215,0.175,0.476,0.175,0.784
		c0,0.681-0.262,1.223-0.784,1.624C82.065,30.866,81.36,31.067,80.474,31.067z"/>
	<path fill="#D2D2D2" d="M86.704,31.067c-0.346,0-0.667-0.059-0.966-0.175c-0.299-0.116-0.558-0.277-0.777-0.483
		c-0.219-0.205-0.392-0.445-0.518-0.721s-0.189-0.577-0.189-0.903c0-0.336,0.075-0.642,0.224-0.917
		c0.149-0.275,0.361-0.511,0.637-0.707c0.275-0.196,0.602-0.35,0.98-0.462c0.378-0.112,0.791-0.168,1.239-0.168
		c0.354,0,0.714,0.033,1.078,0.098c0.364,0.065,0.686,0.154,0.966,0.266v-0.588c0-0.597-0.168-1.066-0.504-1.407
		s-0.812-0.511-1.428-0.511c-0.737,0-1.512,0.285-2.324,0.854l-0.406-0.798c0.943-0.635,1.89-0.952,2.842-0.952
		c0.961,0,1.71,0.257,2.247,0.77c0.537,0.514,0.805,1.237,0.805,2.17v2.982c0,0.29,0.131,0.439,0.392,0.448v1.064
		c-0.131,0.019-0.238,0.033-0.322,0.042s-0.173,0.014-0.266,0.014c-0.243,0-0.437-0.072-0.581-0.217
		c-0.145-0.145-0.231-0.319-0.259-0.525l-0.028-0.518c-0.327,0.439-0.74,0.772-1.239,1.001
		C87.807,30.952,87.272,31.067,86.704,31.067z M87.025,30.143c0.438,0,0.847-0.082,1.225-0.245c0.378-0.164,0.665-0.38,0.861-0.651
		c0.177-0.177,0.266-0.359,0.266-0.546v-1.078c-0.597-0.233-1.218-0.35-1.862-0.35c-0.616,0-1.118,0.131-1.505,0.392
		c-0.387,0.262-0.581,0.602-0.581,1.022c0,0.206,0.04,0.397,0.119,0.574s0.191,0.332,0.336,0.462
		c0.145,0.131,0.315,0.233,0.511,0.308S86.801,30.143,87.025,30.143z"/>
	<path fill="#D2D2D2" d="M103.602,30.927h-1.232v-4.088c0-0.765-0.124-1.33-0.371-1.694c-0.248-0.364-0.614-0.546-1.099-0.546
		c-0.504,0-0.955,0.18-1.351,0.539c-0.397,0.359-0.679,0.824-0.847,1.393v4.396h-1.232v-4.088c0-0.784-0.121-1.354-0.364-1.708
		c-0.243-0.354-0.607-0.532-1.092-0.532c-0.495,0-0.943,0.175-1.344,0.525c-0.401,0.35-0.686,0.814-0.854,1.393v4.41h-1.232v-7.308
		h1.12v1.568c0.299-0.541,0.686-0.959,1.162-1.253s1.013-0.441,1.61-0.441c0.616,0,1.104,0.166,1.463,0.497
		c0.359,0.332,0.581,0.758,0.665,1.281c0.653-1.186,1.582-1.778,2.786-1.778c0.42,0,0.772,0.077,1.057,0.231
		c0.285,0.154,0.511,0.369,0.679,0.644c0.168,0.275,0.289,0.6,0.364,0.973c0.075,0.374,0.112,0.779,0.112,1.218V30.927z"/>
	<path fill="#D2D2D2" d="M109.454,31.067c-0.607,0-1.141-0.149-1.603-0.448c-0.462-0.298-0.829-0.676-1.099-1.134v4.424h-1.232
		v-10.29h1.092v1.372c0.289-0.448,0.665-0.81,1.127-1.085s0.973-0.413,1.533-0.413c0.504,0,0.966,0.103,1.386,0.308
		c0.42,0.206,0.784,0.483,1.092,0.833s0.548,0.754,0.721,1.211c0.173,0.458,0.259,0.934,0.259,1.428c0,0.522-0.08,1.015-0.238,1.477
		c-0.159,0.462-0.383,0.863-0.672,1.204c-0.29,0.341-0.635,0.611-1.036,0.812S109.938,31.067,109.454,31.067z M109.075,30.003
		c0.364,0,0.693-0.077,0.987-0.231c0.294-0.154,0.546-0.359,0.756-0.616s0.371-0.548,0.483-0.875
		c0.112-0.327,0.168-0.663,0.168-1.008c0-0.364-0.065-0.712-0.196-1.043c-0.131-0.332-0.308-0.621-0.532-0.868
		c-0.224-0.247-0.488-0.443-0.791-0.588s-0.632-0.217-0.987-0.217c-0.224,0-0.455,0.044-0.693,0.133
		c-0.238,0.089-0.462,0.205-0.672,0.35c-0.21,0.145-0.392,0.317-0.546,0.518c-0.154,0.201-0.254,0.413-0.301,0.637v2.086
		c0.103,0.243,0.233,0.469,0.392,0.679c0.158,0.21,0.34,0.392,0.546,0.546c0.205,0.154,0.424,0.275,0.658,0.364
		C108.581,29.958,108.823,30.003,109.075,30.003z"/>
	<path fill="#D2D2D2" d="M114.269,20.707h1.232v8.33c0,0.271,0.072,0.483,0.217,0.637c0.145,0.154,0.347,0.231,0.609,0.231
		c0.103,0,0.224-0.016,0.364-0.049c0.14-0.033,0.271-0.072,0.392-0.119l0.196,0.994c-0.206,0.084-0.448,0.154-0.728,0.21
		c-0.28,0.056-0.528,0.084-0.742,0.084c-0.476,0-0.852-0.135-1.127-0.406c-0.275-0.271-0.413-0.648-0.413-1.134V20.707z"/>
	<path fill="#D2D2D2" d="M121.479,31.067c-0.551,0-1.055-0.101-1.512-0.301c-0.457-0.201-0.849-0.474-1.176-0.819
		s-0.581-0.749-0.763-1.211c-0.182-0.462-0.273-0.95-0.273-1.463s0.091-0.999,0.273-1.456c0.182-0.458,0.439-0.859,0.77-1.204
		c0.332-0.345,0.726-0.618,1.183-0.819c0.457-0.201,0.961-0.301,1.512-0.301c0.55,0,1.052,0.103,1.505,0.308
		c0.453,0.206,0.837,0.479,1.155,0.819c0.317,0.341,0.562,0.737,0.735,1.19c0.172,0.453,0.259,0.922,0.259,1.407
		c0,0.103-0.002,0.196-0.007,0.28c-0.005,0.084-0.012,0.149-0.021,0.196h-6.062c0.028,0.364,0.112,0.695,0.252,0.994
		c0.14,0.299,0.322,0.556,0.546,0.77c0.224,0.215,0.478,0.383,0.763,0.504c0.284,0.121,0.585,0.182,0.903,0.182
		c0.224,0,0.443-0.03,0.658-0.091c0.214-0.061,0.415-0.142,0.602-0.245c0.187-0.103,0.353-0.229,0.497-0.378
		c0.145-0.149,0.254-0.317,0.329-0.504l1.064,0.294c-0.121,0.271-0.287,0.518-0.497,0.742c-0.21,0.224-0.453,0.417-0.728,0.581
		c-0.275,0.163-0.581,0.292-0.917,0.385S121.843,31.067,121.479,31.067z M123.985,26.783c-0.028-0.345-0.114-0.665-0.259-0.959
		c-0.145-0.294-0.327-0.543-0.546-0.749c-0.22-0.205-0.474-0.366-0.763-0.483c-0.29-0.117-0.598-0.175-0.924-0.175
		c-0.327,0-0.635,0.058-0.924,0.175c-0.289,0.117-0.543,0.28-0.763,0.49c-0.22,0.21-0.397,0.46-0.532,0.749
		c-0.135,0.29-0.217,0.607-0.245,0.952H123.985z"/>
</g>
<g>
	<g>
		<g>
			<path fill="#D2D2D2" d="M144.91,131.68c0,0,1.996-4.16,4.988-10.402c2.977-6.25,7.014-14.548,11.045-22.85
				c2.004-4.156,4.006-8.312,5.885-12.21c0.961-1.937,1.847-3.832,2.769-5.587c0.91-1.762,1.749-3.438,2.574-4.959
				c1.621-3.059,3.001-5.592,3.996-7.351c0.993-1.76,1.562-2.765,1.562-2.765l0.988,0.498c0,0-0.471,1.054-1.295,2.899
				c-0.822,1.846-2.037,4.462-3.53,7.585c-0.733,1.568-1.58,3.239-2.454,5.019c-0.863,1.785-1.859,3.624-2.844,5.55
				c-2.016,3.828-4.166,7.91-6.314,11.994c-4.274,8.179-8.543,16.36-11.795,22.471c-3.237,6.119-5.395,10.197-5.395,10.197
				L144.91,131.68z"/>
			<g>
				<polygon fill="#D2D2D2" points="181.4,59.5 180.553,70.215 177.984,66.276 173.293,66.556 				"/>
			</g>
		</g>
	</g>
	<g>
		<g>
			<path fill="#D2D2D2" d="M145.006,136.012c0,0,1.838,0.016,4.596,0.037c2.758,0.01,6.434,0.061,10.108,0.143
				c1.837,0.031,3.675,0.062,5.397,0.093c1.725,0.012,3.332,0.022,4.709,0.075c1.377,0.064,2.521,0.164,3.321,0.25
				c0.8,0.082,1.258,0.129,1.258,0.129l-0.093,1.794c0,0-0.46-0.001-1.265-0.003c-0.806,0.003-1.954-0.018-3.329-0.094
				c-1.375-0.092-2.976-0.246-4.691-0.412c-1.717-0.149-3.547-0.309-5.379-0.467c-3.662-0.3-7.324-0.629-10.068-0.904
				c-2.745-0.264-4.576-0.438-4.576-0.438L145.006,136.012z"/>
			<g>
				<polygon fill="#D2D2D2" points="181.4,138 171.254,141.545 173.822,137.607 171.674,133.426 				"/>
			</g>
		</g>
	</g>
	<g>
		<g>
			<polygon fill="#D2D2D2" points="145.064,138.229 146.251,139.148 146.059,139.38 144.936,138.383 			"/>
			<polygon fill="#D2D2D2" points="147.844,140.381 150.232,142.229 149.822,142.723 147.564,140.717 			"/>
			<polygon fill="#D2D2D2" points="151.824,143.461 154.213,145.311 153.586,146.066 151.328,144.061 			"/>
			<polygon fill="#D2D2D2" points="155.796,146.555 158.168,148.422 157.375,149.379 155.102,147.393 			"/>
			<polygon fill="#D2D2D2" points="159.75,149.668 162.123,151.537 161.166,152.689 158.893,150.703 			"/>
			<polygon fill="#D2D2D2" points="163.704,152.782 166.084,154.643 164.95,156.009 162.684,154.014 			"/>
			<path fill="#D2D2D2" d="M167.678,155.872c0,0,0.596,0.466,1.189,0.931c0.59,0.471,1.18,0.941,1.18,0.941l-1.314,1.586
				c0,0-0.572-0.492-1.145-0.984c-0.566-0.5-1.134-0.998-1.134-0.998L167.678,155.872z"/>
			<path fill="#D2D2D2" d="M171.6,159.025c0,0,0.572,0.492,1.143,0.985c0.564,0.503,1.128,1.007,1.128,1.007l-1.216,1.465
				c0,0-0.598-0.461-1.195-0.922c-0.592-0.472-1.182-0.941-1.182-0.941L171.6,159.025z"/>
			<polygon fill="#D2D2D2" points="175.363,162.369 176.465,163.391 175.467,164.594 174.259,163.701 			"/>
			<g>
				<polygon fill="#D2D2D2" points="181.4,168.5 171.146,165.277 175.56,163.654 176.338,159.02 				"/>
			</g>
		</g>
	</g>
	<g>
		<g>
			<path fill="#D2D2D2" d="M145.088,140.452c0,0,2.145,3.762,5.361,9.403c3.23,5.634,7.475,13.182,11.721,20.727
				c2.137,3.766,4.272,7.532,6.275,11.062c0.984,1.772,1.965,3.474,2.834,5.117c0.866,1.646,1.716,3.187,2.445,4.637
				c1.488,2.888,2.697,5.31,3.523,7.016c0.82,1.71,1.288,2.688,1.288,2.688l-1.007,0.547c0,0-0.564-0.926-1.551-2.545
				c-0.98-1.623-2.352-3.957-3.961-6.776c-0.818-1.402-1.646-2.954-2.555-4.578c-0.904-1.625-1.796-3.373-2.746-5.166
				c-1.869-3.604-3.861-7.446-5.855-11.29c-4.011-7.673-8.025-15.345-10.987-21.124c-2.978-5.772-4.962-9.62-4.962-9.62
				L145.088,140.452z"/>
			<g>
				<polygon fill="#D2D2D2" points="181.4,207.58 173.082,200.773 177.781,200.91 180.227,196.896 				"/>
			</g>
		</g>
	</g>
	<g>
		<g>
			<path fill="#D2D2D2" d="M144.933,133.846c0,0,1.892-1.854,4.729-4.635c1.421-1.388,3.078-3.008,4.854-4.742
				c1.788-1.723,3.694-3.561,5.601-5.398c1.901-1.843,3.804-3.686,5.586-5.414c1.765-1.746,3.442-3.344,4.927-4.662
				c2.982-2.624,5.053-4.282,5.053-4.282l1.034,1.126c0,0-1.829,1.922-4.697,4.67c-1.44,1.366-3.175,2.901-5.065,4.512
				c-1.874,1.629-3.872,3.365-5.871,5.104c-1.993,1.742-3.986,3.485-5.855,5.119c-1.88,1.621-3.635,3.135-5.139,4.432
				c-3.012,2.592-5.021,4.318-5.021,4.318L144.933,133.846z"/>
			<g>
				<polygon fill="#D2D2D2" points="181.4,100.5 176.82,110.223 175.811,105.632 171.322,104.234 				"/>
			</g>
		</g>
	</g>
</g>
<g>
	<g>
		
			<line fill="none" stroke="#D2D2D2" stroke-width="1.5" stroke-linecap="round" stroke-miterlimit="10" x1="270" y1="48.555" x2="271" y2="48.555"/>
		
			<line fill="none" stroke="#D2D2D2" stroke-width="1.5" stroke-linecap="round" stroke-miterlimit="10" stroke-dasharray="2.125,3.1875" x1="274.188" y1="48.555" x2="277.906" y2="48.555"/>
		
			<line fill="none" stroke="#D2D2D2" stroke-width="1.5" stroke-linecap="round" stroke-miterlimit="10" x1="279.5" y1="48.555" x2="280.5" y2="48.555"/>
	</g>
</g>
<g>
	<g>
		
			<line fill="none" stroke="#D2D2D2" stroke-width="1.5" stroke-linecap="round" stroke-miterlimit="10" x1="270" y1="99.066" x2="271" y2="99.066"/>
		
			<line fill="none" stroke="#D2D2D2" stroke-width="1.5" stroke-linecap="round" stroke-miterlimit="10" stroke-dasharray="2.125,3.1875" x1="274.188" y1="99.066" x2="277.906" y2="99.066"/>
		
			<line fill="none" stroke="#D2D2D2" stroke-width="1.5" stroke-linecap="round" stroke-miterlimit="10" x1="279.5" y1="99.066" x2="280.5" y2="99.066"/>
	</g>
</g>
<g>
	<g>
		
			<line fill="none" stroke="#D2D2D2" stroke-width="1.5" stroke-linecap="round" stroke-miterlimit="10" x1="270" y1="140.727" x2="271" y2="140.727"/>
		
			<line fill="none" stroke="#D2D2D2" stroke-width="1.5" stroke-linecap="round" stroke-miterlimit="10" stroke-dasharray="2.125,3.1875" x1="274.188" y1="140.727" x2="277.906" y2="140.727"/>
		
			<line fill="none" stroke="#D2D2D2" stroke-width="1.5" stroke-linecap="round" stroke-miterlimit="10" x1="279.5" y1="140.727" x2="280.5" y2="140.727"/>
	</g>
</g>
<g>
	<g>
		
			<line fill="none" stroke="#D2D2D2" stroke-width="1.5" stroke-linecap="round" stroke-miterlimit="10" x1="371" y1="168.581" x2="371" y2="169.581"/>
		
			<line fill="none" stroke="#D2D2D2" stroke-width="1.5" stroke-linecap="round" stroke-miterlimit="10" stroke-dasharray="2.125,3.1875" x1="371" y1="172.769" x2="371" y2="176.487"/>
		
			<line fill="none" stroke="#D2D2D2" stroke-width="1.5" stroke-linecap="round" stroke-miterlimit="10" x1="371" y1="178.081" x2="371" y2="179.081"/>
	</g>
</g>
<g>
	<g>
		
			<line fill="none" stroke="#D2D2D2" stroke-width="1.5" stroke-linecap="round" stroke-miterlimit="10" x1="227.5" y1="168.581" x2="227.5" y2="169.581"/>
		
			<line fill="none" stroke="#D2D2D2" stroke-width="1.5" stroke-linecap="round" stroke-miterlimit="10" stroke-dasharray="2.125,3.1875" x1="227.5" y1="172.769" x2="227.5" y2="176.487"/>
		
			<line fill="none" stroke="#D2D2D2" stroke-width="1.5" stroke-linecap="round" stroke-miterlimit="10" x1="227.5" y1="178.081" x2="227.5" y2="179.081"/>
	</g>
</g>
<g>
	<g>
		
			<line fill="none" stroke="#D2D2D2" stroke-width="1.5" stroke-linecap="round" stroke-miterlimit="10" x1="270" y1="213.905" x2="271" y2="213.905"/>
		
			<line fill="none" stroke="#D2D2D2" stroke-width="1.5" stroke-linecap="round" stroke-miterlimit="10" stroke-dasharray="2.125,3.1875" x1="274.188" y1="213.905" x2="277.906" y2="213.905"/>
		
			<line fill="none" stroke="#D2D2D2" stroke-width="1.5" stroke-linecap="round" stroke-miterlimit="10" x1="279.5" y1="213.905" x2="280.5" y2="213.905"/>
	</g>
</g>
<g>
	<path fill="#D2D2D2" d="M230.933,12.365c0,0.383-0.077,0.733-0.231,1.05c-0.153,0.317-0.363,0.588-0.629,0.812
		c-0.267,0.224-0.574,0.397-0.924,0.518c-0.351,0.122-0.727,0.182-1.127,0.182h-4.719v-9.94h4.941c0.346,0,0.658,0.075,0.938,0.224
		s0.519,0.343,0.714,0.581c0.196,0.238,0.348,0.509,0.455,0.812c0.107,0.304,0.161,0.609,0.161,0.917
		c0,0.495-0.124,0.952-0.371,1.372c-0.247,0.42-0.6,0.733-1.057,0.938c0.569,0.168,1.02,0.479,1.351,0.931
		C230.768,11.214,230.933,11.749,230.933,12.365z M224.562,6.079v3.318h3.164c0.225,0,0.43-0.044,0.616-0.133
		c0.187-0.088,0.348-0.208,0.483-0.357c0.135-0.149,0.242-0.324,0.322-0.525c0.078-0.201,0.118-0.413,0.118-0.637
		c0-0.233-0.037-0.453-0.112-0.658c-0.074-0.206-0.174-0.383-0.301-0.532c-0.125-0.149-0.279-0.266-0.462-0.35
		c-0.182-0.084-0.376-0.126-0.581-0.126H224.562z M229.658,12.141c0-0.224-0.039-0.441-0.119-0.651
		c-0.078-0.21-0.186-0.394-0.321-0.553c-0.136-0.158-0.296-0.284-0.483-0.378c-0.187-0.093-0.392-0.14-0.615-0.14h-3.557v3.416
		h3.459c0.232,0,0.447-0.047,0.643-0.14c0.197-0.093,0.369-0.217,0.519-0.371s0.267-0.333,0.351-0.539
		C229.617,12.58,229.658,12.365,229.658,12.141z"/>
	<path fill="#D2D2D2" d="M235.693,15.067c-0.551,0-1.053-0.103-1.506-0.308s-0.84-0.48-1.162-0.826
		c-0.322-0.345-0.571-0.747-0.748-1.204c-0.178-0.457-0.267-0.938-0.267-1.442c0-0.513,0.091-0.999,0.272-1.456
		c0.183-0.457,0.435-0.858,0.757-1.204c0.321-0.345,0.709-0.621,1.161-0.826c0.453-0.205,0.95-0.308,1.492-0.308
		c0.541,0,1.04,0.103,1.498,0.308c0.457,0.206,0.846,0.481,1.168,0.826s0.574,0.747,0.756,1.204
		c0.183,0.458,0.273,0.943,0.273,1.456c0,0.504-0.089,0.985-0.266,1.442c-0.178,0.458-0.43,0.859-0.756,1.204
		c-0.327,0.346-0.717,0.621-1.17,0.826C236.745,14.964,236.244,15.067,235.693,15.067z M233.271,11.301
		c0,0.383,0.062,0.737,0.188,1.064s0.298,0.611,0.519,0.854c0.219,0.243,0.475,0.434,0.77,0.574c0.294,0.14,0.609,0.21,0.945,0.21
		s0.65-0.07,0.944-0.21c0.294-0.14,0.554-0.334,0.777-0.581c0.224-0.248,0.399-0.537,0.524-0.868
		c0.127-0.331,0.189-0.688,0.189-1.071c0-0.374-0.062-0.726-0.189-1.057c-0.125-0.331-0.301-0.621-0.524-0.868
		c-0.224-0.247-0.483-0.441-0.777-0.581c-0.294-0.14-0.608-0.21-0.944-0.21s-0.651,0.073-0.945,0.217
		c-0.295,0.145-0.551,0.341-0.77,0.588c-0.221,0.248-0.393,0.537-0.519,0.868C233.334,10.561,233.271,10.918,233.271,11.301z"/>
	<path fill="#D2D2D2" d="M244.078,15.067c-0.551,0-1.052-0.103-1.504-0.308c-0.453-0.205-0.841-0.48-1.162-0.826
		c-0.322-0.345-0.572-0.747-0.75-1.204c-0.177-0.457-0.266-0.938-0.266-1.442c0-0.513,0.092-0.999,0.273-1.456
		c0.182-0.457,0.434-0.858,0.756-1.204s0.709-0.621,1.162-0.826c0.452-0.205,0.949-0.308,1.49-0.308s1.041,0.103,1.498,0.308
		c0.457,0.206,0.848,0.481,1.17,0.826c0.321,0.345,0.573,0.747,0.756,1.204c0.182,0.458,0.272,0.943,0.272,1.456
		c0,0.504-0.089,0.985-0.266,1.442c-0.178,0.458-0.43,0.859-0.757,1.204c-0.326,0.346-0.716,0.621-1.168,0.826
		C245.131,14.964,244.629,15.067,244.078,15.067z M241.656,11.301c0,0.383,0.063,0.737,0.189,1.064s0.299,0.611,0.518,0.854
		c0.22,0.243,0.477,0.434,0.771,0.574c0.294,0.14,0.608,0.21,0.944,0.21s0.651-0.07,0.945-0.21c0.294-0.14,0.553-0.334,0.777-0.581
		c0.224-0.248,0.398-0.537,0.525-0.868c0.125-0.331,0.188-0.688,0.188-1.071c0-0.374-0.063-0.726-0.188-1.057
		c-0.127-0.331-0.302-0.621-0.525-0.868c-0.225-0.247-0.483-0.441-0.777-0.581c-0.294-0.14-0.609-0.21-0.945-0.21
		s-0.65,0.073-0.944,0.217s-0.551,0.341-0.771,0.588c-0.219,0.248-0.392,0.537-0.518,0.868
		C241.72,10.561,241.656,10.918,241.656,11.301z"/>
	<path fill="#D2D2D2" d="M252.94,14.563c-0.075,0.037-0.173,0.082-0.294,0.133s-0.259,0.103-0.413,0.154
		c-0.153,0.052-0.321,0.093-0.504,0.126s-0.371,0.049-0.567,0.049c-0.447,0-0.835-0.124-1.162-0.371
		c-0.326-0.247-0.489-0.632-0.489-1.155V8.585h-0.994V7.619h0.994V5.183h1.231v2.436h1.639v0.966h-1.639v4.536
		c0.02,0.271,0.107,0.467,0.266,0.588c0.159,0.121,0.346,0.182,0.561,0.182c0.242,0,0.465-0.04,0.665-0.119
		c0.2-0.08,0.339-0.143,0.413-0.189L252.94,14.563z"/>
	<path fill="#D2D2D2" d="M256.65,15.067c-0.588,0-1.166-0.091-1.736-0.273c-0.568-0.182-1.059-0.446-1.469-0.791l0.531-0.826
		c0.43,0.327,0.859,0.572,1.288,0.735c0.429,0.164,0.882,0.245,1.358,0.245c0.531,0,0.954-0.105,1.267-0.315s0.47-0.506,0.47-0.889
		c0-0.177-0.043-0.329-0.127-0.455s-0.209-0.235-0.378-0.329c-0.168-0.093-0.383-0.177-0.644-0.252
		c-0.262-0.075-0.564-0.154-0.91-0.238c-0.439-0.112-0.816-0.219-1.135-0.322c-0.316-0.103-0.578-0.224-0.783-0.364
		s-0.355-0.308-0.448-0.504s-0.14-0.438-0.14-0.728c0-0.364,0.072-0.688,0.217-0.973c0.145-0.285,0.343-0.522,0.596-0.714
		c0.252-0.191,0.547-0.336,0.889-0.434c0.34-0.098,0.707-0.147,1.099-0.147c0.551,0,1.063,0.089,1.54,0.266s0.877,0.411,1.204,0.7
		l-0.56,0.742c-0.309-0.271-0.654-0.474-1.037-0.609s-0.774-0.203-1.176-0.203c-0.447,0-0.828,0.096-1.141,0.287
		s-0.469,0.497-0.469,0.917c0,0.168,0.029,0.308,0.091,0.42c0.061,0.112,0.161,0.21,0.301,0.294s0.319,0.159,0.539,0.224
		s0.483,0.135,0.791,0.21c0.485,0.112,0.907,0.227,1.267,0.343s0.658,0.254,0.896,0.413c0.238,0.159,0.415,0.346,0.531,0.56
		c0.117,0.215,0.176,0.476,0.176,0.784c0,0.681-0.262,1.223-0.784,1.624S257.537,15.067,256.65,15.067z"/>
	<path fill="#D2D2D2" d="M264.784,14.563c-0.075,0.037-0.173,0.082-0.294,0.133s-0.259,0.103-0.413,0.154
		c-0.153,0.052-0.321,0.093-0.504,0.126s-0.371,0.049-0.567,0.049c-0.447,0-0.835-0.124-1.162-0.371
		c-0.326-0.247-0.489-0.632-0.489-1.155V8.585h-0.994V7.619h0.994V5.183h1.231v2.436h1.639v0.966h-1.639v4.536
		c0.02,0.271,0.107,0.467,0.266,0.588c0.159,0.121,0.346,0.182,0.561,0.182c0.242,0,0.465-0.04,0.665-0.119
		c0.2-0.08,0.339-0.143,0.413-0.189L264.784,14.563z"/>
	<path fill="#D2D2D2" d="M269.796,8.697c-0.616,0.019-1.159,0.177-1.631,0.476s-0.806,0.714-1.001,1.246v4.508h-1.232V7.619h1.148
		v1.694c0.252-0.504,0.583-0.913,0.994-1.225c0.41-0.312,0.85-0.488,1.316-0.525c0.093,0,0.172,0,0.237,0s0.121,0.004,0.168,0.014
		V8.697z"/>
	<path fill="#D2D2D2" d="M272.891,15.067c-0.346,0-0.668-0.059-0.967-0.175c-0.299-0.116-0.558-0.277-0.777-0.483
		c-0.219-0.205-0.392-0.445-0.518-0.721s-0.189-0.577-0.189-0.903c0-0.336,0.075-0.642,0.225-0.917
		c0.148-0.275,0.361-0.511,0.637-0.707c0.275-0.196,0.602-0.35,0.98-0.462c0.378-0.112,0.791-0.168,1.238-0.168
		c0.355,0,0.715,0.033,1.078,0.098c0.364,0.065,0.687,0.154,0.967,0.266v-0.588c0-0.597-0.168-1.066-0.504-1.407
		s-0.812-0.511-1.429-0.511c-0.737,0-1.512,0.285-2.323,0.854l-0.406-0.798c0.942-0.635,1.89-0.952,2.842-0.952
		c0.961,0,1.71,0.257,2.247,0.77c0.536,0.514,0.805,1.237,0.805,2.17v2.982c0,0.29,0.131,0.439,0.392,0.448v1.064
		c-0.131,0.019-0.237,0.033-0.321,0.042s-0.173,0.014-0.267,0.014c-0.242,0-0.436-0.072-0.58-0.217
		c-0.146-0.145-0.231-0.319-0.26-0.525l-0.027-0.518c-0.327,0.439-0.74,0.772-1.239,1.001S273.459,15.067,272.891,15.067z
		 M273.212,14.143c0.438,0,0.847-0.082,1.226-0.245c0.377-0.164,0.664-0.38,0.86-0.651c0.177-0.177,0.267-0.359,0.267-0.546v-1.078
		c-0.598-0.233-1.219-0.35-1.862-0.35c-0.616,0-1.118,0.131-1.505,0.392c-0.388,0.262-0.581,0.602-0.581,1.022
		c0,0.206,0.04,0.397,0.118,0.574c0.08,0.177,0.191,0.332,0.336,0.462c0.146,0.131,0.316,0.233,0.512,0.308
		S272.988,14.143,273.212,14.143z"/>
	<path fill="#D2D2D2" d="M282.704,15.067c-0.606,0-1.142-0.149-1.603-0.448c-0.463-0.298-0.829-0.676-1.1-1.134v4.424h-1.232V7.619
		h1.092v1.372c0.289-0.448,0.666-0.81,1.127-1.085c0.463-0.275,0.974-0.413,1.533-0.413c0.504,0,0.967,0.103,1.387,0.308
		c0.42,0.206,0.783,0.483,1.092,0.833s0.548,0.754,0.721,1.211c0.173,0.458,0.26,0.934,0.26,1.428c0,0.522-0.08,1.015-0.238,1.477
		c-0.159,0.462-0.383,0.863-0.672,1.204c-0.29,0.341-0.635,0.611-1.037,0.812C283.633,14.966,283.189,15.067,282.704,15.067z
		 M282.326,14.003c0.363,0,0.693-0.077,0.986-0.231c0.295-0.154,0.547-0.359,0.756-0.616c0.211-0.257,0.371-0.548,0.483-0.875
		s0.168-0.663,0.168-1.008c0-0.364-0.065-0.712-0.196-1.043c-0.131-0.332-0.308-0.621-0.531-0.868
		c-0.225-0.247-0.488-0.443-0.791-0.588c-0.304-0.145-0.633-0.217-0.987-0.217c-0.224,0-0.455,0.044-0.692,0.133
		c-0.238,0.089-0.463,0.205-0.672,0.35c-0.211,0.145-0.393,0.317-0.547,0.518c-0.154,0.201-0.254,0.413-0.301,0.637v2.086
		c0.103,0.243,0.232,0.469,0.393,0.679c0.158,0.21,0.34,0.392,0.545,0.546c0.205,0.154,0.425,0.275,0.658,0.364
		C281.831,13.958,282.074,14.003,282.326,14.003z"/>
	<path fill="#D2D2D2" d="M293.596,15.067c-0.588,0-1.167-0.091-1.736-0.273c-0.569-0.182-1.059-0.446-1.47-0.791l0.532-0.826
		c0.429,0.327,0.858,0.572,1.287,0.735c0.43,0.164,0.883,0.245,1.358,0.245c0.532,0,0.954-0.105,1.267-0.315s0.47-0.506,0.47-0.889
		c0-0.177-0.042-0.329-0.126-0.455s-0.21-0.235-0.379-0.329c-0.168-0.093-0.383-0.177-0.643-0.252
		c-0.262-0.075-0.565-0.154-0.91-0.238c-0.439-0.112-0.817-0.219-1.135-0.322s-0.578-0.224-0.783-0.364
		c-0.206-0.14-0.355-0.308-0.449-0.504c-0.093-0.196-0.139-0.438-0.139-0.728c0-0.364,0.071-0.688,0.217-0.973
		c0.145-0.285,0.342-0.522,0.595-0.714c0.252-0.191,0.548-0.336,0.889-0.434c0.341-0.098,0.707-0.147,1.099-0.147
		c0.551,0,1.064,0.089,1.541,0.266c0.476,0.177,0.877,0.411,1.203,0.7l-0.56,0.742c-0.308-0.271-0.653-0.474-1.036-0.609
		s-0.775-0.203-1.176-0.203c-0.448,0-0.828,0.096-1.141,0.287c-0.313,0.191-0.47,0.497-0.47,0.917c0,0.168,0.03,0.308,0.091,0.42
		c0.061,0.112,0.161,0.21,0.301,0.294c0.141,0.084,0.32,0.159,0.539,0.224c0.22,0.065,0.483,0.135,0.791,0.21
		c0.486,0.112,0.908,0.227,1.268,0.343s0.658,0.254,0.896,0.413c0.237,0.159,0.414,0.346,0.531,0.56
		c0.117,0.215,0.176,0.476,0.176,0.784c0,0.681-0.262,1.223-0.785,1.624C295.187,14.866,294.482,15.067,293.596,15.067z"/>
	<path fill="#D2D2D2" d="M299.826,15.067c-0.346,0-0.668-0.059-0.967-0.175c-0.299-0.116-0.558-0.277-0.777-0.483
		c-0.219-0.205-0.392-0.445-0.518-0.721s-0.189-0.577-0.189-0.903c0-0.336,0.075-0.642,0.225-0.917
		c0.148-0.275,0.361-0.511,0.637-0.707c0.275-0.196,0.602-0.35,0.98-0.462c0.378-0.112,0.791-0.168,1.238-0.168
		c0.355,0,0.715,0.033,1.078,0.098c0.364,0.065,0.687,0.154,0.967,0.266v-0.588c0-0.597-0.168-1.066-0.504-1.407
		s-0.812-0.511-1.429-0.511c-0.737,0-1.512,0.285-2.323,0.854l-0.406-0.798c0.942-0.635,1.89-0.952,2.842-0.952
		c0.961,0,1.71,0.257,2.247,0.77c0.536,0.514,0.805,1.237,0.805,2.17v2.982c0,0.29,0.131,0.439,0.392,0.448v1.064
		c-0.131,0.019-0.237,0.033-0.321,0.042s-0.173,0.014-0.267,0.014c-0.242,0-0.436-0.072-0.58-0.217
		c-0.146-0.145-0.231-0.319-0.26-0.525l-0.027-0.518c-0.327,0.439-0.74,0.772-1.239,1.001S300.395,15.067,299.826,15.067z
		 M300.147,14.143c0.438,0,0.847-0.082,1.226-0.245c0.377-0.164,0.664-0.38,0.86-0.651c0.177-0.177,0.267-0.359,0.267-0.546v-1.078
		c-0.598-0.233-1.219-0.35-1.862-0.35c-0.616,0-1.118,0.131-1.505,0.392c-0.388,0.262-0.581,0.602-0.581,1.022
		c0,0.206,0.04,0.397,0.118,0.574c0.08,0.177,0.191,0.332,0.336,0.462c0.146,0.131,0.316,0.233,0.512,0.308
		S299.924,14.143,300.147,14.143z"/>
	<path fill="#D2D2D2" d="M316.724,14.927h-1.232v-4.088c0-0.765-0.124-1.33-0.37-1.694c-0.248-0.364-0.614-0.546-1.1-0.546
		c-0.504,0-0.955,0.18-1.352,0.539c-0.396,0.359-0.679,0.824-0.847,1.393v4.396h-1.231v-4.088c0-0.784-0.121-1.354-0.364-1.708
		s-0.606-0.532-1.093-0.532c-0.494,0-0.942,0.175-1.344,0.525c-0.4,0.35-0.686,0.814-0.854,1.393v4.41h-1.232V7.619h1.12v1.568
		c0.299-0.541,0.687-0.959,1.162-1.253s1.013-0.441,1.61-0.441c0.615,0,1.104,0.166,1.463,0.497
		c0.359,0.332,0.581,0.758,0.665,1.281c0.653-1.186,1.582-1.778,2.786-1.778c0.42,0,0.771,0.077,1.057,0.231
		c0.285,0.154,0.512,0.369,0.68,0.644c0.168,0.275,0.289,0.6,0.363,0.973c0.074,0.374,0.112,0.779,0.112,1.218V14.927z"/>
	<path fill="#D2D2D2" d="M322.575,15.067c-0.606,0-1.142-0.149-1.603-0.448c-0.463-0.298-0.829-0.676-1.1-1.134v4.424h-1.232V7.619
		h1.092v1.372c0.289-0.448,0.666-0.81,1.127-1.085c0.463-0.275,0.974-0.413,1.533-0.413c0.504,0,0.967,0.103,1.387,0.308
		c0.42,0.206,0.783,0.483,1.092,0.833s0.548,0.754,0.721,1.211c0.173,0.458,0.26,0.934,0.26,1.428c0,0.522-0.08,1.015-0.238,1.477
		c-0.159,0.462-0.383,0.863-0.672,1.204c-0.29,0.341-0.635,0.611-1.037,0.812C323.504,14.966,323.061,15.067,322.575,15.067z
		 M322.197,14.003c0.363,0,0.693-0.077,0.986-0.231c0.295-0.154,0.547-0.359,0.756-0.616c0.211-0.257,0.371-0.548,0.483-0.875
		s0.168-0.663,0.168-1.008c0-0.364-0.065-0.712-0.196-1.043c-0.131-0.332-0.308-0.621-0.531-0.868
		c-0.225-0.247-0.488-0.443-0.791-0.588c-0.304-0.145-0.633-0.217-0.987-0.217c-0.224,0-0.455,0.044-0.692,0.133
		c-0.238,0.089-0.463,0.205-0.672,0.35c-0.211,0.145-0.393,0.317-0.547,0.518c-0.154,0.201-0.254,0.413-0.301,0.637v2.086
		c0.103,0.243,0.232,0.469,0.393,0.679c0.158,0.21,0.34,0.392,0.545,0.546c0.205,0.154,0.425,0.275,0.658,0.364
		C321.702,13.958,321.945,14.003,322.197,14.003z"/>
	<path fill="#D2D2D2" d="M327.391,4.707h1.232v8.33c0,0.271,0.072,0.483,0.217,0.637c0.145,0.154,0.348,0.231,0.609,0.231
		c0.103,0,0.225-0.016,0.363-0.049c0.141-0.033,0.271-0.072,0.393-0.119l0.196,0.994c-0.206,0.084-0.448,0.154-0.728,0.21
		c-0.281,0.056-0.528,0.084-0.742,0.084c-0.477,0-0.853-0.135-1.127-0.406c-0.275-0.271-0.414-0.648-0.414-1.134V4.707z"/>
	<path fill="#D2D2D2" d="M334.602,15.067c-0.551,0-1.055-0.101-1.513-0.301c-0.457-0.201-0.849-0.474-1.176-0.819
		s-0.581-0.749-0.763-1.211s-0.273-0.95-0.273-1.463s0.092-0.999,0.273-1.456c0.182-0.458,0.438-0.859,0.77-1.204
		c0.332-0.345,0.726-0.618,1.184-0.819c0.457-0.201,0.961-0.301,1.512-0.301s1.052,0.103,1.505,0.308
		c0.452,0.206,0.837,0.479,1.155,0.819c0.316,0.341,0.562,0.737,0.734,1.19c0.173,0.453,0.26,0.922,0.26,1.407
		c0,0.103-0.003,0.196-0.008,0.28c-0.004,0.084-0.012,0.149-0.021,0.196h-6.062c0.027,0.364,0.111,0.695,0.252,0.994
		c0.14,0.299,0.321,0.556,0.545,0.77c0.225,0.215,0.479,0.383,0.764,0.504c0.284,0.121,0.586,0.182,0.902,0.182
		c0.225,0,0.443-0.03,0.658-0.091c0.215-0.061,0.416-0.142,0.602-0.245c0.188-0.103,0.354-0.229,0.498-0.378
		c0.145-0.149,0.254-0.317,0.328-0.504l1.064,0.294c-0.121,0.271-0.287,0.518-0.497,0.742c-0.21,0.224-0.452,0.417-0.728,0.581
		c-0.275,0.163-0.582,0.292-0.918,0.385S334.965,15.067,334.602,15.067z M337.107,10.783c-0.028-0.345-0.115-0.665-0.26-0.959
		s-0.326-0.543-0.545-0.749c-0.221-0.205-0.475-0.366-0.764-0.483s-0.598-0.175-0.924-0.175c-0.327,0-0.635,0.058-0.924,0.175
		s-0.544,0.28-0.764,0.49c-0.219,0.21-0.396,0.46-0.531,0.749c-0.136,0.29-0.217,0.607-0.246,0.952H337.107z"/>
	<path fill="#D2D2D2" d="M342.203,15.067c-0.588,0-1.167-0.091-1.736-0.273c-0.569-0.182-1.059-0.446-1.47-0.791l0.532-0.826
		c0.429,0.327,0.858,0.572,1.287,0.735c0.43,0.164,0.883,0.245,1.358,0.245c0.532,0,0.954-0.105,1.267-0.315s0.47-0.506,0.47-0.889
		c0-0.177-0.042-0.329-0.126-0.455s-0.21-0.235-0.379-0.329c-0.168-0.093-0.383-0.177-0.643-0.252
		c-0.262-0.075-0.565-0.154-0.91-0.238c-0.439-0.112-0.817-0.219-1.135-0.322s-0.578-0.224-0.783-0.364
		c-0.206-0.14-0.355-0.308-0.449-0.504c-0.093-0.196-0.139-0.438-0.139-0.728c0-0.364,0.071-0.688,0.217-0.973
		c0.145-0.285,0.342-0.522,0.595-0.714c0.252-0.191,0.548-0.336,0.889-0.434c0.341-0.098,0.707-0.147,1.099-0.147
		c0.551,0,1.064,0.089,1.541,0.266c0.476,0.177,0.877,0.411,1.203,0.7l-0.56,0.742c-0.308-0.271-0.653-0.474-1.036-0.609
		s-0.775-0.203-1.176-0.203c-0.448,0-0.828,0.096-1.141,0.287c-0.313,0.191-0.47,0.497-0.47,0.917c0,0.168,0.03,0.308,0.091,0.42
		c0.061,0.112,0.161,0.21,0.301,0.294c0.141,0.084,0.32,0.159,0.539,0.224c0.22,0.065,0.483,0.135,0.791,0.21
		c0.486,0.112,0.908,0.227,1.268,0.343s0.658,0.254,0.896,0.413c0.237,0.159,0.414,0.346,0.531,0.56
		c0.117,0.215,0.176,0.476,0.176,0.784c0,0.681-0.262,1.223-0.785,1.624C343.794,14.866,343.09,15.067,342.203,15.067z"/>
</g>
<g>
	<path fill="#D2D2D2" d="M70.445,45.598l1.716,2.244l0.089,0.165l0.088-0.165l1.716-2.244h0.803l-2.188,2.882l2.188,2.849h-0.803
		l-1.716-2.233l-0.088-0.154l-0.089,0.154l-1.716,2.233h-0.803l2.188-2.849l-2.188-2.882H70.445z"/>
	<path fill="#D2D2D2" d="M78.311,47.523c0-0.374,0.04-0.742,0.121-1.105c0.08-0.363,0.19-0.722,0.329-1.078
		c0.14-0.356,0.303-0.711,0.49-1.067c0.187-0.355,0.387-0.713,0.6-1.072l0.571,0.275c-0.146,0.22-0.302,0.491-0.467,0.814
		s-0.317,0.667-0.457,1.034s-0.255,0.742-0.347,1.127c-0.092,0.385-0.137,0.753-0.137,1.105c0,0.572,0.124,1.197,0.373,1.875
		c0.25,0.678,0.591,1.348,1.023,2.007l-0.561,0.297c-0.463-0.689-0.835-1.388-1.117-2.096S78.311,48.227,78.311,47.523z"/>
	<path fill="#D2D2D2" d="M83.843,51.439c-0.418,0-0.799-0.079-1.144-0.236s-0.644-0.372-0.896-0.644
		c-0.253-0.271-0.449-0.586-0.589-0.946c-0.139-0.359-0.209-0.737-0.209-1.133c0-0.403,0.072-0.785,0.215-1.144
		c0.143-0.359,0.341-0.674,0.594-0.946s0.552-0.488,0.896-0.649s0.723-0.242,1.133-0.242c0.411,0,0.79,0.081,1.139,0.242
		s0.649,0.377,0.902,0.649s0.451,0.587,0.594,0.946c0.144,0.359,0.215,0.741,0.215,1.144c0,0.396-0.07,0.774-0.209,1.133
		c-0.14,0.359-0.336,0.675-0.589,0.946c-0.253,0.271-0.554,0.486-0.902,0.644C84.645,51.36,84.261,51.439,83.843,51.439z
		 M81.765,48.491c0,0.323,0.055,0.622,0.164,0.896c0.11,0.275,0.259,0.517,0.446,0.726c0.187,0.209,0.406,0.372,0.66,0.489
		c0.253,0.118,0.522,0.176,0.808,0.176c0.286,0,0.556-0.061,0.809-0.182s0.475-0.286,0.666-0.495
		c0.19-0.209,0.341-0.453,0.451-0.731c0.109-0.279,0.165-0.579,0.165-0.902c0-0.315-0.056-0.614-0.165-0.896
		c-0.11-0.282-0.261-0.528-0.451-0.737c-0.191-0.209-0.413-0.374-0.666-0.495c-0.253-0.121-0.522-0.182-0.809-0.182
		c-0.285,0-0.554,0.061-0.803,0.182c-0.249,0.121-0.47,0.288-0.66,0.5c-0.19,0.212-0.341,0.46-0.451,0.742
		C81.819,47.866,81.765,48.168,81.765,48.491z"/>
	<path fill="#D2D2D2" d="M90.806,46.258c-0.506,0.015-0.945,0.154-1.319,0.418c-0.374,0.264-0.639,0.627-0.792,1.089v3.564h-0.748
		v-5.731h0.704v1.375c0.212-0.44,0.498-0.785,0.857-1.034c0.359-0.249,0.744-0.374,1.155-0.374c0.059,0,0.106,0.004,0.143,0.011
		V46.258z"/>
	<path fill="#D2D2D2" d="M94.832,45.598h0.693l-0.286,1.298c0.309-0.433,0.669-0.773,1.084-1.023
		c0.414-0.249,0.838-0.374,1.271-0.374c0.439,0,0.768,0.13,0.984,0.391c0.216,0.26,0.324,0.629,0.324,1.105
		c0.322-0.491,0.694-0.863,1.116-1.117c0.422-0.253,0.853-0.379,1.293-0.379c0.462,0,0.79,0.125,0.984,0.374
		c0.194,0.25,0.292,0.594,0.292,1.034c0,0.315-0.045,0.671-0.133,1.067l-0.715,3.355h-0.748l0.671-3.201
		c0.037-0.168,0.064-0.328,0.083-0.479c0.018-0.15,0.027-0.288,0.027-0.412c0-0.704-0.29-1.056-0.869-1.056
		c-0.205,0-0.409,0.041-0.61,0.121c-0.202,0.081-0.395,0.194-0.577,0.341c-0.184,0.147-0.354,0.321-0.512,0.522
		c-0.158,0.202-0.296,0.423-0.413,0.666l-0.736,3.498h-0.748l0.671-3.201c0.036-0.183,0.066-0.35,0.088-0.5
		c0.022-0.15,0.033-0.288,0.033-0.412c0-0.689-0.29-1.034-0.869-1.034c-0.411,0-0.807,0.15-1.188,0.451
		c-0.381,0.301-0.692,0.697-0.935,1.188l-0.737,3.509h-0.748L94.832,45.598z"/>
	<path fill="#D2D2D2" d="M104.127,52.22l0.187-0.924h-0.253v-1.045h0.727v1.045l-0.275,0.924H104.127z"/>
	<path fill="#D2D2D2" d="M111.761,51.439c-0.418,0-0.801-0.079-1.149-0.236s-0.65-0.374-0.907-0.649s-0.457-0.592-0.6-0.952
		s-0.215-0.744-0.215-1.155c0-0.403,0.072-0.783,0.215-1.139c0.143-0.355,0.341-0.667,0.594-0.935
		c0.253-0.268,0.556-0.48,0.907-0.638c0.353-0.158,0.733-0.237,1.145-0.237c0.418,0,0.801,0.079,1.149,0.237
		s0.647,0.372,0.896,0.643c0.249,0.271,0.443,0.583,0.583,0.935s0.209,0.726,0.209,1.122c0,0.059,0,0.118,0,0.176
		s-0.004,0.099-0.011,0.121h-4.906c0.022,0.308,0.094,0.592,0.215,0.853c0.121,0.261,0.276,0.486,0.467,0.677
		c0.191,0.191,0.409,0.339,0.655,0.445c0.245,0.106,0.508,0.16,0.786,0.16c0.184,0,0.366-0.026,0.55-0.077s0.353-0.121,0.506-0.209
		c0.154-0.088,0.294-0.196,0.418-0.324c0.125-0.128,0.221-0.27,0.286-0.424l0.649,0.176c-0.088,0.212-0.213,0.405-0.374,0.577
		c-0.161,0.172-0.349,0.323-0.562,0.451s-0.447,0.228-0.704,0.297C112.308,51.404,112.039,51.439,111.761,51.439z M113.873,48.161
		c-0.022-0.308-0.094-0.588-0.215-0.841c-0.121-0.253-0.274-0.471-0.462-0.655c-0.187-0.183-0.403-0.326-0.648-0.429
		c-0.246-0.103-0.509-0.154-0.787-0.154s-0.543,0.051-0.792,0.154c-0.249,0.103-0.468,0.246-0.654,0.429
		c-0.188,0.184-0.338,0.403-0.451,0.66s-0.182,0.535-0.203,0.836H113.873z"/>
	<path fill="#D2D2D2" d="M118.449,51.054c-0.044,0.022-0.108,0.051-0.192,0.088c-0.085,0.037-0.182,0.073-0.292,0.11
		c-0.109,0.037-0.234,0.07-0.374,0.099s-0.286,0.044-0.439,0.044c-0.162,0-0.315-0.022-0.462-0.066
		c-0.147-0.044-0.275-0.112-0.386-0.204c-0.109-0.091-0.197-0.207-0.264-0.346c-0.066-0.14-0.099-0.301-0.099-0.484v-4.103h-0.792
		v-0.594h0.792v-1.936h0.748v1.936h1.319v0.594h-1.319v3.894c0.015,0.213,0.089,0.369,0.225,0.468s0.292,0.148,0.468,0.148
		c0.213,0,0.399-0.035,0.562-0.104c0.161-0.07,0.264-0.119,0.308-0.148L118.449,51.054z"/>
	<path fill="#D2D2D2" d="M118.845,48.447c0-0.403,0.07-0.785,0.209-1.144c0.14-0.359,0.336-0.673,0.589-0.94
		s0.556-0.479,0.907-0.633c0.353-0.154,0.741-0.231,1.166-0.231c0.543,0,1.016,0.123,1.419,0.369s0.708,0.578,0.913,0.996
		l-0.726,0.231c-0.162-0.293-0.387-0.522-0.677-0.688s-0.61-0.248-0.963-0.248c-0.293,0-0.566,0.059-0.819,0.176
		c-0.253,0.118-0.473,0.277-0.66,0.479c-0.187,0.202-0.333,0.442-0.439,0.721s-0.159,0.583-0.159,0.913
		c0,0.323,0.055,0.627,0.164,0.913c0.11,0.286,0.261,0.534,0.451,0.743s0.413,0.374,0.666,0.495s0.522,0.182,0.809,0.182
		c0.183,0,0.364-0.026,0.544-0.077s0.347-0.123,0.501-0.214c0.153-0.092,0.286-0.196,0.396-0.313
		c0.11-0.118,0.188-0.242,0.231-0.374l0.736,0.22c-0.08,0.206-0.197,0.395-0.352,0.566c-0.154,0.172-0.336,0.323-0.545,0.451
		s-0.439,0.228-0.692,0.297c-0.253,0.07-0.516,0.104-0.787,0.104c-0.418,0-0.803-0.079-1.154-0.236
		c-0.353-0.158-0.656-0.374-0.913-0.649s-0.457-0.592-0.6-0.952S118.845,48.858,118.845,48.447z"/>
	<path fill="#D2D2D2" d="M127.975,51.329v-1.078h0.649v1.078H127.975z"/>
	<path fill="#D2D2D2" d="M130.054,51.329v-1.078h0.649v1.078H130.054z"/>
	<path fill="#D2D2D2" d="M133.882,47.523c0,0.704-0.14,1.41-0.418,2.118s-0.652,1.406-1.122,2.096l-0.55-0.297
		c0.213-0.33,0.405-0.664,0.577-1.001c0.173-0.337,0.319-0.672,0.44-1.006c0.121-0.333,0.215-0.658,0.28-0.974
		c0.066-0.315,0.1-0.616,0.1-0.902c0-0.352-0.046-0.721-0.138-1.105c-0.092-0.385-0.208-0.761-0.347-1.127
		c-0.14-0.367-0.292-0.711-0.457-1.034s-0.324-0.594-0.479-0.814l0.583-0.275c0.213,0.359,0.413,0.717,0.6,1.072
		c0.188,0.356,0.349,0.711,0.484,1.067c0.136,0.355,0.244,0.715,0.324,1.078C133.842,46.781,133.882,47.149,133.882,47.523z"/>
	<path fill="#D2D2D2" d="M135.08,51.329v-1.078h0.649v1.078H135.08z"/>
</g>
<g>
	<path fill="#D2D2D2" d="M69.482,42.77v-0.806h4.953v0.806H69.482z"/>
</g>
<g>
	<path fill="#D2D2D2" d="M364.332,42.86l1.858,2.496l0.104,0.208l0.117-0.208l1.846-2.496h1.209l-2.535,3.406l2.548,3.38h-1.209
		l-1.858-2.483l-0.117-0.195l-0.104,0.195l-1.858,2.483h-1.209l2.548-3.38l-2.535-3.406H364.332z"/>
	<path fill="#D2D2D2" d="M372.864,53.369v0.606h-2.721v-0.606h1.076v-2.956c-0.046,0.061-0.116,0.125-0.212,0.193
		c-0.097,0.068-0.204,0.131-0.322,0.189c-0.119,0.058-0.241,0.107-0.368,0.147c-0.126,0.041-0.237,0.061-0.333,0.061v-0.636
		c0.111,0,0.235-0.032,0.371-0.095c0.137-0.063,0.267-0.137,0.391-0.22c0.124-0.083,0.229-0.164,0.318-0.242
		c0.088-0.079,0.141-0.133,0.155-0.163h0.683v3.721H372.864z"/>
</g>
<g>
	<path fill="#D2D2D2" d="M363.53,40.087v-0.806h4.953v0.806H363.53z"/>
</g>
<g>
	<path fill="#D2D2D2" d="M364.191,94.39l1.858,2.496l0.104,0.208l0.117-0.208l1.846-2.496h1.209l-2.535,3.406l2.548,3.38h-1.209
		l-1.858-2.483l-0.117-0.195l-0.104,0.195l-1.858,2.483h-1.209l2.548-3.38l-2.535-3.406H364.191z"/>
	<path fill="#D2D2D2" d="M369.821,105.505c0-0.202,0.016-0.392,0.049-0.568s0.095-0.346,0.186-0.508s0.216-0.316,0.375-0.462
		s0.368-0.293,0.626-0.439c0.151-0.081,0.306-0.161,0.462-0.239s0.3-0.162,0.429-0.25s0.234-0.183,0.318-0.284
		c0.083-0.101,0.125-0.22,0.125-0.356c0-0.086-0.021-0.172-0.061-0.258c-0.041-0.086-0.099-0.162-0.175-0.227
		c-0.076-0.066-0.171-0.119-0.284-0.159s-0.244-0.061-0.391-0.061c-0.151,0-0.289,0.021-0.413,0.064
		c-0.123,0.043-0.233,0.096-0.329,0.159c-0.097,0.063-0.18,0.13-0.25,0.201c-0.071,0.071-0.129,0.134-0.175,0.189l-0.432-0.485
		c0.04-0.045,0.108-0.107,0.204-0.186c0.097-0.078,0.218-0.158,0.364-0.239c0.146-0.081,0.315-0.15,0.508-0.208
		c0.191-0.058,0.406-0.087,0.645-0.087c0.231,0,0.441,0.032,0.629,0.095c0.187,0.063,0.345,0.15,0.474,0.261
		c0.129,0.111,0.229,0.242,0.299,0.391c0.071,0.149,0.106,0.307,0.106,0.474c0,0.197-0.043,0.369-0.129,0.515
		c-0.086,0.147-0.19,0.275-0.314,0.387s-0.257,0.206-0.398,0.284c-0.141,0.079-0.268,0.146-0.379,0.201
		c-0.11,0.056-0.235,0.123-0.375,0.201c-0.139,0.078-0.271,0.167-0.397,0.265c-0.127,0.099-0.236,0.208-0.33,0.33
		s-0.152,0.253-0.178,0.394h2.584v0.606H369.821z"/>
</g>
<g>
	<path fill="#D2D2D2" d="M363.39,91.617v-0.806h4.953v0.806H363.39z"/>
</g>
<g>
	<path fill="#D2D2D2" d="M364.473,134.408l1.858,2.496l0.104,0.209l0.117-0.209l1.846-2.496h1.209l-2.535,3.406l2.548,3.381h-1.209
		l-1.858-2.483l-0.117-0.195l-0.104,0.195l-1.858,2.483h-1.209l2.548-3.381l-2.535-3.406H364.473z"/>
	<path fill="#D2D2D2" d="M372.489,143.735c0.323,0.056,0.58,0.204,0.77,0.447c0.189,0.242,0.284,0.543,0.284,0.901
		c0,0.232-0.043,0.445-0.129,0.637c-0.086,0.192-0.208,0.356-0.367,0.492c-0.159,0.137-0.351,0.242-0.572,0.315
		c-0.223,0.073-0.47,0.11-0.743,0.11c-0.384,0-0.721-0.072-1.012-0.217c-0.29-0.145-0.517-0.348-0.678-0.609l0.447-0.447
		c0.115,0.207,0.272,0.369,0.47,0.488c0.196,0.119,0.454,0.178,0.772,0.178c0.349,0,0.623-0.078,0.822-0.234
		c0.2-0.156,0.3-0.395,0.3-0.713s-0.107-0.572-0.322-0.762s-0.526-0.283-0.936-0.283h-0.197v-0.562h0.212
		c0.364,0,0.643-0.087,0.838-0.261c0.194-0.175,0.292-0.396,0.292-0.664s-0.094-0.467-0.281-0.599
		c-0.187-0.132-0.422-0.196-0.704-0.196c-0.278,0-0.522,0.059-0.731,0.178c-0.21,0.119-0.373,0.283-0.489,0.496l-0.409-0.424
		c0.065-0.127,0.155-0.242,0.27-0.346c0.113-0.104,0.244-0.193,0.394-0.269c0.149-0.076,0.311-0.134,0.485-0.175
		c0.174-0.04,0.357-0.061,0.549-0.061c0.238,0,0.456,0.033,0.656,0.099c0.199,0.065,0.371,0.157,0.516,0.272
		c0.144,0.117,0.255,0.258,0.333,0.425s0.117,0.352,0.117,0.554c0,0.151-0.021,0.295-0.064,0.432s-0.105,0.26-0.189,0.371
		c-0.083,0.111-0.185,0.203-0.303,0.277C372.769,143.66,372.636,143.71,372.489,143.735z"/>
</g>
<g>
	<path fill="#D2D2D2" d="M363.671,131.636v-0.806h4.953v0.806H363.671z"/>
</g>
<g>
	<path fill="#D2D2D2" d="M365.473,207.578l1.858,2.496l0.104,0.209l0.117-0.209l1.846-2.496h1.209l-2.535,3.406l2.548,3.381h-1.209
		l-1.858-2.483l-0.117-0.195l-0.104,0.195l-1.858,2.483h-1.209l2.548-3.381l-2.535-3.406H365.473z"/>
	<path fill="#D2D2D2" d="M374.005,218.088v0.605h-2.721v-0.605h1.076v-2.956c-0.046,0.061-0.116,0.125-0.212,0.193
		c-0.097,0.067-0.204,0.132-0.322,0.189c-0.119,0.058-0.241,0.107-0.368,0.147c-0.126,0.041-0.237,0.061-0.333,0.061v-0.637
		c0.111,0,0.235-0.031,0.371-0.094c0.137-0.064,0.267-0.137,0.391-0.221c0.124-0.083,0.229-0.164,0.318-0.242
		c0.088-0.078,0.141-0.133,0.155-0.163h0.683v3.722H374.005z"/>
	<path fill="#D2D2D2" d="M378.431,216.473c0,0.334-0.048,0.641-0.144,0.922c-0.097,0.279-0.23,0.522-0.402,0.727
		c-0.172,0.205-0.375,0.364-0.609,0.479c-0.235,0.113-0.489,0.17-0.762,0.17c-0.278,0-0.535-0.057-0.77-0.17
		c-0.235-0.114-0.438-0.273-0.606-0.479c-0.169-0.204-0.302-0.447-0.397-0.727c-0.097-0.281-0.145-0.588-0.145-0.922
		c0-0.333,0.048-0.64,0.145-0.92c0.096-0.281,0.229-0.523,0.397-0.729c0.169-0.204,0.371-0.364,0.606-0.48
		c0.234-0.116,0.491-0.175,0.77-0.175c0.272,0,0.526,0.059,0.762,0.175c0.234,0.116,0.438,0.276,0.609,0.48
		c0.172,0.205,0.306,0.447,0.402,0.729C378.383,215.833,378.431,216.14,378.431,216.473z M377.756,216.473
		c0-0.247-0.03-0.475-0.091-0.682s-0.146-0.385-0.258-0.534c-0.11-0.149-0.242-0.265-0.394-0.345
		c-0.151-0.081-0.318-0.121-0.5-0.121c-0.188,0-0.358,0.04-0.512,0.121c-0.154,0.08-0.286,0.195-0.395,0.345
		s-0.193,0.327-0.254,0.534s-0.091,0.435-0.091,0.682c0,0.254,0.03,0.482,0.091,0.687s0.146,0.38,0.254,0.526
		s0.24,0.261,0.395,0.342c0.153,0.08,0.324,0.121,0.512,0.121c0.182,0,0.349-0.041,0.5-0.121c0.151-0.081,0.283-0.195,0.394-0.342
		c0.111-0.146,0.197-0.322,0.258-0.526S377.756,216.727,377.756,216.473z"/>
	<path fill="#D2D2D2" d="M383.084,216.473c0,0.334-0.048,0.641-0.144,0.922c-0.097,0.279-0.23,0.522-0.402,0.727
		c-0.172,0.205-0.375,0.364-0.609,0.479c-0.235,0.113-0.489,0.17-0.762,0.17c-0.278,0-0.535-0.057-0.77-0.17
		c-0.235-0.114-0.438-0.273-0.606-0.479c-0.169-0.204-0.302-0.447-0.397-0.727c-0.097-0.281-0.145-0.588-0.145-0.922
		c0-0.333,0.048-0.64,0.145-0.92c0.096-0.281,0.229-0.523,0.397-0.729c0.169-0.204,0.371-0.364,0.606-0.48
		c0.234-0.116,0.491-0.175,0.77-0.175c0.272,0,0.526,0.059,0.762,0.175c0.234,0.116,0.438,0.276,0.609,0.48
		c0.172,0.205,0.306,0.447,0.402,0.729C383.036,215.833,383.084,216.14,383.084,216.473z M382.409,216.473
		c0-0.247-0.03-0.475-0.091-0.682s-0.146-0.385-0.258-0.534c-0.11-0.149-0.242-0.265-0.394-0.345
		c-0.151-0.081-0.318-0.121-0.5-0.121c-0.188,0-0.358,0.04-0.512,0.121c-0.154,0.08-0.286,0.195-0.395,0.345
		s-0.193,0.327-0.254,0.534s-0.091,0.435-0.091,0.682c0,0.254,0.03,0.482,0.091,0.687s0.146,0.38,0.254,0.526
		s0.24,0.261,0.395,0.342c0.153,0.08,0.324,0.121,0.512,0.121c0.182,0,0.349-0.041,0.5-0.121c0.151-0.081,0.283-0.195,0.394-0.342
		c0.111-0.146,0.197-0.322,0.258-0.526S382.409,216.727,382.409,216.473z"/>
	<path fill="#D2D2D2" d="M387.738,216.473c0,0.334-0.048,0.641-0.144,0.922c-0.097,0.279-0.23,0.522-0.402,0.727
		c-0.172,0.205-0.375,0.364-0.609,0.479c-0.235,0.113-0.489,0.17-0.762,0.17c-0.278,0-0.535-0.057-0.77-0.17
		c-0.235-0.114-0.438-0.273-0.606-0.479c-0.169-0.204-0.302-0.447-0.397-0.727c-0.097-0.281-0.145-0.588-0.145-0.922
		c0-0.333,0.048-0.64,0.145-0.92c0.096-0.281,0.229-0.523,0.397-0.729c0.169-0.204,0.371-0.364,0.606-0.48
		c0.234-0.116,0.491-0.175,0.77-0.175c0.272,0,0.526,0.059,0.762,0.175c0.234,0.116,0.438,0.276,0.609,0.48
		c0.172,0.205,0.306,0.447,0.402,0.729C387.69,215.833,387.738,216.14,387.738,216.473z M387.063,216.473
		c0-0.247-0.03-0.475-0.091-0.682s-0.146-0.385-0.258-0.534c-0.11-0.149-0.242-0.265-0.394-0.345
		c-0.151-0.081-0.318-0.121-0.5-0.121c-0.188,0-0.358,0.04-0.512,0.121c-0.154,0.08-0.286,0.195-0.395,0.345
		s-0.193,0.327-0.254,0.534s-0.091,0.435-0.091,0.682c0,0.254,0.03,0.482,0.091,0.687s0.146,0.38,0.254,0.526
		s0.24,0.261,0.395,0.342c0.153,0.08,0.324,0.121,0.512,0.121c0.182,0,0.349-0.041,0.5-0.121c0.151-0.081,0.283-0.195,0.394-0.342
		c0.111-0.146,0.197-0.322,0.258-0.526S387.063,216.727,387.063,216.473z"/>
	<path fill="#D2D2D2" d="M392.392,216.473c0,0.334-0.048,0.641-0.144,0.922c-0.097,0.279-0.23,0.522-0.402,0.727
		c-0.172,0.205-0.375,0.364-0.609,0.479c-0.235,0.113-0.489,0.17-0.762,0.17c-0.278,0-0.535-0.057-0.77-0.17
		c-0.235-0.114-0.438-0.273-0.606-0.479c-0.169-0.204-0.302-0.447-0.397-0.727c-0.097-0.281-0.145-0.588-0.145-0.922
		c0-0.333,0.048-0.64,0.145-0.92c0.096-0.281,0.229-0.523,0.397-0.729c0.169-0.204,0.371-0.364,0.606-0.48
		c0.234-0.116,0.491-0.175,0.77-0.175c0.272,0,0.526,0.059,0.762,0.175c0.234,0.116,0.438,0.276,0.609,0.48
		c0.172,0.205,0.306,0.447,0.402,0.729C392.344,215.833,392.392,216.14,392.392,216.473z M391.717,216.473
		c0-0.247-0.03-0.475-0.091-0.682s-0.146-0.385-0.258-0.534c-0.11-0.149-0.242-0.265-0.394-0.345
		c-0.151-0.081-0.318-0.121-0.5-0.121c-0.188,0-0.358,0.04-0.512,0.121c-0.154,0.08-0.286,0.195-0.395,0.345
		s-0.193,0.327-0.254,0.534s-0.091,0.435-0.091,0.682c0,0.254,0.03,0.482,0.091,0.687s0.146,0.38,0.254,0.526
		s0.24,0.261,0.395,0.342c0.153,0.08,0.324,0.121,0.512,0.121c0.182,0,0.349-0.041,0.5-0.121c0.151-0.081,0.283-0.195,0.394-0.342
		c0.111-0.146,0.197-0.322,0.258-0.526S391.717,216.727,391.717,216.473z"/>
</g>
<g>
	<path fill="#D2D2D2" d="M364.671,204.806V204h4.953v0.806H364.671z"/>
</g>
<g>
</g>
<g>
</g>
<g>
</g>
<g>
</g>
<g>
</g>
<g>
</g>
</svg>
