<?xml version="1.0" encoding="utf-8"?>
<!-- Generator: Adobe Illustrator 16.0.4, SVG Export Plug-In . SVG Version: 6.00 Build 0)  -->
<!DOCTYPE svg PUBLIC "-//W3C//DTD SVG 1.1//EN" "http://www.w3.org/Graphics/SVG/1.1/DTD/svg11.dtd">
<svg version="1.1" id="Layer_1" xmlns="http://www.w3.org/2000/svg" xmlns:xlink="http://www.w3.org/1999/xlink" x="0px" y="0px"
	 width="228.5px" height="125.75px" viewBox="0 0 228.5 125.75" enable-background="new 0 0 228.5 125.75" xml:space="preserve">
<g>
	<circle fill="#F0AD4E" cx="54.201" cy="76.018" r="8.333"/>
	<path fill="#5BC0DE" d="M58.364,68.807l-0.062,0.107L54.2,76.018l-4.101-7.104l-0.062-0.107c-2.49,1.441-4.17,4.127-4.17,7.211
		c0,4.604,3.731,8.334,8.333,8.334c4.603,0,8.333-3.73,8.333-8.334C62.534,72.934,60.854,70.248,58.364,68.807z"/>
</g>
<g>
	<circle fill="#F0AD4E" cx="154.976" cy="52.98" r="8.334"/>
	<path fill="#5BC0DE" d="M163.253,52.074l-0.123,0.014l-8.154,0.893l3.304-7.508l0.05-0.113c-2.635-1.156-5.793-0.922-8.281,0.9
		c-3.711,2.723-4.514,7.938-1.793,11.648c2.721,3.712,7.936,4.515,11.648,1.793C162.39,57.877,163.564,54.935,163.253,52.074z"/>
</g>
<g>
	<circle fill="#F0AD4E" cx="34.035" cy="97.621" r="8.334"/>
	<path fill="#5BC0DE" d="M25.97,95.549l0.121,0.031l7.944,2.041l-5.74,5.859l-0.087,0.089c2.057,2.012,5.096,2.907,8.066,2.079
		c4.434-1.237,7.024-5.834,5.788-10.267c-1.236-4.433-5.833-7.024-10.266-5.787C28.825,90.424,26.689,92.764,25.97,95.549z"/>
</g>
<g>
	<circle fill="#F0AD4E" cx="13.383" cy="54.39" r="8.333"/>
	<path fill="#5BC0DE" d="M13.282,54.39l-6.01-5.653c-1.375,1.486-2.223,3.468-2.223,5.653c0,4.603,3.73,8.333,8.333,8.333
		s8.333-3.731,8.333-8.333c0-2.234-0.884-4.259-2.316-5.755L13.282,54.39z"/>
</g>
<g>
	<circle fill="#F0AD4E" cx="154.976" cy="33.744" r="8.333"/>
	<path fill="#5BC0DE" d="M156.596,25.572l-1.62,6.942l-1.62-6.942c-3.826,0.754-6.713,4.125-6.713,8.172
		c0,4.604,3.73,8.334,8.333,8.334s8.333-3.73,8.333-8.334C163.309,29.697,160.422,26.326,156.596,25.572z"/>
</g>
<g>
	<circle fill="#F0AD4E" cx="135.305" cy="91.886" r="8.334"/>
	<path fill="#5BC0DE" d="M143.582,90.979l-0.123,0.014l-8.154,0.893l3.304-7.508l0.05-0.113c-2.635-1.156-5.793-0.922-8.281,0.9
		c-3.711,2.723-4.514,7.938-1.793,11.648c2.721,3.712,7.936,4.515,11.648,1.793C142.719,96.783,143.893,93.841,143.582,90.979z"/>
</g>
<g>
	<circle fill="#F0AD4E" cx="135.305" cy="71.913" r="8.334"/>
	<path fill="#5BC0DE" d="M133.414,63.8l1.384,6.993l-4.336-5.658c-3.176,2.263-4.417,6.524-2.75,10.211
		c1.896,4.195,6.833,6.057,11.026,4.161s6.056-6.832,4.16-11.027C141.23,64.793,137.211,62.911,133.414,63.8z"/>
</g>
<g>
	<circle fill="#F0AD4E" cx="34.035" cy="54.39" r="8.333"/>
	<path fill="#5BC0DE" d="M28.872,47.851l4.228,5.741l-6.332-3.276c-1.911,3.399-1.222,7.784,1.856,10.412
		c3.5,2.989,8.76,2.574,11.749-0.925c2.989-3.5,2.574-8.76-0.926-11.749C36.369,45.424,31.931,45.431,28.872,47.851z"/>
</g>
<g>
	<circle fill="#F0AD4E" cx="135.371" cy="33.745" r="8.333"/>
	<path fill="#5BC0DE" d="M134.897,33.825l-4.109-7.116c-2.33,1.478-3.881,4.073-3.881,7.036c0,4.603,3.73,8.333,8.332,8.333
		c1.398,0,2.713-0.348,3.871-0.957L134.897,33.825z"/>
</g>
<g>
	<circle fill="#F0AD4E" cx="54.201" cy="97.681" r="8.334"/>
	<path fill="#5BC0DE" d="M54.318,97.215l8.166-0.908c-0.418-2.729-2.172-5.189-4.887-6.379c-4.216-1.847-9.13,0.074-10.977,4.289
		c-0.561,1.281-0.77,2.625-0.676,3.93L54.318,97.215z"/>
</g>
<g>
	<circle fill="#F0AD4E" cx="115.874" cy="33.745" r="8.334"/>
	<path fill="#5BC0DE" d="M108.917,29.164l6.957,4.648l6.957-4.648c-1.49-2.259-4.048-3.752-6.957-3.752
		S110.407,26.905,108.917,29.164z"/>
</g>
<g>
	<circle fill="#F0AD4E" cx="13.383" cy="97.62" r="8.333"/>
	<path fill="#5BC0DE" d="M5.549,100.454l7.887-2.793l0.439-8.356c-2.701-0.157-5.428,0.998-7.169,3.33
		C4.965,94.965,4.631,97.908,5.549,100.454z"/>
</g>
<g>
	<circle fill="#F0AD4E" cx="54.201" cy="54.39" r="8.334"/>
	<path fill="#5BC0DE" d="M54.011,46.057c-0.959,0-1.877,0.171-2.736,0.47l0.205,0.529l2.748,7.104l2.746-7.104l0.152-0.392
		C56.164,46.275,55.113,46.057,54.011,46.057z"/>
</g>
<g>
	<circle fill="#F0AD4E" cx="115.874" cy="52.98" r="8.334"/>
	<path fill="#5BC0DE" d="M122.762,48.295l-6.888,4.685l-3.118-7.724c-2.254,0.911-4.093,2.793-4.855,5.301
		c-1.338,4.404,1.147,9.059,5.551,10.396s9.059-1.147,10.396-5.551C124.609,52.895,124.129,50.307,122.762,48.295z"/>
</g>
<g>
	<circle fill="#F0AD4E" cx="13.383" cy="76.018" r="8.334"/>
	<path fill="#5BC0DE" d="M18.592,69.519c-1.426-1.145-3.236-1.834-5.209-1.834s-3.781,0.689-5.209,1.834l5.209,6.499L18.592,69.519z
		"/>
</g>
<g>
	<circle fill="#F0AD4E" cx="34.036" cy="76.019" r="8.333"/>
	<path fill="#5BC0DE" d="M37.873,68.622c-1.348-0.699-2.797-0.986-4.212-0.921l0.006,0.124l0.37,8.194l6.912-4.418l0.104-0.067
		C40.291,70.34,39.221,69.321,37.873,68.622z"/>
</g>
<g>
	<circle fill="#F0AD4E" cx="214.677" cy="52.979" r="8.333"/>
	<path fill="#5BC0DE" d="M218.84,45.769l-0.062,0.107l-4.102,7.104l-4.101-7.104l-0.062-0.107c-2.49,1.441-4.17,4.127-4.17,7.211
		c0,4.604,3.73,8.334,8.333,8.334s8.333-3.73,8.333-8.334C223.01,49.896,221.33,47.21,218.84,45.769z"/>
</g>
<g>
	<circle fill="#F0AD4E" cx="195.345" cy="71.914" r="8.334"/>
	<path fill="#5BC0DE" d="M187.281,69.842l0.12,0.031l7.944,2.041l-5.74,5.859l-0.086,0.089c2.057,2.012,5.096,2.907,8.065,2.079
		c4.434-1.237,7.024-5.834,5.788-10.267s-5.834-7.024-10.267-5.787C190.136,64.717,188,67.057,187.281,69.842z"/>
</g>
<g>
	<circle fill="#F0AD4E" cx="175.938" cy="33.745" r="8.333"/>
	<path fill="#5BC0DE" d="M175.836,33.745l-6.009-5.653c-1.375,1.486-2.223,3.468-2.223,5.653c0,4.603,3.73,8.333,8.333,8.333
		c4.602,0,8.332-3.731,8.332-8.333c0-2.234-0.883-4.259-2.316-5.755L175.836,33.745z"/>
</g>
<g>
	<circle fill="#F0AD4E" cx="195.346" cy="33.745" r="8.334"/>
	<path fill="#5BC0DE" d="M190.183,27.206l4.228,5.741l-6.332-3.276c-1.91,3.399-1.222,7.784,1.856,10.412
		c3.5,2.989,8.761,2.574,11.749-0.925c2.988-3.5,2.574-8.76-0.926-11.749C197.68,24.779,193.241,24.786,190.183,27.206z"/>
</g>
<g>
	<circle fill="#F0AD4E" cx="214.678" cy="71.974" r="8.334"/>
	<path fill="#5BC0DE" d="M214.795,71.508l8.166-0.908c-0.418-2.729-2.172-5.189-4.887-6.379c-4.217-1.847-9.131,0.074-10.978,4.289
		c-0.561,1.281-0.77,2.625-0.677,3.93L214.795,71.508z"/>
</g>
<g>
	<circle fill="#F0AD4E" cx="175.938" cy="71.913" r="8.333"/>
	<path fill="#5BC0DE" d="M168.104,74.747l7.887-2.793l0.439-8.356c-2.701-0.157-5.428,0.998-7.169,3.33
		C167.521,69.258,167.187,72.201,168.104,74.747z"/>
</g>
<g>
	<circle fill="#F0AD4E" cx="154.976" cy="112.441" r="8.334"/>
	<path fill="#5BC0DE" d="M153.404,104.266l0.023,0.122l1.549,8.054l-7.75-2.686l-0.117-0.04c-0.94,2.719-0.451,5.849,1.566,8.18
		c3.013,3.48,8.276,3.858,11.755,0.848c3.479-3.012,3.858-8.276,0.846-11.755C159.257,104.657,156.229,103.725,153.404,104.266z"/>
</g>
<g>
	<circle fill="#F0AD4E" cx="175.979" cy="112.49" r="8.334"/>
	<path fill="#5BC0DE" d="M175.622,112.17l2.999-7.649c-2.608-0.901-5.604-0.495-7.92,1.353c-3.599,2.872-4.188,8.115-1.318,11.712
		c0.873,1.093,1.964,1.903,3.162,2.429L175.622,112.17z"/>
</g>
<g>
	<circle fill="#F0AD4E" cx="135.305" cy="112.441" r="8.333"/>
	<path fill="#5BC0DE" d="M127.079,111.126l8.252,1.377l4.432-7.098c-2.287-1.446-5.232-1.756-7.885-0.559
		C129.227,106.042,127.509,108.455,127.079,111.126z"/>
</g>
<g>
	<circle fill="#F0AD4E" cx="214.677" cy="33.744" r="8.334"/>
	<path fill="#5BC0DE" d="M214.487,25.411c-0.959,0-1.877,0.171-2.736,0.47l0.205,0.529l2.748,7.104l2.746-7.104l0.152-0.392
		C216.64,25.63,215.589,25.411,214.487,25.411z"/>
</g>
<g>
	<circle fill="#F0AD4E" cx="195.347" cy="112.441" r="8.334"/>
	<path fill="#5BC0DE" d="M195.157,104.109c-0.959,0-1.877,0.171-2.736,0.47l0.205,0.529l2.748,7.103l2.746-7.103l0.152-0.392
		C197.31,104.328,196.259,104.109,195.157,104.109z"/>
</g>
<g>
	<circle fill="#F0AD4E" cx="175.938" cy="52.98" r="8.334"/>
	<path fill="#5BC0DE" d="M181.147,46.481c-1.426-1.145-3.236-1.834-5.209-1.834c-1.973,0-3.782,0.689-5.209,1.834l5.209,6.499
		L181.147,46.481z"/>
</g>
<g>
	<circle fill="#F0AD4E" cx="195.347" cy="52.98" r="8.333"/>
	<path fill="#5BC0DE" d="M199.184,45.583c-1.348-0.699-2.798-0.986-4.213-0.921l0.006,0.124l0.37,8.194l6.911-4.418l0.105-0.067
		C201.602,47.302,200.531,46.283,199.184,45.583z"/>
</g>
<g>
	<circle fill="#F0AD4E" cx="115.873" cy="112.442" r="8.334"/>
	<path fill="#5BC0DE" d="M108.138,115.522l0.115-0.046l7.62-3.035l-1.182,8.117l-0.017,0.123c2.847,0.412,5.83-0.656,7.741-3.076
		c2.852-3.613,2.234-8.854-1.377-11.705c-3.612-2.851-8.854-2.234-11.705,1.378C107.422,109.7,107.077,112.849,108.138,115.522z"/>
</g>
<g>
	<circle fill="#F0AD4E" cx="115.874" cy="71.914" r="8.334"/>
	<path fill="#5BC0DE" d="M123.848,69.497l-6.889,1.837l5.364-4.697c-2.466-3.021-6.799-3.981-10.371-2.077
		c-4.061,2.166-5.598,7.214-3.432,11.275c2.166,4.061,7.214,5.597,11.275,3.432C123.367,77.362,124.983,73.229,123.848,69.497z"/>
</g>
<g>
	<circle fill="#F0AD4E" cx="115.874" cy="91.886" r="8.333"/>
	<path fill="#5BC0DE" d="M109.491,86.528c-0.976,1.163-1.573,2.516-1.817,3.911l0.123,0.021l8.078,1.426l-2.805-7.708l-0.042-0.118
		C111.696,84.543,110.468,85.366,109.491,86.528z"/>
</g>
<g>
	<circle fill="#F0AD4E" cx="135.305" cy="52.98" r="8.333"/>
	<path fill="#5BC0DE" d="M131.269,45.69c-1.328,0.735-2.37,1.784-3.099,2.999l0.106,0.063l7.029,4.228l0.146-8.201l0.002-0.125
		C134.038,44.628,132.597,44.955,131.269,45.69z"/>
</g>
<g>
	<circle fill="#F0AD4E" cx="214.676" cy="91.886" r="8.334"/>
	<path fill="#5BC0DE" d="M216.51,83.764l-0.027,0.121l-1.807,8.001l-6.025-5.566l-0.091-0.083c-1.95,2.116-2.756,5.179-1.841,8.124
		c1.368,4.395,6.038,6.849,10.433,5.483s6.849-6.037,5.482-10.433C221.718,86.467,219.316,84.4,216.51,83.764z"/>
</g>
<g>
	<circle fill="#F0AD4E" cx="175.938" cy="91.886" r="8.333"/>
	<path fill="#5BC0DE" d="M183.826,94.564l-7.888-2.678l4.288-7.141c-2.084-1.25-4.694-1.585-7.155-0.684
		c-4.322,1.584-6.541,6.371-4.958,10.692c1.583,4.321,6.371,6.541,10.692,4.958C181.267,98.809,183.043,96.867,183.826,94.564z"/>
</g>
<g>
	<circle fill="#F0AD4E" cx="195.347" cy="91.887" r="8.333"/>
	<path fill="#5BC0DE" d="M198.181,99.723c1.428-0.517,2.622-1.388,3.533-2.472l-0.095-0.08l-6.273-5.284l-1.439,8.075l-0.021,0.123
		C195.278,100.333,196.754,100.239,198.181,99.723z"/>
</g>
<g>
	<circle fill="#F0AD4E" cx="154.976" cy="71.851" r="8.333"/>
	<path fill="#5BC0DE" d="M154.947,72.33l-7.863,2.387c0.91,2.604,3.085,4.704,5.972,5.376c4.482,1.044,8.963-1.742,10.007-6.224
		c0.317-1.362,0.277-2.721-0.053-3.987L154.947,72.33z"/>
</g>
<g>
	<circle fill="#F0AD4E" cx="214.673" cy="112.377" r="8.333"/>
	<path fill="#5BC0DE" d="M214.781,112.845l-6.858,4.526c1.613,2.238,4.297,3.631,7.255,3.454c4.595-0.274,8.096-4.221,7.821-8.814
		c-0.084-1.396-0.509-2.688-1.186-3.807L214.781,112.845z"/>
</g>
<g>
	<circle fill="#F0AD4E" cx="154.976" cy="91.886" r="8.333"/>
	<path fill="#5BC0DE" d="M150.939,84.596c-1.328,0.735-2.37,1.784-3.099,2.999l0.106,0.063l7.029,4.228l0.146-8.201l0.002-0.125
		C153.709,83.535,152.268,83.861,150.939,84.596z"/>
</g>
<g>
	<path fill="#D2D2D2" d="M14.174,29.562c-0.08-0.088-0.196-0.182-0.348-0.282s-0.33-0.194-0.534-0.282
		c-0.204-0.088-0.428-0.16-0.672-0.216s-0.494-0.084-0.75-0.084c-0.568,0-0.986,0.104-1.254,0.312s-0.402,0.496-0.402,0.864
		c0,0.208,0.042,0.378,0.126,0.51c0.084,0.132,0.214,0.248,0.39,0.348c0.176,0.1,0.396,0.188,0.66,0.264
		c0.264,0.076,0.572,0.158,0.924,0.246c0.432,0.104,0.822,0.22,1.17,0.348s0.642,0.284,0.882,0.468
		c0.24,0.184,0.426,0.41,0.558,0.678s0.198,0.594,0.198,0.978c0,0.432-0.083,0.804-0.246,1.116
		c-0.164,0.312-0.388,0.566-0.672,0.762c-0.284,0.196-0.614,0.34-0.99,0.432c-0.376,0.092-0.78,0.138-1.212,0.138
		c-0.648,0-1.274-0.098-1.878-0.294c-0.604-0.196-1.15-0.482-1.638-0.858l0.612-1.152c0.104,0.104,0.254,0.22,0.45,0.348
		c0.196,0.128,0.424,0.246,0.684,0.354c0.26,0.108,0.542,0.2,0.846,0.276c0.304,0.076,0.62,0.114,0.948,0.114
		c0.528,0,0.936-0.092,1.224-0.276c0.288-0.184,0.432-0.456,0.432-0.816c0-0.216-0.054-0.396-0.162-0.54
		c-0.108-0.144-0.262-0.27-0.462-0.378c-0.2-0.108-0.444-0.206-0.732-0.294c-0.288-0.088-0.616-0.18-0.984-0.276
		c-0.424-0.112-0.794-0.23-1.11-0.354c-0.316-0.124-0.578-0.274-0.786-0.45c-0.208-0.176-0.366-0.382-0.474-0.618
		S8.81,30.426,8.81,30.09c0-0.416,0.08-0.786,0.24-1.11c0.16-0.324,0.378-0.596,0.654-0.816c0.276-0.22,0.602-0.386,0.978-0.498
		c0.376-0.112,0.784-0.168,1.224-0.168c0.576,0,1.108,0.092,1.596,0.276c0.488,0.184,0.916,0.412,1.284,0.684L14.174,29.562z"/>
	<path fill="#D2D2D2" d="M17.966,36.198c-0.304,0-0.586-0.05-0.846-0.15c-0.26-0.1-0.484-0.238-0.672-0.414
		c-0.188-0.176-0.336-0.384-0.444-0.624c-0.108-0.24-0.162-0.5-0.162-0.78c0-0.296,0.064-0.564,0.192-0.804
		c0.128-0.24,0.31-0.448,0.546-0.624c0.236-0.176,0.516-0.312,0.84-0.408c0.324-0.096,0.682-0.144,1.074-0.144
		c0.296,0,0.588,0.026,0.876,0.078c0.288,0.052,0.548,0.122,0.78,0.21v-0.432c0-0.464-0.132-0.826-0.396-1.086
		c-0.264-0.26-0.644-0.39-1.14-0.39c-0.336,0-0.666,0.062-0.99,0.186c-0.324,0.125-0.658,0.302-1.002,0.534l-0.408-0.84
		c0.808-0.544,1.648-0.816,2.52-0.816c0.864,0,1.536,0.22,2.016,0.66s0.72,1.072,0.72,1.896v2.268c0,0.28,0.116,0.424,0.348,0.432
		v1.128c-0.128,0.024-0.238,0.04-0.33,0.048s-0.182,0.012-0.27,0.012c-0.256,0-0.454-0.064-0.594-0.192
		c-0.14-0.128-0.226-0.292-0.258-0.492l-0.036-0.396c-0.28,0.368-0.626,0.65-1.038,0.846C18.88,36.1,18.438,36.198,17.966,36.198z
		 M18.326,35.226c0.32,0,0.622-0.058,0.906-0.174c0.284-0.116,0.506-0.278,0.666-0.486c0.168-0.144,0.252-0.296,0.252-0.456v-0.828
		c-0.224-0.088-0.462-0.156-0.714-0.204s-0.498-0.072-0.738-0.072c-0.472,0-0.858,0.102-1.158,0.306
		c-0.3,0.204-0.45,0.474-0.45,0.81c0,0.312,0.116,0.574,0.348,0.786C17.67,35.12,17.966,35.226,18.326,35.226z"/>
	<path fill="#D2D2D2" d="M32.666,36.078h-1.32v-3.516c0-0.584-0.096-1.012-0.288-1.284c-0.192-0.272-0.472-0.408-0.84-0.408
		c-0.376,0-0.718,0.138-1.026,0.414s-0.53,0.634-0.666,1.074v3.72h-1.32v-3.516c0-0.592-0.096-1.022-0.288-1.29
		c-0.192-0.268-0.468-0.402-0.828-0.402c-0.376,0-0.72,0.136-1.032,0.408s-0.536,0.628-0.672,1.068v3.732h-1.32v-6.276h1.2v1.26
		c0.248-0.44,0.574-0.778,0.978-1.014c0.404-0.236,0.866-0.354,1.386-0.354s0.93,0.136,1.23,0.408c0.3,0.272,0.486,0.612,0.558,1.02
		c0.264-0.464,0.596-0.818,0.996-1.062c0.4-0.244,0.856-0.366,1.368-0.366c0.368,0,0.674,0.07,0.918,0.21
		c0.244,0.14,0.438,0.326,0.582,0.558c0.144,0.232,0.244,0.502,0.3,0.81c0.056,0.308,0.084,0.634,0.084,0.978V36.078z"/>
	<path fill="#D2D2D2" d="M37.753,36.198c-0.504,0-0.948-0.12-1.332-0.36c-0.384-0.24-0.688-0.552-0.912-0.936v3.732h-1.32v-8.832
		h1.164v1.128c0.24-0.376,0.55-0.676,0.93-0.9c0.38-0.224,0.81-0.336,1.29-0.336c0.432,0,0.828,0.088,1.188,0.264
		c0.36,0.176,0.672,0.412,0.936,0.708c0.264,0.296,0.47,0.64,0.618,1.032s0.222,0.804,0.222,1.236c0,0.456-0.068,0.882-0.204,1.278
		c-0.136,0.396-0.328,0.74-0.576,1.032s-0.542,0.524-0.882,0.696C38.535,36.112,38.162,36.198,37.753,36.198z M37.321,35.07
		c0.28,0,0.534-0.06,0.762-0.18s0.424-0.28,0.588-0.48c0.164-0.2,0.29-0.428,0.378-0.684c0.088-0.256,0.132-0.52,0.132-0.792
		c0-0.288-0.05-0.56-0.15-0.816s-0.236-0.48-0.408-0.672c-0.172-0.192-0.378-0.344-0.618-0.456c-0.24-0.112-0.5-0.168-0.78-0.168
		c-0.168,0-0.344,0.032-0.528,0.096c-0.184,0.064-0.356,0.152-0.516,0.264c-0.16,0.112-0.3,0.242-0.42,0.39
		c-0.12,0.148-0.204,0.31-0.252,0.486v1.644c0.08,0.192,0.184,0.372,0.312,0.54s0.27,0.312,0.426,0.432
		c0.156,0.12,0.326,0.216,0.51,0.288C36.941,35.034,37.129,35.07,37.321,35.07z"/>
	<path fill="#D2D2D2" d="M41.738,27.318h1.32v6.948c0,0.232,0.06,0.414,0.18,0.546c0.12,0.132,0.288,0.198,0.504,0.198
		c0.088,0,0.19-0.016,0.306-0.048c0.116-0.032,0.226-0.068,0.33-0.108l0.192,1.032c-0.192,0.088-0.42,0.158-0.684,0.21
		c-0.264,0.052-0.5,0.078-0.708,0.078c-0.456,0-0.81-0.124-1.062-0.372s-0.378-0.6-0.378-1.056V27.318z"/>
	<path fill="#D2D2D2" d="M48.182,36.198c-0.488,0-0.932-0.086-1.332-0.258c-0.4-0.172-0.742-0.406-1.026-0.702
		c-0.284-0.296-0.504-0.64-0.66-1.032c-0.156-0.392-0.234-0.808-0.234-1.248s0.078-0.858,0.234-1.254
		c0.156-0.396,0.376-0.744,0.66-1.044c0.284-0.3,0.626-0.536,1.026-0.708c0.4-0.172,0.848-0.258,1.344-0.258
		c0.488,0,0.93,0.088,1.326,0.264c0.396,0.176,0.734,0.41,1.014,0.702c0.28,0.292,0.494,0.632,0.642,1.02s0.222,0.794,0.222,1.218
		c0,0.096-0.004,0.186-0.012,0.27s-0.016,0.154-0.024,0.21h-5.028c0.024,0.28,0.09,0.532,0.198,0.756
		c0.108,0.224,0.248,0.418,0.42,0.582c0.172,0.164,0.368,0.29,0.588,0.378c0.22,0.088,0.45,0.132,0.69,0.132
		c0.176,0,0.35-0.022,0.522-0.066c0.172-0.044,0.33-0.108,0.474-0.192s0.271-0.186,0.384-0.306c0.112-0.12,0.2-0.252,0.264-0.396
		l1.128,0.324c-0.216,0.472-0.574,0.858-1.074,1.158C49.427,36.048,48.845,36.198,48.182,36.198z M50.089,32.466
		c-0.024-0.264-0.09-0.508-0.198-0.732c-0.108-0.224-0.246-0.414-0.414-0.57c-0.168-0.156-0.364-0.278-0.588-0.366
		c-0.224-0.088-0.46-0.132-0.708-0.132c-0.249,0-0.482,0.044-0.702,0.132c-0.22,0.088-0.414,0.21-0.582,0.366
		c-0.168,0.156-0.304,0.346-0.408,0.57c-0.104,0.224-0.168,0.468-0.192,0.732H50.089z"/>
</g>
<g>
	<path fill="#D2D2D2" d="M135.261,13.5V4.98h3.576c0.384,0,0.738,0.08,1.062,0.24c0.324,0.16,0.602,0.37,0.834,0.63
		c0.232,0.26,0.414,0.556,0.546,0.888c0.132,0.332,0.198,0.67,0.198,1.014c0,0.36-0.062,0.706-0.186,1.038
		c-0.125,0.332-0.298,0.628-0.522,0.888c-0.224,0.26-0.494,0.468-0.81,0.624c-0.316,0.156-0.666,0.234-1.05,0.234h-2.304V13.5
		H135.261z M136.605,9.348h2.22c0.192,0,0.366-0.04,0.522-0.12c0.156-0.08,0.29-0.192,0.402-0.336
		c0.112-0.144,0.2-0.312,0.264-0.504c0.064-0.192,0.096-0.404,0.096-0.636c0-0.24-0.036-0.456-0.108-0.648
		c-0.072-0.192-0.172-0.358-0.3-0.498c-0.128-0.14-0.274-0.248-0.438-0.324c-0.164-0.076-0.334-0.114-0.51-0.114h-2.148V9.348z"/>
	<path fill="#D2D2D2" d="M145.281,13.62c-0.496,0-0.942-0.088-1.338-0.264s-0.734-0.412-1.014-0.708
		c-0.28-0.296-0.496-0.642-0.648-1.038s-0.228-0.81-0.228-1.242c0-0.432,0.076-0.846,0.228-1.242s0.37-0.742,0.654-1.038
		c0.284-0.296,0.624-0.532,1.02-0.708c0.396-0.176,0.838-0.264,1.326-0.264c0.488,0,0.93,0.088,1.326,0.264
		c0.396,0.176,0.736,0.412,1.02,0.708c0.284,0.296,0.502,0.642,0.654,1.038s0.228,0.81,0.228,1.242c0,0.432-0.076,0.846-0.228,1.242
		s-0.37,0.742-0.654,1.038c-0.284,0.296-0.624,0.532-1.02,0.708S145.769,13.62,145.281,13.62z M143.409,10.38
		c0,0.304,0.048,0.584,0.144,0.84c0.096,0.256,0.228,0.478,0.396,0.666c0.168,0.188,0.366,0.336,0.594,0.444
		s0.474,0.162,0.738,0.162c0.264,0,0.51-0.054,0.738-0.162s0.426-0.258,0.594-0.45s0.3-0.416,0.396-0.672
		c0.096-0.256,0.144-0.536,0.144-0.84c0-0.296-0.048-0.574-0.144-0.834c-0.096-0.26-0.228-0.486-0.396-0.678
		s-0.366-0.342-0.594-0.45c-0.228-0.108-0.474-0.162-0.738-0.162c-0.256,0-0.498,0.056-0.726,0.168
		c-0.228,0.112-0.426,0.264-0.594,0.456c-0.168,0.192-0.302,0.418-0.402,0.678C143.459,9.806,143.409,10.084,143.409,10.38z"/>
	<path fill="#D2D2D2" d="M153.249,13.62c-0.504,0-0.948-0.12-1.332-0.36c-0.384-0.24-0.688-0.552-0.912-0.936v3.732h-1.32V7.224
		h1.164v1.128c0.24-0.376,0.55-0.676,0.93-0.9c0.38-0.224,0.81-0.336,1.29-0.336c0.432,0,0.828,0.088,1.188,0.264
		c0.36,0.176,0.672,0.412,0.936,0.708c0.264,0.296,0.47,0.64,0.618,1.032s0.222,0.804,0.222,1.236c0,0.456-0.068,0.882-0.204,1.278
		c-0.136,0.396-0.328,0.74-0.576,1.032s-0.542,0.524-0.882,0.696C154.03,13.534,153.657,13.62,153.249,13.62z M152.816,12.492
		c0.28,0,0.534-0.06,0.762-0.18s0.424-0.28,0.588-0.48c0.164-0.2,0.29-0.428,0.378-0.684c0.088-0.256,0.132-0.52,0.132-0.792
		c0-0.288-0.05-0.56-0.15-0.816s-0.236-0.48-0.408-0.672c-0.172-0.192-0.378-0.344-0.618-0.456c-0.24-0.112-0.5-0.168-0.78-0.168
		c-0.168,0-0.344,0.032-0.528,0.096c-0.184,0.064-0.356,0.152-0.516,0.264c-0.16,0.112-0.3,0.242-0.42,0.39
		c-0.12,0.148-0.204,0.31-0.252,0.486v1.644c0.08,0.192,0.184,0.372,0.312,0.54s0.27,0.312,0.426,0.432
		c0.156,0.12,0.326,0.216,0.51,0.288C152.437,12.456,152.625,12.492,152.816,12.492z"/>
	<path fill="#D2D2D2" d="M159.153,13.62c-0.656,0-1.152-0.214-1.488-0.642c-0.336-0.428-0.504-1.066-0.504-1.914v-3.84h1.32V10.8
		c0,1.128,0.4,1.692,1.2,1.692c0.376,0,0.732-0.116,1.068-0.348s0.596-0.568,0.78-1.008V7.224h1.32v4.716
		c0,0.152,0.026,0.26,0.078,0.324c0.052,0.064,0.146,0.1,0.282,0.108V13.5c-0.136,0.024-0.248,0.04-0.336,0.048
		s-0.172,0.012-0.252,0.012c-0.24,0-0.444-0.066-0.612-0.198c-0.168-0.132-0.256-0.302-0.264-0.51l-0.024-0.624
		c-0.28,0.456-0.644,0.802-1.092,1.038C160.181,13.502,159.688,13.62,159.153,13.62z"/>
	<path fill="#D2D2D2" d="M164.541,4.74h1.32v6.948c0,0.232,0.06,0.414,0.18,0.546c0.12,0.132,0.288,0.198,0.504,0.198
		c0.088,0,0.19-0.016,0.306-0.048c0.116-0.032,0.226-0.068,0.33-0.108l0.192,1.032c-0.192,0.088-0.42,0.158-0.684,0.21
		c-0.264,0.052-0.5,0.078-0.708,0.078c-0.456,0-0.81-0.124-1.062-0.372s-0.378-0.6-0.378-1.056V4.74z"/>
	<path fill="#D2D2D2" d="M169.809,13.62c-0.304,0-0.586-0.05-0.846-0.15c-0.26-0.1-0.484-0.238-0.672-0.414
		c-0.188-0.176-0.336-0.384-0.444-0.624c-0.108-0.24-0.162-0.5-0.162-0.78c0-0.296,0.064-0.564,0.192-0.804
		c0.128-0.24,0.31-0.448,0.546-0.624c0.236-0.176,0.516-0.312,0.84-0.408c0.324-0.096,0.682-0.144,1.074-0.144
		c0.296,0,0.588,0.026,0.876,0.078c0.288,0.052,0.548,0.122,0.78,0.21V9.528c0-0.464-0.132-0.826-0.396-1.086
		c-0.264-0.26-0.644-0.39-1.14-0.39c-0.336,0-0.666,0.062-0.99,0.186c-0.324,0.125-0.658,0.302-1.002,0.534l-0.408-0.84
		c0.808-0.544,1.648-0.816,2.52-0.816c0.864,0,1.536,0.22,2.016,0.66s0.72,1.072,0.72,1.896v2.268c0,0.28,0.116,0.424,0.348,0.432
		V13.5c-0.128,0.024-0.238,0.04-0.33,0.048s-0.182,0.012-0.27,0.012c-0.256,0-0.454-0.064-0.594-0.192
		c-0.14-0.128-0.226-0.292-0.258-0.492l-0.036-0.396c-0.28,0.368-0.626,0.65-1.038,0.846
		C170.723,13.522,170.281,13.62,169.809,13.62z M170.168,12.648c0.32,0,0.622-0.058,0.906-0.174
		c0.284-0.116,0.506-0.278,0.666-0.486c0.168-0.144,0.252-0.296,0.252-0.456v-0.828c-0.224-0.088-0.462-0.156-0.714-0.204
		s-0.498-0.072-0.738-0.072c-0.472,0-0.858,0.102-1.158,0.306c-0.3,0.204-0.45,0.474-0.45,0.81c0,0.312,0.116,0.574,0.348,0.786
		C169.513,12.542,169.809,12.648,170.168,12.648z"/>
	<path fill="#D2D2D2" d="M178.353,13.176c-0.168,0.08-0.4,0.17-0.696,0.27c-0.296,0.1-0.612,0.15-0.948,0.15
		c-0.208,0-0.404-0.028-0.588-0.084c-0.184-0.056-0.346-0.14-0.486-0.252c-0.14-0.112-0.25-0.258-0.33-0.438
		c-0.08-0.18-0.12-0.397-0.12-0.654V8.244h-0.828v-1.02h0.828V5.16h1.32v2.064h1.368v1.02h-1.368v3.504
		c0.016,0.224,0.086,0.386,0.21,0.486c0.124,0.1,0.278,0.15,0.462,0.15s0.36-0.032,0.528-0.096c0.168-0.064,0.292-0.116,0.372-0.156
		L178.353,13.176z"/>
	<path fill="#D2D2D2" d="M179.264,6.192V4.74h1.32v1.452H179.264z M179.264,13.5V7.224h1.32V13.5H179.264z"/>
	<path fill="#D2D2D2" d="M184.988,13.62c-0.496,0-0.942-0.088-1.338-0.264c-0.396-0.176-0.734-0.412-1.015-0.708
		c-0.28-0.296-0.496-0.642-0.648-1.038s-0.228-0.81-0.228-1.242c0-0.432,0.076-0.846,0.228-1.242s0.37-0.742,0.654-1.038
		c0.284-0.296,0.624-0.532,1.02-0.708c0.396-0.176,0.838-0.264,1.326-0.264s0.93,0.088,1.326,0.264
		c0.396,0.176,0.735,0.412,1.02,0.708c0.283,0.296,0.502,0.642,0.654,1.038c0.151,0.396,0.228,0.81,0.228,1.242
		c0,0.432-0.076,0.846-0.228,1.242c-0.152,0.396-0.371,0.742-0.654,1.038c-0.284,0.296-0.624,0.532-1.02,0.708
		C185.918,13.532,185.477,13.62,184.988,13.62z M183.116,10.38c0,0.304,0.048,0.584,0.144,0.84c0.096,0.256,0.229,0.478,0.396,0.666
		s0.365,0.336,0.594,0.444s0.475,0.162,0.738,0.162s0.51-0.054,0.738-0.162c0.228-0.108,0.426-0.258,0.594-0.45
		s0.3-0.416,0.396-0.672c0.097-0.256,0.144-0.536,0.144-0.84c0-0.296-0.047-0.574-0.144-0.834c-0.096-0.26-0.228-0.486-0.396-0.678
		s-0.366-0.342-0.594-0.45c-0.229-0.108-0.475-0.162-0.738-0.162c-0.256,0-0.498,0.056-0.727,0.168
		c-0.228,0.112-0.426,0.264-0.594,0.456c-0.168,0.192-0.303,0.418-0.402,0.678C183.166,9.806,183.116,10.084,183.116,10.38z"/>
	<path fill="#D2D2D2" d="M195.02,13.5H193.7V9.984c0-0.592-0.095-1.022-0.282-1.29c-0.188-0.268-0.466-0.402-0.834-0.402
		c-0.191,0-0.384,0.036-0.576,0.108c-0.191,0.072-0.371,0.174-0.539,0.306s-0.318,0.288-0.451,0.468
		c-0.131,0.18-0.233,0.378-0.306,0.594V13.5h-1.319V7.224h1.199v1.26c0.24-0.424,0.588-0.758,1.045-1.002
		c0.455-0.244,0.959-0.366,1.512-0.366c0.375,0,0.684,0.068,0.924,0.204c0.24,0.136,0.43,0.322,0.57,0.558
		c0.139,0.236,0.237,0.508,0.293,0.816c0.057,0.308,0.084,0.634,0.084,0.978V13.5z"/>
</g>
<g>
	<g>
		<path fill="#D2D2D2" d="M68.941,72.771c0,0,1.47-1.166,3.675-2.914c2.198-1.759,5.152-4.071,8.123-6.361
			c1.48-1.152,2.96-2.304,4.348-3.383c1.375-1.097,2.664-2.114,3.791-2.955c1.136-0.828,2.112-1.478,2.802-1.923
			c0.688-0.448,1.081-0.704,1.081-0.704l1.045,1.442c0,0-0.365,0.294-1.005,0.809c-0.638,0.517-1.56,1.241-2.7,2.064
			c-1.15,0.809-2.517,1.717-3.987,2.683c-1.458,0.982-3.014,2.031-4.569,3.079c-3.1,2.111-6.217,4.199-8.572,5.74
			c-2.348,1.552-3.913,2.586-3.913,2.586L68.941,72.771z"/>
		<g>
			<polygon fill="#D2D2D2" points="99,51.108 93.33,60.238 92.856,55.561 88.559,53.656 			"/>
		</g>
	</g>
</g>
<g>
	<g>
		<path fill="#D2D2D2" d="M69.059,78.021c0,0,1.565,1.035,3.913,2.586c2.355,1.541,5.472,3.628,8.572,5.74
			c1.555,1.048,3.111,2.096,4.569,3.079c1.47,0.966,2.837,1.874,3.987,2.683c1.141,0.823,2.062,1.547,2.7,2.064
			c0.64,0.515,1.005,0.809,1.005,0.809l-1.045,1.442c0,0-0.393-0.256-1.081-0.704c-0.69-0.445-1.666-1.096-2.802-1.923
			c-1.126-0.841-2.415-1.858-3.791-2.955c-1.388-1.08-2.868-2.231-4.348-3.383c-2.971-2.29-5.925-4.602-8.123-6.361
			c-2.205-1.748-3.675-2.914-3.675-2.914L69.059,78.021z"/>
		<g>
			<polygon fill="#D2D2D2" points="99,99.846 88.559,97.299 92.856,95.393 93.33,90.716 			"/>
		</g>
	</g>
</g>
<g>
	<g>
		<path fill="#D2D2D2" d="M69,75.376c0,0,1.434-0.08,3.584-0.2c2.15-0.118,5.018-0.255,7.885-0.359
			c1.434-0.059,2.867-0.118,4.211-0.173c1.344-0.067,2.599-0.129,3.674-0.183c2.151-0.074,3.584,0.041,3.584,0.041v1.947
			c0,0-1.434,0.115-3.584,0.041c-1.075-0.054-2.33-0.116-3.674-0.183c-1.344-0.055-2.778-0.114-4.211-0.173
			c-2.867-0.104-5.735-0.241-7.885-0.359c-2.151-0.12-3.584-0.2-3.584-0.2V75.376z"/>
		<g>
			<polygon fill="#D2D2D2" points="99,75.477 89.051,79.542 91.412,75.477 89.051,71.412 			"/>
		</g>
	</g>
</g>
<g>
</g>
<g>
</g>
<g>
</g>
<g>
</g>
<g>
</g>
<g>
</g>
<g>
</g>
</svg>
