<?xml version="1.0" encoding="utf-8"?>
<!-- Generator: Adobe Illustrator 16.0.4, SVG Export Plug-In . SVG Version: 6.00 Build 0)  -->
<!DOCTYPE svg PUBLIC "-//W3C//DTD SVG 1.1//EN" "http://www.w3.org/Graphics/SVG/1.1/DTD/svg11.dtd">
<svg version="1.1" id="Layer_1" xmlns="http://www.w3.org/2000/svg" xmlns:xlink="http://www.w3.org/1999/xlink" x="0px" y="0px"
	 width="399px" height="233.5px" viewBox="0 0 399 233.5" enable-background="new 0 0 399 233.5" xml:space="preserve">
<circle fill="#FFFFB3" cx="93.233" cy="185.448" r="11.618"/>
<circle fill="#FFFFB3" cx="299.812" cy="99.065" r="11.618"/>
<circle fill="#2E8EFF" cx="53.481" cy="121.376" r="11.617"/>
<circle fill="#2E8EFF" cx="299.811" cy="48.555" r="11.618"/>
<circle fill="#80B1D3" cx="95.985" cy="78.752" r="11.617"/>
<circle fill="#80B1D3" cx="226.159" cy="140.727" r="11.617"/>
<circle fill="#BEBADA" cx="111.569" cy="159.064" r="11.617"/>
<circle fill="#0FDB46" cx="200.384" cy="99.066" r="11.617"/>
<circle fill="#0FDB46" cx="23.117" cy="109.758" r="11.617"/>
<circle fill="#0FDB46" cx="226.159" cy="213.905" r="11.617"/>
<circle fill="#FFED6F" cx="65.099" cy="94.464" r="11.617"/>
<circle fill="#FFED6F" cx="299.811" cy="213.905" r="11.617"/>
<circle fill="#FFED6F" cx="252.979" cy="213.905" r="11.617"/>
<circle fill="#FFED6F" cx="226.16" cy="48.555" r="11.618"/>
<circle fill="#FCCDE5" cx="65.099" cy="173.831" r="11.617"/>
<circle fill="#FCCDE5" cx="200.384" cy="213.905" r="11.618"/>
<circle fill="#BC80BD" cx="252.979" cy="99.066" r="11.617"/>
<circle fill="#BC80BD" cx="69.478" cy="144.152" r="11.617"/>
<circle fill="#BC80BD" cx="226.159" cy="99.066" r="11.617"/>
<circle fill="#B3DE69" cx="99.951" cy="121.375" r="11.617"/>
<circle fill="#B3DE69" cx="326.37" cy="99.066" r="11.617"/>
<circle fill="#FB8072" cx="35.734" cy="180.805" r="11.617"/>
<circle fill="#FB8072" cx="326.371" cy="140.727" r="11.617"/>
<circle fill="#FB8072" cx="299.812" cy="140.727" r="11.617"/>
<circle fill="#FB8072" cx="200.384" cy="140.727" r="11.617"/>
<circle fill="#8C8C8C" cx="25.102" cy="150.08" r="11.617"/>
<circle fill="#8C8C8C" cx="252.979" cy="140.728" r="11.617"/>
<circle fill="#8C8C8C" cx="326.37" cy="48.555" r="11.617"/>
<circle fill="#8DD3C7" cx="35.734" cy="77.173" r="11.617"/>
<circle fill="#8DD3C7" cx="200.384" cy="48.555" r="11.617"/>
<circle fill="#FF8BA1" cx="121.021" cy="101.987" r="11.617"/>
<circle fill="#FF8BA1" cx="326.371" cy="213.905" r="11.617"/>
<circle fill="#FF8BA1" cx="252.979" cy="48.555" r="11.617"/>
<path fill="none" stroke="#636C72" stroke-width="2" d="M138,192.929c0,6.114-4.783,11.071-10.684,11.071H18.184
	c-5.9,0-10.684-4.957-10.684-11.071V70.071C7.5,63.957,12.283,59,18.184,59h109.133c5.9,0,10.684,4.957,10.684,11.071V192.929z"/>
<g>
	<path fill="#D2D2D2" d="M16.472,51.14c-0.569,0-1.125-0.094-1.666-0.28c-0.542-0.187-1.008-0.457-1.4-0.812l0.434-0.644
		c0.411,0.336,0.828,0.588,1.253,0.756s0.88,0.252,1.365,0.252c0.588,0,1.057-0.119,1.407-0.357c0.35-0.238,0.525-0.576,0.525-1.015
		c0-0.205-0.047-0.375-0.14-0.511c-0.093-0.135-0.231-0.254-0.413-0.357c-0.182-0.103-0.411-0.193-0.686-0.273
		c-0.275-0.079-0.595-0.161-0.959-0.245c-0.42-0.103-0.784-0.205-1.092-0.308c-0.308-0.103-0.562-0.219-0.763-0.35
		s-0.35-0.292-0.448-0.483c-0.098-0.191-0.147-0.432-0.147-0.721c0-0.364,0.072-0.686,0.217-0.966
		c0.145-0.28,0.341-0.511,0.588-0.693c0.247-0.182,0.537-0.319,0.868-0.413c0.331-0.093,0.684-0.14,1.057-0.14
		c0.56,0,1.068,0.091,1.526,0.273c0.457,0.182,0.826,0.422,1.106,0.721l-0.462,0.56c-0.271-0.28-0.6-0.49-0.987-0.63
		s-0.791-0.21-1.211-0.21c-0.252,0-0.485,0.026-0.7,0.077c-0.215,0.051-0.404,0.133-0.567,0.245
		c-0.163,0.112-0.292,0.254-0.385,0.427c-0.093,0.173-0.14,0.376-0.14,0.609c0,0.196,0.033,0.355,0.098,0.476
		c0.065,0.122,0.172,0.227,0.322,0.315c0.149,0.089,0.338,0.168,0.567,0.238c0.229,0.07,0.506,0.142,0.833,0.217
		c0.466,0.112,0.877,0.224,1.232,0.336c0.354,0.112,0.651,0.243,0.889,0.392c0.238,0.149,0.418,0.332,0.539,0.546
		c0.122,0.215,0.182,0.476,0.182,0.784c0,0.672-0.257,1.204-0.77,1.596C18.031,50.944,17.34,51.14,16.472,51.14z"/>
	<path fill="#D2D2D2" d="M20.868,42.18v-1.4h0.952v1.4H20.868z M20.868,51v-7.294h0.952V51H20.868z"/>
	<path fill="#D2D2D2" d="M23.304,50.356l4.928-5.936h-4.816v-0.714h5.852v0.644l-4.914,5.936h4.9V51h-5.95V50.356z"/>
	<path fill="#D2D2D2" d="M33.762,51.14c-0.532,0-1.02-0.101-1.463-0.301s-0.828-0.476-1.155-0.826
		c-0.327-0.35-0.581-0.754-0.763-1.211c-0.182-0.457-0.273-0.947-0.273-1.47c0-0.513,0.091-0.996,0.273-1.449
		c0.182-0.453,0.434-0.849,0.756-1.19c0.322-0.34,0.707-0.611,1.155-0.812c0.448-0.201,0.933-0.301,1.456-0.301
		c0.532,0,1.02,0.1,1.463,0.301c0.443,0.201,0.824,0.474,1.141,0.819s0.564,0.742,0.742,1.19c0.177,0.448,0.266,0.924,0.266,1.428
		c0,0.075,0,0.149,0,0.224s-0.005,0.126-0.014,0.154h-6.244c0.028,0.392,0.119,0.754,0.273,1.085
		c0.154,0.332,0.352,0.619,0.595,0.861c0.242,0.243,0.52,0.432,0.833,0.567c0.312,0.135,0.646,0.203,1.001,0.203
		c0.233,0,0.466-0.033,0.7-0.098c0.233-0.065,0.448-0.154,0.644-0.266c0.196-0.112,0.373-0.25,0.532-0.413
		c0.158-0.163,0.28-0.343,0.364-0.539l0.826,0.224c-0.112,0.271-0.271,0.516-0.476,0.735c-0.206,0.219-0.443,0.411-0.714,0.574
		c-0.271,0.164-0.569,0.29-0.896,0.378C34.457,51.096,34.116,51.14,33.762,51.14z M36.45,46.968
		c-0.028-0.392-0.119-0.749-0.273-1.071c-0.154-0.322-0.35-0.6-0.588-0.833c-0.238-0.233-0.513-0.415-0.826-0.546
		c-0.313-0.131-0.646-0.196-1.001-0.196c-0.355,0-0.691,0.065-1.008,0.196s-0.595,0.313-0.833,0.546
		c-0.238,0.233-0.429,0.514-0.574,0.84c-0.145,0.327-0.231,0.682-0.259,1.064H36.45z"/>
	<path fill="#D2D2D2" d="M43.016,43.706h0.882l-0.364,1.652c0.196-0.261,0.422-0.501,0.679-0.721s0.527-0.408,0.812-0.567
		c0.285-0.158,0.581-0.28,0.889-0.364s0.616-0.126,0.924-0.126c0.569,0,0.976,0.154,1.218,0.462s0.364,0.733,0.364,1.274
		c0,0.215-0.016,0.437-0.049,0.665c-0.033,0.229-0.077,0.479-0.133,0.749L47.342,51H46.39l0.868-4.074
		c0.093-0.457,0.14-0.854,0.14-1.19c0-0.858-0.364-1.288-1.092-1.288c-0.261,0-0.535,0.051-0.819,0.154
		c-0.285,0.103-0.56,0.248-0.826,0.434s-0.511,0.408-0.735,0.665c-0.224,0.257-0.411,0.534-0.56,0.833L42.428,51h-0.952
		L43.016,43.706z"/>
</g>
<g>
	<path fill="#D2D2D2" d="M192.472,33.64c-0.569,0-1.125-0.094-1.666-0.28c-0.542-0.187-1.008-0.457-1.4-0.812l0.434-0.644
		c0.411,0.336,0.828,0.588,1.253,0.756s0.88,0.252,1.365,0.252c0.588,0,1.057-0.119,1.407-0.357c0.35-0.238,0.525-0.576,0.525-1.015
		c0-0.205-0.047-0.375-0.14-0.511c-0.093-0.135-0.231-0.254-0.413-0.357c-0.182-0.103-0.411-0.193-0.686-0.273
		c-0.275-0.079-0.595-0.161-0.959-0.245c-0.42-0.103-0.784-0.205-1.092-0.308c-0.308-0.103-0.562-0.219-0.763-0.35
		s-0.35-0.292-0.448-0.483c-0.098-0.191-0.147-0.432-0.147-0.721c0-0.364,0.072-0.686,0.217-0.966
		c0.145-0.28,0.341-0.511,0.588-0.693c0.247-0.182,0.537-0.319,0.868-0.413c0.331-0.093,0.684-0.14,1.057-0.14
		c0.56,0,1.068,0.091,1.526,0.273c0.457,0.182,0.826,0.422,1.106,0.721l-0.462,0.56c-0.271-0.28-0.6-0.49-0.987-0.63
		s-0.791-0.21-1.211-0.21c-0.252,0-0.485,0.026-0.7,0.077c-0.215,0.051-0.404,0.133-0.567,0.245
		c-0.163,0.112-0.292,0.254-0.385,0.427c-0.093,0.173-0.14,0.376-0.14,0.609c0,0.196,0.033,0.355,0.098,0.476
		c0.065,0.122,0.172,0.227,0.322,0.315c0.149,0.089,0.338,0.168,0.567,0.238c0.229,0.07,0.506,0.142,0.833,0.217
		c0.466,0.112,0.877,0.224,1.232,0.336c0.354,0.112,0.651,0.243,0.889,0.392c0.238,0.149,0.418,0.332,0.539,0.546
		c0.122,0.215,0.182,0.476,0.182,0.784c0,0.672-0.257,1.204-0.77,1.596C194.031,33.444,193.34,33.64,192.472,33.64z"/>
	<path fill="#D2D2D2" d="M196.868,24.68v-1.4h0.952v1.4H196.868z M196.868,33.5v-7.294h0.952V33.5H196.868z"/>
	<path fill="#D2D2D2" d="M199.304,32.856l4.928-5.936h-4.816v-0.714h5.852v0.644l-4.914,5.936h4.9V33.5h-5.95V32.856z"/>
	<path fill="#D2D2D2" d="M209.762,33.64c-0.532,0-1.02-0.101-1.463-0.301s-0.828-0.476-1.155-0.826
		c-0.327-0.35-0.581-0.754-0.763-1.211c-0.182-0.457-0.273-0.947-0.273-1.47c0-0.513,0.092-0.996,0.273-1.449
		c0.182-0.453,0.434-0.849,0.756-1.19c0.322-0.34,0.707-0.611,1.154-0.812c0.449-0.201,0.934-0.301,1.457-0.301
		c0.531,0,1.02,0.1,1.463,0.301c0.443,0.201,0.823,0.474,1.141,0.819s0.564,0.742,0.742,1.19c0.177,0.448,0.266,0.924,0.266,1.428
		c0,0.075,0,0.149,0,0.224s-0.005,0.126-0.014,0.154h-6.244c0.027,0.392,0.119,0.754,0.273,1.085
		c0.153,0.332,0.352,0.619,0.595,0.861c0.242,0.243,0.521,0.432,0.833,0.567s0.646,0.203,1.001,0.203c0.233,0,0.466-0.033,0.7-0.098
		c0.232-0.065,0.447-0.154,0.644-0.266c0.196-0.112,0.373-0.25,0.532-0.413c0.158-0.163,0.279-0.343,0.363-0.539l0.826,0.224
		c-0.111,0.271-0.271,0.516-0.476,0.735c-0.206,0.219-0.443,0.411-0.714,0.574c-0.271,0.164-0.569,0.29-0.896,0.378
		C210.457,33.596,210.116,33.64,209.762,33.64z M212.449,29.468c-0.027-0.392-0.119-0.749-0.272-1.071
		c-0.154-0.322-0.351-0.6-0.589-0.833c-0.237-0.233-0.513-0.415-0.825-0.546c-0.313-0.131-0.646-0.196-1.001-0.196
		c-0.355,0-0.691,0.065-1.008,0.196c-0.318,0.131-0.596,0.313-0.834,0.546c-0.237,0.233-0.429,0.514-0.573,0.84
		c-0.146,0.327-0.231,0.682-0.259,1.064H212.449z"/>
	<path fill="#D2D2D2" d="M219.016,26.206h0.882l-0.364,1.652c0.196-0.261,0.422-0.501,0.68-0.721
		c0.256-0.219,0.527-0.408,0.812-0.567c0.284-0.158,0.581-0.28,0.89-0.364c0.308-0.084,0.615-0.126,0.924-0.126
		c0.568,0,0.975,0.154,1.218,0.462s0.364,0.733,0.364,1.274c0,0.215-0.017,0.437-0.049,0.665c-0.033,0.229-0.078,0.479-0.133,0.749
		l-0.896,4.27h-0.952l0.868-4.074c0.093-0.457,0.14-0.854,0.14-1.19c0-0.858-0.364-1.288-1.092-1.288
		c-0.261,0-0.534,0.051-0.819,0.154s-0.56,0.248-0.826,0.434c-0.266,0.187-0.511,0.408-0.734,0.665
		c-0.225,0.257-0.411,0.534-0.561,0.833l-0.938,4.466h-0.952L219.016,26.206z"/>
</g>
<g>
	<path fill="#D2D2D2" d="M192.238,82.987c-0.569,0-1.125-0.094-1.666-0.28c-0.542-0.187-1.008-0.457-1.4-0.812l0.434-0.644
		c0.411,0.336,0.828,0.588,1.253,0.756s0.88,0.252,1.365,0.252c0.588,0,1.057-0.119,1.407-0.357c0.35-0.238,0.525-0.576,0.525-1.015
		c0-0.205-0.047-0.375-0.14-0.511c-0.093-0.135-0.231-0.254-0.413-0.357c-0.182-0.103-0.411-0.193-0.686-0.273
		c-0.275-0.079-0.595-0.161-0.959-0.245c-0.42-0.103-0.784-0.205-1.092-0.308c-0.308-0.103-0.562-0.219-0.763-0.35
		s-0.35-0.292-0.448-0.483c-0.098-0.191-0.147-0.432-0.147-0.721c0-0.364,0.072-0.686,0.217-0.966
		c0.145-0.28,0.341-0.511,0.588-0.693c0.247-0.182,0.537-0.319,0.868-0.413c0.331-0.093,0.684-0.14,1.057-0.14
		c0.56,0,1.068,0.091,1.526,0.273c0.457,0.182,0.826,0.422,1.106,0.721l-0.462,0.56c-0.271-0.28-0.6-0.49-0.987-0.63
		s-0.791-0.21-1.211-0.21c-0.252,0-0.485,0.026-0.7,0.077c-0.215,0.051-0.404,0.133-0.567,0.245
		c-0.163,0.112-0.292,0.254-0.385,0.427c-0.093,0.173-0.14,0.376-0.14,0.609c0,0.196,0.033,0.355,0.098,0.476
		c0.065,0.122,0.172,0.227,0.322,0.315c0.149,0.089,0.338,0.168,0.567,0.238c0.229,0.07,0.506,0.142,0.833,0.217
		c0.466,0.112,0.877,0.224,1.232,0.336c0.354,0.112,0.651,0.243,0.889,0.392c0.238,0.149,0.418,0.332,0.539,0.546
		c0.122,0.215,0.182,0.476,0.182,0.784c0,0.672-0.257,1.204-0.77,1.596C193.797,82.791,193.106,82.987,192.238,82.987z"/>
	<path fill="#D2D2D2" d="M196.634,74.027v-1.4h0.952v1.4H196.634z M196.634,82.847v-7.294h0.952v7.294H196.634z"/>
	<path fill="#D2D2D2" d="M199.07,82.203l4.928-5.936h-4.816v-0.714h5.852v0.644l-4.914,5.936h4.9v0.714h-5.95V82.203z"/>
	<path fill="#D2D2D2" d="M209.527,82.987c-0.531,0-1.02-0.101-1.463-0.301s-0.828-0.476-1.154-0.826
		c-0.327-0.35-0.582-0.754-0.764-1.211c-0.182-0.457-0.273-0.947-0.273-1.47c0-0.513,0.092-0.996,0.273-1.449
		c0.182-0.453,0.434-0.849,0.756-1.19c0.322-0.34,0.707-0.611,1.155-0.812c0.448-0.201,0.933-0.301,1.456-0.301
		c0.531,0,1.02,0.1,1.463,0.301c0.443,0.201,0.824,0.474,1.141,0.819c0.318,0.345,0.564,0.742,0.742,1.19
		c0.178,0.448,0.266,0.924,0.266,1.428c0,0.075,0,0.149,0,0.224s-0.004,0.126-0.014,0.154h-6.244
		c0.028,0.392,0.119,0.754,0.273,1.085c0.154,0.332,0.352,0.619,0.596,0.861c0.242,0.243,0.52,0.432,0.832,0.567
		s0.646,0.203,1.002,0.203c0.232,0,0.466-0.033,0.699-0.098c0.233-0.065,0.448-0.154,0.645-0.266
		c0.195-0.112,0.373-0.25,0.531-0.413c0.158-0.163,0.28-0.343,0.364-0.539l0.826,0.224c-0.112,0.271-0.271,0.516-0.476,0.735
		c-0.206,0.219-0.443,0.411-0.715,0.574c-0.271,0.164-0.568,0.29-0.896,0.378C210.223,82.942,209.883,82.987,209.527,82.987z
		 M212.216,78.814c-0.028-0.392-0.119-0.749-0.272-1.071c-0.154-0.322-0.351-0.6-0.589-0.833c-0.237-0.233-0.513-0.415-0.825-0.546
		c-0.313-0.131-0.646-0.196-1.002-0.196c-0.354,0-0.69,0.065-1.008,0.196s-0.595,0.313-0.833,0.546
		c-0.237,0.233-0.429,0.514-0.573,0.84c-0.146,0.327-0.231,0.682-0.26,1.064H212.216z"/>
	<path fill="#D2D2D2" d="M218.781,75.553h0.883l-0.364,1.652c0.196-0.261,0.422-0.501,0.679-0.721s0.527-0.408,0.812-0.567
		c0.284-0.158,0.58-0.28,0.889-0.364s0.616-0.126,0.924-0.126c0.569,0,0.976,0.154,1.219,0.462c0.242,0.308,0.363,0.733,0.363,1.274
		c0,0.215-0.016,0.437-0.049,0.665c-0.033,0.229-0.077,0.479-0.133,0.749l-0.896,4.27h-0.951l0.867-4.074
		c0.094-0.457,0.141-0.854,0.141-1.19c0-0.858-0.364-1.288-1.092-1.288c-0.262,0-0.535,0.051-0.819,0.154
		c-0.285,0.103-0.56,0.248-0.826,0.434s-0.511,0.408-0.735,0.665c-0.224,0.257-0.41,0.534-0.56,0.833l-0.938,4.466h-0.951
		L218.781,75.553z"/>
</g>
<g>
	<path fill="#D2D2D2" d="M192.472,125.516c-0.569,0-1.125-0.094-1.666-0.28c-0.542-0.187-1.008-0.457-1.4-0.812l0.434-0.644
		c0.411,0.336,0.828,0.588,1.253,0.756s0.88,0.252,1.365,0.252c0.588,0,1.057-0.119,1.407-0.357c0.35-0.238,0.525-0.576,0.525-1.015
		c0-0.205-0.047-0.375-0.14-0.511c-0.093-0.135-0.231-0.254-0.413-0.357c-0.182-0.103-0.411-0.193-0.686-0.273
		c-0.275-0.079-0.595-0.161-0.959-0.245c-0.42-0.103-0.784-0.205-1.092-0.308c-0.308-0.103-0.562-0.219-0.763-0.35
		s-0.35-0.292-0.448-0.483c-0.098-0.191-0.147-0.432-0.147-0.721c0-0.364,0.072-0.686,0.217-0.966
		c0.145-0.28,0.341-0.511,0.588-0.693c0.247-0.182,0.537-0.319,0.868-0.413c0.331-0.093,0.684-0.14,1.057-0.14
		c0.56,0,1.068,0.091,1.526,0.273c0.457,0.182,0.826,0.422,1.106,0.721l-0.462,0.56c-0.271-0.28-0.6-0.49-0.987-0.63
		s-0.791-0.21-1.211-0.21c-0.252,0-0.485,0.026-0.7,0.077c-0.215,0.051-0.404,0.133-0.567,0.245
		c-0.163,0.112-0.292,0.254-0.385,0.427c-0.093,0.173-0.14,0.376-0.14,0.609c0,0.196,0.033,0.355,0.098,0.476
		c0.065,0.122,0.172,0.227,0.322,0.315c0.149,0.089,0.338,0.168,0.567,0.238c0.229,0.07,0.506,0.142,0.833,0.217
		c0.466,0.112,0.877,0.224,1.232,0.336c0.354,0.112,0.651,0.243,0.889,0.392c0.238,0.149,0.418,0.332,0.539,0.546
		c0.122,0.215,0.182,0.476,0.182,0.784c0,0.672-0.257,1.204-0.77,1.596C194.031,125.32,193.34,125.516,192.472,125.516z"/>
	<path fill="#D2D2D2" d="M196.868,116.556v-1.4h0.952v1.4H196.868z M196.868,125.376v-7.294h0.952v7.294H196.868z"/>
	<path fill="#D2D2D2" d="M199.304,124.732l4.928-5.936h-4.816v-0.714h5.852v0.644l-4.914,5.936h4.9v0.714h-5.95V124.732z"/>
	<path fill="#D2D2D2" d="M209.762,125.516c-0.532,0-1.02-0.101-1.463-0.301s-0.828-0.476-1.155-0.826
		c-0.327-0.35-0.581-0.754-0.763-1.211c-0.182-0.457-0.273-0.947-0.273-1.47c0-0.513,0.092-0.996,0.273-1.449
		c0.182-0.453,0.434-0.849,0.756-1.19c0.322-0.34,0.707-0.611,1.154-0.812c0.449-0.201,0.934-0.301,1.457-0.301
		c0.531,0,1.02,0.1,1.463,0.301c0.443,0.201,0.823,0.474,1.141,0.819s0.564,0.742,0.742,1.19c0.177,0.448,0.266,0.924,0.266,1.428
		c0,0.075,0,0.149,0,0.224s-0.005,0.126-0.014,0.154h-6.244c0.027,0.392,0.119,0.754,0.273,1.085
		c0.153,0.332,0.352,0.619,0.595,0.861c0.242,0.243,0.521,0.432,0.833,0.567s0.646,0.203,1.001,0.203c0.233,0,0.466-0.033,0.7-0.098
		c0.232-0.065,0.447-0.154,0.644-0.266c0.196-0.112,0.373-0.25,0.532-0.413c0.158-0.163,0.279-0.343,0.363-0.539l0.826,0.224
		c-0.111,0.271-0.271,0.516-0.476,0.735c-0.206,0.219-0.443,0.411-0.714,0.574c-0.271,0.164-0.569,0.29-0.896,0.378
		C210.457,125.472,210.116,125.516,209.762,125.516z M212.449,121.344c-0.027-0.392-0.119-0.749-0.272-1.071
		c-0.154-0.322-0.351-0.6-0.589-0.833c-0.237-0.233-0.513-0.415-0.825-0.546c-0.313-0.131-0.646-0.196-1.001-0.196
		c-0.355,0-0.691,0.065-1.008,0.196c-0.318,0.131-0.596,0.313-0.834,0.546c-0.237,0.233-0.429,0.514-0.573,0.84
		c-0.146,0.327-0.231,0.682-0.259,1.064H212.449z"/>
	<path fill="#D2D2D2" d="M219.016,118.082h0.882l-0.364,1.652c0.196-0.261,0.422-0.501,0.68-0.721
		c0.256-0.219,0.527-0.408,0.812-0.567c0.284-0.158,0.581-0.28,0.89-0.364c0.308-0.084,0.615-0.126,0.924-0.126
		c0.568,0,0.975,0.154,1.218,0.462s0.364,0.733,0.364,1.274c0,0.215-0.017,0.437-0.049,0.665c-0.033,0.229-0.078,0.479-0.133,0.749
		l-0.896,4.27h-0.952l0.868-4.074c0.093-0.457,0.14-0.854,0.14-1.19c0-0.858-0.364-1.288-1.092-1.288
		c-0.261,0-0.534,0.051-0.819,0.154s-0.56,0.248-0.826,0.434c-0.266,0.187-0.511,0.408-0.734,0.665
		c-0.225,0.257-0.411,0.534-0.561,0.833l-0.938,4.466h-0.952L219.016,118.082z"/>
</g>
<g>
	<path fill="#D2D2D2" d="M192.472,197.207c-0.569,0-1.125-0.094-1.666-0.281c-0.542-0.186-1.008-0.457-1.4-0.812l0.434-0.644
		c0.411,0.336,0.828,0.588,1.253,0.756s0.88,0.252,1.365,0.252c0.588,0,1.057-0.119,1.407-0.357c0.35-0.238,0.525-0.576,0.525-1.015
		c0-0.205-0.047-0.376-0.14-0.511s-0.231-0.254-0.413-0.357c-0.182-0.103-0.411-0.193-0.686-0.273
		c-0.275-0.078-0.595-0.16-0.959-0.244c-0.42-0.104-0.784-0.205-1.092-0.309c-0.308-0.103-0.562-0.219-0.763-0.35
		s-0.35-0.291-0.448-0.482c-0.098-0.191-0.147-0.432-0.147-0.722c0-0.364,0.072-0.687,0.217-0.966
		c0.145-0.28,0.341-0.512,0.588-0.693s0.537-0.319,0.868-0.412c0.331-0.094,0.684-0.141,1.057-0.141c0.56,0,1.068,0.091,1.526,0.273
		c0.457,0.182,0.826,0.422,1.106,0.721l-0.462,0.56c-0.271-0.28-0.6-0.489-0.987-0.63s-0.791-0.21-1.211-0.21
		c-0.252,0-0.485,0.026-0.7,0.077c-0.215,0.051-0.404,0.133-0.567,0.245c-0.163,0.112-0.292,0.255-0.385,0.427
		c-0.093,0.173-0.14,0.376-0.14,0.609c0,0.195,0.033,0.354,0.098,0.476c0.065,0.122,0.172,0.227,0.322,0.315
		c0.149,0.088,0.338,0.168,0.567,0.238c0.229,0.069,0.506,0.142,0.833,0.217c0.466,0.111,0.877,0.224,1.232,0.336
		c0.354,0.111,0.651,0.242,0.889,0.392c0.238,0.149,0.418,0.331,0.539,0.546c0.122,0.215,0.182,0.477,0.182,0.784
		c0,0.672-0.257,1.204-0.77,1.596S193.34,197.207,192.472,197.207z"/>
	<path fill="#D2D2D2" d="M196.868,188.246v-1.4h0.952v1.4H196.868z M196.868,197.066v-7.294h0.952v7.294H196.868z"/>
	<path fill="#D2D2D2" d="M199.304,196.422l4.928-5.936h-4.816v-0.714h5.852v0.644l-4.914,5.937h4.9v0.714h-5.95V196.422z"/>
	<path fill="#D2D2D2" d="M209.762,197.207c-0.532,0-1.02-0.102-1.463-0.302s-0.828-0.476-1.155-0.825
		c-0.327-0.351-0.581-0.754-0.763-1.212c-0.182-0.457-0.273-0.946-0.273-1.47c0-0.514,0.092-0.996,0.273-1.449
		s0.434-0.85,0.756-1.189c0.322-0.341,0.707-0.611,1.154-0.812c0.449-0.201,0.934-0.301,1.457-0.301c0.531,0,1.02,0.1,1.463,0.301
		s0.823,0.475,1.141,0.819s0.564,0.741,0.742,1.19c0.177,0.447,0.266,0.924,0.266,1.428c0,0.074,0,0.148,0,0.224
		s-0.005,0.126-0.014,0.153h-6.244c0.027,0.393,0.119,0.754,0.273,1.086c0.153,0.331,0.352,0.618,0.595,0.861
		c0.242,0.242,0.521,0.432,0.833,0.566s0.646,0.203,1.001,0.203c0.233,0,0.466-0.033,0.7-0.098c0.232-0.065,0.447-0.154,0.644-0.267
		s0.373-0.249,0.532-0.413c0.158-0.163,0.279-0.343,0.363-0.539l0.826,0.225c-0.111,0.271-0.271,0.516-0.476,0.734
		c-0.206,0.22-0.443,0.411-0.714,0.574c-0.271,0.164-0.569,0.289-0.896,0.378C210.457,197.162,210.116,197.207,209.762,197.207z
		 M212.449,193.034c-0.027-0.392-0.119-0.749-0.272-1.071c-0.154-0.321-0.351-0.6-0.589-0.832c-0.237-0.233-0.513-0.416-0.825-0.547
		c-0.313-0.131-0.646-0.195-1.001-0.195c-0.355,0-0.691,0.064-1.008,0.195c-0.318,0.131-0.596,0.313-0.834,0.547
		c-0.237,0.232-0.429,0.514-0.573,0.84c-0.146,0.326-0.231,0.682-0.259,1.063H212.449z"/>
	<path fill="#D2D2D2" d="M219.016,189.772h0.882l-0.364,1.651c0.196-0.261,0.422-0.501,0.68-0.721
		c0.256-0.219,0.527-0.408,0.812-0.566s0.581-0.28,0.89-0.364c0.308-0.084,0.615-0.126,0.924-0.126c0.568,0,0.975,0.154,1.218,0.462
		s0.364,0.733,0.364,1.274c0,0.215-0.017,0.436-0.049,0.664c-0.033,0.229-0.078,0.479-0.133,0.75l-0.896,4.27h-0.952l0.868-4.074
		c0.093-0.457,0.14-0.854,0.14-1.189c0-0.859-0.364-1.288-1.092-1.288c-0.261,0-0.534,0.052-0.819,0.153
		c-0.285,0.104-0.56,0.248-0.826,0.435c-0.266,0.187-0.511,0.408-0.734,0.665c-0.225,0.257-0.411,0.534-0.561,0.833l-0.938,4.466
		h-0.952L219.016,189.772z"/>
</g>
<g>
	<path fill="#D2D2D2" d="M28.712,31.002c-0.75,0-1.433-0.152-2.048-0.458c-0.615-0.305-1.143-0.71-1.583-1.215
		c-0.44-0.505-0.78-1.082-1.02-1.732c-0.24-0.65-0.36-1.315-0.36-1.995c0-0.71,0.127-1.39,0.382-2.04
		c0.255-0.65,0.608-1.225,1.058-1.725c0.45-0.5,0.982-0.897,1.598-1.193c0.615-0.294,1.282-0.442,2.002-0.442
		c0.75,0,1.43,0.158,2.04,0.473c0.61,0.315,1.135,0.728,1.575,1.237c0.439,0.51,0.78,1.087,1.02,1.732
		c0.24,0.645,0.36,1.303,0.36,1.973c0,0.71-0.127,1.39-0.383,2.04c-0.255,0.65-0.605,1.223-1.05,1.717
		c-0.445,0.495-0.975,0.891-1.59,1.185C30.099,30.854,29.432,31.002,28.712,31.002z M25.067,25.602c0,0.54,0.087,1.063,0.262,1.568
		s0.422,0.952,0.743,1.342c0.32,0.39,0.705,0.7,1.155,0.93c0.45,0.23,0.95,0.345,1.5,0.345c0.57,0,1.08-0.122,1.53-0.367
		c0.45-0.245,0.833-0.565,1.147-0.96s0.555-0.843,0.72-1.343s0.248-1.005,0.248-1.515c0-0.54-0.087-1.062-0.262-1.567
		c-0.175-0.505-0.425-0.95-0.75-1.335c-0.325-0.385-0.71-0.692-1.155-0.922s-0.938-0.345-1.478-0.345c-0.57,0-1.08,0.12-1.53,0.36
		c-0.45,0.24-0.833,0.555-1.147,0.945s-0.558,0.835-0.728,1.335C25.151,24.572,25.067,25.082,25.067,25.602z"/>
	<path fill="#D2D2D2" d="M39.467,24.252c-0.66,0.02-1.243,0.19-1.748,0.51c-0.505,0.32-0.862,0.765-1.073,1.335v4.83h-1.32v-7.83
		h1.23v1.815c0.27-0.54,0.625-0.977,1.065-1.312c0.44-0.335,0.91-0.522,1.41-0.562c0.1,0,0.185,0,0.255,0s0.13,0.005,0.18,0.015
		V24.252z"/>
	<path fill="#D2D2D2" d="M40.771,21.627v-1.65h1.32v1.65H40.771z M40.771,30.927v-7.83h1.32v7.83H40.771z"/>
	<path fill="#D2D2D2" d="M47.341,31.017c-0.53,0-1.018-0.11-1.462-0.33c-0.445-0.22-0.828-0.515-1.147-0.885
		c-0.32-0.37-0.568-0.795-0.743-1.275c-0.175-0.48-0.263-0.98-0.263-1.5c0-0.55,0.087-1.073,0.263-1.567
		c0.175-0.495,0.422-0.928,0.743-1.298c0.32-0.37,0.702-0.662,1.147-0.877c0.445-0.215,0.938-0.322,1.478-0.322
		c0.66,0,1.23,0.16,1.71,0.48s0.885,0.725,1.215,1.215v-1.56h1.17v7.74c0,0.56-0.105,1.052-0.315,1.478
		c-0.21,0.425-0.495,0.782-0.855,1.072s-0.783,0.51-1.268,0.66s-1.002,0.225-1.552,0.225c-0.89,0-1.613-0.153-2.167-0.458
		c-0.555-0.305-1.018-0.728-1.388-1.268l0.765-0.675c0.31,0.46,0.71,0.805,1.2,1.035c0.49,0.23,1.02,0.345,1.59,0.345
		c0.36,0,0.702-0.05,1.027-0.15c0.325-0.1,0.607-0.25,0.848-0.45c0.24-0.2,0.432-0.45,0.577-0.75c0.145-0.3,0.218-0.655,0.218-1.065
		v-1.38c-0.15,0.24-0.328,0.458-0.533,0.653c-0.205,0.195-0.427,0.36-0.667,0.495c-0.24,0.135-0.495,0.237-0.765,0.307
		C47.896,30.981,47.621,31.017,47.341,31.017z M47.746,29.937c0.28,0,0.55-0.05,0.81-0.15c0.26-0.1,0.5-0.232,0.72-0.397
		c0.22-0.165,0.405-0.353,0.555-0.562c0.15-0.21,0.25-0.425,0.3-0.645v-2.25c-0.11-0.27-0.253-0.515-0.428-0.735
		c-0.175-0.22-0.373-0.413-0.592-0.578c-0.22-0.165-0.458-0.292-0.712-0.382c-0.255-0.09-0.513-0.135-0.772-0.135
		c-0.4,0-0.758,0.085-1.073,0.255s-0.583,0.395-0.802,0.675c-0.22,0.28-0.39,0.598-0.51,0.953s-0.18,0.712-0.18,1.072
		c0,0.39,0.07,0.76,0.21,1.11c0.14,0.35,0.33,0.655,0.57,0.915c0.24,0.26,0.522,0.468,0.848,0.623
		C47.014,29.859,47.366,29.937,47.746,29.937z"/>
	<path fill="#D2D2D2" d="M53.581,21.627v-1.65h1.32v1.65H53.581z M53.581,30.927v-7.83h1.32v7.83H53.581z"/>
	<path fill="#D2D2D2" d="M63.826,30.927h-1.32v-4.38c0-0.84-0.127-1.45-0.382-1.83c-0.255-0.38-0.643-0.57-1.163-0.57
		c-0.27,0-0.54,0.052-0.81,0.157s-0.525,0.248-0.765,0.428c-0.24,0.18-0.45,0.395-0.63,0.645s-0.315,0.525-0.405,0.825v4.725h-1.32
		v-7.83h1.2v1.68c0.31-0.55,0.757-0.99,1.342-1.32c0.585-0.33,1.223-0.495,1.913-0.495c0.45,0,0.825,0.083,1.125,0.248
		c0.3,0.165,0.54,0.395,0.72,0.69c0.18,0.295,0.307,0.643,0.382,1.042c0.075,0.4,0.112,0.835,0.112,1.305V30.927z"/>
	<path fill="#D2D2D2" d="M67.892,31.077c-0.37,0-0.715-0.062-1.035-0.188c-0.32-0.125-0.598-0.297-0.833-0.518
		c-0.235-0.22-0.42-0.477-0.555-0.772c-0.135-0.295-0.202-0.617-0.202-0.967c0-0.36,0.08-0.688,0.24-0.982
		c0.16-0.295,0.388-0.548,0.683-0.758s0.645-0.375,1.05-0.495c0.405-0.12,0.848-0.18,1.328-0.18c0.38,0,0.765,0.035,1.155,0.105
		c0.39,0.07,0.735,0.165,1.035,0.285v-0.63c0-0.64-0.18-1.142-0.54-1.507c-0.36-0.365-0.87-0.547-1.53-0.547
		c-0.79,0-1.62,0.305-2.49,0.915l-0.435-0.855c1.01-0.68,2.025-1.02,3.045-1.02c1.03,0,1.832,0.275,2.407,0.825
		c0.575,0.55,0.862,1.325,0.862,2.325v3.195c0,0.31,0.14,0.47,0.42,0.48v1.14c-0.14,0.02-0.255,0.035-0.345,0.045
		s-0.185,0.015-0.285,0.015c-0.26,0-0.467-0.078-0.622-0.232c-0.155-0.155-0.248-0.343-0.278-0.562l-0.03-0.555
		c-0.35,0.47-0.793,0.828-1.328,1.073C69.074,30.954,68.501,31.077,67.892,31.077z M68.236,30.087c0.47,0,0.908-0.087,1.312-0.263
		c0.405-0.175,0.712-0.407,0.922-0.697c0.19-0.19,0.285-0.385,0.285-0.585v-1.155c-0.64-0.25-1.305-0.375-1.995-0.375
		c-0.66,0-1.197,0.14-1.612,0.42c-0.415,0.28-0.623,0.645-0.623,1.095c0,0.22,0.042,0.425,0.127,0.615
		c0.085,0.19,0.205,0.355,0.36,0.495c0.155,0.14,0.338,0.25,0.548,0.33S67.997,30.087,68.236,30.087z"/>
	<path fill="#D2D2D2" d="M74.221,19.977h1.32v8.925c0,0.29,0.077,0.518,0.232,0.683c0.155,0.165,0.373,0.247,0.652,0.247
		c0.11,0,0.24-0.017,0.39-0.052s0.29-0.077,0.42-0.127l0.21,1.065c-0.22,0.09-0.48,0.165-0.78,0.225s-0.565,0.09-0.795,0.09
		c-0.51,0-0.913-0.145-1.208-0.435c-0.295-0.29-0.442-0.695-0.442-1.215V19.977z"/>
	<path fill="#D2D2D2" d="M84.571,31.077c-0.63,0-1.25-0.097-1.86-0.292c-0.61-0.195-1.135-0.478-1.575-0.848l0.57-0.885
		c0.46,0.35,0.92,0.613,1.38,0.788c0.459,0.175,0.945,0.262,1.455,0.262c0.57,0,1.022-0.112,1.358-0.337
		c0.335-0.225,0.502-0.542,0.502-0.953c0-0.189-0.045-0.352-0.135-0.487c-0.09-0.135-0.225-0.252-0.405-0.353
		c-0.18-0.1-0.41-0.19-0.69-0.27c-0.28-0.08-0.605-0.165-0.975-0.255c-0.47-0.12-0.875-0.235-1.215-0.345
		c-0.34-0.11-0.621-0.24-0.84-0.39c-0.22-0.15-0.38-0.33-0.48-0.54s-0.15-0.47-0.15-0.78c0-0.39,0.077-0.737,0.232-1.042
		c0.155-0.305,0.368-0.56,0.638-0.765s0.587-0.36,0.952-0.465c0.365-0.105,0.758-0.157,1.178-0.157c0.59,0,1.14,0.095,1.65,0.285
		c0.51,0.19,0.94,0.44,1.29,0.75l-0.6,0.795c-0.33-0.29-0.7-0.508-1.11-0.653c-0.41-0.145-0.83-0.217-1.26-0.217
		c-0.48,0-0.888,0.103-1.223,0.308c-0.335,0.205-0.502,0.532-0.502,0.982c0,0.18,0.032,0.33,0.097,0.45
		c0.065,0.12,0.173,0.225,0.323,0.315c0.15,0.09,0.342,0.17,0.578,0.24c0.235,0.07,0.517,0.145,0.847,0.225
		c0.52,0.12,0.973,0.243,1.357,0.367c0.385,0.125,0.705,0.273,0.96,0.443c0.255,0.17,0.445,0.37,0.57,0.6
		c0.125,0.23,0.188,0.51,0.188,0.84c0,0.73-0.28,1.31-0.84,1.74C86.275,30.862,85.521,31.077,84.571,31.077z"/>
	<path fill="#D2D2D2" d="M91.246,31.077c-0.37,0-0.715-0.062-1.035-0.188c-0.32-0.125-0.598-0.297-0.833-0.518
		c-0.235-0.22-0.42-0.477-0.555-0.772c-0.135-0.295-0.202-0.617-0.202-0.967c0-0.36,0.08-0.688,0.24-0.982
		c0.16-0.295,0.388-0.548,0.683-0.758s0.645-0.375,1.05-0.495c0.405-0.12,0.848-0.18,1.328-0.18c0.38,0,0.765,0.035,1.155,0.105
		c0.39,0.07,0.735,0.165,1.035,0.285v-0.63c0-0.64-0.18-1.142-0.54-1.507c-0.36-0.365-0.87-0.547-1.53-0.547
		c-0.79,0-1.62,0.305-2.49,0.915l-0.435-0.855c1.01-0.68,2.025-1.02,3.045-1.02c1.03,0,1.832,0.275,2.407,0.825
		c0.575,0.55,0.862,1.325,0.862,2.325v3.195c0,0.31,0.14,0.47,0.42,0.48v1.14c-0.14,0.02-0.255,0.035-0.345,0.045
		s-0.185,0.015-0.285,0.015c-0.26,0-0.467-0.078-0.622-0.232c-0.155-0.155-0.248-0.343-0.278-0.562l-0.03-0.555
		c-0.35,0.47-0.793,0.828-1.328,1.073C92.428,30.954,91.855,31.077,91.246,31.077z M91.59,30.087c0.47,0,0.908-0.087,1.312-0.263
		c0.405-0.175,0.712-0.407,0.922-0.697c0.19-0.19,0.285-0.385,0.285-0.585v-1.155c-0.64-0.25-1.305-0.375-1.995-0.375
		c-0.66,0-1.197,0.14-1.612,0.42c-0.415,0.28-0.623,0.645-0.623,1.095c0,0.22,0.042,0.425,0.127,0.615
		c0.085,0.19,0.205,0.355,0.36,0.495c0.155,0.14,0.338,0.25,0.548,0.33S91.351,30.087,91.59,30.087z"/>
	<path fill="#D2D2D2" d="M109.351,30.927h-1.32v-4.38c0-0.82-0.132-1.425-0.397-1.815c-0.265-0.39-0.658-0.585-1.177-0.585
		c-0.54,0-1.022,0.192-1.448,0.577c-0.425,0.385-0.728,0.883-0.907,1.493v4.71h-1.32v-4.38c0-0.84-0.13-1.45-0.39-1.83
		c-0.26-0.38-0.65-0.57-1.17-0.57c-0.53,0-1.01,0.188-1.44,0.562c-0.43,0.375-0.735,0.873-0.915,1.492v4.725h-1.32v-7.83h1.2v1.68
		c0.32-0.58,0.735-1.028,1.245-1.343c0.51-0.315,1.085-0.472,1.725-0.472c0.66,0,1.183,0.178,1.568,0.532
		c0.385,0.355,0.622,0.812,0.712,1.373c0.7-1.27,1.695-1.905,2.985-1.905c0.45,0,0.827,0.083,1.132,0.248
		c0.305,0.165,0.548,0.395,0.728,0.69c0.18,0.295,0.31,0.643,0.39,1.042s0.12,0.835,0.12,1.305V30.927z"/>
	<path fill="#D2D2D2" d="M115.62,31.077c-0.65,0-1.222-0.16-1.717-0.48c-0.495-0.32-0.888-0.725-1.178-1.215v4.74h-1.32V23.097h1.17
		v1.47c0.31-0.48,0.712-0.868,1.208-1.163s1.042-0.442,1.643-0.442c0.54,0,1.035,0.11,1.485,0.33c0.45,0.22,0.84,0.517,1.17,0.892
		c0.33,0.375,0.587,0.808,0.772,1.298c0.185,0.49,0.277,1,0.277,1.53c0,0.56-0.085,1.087-0.255,1.583
		c-0.17,0.495-0.41,0.925-0.72,1.29c-0.31,0.365-0.68,0.655-1.11,0.87C116.615,30.969,116.14,31.077,115.62,31.077z M115.215,29.937
		c0.39,0,0.743-0.082,1.058-0.247s0.585-0.385,0.81-0.66c0.225-0.275,0.397-0.587,0.517-0.938c0.12-0.35,0.18-0.71,0.18-1.08
		c0-0.39-0.07-0.762-0.21-1.118c-0.14-0.354-0.33-0.665-0.57-0.93c-0.24-0.265-0.523-0.475-0.848-0.63
		c-0.325-0.155-0.678-0.233-1.058-0.233c-0.24,0-0.487,0.048-0.742,0.143c-0.255,0.095-0.495,0.22-0.72,0.375
		c-0.225,0.155-0.42,0.34-0.585,0.555c-0.165,0.215-0.272,0.442-0.323,0.683v2.235c0.11,0.26,0.25,0.502,0.42,0.728
		c0.17,0.225,0.365,0.42,0.585,0.585c0.22,0.165,0.455,0.295,0.705,0.39C114.685,29.89,114.945,29.937,115.215,29.937z"/>
	<path fill="#D2D2D2" d="M120.78,19.977h1.32v8.925c0,0.29,0.077,0.518,0.232,0.683c0.155,0.165,0.373,0.247,0.652,0.247
		c0.11,0,0.24-0.017,0.39-0.052s0.29-0.077,0.42-0.127l0.21,1.065c-0.22,0.09-0.48,0.165-0.78,0.225s-0.565,0.09-0.795,0.09
		c-0.51,0-0.913-0.145-1.208-0.435c-0.295-0.29-0.442-0.695-0.442-1.215V19.977z"/>
	<path fill="#D2D2D2" d="M128.505,31.077c-0.59,0-1.13-0.107-1.62-0.322c-0.49-0.215-0.91-0.507-1.26-0.877
		s-0.623-0.803-0.817-1.298c-0.195-0.495-0.292-1.017-0.292-1.567c0-0.55,0.098-1.07,0.292-1.56c0.195-0.49,0.47-0.92,0.825-1.29
		c0.354-0.37,0.777-0.662,1.267-0.877c0.49-0.215,1.03-0.322,1.62-0.322s1.127,0.11,1.613,0.33c0.485,0.22,0.897,0.512,1.237,0.877
		c0.34,0.365,0.603,0.79,0.788,1.275c0.185,0.485,0.277,0.988,0.277,1.507c0,0.11-0.002,0.21-0.007,0.3
		c-0.005,0.09-0.013,0.16-0.022,0.21h-6.495c0.03,0.39,0.12,0.745,0.27,1.065s0.345,0.595,0.585,0.825
		c0.24,0.23,0.512,0.41,0.817,0.54c0.305,0.13,0.627,0.195,0.968,0.195c0.24,0,0.475-0.033,0.705-0.098s0.445-0.152,0.645-0.263
		c0.2-0.11,0.377-0.245,0.533-0.405c0.155-0.16,0.272-0.34,0.353-0.54l1.14,0.315c-0.13,0.29-0.308,0.555-0.533,0.795
		c-0.225,0.24-0.485,0.448-0.78,0.623c-0.295,0.175-0.623,0.313-0.983,0.413C129.27,31.026,128.895,31.077,128.505,31.077z
		 M131.19,26.487c-0.03-0.37-0.123-0.712-0.277-1.027c-0.155-0.315-0.35-0.583-0.585-0.803c-0.235-0.22-0.508-0.392-0.817-0.518
		c-0.31-0.125-0.64-0.188-0.99-0.188s-0.68,0.062-0.99,0.188c-0.31,0.125-0.583,0.3-0.818,0.525
		c-0.235,0.225-0.425,0.493-0.57,0.803s-0.232,0.65-0.263,1.02H131.19z"/>
</g>
<g>
	<g>
		<g>
			<path fill="#D2D2D2" d="M144.91,131.68c0,0,1.996-4.16,4.988-10.402c2.977-6.25,7.014-14.548,11.045-22.85
				c2.004-4.156,4.006-8.312,5.885-12.21c0.961-1.937,1.847-3.832,2.769-5.587c0.91-1.762,1.749-3.438,2.574-4.959
				c1.621-3.059,3.001-5.592,3.996-7.351c0.993-1.76,1.562-2.765,1.562-2.765l0.988,0.498c0,0-0.471,1.054-1.295,2.899
				c-0.822,1.846-2.037,4.462-3.53,7.585c-0.733,1.568-1.58,3.239-2.454,5.019c-0.863,1.785-1.859,3.624-2.844,5.55
				c-2.016,3.828-4.166,7.91-6.314,11.994c-4.274,8.179-8.543,16.36-11.795,22.471c-3.237,6.119-5.395,10.197-5.395,10.197
				L144.91,131.68z"/>
			<g>
				<polygon fill="#D2D2D2" points="181.4,59.5 180.553,70.215 177.984,66.276 173.293,66.556 				"/>
			</g>
		</g>
	</g>
	<g>
		<g>
			<path fill="#D2D2D2" d="M145.006,136.012c0,0,1.838,0.016,4.596,0.037c2.758,0.01,6.434,0.061,10.108,0.143
				c1.837,0.031,3.675,0.062,5.397,0.093c1.725,0.012,3.332,0.022,4.709,0.075c1.377,0.064,2.521,0.164,3.321,0.25
				c0.8,0.082,1.258,0.129,1.258,0.129l-0.093,1.794c0,0-0.46-0.001-1.265-0.003c-0.806,0.003-1.954-0.018-3.329-0.094
				c-1.375-0.092-2.976-0.246-4.691-0.412c-1.717-0.149-3.547-0.309-5.379-0.467c-3.662-0.3-7.324-0.629-10.068-0.904
				c-2.745-0.264-4.576-0.438-4.576-0.438L145.006,136.012z"/>
			<g>
				<polygon fill="#D2D2D2" points="181.4,138 171.254,141.545 173.822,137.607 171.674,133.426 				"/>
			</g>
		</g>
	</g>
	<g>
		<g>
			<polygon fill="#D2D2D2" points="145.064,138.229 146.251,139.148 146.059,139.38 144.936,138.383 			"/>
			<polygon fill="#D2D2D2" points="147.844,140.381 150.232,142.229 149.822,142.723 147.564,140.717 			"/>
			<polygon fill="#D2D2D2" points="151.824,143.461 154.213,145.311 153.586,146.066 151.328,144.061 			"/>
			<polygon fill="#D2D2D2" points="155.796,146.555 158.168,148.422 157.375,149.379 155.102,147.393 			"/>
			<polygon fill="#D2D2D2" points="159.75,149.668 162.123,151.537 161.166,152.689 158.893,150.703 			"/>
			<polygon fill="#D2D2D2" points="163.704,152.782 166.084,154.643 164.95,156.009 162.684,154.014 			"/>
			<path fill="#D2D2D2" d="M167.678,155.872c0,0,0.596,0.466,1.189,0.931c0.59,0.471,1.18,0.941,1.18,0.941l-1.314,1.586
				c0,0-0.572-0.492-1.145-0.984c-0.566-0.5-1.134-0.998-1.134-0.998L167.678,155.872z"/>
			<path fill="#D2D2D2" d="M171.6,159.025c0,0,0.572,0.492,1.143,0.985c0.564,0.503,1.128,1.007,1.128,1.007l-1.216,1.465
				c0,0-0.598-0.461-1.195-0.922c-0.592-0.472-1.182-0.941-1.182-0.941L171.6,159.025z"/>
			<polygon fill="#D2D2D2" points="175.363,162.369 176.465,163.391 175.467,164.594 174.259,163.701 			"/>
			<g>
				<polygon fill="#D2D2D2" points="181.4,168.5 171.146,165.277 175.56,163.654 176.338,159.02 				"/>
			</g>
		</g>
	</g>
	<g>
		<g>
			<path fill="#D2D2D2" d="M145.088,140.452c0,0,2.145,3.762,5.361,9.403c3.23,5.634,7.475,13.182,11.721,20.727
				c2.137,3.766,4.272,7.532,6.275,11.062c0.984,1.772,1.965,3.474,2.834,5.117c0.866,1.646,1.716,3.187,2.445,4.637
				c1.488,2.888,2.697,5.31,3.523,7.016c0.82,1.71,1.288,2.688,1.288,2.688l-1.007,0.547c0,0-0.564-0.926-1.551-2.545
				c-0.98-1.623-2.352-3.957-3.961-6.776c-0.818-1.402-1.646-2.954-2.555-4.578c-0.904-1.625-1.796-3.373-2.746-5.166
				c-1.869-3.604-3.861-7.446-5.855-11.29c-4.011-7.673-8.025-15.345-10.987-21.124c-2.978-5.772-4.962-9.62-4.962-9.62
				L145.088,140.452z"/>
			<g>
				<polygon fill="#D2D2D2" points="181.4,207.58 173.082,200.773 177.781,200.91 180.227,196.896 				"/>
			</g>
		</g>
	</g>
	<g>
		<g>
			<path fill="#D2D2D2" d="M144.933,133.846c0,0,1.892-1.854,4.729-4.635c1.421-1.388,3.078-3.008,4.854-4.742
				c1.788-1.723,3.694-3.561,5.601-5.398c1.901-1.843,3.804-3.686,5.586-5.414c1.765-1.746,3.442-3.344,4.927-4.662
				c2.982-2.624,5.053-4.282,5.053-4.282l1.034,1.126c0,0-1.829,1.922-4.697,4.67c-1.44,1.366-3.175,2.901-5.065,4.512
				c-1.874,1.629-3.872,3.365-5.871,5.104c-1.993,1.742-3.986,3.485-5.855,5.119c-1.88,1.621-3.635,3.135-5.139,4.432
				c-3.012,2.592-5.021,4.318-5.021,4.318L144.933,133.846z"/>
			<g>
				<polygon fill="#D2D2D2" points="181.4,100.5 176.82,110.223 175.811,105.632 171.322,104.234 				"/>
			</g>
		</g>
	</g>
</g>
<g>
	<g>
		
			<line fill="none" stroke="#D2D2D2" stroke-width="1.5" stroke-linecap="round" stroke-miterlimit="10" x1="270" y1="48.555" x2="271" y2="48.555"/>
		
			<line fill="none" stroke="#D2D2D2" stroke-width="1.5" stroke-linecap="round" stroke-miterlimit="10" stroke-dasharray="2.125,3.1875" x1="274.188" y1="48.555" x2="277.906" y2="48.555"/>
		
			<line fill="none" stroke="#D2D2D2" stroke-width="1.5" stroke-linecap="round" stroke-miterlimit="10" x1="279.5" y1="48.555" x2="280.5" y2="48.555"/>
	</g>
</g>
<g>
	<g>
		
			<line fill="none" stroke="#D2D2D2" stroke-width="1.5" stroke-linecap="round" stroke-miterlimit="10" x1="270" y1="99.066" x2="271" y2="99.066"/>
		
			<line fill="none" stroke="#D2D2D2" stroke-width="1.5" stroke-linecap="round" stroke-miterlimit="10" stroke-dasharray="2.125,3.1875" x1="274.188" y1="99.066" x2="277.906" y2="99.066"/>
		
			<line fill="none" stroke="#D2D2D2" stroke-width="1.5" stroke-linecap="round" stroke-miterlimit="10" x1="279.5" y1="99.066" x2="280.5" y2="99.066"/>
	</g>
</g>
<g>
	<g>
		
			<line fill="none" stroke="#D2D2D2" stroke-width="1.5" stroke-linecap="round" stroke-miterlimit="10" x1="270" y1="140.727" x2="271" y2="140.727"/>
		
			<line fill="none" stroke="#D2D2D2" stroke-width="1.5" stroke-linecap="round" stroke-miterlimit="10" stroke-dasharray="2.125,3.1875" x1="274.188" y1="140.727" x2="277.906" y2="140.727"/>
		
			<line fill="none" stroke="#D2D2D2" stroke-width="1.5" stroke-linecap="round" stroke-miterlimit="10" x1="279.5" y1="140.727" x2="280.5" y2="140.727"/>
	</g>
</g>
<g>
	<g>
		
			<line fill="none" stroke="#D2D2D2" stroke-width="1.5" stroke-linecap="round" stroke-miterlimit="10" x1="371" y1="168.581" x2="371" y2="169.581"/>
		
			<line fill="none" stroke="#D2D2D2" stroke-width="1.5" stroke-linecap="round" stroke-miterlimit="10" stroke-dasharray="2.125,3.1875" x1="371" y1="172.769" x2="371" y2="176.487"/>
		
			<line fill="none" stroke="#D2D2D2" stroke-width="1.5" stroke-linecap="round" stroke-miterlimit="10" x1="371" y1="178.081" x2="371" y2="179.081"/>
	</g>
</g>
<g>
	<g>
		
			<line fill="none" stroke="#D2D2D2" stroke-width="1.5" stroke-linecap="round" stroke-miterlimit="10" x1="227.5" y1="168.581" x2="227.5" y2="169.581"/>
		
			<line fill="none" stroke="#D2D2D2" stroke-width="1.5" stroke-linecap="round" stroke-miterlimit="10" stroke-dasharray="2.125,3.1875" x1="227.5" y1="172.769" x2="227.5" y2="176.487"/>
		
			<line fill="none" stroke="#D2D2D2" stroke-width="1.5" stroke-linecap="round" stroke-miterlimit="10" x1="227.5" y1="178.081" x2="227.5" y2="179.081"/>
	</g>
</g>
<g>
	<g>
		
			<line fill="none" stroke="#D2D2D2" stroke-width="1.5" stroke-linecap="round" stroke-miterlimit="10" x1="270" y1="213.905" x2="271" y2="213.905"/>
		
			<line fill="none" stroke="#D2D2D2" stroke-width="1.5" stroke-linecap="round" stroke-miterlimit="10" stroke-dasharray="2.125,3.1875" x1="274.188" y1="213.905" x2="277.906" y2="213.905"/>
		
			<line fill="none" stroke="#D2D2D2" stroke-width="1.5" stroke-linecap="round" stroke-miterlimit="10" x1="279.5" y1="213.905" x2="280.5" y2="213.905"/>
	</g>
</g>
<g>
	<path fill="#D2D2D2" d="M231.562,12.182c0,0.41-0.082,0.785-0.247,1.125c-0.165,0.34-0.39,0.63-0.675,0.87s-0.615,0.425-0.99,0.555
		s-0.777,0.195-1.207,0.195h-5.056V4.277h5.295c0.37,0,0.705,0.08,1.005,0.24c0.301,0.16,0.555,0.368,0.766,0.623
		c0.209,0.255,0.372,0.545,0.487,0.87c0.114,0.325,0.173,0.652,0.173,0.982c0,0.53-0.133,1.02-0.398,1.47
		c-0.265,0.45-0.643,0.785-1.132,1.005c0.61,0.18,1.093,0.513,1.447,0.998S231.562,11.522,231.562,12.182z M224.738,5.447v3.555
		h3.39c0.239,0,0.46-0.047,0.659-0.143c0.201-0.095,0.373-0.223,0.518-0.383c0.146-0.16,0.261-0.347,0.346-0.562
		c0.085-0.215,0.127-0.442,0.127-0.682c0-0.25-0.039-0.485-0.119-0.705c-0.08-0.22-0.188-0.41-0.322-0.57
		c-0.136-0.16-0.301-0.285-0.496-0.375c-0.194-0.09-0.402-0.135-0.622-0.135H224.738z M230.197,11.942
		c0-0.24-0.042-0.473-0.127-0.698s-0.2-0.422-0.346-0.592c-0.145-0.17-0.316-0.305-0.517-0.405c-0.2-0.1-0.421-0.15-0.66-0.15h-3.81
		v3.66h3.705c0.25,0,0.479-0.05,0.689-0.15s0.395-0.233,0.555-0.397c0.16-0.165,0.285-0.357,0.375-0.578
		C230.152,12.412,230.197,12.182,230.197,11.942z"/>
	<path fill="#D2D2D2" d="M236.662,15.077c-0.59,0-1.127-0.11-1.611-0.33c-0.486-0.22-0.9-0.515-1.246-0.885
		c-0.344-0.37-0.612-0.8-0.802-1.29c-0.19-0.49-0.285-1.005-0.285-1.545c0-0.55,0.098-1.07,0.292-1.56
		c0.195-0.49,0.465-0.92,0.811-1.29c0.345-0.37,0.76-0.665,1.245-0.885c0.485-0.22,1.017-0.33,1.597-0.33s1.115,0.11,1.605,0.33
		c0.49,0.22,0.908,0.515,1.252,0.885c0.346,0.37,0.615,0.8,0.811,1.29c0.195,0.49,0.293,1.01,0.293,1.56
		c0,0.54-0.096,1.055-0.285,1.545c-0.19,0.49-0.461,0.92-0.811,1.29s-0.768,0.665-1.252,0.885
		C237.79,14.967,237.252,15.077,236.662,15.077z M234.068,11.042c0,0.41,0.066,0.79,0.201,1.14c0.136,0.35,0.32,0.655,0.556,0.915
		c0.235,0.26,0.511,0.465,0.825,0.615c0.314,0.15,0.652,0.225,1.012,0.225c0.361,0,0.698-0.075,1.014-0.225
		c0.314-0.15,0.592-0.357,0.832-0.623s0.428-0.575,0.562-0.93s0.203-0.737,0.203-1.147c0-0.4-0.068-0.777-0.203-1.132
		s-0.322-0.665-0.562-0.93c-0.24-0.265-0.518-0.473-0.832-0.623c-0.315-0.15-0.652-0.225-1.014-0.225
		c-0.359,0-0.697,0.078-1.012,0.233c-0.314,0.155-0.59,0.365-0.825,0.63s-0.42,0.575-0.556,0.93
		C234.135,10.25,234.068,10.632,234.068,11.042z"/>
	<path fill="#D2D2D2" d="M245.647,15.077c-0.59,0-1.128-0.11-1.612-0.33c-0.485-0.22-0.9-0.515-1.245-0.885s-0.612-0.8-0.802-1.29
		c-0.191-0.49-0.285-1.005-0.285-1.545c0-0.55,0.098-1.07,0.292-1.56c0.194-0.49,0.465-0.92,0.81-1.29
		c0.346-0.37,0.76-0.665,1.246-0.885c0.484-0.22,1.017-0.33,1.597-0.33s1.115,0.11,1.604,0.33c0.49,0.22,0.908,0.515,1.253,0.885
		c0.345,0.37,0.615,0.8,0.81,1.29c0.195,0.49,0.293,1.01,0.293,1.56c0,0.54-0.096,1.055-0.285,1.545
		c-0.189,0.49-0.46,0.92-0.81,1.29c-0.351,0.37-0.768,0.665-1.253,0.885C246.775,14.967,246.237,15.077,245.647,15.077z
		 M243.053,11.042c0,0.41,0.067,0.79,0.202,1.14c0.136,0.35,0.32,0.655,0.556,0.915c0.234,0.26,0.51,0.465,0.824,0.615
		c0.315,0.15,0.652,0.225,1.013,0.225s0.698-0.075,1.013-0.225c0.314-0.15,0.592-0.357,0.832-0.623s0.428-0.575,0.562-0.93
		s0.203-0.737,0.203-1.147c0-0.4-0.068-0.777-0.203-1.132s-0.322-0.665-0.562-0.93c-0.24-0.265-0.518-0.473-0.832-0.623
		s-0.652-0.225-1.013-0.225s-0.697,0.078-1.013,0.233c-0.314,0.155-0.59,0.365-0.824,0.63c-0.235,0.265-0.42,0.575-0.556,0.93
		C243.12,10.25,243.053,10.632,243.053,11.042z"/>
	<path fill="#D2D2D2" d="M255.143,14.537c-0.08,0.04-0.186,0.088-0.314,0.143c-0.131,0.055-0.277,0.11-0.443,0.165
		c-0.164,0.055-0.344,0.1-0.539,0.135c-0.195,0.035-0.398,0.052-0.607,0.052c-0.48,0-0.896-0.132-1.246-0.397
		c-0.35-0.265-0.524-0.677-0.524-1.237V8.132h-1.065V7.097h1.065v-2.61h1.319v2.61h1.756v1.035h-1.756v4.86
		c0.021,0.29,0.115,0.5,0.285,0.63c0.17,0.13,0.371,0.195,0.601,0.195c0.26,0,0.497-0.042,0.712-0.127s0.363-0.152,0.443-0.203
		L255.143,14.537z"/>
	<path fill="#D2D2D2" d="M259.117,15.077c-0.629,0-1.25-0.097-1.859-0.292c-0.61-0.195-1.135-0.478-1.575-0.848l0.569-0.885
		c0.461,0.35,0.92,0.613,1.381,0.788c0.459,0.175,0.945,0.262,1.455,0.262c0.57,0,1.021-0.112,1.357-0.337
		c0.335-0.225,0.502-0.542,0.502-0.953c0-0.189-0.045-0.352-0.135-0.487c-0.09-0.135-0.225-0.252-0.404-0.353
		c-0.181-0.1-0.41-0.19-0.69-0.27c-0.28-0.08-0.605-0.165-0.976-0.255c-0.47-0.12-0.875-0.235-1.215-0.345
		c-0.34-0.11-0.62-0.24-0.84-0.39c-0.22-0.15-0.38-0.33-0.48-0.54c-0.1-0.21-0.149-0.47-0.149-0.78c0-0.39,0.077-0.737,0.232-1.042
		c0.155-0.305,0.368-0.56,0.638-0.765s0.588-0.36,0.952-0.465c0.365-0.105,0.758-0.157,1.178-0.157c0.59,0,1.14,0.095,1.649,0.285
		c0.511,0.19,0.94,0.44,1.291,0.75l-0.601,0.795c-0.33-0.29-0.7-0.508-1.11-0.653c-0.41-0.145-0.83-0.217-1.26-0.217
		c-0.479,0-0.887,0.103-1.223,0.308c-0.335,0.205-0.502,0.532-0.502,0.982c0,0.18,0.032,0.33,0.098,0.45
		c0.064,0.12,0.172,0.225,0.322,0.315c0.15,0.09,0.342,0.17,0.578,0.24c0.234,0.07,0.517,0.145,0.847,0.225
		c0.521,0.12,0.973,0.243,1.357,0.367c0.386,0.125,0.705,0.273,0.96,0.443c0.256,0.17,0.445,0.37,0.57,0.6
		c0.125,0.23,0.188,0.51,0.188,0.84c0,0.73-0.28,1.31-0.84,1.74C260.822,14.862,260.067,15.077,259.117,15.077z"/>
	<path fill="#D2D2D2" d="M267.832,14.537c-0.08,0.04-0.186,0.088-0.314,0.143c-0.131,0.055-0.277,0.11-0.443,0.165
		c-0.164,0.055-0.344,0.1-0.539,0.135c-0.195,0.035-0.398,0.052-0.607,0.052c-0.48,0-0.896-0.132-1.246-0.397
		c-0.35-0.265-0.524-0.677-0.524-1.237V8.132h-1.065V7.097h1.065v-2.61h1.319v2.61h1.756v1.035h-1.756v4.86
		c0.021,0.29,0.115,0.5,0.285,0.63c0.17,0.13,0.371,0.195,0.601,0.195c0.26,0,0.497-0.042,0.712-0.127s0.363-0.152,0.443-0.203
		L267.832,14.537z"/>
	<path fill="#D2D2D2" d="M273.202,8.252c-0.66,0.02-1.243,0.19-1.747,0.51c-0.506,0.32-0.863,0.765-1.073,1.335v4.83h-1.319v-7.83
		h1.229v1.815c0.271-0.54,0.625-0.977,1.065-1.312c0.439-0.335,0.91-0.522,1.41-0.562c0.1,0,0.185,0,0.254,0
		c0.07,0,0.131,0.005,0.181,0.015V8.252z"/>
	<path fill="#D2D2D2" d="M276.518,15.077c-0.371,0-0.716-0.062-1.035-0.188c-0.32-0.125-0.598-0.297-0.833-0.518
		c-0.235-0.22-0.42-0.477-0.556-0.772c-0.135-0.295-0.201-0.617-0.201-0.967c0-0.36,0.079-0.688,0.239-0.982
		c0.159-0.295,0.388-0.548,0.683-0.758s0.645-0.375,1.05-0.495c0.405-0.12,0.848-0.18,1.327-0.18c0.381,0,0.766,0.035,1.155,0.105
		s0.735,0.165,1.035,0.285v-0.63c0-0.64-0.181-1.142-0.54-1.507c-0.359-0.365-0.87-0.547-1.529-0.547
		c-0.791,0-1.621,0.305-2.49,0.915l-0.436-0.855c1.01-0.68,2.025-1.02,3.045-1.02c1.03,0,1.832,0.275,2.408,0.825
		c0.574,0.55,0.861,1.325,0.861,2.325v3.195c0,0.31,0.141,0.47,0.421,0.48v1.14c-0.14,0.02-0.255,0.035-0.345,0.045
		s-0.186,0.015-0.285,0.015c-0.26,0-0.468-0.078-0.623-0.232c-0.154-0.155-0.247-0.343-0.277-0.562l-0.029-0.555
		c-0.351,0.47-0.793,0.828-1.328,1.073C277.699,14.954,277.127,15.077,276.518,15.077z M276.861,14.087
		c0.471,0,0.908-0.087,1.312-0.263c0.406-0.175,0.713-0.407,0.923-0.697c0.19-0.19,0.285-0.385,0.285-0.585v-1.155
		c-0.64-0.25-1.306-0.375-1.995-0.375c-0.66,0-1.197,0.14-1.612,0.42c-0.415,0.28-0.622,0.645-0.622,1.095
		c0,0.22,0.042,0.425,0.127,0.615c0.085,0.19,0.205,0.355,0.359,0.495c0.156,0.14,0.338,0.25,0.549,0.33
		C276.396,14.047,276.622,14.087,276.861,14.087z"/>
	<path fill="#D2D2D2" d="M287.031,15.077c-0.649,0-1.222-0.16-1.717-0.48c-0.495-0.32-0.888-0.725-1.178-1.215v4.74h-1.32V7.097
		h1.17v1.47c0.311-0.48,0.713-0.868,1.208-1.163s1.042-0.442,1.643-0.442c0.54,0,1.035,0.11,1.485,0.33
		c0.449,0.22,0.84,0.517,1.17,0.892s0.587,0.808,0.772,1.298c0.185,0.49,0.277,1,0.277,1.53c0,0.56-0.085,1.087-0.255,1.583
		s-0.41,0.925-0.721,1.29c-0.31,0.365-0.68,0.655-1.109,0.87S287.552,15.077,287.031,15.077z M286.627,13.937
		c0.391,0,0.742-0.082,1.058-0.247s0.585-0.385,0.81-0.66s0.398-0.587,0.518-0.938c0.12-0.35,0.18-0.71,0.18-1.08
		c0-0.39-0.069-0.762-0.209-1.118c-0.141-0.354-0.33-0.665-0.57-0.93s-0.523-0.475-0.848-0.63c-0.325-0.155-0.678-0.233-1.058-0.233
		c-0.239,0-0.487,0.048-0.742,0.143c-0.255,0.095-0.495,0.22-0.72,0.375c-0.226,0.155-0.42,0.34-0.586,0.555
		c-0.164,0.215-0.271,0.442-0.322,0.683v2.235c0.11,0.26,0.25,0.502,0.42,0.728s0.365,0.42,0.586,0.585
		c0.219,0.165,0.454,0.295,0.705,0.39C286.097,13.89,286.357,13.937,286.627,13.937z"/>
	<path fill="#D2D2D2" d="M298.701,15.077c-0.629,0-1.25-0.097-1.859-0.292c-0.61-0.195-1.135-0.478-1.575-0.848l0.569-0.885
		c0.461,0.35,0.92,0.613,1.381,0.788c0.459,0.175,0.945,0.262,1.455,0.262c0.57,0,1.021-0.112,1.357-0.337
		c0.335-0.225,0.502-0.542,0.502-0.953c0-0.189-0.045-0.352-0.135-0.487c-0.09-0.135-0.225-0.252-0.404-0.353
		c-0.181-0.1-0.41-0.19-0.69-0.27c-0.28-0.08-0.605-0.165-0.976-0.255c-0.47-0.12-0.875-0.235-1.215-0.345
		c-0.34-0.11-0.62-0.24-0.84-0.39c-0.22-0.15-0.38-0.33-0.48-0.54c-0.1-0.21-0.149-0.47-0.149-0.78c0-0.39,0.077-0.737,0.232-1.042
		c0.155-0.305,0.368-0.56,0.638-0.765s0.588-0.36,0.952-0.465c0.365-0.105,0.758-0.157,1.178-0.157c0.59,0,1.14,0.095,1.649,0.285
		c0.511,0.19,0.94,0.44,1.291,0.75l-0.601,0.795c-0.33-0.29-0.7-0.508-1.11-0.653c-0.41-0.145-0.83-0.217-1.26-0.217
		c-0.479,0-0.887,0.103-1.223,0.308c-0.335,0.205-0.502,0.532-0.502,0.982c0,0.18,0.032,0.33,0.098,0.45
		c0.064,0.12,0.172,0.225,0.322,0.315c0.15,0.09,0.342,0.17,0.578,0.24c0.234,0.07,0.517,0.145,0.847,0.225
		c0.521,0.12,0.973,0.243,1.357,0.367c0.386,0.125,0.705,0.273,0.96,0.443c0.256,0.17,0.445,0.37,0.57,0.6
		c0.125,0.23,0.188,0.51,0.188,0.84c0,0.73-0.28,1.31-0.84,1.74C300.406,14.862,299.651,15.077,298.701,15.077z"/>
	<path fill="#D2D2D2" d="M305.377,15.077c-0.371,0-0.716-0.062-1.035-0.188c-0.32-0.125-0.598-0.297-0.833-0.518
		c-0.235-0.22-0.42-0.477-0.556-0.772c-0.135-0.295-0.201-0.617-0.201-0.967c0-0.36,0.079-0.688,0.239-0.982
		c0.159-0.295,0.388-0.548,0.683-0.758s0.645-0.375,1.05-0.495c0.405-0.12,0.848-0.18,1.327-0.18c0.381,0,0.766,0.035,1.155,0.105
		s0.735,0.165,1.035,0.285v-0.63c0-0.64-0.181-1.142-0.54-1.507c-0.359-0.365-0.87-0.547-1.529-0.547
		c-0.791,0-1.621,0.305-2.49,0.915l-0.436-0.855c1.01-0.68,2.025-1.02,3.045-1.02c1.03,0,1.832,0.275,2.408,0.825
		c0.574,0.55,0.861,1.325,0.861,2.325v3.195c0,0.31,0.141,0.47,0.421,0.48v1.14c-0.14,0.02-0.255,0.035-0.345,0.045
		s-0.186,0.015-0.285,0.015c-0.26,0-0.468-0.078-0.623-0.232c-0.154-0.155-0.247-0.343-0.277-0.562l-0.029-0.555
		c-0.351,0.47-0.793,0.828-1.328,1.073C306.559,14.954,305.986,15.077,305.377,15.077z M305.721,14.087
		c0.471,0,0.908-0.087,1.312-0.263c0.406-0.175,0.713-0.407,0.923-0.697c0.19-0.19,0.285-0.385,0.285-0.585v-1.155
		c-0.64-0.25-1.306-0.375-1.995-0.375c-0.66,0-1.197,0.14-1.612,0.42c-0.415,0.28-0.622,0.645-0.622,1.095
		c0,0.22,0.042,0.425,0.127,0.615c0.085,0.19,0.205,0.355,0.359,0.495c0.156,0.14,0.338,0.25,0.549,0.33
		C305.256,14.047,305.481,14.087,305.721,14.087z"/>
	<path fill="#D2D2D2" d="M323.481,14.927h-1.32v-4.38c0-0.82-0.132-1.425-0.397-1.815c-0.266-0.39-0.658-0.585-1.178-0.585
		c-0.539,0-1.021,0.192-1.447,0.577c-0.425,0.385-0.728,0.883-0.907,1.493v4.71h-1.32v-4.38c0-0.84-0.13-1.45-0.39-1.83
		s-0.65-0.57-1.17-0.57c-0.53,0-1.01,0.188-1.44,0.562c-0.43,0.375-0.735,0.873-0.915,1.492v4.725h-1.32v-7.83h1.201v1.68
		c0.319-0.58,0.734-1.028,1.244-1.343s1.085-0.472,1.725-0.472c0.66,0,1.184,0.178,1.568,0.532c0.385,0.355,0.622,0.812,0.713,1.373
		c0.699-1.27,1.694-1.905,2.984-1.905c0.45,0,0.827,0.083,1.133,0.248c0.305,0.165,0.547,0.395,0.727,0.69
		c0.181,0.295,0.311,0.643,0.391,1.042s0.12,0.835,0.12,1.305V14.927z"/>
	<path fill="#D2D2D2" d="M329.751,15.077c-0.649,0-1.222-0.16-1.718-0.48c-0.494-0.32-0.887-0.725-1.178-1.215v4.74h-1.319V7.097
		h1.17v1.47c0.31-0.48,0.712-0.868,1.208-1.163c0.494-0.295,1.042-0.442,1.643-0.442c0.539,0,1.035,0.11,1.484,0.33
		c0.45,0.22,0.84,0.517,1.17,0.892s0.588,0.808,0.773,1.298c0.184,0.49,0.277,1,0.277,1.53c0,0.56-0.086,1.087-0.256,1.583
		s-0.41,0.925-0.72,1.29c-0.31,0.365-0.681,0.655-1.11,0.87S330.271,15.077,329.751,15.077z M329.346,13.937
		c0.391,0,0.743-0.082,1.059-0.247c0.314-0.165,0.584-0.385,0.81-0.66c0.225-0.275,0.397-0.587,0.517-0.938
		c0.121-0.35,0.181-0.71,0.181-1.08c0-0.39-0.069-0.762-0.21-1.118c-0.141-0.354-0.33-0.665-0.57-0.93s-0.522-0.475-0.848-0.63
		c-0.324-0.155-0.678-0.233-1.057-0.233c-0.24,0-0.488,0.048-0.742,0.143c-0.256,0.095-0.496,0.22-0.721,0.375
		c-0.225,0.155-0.42,0.34-0.585,0.555c-0.165,0.215-0.272,0.442-0.323,0.683v2.235c0.111,0.26,0.25,0.502,0.421,0.728
		c0.17,0.225,0.364,0.42,0.585,0.585c0.22,0.165,0.455,0.295,0.705,0.39S329.076,13.937,329.346,13.937z"/>
	<path fill="#D2D2D2" d="M334.911,3.977h1.319v8.925c0,0.29,0.078,0.518,0.232,0.683c0.155,0.165,0.373,0.247,0.652,0.247
		c0.111,0,0.24-0.017,0.391-0.052s0.29-0.077,0.42-0.127l0.21,1.065c-0.22,0.09-0.479,0.165-0.78,0.225
		c-0.299,0.06-0.564,0.09-0.795,0.09c-0.51,0-0.912-0.145-1.207-0.435s-0.442-0.695-0.442-1.215V3.977z"/>
	<path fill="#D2D2D2" d="M342.636,15.077c-0.59,0-1.13-0.107-1.62-0.322s-0.91-0.507-1.26-0.877s-0.623-0.803-0.817-1.298
		c-0.194-0.495-0.292-1.017-0.292-1.567c0-0.55,0.098-1.07,0.292-1.56c0.194-0.49,0.47-0.92,0.825-1.29
		c0.354-0.37,0.777-0.662,1.268-0.877c0.49-0.215,1.029-0.322,1.619-0.322s1.128,0.11,1.613,0.33
		c0.484,0.22,0.896,0.512,1.237,0.877c0.34,0.365,0.603,0.79,0.788,1.275c0.184,0.485,0.277,0.988,0.277,1.507
		c0,0.11-0.003,0.21-0.008,0.3c-0.006,0.09-0.013,0.16-0.022,0.21h-6.495c0.029,0.39,0.12,0.745,0.27,1.065
		c0.15,0.32,0.346,0.595,0.586,0.825c0.239,0.23,0.512,0.41,0.816,0.54c0.306,0.13,0.628,0.195,0.969,0.195
		c0.239,0,0.475-0.033,0.704-0.098s0.444-0.152,0.646-0.263c0.199-0.11,0.377-0.245,0.532-0.405c0.155-0.16,0.272-0.34,0.353-0.54
		l1.141,0.315c-0.131,0.29-0.309,0.555-0.533,0.795c-0.225,0.24-0.485,0.448-0.779,0.623c-0.296,0.175-0.623,0.313-0.983,0.413
		S343.025,15.077,342.636,15.077z M345.32,10.487c-0.029-0.37-0.122-0.712-0.277-1.027c-0.154-0.315-0.35-0.583-0.584-0.803
		c-0.236-0.22-0.508-0.392-0.818-0.518c-0.31-0.125-0.64-0.188-0.99-0.188c-0.35,0-0.68,0.062-0.989,0.188
		c-0.31,0.125-0.583,0.3-0.817,0.525c-0.235,0.225-0.426,0.493-0.57,0.803s-0.232,0.65-0.263,1.02H345.32z"/>
	<path fill="#D2D2D2" d="M350.781,15.077c-0.631,0-1.25-0.097-1.86-0.292c-0.61-0.195-1.136-0.478-1.575-0.848l0.57-0.885
		c0.459,0.35,0.92,0.613,1.38,0.788s0.944,0.262,1.454,0.262c0.57,0,1.023-0.112,1.358-0.337s0.503-0.542,0.503-0.953
		c0-0.189-0.045-0.352-0.136-0.487c-0.09-0.135-0.226-0.252-0.405-0.353c-0.18-0.1-0.41-0.19-0.689-0.27
		c-0.28-0.08-0.605-0.165-0.975-0.255c-0.471-0.12-0.875-0.235-1.215-0.345c-0.341-0.11-0.621-0.24-0.841-0.39
		c-0.22-0.15-0.38-0.33-0.479-0.54c-0.101-0.21-0.15-0.47-0.15-0.78c0-0.39,0.077-0.737,0.232-1.042
		c0.154-0.305,0.367-0.56,0.638-0.765s0.587-0.36,0.952-0.465s0.758-0.157,1.178-0.157c0.59,0,1.141,0.095,1.65,0.285
		c0.51,0.19,0.939,0.44,1.289,0.75l-0.6,0.795c-0.33-0.29-0.699-0.508-1.109-0.653c-0.41-0.145-0.83-0.217-1.26-0.217
		c-0.48,0-0.889,0.103-1.223,0.308c-0.336,0.205-0.503,0.532-0.503,0.982c0,0.18,0.032,0.33,0.097,0.45
		c0.065,0.12,0.174,0.225,0.323,0.315c0.149,0.09,0.343,0.17,0.577,0.24c0.235,0.07,0.518,0.145,0.848,0.225
		c0.52,0.12,0.973,0.243,1.357,0.367c0.385,0.125,0.705,0.273,0.961,0.443c0.254,0.17,0.444,0.37,0.569,0.6
		c0.125,0.23,0.188,0.51,0.188,0.84c0,0.73-0.28,1.31-0.84,1.74C352.485,14.862,351.73,15.077,350.781,15.077z"/>
</g>
<g>
	<path fill="#D2D2D2" d="M70.71,44.035l2.184,2.856l0.112,0.21l0.111-0.21l2.185-2.856h1.021l-2.786,3.668l2.786,3.626h-1.021
		l-2.185-2.842l-0.111-0.196l-0.112,0.196l-2.184,2.842h-1.022l2.786-3.626l-2.786-3.668H70.71z"/>
	<path fill="#D2D2D2" d="M80.72,46.485c0-0.476,0.051-0.945,0.153-1.407c0.104-0.462,0.243-0.919,0.421-1.372
		c0.177-0.453,0.385-0.905,0.623-1.358c0.237-0.453,0.492-0.908,0.763-1.365l0.728,0.35c-0.187,0.28-0.385,0.625-0.595,1.036
		s-0.403,0.85-0.581,1.316c-0.178,0.467-0.324,0.945-0.441,1.435c-0.116,0.49-0.175,0.959-0.175,1.407
		c0,0.728,0.159,1.523,0.477,2.387s0.751,1.715,1.302,2.555l-0.714,0.378c-0.588-0.877-1.062-1.766-1.421-2.667
		S80.72,47.381,80.72,46.485z"/>
	<path fill="#D2D2D2" d="M87.762,51.469c-0.532,0-1.018-0.101-1.456-0.301s-0.819-0.474-1.142-0.819
		c-0.321-0.345-0.571-0.747-0.749-1.204c-0.177-0.457-0.266-0.938-0.266-1.442c0-0.513,0.091-0.999,0.273-1.456
		c0.182-0.457,0.434-0.858,0.756-1.204c0.322-0.345,0.702-0.621,1.141-0.826c0.438-0.206,0.919-0.308,1.442-0.308
		c0.522,0,1.006,0.103,1.449,0.308c0.442,0.205,0.825,0.48,1.147,0.826c0.322,0.346,0.574,0.747,0.756,1.204
		c0.183,0.458,0.273,0.943,0.273,1.456c0,0.504-0.089,0.985-0.267,1.442c-0.177,0.458-0.427,0.859-0.749,1.204
		c-0.321,0.345-0.704,0.618-1.147,0.819S88.294,51.469,87.762,51.469z M85.115,47.717c0,0.411,0.07,0.791,0.21,1.141
		c0.141,0.35,0.329,0.658,0.567,0.924s0.518,0.474,0.84,0.623s0.665,0.224,1.029,0.224s0.707-0.077,1.028-0.231
		c0.322-0.154,0.604-0.364,0.848-0.63c0.242-0.266,0.434-0.576,0.574-0.931c0.14-0.354,0.21-0.737,0.21-1.148
		c0-0.401-0.07-0.781-0.21-1.141c-0.141-0.359-0.332-0.672-0.574-0.938c-0.243-0.266-0.525-0.476-0.848-0.63
		c-0.321-0.154-0.664-0.231-1.028-0.231s-0.705,0.077-1.022,0.231c-0.317,0.154-0.597,0.367-0.84,0.637s-0.434,0.586-0.574,0.945
		C85.186,46.921,85.115,47.307,85.115,47.717z"/>
	<path fill="#D2D2D2" d="M96.624,44.875c-0.645,0.019-1.204,0.196-1.681,0.532c-0.476,0.336-0.812,0.798-1.008,1.386v4.536h-0.952
		v-7.294h0.896v1.75c0.271-0.56,0.635-0.999,1.092-1.316s0.947-0.476,1.47-0.476c0.075,0,0.136,0.005,0.183,0.014V44.875z"/>
	<path fill="#D2D2D2" d="M101.747,44.035h0.882l-0.364,1.652c0.393-0.55,0.852-0.984,1.38-1.302
		c0.526-0.317,1.065-0.476,1.616-0.476c0.561,0,0.978,0.166,1.253,0.497c0.275,0.331,0.413,0.8,0.413,1.407
		c0.411-0.625,0.885-1.099,1.421-1.421c0.537-0.322,1.085-0.483,1.646-0.483c0.588,0,1.006,0.159,1.253,0.476
		s0.371,0.756,0.371,1.316c0,0.401-0.056,0.854-0.168,1.358l-0.91,4.27h-0.952l0.854-4.074c0.046-0.214,0.081-0.417,0.104-0.609
		c0.023-0.191,0.035-0.366,0.035-0.525c0-0.896-0.369-1.344-1.106-1.344c-0.261,0-0.52,0.051-0.776,0.154s-0.502,0.248-0.735,0.434
		s-0.45,0.408-0.65,0.665c-0.201,0.257-0.376,0.539-0.525,0.847l-0.938,4.452h-0.951l0.854-4.074
		c0.047-0.233,0.084-0.445,0.112-0.637c0.027-0.191,0.042-0.366,0.042-0.525c0-0.877-0.369-1.316-1.106-1.316
		c-0.522,0-1.026,0.191-1.512,0.574c-0.485,0.383-0.882,0.887-1.19,1.512l-0.938,4.466h-0.952L101.747,44.035z"/>
	<path fill="#D2D2D2" d="M113.577,52.463l0.238-1.176h-0.322v-1.33h0.924v1.33l-0.35,1.176H113.577z"/>
	<path fill="#D2D2D2" d="M123.293,51.469c-0.532,0-1.02-0.101-1.463-0.301s-0.829-0.476-1.155-0.826
		c-0.327-0.35-0.581-0.754-0.763-1.211c-0.183-0.457-0.273-0.947-0.273-1.47c0-0.513,0.091-0.996,0.273-1.449
		c0.182-0.453,0.434-0.849,0.756-1.19c0.322-0.34,0.707-0.611,1.155-0.812c0.447-0.201,0.933-0.301,1.455-0.301
		c0.532,0,1.021,0.1,1.464,0.301c0.442,0.201,0.823,0.474,1.141,0.819s0.564,0.742,0.742,1.19c0.177,0.448,0.266,0.924,0.266,1.428
		c0,0.075,0,0.149,0,0.224s-0.005,0.126-0.014,0.154h-6.244c0.028,0.392,0.119,0.754,0.273,1.085
		c0.153,0.332,0.352,0.619,0.595,0.861c0.242,0.243,0.52,0.432,0.833,0.567c0.312,0.135,0.646,0.203,1.001,0.203
		c0.233,0,0.467-0.033,0.7-0.098c0.232-0.065,0.447-0.154,0.644-0.266c0.196-0.112,0.373-0.25,0.532-0.413
		c0.158-0.163,0.28-0.343,0.364-0.539l0.825,0.224c-0.111,0.271-0.271,0.516-0.476,0.735s-0.443,0.411-0.714,0.574
		c-0.271,0.164-0.569,0.29-0.896,0.378C123.988,51.425,123.647,51.469,123.293,51.469z M125.98,47.297
		c-0.027-0.392-0.119-0.749-0.272-1.071c-0.154-0.322-0.351-0.6-0.588-0.833c-0.238-0.233-0.514-0.415-0.826-0.546
		s-0.646-0.196-1.001-0.196c-0.355,0-0.691,0.065-1.008,0.196c-0.317,0.131-0.596,0.313-0.833,0.546
		c-0.238,0.233-0.43,0.514-0.574,0.84c-0.145,0.327-0.231,0.682-0.259,1.064H125.98z"/>
	<path fill="#D2D2D2" d="M131.805,50.979c-0.056,0.028-0.138,0.065-0.245,0.112c-0.107,0.046-0.23,0.093-0.371,0.14
		c-0.14,0.047-0.299,0.089-0.476,0.126c-0.178,0.038-0.364,0.056-0.56,0.056c-0.206,0-0.401-0.028-0.589-0.084
		c-0.187-0.056-0.35-0.142-0.489-0.259c-0.141-0.117-0.252-0.264-0.336-0.441c-0.084-0.177-0.126-0.382-0.126-0.616v-5.222h-1.009
		v-0.756h1.009v-2.464h0.951v2.464h1.681v0.756h-1.681v4.956c0.019,0.271,0.114,0.469,0.287,0.595s0.371,0.189,0.596,0.189
		c0.271,0,0.508-0.044,0.714-0.133c0.205-0.088,0.336-0.151,0.392-0.189L131.805,50.979z"/>
	<path fill="#D2D2D2" d="M132.309,47.661c0-0.513,0.089-0.999,0.266-1.456c0.178-0.457,0.428-0.856,0.749-1.197
		c0.322-0.341,0.707-0.609,1.155-0.805s0.942-0.294,1.484-0.294c0.69,0,1.292,0.156,1.806,0.469c0.514,0.313,0.9,0.735,1.162,1.267
		l-0.924,0.294c-0.205-0.373-0.492-0.665-0.861-0.875c-0.368-0.21-0.776-0.315-1.225-0.315c-0.374,0-0.722,0.075-1.043,0.224
		c-0.322,0.149-0.603,0.353-0.84,0.609c-0.238,0.257-0.425,0.562-0.561,0.917c-0.135,0.355-0.203,0.742-0.203,1.162
		c0,0.411,0.07,0.798,0.21,1.162c0.141,0.364,0.331,0.679,0.574,0.945s0.525,0.476,0.847,0.63c0.322,0.154,0.665,0.231,1.029,0.231
		c0.233,0,0.464-0.032,0.693-0.098c0.229-0.065,0.44-0.156,0.637-0.273s0.364-0.25,0.504-0.399c0.141-0.149,0.238-0.308,0.294-0.476
		l0.938,0.28c-0.104,0.261-0.252,0.502-0.448,0.721s-0.427,0.411-0.693,0.574c-0.266,0.164-0.56,0.29-0.882,0.378
		c-0.322,0.089-0.655,0.133-1.001,0.133c-0.532,0-1.021-0.101-1.47-0.301s-0.836-0.476-1.162-0.826
		c-0.327-0.35-0.581-0.754-0.763-1.211C132.399,48.674,132.309,48.184,132.309,47.661z"/>
	<path fill="#D2D2D2" d="M143.929,51.329v-1.372h0.826v1.372H143.929z"/>
	<path fill="#D2D2D2" d="M146.574,51.329v-1.372h0.826v1.372H146.574z"/>
	<path fill="#D2D2D2" d="M151.446,46.485c0,0.896-0.177,1.794-0.532,2.695c-0.354,0.901-0.83,1.79-1.428,2.667l-0.7-0.378
		c0.271-0.42,0.516-0.845,0.735-1.274s0.406-0.856,0.561-1.281c0.153-0.424,0.272-0.837,0.356-1.239s0.126-0.784,0.126-1.148
		c0-0.448-0.059-0.917-0.175-1.407c-0.117-0.49-0.264-0.968-0.441-1.435c-0.177-0.466-0.371-0.905-0.581-1.316
		s-0.413-0.756-0.608-1.036l0.742-0.35c0.271,0.458,0.524,0.913,0.763,1.365s0.443,0.905,0.616,1.358
		c0.172,0.453,0.31,0.91,0.413,1.372C151.396,45.54,151.446,46.009,151.446,46.485z"/>
	<path fill="#D2D2D2" d="M152.973,51.329v-1.372h0.826v1.372H152.973z"/>
</g>
<g>
	<path fill="#D2D2D2" d="M69.482,42.77v-0.806h4.953v0.806H69.482z"/>
</g>
<g>
	<path fill="#D2D2D2" d="M364.437,42.338l2.002,2.688l0.112,0.224l0.126-0.224l1.988-2.688h1.302l-2.73,3.668l2.744,3.64h-1.302
		l-2.002-2.674l-0.126-0.21l-0.112,0.21l-2.002,2.674h-1.302l2.744-3.64l-2.73-3.668H364.437z"/>
	<path fill="#D2D2D2" d="M373.625,53.656v0.653h-2.93v-0.653h1.159v-3.183c-0.049,0.065-0.125,0.134-0.229,0.208
		c-0.104,0.073-0.22,0.142-0.347,0.204c-0.128,0.062-0.261,0.116-0.396,0.159s-0.256,0.065-0.359,0.065v-0.686
		c0.12,0,0.254-0.034,0.4-0.102c0.146-0.068,0.287-0.147,0.42-0.236c0.134-0.09,0.248-0.177,0.343-0.261
		c0.096-0.084,0.151-0.143,0.168-0.176h0.734v4.008H373.625z"/>
</g>
<g>
	<path fill="#D2D2D2" d="M363.53,40.087v-0.806h4.953v0.806H363.53z"/>
</g>
<g>
	<path fill="#D2D2D2" d="M364.296,93.868l2.002,2.688l0.112,0.224l0.126-0.224l1.988-2.688h1.302l-2.73,3.668l2.744,3.64h-1.302
		l-2.002-2.674l-0.126-0.21l-0.112,0.21l-2.002,2.674h-1.302l2.744-3.64l-2.73-3.668H364.296z"/>
	<path fill="#D2D2D2" d="M370.358,105.838c0-0.218,0.018-0.421,0.054-0.612c0.035-0.19,0.102-0.373,0.199-0.547
		c0.099-0.174,0.233-0.34,0.404-0.498c0.172-0.158,0.396-0.315,0.674-0.474c0.163-0.087,0.329-0.172,0.498-0.257
		c0.168-0.084,0.322-0.174,0.461-0.27s0.253-0.197,0.343-0.306s0.135-0.237,0.135-0.383c0-0.093-0.022-0.185-0.065-0.278
		c-0.044-0.092-0.106-0.174-0.188-0.245c-0.082-0.071-0.184-0.128-0.307-0.171c-0.122-0.043-0.263-0.065-0.42-0.065
		c-0.163,0-0.312,0.023-0.445,0.069c-0.133,0.046-0.252,0.104-0.354,0.171c-0.104,0.068-0.193,0.14-0.27,0.216
		s-0.139,0.144-0.188,0.204l-0.466-0.522c0.044-0.049,0.117-0.115,0.221-0.2s0.233-0.17,0.392-0.257s0.34-0.162,0.547-0.225
		c0.207-0.062,0.438-0.094,0.693-0.094c0.251,0,0.477,0.034,0.678,0.102c0.201,0.068,0.371,0.162,0.511,0.282
		c0.139,0.12,0.246,0.26,0.322,0.42c0.076,0.16,0.114,0.331,0.114,0.51c0,0.212-0.047,0.397-0.139,0.555
		c-0.093,0.158-0.206,0.297-0.339,0.417c-0.134,0.12-0.276,0.222-0.429,0.306c-0.152,0.084-0.288,0.157-0.408,0.216
		c-0.12,0.06-0.254,0.132-0.404,0.216c-0.149,0.084-0.292,0.18-0.428,0.286c-0.137,0.106-0.255,0.225-0.355,0.355
		c-0.101,0.13-0.165,0.272-0.191,0.424h2.783v0.653H370.358z"/>
</g>
<g>
	<path fill="#D2D2D2" d="M363.39,91.617v-0.806h4.953v0.806H363.39z"/>
</g>
<g>
	<path fill="#D2D2D2" d="M364.577,133.887l2.002,2.688l0.112,0.225l0.126-0.225l1.988-2.688h1.302l-2.73,3.668l2.744,3.641h-1.302
		l-2.002-2.674l-0.126-0.211l-0.112,0.211l-2.002,2.674h-1.302l2.744-3.641l-2.73-3.668H364.577z"/>
	<path fill="#D2D2D2" d="M373.211,143.931c0.349,0.06,0.625,0.22,0.828,0.481c0.204,0.262,0.307,0.585,0.307,0.971
		c0,0.251-0.047,0.479-0.139,0.687c-0.093,0.206-0.225,0.384-0.396,0.53c-0.171,0.146-0.376,0.26-0.616,0.339
		c-0.239,0.079-0.506,0.118-0.8,0.118c-0.413,0-0.776-0.078-1.089-0.232c-0.313-0.155-0.557-0.374-0.73-0.657l0.481-0.481
		c0.125,0.223,0.294,0.398,0.506,0.526s0.489,0.192,0.832,0.192c0.376,0,0.671-0.085,0.886-0.254
		c0.215-0.168,0.322-0.424,0.322-0.768c0-0.342-0.115-0.615-0.347-0.819s-0.567-0.306-1.008-0.306h-0.212v-0.604h0.229
		c0.392,0,0.692-0.094,0.901-0.282c0.21-0.188,0.314-0.426,0.314-0.714s-0.101-0.503-0.302-0.645
		c-0.202-0.142-0.455-0.212-0.76-0.212c-0.299,0-0.562,0.063-0.787,0.191s-0.401,0.307-0.526,0.535l-0.441-0.457
		c0.071-0.137,0.168-0.26,0.29-0.372c0.123-0.111,0.264-0.208,0.425-0.29c0.16-0.081,0.334-0.144,0.522-0.188
		c0.188-0.043,0.385-0.064,0.592-0.064c0.255,0,0.49,0.035,0.706,0.105c0.215,0.07,0.399,0.169,0.555,0.294s0.274,0.277,0.359,0.457
		c0.084,0.18,0.126,0.378,0.126,0.596c0,0.163-0.023,0.318-0.069,0.466c-0.046,0.146-0.114,0.279-0.204,0.399
		s-0.198,0.22-0.326,0.298C373.512,143.851,373.369,143.903,373.211,143.931z"/>
</g>
<g>
	<path fill="#D2D2D2" d="M363.671,131.636v-0.806h4.953v0.806H363.671z"/>
</g>
<g>
	<path fill="#D2D2D2" d="M365.577,207.057l2.002,2.688l0.112,0.225l0.126-0.225l1.988-2.688h1.302l-2.73,3.668l2.744,3.641h-1.302
		l-2.002-2.674l-0.126-0.211l-0.112,0.211l-2.002,2.674h-1.302l2.744-3.641l-2.73-3.668H365.577z"/>
	<path fill="#D2D2D2" d="M374.766,218.374v0.653h-2.93v-0.653h1.159v-3.183c-0.049,0.064-0.125,0.134-0.229,0.207
		c-0.104,0.074-0.22,0.143-0.347,0.205c-0.128,0.062-0.261,0.115-0.396,0.158c-0.136,0.044-0.256,0.065-0.359,0.065v-0.686
		c0.12,0,0.254-0.034,0.4-0.103c0.146-0.067,0.287-0.146,0.42-0.236c0.134-0.09,0.248-0.176,0.343-0.261
		c0.096-0.085,0.151-0.144,0.168-0.176h0.734v4.008H374.766z"/>
	<path fill="#D2D2D2" d="M379.532,216.635c0,0.359-0.052,0.69-0.154,0.992c-0.104,0.303-0.248,0.563-0.433,0.783
		c-0.186,0.221-0.404,0.393-0.657,0.515s-0.526,0.184-0.82,0.184c-0.3,0-0.575-0.062-0.828-0.184
		c-0.254-0.122-0.471-0.294-0.653-0.515c-0.183-0.22-0.325-0.48-0.429-0.783c-0.104-0.302-0.155-0.633-0.155-0.992
		c0-0.358,0.052-0.689,0.155-0.991s0.246-0.563,0.429-0.783c0.183-0.221,0.399-0.394,0.653-0.519
		c0.253-0.125,0.528-0.188,0.828-0.188c0.294,0,0.567,0.062,0.82,0.188s0.472,0.298,0.657,0.519c0.185,0.22,0.329,0.481,0.433,0.783
		C379.48,215.945,379.532,216.276,379.532,216.635z M378.807,216.635c0-0.266-0.033-0.511-0.099-0.734
		c-0.065-0.223-0.157-0.414-0.277-0.575c-0.12-0.16-0.261-0.284-0.425-0.371c-0.163-0.087-0.343-0.131-0.538-0.131
		c-0.201,0-0.385,0.044-0.551,0.131s-0.308,0.211-0.425,0.371c-0.117,0.161-0.208,0.353-0.273,0.575
		c-0.065,0.224-0.098,0.469-0.098,0.734c0,0.273,0.032,0.52,0.098,0.739s0.156,0.409,0.273,0.567s0.259,0.28,0.425,0.367
		s0.35,0.131,0.551,0.131c0.195,0,0.375-0.044,0.538-0.131c0.164-0.087,0.305-0.209,0.425-0.367s0.212-0.348,0.277-0.567
		S378.807,216.908,378.807,216.635z"/>
	<path fill="#D2D2D2" d="M384.544,216.635c0,0.359-0.052,0.69-0.154,0.992c-0.104,0.303-0.248,0.563-0.433,0.783
		c-0.186,0.221-0.404,0.393-0.657,0.515s-0.526,0.184-0.82,0.184c-0.3,0-0.575-0.062-0.828-0.184
		c-0.254-0.122-0.471-0.294-0.653-0.515c-0.183-0.22-0.325-0.48-0.429-0.783c-0.104-0.302-0.155-0.633-0.155-0.992
		c0-0.358,0.052-0.689,0.155-0.991s0.246-0.563,0.429-0.783c0.183-0.221,0.399-0.394,0.653-0.519
		c0.253-0.125,0.528-0.188,0.828-0.188c0.294,0,0.567,0.062,0.82,0.188s0.472,0.298,0.657,0.519c0.185,0.22,0.329,0.481,0.433,0.783
		C384.492,215.945,384.544,216.276,384.544,216.635z M383.818,216.635c0-0.266-0.033-0.511-0.099-0.734
		c-0.065-0.223-0.157-0.414-0.277-0.575c-0.12-0.16-0.261-0.284-0.425-0.371c-0.163-0.087-0.343-0.131-0.538-0.131
		c-0.201,0-0.385,0.044-0.551,0.131s-0.308,0.211-0.425,0.371c-0.117,0.161-0.208,0.353-0.273,0.575
		c-0.065,0.224-0.098,0.469-0.098,0.734c0,0.273,0.032,0.52,0.098,0.739s0.156,0.409,0.273,0.567s0.259,0.28,0.425,0.367
		s0.35,0.131,0.551,0.131c0.195,0,0.375-0.044,0.538-0.131c0.164-0.087,0.305-0.209,0.425-0.367s0.212-0.348,0.277-0.567
		S383.818,216.908,383.818,216.635z"/>
	<path fill="#D2D2D2" d="M389.556,216.635c0,0.359-0.052,0.69-0.154,0.992c-0.104,0.303-0.248,0.563-0.433,0.783
		c-0.186,0.221-0.404,0.393-0.657,0.515s-0.526,0.184-0.82,0.184c-0.3,0-0.575-0.062-0.828-0.184
		c-0.254-0.122-0.471-0.294-0.653-0.515c-0.183-0.22-0.325-0.48-0.429-0.783c-0.104-0.302-0.155-0.633-0.155-0.992
		c0-0.358,0.052-0.689,0.155-0.991s0.246-0.563,0.429-0.783c0.183-0.221,0.399-0.394,0.653-0.519
		c0.253-0.125,0.528-0.188,0.828-0.188c0.294,0,0.567,0.062,0.82,0.188s0.472,0.298,0.657,0.519c0.185,0.22,0.329,0.481,0.433,0.783
		C389.504,215.945,389.556,216.276,389.556,216.635z M388.83,216.635c0-0.266-0.033-0.511-0.099-0.734
		c-0.065-0.223-0.157-0.414-0.277-0.575c-0.12-0.16-0.261-0.284-0.425-0.371c-0.163-0.087-0.343-0.131-0.538-0.131
		c-0.201,0-0.385,0.044-0.551,0.131s-0.308,0.211-0.425,0.371c-0.117,0.161-0.208,0.353-0.273,0.575
		c-0.065,0.224-0.098,0.469-0.098,0.734c0,0.273,0.032,0.52,0.098,0.739s0.156,0.409,0.273,0.567s0.259,0.28,0.425,0.367
		s0.35,0.131,0.551,0.131c0.195,0,0.375-0.044,0.538-0.131c0.164-0.087,0.305-0.209,0.425-0.367s0.212-0.348,0.277-0.567
		S388.83,216.908,388.83,216.635z"/>
	<path fill="#D2D2D2" d="M394.566,216.635c0,0.359-0.052,0.69-0.154,0.992c-0.104,0.303-0.248,0.563-0.433,0.783
		c-0.186,0.221-0.404,0.393-0.657,0.515s-0.526,0.184-0.82,0.184c-0.3,0-0.575-0.062-0.828-0.184
		c-0.254-0.122-0.471-0.294-0.653-0.515c-0.183-0.22-0.325-0.48-0.429-0.783c-0.104-0.302-0.155-0.633-0.155-0.992
		c0-0.358,0.052-0.689,0.155-0.991s0.246-0.563,0.429-0.783c0.183-0.221,0.399-0.394,0.653-0.519
		c0.253-0.125,0.528-0.188,0.828-0.188c0.294,0,0.567,0.062,0.82,0.188s0.472,0.298,0.657,0.519c0.185,0.22,0.329,0.481,0.433,0.783
		C394.515,215.945,394.566,216.276,394.566,216.635z M393.841,216.635c0-0.266-0.033-0.511-0.099-0.734
		c-0.065-0.223-0.157-0.414-0.277-0.575c-0.12-0.16-0.261-0.284-0.425-0.371c-0.163-0.087-0.343-0.131-0.538-0.131
		c-0.201,0-0.385,0.044-0.551,0.131s-0.308,0.211-0.425,0.371c-0.117,0.161-0.208,0.353-0.273,0.575
		c-0.065,0.224-0.098,0.469-0.098,0.734c0,0.273,0.032,0.52,0.098,0.739s0.156,0.409,0.273,0.567s0.259,0.28,0.425,0.367
		s0.35,0.131,0.551,0.131c0.195,0,0.375-0.044,0.538-0.131c0.164-0.087,0.305-0.209,0.425-0.367s0.212-0.348,0.277-0.567
		S393.841,216.908,393.841,216.635z"/>
</g>
<g>
	<path fill="#D2D2D2" d="M364.671,204.806V204h4.953v0.806H364.671z"/>
</g>
<g>
</g>
<g>
</g>
<g>
</g>
<g>
</g>
<g>
</g>
<g>
</g>
</svg>
