<?xml version="1.0" encoding="utf-8" standalone="no"?>
<!DOCTYPE svg PUBLIC "-//W3C//DTD SVG 1.1//EN"
  "http://www.w3.org/Graphics/SVG/1.1/DTD/svg11.dtd">
<!-- Created with matplotlib (http://matplotlib.org/) -->
<svg height="144pt" version="1.1" viewBox="0 0 216 144" width="216pt" xmlns="http://www.w3.org/2000/svg" xmlns:xlink="http://www.w3.org/1999/xlink">
 <defs>
  <style type="text/css">
*{stroke-linecap:butt;stroke-linejoin:round;}
  </style>
 </defs>
 <g id="figure_1">
  <g id="patch_1">
   <path d="M 0 144 
L 216 144 
L 216 0 
L 0 0 
z
" style="fill:none;"/>
  </g>
  <g id="axes_1">
   <g id="patch_2">
    <path d="M 43.2 115.2 
L 205.2 115.2 
L 205.2 7.2 
L 43.2 7.2 
z
" style="fill:none;"/>
   </g>
   <g id="PolyCollection_1">
    <defs>
     <path d="M 50.563636 -129.806929 
L 50.563636 -119.138282 
L 53.569202 -117.687661 
L 56.574768 -116.207275 
L 59.580334 -114.754693 
L 62.5859 -113.268079 
L 65.591466 -111.79418 
L 68.597032 -110.334514 
L 71.602597 -108.85713 
L 74.608163 -107.36752 
L 77.613729 -105.88386 
L 80.619295 -104.407372 
L 83.624861 -102.914352 
L 86.630427 -101.398197 
L 89.635993 -99.901954 
L 92.641558 -98.409353 
L 95.647124 -96.87821 
L 98.65269 -95.382215 
L 101.658256 -93.860452 
L 104.663822 -92.28923 
L 107.669388 -90.740746 
L 110.674954 -89.191442 
L 113.680519 -87.634713 
L 116.686085 -86.066393 
L 119.691651 -84.489591 
L 122.697217 -82.881843 
L 125.702783 -81.242311 
L 128.708349 -79.606286 
L 131.713915 -77.939428 
L 134.719481 -76.304345 
L 137.725046 -74.642089 
L 140.730612 -72.944784 
L 143.736178 -71.242871 
L 146.741744 -69.538062 
L 149.74731 -67.803939 
L 152.752876 -66.070664 
L 155.758442 -64.339686 
L 158.764007 -62.608293 
L 161.769573 -60.869151 
L 164.775139 -59.129877 
L 167.780705 -57.364929 
L 170.786271 -55.583009 
L 173.791837 -53.808173 
L 176.797403 -52.047388 
L 179.802968 -50.246823 
L 182.808534 -48.471439 
L 185.8141 -46.69681 
L 188.819666 -44.901729 
L 191.825232 -43.131123 
L 194.830798 -41.350603 
L 197.836364 -39.558873 
L 197.836364 -50.176761 
L 197.836364 -50.176761 
L 194.830798 -51.63469 
L 191.825232 -53.106302 
L 188.819666 -54.566842 
L 185.8141 -56.066585 
L 182.808534 -57.53682 
L 179.802968 -59.017904 
L 176.797403 -60.498782 
L 173.791837 -61.966075 
L 170.786271 -63.47238 
L 167.780705 -64.951279 
L 164.775139 -66.441249 
L 161.769573 -67.950304 
L 158.764007 -69.454422 
L 155.758442 -70.961939 
L 152.752876 -72.492185 
L 149.74731 -73.991895 
L 146.741744 -75.520779 
L 143.736178 -77.081001 
L 140.730612 -78.641262 
L 137.725046 -80.224472 
L 134.719481 -81.805515 
L 131.713915 -83.396323 
L 128.708349 -84.989505 
L 125.702783 -86.601365 
L 122.697217 -88.222747 
L 119.691651 -89.86953 
L 116.686085 -91.529122 
L 113.680519 -93.190936 
L 110.674954 -94.863871 
L 107.669388 -96.568574 
L 104.663822 -98.260559 
L 101.658256 -99.975041 
L 98.65269 -101.707724 
L 95.647124 -103.425485 
L 92.641558 -105.143142 
L 89.635993 -106.872694 
L 86.630427 -108.615286 
L 83.624861 -110.37599 
L 80.619295 -112.104623 
L 77.613729 -113.847577 
L 74.608163 -115.593291 
L 71.602597 -117.361871 
L 68.597032 -119.12956 
L 65.591466 -120.881439 
L 62.5859 -122.663398 
L 59.580334 -124.43685 
L 56.574768 -126.227132 
L 53.569202 -128.015911 
L 50.563636 -129.806929 
z
" id="mda2154ebe0" style="stroke:#d9534f;stroke-opacity:0.5;"/>
    </defs>
    <g clip-path="url(#p1547aea2b7)">
     <use style="fill:#d9534f;fill-opacity:0.5;stroke:#d9534f;stroke-opacity:0.5;" x="0" xlink:href="#mda2154ebe0" y="144"/>
    </g>
   </g>
   <g id="matplotlib.axis_1">
    <g id="xtick_1">
     <g id="line2d_1">
      <defs>
       <path d="M 0 0 
L 0 4 
" id="m153c273803" style="stroke:#d2d2d2;"/>
      </defs>
      <g>
       <use style="fill:#d2d2d2;stroke:#d2d2d2;" x="78.177273" xlink:href="#m153c273803" y="115.2"/>
      </g>
     </g>
     <g id="text_1">
      <!-- −5 -->
      <defs>
       <path d="M 10.59375 35.5 
L 73.1875 35.5 
L 73.1875 27.203125 
L 10.59375 27.203125 
z
" id="DejaVuSans-2212"/>
       <path d="M 10.796875 72.90625 
L 49.515625 72.90625 
L 49.515625 64.59375 
L 19.828125 64.59375 
L 19.828125 46.734375 
Q 21.96875 47.46875 24.109375 47.828125 
Q 26.265625 48.1875 28.421875 48.1875 
Q 40.625 48.1875 47.75 41.5 
Q 54.890625 34.8125 54.890625 23.390625 
Q 54.890625 11.625 47.5625 5.09375 
Q 40.234375 -1.421875 26.90625 -1.421875 
Q 22.3125 -1.421875 17.546875 -0.640625 
Q 12.796875 0.140625 7.71875 1.703125 
L 7.71875 11.625 
Q 12.109375 9.234375 16.796875 8.0625 
Q 21.484375 6.890625 26.703125 6.890625 
Q 35.15625 6.890625 40.078125 11.328125 
Q 45.015625 15.765625 45.015625 23.390625 
Q 45.015625 31 40.078125 35.4375 
Q 35.15625 39.890625 26.703125 39.890625 
Q 22.75 39.890625 18.8125 39.015625 
Q 14.890625 38.140625 10.796875 36.28125 
z
" id="DejaVuSans-35"/>
      </defs>
      <g style="fill:#d2d2d2;" transform="translate(72.280398 127.27875)scale(0.08 -0.08)">
       <use xlink:href="#DejaVuSans-2212"/>
       <use x="83.789062" xlink:href="#DejaVuSans-35"/>
      </g>
     </g>
    </g>
    <g id="xtick_2">
     <g id="line2d_2">
      <g>
       <use style="fill:#d2d2d2;stroke:#d2d2d2;" x="124.2" xlink:href="#m153c273803" y="115.2"/>
      </g>
     </g>
     <g id="text_2">
      <!-- 0 -->
      <defs>
       <path d="M 31.78125 66.40625 
Q 24.171875 66.40625 20.328125 58.90625 
Q 16.5 51.421875 16.5 36.375 
Q 16.5 21.390625 20.328125 13.890625 
Q 24.171875 6.390625 31.78125 6.390625 
Q 39.453125 6.390625 43.28125 13.890625 
Q 47.125 21.390625 47.125 36.375 
Q 47.125 51.421875 43.28125 58.90625 
Q 39.453125 66.40625 31.78125 66.40625 
M 31.78125 74.21875 
Q 44.046875 74.21875 50.515625 64.515625 
Q 56.984375 54.828125 56.984375 36.375 
Q 56.984375 17.96875 50.515625 8.265625 
Q 44.046875 -1.421875 31.78125 -1.421875 
Q 19.53125 -1.421875 13.0625 8.265625 
Q 6.59375 17.96875 6.59375 36.375 
Q 6.59375 54.828125 13.0625 64.515625 
Q 19.53125 74.21875 31.78125 74.21875 
" id="DejaVuSans-30"/>
      </defs>
      <g style="fill:#d2d2d2;" transform="translate(121.655 127.27875)scale(0.08 -0.08)">
       <use xlink:href="#DejaVuSans-30"/>
      </g>
     </g>
    </g>
    <g id="xtick_3">
     <g id="line2d_3">
      <g>
       <use style="fill:#d2d2d2;stroke:#d2d2d2;" x="170.222727" xlink:href="#m153c273803" y="115.2"/>
      </g>
     </g>
     <g id="text_3">
      <!-- 5 -->
      <g style="fill:#d2d2d2;" transform="translate(167.677727 127.27875)scale(0.08 -0.08)">
       <use xlink:href="#DejaVuSans-35"/>
      </g>
     </g>
    </g>
    <g id="text_4">
     <!-- y values -->
     <defs>
      <path d="M 32.171875 -5.078125 
Q 28.375 -14.84375 24.75 -17.8125 
Q 21.140625 -20.796875 15.09375 -20.796875 
L 7.90625 -20.796875 
L 7.90625 -13.28125 
L 13.1875 -13.28125 
Q 16.890625 -13.28125 18.9375 -11.515625 
Q 21 -9.765625 23.484375 -3.21875 
L 25.09375 0.875 
L 2.984375 54.6875 
L 12.5 54.6875 
L 29.59375 11.921875 
L 46.6875 54.6875 
L 56.203125 54.6875 
z
" id="DejaVuSans-79"/>
      <path id="DejaVuSans-20"/>
      <path d="M 2.984375 54.6875 
L 12.5 54.6875 
L 29.59375 8.796875 
L 46.6875 54.6875 
L 56.203125 54.6875 
L 35.6875 0 
L 23.484375 0 
z
" id="DejaVuSans-76"/>
      <path d="M 34.28125 27.484375 
Q 23.390625 27.484375 19.1875 25 
Q 14.984375 22.515625 14.984375 16.5 
Q 14.984375 11.71875 18.140625 8.90625 
Q 21.296875 6.109375 26.703125 6.109375 
Q 34.1875 6.109375 38.703125 11.40625 
Q 43.21875 16.703125 43.21875 25.484375 
L 43.21875 27.484375 
z
M 52.203125 31.203125 
L 52.203125 0 
L 43.21875 0 
L 43.21875 8.296875 
Q 40.140625 3.328125 35.546875 0.953125 
Q 30.953125 -1.421875 24.3125 -1.421875 
Q 15.921875 -1.421875 10.953125 3.296875 
Q 6 8.015625 6 15.921875 
Q 6 25.140625 12.171875 29.828125 
Q 18.359375 34.515625 30.609375 34.515625 
L 43.21875 34.515625 
L 43.21875 35.40625 
Q 43.21875 41.609375 39.140625 45 
Q 35.0625 48.390625 27.6875 48.390625 
Q 23 48.390625 18.546875 47.265625 
Q 14.109375 46.140625 10.015625 43.890625 
L 10.015625 52.203125 
Q 14.9375 54.109375 19.578125 55.046875 
Q 24.21875 56 28.609375 56 
Q 40.484375 56 46.34375 49.84375 
Q 52.203125 43.703125 52.203125 31.203125 
" id="DejaVuSans-61"/>
      <path d="M 9.421875 75.984375 
L 18.40625 75.984375 
L 18.40625 0 
L 9.421875 0 
z
" id="DejaVuSans-6c"/>
      <path d="M 8.5 21.578125 
L 8.5 54.6875 
L 17.484375 54.6875 
L 17.484375 21.921875 
Q 17.484375 14.15625 20.5 10.265625 
Q 23.53125 6.390625 29.59375 6.390625 
Q 36.859375 6.390625 41.078125 11.03125 
Q 45.3125 15.671875 45.3125 23.6875 
L 45.3125 54.6875 
L 54.296875 54.6875 
L 54.296875 0 
L 45.3125 0 
L 45.3125 8.40625 
Q 42.046875 3.421875 37.71875 1 
Q 33.40625 -1.421875 27.6875 -1.421875 
Q 18.265625 -1.421875 13.375 4.4375 
Q 8.5 10.296875 8.5 21.578125 
M 31.109375 56 
z
" id="DejaVuSans-75"/>
      <path d="M 56.203125 29.59375 
L 56.203125 25.203125 
L 14.890625 25.203125 
Q 15.484375 15.921875 20.484375 11.0625 
Q 25.484375 6.203125 34.421875 6.203125 
Q 39.59375 6.203125 44.453125 7.46875 
Q 49.3125 8.734375 54.109375 11.28125 
L 54.109375 2.78125 
Q 49.265625 0.734375 44.1875 -0.34375 
Q 39.109375 -1.421875 33.890625 -1.421875 
Q 20.796875 -1.421875 13.15625 6.1875 
Q 5.515625 13.8125 5.515625 26.8125 
Q 5.515625 40.234375 12.765625 48.109375 
Q 20.015625 56 32.328125 56 
Q 43.359375 56 49.78125 48.890625 
Q 56.203125 41.796875 56.203125 29.59375 
M 47.21875 32.234375 
Q 47.125 39.59375 43.09375 43.984375 
Q 39.0625 48.390625 32.421875 48.390625 
Q 24.90625 48.390625 20.390625 44.140625 
Q 15.875 39.890625 15.1875 32.171875 
z
" id="DejaVuSans-65"/>
      <path d="M 44.28125 53.078125 
L 44.28125 44.578125 
Q 40.484375 46.53125 36.375 47.5 
Q 32.28125 48.484375 27.875 48.484375 
Q 21.1875 48.484375 17.84375 46.4375 
Q 14.5 44.390625 14.5 40.28125 
Q 14.5 37.15625 16.890625 35.375 
Q 19.28125 33.59375 26.515625 31.984375 
L 29.59375 31.296875 
Q 39.15625 29.25 43.1875 25.515625 
Q 47.21875 21.78125 47.21875 15.09375 
Q 47.21875 7.46875 41.1875 3.015625 
Q 35.15625 -1.421875 24.609375 -1.421875 
Q 20.21875 -1.421875 15.453125 -0.5625 
Q 10.6875 0.296875 5.421875 2 
L 5.421875 11.28125 
Q 10.40625 8.6875 15.234375 7.390625 
Q 20.0625 6.109375 24.8125 6.109375 
Q 31.15625 6.109375 34.5625 8.28125 
Q 37.984375 10.453125 37.984375 14.40625 
Q 37.984375 18.0625 35.515625 20.015625 
Q 33.0625 21.96875 24.703125 23.78125 
L 21.578125 24.515625 
Q 13.234375 26.265625 9.515625 29.90625 
Q 5.8125 33.546875 5.8125 39.890625 
Q 5.8125 47.609375 11.28125 51.796875 
Q 16.75 56 26.8125 56 
Q 31.78125 56 36.171875 55.265625 
Q 40.578125 54.546875 44.28125 53.078125 
" id="DejaVuSans-73"/>
     </defs>
     <g style="fill:#d2d2d2;" transform="translate(103.389062 140.540938)scale(0.1 -0.1)">
      <use xlink:href="#DejaVuSans-79"/>
      <use x="59.179688" xlink:href="#DejaVuSans-20"/>
      <use x="90.966797" xlink:href="#DejaVuSans-76"/>
      <use x="150.146484" xlink:href="#DejaVuSans-61"/>
      <use x="211.425781" xlink:href="#DejaVuSans-6c"/>
      <use x="239.208984" xlink:href="#DejaVuSans-75"/>
      <use x="302.587891" xlink:href="#DejaVuSans-65"/>
      <use x="364.111328" xlink:href="#DejaVuSans-73"/>
     </g>
    </g>
   </g>
   <g id="matplotlib.axis_2">
    <g id="ytick_1">
     <g id="line2d_4">
      <defs>
       <path d="M 0 0 
L -4 0 
" id="me85e8e350b" style="stroke:#d2d2d2;"/>
      </defs>
      <g>
       <use style="fill:#d2d2d2;stroke:#d2d2d2;" x="43.2" xlink:href="#me85e8e350b" y="90.71972"/>
      </g>
     </g>
     <g id="text_5">
      <!-- −5 -->
      <g style="fill:#d2d2d2;" transform="translate(25.40625 93.759095)scale(0.08 -0.08)">
       <use xlink:href="#DejaVuSans-2212"/>
       <use x="83.789062" xlink:href="#DejaVuSans-35"/>
      </g>
     </g>
    </g>
    <g id="ytick_2">
     <g id="line2d_5">
      <g>
       <use style="fill:#d2d2d2;stroke:#d2d2d2;" x="43.2" xlink:href="#me85e8e350b" y="58.587332"/>
      </g>
     </g>
     <g id="text_6">
      <!-- 0 -->
      <g style="fill:#d2d2d2;" transform="translate(32.11 61.626707)scale(0.08 -0.08)">
       <use xlink:href="#DejaVuSans-30"/>
      </g>
     </g>
    </g>
    <g id="ytick_3">
     <g id="line2d_6">
      <g>
       <use style="fill:#d2d2d2;stroke:#d2d2d2;" x="43.2" xlink:href="#me85e8e350b" y="26.454944"/>
      </g>
     </g>
     <g id="text_7">
      <!-- 5 -->
      <g style="fill:#d2d2d2;" transform="translate(32.11 29.494319)scale(0.08 -0.08)">
       <use xlink:href="#DejaVuSans-35"/>
      </g>
     </g>
    </g>
    <g id="text_8">
     <!-- x values -->
     <defs>
      <path d="M 54.890625 54.6875 
L 35.109375 28.078125 
L 55.90625 0 
L 45.3125 0 
L 29.390625 21.484375 
L 13.484375 0 
L 2.875 0 
L 24.125 28.609375 
L 4.6875 54.6875 
L 15.28125 54.6875 
L 29.78125 35.203125 
L 44.28125 54.6875 
z
" id="DejaVuSans-78"/>
     </defs>
     <g style="fill:#d2d2d2;" transform="translate(19.326562 82.010938)rotate(-90)scale(0.1 -0.1)">
      <use xlink:href="#DejaVuSans-78"/>
      <use x="59.179688" xlink:href="#DejaVuSans-20"/>
      <use x="90.966797" xlink:href="#DejaVuSans-76"/>
      <use x="150.146484" xlink:href="#DejaVuSans-61"/>
      <use x="211.425781" xlink:href="#DejaVuSans-6c"/>
      <use x="239.208984" xlink:href="#DejaVuSans-75"/>
      <use x="302.587891" xlink:href="#DejaVuSans-65"/>
      <use x="364.111328" xlink:href="#DejaVuSans-73"/>
     </g>
    </g>
   </g>
   <g id="line2d_7">
    <defs>
     <path d="M 0 2 
C 0.530406 2 1.03916 1.789267 1.414214 1.414214 
C 1.789267 1.03916 2 0.530406 2 0 
C 2 -0.530406 1.789267 -1.03916 1.414214 -1.414214 
C 1.03916 -1.789267 0.530406 -2 0 -2 
C -0.530406 -2 -1.03916 -1.789267 -1.414214 -1.414214 
C -1.789267 -1.03916 -2 -0.530406 -2 0 
C -2 0.530406 -1.789267 1.03916 -1.414214 1.414214 
C -1.03916 1.789267 -0.530406 2 0 2 
z
" id="m305e060bab" style="stroke:#1f77b4;"/>
    </defs>
    <g>
     <use style="fill:#5bc0de;stroke:#1f77b4;" x="50.563636" xlink:href="#m305e060bab" y="12.109091"/>
     <use style="fill:#5bc0de;stroke:#1f77b4;" x="53.569202" xlink:href="#m305e060bab" y="27.065731"/>
     <use style="fill:#5bc0de;stroke:#1f77b4;" x="56.574768" xlink:href="#m305e060bab" y="18.331181"/>
     <use style="fill:#5bc0de;stroke:#1f77b4;" x="59.580334" xlink:href="#m305e060bab" y="17.677706"/>
     <use style="fill:#5bc0de;stroke:#1f77b4;" x="62.5859" xlink:href="#m305e060bab" y="22.419055"/>
     <use style="fill:#5bc0de;stroke:#1f77b4;" x="65.591466" xlink:href="#m305e060bab" y="29.913185"/>
     <use style="fill:#5bc0de;stroke:#1f77b4;" x="68.597032" xlink:href="#m305e060bab" y="27.601968"/>
     <use style="fill:#5bc0de;stroke:#1f77b4;" x="71.602597" xlink:href="#m305e060bab" y="54.312359"/>
     <use style="fill:#5bc0de;stroke:#1f77b4;" x="74.608163" xlink:href="#m305e060bab" y="22.372766"/>
     <use style="fill:#5bc0de;stroke:#1f77b4;" x="77.613729" xlink:href="#m305e060bab" y="49.03541"/>
     <use style="fill:#5bc0de;stroke:#1f77b4;" x="80.619295" xlink:href="#m305e060bab" y="18.3875"/>
     <use style="fill:#5bc0de;stroke:#1f77b4;" x="83.624861" xlink:href="#m305e060bab" y="20.888194"/>
     <use style="fill:#5bc0de;stroke:#1f77b4;" x="86.630427" xlink:href="#m305e060bab" y="45.463189"/>
     <use style="fill:#5bc0de;stroke:#1f77b4;" x="89.635993" xlink:href="#m305e060bab" y="40.246434"/>
     <use style="fill:#5bc0de;stroke:#1f77b4;" x="92.641558" xlink:href="#m305e060bab" y="41.30861"/>
     <use style="fill:#5bc0de;stroke:#1f77b4;" x="95.647124" xlink:href="#m305e060bab" y="51.619915"/>
     <use style="fill:#5bc0de;stroke:#1f77b4;" x="98.65269" xlink:href="#m305e060bab" y="50.195866"/>
     <use style="fill:#5bc0de;stroke:#1f77b4;" x="101.658256" xlink:href="#m305e060bab" y="46.146836"/>
     <use style="fill:#5bc0de;stroke:#1f77b4;" x="104.663822" xlink:href="#m305e060bab" y="49.155"/>
     <use style="fill:#5bc0de;stroke:#1f77b4;" x="107.669388" xlink:href="#m305e060bab" y="63.674769"/>
     <use style="fill:#5bc0de;stroke:#1f77b4;" x="110.674954" xlink:href="#m305e060bab" y="39.388695"/>
     <use style="fill:#5bc0de;stroke:#1f77b4;" x="113.680519" xlink:href="#m305e060bab" y="51.217838"/>
     <use style="fill:#5bc0de;stroke:#1f77b4;" x="116.686085" xlink:href="#m305e060bab" y="66.244029"/>
     <use style="fill:#5bc0de;stroke:#1f77b4;" x="119.691651" xlink:href="#m305e060bab" y="62.596727"/>
     <use style="fill:#5bc0de;stroke:#1f77b4;" x="122.697217" xlink:href="#m305e060bab" y="59.295938"/>
     <use style="fill:#5bc0de;stroke:#1f77b4;" x="125.702783" xlink:href="#m305e060bab" y="58.838387"/>
     <use style="fill:#5bc0de;stroke:#1f77b4;" x="128.708349" xlink:href="#m305e060bab" y="53.027838"/>
     <use style="fill:#5bc0de;stroke:#1f77b4;" x="131.713915" xlink:href="#m305e060bab" y="60.209726"/>
     <use style="fill:#5bc0de;stroke:#1f77b4;" x="134.719481" xlink:href="#m305e060bab" y="75.832527"/>
     <use style="fill:#5bc0de;stroke:#1f77b4;" x="137.725046" xlink:href="#m305e060bab" y="67.796729"/>
     <use style="fill:#5bc0de;stroke:#1f77b4;" x="140.730612" xlink:href="#m305e060bab" y="60.229049"/>
     <use style="fill:#5bc0de;stroke:#1f77b4;" x="143.736178" xlink:href="#m305e060bab" y="58.054114"/>
     <use style="fill:#5bc0de;stroke:#1f77b4;" x="146.741744" xlink:href="#m305e060bab" y="75.637727"/>
     <use style="fill:#5bc0de;stroke:#1f77b4;" x="149.74731" xlink:href="#m305e060bab" y="70.894417"/>
     <use style="fill:#5bc0de;stroke:#1f77b4;" x="152.752876" xlink:href="#m305e060bab" y="93.870753"/>
     <use style="fill:#5bc0de;stroke:#1f77b4;" x="155.758442" xlink:href="#m305e060bab" y="59.862372"/>
     <use style="fill:#5bc0de;stroke:#1f77b4;" x="158.764007" xlink:href="#m305e060bab" y="81.258632"/>
     <use style="fill:#5bc0de;stroke:#1f77b4;" x="161.769573" xlink:href="#m305e060bab" y="88.895963"/>
     <use style="fill:#5bc0de;stroke:#1f77b4;" x="164.775139" xlink:href="#m305e060bab" y="79.072014"/>
     <use style="fill:#5bc0de;stroke:#1f77b4;" x="167.780705" xlink:href="#m305e060bab" y="100.731077"/>
     <use style="fill:#5bc0de;stroke:#1f77b4;" x="170.786271" xlink:href="#m305e060bab" y="73.984998"/>
     <use style="fill:#5bc0de;stroke:#1f77b4;" x="173.791837" xlink:href="#m305e060bab" y="71.750433"/>
     <use style="fill:#5bc0de;stroke:#1f77b4;" x="176.797403" xlink:href="#m305e060bab" y="82.697224"/>
     <use style="fill:#5bc0de;stroke:#1f77b4;" x="179.802968" xlink:href="#m305e060bab" y="89.095763"/>
     <use style="fill:#5bc0de;stroke:#1f77b4;" x="182.808534" xlink:href="#m305e060bab" y="89.214129"/>
     <use style="fill:#5bc0de;stroke:#1f77b4;" x="185.8141" xlink:href="#m305e060bab" y="85.175074"/>
     <use style="fill:#5bc0de;stroke:#1f77b4;" x="188.819666" xlink:href="#m305e060bab" y="91.813813"/>
     <use style="fill:#5bc0de;stroke:#1f77b4;" x="191.825232" xlink:href="#m305e060bab" y="110.290909"/>
     <use style="fill:#5bc0de;stroke:#1f77b4;" x="194.830798" xlink:href="#m305e060bab" y="88.271781"/>
     <use style="fill:#5bc0de;stroke:#1f77b4;" x="197.836364" xlink:href="#m305e060bab" y="107.823362"/>
    </g>
   </g>
   <g id="line2d_8">
    <path clip-path="url(#p1547aea2b7)" d="M 50.563636 19.371484 
L 53.569202 20.997952 
L 56.574768 22.624419 
L 59.580334 24.250887 
L 62.5859 25.877354 
L 65.591466 27.503821 
L 68.597032 29.130289 
L 71.602597 30.756756 
L 74.608163 32.383224 
L 77.613729 34.009691 
L 80.619295 35.636159 
L 83.624861 37.262626 
L 86.630427 38.889093 
L 89.635993 40.515561 
L 92.641558 42.142028 
L 95.647124 43.768496 
L 98.65269 45.394963 
L 101.658256 47.02143 
L 104.663822 48.647898 
L 107.669388 50.274365 
L 110.674954 51.900833 
L 113.680519 53.5273 
L 116.686085 55.153768 
L 119.691651 56.780235 
L 122.697217 58.406702 
L 125.702783 60.03317 
L 128.708349 61.659637 
L 131.713915 63.286105 
L 134.719481 64.912572 
L 137.725046 66.539039 
L 140.730612 68.165507 
L 143.736178 69.791974 
L 146.741744 71.418442 
L 149.74731 73.044909 
L 152.752876 74.671376 
L 155.758442 76.297844 
L 158.764007 77.924311 
L 161.769573 79.550779 
L 164.775139 81.177246 
L 167.780705 82.803714 
L 170.786271 84.430181 
L 173.791837 86.056648 
L 176.797403 87.683116 
L 179.802968 89.309583 
L 182.808534 90.936051 
L 185.8141 92.562518 
L 188.819666 94.188985 
L 191.825232 95.815453 
L 194.830798 97.44192 
L 197.836364 99.068388 
" style="fill:none;stroke:#d9534f;stroke-linecap:square;stroke-width:1.5;"/>
   </g>
   <g id="patch_3">
    <path d="M 43.2 115.2 
L 43.2 7.2 
" style="fill:none;stroke:#d2d2d2;stroke-linecap:square;stroke-linejoin:miter;stroke-width:0.8;"/>
   </g>
   <g id="patch_4">
    <path d="M 205.2 115.2 
L 205.2 7.2 
" style="fill:none;"/>
   </g>
   <g id="patch_5">
    <path d="M 43.2 115.2 
L 205.2 115.2 
" style="fill:none;stroke:#d2d2d2;stroke-linecap:square;stroke-linejoin:miter;stroke-width:0.8;"/>
   </g>
   <g id="patch_6">
    <path d="M 43.2 7.2 
L 205.2 7.2 
" style="fill:none;"/>
   </g>
  </g>
 </g>
 <defs>
  <clipPath id="p1547aea2b7">
   <rect height="108" width="162" x="43.2" y="7.2"/>
  </clipPath>
 </defs>
</svg>
