<?xml version="1.0" encoding="utf-8" standalone="no"?>
<!DOCTYPE svg PUBLIC "-//W3C//DTD SVG 1.1//EN"
  "http://www.w3.org/Graphics/SVG/1.1/DTD/svg11.dtd">
<!-- Created with matplotlib (http://matplotlib.org/) -->
<svg height="288pt" version="1.1" viewBox="0 0 432 288" width="432pt" xmlns="http://www.w3.org/2000/svg" xmlns:xlink="http://www.w3.org/1999/xlink">
 <defs>
  <style type="text/css">
*{stroke-linecap:butt;stroke-linejoin:round;}
  </style>
 </defs>
 <g id="figure_1">
  <g id="patch_1">
   <path d="M 0 288 
L 432 288 
L 432 0 
L 0 0 
z
" style="fill:none;"/>
  </g>
  <g id="axes_1">
   <g id="patch_2">
    <path d="M 43.2 244.8 
L 397.44 244.8 
L 397.44 28.8 
L 43.2 28.8 
z
" style="fill:none;"/>
   </g>
   <g id="PolyCollection_1">
    <defs>
     <path d="M 59.301818 -43.2 
L 59.301818 -43.709451 
L 59.947182 -43.721839 
L 60.592545 -43.734528 
L 61.237909 -43.747526 
L 61.883272 -43.760839 
L 62.528635 -43.774476 
L 63.173999 -43.788443 
L 63.819362 -43.80275 
L 64.464726 -43.817405 
L 65.110089 -43.832415 
L 65.755453 -43.84779 
L 66.400816 -43.863538 
L 67.04618 -43.879669 
L 67.691543 -43.896191 
L 68.336907 -43.913114 
L 68.98227 -43.930449 
L 69.627633 -43.948204 
L 70.272997 -43.96639 
L 70.91836 -43.985017 
L 71.563724 -44.004097 
L 72.209087 -44.023639 
L 72.854451 -44.043656 
L 73.499814 -44.064158 
L 74.145178 -44.085158 
L 74.790541 -44.106668 
L 75.435905 -44.128699 
L 76.081268 -44.151264 
L 76.726631 -44.174377 
L 77.371995 -44.198051 
L 78.017358 -44.222298 
L 78.662722 -44.247134 
L 79.308085 -44.272572 
L 79.953449 -44.298627 
L 80.598812 -44.325313 
L 81.244176 -44.352646 
L 81.889539 -44.380641 
L 82.534903 -44.409315 
L 83.180266 -44.438684 
L 83.825629 -44.468765 
L 84.470993 -44.499574 
L 85.116356 -44.53113 
L 85.76172 -44.56345 
L 86.407083 -44.596552 
L 87.052447 -44.630457 
L 87.69781 -44.665182 
L 88.343174 -44.700748 
L 88.988537 -44.737175 
L 89.633901 -44.774483 
L 90.279264 -44.812695 
L 90.924627 -44.851831 
L 91.569991 -44.891914 
L 92.215354 -44.932966 
L 92.860718 -44.975011 
L 93.506081 -45.018074 
L 94.151445 -45.062177 
L 94.796808 -45.107346 
L 95.442172 -45.153608 
L 96.087535 -45.200987 
L 96.732899 -45.249511 
L 97.378262 -45.299207 
L 98.023625 -45.350104 
L 98.668989 -45.40223 
L 99.314352 -45.455614 
L 99.959716 -45.510287 
L 100.605079 -45.566279 
L 101.250443 -45.623623 
L 101.895806 -45.68235 
L 102.54117 -45.742493 
L 103.186533 -45.804087 
L 103.831897 -45.867165 
L 104.47726 -45.931764 
L 105.122623 -45.99792 
L 105.767987 -46.06567 
L 106.41335 -46.135051 
L 107.058714 -46.206103 
L 107.704077 -46.278865 
L 108.349441 -46.353378 
L 108.994804 -46.429684 
L 109.640168 -46.507826 
L 110.285531 -46.587846 
L 110.930895 -46.66979 
L 111.576258 -46.753703 
L 112.221621 -46.839632 
L 112.866985 -46.927625 
L 113.512348 -47.01773 
L 114.157712 -47.109998 
L 114.803075 -47.204479 
L 115.448439 -47.301226 
L 116.093802 -47.400293 
L 116.739166 -47.501734 
L 117.384529 -47.605605 
L 118.029893 -47.711963 
L 118.675256 -47.820868 
L 119.320619 -47.932378 
L 119.965983 -48.046555 
L 120.611346 -48.163462 
L 121.25671 -48.283162 
L 121.902073 -48.405721 
L 122.547437 -48.531207 
L 123.1928 -48.659687 
L 123.838164 -48.791232 
L 124.483527 -48.925912 
L 125.128891 -49.063801 
L 125.774254 -49.204975 
L 126.419617 -49.349508 
L 127.064981 -49.49748 
L 127.710344 -49.64897 
L 128.355708 -49.804059 
L 129.001071 -49.962832 
L 129.646435 -50.125372 
L 130.291798 -50.291768 
L 130.937162 -50.462108 
L 131.582525 -50.636482 
L 132.227889 -50.814984 
L 132.873252 -50.997709 
L 133.518615 -51.184753 
L 134.163979 -51.376215 
L 134.809342 -51.572196 
L 135.454706 -51.772799 
L 136.100069 -51.97813 
L 136.745433 -52.188296 
L 137.390796 -52.403406 
L 138.03616 -52.623574 
L 138.681523 -52.848913 
L 139.326887 -53.07954 
L 139.97225 -53.315574 
L 140.617613 -53.557137 
L 141.262977 -53.804352 
L 141.90834 -54.057347 
L 142.553704 -54.316251 
L 143.199067 -54.581195 
L 143.844431 -54.852313 
L 144.489794 -55.129743 
L 145.135158 -55.413625 
L 145.780521 -55.7041 
L 146.425884 -56.001314 
L 147.071248 -56.305415 
L 147.716611 -56.616554 
L 148.361975 -56.934884 
L 149.007338 -57.260563 
L 149.652702 -57.593749 
L 150.298065 -57.934605 
L 150.943429 -58.283297 
L 151.588792 -58.639993 
L 152.234156 -59.004864 
L 152.879519 -59.378086 
L 153.524882 -59.759836 
L 154.170246 -60.150294 
L 154.815609 -60.549645 
L 155.460973 -60.958076 
L 156.106336 -61.375777 
L 156.7517 -61.802941 
L 157.397063 -62.239765 
L 158.042427 -62.686449 
L 158.68779 -63.143196 
L 159.333154 -63.610212 
L 159.978517 -64.087705 
L 160.62388 -64.57589 
L 161.269244 -65.074981 
L 161.914607 -65.585198 
L 162.559971 -66.106762 
L 163.205334 -66.639899 
L 163.850698 -67.184837 
L 164.496061 -67.741806 
L 165.141425 -68.311042 
L 165.786788 -68.892782 
L 166.432152 -69.487266 
L 167.077515 -70.094737 
L 167.722878 -70.715441 
L 168.368242 -71.349626 
L 169.013605 -71.997545 
L 169.658969 -72.659449 
L 170.304332 -73.335597 
L 170.949696 -74.026247 
L 171.595059 -74.731658 
L 172.240423 -75.452096 
L 172.885786 -76.187824 
L 173.53115 -76.93911 
L 174.176513 -77.706222 
L 174.821876 -78.48943 
L 175.46724 -79.289005 
L 176.112603 -80.105222 
L 176.757967 -80.938352 
L 177.40333 -81.78867 
L 178.048694 -82.656452 
L 178.694057 -83.541971 
L 179.339421 -84.445504 
L 179.984784 -85.367324 
L 180.630148 -86.307707 
L 181.275511 -87.266925 
L 181.920874 -88.245249 
L 182.566238 -89.242951 
L 183.211601 -90.260299 
L 183.856965 -91.297558 
L 184.502328 -92.354992 
L 185.147692 -93.43286 
L 185.793055 -94.531419 
L 186.438419 -95.65092 
L 187.083782 -96.79161 
L 187.729146 -97.953731 
L 188.374509 -99.13752 
L 189.019872 -100.343204 
L 189.665236 -101.571008 
L 190.310599 -102.821144 
L 190.955963 -104.093821 
L 191.601326 -105.389233 
L 192.24669 -106.70757 
L 192.892053 -108.049006 
L 193.537417 -109.413707 
L 194.18278 -110.801825 
L 194.828144 -112.213499 
L 195.473507 -113.648855 
L 196.11887 -115.108001 
L 196.764234 -116.591033 
L 197.409597 -118.098026 
L 198.054961 -119.629038 
L 198.700324 -121.184109 
L 199.345688 -122.763256 
L 199.991051 -124.366475 
L 200.636415 -125.993742 
L 201.281778 -127.645004 
L 201.927142 -129.320185 
L 202.572505 -131.019182 
L 203.217868 -132.741863 
L 203.863232 -134.488066 
L 204.508595 -136.2576 
L 205.153959 -138.050238 
L 205.799322 -139.865721 
L 206.444686 -141.703753 
L 207.090049 -143.564 
L 207.735413 -145.44609 
L 208.380776 -147.349608 
L 209.02614 -149.2741 
L 209.671503 -151.219065 
L 210.316866 -153.183955 
L 210.96223 -155.168176 
L 211.607593 -157.171083 
L 212.252957 -159.19198 
L 212.89832 -161.230117 
L 213.543684 -163.28469 
L 214.189047 -165.354835 
L 214.834411 -167.439631 
L 215.479774 -169.538096 
L 216.125138 -171.649184 
L 216.770501 -173.771785 
L 217.415864 -175.904724 
L 218.061228 -178.046756 
L 218.706591 -180.196565 
L 219.351955 -182.352767 
L 219.997318 -184.513902 
L 220.642682 -186.678437 
L 221.288045 -188.84476 
L 221.933409 -191.011185 
L 222.578772 -193.175945 
L 223.224136 -195.337195 
L 223.869499 -197.493005 
L 224.514862 -199.641369 
L 225.160226 -201.780193 
L 225.805589 -203.907304 
L 226.450953 -206.020442 
L 227.096316 -208.117268 
L 227.74168 -210.195355 
L 228.387043 -212.252195 
L 229.032407 -214.285197 
L 229.67777 -216.291688 
L 230.323134 -218.268917 
L 230.968497 -220.214049 
L 231.61386 -222.124175 
L 232.259224 -223.99631 
L 232.904587 -225.827397 
L 233.549951 -227.614308 
L 234.195314 -229.353849 
L 234.840678 -231.042763 
L 235.486041 -232.677735 
L 236.131405 -234.255396 
L 236.776768 -235.772327 
L 237.422132 -237.225068 
L 238.067495 -238.61012 
L 238.712858 -239.923955 
L 239.358222 -241.163022 
L 240.003585 -242.323754 
L 240.648949 -243.402577 
L 241.294312 -244.39592 
L 241.939676 -245.300223 
L 242.585039 -246.111947 
L 243.230403 -246.827586 
L 243.875766 -247.443677 
L 244.52113 -247.956813 
L 245.166493 -248.363653 
L 245.811856 -248.660938 
L 246.45722 -248.845502 
L 247.102583 -248.914286 
L 247.747947 -248.864353 
L 248.39331 -248.692902 
L 249.038674 -248.397286 
L 249.684037 -247.975021 
L 250.329401 -247.423808 
L 250.974764 -246.741545 
L 251.620128 -245.926344 
L 252.265491 -244.976549 
L 252.910854 -243.890746 
L 253.556218 -242.667786 
L 254.201581 -241.306797 
L 254.846945 -239.807197 
L 255.492308 -238.168713 
L 256.137672 -236.391393 
L 256.783035 -234.475621 
L 257.428399 -232.422127 
L 258.073762 -230.232002 
L 258.719126 -227.906705 
L 259.364489 -225.448077 
L 260.009852 -222.858346 
L 260.655216 -220.140136 
L 261.300579 -217.296467 
L 261.945943 -214.330767 
L 262.591306 -211.246865 
L 263.23667 -208.048996 
L 263.882033 -204.741794 
L 264.527397 -201.330293 
L 265.17276 -197.819912 
L 265.818124 -194.216453 
L 266.463487 -190.526083 
L 267.10885 -186.755322 
L 267.754214 -182.911025 
L 268.399577 -179.000362 
L 269.044941 -175.030797 
L 269.690304 -171.010057 
L 270.335668 -166.946114 
L 270.981031 -162.847145 
L 271.626395 -158.721505 
L 272.271758 -154.577691 
L 272.917122 -150.424306 
L 273.562485 -146.270019 
L 274.207848 -142.123523 
L 274.853212 -137.993497 
L 275.498575 -133.888564 
L 276.143939 -129.817241 
L 276.789302 -125.787903 
L 277.434666 -121.808733 
L 278.080029 -117.88768 
L 278.725393 -114.032419 
L 279.370756 -110.250305 
L 280.01612 -106.548333 
L 280.661483 -102.933103 
L 281.306846 -99.41078 
L 281.95221 -95.987061 
L 282.597573 -92.667149 
L 283.242937 -89.45572 
L 283.8883 -86.356903 
L 284.533664 -83.374261 
L 285.179027 -80.510779 
L 285.824391 -77.768847 
L 286.469754 -75.150262 
L 287.115118 -72.656225 
L 287.760481 -70.287345 
L 288.405844 -68.043647 
L 289.051208 -65.924592 
L 289.696571 -63.929089 
L 290.341935 -62.055524 
L 290.987298 -60.301785 
L 291.632662 -58.665292 
L 292.278025 -57.143037 
L 292.923389 -55.731618 
L 293.568752 -54.42728 
L 294.214116 -53.22596 
L 294.859479 -52.123329 
L 295.504842 -51.114839 
L 296.150206 -50.195767 
L 296.795569 -49.361262 
L 297.440933 -48.606386 
L 298.086296 -47.926163 
L 298.73166 -47.315614 
L 299.377023 -46.769804 
L 300.022387 -46.283868 
L 300.66775 -45.853056 
L 301.313113 -45.472752 
L 301.958477 -45.138511 
L 302.60384 -44.846071 
L 303.249204 -44.591381 
L 303.894567 -44.370611 
L 304.539931 -44.180164 
L 305.185294 -44.016684 
L 305.830658 -43.877058 
L 306.476021 -43.758421 
L 307.121385 -43.658149 
L 307.766748 -43.573857 
L 308.412111 -43.50339 
L 309.057475 -43.444813 
L 309.702838 -43.396402 
L 310.348202 -43.35663 
L 310.993565 -43.324153 
L 311.638929 -43.297798 
L 312.284292 -43.276547 
L 312.929656 -43.259522 
L 313.575019 -43.245974 
L 314.220383 -43.235267 
L 314.865746 -43.226864 
L 315.511109 -43.220316 
L 316.156473 -43.215251 
L 316.801836 -43.211362 
L 317.4472 -43.2084 
L 318.092563 -43.206161 
L 318.737927 -43.204482 
L 319.38329 -43.203234 
L 320.028654 -43.202313 
L 320.674017 -43.20164 
L 321.319381 -43.201153 
L 321.964744 -43.200803 
L 322.610107 -43.200554 
L 323.255471 -43.200378 
L 323.900834 -43.200256 
L 324.546198 -43.200171 
L 325.191561 -43.200114 
L 325.836925 -43.200075 
L 326.482288 -43.200048 
L 327.127652 -43.200031 
L 327.773015 -43.20002 
L 328.418379 -43.200012 
L 329.063742 -43.200008 
L 329.709105 -43.200005 
L 330.354469 -43.200003 
L 330.999832 -43.200002 
L 331.645196 -43.200001 
L 332.290559 -43.200001 
L 332.935923 -43.2 
L 333.581286 -43.2 
L 334.22665 -43.2 
L 334.872013 -43.2 
L 335.517377 -43.2 
L 336.16274 -43.2 
L 336.808103 -43.2 
L 337.453467 -43.2 
L 338.09883 -43.2 
L 338.744194 -43.2 
L 339.389557 -43.2 
L 340.034921 -43.2 
L 340.680284 -43.2 
L 341.325648 -43.2 
L 341.971011 -43.2 
L 342.616375 -43.2 
L 343.261738 -43.2 
L 343.907101 -43.2 
L 344.552465 -43.2 
L 345.197828 -43.2 
L 345.843192 -43.2 
L 346.488555 -43.2 
L 347.133919 -43.2 
L 347.779282 -43.2 
L 348.424646 -43.2 
L 349.070009 -43.2 
L 349.715373 -43.2 
L 350.360736 -43.2 
L 351.006099 -43.2 
L 351.651463 -43.2 
L 352.296826 -43.2 
L 352.94219 -43.2 
L 353.587553 -43.2 
L 354.232917 -43.2 
L 354.87828 -43.2 
L 355.523644 -43.2 
L 356.169007 -43.2 
L 356.814371 -43.2 
L 357.459734 -43.2 
L 358.105097 -43.2 
L 358.750461 -43.2 
L 359.395824 -43.2 
L 360.041188 -43.2 
L 360.686551 -43.2 
L 361.331915 -43.2 
L 361.977278 -43.2 
L 362.622642 -43.2 
L 363.268005 -43.2 
L 363.913369 -43.2 
L 364.558732 -43.2 
L 365.204095 -43.2 
L 365.849459 -43.2 
L 366.494822 -43.2 
L 367.140186 -43.2 
L 367.785549 -43.2 
L 368.430913 -43.2 
L 369.076276 -43.2 
L 369.72164 -43.2 
L 370.367003 -43.2 
L 371.012367 -43.2 
L 371.65773 -43.2 
L 372.303093 -43.2 
L 372.948457 -43.2 
L 373.59382 -43.2 
L 374.239184 -43.2 
L 374.884547 -43.2 
L 375.529911 -43.2 
L 376.175274 -43.2 
L 376.820638 -43.2 
L 377.466001 -43.2 
L 378.111365 -43.2 
L 378.756728 -43.2 
L 379.402091 -43.2 
L 380.047455 -43.2 
L 380.692818 -43.2 
L 381.338182 -43.2 
L 381.338182 -43.2 
L 381.338182 -43.2 
L 380.692818 -43.2 
L 380.047455 -43.2 
L 379.402091 -43.2 
L 378.756728 -43.2 
L 378.111365 -43.2 
L 377.466001 -43.2 
L 376.820638 -43.2 
L 376.175274 -43.2 
L 375.529911 -43.2 
L 374.884547 -43.2 
L 374.239184 -43.2 
L 373.59382 -43.2 
L 372.948457 -43.2 
L 372.303093 -43.2 
L 371.65773 -43.2 
L 371.012367 -43.2 
L 370.367003 -43.2 
L 369.72164 -43.2 
L 369.076276 -43.2 
L 368.430913 -43.2 
L 367.785549 -43.2 
L 367.140186 -43.2 
L 366.494822 -43.2 
L 365.849459 -43.2 
L 365.204095 -43.2 
L 364.558732 -43.2 
L 363.913369 -43.2 
L 363.268005 -43.2 
L 362.622642 -43.2 
L 361.977278 -43.2 
L 361.331915 -43.2 
L 360.686551 -43.2 
L 360.041188 -43.2 
L 359.395824 -43.2 
L 358.750461 -43.2 
L 358.105097 -43.2 
L 357.459734 -43.2 
L 356.814371 -43.2 
L 356.169007 -43.2 
L 355.523644 -43.2 
L 354.87828 -43.2 
L 354.232917 -43.2 
L 353.587553 -43.2 
L 352.94219 -43.2 
L 352.296826 -43.2 
L 351.651463 -43.2 
L 351.006099 -43.2 
L 350.360736 -43.2 
L 349.715373 -43.2 
L 349.070009 -43.2 
L 348.424646 -43.2 
L 347.779282 -43.2 
L 347.133919 -43.2 
L 346.488555 -43.2 
L 345.843192 -43.2 
L 345.197828 -43.2 
L 344.552465 -43.2 
L 343.907101 -43.2 
L 343.261738 -43.2 
L 342.616375 -43.2 
L 341.971011 -43.2 
L 341.325648 -43.2 
L 340.680284 -43.2 
L 340.034921 -43.2 
L 339.389557 -43.2 
L 338.744194 -43.2 
L 338.09883 -43.2 
L 337.453467 -43.2 
L 336.808103 -43.2 
L 336.16274 -43.2 
L 335.517377 -43.2 
L 334.872013 -43.2 
L 334.22665 -43.2 
L 333.581286 -43.2 
L 332.935923 -43.2 
L 332.290559 -43.2 
L 331.645196 -43.2 
L 330.999832 -43.2 
L 330.354469 -43.2 
L 329.709105 -43.2 
L 329.063742 -43.2 
L 328.418379 -43.2 
L 327.773015 -43.2 
L 327.127652 -43.2 
L 326.482288 -43.2 
L 325.836925 -43.2 
L 325.191561 -43.2 
L 324.546198 -43.2 
L 323.900834 -43.2 
L 323.255471 -43.2 
L 322.610107 -43.2 
L 321.964744 -43.2 
L 321.319381 -43.2 
L 320.674017 -43.2 
L 320.028654 -43.2 
L 319.38329 -43.2 
L 318.737927 -43.2 
L 318.092563 -43.2 
L 317.4472 -43.2 
L 316.801836 -43.2 
L 316.156473 -43.2 
L 315.511109 -43.2 
L 314.865746 -43.2 
L 314.220383 -43.2 
L 313.575019 -43.2 
L 312.929656 -43.2 
L 312.284292 -43.2 
L 311.638929 -43.2 
L 310.993565 -43.2 
L 310.348202 -43.2 
L 309.702838 -43.2 
L 309.057475 -43.2 
L 308.412111 -43.2 
L 307.766748 -43.2 
L 307.121385 -43.2 
L 306.476021 -43.2 
L 305.830658 -43.2 
L 305.185294 -43.2 
L 304.539931 -43.2 
L 303.894567 -43.2 
L 303.249204 -43.2 
L 302.60384 -43.2 
L 301.958477 -43.2 
L 301.313113 -43.2 
L 300.66775 -43.2 
L 300.022387 -43.2 
L 299.377023 -43.2 
L 298.73166 -43.2 
L 298.086296 -43.2 
L 297.440933 -43.2 
L 296.795569 -43.2 
L 296.150206 -43.2 
L 295.504842 -43.2 
L 294.859479 -43.2 
L 294.214116 -43.2 
L 293.568752 -43.2 
L 292.923389 -43.2 
L 292.278025 -43.2 
L 291.632662 -43.2 
L 290.987298 -43.2 
L 290.341935 -43.2 
L 289.696571 -43.2 
L 289.051208 -43.2 
L 288.405844 -43.2 
L 287.760481 -43.2 
L 287.115118 -43.2 
L 286.469754 -43.2 
L 285.824391 -43.2 
L 285.179027 -43.2 
L 284.533664 -43.2 
L 283.8883 -43.2 
L 283.242937 -43.2 
L 282.597573 -43.2 
L 281.95221 -43.2 
L 281.306846 -43.2 
L 280.661483 -43.2 
L 280.01612 -43.2 
L 279.370756 -43.2 
L 278.725393 -43.2 
L 278.080029 -43.2 
L 277.434666 -43.2 
L 276.789302 -43.2 
L 276.143939 -43.2 
L 275.498575 -43.2 
L 274.853212 -43.2 
L 274.207848 -43.2 
L 273.562485 -43.2 
L 272.917122 -43.2 
L 272.271758 -43.2 
L 271.626395 -43.2 
L 270.981031 -43.2 
L 270.335668 -43.2 
L 269.690304 -43.2 
L 269.044941 -43.2 
L 268.399577 -43.2 
L 267.754214 -43.2 
L 267.10885 -43.2 
L 266.463487 -43.2 
L 265.818124 -43.2 
L 265.17276 -43.2 
L 264.527397 -43.2 
L 263.882033 -43.2 
L 263.23667 -43.2 
L 262.591306 -43.2 
L 261.945943 -43.2 
L 261.300579 -43.2 
L 260.655216 -43.2 
L 260.009852 -43.2 
L 259.364489 -43.2 
L 258.719126 -43.2 
L 258.073762 -43.2 
L 257.428399 -43.2 
L 256.783035 -43.2 
L 256.137672 -43.2 
L 255.492308 -43.2 
L 254.846945 -43.2 
L 254.201581 -43.2 
L 253.556218 -43.2 
L 252.910854 -43.2 
L 252.265491 -43.2 
L 251.620128 -43.2 
L 250.974764 -43.2 
L 250.329401 -43.2 
L 249.684037 -43.2 
L 249.038674 -43.2 
L 248.39331 -43.2 
L 247.747947 -43.2 
L 247.102583 -43.2 
L 246.45722 -43.2 
L 245.811856 -43.2 
L 245.166493 -43.2 
L 244.52113 -43.2 
L 243.875766 -43.2 
L 243.230403 -43.2 
L 242.585039 -43.2 
L 241.939676 -43.2 
L 241.294312 -43.2 
L 240.648949 -43.2 
L 240.003585 -43.2 
L 239.358222 -43.2 
L 238.712858 -43.2 
L 238.067495 -43.2 
L 237.422132 -43.2 
L 236.776768 -43.2 
L 236.131405 -43.2 
L 235.486041 -43.2 
L 234.840678 -43.2 
L 234.195314 -43.2 
L 233.549951 -43.2 
L 232.904587 -43.2 
L 232.259224 -43.2 
L 231.61386 -43.2 
L 230.968497 -43.2 
L 230.323134 -43.2 
L 229.67777 -43.2 
L 229.032407 -43.2 
L 228.387043 -43.2 
L 227.74168 -43.2 
L 227.096316 -43.2 
L 226.450953 -43.2 
L 225.805589 -43.2 
L 225.160226 -43.2 
L 224.514862 -43.2 
L 223.869499 -43.2 
L 223.224136 -43.2 
L 222.578772 -43.2 
L 221.933409 -43.2 
L 221.288045 -43.2 
L 220.642682 -43.2 
L 219.997318 -43.2 
L 219.351955 -43.2 
L 218.706591 -43.2 
L 218.061228 -43.2 
L 217.415864 -43.2 
L 216.770501 -43.2 
L 216.125138 -43.2 
L 215.479774 -43.2 
L 214.834411 -43.2 
L 214.189047 -43.2 
L 213.543684 -43.2 
L 212.89832 -43.2 
L 212.252957 -43.2 
L 211.607593 -43.2 
L 210.96223 -43.2 
L 210.316866 -43.2 
L 209.671503 -43.2 
L 209.02614 -43.2 
L 208.380776 -43.2 
L 207.735413 -43.2 
L 207.090049 -43.2 
L 206.444686 -43.2 
L 205.799322 -43.2 
L 205.153959 -43.2 
L 204.508595 -43.2 
L 203.863232 -43.2 
L 203.217868 -43.2 
L 202.572505 -43.2 
L 201.927142 -43.2 
L 201.281778 -43.2 
L 200.636415 -43.2 
L 199.991051 -43.2 
L 199.345688 -43.2 
L 198.700324 -43.2 
L 198.054961 -43.2 
L 197.409597 -43.2 
L 196.764234 -43.2 
L 196.11887 -43.2 
L 195.473507 -43.2 
L 194.828144 -43.2 
L 194.18278 -43.2 
L 193.537417 -43.2 
L 192.892053 -43.2 
L 192.24669 -43.2 
L 191.601326 -43.2 
L 190.955963 -43.2 
L 190.310599 -43.2 
L 189.665236 -43.2 
L 189.019872 -43.2 
L 188.374509 -43.2 
L 187.729146 -43.2 
L 187.083782 -43.2 
L 186.438419 -43.2 
L 185.793055 -43.2 
L 185.147692 -43.2 
L 184.502328 -43.2 
L 183.856965 -43.2 
L 183.211601 -43.2 
L 182.566238 -43.2 
L 181.920874 -43.2 
L 181.275511 -43.2 
L 180.630148 -43.2 
L 179.984784 -43.2 
L 179.339421 -43.2 
L 178.694057 -43.2 
L 178.048694 -43.2 
L 177.40333 -43.2 
L 176.757967 -43.2 
L 176.112603 -43.2 
L 175.46724 -43.2 
L 174.821876 -43.2 
L 174.176513 -43.2 
L 173.53115 -43.2 
L 172.885786 -43.2 
L 172.240423 -43.2 
L 171.595059 -43.2 
L 170.949696 -43.2 
L 170.304332 -43.2 
L 169.658969 -43.2 
L 169.013605 -43.2 
L 168.368242 -43.2 
L 167.722878 -43.2 
L 167.077515 -43.2 
L 166.432152 -43.2 
L 165.786788 -43.2 
L 165.141425 -43.2 
L 164.496061 -43.2 
L 163.850698 -43.2 
L 163.205334 -43.2 
L 162.559971 -43.2 
L 161.914607 -43.2 
L 161.269244 -43.2 
L 160.62388 -43.2 
L 159.978517 -43.2 
L 159.333154 -43.2 
L 158.68779 -43.2 
L 158.042427 -43.2 
L 157.397063 -43.2 
L 156.7517 -43.2 
L 156.106336 -43.2 
L 155.460973 -43.2 
L 154.815609 -43.2 
L 154.170246 -43.2 
L 153.524882 -43.2 
L 152.879519 -43.2 
L 152.234156 -43.2 
L 151.588792 -43.2 
L 150.943429 -43.2 
L 150.298065 -43.2 
L 149.652702 -43.2 
L 149.007338 -43.2 
L 148.361975 -43.2 
L 147.716611 -43.2 
L 147.071248 -43.2 
L 146.425884 -43.2 
L 145.780521 -43.2 
L 145.135158 -43.2 
L 144.489794 -43.2 
L 143.844431 -43.2 
L 143.199067 -43.2 
L 142.553704 -43.2 
L 141.90834 -43.2 
L 141.262977 -43.2 
L 140.617613 -43.2 
L 139.97225 -43.2 
L 139.326887 -43.2 
L 138.681523 -43.2 
L 138.03616 -43.2 
L 137.390796 -43.2 
L 136.745433 -43.2 
L 136.100069 -43.2 
L 135.454706 -43.2 
L 134.809342 -43.2 
L 134.163979 -43.2 
L 133.518615 -43.2 
L 132.873252 -43.2 
L 132.227889 -43.2 
L 131.582525 -43.2 
L 130.937162 -43.2 
L 130.291798 -43.2 
L 129.646435 -43.2 
L 129.001071 -43.2 
L 128.355708 -43.2 
L 127.710344 -43.2 
L 127.064981 -43.2 
L 126.419617 -43.2 
L 125.774254 -43.2 
L 125.128891 -43.2 
L 124.483527 -43.2 
L 123.838164 -43.2 
L 123.1928 -43.2 
L 122.547437 -43.2 
L 121.902073 -43.2 
L 121.25671 -43.2 
L 120.611346 -43.2 
L 119.965983 -43.2 
L 119.320619 -43.2 
L 118.675256 -43.2 
L 118.029893 -43.2 
L 117.384529 -43.2 
L 116.739166 -43.2 
L 116.093802 -43.2 
L 115.448439 -43.2 
L 114.803075 -43.2 
L 114.157712 -43.2 
L 113.512348 -43.2 
L 112.866985 -43.2 
L 112.221621 -43.2 
L 111.576258 -43.2 
L 110.930895 -43.2 
L 110.285531 -43.2 
L 109.640168 -43.2 
L 108.994804 -43.2 
L 108.349441 -43.2 
L 107.704077 -43.2 
L 107.058714 -43.2 
L 106.41335 -43.2 
L 105.767987 -43.2 
L 105.122623 -43.2 
L 104.47726 -43.2 
L 103.831897 -43.2 
L 103.186533 -43.2 
L 102.54117 -43.2 
L 101.895806 -43.2 
L 101.250443 -43.2 
L 100.605079 -43.2 
L 99.959716 -43.2 
L 99.314352 -43.2 
L 98.668989 -43.2 
L 98.023625 -43.2 
L 97.378262 -43.2 
L 96.732899 -43.2 
L 96.087535 -43.2 
L 95.442172 -43.2 
L 94.796808 -43.2 
L 94.151445 -43.2 
L 93.506081 -43.2 
L 92.860718 -43.2 
L 92.215354 -43.2 
L 91.569991 -43.2 
L 90.924627 -43.2 
L 90.279264 -43.2 
L 89.633901 -43.2 
L 88.988537 -43.2 
L 88.343174 -43.2 
L 87.69781 -43.2 
L 87.052447 -43.2 
L 86.407083 -43.2 
L 85.76172 -43.2 
L 85.116356 -43.2 
L 84.470993 -43.2 
L 83.825629 -43.2 
L 83.180266 -43.2 
L 82.534903 -43.2 
L 81.889539 -43.2 
L 81.244176 -43.2 
L 80.598812 -43.2 
L 79.953449 -43.2 
L 79.308085 -43.2 
L 78.662722 -43.2 
L 78.017358 -43.2 
L 77.371995 -43.2 
L 76.726631 -43.2 
L 76.081268 -43.2 
L 75.435905 -43.2 
L 74.790541 -43.2 
L 74.145178 -43.2 
L 73.499814 -43.2 
L 72.854451 -43.2 
L 72.209087 -43.2 
L 71.563724 -43.2 
L 70.91836 -43.2 
L 70.272997 -43.2 
L 69.627633 -43.2 
L 68.98227 -43.2 
L 68.336907 -43.2 
L 67.691543 -43.2 
L 67.04618 -43.2 
L 66.400816 -43.2 
L 65.755453 -43.2 
L 65.110089 -43.2 
L 64.464726 -43.2 
L 63.819362 -43.2 
L 63.173999 -43.2 
L 62.528635 -43.2 
L 61.883272 -43.2 
L 61.237909 -43.2 
L 60.592545 -43.2 
L 59.947182 -43.2 
L 59.301818 -43.2 
z
" id="mda4c0e010f" style="stroke:#d9534f;stroke-opacity:0.7;"/>
    </defs>
    <g clip-path="url(#p0eb6916e21)">
     <use style="fill:#d9534f;fill-opacity:0.7;stroke:#d9534f;stroke-opacity:0.7;" x="0" xlink:href="#mda4c0e010f" y="288"/>
    </g>
   </g>
   <g id="matplotlib.axis_1">
    <g id="xtick_1">
     <g id="line2d_1">
      <defs>
       <path d="M 0 0 
L 0 4 
" id="m6e100fa8fc" style="stroke:#d2d2d2;"/>
      </defs>
      <g>
       <use style="fill:#d2d2d2;stroke:#d2d2d2;" x="59.301818" xlink:href="#m6e100fa8fc" y="244.8"/>
      </g>
     </g>
     <g id="text_1">
      <!-- 0 -->
      <defs>
       <path d="M 31.78125 66.40625 
Q 24.171875 66.40625 20.328125 58.90625 
Q 16.5 51.421875 16.5 36.375 
Q 16.5 21.390625 20.328125 13.890625 
Q 24.171875 6.390625 31.78125 6.390625 
Q 39.453125 6.390625 43.28125 13.890625 
Q 47.125 21.390625 47.125 36.375 
Q 47.125 51.421875 43.28125 58.90625 
Q 39.453125 66.40625 31.78125 66.40625 
M 31.78125 74.21875 
Q 44.046875 74.21875 50.515625 64.515625 
Q 56.984375 54.828125 56.984375 36.375 
Q 56.984375 17.96875 50.515625 8.265625 
Q 44.046875 -1.421875 31.78125 -1.421875 
Q 19.53125 -1.421875 13.0625 8.265625 
Q 6.59375 17.96875 6.59375 36.375 
Q 6.59375 54.828125 13.0625 64.515625 
Q 19.53125 74.21875 31.78125 74.21875 
" id="DejaVuSans-30"/>
      </defs>
      <g style="fill:#d2d2d2;" transform="translate(55.166193 262.677969)scale(0.13 -0.13)">
       <use xlink:href="#DejaVuSans-30"/>
      </g>
     </g>
    </g>
    <g id="xtick_2">
     <g id="line2d_2">
      <g>
       <use style="fill:#d2d2d2;stroke:#d2d2d2;" x="112.974545" xlink:href="#m6e100fa8fc" y="244.8"/>
      </g>
     </g>
     <g id="text_2">
      <!-- 10 -->
      <defs>
       <path d="M 12.40625 8.296875 
L 28.515625 8.296875 
L 28.515625 63.921875 
L 10.984375 60.40625 
L 10.984375 69.390625 
L 28.421875 72.90625 
L 38.28125 72.90625 
L 38.28125 8.296875 
L 54.390625 8.296875 
L 54.390625 0 
L 12.40625 0 
z
" id="DejaVuSans-31"/>
      </defs>
      <g style="fill:#d2d2d2;" transform="translate(104.703295 262.677969)scale(0.13 -0.13)">
       <use xlink:href="#DejaVuSans-31"/>
       <use x="63.623047" xlink:href="#DejaVuSans-30"/>
      </g>
     </g>
    </g>
    <g id="xtick_3">
     <g id="line2d_3">
      <g>
       <use style="fill:#d2d2d2;stroke:#d2d2d2;" x="166.647273" xlink:href="#m6e100fa8fc" y="244.8"/>
      </g>
     </g>
     <g id="text_3">
      <!-- 20 -->
      <defs>
       <path d="M 19.1875 8.296875 
L 53.609375 8.296875 
L 53.609375 0 
L 7.328125 0 
L 7.328125 8.296875 
Q 12.9375 14.109375 22.625 23.890625 
Q 32.328125 33.6875 34.8125 36.53125 
Q 39.546875 41.84375 41.421875 45.53125 
Q 43.3125 49.21875 43.3125 52.78125 
Q 43.3125 58.59375 39.234375 62.25 
Q 35.15625 65.921875 28.609375 65.921875 
Q 23.96875 65.921875 18.8125 64.3125 
Q 13.671875 62.703125 7.8125 59.421875 
L 7.8125 69.390625 
Q 13.765625 71.78125 18.9375 73 
Q 24.125 74.21875 28.421875 74.21875 
Q 39.75 74.21875 46.484375 68.546875 
Q 53.21875 62.890625 53.21875 53.421875 
Q 53.21875 48.921875 51.53125 44.890625 
Q 49.859375 40.875 45.40625 35.40625 
Q 44.1875 33.984375 37.640625 27.21875 
Q 31.109375 20.453125 19.1875 8.296875 
" id="DejaVuSans-32"/>
      </defs>
      <g style="fill:#d2d2d2;" transform="translate(158.376023 262.677969)scale(0.13 -0.13)">
       <use xlink:href="#DejaVuSans-32"/>
       <use x="63.623047" xlink:href="#DejaVuSans-30"/>
      </g>
     </g>
    </g>
    <g id="xtick_4">
     <g id="line2d_4">
      <g>
       <use style="fill:#d2d2d2;stroke:#d2d2d2;" x="220.32" xlink:href="#m6e100fa8fc" y="244.8"/>
      </g>
     </g>
     <g id="text_4">
      <!-- 30 -->
      <defs>
       <path d="M 40.578125 39.3125 
Q 47.65625 37.796875 51.625 33 
Q 55.609375 28.21875 55.609375 21.1875 
Q 55.609375 10.40625 48.1875 4.484375 
Q 40.765625 -1.421875 27.09375 -1.421875 
Q 22.515625 -1.421875 17.65625 -0.515625 
Q 12.796875 0.390625 7.625 2.203125 
L 7.625 11.71875 
Q 11.71875 9.328125 16.59375 8.109375 
Q 21.484375 6.890625 26.8125 6.890625 
Q 36.078125 6.890625 40.9375 10.546875 
Q 45.796875 14.203125 45.796875 21.1875 
Q 45.796875 27.640625 41.28125 31.265625 
Q 36.765625 34.90625 28.71875 34.90625 
L 20.21875 34.90625 
L 20.21875 43.015625 
L 29.109375 43.015625 
Q 36.375 43.015625 40.234375 45.921875 
Q 44.09375 48.828125 44.09375 54.296875 
Q 44.09375 59.90625 40.109375 62.90625 
Q 36.140625 65.921875 28.71875 65.921875 
Q 24.65625 65.921875 20.015625 65.03125 
Q 15.375 64.15625 9.8125 62.3125 
L 9.8125 71.09375 
Q 15.4375 72.65625 20.34375 73.4375 
Q 25.25 74.21875 29.59375 74.21875 
Q 40.828125 74.21875 47.359375 69.109375 
Q 53.90625 64.015625 53.90625 55.328125 
Q 53.90625 49.265625 50.4375 45.09375 
Q 46.96875 40.921875 40.578125 39.3125 
" id="DejaVuSans-33"/>
      </defs>
      <g style="fill:#d2d2d2;" transform="translate(212.04875 262.677969)scale(0.13 -0.13)">
       <use xlink:href="#DejaVuSans-33"/>
       <use x="63.623047" xlink:href="#DejaVuSans-30"/>
      </g>
     </g>
    </g>
    <g id="xtick_5">
     <g id="line2d_5">
      <g>
       <use style="fill:#d2d2d2;stroke:#d2d2d2;" x="273.992727" xlink:href="#m6e100fa8fc" y="244.8"/>
      </g>
     </g>
     <g id="text_5">
      <!-- 40 -->
      <defs>
       <path d="M 37.796875 64.3125 
L 12.890625 25.390625 
L 37.796875 25.390625 
z
M 35.203125 72.90625 
L 47.609375 72.90625 
L 47.609375 25.390625 
L 58.015625 25.390625 
L 58.015625 17.1875 
L 47.609375 17.1875 
L 47.609375 0 
L 37.796875 0 
L 37.796875 17.1875 
L 4.890625 17.1875 
L 4.890625 26.703125 
z
" id="DejaVuSans-34"/>
      </defs>
      <g style="fill:#d2d2d2;" transform="translate(265.721477 262.677969)scale(0.13 -0.13)">
       <use xlink:href="#DejaVuSans-34"/>
       <use x="63.623047" xlink:href="#DejaVuSans-30"/>
      </g>
     </g>
    </g>
    <g id="xtick_6">
     <g id="line2d_6">
      <g>
       <use style="fill:#d2d2d2;stroke:#d2d2d2;" x="327.665455" xlink:href="#m6e100fa8fc" y="244.8"/>
      </g>
     </g>
     <g id="text_6">
      <!-- 50 -->
      <defs>
       <path d="M 10.796875 72.90625 
L 49.515625 72.90625 
L 49.515625 64.59375 
L 19.828125 64.59375 
L 19.828125 46.734375 
Q 21.96875 47.46875 24.109375 47.828125 
Q 26.265625 48.1875 28.421875 48.1875 
Q 40.625 48.1875 47.75 41.5 
Q 54.890625 34.8125 54.890625 23.390625 
Q 54.890625 11.625 47.5625 5.09375 
Q 40.234375 -1.421875 26.90625 -1.421875 
Q 22.3125 -1.421875 17.546875 -0.640625 
Q 12.796875 0.140625 7.71875 1.703125 
L 7.71875 11.625 
Q 12.109375 9.234375 16.796875 8.0625 
Q 21.484375 6.890625 26.703125 6.890625 
Q 35.15625 6.890625 40.078125 11.328125 
Q 45.015625 15.765625 45.015625 23.390625 
Q 45.015625 31 40.078125 35.4375 
Q 35.15625 39.890625 26.703125 39.890625 
Q 22.75 39.890625 18.8125 39.015625 
Q 14.890625 38.140625 10.796875 36.28125 
z
" id="DejaVuSans-35"/>
      </defs>
      <g style="fill:#d2d2d2;" transform="translate(319.394205 262.677969)scale(0.13 -0.13)">
       <use xlink:href="#DejaVuSans-35"/>
       <use x="63.623047" xlink:href="#DejaVuSans-30"/>
      </g>
     </g>
    </g>
    <g id="xtick_7">
     <g id="line2d_7">
      <g>
       <use style="fill:#d2d2d2;stroke:#d2d2d2;" x="381.338182" xlink:href="#m6e100fa8fc" y="244.8"/>
      </g>
     </g>
     <g id="text_7">
      <!-- 60 -->
      <defs>
       <path d="M 33.015625 40.375 
Q 26.375 40.375 22.484375 35.828125 
Q 18.609375 31.296875 18.609375 23.390625 
Q 18.609375 15.53125 22.484375 10.953125 
Q 26.375 6.390625 33.015625 6.390625 
Q 39.65625 6.390625 43.53125 10.953125 
Q 47.40625 15.53125 47.40625 23.390625 
Q 47.40625 31.296875 43.53125 35.828125 
Q 39.65625 40.375 33.015625 40.375 
M 52.59375 71.296875 
L 52.59375 62.3125 
Q 48.875 64.0625 45.09375 64.984375 
Q 41.3125 65.921875 37.59375 65.921875 
Q 27.828125 65.921875 22.671875 59.328125 
Q 17.53125 52.734375 16.796875 39.40625 
Q 19.671875 43.65625 24.015625 45.921875 
Q 28.375 48.1875 33.59375 48.1875 
Q 44.578125 48.1875 50.953125 41.515625 
Q 57.328125 34.859375 57.328125 23.390625 
Q 57.328125 12.15625 50.6875 5.359375 
Q 44.046875 -1.421875 33.015625 -1.421875 
Q 20.359375 -1.421875 13.671875 8.265625 
Q 6.984375 17.96875 6.984375 36.375 
Q 6.984375 53.65625 15.1875 63.9375 
Q 23.390625 74.21875 37.203125 74.21875 
Q 40.921875 74.21875 44.703125 73.484375 
Q 48.484375 72.75 52.59375 71.296875 
" id="DejaVuSans-36"/>
      </defs>
      <g style="fill:#d2d2d2;" transform="translate(373.066932 262.677969)scale(0.13 -0.13)">
       <use xlink:href="#DejaVuSans-36"/>
       <use x="63.623047" xlink:href="#DejaVuSans-30"/>
      </g>
     </g>
    </g>
    <g id="text_8">
     <!-- value -->
     <defs>
      <path d="M 2.984375 54.6875 
L 12.5 54.6875 
L 29.59375 8.796875 
L 46.6875 54.6875 
L 56.203125 54.6875 
L 35.6875 0 
L 23.484375 0 
z
" id="DejaVuSans-76"/>
      <path d="M 34.28125 27.484375 
Q 23.390625 27.484375 19.1875 25 
Q 14.984375 22.515625 14.984375 16.5 
Q 14.984375 11.71875 18.140625 8.90625 
Q 21.296875 6.109375 26.703125 6.109375 
Q 34.1875 6.109375 38.703125 11.40625 
Q 43.21875 16.703125 43.21875 25.484375 
L 43.21875 27.484375 
z
M 52.203125 31.203125 
L 52.203125 0 
L 43.21875 0 
L 43.21875 8.296875 
Q 40.140625 3.328125 35.546875 0.953125 
Q 30.953125 -1.421875 24.3125 -1.421875 
Q 15.921875 -1.421875 10.953125 3.296875 
Q 6 8.015625 6 15.921875 
Q 6 25.140625 12.171875 29.828125 
Q 18.359375 34.515625 30.609375 34.515625 
L 43.21875 34.515625 
L 43.21875 35.40625 
Q 43.21875 41.609375 39.140625 45 
Q 35.0625 48.390625 27.6875 48.390625 
Q 23 48.390625 18.546875 47.265625 
Q 14.109375 46.140625 10.015625 43.890625 
L 10.015625 52.203125 
Q 14.9375 54.109375 19.578125 55.046875 
Q 24.21875 56 28.609375 56 
Q 40.484375 56 46.34375 49.84375 
Q 52.203125 43.703125 52.203125 31.203125 
" id="DejaVuSans-61"/>
      <path d="M 9.421875 75.984375 
L 18.40625 75.984375 
L 18.40625 0 
L 9.421875 0 
z
" id="DejaVuSans-6c"/>
      <path d="M 8.5 21.578125 
L 8.5 54.6875 
L 17.484375 54.6875 
L 17.484375 21.921875 
Q 17.484375 14.15625 20.5 10.265625 
Q 23.53125 6.390625 29.59375 6.390625 
Q 36.859375 6.390625 41.078125 11.03125 
Q 45.3125 15.671875 45.3125 23.6875 
L 45.3125 54.6875 
L 54.296875 54.6875 
L 54.296875 0 
L 45.3125 0 
L 45.3125 8.40625 
Q 42.046875 3.421875 37.71875 1 
Q 33.40625 -1.421875 27.6875 -1.421875 
Q 18.265625 -1.421875 13.375 4.4375 
Q 8.5 10.296875 8.5 21.578125 
M 31.109375 56 
z
" id="DejaVuSans-75"/>
      <path d="M 56.203125 29.59375 
L 56.203125 25.203125 
L 14.890625 25.203125 
Q 15.484375 15.921875 20.484375 11.0625 
Q 25.484375 6.203125 34.421875 6.203125 
Q 39.59375 6.203125 44.453125 7.46875 
Q 49.3125 8.734375 54.109375 11.28125 
L 54.109375 2.78125 
Q 49.265625 0.734375 44.1875 -0.34375 
Q 39.109375 -1.421875 33.890625 -1.421875 
Q 20.796875 -1.421875 13.15625 6.1875 
Q 5.515625 13.8125 5.515625 26.8125 
Q 5.515625 40.234375 12.765625 48.109375 
Q 20.015625 56 32.328125 56 
Q 43.359375 56 49.78125 48.890625 
Q 56.203125 41.796875 56.203125 29.59375 
M 47.21875 32.234375 
Q 47.125 39.59375 43.09375 43.984375 
Q 39.0625 48.390625 32.421875 48.390625 
Q 24.90625 48.390625 20.390625 44.140625 
Q 15.875 39.890625 15.1875 32.171875 
z
" id="DejaVuSans-65"/>
     </defs>
     <g style="fill:#d2d2d2;" transform="translate(195.735938 283.05875)scale(0.18 -0.18)">
      <use xlink:href="#DejaVuSans-76"/>
      <use x="59.179688" xlink:href="#DejaVuSans-61"/>
      <use x="120.458984" xlink:href="#DejaVuSans-6c"/>
      <use x="148.242188" xlink:href="#DejaVuSans-75"/>
      <use x="211.621094" xlink:href="#DejaVuSans-65"/>
     </g>
    </g>
   </g>
   <g id="matplotlib.axis_2"/>
   <g id="line2d_8">
    <path clip-path="url(#p0eb6916e21)" d="M 247.156364 244.8 
L 247.156364 28.8 
" style="fill:none;stroke:#d2d2d2;stroke-linecap:square;stroke-width:1.5;"/>
   </g>
   <g id="patch_3">
    <path d="M 43.2 244.8 
L 397.44 244.8 
" style="fill:none;stroke:#d2d2d2;stroke-linecap:square;stroke-linejoin:miter;"/>
   </g>
   <g id="text_9">
    <!-- Distribution of -->
    <defs>
     <path d="M 19.671875 64.796875 
L 19.671875 8.109375 
L 31.59375 8.109375 
Q 46.6875 8.109375 53.6875 14.9375 
Q 60.6875 21.78125 60.6875 36.53125 
Q 60.6875 51.171875 53.6875 57.984375 
Q 46.6875 64.796875 31.59375 64.796875 
z
M 9.8125 72.90625 
L 30.078125 72.90625 
Q 51.265625 72.90625 61.171875 64.09375 
Q 71.09375 55.28125 71.09375 36.53125 
Q 71.09375 17.671875 61.125 8.828125 
Q 51.171875 0 30.078125 0 
L 9.8125 0 
z
" id="DejaVuSans-44"/>
     <path d="M 9.421875 54.6875 
L 18.40625 54.6875 
L 18.40625 0 
L 9.421875 0 
z
M 9.421875 75.984375 
L 18.40625 75.984375 
L 18.40625 64.59375 
L 9.421875 64.59375 
z
" id="DejaVuSans-69"/>
     <path d="M 44.28125 53.078125 
L 44.28125 44.578125 
Q 40.484375 46.53125 36.375 47.5 
Q 32.28125 48.484375 27.875 48.484375 
Q 21.1875 48.484375 17.84375 46.4375 
Q 14.5 44.390625 14.5 40.28125 
Q 14.5 37.15625 16.890625 35.375 
Q 19.28125 33.59375 26.515625 31.984375 
L 29.59375 31.296875 
Q 39.15625 29.25 43.1875 25.515625 
Q 47.21875 21.78125 47.21875 15.09375 
Q 47.21875 7.46875 41.1875 3.015625 
Q 35.15625 -1.421875 24.609375 -1.421875 
Q 20.21875 -1.421875 15.453125 -0.5625 
Q 10.6875 0.296875 5.421875 2 
L 5.421875 11.28125 
Q 10.40625 8.6875 15.234375 7.390625 
Q 20.0625 6.109375 24.8125 6.109375 
Q 31.15625 6.109375 34.5625 8.28125 
Q 37.984375 10.453125 37.984375 14.40625 
Q 37.984375 18.0625 35.515625 20.015625 
Q 33.0625 21.96875 24.703125 23.78125 
L 21.578125 24.515625 
Q 13.234375 26.265625 9.515625 29.90625 
Q 5.8125 33.546875 5.8125 39.890625 
Q 5.8125 47.609375 11.28125 51.796875 
Q 16.75 56 26.8125 56 
Q 31.78125 56 36.171875 55.265625 
Q 40.578125 54.546875 44.28125 53.078125 
" id="DejaVuSans-73"/>
     <path d="M 18.3125 70.21875 
L 18.3125 54.6875 
L 36.8125 54.6875 
L 36.8125 47.703125 
L 18.3125 47.703125 
L 18.3125 18.015625 
Q 18.3125 11.328125 20.140625 9.421875 
Q 21.96875 7.515625 27.59375 7.515625 
L 36.8125 7.515625 
L 36.8125 0 
L 27.59375 0 
Q 17.1875 0 13.234375 3.875 
Q 9.28125 7.765625 9.28125 18.015625 
L 9.28125 47.703125 
L 2.6875 47.703125 
L 2.6875 54.6875 
L 9.28125 54.6875 
L 9.28125 70.21875 
z
" id="DejaVuSans-74"/>
     <path d="M 41.109375 46.296875 
Q 39.59375 47.171875 37.8125 47.578125 
Q 36.03125 48 33.890625 48 
Q 26.265625 48 22.1875 43.046875 
Q 18.109375 38.09375 18.109375 28.8125 
L 18.109375 0 
L 9.078125 0 
L 9.078125 54.6875 
L 18.109375 54.6875 
L 18.109375 46.1875 
Q 20.953125 51.171875 25.484375 53.578125 
Q 30.03125 56 36.53125 56 
Q 37.453125 56 38.578125 55.875 
Q 39.703125 55.765625 41.0625 55.515625 
z
" id="DejaVuSans-72"/>
     <path d="M 48.6875 27.296875 
Q 48.6875 37.203125 44.609375 42.84375 
Q 40.53125 48.484375 33.40625 48.484375 
Q 26.265625 48.484375 22.1875 42.84375 
Q 18.109375 37.203125 18.109375 27.296875 
Q 18.109375 17.390625 22.1875 11.75 
Q 26.265625 6.109375 33.40625 6.109375 
Q 40.53125 6.109375 44.609375 11.75 
Q 48.6875 17.390625 48.6875 27.296875 
M 18.109375 46.390625 
Q 20.953125 51.265625 25.265625 53.625 
Q 29.59375 56 35.59375 56 
Q 45.5625 56 51.78125 48.09375 
Q 58.015625 40.1875 58.015625 27.296875 
Q 58.015625 14.40625 51.78125 6.484375 
Q 45.5625 -1.421875 35.59375 -1.421875 
Q 29.59375 -1.421875 25.265625 0.953125 
Q 20.953125 3.328125 18.109375 8.203125 
L 18.109375 0 
L 9.078125 0 
L 9.078125 75.984375 
L 18.109375 75.984375 
z
" id="DejaVuSans-62"/>
     <path d="M 30.609375 48.390625 
Q 23.390625 48.390625 19.1875 42.75 
Q 14.984375 37.109375 14.984375 27.296875 
Q 14.984375 17.484375 19.15625 11.84375 
Q 23.34375 6.203125 30.609375 6.203125 
Q 37.796875 6.203125 41.984375 11.859375 
Q 46.1875 17.53125 46.1875 27.296875 
Q 46.1875 37.015625 41.984375 42.703125 
Q 37.796875 48.390625 30.609375 48.390625 
M 30.609375 56 
Q 42.328125 56 49.015625 48.375 
Q 55.71875 40.765625 55.71875 27.296875 
Q 55.71875 13.875 49.015625 6.21875 
Q 42.328125 -1.421875 30.609375 -1.421875 
Q 18.84375 -1.421875 12.171875 6.21875 
Q 5.515625 13.875 5.515625 27.296875 
Q 5.515625 40.765625 12.171875 48.375 
Q 18.84375 56 30.609375 56 
" id="DejaVuSans-6f"/>
     <path d="M 54.890625 33.015625 
L 54.890625 0 
L 45.90625 0 
L 45.90625 32.71875 
Q 45.90625 40.484375 42.875 44.328125 
Q 39.84375 48.1875 33.796875 48.1875 
Q 26.515625 48.1875 22.3125 43.546875 
Q 18.109375 38.921875 18.109375 30.90625 
L 18.109375 0 
L 9.078125 0 
L 9.078125 54.6875 
L 18.109375 54.6875 
L 18.109375 46.1875 
Q 21.34375 51.125 25.703125 53.5625 
Q 30.078125 56 35.796875 56 
Q 45.21875 56 50.046875 50.171875 
Q 54.890625 44.34375 54.890625 33.015625 
" id="DejaVuSans-6e"/>
     <path id="DejaVuSans-20"/>
     <path d="M 37.109375 75.984375 
L 37.109375 68.5 
L 28.515625 68.5 
Q 23.6875 68.5 21.796875 66.546875 
Q 19.921875 64.59375 19.921875 59.515625 
L 19.921875 54.6875 
L 34.71875 54.6875 
L 34.71875 47.703125 
L 19.921875 47.703125 
L 19.921875 0 
L 10.890625 0 
L 10.890625 47.703125 
L 2.296875 47.703125 
L 2.296875 54.6875 
L 10.890625 54.6875 
L 10.890625 58.5 
Q 10.890625 67.625 15.140625 71.796875 
Q 19.390625 75.984375 28.609375 75.984375 
z
" id="DejaVuSans-66"/>
    </defs>
    <g style="fill:#d9534f;" transform="translate(59.301818 69.876118)scale(0.15 -0.15)">
     <use xlink:href="#DejaVuSans-44"/>
     <use x="77.001953" xlink:href="#DejaVuSans-69"/>
     <use x="104.785156" xlink:href="#DejaVuSans-73"/>
     <use x="156.884766" xlink:href="#DejaVuSans-74"/>
     <use x="196.09375" xlink:href="#DejaVuSans-72"/>
     <use x="237.207031" xlink:href="#DejaVuSans-69"/>
     <use x="264.990234" xlink:href="#DejaVuSans-62"/>
     <use x="328.466797" xlink:href="#DejaVuSans-75"/>
     <use x="391.845703" xlink:href="#DejaVuSans-74"/>
     <use x="431.054688" xlink:href="#DejaVuSans-69"/>
     <use x="458.837891" xlink:href="#DejaVuSans-6f"/>
     <use x="520.019531" xlink:href="#DejaVuSans-6e"/>
     <use x="583.398438" xlink:href="#DejaVuSans-20"/>
     <use x="615.185547" xlink:href="#DejaVuSans-6f"/>
     <use x="676.367188" xlink:href="#DejaVuSans-66"/>
    </g>
    <!-- the Population data -->
    <defs>
     <path d="M 54.890625 33.015625 
L 54.890625 0 
L 45.90625 0 
L 45.90625 32.71875 
Q 45.90625 40.484375 42.875 44.328125 
Q 39.84375 48.1875 33.796875 48.1875 
Q 26.515625 48.1875 22.3125 43.546875 
Q 18.109375 38.921875 18.109375 30.90625 
L 18.109375 0 
L 9.078125 0 
L 9.078125 75.984375 
L 18.109375 75.984375 
L 18.109375 46.1875 
Q 21.34375 51.125 25.703125 53.5625 
Q 30.078125 56 35.796875 56 
Q 45.21875 56 50.046875 50.171875 
Q 54.890625 44.34375 54.890625 33.015625 
" id="DejaVuSans-68"/>
     <path d="M 19.671875 64.796875 
L 19.671875 37.40625 
L 32.078125 37.40625 
Q 38.96875 37.40625 42.71875 40.96875 
Q 46.484375 44.53125 46.484375 51.125 
Q 46.484375 57.671875 42.71875 61.234375 
Q 38.96875 64.796875 32.078125 64.796875 
z
M 9.8125 72.90625 
L 32.078125 72.90625 
Q 44.34375 72.90625 50.609375 67.359375 
Q 56.890625 61.8125 56.890625 51.125 
Q 56.890625 40.328125 50.609375 34.8125 
Q 44.34375 29.296875 32.078125 29.296875 
L 19.671875 29.296875 
L 19.671875 0 
L 9.8125 0 
z
" id="DejaVuSans-50"/>
     <path d="M 18.109375 8.203125 
L 18.109375 -20.796875 
L 9.078125 -20.796875 
L 9.078125 54.6875 
L 18.109375 54.6875 
L 18.109375 46.390625 
Q 20.953125 51.265625 25.265625 53.625 
Q 29.59375 56 35.59375 56 
Q 45.5625 56 51.78125 48.09375 
Q 58.015625 40.1875 58.015625 27.296875 
Q 58.015625 14.40625 51.78125 6.484375 
Q 45.5625 -1.421875 35.59375 -1.421875 
Q 29.59375 -1.421875 25.265625 0.953125 
Q 20.953125 3.328125 18.109375 8.203125 
M 48.6875 27.296875 
Q 48.6875 37.203125 44.609375 42.84375 
Q 40.53125 48.484375 33.40625 48.484375 
Q 26.265625 48.484375 22.1875 42.84375 
Q 18.109375 37.203125 18.109375 27.296875 
Q 18.109375 17.390625 22.1875 11.75 
Q 26.265625 6.109375 33.40625 6.109375 
Q 40.53125 6.109375 44.609375 11.75 
Q 48.6875 17.390625 48.6875 27.296875 
" id="DejaVuSans-70"/>
     <path d="M 45.40625 46.390625 
L 45.40625 75.984375 
L 54.390625 75.984375 
L 54.390625 0 
L 45.40625 0 
L 45.40625 8.203125 
Q 42.578125 3.328125 38.25 0.953125 
Q 33.9375 -1.421875 27.875 -1.421875 
Q 17.96875 -1.421875 11.734375 6.484375 
Q 5.515625 14.40625 5.515625 27.296875 
Q 5.515625 40.1875 11.734375 48.09375 
Q 17.96875 56 27.875 56 
Q 33.9375 56 38.25 53.625 
Q 42.578125 51.265625 45.40625 46.390625 
M 14.796875 27.296875 
Q 14.796875 17.390625 18.875 11.75 
Q 22.953125 6.109375 30.078125 6.109375 
Q 37.203125 6.109375 41.296875 11.75 
Q 45.40625 17.390625 45.40625 27.296875 
Q 45.40625 37.203125 41.296875 42.84375 
Q 37.203125 48.484375 30.078125 48.484375 
Q 22.953125 48.484375 18.875 42.84375 
Q 14.796875 37.203125 14.796875 27.296875 
" id="DejaVuSans-64"/>
    </defs>
    <g style="fill:#d9534f;" transform="translate(59.301818 86.672837)scale(0.15 -0.15)">
     <use xlink:href="#DejaVuSans-74"/>
     <use x="39.208984" xlink:href="#DejaVuSans-68"/>
     <use x="102.587891" xlink:href="#DejaVuSans-65"/>
     <use x="164.111328" xlink:href="#DejaVuSans-20"/>
     <use x="195.898438" xlink:href="#DejaVuSans-50"/>
     <use x="256.154297" xlink:href="#DejaVuSans-6f"/>
     <use x="317.335938" xlink:href="#DejaVuSans-70"/>
     <use x="380.8125" xlink:href="#DejaVuSans-75"/>
     <use x="444.191406" xlink:href="#DejaVuSans-6c"/>
     <use x="471.974609" xlink:href="#DejaVuSans-61"/>
     <use x="533.253906" xlink:href="#DejaVuSans-74"/>
     <use x="572.462891" xlink:href="#DejaVuSans-69"/>
     <use x="600.246094" xlink:href="#DejaVuSans-6f"/>
     <use x="661.427734" xlink:href="#DejaVuSans-6e"/>
     <use x="724.806641" xlink:href="#DejaVuSans-20"/>
     <use x="756.59375" xlink:href="#DejaVuSans-64"/>
     <use x="820.070312" xlink:href="#DejaVuSans-61"/>
     <use x="881.349609" xlink:href="#DejaVuSans-74"/>
     <use x="920.558594" xlink:href="#DejaVuSans-61"/>
    </g>
    <!-- ($\mu_p=35$, $\sigma=5$) -->
    <defs>
     <path d="M 31 75.875 
Q 24.46875 64.65625 21.28125 53.65625 
Q 18.109375 42.671875 18.109375 31.390625 
Q 18.109375 20.125 21.3125 9.0625 
Q 24.515625 -2 31 -13.1875 
L 23.1875 -13.1875 
Q 15.875 -1.703125 12.234375 9.375 
Q 8.59375 20.453125 8.59375 31.390625 
Q 8.59375 42.28125 12.203125 53.3125 
Q 15.828125 64.359375 23.1875 75.875 
z
" id="DejaVuSans-28"/>
     <path d="M -1.3125 -20.796875 
L 13.375 54.6875 
L 22.40625 54.6875 
L 15.765625 20.65625 
Q 15.578125 19.625 15.421875 18.359375 
Q 15.28125 17.09375 15.28125 15.828125 
Q 15.28125 11.28125 18.140625 8.828125 
Q 21 6.390625 26.3125 6.390625 
Q 33.546875 6.390625 37.984375 10.484375 
Q 42.4375 14.59375 44 22.796875 
L 50.203125 54.6875 
L 59.1875 54.6875 
L 51.03125 12.640625 
Q 50.828125 11.71875 50.75 11.03125 
Q 50.6875 10.359375 50.6875 9.8125 
Q 50.6875 8.296875 51.296875 7.59375 
Q 51.90625 6.890625 53.21875 6.890625 
Q 53.71875 6.890625 54.5625 7.125 
Q 55.421875 7.375 56.984375 8.015625 
L 55.609375 0.78125 
Q 53.46875 -0.296875 51.515625 -0.859375 
Q 49.5625 -1.421875 47.703125 -1.421875 
Q 44.484375 -1.421875 42.65625 0.625 
Q 40.828125 2.6875 40.828125 6.296875 
Q 38.09375 2.390625 34.296875 0.484375 
Q 30.515625 -1.421875 25.390625 -1.421875 
Q 20.84375 -1.421875 17.453125 0.671875 
Q 14.0625 2.78125 12.984375 6.203125 
L 7.71875 -20.796875 
z
" id="DejaVuSans-Oblique-3bc"/>
     <path d="M 49.609375 33.6875 
Q 49.609375 40.875 46.484375 44.671875 
Q 43.359375 48.484375 37.5 48.484375 
Q 33.5 48.484375 29.859375 46.4375 
Q 26.21875 44.390625 23.390625 40.484375 
Q 20.609375 36.625 18.9375 31.15625 
Q 17.28125 25.6875 17.28125 20.3125 
Q 17.28125 13.484375 20.40625 9.796875 
Q 23.53125 6.109375 29.296875 6.109375 
Q 33.546875 6.109375 37.1875 8.109375 
Q 40.828125 10.109375 43.40625 13.921875 
Q 46.1875 17.921875 47.890625 23.34375 
Q 49.609375 28.765625 49.609375 33.6875 
M 21.78125 46.390625 
Q 25.390625 51.125 30.296875 53.5625 
Q 35.203125 56 41.21875 56 
Q 49.609375 56 54.25 50.5 
Q 58.890625 45.015625 58.890625 35.109375 
Q 58.890625 27 56 19.65625 
Q 53.125 12.3125 47.703125 6.5 
Q 44.09375 2.640625 39.546875 0.609375 
Q 35.015625 -1.421875 29.984375 -1.421875 
Q 24.171875 -1.421875 20.21875 1 
Q 16.265625 3.421875 14.3125 8.203125 
L 8.6875 -20.796875 
L -0.296875 -20.796875 
L 14.40625 54.6875 
L 23.390625 54.6875 
z
" id="DejaVuSans-Oblique-70"/>
     <path d="M 10.59375 45.40625 
L 73.1875 45.40625 
L 73.1875 37.203125 
L 10.59375 37.203125 
z
M 10.59375 25.484375 
L 73.1875 25.484375 
L 73.1875 17.1875 
L 10.59375 17.1875 
z
" id="DejaVuSans-3d"/>
     <path d="M 11.71875 12.40625 
L 22.015625 12.40625 
L 22.015625 4 
L 14.015625 -11.625 
L 7.71875 -11.625 
L 11.71875 4 
z
" id="DejaVuSans-2c"/>
     <path d="M 34.671875 47.5625 
Q 27.25 47.5625 22.21875 42.1875 
Q 16.890625 36.578125 15.140625 27.296875 
Q 13.1875 17.484375 16.3125 11.8125 
Q 19.390625 6.203125 26.65625 6.203125 
Q 33.84375 6.203125 39.109375 11.859375 
Q 44.4375 17.53125 46.34375 27.296875 
Q 48.046875 36.234375 45.015625 42.1875 
Q 42.1875 47.5625 34.671875 47.5625 
M 36.078125 54.734375 
L 65.921875 54.6875 
L 64.15625 45.703125 
L 54.109375 45.703125 
Q 57.90625 38.09375 55.859375 27.296875 
Q 53.21875 13.875 45.0625 6.25 
Q 36.859375 -1.421875 25.140625 -1.421875 
Q 13.375 -1.421875 8.203125 6.25 
Q 3.03125 13.875 5.671875 27.296875 
Q 8.25 40.765625 16.40625 48.390625 
Q 23.1875 54.734375 36.078125 54.734375 
" id="DejaVuSans-Oblique-3c3"/>
     <path d="M 8.015625 75.875 
L 15.828125 75.875 
Q 23.140625 64.359375 26.78125 53.3125 
Q 30.421875 42.28125 30.421875 31.390625 
Q 30.421875 20.453125 26.78125 9.375 
Q 23.140625 -1.703125 15.828125 -13.1875 
L 8.015625 -13.1875 
Q 14.5 -2 17.703125 9.0625 
Q 20.90625 20.125 20.90625 31.390625 
Q 20.90625 42.671875 17.703125 53.65625 
Q 14.5 64.65625 8.015625 75.875 
" id="DejaVuSans-29"/>
    </defs>
    <g style="fill:#d9534f;" transform="translate(59.301818 103.472368)scale(0.15 -0.15)">
     <use transform="translate(0 0.125)" xlink:href="#DejaVuSans-28"/>
     <use transform="translate(39.013672 0.125)" xlink:href="#DejaVuSans-Oblique-3bc"/>
     <use transform="translate(102.636719 -16.28125)scale(0.7)" xlink:href="#DejaVuSans-Oblique-70"/>
     <use transform="translate(169.287109 0.125)" xlink:href="#DejaVuSans-3d"/>
     <use transform="translate(272.558594 0.125)" xlink:href="#DejaVuSans-33"/>
     <use transform="translate(336.181641 0.125)" xlink:href="#DejaVuSans-35"/>
     <use transform="translate(399.804688 0.125)" xlink:href="#DejaVuSans-2c"/>
     <use transform="translate(431.591797 0.125)" xlink:href="#DejaVuSans-20"/>
     <use transform="translate(463.378906 0.125)" xlink:href="#DejaVuSans-Oblique-3c3"/>
     <use transform="translate(546.240234 0.125)" xlink:href="#DejaVuSans-3d"/>
     <use transform="translate(649.511719 0.125)" xlink:href="#DejaVuSans-35"/>
     <use transform="translate(713.134766 0.125)" xlink:href="#DejaVuSans-29"/>
    </g>
   </g>
   <g id="text_10">
    <!-- $\mu_p$ -->
    <g style="fill:#d2d2d2;" transform="translate(237.166364 20.16)scale(0.18 -0.18)">
     <use transform="translate(0 0.3125)" xlink:href="#DejaVuSans-Oblique-3bc"/>
     <use transform="translate(63.623047 -16.09375)scale(0.7)" xlink:href="#DejaVuSans-Oblique-70"/>
    </g>
   </g>
  </g>
  <g id="axes_2">
   <g id="PolyCollection_2">
    <defs>
     <path d="M 59.301818 -43.2 
L 59.301818 -43.2 
L 59.947182 -43.2 
L 60.592545 -43.2 
L 61.237909 -43.2 
L 61.883272 -43.2 
L 62.528635 -43.2 
L 63.173999 -43.2 
L 63.819362 -43.2 
L 64.464726 -43.2 
L 65.110089 -43.2 
L 65.755453 -43.2 
L 66.400816 -43.2 
L 67.04618 -43.2 
L 67.691543 -43.2 
L 68.336907 -43.2 
L 68.98227 -43.2 
L 69.627633 -43.2 
L 70.272997 -43.2 
L 70.91836 -43.2 
L 71.563724 -43.2 
L 72.209087 -43.2 
L 72.854451 -43.2 
L 73.499814 -43.2 
L 74.145178 -43.2 
L 74.790541 -43.2 
L 75.435905 -43.2 
L 76.081268 -43.2 
L 76.726631 -43.2 
L 77.371995 -43.2 
L 78.017358 -43.2 
L 78.662722 -43.2 
L 79.308085 -43.2 
L 79.953449 -43.2 
L 80.598812 -43.2 
L 81.244176 -43.2 
L 81.889539 -43.2 
L 82.534903 -43.2 
L 83.180266 -43.2 
L 83.825629 -43.2 
L 84.470993 -43.2 
L 85.116356 -43.2 
L 85.76172 -43.2 
L 86.407083 -43.2 
L 87.052447 -43.2 
L 87.69781 -43.2 
L 88.343174 -43.2 
L 88.988537 -43.2 
L 89.633901 -43.2 
L 90.279264 -43.2 
L 90.924627 -43.2 
L 91.569991 -43.2 
L 92.215354 -43.2 
L 92.860718 -43.2 
L 93.506081 -43.2 
L 94.151445 -43.2 
L 94.796808 -43.2 
L 95.442172 -43.2 
L 96.087535 -43.2 
L 96.732899 -43.2 
L 97.378262 -43.2 
L 98.023625 -43.2 
L 98.668989 -43.2 
L 99.314352 -43.2 
L 99.959716 -43.2 
L 100.605079 -43.2 
L 101.250443 -43.2 
L 101.895806 -43.2 
L 102.54117 -43.2 
L 103.186533 -43.2 
L 103.831897 -43.2 
L 104.47726 -43.2 
L 105.122623 -43.2 
L 105.767987 -43.2 
L 106.41335 -43.2 
L 107.058714 -43.2 
L 107.704077 -43.2 
L 108.349441 -43.2 
L 108.994804 -43.2 
L 109.640168 -43.2 
L 110.285531 -43.2 
L 110.930895 -43.2 
L 111.576258 -43.2 
L 112.221621 -43.2 
L 112.866985 -43.2 
L 113.512348 -43.2 
L 114.157712 -43.2 
L 114.803075 -43.2 
L 115.448439 -43.2 
L 116.093802 -43.2 
L 116.739166 -43.2 
L 117.384529 -43.2 
L 118.029893 -43.2 
L 118.675256 -43.2 
L 119.320619 -43.2 
L 119.965983 -43.2 
L 120.611346 -43.2 
L 121.25671 -43.2 
L 121.902073 -43.2 
L 122.547437 -43.2 
L 123.1928 -43.2 
L 123.838164 -43.2 
L 124.483527 -43.2 
L 125.128891 -43.2 
L 125.774254 -43.2 
L 126.419617 -43.2 
L 127.064981 -43.2 
L 127.710344 -43.2 
L 128.355708 -43.2 
L 129.001071 -43.2 
L 129.646435 -43.2 
L 130.291798 -43.2 
L 130.937162 -43.2 
L 131.582525 -43.2 
L 132.227889 -43.2 
L 132.873252 -43.2 
L 133.518615 -43.2 
L 134.163979 -43.2 
L 134.809342 -43.2 
L 135.454706 -43.2 
L 136.100069 -43.2 
L 136.745433 -43.2 
L 137.390796 -43.2 
L 138.03616 -43.2 
L 138.681523 -43.2 
L 139.326887 -43.2 
L 139.97225 -43.2 
L 140.617613 -43.2 
L 141.262977 -43.2 
L 141.90834 -43.2 
L 142.553704 -43.2 
L 143.199067 -43.2 
L 143.844431 -43.2 
L 144.489794 -43.2 
L 145.135158 -43.2 
L 145.780521 -43.2 
L 146.425884 -43.2 
L 147.071248 -43.2 
L 147.716611 -43.2 
L 148.361975 -43.2 
L 149.007338 -43.2 
L 149.652702 -43.2 
L 150.298065 -43.2 
L 150.943429 -43.2 
L 151.588792 -43.2 
L 152.234156 -43.2 
L 152.879519 -43.2 
L 153.524882 -43.2 
L 154.170246 -43.2 
L 154.815609 -43.2 
L 155.460973 -43.2 
L 156.106336 -43.2 
L 156.7517 -43.2 
L 157.397063 -43.2 
L 158.042427 -43.2 
L 158.68779 -43.2 
L 159.333154 -43.2 
L 159.978517 -43.2 
L 160.62388 -43.2 
L 161.269244 -43.2 
L 161.914607 -43.2 
L 162.559971 -43.2 
L 163.205334 -43.2 
L 163.850698 -43.2 
L 164.496061 -43.2 
L 165.141425 -43.2 
L 165.786788 -43.2 
L 166.432152 -43.2 
L 167.077515 -43.2 
L 167.722878 -43.2 
L 168.368242 -43.2 
L 169.013605 -43.2 
L 169.658969 -43.2 
L 170.304332 -43.2 
L 170.949696 -43.2 
L 171.595059 -43.2 
L 172.240423 -43.2 
L 172.885786 -43.2 
L 173.53115 -43.2 
L 174.176513 -43.2 
L 174.821876 -43.2 
L 175.46724 -43.2 
L 176.112603 -43.2 
L 176.757967 -43.2 
L 177.40333 -43.2 
L 178.048694 -43.2 
L 178.694057 -43.2 
L 179.339421 -43.2 
L 179.984784 -43.2 
L 180.630148 -43.2 
L 181.275511 -43.2 
L 181.920874 -43.2 
L 182.566238 -43.2 
L 183.211601 -43.2 
L 183.856965 -43.2 
L 184.502328 -43.2 
L 185.147692 -43.2 
L 185.793055 -43.2 
L 186.438419 -43.2 
L 187.083782 -43.2 
L 187.729146 -43.2 
L 188.374509 -43.2 
L 189.019872 -43.2 
L 189.665236 -43.2 
L 190.310599 -43.2 
L 190.955963 -43.2 
L 191.601326 -43.2 
L 192.24669 -43.2 
L 192.892053 -43.2 
L 193.537417 -43.2 
L 194.18278 -43.2 
L 194.828144 -43.2 
L 195.473507 -43.2 
L 196.11887 -43.2 
L 196.764234 -43.2 
L 197.409597 -43.2 
L 198.054961 -43.2 
L 198.700324 -43.2 
L 199.345688 -43.2 
L 199.991051 -43.2 
L 200.636415 -43.2 
L 201.281778 -43.2 
L 201.927142 -43.2 
L 202.572505 -43.2 
L 203.217868 -43.2 
L 203.863232 -43.2 
L 204.508595 -43.2 
L 205.153959 -43.2 
L 205.799322 -43.2 
L 206.444686 -43.2 
L 207.090049 -43.2 
L 207.735413 -43.2 
L 208.380776 -43.2 
L 209.02614 -43.2 
L 209.671503 -43.2 
L 210.316866 -43.2 
L 210.96223 -43.2 
L 211.607593 -43.2 
L 212.252957 -43.2 
L 212.89832 -43.2 
L 213.543684 -43.2 
L 214.189047 -43.2 
L 214.834411 -43.2 
L 215.479774 -43.2 
L 216.125138 -43.2 
L 216.770501 -43.2 
L 217.415864 -43.2 
L 218.061228 -43.2 
L 218.706591 -43.2 
L 219.351955 -43.2 
L 219.997318 -43.2 
L 220.642682 -43.200001 
L 221.288045 -43.200002 
L 221.933409 -43.200004 
L 222.578772 -43.200011 
L 223.224136 -43.200025 
L 223.869499 -43.200059 
L 224.514862 -43.200135 
L 225.160226 -43.200301 
L 225.805589 -43.200654 
L 226.450953 -43.201389 
L 227.096316 -43.202884 
L 227.74168 -43.205852 
L 228.387043 -43.211602 
L 229.032407 -43.222474 
L 229.67777 -43.242539 
L 230.323134 -43.278678 
L 230.968497 -43.34219 
L 231.61386 -43.451096 
L 232.259224 -43.633277 
L 232.904587 -43.93054 
L 233.549951 -44.403584 
L 234.195314 -45.137593 
L 234.840678 -46.247913 
L 235.486041 -47.884854 
L 236.131405 -50.236283 
L 236.776768 -53.52629 
L 237.422132 -58.008088 
L 238.067495 -63.949488 
L 238.712858 -71.609885 
L 239.358222 -81.208899 
L 240.003585 -92.888378 
L 240.648949 -106.671396 
L 241.294312 -122.423677 
L 241.939676 -139.824142 
L 242.585039 -158.35161 
L 243.230403 -177.293612 
L 243.875766 -195.780796 
L 244.52113 -212.846682 
L 245.166493 -227.508165 
L 245.811856 -238.857946 
L 246.45722 -246.157038 
L 247.102583 -248.914286 
L 247.747947 -246.94103 
L 248.39331 -240.37246 
L 249.038674 -229.652289 
L 249.684037 -215.483187 
L 250.329401 -198.750633 
L 250.974764 -180.43168 
L 251.620128 -161.501619 
L 252.265491 -142.85078 
L 252.910854 -125.220881 
L 253.556218 -109.166261 
L 254.201581 -95.040958 
L 254.846945 -83.008689 
L 255.492308 -73.070084 
L 256.137672 -65.100232 
L 256.783035 -58.889702 
L 257.428399 -54.183339 
L 258.073762 -50.712904 
L 258.719126 -48.221517 
L 259.364489 -46.479561 
L 260.009852 -45.292909 
L 260.655216 -44.505084 
L 261.300579 -43.995208 
L 261.945943 -43.673452 
L 262.591306 -43.475439 
L 263.23667 -43.356577 
L 263.882033 -43.286973 
L 264.527397 -43.247206 
L 265.17276 -43.225036 
L 265.818124 -43.212974 
L 266.463487 -43.20657 
L 267.10885 -43.203251 
L 267.754214 -43.201572 
L 268.399577 -43.200742 
L 269.044941 -43.200343 
L 269.690304 -43.200155 
L 270.335668 -43.200068 
L 270.981031 -43.200029 
L 271.626395 -43.200012 
L 272.271758 -43.200005 
L 272.917122 -43.200002 
L 273.562485 -43.200001 
L 274.207848 -43.2 
L 274.853212 -43.2 
L 275.498575 -43.2 
L 276.143939 -43.2 
L 276.789302 -43.2 
L 277.434666 -43.2 
L 278.080029 -43.2 
L 278.725393 -43.2 
L 279.370756 -43.2 
L 280.01612 -43.2 
L 280.661483 -43.2 
L 281.306846 -43.2 
L 281.95221 -43.2 
L 282.597573 -43.2 
L 283.242937 -43.2 
L 283.8883 -43.2 
L 284.533664 -43.2 
L 285.179027 -43.2 
L 285.824391 -43.2 
L 286.469754 -43.2 
L 287.115118 -43.2 
L 287.760481 -43.2 
L 288.405844 -43.2 
L 289.051208 -43.2 
L 289.696571 -43.2 
L 290.341935 -43.2 
L 290.987298 -43.2 
L 291.632662 -43.2 
L 292.278025 -43.2 
L 292.923389 -43.2 
L 293.568752 -43.2 
L 294.214116 -43.2 
L 294.859479 -43.2 
L 295.504842 -43.2 
L 296.150206 -43.2 
L 296.795569 -43.2 
L 297.440933 -43.2 
L 298.086296 -43.2 
L 298.73166 -43.2 
L 299.377023 -43.2 
L 300.022387 -43.2 
L 300.66775 -43.2 
L 301.313113 -43.2 
L 301.958477 -43.2 
L 302.60384 -43.2 
L 303.249204 -43.2 
L 303.894567 -43.2 
L 304.539931 -43.2 
L 305.185294 -43.2 
L 305.830658 -43.2 
L 306.476021 -43.2 
L 307.121385 -43.2 
L 307.766748 -43.2 
L 308.412111 -43.2 
L 309.057475 -43.2 
L 309.702838 -43.2 
L 310.348202 -43.2 
L 310.993565 -43.2 
L 311.638929 -43.2 
L 312.284292 -43.2 
L 312.929656 -43.2 
L 313.575019 -43.2 
L 314.220383 -43.2 
L 314.865746 -43.2 
L 315.511109 -43.2 
L 316.156473 -43.2 
L 316.801836 -43.2 
L 317.4472 -43.2 
L 318.092563 -43.2 
L 318.737927 -43.2 
L 319.38329 -43.2 
L 320.028654 -43.2 
L 320.674017 -43.2 
L 321.319381 -43.2 
L 321.964744 -43.2 
L 322.610107 -43.2 
L 323.255471 -43.2 
L 323.900834 -43.2 
L 324.546198 -43.2 
L 325.191561 -43.2 
L 325.836925 -43.2 
L 326.482288 -43.2 
L 327.127652 -43.2 
L 327.773015 -43.2 
L 328.418379 -43.2 
L 329.063742 -43.2 
L 329.709105 -43.2 
L 330.354469 -43.2 
L 330.999832 -43.2 
L 331.645196 -43.2 
L 332.290559 -43.2 
L 332.935923 -43.2 
L 333.581286 -43.2 
L 334.22665 -43.2 
L 334.872013 -43.2 
L 335.517377 -43.2 
L 336.16274 -43.2 
L 336.808103 -43.2 
L 337.453467 -43.2 
L 338.09883 -43.2 
L 338.744194 -43.2 
L 339.389557 -43.2 
L 340.034921 -43.2 
L 340.680284 -43.2 
L 341.325648 -43.2 
L 341.971011 -43.2 
L 342.616375 -43.2 
L 343.261738 -43.2 
L 343.907101 -43.2 
L 344.552465 -43.2 
L 345.197828 -43.2 
L 345.843192 -43.2 
L 346.488555 -43.2 
L 347.133919 -43.2 
L 347.779282 -43.2 
L 348.424646 -43.2 
L 349.070009 -43.2 
L 349.715373 -43.2 
L 350.360736 -43.2 
L 351.006099 -43.2 
L 351.651463 -43.2 
L 352.296826 -43.2 
L 352.94219 -43.2 
L 353.587553 -43.2 
L 354.232917 -43.2 
L 354.87828 -43.2 
L 355.523644 -43.2 
L 356.169007 -43.2 
L 356.814371 -43.2 
L 357.459734 -43.2 
L 358.105097 -43.2 
L 358.750461 -43.2 
L 359.395824 -43.2 
L 360.041188 -43.2 
L 360.686551 -43.2 
L 361.331915 -43.2 
L 361.977278 -43.2 
L 362.622642 -43.2 
L 363.268005 -43.2 
L 363.913369 -43.2 
L 364.558732 -43.2 
L 365.204095 -43.2 
L 365.849459 -43.2 
L 366.494822 -43.2 
L 367.140186 -43.2 
L 367.785549 -43.2 
L 368.430913 -43.2 
L 369.076276 -43.2 
L 369.72164 -43.2 
L 370.367003 -43.2 
L 371.012367 -43.2 
L 371.65773 -43.2 
L 372.303093 -43.2 
L 372.948457 -43.2 
L 373.59382 -43.2 
L 374.239184 -43.2 
L 374.884547 -43.2 
L 375.529911 -43.2 
L 376.175274 -43.2 
L 376.820638 -43.2 
L 377.466001 -43.2 
L 378.111365 -43.2 
L 378.756728 -43.2 
L 379.402091 -43.2 
L 380.047455 -43.2 
L 380.692818 -43.2 
L 381.338182 -43.2 
L 381.338182 -43.2 
L 381.338182 -43.2 
L 380.692818 -43.2 
L 380.047455 -43.2 
L 379.402091 -43.2 
L 378.756728 -43.2 
L 378.111365 -43.2 
L 377.466001 -43.2 
L 376.820638 -43.2 
L 376.175274 -43.2 
L 375.529911 -43.2 
L 374.884547 -43.2 
L 374.239184 -43.2 
L 373.59382 -43.2 
L 372.948457 -43.2 
L 372.303093 -43.2 
L 371.65773 -43.2 
L 371.012367 -43.2 
L 370.367003 -43.2 
L 369.72164 -43.2 
L 369.076276 -43.2 
L 368.430913 -43.2 
L 367.785549 -43.2 
L 367.140186 -43.2 
L 366.494822 -43.2 
L 365.849459 -43.2 
L 365.204095 -43.2 
L 364.558732 -43.2 
L 363.913369 -43.2 
L 363.268005 -43.2 
L 362.622642 -43.2 
L 361.977278 -43.2 
L 361.331915 -43.2 
L 360.686551 -43.2 
L 360.041188 -43.2 
L 359.395824 -43.2 
L 358.750461 -43.2 
L 358.105097 -43.2 
L 357.459734 -43.2 
L 356.814371 -43.2 
L 356.169007 -43.2 
L 355.523644 -43.2 
L 354.87828 -43.2 
L 354.232917 -43.2 
L 353.587553 -43.2 
L 352.94219 -43.2 
L 352.296826 -43.2 
L 351.651463 -43.2 
L 351.006099 -43.2 
L 350.360736 -43.2 
L 349.715373 -43.2 
L 349.070009 -43.2 
L 348.424646 -43.2 
L 347.779282 -43.2 
L 347.133919 -43.2 
L 346.488555 -43.2 
L 345.843192 -43.2 
L 345.197828 -43.2 
L 344.552465 -43.2 
L 343.907101 -43.2 
L 343.261738 -43.2 
L 342.616375 -43.2 
L 341.971011 -43.2 
L 341.325648 -43.2 
L 340.680284 -43.2 
L 340.034921 -43.2 
L 339.389557 -43.2 
L 338.744194 -43.2 
L 338.09883 -43.2 
L 337.453467 -43.2 
L 336.808103 -43.2 
L 336.16274 -43.2 
L 335.517377 -43.2 
L 334.872013 -43.2 
L 334.22665 -43.2 
L 333.581286 -43.2 
L 332.935923 -43.2 
L 332.290559 -43.2 
L 331.645196 -43.2 
L 330.999832 -43.2 
L 330.354469 -43.2 
L 329.709105 -43.2 
L 329.063742 -43.2 
L 328.418379 -43.2 
L 327.773015 -43.2 
L 327.127652 -43.2 
L 326.482288 -43.2 
L 325.836925 -43.2 
L 325.191561 -43.2 
L 324.546198 -43.2 
L 323.900834 -43.2 
L 323.255471 -43.2 
L 322.610107 -43.2 
L 321.964744 -43.2 
L 321.319381 -43.2 
L 320.674017 -43.2 
L 320.028654 -43.2 
L 319.38329 -43.2 
L 318.737927 -43.2 
L 318.092563 -43.2 
L 317.4472 -43.2 
L 316.801836 -43.2 
L 316.156473 -43.2 
L 315.511109 -43.2 
L 314.865746 -43.2 
L 314.220383 -43.2 
L 313.575019 -43.2 
L 312.929656 -43.2 
L 312.284292 -43.2 
L 311.638929 -43.2 
L 310.993565 -43.2 
L 310.348202 -43.2 
L 309.702838 -43.2 
L 309.057475 -43.2 
L 308.412111 -43.2 
L 307.766748 -43.2 
L 307.121385 -43.2 
L 306.476021 -43.2 
L 305.830658 -43.2 
L 305.185294 -43.2 
L 304.539931 -43.2 
L 303.894567 -43.2 
L 303.249204 -43.2 
L 302.60384 -43.2 
L 301.958477 -43.2 
L 301.313113 -43.2 
L 300.66775 -43.2 
L 300.022387 -43.2 
L 299.377023 -43.2 
L 298.73166 -43.2 
L 298.086296 -43.2 
L 297.440933 -43.2 
L 296.795569 -43.2 
L 296.150206 -43.2 
L 295.504842 -43.2 
L 294.859479 -43.2 
L 294.214116 -43.2 
L 293.568752 -43.2 
L 292.923389 -43.2 
L 292.278025 -43.2 
L 291.632662 -43.2 
L 290.987298 -43.2 
L 290.341935 -43.2 
L 289.696571 -43.2 
L 289.051208 -43.2 
L 288.405844 -43.2 
L 287.760481 -43.2 
L 287.115118 -43.2 
L 286.469754 -43.2 
L 285.824391 -43.2 
L 285.179027 -43.2 
L 284.533664 -43.2 
L 283.8883 -43.2 
L 283.242937 -43.2 
L 282.597573 -43.2 
L 281.95221 -43.2 
L 281.306846 -43.2 
L 280.661483 -43.2 
L 280.01612 -43.2 
L 279.370756 -43.2 
L 278.725393 -43.2 
L 278.080029 -43.2 
L 277.434666 -43.2 
L 276.789302 -43.2 
L 276.143939 -43.2 
L 275.498575 -43.2 
L 274.853212 -43.2 
L 274.207848 -43.2 
L 273.562485 -43.2 
L 272.917122 -43.2 
L 272.271758 -43.2 
L 271.626395 -43.2 
L 270.981031 -43.2 
L 270.335668 -43.2 
L 269.690304 -43.2 
L 269.044941 -43.2 
L 268.399577 -43.2 
L 267.754214 -43.2 
L 267.10885 -43.2 
L 266.463487 -43.2 
L 265.818124 -43.2 
L 265.17276 -43.2 
L 264.527397 -43.2 
L 263.882033 -43.2 
L 263.23667 -43.2 
L 262.591306 -43.2 
L 261.945943 -43.2 
L 261.300579 -43.2 
L 260.655216 -43.2 
L 260.009852 -43.2 
L 259.364489 -43.2 
L 258.719126 -43.2 
L 258.073762 -43.2 
L 257.428399 -43.2 
L 256.783035 -43.2 
L 256.137672 -43.2 
L 255.492308 -43.2 
L 254.846945 -43.2 
L 254.201581 -43.2 
L 253.556218 -43.2 
L 252.910854 -43.2 
L 252.265491 -43.2 
L 251.620128 -43.2 
L 250.974764 -43.2 
L 250.329401 -43.2 
L 249.684037 -43.2 
L 249.038674 -43.2 
L 248.39331 -43.2 
L 247.747947 -43.2 
L 247.102583 -43.2 
L 246.45722 -43.2 
L 245.811856 -43.2 
L 245.166493 -43.2 
L 244.52113 -43.2 
L 243.875766 -43.2 
L 243.230403 -43.2 
L 242.585039 -43.2 
L 241.939676 -43.2 
L 241.294312 -43.2 
L 240.648949 -43.2 
L 240.003585 -43.2 
L 239.358222 -43.2 
L 238.712858 -43.2 
L 238.067495 -43.2 
L 237.422132 -43.2 
L 236.776768 -43.2 
L 236.131405 -43.2 
L 235.486041 -43.2 
L 234.840678 -43.2 
L 234.195314 -43.2 
L 233.549951 -43.2 
L 232.904587 -43.2 
L 232.259224 -43.2 
L 231.61386 -43.2 
L 230.968497 -43.2 
L 230.323134 -43.2 
L 229.67777 -43.2 
L 229.032407 -43.2 
L 228.387043 -43.2 
L 227.74168 -43.2 
L 227.096316 -43.2 
L 226.450953 -43.2 
L 225.805589 -43.2 
L 225.160226 -43.2 
L 224.514862 -43.2 
L 223.869499 -43.2 
L 223.224136 -43.2 
L 222.578772 -43.2 
L 221.933409 -43.2 
L 221.288045 -43.2 
L 220.642682 -43.2 
L 219.997318 -43.2 
L 219.351955 -43.2 
L 218.706591 -43.2 
L 218.061228 -43.2 
L 217.415864 -43.2 
L 216.770501 -43.2 
L 216.125138 -43.2 
L 215.479774 -43.2 
L 214.834411 -43.2 
L 214.189047 -43.2 
L 213.543684 -43.2 
L 212.89832 -43.2 
L 212.252957 -43.2 
L 211.607593 -43.2 
L 210.96223 -43.2 
L 210.316866 -43.2 
L 209.671503 -43.2 
L 209.02614 -43.2 
L 208.380776 -43.2 
L 207.735413 -43.2 
L 207.090049 -43.2 
L 206.444686 -43.2 
L 205.799322 -43.2 
L 205.153959 -43.2 
L 204.508595 -43.2 
L 203.863232 -43.2 
L 203.217868 -43.2 
L 202.572505 -43.2 
L 201.927142 -43.2 
L 201.281778 -43.2 
L 200.636415 -43.2 
L 199.991051 -43.2 
L 199.345688 -43.2 
L 198.700324 -43.2 
L 198.054961 -43.2 
L 197.409597 -43.2 
L 196.764234 -43.2 
L 196.11887 -43.2 
L 195.473507 -43.2 
L 194.828144 -43.2 
L 194.18278 -43.2 
L 193.537417 -43.2 
L 192.892053 -43.2 
L 192.24669 -43.2 
L 191.601326 -43.2 
L 190.955963 -43.2 
L 190.310599 -43.2 
L 189.665236 -43.2 
L 189.019872 -43.2 
L 188.374509 -43.2 
L 187.729146 -43.2 
L 187.083782 -43.2 
L 186.438419 -43.2 
L 185.793055 -43.2 
L 185.147692 -43.2 
L 184.502328 -43.2 
L 183.856965 -43.2 
L 183.211601 -43.2 
L 182.566238 -43.2 
L 181.920874 -43.2 
L 181.275511 -43.2 
L 180.630148 -43.2 
L 179.984784 -43.2 
L 179.339421 -43.2 
L 178.694057 -43.2 
L 178.048694 -43.2 
L 177.40333 -43.2 
L 176.757967 -43.2 
L 176.112603 -43.2 
L 175.46724 -43.2 
L 174.821876 -43.2 
L 174.176513 -43.2 
L 173.53115 -43.2 
L 172.885786 -43.2 
L 172.240423 -43.2 
L 171.595059 -43.2 
L 170.949696 -43.2 
L 170.304332 -43.2 
L 169.658969 -43.2 
L 169.013605 -43.2 
L 168.368242 -43.2 
L 167.722878 -43.2 
L 167.077515 -43.2 
L 166.432152 -43.2 
L 165.786788 -43.2 
L 165.141425 -43.2 
L 164.496061 -43.2 
L 163.850698 -43.2 
L 163.205334 -43.2 
L 162.559971 -43.2 
L 161.914607 -43.2 
L 161.269244 -43.2 
L 160.62388 -43.2 
L 159.978517 -43.2 
L 159.333154 -43.2 
L 158.68779 -43.2 
L 158.042427 -43.2 
L 157.397063 -43.2 
L 156.7517 -43.2 
L 156.106336 -43.2 
L 155.460973 -43.2 
L 154.815609 -43.2 
L 154.170246 -43.2 
L 153.524882 -43.2 
L 152.879519 -43.2 
L 152.234156 -43.2 
L 151.588792 -43.2 
L 150.943429 -43.2 
L 150.298065 -43.2 
L 149.652702 -43.2 
L 149.007338 -43.2 
L 148.361975 -43.2 
L 147.716611 -43.2 
L 147.071248 -43.2 
L 146.425884 -43.2 
L 145.780521 -43.2 
L 145.135158 -43.2 
L 144.489794 -43.2 
L 143.844431 -43.2 
L 143.199067 -43.2 
L 142.553704 -43.2 
L 141.90834 -43.2 
L 141.262977 -43.2 
L 140.617613 -43.2 
L 139.97225 -43.2 
L 139.326887 -43.2 
L 138.681523 -43.2 
L 138.03616 -43.2 
L 137.390796 -43.2 
L 136.745433 -43.2 
L 136.100069 -43.2 
L 135.454706 -43.2 
L 134.809342 -43.2 
L 134.163979 -43.2 
L 133.518615 -43.2 
L 132.873252 -43.2 
L 132.227889 -43.2 
L 131.582525 -43.2 
L 130.937162 -43.2 
L 130.291798 -43.2 
L 129.646435 -43.2 
L 129.001071 -43.2 
L 128.355708 -43.2 
L 127.710344 -43.2 
L 127.064981 -43.2 
L 126.419617 -43.2 
L 125.774254 -43.2 
L 125.128891 -43.2 
L 124.483527 -43.2 
L 123.838164 -43.2 
L 123.1928 -43.2 
L 122.547437 -43.2 
L 121.902073 -43.2 
L 121.25671 -43.2 
L 120.611346 -43.2 
L 119.965983 -43.2 
L 119.320619 -43.2 
L 118.675256 -43.2 
L 118.029893 -43.2 
L 117.384529 -43.2 
L 116.739166 -43.2 
L 116.093802 -43.2 
L 115.448439 -43.2 
L 114.803075 -43.2 
L 114.157712 -43.2 
L 113.512348 -43.2 
L 112.866985 -43.2 
L 112.221621 -43.2 
L 111.576258 -43.2 
L 110.930895 -43.2 
L 110.285531 -43.2 
L 109.640168 -43.2 
L 108.994804 -43.2 
L 108.349441 -43.2 
L 107.704077 -43.2 
L 107.058714 -43.2 
L 106.41335 -43.2 
L 105.767987 -43.2 
L 105.122623 -43.2 
L 104.47726 -43.2 
L 103.831897 -43.2 
L 103.186533 -43.2 
L 102.54117 -43.2 
L 101.895806 -43.2 
L 101.250443 -43.2 
L 100.605079 -43.2 
L 99.959716 -43.2 
L 99.314352 -43.2 
L 98.668989 -43.2 
L 98.023625 -43.2 
L 97.378262 -43.2 
L 96.732899 -43.2 
L 96.087535 -43.2 
L 95.442172 -43.2 
L 94.796808 -43.2 
L 94.151445 -43.2 
L 93.506081 -43.2 
L 92.860718 -43.2 
L 92.215354 -43.2 
L 91.569991 -43.2 
L 90.924627 -43.2 
L 90.279264 -43.2 
L 89.633901 -43.2 
L 88.988537 -43.2 
L 88.343174 -43.2 
L 87.69781 -43.2 
L 87.052447 -43.2 
L 86.407083 -43.2 
L 85.76172 -43.2 
L 85.116356 -43.2 
L 84.470993 -43.2 
L 83.825629 -43.2 
L 83.180266 -43.2 
L 82.534903 -43.2 
L 81.889539 -43.2 
L 81.244176 -43.2 
L 80.598812 -43.2 
L 79.953449 -43.2 
L 79.308085 -43.2 
L 78.662722 -43.2 
L 78.017358 -43.2 
L 77.371995 -43.2 
L 76.726631 -43.2 
L 76.081268 -43.2 
L 75.435905 -43.2 
L 74.790541 -43.2 
L 74.145178 -43.2 
L 73.499814 -43.2 
L 72.854451 -43.2 
L 72.209087 -43.2 
L 71.563724 -43.2 
L 70.91836 -43.2 
L 70.272997 -43.2 
L 69.627633 -43.2 
L 68.98227 -43.2 
L 68.336907 -43.2 
L 67.691543 -43.2 
L 67.04618 -43.2 
L 66.400816 -43.2 
L 65.755453 -43.2 
L 65.110089 -43.2 
L 64.464726 -43.2 
L 63.819362 -43.2 
L 63.173999 -43.2 
L 62.528635 -43.2 
L 61.883272 -43.2 
L 61.237909 -43.2 
L 60.592545 -43.2 
L 59.947182 -43.2 
L 59.301818 -43.2 
z
" id="m4a81b2014c" style="stroke:#5bc0de;stroke-opacity:0.7;"/>
    </defs>
    <g clip-path="url(#p0eb6916e21)">
     <use style="fill:#5bc0de;fill-opacity:0.7;stroke:#5bc0de;stroke-opacity:0.7;" x="0" xlink:href="#m4a81b2014c" y="288"/>
    </g>
   </g>
   <g id="text_11">
    <!-- Distribution of -->
    <g style="fill:#5bc0de;" transform="translate(290.094545 161.854823)scale(0.15 -0.15)">
     <use xlink:href="#DejaVuSans-44"/>
     <use x="77.001953" xlink:href="#DejaVuSans-69"/>
     <use x="104.785156" xlink:href="#DejaVuSans-73"/>
     <use x="156.884766" xlink:href="#DejaVuSans-74"/>
     <use x="196.09375" xlink:href="#DejaVuSans-72"/>
     <use x="237.207031" xlink:href="#DejaVuSans-69"/>
     <use x="264.990234" xlink:href="#DejaVuSans-62"/>
     <use x="328.466797" xlink:href="#DejaVuSans-75"/>
     <use x="391.845703" xlink:href="#DejaVuSans-74"/>
     <use x="431.054688" xlink:href="#DejaVuSans-69"/>
     <use x="458.837891" xlink:href="#DejaVuSans-6f"/>
     <use x="520.019531" xlink:href="#DejaVuSans-6e"/>
     <use x="583.398438" xlink:href="#DejaVuSans-20"/>
     <use x="615.185547" xlink:href="#DejaVuSans-6f"/>
     <use x="676.367188" xlink:href="#DejaVuSans-66"/>
    </g>
    <!-- sample means -->
    <defs>
     <path d="M 52 44.1875 
Q 55.375 50.25 60.0625 53.125 
Q 64.75 56 71.09375 56 
Q 79.640625 56 84.28125 50.015625 
Q 88.921875 44.046875 88.921875 33.015625 
L 88.921875 0 
L 79.890625 0 
L 79.890625 32.71875 
Q 79.890625 40.578125 77.09375 44.375 
Q 74.3125 48.1875 68.609375 48.1875 
Q 61.625 48.1875 57.5625 43.546875 
Q 53.515625 38.921875 53.515625 30.90625 
L 53.515625 0 
L 44.484375 0 
L 44.484375 32.71875 
Q 44.484375 40.625 41.703125 44.40625 
Q 38.921875 48.1875 33.109375 48.1875 
Q 26.21875 48.1875 22.15625 43.53125 
Q 18.109375 38.875 18.109375 30.90625 
L 18.109375 0 
L 9.078125 0 
L 9.078125 54.6875 
L 18.109375 54.6875 
L 18.109375 46.1875 
Q 21.1875 51.21875 25.484375 53.609375 
Q 29.78125 56 35.6875 56 
Q 41.65625 56 45.828125 52.96875 
Q 50 49.953125 52 44.1875 
" id="DejaVuSans-6d"/>
    </defs>
    <g style="fill:#5bc0de;" transform="translate(290.094545 178.651542)scale(0.15 -0.15)">
     <use xlink:href="#DejaVuSans-73"/>
     <use x="52.099609" xlink:href="#DejaVuSans-61"/>
     <use x="113.378906" xlink:href="#DejaVuSans-6d"/>
     <use x="210.791016" xlink:href="#DejaVuSans-70"/>
     <use x="274.267578" xlink:href="#DejaVuSans-6c"/>
     <use x="302.050781" xlink:href="#DejaVuSans-65"/>
     <use x="363.574219" xlink:href="#DejaVuSans-20"/>
     <use x="395.361328" xlink:href="#DejaVuSans-6d"/>
     <use x="492.773438" xlink:href="#DejaVuSans-65"/>
     <use x="554.296875" xlink:href="#DejaVuSans-61"/>
     <use x="615.576172" xlink:href="#DejaVuSans-6e"/>
     <use x="678.955078" xlink:href="#DejaVuSans-73"/>
    </g>
    <!-- ($\mu=\mu_p$, $\sigma=\frac{\sigma_p}{\sqrt{n}}$) -->
    <defs>
     <path d="M 54.5 81.109375 
L 63.71875 81.109375 
L 63.71875 76.421875 
L 58.109375 76.421875 
L 29.109375 -2 
L 25.875 -2 
L 10.296875 41.109375 
L 4.203125 38.921875 
L 2.984375 42.828125 
L 16.796875 47.609375 
L 29.296875 12.984375 
z
" id="DejaVuSans-221a"/>
     <path d="M 55.71875 33.015625 
L 49.3125 0 
L 40.28125 0 
L 46.6875 32.671875 
Q 47.125 34.96875 47.359375 36.71875 
Q 47.609375 38.484375 47.609375 39.5 
Q 47.609375 43.609375 45.015625 45.890625 
Q 42.4375 48.1875 37.796875 48.1875 
Q 30.5625 48.1875 25.34375 43.375 
Q 20.125 38.578125 18.5 30.328125 
L 12.5 0 
L 3.515625 0 
L 14.109375 54.6875 
L 23.09375 54.6875 
L 21.296875 46.09375 
Q 25.046875 50.828125 30.3125 53.40625 
Q 35.59375 56 41.40625 56 
Q 48.640625 56 52.609375 52.09375 
Q 56.59375 48.1875 56.59375 41.109375 
Q 56.59375 39.359375 56.375 37.359375 
Q 56.15625 35.359375 55.71875 33.015625 
" id="DejaVuSans-Oblique-6e"/>
    </defs>
    <g style="fill:#5bc0de;" transform="translate(290.094545 200.491073)scale(0.15 -0.15)">
     <use transform="translate(0 0.214219)" xlink:href="#DejaVuSans-28"/>
     <use transform="translate(39.013672 0.214219)" xlink:href="#DejaVuSans-Oblique-3bc"/>
     <use transform="translate(122.119141 0.214219)" xlink:href="#DejaVuSans-3d"/>
     <use transform="translate(225.390625 0.214219)" xlink:href="#DejaVuSans-Oblique-3bc"/>
     <use transform="translate(289.013672 -16.192031)scale(0.7)" xlink:href="#DejaVuSans-Oblique-70"/>
     <use transform="translate(336.181641 0.214219)" xlink:href="#DejaVuSans-2c"/>
     <use transform="translate(367.96875 0.214219)" xlink:href="#DejaVuSans-20"/>
     <use transform="translate(399.755859 0.214219)" xlink:href="#DejaVuSans-Oblique-3c3"/>
     <use transform="translate(482.617188 0.214219)" xlink:href="#DejaVuSans-3d"/>
     <use transform="translate(600.888672 65.685937)scale(0.7)" xlink:href="#DejaVuSans-Oblique-3c3"/>
     <use transform="translate(645.253906 54.201562)scale(0.49)" xlink:href="#DejaVuSans-Oblique-70"/>
     <use transform="translate(585.888672 -48.215469)scale(0.7)" xlink:href="#DejaVuSans-221a"/>
     <use transform="translate(639.243164 -47.813906)scale(0.7)" xlink:href="#DejaVuSans-Oblique-6e"/>
     <use transform="translate(704.858398 0.214219)" xlink:href="#DejaVuSans-29"/>
     <path d="M 585.888672 19.011094 
L 585.888672 25.261094 
L 692.358398 25.261094 
L 692.358398 19.011094 
L 585.888672 19.011094 
z
"/>
     <path d="M 630.493164 4.011094 
L 630.493164 8.386094 
L 692.358398 8.386094 
L 692.358398 4.011094 
L 630.493164 4.011094 
z
"/>
    </g>
   </g>
  </g>
 </g>
 <defs>
  <clipPath id="p0eb6916e21">
   <rect height="216" width="354.24" x="43.2" y="28.8"/>
  </clipPath>
 </defs>
</svg>
