<?xml version="1.0" encoding="utf-8" standalone="no"?>
<!DOCTYPE svg PUBLIC "-//W3C//DTD SVG 1.1//EN"
  "http://www.w3.org/Graphics/SVG/1.1/DTD/svg11.dtd">
<!-- Created with matplotlib (http://matplotlib.org/) -->
<svg height="288pt" version="1.1" viewBox="0 0 432 288" width="432pt" xmlns="http://www.w3.org/2000/svg" xmlns:xlink="http://www.w3.org/1999/xlink">
 <defs>
  <style type="text/css">
*{stroke-linecap:butt;stroke-linejoin:round;}
  </style>
 </defs>
 <g id="figure_1">
  <g id="patch_1">
   <path d="M 0 288 
L 432 288 
L 432 0 
L 0 0 
z
" style="fill:none;"/>
  </g>
  <g id="axes_1">
   <g id="patch_2">
    <path d="M 43.2 244.8 
L 397.44 244.8 
L 397.44 28.8 
L 43.2 28.8 
z
" style="fill:none;"/>
   </g>
   <g id="PolyCollection_1">
    <defs>
     <path d="M 43.2 -43.2 
L 43.2 -43.269349 
L 43.554595 -43.271105 
L 43.909189 -43.272905 
L 44.263784 -43.274749 
L 44.618378 -43.276639 
L 44.972973 -43.278577 
L 45.327568 -43.280562 
L 45.682162 -43.282597 
L 46.036757 -43.284683 
L 46.391351 -43.28682 
L 46.745946 -43.28901 
L 47.100541 -43.291254 
L 47.455135 -43.293554 
L 47.80973 -43.295911 
L 48.164324 -43.298326 
L 48.518919 -43.300801 
L 48.873514 -43.303336 
L 49.228108 -43.305935 
L 49.582703 -43.308597 
L 49.937297 -43.311325 
L 50.291892 -43.314121 
L 50.646486 -43.316985 
L 51.001081 -43.319919 
L 51.355676 -43.322926 
L 51.71027 -43.326006 
L 52.064865 -43.329162 
L 52.419459 -43.332395 
L 52.774054 -43.335708 
L 53.128649 -43.339101 
L 53.483243 -43.342578 
L 53.837838 -43.346139 
L 54.192432 -43.349788 
L 54.547027 -43.353525 
L 54.901622 -43.357354 
L 55.256216 -43.361276 
L 55.610811 -43.365294 
L 55.965405 -43.369409 
L 56.32 -43.373624 
L 56.674595 -43.377941 
L 57.029189 -43.382364 
L 57.383784 -43.386893 
L 57.738378 -43.391532 
L 58.092973 -43.396284 
L 58.447568 -43.40115 
L 58.802162 -43.406134 
L 59.156757 -43.411238 
L 59.511351 -43.416465 
L 59.865946 -43.421819 
L 60.220541 -43.427301 
L 60.575135 -43.432915 
L 60.92973 -43.438664 
L 61.284324 -43.444551 
L 61.638919 -43.450579 
L 61.993514 -43.456751 
L 62.348108 -43.463071 
L 62.702703 -43.469543 
L 63.057297 -43.476169 
L 63.411892 -43.482953 
L 63.766486 -43.489899 
L 64.121081 -43.49701 
L 64.475676 -43.504291 
L 64.83027 -43.511745 
L 65.184865 -43.519375 
L 65.539459 -43.527187 
L 65.894054 -43.535184 
L 66.248649 -43.54337 
L 66.603243 -43.55175 
L 66.957838 -43.560328 
L 67.312432 -43.569108 
L 67.667027 -43.578096 
L 68.021622 -43.587295 
L 68.376216 -43.59671 
L 68.730811 -43.606346 
L 69.085405 -43.616209 
L 69.44 -43.626303 
L 69.794595 -43.636633 
L 70.149189 -43.647205 
L 70.503784 -43.658024 
L 70.858378 -43.669096 
L 71.212973 -43.680425 
L 71.567568 -43.692019 
L 71.922162 -43.703882 
L 72.276757 -43.71602 
L 72.631351 -43.72844 
L 72.985946 -43.741148 
L 73.340541 -43.75415 
L 73.695135 -43.767453 
L 74.04973 -43.781062 
L 74.404324 -43.794986 
L 74.758919 -43.809229 
L 75.113514 -43.823801 
L 75.468108 -43.838707 
L 75.822703 -43.853955 
L 76.177297 -43.869553 
L 76.531892 -43.885507 
L 76.886486 -43.901826 
L 77.241081 -43.918517 
L 77.595676 -43.935588 
L 77.95027 -43.953048 
L 78.304865 -43.970905 
L 78.659459 -43.989166 
L 79.014054 -44.007842 
L 79.368649 -44.02694 
L 79.723243 -44.04647 
L 80.077838 -44.06644 
L 80.432432 -44.086861 
L 80.787027 -44.107741 
L 81.141622 -44.12909 
L 81.496216 -44.150918 
L 81.850811 -44.173234 
L 82.205405 -44.19605 
L 82.56 -44.219376 
L 82.914595 -44.243222 
L 83.269189 -44.267598 
L 83.623784 -44.292517 
L 83.978378 -44.317988 
L 84.332973 -44.344025 
L 84.687568 -44.370637 
L 85.042162 -44.397837 
L 85.396757 -44.425637 
L 85.751351 -44.454049 
L 86.105946 -44.483086 
L 86.460541 -44.51276 
L 86.815135 -44.543084 
L 87.16973 -44.574072 
L 87.524324 -44.605736 
L 87.878919 -44.638091 
L 88.233514 -44.67115 
L 88.588108 -44.704927 
L 88.942703 -44.739437 
L 89.297297 -44.774694 
L 89.651892 -44.810713 
L 90.006486 -44.84751 
L 90.361081 -44.885098 
L 90.715676 -44.923495 
L 91.07027 -44.962716 
L 91.424865 -45.002777 
L 91.779459 -45.043695 
L 92.134054 -45.085485 
L 92.488649 -45.128166 
L 92.843243 -45.171755 
L 93.197838 -45.216268 
L 93.552432 -45.261724 
L 93.907027 -45.308142 
L 94.261622 -45.355538 
L 94.616216 -45.403933 
L 94.970811 -45.453344 
L 95.325405 -45.503792 
L 95.68 -45.555296 
L 96.034595 -45.607876 
L 96.389189 -45.661552 
L 96.743784 -45.716345 
L 97.098378 -45.772275 
L 97.452973 -45.829364 
L 97.807568 -45.887633 
L 98.162162 -45.947105 
L 98.516757 -46.007801 
L 98.871351 -46.069744 
L 99.225946 -46.132957 
L 99.580541 -46.197462 
L 99.935135 -46.263284 
L 100.28973 -46.330447 
L 100.644324 -46.398974 
L 100.998919 -46.46889 
L 101.353514 -46.540221 
L 101.708108 -46.612991 
L 102.062703 -46.687227 
L 102.417297 -46.762953 
L 102.771892 -46.840198 
L 103.126486 -46.918986 
L 103.481081 -46.999347 
L 103.835676 -47.081306 
L 104.19027 -47.164892 
L 104.544865 -47.250134 
L 104.899459 -47.337059 
L 105.254054 -47.425697 
L 105.608649 -47.516078 
L 105.963243 -47.608231 
L 106.317838 -47.702186 
L 106.672432 -47.797974 
L 107.027027 -47.895625 
L 107.381622 -47.995172 
L 107.736216 -48.096646 
L 108.090811 -48.200079 
L 108.445405 -48.305503 
L 108.8 -48.412953 
L 109.154595 -48.522459 
L 109.509189 -48.634058 
L 109.863784 -48.747782 
L 110.218378 -48.863667 
L 110.572973 -48.981746 
L 110.927568 -49.102056 
L 111.282162 -49.224633 
L 111.636757 -49.349512 
L 111.991351 -49.476729 
L 112.345946 -49.606322 
L 112.700541 -49.738329 
L 113.055135 -49.872786 
L 113.40973 -50.009732 
L 113.764324 -50.149206 
L 114.118919 -50.291246 
L 114.473514 -50.435892 
L 114.828108 -50.583183 
L 115.182703 -50.733159 
L 115.537297 -50.885861 
L 115.891892 -51.04133 
L 116.246486 -51.199607 
L 116.601081 -51.360734 
L 116.955676 -51.524752 
L 117.31027 -51.691704 
L 117.664865 -51.861632 
L 118.019459 -52.034581 
L 118.374054 -52.210592 
L 118.728649 -52.389711 
L 119.083243 -52.57198 
L 119.437838 -52.757446 
L 119.792432 -52.946152 
L 120.147027 -53.138144 
L 120.501622 -53.333467 
L 120.856216 -53.532167 
L 121.210811 -53.734291 
L 121.565405 -53.939885 
L 121.92 -54.148996 
L 122.274595 -54.36167 
L 122.629189 -54.577956 
L 122.983784 -54.797901 
L 123.338378 -55.021553 
L 123.692973 -55.24896 
L 124.047568 -55.480171 
L 124.402162 -55.715235 
L 124.756757 -55.9542 
L 125.111351 -56.197117 
L 125.465946 -56.444034 
L 125.820541 -56.695001 
L 126.175135 -56.950068 
L 126.52973 -57.209286 
L 126.884324 -57.472704 
L 127.238919 -57.740374 
L 127.593514 -58.012345 
L 127.948108 -58.288669 
L 128.302703 -58.569396 
L 128.657297 -58.854578 
L 129.011892 -59.144266 
L 129.366486 -59.438512 
L 129.721081 -59.737365 
L 130.075676 -60.040879 
L 130.43027 -60.349105 
L 130.784865 -60.662093 
L 131.139459 -60.979897 
L 131.494054 -61.302566 
L 131.848649 -61.630154 
L 132.203243 -61.962711 
L 132.557838 -62.300289 
L 132.912432 -62.64294 
L 133.267027 -62.990715 
L 133.621622 -63.343665 
L 133.976216 -63.701842 
L 134.330811 -64.065296 
L 134.685405 -64.434079 
L 135.04 -64.808241 
L 135.394595 -65.187834 
L 135.749189 -65.572906 
L 136.103784 -65.963509 
L 136.458378 -66.359693 
L 136.812973 -66.761507 
L 137.167568 -67.169 
L 137.522162 -67.582222 
L 137.876757 -68.001221 
L 138.231351 -68.426045 
L 138.585946 -68.856743 
L 138.940541 -69.293363 
L 139.295135 -69.73595 
L 139.64973 -70.184552 
L 140.004324 -70.639215 
L 140.358919 -71.099985 
L 140.713514 -71.566907 
L 141.068108 -72.040025 
L 141.422703 -72.519383 
L 141.777297 -73.005026 
L 142.131892 -73.496995 
L 142.486486 -73.995333 
L 142.841081 -74.50008 
L 142.841081 -43.2 
L 142.841081 -43.2 
L 142.486486 -43.2 
L 142.131892 -43.2 
L 141.777297 -43.2 
L 141.422703 -43.2 
L 141.068108 -43.2 
L 140.713514 -43.2 
L 140.358919 -43.2 
L 140.004324 -43.2 
L 139.64973 -43.2 
L 139.295135 -43.2 
L 138.940541 -43.2 
L 138.585946 -43.2 
L 138.231351 -43.2 
L 137.876757 -43.2 
L 137.522162 -43.2 
L 137.167568 -43.2 
L 136.812973 -43.2 
L 136.458378 -43.2 
L 136.103784 -43.2 
L 135.749189 -43.2 
L 135.394595 -43.2 
L 135.04 -43.2 
L 134.685405 -43.2 
L 134.330811 -43.2 
L 133.976216 -43.2 
L 133.621622 -43.2 
L 133.267027 -43.2 
L 132.912432 -43.2 
L 132.557838 -43.2 
L 132.203243 -43.2 
L 131.848649 -43.2 
L 131.494054 -43.2 
L 131.139459 -43.2 
L 130.784865 -43.2 
L 130.43027 -43.2 
L 130.075676 -43.2 
L 129.721081 -43.2 
L 129.366486 -43.2 
L 129.011892 -43.2 
L 128.657297 -43.2 
L 128.302703 -43.2 
L 127.948108 -43.2 
L 127.593514 -43.2 
L 127.238919 -43.2 
L 126.884324 -43.2 
L 126.52973 -43.2 
L 126.175135 -43.2 
L 125.820541 -43.2 
L 125.465946 -43.2 
L 125.111351 -43.2 
L 124.756757 -43.2 
L 124.402162 -43.2 
L 124.047568 -43.2 
L 123.692973 -43.2 
L 123.338378 -43.2 
L 122.983784 -43.2 
L 122.629189 -43.2 
L 122.274595 -43.2 
L 121.92 -43.2 
L 121.565405 -43.2 
L 121.210811 -43.2 
L 120.856216 -43.2 
L 120.501622 -43.2 
L 120.147027 -43.2 
L 119.792432 -43.2 
L 119.437838 -43.2 
L 119.083243 -43.2 
L 118.728649 -43.2 
L 118.374054 -43.2 
L 118.019459 -43.2 
L 117.664865 -43.2 
L 117.31027 -43.2 
L 116.955676 -43.2 
L 116.601081 -43.2 
L 116.246486 -43.2 
L 115.891892 -43.2 
L 115.537297 -43.2 
L 115.182703 -43.2 
L 114.828108 -43.2 
L 114.473514 -43.2 
L 114.118919 -43.2 
L 113.764324 -43.2 
L 113.40973 -43.2 
L 113.055135 -43.2 
L 112.700541 -43.2 
L 112.345946 -43.2 
L 111.991351 -43.2 
L 111.636757 -43.2 
L 111.282162 -43.2 
L 110.927568 -43.2 
L 110.572973 -43.2 
L 110.218378 -43.2 
L 109.863784 -43.2 
L 109.509189 -43.2 
L 109.154595 -43.2 
L 108.8 -43.2 
L 108.445405 -43.2 
L 108.090811 -43.2 
L 107.736216 -43.2 
L 107.381622 -43.2 
L 107.027027 -43.2 
L 106.672432 -43.2 
L 106.317838 -43.2 
L 105.963243 -43.2 
L 105.608649 -43.2 
L 105.254054 -43.2 
L 104.899459 -43.2 
L 104.544865 -43.2 
L 104.19027 -43.2 
L 103.835676 -43.2 
L 103.481081 -43.2 
L 103.126486 -43.2 
L 102.771892 -43.2 
L 102.417297 -43.2 
L 102.062703 -43.2 
L 101.708108 -43.2 
L 101.353514 -43.2 
L 100.998919 -43.2 
L 100.644324 -43.2 
L 100.28973 -43.2 
L 99.935135 -43.2 
L 99.580541 -43.2 
L 99.225946 -43.2 
L 98.871351 -43.2 
L 98.516757 -43.2 
L 98.162162 -43.2 
L 97.807568 -43.2 
L 97.452973 -43.2 
L 97.098378 -43.2 
L 96.743784 -43.2 
L 96.389189 -43.2 
L 96.034595 -43.2 
L 95.68 -43.2 
L 95.325405 -43.2 
L 94.970811 -43.2 
L 94.616216 -43.2 
L 94.261622 -43.2 
L 93.907027 -43.2 
L 93.552432 -43.2 
L 93.197838 -43.2 
L 92.843243 -43.2 
L 92.488649 -43.2 
L 92.134054 -43.2 
L 91.779459 -43.2 
L 91.424865 -43.2 
L 91.07027 -43.2 
L 90.715676 -43.2 
L 90.361081 -43.2 
L 90.006486 -43.2 
L 89.651892 -43.2 
L 89.297297 -43.2 
L 88.942703 -43.2 
L 88.588108 -43.2 
L 88.233514 -43.2 
L 87.878919 -43.2 
L 87.524324 -43.2 
L 87.16973 -43.2 
L 86.815135 -43.2 
L 86.460541 -43.2 
L 86.105946 -43.2 
L 85.751351 -43.2 
L 85.396757 -43.2 
L 85.042162 -43.2 
L 84.687568 -43.2 
L 84.332973 -43.2 
L 83.978378 -43.2 
L 83.623784 -43.2 
L 83.269189 -43.2 
L 82.914595 -43.2 
L 82.56 -43.2 
L 82.205405 -43.2 
L 81.850811 -43.2 
L 81.496216 -43.2 
L 81.141622 -43.2 
L 80.787027 -43.2 
L 80.432432 -43.2 
L 80.077838 -43.2 
L 79.723243 -43.2 
L 79.368649 -43.2 
L 79.014054 -43.2 
L 78.659459 -43.2 
L 78.304865 -43.2 
L 77.95027 -43.2 
L 77.595676 -43.2 
L 77.241081 -43.2 
L 76.886486 -43.2 
L 76.531892 -43.2 
L 76.177297 -43.2 
L 75.822703 -43.2 
L 75.468108 -43.2 
L 75.113514 -43.2 
L 74.758919 -43.2 
L 74.404324 -43.2 
L 74.04973 -43.2 
L 73.695135 -43.2 
L 73.340541 -43.2 
L 72.985946 -43.2 
L 72.631351 -43.2 
L 72.276757 -43.2 
L 71.922162 -43.2 
L 71.567568 -43.2 
L 71.212973 -43.2 
L 70.858378 -43.2 
L 70.503784 -43.2 
L 70.149189 -43.2 
L 69.794595 -43.2 
L 69.44 -43.2 
L 69.085405 -43.2 
L 68.730811 -43.2 
L 68.376216 -43.2 
L 68.021622 -43.2 
L 67.667027 -43.2 
L 67.312432 -43.2 
L 66.957838 -43.2 
L 66.603243 -43.2 
L 66.248649 -43.2 
L 65.894054 -43.2 
L 65.539459 -43.2 
L 65.184865 -43.2 
L 64.83027 -43.2 
L 64.475676 -43.2 
L 64.121081 -43.2 
L 63.766486 -43.2 
L 63.411892 -43.2 
L 63.057297 -43.2 
L 62.702703 -43.2 
L 62.348108 -43.2 
L 61.993514 -43.2 
L 61.638919 -43.2 
L 61.284324 -43.2 
L 60.92973 -43.2 
L 60.575135 -43.2 
L 60.220541 -43.2 
L 59.865946 -43.2 
L 59.511351 -43.2 
L 59.156757 -43.2 
L 58.802162 -43.2 
L 58.447568 -43.2 
L 58.092973 -43.2 
L 57.738378 -43.2 
L 57.383784 -43.2 
L 57.029189 -43.2 
L 56.674595 -43.2 
L 56.32 -43.2 
L 55.965405 -43.2 
L 55.610811 -43.2 
L 55.256216 -43.2 
L 54.901622 -43.2 
L 54.547027 -43.2 
L 54.192432 -43.2 
L 53.837838 -43.2 
L 53.483243 -43.2 
L 53.128649 -43.2 
L 52.774054 -43.2 
L 52.419459 -43.2 
L 52.064865 -43.2 
L 51.71027 -43.2 
L 51.355676 -43.2 
L 51.001081 -43.2 
L 50.646486 -43.2 
L 50.291892 -43.2 
L 49.937297 -43.2 
L 49.582703 -43.2 
L 49.228108 -43.2 
L 48.873514 -43.2 
L 48.518919 -43.2 
L 48.164324 -43.2 
L 47.80973 -43.2 
L 47.455135 -43.2 
L 47.100541 -43.2 
L 46.745946 -43.2 
L 46.391351 -43.2 
L 46.036757 -43.2 
L 45.682162 -43.2 
L 45.327568 -43.2 
L 44.972973 -43.2 
L 44.618378 -43.2 
L 44.263784 -43.2 
L 43.909189 -43.2 
L 43.554595 -43.2 
L 43.2 -43.2 
z
" id="me5be9ca242" style="stroke:#f0ad4e;stroke-opacity:0.7;"/>
    </defs>
    <g clip-path="url(#p5a0eadaa47)">
     <use style="fill:#f0ad4e;fill-opacity:0.7;stroke:#f0ad4e;stroke-opacity:0.7;" x="0" xlink:href="#me5be9ca242" y="288"/>
    </g>
   </g>
   <g id="PolyCollection_2">
    <defs>
     <path d="M 297.798919 -43.2 
L 297.798919 -74.50008 
L 298.153514 -73.995333 
L 298.508108 -73.496995 
L 298.862703 -73.005026 
L 299.217297 -72.519383 
L 299.571892 -72.040025 
L 299.926486 -71.566907 
L 300.281081 -71.099985 
L 300.635676 -70.639215 
L 300.99027 -70.184552 
L 301.344865 -69.73595 
L 301.699459 -69.293363 
L 302.054054 -68.856743 
L 302.408649 -68.426045 
L 302.763243 -68.001221 
L 303.117838 -67.582222 
L 303.472432 -67.169 
L 303.827027 -66.761507 
L 304.181622 -66.359693 
L 304.536216 -65.963509 
L 304.890811 -65.572906 
L 305.245405 -65.187834 
L 305.6 -64.808241 
L 305.954595 -64.434079 
L 306.309189 -64.065296 
L 306.663784 -63.701842 
L 307.018378 -63.343665 
L 307.372973 -62.990715 
L 307.727568 -62.64294 
L 308.082162 -62.300289 
L 308.436757 -61.962711 
L 308.791351 -61.630154 
L 309.145946 -61.302566 
L 309.500541 -60.979897 
L 309.855135 -60.662093 
L 310.20973 -60.349105 
L 310.564324 -60.040879 
L 310.918919 -59.737365 
L 311.273514 -59.438512 
L 311.628108 -59.144266 
L 311.982703 -58.854578 
L 312.337297 -58.569396 
L 312.691892 -58.288669 
L 313.046486 -58.012345 
L 313.401081 -57.740374 
L 313.755676 -57.472704 
L 314.11027 -57.209286 
L 314.464865 -56.950068 
L 314.819459 -56.695001 
L 315.174054 -56.444034 
L 315.528649 -56.197117 
L 315.883243 -55.9542 
L 316.237838 -55.715235 
L 316.592432 -55.480171 
L 316.947027 -55.24896 
L 317.301622 -55.021553 
L 317.656216 -54.797901 
L 318.010811 -54.577956 
L 318.365405 -54.36167 
L 318.72 -54.148996 
L 319.074595 -53.939885 
L 319.429189 -53.734291 
L 319.783784 -53.532167 
L 320.138378 -53.333467 
L 320.492973 -53.138144 
L 320.847568 -52.946152 
L 321.202162 -52.757446 
L 321.556757 -52.57198 
L 321.911351 -52.389711 
L 322.265946 -52.210592 
L 322.620541 -52.034581 
L 322.975135 -51.861632 
L 323.32973 -51.691704 
L 323.684324 -51.524752 
L 324.038919 -51.360734 
L 324.393514 -51.199607 
L 324.748108 -51.04133 
L 325.102703 -50.885861 
L 325.457297 -50.733159 
L 325.811892 -50.583183 
L 326.166486 -50.435892 
L 326.521081 -50.291246 
L 326.875676 -50.149206 
L 327.23027 -50.009732 
L 327.584865 -49.872786 
L 327.939459 -49.738329 
L 328.294054 -49.606322 
L 328.648649 -49.476729 
L 329.003243 -49.349512 
L 329.357838 -49.224633 
L 329.712432 -49.102056 
L 330.067027 -48.981746 
L 330.421622 -48.863667 
L 330.776216 -48.747782 
L 331.130811 -48.634058 
L 331.485405 -48.522459 
L 331.84 -48.412953 
L 332.194595 -48.305503 
L 332.549189 -48.200079 
L 332.903784 -48.096646 
L 333.258378 -47.995172 
L 333.612973 -47.895625 
L 333.967568 -47.797974 
L 334.322162 -47.702186 
L 334.676757 -47.608231 
L 335.031351 -47.516078 
L 335.385946 -47.425697 
L 335.740541 -47.337059 
L 336.095135 -47.250134 
L 336.44973 -47.164892 
L 336.804324 -47.081306 
L 337.158919 -46.999347 
L 337.513514 -46.918986 
L 337.868108 -46.840198 
L 338.222703 -46.762953 
L 338.577297 -46.687227 
L 338.931892 -46.612991 
L 339.286486 -46.540221 
L 339.641081 -46.46889 
L 339.995676 -46.398974 
L 340.35027 -46.330447 
L 340.704865 -46.263284 
L 341.059459 -46.197462 
L 341.414054 -46.132957 
L 341.768649 -46.069744 
L 342.123243 -46.007801 
L 342.477838 -45.947105 
L 342.832432 -45.887633 
L 343.187027 -45.829364 
L 343.541622 -45.772275 
L 343.896216 -45.716345 
L 344.250811 -45.661552 
L 344.605405 -45.607876 
L 344.96 -45.555296 
L 345.314595 -45.503792 
L 345.669189 -45.453344 
L 346.023784 -45.403933 
L 346.378378 -45.355538 
L 346.732973 -45.308142 
L 347.087568 -45.261724 
L 347.442162 -45.216268 
L 347.796757 -45.171755 
L 348.151351 -45.128166 
L 348.505946 -45.085485 
L 348.860541 -45.043695 
L 349.215135 -45.002777 
L 349.56973 -44.962716 
L 349.924324 -44.923495 
L 350.278919 -44.885098 
L 350.633514 -44.84751 
L 350.988108 -44.810713 
L 351.342703 -44.774694 
L 351.697297 -44.739437 
L 352.051892 -44.704927 
L 352.406486 -44.67115 
L 352.761081 -44.638091 
L 353.115676 -44.605736 
L 353.47027 -44.574072 
L 353.824865 -44.543084 
L 354.179459 -44.51276 
L 354.534054 -44.483086 
L 354.888649 -44.454049 
L 355.243243 -44.425637 
L 355.597838 -44.397837 
L 355.952432 -44.370637 
L 356.307027 -44.344025 
L 356.661622 -44.317988 
L 357.016216 -44.292517 
L 357.370811 -44.267598 
L 357.725405 -44.243222 
L 358.08 -44.219376 
L 358.434595 -44.19605 
L 358.789189 -44.173234 
L 359.143784 -44.150918 
L 359.498378 -44.12909 
L 359.852973 -44.107741 
L 360.207568 -44.086861 
L 360.562162 -44.06644 
L 360.916757 -44.04647 
L 361.271351 -44.02694 
L 361.625946 -44.007842 
L 361.980541 -43.989166 
L 362.335135 -43.970905 
L 362.68973 -43.953048 
L 363.044324 -43.935588 
L 363.398919 -43.918517 
L 363.753514 -43.901826 
L 364.108108 -43.885507 
L 364.462703 -43.869553 
L 364.817297 -43.853955 
L 365.171892 -43.838707 
L 365.526486 -43.823801 
L 365.881081 -43.809229 
L 366.235676 -43.794986 
L 366.59027 -43.781062 
L 366.944865 -43.767453 
L 367.299459 -43.75415 
L 367.654054 -43.741148 
L 368.008649 -43.72844 
L 368.363243 -43.71602 
L 368.717838 -43.703882 
L 369.072432 -43.692019 
L 369.427027 -43.680425 
L 369.781622 -43.669096 
L 370.136216 -43.658024 
L 370.490811 -43.647205 
L 370.845405 -43.636633 
L 371.2 -43.626303 
L 371.554595 -43.616209 
L 371.909189 -43.606346 
L 372.263784 -43.59671 
L 372.618378 -43.587295 
L 372.972973 -43.578096 
L 373.327568 -43.569108 
L 373.682162 -43.560328 
L 374.036757 -43.55175 
L 374.391351 -43.54337 
L 374.745946 -43.535184 
L 375.100541 -43.527187 
L 375.455135 -43.519375 
L 375.80973 -43.511745 
L 376.164324 -43.504291 
L 376.518919 -43.49701 
L 376.873514 -43.489899 
L 377.228108 -43.482953 
L 377.582703 -43.476169 
L 377.937297 -43.469543 
L 378.291892 -43.463071 
L 378.646486 -43.456751 
L 379.001081 -43.450579 
L 379.355676 -43.444551 
L 379.71027 -43.438664 
L 380.064865 -43.432915 
L 380.419459 -43.427301 
L 380.774054 -43.421819 
L 381.128649 -43.416465 
L 381.483243 -43.411238 
L 381.837838 -43.406134 
L 382.192432 -43.40115 
L 382.547027 -43.396284 
L 382.901622 -43.391532 
L 383.256216 -43.386893 
L 383.610811 -43.382364 
L 383.965405 -43.377941 
L 384.32 -43.373624 
L 384.674595 -43.369409 
L 385.029189 -43.365294 
L 385.383784 -43.361276 
L 385.738378 -43.357354 
L 386.092973 -43.353525 
L 386.447568 -43.349788 
L 386.802162 -43.346139 
L 387.156757 -43.342578 
L 387.511351 -43.339101 
L 387.865946 -43.335708 
L 388.220541 -43.332395 
L 388.575135 -43.329162 
L 388.92973 -43.326006 
L 389.284324 -43.322926 
L 389.638919 -43.319919 
L 389.993514 -43.316985 
L 390.348108 -43.314121 
L 390.702703 -43.311325 
L 391.057297 -43.308597 
L 391.411892 -43.305935 
L 391.766486 -43.303336 
L 392.121081 -43.300801 
L 392.475676 -43.298326 
L 392.83027 -43.295911 
L 393.184865 -43.293554 
L 393.539459 -43.291254 
L 393.894054 -43.28901 
L 394.248649 -43.28682 
L 394.603243 -43.284683 
L 394.957838 -43.282597 
L 395.312432 -43.280562 
L 395.667027 -43.278577 
L 396.021622 -43.276639 
L 396.376216 -43.274749 
L 396.730811 -43.272905 
L 397.085405 -43.271105 
L 397.44 -43.269349 
L 397.44 -43.2 
L 397.44 -43.2 
L 397.085405 -43.2 
L 396.730811 -43.2 
L 396.376216 -43.2 
L 396.021622 -43.2 
L 395.667027 -43.2 
L 395.312432 -43.2 
L 394.957838 -43.2 
L 394.603243 -43.2 
L 394.248649 -43.2 
L 393.894054 -43.2 
L 393.539459 -43.2 
L 393.184865 -43.2 
L 392.83027 -43.2 
L 392.475676 -43.2 
L 392.121081 -43.2 
L 391.766486 -43.2 
L 391.411892 -43.2 
L 391.057297 -43.2 
L 390.702703 -43.2 
L 390.348108 -43.2 
L 389.993514 -43.2 
L 389.638919 -43.2 
L 389.284324 -43.2 
L 388.92973 -43.2 
L 388.575135 -43.2 
L 388.220541 -43.2 
L 387.865946 -43.2 
L 387.511351 -43.2 
L 387.156757 -43.2 
L 386.802162 -43.2 
L 386.447568 -43.2 
L 386.092973 -43.2 
L 385.738378 -43.2 
L 385.383784 -43.2 
L 385.029189 -43.2 
L 384.674595 -43.2 
L 384.32 -43.2 
L 383.965405 -43.2 
L 383.610811 -43.2 
L 383.256216 -43.2 
L 382.901622 -43.2 
L 382.547027 -43.2 
L 382.192432 -43.2 
L 381.837838 -43.2 
L 381.483243 -43.2 
L 381.128649 -43.2 
L 380.774054 -43.2 
L 380.419459 -43.2 
L 380.064865 -43.2 
L 379.71027 -43.2 
L 379.355676 -43.2 
L 379.001081 -43.2 
L 378.646486 -43.2 
L 378.291892 -43.2 
L 377.937297 -43.2 
L 377.582703 -43.2 
L 377.228108 -43.2 
L 376.873514 -43.2 
L 376.518919 -43.2 
L 376.164324 -43.2 
L 375.80973 -43.2 
L 375.455135 -43.2 
L 375.100541 -43.2 
L 374.745946 -43.2 
L 374.391351 -43.2 
L 374.036757 -43.2 
L 373.682162 -43.2 
L 373.327568 -43.2 
L 372.972973 -43.2 
L 372.618378 -43.2 
L 372.263784 -43.2 
L 371.909189 -43.2 
L 371.554595 -43.2 
L 371.2 -43.2 
L 370.845405 -43.2 
L 370.490811 -43.2 
L 370.136216 -43.2 
L 369.781622 -43.2 
L 369.427027 -43.2 
L 369.072432 -43.2 
L 368.717838 -43.2 
L 368.363243 -43.2 
L 368.008649 -43.2 
L 367.654054 -43.2 
L 367.299459 -43.2 
L 366.944865 -43.2 
L 366.59027 -43.2 
L 366.235676 -43.2 
L 365.881081 -43.2 
L 365.526486 -43.2 
L 365.171892 -43.2 
L 364.817297 -43.2 
L 364.462703 -43.2 
L 364.108108 -43.2 
L 363.753514 -43.2 
L 363.398919 -43.2 
L 363.044324 -43.2 
L 362.68973 -43.2 
L 362.335135 -43.2 
L 361.980541 -43.2 
L 361.625946 -43.2 
L 361.271351 -43.2 
L 360.916757 -43.2 
L 360.562162 -43.2 
L 360.207568 -43.2 
L 359.852973 -43.2 
L 359.498378 -43.2 
L 359.143784 -43.2 
L 358.789189 -43.2 
L 358.434595 -43.2 
L 358.08 -43.2 
L 357.725405 -43.2 
L 357.370811 -43.2 
L 357.016216 -43.2 
L 356.661622 -43.2 
L 356.307027 -43.2 
L 355.952432 -43.2 
L 355.597838 -43.2 
L 355.243243 -43.2 
L 354.888649 -43.2 
L 354.534054 -43.2 
L 354.179459 -43.2 
L 353.824865 -43.2 
L 353.47027 -43.2 
L 353.115676 -43.2 
L 352.761081 -43.2 
L 352.406486 -43.2 
L 352.051892 -43.2 
L 351.697297 -43.2 
L 351.342703 -43.2 
L 350.988108 -43.2 
L 350.633514 -43.2 
L 350.278919 -43.2 
L 349.924324 -43.2 
L 349.56973 -43.2 
L 349.215135 -43.2 
L 348.860541 -43.2 
L 348.505946 -43.2 
L 348.151351 -43.2 
L 347.796757 -43.2 
L 347.442162 -43.2 
L 347.087568 -43.2 
L 346.732973 -43.2 
L 346.378378 -43.2 
L 346.023784 -43.2 
L 345.669189 -43.2 
L 345.314595 -43.2 
L 344.96 -43.2 
L 344.605405 -43.2 
L 344.250811 -43.2 
L 343.896216 -43.2 
L 343.541622 -43.2 
L 343.187027 -43.2 
L 342.832432 -43.2 
L 342.477838 -43.2 
L 342.123243 -43.2 
L 341.768649 -43.2 
L 341.414054 -43.2 
L 341.059459 -43.2 
L 340.704865 -43.2 
L 340.35027 -43.2 
L 339.995676 -43.2 
L 339.641081 -43.2 
L 339.286486 -43.2 
L 338.931892 -43.2 
L 338.577297 -43.2 
L 338.222703 -43.2 
L 337.868108 -43.2 
L 337.513514 -43.2 
L 337.158919 -43.2 
L 336.804324 -43.2 
L 336.44973 -43.2 
L 336.095135 -43.2 
L 335.740541 -43.2 
L 335.385946 -43.2 
L 335.031351 -43.2 
L 334.676757 -43.2 
L 334.322162 -43.2 
L 333.967568 -43.2 
L 333.612973 -43.2 
L 333.258378 -43.2 
L 332.903784 -43.2 
L 332.549189 -43.2 
L 332.194595 -43.2 
L 331.84 -43.2 
L 331.485405 -43.2 
L 331.130811 -43.2 
L 330.776216 -43.2 
L 330.421622 -43.2 
L 330.067027 -43.2 
L 329.712432 -43.2 
L 329.357838 -43.2 
L 329.003243 -43.2 
L 328.648649 -43.2 
L 328.294054 -43.2 
L 327.939459 -43.2 
L 327.584865 -43.2 
L 327.23027 -43.2 
L 326.875676 -43.2 
L 326.521081 -43.2 
L 326.166486 -43.2 
L 325.811892 -43.2 
L 325.457297 -43.2 
L 325.102703 -43.2 
L 324.748108 -43.2 
L 324.393514 -43.2 
L 324.038919 -43.2 
L 323.684324 -43.2 
L 323.32973 -43.2 
L 322.975135 -43.2 
L 322.620541 -43.2 
L 322.265946 -43.2 
L 321.911351 -43.2 
L 321.556757 -43.2 
L 321.202162 -43.2 
L 320.847568 -43.2 
L 320.492973 -43.2 
L 320.138378 -43.2 
L 319.783784 -43.2 
L 319.429189 -43.2 
L 319.074595 -43.2 
L 318.72 -43.2 
L 318.365405 -43.2 
L 318.010811 -43.2 
L 317.656216 -43.2 
L 317.301622 -43.2 
L 316.947027 -43.2 
L 316.592432 -43.2 
L 316.237838 -43.2 
L 315.883243 -43.2 
L 315.528649 -43.2 
L 315.174054 -43.2 
L 314.819459 -43.2 
L 314.464865 -43.2 
L 314.11027 -43.2 
L 313.755676 -43.2 
L 313.401081 -43.2 
L 313.046486 -43.2 
L 312.691892 -43.2 
L 312.337297 -43.2 
L 311.982703 -43.2 
L 311.628108 -43.2 
L 311.273514 -43.2 
L 310.918919 -43.2 
L 310.564324 -43.2 
L 310.20973 -43.2 
L 309.855135 -43.2 
L 309.500541 -43.2 
L 309.145946 -43.2 
L 308.791351 -43.2 
L 308.436757 -43.2 
L 308.082162 -43.2 
L 307.727568 -43.2 
L 307.372973 -43.2 
L 307.018378 -43.2 
L 306.663784 -43.2 
L 306.309189 -43.2 
L 305.954595 -43.2 
L 305.6 -43.2 
L 305.245405 -43.2 
L 304.890811 -43.2 
L 304.536216 -43.2 
L 304.181622 -43.2 
L 303.827027 -43.2 
L 303.472432 -43.2 
L 303.117838 -43.2 
L 302.763243 -43.2 
L 302.408649 -43.2 
L 302.054054 -43.2 
L 301.699459 -43.2 
L 301.344865 -43.2 
L 300.99027 -43.2 
L 300.635676 -43.2 
L 300.281081 -43.2 
L 299.926486 -43.2 
L 299.571892 -43.2 
L 299.217297 -43.2 
L 298.862703 -43.2 
L 298.508108 -43.2 
L 298.153514 -43.2 
L 297.798919 -43.2 
z
" id="m31c0ce4f02" style="stroke:#f0ad4e;stroke-opacity:0.7;"/>
    </defs>
    <g clip-path="url(#p5a0eadaa47)">
     <use style="fill:#f0ad4e;fill-opacity:0.7;stroke:#f0ad4e;stroke-opacity:0.7;" x="0" xlink:href="#m31c0ce4f02" y="288"/>
    </g>
   </g>
   <g id="matplotlib.axis_1">
    <g id="xtick_1">
     <g id="line2d_1">
      <defs>
       <path d="M 0 0 
L 0 4 
" id="m5fe217d9d5" style="stroke:#d2d2d2;"/>
      </defs>
      <g>
       <use style="fill:#d2d2d2;stroke:#d2d2d2;" x="62.88" xlink:href="#m5fe217d9d5" y="244.8"/>
      </g>
     </g>
     <g id="text_1">
      <!-- -4.0 -->
      <defs>
       <path d="M 4.890625 31.390625 
L 31.203125 31.390625 
L 31.203125 23.390625 
L 4.890625 23.390625 
z
" id="DejaVuSans-2d"/>
       <path d="M 37.796875 64.3125 
L 12.890625 25.390625 
L 37.796875 25.390625 
z
M 35.203125 72.90625 
L 47.609375 72.90625 
L 47.609375 25.390625 
L 58.015625 25.390625 
L 58.015625 17.1875 
L 47.609375 17.1875 
L 47.609375 0 
L 37.796875 0 
L 37.796875 17.1875 
L 4.890625 17.1875 
L 4.890625 26.703125 
z
" id="DejaVuSans-34"/>
       <path d="M 10.6875 12.40625 
L 21 12.40625 
L 21 0 
L 10.6875 0 
z
" id="DejaVuSans-2e"/>
       <path d="M 31.78125 66.40625 
Q 24.171875 66.40625 20.328125 58.90625 
Q 16.5 51.421875 16.5 36.375 
Q 16.5 21.390625 20.328125 13.890625 
Q 24.171875 6.390625 31.78125 6.390625 
Q 39.453125 6.390625 43.28125 13.890625 
Q 47.125 21.390625 47.125 36.375 
Q 47.125 51.421875 43.28125 58.90625 
Q 39.453125 66.40625 31.78125 66.40625 
M 31.78125 74.21875 
Q 44.046875 74.21875 50.515625 64.515625 
Q 56.984375 54.828125 56.984375 36.375 
Q 56.984375 17.96875 50.515625 8.265625 
Q 44.046875 -1.421875 31.78125 -1.421875 
Q 19.53125 -1.421875 13.0625 8.265625 
Q 6.59375 17.96875 6.59375 36.375 
Q 6.59375 54.828125 13.0625 64.515625 
Q 19.53125 74.21875 31.78125 74.21875 
" id="DejaVuSans-30"/>
      </defs>
      <g style="fill:#d2d2d2;" transform="translate(50.197891 262.677969)scale(0.13 -0.13)">
       <use xlink:href="#DejaVuSans-2d"/>
       <use x="36.083984" xlink:href="#DejaVuSans-34"/>
       <use x="99.707031" xlink:href="#DejaVuSans-2e"/>
       <use x="131.494141" xlink:href="#DejaVuSans-30"/>
      </g>
     </g>
    </g>
    <g id="xtick_2">
     <g id="line2d_2">
      <g>
       <use style="fill:#d2d2d2;stroke:#d2d2d2;" x="102.24" xlink:href="#m5fe217d9d5" y="244.8"/>
      </g>
     </g>
     <g id="text_2">
      <!-- -3.0 -->
      <defs>
       <path d="M 40.578125 39.3125 
Q 47.65625 37.796875 51.625 33 
Q 55.609375 28.21875 55.609375 21.1875 
Q 55.609375 10.40625 48.1875 4.484375 
Q 40.765625 -1.421875 27.09375 -1.421875 
Q 22.515625 -1.421875 17.65625 -0.515625 
Q 12.796875 0.390625 7.625 2.203125 
L 7.625 11.71875 
Q 11.71875 9.328125 16.59375 8.109375 
Q 21.484375 6.890625 26.8125 6.890625 
Q 36.078125 6.890625 40.9375 10.546875 
Q 45.796875 14.203125 45.796875 21.1875 
Q 45.796875 27.640625 41.28125 31.265625 
Q 36.765625 34.90625 28.71875 34.90625 
L 20.21875 34.90625 
L 20.21875 43.015625 
L 29.109375 43.015625 
Q 36.375 43.015625 40.234375 45.921875 
Q 44.09375 48.828125 44.09375 54.296875 
Q 44.09375 59.90625 40.109375 62.90625 
Q 36.140625 65.921875 28.71875 65.921875 
Q 24.65625 65.921875 20.015625 65.03125 
Q 15.375 64.15625 9.8125 62.3125 
L 9.8125 71.09375 
Q 15.4375 72.65625 20.34375 73.4375 
Q 25.25 74.21875 29.59375 74.21875 
Q 40.828125 74.21875 47.359375 69.109375 
Q 53.90625 64.015625 53.90625 55.328125 
Q 53.90625 49.265625 50.4375 45.09375 
Q 46.96875 40.921875 40.578125 39.3125 
" id="DejaVuSans-33"/>
      </defs>
      <g style="fill:#d2d2d2;" transform="translate(89.557891 262.677969)scale(0.13 -0.13)">
       <use xlink:href="#DejaVuSans-2d"/>
       <use x="36.083984" xlink:href="#DejaVuSans-33"/>
       <use x="99.707031" xlink:href="#DejaVuSans-2e"/>
       <use x="131.494141" xlink:href="#DejaVuSans-30"/>
      </g>
     </g>
    </g>
    <g id="xtick_3">
     <g id="line2d_3">
      <g>
       <use style="fill:#d2d2d2;stroke:#d2d2d2;" x="141.6" xlink:href="#m5fe217d9d5" y="244.8"/>
      </g>
     </g>
     <g id="text_3">
      <!-- -2.0 -->
      <defs>
       <path d="M 19.1875 8.296875 
L 53.609375 8.296875 
L 53.609375 0 
L 7.328125 0 
L 7.328125 8.296875 
Q 12.9375 14.109375 22.625 23.890625 
Q 32.328125 33.6875 34.8125 36.53125 
Q 39.546875 41.84375 41.421875 45.53125 
Q 43.3125 49.21875 43.3125 52.78125 
Q 43.3125 58.59375 39.234375 62.25 
Q 35.15625 65.921875 28.609375 65.921875 
Q 23.96875 65.921875 18.8125 64.3125 
Q 13.671875 62.703125 7.8125 59.421875 
L 7.8125 69.390625 
Q 13.765625 71.78125 18.9375 73 
Q 24.125 74.21875 28.421875 74.21875 
Q 39.75 74.21875 46.484375 68.546875 
Q 53.21875 62.890625 53.21875 53.421875 
Q 53.21875 48.921875 51.53125 44.890625 
Q 49.859375 40.875 45.40625 35.40625 
Q 44.1875 33.984375 37.640625 27.21875 
Q 31.109375 20.453125 19.1875 8.296875 
" id="DejaVuSans-32"/>
      </defs>
      <g style="fill:#d2d2d2;" transform="translate(128.917891 262.677969)scale(0.13 -0.13)">
       <use xlink:href="#DejaVuSans-2d"/>
       <use x="36.083984" xlink:href="#DejaVuSans-32"/>
       <use x="99.707031" xlink:href="#DejaVuSans-2e"/>
       <use x="131.494141" xlink:href="#DejaVuSans-30"/>
      </g>
     </g>
    </g>
    <g id="xtick_4">
     <g id="line2d_4">
      <g>
       <use style="fill:#d2d2d2;stroke:#d2d2d2;" x="180.96" xlink:href="#m5fe217d9d5" y="244.8"/>
      </g>
     </g>
     <g id="text_4">
      <!-- -1.0 -->
      <defs>
       <path d="M 12.40625 8.296875 
L 28.515625 8.296875 
L 28.515625 63.921875 
L 10.984375 60.40625 
L 10.984375 69.390625 
L 28.421875 72.90625 
L 38.28125 72.90625 
L 38.28125 8.296875 
L 54.390625 8.296875 
L 54.390625 0 
L 12.40625 0 
z
" id="DejaVuSans-31"/>
      </defs>
      <g style="fill:#d2d2d2;" transform="translate(168.277891 262.677969)scale(0.13 -0.13)">
       <use xlink:href="#DejaVuSans-2d"/>
       <use x="36.083984" xlink:href="#DejaVuSans-31"/>
       <use x="99.707031" xlink:href="#DejaVuSans-2e"/>
       <use x="131.494141" xlink:href="#DejaVuSans-30"/>
      </g>
     </g>
    </g>
    <g id="xtick_5">
     <g id="line2d_5">
      <g>
       <use style="fill:#d2d2d2;stroke:#d2d2d2;" x="220.32" xlink:href="#m5fe217d9d5" y="244.8"/>
      </g>
     </g>
     <g id="text_5">
      <!-- $\bar{x}$ -->
      <defs>
       <path d="M -39.34375 74.515625 
L -10.15625 74.515625 
L -10.15625 67.28125 
L -39.34375 67.28125 
z
" id="DejaVuSans-304"/>
       <path d="M 60.015625 54.6875 
L 34.90625 27.875 
L 50.296875 0 
L 39.984375 0 
L 28.421875 21.6875 
L 8.296875 0 
L -2.59375 0 
L 24.3125 28.8125 
L 10.015625 54.6875 
L 20.3125 54.6875 
L 30.8125 34.90625 
L 49.125 54.6875 
z
" id="DejaVuSans-Oblique-78"/>
      </defs>
      <g style="fill:#d2d2d2;" transform="translate(216.42 262.677969)scale(0.13 -0.13)">
       <use transform="translate(62.138672 0.484375)" xlink:href="#DejaVuSans-304"/>
       <use transform="translate(0 0.578125)" xlink:href="#DejaVuSans-Oblique-78"/>
      </g>
     </g>
    </g>
    <g id="xtick_6">
     <g id="line2d_6">
      <g>
       <use style="fill:#d2d2d2;stroke:#d2d2d2;" x="259.68" xlink:href="#m5fe217d9d5" y="244.8"/>
      </g>
     </g>
     <g id="text_6">
      <!-- 1.0 -->
      <g style="fill:#d2d2d2;" transform="translate(249.342969 262.677969)scale(0.13 -0.13)">
       <use xlink:href="#DejaVuSans-31"/>
       <use x="63.623047" xlink:href="#DejaVuSans-2e"/>
       <use x="95.410156" xlink:href="#DejaVuSans-30"/>
      </g>
     </g>
    </g>
    <g id="xtick_7">
     <g id="line2d_7">
      <g>
       <use style="fill:#d2d2d2;stroke:#d2d2d2;" x="299.04" xlink:href="#m5fe217d9d5" y="244.8"/>
      </g>
     </g>
     <g id="text_7">
      <!-- 2.0 -->
      <g style="fill:#d2d2d2;" transform="translate(288.702969 262.677969)scale(0.13 -0.13)">
       <use xlink:href="#DejaVuSans-32"/>
       <use x="63.623047" xlink:href="#DejaVuSans-2e"/>
       <use x="95.410156" xlink:href="#DejaVuSans-30"/>
      </g>
     </g>
    </g>
    <g id="xtick_8">
     <g id="line2d_8">
      <g>
       <use style="fill:#d2d2d2;stroke:#d2d2d2;" x="338.4" xlink:href="#m5fe217d9d5" y="244.8"/>
      </g>
     </g>
     <g id="text_8">
      <!-- 3.0 -->
      <g style="fill:#d2d2d2;" transform="translate(328.062969 262.677969)scale(0.13 -0.13)">
       <use xlink:href="#DejaVuSans-33"/>
       <use x="63.623047" xlink:href="#DejaVuSans-2e"/>
       <use x="95.410156" xlink:href="#DejaVuSans-30"/>
      </g>
     </g>
    </g>
    <g id="xtick_9">
     <g id="line2d_9">
      <g>
       <use style="fill:#d2d2d2;stroke:#d2d2d2;" x="377.76" xlink:href="#m5fe217d9d5" y="244.8"/>
      </g>
     </g>
     <g id="text_9">
      <!-- 4.0 -->
      <g style="fill:#d2d2d2;" transform="translate(367.422969 262.677969)scale(0.13 -0.13)">
       <use xlink:href="#DejaVuSans-34"/>
       <use x="63.623047" xlink:href="#DejaVuSans-2e"/>
       <use x="95.410156" xlink:href="#DejaVuSans-30"/>
      </g>
     </g>
    </g>
    <g id="text_10">
     <!-- Standardized $\bar{x}$ (t) -->
     <defs>
      <path d="M 53.515625 70.515625 
L 53.515625 60.890625 
Q 47.90625 63.578125 42.921875 64.890625 
Q 37.9375 66.21875 33.296875 66.21875 
Q 25.25 66.21875 20.875 63.09375 
Q 16.5 59.96875 16.5 54.203125 
Q 16.5 49.359375 19.40625 46.890625 
Q 22.3125 44.4375 30.421875 42.921875 
L 36.375 41.703125 
Q 47.40625 39.59375 52.65625 34.296875 
Q 57.90625 29 57.90625 20.125 
Q 57.90625 9.515625 50.796875 4.046875 
Q 43.703125 -1.421875 29.984375 -1.421875 
Q 24.8125 -1.421875 18.96875 -0.25 
Q 13.140625 0.921875 6.890625 3.21875 
L 6.890625 13.375 
Q 12.890625 10.015625 18.65625 8.296875 
Q 24.421875 6.59375 29.984375 6.59375 
Q 38.421875 6.59375 43.015625 9.90625 
Q 47.609375 13.234375 47.609375 19.390625 
Q 47.609375 24.75 44.3125 27.78125 
Q 41.015625 30.8125 33.5 32.328125 
L 27.484375 33.5 
Q 16.453125 35.6875 11.515625 40.375 
Q 6.59375 45.0625 6.59375 53.421875 
Q 6.59375 63.09375 13.40625 68.65625 
Q 20.21875 74.21875 32.171875 74.21875 
Q 37.3125 74.21875 42.625 73.28125 
Q 47.953125 72.359375 53.515625 70.515625 
" id="DejaVuSans-53"/>
      <path d="M 18.3125 70.21875 
L 18.3125 54.6875 
L 36.8125 54.6875 
L 36.8125 47.703125 
L 18.3125 47.703125 
L 18.3125 18.015625 
Q 18.3125 11.328125 20.140625 9.421875 
Q 21.96875 7.515625 27.59375 7.515625 
L 36.8125 7.515625 
L 36.8125 0 
L 27.59375 0 
Q 17.1875 0 13.234375 3.875 
Q 9.28125 7.765625 9.28125 18.015625 
L 9.28125 47.703125 
L 2.6875 47.703125 
L 2.6875 54.6875 
L 9.28125 54.6875 
L 9.28125 70.21875 
z
" id="DejaVuSans-74"/>
      <path d="M 34.28125 27.484375 
Q 23.390625 27.484375 19.1875 25 
Q 14.984375 22.515625 14.984375 16.5 
Q 14.984375 11.71875 18.140625 8.90625 
Q 21.296875 6.109375 26.703125 6.109375 
Q 34.1875 6.109375 38.703125 11.40625 
Q 43.21875 16.703125 43.21875 25.484375 
L 43.21875 27.484375 
z
M 52.203125 31.203125 
L 52.203125 0 
L 43.21875 0 
L 43.21875 8.296875 
Q 40.140625 3.328125 35.546875 0.953125 
Q 30.953125 -1.421875 24.3125 -1.421875 
Q 15.921875 -1.421875 10.953125 3.296875 
Q 6 8.015625 6 15.921875 
Q 6 25.140625 12.171875 29.828125 
Q 18.359375 34.515625 30.609375 34.515625 
L 43.21875 34.515625 
L 43.21875 35.40625 
Q 43.21875 41.609375 39.140625 45 
Q 35.0625 48.390625 27.6875 48.390625 
Q 23 48.390625 18.546875 47.265625 
Q 14.109375 46.140625 10.015625 43.890625 
L 10.015625 52.203125 
Q 14.9375 54.109375 19.578125 55.046875 
Q 24.21875 56 28.609375 56 
Q 40.484375 56 46.34375 49.84375 
Q 52.203125 43.703125 52.203125 31.203125 
" id="DejaVuSans-61"/>
      <path d="M 54.890625 33.015625 
L 54.890625 0 
L 45.90625 0 
L 45.90625 32.71875 
Q 45.90625 40.484375 42.875 44.328125 
Q 39.84375 48.1875 33.796875 48.1875 
Q 26.515625 48.1875 22.3125 43.546875 
Q 18.109375 38.921875 18.109375 30.90625 
L 18.109375 0 
L 9.078125 0 
L 9.078125 54.6875 
L 18.109375 54.6875 
L 18.109375 46.1875 
Q 21.34375 51.125 25.703125 53.5625 
Q 30.078125 56 35.796875 56 
Q 45.21875 56 50.046875 50.171875 
Q 54.890625 44.34375 54.890625 33.015625 
" id="DejaVuSans-6e"/>
      <path d="M 45.40625 46.390625 
L 45.40625 75.984375 
L 54.390625 75.984375 
L 54.390625 0 
L 45.40625 0 
L 45.40625 8.203125 
Q 42.578125 3.328125 38.25 0.953125 
Q 33.9375 -1.421875 27.875 -1.421875 
Q 17.96875 -1.421875 11.734375 6.484375 
Q 5.515625 14.40625 5.515625 27.296875 
Q 5.515625 40.1875 11.734375 48.09375 
Q 17.96875 56 27.875 56 
Q 33.9375 56 38.25 53.625 
Q 42.578125 51.265625 45.40625 46.390625 
M 14.796875 27.296875 
Q 14.796875 17.390625 18.875 11.75 
Q 22.953125 6.109375 30.078125 6.109375 
Q 37.203125 6.109375 41.296875 11.75 
Q 45.40625 17.390625 45.40625 27.296875 
Q 45.40625 37.203125 41.296875 42.84375 
Q 37.203125 48.484375 30.078125 48.484375 
Q 22.953125 48.484375 18.875 42.84375 
Q 14.796875 37.203125 14.796875 27.296875 
" id="DejaVuSans-64"/>
      <path d="M 41.109375 46.296875 
Q 39.59375 47.171875 37.8125 47.578125 
Q 36.03125 48 33.890625 48 
Q 26.265625 48 22.1875 43.046875 
Q 18.109375 38.09375 18.109375 28.8125 
L 18.109375 0 
L 9.078125 0 
L 9.078125 54.6875 
L 18.109375 54.6875 
L 18.109375 46.1875 
Q 20.953125 51.171875 25.484375 53.578125 
Q 30.03125 56 36.53125 56 
Q 37.453125 56 38.578125 55.875 
Q 39.703125 55.765625 41.0625 55.515625 
z
" id="DejaVuSans-72"/>
      <path d="M 9.421875 54.6875 
L 18.40625 54.6875 
L 18.40625 0 
L 9.421875 0 
z
M 9.421875 75.984375 
L 18.40625 75.984375 
L 18.40625 64.59375 
L 9.421875 64.59375 
z
" id="DejaVuSans-69"/>
      <path d="M 5.515625 54.6875 
L 48.1875 54.6875 
L 48.1875 46.484375 
L 14.40625 7.171875 
L 48.1875 7.171875 
L 48.1875 0 
L 4.296875 0 
L 4.296875 8.203125 
L 38.09375 47.515625 
L 5.515625 47.515625 
z
" id="DejaVuSans-7a"/>
      <path d="M 56.203125 29.59375 
L 56.203125 25.203125 
L 14.890625 25.203125 
Q 15.484375 15.921875 20.484375 11.0625 
Q 25.484375 6.203125 34.421875 6.203125 
Q 39.59375 6.203125 44.453125 7.46875 
Q 49.3125 8.734375 54.109375 11.28125 
L 54.109375 2.78125 
Q 49.265625 0.734375 44.1875 -0.34375 
Q 39.109375 -1.421875 33.890625 -1.421875 
Q 20.796875 -1.421875 13.15625 6.1875 
Q 5.515625 13.8125 5.515625 26.8125 
Q 5.515625 40.234375 12.765625 48.109375 
Q 20.015625 56 32.328125 56 
Q 43.359375 56 49.78125 48.890625 
Q 56.203125 41.796875 56.203125 29.59375 
M 47.21875 32.234375 
Q 47.125 39.59375 43.09375 43.984375 
Q 39.0625 48.390625 32.421875 48.390625 
Q 24.90625 48.390625 20.390625 44.140625 
Q 15.875 39.890625 15.1875 32.171875 
z
" id="DejaVuSans-65"/>
      <path id="DejaVuSans-20"/>
      <path d="M 31 75.875 
Q 24.46875 64.65625 21.28125 53.65625 
Q 18.109375 42.671875 18.109375 31.390625 
Q 18.109375 20.125 21.3125 9.0625 
Q 24.515625 -2 31 -13.1875 
L 23.1875 -13.1875 
Q 15.875 -1.703125 12.234375 9.375 
Q 8.59375 20.453125 8.59375 31.390625 
Q 8.59375 42.28125 12.203125 53.3125 
Q 15.828125 64.359375 23.1875 75.875 
z
" id="DejaVuSans-28"/>
      <path d="M 8.015625 75.875 
L 15.828125 75.875 
Q 23.140625 64.359375 26.78125 53.3125 
Q 30.421875 42.28125 30.421875 31.390625 
Q 30.421875 20.453125 26.78125 9.375 
Q 23.140625 -1.703125 15.828125 -13.1875 
L 8.015625 -13.1875 
Q 14.5 -2 17.703125 9.0625 
Q 20.90625 20.125 20.90625 31.390625 
Q 20.90625 42.671875 17.703125 53.65625 
Q 14.5 64.65625 8.015625 75.875 
" id="DejaVuSans-29"/>
     </defs>
     <g style="fill:#d2d2d2;" transform="translate(139.14 283.05875)scale(0.18 -0.18)">
      <use transform="translate(0 0.015625)" xlink:href="#DejaVuSans-53"/>
      <use transform="translate(63.476562 0.015625)" xlink:href="#DejaVuSans-74"/>
      <use transform="translate(102.685547 0.015625)" xlink:href="#DejaVuSans-61"/>
      <use transform="translate(163.964844 0.015625)" xlink:href="#DejaVuSans-6e"/>
      <use transform="translate(227.34375 0.015625)" xlink:href="#DejaVuSans-64"/>
      <use transform="translate(290.820312 0.015625)" xlink:href="#DejaVuSans-61"/>
      <use transform="translate(352.099609 0.015625)" xlink:href="#DejaVuSans-72"/>
      <use transform="translate(393.212891 0.015625)" xlink:href="#DejaVuSans-64"/>
      <use transform="translate(456.689453 0.015625)" xlink:href="#DejaVuSans-69"/>
      <use transform="translate(484.472656 0.015625)" xlink:href="#DejaVuSans-7a"/>
      <use transform="translate(536.962891 0.015625)" xlink:href="#DejaVuSans-65"/>
      <use transform="translate(598.486328 0.015625)" xlink:href="#DejaVuSans-64"/>
      <use transform="translate(661.962891 0.015625)" xlink:href="#DejaVuSans-20"/>
      <use transform="translate(755.888672 -0.078125)" xlink:href="#DejaVuSans-304"/>
      <use transform="translate(693.75 0.015625)" xlink:href="#DejaVuSans-Oblique-78"/>
      <use transform="translate(752.929688 0.015625)" xlink:href="#DejaVuSans-20"/>
      <use transform="translate(784.716797 0.015625)" xlink:href="#DejaVuSans-28"/>
      <use transform="translate(823.730469 0.015625)" xlink:href="#DejaVuSans-74"/>
      <use transform="translate(862.939453 0.015625)" xlink:href="#DejaVuSans-29"/>
     </g>
    </g>
   </g>
   <g id="matplotlib.axis_2"/>
   <g id="line2d_10">
    <path clip-path="url(#p5a0eadaa47)" d="M 43.2 244.730651 
L 63.057297 244.523831 
L 74.758919 244.190771 
L 83.269189 243.732402 
L 90.006486 243.15249 
L 95.68 242.444704 
L 100.644324 241.601026 
L 104.899459 240.662941 
L 108.8 239.587047 
L 112.345946 238.393678 
L 115.891892 236.95867 
L 119.083243 235.42802 
L 122.274595 233.63833 
L 125.111351 231.802883 
L 127.948108 229.711331 
L 130.784865 227.337907 
L 133.621622 224.656335 
L 136.458378 221.640307 
L 139.295135 218.26405 
L 142.131892 214.503005 
L 144.968649 210.334598 
L 147.805405 205.739107 
L 150.642162 200.700609 
L 153.478919 195.207992 
L 156.315676 189.255992 
L 159.507027 182.013229 
L 162.698378 174.205766 
L 166.244324 164.904019 
L 170.144865 153.98358 
L 174.4 141.385577 
L 180.073514 123.835509 
L 190.356757 91.876777 
L 194.257297 80.515248 
L 197.448649 71.847328 
L 200.285405 64.75439 
L 202.767568 59.107992 
L 204.895135 54.73771 
L 207.022703 50.84209 
L 209.15027 47.456545 
L 210.923243 45.047593 
L 212.696216 43.030304 
L 214.114595 41.707445 
L 215.532973 40.649356 
L 216.951351 39.860531 
L 218.36973 39.344333 
L 219.788108 39.102966 
L 221.206486 39.137466 
L 222.624865 39.447683 
L 224.043243 40.032291 
L 225.461622 40.888791 
L 226.88 42.013538 
L 228.298378 43.401758 
L 230.071351 45.498517 
L 231.844324 47.983999 
L 233.617297 50.84209 
L 235.744865 54.73771 
L 237.872432 59.107992 
L 240.354595 64.75439 
L 243.191351 71.847328 
L 246.382703 80.515248 
L 249.928649 90.815969 
L 254.538378 104.912522 
L 268.722162 148.811168 
L 272.977297 161.011293 
L 276.523243 170.561485 
L 280.069189 179.472376 
L 283.260541 186.905649 
L 286.451892 193.763121 
L 289.288649 199.370343 
L 292.125405 204.521538 
L 294.962162 209.226459 
L 297.798919 213.49992 
L 300.635676 217.360785 
L 303.472432 220.831 
L 306.309189 223.934704 
L 309.145946 226.697434 
L 311.982703 229.145422 
L 314.819459 231.304999 
L 317.656216 233.202099 
L 320.847568 235.053848 
L 324.038919 236.639266 
L 327.23027 237.990268 
L 330.776216 239.252218 
L 334.676757 240.391769 
L 338.931892 241.387009 
L 343.541622 242.227725 
L 348.860541 242.956305 
L 354.888649 243.545951 
L 361.980541 244.010834 
L 370.845405 244.363367 
L 382.901622 244.608468 
L 397.44 244.730651 
L 397.44 244.730651 
" style="fill:none;stroke:#5bc0de;stroke-linecap:square;stroke-width:1.5;"/>
   </g>
   <g id="line2d_11">
    <path clip-path="url(#p5a0eadaa47)" d="M 297.4656 244.8 
L 297.4656 173.52 
" style="fill:none;stroke:#f0ad4e;stroke-dasharray:5.6,2.4;stroke-dashoffset:0;stroke-width:1.5;"/>
   </g>
   <g id="line2d_12">
    <path clip-path="url(#p5a0eadaa47)" d="M 143.1744 244.8 
L 143.1744 173.52 
" style="fill:none;stroke:#f0ad4e;stroke-dasharray:5.6,2.4;stroke-dashoffset:0;stroke-width:1.5;"/>
   </g>
   <g id="patch_3">
    <path d="M 43.2 244.8 
L 397.44 244.8 
" style="fill:none;stroke:#d2d2d2;stroke-linecap:square;stroke-linejoin:miter;"/>
   </g>
   <g id="text_11">
    <!-- $1.96\times SE$ -->
    <defs>
     <path d="M 10.984375 1.515625 
L 10.984375 10.5 
Q 14.703125 8.734375 18.5 7.8125 
Q 22.3125 6.890625 25.984375 6.890625 
Q 35.75 6.890625 40.890625 13.453125 
Q 46.046875 20.015625 46.78125 33.40625 
Q 43.953125 29.203125 39.59375 26.953125 
Q 35.25 24.703125 29.984375 24.703125 
Q 19.046875 24.703125 12.671875 31.3125 
Q 6.296875 37.9375 6.296875 49.421875 
Q 6.296875 60.640625 12.9375 67.421875 
Q 19.578125 74.21875 30.609375 74.21875 
Q 43.265625 74.21875 49.921875 64.515625 
Q 56.59375 54.828125 56.59375 36.375 
Q 56.59375 19.140625 48.40625 8.859375 
Q 40.234375 -1.421875 26.421875 -1.421875 
Q 22.703125 -1.421875 18.890625 -0.6875 
Q 15.09375 0.046875 10.984375 1.515625 
M 30.609375 32.421875 
Q 37.25 32.421875 41.125 36.953125 
Q 45.015625 41.5 45.015625 49.421875 
Q 45.015625 57.28125 41.125 61.84375 
Q 37.25 66.40625 30.609375 66.40625 
Q 23.96875 66.40625 20.09375 61.84375 
Q 16.21875 57.28125 16.21875 49.421875 
Q 16.21875 41.5 20.09375 36.953125 
Q 23.96875 32.421875 30.609375 32.421875 
" id="DejaVuSans-39"/>
     <path d="M 33.015625 40.375 
Q 26.375 40.375 22.484375 35.828125 
Q 18.609375 31.296875 18.609375 23.390625 
Q 18.609375 15.53125 22.484375 10.953125 
Q 26.375 6.390625 33.015625 6.390625 
Q 39.65625 6.390625 43.53125 10.953125 
Q 47.40625 15.53125 47.40625 23.390625 
Q 47.40625 31.296875 43.53125 35.828125 
Q 39.65625 40.375 33.015625 40.375 
M 52.59375 71.296875 
L 52.59375 62.3125 
Q 48.875 64.0625 45.09375 64.984375 
Q 41.3125 65.921875 37.59375 65.921875 
Q 27.828125 65.921875 22.671875 59.328125 
Q 17.53125 52.734375 16.796875 39.40625 
Q 19.671875 43.65625 24.015625 45.921875 
Q 28.375 48.1875 33.59375 48.1875 
Q 44.578125 48.1875 50.953125 41.515625 
Q 57.328125 34.859375 57.328125 23.390625 
Q 57.328125 12.15625 50.6875 5.359375 
Q 44.046875 -1.421875 33.015625 -1.421875 
Q 20.359375 -1.421875 13.671875 8.265625 
Q 6.984375 17.96875 6.984375 36.375 
Q 6.984375 53.65625 15.1875 63.9375 
Q 23.390625 74.21875 37.203125 74.21875 
Q 40.921875 74.21875 44.703125 73.484375 
Q 48.484375 72.75 52.59375 71.296875 
" id="DejaVuSans-36"/>
     <path d="M 70.125 53.71875 
L 47.796875 31.296875 
L 70.125 8.984375 
L 64.3125 3.078125 
L 41.890625 25.484375 
L 19.484375 3.078125 
L 13.71875 8.984375 
L 35.984375 31.296875 
L 13.71875 53.71875 
L 19.484375 59.625 
L 41.890625 37.203125 
L 64.3125 59.625 
z
" id="DejaVuSans-d7"/>
     <path d="M 60.296875 70.515625 
L 58.40625 60.890625 
Q 53.46875 63.53125 48.609375 64.875 
Q 43.75 66.21875 39.203125 66.21875 
Q 30.375 66.21875 25.140625 62.359375 
Q 19.921875 58.5 19.921875 52.09375 
Q 19.921875 48.578125 21.84375 46.703125 
Q 23.78125 44.828125 31.78125 42.671875 
L 37.703125 41.21875 
Q 47.703125 38.625 51.609375 34.640625 
Q 55.515625 30.671875 55.515625 23.484375 
Q 55.515625 12.453125 46.84375 5.515625 
Q 38.1875 -1.421875 24.03125 -1.421875 
Q 18.21875 -1.421875 12.359375 -0.265625 
Q 6.5 0.875 0.59375 3.21875 
L 2.59375 13.375 
Q 8.015625 10.015625 13.453125 8.296875 
Q 18.890625 6.59375 24.3125 6.59375 
Q 33.546875 6.59375 39.109375 10.6875 
Q 44.671875 14.796875 44.671875 21.390625 
Q 44.671875 25.78125 42.453125 28.046875 
Q 40.234375 30.328125 32.90625 32.171875 
L 27 33.6875 
Q 16.890625 36.328125 13.203125 39.765625 
Q 9.515625 43.21875 9.515625 49.421875 
Q 9.515625 60.296875 17.890625 67.25 
Q 26.265625 74.21875 39.703125 74.21875 
Q 44.921875 74.21875 50.046875 73.28125 
Q 55.171875 72.359375 60.296875 70.515625 
" id="DejaVuSans-Oblique-53"/>
     <path d="M 16.890625 72.90625 
L 62.984375 72.90625 
L 61.375 64.59375 
L 25.09375 64.59375 
L 20.90625 43.015625 
L 55.71875 43.015625 
L 54.109375 34.71875 
L 19.28125 34.71875 
L 14.203125 8.296875 
L 51.3125 8.296875 
L 49.703125 0 
L 2.6875 0 
z
" id="DejaVuSans-Oblique-45"/>
    </defs>
    <g style="fill:#f0ad4e;" transform="translate(297.4656 169.2)scale(0.15 -0.15)">
     <use transform="translate(0 0.78125)" xlink:href="#DejaVuSans-31"/>
     <use transform="translate(63.623047 0.78125)" xlink:href="#DejaVuSans-2e"/>
     <use transform="translate(95.410156 0.78125)" xlink:href="#DejaVuSans-39"/>
     <use transform="translate(159.033203 0.78125)" xlink:href="#DejaVuSans-36"/>
     <use transform="translate(242.138672 0.78125)" xlink:href="#DejaVuSans-d7"/>
     <use transform="translate(345.410156 0.78125)" xlink:href="#DejaVuSans-Oblique-53"/>
     <use transform="translate(408.886719 0.78125)" xlink:href="#DejaVuSans-Oblique-45"/>
    </g>
   </g>
   <g id="text_12">
    <!-- $-1.96\times SE$ -->
    <defs>
     <path d="M 10.59375 35.5 
L 73.1875 35.5 
L 73.1875 27.203125 
L 10.59375 27.203125 
z
" id="DejaVuSans-2212"/>
    </defs>
    <g style="fill:#f0ad4e;" transform="translate(59.7744 169.2)scale(0.15 -0.15)">
     <use transform="translate(0 0.78125)" xlink:href="#DejaVuSans-2212"/>
     <use transform="translate(83.789062 0.78125)" xlink:href="#DejaVuSans-31"/>
     <use transform="translate(147.412109 0.78125)" xlink:href="#DejaVuSans-2e"/>
     <use transform="translate(179.199219 0.78125)" xlink:href="#DejaVuSans-39"/>
     <use transform="translate(242.822266 0.78125)" xlink:href="#DejaVuSans-36"/>
     <use transform="translate(325.927734 0.78125)" xlink:href="#DejaVuSans-d7"/>
     <use transform="translate(429.199219 0.78125)" xlink:href="#DejaVuSans-Oblique-53"/>
     <use transform="translate(492.675781 0.78125)" xlink:href="#DejaVuSans-Oblique-45"/>
    </g>
   </g>
   <g id="text_13">
    <!-- 95% of the -->
    <defs>
     <path d="M 10.796875 72.90625 
L 49.515625 72.90625 
L 49.515625 64.59375 
L 19.828125 64.59375 
L 19.828125 46.734375 
Q 21.96875 47.46875 24.109375 47.828125 
Q 26.265625 48.1875 28.421875 48.1875 
Q 40.625 48.1875 47.75 41.5 
Q 54.890625 34.8125 54.890625 23.390625 
Q 54.890625 11.625 47.5625 5.09375 
Q 40.234375 -1.421875 26.90625 -1.421875 
Q 22.3125 -1.421875 17.546875 -0.640625 
Q 12.796875 0.140625 7.71875 1.703125 
L 7.71875 11.625 
Q 12.109375 9.234375 16.796875 8.0625 
Q 21.484375 6.890625 26.703125 6.890625 
Q 35.15625 6.890625 40.078125 11.328125 
Q 45.015625 15.765625 45.015625 23.390625 
Q 45.015625 31 40.078125 35.4375 
Q 35.15625 39.890625 26.703125 39.890625 
Q 22.75 39.890625 18.8125 39.015625 
Q 14.890625 38.140625 10.796875 36.28125 
z
" id="DejaVuSans-35"/>
     <path d="M 72.703125 32.078125 
Q 68.453125 32.078125 66.03125 28.46875 
Q 63.625 24.859375 63.625 18.40625 
Q 63.625 12.0625 66.03125 8.421875 
Q 68.453125 4.78125 72.703125 4.78125 
Q 76.859375 4.78125 79.265625 8.421875 
Q 81.6875 12.0625 81.6875 18.40625 
Q 81.6875 24.8125 79.265625 28.4375 
Q 76.859375 32.078125 72.703125 32.078125 
M 72.703125 38.28125 
Q 80.421875 38.28125 84.953125 32.90625 
Q 89.5 27.546875 89.5 18.40625 
Q 89.5 9.28125 84.9375 3.921875 
Q 80.375 -1.421875 72.703125 -1.421875 
Q 64.890625 -1.421875 60.34375 3.921875 
Q 55.8125 9.28125 55.8125 18.40625 
Q 55.8125 27.59375 60.375 32.9375 
Q 64.9375 38.28125 72.703125 38.28125 
M 22.3125 68.015625 
Q 18.109375 68.015625 15.6875 64.375 
Q 13.28125 60.75 13.28125 54.390625 
Q 13.28125 47.953125 15.671875 44.328125 
Q 18.0625 40.71875 22.3125 40.71875 
Q 26.5625 40.71875 28.96875 44.328125 
Q 31.390625 47.953125 31.390625 54.390625 
Q 31.390625 60.6875 28.953125 64.34375 
Q 26.515625 68.015625 22.3125 68.015625 
M 66.40625 74.21875 
L 74.21875 74.21875 
L 28.609375 -1.421875 
L 20.796875 -1.421875 
z
M 22.3125 74.21875 
Q 30.03125 74.21875 34.609375 68.875 
Q 39.203125 63.53125 39.203125 54.390625 
Q 39.203125 45.171875 34.640625 39.84375 
Q 30.078125 34.515625 22.3125 34.515625 
Q 14.546875 34.515625 10.03125 39.859375 
Q 5.515625 45.21875 5.515625 54.390625 
Q 5.515625 63.484375 10.046875 68.84375 
Q 14.59375 74.21875 22.3125 74.21875 
" id="DejaVuSans-25"/>
     <path d="M 30.609375 48.390625 
Q 23.390625 48.390625 19.1875 42.75 
Q 14.984375 37.109375 14.984375 27.296875 
Q 14.984375 17.484375 19.15625 11.84375 
Q 23.34375 6.203125 30.609375 6.203125 
Q 37.796875 6.203125 41.984375 11.859375 
Q 46.1875 17.53125 46.1875 27.296875 
Q 46.1875 37.015625 41.984375 42.703125 
Q 37.796875 48.390625 30.609375 48.390625 
M 30.609375 56 
Q 42.328125 56 49.015625 48.375 
Q 55.71875 40.765625 55.71875 27.296875 
Q 55.71875 13.875 49.015625 6.21875 
Q 42.328125 -1.421875 30.609375 -1.421875 
Q 18.84375 -1.421875 12.171875 6.21875 
Q 5.515625 13.875 5.515625 27.296875 
Q 5.515625 40.765625 12.171875 48.375 
Q 18.84375 56 30.609375 56 
" id="DejaVuSans-6f"/>
     <path d="M 37.109375 75.984375 
L 37.109375 68.5 
L 28.515625 68.5 
Q 23.6875 68.5 21.796875 66.546875 
Q 19.921875 64.59375 19.921875 59.515625 
L 19.921875 54.6875 
L 34.71875 54.6875 
L 34.71875 47.703125 
L 19.921875 47.703125 
L 19.921875 0 
L 10.890625 0 
L 10.890625 47.703125 
L 2.296875 47.703125 
L 2.296875 54.6875 
L 10.890625 54.6875 
L 10.890625 58.5 
Q 10.890625 67.625 15.140625 71.796875 
Q 19.390625 75.984375 28.609375 75.984375 
z
" id="DejaVuSans-66"/>
     <path d="M 54.890625 33.015625 
L 54.890625 0 
L 45.90625 0 
L 45.90625 32.71875 
Q 45.90625 40.484375 42.875 44.328125 
Q 39.84375 48.1875 33.796875 48.1875 
Q 26.515625 48.1875 22.3125 43.546875 
Q 18.109375 38.921875 18.109375 30.90625 
L 18.109375 0 
L 9.078125 0 
L 9.078125 75.984375 
L 18.109375 75.984375 
L 18.109375 46.1875 
Q 21.34375 51.125 25.703125 53.5625 
Q 30.078125 56 35.796875 56 
Q 45.21875 56 50.046875 50.171875 
Q 54.890625 44.34375 54.890625 33.015625 
" id="DejaVuSans-68"/>
    </defs>
    <g style="fill:#5bc0de;" transform="translate(179.345391 174.003281)scale(0.15 -0.15)">
     <use xlink:href="#DejaVuSans-39"/>
     <use x="63.623047" xlink:href="#DejaVuSans-35"/>
     <use x="127.246094" xlink:href="#DejaVuSans-25"/>
     <use x="222.265625" xlink:href="#DejaVuSans-20"/>
     <use x="254.052734" xlink:href="#DejaVuSans-6f"/>
     <use x="315.234375" xlink:href="#DejaVuSans-66"/>
     <use x="350.439453" xlink:href="#DejaVuSans-20"/>
     <use x="382.226562" xlink:href="#DejaVuSans-74"/>
     <use x="421.435547" xlink:href="#DejaVuSans-68"/>
     <use x="484.814453" xlink:href="#DejaVuSans-65"/>
    </g>
    <!-- sample means -->
    <defs>
     <path d="M 44.28125 53.078125 
L 44.28125 44.578125 
Q 40.484375 46.53125 36.375 47.5 
Q 32.28125 48.484375 27.875 48.484375 
Q 21.1875 48.484375 17.84375 46.4375 
Q 14.5 44.390625 14.5 40.28125 
Q 14.5 37.15625 16.890625 35.375 
Q 19.28125 33.59375 26.515625 31.984375 
L 29.59375 31.296875 
Q 39.15625 29.25 43.1875 25.515625 
Q 47.21875 21.78125 47.21875 15.09375 
Q 47.21875 7.46875 41.1875 3.015625 
Q 35.15625 -1.421875 24.609375 -1.421875 
Q 20.21875 -1.421875 15.453125 -0.5625 
Q 10.6875 0.296875 5.421875 2 
L 5.421875 11.28125 
Q 10.40625 8.6875 15.234375 7.390625 
Q 20.0625 6.109375 24.8125 6.109375 
Q 31.15625 6.109375 34.5625 8.28125 
Q 37.984375 10.453125 37.984375 14.40625 
Q 37.984375 18.0625 35.515625 20.015625 
Q 33.0625 21.96875 24.703125 23.78125 
L 21.578125 24.515625 
Q 13.234375 26.265625 9.515625 29.90625 
Q 5.8125 33.546875 5.8125 39.890625 
Q 5.8125 47.609375 11.28125 51.796875 
Q 16.75 56 26.8125 56 
Q 31.78125 56 36.171875 55.265625 
Q 40.578125 54.546875 44.28125 53.078125 
" id="DejaVuSans-73"/>
     <path d="M 52 44.1875 
Q 55.375 50.25 60.0625 53.125 
Q 64.75 56 71.09375 56 
Q 79.640625 56 84.28125 50.015625 
Q 88.921875 44.046875 88.921875 33.015625 
L 88.921875 0 
L 79.890625 0 
L 79.890625 32.71875 
Q 79.890625 40.578125 77.09375 44.375 
Q 74.3125 48.1875 68.609375 48.1875 
Q 61.625 48.1875 57.5625 43.546875 
Q 53.515625 38.921875 53.515625 30.90625 
L 53.515625 0 
L 44.484375 0 
L 44.484375 32.71875 
Q 44.484375 40.625 41.703125 44.40625 
Q 38.921875 48.1875 33.109375 48.1875 
Q 26.21875 48.1875 22.15625 43.53125 
Q 18.109375 38.875 18.109375 30.90625 
L 18.109375 0 
L 9.078125 0 
L 9.078125 54.6875 
L 18.109375 54.6875 
L 18.109375 46.1875 
Q 21.1875 51.21875 25.484375 53.609375 
Q 29.78125 56 35.6875 56 
Q 41.65625 56 45.828125 52.96875 
Q 50 49.953125 52 44.1875 
" id="DejaVuSans-6d"/>
     <path d="M 18.109375 8.203125 
L 18.109375 -20.796875 
L 9.078125 -20.796875 
L 9.078125 54.6875 
L 18.109375 54.6875 
L 18.109375 46.390625 
Q 20.953125 51.265625 25.265625 53.625 
Q 29.59375 56 35.59375 56 
Q 45.5625 56 51.78125 48.09375 
Q 58.015625 40.1875 58.015625 27.296875 
Q 58.015625 14.40625 51.78125 6.484375 
Q 45.5625 -1.421875 35.59375 -1.421875 
Q 29.59375 -1.421875 25.265625 0.953125 
Q 20.953125 3.328125 18.109375 8.203125 
M 48.6875 27.296875 
Q 48.6875 37.203125 44.609375 42.84375 
Q 40.53125 48.484375 33.40625 48.484375 
Q 26.265625 48.484375 22.1875 42.84375 
Q 18.109375 37.203125 18.109375 27.296875 
Q 18.109375 17.390625 22.1875 11.75 
Q 26.265625 6.109375 33.40625 6.109375 
Q 40.53125 6.109375 44.609375 11.75 
Q 48.6875 17.390625 48.6875 27.296875 
" id="DejaVuSans-70"/>
     <path d="M 9.421875 75.984375 
L 18.40625 75.984375 
L 18.40625 0 
L 9.421875 0 
z
" id="DejaVuSans-6c"/>
    </defs>
    <g style="fill:#5bc0de;" transform="translate(165.491484 190.8)scale(0.15 -0.15)">
     <use xlink:href="#DejaVuSans-73"/>
     <use x="52.099609" xlink:href="#DejaVuSans-61"/>
     <use x="113.378906" xlink:href="#DejaVuSans-6d"/>
     <use x="210.791016" xlink:href="#DejaVuSans-70"/>
     <use x="274.267578" xlink:href="#DejaVuSans-6c"/>
     <use x="302.050781" xlink:href="#DejaVuSans-65"/>
     <use x="363.574219" xlink:href="#DejaVuSans-20"/>
     <use x="395.361328" xlink:href="#DejaVuSans-6d"/>
     <use x="492.773438" xlink:href="#DejaVuSans-65"/>
     <use x="554.296875" xlink:href="#DejaVuSans-61"/>
     <use x="615.576172" xlink:href="#DejaVuSans-6e"/>
     <use x="678.955078" xlink:href="#DejaVuSans-73"/>
    </g>
   </g>
  </g>
 </g>
 <defs>
  <clipPath id="p5a0eadaa47">
   <rect height="216" width="354.24" x="43.2" y="28.8"/>
  </clipPath>
 </defs>
</svg>
