<?xml version="1.0" encoding="utf-8"?>
<!-- Generator: Adobe Illustrator 16.0.4, SVG Export Plug-In . SVG Version: 6.00 Build 0)  -->
<!DOCTYPE svg PUBLIC "-//W3C//DTD SVG 1.1//EN" "http://www.w3.org/Graphics/SVG/1.1/DTD/svg11.dtd">
<svg version="1.1" id="Layer_1" xmlns="http://www.w3.org/2000/svg" xmlns:xlink="http://www.w3.org/1999/xlink" x="0px" y="0px"
	 width="198px" height="432px" viewBox="0 0 198 432" enable-background="new 0 0 198 432" xml:space="preserve">
<path fill="none" d="M62.262,112.648c5.827-0.044,10.257-1.482,16.312-5.487c23.324-15.429,43.111-34.874,62.032-55.248
	c6.592-7.097,12.827-14.55,16.964-23.443c1.352-2.905,2.782-6.025,0.896-9.238c-6.581-11.21-13.639-13.436-24.634-6.774
	c-24.737,14.987-45.994,34.315-66.409,54.599c-8.167,8.114-16.257,16.349-22.252,26.303c-1.407,2.335-3.607,5.327-1.342,7.718
	C49.311,106.864,55.295,112.208,62.262,112.648z"/>
<path fill-rule="evenodd" clip-rule="evenodd" fill="#D2D2D2" d="M23.067,426.131c6.438-12.651,12.89-25.296,19.284-37.97
	c0.467-0.925,0.909-2.154,0.691-3.085c-1.614-6.907,2.659-7.026,7.308-6.243c2.901,0.489,4.414-0.54,5.435-3.064
	c3.67-9.081,7.57-18.029,13.632-25.875c1.6-2.071,2.014-3.768-1.934-4.044c-14.021-0.98-25.265-6.684-31.541-20.003
	c-0.661-1.402-1.805-1.64-3.078-1.976c-6.071-1.604-11.928-3.727-16.953-7.643c-11.012-8.581-14.478-21.841-9.518-36.061
	c3.045-8.732,8.381-16.235,12.934-24.149c2.216-3.853,3.045-7.395,1.434-11.805c-5.49-15.029-8.371-30.943-15.37-45.473
	c-0.973-2.02,0.87-3.032,1.951-3.917c7.578-6.199,16.163-6.718,24.94-3.403c20.441,7.72,32.485,33.302,25.539,53.995
	c-0.658,1.963-0.006,2.498,1.415,3.484c14.691,10.202,29.718,5.507,44.694,1.04c3.585-1.07,4.747-4.534,5.851-7.679
	c6.03-17.189,10.764-34.746,13.963-52.672c1.442-8.078,5.743-12.618,13.756-14.017c6.604-1.152,13.238-1.722,19.927-1.574
	c5.563,0.123,9.645,2.985,10.342,8.396c2.414,18.709,9.478,35.641,18.467,51.98c2.359,4.292,2.517,9.04,0.848,13.789
	c-1.205,3.429,2.77,4.659,3.356,7.363c0,2.37,0,4.739,0,7.108c-1.11,2.772-2.08,5.612-3.368,8.3
	c-1.388,2.896-2.471,5.247-0.845,8.864c3.613,8.036,6.332,18.243,0.674,24.666c-6.424,7.292-4.936,14.896-6.458,22.505
	c-1.801,9.008-5.68,12.244-14.757,12.206c-3.321-0.015-5.963,1.214-8.42,3.402c-7.825,6.973-16.013,13.372-26.392,16.287
	c-1.27,0.356-2.408,1.722-3.278,2.869c-7.023,9.254-9.879,20.447-14.27,30.928c-0.545,1.301,0.444,2.005,1.095,2.8
	c6.595,8.085,13.094,16.255,19.895,24.162c1.883,2.188,2.851,3.948,1.194,6.506c-1.723,0-3.446,0-5.169,0
	c2.13-2.553,1.246-3.671-1.677-4.829c-27.062-10.716-48.844-27.729-63.132-53.545c-0.296-0.534-0.756-0.977-1.14-1.462
	c-0.408,0.568-0.928,1.087-1.208,1.714c-2.641,5.896-5.378,11.761-9.388,16.864c-1.48,1.885-1.331,3.107-0.066,5.021
	c8.884,13.454,19.583,25.312,31.374,36.236C64.426,426.131,43.747,426.131,23.067,426.131z M117.759,246.598
	c-1.025,0.47-2.016,1.057-3.083,1.39c-9.136,2.856-18.286,5.664-27.427,8.5c-0.572,0.178-1.103,0.484-1.652,0.731
	c0.517,0.319,0.994,0.756,1.556,0.94c4.598,1.513,9.294,2.771,13.782,4.555c1.952,0.775,3.486,2.602,5.211,3.95
	c-1.976-0.166-3.961-0.263-5.925-0.521c-1.489-0.195-2.956-0.577-4.426-0.907c-12.28-2.759-23.907-7.99-36.479-9.636
	c-0.794-0.104-1.617,0.009-2.428,0.021c0.371,0.739,0.649,1.544,1.127,2.208c2.322,3.231,4.9,6.318,5.961,10.265
	c0.252,0.938,0.162,1.967,0.229,2.953c-0.618-0.685-1.389-1.282-1.833-2.065c-3.941-6.955-9.278-12.869-14.143-19.138
	c-0.48-0.62-1.175-1.882-0.981-2.081c0.9-0.928,1.789-0.036,2.484,0.537c1.352,1.114,1.892,0.736,2.445-0.812
	c5.465-15.303-0.34-37.502-12.644-48.132c-9.081-7.844-21.285-9.274-29.906-3.641c-2.185,1.428-2.677,2.573-1.287,5.112
	c9.644,17.611,13.841,37.252,20.523,55.971c0.482,1.35,0.373,3.029-1.152,3.662c-1.479,0.614-2.156-0.918-3.047-1.812
	c-0.447-0.449-0.521-3.076-1.859-0.685c-4.3,7.679-9.79,14.722-12.458,23.28c-5.698,18.279,2.498,31.041,21.434,33.194
	c9.941,1.13,19.767-0.508,29.619-1.463c0.713-0.068,1.608-1.014,2.141,0.125c0.054,0.114-1.213,0.996-1.957,1.309
	c-5.61,2.357-11.596,3.239-17.533,4.221c-2.456,0.405-2.422,1.201-1.35,3.072c4.871,8.499,11.767,14.423,21.222,17.304
	c7.359,2.243,14.966,3.014,22.532,4.058c0.747,0.103,1.452,0.513,2.176,0.78c-0.736,0.346-1.449,0.919-2.213,0.997
	c-3.313,0.335-6.64,0.554-9.965,0.755c-1.235,0.075-2.267,0.088-2.591,1.714c-0.854,4.285-2.952,8.09-5.141,11.79
	c-1.429,2.415-1.341,4.336,0.028,6.815c8.216,14.874,20.033,26.276,33.86,35.815c1.095,0.755,1.899,1.343,2.577-0.486
	c3.104-8.372,6.722-16.581,9.338-25.099c3.296-10.729,1.67-14.1-7.824-20.222c-0.896-0.578-2.187-1.299-1.715-2.407
	c0.536-1.261,1.975-0.489,2.854-0.178c12.914,4.574,24.113,0.83,34.456-7.033c0.786-0.598,2.879-0.97,1.118-2.784
	c-4.472-4.613-8.256-9.849-14.085-13.143c-6.727-3.801-9.441-12.074-7.21-19.637c0.279-0.947,0.428-2.526-0.102-3.022
	c-3.265-3.048-3.742-7.551-6.168-11.082c-7.288-10.612-6.263-23.445,2.473-32.954c2.812-3.061,6.302-5.507,9.562-8.136
	c1.069-0.863,1.956-1.354,1.104-3.048c-2.199-4.371-2.271-9.141-2.024-13.904c0.521-10.065,3.215-20.033,1.306-30.217
	c-0.166-0.882,0.234-1.908,0.526-2.818c0.137-0.426,0.64-0.735,0.977-1.097c0.206,0.417,0.53,0.814,0.599,1.253
	c0.291,1.858-0.958,3.767,0.165,5.61c1.061-1.772,2.118-3.546,3.183-5.315c0.332-0.554,0.591-1.188,1.038-1.629
	c1.003-0.99,1.777-3.343,3.182-2.512c1.633,0.965,0.251,2.953-0.423,4.322c-4.773,9.704-6.048,19.927-4.422,30.515
	c1.344,8.742,5.122,16.008,14.341,18.44c9.499,2.506,19.066,1.948,28.171-1.912c7.199-3.052,10.003-9.483,7.715-17.012
	c-0.839-2.762-1.99-5.479-3.362-8.019c-6.549-12.117-11.061-24.95-14.117-38.357c-3.312-14.531-0.376-15.215-18.667-13.895
	c-14.265,1.03-16.562,2.846-19.995,16.495c-4.036,16.051-6.255,32.578-12.749,47.992
	C113.264,243.208,107.003,249.523,117.759,246.598z M114.814,281.44c-0.28,5.917,2.486,10.818,5.302,15.674
	c1.134,1.958,2.97,4.736,5.063,3.312c2.034-1.384,0.519-4.958-0.979-6.196c-4.52-3.735-1.597-5.723,1.324-7.713
	c2.289-1.561,4.705-3.135,7.299-3.998c4.437-1.477,10.62-2.315,12.079,2.442c2.297,7.496,6.333,4.313,10.399,3.612
	c1.062-0.184,2.134-0.299,3.196-0.468c7.05-1.12,15.153-0.824,17.746-9.564c2.09-7.046,8.019-12.367,8.473-20.045
	c0.183-3.076-0.327-4.08-3.602-2.301c-2.979,1.618-6.36,2.754-9.7,3.401c-10.66,2.067-21.342,3.59-31.023-3.521
	c-1.397-1.026-3.13-0.586-4.708-0.237C124.961,258.204,114.964,270.481,114.814,281.44z M123.192,305.595
	c2.239,0.882,4.419,1.984,6.728,2.61c14.655,3.975,29.346,3.468,44.076,0.275c4.977-1.078,7.627-4,8.442-8.903
	c0.593-3.562,0.353-7.068-0.303-10.587c-0.481-2.588-0.531-5.325-4.125-1.962c-2.226,2.084-5.476,2.372-8.457,2.845
	c-13.184,2.091-25.864,5.575-37.111,13.144C129.767,304.816,126.833,305.687,123.192,305.595z M173.619,317.655
	c-0.968-1.082,1.618-4.896-1.99-4.028c-14.956,3.594-29.465,1.595-43.922-2.464c-0.808-0.226-1.733-1.1-2.273,0.543
	c-1.906,5.788,3.307,16.209,9.443,17.974c6.085,1.75,12.312,3.015,18.493,4.416C167.304,337.255,173.53,332.261,173.619,317.655z
	 M137.994,283.807c-3.115-0.018-7.366,1.765-10.822,4.537c-2.256,1.81-1.479,9.604,1.126,10.823
	c0.354,0.166,0.986-0.128,1.438-0.326c3.539-1.554,7.014-3.267,10.61-4.67c3.089-1.207,3.529-3.349,2.913-6.202
	C142.637,285.084,140.87,283.776,137.994,283.807z M127.951,418.036c-3.354-4.303-5.619-7.3-8.001-10.201
	c-0.613-0.746-1.594-1.19-2.405-1.774c-0.558,1.151-1.123,2.3-1.672,3.456c-0.556,1.173,0.129,1.823,1.038,2.336
	C120.073,413.635,123.244,415.401,127.951,418.036z"/>
<path fill-rule="evenodd" clip-rule="evenodd" fill="none" d="M135.51,426.131c1.656-2.558,0.688-4.317-1.194-6.506
	c-6.801-7.907-13.3-16.077-19.895-24.162c-0.65-0.795-1.64-1.499-1.095-2.8c4.391-10.48,7.246-21.674,14.27-30.928
	c0.87-1.147,2.009-2.513,3.278-2.869c10.379-2.915,18.566-9.314,26.392-16.287c2.457-2.188,5.099-3.417,8.42-3.402
	c9.077,0.038,12.956-3.198,14.757-12.206c1.522-7.609,0.034-15.213,6.458-22.505c5.658-6.423,2.939-16.63-0.674-24.666
	c-1.626-3.617-0.543-5.969,0.845-8.864c1.288-2.688,2.258-5.527,3.368-8.3c0,53.637-0.018,107.273,0.062,160.91
	c0.003,2.212-0.432,2.664-2.647,2.649C170.407,426.079,152.958,426.131,135.51,426.131z"/>
<path fill-rule="evenodd" clip-rule="evenodd" fill="none" d="M85.104,426.131c-11.791-10.924-22.49-22.782-31.374-36.236
	c-1.265-1.914-1.414-3.137,0.066-5.021c4.01-5.104,6.747-10.968,9.388-16.864c0.28-0.627,0.8-1.146,1.208-1.714
	c0.384,0.485,0.844,0.928,1.14,1.462c14.288,25.815,36.069,42.829,63.132,53.545c2.923,1.158,3.807,2.276,1.677,4.829
	c-2.801,0-5.601,0-8.401,0c-0.092-2.965-1.941-4.633-4.562-4.92c-3.354-0.369-4.989,1.932-5.777,4.92
	C102.769,426.131,93.937,426.131,85.104,426.131z"/>
<path fill-rule="evenodd" clip-rule="evenodd" fill="#D2D2D2" d="M111.6,426.131c0.788-2.988,2.423-5.289,5.777-4.92
	c2.621,0.287,4.471,1.955,4.562,4.92C118.492,426.131,115.047,426.131,111.6,426.131z"/>
<path fill-rule="evenodd" clip-rule="evenodd" fill="#D2D2D2" d="M62.262,112.648c-6.967-0.44-12.951-5.784-18.433-11.571
	c-2.265-2.391-0.065-5.383,1.342-7.718c5.995-9.954,14.085-18.189,22.252-26.303c20.415-20.283,41.672-39.612,66.409-54.599
	c10.995-6.662,18.053-4.436,24.634,6.774c1.886,3.213,0.455,6.333-0.896,9.238c-4.137,8.893-10.372,16.346-16.964,23.443
	c-18.921,20.374-38.708,39.819-62.032,55.248C72.519,111.166,68.089,112.604,62.262,112.648z M150.555,17.595
	c-0.285-0.187-0.57-0.374-0.855-0.561c-0.108-0.238-0.216-0.475-0.325-0.713c-0.094,0.11-0.188,0.219-0.282,0.329
	c0.226,0.103,0.452,0.204,0.679,0.309c0.297,0.186,0.594,0.371,0.89,0.556c0.147,0.292,0.295,0.583,0.442,0.875
	c0.354,0.136,0.706,0.272,1.06,0.408c0.013,0.078,0.024,0.156,0.036,0.235c-0.093-0.078-0.186-0.155-0.278-0.233
	c0.08-0.008,0.158-0.017,0.236-0.025c-0.379-0.104-0.758-0.208-1.137-0.315C150.871,18.166,150.721,17.873,150.555,17.595z
	 M57.977,104.012c-0.014,0.048-0.027,0.096-0.041,0.145c0.06-0.044,0.118-0.087,0.177-0.131
	C58.064,104.02,58.017,104.014,57.977,104.012z M67.708,107.481c0.143,0.212,0.286,0.426,0.429,0.639
	c0.079-0.056,0.158-0.111,0.237-0.166c-0.246-0.134-0.492-0.268-0.738-0.401c-2.686-2.41-5.325-4.874-8.096-7.182
	c-0.521-0.436-1.558-0.253-2.356-0.355c0.122,0.345,0.14,0.853,0.383,1.01C60.934,103.197,63.516,106.613,67.708,107.481z
	 M123.767,63.706c0.031-0.02,0.062-0.04,0.094-0.06c-0.051,0.056-0.101,0.112-0.15,0.168c-0.708-4.77-4.998-6.892-7.633-10.234
	c-0.153-0.194-1.027-0.08-1.349,0.17c-0.723,0.563-0.233,1.062,0.271,1.544C117.93,58.094,120.839,60.913,123.767,63.706z
	 M47.565,100.322c3.835-0.64,6.929-2.801,10.067-4.883c20.81-13.808,38.909-30.875,57.217-47.678
	c10.966-10.065,21.241-20.766,28.594-33.894c0.524-0.938,1.691-2,0.795-3.12c-0.201-0.25-1.897,0.52-2.788,1.026
	c-34.354,19.541-63.104,45.72-88.994,75.264c-2.837,3.237-5.224,6.854-6.354,11.123C45.773,99.403,45.516,100.649,47.565,100.322z
	 M112.422,55.965c-0.738,0.41-1.153,0.543-1.441,0.813c-5.725,5.361-11.433,10.74-17.15,16.109c-0.782,0.735-0.767,1.273,0.045,2.1
	c2.482,2.527,4.88,5.14,7.237,7.784c1.554,1.743,2.894,2.113,4.789,0.291c4.18-4.018,8.624-7.762,12.778-11.804
	c1.439-1.401,4.401-3.31,3.298-4.914C119.344,62.514,115.683,59.39,112.422,55.965z M139.601,46.338
	c-1.731-3.673-4.522-6.177-7.526-8.083c-1.718-1.09-2.811,1.695-4.059,2.818c-2.953,2.658-5.624,5.632-8.609,8.249
	c-1.946,1.705-2.073,2.823-0.291,4.885c6.986,8.083,6.894,8.148,14.021-0.019c1.412-1.619,2.967-3.114,4.356-4.751
	C138.301,48.485,138.912,47.366,139.601,46.338z M90.739,74.982c-3.535,2.956-6.975,5.832-10.413,8.708
	c1.384,1.648,2.711,3.349,4.169,4.929c1.673,1.811,3.441,3.536,5.215,5.25c0.578,0.559,1.214,1.39,2.181,0.585
	c3.209-2.669,6.405-5.354,9.605-8.034c-1.757-1.916-3.532-3.815-5.267-5.752c-1.217-1.358-2.351-2.792-3.579-4.139
	C92.167,75.999,91.527,75.61,90.739,74.982z M89.125,96.179c-3.738-3.523-7.307-7.177-11.306-10.276
	c-0.481-0.375-3.332,2.188-4.992,3.505c-0.759,0.602,0.02,1.107,0.444,1.542c2.776,2.836,5.556,5.669,8.336,8.501
	c0.814,0.829,1.67,1.392,2.768,0.417C85.852,98.56,88.189,98.342,89.125,96.179z M80.861,101.718
	c-3.589-3.43-7.131-6.841-10.738-10.182c-0.15-0.14-1.054,0.249-1.311,0.605c-0.178,0.246,0.003,1.029,0.285,1.284
	c3.342,3.019,6.725,5.993,10.128,8.942c0.271,0.234,0.782,0.27,1.173,0.245C80.539,102.603,80.65,102.144,80.861,101.718z
	 M76.04,104.434c0.097-1.048-9.427-10.25-10.241-10.088c-0.374,0.074-0.877,0.387-0.984,0.706c-0.13,0.385-0.069,1.094,0.196,1.313
	c3.289,2.711,6.622,5.368,9.969,8.006C75.287,104.613,75.871,105.19,76.04,104.434z M136.369,32.281
	c-0.156,0.572-1.743,0.698-0.763,1.822c2.108,2.417,4.353,4.716,6.59,7.017c0.438,0.451,1.164,0.805,1.381-0.268
	C143.792,39.786,137.597,32.202,136.369,32.281z M72.154,107.303c0.207-0.224,0.413-0.448,0.619-0.673
	c-3.392-2.924-6.787-5.843-10.173-8.774c-0.657-0.569-1.394-0.826-1.905-0.02c-0.158,0.25,0.285,1.141,0.68,1.441
	C64.939,101.99,68.555,104.637,72.154,107.303z M141.299,26.392c-0.086,0.11-0.336,0.298-0.404,0.539
	c-0.234,0.822,5.743,8.194,6.506,7.984c0.337-0.092,0.704-0.52,0.822-0.874C148.536,33.105,142.44,26.224,141.299,26.392z
	 M141.739,43.371c-2.531-2.681-5.018-5.33-7.54-7.943c-0.112-0.116-0.766,0.028-0.792,0.141c-0.084,0.352-0.14,0.884,0.06,1.104
	c2.236,2.458,4.516,4.877,6.812,7.281c0.185,0.193,0.6,0.312,0.853,0.249C141.336,44.151,141.461,43.774,141.739,43.371z
	 M139.192,28.584c-0.429,0.715-0.882,1.245-0.794,1.36c2.107,2.758,4.271,5.473,6.451,8.173c0.02,0.024,0.413-0.254,0.632-0.392
	C143.448,34.771,141.416,31.817,139.192,28.584z M152.651,25.086c-1.924-2.055-3.668-3.918-5.412-5.781
	c-0.155,0.391-0.554,0.999-0.429,1.139c1.623,1.824,3.318,3.584,5.027,5.329C151.854,25.79,152.303,25.382,152.651,25.086z
	 M148.866,28.84c-0.895-2.512-2.12-4.733-5.648-6.606C145.654,25.083,147.26,26.961,148.866,28.84z"/>
<path fill-rule="evenodd" clip-rule="evenodd" fill="#D2D2D2" d="M86.319,146.919c1.795,2.112,4.229,0.869,6.313,1.034
	c16.432,1.302,21.74,9.858,14.914,24.97c-5.652,12.515-15.123,21.85-26.285,29.542c-2.02,1.392-2.215,1.841,0.095,3.261
	c7.544,4.635,10.891,14.832,7.218,21.227c-0.381,0.662-1.137,1.108-1.718,1.656c0.048-0.722,0.073-1.445,0.146-2.164
	c0.496-4.883,0.414-9.688-1.959-14.168c-1.725-3.257-4.342-5.36-8.077-5.683c-1.718-0.147-3.064-0.246-3.551-2.352
	c-0.481-2.087,0.748-2.882,2.098-3.856c10.495-7.572,19.634-16.494,26.204-27.722c3.393-5.798,7.058-12.513,2.344-18.667
	c-4.773-6.235-12.472-4.839-19.239-3.436c-4.048,0.839-7.852,2.852-11.765,4.336c-0.68,0.258-1.475,0.849-1.993-0.049
	c-0.45-0.777,0.02-1.491,0.805-1.821c4.832-2.028,9.678-4.026,14.52-6.033C86.39,146.994,86.319,146.919,86.319,146.919z"/>
<path fill-rule="evenodd" clip-rule="evenodd" fill="#D2D2D2" d="M166.384,70.279c2.082,2.893,1.155,5.959,0.247,8.857
	c-4.604,14.686-15.168,24.801-26.754,33.948c-15.91,12.56-33.103,23.202-50.845,32.964c-0.816,0.449-1.804,0.588-2.712,0.871
	c-0.001,0,0.069,0.075,0.068,0.075c8.706-5.442,17.599-10.611,26.081-16.384c16.896-11.498,34.145-22.688,46.136-39.852
	c4.294-6.145,8.977-12.274,7.843-20.555C166.452,70.198,166.384,70.279,166.384,70.279z"/>
<path fill-rule="evenodd" clip-rule="evenodd" fill="#D2D2D2" d="M162.575,66.437c1.436,1.114,3.779,1.326,3.812,3.837
	c-0.003,0.005,0.065-0.076,0.062-0.071c-1.293-1.253-2.581-2.512-3.869-3.77L162.575,66.437z"/>
<path fill-rule="evenodd" clip-rule="evenodd" fill="#D2D2D2" d="M162.579,66.433c-0.936,0.123-1.871,0.245-2.807,0.368
	c-0.01-0.122-0.02-0.243-0.029-0.364c0.943,0,1.888,0,2.831,0C162.575,66.437,162.579,66.433,162.579,66.433z"/>
<path fill-rule="evenodd" clip-rule="evenodd" fill="none" d="M117.759,246.598c-10.756,2.926-4.495-3.39-3.329-6.157
	c6.494-15.414,8.713-31.941,12.749-47.992c3.434-13.649,5.73-15.465,19.995-16.495c18.291-1.32,15.354-0.637,18.667,13.895
	c3.057,13.407,7.568,26.24,14.117,38.357c1.372,2.54,2.523,5.257,3.362,8.019c2.288,7.528-0.516,13.96-7.715,17.012
	c-9.104,3.86-18.672,4.418-28.171,1.912c-9.219-2.433-12.997-9.698-14.341-18.44c-1.626-10.588-0.352-20.811,4.422-30.515
	c0.674-1.369,2.056-3.357,0.423-4.322c-1.404-0.831-2.179,1.521-3.182,2.512c-0.447,0.44-0.706,1.075-1.038,1.629
	c-1.064,1.77-2.122,3.543-3.183,5.315c-1.123-1.844,0.126-3.752-0.165-5.61c-0.068-0.438-0.393-0.836-0.599-1.253
	c-0.337,0.361-0.84,0.671-0.977,1.097c-0.292,0.91-0.692,1.937-0.526,2.818c1.909,10.184-0.785,20.151-1.306,30.217
	c-0.246,4.764-0.175,9.533,2.024,13.904c0.853,1.694-0.034,2.185-1.104,3.048c-3.261,2.629-6.751,5.075-9.562,8.136
	c-8.735,9.509-9.761,22.342-2.473,32.954c2.426,3.531,2.903,8.034,6.168,11.082c0.529,0.496,0.381,2.075,0.102,3.022
	c-2.231,7.562,0.483,15.836,7.21,19.637c5.829,3.294,9.613,8.529,14.085,13.143c1.761,1.814-0.332,2.187-1.118,2.784
	c-10.343,7.863-21.542,11.607-34.456,7.033c-0.88-0.312-2.318-1.083-2.854,0.178c-0.472,1.108,0.818,1.829,1.715,2.407
	c9.494,6.122,11.12,9.492,7.824,20.222c-2.616,8.518-6.233,16.727-9.338,25.099c-0.678,1.829-1.482,1.241-2.577,0.486
	c-13.827-9.539-25.645-20.941-33.86-35.815c-1.369-2.479-1.457-4.4-0.028-6.815c2.188-3.7,4.286-7.505,5.141-11.79
	c0.324-1.626,1.355-1.639,2.591-1.714c3.325-0.201,6.651-0.42,9.965-0.755c0.764-0.078,1.477-0.651,2.213-0.997
	c-0.724-0.268-1.429-0.678-2.176-0.78c-7.566-1.044-15.173-1.814-22.532-4.058c-9.455-2.881-16.351-8.805-21.222-17.304
	c-1.073-1.871-1.106-2.667,1.35-3.072c5.938-0.981,11.923-1.863,17.533-4.221c0.744-0.312,2.011-1.194,1.957-1.309
	c-0.532-1.139-1.428-0.193-2.141-0.125c-9.852,0.955-19.677,2.593-29.619,1.463c-18.937-2.153-27.132-14.915-21.434-33.194
	c2.668-8.559,8.158-15.602,12.458-23.28c1.339-2.392,1.412,0.235,1.859,0.685c0.891,0.895,1.568,2.427,3.047,1.812
	c1.525-0.633,1.634-2.312,1.152-3.662c-6.683-18.719-10.88-38.359-20.523-55.971c-1.39-2.539-0.897-3.685,1.287-5.112
	c8.622-5.634,20.825-4.203,29.906,3.641c12.304,10.63,18.109,32.829,12.644,48.132c-0.554,1.549-1.094,1.927-2.445,0.812
	c-0.695-0.573-1.584-1.465-2.484-0.537c-0.193,0.199,0.501,1.461,0.981,2.081c4.864,6.269,10.201,12.183,14.143,19.138
	c0.444,0.783,1.215,1.381,1.833,2.065c-0.067-0.986,0.022-2.016-0.229-2.953c-1.061-3.946-3.639-7.033-5.961-10.265
	c-0.478-0.664-0.756-1.469-1.127-2.208c0.811-0.012,1.634-0.124,2.428-0.021c12.572,1.646,24.199,6.877,36.479,9.636
	c1.47,0.33,2.937,0.712,4.426,0.907c1.964,0.258,3.949,0.354,5.925,0.521c-1.725-1.349-3.259-3.175-5.211-3.95
	c-4.488-1.783-9.185-3.042-13.782-4.555c-0.562-0.185-1.039-0.621-1.556-0.94c0.55-0.247,1.08-0.554,1.652-0.731
	c9.141-2.836,18.291-5.644,27.427-8.5C115.743,247.654,116.733,247.067,117.759,246.598z M109.361,315.923l-0.128,0.155l0.156-0.114
	c-4.474-3.289-8.34-7.541-14.035-8.895C100.319,309.546,103.607,314.691,109.361,315.923z M165.242,232.89
	c-5.889-0.394-11.629,0.359-17.082,2.439c-2.895,1.104-3.086,0.117-2.624-2.278c1.114-5.775,6.72-10.081,13.56-10.335
	c6.255-0.233,13.259,4.235,14.579,9.328c0.088,0.335-0.046,0.731-0.097,1.097c-0.072,0.528-1.862-0.218-0.836,0.654
	c1.36,1.157,3.315,1.615,5.016,2.374c-0.024-0.806,0.145-1.678-0.103-2.408c-4.081-12.063-19.479-17.003-29.758-9.571
	c-3.965,2.867-5.53,6.719-4.637,11.545c0.313,1.694,0.85,2.664,3.009,1.98C152.49,235.745,158.778,233.973,165.242,232.89z"/>
<path fill-rule="evenodd" clip-rule="evenodd" fill="none" d="M114.809,281.442c0.155-10.961,10.152-23.238,20.875-25.604
	c1.578-0.349,3.311-0.789,4.708,0.237c9.682,7.11,20.363,5.588,31.023,3.521c3.34-0.647,6.722-1.783,9.7-3.401
	c3.274-1.779,3.784-0.775,3.602,2.301c-0.454,7.678-6.383,12.999-8.473,20.045c-2.593,8.74-10.696,8.444-17.746,9.564
	c-1.062,0.169-2.135,0.284-3.196,0.468c-4.066,0.701-8.103,3.884-10.399-3.612c-1.459-4.758-7.643-3.919-12.079-2.442
	c-2.594,0.863-5.01,2.438-7.299,3.998c-2.921,1.99-5.844,3.978-1.324,7.713c1.498,1.238,3.014,4.812,0.979,6.196
	c-2.094,1.425-3.93-1.354-5.063-3.312C117.301,292.259,114.534,287.357,114.809,281.442z"/>
<path fill-rule="evenodd" clip-rule="evenodd" fill="none" d="M123.192,305.595c3.641,0.092,6.574-0.778,9.25-2.578
	c11.247-7.568,23.928-11.053,37.111-13.144c2.981-0.473,6.231-0.761,8.457-2.845c3.594-3.363,3.644-0.626,4.125,1.962
	c0.655,3.519,0.896,7.025,0.303,10.587c-0.815,4.903-3.466,7.825-8.442,8.903c-14.73,3.192-29.421,3.699-44.076-0.275
	C127.611,307.579,125.432,306.477,123.192,305.595z"/>
<path fill-rule="evenodd" clip-rule="evenodd" fill="none" d="M173.619,317.655c-0.089,14.605-6.315,19.6-20.249,16.44
	c-6.182-1.401-12.408-2.666-18.493-4.416c-6.137-1.765-11.35-12.186-9.443-17.974c0.54-1.643,1.466-0.769,2.273-0.543
	c14.457,4.059,28.966,6.058,43.922,2.464C175.237,312.76,172.651,316.573,173.619,317.655z"/>
<path fill-rule="evenodd" clip-rule="evenodd" fill="none" d="M137.994,283.807c2.876-0.03,4.643,1.277,5.266,4.162
	c0.616,2.854,0.176,4.995-2.913,6.202c-3.597,1.403-7.071,3.116-10.61,4.67c-0.452,0.198-1.085,0.492-1.438,0.326
	c-2.605-1.22-3.382-9.014-1.126-10.823C130.628,285.571,134.879,283.789,137.994,283.807z"/>
<path fill-rule="evenodd" clip-rule="evenodd" fill="none" d="M127.951,418.036c-4.707-2.635-7.878-4.401-11.04-6.184
	c-0.909-0.513-1.594-1.163-1.038-2.336c0.549-1.156,1.114-2.305,1.672-3.456c0.812,0.584,1.792,1.028,2.405,1.774
	C122.332,410.736,124.597,413.733,127.951,418.036z"/>
<path fill-rule="evenodd" clip-rule="evenodd" fill="none" d="M47.565,100.322c-2.05,0.327-1.792-0.919-1.463-2.164
	c1.13-4.269,3.517-7.886,6.354-11.123c25.89-29.543,54.641-55.723,88.994-75.264c0.891-0.506,2.587-1.276,2.788-1.026
	c0.896,1.12-0.271,2.183-0.795,3.12c-7.353,13.128-17.628,23.829-28.594,33.894C96.542,64.564,78.442,81.631,57.633,95.439
	C54.494,97.521,51.4,99.683,47.565,100.322z M53.783,94.138c1.323-0.558,2.555-0.97,3.685-1.572
	c6.487-3.458,12.388-7.804,18.105-12.371c21.227-16.951,41.833-34.579,59.058-55.761c1.376-1.692,4.147-3.961,2.311-6.059
	c-1.877-2.143-4.397,0.41-6.251,1.561c-20.617,12.792-38.432,29.047-55.876,45.719C66.96,73.163,59.139,80.75,53.1,89.904
	c-0.651,0.985-1.425,2.031-0.812,3.259C52.512,93.615,53.254,93.81,53.783,94.138z"/>
<path fill-rule="evenodd" clip-rule="evenodd" fill="none" d="M112.422,55.965c3.261,3.425,6.922,6.549,9.556,10.379
	c1.104,1.604-1.858,3.513-3.298,4.914c-4.154,4.042-8.599,7.786-12.778,11.804c-1.896,1.822-3.235,1.452-4.789-0.291
	c-2.357-2.644-4.755-5.257-7.237-7.784c-0.812-0.826-0.827-1.365-0.045-2.1c5.718-5.37,11.426-10.749,17.15-16.109
	C111.269,56.508,111.684,56.375,112.422,55.965z"/>
<path fill-rule="evenodd" clip-rule="evenodd" fill="none" d="M139.601,46.338c-0.688,1.027-1.3,2.147-2.108,3.099
	c-1.39,1.637-2.944,3.132-4.356,4.751c-7.127,8.167-7.034,8.101-14.021,0.019c-1.782-2.062-1.655-3.18,0.291-4.885
	c2.985-2.617,5.656-5.591,8.609-8.249c1.248-1.123,2.341-3.908,4.059-2.818C135.078,40.161,137.869,42.666,139.601,46.338z"/>
<path fill-rule="evenodd" clip-rule="evenodd" fill="none" d="M90.739,74.982c0.788,0.628,1.428,1.016,1.911,1.547
	c1.229,1.347,2.362,2.78,3.579,4.139c1.734,1.937,3.51,3.836,5.267,5.752c-3.2,2.68-6.396,5.365-9.605,8.034
	c-0.967,0.805-1.603-0.027-2.181-0.585c-1.773-1.714-3.542-3.439-5.215-5.25c-1.458-1.58-2.785-3.281-4.169-4.929
	C83.765,80.814,87.204,77.938,90.739,74.982z"/>
<path fill-rule="evenodd" clip-rule="evenodd" fill="none" d="M89.125,96.179c-0.936,2.163-3.273,2.38-4.75,3.69
	c-1.098,0.975-1.953,0.412-2.768-0.417c-2.78-2.832-5.56-5.665-8.336-8.501c-0.425-0.435-1.203-0.94-0.444-1.542
	c1.66-1.317,4.511-3.88,4.992-3.505C81.818,89.002,85.387,92.656,89.125,96.179z"/>
<path fill-rule="evenodd" clip-rule="evenodd" fill="none" d="M80.861,101.718c-0.211,0.426-0.322,0.885-0.463,0.894
	c-0.391,0.024-0.902-0.011-1.173-0.245c-3.403-2.949-6.786-5.923-10.128-8.942c-0.282-0.254-0.463-1.038-0.285-1.284
	c0.257-0.356,1.16-0.745,1.311-0.605C73.73,94.877,77.272,98.288,80.861,101.718z"/>
<path fill-rule="evenodd" clip-rule="evenodd" fill="none" d="M76.04,104.434c-0.169,0.757-0.753,0.18-1.061-0.062
	c-3.347-2.639-6.68-5.295-9.969-8.006c-0.266-0.219-0.326-0.928-0.196-1.313c0.107-0.319,0.61-0.632,0.984-0.706
	C66.613,94.184,76.137,103.386,76.04,104.434z"/>
<path fill-rule="evenodd" clip-rule="evenodd" fill="none" d="M136.369,32.281c1.228-0.079,7.423,7.505,7.208,8.571
	c-0.217,1.073-0.942,0.719-1.381,0.268c-2.237-2.301-4.481-4.601-6.59-7.017C134.626,32.979,136.213,32.853,136.369,32.281z"/>
<path fill-rule="evenodd" clip-rule="evenodd" fill="none" d="M72.154,107.303c-3.6-2.666-7.215-5.312-10.779-8.025
	c-0.395-0.3-0.838-1.191-0.68-1.441c0.512-0.807,1.248-0.549,1.905,0.02c3.386,2.931,6.781,5.85,10.173,8.774
	C72.567,106.854,72.361,107.079,72.154,107.303z"/>
<path fill-rule="evenodd" clip-rule="evenodd" fill="none" d="M123.756,63.725c-2.917-2.812-5.826-5.631-8.756-8.431
	c-0.505-0.482-0.994-0.981-0.271-1.544c0.321-0.25,1.195-0.364,1.349-0.17c2.635,3.343,6.925,5.464,7.633,10.234L123.756,63.725z"/>
<path fill-rule="evenodd" clip-rule="evenodd" fill="none" d="M141.299,26.392c1.142-0.167,7.237,6.714,6.924,7.648
	c-0.118,0.354-0.485,0.782-0.822,0.874c-0.763,0.21-6.74-7.162-6.506-7.984C140.963,26.69,141.213,26.502,141.299,26.392z"/>
<path fill-rule="evenodd" clip-rule="evenodd" fill="none" d="M141.739,43.371c-0.278,0.403-0.403,0.781-0.608,0.832
	c-0.253,0.064-0.668-0.055-0.853-0.249c-2.296-2.404-4.575-4.823-6.812-7.281c-0.199-0.22-0.144-0.752-0.06-1.104
	c0.026-0.113,0.68-0.257,0.792-0.141C136.722,38.041,139.208,40.69,141.739,43.371z"/>
<path fill-rule="evenodd" clip-rule="evenodd" fill="none" d="M67.71,107.479c-4.194-0.866-6.776-4.282-10.144-6.454
	c-0.243-0.157-0.261-0.665-0.383-1.01c0.799,0.103,1.835-0.08,2.356,0.355c2.771,2.308,5.41,4.771,8.096,7.182L67.71,107.479z"/>
<path fill-rule="evenodd" clip-rule="evenodd" fill="none" d="M139.192,28.584c2.224,3.233,4.256,6.188,6.289,9.142
	c-0.219,0.137-0.612,0.416-0.632,0.392c-2.181-2.701-4.344-5.416-6.451-8.173C138.311,29.829,138.764,29.299,139.192,28.584z"/>
<path fill-rule="evenodd" clip-rule="evenodd" fill="none" d="M152.651,25.086c-0.349,0.295-0.798,0.703-0.813,0.687
	c-1.709-1.744-3.404-3.504-5.027-5.329c-0.125-0.141,0.273-0.749,0.429-1.139C148.983,21.168,150.728,23.032,152.651,25.086z"/>
<path fill-rule="evenodd" clip-rule="evenodd" fill="none" d="M148.866,28.84c-1.606-1.878-3.212-3.757-5.648-6.606
	C146.746,24.106,147.972,26.328,148.866,28.84z"/>
<path fill-rule="evenodd" clip-rule="evenodd" fill="none" d="M67.636,107.553c0.246,0.134,0.492,0.268,0.738,0.401
	c-0.079,0.055-0.158,0.11-0.237,0.166c-0.143-0.213-0.286-0.427-0.428-0.64C67.71,107.479,67.636,107.553,67.636,107.553z"/>
<path fill-rule="evenodd" clip-rule="evenodd" fill="none" d="M149.771,16.956c-0.227-0.102-0.453-0.204-0.679-0.306
	c0.094-0.11,0.188-0.219,0.282-0.329c0.109,0.238,0.217,0.475,0.325,0.714C149.698,17.036,149.771,16.956,149.771,16.956z"/>
<path fill-rule="evenodd" clip-rule="evenodd" fill="none" d="M57.969,104.008c0.048,0.006,0.096,0.012,0.144,0.018L57.969,104.008z
	"/>
<path fill-rule="evenodd" clip-rule="evenodd" fill="none" d="M152.158,18.773c-0.08,0.008-0.158,0.017-0.238,0.025
	c0.093,0.078,0.186,0.155,0.278,0.233c-0.012-0.079-0.023-0.157-0.036-0.236L152.158,18.773z"/>
<path fill-rule="evenodd" clip-rule="evenodd" fill="none" d="M58.112,104.025c-0.059,0.044-0.117,0.087-0.177,0.131
	c0.014-0.049,0.027-0.097,0.037-0.146C57.969,104.008,58.112,104.025,58.112,104.025z"/>
<path fill-rule="evenodd" clip-rule="evenodd" fill="none" d="M123.71,63.814c0.05-0.056,0.1-0.112,0.15-0.168
	c-0.031,0.02-0.062,0.04-0.1,0.07C123.756,63.725,123.71,63.814,123.71,63.814z"/>
<path fill-rule="evenodd" clip-rule="evenodd" fill="none" d="M151.021,18.46c0.378,0.104,0.757,0.209,1.137,0.313
	c0.001,0,0.005,0.022,0.005,0.022c-0.354-0.135-0.706-0.271-1.061-0.408C151.102,18.386,151.021,18.46,151.021,18.46z"/>
<path fill-rule="evenodd" clip-rule="evenodd" fill="none" d="M150.572,17.581c0.148,0.292,0.299,0.585,0.448,0.878
	c0,0.001,0.081-0.073,0.081-0.072c-0.146-0.29-0.294-0.582-0.441-0.873L150.572,17.581z"/>
<path fill-rule="evenodd" clip-rule="evenodd" fill="none" d="M150.66,17.514c-0.296-0.185-0.593-0.37-0.89-0.557
	c0-0.001-0.072,0.079-0.071,0.078c0.285,0.186,0.57,0.373,0.864,0.553C150.572,17.581,150.66,17.514,150.66,17.514z"/>
<path fill-rule="evenodd" clip-rule="evenodd" fill="#D2D2D2" d="M165.242,232.89c-6.464,1.083-12.752,2.855-18.973,4.825
	c-2.159,0.684-2.695-0.286-3.009-1.98c-0.894-4.826,0.672-8.678,4.637-11.545c10.278-7.432,25.677-2.492,29.758,9.571
	c0.247,0.73,0.078,1.603,0.103,2.408c-1.7-0.759-3.655-1.217-5.016-2.374c-1.026-0.872,0.764-0.126,0.836-0.654
	c0.051-0.365,0.185-0.762,0.097-1.097c-1.32-5.093-8.324-9.562-14.579-9.328c-6.84,0.254-12.445,4.56-13.56,10.335
	c-0.462,2.396-0.271,3.383,2.624,2.278C153.613,233.249,159.354,232.496,165.242,232.89z"/>
<path fill-rule="evenodd" clip-rule="evenodd" fill="#D2D2D2" d="M109.361,315.913c-5.754-1.222-9.042-6.367-14.007-8.844
	c5.695,1.354,9.562,5.605,14.035,8.895L109.361,315.913z"/>
<polygon fill-rule="evenodd" clip-rule="evenodd" points="109.39,315.964 109.233,316.078 109.361,315.918 "/>
<path fill-rule="evenodd" clip-rule="evenodd" fill="#D2D2D2" d="M53.783,94.138c-0.529-0.328-1.271-0.522-1.496-0.975
	c-0.612-1.228,0.161-2.273,0.812-3.259c6.039-9.154,13.86-16.741,21.715-24.249c17.444-16.672,35.259-32.927,55.876-45.719
	c1.854-1.15,4.374-3.703,6.251-1.561c1.837,2.098-0.935,4.367-2.311,6.059C117.406,45.617,96.8,63.245,75.573,80.195
	c-5.718,4.566-11.618,8.913-18.105,12.371C56.338,93.168,55.106,93.58,53.783,94.138z M54.537,92.615
	c6.252-2.895,11.718-6.707,17.006-10.762c22.492-17.249,43.918-35.649,61.832-57.793c1.095-1.354,1.705-3.101,2.54-4.665
	c-2.104-0.377-3.639,0.927-5.207,1.911c-22.179,13.937-41.417,31.429-59.907,49.799c-5.872,5.834-11.624,11.811-16.244,18.742
	c-0.459,0.688-0.683,1.539-0.946,2.336C53.597,92.224,54.251,92.484,54.537,92.615z"/>
</svg>
