<?xml version="1.0" encoding="utf-8"?>
<!-- Generator: Adobe Illustrator 16.0.4, SVG Export Plug-In . SVG Version: 6.00 Build 0)  -->
<!DOCTYPE svg PUBLIC "-//W3C//DTD SVG 1.1//EN" "http://www.w3.org/Graphics/SVG/1.1/DTD/svg11.dtd">
<svg version="1.1" xmlns="http://www.w3.org/2000/svg" xmlns:xlink="http://www.w3.org/1999/xlink" x="0px" y="0px" width="410.4px"
	 height="165.6px" viewBox="0 0 410.4 165.6" enable-background="new 0 0 410.4 165.6" xml:space="preserve">
<g id="layer1">
	<g>
		<g>
			<path fill="#D2D2D2" d="M108.123,62.38c0,0,1.892-1.854,4.729-4.635c1.42-1.388,3.078-3.008,4.854-4.742
				c1.788-1.723,3.693-3.561,5.602-5.398c1.9-1.842,3.803-3.686,5.586-5.413c1.764-1.746,3.441-3.345,4.926-4.662
				c2.982-2.624,5.054-4.282,5.054-4.282l1.034,1.126c0,0-1.829,1.922-4.697,4.67c-1.439,1.366-3.175,2.901-5.064,4.513
				c-1.875,1.629-3.873,3.364-5.871,5.104c-1.994,1.742-3.986,3.484-5.855,5.119c-1.88,1.621-3.635,3.135-5.139,4.432
				c-3.012,2.592-5.021,4.318-5.021,4.318L108.123,62.38z"/>
			<g>
				<polygon fill="#D2D2D2" points="144.589,29.035 140.009,38.757 139,34.167 134.511,32.769 				"/>
			</g>
		</g>
	</g>
	<g>
		<g>
			<path fill="#D2D2D2" d="M108.123,72.834c0,0,1.892,1.854,4.729,4.635c1.42,1.388,3.078,3.008,4.854,4.742
				c1.788,1.723,3.693,3.561,5.602,5.398c1.9,1.842,3.803,3.686,5.586,5.413c1.764,1.746,3.441,3.345,4.926,4.662
				c2.982,2.624,5.054,4.282,5.054,4.282l1.034-1.126c0,0-1.829-1.922-4.697-4.67c-1.439-1.366-3.175-2.901-5.064-4.513
				c-1.875-1.629-3.873-3.364-5.871-5.104c-1.994-1.742-3.986-3.484-5.855-5.119c-1.88-1.621-3.635-3.135-5.139-4.432
				c-3.012-2.592-5.021-4.318-5.021-4.318L108.123,72.834z"/>
			<g>
				<polygon fill="#D2D2D2" points="144.589,106.18 140.009,96.457 139,101.048 134.511,102.445 				"/>
			</g>
		</g>
	</g>
	<g>
		<g>
			<path fill="#D2D2D2" d="M273.284,106.03c0,0,1.891-1.854,4.729-4.635c1.42-1.387,3.078-3.008,4.854-4.742
				c1.789-1.723,3.693-3.561,5.602-5.398c1.9-1.842,3.803-3.686,5.586-5.412c1.764-1.746,3.441-3.346,4.926-4.662
				c2.982-2.624,5.055-4.282,5.055-4.282l1.033,1.126c0,0-1.828,1.922-4.697,4.67c-1.439,1.365-3.174,2.9-5.064,4.512
				c-1.875,1.629-3.873,3.365-5.871,5.104c-1.994,1.742-3.986,3.484-5.855,5.119c-1.879,1.621-3.635,3.135-5.139,4.432
				c-3.012,2.592-5.021,4.318-5.021,4.318L273.284,106.03z"/>
			<g>
				<polygon fill="#D2D2D2" points="309.751,72.686 305.171,82.407 304.161,77.817 299.673,76.42 				"/>
			</g>
		</g>
	</g>
	<g>
		<g>
			<path fill="#D2D2D2" d="M273.284,29.183c0,0,1.891,1.854,4.729,4.635c1.42,1.388,3.078,3.008,4.854,4.742
				c1.789,1.723,3.693,3.561,5.602,5.398c1.9,1.842,3.803,3.686,5.586,5.413c1.764,1.746,3.441,3.345,4.926,4.662
				c2.982,2.624,5.055,4.282,5.055,4.282l1.033-1.126c0,0-1.828-1.922-4.697-4.67c-1.439-1.366-3.174-2.901-5.064-4.513
				c-1.875-1.629-3.873-3.364-5.871-5.104c-1.994-1.742-3.986-3.484-5.855-5.119c-1.879-1.621-3.635-3.135-5.139-4.432
				c-3.012-2.592-5.021-4.318-5.021-4.318L273.284,29.183z"/>
			<g>
				<polygon fill="#D2D2D2" points="309.751,62.529 305.171,52.806 304.161,57.397 299.673,58.794 				"/>
			</g>
		</g>
	</g>
	<g>
		<path fill="#D2D2D2" d="M27.988,63.018v8.279h-1.05v-3.766h-4.56v3.766H21.33v-8.279h1.049v3.58h4.56v-3.58H27.988z"/>
		<path fill="#D2D2D2" d="M32.36,71.414c-0.459,0-0.877-0.086-1.254-0.257s-0.699-0.4-0.968-0.688
			c-0.268-0.288-0.476-0.622-0.623-1.003c-0.148-0.381-0.222-0.781-0.222-1.201c0-0.427,0.075-0.832,0.228-1.212
			c0.151-0.381,0.361-0.715,0.629-1.003c0.269-0.288,0.591-0.517,0.968-0.688c0.377-0.171,0.791-0.256,1.242-0.256
			s0.866,0.085,1.248,0.256c0.38,0.171,0.705,0.4,0.974,0.688c0.268,0.288,0.478,0.622,0.629,1.003
			c0.152,0.381,0.228,0.785,0.228,1.212c0,0.42-0.074,0.82-0.222,1.201s-0.357,0.715-0.629,1.003
			c-0.272,0.288-0.597,0.517-0.974,0.688C33.236,71.328,32.819,71.414,32.36,71.414z M30.342,68.277
			c0,0.319,0.053,0.614,0.158,0.886c0.104,0.272,0.248,0.509,0.431,0.711s0.396,0.361,0.642,0.478s0.507,0.175,0.787,0.175
			s0.542-0.058,0.787-0.175s0.461-0.278,0.647-0.484s0.332-0.447,0.437-0.723c0.105-0.276,0.158-0.573,0.158-0.892
			c0-0.311-0.053-0.604-0.158-0.88c-0.104-0.275-0.25-0.517-0.437-0.723s-0.402-0.367-0.647-0.484s-0.507-0.175-0.787-0.175
			s-0.542,0.06-0.787,0.181s-0.459,0.284-0.642,0.49s-0.326,0.447-0.431,0.723C30.395,67.661,30.342,67.958,30.342,68.277z"/>
		<path fill="#D2D2D2" d="M45.862,71.297h-1.025v-3.405c0-0.637-0.104-1.107-0.31-1.411s-0.511-0.455-0.915-0.455
			c-0.42,0-0.795,0.15-1.125,0.449c-0.331,0.299-0.565,0.686-0.706,1.16v3.661h-1.025v-3.405c0-0.653-0.102-1.127-0.304-1.422
			s-0.505-0.443-0.909-0.443c-0.412,0-0.785,0.146-1.119,0.438c-0.335,0.292-0.571,0.678-0.712,1.16v3.673h-1.025V65.21h0.933v1.306
			c0.249-0.451,0.571-0.798,0.968-1.043c0.396-0.245,0.844-0.367,1.341-0.367c0.513,0,0.919,0.138,1.219,0.414
			c0.299,0.276,0.483,0.631,0.554,1.067c0.544-0.987,1.317-1.481,2.32-1.481c0.35,0,0.643,0.064,0.88,0.192s0.426,0.307,0.565,0.536
			c0.141,0.229,0.241,0.5,0.304,0.811c0.062,0.311,0.093,0.649,0.093,1.015V71.297z"/>
		<path fill="#D2D2D2" d="M50.153,71.414c-0.459,0-0.879-0.083-1.26-0.251c-0.381-0.167-0.707-0.394-0.979-0.682
			c-0.271-0.287-0.483-0.624-0.635-1.008c-0.152-0.385-0.228-0.791-0.228-1.219c0-0.427,0.075-0.832,0.228-1.212
			c0.151-0.381,0.365-0.715,0.641-1.003c0.276-0.288,0.604-0.515,0.985-0.682c0.381-0.167,0.801-0.25,1.26-0.25
			c0.458,0,0.876,0.085,1.253,0.256c0.377,0.171,0.698,0.398,0.962,0.682c0.265,0.284,0.469,0.614,0.612,0.991
			s0.216,0.768,0.216,1.172c0,0.085-0.002,0.163-0.006,0.233c-0.004,0.07-0.01,0.125-0.018,0.164h-5.049
			c0.023,0.303,0.094,0.579,0.21,0.828c0.117,0.249,0.269,0.463,0.455,0.642s0.398,0.319,0.636,0.419
			c0.236,0.101,0.487,0.152,0.752,0.152c0.187,0,0.369-0.025,0.548-0.076c0.179-0.051,0.346-0.119,0.501-0.204
			s0.294-0.19,0.414-0.315s0.212-0.264,0.274-0.42l0.886,0.245c-0.101,0.226-0.239,0.431-0.414,0.618s-0.377,0.348-0.606,0.484
			c-0.229,0.136-0.483,0.243-0.764,0.321C50.748,71.375,50.456,71.414,50.153,71.414z M52.24,67.846
			c-0.023-0.288-0.096-0.554-0.216-0.799c-0.12-0.245-0.272-0.453-0.454-0.624c-0.184-0.171-0.396-0.305-0.636-0.402
			c-0.241-0.097-0.498-0.146-0.77-0.146c-0.272,0-0.529,0.049-0.77,0.146c-0.241,0.098-0.453,0.233-0.636,0.408
			s-0.33,0.383-0.443,0.624c-0.112,0.241-0.181,0.505-0.204,0.793H52.24z"/>
		<path fill="#D2D2D2" d="M59.725,71.367c-0.412,0-0.791-0.085-1.137-0.256s-0.644-0.4-0.892-0.688
			c-0.249-0.288-0.441-0.618-0.577-0.991c-0.137-0.373-0.204-0.762-0.204-1.166c0-0.427,0.067-0.833,0.204-1.218
			c0.136-0.385,0.328-0.721,0.577-1.009c0.248-0.288,0.546-0.515,0.892-0.682c0.346-0.167,0.729-0.25,1.148-0.25
			c0.514,0,0.956,0.125,1.329,0.373c0.373,0.249,0.688,0.563,0.944,0.944V65.21h0.91v6.017c0,0.435-0.082,0.818-0.245,1.148
			c-0.163,0.33-0.385,0.608-0.665,0.833c-0.279,0.226-0.607,0.396-0.984,0.513c-0.378,0.117-0.78,0.175-1.207,0.175
			c-0.692,0-1.254-0.119-1.686-0.355c-0.431-0.237-0.791-0.565-1.078-0.985l0.595-0.525c0.241,0.357,0.552,0.626,0.933,0.805
			s0.793,0.268,1.236,0.268c0.279,0,0.546-0.039,0.799-0.116c0.252-0.078,0.472-0.195,0.658-0.35s0.336-0.35,0.449-0.583
			c0.112-0.233,0.169-0.509,0.169-0.828v-1.073c-0.116,0.187-0.255,0.355-0.414,0.507c-0.159,0.151-0.332,0.28-0.519,0.385
			s-0.385,0.185-0.595,0.239S59.943,71.367,59.725,71.367z M60.041,70.527c0.217,0,0.427-0.039,0.629-0.117s0.389-0.181,0.56-0.309
			c0.171-0.128,0.315-0.274,0.432-0.437c0.117-0.163,0.194-0.331,0.233-0.501v-1.749c-0.086-0.21-0.196-0.4-0.332-0.571
			c-0.137-0.171-0.29-0.321-0.461-0.449c-0.171-0.128-0.355-0.228-0.554-0.297c-0.198-0.07-0.398-0.105-0.601-0.105
			c-0.311,0-0.589,0.066-0.834,0.198c-0.244,0.132-0.452,0.307-0.623,0.524c-0.172,0.218-0.304,0.465-0.396,0.741
			c-0.094,0.276-0.141,0.554-0.141,0.833c0,0.303,0.055,0.591,0.164,0.863c0.108,0.272,0.256,0.509,0.442,0.711
			s0.406,0.363,0.659,0.484C59.47,70.467,59.745,70.527,60.041,70.527z"/>
		<path fill="#D2D2D2" d="M66.139,71.414c-0.288,0-0.557-0.049-0.805-0.146c-0.249-0.097-0.465-0.231-0.647-0.402
			c-0.183-0.171-0.326-0.371-0.432-0.6c-0.104-0.229-0.157-0.48-0.157-0.752c0-0.28,0.062-0.534,0.187-0.764
			c0.124-0.229,0.302-0.425,0.53-0.589c0.229-0.163,0.502-0.292,0.816-0.385c0.315-0.093,0.659-0.14,1.032-0.14
			c0.295,0,0.595,0.027,0.897,0.082c0.304,0.055,0.571,0.128,0.805,0.222v-0.49c0-0.498-0.14-0.888-0.42-1.172
			c-0.279-0.284-0.676-0.426-1.189-0.426c-0.613,0-1.259,0.237-1.936,0.711l-0.338-0.665c0.785-0.529,1.574-0.793,2.367-0.793
			c0.801,0,1.425,0.214,1.871,0.641c0.447,0.428,0.671,1.03,0.671,1.808v2.483c0,0.241,0.108,0.365,0.326,0.373v0.886
			c-0.108,0.016-0.198,0.027-0.268,0.035c-0.07,0.007-0.145,0.012-0.222,0.012c-0.202,0-0.363-0.061-0.484-0.181
			c-0.12-0.12-0.192-0.266-0.216-0.437l-0.023-0.432c-0.271,0.366-0.615,0.644-1.031,0.834S66.613,71.414,66.139,71.414z
			 M66.407,70.644c0.365,0,0.706-0.068,1.021-0.204s0.554-0.317,0.717-0.542c0.147-0.147,0.222-0.299,0.222-0.455v-0.898
			c-0.497-0.194-1.015-0.292-1.551-0.292c-0.513,0-0.931,0.109-1.253,0.327c-0.323,0.218-0.484,0.501-0.484,0.851
			c0,0.171,0.033,0.331,0.1,0.478c0.065,0.148,0.159,0.276,0.279,0.385c0.121,0.109,0.263,0.194,0.426,0.257
			C66.045,70.613,66.22,70.644,66.407,70.644z"/>
		<path fill="#D2D2D2" d="M80.211,71.297h-1.025v-3.405c0-0.637-0.104-1.107-0.31-1.411s-0.511-0.455-0.915-0.455
			c-0.42,0-0.795,0.15-1.125,0.449c-0.331,0.299-0.565,0.686-0.706,1.16v3.661h-1.025v-3.405c0-0.653-0.102-1.127-0.304-1.422
			s-0.505-0.443-0.909-0.443c-0.412,0-0.785,0.146-1.119,0.438c-0.335,0.292-0.571,0.678-0.712,1.16v3.673h-1.025V65.21h0.933v1.306
			c0.249-0.451,0.571-0.798,0.968-1.043c0.396-0.245,0.844-0.367,1.341-0.367c0.513,0,0.919,0.138,1.219,0.414
			c0.299,0.276,0.483,0.631,0.554,1.067c0.544-0.987,1.317-1.481,2.32-1.481c0.35,0,0.643,0.064,0.88,0.192s0.426,0.307,0.565,0.536
			c0.141,0.229,0.241,0.5,0.304,0.811c0.062,0.311,0.093,0.649,0.093,1.015V71.297z"/>
		<path fill="#D2D2D2" d="M84.503,71.414c-0.459,0-0.879-0.083-1.26-0.251c-0.381-0.167-0.707-0.394-0.979-0.682
			c-0.271-0.287-0.483-0.624-0.635-1.008c-0.152-0.385-0.228-0.791-0.228-1.219c0-0.427,0.075-0.832,0.228-1.212
			c0.151-0.381,0.365-0.715,0.641-1.003c0.276-0.288,0.604-0.515,0.985-0.682c0.381-0.167,0.801-0.25,1.26-0.25
			c0.458,0,0.876,0.085,1.253,0.256c0.377,0.171,0.698,0.398,0.962,0.682c0.265,0.284,0.469,0.614,0.612,0.991
			s0.216,0.768,0.216,1.172c0,0.085-0.002,0.163-0.006,0.233c-0.004,0.07-0.01,0.125-0.018,0.164h-5.049
			c0.023,0.303,0.094,0.579,0.21,0.828c0.117,0.249,0.269,0.463,0.455,0.642s0.398,0.319,0.636,0.419
			c0.236,0.101,0.487,0.152,0.752,0.152c0.187,0,0.369-0.025,0.548-0.076c0.179-0.051,0.346-0.119,0.501-0.204
			s0.294-0.19,0.414-0.315s0.212-0.264,0.274-0.42l0.886,0.245c-0.101,0.226-0.239,0.431-0.414,0.618s-0.377,0.348-0.606,0.484
			c-0.229,0.136-0.483,0.243-0.764,0.321C85.098,71.375,84.806,71.414,84.503,71.414z M86.59,67.846
			c-0.023-0.288-0.096-0.554-0.216-0.799c-0.12-0.245-0.272-0.453-0.454-0.624c-0.184-0.171-0.396-0.305-0.636-0.402
			c-0.241-0.097-0.498-0.146-0.77-0.146c-0.272,0-0.529,0.049-0.77,0.146c-0.241,0.098-0.453,0.233-0.636,0.408
			s-0.33,0.383-0.443,0.624c-0.112,0.241-0.181,0.505-0.204,0.793H86.59z"/>
		<path fill="#D2D2D2" d="M90.834,71.414c-0.49,0-0.972-0.076-1.446-0.228c-0.474-0.151-0.882-0.371-1.225-0.659l0.443-0.688
			c0.357,0.272,0.715,0.476,1.073,0.612c0.357,0.136,0.734,0.204,1.131,0.204c0.443,0,0.795-0.087,1.055-0.263
			c0.261-0.175,0.391-0.421,0.391-0.74c0-0.147-0.034-0.274-0.104-0.379S91.977,69.078,91.837,69
			c-0.141-0.078-0.319-0.148-0.537-0.21s-0.47-0.128-0.758-0.198c-0.365-0.093-0.68-0.183-0.944-0.268s-0.482-0.187-0.653-0.303
			s-0.295-0.257-0.373-0.42c-0.077-0.163-0.116-0.365-0.116-0.606c0-0.303,0.061-0.573,0.181-0.81s0.286-0.436,0.496-0.595
			c0.209-0.159,0.456-0.28,0.74-0.361c0.283-0.082,0.589-0.123,0.915-0.123c0.459,0,0.886,0.074,1.282,0.222
			c0.396,0.147,0.73,0.342,1.003,0.583l-0.466,0.618c-0.257-0.225-0.545-0.395-0.863-0.507c-0.318-0.112-0.646-0.169-0.979-0.169
			c-0.373,0-0.689,0.08-0.95,0.239s-0.391,0.414-0.391,0.764c0,0.14,0.025,0.256,0.076,0.35c0.05,0.093,0.134,0.175,0.25,0.245
			c0.117,0.07,0.267,0.132,0.449,0.187s0.402,0.113,0.659,0.175c0.403,0.093,0.756,0.188,1.055,0.286s0.548,0.212,0.746,0.344
			c0.198,0.132,0.346,0.288,0.443,0.467c0.097,0.179,0.146,0.396,0.146,0.653c0,0.567-0.218,1.019-0.652,1.353
			C92.16,71.247,91.573,71.414,90.834,71.414z"/>
	</g>
	<g>
		<path fill="#D2D2D2" d="M175.395,12.184c-0.094-0.108-0.218-0.213-0.373-0.314c-0.156-0.101-0.331-0.192-0.525-0.274
			c-0.194-0.082-0.406-0.148-0.635-0.198c-0.229-0.051-0.469-0.076-0.718-0.076c-0.645,0-1.117,0.121-1.416,0.362
			c-0.3,0.241-0.449,0.571-0.449,0.991c0,0.226,0.043,0.412,0.128,0.56c0.086,0.147,0.22,0.274,0.402,0.379s0.41,0.196,0.683,0.274
			c0.271,0.078,0.595,0.159,0.968,0.245c0.427,0.093,0.814,0.2,1.16,0.321s0.641,0.27,0.886,0.449
			c0.245,0.179,0.432,0.396,0.56,0.653c0.129,0.256,0.192,0.571,0.192,0.944c0,0.396-0.077,0.74-0.232,1.032
			c-0.156,0.292-0.368,0.533-0.636,0.723c-0.269,0.19-0.585,0.331-0.95,0.42c-0.366,0.089-0.762,0.134-1.189,0.134
			c-0.638,0-1.242-0.099-1.813-0.297s-1.09-0.488-1.557-0.869l0.502-0.886c0.124,0.132,0.285,0.265,0.483,0.396
			c0.198,0.132,0.424,0.251,0.677,0.356c0.252,0.104,0.524,0.19,0.815,0.256c0.292,0.066,0.597,0.099,0.916,0.099
			c0.591,0,1.049-0.105,1.376-0.315c0.326-0.21,0.489-0.524,0.489-0.944c0-0.233-0.053-0.43-0.157-0.589
			c-0.105-0.159-0.259-0.297-0.461-0.414s-0.452-0.219-0.752-0.309c-0.299-0.089-0.64-0.181-1.021-0.274
			c-0.419-0.101-0.789-0.21-1.107-0.326c-0.318-0.117-0.585-0.257-0.799-0.42s-0.375-0.361-0.483-0.595
			c-0.109-0.233-0.163-0.513-0.163-0.839c0-0.396,0.073-0.747,0.221-1.049c0.148-0.303,0.354-0.56,0.618-0.77
			c0.265-0.21,0.579-0.368,0.944-0.473s0.762-0.157,1.189-0.157c0.56,0,1.065,0.085,1.516,0.256c0.451,0.171,0.852,0.4,1.201,0.688
			L175.395,12.184z"/>
		<path fill="#D2D2D2" d="M180.163,18.842c-0.459,0-0.879-0.083-1.26-0.251c-0.381-0.167-0.707-0.394-0.979-0.682
			c-0.271-0.287-0.483-0.624-0.635-1.008c-0.152-0.385-0.228-0.791-0.228-1.219c0-0.427,0.075-0.832,0.228-1.212
			c0.151-0.381,0.365-0.715,0.641-1.003c0.276-0.288,0.604-0.515,0.985-0.682c0.381-0.167,0.801-0.25,1.26-0.25
			c0.458,0,0.876,0.085,1.253,0.256c0.377,0.171,0.698,0.398,0.962,0.682c0.265,0.284,0.469,0.614,0.612,0.991
			s0.216,0.768,0.216,1.172c0,0.085-0.002,0.163-0.006,0.233c-0.004,0.07-0.01,0.125-0.018,0.164h-5.049
			c0.023,0.303,0.094,0.579,0.21,0.828c0.117,0.249,0.269,0.463,0.455,0.642s0.398,0.319,0.636,0.419
			c0.236,0.101,0.487,0.152,0.752,0.152c0.187,0,0.369-0.025,0.548-0.076c0.179-0.051,0.346-0.119,0.501-0.204
			s0.294-0.19,0.414-0.315s0.212-0.264,0.274-0.42l0.886,0.245c-0.101,0.226-0.239,0.431-0.414,0.618s-0.377,0.348-0.606,0.484
			c-0.229,0.136-0.483,0.243-0.764,0.321C180.758,18.803,180.466,18.842,180.163,18.842z M182.25,15.274
			c-0.023-0.288-0.096-0.554-0.216-0.799c-0.12-0.245-0.272-0.453-0.454-0.624c-0.184-0.171-0.396-0.305-0.636-0.402
			c-0.241-0.097-0.498-0.146-0.77-0.146c-0.272,0-0.529,0.049-0.77,0.146c-0.241,0.098-0.453,0.233-0.636,0.408
			s-0.33,0.383-0.443,0.624c-0.112,0.241-0.181,0.505-0.204,0.793H182.25z"/>
		<path fill="#D2D2D2" d="M184.385,10.213h1.025v6.938c0,0.226,0.061,0.402,0.181,0.531c0.121,0.128,0.29,0.192,0.508,0.192
			c0.085,0,0.187-0.014,0.303-0.041c0.117-0.027,0.226-0.06,0.327-0.099l0.163,0.828c-0.172,0.07-0.373,0.128-0.606,0.175
			c-0.233,0.046-0.439,0.07-0.618,0.07c-0.396,0-0.709-0.112-0.938-0.338s-0.344-0.541-0.344-0.945V10.213z"/>
		<path fill="#D2D2D2" d="M187.719,10.213h1.025v6.938c0,0.226,0.061,0.402,0.181,0.531c0.121,0.128,0.29,0.192,0.508,0.192
			c0.085,0,0.187-0.014,0.303-0.041c0.117-0.027,0.226-0.06,0.327-0.099l0.163,0.828c-0.172,0.07-0.373,0.128-0.606,0.175
			c-0.233,0.046-0.439,0.07-0.618,0.07c-0.396,0-0.709-0.112-0.938-0.338s-0.344-0.541-0.344-0.945V10.213z"/>
		<path fill="#D2D2D2" d="M196.289,18.842c-0.459,0-0.877-0.086-1.254-0.257s-0.699-0.4-0.968-0.688
			c-0.268-0.288-0.476-0.622-0.623-1.003c-0.148-0.381-0.222-0.781-0.222-1.201c0-0.427,0.075-0.832,0.228-1.212
			c0.151-0.381,0.361-0.715,0.629-1.003c0.269-0.288,0.591-0.517,0.968-0.688c0.377-0.171,0.791-0.256,1.242-0.256
			s0.866,0.085,1.248,0.256c0.38,0.171,0.705,0.4,0.974,0.688c0.268,0.288,0.478,0.622,0.629,1.003
			c0.152,0.381,0.228,0.785,0.228,1.212c0,0.42-0.074,0.82-0.222,1.201s-0.357,0.715-0.629,1.003
			c-0.272,0.288-0.597,0.517-0.974,0.688C197.165,18.756,196.748,18.842,196.289,18.842z M194.271,15.705
			c0,0.319,0.053,0.614,0.158,0.886c0.104,0.272,0.248,0.509,0.431,0.711s0.396,0.361,0.642,0.478s0.507,0.175,0.787,0.175
			s0.542-0.058,0.787-0.175s0.461-0.278,0.647-0.484s0.332-0.447,0.437-0.723c0.105-0.276,0.158-0.573,0.158-0.892
			c0-0.311-0.053-0.604-0.158-0.88c-0.104-0.275-0.25-0.517-0.437-0.723s-0.402-0.367-0.647-0.484s-0.507-0.175-0.787-0.175
			s-0.542,0.06-0.787,0.181s-0.459,0.284-0.642,0.49s-0.326,0.447-0.431,0.723C194.324,15.089,194.271,15.387,194.271,15.705z"/>
		<path fill="#D2D2D2" d="M202.491,18.842c-0.638,0-1.119-0.214-1.445-0.642c-0.327-0.427-0.49-1.064-0.49-1.912v-3.649h1.026v3.451
			c0,1.244,0.432,1.866,1.294,1.866c0.42,0,0.814-0.134,1.184-0.402s0.644-0.635,0.822-1.102v-3.812h1.025v4.827
			c0,0.241,0.109,0.365,0.327,0.373v0.886c-0.117,0.016-0.208,0.025-0.274,0.029c-0.066,0.004-0.13,0.006-0.192,0.006
			c-0.202,0-0.371-0.06-0.507-0.181c-0.137-0.121-0.208-0.27-0.216-0.449l-0.023-0.711c-0.272,0.459-0.63,0.811-1.072,1.056
			C203.506,18.719,203.02,18.842,202.491,18.842z"/>
		<path fill="#D2D2D2" d="M210.77,18.422c-0.062,0.031-0.144,0.068-0.244,0.111c-0.102,0.043-0.216,0.085-0.344,0.128
			c-0.129,0.042-0.269,0.078-0.42,0.105c-0.152,0.027-0.31,0.041-0.473,0.041c-0.373,0-0.695-0.103-0.968-0.309
			c-0.272-0.206-0.408-0.526-0.408-0.962v-4.092h-0.828v-0.805h0.828V10.61h1.026v2.029h1.364v0.805h-1.364v3.778
			c0.016,0.225,0.089,0.389,0.222,0.489c0.132,0.102,0.287,0.152,0.466,0.152c0.202,0,0.387-0.033,0.555-0.099
			c0.167-0.066,0.281-0.119,0.344-0.157L210.77,18.422z"/>
		<path fill="#D2D2D2" d="M214.269,15.67c0-0.428,0.073-0.832,0.222-1.213c0.147-0.381,0.357-0.713,0.629-0.997
			c0.272-0.284,0.597-0.509,0.974-0.676c0.377-0.167,0.799-0.25,1.266-0.25c0.606,0,1.129,0.134,1.568,0.402
			c0.438,0.268,0.771,0.628,0.997,1.079l-1.003,0.314c-0.155-0.287-0.373-0.511-0.653-0.67c-0.279-0.159-0.591-0.239-0.933-0.239
			c-0.28,0-0.544,0.056-0.793,0.169s-0.463,0.27-0.642,0.472s-0.32,0.439-0.425,0.711c-0.105,0.272-0.158,0.571-0.158,0.898
			c0,0.318,0.055,0.618,0.164,0.897c0.108,0.28,0.254,0.523,0.437,0.729s0.396,0.367,0.642,0.484s0.507,0.175,0.787,0.175
			c0.179,0,0.355-0.025,0.53-0.076c0.175-0.051,0.334-0.119,0.479-0.204c0.144-0.085,0.27-0.185,0.379-0.297
			c0.108-0.113,0.187-0.235,0.233-0.367l1.002,0.303c-0.093,0.225-0.223,0.431-0.391,0.618c-0.167,0.187-0.363,0.346-0.589,0.478
			c-0.225,0.132-0.476,0.237-0.752,0.315c-0.275,0.078-0.565,0.117-0.868,0.117c-0.459,0-0.879-0.086-1.26-0.257
			s-0.707-0.4-0.979-0.688c-0.271-0.288-0.483-0.624-0.635-1.009C214.344,16.504,214.269,16.098,214.269,15.67z"/>
		<path fill="#D2D2D2" d="M224.354,13.537c-0.513,0.016-0.966,0.147-1.358,0.396c-0.393,0.249-0.67,0.595-0.834,1.038v3.754h-1.025
			v-6.086h0.956v1.411c0.21-0.419,0.485-0.76,0.828-1.02c0.342-0.26,0.707-0.406,1.096-0.438c0.077,0,0.144,0,0.198,0
			c0.054,0,0.101,0.004,0.14,0.012V13.537z"/>
		<path fill="#D2D2D2" d="M227.887,18.842c-0.459,0-0.877-0.086-1.254-0.257s-0.699-0.4-0.968-0.688
			c-0.268-0.288-0.476-0.622-0.623-1.003c-0.148-0.381-0.222-0.781-0.222-1.201c0-0.427,0.075-0.832,0.228-1.212
			c0.151-0.381,0.361-0.715,0.629-1.003c0.269-0.288,0.591-0.517,0.968-0.688c0.377-0.171,0.791-0.256,1.242-0.256
			s0.866,0.085,1.248,0.256c0.38,0.171,0.705,0.4,0.974,0.688c0.268,0.288,0.478,0.622,0.629,1.003
			c0.152,0.381,0.228,0.785,0.228,1.212c0,0.42-0.074,0.82-0.222,1.201s-0.357,0.715-0.629,1.003
			c-0.272,0.288-0.597,0.517-0.974,0.688C228.763,18.756,228.346,18.842,227.887,18.842z M225.869,15.705
			c0,0.319,0.053,0.614,0.158,0.886c0.104,0.272,0.248,0.509,0.431,0.711s0.396,0.361,0.642,0.478s0.507,0.175,0.787,0.175
			s0.542-0.058,0.787-0.175s0.461-0.278,0.647-0.484s0.332-0.447,0.437-0.723c0.105-0.276,0.158-0.573,0.158-0.892
			c0-0.311-0.053-0.604-0.158-0.88c-0.104-0.275-0.25-0.517-0.437-0.723s-0.402-0.367-0.647-0.484s-0.507-0.175-0.787-0.175
			s-0.542,0.06-0.787,0.181s-0.459,0.284-0.642,0.49s-0.326,0.447-0.431,0.723C225.922,15.089,225.869,15.387,225.869,15.705z"/>
		<path fill="#D2D2D2" d="M239.628,12.639h0.991l-2.588,6.086h-0.852l-1.225-2.973l-1.212,2.973h-0.852l-2.589-6.086h0.979
			l2.099,5.072l1.026-2.53l-1.049-2.53h0.851l0.746,1.947l0.746-1.947h0.852l-1.038,2.53l1.026,2.53L239.628,12.639z"/>
		<path fill="#D2D2D2" d="M243.885,18.842c-0.42,0-0.809-0.086-1.166-0.257s-0.665-0.4-0.921-0.688
			c-0.257-0.288-0.457-0.622-0.601-1.003c-0.145-0.381-0.216-0.781-0.216-1.201c0-0.427,0.067-0.833,0.204-1.218
			c0.136-0.385,0.326-0.721,0.571-1.009s0.536-0.515,0.874-0.682c0.339-0.167,0.71-0.25,1.114-0.25c0.489,0,0.927,0.128,1.312,0.385
			s0.689,0.567,0.915,0.933v-3.638h1.026v7.252c0,0.241,0.108,0.365,0.326,0.373v0.886c-0.109,0.016-0.196,0.027-0.263,0.035
			c-0.065,0.007-0.13,0.012-0.192,0.012c-0.202,0-0.379-0.068-0.53-0.204c-0.151-0.136-0.228-0.293-0.228-0.473v-0.513
			c-0.241,0.396-0.562,0.706-0.962,0.927C244.749,18.731,244.328,18.842,243.885,18.842z M244.13,17.956
			c0.187,0,0.379-0.035,0.577-0.105s0.385-0.167,0.56-0.292c0.175-0.124,0.326-0.27,0.454-0.437
			c0.129-0.167,0.212-0.344,0.251-0.531v-1.749c-0.07-0.194-0.175-0.379-0.314-0.554c-0.141-0.175-0.298-0.327-0.473-0.455
			c-0.175-0.128-0.361-0.229-0.56-0.303c-0.198-0.074-0.395-0.111-0.589-0.111c-0.303,0-0.577,0.064-0.822,0.192
			c-0.244,0.128-0.454,0.299-0.629,0.513c-0.176,0.214-0.31,0.459-0.402,0.735c-0.094,0.276-0.141,0.558-0.141,0.845
			c0,0.303,0.055,0.593,0.163,0.869c0.109,0.276,0.257,0.515,0.443,0.717s0.406,0.363,0.659,0.484
			C243.56,17.896,243.834,17.956,244.13,17.956z"/>
	</g>
	<g>
		<path fill="#5BC0DE" d="M8.895,160.283c-0.583,0-1.114-0.118-1.592-0.355c-0.479-0.237-0.889-0.552-1.23-0.944
			s-0.606-0.842-0.793-1.347S5,156.614,5,156.086c0-0.552,0.099-1.081,0.297-1.586s0.473-0.952,0.822-1.341s0.764-0.697,1.241-0.928
			c0.479-0.229,0.997-0.344,1.557-0.344c0.583,0,1.112,0.123,1.586,0.367c0.475,0.246,0.883,0.566,1.225,0.963
			s0.606,0.846,0.793,1.346c0.187,0.502,0.279,1.014,0.279,1.534c0,0.552-0.099,1.081-0.297,1.585
			c-0.198,0.506-0.471,0.951-0.816,1.336s-0.758,0.691-1.235,0.921C9.973,160.169,9.455,160.283,8.895,160.283z M6.061,156.086
			c0,0.419,0.068,0.825,0.204,1.218s0.328,0.74,0.577,1.044s0.548,0.544,0.898,0.724c0.35,0.178,0.738,0.268,1.166,0.268
			c0.442,0,0.839-0.096,1.188-0.285c0.351-0.191,0.647-0.439,0.893-0.746c0.244-0.308,0.432-0.655,0.56-1.044
			s0.192-0.781,0.192-1.178c0-0.42-0.068-0.826-0.204-1.219c-0.136-0.392-0.33-0.738-0.583-1.038
			c-0.253-0.299-0.552-0.537-0.897-0.717c-0.347-0.179-0.729-0.268-1.148-0.268c-0.443,0-0.84,0.093-1.189,0.279
			c-0.351,0.187-0.647,0.432-0.893,0.734c-0.244,0.304-0.434,0.649-0.565,1.038S6.061,155.682,6.061,156.086z"/>
		<path fill="#5BC0DE" d="M17.22,160.342c-0.475,0-0.906-0.116-1.295-0.351c-0.389-0.232-0.695-0.535-0.921-0.908v1.143h-0.909
			v-8.512h1.025v3.637c0.257-0.396,0.571-0.715,0.945-0.955c0.373-0.241,0.808-0.361,1.306-0.361c0.42,0,0.797,0.089,1.131,0.268
			c0.334,0.18,0.62,0.414,0.857,0.705c0.236,0.292,0.419,0.63,0.548,1.015c0.128,0.385,0.192,0.78,0.192,1.184
			c0,0.428-0.074,0.832-0.222,1.213s-0.35,0.713-0.606,0.997c-0.257,0.283-0.562,0.509-0.915,0.676
			C18.002,160.259,17.624,160.342,17.22,160.342z M16.963,159.456c0.303,0,0.583-0.062,0.84-0.188
			c0.256-0.124,0.478-0.291,0.664-0.501s0.33-0.448,0.432-0.718c0.101-0.268,0.151-0.549,0.151-0.845s-0.049-0.581-0.146-0.856
			c-0.098-0.276-0.233-0.52-0.408-0.729c-0.175-0.211-0.385-0.38-0.63-0.508c-0.244-0.129-0.515-0.192-0.811-0.192
			c-0.217,0-0.423,0.039-0.617,0.116c-0.194,0.078-0.375,0.182-0.543,0.309c-0.167,0.129-0.314,0.279-0.442,0.449
			c-0.129,0.172-0.239,0.354-0.333,0.549v1.76c0.039,0.195,0.123,0.373,0.251,0.537c0.128,0.163,0.28,0.305,0.455,0.426
			c0.175,0.12,0.361,0.215,0.56,0.285S16.777,159.456,16.963,159.456z"/>
		<path fill="#5BC0DE" d="M23.493,160.342c-0.49,0-0.972-0.075-1.446-0.228c-0.474-0.151-0.882-0.371-1.225-0.658l0.443-0.688
			c0.357,0.272,0.715,0.476,1.073,0.612c0.357,0.136,0.734,0.204,1.131,0.204c0.443,0,0.795-0.087,1.055-0.263
			c0.261-0.175,0.391-0.422,0.391-0.74c0-0.147-0.034-0.273-0.104-0.379s-0.175-0.196-0.314-0.273
			c-0.141-0.078-0.319-0.148-0.537-0.211c-0.218-0.062-0.47-0.128-0.758-0.197c-0.365-0.094-0.68-0.184-0.944-0.269
			s-0.482-0.187-0.653-0.304c-0.171-0.116-0.295-0.256-0.373-0.42c-0.077-0.162-0.116-0.365-0.116-0.605
			c0-0.303,0.061-0.573,0.181-0.811s0.286-0.436,0.496-0.595c0.209-0.159,0.456-0.28,0.74-0.361
			c0.283-0.082,0.589-0.122,0.915-0.122c0.459,0,0.886,0.073,1.282,0.221c0.396,0.148,0.73,0.342,1.003,0.584l-0.466,0.617
			c-0.257-0.225-0.545-0.395-0.863-0.508c-0.318-0.111-0.646-0.168-0.979-0.168c-0.373,0-0.689,0.08-0.95,0.238
			c-0.261,0.16-0.391,0.414-0.391,0.764c0,0.141,0.025,0.257,0.076,0.35c0.05,0.094,0.134,0.176,0.25,0.246
			c0.117,0.069,0.267,0.132,0.449,0.186c0.183,0.055,0.402,0.113,0.659,0.176c0.403,0.093,0.756,0.188,1.055,0.285
			s0.548,0.212,0.746,0.344c0.198,0.133,0.346,0.288,0.443,0.467c0.097,0.179,0.146,0.396,0.146,0.652
			c0,0.568-0.218,1.02-0.652,1.354C24.818,160.175,24.231,160.342,23.493,160.342z"/>
		<path fill="#5BC0DE" d="M29.812,160.342c-0.459,0-0.879-0.083-1.26-0.251c-0.381-0.167-0.707-0.395-0.979-0.682
			c-0.271-0.287-0.483-0.624-0.635-1.009c-0.152-0.385-0.228-0.791-0.228-1.219c0-0.427,0.075-0.831,0.228-1.212
			c0.151-0.381,0.365-0.716,0.641-1.004c0.276-0.287,0.604-0.514,0.985-0.682c0.381-0.167,0.801-0.25,1.26-0.25
			c0.458,0,0.876,0.085,1.253,0.256c0.377,0.172,0.698,0.398,0.962,0.682c0.265,0.285,0.469,0.615,0.612,0.992
			s0.216,0.768,0.216,1.172c0,0.085-0.002,0.162-0.006,0.232s-0.01,0.125-0.018,0.164h-5.049c0.023,0.303,0.094,0.578,0.21,0.827
			c0.117,0.249,0.269,0.463,0.455,0.642s0.398,0.318,0.636,0.42c0.236,0.101,0.487,0.151,0.752,0.151
			c0.187,0,0.369-0.025,0.548-0.075c0.179-0.051,0.346-0.119,0.501-0.205c0.155-0.085,0.294-0.189,0.414-0.314
			s0.212-0.264,0.274-0.42l0.886,0.245c-0.101,0.226-0.239,0.431-0.414,0.618c-0.175,0.186-0.377,0.348-0.606,0.483
			c-0.229,0.136-0.483,0.243-0.764,0.321C30.407,160.303,30.115,160.342,29.812,160.342z M31.899,156.774
			c-0.023-0.288-0.096-0.555-0.216-0.799c-0.12-0.246-0.272-0.453-0.454-0.625c-0.184-0.17-0.396-0.305-0.636-0.402
			c-0.241-0.096-0.498-0.145-0.77-0.145c-0.272,0-0.529,0.049-0.77,0.145c-0.241,0.098-0.453,0.234-0.636,0.408
			c-0.183,0.176-0.33,0.384-0.443,0.625c-0.112,0.24-0.181,0.505-0.204,0.793H31.899z"/>
		<path fill="#5BC0DE" d="M37.228,155.036c-0.513,0.016-0.966,0.148-1.358,0.396c-0.393,0.249-0.67,0.595-0.834,1.038v3.755H34.01
			v-6.087h0.956v1.411c0.21-0.42,0.485-0.76,0.828-1.021c0.342-0.261,0.707-0.406,1.096-0.438c0.077,0,0.144,0,0.198,0
			c0.054,0,0.101,0.004,0.14,0.012V155.036z"/>
		<path fill="#5BC0DE" d="M40.003,160.226l-2.402-6.087h1.062l1.924,5.188l1.936-5.188h0.979l-2.402,6.087H40.003z"/>
		<path fill="#5BC0DE" d="M45.926,160.342c-0.288,0-0.557-0.049-0.805-0.146c-0.249-0.098-0.465-0.231-0.647-0.402
			c-0.183-0.172-0.326-0.371-0.432-0.601c-0.104-0.229-0.157-0.479-0.157-0.753c0-0.279,0.062-0.533,0.187-0.764
			c0.124-0.229,0.302-0.425,0.53-0.588c0.229-0.164,0.502-0.292,0.816-0.385c0.315-0.094,0.659-0.141,1.032-0.141
			c0.295,0,0.595,0.027,0.897,0.082c0.304,0.055,0.571,0.129,0.805,0.222v-0.489c0-0.498-0.14-0.889-0.42-1.172
			c-0.279-0.284-0.676-0.426-1.189-0.426c-0.613,0-1.259,0.236-1.936,0.711l-0.338-0.664c0.785-0.529,1.574-0.793,2.367-0.793
			c0.801,0,1.425,0.213,1.871,0.641c0.447,0.428,0.671,1.03,0.671,1.808v2.483c0,0.241,0.108,0.365,0.326,0.373v0.887
			c-0.108,0.016-0.198,0.027-0.268,0.035c-0.07,0.007-0.145,0.012-0.222,0.012c-0.202,0-0.363-0.061-0.484-0.182
			c-0.12-0.12-0.192-0.266-0.216-0.438l-0.023-0.432c-0.271,0.366-0.615,0.645-1.031,0.834
			C46.845,160.247,46.4,160.342,45.926,160.342z M46.194,159.572c0.365,0,0.706-0.067,1.021-0.204s0.554-0.316,0.717-0.543
			c0.147-0.146,0.222-0.299,0.222-0.454v-0.897c-0.497-0.194-1.015-0.292-1.551-0.292c-0.513,0-0.931,0.109-1.253,0.327
			c-0.323,0.217-0.484,0.501-0.484,0.851c0,0.171,0.033,0.331,0.1,0.478c0.065,0.148,0.159,0.277,0.279,0.385
			c0.121,0.109,0.263,0.195,0.426,0.258C45.833,159.541,46.007,159.572,46.194,159.572z"/>
		<path fill="#5BC0DE" d="M53.924,159.922c-0.062,0.031-0.144,0.068-0.244,0.11c-0.102,0.043-0.216,0.086-0.344,0.129
			c-0.129,0.043-0.269,0.078-0.42,0.105c-0.152,0.026-0.31,0.04-0.473,0.04c-0.373,0-0.695-0.103-0.968-0.31
			c-0.272-0.205-0.408-0.525-0.408-0.961v-4.093H50.24v-0.805h0.828v-2.028h1.026v2.028h1.364v0.805h-1.364v3.778
			c0.016,0.225,0.089,0.389,0.222,0.488c0.132,0.102,0.287,0.152,0.466,0.152c0.202,0,0.387-0.033,0.555-0.1
			c0.167-0.065,0.281-0.118,0.344-0.156L53.924,159.922z"/>
		<path fill="#5BC0DE" d="M54.881,152.996v-1.282h1.025v1.282H54.881z M54.881,160.226v-6.087h1.025v6.087H54.881z"/>
		<path fill="#5BC0DE" d="M60.221,160.342c-0.459,0-0.877-0.086-1.254-0.257s-0.699-0.4-0.968-0.688
			c-0.268-0.287-0.476-0.622-0.623-1.003c-0.148-0.381-0.222-0.781-0.222-1.201c0-0.427,0.075-0.831,0.228-1.212
			c0.151-0.381,0.361-0.716,0.629-1.004c0.269-0.287,0.591-0.516,0.968-0.688c0.377-0.171,0.791-0.256,1.242-0.256
			s0.866,0.085,1.248,0.256c0.38,0.172,0.705,0.4,0.974,0.688c0.268,0.288,0.478,0.623,0.629,1.004
			c0.152,0.381,0.228,0.785,0.228,1.212c0,0.42-0.074,0.82-0.222,1.201s-0.357,0.716-0.629,1.003
			c-0.272,0.287-0.597,0.517-0.974,0.688C61.097,160.256,60.68,160.342,60.221,160.342z M58.204,157.205
			c0,0.319,0.053,0.614,0.158,0.886c0.104,0.272,0.248,0.51,0.431,0.712s0.396,0.361,0.642,0.478
			c0.245,0.117,0.507,0.176,0.787,0.176s0.542-0.059,0.787-0.176c0.245-0.116,0.461-0.277,0.647-0.483s0.332-0.447,0.437-0.724
			c0.105-0.275,0.158-0.572,0.158-0.892c0-0.311-0.053-0.604-0.158-0.88c-0.104-0.275-0.25-0.518-0.437-0.723
			c-0.187-0.207-0.402-0.367-0.647-0.484s-0.507-0.175-0.787-0.175s-0.542,0.06-0.787,0.181s-0.459,0.283-0.642,0.49
			c-0.183,0.205-0.326,0.446-0.431,0.723C58.256,156.589,58.204,156.887,58.204,157.205z"/>
		<path fill="#5BC0DE" d="M69.829,160.226h-1.025v-3.405c0-0.653-0.1-1.127-0.298-1.423c-0.198-0.295-0.499-0.443-0.903-0.443
			c-0.21,0-0.42,0.041-0.63,0.123s-0.408,0.192-0.595,0.332c-0.187,0.141-0.35,0.308-0.489,0.502s-0.245,0.408-0.315,0.641v3.674
			h-1.025v-6.087h0.933v1.306c0.241-0.428,0.589-0.77,1.044-1.025c0.454-0.257,0.95-0.385,1.486-0.385
			c0.35,0,0.642,0.063,0.874,0.191c0.233,0.129,0.42,0.308,0.56,0.537c0.141,0.229,0.239,0.499,0.298,0.811
			c0.059,0.311,0.087,0.648,0.087,1.014V160.226z"/>
		<path fill="#5BC0DE" d="M72.989,160.342c-0.288,0-0.557-0.049-0.805-0.146c-0.249-0.098-0.465-0.231-0.647-0.402
			c-0.183-0.172-0.326-0.371-0.432-0.601c-0.104-0.229-0.157-0.479-0.157-0.753c0-0.279,0.062-0.533,0.187-0.764
			c0.124-0.229,0.302-0.425,0.53-0.588c0.229-0.164,0.502-0.292,0.816-0.385c0.315-0.094,0.659-0.141,1.032-0.141
			c0.295,0,0.595,0.027,0.897,0.082c0.304,0.055,0.571,0.129,0.805,0.222v-0.489c0-0.498-0.14-0.889-0.42-1.172
			c-0.279-0.284-0.676-0.426-1.189-0.426c-0.613,0-1.259,0.236-1.936,0.711l-0.338-0.664c0.785-0.529,1.574-0.793,2.367-0.793
			c0.801,0,1.425,0.213,1.871,0.641c0.447,0.428,0.671,1.03,0.671,1.808v2.483c0,0.241,0.108,0.365,0.326,0.373v0.887
			c-0.108,0.016-0.198,0.027-0.268,0.035c-0.07,0.007-0.145,0.012-0.222,0.012c-0.202,0-0.363-0.061-0.484-0.182
			c-0.12-0.12-0.192-0.266-0.216-0.438l-0.023-0.432c-0.271,0.366-0.615,0.645-1.031,0.834
			C73.908,160.247,73.462,160.342,72.989,160.342z M73.256,159.572c0.365,0,0.706-0.067,1.021-0.204s0.554-0.316,0.717-0.543
			c0.147-0.146,0.222-0.299,0.222-0.454v-0.897c-0.497-0.194-1.015-0.292-1.551-0.292c-0.513,0-0.931,0.109-1.253,0.327
			c-0.323,0.217-0.484,0.501-0.484,0.851c0,0.171,0.033,0.331,0.1,0.478c0.065,0.148,0.159,0.277,0.279,0.385
			c0.121,0.109,0.263,0.195,0.426,0.258C72.895,159.541,73.07,159.572,73.256,159.572z"/>
		<path fill="#5BC0DE" d="M77.91,151.714h1.025v6.938c0,0.225,0.061,0.402,0.181,0.53c0.121,0.128,0.29,0.192,0.508,0.192
			c0.085,0,0.187-0.014,0.303-0.041c0.117-0.027,0.226-0.061,0.327-0.1l0.163,0.828c-0.172,0.07-0.373,0.129-0.606,0.176
			c-0.233,0.046-0.439,0.069-0.618,0.069c-0.396,0-0.709-0.112-0.938-0.338s-0.344-0.54-0.344-0.944V151.714z"/>
		<path fill="#5BC0DE" d="M85.698,160.342c-0.638,0-1.119-0.214-1.445-0.642c-0.327-0.428-0.49-1.064-0.49-1.912v-3.649h1.026v3.451
			c0,1.243,0.432,1.866,1.294,1.866c0.42,0,0.814-0.135,1.184-0.402c0.369-0.269,0.644-0.636,0.822-1.103v-3.812h1.025v4.827
			c0,0.241,0.109,0.365,0.327,0.373v0.887c-0.117,0.016-0.208,0.024-0.274,0.029c-0.066,0.004-0.13,0.006-0.192,0.006
			c-0.202,0-0.371-0.061-0.507-0.182c-0.137-0.12-0.208-0.27-0.216-0.449l-0.023-0.711c-0.272,0.459-0.63,0.811-1.072,1.056
			C86.712,160.22,86.226,160.342,85.698,160.342z"/>
		<path fill="#5BC0DE" d="M96.11,160.226h-1.025v-3.405c0-0.653-0.1-1.127-0.298-1.423c-0.198-0.295-0.499-0.443-0.903-0.443
			c-0.21,0-0.42,0.041-0.63,0.123s-0.408,0.192-0.595,0.332c-0.187,0.141-0.35,0.308-0.489,0.502s-0.245,0.408-0.315,0.641v3.674
			h-1.025v-6.087h0.933v1.306c0.241-0.428,0.589-0.77,1.044-1.025c0.454-0.257,0.95-0.385,1.486-0.385
			c0.35,0,0.642,0.063,0.874,0.191c0.233,0.129,0.42,0.308,0.56,0.537c0.141,0.229,0.239,0.499,0.298,0.811
			c0.059,0.311,0.087,0.648,0.087,1.014V160.226z"/>
		<path fill="#5BC0DE" d="M97.708,152.996v-1.282h1.025v1.282H97.708z M97.708,160.226v-6.087h1.025v6.087H97.708z"/>
		<path fill="#5BC0DE" d="M103.537,159.922c-0.062,0.031-0.144,0.068-0.244,0.11c-0.102,0.043-0.216,0.086-0.344,0.129
			c-0.129,0.043-0.269,0.078-0.42,0.105c-0.152,0.026-0.31,0.04-0.473,0.04c-0.373,0-0.695-0.103-0.968-0.31
			c-0.272-0.205-0.408-0.525-0.408-0.961v-4.093h-0.828v-0.805h0.828v-2.028h1.026v2.028h1.364v0.805h-1.364v3.778
			c0.016,0.225,0.089,0.389,0.222,0.488c0.132,0.102,0.287,0.152,0.466,0.152c0.202,0,0.387-0.033,0.555-0.1
			c0.167-0.065,0.281-0.118,0.344-0.156L103.537,159.922z"/>
		<path fill="#5BC0DE" d="M106.627,160.342c-0.49,0-0.972-0.075-1.446-0.228c-0.474-0.151-0.882-0.371-1.225-0.658l0.443-0.688
			c0.357,0.272,0.715,0.476,1.073,0.612c0.357,0.136,0.734,0.204,1.131,0.204c0.443,0,0.795-0.087,1.055-0.263
			c0.261-0.175,0.391-0.422,0.391-0.74c0-0.147-0.034-0.273-0.104-0.379s-0.175-0.196-0.314-0.273
			c-0.141-0.078-0.319-0.148-0.537-0.211c-0.218-0.062-0.47-0.128-0.758-0.197c-0.365-0.094-0.68-0.184-0.944-0.269
			s-0.482-0.187-0.653-0.304c-0.171-0.116-0.295-0.256-0.373-0.42c-0.077-0.162-0.116-0.365-0.116-0.605
			c0-0.303,0.061-0.573,0.181-0.811s0.286-0.436,0.496-0.595c0.209-0.159,0.456-0.28,0.74-0.361
			c0.283-0.082,0.589-0.122,0.915-0.122c0.459,0,0.886,0.073,1.282,0.221c0.396,0.148,0.73,0.342,1.003,0.584l-0.466,0.617
			c-0.257-0.225-0.545-0.395-0.863-0.508c-0.318-0.111-0.646-0.168-0.979-0.168c-0.373,0-0.689,0.08-0.95,0.238
			c-0.261,0.16-0.391,0.414-0.391,0.764c0,0.141,0.025,0.257,0.076,0.35c0.05,0.094,0.134,0.176,0.25,0.246
			c0.117,0.069,0.267,0.132,0.449,0.186c0.183,0.055,0.402,0.113,0.659,0.176c0.403,0.093,0.756,0.188,1.055,0.285
			s0.548,0.212,0.746,0.344c0.198,0.133,0.346,0.288,0.443,0.467c0.097,0.179,0.146,0.396,0.146,0.652
			c0,0.568-0.218,1.02-0.652,1.354C107.953,160.175,107.366,160.342,106.627,160.342z"/>
	</g>
	<g>
		<path fill="#5BC0DE" d="M182.938,159.292v0.934h-5.62v-8.279h5.515v0.934h-4.466v2.682h3.883v0.874h-3.883v2.856H182.938z"/>
		<path fill="#5BC0DE" d="M184.606,154.139l1.667,2.239l0.094,0.186l0.104-0.186l1.656-2.239h1.084l-2.273,3.055l2.285,3.032h-1.085
			l-1.667-2.228l-0.104-0.175l-0.094,0.175l-1.667,2.228h-1.085l2.285-3.032l-2.273-3.055H184.606z"/>
		<path fill="#5BC0DE" d="M193.467,160.342c-0.506,0-0.95-0.124-1.335-0.373s-0.69-0.563-0.916-0.944v3.684h-1.025v-8.569h0.909
			v1.143c0.241-0.373,0.554-0.675,0.938-0.903c0.385-0.229,0.811-0.344,1.277-0.344c0.419,0,0.804,0.085,1.154,0.256
			c0.35,0.172,0.652,0.402,0.909,0.693c0.257,0.292,0.456,0.629,0.601,1.01c0.144,0.381,0.216,0.777,0.216,1.188
			c0,0.436-0.066,0.846-0.198,1.23c-0.133,0.385-0.319,0.719-0.56,1.003c-0.241,0.283-0.529,0.509-0.863,0.676
			C194.24,160.259,193.871,160.342,193.467,160.342z M193.151,159.456c0.304,0,0.577-0.064,0.822-0.193
			c0.245-0.128,0.455-0.299,0.63-0.513s0.309-0.456,0.402-0.729c0.093-0.272,0.14-0.552,0.14-0.84c0-0.303-0.055-0.593-0.163-0.868
			c-0.109-0.276-0.257-0.518-0.443-0.723c-0.187-0.207-0.406-0.369-0.658-0.49c-0.253-0.121-0.527-0.181-0.822-0.181
			c-0.187,0-0.379,0.036-0.577,0.11s-0.385,0.172-0.56,0.292s-0.327,0.265-0.455,0.431c-0.128,0.168-0.212,0.345-0.251,0.531v1.737
			c0.086,0.202,0.194,0.391,0.327,0.565c0.132,0.175,0.283,0.326,0.454,0.455c0.171,0.128,0.354,0.229,0.549,0.303
			C192.739,159.419,192.942,159.456,193.151,159.456z"/>
		<path fill="#5BC0DE" d="M197.479,151.714h1.025v6.938c0,0.225,0.061,0.402,0.181,0.53c0.121,0.128,0.29,0.192,0.508,0.192
			c0.085,0,0.187-0.014,0.303-0.041c0.117-0.027,0.226-0.061,0.327-0.1l0.163,0.828c-0.172,0.07-0.373,0.129-0.606,0.176
			c-0.233,0.046-0.439,0.069-0.618,0.069c-0.396,0-0.709-0.112-0.938-0.338s-0.344-0.54-0.344-0.944V151.714z"/>
		<path fill="#5BC0DE" d="M202.353,160.342c-0.288,0-0.557-0.049-0.805-0.146c-0.249-0.098-0.465-0.231-0.647-0.402
			c-0.183-0.172-0.326-0.371-0.432-0.601c-0.104-0.229-0.157-0.479-0.157-0.753c0-0.279,0.062-0.533,0.187-0.764
			c0.124-0.229,0.302-0.425,0.53-0.588c0.229-0.164,0.502-0.292,0.816-0.385c0.315-0.094,0.659-0.141,1.032-0.141
			c0.295,0,0.595,0.027,0.897,0.082c0.304,0.055,0.571,0.129,0.805,0.222v-0.489c0-0.498-0.14-0.889-0.42-1.172
			c-0.279-0.284-0.676-0.426-1.189-0.426c-0.613,0-1.259,0.236-1.936,0.711l-0.338-0.664c0.785-0.529,1.574-0.793,2.367-0.793
			c0.801,0,1.425,0.213,1.871,0.641c0.447,0.428,0.671,1.03,0.671,1.808v2.483c0,0.241,0.108,0.365,0.326,0.373v0.887
			c-0.108,0.016-0.198,0.027-0.268,0.035c-0.07,0.007-0.145,0.012-0.222,0.012c-0.202,0-0.363-0.061-0.484-0.182
			c-0.12-0.12-0.192-0.266-0.216-0.438l-0.023-0.432c-0.271,0.366-0.615,0.645-1.031,0.834
			C203.271,160.247,202.826,160.342,202.353,160.342z M202.62,159.572c0.365,0,0.706-0.067,1.021-0.204s0.554-0.316,0.717-0.543
			c0.147-0.146,0.222-0.299,0.222-0.454v-0.897c-0.497-0.194-1.015-0.292-1.551-0.292c-0.513,0-0.931,0.109-1.253,0.327
			c-0.323,0.217-0.484,0.501-0.484,0.851c0,0.171,0.033,0.331,0.1,0.478c0.065,0.148,0.159,0.277,0.279,0.385
			c0.121,0.109,0.263,0.195,0.426,0.258C202.259,159.541,202.434,159.572,202.62,159.572z"/>
		<path fill="#5BC0DE" d="M212.53,160.226h-1.025v-3.405c0-0.653-0.1-1.127-0.298-1.423c-0.198-0.295-0.499-0.443-0.903-0.443
			c-0.21,0-0.42,0.041-0.63,0.123s-0.408,0.192-0.595,0.332c-0.187,0.141-0.35,0.308-0.489,0.502s-0.245,0.408-0.315,0.641v3.674
			h-1.025v-6.087h0.933v1.306c0.241-0.428,0.589-0.77,1.044-1.025c0.454-0.257,0.95-0.385,1.486-0.385
			c0.35,0,0.642,0.063,0.874,0.191c0.233,0.129,0.42,0.308,0.56,0.537c0.141,0.229,0.239,0.499,0.298,0.811
			c0.059,0.311,0.087,0.648,0.087,1.014V160.226z"/>
		<path fill="#5BC0DE" d="M215.691,160.342c-0.288,0-0.557-0.049-0.805-0.146c-0.249-0.098-0.465-0.231-0.647-0.402
			c-0.183-0.172-0.326-0.371-0.432-0.601c-0.104-0.229-0.157-0.479-0.157-0.753c0-0.279,0.062-0.533,0.187-0.764
			c0.124-0.229,0.302-0.425,0.53-0.588c0.229-0.164,0.502-0.292,0.816-0.385c0.315-0.094,0.659-0.141,1.032-0.141
			c0.295,0,0.595,0.027,0.897,0.082c0.304,0.055,0.571,0.129,0.805,0.222v-0.489c0-0.498-0.14-0.889-0.42-1.172
			c-0.279-0.284-0.676-0.426-1.189-0.426c-0.613,0-1.259,0.236-1.936,0.711l-0.338-0.664c0.785-0.529,1.574-0.793,2.367-0.793
			c0.801,0,1.425,0.213,1.871,0.641c0.447,0.428,0.671,1.03,0.671,1.808v2.483c0,0.241,0.108,0.365,0.326,0.373v0.887
			c-0.108,0.016-0.198,0.027-0.268,0.035c-0.07,0.007-0.145,0.012-0.222,0.012c-0.202,0-0.363-0.061-0.484-0.182
			c-0.12-0.12-0.192-0.266-0.216-0.438l-0.023-0.432c-0.271,0.366-0.615,0.645-1.031,0.834
			C216.61,160.247,216.165,160.342,215.691,160.342z M215.959,159.572c0.365,0,0.706-0.067,1.021-0.204s0.554-0.316,0.717-0.543
			c0.147-0.146,0.222-0.299,0.222-0.454v-0.897c-0.497-0.194-1.015-0.292-1.551-0.292c-0.513,0-0.931,0.109-1.253,0.327
			c-0.323,0.217-0.484,0.501-0.484,0.851c0,0.171,0.033,0.331,0.1,0.478c0.065,0.148,0.159,0.277,0.279,0.385
			c0.121,0.109,0.263,0.195,0.426,0.258C215.598,159.541,215.772,159.572,215.959,159.572z"/>
		<path fill="#5BC0DE" d="M223.688,159.922c-0.062,0.031-0.144,0.068-0.244,0.11c-0.102,0.043-0.216,0.086-0.344,0.129
			c-0.129,0.043-0.269,0.078-0.42,0.105c-0.152,0.026-0.31,0.04-0.473,0.04c-0.373,0-0.695-0.103-0.968-0.31
			c-0.272-0.205-0.408-0.525-0.408-0.961v-4.093h-0.828v-0.805h0.828v-2.028h1.026v2.028h1.364v0.805h-1.364v3.778
			c0.016,0.225,0.089,0.389,0.222,0.488c0.132,0.102,0.287,0.152,0.466,0.152c0.202,0,0.387-0.033,0.555-0.1
			c0.167-0.065,0.281-0.118,0.344-0.156L223.688,159.922z"/>
		<path fill="#5BC0DE" d="M227.223,160.342c-0.459,0-0.877-0.086-1.254-0.257s-0.699-0.4-0.968-0.688
			c-0.268-0.287-0.476-0.622-0.623-1.003c-0.148-0.381-0.222-0.781-0.222-1.201c0-0.427,0.075-0.831,0.228-1.212
			c0.151-0.381,0.361-0.716,0.629-1.004c0.269-0.287,0.591-0.516,0.968-0.688c0.377-0.171,0.791-0.256,1.242-0.256
			s0.866,0.085,1.248,0.256c0.38,0.172,0.705,0.4,0.974,0.688c0.268,0.288,0.478,0.623,0.629,1.004
			c0.152,0.381,0.228,0.785,0.228,1.212c0,0.42-0.074,0.82-0.222,1.201s-0.357,0.716-0.629,1.003
			c-0.272,0.287-0.597,0.517-0.974,0.688C228.099,160.256,227.682,160.342,227.223,160.342z M225.205,157.205
			c0,0.319,0.053,0.614,0.158,0.886c0.104,0.272,0.248,0.51,0.431,0.712s0.396,0.361,0.642,0.478
			c0.245,0.117,0.507,0.176,0.787,0.176s0.542-0.059,0.787-0.176c0.245-0.116,0.461-0.277,0.647-0.483s0.332-0.447,0.437-0.724
			c0.105-0.275,0.158-0.572,0.158-0.892c0-0.311-0.053-0.604-0.158-0.88c-0.104-0.275-0.25-0.518-0.437-0.723
			c-0.187-0.207-0.402-0.367-0.647-0.484s-0.507-0.175-0.787-0.175s-0.542,0.06-0.787,0.181s-0.459,0.283-0.642,0.49
			c-0.183,0.205-0.326,0.446-0.431,0.723C225.258,156.589,225.205,156.887,225.205,157.205z"/>
		<path fill="#5BC0DE" d="M234.767,155.036c-0.513,0.016-0.966,0.148-1.358,0.396c-0.393,0.249-0.67,0.595-0.834,1.038v3.755h-1.025
			v-6.087h0.956v1.411c0.21-0.42,0.485-0.76,0.828-1.021c0.342-0.261,0.707-0.406,1.096-0.438c0.077,0,0.144,0,0.198,0
			c0.054,0,0.101,0.004,0.14,0.012V155.036z"/>
		<path fill="#5BC0DE" d="M236.061,161.881c0.102,0.016,0.202,0.027,0.304,0.035c0.101,0.007,0.179,0.011,0.233,0.011
			c0.093,0,0.176-0.021,0.25-0.063c0.074-0.043,0.147-0.126,0.222-0.251c0.074-0.124,0.157-0.297,0.251-0.519
			c0.093-0.222,0.21-0.511,0.35-0.868l-2.577-6.087h1.062l2.075,5.165l1.889-5.165h0.979l-2.961,7.685
			c-0.109,0.271-0.29,0.51-0.543,0.717c-0.252,0.205-0.601,0.309-1.043,0.309c-0.07,0-0.143-0.004-0.216-0.012
			c-0.074-0.008-0.165-0.023-0.274-0.047V161.881z"/>
	</g>
	<g>
		<path fill="#5BC0DE" d="M337.508,160.226v-8.279h3.545c0.365,0,0.701,0.076,1.008,0.228c0.308,0.151,0.571,0.354,0.793,0.606
			s0.395,0.536,0.52,0.852c0.124,0.314,0.187,0.635,0.187,0.961c0,0.288-0.041,0.566-0.123,0.834
			c-0.081,0.269-0.198,0.512-0.35,0.729c-0.151,0.219-0.334,0.404-0.548,0.561c-0.214,0.155-0.453,0.268-0.717,0.338l2.005,3.172
			h-1.189l-1.889-2.974h-2.192v2.974H337.508z M338.557,156.319h2.508c0.217,0,0.413-0.047,0.588-0.141
			c0.176-0.093,0.325-0.219,0.449-0.379c0.124-0.158,0.222-0.344,0.292-0.554c0.069-0.21,0.104-0.427,0.104-0.653
			c0-0.232-0.041-0.452-0.122-0.658c-0.082-0.206-0.19-0.389-0.327-0.548c-0.136-0.159-0.295-0.284-0.478-0.374
			c-0.183-0.088-0.375-0.133-0.577-0.133h-2.438V156.319z"/>
		<path fill="#5BC0DE" d="M347.5,160.342c-0.459,0-0.879-0.083-1.26-0.251c-0.381-0.167-0.707-0.395-0.979-0.682
			c-0.271-0.287-0.483-0.624-0.635-1.009c-0.152-0.385-0.228-0.791-0.228-1.219c0-0.427,0.075-0.831,0.228-1.212
			c0.151-0.381,0.365-0.716,0.641-1.004c0.276-0.287,0.604-0.514,0.985-0.682c0.381-0.167,0.801-0.25,1.26-0.25
			c0.458,0,0.876,0.085,1.253,0.256c0.377,0.172,0.698,0.398,0.962,0.682c0.265,0.285,0.469,0.615,0.612,0.992
			s0.216,0.768,0.216,1.172c0,0.085-0.002,0.162-0.006,0.232s-0.01,0.125-0.018,0.164h-5.049c0.023,0.303,0.094,0.578,0.21,0.827
			c0.117,0.249,0.269,0.463,0.455,0.642s0.398,0.318,0.636,0.42c0.236,0.101,0.487,0.151,0.752,0.151
			c0.187,0,0.369-0.025,0.548-0.075c0.179-0.051,0.346-0.119,0.501-0.205c0.155-0.085,0.294-0.189,0.414-0.314
			s0.212-0.264,0.274-0.42l0.886,0.245c-0.101,0.226-0.239,0.431-0.414,0.618c-0.175,0.186-0.377,0.348-0.606,0.483
			c-0.229,0.136-0.483,0.243-0.764,0.321C348.095,160.303,347.803,160.342,347.5,160.342z M349.587,156.774
			c-0.023-0.288-0.096-0.555-0.216-0.799c-0.12-0.246-0.272-0.453-0.454-0.625c-0.184-0.17-0.396-0.305-0.636-0.402
			c-0.241-0.096-0.498-0.145-0.77-0.145c-0.272,0-0.529,0.049-0.77,0.145c-0.241,0.098-0.453,0.234-0.636,0.408
			c-0.183,0.176-0.33,0.384-0.443,0.625c-0.112,0.24-0.181,0.505-0.204,0.793H349.587z"/>
		<path fill="#5BC0DE" d="M353.832,160.342c-0.49,0-0.972-0.075-1.446-0.228c-0.474-0.151-0.882-0.371-1.225-0.658l0.443-0.688
			c0.357,0.272,0.715,0.476,1.073,0.612c0.357,0.136,0.734,0.204,1.131,0.204c0.443,0,0.795-0.087,1.055-0.263
			c0.261-0.175,0.391-0.422,0.391-0.74c0-0.147-0.034-0.273-0.104-0.379s-0.175-0.196-0.314-0.273
			c-0.141-0.078-0.319-0.148-0.537-0.211c-0.218-0.062-0.47-0.128-0.758-0.197c-0.365-0.094-0.68-0.184-0.944-0.269
			s-0.482-0.187-0.653-0.304c-0.171-0.116-0.295-0.256-0.373-0.42c-0.077-0.162-0.116-0.365-0.116-0.605
			c0-0.303,0.061-0.573,0.181-0.811s0.286-0.436,0.496-0.595c0.209-0.159,0.456-0.28,0.74-0.361
			c0.283-0.082,0.589-0.122,0.915-0.122c0.459,0,0.886,0.073,1.282,0.221c0.396,0.148,0.73,0.342,1.003,0.584l-0.466,0.617
			c-0.257-0.225-0.545-0.395-0.863-0.508c-0.318-0.111-0.646-0.168-0.979-0.168c-0.373,0-0.689,0.08-0.95,0.238
			c-0.261,0.16-0.391,0.414-0.391,0.764c0,0.141,0.025,0.257,0.076,0.35c0.05,0.094,0.134,0.176,0.25,0.246
			c0.117,0.069,0.267,0.132,0.449,0.186c0.183,0.055,0.402,0.113,0.659,0.176c0.403,0.093,0.756,0.188,1.055,0.285
			s0.548,0.212,0.746,0.344c0.198,0.133,0.346,0.288,0.443,0.467c0.097,0.179,0.146,0.396,0.146,0.652
			c0,0.568-0.218,1.02-0.652,1.354C355.157,160.175,354.57,160.342,353.832,160.342z"/>
		<path fill="#5BC0DE" d="M360.734,160.342c-0.506,0-0.95-0.124-1.335-0.373s-0.69-0.563-0.916-0.944v3.684h-1.025v-8.569h0.909
			v1.143c0.241-0.373,0.554-0.675,0.938-0.903c0.385-0.229,0.811-0.344,1.277-0.344c0.419,0,0.804,0.085,1.154,0.256
			c0.35,0.172,0.652,0.402,0.909,0.693c0.257,0.292,0.456,0.629,0.601,1.01c0.144,0.381,0.216,0.777,0.216,1.188
			c0,0.436-0.066,0.846-0.198,1.23c-0.133,0.385-0.319,0.719-0.56,1.003c-0.241,0.283-0.529,0.509-0.863,0.676
			C361.508,160.259,361.139,160.342,360.734,160.342z M360.419,159.456c0.304,0,0.577-0.064,0.822-0.193
			c0.245-0.128,0.455-0.299,0.63-0.513s0.309-0.456,0.402-0.729c0.093-0.272,0.14-0.552,0.14-0.84c0-0.303-0.055-0.593-0.163-0.868
			c-0.109-0.276-0.257-0.518-0.443-0.723c-0.187-0.207-0.406-0.369-0.658-0.49c-0.253-0.121-0.527-0.181-0.822-0.181
			c-0.187,0-0.379,0.036-0.577,0.11s-0.385,0.172-0.56,0.292s-0.327,0.265-0.455,0.431c-0.128,0.168-0.212,0.345-0.251,0.531v1.737
			c0.086,0.202,0.194,0.391,0.327,0.565c0.132,0.175,0.283,0.326,0.454,0.455c0.171,0.128,0.354,0.229,0.549,0.303
			C360.007,159.419,360.21,159.456,360.419,159.456z"/>
		<path fill="#5BC0DE" d="M367.38,160.342c-0.459,0-0.877-0.086-1.254-0.257s-0.699-0.4-0.968-0.688
			c-0.268-0.287-0.476-0.622-0.623-1.003c-0.148-0.381-0.222-0.781-0.222-1.201c0-0.427,0.075-0.831,0.228-1.212
			c0.151-0.381,0.361-0.716,0.629-1.004c0.269-0.287,0.591-0.516,0.968-0.688c0.377-0.171,0.791-0.256,1.242-0.256
			s0.866,0.085,1.248,0.256c0.38,0.172,0.705,0.4,0.974,0.688c0.268,0.288,0.478,0.623,0.629,1.004
			c0.152,0.381,0.228,0.785,0.228,1.212c0,0.42-0.074,0.82-0.222,1.201s-0.357,0.716-0.629,1.003
			c-0.272,0.287-0.597,0.517-0.974,0.688C368.256,160.256,367.839,160.342,367.38,160.342z M365.362,157.205
			c0,0.319,0.053,0.614,0.158,0.886c0.104,0.272,0.248,0.51,0.431,0.712s0.396,0.361,0.642,0.478
			c0.245,0.117,0.507,0.176,0.787,0.176s0.542-0.059,0.787-0.176c0.245-0.116,0.461-0.277,0.647-0.483s0.332-0.447,0.437-0.724
			c0.105-0.275,0.158-0.572,0.158-0.892c0-0.311-0.053-0.604-0.158-0.88c-0.104-0.275-0.25-0.518-0.437-0.723
			c-0.187-0.207-0.402-0.367-0.647-0.484s-0.507-0.175-0.787-0.175s-0.542,0.06-0.787,0.181s-0.459,0.283-0.642,0.49
			c-0.183,0.205-0.326,0.446-0.431,0.723C365.415,156.589,365.362,156.887,365.362,157.205z"/>
		<path fill="#5BC0DE" d="M376.987,160.226h-1.025v-3.405c0-0.653-0.1-1.127-0.298-1.423c-0.198-0.295-0.499-0.443-0.903-0.443
			c-0.21,0-0.42,0.041-0.63,0.123s-0.408,0.192-0.595,0.332c-0.187,0.141-0.35,0.308-0.489,0.502s-0.245,0.408-0.315,0.641v3.674
			h-1.025v-6.087h0.933v1.306c0.241-0.428,0.589-0.77,1.044-1.025c0.454-0.257,0.95-0.385,1.486-0.385
			c0.35,0,0.642,0.063,0.874,0.191c0.233,0.129,0.42,0.308,0.56,0.537c0.141,0.229,0.239,0.499,0.298,0.811
			c0.059,0.311,0.087,0.648,0.087,1.014V160.226z"/>
		<path fill="#5BC0DE" d="M380.72,160.342c-0.49,0-0.972-0.075-1.446-0.228c-0.474-0.151-0.882-0.371-1.225-0.658l0.443-0.688
			c0.357,0.272,0.715,0.476,1.073,0.612c0.357,0.136,0.734,0.204,1.131,0.204c0.443,0,0.795-0.087,1.055-0.263
			c0.261-0.175,0.391-0.422,0.391-0.74c0-0.147-0.034-0.273-0.104-0.379s-0.175-0.196-0.314-0.273
			c-0.141-0.078-0.319-0.148-0.537-0.211c-0.218-0.062-0.47-0.128-0.758-0.197c-0.365-0.094-0.68-0.184-0.944-0.269
			s-0.482-0.187-0.653-0.304c-0.171-0.116-0.295-0.256-0.373-0.42c-0.077-0.162-0.116-0.365-0.116-0.605
			c0-0.303,0.061-0.573,0.181-0.811s0.286-0.436,0.496-0.595c0.209-0.159,0.456-0.28,0.74-0.361
			c0.283-0.082,0.589-0.122,0.915-0.122c0.459,0,0.886,0.073,1.282,0.221c0.396,0.148,0.73,0.342,1.003,0.584l-0.466,0.617
			c-0.257-0.225-0.545-0.395-0.863-0.508c-0.318-0.111-0.646-0.168-0.979-0.168c-0.373,0-0.689,0.08-0.95,0.238
			c-0.261,0.16-0.391,0.414-0.391,0.764c0,0.141,0.025,0.257,0.076,0.35c0.05,0.094,0.134,0.176,0.25,0.246
			c0.117,0.069,0.267,0.132,0.449,0.186c0.183,0.055,0.402,0.113,0.659,0.176c0.403,0.093,0.756,0.188,1.055,0.285
			s0.548,0.212,0.746,0.344c0.198,0.133,0.346,0.288,0.443,0.467c0.097,0.179,0.146,0.396,0.146,0.652
			c0,0.568-0.218,1.02-0.652,1.354C382.045,160.175,381.458,160.342,380.72,160.342z"/>
		<path fill="#5BC0DE" d="M387.039,160.342c-0.459,0-0.879-0.083-1.26-0.251c-0.381-0.167-0.707-0.395-0.979-0.682
			c-0.271-0.287-0.483-0.624-0.635-1.009c-0.152-0.385-0.228-0.791-0.228-1.219c0-0.427,0.075-0.831,0.228-1.212
			c0.151-0.381,0.365-0.716,0.641-1.004c0.276-0.287,0.604-0.514,0.985-0.682c0.381-0.167,0.801-0.25,1.26-0.25
			c0.458,0,0.876,0.085,1.253,0.256c0.377,0.172,0.698,0.398,0.962,0.682c0.265,0.285,0.469,0.615,0.612,0.992
			s0.216,0.768,0.216,1.172c0,0.085-0.002,0.162-0.006,0.232s-0.01,0.125-0.018,0.164h-5.049c0.023,0.303,0.094,0.578,0.21,0.827
			c0.117,0.249,0.269,0.463,0.455,0.642s0.398,0.318,0.636,0.42c0.236,0.101,0.487,0.151,0.752,0.151
			c0.187,0,0.369-0.025,0.548-0.075c0.179-0.051,0.346-0.119,0.501-0.205c0.155-0.085,0.294-0.189,0.414-0.314
			s0.212-0.264,0.274-0.42l0.886,0.245c-0.101,0.226-0.239,0.431-0.414,0.618c-0.175,0.186-0.377,0.348-0.606,0.483
			c-0.229,0.136-0.483,0.243-0.764,0.321C387.634,160.303,387.342,160.342,387.039,160.342z M389.126,156.774
			c-0.023-0.288-0.096-0.555-0.216-0.799c-0.12-0.246-0.272-0.453-0.454-0.625c-0.184-0.17-0.396-0.305-0.636-0.402
			c-0.241-0.096-0.498-0.145-0.77-0.145c-0.272,0-0.529,0.049-0.77,0.145c-0.241,0.098-0.453,0.234-0.636,0.408
			c-0.183,0.176-0.33,0.384-0.443,0.625c-0.112,0.24-0.181,0.505-0.204,0.793H389.126z"/>
	</g>
	<g>
		<path fill="#D2D2D2" d="M174.631,115.444v6.32h-1.049v-8.279h0.816l5.13,6.449v-6.438h1.05v8.268h-0.887L174.631,115.444z"/>
		<path fill="#D2D2D2" d="M184.95,121.882c-0.459,0-0.877-0.086-1.254-0.258c-0.377-0.17-0.699-0.399-0.968-0.688
			c-0.268-0.287-0.476-0.621-0.623-1.002c-0.148-0.381-0.222-0.781-0.222-1.201c0-0.428,0.075-0.832,0.228-1.213
			c0.151-0.381,0.361-0.715,0.629-1.003c0.269-0.288,0.591-0.517,0.968-0.688c0.377-0.17,0.791-0.256,1.242-0.256
			s0.866,0.086,1.248,0.256c0.38,0.172,0.705,0.4,0.974,0.688c0.268,0.288,0.478,0.622,0.629,1.003
			c0.152,0.381,0.228,0.785,0.228,1.213c0,0.42-0.074,0.82-0.222,1.201s-0.357,0.715-0.629,1.002
			c-0.272,0.288-0.597,0.518-0.974,0.688C185.826,121.796,185.409,121.882,184.95,121.882z M182.933,118.745
			c0,0.318,0.053,0.613,0.158,0.886c0.104,0.272,0.248,0.509,0.431,0.712c0.183,0.201,0.396,0.361,0.642,0.478
			s0.507,0.175,0.787,0.175s0.542-0.059,0.787-0.175s0.461-0.278,0.647-0.483c0.187-0.207,0.332-0.447,0.437-0.724
			c0.105-0.276,0.158-0.573,0.158-0.892c0-0.311-0.053-0.604-0.158-0.881c-0.104-0.275-0.25-0.517-0.437-0.723
			s-0.402-0.367-0.647-0.484c-0.245-0.116-0.507-0.174-0.787-0.174s-0.542,0.06-0.787,0.18c-0.245,0.121-0.459,0.284-0.642,0.49
			s-0.326,0.447-0.431,0.723C182.985,118.129,182.933,118.427,182.933,118.745z"/>
		<path fill="#D2D2D2" d="M192.331,121.462c-0.062,0.031-0.144,0.068-0.244,0.11c-0.102,0.043-0.216,0.085-0.344,0.128
			c-0.129,0.043-0.269,0.078-0.42,0.105c-0.152,0.027-0.31,0.041-0.473,0.041c-0.373,0-0.695-0.104-0.968-0.31
			s-0.408-0.526-0.408-0.962v-4.092h-0.828v-0.805h0.828v-2.029h1.026v2.029h1.364v0.805h-1.364v3.777
			c0.016,0.225,0.089,0.389,0.222,0.489c0.132,0.102,0.287,0.151,0.466,0.151c0.202,0,0.387-0.033,0.555-0.099
			c0.167-0.065,0.281-0.118,0.344-0.157L192.331,121.462z"/>
		<path fill="#D2D2D2" d="M197.8,121.882c-0.288,0-0.557-0.049-0.805-0.146c-0.249-0.098-0.465-0.23-0.647-0.402
			c-0.183-0.171-0.326-0.371-0.432-0.6c-0.104-0.23-0.157-0.48-0.157-0.753c0-0.28,0.062-0.534,0.187-0.764s0.302-0.425,0.53-0.589
			c0.229-0.163,0.502-0.291,0.816-0.385c0.315-0.094,0.659-0.14,1.032-0.14c0.295,0,0.595,0.027,0.897,0.081
			c0.304,0.055,0.571,0.129,0.805,0.223v-0.49c0-0.498-0.14-0.889-0.42-1.172c-0.279-0.283-0.676-0.426-1.189-0.426
			c-0.613,0-1.259,0.237-1.936,0.711l-0.338-0.664c0.785-0.529,1.574-0.793,2.367-0.793c0.801,0,1.425,0.214,1.871,0.641
			c0.447,0.428,0.671,1.031,0.671,1.809v2.482c0,0.242,0.108,0.365,0.326,0.373v0.887c-0.108,0.016-0.198,0.027-0.268,0.035
			c-0.07,0.008-0.145,0.012-0.222,0.012c-0.202,0-0.363-0.061-0.484-0.182c-0.12-0.119-0.192-0.266-0.216-0.437l-0.023-0.432
			c-0.271,0.366-0.615,0.644-1.031,0.834S198.273,121.882,197.8,121.882z M198.067,121.112c0.365,0,0.706-0.068,1.021-0.205
			c0.314-0.136,0.554-0.316,0.717-0.542c0.147-0.147,0.222-0.299,0.222-0.454v-0.898c-0.497-0.193-1.015-0.291-1.551-0.291
			c-0.513,0-0.931,0.109-1.253,0.326c-0.323,0.218-0.484,0.502-0.484,0.852c0,0.171,0.033,0.33,0.1,0.478
			c0.065,0.147,0.159,0.276,0.279,0.385c0.121,0.108,0.263,0.194,0.426,0.257S197.881,121.112,198.067,121.112z"/>
		<path fill="#D2D2D2" d="M207.78,121.882c-0.49,0-0.972-0.076-1.446-0.229c-0.474-0.15-0.882-0.371-1.225-0.658l0.443-0.688
			c0.357,0.271,0.715,0.476,1.073,0.611c0.357,0.137,0.734,0.205,1.131,0.205c0.443,0,0.795-0.088,1.055-0.264
			c0.261-0.174,0.391-0.421,0.391-0.74c0-0.146-0.034-0.273-0.104-0.379c-0.07-0.104-0.175-0.195-0.314-0.273
			c-0.141-0.078-0.319-0.148-0.537-0.21s-0.47-0.128-0.758-0.198c-0.365-0.094-0.68-0.183-0.944-0.268
			c-0.265-0.086-0.482-0.188-0.653-0.304s-0.295-0.257-0.373-0.42c-0.077-0.163-0.116-0.365-0.116-0.606
			c0-0.303,0.061-0.572,0.181-0.811c0.12-0.236,0.286-0.436,0.496-0.594c0.209-0.16,0.456-0.28,0.74-0.361
			c0.283-0.082,0.589-0.123,0.915-0.123c0.459,0,0.886,0.074,1.282,0.222s0.73,0.342,1.003,0.583l-0.466,0.617
			c-0.257-0.225-0.545-0.395-0.863-0.507s-0.646-0.169-0.979-0.169c-0.373,0-0.689,0.08-0.95,0.239s-0.391,0.413-0.391,0.764
			c0,0.14,0.025,0.257,0.076,0.35c0.05,0.093,0.134,0.175,0.25,0.245c0.117,0.07,0.267,0.133,0.449,0.187s0.402,0.112,0.659,0.175
			c0.403,0.094,0.756,0.188,1.055,0.285c0.299,0.098,0.548,0.213,0.746,0.344c0.198,0.133,0.346,0.289,0.443,0.467
			c0.097,0.18,0.146,0.396,0.146,0.653c0,0.567-0.218,1.019-0.652,1.353C209.105,121.714,208.519,121.882,207.78,121.882z"/>
		<path fill="#D2D2D2" d="M214.1,121.882c-0.459,0-0.879-0.084-1.26-0.252c-0.381-0.166-0.707-0.394-0.979-0.682
			c-0.271-0.287-0.483-0.623-0.635-1.008c-0.152-0.385-0.228-0.791-0.228-1.219s0.075-0.832,0.228-1.213
			c0.151-0.381,0.365-0.715,0.641-1.003c0.276-0.288,0.604-0.515,0.985-0.683c0.381-0.166,0.801-0.25,1.26-0.25
			c0.458,0,0.876,0.086,1.253,0.256c0.377,0.172,0.698,0.398,0.962,0.683c0.265,0.284,0.469,0.614,0.612,0.991
			s0.216,0.768,0.216,1.172c0,0.086-0.002,0.163-0.006,0.232c-0.004,0.07-0.01,0.125-0.018,0.164h-5.049
			c0.023,0.303,0.094,0.579,0.21,0.828c0.117,0.248,0.269,0.463,0.455,0.641c0.187,0.18,0.398,0.319,0.636,0.42
			c0.236,0.102,0.487,0.152,0.752,0.152c0.187,0,0.369-0.025,0.548-0.076s0.346-0.119,0.501-0.204s0.294-0.19,0.414-0.315
			c0.12-0.124,0.212-0.264,0.274-0.42l0.886,0.246c-0.101,0.225-0.239,0.431-0.414,0.617s-0.377,0.348-0.606,0.484
			c-0.229,0.136-0.483,0.242-0.764,0.32C214.694,121.843,214.402,121.882,214.1,121.882z M216.187,118.313
			c-0.023-0.287-0.096-0.555-0.216-0.799c-0.12-0.245-0.272-0.453-0.454-0.624c-0.184-0.171-0.396-0.305-0.636-0.402
			c-0.241-0.097-0.498-0.146-0.77-0.146c-0.272,0-0.529,0.049-0.77,0.146c-0.241,0.098-0.453,0.233-0.636,0.408
			s-0.33,0.384-0.443,0.624c-0.112,0.24-0.181,0.506-0.204,0.793H216.187z"/>
		<path fill="#D2D2D2" d="M218.321,113.253h1.025v6.938c0,0.226,0.061,0.402,0.181,0.531c0.121,0.127,0.29,0.191,0.508,0.191
			c0.085,0,0.187-0.014,0.303-0.041c0.117-0.026,0.226-0.06,0.327-0.099l0.163,0.828c-0.172,0.069-0.373,0.128-0.606,0.175
			s-0.439,0.07-0.618,0.07c-0.396,0-0.709-0.113-0.938-0.338c-0.229-0.227-0.344-0.541-0.344-0.945V113.253z"/>
		<path fill="#D2D2D2" d="M221.655,113.253h1.025v6.938c0,0.226,0.061,0.402,0.181,0.531c0.121,0.127,0.29,0.191,0.508,0.191
			c0.085,0,0.187-0.014,0.303-0.041c0.117-0.026,0.226-0.06,0.327-0.099l0.163,0.828c-0.172,0.069-0.373,0.128-0.606,0.175
			s-0.439,0.07-0.618,0.07c-0.396,0-0.709-0.113-0.938-0.338c-0.229-0.227-0.344-0.541-0.344-0.945V113.253z"/>
		<path fill="#D2D2D2" d="M230.226,121.882c-0.459,0-0.877-0.086-1.254-0.258c-0.377-0.17-0.699-0.399-0.968-0.688
			c-0.268-0.287-0.476-0.621-0.623-1.002c-0.148-0.381-0.222-0.781-0.222-1.201c0-0.428,0.075-0.832,0.228-1.213
			c0.151-0.381,0.361-0.715,0.629-1.003c0.269-0.288,0.591-0.517,0.968-0.688c0.377-0.17,0.791-0.256,1.242-0.256
			s0.866,0.086,1.248,0.256c0.38,0.172,0.705,0.4,0.974,0.688c0.268,0.288,0.478,0.622,0.629,1.003
			c0.152,0.381,0.228,0.785,0.228,1.213c0,0.42-0.074,0.82-0.222,1.201s-0.357,0.715-0.629,1.002
			c-0.272,0.288-0.597,0.518-0.974,0.688C231.102,121.796,230.685,121.882,230.226,121.882z M228.208,118.745
			c0,0.318,0.053,0.613,0.158,0.886c0.104,0.272,0.248,0.509,0.431,0.712c0.183,0.201,0.396,0.361,0.642,0.478
			s0.507,0.175,0.787,0.175s0.542-0.059,0.787-0.175s0.461-0.278,0.647-0.483c0.187-0.207,0.332-0.447,0.437-0.724
			c0.105-0.276,0.158-0.573,0.158-0.892c0-0.311-0.053-0.604-0.158-0.881c-0.104-0.275-0.25-0.517-0.437-0.723
			s-0.402-0.367-0.647-0.484c-0.245-0.116-0.507-0.174-0.787-0.174s-0.542,0.06-0.787,0.18c-0.245,0.121-0.459,0.284-0.642,0.49
			s-0.326,0.447-0.431,0.723C228.261,118.129,228.208,118.427,228.208,118.745z"/>
		<path fill="#D2D2D2" d="M236.429,121.882c-0.638,0-1.119-0.215-1.445-0.643c-0.327-0.427-0.49-1.064-0.49-1.912v-3.648h1.026
			v3.451c0,1.243,0.432,1.865,1.294,1.865c0.42,0,0.814-0.135,1.184-0.402s0.644-0.635,0.822-1.102v-3.812h1.025v4.826
			c0,0.242,0.109,0.365,0.327,0.373v0.887c-0.117,0.016-0.208,0.025-0.274,0.029s-0.13,0.006-0.192,0.006
			c-0.202,0-0.371-0.061-0.507-0.181c-0.137-0.12-0.208-0.271-0.216-0.449l-0.023-0.712c-0.272,0.459-0.63,0.811-1.072,1.057
			C237.443,121.759,236.957,121.882,236.429,121.882z"/>
		<path fill="#D2D2D2" d="M244.706,121.462c-0.062,0.031-0.144,0.068-0.244,0.11c-0.102,0.043-0.216,0.085-0.344,0.128
			c-0.129,0.043-0.269,0.078-0.42,0.105c-0.152,0.027-0.31,0.041-0.473,0.041c-0.373,0-0.695-0.104-0.968-0.31
			s-0.408-0.526-0.408-0.962v-4.092h-0.828v-0.805h0.828v-2.029h1.026v2.029h1.364v0.805h-1.364v3.777
			c0.016,0.225,0.089,0.389,0.222,0.489c0.132,0.102,0.287,0.151,0.466,0.151c0.202,0,0.387-0.033,0.555-0.099
			c0.167-0.065,0.281-0.118,0.344-0.157L244.706,121.462z"/>
	</g>
	<path fill="none" stroke="#636C72" stroke-width="1.5" d="M100.761,68.479c0,6.262-5.077,11.339-11.338,11.339H24.548
		c-6.262,0-11.338-5.077-11.338-11.339V66.77c0-6.262,5.077-11.338,11.338-11.338h64.874c6.262,0,11.338,5.076,11.338,11.338V68.479
		z"/>
	<g>
		<path fill="#D2D2D2" d="M336.464,63.065h0.99l1.096,2.88l1.109-2.88h0.99l-1.434,3.603l1.422,3.417l2.799-7.066h1.143
			l-3.463,8.279h-0.91l-1.645-3.906l-1.654,3.906h-0.91l-3.451-8.279h1.131l2.811,7.066l1.41-3.417L336.464,63.065z"/>
		<path fill="#D2D2D2" d="M345.501,64.068v-1.283h1.025v1.283H345.501z M345.501,71.297V65.21h1.025v6.086H345.501z"/>
		<path fill="#D2D2D2" d="M353.464,71.297h-1.025v-3.405c0-0.653-0.1-1.127-0.299-1.422c-0.197-0.295-0.498-0.443-0.902-0.443
			c-0.211,0-0.42,0.041-0.631,0.123c-0.209,0.082-0.408,0.192-0.594,0.333c-0.188,0.14-0.35,0.307-0.49,0.501
			c-0.139,0.194-0.244,0.408-0.314,0.641v3.673h-1.025V65.21h0.932v1.306c0.242-0.427,0.59-0.77,1.045-1.026
			c0.453-0.256,0.949-0.385,1.486-0.385c0.35,0,0.641,0.064,0.873,0.192c0.234,0.128,0.42,0.307,0.561,0.536
			c0.141,0.229,0.238,0.5,0.297,0.811s0.088,0.649,0.088,1.015V71.297z"/>
		<path fill="#D2D2D2" d="M364.237,63.018l-5.598,8.279h-1.143l5.586-8.279H364.237z"/>
		<path fill="#D2D2D2" d="M368.366,62.785h1.025v6.938c0,0.226,0.061,0.402,0.18,0.531c0.121,0.128,0.291,0.192,0.508,0.192
			c0.086,0,0.188-0.014,0.303-0.041c0.117-0.027,0.227-0.06,0.328-0.099l0.162,0.828c-0.172,0.07-0.373,0.128-0.605,0.175
			c-0.234,0.046-0.439,0.07-0.619,0.07c-0.396,0-0.709-0.112-0.938-0.338c-0.23-0.226-0.344-0.541-0.344-0.945V62.785z"/>
		<path fill="#D2D2D2" d="M374.335,71.414c-0.459,0-0.877-0.086-1.254-0.257s-0.699-0.4-0.969-0.688
			c-0.268-0.288-0.475-0.622-0.623-1.003s-0.221-0.781-0.221-1.201c0-0.427,0.074-0.832,0.227-1.212s0.361-0.715,0.629-1.003
			c0.27-0.288,0.592-0.517,0.969-0.688c0.377-0.171,0.791-0.256,1.242-0.256s0.865,0.085,1.248,0.256
			c0.379,0.171,0.705,0.4,0.973,0.688s0.479,0.622,0.629,1.003c0.152,0.381,0.229,0.785,0.229,1.212c0,0.42-0.074,0.82-0.223,1.201
			c-0.146,0.381-0.357,0.715-0.629,1.003s-0.596,0.517-0.973,0.688C375.21,71.328,374.794,71.414,374.335,71.414z M372.317,68.277
			c0,0.319,0.053,0.614,0.158,0.886c0.104,0.272,0.248,0.509,0.43,0.711c0.184,0.202,0.396,0.361,0.643,0.478
			c0.244,0.117,0.506,0.175,0.787,0.175c0.279,0,0.541-0.058,0.787-0.175c0.244-0.117,0.461-0.278,0.646-0.484
			c0.188-0.206,0.332-0.447,0.438-0.723s0.158-0.573,0.158-0.892c0-0.311-0.053-0.604-0.158-0.88
			c-0.105-0.275-0.25-0.517-0.438-0.723c-0.186-0.206-0.402-0.367-0.646-0.484c-0.246-0.117-0.508-0.175-0.787-0.175
			c-0.281,0-0.543,0.06-0.787,0.181c-0.246,0.121-0.459,0.284-0.643,0.49c-0.182,0.206-0.326,0.447-0.43,0.723
			C372.37,67.661,372.317,67.958,372.317,68.277z"/>
		<path fill="#D2D2D2" d="M380.794,71.414c-0.49,0-0.971-0.076-1.445-0.228c-0.475-0.151-0.883-0.371-1.225-0.659l0.443-0.688
			c0.357,0.272,0.715,0.476,1.072,0.612c0.357,0.136,0.734,0.204,1.131,0.204c0.443,0,0.795-0.087,1.055-0.263
			c0.262-0.175,0.391-0.421,0.391-0.74c0-0.147-0.033-0.274-0.104-0.379s-0.176-0.196-0.314-0.274
			c-0.141-0.078-0.32-0.148-0.537-0.21c-0.219-0.062-0.471-0.128-0.758-0.198c-0.365-0.093-0.68-0.183-0.945-0.268
			c-0.264-0.085-0.482-0.187-0.652-0.303c-0.172-0.117-0.295-0.257-0.373-0.42s-0.117-0.365-0.117-0.606
			c0-0.303,0.061-0.573,0.182-0.81c0.119-0.237,0.285-0.436,0.496-0.595c0.209-0.159,0.455-0.28,0.74-0.361
			c0.283-0.082,0.588-0.123,0.914-0.123c0.459,0,0.887,0.074,1.283,0.222c0.396,0.147,0.73,0.342,1.002,0.583l-0.465,0.618
			c-0.258-0.225-0.545-0.395-0.863-0.507c-0.318-0.112-0.646-0.169-0.98-0.169c-0.373,0-0.689,0.08-0.949,0.239
			c-0.262,0.159-0.391,0.414-0.391,0.764c0,0.14,0.025,0.256,0.076,0.35c0.049,0.093,0.133,0.175,0.25,0.245
			c0.117,0.07,0.266,0.132,0.449,0.187c0.182,0.054,0.402,0.113,0.658,0.175c0.404,0.093,0.756,0.188,1.055,0.286
			s0.549,0.212,0.746,0.344c0.199,0.132,0.346,0.288,0.443,0.467s0.146,0.396,0.146,0.653c0,0.567-0.219,1.019-0.652,1.353
			C382.12,71.247,381.532,71.414,380.794,71.414z"/>
		<path fill="#D2D2D2" d="M387.114,71.414c-0.459,0-0.879-0.083-1.26-0.251c-0.381-0.167-0.707-0.394-0.98-0.682
			c-0.271-0.287-0.482-0.624-0.635-1.008s-0.227-0.791-0.227-1.219c0-0.427,0.074-0.832,0.227-1.212s0.365-0.715,0.641-1.003
			c0.277-0.288,0.605-0.515,0.986-0.682c0.381-0.167,0.801-0.25,1.26-0.25c0.457,0,0.875,0.085,1.252,0.256
			c0.377,0.171,0.699,0.398,0.963,0.682c0.264,0.284,0.469,0.614,0.611,0.991c0.145,0.377,0.217,0.768,0.217,1.172
			c0,0.085-0.002,0.163-0.006,0.233c-0.004,0.07-0.01,0.125-0.018,0.164h-5.049c0.023,0.303,0.094,0.579,0.209,0.828
			c0.117,0.249,0.27,0.463,0.455,0.642c0.188,0.179,0.398,0.319,0.637,0.419c0.236,0.101,0.486,0.152,0.752,0.152
			c0.186,0,0.369-0.025,0.547-0.076c0.18-0.051,0.346-0.119,0.502-0.204c0.154-0.085,0.293-0.19,0.414-0.315
			c0.119-0.125,0.211-0.264,0.273-0.42l0.887,0.245c-0.102,0.226-0.24,0.431-0.414,0.618c-0.176,0.187-0.377,0.348-0.607,0.484
			c-0.229,0.136-0.482,0.243-0.764,0.321C387.708,71.375,387.417,71.414,387.114,71.414z M389.2,67.846
			c-0.023-0.288-0.096-0.554-0.215-0.799c-0.121-0.245-0.273-0.453-0.455-0.624c-0.184-0.171-0.395-0.305-0.635-0.402
			c-0.242-0.097-0.498-0.146-0.77-0.146c-0.273,0-0.529,0.049-0.77,0.146c-0.242,0.098-0.453,0.233-0.637,0.408
			c-0.182,0.175-0.33,0.383-0.443,0.624c-0.111,0.241-0.18,0.505-0.203,0.793H389.2z"/>
	</g>
	<path fill="none" stroke="#636C72" stroke-width="1.5" d="M405.237,68.479c0,6.262-5.076,11.338-11.338,11.338h-64.875
		c-6.262,0-11.338-5.076-11.338-11.338v-1.709c0-6.262,5.076-11.339,11.338-11.339h64.875c6.262,0,11.338,5.077,11.338,11.339
		V68.479z"/>
	<path fill="none" stroke="#636C72" stroke-width="1.5" d="M256.963,15.731c0,6.262-5.076,11.338-11.339,11.338h-73.823
		c-6.262,0-11.338-5.077-11.338-11.338v-1.358c0-6.262,5.077-11.338,11.338-11.338h73.823c6.263,0,11.339,5.077,11.339,11.338
		V15.731z"/>
	<path fill="none" stroke="#636C72" stroke-width="1.5" d="M256.963,118.771c0,6.262-5.076,11.339-11.339,11.339h-73.823
		c-6.262,0-11.338-5.077-11.338-11.339v-1.357c0-6.262,5.077-11.339,11.338-11.339h73.823c6.263,0,11.339,5.077,11.339,11.339
		V118.771z"/>
</g>
<g id="layer2">
	<g>
		<path fill="#F0AD4E" d="M165.197,39.648c-0.089-0.103-0.207-0.203-0.354-0.299s-0.313-0.183-0.498-0.26
			c-0.185-0.078-0.387-0.14-0.604-0.188c-0.219-0.048-0.445-0.072-0.682-0.072c-0.613,0-1.062,0.114-1.346,0.343
			s-0.427,0.542-0.427,0.941c0,0.214,0.041,0.392,0.122,0.532c0.081,0.141,0.208,0.26,0.382,0.36s0.39,0.187,0.648,0.26
			c0.258,0.074,0.564,0.152,0.919,0.233c0.406,0.088,0.773,0.19,1.103,0.305c0.328,0.114,0.609,0.256,0.842,0.426
			s0.41,0.376,0.531,0.62c0.122,0.244,0.183,0.543,0.183,0.897c0,0.376-0.073,0.704-0.221,0.98c-0.148,0.277-0.35,0.506-0.604,0.687
			c-0.254,0.181-0.556,0.314-0.902,0.399c-0.348,0.085-0.724,0.127-1.13,0.127c-0.605,0-1.18-0.094-1.723-0.283
			c-0.543-0.188-1.035-0.463-1.479-0.825l0.477-0.842c0.118,0.125,0.271,0.251,0.459,0.376c0.188,0.126,0.402,0.238,0.643,0.338
			c0.24,0.1,0.499,0.181,0.775,0.244c0.277,0.063,0.567,0.094,0.87,0.094c0.561,0,0.997-0.1,1.307-0.299
			c0.311-0.2,0.466-0.499,0.466-0.897c0-0.222-0.05-0.408-0.15-0.559c-0.1-0.151-0.245-0.283-0.438-0.394
			c-0.191-0.111-0.43-0.208-0.714-0.293s-0.607-0.172-0.97-0.26c-0.398-0.096-0.749-0.199-1.052-0.31s-0.556-0.244-0.759-0.399
			s-0.356-0.343-0.46-0.565s-0.155-0.487-0.155-0.797c0-0.377,0.07-0.709,0.211-0.997c0.14-0.288,0.336-0.532,0.587-0.731
			c0.251-0.2,0.55-0.349,0.897-0.449c0.347-0.1,0.724-0.149,1.13-0.149c0.531,0,1.012,0.081,1.439,0.244
			c0.429,0.163,0.809,0.38,1.142,0.653L165.197,39.648z"/>
		<path fill="#F0AD4E" d="M170.049,45.575c-0.06,0.03-0.137,0.065-0.232,0.105c-0.097,0.041-0.205,0.081-0.327,0.122
			c-0.122,0.041-0.255,0.074-0.398,0.1c-0.145,0.026-0.294,0.039-0.449,0.039c-0.354,0-0.66-0.098-0.919-0.293
			s-0.388-0.5-0.388-0.914v-3.888h-0.786v-0.764h0.786v-1.927h0.975v1.927h1.296v0.764h-1.296v3.589
			c0.015,0.214,0.085,0.369,0.211,0.465c0.125,0.096,0.272,0.144,0.442,0.144c0.192,0,0.367-0.031,0.526-0.094
			c0.159-0.062,0.268-0.112,0.327-0.149L170.049,45.575z"/>
		<path fill="#F0AD4E" d="M174.015,40.934c-0.487,0.015-0.918,0.14-1.29,0.376c-0.373,0.236-0.638,0.565-0.792,0.986v3.567h-0.976
			v-5.782h0.908v1.34c0.2-0.399,0.462-0.722,0.787-0.969c0.324-0.247,0.672-0.386,1.041-0.416c0.074,0,0.137,0,0.188,0
			s0.096,0.004,0.133,0.011V40.934z"/>
		<path fill="#F0AD4E" d="M177.371,45.974c-0.437,0-0.833-0.082-1.191-0.244c-0.358-0.163-0.664-0.38-0.919-0.654
			c-0.255-0.273-0.453-0.59-0.593-0.953c-0.141-0.361-0.211-0.742-0.211-1.141c0-0.406,0.072-0.79,0.217-1.152
			c0.144-0.361,0.343-0.679,0.598-0.953c0.255-0.273,0.562-0.491,0.919-0.653c0.358-0.163,0.752-0.244,1.181-0.244
			c0.428,0,0.823,0.081,1.185,0.244c0.362,0.163,0.67,0.38,0.925,0.653c0.255,0.273,0.454,0.591,0.599,0.953
			c0.144,0.362,0.216,0.746,0.216,1.152c0,0.398-0.07,0.779-0.21,1.141c-0.141,0.362-0.34,0.68-0.599,0.953
			c-0.259,0.273-0.566,0.491-0.925,0.654C178.203,45.892,177.807,45.974,177.371,45.974z M175.454,42.994
			c0,0.303,0.05,0.583,0.149,0.842c0.1,0.258,0.236,0.483,0.41,0.675c0.174,0.192,0.377,0.344,0.609,0.454
			c0.232,0.111,0.481,0.167,0.748,0.167c0.266,0,0.515-0.056,0.747-0.167c0.232-0.11,0.438-0.264,0.615-0.459
			c0.177-0.196,0.315-0.424,0.415-0.687c0.1-0.262,0.149-0.544,0.149-0.847c0-0.295-0.05-0.574-0.149-0.836
			c-0.1-0.262-0.238-0.491-0.415-0.687c-0.178-0.196-0.383-0.349-0.615-0.46s-0.481-0.166-0.747-0.166
			c-0.267,0-0.516,0.057-0.748,0.172c-0.232,0.114-0.436,0.27-0.609,0.465c-0.174,0.196-0.311,0.425-0.41,0.687
			S175.454,42.691,175.454,42.994z"/>
		<path fill="#F0AD4E" d="M186.499,45.863h-0.976v-3.234c0-0.621-0.094-1.071-0.282-1.352c-0.188-0.28-0.475-0.421-0.858-0.421
			c-0.199,0-0.398,0.039-0.598,0.116c-0.2,0.078-0.388,0.183-0.565,0.316c-0.177,0.133-0.332,0.292-0.465,0.476
			c-0.133,0.185-0.232,0.388-0.299,0.609v3.489h-0.976v-5.782h0.887v1.241c0.229-0.406,0.56-0.731,0.991-0.975
			c0.432-0.244,0.902-0.366,1.412-0.366c0.332,0,0.609,0.061,0.831,0.183c0.222,0.122,0.398,0.292,0.531,0.51
			s0.228,0.475,0.283,0.77c0.055,0.295,0.083,0.617,0.083,0.964V45.863z"/>
		<path fill="#F0AD4E" d="M190.32,45.929c-0.392,0-0.752-0.081-1.08-0.244c-0.329-0.162-0.611-0.38-0.848-0.653
			c-0.236-0.273-0.419-0.587-0.548-0.942c-0.13-0.354-0.194-0.724-0.194-1.107c0-0.406,0.064-0.792,0.194-1.158
			c0.129-0.366,0.312-0.685,0.548-0.958c0.236-0.273,0.519-0.489,0.848-0.648c0.328-0.159,0.692-0.238,1.091-0.238
			c0.487,0,0.908,0.118,1.263,0.354s0.653,0.536,0.897,0.897v-1.152h0.864v5.716c0,0.414-0.078,0.777-0.233,1.091
			c-0.154,0.314-0.365,0.578-0.631,0.792c-0.266,0.214-0.578,0.377-0.937,0.488c-0.357,0.11-0.74,0.166-1.146,0.166
			c-0.657,0-1.19-0.113-1.601-0.338c-0.409-0.226-0.751-0.537-1.024-0.936l0.565-0.499c0.229,0.34,0.523,0.594,0.886,0.765
			c0.361,0.169,0.753,0.254,1.174,0.254c0.267,0,0.52-0.037,0.759-0.111c0.24-0.074,0.449-0.185,0.626-0.332
			c0.178-0.148,0.319-0.333,0.427-0.554c0.106-0.222,0.16-0.484,0.16-0.787v-1.019c-0.11,0.177-0.241,0.338-0.393,0.482
			s-0.316,0.266-0.493,0.365s-0.365,0.176-0.564,0.227C190.729,45.903,190.526,45.929,190.32,45.929z M190.619,45.132
			c0.207,0,0.406-0.037,0.598-0.111c0.192-0.074,0.369-0.172,0.532-0.293c0.162-0.122,0.299-0.26,0.41-0.416
			c0.11-0.155,0.184-0.314,0.221-0.476v-1.662c-0.081-0.2-0.187-0.38-0.315-0.543c-0.129-0.162-0.275-0.305-0.438-0.426
			c-0.162-0.122-0.338-0.216-0.526-0.283s-0.378-0.1-0.57-0.1c-0.295,0-0.56,0.063-0.792,0.188s-0.43,0.292-0.593,0.499
			c-0.162,0.207-0.288,0.441-0.376,0.703c-0.089,0.262-0.133,0.526-0.133,0.792c0,0.288,0.051,0.562,0.154,0.82
			s0.244,0.484,0.421,0.676c0.178,0.192,0.386,0.345,0.626,0.459C190.078,45.075,190.338,45.132,190.619,45.132z"/>
		<path fill="#F0AD4E" d="M197.487,45.974c-0.437,0-0.835-0.08-1.196-0.238c-0.362-0.159-0.673-0.375-0.931-0.648
			c-0.259-0.273-0.46-0.593-0.604-0.958c-0.145-0.366-0.217-0.751-0.217-1.158s0.072-0.79,0.217-1.152
			c0.144-0.362,0.347-0.68,0.608-0.953c0.263-0.273,0.574-0.489,0.937-0.648c0.361-0.159,0.761-0.238,1.196-0.238
			s0.832,0.081,1.19,0.244s0.663,0.378,0.914,0.648s0.445,0.583,0.582,0.941c0.136,0.358,0.204,0.729,0.204,1.113
			c0,0.082-0.002,0.155-0.005,0.222c-0.004,0.066-0.01,0.118-0.017,0.155h-4.797c0.022,0.288,0.089,0.55,0.199,0.786
			c0.111,0.236,0.255,0.439,0.433,0.609c0.177,0.17,0.378,0.303,0.604,0.399c0.226,0.096,0.463,0.144,0.715,0.144
			c0.177,0,0.351-0.024,0.521-0.072c0.17-0.048,0.328-0.112,0.476-0.194c0.148-0.081,0.279-0.181,0.394-0.299
			s0.201-0.251,0.261-0.399l0.842,0.232c-0.097,0.214-0.228,0.41-0.394,0.587s-0.358,0.331-0.576,0.459
			c-0.218,0.129-0.46,0.231-0.726,0.305S197.774,45.974,197.487,45.974z M199.47,42.584c-0.022-0.273-0.091-0.526-0.205-0.759
			s-0.259-0.43-0.432-0.593c-0.174-0.162-0.375-0.29-0.604-0.382c-0.229-0.092-0.474-0.139-0.731-0.139
			c-0.259,0-0.502,0.046-0.731,0.139c-0.229,0.092-0.43,0.221-0.604,0.388c-0.174,0.166-0.313,0.364-0.421,0.592
			c-0.107,0.229-0.172,0.48-0.193,0.753H199.47z"/>
		<path fill="#F0AD4E" d="M204.531,40.934c-0.487,0.015-0.918,0.14-1.29,0.376c-0.373,0.236-0.638,0.565-0.792,0.986v3.567h-0.976
			v-5.782h0.908v1.34c0.2-0.399,0.462-0.722,0.787-0.969c0.324-0.247,0.672-0.386,1.041-0.416c0.074,0,0.137,0,0.188,0
			s0.096,0.004,0.133,0.011V40.934z"/>
		<path fill="#F0AD4E" d="M210.568,45.974c-0.437,0-0.833-0.082-1.191-0.244c-0.358-0.163-0.664-0.38-0.919-0.654
			c-0.255-0.273-0.453-0.59-0.593-0.953c-0.141-0.361-0.211-0.742-0.211-1.141c0-0.406,0.072-0.79,0.217-1.152
			c0.144-0.361,0.343-0.679,0.598-0.953c0.255-0.273,0.562-0.491,0.919-0.653c0.358-0.163,0.752-0.244,1.181-0.244
			c0.428,0,0.823,0.081,1.185,0.244c0.362,0.163,0.67,0.38,0.925,0.653c0.255,0.273,0.454,0.591,0.599,0.953
			c0.144,0.362,0.216,0.746,0.216,1.152c0,0.398-0.07,0.779-0.21,1.141c-0.141,0.362-0.34,0.68-0.599,0.953
			c-0.259,0.273-0.566,0.491-0.925,0.654C211.4,45.892,211.004,45.974,210.568,45.974z M208.651,42.994
			c0,0.303,0.05,0.583,0.149,0.842c0.1,0.258,0.236,0.483,0.41,0.675c0.174,0.192,0.377,0.344,0.609,0.454
			c0.232,0.111,0.481,0.167,0.748,0.167c0.266,0,0.515-0.056,0.747-0.167c0.232-0.11,0.438-0.264,0.615-0.459
			c0.177-0.196,0.315-0.424,0.415-0.687c0.1-0.262,0.149-0.544,0.149-0.847c0-0.295-0.05-0.574-0.149-0.836
			c-0.1-0.262-0.238-0.491-0.415-0.687c-0.178-0.196-0.383-0.349-0.615-0.46s-0.481-0.166-0.747-0.166
			c-0.267,0-0.516,0.057-0.748,0.172c-0.232,0.114-0.436,0.27-0.609,0.465c-0.174,0.196-0.311,0.425-0.41,0.687
			S208.651,42.691,208.651,42.994z"/>
		<path fill="#F0AD4E" d="M217.791,45.974c-0.48,0-0.903-0.118-1.269-0.354s-0.655-0.535-0.869-0.897v3.5h-0.976v-8.142h0.864v1.085
			c0.229-0.354,0.526-0.641,0.892-0.858s0.771-0.327,1.213-0.327c0.399,0,0.765,0.081,1.097,0.244s0.62,0.382,0.864,0.659
			c0.243,0.277,0.434,0.596,0.57,0.958s0.205,0.739,0.205,1.13c0,0.414-0.062,0.803-0.188,1.168
			c-0.126,0.366-0.303,0.683-0.531,0.953c-0.229,0.27-0.503,0.484-0.82,0.643S218.175,45.974,217.791,45.974z M217.491,45.132
			c0.288,0,0.549-0.061,0.781-0.183c0.232-0.122,0.432-0.284,0.599-0.487c0.166-0.203,0.293-0.434,0.382-0.692
			c0.089-0.258,0.133-0.524,0.133-0.797c0-0.288-0.052-0.563-0.155-0.825s-0.243-0.491-0.421-0.687
			c-0.177-0.195-0.386-0.351-0.626-0.465c-0.239-0.115-0.5-0.172-0.78-0.172c-0.178,0-0.36,0.035-0.549,0.105
			c-0.188,0.07-0.365,0.162-0.531,0.277c-0.166,0.114-0.311,0.251-0.433,0.41c-0.121,0.159-0.201,0.327-0.237,0.504v1.65
			c0.081,0.192,0.184,0.371,0.31,0.538c0.126,0.166,0.27,0.31,0.432,0.432c0.163,0.122,0.336,0.218,0.521,0.288
			C217.101,45.097,217.292,45.132,217.491,45.132z"/>
		<path fill="#F0AD4E" d="M224.691,45.974c-0.48,0-0.903-0.118-1.269-0.354s-0.655-0.535-0.869-0.897v3.5h-0.976v-8.142h0.864v1.085
			c0.229-0.354,0.526-0.641,0.892-0.858s0.771-0.327,1.213-0.327c0.399,0,0.765,0.081,1.097,0.244s0.62,0.382,0.864,0.659
			c0.243,0.277,0.434,0.596,0.57,0.958s0.205,0.739,0.205,1.13c0,0.414-0.062,0.803-0.188,1.168
			c-0.126,0.366-0.303,0.683-0.531,0.953c-0.229,0.27-0.503,0.484-0.82,0.643S225.075,45.974,224.691,45.974z M224.392,45.132
			c0.288,0,0.549-0.061,0.781-0.183c0.232-0.122,0.432-0.284,0.599-0.487c0.166-0.203,0.293-0.434,0.382-0.692
			c0.089-0.258,0.133-0.524,0.133-0.797c0-0.288-0.052-0.563-0.155-0.825s-0.243-0.491-0.421-0.687
			c-0.177-0.195-0.386-0.351-0.626-0.465c-0.239-0.115-0.5-0.172-0.78-0.172c-0.178,0-0.36,0.035-0.549,0.105
			c-0.188,0.07-0.365,0.162-0.531,0.277c-0.166,0.114-0.311,0.251-0.433,0.41c-0.121,0.159-0.201,0.327-0.237,0.504v1.65
			c0.081,0.192,0.184,0.371,0.31,0.538c0.126,0.166,0.27,0.31,0.432,0.432c0.163,0.122,0.336,0.218,0.521,0.288
			C224.001,45.097,224.192,45.132,224.392,45.132z"/>
		<path fill="#F0AD4E" d="M231.005,45.974c-0.437,0-0.833-0.082-1.191-0.244c-0.358-0.163-0.664-0.38-0.919-0.654
			c-0.255-0.273-0.453-0.59-0.593-0.953c-0.141-0.361-0.211-0.742-0.211-1.141c0-0.406,0.072-0.79,0.217-1.152
			c0.144-0.361,0.343-0.679,0.598-0.953c0.255-0.273,0.562-0.491,0.919-0.653c0.358-0.163,0.752-0.244,1.181-0.244
			c0.428,0,0.823,0.081,1.185,0.244c0.362,0.163,0.67,0.38,0.925,0.653c0.255,0.273,0.454,0.591,0.599,0.953
			c0.144,0.362,0.216,0.746,0.216,1.152c0,0.398-0.07,0.779-0.21,1.141c-0.141,0.362-0.34,0.68-0.599,0.953
			c-0.259,0.273-0.566,0.491-0.925,0.654C231.837,45.892,231.44,45.974,231.005,45.974z M229.088,42.994
			c0,0.303,0.05,0.583,0.149,0.842c0.1,0.258,0.236,0.483,0.41,0.675c0.174,0.192,0.377,0.344,0.609,0.454
			c0.232,0.111,0.481,0.167,0.748,0.167c0.266,0,0.515-0.056,0.747-0.167c0.232-0.11,0.438-0.264,0.615-0.459
			c0.177-0.196,0.315-0.424,0.415-0.687c0.1-0.262,0.149-0.544,0.149-0.847c0-0.295-0.05-0.574-0.149-0.836
			c-0.1-0.262-0.238-0.491-0.415-0.687c-0.178-0.196-0.383-0.349-0.615-0.46s-0.481-0.166-0.747-0.166
			c-0.267,0-0.516,0.057-0.748,0.172c-0.232,0.114-0.436,0.27-0.609,0.465c-0.174,0.196-0.311,0.425-0.41,0.687
			S229.088,42.691,229.088,42.994z"/>
		<path fill="#F0AD4E" d="M240.133,45.863h-0.976v-3.234c0-0.621-0.094-1.071-0.282-1.352c-0.188-0.28-0.475-0.421-0.858-0.421
			c-0.199,0-0.398,0.039-0.598,0.116c-0.2,0.078-0.388,0.183-0.565,0.316c-0.177,0.133-0.332,0.292-0.465,0.476
			c-0.133,0.185-0.232,0.388-0.299,0.609v3.489h-0.976v-5.782h0.887v1.241c0.229-0.406,0.56-0.731,0.991-0.975
			c0.432-0.244,0.902-0.366,1.412-0.366c0.332,0,0.609,0.061,0.831,0.183c0.222,0.122,0.398,0.292,0.531,0.51
			s0.228,0.475,0.283,0.77c0.055,0.295,0.083,0.617,0.083,0.964V45.863z"/>
		<path fill="#F0AD4E" d="M244.209,45.974c-0.437,0-0.835-0.08-1.196-0.238c-0.362-0.159-0.673-0.375-0.931-0.648
			c-0.259-0.273-0.46-0.593-0.604-0.958c-0.145-0.366-0.217-0.751-0.217-1.158s0.072-0.79,0.217-1.152
			c0.144-0.362,0.347-0.68,0.608-0.953c0.263-0.273,0.574-0.489,0.937-0.648c0.361-0.159,0.761-0.238,1.196-0.238
			s0.832,0.081,1.19,0.244s0.663,0.378,0.914,0.648s0.445,0.583,0.582,0.941c0.136,0.358,0.204,0.729,0.204,1.113
			c0,0.082-0.002,0.155-0.005,0.222c-0.004,0.066-0.01,0.118-0.017,0.155h-4.797c0.022,0.288,0.089,0.55,0.199,0.786
			c0.111,0.236,0.255,0.439,0.433,0.609c0.177,0.17,0.378,0.303,0.604,0.399c0.226,0.096,0.463,0.144,0.715,0.144
			c0.177,0,0.351-0.024,0.521-0.072c0.17-0.048,0.328-0.112,0.476-0.194c0.148-0.081,0.279-0.181,0.394-0.299
			s0.201-0.251,0.261-0.399l0.842,0.232c-0.097,0.214-0.228,0.41-0.394,0.587s-0.358,0.331-0.576,0.459
			c-0.218,0.129-0.46,0.231-0.726,0.305S244.496,45.974,244.209,45.974z M246.191,42.584c-0.022-0.273-0.091-0.526-0.205-0.759
			s-0.259-0.43-0.432-0.593c-0.174-0.162-0.375-0.29-0.604-0.382c-0.229-0.092-0.474-0.139-0.731-0.139
			c-0.259,0-0.502,0.046-0.731,0.139c-0.229,0.092-0.43,0.221-0.604,0.388c-0.174,0.166-0.313,0.364-0.421,0.592
			c-0.107,0.229-0.172,0.48-0.193,0.753H246.191z"/>
		<path fill="#F0AD4E" d="M253.215,45.863h-0.976v-3.234c0-0.621-0.094-1.071-0.282-1.352c-0.188-0.28-0.475-0.421-0.858-0.421
			c-0.199,0-0.398,0.039-0.598,0.116c-0.2,0.078-0.388,0.183-0.565,0.316c-0.177,0.133-0.332,0.292-0.465,0.476
			c-0.133,0.185-0.232,0.388-0.299,0.609v3.489h-0.976v-5.782h0.887v1.241c0.229-0.406,0.56-0.731,0.991-0.975
			c0.432-0.244,0.902-0.366,1.412-0.366c0.332,0,0.609,0.061,0.831,0.183c0.222,0.122,0.398,0.292,0.531,0.51
			s0.228,0.475,0.283,0.77c0.055,0.295,0.083,0.617,0.083,0.964V45.863z"/>
		<path fill="#F0AD4E" d="M257.667,45.575c-0.06,0.03-0.137,0.065-0.232,0.105c-0.097,0.041-0.205,0.081-0.327,0.122
			c-0.122,0.041-0.255,0.074-0.398,0.1c-0.145,0.026-0.294,0.039-0.449,0.039c-0.354,0-0.66-0.098-0.919-0.293
			s-0.388-0.5-0.388-0.914v-3.888h-0.786v-0.764h0.786v-1.927h0.975v1.927h1.296v0.764h-1.296v3.589
			c0.015,0.214,0.085,0.369,0.211,0.465c0.125,0.096,0.272,0.144,0.442,0.144c0.192,0,0.367-0.031,0.526-0.094
			c0.159-0.062,0.268-0.112,0.327-0.149L257.667,45.575z"/>
	</g>
	<g>
		<path fill="#F0AD4E" d="M166.1,86.146h0.941l1.042,2.735l1.052-2.735h0.941l-1.362,3.423l1.352,3.246l2.658-6.713h1.086
			l-3.29,7.864h-0.864l-1.562-3.711l-1.573,3.711h-0.863l-3.279-7.864h1.074l2.67,6.713l1.34-3.246L166.1,86.146z"/>
		<path fill="#F0AD4E" d="M176.491,94.077c-0.437,0-0.835-0.079-1.196-0.238c-0.362-0.158-0.673-0.374-0.931-0.647
			c-0.259-0.272-0.46-0.593-0.604-0.958c-0.145-0.365-0.217-0.752-0.217-1.158s0.072-0.789,0.217-1.151
			c0.144-0.362,0.347-0.68,0.608-0.952c0.263-0.273,0.574-0.49,0.937-0.648c0.361-0.158,0.761-0.238,1.196-0.238
			s0.832,0.081,1.19,0.244c0.358,0.162,0.663,0.378,0.914,0.647s0.445,0.583,0.582,0.941c0.136,0.358,0.204,0.729,0.204,1.113
			c0,0.081-0.002,0.155-0.005,0.222c-0.004,0.066-0.01,0.118-0.017,0.155h-4.797c0.022,0.288,0.089,0.55,0.199,0.786
			c0.111,0.236,0.255,0.439,0.433,0.609c0.177,0.17,0.378,0.303,0.604,0.398s0.463,0.145,0.715,0.145
			c0.177,0,0.351-0.023,0.521-0.072c0.17-0.048,0.328-0.112,0.476-0.193c0.148-0.082,0.279-0.182,0.394-0.299
			c0.114-0.119,0.201-0.252,0.261-0.399l0.842,0.232c-0.097,0.214-0.228,0.41-0.394,0.587c-0.166,0.178-0.358,0.331-0.576,0.46
			c-0.218,0.13-0.46,0.231-0.726,0.305S176.778,94.077,176.491,94.077z M178.473,90.688c-0.022-0.273-0.091-0.527-0.205-0.76
			s-0.259-0.43-0.432-0.592c-0.174-0.162-0.375-0.29-0.604-0.383c-0.229-0.092-0.474-0.139-0.731-0.139
			c-0.259,0-0.502,0.047-0.731,0.139c-0.229,0.093-0.43,0.222-0.604,0.389c-0.174,0.166-0.313,0.363-0.421,0.592
			s-0.172,0.48-0.193,0.754H178.473z"/>
		<path fill="#F0AD4E" d="M181.962,94.077c-0.273,0-0.527-0.046-0.764-0.139c-0.236-0.092-0.441-0.219-0.615-0.381
			c-0.174-0.163-0.311-0.354-0.41-0.571s-0.149-0.456-0.149-0.714c0-0.266,0.06-0.508,0.178-0.727
			c0.118-0.217,0.286-0.404,0.504-0.559c0.218-0.155,0.477-0.277,0.775-0.365c0.299-0.09,0.626-0.133,0.98-0.133
			c0.28,0,0.564,0.025,0.853,0.076c0.288,0.053,0.543,0.123,0.765,0.211v-0.465c0-0.473-0.133-0.844-0.399-1.113
			c-0.266-0.27-0.642-0.404-1.13-0.404c-0.583,0-1.196,0.225-1.838,0.676l-0.321-0.631c0.745-0.503,1.495-0.754,2.248-0.754
			c0.761,0,1.354,0.203,1.778,0.609c0.424,0.406,0.637,0.979,0.637,1.717v2.359c0,0.229,0.104,0.348,0.311,0.354v0.842
			c-0.104,0.015-0.188,0.026-0.255,0.033s-0.137,0.011-0.211,0.011c-0.192,0-0.345-0.057-0.46-0.172
			c-0.114-0.113-0.183-0.252-0.204-0.415l-0.022-0.409c-0.259,0.347-0.586,0.611-0.98,0.791
			C182.835,93.987,182.413,94.077,181.962,94.077z M182.217,93.347c0.348,0,0.67-0.064,0.97-0.193
			c0.299-0.13,0.525-0.301,0.681-0.516c0.141-0.141,0.211-0.284,0.211-0.432v-0.854c-0.473-0.185-0.964-0.277-1.474-0.277
			c-0.487,0-0.884,0.104-1.19,0.311s-0.46,0.477-0.46,0.809c0,0.162,0.031,0.314,0.094,0.454c0.063,0.141,0.151,0.263,0.267,0.366
			c0.114,0.104,0.249,0.184,0.404,0.243S182.041,93.347,182.217,93.347z"/>
		<path fill="#F0AD4E" d="M190.692,93.967l-1.994-2.825l-1.107,1.042v1.783h-0.976V85.88h0.976v5.318l2.968-3.002h1.075
			l-2.305,2.393l2.415,3.378H190.692z"/>
		<path fill="#F0AD4E" d="M194.845,94.077c-0.436,0-0.834-0.079-1.196-0.238c-0.362-0.158-0.673-0.374-0.931-0.647
			c-0.259-0.272-0.46-0.593-0.604-0.958c-0.145-0.365-0.217-0.752-0.217-1.158s0.072-0.789,0.217-1.151
			c0.144-0.362,0.347-0.68,0.608-0.952c0.263-0.273,0.574-0.49,0.937-0.648c0.361-0.158,0.761-0.238,1.197-0.238
			s0.832,0.081,1.189,0.244c0.359,0.162,0.664,0.378,0.914,0.647c0.252,0.27,0.445,0.583,0.582,0.941s0.205,0.729,0.205,1.113
			c0,0.081-0.002,0.155-0.006,0.222s-0.01,0.118-0.016,0.155h-4.797c0.022,0.288,0.089,0.55,0.199,0.786
			c0.111,0.236,0.255,0.439,0.433,0.609c0.177,0.17,0.378,0.303,0.603,0.398c0.227,0.096,0.463,0.145,0.715,0.145
			c0.178,0,0.352-0.023,0.521-0.072c0.17-0.048,0.328-0.112,0.475-0.193c0.148-0.082,0.279-0.182,0.395-0.299
			c0.113-0.119,0.201-0.252,0.26-0.399l0.842,0.232c-0.096,0.214-0.227,0.41-0.393,0.587c-0.166,0.178-0.359,0.331-0.576,0.46
			c-0.219,0.13-0.461,0.231-0.727,0.305S195.132,94.077,194.845,94.077z M196.827,90.688c-0.021-0.273-0.09-0.527-0.205-0.76
			c-0.113-0.232-0.258-0.43-0.432-0.592s-0.375-0.29-0.604-0.383c-0.229-0.092-0.473-0.139-0.73-0.139
			c-0.26,0-0.502,0.047-0.732,0.139c-0.229,0.093-0.429,0.222-0.603,0.389c-0.174,0.166-0.313,0.363-0.421,0.592
			s-0.172,0.48-0.193,0.754H196.827z"/>
		<path fill="#F0AD4E" d="M201.89,89.038c-0.486,0.014-0.918,0.14-1.289,0.376c-0.373,0.236-0.639,0.565-0.793,0.985v3.567h-0.975
			v-5.782h0.908v1.34c0.199-0.398,0.461-0.721,0.787-0.969c0.324-0.247,0.672-0.386,1.041-0.416c0.074,0,0.137,0,0.188,0
			c0.053,0,0.096,0.004,0.133,0.012V89.038z"/>
		<path fill="#F0AD4E" d="M207.927,94.077c-0.436,0-0.832-0.081-1.191-0.243c-0.357-0.163-0.664-0.38-0.918-0.653
			c-0.256-0.273-0.453-0.591-0.594-0.953c-0.141-0.361-0.211-0.742-0.211-1.141c0-0.406,0.072-0.79,0.217-1.152
			c0.145-0.361,0.344-0.68,0.598-0.953c0.256-0.272,0.562-0.49,0.92-0.652c0.357-0.163,0.752-0.244,1.18-0.244
			s0.824,0.081,1.186,0.244c0.361,0.162,0.67,0.38,0.924,0.652c0.256,0.273,0.455,0.592,0.6,0.953
			c0.143,0.362,0.215,0.746,0.215,1.152c0,0.398-0.07,0.779-0.209,1.141c-0.141,0.362-0.34,0.68-0.6,0.953
			c-0.258,0.273-0.566,0.49-0.924,0.653C208.759,93.996,208.362,94.077,207.927,94.077z M206.011,91.098
			c0,0.304,0.049,0.583,0.148,0.843c0.1,0.258,0.236,0.482,0.41,0.675s0.377,0.344,0.609,0.454c0.232,0.111,0.482,0.166,0.748,0.166
			s0.516-0.055,0.748-0.166c0.232-0.11,0.438-0.264,0.615-0.459c0.176-0.196,0.314-0.425,0.414-0.688
			c0.1-0.262,0.15-0.545,0.15-0.848c0-0.295-0.051-0.574-0.15-0.836s-0.238-0.49-0.414-0.687c-0.178-0.196-0.383-0.349-0.615-0.46
			s-0.482-0.166-0.748-0.166s-0.516,0.057-0.748,0.172c-0.232,0.114-0.436,0.27-0.609,0.465s-0.311,0.425-0.41,0.688
			C206.06,90.513,206.011,90.795,206.011,91.098z"/>
		<path fill="#F0AD4E" d="M215.149,94.077c-0.48,0-0.904-0.117-1.27-0.354s-0.654-0.535-0.869-0.898v3.501h-0.975v-8.142h0.863
			v1.086c0.229-0.355,0.527-0.641,0.893-0.859c0.365-0.217,0.77-0.326,1.213-0.326c0.398,0,0.764,0.081,1.096,0.244
			c0.332,0.162,0.621,0.382,0.865,0.658c0.242,0.277,0.434,0.597,0.57,0.959c0.137,0.361,0.205,0.738,0.205,1.129
			c0,0.414-0.062,0.804-0.189,1.169c-0.125,0.366-0.303,0.683-0.531,0.952c-0.229,0.271-0.502,0.484-0.82,0.643
			C215.884,93.998,215.532,94.077,215.149,94.077z M214.849,93.235c0.289,0,0.549-0.061,0.781-0.183s0.432-0.284,0.6-0.487
			c0.166-0.203,0.293-0.434,0.381-0.692c0.09-0.259,0.133-0.524,0.133-0.798c0-0.287-0.051-0.562-0.154-0.824
			c-0.104-0.263-0.244-0.492-0.422-0.688c-0.176-0.195-0.385-0.351-0.625-0.465c-0.24-0.115-0.5-0.172-0.781-0.172
			c-0.178,0-0.359,0.035-0.549,0.105c-0.188,0.07-0.365,0.162-0.531,0.277c-0.166,0.113-0.311,0.25-0.432,0.409
			s-0.201,0.327-0.238,0.504v1.65c0.082,0.192,0.184,0.371,0.311,0.538c0.125,0.166,0.27,0.31,0.432,0.432
			c0.162,0.121,0.336,0.218,0.521,0.287C214.458,93.2,214.649,93.235,214.849,93.235z"/>
		<path fill="#F0AD4E" d="M222.05,94.077c-0.48,0-0.904-0.117-1.27-0.354s-0.654-0.535-0.869-0.898v3.501h-0.975v-8.142h0.863v1.086
			c0.229-0.355,0.527-0.641,0.893-0.859c0.365-0.217,0.77-0.326,1.213-0.326c0.398,0,0.764,0.081,1.096,0.244
			c0.332,0.162,0.621,0.382,0.865,0.658c0.242,0.277,0.434,0.597,0.57,0.959c0.137,0.361,0.205,0.738,0.205,1.129
			c0,0.414-0.062,0.804-0.189,1.169c-0.125,0.366-0.303,0.683-0.531,0.952c-0.229,0.271-0.502,0.484-0.82,0.643
			C222.784,93.998,222.433,94.077,222.05,94.077z M221.749,93.235c0.289,0,0.549-0.061,0.781-0.183s0.432-0.284,0.6-0.487
			c0.166-0.203,0.293-0.434,0.381-0.692c0.09-0.259,0.133-0.524,0.133-0.798c0-0.287-0.051-0.562-0.154-0.824
			c-0.104-0.263-0.244-0.492-0.422-0.688c-0.176-0.195-0.385-0.351-0.625-0.465c-0.24-0.115-0.5-0.172-0.781-0.172
			c-0.178,0-0.359,0.035-0.549,0.105c-0.188,0.07-0.365,0.162-0.531,0.277c-0.166,0.113-0.311,0.25-0.432,0.409
			s-0.201,0.327-0.238,0.504v1.65c0.082,0.192,0.184,0.371,0.311,0.538c0.125,0.166,0.27,0.31,0.432,0.432
			c0.162,0.121,0.336,0.218,0.521,0.287C221.358,93.2,221.55,93.235,221.749,93.235z"/>
		<path fill="#F0AD4E" d="M228.364,94.077c-0.438,0-0.834-0.081-1.191-0.243c-0.359-0.163-0.664-0.38-0.92-0.653
			c-0.254-0.273-0.453-0.591-0.592-0.953c-0.141-0.361-0.211-0.742-0.211-1.141c0-0.406,0.072-0.79,0.217-1.152
			c0.143-0.361,0.342-0.68,0.598-0.953c0.254-0.272,0.561-0.49,0.918-0.652c0.359-0.163,0.752-0.244,1.182-0.244
			c0.428,0,0.822,0.081,1.184,0.244c0.363,0.162,0.67,0.38,0.926,0.652c0.254,0.273,0.453,0.592,0.598,0.953
			c0.145,0.362,0.217,0.746,0.217,1.152c0,0.398-0.07,0.779-0.211,1.141c-0.141,0.362-0.34,0.68-0.598,0.953
			c-0.26,0.273-0.566,0.49-0.926,0.653C229.196,93.996,228.8,94.077,228.364,94.077z M226.446,91.098
			c0,0.304,0.051,0.583,0.15,0.843c0.1,0.258,0.236,0.482,0.41,0.675s0.377,0.344,0.609,0.454c0.232,0.111,0.48,0.166,0.748,0.166
			c0.266,0,0.514-0.055,0.746-0.166c0.232-0.11,0.438-0.264,0.615-0.459c0.178-0.196,0.316-0.425,0.416-0.688
			c0.1-0.262,0.148-0.545,0.148-0.848c0-0.295-0.049-0.574-0.148-0.836s-0.238-0.49-0.416-0.687s-0.383-0.349-0.615-0.46
			s-0.48-0.166-0.746-0.166c-0.268,0-0.516,0.057-0.748,0.172c-0.232,0.114-0.436,0.27-0.609,0.465s-0.311,0.425-0.41,0.688
			C226.497,90.513,226.446,90.795,226.446,91.098z"/>
		<path fill="#F0AD4E" d="M237.491,93.967h-0.977v-3.234c0-0.62-0.094-1.071-0.281-1.352c-0.189-0.28-0.475-0.421-0.859-0.421
			c-0.199,0-0.398,0.039-0.598,0.116s-0.387,0.183-0.564,0.315s-0.332,0.292-0.465,0.477c-0.133,0.186-0.232,0.388-0.299,0.609
			v3.489h-0.977v-5.782h0.887v1.24c0.229-0.406,0.561-0.73,0.992-0.975s0.902-0.365,1.412-0.365c0.332,0,0.609,0.061,0.83,0.183
			c0.223,0.122,0.398,0.292,0.531,0.51s0.229,0.475,0.283,0.77c0.055,0.296,0.084,0.616,0.084,0.964V93.967z"/>
		<path fill="#F0AD4E" d="M241.567,94.077c-0.438,0-0.836-0.079-1.197-0.238c-0.361-0.158-0.672-0.374-0.93-0.647
			c-0.26-0.272-0.461-0.593-0.604-0.958c-0.145-0.365-0.217-0.752-0.217-1.158s0.072-0.789,0.217-1.151
			c0.143-0.362,0.346-0.68,0.607-0.952c0.264-0.273,0.574-0.49,0.938-0.648c0.361-0.158,0.76-0.238,1.195-0.238
			s0.832,0.081,1.191,0.244c0.357,0.162,0.662,0.378,0.914,0.647c0.25,0.27,0.445,0.583,0.582,0.941
			c0.135,0.358,0.203,0.729,0.203,1.113c0,0.081-0.002,0.155-0.004,0.222c-0.004,0.066-0.01,0.118-0.018,0.155h-4.797
			c0.023,0.288,0.09,0.55,0.199,0.786c0.111,0.236,0.256,0.439,0.434,0.609c0.176,0.17,0.377,0.303,0.604,0.398
			c0.225,0.096,0.463,0.145,0.715,0.145c0.176,0,0.35-0.023,0.52-0.072c0.17-0.048,0.328-0.112,0.477-0.193
			c0.148-0.082,0.279-0.182,0.393-0.299c0.115-0.119,0.201-0.252,0.262-0.399l0.842,0.232c-0.098,0.214-0.229,0.41-0.395,0.587
			c-0.166,0.178-0.357,0.331-0.576,0.46c-0.217,0.13-0.459,0.231-0.725,0.305S241.854,94.077,241.567,94.077z M243.55,90.688
			c-0.023-0.273-0.092-0.527-0.205-0.76c-0.115-0.232-0.26-0.43-0.432-0.592c-0.174-0.162-0.375-0.29-0.604-0.383
			c-0.23-0.092-0.475-0.139-0.732-0.139s-0.502,0.047-0.73,0.139c-0.229,0.093-0.43,0.222-0.604,0.389
			c-0.174,0.166-0.314,0.363-0.422,0.592s-0.172,0.48-0.193,0.754H243.55z"/>
		<path fill="#F0AD4E" d="M250.573,93.967h-0.977v-3.234c0-0.62-0.094-1.071-0.281-1.352c-0.189-0.28-0.475-0.421-0.859-0.421
			c-0.199,0-0.398,0.039-0.598,0.116s-0.387,0.183-0.564,0.315s-0.332,0.292-0.465,0.477c-0.133,0.186-0.232,0.388-0.299,0.609
			v3.489h-0.977v-5.782h0.887v1.24c0.229-0.406,0.561-0.73,0.992-0.975s0.902-0.365,1.412-0.365c0.332,0,0.609,0.061,0.83,0.183
			c0.223,0.122,0.398,0.292,0.531,0.51s0.229,0.475,0.283,0.77c0.055,0.296,0.084,0.616,0.084,0.964V93.967z"/>
		<path fill="#F0AD4E" d="M255.026,93.679c-0.061,0.029-0.137,0.064-0.232,0.105c-0.098,0.041-0.205,0.081-0.328,0.121
			c-0.121,0.041-0.254,0.074-0.398,0.1c-0.145,0.026-0.293,0.039-0.449,0.039c-0.354,0-0.66-0.098-0.918-0.293
			c-0.26-0.195-0.389-0.5-0.389-0.914v-3.889h-0.785v-0.764h0.785v-1.928h0.975v1.928h1.297v0.764h-1.297v3.59
			c0.016,0.214,0.086,0.369,0.211,0.465s0.273,0.145,0.443,0.145c0.191,0,0.367-0.031,0.525-0.095
			c0.16-0.062,0.268-0.112,0.328-0.149L255.026,93.679z"/>
	</g>
	<path fill="none" stroke="#F0AD4E" stroke-width="1.5" d="M262.334,43.053c0,6.262-5.642,11.339-12.602,11.339h-82.04
		c-6.959,0-12.601-5.077-12.601-11.339v-1.358c0-6.262,5.642-11.338,12.601-11.338h82.04c6.96,0,12.602,5.076,12.602,11.338V43.053z
		"/>
	<path fill="none" stroke="#F0AD4E" stroke-width="1.5" d="M262.334,91.155c0,6.262-5.642,11.34-12.602,11.34h-82.04
		c-6.959,0-12.601-5.078-12.601-11.34v-1.357c0-6.262,5.642-11.338,12.601-11.338h82.04c6.96,0,12.602,5.077,12.602,11.338V91.155z"
		/>
	<g>
	</g>
	<g>
	</g>
	<g>
	</g>
	<g>
	</g>
	<g>
	</g>
	<g>
	</g>
</g>
</svg>
