<?xml version="1.0" encoding="utf-8" standalone="no"?>
<!DOCTYPE svg PUBLIC "-//W3C//DTD SVG 1.1//EN"
  "http://www.w3.org/Graphics/SVG/1.1/DTD/svg11.dtd">
<!-- Created with matplotlib (http://matplotlib.org/) -->
<svg height="288pt" version="1.1" viewBox="0 0 432 288" width="432pt" xmlns="http://www.w3.org/2000/svg" xmlns:xlink="http://www.w3.org/1999/xlink">
 <defs>
  <style type="text/css">
*{stroke-linecap:butt;stroke-linejoin:round;}
  </style>
 </defs>
 <g id="figure_1">
  <g id="patch_1">
   <path d="M 0 288 
L 432 288 
L 432 0 
L 0 0 
z
" style="fill:none;"/>
  </g>
  <g id="axes_1">
   <g id="patch_2">
    <path d="M 77.76 224.64 
L 423.36 224.64 
L 423.36 8.64 
L 77.76 8.64 
z
" style="fill:none;"/>
   </g>
   <g id="PathCollection_1">
    <path d="M 351.046502 81.781326 
C 353.354696 81.781326 355.568663 80.864271 357.200802 79.232131 
C 358.832941 77.599992 359.749997 75.386025 359.749997 73.077831 
C 359.749997 70.769638 358.832941 68.555671 357.200802 66.923531 
C 355.568663 65.291392 353.354696 64.374337 351.046502 64.374337 
C 348.738308 64.374337 346.524341 65.291392 344.892202 66.923531 
C 343.260063 68.555671 342.343007 70.769638 342.343007 73.077831 
C 342.343007 75.386025 343.260063 77.599992 344.892202 79.232131 
C 346.524341 80.864271 348.738308 81.781326 351.046502 81.781326 
z
" style="fill:#f43d25;fill-opacity:0.8;stroke:#f43d25;stroke-opacity:0.8;"/>
    <path d="M 237.732587 149.573968 
C 238.618465 149.573968 239.46818 149.222005 240.094591 148.595594 
C 240.721002 147.969183 241.072966 147.119468 241.072966 146.233589 
C 241.072966 145.34771 240.721002 144.497995 240.094591 143.871584 
C 239.46818 143.245173 238.618465 142.89321 237.732587 142.89321 
C 236.846708 142.89321 235.996993 143.245173 235.370582 143.871584 
C 234.744171 144.497995 234.392207 145.34771 234.392207 146.233589 
C 234.392207 147.119468 234.744171 147.969183 235.370582 148.595594 
C 235.996993 149.222005 236.846708 149.573968 237.732587 149.573968 
z
" style="fill:#f94828;fill-opacity:0.8;stroke:#f94828;stroke-opacity:0.8;"/>
    <path d="M 327.717166 84.249235 
C 330.36363 84.249235 332.902057 83.197784 334.773389 81.326451 
C 336.644722 79.455119 337.696173 76.916692 337.696173 74.270228 
C 337.696173 71.623765 336.644722 69.085338 334.773389 67.214005 
C 332.902057 65.342673 330.36363 64.291222 327.717166 64.291222 
C 325.070703 64.291222 322.532276 65.342673 320.660943 67.214005 
C 318.789611 69.085338 317.73816 71.623765 317.73816 74.270228 
C 317.73816 76.916692 318.789611 79.455119 320.660943 81.326451 
C 322.532276 83.197784 325.070703 84.249235 327.717166 84.249235 
z
" style="fill:#cb0a22;fill-opacity:0.8;stroke:#cb0a22;stroke-opacity:0.8;"/>
    <path d="M 301.055069 50.99756 
C 302.859042 50.99756 304.589371 50.280834 305.864973 49.005233 
C 307.140574 47.729631 307.8573 45.999302 307.8573 44.195329 
C 307.8573 42.391356 307.140574 40.661027 305.864973 39.385425 
C 304.589371 38.109824 302.859042 37.393098 301.055069 37.393098 
C 299.251096 37.393098 297.520766 38.109824 296.245165 39.385425 
C 294.969563 40.661027 294.252837 42.391356 294.252837 44.195329 
C 294.252837 45.999302 294.969563 47.729631 296.245165 49.005233 
C 297.520766 50.280834 299.251096 50.99756 301.055069 50.99756 
z
" style="fill:#ed3022;fill-opacity:0.8;stroke:#ed3022;stroke-opacity:0.8;"/>
    <path d="M 307.720593 155.025083 
C 314.198217 155.025083 320.411405 152.451496 324.991777 147.871125 
C 329.572148 143.290753 332.145736 137.077564 332.145736 130.599941 
C 332.145736 124.122317 329.572148 117.909128 324.991777 113.328757 
C 320.411405 108.748385 314.198217 106.174798 307.720593 106.174798 
C 301.24297 106.174798 295.029781 108.748385 290.449409 113.328757 
C 285.869038 117.909128 283.295451 124.122317 283.295451 130.599941 
C 283.295451 137.077564 285.869038 143.290753 290.449409 147.871125 
C 295.029781 152.451496 301.24297 155.025083 307.720593 155.025083 
z
" style="fill:#fecc68;fill-opacity:0.8;stroke:#fecc68;stroke-opacity:0.8;"/>
    <path d="M 201.072202 128.041614 
C 203.409598 128.041614 205.651575 127.112957 207.304363 125.460169 
C 208.957152 123.80738 209.885809 121.565403 209.885809 119.228007 
C 209.885809 116.890612 208.957152 114.648635 207.304363 112.995846 
C 205.651575 111.343058 203.409598 110.414401 201.072202 110.414401 
C 198.734806 110.414401 196.492829 111.343058 194.840041 112.995846 
C 193.187252 114.648635 192.258595 116.890612 192.258595 119.228007 
C 192.258595 121.565403 193.187252 123.80738 194.840041 125.460169 
C 196.492829 127.112957 198.734806 128.041614 201.072202 128.041614 
z
" style="fill:#eb2b21;fill-opacity:0.8;stroke:#eb2b21;stroke-opacity:0.8;"/>
    <path d="M 174.410104 194.785494 
C 176.429081 194.785494 178.365637 193.983346 179.793269 192.555714 
C 181.220902 191.128082 182.023049 189.191525 182.023049 187.172549 
C 182.023049 185.153572 181.220902 183.217016 179.793269 181.789384 
C 178.365637 180.361752 176.429081 179.559604 174.410104 179.559604 
C 172.391128 179.559604 170.454571 180.361752 169.026939 181.789384 
C 167.599307 183.217016 166.797159 185.153572 166.797159 187.172549 
C 166.797159 189.191525 167.599307 191.128082 169.026939 192.555714 
C 170.454571 193.983346 172.391128 194.785494 174.410104 194.785494 
z
" style="fill:#feda78;fill-opacity:0.8;stroke:#feda78;stroke-opacity:0.8;"/>
    <path d="M 224.401538 135.312971 
C 225.393781 135.312971 226.345519 134.918749 227.047141 134.217127 
C 227.748763 133.515504 228.142986 132.563767 228.142986 131.571523 
C 228.142986 130.57928 227.748763 129.627542 227.047141 128.92592 
C 226.345519 128.224298 225.393781 127.830075 224.401538 127.830075 
C 223.409294 127.830075 222.457557 128.224298 221.755934 128.92592 
C 221.054312 129.627542 220.66009 130.57928 220.66009 131.571523 
C 220.66009 132.563767 221.054312 133.515504 221.755934 134.217127 
C 222.457557 134.918749 223.409294 135.312971 224.401538 135.312971 
z
" style="fill:#fea848;fill-opacity:0.8;stroke:#fea848;stroke-opacity:0.8;"/>
    <path d="M 244.398111 96.366431 
C 248.963903 96.366431 253.343306 94.552422 256.571808 91.32392 
C 259.80031 88.095418 261.614318 83.716015 261.614318 79.150223 
C 261.614318 74.584431 259.80031 70.205028 256.571808 66.976526 
C 253.343306 63.748024 248.963903 61.934016 244.398111 61.934016 
C 239.832319 61.934016 235.452916 63.748024 232.224414 66.976526 
C 228.995912 70.205028 227.181903 74.584431 227.181903 79.150223 
C 227.181903 83.716015 228.995912 88.095418 232.224414 91.32392 
C 235.452916 94.552422 239.832319 96.366431 244.398111 96.366431 
z
" style="fill:#f33b25;fill-opacity:0.8;stroke:#f33b25;stroke-opacity:0.8;"/>
    <path d="M 284.391258 90.425958 
C 287.656852 90.425958 290.789136 89.128523 293.098261 86.819399 
C 295.407385 84.510275 296.704819 81.377991 296.704819 78.112396 
C 296.704819 74.846801 295.407385 71.714517 293.098261 69.405393 
C 290.789136 67.096269 287.656852 65.798835 284.391258 65.798835 
C 281.125663 65.798835 277.993379 67.096269 275.684255 69.405393 
C 273.375131 71.714517 272.077696 74.846801 272.077696 78.112396 
C 272.077696 81.377991 273.375131 84.510275 275.684255 86.819399 
C 277.993379 89.128523 281.125663 90.425958 284.391258 90.425958 
z
" style="fill:#e92720;fill-opacity:0.8;stroke:#e92720;stroke-opacity:0.8;"/>
    <path d="M 141.082482 118.720884 
C 142.300742 118.720884 143.469269 118.236865 144.330709 117.375425 
C 145.192148 116.513985 145.676168 115.345458 145.676168 114.127199 
C 145.676168 112.908939 145.192148 111.740412 144.330709 110.878972 
C 143.469269 110.017532 142.300742 109.533513 141.082482 109.533513 
C 139.864222 109.533513 138.695695 110.017532 137.834256 110.878972 
C 136.972816 111.740412 136.488796 112.908939 136.488796 114.127199 
C 136.488796 115.345458 136.972816 116.513985 137.834256 117.375425 
C 138.695695 118.236865 139.864222 118.720884 141.082482 118.720884 
z
" style="fill:#800026;fill-opacity:0.8;stroke:#800026;stroke-opacity:0.8;"/>
    <path d="M 157.746293 163.937767 
C 159.039124 163.937767 160.279178 163.42412 161.193348 162.50995 
C 162.107517 161.595781 162.621164 160.355727 162.621164 159.062896 
C 162.621164 157.770065 162.107517 156.530011 161.193348 155.615842 
C 160.279178 154.701672 159.039124 154.188025 157.746293 154.188025 
C 156.453462 154.188025 155.213408 154.701672 154.299239 155.615842 
C 153.385069 156.530011 152.871422 157.770065 152.871422 159.062896 
C 152.871422 160.355727 153.385069 161.595781 154.299239 162.50995 
C 155.213408 163.42412 156.453462 163.937767 157.746293 163.937767 
z
" style="fill:#feca66;fill-opacity:0.8;stroke:#feca66;stroke-opacity:0.8;"/>
    <path d="M 277.725733 164.212419 
C 281.580229 164.212419 285.277373 162.681011 288.002913 159.955471 
C 290.728453 157.229931 292.259861 153.532787 292.259861 149.678291 
C 292.259861 145.823795 290.728453 142.126651 288.002913 139.401111 
C 285.277373 136.675571 281.580229 135.144163 277.725733 135.144163 
C 273.871237 135.144163 270.174093 136.675571 267.448553 139.401111 
C 264.723013 142.126651 263.191606 145.823795 263.191606 149.678291 
C 263.191606 153.532787 264.723013 157.229931 267.448553 159.955471 
C 270.174093 162.681011 273.871237 164.212419 277.725733 164.212419 
z
" style="fill:#fea647;fill-opacity:0.8;stroke:#fea647;stroke-opacity:0.8;"/>
    <path d="M 267.727447 139.859194 
C 270.43484 139.859194 273.03171 138.783535 274.946126 136.869119 
C 276.860542 134.954703 277.936201 132.357833 277.936201 129.65044 
C 277.936201 126.943046 276.860542 124.346176 274.946126 122.43176 
C 273.03171 120.517344 270.43484 119.441685 267.727447 119.441685 
C 265.020053 119.441685 262.423183 120.517344 260.508767 122.43176 
C 258.594351 124.346176 257.518692 126.943046 257.518692 129.65044 
C 257.518692 132.357833 258.594351 134.954703 260.508767 136.869119 
C 262.423183 138.783535 265.020053 139.859194 267.727447 139.859194 
z
" style="fill:#fd7636;fill-opacity:0.8;stroke:#fd7636;stroke-opacity:0.8;"/>
    <path d="M 121.085909 156.799939 
C 122.945312 156.799939 124.728809 156.061191 126.043605 154.746394 
C 127.358401 153.431598 128.09715 151.648101 128.09715 149.788698 
C 128.09715 147.929295 127.358401 146.145798 126.043605 144.831002 
C 124.728809 143.516206 122.945312 142.777457 121.085909 142.777457 
C 119.226506 142.777457 117.443009 143.516206 116.128213 144.831002 
C 114.813416 146.145798 114.074668 147.929295 114.074668 149.788698 
C 114.074668 151.648101 114.813416 153.431598 116.128213 154.746394 
C 117.443009 156.061191 119.226506 156.799939 121.085909 156.799939 
z
" style="fill:#feb852;fill-opacity:0.8;stroke:#feb852;stroke-opacity:0.8;"/>
    <path d="M 201.072202 138.265174 
C 202.864947 138.265174 204.584508 137.552909 205.85217 136.285247 
C 207.119832 135.017585 207.832097 133.298024 207.832097 131.505279 
C 207.832097 129.712534 207.119832 127.992974 205.85217 126.725311 
C 204.584508 125.457649 202.864947 124.745384 201.072202 124.745384 
C 199.279457 124.745384 197.559897 125.457649 196.292234 126.725311 
C 195.024572 127.992974 194.312307 129.712534 194.312307 131.505279 
C 194.312307 133.298024 195.024572 135.017585 196.292234 136.285247 
C 197.559897 137.552909 199.279457 138.265174 201.072202 138.265174 
z
" style="fill:#e9261f;fill-opacity:0.8;stroke:#e9261f;stroke-opacity:0.8;"/>
    <path d="M 231.067062 152.04317 
C 233.281228 152.04317 235.405006 151.163473 236.970658 149.597821 
C 238.53631 148.032169 239.416007 145.908391 239.416007 143.694225 
C 239.416007 141.480059 238.53631 139.356281 236.970658 137.790629 
C 235.405006 136.224978 233.281228 135.34528 231.067062 135.34528 
C 228.852896 135.34528 226.729118 136.224978 225.163466 137.790629 
C 223.597815 139.356281 222.718117 141.480059 222.718117 143.694225 
C 222.718117 145.908391 223.597815 148.032169 225.163466 149.597821 
C 226.729118 151.163473 228.852896 152.04317 231.067062 152.04317 
z
" style="fill:#ffe590;fill-opacity:0.8;stroke:#ffe590;stroke-opacity:0.8;"/>
    <path d="M 407.70346 100.107608 
C 409.999597 100.107608 412.201999 99.195343 413.825613 97.571729 
C 415.449227 95.948115 416.361492 93.745713 416.361492 91.449576 
C 416.361492 89.153439 415.449227 86.951037 413.825613 85.327423 
C 412.201999 83.703809 409.999597 82.791544 407.70346 82.791544 
C 405.407323 82.791544 403.204921 83.703809 401.581307 85.327423 
C 399.957693 86.951037 399.045428 89.153439 399.045428 91.449576 
C 399.045428 93.745713 399.957693 95.948115 401.581307 97.571729 
C 403.204921 99.195343 405.407323 100.107608 407.70346 100.107608 
z
" style="fill:#fc6330;fill-opacity:0.8;stroke:#fc6330;stroke-opacity:0.8;"/>
    <path d="M 124.418671 182.706362 
C 125.658634 182.706362 126.847979 182.21372 127.724765 181.336933 
C 128.601552 180.460147 129.094194 179.270803 129.094194 178.030839 
C 129.094194 176.790876 128.601552 175.601532 127.724765 174.724745 
C 126.847979 173.847959 125.658634 173.355316 124.418671 173.355316 
C 123.178708 173.355316 121.989363 173.847959 121.112577 174.724745 
C 120.235791 175.601532 119.743148 176.790876 119.743148 178.030839 
C 119.743148 179.270803 120.235791 180.460147 121.112577 181.336933 
C 121.989363 182.21372 123.178708 182.706362 124.418671 182.706362 
z
" style="fill:#fed977;fill-opacity:0.8;stroke:#fed977;stroke-opacity:0.8;"/>
    <path d="M 407.70346 151.706028 
C 410.261563 151.706028 412.715238 150.689683 414.52409 148.88083 
C 416.332943 147.071978 417.349288 144.618303 417.349288 142.0602 
C 417.349288 139.502096 416.332943 137.048422 414.52409 135.239569 
C 412.715238 133.430717 410.261563 132.414372 407.70346 132.414372 
C 405.145356 132.414372 402.691682 133.430717 400.882829 135.239569 
C 399.073977 137.048422 398.057632 139.502096 398.057632 142.0602 
C 398.057632 144.618303 399.073977 147.071978 400.882829 148.88083 
C 402.691682 150.689683 405.145356 151.706028 407.70346 151.706028 
z
" style="fill:#fd923e;fill-opacity:0.8;stroke:#fd923e;stroke-opacity:0.8;"/>
    <path d="M 167.74458 174.578524 
C 170.49491 174.578524 173.132964 173.485807 175.077741 171.541029 
C 177.022519 169.596252 178.115236 166.958198 178.115236 164.207868 
C 178.115236 161.457538 177.022519 158.819484 175.077741 156.874706 
C 173.132964 154.929929 170.49491 153.837211 167.74458 153.837211 
C 164.99425 153.837211 162.356196 154.929929 160.411418 156.874706 
C 158.466641 158.819484 157.373923 161.457538 157.373923 164.207868 
C 157.373923 166.958198 158.466641 169.596252 160.411418 171.541029 
C 162.356196 173.485807 164.99425 174.578524 167.74458 174.578524 
z
" style="fill:#fff2ac;fill-opacity:0.8;stroke:#fff2ac;stroke-opacity:0.8;"/>
    <path d="M 281.058495 142.795356 
C 284.497719 142.795356 287.796545 141.428938 290.228444 138.997039 
C 292.660342 136.56514 294.026761 133.266315 294.026761 129.827091 
C 294.026761 126.387867 292.660342 123.089041 290.228444 120.657143 
C 287.796545 118.225244 284.497719 116.858826 281.058495 116.858826 
C 277.619271 116.858826 274.320446 118.225244 271.888547 120.657143 
C 269.456648 123.089041 268.09023 126.387867 268.09023 129.827091 
C 268.09023 133.266315 269.456648 136.56514 271.888547 138.997039 
C 274.320446 141.428938 277.619271 142.795356 281.058495 142.795356 
z
" style="fill:#fecc68;fill-opacity:0.8;stroke:#fecc68;stroke-opacity:0.8;"/>
    <path d="M 151.080769 165.086562 
C 153.527393 165.086562 155.874138 164.114508 157.604163 162.384483 
C 159.334187 160.654459 160.306241 158.307713 160.306241 155.86109 
C 160.306241 153.414466 159.334187 151.06772 157.604163 149.337696 
C 155.874138 147.607672 153.527393 146.635618 151.080769 146.635618 
C 148.634145 146.635618 146.287399 147.607672 144.557375 149.337696 
C 142.827351 151.06772 141.855297 153.414466 141.855297 155.86109 
C 141.855297 158.307713 142.827351 160.654459 144.557375 162.384483 
C 146.287399 164.114508 148.634145 165.086562 151.080769 165.086562 
z
" style="fill:#fd9c42;fill-opacity:0.8;stroke:#fd9c42;stroke-opacity:0.8;"/>
    <path d="M 321.051642 87.559954 
C 322.895429 87.559954 324.663947 86.82741 325.967701 85.523656 
C 327.271455 84.219902 328.003999 82.451384 328.003999 80.607597 
C 328.003999 78.76381 327.271455 76.995292 325.967701 75.691538 
C 324.663947 74.387784 322.895429 73.65524 321.051642 73.65524 
C 319.207855 73.65524 317.439337 74.387784 316.135583 75.691538 
C 314.831829 76.995292 314.099285 78.76381 314.099285 80.607597 
C 314.099285 82.451384 314.831829 84.219902 316.135583 85.523656 
C 317.439337 86.82741 319.207855 87.559954 321.051642 87.559954 
z
" style="fill:#feb24c;fill-opacity:0.8;stroke:#feb24c;stroke-opacity:0.8;"/>
    <path d="M 307.720593 130.500846 
C 310.329541 130.500846 312.831984 129.4643 314.676789 127.619496 
C 316.521593 125.774691 317.558139 123.272248 317.558139 120.6633 
C 317.558139 118.054352 316.521593 115.551909 314.676789 113.707104 
C 312.831984 111.8623 310.329541 110.825754 307.720593 110.825754 
C 305.111645 110.825754 302.609202 111.8623 300.764397 113.707104 
C 298.919593 115.551909 297.883047 118.054352 297.883047 120.6633 
C 297.883047 123.272248 298.919593 125.774691 300.764397 127.619496 
C 302.609202 129.4643 305.111645 130.500846 307.720593 130.500846 
z
" style="fill:#ea2920;fill-opacity:0.8;stroke:#ea2920;stroke-opacity:0.8;"/>
    <path d="M 141.082482 201.696704 
C 142.129279 201.696704 143.133343 201.280807 143.873541 200.540609 
C 144.613738 199.800412 145.029635 198.796348 145.029635 197.749551 
C 145.029635 196.702754 144.613738 195.69869 143.873541 194.958492 
C 143.133343 194.218295 142.129279 193.802398 141.082482 193.802398 
C 140.035685 193.802398 139.031621 194.218295 138.291424 194.958492 
C 137.551226 195.69869 137.135329 196.702754 137.135329 197.749551 
C 137.135329 198.796348 137.551226 199.800412 138.291424 200.540609 
C 139.031621 201.280807 140.035685 201.696704 141.082482 201.696704 
z
" style="fill:#fc552c;fill-opacity:0.8;stroke:#fc552c;stroke-opacity:0.8;"/>
    <path d="M 161.079055 171.532224 
C 162.51202 171.532224 163.886487 170.962901 164.899746 169.949642 
C 165.913005 168.936383 166.482328 167.561916 166.482328 166.128952 
C 166.482328 164.695987 165.913005 163.32152 164.899746 162.308261 
C 163.886487 161.295002 162.51202 160.72568 161.079055 160.72568 
C 159.646091 160.72568 158.271624 161.295002 157.258365 162.308261 
C 156.245106 163.32152 155.675783 164.695987 155.675783 166.128952 
C 155.675783 167.561916 156.245106 168.936383 157.258365 169.949642 
C 158.271624 170.962901 159.646091 171.532224 161.079055 171.532224 
z
" style="fill:#fc4d2a;fill-opacity:0.8;stroke:#fc4d2a;stroke-opacity:0.8;"/>
    <path d="M 361.044789 75.306832 
C 362.725154 75.306832 364.336922 74.639215 365.52512 73.451018 
C 366.713317 72.26282 367.380934 70.651052 367.380934 68.970687 
C 367.380934 67.290321 366.713317 65.678553 365.52512 64.490356 
C 364.336922 63.302158 362.725154 62.634542 361.044789 62.634542 
C 359.364423 62.634542 357.752655 63.302158 356.564458 64.490356 
C 355.37626 65.678553 354.708644 67.290321 354.708644 68.970687 
C 354.708644 70.651052 355.37626 72.26282 356.564458 73.451018 
C 357.752655 74.639215 359.364423 75.306832 361.044789 75.306832 
z
" style="fill:#fea747;fill-opacity:0.8;stroke:#fea747;stroke-opacity:0.8;"/>
    <path d="M 124.418671 218.349618 
C 125.653796 218.349618 126.8385 217.858898 127.711865 216.985533 
C 128.58523 216.112167 129.07595 214.927464 129.07595 213.692339 
C 129.07595 212.457214 128.58523 211.27251 127.711865 210.399145 
C 126.8385 209.52578 125.653796 209.03506 124.418671 209.03506 
C 123.183546 209.03506 121.998843 209.52578 121.125477 210.399145 
C 120.252112 211.27251 119.761392 212.457214 119.761392 213.692339 
C 119.761392 214.927464 120.252112 216.112167 121.125477 216.985533 
C 121.998843 217.858898 123.183546 218.349618 124.418671 218.349618 
z
" style="fill:#fffdc6;fill-opacity:0.8;stroke:#fffdc6;stroke-opacity:0.8;"/>
    <path d="M 237.732587 196.951787 
C 240.911677 196.951787 243.960988 195.688721 246.208944 193.440764 
C 248.456901 191.192808 249.719967 188.143497 249.719967 184.964406 
C 249.719967 181.785316 248.456901 178.736005 246.208944 176.488049 
C 243.960988 174.240092 240.911677 172.977026 237.732587 172.977026 
C 234.553496 172.977026 231.504185 174.240092 229.256229 176.488049 
C 227.008272 178.736005 225.745206 181.785316 225.745206 184.964406 
C 225.745206 188.143497 227.008272 191.192808 229.256229 193.440764 
C 231.504185 195.688721 234.553496 196.951787 237.732587 196.951787 
z
" style="fill:#ffefa4;fill-opacity:0.8;stroke:#ffefa4;stroke-opacity:0.8;"/>
    <path d="M 324.384404 47.793509 
C 325.883266 47.793509 327.320941 47.198004 328.380796 46.138149 
C 329.440652 45.078293 330.036156 43.640619 330.036156 42.141757 
C 330.036156 40.642894 329.440652 39.20522 328.380796 38.145364 
C 327.320941 37.085509 325.883266 36.490005 324.384404 36.490005 
C 322.885542 36.490005 321.447868 37.085509 320.388012 38.145364 
C 319.328157 39.20522 318.732652 40.642894 318.732652 42.141757 
C 318.732652 43.640619 319.328157 45.078293 320.388012 46.138149 
C 321.447868 47.198004 322.885542 47.793509 324.384404 47.793509 
z
" style="fill:#f54026;fill-opacity:0.8;stroke:#f54026;stroke-opacity:0.8;"/>
    <path d="M 227.7343 223.626198 
C 232.494541 223.626198 237.060455 221.734934 240.426453 218.368935 
C 243.792452 215.002937 245.683715 210.437023 245.683715 205.676782 
C 245.683715 200.916541 243.792452 196.350627 240.426453 192.984629 
C 237.060455 189.61863 232.494541 187.727367 227.7343 187.727367 
C 222.974059 187.727367 218.408145 189.61863 215.042146 192.984629 
C 211.676148 196.350627 209.784884 200.916541 209.784884 205.676782 
C 209.784884 210.437023 211.676148 215.002937 215.042146 218.368935 
C 218.408145 221.734934 222.974059 223.626198 227.7343 223.626198 
z
" style="fill:#ffefa4;fill-opacity:0.8;stroke:#ffefa4;stroke-opacity:0.8;"/>
    <path d="M 301.055069 30.490906 
C 304.242925 30.490906 307.300645 29.224357 309.5548 26.970202 
C 311.808955 24.716046 313.075504 21.658327 313.075504 18.47047 
C 313.075504 15.282613 311.808955 12.224894 309.5548 9.970739 
C 307.300645 7.716584 304.242925 6.450035 301.055069 6.450035 
C 297.867212 6.450035 294.809492 7.716584 292.555337 9.970739 
C 290.301182 12.224894 289.034633 15.282613 289.034633 18.47047 
C 289.034633 21.658327 290.301182 24.716046 292.555337 26.970202 
C 294.809492 29.224357 297.867212 30.490906 301.055069 30.490906 
z
" style="fill:#fc552c;fill-opacity:0.8;stroke:#fc552c;stroke-opacity:0.8;"/>
    <path d="M 114.420384 218.07263 
C 115.283392 218.07263 116.111169 217.729753 116.721408 217.119515 
C 117.331646 216.509276 117.674523 215.681499 117.674523 214.818492 
C 117.674523 213.955484 117.331646 213.127707 116.721408 212.517468 
C 116.111169 211.90723 115.283392 211.564353 114.420384 211.564353 
C 113.557377 211.564353 112.7296 211.90723 112.119361 212.517468 
C 111.509123 213.127707 111.166246 213.955484 111.166246 214.818492 
C 111.166246 215.681499 111.509123 216.509276 112.119361 217.119515 
C 112.7296 217.729753 113.557377 218.07263 114.420384 218.07263 
z
" style="fill:#fff4b0;fill-opacity:0.8;stroke:#fff4b0;stroke-opacity:0.8;"/>
    <path d="M 247.730873 104.793259 
C 251.398493 104.793259 254.91639 103.336099 257.509788 100.7427 
C 260.103187 98.149301 261.560348 94.631404 261.560348 90.963785 
C 261.560348 87.296165 260.103187 83.778268 257.509788 81.18487 
C 254.91639 78.591471 251.398493 77.13431 247.730873 77.13431 
C 244.063254 77.13431 240.545357 78.591471 237.951958 81.18487 
C 235.358559 83.778268 233.901399 87.296165 233.901399 90.963785 
C 233.901399 94.631404 235.358559 98.149301 237.951958 100.7427 
C 240.545357 103.336099 244.063254 104.793259 247.730873 104.793259 
z
" style="fill:#fd7234;fill-opacity:0.8;stroke:#fd7234;stroke-opacity:0.8;"/>
    <path d="M 254.396398 69.224625 
C 256.43138 69.224625 258.383288 68.416118 259.822238 66.977168 
C 261.261187 65.538219 262.069694 63.58631 262.069694 61.551328 
C 262.069694 59.516346 261.261187 57.564438 259.822238 56.125488 
C 258.383288 54.686538 256.43138 53.878031 254.396398 53.878031 
C 252.361416 53.878031 250.409507 54.686538 248.970557 56.125488 
C 247.531608 57.564438 246.723101 59.516346 246.723101 61.551328 
C 246.723101 63.58631 247.531608 65.538219 248.970557 66.977168 
C 250.409507 68.416118 252.361416 69.224625 254.396398 69.224625 
z
" style="fill:#f43e26;fill-opacity:0.8;stroke:#f43e26;stroke-opacity:0.8;"/>
    <path d="M 151.080769 123.945938 
C 153.140115 123.945938 155.115393 123.127751 156.571571 121.671573 
C 158.027749 120.215395 158.845936 118.240117 158.845936 116.180771 
C 158.845936 114.121425 158.027749 112.146147 156.571571 110.689969 
C 155.115393 109.233791 153.140115 108.415604 151.080769 108.415604 
C 149.021423 108.415604 147.046144 109.233791 145.589967 110.689969 
C 144.133789 112.146147 143.315602 114.121425 143.315602 116.180771 
C 143.315602 118.240117 144.133789 120.215395 145.589967 121.671573 
C 147.046144 123.127751 149.021423 123.945938 151.080769 123.945938 
z
" style="fill:#b00026;fill-opacity:0.8;stroke:#b00026;stroke-opacity:0.8;"/>
    <path d="M 281.058495 198.357172 
C 284.873821 198.357172 288.533395 196.841327 291.231237 194.143484 
C 293.92908 191.445641 295.444925 187.786068 295.444925 183.970742 
C 295.444925 180.155417 293.92908 176.495843 291.231237 173.798001 
C 288.533395 171.100158 284.873821 169.584313 281.058495 169.584313 
C 277.24317 169.584313 273.583596 171.100158 270.885754 173.798001 
C 268.187911 176.495843 266.672066 180.155417 266.672066 183.970742 
C 266.672066 187.786068 268.187911 191.445641 270.885754 194.143484 
C 273.583596 196.841327 277.24317 198.357172 281.058495 198.357172 
z
" style="fill:#fee288;fill-opacity:0.8;stroke:#fee288;stroke-opacity:0.8;"/>
    <path d="M 184.408391 178.777109 
C 185.525706 178.777109 186.597409 178.333195 187.387469 177.543134 
C 188.17753 176.753073 188.621444 175.68137 188.621444 174.564056 
C 188.621444 173.446741 188.17753 172.375038 187.387469 171.584977 
C 186.597409 170.794916 185.525706 170.351003 184.408391 170.351003 
C 183.291076 170.351003 182.219373 170.794916 181.429313 171.584977 
C 180.639252 172.375038 180.195338 173.446741 180.195338 174.564056 
C 180.195338 175.68137 180.639252 176.753073 181.429313 177.543134 
C 182.219373 178.333195 183.291076 178.777109 184.408391 178.777109 
z
" style="fill:#fedb7a;fill-opacity:0.8;stroke:#fedb7a;stroke-opacity:0.8;"/>
    <path d="M 324.384404 71.099871 
C 326.618048 71.099871 328.760508 70.212435 330.339933 68.63301 
C 331.919358 67.053585 332.806794 64.911125 332.806794 62.677481 
C 332.806794 60.443837 331.919358 58.301377 330.339933 56.721952 
C 328.760508 55.142527 326.618048 54.255091 324.384404 54.255091 
C 322.15076 54.255091 320.0083 55.142527 318.428875 56.721952 
C 316.849451 58.301377 315.962014 60.443837 315.962014 62.677481 
C 315.962014 64.911125 316.849451 67.053585 318.428875 68.63301 
C 320.0083 70.212435 322.15076 71.099871 324.384404 71.099871 
z
" style="fill:#ce0c22;fill-opacity:0.8;stroke:#ce0c22;stroke-opacity:0.8;"/>
    <path d="M 154.413531 215.664059 
C 155.369786 215.664059 156.287004 215.284135 156.963178 214.607961 
C 157.639352 213.931786 158.019276 213.014568 158.019276 212.058314 
C 158.019276 211.102059 157.639352 210.184841 156.963178 209.508666 
C 156.287004 208.832492 155.369786 208.452568 154.413531 208.452568 
C 153.457276 208.452568 152.540058 208.832492 151.863884 209.508666 
C 151.18771 210.184841 150.807786 211.102059 150.807786 212.058314 
C 150.807786 213.014568 151.18771 213.931786 151.863884 214.607961 
C 152.540058 215.284135 153.457276 215.664059 154.413531 215.664059 
z
" style="fill:#ffffcc;fill-opacity:0.8;stroke:#ffffcc;stroke-opacity:0.8;"/>
    <path d="M 317.71888 66.932767 
C 320.369971 66.932767 322.912837 65.879477 324.787442 64.004872 
C 326.662046 62.130268 327.715336 59.587402 327.715336 56.936311 
C 327.715336 54.285219 326.662046 51.742353 324.787442 49.867749 
C 322.912837 47.993144 320.369971 46.939855 317.71888 46.939855 
C 315.067789 46.939855 312.524922 47.993144 310.650318 49.867749 
C 308.775713 51.742353 307.722424 54.285219 307.722424 56.936311 
C 307.722424 59.587402 308.775713 62.130268 310.650318 64.004872 
C 312.524922 65.879477 315.067789 66.932767 317.71888 66.932767 
z
" style="fill:#e1191d;fill-opacity:0.8;stroke:#e1191d;stroke-opacity:0.8;"/>
    <path d="M 284.391258 90.84989 
C 289.561235 90.84989 294.52016 88.795836 298.175887 85.14011 
C 301.831613 81.484383 303.885667 76.525458 303.885667 71.35548 
C 303.885667 66.185503 301.831613 61.226578 298.175887 57.570851 
C 294.52016 53.915125 289.561235 51.861071 284.391258 51.861071 
C 279.22128 51.861071 274.262355 53.915125 270.606628 57.570851 
C 266.950902 61.226578 264.896848 66.185503 264.896848 71.35548 
C 264.896848 76.525458 266.950902 81.484383 270.606628 85.14011 
C 274.262355 88.795836 279.22128 90.84989 284.391258 90.84989 
z
" style="fill:#cd0b22;fill-opacity:0.8;stroke:#cd0b22;stroke-opacity:0.8;"/>
    <path d="M 154.413531 156.287365 
C 156.125285 156.287365 157.767161 155.607277 158.977554 154.396884 
C 160.187947 153.186491 160.868035 151.544615 160.868035 149.832861 
C 160.868035 148.121107 160.187947 146.479231 158.977554 145.268838 
C 157.767161 144.058445 156.125285 143.378357 154.413531 143.378357 
C 152.701777 143.378357 151.059901 144.058445 149.849508 145.268838 
C 148.639115 146.479231 147.959027 148.121107 147.959027 149.832861 
C 147.959027 151.544615 148.639115 153.186491 149.849508 154.396884 
C 151.059901 155.607277 152.701777 156.287365 154.413531 156.287365 
z
" style="fill:#d30f20;fill-opacity:0.8;stroke:#d30f20;stroke-opacity:0.8;"/>
    <path d="M 121.085909 178.305484 
C 121.937602 178.305484 122.754526 177.967103 123.356764 177.364865 
C 123.959002 176.762627 124.297383 175.945703 124.297383 175.09401 
C 124.297383 174.242317 123.959002 173.425393 123.356764 172.823155 
C 122.754526 172.220917 121.937602 171.882536 121.085909 171.882536 
C 120.234216 171.882536 119.417291 172.220917 118.815054 172.823155 
C 118.212816 173.425393 117.874435 174.242317 117.874435 175.09401 
C 117.874435 175.945703 118.212816 176.762627 118.815054 177.364865 
C 119.417291 177.967103 120.234216 178.305484 121.085909 178.305484 
z
" style="fill:#ffe590;fill-opacity:0.8;stroke:#ffe590;stroke-opacity:0.8;"/>
    <path d="M 281.058495 208.337047 
C 284.036158 208.337047 286.892264 207.154009 288.99779 205.048484 
C 291.103315 202.942958 292.286353 200.086852 292.286353 197.10919 
C 292.286353 194.131527 291.103315 191.275421 288.99779 189.169895 
C 286.892264 187.06437 284.036158 185.881332 281.058495 185.881332 
C 278.080833 185.881332 275.224727 187.06437 273.119201 189.169895 
C 271.013676 191.275421 269.830638 194.131527 269.830638 197.10919 
C 269.830638 200.086852 271.013676 202.942958 273.119201 205.048484 
C 275.224727 207.154009 278.080833 208.337047 281.058495 208.337047 
z
" style="fill:#feb953;fill-opacity:0.8;stroke:#feb953;stroke-opacity:0.8;"/>
    <path d="M 187.741153 81.990442 
C 190.450313 81.990442 193.048877 80.914082 194.964542 78.998417 
C 196.880208 77.082751 197.956568 74.484187 197.956568 71.775027 
C 197.956568 69.065868 196.880208 66.467304 194.964542 64.551638 
C 193.048877 62.635973 190.450313 61.559613 187.741153 61.559613 
C 185.031994 61.559613 182.433429 62.635973 180.517764 64.551638 
C 178.602099 66.467304 177.525738 69.065868 177.525738 71.775027 
C 177.525738 74.484187 178.602099 77.082751 180.517764 78.998417 
C 182.433429 80.914082 185.031994 81.990442 187.741153 81.990442 
z
" style="fill:#a60026;fill-opacity:0.8;stroke:#a60026;stroke-opacity:0.8;"/>
    <path d="M 224.401538 152.003834 
C 225.855696 152.003834 227.250491 151.426091 228.278736 150.397846 
C 229.306981 149.369601 229.884724 147.974805 229.884724 146.520647 
C 229.884724 145.066489 229.306981 143.671694 228.278736 142.643449 
C 227.250491 141.615204 225.855696 141.037461 224.401538 141.037461 
C 222.94738 141.037461 221.552584 141.615204 220.524339 142.643449 
C 219.496094 143.671694 218.918351 145.066489 218.918351 146.520647 
C 218.918351 147.974805 219.496094 149.369601 220.524339 150.397846 
C 221.552584 151.426091 222.94738 152.003834 224.401538 152.003834 
z
" style="fill:#fedd7e;fill-opacity:0.8;stroke:#fedd7e;stroke-opacity:0.8;"/>
    <path d="M 194.406678 195.965811 
C 196.955352 195.965811 199.399983 194.953212 201.202168 193.151027 
C 203.004353 191.348841 204.016953 188.904211 204.016953 186.355536 
C 204.016953 183.806861 203.004353 181.362231 201.202168 179.560046 
C 199.399983 177.75786 196.955352 176.745261 194.406678 176.745261 
C 191.858003 176.745261 189.413372 177.75786 187.611187 179.560046 
C 185.809002 181.362231 184.796403 183.806861 184.796403 186.355536 
C 184.796403 188.904211 185.809002 191.348841 187.611187 193.151027 
C 189.413372 194.953212 191.858003 195.965811 194.406678 195.965811 
z
" style="fill:#fec05b;fill-opacity:0.8;stroke:#fec05b;stroke-opacity:0.8;"/>
    <path d="M 167.74458 181.421345 
C 168.514919 181.421345 169.253811 181.115286 169.798523 180.570574 
C 170.343235 180.025862 170.649294 179.28697 170.649294 178.516631 
C 170.649294 177.746291 170.343235 177.007399 169.798523 176.462687 
C 169.253811 175.917975 168.514919 175.611916 167.74458 175.611916 
C 166.974241 175.611916 166.235349 175.917975 165.690637 176.462687 
C 165.145924 177.007399 164.839865 177.746291 164.839865 178.516631 
C 164.839865 179.28697 165.145924 180.025862 165.690637 180.570574 
C 166.235349 181.115286 166.974241 181.421345 167.74458 181.421345 
z
" style="fill:#fc572c;fill-opacity:0.8;stroke:#fc572c;stroke-opacity:0.8;"/>
   </g>
   <g id="matplotlib.axis_1">
    <g id="xtick_1">
     <g id="line2d_1">
      <defs>
       <path d="M 0 0 
L 0 4 
" id="m0090c87d12" style="stroke:#d2d2d2;"/>
      </defs>
      <g>
       <use style="fill:#d2d2d2;stroke:#d2d2d2;" x="77.76" xlink:href="#m0090c87d12" y="224.64"/>
      </g>
     </g>
     <g id="text_1">
      <!-- 0 -->
      <defs>
       <path d="M 31.78125 66.40625 
Q 24.171875 66.40625 20.328125 58.90625 
Q 16.5 51.421875 16.5 36.375 
Q 16.5 21.390625 20.328125 13.890625 
Q 24.171875 6.390625 31.78125 6.390625 
Q 39.453125 6.390625 43.28125 13.890625 
Q 47.125 21.390625 47.125 36.375 
Q 47.125 51.421875 43.28125 58.90625 
Q 39.453125 66.40625 31.78125 66.40625 
M 31.78125 74.21875 
Q 44.046875 74.21875 50.515625 64.515625 
Q 56.984375 54.828125 56.984375 36.375 
Q 56.984375 17.96875 50.515625 8.265625 
Q 44.046875 -1.421875 31.78125 -1.421875 
Q 19.53125 -1.421875 13.0625 8.265625 
Q 6.59375 17.96875 6.59375 36.375 
Q 6.59375 54.828125 13.0625 64.515625 
Q 19.53125 74.21875 31.78125 74.21875 
" id="DejaVuSans-30"/>
      </defs>
      <g style="fill:#d2d2d2;" transform="translate(73.624375 242.517969)scale(0.13 -0.13)">
       <use xlink:href="#DejaVuSans-30"/>
      </g>
     </g>
    </g>
    <g id="xtick_2">
     <g id="line2d_2">
      <g>
       <use style="fill:#d2d2d2;stroke:#d2d2d2;" x="144.415244" xlink:href="#m0090c87d12" y="224.64"/>
      </g>
     </g>
     <g id="text_2">
      <!-- 2 -->
      <defs>
       <path d="M 19.1875 8.296875 
L 53.609375 8.296875 
L 53.609375 0 
L 7.328125 0 
L 7.328125 8.296875 
Q 12.9375 14.109375 22.625 23.890625 
Q 32.328125 33.6875 34.8125 36.53125 
Q 39.546875 41.84375 41.421875 45.53125 
Q 43.3125 49.21875 43.3125 52.78125 
Q 43.3125 58.59375 39.234375 62.25 
Q 35.15625 65.921875 28.609375 65.921875 
Q 23.96875 65.921875 18.8125 64.3125 
Q 13.671875 62.703125 7.8125 59.421875 
L 7.8125 69.390625 
Q 13.765625 71.78125 18.9375 73 
Q 24.125 74.21875 28.421875 74.21875 
Q 39.75 74.21875 46.484375 68.546875 
Q 53.21875 62.890625 53.21875 53.421875 
Q 53.21875 48.921875 51.53125 44.890625 
Q 49.859375 40.875 45.40625 35.40625 
Q 44.1875 33.984375 37.640625 27.21875 
Q 31.109375 20.453125 19.1875 8.296875 
" id="DejaVuSans-32"/>
      </defs>
      <g style="fill:#d2d2d2;" transform="translate(140.279619 242.517969)scale(0.13 -0.13)">
       <use xlink:href="#DejaVuSans-32"/>
      </g>
     </g>
    </g>
    <g id="xtick_3">
     <g id="line2d_3">
      <g>
       <use style="fill:#d2d2d2;stroke:#d2d2d2;" x="211.070489" xlink:href="#m0090c87d12" y="224.64"/>
      </g>
     </g>
     <g id="text_3">
      <!-- 4 -->
      <defs>
       <path d="M 37.796875 64.3125 
L 12.890625 25.390625 
L 37.796875 25.390625 
z
M 35.203125 72.90625 
L 47.609375 72.90625 
L 47.609375 25.390625 
L 58.015625 25.390625 
L 58.015625 17.1875 
L 47.609375 17.1875 
L 47.609375 0 
L 37.796875 0 
L 37.796875 17.1875 
L 4.890625 17.1875 
L 4.890625 26.703125 
z
" id="DejaVuSans-34"/>
      </defs>
      <g style="fill:#d2d2d2;" transform="translate(206.934864 242.517969)scale(0.13 -0.13)">
       <use xlink:href="#DejaVuSans-34"/>
      </g>
     </g>
    </g>
    <g id="xtick_4">
     <g id="line2d_4">
      <g>
       <use style="fill:#d2d2d2;stroke:#d2d2d2;" x="277.725733" xlink:href="#m0090c87d12" y="224.64"/>
      </g>
     </g>
     <g id="text_4">
      <!-- 6 -->
      <defs>
       <path d="M 33.015625 40.375 
Q 26.375 40.375 22.484375 35.828125 
Q 18.609375 31.296875 18.609375 23.390625 
Q 18.609375 15.53125 22.484375 10.953125 
Q 26.375 6.390625 33.015625 6.390625 
Q 39.65625 6.390625 43.53125 10.953125 
Q 47.40625 15.53125 47.40625 23.390625 
Q 47.40625 31.296875 43.53125 35.828125 
Q 39.65625 40.375 33.015625 40.375 
M 52.59375 71.296875 
L 52.59375 62.3125 
Q 48.875 64.0625 45.09375 64.984375 
Q 41.3125 65.921875 37.59375 65.921875 
Q 27.828125 65.921875 22.671875 59.328125 
Q 17.53125 52.734375 16.796875 39.40625 
Q 19.671875 43.65625 24.015625 45.921875 
Q 28.375 48.1875 33.59375 48.1875 
Q 44.578125 48.1875 50.953125 41.515625 
Q 57.328125 34.859375 57.328125 23.390625 
Q 57.328125 12.15625 50.6875 5.359375 
Q 44.046875 -1.421875 33.015625 -1.421875 
Q 20.359375 -1.421875 13.671875 8.265625 
Q 6.984375 17.96875 6.984375 36.375 
Q 6.984375 53.65625 15.1875 63.9375 
Q 23.390625 74.21875 37.203125 74.21875 
Q 40.921875 74.21875 44.703125 73.484375 
Q 48.484375 72.75 52.59375 71.296875 
" id="DejaVuSans-36"/>
      </defs>
      <g style="fill:#d2d2d2;" transform="translate(273.590108 242.517969)scale(0.13 -0.13)">
       <use xlink:href="#DejaVuSans-36"/>
      </g>
     </g>
    </g>
    <g id="xtick_5">
     <g id="line2d_5">
      <g>
       <use style="fill:#d2d2d2;stroke:#d2d2d2;" x="344.380978" xlink:href="#m0090c87d12" y="224.64"/>
      </g>
     </g>
     <g id="text_5">
      <!-- 8 -->
      <defs>
       <path d="M 31.78125 34.625 
Q 24.75 34.625 20.71875 30.859375 
Q 16.703125 27.09375 16.703125 20.515625 
Q 16.703125 13.921875 20.71875 10.15625 
Q 24.75 6.390625 31.78125 6.390625 
Q 38.8125 6.390625 42.859375 10.171875 
Q 46.921875 13.96875 46.921875 20.515625 
Q 46.921875 27.09375 42.890625 30.859375 
Q 38.875 34.625 31.78125 34.625 
M 21.921875 38.8125 
Q 15.578125 40.375 12.03125 44.71875 
Q 8.5 49.078125 8.5 55.328125 
Q 8.5 64.0625 14.71875 69.140625 
Q 20.953125 74.21875 31.78125 74.21875 
Q 42.671875 74.21875 48.875 69.140625 
Q 55.078125 64.0625 55.078125 55.328125 
Q 55.078125 49.078125 51.53125 44.71875 
Q 48 40.375 41.703125 38.8125 
Q 48.828125 37.15625 52.796875 32.3125 
Q 56.78125 27.484375 56.78125 20.515625 
Q 56.78125 9.90625 50.3125 4.234375 
Q 43.84375 -1.421875 31.78125 -1.421875 
Q 19.734375 -1.421875 13.25 4.234375 
Q 6.78125 9.90625 6.78125 20.515625 
Q 6.78125 27.484375 10.78125 32.3125 
Q 14.796875 37.15625 21.921875 38.8125 
M 18.3125 54.390625 
Q 18.3125 48.734375 21.84375 45.5625 
Q 25.390625 42.390625 31.78125 42.390625 
Q 38.140625 42.390625 41.71875 45.5625 
Q 45.3125 48.734375 45.3125 54.390625 
Q 45.3125 60.0625 41.71875 63.234375 
Q 38.140625 66.40625 31.78125 66.40625 
Q 25.390625 66.40625 21.84375 63.234375 
Q 18.3125 60.0625 18.3125 54.390625 
" id="DejaVuSans-38"/>
      </defs>
      <g style="fill:#d2d2d2;" transform="translate(340.245353 242.517969)scale(0.13 -0.13)">
       <use xlink:href="#DejaVuSans-38"/>
      </g>
     </g>
    </g>
    <g id="xtick_6">
     <g id="line2d_6">
      <g>
       <use style="fill:#d2d2d2;stroke:#d2d2d2;" x="411.036222" xlink:href="#m0090c87d12" y="224.64"/>
      </g>
     </g>
     <g id="text_6">
      <!-- 10 -->
      <defs>
       <path d="M 12.40625 8.296875 
L 28.515625 8.296875 
L 28.515625 63.921875 
L 10.984375 60.40625 
L 10.984375 69.390625 
L 28.421875 72.90625 
L 38.28125 72.90625 
L 38.28125 8.296875 
L 54.390625 8.296875 
L 54.390625 0 
L 12.40625 0 
z
" id="DejaVuSans-31"/>
      </defs>
      <g style="fill:#d2d2d2;" transform="translate(402.764972 242.517969)scale(0.13 -0.13)">
       <use xlink:href="#DejaVuSans-31"/>
       <use x="63.623047" xlink:href="#DejaVuSans-30"/>
      </g>
     </g>
    </g>
    <g id="text_7">
     <!-- Murders -->
     <defs>
      <path d="M 9.8125 72.90625 
L 24.515625 72.90625 
L 43.109375 23.296875 
L 61.8125 72.90625 
L 76.515625 72.90625 
L 76.515625 0 
L 66.890625 0 
L 66.890625 64.015625 
L 48.09375 14.015625 
L 38.1875 14.015625 
L 19.390625 64.015625 
L 19.390625 0 
L 9.8125 0 
z
" id="DejaVuSans-4d"/>
      <path d="M 8.5 21.578125 
L 8.5 54.6875 
L 17.484375 54.6875 
L 17.484375 21.921875 
Q 17.484375 14.15625 20.5 10.265625 
Q 23.53125 6.390625 29.59375 6.390625 
Q 36.859375 6.390625 41.078125 11.03125 
Q 45.3125 15.671875 45.3125 23.6875 
L 45.3125 54.6875 
L 54.296875 54.6875 
L 54.296875 0 
L 45.3125 0 
L 45.3125 8.40625 
Q 42.046875 3.421875 37.71875 1 
Q 33.40625 -1.421875 27.6875 -1.421875 
Q 18.265625 -1.421875 13.375 4.4375 
Q 8.5 10.296875 8.5 21.578125 
M 31.109375 56 
z
" id="DejaVuSans-75"/>
      <path d="M 41.109375 46.296875 
Q 39.59375 47.171875 37.8125 47.578125 
Q 36.03125 48 33.890625 48 
Q 26.265625 48 22.1875 43.046875 
Q 18.109375 38.09375 18.109375 28.8125 
L 18.109375 0 
L 9.078125 0 
L 9.078125 54.6875 
L 18.109375 54.6875 
L 18.109375 46.1875 
Q 20.953125 51.171875 25.484375 53.578125 
Q 30.03125 56 36.53125 56 
Q 37.453125 56 38.578125 55.875 
Q 39.703125 55.765625 41.0625 55.515625 
z
" id="DejaVuSans-72"/>
      <path d="M 45.40625 46.390625 
L 45.40625 75.984375 
L 54.390625 75.984375 
L 54.390625 0 
L 45.40625 0 
L 45.40625 8.203125 
Q 42.578125 3.328125 38.25 0.953125 
Q 33.9375 -1.421875 27.875 -1.421875 
Q 17.96875 -1.421875 11.734375 6.484375 
Q 5.515625 14.40625 5.515625 27.296875 
Q 5.515625 40.1875 11.734375 48.09375 
Q 17.96875 56 27.875 56 
Q 33.9375 56 38.25 53.625 
Q 42.578125 51.265625 45.40625 46.390625 
M 14.796875 27.296875 
Q 14.796875 17.390625 18.875 11.75 
Q 22.953125 6.109375 30.078125 6.109375 
Q 37.203125 6.109375 41.296875 11.75 
Q 45.40625 17.390625 45.40625 27.296875 
Q 45.40625 37.203125 41.296875 42.84375 
Q 37.203125 48.484375 30.078125 48.484375 
Q 22.953125 48.484375 18.875 42.84375 
Q 14.796875 37.203125 14.796875 27.296875 
" id="DejaVuSans-64"/>
      <path d="M 56.203125 29.59375 
L 56.203125 25.203125 
L 14.890625 25.203125 
Q 15.484375 15.921875 20.484375 11.0625 
Q 25.484375 6.203125 34.421875 6.203125 
Q 39.59375 6.203125 44.453125 7.46875 
Q 49.3125 8.734375 54.109375 11.28125 
L 54.109375 2.78125 
Q 49.265625 0.734375 44.1875 -0.34375 
Q 39.109375 -1.421875 33.890625 -1.421875 
Q 20.796875 -1.421875 13.15625 6.1875 
Q 5.515625 13.8125 5.515625 26.8125 
Q 5.515625 40.234375 12.765625 48.109375 
Q 20.015625 56 32.328125 56 
Q 43.359375 56 49.78125 48.890625 
Q 56.203125 41.796875 56.203125 29.59375 
M 47.21875 32.234375 
Q 47.125 39.59375 43.09375 43.984375 
Q 39.0625 48.390625 32.421875 48.390625 
Q 24.90625 48.390625 20.390625 44.140625 
Q 15.875 39.890625 15.1875 32.171875 
z
" id="DejaVuSans-65"/>
      <path d="M 44.28125 53.078125 
L 44.28125 44.578125 
Q 40.484375 46.53125 36.375 47.5 
Q 32.28125 48.484375 27.875 48.484375 
Q 21.1875 48.484375 17.84375 46.4375 
Q 14.5 44.390625 14.5 40.28125 
Q 14.5 37.15625 16.890625 35.375 
Q 19.28125 33.59375 26.515625 31.984375 
L 29.59375 31.296875 
Q 39.15625 29.25 43.1875 25.515625 
Q 47.21875 21.78125 47.21875 15.09375 
Q 47.21875 7.46875 41.1875 3.015625 
Q 35.15625 -1.421875 24.609375 -1.421875 
Q 20.21875 -1.421875 15.453125 -0.5625 
Q 10.6875 0.296875 5.421875 2 
L 5.421875 11.28125 
Q 10.40625 8.6875 15.234375 7.390625 
Q 20.0625 6.109375 24.8125 6.109375 
Q 31.15625 6.109375 34.5625 8.28125 
Q 37.984375 10.453125 37.984375 14.40625 
Q 37.984375 18.0625 35.515625 20.015625 
Q 33.0625 21.96875 24.703125 23.78125 
L 21.578125 24.515625 
Q 13.234375 26.265625 9.515625 29.90625 
Q 5.8125 33.546875 5.8125 39.890625 
Q 5.8125 47.609375 11.28125 51.796875 
Q 16.75 56 26.8125 56 
Q 31.78125 56 36.171875 55.265625 
Q 40.578125 54.546875 44.28125 53.078125 
" id="DejaVuSans-73"/>
     </defs>
     <g style="fill:#d2d2d2;" transform="translate(217.8425 261.379063)scale(0.16 -0.16)">
      <use xlink:href="#DejaVuSans-4d"/>
      <use x="86.279297" xlink:href="#DejaVuSans-75"/>
      <use x="149.658203" xlink:href="#DejaVuSans-72"/>
      <use x="190.755859" xlink:href="#DejaVuSans-64"/>
      <use x="254.232422" xlink:href="#DejaVuSans-65"/>
      <use x="315.755859" xlink:href="#DejaVuSans-72"/>
      <use x="356.869141" xlink:href="#DejaVuSans-73"/>
     </g>
     <!-- (per 100,000 population) -->
     <defs>
      <path d="M 31 75.875 
Q 24.46875 64.65625 21.28125 53.65625 
Q 18.109375 42.671875 18.109375 31.390625 
Q 18.109375 20.125 21.3125 9.0625 
Q 24.515625 -2 31 -13.1875 
L 23.1875 -13.1875 
Q 15.875 -1.703125 12.234375 9.375 
Q 8.59375 20.453125 8.59375 31.390625 
Q 8.59375 42.28125 12.203125 53.3125 
Q 15.828125 64.359375 23.1875 75.875 
z
" id="DejaVuSans-28"/>
      <path d="M 18.109375 8.203125 
L 18.109375 -20.796875 
L 9.078125 -20.796875 
L 9.078125 54.6875 
L 18.109375 54.6875 
L 18.109375 46.390625 
Q 20.953125 51.265625 25.265625 53.625 
Q 29.59375 56 35.59375 56 
Q 45.5625 56 51.78125 48.09375 
Q 58.015625 40.1875 58.015625 27.296875 
Q 58.015625 14.40625 51.78125 6.484375 
Q 45.5625 -1.421875 35.59375 -1.421875 
Q 29.59375 -1.421875 25.265625 0.953125 
Q 20.953125 3.328125 18.109375 8.203125 
M 48.6875 27.296875 
Q 48.6875 37.203125 44.609375 42.84375 
Q 40.53125 48.484375 33.40625 48.484375 
Q 26.265625 48.484375 22.1875 42.84375 
Q 18.109375 37.203125 18.109375 27.296875 
Q 18.109375 17.390625 22.1875 11.75 
Q 26.265625 6.109375 33.40625 6.109375 
Q 40.53125 6.109375 44.609375 11.75 
Q 48.6875 17.390625 48.6875 27.296875 
" id="DejaVuSans-70"/>
      <path id="DejaVuSans-20"/>
      <path d="M 11.71875 12.40625 
L 22.015625 12.40625 
L 22.015625 4 
L 14.015625 -11.625 
L 7.71875 -11.625 
L 11.71875 4 
z
" id="DejaVuSans-2c"/>
      <path d="M 30.609375 48.390625 
Q 23.390625 48.390625 19.1875 42.75 
Q 14.984375 37.109375 14.984375 27.296875 
Q 14.984375 17.484375 19.15625 11.84375 
Q 23.34375 6.203125 30.609375 6.203125 
Q 37.796875 6.203125 41.984375 11.859375 
Q 46.1875 17.53125 46.1875 27.296875 
Q 46.1875 37.015625 41.984375 42.703125 
Q 37.796875 48.390625 30.609375 48.390625 
M 30.609375 56 
Q 42.328125 56 49.015625 48.375 
Q 55.71875 40.765625 55.71875 27.296875 
Q 55.71875 13.875 49.015625 6.21875 
Q 42.328125 -1.421875 30.609375 -1.421875 
Q 18.84375 -1.421875 12.171875 6.21875 
Q 5.515625 13.875 5.515625 27.296875 
Q 5.515625 40.765625 12.171875 48.375 
Q 18.84375 56 30.609375 56 
" id="DejaVuSans-6f"/>
      <path d="M 9.421875 75.984375 
L 18.40625 75.984375 
L 18.40625 0 
L 9.421875 0 
z
" id="DejaVuSans-6c"/>
      <path d="M 34.28125 27.484375 
Q 23.390625 27.484375 19.1875 25 
Q 14.984375 22.515625 14.984375 16.5 
Q 14.984375 11.71875 18.140625 8.90625 
Q 21.296875 6.109375 26.703125 6.109375 
Q 34.1875 6.109375 38.703125 11.40625 
Q 43.21875 16.703125 43.21875 25.484375 
L 43.21875 27.484375 
z
M 52.203125 31.203125 
L 52.203125 0 
L 43.21875 0 
L 43.21875 8.296875 
Q 40.140625 3.328125 35.546875 0.953125 
Q 30.953125 -1.421875 24.3125 -1.421875 
Q 15.921875 -1.421875 10.953125 3.296875 
Q 6 8.015625 6 15.921875 
Q 6 25.140625 12.171875 29.828125 
Q 18.359375 34.515625 30.609375 34.515625 
L 43.21875 34.515625 
L 43.21875 35.40625 
Q 43.21875 41.609375 39.140625 45 
Q 35.0625 48.390625 27.6875 48.390625 
Q 23 48.390625 18.546875 47.265625 
Q 14.109375 46.140625 10.015625 43.890625 
L 10.015625 52.203125 
Q 14.9375 54.109375 19.578125 55.046875 
Q 24.21875 56 28.609375 56 
Q 40.484375 56 46.34375 49.84375 
Q 52.203125 43.703125 52.203125 31.203125 
" id="DejaVuSans-61"/>
      <path d="M 18.3125 70.21875 
L 18.3125 54.6875 
L 36.8125 54.6875 
L 36.8125 47.703125 
L 18.3125 47.703125 
L 18.3125 18.015625 
Q 18.3125 11.328125 20.140625 9.421875 
Q 21.96875 7.515625 27.59375 7.515625 
L 36.8125 7.515625 
L 36.8125 0 
L 27.59375 0 
Q 17.1875 0 13.234375 3.875 
Q 9.28125 7.765625 9.28125 18.015625 
L 9.28125 47.703125 
L 2.6875 47.703125 
L 2.6875 54.6875 
L 9.28125 54.6875 
L 9.28125 70.21875 
z
" id="DejaVuSans-74"/>
      <path d="M 9.421875 54.6875 
L 18.40625 54.6875 
L 18.40625 0 
L 9.421875 0 
z
M 9.421875 75.984375 
L 18.40625 75.984375 
L 18.40625 64.59375 
L 9.421875 64.59375 
z
" id="DejaVuSans-69"/>
      <path d="M 54.890625 33.015625 
L 54.890625 0 
L 45.90625 0 
L 45.90625 32.71875 
Q 45.90625 40.484375 42.875 44.328125 
Q 39.84375 48.1875 33.796875 48.1875 
Q 26.515625 48.1875 22.3125 43.546875 
Q 18.109375 38.921875 18.109375 30.90625 
L 18.109375 0 
L 9.078125 0 
L 9.078125 54.6875 
L 18.109375 54.6875 
L 18.109375 46.1875 
Q 21.34375 51.125 25.703125 53.5625 
Q 30.078125 56 35.796875 56 
Q 45.21875 56 50.046875 50.171875 
Q 54.890625 44.34375 54.890625 33.015625 
" id="DejaVuSans-6e"/>
      <path d="M 8.015625 75.875 
L 15.828125 75.875 
Q 23.140625 64.359375 26.78125 53.3125 
Q 30.421875 42.28125 30.421875 31.390625 
Q 30.421875 20.453125 26.78125 9.375 
Q 23.140625 -1.703125 15.828125 -13.1875 
L 8.015625 -13.1875 
Q 14.5 -2 17.703125 9.0625 
Q 20.90625 20.125 20.90625 31.390625 
Q 20.90625 42.671875 17.703125 53.65625 
Q 14.5 64.65625 8.015625 75.875 
" id="DejaVuSans-29"/>
     </defs>
     <g style="fill:#d2d2d2;" transform="translate(150.28875 279.295563)scale(0.16 -0.16)">
      <use xlink:href="#DejaVuSans-28"/>
      <use x="39.013672" xlink:href="#DejaVuSans-70"/>
      <use x="102.490234" xlink:href="#DejaVuSans-65"/>
      <use x="164.013672" xlink:href="#DejaVuSans-72"/>
      <use x="205.126953" xlink:href="#DejaVuSans-20"/>
      <use x="236.914062" xlink:href="#DejaVuSans-31"/>
      <use x="300.537109" xlink:href="#DejaVuSans-30"/>
      <use x="364.160156" xlink:href="#DejaVuSans-30"/>
      <use x="427.783203" xlink:href="#DejaVuSans-2c"/>
      <use x="459.570312" xlink:href="#DejaVuSans-30"/>
      <use x="523.193359" xlink:href="#DejaVuSans-30"/>
      <use x="586.816406" xlink:href="#DejaVuSans-30"/>
      <use x="650.439453" xlink:href="#DejaVuSans-20"/>
      <use x="682.226562" xlink:href="#DejaVuSans-70"/>
      <use x="745.703125" xlink:href="#DejaVuSans-6f"/>
      <use x="806.884766" xlink:href="#DejaVuSans-70"/>
      <use x="870.361328" xlink:href="#DejaVuSans-75"/>
      <use x="933.740234" xlink:href="#DejaVuSans-6c"/>
      <use x="961.523438" xlink:href="#DejaVuSans-61"/>
      <use x="1022.802734" xlink:href="#DejaVuSans-74"/>
      <use x="1062.011719" xlink:href="#DejaVuSans-69"/>
      <use x="1089.794922" xlink:href="#DejaVuSans-6f"/>
      <use x="1150.976562" xlink:href="#DejaVuSans-6e"/>
      <use x="1214.355469" xlink:href="#DejaVuSans-29"/>
     </g>
    </g>
   </g>
   <g id="matplotlib.axis_2">
    <g id="ytick_1">
     <g id="line2d_7">
      <defs>
       <path d="M 0 0 
L -4 0 
" id="me12f187d2d" style="stroke:#d2d2d2;"/>
      </defs>
      <g>
       <use style="fill:#d2d2d2;stroke:#d2d2d2;" x="77.76" xlink:href="#me12f187d2d" y="195.364757"/>
      </g>
     </g>
     <g id="text_8">
      <!-- 400 -->
      <g style="fill:#d2d2d2;" transform="translate(44.94625 200.303741)scale(0.13 -0.13)">
       <use xlink:href="#DejaVuSans-34"/>
       <use x="63.623047" xlink:href="#DejaVuSans-30"/>
       <use x="127.246094" xlink:href="#DejaVuSans-30"/>
      </g>
     </g>
    </g>
    <g id="ytick_2">
     <g id="line2d_8">
      <g>
       <use style="fill:#d2d2d2;stroke:#d2d2d2;" x="77.76" xlink:href="#me12f187d2d" y="151.201909"/>
      </g>
     </g>
     <g id="text_9">
      <!-- 600 -->
      <g style="fill:#d2d2d2;" transform="translate(44.94625 156.140894)scale(0.13 -0.13)">
       <use xlink:href="#DejaVuSans-36"/>
       <use x="63.623047" xlink:href="#DejaVuSans-30"/>
       <use x="127.246094" xlink:href="#DejaVuSans-30"/>
      </g>
     </g>
    </g>
    <g id="ytick_3">
     <g id="line2d_9">
      <g>
       <use style="fill:#d2d2d2;stroke:#d2d2d2;" x="77.76" xlink:href="#me12f187d2d" y="107.039061"/>
      </g>
     </g>
     <g id="text_10">
      <!-- 800 -->
      <g style="fill:#d2d2d2;" transform="translate(44.94625 111.978046)scale(0.13 -0.13)">
       <use xlink:href="#DejaVuSans-38"/>
       <use x="63.623047" xlink:href="#DejaVuSans-30"/>
       <use x="127.246094" xlink:href="#DejaVuSans-30"/>
      </g>
     </g>
    </g>
    <g id="ytick_4">
     <g id="line2d_10">
      <g>
       <use style="fill:#d2d2d2;stroke:#d2d2d2;" x="77.76" xlink:href="#me12f187d2d" y="62.876214"/>
      </g>
     </g>
     <g id="text_11">
      <!-- 1000 -->
      <g style="fill:#d2d2d2;" transform="translate(36.675 67.815198)scale(0.13 -0.13)">
       <use xlink:href="#DejaVuSans-31"/>
       <use x="63.623047" xlink:href="#DejaVuSans-30"/>
       <use x="127.246094" xlink:href="#DejaVuSans-30"/>
       <use x="190.869141" xlink:href="#DejaVuSans-30"/>
      </g>
     </g>
    </g>
    <g id="ytick_5">
     <g id="line2d_11">
      <g>
       <use style="fill:#d2d2d2;stroke:#d2d2d2;" x="77.76" xlink:href="#me12f187d2d" y="18.713366"/>
      </g>
     </g>
     <g id="text_12">
      <!-- 1200 -->
      <g style="fill:#d2d2d2;" transform="translate(36.675 23.65235)scale(0.13 -0.13)">
       <use xlink:href="#DejaVuSans-31"/>
       <use x="63.623047" xlink:href="#DejaVuSans-32"/>
       <use x="127.246094" xlink:href="#DejaVuSans-30"/>
       <use x="190.869141" xlink:href="#DejaVuSans-30"/>
      </g>
     </g>
    </g>
    <g id="text_13">
     <!-- Burglaries -->
     <defs>
      <path d="M 19.671875 34.8125 
L 19.671875 8.109375 
L 35.5 8.109375 
Q 43.453125 8.109375 47.28125 11.40625 
Q 51.125 14.703125 51.125 21.484375 
Q 51.125 28.328125 47.28125 31.5625 
Q 43.453125 34.8125 35.5 34.8125 
z
M 19.671875 64.796875 
L 19.671875 42.828125 
L 34.28125 42.828125 
Q 41.5 42.828125 45.03125 45.53125 
Q 48.578125 48.25 48.578125 53.8125 
Q 48.578125 59.328125 45.03125 62.0625 
Q 41.5 64.796875 34.28125 64.796875 
z
M 9.8125 72.90625 
L 35.015625 72.90625 
Q 46.296875 72.90625 52.390625 68.21875 
Q 58.5 63.53125 58.5 54.890625 
Q 58.5 48.1875 55.375 44.234375 
Q 52.25 40.28125 46.1875 39.3125 
Q 53.46875 37.75 57.5 32.78125 
Q 61.53125 27.828125 61.53125 20.40625 
Q 61.53125 10.640625 54.890625 5.3125 
Q 48.25 0 35.984375 0 
L 9.8125 0 
z
" id="DejaVuSans-42"/>
      <path d="M 45.40625 27.984375 
Q 45.40625 37.75 41.375 43.109375 
Q 37.359375 48.484375 30.078125 48.484375 
Q 22.859375 48.484375 18.828125 43.109375 
Q 14.796875 37.75 14.796875 27.984375 
Q 14.796875 18.265625 18.828125 12.890625 
Q 22.859375 7.515625 30.078125 7.515625 
Q 37.359375 7.515625 41.375 12.890625 
Q 45.40625 18.265625 45.40625 27.984375 
M 54.390625 6.78125 
Q 54.390625 -7.171875 48.1875 -13.984375 
Q 42 -20.796875 29.203125 -20.796875 
Q 24.46875 -20.796875 20.265625 -20.09375 
Q 16.0625 -19.390625 12.109375 -17.921875 
L 12.109375 -9.1875 
Q 16.0625 -11.328125 19.921875 -12.34375 
Q 23.78125 -13.375 27.78125 -13.375 
Q 36.625 -13.375 41.015625 -8.765625 
Q 45.40625 -4.15625 45.40625 5.171875 
L 45.40625 9.625 
Q 42.625 4.78125 38.28125 2.390625 
Q 33.9375 0 27.875 0 
Q 17.828125 0 11.671875 7.65625 
Q 5.515625 15.328125 5.515625 27.984375 
Q 5.515625 40.671875 11.671875 48.328125 
Q 17.828125 56 27.875 56 
Q 33.9375 56 38.28125 53.609375 
Q 42.625 51.21875 45.40625 46.390625 
L 45.40625 54.6875 
L 54.390625 54.6875 
z
" id="DejaVuSans-67"/>
     </defs>
     <g style="fill:#d2d2d2;" transform="translate(11.431 157.29125)rotate(-90)scale(0.16 -0.16)">
      <use xlink:href="#DejaVuSans-42"/>
      <use x="68.603516" xlink:href="#DejaVuSans-75"/>
      <use x="131.982422" xlink:href="#DejaVuSans-72"/>
      <use x="173.080078" xlink:href="#DejaVuSans-67"/>
      <use x="236.556641" xlink:href="#DejaVuSans-6c"/>
      <use x="264.339844" xlink:href="#DejaVuSans-61"/>
      <use x="325.619141" xlink:href="#DejaVuSans-72"/>
      <use x="366.732422" xlink:href="#DejaVuSans-69"/>
      <use x="394.515625" xlink:href="#DejaVuSans-65"/>
      <use x="456.039062" xlink:href="#DejaVuSans-73"/>
     </g>
     <!-- (per 100,000 population) -->
     <g style="fill:#d2d2d2;" transform="translate(29.3475 216.91125)rotate(-90)scale(0.16 -0.16)">
      <use xlink:href="#DejaVuSans-28"/>
      <use x="39.013672" xlink:href="#DejaVuSans-70"/>
      <use x="102.490234" xlink:href="#DejaVuSans-65"/>
      <use x="164.013672" xlink:href="#DejaVuSans-72"/>
      <use x="205.126953" xlink:href="#DejaVuSans-20"/>
      <use x="236.914062" xlink:href="#DejaVuSans-31"/>
      <use x="300.537109" xlink:href="#DejaVuSans-30"/>
      <use x="364.160156" xlink:href="#DejaVuSans-30"/>
      <use x="427.783203" xlink:href="#DejaVuSans-2c"/>
      <use x="459.570312" xlink:href="#DejaVuSans-30"/>
      <use x="523.193359" xlink:href="#DejaVuSans-30"/>
      <use x="586.816406" xlink:href="#DejaVuSans-30"/>
      <use x="650.439453" xlink:href="#DejaVuSans-20"/>
      <use x="682.226562" xlink:href="#DejaVuSans-70"/>
      <use x="745.703125" xlink:href="#DejaVuSans-6f"/>
      <use x="806.884766" xlink:href="#DejaVuSans-70"/>
      <use x="870.361328" xlink:href="#DejaVuSans-75"/>
      <use x="933.740234" xlink:href="#DejaVuSans-6c"/>
      <use x="961.523438" xlink:href="#DejaVuSans-61"/>
      <use x="1022.802734" xlink:href="#DejaVuSans-74"/>
      <use x="1062.011719" xlink:href="#DejaVuSans-69"/>
      <use x="1089.794922" xlink:href="#DejaVuSans-6f"/>
      <use x="1150.976562" xlink:href="#DejaVuSans-6e"/>
      <use x="1214.355469" xlink:href="#DejaVuSans-29"/>
     </g>
    </g>
   </g>
   <g id="patch_3">
    <path d="M 77.76 224.64 
L 77.76 8.64 
" style="fill:none;stroke:#d2d2d2;stroke-linecap:square;stroke-linejoin:miter;"/>
   </g>
   <g id="patch_4">
    <path d="M 77.76 224.64 
L 423.36 224.64 
" style="fill:none;stroke:#d2d2d2;stroke-linecap:square;stroke-linejoin:miter;"/>
   </g>
   <g id="text_14">
    <!-- AL -->
    <defs>
     <path d="M 34.1875 63.1875 
L 20.796875 26.90625 
L 47.609375 26.90625 
z
M 28.609375 72.90625 
L 39.796875 72.90625 
L 67.578125 0 
L 57.328125 0 
L 50.6875 18.703125 
L 17.828125 18.703125 
L 11.1875 0 
L 0.78125 0 
z
" id="DejaVuSans-41"/>
     <path d="M 9.8125 72.90625 
L 19.671875 72.90625 
L 19.671875 8.296875 
L 55.171875 8.296875 
L 55.171875 0 
L 9.8125 0 
z
" id="DejaVuSans-4c"/>
    </defs>
    <g style="fill:#636c72;" transform="translate(348.695859 74.122956)scale(0.037875 -0.037875)">
     <use xlink:href="#DejaVuSans-41"/>
     <use x="68.408203" xlink:href="#DejaVuSans-4c"/>
    </g>
   </g>
   <g id="text_15">
    <!-- AK -->
    <defs>
     <path d="M 9.8125 72.90625 
L 19.671875 72.90625 
L 19.671875 42.09375 
L 52.390625 72.90625 
L 65.09375 72.90625 
L 28.90625 38.921875 
L 67.671875 0 
L 54.6875 0 
L 19.671875 35.109375 
L 19.671875 0 
L 9.8125 0 
z
" id="DejaVuSans-4b"/>
    </defs>
    <g style="fill:#636c72;" transform="translate(237.358833 146.387536)scale(0.005579 -0.005579)">
     <use xlink:href="#DejaVuSans-41"/>
     <use x="68.408203" xlink:href="#DejaVuSans-4b"/>
    </g>
   </g>
   <g id="text_16">
    <!-- AZ -->
    <defs>
     <path d="M 5.609375 72.90625 
L 62.890625 72.90625 
L 62.890625 65.375 
L 16.796875 8.296875 
L 64.015625 8.296875 
L 64.015625 0 
L 4.5 0 
L 4.5 7.515625 
L 50.59375 64.59375 
L 5.609375 64.59375 
z
" id="DejaVuSans-5a"/>
    </defs>
    <g style="fill:#636c72;" transform="translate(324.308866 75.644129)scale(0.04979 -0.04979)">
     <use xlink:href="#DejaVuSans-41"/>
     <use x="68.408203" xlink:href="#DejaVuSans-5a"/>
    </g>
   </g>
   <g id="text_17">
    <!-- AR -->
    <defs>
     <path d="M 44.390625 34.1875 
Q 47.5625 33.109375 50.5625 29.59375 
Q 53.5625 26.078125 56.59375 19.921875 
L 66.609375 0 
L 56 0 
L 46.6875 18.703125 
Q 43.0625 26.03125 39.671875 28.421875 
Q 36.28125 30.8125 30.421875 30.8125 
L 19.671875 30.8125 
L 19.671875 0 
L 9.8125 0 
L 9.8125 72.90625 
L 32.078125 72.90625 
Q 44.578125 72.90625 50.734375 67.671875 
Q 56.890625 62.453125 56.890625 51.90625 
Q 56.890625 45.015625 53.6875 40.46875 
Q 50.484375 35.9375 44.390625 34.1875 
M 19.671875 64.796875 
L 19.671875 38.921875 
L 32.078125 38.921875 
Q 39.203125 38.921875 42.84375 42.21875 
Q 46.484375 45.515625 46.484375 51.90625 
Q 46.484375 58.296875 42.84375 61.546875 
Q 39.203125 64.796875 32.078125 64.796875 
z
" id="DejaVuSans-52"/>
    </defs>
    <g style="fill:#636c72;" transform="translate(299.460007 44.833715)scale(0.023135 -0.023135)">
     <use xlink:href="#DejaVuSans-41"/>
     <use x="68.408203" xlink:href="#DejaVuSans-52"/>
    </g>
   </g>
   <g id="text_18">
    <!-- CA -->
    <defs>
     <path d="M 64.40625 67.28125 
L 64.40625 56.890625 
Q 59.421875 61.53125 53.78125 63.8125 
Q 48.140625 66.109375 41.796875 66.109375 
Q 29.296875 66.109375 22.65625 58.46875 
Q 16.015625 50.828125 16.015625 36.375 
Q 16.015625 21.96875 22.65625 14.328125 
Q 29.296875 6.6875 41.796875 6.6875 
Q 48.140625 6.6875 53.78125 8.984375 
Q 59.421875 11.28125 64.40625 15.921875 
L 64.40625 5.609375 
Q 59.234375 2.09375 53.4375 0.328125 
Q 47.65625 -1.421875 41.21875 -1.421875 
Q 24.65625 -1.421875 15.125 8.703125 
Q 5.609375 18.84375 5.609375 36.375 
Q 5.609375 53.953125 15.125 64.078125 
Q 24.65625 74.21875 41.21875 74.21875 
Q 47.75 74.21875 53.53125 72.484375 
Q 59.328125 70.75 64.40625 67.28125 
" id="DejaVuSans-43"/>
    </defs>
    <g style="fill:#636c72;" transform="translate(287.103365 138.830985)scale(0.298294 -0.298294)">
     <use xlink:href="#DejaVuSans-43"/>
     <use x="69.824219" xlink:href="#DejaVuSans-41"/>
    </g>
   </g>
   <g id="text_19">
    <!-- CO -->
    <defs>
     <path d="M 39.40625 66.21875 
Q 28.65625 66.21875 22.328125 58.203125 
Q 16.015625 50.203125 16.015625 36.375 
Q 16.015625 22.609375 22.328125 14.59375 
Q 28.65625 6.59375 39.40625 6.59375 
Q 50.140625 6.59375 56.421875 14.59375 
Q 62.703125 22.609375 62.703125 36.375 
Q 62.703125 50.203125 56.421875 58.203125 
Q 50.140625 66.21875 39.40625 66.21875 
M 39.40625 74.21875 
Q 54.734375 74.21875 63.90625 63.9375 
Q 73.09375 53.65625 73.09375 36.375 
Q 73.09375 19.140625 63.90625 8.859375 
Q 54.734375 -1.421875 39.40625 -1.421875 
Q 24.03125 -1.421875 14.8125 8.828125 
Q 5.609375 19.09375 5.609375 36.375 
Q 5.609375 53.65625 14.8125 63.9375 
Q 24.03125 74.21875 39.40625 74.21875 
" id="DejaVuSans-4f"/>
    </defs>
    <g style="fill:#636c72;" transform="translate(198.187434 120.299744)scale(0.03884 -0.03884)">
     <use xlink:href="#DejaVuSans-43"/>
     <use x="69.824219" xlink:href="#DejaVuSans-4f"/>
    </g>
   </g>
   <g id="text_20">
    <!-- CT -->
    <defs>
     <path d="M -0.296875 72.90625 
L 61.375 72.90625 
L 61.375 64.59375 
L 35.5 64.59375 
L 35.5 0 
L 25.59375 0 
L 25.59375 64.59375 
L -0.296875 64.59375 
z
" id="DejaVuSans-54"/>
    </defs>
    <g style="fill:#636c72;" transform="translate(172.513373 187.972173)scale(0.028978 -0.028978)">
     <use xlink:href="#DejaVuSans-43"/>
     <use x="69.824219" xlink:href="#DejaVuSans-54"/>
    </g>
   </g>
   <g id="text_21">
    <!-- DE -->
    <defs>
     <path d="M 19.671875 64.796875 
L 19.671875 8.109375 
L 31.59375 8.109375 
Q 46.6875 8.109375 53.6875 14.9375 
Q 60.6875 21.78125 60.6875 36.53125 
Q 60.6875 51.171875 53.6875 57.984375 
Q 46.6875 64.796875 31.59375 64.796875 
z
M 9.8125 72.90625 
L 30.078125 72.90625 
Q 51.265625 72.90625 61.171875 64.09375 
Q 71.09375 55.28125 71.09375 36.53125 
Q 71.09375 17.671875 61.125 8.828125 
Q 51.171875 0 30.078125 0 
L 9.8125 0 
z
" id="DejaVuSans-44"/>
     <path d="M 9.8125 72.90625 
L 55.90625 72.90625 
L 55.90625 64.59375 
L 19.671875 64.59375 
L 19.671875 43.015625 
L 54.390625 43.015625 
L 54.390625 34.71875 
L 19.671875 34.71875 
L 19.671875 8.296875 
L 56.78125 8.296875 
L 56.78125 0 
L 9.8125 0 
z
" id="DejaVuSans-45"/>
    </defs>
    <g style="fill:#636c72;" transform="translate(223.910936 131.764658)scale(0.006999 -0.006999)">
     <use xlink:href="#DejaVuSans-44"/>
     <use x="77.001953" xlink:href="#DejaVuSans-45"/>
    </g>
   </g>
   <g id="text_22">
    <!-- FL -->
    <defs>
     <path d="M 9.8125 72.90625 
L 51.703125 72.90625 
L 51.703125 64.59375 
L 19.671875 64.59375 
L 19.671875 43.109375 
L 48.578125 43.109375 
L 48.578125 34.8125 
L 19.671875 34.8125 
L 19.671875 0 
L 9.8125 0 
z
" id="DejaVuSans-46"/>
    </defs>
    <g style="fill:#636c72;" transform="translate(236.007506 83.239586)scale(0.148199 -0.148199)">
     <use xlink:href="#DejaVuSans-46"/>
     <use x="57.519531" xlink:href="#DejaVuSans-4c"/>
    </g>
   </g>
   <g id="text_23">
    <!-- GA -->
    <defs>
     <path d="M 59.515625 10.40625 
L 59.515625 29.984375 
L 43.40625 29.984375 
L 43.40625 38.09375 
L 69.28125 38.09375 
L 69.28125 6.78125 
Q 63.578125 2.734375 56.6875 0.65625 
Q 49.8125 -1.421875 42 -1.421875 
Q 24.90625 -1.421875 15.25 8.5625 
Q 5.609375 18.5625 5.609375 36.375 
Q 5.609375 54.25 15.25 64.234375 
Q 24.90625 74.21875 42 74.21875 
Q 49.125 74.21875 55.546875 72.453125 
Q 61.96875 70.703125 67.390625 67.28125 
L 67.390625 56.78125 
Q 61.921875 61.421875 55.765625 63.765625 
Q 49.609375 66.109375 42.828125 66.109375 
Q 29.4375 66.109375 22.71875 58.640625 
Q 16.015625 51.171875 16.015625 36.375 
Q 16.015625 21.625 22.71875 14.15625 
Q 29.4375 6.6875 42.828125 6.6875 
Q 48.046875 6.6875 52.140625 7.59375 
Q 56.25 8.5 59.515625 10.40625 
" id="DejaVuSans-47"/>
    </defs>
    <g style="fill:#636c72;" transform="translate(278.861135 80.204331)scale(0.075812 -0.075812)">
     <use xlink:href="#DejaVuSans-47"/>
     <use x="77.490234" xlink:href="#DejaVuSans-41"/>
    </g>
   </g>
   <g id="text_24">
    <!-- HI -->
    <defs>
     <path d="M 9.8125 72.90625 
L 19.671875 72.90625 
L 19.671875 43.015625 
L 55.515625 43.015625 
L 55.515625 72.90625 
L 65.375 72.90625 
L 65.375 0 
L 55.515625 0 
L 55.515625 34.71875 
L 19.671875 34.71875 
L 19.671875 0 
L 9.8125 0 
z
" id="DejaVuSans-48"/>
     <path d="M 9.8125 72.90625 
L 19.671875 72.90625 
L 19.671875 0 
L 9.8125 0 
z
" id="DejaVuSans-49"/>
    </defs>
    <g style="fill:#636c72;" transform="translate(140.530122 114.418339)scale(0.010551 -0.010551)">
     <use xlink:href="#DejaVuSans-48"/>
     <use x="75.195312" xlink:href="#DejaVuSans-49"/>
    </g>
   </g>
   <g id="text_25">
    <!-- ID -->
    <g style="fill:#636c72;" transform="translate(157.113567 159.39077)scale(0.011882 -0.011882)">
     <use xlink:href="#DejaVuSans-49"/>
     <use x="29.492188" xlink:href="#DejaVuSans-44"/>
    </g>
   </g>
   <g id="text_26">
    <!-- IL -->
    <g style="fill:#636c72;" transform="translate(273.225313 152.592755)scale(0.10562 -0.10562)">
     <use xlink:href="#DejaVuSans-49"/>
     <use x="29.492188" xlink:href="#DejaVuSans-4c"/>
    </g>
   </g>
   <g id="text_27">
    <!-- IN -->
    <defs>
     <path d="M 9.8125 72.90625 
L 23.09375 72.90625 
L 55.421875 11.921875 
L 55.421875 72.90625 
L 64.984375 72.90625 
L 64.984375 0 
L 51.703125 0 
L 19.390625 60.984375 
L 19.390625 0 
L 9.8125 0 
z
" id="DejaVuSans-4e"/>
    </defs>
    <g style="fill:#636c72;" transform="translate(265.009619 131.088331)scale(0.052109 -0.052109)">
     <use xlink:href="#DejaVuSans-49"/>
     <use x="29.492188" xlink:href="#DejaVuSans-4e"/>
    </g>
   </g>
   <g id="text_28">
    <!-- IA -->
    <g style="fill:#636c72;" transform="translate(119.882702 150.466918)scale(0.024579 -0.024579)">
     <use xlink:href="#DejaVuSans-49"/>
     <use x="29.492188" xlink:href="#DejaVuSans-41"/>
    </g>
   </g>
   <g id="text_29">
    <!-- KS -->
    <defs>
     <path d="M 53.515625 70.515625 
L 53.515625 60.890625 
Q 47.90625 63.578125 42.921875 64.890625 
Q 37.9375 66.21875 33.296875 66.21875 
Q 25.25 66.21875 20.875 63.09375 
Q 16.5 59.96875 16.5 54.203125 
Q 16.5 49.359375 19.40625 46.890625 
Q 22.3125 44.4375 30.421875 42.921875 
L 36.375 41.703125 
Q 47.40625 39.59375 52.65625 34.296875 
Q 57.90625 29 57.90625 20.125 
Q 57.90625 9.515625 50.796875 4.046875 
Q 43.703125 -1.421875 29.984375 -1.421875 
Q 24.8125 -1.421875 18.96875 -0.25 
Q 13.140625 0.921875 6.890625 3.21875 
L 6.890625 13.375 
Q 12.890625 10.015625 18.65625 8.296875 
Q 24.421875 6.59375 29.984375 6.59375 
Q 38.421875 6.59375 43.015625 9.90625 
Q 47.609375 13.234375 47.609375 19.390625 
Q 47.609375 24.75 44.3125 27.78125 
Q 41.015625 30.8125 33.5 32.328125 
L 27.484375 33.5 
Q 16.453125 35.6875 11.515625 40.375 
Q 6.59375 45.0625 6.59375 53.421875 
Q 6.59375 63.09375 13.40625 68.65625 
Q 20.21875 74.21875 32.171875 74.21875 
Q 37.3125 74.21875 42.625 73.28125 
Q 47.953125 72.359375 53.515625 70.515625 
" id="DejaVuSans-53"/>
    </defs>
    <g style="fill:#636c72;" transform="translate(199.597786 132.135744)scale(0.022848 -0.022848)">
     <use xlink:href="#DejaVuSans-4b"/>
     <use x="65.576172" xlink:href="#DejaVuSans-53"/>
    </g>
   </g>
   <g id="text_30">
    <!-- KY -->
    <defs>
     <path d="M -0.203125 72.90625 
L 10.40625 72.90625 
L 30.609375 42.921875 
L 50.6875 72.90625 
L 61.28125 72.90625 
L 35.5 34.71875 
L 35.5 0 
L 25.59375 0 
L 25.59375 34.71875 
z
" id="DejaVuSans-59"/>
    </defs>
    <g style="fill:#636c72;" transform="translate(228.860739 144.655935)scale(0.034852 -0.034852)">
     <use xlink:href="#DejaVuSans-4b"/>
     <use x="65.529297" xlink:href="#DejaVuSans-59"/>
    </g>
   </g>
   <g id="text_31">
    <!-- LA -->
    <g style="fill:#636c72;" transform="translate(405.376725 92.483811)scale(0.037481 -0.037481)">
     <use xlink:href="#DejaVuSans-4c"/>
     <use x="55.744141" xlink:href="#DejaVuSans-41"/>
    </g>
   </g>
   <g id="text_32">
    <!-- ME -->
    <g style="fill:#636c72;" transform="translate(123.601805 178.332446)scale(0.01093 -0.01093)">
     <use xlink:href="#DejaVuSans-4d"/>
     <use x="86.279297" xlink:href="#DejaVuSans-45"/>
    </g>
   </g>
   <g id="text_33">
    <!-- MD -->
    <g style="fill:#636c72;" transform="translate(403.905456 143.343889)scale(0.046521 -0.046521)">
     <use xlink:href="#DejaVuSans-4d"/>
     <use x="86.279297" xlink:href="#DejaVuSans-44"/>
    </g>
   </g>
   <g id="text_34">
    <!-- MA -->
    <g style="fill:#636c72;" transform="translate(163.5854 165.691729)scale(0.053775 -0.053775)">
     <use xlink:href="#DejaVuSans-4d"/>
     <use x="86.279297" xlink:href="#DejaVuSans-41"/>
    </g>
   </g>
   <g id="text_35">
    <!-- MI -->
    <g style="fill:#636c72;" transform="translate(276.190591 132.147393)scale(0.084088 -0.084088)">
     <use xlink:href="#DejaVuSans-4d"/>
     <use x="86.279297" xlink:href="#DejaVuSans-49"/>
    </g>
   </g>
   <g id="text_36">
    <!-- MN -->
    <g style="fill:#636c72;" transform="translate(147.653123 157.035333)scale(0.042555 -0.042555)">
     <use xlink:href="#DejaVuSans-4d"/>
     <use x="86.279297" xlink:href="#DejaVuSans-4e"/>
    </g>
   </g>
   <g id="text_37">
    <!-- MS -->
    <g style="fill:#636c72;" transform="translate(319.241902 81.274473)scale(0.024168 -0.024168)">
     <use xlink:href="#DejaVuSans-4d"/>
     <use x="86.279297" xlink:href="#DejaVuSans-53"/>
    </g>
   </g>
   <g id="text_38">
    <!-- MO -->
    <g style="fill:#636c72;" transform="translate(303.728529 121.998525)scale(0.048389 -0.048389)">
     <use xlink:href="#DejaVuSans-4d"/>
     <use x="86.279297" xlink:href="#DejaVuSans-4f"/>
    </g>
   </g>
   <g id="text_39">
    <!-- MT -->
    <g style="fill:#636c72;" transform="translate(140.508517 197.964506)scale(0.00779 -0.00779)">
     <use xlink:href="#DejaVuSans-4d"/>
     <use x="86.279297" xlink:href="#DejaVuSans-54"/>
    </g>
   </g>
   <g id="text_40">
    <!-- NE -->
    <g style="fill:#636c72;" transform="translate(160.071816 166.531756)scale(0.014598 -0.014598)">
     <use xlink:href="#DejaVuSans-4e"/>
     <use x="74.804688" xlink:href="#DejaVuSans-45"/>
    </g>
   </g>
   <g id="text_41">
    <!-- NV -->
    <defs>
     <path d="M 28.609375 0 
L 0.78125 72.90625 
L 11.078125 72.90625 
L 34.1875 11.53125 
L 57.328125 72.90625 
L 67.578125 72.90625 
L 39.796875 0 
z
" id="DejaVuSans-56"/>
    </defs>
    <g style="fill:#636c72;" transform="translate(359.607347 69.524586)scale(0.020073 -0.020073)">
     <use xlink:href="#DejaVuSans-4e"/>
     <use x="74.804688" xlink:href="#DejaVuSans-56"/>
    </g>
   </g>
   <g id="text_42">
    <!-- NH -->
    <g style="fill:#636c72;" transform="translate(123.605202 213.991597)scale(0.010845 -0.010845)">
     <use xlink:href="#DejaVuSans-4e"/>
     <use x="74.804688" xlink:href="#DejaVuSans-48"/>
    </g>
   </g>
   <g id="text_43">
    <!-- NJ -->
    <defs>
     <path d="M 9.8125 72.90625 
L 19.671875 72.90625 
L 19.671875 5.078125 
Q 19.671875 -8.109375 14.671875 -14.0625 
Q 9.671875 -20.015625 -1.421875 -20.015625 
L -5.171875 -20.015625 
L -5.171875 -11.71875 
L -2.09375 -11.71875 
Q 4.4375 -11.71875 7.125 -8.046875 
Q 9.8125 -4.390625 9.8125 5.078125 
z
" id="DejaVuSans-4a"/>
    </defs>
    <g style="fill:#636c72;" transform="translate(233.985231 186.94698)scale(0.071849 -0.071849)">
     <use xlink:href="#DejaVuSans-4e"/>
     <use x="74.804688" xlink:href="#DejaVuSans-4a"/>
    </g>
   </g>
   <g id="text_44">
    <!-- NM -->
    <g style="fill:#636c72;" transform="translate(323.097978 42.582461)scale(0.015971 -0.015971)">
     <use xlink:href="#DejaVuSans-4e"/>
     <use x="74.804688" xlink:href="#DejaVuSans-4d"/>
    </g>
   </g>
   <g id="text_45">
    <!-- NY -->
    <g style="fill:#636c72;" transform="translate(216.788938 210.12188)scale(0.161091 -0.161091)">
     <use xlink:href="#DejaVuSans-4e"/>
     <use x="74.804688" xlink:href="#DejaVuSans-59"/>
    </g>
   </g>
   <g id="text_46">
    <!-- NC -->
    <g style="fill:#636c72;" transform="translate(295.830256 20.463993)scale(0.072245 -0.072245)">
     <use xlink:href="#DejaVuSans-4e"/>
     <use x="74.804688" xlink:href="#DejaVuSans-43"/>
    </g>
   </g>
   <g id="text_47">
    <!-- ND -->
    <g style="fill:#636c72;" transform="translate(114.018483 214.964592)scale(0.005295 -0.005295)">
     <use xlink:href="#DejaVuSans-4e"/>
     <use x="74.804688" xlink:href="#DejaVuSans-44"/>
    </g>
   </g>
   <g id="text_48">
    <!-- OH -->
    <g style="fill:#636c72;" transform="translate(240.371316 93.602497)scale(0.095627 -0.095627)">
     <use xlink:href="#DejaVuSans-4f"/>
     <use x="78.710938" xlink:href="#DejaVuSans-48"/>
    </g>
   </g>
   <g id="text_49">
    <!-- OK -->
    <g style="fill:#636c72;" transform="translate(252.272366 62.363681)scale(0.02944 -0.02944)">
     <use xlink:href="#DejaVuSans-4f"/>
     <use x="78.710938" xlink:href="#DejaVuSans-4b"/>
    </g>
   </g>
   <g id="text_50">
    <!-- OR -->
    <g style="fill:#636c72;" transform="translate(148.846688 117.012692)scale(0.030149 -0.030149)">
     <use xlink:href="#DejaVuSans-4f"/>
     <use x="78.710938" xlink:href="#DejaVuSans-52"/>
    </g>
   </g>
   <g id="text_51">
    <!-- PA -->
    <defs>
     <path d="M 19.671875 64.796875 
L 19.671875 37.40625 
L 32.078125 37.40625 
Q 38.96875 37.40625 42.71875 40.96875 
Q 46.484375 44.53125 46.484375 51.125 
Q 46.484375 57.671875 42.71875 61.234375 
Q 38.96875 64.796875 32.078125 64.796875 
z
M 9.8125 72.90625 
L 32.078125 72.90625 
Q 44.34375 72.90625 50.609375 67.359375 
Q 56.890625 61.8125 56.890625 51.125 
Q 56.890625 40.328125 50.609375 34.8125 
Q 44.34375 29.296875 32.078125 29.296875 
L 19.671875 29.296875 
L 19.671875 0 
L 9.8125 0 
z
" id="DejaVuSans-50"/>
    </defs>
    <g style="fill:#636c72;" transform="translate(274.403946 186.826273)scale(0.103485 -0.103485)">
     <use xlink:href="#DejaVuSans-50"/>
     <use x="60.208984" xlink:href="#DejaVuSans-41"/>
    </g>
   </g>
   <g id="text_52">
    <!-- RI -->
    <g style="fill:#636c72;" transform="translate(183.969152 174.808948)scale(0.008875 -0.008875)">
     <use xlink:href="#DejaVuSans-52"/>
     <use x="69.482422" xlink:href="#DejaVuSans-49"/>
    </g>
   </g>
   <g id="text_53">
    <!-- SC -->
    <g style="fill:#636c72;" transform="translate(322.020219 63.656185)scale(0.035468 -0.035468)">
     <use xlink:href="#DejaVuSans-53"/>
     <use x="63.476562" xlink:href="#DejaVuSans-43"/>
    </g>
   </g>
   <g id="text_54">
    <!-- SD -->
    <g style="fill:#636c72;" transform="translate(153.956908 212.237692)scale(0.006501 -0.006501)">
     <use xlink:href="#DejaVuSans-53"/>
     <use x="63.476562" xlink:href="#DejaVuSans-44"/>
    </g>
   </g>
   <g id="text_55">
    <!-- TN -->
    <g style="fill:#636c72;" transform="translate(314.324022 58.31502)scale(0.049965 -0.049965)">
     <use xlink:href="#DejaVuSans-54"/>
     <use x="61.083984" xlink:href="#DejaVuSans-4e"/>
    </g>
   </g>
   <g id="text_56">
    <!-- TX -->
    <defs>
     <path d="M 6.296875 72.90625 
L 16.890625 72.90625 
L 35.015625 45.796875 
L 53.21875 72.90625 
L 63.8125 72.90625 
L 40.375 37.890625 
L 65.375 0 
L 54.78125 0 
L 34.28125 31 
L 13.625 0 
L 2.984375 0 
L 29 38.921875 
z
" id="DejaVuSans-58"/>
    </defs>
    <g style="fill:#636c72;" transform="translate(272.080299 76.598734)scale(0.190016 -0.190016)">
     <use xlink:href="#DejaVuSans-54"/>
     <use x="61.083984" xlink:href="#DejaVuSans-58"/>
    </g>
   </g>
   <g id="text_57">
    <!-- UT -->
    <defs>
     <path d="M 8.6875 72.90625 
L 18.609375 72.90625 
L 18.609375 28.609375 
Q 18.609375 16.890625 22.84375 11.734375 
Q 27.09375 6.59375 36.625 6.59375 
Q 46.09375 6.59375 50.34375 11.734375 
Q 54.59375 16.890625 54.59375 28.609375 
L 54.59375 72.90625 
L 64.5 72.90625 
L 64.5 27.390625 
Q 64.5 13.140625 57.4375 5.859375 
Q 50.390625 -1.421875 36.625 -1.421875 
Q 22.796875 -1.421875 15.734375 5.859375 
Q 8.6875 13.140625 8.6875 27.390625 
z
" id="DejaVuSans-55"/>
    </defs>
    <g style="fill:#636c72;" transform="translate(153.015134 150.407647)scale(0.02083 -0.02083)">
     <use xlink:href="#DejaVuSans-55"/>
     <use x="73.193359" xlink:href="#DejaVuSans-54"/>
    </g>
   </g>
   <g id="text_58">
    <!-- VT -->
    <g style="fill:#636c72;" transform="translate(120.752047 175.236305)scale(0.005157 -0.005157)">
     <use xlink:href="#DejaVuSans-56"/>
     <use x="68.408203" xlink:href="#DejaVuSans-54"/>
    </g>
   </g>
   <g id="text_59">
    <!-- VA -->
    <g style="fill:#636c72;" transform="translate(276.74964 198.84849)scale(0.063032 -0.063032)">
     <use xlink:href="#DejaVuSans-56"/>
     <use x="68.314453" xlink:href="#DejaVuSans-41"/>
    </g>
   </g>
   <g id="text_60">
    <!-- WA -->
    <defs>
     <path d="M 3.328125 72.90625 
L 13.28125 72.90625 
L 28.609375 11.28125 
L 43.890625 72.90625 
L 54.984375 72.90625 
L 70.3125 11.28125 
L 85.59375 72.90625 
L 95.609375 72.90625 
L 77.296875 0 
L 64.890625 0 
L 49.515625 63.28125 
L 33.984375 0 
L 21.578125 0 
z
" id="DejaVuSans-57"/>
    </defs>
    <g style="fill:#636c72;" transform="translate(183.379045 73.214796)scale(0.052177 -0.052177)">
     <use xlink:href="#DejaVuSans-57"/>
     <use x="98.798828" xlink:href="#DejaVuSans-41"/>
    </g>
   </g>
   <g id="text_61">
    <!-- WV -->
    <g style="fill:#636c72;" transform="translate(223.144196 146.935455)scale(0.015033 -0.015033)">
     <use xlink:href="#DejaVuSans-57"/>
     <use x="98.876953" xlink:href="#DejaVuSans-56"/>
    </g>
   </g>
   <g id="text_62">
    <!-- WI -->
    <g style="fill:#636c72;" transform="translate(191.442583 187.629779)scale(0.046179 -0.046179)">
     <use xlink:href="#DejaVuSans-57"/>
     <use x="98.876953" xlink:href="#DejaVuSans-49"/>
    </g>
   </g>
   <g id="text_63">
    <!-- WY -->
    <g style="fill:#636c72;" transform="translate(167.407184 178.63304)scale(0.004219 -0.004219)">
     <use xlink:href="#DejaVuSans-57"/>
     <use x="98.876953" xlink:href="#DejaVuSans-59"/>
    </g>
   </g>
  </g>
 </g>
</svg>
