<?xml version="1.0" encoding="utf-8" standalone="no"?>
<!DOCTYPE svg PUBLIC "-//W3C//DTD SVG 1.1//EN"
  "http://www.w3.org/Graphics/SVG/1.1/DTD/svg11.dtd">
<!-- Created with matplotlib (http://matplotlib.org/) -->
<svg height="288pt" version="1.1" viewBox="0 0 432 288" width="432pt" xmlns="http://www.w3.org/2000/svg" xmlns:xlink="http://www.w3.org/1999/xlink">
 <defs>
  <style type="text/css">
*{stroke-linecap:butt;stroke-linejoin:round;}
  </style>
 </defs>
 <g id="figure_1">
  <g id="patch_1">
   <path d="M 0 288 
L 432 288 
L 432 0 
L 0 0 
z
" style="fill:none;"/>
  </g>
  <g id="axes_1">
   <g id="patch_2">
    <path d="M 43.2 244.8 
L 397.44 244.8 
L 397.44 28.8 
L 43.2 28.8 
z
" style="fill:none;"/>
   </g>
   <g id="patch_3">
    <path clip-path="url(#pc19219c7af)" d="M 107.642888 244.8 
L 112.19468 244.8 
L 112.19468 244.026638 
L 107.642888 244.026638 
z
" style="fill:#5bc0de;"/>
   </g>
   <g id="patch_4">
    <path clip-path="url(#pc19219c7af)" d="M 112.19468 244.8 
L 116.746473 244.8 
L 116.746473 244.413319 
L 112.19468 244.413319 
z
" style="fill:#5bc0de;"/>
   </g>
   <g id="patch_5">
    <path clip-path="url(#pc19219c7af)" d="M 116.746473 244.8 
L 121.298265 244.8 
L 121.298265 244.026638 
L 116.746473 244.026638 
z
" style="fill:#5bc0de;"/>
   </g>
   <g id="patch_6">
    <path clip-path="url(#pc19219c7af)" d="M 121.298265 244.8 
L 125.850058 244.8 
L 125.850058 243.253276 
L 121.298265 243.253276 
z
" style="fill:#5bc0de;"/>
   </g>
   <g id="patch_7">
    <path clip-path="url(#pc19219c7af)" d="M 125.850058 244.8 
L 130.40185 244.8 
L 130.40185 242.093233 
L 125.850058 242.093233 
z
" style="fill:#5bc0de;"/>
   </g>
   <g id="patch_8">
    <path clip-path="url(#pc19219c7af)" d="M 130.40185 244.8 
L 134.953643 244.8 
L 134.953643 239.773147 
L 130.40185 239.773147 
z
" style="fill:#5bc0de;"/>
   </g>
   <g id="patch_9">
    <path clip-path="url(#pc19219c7af)" d="M 134.953643 244.8 
L 139.505435 244.8 
L 139.505435 239.386466 
L 134.953643 239.386466 
z
" style="fill:#5bc0de;"/>
   </g>
   <g id="patch_10">
    <path clip-path="url(#pc19219c7af)" d="M 139.505435 244.8 
L 144.057227 244.8 
L 144.057227 238.226423 
L 139.505435 238.226423 
z
" style="fill:#5bc0de;"/>
   </g>
   <g id="patch_11">
    <path clip-path="url(#pc19219c7af)" d="M 144.057227 244.8 
L 148.60902 244.8 
L 148.60902 230.879484 
L 144.057227 230.879484 
z
" style="fill:#5bc0de;"/>
   </g>
   <g id="patch_12">
    <path clip-path="url(#pc19219c7af)" d="M 148.60902 244.8 
L 153.160812 244.8 
L 153.160812 223.919227 
L 148.60902 223.919227 
z
" style="fill:#5bc0de;"/>
   </g>
   <g id="patch_13">
    <path clip-path="url(#pc19219c7af)" d="M 153.160812 244.8 
L 157.712605 244.8 
L 157.712605 212.705478 
L 153.160812 212.705478 
z
" style="fill:#5bc0de;"/>
   </g>
   <g id="patch_14">
    <path clip-path="url(#pc19219c7af)" d="M 157.712605 244.8 
L 162.264397 244.8 
L 162.264397 210.385392 
L 157.712605 210.385392 
z
" style="fill:#5bc0de;"/>
   </g>
   <g id="patch_15">
    <path clip-path="url(#pc19219c7af)" d="M 162.264397 244.8 
L 166.81619 244.8 
L 166.81619 209.225349 
L 162.264397 209.225349 
z
" style="fill:#5bc0de;"/>
   </g>
   <g id="patch_16">
    <path clip-path="url(#pc19219c7af)" d="M 166.81619 244.8 
L 171.367982 244.8 
L 171.367982 187.571214 
L 166.81619 187.571214 
z
" style="fill:#5bc0de;"/>
   </g>
   <g id="patch_17">
    <path clip-path="url(#pc19219c7af)" d="M 171.367982 244.8 
L 175.919774 244.8 
L 175.919774 190.277981 
L 171.367982 190.277981 
z
" style="fill:#5bc0de;"/>
   </g>
   <g id="patch_18">
    <path clip-path="url(#pc19219c7af)" d="M 175.919774 244.8 
L 180.471567 244.8 
L 180.471567 171.330612 
L 175.919774 171.330612 
z
" style="fill:#5bc0de;"/>
   </g>
   <g id="patch_19">
    <path clip-path="url(#pc19219c7af)" d="M 180.471567 244.8 
L 185.023359 244.8 
L 185.023359 140.009452 
L 180.471567 140.009452 
z
" style="fill:#5bc0de;"/>
   </g>
   <g id="patch_20">
    <path clip-path="url(#pc19219c7af)" d="M 185.023359 244.8 
L 189.575152 244.8 
L 189.575152 136.529323 
L 185.023359 136.529323 
z
" style="fill:#5bc0de;"/>
   </g>
   <g id="patch_21">
    <path clip-path="url(#pc19219c7af)" d="M 189.575152 244.8 
L 194.126944 244.8 
L 194.126944 138.076047 
L 189.575152 138.076047 
z
" style="fill:#5bc0de;"/>
   </g>
   <g id="patch_22">
    <path clip-path="url(#pc19219c7af)" d="M 194.126944 244.8 
L 198.678737 244.8 
L 198.678737 97.861224 
L 194.126944 97.861224 
z
" style="fill:#5bc0de;"/>
   </g>
   <g id="patch_23">
    <path clip-path="url(#pc19219c7af)" d="M 198.678737 244.8 
L 203.230529 244.8 
L 203.230529 90.900967 
L 198.678737 90.900967 
z
" style="fill:#5bc0de;"/>
   </g>
   <g id="patch_24">
    <path clip-path="url(#pc19219c7af)" d="M 203.230529 244.8 
L 207.782321 244.8 
L 207.782321 85.100752 
L 203.230529 85.100752 
z
" style="fill:#5bc0de;"/>
   </g>
   <g id="patch_25">
    <path clip-path="url(#pc19219c7af)" d="M 207.782321 244.8 
L 212.334114 244.8 
L 212.334114 71.180236 
L 207.782321 71.180236 
z
" style="fill:#5bc0de;"/>
   </g>
   <g id="patch_26">
    <path clip-path="url(#pc19219c7af)" d="M 212.334114 244.8 
L 216.885906 244.8 
L 216.885906 81.233942 
L 212.334114 81.233942 
z
" style="fill:#5bc0de;"/>
   </g>
   <g id="patch_27">
    <path clip-path="url(#pc19219c7af)" d="M 216.885906 244.8 
L 221.437699 244.8 
L 221.437699 39.085714 
L 216.885906 39.085714 
z
" style="fill:#5bc0de;"/>
   </g>
   <g id="patch_28">
    <path clip-path="url(#pc19219c7af)" d="M 221.437699 244.8 
L 225.989491 244.8 
L 225.989491 55.712997 
L 221.437699 55.712997 
z
" style="fill:#5bc0de;"/>
   </g>
   <g id="patch_29">
    <path clip-path="url(#pc19219c7af)" d="M 225.989491 244.8 
L 230.541284 244.8 
L 230.541284 69.246831 
L 225.989491 69.246831 
z
" style="fill:#5bc0de;"/>
   </g>
   <g id="patch_30">
    <path clip-path="url(#pc19219c7af)" d="M 230.541284 244.8 
L 235.093076 244.8 
L 235.093076 50.686144 
L 230.541284 50.686144 
z
" style="fill:#5bc0de;"/>
   </g>
   <g id="patch_31">
    <path clip-path="url(#pc19219c7af)" d="M 235.093076 244.8 
L 239.644868 244.8 
L 239.644868 54.166273 
L 235.093076 54.166273 
z
" style="fill:#5bc0de;"/>
   </g>
   <g id="patch_32">
    <path clip-path="url(#pc19219c7af)" d="M 239.644868 244.8 
L 244.196661 244.8 
L 244.196661 71.180236 
L 239.644868 71.180236 
z
" style="fill:#5bc0de;"/>
   </g>
   <g id="patch_33">
    <path clip-path="url(#pc19219c7af)" d="M 244.196661 244.8 
L 248.748453 244.8 
L 248.748453 70.406874 
L 244.196661 70.406874 
z
" style="fill:#5bc0de;"/>
   </g>
   <g id="patch_34">
    <path clip-path="url(#pc19219c7af)" d="M 248.748453 244.8 
L 253.300246 244.8 
L 253.300246 80.46058 
L 248.748453 80.46058 
z
" style="fill:#5bc0de;"/>
   </g>
   <g id="patch_35">
    <path clip-path="url(#pc19219c7af)" d="M 253.300246 244.8 
L 257.852038 244.8 
L 257.852038 95.92782 
L 253.300246 95.92782 
z
" style="fill:#5bc0de;"/>
   </g>
   <g id="patch_36">
    <path clip-path="url(#pc19219c7af)" d="M 257.852038 244.8 
L 262.403831 244.8 
L 262.403831 103.274758 
L 257.852038 103.274758 
z
" style="fill:#5bc0de;"/>
   </g>
   <g id="patch_37">
    <path clip-path="url(#pc19219c7af)" d="M 262.403831 244.8 
L 266.955623 244.8 
L 266.955623 124.155532 
L 262.403831 124.155532 
z
" style="fill:#5bc0de;"/>
   </g>
   <g id="patch_38">
    <path clip-path="url(#pc19219c7af)" d="M 266.955623 244.8 
L 271.507415 244.8 
L 271.507415 147.356391 
L 266.955623 147.356391 
z
" style="fill:#5bc0de;"/>
   </g>
   <g id="patch_39">
    <path clip-path="url(#pc19219c7af)" d="M 271.507415 244.8 
L 276.059208 244.8 
L 276.059208 153.156606 
L 271.507415 153.156606 
z
" style="fill:#5bc0de;"/>
   </g>
   <g id="patch_40">
    <path clip-path="url(#pc19219c7af)" d="M 276.059208 244.8 
L 280.611 244.8 
L 280.611 180.224275 
L 276.059208 180.224275 
z
" style="fill:#5bc0de;"/>
   </g>
   <g id="patch_41">
    <path clip-path="url(#pc19219c7af)" d="M 280.611 244.8 
L 285.162793 244.8 
L 285.162793 165.917078 
L 280.611 165.917078 
z
" style="fill:#5bc0de;"/>
   </g>
   <g id="patch_42">
    <path clip-path="url(#pc19219c7af)" d="M 285.162793 244.8 
L 289.714585 244.8 
L 289.714585 198.398281 
L 285.162793 198.398281 
z
" style="fill:#5bc0de;"/>
   </g>
   <g id="patch_43">
    <path clip-path="url(#pc19219c7af)" d="M 289.714585 244.8 
L 294.266378 244.8 
L 294.266378 209.225349 
L 289.714585 209.225349 
z
" style="fill:#5bc0de;"/>
   </g>
   <g id="patch_44">
    <path clip-path="url(#pc19219c7af)" d="M 294.266378 244.8 
L 298.81817 244.8 
L 298.81817 216.185607 
L 294.266378 216.185607 
z
" style="fill:#5bc0de;"/>
   </g>
   <g id="patch_45">
    <path clip-path="url(#pc19219c7af)" d="M 298.81817 244.8 
L 303.369962 244.8 
L 303.369962 220.052417 
L 298.81817 220.052417 
z
" style="fill:#5bc0de;"/>
   </g>
   <g id="patch_46">
    <path clip-path="url(#pc19219c7af)" d="M 303.369962 244.8 
L 307.921755 244.8 
L 307.921755 228.946079 
L 303.369962 228.946079 
z
" style="fill:#5bc0de;"/>
   </g>
   <g id="patch_47">
    <path clip-path="url(#pc19219c7af)" d="M 307.921755 244.8 
L 312.473547 244.8 
L 312.473547 228.172718 
L 307.921755 228.172718 
z
" style="fill:#5bc0de;"/>
   </g>
   <g id="patch_48">
    <path clip-path="url(#pc19219c7af)" d="M 312.473547 244.8 
L 317.02534 244.8 
L 317.02534 235.906337 
L 312.473547 235.906337 
z
" style="fill:#5bc0de;"/>
   </g>
   <g id="patch_49">
    <path clip-path="url(#pc19219c7af)" d="M 317.02534 244.8 
L 321.577132 244.8 
L 321.577132 238.226423 
L 317.02534 238.226423 
z
" style="fill:#5bc0de;"/>
   </g>
   <g id="patch_50">
    <path clip-path="url(#pc19219c7af)" d="M 321.577132 244.8 
L 326.128925 244.8 
L 326.128925 238.613104 
L 321.577132 238.613104 
z
" style="fill:#5bc0de;"/>
   </g>
   <g id="patch_51">
    <path clip-path="url(#pc19219c7af)" d="M 326.128925 244.8 
L 330.680717 244.8 
L 330.680717 242.866595 
L 326.128925 242.866595 
z
" style="fill:#5bc0de;"/>
   </g>
   <g id="patch_52">
    <path clip-path="url(#pc19219c7af)" d="M 330.680717 244.8 
L 335.232509 244.8 
L 335.232509 243.253276 
L 330.680717 243.253276 
z
" style="fill:#5bc0de;"/>
   </g>
   <g id="matplotlib.axis_1">
    <g id="xtick_1">
     <g id="line2d_1">
      <defs>
       <path d="M 0 0 
L 0 4 
" id="m0e6923d635" style="stroke:#d2d2d2;"/>
      </defs>
      <g>
       <use style="fill:#d2d2d2;stroke:#d2d2d2;" x="74.003478" xlink:href="#m0e6923d635" y="244.8"/>
      </g>
     </g>
     <g id="text_1">
      <!-- −1.0 -->
      <defs>
       <path d="M 10.59375 35.5 
L 73.1875 35.5 
L 73.1875 27.203125 
L 10.59375 27.203125 
z
" id="DejaVuSans-2212"/>
       <path d="M 12.40625 8.296875 
L 28.515625 8.296875 
L 28.515625 63.921875 
L 10.984375 60.40625 
L 10.984375 69.390625 
L 28.421875 72.90625 
L 38.28125 72.90625 
L 38.28125 8.296875 
L 54.390625 8.296875 
L 54.390625 0 
L 12.40625 0 
z
" id="DejaVuSans-31"/>
       <path d="M 10.6875 12.40625 
L 21 12.40625 
L 21 0 
L 10.6875 0 
z
" id="DejaVuSans-2e"/>
       <path d="M 31.78125 66.40625 
Q 24.171875 66.40625 20.328125 58.90625 
Q 16.5 51.421875 16.5 36.375 
Q 16.5 21.390625 20.328125 13.890625 
Q 24.171875 6.390625 31.78125 6.390625 
Q 39.453125 6.390625 43.28125 13.890625 
Q 47.125 21.390625 47.125 36.375 
Q 47.125 51.421875 43.28125 58.90625 
Q 39.453125 66.40625 31.78125 66.40625 
M 31.78125 74.21875 
Q 44.046875 74.21875 50.515625 64.515625 
Q 56.984375 54.828125 56.984375 36.375 
Q 56.984375 17.96875 50.515625 8.265625 
Q 44.046875 -1.421875 31.78125 -1.421875 
Q 19.53125 -1.421875 13.0625 8.265625 
Q 6.59375 17.96875 6.59375 36.375 
Q 6.59375 54.828125 13.0625 64.515625 
Q 19.53125 74.21875 31.78125 74.21875 
" id="DejaVuSans-30"/>
      </defs>
      <g style="fill:#d2d2d2;" transform="translate(58.21965 262.677969)scale(0.13 -0.13)">
       <use xlink:href="#DejaVuSans-2212"/>
       <use x="83.789062" xlink:href="#DejaVuSans-31"/>
       <use x="147.412109" xlink:href="#DejaVuSans-2e"/>
       <use x="179.199219" xlink:href="#DejaVuSans-30"/>
      </g>
     </g>
    </g>
    <g id="xtick_2">
     <g id="line2d_2">
      <g>
       <use style="fill:#d2d2d2;stroke:#d2d2d2;" x="151.012174" xlink:href="#m0e6923d635" y="244.8"/>
      </g>
     </g>
     <g id="text_2">
      <!-- −0.5 -->
      <defs>
       <path d="M 10.796875 72.90625 
L 49.515625 72.90625 
L 49.515625 64.59375 
L 19.828125 64.59375 
L 19.828125 46.734375 
Q 21.96875 47.46875 24.109375 47.828125 
Q 26.265625 48.1875 28.421875 48.1875 
Q 40.625 48.1875 47.75 41.5 
Q 54.890625 34.8125 54.890625 23.390625 
Q 54.890625 11.625 47.5625 5.09375 
Q 40.234375 -1.421875 26.90625 -1.421875 
Q 22.3125 -1.421875 17.546875 -0.640625 
Q 12.796875 0.140625 7.71875 1.703125 
L 7.71875 11.625 
Q 12.109375 9.234375 16.796875 8.0625 
Q 21.484375 6.890625 26.703125 6.890625 
Q 35.15625 6.890625 40.078125 11.328125 
Q 45.015625 15.765625 45.015625 23.390625 
Q 45.015625 31 40.078125 35.4375 
Q 35.15625 39.890625 26.703125 39.890625 
Q 22.75 39.890625 18.8125 39.015625 
Q 14.890625 38.140625 10.796875 36.28125 
z
" id="DejaVuSans-35"/>
      </defs>
      <g style="fill:#d2d2d2;" transform="translate(135.228346 262.677969)scale(0.13 -0.13)">
       <use xlink:href="#DejaVuSans-2212"/>
       <use x="83.789062" xlink:href="#DejaVuSans-30"/>
       <use x="147.412109" xlink:href="#DejaVuSans-2e"/>
       <use x="179.199219" xlink:href="#DejaVuSans-35"/>
      </g>
     </g>
    </g>
    <g id="xtick_3">
     <g id="line2d_3">
      <g>
       <use style="fill:#d2d2d2;stroke:#d2d2d2;" x="228.02087" xlink:href="#m0e6923d635" y="244.8"/>
      </g>
     </g>
     <g id="text_3">
      <!-- 0.0 -->
      <g style="fill:#d2d2d2;" transform="translate(217.683838 262.677969)scale(0.13 -0.13)">
       <use xlink:href="#DejaVuSans-30"/>
       <use x="63.623047" xlink:href="#DejaVuSans-2e"/>
       <use x="95.410156" xlink:href="#DejaVuSans-30"/>
      </g>
     </g>
    </g>
    <g id="xtick_4">
     <g id="line2d_4">
      <g>
       <use style="fill:#d2d2d2;stroke:#d2d2d2;" x="305.029565" xlink:href="#m0e6923d635" y="244.8"/>
      </g>
     </g>
     <g id="text_4">
      <!-- 0.5 -->
      <g style="fill:#d2d2d2;" transform="translate(294.692534 262.677969)scale(0.13 -0.13)">
       <use xlink:href="#DejaVuSans-30"/>
       <use x="63.623047" xlink:href="#DejaVuSans-2e"/>
       <use x="95.410156" xlink:href="#DejaVuSans-35"/>
      </g>
     </g>
    </g>
    <g id="xtick_5">
     <g id="line2d_5">
      <g>
       <use style="fill:#d2d2d2;stroke:#d2d2d2;" x="382.038261" xlink:href="#m0e6923d635" y="244.8"/>
      </g>
     </g>
     <g id="text_5">
      <!-- 1.0 -->
      <g style="fill:#d2d2d2;" transform="translate(371.70123 262.677969)scale(0.13 -0.13)">
       <use xlink:href="#DejaVuSans-31"/>
       <use x="63.623047" xlink:href="#DejaVuSans-2e"/>
       <use x="95.410156" xlink:href="#DejaVuSans-30"/>
      </g>
     </g>
    </g>
    <g id="text_6">
     <!-- Correlation Coefficient ($r$) -->
     <defs>
      <path d="M 64.40625 67.28125 
L 64.40625 56.890625 
Q 59.421875 61.53125 53.78125 63.8125 
Q 48.140625 66.109375 41.796875 66.109375 
Q 29.296875 66.109375 22.65625 58.46875 
Q 16.015625 50.828125 16.015625 36.375 
Q 16.015625 21.96875 22.65625 14.328125 
Q 29.296875 6.6875 41.796875 6.6875 
Q 48.140625 6.6875 53.78125 8.984375 
Q 59.421875 11.28125 64.40625 15.921875 
L 64.40625 5.609375 
Q 59.234375 2.09375 53.4375 0.328125 
Q 47.65625 -1.421875 41.21875 -1.421875 
Q 24.65625 -1.421875 15.125 8.703125 
Q 5.609375 18.84375 5.609375 36.375 
Q 5.609375 53.953125 15.125 64.078125 
Q 24.65625 74.21875 41.21875 74.21875 
Q 47.75 74.21875 53.53125 72.484375 
Q 59.328125 70.75 64.40625 67.28125 
" id="DejaVuSans-43"/>
      <path d="M 30.609375 48.390625 
Q 23.390625 48.390625 19.1875 42.75 
Q 14.984375 37.109375 14.984375 27.296875 
Q 14.984375 17.484375 19.15625 11.84375 
Q 23.34375 6.203125 30.609375 6.203125 
Q 37.796875 6.203125 41.984375 11.859375 
Q 46.1875 17.53125 46.1875 27.296875 
Q 46.1875 37.015625 41.984375 42.703125 
Q 37.796875 48.390625 30.609375 48.390625 
M 30.609375 56 
Q 42.328125 56 49.015625 48.375 
Q 55.71875 40.765625 55.71875 27.296875 
Q 55.71875 13.875 49.015625 6.21875 
Q 42.328125 -1.421875 30.609375 -1.421875 
Q 18.84375 -1.421875 12.171875 6.21875 
Q 5.515625 13.875 5.515625 27.296875 
Q 5.515625 40.765625 12.171875 48.375 
Q 18.84375 56 30.609375 56 
" id="DejaVuSans-6f"/>
      <path d="M 41.109375 46.296875 
Q 39.59375 47.171875 37.8125 47.578125 
Q 36.03125 48 33.890625 48 
Q 26.265625 48 22.1875 43.046875 
Q 18.109375 38.09375 18.109375 28.8125 
L 18.109375 0 
L 9.078125 0 
L 9.078125 54.6875 
L 18.109375 54.6875 
L 18.109375 46.1875 
Q 20.953125 51.171875 25.484375 53.578125 
Q 30.03125 56 36.53125 56 
Q 37.453125 56 38.578125 55.875 
Q 39.703125 55.765625 41.0625 55.515625 
z
" id="DejaVuSans-72"/>
      <path d="M 56.203125 29.59375 
L 56.203125 25.203125 
L 14.890625 25.203125 
Q 15.484375 15.921875 20.484375 11.0625 
Q 25.484375 6.203125 34.421875 6.203125 
Q 39.59375 6.203125 44.453125 7.46875 
Q 49.3125 8.734375 54.109375 11.28125 
L 54.109375 2.78125 
Q 49.265625 0.734375 44.1875 -0.34375 
Q 39.109375 -1.421875 33.890625 -1.421875 
Q 20.796875 -1.421875 13.15625 6.1875 
Q 5.515625 13.8125 5.515625 26.8125 
Q 5.515625 40.234375 12.765625 48.109375 
Q 20.015625 56 32.328125 56 
Q 43.359375 56 49.78125 48.890625 
Q 56.203125 41.796875 56.203125 29.59375 
M 47.21875 32.234375 
Q 47.125 39.59375 43.09375 43.984375 
Q 39.0625 48.390625 32.421875 48.390625 
Q 24.90625 48.390625 20.390625 44.140625 
Q 15.875 39.890625 15.1875 32.171875 
z
" id="DejaVuSans-65"/>
      <path d="M 9.421875 75.984375 
L 18.40625 75.984375 
L 18.40625 0 
L 9.421875 0 
z
" id="DejaVuSans-6c"/>
      <path d="M 34.28125 27.484375 
Q 23.390625 27.484375 19.1875 25 
Q 14.984375 22.515625 14.984375 16.5 
Q 14.984375 11.71875 18.140625 8.90625 
Q 21.296875 6.109375 26.703125 6.109375 
Q 34.1875 6.109375 38.703125 11.40625 
Q 43.21875 16.703125 43.21875 25.484375 
L 43.21875 27.484375 
z
M 52.203125 31.203125 
L 52.203125 0 
L 43.21875 0 
L 43.21875 8.296875 
Q 40.140625 3.328125 35.546875 0.953125 
Q 30.953125 -1.421875 24.3125 -1.421875 
Q 15.921875 -1.421875 10.953125 3.296875 
Q 6 8.015625 6 15.921875 
Q 6 25.140625 12.171875 29.828125 
Q 18.359375 34.515625 30.609375 34.515625 
L 43.21875 34.515625 
L 43.21875 35.40625 
Q 43.21875 41.609375 39.140625 45 
Q 35.0625 48.390625 27.6875 48.390625 
Q 23 48.390625 18.546875 47.265625 
Q 14.109375 46.140625 10.015625 43.890625 
L 10.015625 52.203125 
Q 14.9375 54.109375 19.578125 55.046875 
Q 24.21875 56 28.609375 56 
Q 40.484375 56 46.34375 49.84375 
Q 52.203125 43.703125 52.203125 31.203125 
" id="DejaVuSans-61"/>
      <path d="M 18.3125 70.21875 
L 18.3125 54.6875 
L 36.8125 54.6875 
L 36.8125 47.703125 
L 18.3125 47.703125 
L 18.3125 18.015625 
Q 18.3125 11.328125 20.140625 9.421875 
Q 21.96875 7.515625 27.59375 7.515625 
L 36.8125 7.515625 
L 36.8125 0 
L 27.59375 0 
Q 17.1875 0 13.234375 3.875 
Q 9.28125 7.765625 9.28125 18.015625 
L 9.28125 47.703125 
L 2.6875 47.703125 
L 2.6875 54.6875 
L 9.28125 54.6875 
L 9.28125 70.21875 
z
" id="DejaVuSans-74"/>
      <path d="M 9.421875 54.6875 
L 18.40625 54.6875 
L 18.40625 0 
L 9.421875 0 
z
M 9.421875 75.984375 
L 18.40625 75.984375 
L 18.40625 64.59375 
L 9.421875 64.59375 
z
" id="DejaVuSans-69"/>
      <path d="M 54.890625 33.015625 
L 54.890625 0 
L 45.90625 0 
L 45.90625 32.71875 
Q 45.90625 40.484375 42.875 44.328125 
Q 39.84375 48.1875 33.796875 48.1875 
Q 26.515625 48.1875 22.3125 43.546875 
Q 18.109375 38.921875 18.109375 30.90625 
L 18.109375 0 
L 9.078125 0 
L 9.078125 54.6875 
L 18.109375 54.6875 
L 18.109375 46.1875 
Q 21.34375 51.125 25.703125 53.5625 
Q 30.078125 56 35.796875 56 
Q 45.21875 56 50.046875 50.171875 
Q 54.890625 44.34375 54.890625 33.015625 
" id="DejaVuSans-6e"/>
      <path id="DejaVuSans-20"/>
      <path d="M 37.109375 75.984375 
L 37.109375 68.5 
L 28.515625 68.5 
Q 23.6875 68.5 21.796875 66.546875 
Q 19.921875 64.59375 19.921875 59.515625 
L 19.921875 54.6875 
L 34.71875 54.6875 
L 34.71875 47.703125 
L 19.921875 47.703125 
L 19.921875 0 
L 10.890625 0 
L 10.890625 47.703125 
L 2.296875 47.703125 
L 2.296875 54.6875 
L 10.890625 54.6875 
L 10.890625 58.5 
Q 10.890625 67.625 15.140625 71.796875 
Q 19.390625 75.984375 28.609375 75.984375 
z
" id="DejaVuSans-66"/>
      <path d="M 48.78125 52.59375 
L 48.78125 44.1875 
Q 44.96875 46.296875 41.140625 47.34375 
Q 37.3125 48.390625 33.40625 48.390625 
Q 24.65625 48.390625 19.8125 42.84375 
Q 14.984375 37.3125 14.984375 27.296875 
Q 14.984375 17.28125 19.8125 11.734375 
Q 24.65625 6.203125 33.40625 6.203125 
Q 37.3125 6.203125 41.140625 7.25 
Q 44.96875 8.296875 48.78125 10.40625 
L 48.78125 2.09375 
Q 45.015625 0.34375 40.984375 -0.53125 
Q 36.96875 -1.421875 32.421875 -1.421875 
Q 20.0625 -1.421875 12.78125 6.34375 
Q 5.515625 14.109375 5.515625 27.296875 
Q 5.515625 40.671875 12.859375 48.328125 
Q 20.21875 56 33.015625 56 
Q 37.15625 56 41.109375 55.140625 
Q 45.0625 54.296875 48.78125 52.59375 
" id="DejaVuSans-63"/>
      <path d="M 31 75.875 
Q 24.46875 64.65625 21.28125 53.65625 
Q 18.109375 42.671875 18.109375 31.390625 
Q 18.109375 20.125 21.3125 9.0625 
Q 24.515625 -2 31 -13.1875 
L 23.1875 -13.1875 
Q 15.875 -1.703125 12.234375 9.375 
Q 8.59375 20.453125 8.59375 31.390625 
Q 8.59375 42.28125 12.203125 53.3125 
Q 15.828125 64.359375 23.1875 75.875 
z
" id="DejaVuSans-28"/>
      <path d="M 44.578125 46.390625 
Q 43.21875 47.125 41.453125 47.515625 
Q 39.703125 47.90625 37.703125 47.90625 
Q 30.515625 47.90625 25.140625 42.453125 
Q 19.78125 37.015625 18.015625 27.875 
L 12.5 0 
L 3.515625 0 
L 14.203125 54.6875 
L 23.1875 54.6875 
L 21.484375 46.1875 
Q 25.046875 50.921875 30 53.453125 
Q 34.96875 56 40.578125 56 
Q 42.046875 56 43.453125 55.828125 
Q 44.875 55.671875 46.296875 55.28125 
z
" id="DejaVuSans-Oblique-72"/>
      <path d="M 8.015625 75.875 
L 15.828125 75.875 
Q 23.140625 64.359375 26.78125 53.3125 
Q 30.421875 42.28125 30.421875 31.390625 
Q 30.421875 20.453125 26.78125 9.375 
Q 23.140625 -1.703125 15.828125 -13.1875 
L 8.015625 -13.1875 
Q 14.5 -2 17.703125 9.0625 
Q 20.90625 20.125 20.90625 31.390625 
Q 20.90625 42.671875 17.703125 53.65625 
Q 14.5 64.65625 8.015625 75.875 
" id="DejaVuSans-29"/>
     </defs>
     <g style="fill:#d2d2d2;" transform="translate(105.48 283.05875)scale(0.18 -0.18)">
      <use transform="translate(0 0.015625)" xlink:href="#DejaVuSans-43"/>
      <use transform="translate(69.824219 0.015625)" xlink:href="#DejaVuSans-6f"/>
      <use transform="translate(131.005859 0.015625)" xlink:href="#DejaVuSans-72"/>
      <use transform="translate(172.119141 0.015625)" xlink:href="#DejaVuSans-72"/>
      <use transform="translate(213.232422 0.015625)" xlink:href="#DejaVuSans-65"/>
      <use transform="translate(274.755859 0.015625)" xlink:href="#DejaVuSans-6c"/>
      <use transform="translate(302.539062 0.015625)" xlink:href="#DejaVuSans-61"/>
      <use transform="translate(363.818359 0.015625)" xlink:href="#DejaVuSans-74"/>
      <use transform="translate(403.027344 0.015625)" xlink:href="#DejaVuSans-69"/>
      <use transform="translate(430.810547 0.015625)" xlink:href="#DejaVuSans-6f"/>
      <use transform="translate(491.992188 0.015625)" xlink:href="#DejaVuSans-6e"/>
      <use transform="translate(555.371094 0.015625)" xlink:href="#DejaVuSans-20"/>
      <use transform="translate(587.158203 0.015625)" xlink:href="#DejaVuSans-43"/>
      <use transform="translate(656.982422 0.015625)" xlink:href="#DejaVuSans-6f"/>
      <use transform="translate(718.164062 0.015625)" xlink:href="#DejaVuSans-65"/>
      <use transform="translate(779.6875 0.015625)" xlink:href="#DejaVuSans-66"/>
      <use transform="translate(814.892578 0.015625)" xlink:href="#DejaVuSans-66"/>
      <use transform="translate(850.097656 0.015625)" xlink:href="#DejaVuSans-69"/>
      <use transform="translate(877.880859 0.015625)" xlink:href="#DejaVuSans-63"/>
      <use transform="translate(932.861328 0.015625)" xlink:href="#DejaVuSans-69"/>
      <use transform="translate(960.644531 0.015625)" xlink:href="#DejaVuSans-65"/>
      <use transform="translate(1022.167969 0.015625)" xlink:href="#DejaVuSans-6e"/>
      <use transform="translate(1085.546875 0.015625)" xlink:href="#DejaVuSans-74"/>
      <use transform="translate(1124.755859 0.015625)" xlink:href="#DejaVuSans-20"/>
      <use transform="translate(1156.542969 0.015625)" xlink:href="#DejaVuSans-28"/>
      <use transform="translate(1195.556641 0.015625)" xlink:href="#DejaVuSans-Oblique-72"/>
      <use transform="translate(1236.669922 0.015625)" xlink:href="#DejaVuSans-29"/>
     </g>
    </g>
   </g>
   <g id="matplotlib.axis_2"/>
   <g id="patch_53">
    <path d="M 43.2 244.8 
L 397.44 244.8 
" style="fill:none;stroke:#d2d2d2;stroke-linecap:square;stroke-linejoin:miter;"/>
   </g>
  </g>
  <g id="axes_2">
   <g id="line2d_6">
    <path clip-path="url(#pc19219c7af)" d="M 337.583642 244.8 
L 337.583642 89.28 
" style="fill:none;stroke:#f0ad4e;stroke-dasharray:5.6,2.4;stroke-dashoffset:0;stroke-width:1.5;"/>
   </g>
   <g id="text_7">
    <!-- Initial observation -->
    <defs>
     <path d="M 9.8125 72.90625 
L 19.671875 72.90625 
L 19.671875 0 
L 9.8125 0 
z
" id="DejaVuSans-49"/>
     <path d="M 48.6875 27.296875 
Q 48.6875 37.203125 44.609375 42.84375 
Q 40.53125 48.484375 33.40625 48.484375 
Q 26.265625 48.484375 22.1875 42.84375 
Q 18.109375 37.203125 18.109375 27.296875 
Q 18.109375 17.390625 22.1875 11.75 
Q 26.265625 6.109375 33.40625 6.109375 
Q 40.53125 6.109375 44.609375 11.75 
Q 48.6875 17.390625 48.6875 27.296875 
M 18.109375 46.390625 
Q 20.953125 51.265625 25.265625 53.625 
Q 29.59375 56 35.59375 56 
Q 45.5625 56 51.78125 48.09375 
Q 58.015625 40.1875 58.015625 27.296875 
Q 58.015625 14.40625 51.78125 6.484375 
Q 45.5625 -1.421875 35.59375 -1.421875 
Q 29.59375 -1.421875 25.265625 0.953125 
Q 20.953125 3.328125 18.109375 8.203125 
L 18.109375 0 
L 9.078125 0 
L 9.078125 75.984375 
L 18.109375 75.984375 
z
" id="DejaVuSans-62"/>
     <path d="M 44.28125 53.078125 
L 44.28125 44.578125 
Q 40.484375 46.53125 36.375 47.5 
Q 32.28125 48.484375 27.875 48.484375 
Q 21.1875 48.484375 17.84375 46.4375 
Q 14.5 44.390625 14.5 40.28125 
Q 14.5 37.15625 16.890625 35.375 
Q 19.28125 33.59375 26.515625 31.984375 
L 29.59375 31.296875 
Q 39.15625 29.25 43.1875 25.515625 
Q 47.21875 21.78125 47.21875 15.09375 
Q 47.21875 7.46875 41.1875 3.015625 
Q 35.15625 -1.421875 24.609375 -1.421875 
Q 20.21875 -1.421875 15.453125 -0.5625 
Q 10.6875 0.296875 5.421875 2 
L 5.421875 11.28125 
Q 10.40625 8.6875 15.234375 7.390625 
Q 20.0625 6.109375 24.8125 6.109375 
Q 31.15625 6.109375 34.5625 8.28125 
Q 37.984375 10.453125 37.984375 14.40625 
Q 37.984375 18.0625 35.515625 20.015625 
Q 33.0625 21.96875 24.703125 23.78125 
L 21.578125 24.515625 
Q 13.234375 26.265625 9.515625 29.90625 
Q 5.8125 33.546875 5.8125 39.890625 
Q 5.8125 47.609375 11.28125 51.796875 
Q 16.75 56 26.8125 56 
Q 31.78125 56 36.171875 55.265625 
Q 40.578125 54.546875 44.28125 53.078125 
" id="DejaVuSans-73"/>
     <path d="M 2.984375 54.6875 
L 12.5 54.6875 
L 29.59375 8.796875 
L 46.6875 54.6875 
L 56.203125 54.6875 
L 35.6875 0 
L 23.484375 0 
z
" id="DejaVuSans-76"/>
    </defs>
    <g style="fill:#f0ad4e;" transform="translate(279.089736 66.082844)scale(0.13 -0.13)">
     <use xlink:href="#DejaVuSans-49"/>
     <use x="29.492188" xlink:href="#DejaVuSans-6e"/>
     <use x="92.871094" xlink:href="#DejaVuSans-69"/>
     <use x="120.654297" xlink:href="#DejaVuSans-74"/>
     <use x="159.863281" xlink:href="#DejaVuSans-69"/>
     <use x="187.646484" xlink:href="#DejaVuSans-61"/>
     <use x="248.925781" xlink:href="#DejaVuSans-6c"/>
     <use x="276.708984" xlink:href="#DejaVuSans-20"/>
     <use x="308.496094" xlink:href="#DejaVuSans-6f"/>
     <use x="369.677734" xlink:href="#DejaVuSans-62"/>
     <use x="433.154297" xlink:href="#DejaVuSans-73"/>
     <use x="485.253906" xlink:href="#DejaVuSans-65"/>
     <use x="546.777344" xlink:href="#DejaVuSans-72"/>
     <use x="587.890625" xlink:href="#DejaVuSans-76"/>
     <use x="647.070312" xlink:href="#DejaVuSans-61"/>
     <use x="708.349609" xlink:href="#DejaVuSans-74"/>
     <use x="747.558594" xlink:href="#DejaVuSans-69"/>
     <use x="775.341797" xlink:href="#DejaVuSans-6f"/>
     <use x="836.523438" xlink:href="#DejaVuSans-6e"/>
    </g>
    <!-- $r=0.711$ -->
    <defs>
     <path d="M 10.59375 45.40625 
L 73.1875 45.40625 
L 73.1875 37.203125 
L 10.59375 37.203125 
z
M 10.59375 25.484375 
L 73.1875 25.484375 
L 73.1875 17.1875 
L 10.59375 17.1875 
z
" id="DejaVuSans-3d"/>
     <path d="M 8.203125 72.90625 
L 55.078125 72.90625 
L 55.078125 68.703125 
L 28.609375 0 
L 18.3125 0 
L 43.21875 64.59375 
L 8.203125 64.59375 
z
" id="DejaVuSans-37"/>
    </defs>
    <g style="fill:#f0ad4e;" transform="translate(308.268642 80.64)scale(0.13 -0.13)">
     <use transform="translate(0 0.78125)" xlink:href="#DejaVuSans-Oblique-72"/>
     <use transform="translate(60.595703 0.78125)" xlink:href="#DejaVuSans-3d"/>
     <use transform="translate(163.867188 0.78125)" xlink:href="#DejaVuSans-30"/>
     <use transform="translate(227.490234 0.78125)" xlink:href="#DejaVuSans-2e"/>
     <use transform="translate(259.167969 0.78125)" xlink:href="#DejaVuSans-37"/>
     <use transform="translate(322.791016 0.78125)" xlink:href="#DejaVuSans-31"/>
     <use transform="translate(386.414062 0.78125)" xlink:href="#DejaVuSans-31"/>
    </g>
   </g>
  </g>
  <g id="axes_3">
   <g id="line2d_7">
    <path clip-path="url(#pc19219c7af)" d="M 118.458097 244.8 
L 118.458097 89.28 
" style="fill:none;stroke:#f0ad4e;stroke-dasharray:5.6,2.4;stroke-dashoffset:0;stroke-width:1.5;"/>
   </g>
   <g id="text_8">
    <!-- 0 simulations -->
    <defs>
     <path d="M 52 44.1875 
Q 55.375 50.25 60.0625 53.125 
Q 64.75 56 71.09375 56 
Q 79.640625 56 84.28125 50.015625 
Q 88.921875 44.046875 88.921875 33.015625 
L 88.921875 0 
L 79.890625 0 
L 79.890625 32.71875 
Q 79.890625 40.578125 77.09375 44.375 
Q 74.3125 48.1875 68.609375 48.1875 
Q 61.625 48.1875 57.5625 43.546875 
Q 53.515625 38.921875 53.515625 30.90625 
L 53.515625 0 
L 44.484375 0 
L 44.484375 32.71875 
Q 44.484375 40.625 41.703125 44.40625 
Q 38.921875 48.1875 33.109375 48.1875 
Q 26.21875 48.1875 22.15625 43.53125 
Q 18.109375 38.875 18.109375 30.90625 
L 18.109375 0 
L 9.078125 0 
L 9.078125 54.6875 
L 18.109375 54.6875 
L 18.109375 46.1875 
Q 21.1875 51.21875 25.484375 53.609375 
Q 29.78125 56 35.6875 56 
Q 41.65625 56 45.828125 52.96875 
Q 50 49.953125 52 44.1875 
" id="DejaVuSans-6d"/>
     <path d="M 8.5 21.578125 
L 8.5 54.6875 
L 17.484375 54.6875 
L 17.484375 21.921875 
Q 17.484375 14.15625 20.5 10.265625 
Q 23.53125 6.390625 29.59375 6.390625 
Q 36.859375 6.390625 41.078125 11.03125 
Q 45.3125 15.671875 45.3125 23.6875 
L 45.3125 54.6875 
L 54.296875 54.6875 
L 54.296875 0 
L 45.3125 0 
L 45.3125 8.40625 
Q 42.046875 3.421875 37.71875 1 
Q 33.40625 -1.421875 27.6875 -1.421875 
Q 18.265625 -1.421875 13.375 4.4375 
Q 8.5 10.296875 8.5 21.578125 
M 31.109375 56 
z
" id="DejaVuSans-75"/>
    </defs>
    <g style="fill:#d2d2d2;" transform="translate(345.284511 122.242844)scale(0.13 -0.13)">
     <use xlink:href="#DejaVuSans-30"/>
     <use x="63.623047" xlink:href="#DejaVuSans-20"/>
     <use x="95.410156" xlink:href="#DejaVuSans-73"/>
     <use x="147.509766" xlink:href="#DejaVuSans-69"/>
     <use x="175.292969" xlink:href="#DejaVuSans-6d"/>
     <use x="272.705078" xlink:href="#DejaVuSans-75"/>
     <use x="336.083984" xlink:href="#DejaVuSans-6c"/>
     <use x="363.867188" xlink:href="#DejaVuSans-61"/>
     <use x="425.146484" xlink:href="#DejaVuSans-74"/>
     <use x="464.355469" xlink:href="#DejaVuSans-69"/>
     <use x="492.138672" xlink:href="#DejaVuSans-6f"/>
     <use x="553.320312" xlink:href="#DejaVuSans-6e"/>
     <use x="616.699219" xlink:href="#DejaVuSans-73"/>
    </g>
    <!-- $r\geq$0.711 -->
    <defs>
     <path d="M 10.59375 49.609375 
L 10.59375 58.203125 
L 73.1875 40.28125 
L 73.1875 31.984375 
L 10.59375 14.015625 
L 10.59375 22.703125 
L 57.515625 36.078125 
z
M 73.1875 8.296875 
L 73.1875 0 
L 10.59375 0 
L 10.59375 8.296875 
z
" id="DejaVuSans-2265"/>
    </defs>
    <g style="fill:#d2d2d2;" transform="translate(345.284511 136.8)scale(0.13 -0.13)">
     <use transform="translate(0 0.78125)" xlink:href="#DejaVuSans-Oblique-72"/>
     <use transform="translate(60.595703 0.78125)" xlink:href="#DejaVuSans-2265"/>
     <use transform="translate(163.867188 0.78125)" xlink:href="#DejaVuSans-30"/>
     <use transform="translate(227.490234 0.78125)" xlink:href="#DejaVuSans-2e"/>
     <use transform="translate(259.167969 0.78125)" xlink:href="#DejaVuSans-37"/>
     <use transform="translate(322.791016 0.78125)" xlink:href="#DejaVuSans-31"/>
     <use transform="translate(386.414062 0.78125)" xlink:href="#DejaVuSans-31"/>
    </g>
   </g>
   <g id="text_9">
    <!-- 3 simulations -->
    <defs>
     <path d="M 40.578125 39.3125 
Q 47.65625 37.796875 51.625 33 
Q 55.609375 28.21875 55.609375 21.1875 
Q 55.609375 10.40625 48.1875 4.484375 
Q 40.765625 -1.421875 27.09375 -1.421875 
Q 22.515625 -1.421875 17.65625 -0.515625 
Q 12.796875 0.390625 7.625 2.203125 
L 7.625 11.71875 
Q 11.71875 9.328125 16.59375 8.109375 
Q 21.484375 6.890625 26.8125 6.890625 
Q 36.078125 6.890625 40.9375 10.546875 
Q 45.796875 14.203125 45.796875 21.1875 
Q 45.796875 27.640625 41.28125 31.265625 
Q 36.765625 34.90625 28.71875 34.90625 
L 20.21875 34.90625 
L 20.21875 43.015625 
L 29.109375 43.015625 
Q 36.375 43.015625 40.234375 45.921875 
Q 44.09375 48.828125 44.09375 54.296875 
Q 44.09375 59.90625 40.109375 62.90625 
Q 36.140625 65.921875 28.71875 65.921875 
Q 24.65625 65.921875 20.015625 65.03125 
Q 15.375 64.15625 9.8125 62.3125 
L 9.8125 71.09375 
Q 15.4375 72.65625 20.34375 73.4375 
Q 25.25 74.21875 29.59375 74.21875 
Q 40.828125 74.21875 47.359375 69.109375 
Q 53.90625 64.015625 53.90625 55.328125 
Q 53.90625 49.265625 50.4375 45.09375 
Q 46.96875 40.921875 40.578125 39.3125 
" id="DejaVuSans-33"/>
    </defs>
    <g style="fill:#d2d2d2;" transform="translate(23.817696 122.242844)scale(0.13 -0.13)">
     <use xlink:href="#DejaVuSans-33"/>
     <use x="63.623047" xlink:href="#DejaVuSans-20"/>
     <use x="95.410156" xlink:href="#DejaVuSans-73"/>
     <use x="147.509766" xlink:href="#DejaVuSans-69"/>
     <use x="175.292969" xlink:href="#DejaVuSans-6d"/>
     <use x="272.705078" xlink:href="#DejaVuSans-75"/>
     <use x="336.083984" xlink:href="#DejaVuSans-6c"/>
     <use x="363.867188" xlink:href="#DejaVuSans-61"/>
     <use x="425.146484" xlink:href="#DejaVuSans-74"/>
     <use x="464.355469" xlink:href="#DejaVuSans-69"/>
     <use x="492.138672" xlink:href="#DejaVuSans-6f"/>
     <use x="553.320312" xlink:href="#DejaVuSans-6e"/>
     <use x="616.699219" xlink:href="#DejaVuSans-73"/>
    </g>
    <!-- $r\leq$-0.711 -->
    <defs>
     <path d="M 73.1875 49.609375 
L 26.3125 36.078125 
L 73.1875 22.703125 
L 73.1875 14.015625 
L 10.59375 31.984375 
L 10.59375 40.28125 
L 73.1875 58.203125 
z
M 10.59375 8.296875 
L 73.1875 8.296875 
L 73.1875 0 
L 10.59375 0 
z
" id="DejaVuSans-2264"/>
     <path d="M 4.890625 31.390625 
L 31.203125 31.390625 
L 31.203125 23.390625 
L 4.890625 23.390625 
z
" id="DejaVuSans-2d"/>
    </defs>
    <g style="fill:#d2d2d2;" transform="translate(47.447228 136.8)scale(0.13 -0.13)">
     <use transform="translate(0 0.78125)" xlink:href="#DejaVuSans-Oblique-72"/>
     <use transform="translate(60.595703 0.78125)" xlink:href="#DejaVuSans-2264"/>
     <use transform="translate(163.867188 0.78125)" xlink:href="#DejaVuSans-2d"/>
     <use transform="translate(199.951172 0.78125)" xlink:href="#DejaVuSans-30"/>
     <use transform="translate(263.574219 0.78125)" xlink:href="#DejaVuSans-2e"/>
     <use transform="translate(295.251953 0.78125)" xlink:href="#DejaVuSans-37"/>
     <use transform="translate(358.875 0.78125)" xlink:href="#DejaVuSans-31"/>
     <use transform="translate(422.498047 0.78125)" xlink:href="#DejaVuSans-31"/>
    </g>
   </g>
   <g id="text_10">
    <!-- 2-tail p-value -->
    <defs>
     <path d="M 19.1875 8.296875 
L 53.609375 8.296875 
L 53.609375 0 
L 7.328125 0 
L 7.328125 8.296875 
Q 12.9375 14.109375 22.625 23.890625 
Q 32.328125 33.6875 34.8125 36.53125 
Q 39.546875 41.84375 41.421875 45.53125 
Q 43.3125 49.21875 43.3125 52.78125 
Q 43.3125 58.59375 39.234375 62.25 
Q 35.15625 65.921875 28.609375 65.921875 
Q 23.96875 65.921875 18.8125 64.3125 
Q 13.671875 62.703125 7.8125 59.421875 
L 7.8125 69.390625 
Q 13.765625 71.78125 18.9375 73 
Q 24.125 74.21875 28.421875 74.21875 
Q 39.75 74.21875 46.484375 68.546875 
Q 53.21875 62.890625 53.21875 53.421875 
Q 53.21875 48.921875 51.53125 44.890625 
Q 49.859375 40.875 45.40625 35.40625 
Q 44.1875 33.984375 37.640625 27.21875 
Q 31.109375 20.453125 19.1875 8.296875 
" id="DejaVuSans-32"/>
     <path d="M 18.109375 8.203125 
L 18.109375 -20.796875 
L 9.078125 -20.796875 
L 9.078125 54.6875 
L 18.109375 54.6875 
L 18.109375 46.390625 
Q 20.953125 51.265625 25.265625 53.625 
Q 29.59375 56 35.59375 56 
Q 45.5625 56 51.78125 48.09375 
Q 58.015625 40.1875 58.015625 27.296875 
Q 58.015625 14.40625 51.78125 6.484375 
Q 45.5625 -1.421875 35.59375 -1.421875 
Q 29.59375 -1.421875 25.265625 0.953125 
Q 20.953125 3.328125 18.109375 8.203125 
M 48.6875 27.296875 
Q 48.6875 37.203125 44.609375 42.84375 
Q 40.53125 48.484375 33.40625 48.484375 
Q 26.265625 48.484375 22.1875 42.84375 
Q 18.109375 37.203125 18.109375 27.296875 
Q 18.109375 17.390625 22.1875 11.75 
Q 26.265625 6.109375 33.40625 6.109375 
Q 40.53125 6.109375 44.609375 11.75 
Q 48.6875 17.390625 48.6875 27.296875 
" id="DejaVuSans-70"/>
    </defs>
    <g style="fill:#d9534f;" transform="translate(43.2 38.677969)scale(0.13 -0.13)">
     <use xlink:href="#DejaVuSans-32"/>
     <use x="63.623047" xlink:href="#DejaVuSans-2d"/>
     <use x="99.707031" xlink:href="#DejaVuSans-74"/>
     <use x="138.916016" xlink:href="#DejaVuSans-61"/>
     <use x="200.195312" xlink:href="#DejaVuSans-69"/>
     <use x="227.978516" xlink:href="#DejaVuSans-6c"/>
     <use x="255.761719" xlink:href="#DejaVuSans-20"/>
     <use x="287.548828" xlink:href="#DejaVuSans-70"/>
     <use x="351.025391" xlink:href="#DejaVuSans-2d"/>
     <use x="387.078125" xlink:href="#DejaVuSans-76"/>
     <use x="446.257812" xlink:href="#DejaVuSans-61"/>
     <use x="507.537109" xlink:href="#DejaVuSans-6c"/>
     <use x="535.320312" xlink:href="#DejaVuSans-75"/>
     <use x="598.699219" xlink:href="#DejaVuSans-65"/>
    </g>
    <!-- p = 0.0003 -->
    <g style="fill:#d9534f;" transform="translate(43.2 53.235125)scale(0.13 -0.13)">
     <use xlink:href="#DejaVuSans-70"/>
     <use x="63.476562" xlink:href="#DejaVuSans-20"/>
     <use x="95.263672" xlink:href="#DejaVuSans-3d"/>
     <use x="179.052734" xlink:href="#DejaVuSans-20"/>
     <use x="210.839844" xlink:href="#DejaVuSans-30"/>
     <use x="274.462891" xlink:href="#DejaVuSans-2e"/>
     <use x="306.25" xlink:href="#DejaVuSans-30"/>
     <use x="369.873047" xlink:href="#DejaVuSans-30"/>
     <use x="433.496094" xlink:href="#DejaVuSans-30"/>
     <use x="497.119141" xlink:href="#DejaVuSans-33"/>
    </g>
   </g>
  </g>
 </g>
 <defs>
  <clipPath id="pc19219c7af">
   <rect height="216" width="354.24" x="43.2" y="28.8"/>
  </clipPath>
 </defs>
</svg>
