<?xml version="1.0" encoding="utf-8"?>
<!-- Generator: Adobe Illustrator 16.0.4, SVG Export Plug-In . SVG Version: 6.00 Build 0)  -->
<!DOCTYPE svg PUBLIC "-//W3C//DTD SVG 1.1//EN" "http://www.w3.org/Graphics/SVG/1.1/DTD/svg11.dtd">
<svg version="1.1" id="Layer_1" xmlns="http://www.w3.org/2000/svg" xmlns:xlink="http://www.w3.org/1999/xlink" x="0px" y="0px"
	 width="317.5px" height="244.5px" viewBox="0 0 317.5 244.5" enable-background="new 0 0 317.5 244.5" xml:space="preserve">
<circle fill="#5BC0DE" cx="170.257" cy="38.219" r="5.069"/>
<line fill="none" stroke="#D2D2D2" stroke-width="1.5" stroke-linecap="round" x1="41.295" y1="26.378" x2="46.294" y2="26.378"/>
<line fill="none" stroke="#D2D2D2" stroke-width="1.5" stroke-linecap="round" x1="41.295" y1="51.429" x2="46.294" y2="51.429"/>
<line fill="none" stroke="#D2D2D2" stroke-width="1.5" stroke-linecap="round" x1="41.295" y1="76.481" x2="46.294" y2="76.481"/>
<line fill="none" stroke="#D2D2D2" stroke-width="1.5" stroke-linecap="round" x1="41.295" y1="101.532" x2="46.294" y2="101.532"/>
<line fill="none" stroke="#D2D2D2" stroke-width="1.5" stroke-linecap="round" x1="41.295" y1="126.584" x2="46.294" y2="126.584"/>
<line fill="none" stroke="#D2D2D2" stroke-width="1.5" stroke-linecap="round" x1="41.295" y1="151.635" x2="46.294" y2="151.635"/>
<line fill="none" stroke="#D2D2D2" stroke-width="1.5" stroke-linecap="round" x1="41.295" y1="176.686" x2="46.294" y2="176.686"/>
<line fill="none" stroke="#D2D2D2" stroke-width="1.5" stroke-linecap="round" x1="41.295" y1="201.738" x2="46.294" y2="201.738"/>
<line fill="none" stroke="#D2D2D2" stroke-width="1.5" stroke-linecap="round" x1="56.834" y1="208.808" x2="56.834" y2="203.809"/>
<line fill="none" stroke="#D2D2D2" stroke-linecap="round" x1="67.145" y1="206.777" x2="67.145" y2="203.34"/>
<line fill="none" stroke="#D2D2D2" stroke-width="1.5" stroke-linecap="round" x1="77.456" y1="208.808" x2="77.456" y2="203.809"/>
<line fill="none" stroke="#D2D2D2" stroke-linecap="round" x1="87.767" y1="206.777" x2="87.767" y2="203.34"/>
<line fill="none" stroke="#D2D2D2" stroke-width="1.5" stroke-linecap="round" x1="98.078" y1="208.808" x2="98.078" y2="203.809"/>
<line fill="none" stroke="#D2D2D2" stroke-linecap="round" x1="108.389" y1="206.777" x2="108.389" y2="203.34"/>
<line fill="none" stroke="#D2D2D2" stroke-width="1.5" stroke-linecap="round" x1="118.7" y1="208.808" x2="118.7" y2="203.809"/>
<line fill="none" stroke="#D2D2D2" stroke-linecap="round" x1="129.011" y1="206.777" x2="129.011" y2="203.34"/>
<line fill="none" stroke="#D2D2D2" stroke-width="1.5" stroke-linecap="round" x1="139.323" y1="208.808" x2="139.323" y2="203.809"/>
<line fill="none" stroke="#D2D2D2" stroke-linecap="round" x1="149.634" y1="206.777" x2="149.634" y2="203.34"/>
<line fill="none" stroke="#D2D2D2" stroke-width="1.5" stroke-linecap="round" x1="159.946" y1="208.808" x2="159.946" y2="203.809"/>
<line fill="none" stroke="#D2D2D2" stroke-linecap="round" x1="170.257" y1="206.777" x2="170.257" y2="203.34"/>
<line fill="none" stroke="#D2D2D2" stroke-width="1.5" stroke-linecap="round" x1="180.568" y1="208.808" x2="180.568" y2="203.809"/>
<line fill="none" stroke="#D2D2D2" stroke-linecap="round" x1="190.879" y1="206.777" x2="190.879" y2="203.34"/>
<line fill="none" stroke="#D2D2D2" stroke-width="1.5" stroke-linecap="round" x1="201.191" y1="208.808" x2="201.191" y2="203.809"/>
<line fill="none" stroke="#D2D2D2" stroke-linecap="round" x1="211.502" y1="206.777" x2="211.502" y2="203.34"/>
<line fill="none" stroke="#D2D2D2" stroke-width="1.5" stroke-linecap="round" x1="221.814" y1="208.808" x2="221.814" y2="203.809"/>
<line fill="none" stroke="#D2D2D2" stroke-linecap="round" x1="232.125" y1="206.777" x2="232.125" y2="203.34"/>
<line fill="none" stroke="#D2D2D2" stroke-width="1.5" stroke-linecap="round" x1="242.438" y1="208.808" x2="242.438" y2="203.809"/>
<line fill="none" stroke="#D2D2D2" stroke-linecap="round" x1="252.748" y1="206.777" x2="252.748" y2="203.34"/>
<line fill="none" stroke="#D2D2D2" stroke-width="1.5" stroke-linecap="round" x1="263.059" y1="208.808" x2="263.059" y2="203.809"/>
<line fill="none" stroke="#D2D2D2" stroke-linecap="round" x1="273.37" y1="206.777" x2="273.37" y2="203.34"/>
<line fill="none" stroke="#D2D2D2" stroke-width="1.5" stroke-linecap="round" x1="283.682" y1="208.808" x2="283.682" y2="203.809"/>
<line fill="none" stroke="#D2D2D2" stroke-linecap="round" x1="293.993" y1="206.777" x2="293.993" y2="203.34"/>
<g>
	<path fill="#D2D2D2" d="M59.181,216.818c0,0.483-0.07,0.929-0.209,1.336s-0.332,0.759-0.578,1.057
		c-0.246,0.297-0.537,0.527-0.875,0.692s-0.704,0.248-1.1,0.248s-0.763-0.083-1.1-0.248c-0.337-0.165-0.629-0.396-0.875-0.692
		c-0.246-0.298-0.438-0.649-0.578-1.057s-0.209-0.853-0.209-1.336c0-0.484,0.07-0.93,0.209-1.337s0.332-0.759,0.578-1.056
		c0.246-0.297,0.537-0.53,0.875-0.699c0.337-0.168,0.704-0.253,1.1-0.253s0.762,0.085,1.1,0.253
		c0.337,0.169,0.629,0.402,0.875,0.699s0.438,0.648,0.578,1.056S59.181,216.334,59.181,216.818z M58.422,216.818
		c0-0.396-0.05-0.756-0.148-1.078c-0.099-0.323-0.237-0.6-0.413-0.831c-0.176-0.23-0.387-0.41-0.633-0.539
		c-0.246-0.128-0.515-0.192-0.808-0.192c-0.301,0-0.574,0.064-0.82,0.192c-0.246,0.129-0.457,0.309-0.632,0.539
		c-0.176,0.231-0.313,0.508-0.413,0.831c-0.099,0.322-0.148,0.682-0.148,1.078c0,0.396,0.049,0.755,0.148,1.078
		c0.099,0.322,0.236,0.599,0.413,0.83c0.176,0.23,0.387,0.409,0.632,0.533c0.246,0.125,0.519,0.188,0.82,0.188
		c0.293,0,0.562-0.062,0.808-0.188c0.246-0.124,0.457-0.303,0.633-0.533c0.176-0.231,0.313-0.508,0.413-0.83
		C58.373,217.573,58.422,217.214,58.422,216.818z"/>
	<path fill="#D2D2D2" d="M74.294,220.041c0-0.249,0.022-0.501,0.066-0.754c0.044-0.253,0.13-0.504,0.259-0.753
		c0.128-0.249,0.312-0.489,0.55-0.721s0.556-0.449,0.952-0.654c0.212-0.11,0.435-0.219,0.666-0.324
		c0.231-0.106,0.443-0.226,0.638-0.358c0.194-0.132,0.354-0.28,0.479-0.445c0.125-0.165,0.187-0.357,0.187-0.577
		c0-0.14-0.031-0.276-0.093-0.412c-0.062-0.136-0.154-0.257-0.275-0.363s-0.271-0.192-0.451-0.259
		c-0.18-0.065-0.391-0.099-0.632-0.099c-0.242,0-0.458,0.034-0.649,0.104c-0.191,0.069-0.358,0.152-0.5,0.247
		c-0.143,0.096-0.266,0.196-0.369,0.303c-0.103,0.106-0.18,0.192-0.231,0.259l-0.495-0.539c0.044-0.044,0.128-0.125,0.253-0.242
		s0.288-0.234,0.49-0.353c0.202-0.117,0.438-0.222,0.709-0.313c0.271-0.091,0.576-0.137,0.913-0.137
		c0.337,0,0.638,0.046,0.902,0.137c0.264,0.092,0.487,0.219,0.671,0.38c0.183,0.161,0.323,0.347,0.418,0.556
		s0.143,0.427,0.143,0.654c0,0.301-0.066,0.562-0.198,0.781c-0.132,0.22-0.295,0.41-0.489,0.572
		c-0.194,0.161-0.401,0.299-0.622,0.412c-0.22,0.113-0.418,0.211-0.594,0.291c-0.235,0.104-0.464,0.219-0.688,0.347
		c-0.224,0.129-0.424,0.27-0.6,0.424c-0.176,0.154-0.321,0.326-0.435,0.517c-0.114,0.191-0.17,0.403-0.17,0.639h3.916v0.682H74.294z
		"/>
	<path fill="#D2D2D2" d="M97.482,221.438v-1.958h-3.663v-0.66l3.905-5.061h0.506v5.038h0.968v0.683H98.23v1.958H97.482z
		 M94.611,218.798h2.948v-3.86L94.611,218.798z"/>
	<path fill="#D2D2D2" d="M122.55,217.467c0,0.374-0.072,0.725-0.215,1.051c-0.144,0.326-0.339,0.61-0.589,0.853
		c-0.249,0.242-0.543,0.433-0.88,0.572c-0.337,0.139-0.7,0.209-1.089,0.209c-0.411,0-0.788-0.075-1.133-0.226
		s-0.64-0.365-0.886-0.644c-0.246-0.279-0.438-0.622-0.577-1.028c-0.14-0.407-0.209-0.864-0.209-1.37
		c0-0.792,0.069-1.482,0.209-2.073c0.139-0.59,0.335-1.082,0.588-1.474c0.253-0.393,0.556-0.685,0.908-0.875
		c0.352-0.19,0.744-0.286,1.177-0.286c0.521,0,0.986,0.129,1.396,0.385c0.411,0.257,0.723,0.613,0.936,1.067l-0.484,0.44
		c-0.153-0.374-0.396-0.673-0.726-0.896s-0.704-0.336-1.122-0.336c-0.323,0-0.616,0.077-0.88,0.231
		c-0.265,0.153-0.489,0.376-0.677,0.665c-0.187,0.29-0.334,0.647-0.44,1.072c-0.105,0.426-0.159,0.906-0.159,1.441
		c0.161-0.433,0.438-0.777,0.831-1.034c0.392-0.257,0.837-0.385,1.336-0.385c0.374,0,0.725,0.067,1.051,0.203
		s0.61,0.323,0.853,0.562s0.433,0.519,0.572,0.841C122.48,216.756,122.55,217.101,122.55,217.467z M119.8,219.491
		c0.278,0,0.54-0.054,0.786-0.16c0.245-0.105,0.462-0.251,0.649-0.434c0.187-0.184,0.333-0.398,0.439-0.644
		c0.106-0.246,0.159-0.508,0.159-0.787c0-0.278-0.055-0.54-0.165-0.786c-0.109-0.246-0.258-0.46-0.445-0.644
		c-0.187-0.184-0.403-0.328-0.648-0.435c-0.246-0.106-0.508-0.159-0.787-0.159c-0.278,0-0.541,0.053-0.786,0.159
		c-0.246,0.106-0.462,0.251-0.649,0.435c-0.187,0.184-0.333,0.397-0.439,0.644s-0.16,0.508-0.16,0.786
		c0,0.279,0.056,0.539,0.165,0.781c0.11,0.242,0.259,0.456,0.446,0.644c0.187,0.187,0.403,0.334,0.648,0.439
		C119.259,219.438,119.521,219.491,119.8,219.491z"/>
	<path fill="#D2D2D2" d="M143.032,217.874c0,0.345-0.073,0.654-0.22,0.93c-0.146,0.274-0.345,0.512-0.594,0.709
		c-0.25,0.198-0.541,0.351-0.875,0.457c-0.333,0.106-0.684,0.159-1.05,0.159c-0.389,0-0.748-0.061-1.078-0.182
		s-0.614-0.286-0.853-0.495s-0.424-0.452-0.556-0.731c-0.132-0.278-0.198-0.575-0.198-0.891c0-0.249,0.046-0.48,0.138-0.693
		c0.092-0.212,0.211-0.401,0.357-0.566s0.313-0.308,0.501-0.429c0.187-0.121,0.375-0.215,0.566-0.28
		c-0.177-0.073-0.341-0.163-0.495-0.27s-0.29-0.229-0.407-0.369c-0.117-0.139-0.211-0.293-0.28-0.462
		c-0.07-0.168-0.104-0.348-0.104-0.539c0-0.322,0.073-0.606,0.22-0.853c0.146-0.245,0.336-0.452,0.566-0.621
		c0.231-0.169,0.491-0.297,0.781-0.385c0.289-0.088,0.581-0.132,0.874-0.132c0.294,0,0.585,0.044,0.875,0.132
		c0.289,0.088,0.55,0.214,0.781,0.379c0.23,0.165,0.419,0.373,0.566,0.622c0.146,0.249,0.22,0.531,0.22,0.847
		c0,0.19-0.035,0.37-0.104,0.539s-0.165,0.324-0.286,0.468c-0.121,0.143-0.26,0.268-0.418,0.374c-0.157,0.106-0.324,0.196-0.5,0.27
		c0.212,0.073,0.414,0.174,0.604,0.302c0.19,0.129,0.357,0.277,0.501,0.446c0.143,0.168,0.256,0.359,0.341,0.571
		C142.99,217.394,143.032,217.625,143.032,217.874z M142.273,217.819c0-0.265-0.059-0.497-0.176-0.699
		c-0.117-0.201-0.271-0.372-0.462-0.511c-0.191-0.14-0.403-0.246-0.638-0.319c-0.235-0.073-0.466-0.11-0.693-0.11
		c-0.242,0-0.477,0.039-0.704,0.116c-0.228,0.076-0.433,0.187-0.616,0.33c-0.184,0.143-0.33,0.316-0.439,0.522
		c-0.11,0.205-0.165,0.433-0.165,0.682c0,0.257,0.059,0.485,0.176,0.688s0.27,0.372,0.456,0.512
		c0.188,0.139,0.396,0.245,0.627,0.318c0.231,0.074,0.464,0.11,0.699,0.11c0.234,0,0.467-0.038,0.698-0.115
		c0.23-0.077,0.438-0.188,0.621-0.33c0.184-0.144,0.332-0.315,0.446-0.518C142.216,218.294,142.273,218.068,142.273,217.819z
		 M138.632,214.255c0,0.213,0.051,0.401,0.153,0.566c0.104,0.165,0.235,0.305,0.396,0.418c0.161,0.114,0.343,0.2,0.545,0.259
		c0.201,0.059,0.397,0.088,0.588,0.088c0.198,0,0.396-0.029,0.594-0.088c0.198-0.059,0.38-0.146,0.545-0.264s0.299-0.261,0.401-0.43
		c0.103-0.168,0.154-0.359,0.154-0.571c0-0.206-0.048-0.391-0.144-0.556c-0.095-0.165-0.222-0.305-0.379-0.418
		c-0.158-0.114-0.34-0.2-0.545-0.259s-0.418-0.088-0.638-0.088c-0.213,0-0.42,0.031-0.622,0.094
		c-0.201,0.062-0.379,0.15-0.533,0.264c-0.154,0.114-0.278,0.255-0.374,0.424C138.68,213.863,138.632,214.05,138.632,214.255z"/>
	<path fill="#D2D2D2" d="M159.267,219.359v0.682h-3.729v-0.682h1.562v-4.708c-0.059,0.088-0.159,0.183-0.303,0.286
		c-0.143,0.103-0.301,0.197-0.473,0.285s-0.351,0.162-0.533,0.221c-0.184,0.059-0.345,0.088-0.484,0.088v-0.727
		c0.169,0,0.354-0.047,0.556-0.143c0.201-0.096,0.393-0.205,0.572-0.33s0.331-0.242,0.456-0.352c0.125-0.11,0.194-0.184,0.209-0.221
		h0.771v5.6H159.267z"/>
	<path fill="#D2D2D2" d="M165.636,216.818c0,0.483-0.069,0.929-0.209,1.336s-0.332,0.759-0.577,1.057
		c-0.246,0.297-0.538,0.527-0.875,0.692s-0.704,0.248-1.1,0.248c-0.396,0-0.763-0.083-1.101-0.248
		c-0.337-0.165-0.629-0.396-0.874-0.692c-0.246-0.298-0.438-0.649-0.577-1.057c-0.14-0.407-0.209-0.853-0.209-1.336
		c0-0.484,0.069-0.93,0.209-1.337c0.139-0.407,0.331-0.759,0.577-1.056c0.245-0.297,0.537-0.53,0.874-0.699
		c0.338-0.168,0.704-0.253,1.101-0.253c0.396,0,0.763,0.085,1.1,0.253c0.337,0.169,0.629,0.402,0.875,0.699
		c0.245,0.297,0.438,0.648,0.577,1.056S165.636,216.334,165.636,216.818z M164.877,216.818c0-0.396-0.05-0.756-0.148-1.078
		c-0.1-0.323-0.236-0.6-0.413-0.831c-0.176-0.23-0.387-0.41-0.632-0.539c-0.246-0.128-0.516-0.192-0.809-0.192
		c-0.301,0-0.574,0.064-0.819,0.192c-0.246,0.129-0.457,0.309-0.633,0.539c-0.176,0.231-0.313,0.508-0.412,0.831
		c-0.1,0.322-0.149,0.682-0.149,1.078c0,0.396,0.05,0.755,0.149,1.078c0.099,0.322,0.236,0.599,0.412,0.83
		c0.176,0.23,0.387,0.409,0.633,0.533c0.245,0.125,0.519,0.188,0.819,0.188c0.293,0,0.562-0.062,0.809-0.188
		c0.245-0.124,0.456-0.303,0.632-0.533c0.177-0.231,0.313-0.508,0.413-0.83C164.828,217.573,164.877,217.214,164.877,216.818z"/>
	<path fill="#D2D2D2" d="M181.926,219.359v0.682h-3.729v-0.682h1.562v-4.708c-0.059,0.088-0.159,0.183-0.303,0.286
		c-0.143,0.103-0.301,0.197-0.473,0.285s-0.351,0.162-0.533,0.221c-0.184,0.059-0.345,0.088-0.484,0.088v-0.727
		c0.169,0,0.354-0.047,0.556-0.143c0.201-0.096,0.393-0.205,0.572-0.33s0.331-0.242,0.456-0.352c0.125-0.11,0.194-0.184,0.209-0.221
		h0.771v5.6H181.926z"/>
	<path fill="#D2D2D2" d="M182.653,220.041c0-0.249,0.021-0.501,0.065-0.754s0.13-0.504,0.259-0.753
		c0.128-0.249,0.312-0.489,0.55-0.721s0.556-0.449,0.951-0.654c0.213-0.11,0.435-0.219,0.666-0.324
		c0.23-0.106,0.443-0.226,0.638-0.358c0.194-0.132,0.354-0.28,0.479-0.445s0.188-0.357,0.188-0.577c0-0.14-0.031-0.276-0.094-0.412
		s-0.154-0.257-0.275-0.363s-0.271-0.192-0.45-0.259c-0.181-0.065-0.391-0.099-0.633-0.099s-0.459,0.034-0.649,0.104
		c-0.19,0.069-0.357,0.152-0.5,0.247c-0.144,0.096-0.267,0.196-0.369,0.303s-0.18,0.192-0.23,0.259l-0.495-0.539
		c0.044-0.044,0.128-0.125,0.253-0.242s0.288-0.234,0.489-0.353c0.202-0.117,0.438-0.222,0.71-0.313
		c0.271-0.091,0.575-0.137,0.913-0.137c0.337,0,0.638,0.046,0.901,0.137c0.265,0.092,0.488,0.219,0.672,0.38
		c0.183,0.161,0.322,0.347,0.418,0.556c0.095,0.209,0.143,0.427,0.143,0.654c0,0.301-0.066,0.562-0.198,0.781
		s-0.295,0.41-0.489,0.572c-0.194,0.161-0.401,0.299-0.621,0.412c-0.221,0.113-0.418,0.211-0.595,0.291
		c-0.234,0.104-0.464,0.219-0.688,0.347c-0.224,0.129-0.423,0.27-0.6,0.424c-0.176,0.154-0.32,0.326-0.435,0.517
		c-0.113,0.191-0.17,0.403-0.17,0.639h3.916v0.682H182.653z"/>
	<path fill="#D2D2D2" d="M200.78,219.359v0.682h-3.729v-0.682h1.562v-4.708c-0.059,0.088-0.159,0.183-0.303,0.286
		c-0.143,0.103-0.301,0.197-0.473,0.285s-0.351,0.162-0.533,0.221c-0.184,0.059-0.345,0.088-0.484,0.088v-0.727
		c0.169,0,0.354-0.047,0.556-0.143c0.201-0.096,0.393-0.205,0.572-0.33s0.331-0.242,0.456-0.352c0.125-0.11,0.194-0.184,0.209-0.221
		h0.771v5.6H200.78z"/>
	<path fill="#D2D2D2" d="M204.938,221.438v-1.958h-3.663v-0.66l3.905-5.061h0.506v5.038h0.969v0.683h-0.969v1.958H204.938z
		 M202.067,218.798h2.949v-3.86L202.067,218.798z"/>
	<path fill="#D2D2D2" d="M222.713,219.359v0.682h-3.729v-0.682h1.562v-4.708c-0.059,0.088-0.16,0.183-0.303,0.286
		c-0.143,0.103-0.301,0.197-0.473,0.285s-0.352,0.162-0.533,0.221c-0.184,0.059-0.346,0.088-0.484,0.088v-0.727
		c0.168,0,0.354-0.047,0.555-0.143s0.393-0.205,0.572-0.33s0.332-0.242,0.457-0.352c0.125-0.11,0.193-0.184,0.209-0.221h0.77v5.6
		H222.713z"/>
	<path fill="#D2D2D2" d="M229.105,217.467c0,0.374-0.072,0.725-0.215,1.051c-0.145,0.326-0.34,0.61-0.59,0.853
		c-0.248,0.242-0.543,0.433-0.879,0.572c-0.338,0.139-0.701,0.209-1.09,0.209c-0.41,0-0.787-0.075-1.133-0.226
		c-0.344-0.15-0.639-0.365-0.885-0.644c-0.246-0.279-0.439-0.622-0.578-1.028c-0.139-0.407-0.209-0.864-0.209-1.37
		c0-0.792,0.07-1.482,0.209-2.073c0.139-0.59,0.336-1.082,0.588-1.474c0.254-0.393,0.557-0.685,0.908-0.875s0.744-0.286,1.178-0.286
		c0.52,0,0.986,0.129,1.396,0.385c0.41,0.257,0.723,0.613,0.936,1.067l-0.484,0.44c-0.154-0.374-0.396-0.673-0.727-0.896
		s-0.703-0.336-1.121-0.336c-0.324,0-0.617,0.077-0.881,0.231c-0.264,0.153-0.488,0.376-0.676,0.665
		c-0.188,0.29-0.334,0.647-0.441,1.072c-0.105,0.426-0.158,0.906-0.158,1.441c0.16-0.433,0.438-0.777,0.83-1.034
		s0.838-0.385,1.336-0.385c0.375,0,0.725,0.067,1.051,0.203s0.611,0.323,0.854,0.562s0.432,0.519,0.572,0.841
		C229.035,216.756,229.105,217.101,229.105,217.467z M226.355,219.491c0.277,0,0.539-0.054,0.785-0.16
		c0.246-0.105,0.463-0.251,0.65-0.434c0.186-0.184,0.332-0.398,0.439-0.644c0.105-0.246,0.158-0.508,0.158-0.787
		c0-0.278-0.055-0.54-0.164-0.786s-0.258-0.46-0.445-0.644s-0.404-0.328-0.648-0.435c-0.246-0.106-0.508-0.159-0.787-0.159
		s-0.541,0.053-0.787,0.159s-0.461,0.251-0.648,0.435s-0.334,0.397-0.439,0.644c-0.107,0.246-0.16,0.508-0.16,0.786
		c0,0.279,0.055,0.539,0.164,0.781c0.111,0.242,0.26,0.456,0.447,0.644c0.186,0.187,0.402,0.334,0.648,0.439
		C225.814,219.438,226.076,219.491,226.355,219.491z"/>
	<path fill="#D2D2D2" d="M242.469,219.359v0.682h-3.729v-0.682h1.562v-4.708c-0.059,0.088-0.16,0.183-0.303,0.286
		c-0.143,0.103-0.301,0.197-0.473,0.285s-0.352,0.162-0.533,0.221c-0.184,0.059-0.346,0.088-0.484,0.088v-0.727
		c0.168,0,0.354-0.047,0.555-0.143s0.393-0.205,0.572-0.33s0.332-0.242,0.457-0.352c0.125-0.11,0.193-0.184,0.209-0.221h0.77v5.6
		H242.469z"/>
	<path fill="#D2D2D2" d="M248.684,217.874c0,0.345-0.074,0.654-0.221,0.93c-0.146,0.274-0.344,0.512-0.594,0.709
		c-0.25,0.198-0.541,0.351-0.875,0.457c-0.332,0.106-0.684,0.159-1.049,0.159c-0.389,0-0.748-0.061-1.078-0.182
		s-0.615-0.286-0.854-0.495s-0.424-0.452-0.555-0.731c-0.133-0.278-0.199-0.575-0.199-0.891c0-0.249,0.047-0.48,0.139-0.693
		c0.092-0.212,0.211-0.401,0.357-0.566s0.312-0.308,0.5-0.429s0.375-0.215,0.566-0.28c-0.176-0.073-0.34-0.163-0.494-0.27
		s-0.291-0.229-0.408-0.369c-0.117-0.139-0.211-0.293-0.279-0.462c-0.07-0.168-0.105-0.348-0.105-0.539
		c0-0.322,0.074-0.606,0.221-0.853c0.146-0.245,0.336-0.452,0.566-0.621s0.49-0.297,0.781-0.385c0.289-0.088,0.58-0.132,0.873-0.132
		c0.295,0,0.586,0.044,0.875,0.132s0.551,0.214,0.781,0.379s0.42,0.373,0.566,0.622s0.221,0.531,0.221,0.847
		c0,0.19-0.035,0.37-0.105,0.539c-0.068,0.169-0.164,0.324-0.285,0.468c-0.121,0.143-0.26,0.268-0.418,0.374s-0.324,0.196-0.5,0.27
		c0.211,0.073,0.414,0.174,0.604,0.302c0.191,0.129,0.357,0.277,0.502,0.446c0.143,0.168,0.256,0.359,0.34,0.571
		C248.641,217.394,248.684,217.625,248.684,217.874z M247.924,217.819c0-0.265-0.059-0.497-0.176-0.699
		c-0.117-0.201-0.271-0.372-0.461-0.511c-0.191-0.14-0.404-0.246-0.639-0.319s-0.465-0.11-0.693-0.11
		c-0.242,0-0.477,0.039-0.703,0.116c-0.229,0.076-0.434,0.187-0.617,0.33c-0.184,0.143-0.33,0.316-0.439,0.522
		c-0.109,0.205-0.164,0.433-0.164,0.682c0,0.257,0.059,0.485,0.176,0.688s0.27,0.372,0.455,0.512
		c0.188,0.139,0.396,0.245,0.627,0.318c0.232,0.074,0.465,0.11,0.699,0.11s0.467-0.038,0.699-0.115
		c0.23-0.077,0.438-0.188,0.621-0.33c0.184-0.144,0.332-0.315,0.445-0.518C247.867,218.294,247.924,218.068,247.924,217.819z
		 M244.283,214.255c0,0.213,0.051,0.401,0.154,0.566s0.234,0.305,0.396,0.418c0.16,0.114,0.342,0.2,0.545,0.259
		c0.201,0.059,0.396,0.088,0.588,0.088c0.197,0,0.396-0.029,0.594-0.088s0.379-0.146,0.545-0.264c0.164-0.117,0.299-0.261,0.4-0.43
		c0.104-0.168,0.154-0.359,0.154-0.571c0-0.206-0.047-0.391-0.143-0.556s-0.223-0.305-0.379-0.418
		c-0.158-0.114-0.34-0.2-0.545-0.259s-0.418-0.088-0.639-0.088c-0.213,0-0.42,0.031-0.621,0.094s-0.379,0.15-0.533,0.264
		c-0.154,0.114-0.279,0.255-0.375,0.424C244.332,213.863,244.283,214.05,244.283,214.255z"/>
	<path fill="#D2D2D2" d="M258.133,220.041c0-0.249,0.021-0.501,0.064-0.754c0.045-0.253,0.131-0.504,0.26-0.753
		c0.127-0.249,0.311-0.489,0.549-0.721s0.557-0.449,0.951-0.654c0.213-0.11,0.436-0.219,0.666-0.324
		c0.23-0.106,0.443-0.226,0.639-0.358c0.193-0.132,0.354-0.28,0.479-0.445s0.188-0.357,0.188-0.577c0-0.14-0.031-0.276-0.094-0.412
		s-0.154-0.257-0.275-0.363s-0.271-0.192-0.451-0.259c-0.18-0.065-0.391-0.099-0.633-0.099s-0.459,0.034-0.648,0.104
		c-0.191,0.069-0.357,0.152-0.5,0.247c-0.145,0.096-0.268,0.196-0.369,0.303c-0.104,0.106-0.18,0.192-0.23,0.259l-0.496-0.539
		c0.045-0.044,0.129-0.125,0.254-0.242s0.287-0.234,0.488-0.353c0.203-0.117,0.439-0.222,0.711-0.313
		c0.271-0.091,0.574-0.137,0.912-0.137s0.639,0.046,0.902,0.137c0.264,0.092,0.488,0.219,0.672,0.38
		c0.182,0.161,0.322,0.347,0.418,0.556c0.094,0.209,0.143,0.427,0.143,0.654c0,0.301-0.066,0.562-0.199,0.781
		c-0.131,0.22-0.295,0.41-0.488,0.572c-0.195,0.161-0.402,0.299-0.621,0.412c-0.221,0.113-0.418,0.211-0.596,0.291
		c-0.234,0.104-0.463,0.219-0.688,0.347c-0.223,0.129-0.422,0.27-0.6,0.424c-0.176,0.154-0.32,0.326-0.434,0.517
		c-0.113,0.191-0.17,0.403-0.17,0.639h3.916v0.682H258.133z"/>
	<path fill="#D2D2D2" d="M269.506,216.818c0,0.483-0.068,0.929-0.209,1.336c-0.139,0.407-0.332,0.759-0.576,1.057
		c-0.246,0.297-0.539,0.527-0.875,0.692c-0.338,0.165-0.705,0.248-1.1,0.248c-0.396,0-0.764-0.083-1.102-0.248
		c-0.336-0.165-0.629-0.396-0.873-0.692c-0.246-0.298-0.439-0.649-0.578-1.057s-0.209-0.853-0.209-1.336
		c0-0.484,0.07-0.93,0.209-1.337s0.332-0.759,0.578-1.056c0.244-0.297,0.537-0.53,0.873-0.699c0.338-0.168,0.705-0.253,1.102-0.253
		c0.395,0,0.762,0.085,1.1,0.253c0.336,0.169,0.629,0.402,0.875,0.699c0.244,0.297,0.438,0.648,0.576,1.056
		C269.438,215.889,269.506,216.334,269.506,216.818z M268.748,216.818c0-0.396-0.051-0.756-0.148-1.078
		c-0.1-0.323-0.236-0.6-0.414-0.831c-0.176-0.23-0.387-0.41-0.631-0.539c-0.246-0.128-0.516-0.192-0.809-0.192
		c-0.301,0-0.574,0.064-0.82,0.192c-0.246,0.129-0.457,0.309-0.633,0.539c-0.176,0.231-0.312,0.508-0.412,0.831
		c-0.1,0.322-0.148,0.682-0.148,1.078c0,0.396,0.049,0.755,0.148,1.078c0.1,0.322,0.236,0.599,0.412,0.83
		c0.176,0.23,0.387,0.409,0.633,0.533c0.246,0.125,0.52,0.188,0.82,0.188c0.293,0,0.562-0.062,0.809-0.188
		c0.244-0.124,0.455-0.303,0.631-0.533c0.178-0.231,0.314-0.508,0.414-0.83C268.697,217.573,268.748,217.214,268.748,216.818z"/>
	<path fill="#D2D2D2" d="M279.01,220.041c0-0.249,0.021-0.501,0.066-0.754c0.043-0.253,0.129-0.504,0.258-0.753
		s0.312-0.489,0.551-0.721s0.555-0.449,0.951-0.654c0.213-0.11,0.434-0.219,0.666-0.324c0.23-0.106,0.443-0.226,0.637-0.358
		c0.195-0.132,0.354-0.28,0.479-0.445s0.188-0.357,0.188-0.577c0-0.14-0.031-0.276-0.094-0.412s-0.154-0.257-0.275-0.363
		s-0.271-0.192-0.449-0.259c-0.182-0.065-0.391-0.099-0.633-0.099s-0.459,0.034-0.65,0.104c-0.189,0.069-0.357,0.152-0.5,0.247
		c-0.143,0.096-0.266,0.196-0.369,0.303c-0.102,0.106-0.18,0.192-0.23,0.259l-0.494-0.539c0.043-0.044,0.127-0.125,0.252-0.242
		s0.289-0.234,0.49-0.353c0.201-0.117,0.438-0.222,0.709-0.313c0.271-0.091,0.576-0.137,0.914-0.137c0.336,0,0.637,0.046,0.9,0.137
		c0.266,0.092,0.488,0.219,0.672,0.38s0.322,0.347,0.418,0.556s0.143,0.427,0.143,0.654c0,0.301-0.066,0.562-0.197,0.781
		c-0.133,0.22-0.295,0.41-0.49,0.572c-0.193,0.161-0.4,0.299-0.621,0.412s-0.418,0.211-0.594,0.291
		c-0.234,0.104-0.465,0.219-0.688,0.347c-0.225,0.129-0.424,0.27-0.6,0.424s-0.32,0.326-0.436,0.517
		c-0.113,0.191-0.17,0.403-0.17,0.639h3.916v0.682H279.01z"/>
	<path fill="#D2D2D2" d="M284.742,220.041c0-0.249,0.021-0.501,0.064-0.754c0.045-0.253,0.131-0.504,0.26-0.753
		c0.127-0.249,0.311-0.489,0.549-0.721s0.557-0.449,0.951-0.654c0.213-0.11,0.436-0.219,0.666-0.324
		c0.23-0.106,0.443-0.226,0.639-0.358c0.193-0.132,0.354-0.28,0.479-0.445s0.188-0.357,0.188-0.577c0-0.14-0.031-0.276-0.094-0.412
		s-0.154-0.257-0.275-0.363s-0.271-0.192-0.451-0.259c-0.18-0.065-0.391-0.099-0.633-0.099s-0.459,0.034-0.648,0.104
		c-0.191,0.069-0.357,0.152-0.5,0.247c-0.145,0.096-0.268,0.196-0.369,0.303c-0.104,0.106-0.18,0.192-0.23,0.259l-0.496-0.539
		c0.045-0.044,0.129-0.125,0.254-0.242s0.287-0.234,0.488-0.353c0.203-0.117,0.439-0.222,0.711-0.313
		c0.271-0.091,0.574-0.137,0.912-0.137s0.639,0.046,0.902,0.137c0.264,0.092,0.488,0.219,0.672,0.38
		c0.182,0.161,0.322,0.347,0.418,0.556c0.094,0.209,0.143,0.427,0.143,0.654c0,0.301-0.066,0.562-0.199,0.781
		c-0.131,0.22-0.295,0.41-0.488,0.572c-0.195,0.161-0.402,0.299-0.621,0.412c-0.221,0.113-0.418,0.211-0.596,0.291
		c-0.234,0.104-0.463,0.219-0.688,0.347c-0.223,0.129-0.422,0.27-0.6,0.424c-0.176,0.154-0.32,0.326-0.434,0.517
		c-0.113,0.191-0.17,0.403-0.17,0.639h3.916v0.682H284.742z"/>
</g>
<g>
	<path fill="#D2D2D2" d="M20.189,200.006c0-0.341,0.065-0.659,0.195-0.955c0.13-0.297,0.308-0.556,0.535-0.775s0.494-0.394,0.8-0.52
		c0.307-0.127,0.636-0.19,0.99-0.19c0.374,0,0.717,0.068,1.03,0.205c0.313,0.137,0.582,0.332,0.805,0.585
		c0.224,0.253,0.398,0.564,0.525,0.935c0.126,0.37,0.19,0.785,0.19,1.245c0,0.721-0.063,1.349-0.19,1.885
		c-0.127,0.537-0.305,0.983-0.535,1.341c-0.23,0.356-0.507,0.621-0.83,0.795c-0.323,0.173-0.678,0.26-1.065,0.26
		c-0.467,0-0.889-0.117-1.265-0.35c-0.376-0.233-0.662-0.558-0.855-0.971l0.44-0.399c0.14,0.34,0.362,0.611,0.665,0.814
		s0.642,0.306,1.015,0.306c0.293,0,0.56-0.07,0.8-0.21c0.24-0.141,0.447-0.342,0.62-0.605s0.307-0.587,0.4-0.97
		c0.093-0.384,0.144-0.822,0.15-1.315c-0.153,0.394-0.408,0.707-0.765,0.94c-0.357,0.233-0.762,0.35-1.215,0.35
		c-0.34,0-0.658-0.062-0.955-0.185c-0.297-0.124-0.555-0.294-0.775-0.511c-0.22-0.216-0.393-0.471-0.52-0.765
		C20.252,200.652,20.189,200.339,20.189,200.006z M22.699,198.165c-0.253,0-0.492,0.049-0.715,0.146
		c-0.223,0.097-0.42,0.229-0.59,0.395c-0.17,0.167-0.305,0.362-0.405,0.585c-0.1,0.224-0.15,0.462-0.15,0.716
		c0,0.253,0.05,0.491,0.15,0.715c0.1,0.223,0.235,0.418,0.405,0.585c0.17,0.166,0.367,0.298,0.59,0.395
		c0.224,0.097,0.462,0.146,0.715,0.146c0.253,0,0.493-0.049,0.72-0.146s0.423-0.229,0.59-0.395c0.167-0.167,0.298-0.362,0.395-0.585
		c0.096-0.224,0.145-0.462,0.145-0.715c0-0.247-0.049-0.482-0.145-0.705c-0.097-0.224-0.23-0.42-0.4-0.591
		c-0.17-0.17-0.367-0.303-0.59-0.399C23.19,198.214,22.952,198.165,22.699,198.165z"/>
	<path fill="#D2D2D2" d="M29.859,198.075h-3.83v-0.63h4.91l-3.59,7.1h-0.78L29.859,198.075z"/>
	<path fill="#D2D2D2" d="M31.689,203.275v-0.98h0.59v0.98H31.689z"/>
	<path fill="#D2D2D2" d="M37.099,198.075h-3.83v-0.63h4.91l-3.59,7.1h-0.78L37.099,198.075z"/>
</g>
<g>
	<path fill="#D2D2D2" d="M20.189,174.953c0-0.341,0.065-0.659,0.195-0.955c0.13-0.297,0.308-0.556,0.535-0.775s0.494-0.394,0.8-0.52
		c0.307-0.127,0.636-0.19,0.99-0.19c0.374,0,0.717,0.068,1.03,0.205c0.313,0.137,0.582,0.332,0.805,0.585
		c0.224,0.253,0.398,0.564,0.525,0.935c0.126,0.37,0.19,0.785,0.19,1.245c0,0.721-0.063,1.349-0.19,1.885
		c-0.127,0.537-0.305,0.983-0.535,1.341c-0.23,0.356-0.507,0.621-0.83,0.795c-0.323,0.173-0.678,0.26-1.065,0.26
		c-0.467,0-0.889-0.117-1.265-0.35c-0.376-0.233-0.662-0.558-0.855-0.971l0.44-0.399c0.14,0.34,0.362,0.611,0.665,0.814
		s0.642,0.306,1.015,0.306c0.293,0,0.56-0.07,0.8-0.21c0.24-0.141,0.447-0.342,0.62-0.605s0.307-0.587,0.4-0.97
		c0.093-0.384,0.144-0.822,0.15-1.315c-0.153,0.394-0.408,0.707-0.765,0.94c-0.357,0.233-0.762,0.35-1.215,0.35
		c-0.34,0-0.658-0.062-0.955-0.185c-0.297-0.124-0.555-0.294-0.775-0.511c-0.22-0.216-0.393-0.471-0.52-0.765
		C20.252,175.6,20.189,175.286,20.189,174.953z M22.699,173.112c-0.253,0-0.492,0.049-0.715,0.146
		c-0.223,0.097-0.42,0.229-0.59,0.395c-0.17,0.167-0.305,0.362-0.405,0.585c-0.1,0.224-0.15,0.462-0.15,0.716
		c0,0.253,0.05,0.491,0.15,0.715c0.1,0.223,0.235,0.418,0.405,0.585c0.17,0.166,0.367,0.298,0.59,0.395
		c0.224,0.097,0.462,0.146,0.715,0.146c0.253,0,0.493-0.049,0.72-0.146s0.423-0.229,0.59-0.395c0.167-0.167,0.298-0.362,0.395-0.585
		c0.096-0.224,0.145-0.462,0.145-0.715c0-0.247-0.049-0.482-0.145-0.705c-0.097-0.224-0.23-0.42-0.4-0.591
		c-0.17-0.17-0.367-0.303-0.59-0.399C23.19,173.161,22.952,173.112,22.699,173.112z"/>
	<path fill="#D2D2D2" d="M29.859,173.022h-3.83v-0.63h4.91l-3.59,7.1h-0.78L29.859,173.022z"/>
	<path fill="#D2D2D2" d="M31.689,178.223v-0.98h0.59v0.98H31.689z"/>
	<path fill="#D2D2D2" d="M38.359,176.253c0,0.313-0.067,0.595-0.2,0.845s-0.313,0.465-0.54,0.645
		c-0.227,0.181-0.492,0.319-0.795,0.415c-0.303,0.097-0.622,0.146-0.955,0.146c-0.354,0-0.68-0.055-0.98-0.165
		s-0.559-0.26-0.775-0.45c-0.217-0.189-0.385-0.411-0.505-0.665c-0.12-0.253-0.18-0.523-0.18-0.81c0-0.227,0.042-0.437,0.125-0.63
		s0.191-0.365,0.325-0.516c0.133-0.149,0.285-0.279,0.455-0.39c0.17-0.11,0.342-0.195,0.515-0.255
		c-0.16-0.066-0.31-0.148-0.45-0.245c-0.14-0.097-0.264-0.208-0.37-0.335c-0.107-0.127-0.192-0.267-0.255-0.42
		c-0.063-0.153-0.095-0.316-0.095-0.49c0-0.293,0.066-0.552,0.2-0.775c0.133-0.223,0.305-0.411,0.515-0.564s0.447-0.271,0.71-0.351
		c0.264-0.079,0.528-0.119,0.795-0.119c0.266,0,0.531,0.04,0.795,0.119c0.263,0.08,0.5,0.195,0.71,0.346
		c0.21,0.149,0.381,0.338,0.515,0.564c0.133,0.227,0.2,0.483,0.2,0.771c0,0.173-0.032,0.337-0.095,0.49
		c-0.063,0.153-0.15,0.295-0.26,0.425s-0.237,0.243-0.38,0.34c-0.144,0.097-0.295,0.179-0.455,0.245
		c0.193,0.066,0.376,0.158,0.55,0.274c0.173,0.117,0.325,0.252,0.455,0.405s0.233,0.327,0.31,0.521S38.359,176.026,38.359,176.253z
		 M37.669,176.203c0-0.24-0.054-0.452-0.16-0.636c-0.107-0.183-0.247-0.338-0.42-0.465c-0.174-0.126-0.367-0.224-0.58-0.29
		s-0.423-0.1-0.63-0.1c-0.22,0-0.434,0.035-0.64,0.104c-0.207,0.07-0.394,0.17-0.56,0.3c-0.167,0.131-0.3,0.289-0.4,0.476
		s-0.15,0.394-0.15,0.62c0,0.233,0.053,0.441,0.16,0.625c0.107,0.184,0.245,0.338,0.415,0.465s0.36,0.224,0.57,0.29
		c0.21,0.066,0.421,0.1,0.635,0.1s0.425-0.035,0.635-0.104c0.21-0.07,0.398-0.17,0.565-0.3c0.167-0.131,0.301-0.287,0.405-0.471
		C37.617,176.635,37.669,176.43,37.669,176.203z M34.359,172.963c0,0.193,0.046,0.365,0.14,0.515c0.093,0.15,0.213,0.276,0.36,0.38
		c0.146,0.104,0.312,0.182,0.495,0.235c0.184,0.054,0.362,0.08,0.535,0.08c0.18,0,0.36-0.026,0.54-0.08s0.345-0.134,0.495-0.24
		s0.271-0.236,0.365-0.39s0.14-0.327,0.14-0.521c0-0.187-0.043-0.354-0.13-0.505c-0.087-0.149-0.202-0.276-0.345-0.38
		s-0.308-0.182-0.495-0.235c-0.187-0.053-0.38-0.08-0.58-0.08c-0.194,0-0.382,0.029-0.565,0.086
		c-0.183,0.057-0.345,0.137-0.485,0.239c-0.14,0.104-0.253,0.232-0.34,0.386C34.402,172.606,34.359,172.776,34.359,172.963z"/>
</g>
<g>
	<path fill="#D2D2D2" d="M20.189,149.902c0-0.341,0.065-0.659,0.195-0.955c0.13-0.297,0.308-0.556,0.535-0.775s0.494-0.394,0.8-0.52
		c0.307-0.127,0.636-0.19,0.99-0.19c0.374,0,0.717,0.068,1.03,0.205c0.313,0.137,0.582,0.332,0.805,0.585
		c0.224,0.253,0.398,0.564,0.525,0.935c0.126,0.37,0.19,0.785,0.19,1.245c0,0.721-0.063,1.349-0.19,1.885
		c-0.127,0.537-0.305,0.983-0.535,1.341c-0.23,0.356-0.507,0.621-0.83,0.795c-0.323,0.173-0.678,0.26-1.065,0.26
		c-0.467,0-0.889-0.117-1.265-0.35c-0.376-0.233-0.662-0.558-0.855-0.971l0.44-0.399c0.14,0.34,0.362,0.611,0.665,0.814
		s0.642,0.306,1.015,0.306c0.293,0,0.56-0.07,0.8-0.21c0.24-0.141,0.447-0.342,0.62-0.605s0.307-0.587,0.4-0.97
		c0.093-0.384,0.144-0.822,0.15-1.315c-0.153,0.394-0.408,0.707-0.765,0.94c-0.357,0.233-0.762,0.35-1.215,0.35
		c-0.34,0-0.658-0.062-0.955-0.185c-0.297-0.124-0.555-0.294-0.775-0.511c-0.22-0.216-0.393-0.471-0.52-0.765
		C20.252,150.549,20.189,150.235,20.189,149.902z M22.699,148.062c-0.253,0-0.492,0.049-0.715,0.146
		c-0.223,0.097-0.42,0.229-0.59,0.395c-0.17,0.167-0.305,0.362-0.405,0.585c-0.1,0.224-0.15,0.462-0.15,0.716
		c0,0.253,0.05,0.491,0.15,0.715c0.1,0.223,0.235,0.418,0.405,0.585c0.17,0.166,0.367,0.298,0.59,0.395
		c0.224,0.097,0.462,0.146,0.715,0.146c0.253,0,0.493-0.049,0.72-0.146s0.423-0.229,0.59-0.395c0.167-0.167,0.298-0.362,0.395-0.585
		c0.096-0.224,0.145-0.462,0.145-0.715c0-0.247-0.049-0.482-0.145-0.705c-0.097-0.224-0.23-0.42-0.4-0.591
		c-0.17-0.17-0.367-0.303-0.59-0.399C23.19,148.11,22.952,148.062,22.699,148.062z"/>
	<path fill="#D2D2D2" d="M29.859,147.972h-3.83v-0.63h4.91l-3.59,7.1h-0.78L29.859,147.972z"/>
	<path fill="#D2D2D2" d="M31.689,153.172v-0.98h0.59v0.98H31.689z"/>
	<path fill="#D2D2D2" d="M33.289,149.902c0-0.341,0.065-0.659,0.195-0.955c0.13-0.297,0.308-0.556,0.535-0.775s0.494-0.394,0.8-0.52
		c0.307-0.127,0.636-0.19,0.99-0.19c0.374,0,0.717,0.068,1.03,0.205c0.313,0.137,0.582,0.332,0.805,0.585
		c0.224,0.253,0.398,0.564,0.525,0.935c0.126,0.37,0.19,0.785,0.19,1.245c0,0.721-0.063,1.349-0.19,1.885
		c-0.127,0.537-0.305,0.983-0.535,1.341c-0.23,0.356-0.507,0.621-0.83,0.795c-0.323,0.173-0.678,0.26-1.065,0.26
		c-0.467,0-0.889-0.117-1.265-0.35c-0.376-0.233-0.662-0.558-0.855-0.971l0.44-0.399c0.14,0.34,0.362,0.611,0.665,0.814
		s0.642,0.306,1.015,0.306c0.293,0,0.56-0.07,0.8-0.21c0.24-0.141,0.447-0.342,0.62-0.605s0.307-0.587,0.4-0.97
		c0.093-0.384,0.144-0.822,0.15-1.315c-0.153,0.394-0.408,0.707-0.765,0.94c-0.357,0.233-0.762,0.35-1.215,0.35
		c-0.34,0-0.658-0.062-0.955-0.185c-0.297-0.124-0.555-0.294-0.775-0.511c-0.22-0.216-0.393-0.471-0.52-0.765
		C33.352,150.549,33.289,150.235,33.289,149.902z M35.799,148.062c-0.253,0-0.492,0.049-0.715,0.146
		c-0.223,0.097-0.42,0.229-0.59,0.395c-0.17,0.167-0.305,0.362-0.405,0.585c-0.1,0.224-0.15,0.462-0.15,0.716
		c0,0.253,0.05,0.491,0.15,0.715c0.1,0.223,0.235,0.418,0.405,0.585c0.17,0.166,0.367,0.298,0.59,0.395
		c0.224,0.097,0.462,0.146,0.715,0.146c0.253,0,0.493-0.049,0.72-0.146s0.423-0.229,0.59-0.395c0.167-0.167,0.298-0.362,0.395-0.585
		c0.096-0.224,0.145-0.462,0.145-0.715c0-0.247-0.049-0.482-0.145-0.705c-0.097-0.224-0.23-0.42-0.4-0.591
		c-0.17-0.17-0.367-0.303-0.59-0.399C36.29,148.11,36.052,148.062,35.799,148.062z"/>
</g>
<g>
	<path fill="#D2D2D2" d="M20.189,124.852c0-0.341,0.065-0.659,0.195-0.955c0.13-0.297,0.308-0.556,0.535-0.775s0.494-0.394,0.8-0.52
		c0.307-0.127,0.636-0.19,0.99-0.19c0.374,0,0.717,0.068,1.03,0.205c0.313,0.137,0.582,0.332,0.805,0.585
		c0.224,0.253,0.398,0.564,0.525,0.935c0.126,0.37,0.19,0.785,0.19,1.245c0,0.721-0.063,1.349-0.19,1.885
		c-0.127,0.537-0.305,0.983-0.535,1.341c-0.23,0.356-0.507,0.621-0.83,0.795c-0.323,0.173-0.678,0.26-1.065,0.26
		c-0.467,0-0.889-0.117-1.265-0.35c-0.376-0.233-0.662-0.558-0.855-0.971l0.44-0.399c0.14,0.34,0.362,0.611,0.665,0.814
		s0.642,0.306,1.015,0.306c0.293,0,0.56-0.07,0.8-0.21c0.24-0.141,0.447-0.342,0.62-0.605s0.307-0.587,0.4-0.97
		c0.093-0.384,0.144-0.822,0.15-1.315c-0.153,0.394-0.408,0.707-0.765,0.94c-0.357,0.233-0.762,0.35-1.215,0.35
		c-0.34,0-0.658-0.062-0.955-0.185c-0.297-0.124-0.555-0.294-0.775-0.511c-0.22-0.216-0.393-0.471-0.52-0.765
		C20.252,125.498,20.189,125.185,20.189,124.852z M22.699,123.011c-0.253,0-0.492,0.049-0.715,0.146
		c-0.223,0.097-0.42,0.229-0.59,0.395c-0.17,0.167-0.305,0.362-0.405,0.585c-0.1,0.224-0.15,0.462-0.15,0.716
		c0,0.253,0.05,0.491,0.15,0.715c0.1,0.223,0.235,0.418,0.405,0.585c0.17,0.166,0.367,0.298,0.59,0.395
		c0.224,0.097,0.462,0.146,0.715,0.146c0.253,0,0.493-0.049,0.72-0.146s0.423-0.229,0.59-0.395c0.167-0.167,0.298-0.362,0.395-0.585
		c0.096-0.224,0.145-0.462,0.145-0.715c0-0.247-0.049-0.482-0.145-0.705c-0.097-0.224-0.23-0.42-0.4-0.591
		c-0.17-0.17-0.367-0.303-0.59-0.399C23.19,123.06,22.952,123.011,22.699,123.011z"/>
	<path fill="#D2D2D2" d="M31.119,126.151c0,0.313-0.067,0.595-0.2,0.845s-0.313,0.465-0.54,0.645
		c-0.227,0.181-0.492,0.319-0.795,0.415c-0.303,0.097-0.622,0.146-0.955,0.146c-0.354,0-0.68-0.055-0.98-0.165
		s-0.559-0.26-0.775-0.45c-0.217-0.189-0.385-0.411-0.505-0.665c-0.12-0.253-0.18-0.523-0.18-0.81c0-0.227,0.042-0.437,0.125-0.63
		s0.191-0.365,0.325-0.516c0.133-0.149,0.285-0.279,0.455-0.39c0.17-0.11,0.342-0.195,0.515-0.255
		c-0.16-0.066-0.31-0.148-0.45-0.245c-0.14-0.097-0.264-0.208-0.37-0.335c-0.107-0.127-0.192-0.267-0.255-0.42
		c-0.063-0.153-0.095-0.316-0.095-0.49c0-0.293,0.066-0.552,0.2-0.775c0.133-0.223,0.305-0.411,0.515-0.564s0.447-0.271,0.71-0.351
		c0.264-0.079,0.528-0.119,0.795-0.119c0.266,0,0.531,0.04,0.795,0.119c0.263,0.08,0.5,0.195,0.71,0.346
		c0.21,0.149,0.381,0.338,0.515,0.564c0.133,0.227,0.2,0.483,0.2,0.771c0,0.173-0.032,0.337-0.095,0.49
		c-0.063,0.153-0.15,0.295-0.26,0.425s-0.237,0.243-0.38,0.34c-0.144,0.097-0.295,0.179-0.455,0.245
		c0.193,0.066,0.376,0.158,0.55,0.274c0.173,0.117,0.325,0.252,0.455,0.405s0.233,0.327,0.31,0.521S31.119,125.925,31.119,126.151z
		 M30.429,126.102c0-0.24-0.054-0.452-0.16-0.636c-0.107-0.183-0.247-0.338-0.42-0.465c-0.174-0.126-0.367-0.224-0.58-0.29
		s-0.423-0.1-0.63-0.1c-0.22,0-0.434,0.035-0.64,0.104c-0.207,0.07-0.394,0.17-0.56,0.3c-0.167,0.131-0.3,0.289-0.4,0.476
		s-0.15,0.394-0.15,0.62c0,0.233,0.053,0.441,0.16,0.625c0.107,0.184,0.245,0.338,0.415,0.465s0.36,0.224,0.57,0.29
		c0.21,0.066,0.421,0.1,0.635,0.1s0.425-0.035,0.635-0.104c0.21-0.07,0.398-0.17,0.565-0.3c0.167-0.131,0.301-0.287,0.405-0.471
		C30.377,126.533,30.429,126.328,30.429,126.102z M27.119,122.861c0,0.193,0.046,0.365,0.14,0.515c0.093,0.15,0.213,0.276,0.36,0.38
		c0.146,0.104,0.312,0.182,0.495,0.235c0.184,0.054,0.362,0.08,0.535,0.08c0.18,0,0.36-0.026,0.54-0.08s0.345-0.134,0.495-0.24
		s0.271-0.236,0.365-0.39s0.14-0.327,0.14-0.521c0-0.187-0.043-0.354-0.13-0.505c-0.087-0.149-0.202-0.276-0.345-0.38
		s-0.308-0.182-0.495-0.235c-0.187-0.053-0.38-0.08-0.58-0.08c-0.194,0-0.382,0.029-0.565,0.086
		c-0.183,0.057-0.345,0.137-0.485,0.239c-0.14,0.104-0.253,0.232-0.34,0.386C27.162,122.505,27.119,122.675,27.119,122.861z"/>
	<path fill="#D2D2D2" d="M32.269,128.121v-0.98h0.59v0.98H32.269z"/>
	<path fill="#D2D2D2" d="M39.079,125.191c0,0.439-0.063,0.845-0.19,1.215s-0.302,0.689-0.525,0.96
		c-0.224,0.27-0.488,0.479-0.795,0.63s-0.64,0.225-1,0.225s-0.693-0.074-1-0.225s-0.572-0.36-0.795-0.63
		c-0.224-0.271-0.398-0.59-0.525-0.96c-0.127-0.37-0.19-0.775-0.19-1.215c0-0.44,0.063-0.846,0.19-1.215
		c0.126-0.37,0.301-0.69,0.525-0.961c0.223-0.27,0.488-0.481,0.795-0.635s0.64-0.229,1-0.229s0.693,0.076,1,0.229
		s0.571,0.365,0.795,0.635c0.223,0.271,0.398,0.591,0.525,0.961C39.015,124.346,39.079,124.751,39.079,125.191z M38.389,125.191
		c0-0.36-0.045-0.687-0.135-0.98c-0.09-0.293-0.215-0.545-0.375-0.755c-0.16-0.21-0.352-0.373-0.575-0.49
		c-0.223-0.116-0.468-0.175-0.735-0.175c-0.273,0-0.522,0.059-0.745,0.175c-0.223,0.117-0.415,0.28-0.575,0.49
		c-0.16,0.21-0.285,0.462-0.375,0.755c-0.09,0.294-0.135,0.62-0.135,0.98c0,0.359,0.045,0.687,0.135,0.979
		c0.09,0.294,0.215,0.545,0.375,0.755c0.16,0.21,0.352,0.372,0.575,0.485s0.472,0.17,0.745,0.17c0.267,0,0.512-0.057,0.735-0.17
		s0.415-0.275,0.575-0.485c0.16-0.21,0.285-0.461,0.375-0.755C38.344,125.878,38.389,125.551,38.389,125.191z"/>
</g>
<g>
	<path fill="#D2D2D2" d="M20.189,99.799c0-0.341,0.065-0.659,0.195-0.955c0.13-0.297,0.308-0.556,0.535-0.775s0.494-0.394,0.8-0.52
		c0.307-0.127,0.636-0.19,0.99-0.19c0.374,0,0.717,0.068,1.03,0.205c0.313,0.137,0.582,0.332,0.805,0.585
		c0.224,0.253,0.398,0.564,0.525,0.935c0.126,0.37,0.19,0.785,0.19,1.245c0,0.721-0.063,1.349-0.19,1.885
		c-0.127,0.537-0.305,0.983-0.535,1.341c-0.23,0.356-0.507,0.621-0.83,0.795c-0.323,0.173-0.678,0.26-1.065,0.26
		c-0.467,0-0.889-0.117-1.265-0.35c-0.376-0.233-0.662-0.558-0.855-0.971l0.44-0.399c0.14,0.34,0.362,0.611,0.665,0.814
		s0.642,0.306,1.015,0.306c0.293,0,0.56-0.07,0.8-0.21c0.24-0.141,0.447-0.342,0.62-0.605s0.307-0.587,0.4-0.97
		c0.093-0.384,0.144-0.822,0.15-1.315c-0.153,0.394-0.408,0.707-0.765,0.94c-0.357,0.233-0.762,0.35-1.215,0.35
		c-0.34,0-0.658-0.062-0.955-0.185c-0.297-0.124-0.555-0.294-0.775-0.511c-0.22-0.216-0.393-0.471-0.52-0.765
		C20.252,100.445,20.189,100.132,20.189,99.799z M22.699,97.958c-0.253,0-0.492,0.049-0.715,0.146
		c-0.223,0.097-0.42,0.229-0.59,0.395c-0.17,0.167-0.305,0.362-0.405,0.585c-0.1,0.224-0.15,0.462-0.15,0.716
		c0,0.253,0.05,0.491,0.15,0.715c0.1,0.223,0.235,0.418,0.405,0.585c0.17,0.166,0.367,0.298,0.59,0.395
		c0.224,0.097,0.462,0.146,0.715,0.146c0.253,0,0.493-0.049,0.72-0.146s0.423-0.229,0.59-0.395c0.167-0.167,0.298-0.362,0.395-0.585
		c0.096-0.224,0.145-0.462,0.145-0.715c0-0.247-0.049-0.482-0.145-0.705c-0.097-0.224-0.23-0.42-0.4-0.591
		c-0.17-0.17-0.367-0.303-0.59-0.399C23.19,98.007,22.952,97.958,22.699,97.958z"/>
	<path fill="#D2D2D2" d="M31.119,101.099c0,0.313-0.067,0.595-0.2,0.845s-0.313,0.465-0.54,0.645
		c-0.227,0.181-0.492,0.319-0.795,0.415c-0.303,0.097-0.622,0.146-0.955,0.146c-0.354,0-0.68-0.055-0.98-0.165
		s-0.559-0.26-0.775-0.45c-0.217-0.189-0.385-0.411-0.505-0.665c-0.12-0.253-0.18-0.523-0.18-0.81c0-0.227,0.042-0.437,0.125-0.63
		s0.191-0.365,0.325-0.516c0.133-0.149,0.285-0.279,0.455-0.39c0.17-0.11,0.342-0.195,0.515-0.255
		c-0.16-0.066-0.31-0.148-0.45-0.245c-0.14-0.097-0.264-0.208-0.37-0.335c-0.107-0.127-0.192-0.267-0.255-0.42
		c-0.063-0.153-0.095-0.316-0.095-0.49c0-0.293,0.066-0.552,0.2-0.775c0.133-0.223,0.305-0.411,0.515-0.564s0.447-0.271,0.71-0.351
		c0.264-0.079,0.528-0.119,0.795-0.119c0.266,0,0.531,0.04,0.795,0.119c0.263,0.08,0.5,0.195,0.71,0.346
		c0.21,0.149,0.381,0.338,0.515,0.564c0.133,0.227,0.2,0.483,0.2,0.771c0,0.173-0.032,0.337-0.095,0.49
		c-0.063,0.153-0.15,0.295-0.26,0.425s-0.237,0.243-0.38,0.34c-0.144,0.097-0.295,0.179-0.455,0.245
		c0.193,0.066,0.376,0.158,0.55,0.274c0.173,0.117,0.325,0.252,0.455,0.405s0.233,0.327,0.31,0.521S31.119,100.872,31.119,101.099z
		 M30.429,101.049c0-0.24-0.054-0.452-0.16-0.636c-0.107-0.183-0.247-0.338-0.42-0.465c-0.174-0.126-0.367-0.224-0.58-0.29
		s-0.423-0.1-0.63-0.1c-0.22,0-0.434,0.035-0.64,0.104c-0.207,0.07-0.394,0.17-0.56,0.3c-0.167,0.131-0.3,0.289-0.4,0.476
		s-0.15,0.394-0.15,0.62c0,0.233,0.053,0.441,0.16,0.625c0.107,0.184,0.245,0.338,0.415,0.465s0.36,0.224,0.57,0.29
		c0.21,0.066,0.421,0.1,0.635,0.1s0.425-0.035,0.635-0.104c0.21-0.07,0.398-0.17,0.565-0.3c0.167-0.131,0.301-0.287,0.405-0.471
		C30.377,101.48,30.429,101.275,30.429,101.049z M27.119,97.809c0,0.193,0.046,0.365,0.14,0.515c0.093,0.15,0.213,0.276,0.36,0.38
		c0.146,0.104,0.312,0.182,0.495,0.235c0.184,0.054,0.362,0.08,0.535,0.08c0.18,0,0.36-0.026,0.54-0.08s0.345-0.134,0.495-0.24
		s0.271-0.236,0.365-0.39s0.14-0.327,0.14-0.521c0-0.187-0.043-0.354-0.13-0.505c-0.087-0.149-0.202-0.276-0.345-0.38
		s-0.308-0.182-0.495-0.235c-0.187-0.053-0.38-0.08-0.58-0.08c-0.194,0-0.382,0.029-0.565,0.086
		c-0.183,0.057-0.345,0.137-0.485,0.239c-0.14,0.104-0.253,0.232-0.34,0.386C27.162,97.452,27.119,97.622,27.119,97.809z"/>
	<path fill="#D2D2D2" d="M32.269,103.068v-0.98h0.59v0.98H32.269z"/>
	<path fill="#D2D2D2" d="M37.569,102.448v0.62h-3.39v-0.62h1.42v-4.28c-0.053,0.08-0.145,0.167-0.275,0.261
		c-0.13,0.093-0.273,0.18-0.43,0.26c-0.156,0.08-0.318,0.146-0.485,0.2c-0.167,0.053-0.313,0.08-0.44,0.08v-0.66
		c0.153,0,0.322-0.044,0.505-0.13c0.184-0.087,0.357-0.187,0.52-0.301c0.164-0.113,0.302-0.22,0.415-0.319
		c0.113-0.101,0.177-0.167,0.19-0.2h0.7v5.09H37.569z"/>
</g>
<g>
	<path fill="#D2D2D2" d="M20.189,74.747c0-0.341,0.065-0.659,0.195-0.955c0.13-0.297,0.308-0.556,0.535-0.775s0.494-0.394,0.8-0.52
		c0.307-0.127,0.636-0.19,0.99-0.19c0.374,0,0.717,0.068,1.03,0.205c0.313,0.137,0.582,0.332,0.805,0.585
		c0.224,0.253,0.398,0.564,0.525,0.935c0.126,0.37,0.19,0.785,0.19,1.245c0,0.721-0.063,1.349-0.19,1.885
		c-0.127,0.537-0.305,0.983-0.535,1.341c-0.23,0.356-0.507,0.621-0.83,0.795c-0.323,0.173-0.678,0.26-1.065,0.26
		c-0.467,0-0.889-0.117-1.265-0.35c-0.376-0.233-0.662-0.558-0.855-0.971l0.44-0.399c0.14,0.34,0.362,0.611,0.665,0.814
		s0.642,0.306,1.015,0.306c0.293,0,0.56-0.07,0.8-0.21c0.24-0.141,0.447-0.342,0.62-0.605s0.307-0.587,0.4-0.97
		c0.093-0.384,0.144-0.822,0.15-1.315c-0.153,0.394-0.408,0.707-0.765,0.94c-0.357,0.233-0.762,0.35-1.215,0.35
		c-0.34,0-0.658-0.062-0.955-0.185c-0.297-0.124-0.555-0.294-0.775-0.511c-0.22-0.216-0.393-0.471-0.52-0.765
		C20.252,75.394,20.189,75.08,20.189,74.747z M22.699,72.906c-0.253,0-0.492,0.049-0.715,0.146c-0.223,0.097-0.42,0.229-0.59,0.395
		c-0.17,0.167-0.305,0.362-0.405,0.585c-0.1,0.224-0.15,0.462-0.15,0.716c0,0.253,0.05,0.491,0.15,0.715
		c0.1,0.223,0.235,0.418,0.405,0.585c0.17,0.166,0.367,0.298,0.59,0.395c0.224,0.097,0.462,0.146,0.715,0.146
		c0.253,0,0.493-0.049,0.72-0.146s0.423-0.229,0.59-0.395c0.167-0.167,0.298-0.362,0.395-0.585c0.096-0.224,0.145-0.462,0.145-0.715
		c0-0.247-0.049-0.482-0.145-0.705c-0.097-0.224-0.23-0.42-0.4-0.591c-0.17-0.17-0.367-0.303-0.59-0.399
		C23.19,72.955,22.952,72.906,22.699,72.906z"/>
	<path fill="#D2D2D2" d="M31.119,76.047c0,0.313-0.067,0.595-0.2,0.845s-0.313,0.465-0.54,0.645
		c-0.227,0.181-0.492,0.319-0.795,0.415c-0.303,0.097-0.622,0.146-0.955,0.146c-0.354,0-0.68-0.055-0.98-0.165
		s-0.559-0.26-0.775-0.45c-0.217-0.189-0.385-0.411-0.505-0.665c-0.12-0.253-0.18-0.523-0.18-0.81c0-0.227,0.042-0.437,0.125-0.63
		s0.191-0.365,0.325-0.516c0.133-0.149,0.285-0.279,0.455-0.39c0.17-0.11,0.342-0.195,0.515-0.255
		c-0.16-0.066-0.31-0.148-0.45-0.245c-0.14-0.097-0.264-0.208-0.37-0.335c-0.107-0.127-0.192-0.267-0.255-0.42
		c-0.063-0.153-0.095-0.316-0.095-0.49c0-0.293,0.066-0.552,0.2-0.775c0.133-0.223,0.305-0.411,0.515-0.564s0.447-0.271,0.71-0.351
		c0.264-0.079,0.528-0.119,0.795-0.119c0.266,0,0.531,0.04,0.795,0.119c0.263,0.08,0.5,0.195,0.71,0.346
		c0.21,0.149,0.381,0.338,0.515,0.564c0.133,0.227,0.2,0.483,0.2,0.771c0,0.173-0.032,0.337-0.095,0.49
		c-0.063,0.153-0.15,0.295-0.26,0.425s-0.237,0.243-0.38,0.34c-0.144,0.097-0.295,0.179-0.455,0.245
		c0.193,0.066,0.376,0.158,0.55,0.274c0.173,0.117,0.325,0.252,0.455,0.405s0.233,0.327,0.31,0.521S31.119,75.82,31.119,76.047z
		 M30.429,75.997c0-0.24-0.054-0.452-0.16-0.636c-0.107-0.183-0.247-0.338-0.42-0.465c-0.174-0.126-0.367-0.224-0.58-0.29
		s-0.423-0.1-0.63-0.1c-0.22,0-0.434,0.035-0.64,0.104c-0.207,0.07-0.394,0.17-0.56,0.3c-0.167,0.131-0.3,0.289-0.4,0.476
		s-0.15,0.394-0.15,0.62c0,0.233,0.053,0.441,0.16,0.625c0.107,0.184,0.245,0.338,0.415,0.465s0.36,0.224,0.57,0.29
		c0.21,0.066,0.421,0.1,0.635,0.1s0.425-0.035,0.635-0.104c0.21-0.07,0.398-0.17,0.565-0.3c0.167-0.131,0.301-0.287,0.405-0.471
		C30.377,76.429,30.429,76.224,30.429,75.997z M27.119,72.757c0,0.193,0.046,0.365,0.14,0.515c0.093,0.15,0.213,0.276,0.36,0.38
		c0.146,0.104,0.312,0.182,0.495,0.235c0.184,0.054,0.362,0.08,0.535,0.08c0.18,0,0.36-0.026,0.54-0.08s0.345-0.134,0.495-0.24
		s0.271-0.236,0.365-0.39s0.14-0.327,0.14-0.521c0-0.187-0.043-0.354-0.13-0.505c-0.087-0.149-0.202-0.276-0.345-0.38
		s-0.308-0.182-0.495-0.235c-0.187-0.053-0.38-0.08-0.58-0.08c-0.194,0-0.382,0.029-0.565,0.086
		c-0.183,0.057-0.345,0.137-0.485,0.239c-0.14,0.104-0.253,0.232-0.34,0.386C27.162,72.4,27.119,72.57,27.119,72.757z"/>
	<path fill="#D2D2D2" d="M32.269,78.017v-0.98h0.59v0.98H32.269z"/>
	<path fill="#D2D2D2" d="M33.949,78.017c0-0.227,0.02-0.455,0.06-0.685c0.04-0.23,0.118-0.459,0.235-0.686s0.283-0.445,0.5-0.655
		s0.505-0.408,0.865-0.595c0.193-0.1,0.395-0.198,0.605-0.295s0.403-0.205,0.58-0.325c0.176-0.12,0.321-0.255,0.435-0.404
		c0.113-0.15,0.17-0.325,0.17-0.525c0-0.127-0.029-0.252-0.085-0.375c-0.057-0.123-0.14-0.233-0.25-0.33
		c-0.11-0.097-0.247-0.175-0.41-0.235c-0.164-0.06-0.355-0.09-0.575-0.09c-0.22,0-0.417,0.032-0.59,0.095
		c-0.173,0.063-0.325,0.139-0.455,0.226s-0.242,0.179-0.335,0.274c-0.093,0.098-0.164,0.176-0.21,0.235l-0.45-0.49
		c0.04-0.04,0.117-0.113,0.23-0.22s0.262-0.213,0.445-0.32c0.183-0.106,0.398-0.201,0.645-0.284c0.247-0.084,0.523-0.125,0.83-0.125
		c0.306,0,0.58,0.041,0.82,0.125c0.24,0.083,0.443,0.198,0.61,0.345s0.293,0.314,0.38,0.505c0.086,0.19,0.13,0.389,0.13,0.595
		c0,0.273-0.06,0.51-0.18,0.71s-0.269,0.374-0.445,0.521c-0.177,0.146-0.365,0.271-0.565,0.375c-0.2,0.104-0.38,0.191-0.54,0.265
		c-0.213,0.094-0.422,0.198-0.625,0.315c-0.204,0.116-0.385,0.245-0.545,0.385c-0.16,0.14-0.292,0.297-0.395,0.47
		c-0.104,0.174-0.155,0.367-0.155,0.58h3.56v0.62H33.949z"/>
</g>
<g>
	<path fill="#D2D2D2" d="M20.189,49.696c0-0.341,0.065-0.659,0.195-0.955c0.13-0.297,0.308-0.556,0.535-0.775s0.494-0.394,0.8-0.52
		c0.307-0.127,0.636-0.19,0.99-0.19c0.374,0,0.717,0.068,1.03,0.205c0.313,0.137,0.582,0.332,0.805,0.585
		c0.224,0.253,0.398,0.564,0.525,0.935c0.126,0.37,0.19,0.785,0.19,1.245c0,0.721-0.063,1.349-0.19,1.885
		c-0.127,0.537-0.305,0.983-0.535,1.341c-0.23,0.356-0.507,0.621-0.83,0.795c-0.323,0.173-0.678,0.26-1.065,0.26
		c-0.467,0-0.889-0.117-1.265-0.35c-0.376-0.233-0.662-0.558-0.855-0.971l0.44-0.399c0.14,0.34,0.362,0.611,0.665,0.814
		s0.642,0.306,1.015,0.306c0.293,0,0.56-0.07,0.8-0.21c0.24-0.141,0.447-0.342,0.62-0.605s0.307-0.587,0.4-0.97
		c0.093-0.384,0.144-0.822,0.15-1.315c-0.153,0.394-0.408,0.707-0.765,0.94c-0.357,0.233-0.762,0.35-1.215,0.35
		c-0.34,0-0.658-0.062-0.955-0.185c-0.297-0.124-0.555-0.294-0.775-0.511c-0.22-0.216-0.393-0.471-0.52-0.765
		C20.252,50.343,20.189,50.029,20.189,49.696z M22.699,47.855c-0.253,0-0.492,0.049-0.715,0.146c-0.223,0.097-0.42,0.229-0.59,0.395
		c-0.17,0.167-0.305,0.362-0.405,0.585c-0.1,0.224-0.15,0.462-0.15,0.716c0,0.253,0.05,0.491,0.15,0.715
		c0.1,0.223,0.235,0.418,0.405,0.585c0.17,0.166,0.367,0.298,0.59,0.395c0.224,0.097,0.462,0.146,0.715,0.146
		c0.253,0,0.493-0.049,0.72-0.146s0.423-0.229,0.59-0.395c0.167-0.167,0.298-0.362,0.395-0.585c0.096-0.224,0.145-0.462,0.145-0.715
		c0-0.247-0.049-0.482-0.145-0.705c-0.097-0.224-0.23-0.42-0.4-0.591c-0.17-0.17-0.367-0.303-0.59-0.399
		C23.19,47.904,22.952,47.855,22.699,47.855z"/>
	<path fill="#D2D2D2" d="M31.119,50.996c0,0.313-0.067,0.595-0.2,0.845s-0.313,0.465-0.54,0.645
		c-0.227,0.181-0.492,0.319-0.795,0.415c-0.303,0.097-0.622,0.146-0.955,0.146c-0.354,0-0.68-0.055-0.98-0.165
		s-0.559-0.26-0.775-0.45c-0.217-0.189-0.385-0.411-0.505-0.665c-0.12-0.253-0.18-0.523-0.18-0.81c0-0.227,0.042-0.437,0.125-0.63
		s0.191-0.365,0.325-0.516c0.133-0.149,0.285-0.279,0.455-0.39c0.17-0.11,0.342-0.195,0.515-0.255
		c-0.16-0.066-0.31-0.148-0.45-0.245c-0.14-0.097-0.264-0.208-0.37-0.335c-0.107-0.127-0.192-0.267-0.255-0.42
		c-0.063-0.153-0.095-0.316-0.095-0.49c0-0.293,0.066-0.552,0.2-0.775c0.133-0.223,0.305-0.411,0.515-0.564s0.447-0.271,0.71-0.351
		c0.264-0.079,0.528-0.119,0.795-0.119c0.266,0,0.531,0.04,0.795,0.119c0.263,0.08,0.5,0.195,0.71,0.346
		c0.21,0.149,0.381,0.338,0.515,0.564c0.133,0.227,0.2,0.483,0.2,0.771c0,0.173-0.032,0.337-0.095,0.49
		c-0.063,0.153-0.15,0.295-0.26,0.425s-0.237,0.243-0.38,0.34C30,49.018,29.849,49.1,29.689,49.166
		c0.193,0.066,0.376,0.158,0.55,0.274c0.173,0.117,0.325,0.252,0.455,0.405s0.233,0.327,0.31,0.521S31.119,50.77,31.119,50.996z
		 M30.429,50.946c0-0.24-0.054-0.452-0.16-0.636c-0.107-0.183-0.247-0.338-0.42-0.465c-0.174-0.126-0.367-0.224-0.58-0.29
		s-0.423-0.1-0.63-0.1c-0.22,0-0.434,0.035-0.64,0.104c-0.207,0.07-0.394,0.17-0.56,0.3c-0.167,0.131-0.3,0.289-0.4,0.476
		s-0.15,0.394-0.15,0.62c0,0.233,0.053,0.441,0.16,0.625c0.107,0.184,0.245,0.338,0.415,0.465s0.36,0.224,0.57,0.29
		c0.21,0.066,0.421,0.1,0.635,0.1s0.425-0.035,0.635-0.104c0.21-0.07,0.398-0.17,0.565-0.3c0.167-0.131,0.301-0.287,0.405-0.471
		C30.377,51.378,30.429,51.173,30.429,50.946z M27.119,47.706c0,0.193,0.046,0.365,0.14,0.515c0.093,0.15,0.213,0.276,0.36,0.38
		c0.146,0.104,0.312,0.182,0.495,0.235c0.184,0.054,0.362,0.08,0.535,0.08c0.18,0,0.36-0.026,0.54-0.08s0.345-0.134,0.495-0.24
		s0.271-0.236,0.365-0.39s0.14-0.327,0.14-0.521c0-0.187-0.043-0.354-0.13-0.505c-0.087-0.149-0.202-0.276-0.345-0.38
		s-0.308-0.182-0.495-0.235c-0.187-0.053-0.38-0.08-0.58-0.08c-0.194,0-0.382,0.029-0.565,0.086
		c-0.183,0.057-0.345,0.137-0.485,0.239c-0.14,0.104-0.253,0.232-0.34,0.386C27.162,47.35,27.119,47.52,27.119,47.706z"/>
	<path fill="#D2D2D2" d="M32.269,52.966v-0.98h0.59v0.98H32.269z"/>
	<path fill="#D2D2D2" d="M36.939,50.605c0.44,0.074,0.792,0.273,1.055,0.601c0.263,0.326,0.395,0.729,0.395,1.21
		c0,0.3-0.055,0.575-0.165,0.825c-0.11,0.25-0.267,0.463-0.47,0.64c-0.204,0.177-0.447,0.313-0.73,0.41
		c-0.284,0.097-0.599,0.145-0.945,0.145c-0.506,0-0.95-0.102-1.33-0.305c-0.38-0.203-0.667-0.485-0.86-0.845l0.47-0.431
		c0.14,0.294,0.353,0.527,0.64,0.7c0.286,0.174,0.646,0.26,1.08,0.26c0.5,0,0.894-0.121,1.18-0.364
		c0.287-0.244,0.43-0.592,0.43-1.045c0-0.46-0.15-0.823-0.45-1.091c-0.3-0.267-0.733-0.399-1.3-0.399h-0.25v-0.58h0.27
		c0.513,0,0.906-0.118,1.18-0.355c0.273-0.236,0.41-0.545,0.41-0.925c0-0.2-0.037-0.376-0.11-0.53
		c-0.074-0.153-0.175-0.281-0.305-0.385s-0.283-0.182-0.46-0.234c-0.177-0.054-0.369-0.08-0.575-0.08
		c-0.38,0-0.715,0.085-1.005,0.255s-0.508,0.404-0.655,0.705l-0.44-0.42c0.08-0.174,0.193-0.332,0.34-0.476
		c0.146-0.144,0.313-0.265,0.5-0.365c0.187-0.1,0.393-0.178,0.62-0.234c0.227-0.057,0.46-0.085,0.7-0.085
		c0.307,0,0.588,0.043,0.845,0.13c0.256,0.087,0.478,0.208,0.665,0.365c0.187,0.156,0.332,0.345,0.435,0.564
		c0.103,0.22,0.155,0.464,0.155,0.73c0,0.2-0.03,0.392-0.09,0.575c-0.06,0.183-0.147,0.347-0.26,0.489
		c-0.113,0.144-0.251,0.264-0.415,0.36C37.331,50.518,37.146,50.579,36.939,50.605z"/>
</g>
<g>
	<path fill="#D2D2D2" d="M20.189,24.645c0-0.341,0.065-0.659,0.195-0.955c0.13-0.297,0.308-0.556,0.535-0.775s0.494-0.394,0.8-0.52
		c0.307-0.127,0.636-0.19,0.99-0.19c0.374,0,0.717,0.068,1.03,0.205c0.313,0.137,0.582,0.332,0.805,0.585
		c0.224,0.253,0.398,0.564,0.525,0.935c0.126,0.37,0.19,0.785,0.19,1.245c0,0.721-0.063,1.349-0.19,1.885
		c-0.127,0.537-0.305,0.983-0.535,1.341c-0.23,0.356-0.507,0.621-0.83,0.795c-0.323,0.173-0.678,0.26-1.065,0.26
		c-0.467,0-0.889-0.117-1.265-0.35c-0.376-0.233-0.662-0.558-0.855-0.971l0.44-0.399c0.14,0.34,0.362,0.611,0.665,0.814
		s0.642,0.306,1.015,0.306c0.293,0,0.56-0.07,0.8-0.21c0.24-0.141,0.447-0.342,0.62-0.605s0.307-0.587,0.4-0.97
		c0.093-0.384,0.144-0.822,0.15-1.315c-0.153,0.394-0.408,0.707-0.765,0.94c-0.357,0.233-0.762,0.35-1.215,0.35
		c-0.34,0-0.658-0.062-0.955-0.185c-0.297-0.124-0.555-0.294-0.775-0.511c-0.22-0.216-0.393-0.471-0.52-0.765
		C20.252,25.291,20.189,24.978,20.189,24.645z M22.699,22.804c-0.253,0-0.492,0.049-0.715,0.146c-0.223,0.097-0.42,0.229-0.59,0.395
		c-0.17,0.167-0.305,0.362-0.405,0.585c-0.1,0.224-0.15,0.462-0.15,0.716c0,0.253,0.05,0.491,0.15,0.715
		c0.1,0.223,0.235,0.418,0.405,0.585c0.17,0.166,0.367,0.298,0.59,0.395c0.224,0.097,0.462,0.146,0.715,0.146
		c0.253,0,0.493-0.049,0.72-0.146s0.423-0.229,0.59-0.395c0.167-0.167,0.298-0.362,0.395-0.585c0.096-0.224,0.145-0.462,0.145-0.715
		c0-0.247-0.049-0.482-0.145-0.705c-0.097-0.224-0.23-0.42-0.4-0.591c-0.17-0.17-0.367-0.303-0.59-0.399
		C23.19,22.853,22.952,22.804,22.699,22.804z"/>
	<path fill="#D2D2D2" d="M31.119,25.944c0,0.313-0.067,0.595-0.2,0.845s-0.313,0.465-0.54,0.645
		c-0.227,0.181-0.492,0.319-0.795,0.415c-0.303,0.097-0.622,0.146-0.955,0.146c-0.354,0-0.68-0.055-0.98-0.165
		s-0.559-0.26-0.775-0.45c-0.217-0.189-0.385-0.411-0.505-0.665c-0.12-0.253-0.18-0.523-0.18-0.81c0-0.227,0.042-0.437,0.125-0.63
		s0.191-0.365,0.325-0.516c0.133-0.149,0.285-0.279,0.455-0.39c0.17-0.11,0.342-0.195,0.515-0.255
		c-0.16-0.066-0.31-0.148-0.45-0.245c-0.14-0.097-0.264-0.208-0.37-0.335c-0.107-0.127-0.192-0.267-0.255-0.42
		c-0.063-0.153-0.095-0.316-0.095-0.49c0-0.293,0.066-0.552,0.2-0.775c0.133-0.223,0.305-0.411,0.515-0.564s0.447-0.271,0.71-0.351
		c0.264-0.079,0.528-0.119,0.795-0.119c0.266,0,0.531,0.04,0.795,0.119c0.263,0.08,0.5,0.195,0.71,0.346
		c0.21,0.149,0.381,0.338,0.515,0.564c0.133,0.227,0.2,0.483,0.2,0.771c0,0.173-0.032,0.337-0.095,0.49
		c-0.063,0.153-0.15,0.295-0.26,0.425s-0.237,0.243-0.38,0.34c-0.144,0.097-0.295,0.179-0.455,0.245
		c0.193,0.066,0.376,0.158,0.55,0.274c0.173,0.117,0.325,0.252,0.455,0.405s0.233,0.327,0.31,0.521S31.119,25.718,31.119,25.944z
		 M30.429,25.895c0-0.24-0.054-0.452-0.16-0.636c-0.107-0.183-0.247-0.338-0.42-0.465c-0.174-0.126-0.367-0.224-0.58-0.29
		s-0.423-0.1-0.63-0.1c-0.22,0-0.434,0.035-0.64,0.104c-0.207,0.07-0.394,0.17-0.56,0.3c-0.167,0.131-0.3,0.289-0.4,0.476
		s-0.15,0.394-0.15,0.62c0,0.233,0.053,0.441,0.16,0.625c0.107,0.184,0.245,0.338,0.415,0.465s0.36,0.224,0.57,0.29
		c0.21,0.066,0.421,0.1,0.635,0.1s0.425-0.035,0.635-0.104c0.21-0.07,0.398-0.17,0.565-0.3c0.167-0.131,0.301-0.287,0.405-0.471
		C30.377,26.326,30.429,26.121,30.429,25.895z M27.119,22.654c0,0.193,0.046,0.365,0.14,0.515c0.093,0.15,0.213,0.276,0.36,0.38
		c0.146,0.104,0.312,0.182,0.495,0.235c0.184,0.054,0.362,0.08,0.535,0.08c0.18,0,0.36-0.026,0.54-0.08s0.345-0.134,0.495-0.24
		s0.271-0.236,0.365-0.39s0.14-0.327,0.14-0.521c0-0.187-0.043-0.354-0.13-0.505c-0.087-0.149-0.202-0.276-0.345-0.38
		s-0.308-0.182-0.495-0.235c-0.187-0.053-0.38-0.08-0.58-0.08c-0.194,0-0.382,0.029-0.565,0.086
		c-0.183,0.057-0.345,0.137-0.485,0.239c-0.14,0.104-0.253,0.232-0.34,0.386C27.162,22.298,27.119,22.468,27.119,22.654z"/>
	<path fill="#D2D2D2" d="M32.269,27.914v-0.98h0.59v0.98H32.269z"/>
	<path fill="#D2D2D2" d="M37.069,29.184v-1.779h-3.33v-0.601l3.55-4.6h0.46v4.58h0.88v0.62h-0.88v1.779H37.069z M34.459,26.784h2.68
		v-3.51L34.459,26.784z"/>
</g>
<g>
	<path fill="#D2D2D2" d="M121.539,225.266v9.23h-0.896v-4.316h-5.473v4.316h-0.91v-9.23h0.91v4.108h5.473v-4.108H121.539z"/>
	<path fill="#D2D2D2" d="M126.558,234.626c-0.494,0-0.945-0.093-1.353-0.279s-0.761-0.439-1.06-0.761
		c-0.299-0.32-0.53-0.693-0.695-1.118c-0.165-0.424-0.247-0.871-0.247-1.339c0-0.477,0.085-0.927,0.254-1.352
		s0.402-0.798,0.702-1.118c0.299-0.32,0.651-0.576,1.06-0.767c0.407-0.191,0.854-0.286,1.339-0.286s0.934,0.095,1.345,0.286
		c0.412,0.19,0.768,0.446,1.066,0.767s0.533,0.693,0.702,1.118s0.253,0.875,0.253,1.352c0,0.468-0.082,0.915-0.246,1.339
		c-0.165,0.425-0.396,0.798-0.696,1.118c-0.299,0.321-0.654,0.574-1.065,0.761C127.504,234.533,127.052,234.626,126.558,234.626z
		 M124.101,231.143c0,0.381,0.064,0.734,0.194,1.059c0.13,0.325,0.306,0.611,0.527,0.858c0.221,0.247,0.48,0.44,0.779,0.578
		c0.299,0.139,0.618,0.208,0.956,0.208s0.656-0.071,0.955-0.214c0.299-0.144,0.562-0.338,0.786-0.585
		c0.226-0.247,0.403-0.535,0.533-0.865c0.13-0.329,0.195-0.684,0.195-1.065c0-0.373-0.065-0.726-0.195-1.06
		s-0.308-0.624-0.533-0.871c-0.225-0.247-0.487-0.442-0.786-0.585s-0.617-0.215-0.955-0.215s-0.655,0.072-0.949,0.215
		c-0.295,0.143-0.555,0.34-0.78,0.592c-0.226,0.251-0.403,0.544-0.533,0.877C124.165,230.403,124.101,230.761,124.101,231.143z"/>
	<path fill="#D2D2D2" d="M133.525,234.626c-0.736,0-1.285-0.245-1.645-0.734s-0.539-1.22-0.539-2.19v-3.979h0.884v3.822
		c0,1.534,0.524,2.301,1.573,2.301c0.26,0,0.516-0.043,0.767-0.13c0.252-0.086,0.483-0.212,0.695-0.377
		c0.213-0.164,0.403-0.359,0.572-0.585c0.169-0.225,0.306-0.48,0.409-0.767v-4.265h0.885v5.63c0,0.242,0.104,0.363,0.312,0.363v0.78
		c-0.104,0.018-0.188,0.026-0.253,0.026c-0.065,0-0.111,0-0.137,0c-0.208-0.009-0.377-0.083-0.507-0.222s-0.195-0.324-0.195-0.559
		v-0.78c-0.295,0.529-0.695,0.938-1.202,1.229C134.637,234.481,134.098,234.626,133.525,234.626z"/>
	<path fill="#D2D2D2" d="M142.509,228.503c-0.599,0.018-1.118,0.183-1.561,0.494c-0.442,0.312-0.754,0.741-0.936,1.287v4.212h-0.885
		v-6.773h0.832v1.625c0.252-0.52,0.59-0.927,1.015-1.222c0.424-0.294,0.879-0.441,1.364-0.441c0.069,0,0.126,0.004,0.17,0.013
		V228.503z"/>
	<path fill="#D2D2D2" d="M145.939,234.626c-0.528,0-1.044-0.087-1.547-0.26c-0.503-0.174-0.936-0.425-1.3-0.754l0.403-0.599
		c0.381,0.312,0.769,0.547,1.163,0.702c0.395,0.156,0.817,0.234,1.268,0.234c0.546,0,0.981-0.11,1.307-0.332
		c0.325-0.221,0.487-0.534,0.487-0.942c0-0.19-0.043-0.349-0.13-0.475c-0.087-0.125-0.215-0.235-0.384-0.331
		s-0.381-0.18-0.637-0.254c-0.256-0.073-0.553-0.149-0.891-0.228c-0.39-0.095-0.728-0.19-1.014-0.285
		c-0.286-0.096-0.522-0.204-0.709-0.325s-0.325-0.271-0.416-0.448s-0.136-0.401-0.136-0.67c0-0.338,0.066-0.637,0.201-0.897
		c0.134-0.26,0.316-0.474,0.546-0.644c0.229-0.169,0.498-0.296,0.806-0.383s0.635-0.13,0.981-0.13c0.521,0,0.992,0.084,1.417,0.253
		s0.768,0.393,1.027,0.67l-0.429,0.52c-0.252-0.26-0.558-0.455-0.917-0.585s-0.734-0.194-1.124-0.194
		c-0.234,0-0.451,0.023-0.65,0.071s-0.375,0.123-0.526,0.228c-0.151,0.104-0.271,0.236-0.357,0.396s-0.13,0.349-0.13,0.565
		c0,0.182,0.03,0.329,0.091,0.441c0.061,0.113,0.16,0.211,0.299,0.293s0.314,0.156,0.526,0.221c0.213,0.065,0.471,0.133,0.773,0.202
		c0.434,0.104,0.814,0.208,1.145,0.312c0.329,0.104,0.604,0.226,0.825,0.364s0.388,0.308,0.501,0.507
		c0.112,0.199,0.169,0.442,0.169,0.728c0,0.624-0.238,1.118-0.715,1.482C147.387,234.444,146.746,234.626,145.939,234.626z"/>
	<path fill="#D2D2D2" d="M155.04,234.626c-0.32,0-0.617-0.054-0.891-0.162c-0.272-0.108-0.511-0.258-0.715-0.449
		c-0.203-0.19-0.361-0.413-0.475-0.669c-0.112-0.256-0.169-0.531-0.169-0.825c0-0.295,0.069-0.568,0.208-0.819
		s0.334-0.468,0.585-0.65c0.252-0.182,0.551-0.322,0.897-0.422s0.728-0.149,1.144-0.149c0.347,0,0.698,0.03,1.054,0.091
		c0.354,0.061,0.671,0.147,0.948,0.26v-0.611c0-0.598-0.169-1.072-0.507-1.423c-0.338-0.352-0.806-0.526-1.404-0.526
		c-0.347,0-0.701,0.069-1.065,0.208s-0.732,0.338-1.105,0.598l-0.312-0.585c0.875-0.59,1.725-0.884,2.548-0.884
		c0.85,0,1.517,0.238,2.002,0.715s0.729,1.136,0.729,1.976v3.056c0,0.242,0.107,0.363,0.324,0.363v0.78
		c-0.147,0.026-0.26,0.039-0.338,0.039c-0.226,0-0.4-0.057-0.526-0.169s-0.192-0.269-0.201-0.468l-0.026-0.533
		c-0.312,0.407-0.704,0.72-1.177,0.936C156.096,234.518,155.586,234.626,155.04,234.626z M155.248,233.95
		c0.46,0,0.882-0.087,1.268-0.26c0.386-0.174,0.678-0.403,0.878-0.689c0.078-0.078,0.137-0.162,0.175-0.253
		c0.039-0.092,0.059-0.176,0.059-0.254v-1.105c-0.294-0.112-0.6-0.199-0.916-0.26s-0.64-0.091-0.969-0.091
		c-0.624,0-1.131,0.13-1.521,0.39c-0.391,0.261-0.585,0.603-0.585,1.027c0,0.208,0.041,0.403,0.123,0.585s0.195,0.34,0.338,0.475
		c0.144,0.135,0.314,0.24,0.514,0.318S155.022,233.95,155.248,233.95z"/>
	<path fill="#D2D2D2" d="M160.747,234.496v-6.071h-0.936v-0.702h0.936v-0.182c0-0.832,0.178-1.484,0.533-1.956
		c0.355-0.473,0.841-0.709,1.456-0.709c0.269,0,0.528,0.039,0.78,0.117c0.251,0.078,0.468,0.182,0.649,0.312l-0.272,0.638
		c-0.122-0.096-0.271-0.169-0.449-0.222c-0.178-0.052-0.357-0.077-0.539-0.077c-0.416,0-0.732,0.16-0.949,0.48
		c-0.217,0.321-0.325,0.784-0.325,1.391v0.208h1.872v0.702h-1.872v6.071H160.747z"/>
	<path fill="#D2D2D2" d="M167.961,234.171c-0.052,0.026-0.128,0.061-0.228,0.104c-0.1,0.043-0.214,0.087-0.344,0.13
		s-0.277,0.082-0.442,0.117c-0.165,0.034-0.338,0.052-0.52,0.052c-0.191,0-0.373-0.026-0.547-0.078
		c-0.173-0.052-0.324-0.132-0.454-0.24c-0.131-0.108-0.234-0.245-0.312-0.41c-0.078-0.164-0.117-0.354-0.117-0.571v-4.85h-0.936
		v-0.702h0.936v-2.287h0.884v2.287h1.561v0.702h-1.561v4.603c0.018,0.251,0.106,0.436,0.267,0.553
		c0.16,0.116,0.345,0.175,0.553,0.175c0.251,0,0.473-0.041,0.663-0.123s0.312-0.141,0.364-0.176L167.961,234.171z"/>
	<path fill="#D2D2D2" d="M171.992,234.626c-0.494,0-0.947-0.093-1.359-0.279c-0.411-0.187-0.769-0.442-1.072-0.767
		c-0.303-0.325-0.539-0.7-0.708-1.125s-0.254-0.88-0.254-1.365c0-0.477,0.085-0.925,0.254-1.346c0.169-0.42,0.402-0.788,0.702-1.104
		c0.299-0.316,0.656-0.567,1.072-0.754s0.866-0.279,1.352-0.279c0.494,0,0.947,0.093,1.358,0.279
		c0.412,0.187,0.766,0.439,1.06,0.761c0.295,0.32,0.524,0.688,0.689,1.104c0.164,0.416,0.247,0.858,0.247,1.326
		c0,0.069,0,0.139,0,0.208s-0.005,0.117-0.014,0.143h-5.798c0.026,0.364,0.11,0.7,0.254,1.008c0.143,0.308,0.327,0.574,0.553,0.8
		c0.225,0.226,0.482,0.4,0.773,0.526c0.29,0.126,0.6,0.188,0.93,0.188c0.216,0,0.433-0.03,0.649-0.091s0.416-0.144,0.598-0.247
		c0.183-0.104,0.347-0.232,0.494-0.384s0.261-0.318,0.338-0.5l0.768,0.208c-0.104,0.251-0.252,0.479-0.442,0.682
		c-0.19,0.204-0.411,0.382-0.663,0.533c-0.251,0.152-0.528,0.269-0.832,0.352C172.638,234.585,172.321,234.626,171.992,234.626z
		 M174.488,230.752c-0.026-0.364-0.111-0.695-0.254-0.994c-0.144-0.299-0.325-0.557-0.546-0.773s-0.477-0.386-0.768-0.507
		c-0.29-0.122-0.6-0.183-0.929-0.183c-0.33,0-0.642,0.061-0.937,0.183c-0.295,0.121-0.553,0.29-0.773,0.507
		s-0.398,0.477-0.533,0.779c-0.134,0.304-0.214,0.633-0.24,0.988H174.488z"/>
	<path fill="#D2D2D2" d="M180.078,228.503c-0.599,0.018-1.118,0.183-1.561,0.494c-0.442,0.312-0.754,0.741-0.936,1.287v4.212h-0.885
		v-6.773h0.832v1.625c0.252-0.52,0.59-0.927,1.015-1.222c0.424-0.294,0.879-0.441,1.364-0.441c0.069,0,0.126,0.004,0.17,0.013
		V228.503z"/>
	<path fill="#D2D2D2" d="M190.867,231.454c0,0.442-0.084,0.856-0.253,1.241c-0.169,0.386-0.401,0.722-0.695,1.008
		c-0.295,0.286-0.642,0.512-1.04,0.676c-0.399,0.165-0.828,0.247-1.287,0.247c-0.485,0-0.932-0.089-1.339-0.267
		c-0.408-0.178-0.757-0.431-1.047-0.761c-0.29-0.329-0.518-0.734-0.683-1.215c-0.165-0.481-0.247-1.021-0.247-1.619
		c0-0.936,0.082-1.752,0.247-2.45c0.165-0.697,0.396-1.278,0.695-1.742c0.3-0.463,0.657-0.808,1.073-1.033s0.879-0.338,1.391-0.338
		c0.615,0,1.165,0.151,1.651,0.455c0.485,0.304,0.854,0.724,1.104,1.261l-0.572,0.521c-0.182-0.442-0.468-0.796-0.857-1.06
		c-0.391-0.265-0.832-0.396-1.326-0.396c-0.382,0-0.729,0.091-1.04,0.272c-0.312,0.183-0.578,0.444-0.8,0.787
		c-0.221,0.342-0.395,0.765-0.52,1.267c-0.126,0.503-0.188,1.071-0.188,1.703c0.19-0.511,0.518-0.918,0.981-1.222
		s0.99-0.455,1.579-0.455c0.442,0,0.856,0.08,1.242,0.24c0.385,0.161,0.721,0.382,1.007,0.663c0.286,0.282,0.512,0.613,0.676,0.995
		C190.785,230.613,190.867,231.021,190.867,231.454z M187.617,233.846c0.33,0,0.64-0.062,0.93-0.188
		c0.29-0.125,0.546-0.297,0.768-0.513c0.221-0.217,0.394-0.471,0.52-0.761s0.188-0.601,0.188-0.93s-0.064-0.639-0.195-0.93
		c-0.13-0.29-0.305-0.544-0.526-0.761c-0.221-0.216-0.477-0.388-0.767-0.513c-0.291-0.126-0.601-0.188-0.93-0.188
		s-0.639,0.062-0.93,0.188c-0.29,0.125-0.546,0.297-0.767,0.513c-0.221,0.217-0.395,0.471-0.521,0.761
		c-0.125,0.291-0.188,0.601-0.188,0.93s0.065,0.637,0.195,0.923s0.306,0.54,0.526,0.761s0.477,0.395,0.768,0.52
		C186.979,233.783,187.288,233.846,187.617,233.846z"/>
	<path fill="#D2D2D2" d="M197.432,234.626c-0.32,0-0.617-0.054-0.891-0.162c-0.272-0.108-0.511-0.258-0.715-0.449
		c-0.203-0.19-0.361-0.413-0.475-0.669c-0.112-0.256-0.169-0.531-0.169-0.825c0-0.295,0.069-0.568,0.208-0.819
		s0.334-0.468,0.585-0.65c0.252-0.182,0.551-0.322,0.897-0.422s0.728-0.149,1.144-0.149c0.347,0,0.698,0.03,1.054,0.091
		c0.354,0.061,0.671,0.147,0.948,0.26v-0.611c0-0.598-0.169-1.072-0.507-1.423c-0.338-0.352-0.806-0.526-1.404-0.526
		c-0.347,0-0.701,0.069-1.065,0.208s-0.732,0.338-1.105,0.598l-0.312-0.585c0.875-0.59,1.725-0.884,2.548-0.884
		c0.85,0,1.517,0.238,2.002,0.715s0.729,1.136,0.729,1.976v3.056c0,0.242,0.107,0.363,0.324,0.363v0.78
		c-0.147,0.026-0.26,0.039-0.338,0.039c-0.226,0-0.4-0.057-0.526-0.169s-0.192-0.269-0.201-0.468l-0.026-0.533
		c-0.312,0.407-0.704,0.72-1.177,0.936C198.487,234.518,197.978,234.626,197.432,234.626z M197.64,233.95
		c0.46,0,0.882-0.087,1.268-0.26c0.386-0.174,0.678-0.403,0.878-0.689c0.078-0.078,0.137-0.162,0.175-0.253
		c0.039-0.092,0.059-0.176,0.059-0.254v-1.105c-0.294-0.112-0.6-0.199-0.916-0.26s-0.64-0.091-0.969-0.091
		c-0.624,0-1.131,0.13-1.521,0.39c-0.391,0.261-0.585,0.603-0.585,1.027c0,0.208,0.041,0.403,0.123,0.585s0.195,0.34,0.338,0.475
		c0.144,0.135,0.314,0.24,0.514,0.318S197.414,233.95,197.64,233.95z"/>
	<path fill="#D2D2D2" d="M212.889,234.496h-0.884v-3.783c0-0.788-0.126-1.369-0.377-1.742c-0.252-0.372-0.624-0.559-1.118-0.559
		c-0.26,0-0.505,0.048-0.734,0.143c-0.229,0.096-0.442,0.23-0.637,0.403c-0.195,0.174-0.366,0.379-0.514,0.617
		c-0.147,0.239-0.26,0.501-0.338,0.787v4.134h-0.884v-3.783c0-0.806-0.122-1.391-0.364-1.755c-0.243-0.364-0.615-0.546-1.118-0.546
		c-0.512,0-0.967,0.178-1.365,0.533s-0.685,0.823-0.857,1.403v4.147h-0.885v-6.773h0.807v1.534c0.277-0.52,0.641-0.925,1.092-1.215
		c0.45-0.291,0.949-0.436,1.495-0.436c0.572,0,1.029,0.16,1.371,0.48c0.343,0.321,0.553,0.741,0.631,1.261
		c0.633-1.161,1.503-1.741,2.613-1.741c0.381,0,0.704,0.069,0.968,0.208c0.265,0.139,0.477,0.336,0.638,0.591
		c0.16,0.256,0.277,0.563,0.351,0.923c0.073,0.36,0.11,0.761,0.11,1.203V234.496z"/>
</g>
<g>
	<path fill="#D2D2D2" d="M12.215,162.779c0.347,0,0.665,0.07,0.955,0.209c0.291,0.139,0.542,0.324,0.754,0.559
		c0.213,0.234,0.377,0.507,0.494,0.818c0.117,0.312,0.176,0.646,0.176,1.002v4.354h-9.23v-4.446c0-0.32,0.07-0.61,0.208-0.871
		c0.14-0.26,0.319-0.48,0.54-0.662s0.473-0.323,0.754-0.423c0.282-0.1,0.565-0.149,0.852-0.149c0.468,0,0.895,0.117,1.28,0.352
		c0.386,0.233,0.674,0.559,0.864,0.975c0.156-0.529,0.447-0.947,0.871-1.255C11.157,162.934,11.651,162.779,12.215,162.779z
		 M6.157,168.812h3.405v-3.172c0-0.227-0.047-0.436-0.143-0.631s-0.221-0.362-0.377-0.501c-0.156-0.138-0.336-0.247-0.54-0.325
		c-0.203-0.078-0.418-0.117-0.644-0.117c-0.233,0-0.455,0.037-0.663,0.111c-0.208,0.073-0.388,0.178-0.539,0.312
		c-0.151,0.135-0.273,0.292-0.364,0.475s-0.136,0.382-0.136,0.599V168.812z M12.059,163.689c-0.226,0-0.444,0.039-0.656,0.117
		s-0.398,0.189-0.56,0.332c-0.16,0.143-0.29,0.312-0.39,0.507c-0.1,0.194-0.149,0.405-0.149,0.63v3.537h3.497v-3.445
		c0-0.234-0.048-0.453-0.143-0.656c-0.096-0.204-0.224-0.382-0.384-0.533c-0.16-0.152-0.347-0.271-0.56-0.357
		C12.503,163.733,12.284,163.689,12.059,163.689z"/>
	<path fill="#D2D2D2" d="M14.724,158.36c0,0.493-0.093,0.944-0.279,1.353c-0.187,0.406-0.439,0.76-0.761,1.059
		c-0.32,0.299-0.693,0.531-1.118,0.695c-0.424,0.165-0.871,0.248-1.339,0.248c-0.477,0-0.927-0.085-1.352-0.254
		c-0.425-0.17-0.798-0.403-1.118-0.702c-0.32-0.3-0.576-0.652-0.767-1.06c-0.191-0.407-0.286-0.854-0.286-1.339
		s0.095-0.935,0.286-1.346c0.19-0.411,0.446-0.767,0.767-1.065s0.693-0.533,1.118-0.703c0.425-0.168,0.875-0.253,1.352-0.253
		c0.468,0,0.915,0.083,1.339,0.247c0.425,0.164,0.798,0.396,1.118,0.695c0.321,0.299,0.574,0.654,0.761,1.066
		S14.724,157.866,14.724,158.36z M11.24,160.817c0.381,0,0.734-0.065,1.059-0.195c0.325-0.13,0.611-0.306,0.858-0.526
		s0.44-0.48,0.578-0.779c0.139-0.3,0.208-0.618,0.208-0.956c0-0.339-0.071-0.657-0.214-0.956c-0.144-0.299-0.338-0.561-0.585-0.786
		s-0.535-0.403-0.865-0.533c-0.329-0.13-0.684-0.194-1.065-0.194c-0.373,0-0.726,0.064-1.06,0.194s-0.624,0.308-0.871,0.533
		s-0.442,0.487-0.585,0.786s-0.215,0.617-0.215,0.956c0,0.338,0.072,0.654,0.215,0.948c0.143,0.295,0.34,0.555,0.592,0.781
		c0.251,0.225,0.544,0.402,0.877,0.532C10.501,160.752,10.858,160.817,11.24,160.817z"/>
	<path fill="#D2D2D2" d="M14.724,150.729c0,0.468-0.098,0.901-0.292,1.3c-0.195,0.398-0.453,0.741-0.773,1.027
		c-0.321,0.285-0.691,0.509-1.112,0.669c-0.42,0.161-0.859,0.241-1.319,0.241c-0.477,0-0.93-0.078-1.358-0.234
		s-0.804-0.371-1.124-0.644c-0.321-0.272-0.574-0.599-0.761-0.976s-0.279-0.79-0.279-1.24c0-0.572,0.149-1.08,0.448-1.521
		c0.299-0.442,0.661-0.789,1.085-1.04H5.104v-0.884h8.347c0.242,0,0.363-0.104,0.363-0.312h0.78c0.026,0.13,0.039,0.234,0.039,0.312
		c0,0.207-0.067,0.39-0.201,0.545c-0.135,0.156-0.297,0.234-0.488,0.234H13.28c0.442,0.27,0.794,0.633,1.054,1.092
		C14.594,149.759,14.724,150.235,14.724,150.729z M13.943,150.534c0-0.216-0.043-0.448-0.13-0.695
		c-0.086-0.247-0.205-0.479-0.357-0.695c-0.151-0.217-0.329-0.401-0.533-0.553c-0.203-0.151-0.422-0.245-0.656-0.279h-2.093
		c-0.234,0.087-0.453,0.212-0.656,0.377c-0.204,0.165-0.384,0.353-0.54,0.565s-0.277,0.439-0.364,0.683
		c-0.086,0.243-0.13,0.481-0.13,0.715c0,0.364,0.078,0.693,0.234,0.987c0.156,0.295,0.362,0.549,0.617,0.762
		c0.256,0.212,0.549,0.375,0.878,0.486c0.329,0.113,0.667,0.17,1.014,0.17c0.364,0,0.711-0.065,1.04-0.195
		c0.33-0.13,0.617-0.308,0.864-0.533c0.247-0.225,0.444-0.492,0.592-0.799C13.87,151.221,13.943,150.89,13.943,150.534z"/>
	<path fill="#D2D2D2" d="M16.674,145.035c0.009-0.068,0.015-0.137,0.02-0.201c0.004-0.064,0.007-0.128,0.007-0.188
		c0-0.156-0.022-0.28-0.065-0.37c-0.044-0.092-0.139-0.18-0.286-0.268c-0.147-0.086-0.359-0.184-0.637-0.292
		s-0.65-0.262-1.118-0.462l-6.773,2.951v-0.91l5.954-2.508l-5.954-2.328v-0.845l8.736,3.511c0.251,0.095,0.47,0.253,0.656,0.475
		c0.187,0.221,0.28,0.521,0.28,0.902c0,0.088-0.003,0.17-0.007,0.248c-0.005,0.077-0.016,0.173-0.032,0.285H16.674z"/>
	<path fill="#D2D2D2" d="M6.17,128.33v3.289h8.424v0.91H6.17v3.289H5.363v-7.488H6.17z"/>
	<path fill="#D2D2D2" d="M14.724,124.21c0,0.494-0.093,0.946-0.279,1.358s-0.442,0.77-0.767,1.072
		c-0.325,0.304-0.7,0.539-1.125,0.709c-0.425,0.169-0.88,0.254-1.365,0.254c-0.477,0-0.925-0.085-1.346-0.254
		c-0.42-0.17-0.788-0.403-1.104-0.702c-0.316-0.3-0.567-0.657-0.754-1.073s-0.279-0.865-0.279-1.352
		c0-0.494,0.093-0.947,0.279-1.358s0.439-0.765,0.761-1.06c0.32-0.295,0.688-0.523,1.104-0.689c0.416-0.164,0.858-0.246,1.326-0.246
		c0.069,0,0.139,0,0.208,0s0.117,0.004,0.143,0.013v5.798c0.364-0.025,0.7-0.11,1.008-0.254c0.308-0.143,0.574-0.326,0.8-0.552
		s0.4-0.483,0.526-0.773s0.188-0.601,0.188-0.93c0-0.217-0.03-0.433-0.091-0.649s-0.144-0.416-0.247-0.599
		c-0.104-0.183-0.232-0.347-0.384-0.494s-0.318-0.26-0.5-0.338l0.208-0.767c0.251,0.104,0.479,0.251,0.682,0.441
		c0.204,0.191,0.382,0.412,0.533,0.663c0.152,0.251,0.269,0.528,0.352,0.832C14.683,123.564,14.724,123.881,14.724,124.21z
		 M10.85,121.714c-0.364,0.026-0.695,0.11-0.994,0.253c-0.299,0.144-0.557,0.326-0.773,0.547s-0.386,0.477-0.507,0.767
		c-0.122,0.29-0.183,0.601-0.183,0.93s0.061,0.642,0.183,0.937c0.121,0.294,0.29,0.552,0.507,0.773
		c0.217,0.221,0.477,0.398,0.779,0.532c0.304,0.135,0.633,0.215,0.988,0.241V121.714z"/>
	<path fill="#D2D2D2" d="M14.594,109.429v0.884h-3.783c-0.788,0-1.369,0.126-1.742,0.377c-0.372,0.251-0.559,0.624-0.559,1.119
		c0,0.26,0.048,0.504,0.143,0.734c0.096,0.229,0.23,0.441,0.403,0.637c0.174,0.195,0.379,0.366,0.617,0.514
		c0.239,0.146,0.501,0.26,0.787,0.338h4.134v0.884h-3.783c-0.806,0-1.391,0.122-1.755,0.364s-0.546,0.615-0.546,1.117
		c0,0.512,0.178,0.967,0.533,1.365s0.823,0.686,1.403,0.858h4.147v0.884H7.82v-0.806h1.534c-0.52-0.277-0.925-0.642-1.215-1.093
		c-0.291-0.45-0.436-0.948-0.436-1.494c0-0.572,0.16-1.029,0.48-1.371c0.321-0.343,0.741-0.553,1.261-0.631
		c-1.161-0.633-1.741-1.504-1.741-2.613c0-0.381,0.069-0.704,0.208-0.969c0.139-0.264,0.336-0.477,0.591-0.637
		c0.256-0.16,0.563-0.277,0.923-0.351c0.36-0.074,0.761-0.11,1.203-0.11H14.594z"/>
	<path fill="#D2D2D2" d="M14.724,104.099c0,0.572-0.145,1.077-0.436,1.515c-0.29,0.438-0.656,0.791-1.099,1.06h4.173v0.884H7.82
		v-0.793h1.313c-0.425-0.277-0.77-0.637-1.033-1.079c-0.265-0.442-0.396-0.923-0.396-1.443c0-0.468,0.097-0.897,0.292-1.287
		c0.195-0.39,0.455-0.728,0.78-1.014c0.325-0.286,0.7-0.509,1.124-0.67c0.425-0.16,0.863-0.24,1.313-0.24
		c0.477,0,0.928,0.074,1.352,0.221c0.425,0.147,0.798,0.357,1.118,0.63c0.321,0.273,0.574,0.598,0.761,0.975
		S14.724,103.649,14.724,104.099z M13.943,104.346c0-0.364-0.077-0.695-0.233-0.995c-0.156-0.299-0.362-0.554-0.618-0.767
		c-0.255-0.212-0.546-0.375-0.87-0.488c-0.325-0.112-0.661-0.169-1.008-0.169c-0.364,0-0.711,0.065-1.04,0.195
		c-0.329,0.13-0.619,0.308-0.871,0.533c-0.251,0.226-0.45,0.492-0.598,0.799c-0.147,0.308-0.222,0.639-0.222,0.995
		c0,0.226,0.046,0.461,0.137,0.708s0.213,0.477,0.364,0.689s0.329,0.395,0.533,0.546c0.203,0.152,0.418,0.245,0.644,0.28h2.08
		c0.242-0.104,0.468-0.236,0.676-0.396s0.388-0.342,0.539-0.546c0.152-0.204,0.271-0.423,0.357-0.657
		C13.9,104.84,13.943,104.598,13.943,104.346z"/>
	<path fill="#D2D2D2" d="M14.724,96.611c0,0.494-0.093,0.947-0.279,1.358s-0.442,0.769-0.767,1.072
		c-0.325,0.304-0.7,0.54-1.125,0.708c-0.425,0.169-0.88,0.254-1.365,0.254c-0.477,0-0.925-0.084-1.346-0.254
		c-0.42-0.169-0.788-0.403-1.104-0.702c-0.316-0.299-0.567-0.657-0.754-1.073s-0.279-0.866-0.279-1.352
		c0-0.494,0.093-0.947,0.279-1.358s0.439-0.765,0.761-1.06c0.32-0.294,0.688-0.524,1.104-0.689c0.416-0.165,0.858-0.247,1.326-0.247
		c0.069,0,0.139,0,0.208,0s0.117,0.005,0.143,0.013v5.798c0.364-0.026,0.7-0.11,1.008-0.253s0.574-0.327,0.8-0.552
		c0.226-0.226,0.4-0.483,0.526-0.773c0.126-0.291,0.188-0.6,0.188-0.93c0-0.217-0.03-0.433-0.091-0.65s-0.144-0.416-0.247-0.598
		c-0.104-0.182-0.232-0.347-0.384-0.494c-0.151-0.147-0.318-0.26-0.5-0.338l0.208-0.767c0.251,0.104,0.479,0.251,0.682,0.442
		c0.204,0.191,0.382,0.412,0.533,0.663c0.152,0.251,0.269,0.529,0.352,0.832C14.683,95.966,14.724,96.282,14.724,96.611z
		 M10.85,94.115c-0.364,0.026-0.695,0.11-0.994,0.253s-0.557,0.325-0.773,0.546c-0.217,0.221-0.386,0.477-0.507,0.767
		c-0.122,0.291-0.183,0.6-0.183,0.93s0.061,0.642,0.183,0.936c0.121,0.294,0.29,0.552,0.507,0.773
		c0.217,0.221,0.477,0.398,0.779,0.533c0.304,0.135,0.633,0.215,0.988,0.241V94.115z"/>
	<path fill="#D2D2D2" d="M8.601,88.525c0.018,0.598,0.183,1.118,0.494,1.56c0.312,0.442,0.741,0.754,1.287,0.936h4.212v0.884H7.82
		v-0.832h1.625c-0.52-0.251-0.927-0.589-1.222-1.014c-0.294-0.425-0.441-0.88-0.441-1.365c0-0.069,0.004-0.125,0.013-0.169H8.601z"
		/>
	<path fill="#D2D2D2" d="M14.724,85.639c0,0.321-0.054,0.618-0.162,0.891s-0.258,0.512-0.449,0.715
		c-0.19,0.204-0.413,0.362-0.669,0.474c-0.256,0.113-0.531,0.169-0.825,0.169c-0.295,0-0.568-0.069-0.819-0.208
		c-0.251-0.138-0.468-0.333-0.65-0.585c-0.182-0.251-0.322-0.55-0.422-0.897c-0.1-0.346-0.149-0.728-0.149-1.144
		c0-0.346,0.03-0.697,0.091-1.053s0.147-0.671,0.26-0.949h-0.611c-0.598,0-1.072,0.169-1.423,0.507
		c-0.352,0.338-0.526,0.806-0.526,1.404c0,0.347,0.069,0.702,0.208,1.066c0.139,0.364,0.338,0.732,0.598,1.105l-0.585,0.312
		c-0.59-0.875-0.884-1.725-0.884-2.548c0-0.849,0.238-1.517,0.715-2.002s1.136-0.728,1.976-0.728h3.056
		c0.242,0,0.363-0.108,0.363-0.325h0.78c0.026,0.147,0.039,0.26,0.039,0.338c0,0.226-0.057,0.401-0.169,0.527
		s-0.269,0.193-0.468,0.201l-0.533,0.026c0.407,0.312,0.72,0.704,0.936,1.176C14.615,84.584,14.724,85.093,14.724,85.639z
		 M14.048,85.431c0-0.459-0.087-0.881-0.26-1.267c-0.174-0.386-0.403-0.678-0.689-0.877c-0.078-0.078-0.162-0.137-0.253-0.176
		c-0.092-0.039-0.176-0.059-0.254-0.059h-1.105c-0.112,0.295-0.199,0.601-0.26,0.917c-0.061,0.316-0.091,0.639-0.091,0.969
		c0,0.624,0.13,1.131,0.39,1.521c0.261,0.39,0.603,0.585,1.027,0.585c0.208,0,0.403-0.041,0.585-0.124s0.34-0.195,0.475-0.338
		s0.24-0.314,0.318-0.514C14.009,85.869,14.048,85.657,14.048,85.431z"/>
	<path fill="#D2D2D2" d="M14.269,77.007c0.026,0.052,0.061,0.128,0.104,0.228c0.043,0.1,0.087,0.214,0.13,0.345
		c0.043,0.13,0.082,0.277,0.117,0.442c0.034,0.165,0.052,0.338,0.052,0.52c0,0.19-0.026,0.373-0.078,0.546s-0.132,0.325-0.24,0.455
		s-0.245,0.234-0.41,0.312c-0.164,0.078-0.354,0.117-0.571,0.117h-4.85v0.936H7.82v-0.936H5.533v-0.884H7.82v-1.56h0.702v1.56h4.603
		c0.251-0.017,0.436-0.106,0.553-0.267c0.116-0.16,0.175-0.344,0.175-0.552c0-0.251-0.041-0.472-0.123-0.663
		c-0.082-0.19-0.141-0.312-0.176-0.364L14.269,77.007z"/>
	<path fill="#D2D2D2" d="M14.724,73.783c0,0.737-0.245,1.285-0.734,1.645c-0.489,0.36-1.22,0.54-2.19,0.54H7.82v-0.884h3.822
		c1.534,0,2.301-0.524,2.301-1.574c0-0.26-0.043-0.516-0.13-0.766c-0.086-0.252-0.212-0.484-0.377-0.695
		c-0.164-0.213-0.359-0.404-0.585-0.572c-0.225-0.17-0.48-0.307-0.767-0.41H7.82v-0.885h5.63c0.242,0,0.363-0.104,0.363-0.311h0.78
		c0.018,0.104,0.026,0.188,0.026,0.252c0,0.066,0,0.111,0,0.137c-0.009,0.209-0.083,0.377-0.222,0.508
		c-0.139,0.129-0.324,0.195-0.559,0.195h-0.78c0.529,0.295,0.938,0.695,1.229,1.201C14.579,72.672,14.724,73.211,14.724,73.783z"/>
	<path fill="#D2D2D2" d="M8.601,64.8c0.018,0.599,0.183,1.118,0.494,1.561c0.312,0.442,0.741,0.754,1.287,0.936h4.212v0.885H7.82
		v-0.832h1.625c-0.52-0.252-0.927-0.59-1.222-1.015C7.93,65.91,7.782,65.455,7.782,64.97c0-0.069,0.004-0.126,0.013-0.17H8.601z"/>
	<path fill="#D2D2D2" d="M14.724,60.692c0,0.494-0.093,0.947-0.279,1.359c-0.187,0.411-0.442,0.769-0.767,1.072
		c-0.325,0.303-0.7,0.539-1.125,0.708s-0.88,0.254-1.365,0.254c-0.477,0-0.925-0.085-1.346-0.254
		c-0.42-0.169-0.788-0.402-1.104-0.702c-0.316-0.299-0.567-0.656-0.754-1.072s-0.279-0.866-0.279-1.352
		c0-0.494,0.093-0.947,0.279-1.358c0.187-0.412,0.439-0.766,0.761-1.06c0.32-0.295,0.688-0.524,1.104-0.689
		c0.416-0.164,0.858-0.247,1.326-0.247c0.069,0,0.139,0,0.208,0s0.117,0.005,0.143,0.014v5.798c0.364-0.026,0.7-0.11,1.008-0.254
		c0.308-0.143,0.574-0.327,0.8-0.553c0.226-0.225,0.4-0.482,0.526-0.773c0.126-0.29,0.188-0.6,0.188-0.93
		c0-0.216-0.03-0.433-0.091-0.649s-0.144-0.416-0.247-0.598c-0.104-0.183-0.232-0.347-0.384-0.494s-0.318-0.261-0.5-0.338
		l0.208-0.768c0.251,0.104,0.479,0.252,0.682,0.442c0.204,0.19,0.382,0.411,0.533,0.663c0.152,0.251,0.269,0.528,0.352,0.832
		C14.683,60.047,14.724,60.363,14.724,60.692z M10.85,58.196c-0.364,0.026-0.695,0.111-0.994,0.254
		c-0.299,0.144-0.557,0.325-0.773,0.546s-0.386,0.477-0.507,0.768c-0.122,0.29-0.183,0.6-0.183,0.929
		c0,0.33,0.061,0.642,0.183,0.937c0.121,0.295,0.29,0.553,0.507,0.773s0.477,0.398,0.779,0.533c0.304,0.134,0.633,0.214,0.988,0.24
		V58.196z"/>
</g>
<line fill="none" stroke="#D2D2D2" stroke-width="1.5" stroke-linecap="round" x1="46.294" y1="12.5" x2="46.294" y2="203.275"/>
<line fill="none" stroke="#D2D2D2" stroke-width="1.5" stroke-linecap="round" x1="304.5" y1="203.275" x2="45.449" y2="203.275"/>
<circle fill="#5BC0DE" cx="56.673" cy="189.004" r="5.069"/>
<circle fill="#5BC0DE" cx="68.123" cy="176.835" r="5.069"/>
<circle fill="#5BC0DE" cx="77.59" cy="152.172" r="5.069"/>
<circle fill="#5BC0DE" cx="87.756" cy="127.175" r="5.069"/>
<circle fill="#5BC0DE" cx="97.755" cy="77.18" r="5.069"/>
<circle fill="#5BC0DE" cx="108.389" cy="38.719" r="5.069"/>
<circle fill="#5BC0DE" cx="118.388" cy="27.553" r="5.069"/>
<circle fill="#5BC0DE" cx="129.011" cy="25.386" r="5.069"/>
<circle fill="#5BC0DE" cx="138.751" cy="53.384" r="5.069"/>
<circle fill="#5BC0DE" cx="148.749" cy="28.386" r="5.069"/>
<circle fill="#5BC0DE" cx="160.915" cy="26.886" r="5.069"/>
<circle fill="#5BC0DE" cx="180.568" cy="39.219" r="5.069"/>
<circle fill="#5BC0DE" cx="190.579" cy="39.219" r="5.069"/>
<circle fill="#5BC0DE" cx="200.911" cy="39.219" r="5.069"/>
<circle fill="#5BC0DE" cx="210.577" cy="51.884" r="5.069"/>
<circle fill="#5BC0DE" cx="222.911" cy="51.884" r="5.069"/>
<circle fill="#5BC0DE" cx="231.706" cy="76.952" r="5.069"/>
<circle fill="#5BC0DE" cx="242.407" cy="101.712" r="5.069"/>
<circle fill="#5BC0DE" cx="252.241" cy="114.044" r="5.069"/>
<circle fill="#5BC0DE" cx="263.059" cy="127.175" r="5.069"/>
<circle fill="#5BC0DE" cx="272.831" cy="139.348" r="5.069"/>
<circle fill="#5BC0DE" cx="283.545" cy="164.087" r="5.069"/>
<circle fill="#5BC0DE" cx="293.993" cy="176.377" r="5.069"/>
<g>
</g>
<g>
</g>
<g>
</g>
<g>
</g>
<g>
</g>
<g>
</g>
</svg>
