<?xml version="1.0" encoding="utf-8" standalone="no"?>
<!DOCTYPE svg PUBLIC "-//W3C//DTD SVG 1.1//EN"
  "http://www.w3.org/Graphics/SVG/1.1/DTD/svg11.dtd">
<!-- Created with matplotlib (http://matplotlib.org/) -->
<svg height="288pt" version="1.1" viewBox="0 0 432 288" width="432pt" xmlns="http://www.w3.org/2000/svg" xmlns:xlink="http://www.w3.org/1999/xlink">
 <defs>
  <style type="text/css">
*{stroke-linecap:butt;stroke-linejoin:round;}
  </style>
 </defs>
 <g id="figure_1">
  <g id="patch_1">
   <path d="M 0 288 
L 432 288 
L 432 0 
L 0 0 
z
" style="fill:none;"/>
  </g>
  <g id="axes_1">
   <g id="patch_2">
    <path d="M 64.8 244.8 
L 410.4 244.8 
L 410.4 14.4 
L 64.8 14.4 
z
" style="fill:none;"/>
   </g>
   <g id="matplotlib.axis_1">
    <g id="xtick_1">
     <g id="line2d_1">
      <defs>
       <path d="M 0 0 
L 0 4 
" id="mfd90012795" style="stroke:#d2d2d2;"/>
      </defs>
      <g>
       <use style="fill:#d2d2d2;stroke:#d2d2d2;" x="80.509091" xlink:href="#mfd90012795" y="244.8"/>
      </g>
     </g>
     <g id="text_1">
      <!-- 20 -->
      <defs>
       <path d="M 19.1875 8.296875 
L 53.609375 8.296875 
L 53.609375 0 
L 7.328125 0 
L 7.328125 8.296875 
Q 12.9375 14.109375 22.625 23.890625 
Q 32.328125 33.6875 34.8125 36.53125 
Q 39.546875 41.84375 41.421875 45.53125 
Q 43.3125 49.21875 43.3125 52.78125 
Q 43.3125 58.59375 39.234375 62.25 
Q 35.15625 65.921875 28.609375 65.921875 
Q 23.96875 65.921875 18.8125 64.3125 
Q 13.671875 62.703125 7.8125 59.421875 
L 7.8125 69.390625 
Q 13.765625 71.78125 18.9375 73 
Q 24.125 74.21875 28.421875 74.21875 
Q 39.75 74.21875 46.484375 68.546875 
Q 53.21875 62.890625 53.21875 53.421875 
Q 53.21875 48.921875 51.53125 44.890625 
Q 49.859375 40.875 45.40625 35.40625 
Q 44.1875 33.984375 37.640625 27.21875 
Q 31.109375 20.453125 19.1875 8.296875 
" id="DejaVuSans-32"/>
       <path d="M 31.78125 66.40625 
Q 24.171875 66.40625 20.328125 58.90625 
Q 16.5 51.421875 16.5 36.375 
Q 16.5 21.390625 20.328125 13.890625 
Q 24.171875 6.390625 31.78125 6.390625 
Q 39.453125 6.390625 43.28125 13.890625 
Q 47.125 21.390625 47.125 36.375 
Q 47.125 51.421875 43.28125 58.90625 
Q 39.453125 66.40625 31.78125 66.40625 
M 31.78125 74.21875 
Q 44.046875 74.21875 50.515625 64.515625 
Q 56.984375 54.828125 56.984375 36.375 
Q 56.984375 17.96875 50.515625 8.265625 
Q 44.046875 -1.421875 31.78125 -1.421875 
Q 19.53125 -1.421875 13.0625 8.265625 
Q 6.59375 17.96875 6.59375 36.375 
Q 6.59375 54.828125 13.0625 64.515625 
Q 19.53125 74.21875 31.78125 74.21875 
" id="DejaVuSans-30"/>
      </defs>
      <g style="fill:#d2d2d2;" transform="translate(72.237841 262.677969)scale(0.13 -0.13)">
       <use xlink:href="#DejaVuSans-32"/>
       <use x="63.623047" xlink:href="#DejaVuSans-30"/>
      </g>
     </g>
    </g>
    <g id="xtick_2">
     <g id="line2d_2">
      <g>
       <use style="fill:#d2d2d2;stroke:#d2d2d2;" x="135.628708" xlink:href="#mfd90012795" y="244.8"/>
      </g>
     </g>
     <g id="text_2">
      <!-- 30 -->
      <defs>
       <path d="M 40.578125 39.3125 
Q 47.65625 37.796875 51.625 33 
Q 55.609375 28.21875 55.609375 21.1875 
Q 55.609375 10.40625 48.1875 4.484375 
Q 40.765625 -1.421875 27.09375 -1.421875 
Q 22.515625 -1.421875 17.65625 -0.515625 
Q 12.796875 0.390625 7.625 2.203125 
L 7.625 11.71875 
Q 11.71875 9.328125 16.59375 8.109375 
Q 21.484375 6.890625 26.8125 6.890625 
Q 36.078125 6.890625 40.9375 10.546875 
Q 45.796875 14.203125 45.796875 21.1875 
Q 45.796875 27.640625 41.28125 31.265625 
Q 36.765625 34.90625 28.71875 34.90625 
L 20.21875 34.90625 
L 20.21875 43.015625 
L 29.109375 43.015625 
Q 36.375 43.015625 40.234375 45.921875 
Q 44.09375 48.828125 44.09375 54.296875 
Q 44.09375 59.90625 40.109375 62.90625 
Q 36.140625 65.921875 28.71875 65.921875 
Q 24.65625 65.921875 20.015625 65.03125 
Q 15.375 64.15625 9.8125 62.3125 
L 9.8125 71.09375 
Q 15.4375 72.65625 20.34375 73.4375 
Q 25.25 74.21875 29.59375 74.21875 
Q 40.828125 74.21875 47.359375 69.109375 
Q 53.90625 64.015625 53.90625 55.328125 
Q 53.90625 49.265625 50.4375 45.09375 
Q 46.96875 40.921875 40.578125 39.3125 
" id="DejaVuSans-33"/>
      </defs>
      <g style="fill:#d2d2d2;" transform="translate(127.357458 262.677969)scale(0.13 -0.13)">
       <use xlink:href="#DejaVuSans-33"/>
       <use x="63.623047" xlink:href="#DejaVuSans-30"/>
      </g>
     </g>
    </g>
    <g id="xtick_3">
     <g id="line2d_3">
      <g>
       <use style="fill:#d2d2d2;stroke:#d2d2d2;" x="190.748325" xlink:href="#mfd90012795" y="244.8"/>
      </g>
     </g>
     <g id="text_3">
      <!-- 40 -->
      <defs>
       <path d="M 37.796875 64.3125 
L 12.890625 25.390625 
L 37.796875 25.390625 
z
M 35.203125 72.90625 
L 47.609375 72.90625 
L 47.609375 25.390625 
L 58.015625 25.390625 
L 58.015625 17.1875 
L 47.609375 17.1875 
L 47.609375 0 
L 37.796875 0 
L 37.796875 17.1875 
L 4.890625 17.1875 
L 4.890625 26.703125 
z
" id="DejaVuSans-34"/>
      </defs>
      <g style="fill:#d2d2d2;" transform="translate(182.477075 262.677969)scale(0.13 -0.13)">
       <use xlink:href="#DejaVuSans-34"/>
       <use x="63.623047" xlink:href="#DejaVuSans-30"/>
      </g>
     </g>
    </g>
    <g id="xtick_4">
     <g id="line2d_4">
      <g>
       <use style="fill:#d2d2d2;stroke:#d2d2d2;" x="245.867943" xlink:href="#mfd90012795" y="244.8"/>
      </g>
     </g>
     <g id="text_4">
      <!-- 50 -->
      <defs>
       <path d="M 10.796875 72.90625 
L 49.515625 72.90625 
L 49.515625 64.59375 
L 19.828125 64.59375 
L 19.828125 46.734375 
Q 21.96875 47.46875 24.109375 47.828125 
Q 26.265625 48.1875 28.421875 48.1875 
Q 40.625 48.1875 47.75 41.5 
Q 54.890625 34.8125 54.890625 23.390625 
Q 54.890625 11.625 47.5625 5.09375 
Q 40.234375 -1.421875 26.90625 -1.421875 
Q 22.3125 -1.421875 17.546875 -0.640625 
Q 12.796875 0.140625 7.71875 1.703125 
L 7.71875 11.625 
Q 12.109375 9.234375 16.796875 8.0625 
Q 21.484375 6.890625 26.703125 6.890625 
Q 35.15625 6.890625 40.078125 11.328125 
Q 45.015625 15.765625 45.015625 23.390625 
Q 45.015625 31 40.078125 35.4375 
Q 35.15625 39.890625 26.703125 39.890625 
Q 22.75 39.890625 18.8125 39.015625 
Q 14.890625 38.140625 10.796875 36.28125 
z
" id="DejaVuSans-35"/>
      </defs>
      <g style="fill:#d2d2d2;" transform="translate(237.596693 262.677969)scale(0.13 -0.13)">
       <use xlink:href="#DejaVuSans-35"/>
       <use x="63.623047" xlink:href="#DejaVuSans-30"/>
      </g>
     </g>
    </g>
    <g id="xtick_5">
     <g id="line2d_5">
      <g>
       <use style="fill:#d2d2d2;stroke:#d2d2d2;" x="300.98756" xlink:href="#mfd90012795" y="244.8"/>
      </g>
     </g>
     <g id="text_5">
      <!-- 60 -->
      <defs>
       <path d="M 33.015625 40.375 
Q 26.375 40.375 22.484375 35.828125 
Q 18.609375 31.296875 18.609375 23.390625 
Q 18.609375 15.53125 22.484375 10.953125 
Q 26.375 6.390625 33.015625 6.390625 
Q 39.65625 6.390625 43.53125 10.953125 
Q 47.40625 15.53125 47.40625 23.390625 
Q 47.40625 31.296875 43.53125 35.828125 
Q 39.65625 40.375 33.015625 40.375 
M 52.59375 71.296875 
L 52.59375 62.3125 
Q 48.875 64.0625 45.09375 64.984375 
Q 41.3125 65.921875 37.59375 65.921875 
Q 27.828125 65.921875 22.671875 59.328125 
Q 17.53125 52.734375 16.796875 39.40625 
Q 19.671875 43.65625 24.015625 45.921875 
Q 28.375 48.1875 33.59375 48.1875 
Q 44.578125 48.1875 50.953125 41.515625 
Q 57.328125 34.859375 57.328125 23.390625 
Q 57.328125 12.15625 50.6875 5.359375 
Q 44.046875 -1.421875 33.015625 -1.421875 
Q 20.359375 -1.421875 13.671875 8.265625 
Q 6.984375 17.96875 6.984375 36.375 
Q 6.984375 53.65625 15.1875 63.9375 
Q 23.390625 74.21875 37.203125 74.21875 
Q 40.921875 74.21875 44.703125 73.484375 
Q 48.484375 72.75 52.59375 71.296875 
" id="DejaVuSans-36"/>
      </defs>
      <g style="fill:#d2d2d2;" transform="translate(292.71631 262.677969)scale(0.13 -0.13)">
       <use xlink:href="#DejaVuSans-36"/>
       <use x="63.623047" xlink:href="#DejaVuSans-30"/>
      </g>
     </g>
    </g>
    <g id="xtick_6">
     <g id="line2d_6">
      <g>
       <use style="fill:#d2d2d2;stroke:#d2d2d2;" x="356.107177" xlink:href="#mfd90012795" y="244.8"/>
      </g>
     </g>
     <g id="text_6">
      <!-- 70 -->
      <defs>
       <path d="M 8.203125 72.90625 
L 55.078125 72.90625 
L 55.078125 68.703125 
L 28.609375 0 
L 18.3125 0 
L 43.21875 64.59375 
L 8.203125 64.59375 
z
" id="DejaVuSans-37"/>
      </defs>
      <g style="fill:#d2d2d2;" transform="translate(347.835927 262.677969)scale(0.13 -0.13)">
       <use xlink:href="#DejaVuSans-37"/>
       <use x="63.623047" xlink:href="#DejaVuSans-30"/>
      </g>
     </g>
    </g>
    <g id="text_7">
     <!-- Age -->
     <defs>
      <path d="M 34.1875 63.1875 
L 20.796875 26.90625 
L 47.609375 26.90625 
z
M 28.609375 72.90625 
L 39.796875 72.90625 
L 67.578125 0 
L 57.328125 0 
L 50.6875 18.703125 
L 17.828125 18.703125 
L 11.1875 0 
L 0.78125 0 
z
" id="DejaVuSans-41"/>
      <path d="M 45.40625 27.984375 
Q 45.40625 37.75 41.375 43.109375 
Q 37.359375 48.484375 30.078125 48.484375 
Q 22.859375 48.484375 18.828125 43.109375 
Q 14.796875 37.75 14.796875 27.984375 
Q 14.796875 18.265625 18.828125 12.890625 
Q 22.859375 7.515625 30.078125 7.515625 
Q 37.359375 7.515625 41.375 12.890625 
Q 45.40625 18.265625 45.40625 27.984375 
M 54.390625 6.78125 
Q 54.390625 -7.171875 48.1875 -13.984375 
Q 42 -20.796875 29.203125 -20.796875 
Q 24.46875 -20.796875 20.265625 -20.09375 
Q 16.0625 -19.390625 12.109375 -17.921875 
L 12.109375 -9.1875 
Q 16.0625 -11.328125 19.921875 -12.34375 
Q 23.78125 -13.375 27.78125 -13.375 
Q 36.625 -13.375 41.015625 -8.765625 
Q 45.40625 -4.15625 45.40625 5.171875 
L 45.40625 9.625 
Q 42.625 4.78125 38.28125 2.390625 
Q 33.9375 0 27.875 0 
Q 17.828125 0 11.671875 7.65625 
Q 5.515625 15.328125 5.515625 27.984375 
Q 5.515625 40.671875 11.671875 48.328125 
Q 17.828125 56 27.875 56 
Q 33.9375 56 38.28125 53.609375 
Q 42.625 51.21875 45.40625 46.390625 
L 45.40625 54.6875 
L 54.390625 54.6875 
z
" id="DejaVuSans-67"/>
      <path d="M 56.203125 29.59375 
L 56.203125 25.203125 
L 14.890625 25.203125 
Q 15.484375 15.921875 20.484375 11.0625 
Q 25.484375 6.203125 34.421875 6.203125 
Q 39.59375 6.203125 44.453125 7.46875 
Q 49.3125 8.734375 54.109375 11.28125 
L 54.109375 2.78125 
Q 49.265625 0.734375 44.1875 -0.34375 
Q 39.109375 -1.421875 33.890625 -1.421875 
Q 20.796875 -1.421875 13.15625 6.1875 
Q 5.515625 13.8125 5.515625 26.8125 
Q 5.515625 40.234375 12.765625 48.109375 
Q 20.015625 56 32.328125 56 
Q 43.359375 56 49.78125 48.890625 
Q 56.203125 41.796875 56.203125 29.59375 
M 47.21875 32.234375 
Q 47.125 39.59375 43.09375 43.984375 
Q 39.0625 48.390625 32.421875 48.390625 
Q 24.90625 48.390625 20.390625 44.140625 
Q 15.875 39.890625 15.1875 32.171875 
z
" id="DejaVuSans-65"/>
     </defs>
     <g style="fill:#d2d2d2;" transform="translate(222.12625 281.539062)scale(0.16 -0.16)">
      <use xlink:href="#DejaVuSans-41"/>
      <use x="68.408203" xlink:href="#DejaVuSans-67"/>
      <use x="131.884766" xlink:href="#DejaVuSans-65"/>
     </g>
    </g>
   </g>
   <g id="matplotlib.axis_2">
    <g id="ytick_1">
     <g id="line2d_7">
      <defs>
       <path d="M 0 0 
L -4 0 
" id="mfef969606e" style="stroke:#d2d2d2;"/>
      </defs>
      <g>
       <use style="fill:#d2d2d2;stroke:#d2d2d2;" x="64.8" xlink:href="#mfef969606e" y="244.8"/>
      </g>
     </g>
     <g id="text_8">
      <!-- 0 -->
      <g style="fill:#d2d2d2;" transform="translate(48.52875 249.738984)scale(0.13 -0.13)">
       <use xlink:href="#DejaVuSans-30"/>
      </g>
     </g>
    </g>
    <g id="ytick_2">
     <g id="line2d_8">
      <g>
       <use style="fill:#d2d2d2;stroke:#d2d2d2;" x="64.8" xlink:href="#mfef969606e" y="216"/>
      </g>
     </g>
     <g id="text_9">
      <!-- 25 -->
      <g style="fill:#d2d2d2;" transform="translate(40.2575 220.938984)scale(0.13 -0.13)">
       <use xlink:href="#DejaVuSans-32"/>
       <use x="63.623047" xlink:href="#DejaVuSans-35"/>
      </g>
     </g>
    </g>
    <g id="ytick_3">
     <g id="line2d_9">
      <g>
       <use style="fill:#d2d2d2;stroke:#d2d2d2;" x="64.8" xlink:href="#mfef969606e" y="187.2"/>
      </g>
     </g>
     <g id="text_10">
      <!-- 50 -->
      <g style="fill:#d2d2d2;" transform="translate(40.2575 192.138984)scale(0.13 -0.13)">
       <use xlink:href="#DejaVuSans-35"/>
       <use x="63.623047" xlink:href="#DejaVuSans-30"/>
      </g>
     </g>
    </g>
    <g id="ytick_4">
     <g id="line2d_10">
      <g>
       <use style="fill:#d2d2d2;stroke:#d2d2d2;" x="64.8" xlink:href="#mfef969606e" y="158.4"/>
      </g>
     </g>
     <g id="text_11">
      <!-- 75 -->
      <g style="fill:#d2d2d2;" transform="translate(40.2575 163.338984)scale(0.13 -0.13)">
       <use xlink:href="#DejaVuSans-37"/>
       <use x="63.623047" xlink:href="#DejaVuSans-35"/>
      </g>
     </g>
    </g>
    <g id="ytick_5">
     <g id="line2d_11">
      <g>
       <use style="fill:#d2d2d2;stroke:#d2d2d2;" x="64.8" xlink:href="#mfef969606e" y="129.6"/>
      </g>
     </g>
     <g id="text_12">
      <!-- 100 -->
      <defs>
       <path d="M 12.40625 8.296875 
L 28.515625 8.296875 
L 28.515625 63.921875 
L 10.984375 60.40625 
L 10.984375 69.390625 
L 28.421875 72.90625 
L 38.28125 72.90625 
L 38.28125 8.296875 
L 54.390625 8.296875 
L 54.390625 0 
L 12.40625 0 
z
" id="DejaVuSans-31"/>
      </defs>
      <g style="fill:#d2d2d2;" transform="translate(31.98625 134.538984)scale(0.13 -0.13)">
       <use xlink:href="#DejaVuSans-31"/>
       <use x="63.623047" xlink:href="#DejaVuSans-30"/>
       <use x="127.246094" xlink:href="#DejaVuSans-30"/>
      </g>
     </g>
    </g>
    <g id="ytick_6">
     <g id="line2d_12">
      <g>
       <use style="fill:#d2d2d2;stroke:#d2d2d2;" x="64.8" xlink:href="#mfef969606e" y="100.8"/>
      </g>
     </g>
     <g id="text_13">
      <!-- 125 -->
      <g style="fill:#d2d2d2;" transform="translate(31.98625 105.738984)scale(0.13 -0.13)">
       <use xlink:href="#DejaVuSans-31"/>
       <use x="63.623047" xlink:href="#DejaVuSans-32"/>
       <use x="127.246094" xlink:href="#DejaVuSans-35"/>
      </g>
     </g>
    </g>
    <g id="ytick_7">
     <g id="line2d_13">
      <g>
       <use style="fill:#d2d2d2;stroke:#d2d2d2;" x="64.8" xlink:href="#mfef969606e" y="72"/>
      </g>
     </g>
     <g id="text_14">
      <!-- 150 -->
      <g style="fill:#d2d2d2;" transform="translate(31.98625 76.938984)scale(0.13 -0.13)">
       <use xlink:href="#DejaVuSans-31"/>
       <use x="63.623047" xlink:href="#DejaVuSans-35"/>
       <use x="127.246094" xlink:href="#DejaVuSans-30"/>
      </g>
     </g>
    </g>
    <g id="ytick_8">
     <g id="line2d_14">
      <g>
       <use style="fill:#d2d2d2;stroke:#d2d2d2;" x="64.8" xlink:href="#mfef969606e" y="43.2"/>
      </g>
     </g>
     <g id="text_15">
      <!-- 175 -->
      <g style="fill:#d2d2d2;" transform="translate(31.98625 48.138984)scale(0.13 -0.13)">
       <use xlink:href="#DejaVuSans-31"/>
       <use x="63.623047" xlink:href="#DejaVuSans-37"/>
       <use x="127.246094" xlink:href="#DejaVuSans-35"/>
      </g>
     </g>
    </g>
    <g id="ytick_9">
     <g id="line2d_15">
      <g>
       <use style="fill:#d2d2d2;stroke:#d2d2d2;" x="64.8" xlink:href="#mfef969606e" y="14.4"/>
      </g>
     </g>
     <g id="text_16">
      <!-- 200 -->
      <g style="fill:#d2d2d2;" transform="translate(31.98625 19.338984)scale(0.13 -0.13)">
       <use xlink:href="#DejaVuSans-32"/>
       <use x="63.623047" xlink:href="#DejaVuSans-30"/>
       <use x="127.246094" xlink:href="#DejaVuSans-30"/>
      </g>
     </g>
    </g>
    <g id="text_17">
     <!-- Salary (K$) -->
     <defs>
      <path d="M 53.515625 70.515625 
L 53.515625 60.890625 
Q 47.90625 63.578125 42.921875 64.890625 
Q 37.9375 66.21875 33.296875 66.21875 
Q 25.25 66.21875 20.875 63.09375 
Q 16.5 59.96875 16.5 54.203125 
Q 16.5 49.359375 19.40625 46.890625 
Q 22.3125 44.4375 30.421875 42.921875 
L 36.375 41.703125 
Q 47.40625 39.59375 52.65625 34.296875 
Q 57.90625 29 57.90625 20.125 
Q 57.90625 9.515625 50.796875 4.046875 
Q 43.703125 -1.421875 29.984375 -1.421875 
Q 24.8125 -1.421875 18.96875 -0.25 
Q 13.140625 0.921875 6.890625 3.21875 
L 6.890625 13.375 
Q 12.890625 10.015625 18.65625 8.296875 
Q 24.421875 6.59375 29.984375 6.59375 
Q 38.421875 6.59375 43.015625 9.90625 
Q 47.609375 13.234375 47.609375 19.390625 
Q 47.609375 24.75 44.3125 27.78125 
Q 41.015625 30.8125 33.5 32.328125 
L 27.484375 33.5 
Q 16.453125 35.6875 11.515625 40.375 
Q 6.59375 45.0625 6.59375 53.421875 
Q 6.59375 63.09375 13.40625 68.65625 
Q 20.21875 74.21875 32.171875 74.21875 
Q 37.3125 74.21875 42.625 73.28125 
Q 47.953125 72.359375 53.515625 70.515625 
" id="DejaVuSans-53"/>
      <path d="M 34.28125 27.484375 
Q 23.390625 27.484375 19.1875 25 
Q 14.984375 22.515625 14.984375 16.5 
Q 14.984375 11.71875 18.140625 8.90625 
Q 21.296875 6.109375 26.703125 6.109375 
Q 34.1875 6.109375 38.703125 11.40625 
Q 43.21875 16.703125 43.21875 25.484375 
L 43.21875 27.484375 
z
M 52.203125 31.203125 
L 52.203125 0 
L 43.21875 0 
L 43.21875 8.296875 
Q 40.140625 3.328125 35.546875 0.953125 
Q 30.953125 -1.421875 24.3125 -1.421875 
Q 15.921875 -1.421875 10.953125 3.296875 
Q 6 8.015625 6 15.921875 
Q 6 25.140625 12.171875 29.828125 
Q 18.359375 34.515625 30.609375 34.515625 
L 43.21875 34.515625 
L 43.21875 35.40625 
Q 43.21875 41.609375 39.140625 45 
Q 35.0625 48.390625 27.6875 48.390625 
Q 23 48.390625 18.546875 47.265625 
Q 14.109375 46.140625 10.015625 43.890625 
L 10.015625 52.203125 
Q 14.9375 54.109375 19.578125 55.046875 
Q 24.21875 56 28.609375 56 
Q 40.484375 56 46.34375 49.84375 
Q 52.203125 43.703125 52.203125 31.203125 
" id="DejaVuSans-61"/>
      <path d="M 9.421875 75.984375 
L 18.40625 75.984375 
L 18.40625 0 
L 9.421875 0 
z
" id="DejaVuSans-6c"/>
      <path d="M 41.109375 46.296875 
Q 39.59375 47.171875 37.8125 47.578125 
Q 36.03125 48 33.890625 48 
Q 26.265625 48 22.1875 43.046875 
Q 18.109375 38.09375 18.109375 28.8125 
L 18.109375 0 
L 9.078125 0 
L 9.078125 54.6875 
L 18.109375 54.6875 
L 18.109375 46.1875 
Q 20.953125 51.171875 25.484375 53.578125 
Q 30.03125 56 36.53125 56 
Q 37.453125 56 38.578125 55.875 
Q 39.703125 55.765625 41.0625 55.515625 
z
" id="DejaVuSans-72"/>
      <path d="M 32.171875 -5.078125 
Q 28.375 -14.84375 24.75 -17.8125 
Q 21.140625 -20.796875 15.09375 -20.796875 
L 7.90625 -20.796875 
L 7.90625 -13.28125 
L 13.1875 -13.28125 
Q 16.890625 -13.28125 18.9375 -11.515625 
Q 21 -9.765625 23.484375 -3.21875 
L 25.09375 0.875 
L 2.984375 54.6875 
L 12.5 54.6875 
L 29.59375 11.921875 
L 46.6875 54.6875 
L 56.203125 54.6875 
z
" id="DejaVuSans-79"/>
      <path id="DejaVuSans-20"/>
      <path d="M 31 75.875 
Q 24.46875 64.65625 21.28125 53.65625 
Q 18.109375 42.671875 18.109375 31.390625 
Q 18.109375 20.125 21.3125 9.0625 
Q 24.515625 -2 31 -13.1875 
L 23.1875 -13.1875 
Q 15.875 -1.703125 12.234375 9.375 
Q 8.59375 20.453125 8.59375 31.390625 
Q 8.59375 42.28125 12.203125 53.3125 
Q 15.828125 64.359375 23.1875 75.875 
z
" id="DejaVuSans-28"/>
      <path d="M 9.8125 72.90625 
L 19.671875 72.90625 
L 19.671875 42.09375 
L 52.390625 72.90625 
L 65.09375 72.90625 
L 28.90625 38.921875 
L 67.671875 0 
L 54.6875 0 
L 19.671875 35.109375 
L 19.671875 0 
L 9.8125 0 
z
" id="DejaVuSans-4b"/>
      <path d="M 33.796875 -14.703125 
L 28.90625 -14.703125 
L 28.859375 0 
Q 23.734375 0.09375 18.609375 1.1875 
Q 13.484375 2.296875 8.296875 4.5 
L 8.296875 13.28125 
Q 13.28125 10.15625 18.375 8.5625 
Q 23.484375 6.984375 28.90625 6.9375 
L 28.90625 29.203125 
Q 18.109375 30.953125 13.203125 35.15625 
Q 8.296875 39.359375 8.296875 46.6875 
Q 8.296875 54.640625 13.625 59.21875 
Q 18.953125 63.8125 28.90625 64.5 
L 28.90625 75.984375 
L 33.796875 75.984375 
L 33.796875 64.65625 
Q 38.328125 64.453125 42.578125 63.6875 
Q 46.828125 62.9375 50.875 61.625 
L 50.875 53.078125 
Q 46.828125 55.125 42.546875 56.25 
Q 38.28125 57.375 33.796875 57.5625 
L 33.796875 36.71875 
Q 44.875 35.015625 50.09375 30.609375 
Q 55.328125 26.21875 55.328125 18.609375 
Q 55.328125 10.359375 49.78125 5.59375 
Q 44.234375 0.828125 33.796875 0.09375 
z
M 28.90625 37.59375 
L 28.90625 57.625 
Q 23.25 56.984375 20.265625 54.390625 
Q 17.28125 51.8125 17.28125 47.515625 
Q 17.28125 43.3125 20.03125 40.96875 
Q 22.796875 38.625 28.90625 37.59375 
M 33.796875 28.21875 
L 33.796875 7.078125 
Q 39.984375 7.90625 43.140625 10.59375 
Q 46.296875 13.28125 46.296875 17.671875 
Q 46.296875 21.96875 43.28125 24.5 
Q 40.28125 27.046875 33.796875 28.21875 
" id="DejaVuSans-24"/>
      <path d="M 8.015625 75.875 
L 15.828125 75.875 
Q 23.140625 64.359375 26.78125 53.3125 
Q 30.421875 42.28125 30.421875 31.390625 
Q 30.421875 20.453125 26.78125 9.375 
Q 23.140625 -1.703125 15.828125 -13.1875 
L 8.015625 -13.1875 
Q 14.5 -2 17.703125 9.0625 
Q 20.90625 20.125 20.90625 31.390625 
Q 20.90625 42.671875 17.703125 53.65625 
Q 14.5 64.65625 8.015625 75.875 
" id="DejaVuSans-29"/>
     </defs>
     <g style="fill:#d2d2d2;" transform="translate(24.65875 173.85125)rotate(-90)scale(0.16 -0.16)">
      <use xlink:href="#DejaVuSans-53"/>
      <use x="63.476562" xlink:href="#DejaVuSans-61"/>
      <use x="124.755859" xlink:href="#DejaVuSans-6c"/>
      <use x="152.539062" xlink:href="#DejaVuSans-61"/>
      <use x="213.818359" xlink:href="#DejaVuSans-72"/>
      <use x="254.931641" xlink:href="#DejaVuSans-79"/>
      <use x="314.111328" xlink:href="#DejaVuSans-20"/>
      <use x="345.898438" xlink:href="#DejaVuSans-28"/>
      <use x="384.912109" xlink:href="#DejaVuSans-4b"/>
      <use x="450.488281" xlink:href="#DejaVuSans-24"/>
      <use x="514.111328" xlink:href="#DejaVuSans-29"/>
     </g>
    </g>
   </g>
   <g id="line2d_16">
    <defs>
     <path d="M 0 4 
C 1.060812 4 2.078319 3.578535 2.828427 2.828427 
C 3.578535 2.078319 4 1.060812 4 0 
C 4 -1.060812 3.578535 -2.078319 2.828427 -2.828427 
C 2.078319 -3.578535 1.060812 -4 0 -4 
C -1.060812 -4 -2.078319 -3.578535 -2.828427 -2.828427 
C -3.578535 -2.078319 -4 -1.060812 -4 0 
C -4 1.060812 -3.578535 2.078319 -2.828427 2.828427 
C -2.078319 3.578535 -1.060812 4 0 4 
z
" id="ma23bb3a995" style="stroke:#fa9fb5;"/>
    </defs>
    <g clip-path="url(#p550565dba8)">
     <use style="fill:none;stroke:#fa9fb5;" x="278.939713" xlink:href="#ma23bb3a995" y="204.3648"/>
     <use style="fill:none;stroke:#fa9fb5;" x="119.092823" xlink:href="#ma23bb3a995" y="210.24"/>
     <use style="fill:none;stroke:#fa9fb5;" x="135.628708" xlink:href="#ma23bb3a995" y="208.9728"/>
     <use style="fill:none;stroke:#fa9fb5;" x="108.0689" xlink:href="#ma23bb3a995" y="227.52"/>
     <use style="fill:none;stroke:#fa9fb5;" x="223.820096" xlink:href="#ma23bb3a995" y="160.704"/>
     <use style="fill:none;stroke:#fa9fb5;" x="300.98756" xlink:href="#ma23bb3a995" y="187.2"/>
     <use style="fill:none;stroke:#fa9fb5;" x="135.628708" xlink:href="#ma23bb3a995" y="221.76"/>
     <use style="fill:none;stroke:#fa9fb5;" x="256.891866" xlink:href="#ma23bb3a995" y="210.24"/>
     <use style="fill:none;stroke:#fa9fb5;" x="240.355981" xlink:href="#ma23bb3a995" y="184.896"/>
     <use style="fill:none;stroke:#fa9fb5;" x="218.308134" xlink:href="#ma23bb3a995" y="207.936"/>
     <use style="fill:none;stroke:#fa9fb5;" x="146.652632" xlink:href="#ma23bb3a995" y="221.76"/>
     <use style="fill:none;stroke:#fa9fb5;" x="240.355981" xlink:href="#ma23bb3a995" y="227.8656"/>
     <use style="fill:none;stroke:#fa9fb5;" x="91.533014" xlink:href="#ma23bb3a995" y="204.7104"/>
     <use style="fill:none;stroke:#fa9fb5;" x="256.891866" xlink:href="#ma23bb3a995" y="181.44"/>
     <use style="fill:none;stroke:#fa9fb5;" x="312.011483" xlink:href="#ma23bb3a995" y="173.376"/>
     <use style="fill:none;stroke:#fa9fb5;" x="278.939713" xlink:href="#ma23bb3a995" y="198.72"/>
     <use style="fill:none;stroke:#fa9fb5;" x="196.260287" xlink:href="#ma23bb3a995" y="217.152"/>
     <use style="fill:none;stroke:#fa9fb5;" x="300.98756" xlink:href="#ma23bb3a995" y="189.504"/>
     <use style="fill:none;stroke:#fa9fb5;" x="207.284211" xlink:href="#ma23bb3a995" y="221.76"/>
     <use style="fill:none;stroke:#fa9fb5;" x="284.451675" xlink:href="#ma23bb3a995" y="197.9136"/>
     <use style="fill:none;stroke:#fa9fb5;" x="80.509091" xlink:href="#ma23bb3a995" y="198.9504"/>
     <use style="fill:none;stroke:#fa9fb5;" x="119.092823" xlink:href="#ma23bb3a995" y="230.976"/>
     <use style="fill:none;stroke:#fa9fb5;" x="135.628708" xlink:href="#ma23bb3a995" y="215.0784"/>
     <use style="fill:none;stroke:#fa9fb5;" x="312.011483" xlink:href="#ma23bb3a995" y="219.456"/>
     <use style="fill:none;stroke:#fa9fb5;" x="267.915789" xlink:href="#ma23bb3a995" y="200.1024"/>
     <use style="fill:none;stroke:#fa9fb5;" x="130.116746" xlink:href="#ma23bb3a995" y="216"/>
     <use style="fill:none;stroke:#fa9fb5;" x="267.915789" xlink:href="#ma23bb3a995" y="112.32"/>
     <use style="fill:none;stroke:#fa9fb5;" x="212.796172" xlink:href="#ma23bb3a995" y="204.48"/>
    </g>
   </g>
   <g id="line2d_17">
    <defs>
     <path d="M 0 4 
C 1.060812 4 2.078319 3.578535 2.828427 2.828427 
C 3.578535 2.078319 4 1.060812 4 0 
C 4 -1.060812 3.578535 -2.078319 2.828427 -2.828427 
C 2.078319 -3.578535 1.060812 -4 0 -4 
C -1.060812 -4 -2.078319 -3.578535 -2.828427 -2.828427 
C -3.578535 -2.078319 -4 -1.060812 -4 0 
C -4 1.060812 -3.578535 2.078319 -2.828427 2.828427 
C -2.078319 3.578535 -1.060812 4 0 4 
z
" id="m9136456945" style="stroke:#fa9fb5;"/>
    </defs>
    <g clip-path="url(#p550565dba8)">
     <use style="fill:#fa9fb5;stroke:#fa9fb5;" x="328.547368" xlink:href="#m9136456945" y="210.24"/>
     <use style="fill:#fa9fb5;stroke:#fa9fb5;" x="262.403828" xlink:href="#m9136456945" y="152.64"/>
     <use style="fill:#fa9fb5;stroke:#fa9fb5;" x="229.332057" xlink:href="#m9136456945" y="148.032"/>
     <use style="fill:#fa9fb5;stroke:#fa9fb5;" x="251.379904" xlink:href="#m9136456945" y="161.856"/>
     <use style="fill:#fa9fb5;stroke:#fa9fb5;" x="218.308134" xlink:href="#m9136456945" y="129.6"/>
     <use style="fill:#fa9fb5;stroke:#fa9fb5;" x="256.891866" xlink:href="#m9136456945" y="141.12"/>
     <use style="fill:#fa9fb5;stroke:#fa9fb5;" x="267.915789" xlink:href="#m9136456945" y="141.12"/>
     <use style="fill:#fa9fb5;stroke:#fa9fb5;" x="289.963636" xlink:href="#m9136456945" y="138.816"/>
     <use style="fill:#fa9fb5;stroke:#fa9fb5;" x="234.844019" xlink:href="#m9136456945" y="207.936"/>
     <use style="fill:#fa9fb5;stroke:#fa9fb5;" x="328.547368" xlink:href="#m9136456945" y="212.544"/>
     <use style="fill:#fa9fb5;stroke:#fa9fb5;" x="240.355981" xlink:href="#m9136456945" y="148.032"/>
     <use style="fill:#fa9fb5;stroke:#fa9fb5;" x="207.284211" xlink:href="#m9136456945" y="169.92"/>
     <use style="fill:#fa9fb5;stroke:#fa9fb5;" x="146.652632" xlink:href="#m9136456945" y="201.024"/>
     <use style="fill:#fa9fb5;stroke:#fa9fb5;" x="251.379904" xlink:href="#m9136456945" y="197.568"/>
     <use style="fill:#fa9fb5;stroke:#fa9fb5;" x="273.427751" xlink:href="#m9136456945" y="168.768"/>
    </g>
   </g>
   <g id="patch_3">
    <path d="M 64.8 244.8 
L 64.8 14.4 
" style="fill:none;stroke:#d2d2d2;stroke-linecap:square;stroke-linejoin:miter;"/>
   </g>
   <g id="patch_4">
    <path d="M 64.8 244.8 
L 410.4 244.8 
" style="fill:none;stroke:#d2d2d2;stroke-linecap:square;stroke-linejoin:miter;"/>
   </g>
   <g id="text_18">
    <!-- No PhD -->
    <defs>
     <path d="M 9.8125 72.90625 
L 23.09375 72.90625 
L 55.421875 11.921875 
L 55.421875 72.90625 
L 64.984375 72.90625 
L 64.984375 0 
L 51.703125 0 
L 19.390625 60.984375 
L 19.390625 0 
L 9.8125 0 
z
" id="DejaVuSans-4e"/>
     <path d="M 30.609375 48.390625 
Q 23.390625 48.390625 19.1875 42.75 
Q 14.984375 37.109375 14.984375 27.296875 
Q 14.984375 17.484375 19.15625 11.84375 
Q 23.34375 6.203125 30.609375 6.203125 
Q 37.796875 6.203125 41.984375 11.859375 
Q 46.1875 17.53125 46.1875 27.296875 
Q 46.1875 37.015625 41.984375 42.703125 
Q 37.796875 48.390625 30.609375 48.390625 
M 30.609375 56 
Q 42.328125 56 49.015625 48.375 
Q 55.71875 40.765625 55.71875 27.296875 
Q 55.71875 13.875 49.015625 6.21875 
Q 42.328125 -1.421875 30.609375 -1.421875 
Q 18.84375 -1.421875 12.171875 6.21875 
Q 5.515625 13.875 5.515625 27.296875 
Q 5.515625 40.765625 12.171875 48.375 
Q 18.84375 56 30.609375 56 
" id="DejaVuSans-6f"/>
     <path d="M 19.671875 64.796875 
L 19.671875 37.40625 
L 32.078125 37.40625 
Q 38.96875 37.40625 42.71875 40.96875 
Q 46.484375 44.53125 46.484375 51.125 
Q 46.484375 57.671875 42.71875 61.234375 
Q 38.96875 64.796875 32.078125 64.796875 
z
M 9.8125 72.90625 
L 32.078125 72.90625 
Q 44.34375 72.90625 50.609375 67.359375 
Q 56.890625 61.8125 56.890625 51.125 
Q 56.890625 40.328125 50.609375 34.8125 
Q 44.34375 29.296875 32.078125 29.296875 
L 19.671875 29.296875 
L 19.671875 0 
L 9.8125 0 
z
" id="DejaVuSans-50"/>
     <path d="M 54.890625 33.015625 
L 54.890625 0 
L 45.90625 0 
L 45.90625 32.71875 
Q 45.90625 40.484375 42.875 44.328125 
Q 39.84375 48.1875 33.796875 48.1875 
Q 26.515625 48.1875 22.3125 43.546875 
Q 18.109375 38.921875 18.109375 30.90625 
L 18.109375 0 
L 9.078125 0 
L 9.078125 75.984375 
L 18.109375 75.984375 
L 18.109375 46.1875 
Q 21.34375 51.125 25.703125 53.5625 
Q 30.078125 56 35.796875 56 
Q 45.21875 56 50.046875 50.171875 
Q 54.890625 44.34375 54.890625 33.015625 
" id="DejaVuSans-68"/>
     <path d="M 19.671875 64.796875 
L 19.671875 8.109375 
L 31.59375 8.109375 
Q 46.6875 8.109375 53.6875 14.9375 
Q 60.6875 21.78125 60.6875 36.53125 
Q 60.6875 51.171875 53.6875 57.984375 
Q 46.6875 64.796875 31.59375 64.796875 
z
M 9.8125 72.90625 
L 30.078125 72.90625 
Q 51.265625 72.90625 61.171875 64.09375 
Q 71.09375 55.28125 71.09375 36.53125 
Q 71.09375 17.671875 61.125 8.828125 
Q 51.171875 0 30.078125 0 
L 9.8125 0 
z
" id="DejaVuSans-44"/>
    </defs>
    <g style="fill:#d2d2d2;" transform="translate(89.631408 14.4)scale(0.13 -0.13)">
     <use xlink:href="#DejaVuSans-4e"/>
     <use x="74.804688" xlink:href="#DejaVuSans-6f"/>
     <use x="135.986328" xlink:href="#DejaVuSans-20"/>
     <use x="167.773438" xlink:href="#DejaVuSans-50"/>
     <use x="228.076172" xlink:href="#DejaVuSans-68"/>
     <use x="291.455078" xlink:href="#DejaVuSans-44"/>
    </g>
   </g>
   <g id="text_19">
    <!-- PhD -->
    <g style="fill:#d2d2d2;" transform="translate(177.704653 14.4)scale(0.13 -0.13)">
     <use xlink:href="#DejaVuSans-50"/>
     <use x="60.302734" xlink:href="#DejaVuSans-68"/>
     <use x="123.681641" xlink:href="#DejaVuSans-44"/>
    </g>
   </g>
   <g id="legend_1">
    <g id="line2d_18"/>
    <g id="line2d_19">
     <g>
      <use style="fill:none;stroke:#fa9fb5;" x="83.8" xlink:href="#ma23bb3a995" y="30.537812"/>
     </g>
    </g>
    <g id="text_20">
     <!-- Female -->
     <defs>
      <path d="M 9.8125 72.90625 
L 51.703125 72.90625 
L 51.703125 64.59375 
L 19.671875 64.59375 
L 19.671875 43.109375 
L 48.578125 43.109375 
L 48.578125 34.8125 
L 19.671875 34.8125 
L 19.671875 0 
L 9.8125 0 
z
" id="DejaVuSans-46"/>
      <path d="M 52 44.1875 
Q 55.375 50.25 60.0625 53.125 
Q 64.75 56 71.09375 56 
Q 79.640625 56 84.28125 50.015625 
Q 88.921875 44.046875 88.921875 33.015625 
L 88.921875 0 
L 79.890625 0 
L 79.890625 32.71875 
Q 79.890625 40.578125 77.09375 44.375 
Q 74.3125 48.1875 68.609375 48.1875 
Q 61.625 48.1875 57.5625 43.546875 
Q 53.515625 38.921875 53.515625 30.90625 
L 53.515625 0 
L 44.484375 0 
L 44.484375 32.71875 
Q 44.484375 40.625 41.703125 44.40625 
Q 38.921875 48.1875 33.109375 48.1875 
Q 26.21875 48.1875 22.15625 43.53125 
Q 18.109375 38.875 18.109375 30.90625 
L 18.109375 0 
L 9.078125 0 
L 9.078125 54.6875 
L 18.109375 54.6875 
L 18.109375 46.1875 
Q 21.1875 51.21875 25.484375 53.609375 
Q 29.78125 56 35.6875 56 
Q 41.65625 56 45.828125 52.96875 
Q 50 49.953125 52 44.1875 
" id="DejaVuSans-6d"/>
     </defs>
     <g style="fill:#d2d2d2;" transform="translate(93.8 34.037812)scale(0.14 -0.14)">
      <use xlink:href="#DejaVuSans-46"/>
      <use x="57.441406" xlink:href="#DejaVuSans-65"/>
      <use x="118.964844" xlink:href="#DejaVuSans-6d"/>
      <use x="216.376953" xlink:href="#DejaVuSans-61"/>
      <use x="277.65625" xlink:href="#DejaVuSans-6c"/>
      <use x="305.439453" xlink:href="#DejaVuSans-65"/>
     </g>
    </g>
    <g id="line2d_20"/>
    <g id="line2d_21">
     <g>
      <use style="fill:#fa9fb5;stroke:#fa9fb5;" x="160.175625" xlink:href="#m9136456945" y="30.537812"/>
     </g>
    </g>
    <g id="text_21">
     <!-- Female -->
     <g style="fill:#d2d2d2;" transform="translate(170.175625 34.037812)scale(0.14 -0.14)">
      <use xlink:href="#DejaVuSans-46"/>
      <use x="57.441406" xlink:href="#DejaVuSans-65"/>
      <use x="118.964844" xlink:href="#DejaVuSans-6d"/>
      <use x="216.376953" xlink:href="#DejaVuSans-61"/>
      <use x="277.65625" xlink:href="#DejaVuSans-6c"/>
      <use x="305.439453" xlink:href="#DejaVuSans-65"/>
     </g>
    </g>
   </g>
  </g>
  <g id="axes_2">
   <g id="line2d_22">
    <defs>
     <path d="M 0 4 
C 1.060812 4 2.078319 3.578535 2.828427 2.828427 
C 3.578535 2.078319 4 1.060812 4 0 
C 4 -1.060812 3.578535 -2.078319 2.828427 -2.828427 
C 2.078319 -3.578535 1.060812 -4 0 -4 
C -1.060812 -4 -2.078319 -3.578535 -2.828427 -2.828427 
C -3.578535 -2.078319 -4 -1.060812 -4 0 
C -4 1.060812 -3.578535 2.078319 -2.828427 2.828427 
C -2.078319 3.578535 -1.060812 4 0 4 
z
" id="ma843e8f61b" style="stroke:#5bc0de;"/>
    </defs>
    <g>
     <use style="fill:none;stroke:#5bc0de;" x="97.044976" xlink:href="#ma843e8f61b" y="210.24"/>
     <use style="fill:none;stroke:#5bc0de;" x="262.403828" xlink:href="#ma843e8f61b" y="175.68"/>
     <use style="fill:none;stroke:#5bc0de;" x="295.475598" xlink:href="#ma843e8f61b" y="191.808"/>
     <use style="fill:none;stroke:#5bc0de;" x="328.547368" xlink:href="#ma843e8f61b" y="95.04"/>
     <use style="fill:none;stroke:#5bc0de;" x="328.547368" xlink:href="#ma843e8f61b" y="95.04"/>
     <use style="fill:none;stroke:#5bc0de;" x="135.628708" xlink:href="#ma843e8f61b" y="204.48"/>
     <use style="fill:none;stroke:#5bc0de;" x="113.580861" xlink:href="#ma843e8f61b" y="216"/>
     <use style="fill:none;stroke:#5bc0de;" x="300.98756" xlink:href="#ma843e8f61b" y="161.856"/>
     <use style="fill:none;stroke:#5bc0de;" x="124.604785" xlink:href="#ma843e8f61b" y="226.368"/>
     <use style="fill:none;stroke:#5bc0de;" x="168.700478" xlink:href="#ma843e8f61b" y="184.896"/>
     <use style="fill:none;stroke:#5bc0de;" x="339.571292" xlink:href="#ma843e8f61b" y="219.1104"/>
     <use style="fill:none;stroke:#5bc0de;" x="207.284211" xlink:href="#ma843e8f61b" y="222.912"/>
     <use style="fill:none;stroke:#5bc0de;" x="130.116746" xlink:href="#ma843e8f61b" y="221.76"/>
     <use style="fill:none;stroke:#5bc0de;" x="306.499522" xlink:href="#ma843e8f61b" y="192.2688"/>
     <use style="fill:none;stroke:#5bc0de;" x="102.556938" xlink:href="#ma843e8f61b" y="204.48"/>
     <use style="fill:none;stroke:#5bc0de;" x="97.044976" xlink:href="#ma843e8f61b" y="227.52"/>
     <use style="fill:none;stroke:#5bc0de;" x="300.98756" xlink:href="#ma843e8f61b" y="141.12"/>
     <use style="fill:none;stroke:#5bc0de;" x="312.011483" xlink:href="#ma843e8f61b" y="142.272"/>
     <use style="fill:none;stroke:#5bc0de;" x="113.580861" xlink:href="#ma843e8f61b" y="223.3728"/>
    </g>
   </g>
   <g id="line2d_23">
    <defs>
     <path d="M 0 4 
C 1.060812 4 2.078319 3.578535 2.828427 2.828427 
C 3.578535 2.078319 4 1.060812 4 0 
C 4 -1.060812 3.578535 -2.078319 2.828427 -2.828427 
C 2.078319 -3.578535 1.060812 -4 0 -4 
C -1.060812 -4 -2.078319 -3.578535 -2.828427 -2.828427 
C -3.578535 -2.078319 -4 -1.060812 -4 0 
C -4 1.060812 -3.578535 2.078319 -2.828427 2.828427 
C -2.078319 3.578535 -1.060812 4 0 4 
z
" id="mc9fe796b13" style="stroke:#5bc0de;"/>
    </defs>
    <g>
     <use style="fill:#5bc0de;stroke:#5bc0de;" x="229.332057" xlink:href="#mc9fe796b13" y="83.52"/>
     <use style="fill:#5bc0de;stroke:#5bc0de;" x="212.796172" xlink:href="#mc9fe796b13" y="100.8"/>
     <use style="fill:#5bc0de;stroke:#5bc0de;" x="317.523445" xlink:href="#mc9fe796b13" y="186.048"/>
     <use style="fill:#5bc0de;stroke:#5bc0de;" x="300.98756" xlink:href="#mc9fe796b13" y="72"/>
     <use style="fill:#5bc0de;stroke:#5bc0de;" x="334.05933" xlink:href="#mc9fe796b13" y="25.92"/>
     <use style="fill:#5bc0de;stroke:#5bc0de;" x="218.308134" xlink:href="#mc9fe796b13" y="159.552"/>
     <use style="fill:#5bc0de;stroke:#5bc0de;" x="334.05933" xlink:href="#mc9fe796b13" y="227.2896"/>
     <use style="fill:#5bc0de;stroke:#5bc0de;" x="168.700478" xlink:href="#mc9fe796b13" y="211.8528"/>
     <use style="fill:#5bc0de;stroke:#5bc0de;" x="328.547368" xlink:href="#mc9fe796b13" y="151.488"/>
     <use style="fill:#5bc0de;stroke:#5bc0de;" x="157.676555" xlink:href="#mc9fe796b13" y="172.224"/>
     <use style="fill:#5bc0de;stroke:#5bc0de;" x="394.690909" xlink:href="#mc9fe796b13" y="122.688"/>
     <use style="fill:#5bc0de;stroke:#5bc0de;" x="240.355981" xlink:href="#mc9fe796b13" y="181.44"/>
     <use style="fill:#5bc0de;stroke:#5bc0de;" x="306.499522" xlink:href="#mc9fe796b13" y="60.48"/>
     <use style="fill:#5bc0de;stroke:#5bc0de;" x="334.05933" xlink:href="#mc9fe796b13" y="127.296"/>
     <use style="fill:#5bc0de;stroke:#5bc0de;" x="278.939713" xlink:href="#mc9fe796b13" y="181.44"/>
     <use style="fill:#5bc0de;stroke:#5bc0de;" x="361.619139" xlink:href="#mc9fe796b13" y="69.696"/>
     <use style="fill:#5bc0de;stroke:#5bc0de;" x="350.595215" xlink:href="#mc9fe796b13" y="210.24"/>
     <use style="fill:#5bc0de;stroke:#5bc0de;" x="289.963636" xlink:href="#mc9fe796b13" y="106.56"/>
     <use style="fill:#5bc0de;stroke:#5bc0de;" x="146.652632" xlink:href="#mc9fe796b13" y="203.328"/>
     <use style="fill:#5bc0de;stroke:#5bc0de;" x="152.164593" xlink:href="#mc9fe796b13" y="134.208"/>
     <use style="fill:#5bc0de;stroke:#5bc0de;" x="201.772249" xlink:href="#mc9fe796b13" y="161.856"/>
     <use style="fill:#5bc0de;stroke:#5bc0de;" x="361.619139" xlink:href="#mc9fe796b13" y="142.272"/>
     <use style="fill:#5bc0de;stroke:#5bc0de;" x="273.427751" xlink:href="#mc9fe796b13" y="184.896"/>
     <use style="fill:#5bc0de;stroke:#5bc0de;" x="278.939713" xlink:href="#mc9fe796b13" y="69.696"/>
    </g>
   </g>
   <g id="legend_2">
    <g id="line2d_24"/>
    <g id="line2d_25">
     <g>
      <use style="fill:none;stroke:#5bc0de;" x="83.8" xlink:href="#ma843e8f61b" y="48.969812"/>
     </g>
    </g>
    <g id="text_22">
     <!-- Male -->
     <defs>
      <path d="M 9.8125 72.90625 
L 24.515625 72.90625 
L 43.109375 23.296875 
L 61.8125 72.90625 
L 76.515625 72.90625 
L 76.515625 0 
L 66.890625 0 
L 66.890625 64.015625 
L 48.09375 14.015625 
L 38.1875 14.015625 
L 19.390625 64.015625 
L 19.390625 0 
L 9.8125 0 
z
" id="DejaVuSans-4d"/>
     </defs>
     <g style="fill:#d2d2d2;" transform="translate(93.8 52.469812)scale(0.14 -0.14)">
      <use xlink:href="#DejaVuSans-4d"/>
      <use x="86.279297" xlink:href="#DejaVuSans-61"/>
      <use x="147.558594" xlink:href="#DejaVuSans-6c"/>
      <use x="175.341797" xlink:href="#DejaVuSans-65"/>
     </g>
    </g>
    <g id="line2d_26"/>
    <g id="line2d_27">
     <g>
      <use style="fill:#5bc0de;stroke:#5bc0de;" x="160.0625" xlink:href="#mc9fe796b13" y="48.969812"/>
     </g>
    </g>
    <g id="text_23">
     <!-- Male -->
     <g style="fill:#d2d2d2;" transform="translate(170.0625 52.469812)scale(0.14 -0.14)">
      <use xlink:href="#DejaVuSans-4d"/>
      <use x="86.279297" xlink:href="#DejaVuSans-61"/>
      <use x="147.558594" xlink:href="#DejaVuSans-6c"/>
      <use x="175.341797" xlink:href="#DejaVuSans-65"/>
     </g>
    </g>
   </g>
  </g>
 </g>
 <defs>
  <clipPath id="p550565dba8">
   <rect height="230.4" width="345.6" x="64.8" y="14.4"/>
  </clipPath>
 </defs>
</svg>
