<?xml version="1.0" encoding="utf-8" standalone="no"?>
<!DOCTYPE svg PUBLIC "-//W3C//DTD SVG 1.1//EN"
  "http://www.w3.org/Graphics/SVG/1.1/DTD/svg11.dtd">
<!-- Created with matplotlib (http://matplotlib.org/) -->
<svg height="288pt" version="1.1" viewBox="0 0 432 288" width="432pt" xmlns="http://www.w3.org/2000/svg" xmlns:xlink="http://www.w3.org/1999/xlink">
 <defs>
  <style type="text/css">
*{stroke-linecap:butt;stroke-linejoin:round;}
  </style>
 </defs>
 <g id="figure_1">
  <g id="patch_1">
   <path d="M 0 288 
L 432 288 
L 432 0 
L 0 0 
z
" style="fill:none;"/>
  </g>
  <g id="axes_1">
   <g id="patch_2">
    <path d="M 64.8 244.8 
L 410.4 244.8 
L 410.4 14.4 
L 64.8 14.4 
z
" style="fill:none;"/>
   </g>
   <g id="matplotlib.axis_1">
    <g id="xtick_1">
     <g id="line2d_1">
      <defs>
       <path d="M 0 0 
L 0 4 
" id="m7f8ac8f52c" style="stroke:#d2d2d2;"/>
      </defs>
      <g>
       <use style="fill:#d2d2d2;stroke:#d2d2d2;" x="64.8" xlink:href="#m7f8ac8f52c" y="244.8"/>
      </g>
     </g>
     <g id="text_1">
      <!-- 0 -->
      <defs>
       <path d="M 31.78125 66.40625 
Q 24.171875 66.40625 20.328125 58.90625 
Q 16.5 51.421875 16.5 36.375 
Q 16.5 21.390625 20.328125 13.890625 
Q 24.171875 6.390625 31.78125 6.390625 
Q 39.453125 6.390625 43.28125 13.890625 
Q 47.125 21.390625 47.125 36.375 
Q 47.125 51.421875 43.28125 58.90625 
Q 39.453125 66.40625 31.78125 66.40625 
M 31.78125 74.21875 
Q 44.046875 74.21875 50.515625 64.515625 
Q 56.984375 54.828125 56.984375 36.375 
Q 56.984375 17.96875 50.515625 8.265625 
Q 44.046875 -1.421875 31.78125 -1.421875 
Q 19.53125 -1.421875 13.0625 8.265625 
Q 6.59375 17.96875 6.59375 36.375 
Q 6.59375 54.828125 13.0625 64.515625 
Q 19.53125 74.21875 31.78125 74.21875 
" id="DejaVuSans-30"/>
      </defs>
      <g style="fill:#d2d2d2;" transform="translate(60.664375 262.677969)scale(0.13 -0.13)">
       <use xlink:href="#DejaVuSans-30"/>
      </g>
     </g>
    </g>
    <g id="xtick_2">
     <g id="line2d_2">
      <g>
       <use style="fill:#d2d2d2;stroke:#d2d2d2;" x="109.651954" xlink:href="#m7f8ac8f52c" y="244.8"/>
      </g>
     </g>
     <g id="text_2">
      <!-- 2000 -->
      <defs>
       <path d="M 19.1875 8.296875 
L 53.609375 8.296875 
L 53.609375 0 
L 7.328125 0 
L 7.328125 8.296875 
Q 12.9375 14.109375 22.625 23.890625 
Q 32.328125 33.6875 34.8125 36.53125 
Q 39.546875 41.84375 41.421875 45.53125 
Q 43.3125 49.21875 43.3125 52.78125 
Q 43.3125 58.59375 39.234375 62.25 
Q 35.15625 65.921875 28.609375 65.921875 
Q 23.96875 65.921875 18.8125 64.3125 
Q 13.671875 62.703125 7.8125 59.421875 
L 7.8125 69.390625 
Q 13.765625 71.78125 18.9375 73 
Q 24.125 74.21875 28.421875 74.21875 
Q 39.75 74.21875 46.484375 68.546875 
Q 53.21875 62.890625 53.21875 53.421875 
Q 53.21875 48.921875 51.53125 44.890625 
Q 49.859375 40.875 45.40625 35.40625 
Q 44.1875 33.984375 37.640625 27.21875 
Q 31.109375 20.453125 19.1875 8.296875 
" id="DejaVuSans-32"/>
      </defs>
      <g style="fill:#d2d2d2;" transform="translate(93.109454 262.677969)scale(0.13 -0.13)">
       <use xlink:href="#DejaVuSans-32"/>
       <use x="63.623047" xlink:href="#DejaVuSans-30"/>
       <use x="127.246094" xlink:href="#DejaVuSans-30"/>
       <use x="190.869141" xlink:href="#DejaVuSans-30"/>
      </g>
     </g>
    </g>
    <g id="xtick_3">
     <g id="line2d_3">
      <g>
       <use style="fill:#d2d2d2;stroke:#d2d2d2;" x="154.503907" xlink:href="#m7f8ac8f52c" y="244.8"/>
      </g>
     </g>
     <g id="text_3">
      <!-- 4000 -->
      <defs>
       <path d="M 37.796875 64.3125 
L 12.890625 25.390625 
L 37.796875 25.390625 
z
M 35.203125 72.90625 
L 47.609375 72.90625 
L 47.609375 25.390625 
L 58.015625 25.390625 
L 58.015625 17.1875 
L 47.609375 17.1875 
L 47.609375 0 
L 37.796875 0 
L 37.796875 17.1875 
L 4.890625 17.1875 
L 4.890625 26.703125 
z
" id="DejaVuSans-34"/>
      </defs>
      <g style="fill:#d2d2d2;" transform="translate(137.961407 262.677969)scale(0.13 -0.13)">
       <use xlink:href="#DejaVuSans-34"/>
       <use x="63.623047" xlink:href="#DejaVuSans-30"/>
       <use x="127.246094" xlink:href="#DejaVuSans-30"/>
       <use x="190.869141" xlink:href="#DejaVuSans-30"/>
      </g>
     </g>
    </g>
    <g id="xtick_4">
     <g id="line2d_4">
      <g>
       <use style="fill:#d2d2d2;stroke:#d2d2d2;" x="199.355861" xlink:href="#m7f8ac8f52c" y="244.8"/>
      </g>
     </g>
     <g id="text_4">
      <!-- 6000 -->
      <defs>
       <path d="M 33.015625 40.375 
Q 26.375 40.375 22.484375 35.828125 
Q 18.609375 31.296875 18.609375 23.390625 
Q 18.609375 15.53125 22.484375 10.953125 
Q 26.375 6.390625 33.015625 6.390625 
Q 39.65625 6.390625 43.53125 10.953125 
Q 47.40625 15.53125 47.40625 23.390625 
Q 47.40625 31.296875 43.53125 35.828125 
Q 39.65625 40.375 33.015625 40.375 
M 52.59375 71.296875 
L 52.59375 62.3125 
Q 48.875 64.0625 45.09375 64.984375 
Q 41.3125 65.921875 37.59375 65.921875 
Q 27.828125 65.921875 22.671875 59.328125 
Q 17.53125 52.734375 16.796875 39.40625 
Q 19.671875 43.65625 24.015625 45.921875 
Q 28.375 48.1875 33.59375 48.1875 
Q 44.578125 48.1875 50.953125 41.515625 
Q 57.328125 34.859375 57.328125 23.390625 
Q 57.328125 12.15625 50.6875 5.359375 
Q 44.046875 -1.421875 33.015625 -1.421875 
Q 20.359375 -1.421875 13.671875 8.265625 
Q 6.984375 17.96875 6.984375 36.375 
Q 6.984375 53.65625 15.1875 63.9375 
Q 23.390625 74.21875 37.203125 74.21875 
Q 40.921875 74.21875 44.703125 73.484375 
Q 48.484375 72.75 52.59375 71.296875 
" id="DejaVuSans-36"/>
      </defs>
      <g style="fill:#d2d2d2;" transform="translate(182.813361 262.677969)scale(0.13 -0.13)">
       <use xlink:href="#DejaVuSans-36"/>
       <use x="63.623047" xlink:href="#DejaVuSans-30"/>
       <use x="127.246094" xlink:href="#DejaVuSans-30"/>
       <use x="190.869141" xlink:href="#DejaVuSans-30"/>
      </g>
     </g>
    </g>
    <g id="xtick_5">
     <g id="line2d_5">
      <g>
       <use style="fill:#d2d2d2;stroke:#d2d2d2;" x="244.207814" xlink:href="#m7f8ac8f52c" y="244.8"/>
      </g>
     </g>
     <g id="text_5">
      <!-- 8000 -->
      <defs>
       <path d="M 31.78125 34.625 
Q 24.75 34.625 20.71875 30.859375 
Q 16.703125 27.09375 16.703125 20.515625 
Q 16.703125 13.921875 20.71875 10.15625 
Q 24.75 6.390625 31.78125 6.390625 
Q 38.8125 6.390625 42.859375 10.171875 
Q 46.921875 13.96875 46.921875 20.515625 
Q 46.921875 27.09375 42.890625 30.859375 
Q 38.875 34.625 31.78125 34.625 
M 21.921875 38.8125 
Q 15.578125 40.375 12.03125 44.71875 
Q 8.5 49.078125 8.5 55.328125 
Q 8.5 64.0625 14.71875 69.140625 
Q 20.953125 74.21875 31.78125 74.21875 
Q 42.671875 74.21875 48.875 69.140625 
Q 55.078125 64.0625 55.078125 55.328125 
Q 55.078125 49.078125 51.53125 44.71875 
Q 48 40.375 41.703125 38.8125 
Q 48.828125 37.15625 52.796875 32.3125 
Q 56.78125 27.484375 56.78125 20.515625 
Q 56.78125 9.90625 50.3125 4.234375 
Q 43.84375 -1.421875 31.78125 -1.421875 
Q 19.734375 -1.421875 13.25 4.234375 
Q 6.78125 9.90625 6.78125 20.515625 
Q 6.78125 27.484375 10.78125 32.3125 
Q 14.796875 37.15625 21.921875 38.8125 
M 18.3125 54.390625 
Q 18.3125 48.734375 21.84375 45.5625 
Q 25.390625 42.390625 31.78125 42.390625 
Q 38.140625 42.390625 41.71875 45.5625 
Q 45.3125 48.734375 45.3125 54.390625 
Q 45.3125 60.0625 41.71875 63.234375 
Q 38.140625 66.40625 31.78125 66.40625 
Q 25.390625 66.40625 21.84375 63.234375 
Q 18.3125 60.0625 18.3125 54.390625 
" id="DejaVuSans-38"/>
      </defs>
      <g style="fill:#d2d2d2;" transform="translate(227.665314 262.677969)scale(0.13 -0.13)">
       <use xlink:href="#DejaVuSans-38"/>
       <use x="63.623047" xlink:href="#DejaVuSans-30"/>
       <use x="127.246094" xlink:href="#DejaVuSans-30"/>
       <use x="190.869141" xlink:href="#DejaVuSans-30"/>
      </g>
     </g>
    </g>
    <g id="xtick_6">
     <g id="line2d_6">
      <g>
       <use style="fill:#d2d2d2;stroke:#d2d2d2;" x="289.059768" xlink:href="#m7f8ac8f52c" y="244.8"/>
      </g>
     </g>
     <g id="text_6">
      <!-- 10000 -->
      <defs>
       <path d="M 12.40625 8.296875 
L 28.515625 8.296875 
L 28.515625 63.921875 
L 10.984375 60.40625 
L 10.984375 69.390625 
L 28.421875 72.90625 
L 38.28125 72.90625 
L 38.28125 8.296875 
L 54.390625 8.296875 
L 54.390625 0 
L 12.40625 0 
z
" id="DejaVuSans-31"/>
      </defs>
      <g style="fill:#d2d2d2;" transform="translate(268.381643 262.677969)scale(0.13 -0.13)">
       <use xlink:href="#DejaVuSans-31"/>
       <use x="63.623047" xlink:href="#DejaVuSans-30"/>
       <use x="127.246094" xlink:href="#DejaVuSans-30"/>
       <use x="190.869141" xlink:href="#DejaVuSans-30"/>
       <use x="254.492188" xlink:href="#DejaVuSans-30"/>
      </g>
     </g>
    </g>
    <g id="xtick_7">
     <g id="line2d_7">
      <g>
       <use style="fill:#d2d2d2;stroke:#d2d2d2;" x="333.911721" xlink:href="#m7f8ac8f52c" y="244.8"/>
      </g>
     </g>
     <g id="text_7">
      <!-- 12000 -->
      <g style="fill:#d2d2d2;" transform="translate(313.233596 262.677969)scale(0.13 -0.13)">
       <use xlink:href="#DejaVuSans-31"/>
       <use x="63.623047" xlink:href="#DejaVuSans-32"/>
       <use x="127.246094" xlink:href="#DejaVuSans-30"/>
       <use x="190.869141" xlink:href="#DejaVuSans-30"/>
       <use x="254.492188" xlink:href="#DejaVuSans-30"/>
      </g>
     </g>
    </g>
    <g id="xtick_8">
     <g id="line2d_8">
      <g>
       <use style="fill:#d2d2d2;stroke:#d2d2d2;" x="378.763675" xlink:href="#m7f8ac8f52c" y="244.8"/>
      </g>
     </g>
     <g id="text_8">
      <!-- 14000 -->
      <g style="fill:#d2d2d2;" transform="translate(358.08555 262.677969)scale(0.13 -0.13)">
       <use xlink:href="#DejaVuSans-31"/>
       <use x="63.623047" xlink:href="#DejaVuSans-34"/>
       <use x="127.246094" xlink:href="#DejaVuSans-30"/>
       <use x="190.869141" xlink:href="#DejaVuSans-30"/>
       <use x="254.492188" xlink:href="#DejaVuSans-30"/>
      </g>
     </g>
    </g>
    <g id="text_9">
     <!-- Size (sqft) -->
     <defs>
      <path d="M 53.515625 70.515625 
L 53.515625 60.890625 
Q 47.90625 63.578125 42.921875 64.890625 
Q 37.9375 66.21875 33.296875 66.21875 
Q 25.25 66.21875 20.875 63.09375 
Q 16.5 59.96875 16.5 54.203125 
Q 16.5 49.359375 19.40625 46.890625 
Q 22.3125 44.4375 30.421875 42.921875 
L 36.375 41.703125 
Q 47.40625 39.59375 52.65625 34.296875 
Q 57.90625 29 57.90625 20.125 
Q 57.90625 9.515625 50.796875 4.046875 
Q 43.703125 -1.421875 29.984375 -1.421875 
Q 24.8125 -1.421875 18.96875 -0.25 
Q 13.140625 0.921875 6.890625 3.21875 
L 6.890625 13.375 
Q 12.890625 10.015625 18.65625 8.296875 
Q 24.421875 6.59375 29.984375 6.59375 
Q 38.421875 6.59375 43.015625 9.90625 
Q 47.609375 13.234375 47.609375 19.390625 
Q 47.609375 24.75 44.3125 27.78125 
Q 41.015625 30.8125 33.5 32.328125 
L 27.484375 33.5 
Q 16.453125 35.6875 11.515625 40.375 
Q 6.59375 45.0625 6.59375 53.421875 
Q 6.59375 63.09375 13.40625 68.65625 
Q 20.21875 74.21875 32.171875 74.21875 
Q 37.3125 74.21875 42.625 73.28125 
Q 47.953125 72.359375 53.515625 70.515625 
" id="DejaVuSans-53"/>
      <path d="M 9.421875 54.6875 
L 18.40625 54.6875 
L 18.40625 0 
L 9.421875 0 
z
M 9.421875 75.984375 
L 18.40625 75.984375 
L 18.40625 64.59375 
L 9.421875 64.59375 
z
" id="DejaVuSans-69"/>
      <path d="M 5.515625 54.6875 
L 48.1875 54.6875 
L 48.1875 46.484375 
L 14.40625 7.171875 
L 48.1875 7.171875 
L 48.1875 0 
L 4.296875 0 
L 4.296875 8.203125 
L 38.09375 47.515625 
L 5.515625 47.515625 
z
" id="DejaVuSans-7a"/>
      <path d="M 56.203125 29.59375 
L 56.203125 25.203125 
L 14.890625 25.203125 
Q 15.484375 15.921875 20.484375 11.0625 
Q 25.484375 6.203125 34.421875 6.203125 
Q 39.59375 6.203125 44.453125 7.46875 
Q 49.3125 8.734375 54.109375 11.28125 
L 54.109375 2.78125 
Q 49.265625 0.734375 44.1875 -0.34375 
Q 39.109375 -1.421875 33.890625 -1.421875 
Q 20.796875 -1.421875 13.15625 6.1875 
Q 5.515625 13.8125 5.515625 26.8125 
Q 5.515625 40.234375 12.765625 48.109375 
Q 20.015625 56 32.328125 56 
Q 43.359375 56 49.78125 48.890625 
Q 56.203125 41.796875 56.203125 29.59375 
M 47.21875 32.234375 
Q 47.125 39.59375 43.09375 43.984375 
Q 39.0625 48.390625 32.421875 48.390625 
Q 24.90625 48.390625 20.390625 44.140625 
Q 15.875 39.890625 15.1875 32.171875 
z
" id="DejaVuSans-65"/>
      <path id="DejaVuSans-20"/>
      <path d="M 31 75.875 
Q 24.46875 64.65625 21.28125 53.65625 
Q 18.109375 42.671875 18.109375 31.390625 
Q 18.109375 20.125 21.3125 9.0625 
Q 24.515625 -2 31 -13.1875 
L 23.1875 -13.1875 
Q 15.875 -1.703125 12.234375 9.375 
Q 8.59375 20.453125 8.59375 31.390625 
Q 8.59375 42.28125 12.203125 53.3125 
Q 15.828125 64.359375 23.1875 75.875 
z
" id="DejaVuSans-28"/>
      <path d="M 44.28125 53.078125 
L 44.28125 44.578125 
Q 40.484375 46.53125 36.375 47.5 
Q 32.28125 48.484375 27.875 48.484375 
Q 21.1875 48.484375 17.84375 46.4375 
Q 14.5 44.390625 14.5 40.28125 
Q 14.5 37.15625 16.890625 35.375 
Q 19.28125 33.59375 26.515625 31.984375 
L 29.59375 31.296875 
Q 39.15625 29.25 43.1875 25.515625 
Q 47.21875 21.78125 47.21875 15.09375 
Q 47.21875 7.46875 41.1875 3.015625 
Q 35.15625 -1.421875 24.609375 -1.421875 
Q 20.21875 -1.421875 15.453125 -0.5625 
Q 10.6875 0.296875 5.421875 2 
L 5.421875 11.28125 
Q 10.40625 8.6875 15.234375 7.390625 
Q 20.0625 6.109375 24.8125 6.109375 
Q 31.15625 6.109375 34.5625 8.28125 
Q 37.984375 10.453125 37.984375 14.40625 
Q 37.984375 18.0625 35.515625 20.015625 
Q 33.0625 21.96875 24.703125 23.78125 
L 21.578125 24.515625 
Q 13.234375 26.265625 9.515625 29.90625 
Q 5.8125 33.546875 5.8125 39.890625 
Q 5.8125 47.609375 11.28125 51.796875 
Q 16.75 56 26.8125 56 
Q 31.78125 56 36.171875 55.265625 
Q 40.578125 54.546875 44.28125 53.078125 
" id="DejaVuSans-73"/>
      <path d="M 14.796875 27.296875 
Q 14.796875 17.390625 18.875 11.75 
Q 22.953125 6.109375 30.078125 6.109375 
Q 37.203125 6.109375 41.296875 11.75 
Q 45.40625 17.390625 45.40625 27.296875 
Q 45.40625 37.203125 41.296875 42.84375 
Q 37.203125 48.484375 30.078125 48.484375 
Q 22.953125 48.484375 18.875 42.84375 
Q 14.796875 37.203125 14.796875 27.296875 
M 45.40625 8.203125 
Q 42.578125 3.328125 38.25 0.953125 
Q 33.9375 -1.421875 27.875 -1.421875 
Q 17.96875 -1.421875 11.734375 6.484375 
Q 5.515625 14.40625 5.515625 27.296875 
Q 5.515625 40.1875 11.734375 48.09375 
Q 17.96875 56 27.875 56 
Q 33.9375 56 38.25 53.625 
Q 42.578125 51.265625 45.40625 46.390625 
L 45.40625 54.6875 
L 54.390625 54.6875 
L 54.390625 -20.796875 
L 45.40625 -20.796875 
z
" id="DejaVuSans-71"/>
      <path d="M 37.109375 75.984375 
L 37.109375 68.5 
L 28.515625 68.5 
Q 23.6875 68.5 21.796875 66.546875 
Q 19.921875 64.59375 19.921875 59.515625 
L 19.921875 54.6875 
L 34.71875 54.6875 
L 34.71875 47.703125 
L 19.921875 47.703125 
L 19.921875 0 
L 10.890625 0 
L 10.890625 47.703125 
L 2.296875 47.703125 
L 2.296875 54.6875 
L 10.890625 54.6875 
L 10.890625 58.5 
Q 10.890625 67.625 15.140625 71.796875 
Q 19.390625 75.984375 28.609375 75.984375 
z
" id="DejaVuSans-66"/>
      <path d="M 18.3125 70.21875 
L 18.3125 54.6875 
L 36.8125 54.6875 
L 36.8125 47.703125 
L 18.3125 47.703125 
L 18.3125 18.015625 
Q 18.3125 11.328125 20.140625 9.421875 
Q 21.96875 7.515625 27.59375 7.515625 
L 36.8125 7.515625 
L 36.8125 0 
L 27.59375 0 
Q 17.1875 0 13.234375 3.875 
Q 9.28125 7.765625 9.28125 18.015625 
L 9.28125 47.703125 
L 2.6875 47.703125 
L 2.6875 54.6875 
L 9.28125 54.6875 
L 9.28125 70.21875 
z
" id="DejaVuSans-74"/>
      <path d="M 8.015625 75.875 
L 15.828125 75.875 
Q 23.140625 64.359375 26.78125 53.3125 
Q 30.421875 42.28125 30.421875 31.390625 
Q 30.421875 20.453125 26.78125 9.375 
Q 23.140625 -1.703125 15.828125 -13.1875 
L 8.015625 -13.1875 
Q 14.5 -2 17.703125 9.0625 
Q 20.90625 20.125 20.90625 31.390625 
Q 20.90625 42.671875 17.703125 53.65625 
Q 14.5 64.65625 8.015625 75.875 
" id="DejaVuSans-29"/>
     </defs>
     <g style="fill:#d2d2d2;" transform="translate(197.195 281.539062)scale(0.16 -0.16)">
      <use xlink:href="#DejaVuSans-53"/>
      <use x="63.476562" xlink:href="#DejaVuSans-69"/>
      <use x="91.259766" xlink:href="#DejaVuSans-7a"/>
      <use x="143.75" xlink:href="#DejaVuSans-65"/>
      <use x="205.273438" xlink:href="#DejaVuSans-20"/>
      <use x="237.060547" xlink:href="#DejaVuSans-28"/>
      <use x="276.074219" xlink:href="#DejaVuSans-73"/>
      <use x="328.173828" xlink:href="#DejaVuSans-71"/>
      <use x="391.650391" xlink:href="#DejaVuSans-66"/>
      <use x="426.839844" xlink:href="#DejaVuSans-74"/>
      <use x="466.048828" xlink:href="#DejaVuSans-29"/>
     </g>
    </g>
   </g>
   <g id="matplotlib.axis_2">
    <g id="ytick_1">
     <g id="line2d_9">
      <defs>
       <path d="M 0 0 
L -4 0 
" id="m8ba6680994" style="stroke:#d2d2d2;"/>
      </defs>
      <g>
       <use style="fill:#d2d2d2;stroke:#d2d2d2;" x="64.8" xlink:href="#m8ba6680994" y="244.8"/>
      </g>
     </g>
     <g id="text_10">
      <!-- 0 -->
      <g style="fill:#d2d2d2;" transform="translate(48.52875 249.738984)scale(0.13 -0.13)">
       <use xlink:href="#DejaVuSans-30"/>
      </g>
     </g>
    </g>
    <g id="ytick_2">
     <g id="line2d_10">
      <g>
       <use style="fill:#d2d2d2;stroke:#d2d2d2;" x="64.8" xlink:href="#m8ba6680994" y="228.342857"/>
      </g>
     </g>
     <g id="text_11">
      <!-- 1 -->
      <g style="fill:#d2d2d2;" transform="translate(48.52875 233.281842)scale(0.13 -0.13)">
       <use xlink:href="#DejaVuSans-31"/>
      </g>
     </g>
    </g>
    <g id="ytick_3">
     <g id="line2d_11">
      <g>
       <use style="fill:#d2d2d2;stroke:#d2d2d2;" x="64.8" xlink:href="#m8ba6680994" y="211.885714"/>
      </g>
     </g>
     <g id="text_12">
      <!-- 2 -->
      <g style="fill:#d2d2d2;" transform="translate(48.52875 216.824699)scale(0.13 -0.13)">
       <use xlink:href="#DejaVuSans-32"/>
      </g>
     </g>
    </g>
    <g id="ytick_4">
     <g id="line2d_12">
      <g>
       <use style="fill:#d2d2d2;stroke:#d2d2d2;" x="64.8" xlink:href="#m8ba6680994" y="195.428571"/>
      </g>
     </g>
     <g id="text_13">
      <!-- 3 -->
      <defs>
       <path d="M 40.578125 39.3125 
Q 47.65625 37.796875 51.625 33 
Q 55.609375 28.21875 55.609375 21.1875 
Q 55.609375 10.40625 48.1875 4.484375 
Q 40.765625 -1.421875 27.09375 -1.421875 
Q 22.515625 -1.421875 17.65625 -0.515625 
Q 12.796875 0.390625 7.625 2.203125 
L 7.625 11.71875 
Q 11.71875 9.328125 16.59375 8.109375 
Q 21.484375 6.890625 26.8125 6.890625 
Q 36.078125 6.890625 40.9375 10.546875 
Q 45.796875 14.203125 45.796875 21.1875 
Q 45.796875 27.640625 41.28125 31.265625 
Q 36.765625 34.90625 28.71875 34.90625 
L 20.21875 34.90625 
L 20.21875 43.015625 
L 29.109375 43.015625 
Q 36.375 43.015625 40.234375 45.921875 
Q 44.09375 48.828125 44.09375 54.296875 
Q 44.09375 59.90625 40.109375 62.90625 
Q 36.140625 65.921875 28.71875 65.921875 
Q 24.65625 65.921875 20.015625 65.03125 
Q 15.375 64.15625 9.8125 62.3125 
L 9.8125 71.09375 
Q 15.4375 72.65625 20.34375 73.4375 
Q 25.25 74.21875 29.59375 74.21875 
Q 40.828125 74.21875 47.359375 69.109375 
Q 53.90625 64.015625 53.90625 55.328125 
Q 53.90625 49.265625 50.4375 45.09375 
Q 46.96875 40.921875 40.578125 39.3125 
" id="DejaVuSans-33"/>
      </defs>
      <g style="fill:#d2d2d2;" transform="translate(48.52875 200.367556)scale(0.13 -0.13)">
       <use xlink:href="#DejaVuSans-33"/>
      </g>
     </g>
    </g>
    <g id="ytick_5">
     <g id="line2d_13">
      <g>
       <use style="fill:#d2d2d2;stroke:#d2d2d2;" x="64.8" xlink:href="#m8ba6680994" y="178.971429"/>
      </g>
     </g>
     <g id="text_14">
      <!-- 4 -->
      <g style="fill:#d2d2d2;" transform="translate(48.52875 183.910413)scale(0.13 -0.13)">
       <use xlink:href="#DejaVuSans-34"/>
      </g>
     </g>
    </g>
    <g id="ytick_6">
     <g id="line2d_14">
      <g>
       <use style="fill:#d2d2d2;stroke:#d2d2d2;" x="64.8" xlink:href="#m8ba6680994" y="162.514286"/>
      </g>
     </g>
     <g id="text_15">
      <!-- 5 -->
      <defs>
       <path d="M 10.796875 72.90625 
L 49.515625 72.90625 
L 49.515625 64.59375 
L 19.828125 64.59375 
L 19.828125 46.734375 
Q 21.96875 47.46875 24.109375 47.828125 
Q 26.265625 48.1875 28.421875 48.1875 
Q 40.625 48.1875 47.75 41.5 
Q 54.890625 34.8125 54.890625 23.390625 
Q 54.890625 11.625 47.5625 5.09375 
Q 40.234375 -1.421875 26.90625 -1.421875 
Q 22.3125 -1.421875 17.546875 -0.640625 
Q 12.796875 0.140625 7.71875 1.703125 
L 7.71875 11.625 
Q 12.109375 9.234375 16.796875 8.0625 
Q 21.484375 6.890625 26.703125 6.890625 
Q 35.15625 6.890625 40.078125 11.328125 
Q 45.015625 15.765625 45.015625 23.390625 
Q 45.015625 31 40.078125 35.4375 
Q 35.15625 39.890625 26.703125 39.890625 
Q 22.75 39.890625 18.8125 39.015625 
Q 14.890625 38.140625 10.796875 36.28125 
z
" id="DejaVuSans-35"/>
      </defs>
      <g style="fill:#d2d2d2;" transform="translate(48.52875 167.45327)scale(0.13 -0.13)">
       <use xlink:href="#DejaVuSans-35"/>
      </g>
     </g>
    </g>
    <g id="ytick_7">
     <g id="line2d_15">
      <g>
       <use style="fill:#d2d2d2;stroke:#d2d2d2;" x="64.8" xlink:href="#m8ba6680994" y="146.057143"/>
      </g>
     </g>
     <g id="text_16">
      <!-- 6 -->
      <g style="fill:#d2d2d2;" transform="translate(48.52875 150.996127)scale(0.13 -0.13)">
       <use xlink:href="#DejaVuSans-36"/>
      </g>
     </g>
    </g>
    <g id="ytick_8">
     <g id="line2d_16">
      <g>
       <use style="fill:#d2d2d2;stroke:#d2d2d2;" x="64.8" xlink:href="#m8ba6680994" y="129.6"/>
      </g>
     </g>
     <g id="text_17">
      <!-- 7 -->
      <defs>
       <path d="M 8.203125 72.90625 
L 55.078125 72.90625 
L 55.078125 68.703125 
L 28.609375 0 
L 18.3125 0 
L 43.21875 64.59375 
L 8.203125 64.59375 
z
" id="DejaVuSans-37"/>
      </defs>
      <g style="fill:#d2d2d2;" transform="translate(48.52875 134.538984)scale(0.13 -0.13)">
       <use xlink:href="#DejaVuSans-37"/>
      </g>
     </g>
    </g>
    <g id="ytick_9">
     <g id="line2d_17">
      <g>
       <use style="fill:#d2d2d2;stroke:#d2d2d2;" x="64.8" xlink:href="#m8ba6680994" y="113.142857"/>
      </g>
     </g>
     <g id="text_18">
      <!-- 8 -->
      <g style="fill:#d2d2d2;" transform="translate(48.52875 118.081842)scale(0.13 -0.13)">
       <use xlink:href="#DejaVuSans-38"/>
      </g>
     </g>
    </g>
    <g id="ytick_10">
     <g id="line2d_18">
      <g>
       <use style="fill:#d2d2d2;stroke:#d2d2d2;" x="64.8" xlink:href="#m8ba6680994" y="96.685714"/>
      </g>
     </g>
     <g id="text_19">
      <!-- 9 -->
      <defs>
       <path d="M 10.984375 1.515625 
L 10.984375 10.5 
Q 14.703125 8.734375 18.5 7.8125 
Q 22.3125 6.890625 25.984375 6.890625 
Q 35.75 6.890625 40.890625 13.453125 
Q 46.046875 20.015625 46.78125 33.40625 
Q 43.953125 29.203125 39.59375 26.953125 
Q 35.25 24.703125 29.984375 24.703125 
Q 19.046875 24.703125 12.671875 31.3125 
Q 6.296875 37.9375 6.296875 49.421875 
Q 6.296875 60.640625 12.9375 67.421875 
Q 19.578125 74.21875 30.609375 74.21875 
Q 43.265625 74.21875 49.921875 64.515625 
Q 56.59375 54.828125 56.59375 36.375 
Q 56.59375 19.140625 48.40625 8.859375 
Q 40.234375 -1.421875 26.421875 -1.421875 
Q 22.703125 -1.421875 18.890625 -0.6875 
Q 15.09375 0.046875 10.984375 1.515625 
M 30.609375 32.421875 
Q 37.25 32.421875 41.125 36.953125 
Q 45.015625 41.5 45.015625 49.421875 
Q 45.015625 57.28125 41.125 61.84375 
Q 37.25 66.40625 30.609375 66.40625 
Q 23.96875 66.40625 20.09375 61.84375 
Q 16.21875 57.28125 16.21875 49.421875 
Q 16.21875 41.5 20.09375 36.953125 
Q 23.96875 32.421875 30.609375 32.421875 
" id="DejaVuSans-39"/>
      </defs>
      <g style="fill:#d2d2d2;" transform="translate(48.52875 101.624699)scale(0.13 -0.13)">
       <use xlink:href="#DejaVuSans-39"/>
      </g>
     </g>
    </g>
    <g id="ytick_11">
     <g id="line2d_19">
      <g>
       <use style="fill:#d2d2d2;stroke:#d2d2d2;" x="64.8" xlink:href="#m8ba6680994" y="80.228571"/>
      </g>
     </g>
     <g id="text_20">
      <!-- 10 -->
      <g style="fill:#d2d2d2;" transform="translate(40.2575 85.167556)scale(0.13 -0.13)">
       <use xlink:href="#DejaVuSans-31"/>
       <use x="63.623047" xlink:href="#DejaVuSans-30"/>
      </g>
     </g>
    </g>
    <g id="ytick_12">
     <g id="line2d_20">
      <g>
       <use style="fill:#d2d2d2;stroke:#d2d2d2;" x="64.8" xlink:href="#m8ba6680994" y="63.771429"/>
      </g>
     </g>
     <g id="text_21">
      <!-- 11 -->
      <g style="fill:#d2d2d2;" transform="translate(40.2575 68.710413)scale(0.13 -0.13)">
       <use xlink:href="#DejaVuSans-31"/>
       <use x="63.623047" xlink:href="#DejaVuSans-31"/>
      </g>
     </g>
    </g>
    <g id="ytick_13">
     <g id="line2d_21">
      <g>
       <use style="fill:#d2d2d2;stroke:#d2d2d2;" x="64.8" xlink:href="#m8ba6680994" y="47.314286"/>
      </g>
     </g>
     <g id="text_22">
      <!-- 12 -->
      <g style="fill:#d2d2d2;" transform="translate(40.2575 52.25327)scale(0.13 -0.13)">
       <use xlink:href="#DejaVuSans-31"/>
       <use x="63.623047" xlink:href="#DejaVuSans-32"/>
      </g>
     </g>
    </g>
    <g id="ytick_14">
     <g id="line2d_22">
      <g>
       <use style="fill:#d2d2d2;stroke:#d2d2d2;" x="64.8" xlink:href="#m8ba6680994" y="30.857143"/>
      </g>
     </g>
     <g id="text_23">
      <!-- 13 -->
      <g style="fill:#d2d2d2;" transform="translate(40.2575 35.796127)scale(0.13 -0.13)">
       <use xlink:href="#DejaVuSans-31"/>
       <use x="63.623047" xlink:href="#DejaVuSans-33"/>
      </g>
     </g>
    </g>
    <g id="ytick_15">
     <g id="line2d_23">
      <g>
       <use style="fill:#d2d2d2;stroke:#d2d2d2;" x="64.8" xlink:href="#m8ba6680994" y="14.4"/>
      </g>
     </g>
     <g id="text_24">
      <!-- 14 -->
      <g style="fill:#d2d2d2;" transform="translate(40.2575 19.338984)scale(0.13 -0.13)">
       <use xlink:href="#DejaVuSans-31"/>
       <use x="63.623047" xlink:href="#DejaVuSans-34"/>
      </g>
     </g>
    </g>
    <g id="text_25">
     <!-- Price ($M) -->
     <defs>
      <path d="M 19.671875 64.796875 
L 19.671875 37.40625 
L 32.078125 37.40625 
Q 38.96875 37.40625 42.71875 40.96875 
Q 46.484375 44.53125 46.484375 51.125 
Q 46.484375 57.671875 42.71875 61.234375 
Q 38.96875 64.796875 32.078125 64.796875 
z
M 9.8125 72.90625 
L 32.078125 72.90625 
Q 44.34375 72.90625 50.609375 67.359375 
Q 56.890625 61.8125 56.890625 51.125 
Q 56.890625 40.328125 50.609375 34.8125 
Q 44.34375 29.296875 32.078125 29.296875 
L 19.671875 29.296875 
L 19.671875 0 
L 9.8125 0 
z
" id="DejaVuSans-50"/>
      <path d="M 41.109375 46.296875 
Q 39.59375 47.171875 37.8125 47.578125 
Q 36.03125 48 33.890625 48 
Q 26.265625 48 22.1875 43.046875 
Q 18.109375 38.09375 18.109375 28.8125 
L 18.109375 0 
L 9.078125 0 
L 9.078125 54.6875 
L 18.109375 54.6875 
L 18.109375 46.1875 
Q 20.953125 51.171875 25.484375 53.578125 
Q 30.03125 56 36.53125 56 
Q 37.453125 56 38.578125 55.875 
Q 39.703125 55.765625 41.0625 55.515625 
z
" id="DejaVuSans-72"/>
      <path d="M 48.78125 52.59375 
L 48.78125 44.1875 
Q 44.96875 46.296875 41.140625 47.34375 
Q 37.3125 48.390625 33.40625 48.390625 
Q 24.65625 48.390625 19.8125 42.84375 
Q 14.984375 37.3125 14.984375 27.296875 
Q 14.984375 17.28125 19.8125 11.734375 
Q 24.65625 6.203125 33.40625 6.203125 
Q 37.3125 6.203125 41.140625 7.25 
Q 44.96875 8.296875 48.78125 10.40625 
L 48.78125 2.09375 
Q 45.015625 0.34375 40.984375 -0.53125 
Q 36.96875 -1.421875 32.421875 -1.421875 
Q 20.0625 -1.421875 12.78125 6.34375 
Q 5.515625 14.109375 5.515625 27.296875 
Q 5.515625 40.671875 12.859375 48.328125 
Q 20.21875 56 33.015625 56 
Q 37.15625 56 41.109375 55.140625 
Q 45.0625 54.296875 48.78125 52.59375 
" id="DejaVuSans-63"/>
      <path d="M 33.796875 -14.703125 
L 28.90625 -14.703125 
L 28.859375 0 
Q 23.734375 0.09375 18.609375 1.1875 
Q 13.484375 2.296875 8.296875 4.5 
L 8.296875 13.28125 
Q 13.28125 10.15625 18.375 8.5625 
Q 23.484375 6.984375 28.90625 6.9375 
L 28.90625 29.203125 
Q 18.109375 30.953125 13.203125 35.15625 
Q 8.296875 39.359375 8.296875 46.6875 
Q 8.296875 54.640625 13.625 59.21875 
Q 18.953125 63.8125 28.90625 64.5 
L 28.90625 75.984375 
L 33.796875 75.984375 
L 33.796875 64.65625 
Q 38.328125 64.453125 42.578125 63.6875 
Q 46.828125 62.9375 50.875 61.625 
L 50.875 53.078125 
Q 46.828125 55.125 42.546875 56.25 
Q 38.28125 57.375 33.796875 57.5625 
L 33.796875 36.71875 
Q 44.875 35.015625 50.09375 30.609375 
Q 55.328125 26.21875 55.328125 18.609375 
Q 55.328125 10.359375 49.78125 5.59375 
Q 44.234375 0.828125 33.796875 0.09375 
z
M 28.90625 37.59375 
L 28.90625 57.625 
Q 23.25 56.984375 20.265625 54.390625 
Q 17.28125 51.8125 17.28125 47.515625 
Q 17.28125 43.3125 20.03125 40.96875 
Q 22.796875 38.625 28.90625 37.59375 
M 33.796875 28.21875 
L 33.796875 7.078125 
Q 39.984375 7.90625 43.140625 10.59375 
Q 46.296875 13.28125 46.296875 17.671875 
Q 46.296875 21.96875 43.28125 24.5 
Q 40.28125 27.046875 33.796875 28.21875 
" id="DejaVuSans-24"/>
      <path d="M 9.8125 72.90625 
L 24.515625 72.90625 
L 43.109375 23.296875 
L 61.8125 72.90625 
L 76.515625 72.90625 
L 76.515625 0 
L 66.890625 0 
L 66.890625 64.015625 
L 48.09375 14.015625 
L 38.1875 14.015625 
L 19.390625 64.015625 
L 19.390625 0 
L 9.8125 0 
z
" id="DejaVuSans-4d"/>
     </defs>
     <g style="fill:#d2d2d2;" transform="translate(32.93 170.0325)rotate(-90)scale(0.16 -0.16)">
      <use xlink:href="#DejaVuSans-50"/>
      <use x="60.287109" xlink:href="#DejaVuSans-72"/>
      <use x="101.400391" xlink:href="#DejaVuSans-69"/>
      <use x="129.183594" xlink:href="#DejaVuSans-63"/>
      <use x="184.164062" xlink:href="#DejaVuSans-65"/>
      <use x="245.6875" xlink:href="#DejaVuSans-20"/>
      <use x="277.474609" xlink:href="#DejaVuSans-28"/>
      <use x="316.488281" xlink:href="#DejaVuSans-24"/>
      <use x="380.111328" xlink:href="#DejaVuSans-4d"/>
      <use x="466.390625" xlink:href="#DejaVuSans-29"/>
     </g>
    </g>
   </g>
   <g id="line2d_24">
    <defs>
     <path d="M 0 3 
C 0.795609 3 1.55874 2.683901 2.12132 2.12132 
C 2.683901 1.55874 3 0.795609 3 0 
C 3 -0.795609 2.683901 -1.55874 2.12132 -2.12132 
C 1.55874 -2.683901 0.795609 -3 0 -3 
C -0.795609 -3 -1.55874 -2.683901 -2.12132 -2.12132 
C -2.683901 -1.55874 -3 -0.795609 -3 0 
C -3 0.795609 -2.683901 1.55874 -2.12132 2.12132 
C -1.55874 2.683901 -0.795609 3 0 3 
z
" id="m9f2c8d90ec" style="stroke:#5bc0de;"/>
    </defs>
    <g clip-path="url(#pf5ba5c8f34)">
     <use style="fill:none;stroke:#5bc0de;" x="96.757017" xlink:href="#m9f2c8d90ec" y="226.7136"/>
     <use style="fill:none;stroke:#5bc0de;" x="100.457303" xlink:href="#m9f2c8d90ec" y="195.445029"/>
     <use style="fill:none;stroke:#5bc0de;" x="86.777457" xlink:href="#m9f2c8d90ec" y="233.609143"/>
     <use style="fill:none;stroke:#5bc0de;" x="77.313695" xlink:href="#m9f2c8d90ec" y="235.765029"/>
     <use style="fill:none;stroke:#5bc0de;" x="152.283735" xlink:href="#m9f2c8d90ec" y="208.182857"/>
     <use style="fill:none;stroke:#5bc0de;" x="105.234036" xlink:href="#m9f2c8d90ec" y="223.422171"/>
     <use style="fill:none;stroke:#5bc0de;" x="394.417006" xlink:href="#m9f2c8d90ec" y="91.748571"/>
     <use style="fill:none;stroke:#5bc0de;" x="120.035181" xlink:href="#m9f2c8d90ec" y="198.802286"/>
     <use style="fill:none;stroke:#5bc0de;" x="210.568849" xlink:href="#m9f2c8d90ec" y="39.168"/>
     <use style="fill:none;stroke:#5bc0de;" x="86.755031" xlink:href="#m9f2c8d90ec" y="229.577143"/>
     <use style="fill:none;stroke:#5bc0de;" x="78.0089" xlink:href="#m9f2c8d90ec" y="234.283886"/>
     <use style="fill:none;stroke:#5bc0de;" x="116.940396" xlink:href="#m9f2c8d90ec" y="137.910857"/>
     <use style="fill:none;stroke:#5bc0de;" x="133.490767" xlink:href="#m9f2c8d90ec" y="183.990857"/>
     <use style="fill:none;stroke:#5bc0de;" x="100.703989" xlink:href="#m9f2c8d90ec" y="224.245029"/>
     <use style="fill:none;stroke:#5bc0de;" x="106.018945" xlink:href="#m9f2c8d90ec" y="212.395886"/>
     <use style="fill:none;stroke:#5bc0de;" x="92.00271" xlink:href="#m9f2c8d90ec" y="225.462857"/>
     <use style="fill:none;stroke:#5bc0de;" x="136.114606" xlink:href="#m9f2c8d90ec" y="216.411429"/>
     <use style="fill:none;stroke:#5bc0de;" x="95.837552" xlink:href="#m9f2c8d90ec" y="225.051429"/>
     <use style="fill:none;stroke:#5bc0de;" x="99.829376" xlink:href="#m9f2c8d90ec" y="190.491429"/>
     <use style="fill:none;stroke:#5bc0de;" x="134.320528" xlink:href="#m9f2c8d90ec" y="182.345143"/>
     <use style="fill:none;stroke:#5bc0de;" x="165.716895" xlink:href="#m9f2c8d90ec" y="181.44"/>
     <use style="fill:none;stroke:#5bc0de;" x="99.089318" xlink:href="#m9f2c8d90ec" y="221.776457"/>
     <use style="fill:none;stroke:#5bc0de;" x="90.253484" xlink:href="#m9f2c8d90ec" y="229.099886"/>
     <use style="fill:none;stroke:#5bc0de;" x="93.168861" xlink:href="#m9f2c8d90ec" y="230.005029"/>
     <use style="fill:none;stroke:#5bc0de;" x="109.651954" xlink:href="#m9f2c8d90ec" y="191.0016"/>
     <use style="fill:none;stroke:#5bc0de;" x="91.913006" xlink:href="#m9f2c8d90ec" y="230.186057"/>
     <use style="fill:none;stroke:#5bc0de;" x="79.085347" xlink:href="#m9f2c8d90ec" y="235.9296"/>
     <use style="fill:none;stroke:#5bc0de;" x="88.43698" xlink:href="#m9f2c8d90ec" y="214.354286"/>
     <use style="fill:none;stroke:#5bc0de;" x="105.166758" xlink:href="#m9f2c8d90ec" y="184.731429"/>
     <use style="fill:none;stroke:#5bc0de;" x="98.259557" xlink:href="#m9f2c8d90ec" y="216"/>
     <use style="fill:none;stroke:#5bc0de;" x="78.928365" xlink:href="#m9f2c8d90ec" y="237.098057"/>
     <use style="fill:none;stroke:#5bc0de;" x="100.883397" xlink:href="#m9f2c8d90ec" y="198.736457"/>
     <use style="fill:none;stroke:#5bc0de;" x="132.63858" xlink:href="#m9f2c8d90ec" y="179.053714"/>
     <use style="fill:none;stroke:#5bc0de;" x="205.500578" xlink:href="#m9f2c8d90ec" y="139.556571"/>
     <use style="fill:none;stroke:#5bc0de;" x="82.965041" xlink:href="#m9f2c8d90ec" y="232.4736"/>
     <use style="fill:none;stroke:#5bc0de;" x="87.091421" xlink:href="#m9f2c8d90ec" y="231.979886"/>
     <use style="fill:none;stroke:#5bc0de;" x="316.217625" xlink:href="#m9f2c8d90ec" y="94.628571"/>
     <use style="fill:none;stroke:#5bc0de;" x="174.687286" xlink:href="#m9f2c8d90ec" y="137.828571"/>
     <use style="fill:none;stroke:#5bc0de;" x="174.687286" xlink:href="#m9f2c8d90ec" y="137.828571"/>
     <use style="fill:none;stroke:#5bc0de;" x="101.130082" xlink:href="#m9f2c8d90ec" y="208.676571"/>
     <use style="fill:none;stroke:#5bc0de;" x="101.331916" xlink:href="#m9f2c8d90ec" y="221.842286"/>
     <use style="fill:none;stroke:#5bc0de;" x="134.970881" xlink:href="#m9f2c8d90ec" y="188.862171"/>
     <use style="fill:none;stroke:#5bc0de;" x="272.957916" xlink:href="#m9f2c8d90ec" y="174.857143"/>
     <use style="fill:none;stroke:#5bc0de;" x="87.225977" xlink:href="#m9f2c8d90ec" y="213.547886"/>
     <use style="fill:none;stroke:#5bc0de;" x="106.624447" xlink:href="#m9f2c8d90ec" y="191.314286"/>
     <use style="fill:none;stroke:#5bc0de;" x="102.027121" xlink:href="#m9f2c8d90ec" y="211.926857"/>
     <use style="fill:none;stroke:#5bc0de;" x="163.653706" xlink:href="#m9f2c8d90ec" y="207.771429"/>
     <use style="fill:none;stroke:#5bc0de;" x="97.093407" xlink:href="#m9f2c8d90ec" y="215.259429"/>
     <use style="fill:none;stroke:#5bc0de;" x="160.446791" xlink:href="#m9f2c8d90ec" y="150.043886"/>
     <use style="fill:none;stroke:#5bc0de;" x="141.295007" xlink:href="#m9f2c8d90ec" y="174.857143"/>
     <use style="fill:none;stroke:#5bc0de;" x="303.389967" xlink:href="#m9f2c8d90ec" y="139.474286"/>
     <use style="fill:none;stroke:#5bc0de;" x="149.570192" xlink:href="#m9f2c8d90ec" y="175.844571"/>
     <use style="fill:none;stroke:#5bc0de;" x="173.700543" xlink:href="#m9f2c8d90ec" y="187.2"/>
     <use style="fill:none;stroke:#5bc0de;" x="160.132827" xlink:href="#m9f2c8d90ec" y="162.596571"/>
     <use style="fill:none;stroke:#5bc0de;" x="78.905939" xlink:href="#m9f2c8d90ec" y="238.185874"/>
     <use style="fill:none;stroke:#5bc0de;" x="74.757134" xlink:href="#m9f2c8d90ec" y="235.600457"/>
     <use style="fill:none;stroke:#5bc0de;" x="84.624563" xlink:href="#m9f2c8d90ec" y="234.366171"/>
     <use style="fill:none;stroke:#5bc0de;" x="87.091421" xlink:href="#m9f2c8d90ec" y="232.144457"/>
     <use style="fill:none;stroke:#5bc0de;" x="110.010769" xlink:href="#m9f2c8d90ec" y="216.164571"/>
     <use style="fill:none;stroke:#5bc0de;" x="121.313461" xlink:href="#m9f2c8d90ec" y="204.150857"/>
     <use style="fill:none;stroke:#5bc0de;" x="117.433767" xlink:href="#m9f2c8d90ec" y="224.722286"/>
     <use style="fill:none;stroke:#5bc0de;" x="79.219903" xlink:href="#m9f2c8d90ec" y="237.394286"/>
     <use style="fill:none;stroke:#5bc0de;" x="107.521486" xlink:href="#m9f2c8d90ec" y="213.533074"/>
     <use style="fill:none;stroke:#5bc0de;" x="107.521486" xlink:href="#m9f2c8d90ec" y="222.912"/>
     <use style="fill:none;stroke:#5bc0de;" x="182.760638" xlink:href="#m9f2c8d90ec" y="182.921143"/>
     <use style="fill:none;stroke:#5bc0de;" x="136.495848" xlink:href="#m9f2c8d90ec" y="146.139429"/>
     <use style="fill:none;stroke:#5bc0de;" x="162.891222" xlink:href="#m9f2c8d90ec" y="164.982857"/>
     <use style="fill:none;stroke:#5bc0de;" x="109.876213" xlink:href="#m9f2c8d90ec" y="216.164571"/>
     <use style="fill:none;stroke:#5bc0de;" x="227.769573" xlink:href="#m9f2c8d90ec" y="96.768"/>
     <use style="fill:none;stroke:#5bc0de;" x="104.650961" xlink:href="#m9f2c8d90ec" y="228.375771"/>
     <use style="fill:none;stroke:#5bc0de;" x="234.81133" xlink:href="#m9f2c8d90ec" y="116.516571"/>
     <use style="fill:none;stroke:#5bc0de;" x="103.753922" xlink:href="#m9f2c8d90ec" y="165.805714"/>
     <use style="fill:none;stroke:#5bc0de;" x="147.708836" xlink:href="#m9f2c8d90ec" y="63.771429"/>
     <use style="fill:none;stroke:#5bc0de;" x="79.937534" xlink:href="#m9f2c8d90ec" y="225.051429"/>
     <use style="fill:none;stroke:#5bc0de;" x="99.739672" xlink:href="#m9f2c8d90ec" y="207.771429"/>
     <use style="fill:none;stroke:#5bc0de;" x="98.663225" xlink:href="#m9f2c8d90ec" y="226.7136"/>
     <use style="fill:none;stroke:#5bc0de;" x="86.755031" xlink:href="#m9f2c8d90ec" y="231.634302"/>
     <use style="fill:none;stroke:#5bc0de;" x="88.840647" xlink:href="#m9f2c8d90ec" y="218.88"/>
     <use style="fill:none;stroke:#5bc0de;" x="115.168744" xlink:href="#m9f2c8d90ec" y="202.027886"/>
     <use style="fill:none;stroke:#5bc0de;" x="100.345173" xlink:href="#m9f2c8d90ec" y="201.188571"/>
     <use style="fill:none;stroke:#5bc0de;" x="120.864942" xlink:href="#m9f2c8d90ec" y="169.1136"/>
     <use style="fill:none;stroke:#5bc0de;" x="98.708077" xlink:href="#m9f2c8d90ec" y="222.582857"/>
     <use style="fill:none;stroke:#5bc0de;" x="125.103451" xlink:href="#m9f2c8d90ec" y="196.251429"/>
     <use style="fill:none;stroke:#5bc0de;" x="96.869147" xlink:href="#m9f2c8d90ec" y="209.417143"/>
     <use style="fill:none;stroke:#5bc0de;" x="106.848706" xlink:href="#m9f2c8d90ec" y="206.948571"/>
     <use style="fill:none;stroke:#5bc0de;" x="137.460165" xlink:href="#m9f2c8d90ec" y="210.24"/>
     <use style="fill:none;stroke:#5bc0de;" x="91.217801" xlink:href="#m9f2c8d90ec" y="227.108571"/>
     <use style="fill:none;stroke:#5bc0de;" x="106.915984" xlink:href="#m9f2c8d90ec" y="204.48"/>
     <use style="fill:none;stroke:#5bc0de;" x="330.68238" xlink:href="#m9f2c8d90ec" y="170.825143"/>
     <use style="fill:none;stroke:#5bc0de;" x="85.117935" xlink:href="#m9f2c8d90ec" y="216"/>
     <use style="fill:none;stroke:#5bc0de;" x="99.91908" xlink:href="#m9f2c8d90ec" y="169.179429"/>
     <use style="fill:none;stroke:#5bc0de;" x="85.117935" xlink:href="#m9f2c8d90ec" y="213.613714"/>
     <use style="fill:none;stroke:#5bc0de;" x="79.915108" xlink:href="#m9f2c8d90ec" y="225.051429"/>
     <use style="fill:none;stroke:#5bc0de;" x="107.857875" xlink:href="#m9f2c8d90ec" y="201.188571"/>
     <use style="fill:none;stroke:#5bc0de;" x="85.117935" xlink:href="#m9f2c8d90ec" y="214.354286"/>
     <use style="fill:none;stroke:#5bc0de;" x="96.510331" xlink:href="#m9f2c8d90ec" y="228.375771"/>
     <use style="fill:none;stroke:#5bc0de;" x="102.341085" xlink:href="#m9f2c8d90ec" y="223.488"/>
     <use style="fill:none;stroke:#5bc0de;" x="77.650085" xlink:href="#m9f2c8d90ec" y="237.147429"/>
     <use style="fill:none;stroke:#5bc0de;" x="102.161677" xlink:href="#m9f2c8d90ec" y="218.485029"/>
     <use style="fill:none;stroke:#5bc0de;" x="93.39312" xlink:href="#m9f2c8d90ec" y="224.228571"/>
     <use style="fill:none;stroke:#5bc0de;" x="232.613584" xlink:href="#m9f2c8d90ec" y="195.428571"/>
     <use style="fill:none;stroke:#5bc0de;" x="218.619775" xlink:href="#m9f2c8d90ec" y="154.614857"/>
     <use style="fill:none;stroke:#5bc0de;" x="105.166758" xlink:href="#m9f2c8d90ec" y="219.307886"/>
     <use style="fill:none;stroke:#5bc0de;" x="99.649968" xlink:href="#m9f2c8d90ec" y="202.011429"/>
     <use style="fill:none;stroke:#5bc0de;" x="85.117935" xlink:href="#m9f2c8d90ec" y="217.645714"/>
     <use style="fill:none;stroke:#5bc0de;" x="128.758886" xlink:href="#m9f2c8d90ec" y="199.131429"/>
     <use style="fill:none;stroke:#5bc0de;" x="100.771267" xlink:href="#m9f2c8d90ec" y="227.371886"/>
     <use style="fill:none;stroke:#5bc0de;" x="238.578894" xlink:href="#m9f2c8d90ec" y="215.424"/>
     <use style="fill:none;stroke:#5bc0de;" x="99.649968" xlink:href="#m9f2c8d90ec" y="196.251429"/>
     <use style="fill:none;stroke:#5bc0de;" x="99.829376" xlink:href="#m9f2c8d90ec" y="182.262857"/>
     <use style="fill:none;stroke:#5bc0de;" x="108.867044" xlink:href="#m9f2c8d90ec" y="213.613714"/>
     <use style="fill:none;stroke:#5bc0de;" x="84.265748" xlink:href="#m9f2c8d90ec" y="221.842286"/>
     <use style="fill:none;stroke:#5bc0de;" x="174.104211" xlink:href="#m9f2c8d90ec" y="187.282286"/>
     <use style="fill:none;stroke:#5bc0de;" x="81.170963" xlink:href="#m9f2c8d90ec" y="221.776457"/>
     <use style="fill:none;stroke:#5bc0de;" x="109.158582" xlink:href="#m9f2c8d90ec" y="208.594286"/>
     <use style="fill:none;stroke:#5bc0de;" x="233.196659" xlink:href="#m9f2c8d90ec" y="199.542857"/>
     <use style="fill:none;stroke:#5bc0de;" x="99.829376" xlink:href="#m9f2c8d90ec" y="206.125714"/>
     <use style="fill:none;stroke:#5bc0de;" x="103.26055" xlink:href="#m9f2c8d90ec" y="208.758857"/>
     <use style="fill:none;stroke:#5bc0de;" x="107.364504" xlink:href="#m9f2c8d90ec" y="221.776457"/>
     <use style="fill:none;stroke:#5bc0de;" x="99.649968" xlink:href="#m9f2c8d90ec" y="188.845714"/>
     <use style="fill:none;stroke:#5bc0de;" x="252.953945" xlink:href="#m9f2c8d90ec" y="175.68"/>
     <use style="fill:none;stroke:#5bc0de;" x="114.361409" xlink:href="#m9f2c8d90ec" y="156.342857"/>
     <use style="fill:none;stroke:#5bc0de;" x="124.520376" xlink:href="#m9f2c8d90ec" y="202.093714"/>
     <use style="fill:none;stroke:#5bc0de;" x="123.10754" xlink:href="#m9f2c8d90ec" y="195.428571"/>
     <use style="fill:none;stroke:#5bc0de;" x="166.63636" xlink:href="#m9f2c8d90ec" y="195.445029"/>
     <use style="fill:none;stroke:#5bc0de;" x="156.096151" xlink:href="#m9f2c8d90ec" y="187.2"/>
     <use style="fill:none;stroke:#5bc0de;" x="156.813783" xlink:href="#m9f2c8d90ec" y="170.825143"/>
     <use style="fill:none;stroke:#5bc0de;" x="137.908684" xlink:href="#m9f2c8d90ec" y="211.968"/>
     <use style="fill:none;stroke:#5bc0de;" x="127.794569" xlink:href="#m9f2c8d90ec" y="187.216457"/>
     <use style="fill:none;stroke:#5bc0de;" x="154.503907" xlink:href="#m9f2c8d90ec" y="199.954286"/>
     <use style="fill:none;stroke:#5bc0de;" x="266.319827" xlink:href="#m9f2c8d90ec" y="174.034286"/>
     <use style="fill:none;stroke:#5bc0de;" x="171.928891" xlink:href="#m9f2c8d90ec" y="201.6"/>
     <use style="fill:none;stroke:#5bc0de;" x="248.24449" xlink:href="#m9f2c8d90ec" y="121.453714"/>
     <use style="fill:none;stroke:#5bc0de;" x="248.24449" xlink:href="#m9f2c8d90ec" y="242.101029"/>
     <use style="fill:none;stroke:#5bc0de;" x="126.426584" xlink:href="#m9f2c8d90ec" y="207.853714"/>
     <use style="fill:none;stroke:#5bc0de;" x="281.210676" xlink:href="#m9f2c8d90ec" y="161.691429"/>
     <use style="fill:none;stroke:#5bc0de;" x="236.044759" xlink:href="#m9f2c8d90ec" y="167.533714"/>
     <use style="fill:none;stroke:#5bc0de;" x="143.178789" xlink:href="#m9f2c8d90ec" y="183.085714"/>
     <use style="fill:none;stroke:#5bc0de;" x="193.9512" xlink:href="#m9f2c8d90ec" y="157.577143"/>
     <use style="fill:none;stroke:#5bc0de;" x="213.304818" xlink:href="#m9f2c8d90ec" y="139.490743"/>
     <use style="fill:none;stroke:#5bc0de;" x="173.072616" xlink:href="#m9f2c8d90ec" y="150.171429"/>
     <use style="fill:none;stroke:#5bc0de;" x="173.072616" xlink:href="#m9f2c8d90ec" y="158.893714"/>
     <use style="fill:none;stroke:#5bc0de;" x="183.209157" xlink:href="#m9f2c8d90ec" y="157.577143"/>
    </g>
   </g>
   <g id="patch_3">
    <path d="M 64.8 244.8 
L 64.8 14.4 
" style="fill:none;stroke:#d2d2d2;stroke-linecap:square;stroke-linejoin:miter;"/>
   </g>
   <g id="patch_4">
    <path d="M 64.8 244.8 
L 410.4 244.8 
" style="fill:none;stroke:#d2d2d2;stroke-linecap:square;stroke-linejoin:miter;"/>
   </g>
  </g>
  <g id="axes_2">
   <g id="line2d_25">
    <path clip-path="url(#pf5ba5c8f34)" d="M 303.389967 244.8 
L 303.389967 139.474286 
" style="fill:none;stroke:#f0ad4e;stroke-dasharray:5.6,2.4;stroke-dashoffset:0;stroke-width:1.5;"/>
   </g>
   <g id="line2d_26">
    <path clip-path="url(#pf5ba5c8f34)" d="M 64.8 139.474286 
L 303.389967 139.474286 
" style="fill:none;stroke:#f0ad4e;stroke-dasharray:5.6,2.4;stroke-dashoffset:0;stroke-width:1.5;"/>
   </g>
   <g id="text_26">
    <!-- (10639sqft, $6.4M) -->
    <defs>
     <path d="M 11.71875 12.40625 
L 22.015625 12.40625 
L 22.015625 4 
L 14.015625 -11.625 
L 7.71875 -11.625 
L 11.71875 4 
z
" id="DejaVuSans-2c"/>
     <path d="M 10.6875 12.40625 
L 21 12.40625 
L 21 0 
L 10.6875 0 
z
" id="DejaVuSans-2e"/>
    </defs>
    <g style="fill:#f0ad4e;" transform="translate(285.449185 126.308571)scale(0.15 -0.15)">
     <use xlink:href="#DejaVuSans-28"/>
     <use x="39.013672" xlink:href="#DejaVuSans-31"/>
     <use x="102.636719" xlink:href="#DejaVuSans-30"/>
     <use x="166.259766" xlink:href="#DejaVuSans-36"/>
     <use x="229.882812" xlink:href="#DejaVuSans-33"/>
     <use x="293.505859" xlink:href="#DejaVuSans-39"/>
     <use x="357.128906" xlink:href="#DejaVuSans-73"/>
     <use x="409.228516" xlink:href="#DejaVuSans-71"/>
     <use x="472.705078" xlink:href="#DejaVuSans-66"/>
     <use x="507.894531" xlink:href="#DejaVuSans-74"/>
     <use x="547.103516" xlink:href="#DejaVuSans-2c"/>
     <use x="578.890625" xlink:href="#DejaVuSans-20"/>
     <use x="610.677734" xlink:href="#DejaVuSans-24"/>
     <use x="674.300781" xlink:href="#DejaVuSans-36"/>
     <use x="737.923828" xlink:href="#DejaVuSans-2e"/>
     <use x="769.710938" xlink:href="#DejaVuSans-34"/>
     <use x="833.333984" xlink:href="#DejaVuSans-4d"/>
     <use x="919.613281" xlink:href="#DejaVuSans-29"/>
    </g>
   </g>
  </g>
 </g>
 <defs>
  <clipPath id="pf5ba5c8f34">
   <rect height="230.4" width="345.6" x="64.8" y="14.4"/>
  </clipPath>
 </defs>
</svg>
