<?xml version="1.0" encoding="utf-8" standalone="no"?>
<!DOCTYPE svg PUBLIC "-//W3C//DTD SVG 1.1//EN"
  "http://www.w3.org/Graphics/SVG/1.1/DTD/svg11.dtd">
<!-- Created with matplotlib (http://matplotlib.org/) -->
<svg height="288pt" version="1.1" viewBox="0 0 432 288" width="432pt" xmlns="http://www.w3.org/2000/svg" xmlns:xlink="http://www.w3.org/1999/xlink">
 <defs>
  <style type="text/css">
*{stroke-linecap:butt;stroke-linejoin:round;}
  </style>
 </defs>
 <g id="figure_1">
  <g id="patch_1">
   <path d="M 0 288 
L 432 288 
L 432 0 
L 0 0 
z
" style="fill:none;"/>
  </g>
  <g id="axes_1">
   <g id="patch_2">
    <path d="M 14.3 226.2 
L 417.7 226.2 
L 417.7 14.3 
L 14.3 14.3 
z
" style="fill:none;"/>
   </g>
   <g id="patch_3">
    <path clip-path="url(#p91750df459)" d="M 14.3 225.758543 
L 14.703804 225.746009 
L 15.107608 225.733149 
L 15.511411 225.719956 
L 15.915215 225.706422 
L 16.319019 225.692539 
L 16.722823 225.678299 
L 17.126627 225.663693 
L 17.53043 225.648714 
L 17.934234 225.633353 
L 18.338038 225.617601 
L 18.741842 225.60145 
L 19.145646 225.58489 
L 19.549449 225.567913 
L 19.953253 225.550509 
L 20.357057 225.532668 
L 20.760861 225.514381 
L 21.164665 225.495639 
L 21.568468 225.47643 
L 21.972272 225.456745 
L 22.376076 225.436574 
L 22.77988 225.415905 
L 23.183684 225.394729 
L 23.587487 225.373033 
L 23.991291 225.350808 
L 24.395095 225.328041 
L 24.798899 225.304721 
L 25.202703 225.280837 
L 25.606507 225.256376 
L 26.01031 225.231326 
L 26.414114 225.205674 
L 26.817918 225.179409 
L 27.221722 225.152518 
L 27.625526 225.124986 
L 28.029329 225.096802 
L 28.433133 225.067952 
L 28.836937 225.038421 
L 29.240741 225.008197 
L 29.644545 224.977264 
L 30.048348 224.945609 
L 30.452152 224.913218 
L 30.855956 224.880074 
L 31.25976 224.846163 
L 31.663564 224.811471 
L 32.067367 224.775981 
L 32.471171 224.739677 
L 32.874975 224.702544 
L 33.278779 224.664564 
L 33.682583 224.625723 
L 34.086386 224.586003 
L 34.49019 224.545386 
L 34.893994 224.503857 
L 35.297798 224.461396 
L 35.701602 224.417987 
L 36.105405 224.373611 
L 36.509209 224.32825 
L 36.913013 224.281885 
L 37.316817 224.234498 
L 37.720621 224.186069 
L 38.124424 224.13658 
L 38.528228 224.08601 
L 38.932032 224.034339 
L 39.335836 223.981548 
L 39.73964 223.927616 
L 40.143443 223.872521 
L 40.547247 223.816244 
L 40.951051 223.758763 
L 41.354855 223.700056 
L 41.758659 223.640101 
L 42.162462 223.578876 
L 42.566266 223.51636 
L 42.97007 223.452528 
L 43.373874 223.387358 
L 43.777678 223.320828 
L 44.181481 223.252912 
L 44.585285 223.183588 
L 44.989089 223.112832 
L 45.392893 223.040618 
L 45.796697 222.966922 
L 46.200501 222.89172 
L 46.604304 222.814985 
L 47.008108 222.736692 
L 47.411912 222.656816 
L 47.815716 222.575331 
L 48.21952 222.492208 
L 48.623323 222.407423 
L 49.027127 222.320948 
L 49.430931 222.232756 
L 49.834735 222.142819 
L 50.238539 222.051109 
L 50.642342 221.957598 
L 51.046146 221.862257 
L 51.44995 221.765059 
L 51.853754 221.665973 
L 52.257558 221.56497 
L 52.661361 221.462022 
L 53.065165 221.357097 
L 53.468969 221.250166 
L 53.872773 221.141199 
L 54.276577 221.030164 
L 54.68038 220.917031 
L 55.084184 220.801769 
L 55.487988 220.684345 
L 55.891792 220.564729 
L 56.295596 220.442888 
L 56.699399 220.318789 
L 57.103203 220.192401 
L 57.507007 220.063691 
L 57.910811 219.932624 
L 58.314615 219.799169 
L 58.718418 219.663291 
L 59.122222 219.524957 
L 59.526026 219.384132 
L 59.92983 219.240782 
L 60.333634 219.094874 
L 60.737437 218.946371 
L 61.141241 218.795239 
L 61.545045 218.641444 
L 61.948849 218.484948 
L 62.352653 218.325718 
L 62.756456 218.163717 
L 63.16026 217.998908 
L 63.564064 217.831257 
L 63.967868 217.660725 
L 64.371672 217.487278 
L 64.775475 217.310878 
L 65.179279 217.131487 
L 65.583083 216.94907 
L 65.986887 216.763588 
L 66.390691 216.575005 
L 66.794494 216.383283 
L 67.198298 216.188384 
L 67.602102 215.99027 
L 68.005906 215.788903 
L 68.40971 215.584245 
L 68.813514 215.376259 
L 69.217317 215.164905 
L 69.621121 214.950146 
L 70.024925 214.731943 
L 70.428729 214.510257 
L 70.832533 214.285049 
L 71.236336 214.056282 
L 71.64014 213.823916 
L 72.043944 213.587913 
L 72.447748 213.348233 
L 72.851552 213.104839 
L 73.255355 212.85769 
L 73.659159 212.606749 
L 74.062963 212.351976 
L 74.466767 212.093333 
L 74.870571 211.830781 
L 75.274374 211.56428 
L 75.678178 211.293793 
L 76.081982 211.01928 
L 76.485786 210.740703 
L 76.88959 210.458024 
L 77.293393 210.171204 
L 77.697197 209.880204 
L 78.101001 209.584987 
L 78.504805 209.285515 
L 78.908609 208.981748 
L 79.312412 208.673651 
L 79.716216 208.361184 
L 80.12002 208.044311 
L 80.523824 207.722995 
L 80.927628 207.397197 
L 81.331431 207.066882 
L 81.735235 206.732013 
L 82.139039 206.392553 
L 82.542843 206.048466 
L 82.946647 205.699716 
L 83.35045 205.346269 
L 83.754254 204.988087 
L 84.158058 204.625138 
L 84.561862 204.257385 
L 84.965666 203.884795 
L 85.369469 203.507333 
L 85.773273 203.124967 
L 86.177077 202.737662 
L 86.580881 202.345386 
L 86.984685 201.948107 
L 87.388488 201.545793 
L 87.792292 201.138412 
L 88.196096 200.725933 
L 88.5999 200.308326 
L 89.003704 199.88556 
L 89.407508 199.457607 
L 89.811311 199.024436 
L 90.215115 198.586019 
L 90.618919 198.142329 
L 91.022723 197.693339 
L 91.426527 197.23902 
L 91.83033 196.779348 
L 92.234134 196.314296 
L 92.637938 195.84384 
L 93.041742 195.367956 
L 93.445546 194.886619 
L 93.849349 194.399807 
L 94.253153 193.907498 
L 94.656957 193.40967 
L 95.060761 192.906303 
L 95.464565 192.397376 
L 95.868368 191.882871 
L 96.272172 191.362768 
L 96.675976 190.837051 
L 97.07978 190.305702 
L 97.483584 189.768706 
L 97.887387 189.226047 
L 98.291191 188.677712 
L 98.694995 188.123686 
L 99.098799 187.563958 
L 99.502603 186.998515 
L 99.906406 186.427348 
L 100.31021 185.850447 
L 100.714014 185.267802 
L 101.117818 184.679407 
L 101.521622 184.085255 
L 101.925425 183.48534 
L 102.329229 182.879657 
L 102.733033 182.268203 
L 103.136837 181.650976 
L 103.540641 181.027974 
L 103.944444 180.399196 
L 104.348248 179.764644 
L 104.752052 179.12432 
L 105.155856 178.478226 
L 105.55966 177.826367 
L 105.963463 177.168748 
L 106.367267 176.505376 
L 106.771071 175.836259 
L 107.174875 175.161406 
L 107.578679 174.480826 
L 107.982482 173.794533 
L 108.386286 173.102537 
L 108.79009 172.404854 
L 109.193894 171.701498 
L 109.597698 170.992487 
L 110.001502 170.277838 
L 110.405305 169.55757 
L 110.809109 168.831705 
L 111.212913 168.100264 
L 111.616717 167.36327 
L 112.020521 166.620748 
L 112.424324 165.872724 
L 112.828128 165.119226 
L 113.231932 164.360283 
L 113.635736 163.595924 
L 114.03954 162.826182 
L 114.443343 162.051089 
L 114.847147 161.27068 
L 115.250951 160.484992 
L 115.654755 159.694061 
L 116.058559 158.897927 
L 116.462362 158.09663 
L 116.866166 157.290212 
L 117.26997 156.478716 
L 117.673774 155.662188 
L 118.077578 154.840673 
L 118.481381 154.01422 
L 118.885185 153.182878 
L 119.288989 152.346698 
L 119.692793 151.505732 
L 120.096597 150.660034 
L 120.5004 149.809661 
L 120.904204 148.954668 
L 121.308008 148.095114 
L 121.711812 147.231061 
L 122.115616 146.362568 
L 122.519419 145.4897 
L 122.923223 144.61252 
L 123.327027 143.731097 
L 123.730831 142.845496 
L 124.134635 141.955788 
L 124.538438 141.062043 
L 124.942242 140.164334 
L 125.346046 139.262735 
L 125.74985 138.35732 
L 126.153654 137.448168 
L 126.557457 136.535357 
L 126.961261 135.618967 
L 127.365065 134.699078 
L 127.768869 133.775775 
L 128.172673 132.849142 
L 128.576476 131.919265 
L 128.98028 130.986232 
L 129.384084 130.050131 
L 129.787888 129.111052 
L 130.191692 128.169089 
L 130.595495 127.224335 
L 130.999299 126.276883 
L 131.403103 125.326831 
L 131.806907 124.374276 
L 132.210711 123.419317 
L 132.614515 122.462055 
L 133.018318 121.502592 
L 133.422122 120.541031 
L 133.825926 119.577476 
L 134.22973 118.612034 
L 134.633534 117.644811 
L 135.037337 116.675918 
L 135.441141 115.705462 
L 135.844945 114.733556 
L 136.248749 113.760312 
L 136.652553 112.785843 
L 137.056356 111.810265 
L 137.46016 110.833693 
L 137.863964 109.856246 
L 138.267768 108.878041 
L 138.671572 107.899198 
L 139.075375 106.919838 
L 139.479179 105.940082 
L 139.882983 104.960054 
L 140.286787 103.979877 
L 140.690591 102.999677 
L 141.094394 102.019579 
L 141.498198 101.039711 
L 141.902002 100.060201 
L 142.305806 99.081177 
L 142.70961 98.102769 
L 143.113413 97.125109 
L 143.517217 96.148327 
L 143.921021 95.172555 
L 144.324825 94.197928 
L 144.728629 93.22458 
L 145.132432 92.252644 
L 145.536236 91.282256 
L 145.94004 90.313553 
L 146.343844 89.346671 
L 146.747648 88.381747 
L 147.151451 87.41892 
L 147.555255 86.458328 
L 147.959059 85.500111 
L 148.362863 84.544407 
L 148.766667 83.591358 
L 149.17047 82.641102 
L 149.574274 81.693782 
L 149.978078 80.749539 
L 150.381882 79.808514 
L 150.785686 78.870849 
L 151.189489 77.936686 
L 151.593293 77.006167 
L 151.997097 76.079436 
L 152.400901 75.156635 
L 152.804705 74.237907 
L 153.208509 73.323394 
L 153.612312 72.413241 
L 154.016116 71.507589 
L 154.41992 70.606582 
L 154.823724 69.710363 
L 155.227528 68.819075 
L 155.631331 67.932859 
L 156.035135 67.05186 
L 156.438939 66.176219 
L 156.842743 65.306079 
L 157.246547 64.44158 
L 157.65035 63.582866 
L 158.054154 62.730076 
L 158.457958 61.883351 
L 158.861762 61.042832 
L 159.265566 60.208659 
L 159.669369 59.380971 
L 160.073173 58.559907 
L 160.476977 57.745604 
L 160.880781 56.938201 
L 161.284585 56.137833 
L 161.688388 55.344639 
L 162.092192 54.558752 
L 162.495996 53.780308 
L 162.8998 53.009439 
L 163.303604 52.246281 
L 163.707407 51.490963 
L 164.111211 50.743618 
L 164.515015 50.004375 
L 164.918819 49.273364 
L 165.322623 48.550713 
L 165.726426 47.836549 
L 166.13023 47.130998 
L 166.534034 46.434184 
L 166.937838 45.746231 
L 167.341642 45.067261 
L 167.745445 44.397396 
L 168.149249 43.736755 
L 168.553053 43.085457 
L 168.956857 42.443618 
L 169.360661 41.811354 
L 169.764464 41.188779 
L 170.168268 40.576007 
L 170.572072 39.973147 
L 170.975876 39.380311 
L 171.37968 38.797606 
L 171.783483 38.225137 
L 172.187287 37.663012 
L 172.591091 37.111331 
L 172.994895 36.570197 
L 173.398699 36.03971 
L 173.802503 35.519966 
L 174.206306 35.011064 
L 174.61011 34.513096 
L 175.013914 34.026155 
L 175.417718 33.550332 
L 175.821522 33.085715 
L 176.225325 32.632391 
L 176.629129 32.190445 
L 177.032933 31.759959 
L 177.436737 31.341015 
L 177.840541 30.93369 
L 178.244344 30.538062 
L 178.648148 30.154205 
L 179.051952 29.78219 
L 179.455756 29.42209 
L 179.85956 29.073971 
L 180.263363 28.737899 
L 180.667167 28.413939 
L 181.070971 28.102151 
L 181.474775 27.802594 
L 181.878579 27.515327 
L 182.282382 27.240403 
L 182.686186 26.977875 
L 183.08999 26.727792 
L 183.493794 26.490203 
L 183.897598 26.265153 
L 184.301401 26.052685 
L 184.705205 25.852839 
L 185.109009 25.665654 
L 185.512813 25.491166 
L 185.916617 25.329407 
L 186.32042 25.18041 
L 186.724224 25.044203 
L 187.128028 24.920811 
L 187.531832 24.810259 
L 187.935636 24.712567 
L 188.339439 24.627755 
L 188.743243 24.555839 
L 189.147047 24.496832 
L 189.550851 24.450746 
L 189.954655 24.41759 
L 190.358458 24.397371 
L 190.762262 24.390091 
L 191.166066 24.395753 
L 191.56987 24.414355 
L 191.973674 24.445895 
L 192.377477 24.490364 
L 192.781281 24.547757 
L 193.185085 24.61806 
L 193.588889 24.701261 
L 193.992693 24.797343 
L 194.396496 24.906289 
L 194.8003 25.028077 
L 195.204104 25.162684 
L 195.607908 25.310084 
L 196.011712 25.470249 
L 196.415516 25.643147 
L 196.819319 25.828747 
L 197.223123 26.027012 
L 197.626927 26.237905 
L 198.030731 26.461384 
L 198.434535 26.697408 
L 198.838338 26.945932 
L 199.242142 27.206907 
L 199.645946 27.480284 
L 200.04975 27.766011 
L 200.453554 28.064034 
L 200.857357 28.374296 
L 201.261161 28.696737 
L 201.664965 29.031298 
L 202.068769 29.377914 
L 202.472573 29.73652 
L 202.876376 30.107048 
L 203.28018 30.489428 
L 203.683984 30.883588 
L 204.087788 31.289453 
L 204.491592 31.706948 
L 204.895395 32.135994 
L 205.299199 32.57651 
L 205.703003 33.028413 
L 206.106807 33.491621 
L 206.510611 33.966045 
L 206.914414 34.451597 
L 207.318218 34.948188 
L 207.722022 35.455724 
L 208.125826 35.974112 
L 208.52963 36.503255 
L 208.933433 37.043056 
L 209.337237 37.593415 
L 209.741041 38.154231 
L 210.144845 38.725401 
L 210.548649 39.30682 
L 210.952452 39.898381 
L 211.356256 40.499976 
L 211.76006 41.111496 
L 212.163864 41.732829 
L 212.567668 42.363862 
L 212.971471 43.004481 
L 213.375275 43.65457 
L 213.779079 44.314012 
L 214.182883 44.982687 
L 214.586687 45.660475 
L 214.99049 46.347255 
L 215.394294 47.042903 
L 215.798098 47.747296 
L 216.201902 48.460306 
L 216.605706 49.181808 
L 217.00951 49.911673 
L 217.413313 50.649771 
L 217.817117 51.395972 
L 218.220921 52.150143 
L 218.624725 52.91215 
L 219.028529 53.68186 
L 219.432332 54.459137 
L 219.836136 55.243844 
L 220.23994 56.035842 
L 220.643744 56.834992 
L 221.047548 57.641155 
L 221.451351 58.454187 
L 221.855155 59.273945 
L 222.258959 60.100287 
L 222.662763 60.933066 
L 223.066567 61.772135 
L 223.47037 62.617347 
L 223.874174 63.468552 
L 224.277978 64.325598 
L 224.681782 65.188334 
L 225.085586 66.056606 
L 225.489389 66.930257 
L 225.893193 67.809132 
L 226.296997 68.69307 
L 226.700801 69.581912 
L 227.104605 70.475494 
L 227.508408 71.37365 
L 227.912212 72.276215 
L 228.316016 73.183018 
L 228.71982 74.093887 
L 229.123624 75.008647 
L 229.527427 75.927121 
L 229.931231 76.849126 
L 230.335035 77.77448 
L 230.738839 78.702994 
L 231.142643 79.634476 
L 231.546446 80.568731 
L 231.95025 81.505557 
L 232.354054 82.444751 
L 232.757858 83.386101 
L 233.161662 84.329392 
L 233.565465 85.274404 
L 233.969269 86.220907 
L 234.373073 87.168669 
L 234.776877 88.117447 
L 235.180681 89.066993 
L 235.584484 90.01705 
L 235.988288 90.967352 
L 236.392092 91.917624 
L 236.795896 92.867583 
L 237.1997 93.816934 
L 237.603504 94.765372 
L 238.007307 95.712579 
L 238.411111 96.658226 
L 238.814915 97.601972 
L 239.218719 98.543461 
L 239.622523 99.482323 
L 240.026326 100.418175 
L 240.43013 101.350615 
L 240.833934 102.279226 
L 241.237738 103.203575 
L 241.641542 104.12321 
L 242.045345 105.037659 
L 242.449149 105.946433 
L 242.852953 106.849021 
L 243.256757 107.744891 
L 243.660561 108.633489 
L 244.064364 109.514239 
L 244.468168 110.386541 
L 244.871972 111.249772 
L 245.275776 112.103283 
L 245.67958 112.946401 
L 246.083383 113.778426 
L 246.487187 114.598632 
L 246.890991 115.406266 
L 247.294795 116.200546 
L 247.698599 116.980666 
L 248.102402 117.745787 
L 248.506206 118.495047 
L 248.91001 119.227551 
L 249.313814 119.942378 
L 249.717618 120.638578 
L 250.121421 121.315174 
L 250.525225 121.97116 
L 250.929029 122.605503 
L 251.332833 123.217142 
L 251.736637 123.804994 
L 252.14044 124.367947 
L 252.544244 124.904866 
L 252.948048 125.414595 
L 253.351852 125.895954 
L 253.755656 126.347745 
L 254.159459 126.768753 
L 254.563263 127.157744 
L 254.967067 127.513474 
L 255.370871 127.834685 
L 255.774675 128.120111 
L 256.178478 128.36848 
L 256.582282 128.578518 
L 256.986086 128.748949 
L 257.38989 128.878505 
L 257.793694 128.965921 
L 258.197497 129.009945 
L 258.601301 129.009342 
L 259.005105 128.962894 
L 259.408909 128.86941 
L 259.812713 128.727725 
L 260.216517 128.536708 
L 260.62032 128.29527 
L 261.024124 128.002361 
L 261.427928 127.656984 
L 261.831732 127.258193 
L 262.235536 126.805104 
L 262.639339 126.2969 
L 263.043143 125.732831 
L 263.446947 125.112228 
L 263.850751 124.434502 
L 264.254555 123.699153 
L 264.658358 122.905777 
L 265.062162 122.054068 
L 265.465966 121.143824 
L 265.86977 120.174957 
L 266.273574 119.147493 
L 266.677377 118.06158 
L 267.081181 116.917492 
L 267.484985 115.715634 
L 267.888789 114.456547 
L 268.292593 113.140913 
L 268.696396 111.769554 
L 269.1002 110.343443 
L 269.504004 108.8637 
L 269.907808 107.331602 
L 270.311612 105.748577 
L 270.715415 104.116214 
L 271.119219 102.436257 
L 271.523023 100.710613 
L 271.926827 98.941346 
L 272.330631 97.13068 
L 272.734434 95.280998 
L 273.138238 93.394839 
L 273.542042 91.474898 
L 273.945846 89.524023 
L 274.34965 87.545208 
L 274.753453 85.541594 
L 275.157257 83.516462 
L 275.561061 81.473227 
L 275.964865 79.415436 
L 276.368669 77.346754 
L 276.772472 75.270965 
L 277.176276 73.191959 
L 277.58008 71.113725 
L 277.983884 69.040343 
L 278.387688 66.975972 
L 278.791491 64.924844 
L 279.195295 62.891249 
L 279.599099 60.879528 
L 280.002903 58.894056 
L 280.406707 56.939239 
L 280.810511 55.019491 
L 281.214314 53.139232 
L 281.618118 51.302869 
L 282.021922 49.514782 
L 282.425726 47.779317 
L 282.82953 46.100768 
L 283.233333 44.483365 
L 283.637137 42.931261 
L 284.040941 41.44852 
L 284.444745 40.039101 
L 284.848549 38.70685 
L 285.252352 37.455482 
L 285.656156 36.288572 
L 286.05996 35.209545 
L 286.463764 34.221658 
L 286.867568 33.327998 
L 287.271371 32.531462 
L 287.675175 31.834754 
L 288.078979 31.240375 
L 288.482783 30.750609 
L 288.886587 30.367524 
L 289.29039 30.092955 
L 289.694194 29.928505 
L 290.097998 29.875537 
L 290.501802 29.935168 
L 290.905606 30.108267 
L 291.309409 30.395451 
L 291.713213 30.797082 
L 292.117017 31.31327 
L 292.520821 31.943865 
L 292.924625 32.688466 
L 293.328428 33.546418 
L 293.732232 34.516813 
L 294.136036 35.598497 
L 294.53984 36.790073 
L 294.943644 38.089906 
L 295.347447 39.496126 
L 295.751251 41.00664 
L 296.155055 42.619136 
L 296.558859 44.331089 
L 296.962663 46.139776 
L 297.366466 48.042281 
L 297.77027 50.035505 
L 298.174074 52.116179 
L 298.577878 54.280874 
L 298.981682 56.526011 
L 299.385485 58.847876 
L 299.789289 61.24263 
L 300.193093 63.706322 
L 300.596897 66.234904 
L 301.000701 68.82424 
L 301.404505 71.470123 
L 301.808308 74.168285 
L 302.212112 76.914411 
L 302.615916 79.704156 
L 303.01972 82.533151 
L 303.423524 85.397021 
L 303.827327 88.291397 
L 304.231131 91.211925 
L 304.634935 94.154282 
L 305.038739 97.114185 
L 305.442543 100.087404 
L 305.846346 103.069773 
L 306.25015 106.057197 
L 306.653954 109.045665 
L 307.057758 112.03126 
L 307.461562 115.010165 
L 307.865365 117.978671 
L 308.269169 120.933189 
L 308.672973 123.870252 
L 309.076777 126.786523 
L 309.480581 129.678801 
L 309.884384 132.544026 
L 310.288188 135.379284 
L 310.691992 138.181808 
L 311.095796 140.948984 
L 311.4996 143.678352 
L 311.903403 146.36761 
L 312.307207 149.014612 
L 312.711011 151.617369 
L 313.114815 154.174052 
L 313.518619 156.68299 
L 313.922422 159.142666 
L 314.326226 161.551721 
L 314.73003 163.908947 
L 315.133834 166.213287 
L 315.537638 168.463834 
L 315.941441 170.65982 
L 316.345245 172.800624 
L 316.749049 174.885756 
L 317.152853 176.914863 
L 317.556657 178.887715 
L 317.96046 180.80421 
L 318.364264 182.664359 
L 318.768068 184.468289 
L 319.171872 186.216231 
L 319.575676 187.90852 
L 319.979479 189.545587 
L 320.383283 191.127952 
L 320.787087 192.656219 
L 321.190891 194.131073 
L 321.594695 195.553269 
L 321.998498 196.923634 
L 322.402302 198.243051 
L 322.806106 199.512462 
L 323.20991 200.732862 
L 323.613714 201.905286 
L 324.017518 203.030813 
L 324.421321 204.110556 
L 324.825125 205.145658 
L 325.228929 206.137285 
L 325.632733 207.086628 
L 326.036537 207.994891 
L 326.44034 208.86329 
L 326.844144 209.693051 
L 327.247948 210.485404 
L 327.651752 211.241577 
L 328.055556 211.962799 
L 328.459359 212.65029 
L 328.863163 213.305264 
L 329.266967 213.928921 
L 329.670771 214.522448 
L 330.074575 215.087017 
L 330.478378 215.623779 
L 330.882182 216.133867 
L 331.285986 216.61839 
L 331.68979 217.078434 
L 332.093594 217.515061 
L 332.497397 217.929306 
L 332.901201 218.322177 
L 333.305005 218.694653 
L 333.708809 219.047687 
L 334.112613 219.3822 
L 334.516416 219.699086 
L 334.92022 219.999206 
L 335.324024 220.283395 
L 335.727828 220.552453 
L 336.131632 220.807156 
L 336.535435 221.048244 
L 336.939239 221.276432 
L 337.343043 221.492404 
L 337.746847 221.696815 
L 338.150651 221.890292 
L 338.554454 222.073434 
L 338.958258 222.246814 
L 339.362062 222.410976 
L 339.765866 222.56644 
L 340.16967 222.7137 
L 340.573473 222.853226 
L 340.977277 222.985464 
L 341.381081 223.110837 
L 341.784885 223.229745 
L 342.188689 223.342569 
L 342.592492 223.449667 
L 342.996296 223.551378 
L 343.4001 223.648023 
L 343.803904 223.739903 
L 344.207708 223.827304 
L 344.611512 223.910493 
L 345.015315 223.989722 
L 345.419119 224.065229 
L 345.822923 224.137237 
L 346.226727 224.205954 
L 346.630531 224.271578 
L 347.034334 224.334291 
L 347.438138 224.394267 
L 347.841942 224.451666 
L 348.245746 224.506641 
L 348.64955 224.559332 
L 349.053353 224.609871 
L 349.457157 224.658382 
L 349.860961 224.70498 
L 350.264765 224.749773 
L 350.668569 224.792861 
L 351.072372 224.834338 
L 351.476176 224.874292 
L 351.87998 224.912805 
L 352.283784 224.949952 
L 352.687588 224.985804 
L 353.091391 225.020428 
L 353.495195 225.053885 
L 353.898999 225.086233 
L 354.302803 225.117526 
L 354.706607 225.147813 
L 355.11041 225.177142 
L 355.514214 225.205556 
L 355.918018 225.233097 
L 356.321822 225.259801 
L 356.725626 225.285705 
L 357.129429 225.310843 
L 357.533233 225.335245 
L 357.937037 225.358941 
L 358.340841 225.381958 
L 358.744645 225.404322 
L 359.148448 225.426057 
L 359.552252 225.447187 
L 359.956056 225.467732 
L 360.35986 225.487713 
L 360.763664 225.507149 
L 361.167467 225.526058 
L 361.571271 225.544457 
L 361.975075 225.562363 
L 362.378879 225.579791 
L 362.782683 225.596755 
L 363.186486 225.61327 
L 363.59029 225.629349 
L 363.994094 225.645004 
L 364.397898 225.660248 
L 364.801702 225.675092 
L 365.205506 225.689548 
L 365.609309 225.703626 
L 366.013113 225.717336 
L 366.416917 225.730688 
L 366.820721 225.743692 
L 367.224525 225.756356 
L 367.628328 225.76869 
L 368.032132 225.780703 
L 368.435936 225.792402 
L 368.83974 225.803796 
L 369.243544 225.814891 
L 369.647347 225.825697 
L 370.051151 225.83622 
L 370.454955 225.846466 
L 370.858759 225.856444 
L 371.262563 225.866159 
L 371.666366 225.875619 
L 372.07017 225.884829 
L 372.473974 225.893796 
L 372.877778 225.902525 
L 373.281582 225.911024 
L 373.685385 225.919296 
L 374.089189 225.927348 
L 374.492993 225.935185 
L 374.896797 225.942813 
L 375.300601 225.950237 
L 375.704404 225.957461 
L 376.108208 225.964492 
L 376.512012 225.971332 
L 376.915816 225.977988 
L 377.31962 225.984464 
L 377.723423 225.990764 
L 378.127227 225.996892 
L 378.531031 226.002854 
L 378.934835 226.008653 
L 379.338639 226.014293 
L 379.742442 226.019778 
L 380.146246 226.025112 
L 380.55005 226.030299 
L 380.953854 226.035343 
L 381.357658 226.040247 
L 381.761461 226.045015 
L 382.165265 226.04965 
L 382.569069 226.054156 
L 382.972873 226.058535 
L 383.376677 226.062793 
L 383.78048 226.06693 
L 384.184284 226.070951 
L 384.588088 226.074858 
L 384.991892 226.078655 
L 385.395696 226.082345 
L 385.799499 226.085929 
L 386.203303 226.089411 
L 386.607107 226.092794 
L 387.010911 226.09608 
L 387.414715 226.099272 
L 387.818519 226.102372 
L 388.222322 226.105382 
L 388.626126 226.108306 
L 389.02993 226.111145 
L 389.433734 226.113902 
L 389.837538 226.116578 
L 390.241341 226.119176 
L 390.645145 226.121699 
L 391.048949 226.124148 
L 391.452753 226.126524 
L 391.856557 226.128831 
L 392.26036 226.13107 
L 392.664164 226.133243 
L 393.067968 226.135351 
L 393.471772 226.137397 
L 393.875576 226.139382 
L 394.279379 226.141308 
L 394.683183 226.143176 
L 395.086987 226.144988 
L 395.490791 226.146746 
L 395.894595 226.148451 
L 396.298398 226.150105 
L 396.702202 226.151709 
L 397.106006 226.153264 
L 397.50981 226.154772 
L 397.913614 226.156234 
L 398.317417 226.157651 
L 398.721221 226.159026 
L 399.125025 226.160358 
L 399.528829 226.161649 
L 399.932633 226.162901 
L 400.336436 226.164114 
L 400.74024 226.16529 
L 401.144044 226.166429 
L 401.547848 226.167533 
L 401.951652 226.168603 
L 402.355455 226.169639 
L 402.759259 226.170643 
L 403.163063 226.171616 
L 403.566867 226.172558 
L 403.970671 226.173471 
L 404.374474 226.174355 
L 404.778278 226.175211 
L 405.182082 226.17604 
L 405.585886 226.176843 
L 405.98969 226.17762 
L 406.393493 226.178373 
L 406.797297 226.179101 
L 407.201101 226.179807 
L 407.604905 226.18049 
L 408.008709 226.181151 
L 408.412513 226.18179 
L 408.816316 226.18241 
L 409.22012 226.183009 
L 409.623924 226.183589 
L 410.027728 226.18415 
L 410.431532 226.184693 
L 410.835335 226.185218 
L 411.239139 226.185726 
L 411.642943 226.186217 
L 412.046747 226.186693 
L 412.450551 226.187153 
L 412.854354 226.187598 
L 413.258158 226.188028 
L 413.661962 226.188444 
L 414.065766 226.188846 
L 414.46957 226.189235 
L 414.873373 226.189611 
L 415.277177 226.189974 
L 415.680981 226.190326 
L 416.084785 226.190666 
L 416.488589 226.190994 
L 416.892392 226.191311 
L 417.296196 226.191618 
L 417.7 226.191914 
z
" style="fill:#5bc0de;stroke:#5bc0de;stroke-linejoin:miter;"/>
   </g>
   <g id="matplotlib.axis_1">
    <g id="xtick_1">
     <g id="line2d_1">
      <defs>
       <path d="M 0 0 
L 0 3.5 
" id="m73740a7897" style="stroke:#d2d2d2;"/>
      </defs>
      <g>
       <use style="fill:#d2d2d2;stroke:#d2d2d2;" x="39.5125" xlink:href="#m73740a7897" y="226.2"/>
      </g>
     </g>
     <g id="text_1">
      <!-- −4 -->
      <defs>
       <path d="M 10.59375 35.5 
L 73.1875 35.5 
L 73.1875 27.203125 
L 10.59375 27.203125 
z
" id="DejaVuSans-2212"/>
       <path d="M 37.796875 64.3125 
L 12.890625 25.390625 
L 37.796875 25.390625 
z
M 35.203125 72.90625 
L 47.609375 72.90625 
L 47.609375 25.390625 
L 58.015625 25.390625 
L 58.015625 17.1875 
L 47.609375 17.1875 
L 47.609375 0 
L 37.796875 0 
L 37.796875 17.1875 
L 4.890625 17.1875 
L 4.890625 26.703125 
z
" id="DejaVuSans-34"/>
      </defs>
      <g style="fill:#d2d2d2;" transform="translate(28.455859 244.597656)scale(0.15 -0.15)">
       <use xlink:href="#DejaVuSans-2212"/>
       <use x="83.789062" xlink:href="#DejaVuSans-34"/>
      </g>
     </g>
    </g>
    <g id="xtick_2">
     <g id="line2d_2">
      <g>
       <use style="fill:#d2d2d2;stroke:#d2d2d2;" x="89.9375" xlink:href="#m73740a7897" y="226.2"/>
      </g>
     </g>
     <g id="text_2">
      <!-- −3 -->
      <defs>
       <path d="M 40.578125 39.3125 
Q 47.65625 37.796875 51.625 33 
Q 55.609375 28.21875 55.609375 21.1875 
Q 55.609375 10.40625 48.1875 4.484375 
Q 40.765625 -1.421875 27.09375 -1.421875 
Q 22.515625 -1.421875 17.65625 -0.515625 
Q 12.796875 0.390625 7.625 2.203125 
L 7.625 11.71875 
Q 11.71875 9.328125 16.59375 8.109375 
Q 21.484375 6.890625 26.8125 6.890625 
Q 36.078125 6.890625 40.9375 10.546875 
Q 45.796875 14.203125 45.796875 21.1875 
Q 45.796875 27.640625 41.28125 31.265625 
Q 36.765625 34.90625 28.71875 34.90625 
L 20.21875 34.90625 
L 20.21875 43.015625 
L 29.109375 43.015625 
Q 36.375 43.015625 40.234375 45.921875 
Q 44.09375 48.828125 44.09375 54.296875 
Q 44.09375 59.90625 40.109375 62.90625 
Q 36.140625 65.921875 28.71875 65.921875 
Q 24.65625 65.921875 20.015625 65.03125 
Q 15.375 64.15625 9.8125 62.3125 
L 9.8125 71.09375 
Q 15.4375 72.65625 20.34375 73.4375 
Q 25.25 74.21875 29.59375 74.21875 
Q 40.828125 74.21875 47.359375 69.109375 
Q 53.90625 64.015625 53.90625 55.328125 
Q 53.90625 49.265625 50.4375 45.09375 
Q 46.96875 40.921875 40.578125 39.3125 
" id="DejaVuSans-33"/>
      </defs>
      <g style="fill:#d2d2d2;" transform="translate(78.880859 244.597656)scale(0.15 -0.15)">
       <use xlink:href="#DejaVuSans-2212"/>
       <use x="83.789062" xlink:href="#DejaVuSans-33"/>
      </g>
     </g>
    </g>
    <g id="xtick_3">
     <g id="line2d_3">
      <g>
       <use style="fill:#d2d2d2;stroke:#d2d2d2;" x="140.3625" xlink:href="#m73740a7897" y="226.2"/>
      </g>
     </g>
     <g id="text_3">
      <!-- −2 -->
      <defs>
       <path d="M 19.1875 8.296875 
L 53.609375 8.296875 
L 53.609375 0 
L 7.328125 0 
L 7.328125 8.296875 
Q 12.9375 14.109375 22.625 23.890625 
Q 32.328125 33.6875 34.8125 36.53125 
Q 39.546875 41.84375 41.421875 45.53125 
Q 43.3125 49.21875 43.3125 52.78125 
Q 43.3125 58.59375 39.234375 62.25 
Q 35.15625 65.921875 28.609375 65.921875 
Q 23.96875 65.921875 18.8125 64.3125 
Q 13.671875 62.703125 7.8125 59.421875 
L 7.8125 69.390625 
Q 13.765625 71.78125 18.9375 73 
Q 24.125 74.21875 28.421875 74.21875 
Q 39.75 74.21875 46.484375 68.546875 
Q 53.21875 62.890625 53.21875 53.421875 
Q 53.21875 48.921875 51.53125 44.890625 
Q 49.859375 40.875 45.40625 35.40625 
Q 44.1875 33.984375 37.640625 27.21875 
Q 31.109375 20.453125 19.1875 8.296875 
" id="DejaVuSans-32"/>
      </defs>
      <g style="fill:#d2d2d2;" transform="translate(129.305859 244.597656)scale(0.15 -0.15)">
       <use xlink:href="#DejaVuSans-2212"/>
       <use x="83.789062" xlink:href="#DejaVuSans-32"/>
      </g>
     </g>
    </g>
    <g id="xtick_4">
     <g id="line2d_4">
      <g>
       <use style="fill:#d2d2d2;stroke:#d2d2d2;" x="190.7875" xlink:href="#m73740a7897" y="226.2"/>
      </g>
     </g>
     <g id="text_4">
      <!-- −1 -->
      <defs>
       <path d="M 12.40625 8.296875 
L 28.515625 8.296875 
L 28.515625 63.921875 
L 10.984375 60.40625 
L 10.984375 69.390625 
L 28.421875 72.90625 
L 38.28125 72.90625 
L 38.28125 8.296875 
L 54.390625 8.296875 
L 54.390625 0 
L 12.40625 0 
z
" id="DejaVuSans-31"/>
      </defs>
      <g style="fill:#d2d2d2;" transform="translate(179.730859 244.597656)scale(0.15 -0.15)">
       <use xlink:href="#DejaVuSans-2212"/>
       <use x="83.789062" xlink:href="#DejaVuSans-31"/>
      </g>
     </g>
    </g>
    <g id="xtick_5">
     <g id="line2d_5">
      <g>
       <use style="fill:#d2d2d2;stroke:#d2d2d2;" x="241.2125" xlink:href="#m73740a7897" y="226.2"/>
      </g>
     </g>
     <g id="text_5">
      <!-- 0 -->
      <defs>
       <path d="M 31.78125 66.40625 
Q 24.171875 66.40625 20.328125 58.90625 
Q 16.5 51.421875 16.5 36.375 
Q 16.5 21.390625 20.328125 13.890625 
Q 24.171875 6.390625 31.78125 6.390625 
Q 39.453125 6.390625 43.28125 13.890625 
Q 47.125 21.390625 47.125 36.375 
Q 47.125 51.421875 43.28125 58.90625 
Q 39.453125 66.40625 31.78125 66.40625 
M 31.78125 74.21875 
Q 44.046875 74.21875 50.515625 64.515625 
Q 56.984375 54.828125 56.984375 36.375 
Q 56.984375 17.96875 50.515625 8.265625 
Q 44.046875 -1.421875 31.78125 -1.421875 
Q 19.53125 -1.421875 13.0625 8.265625 
Q 6.59375 17.96875 6.59375 36.375 
Q 6.59375 54.828125 13.0625 64.515625 
Q 19.53125 74.21875 31.78125 74.21875 
" id="DejaVuSans-30"/>
      </defs>
      <g style="fill:#d2d2d2;" transform="translate(236.440625 244.597656)scale(0.15 -0.15)">
       <use xlink:href="#DejaVuSans-30"/>
      </g>
     </g>
    </g>
    <g id="xtick_6">
     <g id="line2d_6">
      <g>
       <use style="fill:#d2d2d2;stroke:#d2d2d2;" x="291.6375" xlink:href="#m73740a7897" y="226.2"/>
      </g>
     </g>
     <g id="text_6">
      <!-- 1 -->
      <g style="fill:#d2d2d2;" transform="translate(286.865625 244.597656)scale(0.15 -0.15)">
       <use xlink:href="#DejaVuSans-31"/>
      </g>
     </g>
    </g>
    <g id="xtick_7">
     <g id="line2d_7">
      <g>
       <use style="fill:#d2d2d2;stroke:#d2d2d2;" x="342.0625" xlink:href="#m73740a7897" y="226.2"/>
      </g>
     </g>
     <g id="text_7">
      <!-- 2 -->
      <g style="fill:#d2d2d2;" transform="translate(337.290625 244.597656)scale(0.15 -0.15)">
       <use xlink:href="#DejaVuSans-32"/>
      </g>
     </g>
    </g>
    <g id="xtick_8">
     <g id="line2d_8">
      <g>
       <use style="fill:#d2d2d2;stroke:#d2d2d2;" x="392.4875" xlink:href="#m73740a7897" y="226.2"/>
      </g>
     </g>
     <g id="text_8">
      <!-- 3 -->
      <g style="fill:#d2d2d2;" transform="translate(387.715625 244.597656)scale(0.15 -0.15)">
       <use xlink:href="#DejaVuSans-33"/>
      </g>
     </g>
    </g>
    <g id="text_9">
     <!-- Values -->
     <defs>
      <path d="M 28.609375 0 
L 0.78125 72.90625 
L 11.078125 72.90625 
L 34.1875 11.53125 
L 57.328125 72.90625 
L 67.578125 72.90625 
L 39.796875 0 
z
" id="DejaVuSans-56"/>
      <path d="M 34.28125 27.484375 
Q 23.390625 27.484375 19.1875 25 
Q 14.984375 22.515625 14.984375 16.5 
Q 14.984375 11.71875 18.140625 8.90625 
Q 21.296875 6.109375 26.703125 6.109375 
Q 34.1875 6.109375 38.703125 11.40625 
Q 43.21875 16.703125 43.21875 25.484375 
L 43.21875 27.484375 
z
M 52.203125 31.203125 
L 52.203125 0 
L 43.21875 0 
L 43.21875 8.296875 
Q 40.140625 3.328125 35.546875 0.953125 
Q 30.953125 -1.421875 24.3125 -1.421875 
Q 15.921875 -1.421875 10.953125 3.296875 
Q 6 8.015625 6 15.921875 
Q 6 25.140625 12.171875 29.828125 
Q 18.359375 34.515625 30.609375 34.515625 
L 43.21875 34.515625 
L 43.21875 35.40625 
Q 43.21875 41.609375 39.140625 45 
Q 35.0625 48.390625 27.6875 48.390625 
Q 23 48.390625 18.546875 47.265625 
Q 14.109375 46.140625 10.015625 43.890625 
L 10.015625 52.203125 
Q 14.9375 54.109375 19.578125 55.046875 
Q 24.21875 56 28.609375 56 
Q 40.484375 56 46.34375 49.84375 
Q 52.203125 43.703125 52.203125 31.203125 
" id="DejaVuSans-61"/>
      <path d="M 9.421875 75.984375 
L 18.40625 75.984375 
L 18.40625 0 
L 9.421875 0 
z
" id="DejaVuSans-6c"/>
      <path d="M 8.5 21.578125 
L 8.5 54.6875 
L 17.484375 54.6875 
L 17.484375 21.921875 
Q 17.484375 14.15625 20.5 10.265625 
Q 23.53125 6.390625 29.59375 6.390625 
Q 36.859375 6.390625 41.078125 11.03125 
Q 45.3125 15.671875 45.3125 23.6875 
L 45.3125 54.6875 
L 54.296875 54.6875 
L 54.296875 0 
L 45.3125 0 
L 45.3125 8.40625 
Q 42.046875 3.421875 37.71875 1 
Q 33.40625 -1.421875 27.6875 -1.421875 
Q 18.265625 -1.421875 13.375 4.4375 
Q 8.5 10.296875 8.5 21.578125 
M 31.109375 56 
z
" id="DejaVuSans-75"/>
      <path d="M 56.203125 29.59375 
L 56.203125 25.203125 
L 14.890625 25.203125 
Q 15.484375 15.921875 20.484375 11.0625 
Q 25.484375 6.203125 34.421875 6.203125 
Q 39.59375 6.203125 44.453125 7.46875 
Q 49.3125 8.734375 54.109375 11.28125 
L 54.109375 2.78125 
Q 49.265625 0.734375 44.1875 -0.34375 
Q 39.109375 -1.421875 33.890625 -1.421875 
Q 20.796875 -1.421875 13.15625 6.1875 
Q 5.515625 13.8125 5.515625 26.8125 
Q 5.515625 40.234375 12.765625 48.109375 
Q 20.015625 56 32.328125 56 
Q 43.359375 56 49.78125 48.890625 
Q 56.203125 41.796875 56.203125 29.59375 
M 47.21875 32.234375 
Q 47.125 39.59375 43.09375 43.984375 
Q 39.0625 48.390625 32.421875 48.390625 
Q 24.90625 48.390625 20.390625 44.140625 
Q 15.875 39.890625 15.1875 32.171875 
z
" id="DejaVuSans-65"/>
      <path d="M 44.28125 53.078125 
L 44.28125 44.578125 
Q 40.484375 46.53125 36.375 47.5 
Q 32.28125 48.484375 27.875 48.484375 
Q 21.1875 48.484375 17.84375 46.4375 
Q 14.5 44.390625 14.5 40.28125 
Q 14.5 37.15625 16.890625 35.375 
Q 19.28125 33.59375 26.515625 31.984375 
L 29.59375 31.296875 
Q 39.15625 29.25 43.1875 25.515625 
Q 47.21875 21.78125 47.21875 15.09375 
Q 47.21875 7.46875 41.1875 3.015625 
Q 35.15625 -1.421875 24.609375 -1.421875 
Q 20.21875 -1.421875 15.453125 -0.5625 
Q 10.6875 0.296875 5.421875 2 
L 5.421875 11.28125 
Q 10.40625 8.6875 15.234375 7.390625 
Q 20.0625 6.109375 24.8125 6.109375 
Q 31.15625 6.109375 34.5625 8.28125 
Q 37.984375 10.453125 37.984375 14.40625 
Q 37.984375 18.0625 35.515625 20.015625 
Q 33.0625 21.96875 24.703125 23.78125 
L 21.578125 24.515625 
Q 13.234375 26.265625 9.515625 29.90625 
Q 5.8125 33.546875 5.8125 39.890625 
Q 5.8125 47.609375 11.28125 51.796875 
Q 16.75 56 26.8125 56 
Q 31.78125 56 36.171875 55.265625 
Q 40.578125 54.546875 44.28125 53.078125 
" id="DejaVuSans-73"/>
     </defs>
     <g style="fill:#d2d2d2;" transform="translate(182.564063 272.914062)scale(0.2 -0.2)">
      <use xlink:href="#DejaVuSans-56"/>
      <use x="68.298828" xlink:href="#DejaVuSans-61"/>
      <use x="129.578125" xlink:href="#DejaVuSans-6c"/>
      <use x="157.361328" xlink:href="#DejaVuSans-75"/>
      <use x="220.740234" xlink:href="#DejaVuSans-65"/>
      <use x="282.263672" xlink:href="#DejaVuSans-73"/>
     </g>
    </g>
   </g>
   <g id="matplotlib.axis_2"/>
   <g id="line2d_9">
    <path clip-path="url(#p91750df459)" d="M 190.7875 226.2 
L 190.7875 14.3 
" style="fill:none;stroke:#d9534f;stroke-dasharray:5.6,2.4;stroke-dashoffset:0;stroke-width:1.5;"/>
   </g>
   <g id="line2d_10">
    <path clip-path="url(#p91750df459)" d="M 291.6375 226.2 
L 291.6375 14.3 
" style="fill:none;stroke:#d9534f;stroke-dasharray:5.6,2.4;stroke-dashoffset:0;stroke-width:1.5;"/>
   </g>
   <g id="patch_4">
    <path d="M 14.3 226.2 
L 417.7 226.2 
" style="fill:none;stroke:#d2d2d2;stroke-linecap:square;stroke-linejoin:miter;"/>
   </g>
  </g>
 </g>
 <defs>
  <clipPath id="p91750df459">
   <rect height="211.9" width="403.4" x="14.3" y="14.3"/>
  </clipPath>
 </defs>
</svg>
