<?xml version="1.0" encoding="utf-8" standalone="no"?>
<!DOCTYPE svg PUBLIC "-//W3C//DTD SVG 1.1//EN"
  "http://www.w3.org/Graphics/SVG/1.1/DTD/svg11.dtd">
<!-- Created with matplotlib (http://matplotlib.org/) -->
<svg height="288pt" version="1.1" viewBox="0 0 432 288" width="432pt" xmlns="http://www.w3.org/2000/svg" xmlns:xlink="http://www.w3.org/1999/xlink">
 <defs>
  <style type="text/css">
*{stroke-linecap:butt;stroke-linejoin:round;}
  </style>
 </defs>
 <g id="figure_1">
  <g id="patch_1">
   <path d="M 0 288 
L 432 288 
L 432 0 
L 0 0 
z
" style="fill:none;"/>
  </g>
  <g id="axes_1">
   <g id="patch_2">
    <path d="M 43.2 244.8 
L 397.44 244.8 
L 397.44 31.68 
L 43.2 31.68 
z
" style="fill:none;"/>
   </g>
   <g id="matplotlib.axis_1">
    <g id="xtick_1">
     <g id="line2d_1">
      <defs>
       <path d="M 0 0 
L 0 4 
" id="m374e3fb575" style="stroke:#d2d2d2;"/>
      </defs>
      <g>
       <use style="fill:#d2d2d2;stroke:#d2d2d2;" x="43.2" xlink:href="#m374e3fb575" y="244.8"/>
      </g>
     </g>
     <g id="text_1">
      <!-- −8 -->
      <defs>
       <path d="M 10.59375 35.5 
L 73.1875 35.5 
L 73.1875 27.203125 
L 10.59375 27.203125 
z
" id="DejaVuSans-2212"/>
       <path d="M 31.78125 34.625 
Q 24.75 34.625 20.71875 30.859375 
Q 16.703125 27.09375 16.703125 20.515625 
Q 16.703125 13.921875 20.71875 10.15625 
Q 24.75 6.390625 31.78125 6.390625 
Q 38.8125 6.390625 42.859375 10.171875 
Q 46.921875 13.96875 46.921875 20.515625 
Q 46.921875 27.09375 42.890625 30.859375 
Q 38.875 34.625 31.78125 34.625 
M 21.921875 38.8125 
Q 15.578125 40.375 12.03125 44.71875 
Q 8.5 49.078125 8.5 55.328125 
Q 8.5 64.0625 14.71875 69.140625 
Q 20.953125 74.21875 31.78125 74.21875 
Q 42.671875 74.21875 48.875 69.140625 
Q 55.078125 64.0625 55.078125 55.328125 
Q 55.078125 49.078125 51.53125 44.71875 
Q 48 40.375 41.703125 38.8125 
Q 48.828125 37.15625 52.796875 32.3125 
Q 56.78125 27.484375 56.78125 20.515625 
Q 56.78125 9.90625 50.3125 4.234375 
Q 43.84375 -1.421875 31.78125 -1.421875 
Q 19.734375 -1.421875 13.25 4.234375 
Q 6.78125 9.90625 6.78125 20.515625 
Q 6.78125 27.484375 10.78125 32.3125 
Q 14.796875 37.15625 21.921875 38.8125 
M 18.3125 54.390625 
Q 18.3125 48.734375 21.84375 45.5625 
Q 25.390625 42.390625 31.78125 42.390625 
Q 38.140625 42.390625 41.71875 45.5625 
Q 45.3125 48.734375 45.3125 54.390625 
Q 45.3125 60.0625 41.71875 63.234375 
Q 38.140625 66.40625 31.78125 66.40625 
Q 25.390625 66.40625 21.84375 63.234375 
Q 18.3125 60.0625 18.3125 54.390625 
" id="DejaVuSans-38"/>
      </defs>
      <g style="fill:#d2d2d2;" transform="translate(33.617578 262.677969)scale(0.13 -0.13)">
       <use xlink:href="#DejaVuSans-2212"/>
       <use x="83.789062" xlink:href="#DejaVuSans-38"/>
      </g>
     </g>
    </g>
    <g id="xtick_2">
     <g id="line2d_2">
      <g>
       <use style="fill:#d2d2d2;stroke:#d2d2d2;" x="87.48" xlink:href="#m374e3fb575" y="244.8"/>
      </g>
     </g>
     <g id="text_2">
      <!-- −6 -->
      <defs>
       <path d="M 33.015625 40.375 
Q 26.375 40.375 22.484375 35.828125 
Q 18.609375 31.296875 18.609375 23.390625 
Q 18.609375 15.53125 22.484375 10.953125 
Q 26.375 6.390625 33.015625 6.390625 
Q 39.65625 6.390625 43.53125 10.953125 
Q 47.40625 15.53125 47.40625 23.390625 
Q 47.40625 31.296875 43.53125 35.828125 
Q 39.65625 40.375 33.015625 40.375 
M 52.59375 71.296875 
L 52.59375 62.3125 
Q 48.875 64.0625 45.09375 64.984375 
Q 41.3125 65.921875 37.59375 65.921875 
Q 27.828125 65.921875 22.671875 59.328125 
Q 17.53125 52.734375 16.796875 39.40625 
Q 19.671875 43.65625 24.015625 45.921875 
Q 28.375 48.1875 33.59375 48.1875 
Q 44.578125 48.1875 50.953125 41.515625 
Q 57.328125 34.859375 57.328125 23.390625 
Q 57.328125 12.15625 50.6875 5.359375 
Q 44.046875 -1.421875 33.015625 -1.421875 
Q 20.359375 -1.421875 13.671875 8.265625 
Q 6.984375 17.96875 6.984375 36.375 
Q 6.984375 53.65625 15.1875 63.9375 
Q 23.390625 74.21875 37.203125 74.21875 
Q 40.921875 74.21875 44.703125 73.484375 
Q 48.484375 72.75 52.59375 71.296875 
" id="DejaVuSans-36"/>
      </defs>
      <g style="fill:#d2d2d2;" transform="translate(77.897578 262.677969)scale(0.13 -0.13)">
       <use xlink:href="#DejaVuSans-2212"/>
       <use x="83.789062" xlink:href="#DejaVuSans-36"/>
      </g>
     </g>
    </g>
    <g id="xtick_3">
     <g id="line2d_3">
      <g>
       <use style="fill:#d2d2d2;stroke:#d2d2d2;" x="131.76" xlink:href="#m374e3fb575" y="244.8"/>
      </g>
     </g>
     <g id="text_3">
      <!-- −4 -->
      <defs>
       <path d="M 37.796875 64.3125 
L 12.890625 25.390625 
L 37.796875 25.390625 
z
M 35.203125 72.90625 
L 47.609375 72.90625 
L 47.609375 25.390625 
L 58.015625 25.390625 
L 58.015625 17.1875 
L 47.609375 17.1875 
L 47.609375 0 
L 37.796875 0 
L 37.796875 17.1875 
L 4.890625 17.1875 
L 4.890625 26.703125 
z
" id="DejaVuSans-34"/>
      </defs>
      <g style="fill:#d2d2d2;" transform="translate(122.177578 262.677969)scale(0.13 -0.13)">
       <use xlink:href="#DejaVuSans-2212"/>
       <use x="83.789062" xlink:href="#DejaVuSans-34"/>
      </g>
     </g>
    </g>
    <g id="xtick_4">
     <g id="line2d_4">
      <g>
       <use style="fill:#d2d2d2;stroke:#d2d2d2;" x="176.04" xlink:href="#m374e3fb575" y="244.8"/>
      </g>
     </g>
     <g id="text_4">
      <!-- −2 -->
      <defs>
       <path d="M 19.1875 8.296875 
L 53.609375 8.296875 
L 53.609375 0 
L 7.328125 0 
L 7.328125 8.296875 
Q 12.9375 14.109375 22.625 23.890625 
Q 32.328125 33.6875 34.8125 36.53125 
Q 39.546875 41.84375 41.421875 45.53125 
Q 43.3125 49.21875 43.3125 52.78125 
Q 43.3125 58.59375 39.234375 62.25 
Q 35.15625 65.921875 28.609375 65.921875 
Q 23.96875 65.921875 18.8125 64.3125 
Q 13.671875 62.703125 7.8125 59.421875 
L 7.8125 69.390625 
Q 13.765625 71.78125 18.9375 73 
Q 24.125 74.21875 28.421875 74.21875 
Q 39.75 74.21875 46.484375 68.546875 
Q 53.21875 62.890625 53.21875 53.421875 
Q 53.21875 48.921875 51.53125 44.890625 
Q 49.859375 40.875 45.40625 35.40625 
Q 44.1875 33.984375 37.640625 27.21875 
Q 31.109375 20.453125 19.1875 8.296875 
" id="DejaVuSans-32"/>
      </defs>
      <g style="fill:#d2d2d2;" transform="translate(166.457578 262.677969)scale(0.13 -0.13)">
       <use xlink:href="#DejaVuSans-2212"/>
       <use x="83.789062" xlink:href="#DejaVuSans-32"/>
      </g>
     </g>
    </g>
    <g id="xtick_5">
     <g id="line2d_5">
      <g>
       <use style="fill:#d2d2d2;stroke:#d2d2d2;" x="220.32" xlink:href="#m374e3fb575" y="244.8"/>
      </g>
     </g>
     <g id="text_5">
      <!-- 0 -->
      <defs>
       <path d="M 31.78125 66.40625 
Q 24.171875 66.40625 20.328125 58.90625 
Q 16.5 51.421875 16.5 36.375 
Q 16.5 21.390625 20.328125 13.890625 
Q 24.171875 6.390625 31.78125 6.390625 
Q 39.453125 6.390625 43.28125 13.890625 
Q 47.125 21.390625 47.125 36.375 
Q 47.125 51.421875 43.28125 58.90625 
Q 39.453125 66.40625 31.78125 66.40625 
M 31.78125 74.21875 
Q 44.046875 74.21875 50.515625 64.515625 
Q 56.984375 54.828125 56.984375 36.375 
Q 56.984375 17.96875 50.515625 8.265625 
Q 44.046875 -1.421875 31.78125 -1.421875 
Q 19.53125 -1.421875 13.0625 8.265625 
Q 6.59375 17.96875 6.59375 36.375 
Q 6.59375 54.828125 13.0625 64.515625 
Q 19.53125 74.21875 31.78125 74.21875 
" id="DejaVuSans-30"/>
      </defs>
      <g style="fill:#d2d2d2;" transform="translate(216.184375 262.677969)scale(0.13 -0.13)">
       <use xlink:href="#DejaVuSans-30"/>
      </g>
     </g>
    </g>
    <g id="xtick_6">
     <g id="line2d_6">
      <g>
       <use style="fill:#d2d2d2;stroke:#d2d2d2;" x="264.6" xlink:href="#m374e3fb575" y="244.8"/>
      </g>
     </g>
     <g id="text_6">
      <!-- 2 -->
      <g style="fill:#d2d2d2;" transform="translate(260.464375 262.677969)scale(0.13 -0.13)">
       <use xlink:href="#DejaVuSans-32"/>
      </g>
     </g>
    </g>
    <g id="xtick_7">
     <g id="line2d_7">
      <g>
       <use style="fill:#d2d2d2;stroke:#d2d2d2;" x="308.88" xlink:href="#m374e3fb575" y="244.8"/>
      </g>
     </g>
     <g id="text_7">
      <!-- 4 -->
      <g style="fill:#d2d2d2;" transform="translate(304.744375 262.677969)scale(0.13 -0.13)">
       <use xlink:href="#DejaVuSans-34"/>
      </g>
     </g>
    </g>
    <g id="xtick_8">
     <g id="line2d_8">
      <g>
       <use style="fill:#d2d2d2;stroke:#d2d2d2;" x="353.16" xlink:href="#m374e3fb575" y="244.8"/>
      </g>
     </g>
     <g id="text_8">
      <!-- 6 -->
      <g style="fill:#d2d2d2;" transform="translate(349.024375 262.677969)scale(0.13 -0.13)">
       <use xlink:href="#DejaVuSans-36"/>
      </g>
     </g>
    </g>
    <g id="xtick_9">
     <g id="line2d_9">
      <g>
       <use style="fill:#d2d2d2;stroke:#d2d2d2;" x="397.44" xlink:href="#m374e3fb575" y="244.8"/>
      </g>
     </g>
     <g id="text_9">
      <!-- 8 -->
      <g style="fill:#d2d2d2;" transform="translate(393.304375 262.677969)scale(0.13 -0.13)">
       <use xlink:href="#DejaVuSans-38"/>
      </g>
     </g>
    </g>
    <g id="text_10">
     <!-- x -->
     <defs>
      <path d="M 54.890625 54.6875 
L 35.109375 28.078125 
L 55.90625 0 
L 45.3125 0 
L 29.390625 21.484375 
L 13.484375 0 
L 2.875 0 
L 24.125 28.609375 
L 4.6875 54.6875 
L 15.28125 54.6875 
L 29.78125 35.203125 
L 44.28125 54.6875 
z
" id="DejaVuSans-78"/>
     </defs>
     <g style="fill:#d2d2d2;" transform="translate(216.176875 280.019375)scale(0.14 -0.14)">
      <use xlink:href="#DejaVuSans-78"/>
     </g>
    </g>
   </g>
   <g id="matplotlib.axis_2"/>
   <g id="patch_3">
    <path d="M 43.2 244.8 
L 397.44 244.8 
" style="fill:none;stroke:#d2d2d2;stroke-linecap:square;stroke-linejoin:miter;"/>
   </g>
   <g id="text_11">
    <!-- Normal distribution (z) -->
    <defs>
     <path d="M 9.8125 72.90625 
L 23.09375 72.90625 
L 55.421875 11.921875 
L 55.421875 72.90625 
L 64.984375 72.90625 
L 64.984375 0 
L 51.703125 0 
L 19.390625 60.984375 
L 19.390625 0 
L 9.8125 0 
z
" id="DejaVuSans-4e"/>
     <path d="M 30.609375 48.390625 
Q 23.390625 48.390625 19.1875 42.75 
Q 14.984375 37.109375 14.984375 27.296875 
Q 14.984375 17.484375 19.15625 11.84375 
Q 23.34375 6.203125 30.609375 6.203125 
Q 37.796875 6.203125 41.984375 11.859375 
Q 46.1875 17.53125 46.1875 27.296875 
Q 46.1875 37.015625 41.984375 42.703125 
Q 37.796875 48.390625 30.609375 48.390625 
M 30.609375 56 
Q 42.328125 56 49.015625 48.375 
Q 55.71875 40.765625 55.71875 27.296875 
Q 55.71875 13.875 49.015625 6.21875 
Q 42.328125 -1.421875 30.609375 -1.421875 
Q 18.84375 -1.421875 12.171875 6.21875 
Q 5.515625 13.875 5.515625 27.296875 
Q 5.515625 40.765625 12.171875 48.375 
Q 18.84375 56 30.609375 56 
" id="DejaVuSans-6f"/>
     <path d="M 41.109375 46.296875 
Q 39.59375 47.171875 37.8125 47.578125 
Q 36.03125 48 33.890625 48 
Q 26.265625 48 22.1875 43.046875 
Q 18.109375 38.09375 18.109375 28.8125 
L 18.109375 0 
L 9.078125 0 
L 9.078125 54.6875 
L 18.109375 54.6875 
L 18.109375 46.1875 
Q 20.953125 51.171875 25.484375 53.578125 
Q 30.03125 56 36.53125 56 
Q 37.453125 56 38.578125 55.875 
Q 39.703125 55.765625 41.0625 55.515625 
z
" id="DejaVuSans-72"/>
     <path d="M 52 44.1875 
Q 55.375 50.25 60.0625 53.125 
Q 64.75 56 71.09375 56 
Q 79.640625 56 84.28125 50.015625 
Q 88.921875 44.046875 88.921875 33.015625 
L 88.921875 0 
L 79.890625 0 
L 79.890625 32.71875 
Q 79.890625 40.578125 77.09375 44.375 
Q 74.3125 48.1875 68.609375 48.1875 
Q 61.625 48.1875 57.5625 43.546875 
Q 53.515625 38.921875 53.515625 30.90625 
L 53.515625 0 
L 44.484375 0 
L 44.484375 32.71875 
Q 44.484375 40.625 41.703125 44.40625 
Q 38.921875 48.1875 33.109375 48.1875 
Q 26.21875 48.1875 22.15625 43.53125 
Q 18.109375 38.875 18.109375 30.90625 
L 18.109375 0 
L 9.078125 0 
L 9.078125 54.6875 
L 18.109375 54.6875 
L 18.109375 46.1875 
Q 21.1875 51.21875 25.484375 53.609375 
Q 29.78125 56 35.6875 56 
Q 41.65625 56 45.828125 52.96875 
Q 50 49.953125 52 44.1875 
" id="DejaVuSans-6d"/>
     <path d="M 34.28125 27.484375 
Q 23.390625 27.484375 19.1875 25 
Q 14.984375 22.515625 14.984375 16.5 
Q 14.984375 11.71875 18.140625 8.90625 
Q 21.296875 6.109375 26.703125 6.109375 
Q 34.1875 6.109375 38.703125 11.40625 
Q 43.21875 16.703125 43.21875 25.484375 
L 43.21875 27.484375 
z
M 52.203125 31.203125 
L 52.203125 0 
L 43.21875 0 
L 43.21875 8.296875 
Q 40.140625 3.328125 35.546875 0.953125 
Q 30.953125 -1.421875 24.3125 -1.421875 
Q 15.921875 -1.421875 10.953125 3.296875 
Q 6 8.015625 6 15.921875 
Q 6 25.140625 12.171875 29.828125 
Q 18.359375 34.515625 30.609375 34.515625 
L 43.21875 34.515625 
L 43.21875 35.40625 
Q 43.21875 41.609375 39.140625 45 
Q 35.0625 48.390625 27.6875 48.390625 
Q 23 48.390625 18.546875 47.265625 
Q 14.109375 46.140625 10.015625 43.890625 
L 10.015625 52.203125 
Q 14.9375 54.109375 19.578125 55.046875 
Q 24.21875 56 28.609375 56 
Q 40.484375 56 46.34375 49.84375 
Q 52.203125 43.703125 52.203125 31.203125 
" id="DejaVuSans-61"/>
     <path d="M 9.421875 75.984375 
L 18.40625 75.984375 
L 18.40625 0 
L 9.421875 0 
z
" id="DejaVuSans-6c"/>
     <path id="DejaVuSans-20"/>
     <path d="M 45.40625 46.390625 
L 45.40625 75.984375 
L 54.390625 75.984375 
L 54.390625 0 
L 45.40625 0 
L 45.40625 8.203125 
Q 42.578125 3.328125 38.25 0.953125 
Q 33.9375 -1.421875 27.875 -1.421875 
Q 17.96875 -1.421875 11.734375 6.484375 
Q 5.515625 14.40625 5.515625 27.296875 
Q 5.515625 40.1875 11.734375 48.09375 
Q 17.96875 56 27.875 56 
Q 33.9375 56 38.25 53.625 
Q 42.578125 51.265625 45.40625 46.390625 
M 14.796875 27.296875 
Q 14.796875 17.390625 18.875 11.75 
Q 22.953125 6.109375 30.078125 6.109375 
Q 37.203125 6.109375 41.296875 11.75 
Q 45.40625 17.390625 45.40625 27.296875 
Q 45.40625 37.203125 41.296875 42.84375 
Q 37.203125 48.484375 30.078125 48.484375 
Q 22.953125 48.484375 18.875 42.84375 
Q 14.796875 37.203125 14.796875 27.296875 
" id="DejaVuSans-64"/>
     <path d="M 9.421875 54.6875 
L 18.40625 54.6875 
L 18.40625 0 
L 9.421875 0 
z
M 9.421875 75.984375 
L 18.40625 75.984375 
L 18.40625 64.59375 
L 9.421875 64.59375 
z
" id="DejaVuSans-69"/>
     <path d="M 44.28125 53.078125 
L 44.28125 44.578125 
Q 40.484375 46.53125 36.375 47.5 
Q 32.28125 48.484375 27.875 48.484375 
Q 21.1875 48.484375 17.84375 46.4375 
Q 14.5 44.390625 14.5 40.28125 
Q 14.5 37.15625 16.890625 35.375 
Q 19.28125 33.59375 26.515625 31.984375 
L 29.59375 31.296875 
Q 39.15625 29.25 43.1875 25.515625 
Q 47.21875 21.78125 47.21875 15.09375 
Q 47.21875 7.46875 41.1875 3.015625 
Q 35.15625 -1.421875 24.609375 -1.421875 
Q 20.21875 -1.421875 15.453125 -0.5625 
Q 10.6875 0.296875 5.421875 2 
L 5.421875 11.28125 
Q 10.40625 8.6875 15.234375 7.390625 
Q 20.0625 6.109375 24.8125 6.109375 
Q 31.15625 6.109375 34.5625 8.28125 
Q 37.984375 10.453125 37.984375 14.40625 
Q 37.984375 18.0625 35.515625 20.015625 
Q 33.0625 21.96875 24.703125 23.78125 
L 21.578125 24.515625 
Q 13.234375 26.265625 9.515625 29.90625 
Q 5.8125 33.546875 5.8125 39.890625 
Q 5.8125 47.609375 11.28125 51.796875 
Q 16.75 56 26.8125 56 
Q 31.78125 56 36.171875 55.265625 
Q 40.578125 54.546875 44.28125 53.078125 
" id="DejaVuSans-73"/>
     <path d="M 18.3125 70.21875 
L 18.3125 54.6875 
L 36.8125 54.6875 
L 36.8125 47.703125 
L 18.3125 47.703125 
L 18.3125 18.015625 
Q 18.3125 11.328125 20.140625 9.421875 
Q 21.96875 7.515625 27.59375 7.515625 
L 36.8125 7.515625 
L 36.8125 0 
L 27.59375 0 
Q 17.1875 0 13.234375 3.875 
Q 9.28125 7.765625 9.28125 18.015625 
L 9.28125 47.703125 
L 2.6875 47.703125 
L 2.6875 54.6875 
L 9.28125 54.6875 
L 9.28125 70.21875 
z
" id="DejaVuSans-74"/>
     <path d="M 48.6875 27.296875 
Q 48.6875 37.203125 44.609375 42.84375 
Q 40.53125 48.484375 33.40625 48.484375 
Q 26.265625 48.484375 22.1875 42.84375 
Q 18.109375 37.203125 18.109375 27.296875 
Q 18.109375 17.390625 22.1875 11.75 
Q 26.265625 6.109375 33.40625 6.109375 
Q 40.53125 6.109375 44.609375 11.75 
Q 48.6875 17.390625 48.6875 27.296875 
M 18.109375 46.390625 
Q 20.953125 51.265625 25.265625 53.625 
Q 29.59375 56 35.59375 56 
Q 45.5625 56 51.78125 48.09375 
Q 58.015625 40.1875 58.015625 27.296875 
Q 58.015625 14.40625 51.78125 6.484375 
Q 45.5625 -1.421875 35.59375 -1.421875 
Q 29.59375 -1.421875 25.265625 0.953125 
Q 20.953125 3.328125 18.109375 8.203125 
L 18.109375 0 
L 9.078125 0 
L 9.078125 75.984375 
L 18.109375 75.984375 
z
" id="DejaVuSans-62"/>
     <path d="M 8.5 21.578125 
L 8.5 54.6875 
L 17.484375 54.6875 
L 17.484375 21.921875 
Q 17.484375 14.15625 20.5 10.265625 
Q 23.53125 6.390625 29.59375 6.390625 
Q 36.859375 6.390625 41.078125 11.03125 
Q 45.3125 15.671875 45.3125 23.6875 
L 45.3125 54.6875 
L 54.296875 54.6875 
L 54.296875 0 
L 45.3125 0 
L 45.3125 8.40625 
Q 42.046875 3.421875 37.71875 1 
Q 33.40625 -1.421875 27.6875 -1.421875 
Q 18.265625 -1.421875 13.375 4.4375 
Q 8.5 10.296875 8.5 21.578125 
M 31.109375 56 
z
" id="DejaVuSans-75"/>
     <path d="M 54.890625 33.015625 
L 54.890625 0 
L 45.90625 0 
L 45.90625 32.71875 
Q 45.90625 40.484375 42.875 44.328125 
Q 39.84375 48.1875 33.796875 48.1875 
Q 26.515625 48.1875 22.3125 43.546875 
Q 18.109375 38.921875 18.109375 30.90625 
L 18.109375 0 
L 9.078125 0 
L 9.078125 54.6875 
L 18.109375 54.6875 
L 18.109375 46.1875 
Q 21.34375 51.125 25.703125 53.5625 
Q 30.078125 56 35.796875 56 
Q 45.21875 56 50.046875 50.171875 
Q 54.890625 44.34375 54.890625 33.015625 
" id="DejaVuSans-6e"/>
     <path d="M 31 75.875 
Q 24.46875 64.65625 21.28125 53.65625 
Q 18.109375 42.671875 18.109375 31.390625 
Q 18.109375 20.125 21.3125 9.0625 
Q 24.515625 -2 31 -13.1875 
L 23.1875 -13.1875 
Q 15.875 -1.703125 12.234375 9.375 
Q 8.59375 20.453125 8.59375 31.390625 
Q 8.59375 42.28125 12.203125 53.3125 
Q 15.828125 64.359375 23.1875 75.875 
z
" id="DejaVuSans-28"/>
     <path d="M 5.515625 54.6875 
L 48.1875 54.6875 
L 48.1875 46.484375 
L 14.40625 7.171875 
L 48.1875 7.171875 
L 48.1875 0 
L 4.296875 0 
L 4.296875 8.203125 
L 38.09375 47.515625 
L 5.515625 47.515625 
z
" id="DejaVuSans-7a"/>
     <path d="M 8.015625 75.875 
L 15.828125 75.875 
Q 23.140625 64.359375 26.78125 53.3125 
Q 30.421875 42.28125 30.421875 31.390625 
Q 30.421875 20.453125 26.78125 9.375 
Q 23.140625 -1.703125 15.828125 -13.1875 
L 8.015625 -13.1875 
Q 14.5 -2 17.703125 9.0625 
Q 20.90625 20.125 20.90625 31.390625 
Q 20.90625 42.671875 17.703125 53.65625 
Q 14.5 64.65625 8.015625 75.875 
" id="DejaVuSans-29"/>
    </defs>
    <g style="fill:#f0ad4e;" transform="translate(242.46 66.704793)scale(0.14 -0.14)">
     <use xlink:href="#DejaVuSans-4e"/>
     <use x="74.804688" xlink:href="#DejaVuSans-6f"/>
     <use x="135.986328" xlink:href="#DejaVuSans-72"/>
     <use x="177.083984" xlink:href="#DejaVuSans-6d"/>
     <use x="274.496094" xlink:href="#DejaVuSans-61"/>
     <use x="335.775391" xlink:href="#DejaVuSans-6c"/>
     <use x="363.558594" xlink:href="#DejaVuSans-20"/>
     <use x="395.345703" xlink:href="#DejaVuSans-64"/>
     <use x="458.822266" xlink:href="#DejaVuSans-69"/>
     <use x="486.605469" xlink:href="#DejaVuSans-73"/>
     <use x="538.705078" xlink:href="#DejaVuSans-74"/>
     <use x="577.914062" xlink:href="#DejaVuSans-72"/>
     <use x="619.027344" xlink:href="#DejaVuSans-69"/>
     <use x="646.810547" xlink:href="#DejaVuSans-62"/>
     <use x="710.287109" xlink:href="#DejaVuSans-75"/>
     <use x="773.666016" xlink:href="#DejaVuSans-74"/>
     <use x="812.875" xlink:href="#DejaVuSans-69"/>
     <use x="840.658203" xlink:href="#DejaVuSans-6f"/>
     <use x="901.839844" xlink:href="#DejaVuSans-6e"/>
     <use x="965.21875" xlink:href="#DejaVuSans-20"/>
     <use x="997.005859" xlink:href="#DejaVuSans-28"/>
     <use x="1036.019531" xlink:href="#DejaVuSans-7a"/>
     <use x="1088.509766" xlink:href="#DejaVuSans-29"/>
    </g>
   </g>
   <g id="text_12">
    <!-- t distribution -->
    <g style="fill:#5bc0de;" transform="translate(286.74 219.357828)scale(0.14 -0.14)">
     <use xlink:href="#DejaVuSans-74"/>
     <use x="39.208984" xlink:href="#DejaVuSans-20"/>
     <use x="70.996094" xlink:href="#DejaVuSans-64"/>
     <use x="134.472656" xlink:href="#DejaVuSans-69"/>
     <use x="162.255859" xlink:href="#DejaVuSans-73"/>
     <use x="214.355469" xlink:href="#DejaVuSans-74"/>
     <use x="253.564453" xlink:href="#DejaVuSans-72"/>
     <use x="294.677734" xlink:href="#DejaVuSans-69"/>
     <use x="322.460938" xlink:href="#DejaVuSans-62"/>
     <use x="385.9375" xlink:href="#DejaVuSans-75"/>
     <use x="449.316406" xlink:href="#DejaVuSans-74"/>
     <use x="488.525391" xlink:href="#DejaVuSans-69"/>
     <use x="516.308594" xlink:href="#DejaVuSans-6f"/>
     <use x="577.490234" xlink:href="#DejaVuSans-6e"/>
    </g>
   </g>
   <g id="PolyCollection_1">
    <defs>
     <path d="M 125.895318 -43.2 
L 125.895318 -43.22279 
L 127.912141 -43.233471 
L 129.928964 -43.248751 
L 131.945787 -43.270421 
L 133.962611 -43.300882 
L 135.979434 -43.343325 
L 137.996257 -43.401942 
L 140.01308 -43.482182 
L 142.029903 -43.591044 
L 144.046727 -43.737427 
L 146.06355 -43.932503 
L 148.080373 -44.190137 
L 150.097196 -44.527325 
L 152.114019 -44.964638 
L 154.130843 -45.526644 
L 156.147666 -46.24229 
L 158.164489 -47.145184 
L 160.181312 -48.273763 
L 162.198135 -49.671267 
L 164.214959 -51.385487 
L 166.231782 -53.468239 
L 168.248605 -55.974489 
L 170.265428 -58.961127 
L 172.282251 -62.485335 
L 174.299075 -66.602554 
L 176.315898 -71.364075 
L 178.332721 -76.814287 
L 180.349544 -82.987667 
L 182.366367 -89.905628 
L 184.38319 -97.573354 
L 186.400014 -105.976804 
L 188.416837 -115.080061 
L 190.43366 -124.823243 
L 192.450483 -135.121144 
L 194.467306 -145.862813 
L 196.48413 -156.9122 
L 198.500953 -168.109979 
L 200.517776 -179.276576 
L 202.534599 -190.216398 
L 204.551422 -200.723136 
L 206.568246 -210.585983 
L 208.585069 -219.596511 
L 210.601892 -227.555909 
L 212.618715 -234.282229 
L 214.635538 -239.617284 
L 216.652362 -243.432823 
L 218.669185 -245.635655 
L 220.686008 -246.171429 
L 222.702831 -245.026866 
L 224.719654 -242.230306 
L 226.736478 -237.85054 
L 228.753301 -231.993997 
L 230.770124 -224.800448 
L 232.786947 -216.437463 
L 234.80377 -207.093935 
L 236.820594 -196.97301 
L 238.837417 -186.284804 
L 240.85424 -175.23926 
L 242.871063 -164.03947 
L 244.887886 -152.875775 
L 246.90471 -141.920825 
L 248.921533 -131.325787 
L 250.938356 -121.217747 
L 252.955179 -111.698328 
L 254.972002 -102.843442 
L 256.988826 -94.704076 
L 259.005649 -87.307928 
L 261.022472 -80.661735 
L 263.039295 -74.754063 
L 265.056118 -69.558388 
L 267.072942 -65.036276 
L 269.089765 -61.140497 
L 271.106588 -57.817952 
L 273.123411 -55.012308 
L 275.140234 -52.666276 
L 277.157058 -50.723496 
L 279.173881 -49.130024 
L 281.190704 -47.835423 
L 283.207527 -46.793506 
L 285.22435 -45.962763 
L 287.241173 -45.306517 
L 289.257997 -44.792878 
L 291.27482 -44.394528 
L 293.291643 -44.088395 
L 295.308466 -43.855258 
L 297.325289 -43.679308 
L 299.342113 -43.547707 
L 301.358936 -43.450154 
L 303.375759 -43.378484 
L 305.392582 -43.326295 
L 307.409405 -43.288627 
L 309.426229 -43.26168 
L 311.443052 -43.242572 
L 313.459875 -43.22914 
L 315.476698 -43.219782 
L 317.493521 -43.213318 
L 319.510345 -43.208892 
L 321.527168 -43.205888 
L 323.543991 -43.203866 
L 325.560814 -43.202518 
L 325.560814 -43.2 
L 325.560814 -43.2 
L 323.543991 -43.2 
L 321.527168 -43.2 
L 319.510345 -43.2 
L 317.493521 -43.2 
L 315.476698 -43.2 
L 313.459875 -43.2 
L 311.443052 -43.2 
L 309.426229 -43.2 
L 307.409405 -43.2 
L 305.392582 -43.2 
L 303.375759 -43.2 
L 301.358936 -43.2 
L 299.342113 -43.2 
L 297.325289 -43.2 
L 295.308466 -43.2 
L 293.291643 -43.2 
L 291.27482 -43.2 
L 289.257997 -43.2 
L 287.241173 -43.2 
L 285.22435 -43.2 
L 283.207527 -43.2 
L 281.190704 -43.2 
L 279.173881 -43.2 
L 277.157058 -43.2 
L 275.140234 -43.2 
L 273.123411 -43.2 
L 271.106588 -43.2 
L 269.089765 -43.2 
L 267.072942 -43.2 
L 265.056118 -43.2 
L 263.039295 -43.2 
L 261.022472 -43.2 
L 259.005649 -43.2 
L 256.988826 -43.2 
L 254.972002 -43.2 
L 252.955179 -43.2 
L 250.938356 -43.2 
L 248.921533 -43.2 
L 246.90471 -43.2 
L 244.887886 -43.2 
L 242.871063 -43.2 
L 240.85424 -43.2 
L 238.837417 -43.2 
L 236.820594 -43.2 
L 234.80377 -43.2 
L 232.786947 -43.2 
L 230.770124 -43.2 
L 228.753301 -43.2 
L 226.736478 -43.2 
L 224.719654 -43.2 
L 222.702831 -43.2 
L 220.686008 -43.2 
L 218.669185 -43.2 
L 216.652362 -43.2 
L 214.635538 -43.2 
L 212.618715 -43.2 
L 210.601892 -43.2 
L 208.585069 -43.2 
L 206.568246 -43.2 
L 204.551422 -43.2 
L 202.534599 -43.2 
L 200.517776 -43.2 
L 198.500953 -43.2 
L 196.48413 -43.2 
L 194.467306 -43.2 
L 192.450483 -43.2 
L 190.43366 -43.2 
L 188.416837 -43.2 
L 186.400014 -43.2 
L 184.38319 -43.2 
L 182.366367 -43.2 
L 180.349544 -43.2 
L 178.332721 -43.2 
L 176.315898 -43.2 
L 174.299075 -43.2 
L 172.282251 -43.2 
L 170.265428 -43.2 
L 168.248605 -43.2 
L 166.231782 -43.2 
L 164.214959 -43.2 
L 162.198135 -43.2 
L 160.181312 -43.2 
L 158.164489 -43.2 
L 156.147666 -43.2 
L 154.130843 -43.2 
L 152.114019 -43.2 
L 150.097196 -43.2 
L 148.080373 -43.2 
L 146.06355 -43.2 
L 144.046727 -43.2 
L 142.029903 -43.2 
L 140.01308 -43.2 
L 137.996257 -43.2 
L 135.979434 -43.2 
L 133.962611 -43.2 
L 131.945787 -43.2 
L 129.928964 -43.2 
L 127.912141 -43.2 
L 125.895318 -43.2 
z
" id="m77ebde3081" style="stroke:#f0ad4e;stroke-opacity:0.7;"/>
    </defs>
    <g clip-path="url(#p72f22f6ee6)">
     <use style="fill:#f0ad4e;fill-opacity:0.7;stroke:#f0ad4e;stroke-opacity:0.7;" x="0" xlink:href="#m77ebde3081" y="288"/>
    </g>
   </g>
  </g>
  <g id="axes_2">
   <g id="PolyCollection_2">
    <path clip-path="url(#p72f22f6ee6)" d="M -1.08 244.8 
L -1.08 244.306049 
L -0.636757 244.303129 
L -0.193514 244.300186 
L 0.24973 244.29722 
L 0.692973 244.294231 
L 1.136216 244.291218 
L 1.579459 244.288181 
L 2.022703 244.28512 
L 2.465946 244.282035 
L 2.909189 244.278925 
L 3.352432 244.27579 
L 3.795676 244.27263 
L 4.238919 244.269445 
L 4.682162 244.266235 
L 5.125405 244.262998 
L 5.568649 244.259736 
L 6.011892 244.256447 
L 6.455135 244.253131 
L 6.898378 244.249789 
L 7.341622 244.246419 
L 7.784865 244.243022 
L 8.228108 244.239598 
L 8.671351 244.236145 
L 9.114595 244.232664 
L 9.557838 244.229155 
L 10.001081 244.225617 
L 10.444324 244.222049 
L 10.887568 244.218453 
L 11.330811 244.214826 
L 11.774054 244.211169 
L 12.217297 244.207482 
L 12.660541 244.203765 
L 13.103784 244.200016 
L 13.547027 244.196236 
L 13.99027 244.192425 
L 14.433514 244.188581 
L 14.876757 244.184705 
L 15.32 244.180797 
L 15.763243 244.176855 
L 16.206486 244.172881 
L 16.64973 244.168872 
L 17.092973 244.16483 
L 17.536216 244.160753 
L 17.979459 244.156641 
L 18.422703 244.152495 
L 18.865946 244.148312 
L 19.309189 244.144094 
L 19.752432 244.13984 
L 20.195676 244.135549 
L 20.638919 244.131221 
L 21.082162 244.126855 
L 21.525405 244.122452 
L 21.968649 244.11801 
L 22.411892 244.11353 
L 22.855135 244.109011 
L 23.298378 244.104452 
L 23.741622 244.099853 
L 24.184865 244.095214 
L 24.628108 244.090534 
L 25.071351 244.085813 
L 25.514595 244.08105 
L 25.957838 244.076245 
L 26.401081 244.071397 
L 26.844324 244.066506 
L 27.287568 244.061572 
L 27.730811 244.056593 
L 28.174054 244.05157 
L 28.617297 244.046502 
L 29.060541 244.041389 
L 29.503784 244.036229 
L 29.947027 244.031023 
L 30.39027 244.025769 
L 30.833514 244.020468 
L 31.276757 244.015119 
L 31.72 244.009721 
L 32.163243 244.004274 
L 32.606486 243.998777 
L 33.04973 243.99323 
L 33.492973 243.987631 
L 33.936216 243.981982 
L 34.379459 243.97628 
L 34.822703 243.970525 
L 35.265946 243.964717 
L 35.709189 243.958855 
L 36.152432 243.952938 
L 36.595676 243.946966 
L 37.038919 243.940938 
L 37.482162 243.934854 
L 37.925405 243.928713 
L 38.368649 243.922513 
L 38.811892 243.916256 
L 39.255135 243.909939 
L 39.698378 243.903562 
L 40.141622 243.897124 
L 40.584865 243.890626 
L 41.028108 243.884065 
L 41.471351 243.877441 
L 41.914595 243.870754 
L 42.357838 243.864003 
L 42.801081 243.857187 
L 43.244324 243.850304 
L 43.687568 243.843355 
L 44.130811 243.836339 
L 44.574054 243.829255 
L 45.017297 243.822101 
L 45.460541 243.814878 
L 45.903784 243.807583 
L 46.347027 243.800218 
L 46.79027 243.792779 
L 47.233514 243.785268 
L 47.676757 243.777682 
L 48.12 243.770021 
L 48.563243 243.762284 
L 49.006486 243.754469 
L 49.44973 243.746577 
L 49.892973 243.738606 
L 50.336216 243.730555 
L 50.779459 243.722423 
L 51.222703 243.714209 
L 51.665946 243.705912 
L 52.109189 243.697531 
L 52.552432 243.689065 
L 52.995676 243.680513 
L 53.438919 243.671873 
L 53.882162 243.663146 
L 54.325405 243.654328 
L 54.768649 243.645421 
L 55.211892 243.636421 
L 55.655135 243.627329 
L 56.098378 243.618142 
L 56.541622 243.60886 
L 56.984865 243.599482 
L 57.428108 243.590005 
L 57.871351 243.58043 
L 58.314595 243.570754 
L 58.757838 243.560977 
L 59.201081 243.551097 
L 59.644324 243.541112 
L 60.087568 243.531022 
L 60.530811 243.520825 
L 60.974054 243.510519 
L 61.417297 243.500103 
L 61.860541 243.489576 
L 62.303784 243.478936 
L 62.747027 243.468181 
L 63.19027 243.457311 
L 63.633514 243.446323 
L 64.076757 243.435217 
L 64.52 243.423989 
L 64.963243 243.41264 
L 65.406486 243.401166 
L 65.84973 243.389567 
L 66.292973 243.377841 
L 66.736216 243.365986 
L 67.179459 243.354 
L 67.622703 243.341882 
L 68.065946 243.329629 
L 68.509189 243.31724 
L 68.952432 243.304713 
L 69.395676 243.292046 
L 69.838919 243.279237 
L 70.282162 243.266284 
L 70.725405 243.253185 
L 71.168649 243.239938 
L 71.611892 243.226541 
L 72.055135 243.212993 
L 72.498378 243.19929 
L 72.941622 243.18543 
L 73.384865 243.171412 
L 73.828108 243.157233 
L 74.271351 243.142891 
L 74.714595 243.128383 
L 75.157838 243.113708 
L 75.601081 243.098862 
L 76.044324 243.083843 
L 76.487568 243.06865 
L 76.930811 243.053278 
L 77.374054 243.037727 
L 77.817297 243.021992 
L 78.260541 243.006072 
L 78.703784 242.989963 
L 79.147027 242.973664 
L 79.59027 242.95717 
L 80.033514 242.94048 
L 80.476757 242.92359 
L 80.92 242.906498 
L 81.363243 242.8892 
L 81.806486 242.871694 
L 82.24973 242.853976 
L 82.692973 242.836042 
L 83.136216 242.817891 
L 83.579459 242.799519 
L 84.022703 242.780921 
L 84.465946 242.762096 
L 84.909189 242.743038 
L 85.352432 242.723746 
L 85.795676 242.704215 
L 86.238919 242.684442 
L 86.682162 242.664422 
L 87.125405 242.644153 
L 87.568649 242.62363 
L 88.011892 242.602849 
L 88.455135 242.581807 
L 88.898378 242.560499 
L 89.341622 242.538921 
L 89.784865 242.517069 
L 90.228108 242.494939 
L 90.671351 242.472526 
L 91.114595 242.449825 
L 91.557838 242.426833 
L 92.001081 242.403545 
L 92.444324 242.379955 
L 92.887568 242.35606 
L 93.330811 242.331853 
L 93.774054 242.307331 
L 94.217297 242.282488 
L 94.660541 242.257319 
L 95.103784 242.231819 
L 95.547027 242.205982 
L 95.99027 242.179803 
L 96.433514 242.153275 
L 96.876757 242.126395 
L 97.32 242.099155 
L 97.763243 242.07155 
L 98.206486 242.043574 
L 98.64973 242.01522 
L 99.092973 241.986483 
L 99.536216 241.957356 
L 99.979459 241.927832 
L 100.422703 241.897904 
L 100.865946 241.867567 
L 101.309189 241.836813 
L 101.752432 241.805635 
L 102.195676 241.774026 
L 102.638919 241.741978 
L 103.082162 241.709484 
L 103.525405 241.676537 
L 103.968649 241.643128 
L 104.411892 241.609249 
L 104.855135 241.574894 
L 105.298378 241.540052 
L 105.741622 241.504716 
L 106.184865 241.468878 
L 106.628108 241.432527 
L 107.071351 241.395657 
L 107.514595 241.358256 
L 107.957838 241.320316 
L 108.401081 241.281828 
L 108.844324 241.242781 
L 109.287568 241.203166 
L 109.730811 241.162972 
L 110.174054 241.122189 
L 110.617297 241.080807 
L 111.060541 241.038815 
L 111.503784 240.996201 
L 111.947027 240.952955 
L 112.39027 240.909065 
L 112.833514 240.864518 
L 113.276757 240.819304 
L 113.72 240.77341 
L 114.163243 240.726823 
L 114.606486 240.67953 
L 115.04973 240.631519 
L 115.492973 240.582776 
L 115.936216 240.533287 
L 116.379459 240.483038 
L 116.822703 240.432016 
L 117.265946 240.380205 
L 117.709189 240.327591 
L 118.152432 240.274158 
L 118.595676 240.219891 
L 119.038919 240.164774 
L 119.482162 240.10879 
L 119.925405 240.051924 
L 120.368649 239.994157 
L 120.811892 239.935473 
L 121.255135 239.875854 
L 121.698378 239.815281 
L 122.141622 239.753736 
L 122.584865 239.691201 
L 123.028108 239.627654 
L 123.471351 239.563077 
L 123.914595 239.49745 
L 124.357838 239.430751 
L 124.801081 239.362958 
L 125.244324 239.294052 
L 125.687568 239.224007 
L 126.130811 239.152803 
L 126.574054 239.080416 
L 127.017297 239.006821 
L 127.460541 238.931995 
L 127.903784 238.855912 
L 128.347027 238.778546 
L 128.79027 238.699872 
L 129.233514 238.619862 
L 129.676757 238.538489 
L 130.12 238.455724 
L 130.563243 238.37154 
L 131.006486 238.285905 
L 131.44973 238.198791 
L 131.892973 238.110166 
L 132.336216 238.019997 
L 132.779459 237.928254 
L 133.222703 237.834902 
L 133.665946 237.739907 
L 134.109189 237.643234 
L 134.552432 237.544848 
L 134.995676 237.444712 
L 135.438919 237.342788 
L 135.882162 237.239037 
L 136.325405 237.133421 
L 136.768649 237.025898 
L 137.211892 236.916427 
L 137.655135 236.804966 
L 138.098378 236.69147 
L 138.541622 236.575896 
L 138.984865 236.458198 
L 139.428108 236.338328 
L 139.871351 236.216238 
L 140.314595 236.091879 
L 140.757838 235.965201 
L 141.201081 235.83615 
L 141.644324 235.704675 
L 142.087568 235.570721 
L 142.530811 235.43423 
L 142.974054 235.295147 
L 143.417297 235.153412 
L 143.860541 235.008964 
L 144.303784 234.861741 
L 144.747027 234.711681 
L 145.19027 234.558716 
L 145.633514 234.402782 
L 146.076757 234.243808 
L 146.52 234.081724 
L 146.963243 233.916458 
L 147.406486 233.747935 
L 147.84973 233.576079 
L 148.292973 233.400813 
L 148.736216 233.222054 
L 149.179459 233.039722 
L 149.622703 232.853731 
L 150.065946 232.663995 
L 150.509189 232.470424 
L 150.952432 232.272927 
L 151.395676 232.071409 
L 151.838919 231.865775 
L 152.282162 231.655925 
L 152.725405 231.441757 
L 153.168649 231.223167 
L 153.611892 231.000047 
L 154.055135 230.772289 
L 154.498378 230.539777 
L 154.941622 230.302397 
L 155.384865 230.06003 
L 155.828108 229.812551 
L 156.271351 229.559837 
L 156.714595 229.301758 
L 157.157838 229.038182 
L 157.601081 228.768971 
L 158.044324 228.493987 
L 158.487568 228.213087 
L 158.930811 227.926122 
L 159.374054 227.632941 
L 159.817297 227.33339 
L 160.260541 227.027308 
L 160.703784 226.714532 
L 161.147027 226.394893 
L 161.59027 226.06822 
L 162.033514 225.734335 
L 162.476757 225.393056 
L 162.92 225.044197 
L 163.363243 224.687565 
L 163.806486 224.322965 
L 164.24973 223.950194 
L 164.692973 223.569045 
L 165.136216 223.179307 
L 165.579459 222.78076 
L 166.022703 222.373182 
L 166.465946 221.956343 
L 166.909189 221.530007 
L 167.352432 221.093935 
L 167.795676 220.647878 
L 168.238919 220.191583 
L 168.682162 219.724791 
L 169.125405 219.247235 
L 169.568649 218.758642 
L 170.011892 218.258734 
L 170.455135 217.747224 
L 170.898378 217.223819 
L 171.341622 216.688221 
L 171.784865 216.140121 
L 172.228108 215.579207 
L 172.671351 215.005157 
L 173.114595 214.417645 
L 173.557838 213.816334 
L 174.001081 213.200882 
L 174.444324 212.570941 
L 174.887568 211.926153 
L 175.330811 211.266154 
L 175.774054 210.590573 
L 176.217297 209.899033 
L 176.660541 209.191148 
L 177.103784 208.466525 
L 177.547027 207.724767 
L 177.99027 206.965468 
L 178.433514 206.188215 
L 178.876757 205.392592 
L 179.32 204.578173 
L 179.763243 203.74453 
L 180.206486 202.891227 
L 180.64973 202.017825 
L 181.092973 201.12388 
L 181.536216 200.208943 
L 181.979459 199.272564 
L 182.422703 198.314287 
L 182.865946 197.333657 
L 183.309189 196.330216 
L 183.752432 195.303506 
L 184.195676 194.253069 
L 184.638919 193.178448 
L 185.082162 192.079191 
L 185.525405 190.954845 
L 185.968649 189.804968 
L 186.411892 188.629119 
L 186.855135 187.426867 
L 187.298378 186.197791 
L 187.741622 184.94148 
L 188.184865 183.657538 
L 188.628108 182.345581 
L 189.071351 181.005244 
L 189.514595 179.636183 
L 189.957838 178.238072 
L 190.401081 176.810614 
L 190.844324 175.353536 
L 191.287568 173.866596 
L 191.730811 172.349586 
L 192.174054 170.802335 
L 192.617297 169.224709 
L 193.060541 167.61662 
L 193.503784 165.978027 
L 193.947027 164.308941 
L 194.39027 162.609425 
L 194.833514 160.879604 
L 195.276757 159.119666 
L 195.72 157.329869 
L 196.163243 155.51054 
L 196.606486 153.662088 
L 197.04973 151.785002 
L 197.492973 149.879858 
L 197.936216 147.947326 
L 198.379459 145.988172 
L 198.822703 144.003264 
L 199.265946 141.993578 
L 199.709189 139.960201 
L 200.152432 137.904337 
L 200.595676 135.827312 
L 201.038919 133.730575 
L 201.482162 131.615706 
L 201.925405 129.484418 
L 202.368649 127.338561 
L 202.811892 125.180122 
L 203.255135 123.011233 
L 203.698378 120.834165 
L 204.141622 118.651337 
L 204.584865 116.465312 
L 205.028108 114.278796 
L 205.471351 112.094639 
L 205.914595 109.915833 
L 206.357838 107.745505 
L 206.801081 105.586919 
L 207.244324 103.443464 
L 207.687568 101.318652 
L 208.130811 99.216109 
L 208.574054 97.139565 
L 209.017297 95.092845 
L 209.460541 93.079859 
L 209.903784 91.104586 
L 210.347027 89.171062 
L 210.79027 87.283365 
L 211.233514 85.445599 
L 211.676757 83.661876 
L 212.12 81.936299 
L 212.563243 80.272941 
L 213.006486 78.675828 
L 213.44973 77.148914 
L 213.892973 75.696069 
L 214.336216 74.321046 
L 214.779459 73.02747 
L 215.222703 71.818813 
L 215.665946 70.698373 
L 216.109189 69.669254 
L 216.552432 68.734349 
L 216.995676 67.896317 
L 217.438919 67.15757 
L 217.882162 66.520257 
L 218.325405 65.986247 
L 218.768649 65.557115 
L 219.211892 65.23414 
L 219.655135 65.018283 
L 220.098378 64.910192 
L 220.541622 64.910192 
L 220.984865 65.018283 
L 221.428108 65.23414 
L 221.871351 65.557115 
L 222.314595 65.986247 
L 222.757838 66.520257 
L 223.201081 67.15757 
L 223.644324 67.896317 
L 224.087568 68.734349 
L 224.530811 69.669254 
L 224.974054 70.698373 
L 225.417297 71.818813 
L 225.860541 73.02747 
L 226.303784 74.321046 
L 226.747027 75.696069 
L 227.19027 77.148914 
L 227.633514 78.675828 
L 228.076757 80.272941 
L 228.52 81.936299 
L 228.963243 83.661876 
L 229.406486 85.445599 
L 229.84973 87.283365 
L 230.292973 89.171062 
L 230.736216 91.104586 
L 231.179459 93.079859 
L 231.622703 95.092845 
L 232.065946 97.139565 
L 232.509189 99.216109 
L 232.952432 101.318652 
L 233.395676 103.443464 
L 233.838919 105.586919 
L 234.282162 107.745505 
L 234.725405 109.915833 
L 235.168649 112.094639 
L 235.611892 114.278796 
L 236.055135 116.465312 
L 236.498378 118.651337 
L 236.941622 120.834165 
L 237.384865 123.011233 
L 237.828108 125.180122 
L 238.271351 127.338561 
L 238.714595 129.484418 
L 239.157838 131.615706 
L 239.601081 133.730575 
L 240.044324 135.827312 
L 240.487568 137.904337 
L 240.930811 139.960201 
L 241.374054 141.993578 
L 241.817297 144.003264 
L 242.260541 145.988172 
L 242.703784 147.947326 
L 243.147027 149.879858 
L 243.59027 151.785002 
L 244.033514 153.662088 
L 244.476757 155.51054 
L 244.92 157.329869 
L 245.363243 159.119666 
L 245.806486 160.879604 
L 246.24973 162.609425 
L 246.692973 164.308941 
L 247.136216 165.978027 
L 247.579459 167.61662 
L 248.022703 169.224709 
L 248.465946 170.802335 
L 248.909189 172.349586 
L 249.352432 173.866596 
L 249.795676 175.353536 
L 250.238919 176.810614 
L 250.682162 178.238072 
L 251.125405 179.636183 
L 251.568649 181.005244 
L 252.011892 182.345581 
L 252.455135 183.657538 
L 252.898378 184.94148 
L 253.341622 186.197791 
L 253.784865 187.426867 
L 254.228108 188.629119 
L 254.671351 189.804968 
L 255.114595 190.954845 
L 255.557838 192.079191 
L 256.001081 193.178448 
L 256.444324 194.253069 
L 256.887568 195.303506 
L 257.330811 196.330216 
L 257.774054 197.333657 
L 258.217297 198.314287 
L 258.660541 199.272564 
L 259.103784 200.208943 
L 259.547027 201.12388 
L 259.99027 202.017825 
L 260.433514 202.891227 
L 260.876757 203.74453 
L 261.32 204.578173 
L 261.763243 205.392592 
L 262.206486 206.188215 
L 262.64973 206.965468 
L 263.092973 207.724767 
L 263.536216 208.466525 
L 263.979459 209.191148 
L 264.422703 209.899033 
L 264.865946 210.590573 
L 265.309189 211.266154 
L 265.752432 211.926153 
L 266.195676 212.570941 
L 266.638919 213.200882 
L 267.082162 213.816334 
L 267.525405 214.417645 
L 267.968649 215.005157 
L 268.411892 215.579207 
L 268.855135 216.140121 
L 269.298378 216.688221 
L 269.741622 217.223819 
L 270.184865 217.747224 
L 270.628108 218.258734 
L 271.071351 218.758642 
L 271.514595 219.247235 
L 271.957838 219.724791 
L 272.401081 220.191583 
L 272.844324 220.647878 
L 273.287568 221.093935 
L 273.730811 221.530007 
L 274.174054 221.956343 
L 274.617297 222.373182 
L 275.060541 222.78076 
L 275.503784 223.179307 
L 275.947027 223.569045 
L 276.39027 223.950194 
L 276.833514 224.322965 
L 277.276757 224.687565 
L 277.72 225.044197 
L 278.163243 225.393056 
L 278.606486 225.734335 
L 279.04973 226.06822 
L 279.492973 226.394893 
L 279.936216 226.714532 
L 280.379459 227.027308 
L 280.822703 227.33339 
L 281.265946 227.632941 
L 281.709189 227.926122 
L 282.152432 228.213087 
L 282.595676 228.493987 
L 283.038919 228.768971 
L 283.482162 229.038182 
L 283.925405 229.301758 
L 284.368649 229.559837 
L 284.811892 229.812551 
L 285.255135 230.06003 
L 285.698378 230.302397 
L 286.141622 230.539777 
L 286.584865 230.772289 
L 287.028108 231.000047 
L 287.471351 231.223167 
L 287.914595 231.441757 
L 288.357838 231.655925 
L 288.801081 231.865775 
L 289.244324 232.071409 
L 289.687568 232.272927 
L 290.130811 232.470424 
L 290.574054 232.663995 
L 291.017297 232.853731 
L 291.460541 233.039722 
L 291.903784 233.222054 
L 292.347027 233.400813 
L 292.79027 233.576079 
L 293.233514 233.747935 
L 293.676757 233.916458 
L 294.12 234.081724 
L 294.563243 234.243808 
L 295.006486 234.402782 
L 295.44973 234.558716 
L 295.892973 234.711681 
L 296.336216 234.861741 
L 296.779459 235.008964 
L 297.222703 235.153412 
L 297.665946 235.295147 
L 298.109189 235.43423 
L 298.552432 235.570721 
L 298.995676 235.704675 
L 299.438919 235.83615 
L 299.882162 235.965201 
L 300.325405 236.091879 
L 300.768649 236.216238 
L 301.211892 236.338328 
L 301.655135 236.458198 
L 302.098378 236.575896 
L 302.541622 236.69147 
L 302.984865 236.804966 
L 303.428108 236.916427 
L 303.871351 237.025898 
L 304.314595 237.133421 
L 304.757838 237.239037 
L 305.201081 237.342788 
L 305.644324 237.444712 
L 306.087568 237.544848 
L 306.530811 237.643234 
L 306.974054 237.739907 
L 307.417297 237.834902 
L 307.860541 237.928254 
L 308.303784 238.019997 
L 308.747027 238.110166 
L 309.19027 238.198791 
L 309.633514 238.285905 
L 310.076757 238.37154 
L 310.52 238.455724 
L 310.963243 238.538489 
L 311.406486 238.619862 
L 311.84973 238.699872 
L 312.292973 238.778546 
L 312.736216 238.855912 
L 313.179459 238.931995 
L 313.622703 239.006821 
L 314.065946 239.080416 
L 314.509189 239.152803 
L 314.952432 239.224007 
L 315.395676 239.294052 
L 315.838919 239.362958 
L 316.282162 239.430751 
L 316.725405 239.49745 
L 317.168649 239.563077 
L 317.611892 239.627654 
L 318.055135 239.691201 
L 318.498378 239.753736 
L 318.941622 239.815281 
L 319.384865 239.875854 
L 319.828108 239.935473 
L 320.271351 239.994157 
L 320.714595 240.051924 
L 321.157838 240.10879 
L 321.601081 240.164774 
L 322.044324 240.219891 
L 322.487568 240.274158 
L 322.930811 240.327591 
L 323.374054 240.380205 
L 323.817297 240.432016 
L 324.260541 240.483038 
L 324.703784 240.533287 
L 325.147027 240.582776 
L 325.59027 240.631519 
L 326.033514 240.67953 
L 326.476757 240.726823 
L 326.92 240.77341 
L 327.363243 240.819304 
L 327.806486 240.864518 
L 328.24973 240.909065 
L 328.692973 240.952955 
L 329.136216 240.996201 
L 329.579459 241.038815 
L 330.022703 241.080807 
L 330.465946 241.122189 
L 330.909189 241.162972 
L 331.352432 241.203166 
L 331.795676 241.242781 
L 332.238919 241.281828 
L 332.682162 241.320316 
L 333.125405 241.358256 
L 333.568649 241.395657 
L 334.011892 241.432527 
L 334.455135 241.468878 
L 334.898378 241.504716 
L 335.341622 241.540052 
L 335.784865 241.574894 
L 336.228108 241.609249 
L 336.671351 241.643128 
L 337.114595 241.676537 
L 337.557838 241.709484 
L 338.001081 241.741978 
L 338.444324 241.774026 
L 338.887568 241.805635 
L 339.330811 241.836813 
L 339.774054 241.867567 
L 340.217297 241.897904 
L 340.660541 241.927832 
L 341.103784 241.957356 
L 341.547027 241.986483 
L 341.99027 242.01522 
L 342.433514 242.043574 
L 342.876757 242.07155 
L 343.32 242.099155 
L 343.763243 242.126395 
L 344.206486 242.153275 
L 344.64973 242.179803 
L 345.092973 242.205982 
L 345.536216 242.231819 
L 345.979459 242.257319 
L 346.422703 242.282488 
L 346.865946 242.307331 
L 347.309189 242.331853 
L 347.752432 242.35606 
L 348.195676 242.379955 
L 348.638919 242.403545 
L 349.082162 242.426833 
L 349.525405 242.449825 
L 349.968649 242.472526 
L 350.411892 242.494939 
L 350.855135 242.517069 
L 351.298378 242.538921 
L 351.741622 242.560499 
L 352.184865 242.581807 
L 352.628108 242.602849 
L 353.071351 242.62363 
L 353.514595 242.644153 
L 353.957838 242.664422 
L 354.401081 242.684442 
L 354.844324 242.704215 
L 355.287568 242.723746 
L 355.730811 242.743038 
L 356.174054 242.762096 
L 356.617297 242.780921 
L 357.060541 242.799519 
L 357.503784 242.817891 
L 357.947027 242.836042 
L 358.39027 242.853976 
L 358.833514 242.871694 
L 359.276757 242.8892 
L 359.72 242.906498 
L 360.163243 242.92359 
L 360.606486 242.94048 
L 361.04973 242.95717 
L 361.492973 242.973664 
L 361.936216 242.989963 
L 362.379459 243.006072 
L 362.822703 243.021992 
L 363.265946 243.037727 
L 363.709189 243.053278 
L 364.152432 243.06865 
L 364.595676 243.083843 
L 365.038919 243.098862 
L 365.482162 243.113708 
L 365.925405 243.128383 
L 366.368649 243.142891 
L 366.811892 243.157233 
L 367.255135 243.171412 
L 367.698378 243.18543 
L 368.141622 243.19929 
L 368.584865 243.212993 
L 369.028108 243.226541 
L 369.471351 243.239938 
L 369.914595 243.253185 
L 370.357838 243.266284 
L 370.801081 243.279237 
L 371.244324 243.292046 
L 371.687568 243.304713 
L 372.130811 243.31724 
L 372.574054 243.329629 
L 373.017297 243.341882 
L 373.460541 243.354 
L 373.903784 243.365986 
L 374.347027 243.377841 
L 374.79027 243.389567 
L 375.233514 243.401166 
L 375.676757 243.41264 
L 376.12 243.423989 
L 376.563243 243.435217 
L 377.006486 243.446323 
L 377.44973 243.457311 
L 377.892973 243.468181 
L 378.336216 243.478936 
L 378.779459 243.489576 
L 379.222703 243.500103 
L 379.665946 243.510519 
L 380.109189 243.520825 
L 380.552432 243.531022 
L 380.995676 243.541112 
L 381.438919 243.551097 
L 381.882162 243.560977 
L 382.325405 243.570754 
L 382.768649 243.58043 
L 383.211892 243.590005 
L 383.655135 243.599482 
L 384.098378 243.60886 
L 384.541622 243.618142 
L 384.984865 243.627329 
L 385.428108 243.636421 
L 385.871351 243.645421 
L 386.314595 243.654328 
L 386.757838 243.663146 
L 387.201081 243.671873 
L 387.644324 243.680513 
L 388.087568 243.689065 
L 388.530811 243.697531 
L 388.974054 243.705912 
L 389.417297 243.714209 
L 389.860541 243.722423 
L 390.303784 243.730555 
L 390.747027 243.738606 
L 391.19027 243.746577 
L 391.633514 243.754469 
L 392.076757 243.762284 
L 392.52 243.770021 
L 392.963243 243.777682 
L 393.406486 243.785268 
L 393.84973 243.792779 
L 394.292973 243.800218 
L 394.736216 243.807583 
L 395.179459 243.814878 
L 395.622703 243.822101 
L 396.065946 243.829255 
L 396.509189 243.836339 
L 396.952432 243.843355 
L 397.395676 243.850304 
L 397.838919 243.857187 
L 398.282162 243.864003 
L 398.725405 243.870754 
L 399.168649 243.877441 
L 399.611892 243.884065 
L 400.055135 243.890626 
L 400.498378 243.897124 
L 400.941622 243.903562 
L 401.384865 243.909939 
L 401.828108 243.916256 
L 402.271351 243.922513 
L 402.714595 243.928713 
L 403.157838 243.934854 
L 403.601081 243.940938 
L 404.044324 243.946966 
L 404.487568 243.952938 
L 404.930811 243.958855 
L 405.374054 243.964717 
L 405.817297 243.970525 
L 406.260541 243.97628 
L 406.703784 243.981982 
L 407.147027 243.987631 
L 407.59027 243.99323 
L 408.033514 243.998777 
L 408.476757 244.004274 
L 408.92 244.009721 
L 409.363243 244.015119 
L 409.806486 244.020468 
L 410.24973 244.025769 
L 410.692973 244.031023 
L 411.136216 244.036229 
L 411.579459 244.041389 
L 412.022703 244.046502 
L 412.465946 244.05157 
L 412.909189 244.056593 
L 413.352432 244.061572 
L 413.795676 244.066506 
L 414.238919 244.071397 
L 414.682162 244.076245 
L 415.125405 244.08105 
L 415.568649 244.085813 
L 416.011892 244.090534 
L 416.455135 244.095214 
L 416.898378 244.099853 
L 417.341622 244.104452 
L 417.784865 244.109011 
L 418.228108 244.11353 
L 418.671351 244.11801 
L 419.114595 244.122452 
L 419.557838 244.126855 
L 420.001081 244.131221 
L 420.444324 244.135549 
L 420.887568 244.13984 
L 421.330811 244.144094 
L 421.774054 244.148312 
L 422.217297 244.152495 
L 422.660541 244.156641 
L 423.103784 244.160753 
L 423.547027 244.16483 
L 423.99027 244.168872 
L 424.433514 244.172881 
L 424.876757 244.176855 
L 425.32 244.180797 
L 425.763243 244.184705 
L 426.206486 244.188581 
L 426.64973 244.192425 
L 427.092973 244.196236 
L 427.536216 244.200016 
L 427.979459 244.203765 
L 428.422703 244.207482 
L 428.865946 244.211169 
L 429.309189 244.214826 
L 429.752432 244.218453 
L 430.195676 244.222049 
L 430.638919 244.225617 
L 431.082162 244.229155 
L 431.525405 244.232664 
L 431.968649 244.236145 
L 432.411892 244.239598 
L 432.855135 244.243022 
L 433.298378 244.246419 
L 433.741622 244.249789 
L 434.184865 244.253131 
L 434.628108 244.256447 
L 435.071351 244.259736 
L 435.514595 244.262998 
L 435.957838 244.266235 
L 436.401081 244.269445 
L 436.844324 244.27263 
L 437.287568 244.27579 
L 437.730811 244.278925 
L 438.174054 244.282035 
L 438.617297 244.28512 
L 439.060541 244.288181 
L 439.503784 244.291218 
L 439.947027 244.294231 
L 440.39027 244.29722 
L 440.833514 244.300186 
L 441.276757 244.303129 
L 441.72 244.306049 
L 441.72 244.8 
L 441.72 244.8 
L 441.276757 244.8 
L 440.833514 244.8 
L 440.39027 244.8 
L 439.947027 244.8 
L 439.503784 244.8 
L 439.060541 244.8 
L 438.617297 244.8 
L 438.174054 244.8 
L 437.730811 244.8 
L 437.287568 244.8 
L 436.844324 244.8 
L 436.401081 244.8 
L 435.957838 244.8 
L 435.514595 244.8 
L 435.071351 244.8 
L 434.628108 244.8 
L 434.184865 244.8 
L 433.741622 244.8 
L 433.298378 244.8 
L 432.855135 244.8 
L 432.411892 244.8 
L 431.968649 244.8 
L 431.525405 244.8 
L 431.082162 244.8 
L 430.638919 244.8 
L 430.195676 244.8 
L 429.752432 244.8 
L 429.309189 244.8 
L 428.865946 244.8 
L 428.422703 244.8 
L 427.979459 244.8 
L 427.536216 244.8 
L 427.092973 244.8 
L 426.64973 244.8 
L 426.206486 244.8 
L 425.763243 244.8 
L 425.32 244.8 
L 424.876757 244.8 
L 424.433514 244.8 
L 423.99027 244.8 
L 423.547027 244.8 
L 423.103784 244.8 
L 422.660541 244.8 
L 422.217297 244.8 
L 421.774054 244.8 
L 421.330811 244.8 
L 420.887568 244.8 
L 420.444324 244.8 
L 420.001081 244.8 
L 419.557838 244.8 
L 419.114595 244.8 
L 418.671351 244.8 
L 418.228108 244.8 
L 417.784865 244.8 
L 417.341622 244.8 
L 416.898378 244.8 
L 416.455135 244.8 
L 416.011892 244.8 
L 415.568649 244.8 
L 415.125405 244.8 
L 414.682162 244.8 
L 414.238919 244.8 
L 413.795676 244.8 
L 413.352432 244.8 
L 412.909189 244.8 
L 412.465946 244.8 
L 412.022703 244.8 
L 411.579459 244.8 
L 411.136216 244.8 
L 410.692973 244.8 
L 410.24973 244.8 
L 409.806486 244.8 
L 409.363243 244.8 
L 408.92 244.8 
L 408.476757 244.8 
L 408.033514 244.8 
L 407.59027 244.8 
L 407.147027 244.8 
L 406.703784 244.8 
L 406.260541 244.8 
L 405.817297 244.8 
L 405.374054 244.8 
L 404.930811 244.8 
L 404.487568 244.8 
L 404.044324 244.8 
L 403.601081 244.8 
L 403.157838 244.8 
L 402.714595 244.8 
L 402.271351 244.8 
L 401.828108 244.8 
L 401.384865 244.8 
L 400.941622 244.8 
L 400.498378 244.8 
L 400.055135 244.8 
L 399.611892 244.8 
L 399.168649 244.8 
L 398.725405 244.8 
L 398.282162 244.8 
L 397.838919 244.8 
L 397.395676 244.8 
L 396.952432 244.8 
L 396.509189 244.8 
L 396.065946 244.8 
L 395.622703 244.8 
L 395.179459 244.8 
L 394.736216 244.8 
L 394.292973 244.8 
L 393.84973 244.8 
L 393.406486 244.8 
L 392.963243 244.8 
L 392.52 244.8 
L 392.076757 244.8 
L 391.633514 244.8 
L 391.19027 244.8 
L 390.747027 244.8 
L 390.303784 244.8 
L 389.860541 244.8 
L 389.417297 244.8 
L 388.974054 244.8 
L 388.530811 244.8 
L 388.087568 244.8 
L 387.644324 244.8 
L 387.201081 244.8 
L 386.757838 244.8 
L 386.314595 244.8 
L 385.871351 244.8 
L 385.428108 244.8 
L 384.984865 244.8 
L 384.541622 244.8 
L 384.098378 244.8 
L 383.655135 244.8 
L 383.211892 244.8 
L 382.768649 244.8 
L 382.325405 244.8 
L 381.882162 244.8 
L 381.438919 244.8 
L 380.995676 244.8 
L 380.552432 244.8 
L 380.109189 244.8 
L 379.665946 244.8 
L 379.222703 244.8 
L 378.779459 244.8 
L 378.336216 244.8 
L 377.892973 244.8 
L 377.44973 244.8 
L 377.006486 244.8 
L 376.563243 244.8 
L 376.12 244.8 
L 375.676757 244.8 
L 375.233514 244.8 
L 374.79027 244.8 
L 374.347027 244.8 
L 373.903784 244.8 
L 373.460541 244.8 
L 373.017297 244.8 
L 372.574054 244.8 
L 372.130811 244.8 
L 371.687568 244.8 
L 371.244324 244.8 
L 370.801081 244.8 
L 370.357838 244.8 
L 369.914595 244.8 
L 369.471351 244.8 
L 369.028108 244.8 
L 368.584865 244.8 
L 368.141622 244.8 
L 367.698378 244.8 
L 367.255135 244.8 
L 366.811892 244.8 
L 366.368649 244.8 
L 365.925405 244.8 
L 365.482162 244.8 
L 365.038919 244.8 
L 364.595676 244.8 
L 364.152432 244.8 
L 363.709189 244.8 
L 363.265946 244.8 
L 362.822703 244.8 
L 362.379459 244.8 
L 361.936216 244.8 
L 361.492973 244.8 
L 361.04973 244.8 
L 360.606486 244.8 
L 360.163243 244.8 
L 359.72 244.8 
L 359.276757 244.8 
L 358.833514 244.8 
L 358.39027 244.8 
L 357.947027 244.8 
L 357.503784 244.8 
L 357.060541 244.8 
L 356.617297 244.8 
L 356.174054 244.8 
L 355.730811 244.8 
L 355.287568 244.8 
L 354.844324 244.8 
L 354.401081 244.8 
L 353.957838 244.8 
L 353.514595 244.8 
L 353.071351 244.8 
L 352.628108 244.8 
L 352.184865 244.8 
L 351.741622 244.8 
L 351.298378 244.8 
L 350.855135 244.8 
L 350.411892 244.8 
L 349.968649 244.8 
L 349.525405 244.8 
L 349.082162 244.8 
L 348.638919 244.8 
L 348.195676 244.8 
L 347.752432 244.8 
L 347.309189 244.8 
L 346.865946 244.8 
L 346.422703 244.8 
L 345.979459 244.8 
L 345.536216 244.8 
L 345.092973 244.8 
L 344.64973 244.8 
L 344.206486 244.8 
L 343.763243 244.8 
L 343.32 244.8 
L 342.876757 244.8 
L 342.433514 244.8 
L 341.99027 244.8 
L 341.547027 244.8 
L 341.103784 244.8 
L 340.660541 244.8 
L 340.217297 244.8 
L 339.774054 244.8 
L 339.330811 244.8 
L 338.887568 244.8 
L 338.444324 244.8 
L 338.001081 244.8 
L 337.557838 244.8 
L 337.114595 244.8 
L 336.671351 244.8 
L 336.228108 244.8 
L 335.784865 244.8 
L 335.341622 244.8 
L 334.898378 244.8 
L 334.455135 244.8 
L 334.011892 244.8 
L 333.568649 244.8 
L 333.125405 244.8 
L 332.682162 244.8 
L 332.238919 244.8 
L 331.795676 244.8 
L 331.352432 244.8 
L 330.909189 244.8 
L 330.465946 244.8 
L 330.022703 244.8 
L 329.579459 244.8 
L 329.136216 244.8 
L 328.692973 244.8 
L 328.24973 244.8 
L 327.806486 244.8 
L 327.363243 244.8 
L 326.92 244.8 
L 326.476757 244.8 
L 326.033514 244.8 
L 325.59027 244.8 
L 325.147027 244.8 
L 324.703784 244.8 
L 324.260541 244.8 
L 323.817297 244.8 
L 323.374054 244.8 
L 322.930811 244.8 
L 322.487568 244.8 
L 322.044324 244.8 
L 321.601081 244.8 
L 321.157838 244.8 
L 320.714595 244.8 
L 320.271351 244.8 
L 319.828108 244.8 
L 319.384865 244.8 
L 318.941622 244.8 
L 318.498378 244.8 
L 318.055135 244.8 
L 317.611892 244.8 
L 317.168649 244.8 
L 316.725405 244.8 
L 316.282162 244.8 
L 315.838919 244.8 
L 315.395676 244.8 
L 314.952432 244.8 
L 314.509189 244.8 
L 314.065946 244.8 
L 313.622703 244.8 
L 313.179459 244.8 
L 312.736216 244.8 
L 312.292973 244.8 
L 311.84973 244.8 
L 311.406486 244.8 
L 310.963243 244.8 
L 310.52 244.8 
L 310.076757 244.8 
L 309.633514 244.8 
L 309.19027 244.8 
L 308.747027 244.8 
L 308.303784 244.8 
L 307.860541 244.8 
L 307.417297 244.8 
L 306.974054 244.8 
L 306.530811 244.8 
L 306.087568 244.8 
L 305.644324 244.8 
L 305.201081 244.8 
L 304.757838 244.8 
L 304.314595 244.8 
L 303.871351 244.8 
L 303.428108 244.8 
L 302.984865 244.8 
L 302.541622 244.8 
L 302.098378 244.8 
L 301.655135 244.8 
L 301.211892 244.8 
L 300.768649 244.8 
L 300.325405 244.8 
L 299.882162 244.8 
L 299.438919 244.8 
L 298.995676 244.8 
L 298.552432 244.8 
L 298.109189 244.8 
L 297.665946 244.8 
L 297.222703 244.8 
L 296.779459 244.8 
L 296.336216 244.8 
L 295.892973 244.8 
L 295.44973 244.8 
L 295.006486 244.8 
L 294.563243 244.8 
L 294.12 244.8 
L 293.676757 244.8 
L 293.233514 244.8 
L 292.79027 244.8 
L 292.347027 244.8 
L 291.903784 244.8 
L 291.460541 244.8 
L 291.017297 244.8 
L 290.574054 244.8 
L 290.130811 244.8 
L 289.687568 244.8 
L 289.244324 244.8 
L 288.801081 244.8 
L 288.357838 244.8 
L 287.914595 244.8 
L 287.471351 244.8 
L 287.028108 244.8 
L 286.584865 244.8 
L 286.141622 244.8 
L 285.698378 244.8 
L 285.255135 244.8 
L 284.811892 244.8 
L 284.368649 244.8 
L 283.925405 244.8 
L 283.482162 244.8 
L 283.038919 244.8 
L 282.595676 244.8 
L 282.152432 244.8 
L 281.709189 244.8 
L 281.265946 244.8 
L 280.822703 244.8 
L 280.379459 244.8 
L 279.936216 244.8 
L 279.492973 244.8 
L 279.04973 244.8 
L 278.606486 244.8 
L 278.163243 244.8 
L 277.72 244.8 
L 277.276757 244.8 
L 276.833514 244.8 
L 276.39027 244.8 
L 275.947027 244.8 
L 275.503784 244.8 
L 275.060541 244.8 
L 274.617297 244.8 
L 274.174054 244.8 
L 273.730811 244.8 
L 273.287568 244.8 
L 272.844324 244.8 
L 272.401081 244.8 
L 271.957838 244.8 
L 271.514595 244.8 
L 271.071351 244.8 
L 270.628108 244.8 
L 270.184865 244.8 
L 269.741622 244.8 
L 269.298378 244.8 
L 268.855135 244.8 
L 268.411892 244.8 
L 267.968649 244.8 
L 267.525405 244.8 
L 267.082162 244.8 
L 266.638919 244.8 
L 266.195676 244.8 
L 265.752432 244.8 
L 265.309189 244.8 
L 264.865946 244.8 
L 264.422703 244.8 
L 263.979459 244.8 
L 263.536216 244.8 
L 263.092973 244.8 
L 262.64973 244.8 
L 262.206486 244.8 
L 261.763243 244.8 
L 261.32 244.8 
L 260.876757 244.8 
L 260.433514 244.8 
L 259.99027 244.8 
L 259.547027 244.8 
L 259.103784 244.8 
L 258.660541 244.8 
L 258.217297 244.8 
L 257.774054 244.8 
L 257.330811 244.8 
L 256.887568 244.8 
L 256.444324 244.8 
L 256.001081 244.8 
L 255.557838 244.8 
L 255.114595 244.8 
L 254.671351 244.8 
L 254.228108 244.8 
L 253.784865 244.8 
L 253.341622 244.8 
L 252.898378 244.8 
L 252.455135 244.8 
L 252.011892 244.8 
L 251.568649 244.8 
L 251.125405 244.8 
L 250.682162 244.8 
L 250.238919 244.8 
L 249.795676 244.8 
L 249.352432 244.8 
L 248.909189 244.8 
L 248.465946 244.8 
L 248.022703 244.8 
L 247.579459 244.8 
L 247.136216 244.8 
L 246.692973 244.8 
L 246.24973 244.8 
L 245.806486 244.8 
L 245.363243 244.8 
L 244.92 244.8 
L 244.476757 244.8 
L 244.033514 244.8 
L 243.59027 244.8 
L 243.147027 244.8 
L 242.703784 244.8 
L 242.260541 244.8 
L 241.817297 244.8 
L 241.374054 244.8 
L 240.930811 244.8 
L 240.487568 244.8 
L 240.044324 244.8 
L 239.601081 244.8 
L 239.157838 244.8 
L 238.714595 244.8 
L 238.271351 244.8 
L 237.828108 244.8 
L 237.384865 244.8 
L 236.941622 244.8 
L 236.498378 244.8 
L 236.055135 244.8 
L 235.611892 244.8 
L 235.168649 244.8 
L 234.725405 244.8 
L 234.282162 244.8 
L 233.838919 244.8 
L 233.395676 244.8 
L 232.952432 244.8 
L 232.509189 244.8 
L 232.065946 244.8 
L 231.622703 244.8 
L 231.179459 244.8 
L 230.736216 244.8 
L 230.292973 244.8 
L 229.84973 244.8 
L 229.406486 244.8 
L 228.963243 244.8 
L 228.52 244.8 
L 228.076757 244.8 
L 227.633514 244.8 
L 227.19027 244.8 
L 226.747027 244.8 
L 226.303784 244.8 
L 225.860541 244.8 
L 225.417297 244.8 
L 224.974054 244.8 
L 224.530811 244.8 
L 224.087568 244.8 
L 223.644324 244.8 
L 223.201081 244.8 
L 222.757838 244.8 
L 222.314595 244.8 
L 221.871351 244.8 
L 221.428108 244.8 
L 220.984865 244.8 
L 220.541622 244.8 
L 220.098378 244.8 
L 219.655135 244.8 
L 219.211892 244.8 
L 218.768649 244.8 
L 218.325405 244.8 
L 217.882162 244.8 
L 217.438919 244.8 
L 216.995676 244.8 
L 216.552432 244.8 
L 216.109189 244.8 
L 215.665946 244.8 
L 215.222703 244.8 
L 214.779459 244.8 
L 214.336216 244.8 
L 213.892973 244.8 
L 213.44973 244.8 
L 213.006486 244.8 
L 212.563243 244.8 
L 212.12 244.8 
L 211.676757 244.8 
L 211.233514 244.8 
L 210.79027 244.8 
L 210.347027 244.8 
L 209.903784 244.8 
L 209.460541 244.8 
L 209.017297 244.8 
L 208.574054 244.8 
L 208.130811 244.8 
L 207.687568 244.8 
L 207.244324 244.8 
L 206.801081 244.8 
L 206.357838 244.8 
L 205.914595 244.8 
L 205.471351 244.8 
L 205.028108 244.8 
L 204.584865 244.8 
L 204.141622 244.8 
L 203.698378 244.8 
L 203.255135 244.8 
L 202.811892 244.8 
L 202.368649 244.8 
L 201.925405 244.8 
L 201.482162 244.8 
L 201.038919 244.8 
L 200.595676 244.8 
L 200.152432 244.8 
L 199.709189 244.8 
L 199.265946 244.8 
L 198.822703 244.8 
L 198.379459 244.8 
L 197.936216 244.8 
L 197.492973 244.8 
L 197.04973 244.8 
L 196.606486 244.8 
L 196.163243 244.8 
L 195.72 244.8 
L 195.276757 244.8 
L 194.833514 244.8 
L 194.39027 244.8 
L 193.947027 244.8 
L 193.503784 244.8 
L 193.060541 244.8 
L 192.617297 244.8 
L 192.174054 244.8 
L 191.730811 244.8 
L 191.287568 244.8 
L 190.844324 244.8 
L 190.401081 244.8 
L 189.957838 244.8 
L 189.514595 244.8 
L 189.071351 244.8 
L 188.628108 244.8 
L 188.184865 244.8 
L 187.741622 244.8 
L 187.298378 244.8 
L 186.855135 244.8 
L 186.411892 244.8 
L 185.968649 244.8 
L 185.525405 244.8 
L 185.082162 244.8 
L 184.638919 244.8 
L 184.195676 244.8 
L 183.752432 244.8 
L 183.309189 244.8 
L 182.865946 244.8 
L 182.422703 244.8 
L 181.979459 244.8 
L 181.536216 244.8 
L 181.092973 244.8 
L 180.64973 244.8 
L 180.206486 244.8 
L 179.763243 244.8 
L 179.32 244.8 
L 178.876757 244.8 
L 178.433514 244.8 
L 177.99027 244.8 
L 177.547027 244.8 
L 177.103784 244.8 
L 176.660541 244.8 
L 176.217297 244.8 
L 175.774054 244.8 
L 175.330811 244.8 
L 174.887568 244.8 
L 174.444324 244.8 
L 174.001081 244.8 
L 173.557838 244.8 
L 173.114595 244.8 
L 172.671351 244.8 
L 172.228108 244.8 
L 171.784865 244.8 
L 171.341622 244.8 
L 170.898378 244.8 
L 170.455135 244.8 
L 170.011892 244.8 
L 169.568649 244.8 
L 169.125405 244.8 
L 168.682162 244.8 
L 168.238919 244.8 
L 167.795676 244.8 
L 167.352432 244.8 
L 166.909189 244.8 
L 166.465946 244.8 
L 166.022703 244.8 
L 165.579459 244.8 
L 165.136216 244.8 
L 164.692973 244.8 
L 164.24973 244.8 
L 163.806486 244.8 
L 163.363243 244.8 
L 162.92 244.8 
L 162.476757 244.8 
L 162.033514 244.8 
L 161.59027 244.8 
L 161.147027 244.8 
L 160.703784 244.8 
L 160.260541 244.8 
L 159.817297 244.8 
L 159.374054 244.8 
L 158.930811 244.8 
L 158.487568 244.8 
L 158.044324 244.8 
L 157.601081 244.8 
L 157.157838 244.8 
L 156.714595 244.8 
L 156.271351 244.8 
L 155.828108 244.8 
L 155.384865 244.8 
L 154.941622 244.8 
L 154.498378 244.8 
L 154.055135 244.8 
L 153.611892 244.8 
L 153.168649 244.8 
L 152.725405 244.8 
L 152.282162 244.8 
L 151.838919 244.8 
L 151.395676 244.8 
L 150.952432 244.8 
L 150.509189 244.8 
L 150.065946 244.8 
L 149.622703 244.8 
L 149.179459 244.8 
L 148.736216 244.8 
L 148.292973 244.8 
L 147.84973 244.8 
L 147.406486 244.8 
L 146.963243 244.8 
L 146.52 244.8 
L 146.076757 244.8 
L 145.633514 244.8 
L 145.19027 244.8 
L 144.747027 244.8 
L 144.303784 244.8 
L 143.860541 244.8 
L 143.417297 244.8 
L 142.974054 244.8 
L 142.530811 244.8 
L 142.087568 244.8 
L 141.644324 244.8 
L 141.201081 244.8 
L 140.757838 244.8 
L 140.314595 244.8 
L 139.871351 244.8 
L 139.428108 244.8 
L 138.984865 244.8 
L 138.541622 244.8 
L 138.098378 244.8 
L 137.655135 244.8 
L 137.211892 244.8 
L 136.768649 244.8 
L 136.325405 244.8 
L 135.882162 244.8 
L 135.438919 244.8 
L 134.995676 244.8 
L 134.552432 244.8 
L 134.109189 244.8 
L 133.665946 244.8 
L 133.222703 244.8 
L 132.779459 244.8 
L 132.336216 244.8 
L 131.892973 244.8 
L 131.44973 244.8 
L 131.006486 244.8 
L 130.563243 244.8 
L 130.12 244.8 
L 129.676757 244.8 
L 129.233514 244.8 
L 128.79027 244.8 
L 128.347027 244.8 
L 127.903784 244.8 
L 127.460541 244.8 
L 127.017297 244.8 
L 126.574054 244.8 
L 126.130811 244.8 
L 125.687568 244.8 
L 125.244324 244.8 
L 124.801081 244.8 
L 124.357838 244.8 
L 123.914595 244.8 
L 123.471351 244.8 
L 123.028108 244.8 
L 122.584865 244.8 
L 122.141622 244.8 
L 121.698378 244.8 
L 121.255135 244.8 
L 120.811892 244.8 
L 120.368649 244.8 
L 119.925405 244.8 
L 119.482162 244.8 
L 119.038919 244.8 
L 118.595676 244.8 
L 118.152432 244.8 
L 117.709189 244.8 
L 117.265946 244.8 
L 116.822703 244.8 
L 116.379459 244.8 
L 115.936216 244.8 
L 115.492973 244.8 
L 115.04973 244.8 
L 114.606486 244.8 
L 114.163243 244.8 
L 113.72 244.8 
L 113.276757 244.8 
L 112.833514 244.8 
L 112.39027 244.8 
L 111.947027 244.8 
L 111.503784 244.8 
L 111.060541 244.8 
L 110.617297 244.8 
L 110.174054 244.8 
L 109.730811 244.8 
L 109.287568 244.8 
L 108.844324 244.8 
L 108.401081 244.8 
L 107.957838 244.8 
L 107.514595 244.8 
L 107.071351 244.8 
L 106.628108 244.8 
L 106.184865 244.8 
L 105.741622 244.8 
L 105.298378 244.8 
L 104.855135 244.8 
L 104.411892 244.8 
L 103.968649 244.8 
L 103.525405 244.8 
L 103.082162 244.8 
L 102.638919 244.8 
L 102.195676 244.8 
L 101.752432 244.8 
L 101.309189 244.8 
L 100.865946 244.8 
L 100.422703 244.8 
L 99.979459 244.8 
L 99.536216 244.8 
L 99.092973 244.8 
L 98.64973 244.8 
L 98.206486 244.8 
L 97.763243 244.8 
L 97.32 244.8 
L 96.876757 244.8 
L 96.433514 244.8 
L 95.99027 244.8 
L 95.547027 244.8 
L 95.103784 244.8 
L 94.660541 244.8 
L 94.217297 244.8 
L 93.774054 244.8 
L 93.330811 244.8 
L 92.887568 244.8 
L 92.444324 244.8 
L 92.001081 244.8 
L 91.557838 244.8 
L 91.114595 244.8 
L 90.671351 244.8 
L 90.228108 244.8 
L 89.784865 244.8 
L 89.341622 244.8 
L 88.898378 244.8 
L 88.455135 244.8 
L 88.011892 244.8 
L 87.568649 244.8 
L 87.125405 244.8 
L 86.682162 244.8 
L 86.238919 244.8 
L 85.795676 244.8 
L 85.352432 244.8 
L 84.909189 244.8 
L 84.465946 244.8 
L 84.022703 244.8 
L 83.579459 244.8 
L 83.136216 244.8 
L 82.692973 244.8 
L 82.24973 244.8 
L 81.806486 244.8 
L 81.363243 244.8 
L 80.92 244.8 
L 80.476757 244.8 
L 80.033514 244.8 
L 79.59027 244.8 
L 79.147027 244.8 
L 78.703784 244.8 
L 78.260541 244.8 
L 77.817297 244.8 
L 77.374054 244.8 
L 76.930811 244.8 
L 76.487568 244.8 
L 76.044324 244.8 
L 75.601081 244.8 
L 75.157838 244.8 
L 74.714595 244.8 
L 74.271351 244.8 
L 73.828108 244.8 
L 73.384865 244.8 
L 72.941622 244.8 
L 72.498378 244.8 
L 72.055135 244.8 
L 71.611892 244.8 
L 71.168649 244.8 
L 70.725405 244.8 
L 70.282162 244.8 
L 69.838919 244.8 
L 69.395676 244.8 
L 68.952432 244.8 
L 68.509189 244.8 
L 68.065946 244.8 
L 67.622703 244.8 
L 67.179459 244.8 
L 66.736216 244.8 
L 66.292973 244.8 
L 65.84973 244.8 
L 65.406486 244.8 
L 64.963243 244.8 
L 64.52 244.8 
L 64.076757 244.8 
L 63.633514 244.8 
L 63.19027 244.8 
L 62.747027 244.8 
L 62.303784 244.8 
L 61.860541 244.8 
L 61.417297 244.8 
L 60.974054 244.8 
L 60.530811 244.8 
L 60.087568 244.8 
L 59.644324 244.8 
L 59.201081 244.8 
L 58.757838 244.8 
L 58.314595 244.8 
L 57.871351 244.8 
L 57.428108 244.8 
L 56.984865 244.8 
L 56.541622 244.8 
L 56.098378 244.8 
L 55.655135 244.8 
L 55.211892 244.8 
L 54.768649 244.8 
L 54.325405 244.8 
L 53.882162 244.8 
L 53.438919 244.8 
L 52.995676 244.8 
L 52.552432 244.8 
L 52.109189 244.8 
L 51.665946 244.8 
L 51.222703 244.8 
L 50.779459 244.8 
L 50.336216 244.8 
L 49.892973 244.8 
L 49.44973 244.8 
L 49.006486 244.8 
L 48.563243 244.8 
L 48.12 244.8 
L 47.676757 244.8 
L 47.233514 244.8 
L 46.79027 244.8 
L 46.347027 244.8 
L 45.903784 244.8 
L 45.460541 244.8 
L 45.017297 244.8 
L 44.574054 244.8 
L 44.130811 244.8 
L 43.687568 244.8 
L 43.244324 244.8 
L 42.801081 244.8 
L 42.357838 244.8 
L 41.914595 244.8 
L 41.471351 244.8 
L 41.028108 244.8 
L 40.584865 244.8 
L 40.141622 244.8 
L 39.698378 244.8 
L 39.255135 244.8 
L 38.811892 244.8 
L 38.368649 244.8 
L 37.925405 244.8 
L 37.482162 244.8 
L 37.038919 244.8 
L 36.595676 244.8 
L 36.152432 244.8 
L 35.709189 244.8 
L 35.265946 244.8 
L 34.822703 244.8 
L 34.379459 244.8 
L 33.936216 244.8 
L 33.492973 244.8 
L 33.04973 244.8 
L 32.606486 244.8 
L 32.163243 244.8 
L 31.72 244.8 
L 31.276757 244.8 
L 30.833514 244.8 
L 30.39027 244.8 
L 29.947027 244.8 
L 29.503784 244.8 
L 29.060541 244.8 
L 28.617297 244.8 
L 28.174054 244.8 
L 27.730811 244.8 
L 27.287568 244.8 
L 26.844324 244.8 
L 26.401081 244.8 
L 25.957838 244.8 
L 25.514595 244.8 
L 25.071351 244.8 
L 24.628108 244.8 
L 24.184865 244.8 
L 23.741622 244.8 
L 23.298378 244.8 
L 22.855135 244.8 
L 22.411892 244.8 
L 21.968649 244.8 
L 21.525405 244.8 
L 21.082162 244.8 
L 20.638919 244.8 
L 20.195676 244.8 
L 19.752432 244.8 
L 19.309189 244.8 
L 18.865946 244.8 
L 18.422703 244.8 
L 17.979459 244.8 
L 17.536216 244.8 
L 17.092973 244.8 
L 16.64973 244.8 
L 16.206486 244.8 
L 15.763243 244.8 
L 15.32 244.8 
L 14.876757 244.8 
L 14.433514 244.8 
L 13.99027 244.8 
L 13.547027 244.8 
L 13.103784 244.8 
L 12.660541 244.8 
L 12.217297 244.8 
L 11.774054 244.8 
L 11.330811 244.8 
L 10.887568 244.8 
L 10.444324 244.8 
L 10.001081 244.8 
L 9.557838 244.8 
L 9.114595 244.8 
L 8.671351 244.8 
L 8.228108 244.8 
L 7.784865 244.8 
L 7.341622 244.8 
L 6.898378 244.8 
L 6.455135 244.8 
L 6.011892 244.8 
L 5.568649 244.8 
L 5.125405 244.8 
L 4.682162 244.8 
L 4.238919 244.8 
L 3.795676 244.8 
L 3.352432 244.8 
L 2.909189 244.8 
L 2.465946 244.8 
L 2.022703 244.8 
L 1.579459 244.8 
L 1.136216 244.8 
L 0.692973 244.8 
L 0.24973 244.8 
L -0.193514 244.8 
L -0.636757 244.8 
L -1.08 244.8 
z
" style="fill:#5bc0de;fill-opacity:0.7;stroke:#5bc0de;stroke-opacity:0.7;"/>
   </g>
  </g>
 </g>
 <defs>
  <clipPath id="p72f22f6ee6">
   <rect height="213.12" width="354.24" x="43.2" y="31.68"/>
  </clipPath>
 </defs>
</svg>
