<?xml version="1.0" encoding="utf-8"?>
<!-- Generator: Adobe Illustrator 16.0.4, SVG Export Plug-In . SVG Version: 6.00 Build 0)  -->
<!DOCTYPE svg PUBLIC "-//W3C//DTD SVG 1.1//EN" "http://www.w3.org/Graphics/SVG/1.1/DTD/svg11.dtd">
<svg version="1.1" xmlns="http://www.w3.org/2000/svg" xmlns:xlink="http://www.w3.org/1999/xlink" x="0px" y="0px" width="584.8px"
	 height="360px" viewBox="0 0 584.8 360" enable-background="new 0 0 584.8 360" xml:space="preserve">
<g id="dolphins">
	<g enable-background="new    ">
		<path fill="#D4D4F4" d="M233.68,181.531c0.582-0.664,1.031-2.062,0.511-4.988c-1.023-5.777,0.243-24.047-49.214-31.383
			c0,0-6.016-0.902-12.469-2.449c-5.016-1.203-10.278-2.789-13.242-4.66c-0.235-0.192-0.485-0.352-0.735-0.508
			c0,0-15.633-3.691-23.558-11.742c0,0-7.586-1.5-9.328-3.379c0,0-1.356-1.219-0.989-2.234c0.25-0.711,1.367-1.321,4.422-1.317
			c0,0,3.813-0.305,11.11,0.281c-0.602,5.43,25.222,5.727,25.222,5.727c5.231,10.144,18.289,12.672,18.289,12.672
			c3.039-0.063,13.481,4.523,13.481,4.523c4.023-1.136-4.899-7.109-7.871-8.527c-11-5.235-13.09-8.754-13.09-8.754
			c69.234,22.391,63.738,46.031,62.875,52.269c-0.457,3.274-0.824,5.325-0.848,7.235c-0.09,0.07-2.308,2.16-4.301,0.992
			C233.945,185.289,232.934,183.766,233.68,181.531z"/>
		<path fill="none" stroke="#000000" stroke-width="0.4" stroke-miterlimit="10" d="M233.68,181.531
			c0.582-0.664,1.031-2.062,0.511-4.988c-1.023-5.777,0.243-24.047-49.214-31.383c0,0-6.016-0.902-12.469-2.449
			c-5.016-1.203-10.278-2.789-13.242-4.66c-0.235-0.192-0.485-0.352-0.735-0.508c0,0-15.633-3.691-23.558-11.742
			c0,0-7.586-1.5-9.328-3.379c0,0-1.356-1.219-0.989-2.234c0.25-0.711,1.367-1.321,4.422-1.317c0,0,3.813-0.305,11.11,0.281
			c-0.602,5.43,25.222,5.727,25.222,5.727c5.231,10.144,18.289,12.672,18.289,12.672c3.039-0.063,13.481,4.523,13.481,4.523
			c4.023-1.136-4.899-7.109-7.871-8.527c-11-5.235-13.09-8.754-13.09-8.754c69.234,22.391,63.738,46.031,62.875,52.269
			c-0.457,3.274-0.824,5.325-0.848,7.235c-0.09,0.07-2.308,2.16-4.301,0.992C233.945,185.289,232.934,183.766,233.68,181.531z"/>
		<path fill="#C7C7DD" d="M133.602,116.422c6.031,0.539,6.546,2.715,6.546,2.715c-7.293-0.582-11.105-0.278-11.105-0.278
			c-3.055-0.004-4.176,0.602-4.422,1.313c-3.336-1.063,0.106-3.43,1.344-3.535c0.789-0.071,7.625-0.016,7.625-0.016L133.602,116.422
			z"/>
		<path fill="none" stroke="#000000" stroke-width="0.4" stroke-miterlimit="10" d="M133.602,116.422
			c6.031,0.539,6.546,2.715,6.546,2.715c-7.293-0.582-11.105-0.278-11.105-0.278c-3.055-0.004-4.176,0.602-4.422,1.313
			c-3.336-1.063,0.106-3.43,1.344-3.535c0.789-0.071,7.625-0.016,7.625-0.016L133.602,116.422z"/>
		<path fill="#545477" d="M142.758,116.352c-0.578-0.219-0.914-0.801-0.723-1.309c0.184-0.484,0.813-0.723,1.406-0.496
			c0.598,0.226,0.934,0.808,0.743,1.312C143.992,116.363,143.363,116.602,142.758,116.352z"/>
		<path fill="none" stroke="#000000" stroke-width="0.4" stroke-miterlimit="10" d="M142.758,116.352
			c-0.578-0.219-0.914-0.801-0.723-1.309c0.184-0.484,0.813-0.723,1.406-0.496c0.598,0.226,0.934,0.808,0.743,1.312
			C143.992,116.363,143.363,116.602,142.758,116.352z"/>
		<path fill="#D0D0EA" d="M144.195,115.883c0.184-0.485-0.144-1.086-0.742-1.313c-0.578-0.218-1.215-0.008-1.406,0.496
			c-0.184,0.489,0.125,1.082,0.719,1.309C143.363,116.602,143.992,116.363,144.195,115.883z M144.125,116.395
			c-1.383,0.425-2.93,0.148-3.453-0.321l0.469-0.855c0.468-0.852,1.695-2.227,4.953,0.336
			C146.094,115.555,145.293,116.035,144.125,116.395z"/>
		<path fill="none" stroke="#000000" stroke-width="0.4" stroke-miterlimit="10" d="M144.195,115.883
			c0.184-0.485-0.144-1.086-0.742-1.313c-0.578-0.218-1.215-0.008-1.406,0.496c-0.184,0.489,0.125,1.082,0.719,1.309
			C143.363,116.602,143.992,116.363,144.195,115.883z M144.125,116.395c-1.383,0.425-2.93,0.148-3.453-0.321l0.469-0.855
			c0.468-0.852,1.695-2.227,4.953,0.336C146.094,115.555,145.293,116.035,144.125,116.395z"/>
		<path fill="#707099" d="M177.23,149.461c1.223,2.984,4.165,8.004,8.172,10.394c0,0,1.094,1.637-1.793,1.243
			c0,0-16.156-5.793-19.738-15.825c0,0-1.687-4.957-4.625-7.273c2.965,1.871,8.242,3.465,13.238,4.66
			C172.617,142.754,175.191,144.453,177.23,149.461z"/>
		<path fill="none" stroke="#000000" stroke-width="0.4" stroke-miterlimit="10" d="M177.23,149.461
			c1.223,2.984,4.165,8.004,8.172,10.394c0,0,1.094,1.637-1.793,1.243c0,0-16.156-5.793-19.738-15.825c0,0-1.687-4.957-4.625-7.273
			c2.965,1.871,8.242,3.465,13.238,4.66C172.617,142.754,175.191,144.453,177.23,149.461z"/>
		<path fill="#8B8BAF" d="M247.367,221.961c0,0-1.519-15.836-3.289-19.977c-4.609-10.801-5.914-14-5.863-17.719
			c0.019-1.891,0.383-3.941,0.851-7.234c0.864-6.238,6.36-29.879-62.875-52.269c0,0,2.082,3.539,13.09,8.754
			c2.969,1.418,11.891,7.39,7.867,8.527c0,0-10.421-4.582-13.476-4.523c0,0-13.063-2.528-18.293-12.676
			c0,0-25.82-0.293-25.223-5.723c0,0-0.496-2.172-6.547-2.719c-0.183-0.004-0.382-0.019-0.586-0.035c0,0,1.891-14.914,48.567-6.734
			c0,0,5.672-0.199,15.742-7.024c2.469-1.664,13.133-6.574,13.004-2.699c0,0-15.266,5.492-15.188,11.863
			c0.055,3.016,1.141,5.098,10.622,7.485c0,0,50.183,27.851,36.066,67.977C241.836,187.234,253.547,213.199,247.367,221.961z
			 M146.113,115.562c-3.277-2.57-4.484-1.191-4.953-0.335l-0.469,0.855c0.516,0.484,2.063,0.762,3.45,0.32
			C145.293,116.035,146.094,115.555,146.113,115.562z"/>
		<path fill="none" stroke="#000000" stroke-width="0.4" stroke-miterlimit="10" d="M247.367,221.961c0,0-1.519-15.836-3.289-19.977
			c-4.609-10.801-5.914-14-5.863-17.719c0.019-1.891,0.383-3.941,0.851-7.234c0.864-6.238,6.36-29.879-62.875-52.269
			c0,0,2.082,3.539,13.09,8.754c2.969,1.418,11.891,7.39,7.867,8.527c0,0-10.421-4.582-13.476-4.523c0,0-13.063-2.528-18.293-12.676
			c0,0-25.82-0.293-25.223-5.723c0,0-0.496-2.172-6.547-2.719c-0.183-0.004-0.382-0.019-0.586-0.035c0,0,1.891-14.914,48.567-6.734
			c0,0,5.672-0.199,15.742-7.024c2.469-1.664,13.133-6.574,13.004-2.699c0,0-15.266,5.492-15.188,11.863
			c0.055,3.016,1.141,5.098,10.622,7.485c0,0,50.183,27.851,36.066,67.977C241.836,187.234,253.547,213.199,247.367,221.961z
			 M146.113,115.562c-3.277-2.57-4.484-1.191-4.953-0.335l-0.469,0.855c0.516,0.484,2.063,0.762,3.45,0.32
			C145.293,116.035,146.094,115.555,146.113,115.562z"/>
		<path fill="#9696B2" d="M210.219,100.59c-1.242,4.629-7.332,5.824-4.453,18.668c-9.496-2.391-10.582-4.477-10.618-7.485
			c-0.078-6.367,15.184-11.863,15.184-11.863C210.32,100.113,210.281,100.324,210.219,100.59z"/>
		<path fill="none" stroke="#000000" stroke-width="0.4" stroke-miterlimit="10" d="M210.219,100.59
			c-1.242,4.629-7.332,5.824-4.453,18.668c-9.496-2.391-10.582-4.477-10.618-7.485c-0.078-6.367,15.184-11.863,15.184-11.863
			C210.32,100.113,210.281,100.324,210.219,100.59z"/>
		<path fill="#606082" d="M232.434,182.09c0,0,0.683,0.055,1.242-0.602c-0.742,2.277,0.269,3.801,0.269,3.801
			c-1.91,7.738-4.152,7.772-4.152,7.772s-6.664,6.556-19.898-0.397c-2.309-1.207-7.02-3.762-10.489-3.863
			c-0.898-0.031-2.691-1.887,1.594-3.215C201,185.586,215.559,178.629,232.434,182.09z"/>
		<path fill="none" stroke="#000000" stroke-width="0.4" stroke-miterlimit="10" d="M232.434,182.09c0,0,0.683,0.055,1.242-0.602
			c-0.742,2.277,0.269,3.801,0.269,3.801c-1.91,7.738-4.152,7.772-4.152,7.772s-6.664,6.556-19.898-0.397
			c-2.309-1.207-7.02-3.762-10.489-3.863c-0.898-0.031-2.691-1.887,1.594-3.215C201,185.586,215.559,178.629,232.434,182.09z"/>
		<path fill="#606082" d="M244.09,202.008c1.758,4.117,3.277,19.953,3.277,19.953s-0.539,2.398-3.195-2.082
			c0,0-5.551-11.465-9.879-14.863c-2.516-1.969-6.102-7.359-4.535-11.969c0,0,2.262-0.027,4.168-7.766
			c2,1.152,4.238-0.93,4.301-0.988C238.176,188.012,239.48,191.211,244.09,202.008z"/>
		<path fill="none" stroke="#000000" stroke-width="0.4" stroke-miterlimit="10" d="M244.09,202.008
			c1.758,4.117,3.277,19.953,3.277,19.953s-0.539,2.398-3.195-2.082c0,0-5.551-11.465-9.879-14.863
			c-2.516-1.969-6.102-7.359-4.535-11.969c0,0,2.262-0.027,4.168-7.766c2,1.152,4.238-0.93,4.301-0.988
			C238.176,188.012,239.48,191.211,244.09,202.008z"/>
		<polygon fill="#636C72" points="8.727,56.465 8.727,186.863 141.008,103.918 141.008,8.254 		"/>
		
			<ellipse transform="matrix(0.8889 -0.4581 0.4581 0.8889 -26.1707 56.5149)" fill="#D2D2D2" cx="103.434" cy="82.215" rx="12.467" ry="9.708"/>
		<path fill="#5BC0DE" d="M118.414,77.035c2.453,4.766-0.516,11.188-6.633,14.344c-6.121,3.152-13.074,1.848-15.531-2.918
			s0.512-11.188,6.633-14.344C109.004,70.965,115.957,72.27,118.414,77.035z"/>
		<path fill="#D2D2D2" d="M71.473,96.184c2.457,4.769-0.512,11.191-6.633,14.343c-6.117,3.157-13.07,1.848-15.528-2.918
			c-2.457-4.765,0.512-11.187,6.633-14.343C62.062,90.113,69.016,91.418,71.473,96.184z"/>
		<path fill="#D9534F" d="M75.371,96.719c2.457,4.765-0.512,11.188-6.633,14.343c-6.121,3.153-13.074,1.848-15.531-2.917
			c-2.457-4.77,0.516-11.188,6.633-14.344C65.961,90.645,72.914,91.953,75.371,96.719z"/>
		<path fill="#FFFF00" d="M541.27,305.488c0,8.141-6.602,14.746-14.746,14.746s-14.746-6.605-14.746-14.746
			c0-8.145,6.602-14.75,14.746-14.75S541.27,297.344,541.27,305.488z"/>
		<path fill="none" stroke="#636C72" stroke-width="0.8" stroke-linecap="round" stroke-miterlimit="10" d="M541.27,305.043
			c0,0.254-0.082,0.508-0.246,0.75"/>
		
			<path fill="none" stroke="#636C72" stroke-width="0.8" stroke-linecap="round" stroke-miterlimit="10" stroke-dasharray="1.5997,1.5997" d="
			M539.812,306.816c-2.379,1.371-7.438,2.312-13.289,2.312c-6.465,0-11.957-1.152-13.949-2.758"/>
		<path fill="none" stroke="#636C72" stroke-width="0.8" stroke-linecap="round" stroke-miterlimit="10" d="M512.023,305.793
			c-0.16-0.246-0.246-0.496-0.246-0.75"/>
		<path fill="none" stroke="#636C72" stroke-width="0.8" stroke-linecap="round" stroke-miterlimit="10" d="M525.297,320.234
			c-0.254,0-0.5-0.09-0.742-0.262"/>
		
			<path fill="none" stroke="#636C72" stroke-width="0.8" stroke-linecap="round" stroke-miterlimit="10" stroke-dasharray="1.5927,1.5927" d="
			M523.566,318.742c-1.312-2.395-2.219-7.434-2.219-13.254c0-6.438,1.105-11.914,2.645-13.922"/>
		<path fill="none" stroke="#636C72" stroke-width="0.8" stroke-linecap="round" stroke-miterlimit="10" d="M524.555,291
			c0.242-0.168,0.488-0.258,0.742-0.258"/>
		<path fill="#FFFF00" d="M499.395,283.836l8.715,9.844l-9.848-8.715c-0.332-0.293-0.363-0.797-0.066-1.129
			c0.293-0.332,0.797-0.363,1.129-0.07C499.348,283.785,499.375,283.812,499.395,283.836z"/>
		<path fill="#FFFF00" d="M529.703,272.301l-1.613,13.516l0.016-13.613c0-0.441,0.359-0.801,0.805-0.801
			c0.441,0,0.801,0.359,0.801,0.801C529.711,272.234,529.707,272.27,529.703,272.301z"/>
		<path fill="#FFFF00" d="M556.832,289.961l-12.234,7.031l11.359-8.371c0.355-0.262,0.859-0.188,1.121,0.172
			c0.262,0.355,0.188,0.855-0.172,1.117C556.883,289.93,556.859,289.945,556.832,289.961z"/>
		<path fill="#FFFF00" d="M498.211,323.492l11.973-7.473l-11.051,8.781c-0.344,0.273-0.848,0.215-1.125-0.129
			c-0.273-0.348-0.215-0.852,0.129-1.125C498.16,323.527,498.188,323.508,498.211,323.492z"/>
		<path fill="#FFFF00" d="M527.672,338.062l-0.039-14.112l1.633,14.016c0.055,0.441-0.262,0.84-0.703,0.891
			c-0.438,0.051-0.836-0.266-0.887-0.703C527.672,338.121,527.672,338.09,527.672,338.062z"/>
		<path fill="#FFFF00" d="M552.82,326.184l-9.945-10.008l11.016,8.816c0.344,0.277,0.402,0.781,0.125,1.129
			c-0.277,0.344-0.781,0.402-1.125,0.125C552.867,326.227,552.844,326.207,552.82,326.184z"/>
		<path opacity="0.5" fill="#7F7F7F" d="M418.598,223.613c-1.754-0.934,0.109-3.895-0.453-7.195
			c-4.523-6.328-5.539-7.426-3.184-8.172c2.176-0.34,3.941,1.059,7.398,8.273C424.852,223.582,420.105,223.367,418.598,223.613z"/>
		<path opacity="0.5" fill="#FCF5FD" d="M414.129,248.617c13.984-10.227,39.219-0.141,55.738,4.051
			c9.082,4.898,5.852-7.75,6.93-1.238c0.941,4.805,1.75,5.215-17.707,2.902c-1.98,4.379-34.418-10.039-55.109,8.984
			C386.035,274.301,408.012,251.609,414.129,248.617z"/>
		<path fill="#5C729B" d="M416.926,223.414c2.629-1.09,3.293-3.234,3.242-6.266c-0.211-4.098-6.965-6.234-5.656-8.488
			c7.727-2.02,16.543,10.078,14.824,14.172c2.156,0.082,4.945-0.781,8.023-0.133c20.16,0,33.004,13.305,36.684,21.891
			c0.902,1.68,3.047,3.273,3.238,12.152c1.801,1.696,4.863,5.199,5.574,8.434c2.215,2.918-7.82,3.773-11.352-1.114
			c-4.699-3.136-14.754-6.233-19.676-6.522c-4.023-0.797-3.805,0.664-7.262-0.133c-3.238,1.793-6.477,3.586-9.719,5.379
			c-1.293,0.598-2.59,1.195-3.883,1.793c-3.023,0.199-6.047,0.398-9.07,0.598c2.59-1.395,5.184-2.789,7.773-4.184h1.297
			c0.969-1.195,3.223-5.996,4.195-7.191c-8.664,0.246-15.359,2.434-21.02,4.371c-4.469,1.555-14.461,5.613-18.562,9.438
			c-23.93,22.691-36.633,19.254-36.723,20.668c-0.035,2.465-13.383,17.117-15.449,15.602s1.793-9.148,1.332-13.199
			c-0.27-2.43-3.555-1.711-2.469-4.246c0.613-1.375-3.066-3.664-5.195-4.438c-3.148-1.039-4.473-1.52,0.25-2.254
			c4.859-0.645,16.273,4.734,20.285,1.078C386.418,254.238,368.504,244.121,416.926,223.414z"/>
		<path opacity="0.5" fill="#CDCBD4" d="M421.156,247.164c24.008-3.074,28.113,1.758,33.484,3.766
			c6.023,0.574,11.457,5.18,21.289,3.918c1.547-2.746,1.562,0.082,0.684,0.926c-1.309,0.652-3.602,1.02-16.906-1.016
			c-9.152,1.102,2.047,3.52,5.359,4.5c4.512,1.523,7.141,7.16,12.152,7.586c4.352,0.095,7.785-2.09,5.191,0.43
			c-4.242,3.93-13.23-4.652-15.285-5.148c-1.59-0.359-3.781-0.125-6.688-0.867c-5.277-0.957-9.5-2.258-15.871-3.555
			c-2.809-0.148-12.586-1.434-18-0.59c-5.582,0.543-13.625,2.648-20.496,5.746C386.543,271.977,409.969,248.359,421.156,247.164z"/>
		<path opacity="0.5" fill="#5C749C" d="M451.219,259.398c2.27,0.398,6.312,1.305,8.578,1.699c2.688,0.341,4.922-0.297-0.902,2.082
			C445.922,267.254,445.473,263.52,451.219,259.398z"/>
		<path opacity="0.5" fill="#7F7F7F" d="M453.844,251.766c2.488-1.227,5.523,2.32,11.855,3.195c1.562,0.18,9.32,1.629,10.625,0.465
			c0.449-0.395,1.523-2.383,1.066,0.914c-0.328,0.754-2.43,2.222-15.078,0.203c-1.473-0.277-5.242-0.652-8.316-2.613
			C452.832,253.203,453.219,253.688,453.844,251.766z"/>
		<path opacity="0.5" fill="#D6D6D6" d="M457.266,251.969c-0.906-0.824-2.008-0.898-3.125-0.691
			c-1.527,0.094-1.277,2.516-0.297,3.176c1.191,0.703,1.656,1.176,3.035,0.891C458.707,254.996,458.418,253.195,457.266,251.969z"/>
		<path opacity="0.5" fill="#5C739C" d="M442.543,254.383c-3.457-0.141-4.578,0.91-7.059,2.004
			c-6.547,0.211-7.328,6.137-10.148,6.512c-1.891,0.547-9.191,3.883,5.871,1.977C436.953,262.438,448.52,257.754,442.543,254.383z"
			/>
		<path opacity="0.5" fill="#040203" d="M458.098,253.543c0,0.848-0.773,1.535-1.73,1.535c-0.953,0-1.73-0.688-1.73-1.535
			c0-0.844,0.777-1.531,1.73-1.531C457.324,252.012,458.098,252.699,458.098,253.543z"/>
		<ellipse opacity="0.5" fill="#FBFBFB" cx="456.605" cy="254.324" rx="0.449" ry="0.418"/>
		<path opacity="0.5" fill="#494D57" d="M468.688,239.074c0,0.262-0.555,0.473-1.238,0.473c-0.68,0-1.234-0.211-1.234-0.473
			c0-0.263,0.555-0.473,1.234-0.473C468.133,238.602,468.688,238.812,468.688,239.074z"/>
	</g>
</g>
<g id="curtain">
	<polygon opacity="0.8" fill="#F0AD4E" points="173.023,196.447 173.023,323.949 386,172 386,88.214 	"/>
</g>
<g id="wood">
	<g>
		<polygon fill="#8B6700" stroke="#000000" stroke-miterlimit="10" points="173.023,196.447 173.023,323.949 386,172 386,88.215 		
			"/>
		<polygon fill="#8B6700" stroke="#000000" stroke-miterlimit="10" points="173.023,196.447 173.023,229.772 386,113.519 
			386,88.215 		"/>
		<polygon fill="#8B6700" stroke="#000000" stroke-miterlimit="10" points="173.023,259.463 173.023,292.788 386,153.534 
			386,133.23 		"/>
		<line fill="#8B6700" stroke="#000000" stroke-miterlimit="10" x1="228.62" y1="168.193" x2="228.62" y2="199.425"/>
		<line fill="#8B6700" stroke="#000000" stroke-miterlimit="10" x1="323.508" y1="119.973" x2="323.508" y2="147.63"/>
		<line fill="#8B6700" stroke="#000000" stroke-miterlimit="10" x1="285.836" y1="168.193" x2="285.836" y2="192.598"/>
		<line fill="#8B6700" stroke="#000000" stroke-miterlimit="10" x1="206.819" y1="239.432" x2="206.819" y2="270.691"/>
		<line fill="#8B6700" stroke="#000000" stroke-miterlimit="10" x1="306.424" y1="180.396" x2="306.424" y2="205.564"/>
		<line fill="#8B6700" stroke="#000000" stroke-miterlimit="10" x1="254.626" y1="239.432" x2="254.626" y2="265.729"/>
		<line fill="#8B6700" stroke="#000000" stroke-miterlimit="10" x1="359.01" y1="171.182" x2="359.01" y2="191.256"/>
	</g>
</g>
</svg>
