<?xml version="1.0" encoding="utf-8"?>
<!-- Generator: Adobe Illustrator 16.0.4, SVG Export Plug-In . SVG Version: 6.00 Build 0)  -->
<!DOCTYPE svg PUBLIC "-//W3C//DTD SVG 1.1//EN" "http://www.w3.org/Graphics/SVG/1.1/DTD/svg11.dtd">
<svg version="1.1" xmlns="http://www.w3.org/2000/svg" xmlns:xlink="http://www.w3.org/1999/xlink" x="0px" y="0px" width="584.8px"
	 height="360px" viewBox="0 0 584.8 360" enable-background="new 0 0 584.8 360" xml:space="preserve">
<g id="dolphins">
	<g enable-background="new    ">
		<path fill="#D4D4F4" d="M233.68,181.531c0.582-0.664,1.031-2.062,0.511-4.988c-1.023-5.777,0.243-24.047-49.214-31.383
			c0,0-6.016-0.902-12.469-2.449c-5.016-1.203-10.278-2.789-13.242-4.66c-0.235-0.192-0.485-0.352-0.735-0.508
			c0,0-15.633-3.691-23.558-11.742c0,0-7.586-1.5-9.328-3.379c0,0-1.356-1.219-0.989-2.234c0.25-0.711,1.367-1.321,4.422-1.317
			c0,0,3.813-0.305,11.11,0.281c-0.602,5.43,25.222,5.727,25.222,5.727c5.231,10.144,18.289,12.672,18.289,12.672
			c3.039-0.063,13.481,4.523,13.481,4.523c4.023-1.136-4.899-7.109-7.871-8.527c-11-5.235-13.09-8.754-13.09-8.754
			c69.234,22.391,63.738,46.031,62.875,52.269c-0.457,3.274-0.824,5.325-0.848,7.235c-0.09,0.07-2.308,2.16-4.301,0.992
			C233.945,185.289,232.934,183.766,233.68,181.531z"/>
		<path fill="none" stroke="#000000" stroke-width="0.4" stroke-miterlimit="10" d="M233.68,181.531
			c0.582-0.664,1.031-2.062,0.511-4.988c-1.023-5.777,0.243-24.047-49.214-31.383c0,0-6.016-0.902-12.469-2.449
			c-5.016-1.203-10.278-2.789-13.242-4.66c-0.235-0.192-0.485-0.352-0.735-0.508c0,0-15.633-3.691-23.558-11.742
			c0,0-7.586-1.5-9.328-3.379c0,0-1.356-1.219-0.989-2.234c0.25-0.711,1.367-1.321,4.422-1.317c0,0,3.813-0.305,11.11,0.281
			c-0.602,5.43,25.222,5.727,25.222,5.727c5.231,10.144,18.289,12.672,18.289,12.672c3.039-0.063,13.481,4.523,13.481,4.523
			c4.023-1.136-4.899-7.109-7.871-8.527c-11-5.235-13.09-8.754-13.09-8.754c69.234,22.391,63.738,46.031,62.875,52.269
			c-0.457,3.274-0.824,5.325-0.848,7.235c-0.09,0.07-2.308,2.16-4.301,0.992C233.945,185.289,232.934,183.766,233.68,181.531z"/>
		<path fill="#C7C7DD" d="M133.602,116.422c6.031,0.539,6.546,2.715,6.546,2.715c-7.293-0.582-11.105-0.278-11.105-0.278
			c-3.055-0.004-4.176,0.602-4.422,1.313c-3.336-1.063,0.106-3.43,1.344-3.535c0.789-0.071,7.625-0.016,7.625-0.016L133.602,116.422
			z"/>
		<path fill="none" stroke="#000000" stroke-width="0.4" stroke-miterlimit="10" d="M133.602,116.422
			c6.031,0.539,6.546,2.715,6.546,2.715c-7.293-0.582-11.105-0.278-11.105-0.278c-3.055-0.004-4.176,0.602-4.422,1.313
			c-3.336-1.063,0.106-3.43,1.344-3.535c0.789-0.071,7.625-0.016,7.625-0.016L133.602,116.422z"/>
		<path fill="#545477" d="M142.758,116.352c-0.578-0.219-0.914-0.801-0.723-1.309c0.184-0.484,0.813-0.723,1.406-0.496
			c0.598,0.226,0.934,0.808,0.743,1.312C143.992,116.363,143.363,116.602,142.758,116.352z"/>
		<path fill="none" stroke="#000000" stroke-width="0.4" stroke-miterlimit="10" d="M142.758,116.352
			c-0.578-0.219-0.914-0.801-0.723-1.309c0.184-0.484,0.813-0.723,1.406-0.496c0.598,0.226,0.934,0.808,0.743,1.312
			C143.992,116.363,143.363,116.602,142.758,116.352z"/>
		<path fill="#D0D0EA" d="M144.195,115.883c0.184-0.485-0.144-1.086-0.742-1.313c-0.578-0.218-1.215-0.008-1.406,0.496
			c-0.184,0.489,0.125,1.082,0.719,1.309C143.363,116.602,143.992,116.363,144.195,115.883z M144.125,116.395
			c-1.383,0.425-2.93,0.148-3.453-0.321l0.469-0.855c0.468-0.852,1.695-2.227,4.953,0.336
			C146.094,115.555,145.293,116.035,144.125,116.395z"/>
		<path fill="none" stroke="#000000" stroke-width="0.4" stroke-miterlimit="10" d="M144.195,115.883
			c0.184-0.485-0.144-1.086-0.742-1.313c-0.578-0.218-1.215-0.008-1.406,0.496c-0.184,0.489,0.125,1.082,0.719,1.309
			C143.363,116.602,143.992,116.363,144.195,115.883z M144.125,116.395c-1.383,0.425-2.93,0.148-3.453-0.321l0.469-0.855
			c0.468-0.852,1.695-2.227,4.953,0.336C146.094,115.555,145.293,116.035,144.125,116.395z"/>
		<path fill="#707099" d="M177.23,149.461c1.223,2.984,4.165,8.004,8.172,10.394c0,0,1.094,1.637-1.793,1.243
			c0,0-16.156-5.793-19.738-15.825c0,0-1.687-4.957-4.625-7.273c2.965,1.871,8.242,3.465,13.238,4.66
			C172.617,142.754,175.191,144.453,177.23,149.461z"/>
		<path fill="none" stroke="#000000" stroke-width="0.4" stroke-miterlimit="10" d="M177.23,149.461
			c1.223,2.984,4.165,8.004,8.172,10.394c0,0,1.094,1.637-1.793,1.243c0,0-16.156-5.793-19.738-15.825c0,0-1.687-4.957-4.625-7.273
			c2.965,1.871,8.242,3.465,13.238,4.66C172.617,142.754,175.191,144.453,177.23,149.461z"/>
		<path fill="#8B8BAF" d="M247.367,221.961c0,0-1.519-15.836-3.289-19.977c-4.609-10.801-5.914-14-5.863-17.719
			c0.019-1.892,0.383-3.941,0.851-7.234c0.864-6.238,6.36-29.879-62.875-52.269c0,0,2.082,3.539,13.09,8.754
			c2.969,1.418,11.891,7.39,7.867,8.527c0,0-10.421-4.582-13.476-4.523c0,0-13.063-2.528-18.293-12.676
			c0,0-25.82-0.293-25.223-5.723c0,0-0.496-2.172-6.547-2.719c-0.183-0.004-0.382-0.019-0.586-0.035c0,0,1.891-14.914,48.567-6.734
			c0,0,5.672-0.199,15.742-7.024c2.469-1.664,13.133-6.574,13.004-2.699c0,0-15.266,5.492-15.188,11.863
			c0.055,3.016,1.141,5.098,10.622,7.485c0,0,50.183,27.851,36.066,67.977C241.836,187.234,253.547,213.199,247.367,221.961z
			 M146.113,115.562c-3.277-2.57-4.484-1.191-4.953-0.335l-0.469,0.855c0.516,0.484,2.063,0.762,3.45,0.32
			C145.293,116.035,146.094,115.555,146.113,115.562z"/>
		<path fill="none" stroke="#000000" stroke-width="0.4" stroke-miterlimit="10" d="M247.367,221.961c0,0-1.519-15.836-3.289-19.977
			c-4.609-10.801-5.914-14-5.863-17.719c0.019-1.892,0.383-3.941,0.851-7.234c0.864-6.238,6.36-29.879-62.875-52.269
			c0,0,2.082,3.539,13.09,8.754c2.969,1.418,11.891,7.39,7.867,8.527c0,0-10.421-4.582-13.476-4.523c0,0-13.063-2.528-18.293-12.676
			c0,0-25.82-0.293-25.223-5.723c0,0-0.496-2.172-6.547-2.719c-0.183-0.004-0.382-0.019-0.586-0.035c0,0,1.891-14.914,48.567-6.734
			c0,0,5.672-0.199,15.742-7.024c2.469-1.664,13.133-6.574,13.004-2.699c0,0-15.266,5.492-15.188,11.863
			c0.055,3.016,1.141,5.098,10.622,7.485c0,0,50.183,27.851,36.066,67.977C241.836,187.234,253.547,213.199,247.367,221.961z
			 M146.113,115.562c-3.277-2.57-4.484-1.191-4.953-0.335l-0.469,0.855c0.516,0.484,2.063,0.762,3.45,0.32
			C145.293,116.035,146.094,115.555,146.113,115.562z"/>
		<path fill="#9696B2" d="M210.219,100.59c-1.242,4.629-7.332,5.824-4.453,18.668c-9.496-2.391-10.582-4.477-10.618-7.485
			c-0.078-6.367,15.184-11.863,15.184-11.863C210.32,100.113,210.281,100.324,210.219,100.59z"/>
		<path fill="none" stroke="#000000" stroke-width="0.4" stroke-miterlimit="10" d="M210.219,100.59
			c-1.242,4.629-7.332,5.824-4.453,18.668c-9.496-2.391-10.582-4.477-10.618-7.485c-0.078-6.367,15.184-11.863,15.184-11.863
			C210.32,100.113,210.281,100.324,210.219,100.59z"/>
		<path fill="#606082" d="M232.434,182.09c0,0,0.683,0.055,1.242-0.602c-0.742,2.277,0.269,3.801,0.269,3.801
			c-1.91,7.738-4.152,7.771-4.152,7.771s-6.664,6.557-19.898-0.396c-2.309-1.207-7.02-3.762-10.489-3.863
			c-0.898-0.031-2.691-1.887,1.594-3.215C201,185.586,215.559,178.629,232.434,182.09z"/>
		<path fill="none" stroke="#000000" stroke-width="0.4" stroke-miterlimit="10" d="M232.434,182.09c0,0,0.683,0.055,1.242-0.602
			c-0.742,2.277,0.269,3.801,0.269,3.801c-1.91,7.738-4.152,7.771-4.152,7.771s-6.664,6.557-19.898-0.396
			c-2.309-1.207-7.02-3.762-10.489-3.863c-0.898-0.031-2.691-1.887,1.594-3.215C201,185.586,215.559,178.629,232.434,182.09z"/>
		<path fill="#606082" d="M244.09,202.008c1.758,4.117,3.277,19.953,3.277,19.953s-0.539,2.398-3.195-2.082
			c0,0-5.551-11.465-9.879-14.863c-2.516-1.969-6.102-7.358-4.535-11.969c0,0,2.262-0.027,4.168-7.766
			c2,1.152,4.238-0.93,4.301-0.988C238.176,188.012,239.48,191.211,244.09,202.008z"/>
		<path fill="none" stroke="#000000" stroke-width="0.4" stroke-miterlimit="10" d="M244.09,202.008
			c1.758,4.117,3.277,19.953,3.277,19.953s-0.539,2.398-3.195-2.082c0,0-5.551-11.465-9.879-14.863
			c-2.516-1.969-6.102-7.358-4.535-11.969c0,0,2.262-0.027,4.168-7.766c2,1.152,4.238-0.93,4.301-0.988
			C238.176,188.012,239.48,191.211,244.09,202.008z"/>
		<polygon fill="#636C72" points="8.727,56.465 8.727,186.863 141.008,103.918 141.008,8.254 		"/>
		
			<ellipse transform="matrix(-0.4581 -0.8889 0.8889 -0.4581 77.7383 211.8172)" fill="#D2D2D2" cx="103.435" cy="82.213" rx="9.708" ry="12.467"/>
		<path fill="#5BC0DE" stroke="#636C72" stroke-miterlimit="10" d="M118.414,77.035c2.453,4.766-0.516,11.188-6.633,14.344
			c-6.121,3.152-13.074,1.848-15.531-2.918s0.512-11.188,6.633-14.344C109.004,70.965,115.957,72.27,118.414,77.035z"/>
		<path fill="#D2D2D2" d="M71.473,96.184c2.457,4.769-0.512,11.191-6.633,14.343c-6.117,3.157-13.07,1.848-15.528-2.918
			c-2.457-4.765,0.512-11.187,6.633-14.343C62.062,90.113,69.016,91.418,71.473,96.184z"/>
		<path fill="#D9534F" stroke="#636C72" stroke-miterlimit="10" d="M75.371,96.719c2.457,4.765-0.512,11.188-6.633,14.343
			c-6.121,3.153-13.074,1.848-15.531-2.917c-2.457-4.77,0.516-11.188,6.633-14.344C65.961,90.645,72.914,91.953,75.371,96.719z"/>
		<path fill="#FFFF00" d="M541.269,305.488c0,8.141-6.602,14.746-14.744,14.746c-8.145,0-14.746-6.605-14.746-14.746
			c0-8.146,6.602-14.75,14.746-14.75C534.667,290.738,541.269,297.344,541.269,305.488z"/>
		<path fill="none" stroke="#636C72" stroke-width="0.8" stroke-linecap="round" stroke-miterlimit="10" d="M541.269,305.043
			c0,0.254-0.08,0.508-0.244,0.75"/>
		
			<path fill="none" stroke="#636C72" stroke-width="0.8" stroke-linecap="round" stroke-miterlimit="10" stroke-dasharray="1.5997,1.5997" d="
			M539.812,306.816c-2.379,1.371-7.438,2.312-13.289,2.312c-6.465,0-11.957-1.152-13.949-2.758"/>
		<path fill="none" stroke="#636C72" stroke-width="0.8" stroke-linecap="round" stroke-miterlimit="10" d="M512.023,305.793
			c-0.16-0.246-0.246-0.496-0.246-0.75"/>
		<path fill="none" stroke="#636C72" stroke-width="0.8" stroke-linecap="round" stroke-miterlimit="10" d="M525.296,320.234
			c-0.254,0-0.5-0.091-0.742-0.263"/>
		
			<path fill="none" stroke="#636C72" stroke-width="0.8" stroke-linecap="round" stroke-miterlimit="10" stroke-dasharray="1.5927,1.5927" d="
			M523.566,318.742c-1.312-2.396-2.219-7.435-2.219-13.254c0-6.438,1.105-11.914,2.645-13.922"/>
		<path fill="none" stroke="#636C72" stroke-width="0.8" stroke-linecap="round" stroke-miterlimit="10" d="M524.554,291
			c0.242-0.168,0.488-0.258,0.742-0.258"/>
		<path fill="#FFFF00" d="M499.394,283.836l8.717,9.844l-9.85-8.715c-0.332-0.293-0.361-0.797-0.064-1.129
			c0.293-0.332,0.797-0.363,1.129-0.07C499.347,283.785,499.375,283.812,499.394,283.836z"/>
		<path fill="#FFFF00" d="M529.703,272.301l-1.613,13.516l0.018-13.612c0-0.44,0.357-0.802,0.805-0.802
			c0.439,0,0.801,0.359,0.801,0.802C529.71,272.234,529.707,272.27,529.703,272.301z"/>
		<path fill="#FFFF00" d="M556.832,289.961l-12.234,7.031l11.359-8.371c0.355-0.262,0.859-0.188,1.121,0.172
			c0.262,0.355,0.188,0.855-0.172,1.117C556.882,289.93,556.859,289.945,556.832,289.961z"/>
		<path fill="#FFFF00" d="M498.21,323.492l11.973-7.474l-11.051,8.781c-0.344,0.273-0.848,0.215-1.125-0.129
			c-0.271-0.348-0.215-0.852,0.129-1.125C498.16,323.527,498.187,323.508,498.21,323.492z"/>
		<path fill="#FFFF00" d="M527.671,338.062l-0.039-14.112l1.633,14.016c0.057,0.441-0.262,0.84-0.703,0.892
			c-0.438,0.051-0.836-0.267-0.887-0.703C527.671,338.121,527.671,338.09,527.671,338.062z"/>
		<path fill="#FFFF00" d="M552.82,326.184l-9.945-10.008l11.016,8.816c0.346,0.276,0.402,0.781,0.125,1.129
			c-0.275,0.344-0.779,0.402-1.125,0.125C552.867,326.227,552.843,326.207,552.82,326.184z"/>
		<path opacity="0.5" fill="#7F7F7F" enable-background="new    " d="M418.597,223.613c-1.754-0.934,0.109-3.896-0.453-7.195
			c-4.521-6.328-5.537-7.426-3.184-8.172c2.176-0.34,3.941,1.059,7.398,8.273C424.851,223.582,420.105,223.367,418.597,223.613z"/>
		<path opacity="0.5" fill="#FCF5FD" enable-background="new    " d="M414.128,248.617c13.984-10.227,39.219-0.141,55.738,4.051
			c9.082,4.898,5.852-7.75,6.93-1.238c0.941,4.805,1.75,5.215-17.707,2.902c-1.979,4.379-34.418-10.039-55.107,8.984
			C386.035,274.301,408.011,251.609,414.128,248.617z"/>
		<path fill="#5C729B" d="M416.925,223.414c2.629-1.09,3.293-3.234,3.242-6.266c-0.211-4.099-6.965-6.234-5.656-8.488
			c7.729-2.02,16.543,10.078,14.824,14.172c2.156,0.082,4.945-0.781,8.023-0.133c20.16,0,33.004,13.305,36.684,21.891
			c0.902,1.68,3.047,3.273,3.238,12.152c1.801,1.695,4.863,5.199,5.574,8.434c2.215,2.918-7.82,3.773-11.352-1.113
			c-4.699-3.137-14.754-6.233-19.676-6.522c-4.023-0.797-3.805,0.664-7.262-0.133c-3.238,1.793-6.479,3.586-9.721,5.379
			c-1.293,0.598-2.59,1.194-3.883,1.793c-3.021,0.198-6.047,0.397-9.07,0.598c2.592-1.395,5.186-2.788,7.773-4.184h1.297
			c0.969-1.195,3.223-5.996,4.195-7.191c-8.664,0.246-15.359,2.435-21.02,4.371c-4.469,1.556-14.461,5.613-18.562,9.438
			c-23.93,22.69-36.633,19.254-36.723,20.668c-0.035,2.465-13.383,17.117-15.449,15.602s1.793-9.148,1.332-13.199
			c-0.27-2.43-3.555-1.711-2.469-4.246c0.613-1.375-3.066-3.664-5.195-4.438c-3.148-1.039-4.473-1.52,0.25-2.254
			c4.859-0.645,16.273,4.734,20.285,1.078C386.417,254.238,368.503,244.121,416.925,223.414z"/>
		<path opacity="0.5" fill="#CDCBD4" enable-background="new    " d="M421.156,247.164c24.008-3.074,28.113,1.758,33.484,3.766
			c6.023,0.574,11.457,5.18,21.289,3.918c1.547-2.746,1.562,0.082,0.684,0.926c-1.309,0.652-3.602,1.021-16.906-1.016
			c-9.152,1.102,2.047,3.52,5.359,4.5c4.512,1.523,7.141,7.16,12.152,7.586c4.352,0.096,7.785-2.09,5.191,0.43
			c-4.242,3.931-13.23-4.651-15.285-5.147c-1.59-0.358-3.781-0.125-6.689-0.867c-5.275-0.957-9.5-2.258-15.869-3.555
			c-2.811-0.147-12.586-1.435-18-0.591c-5.582,0.544-13.625,2.648-20.496,5.746C386.542,271.977,409.968,248.359,421.156,247.164z"
			/>
		<path opacity="0.5" fill="#5C749C" enable-background="new    " d="M451.218,259.398c2.271,0.397,6.312,1.305,8.578,1.699
			c2.689,0.34,4.922-0.298-0.902,2.082C445.921,267.254,445.472,263.52,451.218,259.398z"/>
		<path opacity="0.5" fill="#7F7F7F" enable-background="new    " d="M453.843,251.766c2.488-1.227,5.523,2.32,11.855,3.195
			c1.562,0.18,9.32,1.629,10.625,0.465c0.449-0.395,1.523-2.383,1.066,0.914c-0.328,0.754-2.43,2.223-15.078,0.203
			c-1.473-0.277-5.242-0.652-8.316-2.613C452.832,253.203,453.218,253.688,453.843,251.766z"/>
		<path opacity="0.5" fill="#D6D6D6" enable-background="new    " d="M457.265,251.969c-0.904-0.824-2.008-0.898-3.125-0.691
			c-1.525,0.095-1.275,2.517-0.297,3.177c1.191,0.703,1.656,1.176,3.035,0.892C458.707,254.996,458.417,253.195,457.265,251.969z"/>
		<path opacity="0.5" fill="#5C739C" enable-background="new    " d="M442.542,254.383c-3.457-0.141-4.578,0.91-7.059,2.004
			c-6.547,0.211-7.328,6.137-10.148,6.512c-1.891,0.547-9.191,3.884,5.871,1.978C436.953,262.438,448.519,257.754,442.542,254.383z"
			/>
		<path opacity="0.5" fill="#040203" enable-background="new    " d="M458.097,253.543c0,0.848-0.771,1.535-1.729,1.535
			c-0.953,0-1.73-0.688-1.73-1.535c0-0.844,0.777-1.531,1.73-1.531C457.324,252.012,458.097,252.699,458.097,253.543z"/>
		<ellipse opacity="0.5" fill="#FBFBFB" enable-background="new    " cx="456.605" cy="254.324" rx="0.449" ry="0.418"/>
		<path opacity="0.5" fill="#494D57" enable-background="new    " d="M468.687,239.074c0,0.262-0.555,0.473-1.236,0.473
			s-1.234-0.211-1.234-0.473c0-0.264,0.555-0.473,1.234-0.473C468.132,238.602,468.687,238.812,468.687,239.074z"/>
	</g>
	<g>
		<path fill="#D2D2D2" d="M460.21,217v-18.46h6.396c1.473,0,2.768,0.243,3.887,0.728c1.117,0.486,2.049,1.146,2.795,1.978
			c0.744,0.832,1.303,1.808,1.676,2.925c0.373,1.118,0.561,2.311,0.561,3.575c0,1.403-0.207,2.674-0.623,3.81
			c-0.416,1.135-1.016,2.105-1.795,2.911c-0.779,0.808-1.721,1.431-2.82,1.872c-1.104,0.441-2.328,0.663-3.68,0.663L460.21,217
			L460.21,217z M473.158,207.744c0-1.04-0.145-1.998-0.43-2.873s-0.711-1.625-1.273-2.249s-1.252-1.114-2.066-1.47
			c-0.814-0.354-1.74-0.532-2.781-0.532h-4.057v14.3h4.057c1.057,0,1.996-0.182,2.82-0.546c0.822-0.364,1.508-0.866,2.055-1.508
			s0.963-1.399,1.246-2.275C473.015,209.716,473.158,208.768,473.158,207.744z"/>
		<path fill="#D2D2D2" d="M484.39,217.26c-1.023,0-1.955-0.191-2.797-0.572c-0.84-0.381-1.559-0.893-2.156-1.533
			c-0.6-0.641-1.062-1.387-1.393-2.235s-0.494-1.742-0.494-2.678c0-0.953,0.17-1.855,0.508-2.704c0.34-0.85,0.807-1.596,1.404-2.236
			s1.316-1.152,2.158-1.533c0.84-0.381,1.764-0.572,2.77-0.572c1.004,0,1.932,0.19,2.781,0.572c0.85,0.381,1.572,0.894,2.17,1.533
			c0.6,0.643,1.066,1.389,1.404,2.236s0.508,1.751,0.508,2.704c0,0.936-0.166,1.827-0.494,2.678
			c-0.33,0.851-0.797,1.595-1.402,2.235c-0.607,0.642-1.332,1.152-2.172,1.533C486.343,217.068,485.412,217.26,484.39,217.26z
			 M479.892,210.266c0,0.711,0.115,1.369,0.352,1.978c0.234,0.608,0.555,1.135,0.961,1.586c0.408,0.45,0.885,0.806,1.43,1.065
			c0.547,0.26,1.133,0.391,1.756,0.391c0.625,0,1.209-0.131,1.756-0.391c0.547-0.261,1.025-0.619,1.441-1.08
			c0.416-0.459,0.742-0.996,0.977-1.61c0.232-0.615,0.352-1.278,0.352-1.989c0-0.691-0.117-1.347-0.352-1.963
			c-0.234-0.615-0.561-1.152-0.977-1.611s-0.895-0.818-1.441-1.078c-0.547-0.262-1.131-0.392-1.756-0.392
			c-0.623,0-1.209,0.136-1.756,0.403c-0.545,0.269-1.021,0.633-1.43,1.092c-0.406,0.46-0.729,0.997-0.961,1.611
			C480.009,208.893,479.892,209.557,479.892,210.266z"/>
		<path fill="#D2D2D2" d="M501.212,205.43c-1.145,0.035-2.154,0.33-3.029,0.885c-0.877,0.556-1.494,1.326-1.859,2.313V217h-2.287
			v-13.572h2.131v3.146c0.469-0.936,1.084-1.694,1.848-2.275c0.764-0.58,1.576-0.904,2.443-0.975c0.174,0,0.32,0,0.441,0
			s0.227,0.009,0.312,0.025V205.43L501.212,205.43z"/>
		<path fill="#D2D2D2" d="M503.472,200.88v-2.86h2.289v2.86H503.472z M503.472,217v-13.572h2.289V217H503.472z"/>
		<path fill="#D2D2D2" d="M514.21,217.26c-1.092,0-2.166-0.169-3.223-0.507c-1.059-0.338-1.969-0.827-2.73-1.469l0.988-1.534
			c0.797,0.607,1.594,1.062,2.393,1.365c0.797,0.303,1.639,0.455,2.521,0.455c0.986,0,1.771-0.195,2.354-0.586
			c0.58-0.389,0.871-0.939,0.871-1.65c0-0.329-0.078-0.611-0.234-0.846c-0.156-0.233-0.391-0.438-0.701-0.61
			c-0.312-0.173-0.711-0.329-1.197-0.468c-0.484-0.139-1.049-0.286-1.689-0.442c-0.814-0.208-1.516-0.407-2.105-0.598
			c-0.588-0.19-1.074-0.416-1.455-0.677c-0.381-0.26-0.658-0.571-0.832-0.937c-0.174-0.362-0.26-0.813-0.26-1.353
			c0-0.676,0.133-1.277,0.402-1.807s0.637-0.971,1.104-1.326c0.469-0.354,1.02-0.625,1.652-0.807
			c0.631-0.182,1.312-0.273,2.041-0.273c1.021,0,1.975,0.166,2.859,0.494c0.883,0.33,1.629,0.765,2.234,1.301l-1.039,1.379
			c-0.572-0.504-1.213-0.881-1.924-1.133c-0.711-0.25-1.439-0.377-2.186-0.377c-0.832,0-1.539,0.18-2.119,0.533
			c-0.58,0.355-0.871,0.924-0.871,1.703c0,0.312,0.057,0.572,0.17,0.78c0.111,0.208,0.299,0.39,0.559,0.546
			c0.262,0.156,0.594,0.295,1.002,0.416c0.406,0.121,0.896,0.252,1.469,0.391c0.9,0.207,1.688,0.42,2.354,0.637
			c0.668,0.218,1.223,0.474,1.664,0.768c0.441,0.295,0.771,0.643,0.988,1.04s0.324,0.886,0.324,1.456
			c0,1.266-0.484,2.271-1.455,3.018C517.166,216.889,515.859,217.26,514.21,217.26z"/>
	</g>
	<g>
		<path fill="#D2D2D2" d="M222.481,81.242c0,0.711-0.143,1.361-0.429,1.95c-0.286,0.589-0.676,1.092-1.17,1.508
			c-0.494,0.416-1.066,0.737-1.716,0.962c-0.65,0.226-1.349,0.338-2.094,0.338h-8.762V67.54h9.178c0.642,0,1.223,0.139,1.742,0.416
			c0.521,0.277,0.962,0.637,1.326,1.079c0.364,0.442,0.646,0.945,0.845,1.508c0.199,0.563,0.299,1.131,0.299,1.703
			c0,0.919-0.229,1.768-0.688,2.548c-0.46,0.78-1.114,1.361-1.963,1.742c1.057,0.312,1.894,0.888,2.509,1.729
			C222.173,79.106,222.481,80.098,222.481,81.242z M210.651,69.568v6.162h5.876c0.416,0,0.797-0.082,1.145-0.247
			c0.347-0.165,0.646-0.385,0.896-0.663c0.251-0.277,0.451-0.602,0.599-0.975c0.146-0.373,0.221-0.767,0.221-1.183
			c0-0.433-0.069-0.841-0.208-1.222c-0.139-0.381-0.325-0.71-0.56-0.988c-0.233-0.277-0.52-0.494-0.857-0.65
			c-0.338-0.156-0.698-0.234-1.079-0.234H210.651z M220.115,80.826c0-0.416-0.073-0.819-0.221-1.209
			c-0.147-0.39-0.347-0.732-0.598-1.027c-0.252-0.294-0.551-0.528-0.897-0.702c-0.346-0.174-0.728-0.26-1.144-0.26h-6.604v6.344
			h6.422c0.434,0,0.832-0.087,1.196-0.26c0.364-0.173,0.685-0.403,0.962-0.689s0.494-0.62,0.65-1.001
			C220.037,81.641,220.115,81.242,220.115,80.826z"/>
		<path fill="#D2D2D2" d="M229.579,86.26c-1.422,0-2.496-0.476-3.225-1.43c-0.728-0.953-1.092-2.375-1.092-4.264v-8.138h2.288v7.696
			c0,2.773,0.962,4.16,2.886,4.16c0.937,0,1.815-0.299,2.64-0.897c0.823-0.598,1.434-1.417,1.833-2.457v-8.502h2.288v10.764
			c0,0.538,0.242,0.815,0.728,0.832V86c-0.26,0.035-0.464,0.056-0.611,0.065c-0.147,0.009-0.29,0.013-0.429,0.013
			c-0.451,0-0.828-0.134-1.131-0.403c-0.304-0.269-0.464-0.602-0.481-1.001l-0.052-1.586c-0.606,1.023-1.404,1.807-2.392,2.353
			C231.841,85.987,230.758,86.26,229.579,86.26z"/>
		<path fill="#D2D2D2" d="M239.953,84.518l8.684-10.426h-8.45v-1.664h10.895v1.482l-8.632,10.426h8.657V86h-11.153L239.953,84.518
			L239.953,84.518z"/>
		<path fill="#D2D2D2" d="M252.771,84.518l8.684-10.426h-8.45v-1.664H263.9v1.482l-8.632,10.426h8.657V86h-11.153L252.771,84.518
			L252.771,84.518z"/>
	</g>
</g>
<g id="curtain">
	<polygon opacity="0.8" fill="#F0AD4E" enable-background="new    " points="173.023,196.447 173.023,323.949 386,164 386,80.214 	
		"/>
</g>
</svg>
