<?xml version="1.0" encoding="utf-8"?>
<!-- Generator: Adobe Illustrator 16.0.4, SVG Export Plug-In . SVG Version: 6.00 Build 0)  -->
<!DOCTYPE svg PUBLIC "-//W3C//DTD SVG 1.1//EN" "http://www.w3.org/Graphics/SVG/1.1/DTD/svg11.dtd">
<svg version="1.1" xmlns="http://www.w3.org/2000/svg" xmlns:xlink="http://www.w3.org/1999/xlink" x="0px" y="0px" width="300px"
	 height="225px" viewBox="0 0 300 225" enable-background="new 0 0 300 225" xml:space="preserve">
<g id="family">
	<path fill="#D2D2D2" d="M159.5,136.098c-3.3-3.8-7.8-17.699-7.6-23.898c0.199-3.8-0.2-4.4-2.9-6c-5.8-3.2-6.5-3.9-5.4-5.3
		c0.7-0.9,0.9-3.8,0.5-7.8c-0.8-6.9-3.1-10.1-7.5-10.1c-4.7,0-6.1,2.3-6.1,9.7c0,7.8-0.7,9.3-4,9.3c-1.4,0-3.6,1.2-5,2.7
		c-2.4,2.6-3,2.8-9.8,2.5c-8.6-0.3-10.7-0.9-10.7-2.8c0-0.8-1.6-3.1-3.5-5.2c-2.4-2.7-3.9-5.8-5.1-10.3c-0.8-3.5-2.5-9.3-3.6-12.9
		c-1.1-3.6-2.3-11-2.6-16.5c-0.7-9.8-0.7-9.9-4-12.1c-1.8-1.3-3.8-2.5-4.5-2.7c-0.9-0.3-0.7-1.2,0.6-3.3c1-1.6,2.7-4.8,3.8-7.2
		c1.8-3.9,1.9-4.7,0.7-8.5C80.3,17.9,70.6,14.4,64.6,19.1c-3,2.3-8.6,11.5-8.6,14c0,2.7-3,7.8-5.7,9.7c-5.3,3.7-6.1,4.9-6.8,11.3
		c-0.4,3.5-1.8,9-3.1,12.1c-1.9,4.5-2.4,7.6-2.4,14c0,4.6-0.7,11.4-1.5,15.1c-1.4,6.7-1.1,15.7,0.6,15.7c0.4,0,1.5,0.3,2.5,0.7
		c1.7,0.6,1.7,0.5,0.1-1.7c-2.2-3.1-2.3-7.2-0.2-6.4c1.2,0.5,1.5-0.6,1.5-6.2c0-4,0.9-9.6,2-13.4c1.1-3.6,2-7.7,2-9.2
		c0-2.9,2.9-9.8,4-9.8c0.4,0,1,3.7,1.4,8.3c0.6,7.5,0.3,9.7-2.9,22.3c-2,7.6-4.2,15.6-5,17.7c-0.8,2-1.5,3.9-1.5,4.101
		c0,0.199,1.7,0.699,3.9,1.101c3.8,0.601,3.9,0.7,4.9,6.3c0.6,3.102,1.4,9.102,1.7,13.2c0.7,7.601,2,11.101,6.1,16.601
		c2.9,3.699,2.9,4,0.7,13.101c-1.3,5.7-1.4,7.8-0.5,9.8c1.3,2.7,4.9,3.4,7.1,1.3c1-1.1,1.2,0.3,1.1,6.7c-0.2,12.7-0.4,12.3,4.5,12.7
		l4.3,0.3l0.1-5.3c0-2.9-0.4-6.4-1-7.9C72.1,180.4,72.6,168,75,160c1.9-6.5,2.1-8.7,1.6-16.8c-0.6-7.101-0.3-11.2,1-17.2l1.7-7.9
		l4.2-0.6c2.3-0.4,4.7-1,5.4-1.4c1.5-1-4.3-18.2-10-29.5c-4.4-8.8-4.8-12.8-2-19.1l1.8-4l1.1,4c0.6,2.2,1.6,6.2,2.2,8.8
		c0.6,2.7,2.4,7.4,3.9,10.5c4.7,9.1,6.4,13.4,7,18c0.3,2.3,1,4.2,1.4,4.2c0.4-0.1,1.9,0.5,3.2,1.4c2.1,1.4,2.5,1.4,3.2,0.2
		c0.7-1.3,1.7-1.2,7.3,0.1c5.4,1.2,7.4,1.3,11.6,0.3c2.9-0.7,5.7-1,6.3-0.6c1.4,0.9,1.4,7.7-0.1,19.6c-1.3,10.6-0.9,13.2,5.1,33
		c4.1,13.3,4.6,18.3,2.1,20.5c-2.4,2.2-2.6,4.5-0.4,4.5c1.2,0,1.5,0.6,1,2.6c-0.8,3.2,0.8,5.4,3.9,5.4c2.2,0,2.3-0.4,2.1-4.8
		c-0.2-2.601,0.2-5.5,1-6.601c0.9-1.301,1-2.601,0.3-4.301c-1.4-3.699-1.1-8,0.6-8.699c1.1-0.399,1.5-2.199,1.5-7.601
		c0-3.899,0.7-11.8,1.6-17.5c1.2-7.5,1.4-11.2,0.6-13.3c-0.9-2.801-0.9-6.2,0.3-13c0.6-3.301,2.5-3.602,2.5-0.4
		c-0.1,2.5,10.3,22.301,11.5,21.9C161.2,141.098,161.3,137.898,159.5,136.098z M67.3,172.7c-0.8,4.6-0.8,4.5-1.4-4.2
		c-1.4-19.1-2.2-26.1-3.5-28c-1.7-2.4-1.8-5.9-0.2-14.1c1.5-8.4,3.8-8.801,3.9-0.7c0.2,12.6,0.8,27.2,1.4,34.5
		C67.9,164.5,67.8,170.1,67.3,172.7z"/>
	<path fill="#D2D2D2" d="M269.299,74.698c-1.898-2.5-3.5-10.5-3.398-16.6c0.1-3.5-0.301-7.9-0.9-9.7c-1.2-3.6-5.2-6.4-9-6.4
		c-3.6,0-7-4.4-7-9.1C249,19,240,12.4,231.6,20.3c-2.8,2.7-3.5,4-3.1,6.3c0.5,3.3,2.8,10,3.8,11c1.601,1.7,0.4,3.1-3.6,4.1
		c-6.4,1.8-8.601,4.7-10.101,13.9c-1.301,7.8-4.601,15.9-7.301,17.9c-0.8,0.6-1.398,1.8-1.199,2.6c0.399,2.5-1.199,7.2-5.199,14.6
		c-2.2,4-3.9,7.8-3.9,8.5c0,0.7-1,3.6-2.1,6.4l-2.2,5.1l-6,0.7c-3.3,0.3-6.8,1.3-7.7,2.1c-2.9,2.7-4.3-1.1-1.4-4
		c2.102-2,2.9-8.6,1.5-11.4c-1.5-2.8-8-3-10.398-0.3c-2.2,2.4-2.2,8.6,0,11.9c1.6,2.5,1.6,2.6-0.602,4.399
		c-1.3,1.101-3.199,1.899-4.199,1.899c-6,0-7.399,18.5-2.301,32c2,5.601,2.5,19.5,1,30c-1,6.8-1,9.899-0.3,10.8
		c0.8,1.102,0.7,1.602-0.6,2.301c-2.2,1.301-2.2,3.601,0.1,4.101c3.2,0.8,4.9-0.3,7.101-4.5c1.801-3.601,2.199-6.5,2.699-20.2
		c0.301-8.8,0.9-16.4,1.301-16.8c0.899-0.9,4.101,12.8,4.101,17.399c0,5.899,3.2,17,5.3,18.101c3,1.5,4.4-0.5,3-4.2
		c-0.6-1.7-0.8-3-0.3-3c1.601,0,1.8-2.9,0.5-9.8c-0.8-3.9-1.601-10.601-1.899-14.9c-0.199-4.3-0.899-9.399-1.5-11.3
		s-1.101-7.9-1.101-13.3c0-11.4,1.2-14.101,6.5-15.101c1.899-0.399,3.5-1.101,3.5-1.601c0-0.601,0.8-1,1.899-1
		c2.399,0,3.699-1.601,5.5-6.6c0.699-2.2,2.801-5.5,4.601-7.3c2.601-2.6,3.101-3.7,2.7-6.1c-0.9-4.2,2-7.3,10.1-10.9
		c1.2-0.6,2.2-1.9,2.2-3.1c0-2.9,1.899-6.2,3.101-5.5c1.399,0.9,1.101,12.1-0.601,20c-1.899,8.7-1.899,11.2-0.101,12.2
		c0.899,0.6,1.5,4.2,1.899,11.8c1.8,30.601,2.8,43.2,3.8,46.899c1.102,3.699,2.801,15.5,3,19.801c0,1,0.5,2,1,2.398
		c0.602,0.4,0.602,1.102-0.1,1.9s-0.9,2.7-0.5,4.4c0.6,2.699,1,2.898,5.6,3.3l4.9,0.3v-4.8c0-2.601,0.3-4.7,0.8-4.7
		c0.4,0,1.9,1.5,3.4,3.4c2,2.5,2.399,3.6,1.5,4.5c-0.8,0.8,0,1.1,3.399,1.1h4.5l0.101-3.7c0.1-2.2-0.9-5.8-2.3-8.5
		c-1.301-2.6-2-4.8-1.5-4.8c1.398,0,2.398-3.9,2.199-8.6c0-2.301,0.699-7,1.801-10.5c1-3.5,2.199-7.7,2.5-9.2
		c1.1-4.7,1.5-31.8,0.699-38.7c-0.5-3.7-0.5-6.9,0-7.5c0.5-0.5,0.899,0,0.899,1.3c0,1.2,0.5,2.2,1,2.2c0.601,0,1-0.7,1-1.5
		s0.5-1.5,1.101-1.5c0.801,0,1,1.7,0.699,5c-0.5,5.3,0.4,6.4,2.2,2.9c0.8-1.4,0.899-5.5,0.5-12.7c-0.5-6.8-0.3-13.6,0.5-18.5
		C269.699,78.998,269.799,75.398,269.299,74.698z M167.1,137c-0.601-3.3-0.301-7,0.5-7c0.2,0,0.301,2.4,0.301,5.2
		C167.7,140,167.7,140.1,167.1,137z M244.201,161c-1.602,6.7-3-29.1-1.5-39.6l0.699-4.9l1.301,7.5c0.699,4.1,1.599,10.1,1.898,13.3
		C247.201,142.3,246.1,153.5,244.201,161z M263.5,99.1c-1,4.3-1.7,3-3-5.6c-1.2-7.6-0.6-9.8,1.3-4.8C263.8,94,264.1,96.1,263.5,99.1
		z"/>
</g>
<g id="childrenhalf">
	<path fill="#F0AD4E" d="M100.7,110.598c0.7-1.3,1.7-1.199,7.3,0.101c5.4,1.2,7.4,1.3,11.6,0.3c2.9-0.7,5.7-1,6.3-0.6
		c1.4,0.899,1.4,7.699-0.1,19.6c-1.3,10.6-0.9,13.2,5.1,33c4.1,13.3,4.6,18.3,2.1,20.5c-2.4,2.2-2.6,4.5-0.4,4.5
		c1.2,0,1.5,0.6,1,2.6c-0.8,3.2,0.8,5.4,3.9,5.4c2.2,0,2.3-0.4,2.1-4.8c-0.2-2.601,0.2-5.5,1-6.601c0.9-1.301,1-2.601,0.3-4.301
		c-1.4-3.699-1.1-8,0.6-8.699c1.1-0.399,1.5-2.199,1.5-7.601c0-3.899,0.7-11.8,1.6-17.5c1.2-7.5,1.4-11.2,0.6-13.3
		c-0.9-2.801-0.9-6.2,0.3-13c0.6-3.301,2.5-3.602,2.5-0.4c-0.1,2.5,10.3,22.301,11.5,21.9c1.7-0.602,1.8-3.801,0-5.602
		c-3.3-3.8-7.8-17.699-7.6-23.898c0.199-3.801-0.2-4.4-2.9-6c-5.8-3.2-6.5-3.9-5.4-5.3c0.7-0.9,0.9-3.8,0.5-7.8
		c-0.8-6.9-3.1-10.1-7.5-10.1c-4.7,0-6.1,2.3-6.1,9.7c0,7.8-0.7,9.3-4,9.3c-1.4,0-3.6,1.2-5,2.7c-2.4,2.6-3,2.8-9.8,2.5
		c-8.6-0.301-10.7-0.9-10.7-2.8L100.7,110.598z"/>
	<path fill="#F0AD4E" d="M176.9,95.943c-2.233,0-4.199,1.854-4.199,1.854c-2.2,2.4-2.2,8.601,0,11.9c1.6,2.5,1.6,2.6-0.602,4.399
		c-1.3,1.101-3.199,1.899-4.199,1.899c-6,0-7.399,18.5-2.301,32c2,5.601,2.5,19.5,1,30c-1,6.8-1,9.899-0.3,10.8
		c0.8,1.102,0.7,1.602-0.6,2.301c-2.2,1.301-2.2,3.601,0.1,4.101c3.2,0.8,4.9-0.3,7.101-4.5c1.801-3.601,2.199-6.5,2.699-20.2
		c0.301-8.8,0.9-16.4,1.301-16.8V95.943z M167.1,136.998c-0.601-3.3-0.301-7,0.5-7c0.2,0,0.301,2.4,0.301,5.2
		C167.7,139.998,167.7,140.098,167.1,136.998z"/>
</g>
<g id="childrenfull">
	<path fill="#5BC0DE" d="M100.7,110.598c0.7-1.3,1.7-1.199,7.3,0.101c5.4,1.2,7.4,1.3,11.6,0.3c2.9-0.7,5.7-1,6.3-0.6
		c1.4,0.899,1.4,7.699-0.1,19.6c-1.3,10.6-0.9,13.2,5.1,33c4.1,13.3,4.6,18.3,2.1,20.5c-2.4,2.2-2.6,4.5-0.4,4.5
		c1.2,0,1.5,0.6,1,2.6c-0.8,3.2,0.8,5.4,3.9,5.4c2.2,0,2.3-0.4,2.1-4.8c-0.199-2.601,0.2-5.5,1-6.601c0.9-1.301,1-2.601,0.301-4.301
		c-1.4-3.699-1.101-8,0.6-8.699c1.1-0.399,1.5-2.199,1.5-7.601c0-3.899,0.7-11.8,1.6-17.5c1.2-7.5,1.4-11.2,0.601-13.3
		c-0.9-2.801-0.9-6.2,0.3-13c0.6-3.301,2.5-3.602,2.5-0.4c-0.1,2.5,10.3,22.301,11.5,21.9c1.7-0.602,1.8-3.801,0-5.602
		c-3.3-3.8-7.8-17.699-7.6-23.898c0.199-3.801-0.2-4.4-2.9-6c-5.8-3.2-6.5-3.9-5.4-5.3c0.7-0.9,0.9-3.8,0.5-7.8
		c-0.8-6.9-3.1-10.1-7.5-10.1c-4.7,0-6.1,2.3-6.1,9.7c0,7.8-0.7,9.3-4,9.3c-1.4,0-3.6,1.2-5,2.7c-2.4,2.6-3,2.8-9.8,2.5
		c-8.6-0.301-10.7-0.9-10.7-2.8L100.7,110.598z"/>
</g>
</svg>
