<?xml version="1.0" encoding="utf-8"?>
<!-- Generator: Adobe Illustrator 16.0.4, SVG Export Plug-In . SVG Version: 6.00 Build 0)  -->
<!DOCTYPE svg PUBLIC "-//W3C//DTD SVG 1.1//EN" "http://www.w3.org/Graphics/SVG/1.1/DTD/svg11.dtd">
<svg version="1.1" id="layer1" xmlns="http://www.w3.org/2000/svg" xmlns:xlink="http://www.w3.org/1999/xlink" x="0px" y="0px"
	 width="88.5px" height="92px" viewBox="0 0 88.5 92" enable-background="new 0 0 88.5 92" xml:space="preserve">
<g>
	<path fill="#5BC0DE" d="M30.747,9.35c0-0.293,0.053-0.586,0.158-0.877c0.105-0.292,0.26-0.553,0.464-0.784
		c0.204-0.232,0.453-0.418,0.747-0.561c0.293-0.142,0.626-0.213,0.998-0.213c0.444,0,0.825,0.099,1.142,0.295
		c0.316,0.197,0.555,0.454,0.716,0.771l-0.605,0.406c-0.069-0.147-0.151-0.271-0.248-0.372c-0.097-0.101-0.202-0.181-0.317-0.241
		c-0.114-0.06-0.234-0.102-0.357-0.127C33.319,7.623,33.2,7.61,33.085,7.61c-0.257,0-0.481,0.051-0.674,0.155
		c-0.193,0.103-0.354,0.24-0.485,0.409c-0.13,0.169-0.229,0.36-0.296,0.571c-0.066,0.211-0.1,0.422-0.1,0.633
		c0,0.239,0.039,0.466,0.117,0.681c0.078,0.216,0.187,0.406,0.327,0.571c0.14,0.165,0.306,0.297,0.499,0.396
		c0.193,0.099,0.404,0.148,0.633,0.148c0.12,0,0.242-0.015,0.368-0.045s0.248-0.078,0.365-0.145c0.117-0.066,0.225-0.15,0.323-0.251
		s0.18-0.223,0.244-0.365l0.64,0.365c-0.078,0.184-0.188,0.345-0.33,0.485c-0.142,0.14-0.303,0.258-0.481,0.354
		c-0.179,0.096-0.368,0.169-0.567,0.22c-0.2,0.05-0.396,0.076-0.588,0.076c-0.344,0-0.658-0.074-0.942-0.22
		c-0.284-0.147-0.53-0.338-0.736-0.575c-0.207-0.236-0.367-0.504-0.482-0.805S30.747,9.662,30.747,9.35z"/>
	<path fill="#5BC0DE" d="M37.282,11.896c-0.285,0-0.54-0.051-0.767-0.151c-0.227-0.101-0.421-0.236-0.582-0.406
		c-0.161-0.17-0.284-0.368-0.371-0.595c-0.087-0.227-0.131-0.464-0.131-0.712s0.043-0.485,0.131-0.712
		c0.087-0.227,0.212-0.425,0.375-0.595c0.163-0.169,0.358-0.305,0.585-0.406c0.227-0.101,0.48-0.151,0.76-0.151
		c0.279,0,0.533,0.05,0.76,0.151c0.227,0.101,0.422,0.236,0.585,0.406c0.163,0.17,0.288,0.368,0.375,0.595
		c0.087,0.227,0.131,0.464,0.131,0.712s-0.044,0.485-0.131,0.712c-0.087,0.227-0.212,0.425-0.375,0.595
		c-0.163,0.169-0.358,0.305-0.585,0.406C37.815,11.845,37.561,11.896,37.282,11.896z M36.208,10.038
		c0,0.174,0.027,0.335,0.083,0.481c0.055,0.147,0.131,0.274,0.227,0.382s0.21,0.193,0.34,0.254c0.131,0.062,0.272,0.093,0.423,0.093
		s0.292-0.031,0.423-0.093c0.131-0.062,0.244-0.148,0.341-0.258c0.096-0.11,0.172-0.238,0.227-0.385
		c0.055-0.146,0.083-0.307,0.083-0.481c0-0.17-0.027-0.329-0.083-0.478c-0.055-0.149-0.13-0.279-0.227-0.389
		c-0.097-0.11-0.21-0.196-0.341-0.258c-0.131-0.062-0.271-0.093-0.423-0.093c-0.147,0-0.286,0.032-0.417,0.096
		c-0.13,0.064-0.244,0.151-0.34,0.262c-0.096,0.11-0.173,0.24-0.23,0.389C36.237,9.709,36.208,9.869,36.208,10.038z"/>
	<path fill="#5BC0DE" d="M43.032,11.827h-0.756V9.811c0-0.339-0.054-0.586-0.162-0.74c-0.108-0.153-0.268-0.23-0.479-0.23
		c-0.11,0-0.22,0.021-0.33,0.062c-0.11,0.042-0.213,0.1-0.31,0.176s-0.182,0.165-0.258,0.268s-0.134,0.217-0.175,0.34v2.14h-0.757
		V8.229h0.688v0.722c0.137-0.243,0.337-0.435,0.598-0.575c0.262-0.14,0.551-0.209,0.867-0.209c0.215,0,0.392,0.039,0.529,0.117
		c0.138,0.078,0.247,0.185,0.327,0.32c0.08,0.136,0.136,0.292,0.168,0.468c0.032,0.177,0.048,0.364,0.048,0.561V11.827z"/>
	<path fill="#5BC0DE" d="M45.915,11.641c-0.097,0.046-0.229,0.097-0.399,0.155c-0.169,0.057-0.351,0.086-0.543,0.086
		c-0.119,0-0.231-0.016-0.337-0.048s-0.198-0.08-0.278-0.145c-0.081-0.064-0.144-0.148-0.189-0.251s-0.069-0.228-0.069-0.375v-2.25
		h-0.475V8.229h0.475V7.045h0.757v1.184h0.784v0.584h-0.784v2.009c0.009,0.128,0.049,0.221,0.121,0.279
		c0.071,0.057,0.159,0.086,0.265,0.086s0.207-0.019,0.303-0.055s0.167-0.066,0.213-0.089L45.915,11.641z"/>
	<path fill="#5BC0DE" d="M48.46,8.882c-0.293,0.009-0.554,0.077-0.781,0.203c-0.227,0.126-0.389,0.306-0.485,0.54v2.201h-0.757
		V8.229h0.702v0.805c0.124-0.248,0.286-0.446,0.485-0.595c0.2-0.149,0.414-0.23,0.643-0.244c0.046,0,0.084,0,0.114,0
		s0.056,0.002,0.079,0.007V8.882z"/>
	<path fill="#5BC0DE" d="M50.627,11.896c-0.285,0-0.54-0.051-0.767-0.151c-0.227-0.101-0.421-0.236-0.582-0.406
		c-0.161-0.17-0.284-0.368-0.371-0.595c-0.087-0.227-0.131-0.464-0.131-0.712s0.043-0.485,0.131-0.712
		c0.087-0.227,0.212-0.425,0.375-0.595c0.163-0.169,0.358-0.305,0.585-0.406c0.227-0.101,0.48-0.151,0.76-0.151
		c0.279,0,0.533,0.05,0.76,0.151c0.227,0.101,0.422,0.236,0.585,0.406c0.163,0.17,0.288,0.368,0.375,0.595
		c0.087,0.227,0.131,0.464,0.131,0.712s-0.044,0.485-0.131,0.712c-0.087,0.227-0.212,0.425-0.375,0.595
		c-0.163,0.169-0.358,0.305-0.585,0.406C51.16,11.845,50.906,11.896,50.627,11.896z M49.554,10.038c0,0.174,0.027,0.335,0.083,0.481
		c0.055,0.147,0.131,0.274,0.227,0.382s0.21,0.193,0.34,0.254c0.131,0.062,0.272,0.093,0.423,0.093s0.292-0.031,0.423-0.093
		c0.131-0.062,0.244-0.148,0.341-0.258c0.096-0.11,0.172-0.238,0.227-0.385c0.055-0.146,0.083-0.307,0.083-0.481
		c0-0.17-0.027-0.329-0.083-0.478c-0.055-0.149-0.13-0.279-0.227-0.389c-0.097-0.11-0.21-0.196-0.341-0.258
		c-0.131-0.062-0.271-0.093-0.423-0.093c-0.147,0-0.286,0.032-0.417,0.096c-0.13,0.064-0.244,0.151-0.34,0.262
		c-0.096,0.11-0.173,0.24-0.23,0.389C49.582,9.709,49.554,9.869,49.554,10.038z"/>
	<path fill="#5BC0DE" d="M53.158,6.805h0.757v3.983c0,0.133,0.034,0.237,0.103,0.313s0.165,0.113,0.289,0.113
		c0.05,0,0.109-0.009,0.175-0.027c0.066-0.019,0.129-0.039,0.189-0.062l0.11,0.592c-0.11,0.05-0.241,0.09-0.392,0.12
		s-0.287,0.045-0.406,0.045c-0.262,0-0.464-0.071-0.609-0.213s-0.217-0.344-0.217-0.605V6.805z"/>
</g>
<g>
	<path fill="#D9534F" d="M32.494,38.03h0.674l1.926,4.884h-0.812l-0.516-1.328h-1.885l-0.509,1.328h-0.818L32.494,38.03z
		 M33.615,41.016l-0.784-2.099l-0.812,2.099H33.615z"/>
	<path fill="#D9534F" d="M37.605,42.729c-0.097,0.046-0.229,0.097-0.399,0.155c-0.169,0.057-0.351,0.086-0.543,0.086
		c-0.119,0-0.231-0.016-0.337-0.048s-0.198-0.08-0.278-0.145c-0.081-0.064-0.144-0.148-0.189-0.251s-0.069-0.228-0.069-0.375v-2.25
		h-0.475v-0.584h0.475v-1.184h0.757v1.184h0.784v0.584h-0.784v2.009c0.009,0.128,0.049,0.221,0.121,0.279
		c0.071,0.057,0.159,0.086,0.265,0.086s0.207-0.019,0.303-0.055s0.167-0.066,0.213-0.089L37.605,42.729z"/>
	<path fill="#D9534F" d="M40.15,39.97c-0.293,0.009-0.554,0.077-0.781,0.203c-0.227,0.126-0.389,0.306-0.485,0.54v2.201h-0.757
		v-3.598h0.702v0.805c0.124-0.248,0.286-0.446,0.485-0.595c0.2-0.149,0.414-0.23,0.643-0.244c0.046,0,0.084,0,0.114,0
		s0.056,0.002,0.079,0.007V39.97z"/>
	<path fill="#D9534F" d="M42.317,42.983c-0.285,0-0.54-0.051-0.767-0.151c-0.227-0.101-0.421-0.236-0.582-0.406
		c-0.161-0.17-0.284-0.368-0.371-0.595c-0.087-0.227-0.131-0.464-0.131-0.712s0.043-0.485,0.131-0.712
		c0.087-0.227,0.212-0.425,0.375-0.595c0.163-0.169,0.358-0.305,0.585-0.406c0.227-0.101,0.48-0.151,0.76-0.151
		c0.279,0,0.533,0.05,0.76,0.151c0.227,0.101,0.422,0.236,0.585,0.406c0.163,0.17,0.288,0.368,0.375,0.595
		c0.087,0.227,0.131,0.464,0.131,0.712s-0.044,0.485-0.131,0.712c-0.087,0.227-0.212,0.425-0.375,0.595
		c-0.163,0.169-0.358,0.305-0.585,0.406C42.851,42.932,42.597,42.983,42.317,42.983z M41.244,41.125
		c0,0.174,0.027,0.335,0.083,0.481c0.055,0.147,0.131,0.274,0.227,0.382s0.21,0.193,0.34,0.254c0.131,0.062,0.272,0.093,0.423,0.093
		s0.292-0.031,0.423-0.093c0.131-0.062,0.244-0.148,0.341-0.258c0.096-0.11,0.172-0.238,0.227-0.385
		c0.055-0.146,0.083-0.307,0.083-0.481c0-0.17-0.027-0.329-0.083-0.478c-0.055-0.149-0.13-0.279-0.227-0.389
		c-0.097-0.11-0.21-0.196-0.341-0.258c-0.131-0.062-0.271-0.093-0.423-0.093c-0.147,0-0.286,0.032-0.417,0.096
		c-0.13,0.064-0.244,0.151-0.34,0.262c-0.096,0.11-0.173,0.24-0.23,0.389C41.272,40.796,41.244,40.956,41.244,41.125z"/>
	<path fill="#D9534F" d="M46.885,42.983c-0.289,0-0.543-0.069-0.764-0.207s-0.395-0.316-0.522-0.537v2.14h-0.757v-5.063h0.667v0.646
		c0.138-0.215,0.315-0.388,0.533-0.516s0.464-0.192,0.74-0.192c0.248,0,0.475,0.05,0.681,0.151c0.206,0.101,0.385,0.236,0.537,0.406
		c0.151,0.17,0.269,0.367,0.354,0.592s0.127,0.461,0.127,0.708c0,0.261-0.039,0.505-0.117,0.732s-0.188,0.424-0.33,0.592
		s-0.311,0.3-0.506,0.399C47.333,42.934,47.119,42.983,46.885,42.983z M46.637,42.336c0.161,0,0.306-0.035,0.437-0.104
		c0.13-0.069,0.243-0.16,0.337-0.275c0.094-0.115,0.166-0.246,0.217-0.392c0.05-0.147,0.076-0.298,0.076-0.454
		c0-0.165-0.029-0.321-0.086-0.468c-0.058-0.147-0.136-0.275-0.234-0.385c-0.099-0.11-0.217-0.197-0.354-0.262
		c-0.138-0.064-0.287-0.096-0.447-0.096c-0.096,0-0.197,0.019-0.303,0.055s-0.204,0.087-0.295,0.151
		c-0.092,0.064-0.172,0.139-0.241,0.224c-0.068,0.085-0.117,0.178-0.144,0.278v0.942c0.045,0.11,0.105,0.213,0.179,0.31
		c0.073,0.097,0.155,0.179,0.244,0.248s0.187,0.124,0.292,0.165C46.419,42.315,46.527,42.336,46.637,42.336z"/>
	<path fill="#D9534F" d="M49.162,38.725v-0.833h0.757v0.833H49.162z M49.162,42.914v-3.598h0.757v3.598H49.162z"/>
	<path fill="#D9534F" d="M54.053,42.914h-0.756v-2.016c0-0.339-0.054-0.586-0.162-0.74c-0.108-0.153-0.268-0.23-0.479-0.23
		c-0.11,0-0.22,0.021-0.33,0.062c-0.11,0.042-0.213,0.1-0.31,0.176s-0.182,0.165-0.258,0.268s-0.134,0.217-0.175,0.34v2.14h-0.757
		v-3.598h0.688v0.722c0.137-0.243,0.337-0.435,0.598-0.575c0.262-0.14,0.551-0.209,0.867-0.209c0.215,0,0.392,0.039,0.529,0.117
		c0.138,0.078,0.247,0.185,0.327,0.32c0.08,0.136,0.136,0.292,0.168,0.468c0.032,0.177,0.048,0.364,0.048,0.561V42.914z"/>
	<path fill="#D9534F" d="M56.564,42.983c-0.28,0-0.534-0.049-0.764-0.148s-0.425-0.233-0.588-0.402
		c-0.163-0.17-0.289-0.367-0.378-0.592c-0.09-0.225-0.134-0.463-0.134-0.715s0.044-0.492,0.134-0.719
		c0.089-0.227,0.215-0.427,0.378-0.599c0.163-0.172,0.359-0.307,0.588-0.406s0.486-0.148,0.771-0.148c0.28,0,0.533,0.05,0.76,0.151
		c0.227,0.101,0.42,0.235,0.581,0.402s0.283,0.362,0.368,0.584c0.085,0.223,0.127,0.456,0.127,0.698
		c0,0.055-0.002,0.107-0.007,0.155c-0.005,0.048-0.009,0.088-0.014,0.121h-2.882c0.014,0.161,0.052,0.305,0.114,0.434
		c0.062,0.128,0.142,0.24,0.241,0.333c0.099,0.094,0.211,0.166,0.337,0.217c0.126,0.05,0.258,0.076,0.396,0.076
		c0.101,0,0.201-0.013,0.299-0.038c0.099-0.025,0.189-0.062,0.272-0.11c0.083-0.048,0.156-0.107,0.22-0.175
		c0.064-0.069,0.115-0.145,0.151-0.227l0.647,0.186c-0.124,0.271-0.329,0.492-0.616,0.664
		C57.278,42.897,56.944,42.983,56.564,42.983z M57.658,40.843c-0.014-0.151-0.052-0.291-0.114-0.419
		c-0.062-0.128-0.141-0.237-0.237-0.327c-0.096-0.089-0.208-0.16-0.337-0.21s-0.264-0.076-0.406-0.076s-0.276,0.025-0.402,0.076
		c-0.126,0.05-0.237,0.121-0.334,0.21c-0.096,0.089-0.174,0.198-0.234,0.327s-0.096,0.268-0.11,0.419H57.658z"/>
</g>
<g>
	<path fill="#D2D2D2" d="M56.155,76.705c0-0.388,0.04-0.701,0.12-0.937c0.08-0.237,0.199-0.419,0.356-0.547
		c0.158-0.128,0.356-0.193,0.595-0.193c0.176,0,0.331,0.036,0.463,0.106s0.243,0.173,0.329,0.307
		c0.087,0.134,0.155,0.296,0.204,0.488s0.074,0.451,0.074,0.776c0,0.385-0.04,0.696-0.119,0.933
		c-0.079,0.237-0.197,0.42-0.355,0.549c-0.157,0.129-0.356,0.194-0.597,0.194c-0.316,0-0.565-0.114-0.746-0.34
		C56.263,77.766,56.155,77.321,56.155,76.705z M56.569,76.705c0,0.539,0.063,0.898,0.189,1.076c0.126,0.178,0.282,0.268,0.467,0.268
		s0.341-0.09,0.467-0.269c0.126-0.179,0.189-0.538,0.189-1.075c0-0.541-0.063-0.899-0.189-1.077
		c-0.126-0.178-0.283-0.267-0.471-0.267c-0.185,0-0.333,0.079-0.443,0.235C56.638,75.796,56.569,76.166,56.569,76.705z"/>
	<path fill="#D2D2D2" d="M58.932,78.324v-0.459h0.459v0.459H58.932z"/>
	<path fill="#D2D2D2" d="M59.979,77.464l0.423-0.036c0.031,0.206,0.104,0.361,0.218,0.464c0.114,0.104,0.252,0.156,0.413,0.156
		c0.194,0,0.358-0.073,0.493-0.22c0.134-0.146,0.202-0.34,0.202-0.582c0-0.23-0.065-0.411-0.194-0.544
		c-0.129-0.133-0.298-0.2-0.507-0.2c-0.13,0-0.247,0.03-0.352,0.089c-0.104,0.059-0.187,0.135-0.246,0.229l-0.378-0.049l0.318-1.687
		h1.632v0.385h-1.31l-0.177,0.882c0.197-0.137,0.404-0.206,0.62-0.206c0.287,0,0.529,0.1,0.726,0.298
		c0.197,0.199,0.296,0.454,0.296,0.766c0,0.297-0.087,0.554-0.26,0.77c-0.211,0.266-0.498,0.399-0.862,0.399
		c-0.299,0-0.542-0.084-0.731-0.251C60.114,77.962,60.006,77.74,59.979,77.464z"/>
	<path fill="#D2D2D2" d="M63.916,78.324v-2.378h0.36v0.334c0.075-0.117,0.174-0.21,0.298-0.281c0.124-0.071,0.265-0.106,0.423-0.106
		c0.176,0,0.321,0.037,0.434,0.11c0.112,0.073,0.192,0.175,0.238,0.307c0.188-0.277,0.433-0.417,0.734-0.417
		c0.236,0,0.417,0.065,0.544,0.196c0.127,0.13,0.19,0.332,0.19,0.604v1.632h-0.401v-1.498c0-0.161-0.013-0.277-0.04-0.348
		c-0.026-0.071-0.073-0.128-0.142-0.171s-0.149-0.065-0.242-0.065c-0.167,0-0.306,0.056-0.417,0.167
		c-0.11,0.111-0.166,0.289-0.166,0.534v1.382h-0.403v-1.545c0-0.179-0.033-0.314-0.099-0.403c-0.065-0.089-0.173-0.134-0.322-0.134
		c-0.114,0-0.218,0.03-0.315,0.089c-0.096,0.06-0.166,0.147-0.209,0.262c-0.043,0.115-0.065,0.281-0.065,0.497v1.234H63.916z"/>
	<path fill="#D2D2D2" d="M68.726,78.324l-1.272-3.283h0.47l0.854,2.385c0.068,0.191,0.126,0.37,0.172,0.538
		c0.051-0.179,0.11-0.358,0.177-0.538l0.887-2.385h0.443l-1.285,3.283H68.726z"/>
</g>
<g>
	<path fill="#D2D2D2" d="M71.394,86.784h-0.403v-2.568c-0.097,0.092-0.225,0.185-0.382,0.277c-0.158,0.093-0.299,0.162-0.424,0.208
		v-0.39c0.225-0.106,0.422-0.234,0.591-0.385c0.169-0.151,0.288-0.297,0.358-0.439h0.26V86.784z"/>
	<path fill="#D2D2D2" d="M72.426,85.165c0-0.388,0.04-0.701,0.12-0.937c0.08-0.237,0.199-0.419,0.356-0.547
		c0.158-0.128,0.356-0.193,0.595-0.193c0.176,0,0.331,0.036,0.463,0.106s0.243,0.173,0.329,0.307
		c0.087,0.134,0.155,0.296,0.204,0.488s0.074,0.451,0.074,0.776c0,0.385-0.04,0.696-0.119,0.933
		c-0.079,0.237-0.197,0.42-0.355,0.549c-0.157,0.129-0.356,0.194-0.597,0.194c-0.316,0-0.565-0.114-0.746-0.34
		C72.534,86.227,72.426,85.782,72.426,85.165z M72.84,85.165c0,0.539,0.063,0.898,0.189,1.076c0.126,0.178,0.282,0.268,0.467,0.268
		s0.341-0.09,0.467-0.269c0.126-0.179,0.189-0.538,0.189-1.075c0-0.541-0.063-0.899-0.189-1.077
		c-0.126-0.178-0.283-0.267-0.471-0.267c-0.185,0-0.333,0.079-0.443,0.235C72.91,84.257,72.84,84.626,72.84,85.165z"/>
	<path fill="#D2D2D2" d="M74.977,85.165c0-0.388,0.04-0.701,0.12-0.937c0.08-0.237,0.199-0.419,0.356-0.547
		c0.158-0.128,0.356-0.193,0.595-0.193c0.176,0,0.331,0.036,0.463,0.106s0.243,0.173,0.329,0.307
		c0.087,0.134,0.155,0.296,0.204,0.488s0.074,0.451,0.074,0.776c0,0.385-0.04,0.696-0.119,0.933
		c-0.079,0.237-0.197,0.42-0.355,0.549c-0.157,0.129-0.356,0.194-0.597,0.194c-0.316,0-0.565-0.114-0.746-0.34
		C75.085,86.227,74.977,85.782,74.977,85.165z M75.391,85.165c0,0.539,0.063,0.898,0.189,1.076c0.126,0.178,0.282,0.268,0.467,0.268
		s0.341-0.09,0.467-0.269c0.126-0.179,0.189-0.538,0.189-1.075c0-0.541-0.063-0.899-0.189-1.077
		c-0.126-0.178-0.283-0.267-0.471-0.267c-0.185,0-0.333,0.079-0.443,0.235C75.46,84.257,75.391,84.626,75.391,85.165z"/>
	<path fill="#D2D2D2" d="M78.914,86.784v-2.378h0.36v0.334c0.075-0.117,0.174-0.21,0.298-0.281c0.124-0.071,0.265-0.106,0.423-0.106
		c0.176,0,0.321,0.037,0.434,0.11c0.112,0.073,0.192,0.175,0.238,0.307c0.188-0.277,0.433-0.417,0.734-0.417
		c0.236,0,0.417,0.065,0.544,0.196c0.127,0.13,0.19,0.332,0.19,0.604v1.632h-0.401v-1.498c0-0.161-0.013-0.277-0.04-0.348
		c-0.026-0.071-0.073-0.128-0.142-0.171s-0.149-0.065-0.242-0.065c-0.167,0-0.306,0.056-0.417,0.167
		c-0.11,0.111-0.166,0.289-0.166,0.534v1.382h-0.403v-1.545c0-0.179-0.033-0.314-0.099-0.403c-0.065-0.089-0.173-0.134-0.322-0.134
		c-0.114,0-0.218,0.03-0.315,0.089c-0.096,0.06-0.166,0.147-0.209,0.262c-0.043,0.115-0.065,0.281-0.065,0.497v1.234H78.914z"/>
	<path fill="#D2D2D2" d="M82.573,86.074l0.398-0.062c0.022,0.16,0.085,0.282,0.187,0.367c0.103,0.085,0.245,0.127,0.429,0.127
		c0.185,0,0.323-0.038,0.412-0.113c0.09-0.076,0.134-0.164,0.134-0.266c0-0.091-0.04-0.163-0.119-0.215
		c-0.055-0.036-0.192-0.082-0.412-0.137c-0.296-0.075-0.5-0.139-0.615-0.193c-0.114-0.055-0.201-0.13-0.26-0.227
		c-0.059-0.096-0.088-0.203-0.088-0.319c0-0.106,0.024-0.204,0.073-0.294c0.048-0.09,0.114-0.166,0.198-0.225
		c0.063-0.046,0.148-0.085,0.257-0.118c0.108-0.032,0.224-0.048,0.348-0.048c0.187,0,0.35,0.027,0.491,0.081
		c0.141,0.054,0.245,0.127,0.312,0.219s0.113,0.214,0.139,0.368l-0.394,0.054c-0.018-0.123-0.07-0.218-0.155-0.287
		c-0.086-0.068-0.208-0.103-0.364-0.103c-0.185,0-0.317,0.031-0.396,0.092c-0.08,0.062-0.119,0.133-0.119,0.215
		c0,0.053,0.017,0.1,0.049,0.141c0.033,0.043,0.084,0.079,0.155,0.108c0.04,0.015,0.159,0.049,0.356,0.103
		c0.285,0.076,0.484,0.139,0.597,0.187c0.113,0.049,0.201,0.119,0.266,0.212c0.064,0.092,0.096,0.208,0.096,0.345
		c0,0.134-0.039,0.261-0.118,0.379c-0.078,0.119-0.191,0.211-0.339,0.276c-0.147,0.065-0.315,0.097-0.501,0.097
		c-0.309,0-0.544-0.064-0.707-0.192S82.618,86.327,82.573,86.074z"/>
</g>
<line fill="none" stroke="#D2D2D2" stroke-width="0.363" stroke-linecap="round" stroke-linejoin="round" stroke-miterlimit="22.926" x1="4.904" y1="24.799" x2="81.725" y2="24.799"/>
<path fill="none" stroke="#5BC0DE" stroke-width="0.812" stroke-linecap="round" stroke-linejoin="round" stroke-miterlimit="22.926" d="
	M4.972,25.147l0.068,0.239l0.102,0.205c0.781,1.951,2.256,9.456,3.86,3.108l0.103-0.273l0.068-0.273l0.068-0.307
	c0.68-2.662,1.11-5.494,1.845-8.13l0.068-0.307l0.069-0.239c0.426-1.35,1.026-3.19,1.912-0.787l0.068,0.206l0.07,0.239l0.102,0.239
	 M13.375,19.067l0.068,0.273l0.068,0.274l0.069,0.308l0.068,0.307c0.92,3.057,1.019,6.446,2.528,9.291
	c0.266,0.362,0.616,0.347,0.922,0.034c0.192-0.286,0.161-0.114,0.376-0.512l0.068-0.137l0.069-0.137l0.102-0.136
	c0.376-0.693,0.719-1.465,1.127-2.118c0.307-0.464,0.651-0.963,1.162-1.197l0.068-0.032l0.068-0.035l0.069-0.034h0.102l0.068-0.034
	l0.069-0.035h0.067l0.069-0.034h0.103l0.069-0.034l0.067-0.034h0.068l0.103-0.035l0.069-0.033h0.068
	c0.156-0.081,0.301-0.177,0.444-0.274l0.102-0.068l0.068-0.068l0.069-0.069l0.068-0.068c1.093-1.231,1.497-3.248,2.528-4.441
	l0.068-0.067l0.069-0.035l0.103-0.034l0.067-0.035h0.24l0.068,0.035l0.068,0.069c0.473,0.292,0.927,1.742,1.059,2.254l0.102,0.239
	l0.069,0.273c0.368,1.54,0.774,3.067,1.127,4.611l0.068,0.307l0.103,0.273l0.068,0.309c0.515,1.599,1.172,4.48,2.528,1.468
	l0.069-0.171l0.067-0.205l0.069-0.171l0.068-0.204c0.823-2.05,1.416-4.15,2.528-6.081l0.068-0.136l0.103-0.137
	c0.504-0.9,1.675-3.045,2.493-3.587l0.069-0.034l0.102-0.034l0.069-0.034h0.239 M36.159,18.862l0.136,0.068l0.068,0.035l0.069,0.068
	l0.103,0.069c0.575,0.622,0.772,1.478,1.058,2.254l0.069,0.274l0.068,0.272c0.485,1.548,0.771,3.236,1.162,4.816l0.068,0.342
	l0.068,0.342l0.102,0.342l0.069,0.341c0.274,1.363,0.624,2.711,1.059,4.031l0.068,0.205l0.068,0.205l0.103,0.17
	c0.125,0.373,0.224,0.414,0.376,0.684l0.068,0.068l0.068,0.068l0.103,0.068l0.068,0.035h0.205l0.102-0.035l0.069-0.068
	c0.288-0.182,0.378-0.541,0.546-0.82c1.228-3.548,1.688-7.68,2.494-11.374l0.068-0.376l0.104-0.342l0.067-0.341
	c0.267-1.086,0.526-2.396,1.128-3.348l0.102-0.068l0.067-0.068c0.474-0.474,1.003,0.534,1.128,0.888
	c0.209,0.436,0.391,0.908,0.547,1.366c0.762,2.166,1.303,4.518,2.493,6.49l0.103,0.102l0.069,0.103
	c1.022,1.301,1.739,1.958,2.527,3.519l0.069,0.136l0.066,0.137l0.069,0.137l0.067,0.136c1.119,2.127,1.758,2.312,2.596-0.205
	l0.103-0.238l0.069-0.24c0.959-3.198,1.41-6.926,2.596-9.975l0.068-0.17l0.068-0.171l0.068-0.137l0.104-0.136 M58.943,18.521
	c0.566-0.959,1.156-0.251,1.502,0.443c0.412,0.783,0.77,1.725,1.059,2.562l0.102,0.171l0.139,0.41
	c0.611,1.55,1.195,3.112,2.355,4.338l0.068,0.069l0.104,0.068l0.067,0.069l0.069,0.067c0.773,0.597,1.421,0.939,2.357,1.23h0.102
	l0.068,0.034c1.428,0.228,2.182-0.897,2.801-2.015c0.186-0.267,0.363-0.738,0.545-1.059c0.334-0.686,0.646-1.412,0.992-2.083
	l0.067-0.137l0.067-0.171c0.328-0.476,0.564-1.043,1.094-1.332h0.068l0.068-0.034h0.239l0.067,0.034l0.07,0.034
	c0.367,0.126,0.25,0.261,0.477,0.376c0.119,0.202,0.262,0.381,0.377,0.581l0.066,0.137l0.069,0.171l0.069,0.136
	c0.386,0.672,0.712,1.638,1.093,2.322c0.118,0.368,0.299,0.522,0.444,0.854c0.285,0.377,0.606,0.878,1.158,0.82l0.07-0.034h0.068
	l0.068-0.034c0.256-0.128,0.15-0.004,0.375-0.239l0.103-0.034l0.069-0.069c0.153-0.165,0.229-0.178,0.375-0.375
	c0.157-0.168,0.225-0.176,0.375-0.376c0.328-0.292,0.65-0.586,1.06-0.752l0.103-0.034l0.067-0.034
	c0.549-0.191,1.12-0.039,1.674,0.034l0.068,0.034h0.171l0.068,0.034h0.138l0.103,0.035"/>
<path fill="#F0AD4E" d="M8.729,31.228c0,0.641-0.52,1.161-1.161,1.161c-0.642,0-1.161-0.52-1.161-1.161
	c0-0.642,0.519-1.162,1.161-1.162C8.209,30.066,8.729,30.586,8.729,31.228"/>
<path fill="#F0AD4E" d="M17.713,29.793c0,0.641-0.52,1.161-1.161,1.161c-0.641,0-1.162-0.52-1.162-1.161
	c0-0.641,0.521-1.161,1.162-1.161C17.193,28.632,17.713,29.152,17.713,29.793"/>
<path fill="#F0AD4E" d="M30.215,30.988c0,0.641-0.52,1.161-1.161,1.161c-0.642,0-1.162-0.52-1.162-1.161s0.52-1.161,1.162-1.161
	C29.695,29.827,30.215,30.347,30.215,30.988"/>
<path fill="#F0AD4E" d="M42.41,33.619c0,0.641-0.52,1.161-1.161,1.161c-0.642,0-1.162-0.52-1.162-1.161s0.52-1.162,1.162-1.162
	C41.891,32.457,42.41,32.978,42.41,33.619"/>
<path fill="#F0AD4E" d="M55.73,31.432c0,0.641-0.52,1.162-1.16,1.162c-0.643,0-1.162-0.521-1.162-1.162
	c0-0.64,0.52-1.161,1.162-1.161C55.211,30.271,55.73,30.792,55.73,31.432"/>
<path fill="#F0AD4E" d="M68.473,28.017c0,0.641-0.52,1.161-1.162,1.161c-0.64,0-1.16-0.52-1.16-1.161s0.521-1.162,1.16-1.162
	C67.953,26.855,68.473,27.376,68.473,28.017"/>
<path fill="#F0AD4E" d="M77.762,26.616c0,0.641-0.52,1.162-1.16,1.162c-0.642,0-1.162-0.521-1.162-1.162s0.521-1.161,1.162-1.161
	C77.242,25.455,77.762,25.975,77.762,26.616"/>
<polyline fill="none" stroke="#D2D2D2" stroke-width="0.75" stroke-linecap="round" stroke-linejoin="round" stroke-miterlimit="22.926" points="
	72.898,80.395 80.548,80.395 72.898,80.395 72.898,71.992 "/>
<line fill="none" stroke="#D2D2D2" stroke-width="0.363" stroke-linecap="round" stroke-linejoin="round" stroke-miterlimit="22.926" x1="4.904" y1="55.102" x2="81.725" y2="55.102"/>
<path fill="none" stroke="#D9534F" stroke-width="0.812" stroke-linecap="round" stroke-linejoin="round" stroke-miterlimit="22.926" d="
	M4.972,57.465l0.068,0.443l0.102,0.479l0.069,0.479l0.068,0.443c0.223,1.229,0.398,2.367,0.683,3.588
	c0.164,0.621,0.285,1.164,0.546,1.742c0.122,0.277,0.328,0.649,0.684,0.41c0.948-1.371,1.403-4.877,1.81-6.56l0.103-0.342
	l0.068-0.375l0.068-0.343l0.069-0.342c0.365-1.328,0.805-3.861,1.844-4.85c0.141-0.178,0.359-0.251,0.512-0.41l0.103-0.035
	l0.069-0.033l0.067-0.068l0.069-0.068l0.103-0.035l0.068-0.068l0.068-0.067l0.069-0.067c0.252-0.182,0.613-0.834,0.785-1.094
	l0.068-0.171l0.068-0.136l0.07-0.172l0.102-0.17 M13.375,49.643l0.068-0.172l0.068-0.17l0.069-0.172l0.068-0.17
	c1.363-3.414,1.805-2.546,2.528,0.684l0.069,0.375l0.101,0.41l0.069,0.41c0.379,2.367,0.724,4.73,1.059,7.104l0.068,0.547
	l0.069,0.478c0.309,1.618,0.536,3.842,1.161,5.363c0.467,1.001,0.846,0.083,1.059-0.479c0.167-0.487,0.262-0.785,0.376-1.299
	l0.102-0.307l0.068-0.341l0.069-0.31c0.377-1.783,0.773-3.571,1.127-5.361l0.102-0.307l0.068-0.343l0.069-0.307
	c0.304-0.951,1.202-5.487,2.596-2.597c0.199,0.429,0.365,0.862,0.547,1.298c0.352,0.97,0.647,1.956,1.059,2.905l0.068,0.203
	l0.068,0.172c0.235,0.385,0.686,1.51,1.298,0.819l0.068-0.103l0.103-0.137l0.068-0.103c1.223-2.792,1.585-6.408,2.528-9.358
	l0.069-0.24l0.067-0.239l0.069-0.204l0.068-0.205c1.421-3.706,2.39,3.131,2.596,3.859l0.103,0.41l0.068,0.409l0.068,0.411
	c0.378,2.207,0.77,4.415,1.127,6.626l0.103,0.444l0.068,0.41c0.28,1.427,0.586,3.061,1.128,4.406c0.21,0.213,0.139,0.414,0.41,0.547
	 M36.159,65.014c0.126,0.168,0.283,0.119,0.444,0.035c0.532-0.49,0.835-1.604,1.059-2.291l0.068-0.272l0.102-0.272
	c0.383-1.406,0.709-2.822,1.06-4.236l0.068-0.308l0.068-0.341l0.102-0.309c0.545-2.145,1.272-6.228,2.494-7.992
	c0.323-0.26,0.147-0.189,0.478-0.273h0.068l0.068,0.034l0.07,0.034l0.067,0.034l0.103,0.034l0.067,0.068l0.069,0.068
	c0.134,0.195,0.27,0.289,0.375,0.547l0.103,0.136l0.068,0.138l0.067,0.137c0.375,0.764,0.733,1.533,1.061,2.322l0.066,0.138
	l0.104,0.17l0.068,0.137c0.75,1.448,1.261,2.08,2.903,2.117l0.068,0.035h0.067l0.069,0.032h0.103l0.068,0.035
	c2.357,0.744,3.025,6.851,5.465,2.187l0.103-0.138l0.069-0.135l0.067-0.104c0.693-1.12,1.114-1.865,2.459-2.118h0.069l0.068-0.034
	l0.067-0.033c0.259-0.022,0.899-0.377,1.06-0.582l0.103-0.067l0.067-0.067c0.377-0.338,0.81-0.807,1.127-1.197
	c0.24-0.123,0.172-0.252,0.412-0.375 M58.943,52.307l0.066-0.068l0.069-0.068l0.067-0.068l0.069-0.068l0.103-0.034
	c0.322-0.302,1.002-0.519,1.434-0.444l0.068,0.035h0.104l0.068,0.034c0.125,0.019,0.26,0.038,0.375,0.101
	c0.363,0.148,0.66,0.39,0.923,0.685c1.397,1.673,2.01,5.681,2.493,7.788l0.102,0.376l0.069,0.341l0.067,0.376l0.069,0.341
	c0.75,3.239,1.517,6.918,2.528,0.924l0.068-0.479l0.067-0.478c1.035-6.807,1.295-13.924,2.526-20.666
	c0.336-1.613,0.765-1.845,1.127-0.069c0.228,0.699,0.234,1.476,0.412,2.186l0.066,0.581l0.068,0.581l0.068,0.615
	c0.476,3.824,0.762,7.682,1.162,11.512l0.069,0.784l0.067,0.786l0.068,0.752c0.245,1.061,1.086,14.112,2.526,5.875
	c0.11-0.781,0.291-1.465,0.376-2.254c0.363-2.314,0.677-4.622,1.059-6.934l0.103-0.412l0.069-0.408l0.066-0.376
	c0.094-0.517,0.266-1.072,0.377-1.606l0.069-0.238l0.101-0.239c0.15-0.463,0.176-0.509,0.444-0.888
	c0.239-0.105,0.19-0.219,0.444-0.068c0.226,0.07,0.437,0.384,0.547,0.58c0.138,0.252,0.25,0.394,0.375,0.684l0.068,0.17l0.102,0.139
	l0.07,0.136c0.273,0.556,0.68,1.346,1.125,1.776c0.2,0.119,0.156,0.172,0.412,0.308"/>
<path fill="#F0AD4E" d="M8.047,65.116c0,0.642-0.52,1.162-1.162,1.162s-1.162-0.521-1.162-1.162s0.52-1.162,1.162-1.162
	S8.047,64.475,8.047,65.116"/>
<path fill="#F0AD4E" d="M20.309,64.774c0,0.641-0.52,1.161-1.162,1.161c-0.64,0-1.161-0.521-1.161-1.161
	c0-0.642,0.521-1.161,1.161-1.161C19.789,63.613,20.309,64.133,20.309,64.774"/>
<path fill="#F0AD4E" d="M28.165,58.284c0,0.642-0.52,1.162-1.161,1.162c-0.642,0-1.162-0.521-1.162-1.162s0.52-1.162,1.162-1.162
	C27.645,57.122,28.165,57.643,28.165,58.284"/>
<path fill="#F0AD4E" d="M37.457,65.116c0,0.642-0.52,1.162-1.162,1.162c-0.641,0-1.161-0.521-1.161-1.162s0.52-1.162,1.161-1.162
	C36.937,63.954,37.457,64.475,37.457,65.116"/>
<path fill="#F0AD4E" d="M52.691,58.899c0,0.641-0.521,1.161-1.162,1.161c-0.641,0-1.16-0.521-1.16-1.161
	c0-0.642,0.52-1.161,1.16-1.161C52.171,57.738,52.691,58.258,52.691,58.899"/>
<path fill="#F0AD4E" d="M67.619,65.766c0,0.641-0.52,1.16-1.162,1.16c-0.641,0-1.162-0.52-1.162-1.16
	c0-0.643,0.521-1.162,1.162-1.162C67.1,64.604,67.619,65.123,67.619,65.766"/>
<path fill="#F0AD4E" d="M76.089,67.268c0,0.642-0.521,1.162-1.161,1.162s-1.162-0.521-1.162-1.162c0-0.641,0.521-1.161,1.162-1.161
	S76.089,66.627,76.089,67.268"/>
<g>
</g>
<g>
</g>
<g>
</g>
<g>
</g>
<g>
</g>
<g>
</g>
</svg>
