<?xml version="1.0" encoding="utf-8" standalone="no"?>
<!DOCTYPE svg PUBLIC "-//W3C//DTD SVG 1.1//EN"
  "http://www.w3.org/Graphics/SVG/1.1/DTD/svg11.dtd">
<!-- Created with matplotlib (http://matplotlib.org/) -->
<svg height="360pt" version="1.1" viewBox="0 0 432 360" width="432pt" xmlns="http://www.w3.org/2000/svg" xmlns:xlink="http://www.w3.org/1999/xlink">
 <defs>
  <style type="text/css">
*{stroke-linecap:butt;stroke-linejoin:round;}
  </style>
 </defs>
 <g id="figure_1">
  <g id="patch_1">
   <path d="M 0 360 
L 432 360 
L 432 0 
L 0 0 
z
" style="fill:none;"/>
  </g>
  <g id="axes_1">
   <g id="patch_2">
    <path d="M 69.12 302.4 
L 414.72 302.4 
L 414.72 14.4 
L 69.12 14.4 
z
" style="fill:none;"/>
   </g>
   <g id="matplotlib.axis_1">
    <g id="xtick_1">
     <g id="line2d_1">
      <defs>
       <path d="M 0 0 
L 0 4 
" id="m28d6a749a6" style="stroke:#d2d2d2;"/>
      </defs>
      <g>
       <use style="fill:#d2d2d2;stroke:#d2d2d2;" x="80.817575" xlink:href="#m28d6a749a6" y="302.4"/>
      </g>
     </g>
     <g id="text_1">
      <!-- 0.1 -->
      <defs>
       <path d="M 31.78125 66.40625 
Q 24.171875 66.40625 20.328125 58.90625 
Q 16.5 51.421875 16.5 36.375 
Q 16.5 21.390625 20.328125 13.890625 
Q 24.171875 6.390625 31.78125 6.390625 
Q 39.453125 6.390625 43.28125 13.890625 
Q 47.125 21.390625 47.125 36.375 
Q 47.125 51.421875 43.28125 58.90625 
Q 39.453125 66.40625 31.78125 66.40625 
M 31.78125 74.21875 
Q 44.046875 74.21875 50.515625 64.515625 
Q 56.984375 54.828125 56.984375 36.375 
Q 56.984375 17.96875 50.515625 8.265625 
Q 44.046875 -1.421875 31.78125 -1.421875 
Q 19.53125 -1.421875 13.0625 8.265625 
Q 6.59375 17.96875 6.59375 36.375 
Q 6.59375 54.828125 13.0625 64.515625 
Q 19.53125 74.21875 31.78125 74.21875 
" id="DejaVuSans-30"/>
       <path d="M 10.6875 12.40625 
L 21 12.40625 
L 21 0 
L 10.6875 0 
z
" id="DejaVuSans-2e"/>
       <path d="M 12.40625 8.296875 
L 28.515625 8.296875 
L 28.515625 63.921875 
L 10.984375 60.40625 
L 10.984375 69.390625 
L 28.421875 72.90625 
L 38.28125 72.90625 
L 38.28125 8.296875 
L 54.390625 8.296875 
L 54.390625 0 
L 12.40625 0 
z
" id="DejaVuSans-31"/>
      </defs>
      <g style="fill:#d2d2d2;" transform="translate(70.480544 322.277969)scale(0.13 -0.13)">
       <use xlink:href="#DejaVuSans-30"/>
       <use x="63.623047" xlink:href="#DejaVuSans-2e"/>
       <use x="95.410156" xlink:href="#DejaVuSans-31"/>
      </g>
     </g>
    </g>
    <g id="xtick_2">
     <g id="line2d_2">
      <g>
       <use style="fill:#d2d2d2;stroke:#d2d2d2;" x="128.879506" xlink:href="#m28d6a749a6" y="302.4"/>
      </g>
     </g>
     <g id="text_2">
      <!-- 0.2 -->
      <defs>
       <path d="M 19.1875 8.296875 
L 53.609375 8.296875 
L 53.609375 0 
L 7.328125 0 
L 7.328125 8.296875 
Q 12.9375 14.109375 22.625 23.890625 
Q 32.328125 33.6875 34.8125 36.53125 
Q 39.546875 41.84375 41.421875 45.53125 
Q 43.3125 49.21875 43.3125 52.78125 
Q 43.3125 58.59375 39.234375 62.25 
Q 35.15625 65.921875 28.609375 65.921875 
Q 23.96875 65.921875 18.8125 64.3125 
Q 13.671875 62.703125 7.8125 59.421875 
L 7.8125 69.390625 
Q 13.765625 71.78125 18.9375 73 
Q 24.125 74.21875 28.421875 74.21875 
Q 39.75 74.21875 46.484375 68.546875 
Q 53.21875 62.890625 53.21875 53.421875 
Q 53.21875 48.921875 51.53125 44.890625 
Q 49.859375 40.875 45.40625 35.40625 
Q 44.1875 33.984375 37.640625 27.21875 
Q 31.109375 20.453125 19.1875 8.296875 
" id="DejaVuSans-32"/>
      </defs>
      <g style="fill:#d2d2d2;" transform="translate(118.542475 322.277969)scale(0.13 -0.13)">
       <use xlink:href="#DejaVuSans-30"/>
       <use x="63.623047" xlink:href="#DejaVuSans-2e"/>
       <use x="95.410156" xlink:href="#DejaVuSans-32"/>
      </g>
     </g>
    </g>
    <g id="xtick_3">
     <g id="line2d_3">
      <g>
       <use style="fill:#d2d2d2;stroke:#d2d2d2;" x="192.413923" xlink:href="#m28d6a749a6" y="302.4"/>
      </g>
     </g>
     <g id="text_3">
      <!-- 0.5 -->
      <defs>
       <path d="M 10.796875 72.90625 
L 49.515625 72.90625 
L 49.515625 64.59375 
L 19.828125 64.59375 
L 19.828125 46.734375 
Q 21.96875 47.46875 24.109375 47.828125 
Q 26.265625 48.1875 28.421875 48.1875 
Q 40.625 48.1875 47.75 41.5 
Q 54.890625 34.8125 54.890625 23.390625 
Q 54.890625 11.625 47.5625 5.09375 
Q 40.234375 -1.421875 26.90625 -1.421875 
Q 22.3125 -1.421875 17.546875 -0.640625 
Q 12.796875 0.140625 7.71875 1.703125 
L 7.71875 11.625 
Q 12.109375 9.234375 16.796875 8.0625 
Q 21.484375 6.890625 26.703125 6.890625 
Q 35.15625 6.890625 40.078125 11.328125 
Q 45.015625 15.765625 45.015625 23.390625 
Q 45.015625 31 40.078125 35.4375 
Q 35.15625 39.890625 26.703125 39.890625 
Q 22.75 39.890625 18.8125 39.015625 
Q 14.890625 38.140625 10.796875 36.28125 
z
" id="DejaVuSans-35"/>
      </defs>
      <g style="fill:#d2d2d2;" transform="translate(182.076892 322.277969)scale(0.13 -0.13)">
       <use xlink:href="#DejaVuSans-30"/>
       <use x="63.623047" xlink:href="#DejaVuSans-2e"/>
       <use x="95.410156" xlink:href="#DejaVuSans-35"/>
      </g>
     </g>
    </g>
    <g id="xtick_4">
     <g id="line2d_4">
      <g>
       <use style="fill:#d2d2d2;stroke:#d2d2d2;" x="240.475854" xlink:href="#m28d6a749a6" y="302.4"/>
      </g>
     </g>
     <g id="text_4">
      <!-- 1.0 -->
      <g style="fill:#d2d2d2;" transform="translate(230.138823 322.277969)scale(0.13 -0.13)">
       <use xlink:href="#DejaVuSans-31"/>
       <use x="63.623047" xlink:href="#DejaVuSans-2e"/>
       <use x="95.410156" xlink:href="#DejaVuSans-30"/>
      </g>
     </g>
    </g>
    <g id="xtick_5">
     <g id="line2d_5">
      <g>
       <use style="fill:#d2d2d2;stroke:#d2d2d2;" x="288.537786" xlink:href="#m28d6a749a6" y="302.4"/>
      </g>
     </g>
     <g id="text_5">
      <!-- 2.0 -->
      <g style="fill:#d2d2d2;" transform="translate(278.200754 322.277969)scale(0.13 -0.13)">
       <use xlink:href="#DejaVuSans-32"/>
       <use x="63.623047" xlink:href="#DejaVuSans-2e"/>
       <use x="95.410156" xlink:href="#DejaVuSans-30"/>
      </g>
     </g>
    </g>
    <g id="xtick_6">
     <g id="line2d_6">
      <g>
       <use style="fill:#d2d2d2;stroke:#d2d2d2;" x="352.072203" xlink:href="#m28d6a749a6" y="302.4"/>
      </g>
     </g>
     <g id="text_6">
      <!-- 5.0 -->
      <g style="fill:#d2d2d2;" transform="translate(341.735171 322.277969)scale(0.13 -0.13)">
       <use xlink:href="#DejaVuSans-35"/>
       <use x="63.623047" xlink:href="#DejaVuSans-2e"/>
       <use x="95.410156" xlink:href="#DejaVuSans-30"/>
      </g>
     </g>
    </g>
    <g id="xtick_7">
     <g id="line2d_7">
      <g>
       <use style="fill:#d2d2d2;stroke:#d2d2d2;" x="400.134134" xlink:href="#m28d6a749a6" y="302.4"/>
      </g>
     </g>
     <g id="text_7">
      <!-- 10.0 -->
      <g style="fill:#d2d2d2;" transform="translate(385.661478 322.277969)scale(0.13 -0.13)">
       <use xlink:href="#DejaVuSans-31"/>
       <use x="63.623047" xlink:href="#DejaVuSans-30"/>
       <use x="127.246094" xlink:href="#DejaVuSans-2e"/>
       <use x="159.033203" xlink:href="#DejaVuSans-30"/>
      </g>
     </g>
    </g>
    <g id="xtick_8">
     <g id="line2d_8">
      <g>
       <use style="fill:#d2d2d2;stroke:#d2d2d2;" x="73.512013" xlink:href="#m28d6a749a6" y="302.4"/>
      </g>
     </g>
    </g>
    <g id="xtick_9">
     <g id="line2d_9">
      <g>
       <use style="fill:#d2d2d2;stroke:#d2d2d2;" x="128.879506" xlink:href="#m28d6a749a6" y="302.4"/>
      </g>
     </g>
    </g>
    <g id="xtick_10">
     <g id="line2d_10">
      <g>
       <use style="fill:#d2d2d2;stroke:#d2d2d2;" x="156.993934" xlink:href="#m28d6a749a6" y="302.4"/>
      </g>
     </g>
    </g>
    <g id="xtick_11">
     <g id="line2d_11">
      <g>
       <use style="fill:#d2d2d2;stroke:#d2d2d2;" x="176.941437" xlink:href="#m28d6a749a6" y="302.4"/>
      </g>
     </g>
    </g>
    <g id="xtick_12">
     <g id="line2d_12">
      <g>
       <use style="fill:#d2d2d2;stroke:#d2d2d2;" x="192.413923" xlink:href="#m28d6a749a6" y="302.4"/>
      </g>
     </g>
    </g>
    <g id="xtick_13">
     <g id="line2d_13">
      <g>
       <use style="fill:#d2d2d2;stroke:#d2d2d2;" x="205.055865" xlink:href="#m28d6a749a6" y="302.4"/>
      </g>
     </g>
    </g>
    <g id="xtick_14">
     <g id="line2d_14">
      <g>
       <use style="fill:#d2d2d2;stroke:#d2d2d2;" x="215.744474" xlink:href="#m28d6a749a6" y="302.4"/>
      </g>
     </g>
    </g>
    <g id="xtick_15">
     <g id="line2d_15">
      <g>
       <use style="fill:#d2d2d2;stroke:#d2d2d2;" x="225.003368" xlink:href="#m28d6a749a6" y="302.4"/>
      </g>
     </g>
    </g>
    <g id="xtick_16">
     <g id="line2d_16">
      <g>
       <use style="fill:#d2d2d2;stroke:#d2d2d2;" x="233.170292" xlink:href="#m28d6a749a6" y="302.4"/>
      </g>
     </g>
    </g>
    <g id="xtick_17">
     <g id="line2d_17">
      <g>
       <use style="fill:#d2d2d2;stroke:#d2d2d2;" x="288.537786" xlink:href="#m28d6a749a6" y="302.4"/>
      </g>
     </g>
    </g>
    <g id="xtick_18">
     <g id="line2d_18">
      <g>
       <use style="fill:#d2d2d2;stroke:#d2d2d2;" x="316.652213" xlink:href="#m28d6a749a6" y="302.4"/>
      </g>
     </g>
    </g>
    <g id="xtick_19">
     <g id="line2d_19">
      <g>
       <use style="fill:#d2d2d2;stroke:#d2d2d2;" x="336.599717" xlink:href="#m28d6a749a6" y="302.4"/>
      </g>
     </g>
    </g>
    <g id="xtick_20">
     <g id="line2d_20">
      <g>
       <use style="fill:#d2d2d2;stroke:#d2d2d2;" x="352.072203" xlink:href="#m28d6a749a6" y="302.4"/>
      </g>
     </g>
    </g>
    <g id="xtick_21">
     <g id="line2d_21">
      <g>
       <use style="fill:#d2d2d2;stroke:#d2d2d2;" x="364.714144" xlink:href="#m28d6a749a6" y="302.4"/>
      </g>
     </g>
    </g>
    <g id="xtick_22">
     <g id="line2d_22">
      <g>
       <use style="fill:#d2d2d2;stroke:#d2d2d2;" x="375.402753" xlink:href="#m28d6a749a6" y="302.4"/>
      </g>
     </g>
    </g>
    <g id="xtick_23">
     <g id="line2d_23">
      <g>
       <use style="fill:#d2d2d2;stroke:#d2d2d2;" x="384.661648" xlink:href="#m28d6a749a6" y="302.4"/>
      </g>
     </g>
    </g>
    <g id="xtick_24">
     <g id="line2d_24">
      <g>
       <use style="fill:#d2d2d2;stroke:#d2d2d2;" x="392.828572" xlink:href="#m28d6a749a6" y="302.4"/>
      </g>
     </g>
    </g>
   </g>
   <g id="matplotlib.axis_2">
    <g id="ytick_1">
     <g id="line2d_25">
      <defs>
       <path d="M 0 0 
L -4 0 
" id="m9a8fcca196" style="stroke:#d2d2d2;"/>
      </defs>
      <g>
       <use style="fill:#d2d2d2;stroke:#d2d2d2;" x="69.12" xlink:href="#m9a8fcca196" y="289.309091"/>
      </g>
     </g>
     <g id="text_8">
      <!-- Bacon -->
      <defs>
       <path d="M 19.671875 34.8125 
L 19.671875 8.109375 
L 35.5 8.109375 
Q 43.453125 8.109375 47.28125 11.40625 
Q 51.125 14.703125 51.125 21.484375 
Q 51.125 28.328125 47.28125 31.5625 
Q 43.453125 34.8125 35.5 34.8125 
z
M 19.671875 64.796875 
L 19.671875 42.828125 
L 34.28125 42.828125 
Q 41.5 42.828125 45.03125 45.53125 
Q 48.578125 48.25 48.578125 53.8125 
Q 48.578125 59.328125 45.03125 62.0625 
Q 41.5 64.796875 34.28125 64.796875 
z
M 9.8125 72.90625 
L 35.015625 72.90625 
Q 46.296875 72.90625 52.390625 68.21875 
Q 58.5 63.53125 58.5 54.890625 
Q 58.5 48.1875 55.375 44.234375 
Q 52.25 40.28125 46.1875 39.3125 
Q 53.46875 37.75 57.5 32.78125 
Q 61.53125 27.828125 61.53125 20.40625 
Q 61.53125 10.640625 54.890625 5.3125 
Q 48.25 0 35.984375 0 
L 9.8125 0 
z
" id="DejaVuSans-42"/>
       <path d="M 34.28125 27.484375 
Q 23.390625 27.484375 19.1875 25 
Q 14.984375 22.515625 14.984375 16.5 
Q 14.984375 11.71875 18.140625 8.90625 
Q 21.296875 6.109375 26.703125 6.109375 
Q 34.1875 6.109375 38.703125 11.40625 
Q 43.21875 16.703125 43.21875 25.484375 
L 43.21875 27.484375 
z
M 52.203125 31.203125 
L 52.203125 0 
L 43.21875 0 
L 43.21875 8.296875 
Q 40.140625 3.328125 35.546875 0.953125 
Q 30.953125 -1.421875 24.3125 -1.421875 
Q 15.921875 -1.421875 10.953125 3.296875 
Q 6 8.015625 6 15.921875 
Q 6 25.140625 12.171875 29.828125 
Q 18.359375 34.515625 30.609375 34.515625 
L 43.21875 34.515625 
L 43.21875 35.40625 
Q 43.21875 41.609375 39.140625 45 
Q 35.0625 48.390625 27.6875 48.390625 
Q 23 48.390625 18.546875 47.265625 
Q 14.109375 46.140625 10.015625 43.890625 
L 10.015625 52.203125 
Q 14.9375 54.109375 19.578125 55.046875 
Q 24.21875 56 28.609375 56 
Q 40.484375 56 46.34375 49.84375 
Q 52.203125 43.703125 52.203125 31.203125 
" id="DejaVuSans-61"/>
       <path d="M 48.78125 52.59375 
L 48.78125 44.1875 
Q 44.96875 46.296875 41.140625 47.34375 
Q 37.3125 48.390625 33.40625 48.390625 
Q 24.65625 48.390625 19.8125 42.84375 
Q 14.984375 37.3125 14.984375 27.296875 
Q 14.984375 17.28125 19.8125 11.734375 
Q 24.65625 6.203125 33.40625 6.203125 
Q 37.3125 6.203125 41.140625 7.25 
Q 44.96875 8.296875 48.78125 10.40625 
L 48.78125 2.09375 
Q 45.015625 0.34375 40.984375 -0.53125 
Q 36.96875 -1.421875 32.421875 -1.421875 
Q 20.0625 -1.421875 12.78125 6.34375 
Q 5.515625 14.109375 5.515625 27.296875 
Q 5.515625 40.671875 12.859375 48.328125 
Q 20.21875 56 33.015625 56 
Q 37.15625 56 41.109375 55.140625 
Q 45.0625 54.296875 48.78125 52.59375 
" id="DejaVuSans-63"/>
       <path d="M 30.609375 48.390625 
Q 23.390625 48.390625 19.1875 42.75 
Q 14.984375 37.109375 14.984375 27.296875 
Q 14.984375 17.484375 19.15625 11.84375 
Q 23.34375 6.203125 30.609375 6.203125 
Q 37.796875 6.203125 41.984375 11.859375 
Q 46.1875 17.53125 46.1875 27.296875 
Q 46.1875 37.015625 41.984375 42.703125 
Q 37.796875 48.390625 30.609375 48.390625 
M 30.609375 56 
Q 42.328125 56 49.015625 48.375 
Q 55.71875 40.765625 55.71875 27.296875 
Q 55.71875 13.875 49.015625 6.21875 
Q 42.328125 -1.421875 30.609375 -1.421875 
Q 18.84375 -1.421875 12.171875 6.21875 
Q 5.515625 13.875 5.515625 27.296875 
Q 5.515625 40.765625 12.171875 48.375 
Q 18.84375 56 30.609375 56 
" id="DejaVuSans-6f"/>
       <path d="M 54.890625 33.015625 
L 54.890625 0 
L 45.90625 0 
L 45.90625 32.71875 
Q 45.90625 40.484375 42.875 44.328125 
Q 39.84375 48.1875 33.796875 48.1875 
Q 26.515625 48.1875 22.3125 43.546875 
Q 18.109375 38.921875 18.109375 30.90625 
L 18.109375 0 
L 9.078125 0 
L 9.078125 54.6875 
L 18.109375 54.6875 
L 18.109375 46.1875 
Q 21.34375 51.125 25.703125 53.5625 
Q 30.078125 56 35.796875 56 
Q 45.21875 56 50.046875 50.171875 
Q 54.890625 44.34375 54.890625 33.015625 
" id="DejaVuSans-6e"/>
      </defs>
      <g style="fill:#d2d2d2;" transform="translate(23.9875 293.868153)scale(0.12 -0.12)">
       <use xlink:href="#DejaVuSans-42"/>
       <use x="68.603516" xlink:href="#DejaVuSans-61"/>
       <use x="129.882812" xlink:href="#DejaVuSans-63"/>
       <use x="184.863281" xlink:href="#DejaVuSans-6f"/>
       <use x="246.044922" xlink:href="#DejaVuSans-6e"/>
      </g>
     </g>
    </g>
    <g id="ytick_2">
     <g id="line2d_26">
      <g>
       <use style="fill:#d2d2d2;stroke:#d2d2d2;" x="69.12" xlink:href="#m9a8fcca196" y="275.529187"/>
      </g>
     </g>
     <g id="text_9">
      <!-- Beef -->
      <defs>
       <path d="M 56.203125 29.59375 
L 56.203125 25.203125 
L 14.890625 25.203125 
Q 15.484375 15.921875 20.484375 11.0625 
Q 25.484375 6.203125 34.421875 6.203125 
Q 39.59375 6.203125 44.453125 7.46875 
Q 49.3125 8.734375 54.109375 11.28125 
L 54.109375 2.78125 
Q 49.265625 0.734375 44.1875 -0.34375 
Q 39.109375 -1.421875 33.890625 -1.421875 
Q 20.796875 -1.421875 13.15625 6.1875 
Q 5.515625 13.8125 5.515625 26.8125 
Q 5.515625 40.234375 12.765625 48.109375 
Q 20.015625 56 32.328125 56 
Q 43.359375 56 49.78125 48.890625 
Q 56.203125 41.796875 56.203125 29.59375 
M 47.21875 32.234375 
Q 47.125 39.59375 43.09375 43.984375 
Q 39.0625 48.390625 32.421875 48.390625 
Q 24.90625 48.390625 20.390625 44.140625 
Q 15.875 39.890625 15.1875 32.171875 
z
" id="DejaVuSans-65"/>
       <path d="M 37.109375 75.984375 
L 37.109375 68.5 
L 28.515625 68.5 
Q 23.6875 68.5 21.796875 66.546875 
Q 19.921875 64.59375 19.921875 59.515625 
L 19.921875 54.6875 
L 34.71875 54.6875 
L 34.71875 47.703125 
L 19.921875 47.703125 
L 19.921875 0 
L 10.890625 0 
L 10.890625 47.703125 
L 2.296875 47.703125 
L 2.296875 54.6875 
L 10.890625 54.6875 
L 10.890625 58.5 
Q 10.890625 67.625 15.140625 71.796875 
Q 19.390625 75.984375 28.609375 75.984375 
z
" id="DejaVuSans-66"/>
      </defs>
      <g style="fill:#d2d2d2;" transform="translate(33.895 280.088249)scale(0.12 -0.12)">
       <use xlink:href="#DejaVuSans-42"/>
       <use x="68.603516" xlink:href="#DejaVuSans-65"/>
       <use x="130.126953" xlink:href="#DejaVuSans-65"/>
       <use x="191.650391" xlink:href="#DejaVuSans-66"/>
      </g>
     </g>
    </g>
    <g id="ytick_3">
     <g id="line2d_27">
      <g>
       <use style="fill:#d2d2d2;stroke:#d2d2d2;" x="69.12" xlink:href="#m9a8fcca196" y="261.749282"/>
      </g>
     </g>
     <g id="text_10">
      <!-- Bread -->
      <defs>
       <path d="M 41.109375 46.296875 
Q 39.59375 47.171875 37.8125 47.578125 
Q 36.03125 48 33.890625 48 
Q 26.265625 48 22.1875 43.046875 
Q 18.109375 38.09375 18.109375 28.8125 
L 18.109375 0 
L 9.078125 0 
L 9.078125 54.6875 
L 18.109375 54.6875 
L 18.109375 46.1875 
Q 20.953125 51.171875 25.484375 53.578125 
Q 30.03125 56 36.53125 56 
Q 37.453125 56 38.578125 55.875 
Q 39.703125 55.765625 41.0625 55.515625 
z
" id="DejaVuSans-72"/>
       <path d="M 45.40625 46.390625 
L 45.40625 75.984375 
L 54.390625 75.984375 
L 54.390625 0 
L 45.40625 0 
L 45.40625 8.203125 
Q 42.578125 3.328125 38.25 0.953125 
Q 33.9375 -1.421875 27.875 -1.421875 
Q 17.96875 -1.421875 11.734375 6.484375 
Q 5.515625 14.40625 5.515625 27.296875 
Q 5.515625 40.1875 11.734375 48.09375 
Q 17.96875 56 27.875 56 
Q 33.9375 56 38.25 53.625 
Q 42.578125 51.265625 45.40625 46.390625 
M 14.796875 27.296875 
Q 14.796875 17.390625 18.875 11.75 
Q 22.953125 6.109375 30.078125 6.109375 
Q 37.203125 6.109375 41.296875 11.75 
Q 45.40625 17.390625 45.40625 27.296875 
Q 45.40625 37.203125 41.296875 42.84375 
Q 37.203125 48.484375 30.078125 48.484375 
Q 22.953125 48.484375 18.875 42.84375 
Q 14.796875 37.203125 14.796875 27.296875 
" id="DejaVuSans-64"/>
      </defs>
      <g style="fill:#d2d2d2;" transform="translate(25.601875 266.308345)scale(0.12 -0.12)">
       <use xlink:href="#DejaVuSans-42"/>
       <use x="68.603516" xlink:href="#DejaVuSans-72"/>
       <use x="109.685547" xlink:href="#DejaVuSans-65"/>
       <use x="171.208984" xlink:href="#DejaVuSans-61"/>
       <use x="232.488281" xlink:href="#DejaVuSans-64"/>
      </g>
     </g>
    </g>
    <g id="ytick_4">
     <g id="line2d_28">
      <g>
       <use style="fill:#d2d2d2;stroke:#d2d2d2;" x="69.12" xlink:href="#m9a8fcca196" y="247.969378"/>
      </g>
     </g>
     <g id="text_11">
      <!-- Butter -->
      <defs>
       <path d="M 8.5 21.578125 
L 8.5 54.6875 
L 17.484375 54.6875 
L 17.484375 21.921875 
Q 17.484375 14.15625 20.5 10.265625 
Q 23.53125 6.390625 29.59375 6.390625 
Q 36.859375 6.390625 41.078125 11.03125 
Q 45.3125 15.671875 45.3125 23.6875 
L 45.3125 54.6875 
L 54.296875 54.6875 
L 54.296875 0 
L 45.3125 0 
L 45.3125 8.40625 
Q 42.046875 3.421875 37.71875 1 
Q 33.40625 -1.421875 27.6875 -1.421875 
Q 18.265625 -1.421875 13.375 4.4375 
Q 8.5 10.296875 8.5 21.578125 
M 31.109375 56 
z
" id="DejaVuSans-75"/>
       <path d="M 18.3125 70.21875 
L 18.3125 54.6875 
L 36.8125 54.6875 
L 36.8125 47.703125 
L 18.3125 47.703125 
L 18.3125 18.015625 
Q 18.3125 11.328125 20.140625 9.421875 
Q 21.96875 7.515625 27.59375 7.515625 
L 36.8125 7.515625 
L 36.8125 0 
L 27.59375 0 
Q 17.1875 0 13.234375 3.875 
Q 9.28125 7.765625 9.28125 18.015625 
L 9.28125 47.703125 
L 2.6875 47.703125 
L 2.6875 54.6875 
L 9.28125 54.6875 
L 9.28125 70.21875 
z
" id="DejaVuSans-74"/>
      </defs>
      <g style="fill:#d2d2d2;" transform="translate(23.55625 252.52844)scale(0.12 -0.12)">
       <use xlink:href="#DejaVuSans-42"/>
       <use x="68.603516" xlink:href="#DejaVuSans-75"/>
       <use x="131.982422" xlink:href="#DejaVuSans-74"/>
       <use x="171.191406" xlink:href="#DejaVuSans-74"/>
       <use x="210.400391" xlink:href="#DejaVuSans-65"/>
       <use x="271.923828" xlink:href="#DejaVuSans-72"/>
      </g>
     </g>
    </g>
    <g id="ytick_5">
     <g id="line2d_29">
      <g>
       <use style="fill:#d2d2d2;stroke:#d2d2d2;" x="69.12" xlink:href="#m9a8fcca196" y="234.189474"/>
      </g>
     </g>
     <g id="text_12">
      <!-- Carrot -->
      <defs>
       <path d="M 64.40625 67.28125 
L 64.40625 56.890625 
Q 59.421875 61.53125 53.78125 63.8125 
Q 48.140625 66.109375 41.796875 66.109375 
Q 29.296875 66.109375 22.65625 58.46875 
Q 16.015625 50.828125 16.015625 36.375 
Q 16.015625 21.96875 22.65625 14.328125 
Q 29.296875 6.6875 41.796875 6.6875 
Q 48.140625 6.6875 53.78125 8.984375 
Q 59.421875 11.28125 64.40625 15.921875 
L 64.40625 5.609375 
Q 59.234375 2.09375 53.4375 0.328125 
Q 47.65625 -1.421875 41.21875 -1.421875 
Q 24.65625 -1.421875 15.125 8.703125 
Q 5.609375 18.84375 5.609375 36.375 
Q 5.609375 53.953125 15.125 64.078125 
Q 24.65625 74.21875 41.21875 74.21875 
Q 47.75 74.21875 53.53125 72.484375 
Q 59.328125 70.75 64.40625 67.28125 
" id="DejaVuSans-43"/>
      </defs>
      <g style="fill:#d2d2d2;" transform="translate(23.479375 238.748536)scale(0.12 -0.12)">
       <use xlink:href="#DejaVuSans-43"/>
       <use x="69.824219" xlink:href="#DejaVuSans-61"/>
       <use x="131.103516" xlink:href="#DejaVuSans-72"/>
       <use x="172.201172" xlink:href="#DejaVuSans-72"/>
       <use x="213.283203" xlink:href="#DejaVuSans-6f"/>
       <use x="274.464844" xlink:href="#DejaVuSans-74"/>
      </g>
     </g>
    </g>
    <g id="ytick_6">
     <g id="line2d_30">
      <g>
       <use style="fill:#d2d2d2;stroke:#d2d2d2;" x="69.12" xlink:href="#m9a8fcca196" y="220.409569"/>
      </g>
     </g>
     <g id="text_13">
      <!-- Cheese -->
      <defs>
       <path d="M 54.890625 33.015625 
L 54.890625 0 
L 45.90625 0 
L 45.90625 32.71875 
Q 45.90625 40.484375 42.875 44.328125 
Q 39.84375 48.1875 33.796875 48.1875 
Q 26.515625 48.1875 22.3125 43.546875 
Q 18.109375 38.921875 18.109375 30.90625 
L 18.109375 0 
L 9.078125 0 
L 9.078125 75.984375 
L 18.109375 75.984375 
L 18.109375 46.1875 
Q 21.34375 51.125 25.703125 53.5625 
Q 30.078125 56 35.796875 56 
Q 45.21875 56 50.046875 50.171875 
Q 54.890625 44.34375 54.890625 33.015625 
" id="DejaVuSans-68"/>
       <path d="M 44.28125 53.078125 
L 44.28125 44.578125 
Q 40.484375 46.53125 36.375 47.5 
Q 32.28125 48.484375 27.875 48.484375 
Q 21.1875 48.484375 17.84375 46.4375 
Q 14.5 44.390625 14.5 40.28125 
Q 14.5 37.15625 16.890625 35.375 
Q 19.28125 33.59375 26.515625 31.984375 
L 29.59375 31.296875 
Q 39.15625 29.25 43.1875 25.515625 
Q 47.21875 21.78125 47.21875 15.09375 
Q 47.21875 7.46875 41.1875 3.015625 
Q 35.15625 -1.421875 24.609375 -1.421875 
Q 20.21875 -1.421875 15.453125 -0.5625 
Q 10.6875 0.296875 5.421875 2 
L 5.421875 11.28125 
Q 10.40625 8.6875 15.234375 7.390625 
Q 20.0625 6.109375 24.8125 6.109375 
Q 31.15625 6.109375 34.5625 8.28125 
Q 37.984375 10.453125 37.984375 14.40625 
Q 37.984375 18.0625 35.515625 20.015625 
Q 33.0625 21.96875 24.703125 23.78125 
L 21.578125 24.515625 
Q 13.234375 26.265625 9.515625 29.90625 
Q 5.8125 33.546875 5.8125 39.890625 
Q 5.8125 47.609375 11.28125 51.796875 
Q 16.75 56 26.8125 56 
Q 31.78125 56 36.171875 55.265625 
Q 40.578125 54.546875 44.28125 53.078125 
" id="DejaVuSans-73"/>
      </defs>
      <g style="fill:#d2d2d2;" transform="translate(16.733125 224.968632)scale(0.12 -0.12)">
       <use xlink:href="#DejaVuSans-43"/>
       <use x="69.824219" xlink:href="#DejaVuSans-68"/>
       <use x="133.203125" xlink:href="#DejaVuSans-65"/>
       <use x="194.726562" xlink:href="#DejaVuSans-65"/>
       <use x="256.25" xlink:href="#DejaVuSans-73"/>
       <use x="308.349609" xlink:href="#DejaVuSans-65"/>
      </g>
     </g>
    </g>
    <g id="ytick_7">
     <g id="line2d_31">
      <g>
       <use style="fill:#d2d2d2;stroke:#d2d2d2;" x="69.12" xlink:href="#m9a8fcca196" y="206.629665"/>
      </g>
     </g>
     <g id="text_14">
      <!-- Coffee -->
      <g style="fill:#d2d2d2;" transform="translate(22.181875 211.188728)scale(0.12 -0.12)">
       <use xlink:href="#DejaVuSans-43"/>
       <use x="69.824219" xlink:href="#DejaVuSans-6f"/>
       <use x="131.005859" xlink:href="#DejaVuSans-66"/>
       <use x="166.210938" xlink:href="#DejaVuSans-66"/>
       <use x="201.416016" xlink:href="#DejaVuSans-65"/>
       <use x="262.939453" xlink:href="#DejaVuSans-65"/>
      </g>
     </g>
    </g>
    <g id="ytick_8">
     <g id="line2d_32">
      <g>
       <use style="fill:#d2d2d2;stroke:#d2d2d2;" x="69.12" xlink:href="#m9a8fcca196" y="192.849761"/>
      </g>
     </g>
     <g id="text_15">
      <!-- Corn -->
      <g style="fill:#d2d2d2;" transform="translate(32.861875 197.408823)scale(0.12 -0.12)">
       <use xlink:href="#DejaVuSans-43"/>
       <use x="69.824219" xlink:href="#DejaVuSans-6f"/>
       <use x="131.005859" xlink:href="#DejaVuSans-72"/>
       <use x="172.103516" xlink:href="#DejaVuSans-6e"/>
      </g>
     </g>
    </g>
    <g id="ytick_9">
     <g id="line2d_33">
      <g>
       <use style="fill:#d2d2d2;stroke:#d2d2d2;" x="69.12" xlink:href="#m9a8fcca196" y="179.069856"/>
      </g>
     </g>
     <g id="text_16">
      <!-- Egg -->
      <defs>
       <path d="M 9.8125 72.90625 
L 55.90625 72.90625 
L 55.90625 64.59375 
L 19.671875 64.59375 
L 19.671875 43.015625 
L 54.390625 43.015625 
L 54.390625 34.71875 
L 19.671875 34.71875 
L 19.671875 8.296875 
L 56.78125 8.296875 
L 56.78125 0 
L 9.8125 0 
z
" id="DejaVuSans-45"/>
       <path d="M 45.40625 27.984375 
Q 45.40625 37.75 41.375 43.109375 
Q 37.359375 48.484375 30.078125 48.484375 
Q 22.859375 48.484375 18.828125 43.109375 
Q 14.796875 37.75 14.796875 27.984375 
Q 14.796875 18.265625 18.828125 12.890625 
Q 22.859375 7.515625 30.078125 7.515625 
Q 37.359375 7.515625 41.375 12.890625 
Q 45.40625 18.265625 45.40625 27.984375 
M 54.390625 6.78125 
Q 54.390625 -7.171875 48.1875 -13.984375 
Q 42 -20.796875 29.203125 -20.796875 
Q 24.46875 -20.796875 20.265625 -20.09375 
Q 16.0625 -19.390625 12.109375 -17.921875 
L 12.109375 -9.1875 
Q 16.0625 -11.328125 19.921875 -12.34375 
Q 23.78125 -13.375 27.78125 -13.375 
Q 36.625 -13.375 41.015625 -8.765625 
Q 45.40625 -4.15625 45.40625 5.171875 
L 45.40625 9.625 
Q 42.625 4.78125 38.28125 2.390625 
Q 33.9375 0 27.875 0 
Q 17.828125 0 11.671875 7.65625 
Q 5.515625 15.328125 5.515625 27.984375 
Q 5.515625 40.671875 11.671875 48.328125 
Q 17.828125 56 27.875 56 
Q 33.9375 56 38.28125 53.609375 
Q 42.625 51.21875 45.40625 46.390625 
L 45.40625 54.6875 
L 54.390625 54.6875 
z
" id="DejaVuSans-67"/>
      </defs>
      <g style="fill:#d2d2d2;" transform="translate(38.30125 183.628919)scale(0.12 -0.12)">
       <use xlink:href="#DejaVuSans-45"/>
       <use x="63.183594" xlink:href="#DejaVuSans-67"/>
       <use x="126.660156" xlink:href="#DejaVuSans-67"/>
      </g>
     </g>
    </g>
    <g id="ytick_10">
     <g id="line2d_34">
      <g>
       <use style="fill:#d2d2d2;stroke:#d2d2d2;" x="69.12" xlink:href="#m9a8fcca196" y="165.289952"/>
      </g>
     </g>
     <g id="text_17">
      <!-- Lemon -->
      <defs>
       <path d="M 9.8125 72.90625 
L 19.671875 72.90625 
L 19.671875 8.296875 
L 55.171875 8.296875 
L 55.171875 0 
L 9.8125 0 
z
" id="DejaVuSans-4c"/>
       <path d="M 52 44.1875 
Q 55.375 50.25 60.0625 53.125 
Q 64.75 56 71.09375 56 
Q 79.640625 56 84.28125 50.015625 
Q 88.921875 44.046875 88.921875 33.015625 
L 88.921875 0 
L 79.890625 0 
L 79.890625 32.71875 
Q 79.890625 40.578125 77.09375 44.375 
Q 74.3125 48.1875 68.609375 48.1875 
Q 61.625 48.1875 57.5625 43.546875 
Q 53.515625 38.921875 53.515625 30.90625 
L 53.515625 0 
L 44.484375 0 
L 44.484375 32.71875 
Q 44.484375 40.625 41.703125 44.40625 
Q 38.921875 48.1875 33.109375 48.1875 
Q 26.21875 48.1875 22.15625 43.53125 
Q 18.109375 38.875 18.109375 30.90625 
L 18.109375 0 
L 9.078125 0 
L 9.078125 54.6875 
L 18.109375 54.6875 
L 18.109375 46.1875 
Q 21.1875 51.21875 25.484375 53.609375 
Q 29.78125 56 35.6875 56 
Q 41.65625 56 45.828125 52.96875 
Q 50 49.953125 52 44.1875 
" id="DejaVuSans-6d"/>
      </defs>
      <g style="fill:#d2d2d2;" transform="translate(20.415625 169.849015)scale(0.12 -0.12)">
       <use xlink:href="#DejaVuSans-4c"/>
       <use x="55.697266" xlink:href="#DejaVuSans-65"/>
       <use x="117.220703" xlink:href="#DejaVuSans-6d"/>
       <use x="214.632812" xlink:href="#DejaVuSans-6f"/>
       <use x="275.814453" xlink:href="#DejaVuSans-6e"/>
      </g>
     </g>
    </g>
    <g id="ytick_11">
     <g id="line2d_35">
      <g>
       <use style="fill:#d2d2d2;stroke:#d2d2d2;" x="69.12" xlink:href="#m9a8fcca196" y="151.510048"/>
      </g>
     </g>
     <g id="text_18">
      <!-- Milk -->
      <defs>
       <path d="M 9.8125 72.90625 
L 24.515625 72.90625 
L 43.109375 23.296875 
L 61.8125 72.90625 
L 76.515625 72.90625 
L 76.515625 0 
L 66.890625 0 
L 66.890625 64.015625 
L 48.09375 14.015625 
L 38.1875 14.015625 
L 19.390625 64.015625 
L 19.390625 0 
L 9.8125 0 
z
" id="DejaVuSans-4d"/>
       <path d="M 9.421875 54.6875 
L 18.40625 54.6875 
L 18.40625 0 
L 9.421875 0 
z
M 9.421875 75.984375 
L 18.40625 75.984375 
L 18.40625 64.59375 
L 9.421875 64.59375 
z
" id="DejaVuSans-69"/>
       <path d="M 9.421875 75.984375 
L 18.40625 75.984375 
L 18.40625 0 
L 9.421875 0 
z
" id="DejaVuSans-6c"/>
       <path d="M 9.078125 75.984375 
L 18.109375 75.984375 
L 18.109375 31.109375 
L 44.921875 54.6875 
L 56.390625 54.6875 
L 27.390625 29.109375 
L 57.625 0 
L 45.90625 0 
L 18.109375 26.703125 
L 18.109375 0 
L 9.078125 0 
z
" id="DejaVuSans-6b"/>
      </defs>
      <g style="fill:#d2d2d2;" transform="translate(37.15 156.06911)scale(0.12 -0.12)">
       <use xlink:href="#DejaVuSans-4d"/>
       <use x="86.279297" xlink:href="#DejaVuSans-69"/>
       <use x="114.0625" xlink:href="#DejaVuSans-6c"/>
       <use x="141.845703" xlink:href="#DejaVuSans-6b"/>
      </g>
     </g>
    </g>
    <g id="ytick_12">
     <g id="line2d_36">
      <g>
       <use style="fill:#d2d2d2;stroke:#d2d2d2;" x="69.12" xlink:href="#m9a8fcca196" y="137.730144"/>
      </g>
     </g>
     <g id="text_19">
      <!-- Olives -->
      <defs>
       <path d="M 39.40625 66.21875 
Q 28.65625 66.21875 22.328125 58.203125 
Q 16.015625 50.203125 16.015625 36.375 
Q 16.015625 22.609375 22.328125 14.59375 
Q 28.65625 6.59375 39.40625 6.59375 
Q 50.140625 6.59375 56.421875 14.59375 
Q 62.703125 22.609375 62.703125 36.375 
Q 62.703125 50.203125 56.421875 58.203125 
Q 50.140625 66.21875 39.40625 66.21875 
M 39.40625 74.21875 
Q 54.734375 74.21875 63.90625 63.9375 
Q 73.09375 53.65625 73.09375 36.375 
Q 73.09375 19.140625 63.90625 8.859375 
Q 54.734375 -1.421875 39.40625 -1.421875 
Q 24.03125 -1.421875 14.8125 8.828125 
Q 5.609375 19.09375 5.609375 36.375 
Q 5.609375 53.65625 14.8125 63.9375 
Q 24.03125 74.21875 39.40625 74.21875 
" id="DejaVuSans-4f"/>
       <path d="M 2.984375 54.6875 
L 12.5 54.6875 
L 29.59375 8.796875 
L 46.6875 54.6875 
L 56.203125 54.6875 
L 35.6875 0 
L 23.484375 0 
z
" id="DejaVuSans-76"/>
      </defs>
      <g style="fill:#d2d2d2;" transform="translate(24.26875 142.289206)scale(0.12 -0.12)">
       <use xlink:href="#DejaVuSans-4f"/>
       <use x="78.710938" xlink:href="#DejaVuSans-6c"/>
       <use x="106.494141" xlink:href="#DejaVuSans-69"/>
       <use x="134.277344" xlink:href="#DejaVuSans-76"/>
       <use x="193.457031" xlink:href="#DejaVuSans-65"/>
       <use x="254.980469" xlink:href="#DejaVuSans-73"/>
      </g>
     </g>
    </g>
    <g id="ytick_13">
     <g id="line2d_37">
      <g>
       <use style="fill:#d2d2d2;stroke:#d2d2d2;" x="69.12" xlink:href="#m9a8fcca196" y="123.950239"/>
      </g>
     </g>
     <g id="text_20">
      <!-- Onions -->
      <g style="fill:#d2d2d2;" transform="translate(19.53625 128.509302)scale(0.12 -0.12)">
       <use xlink:href="#DejaVuSans-4f"/>
       <use x="78.710938" xlink:href="#DejaVuSans-6e"/>
       <use x="142.089844" xlink:href="#DejaVuSans-69"/>
       <use x="169.873047" xlink:href="#DejaVuSans-6f"/>
       <use x="231.054688" xlink:href="#DejaVuSans-6e"/>
       <use x="294.433594" xlink:href="#DejaVuSans-73"/>
      </g>
     </g>
    </g>
    <g id="ytick_14">
     <g id="line2d_38">
      <g>
       <use style="fill:#d2d2d2;stroke:#d2d2d2;" x="69.12" xlink:href="#m9a8fcca196" y="110.170335"/>
      </g>
     </g>
     <g id="text_21">
      <!-- Pork -->
      <defs>
       <path d="M 19.671875 64.796875 
L 19.671875 37.40625 
L 32.078125 37.40625 
Q 38.96875 37.40625 42.71875 40.96875 
Q 46.484375 44.53125 46.484375 51.125 
Q 46.484375 57.671875 42.71875 61.234375 
Q 38.96875 64.796875 32.078125 64.796875 
z
M 9.8125 72.90625 
L 32.078125 72.90625 
Q 44.34375 72.90625 50.609375 67.359375 
Q 56.890625 61.8125 56.890625 51.125 
Q 56.890625 40.328125 50.609375 34.8125 
Q 44.34375 29.296875 32.078125 29.296875 
L 19.671875 29.296875 
L 19.671875 0 
L 9.8125 0 
z
" id="DejaVuSans-50"/>
      </defs>
      <g style="fill:#d2d2d2;" transform="translate(34.665625 114.729397)scale(0.12 -0.12)">
       <use xlink:href="#DejaVuSans-50"/>
       <use x="60.255859" xlink:href="#DejaVuSans-6f"/>
       <use x="121.4375" xlink:href="#DejaVuSans-72"/>
       <use x="162.550781" xlink:href="#DejaVuSans-6b"/>
      </g>
     </g>
    </g>
    <g id="ytick_15">
     <g id="line2d_39">
      <g>
       <use style="fill:#d2d2d2;stroke:#d2d2d2;" x="69.12" xlink:href="#m9a8fcca196" y="96.390431"/>
      </g>
     </g>
     <g id="text_22">
      <!-- Potato -->
      <g style="fill:#d2d2d2;" transform="translate(22.4425 100.949493)scale(0.12 -0.12)">
       <use xlink:href="#DejaVuSans-50"/>
       <use x="60.255859" xlink:href="#DejaVuSans-6f"/>
       <use x="121.4375" xlink:href="#DejaVuSans-74"/>
       <use x="160.646484" xlink:href="#DejaVuSans-61"/>
       <use x="221.925781" xlink:href="#DejaVuSans-74"/>
       <use x="261.134766" xlink:href="#DejaVuSans-6f"/>
      </g>
     </g>
    </g>
    <g id="ytick_16">
     <g id="line2d_40">
      <g>
       <use style="fill:#d2d2d2;stroke:#d2d2d2;" x="69.12" xlink:href="#m9a8fcca196" y="82.610526"/>
      </g>
     </g>
     <g id="text_23">
      <!-- Salt -->
      <defs>
       <path d="M 53.515625 70.515625 
L 53.515625 60.890625 
Q 47.90625 63.578125 42.921875 64.890625 
Q 37.9375 66.21875 33.296875 66.21875 
Q 25.25 66.21875 20.875 63.09375 
Q 16.5 59.96875 16.5 54.203125 
Q 16.5 49.359375 19.40625 46.890625 
Q 22.3125 44.4375 30.421875 42.921875 
L 36.375 41.703125 
Q 47.40625 39.59375 52.65625 34.296875 
Q 57.90625 29 57.90625 20.125 
Q 57.90625 9.515625 50.796875 4.046875 
Q 43.703125 -1.421875 29.984375 -1.421875 
Q 24.8125 -1.421875 18.96875 -0.25 
Q 13.140625 0.921875 6.890625 3.21875 
L 6.890625 13.375 
Q 12.890625 10.015625 18.65625 8.296875 
Q 24.421875 6.59375 29.984375 6.59375 
Q 38.421875 6.59375 43.015625 9.90625 
Q 47.609375 13.234375 47.609375 19.390625 
Q 47.609375 24.75 44.3125 27.78125 
Q 41.015625 30.8125 33.5 32.328125 
L 27.484375 33.5 
Q 16.453125 35.6875 11.515625 40.375 
Q 6.59375 45.0625 6.59375 53.421875 
Q 6.59375 63.09375 13.40625 68.65625 
Q 20.21875 74.21875 32.171875 74.21875 
Q 37.3125 74.21875 42.625 73.28125 
Q 47.953125 72.359375 53.515625 70.515625 
" id="DejaVuSans-53"/>
      </defs>
      <g style="fill:#d2d2d2;" transform="translate(38.11 87.169589)scale(0.12 -0.12)">
       <use xlink:href="#DejaVuSans-53"/>
       <use x="63.476562" xlink:href="#DejaVuSans-61"/>
       <use x="124.755859" xlink:href="#DejaVuSans-6c"/>
       <use x="152.539062" xlink:href="#DejaVuSans-74"/>
      </g>
     </g>
    </g>
    <g id="ytick_17">
     <g id="line2d_41">
      <g>
       <use style="fill:#d2d2d2;stroke:#d2d2d2;" x="69.12" xlink:href="#m9a8fcca196" y="68.830622"/>
      </g>
     </g>
     <g id="text_24">
      <!-- Sugar -->
      <g style="fill:#d2d2d2;" transform="translate(25.991875 73.389685)scale(0.12 -0.12)">
       <use xlink:href="#DejaVuSans-53"/>
       <use x="63.476562" xlink:href="#DejaVuSans-75"/>
       <use x="126.855469" xlink:href="#DejaVuSans-67"/>
       <use x="190.332031" xlink:href="#DejaVuSans-61"/>
       <use x="251.611328" xlink:href="#DejaVuSans-72"/>
      </g>
     </g>
    </g>
    <g id="ytick_18">
     <g id="line2d_42">
      <g>
       <use style="fill:#d2d2d2;stroke:#d2d2d2;" x="69.12" xlink:href="#m9a8fcca196" y="55.050718"/>
      </g>
     </g>
     <g id="text_25">
      <!-- Tea -->
      <defs>
       <path d="M -0.296875 72.90625 
L 61.375 72.90625 
L 61.375 64.59375 
L 35.5 64.59375 
L 35.5 0 
L 25.59375 0 
L 25.59375 64.59375 
L -0.296875 64.59375 
z
" id="DejaVuSans-54"/>
      </defs>
      <g style="fill:#d2d2d2;" transform="translate(39.085 59.60978)scale(0.12 -0.12)">
       <use xlink:href="#DejaVuSans-54"/>
       <use x="60.818359" xlink:href="#DejaVuSans-65"/>
       <use x="122.341797" xlink:href="#DejaVuSans-61"/>
      </g>
     </g>
    </g>
    <g id="ytick_19">
     <g id="line2d_43">
      <g>
       <use style="fill:#d2d2d2;stroke:#d2d2d2;" x="69.12" xlink:href="#m9a8fcca196" y="41.270813"/>
      </g>
     </g>
     <g id="text_26">
      <!-- Tomatoes -->
      <g style="fill:#d2d2d2;" transform="translate(1.755625 45.829876)scale(0.12 -0.12)">
       <use xlink:href="#DejaVuSans-54"/>
       <use x="60.818359" xlink:href="#DejaVuSans-6f"/>
       <use x="122" xlink:href="#DejaVuSans-6d"/>
       <use x="219.412109" xlink:href="#DejaVuSans-61"/>
       <use x="280.691406" xlink:href="#DejaVuSans-74"/>
       <use x="319.900391" xlink:href="#DejaVuSans-6f"/>
       <use x="381.082031" xlink:href="#DejaVuSans-65"/>
       <use x="442.605469" xlink:href="#DejaVuSans-73"/>
      </g>
     </g>
    </g>
    <g id="ytick_20">
     <g id="line2d_44">
      <g>
       <use style="fill:#d2d2d2;stroke:#d2d2d2;" x="69.12" xlink:href="#m9a8fcca196" y="27.490909"/>
      </g>
     </g>
     <g id="text_27">
      <!-- Wine -->
      <defs>
       <path d="M 3.328125 72.90625 
L 13.28125 72.90625 
L 28.609375 11.28125 
L 43.890625 72.90625 
L 54.984375 72.90625 
L 70.3125 11.28125 
L 85.59375 72.90625 
L 95.609375 72.90625 
L 77.296875 0 
L 64.890625 0 
L 49.515625 63.28125 
L 33.984375 0 
L 21.578125 0 
z
" id="DejaVuSans-57"/>
      </defs>
      <g style="fill:#d2d2d2;" transform="translate(30.93625 32.049972)scale(0.12 -0.12)">
       <use xlink:href="#DejaVuSans-57"/>
       <use x="98.845703" xlink:href="#DejaVuSans-69"/>
       <use x="126.628906" xlink:href="#DejaVuSans-6e"/>
       <use x="190.007812" xlink:href="#DejaVuSans-65"/>
      </g>
     </g>
    </g>
   </g>
   <g id="line2d_45">
    <defs>
     <path d="M 0 2 
C 0.530406 2 1.03916 1.789267 1.414214 1.414214 
C 1.789267 1.03916 2 0.530406 2 0 
C 2 -0.530406 1.789267 -1.03916 1.414214 -1.414214 
C 1.03916 -1.789267 0.530406 -2 0 -2 
C -0.530406 -2 -1.03916 -1.789267 -1.414214 -1.414214 
C -1.789267 -1.03916 -2 -0.530406 -2 0 
C -2 0.530406 -1.789267 1.03916 -1.414214 1.414214 
C -1.03916 1.789267 -0.530406 2 0 2 
z
" id="mbe7b8cdcdd" style="stroke:#5bc0de;"/>
    </defs>
    <g clip-path="url(#pa5541ff374)">
     <use style="fill:#5bc0de;stroke:#5bc0de;" x="261.175268" xlink:href="#mbe7b8cdcdd" y="289.309091"/>
     <use style="fill:#5bc0de;stroke:#5bc0de;" x="263.421719" xlink:href="#mbe7b8cdcdd" y="289.309091"/>
     <use style="fill:#5bc0de;stroke:#5bc0de;" x="272.086586" xlink:href="#mbe7b8cdcdd" y="289.309091"/>
     <use style="fill:#5bc0de;stroke:#5bc0de;" x="275.777183" xlink:href="#mbe7b8cdcdd" y="289.309091"/>
     <use style="fill:#5bc0de;stroke:#5bc0de;" x="276.739946" xlink:href="#mbe7b8cdcdd" y="289.309091"/>
     <use style="fill:#5bc0de;stroke:#5bc0de;" x="295.995214" xlink:href="#mbe7b8cdcdd" y="289.309091"/>
     <use style="fill:#5bc0de;stroke:#5bc0de;" x="299.525351" xlink:href="#mbe7b8cdcdd" y="289.309091"/>
     <use style="fill:#5bc0de;stroke:#5bc0de;" x="314.127264" xlink:href="#mbe7b8cdcdd" y="289.309091"/>
     <use style="fill:#5bc0de;stroke:#5bc0de;" x="377.99057" xlink:href="#mbe7b8cdcdd" y="289.309091"/>
     <use style="fill:#5bc0de;stroke:#5bc0de;" x="399.010909" xlink:href="#mbe7b8cdcdd" y="289.309091"/>
    </g>
   </g>
   <g id="line2d_46">
    <g clip-path="url(#pa5541ff374)">
     <use style="fill:#5bc0de;stroke:#5bc0de;" x="185.598334" xlink:href="#mbe7b8cdcdd" y="275.529187"/>
     <use style="fill:#5bc0de;stroke:#5bc0de;" x="236.624798" xlink:href="#mbe7b8cdcdd" y="275.529187"/>
     <use style="fill:#5bc0de;stroke:#5bc0de;" x="275.456261" xlink:href="#mbe7b8cdcdd" y="275.529187"/>
     <use style="fill:#5bc0de;stroke:#5bc0de;" x="286.848964" xlink:href="#mbe7b8cdcdd" y="275.529187"/>
     <use style="fill:#5bc0de;stroke:#5bc0de;" x="295.192912" xlink:href="#mbe7b8cdcdd" y="275.529187"/>
     <use style="fill:#5bc0de;stroke:#5bc0de;" x="321.668909" xlink:href="#mbe7b8cdcdd" y="275.529187"/>
     <use style="fill:#5bc0de;stroke:#5bc0de;" x="335.468521" xlink:href="#mbe7b8cdcdd" y="275.529187"/>
     <use style="fill:#5bc0de;stroke:#5bc0de;" x="346.379838" xlink:href="#mbe7b8cdcdd" y="275.529187"/>
     <use style="fill:#5bc0de;stroke:#5bc0de;" x="354.884248" xlink:href="#mbe7b8cdcdd" y="275.529187"/>
    </g>
   </g>
   <g id="line2d_47">
    <g clip-path="url(#pa5541ff374)">
     <use style="fill:#5bc0de;stroke:#5bc0de;" x="193.139982" xlink:href="#mbe7b8cdcdd" y="261.749282"/>
     <use style="fill:#5bc0de;stroke:#5bc0de;" x="243.685066" xlink:href="#mbe7b8cdcdd" y="261.749282"/>
     <use style="fill:#5bc0de;stroke:#5bc0de;" x="247.215195" xlink:href="#mbe7b8cdcdd" y="261.749282"/>
     <use style="fill:#5bc0de;stroke:#5bc0de;" x="248.017503" xlink:href="#mbe7b8cdcdd" y="261.749282"/>
     <use style="fill:#5bc0de;stroke:#5bc0de;" x="257.48468" xlink:href="#mbe7b8cdcdd" y="261.749282"/>
     <use style="fill:#5bc0de;stroke:#5bc0de;" x="271.12383" xlink:href="#mbe7b8cdcdd" y="261.749282"/>
     <use style="fill:#5bc0de;stroke:#5bc0de;" x="274.012113" xlink:href="#mbe7b8cdcdd" y="261.749282"/>
     <use style="fill:#5bc0de;stroke:#5bc0de;" x="276.579483" xlink:href="#mbe7b8cdcdd" y="261.749282"/>
     <use style="fill:#5bc0de;stroke:#5bc0de;" x="277.702706" xlink:href="#mbe7b8cdcdd" y="261.749282"/>
     <use style="fill:#5bc0de;stroke:#5bc0de;" x="335.949902" xlink:href="#mbe7b8cdcdd" y="261.749282"/>
    </g>
   </g>
   <g id="line2d_48">
    <g clip-path="url(#pa5541ff374)">
     <use style="fill:#5bc0de;stroke:#5bc0de;" x="205.014064" xlink:href="#mbe7b8cdcdd" y="247.969378"/>
     <use style="fill:#5bc0de;stroke:#5bc0de;" x="212.876637" xlink:href="#mbe7b8cdcdd" y="247.969378"/>
     <use style="fill:#5bc0de;stroke:#5bc0de;" x="246.412897" xlink:href="#mbe7b8cdcdd" y="247.969378"/>
     <use style="fill:#5bc0de;stroke:#5bc0de;" x="248.980267" xlink:href="#mbe7b8cdcdd" y="247.969378"/>
     <use style="fill:#5bc0de;stroke:#5bc0de;" x="252.18948" xlink:href="#mbe7b8cdcdd" y="247.969378"/>
     <use style="fill:#5bc0de;stroke:#5bc0de;" x="255.880072" xlink:href="#mbe7b8cdcdd" y="247.969378"/>
     <use style="fill:#5bc0de;stroke:#5bc0de;" x="268.075077" xlink:href="#mbe7b8cdcdd" y="247.969378"/>
     <use style="fill:#5bc0de;stroke:#5bc0de;" x="308.511144" xlink:href="#mbe7b8cdcdd" y="247.969378"/>
     <use style="fill:#5bc0de;stroke:#5bc0de;" x="359.698069" xlink:href="#mbe7b8cdcdd" y="247.969378"/>
    </g>
   </g>
   <g id="line2d_49">
    <g clip-path="url(#pa5541ff374)">
     <use style="fill:#5bc0de;stroke:#5bc0de;" x="115.958442" xlink:href="#mbe7b8cdcdd" y="234.189474"/>
     <use style="fill:#5bc0de;stroke:#5bc0de;" x="180.624056" xlink:href="#mbe7b8cdcdd" y="234.189474"/>
     <use style="fill:#5bc0de;stroke:#5bc0de;" x="194.744592" xlink:href="#mbe7b8cdcdd" y="234.189474"/>
     <use style="fill:#5bc0de;stroke:#5bc0de;" x="201.002552" xlink:href="#mbe7b8cdcdd" y="234.189474"/>
     <use style="fill:#5bc0de;stroke:#5bc0de;" x="203.730382" xlink:href="#mbe7b8cdcdd" y="234.189474"/>
     <use style="fill:#5bc0de;stroke:#5bc0de;" x="220.418283" xlink:href="#mbe7b8cdcdd" y="234.189474"/>
     <use style="fill:#5bc0de;stroke:#5bc0de;" x="227.799471" xlink:href="#mbe7b8cdcdd" y="234.189474"/>
     <use style="fill:#5bc0de;stroke:#5bc0de;" x="227.799471" xlink:href="#mbe7b8cdcdd" y="234.189474"/>
     <use style="fill:#5bc0de;stroke:#5bc0de;" x="252.349938" xlink:href="#mbe7b8cdcdd" y="234.189474"/>
    </g>
   </g>
   <g id="line2d_50">
    <g clip-path="url(#pa5541ff374)">
     <use style="fill:#5bc0de;stroke:#5bc0de;" x="224.911173" xlink:href="#mbe7b8cdcdd" y="220.409569"/>
     <use style="fill:#5bc0de;stroke:#5bc0de;" x="226.676242" xlink:href="#mbe7b8cdcdd" y="220.409569"/>
     <use style="fill:#5bc0de;stroke:#5bc0de;" x="233.736509" xlink:href="#mbe7b8cdcdd" y="220.409569"/>
     <use style="fill:#5bc0de;stroke:#5bc0de;" x="246.894278" xlink:href="#mbe7b8cdcdd" y="220.409569"/>
     <use style="fill:#5bc0de;stroke:#5bc0de;" x="273.370273" xlink:href="#mbe7b8cdcdd" y="220.409569"/>
     <use style="fill:#5bc0de;stroke:#5bc0de;" x="279.307314" xlink:href="#mbe7b8cdcdd" y="220.409569"/>
     <use style="fill:#5bc0de;stroke:#5bc0de;" x="286.52804" xlink:href="#mbe7b8cdcdd" y="220.409569"/>
     <use style="fill:#5bc0de;stroke:#5bc0de;" x="292.946465" xlink:href="#mbe7b8cdcdd" y="220.409569"/>
     <use style="fill:#5bc0de;stroke:#5bc0de;" x="345.09615" xlink:href="#mbe7b8cdcdd" y="220.409569"/>
    </g>
   </g>
   <g id="line2d_51">
    <g clip-path="url(#pa5541ff374)">
     <use style="fill:#5bc0de;stroke:#5bc0de;" x="183.833268" xlink:href="#mbe7b8cdcdd" y="206.629665"/>
     <use style="fill:#5bc0de;stroke:#5bc0de;" x="196.028276" xlink:href="#mbe7b8cdcdd" y="206.629665"/>
     <use style="fill:#5bc0de;stroke:#5bc0de;" x="207.420972" xlink:href="#mbe7b8cdcdd" y="206.629665"/>
     <use style="fill:#5bc0de;stroke:#5bc0de;" x="213.037092" xlink:href="#mbe7b8cdcdd" y="206.629665"/>
     <use style="fill:#5bc0de;stroke:#5bc0de;" x="239.673551" xlink:href="#mbe7b8cdcdd" y="206.629665"/>
     <use style="fill:#5bc0de;stroke:#5bc0de;" x="244.647829" xlink:href="#mbe7b8cdcdd" y="206.629665"/>
     <use style="fill:#5bc0de;stroke:#5bc0de;" x="245.129214" xlink:href="#mbe7b8cdcdd" y="206.629665"/>
     <use style="fill:#5bc0de;stroke:#5bc0de;" x="250.263948" xlink:href="#mbe7b8cdcdd" y="206.629665"/>
     <use style="fill:#5bc0de;stroke:#5bc0de;" x="288.774485" xlink:href="#mbe7b8cdcdd" y="206.629665"/>
     <use style="fill:#5bc0de;stroke:#5bc0de;" x="323.915357" xlink:href="#mbe7b8cdcdd" y="206.629665"/>
    </g>
   </g>
   <g id="line2d_52">
    <g clip-path="url(#pa5541ff374)">
     <use style="fill:#5bc0de;stroke:#5bc0de;" x="195.707353" xlink:href="#mbe7b8cdcdd" y="192.849761"/>
     <use style="fill:#5bc0de;stroke:#5bc0de;" x="217.04861" xlink:href="#mbe7b8cdcdd" y="192.849761"/>
     <use style="fill:#5bc0de;stroke:#5bc0de;" x="219.134596" xlink:href="#mbe7b8cdcdd" y="192.849761"/>
     <use style="fill:#5bc0de;stroke:#5bc0de;" x="236.143417" xlink:href="#mbe7b8cdcdd" y="192.849761"/>
     <use style="fill:#5bc0de;stroke:#5bc0de;" x="261.496193" xlink:href="#mbe7b8cdcdd" y="192.849761"/>
     <use style="fill:#5bc0de;stroke:#5bc0de;" x="271.926127" xlink:href="#mbe7b8cdcdd" y="192.849761"/>
     <use style="fill:#5bc0de;stroke:#5bc0de;" x="288.774485" xlink:href="#mbe7b8cdcdd" y="192.849761"/>
     <use style="fill:#5bc0de;stroke:#5bc0de;" x="313.1645" xlink:href="#mbe7b8cdcdd" y="192.849761"/>
     <use style="fill:#5bc0de;stroke:#5bc0de;" x="313.966803" xlink:href="#mbe7b8cdcdd" y="192.849761"/>
    </g>
   </g>
   <g id="line2d_53">
    <g clip-path="url(#pa5541ff374)">
     <use style="fill:#5bc0de;stroke:#5bc0de;" x="201.323471" xlink:href="#mbe7b8cdcdd" y="179.069856"/>
     <use style="fill:#5bc0de;stroke:#5bc0de;" x="204.693143" xlink:href="#mbe7b8cdcdd" y="179.069856"/>
     <use style="fill:#5bc0de;stroke:#5bc0de;" x="205.816369" xlink:href="#mbe7b8cdcdd" y="179.069856"/>
     <use style="fill:#5bc0de;stroke:#5bc0de;" x="235.982958" xlink:href="#mbe7b8cdcdd" y="179.069856"/>
     <use style="fill:#5bc0de;stroke:#5bc0de;" x="247.857041" xlink:href="#mbe7b8cdcdd" y="179.069856"/>
     <use style="fill:#5bc0de;stroke:#5bc0de;" x="267.112316" xlink:href="#mbe7b8cdcdd" y="179.069856"/>
     <use style="fill:#5bc0de;stroke:#5bc0de;" x="271.926127" xlink:href="#mbe7b8cdcdd" y="179.069856"/>
     <use style="fill:#5bc0de;stroke:#5bc0de;" x="276.419024" xlink:href="#mbe7b8cdcdd" y="179.069856"/>
     <use style="fill:#5bc0de;stroke:#5bc0de;" x="277.381789" xlink:href="#mbe7b8cdcdd" y="179.069856"/>
     <use style="fill:#5bc0de;stroke:#5bc0de;" x="326.161804" xlink:href="#mbe7b8cdcdd" y="179.069856"/>
    </g>
   </g>
   <g id="line2d_54">
    <g clip-path="url(#pa5541ff374)">
     <use style="fill:#5bc0de;stroke:#5bc0de;" x="96.703168" xlink:href="#mbe7b8cdcdd" y="165.289952"/>
     <use style="fill:#5bc0de;stroke:#5bc0de;" x="115.958442" xlink:href="#mbe7b8cdcdd" y="165.289952"/>
     <use style="fill:#5bc0de;stroke:#5bc0de;" x="158.640957" xlink:href="#mbe7b8cdcdd" y="165.289952"/>
     <use style="fill:#5bc0de;stroke:#5bc0de;" x="200.200247" xlink:href="#mbe7b8cdcdd" y="165.289952"/>
     <use style="fill:#5bc0de;stroke:#5bc0de;" x="217.690448" xlink:href="#mbe7b8cdcdd" y="165.289952"/>
     <use style="fill:#5bc0de;stroke:#5bc0de;" x="238.229405" xlink:href="#mbe7b8cdcdd" y="165.289952"/>
     <use style="fill:#5bc0de;stroke:#5bc0de;" x="240.636313" xlink:href="#mbe7b8cdcdd" y="165.289952"/>
     <use style="fill:#5bc0de;stroke:#5bc0de;" x="242.08046" xlink:href="#mbe7b8cdcdd" y="165.289952"/>
     <use style="fill:#5bc0de;stroke:#5bc0de;" x="266.791392" xlink:href="#mbe7b8cdcdd" y="165.289952"/>
    </g>
   </g>
   <g id="line2d_55">
    <g clip-path="url(#pa5541ff374)">
     <use style="fill:#5bc0de;stroke:#5bc0de;" x="146.285492" xlink:href="#mbe7b8cdcdd" y="151.510048"/>
     <use style="fill:#5bc0de;stroke:#5bc0de;" x="156.554974" xlink:href="#mbe7b8cdcdd" y="151.510048"/>
     <use style="fill:#5bc0de;stroke:#5bc0de;" x="190.733074" xlink:href="#mbe7b8cdcdd" y="151.510048"/>
     <use style="fill:#5bc0de;stroke:#5bc0de;" x="211.913867" xlink:href="#mbe7b8cdcdd" y="151.510048"/>
     <use style="fill:#5bc0de;stroke:#5bc0de;" x="214.962622" xlink:href="#mbe7b8cdcdd" y="151.510048"/>
     <use style="fill:#5bc0de;stroke:#5bc0de;" x="224.911173" xlink:href="#mbe7b8cdcdd" y="151.510048"/>
     <use style="fill:#5bc0de;stroke:#5bc0de;" x="241.278152" xlink:href="#mbe7b8cdcdd" y="151.510048"/>
     <use style="fill:#5bc0de;stroke:#5bc0de;" x="245.771055" xlink:href="#mbe7b8cdcdd" y="151.510048"/>
     <use style="fill:#5bc0de;stroke:#5bc0de;" x="302.73456" xlink:href="#mbe7b8cdcdd" y="151.510048"/>
     <use style="fill:#5bc0de;stroke:#5bc0de;" x="359.216685" xlink:href="#mbe7b8cdcdd" y="151.510048"/>
    </g>
   </g>
   <g id="line2d_56">
    <g clip-path="url(#pa5541ff374)">
     <use style="fill:#5bc0de;stroke:#5bc0de;" x="149.013325" xlink:href="#mbe7b8cdcdd" y="137.730144"/>
     <use style="fill:#5bc0de;stroke:#5bc0de;" x="156.554974" xlink:href="#mbe7b8cdcdd" y="137.730144"/>
     <use style="fill:#5bc0de;stroke:#5bc0de;" x="180.624056" xlink:href="#mbe7b8cdcdd" y="137.730144"/>
     <use style="fill:#5bc0de;stroke:#5bc0de;" x="188.807546" xlink:href="#mbe7b8cdcdd" y="137.730144"/>
     <use style="fill:#5bc0de;stroke:#5bc0de;" x="212.876637" xlink:href="#mbe7b8cdcdd" y="137.730144"/>
     <use style="fill:#5bc0de;stroke:#5bc0de;" x="217.36953" xlink:href="#mbe7b8cdcdd" y="137.730144"/>
     <use style="fill:#5bc0de;stroke:#5bc0de;" x="223.948415" xlink:href="#mbe7b8cdcdd" y="137.730144"/>
     <use style="fill:#5bc0de;stroke:#5bc0de;" x="231.008679" xlink:href="#mbe7b8cdcdd" y="137.730144"/>
     <use style="fill:#5bc0de;stroke:#5bc0de;" x="234.378353" xlink:href="#mbe7b8cdcdd" y="137.730144"/>
     <use style="fill:#5bc0de;stroke:#5bc0de;" x="234.859735" xlink:href="#mbe7b8cdcdd" y="137.730144"/>
    </g>
   </g>
   <g id="line2d_57">
    <g clip-path="url(#pa5541ff374)">
     <use style="fill:#5bc0de;stroke:#5bc0de;" x="84.829091" xlink:href="#mbe7b8cdcdd" y="123.950239"/>
     <use style="fill:#5bc0de;stroke:#5bc0de;" x="101.837909" xlink:href="#mbe7b8cdcdd" y="123.950239"/>
     <use style="fill:#5bc0de;stroke:#5bc0de;" x="111.305088" xlink:href="#mbe7b8cdcdd" y="123.950239"/>
     <use style="fill:#5bc0de;stroke:#5bc0de;" x="149.013325" xlink:href="#mbe7b8cdcdd" y="123.950239"/>
     <use style="fill:#5bc0de;stroke:#5bc0de;" x="177.414845" xlink:href="#mbe7b8cdcdd" y="123.950239"/>
     <use style="fill:#5bc0de;stroke:#5bc0de;" x="187.20294" xlink:href="#mbe7b8cdcdd" y="123.950239"/>
     <use style="fill:#5bc0de;stroke:#5bc0de;" x="190.251693" xlink:href="#mbe7b8cdcdd" y="123.950239"/>
     <use style="fill:#5bc0de;stroke:#5bc0de;" x="225.87394" xlink:href="#mbe7b8cdcdd" y="123.950239"/>
     <use style="fill:#5bc0de;stroke:#5bc0de;" x="315.250487" xlink:href="#mbe7b8cdcdd" y="123.950239"/>
    </g>
   </g>
   <g id="line2d_58">
    <g clip-path="url(#pa5541ff374)">
     <use style="fill:#5bc0de;stroke:#5bc0de;" x="245.610595" xlink:href="#mbe7b8cdcdd" y="110.170335"/>
     <use style="fill:#5bc0de;stroke:#5bc0de;" x="252.18948" xlink:href="#mbe7b8cdcdd" y="110.170335"/>
     <use style="fill:#5bc0de;stroke:#5bc0de;" x="261.65665" xlink:href="#mbe7b8cdcdd" y="110.170335"/>
     <use style="fill:#5bc0de;stroke:#5bc0de;" x="266.951851" xlink:href="#mbe7b8cdcdd" y="110.170335"/>
     <use style="fill:#5bc0de;stroke:#5bc0de;" x="271.284287" xlink:href="#mbe7b8cdcdd" y="110.170335"/>
     <use style="fill:#5bc0de;stroke:#5bc0de;" x="271.605206" xlink:href="#mbe7b8cdcdd" y="110.170335"/>
     <use style="fill:#5bc0de;stroke:#5bc0de;" x="291.502318" xlink:href="#mbe7b8cdcdd" y="110.170335"/>
     <use style="fill:#5bc0de;stroke:#5bc0de;" x="295.032453" xlink:href="#mbe7b8cdcdd" y="110.170335"/>
     <use style="fill:#5bc0de;stroke:#5bc0de;" x="301.290416" xlink:href="#mbe7b8cdcdd" y="110.170335"/>
     <use style="fill:#5bc0de;stroke:#5bc0de;" x="308.350677" xlink:href="#mbe7b8cdcdd" y="110.170335"/>
    </g>
   </g>
   <g id="line2d_59">
    <g clip-path="url(#pa5541ff374)">
     <use style="fill:#5bc0de;stroke:#5bc0de;" x="188.647085" xlink:href="#mbe7b8cdcdd" y="96.390431"/>
     <use style="fill:#5bc0de;stroke:#5bc0de;" x="217.20907" xlink:href="#mbe7b8cdcdd" y="96.390431"/>
     <use style="fill:#5bc0de;stroke:#5bc0de;" x="254.275464" xlink:href="#mbe7b8cdcdd" y="96.390431"/>
     <use style="fill:#5bc0de;stroke:#5bc0de;" x="255.238227" xlink:href="#mbe7b8cdcdd" y="96.390431"/>
     <use style="fill:#5bc0de;stroke:#5bc0de;" x="275.135339" xlink:href="#mbe7b8cdcdd" y="96.390431"/>
     <use style="fill:#5bc0de;stroke:#5bc0de;" x="284.602517" xlink:href="#mbe7b8cdcdd" y="96.390431"/>
     <use style="fill:#5bc0de;stroke:#5bc0de;" x="294.06969" xlink:href="#mbe7b8cdcdd" y="96.390431"/>
     <use style="fill:#5bc0de;stroke:#5bc0de;" x="299.204427" xlink:href="#mbe7b8cdcdd" y="96.390431"/>
     <use style="fill:#5bc0de;stroke:#5bc0de;" x="304.178704" xlink:href="#mbe7b8cdcdd" y="96.390431"/>
     <use style="fill:#5bc0de;stroke:#5bc0de;" x="355.205167" xlink:href="#mbe7b8cdcdd" y="96.390431"/>
    </g>
   </g>
   <g id="line2d_60">
    <g clip-path="url(#pa5541ff374)">
     <use style="fill:#5bc0de;stroke:#5bc0de;" x="242.722301" xlink:href="#mbe7b8cdcdd" y="82.610526"/>
     <use style="fill:#5bc0de;stroke:#5bc0de;" x="255.880072" xlink:href="#mbe7b8cdcdd" y="82.610526"/>
     <use style="fill:#5bc0de;stroke:#5bc0de;" x="273.691195" xlink:href="#mbe7b8cdcdd" y="82.610526"/>
     <use style="fill:#5bc0de;stroke:#5bc0de;" x="293.106927" xlink:href="#mbe7b8cdcdd" y="82.610526"/>
     <use style="fill:#5bc0de;stroke:#5bc0de;" x="294.551069" xlink:href="#mbe7b8cdcdd" y="82.610526"/>
     <use style="fill:#5bc0de;stroke:#5bc0de;" x="320.866607" xlink:href="#mbe7b8cdcdd" y="82.610526"/>
     <use style="fill:#5bc0de;stroke:#5bc0de;" x="323.915357" xlink:href="#mbe7b8cdcdd" y="82.610526"/>
     <use style="fill:#5bc0de;stroke:#5bc0de;" x="330.173319" xlink:href="#mbe7b8cdcdd" y="82.610526"/>
     <use style="fill:#5bc0de;stroke:#5bc0de;" x="332.740687" xlink:href="#mbe7b8cdcdd" y="82.610526"/>
     <use style="fill:#5bc0de;stroke:#5bc0de;" x="353.440103" xlink:href="#mbe7b8cdcdd" y="82.610526"/>
    </g>
   </g>
   <g id="line2d_61">
    <g clip-path="url(#pa5541ff374)">
     <use style="fill:#5bc0de;stroke:#5bc0de;" x="231.169139" xlink:href="#mbe7b8cdcdd" y="68.830622"/>
     <use style="fill:#5bc0de;stroke:#5bc0de;" x="264.22402" xlink:href="#mbe7b8cdcdd" y="68.830622"/>
     <use style="fill:#5bc0de;stroke:#5bc0de;" x="288.293109" xlink:href="#mbe7b8cdcdd" y="68.830622"/>
     <use style="fill:#5bc0de;stroke:#5bc0de;" x="292.625547" xlink:href="#mbe7b8cdcdd" y="68.830622"/>
     <use style="fill:#5bc0de;stroke:#5bc0de;" x="300.327648" xlink:href="#mbe7b8cdcdd" y="68.830622"/>
     <use style="fill:#5bc0de;stroke:#5bc0de;" x="304.018245" xlink:href="#mbe7b8cdcdd" y="68.830622"/>
     <use style="fill:#5bc0de;stroke:#5bc0de;" x="316.694631" xlink:href="#mbe7b8cdcdd" y="68.830622"/>
     <use style="fill:#5bc0de;stroke:#5bc0de;" x="327.605949" xlink:href="#mbe7b8cdcdd" y="68.830622"/>
    </g>
   </g>
   <g id="line2d_62">
    <g clip-path="url(#pa5541ff374)">
     <use style="fill:#5bc0de;stroke:#5bc0de;" x="182.0682" xlink:href="#mbe7b8cdcdd" y="55.050718"/>
     <use style="fill:#5bc0de;stroke:#5bc0de;" x="183.833268" xlink:href="#mbe7b8cdcdd" y="55.050718"/>
     <use style="fill:#5bc0de;stroke:#5bc0de;" x="185.598334" xlink:href="#mbe7b8cdcdd" y="55.050718"/>
     <use style="fill:#5bc0de;stroke:#5bc0de;" x="198.756101" xlink:href="#mbe7b8cdcdd" y="55.050718"/>
     <use style="fill:#5bc0de;stroke:#5bc0de;" x="227.478547" xlink:href="#mbe7b8cdcdd" y="55.050718"/>
     <use style="fill:#5bc0de;stroke:#5bc0de;" x="235.822498" xlink:href="#mbe7b8cdcdd" y="55.050718"/>
     <use style="fill:#5bc0de;stroke:#5bc0de;" x="236.945723" xlink:href="#mbe7b8cdcdd" y="55.050718"/>
     <use style="fill:#5bc0de;stroke:#5bc0de;" x="250.103489" xlink:href="#mbe7b8cdcdd" y="55.050718"/>
     <use style="fill:#5bc0de;stroke:#5bc0de;" x="343.812468" xlink:href="#mbe7b8cdcdd" y="55.050718"/>
     <use style="fill:#5bc0de;stroke:#5bc0de;" x="359.698069" xlink:href="#mbe7b8cdcdd" y="55.050718"/>
    </g>
   </g>
   <g id="line2d_63">
    <g clip-path="url(#pa5541ff374)">
     <use style="fill:#5bc0de;stroke:#5bc0de;" x="161.047866" xlink:href="#mbe7b8cdcdd" y="41.270813"/>
     <use style="fill:#5bc0de;stroke:#5bc0de;" x="163.294316" xlink:href="#mbe7b8cdcdd" y="41.270813"/>
     <use style="fill:#5bc0de;stroke:#5bc0de;" x="192.979522" xlink:href="#mbe7b8cdcdd" y="41.270813"/>
     <use style="fill:#5bc0de;stroke:#5bc0de;" x="204.853605" xlink:href="#mbe7b8cdcdd" y="41.270813"/>
     <use style="fill:#5bc0de;stroke:#5bc0de;" x="208.544201" xlink:href="#mbe7b8cdcdd" y="41.270813"/>
     <use style="fill:#5bc0de;stroke:#5bc0de;" x="226.515785" xlink:href="#mbe7b8cdcdd" y="41.270813"/>
     <use style="fill:#5bc0de;stroke:#5bc0de;" x="229.404072" xlink:href="#mbe7b8cdcdd" y="41.270813"/>
     <use style="fill:#5bc0de;stroke:#5bc0de;" x="244.005981" xlink:href="#mbe7b8cdcdd" y="41.270813"/>
     <use style="fill:#5bc0de;stroke:#5bc0de;" x="276.419024" xlink:href="#mbe7b8cdcdd" y="41.270813"/>
    </g>
   </g>
   <g id="line2d_64">
    <g clip-path="url(#pa5541ff374)">
     <use style="fill:#5bc0de;stroke:#5bc0de;" x="175.168395" xlink:href="#mbe7b8cdcdd" y="27.490909"/>
     <use style="fill:#5bc0de;stroke:#5bc0de;" x="191.535379" xlink:href="#mbe7b8cdcdd" y="27.490909"/>
     <use style="fill:#5bc0de;stroke:#5bc0de;" x="207.260515" xlink:href="#mbe7b8cdcdd" y="27.490909"/>
     <use style="fill:#5bc0de;stroke:#5bc0de;" x="216.246306" xlink:href="#mbe7b8cdcdd" y="27.490909"/>
     <use style="fill:#5bc0de;stroke:#5bc0de;" x="222.985651" xlink:href="#mbe7b8cdcdd" y="27.490909"/>
     <use style="fill:#5bc0de;stroke:#5bc0de;" x="234.699273" xlink:href="#mbe7b8cdcdd" y="27.490909"/>
     <use style="fill:#5bc0de;stroke:#5bc0de;" x="248.980267" xlink:href="#mbe7b8cdcdd" y="27.490909"/>
     <use style="fill:#5bc0de;stroke:#5bc0de;" x="253.312699" xlink:href="#mbe7b8cdcdd" y="27.490909"/>
     <use style="fill:#5bc0de;stroke:#5bc0de;" x="253.473163" xlink:href="#mbe7b8cdcdd" y="27.490909"/>
     <use style="fill:#5bc0de;stroke:#5bc0de;" x="264.384478" xlink:href="#mbe7b8cdcdd" y="27.490909"/>
    </g>
   </g>
   <g id="line2d_65">
    <path clip-path="url(#pa5541ff374)" d="M 240.475854 302.4 
L 240.475854 14.4 
" style="fill:none;stroke:#d2d2d2;stroke-dasharray:5.6,2.4;stroke-dashoffset:0;stroke-width:1.5;"/>
   </g>
   <g id="patch_3">
    <path d="M 69.12 302.4 
L 69.12 14.4 
" style="fill:none;stroke:#d2d2d2;stroke-linecap:square;stroke-linejoin:miter;"/>
   </g>
   <g id="patch_4">
    <path d="M 69.12 302.4 
L 414.72 302.4 
" style="fill:none;stroke:#d2d2d2;stroke-linecap:square;stroke-linejoin:miter;"/>
   </g>
   <g id="text_28">
    <!-- Relative risk -->
    <defs>
     <path d="M 44.390625 34.1875 
Q 47.5625 33.109375 50.5625 29.59375 
Q 53.5625 26.078125 56.59375 19.921875 
L 66.609375 0 
L 56 0 
L 46.6875 18.703125 
Q 43.0625 26.03125 39.671875 28.421875 
Q 36.28125 30.8125 30.421875 30.8125 
L 19.671875 30.8125 
L 19.671875 0 
L 9.8125 0 
L 9.8125 72.90625 
L 32.078125 72.90625 
Q 44.578125 72.90625 50.734375 67.671875 
Q 56.890625 62.453125 56.890625 51.90625 
Q 56.890625 45.015625 53.6875 40.46875 
Q 50.484375 35.9375 44.390625 34.1875 
M 19.671875 64.796875 
L 19.671875 38.921875 
L 32.078125 38.921875 
Q 39.203125 38.921875 42.84375 42.21875 
Q 46.484375 45.515625 46.484375 51.90625 
Q 46.484375 58.296875 42.84375 61.546875 
Q 39.203125 64.796875 32.078125 64.796875 
z
" id="DejaVuSans-52"/>
     <path id="DejaVuSans-20"/>
    </defs>
    <g style="fill:#d2d2d2;" transform="translate(194.096558 358.208612)scale(0.15 -0.15)">
     <use xlink:href="#DejaVuSans-52"/>
     <use x="69.419922" xlink:href="#DejaVuSans-65"/>
     <use x="130.943359" xlink:href="#DejaVuSans-6c"/>
     <use x="158.726562" xlink:href="#DejaVuSans-61"/>
     <use x="220.005859" xlink:href="#DejaVuSans-74"/>
     <use x="259.214844" xlink:href="#DejaVuSans-69"/>
     <use x="286.998047" xlink:href="#DejaVuSans-76"/>
     <use x="346.177734" xlink:href="#DejaVuSans-65"/>
     <use x="407.701172" xlink:href="#DejaVuSans-20"/>
     <use x="439.488281" xlink:href="#DejaVuSans-72"/>
     <use x="480.601562" xlink:href="#DejaVuSans-69"/>
     <use x="508.384766" xlink:href="#DejaVuSans-73"/>
     <use x="560.484375" xlink:href="#DejaVuSans-6b"/>
    </g>
   </g>
   <g id="text_29">
    <!-- Protects against cancer -->
    <g style="fill:#d2d2d2;" transform="translate(86.260496 337.538756)scale(0.12 -0.12)">
     <use xlink:href="#DejaVuSans-50"/>
     <use x="60.287109" xlink:href="#DejaVuSans-72"/>
     <use x="101.369141" xlink:href="#DejaVuSans-6f"/>
     <use x="162.550781" xlink:href="#DejaVuSans-74"/>
     <use x="201.759766" xlink:href="#DejaVuSans-65"/>
     <use x="263.283203" xlink:href="#DejaVuSans-63"/>
     <use x="318.263672" xlink:href="#DejaVuSans-74"/>
     <use x="357.472656" xlink:href="#DejaVuSans-73"/>
     <use x="409.572266" xlink:href="#DejaVuSans-20"/>
     <use x="441.359375" xlink:href="#DejaVuSans-61"/>
     <use x="502.638672" xlink:href="#DejaVuSans-67"/>
     <use x="566.115234" xlink:href="#DejaVuSans-61"/>
     <use x="627.394531" xlink:href="#DejaVuSans-69"/>
     <use x="655.177734" xlink:href="#DejaVuSans-6e"/>
     <use x="718.556641" xlink:href="#DejaVuSans-73"/>
     <use x="770.65625" xlink:href="#DejaVuSans-74"/>
     <use x="809.865234" xlink:href="#DejaVuSans-20"/>
     <use x="841.652344" xlink:href="#DejaVuSans-63"/>
     <use x="896.632812" xlink:href="#DejaVuSans-61"/>
     <use x="957.912109" xlink:href="#DejaVuSans-6e"/>
     <use x="1021.291016" xlink:href="#DejaVuSans-63"/>
     <use x="1076.271484" xlink:href="#DejaVuSans-65"/>
     <use x="1137.794922" xlink:href="#DejaVuSans-72"/>
    </g>
   </g>
   <g id="text_30">
    <!-- Causes cancer -->
    <g style="fill:#d2d2d2;" transform="translate(292.844717 337.538756)scale(0.12 -0.12)">
     <use xlink:href="#DejaVuSans-43"/>
     <use x="69.824219" xlink:href="#DejaVuSans-61"/>
     <use x="131.103516" xlink:href="#DejaVuSans-75"/>
     <use x="194.482422" xlink:href="#DejaVuSans-73"/>
     <use x="246.582031" xlink:href="#DejaVuSans-65"/>
     <use x="308.105469" xlink:href="#DejaVuSans-73"/>
     <use x="360.205078" xlink:href="#DejaVuSans-20"/>
     <use x="391.992188" xlink:href="#DejaVuSans-63"/>
     <use x="446.972656" xlink:href="#DejaVuSans-61"/>
     <use x="508.251953" xlink:href="#DejaVuSans-6e"/>
     <use x="571.630859" xlink:href="#DejaVuSans-63"/>
     <use x="626.611328" xlink:href="#DejaVuSans-65"/>
     <use x="688.134766" xlink:href="#DejaVuSans-72"/>
    </g>
   </g>
  </g>
 </g>
 <defs>
  <clipPath id="pa5541ff374">
   <rect height="288" width="345.6" x="69.12" y="14.4"/>
  </clipPath>
 </defs>
</svg>
