<?xml version="1.0" encoding="utf-8"?>
<!-- Generator: Adobe Illustrator 16.0.4, SVG Export Plug-In . SVG Version: 6.00 Build 0)  -->
<!DOCTYPE svg PUBLIC "-//W3C//DTD SVG 1.1//EN" "http://www.w3.org/Graphics/SVG/1.1/DTD/svg11.dtd">
<svg version="1.1" id="Layer_1" xmlns="http://www.w3.org/2000/svg" xmlns:xlink="http://www.w3.org/1999/xlink" x="0px" y="0px"
	 width="752px" height="691px" viewBox="0 0 752 691" enable-background="new 0 0 752 691" xml:space="preserve">
<g>
	<path fill-rule="evenodd" clip-rule="evenodd" fill="#009DFD" d="M134.009,504.203c-1.022,0.354-2.044,0.708-3.066,1.062
		c0.279-3.375,1.832-6.319,3.144-9.347c6.945-16.023,13.896-32.328,17.312-49.278c8.073-40.067,17.304-79.952,22.646-120.543
		c0.144-1.094-0.15-2.768,1.211-2.888c0.808-0.071,1.971,1.135,2.584,2.033c7.099,10.412,14.345,20.734,21.057,31.392
		c2.72,4.319,5.473,5.298,9.823,3.019c3.718-1.948,7.082-4.405,10.13-7.217c8.932-8.242,8.27-29.149-0.899-37.137
		c-9.121-7.944-20.193-12.833-30.12-19.516c-3.841-2.585-4.999-5.486-4.672-9.921c2.389-32.517,4.545-65.05,6.881-97.57
		c1.743-24.26,5.079-48.257,12.045-71.656c1.295-4.35,2.486-7.403,7.781-4.153c1.749,1.073,4.119,1.327,6.248,1.557
		c27.777,2.987,55.4,2.166,82.797-3.604c16.913-3.562,33.757-7.482,50.87-9.993c2.672-0.393,5.665-1.521,8.114,0.741
		c4.629,4.276,10.302,6.578,16.065,8.736c-4.847,12.147-9.188,24.455-11.83,37.301c-17.223,15.069-26.125,34.332-28.032,56.863
		c-1.083,12.791,2.067,24.647,9.996,35.002c-2.269,2.859-4.297,5.959-6.86,8.523c-4.225,4.228-4.921,9.293-5.183,14.938
		c-0.658,14.171,0.886,28.186,2.174,42.231c-12.625-3.287-24.084-8.363-31.182-20.202c-0.667-1.111-1.47-2.608-2.933-2.345
		c-1.787,0.322-1.292,2.227-1.195,3.335c1.167,13.413,4.028,25.965,17.099,33.349c6.592,3.724,13.729,5.708,21.03,7.305
		c0.761,7.106,1.265,14.143,0.429,21.361c-1.644,14.192-3.352,28.387-4.113,42.682c-1.155,21.682,0.461,43.589-5.345,64.918
		c-1.784,6.557-2.839,13.313-4.229,19.979c-11.786,0.354-23.605,0.271-35.354,1.141c-47.624,3.522-94.691,10.818-141.205,21.647
		C142.395,499.072,137.488,500.16,134.009,504.203z"/>
	<path fill-rule="evenodd" clip-rule="evenodd" fill="#DDDD00" d="M472.459,636.836c-15.282,1.707-30.563,3.408-45.844,5.125
		c-6.804,0.764-13.488-0.791-20.232-1.14c-7.639-0.395-15.198-2.325-22.838-2.718c-17.889-0.921-35.146-4.418-51.905-10.73
		c-5.145-1.938-10.601-3.046-15.914-4.534c10.053-6.57,11.17-10.478,5.978-21.728c-1.25-2.709-2.543-5.524-4.415-7.798
		c-6.722-8.163-7.655-17.888-7.673-27.76c-0.061-33.023,13.947-59.987,36.274-83.325c1.93-2.017,3.854-2.649,6.593-2.334
		c19.01,2.195,38.142,3.582,57.025,6.553c16.381,2.576,33.058,4.004,48.901,9.562c3.21,1.127,5.279,2.801,6.733,5.956
		c12.268,26.633,14.21,54.386,9.582,82.971c-1.05,6.483-3.841,11.572-8.395,16.392c-6.727,7.119-11.385,15.462-10.855,25.954
		c0.279,5.532,3.11,7.329,8.078,8.007C466.511,635.691,469.965,633.781,472.459,636.836z"/>
	<path fill-rule="evenodd" clip-rule="evenodd" fill="#090905" d="M472.459,636.836c-2.494-3.055-5.948-1.145-8.906-1.547
		c-4.968-0.678-7.799-2.475-8.078-8.007c-0.529-10.492,4.129-18.835,10.855-25.954c4.554-4.819,7.345-9.908,8.395-16.392
		c4.628-28.585,2.686-56.338-9.582-82.971c-1.454-3.155-3.523-4.829-6.733-5.956c-15.844-5.559-32.521-6.986-48.901-9.562
		c-18.884-2.971-38.016-4.357-57.025-6.553c-2.739-0.315-4.663,0.317-6.593,2.334c-22.327,23.338-36.335,50.302-36.274,83.325
		c0.018,9.872,0.951,19.597,7.673,27.76c1.872,2.273,3.165,5.089,4.415,7.798c5.192,11.25,4.075,15.157-5.978,21.728
		c-5.11,1.004-8.099,3.66-10.237,8.867c-6.146,14.96-17.732,25.069-31.157,33.78c-15.924,10.332-33.021,9.357-50.458,7.451
		c-4.018-0.439-4.625-3.194-3.624-6.67c2.043-7.087,6.627-12.584,11.659-17.567c10.354-10.255,20.187-21.035,31.261-30.589
		c4.536-3.913,8.05-9.012,12.029-13.573c2.945-3.188,7.062-5.53,6.654-10.909c-0.907-11.96-0.347-23.934-0.053-35.904
		c0.516-20.935,4.101-41.185,12.916-60.346c2.149-4.67,3.854-9.545,6.006-14.214c1.28-2.779,0.227-3.627-2.321-3.525
		c-5.646,0.223-11.303,0.387-16.929,0.869c-25.193,2.164-50.128,6.398-75.203,9.507c-16.501,2.046-32.737,5.271-48.718,9.826
		c-7.059,0.84-13.634,3.276-20.103,6.072c-1.804,0.779-3.54,1.365-3.439-1.711c3.479-4.043,8.385-5.131,13.219-6.256
		c46.513-10.829,93.581-18.125,141.205-21.647c11.749-0.869,23.568-0.786,35.354-1.141c4.637,0.22,9.272,0.48,13.911,0.652
		c22.266,0.827,44.419,3.123,66.486,5.961c26.182,3.367,51.933,9.354,77.91,13.978c23.181,4.181,46.395,8.033,70.086,7.304
		c6.932,1.314,13.756-0.648,20.643-0.682c22.05-2.231,44.072-1.122,66.107,0.379c12.662,0.862,24.896,3.887,37.105,6.949
		c4.702,1.18,6.816-0.066,7.508-4.599c0.97-6.355,2.538-12.665,1.395-19.172c0.181-0.065,0.36-0.131,0.54-0.197
		c-0.078-0.011-0.188-0.06-0.229-0.025c-0.101,0.082-0.17,0.203-0.251,0.309c-3.062,0.959-4.699,3.599-6.678,5.789
		c-2.418,2.679-5.212,4.772-8.765,5.408c-9.066,1.622-17.836-0.676-26.615-2.43c-0.764-0.152-1.499-1.281-1.93-2.12
		c-1.701-3.312-4.351-4.617-8.041-4.915c-3.391-0.274-7.474-0.397-9.067-4.15c-4.07-9.586-12.052-12.581-21.364-12.514
		c-5.369,0.039-8.678-2.077-10.562-6.536c-2.174-5.146-4.612-10.312-0.392-15.931c8.409-11.192,17.551-21.702,27.132-31.91
		c11.693-12.457,24.452-22.506,42.256-24.186c13.827-1.304,22.441-9.527,27.769-21.796c2.12-4.882,4.007-9.88,6.396-14.625
		c1.793-3.562,0.647-4.623-2.855-5.145c-6.514-0.97-12.965,0.378-19.453,0.181c-10.883-0.331-21.628,0.385-31.688,5.166
		c-1.598,0.759-3.257,0.65-4.901,0.455c-9.688-1.151-12.188-9.043-14.47-16.44c-1.862-6.034-2.077-12.359,1.846-18.197
		c4.276-6.362,9.882-8.648,17.374-7.281c2.737,0.5,5.656,0.197,8.478,0.024c18.841-1.155,37.361,1.486,55.759,4.992
		c4.845,0.923,5.207-1.302,5.662-4.857c2.771-21.671,3.898-43.467,3.818-65.265c-0.128-34.896,2.272-69.499,9.251-103.729
		c2.989-14.667,5.9-29.351,8.964-44.002c0.786-3.755,0.053-5.17-4.18-4.623c-7.586,0.98-15.288,1.087-22.857,2.154
		c-17.459,2.462-34.786,5.719-52.095,9.102c-10.476,2.047-21.131,2.803-31.808,1.554c-8.805-1.031-17.509,1.806-26.37,0.245
		c-17.861-3.146-35.826-5.594-53.976-6.377c-4.479-0.94-8.861-0.902-13.202,0.854c-3.323,1.346-6.817,1.281-10.292,0.516
		c-18.112-3.99-36.266-3.991-54.496-0.786c-29.686,5.22-59.381,10.495-89.686,5.278c-5.764-2.158-11.437-4.46-16.065-8.736
		c-2.449-2.263-5.442-1.134-8.114-0.741c-17.113,2.511-33.957,6.431-50.87,9.993c-27.396,5.771-55.02,6.592-82.797,3.604
		c-2.129-0.229-4.5-0.483-6.248-1.557c-5.294-3.25-6.486-0.196-7.781,4.153c-6.966,23.399-10.302,47.396-12.045,71.656
		c-2.336,32.521-4.492,65.054-6.881,97.57c-0.326,4.435,0.832,7.336,4.672,9.921c9.927,6.683,21,11.571,30.12,19.516
		c9.169,7.987,9.831,28.895,0.899,37.137c-3.048,2.812-6.412,5.269-10.13,7.217c-4.351,2.279-7.103,1.301-9.823-3.019
		c-6.712-10.657-13.958-20.979-21.057-31.392c-0.613-0.898-1.776-2.104-2.584-2.033c-1.361,0.12-1.067,1.794-1.211,2.888
		c-5.342,40.591-14.573,80.476-22.646,120.543c-3.416,16.95-10.367,33.255-17.312,49.278c-1.312,3.027-2.865,5.972-3.144,9.347
		c-0.61,0.768-1.576,1.462-1.752,2.318c-0.344,1.669-0.513,3.855-2.629,3.206c-2.343-0.719-1.963-3.38-1.385-5.144
		c1.837-5.603,4.031-11.054,7.526-15.929c4.436-6.186,6.166-13.506,8.14-20.699c2.398-8.468,4.915-16.904,7.175-25.409
		c10.14-38.164,15.642-77.21,22.174-116.067c1.116-6.64,1.316-12.312-3.788-17.352c-5.446-5.377-10.672-10.977-16.032-16.442
		c-1.959-1.998-4.135-2.578-6.697-0.896c-13.94,9.151-26.221,20.364-38.835,31.163c-4.507,3.062-8.92,6.275-13.539,9.158
		c-12.897,8.053-26.354,14.405-42.138,13.885c-8.902-0.293-12.076-2.357-15.403-10.572c-0.983-2.426-1.82-4.788-5.693-4.613
		c-7.62,0.345-16.158-10.47-13.9-17.691c1.11-3.55-0.148-5.417-2.151-7.688c-4.201-4.762-5.764-10.251-3.994-16.489
		c0.216-0.762,0.472-1.898,1.014-2.121c6.17-2.529,4.751-7.03,4.152-12.187c-1.023-8.809-0.063-9.042,10.861-13.67
		c6.25-2.648,13.03-3.426,19.728-4.438c13.936-2.107,26.048-8.944,38.358-15.218c2.144-1.093,4.47-1.987,6.324-3.462
		c5.493-4.367,4.591-12.001-0.938-19.079c-5.147-6.59-12.436-11.34-16.212-19.019c-4.084-8.306-6.666-16.646,3.121-23.754
		c2.349-1.706,4.696-3.516,7.004-0.096c7.573,11.218,19.875,16.429,30.3,24.034c5.245,3.826,10.478,7.739,14.279,13.164
		c0.435,2.234,2.239,3.838,2.159,6.479c-0.156,5.137,0.538,10.294,0.634,15.447c0.053,2.823,0.939,4.183,3.81,5.332
		c9.114,3.65,17.835,8.596,21.49,18.216c4.207,11.074,12.305,18.307,21.213,25.106c1.004,0.767,2.109,2.353,3.286,1.634
		c0.718-0.438,0.631-2.364,0.721-3.635c2.234-31.37,4.387-62.745,6.675-94.111c2.014-27.626,6.717-54.789,14.191-81.479
		c1.228-4.384,2.99-4.287,5.399-1.227c1.943,2.468,4.42,3.21,7.348,3.514c34.64,3.592,68.776-0.175,102.707-6.965
		c10.752-2.151,21.482-4.408,32.232-6.563c1.553-0.312,3.881,1.105,4.585-0.349c0.775-1.604-1.111-3.353-2.229-4.645
		c-6.085-7.032-10.536-15.072-13.146-23.845c-5.294-17.793-2.37-33.857,11.814-46.912c8.24-5.292,16.768-9.783,26.405-12.26
		c12.904-3.316,25.289-2.071,37.571,2.48c1.052,0.39,2.197,0.525,3.299,0.779c16.515,8.515,32.542,17.749,46.922,29.698
		c4.611,3.832,10.447,4.943,16.52,3.556c1.545-0.353,3.088-0.538,2.088-2.795c-0.594-1.34-1.557-3.464-0.295-4.043
		c1.668-0.767,3.029,1.394,3.64,2.712c4.617,9.981,13.862,10.22,22.75,10.767c6.968,0.429,14.004,0.438,20.974,0.023
		c22.35-1.332,45.949,19.283,40.887,43.843c-0.829,4.021,0.652,6.154,4.678,7.054c13.192,2.949,26.563,4.635,40.037,4.827
		c10.062,0.143,20.211,0.021,30.075-2.648c5.155,0.891,10.107-0.772,15.073-1.503c16.023-2.358,31.818-6.055,47.971-7.79
		c9-0.968,17.94-2.044,27.012-1.938c3.08,0.035,3.731,0.61,3.23,3.934c-2.652,17.595-7.435,34.764-9.869,52.421
		c-2.604,18.883-5.544,37.694-6.973,56.73c-0.625,8.328-1.445,16.64-1.719,24.992c-1.774,29.11,1.196,58.508-5.27,87.331
		c-0.472,2.103,0.568,2.892,2.272,3.698c6.588,3.118,13.105,6.384,19.65,9.595c4.476,4.104,8.815,7.946,9.619,14.842
		c0.48,4.122-2.271,5.675-3.728,8.159c-3.226,5.501-8.39,9.778-10.344,16.128c-0.426,0.129-1.042,0.119-1.251,0.406
		c-7.05,9.678-14.896,18.675-23.142,27.34c-2.009,2.111-2.817,4.812-3.092,7.688c-1.292,13.54-2.538,27.085-6.448,40.212
		c-0.608,2.045-1.119,4.32-0.045,6.328c2.615,4.886,1.81,9.456-0.502,14.204c-3.123,6.413-8.272,12.192-6.829,20.167
		c-0.561,8.58-2.992,16.903-3.262,25.567c-0.098,3.152-3.526,3.722-6.531,3.04c-2.648-0.602-5.296-1.204-7.944-1.806
		c-0.757-0.302-1.489-0.693-2.271-0.894c-25.876-6.636-52.314-7.102-78.774-6.915c-25.731,0.182-51.475,3.152-77.179-0.405
		c-3.248-0.45-2.331,1.51-1.934,2.961c2.122,7.753,2.674,15.722,3.463,23.663c2.037,20.48,0.081,40.283-11.318,58.015
		c-5.075,7.894-4.325,10.183,2.159,17.855c5.296,6.266,12.519,10.339,19.361,14.754c12.104,10.433,23.582,21.46,32.128,35.121
		c2.053,3.28,6.696,5.491,5.01,10.504c-0.867,2.578-1.809,4.714-5.245,5.585c-23.092,5.853-42.749-1.852-61.62-14.316
		c-7.996-5.281-13.473-12.633-19.512-19.641C475.468,638.869,474.458,637.177,472.459,636.836z M640.829,317.794
		c-1.492-0.124-2.99-0.207-4.477-0.385c-1.636-0.194-3.147-0.503-4.738,0.599c-11.104,7.685-11.322,24.065-0.38,31.96
		c2.579,1.86,5.214,2.462,8.438,1.654c17.528-4.395,35.264-6.763,53.361-4.587c3.49,0.419,6.872,1.29,8.735-3.11
		c0.409-0.968,2.114-1.507,3.326-1.974c0.84-0.324,2.053-0.907,2.698,0.117c0.243,0.386-0.361,1.501-0.817,2.103
		c-5.39,7.11-8.557,15.366-11.87,23.495c-4.779,11.724-11.692,21.591-22.649,28.301c-0.665,0.407-1.574,1.43-1.873,1.265
		c-5.989-3.3-11.034,1.385-16.526,2.01c-6.785,0.772-13.572,2.851-18.727,7.514c-14.971,13.544-28.19,28.734-40.311,44.86
		c-3.268,4.347-1.544,11.265,3.03,13.896c1.006,0.579,2.341,1.413,3.207,0.489c1.211-1.292-0.761-1.698-1.233-2.547
		c-0.881-1.58-1.967-3.066-2.682-4.715c-0.558-1.282-0.339-2.938,0.945-3.566c1.988-0.972,1.787,1.239,2.45,2.165
		c3.015,4.204,5.872,9.292,11.183,10.113c6.001,0.929,9.029,4.584,11.396,9.128c2.201,4.227,5.386,6.232,9.907,6.193
		c4.019-0.034,6.809,1.62,9.312,4.747c3.725,4.648,20.605,8.708,25.33,5.953c12.664-7.382,20.895-18.655,26.509-31.928
		c1.188-2.81,1.355-6.317-2.493-7.398c-3.615-1.015-5.758,0.819-6.672,4.681c-2.188,9.245-7.08,17.141-13.166,24.314
		c-0.882,1.04-1.835,3.426-3.161,2.489c-1.896-1.339,0.408-2.906,1.145-4.091c11.044-17.76,15.46-37.3,15.762-57.958
		c0.021-1.414,0.72-3.214-0.755-4.192c-3.769-2.503-2.181-4.444,0.368-6.562c21.601-17.945,38.407-40.052,54.472-62.805
		c2.237-3.169,1.905-6.24-0.221-9.123c-2.803-3.797-6.518-6.571-10.626-8.904c-18.739-10.638-39.847-10.618-60.307-12.882
		C659.555,318.101,650.111,318.785,640.829,317.794z M48.919,342.986c12.455-0.635,25.579-5.192,36.293-11.297
		c18.933-10.786,34.374-26.04,51.471-39.165c4.482-3.44,9.082-6.763,12.621-11.286c1.266-1.619,2.295-3.206,2.178-5.384
		c-0.271-5.021,0.242-9.739-2.208-14.911c-3.609-7.622-8.916-13.797-16.404-14.279c-7.504-0.484-6.699-4.32-7.667-8.855
		c-1.559-7.301-4.12-14.407-5.35-21.748c-0.614-3.664-1.97-6.021-4.762-8.119c-11.244-8.448-24.384-14.361-33.545-25.646
		c-2.301-2.834-8.821,0.166-8.774,4.193c0.072,6.241,0.625,12.807,5.772,17.328c6.213,5.458,11.381,11.629,15.15,18.982
		c4.665,9.102,2.978,15.906-5.672,21.42c-14.719,9.384-30.604,15.913-47.843,19.016c-6.685,1.203-13.563,1.756-19.644,5.213
		c-4.401,2.502-4.02,6.245-2.866,10.436c1.383,5.021,4.589,2.149,7.157,1.918c1.475-0.132,2.911-0.652,4.378-0.924
		c17.127-3.162,34.598-5.208,49.56-15.357c0.829-0.562,1.925-1.268,2.491-0.111c0.506,1.034-0.775,1.69-1.504,2.322
		c-9.42,8.146-20.518,12.723-32.564,15.281c-10.233,2.174-20.643,3.604-30.613,6.895c-5.222,1.724-6.47,5.762-3.986,11.716
		c2.907,6.968,4.005,7.457,10.081,4.771c2.119-0.938,4.314-1.715,6.512-2.456c18.287-6.165,38.489-6.858,54.631-19.146
		c0.679-0.517,1.389-0.91,2.218-0.266c1.196,0.929,0.194,1.752-0.159,2.562c-1.386,3.177-4.496,4.319-7.208,5.821
		c-15.162,8.397-32.161,11.302-48.56,15.964c-3.117,0.887-6.016,1.991-8.523,3.896c-2.292,1.742-4.22,4.093-3.427,7.232
		c1.876,7.431,13.764,12.999,20.234,9.068c9.576-5.816,20.251-8.144,30.782-11.139c5.648-1.606,11.771-2.098,16.354-6.67
		c1.884-1.881,4.105-4.051,7.387-3.128c-0.948,2.573-2.866,4.374-4.944,5.987c-8.66,6.723-19.418,8.329-29.395,11.759
		c-5.817,2-11.805,3.493-16.929,7.02c-1.928,1.327-4.754,2.688-3.359,5.845c1.233,2.792,3.161,5.125,6.648,5.235
		C46.26,343.021,47.59,342.986,48.919,342.986z M396.981,11.745c-20.05,0.353-33.347,4.414-44.766,13.043
		c-10.576,7.992-14.524,19.468-13.66,32.563c1.073,16.263,10.403,28.041,21.593,38.617c3.183,3.009,5.829,7.027,10.609,7.955
		c18.809,3.647,37.662,2.951,56.545,0.609c15.332-1.901,30.574-5.259,46.018-5.378c29.115-0.224,58.268-1.543,87.351,1.011
		c3.275,0.288,4.201-0.891,4.852-3.854c3.953-18.004-8.639-36.881-27.161-39.239c-15.566-1.982-31.308-1.555-46.892-4.781
		c-13.338-2.762-26.862-3.561-37.691-13.365c-4.146-3.754-9.187-6.603-14.059-9.455C424.697,20.677,410.231,10.199,396.981,11.745z
		 M511.339,546.125c1.114-15.374,0.881-27.285-4.348-38.531c-0.657-1.415-0.921-3.272-3.011-3.619
		c-9.837-1.634-19.666-3.316-29.503-4.951c-3.464-0.575-4.563,0.146-3.09,4.018c7.979,20.978,10.624,42.713,9.782,65.139
		c-0.564,15.044-4.271,28.369-14.593,39.646c-2.901,3.169-4.7,7.161-5.937,11.4c-2.838,9.731-2.134,10.809,7.796,10.765
		c4.912-0.022,12.463,4.977,14.435,9.417c0.525,1.184,1.365,2.263,2.208,3.266c11.405,13.572,26.229,21.779,42.938,26.744
		c9.228,2.742,18.549,3.593,27.719-0.96c2.983-1.48,3.027-2.747,1.159-5.006c-10.469-12.656-19.669-26.426-33.457-36.08
		c-9.403-6.585-18.557-13.586-25.002-23.404c-0.357-0.545-0.878-1.453-1.277-1.43c-7.531,0.443-2.083-3.943-1.473-5.054
		C505.068,580.417,513.547,563.154,511.339,546.125z M324.366,479.847c0-0.107,0.001-0.216,0.001-0.323
		c-4.33,0-8.664,0.096-12.99-0.031c-3.354-0.098-5.232,1.227-6.868,4.327c-8.72,16.52-13.637,34.207-16.598,52.496
		c-2.966,18.317-2.423,36.783-1.69,55.229c0.223,5.594-1.31,10.104-5.304,14.383c-7.047,7.551-14.397,14.75-21.882,21.848
		c-11.454,10.862-23.129,21.5-31.124,35.483c-2.562,4.48-1.579,5.444,3.007,5.771c29.292,2.088,57.068-10.307,70.945-41.702
		c2.582-5.842,6.259-9.311,12.531-10.752c5.922-1.361,8.248-7.123,4.722-11.326c-17.792-21.205-17.032-45.151-10.28-69.815
		c5.539-20.23,15.784-37.942,30.367-53.091c0.529-0.55,1.342-1.341,1.242-1.873c-0.197-1.053-1.368-0.592-2.11-0.6
		C333.679,479.823,329.022,479.847,324.366,479.847z M222.178,331.022c-0.155-3.765-0.703-8.387-4.584-11.755
		c-3.394-2.945-7.106-5.413-11.104-7.492c-18.559-9.648-35.958-20.793-48.569-38.046c-0.367-0.502-0.909-0.876-1.369-1.311
		c-0.228,0.694-0.498,1.377-0.676,2.083c-0.686,2.725-0.841,5.88-2.958,7.788c-3.791,3.419-2.469,5.497,0.66,8.572
		c19.255,18.93,37.632,38.593,48.682,63.792c1.248,2.845,3.189,2.267,5.342,1.689C215.53,354.219,223.077,341.688,222.178,331.022z
		 M689.162,441.366c0,2.15-0.139,3.173,0.035,4.14c0.221,1.229-1.268,3.203,1.303,3.507c2.139,0.253,2.857-1.084,3.188-2.945
		c2.171-12.25,4.67-24.447,5.83-36.855c0.055-0.581,0.888-1.706-0.751-1.598c-2.256,0.149-9.665,8.618-9.569,11.054
		C689.508,426.619,690.559,434.569,689.162,441.366z"/>
	<path fill-rule="evenodd" clip-rule="evenodd" fill="#DDDD00" d="M348.902,20.158c-14.185,13.055-17.108,29.119-11.814,46.912
		c2.61,8.772,7.062,16.812,13.146,23.845c1.117,1.292,3.004,3.04,2.229,4.645c-0.704,1.454-3.032,0.037-4.585,0.349
		c-10.75,2.155-21.48,4.412-32.232,6.563c-33.931,6.79-68.066,10.557-102.707,6.965c-2.928-0.304-5.405-1.046-7.348-3.514
		c-2.409-3.061-4.171-3.157-5.399,1.227c-7.474,26.689-12.177,53.853-14.191,81.479c-2.288,31.366-4.44,62.741-6.675,94.111
		c-0.09,1.271-0.003,3.196-0.721,3.635c-1.177,0.719-2.282-0.867-3.286-1.634c-8.908-6.8-17.006-14.032-21.213-25.106
		c-3.655-9.62-12.376-14.565-21.49-18.216c-2.871-1.149-3.757-2.509-3.81-5.332c-0.096-5.153-0.79-10.311-0.634-15.447
		c0.08-2.642-1.724-4.245-2.159-6.479c8.25-22.032,21.025-41.774,31.975-62.422c3.69-6.957,9.639-12.749,14.752-18.91
		c7.445-8.97,14.975-17.873,22.641-26.654c7.684-8.804,17.566-15.156,26.182-22.938c6.55-5.918,13.812-11.043,20.45-16.869
		c4.306-3.778,9.569-5.657,14.458-8.177c17.897-9.225,34.601-20.867,54.252-26.592c11.999-3.496,23.82-7.599,35.737-11.38
		C347.204,19.98,348.085,20.168,348.902,20.158z"/>
	<path fill-rule="evenodd" clip-rule="evenodd" fill="#DDDD00" d="M525.841,622.933c-6.843-4.415-14.065-8.488-19.361-14.754
		c-6.484-7.673-7.234-9.962-2.159-17.855c11.399-17.731,13.355-37.534,11.318-58.015c-0.789-7.941-1.341-15.91-3.463-23.663
		c-0.397-1.451-1.314-3.411,1.934-2.961c25.704,3.558,51.447,0.587,77.179,0.405c26.46-0.187,52.898,0.279,78.774,6.915
		c0.781,0.2,1.514,0.592,2.271,0.894c-4.485,7.505-11.067,13.354-16.122,20.406c-13.013,18.151-31.918,29.854-48.151,44.499
		c-13.179,11.889-29.416,18.151-44.121,27.192C552.002,613.335,539.204,618.779,525.841,622.933z"/>
	<path fill-rule="evenodd" clip-rule="evenodd" fill="#DDDD00" d="M157.551,499.842c15.981-4.555,32.217-7.78,48.718-9.826
		c25.075-3.108,50.009-7.343,75.203-9.507c5.626-0.482,11.282-0.646,16.929-0.869c2.548-0.102,3.602,0.746,2.321,3.525
		c-2.151,4.669-3.856,9.544-6.006,14.214c-8.815,19.161-12.4,39.411-12.916,60.346c-0.294,11.971-0.854,23.944,0.053,35.904
		c0.407,5.379-3.709,7.722-6.654,10.909c-10.514-5.544-21.502-10.364-31.399-16.851c-8.982-5.886-16.806-13.551-25.087-20.495
		c-6.783-5.688-14.037-10.945-20.112-17.317c-12.427-13.036-23.565-27.225-34.771-41.327
		C161.597,505.736,158.562,503.527,157.551,499.842z"/>
	<path fill-rule="evenodd" clip-rule="evenodd" fill="#DDDD00" d="M104.839,324.014c12.615-10.799,24.895-22.012,38.835-31.163
		c2.562-1.682,4.738-1.102,6.697,0.896c5.359,5.466,10.585,11.065,16.032,16.442c5.104,5.04,4.904,10.712,3.788,17.352
		c-6.532,38.857-12.034,77.903-22.174,116.067c-2.26,8.505-4.776,16.941-7.175,25.409c-10.45-14.154-14.657-30.928-19.811-47.299
		c-3.215-10.214-6.75-20.352-9.37-30.719c-1.629-6.447-1.982-13.242-2.618-19.909C107.55,355.407,106.23,339.707,104.839,324.014z"
		/>
	<path fill-rule="evenodd" clip-rule="evenodd" fill="#DDDD00" d="M644.452,104.151c-9.864,2.67-20.013,2.791-30.075,2.648
		c-13.474-0.192-26.845-1.878-40.037-4.827c-4.025-0.899-5.507-3.032-4.678-7.054c5.062-24.56-18.537-45.175-40.887-43.843
		c-6.97,0.415-14.006,0.405-20.974-0.023c-8.888-0.547-18.133-0.785-22.75-10.767c-0.61-1.318-1.972-3.479-3.64-2.712
		c-1.262,0.579-0.299,2.703,0.295,4.043c1,2.257-0.543,2.442-2.088,2.795c-6.072,1.388-11.908,0.276-16.52-3.556
		c-14.38-11.949-30.407-21.184-46.922-29.698c10.712-0.151,21.268,1.43,31.862,2.718c7.99,0.971,16.034,1.56,24.069,2.084
		c6.386,0.417,12.689,1.196,18.805,3.097c16.293,5.063,32.724,9.749,48.798,15.438c11.991,4.243,22.55,11.655,33.806,17.542
		c3.756,1.965,7.284,4.44,11.178,6.055c11.276,4.675,19.86,13.142,29.203,20.475C624.343,86.764,634.289,95.596,644.452,104.151z"/>
	<path fill-rule="evenodd" clip-rule="evenodd" fill="#DDDD00" d="M690.07,487.097c-1.443-7.975,3.706-13.754,6.829-20.167
		c2.312-4.748,3.117-9.318,0.502-14.204c-1.074-2.008-0.563-4.283,0.045-6.328c3.91-13.127,5.156-26.672,6.448-40.212
		c0.274-2.877,1.083-5.577,3.092-7.688c8.246-8.665,16.092-17.662,23.142-27.34c0.209-0.287,0.825-0.277,1.251-0.406
		c-0.314,21.585-9.781,40.94-14.781,61.386c-4.813,19.684-16.517,35.899-25.025,53.716
		C691.317,486.385,690.582,486.687,690.07,487.097z"/>
	<path fill-rule="evenodd" clip-rule="evenodd" fill="#DDDD00" d="M735.831,331.622c-6.545-3.211-13.062-6.477-19.65-9.595
		c-1.704-0.807-2.744-1.596-2.272-3.698c6.466-28.823,3.495-58.221,5.27-87.331c5.31,16.29,11.384,32.255,12.056,49.834
		c0.548,14.316,3.14,28.551,4.696,42.836C736.215,326.284,735.88,328.969,735.831,331.622z"/>
	<path fill-rule="evenodd" clip-rule="evenodd" fill="#FBFBFB" d="M373.961,109.919c30.305,5.217,60-0.059,89.686-5.278
		c18.23-3.205,36.384-3.204,54.496,0.786c3.475,0.766,6.969,0.83,10.292-0.516c4.341-1.757,8.723-1.795,13.201-0.854
		c-3.821,21.894-7.095,43.89-12.145,65.556c-3.089-7.312-7.495-13.725-13.69-18.695c-6.324-5.074-13.43-9.21-21.732-8.774
		c-9.939,0.521-19.344,4.018-28.646,7.428c-1.26,0.462-2.505,1.837-3.097,3.099c-2.875,6.135-6.209,12.17-8.135,18.613
		c-7.834,26.199-2.74,50.829,10.192,74.249c5.043,9.133,19.646,14.565,29.729,11.988c10.076-2.576,16.861-9.474,23.732-16.447
		c-0.085,17.571,0.842,35.243-5.161,52.23c-1.034,0.795-1.955,1.859-3.118,2.344c-24.457,10.18-48.772,11.1-72.854-1.263
		c-4.955-2.544-5.029-3.46-0.667-7.16c4.829-4.095,9.658-8.214,11.409-14.721c0.254-0.942,0.718-1.823,0.153-2.789
		c-0.655,0.488-1.429,0.875-1.947,1.48c-13.915,16.229-31.607,24.12-52.922,24.549c-10.531,0.211-20.878,0.271-30.696-4.464
		c-9.828-4.738-13.722-12.975-14.506-23.229c-0.708-9.256,4.112-15.416,11.524-19.946c6.142-3.754,13.137-5.483,19.84-7.87
		c17.663-6.291,27.881-19.002,32.209-36.894c3.837-15.86-0.976-30.387-8.072-44.018c-8.884-17.063-24.232-21.146-40.904-12.103
		C364.773,134.374,369.114,122.066,373.961,109.919z"/>
	<path fill-rule="evenodd" clip-rule="evenodd" fill="#FBFBFB" d="M482.095,495.75c-25.978-4.624-51.729-10.61-77.91-13.978
		c-22.067-2.838-44.221-5.134-66.486-5.961c-4.639-0.172-9.274-0.433-13.911-0.652c1.39-6.665,2.444-13.422,4.229-19.979
		c5.806-21.329,4.189-43.236,5.345-64.918c0.762-14.295,2.47-28.489,4.113-42.682c0.836-7.219,0.332-14.255-0.429-21.361
		c1.985,0.107,3.994,0.461,5.951,0.277c5.828-0.547,8.397,2.698,10.364,7.644c4.197,10.557,6.911,21.463,8.612,32.642
		c1.774,11.66,2.955,23.427,5.165,35c2.243,11.749,10.798,16.407,22.56,14.244c8.432-1.551,13.054-7.328,17.529-13.492
		c8.823-12.15,12.969-26.398,17.741-40.36c4.042-11.825,8.786-23.222,17.893-32.343c2.868-2.872,5.525-3.772,9.259-2.65
		c3.948,1.186,7.844,2.607,12.12,2.344c12.164-0.75,24.046-2.727,35.301-7.641c-2.819,34.572-4.178,69.266-8.543,103.712
		C488.033,448.98,485.062,472.365,482.095,495.75z M382.081,449.893c22.777,0.576,34.568-7.22,41.23-24.105
		c0.654-1.658,0.976-3.447,1.451-5.177c-2.229,0.424-2.656,2.564-3.68,4.044c-6.69,9.676-13.593,18.728-26.459,20.909
		c-10.316,1.749-19.569-0.478-28.97-4.42c-11.912-4.996-17.325-13.768-17.487-26.312c-0.012-0.921-0.249-1.838-0.381-2.756
		c-1.285,0.497-1.473,1.767-1.605,2.799c-1.035,8.033,1.17,15.318,6.574,21.155C361.844,445.846,373.693,449.595,382.081,449.893z"
		/>
	<path fill-rule="evenodd" clip-rule="evenodd" fill="#090905" d="M499.54,321.884c-11.255,4.914-23.137,6.891-35.301,7.641
		c-4.276,0.264-8.172-1.158-12.12-2.344c-3.733-1.122-6.391-0.222-9.259,2.65c-9.106,9.121-13.851,20.518-17.893,32.343
		c-4.772,13.962-8.918,28.21-17.741,40.36c-4.476,6.164-9.098,11.941-17.529,13.492c-11.762,2.163-20.316-2.495-22.56-14.244
		c-2.21-11.573-3.391-23.34-5.165-35c-1.701-11.179-4.415-22.085-8.612-32.642c-1.967-4.945-4.536-8.19-10.364-7.644
		c-1.957,0.184-3.966-0.17-5.951-0.277c-7.301-1.597-14.438-3.581-21.03-7.305c-13.07-7.384-15.932-19.936-17.099-33.349
		c-0.097-1.108-0.592-3.013,1.195-3.335c1.463-0.264,2.266,1.233,2.933,2.345c7.098,11.839,18.557,16.915,31.181,20.202
		c9.938,2.196,19.443,0.184,28.785-3.094c1.51-0.53,3.26-1.27,3.574-3.051c0.058-0.325-2.067-1.118-3.235-1.563
		c-15.188-5.792-28.604-31.153-13.956-46.486c1.83-1.916,5.187-4.188,4.937-5.861c-0.393-2.626-4.736-1.772-6.894-3.527
		c-1.015-0.825-2.222-1.414-3.341-2.11c-7.929-10.354-11.079-22.211-9.996-35.002c1.907-22.531,10.81-41.794,28.032-56.863
		c16.673-9.044,32.021-4.961,40.905,12.103c7.097,13.631,11.909,28.157,8.072,44.018c-4.328,17.892-14.546,30.603-32.209,36.894
		c-6.703,2.387-13.698,4.116-19.84,7.87c-7.412,4.53-12.232,10.69-11.524,19.946c0.784,10.255,4.678,18.491,14.506,23.229
		c9.818,4.734,20.165,4.675,30.696,4.464c21.314-0.429,39.007-8.32,52.922-24.549c0.519-0.605,1.292-0.992,1.947-1.48
		c0.564,0.966,0.101,1.847-0.153,2.789c-1.751,6.507-6.58,10.626-11.409,14.721c-4.362,3.7-4.288,4.616,0.667,7.16
		c24.082,12.362,48.397,11.442,72.854,1.263c1.163-0.484,2.084-1.549,3.118-2.345c2.277-0.315,3.649-2.163,5.488-3.22
		c0.89-0.511,1.734-1.994,2.9-0.631c0.84,0.981,0.683,2.365-0.217,3.18c-1.496,1.355-2.07,2.986-1.979,4.858
		c0.335,6.983-3.565,11.838-8.336,16.056C507.103,316.584,503.223,319.122,499.54,321.884z M338.847,208.626
		c0,1.497-0.245,3.043,0.039,4.484c2.355,11.953,3.259,24.657,18.799,28.204c4.103,0.937,7.175-0.325,10.441-1.417
		c15.353-5.133,29.062-12.843,36.036-28.344c9.004-20.01,3.01-38.194-8.35-55.304c-1.341-2.018-3.284-4.042-5.426-5.053
		c-10.451-4.937-14.258-7.797-21.891-2.271C348.18,163.632,340.659,184.718,338.847,208.626z M403.092,358.663
		c10.688,0.907,21.536-4.191,27.451-18.118c2.134-5.022,4.883-9.81,8.526-13.988c0.604-0.693,1.03-1.543,1.539-2.32
		c-0.955,0.147-1.985,0.111-2.854,0.469c-17.556,7.206-35.128,5.731-52.553-0.236c-8.563-2.933-16.848-5.965-25.18,0.355
		c-0.471,0.356-1.287,0.261-1.944,0.366c-1.919,0.306-2.499,1.478-1.972,3.226c2.418,8.006,5.073,15.713,12.798,20.608
		C378.273,354.964,388.306,358.349,403.092,358.663z M370.042,395.53c0,0,0.036,0.831,0.082,1.662
		c0.587,10.469,4.438,15.443,12.413,15.567c4.555,0.071,8.776-1.092,12.538-4.047c8.576-6.737,13.796-15.685,17.144-25.777
		c0.942-2.84,4.508-6.347,1.482-8.833c-3.124-2.568-6.948,0.445-10.055,2.084c-6.309,3.328-10.779,8.757-15.113,14.268
		c-0.581,0.737-1.138,2.017-2.193,1.562c-0.399-0.172-0.498-1.971-0.151-2.778c1.106-2.579,2.501-5.033,3.754-7.551
		c0.759-1.524,3.389-2.875,2.192-4.402c-1.332-1.7-3.871-2-6.409-1.528C377.762,377.236,369.858,386.592,370.042,395.53z
		 M401.267,300.343c-9.284-2.033-15.712,1.677-19.697,10.095c-0.551,1.164-1.561,2.167-2.522,3.067
		c-1.866,1.746-2.056,2.733,0.821,3.526c6.395,1.764,12.618,4.305,19.099,5.566c10.964,2.136,22.014,3.275,32.725-1.794
		c2.832-1.341,2.211-1.763,0.121-3.104c-5.323-3.415-11.061-6.781-14.667-11.842C412.854,299.834,408.133,297.746,401.267,300.343z"
		/>
	<path fill-rule="evenodd" clip-rule="evenodd" fill="#FBFBFB" d="M344.095,239.085c1.119,0.696,2.326,1.285,3.341,2.11
		c2.157,1.755,6.501,0.901,6.894,3.527c0.25,1.674-3.106,3.945-4.937,5.861c-14.648,15.333-1.232,40.694,13.956,46.486
		c1.168,0.445,3.293,1.238,3.235,1.563c-0.314,1.781-2.064,2.521-3.574,3.051c-9.342,3.277-18.847,5.29-28.785,3.094
		c-1.287-14.046-2.831-28.061-2.173-42.231c0.262-5.646,0.958-10.711,5.183-14.938C339.798,245.044,341.826,241.944,344.095,239.085
		z"/>
	<path fill-rule="evenodd" clip-rule="evenodd" fill="#FD0000" d="M499.54,321.884c3.683-2.762,7.562-5.3,11-8.339
		c4.771-4.218,8.671-9.072,8.336-16.056c-0.091-1.872,0.483-3.503,1.979-4.858c0.899-0.814,1.057-2.198,0.217-3.18
		c-1.166-1.363-2.011,0.12-2.9,0.631c-1.839,1.057-3.211,2.904-5.488,3.22c6.003-16.986,5.076-34.658,5.161-52.229
		c15.529-21.922,19.559-45.718,11.646-71.46c5.05-21.666,8.323-43.662,12.145-65.556c18.15,0.783,36.115,3.231,53.977,6.377
		c8.861,1.561,17.565-1.276,26.37-0.245c10.677,1.249,21.332,0.493,31.808-1.554c17.309-3.383,34.636-6.64,52.095-9.102
		c7.569-1.067,15.271-1.174,22.857-2.154c4.232-0.547,4.966,0.868,4.18,4.623c-3.063,14.651-5.975,29.335-8.964,44.002
		c-6.979,34.23-9.379,68.833-9.251,103.729c0.08,21.798-1.048,43.594-3.818,65.265c-0.455,3.556-0.817,5.78-5.662,4.857
		c-18.397-3.506-36.918-6.147-55.759-4.992c-2.821,0.173-5.74,0.476-8.478-0.024c-7.492-1.367-13.098,0.919-17.374,7.281
		c-3.923,5.838-3.708,12.163-1.846,18.197c2.282,7.397,4.781,15.289,14.47,16.44c1.645,0.195,3.304,0.304,4.901-0.455
		c10.06-4.781,20.805-5.497,31.688-5.166c6.488,0.197,12.939-1.15,19.453-0.181c3.503,0.521,4.648,1.583,2.855,5.145
		c-2.39,4.745-4.276,9.743-6.396,14.625c-5.327,12.269-13.941,20.492-27.769,21.796c-17.804,1.68-30.562,11.729-42.256,24.186
		c-9.581,10.208-18.723,20.718-27.132,31.91c-4.221,5.618-1.782,10.785,0.392,15.931c1.884,4.459,5.192,6.575,10.562,6.536
		c9.312-0.067,17.294,2.928,21.364,12.514c1.594,3.753,5.677,3.876,9.067,4.15c3.69,0.298,6.34,1.603,8.041,4.915
		c0.431,0.839,1.166,1.968,1.93,2.12c8.779,1.754,17.549,4.052,26.615,2.43c3.553-0.636,6.347-2.729,8.765-5.408
		c1.979-2.19,3.615-4.83,6.678-5.789l-0.06-0.087c1.144,6.508-0.425,12.817-1.395,19.173c-0.691,4.532-2.806,5.778-7.508,4.599
		c-12.21-3.062-24.443-6.087-37.105-6.949c-22.035-1.501-44.058-2.61-66.09-0.384c-6.875,0.226-13.768,0.456-20.66,0.687
		c-23.691,0.729-46.905-3.123-70.086-7.304c2.968-23.385,5.938-46.77,8.902-70.154C495.362,391.149,496.721,356.456,499.54,321.884z
		"/>
	<path fill-rule="evenodd" clip-rule="evenodd" fill="#FBFBFB" d="M640.829,317.794c9.282,0.991,18.726,0.307,27.891,1.32
		c20.46,2.264,41.567,2.244,60.307,12.882c4.108,2.333,7.823,5.107,10.626,8.904c2.126,2.883,2.458,5.954,0.221,9.123
		c-16.064,22.753-32.871,44.859-54.472,62.805c-2.549,2.117-4.137,4.059-0.368,6.562c1.475,0.979,0.775,2.778,0.755,4.192
		c-0.302,20.658-4.718,40.198-15.762,57.958c-0.736,1.185-3.041,2.752-1.145,4.091c1.326,0.937,2.279-1.449,3.161-2.489
		c6.086-7.174,10.979-15.069,13.166-24.314c0.914-3.861,3.057-5.695,6.672-4.681c3.849,1.081,3.682,4.589,2.493,7.398
		c-5.614,13.272-13.845,24.546-26.509,31.928c-4.725,2.755-21.605-1.305-25.33-5.953c-2.504-3.127-5.294-4.781-9.312-4.747
		c-4.521,0.039-7.706-1.967-9.907-6.193c-2.366-4.544-5.395-8.199-11.396-9.128c-5.311-0.821-8.168-5.909-11.183-10.113
		c-0.663-0.926-0.462-3.137-2.45-2.165c-1.284,0.628-1.503,2.284-0.945,3.566c0.715,1.648,1.801,3.135,2.682,4.715
		c0.473,0.849,2.444,1.255,1.233,2.547c-0.866,0.924-2.201,0.09-3.207-0.489c-4.574-2.632-6.298-9.55-3.03-13.896
		c12.12-16.126,25.34-31.316,40.311-44.86c5.154-4.663,11.941-6.741,18.727-7.514c5.492-0.625,10.537-5.31,16.526-2.01
		c0.299,0.165,1.208-0.857,1.873-1.265c10.957-6.71,17.87-16.577,22.649-28.301c3.313-8.129,6.48-16.385,11.87-23.495
		c0.456-0.602,1.061-1.717,0.817-2.103c-0.646-1.024-1.858-0.441-2.698-0.117c-1.212,0.467-2.917,1.006-3.326,1.974
		c-1.863,4.4-5.245,3.529-8.735,3.11c-18.098-2.176-35.833,0.192-53.361,4.587c-3.224,0.808-5.858,0.206-8.438-1.654
		c-10.942-7.895-10.724-24.275,0.38-31.96c1.591-1.102,3.103-0.793,4.738-0.599C637.839,317.587,639.337,317.67,640.829,317.794z"/>
	<path fill-rule="evenodd" clip-rule="evenodd" fill="#FBFBFB" d="M48.919,342.986c-1.329,0-2.66,0.035-3.988-0.007
		c-3.487-0.11-5.415-2.443-6.648-5.235c-1.395-3.156,1.432-4.518,3.359-5.845c5.124-3.526,11.112-5.02,16.929-7.02
		c9.977-3.43,20.735-5.036,29.395-11.759c2.079-1.613,3.996-3.414,4.944-5.987c-3.282-0.923-5.503,1.247-7.387,3.128
		c-4.582,4.572-10.706,5.063-16.354,6.67c-10.53,2.995-21.206,5.322-30.782,11.139c-6.471,3.931-18.358-1.638-20.234-9.068
		c-0.793-3.14,1.135-5.49,3.427-7.232c2.507-1.905,5.406-3.01,8.523-3.896c16.399-4.662,33.398-7.566,48.56-15.964
		c2.711-1.502,5.821-2.645,7.208-5.821c0.353-0.81,1.355-1.633,0.159-2.562c-0.83-0.645-1.539-0.251-2.218,0.266
		c-16.143,12.287-36.345,12.98-54.631,19.146c-2.198,0.741-4.393,1.519-6.512,2.456c-6.076,2.686-7.174,2.196-10.081-4.771
		c-2.484-5.954-1.236-9.992,3.986-11.716c9.97-3.29,20.379-4.721,30.613-6.895c12.047-2.559,23.145-7.135,32.564-15.281
		c0.729-0.632,2.01-1.288,1.504-2.322c-0.566-1.156-1.662-0.451-2.491,0.111c-14.962,10.149-32.433,12.195-49.56,15.357
		c-1.467,0.271-2.903,0.792-4.378,0.924c-2.568,0.231-5.774,3.104-7.157-1.918c-1.154-4.19-1.535-7.934,2.866-10.436
		c6.081-3.457,12.959-4.01,19.644-5.213c17.24-3.103,33.124-9.632,47.843-19.016c8.65-5.514,10.337-12.318,5.672-21.42
		c-3.769-7.354-8.937-13.524-15.15-18.982c-5.146-4.521-5.7-11.087-5.772-17.328c-0.047-4.027,6.473-7.027,8.774-4.193
		c9.161,11.285,22.301,17.198,33.545,25.646c2.792,2.099,4.148,4.455,4.762,8.119c1.23,7.341,3.791,14.447,5.35,21.748
		c0.968,4.535,0.163,8.371,7.667,8.855c7.488,0.482,12.795,6.657,16.404,14.279c2.449,5.172,1.937,9.89,2.208,14.911
		c0.117,2.178-0.912,3.765-2.178,5.384c-3.539,4.523-8.139,7.846-12.621,11.286c-17.098,13.125-32.539,28.379-51.471,39.165
		C74.499,337.794,61.375,342.352,48.919,342.986z"/>
	<path fill-rule="evenodd" clip-rule="evenodd" fill="#005B99" d="M396.981,11.745c13.25-1.546,27.716,8.932,42.738,17.727
		c4.872,2.853,9.913,5.701,14.059,9.455c10.829,9.805,24.354,10.604,37.691,13.365c15.584,3.227,31.325,2.799,46.892,4.781
		c18.522,2.358,31.114,21.235,27.161,39.239c-0.65,2.963-1.576,4.142-4.852,3.854c-29.083-2.554-58.235-1.234-87.351-1.011
		c-15.443,0.119-30.686,3.477-46.018,5.378c-18.883,2.342-37.736,3.038-56.545-0.609c-4.78-0.928-7.427-4.946-10.609-7.955
		c-11.189-10.576-20.52-22.354-21.593-38.617c-0.864-13.096,3.084-24.571,13.66-32.563
		C363.635,16.159,376.932,12.098,396.981,11.745z M429.025,62.037c-4.402-0.512-8.539,1.029-12.795,1.65
		c-1.116,0.163-2.567,0.688-2.856-0.941c-0.203-1.141,1.059-1.509,2.017-1.768c0.963-0.261,1.944-0.458,2.925-0.646
		c2.226-0.427,6.053-0.223,5.814-2.47c-0.252-2.371-3.872-0.373-5.933-0.905c-0.686-0.177-1.794,0.575-1.944-0.562
		c-0.044-0.333,1.174-1.007,1.904-1.237c3.326-1.05,6.688-1.989,10.03-2.988c0.599-0.179,1.692-0.583,1.673-0.661
		c-0.275-1.098-1.251-0.604-1.897-0.601c-7.881,0.043-15.407,2.433-23.132,3.522c-1.309,0.185-3.428,1.274-3.812-0.261
		c-0.36-1.438,1.928-1.955,3.299-2.43c3.447-1.193,6.941-2.249,10.39-3.438c0.481-0.166,0.812-0.77,1.211-1.17
		c-0.486-0.079-0.99-0.282-1.457-0.218c-3.616,0.502-7.226,1.061-10.839,1.587c-0.801,0.117-1.887,0.411-2.164-0.512
		c-0.178-0.592,0.419-1.473,0.788-2.16c1.51-2.812,4.589-1.307,6.732-2.399c0.865-0.442,2.103-0.756,1.667-2.008
		c-0.125-0.357-1.482-0.438-2.253-0.376c-0.809,0.065-1.576,0.585-2.388,0.675c-1.396,0.154-3.189,0.994-3.913-0.923
		c-0.679-1.797,0.352-3.187,1.89-4.176c2.216-1.424,5.666-0.147,7.11-3.254c-3.04-0.908-6.138,0.071-8.816,0.842
		c-7.645,2.2-15.978-0.994-23.275,3.298c-1.028,0.604-3.024,1.893-3.476,0.743c-0.601-1.532,1.697-2.136,2.899-2.784
		c4.887-2.638,10.417-3.329,15.647-4.942c0.707-0.219,1.303-0.801,1.95-1.214c-0.753-0.146-1.507-0.421-2.259-0.416
		c-2.998,0.021-5.994,0.169-8.991,0.177c-0.914,0.003-2.302,0.286-2.449-1.005c-0.139-1.214,1.267-1.372,2.131-1.653
		c3.162-1.027,6.414-1.798,9.524-2.955c1.4-0.521,3.938-0.741,3.543-2.744c-0.424-2.144-2.839-1.849-4.652-1.753
		c-2.296,0.121-4.822,1.075-6.838,0.416c-13.859-4.531-24.343,1.43-33.676,10.621c-7.258,7.147-11.368,15.652-8.166,26.088
		c2.76,8.995,7.043,17.069,12.578,24.935c7.306,10.38,17.195,15.469,28.602,17.86c13.111,2.748,26.794,3.118,39.73-0.156
		c10.636-2.691,21.515-1.548,32.059-4.545c15.163-4.31,31.102-2.041,46.589-4.035c1.703-0.219,3.486,0.108,4.722,1.238
		c1.944,1.78,4.162,1.788,6.515,1.755c7.829-0.11,15.66-0.252,23.49-0.224c4.27,0.016,8.416,1.654,12.756,1.131
		c1.044-0.126,2.073-0.337,2.246-1.487c0.052-0.346-0.813-1.187-1.274-1.199c-7.978-0.219-14.481-6.465-22.745-5.521
		c-1.636,0.188-3.98,0.24-4.409-1.471c-0.924-3.693-3.564-3.395-6.211-3.489c-3.631-0.131-7.81,1.656-10.003-3.249
		c-0.458-1.025-1.78-0.097-2.721,0.104c-1.78,0.382-3.641,1.084-5.374,0.876c-11.325-1.355-22.609-2.748-33.738,1.277
		c-0.796,0.288-2.221,0.088-2.792-0.466c-2.336-2.265-4.811-1.753-7.441-0.875c-0.772,0.258-2.237,0.578-2.354,0.348
		c-3.264-6.434-8.925-1.506-13.231-2.829c-1.037-0.318-2.898,0.267-2.864-1.2c0.144-6.154-3.743-2.571-5.996-2.544
		c-2.133,0.026-5.228,0.622-5.706-1.323c-0.497-2.021,2.663-1.515,4.231-2.101c0.783-0.293,1.725-0.648,1.523-1.601
		c-0.055-0.26-1.46-0.367-2.23-0.319c-2.806,0.176-5.559,1.252-8.405,0.555c-0.706-0.174-1.328-0.691-1.988-1.051
		c0.551-0.346,1.075-0.748,1.658-1.029c2.499-1.203,5.562-1.182,7.554-3.488c0.445-0.115,0.89-0.229,1.335-0.344
		c-0.107-0.111-0.29-0.332-0.311-0.318C429.65,61.528,429.34,61.786,429.025,62.037z"/>
	<path fill-rule="evenodd" clip-rule="evenodd" fill="#FBFBFB" d="M511.339,546.125c2.208,17.029-6.271,34.292-15.652,51.358
		c-0.61,1.11-6.059,5.497,1.473,5.054c0.399-0.023,0.92,0.885,1.277,1.43c6.445,9.818,15.599,16.819,25.002,23.404
		c13.788,9.654,22.988,23.424,33.457,36.08c1.868,2.259,1.824,3.525-1.159,5.006c-9.17,4.553-18.491,3.702-27.719,0.96
		c-16.709-4.965-31.533-13.172-42.938-26.744c-0.843-1.003-1.683-2.082-2.208-3.266c-1.972-4.44-9.522-9.439-14.435-9.417
		c-9.93,0.044-10.634-1.033-7.796-10.765c1.236-4.239,3.035-8.231,5.937-11.4c10.322-11.276,14.028-24.602,14.593-39.646
		c0.842-22.426-1.803-44.161-9.782-65.139c-1.474-3.872-0.374-4.593,3.09-4.018c9.837,1.635,19.666,3.317,29.503,4.951
		c2.09,0.347,2.354,2.204,3.011,3.619C512.22,518.84,512.453,530.751,511.339,546.125z"/>
	<path fill-rule="evenodd" clip-rule="evenodd" fill="#FBFBFB" d="M324.366,479.847c4.656,0,9.312-0.023,13.969,0.024
		c0.742,0.008,1.913-0.453,2.11,0.6c0.1,0.532-0.713,1.323-1.242,1.873c-14.583,15.148-24.828,32.86-30.367,53.091
		c-6.752,24.664-7.512,48.61,10.28,69.815c3.526,4.203,1.2,9.965-4.722,11.326c-6.272,1.441-9.949,4.91-12.531,10.752
		c-13.877,31.396-41.653,43.79-70.945,41.702c-4.586-0.327-5.569-1.291-3.007-5.771c7.995-13.983,19.67-24.621,31.124-35.483
		c7.484-7.098,14.835-14.297,21.882-21.848c3.994-4.279,5.526-8.789,5.304-14.383c-0.732-18.446-1.275-36.912,1.69-55.229
		c2.961-18.289,7.878-35.977,16.598-52.496c1.636-3.101,3.515-4.425,6.868-4.327c4.326,0.127,8.66,0.031,12.99,0.031
		C324.367,479.631,324.366,479.739,324.366,479.847z"/>
	<path fill-rule="evenodd" clip-rule="evenodd" fill="#FBFBFB" d="M222.178,331.022c0.899,10.665-6.648,23.196-14.578,25.321
		c-2.152,0.577-4.094,1.155-5.342-1.689c-11.05-25.199-29.427-44.862-48.682-63.792c-3.128-3.075-4.451-5.153-0.66-8.572
		c2.117-1.908,2.272-5.063,2.958-7.788c0.178-0.706,0.448-1.389,0.676-2.083c0.46,0.435,1.002,0.809,1.369,1.311
		c12.611,17.253,30.01,28.397,48.569,38.046c3.998,2.079,7.71,4.547,11.104,7.492C221.475,322.636,222.022,327.258,222.178,331.022z
		"/>
	<path fill-rule="evenodd" clip-rule="evenodd" fill="#FD0000" d="M689.162,441.366c1.396-6.797,0.346-14.747,0.035-22.698
		c-0.096-2.436,7.313-10.904,9.569-11.054c1.639-0.108,0.806,1.017,0.751,1.598c-1.16,12.408-3.659,24.605-5.83,36.855
		c-0.33,1.861-1.049,3.198-3.188,2.945c-2.57-0.304-1.082-2.278-1.303-3.507C689.023,444.539,689.162,443.517,689.162,441.366z"/>
	<path fill-rule="evenodd" clip-rule="evenodd" fill="#DDDD00" d="M552.181,503.054c6.893-0.23,13.785-0.461,20.66-0.687
		C565.937,502.405,559.112,504.368,552.181,503.054z"/>
	<path fill-rule="evenodd" clip-rule="evenodd" fill="#FD0000" d="M684.998,486.016c0.081-0.105,0.15-0.227,0.251-0.309
		c0.042-0.034,0.151,0.015,0.229,0.025c-0.18,0.066-0.359,0.132-0.54,0.197C684.938,485.929,684.998,486.016,684.998,486.016z"/>
	<path fill-rule="evenodd" clip-rule="evenodd" fill="#090905" d="M529.491,169.612c7.912,25.742,3.883,49.538-11.646,71.46
		c-6.871,6.974-13.656,13.871-23.732,16.447c-10.082,2.577-24.686-2.855-29.729-11.988c-12.933-23.42-18.026-48.05-10.192-74.249
		c1.926-6.443,5.26-12.479,8.135-18.613c0.592-1.262,1.837-2.637,3.097-3.099c9.302-3.41,18.706-6.907,28.646-7.428
		c8.303-0.436,15.408,3.7,21.732,8.774C521.996,155.888,526.402,162.3,529.491,169.612z M529.213,195.794
		c-0.297-14.146-3.374-26.781-12.393-37.543c-10.119-12.076-35.592-14.714-47.858-4.739c-0.881,0.717-1.488,1.774-2.201,2.69
		c-20.406,26.228-13.119,62.849,0.028,85.671c7.429,12.895,20.228,15.695,32.194,8.145
		C518.856,237.479,527.993,218.436,529.213,195.794z"/>
	<path fill-rule="evenodd" clip-rule="evenodd" fill="#090905" d="M382.081,449.893c-8.388-0.298-20.237-4.047-29.326-13.863
		c-5.404-5.837-7.609-13.122-6.574-21.155c0.133-1.032,0.32-2.302,1.605-2.799c0.132,0.918,0.369,1.835,0.381,2.756
		c0.162,12.545,5.575,21.316,17.487,26.312c9.4,3.942,18.653,6.169,28.97,4.42c12.866-2.182,19.769-11.233,26.459-20.909
		c1.023-1.479,1.45-3.62,3.68-4.044c-0.476,1.729-0.797,3.519-1.451,5.177C416.649,442.673,404.858,450.469,382.081,449.893z"/>
	<path fill-rule="evenodd" clip-rule="evenodd" fill="#FBFBFB" d="M338.847,208.626c1.812-23.908,9.333-44.994,29.649-59.7
		c7.633-5.525,11.439-2.665,21.891,2.271c2.142,1.011,4.085,3.035,5.426,5.053c11.359,17.109,17.354,35.294,8.35,55.304
		c-6.975,15.501-20.684,23.211-36.036,28.344c-3.267,1.092-6.339,2.354-10.441,1.417c-15.54-3.547-16.443-16.251-18.799-28.204
		C338.602,211.669,338.847,210.123,338.847,208.626z M388.516,191.729c0.78-5.222-2.943-8.343-7.037-11.057
		c-2.614-1.734-5.178-0.389-7.362,1.193c-6.98,5.058-8.929,18.39-3.821,25.243c1.749,2.347,3.784,3.346,6.836,2.646
		C384.629,208.032,388.572,202.133,388.516,191.729z"/>
	<path fill-rule="evenodd" clip-rule="evenodd" fill="#FBFBFB" d="M403.092,358.663c-14.786-0.314-24.818-3.699-34.188-9.639
		c-7.725-4.896-10.38-12.603-12.798-20.608c-0.527-1.748,0.053-2.92,1.972-3.226c0.657-0.105,1.474-0.01,1.944-0.366
		c8.332-6.32,16.616-3.288,25.18-0.355c17.425,5.968,34.997,7.442,52.553,0.236c0.869-0.357,1.899-0.321,2.854-0.469
		c-0.509,0.777-0.935,1.627-1.539,2.32c-3.644,4.179-6.393,8.966-8.526,13.988C424.628,354.472,413.78,359.57,403.092,358.663z"/>
	<path fill-rule="evenodd" clip-rule="evenodd" fill="#FD0000" d="M370.042,395.53c-0.184-8.938,7.72-18.294,15.684-19.773
		c2.538-0.472,5.077-0.172,6.409,1.528c1.196,1.527-1.434,2.878-2.192,4.402c-1.253,2.518-2.647,4.972-3.754,7.551
		c-0.347,0.808-0.248,2.606,0.151,2.778c1.056,0.454,1.612-0.825,2.193-1.562c4.334-5.511,8.805-10.939,15.113-14.268
		c3.106-1.639,6.931-4.652,10.055-2.084c3.025,2.486-0.54,5.993-1.482,8.833c-3.348,10.093-8.567,19.04-17.144,25.777
		c-3.762,2.955-7.983,4.118-12.538,4.047c-7.975-0.124-11.826-5.099-12.413-15.567C370.078,396.361,370.042,395.53,370.042,395.53z"
		/>
	<path fill-rule="evenodd" clip-rule="evenodd" fill="#FBFBFB" d="M401.267,300.343c6.866-2.597,11.587-0.509,15.879,5.516
		c3.606,5.061,9.344,8.427,14.667,11.842c2.09,1.341,2.711,1.763-0.121,3.104c-10.711,5.069-21.761,3.93-32.725,1.794
		c-6.48-1.262-12.704-3.803-19.099-5.566c-2.877-0.793-2.688-1.78-0.821-3.526c0.962-0.9,1.972-1.903,2.522-3.067
		C385.555,302.02,391.982,298.31,401.267,300.343z"/>
	<path fill-rule="evenodd" clip-rule="evenodd" fill="#090905" d="M428.957,61.962c-1.991,2.308-5.055,2.286-7.554,3.489
		c-0.583,0.281-1.107,0.684-1.658,1.029c0.66,0.359,1.282,0.877,1.988,1.051c2.847,0.697,5.6-0.379,8.405-0.555
		c0.771-0.048,2.176,0.06,2.23,0.319c0.201,0.952-0.74,1.308-1.523,1.601c-1.568,0.586-4.729,0.08-4.231,2.101
		c0.479,1.945,3.573,1.35,5.706,1.323c2.253-0.027,6.14-3.61,5.996,2.544c-0.034,1.467,1.827,0.882,2.864,1.2
		c4.307,1.323,9.968-3.604,13.231,2.829c0.117,0.23,1.582-0.09,2.354-0.348c2.631-0.878,5.105-1.39,7.441,0.875
		c0.571,0.554,1.996,0.754,2.792,0.466c11.129-4.025,22.413-2.633,33.738-1.277c1.733,0.208,3.594-0.494,5.374-0.876
		c0.94-0.201,2.263-1.13,2.721-0.104c2.193,4.905,6.372,3.118,10.003,3.249c2.646,0.095,5.287-0.204,6.211,3.489
		c0.429,1.711,2.773,1.658,4.409,1.471c8.264-0.943,14.768,5.303,22.745,5.521c0.461,0.013,1.326,0.854,1.274,1.199
		c-0.173,1.15-1.202,1.361-2.246,1.487c-4.34,0.523-8.486-1.115-12.756-1.131c-7.83-0.028-15.661,0.113-23.49,0.224
		c-2.353,0.033-4.57,0.025-6.515-1.755c-1.235-1.13-3.019-1.457-4.722-1.238c-15.487,1.994-31.426-0.274-46.589,4.035
		c-10.544,2.997-21.423,1.854-32.059,4.545c-12.937,3.274-26.619,2.904-39.73,0.156c-11.406-2.392-21.296-7.48-28.602-17.86
		c-5.535-7.865-9.818-15.939-12.578-24.935c-3.202-10.436,0.908-18.94,8.166-26.088c9.333-9.191,19.816-15.152,33.676-10.621
		c2.016,0.659,4.542-0.295,6.838-0.416c1.813-0.096,4.229-0.391,4.652,1.753c0.395,2.003-2.143,2.223-3.543,2.744
		c-3.11,1.157-6.362,1.928-9.524,2.955c-0.864,0.281-2.27,0.439-2.131,1.653c0.147,1.291,1.535,1.008,2.449,1.005
		c2.997-0.008,5.993-0.156,8.991-0.177c0.752-0.005,1.506,0.27,2.259,0.416c-0.647,0.413-1.243,0.995-1.95,1.214
		c-5.23,1.613-10.761,2.305-15.647,4.942c-1.202,0.648-3.5,1.252-2.899,2.784c0.451,1.149,2.447-0.139,3.476-0.743
		c7.298-4.292,15.631-1.098,23.275-3.298c2.679-0.771,5.776-1.75,8.816-0.842c-1.444,3.106-4.895,1.83-7.11,3.254
		c-1.538,0.989-2.568,2.379-1.89,4.176c0.724,1.917,2.517,1.077,3.913,0.923c0.812-0.09,1.579-0.609,2.388-0.675
		c0.771-0.062,2.128,0.019,2.253,0.376c0.436,1.252-0.802,1.565-1.667,2.008c-2.144,1.093-5.223-0.413-6.732,2.399
		c-0.369,0.688-0.966,1.568-0.788,2.16c0.277,0.923,1.363,0.629,2.164,0.512c3.613-0.526,7.223-1.085,10.839-1.587
		c0.467-0.064,0.971,0.139,1.457,0.218c-0.399,0.4-0.729,1.004-1.211,1.17c-3.448,1.188-6.942,2.244-10.39,3.438
		c-1.371,0.475-3.659,0.991-3.299,2.43c0.384,1.535,2.503,0.445,3.812,0.261c7.725-1.09,15.251-3.479,23.132-3.522
		c0.646-0.004,1.622-0.497,1.897,0.601c0.02,0.078-1.074,0.482-1.673,0.661c-3.343,0.999-6.704,1.938-10.03,2.988
		c-0.73,0.23-1.948,0.904-1.904,1.237c0.15,1.138,1.259,0.386,1.944,0.562c2.061,0.532,5.681-1.466,5.933,0.905
		c0.238,2.247-3.589,2.043-5.814,2.47c-0.98,0.188-1.962,0.385-2.925,0.646c-0.958,0.259-2.22,0.627-2.017,1.768
		c0.289,1.63,1.74,1.104,2.856,0.941c4.256-0.621,8.393-2.162,12.795-1.65L428.957,61.962z"/>
	<path fill-rule="evenodd" clip-rule="evenodd" fill="#090905" d="M429.025,62.037c0.314-0.251,0.625-0.509,0.956-0.736
		c0.021-0.014,0.203,0.207,0.311,0.318c-0.445,0.114-0.89,0.229-1.335,0.343L429.025,62.037z"/>
	<path fill-rule="evenodd" clip-rule="evenodd" fill="#FBFBFB" d="M529.213,195.794c-1.22,22.642-10.356,41.686-30.229,54.224
		c-11.967,7.551-24.766,4.75-32.194-8.145c-13.147-22.822-20.435-59.443-0.028-85.671c0.713-0.916,1.32-1.974,2.201-2.69
		c12.267-9.975,37.739-7.337,47.858,4.739C525.839,169.013,528.916,181.647,529.213,195.794z M479.841,200.312
		c-0.126,4.057,0.656,7.936,2.089,11.684c1.466,3.84,4.407,7.08,8.249,6.936c4.02-0.151,8.543-1.483,10.318-6.317
		c2.973-8.091,4.271-15.829-2.562-22.987c-2.766-2.897-5.466-4.882-9.452-3.723c-4.041,1.174-7.009,3.769-8.01,8
		C479.984,195.974,480.035,198.172,479.841,200.312z"/>
	<path fill-rule="evenodd" clip-rule="evenodd" fill="#090905" d="M388.516,191.729c0.057,10.403-3.887,16.303-11.385,18.025
		c-3.052,0.7-5.087-0.299-6.836-2.646c-5.107-6.854-3.159-20.186,3.821-25.243c2.185-1.582,4.748-2.928,7.362-1.193
		C385.572,183.387,389.296,186.508,388.516,191.729z M377.815,196.224c0.341,0.985-0.417,3.083,0.943,2.759
		c2.422-0.579,3.91-2.681,4.388-5.284c0.251-1.366-0.51-1.726-1.632-1.727C378.647,191.968,378.121,193.996,377.815,196.224z"/>
	<path fill-rule="evenodd" clip-rule="evenodd" fill="#090905" d="M479.841,200.312c0.194-2.14,0.144-4.338,0.633-6.408
		c1.001-4.231,3.969-6.826,8.01-8c3.986-1.159,6.687,0.825,9.452,3.723c6.832,7.158,5.534,14.896,2.562,22.987
		c-1.775,4.834-6.299,6.166-10.318,6.317c-3.842,0.145-6.783-3.096-8.249-6.936C480.497,208.247,479.715,204.368,479.841,200.312z
		 M493.523,200.282c-0.333-1.017-0.686-2.094-1.038-3.171c-2.007,1.401-2.167,3.584-2.361,5.721
		c-0.089,0.968-0.057,2.402,1.264,2.117C493.844,204.419,492.701,201.927,493.523,200.282z"/>
	<path fill-rule="evenodd" clip-rule="evenodd" fill="#FBFBFB" d="M377.815,196.224c0.306-2.228,0.832-4.256,3.699-4.252
		c1.122,0.001,1.883,0.36,1.632,1.727c-0.478,2.604-1.966,4.705-4.388,5.284C377.398,199.307,378.156,197.209,377.815,196.224z"/>
	<path fill-rule="evenodd" clip-rule="evenodd" fill="#FBFBFB" d="M493.523,200.282c-0.822,1.645,0.32,4.137-2.136,4.667
		c-1.32,0.285-1.353-1.149-1.264-2.117c0.194-2.137,0.354-4.319,2.361-5.721C492.838,198.188,493.19,199.266,493.523,200.282z"/>
</g>
</svg>
