<?xml version="1.0" encoding="utf-8" standalone="no"?>
<!DOCTYPE svg PUBLIC "-//W3C//DTD SVG 1.1//EN"
  "http://www.w3.org/Graphics/SVG/1.1/DTD/svg11.dtd">
<!-- Created with matplotlib (http://matplotlib.org/) -->
<svg height="288pt" version="1.1" viewBox="0 0 432 288" width="432pt" xmlns="http://www.w3.org/2000/svg" xmlns:xlink="http://www.w3.org/1999/xlink">
 <defs>
  <style type="text/css">
*{stroke-linecap:butt;stroke-linejoin:round;}
  </style>
 </defs>
 <g id="figure_1">
  <g id="patch_1">
   <path d="M 0 288 
L 432 288 
L 432 0 
L 0 0 
z
" style="fill:none;"/>
  </g>
  <g id="axes_1">
   <g id="patch_2">
    <path d="M 64.8 244.8 
L 419.04 244.8 
L 419.04 43.2 
L 64.8 43.2 
z
" style="fill:none;"/>
   </g>
   <g id="matplotlib.axis_1">
    <g id="xtick_1">
     <g id="line2d_1">
      <defs>
       <path d="M 0 0 
L 0 4 
" id="m35a5bac4e0" style="stroke:#d2d2d2;"/>
      </defs>
      <g>
       <use style="fill:#d2d2d2;stroke:#d2d2d2;" x="64.8" xlink:href="#m35a5bac4e0" y="244.8"/>
      </g>
     </g>
     <g id="text_1">
      <!-- 0 -->
      <defs>
       <path d="M 31.78125 66.40625 
Q 24.171875 66.40625 20.328125 58.90625 
Q 16.5 51.421875 16.5 36.375 
Q 16.5 21.390625 20.328125 13.890625 
Q 24.171875 6.390625 31.78125 6.390625 
Q 39.453125 6.390625 43.28125 13.890625 
Q 47.125 21.390625 47.125 36.375 
Q 47.125 51.421875 43.28125 58.90625 
Q 39.453125 66.40625 31.78125 66.40625 
M 31.78125 74.21875 
Q 44.046875 74.21875 50.515625 64.515625 
Q 56.984375 54.828125 56.984375 36.375 
Q 56.984375 17.96875 50.515625 8.265625 
Q 44.046875 -1.421875 31.78125 -1.421875 
Q 19.53125 -1.421875 13.0625 8.265625 
Q 6.59375 17.96875 6.59375 36.375 
Q 6.59375 54.828125 13.0625 64.515625 
Q 19.53125 74.21875 31.78125 74.21875 
" id="DejaVuSans-30"/>
      </defs>
      <g style="fill:#d2d2d2;" transform="translate(60.664375 262.677969)scale(0.13 -0.13)">
       <use xlink:href="#DejaVuSans-30"/>
      </g>
     </g>
    </g>
    <g id="xtick_2">
     <g id="line2d_2">
      <g>
       <use style="fill:#d2d2d2;stroke:#d2d2d2;" x="138.6" xlink:href="#m35a5bac4e0" y="244.8"/>
      </g>
     </g>
     <g id="text_2">
      <!-- 5 -->
      <defs>
       <path d="M 10.796875 72.90625 
L 49.515625 72.90625 
L 49.515625 64.59375 
L 19.828125 64.59375 
L 19.828125 46.734375 
Q 21.96875 47.46875 24.109375 47.828125 
Q 26.265625 48.1875 28.421875 48.1875 
Q 40.625 48.1875 47.75 41.5 
Q 54.890625 34.8125 54.890625 23.390625 
Q 54.890625 11.625 47.5625 5.09375 
Q 40.234375 -1.421875 26.90625 -1.421875 
Q 22.3125 -1.421875 17.546875 -0.640625 
Q 12.796875 0.140625 7.71875 1.703125 
L 7.71875 11.625 
Q 12.109375 9.234375 16.796875 8.0625 
Q 21.484375 6.890625 26.703125 6.890625 
Q 35.15625 6.890625 40.078125 11.328125 
Q 45.015625 15.765625 45.015625 23.390625 
Q 45.015625 31 40.078125 35.4375 
Q 35.15625 39.890625 26.703125 39.890625 
Q 22.75 39.890625 18.8125 39.015625 
Q 14.890625 38.140625 10.796875 36.28125 
z
" id="DejaVuSans-35"/>
      </defs>
      <g style="fill:#d2d2d2;" transform="translate(134.464375 262.677969)scale(0.13 -0.13)">
       <use xlink:href="#DejaVuSans-35"/>
      </g>
     </g>
    </g>
    <g id="xtick_3">
     <g id="line2d_3">
      <g>
       <use style="fill:#d2d2d2;stroke:#d2d2d2;" x="212.4" xlink:href="#m35a5bac4e0" y="244.8"/>
      </g>
     </g>
     <g id="text_3">
      <!-- 10 -->
      <defs>
       <path d="M 12.40625 8.296875 
L 28.515625 8.296875 
L 28.515625 63.921875 
L 10.984375 60.40625 
L 10.984375 69.390625 
L 28.421875 72.90625 
L 38.28125 72.90625 
L 38.28125 8.296875 
L 54.390625 8.296875 
L 54.390625 0 
L 12.40625 0 
z
" id="DejaVuSans-31"/>
      </defs>
      <g style="fill:#d2d2d2;" transform="translate(204.12875 262.677969)scale(0.13 -0.13)">
       <use xlink:href="#DejaVuSans-31"/>
       <use x="63.623047" xlink:href="#DejaVuSans-30"/>
      </g>
     </g>
    </g>
    <g id="xtick_4">
     <g id="line2d_4">
      <g>
       <use style="fill:#d2d2d2;stroke:#d2d2d2;" x="286.2" xlink:href="#m35a5bac4e0" y="244.8"/>
      </g>
     </g>
     <g id="text_4">
      <!-- 15 -->
      <g style="fill:#d2d2d2;" transform="translate(277.92875 262.677969)scale(0.13 -0.13)">
       <use xlink:href="#DejaVuSans-31"/>
       <use x="63.623047" xlink:href="#DejaVuSans-35"/>
      </g>
     </g>
    </g>
    <g id="xtick_5">
     <g id="line2d_5">
      <g>
       <use style="fill:#d2d2d2;stroke:#d2d2d2;" x="360" xlink:href="#m35a5bac4e0" y="244.8"/>
      </g>
     </g>
     <g id="text_5">
      <!-- 20 -->
      <defs>
       <path d="M 19.1875 8.296875 
L 53.609375 8.296875 
L 53.609375 0 
L 7.328125 0 
L 7.328125 8.296875 
Q 12.9375 14.109375 22.625 23.890625 
Q 32.328125 33.6875 34.8125 36.53125 
Q 39.546875 41.84375 41.421875 45.53125 
Q 43.3125 49.21875 43.3125 52.78125 
Q 43.3125 58.59375 39.234375 62.25 
Q 35.15625 65.921875 28.609375 65.921875 
Q 23.96875 65.921875 18.8125 64.3125 
Q 13.671875 62.703125 7.8125 59.421875 
L 7.8125 69.390625 
Q 13.765625 71.78125 18.9375 73 
Q 24.125 74.21875 28.421875 74.21875 
Q 39.75 74.21875 46.484375 68.546875 
Q 53.21875 62.890625 53.21875 53.421875 
Q 53.21875 48.921875 51.53125 44.890625 
Q 49.859375 40.875 45.40625 35.40625 
Q 44.1875 33.984375 37.640625 27.21875 
Q 31.109375 20.453125 19.1875 8.296875 
" id="DejaVuSans-32"/>
      </defs>
      <g style="fill:#d2d2d2;" transform="translate(351.72875 262.677969)scale(0.13 -0.13)">
       <use xlink:href="#DejaVuSans-32"/>
       <use x="63.623047" xlink:href="#DejaVuSans-30"/>
      </g>
     </g>
    </g>
    <g id="text_6">
     <!-- $\chi^2$ -->
     <defs>
      <path d="M 30.03125 -12.203125 
L 26.421875 6.5 
L 6.15625 -20.84375 
L -4.4375 -20.84375 
L 24.265625 17.828125 
L 19.828125 40.828125 
Q 18.65625 46.96875 11.140625 46.96875 
L 8.734375 46.96875 
L 10.203125 54.6875 
L 13.625 54.59375 
Q 26.171875 54.25 27.734375 46.09375 
L 31.34375 27.390625 
L 51.609375 54.734375 
L 62.203125 54.734375 
L 33.5 16.0625 
L 37.9375 -6.9375 
Q 39.109375 -13.09375 46.625 -13.09375 
L 49.03125 -13.09375 
L 47.5625 -20.796875 
L 44.140625 -20.703125 
Q 31.59375 -20.359375 30.03125 -12.203125 
" id="DejaVuSans-Oblique-3c7"/>
     </defs>
     <g style="fill:#d2d2d2;" transform="translate(233.04 283.941563)scale(0.16 -0.16)">
      <use transform="translate(0 0.765625)" xlink:href="#DejaVuSans-Oblique-3c7"/>
      <use transform="translate(63.652396 39.046875)scale(0.7)" xlink:href="#DejaVuSans-32"/>
     </g>
    </g>
   </g>
   <g id="matplotlib.axis_2">
    <g id="ytick_1">
     <g id="line2d_6">
      <defs>
       <path d="M 0 0 
L -4 0 
" id="m9edcfae671" style="stroke:#d2d2d2;"/>
      </defs>
      <g>
       <use style="fill:#d2d2d2;stroke:#d2d2d2;" x="64.8" xlink:href="#m9edcfae671" y="244.8"/>
      </g>
     </g>
     <g id="text_7">
      <!-- 0.00 -->
      <defs>
       <path d="M 10.6875 12.40625 
L 21 12.40625 
L 21 0 
L 10.6875 0 
z
" id="DejaVuSans-2e"/>
      </defs>
      <g style="fill:#d2d2d2;" transform="translate(27.854687 249.738984)scale(0.13 -0.13)">
       <use xlink:href="#DejaVuSans-30"/>
       <use x="63.623047" xlink:href="#DejaVuSans-2e"/>
       <use x="95.410156" xlink:href="#DejaVuSans-30"/>
       <use x="159.033203" xlink:href="#DejaVuSans-30"/>
      </g>
     </g>
    </g>
    <g id="ytick_2">
     <g id="line2d_7">
      <g>
       <use style="fill:#d2d2d2;stroke:#d2d2d2;" x="64.8" xlink:href="#m9edcfae671" y="205.125668"/>
      </g>
     </g>
     <g id="text_8">
      <!-- 0.05 -->
      <g style="fill:#d2d2d2;" transform="translate(27.854687 210.064653)scale(0.13 -0.13)">
       <use xlink:href="#DejaVuSans-30"/>
       <use x="63.623047" xlink:href="#DejaVuSans-2e"/>
       <use x="95.410156" xlink:href="#DejaVuSans-30"/>
       <use x="159.033203" xlink:href="#DejaVuSans-35"/>
      </g>
     </g>
    </g>
    <g id="ytick_3">
     <g id="line2d_8">
      <g>
       <use style="fill:#d2d2d2;stroke:#d2d2d2;" x="64.8" xlink:href="#m9edcfae671" y="165.451337"/>
      </g>
     </g>
     <g id="text_9">
      <!-- 0.10 -->
      <g style="fill:#d2d2d2;" transform="translate(27.854687 170.390321)scale(0.13 -0.13)">
       <use xlink:href="#DejaVuSans-30"/>
       <use x="63.623047" xlink:href="#DejaVuSans-2e"/>
       <use x="95.410156" xlink:href="#DejaVuSans-31"/>
       <use x="159.033203" xlink:href="#DejaVuSans-30"/>
      </g>
     </g>
    </g>
    <g id="ytick_4">
     <g id="line2d_9">
      <g>
       <use style="fill:#d2d2d2;stroke:#d2d2d2;" x="64.8" xlink:href="#m9edcfae671" y="125.777005"/>
      </g>
     </g>
     <g id="text_10">
      <!-- 0.15 -->
      <g style="fill:#d2d2d2;" transform="translate(27.854687 130.715989)scale(0.13 -0.13)">
       <use xlink:href="#DejaVuSans-30"/>
       <use x="63.623047" xlink:href="#DejaVuSans-2e"/>
       <use x="95.410156" xlink:href="#DejaVuSans-31"/>
       <use x="159.033203" xlink:href="#DejaVuSans-35"/>
      </g>
     </g>
    </g>
    <g id="ytick_5">
     <g id="line2d_10">
      <g>
       <use style="fill:#d2d2d2;stroke:#d2d2d2;" x="64.8" xlink:href="#m9edcfae671" y="86.102673"/>
      </g>
     </g>
     <g id="text_11">
      <!-- 0.20 -->
      <g style="fill:#d2d2d2;" transform="translate(27.854687 91.041658)scale(0.13 -0.13)">
       <use xlink:href="#DejaVuSans-30"/>
       <use x="63.623047" xlink:href="#DejaVuSans-2e"/>
       <use x="95.410156" xlink:href="#DejaVuSans-32"/>
       <use x="159.033203" xlink:href="#DejaVuSans-30"/>
      </g>
     </g>
    </g>
    <g id="ytick_6">
     <g id="line2d_11">
      <g>
       <use style="fill:#d2d2d2;stroke:#d2d2d2;" x="64.8" xlink:href="#m9edcfae671" y="46.428342"/>
      </g>
     </g>
     <g id="text_12">
      <!-- 0.25 -->
      <g style="fill:#d2d2d2;" transform="translate(27.854687 51.367326)scale(0.13 -0.13)">
       <use xlink:href="#DejaVuSans-30"/>
       <use x="63.623047" xlink:href="#DejaVuSans-2e"/>
       <use x="95.410156" xlink:href="#DejaVuSans-32"/>
       <use x="159.033203" xlink:href="#DejaVuSans-35"/>
      </g>
     </g>
    </g>
    <g id="text_13">
     <!-- Relative frequency -->
     <defs>
      <path d="M 44.390625 34.1875 
Q 47.5625 33.109375 50.5625 29.59375 
Q 53.5625 26.078125 56.59375 19.921875 
L 66.609375 0 
L 56 0 
L 46.6875 18.703125 
Q 43.0625 26.03125 39.671875 28.421875 
Q 36.28125 30.8125 30.421875 30.8125 
L 19.671875 30.8125 
L 19.671875 0 
L 9.8125 0 
L 9.8125 72.90625 
L 32.078125 72.90625 
Q 44.578125 72.90625 50.734375 67.671875 
Q 56.890625 62.453125 56.890625 51.90625 
Q 56.890625 45.015625 53.6875 40.46875 
Q 50.484375 35.9375 44.390625 34.1875 
M 19.671875 64.796875 
L 19.671875 38.921875 
L 32.078125 38.921875 
Q 39.203125 38.921875 42.84375 42.21875 
Q 46.484375 45.515625 46.484375 51.90625 
Q 46.484375 58.296875 42.84375 61.546875 
Q 39.203125 64.796875 32.078125 64.796875 
z
" id="DejaVuSans-52"/>
      <path d="M 56.203125 29.59375 
L 56.203125 25.203125 
L 14.890625 25.203125 
Q 15.484375 15.921875 20.484375 11.0625 
Q 25.484375 6.203125 34.421875 6.203125 
Q 39.59375 6.203125 44.453125 7.46875 
Q 49.3125 8.734375 54.109375 11.28125 
L 54.109375 2.78125 
Q 49.265625 0.734375 44.1875 -0.34375 
Q 39.109375 -1.421875 33.890625 -1.421875 
Q 20.796875 -1.421875 13.15625 6.1875 
Q 5.515625 13.8125 5.515625 26.8125 
Q 5.515625 40.234375 12.765625 48.109375 
Q 20.015625 56 32.328125 56 
Q 43.359375 56 49.78125 48.890625 
Q 56.203125 41.796875 56.203125 29.59375 
M 47.21875 32.234375 
Q 47.125 39.59375 43.09375 43.984375 
Q 39.0625 48.390625 32.421875 48.390625 
Q 24.90625 48.390625 20.390625 44.140625 
Q 15.875 39.890625 15.1875 32.171875 
z
" id="DejaVuSans-65"/>
      <path d="M 9.421875 75.984375 
L 18.40625 75.984375 
L 18.40625 0 
L 9.421875 0 
z
" id="DejaVuSans-6c"/>
      <path d="M 34.28125 27.484375 
Q 23.390625 27.484375 19.1875 25 
Q 14.984375 22.515625 14.984375 16.5 
Q 14.984375 11.71875 18.140625 8.90625 
Q 21.296875 6.109375 26.703125 6.109375 
Q 34.1875 6.109375 38.703125 11.40625 
Q 43.21875 16.703125 43.21875 25.484375 
L 43.21875 27.484375 
z
M 52.203125 31.203125 
L 52.203125 0 
L 43.21875 0 
L 43.21875 8.296875 
Q 40.140625 3.328125 35.546875 0.953125 
Q 30.953125 -1.421875 24.3125 -1.421875 
Q 15.921875 -1.421875 10.953125 3.296875 
Q 6 8.015625 6 15.921875 
Q 6 25.140625 12.171875 29.828125 
Q 18.359375 34.515625 30.609375 34.515625 
L 43.21875 34.515625 
L 43.21875 35.40625 
Q 43.21875 41.609375 39.140625 45 
Q 35.0625 48.390625 27.6875 48.390625 
Q 23 48.390625 18.546875 47.265625 
Q 14.109375 46.140625 10.015625 43.890625 
L 10.015625 52.203125 
Q 14.9375 54.109375 19.578125 55.046875 
Q 24.21875 56 28.609375 56 
Q 40.484375 56 46.34375 49.84375 
Q 52.203125 43.703125 52.203125 31.203125 
" id="DejaVuSans-61"/>
      <path d="M 18.3125 70.21875 
L 18.3125 54.6875 
L 36.8125 54.6875 
L 36.8125 47.703125 
L 18.3125 47.703125 
L 18.3125 18.015625 
Q 18.3125 11.328125 20.140625 9.421875 
Q 21.96875 7.515625 27.59375 7.515625 
L 36.8125 7.515625 
L 36.8125 0 
L 27.59375 0 
Q 17.1875 0 13.234375 3.875 
Q 9.28125 7.765625 9.28125 18.015625 
L 9.28125 47.703125 
L 2.6875 47.703125 
L 2.6875 54.6875 
L 9.28125 54.6875 
L 9.28125 70.21875 
z
" id="DejaVuSans-74"/>
      <path d="M 9.421875 54.6875 
L 18.40625 54.6875 
L 18.40625 0 
L 9.421875 0 
z
M 9.421875 75.984375 
L 18.40625 75.984375 
L 18.40625 64.59375 
L 9.421875 64.59375 
z
" id="DejaVuSans-69"/>
      <path d="M 2.984375 54.6875 
L 12.5 54.6875 
L 29.59375 8.796875 
L 46.6875 54.6875 
L 56.203125 54.6875 
L 35.6875 0 
L 23.484375 0 
z
" id="DejaVuSans-76"/>
      <path id="DejaVuSans-20"/>
      <path d="M 37.109375 75.984375 
L 37.109375 68.5 
L 28.515625 68.5 
Q 23.6875 68.5 21.796875 66.546875 
Q 19.921875 64.59375 19.921875 59.515625 
L 19.921875 54.6875 
L 34.71875 54.6875 
L 34.71875 47.703125 
L 19.921875 47.703125 
L 19.921875 0 
L 10.890625 0 
L 10.890625 47.703125 
L 2.296875 47.703125 
L 2.296875 54.6875 
L 10.890625 54.6875 
L 10.890625 58.5 
Q 10.890625 67.625 15.140625 71.796875 
Q 19.390625 75.984375 28.609375 75.984375 
z
" id="DejaVuSans-66"/>
      <path d="M 41.109375 46.296875 
Q 39.59375 47.171875 37.8125 47.578125 
Q 36.03125 48 33.890625 48 
Q 26.265625 48 22.1875 43.046875 
Q 18.109375 38.09375 18.109375 28.8125 
L 18.109375 0 
L 9.078125 0 
L 9.078125 54.6875 
L 18.109375 54.6875 
L 18.109375 46.1875 
Q 20.953125 51.171875 25.484375 53.578125 
Q 30.03125 56 36.53125 56 
Q 37.453125 56 38.578125 55.875 
Q 39.703125 55.765625 41.0625 55.515625 
z
" id="DejaVuSans-72"/>
      <path d="M 14.796875 27.296875 
Q 14.796875 17.390625 18.875 11.75 
Q 22.953125 6.109375 30.078125 6.109375 
Q 37.203125 6.109375 41.296875 11.75 
Q 45.40625 17.390625 45.40625 27.296875 
Q 45.40625 37.203125 41.296875 42.84375 
Q 37.203125 48.484375 30.078125 48.484375 
Q 22.953125 48.484375 18.875 42.84375 
Q 14.796875 37.203125 14.796875 27.296875 
M 45.40625 8.203125 
Q 42.578125 3.328125 38.25 0.953125 
Q 33.9375 -1.421875 27.875 -1.421875 
Q 17.96875 -1.421875 11.734375 6.484375 
Q 5.515625 14.40625 5.515625 27.296875 
Q 5.515625 40.1875 11.734375 48.09375 
Q 17.96875 56 27.875 56 
Q 33.9375 56 38.25 53.625 
Q 42.578125 51.265625 45.40625 46.390625 
L 45.40625 54.6875 
L 54.390625 54.6875 
L 54.390625 -20.796875 
L 45.40625 -20.796875 
z
" id="DejaVuSans-71"/>
      <path d="M 8.5 21.578125 
L 8.5 54.6875 
L 17.484375 54.6875 
L 17.484375 21.921875 
Q 17.484375 14.15625 20.5 10.265625 
Q 23.53125 6.390625 29.59375 6.390625 
Q 36.859375 6.390625 41.078125 11.03125 
Q 45.3125 15.671875 45.3125 23.6875 
L 45.3125 54.6875 
L 54.296875 54.6875 
L 54.296875 0 
L 45.3125 0 
L 45.3125 8.40625 
Q 42.046875 3.421875 37.71875 1 
Q 33.40625 -1.421875 27.6875 -1.421875 
Q 18.265625 -1.421875 13.375 4.4375 
Q 8.5 10.296875 8.5 21.578125 
M 31.109375 56 
z
" id="DejaVuSans-75"/>
      <path d="M 54.890625 33.015625 
L 54.890625 0 
L 45.90625 0 
L 45.90625 32.71875 
Q 45.90625 40.484375 42.875 44.328125 
Q 39.84375 48.1875 33.796875 48.1875 
Q 26.515625 48.1875 22.3125 43.546875 
Q 18.109375 38.921875 18.109375 30.90625 
L 18.109375 0 
L 9.078125 0 
L 9.078125 54.6875 
L 18.109375 54.6875 
L 18.109375 46.1875 
Q 21.34375 51.125 25.703125 53.5625 
Q 30.078125 56 35.796875 56 
Q 45.21875 56 50.046875 50.171875 
Q 54.890625 44.34375 54.890625 33.015625 
" id="DejaVuSans-6e"/>
      <path d="M 48.78125 52.59375 
L 48.78125 44.1875 
Q 44.96875 46.296875 41.140625 47.34375 
Q 37.3125 48.390625 33.40625 48.390625 
Q 24.65625 48.390625 19.8125 42.84375 
Q 14.984375 37.3125 14.984375 27.296875 
Q 14.984375 17.28125 19.8125 11.734375 
Q 24.65625 6.203125 33.40625 6.203125 
Q 37.3125 6.203125 41.140625 7.25 
Q 44.96875 8.296875 48.78125 10.40625 
L 48.78125 2.09375 
Q 45.015625 0.34375 40.984375 -0.53125 
Q 36.96875 -1.421875 32.421875 -1.421875 
Q 20.0625 -1.421875 12.78125 6.34375 
Q 5.515625 14.109375 5.515625 27.296875 
Q 5.515625 40.671875 12.859375 48.328125 
Q 20.21875 56 33.015625 56 
Q 37.15625 56 41.109375 55.140625 
Q 45.0625 54.296875 48.78125 52.59375 
" id="DejaVuSans-63"/>
      <path d="M 32.171875 -5.078125 
Q 28.375 -14.84375 24.75 -17.8125 
Q 21.140625 -20.796875 15.09375 -20.796875 
L 7.90625 -20.796875 
L 7.90625 -13.28125 
L 13.1875 -13.28125 
Q 16.890625 -13.28125 18.9375 -11.515625 
Q 21 -9.765625 23.484375 -3.21875 
L 25.09375 0.875 
L 2.984375 54.6875 
L 12.5 54.6875 
L 29.59375 11.921875 
L 46.6875 54.6875 
L 56.203125 54.6875 
z
" id="DejaVuSans-79"/>
     </defs>
     <g style="fill:#d2d2d2;" transform="translate(20.527187 219.46)rotate(-90)scale(0.16 -0.16)">
      <use xlink:href="#DejaVuSans-52"/>
      <use x="69.419922" xlink:href="#DejaVuSans-65"/>
      <use x="130.943359" xlink:href="#DejaVuSans-6c"/>
      <use x="158.726562" xlink:href="#DejaVuSans-61"/>
      <use x="220.005859" xlink:href="#DejaVuSans-74"/>
      <use x="259.214844" xlink:href="#DejaVuSans-69"/>
      <use x="286.998047" xlink:href="#DejaVuSans-76"/>
      <use x="346.177734" xlink:href="#DejaVuSans-65"/>
      <use x="407.701172" xlink:href="#DejaVuSans-20"/>
      <use x="439.488281" xlink:href="#DejaVuSans-66"/>
      <use x="474.693359" xlink:href="#DejaVuSans-72"/>
      <use x="515.775391" xlink:href="#DejaVuSans-65"/>
      <use x="577.298828" xlink:href="#DejaVuSans-71"/>
      <use x="640.775391" xlink:href="#DejaVuSans-75"/>
      <use x="704.154297" xlink:href="#DejaVuSans-65"/>
      <use x="765.677734" xlink:href="#DejaVuSans-6e"/>
      <use x="829.056641" xlink:href="#DejaVuSans-63"/>
      <use x="884.037109" xlink:href="#DejaVuSans-79"/>
     </g>
    </g>
   </g>
   <g id="line2d_12">
    <path clip-path="url(#p0fa112e9da)" d="M 64.8 244.8 
L 66.034114 157.013453 
L 67.268227 125.734253 
L 68.502341 104.945531 
L 69.736455 89.92205 
L 70.970569 78.731037 
L 72.204682 70.329111 
L 73.438796 64.06584 
L 74.67291 59.498005 
L 75.907023 56.304828 
L 77.141137 54.243901 
L 78.375251 53.126059 
L 79.609365 52.8 
L 80.843478 53.14235 
L 82.077592 54.050953 
L 83.311706 55.440166 
L 84.545819 57.237462 
L 85.779933 59.380909 
L 87.014047 61.817265 
L 89.482274 67.390606 
L 91.950502 73.656382 
L 95.652843 83.864816 
L 111.696321 129.575937 
L 115.398662 139.221632 
L 119.101003 148.319181 
L 122.803344 156.837979 
L 126.505686 164.768141 
L 130.208027 172.114553 
L 133.910368 178.89245 
L 137.612709 185.124126 
L 141.31505 190.836481 
L 145.017391 196.059192 
L 148.719732 200.823352 
L 152.422074 205.160472 
L 156.124415 209.101761 
L 159.826756 212.677605 
L 163.529097 215.917208 
L 167.231438 218.848357 
L 170.933779 221.497277 
L 174.63612 223.888554 
L 178.338462 226.045106 
L 182.040803 227.988203 
L 186.977258 230.280708 
L 191.913712 232.27084 
L 196.850167 233.996344 
L 201.786622 235.490726 
L 206.723077 236.783611 
L 212.893645 238.155843 
L 219.064214 239.297962 
L 226.468896 240.41704 
L 233.873579 241.312169 
L 242.512375 242.1314 
L 252.385284 242.837656 
L 263.492308 243.413688 
L 277.067559 243.89532 
L 294.345151 244.276036 
L 317.793311 244.551426 
L 353.582609 244.720994 
L 426.395318 244.792496 
L 433 244.793945 
L 433 244.793945 
" style="fill:none;stroke:#5bc0de;stroke-linecap:square;stroke-width:2;"/>
   </g>
   <g id="patch_3">
    <path d="M 64.8 244.8 
L 64.8 43.2 
" style="fill:none;stroke:#d2d2d2;stroke-linecap:square;stroke-linejoin:miter;"/>
   </g>
   <g id="patch_4">
    <path d="M 64.8 244.8 
L 419.04 244.8 
" style="fill:none;stroke:#d2d2d2;stroke-linecap:square;stroke-linejoin:miter;"/>
   </g>
   <g id="legend_1">
    <g id="line2d_13">
     <path d="M 320.4625 64.1575 
L 352.4625 64.1575 
" style="fill:none;stroke:#5bc0de;stroke-linecap:square;stroke-width:2;"/>
    </g>
    <g id="line2d_14"/>
    <g id="text_14">
     <!-- df=3 -->
     <defs>
      <path d="M 45.40625 46.390625 
L 45.40625 75.984375 
L 54.390625 75.984375 
L 54.390625 0 
L 45.40625 0 
L 45.40625 8.203125 
Q 42.578125 3.328125 38.25 0.953125 
Q 33.9375 -1.421875 27.875 -1.421875 
Q 17.96875 -1.421875 11.734375 6.484375 
Q 5.515625 14.40625 5.515625 27.296875 
Q 5.515625 40.1875 11.734375 48.09375 
Q 17.96875 56 27.875 56 
Q 33.9375 56 38.25 53.625 
Q 42.578125 51.265625 45.40625 46.390625 
M 14.796875 27.296875 
Q 14.796875 17.390625 18.875 11.75 
Q 22.953125 6.109375 30.078125 6.109375 
Q 37.203125 6.109375 41.296875 11.75 
Q 45.40625 17.390625 45.40625 27.296875 
Q 45.40625 37.203125 41.296875 42.84375 
Q 37.203125 48.484375 30.078125 48.484375 
Q 22.953125 48.484375 18.875 42.84375 
Q 14.796875 37.203125 14.796875 27.296875 
" id="DejaVuSans-64"/>
      <path d="M 10.59375 45.40625 
L 73.1875 45.40625 
L 73.1875 37.203125 
L 10.59375 37.203125 
z
M 10.59375 25.484375 
L 73.1875 25.484375 
L 73.1875 17.1875 
L 10.59375 17.1875 
z
" id="DejaVuSans-3d"/>
      <path d="M 40.578125 39.3125 
Q 47.65625 37.796875 51.625 33 
Q 55.609375 28.21875 55.609375 21.1875 
Q 55.609375 10.40625 48.1875 4.484375 
Q 40.765625 -1.421875 27.09375 -1.421875 
Q 22.515625 -1.421875 17.65625 -0.515625 
Q 12.796875 0.390625 7.625 2.203125 
L 7.625 11.71875 
Q 11.71875 9.328125 16.59375 8.109375 
Q 21.484375 6.890625 26.8125 6.890625 
Q 36.078125 6.890625 40.9375 10.546875 
Q 45.796875 14.203125 45.796875 21.1875 
Q 45.796875 27.640625 41.28125 31.265625 
Q 36.765625 34.90625 28.71875 34.90625 
L 20.21875 34.90625 
L 20.21875 43.015625 
L 29.109375 43.015625 
Q 36.375 43.015625 40.234375 45.921875 
Q 44.09375 48.828125 44.09375 54.296875 
Q 44.09375 59.90625 40.109375 62.90625 
Q 36.140625 65.921875 28.71875 65.921875 
Q 24.65625 65.921875 20.015625 65.03125 
Q 15.375 64.15625 9.8125 62.3125 
L 9.8125 71.09375 
Q 15.4375 72.65625 20.34375 73.4375 
Q 25.25 74.21875 29.59375 74.21875 
Q 40.828125 74.21875 47.359375 69.109375 
Q 53.90625 64.015625 53.90625 55.328125 
Q 53.90625 49.265625 50.4375 45.09375 
Q 46.96875 40.921875 40.578125 39.3125 
" id="DejaVuSans-33"/>
     </defs>
     <g style="fill:#d2d2d2;" transform="translate(365.2625 69.7575)scale(0.16 -0.16)">
      <use xlink:href="#DejaVuSans-64"/>
      <use x="63.476562" xlink:href="#DejaVuSans-66"/>
      <use x="98.681641" xlink:href="#DejaVuSans-3d"/>
      <use x="182.470703" xlink:href="#DejaVuSans-33"/>
     </g>
    </g>
   </g>
  </g>
  <g id="axes_2">
   <g id="PolyCollection_1">
    <defs>
     <path d="M 72.204682 -43.2 
L 72.204682 -217.670889 
L 73.438796 -223.93416 
L 74.67291 -228.501995 
L 75.907023 -231.695172 
L 77.141137 -233.756099 
L 78.375251 -234.873941 
L 79.609365 -235.2 
L 80.843478 -234.85765 
L 82.077592 -233.949047 
L 83.311706 -232.559834 
L 84.545819 -230.762538 
L 85.779933 -228.619091 
L 87.014047 -226.182735 
L 88.248161 -223.499507 
L 89.482274 -220.609394 
L 90.716388 -217.547265 
L 91.950502 -214.343618 
L 93.184615 -211.025195 
L 94.418729 -207.615494 
L 95.652843 -204.135184 
L 96.886957 -200.602471 
L 98.12107 -197.033397 
L 99.355184 -193.442098 
L 100.589298 -189.841029 
L 101.823411 -186.241154 
L 103.057525 -182.652113 
L 104.291639 -179.082372 
L 105.525753 -175.539343 
L 106.759866 -172.029506 
L 107.99398 -168.558498 
L 109.228094 -165.13121 
L 110.462207 -161.75186 
L 111.696321 -158.424063 
L 112.930435 -155.150894 
L 114.164548 -151.934944 
L 115.398662 -148.778368 
L 116.632776 -145.682931 
L 117.86689 -142.650047 
L 119.101003 -139.680819 
L 120.335117 -136.776065 
L 121.569231 -133.936351 
L 122.803344 -131.162021 
L 124.037458 -128.453215 
L 125.271572 -125.809894 
L 126.505686 -123.231859 
L 127.739799 -120.718768 
L 128.973913 -118.270157 
L 130.208027 -115.885447 
L 131.44214 -113.563962 
L 132.676254 -111.304942 
L 133.910368 -109.10755 
L 135.144482 -106.970888 
L 136.378595 -104.893997 
L 137.612709 -102.875874 
L 138.846823 -100.915477 
L 140.080936 -99.011726 
L 141.31505 -97.163519 
L 142.549164 -95.369727 
L 143.783278 -93.629209 
L 145.017391 -91.940808 
L 146.251505 -90.30336 
L 147.485619 -88.715697 
L 148.719732 -87.176648 
L 149.953846 -85.685046 
L 151.18796 -84.239725 
L 152.422074 -82.839528 
L 153.656187 -81.483305 
L 154.890301 -80.169918 
L 156.124415 -78.898239 
L 157.358528 -77.667155 
L 158.592642 -76.475568 
L 159.826756 -75.322395 
L 161.06087 -74.206571 
L 162.294983 -73.127046 
L 163.529097 -72.082792 
L 164.763211 -71.072798 
L 165.997324 -70.096072 
L 167.231438 -69.151643 
L 168.465552 -68.238559 
L 169.699666 -67.355889 
L 170.933779 -66.502723 
L 172.167893 -65.67817 
L 173.402007 -64.881361 
L 174.63612 -64.111446 
L 175.870234 -63.367599 
L 177.104348 -62.649011 
L 178.338462 -61.954894 
L 179.572575 -61.284481 
L 180.806689 -60.637025 
L 182.040803 -60.011797 
L 183.274916 -59.408089 
L 184.50903 -58.825213 
L 185.743144 -58.262498 
L 186.977258 -57.719292 
L 188.211371 -57.194962 
L 189.445485 -56.688892 
L 190.679599 -56.200485 
L 191.913712 -55.72916 
L 193.147826 -55.274353 
L 194.38194 -54.835518 
L 195.616054 -54.412124 
L 196.850167 -54.003656 
L 198.084281 -53.609613 
L 199.318395 -53.229513 
L 200.552508 -52.862885 
L 201.786622 -52.509274 
L 203.020736 -52.16824 
L 204.254849 -51.839355 
L 205.488963 -51.522205 
L 206.723077 -51.216389 
L 207.957191 -50.921519 
L 209.191304 -50.637218 
L 210.425418 -50.363124 
L 211.659532 -50.098884 
L 212.893645 -49.844157 
L 214.127759 -49.598612 
L 215.361873 -49.361932 
L 216.595987 -49.133807 
L 217.8301 -48.913939 
L 219.064214 -48.702038 
L 220.298328 -48.497827 
L 221.532441 -48.301034 
L 222.766555 -48.111399 
L 224.000669 -47.92867 
L 225.234783 -47.752602 
L 226.468896 -47.58296 
L 227.70301 -47.419517 
L 228.937124 -47.262052 
L 230.171237 -47.110352 
L 231.405351 -46.964214 
L 232.639465 -46.823437 
L 233.873579 -46.687831 
L 235.107692 -46.55721 
L 236.341806 -46.431397 
L 237.57592 -46.310218 
L 238.810033 -46.193506 
L 240.044147 -46.081102 
L 241.278261 -45.97285 
L 242.512375 -45.8686 
L 243.746488 -45.768208 
L 244.980602 -45.671533 
L 246.214716 -45.578442 
L 247.448829 -45.488804 
L 248.682943 -45.402494 
L 249.917057 -45.319391 
L 251.151171 -45.239379 
L 252.385284 -45.162344 
L 253.619398 -45.088178 
L 254.853512 -45.016776 
L 256.087625 -44.948038 
L 257.321739 -44.881865 
L 258.555853 -44.818164 
L 259.789967 -44.756844 
L 261.02408 -44.697818 
L 262.258194 -44.641001 
L 263.492308 -44.586312 
L 264.726421 -44.533674 
L 265.960535 -44.483009 
L 267.194649 -44.434246 
L 268.428763 -44.387314 
L 269.662876 -44.342146 
L 270.89699 -44.298676 
L 272.131104 -44.256842 
L 273.365217 -44.216582 
L 274.599331 -44.177839 
L 275.833445 -44.140557 
L 277.067559 -44.10468 
L 278.301672 -44.070157 
L 279.535786 -44.036938 
L 280.7699 -44.004973 
L 282.004013 -43.974217 
L 283.238127 -43.944624 
L 284.472241 -43.91615 
L 285.706355 -43.888754 
L 286.940468 -43.862397 
L 288.174582 -43.837037 
L 289.408696 -43.81264 
L 290.642809 -43.789168 
L 291.876923 -43.766586 
L 293.111037 -43.744863 
L 294.345151 -43.723964 
L 295.579264 -43.70386 
L 296.813378 -43.68452 
L 298.047492 -43.665916 
L 299.281605 -43.64802 
L 300.515719 -43.630805 
L 301.749833 -43.614247 
L 302.983946 -43.598319 
L 304.21806 -43.582998 
L 305.452174 -43.568262 
L 306.686288 -43.554089 
L 307.920401 -43.540456 
L 309.154515 -43.527344 
L 310.388629 -43.514733 
L 311.622742 -43.502604 
L 312.856856 -43.490939 
L 314.09097 -43.47972 
L 315.325084 -43.46893 
L 316.559197 -43.458553 
L 317.793311 -43.448574 
L 319.027425 -43.438977 
L 320.261538 -43.429748 
L 321.495652 -43.420873 
L 322.729766 -43.412338 
L 323.96388 -43.40413 
L 325.197993 -43.396238 
L 326.432107 -43.388649 
L 327.666221 -43.381351 
L 328.900334 -43.374333 
L 330.134448 -43.367586 
L 331.368562 -43.361097 
L 332.602676 -43.354859 
L 333.836789 -43.34886 
L 335.070903 -43.343092 
L 336.305017 -43.337546 
L 337.53913 -43.332214 
L 338.773244 -43.327087 
L 340.007358 -43.322158 
L 341.241472 -43.317418 
L 342.475585 -43.312862 
L 343.709699 -43.308481 
L 344.943813 -43.304269 
L 346.177926 -43.30022 
L 347.41204 -43.296327 
L 348.646154 -43.292585 
L 349.880268 -43.288987 
L 351.114381 -43.285528 
L 352.348495 -43.282203 
L 353.582609 -43.279006 
L 354.816722 -43.275933 
L 356.050836 -43.272978 
L 357.28495 -43.270139 
L 358.519064 -43.267409 
L 359.753177 -43.264784 
L 360.987291 -43.262262 
L 362.221405 -43.259837 
L 363.455518 -43.257506 
L 364.689632 -43.255265 
L 365.923746 -43.253111 
L 367.15786 -43.251041 
L 368.391973 -43.249051 
L 369.626087 -43.247138 
L 370.860201 -43.245299 
L 372.094314 -43.243532 
L 373.328428 -43.241833 
L 374.562542 -43.240201 
L 375.796656 -43.238631 
L 377.030769 -43.237123 
L 378.264883 -43.235673 
L 379.498997 -43.23428 
L 380.73311 -43.232941 
L 381.967224 -43.231654 
L 383.201338 -43.230417 
L 384.435452 -43.229228 
L 385.669565 -43.228085 
L 386.903679 -43.226987 
L 388.137793 -43.225932 
L 389.371906 -43.224917 
L 390.60602 -43.223942 
L 391.840134 -43.223006 
L 393.074247 -43.222105 
L 394.308361 -43.22124 
L 395.542475 -43.220408 
L 396.776589 -43.219609 
L 398.010702 -43.218841 
L 399.244816 -43.218103 
L 400.47893 -43.217394 
L 401.713043 -43.216713 
L 402.947157 -43.216058 
L 404.181271 -43.215428 
L 405.415385 -43.214823 
L 406.649498 -43.214242 
L 407.883612 -43.213684 
L 409.117726 -43.213147 
L 410.351839 -43.212631 
L 411.585953 -43.212136 
L 412.820067 -43.21166 
L 414.054181 -43.211202 
L 415.288294 -43.210762 
L 416.522408 -43.21034 
L 417.756522 -43.209934 
L 418.990635 -43.209544 
L 420.224749 -43.209169 
L 421.458863 -43.208809 
L 422.692977 -43.208463 
L 423.92709 -43.20813 
L 425.161204 -43.207811 
L 426.395318 -43.207504 
L 427.629431 -43.207209 
L 428.863545 -43.206925 
L 430.097659 -43.206653 
L 431.331773 -43.206391 
L 432.565886 -43.20614 
L 433.8 -43.205898 
L 433.8 -43.2 
L 433.8 -43.2 
L 432.565886 -43.2 
L 431.331773 -43.2 
L 430.097659 -43.2 
L 428.863545 -43.2 
L 427.629431 -43.2 
L 426.395318 -43.2 
L 425.161204 -43.2 
L 423.92709 -43.2 
L 422.692977 -43.2 
L 421.458863 -43.2 
L 420.224749 -43.2 
L 418.990635 -43.2 
L 417.756522 -43.2 
L 416.522408 -43.2 
L 415.288294 -43.2 
L 414.054181 -43.2 
L 412.820067 -43.2 
L 411.585953 -43.2 
L 410.351839 -43.2 
L 409.117726 -43.2 
L 407.883612 -43.2 
L 406.649498 -43.2 
L 405.415385 -43.2 
L 404.181271 -43.2 
L 402.947157 -43.2 
L 401.713043 -43.2 
L 400.47893 -43.2 
L 399.244816 -43.2 
L 398.010702 -43.2 
L 396.776589 -43.2 
L 395.542475 -43.2 
L 394.308361 -43.2 
L 393.074247 -43.2 
L 391.840134 -43.2 
L 390.60602 -43.2 
L 389.371906 -43.2 
L 388.137793 -43.2 
L 386.903679 -43.2 
L 385.669565 -43.2 
L 384.435452 -43.2 
L 383.201338 -43.2 
L 381.967224 -43.2 
L 380.73311 -43.2 
L 379.498997 -43.2 
L 378.264883 -43.2 
L 377.030769 -43.2 
L 375.796656 -43.2 
L 374.562542 -43.2 
L 373.328428 -43.2 
L 372.094314 -43.2 
L 370.860201 -43.2 
L 369.626087 -43.2 
L 368.391973 -43.2 
L 367.15786 -43.2 
L 365.923746 -43.2 
L 364.689632 -43.2 
L 363.455518 -43.2 
L 362.221405 -43.2 
L 360.987291 -43.2 
L 359.753177 -43.2 
L 358.519064 -43.2 
L 357.28495 -43.2 
L 356.050836 -43.2 
L 354.816722 -43.2 
L 353.582609 -43.2 
L 352.348495 -43.2 
L 351.114381 -43.2 
L 349.880268 -43.2 
L 348.646154 -43.2 
L 347.41204 -43.2 
L 346.177926 -43.2 
L 344.943813 -43.2 
L 343.709699 -43.2 
L 342.475585 -43.2 
L 341.241472 -43.2 
L 340.007358 -43.2 
L 338.773244 -43.2 
L 337.53913 -43.2 
L 336.305017 -43.2 
L 335.070903 -43.2 
L 333.836789 -43.2 
L 332.602676 -43.2 
L 331.368562 -43.2 
L 330.134448 -43.2 
L 328.900334 -43.2 
L 327.666221 -43.2 
L 326.432107 -43.2 
L 325.197993 -43.2 
L 323.96388 -43.2 
L 322.729766 -43.2 
L 321.495652 -43.2 
L 320.261538 -43.2 
L 319.027425 -43.2 
L 317.793311 -43.2 
L 316.559197 -43.2 
L 315.325084 -43.2 
L 314.09097 -43.2 
L 312.856856 -43.2 
L 311.622742 -43.2 
L 310.388629 -43.2 
L 309.154515 -43.2 
L 307.920401 -43.2 
L 306.686288 -43.2 
L 305.452174 -43.2 
L 304.21806 -43.2 
L 302.983946 -43.2 
L 301.749833 -43.2 
L 300.515719 -43.2 
L 299.281605 -43.2 
L 298.047492 -43.2 
L 296.813378 -43.2 
L 295.579264 -43.2 
L 294.345151 -43.2 
L 293.111037 -43.2 
L 291.876923 -43.2 
L 290.642809 -43.2 
L 289.408696 -43.2 
L 288.174582 -43.2 
L 286.940468 -43.2 
L 285.706355 -43.2 
L 284.472241 -43.2 
L 283.238127 -43.2 
L 282.004013 -43.2 
L 280.7699 -43.2 
L 279.535786 -43.2 
L 278.301672 -43.2 
L 277.067559 -43.2 
L 275.833445 -43.2 
L 274.599331 -43.2 
L 273.365217 -43.2 
L 272.131104 -43.2 
L 270.89699 -43.2 
L 269.662876 -43.2 
L 268.428763 -43.2 
L 267.194649 -43.2 
L 265.960535 -43.2 
L 264.726421 -43.2 
L 263.492308 -43.2 
L 262.258194 -43.2 
L 261.02408 -43.2 
L 259.789967 -43.2 
L 258.555853 -43.2 
L 257.321739 -43.2 
L 256.087625 -43.2 
L 254.853512 -43.2 
L 253.619398 -43.2 
L 252.385284 -43.2 
L 251.151171 -43.2 
L 249.917057 -43.2 
L 248.682943 -43.2 
L 247.448829 -43.2 
L 246.214716 -43.2 
L 244.980602 -43.2 
L 243.746488 -43.2 
L 242.512375 -43.2 
L 241.278261 -43.2 
L 240.044147 -43.2 
L 238.810033 -43.2 
L 237.57592 -43.2 
L 236.341806 -43.2 
L 235.107692 -43.2 
L 233.873579 -43.2 
L 232.639465 -43.2 
L 231.405351 -43.2 
L 230.171237 -43.2 
L 228.937124 -43.2 
L 227.70301 -43.2 
L 226.468896 -43.2 
L 225.234783 -43.2 
L 224.000669 -43.2 
L 222.766555 -43.2 
L 221.532441 -43.2 
L 220.298328 -43.2 
L 219.064214 -43.2 
L 217.8301 -43.2 
L 216.595987 -43.2 
L 215.361873 -43.2 
L 214.127759 -43.2 
L 212.893645 -43.2 
L 211.659532 -43.2 
L 210.425418 -43.2 
L 209.191304 -43.2 
L 207.957191 -43.2 
L 206.723077 -43.2 
L 205.488963 -43.2 
L 204.254849 -43.2 
L 203.020736 -43.2 
L 201.786622 -43.2 
L 200.552508 -43.2 
L 199.318395 -43.2 
L 198.084281 -43.2 
L 196.850167 -43.2 
L 195.616054 -43.2 
L 194.38194 -43.2 
L 193.147826 -43.2 
L 191.913712 -43.2 
L 190.679599 -43.2 
L 189.445485 -43.2 
L 188.211371 -43.2 
L 186.977258 -43.2 
L 185.743144 -43.2 
L 184.50903 -43.2 
L 183.274916 -43.2 
L 182.040803 -43.2 
L 180.806689 -43.2 
L 179.572575 -43.2 
L 178.338462 -43.2 
L 177.104348 -43.2 
L 175.870234 -43.2 
L 174.63612 -43.2 
L 173.402007 -43.2 
L 172.167893 -43.2 
L 170.933779 -43.2 
L 169.699666 -43.2 
L 168.465552 -43.2 
L 167.231438 -43.2 
L 165.997324 -43.2 
L 164.763211 -43.2 
L 163.529097 -43.2 
L 162.294983 -43.2 
L 161.06087 -43.2 
L 159.826756 -43.2 
L 158.592642 -43.2 
L 157.358528 -43.2 
L 156.124415 -43.2 
L 154.890301 -43.2 
L 153.656187 -43.2 
L 152.422074 -43.2 
L 151.18796 -43.2 
L 149.953846 -43.2 
L 148.719732 -43.2 
L 147.485619 -43.2 
L 146.251505 -43.2 
L 145.017391 -43.2 
L 143.783278 -43.2 
L 142.549164 -43.2 
L 141.31505 -43.2 
L 140.080936 -43.2 
L 138.846823 -43.2 
L 137.612709 -43.2 
L 136.378595 -43.2 
L 135.144482 -43.2 
L 133.910368 -43.2 
L 132.676254 -43.2 
L 131.44214 -43.2 
L 130.208027 -43.2 
L 128.973913 -43.2 
L 127.739799 -43.2 
L 126.505686 -43.2 
L 125.271572 -43.2 
L 124.037458 -43.2 
L 122.803344 -43.2 
L 121.569231 -43.2 
L 120.335117 -43.2 
L 119.101003 -43.2 
L 117.86689 -43.2 
L 116.632776 -43.2 
L 115.398662 -43.2 
L 114.164548 -43.2 
L 112.930435 -43.2 
L 111.696321 -43.2 
L 110.462207 -43.2 
L 109.228094 -43.2 
L 107.99398 -43.2 
L 106.759866 -43.2 
L 105.525753 -43.2 
L 104.291639 -43.2 
L 103.057525 -43.2 
L 101.823411 -43.2 
L 100.589298 -43.2 
L 99.355184 -43.2 
L 98.12107 -43.2 
L 96.886957 -43.2 
L 95.652843 -43.2 
L 94.418729 -43.2 
L 93.184615 -43.2 
L 91.950502 -43.2 
L 90.716388 -43.2 
L 89.482274 -43.2 
L 88.248161 -43.2 
L 87.014047 -43.2 
L 85.779933 -43.2 
L 84.545819 -43.2 
L 83.311706 -43.2 
L 82.077592 -43.2 
L 80.843478 -43.2 
L 79.609365 -43.2 
L 78.375251 -43.2 
L 77.141137 -43.2 
L 75.907023 -43.2 
L 74.67291 -43.2 
L 73.438796 -43.2 
L 72.204682 -43.2 
z
" id="m49f8998754" style="stroke:#d9534f;stroke-opacity:0.6;"/>
    </defs>
    <g clip-path="url(#p0fa112e9da)">
     <use style="fill:#d9534f;fill-opacity:0.6;stroke:#d9534f;stroke-opacity:0.6;" x="0" xlink:href="#m49f8998754" y="288"/>
    </g>
   </g>
   <g id="line2d_15">
    <path clip-path="url(#p0fa112e9da)" d="M 71.737554 244.8 
L 71.737554 43.2 
" style="fill:none;stroke:#f0ad4e;stroke-linecap:square;stroke-width:1.5;"/>
   </g>
   <g id="text_15">
    <!-- Observed $\chi^2$ -->
    <defs>
     <path d="M 39.40625 66.21875 
Q 28.65625 66.21875 22.328125 58.203125 
Q 16.015625 50.203125 16.015625 36.375 
Q 16.015625 22.609375 22.328125 14.59375 
Q 28.65625 6.59375 39.40625 6.59375 
Q 50.140625 6.59375 56.421875 14.59375 
Q 62.703125 22.609375 62.703125 36.375 
Q 62.703125 50.203125 56.421875 58.203125 
Q 50.140625 66.21875 39.40625 66.21875 
M 39.40625 74.21875 
Q 54.734375 74.21875 63.90625 63.9375 
Q 73.09375 53.65625 73.09375 36.375 
Q 73.09375 19.140625 63.90625 8.859375 
Q 54.734375 -1.421875 39.40625 -1.421875 
Q 24.03125 -1.421875 14.8125 8.828125 
Q 5.609375 19.09375 5.609375 36.375 
Q 5.609375 53.65625 14.8125 63.9375 
Q 24.03125 74.21875 39.40625 74.21875 
" id="DejaVuSans-4f"/>
     <path d="M 48.6875 27.296875 
Q 48.6875 37.203125 44.609375 42.84375 
Q 40.53125 48.484375 33.40625 48.484375 
Q 26.265625 48.484375 22.1875 42.84375 
Q 18.109375 37.203125 18.109375 27.296875 
Q 18.109375 17.390625 22.1875 11.75 
Q 26.265625 6.109375 33.40625 6.109375 
Q 40.53125 6.109375 44.609375 11.75 
Q 48.6875 17.390625 48.6875 27.296875 
M 18.109375 46.390625 
Q 20.953125 51.265625 25.265625 53.625 
Q 29.59375 56 35.59375 56 
Q 45.5625 56 51.78125 48.09375 
Q 58.015625 40.1875 58.015625 27.296875 
Q 58.015625 14.40625 51.78125 6.484375 
Q 45.5625 -1.421875 35.59375 -1.421875 
Q 29.59375 -1.421875 25.265625 0.953125 
Q 20.953125 3.328125 18.109375 8.203125 
L 18.109375 0 
L 9.078125 0 
L 9.078125 75.984375 
L 18.109375 75.984375 
z
" id="DejaVuSans-62"/>
     <path d="M 44.28125 53.078125 
L 44.28125 44.578125 
Q 40.484375 46.53125 36.375 47.5 
Q 32.28125 48.484375 27.875 48.484375 
Q 21.1875 48.484375 17.84375 46.4375 
Q 14.5 44.390625 14.5 40.28125 
Q 14.5 37.15625 16.890625 35.375 
Q 19.28125 33.59375 26.515625 31.984375 
L 29.59375 31.296875 
Q 39.15625 29.25 43.1875 25.515625 
Q 47.21875 21.78125 47.21875 15.09375 
Q 47.21875 7.46875 41.1875 3.015625 
Q 35.15625 -1.421875 24.609375 -1.421875 
Q 20.21875 -1.421875 15.453125 -0.5625 
Q 10.6875 0.296875 5.421875 2 
L 5.421875 11.28125 
Q 10.40625 8.6875 15.234375 7.390625 
Q 20.0625 6.109375 24.8125 6.109375 
Q 31.15625 6.109375 34.5625 8.28125 
Q 37.984375 10.453125 37.984375 14.40625 
Q 37.984375 18.0625 35.515625 20.015625 
Q 33.0625 21.96875 24.703125 23.78125 
L 21.578125 24.515625 
Q 13.234375 26.265625 9.515625 29.90625 
Q 5.8125 33.546875 5.8125 39.890625 
Q 5.8125 47.609375 11.28125 51.796875 
Q 16.75 56 26.8125 56 
Q 31.78125 56 36.171875 55.265625 
Q 40.578125 54.546875 44.28125 53.078125 
" id="DejaVuSans-73"/>
    </defs>
    <g style="fill:#f0ad4e;" transform="translate(28.057554 20.551063)scale(0.14 -0.14)">
     <use transform="translate(0 0.765625)" xlink:href="#DejaVuSans-4f"/>
     <use transform="translate(78.710938 0.765625)" xlink:href="#DejaVuSans-62"/>
     <use transform="translate(142.1875 0.765625)" xlink:href="#DejaVuSans-73"/>
     <use transform="translate(194.287109 0.765625)" xlink:href="#DejaVuSans-65"/>
     <use transform="translate(255.810547 0.765625)" xlink:href="#DejaVuSans-72"/>
     <use transform="translate(296.923828 0.765625)" xlink:href="#DejaVuSans-76"/>
     <use transform="translate(356.103516 0.765625)" xlink:href="#DejaVuSans-65"/>
     <use transform="translate(417.626953 0.765625)" xlink:href="#DejaVuSans-64"/>
     <use transform="translate(481.103516 0.765625)" xlink:href="#DejaVuSans-20"/>
     <use transform="translate(512.890625 0.765625)" xlink:href="#DejaVuSans-Oblique-3c7"/>
     <use transform="translate(576.543021 39.046875)scale(0.7)" xlink:href="#DejaVuSans-32"/>
    </g>
    <!-- 0.47 -->
    <defs>
     <path d="M 37.796875 64.3125 
L 12.890625 25.390625 
L 37.796875 25.390625 
z
M 35.203125 72.90625 
L 47.609375 72.90625 
L 47.609375 25.390625 
L 58.015625 25.390625 
L 58.015625 17.1875 
L 47.609375 17.1875 
L 47.609375 0 
L 37.796875 0 
L 37.796875 17.1875 
L 4.890625 17.1875 
L 4.890625 26.703125 
z
" id="DejaVuSans-34"/>
     <path d="M 8.203125 72.90625 
L 55.078125 72.90625 
L 55.078125 68.703125 
L 28.609375 0 
L 18.3125 0 
L 43.21875 64.59375 
L 8.203125 64.59375 
z
" id="DejaVuSans-37"/>
    </defs>
    <g style="fill:#f0ad4e;" transform="translate(56.151616 36.256438)scale(0.14 -0.14)">
     <use xlink:href="#DejaVuSans-30"/>
     <use x="63.623047" xlink:href="#DejaVuSans-2e"/>
     <use x="95.410156" xlink:href="#DejaVuSans-34"/>
     <use x="159.033203" xlink:href="#DejaVuSans-37"/>
    </g>
   </g>
   <g id="text_16">
    <!-- Area under the curve -->
    <defs>
     <path d="M 34.1875 63.1875 
L 20.796875 26.90625 
L 47.609375 26.90625 
z
M 28.609375 72.90625 
L 39.796875 72.90625 
L 67.578125 0 
L 57.328125 0 
L 50.6875 18.703125 
L 17.828125 18.703125 
L 11.1875 0 
L 0.78125 0 
z
" id="DejaVuSans-41"/>
     <path d="M 54.890625 33.015625 
L 54.890625 0 
L 45.90625 0 
L 45.90625 32.71875 
Q 45.90625 40.484375 42.875 44.328125 
Q 39.84375 48.1875 33.796875 48.1875 
Q 26.515625 48.1875 22.3125 43.546875 
Q 18.109375 38.921875 18.109375 30.90625 
L 18.109375 0 
L 9.078125 0 
L 9.078125 75.984375 
L 18.109375 75.984375 
L 18.109375 46.1875 
Q 21.34375 51.125 25.703125 53.5625 
Q 30.078125 56 35.796875 56 
Q 45.21875 56 50.046875 50.171875 
Q 54.890625 44.34375 54.890625 33.015625 
" id="DejaVuSans-68"/>
    </defs>
    <g style="fill:#d2d2d2;" transform="translate(153.36 106.032438)scale(0.14 -0.14)">
     <use xlink:href="#DejaVuSans-41"/>
     <use x="68.408203" xlink:href="#DejaVuSans-72"/>
     <use x="109.490234" xlink:href="#DejaVuSans-65"/>
     <use x="171.013672" xlink:href="#DejaVuSans-61"/>
     <use x="232.292969" xlink:href="#DejaVuSans-20"/>
     <use x="264.080078" xlink:href="#DejaVuSans-75"/>
     <use x="327.458984" xlink:href="#DejaVuSans-6e"/>
     <use x="390.837891" xlink:href="#DejaVuSans-64"/>
     <use x="454.314453" xlink:href="#DejaVuSans-65"/>
     <use x="515.837891" xlink:href="#DejaVuSans-72"/>
     <use x="556.951172" xlink:href="#DejaVuSans-20"/>
     <use x="588.738281" xlink:href="#DejaVuSans-74"/>
     <use x="627.947266" xlink:href="#DejaVuSans-68"/>
     <use x="691.326172" xlink:href="#DejaVuSans-65"/>
     <use x="752.849609" xlink:href="#DejaVuSans-20"/>
     <use x="784.636719" xlink:href="#DejaVuSans-63"/>
     <use x="839.617188" xlink:href="#DejaVuSans-75"/>
     <use x="902.996094" xlink:href="#DejaVuSans-72"/>
     <use x="944.109375" xlink:href="#DejaVuSans-76"/>
     <use x="1003.289062" xlink:href="#DejaVuSans-65"/>
    </g>
    <!-- for $\chi^2\geq$0.47 -->
    <defs>
     <path d="M 30.609375 48.390625 
Q 23.390625 48.390625 19.1875 42.75 
Q 14.984375 37.109375 14.984375 27.296875 
Q 14.984375 17.484375 19.15625 11.84375 
Q 23.34375 6.203125 30.609375 6.203125 
Q 37.796875 6.203125 41.984375 11.859375 
Q 46.1875 17.53125 46.1875 27.296875 
Q 46.1875 37.015625 41.984375 42.703125 
Q 37.796875 48.390625 30.609375 48.390625 
M 30.609375 56 
Q 42.328125 56 49.015625 48.375 
Q 55.71875 40.765625 55.71875 27.296875 
Q 55.71875 13.875 49.015625 6.21875 
Q 42.328125 -1.421875 30.609375 -1.421875 
Q 18.84375 -1.421875 12.171875 6.21875 
Q 5.515625 13.875 5.515625 27.296875 
Q 5.515625 40.765625 12.171875 48.375 
Q 18.84375 56 30.609375 56 
" id="DejaVuSans-6f"/>
     <path d="M 10.59375 49.609375 
L 10.59375 58.203125 
L 73.1875 40.28125 
L 73.1875 31.984375 
L 10.59375 14.015625 
L 10.59375 22.703125 
L 57.515625 36.078125 
z
M 73.1875 8.296875 
L 73.1875 0 
L 10.59375 0 
L 10.59375 8.296875 
z
" id="DejaVuSans-2265"/>
    </defs>
    <g style="fill:#d2d2d2;" transform="translate(153.36 124.232)scale(0.14 -0.14)">
     <use transform="translate(0 0.765625)" xlink:href="#DejaVuSans-66"/>
     <use transform="translate(35.205078 0.765625)" xlink:href="#DejaVuSans-6f"/>
     <use transform="translate(96.386719 0.765625)" xlink:href="#DejaVuSans-72"/>
     <use transform="translate(137.5 0.765625)" xlink:href="#DejaVuSans-20"/>
     <use transform="translate(169.287109 0.765625)" xlink:href="#DejaVuSans-Oblique-3c7"/>
     <use transform="translate(232.939505 39.046875)scale(0.7)" xlink:href="#DejaVuSans-32"/>
     <use transform="translate(299.692435 0.765625)" xlink:href="#DejaVuSans-2265"/>
     <use transform="translate(402.963919 0.765625)" xlink:href="#DejaVuSans-30"/>
     <use transform="translate(466.586966 0.765625)" xlink:href="#DejaVuSans-2e"/>
     <use transform="translate(498.374076 0.765625)" xlink:href="#DejaVuSans-34"/>
     <use transform="translate(561.997122 0.765625)" xlink:href="#DejaVuSans-37"/>
    </g>
   </g>
   <g id="text_17">
    <!-- p-value = 0.925 -->
    <defs>
     <path d="M 18.109375 8.203125 
L 18.109375 -20.796875 
L 9.078125 -20.796875 
L 9.078125 54.6875 
L 18.109375 54.6875 
L 18.109375 46.390625 
Q 20.953125 51.265625 25.265625 53.625 
Q 29.59375 56 35.59375 56 
Q 45.5625 56 51.78125 48.09375 
Q 58.015625 40.1875 58.015625 27.296875 
Q 58.015625 14.40625 51.78125 6.484375 
Q 45.5625 -1.421875 35.59375 -1.421875 
Q 29.59375 -1.421875 25.265625 0.953125 
Q 20.953125 3.328125 18.109375 8.203125 
M 48.6875 27.296875 
Q 48.6875 37.203125 44.609375 42.84375 
Q 40.53125 48.484375 33.40625 48.484375 
Q 26.265625 48.484375 22.1875 42.84375 
Q 18.109375 37.203125 18.109375 27.296875 
Q 18.109375 17.390625 22.1875 11.75 
Q 26.265625 6.109375 33.40625 6.109375 
Q 40.53125 6.109375 44.609375 11.75 
Q 48.6875 17.390625 48.6875 27.296875 
" id="DejaVuSans-70"/>
     <path d="M 4.890625 31.390625 
L 31.203125 31.390625 
L 31.203125 23.390625 
L 4.890625 23.390625 
z
" id="DejaVuSans-2d"/>
     <path d="M 10.984375 1.515625 
L 10.984375 10.5 
Q 14.703125 8.734375 18.5 7.8125 
Q 22.3125 6.890625 25.984375 6.890625 
Q 35.75 6.890625 40.890625 13.453125 
Q 46.046875 20.015625 46.78125 33.40625 
Q 43.953125 29.203125 39.59375 26.953125 
Q 35.25 24.703125 29.984375 24.703125 
Q 19.046875 24.703125 12.671875 31.3125 
Q 6.296875 37.9375 6.296875 49.421875 
Q 6.296875 60.640625 12.9375 67.421875 
Q 19.578125 74.21875 30.609375 74.21875 
Q 43.265625 74.21875 49.921875 64.515625 
Q 56.59375 54.828125 56.59375 36.375 
Q 56.59375 19.140625 48.40625 8.859375 
Q 40.234375 -1.421875 26.421875 -1.421875 
Q 22.703125 -1.421875 18.890625 -0.6875 
Q 15.09375 0.046875 10.984375 1.515625 
M 30.609375 32.421875 
Q 37.25 32.421875 41.125 36.953125 
Q 45.015625 41.5 45.015625 49.421875 
Q 45.015625 57.28125 41.125 61.84375 
Q 37.25 66.40625 30.609375 66.40625 
Q 23.96875 66.40625 20.09375 61.84375 
Q 16.21875 57.28125 16.21875 49.421875 
Q 16.21875 41.5 20.09375 36.953125 
Q 23.96875 32.421875 30.609375 32.421875 
" id="DejaVuSans-39"/>
    </defs>
    <g style="fill:#d9534f;" transform="translate(153.36 164.16)scale(0.14 -0.14)">
     <use xlink:href="#DejaVuSans-70"/>
     <use x="63.476562" xlink:href="#DejaVuSans-2d"/>
     <use x="99.529297" xlink:href="#DejaVuSans-76"/>
     <use x="158.708984" xlink:href="#DejaVuSans-61"/>
     <use x="219.988281" xlink:href="#DejaVuSans-6c"/>
     <use x="247.771484" xlink:href="#DejaVuSans-75"/>
     <use x="311.150391" xlink:href="#DejaVuSans-65"/>
     <use x="372.673828" xlink:href="#DejaVuSans-20"/>
     <use x="404.460938" xlink:href="#DejaVuSans-3d"/>
     <use x="488.25" xlink:href="#DejaVuSans-20"/>
     <use x="520.037109" xlink:href="#DejaVuSans-30"/>
     <use x="583.660156" xlink:href="#DejaVuSans-2e"/>
     <use x="615.447266" xlink:href="#DejaVuSans-39"/>
     <use x="679.070312" xlink:href="#DejaVuSans-32"/>
     <use x="742.693359" xlink:href="#DejaVuSans-35"/>
    </g>
   </g>
  </g>
 </g>
 <defs>
  <clipPath id="p0fa112e9da">
   <rect height="201.6" width="354.24" x="64.8" y="43.2"/>
  </clipPath>
 </defs>
</svg>
