<?xml version="1.0" encoding="utf-8"?>
<!-- Generator: Adobe Illustrator 16.0.4, SVG Export Plug-In . SVG Version: 6.00 Build 0)  -->
<!DOCTYPE svg PUBLIC "-//W3C//DTD SVG 1.1//EN" "http://www.w3.org/Graphics/SVG/1.1/DTD/svg11.dtd">
<svg version="1.1" id="Layer_1" xmlns="http://www.w3.org/2000/svg" xmlns:xlink="http://www.w3.org/1999/xlink" x="0px" y="0px"
	 width="540px" height="126px" viewBox="0 0 540 126" enable-background="new 0 0 540 126" xml:space="preserve">
<g>
	<circle fill="#5BC0DE" cx="82.356" cy="13.55" r="5.952"/>
	<circle fill="#F0AD4E" cx="82.356" cy="27.216" r="5.952"/>
	<circle fill="#5BC0DE" cx="97.273" cy="13.55" r="5.952"/>
	<circle fill="#F0AD4E" cx="97.273" cy="27.216" r="5.952"/>
	<circle fill="#5BC0DE" cx="112.191" cy="13.55" r="5.952"/>
	<circle fill="#F0AD4E" cx="112.191" cy="27.216" r="5.952"/>
	<circle fill="#5BC0DE" cx="127.108" cy="13.55" r="5.952"/>
	<circle fill="#F0AD4E" cx="127.108" cy="27.216" r="5.952"/>
	<circle fill="#5BC0DE" cx="142.026" cy="13.55" r="5.952"/>
	<circle fill="#F0AD4E" cx="142.026" cy="27.216" r="5.952"/>
	<circle fill="#5BC0DE" cx="156.943" cy="13.55" r="5.952"/>
	<circle fill="#F0AD4E" cx="156.943" cy="27.216" r="5.952"/>
</g>
<g>
	<circle fill="#5BC0DE" cx="375.423" cy="12.669" r="5.952"/>
	<circle fill="#F0AD4E" cx="375.423" cy="26.335" r="5.952"/>
	<circle fill="#5BC0DE" cx="390.341" cy="12.669" r="5.952"/>
	<circle fill="#F0AD4E" cx="390.341" cy="26.335" r="5.952"/>
	<circle fill="#5BC0DE" cx="405.258" cy="12.669" r="5.953"/>
	<circle fill="#F0AD4E" cx="405.258" cy="26.335" r="5.953"/>
	<circle fill="#5BC0DE" cx="420.175" cy="12.669" r="5.953"/>
	<circle fill="#F0AD4E" cx="420.175" cy="26.335" r="5.953"/>
	<circle fill="#5BC0DE" cx="435.093" cy="12.669" r="5.952"/>
	<circle fill="#F0AD4E" cx="435.093" cy="26.335" r="5.952"/>
	<circle fill="#5BC0DE" cx="450.011" cy="12.669" r="5.952"/>
	<circle fill="#F0AD4E" cx="450.011" cy="26.335" r="5.952"/>
</g>
<g>
	<path fill="#D2D2D2" d="M93.183,52.781v-9.94h4.116c0.429,0,0.824,0.091,1.183,0.273s0.669,0.42,0.931,0.714
		c0.261,0.294,0.466,0.628,0.616,1.001c0.149,0.374,0.224,0.751,0.224,1.134c0,0.411-0.07,0.805-0.21,1.183
		c-0.14,0.378-0.336,0.711-0.588,1.001c-0.252,0.289-0.553,0.522-0.903,0.7c-0.35,0.177-0.74,0.266-1.169,0.266h-3.22v3.668H93.183z
		 M94.163,48.245h3.178c0.29,0,0.553-0.063,0.791-0.189c0.238-0.126,0.441-0.294,0.609-0.504s0.298-0.453,0.392-0.728
		s0.14-0.562,0.14-0.861c0-0.308-0.054-0.6-0.161-0.875s-0.252-0.516-0.434-0.721c-0.182-0.205-0.397-0.366-0.644-0.483
		c-0.248-0.117-0.506-0.175-0.777-0.175h-3.094V48.245z"/>
	<path fill="#D2D2D2" d="M103.458,52.921c-0.345,0-0.665-0.059-0.959-0.175c-0.294-0.116-0.551-0.277-0.77-0.483
		c-0.219-0.205-0.39-0.445-0.511-0.721c-0.122-0.275-0.182-0.572-0.182-0.889s0.075-0.611,0.224-0.882
		c0.149-0.271,0.359-0.504,0.63-0.7s0.593-0.348,0.966-0.455c0.373-0.107,0.784-0.161,1.232-0.161c0.373,0,0.751,0.033,1.134,0.098
		c0.383,0.065,0.723,0.159,1.022,0.28v-0.658c0-0.644-0.182-1.155-0.546-1.533c-0.364-0.378-0.868-0.567-1.512-0.567
		c-0.373,0-0.756,0.075-1.148,0.224s-0.789,0.364-1.19,0.644l-0.336-0.63c0.942-0.635,1.857-0.952,2.744-0.952
		c0.915,0,1.633,0.257,2.156,0.77s0.784,1.223,0.784,2.128v3.29c0,0.261,0.117,0.392,0.35,0.392v0.84
		c-0.159,0.028-0.28,0.042-0.364,0.042c-0.243,0-0.432-0.061-0.567-0.182c-0.135-0.121-0.208-0.289-0.217-0.504l-0.028-0.574
		c-0.336,0.438-0.758,0.774-1.267,1.008C104.595,52.804,104.047,52.921,103.458,52.921z M103.683,52.193
		c0.495,0,0.95-0.093,1.365-0.28c0.415-0.187,0.73-0.434,0.945-0.742c0.084-0.084,0.147-0.175,0.189-0.273
		c0.042-0.098,0.063-0.189,0.063-0.273v-1.19c-0.317-0.121-0.646-0.214-0.987-0.28c-0.341-0.065-0.688-0.098-1.043-0.098
		c-0.672,0-1.218,0.14-1.638,0.42c-0.42,0.28-0.63,0.649-0.63,1.106c0,0.224,0.044,0.434,0.133,0.63
		c0.089,0.196,0.21,0.366,0.364,0.511c0.154,0.145,0.338,0.259,0.553,0.343S103.44,52.193,103.683,52.193z"/>
	<path fill="#D2D2D2" d="M112.698,52.431c-0.056,0.028-0.138,0.065-0.245,0.112c-0.107,0.046-0.231,0.093-0.371,0.14
		c-0.14,0.047-0.299,0.089-0.476,0.126c-0.177,0.038-0.364,0.056-0.56,0.056c-0.206,0-0.401-0.028-0.588-0.084
		c-0.187-0.056-0.35-0.142-0.49-0.259c-0.14-0.117-0.252-0.264-0.336-0.441c-0.084-0.177-0.126-0.382-0.126-0.616v-5.222h-1.008
		v-0.756h1.008v-2.464h0.952v2.464h1.68v0.756h-1.68v4.956c0.019,0.271,0.114,0.469,0.287,0.595
		c0.172,0.126,0.371,0.189,0.595,0.189c0.271,0,0.509-0.044,0.714-0.133c0.206-0.088,0.336-0.151,0.392-0.189L112.698,52.431z"/>
	<path fill="#D2D2D2" d="M117.528,46.327c-0.644,0.019-1.204,0.196-1.68,0.532c-0.476,0.336-0.812,0.798-1.008,1.386v4.536h-0.952
		v-7.294h0.896v1.75c0.271-0.56,0.635-0.999,1.092-1.316c0.457-0.317,0.947-0.476,1.47-0.476c0.075,0,0.135,0.005,0.182,0.014
		V46.327z"/>
	<path fill="#D2D2D2" d="M121.547,52.921c-0.532,0-1.018-0.101-1.456-0.301c-0.439-0.201-0.819-0.474-1.141-0.819
		c-0.322-0.345-0.572-0.747-0.749-1.204c-0.177-0.457-0.266-0.938-0.266-1.442c0-0.513,0.091-0.999,0.273-1.456
		c0.182-0.457,0.434-0.858,0.756-1.204c0.322-0.345,0.702-0.621,1.141-0.826c0.439-0.206,0.919-0.308,1.442-0.308
		c0.522,0,1.005,0.103,1.449,0.308c0.443,0.205,0.826,0.48,1.148,0.826c0.322,0.346,0.574,0.747,0.756,1.204
		c0.182,0.458,0.273,0.943,0.273,1.456c0,0.504-0.089,0.985-0.266,1.442c-0.177,0.458-0.427,0.859-0.749,1.204
		c-0.322,0.345-0.705,0.618-1.148,0.819C122.566,52.821,122.079,52.921,121.547,52.921z M118.901,49.169
		c0,0.411,0.07,0.791,0.21,1.141c0.14,0.35,0.329,0.658,0.567,0.924c0.238,0.266,0.518,0.474,0.84,0.623
		c0.322,0.149,0.665,0.224,1.029,0.224c0.364,0,0.707-0.077,1.029-0.231c0.322-0.154,0.604-0.364,0.847-0.63
		c0.242-0.266,0.434-0.576,0.574-0.931c0.14-0.354,0.21-0.737,0.21-1.148c0-0.401-0.07-0.781-0.21-1.141s-0.332-0.672-0.574-0.938
		c-0.243-0.266-0.525-0.476-0.847-0.63c-0.322-0.154-0.665-0.231-1.029-0.231c-0.364,0-0.705,0.077-1.022,0.231
		c-0.318,0.154-0.598,0.367-0.84,0.637s-0.434,0.586-0.574,0.945C118.971,48.374,118.901,48.759,118.901,49.169z"/>
	<path fill="#D2D2D2" d="M132.9,52.781h-0.952v-4.074c0-0.868-0.128-1.498-0.385-1.89c-0.257-0.392-0.651-0.588-1.183-0.588
		c-0.28,0-0.56,0.051-0.84,0.154c-0.28,0.103-0.539,0.248-0.777,0.434c-0.238,0.187-0.45,0.408-0.637,0.665
		c-0.187,0.257-0.322,0.534-0.406,0.833v4.466h-0.952v-7.294h0.868v1.652c0.299-0.532,0.726-0.961,1.281-1.288
		c0.555-0.327,1.159-0.49,1.813-0.49c0.401,0,0.742,0.075,1.022,0.224c0.28,0.149,0.504,0.359,0.672,0.63s0.289,0.602,0.364,0.994
		c0.075,0.392,0.112,0.826,0.112,1.302V52.781z"/>
	<path fill="#D2D2D2" d="M137.353,52.921c-0.569,0-1.125-0.094-1.666-0.28c-0.542-0.187-1.008-0.457-1.4-0.812l0.434-0.644
		c0.411,0.336,0.828,0.588,1.253,0.756s0.88,0.252,1.365,0.252c0.588,0,1.057-0.119,1.407-0.357c0.35-0.238,0.525-0.576,0.525-1.015
		c0-0.205-0.047-0.375-0.14-0.511c-0.093-0.135-0.231-0.254-0.413-0.357c-0.182-0.103-0.411-0.193-0.686-0.273
		c-0.275-0.079-0.595-0.161-0.959-0.245c-0.42-0.103-0.784-0.205-1.092-0.308c-0.308-0.103-0.562-0.219-0.763-0.35
		s-0.35-0.292-0.448-0.483c-0.098-0.191-0.147-0.432-0.147-0.721c0-0.364,0.072-0.686,0.217-0.966
		c0.145-0.28,0.341-0.511,0.588-0.693c0.247-0.182,0.537-0.319,0.868-0.413c0.331-0.093,0.684-0.14,1.057-0.14
		c0.56,0,1.068,0.091,1.526,0.273c0.457,0.182,0.826,0.422,1.106,0.721l-0.462,0.56c-0.271-0.28-0.6-0.49-0.987-0.63
		s-0.791-0.21-1.211-0.21c-0.252,0-0.485,0.026-0.7,0.077c-0.215,0.051-0.404,0.133-0.567,0.245
		c-0.163,0.112-0.292,0.254-0.385,0.427c-0.093,0.173-0.14,0.376-0.14,0.609c0,0.196,0.033,0.355,0.098,0.476
		c0.065,0.122,0.172,0.227,0.322,0.315c0.149,0.089,0.338,0.168,0.567,0.238c0.229,0.07,0.506,0.142,0.833,0.217
		c0.466,0.112,0.877,0.224,1.232,0.336c0.354,0.112,0.651,0.243,0.889,0.392c0.238,0.149,0.418,0.332,0.539,0.546
		c0.122,0.215,0.182,0.476,0.182,0.784c0,0.672-0.257,1.204-0.77,1.596C138.911,52.725,138.22,52.921,137.353,52.921z"/>
	<path fill="#D2D2D2" d="M142.854,49.953c0-0.616,0.096-1.106,0.287-1.47c0.191-0.364,0.492-0.667,0.903-0.91
		c0.187-0.112,0.392-0.226,0.616-0.343s0.434-0.259,0.63-0.427c0.196-0.168,0.362-0.369,0.497-0.602
		c0.135-0.233,0.203-0.522,0.203-0.868c0-0.308-0.054-0.574-0.161-0.798s-0.25-0.413-0.427-0.567
		c-0.178-0.154-0.38-0.268-0.609-0.343c-0.229-0.075-0.465-0.112-0.707-0.112c-0.504,0-0.955,0.138-1.351,0.413
		c-0.397,0.275-0.698,0.614-0.903,1.015l-0.658-0.42c0.13-0.29,0.298-0.546,0.504-0.77c0.205-0.224,0.436-0.413,0.693-0.567
		c0.257-0.154,0.532-0.271,0.826-0.35c0.294-0.08,0.595-0.119,0.903-0.119c0.345,0,0.681,0.054,1.008,0.161
		c0.327,0.107,0.618,0.273,0.875,0.497c0.256,0.224,0.462,0.504,0.616,0.84c0.154,0.336,0.231,0.728,0.231,1.176
		c0,0.374-0.054,0.688-0.161,0.945c-0.107,0.256-0.25,0.478-0.427,0.665c-0.177,0.187-0.38,0.348-0.609,0.483
		c-0.229,0.135-0.46,0.268-0.693,0.399c-0.168,0.093-0.327,0.189-0.476,0.287c-0.149,0.098-0.285,0.224-0.406,0.378
		c-0.121,0.154-0.217,0.343-0.287,0.567c-0.07,0.224-0.105,0.504-0.105,0.84H142.854z M142.868,52.781v-1.498h0.826v1.498H142.868z"
		/>
</g>
<g>
	<path fill="#D2D2D2" d="M4.051,81.029v6.96H3.21v-8.52h0.648l5.64,7.092v-7.08h0.84v8.508H9.606L4.051,81.029z"/>
	<path fill="#D2D2D2" d="M14.887,88.109c-0.456,0-0.872-0.086-1.248-0.258c-0.376-0.172-0.702-0.406-0.978-0.702
		s-0.49-0.64-0.642-1.032c-0.152-0.392-0.228-0.804-0.228-1.236c0-0.44,0.078-0.856,0.234-1.248
		c0.156-0.392,0.372-0.736,0.648-1.032c0.276-0.296,0.602-0.532,0.978-0.708c0.376-0.176,0.788-0.264,1.236-0.264
		c0.448,0,0.862,0.088,1.242,0.264c0.38,0.176,0.708,0.412,0.984,0.708c0.276,0.296,0.492,0.64,0.648,1.032
		c0.156,0.392,0.234,0.808,0.234,1.248c0,0.432-0.076,0.844-0.228,1.236c-0.152,0.392-0.366,0.736-0.642,1.032
		c-0.276,0.296-0.604,0.53-0.984,0.702C15.761,88.023,15.343,88.109,14.887,88.109z M12.619,84.893c0,0.353,0.06,0.678,0.18,0.978
		c0.12,0.3,0.282,0.564,0.486,0.792s0.444,0.406,0.72,0.534c0.276,0.128,0.57,0.192,0.882,0.192s0.606-0.066,0.882-0.198
		c0.276-0.132,0.518-0.312,0.726-0.54s0.372-0.494,0.492-0.798c0.12-0.304,0.18-0.632,0.18-0.984c0-0.344-0.06-0.67-0.18-0.978
		c-0.12-0.308-0.284-0.576-0.492-0.804s-0.45-0.408-0.726-0.54c-0.276-0.132-0.57-0.198-0.882-0.198s-0.604,0.066-0.876,0.198
		c-0.272,0.132-0.512,0.314-0.72,0.546s-0.372,0.502-0.492,0.81S12.619,84.541,12.619,84.893z"/>
	<path fill="#D2D2D2" d="M24.618,87.989h-0.816v-3.492c0-0.744-0.11-1.284-0.33-1.62c-0.22-0.336-0.558-0.504-1.014-0.504
		c-0.24,0-0.48,0.044-0.72,0.132c-0.24,0.088-0.462,0.212-0.666,0.372s-0.386,0.35-0.546,0.57c-0.16,0.22-0.276,0.458-0.348,0.714
		v3.828h-0.816v-6.252h0.744v1.416c0.256-0.456,0.622-0.824,1.098-1.104c0.476-0.28,0.994-0.42,1.554-0.42
		c0.344,0,0.636,0.064,0.876,0.192c0.24,0.128,0.432,0.308,0.576,0.54s0.248,0.516,0.312,0.852s0.096,0.708,0.096,1.116V87.989z"/>
	<path fill="#D2D2D2" d="M29.059,88.109c-0.456,0-0.874-0.086-1.254-0.258c-0.38-0.172-0.71-0.408-0.99-0.708
		c-0.28-0.3-0.498-0.646-0.654-1.038c-0.156-0.392-0.234-0.812-0.234-1.26c0-0.44,0.078-0.854,0.234-1.242
		c0.156-0.388,0.372-0.728,0.648-1.02s0.606-0.524,0.99-0.696c0.384-0.172,0.8-0.258,1.248-0.258c0.456,0,0.874,0.086,1.254,0.258
		c0.38,0.172,0.706,0.406,0.978,0.702s0.484,0.636,0.636,1.02c0.152,0.384,0.228,0.792,0.228,1.224c0,0.064,0,0.128,0,0.192
		s-0.004,0.108-0.012,0.132h-5.352c0.024,0.336,0.102,0.646,0.234,0.93c0.132,0.284,0.302,0.53,0.51,0.738s0.446,0.37,0.714,0.486
		c0.268,0.116,0.554,0.174,0.858,0.174c0.2,0,0.4-0.028,0.6-0.084c0.2-0.056,0.384-0.132,0.552-0.228
		c0.168-0.096,0.32-0.214,0.456-0.354c0.136-0.14,0.24-0.294,0.312-0.462l0.708,0.192c-0.096,0.232-0.232,0.442-0.408,0.63
		s-0.38,0.352-0.612,0.492c-0.232,0.14-0.488,0.248-0.768,0.324C29.654,88.071,29.362,88.109,29.059,88.109z M31.362,84.533
		c-0.024-0.336-0.102-0.642-0.234-0.918s-0.3-0.514-0.504-0.714s-0.44-0.356-0.708-0.468c-0.268-0.112-0.554-0.168-0.858-0.168
		c-0.304,0-0.592,0.056-0.864,0.168c-0.272,0.112-0.51,0.268-0.714,0.468s-0.368,0.44-0.492,0.72
		c-0.124,0.28-0.198,0.584-0.222,0.912H31.362z"/>
</g>
<g>
	<path fill="#D2D2D2" d="M90.074,81.065c-0.24-0.272-0.56-0.492-0.96-0.66s-0.856-0.252-1.368-0.252c-0.752,0-1.3,0.142-1.644,0.426
		c-0.344,0.284-0.516,0.67-0.516,1.158c0,0.256,0.046,0.466,0.138,0.63c0.092,0.164,0.234,0.306,0.426,0.426
		c0.192,0.12,0.438,0.224,0.738,0.312c0.3,0.088,0.654,0.176,1.062,0.264c0.456,0.096,0.866,0.204,1.23,0.324
		c0.364,0.12,0.674,0.27,0.93,0.45c0.256,0.18,0.452,0.398,0.588,0.654s0.204,0.576,0.204,0.96c0,0.392-0.076,0.732-0.228,1.02
		s-0.364,0.528-0.636,0.72c-0.272,0.192-0.596,0.334-0.972,0.426s-0.788,0.138-1.236,0.138c-1.32,0-2.46-0.412-3.42-1.236
		l0.42-0.684c0.152,0.16,0.333,0.312,0.546,0.456c0.212,0.144,0.448,0.27,0.708,0.378c0.26,0.108,0.538,0.192,0.834,0.252
		c0.296,0.06,0.608,0.09,0.936,0.09c0.68,0,1.21-0.122,1.59-0.366c0.38-0.244,0.57-0.614,0.57-1.11c0-0.264-0.054-0.486-0.162-0.666
		c-0.108-0.18-0.27-0.336-0.486-0.468c-0.216-0.132-0.484-0.246-0.804-0.342c-0.32-0.096-0.692-0.192-1.116-0.288
		c-0.448-0.104-0.84-0.212-1.176-0.324c-0.336-0.112-0.62-0.252-0.852-0.42c-0.232-0.168-0.406-0.37-0.522-0.606
		c-0.116-0.236-0.174-0.526-0.174-0.87c0-0.392,0.074-0.742,0.222-1.05c0.148-0.308,0.358-0.564,0.63-0.768
		c0.272-0.204,0.592-0.36,0.96-0.468c0.368-0.108,0.776-0.162,1.224-0.162c0.568,0,1.074,0.086,1.518,0.258
		c0.444,0.172,0.846,0.414,1.206,0.726L90.074,81.065z"/>
	<path fill="#D2D2D2" d="M94.874,88.109c-0.456,0-0.872-0.086-1.248-0.258c-0.376-0.172-0.702-0.406-0.978-0.702
		s-0.49-0.64-0.642-1.032c-0.152-0.392-0.228-0.804-0.228-1.236c0-0.44,0.078-0.856,0.234-1.248
		c0.156-0.392,0.372-0.736,0.648-1.032c0.276-0.296,0.602-0.532,0.978-0.708c0.376-0.176,0.788-0.264,1.236-0.264
		c0.448,0,0.862,0.088,1.242,0.264c0.38,0.176,0.708,0.412,0.984,0.708c0.276,0.296,0.492,0.64,0.648,1.032
		c0.156,0.392,0.234,0.808,0.234,1.248c0,0.432-0.076,0.844-0.228,1.236c-0.152,0.392-0.366,0.736-0.642,1.032
		c-0.276,0.296-0.604,0.53-0.984,0.702C95.748,88.023,95.33,88.109,94.874,88.109z M92.605,84.893c0,0.353,0.06,0.678,0.18,0.978
		c0.12,0.3,0.282,0.564,0.486,0.792s0.444,0.406,0.72,0.534c0.276,0.128,0.57,0.192,0.882,0.192s0.606-0.066,0.882-0.198
		c0.276-0.132,0.518-0.312,0.726-0.54s0.372-0.494,0.492-0.798c0.12-0.304,0.18-0.632,0.18-0.984c0-0.344-0.06-0.67-0.18-0.978
		c-0.12-0.308-0.284-0.576-0.492-0.804s-0.45-0.408-0.726-0.54c-0.276-0.132-0.57-0.198-0.882-0.198s-0.604,0.066-0.876,0.198
		c-0.272,0.132-0.512,0.314-0.72,0.546s-0.372,0.502-0.492,0.81S92.605,84.541,92.605,84.893z"/>
	<path fill="#D2D2D2" d="M108.65,87.989h-0.816v-3.492c0-0.728-0.116-1.264-0.348-1.608c-0.232-0.344-0.576-0.516-1.032-0.516
		c-0.24,0-0.466,0.044-0.678,0.132c-0.212,0.088-0.408,0.212-0.588,0.372c-0.18,0.16-0.338,0.35-0.474,0.57
		c-0.136,0.22-0.24,0.462-0.312,0.726v3.816h-0.816v-3.492c0-0.744-0.112-1.284-0.336-1.62c-0.224-0.336-0.568-0.504-1.032-0.504
		c-0.472,0-0.892,0.164-1.26,0.492c-0.368,0.328-0.632,0.76-0.792,1.296v3.828H99.35v-6.252h0.744v1.416
		c0.256-0.48,0.592-0.854,1.008-1.122s0.876-0.402,1.38-0.402c0.528,0,0.95,0.148,1.266,0.444s0.51,0.684,0.582,1.164
		c0.584-1.072,1.388-1.608,2.412-1.608c0.352,0,0.65,0.064,0.894,0.192s0.44,0.31,0.588,0.546c0.148,0.236,0.256,0.52,0.324,0.852
		c0.068,0.332,0.102,0.702,0.102,1.11V87.989z"/>
	<path fill="#D2D2D2" d="M113.078,88.109c-0.456,0-0.874-0.086-1.254-0.258c-0.38-0.172-0.71-0.408-0.99-0.708
		c-0.28-0.3-0.498-0.646-0.654-1.038c-0.156-0.392-0.234-0.812-0.234-1.26c0-0.44,0.078-0.854,0.234-1.242
		c0.156-0.388,0.372-0.728,0.648-1.02s0.606-0.524,0.99-0.696c0.384-0.172,0.8-0.258,1.248-0.258c0.456,0,0.874,0.086,1.254,0.258
		c0.38,0.172,0.706,0.406,0.978,0.702s0.484,0.636,0.636,1.02c0.152,0.384,0.228,0.792,0.228,1.224c0,0.064,0,0.128,0,0.192
		s-0.004,0.108-0.012,0.132h-5.352c0.024,0.336,0.102,0.646,0.234,0.93c0.132,0.284,0.302,0.53,0.51,0.738s0.446,0.37,0.714,0.486
		c0.268,0.116,0.554,0.174,0.858,0.174c0.2,0,0.4-0.028,0.6-0.084c0.2-0.056,0.384-0.132,0.552-0.228
		c0.168-0.096,0.32-0.214,0.456-0.354c0.136-0.14,0.24-0.294,0.312-0.462l0.708,0.192c-0.096,0.232-0.232,0.442-0.408,0.63
		s-0.38,0.352-0.612,0.492c-0.232,0.14-0.488,0.248-0.768,0.324C113.673,88.071,113.381,88.109,113.078,88.109z M115.381,84.533
		c-0.024-0.336-0.102-0.642-0.234-0.918s-0.3-0.514-0.504-0.714s-0.44-0.356-0.708-0.468c-0.268-0.112-0.554-0.168-0.858-0.168
		c-0.304,0-0.592,0.056-0.864,0.168c-0.272,0.112-0.51,0.268-0.714,0.468s-0.368,0.44-0.492,0.72
		c-0.124,0.28-0.198,0.584-0.222,0.912H115.381z"/>
</g>
<g>
	<path fill="#D2D2D2" d="M207.616,87.989v-8.52h5.592v0.744h-4.752v3.132h4.008v0.696h-4.008v3.948H207.616z"/>
	<path fill="#D2D2D2" d="M216.064,88.109c-0.68,0-1.186-0.226-1.518-0.678c-0.332-0.452-0.498-1.126-0.498-2.022v-3.672h0.816v3.528
		c0,1.416,0.484,2.124,1.452,2.124c0.24,0,0.476-0.04,0.708-0.12c0.232-0.08,0.446-0.196,0.642-0.348
		c0.196-0.152,0.372-0.332,0.528-0.54c0.156-0.208,0.282-0.444,0.378-0.708v-3.936h0.816v5.196c0,0.224,0.096,0.336,0.288,0.336
		v0.72c-0.096,0.016-0.174,0.024-0.234,0.024s-0.102,0-0.126,0c-0.192-0.008-0.348-0.076-0.468-0.204
		c-0.12-0.128-0.18-0.3-0.18-0.516v-0.72c-0.272,0.488-0.642,0.866-1.11,1.134C217.09,87.975,216.592,88.109,216.064,88.109z"/>
	<path fill="#D2D2D2" d="M221.272,79.229h0.816v7.344c0,0.232,0.064,0.414,0.192,0.546c0.128,0.132,0.308,0.198,0.54,0.198
		c0.088,0,0.192-0.012,0.312-0.036s0.232-0.056,0.336-0.096l0.144,0.66c-0.152,0.064-0.338,0.116-0.558,0.156
		c-0.22,0.04-0.41,0.06-0.57,0.06c-0.376,0-0.672-0.106-0.888-0.318c-0.216-0.212-0.324-0.51-0.324-0.894V79.229z"/>
	<path fill="#D2D2D2" d="M224.536,79.229h0.816v7.344c0,0.232,0.064,0.414,0.192,0.546c0.128,0.132,0.308,0.198,0.54,0.198
		c0.088,0,0.192-0.012,0.312-0.036s0.232-0.056,0.336-0.096l0.144,0.66c-0.152,0.064-0.338,0.116-0.558,0.156
		c-0.22,0.04-0.41,0.06-0.57,0.06c-0.376,0-0.672-0.106-0.888-0.318c-0.216-0.212-0.324-0.51-0.324-0.894V79.229z"/>
</g>
<g>
	<path fill="#D2D2D2" d="M291.525,87.989v-8.52h5.592v0.744h-4.752v3.132h4.008v0.696h-4.008v3.948H291.525z"/>
	<path fill="#D2D2D2" d="M301.078,82.457c-0.553,0.016-1.033,0.168-1.44,0.456c-0.408,0.288-0.696,0.684-0.864,1.188v3.888h-0.816
		v-6.252h0.769v1.5c0.231-0.48,0.544-0.856,0.937-1.128c0.392-0.272,0.812-0.408,1.26-0.408c0.063,0,0.115,0.004,0.156,0.012V82.457
		z"/>
	<path fill="#D2D2D2" d="M304.558,88.109c-0.456,0-0.874-0.086-1.254-0.258c-0.38-0.172-0.71-0.408-0.99-0.708
		c-0.28-0.3-0.498-0.646-0.653-1.038c-0.156-0.392-0.234-0.812-0.234-1.26c0-0.44,0.078-0.854,0.234-1.242
		c0.155-0.388,0.371-0.728,0.647-1.02s0.606-0.524,0.989-0.696c0.385-0.172,0.801-0.258,1.248-0.258
		c0.457,0,0.875,0.086,1.254,0.258c0.381,0.172,0.707,0.406,0.979,0.702s0.484,0.636,0.637,1.02
		c0.151,0.384,0.228,0.792,0.228,1.224c0,0.064,0,0.128,0,0.192s-0.005,0.108-0.013,0.132h-5.352
		c0.024,0.336,0.102,0.646,0.234,0.93c0.132,0.284,0.302,0.53,0.51,0.738s0.445,0.37,0.714,0.486
		c0.269,0.116,0.554,0.174,0.858,0.174c0.199,0,0.4-0.028,0.6-0.084c0.2-0.056,0.385-0.132,0.553-0.228
		c0.168-0.096,0.319-0.214,0.455-0.354c0.137-0.14,0.24-0.294,0.312-0.462l0.708,0.192c-0.097,0.232-0.232,0.442-0.408,0.63
		s-0.38,0.352-0.612,0.492s-0.488,0.248-0.768,0.324C305.153,88.071,304.861,88.109,304.558,88.109z M306.861,84.533
		c-0.023-0.336-0.102-0.642-0.234-0.918c-0.131-0.276-0.299-0.514-0.504-0.714c-0.203-0.2-0.439-0.356-0.707-0.468
		c-0.269-0.112-0.555-0.168-0.858-0.168s-0.593,0.056-0.864,0.168c-0.271,0.112-0.51,0.268-0.714,0.468s-0.368,0.44-0.492,0.72
		c-0.124,0.28-0.198,0.584-0.222,0.912H306.861z"/>
	<path fill="#D2D2D2" d="M314.157,87.989h-0.815v-3.492c0-0.744-0.11-1.284-0.33-1.62c-0.221-0.336-0.559-0.504-1.014-0.504
		c-0.24,0-0.48,0.044-0.721,0.132s-0.462,0.212-0.666,0.372s-0.386,0.35-0.546,0.57c-0.16,0.22-0.276,0.458-0.349,0.714v3.828
		h-0.815v-6.252h0.744v1.416c0.256-0.456,0.622-0.824,1.099-1.104c0.475-0.28,0.993-0.42,1.553-0.42
		c0.344,0,0.637,0.064,0.877,0.192s0.432,0.308,0.576,0.54c0.144,0.232,0.248,0.516,0.312,0.852s0.096,0.708,0.096,1.116V87.989z"/>
	<path fill="#D2D2D2" d="M315.465,84.845c0-0.44,0.076-0.856,0.229-1.248c0.152-0.392,0.366-0.734,0.643-1.026
		c0.275-0.292,0.605-0.522,0.99-0.69c0.383-0.168,0.807-0.252,1.271-0.252c0.592,0,1.107,0.134,1.548,0.402s0.772,0.63,0.996,1.086
		l-0.792,0.252c-0.176-0.32-0.422-0.57-0.738-0.75c-0.316-0.18-0.666-0.27-1.05-0.27c-0.319,0-0.618,0.064-0.894,0.192
		c-0.276,0.128-0.517,0.302-0.721,0.522c-0.203,0.22-0.363,0.482-0.479,0.786c-0.116,0.304-0.175,0.636-0.175,0.996
		c0,0.352,0.061,0.684,0.181,0.996s0.284,0.582,0.491,0.81c0.209,0.228,0.451,0.408,0.727,0.54c0.276,0.132,0.57,0.198,0.883,0.198
		c0.199,0,0.396-0.028,0.594-0.084c0.195-0.056,0.377-0.134,0.545-0.234s0.312-0.214,0.433-0.342s0.204-0.264,0.252-0.408
		l0.804,0.24c-0.088,0.224-0.216,0.43-0.384,0.618s-0.366,0.352-0.594,0.492s-0.479,0.248-0.756,0.324
		c-0.276,0.076-0.562,0.114-0.858,0.114c-0.456,0-0.876-0.086-1.26-0.258c-0.385-0.172-0.717-0.408-0.996-0.708
		c-0.28-0.3-0.498-0.646-0.654-1.038S315.465,85.293,315.465,84.845z"/>
	<path fill="#D2D2D2" d="M327.741,87.989h-0.815v-3.492c0-0.712-0.123-1.244-0.366-1.596c-0.244-0.352-0.603-0.528-1.074-0.528
		c-0.231,0-0.462,0.046-0.69,0.138c-0.228,0.092-0.441,0.218-0.642,0.378c-0.2,0.16-0.374,0.348-0.522,0.564
		c-0.147,0.216-0.258,0.452-0.33,0.708v3.828h-0.815v-8.76h0.815v3.924c0.248-0.472,0.593-0.844,1.033-1.116
		c0.439-0.271,0.916-0.408,1.428-0.408c0.359,0,0.664,0.066,0.912,0.198c0.248,0.132,0.451,0.316,0.611,0.552
		s0.276,0.52,0.348,0.852c0.072,0.332,0.108,0.698,0.108,1.098V87.989z"/>
</g>
<g>
	<path fill="#D2D2D2" d="M360.967,87.989v-8.52h0.841v8.52H360.967z"/>
	<path fill="#D2D2D2" d="M366.775,87.689c-0.049,0.024-0.119,0.056-0.211,0.096s-0.197,0.08-0.317,0.12s-0.257,0.076-0.408,0.108
		s-0.312,0.048-0.479,0.048c-0.176,0-0.344-0.024-0.504-0.072s-0.301-0.122-0.42-0.222c-0.121-0.1-0.217-0.226-0.289-0.378
		c-0.071-0.152-0.107-0.328-0.107-0.528v-4.476h-0.864v-0.648h0.864v-2.112h0.816v2.112h1.439v0.648h-1.439v4.248
		c0.016,0.232,0.098,0.402,0.246,0.51c0.147,0.108,0.317,0.162,0.51,0.162c0.231,0,0.436-0.038,0.611-0.114s0.289-0.13,0.336-0.162
		L366.775,87.689z"/>
	<path fill="#D2D2D2" d="M369.367,88.109c-0.297,0-0.57-0.05-0.822-0.15c-0.252-0.1-0.473-0.238-0.66-0.414
		c-0.188-0.176-0.334-0.382-0.438-0.618c-0.104-0.236-0.156-0.49-0.156-0.762c0-0.271,0.064-0.523,0.191-0.756
		c0.129-0.232,0.309-0.432,0.541-0.6c0.231-0.168,0.508-0.298,0.828-0.39c0.319-0.092,0.672-0.138,1.056-0.138
		c0.319,0,0.644,0.028,0.972,0.084c0.328,0.056,0.62,0.136,0.876,0.24v-0.564c0-0.552-0.155-0.99-0.468-1.314
		c-0.312-0.324-0.744-0.486-1.296-0.486c-0.32,0-0.647,0.064-0.984,0.192c-0.336,0.128-0.676,0.312-1.021,0.552l-0.287-0.54
		c0.808-0.544,1.592-0.816,2.352-0.816c0.784,0,1.4,0.22,1.848,0.66c0.449,0.44,0.672,1.048,0.672,1.824v2.82
		c0,0.224,0.101,0.336,0.301,0.336v0.72c-0.137,0.024-0.24,0.036-0.312,0.036c-0.207,0-0.369-0.052-0.485-0.156
		c-0.116-0.104-0.179-0.248-0.187-0.432l-0.023-0.492c-0.288,0.376-0.65,0.664-1.086,0.864
		C370.341,88.009,369.871,88.109,369.367,88.109z M369.559,87.485c0.424,0,0.814-0.08,1.17-0.24c0.356-0.16,0.627-0.372,0.811-0.636
		c0.072-0.072,0.126-0.15,0.162-0.234c0.035-0.084,0.054-0.162,0.054-0.234v-1.02c-0.272-0.104-0.554-0.184-0.846-0.24
		s-0.591-0.084-0.894-0.084c-0.576,0-1.045,0.12-1.404,0.36c-0.36,0.24-0.541,0.556-0.541,0.948c0,0.192,0.039,0.372,0.115,0.54
		c0.075,0.168,0.18,0.314,0.312,0.438s0.29,0.222,0.474,0.294C369.154,87.449,369.352,87.485,369.559,87.485z"/>
	<path fill="#D2D2D2" d="M374.371,79.229h0.816v7.344c0,0.232,0.063,0.414,0.191,0.546c0.128,0.132,0.309,0.198,0.54,0.198
		c0.088,0,0.192-0.012,0.312-0.036c0.121-0.024,0.232-0.056,0.336-0.096l0.145,0.66c-0.152,0.064-0.338,0.116-0.559,0.156
		c-0.219,0.04-0.409,0.06-0.569,0.06c-0.376,0-0.672-0.106-0.888-0.318c-0.217-0.212-0.324-0.51-0.324-0.894V79.229z"/>
	<path fill="#D2D2D2" d="M377.6,80.429v-1.2h0.815v1.2H377.6z M377.6,87.989v-6.252h0.815v6.252H377.6z"/>
	<path fill="#D2D2D2" d="M381.787,88.109c-0.297,0-0.57-0.05-0.822-0.15c-0.252-0.1-0.473-0.238-0.66-0.414
		c-0.188-0.176-0.334-0.382-0.438-0.618c-0.104-0.236-0.156-0.49-0.156-0.762c0-0.271,0.064-0.523,0.191-0.756
		c0.129-0.232,0.309-0.432,0.541-0.6c0.231-0.168,0.508-0.298,0.828-0.39c0.319-0.092,0.672-0.138,1.056-0.138
		c0.319,0,0.644,0.028,0.972,0.084c0.328,0.056,0.62,0.136,0.876,0.24v-0.564c0-0.552-0.155-0.99-0.468-1.314
		c-0.312-0.324-0.744-0.486-1.296-0.486c-0.32,0-0.647,0.064-0.984,0.192c-0.336,0.128-0.676,0.312-1.021,0.552l-0.287-0.54
		c0.808-0.544,1.592-0.816,2.352-0.816c0.784,0,1.4,0.22,1.848,0.66c0.449,0.44,0.672,1.048,0.672,1.824v2.82
		c0,0.224,0.101,0.336,0.301,0.336v0.72c-0.137,0.024-0.24,0.036-0.312,0.036c-0.207,0-0.369-0.052-0.485-0.156
		c-0.116-0.104-0.179-0.248-0.187-0.432l-0.023-0.492c-0.288,0.376-0.65,0.664-1.086,0.864
		C382.761,88.009,382.291,88.109,381.787,88.109z M381.979,87.485c0.424,0,0.814-0.08,1.17-0.24c0.356-0.16,0.627-0.372,0.811-0.636
		c0.072-0.072,0.126-0.15,0.162-0.234c0.035-0.084,0.054-0.162,0.054-0.234v-1.02c-0.272-0.104-0.554-0.184-0.846-0.24
		s-0.591-0.084-0.894-0.084c-0.576,0-1.045,0.12-1.404,0.36c-0.36,0.24-0.541,0.556-0.541,0.948c0,0.192,0.039,0.372,0.115,0.54
		c0.075,0.168,0.18,0.314,0.312,0.438s0.29,0.222,0.474,0.294C381.574,87.449,381.771,87.485,381.979,87.485z"/>
	<path fill="#D2D2D2" d="M392.011,87.989h-0.815v-3.492c0-0.744-0.11-1.284-0.33-1.62c-0.221-0.336-0.559-0.504-1.014-0.504
		c-0.24,0-0.48,0.044-0.721,0.132s-0.462,0.212-0.666,0.372s-0.386,0.35-0.546,0.57c-0.16,0.22-0.276,0.458-0.349,0.714v3.828
		h-0.815v-6.252h0.744v1.416c0.256-0.456,0.622-0.824,1.099-1.104c0.475-0.28,0.993-0.42,1.553-0.42
		c0.344,0,0.637,0.064,0.877,0.192s0.432,0.308,0.576,0.54c0.144,0.232,0.248,0.516,0.312,0.852s0.096,0.708,0.096,1.116V87.989z"/>
</g>
<g>
	<path fill="#D2D2D2" d="M442.391,80.213h-3.035v7.776h-0.84v-7.776h-3.037v-0.744h6.912V80.213z"/>
	<path fill="#D2D2D2" d="M448.75,87.989h-0.815v-3.492c0-0.712-0.122-1.244-0.366-1.596s-0.602-0.528-1.074-0.528
		c-0.231,0-0.461,0.046-0.689,0.138c-0.229,0.092-0.441,0.218-0.643,0.378c-0.199,0.16-0.373,0.348-0.521,0.564
		c-0.148,0.216-0.258,0.452-0.33,0.708v3.828h-0.816v-8.76h0.816v3.924c0.248-0.472,0.592-0.844,1.032-1.116
		c0.44-0.271,0.916-0.408,1.428-0.408c0.36,0,0.664,0.066,0.912,0.198c0.248,0.132,0.452,0.316,0.612,0.552s0.275,0.52,0.348,0.852
		s0.107,0.698,0.107,1.098V87.989z"/>
	<path fill="#D2D2D2" d="M452.062,88.109c-0.296,0-0.57-0.05-0.822-0.15c-0.252-0.1-0.472-0.238-0.659-0.414
		c-0.188-0.176-0.335-0.382-0.438-0.618s-0.156-0.49-0.156-0.762c0-0.271,0.064-0.523,0.192-0.756c0.128-0.232,0.308-0.432,0.54-0.6
		s0.508-0.298,0.828-0.39c0.32-0.092,0.672-0.138,1.057-0.138c0.319,0,0.643,0.028,0.971,0.084c0.328,0.056,0.621,0.136,0.877,0.24
		v-0.564c0-0.552-0.156-0.99-0.469-1.314c-0.312-0.324-0.744-0.486-1.295-0.486c-0.32,0-0.648,0.064-0.984,0.192
		c-0.336,0.128-0.676,0.312-1.021,0.552l-0.288-0.54c0.809-0.544,1.592-0.816,2.352-0.816c0.785,0,1.4,0.22,1.849,0.66
		c0.448,0.44,0.672,1.048,0.672,1.824v2.82c0,0.224,0.101,0.336,0.3,0.336v0.72c-0.136,0.024-0.24,0.036-0.312,0.036
		c-0.208,0-0.37-0.052-0.485-0.156c-0.117-0.104-0.179-0.248-0.187-0.432l-0.024-0.492c-0.287,0.376-0.65,0.664-1.086,0.864
		C453.037,88.009,452.566,88.109,452.062,88.109z M452.255,87.485c0.424,0,0.813-0.08,1.17-0.24c0.356-0.16,0.626-0.372,0.81-0.636
		c0.072-0.072,0.127-0.15,0.162-0.234c0.036-0.084,0.055-0.162,0.055-0.234v-1.02c-0.272-0.104-0.555-0.184-0.846-0.24
		c-0.293-0.056-0.591-0.084-0.895-0.084c-0.576,0-1.044,0.12-1.404,0.36c-0.359,0.24-0.54,0.556-0.54,0.948
		c0,0.192,0.038,0.372,0.114,0.54c0.076,0.168,0.18,0.314,0.312,0.438c0.131,0.124,0.289,0.222,0.474,0.294
		C451.851,87.449,452.047,87.485,452.255,87.485z"/>
	<path fill="#D2D2D2" d="M457.031,80.429v-1.2h0.815v1.2H457.031z M457.031,87.989v-6.252h0.815v6.252H457.031z"/>
</g>
<g>
	<path fill="#D2D2D2" d="M506.793,85.793c0,0.32-0.063,0.614-0.191,0.882c-0.129,0.268-0.301,0.5-0.516,0.696
		c-0.217,0.196-0.469,0.348-0.756,0.456c-0.289,0.108-0.597,0.162-0.925,0.162h-4.021v-8.52h4.104c0.296,0,0.563,0.064,0.804,0.192
		c0.24,0.128,0.444,0.294,0.612,0.498s0.298,0.436,0.39,0.696c0.092,0.26,0.139,0.522,0.139,0.786c0,0.432-0.108,0.826-0.324,1.182
		s-0.516,0.622-0.9,0.798c0.488,0.144,0.875,0.412,1.158,0.804C506.651,84.817,506.793,85.273,506.793,85.793z M501.226,80.201
		v3.144h2.928c0.208,0,0.401-0.044,0.582-0.132s0.334-0.204,0.462-0.348s0.229-0.31,0.301-0.498
		c0.071-0.188,0.107-0.386,0.107-0.594c0-0.216-0.034-0.42-0.102-0.612c-0.068-0.192-0.164-0.358-0.289-0.498
		c-0.123-0.14-0.27-0.252-0.438-0.336s-0.352-0.126-0.552-0.126H501.226z M505.953,85.649c0-0.208-0.035-0.41-0.107-0.606
		c-0.072-0.196-0.174-0.368-0.307-0.516c-0.132-0.148-0.287-0.268-0.468-0.36c-0.18-0.092-0.374-0.138-0.582-0.138h-3.264v3.228
		h3.18c0.216,0,0.418-0.044,0.606-0.132c0.188-0.088,0.352-0.206,0.492-0.354c0.139-0.148,0.25-0.32,0.33-0.516
		C505.913,86.059,505.953,85.857,505.953,85.649z"/>
	<path fill="#D2D2D2" d="M510.165,88.109c-0.681,0-1.187-0.226-1.519-0.678c-0.332-0.452-0.498-1.126-0.498-2.022v-3.672h0.816
		v3.528c0,1.416,0.484,2.124,1.452,2.124c0.24,0,0.476-0.04,0.708-0.12c0.232-0.08,0.445-0.196,0.643-0.348
		c0.195-0.152,0.371-0.332,0.527-0.54s0.282-0.444,0.378-0.708v-3.936h0.816v5.196c0,0.224,0.096,0.336,0.288,0.336v0.72
		c-0.096,0.016-0.174,0.024-0.234,0.024s-0.102,0-0.126,0c-0.192-0.008-0.349-0.076-0.468-0.204c-0.12-0.128-0.18-0.3-0.18-0.516
		v-0.72c-0.272,0.488-0.643,0.866-1.11,1.134C511.191,87.975,510.693,88.109,510.165,88.109z"/>
	<path fill="#D2D2D2" d="M518.457,82.457c-0.553,0.016-1.032,0.168-1.439,0.456c-0.408,0.288-0.697,0.684-0.865,1.188v3.888h-0.815
		v-6.252h0.769v1.5c0.231-0.48,0.543-0.856,0.936-1.128s0.812-0.408,1.26-0.408c0.064,0,0.116,0.004,0.156,0.012V82.457z"/>
	<path fill="#D2D2D2" d="M521.746,88.073c-0.433,0-0.826-0.09-1.183-0.27s-0.664-0.418-0.925-0.714
		c-0.26-0.296-0.461-0.636-0.605-1.02c-0.145-0.384-0.216-0.78-0.216-1.188c0-0.432,0.069-0.846,0.21-1.242s0.338-0.742,0.594-1.038
		c0.256-0.296,0.562-0.532,0.918-0.708c0.356-0.176,0.75-0.264,1.182-0.264c0.537,0,1,0.134,1.393,0.402s0.729,0.606,1.008,1.014
		v-1.308h0.732v6.276c0,0.432-0.082,0.814-0.246,1.146s-0.384,0.61-0.66,0.834c-0.275,0.224-0.6,0.392-0.972,0.504
		c-0.372,0.112-0.767,0.168-1.183,0.168c-0.72,0-1.3-0.128-1.74-0.384c-0.439-0.256-0.795-0.6-1.067-1.032l0.504-0.396
		c0.248,0.4,0.576,0.694,0.984,0.882c0.407,0.188,0.848,0.282,1.319,0.282c0.305,0,0.592-0.042,0.864-0.126s0.511-0.208,0.714-0.372
		c0.204-0.164,0.366-0.372,0.486-0.624c0.12-0.252,0.18-0.546,0.18-0.882v-1.236c-0.24,0.4-0.568,0.716-0.984,0.948
		C522.637,87.957,522.201,88.073,521.746,88.073z M521.974,87.389c0.239,0,0.476-0.044,0.708-0.132s0.441-0.206,0.63-0.354
		s0.346-0.314,0.474-0.498s0.212-0.372,0.252-0.564v-1.932c-0.088-0.224-0.208-0.432-0.359-0.624
		c-0.152-0.192-0.324-0.356-0.516-0.492c-0.193-0.136-0.398-0.244-0.619-0.324c-0.22-0.08-0.441-0.12-0.666-0.12
		c-0.352,0-0.666,0.074-0.941,0.222c-0.276,0.148-0.51,0.342-0.702,0.582c-0.192,0.24-0.338,0.512-0.438,0.816
		c-0.1,0.304-0.149,0.612-0.149,0.924c0,0.336,0.06,0.656,0.18,0.96c0.12,0.304,0.286,0.57,0.498,0.798s0.458,0.408,0.738,0.54
		C521.342,87.323,521.646,87.389,521.974,87.389z"/>
	<path fill="#D2D2D2" d="M529.354,88.109c-0.456,0-0.874-0.086-1.254-0.258c-0.381-0.172-0.711-0.408-0.99-0.708
		c-0.28-0.3-0.498-0.646-0.654-1.038s-0.234-0.812-0.234-1.26c0-0.44,0.078-0.854,0.234-1.242c0.156-0.388,0.373-0.728,0.648-1.02
		s0.605-0.524,0.99-0.696c0.384-0.172,0.799-0.258,1.248-0.258c0.455,0,0.873,0.086,1.254,0.258
		c0.379,0.172,0.705,0.406,0.978,0.702s0.483,0.636,0.636,1.02c0.152,0.384,0.229,0.792,0.229,1.224c0,0.064,0,0.128,0,0.192
		s-0.004,0.108-0.012,0.132h-5.353c0.024,0.336,0.103,0.646,0.234,0.93c0.132,0.284,0.302,0.53,0.51,0.738s0.446,0.37,0.714,0.486
		c0.268,0.116,0.555,0.174,0.858,0.174c0.2,0,0.399-0.028,0.6-0.084s0.384-0.132,0.552-0.228c0.168-0.096,0.32-0.214,0.457-0.354
		c0.135-0.14,0.239-0.294,0.312-0.462l0.708,0.192c-0.096,0.232-0.232,0.442-0.408,0.63s-0.38,0.352-0.611,0.492
		c-0.232,0.14-0.488,0.248-0.769,0.324C529.949,88.071,529.657,88.109,529.354,88.109z M531.657,84.533
		c-0.024-0.336-0.103-0.642-0.233-0.918c-0.133-0.276-0.301-0.514-0.504-0.714c-0.205-0.2-0.44-0.356-0.709-0.468
		c-0.268-0.112-0.554-0.168-0.857-0.168c-0.305,0-0.592,0.056-0.864,0.168c-0.272,0.112-0.51,0.268-0.714,0.468
		s-0.368,0.44-0.492,0.72c-0.124,0.28-0.197,0.584-0.222,0.912H531.657z"/>
	<path fill="#D2D2D2" d="M536.816,82.457c-0.552,0.016-1.031,0.168-1.439,0.456c-0.408,0.288-0.696,0.684-0.864,1.188v3.888h-0.815
		v-6.252h0.768v1.5c0.232-0.48,0.544-0.856,0.936-1.128c0.393-0.272,0.812-0.408,1.26-0.408c0.064,0,0.117,0.004,0.156,0.012V82.457
		z"/>
</g>
<g>
	<path fill="#D2D2D2" d="M401.859,43.709h-3.541v9.072h-0.98v-9.072h-3.542v-0.868h8.063V43.709z"/>
	<path fill="#D2D2D2" d="M402.463,55.021c0.074,0.009,0.146,0.016,0.217,0.021c0.069,0.004,0.137,0.007,0.203,0.007
		c0.168,0,0.301-0.023,0.398-0.07c0.098-0.047,0.193-0.149,0.287-0.308c0.093-0.159,0.198-0.388,0.314-0.686
		c0.117-0.299,0.283-0.7,0.498-1.204l-3.179-7.294h0.979l2.703,6.412l2.506-6.412h0.91l-3.781,9.408
		c-0.102,0.271-0.272,0.506-0.51,0.707c-0.238,0.201-0.562,0.301-0.974,0.301c-0.093,0-0.183-0.002-0.267-0.007
		c-0.084-0.005-0.186-0.017-0.307-0.035V55.021z"/>
	<path fill="#D2D2D2" d="M413.354,52.921c-0.615,0-1.159-0.156-1.631-0.469c-0.471-0.312-0.852-0.707-1.141-1.183v4.494h-0.952
		V45.487h0.854v1.414c0.299-0.458,0.686-0.828,1.162-1.113c0.476-0.285,0.994-0.427,1.554-0.427c0.504,0,0.966,0.105,1.386,0.315
		s0.784,0.49,1.092,0.84c0.309,0.35,0.549,0.754,0.721,1.211c0.174,0.458,0.26,0.929,0.26,1.414c0,0.514-0.08,0.999-0.238,1.456
		c-0.158,0.458-0.385,0.859-0.679,1.204s-0.644,0.618-1.05,0.819S413.84,52.921,413.354,52.921z M413.088,52.081
		c0.393,0,0.749-0.084,1.071-0.252c0.321-0.168,0.597-0.39,0.825-0.665c0.229-0.275,0.404-0.588,0.525-0.938
		c0.121-0.35,0.182-0.711,0.182-1.085c0-0.392-0.069-0.765-0.209-1.12c-0.141-0.355-0.332-0.667-0.574-0.938
		c-0.243-0.271-0.529-0.485-0.861-0.644c-0.331-0.159-0.688-0.238-1.07-0.238c-0.243,0-0.498,0.049-0.764,0.147
		c-0.266,0.098-0.514,0.229-0.742,0.392c-0.229,0.164-0.424,0.355-0.588,0.574c-0.163,0.219-0.264,0.45-0.301,0.693v2.24
		c0.111,0.262,0.254,0.504,0.428,0.728c0.172,0.224,0.367,0.418,0.588,0.581c0.219,0.164,0.455,0.292,0.707,0.385
		S412.817,52.081,413.088,52.081z"/>
	<path fill="#D2D2D2" d="M421.418,52.921c-0.532,0-1.02-0.101-1.463-0.301s-0.828-0.476-1.155-0.826
		c-0.327-0.35-0.581-0.754-0.763-1.211c-0.182-0.457-0.273-0.947-0.273-1.47c0-0.513,0.092-0.996,0.273-1.449
		c0.182-0.453,0.434-0.849,0.756-1.19c0.322-0.34,0.707-0.611,1.154-0.812c0.449-0.201,0.934-0.301,1.457-0.301
		c0.531,0,1.02,0.1,1.463,0.301c0.443,0.201,0.823,0.474,1.141,0.819s0.564,0.742,0.742,1.19c0.177,0.448,0.266,0.924,0.266,1.428
		c0,0.075,0,0.149,0,0.224s-0.005,0.126-0.014,0.154h-6.244c0.027,0.392,0.119,0.754,0.273,1.085
		c0.153,0.332,0.352,0.619,0.595,0.861c0.242,0.243,0.521,0.432,0.833,0.567s0.646,0.203,1.001,0.203c0.233,0,0.466-0.033,0.7-0.098
		c0.232-0.065,0.447-0.154,0.644-0.266c0.196-0.112,0.373-0.25,0.532-0.413c0.158-0.163,0.279-0.343,0.363-0.539l0.826,0.224
		c-0.111,0.271-0.271,0.516-0.476,0.735c-0.206,0.219-0.443,0.411-0.714,0.574c-0.271,0.164-0.569,0.29-0.896,0.378
		C422.113,52.877,421.772,52.921,421.418,52.921z M424.105,48.749c-0.027-0.392-0.119-0.749-0.272-1.071
		c-0.154-0.322-0.351-0.6-0.589-0.833c-0.237-0.233-0.513-0.415-0.825-0.546c-0.313-0.131-0.646-0.196-1.001-0.196
		c-0.355,0-0.691,0.065-1.008,0.196c-0.318,0.131-0.596,0.313-0.834,0.546c-0.237,0.233-0.429,0.514-0.573,0.84
		c-0.146,0.327-0.231,0.682-0.259,1.064H424.105z"/>
	<path fill="#D2D2D2" d="M427.367,49.953c0-0.616,0.096-1.106,0.287-1.47c0.191-0.364,0.492-0.667,0.904-0.91
		c0.186-0.112,0.391-0.226,0.615-0.343s0.434-0.259,0.63-0.427s0.362-0.369,0.497-0.602c0.135-0.233,0.203-0.522,0.203-0.868
		c0-0.308-0.054-0.574-0.161-0.798s-0.249-0.413-0.427-0.567s-0.381-0.268-0.609-0.343s-0.465-0.112-0.707-0.112
		c-0.504,0-0.954,0.138-1.351,0.413c-0.397,0.275-0.698,0.614-0.903,1.015l-0.658-0.42c0.131-0.29,0.299-0.546,0.504-0.77
		c0.205-0.224,0.437-0.413,0.693-0.567c0.257-0.154,0.532-0.271,0.826-0.35c0.294-0.08,0.596-0.119,0.902-0.119
		c0.346,0,0.682,0.054,1.009,0.161s0.618,0.273,0.875,0.497c0.257,0.224,0.462,0.504,0.616,0.84s0.23,0.728,0.23,1.176
		c0,0.374-0.054,0.688-0.16,0.945c-0.107,0.256-0.25,0.478-0.428,0.665c-0.178,0.187-0.381,0.348-0.609,0.483
		s-0.459,0.268-0.692,0.399c-0.168,0.093-0.327,0.189-0.476,0.287c-0.15,0.098-0.285,0.224-0.406,0.378
		c-0.121,0.154-0.217,0.343-0.287,0.567s-0.105,0.504-0.105,0.84H427.367z M427.382,52.781v-1.498h0.826v1.498H427.382z"/>
</g>
<g>
	<circle fill="#F0AD4E" cx="29.986" cy="112.438" r="5.952"/>
	<circle fill="#F0AD4E" cx="44.903" cy="112.438" r="5.952"/>
</g>
<g>
	<circle fill="#5BC0DE" cx="189.637" cy="98.772" r="5.952"/>
	<circle fill="#F0AD4E" cx="189.637" cy="112.438" r="5.952"/>
	<circle fill="#5BC0DE" cx="204.554" cy="98.772" r="5.952"/>
	<circle fill="#F0AD4E" cx="204.554" cy="112.438" r="5.952"/>
	<circle fill="#F0AD4E" cx="219.472" cy="112.438" r="5.952"/>
	<circle fill="#F0AD4E" cx="234.39" cy="112.438" r="5.952"/>
</g>
<g>
	<circle fill="#5BC0DE" cx="97.273" cy="98.772" r="5.952"/>
	<circle fill="#5BC0DE" cx="112.191" cy="98.772" r="5.952"/>
	<circle fill="#5BC0DE" cx="127.108" cy="98.772" r="5.953"/>
	<circle fill="#5BC0DE" cx="142.025" cy="98.772" r="5.953"/>
</g>
<g>
	<circle fill="#5BC0DE" cx="332.018" cy="98.771" r="5.952"/>
	<circle fill="#F0AD4E" cx="332.018" cy="112.438" r="5.952"/>
</g>
<g>
	<circle fill="#5BC0DE" cx="395.223" cy="98.771" r="5.952"/>
	<circle fill="#F0AD4E" cx="395.223" cy="112.438" r="5.952"/>
</g>
<g>
	<circle fill="#5BC0DE" cx="488.969" cy="98.771" r="5.952"/>
	<circle fill="#F0AD4E" cx="488.969" cy="112.437" r="5.952"/>
	<circle fill="#5BC0DE" cx="503.887" cy="98.771" r="5.952"/>
	<circle fill="#F0AD4E" cx="503.887" cy="112.437" r="5.952"/>
</g>
<g>
	<circle fill="#5BC0DE" cx="425.764" cy="98.771" r="5.952"/>
	<circle fill="#F0AD4E" cx="425.764" cy="112.438" r="5.952"/>
	<circle fill="#5BC0DE" cx="440.682" cy="98.771" r="5.952"/>
	<circle fill="#F0AD4E" cx="440.682" cy="112.438" r="5.952"/>
</g>
<path fill="none" stroke="#636C72" stroke-miterlimit="10" d="M152.46,48.357c0,5.041-4.086,9.127-9.127,9.127H95.965
	c-5.041,0-9.127-4.086-9.127-9.127l0,0c0-5.041,4.086-9.127,9.127-9.127h47.368C148.374,39.23,152.46,43.317,152.46,48.357
	L152.46,48.357z"/>
<path fill="none" stroke="#636C72" stroke-miterlimit="10" d="M445.527,48.357c0,5.041-4.086,9.127-9.127,9.127h-47.367
	c-5.041,0-9.127-4.086-9.127-9.127l0,0c0-5.041,4.086-9.127,9.127-9.127H436.4C441.441,39.23,445.527,43.317,445.527,48.357
	L445.527,48.357z"/>
<g>
	<path fill="#636C72" d="M119.486,59.304L37.444,87.203l81.375-29.785c0.519-0.19,1.093,0.077,1.283,0.595
		c0.189,0.519-0.077,1.093-0.596,1.283C119.502,59.299,119.491,59.302,119.486,59.304z"/>
</g>
<g>
	<path fill="#636C72" d="M120.649,58.361l-1,28.842l-1-28.842c-0.019-0.552,0.413-1.016,0.965-1.035s1.016,0.413,1.035,0.965
		C120.65,58.314,120.65,58.339,120.649,58.361z"/>
</g>
<g>
	<path fill="#636C72" d="M120.479,57.418l81.375,29.785l-82.042-27.899c-0.523-0.178-0.803-0.746-0.625-1.269
		c0.178-0.523,0.746-0.803,1.269-0.625C120.463,57.413,120.473,57.417,120.479,57.418z"/>
</g>
<g>
	<path fill="#636C72" d="M414.06,59.304l-82.042,27.899l81.376-29.785c0.519-0.19,1.093,0.077,1.283,0.595
		c0.189,0.519-0.077,1.093-0.596,1.283C414.075,59.299,414.065,59.302,414.06,59.304z"/>
</g>
<g>
	<path fill="#636C72" d="M415.058,58.912l-19.835,28.292l18.165-29.392c0.29-0.47,0.907-0.615,1.377-0.325
		c0.47,0.29,0.615,0.907,0.325,1.377C415.08,58.879,415.068,58.896,415.058,58.912z"/>
</g>
<g>
	<path fill="#636C72" d="M415.053,57.418l81.375,29.785l-82.041-27.899c-0.522-0.178-0.803-0.746-0.625-1.269
		s0.746-0.803,1.27-0.625C415.036,57.413,415.047,57.417,415.053,57.418z"/>
</g>
<g>
	<path fill="#636C72" d="M415.058,57.811l18.165,29.392l-19.835-28.292c-0.317-0.453-0.208-1.077,0.245-1.394
		c0.452-0.317,1.076-0.208,1.393,0.245C415.036,57.778,415.048,57.796,415.058,57.811z"/>
</g>
<g>
</g>
<g>
</g>
<g>
</g>
<g>
</g>
<g>
</g>
<g>
</g>
</svg>
