<?xml version="1.0" encoding="utf-8"?>
<!-- Generator: Adobe Illustrator 16.0.4, SVG Export Plug-In . SVG Version: 6.00 Build 0)  -->
<!DOCTYPE svg PUBLIC "-//W3C//DTD SVG 1.1//EN" "http://www.w3.org/Graphics/SVG/1.1/DTD/svg11.dtd">
<svg version="1.1" id="Layer_1" xmlns="http://www.w3.org/2000/svg" xmlns:xlink="http://www.w3.org/1999/xlink" x="0px" y="0px"
	 width="612px" height="504px" viewBox="0 0 612 504" enable-background="new 0 0 612 504" xml:space="preserve">
<g>
	<path fill="#636C72" d="M257.669,23.801c0,0-0.019,0.193-0.055,0.566c-0.045,0.373-0.069,0.931-0.18,1.648
		c-0.266,1.429-0.768,3.552-2.117,5.956c-1.334,2.403-3.535,5.002-6.53,7.402c-2.991,2.411-6.762,4.582-11.02,6.574
		c-4.266,1.989-9.055,3.729-14.174,5.352c-5.122,1.622-10.594,3.062-16.273,4.433c-11.363,2.735-23.577,5.089-35.732,7.499
		c-12.154,2.404-24.269,4.846-35.394,7.684c-11.124,2.809-21.258,6.088-29.231,9.834c-3.983,1.868-7.389,3.872-10.109,5.855
		c-2.726,1.982-4.735,3.949-6.126,5.653c-1.433,1.692-2.15,3.163-2.683,4.132c-0.429,1.005-0.658,1.541-0.658,1.541l-0.187,0.437
		c-1.302,3.051-4.831,4.468-7.881,3.166s-4.468-4.831-3.166-7.881c0.048-0.113,0.107-0.239,0.162-0.348c0,0,0.436-0.863,1.252-2.483
		c0.924-1.531,2.31-3.812,4.533-6.145c2.186-2.365,5.106-4.838,8.638-7.086c3.53-2.255,7.65-4.325,12.203-6.134
		c9.115-3.617,19.914-6.356,31.472-8.549c11.562-2.212,23.895-3.927,36.189-5.595c12.291-1.671,24.556-3.275,35.941-5.297
		c5.691-1.015,11.169-2.107,16.294-3.396c5.122-1.288,9.917-2.709,14.191-4.397c4.267-1.69,8.058-3.578,11.091-5.735
		c3.036-2.146,5.314-4.525,6.753-6.782c1.455-2.258,2.077-4.314,2.426-5.71c0.154-0.708,0.211-1.265,0.279-1.634
		C257.639,23.993,257.669,23.801,257.669,23.801z"/>
</g>
<g>
	<path fill="#636C72" d="M258.987,23.801c0,0,0.03,0.191,0.089,0.562c0.068,0.369,0.125,0.926,0.279,1.634
		c0.349,1.396,0.971,3.452,2.426,5.71c1.439,2.257,3.717,4.636,6.753,6.782c3.033,2.157,6.824,4.044,11.091,5.735
		c4.275,1.688,9.069,3.109,14.192,4.397c5.125,1.288,10.603,2.38,16.294,3.395c11.386,2.022,23.65,3.626,35.941,5.297
		c12.294,1.668,24.628,3.382,36.189,5.595c11.558,2.193,22.356,4.933,31.472,8.549c4.553,1.809,8.673,3.878,12.203,6.134
		c3.532,2.249,6.452,4.721,8.638,7.086c2.224,2.333,3.609,4.614,4.534,6.145c0.816,1.62,1.252,2.483,1.252,2.483
		c1.494,2.962,0.305,6.574-2.657,8.067c-2.961,1.494-6.573,0.304-8.067-2.657c-0.055-0.109-0.106-0.22-0.154-0.331l-0.193-0.453
		c0,0-0.229-0.536-0.658-1.541c-0.532-0.97-1.25-2.441-2.683-4.133c-1.392-1.705-3.399-3.671-6.126-5.653
		c-2.72-1.983-6.126-3.988-10.108-5.855c-7.974-3.746-18.108-7.025-29.231-9.834c-11.126-2.837-23.24-5.28-35.395-7.684
		c-12.155-2.41-24.369-4.764-35.732-7.499c-5.679-1.371-11.151-2.811-16.273-4.433c-5.119-1.623-9.908-3.363-14.174-5.352
		c-4.258-1.993-8.029-4.163-11.02-6.574c-2.995-2.4-5.196-4.999-6.53-7.402c-1.349-2.404-1.851-4.527-2.117-5.956
		c-0.111-0.718-0.135-1.276-0.18-1.648C259.005,23.994,258.987,23.801,258.987,23.801z"/>
</g>
<g>
	<path fill="#636C72" d="M79.5,100.22c0,0,0.016,0.385,0.045,1.107c0.002,0.724,0.157,1.776-0.019,3.135
		c-0.082,0.673-0.062,1.451-0.249,2.252c-0.18,0.801-0.324,1.689-0.578,2.611c-0.321,0.897-0.591,1.892-1.017,2.88
		c-0.227,0.489-0.46,0.991-0.698,1.505c-0.12,0.258-0.242,0.519-0.365,0.782c-0.147,0.249-0.295,0.501-0.445,0.756
		c-0.303,0.511-0.611,1.033-0.926,1.564c-0.319,0.53-0.712,1.019-1.076,1.545c-0.716,1.069-1.583,2.06-2.458,3.104
		c-0.888,1.027-1.867,2.02-2.87,3.032c-1.038,0.966-2.079,1.992-3.213,2.928c-2.22,1.949-4.645,3.773-7.122,5.601
		c-2.492,1.797-5.059,3.567-7.632,5.288c-5.146,3.451-10.292,6.798-14.828,10.148c-2.234,1.698-4.384,3.34-6.209,5.03
		c-0.963,0.811-1.76,1.685-2.598,2.479c-0.76,0.839-1.52,1.634-2.152,2.435c-0.603,0.813-1.252,1.557-1.685,2.328
		c-0.239,0.375-0.471,0.74-0.697,1.094c-0.204,0.36-0.356,0.721-0.531,1.061c-0.168,0.339-0.331,0.668-0.488,0.985
		c-0.112,0.324-0.22,0.637-0.323,0.938c-0.107,0.296-0.21,0.58-0.309,0.851c-0.078,0.274-0.112,0.542-0.169,0.791
		c-0.092,0.5-0.227,0.933-0.268,1.322c-0.025,0.389-0.045,0.72-0.062,0.988c-0.045,0.53-0.069,0.813-0.069,0.813l-0.049,0.574
		c-0.235,2.756-2.659,4.801-5.416,4.566c-2.756-0.234-4.801-2.659-4.566-5.416c0.012-0.142,0.032-0.292,0.055-0.429
		c0,0,0.083-0.479,0.239-1.379c0.083-0.446,0.187-0.997,0.308-1.645c0.146-0.639,0.41-1.349,0.663-2.149
		c0.137-0.396,0.262-0.824,0.434-1.249c0.194-0.413,0.398-0.845,0.61-1.295c0.216-0.446,0.441-0.91,0.675-1.392
		c0.266-0.453,0.561-0.907,0.857-1.381c0.303-0.468,0.599-0.968,0.938-1.443c0.356-0.454,0.723-0.921,1.1-1.401
		c0.729-0.991,1.62-1.849,2.505-2.8c0.902-0.923,1.899-1.782,2.914-2.685c1.054-0.824,2.109-1.747,3.259-2.534
		c2.254-1.689,4.718-3.202,7.256-4.751c5.1-3.02,10.618-5.853,16.033-8.738c2.712-1.44,5.386-2.909,7.983-4.408
		c2.573-1.522,5.096-3.047,7.399-4.689c1.183-0.789,2.26-1.657,3.348-2.479c1.045-0.862,2.075-1.71,3.012-2.596
		c0.922-0.899,1.848-1.759,2.619-2.693c0.393-0.461,0.818-0.89,1.167-1.358c0.347-0.471,0.688-0.933,1.022-1.386
		c0.167-0.228,0.333-0.453,0.498-0.675c0.14-0.237,0.279-0.471,0.416-0.702c0.276-0.464,0.546-0.918,0.809-1.36
		c0.501-0.899,0.849-1.814,1.249-2.648c0.333-0.857,0.555-1.694,0.811-2.456c0.262-0.763,0.312-1.496,0.461-2.148
		c0.309-1.304,0.264-2.384,0.334-3.1C79.477,100.604,79.5,100.22,79.5,100.22z"/>
</g>
<g>
	<path fill="#636C72" d="M80.885,100.22c0,0,0.023,0.385,0.067,1.106c0.071,0.715,0.025,1.796,0.334,3.1
		c0.149,0.652,0.199,1.385,0.461,2.148c0.256,0.762,0.479,1.599,0.811,2.456c0.4,0.834,0.748,1.749,1.249,2.648
		c0.263,0.442,0.533,0.896,0.809,1.36c0.137,0.231,0.276,0.465,0.416,0.702c0.165,0.222,0.331,0.447,0.498,0.675
		c0.334,0.453,0.675,0.915,1.022,1.386c0.35,0.468,0.775,0.897,1.167,1.358c0.771,0.934,1.696,1.794,2.619,2.693
		c0.938,0.885,1.967,1.734,3.012,2.596c1.088,0.823,2.165,1.691,3.348,2.479c2.304,1.643,4.826,3.167,7.399,4.689
		c2.597,1.499,5.271,2.968,7.983,4.408c5.416,2.886,10.933,5.719,16.033,8.738c2.538,1.549,5.002,3.062,7.256,4.751
		c1.149,0.788,2.205,1.71,3.259,2.534c1.014,0.903,2.011,1.762,2.914,2.685c0.885,0.951,1.776,1.809,2.505,2.8
		c0.376,0.479,0.743,0.947,1.1,1.401c0.339,0.475,0.636,0.975,0.938,1.443c0.296,0.474,0.591,0.928,0.857,1.381
		c0.233,0.482,0.458,0.946,0.675,1.392c0.212,0.451,0.416,0.882,0.61,1.295c0.172,0.425,0.297,0.853,0.434,1.249
		c0.253,0.801,0.518,1.51,0.663,2.149c0.121,0.648,0.224,1.199,0.308,1.645c0.156,0.899,0.239,1.379,0.239,1.379
		c0.472,2.726-1.356,5.318-4.082,5.79c-2.726,0.472-5.318-1.355-5.79-4.082c-0.024-0.14-0.042-0.28-0.055-0.419l-0.05-0.583
		c0,0-0.024-0.283-0.069-0.813c-0.017-0.268-0.038-0.599-0.062-0.988c-0.041-0.389-0.176-0.822-0.268-1.322
		c-0.057-0.249-0.091-0.516-0.169-0.791c-0.098-0.271-0.201-0.555-0.309-0.851c-0.104-0.301-0.211-0.613-0.323-0.938
		c-0.157-0.317-0.32-0.646-0.488-0.985c-0.175-0.339-0.328-0.7-0.531-1.061c-0.226-0.354-0.458-0.72-0.697-1.094
		c-0.433-0.771-1.082-1.515-1.685-2.328c-0.632-0.801-1.392-1.596-2.152-2.435c-0.838-0.795-1.635-1.669-2.598-2.479
		c-1.825-1.689-3.976-3.332-6.209-5.03c-4.536-3.351-9.682-6.697-14.828-10.148c-2.574-1.721-5.14-3.491-7.632-5.288
		c-2.477-1.828-4.902-3.652-7.122-5.601c-1.134-0.936-2.176-1.962-3.213-2.928c-1.003-1.012-1.982-2.004-2.87-3.032
		c-0.875-1.044-1.743-2.035-2.458-3.104c-0.364-0.527-0.757-1.016-1.076-1.545c-0.314-0.532-0.623-1.053-0.926-1.564
		c-0.15-0.255-0.298-0.507-0.445-0.756c-0.123-0.264-0.245-0.524-0.365-0.782c-0.238-0.514-0.471-1.016-0.698-1.505
		c-0.426-0.989-0.696-1.983-1.017-2.88c-0.254-0.922-0.397-1.81-0.578-2.611c-0.187-0.801-0.167-1.579-0.249-2.252
		c-0.176-1.358-0.021-2.411-0.019-3.135C80.869,100.605,80.885,100.22,80.885,100.22z"/>
</g>
<g>
	<path fill="#636C72" d="M144.192,178.167c0,0,0.01,0.385,0.028,1.107c-0.009,0.723,0.129,1.78-0.066,3.13
		c-0.092,0.67-0.083,1.441-0.281,2.236c-0.191,0.795-0.347,1.676-0.612,2.588c-0.333,0.887-0.614,1.871-1.052,2.846
		c-0.232,0.482-0.471,0.977-0.715,1.483c-0.123,0.254-0.247,0.511-0.372,0.77c-0.15,0.246-0.301,0.494-0.454,0.744
		c-0.307,0.502-0.621,1.015-0.94,1.538c-0.324,0.521-0.721,1-1.089,1.517c-0.724,1.049-1.601,2.02-2.482,3.042
		c-0.896,1.006-1.883,1.977-2.892,2.966c-1.045,0.945-2.092,1.947-3.234,2.861c-2.233,1.903-4.672,3.682-7.164,5.464
		c-2.508,1.752-5.09,3.477-7.685,5.156c-5.187,3.367-10.388,6.636-15.009,9.937c-2.279,1.675-4.477,3.299-6.366,4.988
		c-0.991,0.807-1.827,1.688-2.697,2.488c-0.799,0.849-1.594,1.653-2.266,2.472c-0.646,0.834-1.331,1.595-1.808,2.399
		c-0.26,0.391-0.512,0.771-0.758,1.141c-0.224,0.377-0.398,0.759-0.592,1.117c-0.188,0.36-0.369,0.708-0.544,1.045
		c-0.13,0.348-0.255,0.683-0.375,1.005c-0.123,0.319-0.241,0.625-0.354,0.918c-0.092,0.297-0.14,0.588-0.209,0.859
		c-0.116,0.545-0.271,1.02-0.327,1.446c-0.039,0.428-0.072,0.792-0.099,1.086c-0.062,0.586-0.095,0.898-0.095,0.898l-0.046,0.441
		c-0.203,1.924-1.926,3.318-3.849,3.115c-1.923-0.202-3.317-1.926-3.115-3.848c0.007-0.064,0.017-0.14,0.027-0.203
		c0,0,0.074-0.45,0.213-1.294c0.074-0.419,0.165-0.938,0.271-1.546c0.13-0.602,0.375-1.27,0.604-2.025
		c0.125-0.374,0.236-0.778,0.395-1.18c0.18-0.392,0.369-0.801,0.565-1.229c0.199-0.424,0.406-0.866,0.622-1.324
		c0.249-0.433,0.525-0.868,0.802-1.322c0.284-0.448,0.559-0.928,0.877-1.385c0.337-0.439,0.684-0.891,1.04-1.355
		c0.685-0.958,1.539-1.799,2.382-2.729c0.862-0.905,1.823-1.754,2.8-2.648c1.021-0.819,2.038-1.735,3.16-2.525
		c2.189-1.689,4.606-3.221,7.099-4.793c5.016-3.069,10.477-5.979,15.852-8.95c2.692-1.482,5.35-2.997,7.931-4.54
		c2.559-1.569,5.066-3.138,7.357-4.826c1.176-0.811,2.248-1.703,3.329-2.547c1.039-0.884,2.06-1.754,2.991-2.661
		c0.915-0.921,1.833-1.8,2.595-2.755c0.388-0.471,0.809-0.909,1.153-1.386c0.343-0.48,0.679-0.951,1.008-1.413
		c0.165-0.231,0.328-0.46,0.49-0.687c0.138-0.241,0.274-0.479,0.409-0.714c0.271-0.472,0.535-0.933,0.792-1.382
		c0.49-0.912,0.826-1.839,1.214-2.683c0.321-0.867,0.531-1.711,0.775-2.479c0.251-0.769,0.291-1.509,0.43-2.164
		c0.289-1.312,0.228-2.388,0.288-3.104C144.175,178.552,144.192,178.167,144.192,178.167z"/>
</g>
<g>
	<path fill="#636C72" d="M145.577,178.167c0,0,0.018,0.385,0.05,1.106c0.06,0.717-0.001,1.793,0.288,3.104
		c0.139,0.655,0.179,1.396,0.43,2.164c0.245,0.768,0.455,1.612,0.775,2.479c0.389,0.843,0.725,1.771,1.214,2.683
		c0.258,0.45,0.522,0.911,0.792,1.382c0.135,0.235,0.271,0.473,0.409,0.714c0.162,0.227,0.325,0.456,0.49,0.687
		c0.329,0.461,0.665,0.933,1.008,1.413c0.345,0.477,0.765,0.915,1.153,1.386c0.762,0.955,1.68,1.834,2.595,2.755
		c0.931,0.907,1.952,1.777,2.991,2.661c1.081,0.845,2.152,1.736,3.329,2.547c2.291,1.688,4.798,3.257,7.357,4.826
		c2.581,1.543,5.239,3.057,7.931,4.54c5.375,2.971,10.836,5.881,15.852,8.95c2.492,1.572,4.91,3.104,7.099,4.793
		c1.121,0.791,2.138,1.707,3.159,2.525c0.977,0.894,1.938,1.743,2.8,2.648c0.843,0.931,1.697,1.771,2.382,2.729
		c0.356,0.464,0.703,0.916,1.04,1.355c0.319,0.458,0.594,0.937,0.877,1.385c0.277,0.454,0.553,0.889,0.802,1.322
		c0.215,0.458,0.422,0.899,0.622,1.324c0.197,0.427,0.385,0.837,0.565,1.229c0.158,0.402,0.27,0.806,0.395,1.18
		c0.229,0.755,0.474,1.424,0.604,2.025c0.106,0.608,0.197,1.126,0.271,1.546c0.139,0.844,0.213,1.294,0.213,1.294
		c0.314,1.908-0.978,3.708-2.885,4.023s-3.709-0.977-4.023-2.885c-0.01-0.064-0.019-0.128-0.026-0.191l-0.047-0.453
		c0,0-0.033-0.312-0.095-0.898c-0.027-0.295-0.06-0.659-0.099-1.086c-0.056-0.426-0.211-0.9-0.327-1.446
		c-0.069-0.271-0.117-0.562-0.209-0.859c-0.113-0.292-0.231-0.599-0.354-0.918c-0.12-0.322-0.246-0.658-0.375-1.005
		c-0.175-0.336-0.356-0.685-0.544-1.045c-0.194-0.358-0.369-0.74-0.592-1.117c-0.246-0.37-0.498-0.75-0.758-1.141
		c-0.477-0.804-1.162-1.565-1.808-2.399c-0.672-0.819-1.467-1.624-2.266-2.472c-0.87-0.799-1.706-1.681-2.697-2.488
		c-1.89-1.689-4.087-3.312-6.366-4.988c-4.621-3.301-9.822-6.57-15.009-9.937c-2.595-1.679-5.177-3.403-7.685-5.156
		c-2.492-1.782-4.931-3.562-7.164-5.464c-1.142-0.914-2.188-1.916-3.234-2.861c-1.009-0.99-1.996-1.96-2.892-2.966
		c-0.881-1.022-1.758-1.993-2.482-3.042c-0.368-0.517-0.766-0.997-1.089-1.517c-0.32-0.523-0.633-1.036-0.94-1.538
		c-0.153-0.25-0.304-0.499-0.454-0.744c-0.125-0.259-0.25-0.516-0.372-0.77c-0.244-0.506-0.482-1.001-0.715-1.483
		c-0.438-0.975-0.719-1.958-1.052-2.846c-0.266-0.912-0.421-1.792-0.612-2.588c-0.198-0.795-0.188-1.566-0.281-2.236
		c-0.195-1.35-0.057-2.407-0.066-3.13C145.567,178.552,145.577,178.167,145.577,178.167z"/>
</g>
<g>
	<path fill="#636C72" d="M531.808,178.167c0,0,0.01,0.385,0.028,1.107c-0.009,0.723,0.129,1.78-0.066,3.13
		c-0.092,0.67-0.083,1.441-0.28,2.236c-0.192,0.795-0.348,1.676-0.613,2.588c-0.333,0.887-0.614,1.871-1.051,2.846
		c-0.232,0.482-0.472,0.977-0.716,1.483c-0.122,0.254-0.246,0.511-0.372,0.77c-0.149,0.246-0.301,0.494-0.453,0.744
		c-0.308,0.502-0.621,1.015-0.94,1.538c-0.323,0.521-0.721,1-1.089,1.517c-0.725,1.049-1.602,2.02-2.483,3.042
		c-0.896,1.006-1.882,1.977-2.891,2.966c-1.046,0.945-2.093,1.947-3.234,2.861c-2.232,1.903-4.672,3.682-7.163,5.464
		c-2.508,1.752-5.091,3.477-7.686,5.156c-5.187,3.367-10.388,6.636-15.009,9.937c-2.279,1.675-4.477,3.299-6.366,4.988
		c-0.991,0.807-1.826,1.688-2.696,2.487c-0.799,0.849-1.594,1.653-2.267,2.472c-0.646,0.834-1.331,1.595-1.808,2.399
		c-0.26,0.391-0.513,0.771-0.758,1.141c-0.225,0.377-0.398,0.759-0.593,1.118c-0.188,0.36-0.368,0.708-0.544,1.044
		c-0.13,0.348-0.255,0.683-0.375,1.005c-0.124,0.319-0.241,0.625-0.354,0.918c-0.092,0.297-0.14,0.589-0.209,0.859
		c-0.116,0.545-0.271,1.02-0.327,1.446c-0.039,0.428-0.072,0.792-0.099,1.086c-0.062,0.585-0.095,0.898-0.095,0.898l-0.047,0.442
		c-0.202,1.923-1.926,3.317-3.849,3.114c-1.923-0.202-3.317-1.926-3.114-3.848c0.007-0.064,0.018-0.14,0.027-0.203
		c0,0,0.074-0.45,0.213-1.294c0.074-0.42,0.164-0.938,0.271-1.546c0.129-0.602,0.374-1.27,0.604-2.025
		c0.125-0.375,0.236-0.778,0.395-1.18c0.18-0.392,0.368-0.801,0.564-1.229c0.2-0.424,0.407-0.866,0.622-1.324
		c0.249-0.433,0.525-0.868,0.802-1.322c0.284-0.448,0.559-0.928,0.878-1.385c0.337-0.439,0.684-0.891,1.039-1.355
		c0.685-0.958,1.539-1.799,2.382-2.729c0.862-0.905,1.823-1.754,2.8-2.647c1.021-0.819,2.038-1.735,3.159-2.526
		c2.189-1.689,4.607-3.221,7.1-4.792c5.016-3.069,10.477-5.979,15.852-8.95c2.692-1.482,5.35-2.996,7.931-4.54
		c2.56-1.569,5.066-3.138,7.357-4.826c1.177-0.811,2.248-1.703,3.328-2.547c1.039-0.884,2.061-1.754,2.991-2.661
		c0.915-0.921,1.832-1.8,2.595-2.755c0.389-0.471,0.809-0.909,1.153-1.386c0.343-0.48,0.679-0.951,1.008-1.413
		c0.165-0.231,0.328-0.46,0.49-0.687c0.138-0.241,0.273-0.479,0.408-0.714c0.271-0.472,0.535-0.933,0.793-1.382
		c0.489-0.912,0.825-1.839,1.214-2.683c0.32-0.867,0.531-1.711,0.775-2.479c0.251-0.769,0.291-1.509,0.43-2.164
		c0.289-1.312,0.228-2.388,0.287-3.104C531.79,178.552,531.808,178.167,531.808,178.167z"/>
</g>
<g>
	<path fill="#636C72" d="M533.192,178.167c0,0,0.018,0.385,0.051,1.106c0.06,0.717-0.002,1.793,0.287,3.104
		c0.139,0.655,0.179,1.396,0.43,2.164c0.244,0.768,0.455,1.612,0.775,2.479c0.389,0.843,0.725,1.771,1.215,2.683
		c0.257,0.45,0.521,0.911,0.792,1.382c0.135,0.235,0.271,0.473,0.408,0.714c0.162,0.227,0.325,0.456,0.49,0.687
		c0.329,0.461,0.665,0.933,1.008,1.413c0.345,0.477,0.766,0.915,1.153,1.386c0.763,0.955,1.68,1.834,2.595,2.755
		c0.931,0.907,1.952,1.777,2.991,2.661c1.08,0.845,2.152,1.736,3.328,2.547c2.291,1.688,4.799,3.257,7.357,4.826
		c2.581,1.543,5.239,3.058,7.931,4.54c5.375,2.971,10.837,5.88,15.853,8.95c2.492,1.572,4.909,3.104,7.099,4.792
		c1.121,0.791,2.139,1.707,3.159,2.526c0.977,0.894,1.938,1.743,2.8,2.648c0.843,0.931,1.697,1.771,2.382,2.729
		c0.356,0.464,0.703,0.916,1.04,1.355c0.318,0.458,0.594,0.937,0.877,1.385c0.277,0.454,0.554,0.889,0.802,1.322
		c0.216,0.458,0.423,0.899,0.622,1.324c0.196,0.427,0.385,0.837,0.565,1.229c0.158,0.403,0.27,0.806,0.395,1.18
		c0.229,0.756,0.474,1.424,0.604,2.025c0.106,0.608,0.197,1.126,0.271,1.546c0.139,0.844,0.213,1.294,0.213,1.294
		c0.314,1.908-0.978,3.708-2.885,4.023c-1.908,0.314-3.71-0.977-4.023-2.885c-0.011-0.064-0.02-0.128-0.026-0.191l-0.048-0.453
		c0,0-0.033-0.312-0.095-0.898c-0.026-0.295-0.06-0.659-0.099-1.086c-0.057-0.426-0.211-0.9-0.327-1.446
		c-0.069-0.271-0.117-0.562-0.209-0.859c-0.112-0.292-0.23-0.599-0.354-0.918c-0.121-0.322-0.246-0.658-0.376-1.005
		c-0.175-0.336-0.356-0.685-0.544-1.045c-0.193-0.358-0.368-0.74-0.592-1.118c-0.246-0.37-0.498-0.75-0.758-1.14
		c-0.478-0.804-1.162-1.565-1.808-2.399c-0.673-0.819-1.468-1.624-2.267-2.473c-0.87-0.799-1.706-1.68-2.697-2.487
		c-1.89-1.689-4.087-3.312-6.366-4.988c-4.62-3.301-9.822-6.571-15.009-9.937c-2.595-1.679-5.177-3.403-7.685-5.156
		c-2.492-1.782-4.932-3.562-7.164-5.464c-1.142-0.914-2.188-1.916-3.233-2.861c-1.01-0.99-1.996-1.96-2.892-2.966
		c-0.882-1.022-1.759-1.993-2.482-3.042c-0.369-0.517-0.767-0.997-1.09-1.517c-0.319-0.523-0.633-1.036-0.94-1.538
		c-0.152-0.25-0.304-0.499-0.453-0.744c-0.126-0.259-0.25-0.516-0.372-0.77c-0.244-0.506-0.483-1.001-0.716-1.483
		c-0.437-0.975-0.718-1.958-1.051-2.846c-0.266-0.912-0.421-1.792-0.613-2.588c-0.197-0.795-0.188-1.566-0.28-2.236
		c-0.195-1.35-0.058-2.407-0.066-3.13C533.183,178.552,533.192,178.167,533.192,178.167z"/>
</g>
<g>
	<path fill="#636C72" d="M208.885,254.5c0,0,0.01,0.386,0.028,1.107c-0.009,0.723,0.129,1.779-0.066,3.13
		c-0.092,0.67-0.083,1.441-0.281,2.236c-0.191,0.795-0.347,1.676-0.612,2.588c-0.333,0.888-0.614,1.87-1.052,2.846
		c-0.232,0.482-0.471,0.977-0.715,1.482c-0.123,0.254-0.247,0.511-0.372,0.771c-0.15,0.245-0.301,0.493-0.454,0.744
		c-0.307,0.502-0.621,1.015-0.94,1.537c-0.324,0.521-0.721,1.001-1.089,1.518c-0.724,1.049-1.601,2.02-2.482,3.042
		c-0.896,1.006-1.883,1.977-2.892,2.966c-1.045,0.945-2.092,1.947-3.234,2.861c-2.232,1.902-4.672,3.683-7.164,5.464
		c-2.508,1.753-5.09,3.477-7.685,5.156c-5.187,3.366-10.389,6.636-15.009,9.937c-2.28,1.676-4.477,3.299-6.367,4.988
		c-0.991,0.807-1.826,1.688-2.697,2.487c-0.798,0.849-1.594,1.653-2.266,2.473c-0.646,0.833-1.331,1.595-1.808,2.398
		c-0.259,0.391-0.512,0.771-0.758,1.141c-0.224,0.377-0.398,0.759-0.592,1.117c-0.188,0.36-0.369,0.709-0.544,1.045
		c-0.13,0.348-0.255,0.684-0.375,1.006c-0.123,0.318-0.241,0.625-0.354,0.918c-0.092,0.297-0.14,0.588-0.209,0.858
		c-0.116,0.545-0.271,1.02-0.327,1.446c-0.039,0.428-0.072,0.791-0.099,1.086c-0.062,0.586-0.095,0.898-0.095,0.898l-0.046,0.442
		c-0.203,1.923-1.926,3.317-3.849,3.114c-1.923-0.202-3.317-1.926-3.115-3.849c0.007-0.064,0.017-0.139,0.027-0.202
		c0,0,0.074-0.45,0.213-1.294c0.074-0.42,0.165-0.938,0.271-1.546c0.13-0.602,0.375-1.27,0.604-2.025
		c0.125-0.374,0.236-0.777,0.395-1.18c0.18-0.392,0.369-0.802,0.565-1.229c0.199-0.424,0.407-0.865,0.622-1.323
		c0.249-0.434,0.525-0.868,0.802-1.322c0.284-0.448,0.559-0.928,0.877-1.386c0.337-0.438,0.684-0.891,1.04-1.354
		c0.685-0.958,1.539-1.799,2.382-2.729c0.862-0.905,1.823-1.754,2.799-2.647c1.021-0.819,2.038-1.735,3.16-2.525
		c2.189-1.689,4.606-3.222,7.099-4.793c5.016-3.069,10.478-5.979,15.853-8.95c2.691-1.481,5.349-2.996,7.93-4.539
		c2.559-1.568,5.066-3.138,7.357-4.826c1.176-0.811,2.248-1.703,3.329-2.547c1.039-0.885,2.06-1.755,2.991-2.661
		c0.915-0.922,1.833-1.801,2.595-2.755c0.388-0.472,0.809-0.909,1.153-1.386c0.342-0.48,0.679-0.952,1.008-1.413
		c0.165-0.231,0.328-0.461,0.49-0.688c0.138-0.24,0.274-0.479,0.409-0.714c0.271-0.472,0.535-0.933,0.792-1.382
		c0.49-0.912,0.826-1.84,1.214-2.683c0.321-0.867,0.531-1.712,0.775-2.479c0.251-0.769,0.291-1.509,0.43-2.163
		c0.289-1.312,0.228-2.389,0.288-3.104C208.867,254.885,208.885,254.5,208.885,254.5z"/>
</g>
<g>
	<path fill="#636C72" d="M210.27,254.5c0,0,0.012,0.385,0.034,1.107c0.049,0.718-0.029,1.79,0.24,3.109
		c0.129,0.658,0.158,1.405,0.398,2.18c0.233,0.773,0.432,1.626,0.741,2.502c0.376,0.854,0.701,1.792,1.179,2.718
		c0.252,0.457,0.511,0.925,0.776,1.404c0.132,0.239,0.266,0.48,0.401,0.726c0.159,0.23,0.32,0.464,0.482,0.699
		c0.325,0.471,0.656,0.95,0.993,1.439c0.341,0.486,0.756,0.934,1.14,1.414c0.754,0.975,1.663,1.874,2.57,2.816
		c0.923,0.928,1.937,1.819,2.97,2.727c1.073,0.866,2.139,1.781,3.308,2.614c2.278,1.734,4.771,3.349,7.316,4.963
		c2.565,1.588,5.207,3.147,7.878,4.672c5.334,3.056,10.74,6.042,15.671,9.161c2.447,1.594,4.816,3.146,6.942,4.834
		c1.093,0.795,2.071,1.703,3.06,2.518c0.938,0.885,1.864,1.724,2.686,2.61c0.801,0.91,1.619,1.733,2.259,2.659
		c0.335,0.447,0.662,0.884,0.979,1.309c0.298,0.44,0.552,0.898,0.816,1.328c0.257,0.435,0.516,0.85,0.747,1.263
		c0.197,0.434,0.386,0.853,0.569,1.255c0.181,0.404,0.354,0.792,0.52,1.162c0.144,0.38,0.242,0.76,0.354,1.111
		c0.205,0.711,0.43,1.337,0.544,1.901c0.092,0.57,0.17,1.055,0.234,1.447c0.123,0.789,0.188,1.21,0.188,1.21
		c0.169,1.09-0.577,2.111-1.668,2.28c-1.09,0.17-2.111-0.577-2.281-1.667c-0.003-0.019-0.005-0.037-0.008-0.056l-0.034-0.276
		c0,0-0.042-0.342-0.12-0.982c-0.037-0.321-0.082-0.719-0.136-1.185c-0.072-0.464-0.246-0.98-0.386-1.57
		c-0.081-0.293-0.142-0.608-0.249-0.928c-0.127-0.313-0.26-0.643-0.399-0.984c-0.137-0.345-0.28-0.702-0.428-1.074
		c-0.193-0.355-0.393-0.724-0.599-1.104c-0.213-0.378-0.409-0.781-0.653-1.175c-0.265-0.385-0.538-0.78-0.818-1.187
		c-0.522-0.837-1.244-1.615-1.931-2.47c-0.713-0.838-1.544-1.651-2.381-2.51c-0.902-0.804-1.777-1.692-2.796-2.496
		c-1.954-1.689-4.198-3.293-6.523-4.946c-4.705-3.251-9.962-6.443-15.189-9.726c-2.615-1.637-5.214-3.315-7.737-5.023
		c-2.506-1.736-4.96-3.471-7.206-5.327c-1.149-0.892-2.201-1.87-3.253-2.794c-1.016-0.967-2.01-1.916-2.913-2.9
		c-0.889-1.001-1.774-1.952-2.506-2.98c-0.373-0.508-0.775-0.979-1.104-1.489c-0.324-0.514-0.643-1.018-0.955-1.511
		c-0.155-0.247-0.309-0.49-0.461-0.732c-0.128-0.255-0.254-0.508-0.38-0.758c-0.25-0.499-0.494-0.986-0.731-1.461
		c-0.449-0.962-0.742-1.934-1.086-2.811c-0.277-0.903-0.444-1.775-0.647-2.565c-0.209-0.789-0.21-1.554-0.312-2.221
		c-0.216-1.342-0.094-2.402-0.114-3.124C210.266,254.886,210.27,254.5,210.27,254.5z"/>
</g>
<g>
	<path fill="#636C72" d="M273.577,331c0,0,0.004,0.385,0.011,1.106c-0.02,0.722,0.102,1.783-0.114,3.125
		c-0.102,0.666-0.103,1.432-0.312,2.221c-0.203,0.789-0.37,1.662-0.647,2.564c-0.345,0.878-0.638,1.85-1.086,2.811
		c-0.238,0.476-0.481,0.963-0.731,1.462c-0.125,0.25-0.252,0.502-0.38,0.758c-0.152,0.241-0.306,0.485-0.461,0.731
		c-0.312,0.494-0.63,0.998-0.955,1.511c-0.328,0.512-0.73,0.982-1.104,1.489c-0.732,1.028-1.618,1.98-2.506,2.98
		c-0.903,0.985-1.897,1.934-2.913,2.901c-1.053,0.923-2.105,1.901-3.254,2.793c-2.246,1.857-4.699,3.592-7.206,5.328
		c-2.523,1.708-5.122,3.387-7.737,5.023c-5.227,3.282-10.484,6.475-15.189,9.726c-2.325,1.653-4.569,3.257-6.523,4.946
		c-1.019,0.804-1.893,1.692-2.796,2.496c-0.837,0.858-1.667,1.672-2.38,2.51c-0.688,0.854-1.41,1.633-1.931,2.47
		c-0.28,0.406-0.553,0.802-0.818,1.187c-0.244,0.394-0.44,0.797-0.653,1.175c-0.207,0.38-0.406,0.748-0.599,1.104
		c-0.148,0.372-0.291,0.729-0.428,1.074c-0.139,0.342-0.272,0.67-0.399,0.984c-0.106,0.319-0.168,0.635-0.249,0.928
		c-0.14,0.59-0.314,1.106-0.386,1.57c-0.054,0.466-0.099,0.863-0.136,1.185c-0.079,0.641-0.12,0.982-0.12,0.982l-0.033,0.268
		c-0.134,1.095-1.13,1.874-2.226,1.74c-1.095-0.134-1.875-1.13-1.741-2.225c0.002-0.02,0.006-0.046,0.009-0.064
		c0,0,0.065-0.421,0.188-1.21c0.063-0.393,0.142-0.877,0.234-1.447c0.114-0.564,0.339-1.19,0.544-1.901
		c0.113-0.352,0.21-0.731,0.354-1.111c0.166-0.37,0.339-0.758,0.52-1.162c0.183-0.402,0.372-0.821,0.569-1.255
		c0.24-0.407,0.489-0.828,0.746-1.263c0.265-0.43,0.518-0.888,0.816-1.328c0.317-0.425,0.644-0.861,0.979-1.309
		c0.64-0.926,1.458-1.749,2.259-2.659c0.821-0.887,1.747-1.726,2.686-2.61c0.989-0.814,1.967-1.723,3.06-2.518
		c2.125-1.688,4.496-3.24,6.942-4.834c4.931-3.119,10.337-6.106,15.672-9.162c2.67-1.523,5.312-3.083,7.877-4.671
		c2.544-1.614,5.038-3.229,7.316-4.963c1.168-0.833,2.235-1.749,3.308-2.614c1.033-0.907,2.047-1.799,2.97-2.727
		c0.908-0.943,1.816-1.842,2.57-2.816c0.384-0.481,0.8-0.928,1.14-1.414c0.337-0.489,0.668-0.97,0.993-1.439
		c0.162-0.236,0.323-0.469,0.482-0.699c0.135-0.245,0.269-0.487,0.401-0.727c0.265-0.479,0.523-0.947,0.776-1.403
		c0.479-0.926,0.803-1.865,1.179-2.718c0.309-0.877,0.507-1.729,0.741-2.503c0.24-0.773,0.269-1.521,0.398-2.179
		c0.269-1.32,0.191-2.393,0.24-3.11C273.565,331.385,273.577,331,273.577,331z"/>
</g>
<g>
	<path fill="#636C72" d="M274.962,331c0,0,0.012,0.385,0.034,1.107c0.049,0.718-0.029,1.79,0.24,3.109
		c0.129,0.658,0.158,1.405,0.398,2.18c0.233,0.773,0.432,1.626,0.741,2.502c0.376,0.854,0.701,1.792,1.179,2.718
		c0.252,0.457,0.511,0.925,0.776,1.404c0.132,0.239,0.266,0.48,0.401,0.726c0.159,0.23,0.32,0.464,0.482,0.699
		c0.325,0.471,0.656,0.95,0.993,1.439c0.341,0.486,0.756,0.934,1.14,1.414c0.754,0.975,1.663,1.874,2.57,2.816
		c0.923,0.928,1.937,1.819,2.969,2.727c1.073,0.866,2.14,1.781,3.309,2.614c2.278,1.734,4.771,3.349,7.316,4.963
		c2.564,1.588,5.207,3.147,7.877,4.672c5.335,3.056,10.74,6.042,15.672,9.161c2.447,1.594,4.816,3.146,6.941,4.834
		c1.094,0.795,2.072,1.703,3.061,2.518c0.938,0.885,1.864,1.724,2.686,2.61c0.801,0.91,1.619,1.733,2.26,2.659
		c0.334,0.447,0.661,0.884,0.979,1.309c0.299,0.44,0.552,0.898,0.816,1.328c0.258,0.435,0.516,0.85,0.746,1.263
		c0.197,0.434,0.387,0.853,0.569,1.255c0.181,0.404,0.354,0.792,0.521,1.162c0.144,0.38,0.241,0.76,0.354,1.111
		c0.205,0.711,0.431,1.337,0.545,1.901c0.092,0.57,0.17,1.055,0.234,1.447c0.122,0.789,0.188,1.21,0.188,1.21
		c0.17,1.09-0.577,2.111-1.668,2.28c-1.09,0.17-2.111-0.577-2.281-1.667c-0.002-0.019-0.005-0.037-0.008-0.056l-0.033-0.276
		c0,0-0.041-0.342-0.12-0.982c-0.036-0.321-0.082-0.719-0.136-1.185c-0.072-0.464-0.246-0.98-0.387-1.57
		c-0.08-0.293-0.142-0.608-0.248-0.928c-0.127-0.313-0.26-0.643-0.399-0.984c-0.138-0.345-0.28-0.702-0.429-1.074
		c-0.192-0.355-0.393-0.724-0.599-1.104c-0.214-0.378-0.409-0.781-0.653-1.175c-0.266-0.385-0.538-0.78-0.818-1.187
		c-0.521-0.837-1.243-1.615-1.931-2.47c-0.714-0.838-1.544-1.651-2.381-2.51c-0.902-0.804-1.776-1.692-2.796-2.496
		c-1.953-1.689-4.198-3.293-6.523-4.946c-4.705-3.251-9.963-6.443-15.189-9.726c-2.615-1.637-5.214-3.315-7.737-5.023
		c-2.507-1.736-4.96-3.471-7.206-5.327c-1.148-0.892-2.201-1.87-3.253-2.794c-1.016-0.967-2.01-1.916-2.913-2.9
		c-0.889-1.001-1.774-1.952-2.506-2.98c-0.373-0.508-0.775-0.979-1.104-1.489c-0.324-0.514-0.643-1.018-0.955-1.511
		c-0.155-0.247-0.309-0.49-0.461-0.732c-0.128-0.255-0.254-0.508-0.38-0.758c-0.25-0.499-0.494-0.986-0.731-1.461
		c-0.449-0.962-0.742-1.934-1.086-2.811c-0.277-0.903-0.444-1.775-0.647-2.565c-0.209-0.789-0.21-1.554-0.312-2.221
		c-0.216-1.342-0.094-2.402-0.114-3.124C274.958,331.386,274.962,331,274.962,331z"/>
</g>
<g>
	<path fill="#636C72" d="M434.805,101.22c0,0-0.093,0.462-0.267,1.328c-0.174,0.864-0.452,2.134-0.864,3.738
		c-0.427,1.6-0.991,3.539-1.871,5.707c-0.896,2.153-2.131,4.56-4.02,6.845c-1.864,2.304-4.351,4.371-6.988,6.311
		c-2.643,1.95-5.417,3.884-8.149,6.021c-1.401,1.062-2.59,2.191-4.371,3.334c-1.618,1.073-3.28,2.006-4.965,2.904
		c-3.369,1.785-6.832,3.379-10.297,4.933c-6.933,3.089-13.883,5.972-20.281,8.817c-6.395,2.834-12.252,5.625-16.913,8.314
		c-2.321,1.346-4.35,2.661-5.938,3.896c-1.603,1.225-2.744,2.382-3.365,3.235c-0.639,0.869-0.714,1.327-0.731,1.472
		c0.006,0.145,0.034,0.133,0.021,0.144l-3.907,3.155c-1.61,1.3-3.969,1.049-5.269-0.562c-0.613-0.758-0.881-1.691-0.824-2.594
		c0,0,0.015-0.227,0.043-0.666c0.022-0.445,0.123-1.076,0.318-1.866c0.401-1.561,1.404-3.525,2.872-5.193
		c1.462-1.697,3.321-3.232,5.456-4.658c2.137-1.438,4.562-2.774,7.216-4.087c5.309-2.605,11.544-5.065,18.225-7.512
		c6.676-2.45,13.81-4.867,20.814-7.446c3.496-1.295,6.97-2.625,10.253-4.095c1.638-0.736,3.237-1.503,4.705-2.342
		c1.326-0.738,2.929-1.879,4.456-2.78c3.068-1.876,6.105-3.512,8.872-5.102c2.771-1.586,5.228-3.202,7.157-5.093
		c1.949-1.869,3.365-3.973,4.461-5.938c1.082-1.978,1.856-3.814,2.456-5.339c0.587-1.532,1.006-2.754,1.279-3.594
		C434.66,101.668,434.805,101.22,434.805,101.22z"/>
</g>
<g>
	<path fill="#636C72" d="M435.157,101.22c0,0,0.085,0.462,0.245,1.33c0.081,0.434,0.248,0.951,0.406,1.562
		c0.211,0.598,0.419,1.299,0.766,2.037c0.642,1.495,1.626,3.221,3.043,4.975c1.41,1.757,3.239,3.54,5.418,5.251
		c4.355,3.441,10.117,6.529,16.505,9.317c6.395,2.796,13.435,5.311,20.526,7.769c7.096,2.457,14.251,4.857,20.935,7.45
		c6.679,2.601,12.902,5.392,18.046,8.761c2.57,1.675,4.856,3.542,6.729,5.538c1.88,1.984,3.297,4.165,4.172,6.178
		c0.897,2.013,1.208,3.797,1.401,4.984c0.116,1.2,0.15,1.847,0.15,1.847c0.146,2.757-1.971,5.111-4.729,5.257
		c-2.757,0.146-5.11-1.971-5.257-4.729c-0.002-0.04-0.003-0.08-0.005-0.119l-0.01-0.41c0,0-0.007-0.292,0.013-0.852
		c-0.06-0.548-0.085-1.359-0.441-2.402c-0.343-1.042-0.989-2.347-2.145-3.8c-1.146-1.45-2.745-3.044-4.778-4.625
		c-4.055-3.185-9.65-6.331-15.882-9.365c-6.241-3.041-13.136-6.014-20.031-9.062c-6.896-3.053-13.806-6.188-20.083-9.579
		c-6.271-3.382-11.928-7.043-16.133-10.974c-2.104-1.955-3.842-3.957-5.146-5.892c-1.311-1.932-2.173-3.79-2.699-5.366
		c-0.289-0.779-0.442-1.51-0.604-2.13c-0.109-0.637-0.233-1.17-0.278-1.608C435.204,101.688,435.157,101.22,435.157,101.22z"/>
</g>
<g>
	<path fill="#636C72" d="M339.129,413.668l2,61.333c0.036,1.104-0.83,2.029-1.935,2.065s-2.029-0.83-2.065-1.935
		c-0.001-0.042-0.001-0.09,0-0.131L339.129,413.668z"/>
</g>
<g>
	<path fill="#636C72" d="M338.962,181.668l2,61.333c0.036,1.104-0.83,2.029-1.935,2.064c-1.104,0.037-2.029-0.83-2.065-1.934
		c-0.001-0.043-0.001-0.09,0-0.131L338.962,181.668z"/>
</g>
<g>
	<path fill="#636C72" d="M468.17,258.334l3.5,61.333c0.11,1.933-1.367,3.59-3.3,3.7c-1.934,0.109-3.59-1.368-3.7-3.301
		c-0.008-0.134-0.007-0.269,0-0.399L468.17,258.334z"/>
</g>
<circle fill="#BEAED4" cx="258.332" cy="23.832" r="14.278"/>
<circle fill="#BEAED4" cx="339.129" cy="407.911" r="11.094"/>
<circle fill="#BEAED4" cx="533.192" cy="178.083" r="11.093"/>
<circle fill="#FDC086" cx="468.17" cy="254.5" r="11.093"/>
<circle fill="#FC8D62" cx="337.632" cy="178.084" r="11.093"/>
<circle fill="#A6D854" cx="15.5" cy="178.084" r="11.093"/>
<circle fill="#A6D854" cx="79.407" cy="254.5" r="11.093"/>
<circle fill="#A6D854" cx="144.578" cy="331" r="11.093"/>
<circle fill="#A6D854" cx="338.962" cy="254.5" r="11.093"/>
<circle fill="#A6D854" cx="467.809" cy="331" r="11.093"/>
<circle fill="#A6D854" cx="597.193" cy="254.5" r="11.093"/>
<circle fill="#FC8D62" cx="275.27" cy="331" r="11.093"/>
<circle fill="#FDC086" cx="145.578" cy="178.084" r="11.093"/>
<circle fill="#FDC086" cx="339.129" cy="484.095" r="11.094"/>
<circle fill="#FFD92F" cx="210.237" cy="254.5" r="11.093"/>
<circle fill="#FFD92F" cx="209.237" cy="407.912" r="11.093"/>
<circle fill="#FDC086" cx="81.852" cy="102.72" r="11.093"/>
<circle fill="#F781BF" cx="434.805" cy="102.72" r="11.094"/>
<g>
</g>
<g>
</g>
<g>
</g>
<g>
</g>
<g>
</g>
<g>
</g>
</svg>
