<?xml version="1.0" encoding="utf-8"?>
<!-- Generator: Adobe Illustrator 16.0.4, SVG Export Plug-In . SVG Version: 6.00 Build 0)  -->
<!DOCTYPE svg PUBLIC "-//W3C//DTD SVG 1.1//EN" "http://www.w3.org/Graphics/SVG/1.1/DTD/svg11.dtd">
<svg version="1.1" xmlns="http://www.w3.org/2000/svg" xmlns:xlink="http://www.w3.org/1999/xlink" x="0px" y="0px"
	 width="458.023px" height="280.8px" viewBox="0 0 458.023 280.8" enable-background="new 0 0 458.023 280.8" xml:space="preserve">
<g id="Layer_3">
	<g>
		<path fill="#636C72" d="M67.25,80.188L37.463,98.333c-0.472,0.288-1.087,0.138-1.375-0.334c-0.287-0.472-0.138-1.087,0.334-1.375
			c0.016-0.009,0.034-0.02,0.05-0.028L67.25,80.188z"/>
	</g>
	<g>
		<path fill="#636C72" d="M34.821,98.688l-13.655,11.844c-0.417,0.362-1.05,0.317-1.413-0.101c-0.362-0.417-0.317-1.05,0.1-1.413
			c0.028-0.024,0.058-0.047,0.088-0.068L34.821,98.688z"/>
	</g>
	<g>
		<path fill="#636C72" d="M18.607,112.855l-6.244,14.344c-0.221,0.507-0.812,0.74-1.319,0.519c-0.507-0.221-0.74-0.811-0.519-1.318
			c0.017-0.038,0.038-0.08,0.059-0.114L18.607,112.855z"/>
	</g>
	<g>
		<path fill="#636C72" d="M18.04,112.855l8.023,13.43c0.284,0.475,0.128,1.09-0.347,1.374c-0.475,0.284-1.09,0.129-1.374-0.346
			c-0.021-0.036-0.042-0.077-0.059-0.114L18.04,112.855z"/>
	</g>
	<g>
		<path fill="#636C72" d="M51.319,112.855l-6.244,14.344c-0.221,0.507-0.812,0.74-1.319,0.519c-0.507-0.221-0.74-0.811-0.519-1.318
			c0.017-0.038,0.038-0.08,0.059-0.114L51.319,112.855z"/>
	</g>
	<g>
		<path fill="#636C72" d="M50.752,112.855l8.023,13.43c0.284,0.475,0.128,1.09-0.347,1.374c-0.475,0.284-1.09,0.129-1.374-0.346
			c-0.021-0.036-0.042-0.077-0.059-0.114L50.752,112.855z"/>
	</g>
	<g>
		<path fill="#636C72" d="M83.748,112.855l-6.244,14.344c-0.221,0.507-0.812,0.74-1.319,0.519c-0.507-0.221-0.74-0.811-0.519-1.318
			c0.017-0.038,0.038-0.08,0.059-0.114L83.748,112.855z"/>
	</g>
	<g>
		<path fill="#636C72" d="M83.181,112.855l8.023,13.43c0.284,0.475,0.128,1.09-0.347,1.374c-0.475,0.284-1.09,0.129-1.374-0.346
			c-0.021-0.036-0.042-0.077-0.059-0.114L83.181,112.855z"/>
	</g>
	<g>
		<path fill="#636C72" d="M116.177,112.855l-6.244,14.344c-0.221,0.507-0.812,0.74-1.319,0.519c-0.507-0.221-0.74-0.811-0.519-1.318
			c0.017-0.038,0.038-0.08,0.059-0.114L116.177,112.855z"/>
	</g>
	<g>
		<path fill="#636C72" d="M115.61,112.855l8.023,13.43c0.284,0.475,0.128,1.09-0.347,1.374c-0.475,0.284-1.09,0.129-1.374-0.346
			c-0.021-0.036-0.042-0.077-0.059-0.114L115.61,112.855z"/>
	</g>
	<g>
		<path fill="#636C72" d="M34.795,98.688l14.88,10.263c0.456,0.314,0.57,0.938,0.256,1.393c-0.314,0.456-0.938,0.57-1.393,0.256
			c-0.03-0.021-0.06-0.044-0.087-0.068L34.795,98.688z"/>
	</g>
	<g>
		<path fill="#636C72" d="M99.652,98.634l14.88,10.263c0.456,0.314,0.57,0.938,0.256,1.393c-0.314,0.456-0.938,0.57-1.393,0.256
			c-0.03-0.021-0.06-0.044-0.087-0.068L99.652,98.634z"/>
	</g>
	<g>
		<path fill="#636C72" d="M99.705,98.634L86.05,110.479c-0.417,0.362-1.05,0.317-1.413-0.101c-0.362-0.417-0.317-1.05,0.1-1.413
			c0.028-0.024,0.058-0.047,0.088-0.068L99.705,98.634z"/>
	</g>
	<g>
		<path fill="#636C72" d="M68.036,80.188l30.778,16.407c0.487,0.26,0.672,0.866,0.412,1.354c-0.26,0.487-0.866,0.672-1.354,0.412
			c-0.016-0.008-0.034-0.019-0.05-0.028L68.036,80.188z"/>
	</g>
	<g>
		<path fill="#636C72" d="M215.892,80.938l-29.787,18.145c-0.472,0.288-1.087,0.138-1.375-0.334
			c-0.287-0.472-0.138-1.087,0.334-1.375c0.016-0.009,0.034-0.02,0.05-0.028L215.892,80.938z"/>
	</g>
	<g>
		<path fill="#636C72" d="M183.463,99.438l-13.655,11.844c-0.417,0.362-1.05,0.317-1.413-0.101c-0.362-0.417-0.317-1.05,0.1-1.413
			c0.028-0.024,0.058-0.047,0.088-0.068L183.463,99.438z"/>
	</g>
	<g>
		<path fill="#636C72" d="M167.249,113.605l-6.244,14.344c-0.221,0.507-0.812,0.74-1.319,0.519c-0.507-0.221-0.74-0.811-0.519-1.318
			c0.017-0.038,0.038-0.08,0.059-0.114L167.249,113.605z"/>
	</g>
	<g>
		<path fill="#636C72" d="M166.682,113.605l8.023,13.43c0.284,0.475,0.128,1.09-0.347,1.374c-0.475,0.284-1.09,0.129-1.374-0.346
			c-0.021-0.036-0.042-0.077-0.059-0.114L166.682,113.605z"/>
	</g>
	<g>
		<path fill="#636C72" d="M199.96,113.605l-6.244,14.344c-0.221,0.507-0.812,0.74-1.319,0.519c-0.507-0.221-0.74-0.811-0.519-1.318
			c0.017-0.038,0.038-0.08,0.059-0.114L199.96,113.605z"/>
	</g>
	<g>
		<path fill="#636C72" d="M199.394,113.605l8.023,13.43c0.284,0.475,0.128,1.09-0.347,1.374c-0.475,0.284-1.09,0.129-1.374-0.346
			c-0.021-0.036-0.042-0.077-0.059-0.114L199.394,113.605z"/>
	</g>
	<g>
		<path fill="#636C72" d="M232.39,113.605l-6.244,14.344c-0.221,0.507-0.812,0.74-1.319,0.519c-0.507-0.221-0.74-0.811-0.519-1.318
			c0.017-0.038,0.038-0.08,0.059-0.114L232.39,113.605z"/>
	</g>
	<g>
		<path fill="#636C72" d="M231.822,113.605l8.023,13.43c0.284,0.475,0.129,1.09-0.346,1.374c-0.476,0.284-1.091,0.129-1.375-0.346
			c-0.021-0.036-0.041-0.077-0.059-0.114L231.822,113.605z"/>
	</g>
	<g>
		<path fill="#636C72" d="M264.818,113.605l-6.244,14.344c-0.221,0.507-0.812,0.74-1.318,0.519c-0.508-0.221-0.74-0.811-0.52-1.318
			c0.017-0.038,0.038-0.08,0.059-0.114L264.818,113.605z"/>
	</g>
	<g>
		<path fill="#636C72" d="M264.252,113.605l8.023,13.43c0.283,0.475,0.128,1.09-0.348,1.374c-0.475,0.284-1.09,0.129-1.373-0.346
			c-0.021-0.036-0.043-0.077-0.059-0.114L264.252,113.605z"/>
	</g>
	<g>
		<path fill="#636C72" d="M183.437,99.438l14.88,10.263c0.456,0.314,0.57,0.938,0.256,1.393c-0.314,0.456-0.938,0.57-1.393,0.256
			c-0.03-0.021-0.06-0.044-0.087-0.068L183.437,99.438z"/>
	</g>
	<g>
		<path fill="#636C72" d="M248.293,99.384l14.881,10.263c0.455,0.314,0.569,0.938,0.256,1.393c-0.314,0.456-0.938,0.57-1.394,0.256
			c-0.03-0.021-0.06-0.044-0.087-0.068L248.293,99.384z"/>
	</g>
	<g>
		<path fill="#636C72" d="M248.347,99.384l-13.655,11.844c-0.418,0.362-1.051,0.317-1.412-0.101c-0.363-0.417-0.318-1.05,0.1-1.413
			c0.028-0.024,0.059-0.047,0.088-0.068L248.347,99.384z"/>
	</g>
	<g>
		<path fill="#636C72" d="M216.677,80.938l30.778,16.407c0.488,0.26,0.672,0.866,0.412,1.354c-0.26,0.487-0.865,0.672-1.354,0.412
			c-0.016-0.008-0.033-0.019-0.049-0.028L216.677,80.938z"/>
	</g>
	<g>
		<path fill="#636C72" d="M393.142,80.188l-29.787,18.145c-0.472,0.288-1.087,0.138-1.375-0.334
			c-0.287-0.472-0.138-1.087,0.334-1.375c0.016-0.009,0.034-0.02,0.05-0.028L393.142,80.188z"/>
	</g>
	<g>
		<path fill="#636C72" d="M360.713,98.688l-13.655,11.844c-0.417,0.362-1.05,0.317-1.413-0.101c-0.361-0.417-0.316-1.05,0.101-1.413
			c0.028-0.024,0.058-0.047,0.088-0.068L360.713,98.688z"/>
	</g>
	<g>
		<path fill="#636C72" d="M344.498,112.855l-6.244,14.344c-0.221,0.507-0.811,0.74-1.318,0.519c-0.508-0.221-0.74-0.811-0.52-1.318
			c0.018-0.038,0.039-0.08,0.059-0.114L344.498,112.855z"/>
	</g>
	<g>
		<path fill="#636C72" d="M343.932,112.855l8.023,13.43c0.283,0.475,0.129,1.09-0.347,1.374c-0.476,0.284-1.091,0.129-1.374-0.346
			c-0.021-0.036-0.042-0.077-0.059-0.114L343.932,112.855z"/>
	</g>
	<g>
		<path fill="#636C72" d="M377.211,112.855l-6.244,14.344c-0.222,0.507-0.812,0.74-1.319,0.519
			c-0.507-0.221-0.739-0.811-0.519-1.318c0.016-0.038,0.037-0.08,0.059-0.114L377.211,112.855z"/>
	</g>
	<g>
		<path fill="#636C72" d="M376.644,112.855l8.023,13.43c0.284,0.475,0.128,1.09-0.347,1.374c-0.475,0.284-1.09,0.129-1.374-0.346
			c-0.021-0.036-0.042-0.077-0.059-0.114L376.644,112.855z"/>
	</g>
	<g>
		<path fill="#636C72" d="M409.64,112.855l-6.244,14.344c-0.222,0.507-0.812,0.74-1.319,0.519c-0.507-0.221-0.739-0.811-0.519-1.318
			c0.017-0.038,0.038-0.08,0.059-0.114L409.64,112.855z"/>
	</g>
	<g>
		<path fill="#636C72" d="M409.072,112.855l8.023,13.43c0.284,0.475,0.129,1.09-0.346,1.374c-0.476,0.284-1.091,0.129-1.375-0.346
			c-0.021-0.036-0.041-0.077-0.059-0.114L409.072,112.855z"/>
	</g>
	<g>
		<path fill="#636C72" d="M442.068,112.855l-6.244,14.344c-0.221,0.507-0.812,0.74-1.318,0.519c-0.508-0.221-0.74-0.811-0.52-1.318
			c0.017-0.038,0.038-0.08,0.059-0.114L442.068,112.855z"/>
	</g>
	<g>
		<path fill="#636C72" d="M441.502,112.855l8.023,13.43c0.283,0.475,0.128,1.09-0.348,1.374c-0.475,0.284-1.09,0.129-1.373-0.346
			c-0.021-0.036-0.043-0.077-0.059-0.114L441.502,112.855z"/>
	</g>
	<g>
		<path fill="#636C72" d="M360.687,98.688l14.88,10.263c0.455,0.314,0.57,0.938,0.256,1.393c-0.314,0.456-0.938,0.57-1.393,0.256
			c-0.031-0.021-0.061-0.044-0.088-0.068L360.687,98.688z"/>
	</g>
	<g>
		<path fill="#636C72" d="M425.543,98.634l14.881,10.263c0.455,0.314,0.569,0.938,0.256,1.393c-0.314,0.456-0.938,0.57-1.394,0.256
			c-0.03-0.021-0.06-0.044-0.087-0.068L425.543,98.634z"/>
	</g>
	<g>
		<path fill="#636C72" d="M425.597,98.634l-13.655,11.844c-0.418,0.362-1.051,0.317-1.412-0.101c-0.363-0.417-0.318-1.05,0.1-1.413
			c0.028-0.024,0.059-0.047,0.088-0.068L425.597,98.634z"/>
	</g>
	<g>
		<path fill="#636C72" d="M393.928,80.188l30.777,16.407c0.488,0.26,0.672,0.866,0.412,1.354c-0.26,0.487-0.865,0.672-1.354,0.412
			c-0.016-0.008-0.033-0.019-0.049-0.028L393.928,80.188z"/>
	</g>
	<g>
		<path fill="#D2D2D2" d="M9.307,40.191v-12.78h5.472c0.564,0,1.083,0.117,1.557,0.351c0.474,0.234,0.882,0.546,1.224,0.936
			c0.342,0.39,0.609,0.828,0.801,1.314c0.192,0.486,0.288,0.981,0.288,1.485c0,0.444-0.063,0.873-0.189,1.287
			c-0.126,0.414-0.306,0.79-0.54,1.125c-0.234,0.336-0.516,0.625-0.846,0.864c-0.33,0.24-0.699,0.414-1.107,0.522l3.096,4.896
			h-1.836l-2.916-4.59h-3.384v4.59H9.307z M10.927,34.161h3.87c0.336,0,0.639-0.072,0.909-0.216s0.5-0.339,0.693-0.585
			c0.192-0.246,0.342-0.531,0.45-0.855c0.108-0.324,0.162-0.66,0.162-1.008c0-0.36-0.063-0.699-0.189-1.017s-0.294-0.6-0.504-0.846
			c-0.21-0.246-0.456-0.438-0.738-0.576c-0.282-0.138-0.579-0.207-0.891-0.207h-3.762V34.161z"/>
		<path fill="#D2D2D2" d="M23.149,40.371c-0.444,0-0.858-0.075-1.242-0.225c-0.384-0.15-0.717-0.357-0.999-0.621
			c-0.282-0.264-0.504-0.573-0.666-0.927c-0.162-0.354-0.243-0.741-0.243-1.161c0-0.432,0.096-0.825,0.288-1.179
			c0.192-0.354,0.465-0.657,0.819-0.909c0.354-0.252,0.774-0.45,1.26-0.594c0.486-0.144,1.017-0.216,1.593-0.216
			c0.456,0,0.918,0.042,1.386,0.126c0.468,0.084,0.882,0.198,1.242,0.342v-0.756c0-0.768-0.216-1.371-0.648-1.809
			s-1.044-0.657-1.836-0.657c-0.948,0-1.944,0.366-2.988,1.098l-0.522-1.026c1.212-0.816,2.43-1.224,3.654-1.224
			c1.236,0,2.199,0.33,2.889,0.99s1.035,1.59,1.035,2.79v3.834c0,0.372,0.168,0.564,0.504,0.576v1.368
			c-0.168,0.024-0.306,0.042-0.414,0.054c-0.108,0.012-0.222,0.018-0.342,0.018c-0.312,0-0.561-0.093-0.747-0.279
			s-0.297-0.411-0.333-0.675l-0.036-0.666c-0.42,0.564-0.952,0.993-1.593,1.287C24.568,40.224,23.881,40.371,23.149,40.371z
			 M23.563,39.183c0.564,0,1.089-0.105,1.575-0.315c0.486-0.209,0.855-0.489,1.107-0.837c0.228-0.228,0.342-0.461,0.342-0.702
			v-1.386c-0.768-0.3-1.566-0.45-2.394-0.45c-0.792,0-1.437,0.168-1.935,0.504s-0.747,0.774-0.747,1.314
			c0,0.264,0.051,0.51,0.153,0.738c0.102,0.228,0.246,0.426,0.432,0.594c0.186,0.168,0.405,0.3,0.657,0.396
			S23.275,39.183,23.563,39.183z"/>
		<path fill="#D2D2D2" d="M38.863,40.191h-1.584v-5.256c0-1.008-0.153-1.74-0.459-2.196c-0.306-0.456-0.771-0.684-1.395-0.684
			c-0.324,0-0.648,0.063-0.972,0.189c-0.324,0.126-0.63,0.297-0.918,0.513c-0.288,0.216-0.54,0.474-0.756,0.774
			c-0.216,0.3-0.378,0.63-0.486,0.99v5.67h-1.584v-9.396h1.44v2.016c0.372-0.66,0.909-1.188,1.611-1.584
			c0.702-0.396,1.467-0.594,2.295-0.594c0.54,0,0.99,0.099,1.35,0.297c0.36,0.198,0.648,0.475,0.864,0.828
			c0.216,0.354,0.369,0.771,0.459,1.251c0.09,0.48,0.135,1.002,0.135,1.566V40.191z"/>
		<path fill="#D2D2D2" d="M45.199,40.371c-0.648,0-1.248-0.132-1.8-0.396c-0.552-0.264-1.026-0.618-1.422-1.062
			s-0.705-0.96-0.927-1.548c-0.222-0.587-0.333-1.206-0.333-1.854c0-0.66,0.105-1.287,0.315-1.881
			c0.21-0.594,0.504-1.113,0.882-1.557c0.378-0.444,0.828-0.794,1.35-1.053c0.522-0.258,1.095-0.387,1.719-0.387
			c0.756,0,1.431,0.198,2.025,0.594c0.594,0.396,1.065,0.876,1.413,1.44v-5.616h1.584v11.196c0,0.372,0.168,0.564,0.504,0.576v1.368
			c-0.168,0.024-0.303,0.042-0.405,0.054c-0.103,0.012-0.201,0.018-0.297,0.018c-0.312,0-0.585-0.104-0.819-0.315
			c-0.234-0.209-0.351-0.453-0.351-0.729v-0.792c-0.372,0.612-0.867,1.089-1.485,1.431C46.534,40.2,45.883,40.371,45.199,40.371z
			 M45.577,39.003c0.288,0,0.585-0.054,0.891-0.162s0.594-0.258,0.864-0.45c0.27-0.192,0.504-0.417,0.702-0.675
			c0.198-0.258,0.327-0.531,0.387-0.819v-2.7c-0.108-0.3-0.27-0.585-0.486-0.855c-0.216-0.27-0.459-0.504-0.729-0.702
			c-0.27-0.198-0.558-0.354-0.864-0.468c-0.306-0.114-0.609-0.171-0.909-0.171c-0.468,0-0.891,0.099-1.269,0.297
			c-0.378,0.198-0.702,0.462-0.972,0.792c-0.27,0.33-0.477,0.708-0.621,1.134s-0.216,0.861-0.216,1.305
			c0,0.468,0.083,0.916,0.252,1.341c0.168,0.426,0.396,0.795,0.684,1.107c0.288,0.312,0.626,0.561,1.017,0.747
			S45.121,39.003,45.577,39.003z"/>
		<path fill="#D2D2D2" d="M56.754,40.371c-0.708,0-1.353-0.132-1.935-0.396c-0.582-0.264-1.08-0.618-1.494-1.062
			s-0.735-0.96-0.963-1.548c-0.229-0.587-0.342-1.206-0.342-1.854c0-0.66,0.117-1.284,0.351-1.872s0.558-1.104,0.972-1.548
			c0.414-0.444,0.912-0.798,1.494-1.062c0.582-0.264,1.221-0.396,1.917-0.396s1.338,0.132,1.926,0.396
			c0.588,0.264,1.089,0.618,1.503,1.062c0.414,0.444,0.738,0.96,0.972,1.548c0.234,0.588,0.351,1.212,0.351,1.872
			c0,0.648-0.114,1.267-0.342,1.854c-0.228,0.588-0.552,1.104-0.972,1.548s-0.921,0.798-1.503,1.062
			C58.107,40.239,57.462,40.371,56.754,40.371z M53.641,35.529c0,0.492,0.081,0.948,0.243,1.368c0.162,0.42,0.384,0.786,0.666,1.098
			c0.282,0.312,0.612,0.558,0.99,0.738s0.783,0.27,1.215,0.27c0.432,0,0.837-0.09,1.215-0.27s0.711-0.429,0.999-0.747
			c0.288-0.318,0.513-0.69,0.675-1.116s0.243-0.885,0.243-1.377c0-0.479-0.081-0.933-0.243-1.359
			c-0.162-0.426-0.387-0.798-0.675-1.116c-0.288-0.318-0.621-0.567-0.999-0.747c-0.378-0.18-0.783-0.27-1.215-0.27
			c-0.432,0-0.837,0.093-1.215,0.279c-0.378,0.187-0.708,0.438-0.99,0.756c-0.282,0.318-0.504,0.69-0.666,1.116
			C53.722,34.578,53.641,35.037,53.641,35.529z"/>
		<path fill="#D2D2D2" d="M77.598,40.191h-1.584v-5.256c0-0.984-0.159-1.71-0.477-2.178c-0.318-0.468-0.789-0.702-1.413-0.702
			c-0.648,0-1.228,0.231-1.737,0.693c-0.51,0.462-0.873,1.059-1.089,1.791v5.652h-1.584v-5.256c0-1.008-0.156-1.74-0.468-2.196
			c-0.312-0.456-0.78-0.684-1.404-0.684c-0.636,0-1.212,0.225-1.728,0.675c-0.516,0.45-0.882,1.047-1.098,1.791v5.67h-1.584v-9.396
			h1.44v2.016c0.384-0.696,0.882-1.233,1.494-1.611c0.612-0.378,1.302-0.567,2.07-0.567c0.792,0,1.418,0.213,1.881,0.639
			c0.462,0.426,0.747,0.975,0.855,1.647c0.84-1.524,2.034-2.286,3.582-2.286c0.54,0,0.993,0.099,1.359,0.297
			c0.366,0.198,0.657,0.475,0.873,0.828c0.216,0.354,0.372,0.771,0.468,1.251c0.096,0.48,0.144,1.002,0.144,1.566V40.191z"/>
		<path fill="#D2D2D2" d="M84.87,40.191v-12.78h8.442v1.44H86.49v4.266h5.742v1.35H86.49v5.724H84.87z"/>
		<path fill="#D2D2D2" d="M98.64,40.371c-0.708,0-1.353-0.132-1.935-0.396c-0.582-0.264-1.08-0.618-1.494-1.062
			s-0.735-0.96-0.963-1.548c-0.229-0.587-0.342-1.206-0.342-1.854c0-0.66,0.117-1.284,0.351-1.872s0.558-1.104,0.972-1.548
			c0.414-0.444,0.912-0.798,1.494-1.062c0.582-0.264,1.221-0.396,1.917-0.396s1.338,0.132,1.926,0.396
			c0.588,0.264,1.089,0.618,1.503,1.062c0.414,0.444,0.738,0.96,0.972,1.548c0.234,0.588,0.351,1.212,0.351,1.872
			c0,0.648-0.114,1.267-0.342,1.854c-0.228,0.588-0.552,1.104-0.972,1.548s-0.921,0.798-1.503,1.062
			C99.993,40.239,99.348,40.371,98.64,40.371z M95.526,35.529c0,0.492,0.081,0.948,0.243,1.368c0.162,0.42,0.384,0.786,0.666,1.098
			c0.282,0.312,0.612,0.558,0.99,0.738s0.783,0.27,1.215,0.27c0.432,0,0.837-0.09,1.215-0.27s0.711-0.429,0.999-0.747
			c0.288-0.318,0.513-0.69,0.675-1.116s0.243-0.885,0.243-1.377c0-0.479-0.081-0.933-0.243-1.359
			c-0.162-0.426-0.387-0.798-0.675-1.116c-0.288-0.318-0.621-0.567-0.999-0.747c-0.378-0.18-0.783-0.27-1.215-0.27
			c-0.432,0-0.837,0.093-1.215,0.279c-0.378,0.187-0.708,0.438-0.99,0.756c-0.282,0.318-0.504,0.69-0.666,1.116
			C95.607,34.578,95.526,35.037,95.526,35.529z"/>
		<path fill="#D2D2D2" d="M110.286,32.181c-0.792,0.024-1.491,0.228-2.097,0.612c-0.606,0.384-1.035,0.918-1.287,1.602v5.796h-1.584
			v-9.396h1.476v2.178c0.324-0.648,0.75-1.173,1.278-1.575c0.528-0.402,1.092-0.627,1.692-0.675c0.12,0,0.222,0,0.306,0
			s0.156,0.006,0.216,0.018V32.181z"/>
		<path fill="#D2D2D2" d="M115.794,40.371c-0.708,0-1.356-0.129-1.944-0.387c-0.588-0.258-1.092-0.609-1.512-1.053
			c-0.42-0.444-0.747-0.963-0.981-1.557c-0.234-0.594-0.351-1.221-0.351-1.881c0-0.66,0.117-1.284,0.351-1.872
			s0.564-1.104,0.99-1.548c0.426-0.444,0.933-0.794,1.521-1.053c0.588-0.258,1.236-0.387,1.944-0.387
			c0.708,0,1.353,0.132,1.935,0.396c0.582,0.264,1.077,0.615,1.485,1.053c0.408,0.438,0.723,0.948,0.945,1.53
			c0.222,0.583,0.333,1.185,0.333,1.809c0,0.132-0.003,0.252-0.009,0.36c-0.006,0.108-0.015,0.192-0.027,0.252h-7.794
			c0.036,0.468,0.144,0.895,0.324,1.278c0.18,0.384,0.414,0.714,0.702,0.99c0.288,0.276,0.615,0.492,0.981,0.648
			c0.366,0.156,0.753,0.234,1.161,0.234c0.288,0,0.569-0.039,0.846-0.117c0.276-0.078,0.534-0.183,0.774-0.315
			c0.24-0.132,0.453-0.294,0.639-0.486s0.327-0.408,0.423-0.648l1.368,0.378c-0.156,0.348-0.369,0.666-0.639,0.954
			c-0.27,0.288-0.582,0.538-0.936,0.747c-0.354,0.21-0.747,0.375-1.179,0.495C116.712,40.311,116.262,40.371,115.794,40.371z
			 M119.016,34.863c-0.036-0.444-0.147-0.855-0.333-1.233c-0.187-0.378-0.42-0.699-0.702-0.963
			c-0.282-0.264-0.609-0.471-0.981-0.621c-0.372-0.15-0.768-0.225-1.188-0.225c-0.42,0-0.816,0.075-1.188,0.225
			c-0.372,0.15-0.699,0.36-0.981,0.63c-0.282,0.27-0.51,0.591-0.684,0.963c-0.174,0.372-0.279,0.78-0.315,1.224H119.016z"/>
		<path fill="#D2D2D2" d="M125.568,40.371c-0.756,0-1.5-0.117-2.232-0.351s-1.362-0.573-1.89-1.017l0.684-1.062
			c0.552,0.42,1.104,0.735,1.656,0.945c0.552,0.21,1.134,0.315,1.746,0.315c0.684,0,1.227-0.135,1.629-0.405
			c0.402-0.27,0.603-0.651,0.603-1.143c0-0.228-0.054-0.423-0.162-0.585s-0.27-0.303-0.486-0.423
			c-0.216-0.12-0.492-0.228-0.828-0.324c-0.336-0.096-0.726-0.198-1.17-0.306c-0.564-0.144-1.05-0.282-1.458-0.414
			c-0.408-0.132-0.744-0.288-1.008-0.468c-0.264-0.18-0.456-0.396-0.576-0.648c-0.12-0.252-0.18-0.564-0.18-0.936
			c0-0.468,0.093-0.885,0.279-1.251c0.186-0.366,0.441-0.672,0.765-0.918c0.324-0.246,0.705-0.432,1.143-0.558
			s0.909-0.189,1.413-0.189c0.708,0,1.368,0.114,1.98,0.342s1.128,0.528,1.548,0.9l-0.72,0.954c-0.396-0.348-0.84-0.609-1.332-0.783
			c-0.492-0.174-0.996-0.261-1.512-0.261c-0.576,0-1.065,0.123-1.467,0.369c-0.402,0.246-0.603,0.639-0.603,1.179
			c0,0.216,0.039,0.396,0.117,0.54c0.078,0.144,0.207,0.27,0.387,0.378s0.411,0.204,0.693,0.288c0.282,0.084,0.621,0.174,1.017,0.27
			c0.624,0.144,1.167,0.291,1.629,0.441s0.846,0.327,1.152,0.531c0.306,0.204,0.534,0.444,0.684,0.72
			c0.15,0.276,0.225,0.612,0.225,1.008c0,0.876-0.336,1.572-1.008,2.088C127.614,40.113,126.708,40.371,125.568,40.371z"/>
		<path fill="#D2D2D2" d="M136.026,39.723c-0.096,0.048-0.222,0.105-0.378,0.171c-0.156,0.066-0.333,0.132-0.531,0.198
			c-0.198,0.066-0.414,0.12-0.648,0.162s-0.477,0.063-0.729,0.063c-0.576,0-1.074-0.159-1.494-0.477
			c-0.42-0.318-0.63-0.812-0.63-1.485v-6.318h-1.278v-1.242h1.278v-3.132h1.584v3.132h2.106v1.242H133.2v5.832
			c0.024,0.348,0.138,0.6,0.342,0.756c0.204,0.156,0.444,0.234,0.72,0.234c0.312,0,0.597-0.051,0.855-0.153
			c0.258-0.102,0.435-0.183,0.531-0.243L136.026,39.723z"/>
	</g>
	<g>
		<path fill="#D2D2D2" d="M189.567,18.524V5.744h1.62v12.78H189.567z"/>
		<path fill="#D2D2D2" d="M202.149,18.524h-1.584v-5.256c0-1.008-0.153-1.74-0.459-2.196c-0.306-0.456-0.771-0.684-1.395-0.684
			c-0.324,0-0.648,0.063-0.972,0.189c-0.324,0.126-0.63,0.297-0.918,0.513c-0.288,0.216-0.54,0.474-0.756,0.774
			c-0.216,0.3-0.378,0.63-0.486,0.99v5.67h-1.584V9.128h1.44v2.016c0.372-0.66,0.909-1.188,1.611-1.584
			c0.702-0.396,1.467-0.594,2.295-0.594c0.54,0,0.99,0.099,1.35,0.297c0.36,0.198,0.648,0.475,0.864,0.828
			c0.216,0.354,0.369,0.771,0.459,1.251c0.09,0.48,0.135,1.002,0.135,1.566V18.524z"/>
		<path fill="#D2D2D2" d="M207.909,18.704c-0.756,0-1.5-0.117-2.232-0.351s-1.362-0.573-1.89-1.017l0.684-1.062
			c0.552,0.42,1.104,0.735,1.656,0.945c0.552,0.21,1.134,0.315,1.746,0.315c0.684,0,1.227-0.135,1.629-0.405
			c0.402-0.27,0.603-0.651,0.603-1.143c0-0.228-0.054-0.423-0.162-0.585s-0.27-0.303-0.486-0.423
			c-0.216-0.12-0.492-0.228-0.828-0.324c-0.336-0.096-0.726-0.198-1.17-0.306c-0.564-0.144-1.05-0.282-1.458-0.414
			c-0.408-0.132-0.744-0.288-1.008-0.468c-0.264-0.18-0.456-0.396-0.576-0.648c-0.12-0.252-0.18-0.564-0.18-0.936
			c0-0.468,0.093-0.885,0.279-1.251c0.186-0.366,0.441-0.672,0.765-0.918c0.324-0.246,0.705-0.432,1.143-0.558
			s0.909-0.189,1.413-0.189c0.708,0,1.368,0.114,1.98,0.342s1.128,0.528,1.548,0.9l-0.72,0.954c-0.396-0.348-0.84-0.609-1.332-0.783
			c-0.492-0.174-0.996-0.261-1.512-0.261c-0.576,0-1.065,0.123-1.467,0.369c-0.402,0.246-0.603,0.639-0.603,1.179
			c0,0.216,0.039,0.396,0.117,0.54c0.078,0.144,0.207,0.27,0.387,0.378s0.411,0.204,0.693,0.288c0.282,0.084,0.621,0.174,1.017,0.27
			c0.624,0.144,1.167,0.291,1.629,0.441s0.846,0.327,1.152,0.531c0.306,0.204,0.534,0.444,0.684,0.72
			c0.15,0.276,0.225,0.612,0.225,1.008c0,0.876-0.336,1.572-1.008,2.088C209.955,18.446,209.049,18.704,207.909,18.704z"/>
		<path fill="#D2D2D2" d="M218.367,18.056c-0.096,0.048-0.222,0.105-0.378,0.171c-0.156,0.066-0.333,0.132-0.531,0.198
			c-0.198,0.066-0.414,0.12-0.648,0.162s-0.477,0.063-0.729,0.063c-0.576,0-1.074-0.159-1.494-0.477
			c-0.42-0.318-0.63-0.812-0.63-1.485V10.37h-1.278V9.128h1.278V5.996h1.584v3.132h2.106v1.242h-2.106v5.832
			c0.024,0.348,0.138,0.6,0.342,0.756c0.204,0.156,0.444,0.234,0.72,0.234c0.312,0,0.597-0.051,0.855-0.153
			c0.258-0.102,0.435-0.183,0.531-0.243L218.367,18.056z"/>
		<path fill="#D2D2D2" d="M222.255,18.704c-0.444,0-0.858-0.075-1.242-0.225c-0.384-0.15-0.717-0.357-0.999-0.621
			c-0.282-0.264-0.504-0.573-0.666-0.927c-0.162-0.354-0.243-0.741-0.243-1.161c0-0.432,0.096-0.825,0.288-1.179
			c0.192-0.354,0.465-0.657,0.819-0.909c0.354-0.252,0.774-0.45,1.26-0.594c0.486-0.144,1.017-0.216,1.593-0.216
			c0.456,0,0.918,0.042,1.386,0.126c0.468,0.084,0.882,0.198,1.242,0.342v-0.756c0-0.768-0.216-1.371-0.648-1.809
			s-1.044-0.657-1.836-0.657c-0.948,0-1.944,0.366-2.988,1.098l-0.522-1.026c1.212-0.816,2.43-1.224,3.654-1.224
			c1.236,0,2.199,0.33,2.889,0.99s1.035,1.59,1.035,2.79v3.834c0,0.372,0.168,0.564,0.504,0.576v1.368
			c-0.168,0.024-0.306,0.042-0.414,0.054c-0.108,0.012-0.222,0.018-0.342,0.018c-0.312,0-0.561-0.093-0.747-0.279
			s-0.297-0.411-0.333-0.675l-0.036-0.666c-0.42,0.564-0.952,0.993-1.593,1.287C223.674,18.557,222.987,18.704,222.255,18.704z
			 M222.669,17.516c0.564,0,1.089-0.105,1.575-0.315c0.486-0.209,0.855-0.489,1.107-0.837c0.228-0.228,0.342-0.461,0.342-0.702
			v-1.386c-0.768-0.3-1.566-0.45-2.394-0.45c-0.792,0-1.437,0.168-1.935,0.504s-0.747,0.774-0.747,1.314
			c0,0.264,0.051,0.51,0.153,0.738c0.102,0.228,0.246,0.426,0.432,0.594c0.186,0.168,0.405,0.3,0.657,0.396
			S222.381,17.516,222.669,17.516z"/>
		<path fill="#D2D2D2" d="M237.969,18.524h-1.584v-5.256c0-1.008-0.153-1.74-0.459-2.196c-0.307-0.456-0.771-0.684-1.395-0.684
			c-0.324,0-0.648,0.063-0.973,0.189c-0.324,0.126-0.63,0.297-0.918,0.513c-0.288,0.216-0.54,0.474-0.756,0.774
			c-0.217,0.3-0.378,0.63-0.486,0.99v5.67h-1.584V9.128h1.439v2.016c0.373-0.66,0.91-1.188,1.611-1.584
			c0.702-0.396,1.467-0.594,2.295-0.594c0.541,0,0.99,0.099,1.351,0.297c0.36,0.198,0.647,0.475,0.864,0.828
			c0.216,0.354,0.369,0.771,0.459,1.251c0.09,0.48,0.135,1.002,0.135,1.566V18.524z"/>
		<path fill="#D2D2D2" d="M239.805,13.808c0-0.66,0.113-1.284,0.342-1.872s0.553-1.101,0.973-1.539s0.92-0.786,1.502-1.044
			c0.582-0.258,1.234-0.387,1.953-0.387c0.937,0,1.744,0.207,2.422,0.621s1.19,0.969,1.539,1.665l-1.549,0.486
			c-0.24-0.444-0.576-0.789-1.008-1.035s-0.912-0.369-1.439-0.369c-0.432,0-0.84,0.087-1.225,0.261
			c-0.384,0.174-0.714,0.417-0.99,0.729c-0.275,0.312-0.494,0.678-0.656,1.098c-0.162,0.42-0.243,0.882-0.243,1.386
			c0,0.492,0.084,0.954,0.252,1.386s0.394,0.807,0.675,1.125c0.282,0.318,0.612,0.567,0.99,0.747s0.783,0.27,1.215,0.27
			c0.275,0,0.549-0.039,0.819-0.117c0.27-0.078,0.516-0.183,0.737-0.315c0.223-0.132,0.418-0.285,0.586-0.459
			c0.168-0.174,0.287-0.363,0.359-0.567l1.549,0.468c-0.145,0.349-0.346,0.666-0.604,0.954s-0.561,0.534-0.909,0.738
			s-0.735,0.366-1.161,0.486s-0.873,0.18-1.341,0.18c-0.708,0-1.356-0.132-1.944-0.396c-0.588-0.264-1.092-0.618-1.512-1.062
			s-0.747-0.963-0.98-1.557C239.922,15.095,239.805,14.468,239.805,13.808z"/>
		<path fill="#D2D2D2" d="M254.475,18.704c-0.708,0-1.356-0.129-1.943-0.387c-0.589-0.258-1.093-0.609-1.513-1.053
			c-0.421-0.444-0.747-0.963-0.981-1.557c-0.233-0.594-0.351-1.221-0.351-1.881c0-0.66,0.117-1.284,0.351-1.872
			c0.234-0.588,0.564-1.104,0.99-1.548c0.426-0.444,0.934-0.794,1.521-1.053c0.588-0.258,1.235-0.387,1.943-0.387
			c0.709,0,1.354,0.132,1.936,0.396c0.582,0.264,1.076,0.615,1.484,1.053s0.723,0.948,0.945,1.53
			c0.223,0.583,0.333,1.185,0.333,1.809c0,0.132-0.003,0.252-0.009,0.36c-0.006,0.108-0.016,0.192-0.027,0.252h-7.794
			c0.036,0.468,0.144,0.895,0.324,1.278c0.181,0.384,0.414,0.714,0.702,0.99c0.288,0.276,0.615,0.492,0.98,0.648
			c0.366,0.156,0.754,0.234,1.162,0.234c0.287,0,0.568-0.039,0.846-0.117c0.275-0.078,0.533-0.183,0.773-0.315
			c0.24-0.132,0.453-0.294,0.639-0.486c0.187-0.192,0.327-0.408,0.424-0.648l1.367,0.378c-0.156,0.348-0.369,0.666-0.639,0.954
			c-0.27,0.288-0.582,0.538-0.936,0.747c-0.354,0.21-0.748,0.375-1.18,0.495S254.942,18.704,254.475,18.704z M257.697,13.196
			c-0.037-0.444-0.148-0.855-0.334-1.233s-0.42-0.699-0.701-0.963c-0.283-0.264-0.609-0.471-0.981-0.621
			c-0.372-0.15-0.769-0.225-1.188-0.225s-0.816,0.075-1.188,0.225c-0.372,0.15-0.699,0.36-0.98,0.63
			c-0.283,0.27-0.511,0.591-0.685,0.963c-0.175,0.372-0.279,0.78-0.315,1.224H257.697z"/>
	</g>
	<g>
		<path fill="#636C72" d="M299.101,109.688v-3.92h2.59v3.92H299.101z"/>
		<path fill="#636C72" d="M306.17,109.688v-3.92h2.59v3.92H306.17z"/>
		<path fill="#636C72" d="M313.24,109.688v-3.92h2.59v3.92H313.24z"/>
	</g>
	<g>
		<path fill="#D2D2D2" d="M51.64,141.851h-4.41v11.34h-1.62v-11.34H41.2v-1.439h10.44V141.851z"/>
		<path fill="#D2D2D2" d="M56.734,145.181c-0.792,0.023-1.491,0.229-2.097,0.611c-0.606,0.385-1.035,0.918-1.287,1.603v5.796h-1.584
			v-9.396h1.476v2.179c0.324-0.648,0.75-1.173,1.278-1.575c0.528-0.402,1.092-0.627,1.692-0.675c0.12,0,0.222,0,0.306,0
			s0.156,0.006,0.216,0.018V145.181z"/>
		<path fill="#D2D2D2" d="M62.242,153.371c-0.708,0-1.356-0.129-1.944-0.387c-0.588-0.258-1.092-0.609-1.512-1.053
			c-0.42-0.443-0.747-0.963-0.981-1.557c-0.234-0.595-0.351-1.222-0.351-1.882c0-0.659,0.117-1.284,0.351-1.872
			s0.564-1.104,0.99-1.548c0.426-0.444,0.933-0.794,1.521-1.053c0.588-0.258,1.236-0.388,1.944-0.388
			c0.708,0,1.353,0.133,1.935,0.396c0.582,0.264,1.077,0.615,1.485,1.053c0.408,0.438,0.723,0.948,0.945,1.53
			c0.222,0.583,0.333,1.185,0.333,1.81c0,0.132-0.003,0.252-0.009,0.359c-0.006,0.108-0.015,0.192-0.027,0.252h-7.794
			c0.036,0.469,0.144,0.895,0.324,1.278s0.414,0.714,0.702,0.989c0.288,0.277,0.615,0.492,0.981,0.648
			c0.366,0.156,0.753,0.234,1.161,0.234c0.288,0,0.569-0.039,0.846-0.117c0.276-0.078,0.534-0.183,0.774-0.314
			c0.24-0.133,0.453-0.295,0.639-0.486s0.327-0.408,0.423-0.648l1.368,0.379c-0.156,0.348-0.369,0.666-0.639,0.953
			c-0.27,0.288-0.582,0.537-0.936,0.747s-0.747,0.376-1.179,0.495C63.16,153.31,62.71,153.371,62.242,153.371z M65.464,147.863
			c-0.036-0.443-0.147-0.855-0.333-1.232c-0.187-0.379-0.42-0.699-0.702-0.963c-0.282-0.264-0.609-0.471-0.981-0.621
			c-0.372-0.15-0.768-0.226-1.188-0.226c-0.42,0-0.816,0.075-1.188,0.226c-0.372,0.15-0.699,0.359-0.981,0.629
			c-0.282,0.271-0.51,0.592-0.684,0.964c-0.174,0.372-0.279,0.78-0.315,1.224H65.464z"/>
		<path fill="#D2D2D2" d="M72.88,153.371c-0.708,0-1.356-0.129-1.944-0.387c-0.588-0.258-1.092-0.609-1.512-1.053
			c-0.42-0.443-0.747-0.963-0.981-1.557c-0.234-0.595-0.351-1.222-0.351-1.882c0-0.659,0.117-1.284,0.351-1.872
			s0.564-1.104,0.99-1.548c0.426-0.444,0.933-0.794,1.521-1.053c0.588-0.258,1.236-0.388,1.944-0.388
			c0.708,0,1.353,0.133,1.935,0.396c0.582,0.264,1.077,0.615,1.485,1.053c0.408,0.438,0.723,0.948,0.945,1.53
			c0.222,0.583,0.333,1.185,0.333,1.81c0,0.132-0.003,0.252-0.009,0.359c-0.006,0.108-0.015,0.192-0.027,0.252h-7.794
			c0.036,0.469,0.144,0.895,0.324,1.278s0.414,0.714,0.702,0.989c0.288,0.277,0.615,0.492,0.981,0.648
			c0.366,0.156,0.753,0.234,1.161,0.234c0.288,0,0.569-0.039,0.846-0.117c0.276-0.078,0.534-0.183,0.774-0.314
			c0.24-0.133,0.453-0.295,0.639-0.486s0.327-0.408,0.423-0.648l1.368,0.379c-0.156,0.348-0.369,0.666-0.639,0.953
			c-0.27,0.288-0.582,0.537-0.936,0.747s-0.747,0.376-1.179,0.495C73.798,153.31,73.348,153.371,72.88,153.371z M76.102,147.863
			c-0.036-0.443-0.147-0.855-0.333-1.232c-0.187-0.379-0.42-0.699-0.702-0.963c-0.282-0.264-0.609-0.471-0.981-0.621
			c-0.372-0.15-0.768-0.226-1.188-0.226c-0.42,0-0.816,0.075-1.188,0.226c-0.372,0.15-0.699,0.359-0.981,0.629
			c-0.282,0.271-0.51,0.592-0.684,0.964c-0.174,0.372-0.279,0.78-0.315,1.224H76.102z"/>
		<path fill="#D2D2D2" d="M79.233,148.998v-1.44h5.31v1.44H79.233z"/>
		<path fill="#D2D2D2" d="M93.363,151.751v1.439h-6.462v-1.439h2.556v-7.021c-0.108,0.144-0.276,0.297-0.504,0.459
			s-0.483,0.312-0.765,0.45c-0.282,0.138-0.573,0.255-0.873,0.351c-0.3,0.097-0.564,0.144-0.792,0.144v-1.512
			c0.264,0,0.558-0.074,0.882-0.225c0.324-0.15,0.633-0.324,0.927-0.521c0.293-0.199,0.546-0.391,0.756-0.576
			c0.21-0.187,0.333-0.315,0.369-0.387h1.62v8.838H93.363z"/>
	</g>
	<g>
		<path fill="#D2D2D2" d="M200.583,140.851h-4.41v11.34h-1.62v-11.34h-4.41v-1.439h10.44V140.851z"/>
		<path fill="#D2D2D2" d="M205.677,144.181c-0.792,0.023-1.491,0.229-2.097,0.611c-0.606,0.385-1.035,0.918-1.287,1.603v5.796
			h-1.584v-9.396h1.476v2.179c0.324-0.648,0.75-1.173,1.278-1.575c0.528-0.402,1.092-0.627,1.692-0.675c0.12,0,0.222,0,0.306,0
			s0.156,0.006,0.216,0.018V144.181z"/>
		<path fill="#D2D2D2" d="M211.185,152.371c-0.708,0-1.356-0.129-1.944-0.387c-0.588-0.258-1.092-0.609-1.512-1.053
			c-0.42-0.443-0.747-0.963-0.981-1.557c-0.234-0.595-0.351-1.222-0.351-1.882c0-0.659,0.117-1.284,0.351-1.872
			s0.564-1.104,0.99-1.548c0.426-0.444,0.933-0.794,1.521-1.053c0.588-0.258,1.236-0.388,1.944-0.388
			c0.708,0,1.353,0.133,1.935,0.396c0.582,0.264,1.077,0.615,1.485,1.053c0.408,0.438,0.723,0.948,0.945,1.53
			c0.222,0.583,0.333,1.185,0.333,1.81c0,0.132-0.003,0.252-0.009,0.359c-0.006,0.108-0.015,0.192-0.027,0.252h-7.794
			c0.036,0.469,0.144,0.895,0.324,1.278s0.414,0.714,0.702,0.989c0.288,0.277,0.615,0.492,0.981,0.648
			c0.366,0.156,0.753,0.234,1.161,0.234c0.288,0,0.569-0.039,0.846-0.117c0.276-0.078,0.534-0.183,0.774-0.314
			c0.24-0.133,0.453-0.295,0.639-0.486s0.327-0.408,0.423-0.648l1.368,0.379c-0.156,0.348-0.369,0.666-0.639,0.953
			c-0.27,0.288-0.582,0.537-0.936,0.747s-0.747,0.376-1.179,0.495C212.103,152.31,211.652,152.371,211.185,152.371z
			 M214.407,146.863c-0.036-0.443-0.147-0.855-0.333-1.232c-0.187-0.379-0.42-0.699-0.702-0.963
			c-0.282-0.264-0.609-0.471-0.981-0.621c-0.372-0.15-0.768-0.226-1.188-0.226c-0.42,0-0.816,0.075-1.188,0.226
			c-0.372,0.15-0.699,0.359-0.981,0.629c-0.282,0.271-0.51,0.592-0.684,0.964c-0.174,0.372-0.279,0.78-0.315,1.224H214.407z"/>
		<path fill="#D2D2D2" d="M221.822,152.371c-0.708,0-1.356-0.129-1.944-0.387c-0.588-0.258-1.092-0.609-1.512-1.053
			c-0.42-0.443-0.747-0.963-0.981-1.557c-0.234-0.595-0.351-1.222-0.351-1.882c0-0.659,0.117-1.284,0.351-1.872
			s0.564-1.104,0.99-1.548c0.426-0.444,0.933-0.794,1.521-1.053c0.588-0.258,1.236-0.388,1.944-0.388
			c0.708,0,1.353,0.133,1.935,0.396c0.582,0.264,1.077,0.615,1.485,1.053c0.408,0.438,0.723,0.948,0.945,1.53
			c0.222,0.583,0.333,1.185,0.333,1.81c0,0.132-0.003,0.252-0.009,0.359c-0.006,0.108-0.015,0.192-0.027,0.252h-7.794
			c0.036,0.469,0.144,0.895,0.324,1.278s0.414,0.714,0.702,0.989c0.288,0.277,0.615,0.492,0.981,0.648
			c0.366,0.156,0.753,0.234,1.161,0.234c0.288,0,0.569-0.039,0.846-0.117c0.276-0.078,0.534-0.183,0.774-0.314
			c0.24-0.133,0.453-0.295,0.639-0.486s0.327-0.408,0.423-0.648l1.368,0.379c-0.156,0.348-0.369,0.666-0.639,0.953
			c-0.27,0.288-0.582,0.537-0.936,0.747s-0.747,0.376-1.179,0.495C222.74,152.31,222.29,152.371,221.822,152.371z M225.044,146.863
			c-0.036-0.443-0.147-0.855-0.333-1.232c-0.187-0.379-0.42-0.699-0.702-0.963c-0.282-0.264-0.609-0.471-0.981-0.621
			c-0.372-0.15-0.768-0.226-1.188-0.226c-0.42,0-0.816,0.075-1.188,0.226c-0.372,0.15-0.699,0.359-0.981,0.629
			c-0.282,0.271-0.51,0.592-0.684,0.964c-0.174,0.372-0.279,0.78-0.315,1.224H225.044z"/>
		<path fill="#D2D2D2" d="M228.176,147.998v-1.44h5.311v1.44H228.176z"/>
		<path fill="#D2D2D2" d="M235.412,152.191c0-0.48,0.039-0.93,0.117-1.35c0.077-0.42,0.225-0.822,0.44-1.207
			c0.216-0.383,0.513-0.749,0.892-1.098c0.377-0.348,0.873-0.695,1.484-1.044c0.359-0.191,0.727-0.38,1.098-0.567
			c0.372-0.186,0.711-0.383,1.018-0.594c0.306-0.209,0.558-0.435,0.756-0.675c0.197-0.239,0.297-0.522,0.297-0.846
			c0-0.204-0.048-0.407-0.145-0.612c-0.096-0.203-0.233-0.384-0.414-0.54c-0.18-0.155-0.404-0.282-0.674-0.378
			c-0.271-0.096-0.58-0.145-0.928-0.145c-0.359,0-0.688,0.052-0.98,0.154c-0.295,0.102-0.556,0.228-0.783,0.377
			c-0.229,0.15-0.426,0.31-0.594,0.478s-0.307,0.317-0.414,0.45l-1.026-1.152c0.096-0.107,0.258-0.255,0.485-0.441
			c0.229-0.186,0.517-0.375,0.865-0.566c0.348-0.191,0.749-0.357,1.205-0.495s0.967-0.207,1.53-0.207
			c0.552,0,1.05,0.075,1.494,0.226c0.444,0.149,0.819,0.356,1.125,0.621c0.306,0.264,0.543,0.572,0.711,0.926
			c0.168,0.354,0.252,0.729,0.252,1.125c0,0.469-0.103,0.877-0.306,1.225c-0.205,0.348-0.453,0.654-0.747,0.918
			s-0.609,0.489-0.945,0.675c-0.336,0.187-0.636,0.345-0.899,0.478c-0.265,0.132-0.562,0.291-0.892,0.477s-0.646,0.396-0.944,0.63
			c-0.301,0.234-0.562,0.495-0.783,0.783c-0.223,0.288-0.363,0.601-0.424,0.937h6.139v1.439H235.412z"/>
	</g>
	<g>
		<path fill="#D2D2D2" d="M376.963,141.851h-4.41v11.34h-1.621v-11.34h-4.409v-1.439h10.44V141.851z"/>
		<path fill="#D2D2D2" d="M382.057,145.181c-0.792,0.023-1.491,0.229-2.098,0.611c-0.605,0.385-1.035,0.918-1.287,1.603v5.796
			h-1.584v-9.396h1.477v2.179c0.324-0.648,0.75-1.173,1.278-1.575s1.092-0.627,1.692-0.675c0.119,0,0.221,0,0.305,0
			s0.156,0.006,0.217,0.018V145.181z"/>
		<path fill="#D2D2D2" d="M387.564,153.371c-0.708,0-1.356-0.129-1.943-0.387c-0.589-0.258-1.093-0.609-1.513-1.053
			c-0.421-0.443-0.747-0.963-0.981-1.557c-0.233-0.595-0.351-1.222-0.351-1.882c0-0.659,0.117-1.284,0.351-1.872
			c0.234-0.588,0.564-1.104,0.99-1.548s0.934-0.794,1.521-1.053c0.588-0.258,1.235-0.388,1.943-0.388
			c0.709,0,1.354,0.133,1.936,0.396s1.076,0.615,1.484,1.053c0.408,0.438,0.723,0.948,0.945,1.53
			c0.223,0.583,0.333,1.185,0.333,1.81c0,0.132-0.003,0.252-0.009,0.359c-0.006,0.108-0.016,0.192-0.027,0.252h-7.794
			c0.036,0.469,0.144,0.895,0.324,1.278s0.414,0.714,0.702,0.989c0.288,0.277,0.615,0.492,0.98,0.648
			c0.366,0.156,0.754,0.234,1.162,0.234c0.287,0,0.568-0.039,0.846-0.117c0.275-0.078,0.533-0.183,0.773-0.314
			c0.24-0.133,0.453-0.295,0.639-0.486c0.187-0.191,0.327-0.408,0.424-0.648l1.367,0.379c-0.156,0.348-0.369,0.666-0.639,0.953
			c-0.27,0.288-0.582,0.537-0.936,0.747c-0.354,0.21-0.748,0.376-1.18,0.495S388.032,153.371,387.564,153.371z M390.787,147.863
			c-0.037-0.443-0.148-0.855-0.334-1.232c-0.186-0.379-0.42-0.699-0.701-0.963c-0.283-0.264-0.609-0.471-0.981-0.621
			s-0.769-0.226-1.188-0.226s-0.816,0.075-1.188,0.226c-0.372,0.15-0.699,0.359-0.98,0.629c-0.283,0.271-0.511,0.592-0.685,0.964
			c-0.175,0.372-0.279,0.78-0.315,1.224H390.787z"/>
		<path fill="#D2D2D2" d="M398.202,153.371c-0.708,0-1.356-0.129-1.944-0.387s-1.092-0.609-1.512-1.053s-0.747-0.963-0.98-1.557
			c-0.234-0.595-0.352-1.222-0.352-1.882c0-0.659,0.117-1.284,0.352-1.872c0.233-0.588,0.563-1.104,0.989-1.548
			c0.427-0.444,0.933-0.794,1.521-1.053c0.588-0.258,1.236-0.388,1.945-0.388c0.707,0,1.352,0.133,1.935,0.396
			c0.581,0.264,1.077,0.615,1.485,1.053c0.407,0.438,0.723,0.948,0.944,1.53c0.222,0.583,0.333,1.185,0.333,1.81
			c0,0.132-0.003,0.252-0.009,0.359c-0.007,0.108-0.015,0.192-0.026,0.252h-7.795c0.036,0.469,0.145,0.895,0.324,1.278
			s0.414,0.714,0.702,0.989c0.288,0.277,0.614,0.492,0.981,0.648c0.365,0.156,0.752,0.234,1.16,0.234
			c0.288,0,0.57-0.039,0.846-0.117c0.276-0.078,0.534-0.183,0.774-0.314c0.24-0.133,0.453-0.295,0.64-0.486
			c0.186-0.191,0.326-0.408,0.422-0.648l1.369,0.379c-0.156,0.348-0.369,0.666-0.64,0.953c-0.271,0.288-0.582,0.537-0.937,0.747
			c-0.354,0.21-0.746,0.376-1.178,0.495C399.12,153.31,398.67,153.371,398.202,153.371z M401.424,147.863
			c-0.035-0.443-0.146-0.855-0.332-1.232c-0.188-0.379-0.421-0.699-0.703-0.963c-0.281-0.264-0.609-0.471-0.98-0.621
			c-0.372-0.15-0.768-0.226-1.188-0.226c-0.421,0-0.816,0.075-1.188,0.226s-0.699,0.359-0.981,0.629
			c-0.281,0.271-0.51,0.592-0.684,0.964s-0.279,0.78-0.314,1.224H401.424z"/>
		<path fill="#D2D2D2" d="M404.556,148.998v-1.44h5.31v1.44H404.556z"/>
		<path fill="#D2D2D2" d="M420.449,153.191h-1.584v-5.256c0-1.008-0.152-1.74-0.459-2.196c-0.306-0.456-0.771-0.685-1.395-0.685
			c-0.324,0-0.648,0.063-0.973,0.189c-0.323,0.127-0.629,0.297-0.918,0.514c-0.287,0.216-0.539,0.474-0.756,0.773
			c-0.216,0.301-0.377,0.631-0.486,0.99v5.67h-1.584v-9.396h1.44v2.017c0.372-0.66,0.909-1.188,1.611-1.584s1.467-0.595,2.295-0.595
			c0.54,0,0.989,0.1,1.351,0.297c0.359,0.199,0.647,0.475,0.863,0.828c0.217,0.354,0.369,0.771,0.459,1.252
			c0.09,0.479,0.135,1.002,0.135,1.565V153.191z"/>
	</g>
	<g>
		<path fill="#D2D2D2" d="M362.193,189.712c0-0.769,0.135-1.533,0.405-2.295c0.271-0.763,0.666-1.446,1.188-2.053
			c0.521-0.605,1.16-1.095,1.916-1.467s1.614-0.559,2.574-0.559c1.141,0,2.118,0.259,2.935,0.774
			c0.815,0.517,1.422,1.188,1.817,2.017l-1.277,0.828c-0.192-0.408-0.424-0.75-0.693-1.026s-0.564-0.498-0.882-0.666
			c-0.318-0.168-0.646-0.288-0.981-0.36s-0.666-0.107-0.99-0.107c-0.707,0-1.334,0.146-1.881,0.44
			c-0.546,0.294-1.005,0.679-1.377,1.152c-0.371,0.474-0.65,1.008-0.836,1.602c-0.188,0.595-0.279,1.191-0.279,1.791
			c0,0.673,0.11,1.312,0.332,1.917c0.223,0.606,0.531,1.143,0.928,1.611c0.396,0.468,0.863,0.84,1.404,1.115
			c0.539,0.277,1.127,0.414,1.764,0.414c0.336,0,0.681-0.041,1.035-0.125c0.354-0.084,0.693-0.219,1.017-0.405
			c0.324-0.187,0.627-0.42,0.909-0.702c0.281-0.281,0.514-0.621,0.693-1.018l1.35,0.738c-0.204,0.48-0.489,0.903-0.855,1.27
			c-0.365,0.365-0.779,0.675-1.242,0.927c-0.461,0.252-0.951,0.444-1.467,0.576s-1.02,0.198-1.512,0.198
			c-0.876,0-1.68-0.192-2.412-0.576c-0.732-0.385-1.365-0.885-1.898-1.504c-0.534-0.617-0.948-1.319-1.242-2.105
			C362.34,191.33,362.193,190.529,362.193,189.712z"/>
		<path fill="#D2D2D2" d="M375.082,183.052h1.584v10.709c0,0.349,0.092,0.621,0.278,0.82c0.187,0.197,0.447,0.297,0.783,0.297
			c0.132,0,0.288-0.021,0.468-0.063s0.348-0.093,0.504-0.153l0.252,1.278c-0.264,0.108-0.576,0.198-0.936,0.271
			c-0.359,0.071-0.678,0.107-0.954,0.107c-0.612,0-1.095-0.174-1.448-0.521c-0.355-0.349-0.531-0.834-0.531-1.459V183.052z"/>
		<path fill="#D2D2D2" d="M382.605,196.373c-0.443,0-0.857-0.076-1.242-0.226c-0.384-0.149-0.717-0.356-0.998-0.621
			c-0.283-0.264-0.505-0.573-0.666-0.927c-0.162-0.354-0.244-0.741-0.244-1.161c0-0.433,0.096-0.825,0.289-1.179
			c0.191-0.354,0.465-0.657,0.818-0.909c0.354-0.253,0.773-0.45,1.26-0.595c0.486-0.144,1.018-0.215,1.594-0.215
			c0.455,0,0.918,0.041,1.386,0.125s0.882,0.198,1.241,0.342v-0.756c0-0.768-0.215-1.371-0.647-1.809s-1.044-0.656-1.836-0.656
			c-0.948,0-1.944,0.365-2.988,1.098l-0.522-1.026c1.213-0.815,2.431-1.224,3.654-1.224c1.236,0,2.199,0.33,2.889,0.99
			c0.69,0.66,1.035,1.59,1.035,2.789v3.834c0,0.373,0.168,0.564,0.504,0.576v1.368c-0.168,0.024-0.305,0.042-0.414,0.054
			c-0.107,0.012-0.222,0.018-0.342,0.018c-0.312,0-0.561-0.092-0.746-0.278c-0.187-0.187-0.297-0.411-0.334-0.675l-0.035-0.666
			c-0.42,0.564-0.951,0.993-1.594,1.287C384.024,196.224,383.338,196.373,382.605,196.373z M383.02,195.184
			c0.564,0,1.089-0.104,1.575-0.315c0.485-0.209,0.854-0.488,1.106-0.837c0.229-0.228,0.342-0.462,0.342-0.702v-1.386
			c-0.768-0.3-1.565-0.45-2.394-0.45c-0.792,0-1.437,0.168-1.935,0.504s-0.748,0.774-0.748,1.314c0,0.264,0.052,0.51,0.154,0.738
			c0.102,0.228,0.245,0.426,0.432,0.594c0.186,0.168,0.404,0.3,0.656,0.396C382.461,195.136,382.731,195.184,383.02,195.184z"/>
		<path fill="#D2D2D2" d="M393.459,196.373c-0.756,0-1.5-0.117-2.232-0.352c-0.731-0.234-1.361-0.573-1.889-1.018l0.684-1.062
			c0.552,0.421,1.104,0.735,1.656,0.944c0.551,0.211,1.133,0.315,1.746,0.315c0.684,0,1.227-0.135,1.629-0.405
			c0.401-0.27,0.603-0.65,0.603-1.143c0-0.228-0.054-0.423-0.162-0.585s-0.271-0.303-0.485-0.423
			c-0.217-0.12-0.492-0.229-0.828-0.324s-0.727-0.197-1.17-0.306c-0.564-0.144-1.051-0.282-1.459-0.414s-0.744-0.288-1.008-0.468
			s-0.456-0.396-0.576-0.648c-0.119-0.252-0.18-0.564-0.18-0.936c0-0.469,0.093-0.885,0.279-1.252
			c0.186-0.365,0.441-0.672,0.765-0.918c0.324-0.245,0.705-0.432,1.144-0.558c0.438-0.126,0.908-0.188,1.412-0.188
			c0.709,0,1.369,0.113,1.98,0.342s1.128,0.527,1.548,0.9l-0.72,0.953c-0.396-0.348-0.84-0.608-1.332-0.783
			c-0.492-0.174-0.996-0.26-1.512-0.26c-0.576,0-1.065,0.123-1.467,0.368c-0.402,0.246-0.604,0.64-0.604,1.179
			c0,0.217,0.039,0.396,0.117,0.541c0.078,0.144,0.207,0.27,0.387,0.377c0.18,0.108,0.411,0.205,0.693,0.289
			c0.281,0.084,0.621,0.174,1.017,0.27c0.624,0.145,1.167,0.291,1.629,0.441c0.462,0.149,0.847,0.326,1.152,0.53
			s0.534,0.444,0.685,0.72c0.149,0.277,0.225,0.612,0.225,1.008c0,0.877-0.336,1.572-1.008,2.088
			C395.505,196.114,394.6,196.373,393.459,196.373z"/>
		<path fill="#D2D2D2" d="M402.351,196.373c-0.756,0-1.5-0.117-2.231-0.352c-0.732-0.234-1.362-0.573-1.891-1.018l0.684-1.062
			c0.553,0.421,1.104,0.735,1.656,0.944c0.553,0.211,1.135,0.315,1.746,0.315c0.685,0,1.227-0.135,1.629-0.405
			c0.402-0.27,0.604-0.65,0.604-1.143c0-0.228-0.055-0.423-0.162-0.585s-0.27-0.303-0.486-0.423
			c-0.216-0.12-0.492-0.229-0.828-0.324s-0.726-0.197-1.17-0.306c-0.564-0.144-1.05-0.282-1.457-0.414
			c-0.408-0.132-0.744-0.288-1.009-0.468c-0.264-0.18-0.456-0.396-0.575-0.648c-0.121-0.252-0.181-0.564-0.181-0.936
			c0-0.469,0.093-0.885,0.279-1.252c0.186-0.365,0.44-0.672,0.765-0.918c0.324-0.245,0.705-0.432,1.143-0.558
			c0.438-0.126,0.91-0.188,1.414-0.188c0.707,0,1.367,0.113,1.979,0.342s1.128,0.527,1.548,0.9l-0.72,0.953
			c-0.396-0.348-0.841-0.608-1.332-0.783c-0.492-0.174-0.996-0.26-1.513-0.26c-0.575,0-1.064,0.123-1.467,0.368
			c-0.402,0.246-0.603,0.64-0.603,1.179c0,0.217,0.038,0.396,0.117,0.541c0.077,0.144,0.206,0.27,0.387,0.377
			c0.181,0.108,0.411,0.205,0.692,0.289c0.283,0.084,0.621,0.174,1.018,0.27c0.624,0.145,1.167,0.291,1.629,0.441
			c0.462,0.149,0.846,0.326,1.152,0.53c0.306,0.204,0.533,0.444,0.684,0.72c0.15,0.277,0.225,0.612,0.225,1.008
			c0,0.877-0.336,1.572-1.008,2.088C404.396,196.114,403.49,196.373,402.351,196.373z"/>
		<path fill="#D2D2D2" d="M407.822,191.998v-1.439h5.311v1.439H407.822z"/>
		<path fill="#D2D2D2" d="M425.625,192.898c0,0.492-0.1,0.941-0.297,1.35c-0.198,0.408-0.469,0.756-0.811,1.045
			c-0.342,0.287-0.738,0.51-1.188,0.666c-0.45,0.155-0.934,0.233-1.449,0.233h-6.066v-12.78h6.354c0.444,0,0.847,0.097,1.207,0.288
			c0.359,0.192,0.666,0.441,0.918,0.747c0.252,0.307,0.447,0.654,0.584,1.044c0.139,0.39,0.207,0.783,0.207,1.179
			c0,0.637-0.158,1.225-0.477,1.765s-0.771,0.942-1.359,1.206c0.732,0.216,1.312,0.615,1.738,1.197
			C425.412,191.419,425.625,192.106,425.625,192.898z M417.435,184.816v4.266h4.067c0.289,0,0.553-0.057,0.793-0.17
			c0.24-0.115,0.447-0.268,0.621-0.46c0.174-0.191,0.312-0.417,0.414-0.675c0.102-0.258,0.152-0.531,0.152-0.818
			c0-0.301-0.048-0.582-0.144-0.847c-0.097-0.264-0.226-0.491-0.388-0.685c-0.162-0.191-0.359-0.342-0.594-0.449
			s-0.482-0.162-0.746-0.162H417.435z M423.986,192.61c0-0.288-0.051-0.567-0.152-0.837c-0.103-0.27-0.24-0.507-0.414-0.711
			s-0.381-0.366-0.621-0.486c-0.24-0.119-0.504-0.18-0.792-0.18h-4.572v4.393h4.446c0.3,0,0.576-0.061,0.828-0.181
			s0.474-0.278,0.666-0.478c0.191-0.197,0.342-0.428,0.449-0.692C423.933,193.174,423.986,192.898,423.986,192.61z"/>
	</g>
	<g>
		<path fill="#D2D2D2" d="M185.319,189.712c0-0.769,0.135-1.533,0.405-2.295c0.27-0.763,0.666-1.446,1.188-2.053
			c0.522-0.605,1.161-1.095,1.917-1.467s1.614-0.559,2.574-0.559c1.14,0,2.118,0.259,2.934,0.774
			c0.816,0.517,1.422,1.188,1.818,2.017l-1.278,0.828c-0.192-0.408-0.423-0.75-0.693-1.026s-0.564-0.498-0.882-0.666
			c-0.318-0.168-0.645-0.288-0.981-0.36c-0.336-0.072-0.666-0.107-0.99-0.107c-0.708,0-1.335,0.146-1.881,0.44
			c-0.546,0.294-1.005,0.679-1.377,1.152c-0.372,0.474-0.651,1.008-0.837,1.602c-0.187,0.595-0.279,1.191-0.279,1.791
			c0,0.673,0.111,1.312,0.333,1.917c0.222,0.606,0.531,1.143,0.927,1.611c0.396,0.468,0.864,0.84,1.404,1.115
			c0.54,0.277,1.128,0.414,1.764,0.414c0.336,0,0.681-0.041,1.035-0.125c0.354-0.084,0.693-0.219,1.017-0.405
			c0.324-0.187,0.627-0.42,0.909-0.702c0.282-0.281,0.513-0.621,0.693-1.018l1.35,0.738c-0.204,0.48-0.489,0.903-0.855,1.27
			c-0.366,0.365-0.78,0.675-1.242,0.927s-0.951,0.444-1.467,0.576c-0.516,0.132-1.02,0.198-1.512,0.198
			c-0.876,0-1.68-0.192-2.412-0.576c-0.732-0.385-1.365-0.885-1.899-1.504c-0.534-0.617-0.948-1.319-1.242-2.105
			C185.465,191.33,185.319,190.529,185.319,189.712z"/>
		<path fill="#D2D2D2" d="M198.207,183.052h1.584v10.709c0,0.349,0.093,0.621,0.279,0.82c0.186,0.197,0.447,0.297,0.783,0.297
			c0.132,0,0.288-0.021,0.468-0.063c0.18-0.042,0.348-0.093,0.504-0.153l0.252,1.278c-0.264,0.108-0.576,0.198-0.936,0.271
			c-0.36,0.071-0.678,0.107-0.954,0.107c-0.612,0-1.095-0.174-1.449-0.521c-0.354-0.349-0.531-0.834-0.531-1.459V183.052z"/>
		<path fill="#D2D2D2" d="M205.73,196.373c-0.444,0-0.858-0.076-1.242-0.226c-0.384-0.149-0.717-0.356-0.999-0.621
			c-0.282-0.264-0.504-0.573-0.666-0.927c-0.162-0.354-0.243-0.741-0.243-1.161c0-0.433,0.096-0.825,0.288-1.179
			c0.192-0.354,0.465-0.657,0.819-0.909c0.354-0.253,0.774-0.45,1.26-0.595c0.486-0.144,1.017-0.215,1.593-0.215
			c0.456,0,0.918,0.041,1.386,0.125c0.468,0.084,0.882,0.198,1.242,0.342v-0.756c0-0.768-0.216-1.371-0.648-1.809
			s-1.044-0.656-1.836-0.656c-0.948,0-1.944,0.365-2.988,1.098l-0.522-1.026c1.212-0.815,2.43-1.224,3.654-1.224
			c1.236,0,2.199,0.33,2.889,0.99s1.035,1.59,1.035,2.789v3.834c0,0.373,0.168,0.564,0.504,0.576v1.368
			c-0.168,0.024-0.306,0.042-0.414,0.054c-0.108,0.012-0.222,0.018-0.342,0.018c-0.312,0-0.561-0.092-0.747-0.278
			s-0.297-0.411-0.333-0.675l-0.036-0.666c-0.42,0.564-0.952,0.993-1.593,1.287C207.149,196.224,206.462,196.373,205.73,196.373z
			 M206.145,195.184c0.564,0,1.089-0.104,1.575-0.315c0.486-0.209,0.855-0.488,1.107-0.837c0.228-0.228,0.342-0.462,0.342-0.702
			v-1.386c-0.768-0.3-1.566-0.45-2.394-0.45c-0.792,0-1.437,0.168-1.935,0.504s-0.747,0.774-0.747,1.314
			c0,0.264,0.051,0.51,0.153,0.738c0.102,0.228,0.246,0.426,0.432,0.594c0.186,0.168,0.405,0.3,0.657,0.396
			C205.586,195.136,205.856,195.184,206.145,195.184z"/>
		<path fill="#D2D2D2" d="M216.584,196.373c-0.756,0-1.5-0.117-2.232-0.352s-1.362-0.573-1.89-1.018l0.684-1.062
			c0.552,0.421,1.104,0.735,1.656,0.944c0.552,0.211,1.134,0.315,1.746,0.315c0.684,0,1.227-0.135,1.629-0.405
			c0.402-0.27,0.603-0.65,0.603-1.143c0-0.228-0.054-0.423-0.162-0.585s-0.27-0.303-0.486-0.423
			c-0.216-0.12-0.492-0.229-0.828-0.324s-0.726-0.197-1.17-0.306c-0.564-0.144-1.05-0.282-1.458-0.414
			c-0.408-0.132-0.744-0.288-1.008-0.468c-0.264-0.18-0.456-0.396-0.576-0.648c-0.12-0.252-0.18-0.564-0.18-0.936
			c0-0.469,0.093-0.885,0.279-1.252c0.186-0.365,0.441-0.672,0.765-0.918c0.324-0.245,0.705-0.432,1.143-0.558
			s0.909-0.188,1.413-0.188c0.708,0,1.368,0.113,1.98,0.342s1.128,0.527,1.548,0.9l-0.72,0.953c-0.396-0.348-0.84-0.608-1.332-0.783
			c-0.492-0.174-0.996-0.26-1.512-0.26c-0.576,0-1.065,0.123-1.467,0.368c-0.402,0.246-0.603,0.64-0.603,1.179
			c0,0.217,0.039,0.396,0.117,0.541c0.078,0.144,0.207,0.27,0.387,0.377c0.18,0.108,0.411,0.205,0.693,0.289
			c0.282,0.084,0.621,0.174,1.017,0.27c0.624,0.145,1.167,0.291,1.629,0.441c0.462,0.149,0.846,0.326,1.152,0.53
			c0.306,0.204,0.534,0.444,0.684,0.72c0.15,0.277,0.225,0.612,0.225,1.008c0,0.877-0.336,1.572-1.008,2.088
			C218.63,196.114,217.724,196.373,216.584,196.373z"/>
		<path fill="#D2D2D2" d="M225.476,196.373c-0.756,0-1.5-0.117-2.232-0.352s-1.362-0.573-1.89-1.018l0.684-1.062
			c0.552,0.421,1.104,0.735,1.656,0.944c0.552,0.211,1.134,0.315,1.746,0.315c0.684,0,1.227-0.135,1.629-0.405
			c0.402-0.27,0.603-0.65,0.603-1.143c0-0.228-0.054-0.423-0.162-0.585s-0.27-0.303-0.486-0.423
			c-0.216-0.12-0.492-0.229-0.828-0.324s-0.726-0.197-1.17-0.306c-0.564-0.144-1.05-0.282-1.458-0.414
			c-0.408-0.132-0.744-0.288-1.008-0.468c-0.264-0.18-0.456-0.396-0.576-0.648c-0.12-0.252-0.18-0.564-0.18-0.936
			c0-0.469,0.093-0.885,0.279-1.252c0.186-0.365,0.441-0.672,0.765-0.918c0.324-0.245,0.705-0.432,1.143-0.558
			s0.909-0.188,1.413-0.188c0.708,0,1.368,0.113,1.98,0.342s1.128,0.527,1.548,0.9l-0.72,0.953c-0.396-0.348-0.84-0.608-1.332-0.783
			c-0.492-0.174-0.996-0.26-1.512-0.26c-0.576,0-1.065,0.123-1.467,0.368c-0.402,0.246-0.603,0.64-0.603,1.179
			c0,0.217,0.039,0.396,0.117,0.541c0.078,0.144,0.207,0.27,0.387,0.377c0.18,0.108,0.411,0.205,0.693,0.289
			c0.282,0.084,0.621,0.174,1.017,0.27c0.624,0.145,1.167,0.291,1.629,0.441c0.462,0.149,0.846,0.326,1.152,0.53
			c0.306,0.204,0.534,0.444,0.684,0.72c0.15,0.277,0.224,0.612,0.224,1.008c0,0.877-0.335,1.572-1.007,2.088
			C227.521,196.114,226.616,196.373,225.476,196.373z"/>
		<path fill="#D2D2D2" d="M230.947,191.998v-1.439h5.311v1.439H230.947z"/>
		<path fill="#D2D2D2" d="M248.75,192.898c0,0.492-0.1,0.941-0.297,1.35c-0.198,0.408-0.469,0.756-0.811,1.045
			c-0.342,0.287-0.738,0.51-1.188,0.666c-0.45,0.155-0.934,0.233-1.449,0.233h-6.066v-12.78h6.354c0.444,0,0.847,0.097,1.207,0.288
			c0.359,0.192,0.666,0.441,0.918,0.747c0.252,0.307,0.447,0.654,0.584,1.044c0.139,0.39,0.207,0.783,0.207,1.179
			c0,0.637-0.158,1.225-0.477,1.765s-0.771,0.942-1.359,1.206c0.732,0.216,1.312,0.615,1.738,1.197
			C248.537,191.419,248.75,192.106,248.75,192.898z M240.56,184.816v4.266h4.067c0.289,0,0.553-0.057,0.793-0.17
			c0.24-0.115,0.447-0.268,0.621-0.46c0.174-0.191,0.312-0.417,0.414-0.675c0.102-0.258,0.152-0.531,0.152-0.818
			c0-0.301-0.048-0.582-0.144-0.847c-0.097-0.264-0.226-0.491-0.388-0.685c-0.162-0.191-0.359-0.342-0.594-0.449
			s-0.482-0.162-0.746-0.162H240.56z M247.111,192.61c0-0.288-0.051-0.567-0.152-0.837c-0.103-0.27-0.24-0.507-0.414-0.711
			s-0.381-0.366-0.621-0.486c-0.24-0.119-0.504-0.18-0.792-0.18h-4.572v4.393h4.446c0.3,0,0.576-0.061,0.828-0.181
			s0.474-0.278,0.666-0.478c0.191-0.197,0.342-0.428,0.449-0.692C247.058,193.174,247.111,192.898,247.111,192.61z"/>
	</g>
	<g>
		<path fill="#D2D2D2" d="M165.491,229.192v-9.882l-4.248,7.578h-0.918l-4.266-7.578v9.882h-1.62v-12.78h1.71l4.626,8.299
			l4.644-8.299h1.692v12.78H165.491z"/>
		<path fill="#D2D2D2" d="M172.241,229.373c-0.444,0-0.858-0.076-1.242-0.226c-0.384-0.149-0.717-0.356-0.999-0.621
			c-0.282-0.264-0.504-0.573-0.666-0.927c-0.162-0.354-0.243-0.741-0.243-1.161c0-0.433,0.096-0.825,0.288-1.179
			c0.192-0.354,0.465-0.657,0.819-0.909c0.354-0.253,0.774-0.45,1.26-0.595c0.486-0.144,1.017-0.215,1.593-0.215
			c0.456,0,0.918,0.041,1.386,0.125c0.468,0.084,0.882,0.198,1.242,0.342v-0.756c0-0.768-0.216-1.371-0.648-1.809
			s-1.044-0.656-1.836-0.656c-0.948,0-1.944,0.365-2.988,1.098l-0.522-1.026c1.212-0.815,2.43-1.224,3.654-1.224
			c1.236,0,2.199,0.33,2.889,0.99s1.035,1.59,1.035,2.789v3.834c0,0.373,0.168,0.564,0.504,0.576v1.368
			c-0.168,0.024-0.306,0.042-0.414,0.054c-0.108,0.012-0.222,0.018-0.342,0.018c-0.312,0-0.561-0.092-0.747-0.278
			s-0.297-0.411-0.333-0.675l-0.036-0.666c-0.42,0.564-0.952,0.993-1.593,1.287C173.66,229.224,172.973,229.373,172.241,229.373z
			 M172.655,228.184c0.564,0,1.089-0.104,1.575-0.315c0.486-0.209,0.855-0.488,1.107-0.837c0.228-0.228,0.342-0.462,0.342-0.702
			v-1.386c-0.768-0.3-1.566-0.45-2.394-0.45c-0.792,0-1.437,0.168-1.935,0.504s-0.747,0.774-0.747,1.314
			c0,0.264,0.051,0.51,0.153,0.738c0.102,0.228,0.246,0.426,0.432,0.594c0.186,0.168,0.405,0.3,0.657,0.396
			C172.097,228.136,172.367,228.184,172.655,228.184z"/>
		<path fill="#D2D2D2" d="M178.595,232.541c-0.42,0-0.812-0.061-1.179-0.181s-0.693-0.312-0.981-0.576l0.738-1.062
			c0.168,0.156,0.363,0.264,0.585,0.324c0.222,0.06,0.441,0.09,0.657,0.09c0.192,0,0.378-0.039,0.558-0.117
			c0.18-0.078,0.342-0.184,0.486-0.314c0.144-0.133,0.258-0.295,0.342-0.486c0.084-0.192,0.126-0.396,0.126-0.612v-9.81h1.584v9.701
			c0,0.444-0.081,0.852-0.243,1.225c-0.162,0.371-0.378,0.693-0.648,0.963s-0.579,0.479-0.927,0.63
			C179.345,232.464,178.979,232.541,178.595,232.541z M179.927,218.032v-1.979h1.584v1.979H179.927z"/>
		<path fill="#D2D2D2" d="M188.171,229.373c-0.708,0-1.353-0.133-1.935-0.396s-1.08-0.618-1.494-1.062
			c-0.414-0.443-0.735-0.959-0.963-1.548c-0.229-0.587-0.342-1.206-0.342-1.854c0-0.659,0.117-1.283,0.351-1.871
			s0.558-1.104,0.972-1.549c0.414-0.443,0.912-0.797,1.494-1.062c0.582-0.264,1.221-0.396,1.917-0.396s1.338,0.132,1.926,0.396
			c0.588,0.265,1.089,0.618,1.503,1.062c0.414,0.445,0.738,0.961,0.972,1.549c0.234,0.588,0.351,1.212,0.351,1.871
			c0,0.648-0.114,1.268-0.342,1.854c-0.228,0.589-0.552,1.104-0.972,1.548c-0.42,0.444-0.921,0.799-1.503,1.062
			S188.879,229.373,188.171,229.373z M185.057,224.53c0,0.492,0.081,0.948,0.243,1.368c0.162,0.42,0.384,0.786,0.666,1.098
			c0.282,0.312,0.612,0.559,0.99,0.738s0.783,0.27,1.215,0.27c0.432,0,0.837-0.09,1.215-0.27s0.711-0.429,0.999-0.747
			c0.288-0.317,0.513-0.69,0.675-1.116s0.243-0.885,0.243-1.377c0-0.479-0.081-0.933-0.243-1.359
			c-0.162-0.426-0.387-0.797-0.675-1.115c-0.288-0.318-0.621-0.567-0.999-0.747c-0.378-0.181-0.783-0.271-1.215-0.271
			c-0.432,0-0.837,0.094-1.215,0.279c-0.378,0.187-0.708,0.438-0.99,0.756c-0.282,0.318-0.504,0.69-0.666,1.116
			C185.138,223.58,185.057,224.039,185.057,224.53z"/>
		<path fill="#D2D2D2" d="M199.817,221.182c-0.792,0.024-1.491,0.228-2.097,0.612c-0.606,0.384-1.035,0.918-1.287,1.602v5.796
			h-1.584v-9.396h1.476v2.178c0.324-0.648,0.75-1.173,1.278-1.575c0.528-0.401,1.092-0.627,1.692-0.675c0.12,0,0.222,0,0.306,0
			s0.156,0.006,0.216,0.018V221.182z"/>
		<path fill="#D2D2D2" d="M201.383,218.032v-1.979h1.584v1.979H201.383z M201.383,229.192v-9.396h1.584v9.396H201.383z"/>
		<path fill="#D2D2D2" d="M210.383,228.724c-0.096,0.048-0.222,0.105-0.378,0.171c-0.156,0.065-0.333,0.132-0.531,0.198
			c-0.198,0.066-0.414,0.119-0.648,0.162c-0.234,0.041-0.477,0.062-0.729,0.062c-0.576,0-1.074-0.158-1.494-0.477
			s-0.63-0.812-0.63-1.485v-6.317h-1.278v-1.242h1.278v-3.133h1.584v3.133h2.106v1.242h-2.106v5.832
			c0.024,0.348,0.138,0.6,0.342,0.756s0.444,0.233,0.72,0.233c0.312,0,0.597-0.051,0.855-0.153c0.258-0.102,0.435-0.183,0.531-0.242
			L210.383,228.724z"/>
		<path fill="#D2D2D2" d="M212.291,231.748c0.156,0.024,0.312,0.043,0.468,0.055c0.156,0.012,0.276,0.018,0.36,0.018
			c0.144,0,0.273-0.033,0.387-0.1c0.114-0.065,0.228-0.194,0.342-0.387c0.114-0.191,0.243-0.459,0.387-0.801s0.324-0.789,0.54-1.341
			l-3.978-9.396h1.638l3.204,7.974l2.916-7.974h1.512l-4.572,11.861c-0.168,0.42-0.447,0.789-0.837,1.107
			c-0.39,0.317-0.927,0.477-1.611,0.477c-0.108,0-0.219-0.006-0.333-0.018c-0.114-0.012-0.255-0.036-0.423-0.072V231.748z"/>
		<path fill="#D2D2D2" d="M221.345,224.998v-1.439h5.31v1.439H221.345z"/>
		<path fill="#D2D2D2" d="M229.104,216.412l4.229,10.746l4.212-10.746h1.71l-5.22,12.78h-1.404l-5.238-12.78H229.104z"/>
		<path fill="#D2D2D2" d="M243.61,229.373c-0.708,0-1.353-0.133-1.935-0.396s-1.08-0.618-1.494-1.062
			c-0.414-0.443-0.735-0.959-0.963-1.548c-0.229-0.587-0.342-1.206-0.342-1.854c0-0.659,0.117-1.283,0.351-1.871
			s0.558-1.104,0.972-1.549c0.414-0.443,0.912-0.797,1.494-1.062c0.582-0.264,1.221-0.396,1.917-0.396s1.338,0.132,1.927,0.396
			c0.588,0.265,1.088,0.618,1.502,1.062c0.414,0.445,0.738,0.961,0.973,1.549s0.351,1.212,0.351,1.871
			c0,0.648-0.114,1.268-0.342,1.854c-0.228,0.589-0.552,1.104-0.972,1.548c-0.42,0.444-0.922,0.799-1.504,1.062
			S244.318,229.373,243.61,229.373z M240.496,224.53c0,0.492,0.082,0.948,0.244,1.368c0.161,0.42,0.383,0.786,0.665,1.098
			c0.282,0.312,0.612,0.559,0.99,0.738s0.783,0.27,1.215,0.27c0.433,0,0.837-0.09,1.216-0.27c0.377-0.18,0.711-0.429,0.998-0.747
			c0.288-0.317,0.514-0.69,0.676-1.116s0.242-0.885,0.242-1.377c0-0.479-0.08-0.933-0.242-1.359
			c-0.162-0.426-0.388-0.797-0.676-1.115c-0.287-0.318-0.621-0.567-0.998-0.747c-0.379-0.181-0.783-0.271-1.216-0.271
			c-0.432,0-0.837,0.094-1.215,0.279c-0.378,0.187-0.708,0.438-0.99,0.756c-0.282,0.318-0.504,0.69-0.665,1.116
			C240.578,223.58,240.496,224.039,240.496,224.53z"/>
		<path fill="#D2D2D2" d="M255.005,228.724c-0.097,0.048-0.222,0.105-0.378,0.171s-0.334,0.132-0.531,0.198
			c-0.198,0.066-0.414,0.119-0.648,0.162c-0.233,0.041-0.477,0.062-0.729,0.062c-0.576,0-1.074-0.158-1.494-0.477
			s-0.63-0.812-0.63-1.485v-6.317h-1.278v-1.242h1.278v-3.133h1.584v3.133h2.106v1.242h-2.106v5.832
			c0.024,0.348,0.138,0.6,0.342,0.756s0.444,0.233,0.72,0.233c0.312,0,0.598-0.051,0.855-0.153c0.258-0.102,0.435-0.183,0.531-0.242
			L255.005,228.724z"/>
		<path fill="#D2D2D2" d="M256.48,218.032v-1.979h1.584v1.979H256.48z M256.48,229.192v-9.396h1.584v9.396H256.48z"/>
		<path fill="#D2D2D2" d="M268.775,229.192h-1.584v-5.256c0-1.009-0.154-1.739-0.459-2.196c-0.307-0.455-0.771-0.684-1.396-0.684
			c-0.324,0-0.647,0.062-0.972,0.189c-0.324,0.125-0.631,0.297-0.918,0.512c-0.289,0.217-0.541,0.475-0.756,0.774
			c-0.217,0.3-0.379,0.63-0.486,0.99v5.67h-1.584v-9.396h1.439v2.016c0.372-0.66,0.909-1.188,1.611-1.584
			c0.701-0.396,1.467-0.594,2.295-0.594c0.54,0,0.99,0.099,1.35,0.297c0.36,0.197,0.648,0.475,0.864,0.828s0.369,0.771,0.459,1.25
			c0.091,0.48,0.136,1.003,0.136,1.566V229.192z"/>
		<path fill="#D2D2D2" d="M274.984,229.3c-0.637,0-1.221-0.133-1.755-0.396s-0.993-0.617-1.377-1.062
			c-0.384-0.443-0.681-0.953-0.892-1.529c-0.209-0.576-0.314-1.176-0.314-1.801c0-0.659,0.105-1.286,0.314-1.881
			c0.211-0.594,0.508-1.112,0.892-1.557c0.384-0.443,0.843-0.795,1.377-1.053s1.125-0.387,1.772-0.387
			c0.793,0,1.477,0.191,2.053,0.576c0.576,0.384,1.062,0.869,1.457,1.457v-1.871h1.404v9.287c0,0.672-0.125,1.264-0.377,1.773
			s-0.595,0.939-1.027,1.287c-0.432,0.348-0.938,0.611-1.521,0.792c-0.582,0.18-1.203,0.271-1.862,0.271
			c-1.068,0-1.936-0.184-2.602-0.55s-1.221-0.873-1.665-1.521l0.918-0.811c0.372,0.553,0.853,0.966,1.44,1.242
			c0.588,0.275,1.224,0.414,1.908,0.414c0.432,0,0.842-0.061,1.232-0.18c0.39-0.121,0.729-0.301,1.018-0.541
			c0.287-0.24,0.519-0.539,0.692-0.899s0.261-0.786,0.261-1.278v-1.656c-0.18,0.289-0.393,0.55-0.639,0.783
			c-0.246,0.234-0.514,0.433-0.801,0.594c-0.288,0.162-0.594,0.285-0.918,0.369S275.32,229.3,274.984,229.3z M275.471,228.003
			c0.336,0,0.66-0.06,0.972-0.18c0.312-0.119,0.601-0.279,0.864-0.477c0.264-0.198,0.486-0.424,0.666-0.676s0.299-0.51,0.359-0.773
			v-2.7c-0.132-0.323-0.303-0.618-0.513-0.882s-0.447-0.495-0.711-0.693c-0.265-0.197-0.549-0.351-0.854-0.459
			c-0.307-0.107-0.615-0.162-0.928-0.162c-0.48,0-0.908,0.103-1.287,0.307c-0.377,0.204-0.699,0.475-0.963,0.81
			c-0.264,0.337-0.468,0.718-0.611,1.144c-0.145,0.426-0.217,0.854-0.217,1.287c0,0.468,0.084,0.912,0.252,1.332
			s0.396,0.785,0.685,1.098s0.627,0.561,1.017,0.747C274.592,227.912,275.014,228.003,275.471,228.003z"/>
	</g>
	<g>
		<path fill="#D2D2D2" d="M172.151,269.85v-12.78h8.442v1.44h-6.822v4.266h5.742v1.351h-5.742v5.724H172.151z"/>
		<path fill="#D2D2D2" d="M182.393,258.69v-1.979h1.584v1.979H182.393z M182.393,269.85v-9.396h1.584v9.396H182.393z"/>
		<path fill="#D2D2D2" d="M194.688,269.85h-1.584v-5.256c0-1.009-0.153-1.739-0.459-2.196c-0.306-0.455-0.771-0.684-1.395-0.684
			c-0.324,0-0.648,0.062-0.972,0.189c-0.324,0.125-0.63,0.297-0.918,0.512c-0.288,0.217-0.54,0.475-0.756,0.774
			c-0.216,0.3-0.378,0.63-0.486,0.99v5.67h-1.584v-9.396h1.44v2.016c0.372-0.66,0.909-1.188,1.611-1.584
			c0.702-0.396,1.467-0.594,2.295-0.594c0.54,0,0.99,0.099,1.35,0.297c0.36,0.197,0.648,0.475,0.864,0.828
			c0.216,0.354,0.369,0.771,0.459,1.25c0.09,0.48,0.135,1.003,0.135,1.566V269.85z"/>
		<path fill="#D2D2D2" d="M199.565,270.031c-0.444,0-0.858-0.076-1.242-0.226c-0.384-0.149-0.717-0.356-0.999-0.621
			c-0.282-0.264-0.504-0.573-0.666-0.927c-0.162-0.354-0.243-0.741-0.243-1.161c0-0.433,0.096-0.825,0.288-1.179
			c0.192-0.354,0.465-0.657,0.819-0.909c0.354-0.253,0.774-0.45,1.26-0.595c0.486-0.144,1.017-0.215,1.593-0.215
			c0.456,0,0.918,0.041,1.386,0.125c0.468,0.084,0.882,0.198,1.242,0.342v-0.756c0-0.768-0.216-1.371-0.648-1.809
			s-1.044-0.656-1.836-0.656c-0.948,0-1.944,0.365-2.988,1.098l-0.522-1.026c1.212-0.815,2.43-1.224,3.654-1.224
			c1.236,0,2.199,0.33,2.889,0.99s1.035,1.59,1.035,2.789v3.834c0,0.373,0.168,0.564,0.504,0.576v1.368
			c-0.168,0.024-0.306,0.042-0.414,0.054c-0.108,0.012-0.222,0.018-0.342,0.018c-0.312,0-0.561-0.092-0.747-0.278
			s-0.297-0.411-0.333-0.675l-0.036-0.666c-0.42,0.564-0.952,0.993-1.593,1.287C200.984,269.882,200.297,270.031,199.565,270.031z
			 M199.979,268.842c0.564,0,1.089-0.104,1.575-0.315c0.486-0.209,0.855-0.488,1.107-0.837c0.228-0.228,0.342-0.462,0.342-0.702
			v-1.386c-0.768-0.3-1.566-0.45-2.394-0.45c-0.792,0-1.437,0.168-1.935,0.504s-0.747,0.774-0.747,1.314
			c0,0.264,0.051,0.51,0.153,0.738c0.102,0.228,0.246,0.426,0.432,0.594c0.186,0.168,0.405,0.3,0.657,0.396
			C199.421,268.794,199.691,268.842,199.979,268.842z"/>
		<path fill="#D2D2D2" d="M207.161,256.71h1.584v10.709c0,0.349,0.093,0.621,0.279,0.82c0.186,0.197,0.447,0.297,0.783,0.297
			c0.132,0,0.288-0.021,0.468-0.063c0.18-0.042,0.348-0.093,0.504-0.153l0.252,1.278c-0.264,0.108-0.576,0.198-0.936,0.271
			c-0.36,0.071-0.678,0.107-0.954,0.107c-0.612,0-1.095-0.174-1.449-0.521c-0.354-0.349-0.531-0.834-0.531-1.459V256.71z"/>
		<path fill="#D2D2D2" d="M211.841,265.656v-1.439h5.31v1.439H211.841z"/>
		<path fill="#D2D2D2" d="M219.005,263.371c0-0.769,0.135-1.533,0.405-2.295c0.27-0.763,0.666-1.446,1.188-2.053
			c0.522-0.605,1.161-1.095,1.917-1.467s1.614-0.559,2.574-0.559c1.14,0,2.118,0.259,2.934,0.774
			c0.816,0.517,1.422,1.188,1.818,2.017l-1.278,0.828c-0.192-0.408-0.423-0.75-0.693-1.026s-0.564-0.498-0.882-0.666
			c-0.318-0.168-0.645-0.288-0.981-0.36c-0.336-0.072-0.666-0.107-0.99-0.107c-0.708,0-1.335,0.146-1.881,0.44
			c-0.546,0.294-1.005,0.679-1.377,1.152c-0.372,0.474-0.651,1.008-0.837,1.602c-0.187,0.595-0.279,1.191-0.279,1.791
			c0,0.673,0.111,1.312,0.333,1.917c0.222,0.606,0.531,1.143,0.927,1.611c0.396,0.468,0.864,0.84,1.404,1.115
			c0.54,0.277,1.128,0.414,1.764,0.414c0.336,0,0.681-0.041,1.035-0.125c0.354-0.084,0.693-0.219,1.017-0.405
			c0.324-0.187,0.627-0.42,0.909-0.702c0.282-0.281,0.513-0.621,0.693-1.018l1.35,0.738c-0.203,0.48-0.488,0.903-0.854,1.27
			c-0.366,0.365-0.78,0.675-1.242,0.927s-0.951,0.444-1.467,0.576c-0.516,0.132-1.02,0.198-1.512,0.198
			c-0.876,0-1.68-0.192-2.412-0.576c-0.732-0.385-1.365-0.885-1.899-1.504c-0.534-0.617-0.948-1.319-1.242-2.105
			C219.151,264.988,219.005,264.187,219.005,263.371z"/>
		<path fill="#D2D2D2" d="M231.893,256.71h1.584v10.709c0,0.349,0.093,0.621,0.279,0.82c0.186,0.197,0.447,0.297,0.783,0.297
			c0.131,0,0.287-0.021,0.468-0.063c0.18-0.042,0.348-0.093,0.504-0.153l0.252,1.278c-0.265,0.108-0.576,0.198-0.937,0.271
			c-0.359,0.071-0.678,0.107-0.953,0.107c-0.612,0-1.096-0.174-1.449-0.521c-0.354-0.349-0.531-0.834-0.531-1.459V256.71z"/>
		<path fill="#D2D2D2" d="M239.416,270.031c-0.443,0-0.857-0.076-1.241-0.226s-0.718-0.356-0.999-0.621
			c-0.282-0.264-0.504-0.573-0.666-0.927s-0.243-0.741-0.243-1.161c0-0.433,0.096-0.825,0.288-1.179
			c0.191-0.354,0.465-0.657,0.818-0.909c0.354-0.253,0.774-0.45,1.261-0.595c0.485-0.144,1.017-0.215,1.593-0.215
			c0.456,0,0.918,0.041,1.387,0.125c0.467,0.084,0.881,0.198,1.241,0.342v-0.756c0-0.768-0.216-1.371-0.647-1.809
			c-0.433-0.438-1.045-0.656-1.836-0.656c-0.949,0-1.944,0.365-2.988,1.098l-0.522-1.026c1.212-0.815,2.431-1.224,3.654-1.224
			c1.235,0,2.198,0.33,2.889,0.99s1.035,1.59,1.035,2.789v3.834c0,0.373,0.168,0.564,0.504,0.576v1.368
			c-0.168,0.024-0.306,0.042-0.414,0.054s-0.222,0.018-0.342,0.018c-0.312,0-0.562-0.092-0.747-0.278s-0.297-0.411-0.333-0.675
			l-0.036-0.666c-0.42,0.564-0.951,0.993-1.593,1.287C240.836,269.882,240.148,270.031,239.416,270.031z M239.83,268.842
			c0.564,0,1.09-0.104,1.576-0.315c0.485-0.209,0.854-0.488,1.106-0.837c0.228-0.228,0.342-0.462,0.342-0.702v-1.386
			c-0.769-0.3-1.565-0.45-2.394-0.45c-0.793,0-1.438,0.168-1.936,0.504s-0.747,0.774-0.747,1.314c0,0.264,0.052,0.51,0.153,0.738
			c0.102,0.228,0.246,0.426,0.432,0.594s0.405,0.3,0.657,0.396C239.272,268.794,239.543,268.842,239.83,268.842z"/>
		<path fill="#D2D2D2" d="M250.27,270.031c-0.756,0-1.5-0.117-2.231-0.352s-1.362-0.573-1.89-1.018l0.684-1.062
			c0.553,0.421,1.104,0.735,1.656,0.944c0.552,0.211,1.134,0.315,1.746,0.315c0.684,0,1.227-0.135,1.629-0.405
			c0.402-0.27,0.604-0.65,0.604-1.143c0-0.228-0.055-0.423-0.162-0.585c-0.108-0.162-0.271-0.303-0.486-0.423
			c-0.217-0.12-0.492-0.229-0.828-0.324s-0.727-0.197-1.17-0.306c-0.564-0.144-1.051-0.282-1.458-0.414
			c-0.408-0.132-0.744-0.288-1.009-0.468c-0.264-0.18-0.455-0.396-0.575-0.648s-0.181-0.564-0.181-0.936
			c0-0.469,0.094-0.885,0.279-1.252c0.186-0.365,0.441-0.672,0.766-0.918c0.324-0.245,0.705-0.432,1.143-0.558
			s0.909-0.188,1.413-0.188c0.708,0,1.368,0.113,1.979,0.342c0.612,0.229,1.129,0.527,1.549,0.9l-0.721,0.953
			c-0.396-0.348-0.84-0.608-1.332-0.783c-0.492-0.174-0.996-0.26-1.512-0.26c-0.576,0-1.064,0.123-1.467,0.368
			c-0.402,0.246-0.604,0.64-0.604,1.179c0,0.217,0.039,0.396,0.117,0.541c0.078,0.144,0.207,0.27,0.387,0.377
			c0.181,0.108,0.412,0.205,0.693,0.289c0.282,0.084,0.621,0.174,1.018,0.27c0.623,0.145,1.166,0.291,1.629,0.441
			c0.461,0.149,0.846,0.326,1.152,0.53c0.305,0.204,0.533,0.444,0.684,0.72c0.15,0.277,0.225,0.612,0.225,1.008
			c0,0.877-0.336,1.572-1.008,2.088C252.316,269.772,251.41,270.031,250.27,270.031z"/>
		<path fill="#D2D2D2" d="M259.162,270.031c-0.756,0-1.5-0.117-2.232-0.352s-1.361-0.573-1.89-1.018l0.684-1.062
			c0.552,0.421,1.104,0.735,1.656,0.944c0.552,0.211,1.134,0.315,1.746,0.315c0.685,0,1.227-0.135,1.629-0.405
			c0.401-0.27,0.603-0.65,0.603-1.143c0-0.228-0.054-0.423-0.162-0.585c-0.107-0.162-0.27-0.303-0.485-0.423
			s-0.492-0.229-0.828-0.324s-0.726-0.197-1.17-0.306c-0.564-0.144-1.05-0.282-1.458-0.414s-0.744-0.288-1.008-0.468
			s-0.457-0.396-0.576-0.648c-0.12-0.252-0.18-0.564-0.18-0.936c0-0.469,0.092-0.885,0.279-1.252
			c0.186-0.365,0.44-0.672,0.764-0.918c0.324-0.245,0.705-0.432,1.144-0.558s0.909-0.188,1.413-0.188
			c0.708,0,1.368,0.113,1.98,0.342c0.611,0.229,1.127,0.527,1.547,0.9l-0.719,0.953c-0.396-0.348-0.841-0.608-1.332-0.783
			c-0.492-0.174-0.996-0.26-1.513-0.26c-0.575,0-1.065,0.123-1.467,0.368c-0.402,0.246-0.603,0.64-0.603,1.179
			c0,0.217,0.038,0.396,0.117,0.541c0.077,0.144,0.206,0.27,0.387,0.377c0.18,0.108,0.41,0.205,0.692,0.289s0.621,0.174,1.017,0.27
			c0.625,0.145,1.168,0.291,1.629,0.441c0.463,0.149,0.847,0.326,1.152,0.53c0.307,0.204,0.534,0.444,0.685,0.72
			c0.149,0.277,0.225,0.612,0.225,1.008c0,0.877-0.336,1.572-1.008,2.088C261.207,269.772,260.302,270.031,259.162,270.031z"/>
	</g>
	<g>
		<path fill="#D2D2D2" d="M35.647,189.712c0-0.769,0.135-1.533,0.405-2.295c0.27-0.763,0.666-1.446,1.188-2.053
			c0.522-0.605,1.161-1.095,1.917-1.467s1.614-0.559,2.574-0.559c1.14,0,2.118,0.259,2.934,0.774
			c0.816,0.517,1.422,1.188,1.818,2.017l-1.278,0.828c-0.192-0.408-0.423-0.75-0.693-1.026s-0.564-0.498-0.882-0.666
			c-0.318-0.168-0.645-0.288-0.981-0.36c-0.336-0.072-0.666-0.107-0.99-0.107c-0.708,0-1.335,0.146-1.881,0.44
			c-0.546,0.294-1.005,0.679-1.377,1.152c-0.372,0.474-0.651,1.008-0.837,1.602c-0.187,0.595-0.279,1.191-0.279,1.791
			c0,0.673,0.111,1.312,0.333,1.917c0.222,0.606,0.531,1.143,0.927,1.611c0.396,0.468,0.864,0.84,1.404,1.115
			c0.54,0.277,1.128,0.414,1.764,0.414c0.336,0,0.681-0.041,1.035-0.125c0.354-0.084,0.693-0.219,1.017-0.405
			c0.324-0.187,0.627-0.42,0.909-0.702c0.282-0.281,0.513-0.621,0.693-1.018l1.35,0.738c-0.204,0.48-0.489,0.903-0.855,1.27
			c-0.366,0.365-0.78,0.675-1.242,0.927s-0.951,0.444-1.467,0.576c-0.516,0.132-1.02,0.198-1.512,0.198
			c-0.876,0-1.68-0.192-2.412-0.576c-0.732-0.385-1.365-0.885-1.899-1.504c-0.534-0.617-0.948-1.319-1.242-2.105
			C35.794,191.33,35.647,190.529,35.647,189.712z"/>
		<path fill="#D2D2D2" d="M48.535,183.052h1.584v10.709c0,0.349,0.093,0.621,0.279,0.82c0.186,0.197,0.447,0.297,0.783,0.297
			c0.132,0,0.288-0.021,0.468-0.063c0.18-0.042,0.348-0.093,0.504-0.153l0.252,1.278c-0.264,0.108-0.576,0.198-0.936,0.271
			c-0.36,0.071-0.678,0.107-0.954,0.107c-0.612,0-1.095-0.174-1.449-0.521c-0.354-0.349-0.531-0.834-0.531-1.459V183.052z"/>
		<path fill="#D2D2D2" d="M56.059,196.373c-0.444,0-0.858-0.076-1.242-0.226c-0.384-0.149-0.717-0.356-0.999-0.621
			c-0.282-0.264-0.504-0.573-0.666-0.927c-0.162-0.354-0.243-0.741-0.243-1.161c0-0.433,0.096-0.825,0.288-1.179
			c0.192-0.354,0.465-0.657,0.819-0.909c0.354-0.253,0.774-0.45,1.26-0.595c0.486-0.144,1.017-0.215,1.593-0.215
			c0.456,0,0.918,0.041,1.386,0.125c0.468,0.084,0.882,0.198,1.242,0.342v-0.756c0-0.768-0.216-1.371-0.648-1.809
			s-1.044-0.656-1.836-0.656c-0.948,0-1.944,0.365-2.988,1.098l-0.522-1.026c1.212-0.815,2.43-1.224,3.654-1.224
			c1.236,0,2.199,0.33,2.889,0.99s1.035,1.59,1.035,2.789v3.834c0,0.373,0.168,0.564,0.504,0.576v1.368
			c-0.168,0.024-0.306,0.042-0.414,0.054c-0.108,0.012-0.222,0.018-0.342,0.018c-0.312,0-0.561-0.092-0.747-0.278
			s-0.297-0.411-0.333-0.675l-0.036-0.666c-0.42,0.564-0.952,0.993-1.593,1.287C57.478,196.224,56.791,196.373,56.059,196.373z
			 M56.473,195.184c0.564,0,1.089-0.104,1.575-0.315c0.486-0.209,0.855-0.488,1.107-0.837c0.228-0.228,0.342-0.462,0.342-0.702
			v-1.386c-0.768-0.3-1.566-0.45-2.394-0.45c-0.792,0-1.437,0.168-1.935,0.504s-0.747,0.774-0.747,1.314
			c0,0.264,0.051,0.51,0.153,0.738c0.102,0.228,0.246,0.426,0.432,0.594c0.186,0.168,0.405,0.3,0.657,0.396
			C55.915,195.136,56.185,195.184,56.473,195.184z"/>
		<path fill="#D2D2D2" d="M66.913,196.373c-0.756,0-1.5-0.117-2.232-0.352s-1.362-0.573-1.89-1.018l0.684-1.062
			c0.552,0.421,1.104,0.735,1.656,0.944c0.552,0.211,1.134,0.315,1.746,0.315c0.684,0,1.227-0.135,1.629-0.405
			c0.402-0.27,0.603-0.65,0.603-1.143c0-0.228-0.054-0.423-0.162-0.585s-0.27-0.303-0.486-0.423
			c-0.216-0.12-0.492-0.229-0.828-0.324s-0.726-0.197-1.17-0.306c-0.564-0.144-1.05-0.282-1.458-0.414
			c-0.408-0.132-0.744-0.288-1.008-0.468c-0.264-0.18-0.456-0.396-0.576-0.648c-0.12-0.252-0.18-0.564-0.18-0.936
			c0-0.469,0.093-0.885,0.279-1.252c0.186-0.365,0.441-0.672,0.765-0.918c0.324-0.245,0.705-0.432,1.143-0.558
			s0.909-0.188,1.413-0.188c0.708,0,1.368,0.113,1.98,0.342s1.128,0.527,1.548,0.9l-0.72,0.953c-0.396-0.348-0.84-0.608-1.332-0.783
			c-0.492-0.174-0.996-0.26-1.512-0.26c-0.576,0-1.065,0.123-1.467,0.368c-0.402,0.246-0.603,0.64-0.603,1.179
			c0,0.217,0.039,0.396,0.117,0.541c0.078,0.144,0.207,0.27,0.387,0.377c0.18,0.108,0.411,0.205,0.693,0.289
			c0.282,0.084,0.621,0.174,1.017,0.27c0.624,0.145,1.167,0.291,1.629,0.441c0.462,0.149,0.846,0.326,1.152,0.53
			c0.306,0.204,0.534,0.444,0.684,0.72c0.15,0.277,0.225,0.612,0.225,1.008c0,0.877-0.336,1.572-1.008,2.088
			C68.958,196.114,68.053,196.373,66.913,196.373z"/>
		<path fill="#D2D2D2" d="M75.804,196.373c-0.756,0-1.5-0.117-2.232-0.352s-1.362-0.573-1.89-1.018l0.684-1.062
			c0.552,0.421,1.104,0.735,1.656,0.944c0.552,0.211,1.134,0.315,1.746,0.315c0.684,0,1.227-0.135,1.629-0.405
			c0.402-0.27,0.603-0.65,0.603-1.143c0-0.228-0.054-0.423-0.162-0.585s-0.27-0.303-0.486-0.423
			c-0.216-0.12-0.492-0.229-0.828-0.324s-0.726-0.197-1.17-0.306c-0.564-0.144-1.05-0.282-1.458-0.414
			c-0.408-0.132-0.744-0.288-1.008-0.468c-0.264-0.18-0.456-0.396-0.576-0.648c-0.12-0.252-0.18-0.564-0.18-0.936
			c0-0.469,0.093-0.885,0.279-1.252c0.186-0.365,0.441-0.672,0.765-0.918c0.324-0.245,0.705-0.432,1.143-0.558
			s0.909-0.188,1.413-0.188c0.708,0,1.368,0.113,1.98,0.342s1.128,0.527,1.548,0.9l-0.72,0.953c-0.396-0.348-0.84-0.608-1.332-0.783
			c-0.492-0.174-0.996-0.26-1.512-0.26c-0.576,0-1.065,0.123-1.467,0.368c-0.402,0.246-0.603,0.64-0.603,1.179
			c0,0.217,0.039,0.396,0.117,0.541c0.078,0.144,0.207,0.27,0.387,0.377c0.18,0.108,0.411,0.205,0.693,0.289
			c0.282,0.084,0.621,0.174,1.017,0.27c0.624,0.145,1.167,0.291,1.629,0.441c0.462,0.149,0.846,0.326,1.152,0.53
			c0.306,0.204,0.534,0.444,0.684,0.72c0.15,0.277,0.225,0.612,0.225,1.008c0,0.877-0.336,1.572-1.008,2.088
			C77.85,196.114,76.944,196.373,75.804,196.373z"/>
		<path fill="#D2D2D2" d="M81.276,191.998v-1.439h5.31v1.439H81.276z"/>
		<path fill="#D2D2D2" d="M93.156,183.412h1.368l5.22,12.78h-1.728l-1.512-3.744H91.14l-1.494,3.744h-1.728L93.156,183.412z
			 M96.144,191.188l-2.304-5.904l-2.376,5.904H96.144z"/>
	</g>
	<g>
		<g>
			<path fill="#636C72" d="M67.445,157.524c0,0,0.334,4.6,0.534,9.2c0.109,2.3,0.207,4.601,0.331,6.325
				c0.121,1.725,0.063,2.875,0.063,2.875h-2.055c0,0-0.058-1.15,0.063-2.875c0.124-1.725,0.222-4.025,0.331-6.325
				c0.199-4.601,0.534-9.2,0.534-9.2H67.445z"/>
			<g>
				<polygon fill="#636C72" points="67.345,182.985 63.279,173.036 67.345,175.397 71.409,173.036 				"/>
			</g>
		</g>
	</g>
	<g>
		<g>
			<path fill="#636C72" d="M217.152,156.524c0,0,0.334,4.6,0.534,9.2c0.109,2.3,0.207,4.601,0.331,6.325
				c0.121,1.725,0.063,2.875,0.063,2.875h-2.056c0,0-0.057-1.15,0.063-2.875c0.124-1.725,0.222-4.025,0.331-6.325
				c0.199-4.601,0.534-9.2,0.534-9.2H217.152z"/>
			<g>
				<polygon fill="#636C72" points="217.052,181.985 212.987,172.036 217.052,174.397 221.117,172.036 				"/>
			</g>
		</g>
	</g>
	<g>
		<g>
			<path fill="#636C72" d="M217.673,24.953c0,0-8.549,2.752-21.373,6.879c-12.831,4.104-29.938,9.577-47.046,15.049
				c-8.553,2.739-17.105,5.479-25.124,8.047c-4.008,1.288-7.903,2.466-11.594,3.594c-3.686,1.144-7.198,2.135-10.425,3.098
				c-3.232,0.946-6.196,1.814-8.822,2.583c-2.634,0.745-4.93,1.394-6.821,1.928c-3.778,1.08-5.951,1.655-5.951,1.655l-0.221-0.711
				c0,0,2.116-0.755,5.843-2.004c1.861-0.629,4.122-1.394,6.715-2.271c2.6-0.852,5.534-1.814,8.735-2.863
				c3.206-1.033,6.662-2.204,10.348-3.347c3.681-1.159,7.559-2.392,11.592-3.599c8.064-2.42,16.666-5.003,25.267-7.585
				c17.201-5.171,34.402-10.342,47.303-14.221c12.908-3.855,21.514-6.425,21.514-6.425L217.673,24.953z"/>
			<g>
				<polygon fill="#636C72" points="73.664,69.523 81.962,62.692 80.912,67.274 84.371,70.457 				"/>
			</g>
		</g>
	</g>
	<g>
		<g>
			<path fill="#636C72" d="M228.002,24.761c0,0,9.165,2.576,22.912,6.441c13.739,3.888,32.06,9.072,50.379,14.256
				c9.16,2.589,18.321,5.178,26.909,7.605c4.296,1.209,8.427,2.452,12.349,3.611c3.925,1.152,7.612,2.322,11.028,3.359
				c3.411,1.053,6.538,2.019,9.31,2.875c2.765,0.879,5.175,1.646,7.16,2.278c3.973,1.251,6.229,2.013,6.229,2.014l-0.201,0.689
				c0,0-2.312-0.572-6.335-1.655c-2.013-0.536-4.457-1.187-7.261-1.933c-2.796-0.77-5.951-1.639-9.394-2.586
				c-3.438-0.964-7.175-1.962-11.103-3.103c-3.931-1.133-8.081-2.309-12.352-3.601c-8.545-2.575-17.66-5.322-26.774-8.069
				c-18.231-5.487-36.462-10.975-50.136-15.091c-13.666-4.14-22.777-6.899-22.777-6.899L228.002,24.761z"/>
			<g>
				<polygon fill="#636C72" points="380.955,69.523 370.266,70.637 373.671,67.396 372.544,62.833 				"/>
			</g>
		</g>
	</g>
	<g>
		<g>
			<path fill="#636C72" d="M222.762,24.87c0,0-0.232,2.366-0.58,5.914c-0.333,3.55-0.83,8.277-1.344,13.001
				c-0.247,2.363-0.494,4.727-0.726,6.942c-0.211,2.219-0.422,4.287-0.682,6.05c-0.533,3.523-1.022,5.854-1.022,5.854l-1.588-0.213
				c0,0,0.143-2.377,0.556-5.917c0.213-1.769,0.555-3.82,0.935-6.016c0.36-2.199,0.744-4.543,1.128-6.889
				c0.748-4.693,1.514-9.383,2.127-12.896c0.599-3.515,0.998-5.857,0.998-5.857L222.762,24.87z"/>
			<g>
				<polygon fill="#636C72" points="216.677,69.523 213.969,59.122 217.685,62.002 222.027,60.202 				"/>
			</g>
		</g>
	</g>
	<g>
		<g>
			<path fill="#D2D2D2" d="M75.893,77.556c0,0,1.166,0.62,2.915,1.549c1.754,0.92,4.075,2.179,6.387,3.451
				c1.16,0.63,2.319,1.26,3.407,1.851c1.097,0.575,2.113,1.123,2.96,1.634c1.687,1.034,2.755,1.818,2.755,1.818l-0.635,1.069
				c0,0-1.2-0.562-2.915-1.548c-0.854-0.499-1.822-1.129-2.852-1.817c-1.039-0.671-2.147-1.388-3.256-2.105
				c-2.224-1.421-4.44-2.856-6.087-3.956c-1.653-1.091-2.755-1.818-2.755-1.818L75.893,77.556z"/>
			<g>
				<polygon fill="#D2D2D2" points="97.642,90.557 91.264,89.607 93.727,88.232 93.754,85.413 				"/>
			</g>
		</g>
	</g>
	<g>
		<g>
			<path fill="#D2D2D2" d="M108.33,95.562c0,0,2.758,1.825,5.445,3.739c0.675,0.474,1.351,0.948,1.984,1.393
				c0.632,0.446,1.24,0.839,1.745,1.197c1.018,0.705,1.615,1.279,1.615,1.279l-0.914,1.167c0,0-0.7-0.443-1.628-1.262
				c-0.469-0.404-0.996-0.9-1.58-1.408c-0.583-0.508-1.205-1.051-1.827-1.593c-2.501-2.152-4.933-4.393-4.933-4.393L108.33,95.562z"
				/>
			<g>
				<polygon fill="#D2D2D2" points="121.995,106.366 115.792,104.604 118.411,103.557 118.801,100.764 				"/>
			</g>
		</g>
	</g>
	<g>
		<g>
			<path fill="#D2D2D2" d="M124.068,109.686c0,0,1.781,3.307,3.451,6.664c0.424,0.836,0.848,1.672,1.246,2.456
				c0.393,0.786,0.803,1.5,1.1,2.137c0.322,0.625,0.528,1.174,0.683,1.554c0.143,0.385,0.224,0.605,0.224,0.605l-1.296,0.58
				c0,0-0.11-0.208-0.302-0.57c-0.18-0.369-0.453-0.888-0.705-1.544c-0.278-0.646-0.538-1.427-0.862-2.244
				c-0.32-0.819-0.662-1.692-1.003-2.565c-1.393-3.481-2.674-7.012-2.673-7.012L124.068,109.686z"/>
			<g>
				<polygon fill="#D2D2D2" points="131.856,127.258 127.19,122.807 129.995,123.103 131.642,120.813 				"/>
			</g>
		</g>
	</g>
	<g>
		<g>
			<path fill="#D2D2D2" d="M226.464,77.556c0,0,1.166,0.62,2.916,1.549c1.754,0.92,4.074,2.179,6.387,3.451
				c1.16,0.63,2.319,1.26,3.407,1.851c1.096,0.575,2.113,1.123,2.96,1.634c1.687,1.034,2.755,1.818,2.755,1.818l-0.635,1.069
				c0,0-1.2-0.562-2.915-1.548c-0.854-0.499-1.822-1.129-2.853-1.817c-1.039-0.671-2.147-1.388-3.256-2.105
				c-2.224-1.421-4.439-2.856-6.087-3.956c-1.653-1.091-2.755-1.818-2.755-1.818L226.464,77.556z"/>
			<g>
				<polygon fill="#D2D2D2" points="248.214,90.557 241.836,89.607 244.299,88.232 244.326,85.413 				"/>
			</g>
		</g>
	</g>
	<g>
		<g>
			<path fill="#D2D2D2" d="M259.901,95.562c0.001,0,2.758,1.825,5.445,3.739c0.675,0.474,1.351,0.948,1.983,1.393
				c0.632,0.446,1.24,0.838,1.744,1.197c1.018,0.706,1.615,1.279,1.614,1.279l-0.913,1.166c0,0-0.7-0.442-1.628-1.262
				c-0.469-0.404-0.996-0.9-1.58-1.408c-0.583-0.508-1.204-1.051-1.826-1.593c-2.501-2.152-4.933-4.393-4.932-4.393L259.901,95.562z
				"/>
			<g>
				<polygon fill="#D2D2D2" points="273.566,106.366 267.363,104.604 269.982,103.557 270.372,100.764 				"/>
			</g>
		</g>
	</g>
	<g>
		<g>
			<path fill="#636C72" d="M217.152,234.74c0,0,0.291,2.524,0.485,5.048c0.099,1.263,0.198,2.524,0.272,3.472
				c0.092,0.946,0.153,1.577,0.153,1.577c0.054,0.558-0.354,1.054-0.912,1.107c-0.558,0.055-1.054-0.354-1.108-0.911
				c-0.006-0.064-0.006-0.134,0-0.196c0,0,0.061-0.631,0.153-1.577c0.074-0.947,0.173-2.209,0.272-3.472
				c0.194-2.523,0.485-5.048,0.485-5.048c0.006-0.056,0.057-0.095,0.112-0.089C217.111,234.657,217.147,234.694,217.152,234.74z"/>
			<g>
				<polygon fill="#636C72" points="217.052,250.485 213.8,242.526 217.052,244.415 220.304,242.526 				"/>
			</g>
		</g>
	</g>
	<g>
		<g>
			<path fill="#D2D2D2" d="M257.496,109.747c0,0-1.281,3.531-2.673,7.012c-0.342,0.874-0.683,1.747-1.003,2.565
				c-0.324,0.816-0.584,1.598-0.862,2.243c-0.252,0.657-0.524,1.176-0.704,1.544c-0.192,0.363-0.303,0.57-0.303,0.57l-1.295-0.58
				c0,0,0.081-0.22,0.224-0.605c0.154-0.379,0.36-0.929,0.683-1.554c0.297-0.637,0.707-1.351,1.1-2.137
				c0.398-0.784,0.822-1.62,1.246-2.456c1.67-3.357,3.451-6.664,3.451-6.664L257.496,109.747z"/>
			<g>
				<polygon fill="#D2D2D2" points="249.572,127.258 249.786,120.813 251.433,123.103 254.237,122.807 				"/>
			</g>
		</g>
	</g>
	<g>
		<g>
			<path fill="#D2D2D2" d="M403.714,77.556c0,0,1.166,0.62,2.915,1.549c1.755,0.92,4.075,2.179,6.388,3.451
				c1.159,0.63,2.319,1.26,3.406,1.851c1.097,0.575,2.113,1.123,2.961,1.634c1.687,1.034,2.755,1.818,2.755,1.818l-0.635,1.069
				c0,0-1.2-0.562-2.915-1.548c-0.854-0.499-1.822-1.129-2.853-1.816c-1.039-0.672-2.147-1.389-3.256-2.105
				c-2.224-1.421-4.439-2.856-6.088-3.956c-1.653-1.091-2.755-1.818-2.755-1.818L403.714,77.556z"/>
			<g>
				<polygon fill="#D2D2D2" points="425.464,90.557 419.086,89.607 421.549,88.232 421.576,85.413 				"/>
			</g>
		</g>
	</g>
	<g>
		<g>
			<path fill="#D2D2D2" d="M413.862,95.68c0.001,0-2.431,2.241-4.932,4.393c-0.622,0.542-1.243,1.085-1.826,1.593
				c-0.584,0.507-1.111,1.003-1.58,1.408c-0.928,0.819-1.628,1.262-1.628,1.262l-0.913-1.166c-0.001,0,0.597-0.574,1.614-1.279
				c0.504-0.358,1.112-0.751,1.744-1.197c0.633-0.445,1.309-0.919,1.983-1.393c2.688-1.914,5.444-3.739,5.445-3.739L413.862,95.68z"
				/>
			<g>
				<polygon fill="#D2D2D2" points="400.105,106.366 403.3,100.764 403.689,103.557 406.309,104.603 				"/>
			</g>
		</g>
	</g>
	<g>
		<g>
			<path fill="#D2D2D2" d="M416.891,109.686c0,0,1.781,3.307,3.451,6.664c0.424,0.836,0.848,1.672,1.246,2.456
				c0.393,0.786,0.803,1.5,1.1,2.137c0.322,0.625,0.528,1.174,0.683,1.554c0.143,0.385,0.224,0.605,0.224,0.605l-1.295,0.58
				c0,0-0.11-0.208-0.303-0.57c-0.18-0.368-0.452-0.888-0.704-1.544c-0.278-0.645-0.538-1.427-0.862-2.243
				c-0.32-0.819-0.661-1.692-1.003-2.565c-1.392-3.481-2.673-7.012-2.673-7.012L416.891,109.686z"/>
			<g>
				<polygon fill="#D2D2D2" points="424.678,127.258 420.012,122.807 422.816,123.103 424.464,120.813 				"/>
			</g>
		</g>
	</g>
	<g>
		<g>
			<path fill="#636C72" d="M394.027,157.524c0.001,0,0.335,4.6,0.534,9.2c0.109,2.3,0.207,4.601,0.331,6.325
				c0.12,1.725,0.062,2.875,0.062,2.875H392.9c0,0-0.058-1.15,0.062-2.875c0.124-1.725,0.222-4.025,0.331-6.325
				c0.199-4.601,0.533-9.2,0.534-9.2H394.027z"/>
			<g>
				<polygon fill="#636C72" points="393.928,182.985 389.862,173.036 393.928,175.397 397.992,173.036 				"/>
			</g>
		</g>
	</g>
	<path fill="none" stroke="#636C72" stroke-width="1.5" stroke-miterlimit="10" d="M271.854,264.179
		c0,6.087-4.934,11.021-11.02,11.021h-87.564c-6.086,0-11.021-4.934-11.021-11.021l0,0c0-6.086,4.935-11.02,11.021-11.02h87.564
		C266.921,253.16,271.854,258.093,271.854,264.179L271.854,264.179z"/>
	<path fill="none" stroke="#636C72" stroke-width="1.5" stroke-miterlimit="10" d="M286.854,223.719
		c0,6.087-4.934,11.021-11.02,11.021H158.271c-6.086,0-11.021-4.934-11.021-11.021l0,0c0-6.086,4.935-11.02,11.021-11.02h117.564
		C281.921,212.7,286.854,217.633,286.854,223.719L286.854,223.719z"/>
	<g>
		<path fill="#636C72" d="M67.156,198.812l0.47,25.194l-0.281-0.279l78.905-0.969c0.69-0.009,1.257,0.544,1.265,1.234
			c0.009,0.69-0.544,1.257-1.234,1.266c-0.008,0-0.022,0-0.031,0l-78.905-0.969h-0.006c-0.153-0.002-0.275-0.127-0.275-0.279
			L67.156,198.812z"/>
	</g>
	<g>
		<path fill="#636C72" d="M394.78,198.812l0.093,25.198c0.001,0.153-0.123,0.277-0.275,0.279h-0.006l-106.906,0.969
			c-0.69,0.006-1.255-0.548-1.262-1.238c-0.006-0.69,0.549-1.256,1.239-1.262c0.005,0,0.017,0,0.022,0l106.906,0.969l-0.281,0.279
			L394.78,198.812z"/>
	</g>
	<g>
		<path fill="#636C72" d="M217.052,198.812l1.25,12.599c0.068,0.69-0.436,1.306-1.126,1.374s-1.306-0.436-1.374-1.126
			c-0.008-0.082-0.007-0.169,0-0.248L217.052,198.812z"/>
	</g>
</g>
<g id="Layer_2">
	<circle fill="#F0AD4E" cx="67.25" cy="80.188" r="4"/>
	<circle fill="#F0AD4E" cx="99.679" cy="98.688" r="4"/>
	<circle fill="#F0AD4E" cx="115.893" cy="111.688" r="4"/>
	<circle fill="#F0AD4E" cx="124" cy="130.188" r="4"/>
	<circle fill="#F0AD4E" cx="215.75" cy="80.188" r="4"/>
	<circle fill="#5BC0DE" cx="34.821" cy="98.688" r="4"/>
	<circle fill="#5BC0DE" cx="18.607" cy="111.688" r="4"/>
	<circle fill="#5BC0DE" cx="51.036" cy="111.688" r="4"/>
	<circle fill="#5BC0DE" cx="83.464" cy="111.688" r="4"/>
	<circle fill="#5BC0DE" cx="10.5" cy="130.188" r="4"/>
	<circle fill="#5BC0DE" cx="26.714" cy="130.188" r="4"/>
	<circle fill="#5BC0DE" cx="42.929" cy="130.188" r="4"/>
	<circle fill="#5BC0DE" cx="59.143" cy="130.188" r="4"/>
	<circle fill="#5BC0DE" cx="75.357" cy="130.188" r="4"/>
	<circle fill="#5BC0DE" cx="91.571" cy="130.188" r="4"/>
	<circle fill="#5BC0DE" cx="107.786" cy="130.188" r="4"/>
	<circle fill="#5BC0DE" cx="183.321" cy="98.688" r="4"/>
	<circle fill="#5BC0DE" cx="167.107" cy="111.688" r="4"/>
	<circle fill="#5BC0DE" cx="159" cy="130.188" r="4"/>
	<circle fill="#5BC0DE" cx="175.214" cy="130.188" r="4"/>
	<circle fill="#5BC0DE" cx="199.536" cy="111.688" r="4"/>
	<circle fill="#5BC0DE" cx="191.429" cy="130.188" r="4"/>
	<circle fill="#5BC0DE" cx="207.643" cy="130.188" r="4"/>
	<circle fill="#5BC0DE" cx="223.857" cy="130.188" r="4"/>
	<circle fill="#5BC0DE" cx="240.071" cy="130.188" r="4"/>
	<circle fill="#5BC0DE" cx="231.964" cy="111.688" r="4"/>
	<circle fill="#5BC0DE" cx="272.5" cy="130.188" r="4"/>
	<circle fill="#5BC0DE" cx="336.5" cy="130.188" r="4"/>
	<circle fill="#5BC0DE" cx="352.643" cy="130.188" r="4"/>
	<circle fill="#5BC0DE" cx="368.786" cy="130.188" r="4"/>
	<circle fill="#5BC0DE" cx="384.929" cy="130.188" r="4"/>
	<circle fill="#5BC0DE" cx="401.071" cy="130.188" r="4"/>
	<circle fill="#5BC0DE" cx="433.357" cy="130.188" r="4"/>
	<circle fill="#5BC0DE" cx="449.5" cy="130.188" r="4"/>
	<circle fill="#5BC0DE" cx="441.429" cy="111.688" r="4"/>
	<circle fill="#5BC0DE" cx="376.857" cy="111.688" r="4"/>
	<circle fill="#5BC0DE" cx="344.571" cy="111.688" r="4"/>
	<circle fill="#5BC0DE" cx="360.714" cy="98.688" r="4"/>
	<circle fill="#F0AD4E" cx="248.179" cy="98.688" r="4"/>
	<circle fill="#F0AD4E" cx="264.393" cy="111.688" r="4"/>
	<circle fill="#F0AD4E" cx="256.286" cy="130.188" r="4"/>
	<circle fill="#F0AD4E" cx="393" cy="80.188" r="4"/>
	<circle fill="#F0AD4E" cx="425.286" cy="98.688" r="4"/>
	<circle fill="#F0AD4E" cx="409.143" cy="111.688" r="4"/>
	<circle fill="#F0AD4E" cx="417.214" cy="130.188" r="4"/>
	<g>
	</g>
</g>
</svg>
