<?xml version="1.0" encoding="utf-8"?>
<!-- Generator: Adobe Illustrator 16.0.4, SVG Export Plug-In . SVG Version: 6.00 Build 0)  -->
<!DOCTYPE svg PUBLIC "-//W3C//DTD SVG 1.1//EN" "http://www.w3.org/Graphics/SVG/1.1/DTD/svg11.dtd">
<svg version="1.1" xmlns="http://www.w3.org/2000/svg" xmlns:xlink="http://www.w3.org/1999/xlink" x="0px" y="0px" width="576px"
	 height="288px" viewBox="0 0 576 288" enable-background="new 0 0 576 288" xml:space="preserve">
<g id="Layer_3">
	<g>
		<path fill="#D2D2D2" d="M171.001,203.936c-0.096-0.112-0.224-0.221-0.384-0.324c-0.16-0.104-0.34-0.198-0.54-0.282
			c-0.2-0.084-0.418-0.151-0.654-0.204c-0.236-0.052-0.482-0.078-0.738-0.078c-0.664,0-1.15,0.124-1.458,0.372
			s-0.462,0.588-0.462,1.021c0,0.231,0.044,0.424,0.132,0.576c0.088,0.151,0.226,0.281,0.414,0.389
			c0.188,0.109,0.422,0.203,0.702,0.283c0.28,0.08,0.612,0.164,0.996,0.252c0.439,0.096,0.838,0.205,1.194,0.33
			c0.356,0.123,0.66,0.277,0.912,0.461c0.252,0.185,0.444,0.408,0.576,0.672c0.132,0.265,0.198,0.589,0.198,0.973
			c0,0.408-0.08,0.762-0.24,1.062c-0.16,0.299-0.378,0.547-0.654,0.744c-0.276,0.195-0.602,0.34-0.978,0.432
			s-0.784,0.138-1.224,0.138c-0.656,0-1.278-0.103-1.866-0.306c-0.588-0.204-1.122-0.502-1.602-0.895l0.516-0.912
			c0.128,0.137,0.294,0.272,0.498,0.408c0.204,0.137,0.436,0.258,0.696,0.366c0.26,0.108,0.54,0.196,0.84,0.264
			c0.3,0.068,0.614,0.103,0.942,0.103c0.608,0,1.08-0.108,1.416-0.324c0.336-0.217,0.504-0.54,0.504-0.973
			c0-0.239-0.054-0.441-0.162-0.605s-0.266-0.307-0.474-0.426c-0.208-0.12-0.466-0.227-0.774-0.318
			c-0.308-0.092-0.658-0.186-1.05-0.281c-0.432-0.104-0.812-0.217-1.14-0.336c-0.328-0.121-0.602-0.265-0.822-0.433
			s-0.386-0.372-0.498-0.612c-0.112-0.24-0.168-0.527-0.168-0.863c0-0.408,0.076-0.769,0.228-1.08
			c0.152-0.312,0.364-0.576,0.636-0.793c0.272-0.215,0.596-0.377,0.972-0.485s0.784-0.162,1.224-0.162
			c0.576,0,1.096,0.089,1.56,0.265s0.876,0.412,1.236,0.707L171.001,203.936z"/>
		<path fill="#D2D2D2" d="M176.51,210.787c-0.52,0-0.978-0.128-1.374-0.385c-0.396-0.256-0.71-0.579-0.942-0.971v3.791h-1.056v-8.82
			h0.936v1.177c0.248-0.384,0.57-0.694,0.966-0.931c0.396-0.235,0.834-0.354,1.314-0.354c0.432,0,0.828,0.088,1.188,0.264
			c0.36,0.176,0.672,0.414,0.936,0.715c0.264,0.299,0.47,0.646,0.618,1.037c0.148,0.393,0.222,0.801,0.222,1.225
			c0,0.447-0.068,0.869-0.204,1.266c-0.136,0.396-0.328,0.74-0.576,1.032s-0.544,0.524-0.888,0.696
			C177.306,210.701,176.925,210.787,176.51,210.787z M176.186,209.875c0.312,0,0.594-0.066,0.846-0.198s0.468-0.308,0.648-0.528
			c0.18-0.219,0.318-0.469,0.414-0.75c0.096-0.279,0.144-0.567,0.144-0.863c0-0.312-0.056-0.609-0.168-0.895
			c-0.112-0.283-0.264-0.531-0.456-0.744c-0.192-0.211-0.418-0.379-0.678-0.504c-0.26-0.123-0.542-0.186-0.846-0.186
			c-0.192,0-0.39,0.038-0.594,0.113c-0.204,0.076-0.396,0.177-0.576,0.301c-0.18,0.124-0.336,0.271-0.468,0.443
			c-0.132,0.173-0.218,0.354-0.258,0.547v1.787c0.088,0.209,0.2,0.402,0.336,0.582c0.136,0.181,0.292,0.336,0.468,0.469
			c0.176,0.132,0.364,0.236,0.564,0.312C175.762,209.837,175.97,209.875,176.186,209.875z"/>
		<path fill="#D2D2D2" d="M180.637,201.907h1.056v7.14c0,0.232,0.062,0.414,0.186,0.546c0.124,0.132,0.298,0.198,0.522,0.198
			c0.088,0,0.192-0.014,0.312-0.042c0.12-0.028,0.232-0.062,0.336-0.103l0.168,0.853c-0.176,0.071-0.384,0.132-0.624,0.181
			c-0.24,0.047-0.452,0.071-0.636,0.071c-0.408,0-0.73-0.116-0.966-0.349c-0.236-0.231-0.354-0.555-0.354-0.971V201.907z"/>
		<path fill="#D2D2D2" d="M184.045,203.227v-1.319h1.056v1.319H184.045z M184.045,210.667v-6.265h1.056v6.265H184.045z"/>
		<path fill="#D2D2D2" d="M190.045,210.355c-0.064,0.031-0.148,0.07-0.252,0.113c-0.104,0.045-0.222,0.088-0.354,0.133
			c-0.132,0.043-0.276,0.079-0.432,0.107c-0.156,0.027-0.318,0.042-0.486,0.042c-0.384,0-0.716-0.106-0.996-0.317
			c-0.28-0.213-0.42-0.543-0.42-0.99v-4.213h-0.852v-0.828h0.852v-2.088h1.056v2.088h1.404v0.828h-1.404v3.889
			c0.016,0.232,0.092,0.4,0.228,0.504c0.136,0.104,0.296,0.156,0.48,0.156c0.208,0,0.398-0.034,0.57-0.103
			c0.172-0.067,0.29-0.122,0.354-0.161L190.045,210.355z"/>
		<path fill="#D2D2D2" d="M195.673,210.787c-0.296,0-0.572-0.051-0.828-0.15s-0.478-0.238-0.666-0.414s-0.336-0.382-0.444-0.617
			c-0.108-0.236-0.162-0.494-0.162-0.774c0-0.288,0.064-0.55,0.192-0.786s0.31-0.438,0.546-0.605
			c0.236-0.168,0.516-0.301,0.84-0.396s0.678-0.145,1.062-0.145c0.304,0,0.612,0.029,0.924,0.084
			c0.312,0.057,0.588,0.133,0.828,0.229v-0.504c0-0.512-0.144-0.914-0.432-1.206c-0.288-0.292-0.696-0.438-1.224-0.438
			c-0.632,0-1.296,0.244-1.992,0.732l-0.348-0.684c0.808-0.545,1.62-0.816,2.436-0.816c0.824,0,1.466,0.221,1.926,0.66
			c0.46,0.439,0.69,1.061,0.69,1.859v2.557c0,0.248,0.112,0.376,0.336,0.384v0.912c-0.112,0.017-0.204,0.028-0.276,0.036
			c-0.072,0.008-0.148,0.012-0.228,0.012c-0.208,0-0.374-0.062-0.498-0.186s-0.198-0.274-0.222-0.45l-0.024-0.444
			c-0.28,0.377-0.634,0.662-1.062,0.858C196.619,210.689,196.161,210.787,195.673,210.787z M195.949,209.995
			c0.376,0,0.726-0.069,1.05-0.21c0.324-0.141,0.57-0.326,0.738-0.559c0.152-0.151,0.228-0.308,0.228-0.468v-0.924
			c-0.512-0.2-1.044-0.3-1.596-0.3c-0.528,0-0.958,0.111-1.29,0.336c-0.332,0.225-0.498,0.516-0.498,0.876
			c0,0.176,0.034,0.34,0.102,0.491c0.068,0.152,0.164,0.285,0.288,0.396c0.124,0.112,0.27,0.2,0.438,0.264
			C195.577,209.963,195.757,209.995,195.949,209.995z"/>
		<path fill="#D2D2D2" d="M203.905,210.355c-0.064,0.031-0.148,0.07-0.252,0.113c-0.104,0.045-0.222,0.088-0.354,0.133
			c-0.132,0.043-0.276,0.079-0.432,0.107c-0.156,0.027-0.318,0.042-0.486,0.042c-0.384,0-0.716-0.106-0.996-0.317
			c-0.28-0.213-0.42-0.543-0.42-0.99v-4.213h-0.852v-0.828h0.852v-2.088h1.056v2.088h1.404v0.828h-1.404v3.889
			c0.016,0.232,0.092,0.4,0.228,0.504c0.136,0.104,0.296,0.156,0.48,0.156c0.208,0,0.398-0.034,0.57-0.103
			c0.172-0.067,0.29-0.122,0.354-0.161L203.905,210.355z"/>
	</g>
	<g>
		<path fill="#D2D2D2" d="M41.001,127.935c-0.096-0.112-0.224-0.22-0.384-0.324c-0.16-0.104-0.34-0.198-0.54-0.282
			c-0.2-0.084-0.418-0.152-0.654-0.204c-0.236-0.052-0.482-0.078-0.738-0.078c-0.664,0-1.15,0.124-1.458,0.372
			s-0.462,0.588-0.462,1.02c0,0.232,0.044,0.424,0.132,0.576s0.226,0.282,0.414,0.39c0.188,0.108,0.422,0.202,0.702,0.282
			c0.28,0.08,0.612,0.164,0.996,0.252c0.439,0.096,0.838,0.206,1.194,0.33s0.66,0.278,0.912,0.462s0.444,0.408,0.576,0.672
			c0.132,0.264,0.198,0.588,0.198,0.972c0,0.408-0.08,0.762-0.24,1.062s-0.378,0.548-0.654,0.744
			c-0.276,0.196-0.602,0.34-0.978,0.432c-0.376,0.092-0.784,0.138-1.224,0.138c-0.656,0-1.278-0.102-1.866-0.306
			c-0.588-0.204-1.122-0.502-1.602-0.894l0.516-0.912c0.128,0.136,0.294,0.272,0.498,0.408c0.204,0.136,0.436,0.258,0.696,0.366
			c0.26,0.108,0.54,0.196,0.84,0.264c0.3,0.068,0.614,0.102,0.942,0.102c0.608,0,1.08-0.108,1.416-0.324
			c0.336-0.216,0.504-0.54,0.504-0.972c0-0.24-0.054-0.442-0.162-0.606s-0.266-0.306-0.474-0.426
			c-0.208-0.12-0.466-0.226-0.774-0.318c-0.308-0.092-0.658-0.186-1.05-0.282c-0.432-0.104-0.812-0.216-1.14-0.336
			c-0.328-0.12-0.602-0.264-0.822-0.432s-0.386-0.372-0.498-0.612c-0.112-0.24-0.168-0.528-0.168-0.864
			c0-0.408,0.076-0.768,0.228-1.08s0.364-0.576,0.636-0.792c0.272-0.216,0.596-0.378,0.972-0.486s0.784-0.162,1.224-0.162
			c0.576,0,1.096,0.088,1.56,0.264s0.876,0.412,1.236,0.708L41.001,127.935z"/>
		<path fill="#D2D2D2" d="M46.51,134.787c-0.52,0-0.978-0.128-1.374-0.384c-0.396-0.256-0.71-0.58-0.942-0.972v3.792h-1.056v-8.82
			h0.936v1.176c0.248-0.384,0.57-0.694,0.966-0.93c0.396-0.236,0.834-0.354,1.314-0.354c0.432,0,0.828,0.088,1.188,0.264
			c0.36,0.176,0.672,0.414,0.936,0.714c0.264,0.3,0.47,0.646,0.618,1.038s0.222,0.8,0.222,1.224c0,0.448-0.068,0.87-0.204,1.266
			c-0.136,0.396-0.328,0.74-0.576,1.032s-0.544,0.524-0.888,0.696C47.306,134.701,46.925,134.787,46.51,134.787z M46.186,133.875
			c0.312,0,0.594-0.066,0.846-0.198c0.252-0.132,0.468-0.308,0.648-0.528c0.18-0.22,0.318-0.47,0.414-0.75
			c0.096-0.28,0.144-0.568,0.144-0.864c0-0.312-0.056-0.61-0.168-0.894c-0.112-0.284-0.264-0.532-0.456-0.744
			s-0.418-0.38-0.678-0.504s-0.542-0.186-0.846-0.186c-0.192,0-0.39,0.038-0.594,0.114c-0.204,0.076-0.396,0.176-0.576,0.3
			c-0.18,0.124-0.336,0.272-0.468,0.444c-0.132,0.172-0.218,0.354-0.258,0.546v1.788c0.088,0.208,0.2,0.402,0.336,0.582
			c0.136,0.18,0.292,0.336,0.468,0.468c0.176,0.132,0.364,0.236,0.564,0.312C45.762,133.837,45.97,133.875,46.186,133.875z"/>
		<path fill="#D2D2D2" d="M50.637,125.907h1.056v7.14c0,0.232,0.062,0.414,0.186,0.546c0.124,0.132,0.298,0.198,0.522,0.198
			c0.088,0,0.192-0.014,0.312-0.042c0.12-0.028,0.232-0.062,0.336-0.102l0.168,0.852c-0.176,0.072-0.384,0.132-0.624,0.18
			c-0.24,0.048-0.452,0.072-0.636,0.072c-0.408,0-0.73-0.116-0.966-0.348c-0.236-0.232-0.354-0.556-0.354-0.972V125.907z"/>
		<path fill="#D2D2D2" d="M54.045,127.227v-1.32h1.056v1.32H54.045z M54.045,134.667v-6.264h1.056v6.264H54.045z"/>
		<path fill="#D2D2D2" d="M60.045,134.355c-0.064,0.032-0.148,0.07-0.252,0.114c-0.104,0.044-0.222,0.088-0.354,0.132
			c-0.132,0.044-0.276,0.08-0.432,0.108c-0.156,0.028-0.318,0.042-0.486,0.042c-0.384,0-0.716-0.106-0.996-0.318
			c-0.28-0.212-0.42-0.542-0.42-0.99v-4.212h-0.852v-0.828h0.852v-2.088h1.056v2.088h1.404v0.828h-1.404v3.888
			c0.016,0.232,0.092,0.4,0.228,0.504c0.136,0.104,0.296,0.156,0.48,0.156c0.208,0,0.398-0.034,0.57-0.102
			c0.172-0.068,0.29-0.122,0.354-0.162L60.045,134.355z"/>
		<path fill="#D2D2D2" d="M65.673,134.787c-0.296,0-0.572-0.05-0.828-0.15c-0.256-0.1-0.478-0.238-0.666-0.414
			c-0.188-0.176-0.336-0.382-0.444-0.618s-0.162-0.494-0.162-0.774c0-0.288,0.064-0.55,0.192-0.786
			c0.128-0.236,0.31-0.438,0.546-0.606c0.236-0.168,0.516-0.3,0.84-0.396s0.678-0.144,1.062-0.144c0.304,0,0.612,0.028,0.924,0.084
			c0.312,0.056,0.588,0.132,0.828,0.228v-0.504c0-0.512-0.144-0.914-0.432-1.206c-0.288-0.292-0.696-0.438-1.224-0.438
			c-0.632,0-1.296,0.244-1.992,0.732l-0.348-0.684c0.808-0.544,1.62-0.816,2.436-0.816c0.824,0,1.466,0.22,1.926,0.66
			c0.46,0.44,0.69,1.06,0.69,1.86v2.556c0,0.248,0.112,0.376,0.336,0.384v0.912c-0.112,0.016-0.204,0.028-0.276,0.036
			c-0.072,0.008-0.148,0.012-0.228,0.012c-0.208,0-0.374-0.062-0.498-0.186c-0.124-0.124-0.198-0.274-0.222-0.45l-0.024-0.444
			c-0.28,0.376-0.634,0.662-1.062,0.858C66.619,134.689,66.161,134.787,65.673,134.787z M65.949,133.995
			c0.376,0,0.726-0.07,1.05-0.21c0.324-0.14,0.57-0.326,0.738-0.558c0.152-0.152,0.228-0.308,0.228-0.468v-0.924
			c-0.512-0.2-1.044-0.3-1.596-0.3c-0.528,0-0.958,0.112-1.29,0.336c-0.332,0.224-0.498,0.516-0.498,0.876
			c0,0.176,0.034,0.34,0.102,0.492c0.068,0.152,0.164,0.284,0.288,0.396c0.124,0.112,0.27,0.2,0.438,0.264
			S65.757,133.995,65.949,133.995z"/>
		<path fill="#D2D2D2" d="M73.905,134.355c-0.064,0.032-0.148,0.07-0.252,0.114c-0.104,0.044-0.222,0.088-0.354,0.132
			c-0.132,0.044-0.276,0.08-0.432,0.108c-0.156,0.028-0.318,0.042-0.486,0.042c-0.384,0-0.716-0.106-0.996-0.318
			c-0.28-0.212-0.42-0.542-0.42-0.99v-4.212h-0.852v-0.828h0.852v-2.088h1.056v2.088h1.404v0.828h-1.404v3.888
			c0.016,0.232,0.092,0.4,0.228,0.504c0.136,0.104,0.296,0.156,0.48,0.156c0.208,0,0.398-0.034,0.57-0.102
			c0.172-0.068,0.29-0.122,0.354-0.162L73.905,134.355z"/>
	</g>
	<g>
		<path fill="#D2D2D2" d="M452.572,205.135c0-0.854,0.15-1.703,0.451-2.551c0.299-0.846,0.74-1.605,1.319-2.279
			c0.58-0.674,1.29-1.217,2.13-1.631c0.84-0.412,1.793-0.619,2.86-0.619c1.267,0,2.353,0.287,3.26,0.859
			c0.907,0.574,1.58,1.32,2.021,2.24l-1.42,0.92c-0.214-0.453-0.471-0.833-0.771-1.14s-0.627-0.554-0.979-0.74
			c-0.354-0.187-0.717-0.319-1.09-0.399c-0.374-0.08-0.74-0.121-1.101-0.121c-0.786,0-1.483,0.164-2.09,0.49
			c-0.606,0.327-1.117,0.754-1.53,1.28s-0.723,1.12-0.93,1.78s-0.311,1.323-0.311,1.99c0,0.746,0.123,1.457,0.371,2.129
			c0.246,0.674,0.59,1.271,1.029,1.791c0.439,0.52,0.96,0.934,1.561,1.24c0.6,0.307,1.252,0.459,1.959,0.459
			c0.373,0,0.757-0.046,1.15-0.14c0.393-0.093,0.77-0.243,1.13-0.45c0.36-0.206,0.696-0.467,1.011-0.779
			c0.312-0.313,0.569-0.69,0.77-1.131l1.5,0.82c-0.227,0.533-0.543,1.004-0.95,1.41s-0.866,0.75-1.38,1.029
			c-0.514,0.281-1.057,0.494-1.63,0.641s-1.134,0.221-1.681,0.221c-0.973,0-1.866-0.214-2.68-0.641
			c-0.812-0.427-1.517-0.982-2.109-1.67c-0.594-0.687-1.054-1.467-1.381-2.34C452.736,206.932,452.572,206.041,452.572,205.135z"/>
	</g>
	<g>
		<path fill="#D2D2D2" d="M492.826,212.334v-14.199h4.92c1.133,0,2.13,0.187,2.99,0.56c0.859,0.374,1.576,0.88,2.149,1.521
			c0.573,0.64,1.003,1.39,1.29,2.25c0.287,0.859,0.43,1.776,0.43,2.75c0,1.08-0.16,2.057-0.479,2.93s-0.78,1.62-1.38,2.24
			c-0.6,0.619-1.324,1.1-2.17,1.439c-0.848,0.34-1.79,0.51-2.83,0.51H492.826z M502.786,205.215c0-0.801-0.11-1.537-0.33-2.211
			c-0.22-0.672-0.547-1.25-0.979-1.729c-0.434-0.479-0.964-0.856-1.591-1.13c-0.626-0.273-1.34-0.41-2.14-0.41h-3.12v11h3.12
			c0.812,0,1.537-0.141,2.17-0.42s1.16-0.666,1.58-1.16c0.42-0.493,0.74-1.076,0.96-1.75
			C502.676,206.731,502.786,206.002,502.786,205.215z"/>
	</g>
	<g>
		<path fill="#D2D2D2" d="M281.398,251.674c0,0.547-0.11,1.047-0.33,1.5s-0.52,0.84-0.9,1.16c-0.38,0.319-0.82,0.566-1.32,0.74
			c-0.5,0.173-1.037,0.26-1.61,0.26h-6.74v-14.201h7.06c0.493,0,0.94,0.107,1.34,0.32c0.4,0.214,0.74,0.49,1.02,0.83
			c0.28,0.34,0.497,0.727,0.65,1.16s0.23,0.87,0.23,1.311c0,0.707-0.177,1.359-0.53,1.959c-0.354,0.601-0.857,1.047-1.51,1.341
			c0.813,0.239,1.457,0.683,1.93,1.329C281.162,250.03,281.398,250.793,281.398,251.674z M272.298,242.693v4.74h4.52
			c0.32,0,0.613-0.062,0.88-0.189s0.497-0.297,0.69-0.511c0.193-0.213,0.347-0.463,0.46-0.75c0.113-0.286,0.17-0.59,0.17-0.909
			c0-0.334-0.054-0.647-0.16-0.941c-0.107-0.293-0.25-0.546-0.43-0.76c-0.18-0.213-0.4-0.379-0.66-0.5
			c-0.26-0.119-0.537-0.18-0.83-0.18H272.298z M279.578,251.354c0-0.32-0.057-0.63-0.17-0.93c-0.113-0.301-0.267-0.563-0.46-0.791
			c-0.193-0.227-0.423-0.406-0.69-0.539s-0.56-0.2-0.88-0.2h-5.08v4.88h4.94c0.333,0,0.64-0.066,0.92-0.199
			c0.28-0.134,0.527-0.311,0.74-0.531c0.213-0.219,0.38-0.477,0.5-0.77S279.578,251.674,279.578,251.354z"/>
	</g>
	<g>
		<path fill="#D2D2D2" d="M486.861,251.674c0,0.547-0.11,1.047-0.33,1.5c-0.221,0.453-0.521,0.84-0.9,1.16
			c-0.38,0.319-0.82,0.566-1.32,0.74c-0.5,0.173-1.037,0.26-1.609,0.26h-6.74v-14.201h7.06c0.493,0,0.94,0.107,1.341,0.32
			c0.399,0.214,0.739,0.49,1.02,0.83c0.279,0.34,0.496,0.727,0.65,1.16c0.152,0.434,0.229,0.87,0.229,1.311
			c0,0.707-0.177,1.359-0.53,1.959c-0.354,0.601-0.856,1.047-1.51,1.341c0.812,0.239,1.457,0.683,1.93,1.329
			C486.624,250.03,486.861,250.793,486.861,251.674z M477.761,242.693v4.74h4.521c0.319,0,0.613-0.062,0.879-0.189
			c0.268-0.127,0.497-0.297,0.69-0.511c0.193-0.213,0.347-0.463,0.46-0.75c0.113-0.286,0.17-0.59,0.17-0.909
			c0-0.334-0.053-0.647-0.16-0.941c-0.106-0.293-0.25-0.546-0.43-0.76c-0.18-0.213-0.4-0.379-0.66-0.5
			c-0.26-0.119-0.537-0.18-0.83-0.18H477.761z M485.041,251.354c0-0.32-0.057-0.63-0.17-0.93c-0.113-0.301-0.268-0.563-0.461-0.791
			c-0.193-0.227-0.423-0.406-0.689-0.539s-0.561-0.2-0.88-0.2h-5.08v4.88h4.94c0.332,0,0.64-0.066,0.92-0.199
			c0.279-0.134,0.526-0.311,0.74-0.531c0.213-0.219,0.379-0.477,0.5-0.77C484.98,251.98,485.041,251.674,485.041,251.354z"/>
	</g>
	<g>
		<path fill="#D2D2D2" d="M125.875,199.134h1.52l5.8,14.2h-1.92l-1.68-4.16h-5.96l-1.66,4.16h-1.92L125.875,199.134z
			 M129.195,207.773l-2.56-6.56l-2.64,6.56H129.195z"/>
	</g>
	<g>
		<path fill="#D2D2D2" d="M332.959,199.134h1.521l5.8,14.2h-1.92l-1.68-4.16h-5.961l-1.659,4.16h-1.92L332.959,199.134z
			 M336.279,207.773l-2.561-6.56l-2.639,6.56H336.279z"/>
	</g>
	<g>
		<path fill="#D2D2D2" d="M283.39,54.014h1.52l5.8,14.2h-1.92l-1.68-4.16h-5.96l-1.66,4.16h-1.92L283.39,54.014z M286.71,62.654
			l-2.56-6.56l-2.64,6.56H286.71z"/>
	</g>
	<g>
		<path fill="#D2D2D2" d="M342.006,92.554c0,0.547-0.109,1.047-0.33,1.5c-0.22,0.454-0.52,0.84-0.899,1.16s-0.82,0.567-1.32,0.74
			s-1.036,0.26-1.61,0.26h-6.739v-14.2h7.06c0.493,0,0.94,0.107,1.34,0.32c0.4,0.213,0.74,0.49,1.021,0.83
			c0.28,0.34,0.497,0.727,0.649,1.16c0.154,0.434,0.23,0.87,0.23,1.31c0,0.707-0.177,1.36-0.529,1.96
			c-0.354,0.6-0.857,1.047-1.511,1.34c0.813,0.24,1.456,0.683,1.931,1.33C341.77,90.911,342.006,91.674,342.006,92.554z
			 M332.906,83.574v4.74h4.52c0.32,0,0.613-0.063,0.881-0.19c0.266-0.127,0.496-0.297,0.689-0.51c0.193-0.213,0.347-0.463,0.46-0.75
			c0.113-0.287,0.171-0.59,0.171-0.91c0-0.333-0.055-0.647-0.16-0.94c-0.107-0.293-0.25-0.546-0.431-0.76
			c-0.18-0.213-0.399-0.38-0.659-0.5c-0.261-0.12-0.537-0.18-0.83-0.18H332.906z M340.186,92.234c0-0.32-0.057-0.63-0.17-0.93
			c-0.113-0.3-0.266-0.563-0.459-0.79c-0.193-0.227-0.424-0.406-0.69-0.54c-0.267-0.133-0.56-0.2-0.88-0.2h-5.08v4.88h4.939
			c0.334,0,0.641-0.066,0.92-0.2c0.281-0.133,0.527-0.31,0.74-0.53c0.213-0.22,0.381-0.477,0.5-0.77
			C340.127,92.861,340.186,92.554,340.186,92.234z"/>
	</g>
	<g>
		<path fill="#D2D2D2" d="M383.02,115.68c0-0.853,0.15-1.703,0.45-2.55s0.74-1.606,1.319-2.28c0.58-0.673,1.291-1.217,2.131-1.63
			c0.84-0.413,1.793-0.62,2.859-0.62c1.268,0,2.354,0.287,3.26,0.86c0.907,0.573,1.58,1.32,2.021,2.24l-1.42,0.92
			c-0.214-0.453-0.47-0.833-0.771-1.14c-0.299-0.307-0.627-0.553-0.979-0.74c-0.354-0.187-0.717-0.32-1.09-0.4
			c-0.374-0.08-0.74-0.12-1.101-0.12c-0.786,0-1.482,0.164-2.09,0.49c-0.606,0.327-1.117,0.753-1.529,1.28
			c-0.414,0.527-0.724,1.12-0.93,1.78c-0.207,0.66-0.311,1.323-0.311,1.99c0,0.747,0.123,1.457,0.37,2.13
			c0.247,0.674,0.59,1.27,1.03,1.79c0.439,0.52,0.959,0.934,1.56,1.24s1.253,0.46,1.96,0.46c0.373,0,0.756-0.046,1.15-0.14
			c0.393-0.093,0.77-0.243,1.129-0.45c0.361-0.207,0.697-0.467,1.011-0.78c0.313-0.313,0.569-0.69,0.771-1.13l1.5,0.82
			c-0.228,0.534-0.544,1.003-0.951,1.41c-0.406,0.407-0.866,0.75-1.379,1.03c-0.514,0.28-1.057,0.494-1.631,0.64
			c-0.573,0.146-1.133,0.22-1.68,0.22c-0.973,0-1.867-0.213-2.68-0.64c-0.813-0.427-1.518-0.983-2.11-1.67
			c-0.593-0.687-1.054-1.467-1.38-2.34C383.184,117.477,383.02,116.587,383.02,115.68z"/>
	</g>
	<g>
		<path fill="#D2D2D2" d="M488.064,122.88v-14.2h4.92c1.133,0,2.129,0.187,2.989,0.56c0.86,0.374,1.577,0.88,2.149,1.52
			c0.574,0.64,1.004,1.39,1.291,2.25c0.286,0.86,0.43,1.777,0.43,2.75c0,1.08-0.16,2.057-0.48,2.93
			c-0.319,0.874-0.779,1.62-1.379,2.24c-0.601,0.62-1.324,1.1-2.17,1.44c-0.848,0.34-1.791,0.51-2.83,0.51H488.064z M498.023,115.76
			c0-0.8-0.109-1.537-0.33-2.21c-0.22-0.673-0.547-1.25-0.979-1.73c-0.434-0.48-0.964-0.856-1.591-1.13
			c-0.626-0.273-1.34-0.41-2.139-0.41h-3.121v11h3.121c0.812,0,1.536-0.14,2.17-0.42c0.633-0.28,1.16-0.667,1.58-1.16
			c0.42-0.493,0.739-1.076,0.959-1.75C497.914,117.277,498.023,116.547,498.023,115.76z"/>
	</g>
	<g>
		<path fill="#D2D2D2" d="M539.293,199.134h1.52l5.8,14.2h-1.92l-1.68-4.16h-5.96l-1.66,4.16h-1.92L539.293,199.134z
			 M542.612,207.773l-2.56-6.56l-2.641,6.56H542.612z"/>
	</g>
	<g>
		<path fill="#D2D2D2" d="M170.396,228.48l2.592,3.553l2.592-3.553h1.188l-3.204,4.32l3.108,4.199h-1.188l-2.496-3.432L170.493,237
			h-1.2l3.108-4.199l-3.204-4.32H170.396z"/>
		<path fill="#D2D2D2" d="M177.105,240.996c0-0.186,0.015-0.361,0.045-0.524s0.087-0.319,0.171-0.469s0.2-0.291,0.346-0.427
			c0.147-0.135,0.339-0.27,0.578-0.406c0.14-0.074,0.282-0.147,0.427-0.22c0.144-0.072,0.276-0.149,0.395-0.231
			c0.119-0.081,0.217-0.168,0.294-0.262c0.077-0.094,0.115-0.203,0.115-0.328c0-0.08-0.019-0.159-0.056-0.238
			c-0.038-0.08-0.091-0.149-0.161-0.21s-0.157-0.11-0.262-0.147s-0.225-0.056-0.36-0.056c-0.14,0-0.267,0.021-0.381,0.06
			s-0.216,0.088-0.304,0.146c-0.089,0.059-0.166,0.121-0.231,0.186c-0.065,0.065-0.119,0.124-0.161,0.176l-0.398-0.448
			c0.037-0.042,0.1-0.099,0.189-0.171c0.088-0.072,0.2-0.146,0.335-0.221s0.292-0.139,0.469-0.193
			c0.177-0.053,0.375-0.08,0.595-0.08c0.214,0,0.408,0.029,0.581,0.088c0.173,0.059,0.318,0.139,0.438,0.241
			c0.119,0.103,0.211,0.223,0.276,0.36c0.065,0.138,0.098,0.283,0.098,0.438c0,0.182-0.04,0.34-0.119,0.476
			c-0.08,0.136-0.176,0.254-0.291,0.356c-0.114,0.104-0.237,0.19-0.367,0.263c-0.131,0.072-0.247,0.134-0.35,0.185
			c-0.103,0.053-0.218,0.113-0.347,0.186c-0.128,0.072-0.25,0.154-0.367,0.245s-0.218,0.192-0.304,0.305s-0.141,0.233-0.165,0.364
			h2.386v0.559H177.105z"/>
		<path fill="#D2D2D2" d="M184.387,233.244v-0.72h3.66v0.72H184.387z M184.387,234.853v-0.72h3.66v0.72H184.387z"/>
		<path fill="#D2D2D2" d="M195.979,236.688c-0.064,0.032-0.148,0.07-0.252,0.114s-0.222,0.088-0.354,0.132
			c-0.132,0.044-0.276,0.079-0.432,0.108c-0.156,0.027-0.318,0.041-0.486,0.041c-0.384,0-0.716-0.105-0.996-0.317
			c-0.28-0.212-0.42-0.542-0.42-0.99v-4.212h-0.852v-0.828h0.852v-2.088h1.056v2.088h1.404v0.828h-1.404v3.889
			c0.016,0.231,0.092,0.399,0.228,0.504c0.136,0.104,0.296,0.155,0.48,0.155c0.208,0,0.398-0.034,0.57-0.103
			c0.172-0.067,0.29-0.121,0.354-0.161L195.979,236.688z"/>
		<path fill="#D2D2D2" d="M196.412,240.996c0-0.186,0.015-0.361,0.045-0.524s0.087-0.319,0.171-0.469s0.2-0.291,0.346-0.427
			c0.147-0.135,0.339-0.27,0.578-0.406c0.14-0.074,0.282-0.147,0.427-0.22c0.144-0.072,0.276-0.149,0.395-0.231
			c0.119-0.081,0.217-0.168,0.294-0.262c0.077-0.094,0.115-0.203,0.115-0.328c0-0.08-0.019-0.159-0.056-0.238
			c-0.038-0.08-0.091-0.149-0.161-0.21s-0.157-0.11-0.262-0.147s-0.225-0.056-0.36-0.056c-0.14,0-0.267,0.021-0.381,0.06
			s-0.216,0.088-0.304,0.146c-0.089,0.059-0.166,0.121-0.231,0.186c-0.065,0.065-0.119,0.124-0.161,0.176l-0.398-0.448
			c0.037-0.042,0.1-0.099,0.189-0.171c0.088-0.072,0.2-0.146,0.335-0.221s0.292-0.139,0.469-0.193
			c0.177-0.053,0.375-0.08,0.595-0.08c0.214,0,0.408,0.029,0.581,0.088c0.173,0.059,0.318,0.139,0.438,0.241
			c0.119,0.103,0.211,0.223,0.276,0.36c0.065,0.138,0.098,0.283,0.098,0.438c0,0.182-0.04,0.34-0.119,0.476
			c-0.08,0.136-0.176,0.254-0.291,0.356c-0.114,0.104-0.237,0.19-0.367,0.263c-0.131,0.072-0.247,0.134-0.35,0.185
			c-0.103,0.053-0.218,0.113-0.347,0.186c-0.128,0.072-0.25,0.154-0.367,0.245s-0.218,0.192-0.304,0.305s-0.141,0.233-0.165,0.364
			h2.386v0.559H196.412z"/>
	</g>
	<g>
		<path fill="#D2D2D2" d="M40.991,140.027l2.592,3.553l2.592-3.553h1.188l-3.204,4.32l3.108,4.199H46.08l-2.496-3.432l-2.496,3.432
			h-1.2l3.108-4.199l-3.204-4.32H40.991z"/>
		<path fill="#D2D2D2" d="M50.38,151.984v0.559h-2.512v-0.559h0.994v-2.729c-0.042,0.056-0.107,0.115-0.196,0.178
			c-0.088,0.062-0.188,0.121-0.297,0.175c-0.109,0.054-0.223,0.1-0.339,0.137c-0.117,0.037-0.22,0.056-0.308,0.056v-0.588
			c0.103,0,0.217-0.029,0.343-0.087s0.246-0.126,0.36-0.203s0.212-0.151,0.294-0.224s0.129-0.123,0.144-0.15h0.629v3.436H50.38z"/>
		<path fill="#D2D2D2" d="M54.388,144.791v-0.72h3.66v0.72H54.388z M54.388,146.399v-0.72h3.66v0.72H54.388z"/>
		<path fill="#D2D2D2" d="M65.979,148.235c-0.064,0.032-0.148,0.07-0.252,0.114s-0.222,0.088-0.354,0.132
			c-0.132,0.044-0.276,0.079-0.432,0.108c-0.156,0.027-0.318,0.041-0.486,0.041c-0.384,0-0.716-0.105-0.996-0.317
			c-0.28-0.212-0.42-0.542-0.42-0.99v-4.212h-0.852v-0.828h0.852v-2.088h1.056v2.088h1.404v0.828h-1.404V147
			c0.016,0.231,0.092,0.399,0.228,0.504c0.136,0.104,0.296,0.155,0.48,0.155c0.208,0,0.398-0.034,0.57-0.103
			c0.172-0.067,0.29-0.121,0.354-0.161L65.979,148.235z"/>
		<path fill="#D2D2D2" d="M69.091,151.984v0.559H66.58v-0.559h0.994v-2.729c-0.042,0.056-0.107,0.115-0.196,0.178
			c-0.088,0.062-0.188,0.121-0.297,0.175c-0.109,0.054-0.223,0.1-0.339,0.137c-0.117,0.037-0.22,0.056-0.308,0.056v-0.588
			c0.103,0,0.217-0.029,0.343-0.087s0.246-0.126,0.36-0.203s0.212-0.151,0.294-0.224s0.129-0.123,0.144-0.15h0.629v3.436H69.091z"/>
	</g>
	<g>
		<path fill="#D2D2D2" d="M324.281,4.694l2.593,3.552l2.592-3.552h1.188l-3.205,4.32l3.109,4.2h-1.188l-2.496-3.432l-2.496,3.432
			h-1.2l3.108-4.2l-3.204-4.32H324.281z"/>
		<path fill="#D2D2D2" d="M333.67,16.65v0.56h-2.512v-0.56h0.994v-2.729c-0.042,0.056-0.107,0.115-0.196,0.178
			s-0.188,0.122-0.298,0.175c-0.109,0.054-0.223,0.1-0.338,0.137c-0.117,0.037-0.221,0.056-0.309,0.056V13.88
			c0.103,0,0.217-0.029,0.343-0.087s0.246-0.126,0.36-0.203c0.114-0.077,0.213-0.151,0.294-0.224s0.13-0.123,0.144-0.15h0.629v3.435
			H333.67z"/>
		<path fill="#D2D2D2" d="M342.598,10.406l-5.039,3V12.23l3.504-2.124l-3.504-2.16V6.818l5.039,3.036V10.406z"/>
		<path fill="#F0AD4E" d="M350.121,12.902c-0.063,0.032-0.147,0.07-0.252,0.114c-0.104,0.044-0.221,0.088-0.354,0.132
			c-0.132,0.044-0.275,0.08-0.432,0.108c-0.156,0.028-0.318,0.042-0.486,0.042c-0.384,0-0.716-0.106-0.996-0.318
			c-0.279-0.212-0.42-0.542-0.42-0.99V7.778h-0.852V6.95h0.852V4.862h1.057V6.95h1.403v0.828h-1.403v3.888
			c0.016,0.232,0.092,0.4,0.228,0.504s0.296,0.156,0.479,0.156c0.209,0,0.398-0.034,0.57-0.102c0.172-0.068,0.29-0.122,0.354-0.162
			L350.121,12.902z"/>
		<path fill="#F0AD4E" d="M353.234,16.65v0.56h-2.512v-0.56h0.993v-2.729c-0.042,0.056-0.107,0.115-0.196,0.178
			c-0.088,0.063-0.188,0.122-0.297,0.175c-0.109,0.054-0.223,0.1-0.34,0.137c-0.116,0.037-0.219,0.056-0.308,0.056V13.88
			c0.103,0,0.217-0.029,0.343-0.087s0.246-0.126,0.36-0.203c0.114-0.077,0.212-0.151,0.294-0.224s0.129-0.123,0.144-0.15h0.63v3.435
			H353.234z"/>
	</g>
	<g>
		<path fill="#D2D2D2" d="M453.205,59.694l2.592,3.552l2.592-3.552h1.188l-3.204,4.32l3.108,4.2h-1.188l-2.496-3.432l-2.496,3.432
			h-1.199l3.107-4.2l-3.203-4.32H453.205z"/>
		<path fill="#D2D2D2" d="M462.594,71.65v0.56h-2.512v-0.56h0.994v-2.729c-0.043,0.056-0.107,0.115-0.197,0.178
			c-0.088,0.063-0.188,0.122-0.297,0.175c-0.109,0.054-0.223,0.1-0.339,0.137s-0.22,0.056-0.308,0.056V68.88
			c0.102,0,0.217-0.029,0.342-0.087c0.127-0.058,0.246-0.126,0.361-0.203c0.113-0.077,0.212-0.151,0.293-0.224
			c0.082-0.072,0.13-0.123,0.145-0.15h0.629v3.435H462.594z"/>
		<path fill="#D2D2D2" d="M466.193,64.854l5.04-3.036v1.128l-3.504,2.16l3.504,2.124v1.176l-5.04-3V64.854z"/>
		<path fill="#D9534F" d="M479.045,67.902c-0.064,0.032-0.148,0.07-0.252,0.114c-0.104,0.044-0.222,0.088-0.354,0.132
			c-0.133,0.044-0.276,0.08-0.432,0.108c-0.156,0.028-0.318,0.042-0.486,0.042c-0.385,0-0.717-0.106-0.996-0.318
			c-0.28-0.212-0.42-0.542-0.42-0.99v-4.212h-0.853V61.95h0.853v-2.088h1.056v2.088h1.403v0.828h-1.403v3.888
			c0.017,0.232,0.092,0.4,0.228,0.504c0.137,0.104,0.297,0.156,0.48,0.156c0.208,0,0.398-0.034,0.57-0.102
			c0.172-0.068,0.289-0.122,0.354-0.162L479.045,67.902z"/>
		<path fill="#D9534F" d="M481.682,70.559c0.299,0.051,0.535,0.188,0.71,0.413c0.175,0.224,0.263,0.501,0.263,0.833
			c0,0.214-0.04,0.41-0.119,0.588c-0.08,0.177-0.193,0.329-0.34,0.455s-0.322,0.223-0.527,0.29
			c-0.206,0.068-0.435,0.102-0.686,0.102c-0.355,0-0.666-0.066-0.935-0.199s-0.478-0.321-0.626-0.563l0.412-0.413
			c0.107,0.191,0.252,0.342,0.434,0.451c0.183,0.11,0.42,0.165,0.715,0.165c0.321,0,0.574-0.072,0.758-0.217
			c0.185-0.145,0.277-0.364,0.277-0.658s-0.1-0.528-0.298-0.703s-0.486-0.262-0.864-0.262h-0.182v-0.518h0.195
			c0.336,0,0.594-0.08,0.773-0.241c0.18-0.161,0.27-0.365,0.27-0.612c0-0.247-0.086-0.431-0.259-0.552
			c-0.173-0.122-0.39-0.182-0.65-0.182c-0.257,0-0.481,0.055-0.675,0.165c-0.194,0.109-0.345,0.262-0.451,0.458l-0.379-0.392
			c0.061-0.117,0.145-0.223,0.249-0.318s0.226-0.178,0.364-0.249c0.137-0.07,0.286-0.124,0.447-0.161
			c0.16-0.038,0.33-0.056,0.508-0.056c0.219,0,0.42,0.03,0.604,0.091c0.185,0.061,0.343,0.145,0.476,0.252
			c0.133,0.107,0.235,0.238,0.309,0.392c0.072,0.154,0.107,0.324,0.107,0.511c0,0.14-0.02,0.272-0.059,0.398
			c-0.04,0.126-0.099,0.24-0.176,0.343c-0.076,0.103-0.17,0.188-0.279,0.255C481.939,70.49,481.816,70.536,481.682,70.559z"/>
	</g>
	<g>
		<path fill="#D2D2D2" d="M398.07,32.36l2.592,3.552l2.592-3.552h1.188l-3.203,4.32l3.107,4.2h-1.188l-2.496-3.432l-2.496,3.432
			h-1.2l3.108-4.2l-3.204-4.32H398.07z"/>
		<path fill="#D2D2D2" d="M404.779,44.876c0-0.187,0.015-0.361,0.045-0.525c0.03-0.163,0.088-0.319,0.172-0.469
			c0.084-0.149,0.199-0.291,0.346-0.427c0.146-0.135,0.34-0.27,0.578-0.406c0.139-0.074,0.281-0.148,0.426-0.22
			s0.276-0.149,0.396-0.231c0.119-0.082,0.217-0.169,0.294-0.262c0.076-0.093,0.115-0.203,0.115-0.329
			c0-0.08-0.019-0.159-0.056-0.238c-0.038-0.079-0.091-0.149-0.161-0.209s-0.157-0.11-0.262-0.147
			c-0.105-0.038-0.226-0.056-0.361-0.056c-0.14,0-0.267,0.02-0.381,0.06s-0.216,0.088-0.305,0.147
			c-0.088,0.058-0.165,0.12-0.23,0.185c-0.065,0.065-0.119,0.124-0.161,0.175l-0.398-0.448c0.037-0.042,0.101-0.099,0.188-0.171
			c0.089-0.072,0.201-0.146,0.336-0.221c0.135-0.074,0.291-0.139,0.469-0.192c0.178-0.053,0.375-0.08,0.595-0.08
			c0.214,0,0.408,0.029,0.581,0.087c0.172,0.058,0.318,0.139,0.438,0.241c0.118,0.103,0.211,0.223,0.275,0.36
			c0.065,0.138,0.098,0.283,0.098,0.437c0,0.182-0.039,0.341-0.118,0.476s-0.177,0.254-0.29,0.356
			c-0.115,0.103-0.237,0.19-0.367,0.263c-0.131,0.072-0.248,0.134-0.35,0.185c-0.104,0.052-0.219,0.113-0.348,0.186
			c-0.127,0.072-0.25,0.154-0.367,0.245c-0.116,0.091-0.217,0.192-0.304,0.305c-0.087,0.112-0.142,0.233-0.165,0.364h2.387v0.56
			H404.779z"/>
		<path fill="#D2D2D2" d="M411.652,37.521l5.04-3.036v1.128l-3.504,2.16l3.504,2.124v1.176l-5.04-3V37.521z"/>
		<path fill="#5BC0DE" d="M424.504,40.568c-0.063,0.032-0.147,0.07-0.252,0.114c-0.104,0.044-0.221,0.088-0.354,0.132
			c-0.132,0.044-0.275,0.08-0.432,0.108c-0.156,0.028-0.318,0.042-0.486,0.042c-0.384,0-0.716-0.106-0.996-0.318
			c-0.279-0.212-0.42-0.542-0.42-0.99v-4.212h-0.852v-0.828h0.852v-2.088h1.057v2.088h1.403v0.828h-1.403v3.888
			c0.016,0.232,0.092,0.4,0.228,0.504s0.296,0.156,0.479,0.156c0.209,0,0.398-0.034,0.57-0.102c0.172-0.068,0.29-0.122,0.354-0.162
			L424.504,40.568z"/>
		<path fill="#5BC0DE" d="M424.938,44.876c0-0.187,0.015-0.361,0.045-0.525c0.03-0.163,0.088-0.319,0.172-0.469
			c0.084-0.149,0.199-0.291,0.346-0.427c0.146-0.135,0.34-0.27,0.578-0.406c0.139-0.074,0.281-0.148,0.426-0.22
			s0.276-0.149,0.396-0.231c0.119-0.082,0.217-0.169,0.294-0.262c0.076-0.093,0.115-0.203,0.115-0.329
			c0-0.08-0.019-0.159-0.056-0.238c-0.038-0.079-0.091-0.149-0.161-0.209s-0.157-0.11-0.262-0.147
			c-0.105-0.038-0.226-0.056-0.361-0.056c-0.14,0-0.267,0.02-0.381,0.06s-0.216,0.088-0.305,0.147
			c-0.088,0.058-0.165,0.12-0.23,0.185c-0.065,0.065-0.119,0.124-0.161,0.175l-0.398-0.448c0.037-0.042,0.101-0.099,0.188-0.171
			c0.089-0.072,0.201-0.146,0.336-0.221c0.135-0.074,0.291-0.139,0.469-0.192c0.178-0.053,0.375-0.08,0.595-0.08
			c0.214,0,0.408,0.029,0.581,0.087c0.172,0.058,0.318,0.139,0.438,0.241c0.118,0.103,0.211,0.223,0.275,0.36
			c0.065,0.138,0.098,0.283,0.098,0.437c0,0.182-0.039,0.341-0.118,0.476s-0.177,0.254-0.29,0.356
			c-0.115,0.103-0.237,0.19-0.367,0.263c-0.131,0.072-0.248,0.134-0.35,0.185c-0.104,0.052-0.219,0.113-0.348,0.186
			c-0.127,0.072-0.25,0.154-0.367,0.245c-0.116,0.091-0.217,0.192-0.304,0.305c-0.087,0.112-0.142,0.233-0.165,0.364h2.387v0.56
			H424.938z"/>
	</g>
	<g>
		<g>
			<path fill="#D2D2D2" d="M157.411,220.928c0,0,2.699-0.111,6.747-0.277c2.024-0.075,4.385-0.162,6.915-0.256
				c2.53-0.075,5.229-0.156,7.928-0.236c2.699-0.09,5.397-0.18,7.928-0.265c2.53-0.124,4.891-0.171,6.915-0.122
				c4.048,0.109,6.747,0.335,6.747,0.335v1.893c0,0-2.699,0.226-6.747,0.335c-2.024,0.049-4.385,0.002-6.915-0.122
				c-2.53-0.085-5.229-0.175-7.928-0.265c-2.699-0.08-5.397-0.161-7.928-0.236c-2.53-0.094-4.891-0.181-6.915-0.256
				c-4.048-0.166-6.747-0.277-6.747-0.277V220.928z"/>
			<g>
				<polygon fill="#D2D2D2" points="207.651,221.053 197.702,225.118 200.063,221.053 197.702,216.988 				"/>
			</g>
		</g>
	</g>
	<g>
		<g>
			<path fill="#D2D2D2" d="M82.598,115.427c0,0,0.111,2.699,0.278,6.747c0.075,2.024,0.162,4.385,0.255,6.915
				c0.076,2.53,0.156,5.229,0.237,7.928c0.09,2.699,0.18,5.397,0.265,7.928c0.124,2.53,0.171,4.892,0.122,6.915
				c-0.109,4.048-0.335,6.747-0.335,6.747h-1.893c0,0-0.226-2.699-0.335-6.747c-0.049-2.023-0.001-4.385,0.122-6.915
				c0.084-2.53,0.175-5.229,0.265-7.928c0.081-2.699,0.161-5.397,0.237-7.928c0.093-2.53,0.18-4.891,0.255-6.915
				c0.167-4.048,0.278-6.747,0.278-6.747H82.598z"/>
			<g>
				<polygon fill="#D2D2D2" points="82.473,165.667 78.407,155.718 82.473,158.079 86.537,155.718 				"/>
			</g>
		</g>
	</g>
	<g>
		<path fill="#D2D2D2" d="M378.418,203.936c-0.096-0.112-0.224-0.221-0.383-0.324c-0.16-0.104-0.341-0.198-0.541-0.282
			c-0.199-0.084-0.418-0.151-0.654-0.204c-0.235-0.052-0.481-0.078-0.737-0.078c-0.664,0-1.149,0.124-1.458,0.372
			s-0.462,0.588-0.462,1.021c0,0.231,0.044,0.424,0.132,0.576c0.088,0.151,0.227,0.281,0.414,0.389
			c0.188,0.109,0.422,0.203,0.702,0.283s0.612,0.164,0.996,0.252c0.439,0.096,0.838,0.205,1.194,0.33
			c0.355,0.123,0.66,0.277,0.912,0.461c0.252,0.185,0.443,0.408,0.575,0.672c0.132,0.265,0.198,0.589,0.198,0.973
			c0,0.408-0.08,0.762-0.24,1.062c-0.16,0.299-0.378,0.547-0.654,0.744c-0.275,0.195-0.602,0.34-0.978,0.432
			s-0.784,0.138-1.224,0.138c-0.656,0-1.278-0.103-1.866-0.306c-0.589-0.204-1.122-0.502-1.603-0.895l0.516-0.912
			c0.129,0.137,0.295,0.272,0.498,0.408c0.205,0.137,0.437,0.258,0.697,0.366c0.26,0.108,0.539,0.196,0.84,0.264
			c0.3,0.068,0.613,0.103,0.941,0.103c0.607,0,1.08-0.108,1.416-0.324c0.336-0.217,0.504-0.54,0.504-0.973
			c0-0.239-0.054-0.441-0.162-0.605c-0.107-0.164-0.266-0.307-0.474-0.426c-0.208-0.12-0.466-0.227-0.774-0.318
			c-0.308-0.092-0.658-0.186-1.05-0.281c-0.432-0.104-0.812-0.217-1.14-0.336c-0.328-0.121-0.602-0.265-0.822-0.433
			s-0.386-0.372-0.498-0.612c-0.111-0.24-0.168-0.527-0.168-0.863c0-0.408,0.076-0.769,0.229-1.08
			c0.151-0.312,0.363-0.576,0.636-0.793c0.272-0.215,0.596-0.377,0.972-0.485s0.784-0.162,1.225-0.162
			c0.576,0,1.096,0.089,1.56,0.265s0.876,0.412,1.235,0.707L378.418,203.936z"/>
		<path fill="#D2D2D2" d="M383.927,210.787c-0.521,0-0.978-0.128-1.374-0.385c-0.396-0.256-0.71-0.579-0.941-0.971v3.791h-1.057
			v-8.82h0.936v1.177c0.248-0.384,0.57-0.694,0.967-0.931c0.396-0.235,0.834-0.354,1.313-0.354c0.433,0,0.828,0.088,1.188,0.264
			c0.359,0.176,0.672,0.414,0.936,0.715c0.264,0.299,0.471,0.646,0.618,1.037c0.147,0.393,0.222,0.801,0.222,1.225
			c0,0.447-0.068,0.869-0.203,1.266c-0.137,0.396-0.328,0.74-0.576,1.032s-0.545,0.524-0.889,0.696S384.342,210.787,383.927,210.787
			z M383.603,209.875c0.312,0,0.595-0.066,0.847-0.198s0.467-0.308,0.647-0.528c0.181-0.219,0.317-0.469,0.414-0.75
			c0.096-0.279,0.144-0.567,0.144-0.863c0-0.312-0.056-0.609-0.168-0.895c-0.111-0.283-0.264-0.531-0.455-0.744
			c-0.192-0.211-0.419-0.379-0.679-0.504c-0.26-0.123-0.542-0.186-0.846-0.186c-0.192,0-0.39,0.038-0.595,0.113
			c-0.203,0.076-0.396,0.177-0.576,0.301c-0.18,0.124-0.336,0.271-0.467,0.443c-0.133,0.173-0.219,0.354-0.258,0.547v1.787
			c0.088,0.209,0.199,0.402,0.336,0.582c0.135,0.181,0.291,0.336,0.467,0.469c0.176,0.132,0.365,0.236,0.564,0.312
			C383.179,209.837,383.387,209.875,383.603,209.875z"/>
		<path fill="#D2D2D2" d="M388.055,201.907h1.056v7.14c0,0.232,0.062,0.414,0.187,0.546c0.123,0.132,0.297,0.198,0.521,0.198
			c0.088,0,0.191-0.014,0.312-0.042c0.119-0.028,0.231-0.062,0.336-0.103l0.168,0.853c-0.177,0.071-0.385,0.132-0.625,0.181
			c-0.24,0.047-0.451,0.071-0.636,0.071c-0.407,0-0.729-0.116-0.966-0.349c-0.236-0.231-0.354-0.555-0.354-0.971V201.907z"/>
		<path fill="#D2D2D2" d="M391.463,203.227v-1.319h1.056v1.319H391.463z M391.463,210.667v-6.265h1.056v6.265H391.463z"/>
		<path fill="#D2D2D2" d="M397.462,210.355c-0.063,0.031-0.147,0.07-0.252,0.113c-0.104,0.045-0.222,0.088-0.354,0.133
			c-0.131,0.043-0.275,0.079-0.432,0.107c-0.156,0.027-0.318,0.042-0.486,0.042c-0.383,0-0.715-0.106-0.996-0.317
			c-0.279-0.213-0.42-0.543-0.42-0.99v-4.213h-0.852v-0.828h0.852v-2.088h1.057v2.088h1.404v0.828h-1.404v3.889
			c0.016,0.232,0.092,0.4,0.229,0.504c0.135,0.104,0.295,0.156,0.479,0.156c0.208,0,0.397-0.034,0.569-0.103
			c0.172-0.067,0.291-0.122,0.354-0.161L397.462,210.355z"/>
		<path fill="#D2D2D2" d="M403.09,210.787c-0.296,0-0.572-0.051-0.828-0.15s-0.479-0.238-0.666-0.414s-0.336-0.382-0.443-0.617
			c-0.108-0.236-0.162-0.494-0.162-0.774c0-0.288,0.063-0.55,0.191-0.786s0.311-0.438,0.547-0.605
			c0.235-0.168,0.516-0.301,0.84-0.396s0.678-0.145,1.062-0.145c0.304,0,0.612,0.029,0.924,0.084
			c0.312,0.057,0.589,0.133,0.828,0.229v-0.504c0-0.512-0.144-0.914-0.433-1.206c-0.287-0.292-0.695-0.438-1.223-0.438
			c-0.633,0-1.297,0.244-1.992,0.732l-0.349-0.684c0.808-0.545,1.62-0.816,2.437-0.816c0.824,0,1.465,0.221,1.926,0.66
			c0.46,0.439,0.689,1.061,0.689,1.859v2.557c0,0.248,0.112,0.376,0.336,0.384v0.912c-0.111,0.017-0.203,0.028-0.275,0.036
			s-0.148,0.012-0.229,0.012c-0.208,0-0.373-0.062-0.498-0.186c-0.123-0.124-0.197-0.274-0.222-0.45l-0.024-0.444
			c-0.279,0.377-0.634,0.662-1.062,0.858C404.035,210.689,403.578,210.787,403.09,210.787z M403.365,209.995
			c0.377,0,0.727-0.069,1.051-0.21s0.57-0.326,0.738-0.559c0.151-0.151,0.228-0.308,0.228-0.468v-0.924
			c-0.513-0.2-1.044-0.3-1.597-0.3c-0.527,0-0.957,0.111-1.289,0.336s-0.498,0.516-0.498,0.876c0,0.176,0.033,0.34,0.102,0.491
			c0.068,0.152,0.164,0.285,0.288,0.396c0.124,0.112,0.271,0.2,0.438,0.264C402.994,209.963,403.174,209.995,403.365,209.995z"/>
		<path fill="#D2D2D2" d="M411.322,210.355c-0.064,0.031-0.148,0.07-0.252,0.113c-0.104,0.045-0.223,0.088-0.354,0.133
			c-0.132,0.043-0.276,0.079-0.432,0.107c-0.156,0.027-0.318,0.042-0.486,0.042c-0.384,0-0.716-0.106-0.996-0.317
			c-0.28-0.213-0.42-0.543-0.42-0.99v-4.213h-0.853v-0.828h0.853v-2.088h1.056v2.088h1.404v0.828h-1.404v3.889
			c0.017,0.232,0.092,0.4,0.229,0.504c0.136,0.104,0.296,0.156,0.48,0.156c0.207,0,0.397-0.034,0.569-0.103
			c0.172-0.067,0.29-0.122,0.354-0.161L411.322,210.355z"/>
	</g>
	<g>
		<path fill="#D2D2D2" d="M376.967,228.48l2.593,3.553l2.592-3.553h1.188l-3.205,4.32l3.109,4.199h-1.188l-2.496-3.432L377.063,237
			h-1.2l3.108-4.199l-3.204-4.32H376.967z"/>
		<path fill="#D2D2D2" d="M388.487,236.041V237h-4.308v-0.959h1.703v-4.681c-0.071,0.097-0.184,0.198-0.336,0.306
			c-0.151,0.108-0.321,0.209-0.51,0.301c-0.188,0.092-0.382,0.17-0.582,0.234c-0.199,0.063-0.375,0.096-0.527,0.096v-1.008
			c0.176,0,0.371-0.051,0.588-0.15c0.216-0.1,0.422-0.217,0.617-0.348c0.197-0.133,0.365-0.26,0.505-0.385
			c0.14-0.123,0.222-0.21,0.245-0.258h1.08v5.893H388.487z"/>
		<path fill="#D2D2D2" d="M392.615,233.244v-0.72h3.66v0.72H392.615z M392.615,234.853v-0.72h3.66v0.72H392.615z"/>
		<path fill="#D2D2D2" d="M404.207,236.688c-0.064,0.032-0.148,0.07-0.252,0.114s-0.222,0.088-0.354,0.132
			c-0.133,0.044-0.276,0.079-0.432,0.108c-0.156,0.027-0.318,0.041-0.486,0.041c-0.385,0-0.717-0.105-0.996-0.317
			c-0.28-0.212-0.42-0.542-0.42-0.99v-4.212h-0.853v-0.828h0.853v-2.088h1.056v2.088h1.403v0.828h-1.403v3.889
			c0.017,0.231,0.092,0.399,0.228,0.504c0.137,0.104,0.297,0.155,0.48,0.155c0.208,0,0.398-0.034,0.57-0.103
			c0.172-0.067,0.289-0.121,0.354-0.161L404.207,236.688z"/>
		<path fill="#D2D2D2" d="M406.844,239.346c0.299,0.051,0.535,0.188,0.71,0.412c0.175,0.225,0.263,0.502,0.263,0.833
			c0,0.214-0.04,0.41-0.119,0.588c-0.08,0.177-0.193,0.329-0.34,0.454c-0.146,0.127-0.322,0.223-0.527,0.291
			c-0.206,0.067-0.435,0.102-0.686,0.102c-0.355,0-0.666-0.066-0.935-0.199s-0.478-0.321-0.626-0.564l0.412-0.412
			c0.107,0.191,0.252,0.342,0.434,0.451c0.183,0.109,0.42,0.164,0.715,0.164c0.321,0,0.574-0.072,0.758-0.217
			c0.185-0.145,0.277-0.363,0.277-0.657s-0.1-0.528-0.298-0.703s-0.486-0.263-0.864-0.263h-0.182v-0.518h0.195
			c0.336,0,0.594-0.08,0.773-0.241s0.27-0.364,0.27-0.612c0-0.247-0.086-0.432-0.259-0.553s-0.39-0.182-0.65-0.182
			c-0.257,0-0.481,0.055-0.675,0.164c-0.194,0.109-0.345,0.263-0.451,0.459l-0.379-0.393c0.061-0.116,0.145-0.223,0.249-0.318
			s0.226-0.178,0.364-0.248c0.137-0.07,0.286-0.123,0.447-0.16c0.16-0.038,0.33-0.057,0.508-0.057c0.219,0,0.42,0.03,0.604,0.091
			c0.185,0.062,0.343,0.146,0.476,0.252c0.133,0.107,0.235,0.237,0.309,0.392c0.072,0.154,0.107,0.324,0.107,0.512
			c0,0.139-0.02,0.271-0.059,0.398c-0.04,0.125-0.099,0.24-0.176,0.342c-0.076,0.104-0.17,0.188-0.279,0.256
			C407.102,239.277,406.979,239.322,406.844,239.346z"/>
	</g>
	<g>
		<g>
			<path fill="#D2D2D2" d="M364.828,220.928c0,0,2.699-0.111,6.747-0.277c2.024-0.075,4.386-0.162,6.915-0.256
				c2.53-0.075,5.229-0.156,7.928-0.236c2.699-0.09,5.397-0.18,7.928-0.265c2.529-0.124,4.891-0.171,6.915-0.122
				c4.048,0.109,6.747,0.335,6.747,0.335v1.893c0,0-2.699,0.226-6.747,0.335c-2.024,0.049-4.386,0.002-6.915-0.122
				c-2.53-0.085-5.229-0.175-7.928-0.265c-2.699-0.08-5.397-0.161-7.928-0.236c-2.529-0.094-4.891-0.181-6.915-0.256
				c-4.048-0.166-6.747-0.277-6.747-0.277V220.928z"/>
			<g>
				<polygon fill="#D2D2D2" points="415.068,221.053 405.119,225.118 407.48,221.053 405.119,216.988 				"/>
			</g>
		</g>
	</g>
	
		<polyline fill="none" stroke="#636C72" stroke-width="2" stroke-linecap="round" stroke-linejoin="round" stroke-miterlimit="10" points="
		283.83,48.336 283.83,21.003 388.294,21.003 388.294,48.336 	"/>
	
		<polyline fill="none" stroke="#636C72" stroke-width="2" stroke-linecap="round" stroke-linejoin="round" stroke-miterlimit="10" points="
		336.062,75.669 336.062,48.336 440.526,48.336 440.526,75.669 	"/>
	
		<polyline fill="none" stroke="#636C72" stroke-width="2" stroke-linecap="round" stroke-linejoin="round" stroke-miterlimit="10" points="
		389.06,103.131 389.06,75.798 493.523,75.798 493.523,103.131 	"/>
</g>
<g id="Layer_2">
	<g>
		<g>
			
				<line fill="none" stroke="#F0AD4E" stroke-width="1.5" stroke-linecap="round" stroke-linejoin="round" x1="107.827" y1="175.447" x2="107.827" y2="176.947"/>
			
				<line fill="none" stroke="#F0AD4E" stroke-width="1.5" stroke-linecap="round" stroke-linejoin="round" stroke-dasharray="3.0479,3.0479" x1="107.827" y1="179.994" x2="107.827" y2="257.717"/>
			
				<line fill="none" stroke="#F0AD4E" stroke-width="1.5" stroke-linecap="round" stroke-linejoin="round" x1="107.827" y1="259.241" x2="107.827" y2="260.741"/>
		</g>
	</g>
	
		<rect x="28.995" y="175.447" fill="none" stroke="#636C72" stroke-width="1.5" stroke-linecap="round" stroke-linejoin="round" stroke-miterlimit="10" width="117.766" height="85.294"/>
	<g>
		<path fill="#D2D2D2" d="M82.872,267.35l2.955,4.2l2.955-4.2h1.845l-3.9,5.4l3.78,5.25h-1.845l-2.835-4.05L82.992,278h-1.86
			l3.795-5.25l-3.915-5.4H82.872z"/>
		<path fill="#D2D2D2" d="M94.536,282.129v0.866h-3.341v-0.866h1.242v-3.052c-0.052,0.07-0.134,0.144-0.245,0.219
			s-0.233,0.146-0.367,0.21c-0.134,0.064-0.274,0.118-0.42,0.162c-0.146,0.043-0.274,0.065-0.385,0.065v-0.901
			c0.117,0,0.252-0.035,0.407-0.104c0.154-0.069,0.303-0.151,0.446-0.245c0.143-0.093,0.268-0.186,0.376-0.279
			s0.171-0.16,0.188-0.201h0.988v4.127H94.536z"/>
	</g>
	<g>
		<path fill="#F0AD4E" d="M108.298,166.316c-0.182,0.086-0.434,0.184-0.754,0.292c-0.321,0.108-0.663,0.163-1.027,0.163
			c-0.225,0-0.438-0.031-0.637-0.092c-0.2-0.061-0.375-0.151-0.527-0.272c-0.151-0.122-0.271-0.28-0.357-0.475
			c-0.086-0.195-0.13-0.431-0.13-0.708v-4.252h-0.897v-1.104h0.897v-2.236h1.43v2.236h1.482v1.104h-1.482v3.797
			c0.017,0.242,0.093,0.418,0.228,0.525c0.134,0.109,0.301,0.163,0.5,0.163c0.199,0,0.39-0.034,0.572-0.104
			c0.182-0.068,0.316-0.125,0.403-0.168L108.298,166.316z"/>
		<path fill="#F0AD4E" d="M111.815,170.246v0.75h-2.895v-0.75h1.076v-2.646c-0.045,0.061-0.116,0.124-0.212,0.189
			c-0.096,0.065-0.202,0.126-0.318,0.183c-0.116,0.055-0.237,0.102-0.364,0.14c-0.126,0.038-0.237,0.057-0.333,0.057v-0.78
			c0.101,0,0.219-0.03,0.353-0.092c0.134-0.061,0.263-0.131,0.387-0.211c0.124-0.082,0.232-0.162,0.326-0.243
			c0.094-0.081,0.148-0.139,0.163-0.175h0.856v3.578H111.815z"/>
	</g>
	<g>
		<path fill="#D2D2D2" d="M12.182,205.656l2.955,4.199l2.955-4.199h1.845l-3.9,5.4l3.78,5.25h-1.845l-2.835-4.051l-2.835,4.051
			h-1.86l3.795-5.25l-3.915-5.4H12.182z"/>
		<path fill="#D2D2D2" d="M20.286,221.301c0-0.244,0.021-0.472,0.062-0.682c0.041-0.21,0.114-0.406,0.219-0.59
			c0.104-0.184,0.248-0.359,0.428-0.525s0.414-0.328,0.7-0.484c0.204-0.111,0.396-0.213,0.577-0.307s0.339-0.186,0.477-0.275
			c0.137-0.09,0.246-0.187,0.328-0.289c0.082-0.102,0.122-0.22,0.122-0.354c0-0.188-0.08-0.354-0.24-0.504
			c-0.161-0.148-0.392-0.223-0.695-0.223c-0.157,0-0.302,0.021-0.433,0.066c-0.131,0.043-0.25,0.099-0.358,0.166
			c-0.108,0.066-0.203,0.141-0.284,0.223s-0.154,0.16-0.219,0.236l-0.612-0.709c0.058-0.063,0.15-0.145,0.275-0.24
			c0.125-0.096,0.277-0.188,0.455-0.275s0.38-0.162,0.608-0.223c0.228-0.062,0.475-0.092,0.743-0.092
			c0.28,0,0.532,0.036,0.756,0.109c0.225,0.072,0.414,0.174,0.569,0.301c0.154,0.129,0.272,0.281,0.354,0.459
			c0.082,0.179,0.123,0.369,0.123,0.574c0,0.215-0.044,0.407-0.131,0.576c-0.087,0.17-0.195,0.318-0.324,0.446
			c-0.128,0.128-0.268,0.237-0.419,0.328c-0.152,0.091-0.292,0.167-0.42,0.231c-0.123,0.059-0.261,0.127-0.416,0.205
			c-0.154,0.079-0.305,0.17-0.45,0.271c-0.146,0.102-0.277,0.211-0.394,0.328s-0.198,0.244-0.245,0.385h2.895v0.865H20.286z"/>
	</g>
	
		<rect x="28.819" y="4.171" fill="none" stroke="#636C72" stroke-width="1.5" stroke-linecap="round" stroke-linejoin="round" stroke-miterlimit="10" width="117.766" height="85.294"/>
	<g>
		<path fill="#D2D2D2" d="M82.696,96.074l2.955,4.2l2.955-4.2h1.845l-3.9,5.4l3.78,5.25h-1.845l-2.835-4.05l-2.835,4.05h-1.86
			l3.795-5.25l-3.915-5.4H82.696z"/>
		<path fill="#D2D2D2" d="M94.36,110.853v0.866h-3.341v-0.866h1.242v-3.052c-0.052,0.07-0.134,0.143-0.245,0.219
			s-0.233,0.146-0.367,0.21c-0.134,0.064-0.274,0.118-0.42,0.162c-0.146,0.044-0.274,0.066-0.385,0.066v-0.901
			c0.117,0,0.252-0.035,0.407-0.105c0.154-0.07,0.303-0.151,0.446-0.245s0.268-0.187,0.376-0.28c0.108-0.093,0.171-0.16,0.188-0.201
			h0.988v4.127H94.36z"/>
	</g>
	<g>
		<path fill="#D2D2D2" d="M12.006,34.38l2.955,4.2l2.955-4.2h1.845l-3.9,5.4l3.78,5.25h-1.845l-2.835-4.05l-2.835,4.05h-1.86
			l3.795-5.25l-3.915-5.4H12.006z"/>
		<path fill="#D2D2D2" d="M20.11,50.025c0-0.245,0.021-0.472,0.062-0.682c0.041-0.21,0.114-0.407,0.219-0.59
			c0.104-0.184,0.248-0.358,0.428-0.524c0.181-0.167,0.414-0.328,0.7-0.485c0.204-0.111,0.396-0.213,0.577-0.306
			s0.339-0.185,0.477-0.275c0.137-0.09,0.246-0.187,0.328-0.289c0.082-0.102,0.122-0.22,0.122-0.354c0-0.187-0.08-0.354-0.24-0.503
			c-0.161-0.148-0.392-0.223-0.695-0.223c-0.157,0-0.302,0.021-0.433,0.065c-0.131,0.044-0.25,0.099-0.358,0.166
			c-0.108,0.067-0.203,0.142-0.284,0.223s-0.154,0.161-0.219,0.236l-0.612-0.708c0.058-0.064,0.15-0.145,0.275-0.241
			c0.125-0.096,0.277-0.188,0.455-0.275s0.38-0.162,0.608-0.223c0.228-0.061,0.475-0.092,0.743-0.092
			c0.28,0,0.532,0.037,0.756,0.109c0.225,0.073,0.414,0.174,0.569,0.302c0.154,0.128,0.272,0.281,0.354,0.459
			c0.082,0.178,0.123,0.369,0.123,0.573c0,0.215-0.044,0.408-0.131,0.577c-0.087,0.169-0.195,0.317-0.324,0.446
			c-0.128,0.128-0.268,0.238-0.419,0.328c-0.152,0.09-0.292,0.167-0.42,0.231c-0.123,0.059-0.261,0.127-0.416,0.206
			s-0.305,0.169-0.45,0.271c-0.146,0.102-0.277,0.211-0.394,0.328s-0.198,0.245-0.245,0.385h2.895v0.866H20.11z"/>
	</g>
	<g>
		<g>
			
				<line fill="none" stroke="#D9534F" stroke-width="1.5" stroke-linecap="round" stroke-linejoin="round" x1="478.367" y1="175.447" x2="478.367" y2="176.947"/>
			
				<line fill="none" stroke="#D9534F" stroke-width="1.5" stroke-linecap="round" stroke-linejoin="round" stroke-dasharray="2.9589,2.9589" x1="478.367" y1="179.906" x2="478.367" y2="231.688"/>
			
				<line fill="none" stroke="#D9534F" stroke-width="1.5" stroke-linecap="round" stroke-linejoin="round" x1="478.367" y1="233.166" x2="478.367" y2="234.666"/>
		</g>
	</g>
	<g>
		<g>
			
				<line fill="none" stroke="#5BC0DE" stroke-width="1.5" stroke-linecap="round" stroke-linejoin="round" x1="559.687" y1="234.666" x2="558.187" y2="234.666"/>
			
				<line fill="none" stroke="#5BC0DE" stroke-width="1.5" stroke-linecap="round" stroke-linejoin="round" stroke-dasharray="2.9427,2.9427" x1="555.244" y1="234.666" x2="444.892" y2="234.666"/>
			
				<line fill="none" stroke="#5BC0DE" stroke-width="1.5" stroke-linecap="round" stroke-linejoin="round" x1="443.42" y1="234.666" x2="441.92" y2="234.666"/>
		</g>
	</g>
	<g>
		<g>
			
				<line fill="none" stroke="#F0AD4E" stroke-width="1.5" stroke-linecap="round" stroke-linejoin="round" x1="520.752" y1="175.447" x2="520.752" y2="176.947"/>
			
				<line fill="none" stroke="#F0AD4E" stroke-width="1.5" stroke-linecap="round" stroke-linejoin="round" stroke-dasharray="3.0479,3.0479" x1="520.752" y1="179.994" x2="520.752" y2="257.717"/>
			
				<line fill="none" stroke="#F0AD4E" stroke-width="1.5" stroke-linecap="round" stroke-linejoin="round" x1="520.752" y1="259.241" x2="520.752" y2="260.741"/>
		</g>
	</g>
	
		<rect x="441.92" y="175.447" fill="none" stroke="#636C72" stroke-width="1.5" stroke-linecap="round" stroke-linejoin="round" stroke-miterlimit="10" width="117.767" height="85.294"/>
	<g>
		<path fill="#D2D2D2" d="M495.797,267.35l2.955,4.2l2.955-4.2h1.846l-3.9,5.4l3.779,5.25h-1.845l-2.835-4.05l-2.835,4.05h-1.86
			l3.795-5.25l-3.914-5.4H495.797z"/>
		<path fill="#D2D2D2" d="M507.461,282.129v0.866h-3.341v-0.866h1.241v-3.052c-0.052,0.07-0.133,0.144-0.244,0.219
			s-0.233,0.146-0.367,0.21c-0.135,0.064-0.274,0.118-0.42,0.162c-0.146,0.043-0.273,0.065-0.385,0.065v-0.901
			c0.117,0,0.252-0.035,0.406-0.104s0.303-0.151,0.446-0.245c0.144-0.093,0.269-0.186,0.376-0.279s0.171-0.16,0.188-0.201h0.988
			v4.127H507.461z"/>
	</g>
	<g>
		<path fill="#F0AD4E" d="M521.223,166.316c-0.182,0.086-0.434,0.184-0.754,0.292s-0.662,0.163-1.027,0.163
			c-0.225,0-0.438-0.031-0.637-0.092s-0.375-0.151-0.526-0.272c-0.151-0.122-0.271-0.28-0.357-0.475
			c-0.087-0.195-0.13-0.431-0.13-0.708v-4.252h-0.896v-1.104h0.896v-2.236h1.43v2.236h1.482v1.104h-1.482v3.797
			c0.018,0.242,0.094,0.418,0.229,0.525c0.134,0.109,0.301,0.163,0.5,0.163s0.39-0.034,0.572-0.104
			c0.182-0.068,0.316-0.125,0.402-0.168L521.223,166.316z"/>
		<path fill="#F0AD4E" d="M524.74,170.246v0.75h-2.895v-0.75h1.076v-2.646c-0.045,0.061-0.116,0.124-0.213,0.189
			c-0.096,0.065-0.201,0.126-0.318,0.183c-0.115,0.055-0.236,0.102-0.363,0.14c-0.126,0.038-0.237,0.057-0.334,0.057v-0.78
			c0.102,0,0.219-0.03,0.354-0.092c0.133-0.061,0.262-0.131,0.387-0.211c0.123-0.082,0.232-0.162,0.325-0.243
			c0.094-0.081,0.147-0.139,0.163-0.175h0.856v3.578H524.74z"/>
	</g>
	<g>
		<path fill="#D9534F" d="M478.542,166.316c-0.183,0.086-0.434,0.184-0.754,0.292c-0.321,0.108-0.663,0.163-1.027,0.163
			c-0.226,0-0.438-0.031-0.637-0.092c-0.2-0.061-0.375-0.151-0.526-0.272c-0.152-0.122-0.271-0.28-0.357-0.475
			c-0.087-0.195-0.131-0.431-0.131-0.708v-4.252h-0.896v-1.104h0.896v-2.236h1.431v2.236h1.481v1.104h-1.481v3.797
			c0.017,0.242,0.093,0.418,0.228,0.525c0.135,0.109,0.301,0.163,0.5,0.163s0.391-0.034,0.572-0.104
			c0.182-0.068,0.316-0.125,0.402-0.168L478.542,166.316z"/>
		<path fill="#D9534F" d="M481.469,169.207c0.156,0.031,0.301,0.085,0.432,0.164c0.131,0.078,0.242,0.175,0.334,0.291
			c0.091,0.116,0.161,0.25,0.212,0.402c0.05,0.15,0.075,0.315,0.075,0.492c0,0.237-0.044,0.451-0.133,0.641
			c-0.088,0.189-0.215,0.352-0.379,0.488s-0.361,0.242-0.594,0.314c-0.232,0.074-0.493,0.11-0.781,0.11
			c-0.384,0-0.723-0.067-1.016-0.201s-0.527-0.327-0.705-0.579l0.508-0.576c0.121,0.187,0.278,0.333,0.471,0.439
			c0.191,0.105,0.434,0.159,0.727,0.159c0.334,0,0.59-0.071,0.77-0.212c0.18-0.143,0.27-0.354,0.27-0.637
			c0-0.293-0.102-0.523-0.303-0.689c-0.203-0.168-0.501-0.251-0.895-0.251h-0.205v-0.651h0.228c0.339,0,0.599-0.08,0.78-0.238
			c0.182-0.16,0.273-0.361,0.273-0.604s-0.081-0.42-0.242-0.534c-0.162-0.114-0.372-0.171-0.63-0.171s-0.485,0.057-0.683,0.168
			c-0.196,0.11-0.354,0.27-0.469,0.477l-0.523-0.568c0.07-0.121,0.166-0.23,0.288-0.33c0.121-0.098,0.259-0.184,0.413-0.258
			c0.154-0.072,0.32-0.129,0.5-0.166c0.18-0.038,0.365-0.057,0.557-0.057c0.248,0,0.475,0.033,0.679,0.098
			c0.204,0.066,0.382,0.157,0.53,0.273c0.149,0.116,0.264,0.258,0.346,0.424c0.08,0.168,0.121,0.352,0.121,0.554
			c0,0.151-0.023,0.296-0.068,0.433c-0.046,0.136-0.109,0.26-0.193,0.371s-0.184,0.203-0.299,0.276
			C481.746,169.133,481.615,169.182,481.469,169.207z"/>
	</g>
	<g>
		<path fill="#5BC0DE" d="M434.223,240.649c-0.182,0.087-0.434,0.185-0.754,0.292c-0.32,0.109-0.662,0.163-1.027,0.163
			c-0.225,0-0.438-0.03-0.637-0.091s-0.375-0.152-0.526-0.273s-0.271-0.279-0.357-0.475s-0.13-0.431-0.13-0.708v-4.251h-0.896
			v-1.105h0.896v-2.236h1.43v2.236h1.482v1.105h-1.482v3.796c0.018,0.243,0.094,0.418,0.229,0.526
			c0.134,0.108,0.301,0.162,0.5,0.162s0.39-0.034,0.572-0.104c0.182-0.069,0.316-0.125,0.402-0.169L434.223,240.649z"/>
		<path fill="#5BC0DE" d="M434.656,245.33c0-0.213,0.018-0.41,0.053-0.592s0.099-0.352,0.189-0.512
			c0.092-0.158,0.215-0.311,0.371-0.455c0.157-0.144,0.359-0.283,0.607-0.42c0.176-0.096,0.343-0.185,0.5-0.266
			c0.156-0.08,0.294-0.16,0.412-0.238c0.119-0.078,0.214-0.162,0.285-0.25c0.07-0.089,0.105-0.191,0.105-0.307
			c0-0.162-0.069-0.308-0.208-0.437c-0.14-0.129-0.34-0.193-0.603-0.193c-0.137,0-0.262,0.019-0.375,0.058
			c-0.113,0.037-0.218,0.086-0.311,0.144c-0.094,0.058-0.176,0.122-0.246,0.193c-0.071,0.071-0.135,0.139-0.189,0.204l-0.531-0.613
			c0.051-0.056,0.13-0.125,0.238-0.209c0.109-0.083,0.24-0.162,0.395-0.238s0.33-0.141,0.527-0.193
			c0.196-0.053,0.411-0.08,0.644-0.08c0.243,0,0.461,0.032,0.655,0.096c0.195,0.062,0.359,0.15,0.493,0.261
			c0.134,0.111,0.235,0.244,0.307,0.397c0.071,0.154,0.106,0.32,0.106,0.497c0,0.187-0.038,0.354-0.113,0.5
			c-0.076,0.147-0.17,0.275-0.281,0.387s-0.232,0.206-0.363,0.284c-0.132,0.078-0.253,0.146-0.364,0.201
			c-0.106,0.051-0.226,0.109-0.36,0.178c-0.133,0.068-0.264,0.146-0.39,0.234c-0.126,0.089-0.24,0.184-0.341,0.285
			c-0.102,0.102-0.172,0.212-0.213,0.333h2.509v0.751H434.656z"/>
	</g>
	<g>
		<path fill="#D2D2D2" d="M425.107,205.656l2.955,4.199l2.955-4.199h1.845l-3.9,5.4l3.78,5.25h-1.846l-2.834-4.051l-2.836,4.051
			h-1.859l3.795-5.25l-3.915-5.4H425.107z"/>
		<path fill="#D2D2D2" d="M433.211,221.301c0-0.244,0.021-0.472,0.062-0.682c0.04-0.21,0.113-0.406,0.219-0.59
			c0.104-0.184,0.247-0.359,0.428-0.525s0.414-0.328,0.699-0.484c0.205-0.111,0.396-0.213,0.578-0.307
			c0.18-0.094,0.339-0.186,0.477-0.275c0.137-0.09,0.246-0.187,0.328-0.289c0.081-0.102,0.121-0.22,0.121-0.354
			c0-0.188-0.08-0.354-0.24-0.504c-0.16-0.148-0.392-0.223-0.695-0.223c-0.156,0-0.301,0.021-0.433,0.066
			c-0.131,0.043-0.251,0.099-0.358,0.166c-0.107,0.066-0.203,0.141-0.284,0.223s-0.154,0.16-0.219,0.236l-0.612-0.709
			c0.059-0.063,0.15-0.145,0.275-0.24s0.277-0.188,0.455-0.275s0.381-0.162,0.607-0.223c0.229-0.062,0.476-0.092,0.744-0.092
			c0.279,0,0.531,0.036,0.756,0.109c0.225,0.072,0.414,0.174,0.568,0.301c0.154,0.129,0.273,0.281,0.354,0.459
			c0.081,0.179,0.122,0.369,0.122,0.574c0,0.215-0.043,0.407-0.131,0.576c-0.088,0.17-0.195,0.318-0.324,0.446
			c-0.127,0.128-0.268,0.237-0.419,0.328s-0.292,0.167-0.42,0.231c-0.122,0.059-0.261,0.127-0.415,0.205
			c-0.154,0.079-0.305,0.17-0.451,0.271c-0.146,0.102-0.276,0.211-0.393,0.328c-0.117,0.117-0.199,0.244-0.246,0.385h2.896v0.865
			H433.211z"/>
	</g>
	<g>
		<g>
			
				<line fill="none" stroke="#5BC0DE" stroke-width="1.5" stroke-linecap="round" stroke-linejoin="round" x1="353.224" y1="234.666" x2="351.724" y2="234.666"/>
			
				<line fill="none" stroke="#5BC0DE" stroke-width="1.5" stroke-linecap="round" stroke-linejoin="round" stroke-dasharray="2.9427,2.9427" x1="348.781" y1="234.666" x2="238.428" y2="234.666"/>
			
				<line fill="none" stroke="#5BC0DE" stroke-width="1.5" stroke-linecap="round" stroke-linejoin="round" x1="236.957" y1="234.666" x2="235.457" y2="234.666"/>
		</g>
	</g>
	<g>
		<g>
			
				<line fill="none" stroke="#F0AD4E" stroke-width="1.5" stroke-linecap="round" stroke-linejoin="round" x1="314.289" y1="175.447" x2="314.289" y2="176.947"/>
			
				<line fill="none" stroke="#F0AD4E" stroke-width="1.5" stroke-linecap="round" stroke-linejoin="round" stroke-dasharray="3.0479,3.0479" x1="314.289" y1="179.994" x2="314.289" y2="257.717"/>
			
				<line fill="none" stroke="#F0AD4E" stroke-width="1.5" stroke-linecap="round" stroke-linejoin="round" x1="314.289" y1="259.241" x2="314.289" y2="260.741"/>
		</g>
	</g>
	
		<rect x="235.457" y="175.447" fill="none" stroke="#636C72" stroke-width="1.5" stroke-linecap="round" stroke-linejoin="round" stroke-miterlimit="10" width="117.767" height="85.294"/>
	<g>
		<path fill="#D2D2D2" d="M289.334,267.35l2.955,4.2l2.955-4.2h1.846l-3.9,5.4l3.779,5.25h-1.845l-2.835-4.05l-2.835,4.05h-1.86
			l3.794-5.25l-3.915-5.4H289.334z"/>
		<path fill="#D2D2D2" d="M300.998,282.129v0.866h-3.341v-0.866h1.241v-3.052c-0.052,0.07-0.133,0.144-0.244,0.219
			s-0.233,0.146-0.367,0.21c-0.135,0.064-0.274,0.118-0.42,0.162c-0.146,0.043-0.273,0.065-0.385,0.065v-0.901
			c0.117,0,0.252-0.035,0.406-0.104s0.303-0.151,0.446-0.245c0.144-0.093,0.269-0.186,0.376-0.279s0.171-0.16,0.188-0.201h0.988
			v4.127H300.998z"/>
	</g>
	<g>
		<path fill="#F0AD4E" d="M314.76,166.316c-0.182,0.086-0.434,0.184-0.754,0.292s-0.662,0.163-1.027,0.163
			c-0.225,0-0.438-0.031-0.637-0.092s-0.375-0.151-0.526-0.272c-0.151-0.122-0.271-0.28-0.357-0.475
			c-0.087-0.195-0.13-0.431-0.13-0.708v-4.252h-0.896v-1.104h0.896v-2.236h1.43v2.236h1.482v1.104h-1.482v3.797
			c0.018,0.242,0.094,0.418,0.229,0.525c0.134,0.109,0.301,0.163,0.5,0.163s0.39-0.034,0.572-0.104
			c0.182-0.068,0.316-0.125,0.402-0.168L314.76,166.316z"/>
		<path fill="#F0AD4E" d="M318.277,170.246v0.75h-2.895v-0.75h1.076v-2.646c-0.045,0.061-0.116,0.124-0.213,0.189
			c-0.096,0.065-0.201,0.126-0.318,0.183c-0.115,0.055-0.236,0.102-0.363,0.14c-0.126,0.038-0.237,0.057-0.334,0.057v-0.78
			c0.102,0,0.219-0.03,0.354-0.092c0.133-0.061,0.262-0.131,0.387-0.211c0.123-0.082,0.232-0.162,0.325-0.243
			c0.094-0.081,0.147-0.139,0.163-0.175h0.856v3.578H318.277z"/>
	</g>
	<g>
		<path fill="#5BC0DE" d="M227.76,240.649c-0.182,0.087-0.434,0.185-0.754,0.292c-0.321,0.109-0.663,0.163-1.027,0.163
			c-0.225,0-0.438-0.03-0.637-0.091c-0.2-0.061-0.375-0.152-0.527-0.273c-0.151-0.121-0.271-0.279-0.357-0.475
			s-0.13-0.431-0.13-0.708v-4.251h-0.897v-1.105h0.897v-2.236h1.43v2.236h1.482v1.105h-1.482v3.796
			c0.017,0.243,0.093,0.418,0.228,0.526c0.134,0.108,0.301,0.162,0.5,0.162c0.199,0,0.39-0.034,0.572-0.104s0.316-0.125,0.403-0.169
			L227.76,240.649z"/>
		<path fill="#5BC0DE" d="M228.193,245.33c0-0.213,0.018-0.41,0.053-0.592c0.035-0.182,0.098-0.352,0.189-0.512
			c0.091-0.158,0.214-0.311,0.371-0.455c0.157-0.144,0.359-0.283,0.606-0.42c0.177-0.096,0.343-0.185,0.5-0.266
			c0.157-0.08,0.294-0.16,0.413-0.238s0.213-0.162,0.284-0.25c0.071-0.089,0.106-0.191,0.106-0.307c0-0.162-0.07-0.308-0.208-0.437
			c-0.139-0.129-0.34-0.193-0.603-0.193c-0.137,0-0.262,0.019-0.375,0.058c-0.113,0.037-0.217,0.086-0.311,0.144
			c-0.094,0.058-0.176,0.122-0.246,0.193c-0.071,0.071-0.134,0.139-0.189,0.204l-0.531-0.613c0.05-0.056,0.13-0.125,0.239-0.209
			c0.108-0.083,0.24-0.162,0.394-0.238s0.33-0.141,0.527-0.193c0.197-0.053,0.412-0.08,0.644-0.08c0.243,0,0.461,0.032,0.656,0.096
			c0.194,0.062,0.358,0.15,0.493,0.261c0.134,0.111,0.236,0.244,0.307,0.397c0.071,0.154,0.106,0.32,0.106,0.497
			c0,0.187-0.038,0.354-0.114,0.5c-0.076,0.147-0.169,0.275-0.28,0.387c-0.111,0.111-0.232,0.206-0.364,0.284
			c-0.132,0.078-0.253,0.146-0.364,0.201c-0.106,0.051-0.226,0.109-0.36,0.178s-0.264,0.146-0.39,0.234
			c-0.126,0.089-0.24,0.184-0.341,0.285s-0.172,0.212-0.212,0.333h2.508v0.751H228.193z"/>
	</g>
	<g>
		<path fill="#D2D2D2" d="M218.644,205.656l2.955,4.199l2.955-4.199h1.845l-3.9,5.4l3.78,5.25h-1.845l-2.835-4.051l-2.835,4.051
			h-1.86l3.795-5.25l-3.915-5.4H218.644z"/>
		<path fill="#D2D2D2" d="M226.749,221.301c0-0.244,0.021-0.472,0.062-0.682c0.041-0.21,0.114-0.406,0.219-0.59
			c0.104-0.184,0.248-0.359,0.428-0.525s0.414-0.328,0.7-0.484c0.204-0.111,0.396-0.213,0.577-0.307s0.339-0.186,0.477-0.275
			c0.137-0.09,0.246-0.187,0.328-0.289c0.082-0.102,0.122-0.22,0.122-0.354c0-0.188-0.08-0.354-0.24-0.504
			c-0.161-0.148-0.392-0.223-0.695-0.223c-0.157,0-0.302,0.021-0.433,0.066c-0.131,0.043-0.25,0.099-0.358,0.166
			c-0.108,0.066-0.203,0.141-0.284,0.223s-0.154,0.16-0.219,0.236l-0.612-0.709c0.058-0.063,0.15-0.145,0.275-0.24
			c0.125-0.096,0.277-0.188,0.455-0.275s0.38-0.162,0.608-0.223c0.228-0.062,0.475-0.092,0.743-0.092
			c0.28,0,0.532,0.036,0.756,0.109c0.225,0.072,0.414,0.174,0.569,0.301c0.154,0.129,0.272,0.281,0.354,0.459
			c0.082,0.179,0.123,0.369,0.123,0.574c0,0.215-0.044,0.407-0.131,0.576c-0.087,0.17-0.195,0.318-0.324,0.446
			c-0.128,0.128-0.268,0.237-0.419,0.328c-0.152,0.091-0.292,0.167-0.42,0.231c-0.123,0.059-0.261,0.127-0.416,0.205
			c-0.154,0.079-0.305,0.17-0.45,0.271c-0.146,0.102-0.277,0.211-0.394,0.328s-0.198,0.244-0.245,0.385h2.895v0.865H226.749z"/>
	</g>
	<g>
	</g>
</g>
</svg>
