<?xml version="1.0" encoding="utf-8"?>
<!-- Generator: Adobe Illustrator 16.0.4, SVG Export Plug-In . SVG Version: 6.00 Build 0)  -->
<!DOCTYPE svg PUBLIC "-//W3C//DTD SVG 1.1//EN" "http://www.w3.org/Graphics/SVG/1.1/DTD/svg11.dtd">
<svg version="1.1" id="Layer_2" xmlns="http://www.w3.org/2000/svg" xmlns:xlink="http://www.w3.org/1999/xlink" x="0px" y="0px"
	 width="425px" height="409px" viewBox="0 0 425 409" enable-background="new 0 0 425 409" xml:space="preserve">
<path fill="#D1DDE2" d="M185.4,390.439c0,6.221-5.041,11.262-11.261,11.262H81.461c-6.22,0-11.261-5.041-11.261-11.262v-51.961
	c0-6.219,5.041-11.26,11.261-11.26h92.679c6.22,0,11.261,5.041,11.261,11.26V390.439z"/>
<path fill="#FCDDD2" d="M185.4,309.63c0,6.22-5.041,11.261-11.261,11.261H81.461c-6.22,0-11.261-5.041-11.261-11.261v-51.961
	c0-6.22,5.041-11.261,11.261-11.261h92.679c6.22,0,11.261,5.041,11.261,11.261V309.63z"/>
<path fill="#DAC6CE" d="M416.261,228.818c0,6.221-5.041,11.262-11.261,11.262H81.461c-6.22,0-11.261-5.041-11.261-11.262v-51.961
	c0-6.22,5.041-11.261,11.261-11.261H405c6.22,0,11.261,5.041,11.261,11.261V228.818z"/>
<path fill="#FCC59A" d="M416.261,148.008c0,6.22-5.041,11.261-11.261,11.261H81.461c-6.22,0-11.261-5.041-11.261-11.261V96.046
	c0-6.22,5.041-11.261,11.261-11.261H405c6.22,0,11.261,5.041,11.261,11.261V148.008z"/>
<path fill="#C7E5DC" d="M301.261,67.197c0,6.22-5.041,11.261-11.261,11.261H81.461c-6.22,0-11.261-5.041-11.261-11.261V15.235
	c0-6.22,5.041-11.261,11.261-11.261H290c6.22,0,11.261,5.041,11.261,11.261V67.197z"/>
<g>
	<path fill="#D2D2D2" d="M26.405,15.476h6.37l18.2,46.15h-7.67L38.43,49.081H20.62l-4.81,12.545H8.075L26.405,15.476z M37,43.686
		l-7.41-19.825l-7.67,19.825H37z"/>
</g>
<g>
	<path d="M87,56.916c0-1.4,0.116-2.7,0.35-3.9c0.233-1.2,0.65-2.325,1.25-3.375c0.601-1.05,1.417-2.05,2.45-3
		c1.033-0.95,2.366-1.875,4-2.775c1.167-0.633,2.267-1.217,3.3-1.75s1.941-1.058,2.726-1.575c0.782-0.517,1.407-1.066,1.875-1.65
		c0.466-0.583,0.7-1.258,0.7-2.025c0-1.066-0.459-2.025-1.375-2.875c-0.918-0.85-2.242-1.275-3.976-1.275
		c-0.899,0-1.725,0.125-2.475,0.375s-1.434,0.567-2.05,0.95c-0.617,0.384-1.159,0.809-1.625,1.275
		c-0.468,0.467-0.884,0.917-1.25,1.35l-3.5-4.05c0.332-0.367,0.857-0.825,1.574-1.375c0.717-0.55,1.583-1.075,2.601-1.575
		c1.017-0.5,2.175-0.925,3.475-1.275s2.717-0.525,4.25-0.525c1.601,0,3.042,0.208,4.325,0.625c1.283,0.417,2.366,0.992,3.25,1.725
		c0.883,0.734,1.558,1.609,2.025,2.625c0.466,1.018,0.699,2.109,0.699,3.275c0,1.233-0.25,2.333-0.75,3.3
		c-0.5,0.967-1.117,1.817-1.85,2.55c-0.733,0.734-1.533,1.359-2.4,1.875c-0.867,0.518-1.667,0.959-2.399,1.325
		c-0.7,0.333-1.492,0.725-2.375,1.175c-0.884,0.45-1.742,0.967-2.575,1.55c-0.834,0.583-1.584,1.208-2.25,1.875
		c-0.667,0.667-1.134,1.4-1.4,2.2h16.551v4.95H87z"/>
	<path d="M140.6,42.266c0,2.2-0.324,4.225-0.975,6.075c-0.65,1.85-1.551,3.45-2.7,4.8s-2.5,2.4-4.05,3.15
		c-1.551,0.75-3.242,1.125-5.075,1.125s-3.534-0.375-5.101-1.125s-2.916-1.8-4.049-3.15c-1.135-1.35-2.025-2.95-2.676-4.8
		c-0.65-1.85-0.975-3.875-0.975-6.075c0-2.2,0.324-4.225,0.975-6.075s1.541-3.45,2.676-4.8c1.133-1.35,2.482-2.408,4.049-3.175
		c1.566-0.766,3.268-1.15,5.101-1.15s3.524,0.384,5.075,1.15c1.55,0.768,2.9,1.825,4.05,3.175s2.05,2.95,2.7,4.8
		S140.6,40.066,140.6,42.266z M135,42.266c0-1.5-0.176-2.867-0.525-4.1c-0.35-1.233-0.85-2.3-1.5-3.2
		c-0.65-0.9-1.417-1.591-2.3-2.075c-0.884-0.483-1.843-0.725-2.875-0.725c-1.101,0-2.093,0.242-2.976,0.725
		c-0.883,0.483-1.649,1.175-2.299,2.075c-0.65,0.9-1.15,1.967-1.5,3.2c-0.351,1.233-0.525,2.6-0.525,4.1s0.175,2.867,0.525,4.1
		c0.35,1.233,0.85,2.292,1.5,3.175c0.649,0.884,1.416,1.567,2.299,2.05c0.883,0.484,1.875,0.725,2.976,0.725
		c1.032,0,1.991-0.241,2.875-0.725c0.883-0.482,1.649-1.166,2.3-2.05c0.65-0.883,1.15-1.941,1.5-3.175
		C134.824,45.133,135,43.766,135,42.266z"/>
	<path d="M152.9,35.766c-1.101,0-2.135-0.191-3.101-0.575c-0.968-0.383-1.809-0.908-2.524-1.575c-0.718-0.667-1.284-1.45-1.701-2.35
		c-0.416-0.9-0.625-1.867-0.625-2.9s0.209-2,0.625-2.9c0.417-0.9,0.983-1.691,1.701-2.375c0.716-0.683,1.557-1.216,2.524-1.6
		c0.966-0.383,2-0.575,3.101-0.575c1.1,0,2.133,0.192,3.1,0.575c0.967,0.383,1.808,0.917,2.525,1.6
		c0.716,0.684,1.282,1.475,1.699,2.375c0.416,0.9,0.625,1.867,0.625,2.9s-0.209,2-0.625,2.9c-0.417,0.9-0.983,1.684-1.699,2.35
		c-0.718,0.667-1.559,1.192-2.525,1.575C155.033,35.575,154,35.766,152.9,35.766z M147.199,54.916l14.051-16.65l13.199-17.15
		l2.601,2.25l-13.8,16.45l-13.5,17.4L147.199,54.916z M152.9,32.916c0.566,0,1.091-0.125,1.574-0.375
		c0.482-0.25,0.908-0.583,1.275-1c0.366-0.417,0.658-0.9,0.875-1.45c0.217-0.55,0.324-1.125,0.324-1.725
		c0-0.633-0.107-1.233-0.324-1.8c-0.217-0.566-0.509-1.058-0.875-1.475c-0.367-0.416-0.801-0.741-1.301-0.975
		c-0.5-0.233-1.017-0.35-1.549-0.35c-1.135,0-2.093,0.458-2.875,1.375c-0.784,0.917-1.176,1.992-1.176,3.225
		c0,0.633,0.107,1.225,0.325,1.775c0.216,0.55,0.508,1.034,0.875,1.45c0.366,0.417,0.792,0.742,1.274,0.975
		C151.808,32.8,152.332,32.916,152.9,32.916z M171.3,57.416c-1.101,0-2.134-0.192-3.101-0.575s-1.809-0.916-2.524-1.6
		c-0.718-0.683-1.284-1.475-1.7-2.375c-0.417-0.9-0.625-1.867-0.625-2.9c0-1.033,0.208-2,0.625-2.9c0.416-0.9,0.982-1.683,1.7-2.35
		c0.716-0.666,1.558-1.191,2.524-1.575c0.967-0.383,2-0.575,3.101-0.575s2.133,0.192,3.101,0.575
		c0.966,0.383,1.807,0.909,2.524,1.575c0.716,0.667,1.282,1.45,1.7,2.35c0.416,0.9,0.625,1.867,0.625,2.9c0,1.034-0.209,2-0.625,2.9
		c-0.418,0.9-0.984,1.692-1.7,2.375c-0.718,0.684-1.559,1.217-2.524,1.6C173.433,57.224,172.4,57.416,171.3,57.416z M171.3,54.566
		c1.133,0,2.091-0.45,2.875-1.35c0.782-0.9,1.175-1.982,1.175-3.25c0-0.633-0.108-1.225-0.324-1.775
		c-0.218-0.55-0.518-1.033-0.9-1.45c-0.384-0.417-0.817-0.742-1.301-0.975c-0.482-0.233-0.992-0.35-1.524-0.35
		c-0.567,0-1.093,0.125-1.575,0.375c-0.483,0.25-0.908,0.583-1.275,1c-0.367,0.417-0.658,0.9-0.875,1.45
		c-0.217,0.55-0.324,1.125-0.324,1.725c0,0.634,0.107,1.234,0.324,1.8c0.217,0.567,0.508,1.059,0.875,1.475
		c0.367,0.417,0.792,0.742,1.275,0.975C170.207,54.45,170.732,54.566,171.3,54.566z"/>
</g>
<g>
	<path d="M103.45,125.927c1.032,0.2,1.982,0.559,2.85,1.075c0.866,0.517,1.601,1.159,2.2,1.925c0.6,0.767,1.066,1.65,1.4,2.65
		c0.332,1,0.5,2.083,0.5,3.25c0,1.567-0.293,2.975-0.875,4.225c-0.584,1.25-1.418,2.325-2.5,3.225
		c-1.084,0.9-2.393,1.592-3.926,2.075c-1.533,0.483-3.25,0.725-5.149,0.725c-2.534,0-4.768-0.442-6.7-1.325
		c-1.934-0.883-3.483-2.159-4.65-3.825l3.351-3.8c0.8,1.234,1.833,2.2,3.1,2.9c1.267,0.7,2.866,1.05,4.8,1.05
		c2.2,0,3.892-0.467,5.075-1.4c1.183-0.934,1.775-2.333,1.775-4.2c0-1.933-0.667-3.45-2-4.55c-1.334-1.1-3.3-1.65-5.9-1.65h-1.35
		v-4.3h1.5c2.232,0,3.95-0.525,5.149-1.575c1.2-1.05,1.801-2.375,1.801-3.975c0-1.6-0.534-2.775-1.601-3.525
		c-1.067-0.75-2.45-1.125-4.149-1.125c-1.7,0-3.2,0.367-4.5,1.1c-1.301,0.734-2.334,1.784-3.101,3.15l-3.45-3.75
		c0.467-0.8,1.101-1.525,1.9-2.175s1.708-1.216,2.725-1.7c1.017-0.482,2.117-0.85,3.301-1.1c1.183-0.25,2.407-0.375,3.675-0.375
		c1.633,0,3.125,0.217,4.475,0.65c1.351,0.434,2.517,1.034,3.5,1.8c0.983,0.767,1.741,1.7,2.275,2.8c0.532,1.1,0.8,2.317,0.8,3.65
		c0,1-0.15,1.95-0.45,2.85c-0.3,0.9-0.725,1.717-1.274,2.45c-0.551,0.734-1.209,1.342-1.976,1.825
		C105.283,125.435,104.416,125.76,103.45,125.927z"/>
	<path d="M140.6,123.077c0,2.2-0.324,4.225-0.975,6.075c-0.65,1.85-1.551,3.45-2.7,4.8s-2.5,2.4-4.05,3.15
		c-1.551,0.75-3.242,1.125-5.075,1.125s-3.534-0.375-5.101-1.125s-2.916-1.8-4.049-3.15c-1.135-1.35-2.025-2.95-2.676-4.8
		c-0.65-1.85-0.975-3.875-0.975-6.075c0-2.2,0.324-4.225,0.975-6.075s1.541-3.45,2.676-4.8c1.133-1.35,2.482-2.408,4.049-3.175
		c1.566-0.766,3.268-1.15,5.101-1.15s3.524,0.384,5.075,1.15c1.55,0.768,2.9,1.825,4.05,3.175s2.05,2.95,2.7,4.8
		S140.6,120.876,140.6,123.077z M135,123.077c0-1.5-0.176-2.867-0.525-4.1c-0.35-1.233-0.85-2.3-1.5-3.2
		c-0.65-0.9-1.417-1.591-2.3-2.075c-0.884-0.483-1.843-0.725-2.875-0.725c-1.101,0-2.093,0.242-2.976,0.725
		c-0.883,0.483-1.649,1.175-2.299,2.075c-0.65,0.9-1.15,1.967-1.5,3.2c-0.351,1.233-0.525,2.6-0.525,4.1s0.175,2.867,0.525,4.1
		c0.35,1.233,0.85,2.292,1.5,3.175c0.649,0.884,1.416,1.567,2.299,2.05c0.883,0.484,1.875,0.725,2.976,0.725
		c1.032,0,1.991-0.241,2.875-0.725c0.883-0.482,1.649-1.166,2.3-2.05c0.65-0.883,1.15-1.941,1.5-3.175
		C134.824,125.944,135,124.577,135,123.077z"/>
	<path d="M152.9,116.577c-1.101,0-2.135-0.191-3.101-0.575c-0.968-0.383-1.809-0.908-2.524-1.575
		c-0.718-0.667-1.284-1.45-1.701-2.35c-0.416-0.9-0.625-1.867-0.625-2.9s0.209-2,0.625-2.9c0.417-0.9,0.983-1.691,1.701-2.375
		c0.716-0.683,1.557-1.216,2.524-1.6c0.966-0.383,2-0.575,3.101-0.575c1.1,0,2.133,0.192,3.1,0.575
		c0.967,0.383,1.808,0.917,2.525,1.6c0.716,0.684,1.282,1.475,1.699,2.375c0.416,0.9,0.625,1.867,0.625,2.9s-0.209,2-0.625,2.9
		c-0.417,0.9-0.983,1.684-1.699,2.35c-0.718,0.667-1.559,1.192-2.525,1.575C155.033,116.385,154,116.577,152.9,116.577z
		 M147.199,135.727l14.051-16.65l13.199-17.15l2.601,2.25l-13.8,16.45l-13.5,17.4L147.199,135.727z M152.9,113.727
		c0.566,0,1.091-0.125,1.574-0.375c0.482-0.25,0.908-0.583,1.275-1c0.366-0.417,0.658-0.9,0.875-1.45
		c0.217-0.55,0.324-1.125,0.324-1.725c0-0.633-0.107-1.233-0.324-1.8c-0.217-0.566-0.509-1.058-0.875-1.475
		c-0.367-0.416-0.801-0.741-1.301-0.975c-0.5-0.233-1.017-0.35-1.549-0.35c-1.135,0-2.093,0.458-2.875,1.375
		c-0.784,0.917-1.176,1.992-1.176,3.225c0,0.633,0.107,1.225,0.325,1.775c0.216,0.55,0.508,1.034,0.875,1.45
		c0.366,0.417,0.792,0.742,1.274,0.975C151.808,113.61,152.332,113.727,152.9,113.727z M171.3,138.227
		c-1.101,0-2.134-0.192-3.101-0.575s-1.809-0.916-2.524-1.6c-0.718-0.683-1.284-1.475-1.7-2.375c-0.417-0.9-0.625-1.867-0.625-2.9
		c0-1.033,0.208-2,0.625-2.9c0.416-0.9,0.982-1.683,1.7-2.35c0.716-0.666,1.558-1.191,2.524-1.575c0.967-0.383,2-0.575,3.101-0.575
		s2.133,0.192,3.101,0.575c0.966,0.383,1.807,0.909,2.524,1.575c0.716,0.667,1.282,1.45,1.7,2.35c0.416,0.9,0.625,1.867,0.625,2.9
		c0,1.034-0.209,2-0.625,2.9c-0.418,0.9-0.984,1.692-1.7,2.375c-0.718,0.684-1.559,1.217-2.524,1.6
		C173.433,138.034,172.4,138.227,171.3,138.227z M171.3,135.376c1.133,0,2.091-0.45,2.875-1.35c0.782-0.9,1.175-1.982,1.175-3.25
		c0-0.633-0.108-1.225-0.324-1.775c-0.218-0.55-0.518-1.033-0.9-1.45c-0.384-0.417-0.817-0.742-1.301-0.975
		c-0.482-0.233-0.992-0.35-1.524-0.35c-0.567,0-1.093,0.125-1.575,0.375c-0.483,0.25-0.908,0.583-1.275,1
		c-0.367,0.417-0.658,0.9-0.875,1.45c-0.217,0.55-0.324,1.125-0.324,1.725c0,0.634,0.107,1.234,0.324,1.8
		c0.217,0.567,0.508,1.059,0.875,1.475c0.367,0.417,0.792,0.742,1.275,0.975C170.207,135.26,170.732,135.376,171.3,135.376z"/>
</g>
<g>
	<path d="M103.45,206.738c1.032,0.2,1.982,0.559,2.85,1.075c0.866,0.517,1.601,1.159,2.2,1.925c0.6,0.767,1.066,1.65,1.4,2.65
		c0.332,1,0.5,2.083,0.5,3.25c0,1.567-0.293,2.975-0.875,4.225c-0.584,1.25-1.418,2.325-2.5,3.225
		c-1.084,0.9-2.393,1.592-3.926,2.075s-3.25,0.726-5.149,0.726c-2.534,0-4.768-0.443-6.7-1.326c-1.934-0.883-3.483-2.158-4.65-3.824
		l3.351-3.8c0.8,1.234,1.833,2.2,3.1,2.9c1.267,0.7,2.866,1.05,4.8,1.05c2.2,0,3.892-0.467,5.075-1.4
		c1.183-0.934,1.775-2.333,1.775-4.2c0-1.933-0.667-3.45-2-4.55c-1.334-1.1-3.3-1.65-5.9-1.65h-1.35v-4.3h1.5
		c2.232,0,3.95-0.525,5.149-1.575c1.2-1.05,1.801-2.375,1.801-3.975c0-1.6-0.534-2.775-1.601-3.525
		c-1.067-0.75-2.45-1.125-4.149-1.125c-1.7,0-3.2,0.367-4.5,1.1c-1.301,0.734-2.334,1.784-3.101,3.15l-3.45-3.75
		c0.467-0.8,1.101-1.525,1.9-2.175s1.708-1.216,2.725-1.7c1.017-0.482,2.117-0.85,3.301-1.1c1.183-0.25,2.407-0.375,3.675-0.375
		c1.633,0,3.125,0.217,4.475,0.65c1.351,0.434,2.517,1.034,3.5,1.8c0.983,0.767,1.741,1.7,2.275,2.8c0.532,1.1,0.8,2.317,0.8,3.65
		c0,1-0.15,1.95-0.45,2.85c-0.3,0.9-0.725,1.717-1.274,2.45c-0.551,0.734-1.209,1.342-1.976,1.825
		C105.283,206.247,104.416,206.572,103.45,206.738z"/>
	<path d="M140.6,203.888c0,2.2-0.324,4.225-0.975,6.075c-0.65,1.85-1.551,3.45-2.7,4.8s-2.5,2.4-4.05,3.15
		c-1.551,0.75-3.242,1.125-5.075,1.125s-3.534-0.375-5.101-1.125s-2.916-1.8-4.049-3.15c-1.135-1.35-2.025-2.95-2.676-4.8
		c-0.65-1.85-0.975-3.875-0.975-6.075c0-2.2,0.324-4.225,0.975-6.075s1.541-3.45,2.676-4.8c1.133-1.35,2.482-2.408,4.049-3.175
		c1.566-0.766,3.268-1.15,5.101-1.15s3.524,0.384,5.075,1.15c1.55,0.768,2.9,1.825,4.05,3.175s2.05,2.95,2.7,4.8
		S140.6,201.688,140.6,203.888z M135,203.888c0-1.5-0.176-2.867-0.525-4.1c-0.35-1.233-0.85-2.3-1.5-3.2
		c-0.65-0.9-1.417-1.591-2.3-2.075c-0.884-0.483-1.843-0.725-2.875-0.725c-1.101,0-2.093,0.242-2.976,0.725
		c-0.883,0.483-1.649,1.175-2.299,2.075c-0.65,0.9-1.15,1.967-1.5,3.2c-0.351,1.233-0.525,2.6-0.525,4.1s0.175,2.867,0.525,4.1
		c0.35,1.233,0.85,2.292,1.5,3.175c0.649,0.884,1.416,1.567,2.299,2.05c0.883,0.484,1.875,0.725,2.976,0.725
		c1.032,0,1.991-0.241,2.875-0.725c0.883-0.482,1.649-1.166,2.3-2.05c0.65-0.883,1.15-1.941,1.5-3.175
		C134.824,206.755,135,205.388,135,203.888z"/>
	<path d="M152.9,197.388c-1.101,0-2.135-0.191-3.101-0.575c-0.968-0.383-1.809-0.908-2.524-1.575
		c-0.718-0.667-1.284-1.45-1.701-2.35c-0.416-0.9-0.625-1.867-0.625-2.9s0.209-2,0.625-2.9c0.417-0.9,0.983-1.691,1.701-2.375
		c0.716-0.683,1.557-1.216,2.524-1.6c0.966-0.383,2-0.575,3.101-0.575c1.1,0,2.133,0.192,3.1,0.575
		c0.967,0.383,1.808,0.917,2.525,1.6c0.716,0.684,1.282,1.475,1.699,2.375c0.416,0.9,0.625,1.867,0.625,2.9s-0.209,2-0.625,2.9
		c-0.417,0.9-0.983,1.684-1.699,2.35c-0.718,0.667-1.559,1.192-2.525,1.575C155.033,197.197,154,197.388,152.9,197.388z
		 M147.199,216.538l14.051-16.65l13.199-17.15l2.601,2.25l-13.8,16.45l-13.5,17.4L147.199,216.538z M152.9,194.538
		c0.566,0,1.091-0.125,1.574-0.375c0.482-0.25,0.908-0.583,1.275-1c0.366-0.417,0.658-0.9,0.875-1.45
		c0.217-0.55,0.324-1.125,0.324-1.725c0-0.633-0.107-1.233-0.324-1.8c-0.217-0.566-0.509-1.058-0.875-1.475
		c-0.367-0.416-0.801-0.741-1.301-0.975c-0.5-0.233-1.017-0.35-1.549-0.35c-1.135,0-2.093,0.458-2.875,1.375
		c-0.784,0.917-1.176,1.992-1.176,3.225c0,0.633,0.107,1.225,0.325,1.775c0.216,0.55,0.508,1.034,0.875,1.45
		c0.366,0.417,0.792,0.742,1.274,0.975C151.808,194.422,152.332,194.538,152.9,194.538z M171.3,219.038
		c-1.101,0-2.134-0.192-3.101-0.575s-1.809-0.916-2.524-1.6c-0.718-0.683-1.284-1.475-1.7-2.375c-0.417-0.9-0.625-1.867-0.625-2.9
		c0-1.033,0.208-2,0.625-2.9c0.416-0.9,0.982-1.683,1.7-2.35c0.716-0.666,1.558-1.191,2.524-1.575c0.967-0.383,2-0.575,3.101-0.575
		s2.133,0.192,3.101,0.575c0.966,0.383,1.807,0.909,2.524,1.575c0.716,0.667,1.282,1.45,1.7,2.35c0.416,0.9,0.625,1.867,0.625,2.9
		c0,1.034-0.209,2-0.625,2.9c-0.418,0.9-0.984,1.692-1.7,2.375c-0.718,0.684-1.559,1.217-2.524,1.6
		C173.433,218.846,172.4,219.038,171.3,219.038z M171.3,216.188c1.133,0,2.091-0.45,2.875-1.35c0.782-0.9,1.175-1.982,1.175-3.25
		c0-0.633-0.108-1.225-0.324-1.775c-0.218-0.55-0.518-1.033-0.9-1.45c-0.384-0.417-0.817-0.742-1.301-0.975
		c-0.482-0.233-0.992-0.35-1.524-0.35c-0.567,0-1.093,0.125-1.575,0.375c-0.483,0.25-0.908,0.583-1.275,1
		c-0.367,0.417-0.658,0.9-0.875,1.45c-0.217,0.55-0.324,1.125-0.324,1.725c0,0.634,0.107,1.234,0.324,1.8
		c0.217,0.567,0.508,1.059,0.875,1.475c0.367,0.417,0.792,0.742,1.275,0.975C170.207,216.072,170.732,216.188,171.3,216.188z"/>
</g>
<g>
	<path d="M107.35,294.398v4.95h-19.1v-4.95h7.1v-17.449c-0.3,0.399-0.767,0.816-1.399,1.25c-0.634,0.434-1.334,0.833-2.101,1.199
		c-0.767,0.367-1.566,0.676-2.399,0.926c-0.834,0.25-1.567,0.375-2.2,0.375v-5.15c0.666,0,1.441-0.2,2.325-0.6
		c0.883-0.4,1.732-0.867,2.55-1.4c0.816-0.533,1.533-1.066,2.15-1.6c0.616-0.533,0.975-0.917,1.074-1.15H101v23.6H107.35z"/>
	<path d="M136.699,284.699c0,2.199-0.324,4.225-0.975,6.074s-1.55,3.45-2.699,4.801c-1.15,1.35-2.5,2.399-4.051,3.149
		c-1.55,0.75-3.242,1.125-5.074,1.125c-1.834,0-3.534-0.375-5.101-1.125c-1.567-0.75-2.917-1.8-4.05-3.149
		c-1.134-1.351-2.025-2.951-2.676-4.801c-0.649-1.85-0.975-3.875-0.975-6.074c0-2.201,0.325-4.226,0.975-6.076
		c0.65-1.85,1.542-3.449,2.676-4.799c1.133-1.351,2.482-2.408,4.05-3.176c1.566-0.766,3.267-1.15,5.101-1.15
		c1.832,0,3.524,0.385,5.074,1.15c1.551,0.768,2.9,1.825,4.051,3.176c1.149,1.35,2.049,2.949,2.699,4.799
		C136.375,280.474,136.699,282.498,136.699,284.699z M131.1,284.699c0-1.5-0.175-2.867-0.525-4.101c-0.35-1.233-0.85-2.3-1.5-3.2
		c-0.649-0.9-1.416-1.592-2.299-2.074c-0.885-0.483-1.843-0.726-2.875-0.726c-1.101,0-2.093,0.242-2.976,0.726
		c-0.884,0.482-1.649,1.174-2.3,2.074s-1.15,1.967-1.5,3.2s-0.525,2.601-0.525,4.101s0.176,2.867,0.525,4.1
		c0.35,1.233,0.85,2.292,1.5,3.175c0.65,0.884,1.416,1.567,2.3,2.05c0.883,0.484,1.875,0.725,2.976,0.725
		c1.032,0,1.99-0.24,2.875-0.725c0.883-0.482,1.649-1.166,2.299-2.05c0.65-0.883,1.15-1.941,1.5-3.175
		C130.925,287.566,131.1,286.199,131.1,284.699z"/>
	<path d="M149,278.199c-1.101,0-2.135-0.191-3.101-0.576c-0.968-0.383-1.809-0.907-2.524-1.574c-0.718-0.666-1.284-1.45-1.701-2.35
		c-0.416-0.9-0.625-1.867-0.625-2.9s0.209-2,0.625-2.9c0.417-0.9,0.983-1.691,1.701-2.375c0.716-0.683,1.557-1.217,2.524-1.6
		c0.966-0.383,2-0.575,3.101-0.575c1.1,0,2.133,0.192,3.1,0.575s1.808,0.917,2.525,1.6c0.716,0.684,1.282,1.475,1.699,2.375
		c0.416,0.9,0.625,1.867,0.625,2.9s-0.209,2-0.625,2.9c-0.417,0.899-0.983,1.684-1.699,2.35c-0.718,0.667-1.559,1.191-2.525,1.574
		C151.133,278.008,150.1,278.199,149,278.199z M143.299,297.349l14.051-16.649l13.199-17.15l2.601,2.25l-13.8,16.449l-13.5,17.4
		L143.299,297.349z M149,275.349c0.566,0,1.091-0.125,1.574-0.375c0.482-0.25,0.908-0.583,1.275-1
		c0.366-0.417,0.658-0.899,0.875-1.45c0.217-0.55,0.324-1.125,0.324-1.725c0-0.633-0.107-1.232-0.324-1.801
		c-0.217-0.566-0.509-1.057-0.875-1.475c-0.367-0.416-0.801-0.741-1.301-0.975c-0.5-0.232-1.017-0.35-1.549-0.35
		c-1.135,0-2.093,0.458-2.875,1.375c-0.784,0.916-1.176,1.992-1.176,3.225c0,0.633,0.107,1.225,0.325,1.775
		c0.216,0.549,0.508,1.033,0.875,1.449c0.366,0.418,0.792,0.742,1.274,0.975C147.907,275.232,148.432,275.349,149,275.349z
		 M167.399,299.849c-1.101,0-2.134-0.192-3.101-0.575s-1.809-0.916-2.524-1.6c-0.718-0.684-1.284-1.475-1.7-2.375
		c-0.417-0.9-0.625-1.867-0.625-2.9s0.208-2,0.625-2.9c0.416-0.899,0.982-1.682,1.7-2.35c0.716-0.666,1.558-1.191,2.524-1.574
		s2-0.576,3.101-0.576s2.133,0.193,3.101,0.576c0.966,0.383,1.807,0.908,2.524,1.574c0.716,0.668,1.282,1.45,1.7,2.35
		c0.416,0.9,0.625,1.867,0.625,2.9s-0.209,2-0.625,2.9c-0.418,0.9-0.984,1.691-1.7,2.375c-0.718,0.684-1.559,1.217-2.524,1.6
		C169.532,299.656,168.5,299.849,167.399,299.849z M167.399,296.998c1.133,0,2.091-0.449,2.875-1.35
		c0.782-0.9,1.175-1.982,1.175-3.25c0-0.633-0.108-1.225-0.324-1.775c-0.218-0.549-0.518-1.032-0.9-1.449
		c-0.384-0.416-0.817-0.742-1.301-0.975c-0.482-0.233-0.992-0.351-1.524-0.351c-0.567,0-1.093,0.125-1.575,0.375
		c-0.483,0.25-0.908,0.583-1.275,1s-0.658,0.899-0.875,1.45c-0.217,0.55-0.324,1.125-0.324,1.725c0,0.634,0.107,1.234,0.324,1.801
		s0.508,1.059,0.875,1.475c0.367,0.417,0.792,0.742,1.275,0.975C166.307,296.883,166.832,296.998,167.399,296.998z"/>
</g>
<g>
	<path d="M107.35,375.209v4.95h-19.1v-4.95h7.1V357.76c-0.3,0.399-0.767,0.816-1.399,1.25c-0.634,0.434-1.334,0.833-2.101,1.199
		c-0.767,0.367-1.566,0.676-2.399,0.926c-0.834,0.25-1.567,0.375-2.2,0.375v-5.15c0.666,0,1.441-0.2,2.325-0.6
		c0.883-0.4,1.732-0.867,2.55-1.4c0.816-0.533,1.533-1.066,2.15-1.6c0.616-0.533,0.975-0.917,1.074-1.15H101v23.6H107.35z"/>
	<path d="M136.699,365.51c0,2.199-0.324,4.225-0.975,6.074s-1.55,3.45-2.699,4.801c-1.15,1.35-2.5,2.399-4.051,3.149
		c-1.55,0.75-3.242,1.125-5.074,1.125c-1.834,0-3.534-0.375-5.101-1.125c-1.567-0.75-2.917-1.8-4.05-3.149
		c-1.134-1.351-2.025-2.951-2.676-4.801c-0.649-1.85-0.975-3.875-0.975-6.074c0-2.201,0.325-4.226,0.975-6.076
		c0.65-1.85,1.542-3.449,2.676-4.799c1.133-1.351,2.482-2.408,4.05-3.176c1.566-0.766,3.267-1.15,5.101-1.15
		c1.832,0,3.524,0.385,5.074,1.15c1.551,0.768,2.9,1.825,4.051,3.176c1.149,1.35,2.049,2.949,2.699,4.799
		C136.375,361.284,136.699,363.309,136.699,365.51z M131.1,365.51c0-1.5-0.175-2.867-0.525-4.101c-0.35-1.233-0.85-2.3-1.5-3.2
		c-0.649-0.9-1.416-1.592-2.299-2.074c-0.885-0.483-1.843-0.726-2.875-0.726c-1.101,0-2.093,0.242-2.976,0.726
		c-0.884,0.482-1.649,1.174-2.3,2.074s-1.15,1.967-1.5,3.2s-0.525,2.601-0.525,4.101s0.176,2.867,0.525,4.1
		c0.35,1.233,0.85,2.292,1.5,3.175c0.65,0.884,1.416,1.567,2.3,2.05c0.883,0.484,1.875,0.725,2.976,0.725
		c1.032,0,1.99-0.24,2.875-0.725c0.883-0.482,1.649-1.166,2.299-2.05c0.65-0.883,1.15-1.941,1.5-3.175
		C130.925,368.377,131.1,367.01,131.1,365.51z"/>
	<path d="M149,359.01c-1.101,0-2.135-0.191-3.101-0.576c-0.968-0.383-1.809-0.907-2.524-1.574c-0.718-0.666-1.284-1.45-1.701-2.35
		c-0.416-0.9-0.625-1.867-0.625-2.9s0.209-2,0.625-2.9c0.417-0.9,0.983-1.691,1.701-2.375c0.716-0.683,1.557-1.217,2.524-1.6
		c0.966-0.383,2-0.575,3.101-0.575c1.1,0,2.133,0.192,3.1,0.575s1.808,0.917,2.525,1.6c0.716,0.684,1.282,1.475,1.699,2.375
		c0.416,0.9,0.625,1.867,0.625,2.9s-0.209,2-0.625,2.9c-0.417,0.899-0.983,1.684-1.699,2.35c-0.718,0.667-1.559,1.191-2.525,1.574
		C151.133,358.818,150.1,359.01,149,359.01z M143.299,378.159l14.051-16.649l13.199-17.15l2.601,2.25l-13.8,16.449l-13.5,17.4
		L143.299,378.159z M149,356.159c0.566,0,1.091-0.125,1.574-0.375c0.482-0.25,0.908-0.583,1.275-1
		c0.366-0.417,0.658-0.899,0.875-1.45c0.217-0.55,0.324-1.125,0.324-1.725c0-0.633-0.107-1.232-0.324-1.801
		c-0.217-0.566-0.509-1.057-0.875-1.475c-0.367-0.416-0.801-0.741-1.301-0.975c-0.5-0.232-1.017-0.35-1.549-0.35
		c-1.135,0-2.093,0.458-2.875,1.375c-0.784,0.916-1.176,1.992-1.176,3.225c0,0.633,0.107,1.225,0.325,1.775
		c0.216,0.549,0.508,1.033,0.875,1.449c0.366,0.418,0.792,0.742,1.274,0.975C147.907,356.043,148.432,356.159,149,356.159z
		 M167.399,380.659c-1.101,0-2.134-0.192-3.101-0.575s-1.809-0.916-2.524-1.6c-0.718-0.684-1.284-1.475-1.7-2.375
		c-0.417-0.9-0.625-1.867-0.625-2.9s0.208-2,0.625-2.9c0.416-0.899,0.982-1.682,1.7-2.35c0.716-0.666,1.558-1.191,2.524-1.574
		s2-0.576,3.101-0.576s2.133,0.193,3.101,0.576c0.966,0.383,1.807,0.908,2.524,1.574c0.716,0.668,1.282,1.45,1.7,2.35
		c0.416,0.9,0.625,1.867,0.625,2.9s-0.209,2-0.625,2.9c-0.418,0.9-0.984,1.691-1.7,2.375c-0.718,0.684-1.559,1.217-2.524,1.6
		C169.532,380.467,168.5,380.659,167.399,380.659z M167.399,377.809c1.133,0,2.091-0.449,2.875-1.35
		c0.782-0.9,1.175-1.982,1.175-3.25c0-0.633-0.108-1.225-0.324-1.775c-0.218-0.549-0.518-1.032-0.9-1.449
		c-0.384-0.416-0.817-0.742-1.301-0.975c-0.482-0.233-0.992-0.351-1.524-0.351c-0.567,0-1.093,0.125-1.575,0.375
		c-0.483,0.25-0.908,0.583-1.275,1s-0.658,0.899-0.875,1.45c-0.217,0.55-0.324,1.125-0.324,1.725c0,0.634,0.107,1.234,0.324,1.801
		s0.508,1.059,0.875,1.475c0.367,0.417,0.792,0.742,1.275,0.975C166.307,377.693,166.832,377.809,167.399,377.809z"/>
</g>
<g>
	<path fill="#D2D2D2" d="M48.89,130.542c0,1.864-0.38,3.532-1.138,5.005c-0.759,1.474-1.777,2.72-3.055,3.738
		c-1.278,1.019-2.785,1.798-4.518,2.34c-1.733,0.542-3.575,0.812-5.525,0.812H12.62v-46.15h23.79c1.603,0,3.055,0.347,4.355,1.04
		c1.3,0.693,2.405,1.592,3.315,2.697c0.91,1.105,1.614,2.362,2.112,3.77c0.498,1.409,0.748,2.828,0.748,4.258
		c0,2.253-0.575,4.366-1.723,6.337c-1.148,1.972-2.785,3.435-4.907,4.387c2.643,0.78,4.734,2.2,6.272,4.258
		C48.12,125.093,48.89,127.595,48.89,130.542z M19.9,102.591v13.585h13.39c0.91,0,1.744-0.173,2.502-0.52
		c0.758-0.347,1.43-0.812,2.015-1.398c0.585-0.585,1.04-1.289,1.365-2.112c0.325-0.823,0.488-1.732,0.488-2.73
		c0-1.993-0.564-3.629-1.69-4.908c-1.127-1.277-2.557-1.917-4.29-1.917H19.9z M41.415,129.177c0-0.953-0.163-1.863-0.488-2.73
		c-0.325-0.866-0.758-1.625-1.3-2.275c-0.542-0.65-1.203-1.17-1.982-1.56c-0.78-0.39-1.625-0.585-2.535-0.585H19.9v14.105h14.755
		c0.953,0,1.841-0.184,2.665-0.552c0.823-0.368,1.538-0.866,2.145-1.495c0.606-0.627,1.083-1.365,1.43-2.21
		C41.241,131.029,41.415,130.13,41.415,129.177z"/>
</g>
<g>
	<path fill="#D2D2D2" d="M9.47,199.848c0-2.773,0.498-5.535,1.495-8.288c0.996-2.751,2.459-5.221,4.388-7.41
		c1.927-2.188,4.279-3.954,7.052-5.297c2.772-1.343,5.915-2.015,9.425-2.015c4.203,0,7.8,0.933,10.79,2.795
		c2.99,1.864,5.243,4.29,6.76,7.28l-5.72,3.835c-0.65-1.386-1.43-2.556-2.34-3.51c-0.91-0.953-1.907-1.711-2.99-2.275
		c-1.083-0.562-2.21-0.964-3.38-1.202c-1.17-0.238-2.297-0.358-3.38-0.358c-2.427,0-4.55,0.488-6.37,1.463
		c-1.82,0.975-3.347,2.265-4.583,3.867c-1.235,1.604-2.167,3.402-2.795,5.395c-0.628,1.994-0.942,3.987-0.942,5.98
		c0,2.254,0.368,4.399,1.105,6.435c0.736,2.038,1.765,3.835,3.087,5.395c1.321,1.56,2.893,2.806,4.712,3.738
		c1.82,0.932,3.813,1.397,5.98,1.397c1.126,0,2.285-0.14,3.478-0.423c1.191-0.281,2.34-0.736,3.445-1.365
		c1.105-0.628,2.123-1.419,3.055-2.373c0.932-0.953,1.7-2.102,2.308-3.445l6.045,3.445c-0.737,1.733-1.777,3.261-3.12,4.583
		c-1.343,1.322-2.86,2.438-4.55,3.348c-1.69,0.91-3.478,1.604-5.362,2.08c-1.885,0.477-3.738,0.716-5.558,0.716
		c-3.25,0-6.219-0.693-8.905-2.081c-2.687-1.386-5.005-3.195-6.955-5.428c-1.95-2.231-3.468-4.766-4.55-7.605
		C10.011,205.688,9.47,202.795,9.47,199.848z"/>
</g>
<g>
	<path fill="#D2D2D2" d="M11.595,304.06V257.91h16.38c3.726,0,6.987,0.607,9.782,1.819c2.795,1.214,5.135,2.86,7.02,4.94
		c1.885,2.08,3.304,4.518,4.258,7.312c0.953,2.795,1.43,5.774,1.43,8.938c0,3.51-0.531,6.685-1.592,9.521
		c-1.062,2.84-2.567,5.266-4.518,7.281c-1.95,2.015-4.312,3.574-7.085,4.68c-2.773,1.104-5.873,1.657-9.295,1.657H11.595z
		 M43.055,280.92c0-2.427-0.336-4.658-1.008-6.695c-0.672-2.036-1.657-3.78-2.958-5.232c-1.3-1.451-2.882-2.589-4.745-3.412
		c-1.864-0.823-3.987-1.235-6.37-1.235h-9.1v33.28h9.1c2.426,0,4.583-0.423,6.467-1.268c1.885-0.846,3.466-2.016,4.745-3.51
		c1.278-1.496,2.243-3.261,2.893-5.298C42.73,285.514,43.055,283.303,43.055,280.92z"/>
</g>
<g>
	<path fill="#D2D2D2" d="M15.57,384.87v-46.149h30.745v6.435H22.85v13.78h19.63v6.045H22.85v19.89H15.57z"/>
</g>
</svg>
