<?xml version="1.0" encoding="utf-8" standalone="no"?>
<!DOCTYPE svg PUBLIC "-//W3C//DTD SVG 1.1//EN"
  "http://www.w3.org/Graphics/SVG/1.1/DTD/svg11.dtd">
<!-- Created with matplotlib (http://matplotlib.org/) -->
<svg height="288pt" version="1.1" viewBox="0 0 432 288" width="432pt" xmlns="http://www.w3.org/2000/svg" xmlns:xlink="http://www.w3.org/1999/xlink">
 <defs>
  <style type="text/css">
*{stroke-linecap:butt;stroke-linejoin:round;}
  </style>
 </defs>
 <g id="figure_1">
  <g id="patch_1">
   <path d="M 0 288 
L 432 288 
L 432 0 
L 0 0 
z
" style="fill:none;"/>
  </g>
  <g id="axes_1">
   <g id="patch_2">
    <path d="M 21.6 250.56 
L 410.4 250.56 
L 410.4 43.2 
L 21.6 43.2 
z
" style="fill:none;"/>
   </g>
   <g id="matplotlib.axis_1">
    <g id="xtick_1">
     <g id="line2d_1">
      <defs>
       <path d="M 0 0 
L 0 4 
" id="m281f22c897" style="stroke:#d2d2d2;"/>
      </defs>
      <g>
       <use style="fill:#d2d2d2;stroke:#d2d2d2;" x="29.263395" xlink:href="#m281f22c897" y="250.56"/>
      </g>
     </g>
     <g id="text_1">
      <!-- 0.2 -->
      <defs>
       <path d="M 31.78125 66.40625 
Q 24.171875 66.40625 20.328125 58.90625 
Q 16.5 51.421875 16.5 36.375 
Q 16.5 21.390625 20.328125 13.890625 
Q 24.171875 6.390625 31.78125 6.390625 
Q 39.453125 6.390625 43.28125 13.890625 
Q 47.125 21.390625 47.125 36.375 
Q 47.125 51.421875 43.28125 58.90625 
Q 39.453125 66.40625 31.78125 66.40625 
M 31.78125 74.21875 
Q 44.046875 74.21875 50.515625 64.515625 
Q 56.984375 54.828125 56.984375 36.375 
Q 56.984375 17.96875 50.515625 8.265625 
Q 44.046875 -1.421875 31.78125 -1.421875 
Q 19.53125 -1.421875 13.0625 8.265625 
Q 6.59375 17.96875 6.59375 36.375 
Q 6.59375 54.828125 13.0625 64.515625 
Q 19.53125 74.21875 31.78125 74.21875 
" id="DejaVuSans-30"/>
       <path d="M 10.6875 12.40625 
L 21 12.40625 
L 21 0 
L 10.6875 0 
z
" id="DejaVuSans-2e"/>
       <path d="M 19.1875 8.296875 
L 53.609375 8.296875 
L 53.609375 0 
L 7.328125 0 
L 7.328125 8.296875 
Q 12.9375 14.109375 22.625 23.890625 
Q 32.328125 33.6875 34.8125 36.53125 
Q 39.546875 41.84375 41.421875 45.53125 
Q 43.3125 49.21875 43.3125 52.78125 
Q 43.3125 58.59375 39.234375 62.25 
Q 35.15625 65.921875 28.609375 65.921875 
Q 23.96875 65.921875 18.8125 64.3125 
Q 13.671875 62.703125 7.8125 59.421875 
L 7.8125 69.390625 
Q 13.765625 71.78125 18.9375 73 
Q 24.125 74.21875 28.421875 74.21875 
Q 39.75 74.21875 46.484375 68.546875 
Q 53.21875 62.890625 53.21875 53.421875 
Q 53.21875 48.921875 51.53125 44.890625 
Q 49.859375 40.875 45.40625 35.40625 
Q 44.1875 33.984375 37.640625 27.21875 
Q 31.109375 20.453125 19.1875 8.296875 
" id="DejaVuSans-32"/>
      </defs>
      <g style="fill:#d2d2d2;" transform="translate(18.926364 268.437969)scale(0.13 -0.13)">
       <use xlink:href="#DejaVuSans-30"/>
       <use x="63.623047" xlink:href="#DejaVuSans-2e"/>
       <use x="95.410156" xlink:href="#DejaVuSans-32"/>
      </g>
     </g>
    </g>
    <g id="xtick_2">
     <g id="line2d_2">
      <g>
       <use style="fill:#d2d2d2;stroke:#d2d2d2;" x="107.148512" xlink:href="#m281f22c897" y="250.56"/>
      </g>
     </g>
     <g id="text_2">
      <!-- 0.3 -->
      <defs>
       <path d="M 40.578125 39.3125 
Q 47.65625 37.796875 51.625 33 
Q 55.609375 28.21875 55.609375 21.1875 
Q 55.609375 10.40625 48.1875 4.484375 
Q 40.765625 -1.421875 27.09375 -1.421875 
Q 22.515625 -1.421875 17.65625 -0.515625 
Q 12.796875 0.390625 7.625 2.203125 
L 7.625 11.71875 
Q 11.71875 9.328125 16.59375 8.109375 
Q 21.484375 6.890625 26.8125 6.890625 
Q 36.078125 6.890625 40.9375 10.546875 
Q 45.796875 14.203125 45.796875 21.1875 
Q 45.796875 27.640625 41.28125 31.265625 
Q 36.765625 34.90625 28.71875 34.90625 
L 20.21875 34.90625 
L 20.21875 43.015625 
L 29.109375 43.015625 
Q 36.375 43.015625 40.234375 45.921875 
Q 44.09375 48.828125 44.09375 54.296875 
Q 44.09375 59.90625 40.109375 62.90625 
Q 36.140625 65.921875 28.71875 65.921875 
Q 24.65625 65.921875 20.015625 65.03125 
Q 15.375 64.15625 9.8125 62.3125 
L 9.8125 71.09375 
Q 15.4375 72.65625 20.34375 73.4375 
Q 25.25 74.21875 29.59375 74.21875 
Q 40.828125 74.21875 47.359375 69.109375 
Q 53.90625 64.015625 53.90625 55.328125 
Q 53.90625 49.265625 50.4375 45.09375 
Q 46.96875 40.921875 40.578125 39.3125 
" id="DejaVuSans-33"/>
      </defs>
      <g style="fill:#d2d2d2;" transform="translate(96.81148 268.437969)scale(0.13 -0.13)">
       <use xlink:href="#DejaVuSans-30"/>
       <use x="63.623047" xlink:href="#DejaVuSans-2e"/>
       <use x="95.410156" xlink:href="#DejaVuSans-33"/>
      </g>
     </g>
    </g>
    <g id="xtick_3">
     <g id="line2d_3">
      <g>
       <use style="fill:#d2d2d2;stroke:#d2d2d2;" x="185.033628" xlink:href="#m281f22c897" y="250.56"/>
      </g>
     </g>
     <g id="text_3">
      <!-- 0.4 -->
      <defs>
       <path d="M 37.796875 64.3125 
L 12.890625 25.390625 
L 37.796875 25.390625 
z
M 35.203125 72.90625 
L 47.609375 72.90625 
L 47.609375 25.390625 
L 58.015625 25.390625 
L 58.015625 17.1875 
L 47.609375 17.1875 
L 47.609375 0 
L 37.796875 0 
L 37.796875 17.1875 
L 4.890625 17.1875 
L 4.890625 26.703125 
z
" id="DejaVuSans-34"/>
      </defs>
      <g style="fill:#d2d2d2;" transform="translate(174.696597 268.437969)scale(0.13 -0.13)">
       <use xlink:href="#DejaVuSans-30"/>
       <use x="63.623047" xlink:href="#DejaVuSans-2e"/>
       <use x="95.410156" xlink:href="#DejaVuSans-34"/>
      </g>
     </g>
    </g>
    <g id="xtick_4">
     <g id="line2d_4">
      <g>
       <use style="fill:#d2d2d2;stroke:#d2d2d2;" x="262.918745" xlink:href="#m281f22c897" y="250.56"/>
      </g>
     </g>
     <g id="text_4">
      <!-- 0.5 -->
      <defs>
       <path d="M 10.796875 72.90625 
L 49.515625 72.90625 
L 49.515625 64.59375 
L 19.828125 64.59375 
L 19.828125 46.734375 
Q 21.96875 47.46875 24.109375 47.828125 
Q 26.265625 48.1875 28.421875 48.1875 
Q 40.625 48.1875 47.75 41.5 
Q 54.890625 34.8125 54.890625 23.390625 
Q 54.890625 11.625 47.5625 5.09375 
Q 40.234375 -1.421875 26.90625 -1.421875 
Q 22.3125 -1.421875 17.546875 -0.640625 
Q 12.796875 0.140625 7.71875 1.703125 
L 7.71875 11.625 
Q 12.109375 9.234375 16.796875 8.0625 
Q 21.484375 6.890625 26.703125 6.890625 
Q 35.15625 6.890625 40.078125 11.328125 
Q 45.015625 15.765625 45.015625 23.390625 
Q 45.015625 31 40.078125 35.4375 
Q 35.15625 39.890625 26.703125 39.890625 
Q 22.75 39.890625 18.8125 39.015625 
Q 14.890625 38.140625 10.796875 36.28125 
z
" id="DejaVuSans-35"/>
      </defs>
      <g style="fill:#d2d2d2;" transform="translate(252.581714 268.437969)scale(0.13 -0.13)">
       <use xlink:href="#DejaVuSans-30"/>
       <use x="63.623047" xlink:href="#DejaVuSans-2e"/>
       <use x="95.410156" xlink:href="#DejaVuSans-35"/>
      </g>
     </g>
    </g>
    <g id="xtick_5">
     <g id="line2d_5">
      <g>
       <use style="fill:#d2d2d2;stroke:#d2d2d2;" x="340.803862" xlink:href="#m281f22c897" y="250.56"/>
      </g>
     </g>
     <g id="text_5">
      <!-- 0.6 -->
      <defs>
       <path d="M 33.015625 40.375 
Q 26.375 40.375 22.484375 35.828125 
Q 18.609375 31.296875 18.609375 23.390625 
Q 18.609375 15.53125 22.484375 10.953125 
Q 26.375 6.390625 33.015625 6.390625 
Q 39.65625 6.390625 43.53125 10.953125 
Q 47.40625 15.53125 47.40625 23.390625 
Q 47.40625 31.296875 43.53125 35.828125 
Q 39.65625 40.375 33.015625 40.375 
M 52.59375 71.296875 
L 52.59375 62.3125 
Q 48.875 64.0625 45.09375 64.984375 
Q 41.3125 65.921875 37.59375 65.921875 
Q 27.828125 65.921875 22.671875 59.328125 
Q 17.53125 52.734375 16.796875 39.40625 
Q 19.671875 43.65625 24.015625 45.921875 
Q 28.375 48.1875 33.59375 48.1875 
Q 44.578125 48.1875 50.953125 41.515625 
Q 57.328125 34.859375 57.328125 23.390625 
Q 57.328125 12.15625 50.6875 5.359375 
Q 44.046875 -1.421875 33.015625 -1.421875 
Q 20.359375 -1.421875 13.671875 8.265625 
Q 6.984375 17.96875 6.984375 36.375 
Q 6.984375 53.65625 15.1875 63.9375 
Q 23.390625 74.21875 37.203125 74.21875 
Q 40.921875 74.21875 44.703125 73.484375 
Q 48.484375 72.75 52.59375 71.296875 
" id="DejaVuSans-36"/>
      </defs>
      <g style="fill:#d2d2d2;" transform="translate(330.46683 268.437969)scale(0.13 -0.13)">
       <use xlink:href="#DejaVuSans-30"/>
       <use x="63.623047" xlink:href="#DejaVuSans-2e"/>
       <use x="95.410156" xlink:href="#DejaVuSans-36"/>
      </g>
     </g>
    </g>
    <g id="text_6">
     <!-- statistic -->
     <defs>
      <path d="M 44.28125 53.078125 
L 44.28125 44.578125 
Q 40.484375 46.53125 36.375 47.5 
Q 32.28125 48.484375 27.875 48.484375 
Q 21.1875 48.484375 17.84375 46.4375 
Q 14.5 44.390625 14.5 40.28125 
Q 14.5 37.15625 16.890625 35.375 
Q 19.28125 33.59375 26.515625 31.984375 
L 29.59375 31.296875 
Q 39.15625 29.25 43.1875 25.515625 
Q 47.21875 21.78125 47.21875 15.09375 
Q 47.21875 7.46875 41.1875 3.015625 
Q 35.15625 -1.421875 24.609375 -1.421875 
Q 20.21875 -1.421875 15.453125 -0.5625 
Q 10.6875 0.296875 5.421875 2 
L 5.421875 11.28125 
Q 10.40625 8.6875 15.234375 7.390625 
Q 20.0625 6.109375 24.8125 6.109375 
Q 31.15625 6.109375 34.5625 8.28125 
Q 37.984375 10.453125 37.984375 14.40625 
Q 37.984375 18.0625 35.515625 20.015625 
Q 33.0625 21.96875 24.703125 23.78125 
L 21.578125 24.515625 
Q 13.234375 26.265625 9.515625 29.90625 
Q 5.8125 33.546875 5.8125 39.890625 
Q 5.8125 47.609375 11.28125 51.796875 
Q 16.75 56 26.8125 56 
Q 31.78125 56 36.171875 55.265625 
Q 40.578125 54.546875 44.28125 53.078125 
" id="DejaVuSans-73"/>
      <path d="M 18.3125 70.21875 
L 18.3125 54.6875 
L 36.8125 54.6875 
L 36.8125 47.703125 
L 18.3125 47.703125 
L 18.3125 18.015625 
Q 18.3125 11.328125 20.140625 9.421875 
Q 21.96875 7.515625 27.59375 7.515625 
L 36.8125 7.515625 
L 36.8125 0 
L 27.59375 0 
Q 17.1875 0 13.234375 3.875 
Q 9.28125 7.765625 9.28125 18.015625 
L 9.28125 47.703125 
L 2.6875 47.703125 
L 2.6875 54.6875 
L 9.28125 54.6875 
L 9.28125 70.21875 
z
" id="DejaVuSans-74"/>
      <path d="M 34.28125 27.484375 
Q 23.390625 27.484375 19.1875 25 
Q 14.984375 22.515625 14.984375 16.5 
Q 14.984375 11.71875 18.140625 8.90625 
Q 21.296875 6.109375 26.703125 6.109375 
Q 34.1875 6.109375 38.703125 11.40625 
Q 43.21875 16.703125 43.21875 25.484375 
L 43.21875 27.484375 
z
M 52.203125 31.203125 
L 52.203125 0 
L 43.21875 0 
L 43.21875 8.296875 
Q 40.140625 3.328125 35.546875 0.953125 
Q 30.953125 -1.421875 24.3125 -1.421875 
Q 15.921875 -1.421875 10.953125 3.296875 
Q 6 8.015625 6 15.921875 
Q 6 25.140625 12.171875 29.828125 
Q 18.359375 34.515625 30.609375 34.515625 
L 43.21875 34.515625 
L 43.21875 35.40625 
Q 43.21875 41.609375 39.140625 45 
Q 35.0625 48.390625 27.6875 48.390625 
Q 23 48.390625 18.546875 47.265625 
Q 14.109375 46.140625 10.015625 43.890625 
L 10.015625 52.203125 
Q 14.9375 54.109375 19.578125 55.046875 
Q 24.21875 56 28.609375 56 
Q 40.484375 56 46.34375 49.84375 
Q 52.203125 43.703125 52.203125 31.203125 
" id="DejaVuSans-61"/>
      <path d="M 9.421875 54.6875 
L 18.40625 54.6875 
L 18.40625 0 
L 9.421875 0 
z
M 9.421875 75.984375 
L 18.40625 75.984375 
L 18.40625 64.59375 
L 9.421875 64.59375 
z
" id="DejaVuSans-69"/>
      <path d="M 48.78125 52.59375 
L 48.78125 44.1875 
Q 44.96875 46.296875 41.140625 47.34375 
Q 37.3125 48.390625 33.40625 48.390625 
Q 24.65625 48.390625 19.8125 42.84375 
Q 14.984375 37.3125 14.984375 27.296875 
Q 14.984375 17.28125 19.8125 11.734375 
Q 24.65625 6.203125 33.40625 6.203125 
Q 37.3125 6.203125 41.140625 7.25 
Q 44.96875 8.296875 48.78125 10.40625 
L 48.78125 2.09375 
Q 45.015625 0.34375 40.984375 -0.53125 
Q 36.96875 -1.421875 32.421875 -1.421875 
Q 20.0625 -1.421875 12.78125 6.34375 
Q 5.515625 14.109375 5.515625 27.296875 
Q 5.515625 40.671875 12.859375 48.328125 
Q 20.21875 56 33.015625 56 
Q 37.15625 56 41.109375 55.140625 
Q 45.0625 54.296875 48.78125 52.59375 
" id="DejaVuSans-63"/>
     </defs>
     <g style="fill:#d2d2d2;" transform="translate(188.44625 285.779375)scale(0.14 -0.14)">
      <use xlink:href="#DejaVuSans-73"/>
      <use x="52.099609" xlink:href="#DejaVuSans-74"/>
      <use x="91.308594" xlink:href="#DejaVuSans-61"/>
      <use x="152.587891" xlink:href="#DejaVuSans-74"/>
      <use x="191.796875" xlink:href="#DejaVuSans-69"/>
      <use x="219.580078" xlink:href="#DejaVuSans-73"/>
      <use x="271.679688" xlink:href="#DejaVuSans-74"/>
      <use x="310.888672" xlink:href="#DejaVuSans-69"/>
      <use x="338.671875" xlink:href="#DejaVuSans-63"/>
     </g>
    </g>
   </g>
   <g id="matplotlib.axis_2"/>
   <g id="line2d_6">
    <path clip-path="url(#p0e9f672656)" d="M 311.401448 250.56 
L 311.401448 43.2 
" style="fill:none;stroke:#f0ad4e;stroke-linecap:square;stroke-width:2;"/>
   </g>
   <g id="patch_3">
    <path d="M 21.6 250.56 
L 410.4 250.56 
" style="fill:none;stroke:#d2d2d2;stroke-linecap:square;stroke-linejoin:miter;"/>
   </g>
   <g id="text_7">
    <!-- Observed -->
    <defs>
     <path d="M 39.40625 66.21875 
Q 28.65625 66.21875 22.328125 58.203125 
Q 16.015625 50.203125 16.015625 36.375 
Q 16.015625 22.609375 22.328125 14.59375 
Q 28.65625 6.59375 39.40625 6.59375 
Q 50.140625 6.59375 56.421875 14.59375 
Q 62.703125 22.609375 62.703125 36.375 
Q 62.703125 50.203125 56.421875 58.203125 
Q 50.140625 66.21875 39.40625 66.21875 
M 39.40625 74.21875 
Q 54.734375 74.21875 63.90625 63.9375 
Q 73.09375 53.65625 73.09375 36.375 
Q 73.09375 19.140625 63.90625 8.859375 
Q 54.734375 -1.421875 39.40625 -1.421875 
Q 24.03125 -1.421875 14.8125 8.828125 
Q 5.609375 19.09375 5.609375 36.375 
Q 5.609375 53.65625 14.8125 63.9375 
Q 24.03125 74.21875 39.40625 74.21875 
" id="DejaVuSans-4f"/>
     <path d="M 48.6875 27.296875 
Q 48.6875 37.203125 44.609375 42.84375 
Q 40.53125 48.484375 33.40625 48.484375 
Q 26.265625 48.484375 22.1875 42.84375 
Q 18.109375 37.203125 18.109375 27.296875 
Q 18.109375 17.390625 22.1875 11.75 
Q 26.265625 6.109375 33.40625 6.109375 
Q 40.53125 6.109375 44.609375 11.75 
Q 48.6875 17.390625 48.6875 27.296875 
M 18.109375 46.390625 
Q 20.953125 51.265625 25.265625 53.625 
Q 29.59375 56 35.59375 56 
Q 45.5625 56 51.78125 48.09375 
Q 58.015625 40.1875 58.015625 27.296875 
Q 58.015625 14.40625 51.78125 6.484375 
Q 45.5625 -1.421875 35.59375 -1.421875 
Q 29.59375 -1.421875 25.265625 0.953125 
Q 20.953125 3.328125 18.109375 8.203125 
L 18.109375 0 
L 9.078125 0 
L 9.078125 75.984375 
L 18.109375 75.984375 
z
" id="DejaVuSans-62"/>
     <path d="M 56.203125 29.59375 
L 56.203125 25.203125 
L 14.890625 25.203125 
Q 15.484375 15.921875 20.484375 11.0625 
Q 25.484375 6.203125 34.421875 6.203125 
Q 39.59375 6.203125 44.453125 7.46875 
Q 49.3125 8.734375 54.109375 11.28125 
L 54.109375 2.78125 
Q 49.265625 0.734375 44.1875 -0.34375 
Q 39.109375 -1.421875 33.890625 -1.421875 
Q 20.796875 -1.421875 13.15625 6.1875 
Q 5.515625 13.8125 5.515625 26.8125 
Q 5.515625 40.234375 12.765625 48.109375 
Q 20.015625 56 32.328125 56 
Q 43.359375 56 49.78125 48.890625 
Q 56.203125 41.796875 56.203125 29.59375 
M 47.21875 32.234375 
Q 47.125 39.59375 43.09375 43.984375 
Q 39.0625 48.390625 32.421875 48.390625 
Q 24.90625 48.390625 20.390625 44.140625 
Q 15.875 39.890625 15.1875 32.171875 
z
" id="DejaVuSans-65"/>
     <path d="M 41.109375 46.296875 
Q 39.59375 47.171875 37.8125 47.578125 
Q 36.03125 48 33.890625 48 
Q 26.265625 48 22.1875 43.046875 
Q 18.109375 38.09375 18.109375 28.8125 
L 18.109375 0 
L 9.078125 0 
L 9.078125 54.6875 
L 18.109375 54.6875 
L 18.109375 46.1875 
Q 20.953125 51.171875 25.484375 53.578125 
Q 30.03125 56 36.53125 56 
Q 37.453125 56 38.578125 55.875 
Q 39.703125 55.765625 41.0625 55.515625 
z
" id="DejaVuSans-72"/>
     <path d="M 2.984375 54.6875 
L 12.5 54.6875 
L 29.59375 8.796875 
L 46.6875 54.6875 
L 56.203125 54.6875 
L 35.6875 0 
L 23.484375 0 
z
" id="DejaVuSans-76"/>
     <path d="M 45.40625 46.390625 
L 45.40625 75.984375 
L 54.390625 75.984375 
L 54.390625 0 
L 45.40625 0 
L 45.40625 8.203125 
Q 42.578125 3.328125 38.25 0.953125 
Q 33.9375 -1.421875 27.875 -1.421875 
Q 17.96875 -1.421875 11.734375 6.484375 
Q 5.515625 14.40625 5.515625 27.296875 
Q 5.515625 40.1875 11.734375 48.09375 
Q 17.96875 56 27.875 56 
Q 33.9375 56 38.25 53.625 
Q 42.578125 51.265625 45.40625 46.390625 
M 14.796875 27.296875 
Q 14.796875 17.390625 18.875 11.75 
Q 22.953125 6.109375 30.078125 6.109375 
Q 37.203125 6.109375 41.296875 11.75 
Q 45.40625 17.390625 45.40625 27.296875 
Q 45.40625 37.203125 41.296875 42.84375 
Q 37.203125 48.484375 30.078125 48.484375 
Q 22.953125 48.484375 18.875 42.84375 
Q 14.796875 37.203125 14.796875 27.296875 
" id="DejaVuSans-64"/>
    </defs>
    <g style="fill:#f0ad4e;" transform="translate(275.315901 16.035281)scale(0.15 -0.15)">
     <use xlink:href="#DejaVuSans-4f"/>
     <use x="78.710938" xlink:href="#DejaVuSans-62"/>
     <use x="142.1875" xlink:href="#DejaVuSans-73"/>
     <use x="194.287109" xlink:href="#DejaVuSans-65"/>
     <use x="255.810547" xlink:href="#DejaVuSans-72"/>
     <use x="296.923828" xlink:href="#DejaVuSans-76"/>
     <use x="356.103516" xlink:href="#DejaVuSans-65"/>
     <use x="417.626953" xlink:href="#DejaVuSans-64"/>
    </g>
    <!-- statistic -->
    <g style="fill:#f0ad4e;" transform="translate(281.879573 32.832)scale(0.15 -0.15)">
     <use xlink:href="#DejaVuSans-73"/>
     <use x="52.099609" xlink:href="#DejaVuSans-74"/>
     <use x="91.308594" xlink:href="#DejaVuSans-61"/>
     <use x="152.587891" xlink:href="#DejaVuSans-74"/>
     <use x="191.796875" xlink:href="#DejaVuSans-69"/>
     <use x="219.580078" xlink:href="#DejaVuSans-73"/>
     <use x="271.679688" xlink:href="#DejaVuSans-74"/>
     <use x="310.888672" xlink:href="#DejaVuSans-69"/>
     <use x="338.671875" xlink:href="#DejaVuSans-63"/>
    </g>
   </g>
  </g>
  <g id="axes_2">
   <g id="patch_4">
    <path clip-path="url(#p0e9f672656)" d="M 173.77313 250.56 
L 176.956902 250.56 
L 176.956902 249.45053 
L 173.77313 249.45053 
z
" style="fill:#5bc0de;opacity:0.9;"/>
   </g>
   <g id="patch_5">
    <path clip-path="url(#p0e9f672656)" d="M 176.956902 250.56 
L 180.140673 250.56 
L 180.140673 249.820353 
L 176.956902 249.820353 
z
" style="fill:#5bc0de;opacity:0.9;"/>
   </g>
   <g id="patch_6">
    <path clip-path="url(#p0e9f672656)" d="M 180.140673 250.56 
L 183.324445 250.56 
L 183.324445 250.190177 
L 180.140673 250.190177 
z
" style="fill:#5bc0de;opacity:0.9;"/>
   </g>
   <g id="patch_7">
    <path clip-path="url(#p0e9f672656)" d="M 183.324445 250.56 
L 186.508217 250.56 
L 186.508217 249.820353 
L 183.324445 249.820353 
z
" style="fill:#5bc0de;opacity:0.9;"/>
   </g>
   <g id="patch_8">
    <path clip-path="url(#p0e9f672656)" d="M 186.508217 250.56 
L 189.691989 250.56 
L 189.691989 249.080706 
L 186.508217 249.080706 
z
" style="fill:#5bc0de;opacity:0.9;"/>
   </g>
   <g id="patch_9">
    <path clip-path="url(#p0e9f672656)" d="M 189.691989 250.56 
L 192.875761 250.56 
L 192.875761 246.861766 
L 189.691989 246.861766 
z
" style="fill:#5bc0de;opacity:0.9;"/>
   </g>
   <g id="patch_10">
    <path clip-path="url(#p0e9f672656)" d="M 192.875761 250.56 
L 196.059533 250.56 
L 196.059533 245.382472 
L 192.875761 245.382472 
z
" style="fill:#5bc0de;opacity:0.9;"/>
   </g>
   <g id="patch_11">
    <path clip-path="url(#p0e9f672656)" d="M 196.059533 250.56 
L 199.243305 250.56 
L 199.243305 243.903178 
L 196.059533 243.903178 
z
" style="fill:#5bc0de;opacity:0.9;"/>
   </g>
   <g id="patch_12">
    <path clip-path="url(#p0e9f672656)" d="M 199.243305 250.56 
L 202.427077 250.56 
L 202.427077 239.83512 
L 199.243305 239.83512 
z
" style="fill:#5bc0de;opacity:0.9;"/>
   </g>
   <g id="patch_13">
    <path clip-path="url(#p0e9f672656)" d="M 202.427077 250.56 
L 205.610849 250.56 
L 205.610849 238.72565 
L 202.427077 238.72565 
z
" style="fill:#5bc0de;opacity:0.9;"/>
   </g>
   <g id="patch_14">
    <path clip-path="url(#p0e9f672656)" d="M 205.610849 250.56 
L 208.794621 250.56 
L 208.794621 234.657592 
L 205.610849 234.657592 
z
" style="fill:#5bc0de;opacity:0.9;"/>
   </g>
   <g id="patch_15">
    <path clip-path="url(#p0e9f672656)" d="M 208.794621 250.56 
L 211.978393 250.56 
L 211.978393 228.00077 
L 208.794621 228.00077 
z
" style="fill:#5bc0de;opacity:0.9;"/>
   </g>
   <g id="patch_16">
    <path clip-path="url(#p0e9f672656)" d="M 211.978393 250.56 
L 215.162165 250.56 
L 215.162165 218.755185 
L 211.978393 218.755185 
z
" style="fill:#5bc0de;opacity:0.9;"/>
   </g>
   <g id="patch_17">
    <path clip-path="url(#p0e9f672656)" d="M 215.162165 250.56 
L 218.345937 250.56 
L 218.345937 217.645714 
L 215.162165 217.645714 
z
" style="fill:#5bc0de;opacity:0.9;"/>
   </g>
   <g id="patch_18">
    <path clip-path="url(#p0e9f672656)" d="M 218.345937 250.56 
L 221.529709 250.56 
L 221.529709 203.2226 
L 218.345937 203.2226 
z
" style="fill:#5bc0de;opacity:0.9;"/>
   </g>
   <g id="patch_19">
    <path clip-path="url(#p0e9f672656)" d="M 221.529709 250.56 
L 224.713481 250.56 
L 224.713481 196.565778 
L 221.529709 196.565778 
z
" style="fill:#5bc0de;opacity:0.9;"/>
   </g>
   <g id="patch_20">
    <path clip-path="url(#p0e9f672656)" d="M 224.713481 250.56 
L 227.897253 250.56 
L 227.897253 182.882311 
L 224.713481 182.882311 
z
" style="fill:#5bc0de;opacity:0.9;"/>
   </g>
   <g id="patch_21">
    <path clip-path="url(#p0e9f672656)" d="M 227.897253 250.56 
L 231.081025 250.56 
L 231.081025 183.621958 
L 227.897253 183.621958 
z
" style="fill:#5bc0de;opacity:0.9;"/>
   </g>
   <g id="patch_22">
    <path clip-path="url(#p0e9f672656)" d="M 231.081025 250.56 
L 234.264797 250.56 
L 234.264797 166.240257 
L 231.081025 166.240257 
z
" style="fill:#5bc0de;opacity:0.9;"/>
   </g>
   <g id="patch_23">
    <path clip-path="url(#p0e9f672656)" d="M 234.264797 250.56 
L 237.448569 250.56 
L 237.448569 148.118909 
L 234.264797 148.118909 
z
" style="fill:#5bc0de;opacity:0.9;"/>
   </g>
   <g id="patch_24">
    <path clip-path="url(#p0e9f672656)" d="M 237.448569 250.56 
L 240.632341 250.56 
L 240.632341 125.559679 
L 237.448569 125.559679 
z
" style="fill:#5bc0de;opacity:0.9;"/>
   </g>
   <g id="patch_25">
    <path clip-path="url(#p0e9f672656)" d="M 240.632341 250.56 
L 243.816113 250.56 
L 243.816113 120.751974 
L 240.632341 120.751974 
z
" style="fill:#5bc0de;opacity:0.9;"/>
   </g>
   <g id="patch_26">
    <path clip-path="url(#p0e9f672656)" d="M 243.816113 250.56 
L 246.999885 250.56 
L 246.999885 100.781509 
L 243.816113 100.781509 
z
" style="fill:#5bc0de;opacity:0.9;"/>
   </g>
   <g id="patch_27">
    <path clip-path="url(#p0e9f672656)" d="M 246.999885 250.56 
L 250.183657 250.56 
L 250.183657 93.38504 
L 246.999885 93.38504 
z
" style="fill:#5bc0de;opacity:0.9;"/>
   </g>
   <g id="patch_28">
    <path clip-path="url(#p0e9f672656)" d="M 250.183657 250.56 
L 253.367429 250.56 
L 253.367429 87.467865 
L 250.183657 87.467865 
z
" style="fill:#5bc0de;opacity:0.9;"/>
   </g>
   <g id="patch_29">
    <path clip-path="url(#p0e9f672656)" d="M 253.367429 250.56 
L 256.551201 250.56 
L 256.551201 77.852456 
L 253.367429 77.852456 
z
" style="fill:#5bc0de;opacity:0.9;"/>
   </g>
   <g id="patch_30">
    <path clip-path="url(#p0e9f672656)" d="M 256.551201 250.56 
L 259.734973 250.56 
L 259.734973 73.784398 
L 256.551201 73.784398 
z
" style="fill:#5bc0de;opacity:0.9;"/>
   </g>
   <g id="patch_31">
    <path clip-path="url(#p0e9f672656)" d="M 259.734973 250.56 
L 262.918745 250.56 
L 262.918745 61.950048 
L 259.734973 61.950048 
z
" style="fill:#5bc0de;opacity:0.9;"/>
   </g>
   <g id="patch_32">
    <path clip-path="url(#p0e9f672656)" d="M 262.918745 250.56 
L 266.102517 250.56 
L 266.102517 68.976693 
L 262.918745 68.976693 
z
" style="fill:#5bc0de;opacity:0.9;"/>
   </g>
   <g id="patch_33">
    <path clip-path="url(#p0e9f672656)" d="M 266.102517 250.56 
L 269.286289 250.56 
L 269.286289 53.074286 
L 266.102517 53.074286 
z
" style="fill:#5bc0de;opacity:0.9;"/>
   </g>
   <g id="patch_34">
    <path clip-path="url(#p0e9f672656)" d="M 269.286289 250.56 
L 272.470061 250.56 
L 272.470061 75.633515 
L 269.286289 75.633515 
z
" style="fill:#5bc0de;opacity:0.9;"/>
   </g>
   <g id="patch_35">
    <path clip-path="url(#p0e9f672656)" d="M 272.470061 250.56 
L 275.653833 250.56 
L 275.653833 78.961926 
L 272.470061 78.961926 
z
" style="fill:#5bc0de;opacity:0.9;"/>
   </g>
   <g id="patch_36">
    <path clip-path="url(#p0e9f672656)" d="M 275.653833 250.56 
L 278.837605 250.56 
L 278.837605 95.973804 
L 275.653833 95.973804 
z
" style="fill:#5bc0de;opacity:0.9;"/>
   </g>
   <g id="patch_37">
    <path clip-path="url(#p0e9f672656)" d="M 278.837605 250.56 
L 282.021377 250.56 
L 282.021377 93.754864 
L 278.837605 93.754864 
z
" style="fill:#5bc0de;opacity:0.9;"/>
   </g>
   <g id="patch_38">
    <path clip-path="url(#p0e9f672656)" d="M 282.021377 250.56 
L 285.205149 250.56 
L 285.205149 110.027095 
L 282.021377 110.027095 
z
" style="fill:#5bc0de;opacity:0.9;"/>
   </g>
   <g id="patch_39">
    <path clip-path="url(#p0e9f672656)" d="M 285.205149 250.56 
L 288.388921 250.56 
L 288.388921 138.133676 
L 285.205149 138.133676 
z
" style="fill:#5bc0de;opacity:0.9;"/>
   </g>
   <g id="patch_40">
    <path clip-path="url(#p0e9f672656)" d="M 288.388921 250.56 
L 291.572693 250.56 
L 291.572693 140.72244 
L 288.388921 140.72244 
z
" style="fill:#5bc0de;opacity:0.9;"/>
   </g>
   <g id="patch_41">
    <path clip-path="url(#p0e9f672656)" d="M 291.572693 250.56 
L 294.756465 250.56 
L 294.756465 153.66626 
L 291.572693 153.66626 
z
" style="fill:#5bc0de;opacity:0.9;"/>
   </g>
   <g id="patch_42">
    <path clip-path="url(#p0e9f672656)" d="M 294.756465 250.56 
L 297.940237 250.56 
L 297.940237 170.308315 
L 294.756465 170.308315 
z
" style="fill:#5bc0de;opacity:0.9;"/>
   </g>
   <g id="patch_43">
    <path clip-path="url(#p0e9f672656)" d="M 297.940237 250.56 
L 301.124009 250.56 
L 301.124009 188.429663 
L 297.940237 188.429663 
z
" style="fill:#5bc0de;opacity:0.9;"/>
   </g>
   <g id="patch_44">
    <path clip-path="url(#p0e9f672656)" d="M 301.124009 250.56 
L 304.307781 250.56 
L 304.307781 196.935602 
L 301.124009 196.935602 
z
" style="fill:#5bc0de;opacity:0.9;"/>
   </g>
   <g id="patch_45">
    <path clip-path="url(#p0e9f672656)" d="M 304.307781 250.56 
L 307.491553 250.56 
L 307.491553 210.988892 
L 304.307781 210.988892 
z
" style="fill:#5bc0de;opacity:0.9;"/>
   </g>
   <g id="patch_46">
    <path clip-path="url(#p0e9f672656)" d="M 307.491553 250.56 
L 310.675325 250.56 
L 310.675325 217.275891 
L 307.491553 217.275891 
z
" style="fill:#5bc0de;opacity:0.9;"/>
   </g>
   <g id="patch_47">
    <path clip-path="url(#p0e9f672656)" d="M 310.675325 250.56 
L 313.859097 250.56 
L 313.859097 229.110241 
L 310.675325 229.110241 
z
" style="fill:#5bc0de;opacity:0.9;"/>
   </g>
   <g id="patch_48">
    <path clip-path="url(#p0e9f672656)" d="M 313.859097 250.56 
L 317.042869 250.56 
L 317.042869 227.261124 
L 313.859097 227.261124 
z
" style="fill:#5bc0de;opacity:0.9;"/>
   </g>
   <g id="patch_49">
    <path clip-path="url(#p0e9f672656)" d="M 317.042869 250.56 
L 320.226641 250.56 
L 320.226641 234.657592 
L 317.042869 234.657592 
z
" style="fill:#5bc0de;opacity:0.9;"/>
   </g>
   <g id="patch_50">
    <path clip-path="url(#p0e9f672656)" d="M 320.226641 250.56 
L 323.410413 250.56 
L 323.410413 239.465297 
L 320.226641 239.465297 
z
" style="fill:#5bc0de;opacity:0.9;"/>
   </g>
   <g id="patch_51">
    <path clip-path="url(#p0e9f672656)" d="M 323.410413 250.56 
L 326.594185 250.56 
L 326.594185 244.642825 
L 323.410413 244.642825 
z
" style="fill:#5bc0de;opacity:0.9;"/>
   </g>
   <g id="patch_52">
    <path clip-path="url(#p0e9f672656)" d="M 326.594185 250.56 
L 329.777957 250.56 
L 329.777957 243.163531 
L 326.594185 243.163531 
z
" style="fill:#5bc0de;opacity:0.9;"/>
   </g>
   <g id="patch_53">
    <path clip-path="url(#p0e9f672656)" d="M 329.777957 250.56 
L 332.961729 250.56 
L 332.961729 244.273002 
L 329.777957 244.273002 
z
" style="fill:#5bc0de;opacity:0.9;"/>
   </g>
   <g id="patch_54">
    <path clip-path="url(#p0e9f672656)" d="M 332.961729 250.56 
L 336.145501 250.56 
L 336.145501 248.341059 
L 332.961729 248.341059 
z
" style="fill:#5bc0de;opacity:0.9;"/>
   </g>
   <g id="patch_55">
    <path clip-path="url(#p0e9f672656)" d="M 336.145501 250.56 
L 339.329272 250.56 
L 339.329272 248.341059 
L 336.145501 248.341059 
z
" style="fill:#5bc0de;opacity:0.9;"/>
   </g>
   <g id="patch_56">
    <path clip-path="url(#p0e9f672656)" d="M 339.329272 250.56 
L 342.513044 250.56 
L 342.513044 248.710883 
L 339.329272 248.710883 
z
" style="fill:#5bc0de;opacity:0.9;"/>
   </g>
   <g id="patch_57">
    <path clip-path="url(#p0e9f672656)" d="M 342.513044 250.56 
L 345.696816 250.56 
L 345.696816 249.080706 
L 342.513044 249.080706 
z
" style="fill:#5bc0de;opacity:0.9;"/>
   </g>
   <g id="patch_58">
    <path clip-path="url(#p0e9f672656)" d="M 345.696816 250.56 
L 348.880588 250.56 
L 348.880588 249.45053 
L 345.696816 249.45053 
z
" style="fill:#5bc0de;opacity:0.9;"/>
   </g>
   <g id="patch_59">
    <path clip-path="url(#p0e9f672656)" d="M 348.880588 250.56 
L 352.06436 250.56 
L 352.06436 249.45053 
L 348.880588 249.45053 
z
" style="fill:#5bc0de;opacity:0.9;"/>
   </g>
   <g id="patch_60">
    <path d="M 256.918745 264.40911 
Q 259.918745 258.40911 262.918745 252.40911 
Q 265.918745 258.40911 268.918745 264.40911 
z
" style="fill:#5bc0de;"/>
   </g>
  </g>
  <g id="axes_3">
   <g id="patch_61">
    <path clip-path="url(#p0e9f672656)" d="M 92.447305 250.56 
L 95.575221 250.56 
L 95.575221 250.190177 
L 92.447305 250.190177 
z
" style="fill:#5bc0de;opacity:0.9;"/>
   </g>
   <g id="patch_62">
    <path clip-path="url(#p0e9f672656)" d="M 95.575221 250.56 
L 98.703138 250.56 
L 98.703138 250.56 
L 95.575221 250.56 
z
" style="fill:#5bc0de;opacity:0.9;"/>
   </g>
   <g id="patch_63">
    <path clip-path="url(#p0e9f672656)" d="M 98.703138 250.56 
L 101.831054 250.56 
L 101.831054 250.190177 
L 98.703138 250.190177 
z
" style="fill:#5bc0de;opacity:0.9;"/>
   </g>
   <g id="patch_64">
    <path clip-path="url(#p0e9f672656)" d="M 101.831054 250.56 
L 104.95897 250.56 
L 104.95897 250.190177 
L 101.831054 250.190177 
z
" style="fill:#5bc0de;opacity:0.9;"/>
   </g>
   <g id="patch_65">
    <path clip-path="url(#p0e9f672656)" d="M 104.95897 250.56 
L 108.086887 250.56 
L 108.086887 249.820353 
L 104.95897 249.820353 
z
" style="fill:#5bc0de;opacity:0.9;"/>
   </g>
   <g id="patch_66">
    <path clip-path="url(#p0e9f672656)" d="M 108.086887 250.56 
L 111.214803 250.56 
L 111.214803 248.710883 
L 108.086887 248.710883 
z
" style="fill:#5bc0de;opacity:0.9;"/>
   </g>
   <g id="patch_67">
    <path clip-path="url(#p0e9f672656)" d="M 111.214803 250.56 
L 114.342719 250.56 
L 114.342719 248.710883 
L 111.214803 248.710883 
z
" style="fill:#5bc0de;opacity:0.9;"/>
   </g>
   <g id="patch_68">
    <path clip-path="url(#p0e9f672656)" d="M 114.342719 250.56 
L 117.470636 250.56 
L 117.470636 247.231589 
L 114.342719 247.231589 
z
" style="fill:#5bc0de;opacity:0.9;"/>
   </g>
   <g id="patch_69">
    <path clip-path="url(#p0e9f672656)" d="M 117.470636 250.56 
L 120.598552 250.56 
L 120.598552 247.971236 
L 117.470636 247.971236 
z
" style="fill:#5bc0de;opacity:0.9;"/>
   </g>
   <g id="patch_70">
    <path clip-path="url(#p0e9f672656)" d="M 120.598552 250.56 
L 123.726468 250.56 
L 123.726468 249.080706 
L 120.598552 249.080706 
z
" style="fill:#5bc0de;opacity:0.9;"/>
   </g>
   <g id="patch_71">
    <path clip-path="url(#p0e9f672656)" d="M 123.726468 250.56 
L 126.854385 250.56 
L 126.854385 241.684238 
L 123.726468 241.684238 
z
" style="fill:#5bc0de;opacity:0.9;"/>
   </g>
   <g id="patch_72">
    <path clip-path="url(#p0e9f672656)" d="M 126.854385 250.56 
L 129.982301 250.56 
L 129.982301 239.83512 
L 126.854385 239.83512 
z
" style="fill:#5bc0de;opacity:0.9;"/>
   </g>
   <g id="patch_73">
    <path clip-path="url(#p0e9f672656)" d="M 129.982301 250.56 
L 133.110217 250.56 
L 133.110217 237.246356 
L 129.982301 237.246356 
z
" style="fill:#5bc0de;opacity:0.9;"/>
   </g>
   <g id="patch_74">
    <path clip-path="url(#p0e9f672656)" d="M 133.110217 250.56 
L 136.238134 250.56 
L 136.238134 233.548122 
L 133.110217 233.548122 
z
" style="fill:#5bc0de;opacity:0.9;"/>
   </g>
   <g id="patch_75">
    <path clip-path="url(#p0e9f672656)" d="M 136.238134 250.56 
L 139.36605 250.56 
L 139.36605 225.042183 
L 136.238134 225.042183 
z
" style="fill:#5bc0de;opacity:0.9;"/>
   </g>
   <g id="patch_76">
    <path clip-path="url(#p0e9f672656)" d="M 139.36605 250.56 
L 142.493966 250.56 
L 142.493966 217.645714 
L 139.36605 217.645714 
z
" style="fill:#5bc0de;opacity:0.9;"/>
   </g>
   <g id="patch_77">
    <path clip-path="url(#p0e9f672656)" d="M 142.493966 250.56 
L 145.621883 250.56 
L 145.621883 214.687127 
L 142.493966 214.687127 
z
" style="fill:#5bc0de;opacity:0.9;"/>
   </g>
   <g id="patch_78">
    <path clip-path="url(#p0e9f672656)" d="M 145.621883 250.56 
L 148.749799 250.56 
L 148.749799 207.660482 
L 145.621883 207.660482 
z
" style="fill:#5bc0de;opacity:0.9;"/>
   </g>
   <g id="patch_79">
    <path clip-path="url(#p0e9f672656)" d="M 148.749799 250.56 
L 151.877715 250.56 
L 151.877715 196.195955 
L 148.749799 196.195955 
z
" style="fill:#5bc0de;opacity:0.9;"/>
   </g>
   <g id="patch_80">
    <path clip-path="url(#p0e9f672656)" d="M 151.877715 250.56 
L 155.005632 250.56 
L 155.005632 186.580546 
L 151.877715 186.580546 
z
" style="fill:#5bc0de;opacity:0.9;"/>
   </g>
   <g id="patch_81">
    <path clip-path="url(#p0e9f672656)" d="M 155.005632 250.56 
L 158.133548 250.56 
L 158.133548 160.692905 
L 155.005632 160.692905 
z
" style="fill:#5bc0de;opacity:0.9;"/>
   </g>
   <g id="patch_82">
    <path clip-path="url(#p0e9f672656)" d="M 158.133548 250.56 
L 161.261464 250.56 
L 161.261464 141.83191 
L 158.133548 141.83191 
z
" style="fill:#5bc0de;opacity:0.9;"/>
   </g>
   <g id="patch_83">
    <path clip-path="url(#p0e9f672656)" d="M 161.261464 250.56 
L 164.389381 250.56 
L 164.389381 122.970915 
L 161.261464 122.970915 
z
" style="fill:#5bc0de;opacity:0.9;"/>
   </g>
   <g id="patch_84">
    <path clip-path="url(#p0e9f672656)" d="M 164.389381 250.56 
L 167.517297 250.56 
L 167.517297 117.05374 
L 164.389381 117.05374 
z
" style="fill:#5bc0de;opacity:0.9;"/>
   </g>
   <g id="patch_85">
    <path clip-path="url(#p0e9f672656)" d="M 167.517297 250.56 
L 170.645213 250.56 
L 170.645213 97.453098 
L 167.517297 97.453098 
z
" style="fill:#5bc0de;opacity:0.9;"/>
   </g>
   <g id="patch_86">
    <path clip-path="url(#p0e9f672656)" d="M 170.645213 250.56 
L 173.77313 250.56 
L 173.77313 87.837689 
L 170.645213 87.837689 
z
" style="fill:#5bc0de;opacity:0.9;"/>
   </g>
   <g id="patch_87">
    <path clip-path="url(#p0e9f672656)" d="M 173.77313 250.56 
L 176.901046 250.56 
L 176.901046 89.316982 
L 173.77313 89.316982 
z
" style="fill:#5bc0de;opacity:0.9;"/>
   </g>
   <g id="patch_88">
    <path clip-path="url(#p0e9f672656)" d="M 176.901046 250.56 
L 180.028962 250.56 
L 180.028962 74.893868 
L 176.901046 74.893868 
z
" style="fill:#5bc0de;opacity:0.9;"/>
   </g>
   <g id="patch_89">
    <path clip-path="url(#p0e9f672656)" d="M 180.028962 250.56 
L 183.156879 250.56 
L 183.156879 56.032873 
L 180.028962 56.032873 
z
" style="fill:#5bc0de;opacity:0.9;"/>
   </g>
   <g id="patch_90">
    <path clip-path="url(#p0e9f672656)" d="M 183.156879 250.56 
L 186.284795 250.56 
L 186.284795 56.402697 
L 183.156879 56.402697 
z
" style="fill:#5bc0de;opacity:0.9;"/>
   </g>
   <g id="patch_91">
    <path clip-path="url(#p0e9f672656)" d="M 186.284795 250.56 
L 189.412711 250.56 
L 189.412711 63.059518 
L 186.284795 63.059518 
z
" style="fill:#5bc0de;opacity:0.9;"/>
   </g>
   <g id="patch_92">
    <path clip-path="url(#p0e9f672656)" d="M 189.412711 250.56 
L 192.540628 250.56 
L 192.540628 65.278459 
L 189.412711 65.278459 
z
" style="fill:#5bc0de;opacity:0.9;"/>
   </g>
   <g id="patch_93">
    <path clip-path="url(#p0e9f672656)" d="M 192.540628 250.56 
L 195.668544 250.56 
L 195.668544 71.195634 
L 192.540628 71.195634 
z
" style="fill:#5bc0de;opacity:0.9;"/>
   </g>
   <g id="patch_94">
    <path clip-path="url(#p0e9f672656)" d="M 195.668544 250.56 
L 198.79646 250.56 
L 198.79646 84.879101 
L 195.668544 84.879101 
z
" style="fill:#5bc0de;opacity:0.9;"/>
   </g>
   <g id="patch_95">
    <path clip-path="url(#p0e9f672656)" d="M 198.79646 250.56 
L 201.924377 250.56 
L 201.924377 69.71634 
L 198.79646 69.71634 
z
" style="fill:#5bc0de;opacity:0.9;"/>
   </g>
   <g id="patch_96">
    <path clip-path="url(#p0e9f672656)" d="M 201.924377 250.56 
L 205.052293 250.56 
L 205.052293 108.917624 
L 201.924377 108.917624 
z
" style="fill:#5bc0de;opacity:0.9;"/>
   </g>
   <g id="patch_97">
    <path clip-path="url(#p0e9f672656)" d="M 205.052293 250.56 
L 208.180209 250.56 
L 208.180209 109.657271 
L 205.052293 109.657271 
z
" style="fill:#5bc0de;opacity:0.9;"/>
   </g>
   <g id="patch_98">
    <path clip-path="url(#p0e9f672656)" d="M 208.180209 250.56 
L 211.308126 250.56 
L 211.308126 123.710562 
L 208.180209 123.710562 
z
" style="fill:#5bc0de;opacity:0.9;"/>
   </g>
   <g id="patch_99">
    <path clip-path="url(#p0e9f672656)" d="M 211.308126 250.56 
L 214.436042 250.56 
L 214.436042 139.982793 
L 211.308126 139.982793 
z
" style="fill:#5bc0de;opacity:0.9;"/>
   </g>
   <g id="patch_100">
    <path clip-path="url(#p0e9f672656)" d="M 214.436042 250.56 
L 217.563958 250.56 
L 217.563958 159.213612 
L 214.436042 159.213612 
z
" style="fill:#5bc0de;opacity:0.9;"/>
   </g>
   <g id="patch_101">
    <path clip-path="url(#p0e9f672656)" d="M 217.563958 250.56 
L 220.691874 250.56 
L 220.691874 176.22549 
L 217.563958 176.22549 
z
" style="fill:#5bc0de;opacity:0.9;"/>
   </g>
   <g id="patch_102">
    <path clip-path="url(#p0e9f672656)" d="M 220.691874 250.56 
L 223.819791 250.56 
L 223.819791 190.648604 
L 220.691874 190.648604 
z
" style="fill:#5bc0de;opacity:0.9;"/>
   </g>
   <g id="patch_103">
    <path clip-path="url(#p0e9f672656)" d="M 223.819791 250.56 
L 226.947707 250.56 
L 226.947707 194.346838 
L 223.819791 194.346838 
z
" style="fill:#5bc0de;opacity:0.9;"/>
   </g>
   <g id="patch_104">
    <path clip-path="url(#p0e9f672656)" d="M 226.947707 250.56 
L 230.075623 250.56 
L 230.075623 209.879422 
L 226.947707 209.879422 
z
" style="fill:#5bc0de;opacity:0.9;"/>
   </g>
   <g id="patch_105">
    <path clip-path="url(#p0e9f672656)" d="M 230.075623 250.56 
L 233.20354 250.56 
L 233.20354 212.098363 
L 230.075623 212.098363 
z
" style="fill:#5bc0de;opacity:0.9;"/>
   </g>
   <g id="patch_106">
    <path clip-path="url(#p0e9f672656)" d="M 233.20354 250.56 
L 236.331456 250.56 
L 236.331456 222.453419 
L 233.20354 222.453419 
z
" style="fill:#5bc0de;opacity:0.9;"/>
   </g>
   <g id="patch_107">
    <path clip-path="url(#p0e9f672656)" d="M 236.331456 250.56 
L 239.459372 250.56 
L 239.459372 234.287769 
L 236.331456 234.287769 
z
" style="fill:#5bc0de;opacity:0.9;"/>
   </g>
   <g id="patch_108">
    <path clip-path="url(#p0e9f672656)" d="M 239.459372 250.56 
L 242.587289 250.56 
L 242.587289 237.61618 
L 239.459372 237.61618 
z
" style="fill:#5bc0de;opacity:0.9;"/>
   </g>
   <g id="patch_109">
    <path clip-path="url(#p0e9f672656)" d="M 242.587289 250.56 
L 245.715205 250.56 
L 245.715205 237.986003 
L 242.587289 237.986003 
z
" style="fill:#5bc0de;opacity:0.9;"/>
   </g>
   <g id="patch_110">
    <path clip-path="url(#p0e9f672656)" d="M 245.715205 250.56 
L 248.843121 250.56 
L 248.843121 240.944591 
L 245.715205 240.944591 
z
" style="fill:#5bc0de;opacity:0.9;"/>
   </g>
   <g id="patch_111">
    <path clip-path="url(#p0e9f672656)" d="M 248.843121 250.56 
L 251.971038 250.56 
L 251.971038 246.122119 
L 248.843121 246.122119 
z
" style="fill:#5bc0de;opacity:0.9;"/>
   </g>
   <g id="patch_112">
    <path clip-path="url(#p0e9f672656)" d="M 251.971038 250.56 
L 255.098954 250.56 
L 255.098954 246.861766 
L 251.971038 246.861766 
z
" style="fill:#5bc0de;opacity:0.9;"/>
   </g>
   <g id="patch_113">
    <path clip-path="url(#p0e9f672656)" d="M 255.098954 250.56 
L 258.22687 250.56 
L 258.22687 247.231589 
L 255.098954 247.231589 
z
" style="fill:#5bc0de;opacity:0.9;"/>
   </g>
   <g id="patch_114">
    <path clip-path="url(#p0e9f672656)" d="M 258.22687 250.56 
L 261.354787 250.56 
L 261.354787 247.971236 
L 258.22687 247.971236 
z
" style="fill:#5bc0de;opacity:0.9;"/>
   </g>
   <g id="patch_115">
    <path clip-path="url(#p0e9f672656)" d="M 261.354787 250.56 
L 264.482703 250.56 
L 264.482703 247.971236 
L 261.354787 247.971236 
z
" style="fill:#5bc0de;opacity:0.9;"/>
   </g>
   <g id="patch_116">
    <path clip-path="url(#p0e9f672656)" d="M 264.482703 250.56 
L 267.610619 250.56 
L 267.610619 248.710883 
L 264.482703 248.710883 
z
" style="fill:#5bc0de;opacity:0.9;"/>
   </g>
   <g id="patch_117">
    <path clip-path="url(#p0e9f672656)" d="M 267.610619 250.56 
L 270.738536 250.56 
L 270.738536 250.190177 
L 267.610619 250.190177 
z
" style="fill:#5bc0de;opacity:0.9;"/>
   </g>
   <g id="patch_118">
    <path clip-path="url(#p0e9f672656)" d="M 270.738536 250.56 
L 273.866452 250.56 
L 273.866452 249.820353 
L 270.738536 249.820353 
z
" style="fill:#5bc0de;opacity:0.9;"/>
   </g>
   <g id="patch_119">
    <path d="M 179.033628 264.40911 
Q 182.033628 258.40911 185.033628 252.40911 
Q 188.033628 258.40911 191.033628 264.40911 
z
" style="fill:#5bc0de;"/>
   </g>
  </g>
  <g id="axes_4">
   <g id="patch_120">
    <path clip-path="url(#p0e9f672656)" d="M 39.272727 250.56 
L 42.679922 250.56 
L 42.679922 250.190177 
L 39.272727 250.190177 
z
" style="fill:#5bc0de;opacity:0.9;"/>
   </g>
   <g id="patch_121">
    <path clip-path="url(#p0e9f672656)" d="M 42.679922 250.56 
L 46.087116 250.56 
L 46.087116 250.56 
L 42.679922 250.56 
z
" style="fill:#5bc0de;opacity:0.9;"/>
   </g>
   <g id="patch_122">
    <path clip-path="url(#p0e9f672656)" d="M 46.087116 250.56 
L 49.494311 250.56 
L 49.494311 250.190177 
L 46.087116 250.190177 
z
" style="fill:#5bc0de;opacity:0.9;"/>
   </g>
   <g id="patch_123">
    <path clip-path="url(#p0e9f672656)" d="M 49.494311 250.56 
L 52.901506 250.56 
L 52.901506 250.190177 
L 49.494311 250.190177 
z
" style="fill:#5bc0de;opacity:0.9;"/>
   </g>
   <g id="patch_124">
    <path clip-path="url(#p0e9f672656)" d="M 52.901506 250.56 
L 56.3087 250.56 
L 56.3087 249.820353 
L 52.901506 249.820353 
z
" style="fill:#5bc0de;opacity:0.9;"/>
   </g>
   <g id="patch_125">
    <path clip-path="url(#p0e9f672656)" d="M 56.3087 250.56 
L 59.715895 250.56 
L 59.715895 250.190177 
L 56.3087 250.190177 
z
" style="fill:#5bc0de;opacity:0.9;"/>
   </g>
   <g id="patch_126">
    <path clip-path="url(#p0e9f672656)" d="M 59.715895 250.56 
L 63.123089 250.56 
L 63.123089 249.820353 
L 59.715895 249.820353 
z
" style="fill:#5bc0de;opacity:0.9;"/>
   </g>
   <g id="patch_127">
    <path clip-path="url(#p0e9f672656)" d="M 63.123089 250.56 
L 66.530284 250.56 
L 66.530284 247.601413 
L 63.123089 247.601413 
z
" style="fill:#5bc0de;opacity:0.9;"/>
   </g>
   <g id="patch_128">
    <path clip-path="url(#p0e9f672656)" d="M 66.530284 250.56 
L 69.937478 250.56 
L 69.937478 245.012648 
L 66.530284 245.012648 
z
" style="fill:#5bc0de;opacity:0.9;"/>
   </g>
   <g id="patch_129">
    <path clip-path="url(#p0e9f672656)" d="M 69.937478 250.56 
L 73.344673 250.56 
L 73.344673 246.861766 
L 69.937478 246.861766 
z
" style="fill:#5bc0de;opacity:0.9;"/>
   </g>
   <g id="patch_130">
    <path clip-path="url(#p0e9f672656)" d="M 73.344673 250.56 
L 76.751868 250.56 
L 76.751868 242.793708 
L 73.344673 242.793708 
z
" style="fill:#5bc0de;opacity:0.9;"/>
   </g>
   <g id="patch_131">
    <path clip-path="url(#p0e9f672656)" d="M 76.751868 250.56 
L 80.159062 250.56 
L 80.159062 221.713772 
L 76.751868 221.713772 
z
" style="fill:#5bc0de;opacity:0.9;"/>
   </g>
   <g id="patch_132">
    <path clip-path="url(#p0e9f672656)" d="M 80.159062 250.56 
L 83.566257 250.56 
L 83.566257 233.917945 
L 80.159062 233.917945 
z
" style="fill:#5bc0de;opacity:0.9;"/>
   </g>
   <g id="patch_133">
    <path clip-path="url(#p0e9f672656)" d="M 83.566257 250.56 
L 86.973451 250.56 
L 86.973451 230.219711 
L 83.566257 230.219711 
z
" style="fill:#5bc0de;opacity:0.9;"/>
   </g>
   <g id="patch_134">
    <path clip-path="url(#p0e9f672656)" d="M 86.973451 250.56 
L 90.380646 250.56 
L 90.380646 223.193066 
L 86.973451 223.193066 
z
" style="fill:#5bc0de;opacity:0.9;"/>
   </g>
   <g id="patch_135">
    <path clip-path="url(#p0e9f672656)" d="M 90.380646 250.56 
L 93.78784 250.56 
L 93.78784 203.962247 
L 90.380646 203.962247 
z
" style="fill:#5bc0de;opacity:0.9;"/>
   </g>
   <g id="patch_136">
    <path clip-path="url(#p0e9f672656)" d="M 93.78784 250.56 
L 97.195035 250.56 
L 97.195035 203.962247 
L 93.78784 203.962247 
z
" style="fill:#5bc0de;opacity:0.9;"/>
   </g>
   <g id="patch_137">
    <path clip-path="url(#p0e9f672656)" d="M 97.195035 250.56 
L 100.60223 250.56 
L 100.60223 189.908957 
L 97.195035 189.908957 
z
" style="fill:#5bc0de;opacity:0.9;"/>
   </g>
   <g id="patch_138">
    <path clip-path="url(#p0e9f672656)" d="M 100.60223 250.56 
L 104.009424 250.56 
L 104.009424 166.240257 
L 100.60223 166.240257 
z
" style="fill:#5bc0de;opacity:0.9;"/>
   </g>
   <g id="patch_139">
    <path clip-path="url(#p0e9f672656)" d="M 104.009424 250.56 
L 107.416619 250.56 
L 107.416619 144.790498 
L 104.009424 144.790498 
z
" style="fill:#5bc0de;opacity:0.9;"/>
   </g>
   <g id="patch_140">
    <path clip-path="url(#p0e9f672656)" d="M 107.416619 250.56 
L 110.823813 250.56 
L 110.823813 137.024205 
L 107.416619 137.024205 
z
" style="fill:#5bc0de;opacity:0.9;"/>
   </g>
   <g id="patch_141">
    <path clip-path="url(#p0e9f672656)" d="M 110.823813 250.56 
L 114.231008 250.56 
L 114.231008 122.970915 
L 110.823813 122.970915 
z
" style="fill:#5bc0de;opacity:0.9;"/>
   </g>
   <g id="patch_142">
    <path clip-path="url(#p0e9f672656)" d="M 114.231008 250.56 
L 117.638203 250.56 
L 117.638203 -70.076918 
L 114.231008 -70.076918 
z
" style="fill:#5bc0de;opacity:0.9;"/>
   </g>
   <g id="patch_143">
    <path clip-path="url(#p0e9f672656)" d="M 117.638203 250.56 
L 121.045397 250.56 
L 121.045397 68.976693 
L 117.638203 68.976693 
z
" style="fill:#5bc0de;opacity:0.9;"/>
   </g>
   <g id="patch_144">
    <path clip-path="url(#p0e9f672656)" d="M 121.045397 250.56 
L 124.452592 250.56 
L 124.452592 71.195634 
L 121.045397 71.195634 
z
" style="fill:#5bc0de;opacity:0.9;"/>
   </g>
   <g id="patch_145">
    <path clip-path="url(#p0e9f672656)" d="M 124.452592 250.56 
L 127.859786 250.56 
L 127.859786 59.731108 
L 124.452592 59.731108 
z
" style="fill:#5bc0de;opacity:0.9;"/>
   </g>
   <g id="patch_146">
    <path clip-path="url(#p0e9f672656)" d="M 127.859786 250.56 
L 131.266981 250.56 
L 131.266981 42.349406 
L 127.859786 42.349406 
z
" style="fill:#5bc0de;opacity:0.9;"/>
   </g>
   <g id="patch_147">
    <path clip-path="url(#p0e9f672656)" d="M 131.266981 250.56 
L 134.674175 250.56 
L 134.674175 56.77252 
L 131.266981 56.77252 
z
" style="fill:#5bc0de;opacity:0.9;"/>
   </g>
   <g id="patch_148">
    <path clip-path="url(#p0e9f672656)" d="M 134.674175 250.56 
L 138.08137 250.56 
L 138.08137 66.387929 
L 134.674175 66.387929 
z
" style="fill:#5bc0de;opacity:0.9;"/>
   </g>
   <g id="patch_149">
    <path clip-path="url(#p0e9f672656)" d="M 138.08137 250.56 
L 141.488565 250.56 
L 141.488565 56.402697 
L 138.08137 56.402697 
z
" style="fill:#5bc0de;opacity:0.9;"/>
   </g>
   <g id="patch_150">
    <path clip-path="url(#p0e9f672656)" d="M 141.488565 250.56 
L 144.895759 250.56 
L 144.895759 70.825811 
L 141.488565 70.825811 
z
" style="fill:#5bc0de;opacity:0.9;"/>
   </g>
   <g id="patch_151">
    <path clip-path="url(#p0e9f672656)" d="M 144.895759 250.56 
L 148.302954 250.56 
L 148.302954 78.961926 
L 144.895759 78.961926 
z
" style="fill:#5bc0de;opacity:0.9;"/>
   </g>
   <g id="patch_152">
    <path clip-path="url(#p0e9f672656)" d="M 148.302954 250.56 
L 151.710148 250.56 
L 151.710148 97.822921 
L 148.302954 97.822921 
z
" style="fill:#5bc0de;opacity:0.9;"/>
   </g>
   <g id="patch_153">
    <path clip-path="url(#p0e9f672656)" d="M 151.710148 250.56 
L 155.117343 250.56 
L 155.117343 -12.384462 
L 151.710148 -12.384462 
z
" style="fill:#5bc0de;opacity:0.9;"/>
   </g>
   <g id="patch_154">
    <path clip-path="url(#p0e9f672656)" d="M 155.117343 250.56 
L 158.524537 250.56 
L 158.524537 138.133676 
L 155.117343 138.133676 
z
" style="fill:#5bc0de;opacity:0.9;"/>
   </g>
   <g id="patch_155">
    <path clip-path="url(#p0e9f672656)" d="M 158.524537 250.56 
L 161.931732 250.56 
L 161.931732 164.39114 
L 158.524537 164.39114 
z
" style="fill:#5bc0de;opacity:0.9;"/>
   </g>
   <g id="patch_156">
    <path clip-path="url(#p0e9f672656)" d="M 161.931732 250.56 
L 165.338927 250.56 
L 165.338927 167.719551 
L 161.931732 167.719551 
z
" style="fill:#5bc0de;opacity:0.9;"/>
   </g>
   <g id="patch_157">
    <path clip-path="url(#p0e9f672656)" d="M 165.338927 250.56 
L 168.746121 250.56 
L 168.746121 187.320193 
L 165.338927 187.320193 
z
" style="fill:#5bc0de;opacity:0.9;"/>
   </g>
   <g id="patch_158">
    <path clip-path="url(#p0e9f672656)" d="M 168.746121 250.56 
L 172.153316 250.56 
L 172.153316 193.607191 
L 168.746121 193.607191 
z
" style="fill:#5bc0de;opacity:0.9;"/>
   </g>
   <g id="patch_159">
    <path clip-path="url(#p0e9f672656)" d="M 172.153316 250.56 
L 175.56051 250.56 
L 175.56051 209.139775 
L 172.153316 209.139775 
z
" style="fill:#5bc0de;opacity:0.9;"/>
   </g>
   <g id="patch_160">
    <path clip-path="url(#p0e9f672656)" d="M 175.56051 250.56 
L 178.967705 250.56 
L 178.967705 214.317303 
L 175.56051 214.317303 
z
" style="fill:#5bc0de;opacity:0.9;"/>
   </g>
   <g id="patch_161">
    <path clip-path="url(#p0e9f672656)" d="M 178.967705 250.56 
L 182.374899 250.56 
L 182.374899 226.8913 
L 178.967705 226.8913 
z
" style="fill:#5bc0de;opacity:0.9;"/>
   </g>
   <g id="patch_162">
    <path clip-path="url(#p0e9f672656)" d="M 182.374899 250.56 
L 185.782094 250.56 
L 185.782094 229.849888 
L 182.374899 229.849888 
z
" style="fill:#5bc0de;opacity:0.9;"/>
   </g>
   <g id="patch_163">
    <path clip-path="url(#p0e9f672656)" d="M 185.782094 250.56 
L 189.189289 250.56 
L 189.189289 237.986003 
L 185.782094 237.986003 
z
" style="fill:#5bc0de;opacity:0.9;"/>
   </g>
   <g id="patch_164">
    <path clip-path="url(#p0e9f672656)" d="M 189.189289 250.56 
L 192.596483 250.56 
L 192.596483 230.219711 
L 189.189289 230.219711 
z
" style="fill:#5bc0de;opacity:0.9;"/>
   </g>
   <g id="patch_165">
    <path clip-path="url(#p0e9f672656)" d="M 192.596483 250.56 
L 196.003678 250.56 
L 196.003678 245.012648 
L 192.596483 245.012648 
z
" style="fill:#5bc0de;opacity:0.9;"/>
   </g>
   <g id="patch_166">
    <path clip-path="url(#p0e9f672656)" d="M 196.003678 250.56 
L 199.410872 250.56 
L 199.410872 245.012648 
L 196.003678 245.012648 
z
" style="fill:#5bc0de;opacity:0.9;"/>
   </g>
   <g id="patch_167">
    <path clip-path="url(#p0e9f672656)" d="M 199.410872 250.56 
L 202.818067 250.56 
L 202.818067 246.861766 
L 199.410872 246.861766 
z
" style="fill:#5bc0de;opacity:0.9;"/>
   </g>
   <g id="patch_168">
    <path clip-path="url(#p0e9f672656)" d="M 202.818067 250.56 
L 206.225261 250.56 
L 206.225261 249.080706 
L 202.818067 249.080706 
z
" style="fill:#5bc0de;opacity:0.9;"/>
   </g>
   <g id="patch_169">
    <path clip-path="url(#p0e9f672656)" d="M 206.225261 250.56 
L 209.632456 250.56 
L 209.632456 249.080706 
L 206.225261 249.080706 
z
" style="fill:#5bc0de;opacity:0.9;"/>
   </g>
   <g id="patch_170">
    <path clip-path="url(#p0e9f672656)" d="M 209.632456 250.56 
L 213.039651 250.56 
L 213.039651 249.820353 
L 209.632456 249.820353 
z
" style="fill:#5bc0de;opacity:0.9;"/>
   </g>
   <g id="patch_171">
    <path clip-path="url(#p0e9f672656)" d="M 213.039651 250.56 
L 216.446845 250.56 
L 216.446845 249.820353 
L 213.039651 249.820353 
z
" style="fill:#5bc0de;opacity:0.9;"/>
   </g>
   <g id="patch_172">
    <path clip-path="url(#p0e9f672656)" d="M 216.446845 250.56 
L 219.85404 250.56 
L 219.85404 250.56 
L 216.446845 250.56 
z
" style="fill:#5bc0de;opacity:0.9;"/>
   </g>
   <g id="patch_173">
    <path clip-path="url(#p0e9f672656)" d="M 219.85404 250.56 
L 223.261234 250.56 
L 223.261234 249.820353 
L 219.85404 249.820353 
z
" style="fill:#5bc0de;opacity:0.9;"/>
   </g>
   <g id="patch_174">
    <path clip-path="url(#p0e9f672656)" d="M 223.261234 250.56 
L 226.668429 250.56 
L 226.668429 250.190177 
L 223.261234 250.190177 
z
" style="fill:#5bc0de;opacity:0.9;"/>
   </g>
   <g id="patch_175">
    <path clip-path="url(#p0e9f672656)" d="M 226.668429 250.56 
L 230.075623 250.56 
L 230.075623 250.190177 
L 226.668429 250.190177 
z
" style="fill:#5bc0de;opacity:0.9;"/>
   </g>
   <g id="patch_176">
    <path d="M 127.110217 264.40911 
Q 130.110217 258.40911 133.110217 252.40911 
Q 136.110217 258.40911 139.110217 264.40911 
z
" style="fill:#5bc0de;"/>
   </g>
  </g>
  <g id="axes_5">
   <g id="patch_177">
    <path clip-path="url(#p0e9f672656)" d="M 220.691874 250.56 
L 223.763935 250.56 
L 223.763935 250.190177 
L 220.691874 250.190177 
z
" style="fill:#f0ad4e;"/>
   </g>
   <g id="patch_178">
    <path clip-path="url(#p0e9f672656)" d="M 223.763935 250.56 
L 226.835996 250.56 
L 226.835996 249.45053 
L 223.763935 249.45053 
z
" style="fill:#f0ad4e;"/>
   </g>
   <g id="patch_179">
    <path clip-path="url(#p0e9f672656)" d="M 226.835996 250.56 
L 229.908057 250.56 
L 229.908057 250.190177 
L 226.835996 250.190177 
z
" style="fill:#f0ad4e;"/>
   </g>
   <g id="patch_180">
    <path clip-path="url(#p0e9f672656)" d="M 229.908057 250.56 
L 232.980117 250.56 
L 232.980117 250.190177 
L 229.908057 250.190177 
z
" style="fill:#f0ad4e;"/>
   </g>
   <g id="patch_181">
    <path clip-path="url(#p0e9f672656)" d="M 232.980117 250.56 
L 236.052178 250.56 
L 236.052178 249.820353 
L 232.980117 249.820353 
z
" style="fill:#f0ad4e;"/>
   </g>
   <g id="patch_182">
    <path clip-path="url(#p0e9f672656)" d="M 236.052178 250.56 
L 239.124239 250.56 
L 239.124239 249.080706 
L 236.052178 249.080706 
z
" style="fill:#f0ad4e;"/>
   </g>
   <g id="patch_183">
    <path clip-path="url(#p0e9f672656)" d="M 239.124239 250.56 
L 242.196299 250.56 
L 242.196299 246.861766 
L 239.124239 246.861766 
z
" style="fill:#f0ad4e;"/>
   </g>
   <g id="patch_184">
    <path clip-path="url(#p0e9f672656)" d="M 242.196299 250.56 
L 245.26836 250.56 
L 245.26836 247.971236 
L 242.196299 247.971236 
z
" style="fill:#f0ad4e;"/>
   </g>
   <g id="patch_185">
    <path clip-path="url(#p0e9f672656)" d="M 245.26836 250.56 
L 248.340421 250.56 
L 248.340421 245.752295 
L 245.26836 245.752295 
z
" style="fill:#f0ad4e;"/>
   </g>
   <g id="patch_186">
    <path clip-path="url(#p0e9f672656)" d="M 248.340421 250.56 
L 251.412481 250.56 
L 251.412481 244.273002 
L 248.340421 244.273002 
z
" style="fill:#f0ad4e;"/>
   </g>
   <g id="patch_187">
    <path clip-path="url(#p0e9f672656)" d="M 251.412481 250.56 
L 254.484542 250.56 
L 254.484542 240.204944 
L 251.412481 240.204944 
z
" style="fill:#f0ad4e;"/>
   </g>
   <g id="patch_188">
    <path clip-path="url(#p0e9f672656)" d="M 254.484542 250.56 
L 257.556603 250.56 
L 257.556603 235.767063 
L 254.484542 235.767063 
z
" style="fill:#f0ad4e;"/>
   </g>
   <g id="patch_189">
    <path clip-path="url(#p0e9f672656)" d="M 257.556603 250.56 
L 260.628663 250.56 
L 260.628663 233.178299 
L 257.556603 233.178299 
z
" style="fill:#f0ad4e;"/>
   </g>
   <g id="patch_190">
    <path clip-path="url(#p0e9f672656)" d="M 260.628663 250.56 
L 263.700724 250.56 
L 263.700724 225.042183 
L 260.628663 225.042183 
z
" style="fill:#f0ad4e;"/>
   </g>
   <g id="patch_191">
    <path clip-path="url(#p0e9f672656)" d="M 263.700724 250.56 
L 266.772785 250.56 
L 266.772785 223.562889 
L 263.700724 223.562889 
z
" style="fill:#f0ad4e;"/>
   </g>
   <g id="patch_192">
    <path clip-path="url(#p0e9f672656)" d="M 266.772785 250.56 
L 269.844845 250.56 
L 269.844845 219.864655 
L 266.772785 219.864655 
z
" style="fill:#f0ad4e;"/>
   </g>
   <g id="patch_193">
    <path clip-path="url(#p0e9f672656)" d="M 269.844845 250.56 
L 272.916906 250.56 
L 272.916906 200.264013 
L 269.844845 200.264013 
z
" style="fill:#f0ad4e;"/>
   </g>
   <g id="patch_194">
    <path clip-path="url(#p0e9f672656)" d="M 272.916906 250.56 
L 275.988967 250.56 
L 275.988967 189.908957 
L 272.916906 189.908957 
z
" style="fill:#f0ad4e;"/>
   </g>
   <g id="patch_195">
    <path clip-path="url(#p0e9f672656)" d="M 275.988967 250.56 
L 279.061027 250.56 
L 279.061027 181.033194 
L 275.988967 181.033194 
z
" style="fill:#f0ad4e;"/>
   </g>
   <g id="patch_196">
    <path clip-path="url(#p0e9f672656)" d="M 279.061027 250.56 
L 282.133088 250.56 
L 282.133088 168.089374 
L 279.061027 168.089374 
z
" style="fill:#f0ad4e;"/>
   </g>
   <g id="patch_197">
    <path clip-path="url(#p0e9f672656)" d="M 282.133088 250.56 
L 285.205149 250.56 
L 285.205149 149.968026 
L 282.133088 149.968026 
z
" style="fill:#f0ad4e;"/>
   </g>
   <g id="patch_198">
    <path clip-path="url(#p0e9f672656)" d="M 285.205149 250.56 
L 288.27721 250.56 
L 288.27721 139.61297 
L 285.205149 139.61297 
z
" style="fill:#f0ad4e;"/>
   </g>
   <g id="patch_199">
    <path clip-path="url(#p0e9f672656)" d="M 288.27721 250.56 
L 291.34927 250.56 
L 291.34927 139.243146 
L 288.27721 139.243146 
z
" style="fill:#f0ad4e;"/>
   </g>
   <g id="patch_200">
    <path clip-path="url(#p0e9f672656)" d="M 291.34927 250.56 
L 294.421331 250.56 
L 294.421331 112.985682 
L 291.34927 112.985682 
z
" style="fill:#f0ad4e;"/>
   </g>
   <g id="patch_201">
    <path clip-path="url(#p0e9f672656)" d="M 294.421331 250.56 
L 297.493392 250.56 
L 297.493392 101.890979 
L 294.421331 101.890979 
z
" style="fill:#f0ad4e;"/>
   </g>
   <g id="patch_202">
    <path clip-path="url(#p0e9f672656)" d="M 297.493392 250.56 
L 300.565452 250.56 
L 300.565452 85.988571 
L 297.493392 85.988571 
z
" style="fill:#f0ad4e;"/>
   </g>
   <g id="patch_203">
    <path clip-path="url(#p0e9f672656)" d="M 300.565452 250.56 
L 303.637513 250.56 
L 303.637513 83.029984 
L 300.565452 83.029984 
z
" style="fill:#f0ad4e;"/>
   </g>
   <g id="patch_204">
    <path clip-path="url(#p0e9f672656)" d="M 303.637513 250.56 
L 306.709574 250.56 
L 306.709574 66.757753 
L 303.637513 66.757753 
z
" style="fill:#f0ad4e;"/>
   </g>
   <g id="patch_205">
    <path clip-path="url(#p0e9f672656)" d="M 306.709574 250.56 
L 309.781634 250.56 
L 309.781634 67.127576 
L 306.709574 67.127576 
z
" style="fill:#f0ad4e;"/>
   </g>
   <g id="patch_206">
    <path clip-path="url(#p0e9f672656)" d="M 309.781634 250.56 
L 312.853695 250.56 
L 312.853695 60.840578 
L 309.781634 60.840578 
z
" style="fill:#f0ad4e;"/>
   </g>
   <g id="patch_207">
    <path clip-path="url(#p0e9f672656)" d="M 312.853695 250.56 
L 315.925756 250.56 
L 315.925756 54.923403 
L 312.853695 54.923403 
z
" style="fill:#f0ad4e;"/>
   </g>
   <g id="patch_208">
    <path clip-path="url(#p0e9f672656)" d="M 315.925756 250.56 
L 318.997816 250.56 
L 318.997816 60.100931 
L 315.925756 60.100931 
z
" style="fill:#f0ad4e;"/>
   </g>
   <g id="patch_209">
    <path clip-path="url(#p0e9f672656)" d="M 318.997816 250.56 
L 322.069877 250.56 
L 322.069877 64.908636 
L 318.997816 64.908636 
z
" style="fill:#f0ad4e;"/>
   </g>
   <g id="patch_210">
    <path clip-path="url(#p0e9f672656)" d="M 322.069877 250.56 
L 325.141938 250.56 
L 325.141938 91.535923 
L 322.069877 91.535923 
z
" style="fill:#f0ad4e;"/>
   </g>
   <g id="patch_211">
    <path clip-path="url(#p0e9f672656)" d="M 325.141938 250.56 
L 328.213998 250.56 
L 328.213998 88.947159 
L 325.141938 88.947159 
z
" style="fill:#f0ad4e;"/>
   </g>
   <g id="patch_212">
    <path clip-path="url(#p0e9f672656)" d="M 328.213998 250.56 
L 331.286059 250.56 
L 331.286059 117.05374 
L 328.213998 117.05374 
z
" style="fill:#f0ad4e;"/>
   </g>
   <g id="patch_213">
    <path clip-path="url(#p0e9f672656)" d="M 331.286059 250.56 
L 334.35812 250.56 
L 334.35812 125.189856 
L 331.286059 125.189856 
z
" style="fill:#f0ad4e;"/>
   </g>
   <g id="patch_214">
    <path clip-path="url(#p0e9f672656)" d="M 334.35812 250.56 
L 337.43018 250.56 
L 337.43018 137.394029 
L 334.35812 137.394029 
z
" style="fill:#f0ad4e;"/>
   </g>
   <g id="patch_215">
    <path clip-path="url(#p0e9f672656)" d="M 337.43018 250.56 
L 340.502241 250.56 
L 340.502241 150.337849 
L 337.43018 150.337849 
z
" style="fill:#f0ad4e;"/>
   </g>
   <g id="patch_216">
    <path clip-path="url(#p0e9f672656)" d="M 340.502241 250.56 
L 343.574302 250.56 
L 343.574302 165.50061 
L 340.502241 165.50061 
z
" style="fill:#f0ad4e;"/>
   </g>
   <g id="patch_217">
    <path clip-path="url(#p0e9f672656)" d="M 343.574302 250.56 
L 346.646362 250.56 
L 346.646362 174.006549 
L 343.574302 174.006549 
z
" style="fill:#f0ad4e;"/>
   </g>
   <g id="patch_218">
    <path clip-path="url(#p0e9f672656)" d="M 346.646362 250.56 
L 349.718423 250.56 
L 349.718423 194.346838 
L 346.646362 194.346838 
z
" style="fill:#f0ad4e;"/>
   </g>
   <g id="patch_219">
    <path clip-path="url(#p0e9f672656)" d="M 349.718423 250.56 
L 352.790484 250.56 
L 352.790484 201.00366 
L 349.718423 201.00366 
z
" style="fill:#f0ad4e;"/>
   </g>
   <g id="patch_220">
    <path clip-path="url(#p0e9f672656)" d="M 352.790484 250.56 
L 355.862545 250.56 
L 355.862545 209.879422 
L 352.790484 209.879422 
z
" style="fill:#f0ad4e;"/>
   </g>
   <g id="patch_221">
    <path clip-path="url(#p0e9f672656)" d="M 355.862545 250.56 
L 358.934605 250.56 
L 358.934605 220.604302 
L 355.862545 220.604302 
z
" style="fill:#f0ad4e;"/>
   </g>
   <g id="patch_222">
    <path clip-path="url(#p0e9f672656)" d="M 358.934605 250.56 
L 362.006666 250.56 
L 362.006666 225.78183 
L 358.934605 225.78183 
z
" style="fill:#f0ad4e;"/>
   </g>
   <g id="patch_223">
    <path clip-path="url(#p0e9f672656)" d="M 362.006666 250.56 
L 365.078727 250.56 
L 365.078727 231.699005 
L 362.006666 231.699005 
z
" style="fill:#f0ad4e;"/>
   </g>
   <g id="patch_224">
    <path clip-path="url(#p0e9f672656)" d="M 365.078727 250.56 
L 368.150787 250.56 
L 368.150787 237.986003 
L 365.078727 237.986003 
z
" style="fill:#f0ad4e;"/>
   </g>
   <g id="patch_225">
    <path clip-path="url(#p0e9f672656)" d="M 368.150787 250.56 
L 371.222848 250.56 
L 371.222848 238.72565 
L 368.150787 238.72565 
z
" style="fill:#f0ad4e;"/>
   </g>
   <g id="patch_226">
    <path clip-path="url(#p0e9f672656)" d="M 371.222848 250.56 
L 374.294909 250.56 
L 374.294909 242.423884 
L 371.222848 242.423884 
z
" style="fill:#f0ad4e;"/>
   </g>
   <g id="patch_227">
    <path clip-path="url(#p0e9f672656)" d="M 374.294909 250.56 
L 377.366969 250.56 
L 377.366969 247.601413 
L 374.294909 247.601413 
z
" style="fill:#f0ad4e;"/>
   </g>
   <g id="patch_228">
    <path clip-path="url(#p0e9f672656)" d="M 377.366969 250.56 
L 380.43903 250.56 
L 380.43903 246.861766 
L 377.366969 246.861766 
z
" style="fill:#f0ad4e;"/>
   </g>
   <g id="patch_229">
    <path clip-path="url(#p0e9f672656)" d="M 380.43903 250.56 
L 383.511091 250.56 
L 383.511091 249.080706 
L 380.43903 249.080706 
z
" style="fill:#f0ad4e;"/>
   </g>
   <g id="patch_230">
    <path clip-path="url(#p0e9f672656)" d="M 383.511091 250.56 
L 386.583151 250.56 
L 386.583151 249.45053 
L 383.511091 249.45053 
z
" style="fill:#f0ad4e;"/>
   </g>
   <g id="patch_231">
    <path clip-path="url(#p0e9f672656)" d="M 386.583151 250.56 
L 389.655212 250.56 
L 389.655212 249.820353 
L 386.583151 249.820353 
z
" style="fill:#f0ad4e;"/>
   </g>
   <g id="patch_232">
    <path clip-path="url(#p0e9f672656)" d="M 389.655212 250.56 
L 392.727273 250.56 
L 392.727273 249.820353 
L 389.655212 249.820353 
z
" style="fill:#f0ad4e;"/>
   </g>
  </g>
  <g id="axes_6">
   <g id="line2d_7">
    <path clip-path="url(#p0e9f672656)" d="M 264.482703 250.56 
L 264.482703 136.512 
" style="fill:none;stroke:#d9534f;stroke-linecap:square;stroke-width:2;"/>
   </g>
   <g id="line2d_8">
    <path clip-path="url(#p0e9f672656)" d="M 358.320193 250.56 
L 358.320193 136.512 
" style="fill:none;stroke:#d9534f;stroke-linecap:square;stroke-width:2;"/>
   </g>
   <g id="text_8">
    <!-- 2.5$^{th}$ -->
    <defs>
     <path d="M 42.28125 54.6875 
L 40.921875 47.703125 
L 23 47.703125 
L 17.1875 18.015625 
Q 16.890625 16.359375 16.75 15.234375 
Q 16.609375 14.109375 16.609375 13.484375 
Q 16.609375 10.359375 18.484375 8.9375 
Q 20.359375 7.515625 24.515625 7.515625 
L 33.59375 7.515625 
L 32.078125 0 
L 23.484375 0 
Q 15.484375 0 11.546875 3.125 
Q 7.625 6.25 7.625 12.59375 
Q 7.625 13.71875 7.765625 15.0625 
Q 7.90625 16.40625 8.203125 18.015625 
L 14.015625 47.703125 
L 6.390625 47.703125 
L 7.8125 54.6875 
L 15.28125 54.6875 
L 18.3125 70.21875 
L 27.296875 70.21875 
L 24.3125 54.6875 
z
" id="DejaVuSans-Oblique-74"/>
     <path d="M 55.71875 33.015625 
L 49.3125 0 
L 40.28125 0 
L 46.6875 32.671875 
Q 47.125 34.96875 47.359375 36.71875 
Q 47.609375 38.484375 47.609375 39.5 
Q 47.609375 43.609375 45.015625 45.890625 
Q 42.4375 48.1875 37.796875 48.1875 
Q 30.5625 48.1875 25.265625 43.296875 
Q 19.96875 38.421875 18.40625 30.328125 
L 12.5 0 
L 3.515625 0 
L 18.3125 75.984375 
L 27.296875 75.984375 
L 21.484375 46.09375 
Q 24.90625 50.6875 30.21875 53.34375 
Q 35.546875 56 41.40625 56 
Q 48.640625 56 52.609375 52.09375 
Q 56.59375 48.1875 56.59375 41.109375 
Q 56.59375 39.359375 56.375 37.359375 
Q 56.15625 35.359375 55.71875 33.015625 
" id="DejaVuSans-Oblique-68"/>
    </defs>
    <g style="fill:#d9534f;" transform="translate(246.857703 109.347281)scale(0.15 -0.15)">
     <use transform="translate(0 0.529687)" xlink:href="#DejaVuSans-32"/>
     <use transform="translate(63.623047 0.529687)" xlink:href="#DejaVuSans-2e"/>
     <use transform="translate(95.410156 0.529687)" xlink:href="#DejaVuSans-35"/>
     <use transform="translate(159.990234 38.810937)scale(0.7)" xlink:href="#DejaVuSans-Oblique-74"/>
     <use transform="translate(187.436523 38.810937)scale(0.7)" xlink:href="#DejaVuSans-Oblique-68"/>
    </g>
    <!-- percentile -->
    <defs>
     <path d="M 18.109375 8.203125 
L 18.109375 -20.796875 
L 9.078125 -20.796875 
L 9.078125 54.6875 
L 18.109375 54.6875 
L 18.109375 46.390625 
Q 20.953125 51.265625 25.265625 53.625 
Q 29.59375 56 35.59375 56 
Q 45.5625 56 51.78125 48.09375 
Q 58.015625 40.1875 58.015625 27.296875 
Q 58.015625 14.40625 51.78125 6.484375 
Q 45.5625 -1.421875 35.59375 -1.421875 
Q 29.59375 -1.421875 25.265625 0.953125 
Q 20.953125 3.328125 18.109375 8.203125 
M 48.6875 27.296875 
Q 48.6875 37.203125 44.609375 42.84375 
Q 40.53125 48.484375 33.40625 48.484375 
Q 26.265625 48.484375 22.1875 42.84375 
Q 18.109375 37.203125 18.109375 27.296875 
Q 18.109375 17.390625 22.1875 11.75 
Q 26.265625 6.109375 33.40625 6.109375 
Q 40.53125 6.109375 44.609375 11.75 
Q 48.6875 17.390625 48.6875 27.296875 
" id="DejaVuSans-70"/>
     <path d="M 54.890625 33.015625 
L 54.890625 0 
L 45.90625 0 
L 45.90625 32.71875 
Q 45.90625 40.484375 42.875 44.328125 
Q 39.84375 48.1875 33.796875 48.1875 
Q 26.515625 48.1875 22.3125 43.546875 
Q 18.109375 38.921875 18.109375 30.90625 
L 18.109375 0 
L 9.078125 0 
L 9.078125 54.6875 
L 18.109375 54.6875 
L 18.109375 46.1875 
Q 21.34375 51.125 25.703125 53.5625 
Q 30.078125 56 35.796875 56 
Q 45.21875 56 50.046875 50.171875 
Q 54.890625 44.34375 54.890625 33.015625 
" id="DejaVuSans-6e"/>
     <path d="M 9.421875 75.984375 
L 18.40625 75.984375 
L 18.40625 0 
L 9.421875 0 
z
" id="DejaVuSans-6c"/>
    </defs>
    <g style="fill:#d9534f;" transform="translate(226.811609 126.144)scale(0.15 -0.15)">
     <use xlink:href="#DejaVuSans-70"/>
     <use x="63.476562" xlink:href="#DejaVuSans-65"/>
     <use x="125" xlink:href="#DejaVuSans-72"/>
     <use x="166.082031" xlink:href="#DejaVuSans-63"/>
     <use x="221.0625" xlink:href="#DejaVuSans-65"/>
     <use x="282.585938" xlink:href="#DejaVuSans-6e"/>
     <use x="345.964844" xlink:href="#DejaVuSans-74"/>
     <use x="385.173828" xlink:href="#DejaVuSans-69"/>
     <use x="412.957031" xlink:href="#DejaVuSans-6c"/>
     <use x="440.740234" xlink:href="#DejaVuSans-65"/>
    </g>
   </g>
   <g id="text_9">
    <!-- 97.5$^{th}$ -->
    <defs>
     <path d="M 10.984375 1.515625 
L 10.984375 10.5 
Q 14.703125 8.734375 18.5 7.8125 
Q 22.3125 6.890625 25.984375 6.890625 
Q 35.75 6.890625 40.890625 13.453125 
Q 46.046875 20.015625 46.78125 33.40625 
Q 43.953125 29.203125 39.59375 26.953125 
Q 35.25 24.703125 29.984375 24.703125 
Q 19.046875 24.703125 12.671875 31.3125 
Q 6.296875 37.9375 6.296875 49.421875 
Q 6.296875 60.640625 12.9375 67.421875 
Q 19.578125 74.21875 30.609375 74.21875 
Q 43.265625 74.21875 49.921875 64.515625 
Q 56.59375 54.828125 56.59375 36.375 
Q 56.59375 19.140625 48.40625 8.859375 
Q 40.234375 -1.421875 26.421875 -1.421875 
Q 22.703125 -1.421875 18.890625 -0.6875 
Q 15.09375 0.046875 10.984375 1.515625 
M 30.609375 32.421875 
Q 37.25 32.421875 41.125 36.953125 
Q 45.015625 41.5 45.015625 49.421875 
Q 45.015625 57.28125 41.125 61.84375 
Q 37.25 66.40625 30.609375 66.40625 
Q 23.96875 66.40625 20.09375 61.84375 
Q 16.21875 57.28125 16.21875 49.421875 
Q 16.21875 41.5 20.09375 36.953125 
Q 23.96875 32.421875 30.609375 32.421875 
" id="DejaVuSans-39"/>
     <path d="M 8.203125 72.90625 
L 55.078125 72.90625 
L 55.078125 68.703125 
L 28.609375 0 
L 18.3125 0 
L 43.21875 64.59375 
L 8.203125 64.59375 
z
" id="DejaVuSans-37"/>
    </defs>
    <g style="fill:#d9534f;" transform="translate(335.895193 109.347281)scale(0.15 -0.15)">
     <use transform="translate(0 0.529687)" xlink:href="#DejaVuSans-39"/>
     <use transform="translate(63.623047 0.529687)" xlink:href="#DejaVuSans-37"/>
     <use transform="translate(127.246094 0.529687)" xlink:href="#DejaVuSans-2e"/>
     <use transform="translate(159.033203 0.529687)" xlink:href="#DejaVuSans-35"/>
     <use transform="translate(223.613281 38.810937)scale(0.7)" xlink:href="#DejaVuSans-Oblique-74"/>
     <use transform="translate(251.05957 38.810937)scale(0.7)" xlink:href="#DejaVuSans-Oblique-68"/>
    </g>
    <!-- percentile -->
    <g style="fill:#d9534f;" transform="translate(320.649099 126.144)scale(0.15 -0.15)">
     <use xlink:href="#DejaVuSans-70"/>
     <use x="63.476562" xlink:href="#DejaVuSans-65"/>
     <use x="125" xlink:href="#DejaVuSans-72"/>
     <use x="166.082031" xlink:href="#DejaVuSans-63"/>
     <use x="221.0625" xlink:href="#DejaVuSans-65"/>
     <use x="282.585938" xlink:href="#DejaVuSans-6e"/>
     <use x="345.964844" xlink:href="#DejaVuSans-74"/>
     <use x="385.173828" xlink:href="#DejaVuSans-69"/>
     <use x="412.957031" xlink:href="#DejaVuSans-6c"/>
     <use x="440.740234" xlink:href="#DejaVuSans-65"/>
    </g>
   </g>
  </g>
 </g>
 <defs>
  <clipPath id="p0e9f672656">
   <rect height="207.36" width="388.8" x="21.6" y="43.2"/>
  </clipPath>
 </defs>
</svg>
