<?xml version="1.0" encoding="utf-8"?>
<!-- Generator: Adobe Illustrator 16.0.4, SVG Export Plug-In . SVG Version: 6.00 Build 0)  -->
<!DOCTYPE svg PUBLIC "-//W3C//DTD SVG 1.1//EN" "http://www.w3.org/Graphics/SVG/1.1/DTD/svg11.dtd">
<svg version="1.1" id="Layer_1" xmlns="http://www.w3.org/2000/svg" xmlns:xlink="http://www.w3.org/1999/xlink" x="0px" y="0px"
	 width="108px" height="36px" viewBox="0 0 108 36" enable-background="new 0 0 108 36" xml:space="preserve">
<g>
	<path fill="#FFFFFF" d="M78.753,3.775l1.284,3.414l1.278-3.414h0.714l-1.704,4.26h-0.576l-1.71-4.26H78.753z"/>
	<path fill="#FFFFFF" d="M83.001,8.095c-0.152,0-0.293-0.025-0.423-0.075c-0.13-0.05-0.242-0.119-0.336-0.207
		c-0.094-0.088-0.168-0.192-0.222-0.312c-0.054-0.12-0.081-0.25-0.081-0.39c0-0.148,0.032-0.282,0.096-0.402
		c0.064-0.12,0.155-0.224,0.273-0.312c0.118-0.088,0.258-0.156,0.42-0.204c0.162-0.048,0.341-0.072,0.537-0.072
		c0.148,0,0.294,0.013,0.438,0.039s0.274,0.061,0.39,0.105V6.049c0-0.232-0.066-0.413-0.198-0.543
		c-0.132-0.13-0.322-0.195-0.57-0.195c-0.168,0-0.333,0.031-0.495,0.093s-0.329,0.151-0.501,0.267l-0.204-0.42
		c0.404-0.272,0.824-0.408,1.26-0.408c0.432,0,0.768,0.11,1.008,0.33c0.24,0.22,0.36,0.536,0.36,0.948v1.134
		c0,0.14,0.058,0.212,0.174,0.216v0.564c-0.063,0.012-0.118,0.02-0.165,0.024c-0.046,0.004-0.091,0.006-0.135,0.006
		c-0.128,0-0.227-0.032-0.297-0.096c-0.07-0.064-0.113-0.146-0.129-0.246l-0.018-0.198c-0.14,0.184-0.313,0.325-0.519,0.423
		C83.458,8.046,83.237,8.095,83.001,8.095z M83.181,7.609c0.16,0,0.311-0.029,0.453-0.087c0.142-0.058,0.253-0.139,0.333-0.243
		c0.084-0.072,0.126-0.148,0.126-0.228V6.637c-0.112-0.044-0.231-0.078-0.357-0.102s-0.249-0.036-0.369-0.036
		c-0.236,0-0.429,0.051-0.579,0.153s-0.225,0.237-0.225,0.405c0,0.156,0.058,0.287,0.174,0.393
		C82.853,7.556,83.001,7.609,83.181,7.609z"/>
	<path fill="#FFFFFF" d="M87.314,5.467c-0.256,0.008-0.482,0.067-0.682,0.177c-0.197,0.11-0.338,0.267-0.422,0.471v1.92h-0.66V4.897
		h0.611v0.702c0.109-0.216,0.25-0.389,0.424-0.519s0.361-0.201,0.561-0.213c0.041,0,0.072,0,0.1,0c0.025,0,0.049,0.002,0.068,0.006
		V5.467z"/>
	<path fill="#FFFFFF" d="M87.795,4.381V3.655h0.66v0.726H87.795z M87.795,8.035V4.897h0.66v3.138H87.795z"/>
	<path fill="#FFFFFF" d="M90.082,8.095c-0.152,0-0.295-0.025-0.424-0.075c-0.131-0.05-0.242-0.119-0.336-0.207
		c-0.094-0.088-0.168-0.192-0.223-0.312c-0.053-0.12-0.08-0.25-0.08-0.39c0-0.148,0.031-0.282,0.096-0.402
		c0.064-0.12,0.154-0.224,0.273-0.312c0.117-0.088,0.258-0.156,0.42-0.204c0.162-0.048,0.34-0.072,0.537-0.072
		c0.146,0,0.293,0.013,0.438,0.039s0.273,0.061,0.391,0.105V6.049c0-0.232-0.066-0.413-0.199-0.543
		c-0.131-0.13-0.322-0.195-0.57-0.195c-0.168,0-0.332,0.031-0.494,0.093s-0.33,0.151-0.502,0.267l-0.203-0.42
		c0.404-0.272,0.824-0.408,1.26-0.408c0.432,0,0.768,0.11,1.008,0.33c0.24,0.22,0.361,0.536,0.361,0.948v1.134
		c0,0.14,0.057,0.212,0.174,0.216v0.564c-0.064,0.012-0.119,0.02-0.166,0.024c-0.045,0.004-0.09,0.006-0.135,0.006
		c-0.129,0-0.227-0.032-0.297-0.096s-0.113-0.146-0.129-0.246l-0.018-0.198c-0.141,0.184-0.314,0.325-0.52,0.423
		C90.537,8.046,90.316,8.095,90.082,8.095z M90.262,7.609c0.16,0,0.311-0.029,0.453-0.087c0.141-0.058,0.252-0.139,0.332-0.243
		c0.084-0.072,0.127-0.148,0.127-0.228V6.637c-0.113-0.044-0.232-0.078-0.357-0.102c-0.127-0.024-0.25-0.036-0.369-0.036
		c-0.236,0-0.43,0.051-0.58,0.153c-0.148,0.102-0.225,0.237-0.225,0.405c0,0.156,0.059,0.287,0.174,0.393
		C89.934,7.556,90.082,7.609,90.262,7.609z"/>
	<path fill="#FFFFFF" d="M94.322,8.095c-0.24,0-0.457-0.057-0.65-0.171c-0.193-0.114-0.348-0.267-0.459-0.459v0.57h-0.582v-4.38
		h0.66v1.836c0.123-0.2,0.279-0.358,0.465-0.474c0.186-0.116,0.404-0.174,0.656-0.174c0.209,0,0.398,0.045,0.57,0.135
		c0.172,0.09,0.32,0.21,0.441,0.36c0.121,0.15,0.217,0.324,0.281,0.522c0.066,0.198,0.1,0.405,0.1,0.621
		c0,0.224-0.037,0.434-0.113,0.63c-0.076,0.196-0.18,0.367-0.312,0.513s-0.289,0.261-0.471,0.345S94.531,8.095,94.322,8.095z
		 M94.148,7.531c0.145,0,0.277-0.029,0.396-0.087c0.119-0.058,0.223-0.135,0.309-0.231c0.086-0.096,0.154-0.207,0.201-0.333
		c0.049-0.126,0.072-0.259,0.072-0.399c0-0.14-0.023-0.275-0.068-0.405c-0.047-0.13-0.111-0.244-0.193-0.342
		c-0.082-0.098-0.18-0.177-0.293-0.237c-0.115-0.06-0.24-0.09-0.375-0.09c-0.205,0-0.385,0.066-0.543,0.198
		c-0.158,0.132-0.279,0.292-0.363,0.48v0.828c0.023,0.092,0.066,0.175,0.125,0.249c0.061,0.074,0.131,0.139,0.211,0.195
		c0.08,0.056,0.166,0.099,0.258,0.129C93.977,7.516,94.064,7.531,94.148,7.531z"/>
	<path fill="#FFFFFF" d="M96.404,3.655h0.66v3.474c0,0.116,0.029,0.207,0.09,0.273c0.061,0.066,0.145,0.099,0.252,0.099
		c0.045,0,0.096-0.008,0.152-0.024c0.059-0.016,0.113-0.034,0.166-0.054l0.096,0.516c-0.096,0.044-0.209,0.079-0.342,0.105
		c-0.133,0.026-0.25,0.039-0.354,0.039c-0.229,0-0.406-0.062-0.531-0.186c-0.127-0.124-0.189-0.3-0.189-0.528V3.655z"/>
	<path fill="#FFFFFF" d="M99.627,8.095c-0.244,0-0.467-0.043-0.666-0.129C98.76,7.88,98.59,7.763,98.447,7.615
		s-0.252-0.32-0.33-0.516C98.039,6.903,98,6.695,98,6.475c0-0.22,0.039-0.429,0.117-0.627c0.078-0.198,0.188-0.372,0.33-0.522
		s0.312-0.268,0.514-0.354c0.199-0.086,0.424-0.129,0.672-0.129c0.244,0,0.465,0.044,0.662,0.132s0.367,0.205,0.508,0.351
		c0.139,0.146,0.246,0.316,0.32,0.51c0.074,0.194,0.111,0.397,0.111,0.609c0,0.048-0.002,0.093-0.006,0.135
		s-0.008,0.077-0.012,0.105h-2.516c0.014,0.14,0.047,0.266,0.1,0.378c0.055,0.112,0.125,0.209,0.211,0.291
		c0.086,0.082,0.184,0.145,0.293,0.189c0.111,0.044,0.225,0.066,0.346,0.066c0.088,0,0.174-0.011,0.26-0.033
		c0.088-0.022,0.166-0.054,0.238-0.096s0.135-0.093,0.191-0.153s0.1-0.126,0.133-0.198l0.562,0.162
		c-0.107,0.236-0.285,0.429-0.535,0.579S99.959,8.095,99.627,8.095z M100.58,6.229c-0.012-0.132-0.045-0.254-0.1-0.366
		c-0.053-0.112-0.123-0.207-0.207-0.285s-0.182-0.139-0.293-0.183c-0.113-0.044-0.23-0.066-0.354-0.066
		c-0.125,0-0.242,0.022-0.352,0.066c-0.109,0.044-0.207,0.105-0.291,0.183s-0.152,0.173-0.205,0.285
		c-0.051,0.112-0.084,0.234-0.096,0.366H100.58z"/>
	<path fill="#FFFFFF" d="M105.543,7.441v0.594h-2.293V7.441h0.854V5.347c-0.037,0.048-0.092,0.098-0.168,0.15
		c-0.076,0.052-0.16,0.1-0.252,0.144c-0.094,0.044-0.189,0.081-0.289,0.111c-0.1,0.03-0.188,0.045-0.264,0.045V5.179
		c0.08,0,0.174-0.024,0.279-0.072c0.105-0.048,0.207-0.104,0.307-0.168c0.098-0.064,0.184-0.128,0.258-0.192
		c0.072-0.064,0.117-0.11,0.129-0.138h0.678v2.832H105.543z"/>
</g>
<g>
	<path fill="#FFFFFF" d="M78.753,15.152l1.284,3.414l1.278-3.414h0.714l-1.704,4.26h-0.576l-1.71-4.26H78.753z"/>
	<path fill="#FFFFFF" d="M83.001,19.472c-0.152,0-0.293-0.025-0.423-0.075c-0.13-0.05-0.242-0.119-0.336-0.207
		c-0.094-0.088-0.168-0.192-0.222-0.312c-0.054-0.12-0.081-0.25-0.081-0.39c0-0.148,0.032-0.282,0.096-0.402
		c0.064-0.12,0.155-0.224,0.273-0.312c0.118-0.088,0.258-0.156,0.42-0.204c0.162-0.048,0.341-0.072,0.537-0.072
		c0.148,0,0.294,0.013,0.438,0.039s0.274,0.061,0.39,0.105v-0.216c0-0.232-0.066-0.413-0.198-0.543
		c-0.132-0.13-0.322-0.195-0.57-0.195c-0.168,0-0.333,0.031-0.495,0.093s-0.329,0.151-0.501,0.267l-0.204-0.42
		c0.404-0.272,0.824-0.408,1.26-0.408c0.432,0,0.768,0.11,1.008,0.33c0.24,0.22,0.36,0.536,0.36,0.948v1.134
		c0,0.14,0.058,0.212,0.174,0.216v0.564c-0.063,0.012-0.118,0.02-0.165,0.024c-0.046,0.004-0.091,0.006-0.135,0.006
		c-0.128,0-0.227-0.032-0.297-0.096c-0.07-0.064-0.113-0.146-0.129-0.246l-0.018-0.198c-0.14,0.184-0.313,0.325-0.519,0.423
		C83.458,19.422,83.237,19.472,83.001,19.472z M83.181,18.986c0.16,0,0.311-0.029,0.453-0.087c0.142-0.058,0.253-0.139,0.333-0.243
		c0.084-0.072,0.126-0.148,0.126-0.228v-0.414c-0.112-0.044-0.231-0.078-0.357-0.102s-0.249-0.036-0.369-0.036
		c-0.236,0-0.429,0.051-0.579,0.153s-0.225,0.237-0.225,0.405c0,0.156,0.058,0.287,0.174,0.393
		C82.853,18.933,83.001,18.986,83.181,18.986z"/>
	<path fill="#FFFFFF" d="M87.314,16.844c-0.256,0.008-0.482,0.067-0.682,0.177c-0.197,0.11-0.338,0.267-0.422,0.471v1.92h-0.66
		v-3.138h0.611v0.702c0.109-0.216,0.25-0.389,0.424-0.519s0.361-0.201,0.561-0.213c0.041,0,0.072,0,0.1,0
		c0.025,0,0.049,0.002,0.068,0.006V16.844z"/>
	<path fill="#FFFFFF" d="M87.795,15.758v-0.726h0.66v0.726H87.795z M87.795,19.412v-3.138h0.66v3.138H87.795z"/>
	<path fill="#FFFFFF" d="M90.082,19.472c-0.152,0-0.295-0.025-0.424-0.075c-0.131-0.05-0.242-0.119-0.336-0.207
		c-0.094-0.088-0.168-0.192-0.223-0.312c-0.053-0.12-0.08-0.25-0.08-0.39c0-0.148,0.031-0.282,0.096-0.402
		c0.064-0.12,0.154-0.224,0.273-0.312c0.117-0.088,0.258-0.156,0.42-0.204c0.162-0.048,0.34-0.072,0.537-0.072
		c0.146,0,0.293,0.013,0.438,0.039s0.273,0.061,0.391,0.105v-0.216c0-0.232-0.066-0.413-0.199-0.543
		c-0.131-0.13-0.322-0.195-0.57-0.195c-0.168,0-0.332,0.031-0.494,0.093s-0.33,0.151-0.502,0.267l-0.203-0.42
		c0.404-0.272,0.824-0.408,1.26-0.408c0.432,0,0.768,0.11,1.008,0.33c0.24,0.22,0.361,0.536,0.361,0.948v1.134
		c0,0.14,0.057,0.212,0.174,0.216v0.564c-0.064,0.012-0.119,0.02-0.166,0.024c-0.045,0.004-0.09,0.006-0.135,0.006
		c-0.129,0-0.227-0.032-0.297-0.096S91.297,19.2,91.281,19.1l-0.018-0.198c-0.141,0.184-0.314,0.325-0.52,0.423
		C90.537,19.422,90.316,19.472,90.082,19.472z M90.262,18.986c0.16,0,0.311-0.029,0.453-0.087c0.141-0.058,0.252-0.139,0.332-0.243
		c0.084-0.072,0.127-0.148,0.127-0.228v-0.414c-0.113-0.044-0.232-0.078-0.357-0.102c-0.127-0.024-0.25-0.036-0.369-0.036
		c-0.236,0-0.43,0.051-0.58,0.153c-0.148,0.102-0.225,0.237-0.225,0.405c0,0.156,0.059,0.287,0.174,0.393
		C89.934,18.933,90.082,18.986,90.262,18.986z"/>
	<path fill="#FFFFFF" d="M94.322,19.472c-0.24,0-0.457-0.057-0.65-0.171c-0.193-0.114-0.348-0.267-0.459-0.459v0.57h-0.582v-4.38
		h0.66v1.836c0.123-0.2,0.279-0.358,0.465-0.474c0.186-0.116,0.404-0.174,0.656-0.174c0.209,0,0.398,0.045,0.57,0.135
		c0.172,0.09,0.32,0.21,0.441,0.36c0.121,0.15,0.217,0.324,0.281,0.522c0.066,0.198,0.1,0.405,0.1,0.621
		c0,0.224-0.037,0.434-0.113,0.63c-0.076,0.196-0.18,0.367-0.312,0.513s-0.289,0.261-0.471,0.345S94.531,19.472,94.322,19.472z
		 M94.148,18.908c0.145,0,0.277-0.029,0.396-0.087c0.119-0.058,0.223-0.135,0.309-0.231c0.086-0.096,0.154-0.207,0.201-0.333
		c0.049-0.126,0.072-0.259,0.072-0.399c0-0.14-0.023-0.275-0.068-0.405c-0.047-0.13-0.111-0.244-0.193-0.342
		c-0.082-0.098-0.18-0.177-0.293-0.237c-0.115-0.06-0.24-0.09-0.375-0.09c-0.205,0-0.385,0.066-0.543,0.198
		c-0.158,0.132-0.279,0.292-0.363,0.48v0.828c0.023,0.092,0.066,0.175,0.125,0.249c0.061,0.074,0.131,0.139,0.211,0.195
		c0.08,0.056,0.166,0.099,0.258,0.129C93.977,18.893,94.064,18.908,94.148,18.908z"/>
	<path fill="#FFFFFF" d="M96.404,15.032h0.66v3.474c0,0.116,0.029,0.207,0.09,0.273c0.061,0.066,0.145,0.099,0.252,0.099
		c0.045,0,0.096-0.008,0.152-0.024c0.059-0.016,0.113-0.034,0.166-0.054l0.096,0.516c-0.096,0.044-0.209,0.079-0.342,0.105
		c-0.133,0.026-0.25,0.039-0.354,0.039c-0.229,0-0.406-0.062-0.531-0.186c-0.127-0.124-0.189-0.3-0.189-0.528V15.032z"/>
	<path fill="#FFFFFF" d="M99.627,19.472c-0.244,0-0.467-0.043-0.666-0.129c-0.201-0.086-0.371-0.203-0.514-0.351
		s-0.252-0.32-0.33-0.516C98.039,18.28,98,18.072,98,17.852c0-0.22,0.039-0.429,0.117-0.627c0.078-0.198,0.188-0.372,0.33-0.522
		s0.312-0.268,0.514-0.354c0.199-0.086,0.424-0.129,0.672-0.129c0.244,0,0.465,0.044,0.662,0.132s0.367,0.205,0.508,0.351
		c0.139,0.146,0.246,0.316,0.32,0.51c0.074,0.194,0.111,0.397,0.111,0.609c0,0.048-0.002,0.093-0.006,0.135
		s-0.008,0.077-0.012,0.105h-2.516c0.014,0.14,0.047,0.266,0.1,0.378c0.055,0.112,0.125,0.209,0.211,0.291
		c0.086,0.082,0.184,0.145,0.293,0.189c0.111,0.044,0.225,0.066,0.346,0.066c0.088,0,0.174-0.011,0.26-0.033
		c0.088-0.022,0.166-0.054,0.238-0.096s0.135-0.093,0.191-0.153s0.1-0.126,0.133-0.198l0.562,0.162
		c-0.107,0.236-0.285,0.429-0.535,0.579S99.959,19.472,99.627,19.472z M100.58,17.605c-0.012-0.132-0.045-0.254-0.1-0.366
		c-0.053-0.112-0.123-0.207-0.207-0.285s-0.182-0.139-0.293-0.183c-0.113-0.044-0.23-0.066-0.354-0.066
		c-0.125,0-0.242,0.022-0.352,0.066c-0.109,0.044-0.207,0.105-0.291,0.183s-0.152,0.173-0.205,0.285
		c-0.051,0.112-0.084,0.234-0.096,0.366H100.58z"/>
	<path fill="#FFFFFF" d="M103.102,19.412c0-0.168,0.014-0.324,0.041-0.468c0.027-0.144,0.078-0.279,0.15-0.405
		s0.17-0.246,0.293-0.36c0.125-0.114,0.285-0.225,0.48-0.333c0.141-0.076,0.271-0.146,0.396-0.21
		c0.123-0.064,0.232-0.127,0.326-0.189s0.17-0.128,0.227-0.198c0.055-0.07,0.084-0.151,0.084-0.243c0-0.128-0.057-0.243-0.166-0.345
		s-0.27-0.153-0.477-0.153c-0.107,0-0.207,0.015-0.297,0.045c-0.09,0.03-0.172,0.068-0.246,0.114
		c-0.074,0.046-0.139,0.097-0.195,0.153c-0.057,0.056-0.105,0.11-0.15,0.162l-0.42-0.486c0.041-0.044,0.104-0.099,0.189-0.165
		s0.189-0.129,0.312-0.189c0.121-0.06,0.26-0.111,0.416-0.153s0.326-0.063,0.51-0.063c0.193,0,0.365,0.025,0.52,0.075
		c0.154,0.05,0.283,0.119,0.391,0.207c0.105,0.088,0.186,0.193,0.242,0.315c0.057,0.122,0.084,0.253,0.084,0.393
		c0,0.148-0.029,0.28-0.09,0.396c-0.061,0.116-0.135,0.218-0.223,0.306s-0.184,0.163-0.287,0.225s-0.199,0.115-0.287,0.159
		c-0.084,0.04-0.18,0.087-0.285,0.141c-0.107,0.054-0.209,0.116-0.311,0.186c-0.1,0.07-0.189,0.145-0.27,0.225
		s-0.135,0.168-0.168,0.264h1.986v0.594H103.102z"/>
</g>
<g>
	<path fill="#FFFFFF" d="M78.753,26.529l1.284,3.414l1.278-3.414h0.714l-1.704,4.26h-0.576l-1.71-4.26H78.753z"/>
	<path fill="#FFFFFF" d="M83.001,30.849c-0.152,0-0.293-0.025-0.423-0.075c-0.13-0.05-0.242-0.119-0.336-0.207
		c-0.094-0.088-0.168-0.192-0.222-0.312c-0.054-0.12-0.081-0.25-0.081-0.39c0-0.148,0.032-0.282,0.096-0.402
		c0.064-0.12,0.155-0.224,0.273-0.312c0.118-0.088,0.258-0.156,0.42-0.204c0.162-0.048,0.341-0.072,0.537-0.072
		c0.148,0,0.294,0.013,0.438,0.039s0.274,0.061,0.39,0.105v-0.216c0-0.232-0.066-0.413-0.198-0.543
		c-0.132-0.13-0.322-0.195-0.57-0.195c-0.168,0-0.333,0.031-0.495,0.093s-0.329,0.151-0.501,0.267l-0.204-0.42
		c0.404-0.272,0.824-0.408,1.26-0.408c0.432,0,0.768,0.11,1.008,0.33c0.24,0.22,0.36,0.536,0.36,0.948v1.134
		c0,0.14,0.058,0.212,0.174,0.216v0.564c-0.063,0.012-0.118,0.02-0.165,0.024c-0.046,0.004-0.091,0.006-0.135,0.006
		c-0.128,0-0.227-0.032-0.297-0.096c-0.07-0.064-0.113-0.146-0.129-0.246l-0.018-0.198c-0.14,0.184-0.313,0.325-0.519,0.423
		C83.458,30.799,83.237,30.849,83.001,30.849z M83.181,30.363c0.16,0,0.311-0.029,0.453-0.087c0.142-0.058,0.253-0.139,0.333-0.243
		c0.084-0.072,0.126-0.148,0.126-0.228v-0.414c-0.112-0.044-0.231-0.078-0.357-0.102s-0.249-0.036-0.369-0.036
		c-0.236,0-0.429,0.051-0.579,0.153s-0.225,0.237-0.225,0.405c0,0.156,0.058,0.287,0.174,0.393
		C82.853,30.31,83.001,30.363,83.181,30.363z"/>
	<path fill="#FFFFFF" d="M87.314,28.221c-0.256,0.008-0.482,0.067-0.682,0.177c-0.197,0.11-0.338,0.267-0.422,0.471v1.92h-0.66
		V27.65h0.611v0.702c0.109-0.216,0.25-0.389,0.424-0.519s0.361-0.201,0.561-0.213c0.041,0,0.072,0,0.1,0
		c0.025,0,0.049,0.002,0.068,0.006V28.221z"/>
	<path fill="#FFFFFF" d="M87.795,27.135v-0.726h0.66v0.726H87.795z M87.795,30.789V27.65h0.66v3.138H87.795z"/>
	<path fill="#FFFFFF" d="M90.082,30.849c-0.152,0-0.295-0.025-0.424-0.075c-0.131-0.05-0.242-0.119-0.336-0.207
		c-0.094-0.088-0.168-0.192-0.223-0.312c-0.053-0.12-0.08-0.25-0.08-0.39c0-0.148,0.031-0.282,0.096-0.402
		c0.064-0.12,0.154-0.224,0.273-0.312c0.117-0.088,0.258-0.156,0.42-0.204c0.162-0.048,0.34-0.072,0.537-0.072
		c0.146,0,0.293,0.013,0.438,0.039s0.273,0.061,0.391,0.105v-0.216c0-0.232-0.066-0.413-0.199-0.543
		c-0.131-0.13-0.322-0.195-0.57-0.195c-0.168,0-0.332,0.031-0.494,0.093s-0.33,0.151-0.502,0.267l-0.203-0.42
		c0.404-0.272,0.824-0.408,1.26-0.408c0.432,0,0.768,0.11,1.008,0.33c0.24,0.22,0.361,0.536,0.361,0.948v1.134
		c0,0.14,0.057,0.212,0.174,0.216v0.564c-0.064,0.012-0.119,0.02-0.166,0.024c-0.045,0.004-0.09,0.006-0.135,0.006
		c-0.129,0-0.227-0.032-0.297-0.096s-0.113-0.146-0.129-0.246l-0.018-0.198c-0.141,0.184-0.314,0.325-0.52,0.423
		C90.537,30.799,90.316,30.849,90.082,30.849z M90.262,30.363c0.16,0,0.311-0.029,0.453-0.087c0.141-0.058,0.252-0.139,0.332-0.243
		c0.084-0.072,0.127-0.148,0.127-0.228v-0.414c-0.113-0.044-0.232-0.078-0.357-0.102c-0.127-0.024-0.25-0.036-0.369-0.036
		c-0.236,0-0.43,0.051-0.58,0.153c-0.148,0.102-0.225,0.237-0.225,0.405c0,0.156,0.059,0.287,0.174,0.393
		C89.934,30.31,90.082,30.363,90.262,30.363z"/>
	<path fill="#FFFFFF" d="M94.322,30.849c-0.24,0-0.457-0.057-0.65-0.171c-0.193-0.114-0.348-0.267-0.459-0.459v0.57h-0.582v-4.38
		h0.66v1.836c0.123-0.2,0.279-0.358,0.465-0.474c0.186-0.116,0.404-0.174,0.656-0.174c0.209,0,0.398,0.045,0.57,0.135
		c0.172,0.09,0.32,0.21,0.441,0.36c0.121,0.15,0.217,0.324,0.281,0.522c0.066,0.198,0.1,0.405,0.1,0.621
		c0,0.224-0.037,0.434-0.113,0.63c-0.076,0.196-0.18,0.367-0.312,0.513s-0.289,0.261-0.471,0.345S94.531,30.849,94.322,30.849z
		 M94.148,30.285c0.145,0,0.277-0.029,0.396-0.087c0.119-0.058,0.223-0.135,0.309-0.231c0.086-0.096,0.154-0.207,0.201-0.333
		c0.049-0.126,0.072-0.259,0.072-0.399c0-0.14-0.023-0.275-0.068-0.405c-0.047-0.13-0.111-0.244-0.193-0.342
		c-0.082-0.098-0.18-0.177-0.293-0.237c-0.115-0.06-0.24-0.09-0.375-0.09c-0.205,0-0.385,0.066-0.543,0.198
		c-0.158,0.132-0.279,0.292-0.363,0.48v0.828c0.023,0.092,0.066,0.175,0.125,0.249c0.061,0.074,0.131,0.139,0.211,0.195
		c0.08,0.056,0.166,0.099,0.258,0.129C93.977,30.27,94.064,30.285,94.148,30.285z"/>
	<path fill="#FFFFFF" d="M96.404,26.409h0.66v3.474c0,0.116,0.029,0.207,0.09,0.273c0.061,0.066,0.145,0.099,0.252,0.099
		c0.045,0,0.096-0.008,0.152-0.024c0.059-0.016,0.113-0.034,0.166-0.054l0.096,0.516c-0.096,0.044-0.209,0.079-0.342,0.105
		c-0.133,0.026-0.25,0.039-0.354,0.039c-0.229,0-0.406-0.062-0.531-0.186c-0.127-0.124-0.189-0.3-0.189-0.528V26.409z"/>
	<path fill="#FFFFFF" d="M99.627,30.849c-0.244,0-0.467-0.043-0.666-0.129c-0.201-0.086-0.371-0.203-0.514-0.351
		s-0.252-0.32-0.33-0.516C98.039,29.657,98,29.449,98,29.229c0-0.22,0.039-0.429,0.117-0.627c0.078-0.198,0.188-0.372,0.33-0.522
		s0.312-0.268,0.514-0.354c0.199-0.086,0.424-0.129,0.672-0.129c0.244,0,0.465,0.044,0.662,0.132s0.367,0.205,0.508,0.351
		c0.139,0.146,0.246,0.316,0.32,0.51c0.074,0.194,0.111,0.397,0.111,0.609c0,0.048-0.002,0.093-0.006,0.135
		s-0.008,0.077-0.012,0.105h-2.516c0.014,0.14,0.047,0.266,0.1,0.378c0.055,0.112,0.125,0.209,0.211,0.291
		c0.086,0.082,0.184,0.145,0.293,0.189c0.111,0.044,0.225,0.066,0.346,0.066c0.088,0,0.174-0.011,0.26-0.033
		c0.088-0.022,0.166-0.054,0.238-0.096s0.135-0.093,0.191-0.153s0.1-0.126,0.133-0.198l0.562,0.162
		c-0.107,0.236-0.285,0.429-0.535,0.579S99.959,30.849,99.627,30.849z M100.58,28.982c-0.012-0.132-0.045-0.254-0.1-0.366
		c-0.053-0.112-0.123-0.207-0.207-0.285s-0.182-0.139-0.293-0.183c-0.113-0.044-0.23-0.066-0.354-0.066
		c-0.125,0-0.242,0.022-0.352,0.066c-0.109,0.044-0.207,0.105-0.291,0.183s-0.152,0.173-0.205,0.285
		c-0.051,0.112-0.084,0.234-0.096,0.366H100.58z"/>
	<path fill="#FFFFFF" d="M105.074,29.373c0.125,0.024,0.238,0.067,0.342,0.129c0.105,0.062,0.193,0.139,0.266,0.231
		c0.07,0.092,0.127,0.198,0.168,0.318c0.039,0.12,0.059,0.25,0.059,0.39c0,0.188-0.035,0.357-0.104,0.507
		c-0.07,0.15-0.172,0.279-0.301,0.387c-0.131,0.108-0.287,0.191-0.471,0.249s-0.391,0.087-0.619,0.087
		c-0.303,0-0.57-0.053-0.803-0.159s-0.418-0.259-0.559-0.459l0.402-0.456c0.096,0.148,0.219,0.264,0.371,0.348
		c0.152,0.084,0.344,0.126,0.576,0.126c0.264,0,0.467-0.056,0.609-0.168c0.143-0.112,0.213-0.28,0.213-0.504
		c0-0.232-0.08-0.414-0.24-0.546s-0.396-0.198-0.707-0.198h-0.162v-0.516h0.18c0.268,0,0.475-0.063,0.617-0.189
		c0.145-0.126,0.217-0.285,0.217-0.477s-0.064-0.333-0.191-0.423c-0.129-0.09-0.295-0.135-0.498-0.135
		c-0.205,0-0.385,0.044-0.541,0.132c-0.156,0.088-0.279,0.214-0.371,0.378l-0.414-0.45c0.055-0.096,0.131-0.183,0.229-0.261
		c0.096-0.078,0.203-0.146,0.326-0.204c0.121-0.058,0.254-0.102,0.396-0.132c0.141-0.03,0.289-0.045,0.439-0.045
		c0.197,0,0.375,0.026,0.537,0.078c0.162,0.052,0.303,0.124,0.42,0.216c0.119,0.092,0.209,0.204,0.273,0.336
		c0.064,0.132,0.096,0.278,0.096,0.438c0,0.12-0.018,0.234-0.053,0.342c-0.037,0.108-0.088,0.206-0.154,0.294
		c-0.064,0.088-0.145,0.161-0.236,0.219C105.295,29.313,105.191,29.353,105.074,29.373z"/>
</g>
<g>
	<g>
		
			<line fill="none" stroke="#23C3FF" stroke-linecap="round" stroke-miterlimit="10" x1="49.64" y1="17.669" x2="74.265" y2="17.669"/>
		<g>
			<polygon fill="#23C3FF" points="72.861,19.521 73.647,17.669 72.861,15.817 77.25,17.669 			"/>
		</g>
	</g>
</g>
<g>
	<g>
		
			<line fill="none" stroke="#23C3FF" stroke-linecap="round" stroke-miterlimit="10" x1="49.64" y1="17.669" x2="74.482" y2="7.644"/>
		<g>
			<polygon fill="#23C3FF" points="73.873,9.886 73.909,7.875 72.487,6.452 77.25,6.527 			"/>
		</g>
	</g>
</g>
<g>
	<g>
		
			<line fill="none" stroke="#23C3FF" stroke-linecap="round" stroke-miterlimit="10" x1="49.64" y1="17.962" x2="74.482" y2="27.987"/>
		<g>
			<polygon fill="#23C3FF" points="72.487,29.179 73.909,27.756 73.873,25.745 77.25,29.104 			"/>
		</g>
	</g>
</g>
<path fill="#F0AD4E" d="M48,22.517c0,4.825-3.912,8.736-8.736,8.736H9.736C4.911,31.253,1,27.342,1,22.517v-9.109
	c0-4.825,3.911-8.736,8.736-8.736h29.527c4.824,0,8.736,3.912,8.736,8.736V22.517z"/>
<g>
	<path d="M6.919,16.276c-0.304,0-0.581-0.061-0.831-0.183s-0.465-0.284-0.645-0.486c-0.18-0.202-0.319-0.433-0.417-0.693
		c-0.098-0.26-0.147-0.526-0.147-0.798c0-0.284,0.052-0.556,0.156-0.816c0.104-0.26,0.247-0.49,0.429-0.69
		c0.182-0.2,0.398-0.359,0.648-0.477c0.25-0.118,0.523-0.177,0.819-0.177c0.304,0,0.581,0.063,0.831,0.189s0.464,0.291,0.642,0.495
		c0.178,0.204,0.316,0.435,0.414,0.693c0.098,0.258,0.147,0.521,0.147,0.789c0,0.284-0.051,0.556-0.153,0.816
		c-0.102,0.26-0.245,0.489-0.429,0.687c-0.184,0.198-0.401,0.356-0.651,0.474S7.211,16.276,6.919,16.276z M5.563,14.117
		c0,0.2,0.032,0.394,0.096,0.582c0.063,0.188,0.155,0.354,0.273,0.498c0.118,0.144,0.261,0.259,0.429,0.345s0.356,0.129,0.564,0.129
		c0.216,0,0.407-0.045,0.573-0.135s0.307-0.209,0.423-0.357s0.204-0.314,0.264-0.498s0.09-0.372,0.09-0.564
		c0-0.204-0.032-0.399-0.096-0.585s-0.155-0.35-0.273-0.492c-0.118-0.142-0.26-0.256-0.426-0.342s-0.351-0.129-0.555-0.129
		c-0.216,0-0.408,0.045-0.576,0.135s-0.31,0.207-0.426,0.351s-0.205,0.309-0.267,0.495C5.594,13.735,5.563,13.925,5.563,14.117z"/>
	<path d="M11.27,16.307c-0.24,0-0.457-0.057-0.651-0.171c-0.194-0.114-0.347-0.267-0.459-0.459v0.57H9.578v-4.38h0.66v1.836
		c0.124-0.2,0.279-0.358,0.465-0.474c0.186-0.116,0.405-0.174,0.657-0.174c0.208,0,0.398,0.045,0.57,0.135
		c0.172,0.09,0.319,0.21,0.441,0.36c0.122,0.15,0.216,0.324,0.282,0.522c0.066,0.198,0.099,0.405,0.099,0.621
		c0,0.224-0.038,0.434-0.114,0.63c-0.076,0.196-0.18,0.367-0.312,0.513s-0.289,0.261-0.471,0.345S11.478,16.307,11.27,16.307z
		 M11.096,15.743c0.144,0,0.276-0.029,0.396-0.087c0.12-0.058,0.223-0.135,0.309-0.231c0.086-0.096,0.153-0.207,0.201-0.333
		c0.048-0.126,0.072-0.259,0.072-0.399c0-0.14-0.023-0.275-0.069-0.405c-0.046-0.13-0.11-0.244-0.192-0.342
		c-0.082-0.098-0.18-0.177-0.294-0.237c-0.114-0.06-0.239-0.09-0.375-0.09c-0.204,0-0.385,0.066-0.543,0.198
		c-0.158,0.132-0.279,0.292-0.363,0.48v0.828c0.024,0.092,0.066,0.175,0.126,0.249c0.06,0.074,0.13,0.139,0.21,0.195
		c0.08,0.056,0.166,0.099,0.258,0.129C10.924,15.728,11.012,15.743,11.096,15.743z"/>
	<path d="M14.485,16.307c-0.252,0-0.503-0.041-0.753-0.123c-0.25-0.082-0.465-0.199-0.645-0.351l0.264-0.42
		c0.188,0.136,0.374,0.239,0.558,0.309s0.372,0.105,0.564,0.105c0.196,0,0.351-0.038,0.465-0.114
		c0.114-0.076,0.171-0.184,0.171-0.324c0-0.132-0.064-0.228-0.192-0.288c-0.128-0.06-0.328-0.126-0.6-0.198
		c-0.196-0.052-0.364-0.102-0.504-0.15c-0.14-0.048-0.254-0.104-0.342-0.168s-0.152-0.138-0.192-0.222s-0.06-0.186-0.06-0.306
		c0-0.16,0.031-0.302,0.093-0.426c0.062-0.124,0.148-0.229,0.258-0.315c0.11-0.086,0.239-0.151,0.387-0.195s0.308-0.066,0.48-0.066
		c0.236,0,0.456,0.036,0.66,0.108s0.386,0.176,0.546,0.312l-0.282,0.396c-0.292-0.232-0.602-0.348-0.93-0.348
		c-0.168,0-0.309,0.035-0.423,0.105c-0.114,0.07-0.171,0.181-0.171,0.333c0,0.064,0.012,0.118,0.036,0.162
		c0.024,0.044,0.063,0.082,0.117,0.114c0.054,0.032,0.124,0.061,0.21,0.087s0.193,0.055,0.321,0.087
		c0.212,0.052,0.395,0.104,0.549,0.156c0.154,0.052,0.281,0.113,0.381,0.183c0.1,0.07,0.174,0.152,0.222,0.246
		c0.048,0.094,0.072,0.207,0.072,0.339c0,0.3-0.113,0.537-0.339,0.711C15.18,16.22,14.873,16.307,14.485,16.307z"/>
	<path d="M17.743,16.307c-0.244,0-0.466-0.043-0.666-0.129c-0.2-0.086-0.371-0.203-0.513-0.351c-0.142-0.148-0.252-0.32-0.33-0.516
		c-0.078-0.196-0.117-0.404-0.117-0.624c0-0.22,0.039-0.429,0.117-0.627c0.078-0.198,0.188-0.372,0.33-0.522
		c0.142-0.15,0.313-0.268,0.513-0.354c0.2-0.086,0.424-0.129,0.672-0.129c0.244,0,0.465,0.044,0.663,0.132
		c0.198,0.088,0.367,0.205,0.507,0.351c0.14,0.146,0.247,0.316,0.321,0.51c0.074,0.194,0.111,0.397,0.111,0.609
		c0,0.048-0.002,0.093-0.006,0.135s-0.008,0.077-0.012,0.105h-2.514c0.012,0.14,0.045,0.266,0.099,0.378
		c0.054,0.112,0.124,0.209,0.21,0.291c0.086,0.082,0.184,0.145,0.294,0.189c0.11,0.044,0.225,0.066,0.345,0.066
		c0.088,0,0.175-0.011,0.261-0.033s0.165-0.054,0.237-0.096c0.072-0.042,0.136-0.093,0.192-0.153c0.056-0.06,0.1-0.126,0.132-0.198
		l0.564,0.162c-0.108,0.236-0.287,0.429-0.537,0.579S18.075,16.307,17.743,16.307z M18.697,14.44
		c-0.012-0.132-0.045-0.254-0.099-0.366c-0.054-0.112-0.123-0.207-0.207-0.285s-0.182-0.139-0.294-0.183
		c-0.112-0.044-0.23-0.066-0.354-0.066s-0.241,0.022-0.351,0.066c-0.11,0.044-0.207,0.105-0.291,0.183s-0.152,0.173-0.204,0.285
		c-0.052,0.112-0.084,0.234-0.096,0.366H18.697z"/>
	<path d="M21.655,13.679c-0.256,0.008-0.483,0.067-0.681,0.177c-0.198,0.11-0.339,0.267-0.423,0.471v1.92h-0.66v-3.138h0.612v0.702
		c0.108-0.216,0.249-0.389,0.423-0.519c0.174-0.13,0.361-0.201,0.561-0.213c0.04,0,0.073,0,0.099,0c0.026,0,0.049,0.002,0.069,0.006
		V13.679z"/>
	<path d="M23.017,16.247l-1.2-3.138h0.678l0.9,2.58l0.906-2.58h0.624l-1.2,3.138H23.017z"/>
	<path d="M26.149,16.307c-0.152,0-0.293-0.025-0.423-0.075c-0.13-0.05-0.242-0.119-0.336-0.207
		c-0.094-0.088-0.168-0.192-0.222-0.312c-0.054-0.12-0.081-0.25-0.081-0.39c0-0.148,0.032-0.282,0.096-0.402
		c0.064-0.12,0.155-0.224,0.273-0.312c0.118-0.088,0.258-0.156,0.42-0.204c0.162-0.048,0.341-0.072,0.537-0.072
		c0.148,0,0.294,0.013,0.438,0.039s0.274,0.061,0.39,0.105v-0.216c0-0.232-0.066-0.413-0.198-0.543
		c-0.132-0.13-0.322-0.195-0.57-0.195c-0.168,0-0.333,0.031-0.495,0.093s-0.329,0.151-0.501,0.267l-0.204-0.42
		c0.404-0.272,0.824-0.408,1.26-0.408c0.432,0,0.768,0.11,1.008,0.33c0.24,0.22,0.36,0.536,0.36,0.948v1.134
		c0,0.14,0.058,0.212,0.174,0.216v0.564c-0.064,0.012-0.119,0.02-0.165,0.024c-0.046,0.004-0.091,0.006-0.135,0.006
		c-0.128,0-0.227-0.032-0.297-0.096c-0.07-0.064-0.113-0.146-0.129-0.246l-0.018-0.198c-0.14,0.184-0.313,0.325-0.519,0.423
		C26.606,16.257,26.385,16.307,26.149,16.307z M26.33,15.821c0.16,0,0.311-0.029,0.453-0.087c0.142-0.058,0.253-0.139,0.333-0.243
		c0.084-0.072,0.126-0.148,0.126-0.228v-0.414c-0.112-0.044-0.231-0.078-0.357-0.102s-0.249-0.036-0.369-0.036
		c-0.236,0-0.429,0.051-0.579,0.153s-0.225,0.237-0.225,0.405c0,0.156,0.058,0.287,0.174,0.393
		C26.001,15.768,26.149,15.821,26.33,15.821z"/>
	<path d="M30.421,16.084c-0.084,0.04-0.2,0.085-0.348,0.135c-0.148,0.05-0.306,0.075-0.474,0.075c-0.104,0-0.202-0.014-0.294-0.042
		c-0.092-0.028-0.173-0.07-0.243-0.126c-0.07-0.056-0.125-0.129-0.165-0.219c-0.04-0.09-0.06-0.199-0.06-0.327v-1.962h-0.414v-0.51
		h0.414v-1.032h0.66v1.032h0.684v0.51h-0.684v1.752c0.008,0.112,0.043,0.193,0.105,0.243c0.062,0.05,0.139,0.075,0.231,0.075
		c0.092,0,0.18-0.016,0.264-0.048s0.146-0.058,0.186-0.078L30.421,16.084z"/>
	<path d="M30.877,12.593v-0.726h0.66v0.726H30.877z M30.877,16.247v-3.138h0.66v3.138H30.877z"/>
	<path d="M33.739,16.307c-0.248,0-0.471-0.044-0.669-0.132c-0.197-0.088-0.367-0.206-0.507-0.354s-0.248-0.321-0.323-0.519
		c-0.076-0.198-0.115-0.405-0.115-0.621c0-0.216,0.039-0.423,0.115-0.621c0.075-0.198,0.185-0.371,0.326-0.519
		c0.143-0.148,0.312-0.266,0.51-0.354c0.198-0.088,0.419-0.132,0.663-0.132s0.466,0.044,0.663,0.132
		c0.198,0.088,0.368,0.206,0.51,0.354c0.143,0.148,0.251,0.321,0.327,0.519c0.076,0.198,0.114,0.405,0.114,0.621
		c0,0.216-0.038,0.423-0.114,0.621c-0.076,0.198-0.185,0.371-0.327,0.519c-0.142,0.148-0.312,0.266-0.51,0.354
		C34.205,16.263,33.983,16.307,33.739,16.307z M32.803,14.687c0,0.152,0.024,0.292,0.071,0.42c0.049,0.128,0.114,0.239,0.198,0.333
		c0.084,0.094,0.184,0.168,0.297,0.222c0.114,0.054,0.237,0.081,0.369,0.081c0.133,0,0.255-0.027,0.369-0.081
		s0.213-0.129,0.297-0.225c0.084-0.096,0.15-0.208,0.198-0.336s0.072-0.268,0.072-0.42c0-0.148-0.024-0.287-0.072-0.417
		s-0.114-0.243-0.198-0.339c-0.084-0.096-0.183-0.171-0.297-0.225c-0.114-0.054-0.236-0.081-0.369-0.081
		c-0.128,0-0.249,0.028-0.362,0.084c-0.114,0.056-0.213,0.132-0.297,0.228c-0.085,0.096-0.151,0.209-0.201,0.339
		C32.828,14.399,32.803,14.539,32.803,14.687z"/>
	<path d="M38.755,16.247h-0.66v-1.758c0-0.296-0.047-0.511-0.141-0.645c-0.094-0.134-0.233-0.201-0.417-0.201
		c-0.096,0-0.192,0.018-0.288,0.054c-0.096,0.036-0.187,0.087-0.271,0.153s-0.158,0.144-0.225,0.234s-0.117,0.189-0.153,0.297v1.866
		h-0.659v-3.138h0.6v0.63c0.12-0.212,0.294-0.379,0.521-0.501c0.229-0.122,0.48-0.183,0.757-0.183c0.188,0,0.342,0.034,0.462,0.102
		c0.12,0.068,0.215,0.161,0.285,0.279c0.069,0.118,0.118,0.254,0.146,0.408c0.028,0.154,0.042,0.317,0.042,0.489V16.247z"/>
	<path d="M40.357,16.307c-0.152,0-0.294-0.025-0.424-0.075c-0.13-0.05-0.242-0.119-0.336-0.207
		c-0.094-0.088-0.168-0.192-0.222-0.312c-0.054-0.12-0.081-0.25-0.081-0.39c0-0.148,0.032-0.282,0.096-0.402
		c0.064-0.12,0.155-0.224,0.273-0.312c0.118-0.088,0.258-0.156,0.42-0.204c0.162-0.048,0.341-0.072,0.537-0.072
		c0.147,0,0.294,0.013,0.438,0.039c0.145,0.026,0.274,0.061,0.391,0.105v-0.216c0-0.232-0.066-0.413-0.198-0.543
		c-0.132-0.13-0.322-0.195-0.57-0.195c-0.168,0-0.333,0.031-0.495,0.093c-0.161,0.062-0.329,0.151-0.501,0.267l-0.204-0.42
		c0.404-0.272,0.824-0.408,1.261-0.408c0.432,0,0.768,0.11,1.008,0.33c0.24,0.22,0.36,0.536,0.36,0.948v1.134
		c0,0.14,0.058,0.212,0.174,0.216v0.564c-0.064,0.012-0.119,0.02-0.165,0.024s-0.091,0.006-0.135,0.006
		c-0.129,0-0.228-0.032-0.298-0.096c-0.069-0.064-0.112-0.146-0.129-0.246l-0.018-0.198c-0.141,0.184-0.313,0.325-0.52,0.423
		C40.813,16.257,40.592,16.307,40.357,16.307z M40.537,15.821c0.16,0,0.311-0.029,0.453-0.087c0.142-0.058,0.253-0.139,0.333-0.243
		c0.084-0.072,0.126-0.148,0.126-0.228v-0.414c-0.112-0.044-0.231-0.078-0.357-0.102s-0.249-0.036-0.369-0.036
		c-0.235,0-0.429,0.051-0.579,0.153c-0.149,0.102-0.225,0.237-0.225,0.405c0,0.156,0.058,0.287,0.174,0.393
		S40.357,15.821,40.537,15.821z"/>
	<path d="M42.914,11.867h0.659v3.474c0,0.116,0.03,0.207,0.091,0.273c0.06,0.066,0.144,0.099,0.252,0.099
		c0.044,0,0.095-0.008,0.152-0.024c0.059-0.016,0.113-0.034,0.165-0.054l0.097,0.516c-0.097,0.044-0.21,0.079-0.343,0.105
		c-0.132,0.026-0.25,0.039-0.354,0.039c-0.229,0-0.405-0.062-0.531-0.186c-0.126-0.124-0.188-0.3-0.188-0.528V11.867z"/>
	<path d="M20.317,23.507c-0.328,0-0.576-0.107-0.744-0.321c-0.168-0.214-0.252-0.533-0.252-0.957v-1.92h0.66v1.788
		c0,0.564,0.2,0.846,0.6,0.846c0.188,0,0.366-0.058,0.534-0.174c0.168-0.116,0.298-0.284,0.39-0.504v-1.956h0.66v2.358
		c0,0.076,0.013,0.13,0.039,0.162c0.026,0.032,0.073,0.05,0.141,0.054v0.564c-0.068,0.012-0.124,0.02-0.168,0.024
		c-0.044,0.004-0.086,0.006-0.126,0.006c-0.12,0-0.222-0.033-0.306-0.099s-0.128-0.151-0.132-0.255l-0.012-0.312
		c-0.14,0.228-0.322,0.401-0.546,0.519C20.832,23.448,20.585,23.507,20.317,23.507z"/>
	<path d="M25.819,23.447h-0.66v-1.758c0-0.296-0.047-0.511-0.141-0.645c-0.094-0.134-0.233-0.201-0.417-0.201
		c-0.096,0-0.192,0.018-0.288,0.054c-0.096,0.036-0.186,0.087-0.27,0.153s-0.159,0.144-0.225,0.234s-0.117,0.189-0.153,0.297v1.866
		h-0.66v-3.138h0.6v0.63c0.12-0.212,0.294-0.379,0.522-0.501s0.48-0.183,0.756-0.183c0.188,0,0.342,0.034,0.462,0.102
		c0.12,0.068,0.215,0.161,0.285,0.279c0.07,0.118,0.119,0.254,0.147,0.408c0.028,0.154,0.042,0.317,0.042,0.489V23.447z"/>
	<path d="M26.587,19.793v-0.726h0.66v0.726H26.587z M26.587,23.447v-3.138h0.66v3.138H26.587z"/>
	<path d="M29.786,23.285c-0.084,0.04-0.2,0.085-0.348,0.135c-0.148,0.05-0.306,0.075-0.474,0.075c-0.104,0-0.202-0.014-0.294-0.042
		c-0.092-0.028-0.173-0.07-0.243-0.126c-0.07-0.056-0.125-0.129-0.165-0.219c-0.04-0.09-0.06-0.199-0.06-0.327v-1.962h-0.414v-0.51
		h0.414v-1.032h0.66v1.032h0.684v0.51h-0.684v1.752c0.008,0.112,0.043,0.193,0.105,0.243c0.062,0.05,0.139,0.075,0.231,0.075
		c0.092,0,0.18-0.016,0.264-0.048s0.146-0.058,0.186-0.078L29.786,23.285z"/>
</g>
<g>
</g>
<g>
</g>
<g>
</g>
<g>
</g>
<g>
</g>
<g>
</g>
<g>
</g>
</svg>
