<?xml version="1.0" encoding="utf-8"?>
<!-- Generator: Adobe Illustrator 16.0.4, SVG Export Plug-In . SVG Version: 6.00 Build 0)  -->
<!DOCTYPE svg PUBLIC "-//W3C//DTD SVG 1.1//EN" "http://www.w3.org/Graphics/SVG/1.1/DTD/svg11.dtd">
<svg version="1.1" xmlns="http://www.w3.org/2000/svg" xmlns:xlink="http://www.w3.org/1999/xlink" x="0px" y="0px" width="551.2px"
	 height="395.2px" viewBox="0 0 551.2 395.2" enable-background="new 0 0 551.2 395.2" xml:space="preserve">
<g id="bar">
	<g>
		<rect x="46.031" y="256.892" fill="#BEAED4" width="12.176" height="115.414"/>
		<rect x="67.949" y="250.099" fill="#FDC086" width="12.176" height="122.207"/>
		<rect x="89.859" y="236.523" fill="#BF5B17" width="12.18" height="135.78"/>
		<rect x="111.777" y="222.949" fill="#386CB0" width="12.18" height="149.354"/>
		<rect x="133.691" y="216.156" fill="#7FC97F" width="12.18" height="156.147"/>
	</g>
	<g>
		<rect x="237.988" y="236.523" fill="#BEAED4" width="12.176" height="135.78"/>
		<rect x="259.902" y="236.523" fill="#FDC086" width="12.18" height="135.78"/>
		<rect x="281.816" y="243.316" fill="#BF5B17" width="12.18" height="128.987"/>
		<rect x="303.734" y="229.738" fill="#386CB0" width="12.176" height="142.565"/>
		<rect x="325.648" y="236.523" fill="#7FC97F" width="12.176" height="135.78"/>
	</g>
	<g>
		<rect x="429.941" y="216.156" fill="#BEAED4" width="12.18" height="156.147"/>
		<rect x="451.859" y="222.949" fill="#FDC086" width="12.176" height="149.354"/>
		<rect x="473.773" y="236.523" fill="#BF5B17" width="12.176" height="135.78"/>
		<rect x="495.688" y="250.099" fill="#386CB0" width="12.177" height="122.207"/>
		<rect x="517.602" y="256.892" fill="#7FC97F" width="12.181" height="115.414"/>
	</g>
</g>
<g id="pie">
	<g>
		<polygon fill="#BEAED4" points="473.883,38.379 476.113,38.406 478.332,38.516 480.539,38.695 482.75,38.946 484.961,39.262 
			487.148,39.648 489.328,40.106 491.477,40.629 493.617,41.227 495.738,41.895 497.836,42.633 499.906,43.43 501.957,44.293 
			503.977,45.23 505.965,46.231 507.914,47.289 509.836,48.403 511.715,49.59 513.562,50.84 515.352,52.133 517.113,53.493 
			518.832,54.906 520.5,56.383 522.121,57.903 523.68,59.477 525.199,61.094 526.672,62.77 528.09,64.488 529.438,66.243 
			530.73,68.051 531.969,69.895 533.16,71.782 534.277,73.695 535.316,75.653 536.316,77.637 537.246,79.66 538.105,81.708 
			538.906,83.782 539.637,85.879 540.285,87.996 540.887,90.141 541.406,92.29 541.867,94.469 542.246,96.665 542.555,98.864 
			473.781,107.543 		"/>
		<polygon fill="none" stroke="#000000" stroke-width="0.7495" stroke-linejoin="round" stroke-miterlimit="10.433" points="
			473.883,38.379 476.113,38.406 478.332,38.516 480.539,38.695 482.75,38.946 484.961,39.262 487.148,39.648 489.328,40.106 
			491.477,40.629 493.617,41.227 495.738,41.895 497.836,42.633 499.906,43.43 501.957,44.293 503.977,45.23 505.965,46.23 
			507.914,47.289 509.836,48.403 511.715,49.59 513.562,50.84 515.352,52.133 517.113,53.493 518.832,54.906 520.5,56.383 
			522.121,57.903 523.68,59.477 525.199,61.094 526.672,62.77 528.09,64.488 529.438,66.243 530.73,68.051 531.969,69.895 
			533.16,71.782 534.277,73.695 535.316,75.652 536.316,77.637 537.246,79.66 538.105,81.708 538.906,83.782 539.637,85.879 
			540.285,87.996 540.887,90.141 541.406,92.29 541.867,94.469 542.246,96.665 542.555,98.864 473.781,107.543 		"/>
		<polygon fill="#FDC086" points="542.656,98.954 542.895,101.172 543.066,103.387 543.156,105.606 543.188,107.824 
			543.145,110.051 543.035,112.277 542.848,114.497 542.598,116.695 542.277,118.903 541.875,121.09 541.406,123.266 
			540.867,125.414 540.266,127.551 539.598,129.68 538.848,131.778 538.039,133.856 537.156,135.883 536.219,137.898 
			535.207,139.887 534.148,141.848 533.02,143.743 531.828,145.633 530.57,147.469 529.27,149.27 527.898,151.027 526.469,152.723 
			524.992,154.392 523.461,156.012 521.891,157.571 520.25,159.086 518.57,160.535 516.844,161.946 515.074,163.293 
			513.273,164.583 511.402,165.809 509.523,166.989 507.594,168.098 505.625,169.145 503.625,170.125 501.598,171.043 
			499.555,171.902 497.469,172.692 495.367,173.41 473.941,107.543 		"/>
		<polygon fill="none" stroke="#000000" stroke-width="0.7495" stroke-linejoin="round" stroke-miterlimit="10.433" points="
			542.656,98.954 542.895,101.172 543.066,103.387 543.156,105.606 543.188,107.824 543.145,110.051 543.035,112.277 
			542.848,114.497 542.598,116.695 542.277,118.903 541.875,121.09 541.406,123.266 540.867,125.414 540.266,127.551 
			539.598,129.68 538.848,131.778 538.039,133.856 537.156,135.883 536.219,137.898 535.207,139.887 534.148,141.848 
			533.02,143.743 531.828,145.633 530.57,147.469 529.27,149.27 527.898,151.027 526.469,152.723 524.992,154.392 523.461,156.012 
			521.891,157.571 520.25,159.086 518.57,160.535 516.844,161.946 515.074,163.293 513.273,164.583 511.402,165.809 
			509.523,166.989 507.594,168.098 505.625,169.145 503.625,170.125 501.598,171.043 499.555,171.902 497.469,172.692 
			495.367,173.41 473.941,107.543 		"/>
		<polygon fill="#BF5B17" points="495.309,173.5 493.168,174.161 491.02,174.739 488.848,175.259 486.66,175.707 484.461,176.071 
			482.262,176.379 480.043,176.609 477.812,176.758 475.582,176.859 473.344,176.867 471.125,176.828 468.895,176.699 
			466.676,176.5 464.465,176.227 462.254,175.891 460.055,175.48 457.875,175.008 455.727,174.461 453.578,173.84 451.457,173.16 
			449.348,172.403 447.277,171.575 445.238,170.684 443.219,169.734 441.242,168.715 439.281,167.629 437.383,166.488 
			435.5,165.281 433.66,164.012 431.863,162.691 430.113,161.316 428.414,159.875 426.754,158.379 425.145,156.828 423.586,155.23 
			422.074,153.602 420.625,151.906 419.234,150.168 417.895,148.379 473.973,107.672 		"/>
		<polygon fill="none" stroke="#000000" stroke-width="0.7495" stroke-linejoin="round" stroke-miterlimit="10.433" points="
			495.309,173.5 493.168,174.161 491.02,174.739 488.848,175.259 486.66,175.707 484.461,176.071 482.262,176.379 480.043,176.609 
			477.812,176.758 475.582,176.859 473.344,176.867 471.125,176.828 468.895,176.699 466.676,176.5 464.465,176.227 
			462.254,175.891 460.055,175.48 457.875,175.008 455.727,174.461 453.578,173.84 451.457,173.16 449.348,172.403 447.277,171.575 
			445.238,170.684 443.219,169.734 441.242,168.715 439.281,167.629 437.383,166.488 435.5,165.281 433.66,164.012 431.863,162.691 
			430.113,161.316 428.414,159.875 426.754,158.379 425.145,156.828 423.586,155.23 422.074,153.602 420.625,151.906 
			419.234,150.168 417.895,148.379 473.973,107.672 		"/>
		<polygon fill="#386CB0" points="417.805,148.34 416.477,146.461 415.215,144.532 414.027,142.566 412.898,140.559 
			411.848,138.508 410.848,136.434 409.926,134.325 409.078,132.195 408.289,130.027 407.59,127.832 406.949,125.625 
			406.398,123.395 405.91,121.137 405.5,118.883 405.168,116.594 404.918,114.305 404.73,112.02 404.629,109.723 404.598,107.415 
			404.641,105.118 404.77,102.829 404.969,100.531 405.238,98.242 405.598,95.965 406.02,93.699 406.52,91.449 407.09,89.235 
			407.75,87.028 408.469,84.84 409.258,82.676 410.129,80.547 411.066,78.441 412.078,76.375 413.137,74.34 473.883,107.703 		"/>
		<polygon fill="none" stroke="#000000" stroke-width="0.7495" stroke-linejoin="round" stroke-miterlimit="10.433" points="
			417.805,148.34 416.477,146.461 415.215,144.532 414.027,142.566 412.898,140.559 411.848,138.508 410.848,136.434 
			409.926,134.325 409.078,132.195 408.289,130.027 407.59,127.832 406.949,125.625 406.398,123.395 405.91,121.137 405.5,118.883 
			405.168,116.594 404.918,114.305 404.73,112.02 404.629,109.723 404.598,107.415 404.641,105.117 404.77,102.829 404.969,100.531 
			405.238,98.242 405.598,95.965 406.02,93.699 406.52,91.449 407.09,89.235 407.75,87.028 408.469,84.84 409.258,82.676 
			410.129,80.547 411.066,78.441 412.078,76.375 413.137,74.34 473.883,107.703 		"/>
		<polygon fill="#7FC97F" points="413.137,74.27 414.258,72.324 415.418,70.418 416.656,68.555 417.945,66.715 419.305,64.93 
			420.715,63.191 422.184,61.497 423.695,59.848 425.273,58.262 426.895,56.715 428.574,55.227 430.293,53.793 432.062,52.406 
			433.871,51.094 435.711,49.836 437.609,48.629 439.539,47.493 441.5,46.418 443.512,45.398 445.527,44.449 447.59,43.574 
			449.68,42.766 451.797,42.016 453.938,41.336 456.086,40.727 458.258,40.192 460.457,39.723 462.664,39.325 464.883,39.008 
			467.105,38.75 469.332,38.57 471.582,38.461 473.824,38.434 473.824,107.684 		"/>
		<polygon fill="none" stroke="#000000" stroke-width="0.7495" stroke-linejoin="round" stroke-miterlimit="10.433" points="
			413.137,74.27 414.258,72.324 415.418,70.418 416.656,68.555 417.945,66.715 419.305,64.93 420.715,63.191 422.184,61.497 
			423.695,59.848 425.273,58.261 426.895,56.715 428.574,55.227 430.293,53.793 432.062,52.406 433.871,51.094 435.711,49.836 
			437.609,48.629 439.539,47.493 441.5,46.418 443.512,45.398 445.527,44.449 447.59,43.574 449.68,42.766 451.797,42.016 
			453.938,41.336 456.086,40.727 458.258,40.192 460.457,39.723 462.664,39.325 464.883,39.008 467.105,38.75 469.332,38.57 
			471.582,38.461 473.824,38.434 473.824,107.684 		"/>
	</g>
	<g>
		<polygon fill="#BEAED4" points="281.93,38.379 284.156,38.406 286.379,38.516 288.605,38.695 290.824,38.946 293.035,39.262 
			295.227,39.66 297.414,40.117 299.574,40.656 301.723,41.25 303.852,41.918 305.953,42.668 308.043,43.477 310.09,44.34 
			312.121,45.277 314.102,46.286 316.059,47.352 317.988,48.477 319.879,49.664 321.719,50.922 323.527,52.227 325.297,53.594 
			326.996,55.02 328.676,56.496 330.297,58.036 331.867,59.609 333.375,61.246 334.844,62.922 336.266,64.649 337.613,66.422 
			338.914,68.231 340.145,70.086 341.324,71.985 342.445,73.918 343.492,75.872 344.484,77.879 345.395,79.907 346.254,81.961 
			347.051,84.047 347.773,86.157 281.848,107.562 		"/>
		<polygon fill="none" stroke="#000000" stroke-width="0.7495" stroke-linejoin="round" stroke-miterlimit="10.433" points="
			281.93,38.379 284.156,38.406 286.379,38.516 288.605,38.695 290.824,38.946 293.035,39.262 295.227,39.66 297.414,40.117 
			299.574,40.656 301.723,41.25 303.852,41.918 305.953,42.668 308.043,43.477 310.09,44.34 312.121,45.277 314.102,46.286 
			316.059,47.352 317.988,48.477 319.879,49.664 321.719,50.922 323.527,52.227 325.297,53.594 326.996,55.02 328.676,56.496 
			330.297,58.036 331.867,59.609 333.375,61.246 334.844,62.922 336.266,64.649 337.613,66.422 338.914,68.231 340.145,70.086 
			341.324,71.985 342.445,73.918 343.492,75.872 344.484,77.879 345.395,79.907 346.254,81.961 347.051,84.047 347.773,86.157 
			281.848,107.562 		"/>
		<polygon fill="#FDC086" points="347.852,86.227 348.504,88.364 349.082,90.524 349.602,92.68 350.051,94.867 350.422,97.066 
			350.73,99.273 350.953,101.489 351.113,103.708 351.203,105.934 351.223,108.172 351.172,110.391 351.043,112.617 350.84,114.844 
			350.57,117.043 350.23,119.25 349.832,121.45 349.352,123.625 348.801,125.786 348.191,127.922 347.504,130.039 346.742,132.148 
			345.914,134.215 345.031,136.254 344.074,138.27 343.055,140.247 341.965,142.207 340.824,144.102 339.625,145.98 
			338.355,147.821 337.023,149.618 335.645,151.367 334.207,153.075 332.707,154.723 331.168,156.333 329.566,157.887 
			327.926,159.399 326.227,160.844 324.488,162.243 322.707,163.583 281.969,107.555 		"/>
		<polygon fill="none" stroke="#000000" stroke-width="0.7495" stroke-linejoin="round" stroke-miterlimit="10.433" points="
			347.852,86.227 348.504,88.364 349.082,90.524 349.602,92.68 350.051,94.867 350.422,97.066 350.73,99.273 350.953,101.488 
			351.113,103.708 351.203,105.934 351.223,108.172 351.172,110.391 351.043,112.617 350.84,114.844 350.57,117.043 350.23,119.25 
			349.832,121.45 349.352,123.625 348.801,125.786 348.191,127.922 347.504,130.039 346.742,132.148 345.914,134.215 
			345.031,136.254 344.074,138.27 343.055,140.247 341.965,142.207 340.824,144.102 339.625,145.98 338.355,147.821 
			337.023,149.618 335.645,151.367 334.207,153.075 332.707,154.723 331.168,156.333 329.566,157.887 327.926,159.399 
			326.227,160.844 324.488,162.243 322.707,163.583 281.969,107.555 		"/>
		<polygon fill="#BF5B17" points="322.668,163.665 320.789,164.98 318.871,166.238 316.898,167.418 314.898,168.547 
			312.871,169.605 310.793,170.594 308.691,171.512 306.551,172.364 304.402,173.142 302.215,173.84 300.004,174.481 
			297.785,175.04 295.543,175.527 293.273,175.93 291.008,176.27 288.727,176.527 286.426,176.719 284.137,176.828 281.848,176.859 
			279.547,176.816 277.25,176.699 274.969,176.508 272.691,176.239 270.422,175.891 268.16,175.48 265.91,174.989 263.684,174.422 
			261.484,173.77 259.305,173.07 257.145,172.281 255.016,171.422 252.914,170.497 250.855,169.497 248.816,168.426 
			246.816,167.297 244.855,166.099 281.996,107.625 		"/>
		<polygon fill="none" stroke="#000000" stroke-width="0.7495" stroke-linejoin="round" stroke-miterlimit="10.433" points="
			322.668,163.665 320.789,164.98 318.871,166.238 316.898,167.418 314.898,168.547 312.871,169.605 310.793,170.594 
			308.691,171.512 306.551,172.364 304.402,173.142 302.215,173.84 300.004,174.481 297.785,175.04 295.543,175.527 293.273,175.93 
			291.008,176.27 288.727,176.527 286.426,176.719 284.137,176.828 281.848,176.859 279.547,176.816 277.25,176.699 
			274.969,176.508 272.691,176.239 270.422,175.891 268.16,175.48 265.91,174.989 263.684,174.422 261.484,173.77 259.305,173.07 
			257.145,172.281 255.016,171.422 252.914,170.497 250.855,169.497 248.816,168.426 246.816,167.297 244.855,166.099 
			281.996,107.625 		"/>
		<polygon fill="#386CB0" points="244.785,166.109 242.918,164.879 241.098,163.613 239.328,162.273 237.59,160.875 
			235.898,159.418 234.258,157.91 232.668,156.36 231.129,154.75 229.641,153.095 228.199,151.387 226.82,149.637 225.512,147.848 
			224.242,146.012 223.031,144.145 221.891,142.235 220.824,140.277 219.793,138.301 218.844,136.293 217.953,134.254 
			217.145,132.176 216.395,130.078 215.703,127.961 215.082,125.833 214.535,123.665 214.062,121.5 213.652,119.301 
			213.312,117.102 213.043,114.887 212.855,112.668 212.734,110.45 212.684,108.223 212.703,106.004 212.793,103.777 
			212.945,101.559 213.176,99.344 213.484,97.133 213.863,94.938 214.293,92.758 214.824,90.594 215.395,88.446 216.055,86.316 
			281.977,107.715 		"/>
		<polygon fill="none" stroke="#000000" stroke-width="0.7495" stroke-linejoin="round" stroke-miterlimit="10.433" points="
			244.785,166.109 242.918,164.879 241.098,163.613 239.328,162.273 237.59,160.875 235.898,159.418 234.258,157.91 232.668,156.36 
			231.129,154.75 229.641,153.095 228.199,151.387 226.82,149.637 225.512,147.848 224.242,146.012 223.031,144.145 
			221.891,142.235 220.824,140.277 219.793,138.301 218.844,136.293 217.953,134.254 217.145,132.176 216.395,130.078 
			215.703,127.961 215.082,125.833 214.535,123.665 214.062,121.5 213.652,119.301 213.312,117.102 213.043,114.887 
			212.855,112.668 212.734,110.45 212.684,108.223 212.703,106.004 212.793,103.777 212.945,101.559 213.176,99.344 213.484,97.133 
			213.863,94.938 214.293,92.758 214.824,90.594 215.395,88.446 216.055,86.316 281.977,107.715 		"/>
		<polygon fill="#7FC97F" points="216.004,86.227 216.742,84.074 217.555,81.93 218.441,79.824 219.395,77.747 220.422,75.691 
			221.512,73.684 222.652,71.711 223.883,69.773 225.16,67.879 226.512,66.032 227.91,64.227 229.379,62.457 230.898,60.754 
			232.48,59.098 234.109,57.492 235.789,55.945 237.527,54.45 239.309,53.02 241.148,51.641 243.016,50.328 244.938,49.078 
			246.887,47.891 248.887,46.766 250.926,45.719 252.984,44.731 255.086,43.805 257.215,42.958 259.363,42.18 261.543,41.473 
			263.742,40.844 265.961,40.286 268.203,39.801 270.461,39.383 272.73,39.043 275,38.785 277.289,38.598 279.57,38.48 
			281.859,38.453 281.859,107.703 		"/>
		<polygon fill="none" stroke="#000000" stroke-width="0.7495" stroke-linejoin="round" stroke-miterlimit="10.433" points="
			216.004,86.227 216.742,84.074 217.555,81.93 218.441,79.824 219.395,77.747 220.422,75.691 221.512,73.684 222.652,71.711 
			223.883,69.773 225.16,67.879 226.512,66.032 227.91,64.227 229.379,62.457 230.898,60.754 232.48,59.098 234.109,57.492 
			235.789,55.945 237.527,54.45 239.309,53.02 241.148,51.641 243.016,50.328 244.938,49.078 246.887,47.891 248.887,46.766 
			250.926,45.719 252.984,44.731 255.086,43.805 257.215,42.958 259.363,42.18 261.543,41.473 263.742,40.844 265.961,40.286 
			268.203,39.801 270.461,39.383 272.73,39.043 275,38.785 277.289,38.598 279.57,38.48 281.859,38.453 281.859,107.703 		"/>
	</g>
	<g>
		<polygon fill="#BEAED4" stroke="#D65273" stroke-miterlimit="10" points="89.973,38.379 92.211,38.406 94.461,38.516 
			96.684,38.695 98.91,38.953 101.133,39.27 103.34,39.668 105.539,40.137 107.699,40.672 109.859,41.282 112,41.961 
			114.109,42.711 116.199,43.52 118.258,44.395 120.285,45.343 122.297,46.364 124.254,47.442 126.176,48.575 128.074,49.782 
			129.926,51.036 131.734,52.352 133.504,53.738 135.223,55.172 136.902,56.661 138.512,58.208 140.09,59.793 141.609,61.442 
			143.082,63.137 144.492,64.875 145.852,66.66 147.141,68.5 148.371,70.363 149.539,72.27 150.66,74.215 89.914,107.574 		"/>
		<polygon fill="none" stroke="#000000" stroke-width="0.7495" stroke-linejoin="round" stroke-miterlimit="10.433" points="
			89.973,38.379 92.211,38.406 94.461,38.516 96.684,38.695 98.91,38.953 101.133,39.27 103.34,39.668 105.539,40.137 
			107.699,40.672 109.859,41.282 112,41.961 114.109,42.711 116.199,43.52 118.258,44.395 120.285,45.343 122.297,46.364 
			124.254,47.442 126.176,48.575 128.074,49.782 129.926,51.036 131.734,52.352 133.504,53.738 135.223,55.172 136.902,56.661 
			138.512,58.208 140.09,59.793 141.609,61.442 143.082,63.137 144.492,64.875 145.852,66.66 147.141,68.5 148.371,70.363 
			149.539,72.27 150.66,74.215 89.914,107.574 		"/>
		<polygon fill="#FDC086" points="150.719,74.27 151.777,76.305 152.789,78.371 153.727,80.477 154.598,82.605 155.387,84.77 
			156.109,86.957 156.77,89.164 157.336,91.383 157.836,93.629 158.258,95.895 158.617,98.172 158.887,100.461 159.086,102.758 
			159.219,105.047 159.258,107.344 159.227,109.652 159.129,111.938 158.938,114.235 158.688,116.524 158.355,118.813 
			157.949,121.071 157.457,123.317 156.906,125.555 156.27,127.762 155.566,129.957 154.777,132.125 153.93,134.254 
			153.008,136.364 152.008,138.442 150.961,140.488 149.828,142.497 148.641,144.465 147.379,146.391 146.051,148.27 
			89.977,107.562 		"/>
		<polygon fill="none" stroke="#000000" stroke-width="0.7495" stroke-linejoin="round" stroke-miterlimit="10.433" points="
			150.719,74.27 151.777,76.305 152.789,78.371 153.727,80.477 154.598,82.605 155.387,84.77 156.109,86.957 156.77,89.164 
			157.336,91.383 157.836,93.629 158.258,95.895 158.617,98.172 158.887,100.461 159.086,102.758 159.219,105.047 159.258,107.344 
			159.227,109.652 159.129,111.938 158.938,114.235 158.688,116.524 158.355,118.812 157.949,121.071 157.457,123.317 
			156.906,125.555 156.27,127.762 155.566,129.957 154.777,132.125 153.93,134.254 153.008,136.364 152.008,138.442 
			150.961,140.488 149.828,142.497 148.641,144.465 147.379,146.391 146.051,148.27 89.977,107.562 		"/>
		<polygon fill="#BF5B17" points="146.051,148.34 144.711,150.125 143.312,151.864 141.859,153.563 140.363,155.204 138.801,156.79 
			137.191,158.34 135.531,159.836 133.824,161.273 132.074,162.652 130.285,163.973 128.445,165.242 126.566,166.449 
			124.656,167.586 122.695,168.676 120.727,169.695 118.707,170.645 116.656,171.536 114.586,172.364 112.488,173.122 
			110.367,173.813 108.219,174.422 106.059,174.969 103.879,175.449 101.68,175.848 99.48,176.188 97.273,176.458 95.043,176.656 
			92.82,176.789 90.594,176.836 88.355,176.816 86.129,176.728 83.906,176.566 81.688,176.34 79.48,176.039 77.281,175.668 
			75.094,175.219 72.926,174.699 70.77,174.122 68.633,173.461 90.059,107.602 		"/>
		<polygon fill="none" stroke="#000000" stroke-width="0.7495" stroke-linejoin="round" stroke-miterlimit="10.433" points="
			146.051,148.34 144.711,150.125 143.312,151.863 141.859,153.563 140.363,155.204 138.801,156.79 137.191,158.34 135.531,159.836 
			133.824,161.273 132.074,162.652 130.285,163.973 128.445,165.242 126.566,166.449 124.656,167.586 122.695,168.676 
			120.727,169.695 118.707,170.645 116.656,171.536 114.586,172.364 112.488,173.122 110.367,173.813 108.219,174.422 
			106.059,174.969 103.879,175.449 101.68,175.848 99.48,176.188 97.273,176.458 95.043,176.656 92.82,176.789 90.594,176.836 
			88.355,176.816 86.129,176.728 83.906,176.566 81.688,176.34 79.48,176.039 77.281,175.668 75.094,175.219 72.926,174.699 
			70.77,174.122 68.633,173.461 90.059,107.602 		"/>
		<polygon fill="#386CB0" points="68.543,173.5 66.398,172.762 64.262,171.965 62.164,171.086 60.086,170.137 58.047,169.118 
			56.039,168.04 54.07,166.887 52.141,165.672 50.258,164.403 48.41,163.075 46.613,161.676 44.855,160.215 43.156,158.719 
			41.5,157.149 39.902,155.52 38.355,153.852 36.855,152.133 35.426,150.368 34.047,148.547 32.734,146.692 31.484,144.782 
			30.297,142.844 29.168,140.868 28.109,138.848 27.121,136.793 26.191,134.715 25.344,132.606 24.555,130.469 23.848,128.301 
			23.211,126.125 22.633,123.915 22.145,121.699 21.715,119.461 21.367,117.203 21.098,114.945 20.898,112.668 20.77,110.41 
			20.723,108.121 20.742,105.844 20.844,103.567 21.012,101.301 21.262,99.032 90.031,107.715 		"/>
		<polygon fill="none" stroke="#000000" stroke-width="0.7495" stroke-linejoin="round" stroke-miterlimit="10.433" points="
			68.543,173.5 66.398,172.762 64.262,171.965 62.164,171.086 60.086,170.137 58.047,169.118 56.039,168.04 54.07,166.887 
			52.141,165.672 50.258,164.403 48.41,163.075 46.613,161.676 44.855,160.215 43.156,158.719 41.5,157.149 39.902,155.52 
			38.355,153.852 36.855,152.133 35.426,150.368 34.047,148.547 32.734,146.692 31.484,144.782 30.297,142.844 29.168,140.868 
			28.109,138.848 27.121,136.793 26.191,134.715 25.344,132.606 24.555,130.469 23.848,128.301 23.211,126.125 22.633,123.915 
			22.145,121.699 21.715,119.461 21.367,117.203 21.098,114.945 20.898,112.668 20.77,110.41 20.723,108.121 20.742,105.844 
			20.844,103.567 21.012,101.301 21.262,99.032 90.031,107.715 		"/>
		<polygon fill="#7FC97F" points="21.195,98.954 21.512,96.754 21.891,94.559 22.348,92.379 22.867,90.231 23.465,88.086 
			24.121,85.969 24.848,83.872 25.645,81.797 26.504,79.75 27.434,77.727 28.434,75.743 29.48,73.785 30.598,71.871 31.785,69.984 
			33.023,68.141 34.32,66.333 35.668,64.578 37.086,62.859 38.551,61.184 40.07,59.566 41.637,57.993 43.254,56.473 44.922,54.996 
			46.641,53.583 48.398,52.223 50.195,50.93 52.043,49.68 53.922,48.493 55.836,47.379 57.793,46.321 59.781,45.32 61.801,44.383 
			63.848,43.52 65.914,42.723 68.023,41.984 70.137,41.317 72.273,40.719 74.43,40.196 76.609,39.738 78.797,39.352 81.004,39.035 
			83.211,38.785 85.426,38.605 87.645,38.496 89.871,38.469 89.871,107.723 		"/>
		<polygon fill="none" stroke="#000000" stroke-width="0.7495" stroke-linejoin="round" stroke-miterlimit="10.433" points="
			21.195,98.954 21.512,96.754 21.891,94.559 22.348,92.379 22.867,90.231 23.465,88.086 24.121,85.969 24.848,83.872 
			25.645,81.797 26.504,79.75 27.434,77.727 28.434,75.743 29.48,73.785 30.598,71.871 31.785,69.984 33.023,68.141 34.32,66.333 
			35.668,64.578 37.086,62.859 38.551,61.184 40.07,59.566 41.637,57.993 43.254,56.473 44.922,54.996 46.641,53.583 48.398,52.223 
			50.195,50.93 52.043,49.68 53.922,48.493 55.836,47.379 57.793,46.321 59.781,45.32 61.801,44.383 63.848,43.52 65.914,42.723 
			68.023,41.984 70.137,41.317 72.273,40.719 74.43,40.196 76.609,39.738 78.797,39.352 81.004,39.035 83.211,38.785 85.426,38.605 
			87.645,38.496 89.871,38.469 89.871,107.723 		"/>
	</g>
</g>
</svg>
