<?xml version="1.0" encoding="utf-8" standalone="no"?>
<!DOCTYPE svg PUBLIC "-//W3C//DTD SVG 1.1//EN"
  "http://www.w3.org/Graphics/SVG/1.1/DTD/svg11.dtd">
<!-- Created with matplotlib (http://matplotlib.org/) -->
<svg height="288pt" version="1.1" viewBox="0 0 576 288" width="576pt" xmlns="http://www.w3.org/2000/svg" xmlns:xlink="http://www.w3.org/1999/xlink">
 <defs>
  <style type="text/css">
*{stroke-linecap:butt;stroke-linejoin:round;}
  </style>
 </defs>
 <g id="figure_1">
  <g id="patch_1">
   <path d="M 0 288 
L 576 288 
L 576 0 
L 0 0 
z
" style="fill:none;"/>
  </g>
  <g id="axes_1">
   <g id="patch_2">
    <path d="M 61.05 254.2 
L 271.725 254.2 
L 271.725 16.8 
L 61.05 16.8 
z
" style="fill:none;"/>
   </g>
   <g id="matplotlib.axis_1">
    <g id="xtick_1">
     <g id="line2d_1"/>
     <g id="text_1">
      <!-- Set 1 -->
      <defs>
       <path d="M 53.515625 70.515625 
L 53.515625 60.890625 
Q 47.90625 63.578125 42.921875 64.890625 
Q 37.9375 66.21875 33.296875 66.21875 
Q 25.25 66.21875 20.875 63.09375 
Q 16.5 59.96875 16.5 54.203125 
Q 16.5 49.359375 19.40625 46.890625 
Q 22.3125 44.4375 30.421875 42.921875 
L 36.375 41.703125 
Q 47.40625 39.59375 52.65625 34.296875 
Q 57.90625 29 57.90625 20.125 
Q 57.90625 9.515625 50.796875 4.046875 
Q 43.703125 -1.421875 29.984375 -1.421875 
Q 24.8125 -1.421875 18.96875 -0.25 
Q 13.140625 0.921875 6.890625 3.21875 
L 6.890625 13.375 
Q 12.890625 10.015625 18.65625 8.296875 
Q 24.421875 6.59375 29.984375 6.59375 
Q 38.421875 6.59375 43.015625 9.90625 
Q 47.609375 13.234375 47.609375 19.390625 
Q 47.609375 24.75 44.3125 27.78125 
Q 41.015625 30.8125 33.5 32.328125 
L 27.484375 33.5 
Q 16.453125 35.6875 11.515625 40.375 
Q 6.59375 45.0625 6.59375 53.421875 
Q 6.59375 63.09375 13.40625 68.65625 
Q 20.21875 74.21875 32.171875 74.21875 
Q 37.3125 74.21875 42.625 73.28125 
Q 47.953125 72.359375 53.515625 70.515625 
" id="DejaVuSans-53"/>
       <path d="M 56.203125 29.59375 
L 56.203125 25.203125 
L 14.890625 25.203125 
Q 15.484375 15.921875 20.484375 11.0625 
Q 25.484375 6.203125 34.421875 6.203125 
Q 39.59375 6.203125 44.453125 7.46875 
Q 49.3125 8.734375 54.109375 11.28125 
L 54.109375 2.78125 
Q 49.265625 0.734375 44.1875 -0.34375 
Q 39.109375 -1.421875 33.890625 -1.421875 
Q 20.796875 -1.421875 13.15625 6.1875 
Q 5.515625 13.8125 5.515625 26.8125 
Q 5.515625 40.234375 12.765625 48.109375 
Q 20.015625 56 32.328125 56 
Q 43.359375 56 49.78125 48.890625 
Q 56.203125 41.796875 56.203125 29.59375 
M 47.21875 32.234375 
Q 47.125 39.59375 43.09375 43.984375 
Q 39.0625 48.390625 32.421875 48.390625 
Q 24.90625 48.390625 20.390625 44.140625 
Q 15.875 39.890625 15.1875 32.171875 
z
" id="DejaVuSans-65"/>
       <path d="M 18.3125 70.21875 
L 18.3125 54.6875 
L 36.8125 54.6875 
L 36.8125 47.703125 
L 18.3125 47.703125 
L 18.3125 18.015625 
Q 18.3125 11.328125 20.140625 9.421875 
Q 21.96875 7.515625 27.59375 7.515625 
L 36.8125 7.515625 
L 36.8125 0 
L 27.59375 0 
Q 17.1875 0 13.234375 3.875 
Q 9.28125 7.765625 9.28125 18.015625 
L 9.28125 47.703125 
L 2.6875 47.703125 
L 2.6875 54.6875 
L 9.28125 54.6875 
L 9.28125 70.21875 
z
" id="DejaVuSans-74"/>
       <path id="DejaVuSans-20"/>
       <path d="M 12.40625 8.296875 
L 28.515625 8.296875 
L 28.515625 63.921875 
L 10.984375 60.40625 
L 10.984375 69.390625 
L 28.421875 72.90625 
L 38.28125 72.90625 
L 38.28125 8.296875 
L 54.390625 8.296875 
L 54.390625 0 
L 12.40625 0 
z
" id="DejaVuSans-31"/>
      </defs>
      <g style="fill:#d2d2d2;" transform="translate(92.544318 273.396875)scale(0.2 -0.2)">
       <use xlink:href="#DejaVuSans-53"/>
       <use x="63.476562" xlink:href="#DejaVuSans-65"/>
       <use x="125" xlink:href="#DejaVuSans-74"/>
       <use x="164.208984" xlink:href="#DejaVuSans-20"/>
       <use x="195.996094" xlink:href="#DejaVuSans-31"/>
      </g>
     </g>
    </g>
    <g id="xtick_2">
     <g id="line2d_2"/>
     <g id="text_2">
      <!-- Set 2 -->
      <defs>
       <path d="M 19.1875 8.296875 
L 53.609375 8.296875 
L 53.609375 0 
L 7.328125 0 
L 7.328125 8.296875 
Q 12.9375 14.109375 22.625 23.890625 
Q 32.328125 33.6875 34.8125 36.53125 
Q 39.546875 41.84375 41.421875 45.53125 
Q 43.3125 49.21875 43.3125 52.78125 
Q 43.3125 58.59375 39.234375 62.25 
Q 35.15625 65.921875 28.609375 65.921875 
Q 23.96875 65.921875 18.8125 64.3125 
Q 13.671875 62.703125 7.8125 59.421875 
L 7.8125 69.390625 
Q 13.765625 71.78125 18.9375 73 
Q 24.125 74.21875 28.421875 74.21875 
Q 39.75 74.21875 46.484375 68.546875 
Q 53.21875 62.890625 53.21875 53.421875 
Q 53.21875 48.921875 51.53125 44.890625 
Q 49.859375 40.875 45.40625 35.40625 
Q 44.1875 33.984375 37.640625 27.21875 
Q 31.109375 20.453125 19.1875 8.296875 
" id="DejaVuSans-32"/>
      </defs>
      <g style="fill:#d2d2d2;" transform="translate(188.305682 273.396875)scale(0.2 -0.2)">
       <use xlink:href="#DejaVuSans-53"/>
       <use x="63.476562" xlink:href="#DejaVuSans-65"/>
       <use x="125" xlink:href="#DejaVuSans-74"/>
       <use x="164.208984" xlink:href="#DejaVuSans-20"/>
       <use x="195.996094" xlink:href="#DejaVuSans-32"/>
      </g>
     </g>
    </g>
   </g>
   <g id="matplotlib.axis_2">
    <g id="ytick_1">
     <g id="line2d_3">
      <defs>
       <path d="M 0 0 
L -6 0 
" id="m6cf49b7b8b" style="stroke:#d2d2d2;"/>
      </defs>
      <g>
       <use style="fill:#d2d2d2;stroke:#d2d2d2;" x="61.05" xlink:href="#m6cf49b7b8b" y="254.2"/>
      </g>
     </g>
     <g id="text_3">
      <!-- 0 -->
      <defs>
       <path d="M 31.78125 66.40625 
Q 24.171875 66.40625 20.328125 58.90625 
Q 16.5 51.421875 16.5 36.375 
Q 16.5 21.390625 20.328125 13.890625 
Q 24.171875 6.390625 31.78125 6.390625 
Q 39.453125 6.390625 43.28125 13.890625 
Q 47.125 21.390625 47.125 36.375 
Q 47.125 51.421875 43.28125 58.90625 
Q 39.453125 66.40625 31.78125 66.40625 
M 31.78125 74.21875 
Q 44.046875 74.21875 50.515625 64.515625 
Q 56.984375 54.828125 56.984375 36.375 
Q 56.984375 17.96875 50.515625 8.265625 
Q 44.046875 -1.421875 31.78125 -1.421875 
Q 19.53125 -1.421875 13.0625 8.265625 
Q 6.59375 17.96875 6.59375 36.375 
Q 6.59375 54.828125 13.0625 64.515625 
Q 19.53125 74.21875 31.78125 74.21875 
" id="DejaVuSans-30"/>
      </defs>
      <g style="fill:#d2d2d2;" transform="translate(42.6425 259.518906)scale(0.14 -0.14)">
       <use xlink:href="#DejaVuSans-30"/>
      </g>
     </g>
    </g>
    <g id="ytick_2">
     <g id="line2d_4">
      <g>
       <use style="fill:#d2d2d2;stroke:#d2d2d2;" x="61.05" xlink:href="#m6cf49b7b8b" y="217.10625"/>
      </g>
     </g>
     <g id="text_4">
      <!-- 5 -->
      <defs>
       <path d="M 10.796875 72.90625 
L 49.515625 72.90625 
L 49.515625 64.59375 
L 19.828125 64.59375 
L 19.828125 46.734375 
Q 21.96875 47.46875 24.109375 47.828125 
Q 26.265625 48.1875 28.421875 48.1875 
Q 40.625 48.1875 47.75 41.5 
Q 54.890625 34.8125 54.890625 23.390625 
Q 54.890625 11.625 47.5625 5.09375 
Q 40.234375 -1.421875 26.90625 -1.421875 
Q 22.3125 -1.421875 17.546875 -0.640625 
Q 12.796875 0.140625 7.71875 1.703125 
L 7.71875 11.625 
Q 12.109375 9.234375 16.796875 8.0625 
Q 21.484375 6.890625 26.703125 6.890625 
Q 35.15625 6.890625 40.078125 11.328125 
Q 45.015625 15.765625 45.015625 23.390625 
Q 45.015625 31 40.078125 35.4375 
Q 35.15625 39.890625 26.703125 39.890625 
Q 22.75 39.890625 18.8125 39.015625 
Q 14.890625 38.140625 10.796875 36.28125 
z
" id="DejaVuSans-35"/>
      </defs>
      <g style="fill:#d2d2d2;" transform="translate(42.6425 222.425156)scale(0.14 -0.14)">
       <use xlink:href="#DejaVuSans-35"/>
      </g>
     </g>
    </g>
    <g id="ytick_3">
     <g id="line2d_5">
      <g>
       <use style="fill:#d2d2d2;stroke:#d2d2d2;" x="61.05" xlink:href="#m6cf49b7b8b" y="180.0125"/>
      </g>
     </g>
     <g id="text_5">
      <!-- 10 -->
      <g style="fill:#d2d2d2;" transform="translate(33.735 185.331406)scale(0.14 -0.14)">
       <use xlink:href="#DejaVuSans-31"/>
       <use x="63.623047" xlink:href="#DejaVuSans-30"/>
      </g>
     </g>
    </g>
    <g id="ytick_4">
     <g id="line2d_6">
      <g>
       <use style="fill:#d2d2d2;stroke:#d2d2d2;" x="61.05" xlink:href="#m6cf49b7b8b" y="142.91875"/>
      </g>
     </g>
     <g id="text_6">
      <!-- 15 -->
      <g style="fill:#d2d2d2;" transform="translate(33.735 148.237656)scale(0.14 -0.14)">
       <use xlink:href="#DejaVuSans-31"/>
       <use x="63.623047" xlink:href="#DejaVuSans-35"/>
      </g>
     </g>
    </g>
    <g id="ytick_5">
     <g id="line2d_7">
      <g>
       <use style="fill:#d2d2d2;stroke:#d2d2d2;" x="61.05" xlink:href="#m6cf49b7b8b" y="105.825"/>
      </g>
     </g>
     <g id="text_7">
      <!-- 20 -->
      <g style="fill:#d2d2d2;" transform="translate(33.735 111.143906)scale(0.14 -0.14)">
       <use xlink:href="#DejaVuSans-32"/>
       <use x="63.623047" xlink:href="#DejaVuSans-30"/>
      </g>
     </g>
    </g>
    <g id="ytick_6">
     <g id="line2d_8">
      <g>
       <use style="fill:#d2d2d2;stroke:#d2d2d2;" x="61.05" xlink:href="#m6cf49b7b8b" y="68.73125"/>
      </g>
     </g>
     <g id="text_8">
      <!-- 25 -->
      <g style="fill:#d2d2d2;" transform="translate(33.735 74.050156)scale(0.14 -0.14)">
       <use xlink:href="#DejaVuSans-32"/>
       <use x="63.623047" xlink:href="#DejaVuSans-35"/>
      </g>
     </g>
    </g>
    <g id="ytick_7">
     <g id="line2d_9">
      <g>
       <use style="fill:#d2d2d2;stroke:#d2d2d2;" x="61.05" xlink:href="#m6cf49b7b8b" y="31.6375"/>
      </g>
     </g>
     <g id="text_9">
      <!-- 30 -->
      <defs>
       <path d="M 40.578125 39.3125 
Q 47.65625 37.796875 51.625 33 
Q 55.609375 28.21875 55.609375 21.1875 
Q 55.609375 10.40625 48.1875 4.484375 
Q 40.765625 -1.421875 27.09375 -1.421875 
Q 22.515625 -1.421875 17.65625 -0.515625 
Q 12.796875 0.390625 7.625 2.203125 
L 7.625 11.71875 
Q 11.71875 9.328125 16.59375 8.109375 
Q 21.484375 6.890625 26.8125 6.890625 
Q 36.078125 6.890625 40.9375 10.546875 
Q 45.796875 14.203125 45.796875 21.1875 
Q 45.796875 27.640625 41.28125 31.265625 
Q 36.765625 34.90625 28.71875 34.90625 
L 20.21875 34.90625 
L 20.21875 43.015625 
L 29.109375 43.015625 
Q 36.375 43.015625 40.234375 45.921875 
Q 44.09375 48.828125 44.09375 54.296875 
Q 44.09375 59.90625 40.109375 62.90625 
Q 36.140625 65.921875 28.71875 65.921875 
Q 24.65625 65.921875 20.015625 65.03125 
Q 15.375 64.15625 9.8125 62.3125 
L 9.8125 71.09375 
Q 15.4375 72.65625 20.34375 73.4375 
Q 25.25 74.21875 29.59375 74.21875 
Q 40.828125 74.21875 47.359375 69.109375 
Q 53.90625 64.015625 53.90625 55.328125 
Q 53.90625 49.265625 50.4375 45.09375 
Q 46.96875 40.921875 40.578125 39.3125 
" id="DejaVuSans-33"/>
      </defs>
      <g style="fill:#d2d2d2;" transform="translate(33.735 36.956406)scale(0.14 -0.14)">
       <use xlink:href="#DejaVuSans-33"/>
       <use x="63.623047" xlink:href="#DejaVuSans-30"/>
      </g>
     </g>
    </g>
    <g id="text_10">
     <!-- Value -->
     <defs>
      <path d="M 28.609375 0 
L 0.78125 72.90625 
L 11.078125 72.90625 
L 34.1875 11.53125 
L 57.328125 72.90625 
L 67.578125 72.90625 
L 39.796875 0 
z
" id="DejaVuSans-56"/>
      <path d="M 34.28125 27.484375 
Q 23.390625 27.484375 19.1875 25 
Q 14.984375 22.515625 14.984375 16.5 
Q 14.984375 11.71875 18.140625 8.90625 
Q 21.296875 6.109375 26.703125 6.109375 
Q 34.1875 6.109375 38.703125 11.40625 
Q 43.21875 16.703125 43.21875 25.484375 
L 43.21875 27.484375 
z
M 52.203125 31.203125 
L 52.203125 0 
L 43.21875 0 
L 43.21875 8.296875 
Q 40.140625 3.328125 35.546875 0.953125 
Q 30.953125 -1.421875 24.3125 -1.421875 
Q 15.921875 -1.421875 10.953125 3.296875 
Q 6 8.015625 6 15.921875 
Q 6 25.140625 12.171875 29.828125 
Q 18.359375 34.515625 30.609375 34.515625 
L 43.21875 34.515625 
L 43.21875 35.40625 
Q 43.21875 41.609375 39.140625 45 
Q 35.0625 48.390625 27.6875 48.390625 
Q 23 48.390625 18.546875 47.265625 
Q 14.109375 46.140625 10.015625 43.890625 
L 10.015625 52.203125 
Q 14.9375 54.109375 19.578125 55.046875 
Q 24.21875 56 28.609375 56 
Q 40.484375 56 46.34375 49.84375 
Q 52.203125 43.703125 52.203125 31.203125 
" id="DejaVuSans-61"/>
      <path d="M 9.421875 75.984375 
L 18.40625 75.984375 
L 18.40625 0 
L 9.421875 0 
z
" id="DejaVuSans-6c"/>
      <path d="M 8.5 21.578125 
L 8.5 54.6875 
L 17.484375 54.6875 
L 17.484375 21.921875 
Q 17.484375 14.15625 20.5 10.265625 
Q 23.53125 6.390625 29.59375 6.390625 
Q 36.859375 6.390625 41.078125 11.03125 
Q 45.3125 15.671875 45.3125 23.6875 
L 45.3125 54.6875 
L 54.296875 54.6875 
L 54.296875 0 
L 45.3125 0 
L 45.3125 8.40625 
Q 42.046875 3.421875 37.71875 1 
Q 33.40625 -1.421875 27.6875 -1.421875 
Q 18.265625 -1.421875 13.375 4.4375 
Q 8.5 10.296875 8.5 21.578125 
M 31.109375 56 
z
" id="DejaVuSans-75"/>
     </defs>
     <g style="fill:#d2d2d2;" transform="translate(25.575625 163.726562)rotate(-90)scale(0.2 -0.2)">
      <use xlink:href="#DejaVuSans-56"/>
      <use x="68.298828" xlink:href="#DejaVuSans-61"/>
      <use x="129.578125" xlink:href="#DejaVuSans-6c"/>
      <use x="157.361328" xlink:href="#DejaVuSans-75"/>
      <use x="220.740234" xlink:href="#DejaVuSans-65"/>
     </g>
    </g>
   </g>
   <g id="line2d_10">
    <defs>
     <path d="M 0 5.5 
C 1.458617 5.5 2.857689 4.920485 3.889087 3.889087 
C 4.920485 2.857689 5.5 1.458617 5.5 0 
C 5.5 -1.458617 4.920485 -2.857689 3.889087 -3.889087 
C 2.857689 -4.920485 1.458617 -5.5 0 -5.5 
C -1.458617 -5.5 -2.857689 -4.920485 -3.889087 -3.889087 
C -4.920485 -2.857689 -5.5 -1.458617 -5.5 0 
C -5.5 1.458617 -4.920485 2.857689 -3.889087 3.889087 
C -2.857689 4.920485 -1.458617 5.5 0 5.5 
z
" id="ma4fb43ba8f" style="stroke:#5bc0de;stroke-width:2;"/>
    </defs>
    <g clip-path="url(#pe0b5800960)">
     <use style="fill:none;stroke:#5bc0de;stroke-width:2;" x="130.797001" xlink:href="#ma4fb43ba8f" y="144.33329"/>
     <use style="fill:none;stroke:#5bc0de;stroke-width:2;" x="109.552527" xlink:href="#ma4fb43ba8f" y="120.629353"/>
     <use style="fill:none;stroke:#5bc0de;stroke-width:2;" x="126.526892" xlink:href="#ma4fb43ba8f" y="179.000056"/>
     <use style="fill:none;stroke:#5bc0de;stroke-width:2;" x="122.593515" xlink:href="#ma4fb43ba8f" y="87.4749"/>
     <use style="fill:none;stroke:#5bc0de;stroke-width:2;" x="111.116347" xlink:href="#ma4fb43ba8f" y="92.028321"/>
     <use style="fill:none;stroke:#5bc0de;stroke-width:2;" x="117.524324" xlink:href="#ma4fb43ba8f" y="168.941269"/>
     <use style="fill:none;stroke:#5bc0de;stroke-width:2;" x="104.639798" xlink:href="#ma4fb43ba8f" y="164.757399"/>
     <use style="fill:none;stroke:#5bc0de;stroke-width:2;" x="120.094509" xlink:href="#ma4fb43ba8f" y="167.279373"/>
     <use style="fill:none;stroke:#5bc0de;stroke-width:2;" x="96.25808" xlink:href="#ma4fb43ba8f" y="95.056039"/>
    </g>
   </g>
   <g id="line2d_11">
    <g clip-path="url(#pe0b5800960)">
     <use style="fill:none;stroke:#5bc0de;stroke-width:2;" x="220.329684" xlink:href="#ma4fb43ba8f" y="108.99084"/>
     <use style="fill:none;stroke:#5bc0de;stroke-width:2;" x="224.249402" xlink:href="#ma4fb43ba8f" y="144.542507"/>
     <use style="fill:none;stroke:#5bc0de;stroke-width:2;" x="221.421213" xlink:href="#ma4fb43ba8f" y="66.644689"/>
     <use style="fill:none;stroke:#5bc0de;stroke-width:2;" x="219.86179" xlink:href="#ma4fb43ba8f" y="149.395067"/>
     <use style="fill:none;stroke:#5bc0de;stroke-width:2;" x="225.841337" xlink:href="#ma4fb43ba8f" y="101.906216"/>
     <use style="fill:none;stroke:#5bc0de;stroke-width:2;" x="213.696866" xlink:href="#ma4fb43ba8f" y="87.516497"/>
     <use style="fill:none;stroke:#5bc0de;stroke-width:2;" x="201.534762" xlink:href="#ma4fb43ba8f" y="69.583538"/>
     <use style="fill:none;stroke:#5bc0de;stroke-width:2;" x="220.02734" xlink:href="#ma4fb43ba8f" y="158.434569"/>
     <use style="fill:none;stroke:#5bc0de;stroke-width:2;" x="206.820967" xlink:href="#ma4fb43ba8f" y="65.41107"/>
    </g>
   </g>
   <g id="line2d_12">
    <defs>
     <path d="M 30 0 
L -30 -0 
" id="m774af432c1" style="stroke:#d2d2d2;stroke-width:3;"/>
    </defs>
    <g clip-path="url(#pe0b5800960)">
     <use style="fill:#d2d2d2;stroke:#d2d2d2;stroke-width:3;" x="118.506818" xlink:href="#m774af432c1" y="135.5"/>
    </g>
   </g>
   <g id="line2d_13">
    <g clip-path="url(#pe0b5800960)">
     <use style="fill:#d2d2d2;stroke:#d2d2d2;stroke-width:3;" x="214.268182" xlink:href="#m774af432c1" y="105.824999"/>
    </g>
   </g>
   <g id="patch_3">
    <path d="M 61.05 254.2 
L 61.05 16.8 
" style="fill:none;stroke:#d2d2d2;stroke-linecap:square;stroke-linejoin:miter;stroke-width:0.8;"/>
   </g>
   <g id="patch_4">
    <path d="M 61.05 254.2 
L 271.725 254.2 
" style="fill:none;stroke:#d2d2d2;stroke-linecap:square;stroke-linejoin:miter;stroke-width:0.8;"/>
   </g>
  </g>
  <g id="axes_2">
   <g id="patch_5">
    <path d="M 352.525 254.2 
L 563.2 254.2 
L 563.2 16.8 
L 352.525 16.8 
z
" style="fill:none;"/>
   </g>
   <g id="patch_6">
    <path clip-path="url(#p872d9c8ef5)" d="M 371.677273 254.2 
L 448.286364 254.2 
L 448.286364 135.5 
L 371.677273 135.5 
z
" style="fill:#5bc0de;"/>
   </g>
   <g id="patch_7">
    <path clip-path="url(#p872d9c8ef5)" d="M 467.438636 254.2 
L 544.047727 254.2 
L 544.047727 105.824999 
L 467.438636 105.824999 
z
" style="fill:#5bc0de;"/>
   </g>
   <g id="matplotlib.axis_3">
    <g id="xtick_3">
     <g id="line2d_14"/>
     <g id="text_11">
      <!-- Set 1 -->
      <g style="fill:#d2d2d2;" transform="translate(384.019318 273.396875)scale(0.2 -0.2)">
       <use xlink:href="#DejaVuSans-53"/>
       <use x="63.476562" xlink:href="#DejaVuSans-65"/>
       <use x="125" xlink:href="#DejaVuSans-74"/>
       <use x="164.208984" xlink:href="#DejaVuSans-20"/>
       <use x="195.996094" xlink:href="#DejaVuSans-31"/>
      </g>
     </g>
    </g>
    <g id="xtick_4">
     <g id="line2d_15"/>
     <g id="text_12">
      <!-- Set 2 -->
      <g style="fill:#d2d2d2;" transform="translate(479.780682 273.396875)scale(0.2 -0.2)">
       <use xlink:href="#DejaVuSans-53"/>
       <use x="63.476562" xlink:href="#DejaVuSans-65"/>
       <use x="125" xlink:href="#DejaVuSans-74"/>
       <use x="164.208984" xlink:href="#DejaVuSans-20"/>
       <use x="195.996094" xlink:href="#DejaVuSans-32"/>
      </g>
     </g>
    </g>
   </g>
   <g id="matplotlib.axis_4">
    <g id="ytick_8">
     <g id="line2d_16">
      <g>
       <use style="fill:#d2d2d2;stroke:#d2d2d2;" x="352.525" xlink:href="#m6cf49b7b8b" y="254.2"/>
      </g>
     </g>
     <g id="text_13">
      <!-- 0 -->
      <g style="fill:#d2d2d2;" transform="translate(334.1175 259.518906)scale(0.14 -0.14)">
       <use xlink:href="#DejaVuSans-30"/>
      </g>
     </g>
    </g>
    <g id="ytick_9">
     <g id="line2d_17">
      <g>
       <use style="fill:#d2d2d2;stroke:#d2d2d2;" x="352.525" xlink:href="#m6cf49b7b8b" y="217.10625"/>
      </g>
     </g>
     <g id="text_14">
      <!-- 5 -->
      <g style="fill:#d2d2d2;" transform="translate(334.1175 222.425156)scale(0.14 -0.14)">
       <use xlink:href="#DejaVuSans-35"/>
      </g>
     </g>
    </g>
    <g id="ytick_10">
     <g id="line2d_18">
      <g>
       <use style="fill:#d2d2d2;stroke:#d2d2d2;" x="352.525" xlink:href="#m6cf49b7b8b" y="180.0125"/>
      </g>
     </g>
     <g id="text_15">
      <!-- 10 -->
      <g style="fill:#d2d2d2;" transform="translate(325.21 185.331406)scale(0.14 -0.14)">
       <use xlink:href="#DejaVuSans-31"/>
       <use x="63.623047" xlink:href="#DejaVuSans-30"/>
      </g>
     </g>
    </g>
    <g id="ytick_11">
     <g id="line2d_19">
      <g>
       <use style="fill:#d2d2d2;stroke:#d2d2d2;" x="352.525" xlink:href="#m6cf49b7b8b" y="142.91875"/>
      </g>
     </g>
     <g id="text_16">
      <!-- 15 -->
      <g style="fill:#d2d2d2;" transform="translate(325.21 148.237656)scale(0.14 -0.14)">
       <use xlink:href="#DejaVuSans-31"/>
       <use x="63.623047" xlink:href="#DejaVuSans-35"/>
      </g>
     </g>
    </g>
    <g id="ytick_12">
     <g id="line2d_20">
      <g>
       <use style="fill:#d2d2d2;stroke:#d2d2d2;" x="352.525" xlink:href="#m6cf49b7b8b" y="105.825"/>
      </g>
     </g>
     <g id="text_17">
      <!-- 20 -->
      <g style="fill:#d2d2d2;" transform="translate(325.21 111.143906)scale(0.14 -0.14)">
       <use xlink:href="#DejaVuSans-32"/>
       <use x="63.623047" xlink:href="#DejaVuSans-30"/>
      </g>
     </g>
    </g>
    <g id="ytick_13">
     <g id="line2d_21">
      <g>
       <use style="fill:#d2d2d2;stroke:#d2d2d2;" x="352.525" xlink:href="#m6cf49b7b8b" y="68.73125"/>
      </g>
     </g>
     <g id="text_18">
      <!-- 25 -->
      <g style="fill:#d2d2d2;" transform="translate(325.21 74.050156)scale(0.14 -0.14)">
       <use xlink:href="#DejaVuSans-32"/>
       <use x="63.623047" xlink:href="#DejaVuSans-35"/>
      </g>
     </g>
    </g>
    <g id="ytick_14">
     <g id="line2d_22">
      <g>
       <use style="fill:#d2d2d2;stroke:#d2d2d2;" x="352.525" xlink:href="#m6cf49b7b8b" y="31.6375"/>
      </g>
     </g>
     <g id="text_19">
      <!-- 30 -->
      <g style="fill:#d2d2d2;" transform="translate(325.21 36.956406)scale(0.14 -0.14)">
       <use xlink:href="#DejaVuSans-33"/>
       <use x="63.623047" xlink:href="#DejaVuSans-30"/>
      </g>
     </g>
    </g>
    <g id="text_20">
     <!-- Value -->
     <g style="fill:#d2d2d2;" transform="translate(317.050625 163.726562)rotate(-90)scale(0.2 -0.2)">
      <use xlink:href="#DejaVuSans-56"/>
      <use x="68.298828" xlink:href="#DejaVuSans-61"/>
      <use x="129.578125" xlink:href="#DejaVuSans-6c"/>
      <use x="157.361328" xlink:href="#DejaVuSans-75"/>
      <use x="220.740234" xlink:href="#DejaVuSans-65"/>
     </g>
    </g>
   </g>
   <g id="LineCollection_1">
    <path clip-path="url(#p872d9c8ef5)" d="M 409.981818 172.594866 
L 409.981818 98.405134 
" style="fill:none;stroke:#5bc0de;stroke-width:2;"/>
   </g>
   <g id="LineCollection_2">
    <path clip-path="url(#p872d9c8ef5)" d="M 505.743182 142.919864 
L 505.743182 68.730134 
" style="fill:none;stroke:#5bc0de;stroke-width:2;"/>
   </g>
   <g id="line2d_23">
    <defs>
     <path d="M 5 0 
L -5 -0 
" id="maea1855cd8" style="stroke:#5bc0de;stroke-width:2;"/>
    </defs>
    <g clip-path="url(#p872d9c8ef5)">
     <use style="fill:#5bc0de;stroke:#5bc0de;stroke-width:2;" x="409.981818" xlink:href="#maea1855cd8" y="172.594866"/>
    </g>
   </g>
   <g id="line2d_24">
    <g clip-path="url(#p872d9c8ef5)">
     <use style="fill:#5bc0de;stroke:#5bc0de;stroke-width:2;" x="409.981818" xlink:href="#maea1855cd8" y="98.405134"/>
    </g>
   </g>
   <g id="line2d_25">
    <g clip-path="url(#p872d9c8ef5)">
     <use style="fill:#5bc0de;stroke:#5bc0de;stroke-width:2;" x="505.743182" xlink:href="#maea1855cd8" y="142.919864"/>
    </g>
   </g>
   <g id="line2d_26">
    <g clip-path="url(#p872d9c8ef5)">
     <use style="fill:#5bc0de;stroke:#5bc0de;stroke-width:2;" x="505.743182" xlink:href="#maea1855cd8" y="68.730134"/>
    </g>
   </g>
   <g id="line2d_27">
    <path clip-path="url(#p872d9c8ef5)" d="M 409.981818 135.5 
" style="fill:none;stroke:#5bc0de;stroke-linecap:square;stroke-width:2;"/>
   </g>
   <g id="line2d_28">
    <path clip-path="url(#p872d9c8ef5)" d="M 505.743182 105.824999 
" style="fill:none;stroke:#5bc0de;stroke-linecap:square;stroke-width:2;"/>
   </g>
   <g id="patch_8">
    <path d="M 352.525 254.2 
L 352.525 16.8 
" style="fill:none;stroke:#d2d2d2;stroke-linecap:square;stroke-linejoin:miter;stroke-width:0.8;"/>
   </g>
   <g id="patch_9">
    <path d="M 352.525 254.2 
L 563.2 254.2 
" style="fill:none;stroke:#d2d2d2;stroke-linecap:square;stroke-linejoin:miter;stroke-width:0.8;"/>
   </g>
  </g>
  <g id="axes_3">
   <g id="line2d_29">
    <defs>
     <path d="M 0 5.5 
C 1.458617 5.5 2.857689 4.920485 3.889087 3.889087 
C 4.920485 2.857689 5.5 1.458617 5.5 0 
C 5.5 -1.458617 4.920485 -2.857689 3.889087 -3.889087 
C 2.857689 -4.920485 1.458617 -5.5 0 -5.5 
C -1.458617 -5.5 -2.857689 -4.920485 -3.889087 -3.889087 
C -4.920485 -2.857689 -5.5 -1.458617 -5.5 0 
C -5.5 1.458617 -4.920485 2.857689 -3.889087 3.889087 
C -2.857689 4.920485 -1.458617 5.5 0 5.5 
z
" id="m4ae0a09d79" style="stroke:#f0ad4e;stroke-width:2;"/>
    </defs>
    <g clip-path="url(#pe0b5800960)">
     <use style="fill:none;stroke:#f0ad4e;stroke-width:2;" x="113.376328" xlink:href="#m4ae0a09d79" y="176.757739"/>
     <use style="fill:none;stroke:#f0ad4e;stroke-width:2;" x="116.374029" xlink:href="#m4ae0a09d79" y="126.567009"/>
     <use style="fill:none;stroke:#f0ad4e;stroke-width:2;" x="107.634269" xlink:href="#m4ae0a09d79" y="88.447795"/>
     <use style="fill:none;stroke:#f0ad4e;stroke-width:2;" x="116.406048" xlink:href="#m4ae0a09d79" y="167.395677"/>
     <use style="fill:none;stroke:#f0ad4e;stroke-width:2;" x="112.382993" xlink:href="#m4ae0a09d79" y="166.269384"/>
     <use style="fill:none;stroke:#f0ad4e;stroke-width:2;" x="117.188839" xlink:href="#m4ae0a09d79" y="87.562397"/>
    </g>
   </g>
   <g id="line2d_30">
    <g clip-path="url(#pe0b5800960)">
     <use style="fill:none;stroke:#f0ad4e;stroke-width:2;" x="227.088064" xlink:href="#m4ae0a09d79" y="153.485038"/>
     <use style="fill:none;stroke:#f0ad4e;stroke-width:2;" x="226.288048" xlink:href="#m4ae0a09d79" y="132.741108"/>
     <use style="fill:none;stroke:#f0ad4e;stroke-width:2;" x="208.388646" xlink:href="#m4ae0a09d79" y="61.474021"/>
     <use style="fill:none;stroke:#f0ad4e;stroke-width:2;" x="220.881379" xlink:href="#m4ae0a09d79" y="54.288479"/>
     <use style="fill:none;stroke:#f0ad4e;stroke-width:2;" x="202.415778" xlink:href="#m4ae0a09d79" y="102.128875"/>
     <use style="fill:none;stroke:#f0ad4e;stroke-width:2;" x="199.869669" xlink:href="#m4ae0a09d79" y="130.832471"/>
    </g>
   </g>
  </g>
  <g id="axes_4">
   <g id="line2d_31">
    <defs>
     <path d="M 0 5.5 
C 1.458617 5.5 2.857689 4.920485 3.889087 3.889087 
C 4.920485 2.857689 5.5 1.458617 5.5 0 
C 5.5 -1.458617 4.920485 -2.857689 3.889087 -3.889087 
C 2.857689 -4.920485 1.458617 -5.5 0 -5.5 
C -1.458617 -5.5 -2.857689 -4.920485 -3.889087 -3.889087 
C -4.920485 -2.857689 -5.5 -1.458617 -5.5 0 
C -5.5 1.458617 -4.920485 2.857689 -3.889087 3.889087 
C -2.857689 4.920485 -1.458617 5.5 0 5.5 
z
" id="m0e1bc1c3d0" style="stroke:#d9534f;stroke-width:2;"/>
    </defs>
    <g clip-path="url(#pe0b5800960)">
     <use style="fill:none;stroke:#d9534f;stroke-width:2;" x="142.759995" xlink:href="#m0e1bc1c3d0" y="184.528887"/>
     <use style="fill:none;stroke:#d9534f;stroke-width:2;" x="122.456578" xlink:href="#m0e1bc1c3d0" y="102.663032"/>
     <use style="fill:none;stroke:#d9534f;stroke-width:2;" x="103.645254" xlink:href="#m0e1bc1c3d0" y="145.806187"/>
     <use style="fill:none;stroke:#d9534f;stroke-width:2;" x="103.832742" xlink:href="#m0e1bc1c3d0" y="141.99536"/>
     <use style="fill:none;stroke:#d9534f;stroke-width:2;" x="110.517694" xlink:href="#m0e1bc1c3d0" y="73.835758"/>
     <use style="fill:none;stroke:#d9534f;stroke-width:2;" x="110.682449" xlink:href="#m0e1bc1c3d0" y="164.170776"/>
    </g>
   </g>
   <g id="line2d_32">
    <g clip-path="url(#pe0b5800960)">
     <use style="fill:none;stroke:#d9534f;stroke-width:2;" x="224.356287" xlink:href="#m0e1bc1c3d0" y="104.007592"/>
     <use style="fill:none;stroke:#d9534f;stroke-width:2;" x="217.777501" xlink:href="#m0e1bc1c3d0" y="173.256689"/>
     <use style="fill:none;stroke:#d9534f;stroke-width:2;" x="230.739087" xlink:href="#m0e1bc1c3d0" y="60.148817"/>
     <use style="fill:none;stroke:#d9534f;stroke-width:2;" x="220.179257" xlink:href="#m0e1bc1c3d0" y="68.187426"/>
     <use style="fill:none;stroke:#d9534f;stroke-width:2;" x="236.780396" xlink:href="#m0e1bc1c3d0" y="119.424748"/>
     <use style="fill:none;stroke:#d9534f;stroke-width:2;" x="204.157687" xlink:href="#m0e1bc1c3d0" y="109.924727"/>
    </g>
   </g>
  </g>
 </g>
 <defs>
  <clipPath id="pe0b5800960">
   <rect height="237.4" width="210.675" x="61.05" y="16.8"/>
  </clipPath>
  <clipPath id="p872d9c8ef5">
   <rect height="237.4" width="210.675" x="352.525" y="16.8"/>
  </clipPath>
 </defs>
</svg>
