<?xml version="1.0" encoding="utf-8" standalone="no"?>
<!DOCTYPE svg PUBLIC "-//W3C//DTD SVG 1.1//EN"
  "http://www.w3.org/Graphics/SVG/1.1/DTD/svg11.dtd">
<!-- Created with matplotlib (http://matplotlib.org/) -->
<svg height="432pt" version="1.1" viewBox="0 0 504 432" width="504pt" xmlns="http://www.w3.org/2000/svg" xmlns:xlink="http://www.w3.org/1999/xlink">
 <defs>
  <style type="text/css">
*{stroke-linecap:butt;stroke-linejoin:round;}
  </style>
 </defs>
 <g id="figure_1">
  <g id="patch_1">
   <path d="M 0 432 
L 504 432 
L 504 0 
L 0 0 
z
" style="fill:none;"/>
  </g>
  <g id="axes_1">
   <g id="patch_2">
    <path d="M 75.6 181.44 
L 493.92 181.44 
L 493.92 8.64 
L 75.6 8.64 
z
" style="fill:none;"/>
   </g>
   <g id="matplotlib.axis_1">
    <g id="xtick_1"/>
    <g id="xtick_2"/>
    <g id="xtick_3"/>
    <g id="xtick_4"/>
    <g id="xtick_5"/>
    <g id="xtick_6"/>
    <g id="xtick_7"/>
    <g id="xtick_8"/>
    <g id="xtick_9"/>
    <g id="xtick_10"/>
    <g id="xtick_11"/>
    <g id="xtick_12"/>
    <g id="xtick_13"/>
    <g id="xtick_14"/>
    <g id="xtick_15"/>
    <g id="xtick_16"/>
    <g id="xtick_17"/>
    <g id="xtick_18"/>
    <g id="xtick_19"/>
    <g id="xtick_20"/>
    <g id="xtick_21"/>
    <g id="xtick_22"/>
    <g id="xtick_23"/>
   </g>
   <g id="matplotlib.axis_2">
    <g id="ytick_1">
     <g id="line2d_1">
      <defs>
       <path d="M 0 0 
L -4 0 
" id="mf1ce598947" style="stroke:#d2d2d2;"/>
      </defs>
      <g>
       <use style="fill:#d2d2d2;stroke:#d2d2d2;" x="75.6" xlink:href="#mf1ce598947" y="152.521115"/>
      </g>
     </g>
     <g id="text_1">
      <!-- ${10^{-8}}$ -->
      <defs>
       <path d="M 12.40625 8.296875 
L 28.515625 8.296875 
L 28.515625 63.921875 
L 10.984375 60.40625 
L 10.984375 69.390625 
L 28.421875 72.90625 
L 38.28125 72.90625 
L 38.28125 8.296875 
L 54.390625 8.296875 
L 54.390625 0 
L 12.40625 0 
z
" id="DejaVuSans-31"/>
       <path d="M 31.78125 66.40625 
Q 24.171875 66.40625 20.328125 58.90625 
Q 16.5 51.421875 16.5 36.375 
Q 16.5 21.390625 20.328125 13.890625 
Q 24.171875 6.390625 31.78125 6.390625 
Q 39.453125 6.390625 43.28125 13.890625 
Q 47.125 21.390625 47.125 36.375 
Q 47.125 51.421875 43.28125 58.90625 
Q 39.453125 66.40625 31.78125 66.40625 
M 31.78125 74.21875 
Q 44.046875 74.21875 50.515625 64.515625 
Q 56.984375 54.828125 56.984375 36.375 
Q 56.984375 17.96875 50.515625 8.265625 
Q 44.046875 -1.421875 31.78125 -1.421875 
Q 19.53125 -1.421875 13.0625 8.265625 
Q 6.59375 17.96875 6.59375 36.375 
Q 6.59375 54.828125 13.0625 64.515625 
Q 19.53125 74.21875 31.78125 74.21875 
" id="DejaVuSans-30"/>
       <path d="M 10.59375 35.5 
L 73.1875 35.5 
L 73.1875 27.203125 
L 10.59375 27.203125 
z
" id="DejaVuSans-2212"/>
       <path d="M 31.78125 34.625 
Q 24.75 34.625 20.71875 30.859375 
Q 16.703125 27.09375 16.703125 20.515625 
Q 16.703125 13.921875 20.71875 10.15625 
Q 24.75 6.390625 31.78125 6.390625 
Q 38.8125 6.390625 42.859375 10.171875 
Q 46.921875 13.96875 46.921875 20.515625 
Q 46.921875 27.09375 42.890625 30.859375 
Q 38.875 34.625 31.78125 34.625 
M 21.921875 38.8125 
Q 15.578125 40.375 12.03125 44.71875 
Q 8.5 49.078125 8.5 55.328125 
Q 8.5 64.0625 14.71875 69.140625 
Q 20.953125 74.21875 31.78125 74.21875 
Q 42.671875 74.21875 48.875 69.140625 
Q 55.078125 64.0625 55.078125 55.328125 
Q 55.078125 49.078125 51.53125 44.71875 
Q 48 40.375 41.703125 38.8125 
Q 48.828125 37.15625 52.796875 32.3125 
Q 56.78125 27.484375 56.78125 20.515625 
Q 56.78125 9.90625 50.3125 4.234375 
Q 43.84375 -1.421875 31.78125 -1.421875 
Q 19.734375 -1.421875 13.25 4.234375 
Q 6.78125 9.90625 6.78125 20.515625 
Q 6.78125 27.484375 10.78125 32.3125 
Q 14.796875 37.15625 21.921875 38.8125 
M 18.3125 54.390625 
Q 18.3125 48.734375 21.84375 45.5625 
Q 25.390625 42.390625 31.78125 42.390625 
Q 38.140625 42.390625 41.71875 45.5625 
Q 45.3125 48.734375 45.3125 54.390625 
Q 45.3125 60.0625 41.71875 63.234375 
Q 38.140625 66.40625 31.78125 66.40625 
Q 25.390625 66.40625 21.84375 63.234375 
Q 18.3125 60.0625 18.3125 54.390625 
" id="DejaVuSans-38"/>
      </defs>
      <g style="fill:#d2d2d2;" transform="translate(37.05 157.460099)scale(0.13 -0.13)">
       <use transform="translate(0 0.765625)" xlink:href="#DejaVuSans-31"/>
       <use transform="translate(63.623047 0.765625)" xlink:href="#DejaVuSans-30"/>
       <use transform="translate(128.203125 39.046875)scale(0.7)" xlink:href="#DejaVuSans-2212"/>
       <use transform="translate(186.855469 39.046875)scale(0.7)" xlink:href="#DejaVuSans-38"/>
      </g>
     </g>
    </g>
    <g id="ytick_2">
     <g id="line2d_2">
      <g>
       <use style="fill:#d2d2d2;stroke:#d2d2d2;" x="75.6" xlink:href="#mf1ce598947" y="118.465213"/>
      </g>
     </g>
     <g id="text_2">
      <!-- ${10^{-6}}$ -->
      <defs>
       <path d="M 33.015625 40.375 
Q 26.375 40.375 22.484375 35.828125 
Q 18.609375 31.296875 18.609375 23.390625 
Q 18.609375 15.53125 22.484375 10.953125 
Q 26.375 6.390625 33.015625 6.390625 
Q 39.65625 6.390625 43.53125 10.953125 
Q 47.40625 15.53125 47.40625 23.390625 
Q 47.40625 31.296875 43.53125 35.828125 
Q 39.65625 40.375 33.015625 40.375 
M 52.59375 71.296875 
L 52.59375 62.3125 
Q 48.875 64.0625 45.09375 64.984375 
Q 41.3125 65.921875 37.59375 65.921875 
Q 27.828125 65.921875 22.671875 59.328125 
Q 17.53125 52.734375 16.796875 39.40625 
Q 19.671875 43.65625 24.015625 45.921875 
Q 28.375 48.1875 33.59375 48.1875 
Q 44.578125 48.1875 50.953125 41.515625 
Q 57.328125 34.859375 57.328125 23.390625 
Q 57.328125 12.15625 50.6875 5.359375 
Q 44.046875 -1.421875 33.015625 -1.421875 
Q 20.359375 -1.421875 13.671875 8.265625 
Q 6.984375 17.96875 6.984375 36.375 
Q 6.984375 53.65625 15.1875 63.9375 
Q 23.390625 74.21875 37.203125 74.21875 
Q 40.921875 74.21875 44.703125 73.484375 
Q 48.484375 72.75 52.59375 71.296875 
" id="DejaVuSans-36"/>
      </defs>
      <g style="fill:#d2d2d2;" transform="translate(37.05 123.404198)scale(0.13 -0.13)">
       <use transform="translate(0 0.765625)" xlink:href="#DejaVuSans-31"/>
       <use transform="translate(63.623047 0.765625)" xlink:href="#DejaVuSans-30"/>
       <use transform="translate(128.203125 39.046875)scale(0.7)" xlink:href="#DejaVuSans-2212"/>
       <use transform="translate(186.855469 39.046875)scale(0.7)" xlink:href="#DejaVuSans-36"/>
      </g>
     </g>
    </g>
    <g id="ytick_3">
     <g id="line2d_3">
      <g>
       <use style="fill:#d2d2d2;stroke:#d2d2d2;" x="75.6" xlink:href="#mf1ce598947" y="84.409312"/>
      </g>
     </g>
     <g id="text_3">
      <!-- ${10^{-4}}$ -->
      <defs>
       <path d="M 37.796875 64.3125 
L 12.890625 25.390625 
L 37.796875 25.390625 
z
M 35.203125 72.90625 
L 47.609375 72.90625 
L 47.609375 25.390625 
L 58.015625 25.390625 
L 58.015625 17.1875 
L 47.609375 17.1875 
L 47.609375 0 
L 37.796875 0 
L 37.796875 17.1875 
L 4.890625 17.1875 
L 4.890625 26.703125 
z
" id="DejaVuSans-34"/>
      </defs>
      <g style="fill:#d2d2d2;" transform="translate(37.05 89.348296)scale(0.13 -0.13)">
       <use transform="translate(0 0.684375)" xlink:href="#DejaVuSans-31"/>
       <use transform="translate(63.623047 0.684375)" xlink:href="#DejaVuSans-30"/>
       <use transform="translate(128.203125 38.965625)scale(0.7)" xlink:href="#DejaVuSans-2212"/>
       <use transform="translate(186.855469 38.965625)scale(0.7)" xlink:href="#DejaVuSans-34"/>
      </g>
     </g>
    </g>
    <g id="ytick_4">
     <g id="line2d_4">
      <g>
       <use style="fill:#d2d2d2;stroke:#d2d2d2;" x="75.6" xlink:href="#mf1ce598947" y="50.353411"/>
      </g>
     </g>
     <g id="text_4">
      <!-- ${10^{-2}}$ -->
      <defs>
       <path d="M 19.1875 8.296875 
L 53.609375 8.296875 
L 53.609375 0 
L 7.328125 0 
L 7.328125 8.296875 
Q 12.9375 14.109375 22.625 23.890625 
Q 32.328125 33.6875 34.8125 36.53125 
Q 39.546875 41.84375 41.421875 45.53125 
Q 43.3125 49.21875 43.3125 52.78125 
Q 43.3125 58.59375 39.234375 62.25 
Q 35.15625 65.921875 28.609375 65.921875 
Q 23.96875 65.921875 18.8125 64.3125 
Q 13.671875 62.703125 7.8125 59.421875 
L 7.8125 69.390625 
Q 13.765625 71.78125 18.9375 73 
Q 24.125 74.21875 28.421875 74.21875 
Q 39.75 74.21875 46.484375 68.546875 
Q 53.21875 62.890625 53.21875 53.421875 
Q 53.21875 48.921875 51.53125 44.890625 
Q 49.859375 40.875 45.40625 35.40625 
Q 44.1875 33.984375 37.640625 27.21875 
Q 31.109375 20.453125 19.1875 8.296875 
" id="DejaVuSans-32"/>
      </defs>
      <g style="fill:#d2d2d2;" transform="translate(37.05 55.292395)scale(0.13 -0.13)">
       <use transform="translate(0 0.765625)" xlink:href="#DejaVuSans-31"/>
       <use transform="translate(63.623047 0.765625)" xlink:href="#DejaVuSans-30"/>
       <use transform="translate(128.203125 39.046875)scale(0.7)" xlink:href="#DejaVuSans-2212"/>
       <use transform="translate(186.855469 39.046875)scale(0.7)" xlink:href="#DejaVuSans-32"/>
      </g>
     </g>
    </g>
    <g id="ytick_5">
     <g id="line2d_5">
      <g>
       <use style="fill:#d2d2d2;stroke:#d2d2d2;" x="75.6" xlink:href="#mf1ce598947" y="16.297509"/>
      </g>
     </g>
     <g id="text_5">
      <!-- ${10^{0}}$ -->
      <g style="fill:#d2d2d2;" transform="translate(44.72 21.236494)scale(0.13 -0.13)">
       <use transform="translate(0 0.765625)" xlink:href="#DejaVuSans-31"/>
       <use transform="translate(63.623047 0.765625)" xlink:href="#DejaVuSans-30"/>
       <use transform="translate(128.203125 39.046875)scale(0.7)" xlink:href="#DejaVuSans-30"/>
      </g>
     </g>
    </g>
    <g id="ytick_6">
     <g id="line2d_6">
      <g>
       <use style="fill:#d2d2d2;stroke:#d2d2d2;" x="75.6" xlink:href="#mf1ce598947" y="181.451092"/>
      </g>
     </g>
    </g>
    <g id="ytick_7">
     <g id="line2d_7">
      <g>
       <use style="fill:#d2d2d2;stroke:#d2d2d2;" x="75.6" xlink:href="#mf1ce598947" y="176.325168"/>
      </g>
     </g>
    </g>
    <g id="ytick_8">
     <g id="line2d_8">
      <g>
       <use style="fill:#d2d2d2;stroke:#d2d2d2;" x="75.6" xlink:href="#mf1ce598947" y="173.326695"/>
      </g>
     </g>
    </g>
    <g id="ytick_9">
     <g id="line2d_9">
      <g>
       <use style="fill:#d2d2d2;stroke:#d2d2d2;" x="75.6" xlink:href="#mf1ce598947" y="171.199244"/>
      </g>
     </g>
    </g>
    <g id="ytick_10">
     <g id="line2d_10">
      <g>
       <use style="fill:#d2d2d2;stroke:#d2d2d2;" x="75.6" xlink:href="#mf1ce598947" y="147.395191"/>
      </g>
     </g>
    </g>
    <g id="ytick_11">
     <g id="line2d_11">
      <g>
       <use style="fill:#d2d2d2;stroke:#d2d2d2;" x="75.6" xlink:href="#mf1ce598947" y="142.269267"/>
      </g>
     </g>
    </g>
    <g id="ytick_12">
     <g id="line2d_12">
      <g>
       <use style="fill:#d2d2d2;stroke:#d2d2d2;" x="75.6" xlink:href="#mf1ce598947" y="139.270794"/>
      </g>
     </g>
    </g>
    <g id="ytick_13">
     <g id="line2d_13">
      <g>
       <use style="fill:#d2d2d2;stroke:#d2d2d2;" x="75.6" xlink:href="#mf1ce598947" y="137.143343"/>
      </g>
     </g>
    </g>
    <g id="ytick_14">
     <g id="line2d_14">
      <g>
       <use style="fill:#d2d2d2;stroke:#d2d2d2;" x="75.6" xlink:href="#mf1ce598947" y="113.339289"/>
      </g>
     </g>
    </g>
    <g id="ytick_15">
     <g id="line2d_15">
      <g>
       <use style="fill:#d2d2d2;stroke:#d2d2d2;" x="75.6" xlink:href="#mf1ce598947" y="108.213365"/>
      </g>
     </g>
    </g>
    <g id="ytick_16">
     <g id="line2d_16">
      <g>
       <use style="fill:#d2d2d2;stroke:#d2d2d2;" x="75.6" xlink:href="#mf1ce598947" y="105.214892"/>
      </g>
     </g>
    </g>
    <g id="ytick_17">
     <g id="line2d_17">
      <g>
       <use style="fill:#d2d2d2;stroke:#d2d2d2;" x="75.6" xlink:href="#mf1ce598947" y="103.087442"/>
      </g>
     </g>
    </g>
    <g id="ytick_18">
     <g id="line2d_18">
      <g>
       <use style="fill:#d2d2d2;stroke:#d2d2d2;" x="75.6" xlink:href="#mf1ce598947" y="79.283388"/>
      </g>
     </g>
    </g>
    <g id="ytick_19">
     <g id="line2d_19">
      <g>
       <use style="fill:#d2d2d2;stroke:#d2d2d2;" x="75.6" xlink:href="#mf1ce598947" y="74.157464"/>
      </g>
     </g>
    </g>
    <g id="ytick_20">
     <g id="line2d_20">
      <g>
       <use style="fill:#d2d2d2;stroke:#d2d2d2;" x="75.6" xlink:href="#mf1ce598947" y="71.158991"/>
      </g>
     </g>
    </g>
    <g id="ytick_21">
     <g id="line2d_21">
      <g>
       <use style="fill:#d2d2d2;stroke:#d2d2d2;" x="75.6" xlink:href="#mf1ce598947" y="69.03154"/>
      </g>
     </g>
    </g>
    <g id="ytick_22">
     <g id="line2d_22">
      <g>
       <use style="fill:#d2d2d2;stroke:#d2d2d2;" x="75.6" xlink:href="#mf1ce598947" y="45.227487"/>
      </g>
     </g>
    </g>
    <g id="ytick_23">
     <g id="line2d_23">
      <g>
       <use style="fill:#d2d2d2;stroke:#d2d2d2;" x="75.6" xlink:href="#mf1ce598947" y="40.101563"/>
      </g>
     </g>
    </g>
    <g id="ytick_24">
     <g id="line2d_24">
      <g>
       <use style="fill:#d2d2d2;stroke:#d2d2d2;" x="75.6" xlink:href="#mf1ce598947" y="37.103089"/>
      </g>
     </g>
    </g>
    <g id="ytick_25">
     <g id="line2d_25">
      <g>
       <use style="fill:#d2d2d2;stroke:#d2d2d2;" x="75.6" xlink:href="#mf1ce598947" y="34.975639"/>
      </g>
     </g>
    </g>
    <g id="ytick_26">
     <g id="line2d_26">
      <g>
       <use style="fill:#d2d2d2;stroke:#d2d2d2;" x="75.6" xlink:href="#mf1ce598947" y="11.171585"/>
      </g>
     </g>
    </g>
    <g id="text_6">
     <!-- p-value -->
     <defs>
      <path d="M 18.109375 8.203125 
L 18.109375 -20.796875 
L 9.078125 -20.796875 
L 9.078125 54.6875 
L 18.109375 54.6875 
L 18.109375 46.390625 
Q 20.953125 51.265625 25.265625 53.625 
Q 29.59375 56 35.59375 56 
Q 45.5625 56 51.78125 48.09375 
Q 58.015625 40.1875 58.015625 27.296875 
Q 58.015625 14.40625 51.78125 6.484375 
Q 45.5625 -1.421875 35.59375 -1.421875 
Q 29.59375 -1.421875 25.265625 0.953125 
Q 20.953125 3.328125 18.109375 8.203125 
M 48.6875 27.296875 
Q 48.6875 37.203125 44.609375 42.84375 
Q 40.53125 48.484375 33.40625 48.484375 
Q 26.265625 48.484375 22.1875 42.84375 
Q 18.109375 37.203125 18.109375 27.296875 
Q 18.109375 17.390625 22.1875 11.75 
Q 26.265625 6.109375 33.40625 6.109375 
Q 40.53125 6.109375 44.609375 11.75 
Q 48.6875 17.390625 48.6875 27.296875 
" id="DejaVuSans-70"/>
      <path d="M 4.890625 31.390625 
L 31.203125 31.390625 
L 31.203125 23.390625 
L 4.890625 23.390625 
z
" id="DejaVuSans-2d"/>
      <path d="M 2.984375 54.6875 
L 12.5 54.6875 
L 29.59375 8.796875 
L 46.6875 54.6875 
L 56.203125 54.6875 
L 35.6875 0 
L 23.484375 0 
z
" id="DejaVuSans-76"/>
      <path d="M 34.28125 27.484375 
Q 23.390625 27.484375 19.1875 25 
Q 14.984375 22.515625 14.984375 16.5 
Q 14.984375 11.71875 18.140625 8.90625 
Q 21.296875 6.109375 26.703125 6.109375 
Q 34.1875 6.109375 38.703125 11.40625 
Q 43.21875 16.703125 43.21875 25.484375 
L 43.21875 27.484375 
z
M 52.203125 31.203125 
L 52.203125 0 
L 43.21875 0 
L 43.21875 8.296875 
Q 40.140625 3.328125 35.546875 0.953125 
Q 30.953125 -1.421875 24.3125 -1.421875 
Q 15.921875 -1.421875 10.953125 3.296875 
Q 6 8.015625 6 15.921875 
Q 6 25.140625 12.171875 29.828125 
Q 18.359375 34.515625 30.609375 34.515625 
L 43.21875 34.515625 
L 43.21875 35.40625 
Q 43.21875 41.609375 39.140625 45 
Q 35.0625 48.390625 27.6875 48.390625 
Q 23 48.390625 18.546875 47.265625 
Q 14.109375 46.140625 10.015625 43.890625 
L 10.015625 52.203125 
Q 14.9375 54.109375 19.578125 55.046875 
Q 24.21875 56 28.609375 56 
Q 40.484375 56 46.34375 49.84375 
Q 52.203125 43.703125 52.203125 31.203125 
" id="DejaVuSans-61"/>
      <path d="M 9.421875 75.984375 
L 18.40625 75.984375 
L 18.40625 0 
L 9.421875 0 
z
" id="DejaVuSans-6c"/>
      <path d="M 8.5 21.578125 
L 8.5 54.6875 
L 17.484375 54.6875 
L 17.484375 21.921875 
Q 17.484375 14.15625 20.5 10.265625 
Q 23.53125 6.390625 29.59375 6.390625 
Q 36.859375 6.390625 41.078125 11.03125 
Q 45.3125 15.671875 45.3125 23.6875 
L 45.3125 54.6875 
L 54.296875 54.6875 
L 54.296875 0 
L 45.3125 0 
L 45.3125 8.40625 
Q 42.046875 3.421875 37.71875 1 
Q 33.40625 -1.421875 27.6875 -1.421875 
Q 18.265625 -1.421875 13.375 4.4375 
Q 8.5 10.296875 8.5 21.578125 
M 31.109375 56 
z
" id="DejaVuSans-75"/>
      <path d="M 56.203125 29.59375 
L 56.203125 25.203125 
L 14.890625 25.203125 
Q 15.484375 15.921875 20.484375 11.0625 
Q 25.484375 6.203125 34.421875 6.203125 
Q 39.59375 6.203125 44.453125 7.46875 
Q 49.3125 8.734375 54.109375 11.28125 
L 54.109375 2.78125 
Q 49.265625 0.734375 44.1875 -0.34375 
Q 39.109375 -1.421875 33.890625 -1.421875 
Q 20.796875 -1.421875 13.15625 6.1875 
Q 5.515625 13.8125 5.515625 26.8125 
Q 5.515625 40.234375 12.765625 48.109375 
Q 20.015625 56 32.328125 56 
Q 43.359375 56 49.78125 48.890625 
Q 56.203125 41.796875 56.203125 29.59375 
M 47.21875 32.234375 
Q 47.125 39.59375 43.09375 43.984375 
Q 39.0625 48.390625 32.421875 48.390625 
Q 24.90625 48.390625 20.390625 44.140625 
Q 15.875 39.890625 15.1875 32.171875 
z
" id="DejaVuSans-65"/>
     </defs>
     <g style="fill:#d2d2d2;" transform="translate(29.7225 124.855)rotate(-90)scale(0.16 -0.16)">
      <use xlink:href="#DejaVuSans-70"/>
      <use x="63.476562" xlink:href="#DejaVuSans-2d"/>
      <use x="99.529297" xlink:href="#DejaVuSans-76"/>
      <use x="158.708984" xlink:href="#DejaVuSans-61"/>
      <use x="219.988281" xlink:href="#DejaVuSans-6c"/>
      <use x="247.771484" xlink:href="#DejaVuSans-75"/>
      <use x="311.150391" xlink:href="#DejaVuSans-65"/>
     </g>
    </g>
   </g>
   <g id="line2d_27">
    <defs>
     <path d="M 0 1.5 
C 0.397805 1.5 0.77937 1.341951 1.06066 1.06066 
C 1.341951 0.77937 1.5 0.397805 1.5 0 
C 1.5 -0.397805 1.341951 -0.77937 1.06066 -1.06066 
C 0.77937 -1.341951 0.397805 -1.5 0 -1.5 
C -0.397805 -1.5 -0.77937 -1.341951 -1.06066 -1.06066 
C -1.341951 -0.77937 -1.5 -0.397805 -1.5 0 
C -1.5 0.397805 -1.341951 0.77937 -1.06066 1.06066 
C -0.77937 1.341951 -0.397805 1.5 0 1.5 
z
" id="m0b12571f53" style="stroke:#d2d2d2;"/>
    </defs>
    <g clip-path="url(#p5a4edc1634)">
     <use style="fill:#d2d2d2;stroke:#d2d2d2;" x="94.614545" xlink:href="#m0b12571f53" y="16.898557"/>
     <use style="fill:#d2d2d2;stroke:#d2d2d2;" x="100.446867" xlink:href="#m0b12571f53" y="24.228449"/>
     <use style="fill:#d2d2d2;stroke:#d2d2d2;" x="105.77136" xlink:href="#m0b12571f53" y="36.094724"/>
     <use style="fill:#d2d2d2;stroke:#d2d2d2;" x="110.669419" xlink:href="#m0b12571f53" y="25.111009"/>
     <use style="fill:#d2d2d2;stroke:#d2d2d2;" x="115.204312" xlink:href="#m0b12571f53" y="24.123333"/>
     <use style="fill:#d2d2d2;stroke:#d2d2d2;" x="119.426198" xlink:href="#m0b12571f53" y="17.444353"/>
     <use style="fill:#d2d2d2;stroke:#d2d2d2;" x="123.375507" xlink:href="#m0b12571f53" y="22.036084"/>
     <use style="fill:#d2d2d2;stroke:#d2d2d2;" x="127.085314" xlink:href="#m0b12571f53" y="20.217901"/>
     <use style="fill:#d2d2d2;stroke:#d2d2d2;" x="130.583012" xlink:href="#m0b12571f53" y="17.45024"/>
     <use style="fill:#d2d2d2;stroke:#d2d2d2;" x="133.891551" xlink:href="#m0b12571f53" y="16.937777"/>
     <use style="fill:#d2d2d2;stroke:#d2d2d2;" x="137.030345" xlink:href="#m0b12571f53" y="42.806509"/>
     <use style="fill:#d2d2d2;stroke:#d2d2d2;" x="140.015965" xlink:href="#m0b12571f53" y="21.446535"/>
     <use style="fill:#d2d2d2;stroke:#d2d2d2;" x="142.862667" xlink:href="#m0b12571f53" y="18.273089"/>
     <use style="fill:#d2d2d2;stroke:#d2d2d2;" x="145.582806" xlink:href="#m0b12571f53" y="20.434694"/>
     <use style="fill:#d2d2d2;stroke:#d2d2d2;" x="148.18716" xlink:href="#m0b12571f53" y="19.783083"/>
     <use style="fill:#d2d2d2;stroke:#d2d2d2;" x="150.685183" xlink:href="#m0b12571f53" y="43.057626"/>
     <use style="fill:#d2d2d2;stroke:#d2d2d2;" x="153.085218" xlink:href="#m0b12571f53" y="16.626955"/>
     <use style="fill:#d2d2d2;stroke:#d2d2d2;" x="155.394664" xlink:href="#m0b12571f53" y="23.317184"/>
     <use style="fill:#d2d2d2;stroke:#d2d2d2;" x="157.620112" xlink:href="#m0b12571f53" y="16.834245"/>
     <use style="fill:#d2d2d2;stroke:#d2d2d2;" x="159.767457" xlink:href="#m0b12571f53" y="20.232399"/>
     <use style="fill:#d2d2d2;stroke:#d2d2d2;" x="161.841997" xlink:href="#m0b12571f53" y="21.678484"/>
     <use style="fill:#d2d2d2;stroke:#d2d2d2;" x="163.848507" xlink:href="#m0b12571f53" y="19.699705"/>
     <use style="fill:#d2d2d2;stroke:#d2d2d2;" x="165.791307" xlink:href="#m0b12571f53" y="24.73159"/>
     <use style="fill:#d2d2d2;stroke:#d2d2d2;" x="167.674319" xlink:href="#m0b12571f53" y="32.510562"/>
     <use style="fill:#d2d2d2;stroke:#d2d2d2;" x="169.501113" xlink:href="#m0b12571f53" y="17.109236"/>
     <use style="fill:#d2d2d2;stroke:#d2d2d2;" x="171.27495" xlink:href="#m0b12571f53" y="24.549304"/>
     <use style="fill:#d2d2d2;stroke:#d2d2d2;" x="172.998812" xlink:href="#m0b12571f53" y="29.027508"/>
     <use style="fill:#d2d2d2;stroke:#d2d2d2;" x="174.675439" xlink:href="#m0b12571f53" y="39.716431"/>
     <use style="fill:#d2d2d2;stroke:#d2d2d2;" x="176.307351" xlink:href="#m0b12571f53" y="47.472534"/>
     <use style="fill:#d2d2d2;stroke:#d2d2d2;" x="177.89687" xlink:href="#m0b12571f53" y="63.79259"/>
     <use style="fill:#d2d2d2;stroke:#d2d2d2;" x="179.446145" xlink:href="#m0b12571f53" y="23.014073"/>
     <use style="fill:#d2d2d2;stroke:#d2d2d2;" x="180.957161" xlink:href="#m0b12571f53" y="22.696781"/>
     <use style="fill:#d2d2d2;stroke:#d2d2d2;" x="182.431764" xlink:href="#m0b12571f53" y="27.863631"/>
     <use style="fill:#d2d2d2;stroke:#d2d2d2;" x="183.871667" xlink:href="#m0b12571f53" y="17.820779"/>
     <use style="fill:#d2d2d2;stroke:#d2d2d2;" x="185.278466" xlink:href="#m0b12571f53" y="19.307556"/>
     <use style="fill:#d2d2d2;stroke:#d2d2d2;" x="186.653649" xlink:href="#m0b12571f53" y="29.422091"/>
     <use style="fill:#d2d2d2;stroke:#d2d2d2;" x="187.998606" xlink:href="#m0b12571f53" y="20.052647"/>
     <use style="fill:#d2d2d2;stroke:#d2d2d2;" x="189.314637" xlink:href="#m0b12571f53" y="29.342643"/>
     <use style="fill:#d2d2d2;stroke:#d2d2d2;" x="190.602959" xlink:href="#m0b12571f53" y="18.220706"/>
     <use style="fill:#d2d2d2;stroke:#d2d2d2;" x="191.864717" xlink:href="#m0b12571f53" y="19.961314"/>
     <use style="fill:#d2d2d2;stroke:#d2d2d2;" x="193.100982" xlink:href="#m0b12571f53" y="25.979263"/>
     <use style="fill:#d2d2d2;stroke:#d2d2d2;" x="197.810464" xlink:href="#m0b12571f53" y="17.878432"/>
     <use style="fill:#d2d2d2;stroke:#d2d2d2;" x="202.183257" xlink:href="#m0b12571f53" y="21.332716"/>
     <use style="fill:#d2d2d2;stroke:#d2d2d2;" x="206.264306" xlink:href="#m0b12571f53" y="28.523503"/>
     <use style="fill:#d2d2d2;stroke:#d2d2d2;" x="210.090119" xlink:href="#m0b12571f53" y="23.170317"/>
     <use style="fill:#d2d2d2;stroke:#d2d2d2;" x="213.690749" xlink:href="#m0b12571f53" y="22.347882"/>
     <use style="fill:#d2d2d2;stroke:#d2d2d2;" x="217.091239" xlink:href="#m0b12571f53" y="19.221311"/>
     <use style="fill:#d2d2d2;stroke:#d2d2d2;" x="220.31267" xlink:href="#m0b12571f53" y="28.919485"/>
     <use style="fill:#d2d2d2;stroke:#d2d2d2;" x="223.372961" xlink:href="#m0b12571f53" y="31.802252"/>
     <use style="fill:#d2d2d2;stroke:#d2d2d2;" x="226.287467" xlink:href="#m0b12571f53" y="19.050533"/>
     <use style="fill:#d2d2d2;stroke:#d2d2d2;" x="229.069449" xlink:href="#m0b12571f53" y="31.204557"/>
     <use style="fill:#d2d2d2;stroke:#d2d2d2;" x="231.730436" xlink:href="#m0b12571f53" y="24.163557"/>
     <use style="fill:#d2d2d2;stroke:#d2d2d2;" x="234.280516" xlink:href="#m0b12571f53" y="24.94151"/>
     <use style="fill:#d2d2d2;stroke:#d2d2d2;" x="236.728565" xlink:href="#m0b12571f53" y="25.13289"/>
     <use style="fill:#d2d2d2;stroke:#d2d2d2;" x="239.082435" xlink:href="#m0b12571f53" y="28.267371"/>
     <use style="fill:#d2d2d2;stroke:#d2d2d2;" x="241.349104" xlink:href="#m0b12571f53" y="22.670069"/>
     <use style="fill:#d2d2d2;stroke:#d2d2d2;" x="243.534802" xlink:href="#m0b12571f53" y="20.365863"/>
     <use style="fill:#d2d2d2;stroke:#d2d2d2;" x="245.645117" xlink:href="#m0b12571f53" y="48.960086"/>
     <use style="fill:#d2d2d2;stroke:#d2d2d2;" x="247.685075" xlink:href="#m0b12571f53" y="24.082601"/>
     <use style="fill:#d2d2d2;stroke:#d2d2d2;" x="249.659216" xlink:href="#m0b12571f53" y="24.06064"/>
     <use style="fill:#d2d2d2;stroke:#d2d2d2;" x="251.571655" xlink:href="#m0b12571f53" y="32.347531"/>
     <use style="fill:#d2d2d2;stroke:#d2d2d2;" x="253.426132" xlink:href="#m0b12571f53" y="30.320417"/>
     <use style="fill:#d2d2d2;stroke:#d2d2d2;" x="255.226058" xlink:href="#m0b12571f53" y="32.100904"/>
     <use style="fill:#d2d2d2;stroke:#d2d2d2;" x="256.97455" xlink:href="#m0b12571f53" y="27.297871"/>
     <use style="fill:#d2d2d2;stroke:#d2d2d2;" x="258.674467" xlink:href="#m0b12571f53" y="30.880326"/>
     <use style="fill:#d2d2d2;stroke:#d2d2d2;" x="260.328434" xlink:href="#m0b12571f53" y="25.537879"/>
     <use style="fill:#d2d2d2;stroke:#d2d2d2;" x="261.938871" xlink:href="#m0b12571f53" y="17.423497"/>
     <use style="fill:#d2d2d2;stroke:#d2d2d2;" x="263.508009" xlink:href="#m0b12571f53" y="36.642781"/>
     <use style="fill:#d2d2d2;stroke:#d2d2d2;" x="265.037916" xlink:href="#m0b12571f53" y="17.516601"/>
     <use style="fill:#d2d2d2;stroke:#d2d2d2;" x="266.530503" xlink:href="#m0b12571f53" y="17.912445"/>
     <use style="fill:#d2d2d2;stroke:#d2d2d2;" x="267.98755" xlink:href="#m0b12571f53" y="21.630051"/>
     <use style="fill:#d2d2d2;stroke:#d2d2d2;" x="269.410709" xlink:href="#m0b12571f53" y="23.365589"/>
     <use style="fill:#d2d2d2;stroke:#d2d2d2;" x="270.80152" xlink:href="#m0b12571f53" y="26.852826"/>
     <use style="fill:#d2d2d2;stroke:#d2d2d2;" x="272.161422" xlink:href="#m0b12571f53" y="47.526641"/>
     <use style="fill:#d2d2d2;stroke:#d2d2d2;" x="273.491758" xlink:href="#m0b12571f53" y="20.828589"/>
     <use style="fill:#d2d2d2;stroke:#d2d2d2;" x="274.793787" xlink:href="#m0b12571f53" y="19.319775"/>
     <use style="fill:#d2d2d2;stroke:#d2d2d2;" x="276.068689" xlink:href="#m0b12571f53" y="49.341686"/>
     <use style="fill:#d2d2d2;stroke:#d2d2d2;" x="277.31757" xlink:href="#m0b12571f53" y="18.506438"/>
     <use style="fill:#d2d2d2;stroke:#d2d2d2;" x="280.332617" xlink:href="#m0b12571f53" y="19.835442"/>
     <use style="fill:#d2d2d2;stroke:#d2d2d2;" x="282.642063" xlink:href="#m0b12571f53" y="59.802843"/>
     <use style="fill:#d2d2d2;stroke:#d2d2d2;" x="284.867511" xlink:href="#m0b12571f53" y="18.971197"/>
     <use style="fill:#d2d2d2;stroke:#d2d2d2;" x="287.014856" xlink:href="#m0b12571f53" y="22.879493"/>
     <use style="fill:#d2d2d2;stroke:#d2d2d2;" x="289.089396" xlink:href="#m0b12571f53" y="17.875575"/>
     <use style="fill:#d2d2d2;stroke:#d2d2d2;" x="291.095906" xlink:href="#m0b12571f53" y="51.500708"/>
     <use style="fill:#d2d2d2;stroke:#d2d2d2;" x="293.038706" xlink:href="#m0b12571f53" y="43.647381"/>
     <use style="fill:#d2d2d2;stroke:#d2d2d2;" x="294.921718" xlink:href="#m0b12571f53" y="19.673697"/>
     <use style="fill:#d2d2d2;stroke:#d2d2d2;" x="296.748512" xlink:href="#m0b12571f53" y="37.746983"/>
     <use style="fill:#d2d2d2;stroke:#d2d2d2;" x="298.522348" xlink:href="#m0b12571f53" y="43.927667"/>
     <use style="fill:#d2d2d2;stroke:#d2d2d2;" x="300.24621" xlink:href="#m0b12571f53" y="28.439442"/>
     <use style="fill:#d2d2d2;stroke:#d2d2d2;" x="301.922838" xlink:href="#m0b12571f53" y="19.514927"/>
     <use style="fill:#d2d2d2;stroke:#d2d2d2;" x="303.554749" xlink:href="#m0b12571f53" y="20.351911"/>
     <use style="fill:#d2d2d2;stroke:#d2d2d2;" x="305.144269" xlink:href="#m0b12571f53" y="17.097698"/>
     <use style="fill:#d2d2d2;stroke:#d2d2d2;" x="306.693543" xlink:href="#m0b12571f53" y="29.652007"/>
     <use style="fill:#d2d2d2;stroke:#d2d2d2;" x="308.20456" xlink:href="#m0b12571f53" y="22.080065"/>
     <use style="fill:#d2d2d2;stroke:#d2d2d2;" x="309.679163" xlink:href="#m0b12571f53" y="27.721162"/>
     <use style="fill:#d2d2d2;stroke:#d2d2d2;" x="311.119066" xlink:href="#m0b12571f53" y="18.52739"/>
     <use style="fill:#d2d2d2;stroke:#d2d2d2;" x="312.525865" xlink:href="#m0b12571f53" y="17.474344"/>
     <use style="fill:#d2d2d2;stroke:#d2d2d2;" x="313.901048" xlink:href="#m0b12571f53" y="43.690182"/>
     <use style="fill:#d2d2d2;stroke:#d2d2d2;" x="315.246005" xlink:href="#m0b12571f53" y="35.697697"/>
     <use style="fill:#d2d2d2;stroke:#d2d2d2;" x="316.562035" xlink:href="#m0b12571f53" y="35.514721"/>
     <use style="fill:#d2d2d2;stroke:#d2d2d2;" x="317.850358" xlink:href="#m0b12571f53" y="30.094206"/>
     <use style="fill:#d2d2d2;stroke:#d2d2d2;" x="319.112115" xlink:href="#m0b12571f53" y="43.206027"/>
     <use style="fill:#d2d2d2;stroke:#d2d2d2;" x="320.348381" xlink:href="#m0b12571f53" y="43.779268"/>
     <use style="fill:#d2d2d2;stroke:#d2d2d2;" x="323.334" xlink:href="#m0b12571f53" y="19.121208"/>
     <use style="fill:#d2d2d2;stroke:#d2d2d2;" x="326.180703" xlink:href="#m0b12571f53" y="21.596047"/>
     <use style="fill:#d2d2d2;stroke:#d2d2d2;" x="328.900842" xlink:href="#m0b12571f53" y="17.374749"/>
     <use style="fill:#d2d2d2;stroke:#d2d2d2;" x="331.505195" xlink:href="#m0b12571f53" y="38.077748"/>
     <use style="fill:#d2d2d2;stroke:#d2d2d2;" x="334.003218" xlink:href="#m0b12571f53" y="16.494545"/>
     <use style="fill:#d2d2d2;stroke:#d2d2d2;" x="336.403254" xlink:href="#m0b12571f53" y="18.712297"/>
     <use style="fill:#d2d2d2;stroke:#d2d2d2;" x="338.7127" xlink:href="#m0b12571f53" y="22.605702"/>
     <use style="fill:#d2d2d2;stroke:#d2d2d2;" x="340.938148" xlink:href="#m0b12571f53" y="30.499545"/>
     <use style="fill:#d2d2d2;stroke:#d2d2d2;" x="343.085493" xlink:href="#m0b12571f53" y="52.083358"/>
     <use style="fill:#d2d2d2;stroke:#d2d2d2;" x="345.160033" xlink:href="#m0b12571f53" y="22.387571"/>
     <use style="fill:#d2d2d2;stroke:#d2d2d2;" x="347.166543" xlink:href="#m0b12571f53" y="46.594619"/>
     <use style="fill:#d2d2d2;stroke:#d2d2d2;" x="349.109343" xlink:href="#m0b12571f53" y="45.063316"/>
     <use style="fill:#d2d2d2;stroke:#d2d2d2;" x="350.992355" xlink:href="#m0b12571f53" y="53.76114"/>
     <use style="fill:#d2d2d2;stroke:#d2d2d2;" x="352.819149" xlink:href="#m0b12571f53" y="27.672146"/>
     <use style="fill:#d2d2d2;stroke:#d2d2d2;" x="354.592985" xlink:href="#m0b12571f53" y="29.272524"/>
     <use style="fill:#d2d2d2;stroke:#d2d2d2;" x="356.316848" xlink:href="#m0b12571f53" y="26.237712"/>
     <use style="fill:#d2d2d2;stroke:#d2d2d2;" x="357.993475" xlink:href="#m0b12571f53" y="20.090155"/>
     <use style="fill:#d2d2d2;stroke:#d2d2d2;" x="359.625387" xlink:href="#m0b12571f53" y="27.260725"/>
     <use style="fill:#d2d2d2;stroke:#d2d2d2;" x="361.214906" xlink:href="#m0b12571f53" y="22.635085"/>
     <use style="fill:#d2d2d2;stroke:#d2d2d2;" x="362.76418" xlink:href="#m0b12571f53" y="38.36683"/>
     <use style="fill:#d2d2d2;stroke:#d2d2d2;" x="364.275197" xlink:href="#m0b12571f53" y="34.717677"/>
     <use style="fill:#d2d2d2;stroke:#d2d2d2;" x="365.7498" xlink:href="#m0b12571f53" y="25.906824"/>
     <use style="fill:#d2d2d2;stroke:#d2d2d2;" x="367.189703" xlink:href="#m0b12571f53" y="19.790216"/>
     <use style="fill:#d2d2d2;stroke:#d2d2d2;" x="368.596502" xlink:href="#m0b12571f53" y="45.099746"/>
     <use style="fill:#d2d2d2;stroke:#d2d2d2;" x="369.971685" xlink:href="#m0b12571f53" y="42.146858"/>
     <use style="fill:#d2d2d2;stroke:#d2d2d2;" x="371.316642" xlink:href="#m0b12571f53" y="34.906602"/>
     <use style="fill:#d2d2d2;stroke:#d2d2d2;" x="372.632672" xlink:href="#m0b12571f53" y="49.925002"/>
     <use style="fill:#d2d2d2;stroke:#d2d2d2;" x="373.920995" xlink:href="#m0b12571f53" y="51.549771"/>
     <use style="fill:#d2d2d2;stroke:#d2d2d2;" x="375.182752" xlink:href="#m0b12571f53" y="29.950402"/>
     <use style="fill:#d2d2d2;stroke:#d2d2d2;" x="376.419018" xlink:href="#m0b12571f53" y="52.48211"/>
     <use style="fill:#d2d2d2;stroke:#d2d2d2;" x="382.25134" xlink:href="#m0b12571f53" y="43.234033"/>
     <use style="fill:#d2d2d2;stroke:#d2d2d2;" x="387.575833" xlink:href="#m0b12571f53" y="18.288209"/>
     <use style="fill:#d2d2d2;stroke:#d2d2d2;" x="392.473891" xlink:href="#m0b12571f53" y="35.328976"/>
     <use style="fill:#d2d2d2;stroke:#d2d2d2;" x="397.008785" xlink:href="#m0b12571f53" y="78.117603"/>
     <use style="fill:#d2d2d2;stroke:#d2d2d2;" x="401.23067" xlink:href="#m0b12571f53" y="35.061577"/>
     <use style="fill:#d2d2d2;stroke:#d2d2d2;" x="405.17998" xlink:href="#m0b12571f53" y="19.518273"/>
     <use style="fill:#d2d2d2;stroke:#d2d2d2;" x="408.889786" xlink:href="#m0b12571f53" y="22.961633"/>
     <use style="fill:#d2d2d2;stroke:#d2d2d2;" x="412.387485" xlink:href="#m0b12571f53" y="59.701081"/>
     <use style="fill:#d2d2d2;stroke:#d2d2d2;" x="415.696024" xlink:href="#m0b12571f53" y="44.257475"/>
     <use style="fill:#d2d2d2;stroke:#d2d2d2;" x="418.834817" xlink:href="#m0b12571f53" y="66.474696"/>
     <use style="fill:#d2d2d2;stroke:#d2d2d2;" x="421.820437" xlink:href="#m0b12571f53" y="52.699214"/>
     <use style="fill:#d2d2d2;stroke:#d2d2d2;" x="424.667139" xlink:href="#m0b12571f53" y="57.215375"/>
     <use style="fill:#d2d2d2;stroke:#d2d2d2;" x="427.387279" xlink:href="#m0b12571f53" y="39.923686"/>
     <use style="fill:#d2d2d2;stroke:#d2d2d2;" x="429.991632" xlink:href="#m0b12571f53" y="106.426337"/>
     <use style="fill:#d2d2d2;stroke:#d2d2d2;" x="432.489655" xlink:href="#m0b12571f53" y="54.072559"/>
     <use style="fill:#d2d2d2;stroke:#d2d2d2;" x="434.889691" xlink:href="#m0b12571f53" y="51.317493"/>
     <use style="fill:#d2d2d2;stroke:#d2d2d2;" x="437.199137" xlink:href="#m0b12571f53" y="45.308907"/>
     <use style="fill:#d2d2d2;stroke:#d2d2d2;" x="439.424584" xlink:href="#m0b12571f53" y="33.835077"/>
     <use style="fill:#d2d2d2;stroke:#d2d2d2;" x="441.57193" xlink:href="#m0b12571f53" y="66.693817"/>
     <use style="fill:#d2d2d2;stroke:#d2d2d2;" x="443.64647" xlink:href="#m0b12571f53" y="60.937854"/>
     <use style="fill:#d2d2d2;stroke:#d2d2d2;" x="445.652979" xlink:href="#m0b12571f53" y="80.204145"/>
     <use style="fill:#d2d2d2;stroke:#d2d2d2;" x="447.595779" xlink:href="#m0b12571f53" y="112.207265"/>
     <use style="fill:#d2d2d2;stroke:#d2d2d2;" x="449.478792" xlink:href="#m0b12571f53" y="98.182208"/>
     <use style="fill:#d2d2d2;stroke:#d2d2d2;" x="451.305586" xlink:href="#m0b12571f53" y="95.091185"/>
     <use style="fill:#d2d2d2;stroke:#d2d2d2;" x="453.079422" xlink:href="#m0b12571f53" y="48.298479"/>
     <use style="fill:#d2d2d2;stroke:#d2d2d2;" x="454.803284" xlink:href="#m0b12571f53" y="74.942"/>
     <use style="fill:#d2d2d2;stroke:#d2d2d2;" x="456.479911" xlink:href="#m0b12571f53" y="72.205312"/>
     <use style="fill:#d2d2d2;stroke:#d2d2d2;" x="458.111823" xlink:href="#m0b12571f53" y="87.832421"/>
     <use style="fill:#d2d2d2;stroke:#d2d2d2;" x="459.701343" xlink:href="#m0b12571f53" y="55.440817"/>
     <use style="fill:#d2d2d2;stroke:#d2d2d2;" x="461.250617" xlink:href="#m0b12571f53" y="48.68763"/>
     <use style="fill:#d2d2d2;stroke:#d2d2d2;" x="462.761634" xlink:href="#m0b12571f53" y="62.023414"/>
     <use style="fill:#d2d2d2;stroke:#d2d2d2;" x="464.236237" xlink:href="#m0b12571f53" y="105.815258"/>
     <use style="fill:#d2d2d2;stroke:#d2d2d2;" x="465.67614" xlink:href="#m0b12571f53" y="58.848485"/>
     <use style="fill:#d2d2d2;stroke:#d2d2d2;" x="467.082939" xlink:href="#m0b12571f53" y="66.463328"/>
     <use style="fill:#d2d2d2;stroke:#d2d2d2;" x="468.458122" xlink:href="#m0b12571f53" y="107.842375"/>
     <use style="fill:#d2d2d2;stroke:#d2d2d2;" x="469.803078" xlink:href="#m0b12571f53" y="69.491671"/>
     <use style="fill:#d2d2d2;stroke:#d2d2d2;" x="471.119109" xlink:href="#m0b12571f53" y="93.428829"/>
     <use style="fill:#d2d2d2;stroke:#d2d2d2;" x="472.407432" xlink:href="#m0b12571f53" y="173.585455"/>
     <use style="fill:#d2d2d2;stroke:#d2d2d2;" x="473.669189" xlink:href="#m0b12571f53" y="118.15223"/>
     <use style="fill:#d2d2d2;stroke:#d2d2d2;" x="474.905455" xlink:href="#m0b12571f53" y="143.823052"/>
    </g>
   </g>
   <g id="line2d_28">
    <path clip-path="url(#p5a4edc1634)" d="M 127.085314 21.632051 
L 130.583012 21.75917 
L 133.891551 20.723045 
L 137.030345 20.792352 
L 140.015965 20.468904 
L 142.862667 19.818358 
L 145.582806 20.254824 
L 148.18716 20.000488 
L 150.685183 20.911017 
L 153.085218 20.739209 
L 155.394664 21.691246 
L 157.620112 20.137057 
L 159.767457 20.000162 
L 161.841997 20.444086 
L 163.848507 20.347996 
L 165.791307 20.85153 
L 167.674319 20.707777 
L 171.27495 20.911588 
L 172.998812 22.336319 
L 176.307351 24.834498 
L 177.89687 26.958556 
L 179.446145 26.638973 
L 180.957161 25.56363 
L 182.431764 28.20684 
L 183.871667 26.242879 
L 185.278466 24.690828 
L 186.653649 24.333266 
L 187.998606 22.877746 
L 189.314637 22.505291 
L 190.602959 21.757378 
L 191.864717 21.401679 
L 193.100982 21.290551 
L 197.810464 21.302036 
L 202.183257 21.59787 
L 206.264306 21.556526 
L 210.090119 21.956863 
L 213.690749 21.439128 
L 217.091239 21.622146 
L 220.31267 22.482918 
L 226.287467 23.072309 
L 229.069449 23.988538 
L 231.730436 23.596965 
L 234.280516 23.808537 
L 236.728565 24.170691 
L 239.082435 25.568872 
L 241.349104 24.826944 
L 243.534802 23.603982 
L 245.645117 25.511152 
L 247.685075 24.848434 
L 249.659216 24.834236 
L 253.426132 25.936431 
L 255.226058 26.21443 
L 256.97455 26.943628 
L 258.674467 28.884397 
L 260.328434 27.608824 
L 261.938871 25.70194 
L 263.508009 26.711367 
L 265.037916 24.355986 
L 266.530503 22.747587 
L 267.98755 21.975134 
L 270.80152 21.475772 
L 272.161422 22.000364 
L 273.491758 22.66253 
L 274.793787 21.453833 
L 276.068689 23.197035 
L 277.31757 23.344277 
L 280.332617 23.030892 
L 282.642063 23.964508 
L 284.867511 22.860721 
L 287.014856 22.021099 
L 289.089396 21.506348 
L 291.095906 22.847306 
L 293.038706 22.81756 
L 294.921718 23.063388 
L 296.748512 24.497189 
L 298.522348 24.438431 
L 300.24621 25.987987 
L 301.922838 25.218611 
L 303.554749 25.965062 
L 305.144269 23.42062 
L 306.693543 23.090076 
L 308.20456 23.509267 
L 309.679163 23.130917 
L 311.119066 21.627483 
L 312.525865 20.47004 
L 315.246005 22.576712 
L 316.562035 24.611022 
L 317.850358 24.638209 
L 319.112115 25.985124 
L 320.348381 26.662893 
L 323.334 26.880356 
L 326.180703 28.443679 
L 328.900842 25.238556 
L 331.505195 25.300653 
L 334.003218 22.919859 
L 336.403254 21.737173 
L 338.7127 21.003542 
L 340.938148 20.793089 
L 343.085493 22.037628 
L 345.160033 22.137908 
L 347.166543 24.103991 
L 349.109343 24.189873 
L 350.992355 27.39345 
L 352.819149 29.863421 
L 354.592985 31.496347 
L 356.316848 30.714672 
L 357.993475 27.623639 
L 359.625387 28.589721 
L 361.214906 26.829774 
L 362.76418 26.714972 
L 365.7498 26.223319 
L 367.189703 24.779672 
L 368.596502 25.51478 
L 369.971685 27.61386 
L 371.316642 28.266641 
L 372.632672 30.503439 
L 373.920995 30.773836 
L 375.182752 30.298483 
L 376.419018 32.137267 
L 382.25134 39.608574 
L 387.575833 31.067154 
L 392.473891 30.760729 
L 397.008785 31.306549 
L 401.23067 30.83981 
L 405.17998 27.503012 
L 408.889786 26.526134 
L 415.696024 26.555896 
L 418.834817 30.112197 
L 421.820437 30.537138 
L 424.667139 30.513592 
L 427.387279 30.758408 
L 429.991632 37.025293 
L 432.489655 49.903264 
L 434.889691 49.402826 
L 437.199137 49.652671 
L 439.424584 44.349823 
L 441.57193 44.608133 
L 443.64647 44.674904 
L 445.652979 46.671628 
L 447.595779 46.671783 
L 449.478792 47.018729 
L 453.079422 47.981639 
L 454.803284 61.691231 
L 456.479911 61.94237 
L 458.111823 63.052703 
L 459.701343 60.901635 
L 461.250617 57.190223 
L 462.761634 56.72775 
L 464.236237 56.731703 
L 465.67614 59.33886 
L 467.082939 59.102032 
L 468.458122 59.259589 
L 469.803078 59.050265 
L 471.119109 60.723147 
L 472.407432 68.204503 
L 473.669189 70.718497 
L 474.905455 70.726485 
L 474.905455 70.726485 
" style="fill:none;stroke:#f0ad4e;stroke-linecap:square;stroke-width:1.5;"/>
   </g>
   <g id="line2d_29">
    <path clip-path="url(#p5a4edc1634)" d="M 75.6 38.451384 
L 493.92 38.451384 
" style="fill:none;stroke:#d2d2d2;stroke-dasharray:2.2,2.2;stroke-dashoffset:0;stroke-width:1.5;"/>
   </g>
   <g id="patch_3">
    <path d="M 75.6 181.44 
L 75.6 8.64 
" style="fill:none;stroke:#d2d2d2;stroke-linecap:square;stroke-linejoin:miter;"/>
   </g>
  </g>
  <g id="axes_2">
   <g id="patch_4">
    <path d="M 75.6 388.8 
L 493.92 388.8 
L 493.92 216 
L 75.6 216 
z
" style="fill:none;"/>
   </g>
   <g id="PolyCollection_1">
    <path clip-path="url(#pe84be7bf0b)" d="M 94.614545 142.172566 
L 94.614545 458.744883 
L 100.446867 383.947752 
L 105.77136 284.860862 
L 110.669419 369.812195 
L 115.204312 581.459349 
L 119.426198 430.180671 
L 123.375507 367.387281 
L 127.085314 446.157536 
L 130.583012 410.605281 
L 133.891551 392.816297 
L 137.030345 562.446515 
L 140.015965 426.926827 
L 142.862667 419.285868 
L 145.582806 378.126835 
L 148.18716 387.21758 
L 150.685183 281.480876 
L 153.085218 404.493588 
L 155.394664 352.63811 
L 157.620112 404.340026 
L 159.767457 350.66947 
L 161.841997 451.366236 
L 163.848507 380.80746 
L 165.791307 436.91205 
L 167.674319 320.253203 
L 169.501113 392.142495 
L 171.27495 349.650504 
L 172.998812 321.696894 
L 174.675439 303.267226 
L 176.307351 278.936333 
L 177.89687 522.743965 
L 179.446145 353.933686 
L 180.957161 357.756082 
L 182.431764 331.603414 
L 183.871667 371.910916 
L 185.278466 371.852645 
L 186.653649 325.10237 
L 187.998606 401.977286 
L 189.314637 324.379409 
L 190.602959 389.804189 
L 191.864717 408.831764 
L 193.100982 335.536665 
L 197.810464 370.425935 
L 202.183257 355.240927 
L 206.264306 324.393624 
L 210.090119 336.71659 
L 213.690749 341.223045 
L 217.091239 347.601679 
L 220.31267 321.851338 
L 223.372961 311.707082 
L 226.287467 368.86434 
L 229.069449 314.86898 
L 231.730436 378.428947 
L 234.280516 324.441804 
L 236.728565 326.066403 
L 239.082435 320.927175 
L 241.349104 333.248462 
L 243.534802 335.947606 
L 245.645117 286.856636 
L 247.685075 329.555721 
L 249.659216 327.374395 
L 251.571655 375.159551 
L 253.426132 314.133291 
L 255.226058 311.13734 
L 256.97455 318.635021 
L 258.674467 314.564966 
L 260.328434 322.472823 
L 261.938871 349.995282 
L 263.508009 305.434758 
L 265.037916 340.369613 
L 266.530503 348.758683 
L 267.98755 328.105598 
L 269.410709 357.485621 
L 270.80152 317.232939 
L 272.161422 290.063215 
L 273.491758 328.420087 
L 274.793787 332.842855 
L 276.068689 288.719601 
L 277.31757 332.263144 
L 280.332617 329.144314 
L 282.642063 285.699708 
L 284.867511 347.588212 
L 287.014856 350.34977 
L 289.089396 339.958798 
L 291.095906 290.880576 
L 293.038706 296.858661 
L 294.921718 344.195112 
L 296.748512 303.48914 
L 298.522348 295.792634 
L 300.24621 312.251783 
L 301.922838 340.512768 
L 303.554749 322.316865 
L 305.144269 334.882274 
L 306.693543 308.824698 
L 308.20456 319.637351 
L 309.679163 314.194575 
L 311.119066 327.506036 
L 312.525865 326.805536 
L 313.901048 296.893862 
L 315.246005 302.449847 
L 316.562035 303.231947 
L 317.850358 310.469751 
L 319.112115 297.697564 
L 320.348381 296.6501 
L 323.334 323.818868 
L 326.180703 317.95249 
L 328.900842 323.175671 
L 331.505195 302.776449 
L 334.003218 325.534824 
L 336.403254 320.480383 
L 338.7127 335.246562 
L 340.938148 307.009381 
L 343.085493 292.561289 
L 345.160033 316.140058 
L 347.166543 298.281994 
L 349.109343 298.336829 
L 350.992355 294.534829 
L 352.819149 310.680021 
L 354.592985 308.844854 
L 356.316848 310.830715 
L 357.993475 318.335941 
L 359.625387 308.604528 
L 361.214906 315.027272 
L 362.76418 302.18509 
L 364.275197 304.561141 
L 365.7498 309.44967 
L 367.189703 315.196863 
L 368.596502 299.908018 
L 369.971685 300.932039 
L 371.316642 302.734909 
L 372.632672 295.646654 
L 373.920995 297.434271 
L 375.182752 307.123262 
L 376.419018 295.358442 
L 382.25134 301.003011 
L 387.575833 314.47637 
L 392.473891 303.880863 
L 397.008785 289.545549 
L 401.23067 302.648782 
L 405.17998 312.940847 
L 408.889786 309.419945 
L 412.387485 296.138361 
L 415.696024 300.273266 
L 418.834817 293.651575 
L 421.820437 297.058222 
L 424.667139 297.347765 
L 427.387279 301.801062 
L 429.991632 287.916732 
L 432.489655 297.472571 
L 434.889691 298.962546 
L 437.199137 300.167391 
L 439.424584 304.278934 
L 441.57193 295.683939 
L 443.64647 297.413974 
L 445.652979 293.752361 
L 447.595779 289.581721 
L 449.478792 291.053037 
L 451.305586 292.199855 
L 453.079422 300.53834 
L 454.803284 294.95972 
L 456.479911 295.66061 
L 458.111823 293.330429 
L 459.701343 298.995725 
L 461.250617 299.942612 
L 462.761634 297.452068 
L 464.236237 291.20673 
L 465.67614 298.259107 
L 467.082939 297.052342 
L 468.458122 291.433876 
L 469.803078 296.567746 
L 471.119109 293.15203 
L 472.407432 285.927999 
L 473.669189 290.623662 
L 474.905455 289.075759 
L 474.905455 274.175137 
L 474.905455 274.175137 
L 473.669189 275.422888 
L 472.407432 270.742338 
L 471.119109 278.064336 
L 469.803078 281.332397 
L 468.458122 275.436309 
L 467.082939 280.839775 
L 465.67614 282.491106 
L 464.236237 275.201986 
L 462.761634 280.098539 
L 461.250617 283.699715 
L 459.701343 282.199778 
L 458.111823 275.927267 
L 456.479911 278.079 
L 454.803284 277.394288 
L 453.079422 282.185092 
L 451.305586 272.63516 
L 449.478792 271.830829 
L 447.595779 270.784886 
L 445.652979 275.028863 
L 443.64647 277.070203 
L 441.57193 276.746281 
L 439.424584 283.972958 
L 437.199137 280.439561 
L 434.889691 277.317444 
L 432.489655 277.246304 
L 429.991632 266.157457 
L 427.387279 280.047564 
L 424.667139 274.878184 
L 421.820437 274.688889 
L 418.834817 271.267304 
L 415.696024 276.87965 
L 412.387485 271.339435 
L 408.889786 283.213062 
L 405.17998 285.771828 
L 401.23067 277.208256 
L 397.008785 261.729406 
L 392.473891 275.194985 
L 387.575833 283.939961 
L 382.25134 270.072784 
L 376.419018 261.652102 
L 375.182752 274.130932 
L 373.920995 261.818709 
L 372.632672 262.309919 
L 371.316642 269.334478 
L 369.971685 266.24997 
L 368.596502 264.459079 
L 367.189703 279.462842 
L 365.7498 274.787504 
L 364.275197 267.63351 
L 362.76418 262.882756 
L 361.214906 275.108173 
L 359.625387 269.740573 
L 357.993475 276.86198 
L 356.316848 271.95496 
L 354.592985 270.049862 
L 352.819149 267.979645 
L 350.992355 252.325764 
L 349.109343 257.155895 
L 347.166543 254.767066 
L 345.160033 269.302162 
L 343.085493 250.393992 
L 340.938148 260.427839 
L 338.7127 288.347017 
L 336.403254 273.307499 
L 334.003218 279.888024 
L 331.505195 252.84607 
L 328.900842 273.676241 
L 326.180703 266.736636 
L 323.334 272.221407 
L 320.348381 243.757311 
L 319.112115 244.213206 
L 317.850358 253.714308 
L 316.562035 251.713397 
L 315.246005 248.807615 
L 313.901048 241.687639 
L 312.525865 271.904209 
L 311.119066 267.649653 
L 309.679163 254.201934 
L 308.20456 261.054432 
L 306.693543 252.164443 
L 305.144269 274.123378 
L 303.554749 265.415262 
L 301.922838 280.508876 
L 300.24621 249.892052 
L 298.522348 233.17545 
L 296.748512 240.871638 
L 294.921718 277.533723 
L 293.038706 225.6361 
L 291.095906 224.181119 
L 289.089396 274.433656 
L 287.014856 284.187225 
L 284.867511 273.86434 
L 282.642063 214.45048 
L 280.332617 256.884791 
L 277.31757 257.939973 
L 276.068689 216.256502 
L 274.793787 252.882592 
L 273.491758 257.044935 
L 272.161422 215.705608 
L 270.80152 242.816817 
L 269.410709 279.234359 
L 267.98755 248.947656 
L 266.530503 267.025116 
L 265.037916 262.03994 
L 263.508009 222.87449 
L 261.938871 264.642031 
L 260.328434 237.200828 
L 258.674467 222.714951 
L 256.97455 228.313446 
L 255.226058 223.251926 
L 253.426132 228.949163 
L 251.571655 295.324368 
L 249.659216 233.391692 
L 247.685075 225.017166 
L 245.645117 201.860597 
L 243.534802 236.946922 
L 241.349104 229.413663 
L 239.082435 211.897155 
L 236.728565 222.291673 
L 234.280516 225.825991 
L 231.730436 271.388094 
L 229.069449 205.051003 
L 226.287467 259.617018 
L 223.372961 190.090399 
L 220.31267 199.981054 
L 217.091239 229.840132 
L 213.690749 201.986993 
L 210.090119 214.820286 
L 206.264306 184.718323 
L 202.183257 200.403675 
L 197.810464 240.612653 
L 193.100982 180.123299 
L 191.864717 237.088476 
L 190.602959 232.132237 
L 189.314637 190.170362 
L 187.998606 240.112995 
L 186.653649 173.00706 
L 185.278466 198.712459 
L 183.871667 215.042502 
L 182.431764 162.120176 
L 180.957161 167.479711 
L 179.446145 169.699973 
L 177.89687 361.560465 
L 176.307351 139.472189 
L 174.675439 128.319429 
L 172.998812 143.051507 
L 171.27495 153.878808 
L 169.501113 230.474707 
L 167.674319 142.10828 
L 165.791307 259.358418 
L 163.848507 164.171877 
L 161.841997 235.681708 
L 159.767457 206.084377 
L 157.620112 200.671328 
L 155.394664 158.542978 
L 153.085218 174.523798 
L 150.685183 23.860581 
L 148.18716 174.418803 
L 145.582806 162.163062 
L 142.862667 211.778355 
L 140.015965 235.083019 
L 137.030345 316.394809 
L 133.891551 203.621047 
L 130.583012 213.845364 
L 127.085314 218.205309 
L 123.375507 132.561507 
L 119.426198 151.041242 
L 115.204312 210.260923 
L 110.669419 72.136119 
L 105.77136 -71.691644 
L 100.446867 45.26647 
L 94.614545 142.172566 
z
" style="fill:#5bc0de;fill-opacity:0.3;stroke:#5bc0de;stroke-opacity:0.3;"/>
   </g>
   <g id="matplotlib.axis_3">
    <g id="xtick_24">
     <g id="line2d_30">
      <defs>
       <path d="M 0 0 
L 0 2 
" id="m1a65938b20" style="stroke:#d2d2d2;"/>
      </defs>
      <g>
       <use style="fill:#d2d2d2;stroke:#d2d2d2;" x="94.614545" xlink:href="#m1a65938b20" y="388.8"/>
      </g>
     </g>
     <g id="text_7">
      <!-- ${10^{1}}$ -->
      <g style="fill:#d2d2d2;" transform="translate(83.174545 404.677969)scale(0.13 -0.13)">
       <use transform="translate(0 0.684375)" xlink:href="#DejaVuSans-31"/>
       <use transform="translate(63.623047 0.684375)" xlink:href="#DejaVuSans-30"/>
       <use transform="translate(128.203125 38.965625)scale(0.7)" xlink:href="#DejaVuSans-31"/>
      </g>
     </g>
    </g>
    <g id="xtick_25">
     <g id="line2d_31">
      <g>
       <use style="fill:#d2d2d2;stroke:#d2d2d2;" x="235.516782" xlink:href="#m1a65938b20" y="388.8"/>
      </g>
     </g>
     <g id="text_8">
      <!-- ${10^{2}}$ -->
      <g style="fill:#d2d2d2;" transform="translate(224.076782 404.677969)scale(0.13 -0.13)">
       <use transform="translate(0 0.765625)" xlink:href="#DejaVuSans-31"/>
       <use transform="translate(63.623047 0.765625)" xlink:href="#DejaVuSans-30"/>
       <use transform="translate(128.203125 39.046875)scale(0.7)" xlink:href="#DejaVuSans-32"/>
      </g>
     </g>
    </g>
    <g id="xtick_26">
     <g id="line2d_32">
      <g>
       <use style="fill:#d2d2d2;stroke:#d2d2d2;" x="376.419018" xlink:href="#m1a65938b20" y="388.8"/>
      </g>
     </g>
     <g id="text_9">
      <!-- ${10^{3}}$ -->
      <defs>
       <path d="M 40.578125 39.3125 
Q 47.65625 37.796875 51.625 33 
Q 55.609375 28.21875 55.609375 21.1875 
Q 55.609375 10.40625 48.1875 4.484375 
Q 40.765625 -1.421875 27.09375 -1.421875 
Q 22.515625 -1.421875 17.65625 -0.515625 
Q 12.796875 0.390625 7.625 2.203125 
L 7.625 11.71875 
Q 11.71875 9.328125 16.59375 8.109375 
Q 21.484375 6.890625 26.8125 6.890625 
Q 36.078125 6.890625 40.9375 10.546875 
Q 45.796875 14.203125 45.796875 21.1875 
Q 45.796875 27.640625 41.28125 31.265625 
Q 36.765625 34.90625 28.71875 34.90625 
L 20.21875 34.90625 
L 20.21875 43.015625 
L 29.109375 43.015625 
Q 36.375 43.015625 40.234375 45.921875 
Q 44.09375 48.828125 44.09375 54.296875 
Q 44.09375 59.90625 40.109375 62.90625 
Q 36.140625 65.921875 28.71875 65.921875 
Q 24.65625 65.921875 20.015625 65.03125 
Q 15.375 64.15625 9.8125 62.3125 
L 9.8125 71.09375 
Q 15.4375 72.65625 20.34375 73.4375 
Q 25.25 74.21875 29.59375 74.21875 
Q 40.828125 74.21875 47.359375 69.109375 
Q 53.90625 64.015625 53.90625 55.328125 
Q 53.90625 49.265625 50.4375 45.09375 
Q 46.96875 40.921875 40.578125 39.3125 
" id="DejaVuSans-33"/>
      </defs>
      <g style="fill:#d2d2d2;" transform="translate(364.979018 404.677969)scale(0.13 -0.13)">
       <use transform="translate(0 0.765625)" xlink:href="#DejaVuSans-31"/>
       <use transform="translate(63.623047 0.765625)" xlink:href="#DejaVuSans-30"/>
       <use transform="translate(128.203125 39.046875)scale(0.7)" xlink:href="#DejaVuSans-33"/>
      </g>
     </g>
    </g>
    <g id="xtick_27">
     <g id="line2d_33">
      <g>
       <use style="fill:#d2d2d2;stroke:#d2d2d2;" x="80.959708" xlink:href="#m1a65938b20" y="388.8"/>
      </g>
     </g>
    </g>
    <g id="xtick_28">
     <g id="line2d_34">
      <g>
       <use style="fill:#d2d2d2;stroke:#d2d2d2;" x="88.167213" xlink:href="#m1a65938b20" y="388.8"/>
      </g>
     </g>
    </g>
    <g id="xtick_29">
     <g id="line2d_35">
      <g>
       <use style="fill:#d2d2d2;stroke:#d2d2d2;" x="137.030345" xlink:href="#m1a65938b20" y="388.8"/>
      </g>
     </g>
    </g>
    <g id="xtick_30">
     <g id="line2d_36">
      <g>
       <use style="fill:#d2d2d2;stroke:#d2d2d2;" x="161.841997" xlink:href="#m1a65938b20" y="388.8"/>
      </g>
     </g>
    </g>
    <g id="xtick_31">
     <g id="line2d_37">
      <g>
       <use style="fill:#d2d2d2;stroke:#d2d2d2;" x="179.446145" xlink:href="#m1a65938b20" y="388.8"/>
      </g>
     </g>
    </g>
    <g id="xtick_32">
     <g id="line2d_38">
      <g>
       <use style="fill:#d2d2d2;stroke:#d2d2d2;" x="193.100982" xlink:href="#m1a65938b20" y="388.8"/>
      </g>
     </g>
    </g>
    <g id="xtick_33">
     <g id="line2d_39">
      <g>
       <use style="fill:#d2d2d2;stroke:#d2d2d2;" x="204.257797" xlink:href="#m1a65938b20" y="388.8"/>
      </g>
     </g>
    </g>
    <g id="xtick_34">
     <g id="line2d_40">
      <g>
       <use style="fill:#d2d2d2;stroke:#d2d2d2;" x="213.690749" xlink:href="#m1a65938b20" y="388.8"/>
      </g>
     </g>
    </g>
    <g id="xtick_35">
     <g id="line2d_41">
      <g>
       <use style="fill:#d2d2d2;stroke:#d2d2d2;" x="221.861944" xlink:href="#m1a65938b20" y="388.8"/>
      </g>
     </g>
    </g>
    <g id="xtick_36">
     <g id="line2d_42">
      <g>
       <use style="fill:#d2d2d2;stroke:#d2d2d2;" x="229.069449" xlink:href="#m1a65938b20" y="388.8"/>
      </g>
     </g>
    </g>
    <g id="xtick_37">
     <g id="line2d_43">
      <g>
       <use style="fill:#d2d2d2;stroke:#d2d2d2;" x="277.932581" xlink:href="#m1a65938b20" y="388.8"/>
      </g>
     </g>
    </g>
    <g id="xtick_38">
     <g id="line2d_44">
      <g>
       <use style="fill:#d2d2d2;stroke:#d2d2d2;" x="302.744233" xlink:href="#m1a65938b20" y="388.8"/>
      </g>
     </g>
    </g>
    <g id="xtick_39">
     <g id="line2d_45">
      <g>
       <use style="fill:#d2d2d2;stroke:#d2d2d2;" x="320.348381" xlink:href="#m1a65938b20" y="388.8"/>
      </g>
     </g>
    </g>
    <g id="xtick_40">
     <g id="line2d_46">
      <g>
       <use style="fill:#d2d2d2;stroke:#d2d2d2;" x="334.003218" xlink:href="#m1a65938b20" y="388.8"/>
      </g>
     </g>
    </g>
    <g id="xtick_41">
     <g id="line2d_47">
      <g>
       <use style="fill:#d2d2d2;stroke:#d2d2d2;" x="345.160033" xlink:href="#m1a65938b20" y="388.8"/>
      </g>
     </g>
    </g>
    <g id="xtick_42">
     <g id="line2d_48">
      <g>
       <use style="fill:#d2d2d2;stroke:#d2d2d2;" x="354.592985" xlink:href="#m1a65938b20" y="388.8"/>
      </g>
     </g>
    </g>
    <g id="xtick_43">
     <g id="line2d_49">
      <g>
       <use style="fill:#d2d2d2;stroke:#d2d2d2;" x="362.76418" xlink:href="#m1a65938b20" y="388.8"/>
      </g>
     </g>
    </g>
    <g id="xtick_44">
     <g id="line2d_50">
      <g>
       <use style="fill:#d2d2d2;stroke:#d2d2d2;" x="369.971685" xlink:href="#m1a65938b20" y="388.8"/>
      </g>
     </g>
    </g>
    <g id="xtick_45">
     <g id="line2d_51">
      <g>
       <use style="fill:#d2d2d2;stroke:#d2d2d2;" x="418.834817" xlink:href="#m1a65938b20" y="388.8"/>
      </g>
     </g>
    </g>
    <g id="xtick_46">
     <g id="line2d_52">
      <g>
       <use style="fill:#d2d2d2;stroke:#d2d2d2;" x="443.64647" xlink:href="#m1a65938b20" y="388.8"/>
      </g>
     </g>
    </g>
    <g id="xtick_47">
     <g id="line2d_53">
      <g>
       <use style="fill:#d2d2d2;stroke:#d2d2d2;" x="461.250617" xlink:href="#m1a65938b20" y="388.8"/>
      </g>
     </g>
    </g>
    <g id="xtick_48">
     <g id="line2d_54">
      <g>
       <use style="fill:#d2d2d2;stroke:#d2d2d2;" x="474.905455" xlink:href="#m1a65938b20" y="388.8"/>
      </g>
     </g>
    </g>
    <g id="xtick_49">
     <g id="line2d_55">
      <g>
       <use style="fill:#d2d2d2;stroke:#d2d2d2;" x="486.062269" xlink:href="#m1a65938b20" y="388.8"/>
      </g>
     </g>
    </g>
    <g id="text_10">
     <!-- sample size -->
     <defs>
      <path d="M 44.28125 53.078125 
L 44.28125 44.578125 
Q 40.484375 46.53125 36.375 47.5 
Q 32.28125 48.484375 27.875 48.484375 
Q 21.1875 48.484375 17.84375 46.4375 
Q 14.5 44.390625 14.5 40.28125 
Q 14.5 37.15625 16.890625 35.375 
Q 19.28125 33.59375 26.515625 31.984375 
L 29.59375 31.296875 
Q 39.15625 29.25 43.1875 25.515625 
Q 47.21875 21.78125 47.21875 15.09375 
Q 47.21875 7.46875 41.1875 3.015625 
Q 35.15625 -1.421875 24.609375 -1.421875 
Q 20.21875 -1.421875 15.453125 -0.5625 
Q 10.6875 0.296875 5.421875 2 
L 5.421875 11.28125 
Q 10.40625 8.6875 15.234375 7.390625 
Q 20.0625 6.109375 24.8125 6.109375 
Q 31.15625 6.109375 34.5625 8.28125 
Q 37.984375 10.453125 37.984375 14.40625 
Q 37.984375 18.0625 35.515625 20.015625 
Q 33.0625 21.96875 24.703125 23.78125 
L 21.578125 24.515625 
Q 13.234375 26.265625 9.515625 29.90625 
Q 5.8125 33.546875 5.8125 39.890625 
Q 5.8125 47.609375 11.28125 51.796875 
Q 16.75 56 26.8125 56 
Q 31.78125 56 36.171875 55.265625 
Q 40.578125 54.546875 44.28125 53.078125 
" id="DejaVuSans-73"/>
      <path d="M 52 44.1875 
Q 55.375 50.25 60.0625 53.125 
Q 64.75 56 71.09375 56 
Q 79.640625 56 84.28125 50.015625 
Q 88.921875 44.046875 88.921875 33.015625 
L 88.921875 0 
L 79.890625 0 
L 79.890625 32.71875 
Q 79.890625 40.578125 77.09375 44.375 
Q 74.3125 48.1875 68.609375 48.1875 
Q 61.625 48.1875 57.5625 43.546875 
Q 53.515625 38.921875 53.515625 30.90625 
L 53.515625 0 
L 44.484375 0 
L 44.484375 32.71875 
Q 44.484375 40.625 41.703125 44.40625 
Q 38.921875 48.1875 33.109375 48.1875 
Q 26.21875 48.1875 22.15625 43.53125 
Q 18.109375 38.875 18.109375 30.90625 
L 18.109375 0 
L 9.078125 0 
L 9.078125 54.6875 
L 18.109375 54.6875 
L 18.109375 46.1875 
Q 21.1875 51.21875 25.484375 53.609375 
Q 29.78125 56 35.6875 56 
Q 41.65625 56 45.828125 52.96875 
Q 50 49.953125 52 44.1875 
" id="DejaVuSans-6d"/>
      <path id="DejaVuSans-20"/>
      <path d="M 9.421875 54.6875 
L 18.40625 54.6875 
L 18.40625 0 
L 9.421875 0 
z
M 9.421875 75.984375 
L 18.40625 75.984375 
L 18.40625 64.59375 
L 9.421875 64.59375 
z
" id="DejaVuSans-69"/>
      <path d="M 5.515625 54.6875 
L 48.1875 54.6875 
L 48.1875 46.484375 
L 14.40625 7.171875 
L 48.1875 7.171875 
L 48.1875 0 
L 4.296875 0 
L 4.296875 8.203125 
L 38.09375 47.515625 
L 5.515625 47.515625 
z
" id="DejaVuSans-7a"/>
     </defs>
     <g style="fill:#d2d2d2;" transform="translate(237.62 423.539062)scale(0.16 -0.16)">
      <use xlink:href="#DejaVuSans-73"/>
      <use x="52.099609" xlink:href="#DejaVuSans-61"/>
      <use x="113.378906" xlink:href="#DejaVuSans-6d"/>
      <use x="210.791016" xlink:href="#DejaVuSans-70"/>
      <use x="274.267578" xlink:href="#DejaVuSans-6c"/>
      <use x="302.050781" xlink:href="#DejaVuSans-65"/>
      <use x="363.574219" xlink:href="#DejaVuSans-20"/>
      <use x="395.361328" xlink:href="#DejaVuSans-73"/>
      <use x="447.460938" xlink:href="#DejaVuSans-69"/>
      <use x="475.244141" xlink:href="#DejaVuSans-7a"/>
      <use x="527.734375" xlink:href="#DejaVuSans-65"/>
     </g>
    </g>
   </g>
   <g id="matplotlib.axis_4">
    <g id="ytick_27">
     <g id="line2d_56">
      <defs>
       <path d="M 0 0 
L -2 0 
" id="m0d39d3eddc" style="stroke:#d2d2d2;"/>
      </defs>
      <g>
       <use style="fill:#d2d2d2;stroke:#d2d2d2;" x="75.6" xlink:href="#m0d39d3eddc" y="388.8"/>
      </g>
     </g>
     <g id="text_11">
      <!-- 0.10 -->
      <defs>
       <path d="M 10.6875 12.40625 
L 21 12.40625 
L 21 0 
L 10.6875 0 
z
" id="DejaVuSans-2e"/>
      </defs>
      <g style="fill:#d2d2d2;" transform="translate(29.761094 393.738984)scale(0.13 -0.13)">
       <use xlink:href="#DejaVuSans-2212"/>
       <use x="83.789062" xlink:href="#DejaVuSans-30"/>
       <use x="147.412109" xlink:href="#DejaVuSans-2e"/>
       <use x="179.199219" xlink:href="#DejaVuSans-31"/>
       <use x="242.822266" xlink:href="#DejaVuSans-30"/>
      </g>
     </g>
    </g>
    <g id="ytick_28">
     <g id="line2d_57">
      <g>
       <use style="fill:#d2d2d2;stroke:#d2d2d2;" x="75.6" xlink:href="#m0d39d3eddc" y="345.6"/>
      </g>
     </g>
     <g id="text_12">
      <!-- 0.05 -->
      <defs>
       <path d="M 10.796875 72.90625 
L 49.515625 72.90625 
L 49.515625 64.59375 
L 19.828125 64.59375 
L 19.828125 46.734375 
Q 21.96875 47.46875 24.109375 47.828125 
Q 26.265625 48.1875 28.421875 48.1875 
Q 40.625 48.1875 47.75 41.5 
Q 54.890625 34.8125 54.890625 23.390625 
Q 54.890625 11.625 47.5625 5.09375 
Q 40.234375 -1.421875 26.90625 -1.421875 
Q 22.3125 -1.421875 17.546875 -0.640625 
Q 12.796875 0.140625 7.71875 1.703125 
L 7.71875 11.625 
Q 12.109375 9.234375 16.796875 8.0625 
Q 21.484375 6.890625 26.703125 6.890625 
Q 35.15625 6.890625 40.078125 11.328125 
Q 45.015625 15.765625 45.015625 23.390625 
Q 45.015625 31 40.078125 35.4375 
Q 35.15625 39.890625 26.703125 39.890625 
Q 22.75 39.890625 18.8125 39.015625 
Q 14.890625 38.140625 10.796875 36.28125 
z
" id="DejaVuSans-35"/>
      </defs>
      <g style="fill:#d2d2d2;" transform="translate(29.761094 350.538984)scale(0.13 -0.13)">
       <use xlink:href="#DejaVuSans-2212"/>
       <use x="83.789062" xlink:href="#DejaVuSans-30"/>
       <use x="147.412109" xlink:href="#DejaVuSans-2e"/>
       <use x="179.199219" xlink:href="#DejaVuSans-30"/>
       <use x="242.822266" xlink:href="#DejaVuSans-35"/>
      </g>
     </g>
    </g>
    <g id="ytick_29">
     <g id="line2d_58">
      <g>
       <use style="fill:#d2d2d2;stroke:#d2d2d2;" x="75.6" xlink:href="#m0d39d3eddc" y="302.4"/>
      </g>
     </g>
     <g id="text_13">
      <!-- 0.00 -->
      <g style="fill:#d2d2d2;" transform="translate(40.654687 307.338984)scale(0.13 -0.13)">
       <use xlink:href="#DejaVuSans-30"/>
       <use x="63.623047" xlink:href="#DejaVuSans-2e"/>
       <use x="95.410156" xlink:href="#DejaVuSans-30"/>
       <use x="159.033203" xlink:href="#DejaVuSans-30"/>
      </g>
     </g>
    </g>
    <g id="ytick_30">
     <g id="line2d_59">
      <g>
       <use style="fill:#d2d2d2;stroke:#d2d2d2;" x="75.6" xlink:href="#m0d39d3eddc" y="259.2"/>
      </g>
     </g>
     <g id="text_14">
      <!-- 0.05 -->
      <g style="fill:#d2d2d2;" transform="translate(40.654687 264.138984)scale(0.13 -0.13)">
       <use xlink:href="#DejaVuSans-30"/>
       <use x="63.623047" xlink:href="#DejaVuSans-2e"/>
       <use x="95.410156" xlink:href="#DejaVuSans-30"/>
       <use x="159.033203" xlink:href="#DejaVuSans-35"/>
      </g>
     </g>
    </g>
    <g id="ytick_31">
     <g id="line2d_60">
      <g>
       <use style="fill:#d2d2d2;stroke:#d2d2d2;" x="75.6" xlink:href="#m0d39d3eddc" y="216"/>
      </g>
     </g>
     <g id="text_15">
      <!-- 0.10 -->
      <g style="fill:#d2d2d2;" transform="translate(40.654687 220.938984)scale(0.13 -0.13)">
       <use xlink:href="#DejaVuSans-30"/>
       <use x="63.623047" xlink:href="#DejaVuSans-2e"/>
       <use x="95.410156" xlink:href="#DejaVuSans-31"/>
       <use x="159.033203" xlink:href="#DejaVuSans-30"/>
      </g>
     </g>
    </g>
    <g id="text_16">
     <!-- ($\mu_{a}-\mu_{c}$) -->
     <defs>
      <path d="M 31 75.875 
Q 24.46875 64.65625 21.28125 53.65625 
Q 18.109375 42.671875 18.109375 31.390625 
Q 18.109375 20.125 21.3125 9.0625 
Q 24.515625 -2 31 -13.1875 
L 23.1875 -13.1875 
Q 15.875 -1.703125 12.234375 9.375 
Q 8.59375 20.453125 8.59375 31.390625 
Q 8.59375 42.28125 12.203125 53.3125 
Q 15.828125 64.359375 23.1875 75.875 
z
" id="DejaVuSans-28"/>
      <path d="M -1.3125 -20.796875 
L 13.375 54.6875 
L 22.40625 54.6875 
L 15.765625 20.65625 
Q 15.578125 19.625 15.421875 18.359375 
Q 15.28125 17.09375 15.28125 15.828125 
Q 15.28125 11.28125 18.140625 8.828125 
Q 21 6.390625 26.3125 6.390625 
Q 33.546875 6.390625 37.984375 10.484375 
Q 42.4375 14.59375 44 22.796875 
L 50.203125 54.6875 
L 59.1875 54.6875 
L 51.03125 12.640625 
Q 50.828125 11.71875 50.75 11.03125 
Q 50.6875 10.359375 50.6875 9.8125 
Q 50.6875 8.296875 51.296875 7.59375 
Q 51.90625 6.890625 53.21875 6.890625 
Q 53.71875 6.890625 54.5625 7.125 
Q 55.421875 7.375 56.984375 8.015625 
L 55.609375 0.78125 
Q 53.46875 -0.296875 51.515625 -0.859375 
Q 49.5625 -1.421875 47.703125 -1.421875 
Q 44.484375 -1.421875 42.65625 0.625 
Q 40.828125 2.6875 40.828125 6.296875 
Q 38.09375 2.390625 34.296875 0.484375 
Q 30.515625 -1.421875 25.390625 -1.421875 
Q 20.84375 -1.421875 17.453125 0.671875 
Q 14.0625 2.78125 12.984375 6.203125 
L 7.71875 -20.796875 
z
" id="DejaVuSans-Oblique-3bc"/>
      <path d="M 53.71875 31.203125 
L 47.609375 0 
L 38.625 0 
L 40.28125 8.296875 
Q 36.328125 3.421875 31.265625 1 
Q 26.21875 -1.421875 20.015625 -1.421875 
Q 13.03125 -1.421875 8.5625 2.84375 
Q 4.109375 7.125 4.109375 13.8125 
Q 4.109375 23.390625 11.75 28.953125 
Q 19.390625 34.515625 32.8125 34.515625 
L 45.3125 34.515625 
L 45.796875 36.921875 
Q 45.90625 37.3125 45.953125 37.765625 
Q 46 38.234375 46 39.203125 
Q 46 43.5625 42.453125 45.96875 
Q 38.921875 48.390625 32.515625 48.390625 
Q 28.125 48.390625 23.5 47.265625 
Q 18.890625 46.140625 14.015625 43.890625 
L 15.578125 52.203125 
Q 20.65625 54.109375 25.515625 55.046875 
Q 30.375 56 34.90625 56 
Q 44.578125 56 49.625 51.796875 
Q 54.6875 47.609375 54.6875 39.59375 
Q 54.6875 37.984375 54.4375 35.8125 
Q 54.203125 33.640625 53.71875 31.203125 
M 44 27.484375 
L 35.015625 27.484375 
Q 23.96875 27.484375 18.671875 24.53125 
Q 13.375 21.578125 13.375 15.375 
Q 13.375 11.078125 16.078125 8.640625 
Q 18.796875 6.203125 23.578125 6.203125 
Q 30.90625 6.203125 36.375 11.453125 
Q 41.84375 16.703125 43.609375 25.484375 
z
" id="DejaVuSans-Oblique-61"/>
      <path d="M 53.609375 52.59375 
L 51.8125 43.703125 
Q 48.578125 46.046875 44.9375 47.21875 
Q 41.3125 48.390625 37.40625 48.390625 
Q 33.109375 48.390625 29.21875 46.875 
Q 25.34375 45.359375 22.703125 42.578125 
Q 18.5 38.328125 16.203125 32.609375 
Q 13.921875 26.90625 13.921875 20.796875 
Q 13.921875 13.421875 17.609375 9.8125 
Q 21.296875 6.203125 28.8125 6.203125 
Q 32.515625 6.203125 36.6875 7.328125 
Q 40.875 8.453125 45.40625 10.6875 
L 43.703125 1.8125 
Q 39.796875 0.203125 35.671875 -0.609375 
Q 31.546875 -1.421875 27.203125 -1.421875 
Q 16.3125 -1.421875 10.453125 4.015625 
Q 4.59375 9.46875 4.59375 19.578125 
Q 4.59375 28.078125 7.640625 35.234375 
Q 10.6875 42.390625 16.703125 48.09375 
Q 20.796875 52 26.3125 54 
Q 31.84375 56 38.375 56 
Q 42.1875 56 45.9375 55.140625 
Q 49.703125 54.296875 53.609375 52.59375 
" id="DejaVuSans-Oblique-63"/>
      <path d="M 8.015625 75.875 
L 15.828125 75.875 
Q 23.140625 64.359375 26.78125 53.3125 
Q 30.421875 42.28125 30.421875 31.390625 
Q 30.421875 20.453125 26.78125 9.375 
Q 23.140625 -1.703125 15.828125 -13.1875 
L 8.015625 -13.1875 
Q 14.5 -2 17.703125 9.0625 
Q 20.90625 20.125 20.90625 31.390625 
Q 20.90625 42.671875 17.703125 53.65625 
Q 14.5 64.65625 8.015625 75.875 
" id="DejaVuSans-29"/>
     </defs>
     <g style="fill:#d2d2d2;" transform="translate(22.401094 335.6)rotate(-90)scale(0.16 -0.16)">
      <use transform="translate(0 0.125)" xlink:href="#DejaVuSans-28"/>
      <use transform="translate(39.013672 0.125)" xlink:href="#DejaVuSans-Oblique-3bc"/>
      <use transform="translate(102.636719 -16.28125)scale(0.7)" xlink:href="#DejaVuSans-Oblique-61"/>
      <use transform="translate(167.749023 0.125)" xlink:href="#DejaVuSans-2212"/>
      <use transform="translate(271.020508 0.125)" xlink:href="#DejaVuSans-Oblique-3bc"/>
      <use transform="translate(334.643555 -16.28125)scale(0.7)" xlink:href="#DejaVuSans-Oblique-63"/>
      <use transform="translate(375.864258 0.125)" xlink:href="#DejaVuSans-29"/>
     </g>
    </g>
   </g>
   <g id="line2d_61">
    <g clip-path="url(#pe84be7bf0b)">
     <use style="fill:#d2d2d2;stroke:#d2d2d2;" x="94.614545" xlink:href="#m0b12571f53" y="293.916559"/>
     <use style="fill:#d2d2d2;stroke:#d2d2d2;" x="100.446867" xlink:href="#m0b12571f53" y="215.849211"/>
     <use style="fill:#d2d2d2;stroke:#d2d2d2;" x="105.77136" xlink:href="#m0b12571f53" y="115.033636"/>
     <use style="fill:#d2d2d2;stroke:#d2d2d2;" x="110.669419" xlink:href="#m0b12571f53" y="218.95069"/>
     <use style="fill:#d2d2d2;stroke:#d2d2d2;" x="115.204312" xlink:href="#m0b12571f53" y="398.430406"/>
     <use style="fill:#d2d2d2;stroke:#d2d2d2;" x="119.426198" xlink:href="#m0b12571f53" y="288.889677"/>
     <use style="fill:#d2d2d2;stroke:#d2d2d2;" x="123.375507" xlink:href="#m0b12571f53" y="253.401127"/>
     <use style="fill:#d2d2d2;stroke:#d2d2d2;" x="127.085314" xlink:href="#m0b12571f53" y="334.845218"/>
     <use style="fill:#d2d2d2;stroke:#d2d2d2;" x="130.583012" xlink:href="#m0b12571f53" y="312.142064"/>
     <use style="fill:#d2d2d2;stroke:#d2d2d2;" x="133.891551" xlink:href="#m0b12571f53" y="297.232678"/>
     <use style="fill:#d2d2d2;stroke:#d2d2d2;" x="137.030345" xlink:href="#m0b12571f53" y="448.266624"/>
     <use style="fill:#d2d2d2;stroke:#d2d2d2;" x="140.015965" xlink:href="#m0b12571f53" y="338.145733"/>
     <use style="fill:#d2d2d2;stroke:#d2d2d2;" x="142.862667" xlink:href="#m0b12571f53" y="319.294844"/>
     <use style="fill:#d2d2d2;stroke:#d2d2d2;" x="145.582806" xlink:href="#m0b12571f53" y="269.586393"/>
     <use style="fill:#d2d2d2;stroke:#d2d2d2;" x="148.18716" xlink:href="#m0b12571f53" y="275.337146"/>
     <use style="fill:#d2d2d2;stroke:#d2d2d2;" x="150.685183" xlink:href="#m0b12571f53" y="152.28404"/>
     <use style="fill:#d2d2d2;stroke:#d2d2d2;" x="153.085218" xlink:href="#m0b12571f53" y="299.091188"/>
     <use style="fill:#d2d2d2;stroke:#d2d2d2;" x="155.394664" xlink:href="#m0b12571f53" y="257.235888"/>
     <use style="fill:#d2d2d2;stroke:#d2d2d2;" x="157.620112" xlink:href="#m0b12571f53" y="297.708804"/>
     <use style="fill:#d2d2d2;stroke:#d2d2d2;" x="159.767457" xlink:href="#m0b12571f53" y="280.783125"/>
     <use style="fill:#d2d2d2;stroke:#d2d2d2;" x="161.841997" xlink:href="#m0b12571f53" y="342.91754"/>
     <use style="fill:#d2d2d2;stroke:#d2d2d2;" x="163.848507" xlink:href="#m0b12571f53" y="275.679416"/>
     <use style="fill:#d2d2d2;stroke:#d2d2d2;" x="165.791307" xlink:href="#m0b12571f53" y="349.703679"/>
     <use style="fill:#d2d2d2;stroke:#d2d2d2;" x="167.674319" xlink:href="#m0b12571f53" y="228.169398"/>
     <use style="fill:#d2d2d2;stroke:#d2d2d2;" x="169.501113" xlink:href="#m0b12571f53" y="307.66382"/>
     <use style="fill:#d2d2d2;stroke:#d2d2d2;" x="171.27495" xlink:href="#m0b12571f53" y="252.250234"/>
     <use style="fill:#d2d2d2;stroke:#d2d2d2;" x="172.998812" xlink:href="#m0b12571f53" y="238.490842"/>
     <use style="fill:#d2d2d2;stroke:#d2d2d2;" x="174.675439" xlink:href="#m0b12571f53" y="211.209227"/>
     <use style="fill:#d2d2d2;stroke:#d2d2d2;" x="176.307351" xlink:href="#m0b12571f53" y="207.302988"/>
     <use style="fill:#d2d2d2;stroke:#d2d2d2;" x="177.89687" xlink:href="#m0b12571f53" y="439.121174"/>
     <use style="fill:#d2d2d2;stroke:#d2d2d2;" x="179.446145" xlink:href="#m0b12571f53" y="262.629053"/>
     <use style="fill:#d2d2d2;stroke:#d2d2d2;" x="180.957161" xlink:href="#m0b12571f53" y="263.328973"/>
     <use style="fill:#d2d2d2;stroke:#d2d2d2;" x="182.431764" xlink:href="#m0b12571f53" y="247.369301"/>
     <use style="fill:#d2d2d2;stroke:#d2d2d2;" x="183.871667" xlink:href="#m0b12571f53" y="292.502477"/>
     <use style="fill:#d2d2d2;stroke:#d2d2d2;" x="185.278466" xlink:href="#m0b12571f53" y="282.75114"/>
     <use style="fill:#d2d2d2;stroke:#d2d2d2;" x="186.653649" xlink:href="#m0b12571f53" y="247.610798"/>
     <use style="fill:#d2d2d2;stroke:#d2d2d2;" x="187.998606" xlink:href="#m0b12571f53" y="323.924791"/>
     <use style="fill:#d2d2d2;stroke:#d2d2d2;" x="189.314637" xlink:href="#m0b12571f53" y="255.331952"/>
     <use style="fill:#d2d2d2;stroke:#d2d2d2;" x="190.602959" xlink:href="#m0b12571f53" y="314.293027"/>
     <use style="fill:#d2d2d2;stroke:#d2d2d2;" x="191.864717" xlink:href="#m0b12571f53" y="324.793735"/>
     <use style="fill:#d2d2d2;stroke:#d2d2d2;" x="193.100982" xlink:href="#m0b12571f53" y="255.379892"/>
     <use style="fill:#d2d2d2;stroke:#d2d2d2;" x="197.810464" xlink:href="#m0b12571f53" y="310.639902"/>
     <use style="fill:#d2d2d2;stroke:#d2d2d2;" x="202.183257" xlink:href="#m0b12571f53" y="275.857831"/>
     <use style="fill:#d2d2d2;stroke:#d2d2d2;" x="206.264306" xlink:href="#m0b12571f53" y="256.35571"/>
     <use style="fill:#d2d2d2;stroke:#d2d2d2;" x="210.090119" xlink:href="#m0b12571f53" y="276.203551"/>
     <use style="fill:#d2d2d2;stroke:#d2d2d2;" x="213.690749" xlink:href="#m0b12571f53" y="273.825208"/>
     <use style="fill:#d2d2d2;stroke:#d2d2d2;" x="217.091239" xlink:href="#m0b12571f53" y="289.905953"/>
     <use style="fill:#d2d2d2;stroke:#d2d2d2;" x="220.31267" xlink:href="#m0b12571f53" y="260.662917"/>
     <use style="fill:#d2d2d2;stroke:#d2d2d2;" x="223.372961" xlink:href="#m0b12571f53" y="255.545072"/>
     <use style="fill:#d2d2d2;stroke:#d2d2d2;" x="226.287467" xlink:href="#m0b12571f53" y="313.611418"/>
     <use style="fill:#d2d2d2;stroke:#d2d2d2;" x="229.069449" xlink:href="#m0b12571f53" y="261.386776"/>
     <use style="fill:#d2d2d2;stroke:#d2d2d2;" x="231.730436" xlink:href="#m0b12571f53" y="328.072189"/>
     <use style="fill:#d2d2d2;stroke:#d2d2d2;" x="234.280516" xlink:href="#m0b12571f53" y="276.568339"/>
     <use style="fill:#d2d2d2;stroke:#d2d2d2;" x="236.728565" xlink:href="#m0b12571f53" y="274.868195"/>
     <use style="fill:#d2d2d2;stroke:#d2d2d2;" x="239.082435" xlink:href="#m0b12571f53" y="268.556158"/>
     <use style="fill:#d2d2d2;stroke:#d2d2d2;" x="241.349104" xlink:href="#m0b12571f53" y="280.471902"/>
     <use style="fill:#d2d2d2;stroke:#d2d2d2;" x="243.534802" xlink:href="#m0b12571f53" y="288.322966"/>
     <use style="fill:#d2d2d2;stroke:#d2d2d2;" x="245.645117" xlink:href="#m0b12571f53" y="245.92501"/>
     <use style="fill:#d2d2d2;stroke:#d2d2d2;" x="247.685075" xlink:href="#m0b12571f53" y="278.421972"/>
     <use style="fill:#d2d2d2;stroke:#d2d2d2;" x="249.659216" xlink:href="#m0b12571f53" y="278.64601"/>
     <use style="fill:#d2d2d2;stroke:#d2d2d2;" x="251.571655" xlink:href="#m0b12571f53" y="334.634671"/>
     <use style="fill:#d2d2d2;stroke:#d2d2d2;" x="253.426132" xlink:href="#m0b12571f53" y="271.023893"/>
     <use style="fill:#d2d2d2;stroke:#d2d2d2;" x="255.226058" xlink:href="#m0b12571f53" y="266.726177"/>
     <use style="fill:#d2d2d2;stroke:#d2d2d2;" x="256.97455" xlink:href="#m0b12571f53" y="275.03771"/>
     <use style="fill:#d2d2d2;stroke:#d2d2d2;" x="258.674467" xlink:href="#m0b12571f53" y="267.944165"/>
     <use style="fill:#d2d2d2;stroke:#d2d2d2;" x="260.328434" xlink:href="#m0b12571f53" y="279.515107"/>
     <use style="fill:#d2d2d2;stroke:#d2d2d2;" x="261.938871" xlink:href="#m0b12571f53" y="306.28209"/>
     <use style="fill:#d2d2d2;stroke:#d2d2d2;" x="263.508009" xlink:href="#m0b12571f53" y="263.264501"/>
     <use style="fill:#d2d2d2;stroke:#d2d2d2;" x="265.037916" xlink:href="#m0b12571f53" y="298.425719"/>
     <use style="fill:#d2d2d2;stroke:#d2d2d2;" x="266.530503" xlink:href="#m0b12571f53" y="307.976744"/>
     <use style="fill:#d2d2d2;stroke:#d2d2d2;" x="267.98755" xlink:href="#m0b12571f53" y="288.080946"/>
     <use style="fill:#d2d2d2;stroke:#d2d2d2;" x="269.410709" xlink:href="#m0b12571f53" y="319.677058"/>
     <use style="fill:#d2d2d2;stroke:#d2d2d2;" x="270.80152" xlink:href="#m0b12571f53" y="278.878339"/>
     <use style="fill:#d2d2d2;stroke:#d2d2d2;" x="272.161422" xlink:href="#m0b12571f53" y="253.753359"/>
     <use style="fill:#d2d2d2;stroke:#d2d2d2;" x="273.491758" xlink:href="#m0b12571f53" y="290.929315"/>
     <use style="fill:#d2d2d2;stroke:#d2d2d2;" x="274.793787" xlink:href="#m0b12571f53" y="293.672618"/>
     <use style="fill:#d2d2d2;stroke:#d2d2d2;" x="276.068689" xlink:href="#m0b12571f53" y="253.659589"/>
     <use style="fill:#d2d2d2;stroke:#d2d2d2;" x="277.31757" xlink:href="#m0b12571f53" y="296.044545"/>
     <use style="fill:#d2d2d2;stroke:#d2d2d2;" x="280.332617" xlink:href="#m0b12571f53" y="292.981614"/>
     <use style="fill:#d2d2d2;stroke:#d2d2d2;" x="282.642063" xlink:href="#m0b12571f53" y="248.24645"/>
     <use style="fill:#d2d2d2;stroke:#d2d2d2;" x="284.867511" xlink:href="#m0b12571f53" y="309.466769"/>
     <use style="fill:#d2d2d2;stroke:#d2d2d2;" x="287.014856" xlink:href="#m0b12571f53" y="316.791129"/>
     <use style="fill:#d2d2d2;stroke:#d2d2d2;" x="289.089396" xlink:href="#m0b12571f53" y="306.616115"/>
     <use style="fill:#d2d2d2;stroke:#d2d2d2;" x="291.095906" xlink:href="#m0b12571f53" y="257.068037"/>
     <use style="fill:#d2d2d2;stroke:#d2d2d2;" x="293.038706" xlink:href="#m0b12571f53" y="262.582916"/>
     <use style="fill:#d2d2d2;stroke:#d2d2d2;" x="294.921718" xlink:href="#m0b12571f53" y="310.33941"/>
     <use style="fill:#d2d2d2;stroke:#d2d2d2;" x="296.748512" xlink:href="#m0b12571f53" y="271.661836"/>
     <use style="fill:#d2d2d2;stroke:#d2d2d2;" x="298.522348" xlink:href="#m0b12571f53" y="265.225475"/>
     <use style="fill:#d2d2d2;stroke:#d2d2d2;" x="300.24621" xlink:href="#m0b12571f53" y="281.541944"/>
     <use style="fill:#d2d2d2;stroke:#d2d2d2;" x="301.922838" xlink:href="#m0b12571f53" y="309.635816"/>
     <use style="fill:#d2d2d2;stroke:#d2d2d2;" x="303.554749" xlink:href="#m0b12571f53" y="293.997727"/>
     <use style="fill:#d2d2d2;stroke:#d2d2d2;" x="305.144269" xlink:href="#m0b12571f53" y="304.373851"/>
     <use style="fill:#d2d2d2;stroke:#d2d2d2;" x="306.693543" xlink:href="#m0b12571f53" y="282.213413"/>
     <use style="fill:#d2d2d2;stroke:#d2d2d2;" x="308.20456" xlink:href="#m0b12571f53" y="291.280617"/>
     <use style="fill:#d2d2d2;stroke:#d2d2d2;" x="309.679163" xlink:href="#m0b12571f53" y="283.428017"/>
     <use style="fill:#d2d2d2;stroke:#d2d2d2;" x="311.119066" xlink:href="#m0b12571f53" y="297.517056"/>
     <use style="fill:#d2d2d2;stroke:#d2d2d2;" x="312.525865" xlink:href="#m0b12571f53" y="299.787202"/>
     <use style="fill:#d2d2d2;stroke:#d2d2d2;" x="313.901048" xlink:href="#m0b12571f53" y="269.514644"/>
     <use style="fill:#d2d2d2;stroke:#d2d2d2;" x="315.246005" xlink:href="#m0b12571f53" y="276.952059"/>
     <use style="fill:#d2d2d2;stroke:#d2d2d2;" x="316.562035" xlink:href="#m0b12571f53" y="277.497432"/>
     <use style="fill:#d2d2d2;stroke:#d2d2d2;" x="317.850358" xlink:href="#m0b12571f53" y="281.883685"/>
     <use style="fill:#d2d2d2;stroke:#d2d2d2;" x="319.112115" xlink:href="#m0b12571f53" y="271.892624"/>
     <use style="fill:#d2d2d2;stroke:#d2d2d2;" x="320.348381" xlink:href="#m0b12571f53" y="271.545771"/>
     <use style="fill:#d2d2d2;stroke:#d2d2d2;" x="323.334" xlink:href="#m0b12571f53" y="297.089036"/>
     <use style="fill:#d2d2d2;stroke:#d2d2d2;" x="326.180703" xlink:href="#m0b12571f53" y="293.088407"/>
     <use style="fill:#d2d2d2;stroke:#d2d2d2;" x="328.900842" xlink:href="#m0b12571f53" y="300.262261"/>
     <use style="fill:#d2d2d2;stroke:#d2d2d2;" x="331.505195" xlink:href="#m0b12571f53" y="278.480185"/>
     <use style="fill:#d2d2d2;stroke:#d2d2d2;" x="334.003218" xlink:href="#m0b12571f53" y="302.78713"/>
     <use style="fill:#d2d2d2;stroke:#d2d2d2;" x="336.403254" xlink:href="#m0b12571f53" y="298.138308"/>
     <use style="fill:#d2d2d2;stroke:#d2d2d2;" x="338.7127" xlink:href="#m0b12571f53" y="311.827303"/>
     <use style="fill:#d2d2d2;stroke:#d2d2d2;" x="340.938148" xlink:href="#m0b12571f53" y="285.134777"/>
     <use style="fill:#d2d2d2;stroke:#d2d2d2;" x="343.085493" xlink:href="#m0b12571f53" y="272.342042"/>
     <use style="fill:#d2d2d2;stroke:#d2d2d2;" x="345.160033" xlink:href="#m0b12571f53" y="293.51758"/>
     <use style="fill:#d2d2d2;stroke:#d2d2d2;" x="347.166543" xlink:href="#m0b12571f53" y="276.218741"/>
     <use style="fill:#d2d2d2;stroke:#d2d2d2;" x="349.109343" xlink:href="#m0b12571f53" y="277.555136"/>
     <use style="fill:#d2d2d2;stroke:#d2d2d2;" x="350.992355" xlink:href="#m0b12571f53" y="272.765109"/>
     <use style="fill:#d2d2d2;stroke:#d2d2d2;" x="352.819149" xlink:href="#m0b12571f53" y="289.344653"/>
     <use style="fill:#d2d2d2;stroke:#d2d2d2;" x="354.592985" xlink:href="#m0b12571f53" y="288.690694"/>
     <use style="fill:#d2d2d2;stroke:#d2d2d2;" x="356.316848" xlink:href="#m0b12571f53" y="291.411018"/>
     <use style="fill:#d2d2d2;stroke:#d2d2d2;" x="357.993475" xlink:href="#m0b12571f53" y="297.045474"/>
     <use style="fill:#d2d2d2;stroke:#d2d2d2;" x="359.625387" xlink:href="#m0b12571f53" y="290.377218"/>
     <use style="fill:#d2d2d2;stroke:#d2d2d2;" x="361.214906" xlink:href="#m0b12571f53" y="294.68739"/>
     <use style="fill:#d2d2d2;stroke:#d2d2d2;" x="362.76418" xlink:href="#m0b12571f53" y="283.225101"/>
     <use style="fill:#d2d2d2;stroke:#d2d2d2;" x="364.275197" xlink:href="#m0b12571f53" y="286.315875"/>
     <use style="fill:#d2d2d2;stroke:#d2d2d2;" x="365.7498" xlink:href="#m0b12571f53" y="292.267985"/>
     <use style="fill:#d2d2d2;stroke:#d2d2d2;" x="367.189703" xlink:href="#m0b12571f53" y="297.852475"/>
     <use style="fill:#d2d2d2;stroke:#d2d2d2;" x="368.596502" xlink:href="#m0b12571f53" y="281.549693"/>
     <use style="fill:#d2d2d2;stroke:#d2d2d2;" x="369.971685" xlink:href="#m0b12571f53" y="282.508958"/>
     <use style="fill:#d2d2d2;stroke:#d2d2d2;" x="371.316642" xlink:href="#m0b12571f53" y="286.919157"/>
     <use style="fill:#d2d2d2;stroke:#d2d2d2;" x="372.632672" xlink:href="#m0b12571f53" y="279.822253"/>
     <use style="fill:#d2d2d2;stroke:#d2d2d2;" x="373.920995" xlink:href="#m0b12571f53" y="279.069051"/>
     <use style="fill:#d2d2d2;stroke:#d2d2d2;" x="375.182752" xlink:href="#m0b12571f53" y="290.248706"/>
     <use style="fill:#d2d2d2;stroke:#d2d2d2;" x="376.419018" xlink:href="#m0b12571f53" y="279.213571"/>
     <use style="fill:#d2d2d2;stroke:#d2d2d2;" x="382.25134" xlink:href="#m0b12571f53" y="284.429249"/>
     <use style="fill:#d2d2d2;stroke:#d2d2d2;" x="387.575833" xlink:href="#m0b12571f53" y="300.072476"/>
     <use style="fill:#d2d2d2;stroke:#d2d2d2;" x="392.473891" xlink:href="#m0b12571f53" y="289.115927"/>
     <use style="fill:#d2d2d2;stroke:#d2d2d2;" x="397.008785" xlink:href="#m0b12571f53" y="276.142492"/>
     <use style="fill:#d2d2d2;stroke:#d2d2d2;" x="401.23067" xlink:href="#m0b12571f53" y="290.36892"/>
     <use style="fill:#d2d2d2;stroke:#d2d2d2;" x="405.17998" xlink:href="#m0b12571f53" y="299.282641"/>
     <use style="fill:#d2d2d2;stroke:#d2d2d2;" x="408.889786" xlink:href="#m0b12571f53" y="296.877495"/>
     <use style="fill:#d2d2d2;stroke:#d2d2d2;" x="412.387485" xlink:href="#m0b12571f53" y="283.415481"/>
     <use style="fill:#d2d2d2;stroke:#d2d2d2;" x="415.696024" xlink:href="#m0b12571f53" y="288.3547"/>
     <use style="fill:#d2d2d2;stroke:#d2d2d2;" x="418.834817" xlink:href="#m0b12571f53" y="283.038919"/>
     <use style="fill:#d2d2d2;stroke:#d2d2d2;" x="421.820437" xlink:href="#m0b12571f53" y="286.255469"/>
     <use style="fill:#d2d2d2;stroke:#d2d2d2;" x="424.667139" xlink:href="#m0b12571f53" y="285.73876"/>
     <use style="fill:#d2d2d2;stroke:#d2d2d2;" x="427.387279" xlink:href="#m0b12571f53" y="291.09992"/>
     <use style="fill:#d2d2d2;stroke:#d2d2d2;" x="429.991632" xlink:href="#m0b12571f53" y="277.059747"/>
     <use style="fill:#d2d2d2;stroke:#d2d2d2;" x="432.489655" xlink:href="#m0b12571f53" y="287.389332"/>
     <use style="fill:#d2d2d2;stroke:#d2d2d2;" x="434.889691" xlink:href="#m0b12571f53" y="288.306526"/>
     <use style="fill:#d2d2d2;stroke:#d2d2d2;" x="437.199137" xlink:href="#m0b12571f53" y="290.348656"/>
     <use style="fill:#d2d2d2;stroke:#d2d2d2;" x="439.424584" xlink:href="#m0b12571f53" y="293.890659"/>
     <use style="fill:#d2d2d2;stroke:#d2d2d2;" x="441.57193" xlink:href="#m0b12571f53" y="286.15358"/>
     <use style="fill:#d2d2d2;stroke:#d2d2d2;" x="443.64647" xlink:href="#m0b12571f53" y="287.287384"/>
     <use style="fill:#d2d2d2;stroke:#d2d2d2;" x="445.652979" xlink:href="#m0b12571f53" y="284.424509"/>
     <use style="fill:#d2d2d2;stroke:#d2d2d2;" x="447.595779" xlink:href="#m0b12571f53" y="279.5665"/>
     <use style="fill:#d2d2d2;stroke:#d2d2d2;" x="449.478792" xlink:href="#m0b12571f53" y="282.024358"/>
     <use style="fill:#d2d2d2;stroke:#d2d2d2;" x="451.305586" xlink:href="#m0b12571f53" y="282.667774"/>
     <use style="fill:#d2d2d2;stroke:#d2d2d2;" x="453.079422" xlink:href="#m0b12571f53" y="291.112249"/>
     <use style="fill:#d2d2d2;stroke:#d2d2d2;" x="454.803284" xlink:href="#m0b12571f53" y="286.272838"/>
     <use style="fill:#d2d2d2;stroke:#d2d2d2;" x="456.479911" xlink:href="#m0b12571f53" y="286.950113"/>
     <use style="fill:#d2d2d2;stroke:#d2d2d2;" x="458.111823" xlink:href="#m0b12571f53" y="284.788213"/>
     <use style="fill:#d2d2d2;stroke:#d2d2d2;" x="459.701343" xlink:href="#m0b12571f53" y="290.207627"/>
     <use style="fill:#d2d2d2;stroke:#d2d2d2;" x="461.250617" xlink:href="#m0b12571f53" y="291.850438"/>
     <use style="fill:#d2d2d2;stroke:#d2d2d2;" x="462.761634" xlink:href="#m0b12571f53" y="289.312858"/>
     <use style="fill:#d2d2d2;stroke:#d2d2d2;" x="464.236237" xlink:href="#m0b12571f53" y="283.316328"/>
     <use style="fill:#d2d2d2;stroke:#d2d2d2;" x="465.67614" xlink:href="#m0b12571f53" y="290.110753"/>
     <use style="fill:#d2d2d2;stroke:#d2d2d2;" x="467.082939" xlink:href="#m0b12571f53" y="288.897419"/>
     <use style="fill:#d2d2d2;stroke:#d2d2d2;" x="468.458122" xlink:href="#m0b12571f53" y="283.717624"/>
     <use style="fill:#d2d2d2;stroke:#d2d2d2;" x="469.803078" xlink:href="#m0b12571f53" y="288.888733"/>
     <use style="fill:#d2d2d2;stroke:#d2d2d2;" x="471.119109" xlink:href="#m0b12571f53" y="285.84885"/>
     <use style="fill:#d2d2d2;stroke:#d2d2d2;" x="472.407432" xlink:href="#m0b12571f53" y="278.259012"/>
     <use style="fill:#d2d2d2;stroke:#d2d2d2;" x="473.669189" xlink:href="#m0b12571f53" y="283.298166"/>
     <use style="fill:#d2d2d2;stroke:#d2d2d2;" x="474.905455" xlink:href="#m0b12571f53" y="281.273653"/>
    </g>
   </g>
   <g id="line2d_62">
    <path clip-path="url(#pe84be7bf0b)" d="M 127.085314 264.914566 
L 130.583012 267.192754 
L 133.891551 277.365687 
L 137.030345 319.01981 
L 140.015965 333.919191 
L 142.862667 324.027246 
L 145.582806 321.614335 
L 148.18716 324.356338 
L 150.685183 301.53619 
L 153.085218 299.904831 
L 155.394664 294.905232 
L 157.620112 276.085505 
L 159.767457 268.915178 
L 161.841997 271.868015 
L 163.848507 272.629643 
L 167.674319 291.41113 
L 169.501113 292.482709 
L 171.27495 291.859502 
L 172.998812 284.457257 
L 174.675439 275.76052 
L 176.307351 258.808701 
L 177.89687 279.23892 
L 179.446145 268.354592 
L 180.957161 272.749539 
L 182.431764 265.212724 
L 183.871667 270.244254 
L 185.278466 275.776792 
L 186.653649 280.326988 
L 187.998606 294.904713 
L 189.314637 271.93106 
L 190.602959 278.389057 
L 191.864717 286.072153 
L 193.100982 287.073476 
L 197.810464 289.340655 
L 202.183257 288.478991 
L 206.264306 289.572105 
L 210.090119 283.60695 
L 213.690749 285.918607 
L 217.091239 282.870223 
L 220.31267 274.853871 
L 223.372961 274.874518 
L 226.287467 275.245958 
L 229.069449 273.437076 
L 231.730436 282.401635 
L 236.728565 282.577607 
L 239.082435 279.908883 
L 241.349104 282.385006 
L 243.534802 286.482243 
L 245.645117 278.021442 
L 247.685075 280.150841 
L 249.659216 273.972569 
L 251.571655 281.23086 
L 253.426132 280.750323 
L 255.226058 280.521575 
L 256.97455 279.842301 
L 258.674467 277.294951 
L 260.328434 281.493713 
L 261.938871 284.976228 
L 263.508009 283.053539 
L 265.037916 278.52742 
L 266.530503 283.146526 
L 267.98755 285.815873 
L 269.410709 291.395791 
L 270.80152 292.762563 
L 272.161422 289.542344 
L 273.491758 287.623247 
L 274.793787 291.424262 
L 276.068689 285.828496 
L 277.31757 284.336971 
L 280.332617 284.949555 
L 282.642063 276.020729 
L 284.867511 279.844283 
L 287.014856 287.724004 
L 289.089396 289.684854 
L 291.095906 285.109281 
L 293.038706 286.224697 
L 294.921718 288.011555 
L 296.748512 285.346583 
L 298.522348 287.468961 
L 300.24621 283.978358 
L 301.922838 283.083944 
L 303.554749 281.506645 
L 305.144269 287.419872 
L 306.693543 289.873684 
L 308.20456 287.491335 
L 309.679163 288.962107 
L 311.119066 292.998555 
L 312.525865 295.279212 
L 313.901048 290.264066 
L 315.246005 288.133357 
L 316.562035 284.773805 
L 317.850358 284.732589 
L 319.112115 282.30909 
L 320.348381 280.823809 
L 323.334 280.770307 
L 326.180703 279.932957 
L 328.900842 283.776409 
L 331.505195 283.967425 
L 334.003218 287.128637 
L 336.403254 289.160465 
L 338.7127 294.1523 
L 340.938148 295.850926 
L 343.085493 292.757551 
L 345.160033 292.811198 
L 347.166543 289.805758 
L 349.109343 289.690127 
L 350.992355 285.937374 
L 352.819149 284.838168 
L 354.592985 281.946091 
L 356.316848 282.730622 
L 357.993475 285.818551 
L 359.625387 285.426005 
L 361.214906 287.734587 
L 362.76418 288.443332 
L 364.275197 290.137178 
L 365.7498 290.502594 
L 367.189703 291.647817 
L 368.596502 290.415151 
L 369.971685 288.598087 
L 371.316642 288.165829 
L 372.632672 286.307687 
L 373.920995 285.788181 
L 375.182752 286.279785 
L 376.419018 284.647983 
L 382.25134 282.97008 
L 387.575833 285.285428 
L 392.473891 286.111299 
L 397.008785 284.764216 
L 401.23067 286.082549 
L 405.17998 288.609248 
L 408.889786 289.437846 
L 415.696024 290.453766 
L 418.834817 288.324572 
L 421.820437 287.967014 
L 424.667139 289.166548 
L 427.387279 289.257923 
L 429.991632 286.480061 
L 432.489655 285.294041 
L 434.889691 285.905421 
L 437.199137 286.154666 
L 439.424584 287.511134 
L 441.57193 287.498398 
L 443.64647 287.691976 
L 445.652979 286.857549 
L 447.595779 287.170893 
L 451.305586 285.795428 
L 453.079422 285.890877 
L 454.803284 284.938649 
L 456.479911 285.038216 
L 458.111823 284.725819 
L 459.701343 285.448709 
L 461.250617 286.984201 
L 462.761634 287.895264 
L 464.236237 287.976333 
L 465.67614 287.851146 
L 467.082939 288.179219 
L 468.458122 287.775158 
L 469.803078 288.287723 
L 471.119109 287.742875 
L 472.407432 286.043947 
L 473.669189 285.292111 
L 474.905455 285.036776 
L 474.905455 285.036776 
" style="fill:none;stroke:#5bc0de;stroke-linecap:square;stroke-width:1.5;"/>
   </g>
   <g id="line2d_63">
    <path clip-path="url(#pe84be7bf0b)" d="M 75.6 302.4 
L 493.92 302.4 
" style="fill:none;stroke:#d2d2d2;stroke-dasharray:2.2,2.2;stroke-dashoffset:0;stroke-width:1.5;"/>
   </g>
   <g id="patch_5">
    <path d="M 75.6 388.8 
L 75.6 216 
" style="fill:none;stroke:#d2d2d2;stroke-linecap:square;stroke-linejoin:miter;"/>
   </g>
   <g id="patch_6">
    <path d="M 75.6 388.8 
L 493.92 388.8 
" style="fill:none;stroke:#d2d2d2;stroke-linecap:square;stroke-linejoin:miter;"/>
   </g>
  </g>
 </g>
 <defs>
  <clipPath id="p5a4edc1634">
   <rect height="172.8" width="418.32" x="75.6" y="8.64"/>
  </clipPath>
  <clipPath id="pe84be7bf0b">
   <rect height="172.8" width="418.32" x="75.6" y="216"/>
  </clipPath>
 </defs>
</svg>
