<?xml version="1.0" encoding="utf-8"?>
<!-- Generator: Adobe Illustrator 16.0.4, SVG Export Plug-In . SVG Version: 6.00 Build 0)  -->
<!DOCTYPE svg PUBLIC "-//W3C//DTD SVG 1.1//EN" "http://www.w3.org/Graphics/SVG/1.1/DTD/svg11.dtd">
<svg version="1.1" xmlns="http://www.w3.org/2000/svg" xmlns:xlink="http://www.w3.org/1999/xlink" x="0px" y="0px" width="252px"
	 height="129.6px" viewBox="0 0 252 129.6" enable-background="new 0 0 252 129.6" xml:space="preserve">
<g id="layer1">
	<g>
		<g>
			<path fill="#636C72" d="M103.948,104.815c0,0,2.646,0.137,6.613,0.34c1.983,0.1,4.298,0.215,6.777,0.339
				c2.48,0.106,5.125,0.222,7.772,0.335c2.644,0.122,5.29,0.244,7.77,0.357c2.478,0.141,4.793,0.227,6.78,0.23
				c3.973-0.008,6.621-0.138,6.621-0.138l0.029-1.528c0,0-2.643-0.229-6.611-0.389c-1.984-0.07-4.301-0.072-6.784-0.027
				c-2.484,0.021-5.13,0.044-7.779,0.064c-2.648,0.016-5.294,0.029-7.777,0.042c-2.482,0.03-4.799,0.059-6.785,0.083
				c-3.973,0.053-6.623,0.09-6.623,0.09L103.948,104.815z"/>
			<g>
				<polygon fill="#636C72" points="153.355,105.649 143.484,101.397 145.77,105.507 143.332,109.526 				"/>
			</g>
		</g>
	</g>
	<g>
		<g>
			<path fill="#636C72" d="M152.763,47.319c0,0,1.891,1.854,4.729,4.635c1.42,1.388,3.078,3.008,4.854,4.742
				c1.789,1.723,3.693,3.561,5.602,5.399c1.9,1.842,3.803,3.686,5.586,5.412c1.764,1.746,3.441,3.346,4.926,4.662
				c2.982,2.625,5.055,4.283,5.055,4.283l1.033-1.127c0,0-1.828-1.922-4.697-4.67c-1.439-1.365-3.174-2.9-5.064-4.512
				c-1.875-1.629-3.873-3.365-5.871-5.104c-1.994-1.742-3.986-3.485-5.855-5.12c-1.879-1.621-3.635-3.135-5.139-4.432
				c-3.012-2.592-5.021-4.318-5.021-4.318L152.763,47.319z"/>
			<g>
				<polygon fill="#636C72" points="189.229,80.665 184.649,70.942 183.64,75.532 179.151,76.931 				"/>
			</g>
		</g>
	</g>
	<g>
		<g>
			<path fill="#636C72" d="M99.142,47.319c0,0-1.891,1.854-4.729,4.635c-1.42,1.388-3.078,3.008-4.854,4.742
				c-1.789,1.723-3.693,3.561-5.602,5.399c-1.9,1.842-3.803,3.686-5.586,5.412c-1.764,1.746-3.441,3.346-4.926,4.662
				c-2.982,2.625-5.055,4.283-5.055,4.283l-1.033-1.127c0,0,1.828-1.922,4.697-4.67c1.439-1.365,3.174-2.9,5.064-4.512
				c1.875-1.629,3.873-3.365,5.871-5.104c1.994-1.742,3.986-3.485,5.855-5.12c1.879-1.621,3.635-3.135,5.139-4.432
				c3.012-2.592,5.021-4.318,5.021-4.318L99.142,47.319z"/>
			<g>
				<polygon fill="#636C72" points="62.675,80.665 67.255,70.942 68.265,75.532 72.753,76.931 				"/>
			</g>
		</g>
	</g>
	<g>
		<g>
			<path fill="#5BC0DE" d="M25.145,101.202v0.932h-5.62v-8.278h5.515v0.933h-4.466v2.682h3.883v0.875h-3.883v2.857H25.145z"/>
			<path fill="#5BC0DE" d="M26.812,96.048l1.667,2.238l0.094,0.188l0.104-0.188l1.656-2.238h1.084l-2.273,3.055l2.285,3.031h-1.085
				l-1.667-2.227l-0.104-0.175l-0.094,0.175l-1.667,2.227h-1.085l2.285-3.031l-2.273-3.055H26.812z"/>
			<path fill="#5BC0DE" d="M35.674,102.251c-0.506,0-0.95-0.125-1.335-0.373c-0.385-0.249-0.69-0.563-0.916-0.945v3.686h-1.025
				v-8.57h0.909v1.143c0.241-0.373,0.554-0.674,0.938-0.904c0.385-0.229,0.811-0.344,1.277-0.344c0.419,0,0.804,0.086,1.154,0.257
				c0.35,0.171,0.652,0.402,0.909,0.694c0.257,0.291,0.456,0.627,0.601,1.008c0.144,0.381,0.216,0.777,0.216,1.189
				c0,0.436-0.066,0.846-0.198,1.23c-0.133,0.385-0.319,0.719-0.56,1.002c-0.241,0.285-0.529,0.51-0.863,0.677
				S36.078,102.251,35.674,102.251z M35.358,101.364c0.304,0,0.577-0.063,0.822-0.191c0.245-0.129,0.455-0.3,0.63-0.514
				c0.175-0.213,0.309-0.457,0.402-0.729c0.093-0.271,0.14-0.552,0.14-0.84c0-0.303-0.055-0.592-0.163-0.869
				c-0.109-0.275-0.257-0.516-0.443-0.723c-0.187-0.205-0.406-0.369-0.658-0.489c-0.253-0.12-0.527-0.181-0.822-0.181
				c-0.187,0-0.379,0.037-0.577,0.111c-0.198,0.073-0.385,0.17-0.56,0.291s-0.327,0.264-0.455,0.432
				c-0.128,0.167-0.212,0.344-0.251,0.53v1.737c0.086,0.202,0.194,0.391,0.327,0.565c0.132,0.175,0.283,0.327,0.454,0.454
				c0.171,0.129,0.354,0.23,0.549,0.304C34.946,101.328,35.149,101.364,35.358,101.364z"/>
			<path fill="#5BC0DE" d="M39.685,93.622h1.025v6.938c0,0.227,0.061,0.402,0.181,0.531c0.121,0.128,0.29,0.192,0.508,0.192
				c0.085,0,0.187-0.014,0.303-0.041c0.117-0.026,0.226-0.06,0.327-0.099l0.163,0.828c-0.172,0.069-0.373,0.127-0.606,0.174
				s-0.439,0.07-0.618,0.07c-0.396,0-0.709-0.112-0.938-0.338s-0.344-0.541-0.344-0.945V93.622z"/>
			<path fill="#5BC0DE" d="M44.559,102.251c-0.288,0-0.557-0.049-0.805-0.146c-0.249-0.097-0.465-0.23-0.647-0.402
				c-0.183-0.17-0.326-0.371-0.432-0.6c-0.104-0.229-0.157-0.48-0.157-0.752c0-0.28,0.062-0.535,0.187-0.764
				c0.124-0.229,0.302-0.426,0.53-0.59c0.229-0.162,0.502-0.291,0.816-0.385c0.315-0.093,0.659-0.139,1.032-0.139
				c0.295,0,0.595,0.027,0.897,0.081c0.304,0.055,0.571,0.128,0.805,0.222v-0.49c0-0.497-0.14-0.888-0.42-1.172
				c-0.279-0.283-0.676-0.426-1.189-0.426c-0.613,0-1.259,0.238-1.936,0.712l-0.338-0.665c0.785-0.528,1.574-0.793,2.367-0.793
				c0.801,0,1.425,0.215,1.871,0.642c0.447,0.428,0.671,1.03,0.671,1.808v2.483c0,0.241,0.108,0.365,0.326,0.373v0.886
				c-0.108,0.016-0.198,0.027-0.268,0.035c-0.07,0.008-0.145,0.012-0.222,0.012c-0.202,0-0.363-0.061-0.484-0.181
				c-0.12-0.12-0.192-0.267-0.216-0.437l-0.023-0.432c-0.271,0.365-0.615,0.643-1.031,0.834
				C45.478,102.155,45.032,102.251,44.559,102.251z M44.826,101.481c0.365,0,0.706-0.068,1.021-0.204s0.554-0.317,0.717-0.542
				c0.147-0.148,0.222-0.299,0.222-0.455v-0.898c-0.497-0.193-1.015-0.291-1.551-0.291c-0.513,0-0.931,0.109-1.253,0.326
				c-0.323,0.219-0.484,0.502-0.484,0.852c0,0.172,0.033,0.33,0.1,0.479c0.065,0.147,0.159,0.275,0.279,0.385
				c0.121,0.108,0.263,0.193,0.426,0.256S44.64,101.481,44.826,101.481z"/>
			<path fill="#5BC0DE" d="M54.736,102.134h-1.025v-3.404c0-0.652-0.1-1.127-0.298-1.422c-0.198-0.296-0.499-0.443-0.903-0.443
				c-0.21,0-0.42,0.041-0.63,0.122s-0.408,0.192-0.595,0.333c-0.187,0.139-0.35,0.307-0.489,0.501s-0.245,0.407-0.315,0.642v3.672
				h-1.025v-6.086h0.933v1.306c0.241-0.427,0.589-0.77,1.044-1.026c0.454-0.256,0.95-0.385,1.486-0.385
				c0.35,0,0.642,0.064,0.874,0.193c0.233,0.128,0.42,0.307,0.56,0.535c0.141,0.23,0.239,0.5,0.298,0.811
				c0.059,0.312,0.087,0.649,0.087,1.016V102.134z"/>
			<path fill="#5BC0DE" d="M57.897,102.251c-0.288,0-0.557-0.049-0.805-0.146c-0.249-0.097-0.465-0.23-0.647-0.402
				c-0.183-0.17-0.326-0.371-0.432-0.6c-0.104-0.229-0.157-0.48-0.157-0.752c0-0.28,0.062-0.535,0.187-0.764
				c0.124-0.229,0.302-0.426,0.53-0.59c0.229-0.162,0.502-0.291,0.816-0.385c0.315-0.093,0.659-0.139,1.032-0.139
				c0.295,0,0.595,0.027,0.897,0.081c0.304,0.055,0.571,0.128,0.805,0.222v-0.49c0-0.497-0.14-0.888-0.42-1.172
				c-0.279-0.283-0.676-0.426-1.189-0.426c-0.613,0-1.259,0.238-1.936,0.712l-0.338-0.665c0.785-0.528,1.574-0.793,2.367-0.793
				c0.801,0,1.425,0.215,1.871,0.642c0.447,0.428,0.671,1.03,0.671,1.808v2.483c0,0.241,0.108,0.365,0.326,0.373v0.886
				c-0.108,0.016-0.198,0.027-0.268,0.035c-0.07,0.008-0.145,0.012-0.222,0.012c-0.202,0-0.363-0.061-0.484-0.181
				c-0.12-0.12-0.192-0.267-0.216-0.437l-0.023-0.432c-0.271,0.365-0.615,0.643-1.031,0.834
				C58.816,102.155,58.371,102.251,57.897,102.251z M58.165,101.481c0.365,0,0.706-0.068,1.021-0.204s0.554-0.317,0.717-0.542
				c0.147-0.148,0.222-0.299,0.222-0.455v-0.898c-0.497-0.193-1.015-0.291-1.551-0.291c-0.513,0-0.931,0.109-1.253,0.326
				c-0.323,0.219-0.484,0.502-0.484,0.852c0,0.172,0.033,0.33,0.1,0.479c0.065,0.147,0.159,0.275,0.279,0.385
				c0.121,0.108,0.263,0.193,0.426,0.256S57.979,101.481,58.165,101.481z"/>
			<path fill="#5BC0DE" d="M65.895,101.831c-0.062,0.031-0.144,0.068-0.244,0.111c-0.102,0.043-0.216,0.085-0.344,0.128
				c-0.129,0.042-0.269,0.077-0.42,0.104c-0.152,0.027-0.31,0.041-0.473,0.041c-0.373,0-0.695-0.104-0.968-0.309
				c-0.272-0.206-0.408-0.527-0.408-0.963v-4.092H62.21v-0.805h0.828v-2.029h1.026v2.029h1.364v0.805h-1.364v3.777
				c0.016,0.226,0.089,0.389,0.222,0.49c0.132,0.102,0.287,0.151,0.466,0.151c0.202,0,0.387-0.033,0.555-0.099
				c0.167-0.066,0.281-0.119,0.344-0.158L65.895,101.831z"/>
			<path fill="#5BC0DE" d="M69.429,102.251c-0.459,0-0.877-0.086-1.254-0.257s-0.699-0.399-0.968-0.688
				c-0.268-0.288-0.476-0.622-0.623-1.003c-0.148-0.381-0.222-0.781-0.222-1.201c0-0.428,0.075-0.832,0.228-1.213
				c0.151-0.381,0.361-0.715,0.629-1.002c0.269-0.288,0.591-0.518,0.968-0.688s0.791-0.257,1.242-0.257s0.866,0.086,1.248,0.257
				c0.38,0.171,0.705,0.4,0.974,0.688c0.268,0.287,0.478,0.621,0.629,1.002c0.152,0.381,0.228,0.785,0.228,1.213
				c0,0.42-0.074,0.82-0.222,1.201s-0.357,0.715-0.629,1.003c-0.272,0.288-0.597,0.517-0.974,0.688
				C70.305,102.165,69.888,102.251,69.429,102.251z M67.411,99.114c0,0.318,0.053,0.614,0.158,0.887
				c0.104,0.271,0.248,0.509,0.431,0.711s0.396,0.361,0.642,0.479c0.245,0.116,0.507,0.174,0.787,0.174s0.542-0.058,0.787-0.174
				c0.245-0.117,0.461-0.278,0.647-0.484s0.332-0.447,0.437-0.723c0.105-0.276,0.158-0.574,0.158-0.893
				c0-0.311-0.053-0.604-0.158-0.881c-0.104-0.275-0.25-0.516-0.437-0.723c-0.187-0.205-0.402-0.367-0.647-0.483
				s-0.507-0.175-0.787-0.175s-0.542,0.061-0.787,0.181S68.183,97.294,68,97.499c-0.183,0.207-0.326,0.447-0.431,0.723
				C67.464,98.499,67.411,98.796,67.411,99.114z"/>
			<path fill="#5BC0DE" d="M76.973,96.946c-0.513,0.016-0.966,0.146-1.358,0.396s-0.67,0.595-0.834,1.038v3.754h-1.025v-6.086h0.956
				v1.41c0.21-0.419,0.485-0.76,0.828-1.02c0.342-0.26,0.707-0.406,1.096-0.438c0.077,0,0.144,0,0.198,0
				c0.054,0,0.101,0.004,0.14,0.012V96.946z"/>
			<path fill="#5BC0DE" d="M78.267,103.79c0.102,0.016,0.202,0.027,0.304,0.035c0.101,0.008,0.179,0.012,0.233,0.012
				c0.093,0,0.176-0.021,0.25-0.064s0.147-0.127,0.222-0.25c0.074-0.125,0.157-0.298,0.251-0.52c0.093-0.222,0.21-0.512,0.35-0.869
				l-2.577-6.086h1.062l2.075,5.166l1.889-5.166h0.979l-2.961,7.684c-0.109,0.272-0.29,0.512-0.543,0.717
				c-0.252,0.207-0.601,0.31-1.043,0.31c-0.07,0-0.143-0.004-0.216-0.012c-0.074-0.008-0.165-0.023-0.274-0.046V103.79z"/>
			<path fill="#5BC0DE" d="M31.732,116.134l-2.402-6.086h1.062l1.924,5.188l1.936-5.188h0.979l-2.402,6.086H31.732z"/>
			<path fill="#5BC0DE" d="M37.656,116.251c-0.288,0-0.557-0.049-0.805-0.146c-0.249-0.097-0.465-0.23-0.647-0.402
				c-0.183-0.17-0.326-0.371-0.432-0.6c-0.104-0.229-0.157-0.48-0.157-0.752c0-0.28,0.062-0.535,0.187-0.764
				c0.124-0.229,0.302-0.426,0.53-0.59c0.229-0.162,0.502-0.291,0.816-0.385c0.315-0.093,0.659-0.139,1.032-0.139
				c0.295,0,0.595,0.027,0.897,0.081c0.304,0.055,0.571,0.128,0.805,0.222v-0.49c0-0.497-0.14-0.888-0.42-1.172
				c-0.279-0.283-0.676-0.426-1.189-0.426c-0.613,0-1.259,0.238-1.936,0.712L36,110.735c0.785-0.528,1.574-0.793,2.367-0.793
				c0.801,0,1.425,0.215,1.871,0.642c0.447,0.428,0.671,1.03,0.671,1.808v2.483c0,0.241,0.108,0.365,0.326,0.373v0.886
				c-0.108,0.016-0.198,0.027-0.268,0.035c-0.07,0.008-0.145,0.012-0.222,0.012c-0.202,0-0.363-0.061-0.484-0.181
				c-0.12-0.12-0.192-0.267-0.216-0.437l-0.023-0.432c-0.271,0.365-0.615,0.643-1.031,0.834
				C38.575,116.155,38.13,116.251,37.656,116.251z M37.924,115.481c0.365,0,0.706-0.068,1.021-0.204s0.554-0.317,0.717-0.542
				c0.147-0.148,0.222-0.299,0.222-0.455v-0.898c-0.497-0.193-1.015-0.291-1.551-0.291c-0.513,0-0.931,0.109-1.253,0.326
				c-0.323,0.219-0.484,0.502-0.484,0.852c0,0.172,0.033,0.33,0.1,0.479c0.065,0.147,0.159,0.275,0.279,0.385
				c0.121,0.108,0.263,0.193,0.426,0.256S37.737,115.481,37.924,115.481z"/>
			<path fill="#5BC0DE" d="M45.771,110.946c-0.513,0.016-0.966,0.146-1.358,0.396s-0.67,0.595-0.834,1.038v3.754h-1.025v-6.086
				h0.956v1.41c0.21-0.419,0.485-0.76,0.828-1.02c0.342-0.26,0.707-0.406,1.096-0.438c0.077,0,0.144,0,0.198,0
				c0.054,0,0.101,0.004,0.14,0.012V110.946z"/>
			<path fill="#5BC0DE" d="M46.785,108.905v-1.283h1.025v1.283H46.785z M46.785,116.134v-6.086h1.025v6.086H46.785z"/>
			<path fill="#5BC0DE" d="M51.029,116.251c-0.288,0-0.557-0.049-0.805-0.146c-0.249-0.097-0.465-0.23-0.647-0.402
				c-0.183-0.17-0.326-0.371-0.432-0.6c-0.104-0.229-0.157-0.48-0.157-0.752c0-0.28,0.062-0.535,0.187-0.764
				c0.124-0.229,0.302-0.426,0.53-0.59c0.229-0.162,0.502-0.291,0.816-0.385c0.315-0.093,0.659-0.139,1.032-0.139
				c0.295,0,0.595,0.027,0.897,0.081c0.304,0.055,0.571,0.128,0.805,0.222v-0.49c0-0.497-0.14-0.888-0.42-1.172
				c-0.279-0.283-0.676-0.426-1.189-0.426c-0.613,0-1.259,0.238-1.936,0.712l-0.338-0.665c0.785-0.528,1.574-0.793,2.367-0.793
				c0.801,0,1.425,0.215,1.871,0.642c0.447,0.428,0.671,1.03,0.671,1.808v2.483c0,0.241,0.108,0.365,0.326,0.373v0.886
				c-0.108,0.016-0.198,0.027-0.268,0.035c-0.07,0.008-0.145,0.012-0.222,0.012c-0.202,0-0.363-0.061-0.484-0.181
				c-0.12-0.12-0.192-0.267-0.216-0.437l-0.023-0.432c-0.271,0.365-0.615,0.643-1.031,0.834
				C51.948,116.155,51.503,116.251,51.029,116.251z M51.297,115.481c0.365,0,0.706-0.068,1.021-0.204s0.554-0.317,0.717-0.542
				c0.147-0.148,0.222-0.299,0.222-0.455v-0.898c-0.497-0.193-1.015-0.291-1.551-0.291c-0.513,0-0.931,0.109-1.253,0.326
				c-0.323,0.219-0.484,0.502-0.484,0.852c0,0.172,0.033,0.33,0.1,0.479c0.065,0.147,0.159,0.275,0.279,0.385
				c0.121,0.108,0.263,0.193,0.426,0.256S51.11,115.481,51.297,115.481z"/>
			<path fill="#5BC0DE" d="M59.052,116.251c-0.475,0-0.906-0.117-1.295-0.35c-0.389-0.233-0.695-0.537-0.921-0.91v1.143h-0.909
				v-8.512h1.025v3.639c0.257-0.396,0.571-0.715,0.945-0.957c0.373-0.24,0.808-0.361,1.306-0.361c0.42,0,0.797,0.09,1.131,0.269
				s0.62,0.414,0.857,0.706c0.236,0.291,0.419,0.629,0.548,1.014c0.128,0.385,0.192,0.779,0.192,1.184
				c0,0.428-0.074,0.832-0.222,1.213s-0.35,0.713-0.606,0.996c-0.257,0.285-0.562,0.51-0.915,0.677
				C59.834,116.167,59.455,116.251,59.052,116.251z M58.795,115.364c0.303,0,0.583-0.062,0.84-0.186
				c0.256-0.125,0.478-0.292,0.664-0.502s0.33-0.449,0.432-0.717c0.101-0.269,0.151-0.551,0.151-0.846s-0.049-0.581-0.146-0.857
				c-0.098-0.275-0.233-0.519-0.408-0.729c-0.175-0.209-0.385-0.379-0.63-0.507c-0.244-0.128-0.515-0.192-0.811-0.192
				c-0.217,0-0.423,0.039-0.617,0.117c-0.194,0.077-0.375,0.18-0.543,0.309c-0.167,0.128-0.314,0.277-0.442,0.449
				c-0.129,0.17-0.239,0.354-0.333,0.547v1.762c0.039,0.193,0.123,0.373,0.251,0.535c0.128,0.164,0.28,0.306,0.455,0.426
				c0.175,0.121,0.361,0.217,0.56,0.286S58.608,115.364,58.795,115.364z"/>
			<path fill="#5BC0DE" d="M63.214,107.622h1.025v6.938c0,0.227,0.061,0.402,0.181,0.531c0.121,0.128,0.29,0.192,0.508,0.192
				c0.085,0,0.187-0.014,0.303-0.041c0.117-0.026,0.226-0.06,0.327-0.099l0.163,0.828c-0.172,0.069-0.373,0.127-0.606,0.174
				s-0.439,0.07-0.618,0.07c-0.396,0-0.709-0.112-0.938-0.338s-0.344-0.541-0.344-0.945V107.622z"/>
			<path fill="#5BC0DE" d="M69.219,116.251c-0.459,0-0.879-0.084-1.26-0.251s-0.707-0.394-0.979-0.683
				c-0.271-0.287-0.483-0.623-0.635-1.008c-0.152-0.385-0.228-0.791-0.228-1.219s0.075-0.832,0.228-1.213
				c0.151-0.381,0.365-0.715,0.641-1.002c0.276-0.288,0.604-0.516,0.985-0.683s0.801-0.251,1.26-0.251
				c0.458,0,0.876,0.086,1.253,0.257s0.698,0.398,0.962,0.683c0.265,0.283,0.469,0.613,0.612,0.99s0.216,0.768,0.216,1.172
				c0,0.086-0.002,0.164-0.006,0.233c-0.004,0.07-0.01,0.124-0.018,0.163h-5.049c0.023,0.304,0.094,0.58,0.21,0.828
				c0.117,0.249,0.269,0.463,0.455,0.642s0.398,0.319,0.636,0.419c0.236,0.102,0.487,0.152,0.752,0.152
				c0.187,0,0.369-0.025,0.548-0.076s0.346-0.118,0.501-0.203c0.155-0.086,0.294-0.191,0.414-0.315s0.212-0.265,0.274-0.42
				l0.886,0.245c-0.101,0.226-0.239,0.432-0.414,0.617c-0.175,0.188-0.377,0.349-0.606,0.484c-0.229,0.137-0.483,0.243-0.764,0.32
				C69.813,116.212,69.521,116.251,69.219,116.251z M71.306,112.683c-0.023-0.287-0.096-0.554-0.216-0.799
				c-0.12-0.244-0.272-0.452-0.454-0.623c-0.184-0.172-0.396-0.305-0.636-0.402c-0.241-0.098-0.498-0.146-0.77-0.146
				c-0.272,0-0.529,0.049-0.77,0.146c-0.241,0.098-0.453,0.232-0.636,0.408c-0.183,0.174-0.33,0.383-0.443,0.623
				c-0.112,0.241-0.181,0.506-0.204,0.793H71.306z"/>
		</g>
		<path fill="none" stroke="#5BC0DE" stroke-width="2" d="M92.419,105.462c0,10.6-8.593,19.192-19.192,19.192H28.611
			c-10.6,0-19.192-8.593-19.192-19.192l0,0c0-10.6,8.593-19.193,19.192-19.193h44.615C83.826,86.269,92.419,94.862,92.419,105.462
			L92.419,105.462z"/>
	</g>
	<g>
		<g>
			<path fill="#D9534F" d="M93.724,15.048c0-0.497,0.087-0.993,0.263-1.486c0.175-0.494,0.431-0.937,0.77-1.33
				c0.338-0.392,0.752-0.709,1.242-0.95c0.49-0.241,1.044-0.361,1.667-0.361c0.738,0,1.371,0.167,1.9,0.501
				c0.529,0.334,0.922,0.77,1.178,1.306l-0.828,0.537C99.79,13,99.642,12.779,99.466,12.6c-0.174-0.179-0.365-0.323-0.57-0.432
				c-0.207-0.109-0.418-0.187-0.637-0.233c-0.217-0.046-0.432-0.07-0.641-0.07c-0.459,0-0.865,0.095-1.219,0.286
				s-0.651,0.439-0.892,0.747c-0.241,0.307-0.422,0.653-0.542,1.038s-0.181,0.771-0.181,1.16c0,0.436,0.072,0.849,0.216,1.242
				s0.344,0.74,0.601,1.043s0.56,0.544,0.91,0.723s0.73,0.268,1.143,0.268c0.217,0,0.441-0.027,0.67-0.082
				c0.23-0.054,0.449-0.142,0.66-0.262c0.209-0.121,0.404-0.272,0.588-0.455c0.182-0.183,0.332-0.402,0.449-0.659l0.875,0.478
				c-0.133,0.311-0.318,0.585-0.555,0.822c-0.236,0.237-0.506,0.437-0.805,0.6c-0.299,0.164-0.615,0.288-0.949,0.374
				c-0.336,0.085-0.662,0.128-0.98,0.128c-0.568,0-1.088-0.124-1.562-0.373c-0.474-0.249-0.884-0.573-1.23-0.974
				s-0.614-0.855-0.805-1.364C93.819,16.096,93.724,15.577,93.724,15.048z"/>
			<path fill="#D9534F" d="M104.707,19.363c-0.459,0-0.877-0.086-1.254-0.257s-0.699-0.4-0.968-0.688
				c-0.268-0.288-0.476-0.622-0.623-1.003c-0.148-0.381-0.222-0.781-0.222-1.201c0-0.427,0.075-0.832,0.228-1.212
				c0.151-0.381,0.361-0.715,0.629-1.003c0.269-0.288,0.591-0.517,0.968-0.688c0.377-0.171,0.791-0.256,1.242-0.256
				s0.866,0.085,1.248,0.256c0.38,0.171,0.705,0.4,0.974,0.688c0.268,0.288,0.478,0.622,0.629,1.003
				c0.152,0.381,0.228,0.785,0.228,1.212c0,0.42-0.074,0.82-0.222,1.201s-0.357,0.715-0.629,1.003
				c-0.272,0.288-0.597,0.517-0.974,0.688C105.583,19.277,105.166,19.363,104.707,19.363z M102.689,16.226
				c0,0.319,0.053,0.614,0.158,0.886c0.104,0.272,0.248,0.509,0.431,0.711s0.396,0.361,0.642,0.478s0.507,0.175,0.787,0.175
				s0.542-0.058,0.787-0.175s0.461-0.278,0.647-0.484s0.332-0.447,0.437-0.723c0.105-0.276,0.158-0.573,0.158-0.892
				c0-0.311-0.053-0.604-0.158-0.88c-0.104-0.275-0.25-0.517-0.437-0.723s-0.402-0.367-0.647-0.484s-0.507-0.175-0.787-0.175
				s-0.542,0.06-0.787,0.181s-0.459,0.284-0.642,0.49s-0.326,0.447-0.431,0.723C102.742,15.61,102.689,15.908,102.689,16.226z"/>
			<path fill="#D9534F" d="M114.314,19.246h-1.025v-3.405c0-0.653-0.1-1.127-0.298-1.422s-0.499-0.443-0.903-0.443
				c-0.21,0-0.42,0.041-0.63,0.123s-0.408,0.192-0.595,0.333c-0.187,0.14-0.35,0.307-0.489,0.501s-0.245,0.408-0.315,0.641v3.673
				h-1.025V13.16h0.933v1.306c0.241-0.427,0.589-0.77,1.044-1.026c0.454-0.256,0.95-0.385,1.486-0.385
				c0.35,0,0.642,0.064,0.874,0.192c0.233,0.128,0.42,0.307,0.56,0.536c0.141,0.229,0.239,0.5,0.298,0.811s0.087,0.649,0.087,1.015
				V19.246z"/>
			<path fill="#D9534F" d="M116.181,19.246v-5.282h-0.828V13.16h0.828v-0.128c0-0.754,0.167-1.345,0.501-1.772
				c0.335-0.427,0.789-0.641,1.364-0.641c0.241,0,0.479,0.033,0.712,0.099s0.442,0.157,0.63,0.274l-0.257,0.758
				c-0.109-0.078-0.243-0.14-0.402-0.187c-0.159-0.046-0.317-0.07-0.473-0.07c-0.342,0-0.603,0.128-0.781,0.385
				s-0.268,0.63-0.268,1.119v0.164h1.62v0.805h-1.62v5.282H116.181z"/>
			<path fill="#D9534F" d="M122.372,19.363c-0.459,0-0.877-0.086-1.254-0.257s-0.699-0.4-0.968-0.688
				c-0.268-0.288-0.476-0.622-0.623-1.003c-0.148-0.381-0.222-0.781-0.222-1.201c0-0.427,0.075-0.832,0.228-1.212
				c0.151-0.381,0.361-0.715,0.629-1.003c0.269-0.288,0.591-0.517,0.968-0.688c0.377-0.171,0.791-0.256,1.242-0.256
				s0.866,0.085,1.248,0.256c0.38,0.171,0.705,0.4,0.974,0.688c0.268,0.288,0.478,0.622,0.629,1.003
				c0.152,0.381,0.228,0.785,0.228,1.212c0,0.42-0.074,0.82-0.222,1.201s-0.357,0.715-0.629,1.003
				c-0.272,0.288-0.597,0.517-0.974,0.688C123.248,19.277,122.831,19.363,122.372,19.363z M120.354,16.226
				c0,0.319,0.053,0.614,0.158,0.886c0.104,0.272,0.248,0.509,0.431,0.711s0.396,0.361,0.642,0.478s0.507,0.175,0.787,0.175
				s0.542-0.058,0.787-0.175s0.461-0.278,0.647-0.484s0.332-0.447,0.437-0.723c0.105-0.276,0.158-0.573,0.158-0.892
				c0-0.311-0.053-0.604-0.158-0.88c-0.104-0.275-0.25-0.517-0.437-0.723s-0.402-0.367-0.647-0.484s-0.507-0.175-0.787-0.175
				s-0.542,0.06-0.787,0.181s-0.459,0.284-0.642,0.49s-0.326,0.447-0.431,0.723C120.407,15.61,120.354,15.908,120.354,16.226z"/>
			<path fill="#D9534F" d="M128.575,19.363c-0.638,0-1.119-0.214-1.445-0.642c-0.327-0.427-0.49-1.064-0.49-1.912V13.16h1.026v3.451
				c0,1.244,0.432,1.866,1.294,1.866c0.42,0,0.814-0.134,1.184-0.402s0.644-0.635,0.822-1.102V13.16h1.025v4.827
				c0,0.241,0.109,0.365,0.327,0.373v0.886c-0.117,0.016-0.208,0.025-0.274,0.029c-0.066,0.004-0.13,0.006-0.192,0.006
				c-0.202,0-0.371-0.06-0.507-0.181c-0.137-0.121-0.208-0.27-0.216-0.449l-0.023-0.711c-0.272,0.459-0.63,0.811-1.072,1.056
				C129.59,19.24,129.104,19.363,128.575,19.363z"/>
			<path fill="#D9534F" d="M138.987,19.246h-1.025v-3.405c0-0.653-0.1-1.127-0.298-1.422s-0.499-0.443-0.903-0.443
				c-0.21,0-0.42,0.041-0.63,0.123s-0.408,0.192-0.595,0.333c-0.187,0.14-0.35,0.307-0.489,0.501s-0.245,0.408-0.315,0.641v3.673
				h-1.025V13.16h0.933v1.306c0.241-0.427,0.589-0.77,1.044-1.026c0.454-0.256,0.95-0.385,1.486-0.385
				c0.35,0,0.642,0.064,0.874,0.192c0.233,0.128,0.42,0.307,0.56,0.536c0.141,0.229,0.239,0.5,0.298,0.811s0.087,0.649,0.087,1.015
				V19.246z"/>
			<path fill="#D9534F" d="M143.092,19.363c-0.42,0-0.809-0.086-1.166-0.257s-0.665-0.4-0.921-0.688
				c-0.257-0.288-0.457-0.622-0.601-1.003c-0.145-0.381-0.216-0.781-0.216-1.201c0-0.427,0.067-0.833,0.204-1.218
				c0.136-0.385,0.326-0.721,0.571-1.009s0.536-0.515,0.874-0.682c0.339-0.167,0.71-0.25,1.114-0.25
				c0.489,0,0.927,0.128,1.312,0.385s0.689,0.567,0.915,0.933v-3.638h1.026v7.252c0,0.241,0.108,0.365,0.326,0.373v0.886
				c-0.109,0.016-0.196,0.027-0.263,0.035c-0.065,0.007-0.13,0.012-0.192,0.012c-0.202,0-0.379-0.068-0.53-0.204
				c-0.151-0.136-0.228-0.293-0.228-0.473v-0.513c-0.241,0.396-0.562,0.706-0.962,0.927
				C143.956,19.252,143.535,19.363,143.092,19.363z M143.337,18.477c0.187,0,0.379-0.035,0.577-0.105s0.385-0.167,0.56-0.292
				c0.175-0.124,0.326-0.27,0.454-0.437c0.129-0.167,0.212-0.344,0.251-0.531v-1.749c-0.07-0.194-0.175-0.379-0.314-0.554
				c-0.141-0.175-0.298-0.327-0.473-0.455c-0.175-0.128-0.361-0.229-0.56-0.303c-0.198-0.074-0.395-0.111-0.589-0.111
				c-0.303,0-0.577,0.064-0.822,0.192c-0.244,0.128-0.454,0.299-0.629,0.513c-0.176,0.214-0.31,0.459-0.402,0.735
				c-0.094,0.276-0.141,0.558-0.141,0.845c0,0.303,0.055,0.593,0.163,0.869c0.109,0.276,0.257,0.515,0.443,0.717
				s0.406,0.363,0.659,0.484C142.767,18.417,143.041,18.477,143.337,18.477z"/>
			<path fill="#D9534F" d="M147.92,12.017v-1.283h1.025v1.283H147.92z M147.92,19.246V13.16h1.025v6.086H147.92z"/>
			<path fill="#D9534F" d="M155.883,19.246h-1.025v-3.405c0-0.653-0.1-1.127-0.298-1.422s-0.499-0.443-0.903-0.443
				c-0.21,0-0.42,0.041-0.63,0.123s-0.408,0.192-0.595,0.333c-0.187,0.14-0.35,0.307-0.489,0.501s-0.245,0.408-0.315,0.641v3.673
				h-1.025V13.16h0.933v1.306c0.241-0.427,0.589-0.77,1.044-1.026c0.454-0.256,0.95-0.385,1.486-0.385
				c0.35,0,0.642,0.064,0.874,0.192c0.233,0.128,0.42,0.307,0.56,0.536c0.141,0.229,0.239,0.5,0.298,0.811s0.087,0.649,0.087,1.015
				V19.246z"/>
			<path fill="#D9534F" d="M159.905,19.316c-0.412,0-0.791-0.085-1.137-0.256s-0.644-0.4-0.892-0.688
				c-0.249-0.288-0.441-0.618-0.577-0.991c-0.137-0.373-0.204-0.762-0.204-1.166c0-0.427,0.067-0.833,0.204-1.218
				c0.136-0.385,0.328-0.721,0.577-1.009c0.248-0.288,0.546-0.515,0.892-0.682c0.346-0.167,0.729-0.25,1.148-0.25
				c0.514,0,0.956,0.125,1.329,0.373c0.373,0.249,0.688,0.563,0.944,0.944V13.16h0.91v6.017c0,0.435-0.082,0.818-0.245,1.148
				c-0.163,0.33-0.385,0.608-0.665,0.833c-0.279,0.226-0.607,0.396-0.984,0.513c-0.378,0.117-0.78,0.175-1.207,0.175
				c-0.692,0-1.254-0.119-1.686-0.355c-0.431-0.237-0.791-0.565-1.078-0.985l0.595-0.525c0.241,0.357,0.552,0.626,0.933,0.805
				s0.793,0.268,1.236,0.268c0.279,0,0.546-0.039,0.799-0.116c0.252-0.078,0.472-0.195,0.658-0.35s0.336-0.35,0.449-0.583
				c0.112-0.233,0.169-0.509,0.169-0.828v-1.073c-0.116,0.187-0.255,0.355-0.414,0.507c-0.159,0.151-0.332,0.28-0.519,0.385
				s-0.385,0.185-0.595,0.239S160.123,19.316,159.905,19.316z M160.221,18.477c0.217,0,0.427-0.039,0.629-0.117
				s0.389-0.181,0.56-0.309c0.171-0.128,0.315-0.274,0.432-0.437c0.117-0.163,0.194-0.331,0.233-0.501v-1.749
				c-0.086-0.21-0.196-0.4-0.332-0.571c-0.137-0.171-0.29-0.321-0.461-0.449c-0.171-0.128-0.355-0.228-0.554-0.297
				c-0.198-0.07-0.398-0.105-0.601-0.105c-0.311,0-0.589,0.066-0.834,0.198c-0.244,0.132-0.452,0.307-0.623,0.524
				c-0.172,0.218-0.304,0.465-0.396,0.741c-0.094,0.276-0.141,0.554-0.141,0.833c0,0.303,0.055,0.591,0.164,0.863
				c0.108,0.272,0.256,0.509,0.442,0.711s0.406,0.363,0.659,0.484C159.65,18.417,159.925,18.477,160.221,18.477z"/>
			<path fill="#D9534F" d="M109.465,33.246l-2.402-6.086h1.062l1.924,5.188l1.936-5.188h0.979l-2.402,6.086H109.465z"/>
			<path fill="#D9534F" d="M115.389,33.363c-0.288,0-0.557-0.049-0.805-0.146c-0.249-0.097-0.465-0.231-0.647-0.402
				c-0.183-0.171-0.326-0.371-0.432-0.6c-0.104-0.229-0.157-0.48-0.157-0.752c0-0.28,0.062-0.534,0.187-0.764
				c0.124-0.229,0.302-0.425,0.53-0.589c0.229-0.163,0.502-0.292,0.816-0.385c0.315-0.093,0.659-0.14,1.032-0.14
				c0.295,0,0.595,0.027,0.897,0.082c0.304,0.055,0.571,0.128,0.805,0.222v-0.49c0-0.498-0.14-0.888-0.42-1.172
				c-0.279-0.284-0.676-0.426-1.189-0.426c-0.613,0-1.259,0.237-1.936,0.711l-0.338-0.665c0.785-0.529,1.574-0.793,2.367-0.793
				c0.801,0,1.425,0.214,1.871,0.641c0.447,0.428,0.671,1.03,0.671,1.808v2.483c0,0.241,0.108,0.365,0.326,0.373v0.886
				c-0.108,0.016-0.198,0.027-0.268,0.035c-0.07,0.007-0.145,0.012-0.222,0.012c-0.202,0-0.363-0.061-0.484-0.181
				c-0.12-0.12-0.192-0.266-0.216-0.437l-0.023-0.432c-0.271,0.366-0.615,0.644-1.031,0.834S115.862,33.363,115.389,33.363z
				 M115.656,32.593c0.365,0,0.706-0.068,1.021-0.204s0.554-0.317,0.717-0.542c0.147-0.147,0.222-0.299,0.222-0.455v-0.898
				c-0.497-0.194-1.015-0.292-1.551-0.292c-0.513,0-0.931,0.109-1.253,0.327c-0.323,0.218-0.484,0.501-0.484,0.851
				c0,0.171,0.033,0.331,0.1,0.478c0.065,0.148,0.159,0.276,0.279,0.385c0.121,0.109,0.263,0.194,0.426,0.257
				C115.295,32.562,115.47,32.593,115.656,32.593z"/>
			<path fill="#D9534F" d="M123.503,28.058c-0.513,0.016-0.966,0.147-1.358,0.396c-0.393,0.249-0.67,0.595-0.834,1.038v3.754h-1.025
				V27.16h0.956v1.411c0.21-0.419,0.485-0.76,0.828-1.02c0.342-0.26,0.707-0.406,1.096-0.438c0.077,0,0.144,0,0.198,0
				c0.054,0,0.101,0.004,0.14,0.012V28.058z"/>
			<path fill="#D9534F" d="M124.518,26.017v-1.283h1.025v1.283H124.518z M124.518,33.246V27.16h1.025v6.086H124.518z"/>
			<path fill="#D9534F" d="M128.762,33.363c-0.288,0-0.557-0.049-0.805-0.146c-0.249-0.097-0.465-0.231-0.647-0.402
				c-0.183-0.171-0.326-0.371-0.432-0.6c-0.104-0.229-0.157-0.48-0.157-0.752c0-0.28,0.062-0.534,0.187-0.764
				c0.124-0.229,0.302-0.425,0.53-0.589c0.229-0.163,0.502-0.292,0.816-0.385c0.315-0.093,0.659-0.14,1.032-0.14
				c0.295,0,0.595,0.027,0.897,0.082c0.304,0.055,0.571,0.128,0.805,0.222v-0.49c0-0.498-0.14-0.888-0.42-1.172
				c-0.279-0.284-0.676-0.426-1.189-0.426c-0.613,0-1.259,0.237-1.936,0.711l-0.338-0.665c0.785-0.529,1.574-0.793,2.367-0.793
				c0.801,0,1.425,0.214,1.871,0.641c0.447,0.428,0.671,1.03,0.671,1.808v2.483c0,0.241,0.108,0.365,0.326,0.373v0.886
				c-0.108,0.016-0.198,0.027-0.268,0.035c-0.07,0.007-0.145,0.012-0.222,0.012c-0.202,0-0.363-0.061-0.484-0.181
				c-0.12-0.12-0.192-0.266-0.216-0.437l-0.023-0.432c-0.271,0.366-0.615,0.644-1.031,0.834S129.235,33.363,128.762,33.363z
				 M129.029,32.593c0.365,0,0.706-0.068,1.021-0.204s0.554-0.317,0.717-0.542c0.147-0.147,0.222-0.299,0.222-0.455v-0.898
				c-0.497-0.194-1.015-0.292-1.551-0.292c-0.513,0-0.931,0.109-1.253,0.327c-0.323,0.218-0.484,0.501-0.484,0.851
				c0,0.171,0.033,0.331,0.1,0.478c0.065,0.148,0.159,0.276,0.279,0.385c0.121,0.109,0.263,0.194,0.426,0.257
				C128.668,32.562,128.843,32.593,129.029,32.593z"/>
			<path fill="#D9534F" d="M136.784,33.363c-0.475,0-0.906-0.117-1.295-0.35c-0.389-0.233-0.695-0.536-0.921-0.909v1.143h-0.909
				v-8.512h1.025v3.638c0.257-0.396,0.571-0.715,0.945-0.956c0.373-0.241,0.808-0.361,1.306-0.361c0.42,0,0.797,0.089,1.131,0.268
				c0.334,0.179,0.62,0.414,0.857,0.706c0.236,0.292,0.419,0.629,0.548,1.014c0.128,0.385,0.192,0.78,0.192,1.184
				c0,0.428-0.074,0.832-0.222,1.213s-0.35,0.713-0.606,0.997c-0.257,0.284-0.562,0.509-0.915,0.676
				C137.566,33.279,137.188,33.363,136.784,33.363z M136.527,32.477c0.303,0,0.583-0.062,0.84-0.187
				c0.256-0.125,0.478-0.292,0.664-0.501s0.33-0.449,0.432-0.717c0.101-0.268,0.151-0.55,0.151-0.845s-0.049-0.581-0.146-0.857
				c-0.098-0.276-0.233-0.519-0.408-0.729c-0.175-0.21-0.385-0.379-0.63-0.507c-0.244-0.128-0.515-0.192-0.811-0.192
				c-0.217,0-0.423,0.039-0.617,0.117s-0.375,0.181-0.543,0.309c-0.167,0.128-0.314,0.278-0.442,0.449
				c-0.129,0.171-0.239,0.354-0.333,0.548v1.761c0.039,0.194,0.123,0.373,0.251,0.536c0.128,0.164,0.28,0.305,0.455,0.426
				s0.361,0.216,0.56,0.286S136.341,32.477,136.527,32.477z"/>
			<path fill="#D9534F" d="M140.946,24.734h1.025v6.938c0,0.226,0.061,0.402,0.181,0.531c0.121,0.128,0.29,0.192,0.508,0.192
				c0.085,0,0.187-0.014,0.303-0.041c0.117-0.027,0.226-0.06,0.327-0.099l0.163,0.828c-0.172,0.07-0.373,0.128-0.606,0.175
				c-0.233,0.046-0.439,0.07-0.618,0.07c-0.396,0-0.709-0.112-0.938-0.338s-0.344-0.541-0.344-0.945V24.734z"/>
			<path fill="#D9534F" d="M146.951,33.363c-0.459,0-0.879-0.083-1.26-0.251c-0.381-0.167-0.707-0.394-0.979-0.682
				c-0.271-0.287-0.483-0.624-0.635-1.008c-0.152-0.385-0.228-0.791-0.228-1.219c0-0.427,0.075-0.832,0.228-1.212
				c0.151-0.381,0.365-0.715,0.641-1.003c0.276-0.288,0.604-0.515,0.985-0.682c0.381-0.167,0.801-0.25,1.26-0.25
				c0.458,0,0.876,0.085,1.253,0.256c0.377,0.171,0.698,0.398,0.962,0.682c0.265,0.284,0.469,0.614,0.612,0.991
				s0.216,0.768,0.216,1.172c0,0.085-0.002,0.163-0.006,0.233c-0.004,0.07-0.01,0.125-0.018,0.164h-5.049
				c0.023,0.303,0.094,0.579,0.21,0.828c0.117,0.249,0.269,0.463,0.455,0.642s0.398,0.319,0.636,0.419
				c0.236,0.101,0.487,0.152,0.752,0.152c0.187,0,0.369-0.025,0.548-0.076c0.179-0.051,0.346-0.119,0.501-0.204
				s0.294-0.19,0.414-0.315s0.212-0.264,0.274-0.42l0.886,0.245c-0.101,0.226-0.239,0.431-0.414,0.618s-0.377,0.348-0.606,0.484
				c-0.229,0.136-0.483,0.243-0.764,0.321C147.546,33.324,147.254,33.363,146.951,33.363z M149.038,29.795
				c-0.023-0.288-0.096-0.554-0.216-0.799c-0.12-0.245-0.272-0.453-0.454-0.624c-0.184-0.171-0.396-0.305-0.636-0.402
				c-0.241-0.097-0.498-0.146-0.77-0.146c-0.272,0-0.529,0.049-0.77,0.146c-0.241,0.098-0.453,0.233-0.636,0.408
				s-0.33,0.383-0.443,0.624c-0.112,0.241-0.181,0.505-0.204,0.793H149.038z"/>
		</g>
		<path fill="none" stroke="#D9534F" stroke-width="2" d="M170.151,22.574c0,10.6-8.593,19.192-19.192,19.192h-44.615
			c-10.6,0-19.192-8.593-19.192-19.192l0,0c0-10.6,8.593-19.193,19.192-19.193h44.615C161.559,3.381,170.151,11.974,170.151,22.574
			L170.151,22.574z"/>
	</g>
	<g>
		<g>
			<path fill="#F0AD4E" d="M180.429,102.135v-8.278h3.545c0.365,0,0.701,0.076,1.008,0.227c0.308,0.152,0.571,0.354,0.793,0.607
				c0.222,0.252,0.395,0.535,0.52,0.851c0.124,0.315,0.187,0.636,0.187,0.962c0,0.287-0.041,0.565-0.123,0.834
				c-0.081,0.268-0.198,0.511-0.35,0.729s-0.334,0.404-0.548,0.56s-0.453,0.269-0.717,0.339l2.005,3.171h-1.189l-1.889-2.974h-2.192
				v2.974H180.429z M181.478,98.229h2.508c0.217,0,0.413-0.046,0.588-0.14c0.176-0.094,0.325-0.22,0.449-0.379
				s0.222-0.344,0.292-0.555c0.069-0.209,0.104-0.427,0.104-0.652c0-0.232-0.041-0.453-0.122-0.658
				c-0.082-0.207-0.19-0.389-0.327-0.549c-0.136-0.159-0.295-0.283-0.478-0.373c-0.183-0.089-0.375-0.134-0.577-0.134h-2.438V98.229
				z"/>
			<path fill="#F0AD4E" d="M190.421,102.251c-0.459,0-0.879-0.083-1.26-0.25c-0.381-0.168-0.707-0.395-0.979-0.683
				c-0.271-0.287-0.483-0.624-0.635-1.009c-0.152-0.385-0.228-0.791-0.228-1.219c0-0.427,0.075-0.831,0.228-1.212
				c0.151-0.381,0.365-0.716,0.641-1.003c0.276-0.287,0.604-0.515,0.985-0.682c0.381-0.168,0.801-0.251,1.26-0.251
				c0.458,0,0.876,0.085,1.253,0.257c0.377,0.171,0.698,0.398,0.962,0.682c0.265,0.284,0.469,0.614,0.612,0.991
				s0.216,0.768,0.216,1.172c0,0.085-0.002,0.163-0.006,0.233s-0.01,0.124-0.018,0.163h-5.049c0.023,0.304,0.094,0.579,0.21,0.827
				c0.117,0.25,0.269,0.463,0.455,0.643c0.187,0.178,0.398,0.318,0.636,0.419c0.236,0.101,0.487,0.151,0.752,0.151
				c0.187,0,0.369-0.025,0.548-0.075c0.179-0.051,0.346-0.118,0.501-0.204s0.294-0.19,0.414-0.314
				c0.12-0.125,0.212-0.265,0.274-0.42l0.886,0.244c-0.101,0.227-0.239,0.432-0.414,0.618s-0.377,0.349-0.606,0.483
				c-0.229,0.137-0.483,0.244-0.764,0.321C191.016,102.212,190.724,102.251,190.421,102.251z M192.508,98.684
				c-0.023-0.288-0.096-0.554-0.216-0.799s-0.272-0.452-0.454-0.624c-0.184-0.171-0.396-0.305-0.636-0.402
				c-0.241-0.097-0.498-0.146-0.77-0.146c-0.272,0-0.529,0.049-0.77,0.146c-0.241,0.098-0.453,0.233-0.636,0.408
				s-0.33,0.383-0.443,0.624c-0.112,0.241-0.181,0.505-0.204,0.793H192.508z"/>
			<path fill="#F0AD4E" d="M196.753,102.251c-0.49,0-0.972-0.075-1.446-0.227c-0.474-0.152-0.882-0.371-1.225-0.659l0.443-0.688
				c0.357,0.272,0.715,0.477,1.073,0.613c0.357,0.135,0.734,0.203,1.131,0.203c0.443,0,0.795-0.087,1.055-0.262
				c0.261-0.176,0.391-0.422,0.391-0.74c0-0.148-0.034-0.274-0.104-0.379c-0.07-0.105-0.175-0.197-0.314-0.274
				c-0.141-0.077-0.319-0.147-0.537-0.21s-0.47-0.129-0.758-0.198c-0.365-0.093-0.68-0.183-0.944-0.269
				c-0.265-0.085-0.482-0.186-0.653-0.303s-0.295-0.257-0.373-0.42c-0.077-0.163-0.116-0.365-0.116-0.606
				c0-0.303,0.061-0.573,0.181-0.81c0.12-0.238,0.286-0.436,0.496-0.596c0.209-0.158,0.456-0.279,0.74-0.361
				c0.283-0.082,0.589-0.122,0.915-0.122c0.459,0,0.886,0.073,1.282,0.222c0.396,0.147,0.73,0.342,1.003,0.583l-0.466,0.618
				c-0.257-0.226-0.545-0.395-0.863-0.508c-0.318-0.112-0.646-0.169-0.979-0.169c-0.373,0-0.689,0.08-0.95,0.239
				s-0.391,0.414-0.391,0.764c0,0.14,0.025,0.256,0.076,0.35c0.05,0.094,0.134,0.175,0.25,0.245
				c0.117,0.069,0.267,0.132,0.449,0.187s0.402,0.113,0.659,0.175c0.403,0.093,0.756,0.188,1.055,0.286
				c0.299,0.097,0.548,0.211,0.746,0.344c0.198,0.132,0.346,0.287,0.443,0.467c0.097,0.178,0.146,0.396,0.146,0.652
				c0,0.567-0.218,1.019-0.652,1.353C198.078,102.085,197.491,102.251,196.753,102.251z"/>
			<path fill="#F0AD4E" d="M203.655,102.251c-0.506,0-0.95-0.124-1.335-0.373c-0.385-0.248-0.69-0.562-0.916-0.944v3.685h-1.025
				v-8.57h0.909v1.143c0.241-0.373,0.554-0.674,0.938-0.903s0.811-0.344,1.277-0.344c0.419,0,0.804,0.085,1.154,0.257
				c0.35,0.171,0.652,0.402,0.909,0.693s0.456,0.628,0.601,1.009c0.144,0.381,0.216,0.777,0.216,1.188
				c0,0.436-0.066,0.846-0.198,1.23c-0.133,0.385-0.319,0.719-0.56,1.003c-0.241,0.284-0.529,0.509-0.863,0.677
				C204.429,102.168,204.06,102.251,203.655,102.251z M203.34,101.365c0.304,0,0.577-0.063,0.822-0.192s0.455-0.299,0.63-0.514
				c0.175-0.213,0.309-0.456,0.402-0.729c0.093-0.271,0.14-0.551,0.14-0.84c0-0.303-0.055-0.592-0.163-0.868
				c-0.109-0.276-0.257-0.517-0.443-0.723s-0.406-0.369-0.658-0.489c-0.253-0.121-0.527-0.182-0.822-0.182
				c-0.187,0-0.379,0.037-0.577,0.111s-0.385,0.171-0.56,0.291c-0.175,0.121-0.327,0.265-0.455,0.432
				c-0.128,0.168-0.212,0.344-0.251,0.531v1.736c0.086,0.203,0.194,0.391,0.327,0.566c0.132,0.174,0.283,0.326,0.454,0.454
				s0.354,0.229,0.549,0.304C202.928,101.329,203.131,101.365,203.34,101.365z"/>
			<path fill="#F0AD4E" d="M210.301,102.251c-0.459,0-0.877-0.086-1.254-0.256c-0.377-0.172-0.699-0.4-0.968-0.688
				c-0.268-0.288-0.476-0.623-0.623-1.004c-0.148-0.381-0.222-0.781-0.222-1.201c0-0.427,0.075-0.831,0.228-1.212
				c0.151-0.381,0.361-0.716,0.629-1.003c0.269-0.287,0.591-0.517,0.968-0.688c0.377-0.172,0.791-0.257,1.242-0.257
				s0.866,0.085,1.248,0.257c0.38,0.171,0.705,0.4,0.974,0.688c0.268,0.287,0.478,0.622,0.629,1.003
				c0.152,0.381,0.228,0.785,0.228,1.212c0,0.42-0.074,0.82-0.222,1.201s-0.357,0.716-0.629,1.004
				c-0.272,0.287-0.597,0.516-0.974,0.688C211.177,102.165,210.76,102.251,210.301,102.251z M208.283,99.114
				c0,0.319,0.053,0.615,0.158,0.887c0.104,0.271,0.248,0.51,0.431,0.711c0.183,0.203,0.396,0.361,0.642,0.479
				s0.507,0.175,0.787,0.175s0.542-0.058,0.787-0.175s0.461-0.277,0.647-0.484c0.187-0.205,0.332-0.447,0.437-0.723
				c0.105-0.275,0.158-0.573,0.158-0.893c0-0.311-0.053-0.604-0.158-0.88c-0.104-0.275-0.25-0.517-0.437-0.723
				s-0.402-0.367-0.647-0.483c-0.245-0.117-0.507-0.176-0.787-0.176s-0.542,0.061-0.787,0.182c-0.245,0.12-0.459,0.283-0.642,0.489
				s-0.326,0.446-0.431,0.723C208.336,98.499,208.283,98.796,208.283,99.114z"/>
			<path fill="#F0AD4E" d="M219.908,102.135h-1.025v-3.405c0-0.652-0.1-1.127-0.298-1.422s-0.499-0.443-0.903-0.443
				c-0.21,0-0.42,0.041-0.63,0.123c-0.21,0.081-0.408,0.191-0.595,0.332c-0.187,0.14-0.35,0.307-0.489,0.502
				c-0.14,0.193-0.245,0.407-0.315,0.641v3.673h-1.025v-6.087h0.933v1.307c0.241-0.428,0.589-0.77,1.044-1.026
				c0.454-0.257,0.95-0.385,1.486-0.385c0.35,0,0.642,0.063,0.874,0.192c0.233,0.129,0.42,0.307,0.56,0.536
				c0.141,0.229,0.239,0.499,0.298,0.811s0.087,0.649,0.087,1.015V102.135z"/>
			<path fill="#F0AD4E" d="M223.641,102.251c-0.49,0-0.972-0.075-1.446-0.227c-0.474-0.152-0.882-0.371-1.225-0.659l0.443-0.688
				c0.357,0.272,0.715,0.477,1.073,0.613c0.357,0.135,0.734,0.203,1.131,0.203c0.443,0,0.795-0.087,1.055-0.262
				c0.261-0.176,0.391-0.422,0.391-0.74c0-0.148-0.034-0.274-0.104-0.379c-0.07-0.105-0.175-0.197-0.314-0.274
				c-0.141-0.077-0.319-0.147-0.537-0.21s-0.47-0.129-0.758-0.198c-0.365-0.093-0.68-0.183-0.944-0.269
				c-0.265-0.085-0.482-0.186-0.653-0.303s-0.295-0.257-0.373-0.42c-0.077-0.163-0.116-0.365-0.116-0.606
				c0-0.303,0.061-0.573,0.181-0.81c0.12-0.238,0.286-0.436,0.496-0.596c0.209-0.158,0.456-0.279,0.74-0.361
				c0.283-0.082,0.589-0.122,0.915-0.122c0.459,0,0.886,0.073,1.282,0.222c0.396,0.147,0.73,0.342,1.003,0.583l-0.466,0.618
				c-0.257-0.226-0.545-0.395-0.863-0.508c-0.318-0.112-0.646-0.169-0.979-0.169c-0.373,0-0.689,0.08-0.95,0.239
				s-0.391,0.414-0.391,0.764c0,0.14,0.025,0.256,0.076,0.35c0.05,0.094,0.134,0.175,0.25,0.245
				c0.117,0.069,0.267,0.132,0.449,0.187s0.402,0.113,0.659,0.175c0.403,0.093,0.756,0.188,1.055,0.286
				c0.299,0.097,0.548,0.211,0.746,0.344c0.198,0.132,0.346,0.287,0.443,0.467c0.097,0.178,0.146,0.396,0.146,0.652
				c0,0.567-0.218,1.019-0.652,1.353C224.966,102.085,224.379,102.251,223.641,102.251z"/>
			<path fill="#F0AD4E" d="M229.96,102.251c-0.459,0-0.879-0.083-1.26-0.25c-0.381-0.168-0.707-0.395-0.979-0.683
				c-0.271-0.287-0.483-0.624-0.635-1.009c-0.152-0.385-0.228-0.791-0.228-1.219c0-0.427,0.075-0.831,0.228-1.212
				c0.151-0.381,0.365-0.716,0.641-1.003c0.276-0.287,0.604-0.515,0.985-0.682c0.381-0.168,0.801-0.251,1.26-0.251
				c0.458,0,0.876,0.085,1.253,0.257c0.377,0.171,0.698,0.398,0.962,0.682c0.265,0.284,0.469,0.614,0.612,0.991
				s0.216,0.768,0.216,1.172c0,0.085-0.002,0.163-0.006,0.233s-0.01,0.124-0.018,0.163h-5.049c0.023,0.304,0.094,0.579,0.21,0.827
				c0.117,0.25,0.269,0.463,0.455,0.643c0.187,0.178,0.398,0.318,0.636,0.419c0.236,0.101,0.487,0.151,0.752,0.151
				c0.187,0,0.369-0.025,0.548-0.075c0.179-0.051,0.346-0.118,0.501-0.204s0.294-0.19,0.414-0.314
				c0.12-0.125,0.212-0.265,0.274-0.42l0.886,0.244c-0.101,0.227-0.239,0.432-0.414,0.618s-0.377,0.349-0.606,0.483
				c-0.229,0.137-0.483,0.244-0.764,0.321C230.555,102.212,230.263,102.251,229.96,102.251z M232.047,98.684
				c-0.023-0.288-0.096-0.554-0.216-0.799s-0.272-0.452-0.454-0.624c-0.184-0.171-0.396-0.305-0.636-0.402
				c-0.241-0.097-0.498-0.146-0.77-0.146c-0.272,0-0.529,0.049-0.77,0.146c-0.241,0.098-0.453,0.233-0.636,0.408
				s-0.33,0.383-0.443,0.624c-0.112,0.241-0.181,0.505-0.204,0.793H232.047z"/>
			<path fill="#F0AD4E" d="M187.25,116.135l-2.402-6.087h1.062l1.924,5.189l1.936-5.189h0.979l-2.402,6.087H187.25z"/>
			<path fill="#F0AD4E" d="M193.174,116.251c-0.288,0-0.557-0.049-0.805-0.146c-0.249-0.097-0.465-0.231-0.647-0.402
				s-0.326-0.371-0.432-0.601c-0.104-0.229-0.157-0.479-0.157-0.752c0-0.279,0.062-0.534,0.187-0.764
				c0.124-0.229,0.302-0.426,0.53-0.589c0.229-0.163,0.502-0.292,0.816-0.385c0.315-0.093,0.659-0.14,1.032-0.14
				c0.295,0,0.595,0.027,0.897,0.082c0.304,0.055,0.571,0.128,0.805,0.221v-0.489c0-0.497-0.14-0.888-0.42-1.172
				c-0.279-0.284-0.676-0.426-1.189-0.426c-0.613,0-1.259,0.237-1.936,0.712l-0.338-0.665c0.785-0.528,1.574-0.793,2.367-0.793
				c0.801,0,1.425,0.214,1.871,0.642c0.447,0.428,0.671,1.029,0.671,1.807v2.484c0,0.24,0.108,0.365,0.326,0.373v0.886
				c-0.108,0.016-0.198,0.027-0.268,0.035c-0.07,0.007-0.145,0.012-0.222,0.012c-0.202,0-0.363-0.061-0.484-0.181
				c-0.12-0.121-0.192-0.267-0.216-0.438l-0.023-0.432c-0.271,0.365-0.615,0.644-1.031,0.834S193.647,116.251,193.174,116.251z
				 M193.441,115.481c0.365,0,0.706-0.067,1.021-0.203c0.314-0.137,0.554-0.317,0.717-0.543c0.147-0.147,0.222-0.299,0.222-0.455
				v-0.897c-0.497-0.194-1.015-0.292-1.551-0.292c-0.513,0-0.931,0.109-1.253,0.327c-0.323,0.218-0.484,0.501-0.484,0.851
				c0,0.172,0.033,0.331,0.1,0.479c0.065,0.148,0.159,0.276,0.279,0.385c0.121,0.109,0.263,0.194,0.426,0.257
				C193.08,115.45,193.255,115.481,193.441,115.481z"/>
			<path fill="#F0AD4E" d="M201.288,110.946c-0.513,0.016-0.966,0.147-1.358,0.396c-0.393,0.248-0.67,0.594-0.834,1.037v3.755
				h-1.025v-6.087h0.956v1.411c0.21-0.419,0.485-0.76,0.828-1.021c0.342-0.26,0.707-0.406,1.096-0.438c0.077,0,0.144,0,0.198,0
				c0.054,0,0.101,0.004,0.14,0.012V110.946z"/>
			<path fill="#F0AD4E" d="M202.303,108.905v-1.282h1.025v1.282H202.303z M202.303,116.135v-6.087h1.025v6.087H202.303z"/>
			<path fill="#F0AD4E" d="M206.547,116.251c-0.288,0-0.557-0.049-0.805-0.146c-0.249-0.097-0.465-0.231-0.647-0.402
				s-0.326-0.371-0.432-0.601c-0.104-0.229-0.157-0.479-0.157-0.752c0-0.279,0.062-0.534,0.187-0.764
				c0.124-0.229,0.302-0.426,0.53-0.589c0.229-0.163,0.502-0.292,0.816-0.385c0.315-0.093,0.659-0.14,1.032-0.14
				c0.295,0,0.595,0.027,0.897,0.082c0.304,0.055,0.571,0.128,0.805,0.221v-0.489c0-0.497-0.14-0.888-0.42-1.172
				c-0.279-0.284-0.676-0.426-1.189-0.426c-0.613,0-1.259,0.237-1.936,0.712l-0.338-0.665c0.785-0.528,1.574-0.793,2.367-0.793
				c0.801,0,1.425,0.214,1.871,0.642c0.447,0.428,0.671,1.029,0.671,1.807v2.484c0,0.24,0.108,0.365,0.326,0.373v0.886
				c-0.108,0.016-0.198,0.027-0.268,0.035c-0.07,0.007-0.145,0.012-0.222,0.012c-0.202,0-0.363-0.061-0.484-0.181
				c-0.12-0.121-0.192-0.267-0.216-0.438l-0.023-0.432c-0.271,0.365-0.615,0.644-1.031,0.834S207.021,116.251,206.547,116.251z
				 M206.814,115.481c0.365,0,0.706-0.067,1.021-0.203c0.314-0.137,0.554-0.317,0.717-0.543c0.147-0.147,0.222-0.299,0.222-0.455
				v-0.897c-0.497-0.194-1.015-0.292-1.551-0.292c-0.513,0-0.931,0.109-1.253,0.327c-0.323,0.218-0.484,0.501-0.484,0.851
				c0,0.172,0.033,0.331,0.1,0.479c0.065,0.148,0.159,0.276,0.279,0.385c0.121,0.109,0.263,0.194,0.426,0.257
				C206.453,115.45,206.628,115.481,206.814,115.481z"/>
			<path fill="#F0AD4E" d="M214.569,116.251c-0.475,0-0.906-0.116-1.295-0.35c-0.389-0.232-0.695-0.536-0.921-0.909v1.143h-0.909
				v-8.512h1.025v3.638c0.257-0.396,0.571-0.715,0.945-0.956c0.373-0.241,0.808-0.361,1.306-0.361c0.42,0,0.797,0.089,1.131,0.269
				c0.334,0.179,0.62,0.414,0.857,0.705c0.236,0.291,0.419,0.629,0.548,1.014c0.128,0.385,0.192,0.78,0.192,1.184
				c0,0.428-0.074,0.832-0.222,1.213s-0.35,0.713-0.606,0.997s-0.562,0.509-0.915,0.677
				C215.352,116.168,214.973,116.251,214.569,116.251z M214.312,115.365c0.303,0,0.583-0.062,0.84-0.187
				c0.256-0.125,0.478-0.291,0.664-0.502c0.187-0.209,0.33-0.448,0.432-0.717c0.101-0.268,0.151-0.55,0.151-0.846
				c0-0.295-0.049-0.58-0.146-0.856c-0.098-0.276-0.233-0.519-0.408-0.729s-0.385-0.38-0.63-0.507
				c-0.244-0.129-0.515-0.193-0.811-0.193c-0.217,0-0.423,0.039-0.617,0.117s-0.375,0.181-0.543,0.309
				c-0.167,0.129-0.314,0.278-0.442,0.449c-0.129,0.171-0.239,0.354-0.333,0.548v1.761c0.039,0.194,0.123,0.373,0.251,0.536
				s0.28,0.306,0.455,0.426s0.361,0.216,0.56,0.286C213.934,115.33,214.126,115.365,214.312,115.365z"/>
			<path fill="#F0AD4E" d="M218.731,107.623h1.025v6.938c0,0.226,0.061,0.402,0.181,0.53c0.121,0.129,0.29,0.193,0.508,0.193
				c0.085,0,0.187-0.014,0.303-0.041c0.117-0.027,0.226-0.061,0.327-0.1l0.163,0.828c-0.172,0.07-0.373,0.128-0.606,0.175
				c-0.233,0.046-0.439,0.069-0.618,0.069c-0.396,0-0.709-0.111-0.938-0.338c-0.229-0.225-0.344-0.54-0.344-0.944V107.623z"/>
			<path fill="#F0AD4E" d="M224.736,116.251c-0.459,0-0.879-0.083-1.26-0.25c-0.381-0.168-0.707-0.395-0.979-0.683
				c-0.271-0.287-0.483-0.624-0.635-1.009c-0.152-0.385-0.228-0.791-0.228-1.219c0-0.427,0.075-0.831,0.228-1.212
				c0.151-0.381,0.365-0.716,0.641-1.003c0.276-0.287,0.604-0.515,0.985-0.682c0.381-0.168,0.801-0.251,1.26-0.251
				c0.458,0,0.876,0.085,1.253,0.257c0.377,0.171,0.698,0.398,0.962,0.682c0.265,0.284,0.469,0.614,0.612,0.991
				s0.216,0.768,0.216,1.172c0,0.085-0.002,0.163-0.006,0.233s-0.01,0.124-0.018,0.163h-5.049c0.023,0.304,0.094,0.579,0.21,0.827
				c0.117,0.25,0.269,0.463,0.455,0.643c0.187,0.178,0.398,0.318,0.636,0.419c0.236,0.101,0.487,0.151,0.752,0.151
				c0.187,0,0.369-0.025,0.548-0.075c0.179-0.051,0.346-0.118,0.501-0.204s0.294-0.19,0.414-0.314
				c0.12-0.125,0.212-0.265,0.274-0.42l0.886,0.244c-0.101,0.227-0.239,0.432-0.414,0.618s-0.377,0.349-0.606,0.483
				c-0.229,0.137-0.483,0.244-0.764,0.321C225.331,116.212,225.039,116.251,224.736,116.251z M226.823,112.684
				c-0.023-0.288-0.096-0.554-0.216-0.799s-0.272-0.452-0.454-0.624c-0.184-0.171-0.396-0.305-0.636-0.402
				c-0.241-0.097-0.498-0.146-0.77-0.146c-0.272,0-0.529,0.049-0.77,0.146c-0.241,0.098-0.453,0.233-0.636,0.408
				s-0.33,0.383-0.443,0.624c-0.112,0.241-0.181,0.505-0.204,0.793H226.823z"/>
		</g>
		<path fill="none" stroke="#F0AD4E" stroke-width="2" d="M247.884,105.462c0,10.6-8.593,19.192-19.192,19.192h-44.615
			c-10.6,0-19.192-8.593-19.192-19.192l0,0c0-10.6,8.593-19.193,19.192-19.193h44.615
			C239.291,86.269,247.884,94.862,247.884,105.462L247.884,105.462z"/>
	</g>
	<line fill="none" stroke="#D2D2D2" stroke-width="2" stroke-linecap="round" x1="70.714" y1="55.795" x2="93.366" y2="70.305"/>
	<line fill="none" stroke="#D2D2D2" stroke-width="2" stroke-linecap="round" x1="68.639" y1="61.896" x2="95.441" y2="64.203"/>
	<g>
		<path fill="#D2D2D2" d="M3.797,37.246v-8.279h3.544c0.365,0,0.702,0.076,1.009,0.228c0.307,0.152,0.571,0.354,0.793,0.606
			c0.221,0.252,0.395,0.536,0.519,0.851s0.187,0.635,0.187,0.962c0,0.288-0.041,0.565-0.122,0.834
			c-0.082,0.268-0.198,0.511-0.351,0.729c-0.15,0.218-0.333,0.404-0.547,0.56c-0.214,0.156-0.453,0.268-0.717,0.338l2.005,3.171
			H8.928l-1.889-2.973H4.847v2.973H3.797z M4.847,33.34h2.507c0.218,0,0.414-0.046,0.589-0.14s0.325-0.22,0.449-0.379
			c0.125-0.159,0.222-0.344,0.292-0.554c0.07-0.209,0.105-0.427,0.105-0.653c0-0.233-0.041-0.453-0.122-0.659
			c-0.082-0.206-0.191-0.389-0.327-0.548c-0.136-0.16-0.295-0.284-0.478-0.374C7.678,29.945,7.486,29.9,7.284,29.9H4.847V33.34z"/>
		<path fill="#D2D2D2" d="M13.977,28.967h0.886l3.382,8.279h-1.119l-0.979-2.425h-3.475l-0.968,2.425h-1.12L13.977,28.967z
			 M15.912,34.004L14.42,30.18l-1.539,3.824H15.912z"/>
		<path fill="#D2D2D2" d="M20.4,30.926v6.32h-1.049v-8.279h0.816l5.13,6.448v-6.437h1.05v8.267h-0.887L20.4,30.926z"/>
		<path fill="#D2D2D2" d="M28.33,37.246v-8.279h2.868c0.661,0,1.242,0.109,1.743,0.327c0.502,0.218,0.919,0.513,1.254,0.886
			c0.334,0.373,0.584,0.811,0.752,1.312c0.167,0.501,0.25,1.036,0.25,1.604c0,0.629-0.093,1.199-0.279,1.708
			c-0.187,0.509-0.455,0.944-0.805,1.306c-0.35,0.361-0.771,0.641-1.265,0.839c-0.494,0.198-1.044,0.297-1.65,0.297H28.33z
			 M34.137,33.095c0-0.466-0.064-0.896-0.192-1.289s-0.319-0.729-0.571-1.008c-0.253-0.28-0.562-0.5-0.927-0.659
			C32.08,29.98,31.665,29.9,31.198,29.9h-1.819v6.413h1.819c0.475,0,0.896-0.082,1.266-0.245c0.369-0.163,0.676-0.389,0.921-0.676
			s0.432-0.627,0.56-1.02S34.137,33.554,34.137,33.095z"/>
		<path fill="#D2D2D2" d="M40.036,37.304c-0.583,0-1.114-0.118-1.592-0.355c-0.479-0.237-0.889-0.552-1.23-0.944
			s-0.606-0.841-0.793-1.347s-0.279-1.022-0.279-1.551c0-0.552,0.099-1.081,0.297-1.586s0.473-0.952,0.822-1.341
			s0.764-0.698,1.241-0.927c0.479-0.229,0.997-0.344,1.557-0.344c0.583,0,1.112,0.123,1.586,0.367
			c0.475,0.245,0.883,0.565,1.225,0.962s0.606,0.846,0.793,1.347c0.187,0.501,0.279,1.013,0.279,1.534
			c0,0.552-0.099,1.081-0.297,1.585c-0.198,0.505-0.471,0.95-0.816,1.335s-0.758,0.692-1.235,0.921
			C41.114,37.19,40.596,37.304,40.036,37.304z M37.202,33.107c0,0.419,0.068,0.826,0.204,1.218s0.328,0.74,0.577,1.043
			s0.548,0.544,0.898,0.723c0.35,0.179,0.738,0.268,1.166,0.268c0.442,0,0.839-0.095,1.188-0.286
			c0.351-0.19,0.647-0.439,0.893-0.746c0.244-0.307,0.432-0.655,0.56-1.043s0.192-0.781,0.192-1.178c0-0.42-0.068-0.826-0.204-1.219
			c-0.136-0.392-0.33-0.738-0.583-1.038s-0.552-0.538-0.897-0.717c-0.347-0.179-0.729-0.268-1.148-0.268
			c-0.443,0-0.84,0.093-1.189,0.28c-0.351,0.187-0.647,0.432-0.893,0.735c-0.244,0.303-0.434,0.649-0.565,1.038
			S37.202,32.703,37.202,33.107z"/>
		<path fill="#D2D2D2" d="M52.559,37.246v-6.401l-2.752,4.909h-0.595l-2.764-4.909v6.401h-1.049v-8.279h1.107l2.997,5.375
			l3.008-5.375h1.097v8.279H52.559z"/>
		<path fill="#D2D2D2" d="M55.591,37.246v-8.279h1.049v8.279H55.591z"/>
		<path fill="#D2D2D2" d="M58.004,36.43l5.341-6.529h-5.235v-0.933h6.459v0.816l-5.247,6.53h5.247v0.933h-6.564V36.43z"/>
		<path fill="#D2D2D2" d="M71.6,36.313v0.933h-5.62v-8.279h5.515V29.9h-4.466v2.682h3.883v0.875h-3.883v2.857H71.6z"/>
		<path fill="#D2D2D2" d="M73.033,37.246v-8.279h2.868c0.661,0,1.242,0.109,1.743,0.327c0.502,0.218,0.919,0.513,1.254,0.886
			c0.334,0.373,0.584,0.811,0.752,1.312c0.167,0.501,0.25,1.036,0.25,1.604c0,0.629-0.093,1.199-0.279,1.708
			c-0.187,0.509-0.455,0.944-0.805,1.306c-0.35,0.361-0.771,0.641-1.265,0.839c-0.494,0.198-1.044,0.297-1.65,0.297H73.033z
			 M78.84,33.095c0-0.466-0.064-0.896-0.192-1.289s-0.319-0.729-0.571-1.008c-0.253-0.28-0.562-0.5-0.927-0.659
			c-0.366-0.159-0.781-0.239-1.248-0.239h-1.819v6.413h1.819c0.475,0,0.896-0.082,1.266-0.245c0.369-0.163,0.676-0.389,0.921-0.676
			s0.432-0.627,0.56-1.02S78.84,33.554,78.84,33.095z"/>
		<path fill="#D2D2D2" d="M11.948,50.313v0.933H6.328v-8.279h5.515V43.9H7.377v2.682h3.882v0.875H7.377v2.857H11.948z"/>
		<path fill="#D2D2D2" d="M13.592,42.967l2.519,3.452l2.519-3.452h1.154l-3.113,4.198l3.02,4.081h-1.154l-2.425-3.335l-2.426,3.335
			h-1.166l3.021-4.081l-3.113-4.198H13.592z"/>
		<path fill="#D2D2D2" d="M20.81,51.246v-8.279h3.451c0.365,0,0.701,0.076,1.009,0.228c0.307,0.152,0.571,0.354,0.793,0.606
			s0.395,0.536,0.519,0.851s0.187,0.635,0.187,0.962c0,0.342-0.059,0.672-0.175,0.991s-0.282,0.603-0.495,0.851
			c-0.214,0.249-0.471,0.447-0.77,0.595c-0.3,0.148-0.632,0.222-0.997,0.222h-2.473v2.973H20.81z M21.858,47.34h2.414
			c0.218,0,0.414-0.044,0.589-0.134s0.324-0.214,0.449-0.373c0.124-0.16,0.222-0.344,0.291-0.554c0.07-0.21,0.105-0.431,0.105-0.665
			c0-0.241-0.041-0.466-0.123-0.676c-0.081-0.21-0.19-0.393-0.326-0.548c-0.136-0.156-0.296-0.276-0.479-0.362
			c-0.183-0.085-0.375-0.128-0.577-0.128h-2.344V47.34z"/>
		<path fill="#D2D2D2" d="M33.693,50.313v0.933h-5.62v-8.279h5.515V43.9h-4.466v2.682h3.883v0.875h-3.883v2.857H33.693z"/>
		<path fill="#D2D2D2" d="M35.128,51.246v-8.279h3.545c0.365,0,0.701,0.076,1.008,0.228c0.308,0.152,0.571,0.354,0.793,0.606
			s0.395,0.536,0.52,0.851c0.124,0.315,0.187,0.635,0.187,0.962c0,0.288-0.041,0.565-0.123,0.834
			c-0.081,0.268-0.198,0.511-0.35,0.729s-0.334,0.404-0.548,0.56c-0.214,0.156-0.453,0.268-0.717,0.338l2.005,3.171h-1.189
			l-1.889-2.973h-2.192v2.973H35.128z M36.177,47.34h2.508c0.217,0,0.413-0.046,0.588-0.14c0.176-0.093,0.325-0.22,0.449-0.379
			s0.222-0.344,0.292-0.554c0.069-0.209,0.104-0.427,0.104-0.653c0-0.233-0.041-0.453-0.122-0.659
			c-0.082-0.206-0.19-0.389-0.327-0.548c-0.136-0.16-0.295-0.284-0.478-0.374c-0.183-0.089-0.375-0.134-0.577-0.134h-2.438V47.34z"
			/>
		<path fill="#D2D2D2" d="M42.788,51.246v-8.279h1.049v8.279H42.788z"/>
		<path fill="#D2D2D2" d="M52.979,51.246v-6.401l-2.752,4.909h-0.595l-2.764-4.909v6.401h-1.049v-8.279h1.107l2.997,5.375
			l3.008-5.375h1.097v8.279H52.979z"/>
		<path fill="#D2D2D2" d="M61.631,50.313v0.933h-5.62v-8.279h5.515V43.9H57.06v2.682h3.883v0.875H57.06v2.857H61.631z"/>
		<path fill="#D2D2D2" d="M64.113,44.926v6.32h-1.049v-8.279h0.816l5.13,6.448v-6.437h1.05v8.267h-0.887L64.113,44.926z"/>
		<path fill="#D2D2D2" d="M78.013,43.9h-2.856v7.346h-1.05V43.9H71.25v-0.933h6.763V43.9z"/>
	</g>
</g>
<g id="layer2">
	<g>
	</g>
	<g>
	</g>
	<g>
	</g>
	<g>
	</g>
	<g>
	</g>
	<g>
	</g>
</g>
</svg>
