<?xml version="1.0" encoding="utf-8" standalone="no"?>
<!DOCTYPE svg PUBLIC "-//W3C//DTD SVG 1.1//EN"
  "http://www.w3.org/Graphics/SVG/1.1/DTD/svg11.dtd">
<!-- Created with matplotlib (http://matplotlib.org/) -->
<svg height="288pt" version="1.1" viewBox="0 0 432 288" width="432pt" xmlns="http://www.w3.org/2000/svg" xmlns:xlink="http://www.w3.org/1999/xlink">
 <defs>
  <style type="text/css">
*{stroke-linecap:butt;stroke-linejoin:round;}
  </style>
 </defs>
 <g id="figure_1">
  <g id="patch_1">
   <path d="M 0 288 
L 432 288 
L 432 0 
L 0 0 
z
" style="fill:none;"/>
  </g>
  <g id="axes_1">
   <g id="patch_2">
    <path d="M 21.6 244.8 
L 427.68 244.8 
L 427.68 43.2 
L 21.6 43.2 
z
" style="fill:none;"/>
   </g>
   <g id="patch_3">
    <path clip-path="url(#pe2185e889e)" d="M 127.1808 244.8 
L 130.166682 244.8 
L 130.166682 244.644923 
L 127.1808 244.644923 
z
" style="fill:#5bc0de;"/>
   </g>
   <g id="patch_4">
    <path clip-path="url(#pe2185e889e)" d="M 130.166682 244.8 
L 133.152565 244.8 
L 133.152565 244.8 
L 130.166682 244.8 
z
" style="fill:#5bc0de;"/>
   </g>
   <g id="patch_5">
    <path clip-path="url(#pe2185e889e)" d="M 133.152565 244.8 
L 136.138447 244.8 
L 136.138447 242.939077 
L 133.152565 242.939077 
z
" style="fill:#5bc0de;"/>
   </g>
   <g id="patch_6">
    <path clip-path="url(#pe2185e889e)" d="M 136.138447 244.8 
L 139.124329 244.8 
L 139.124329 244.8 
L 136.138447 244.8 
z
" style="fill:#5bc0de;"/>
   </g>
   <g id="patch_7">
    <path clip-path="url(#pe2185e889e)" d="M 139.124329 244.8 
L 142.110212 244.8 
L 142.110212 244.8 
L 139.124329 244.8 
z
" style="fill:#5bc0de;"/>
   </g>
   <g id="patch_8">
    <path clip-path="url(#pe2185e889e)" d="M 142.110212 244.8 
L 145.096094 244.8 
L 145.096094 241.078154 
L 142.110212 241.078154 
z
" style="fill:#5bc0de;"/>
   </g>
   <g id="patch_9">
    <path clip-path="url(#pe2185e889e)" d="M 145.096094 244.8 
L 148.081976 244.8 
L 148.081976 244.8 
L 145.096094 244.8 
z
" style="fill:#5bc0de;"/>
   </g>
   <g id="patch_10">
    <path clip-path="url(#pe2185e889e)" d="M 148.081976 244.8 
L 151.067859 244.8 
L 151.067859 244.8 
L 148.081976 244.8 
z
" style="fill:#5bc0de;"/>
   </g>
   <g id="patch_11">
    <path clip-path="url(#pe2185e889e)" d="M 151.067859 244.8 
L 154.053741 244.8 
L 154.053741 237.976615 
L 151.067859 237.976615 
z
" style="fill:#5bc0de;"/>
   </g>
   <g id="patch_12">
    <path clip-path="url(#pe2185e889e)" d="M 154.053741 244.8 
L 157.039624 244.8 
L 157.039624 244.8 
L 154.053741 244.8 
z
" style="fill:#5bc0de;"/>
   </g>
   <g id="patch_13">
    <path clip-path="url(#pe2185e889e)" d="M 157.039624 244.8 
L 160.025506 244.8 
L 160.025506 233.479385 
L 157.039624 233.479385 
z
" style="fill:#5bc0de;"/>
   </g>
   <g id="patch_14">
    <path clip-path="url(#pe2185e889e)" d="M 160.025506 244.8 
L 163.011388 244.8 
L 163.011388 244.8 
L 160.025506 244.8 
z
" style="fill:#5bc0de;"/>
   </g>
   <g id="patch_15">
    <path clip-path="url(#pe2185e889e)" d="M 163.011388 244.8 
L 165.997271 244.8 
L 165.997271 244.8 
L 163.011388 244.8 
z
" style="fill:#5bc0de;"/>
   </g>
   <g id="patch_16">
    <path clip-path="url(#pe2185e889e)" d="M 165.997271 244.8 
L 168.983153 244.8 
L 168.983153 220.142769 
L 165.997271 220.142769 
z
" style="fill:#5bc0de;"/>
   </g>
   <g id="patch_17">
    <path clip-path="url(#pe2185e889e)" d="M 168.983153 244.8 
L 171.969035 244.8 
L 171.969035 244.8 
L 168.983153 244.8 
z
" style="fill:#5bc0de;"/>
   </g>
   <g id="patch_18">
    <path clip-path="url(#pe2185e889e)" d="M 171.969035 244.8 
L 174.954918 244.8 
L 174.954918 244.8 
L 171.969035 244.8 
z
" style="fill:#5bc0de;"/>
   </g>
   <g id="patch_19">
    <path clip-path="url(#pe2185e889e)" d="M 174.954918 244.8 
L 177.9408 244.8 
L 177.9408 201.533538 
L 174.954918 201.533538 
z
" style="fill:#5bc0de;"/>
   </g>
   <g id="patch_20">
    <path clip-path="url(#pe2185e889e)" d="M 177.9408 244.8 
L 180.926682 244.8 
L 180.926682 244.8 
L 177.9408 244.8 
z
" style="fill:#5bc0de;"/>
   </g>
   <g id="patch_21">
    <path clip-path="url(#pe2185e889e)" d="M 180.926682 244.8 
L 183.912565 244.8 
L 183.912565 244.8 
L 180.926682 244.8 
z
" style="fill:#5bc0de;"/>
   </g>
   <g id="patch_22">
    <path clip-path="url(#pe2185e889e)" d="M 183.912565 244.8 
L 186.898447 244.8 
L 186.898447 181.373538 
L 183.912565 181.373538 
z
" style="fill:#5bc0de;"/>
   </g>
   <g id="patch_23">
    <path clip-path="url(#pe2185e889e)" d="M 186.898447 244.8 
L 189.884329 244.8 
L 189.884329 244.8 
L 186.898447 244.8 
z
" style="fill:#5bc0de;"/>
   </g>
   <g id="patch_24">
    <path clip-path="url(#pe2185e889e)" d="M 189.884329 244.8 
L 192.870212 244.8 
L 192.870212 143.689846 
L 189.884329 143.689846 
z
" style="fill:#5bc0de;"/>
   </g>
   <g id="patch_25">
    <path clip-path="url(#pe2185e889e)" d="M 192.870212 244.8 
L 195.856094 244.8 
L 195.856094 244.8 
L 192.870212 244.8 
z
" style="fill:#5bc0de;"/>
   </g>
   <g id="patch_26">
    <path clip-path="url(#pe2185e889e)" d="M 195.856094 244.8 
L 198.841976 244.8 
L 198.841976 244.8 
L 195.856094 244.8 
z
" style="fill:#5bc0de;"/>
   </g>
   <g id="patch_27">
    <path clip-path="url(#pe2185e889e)" d="M 198.841976 244.8 
L 201.827859 244.8 
L 201.827859 126.631385 
L 198.841976 126.631385 
z
" style="fill:#5bc0de;"/>
   </g>
   <g id="patch_28">
    <path clip-path="url(#pe2185e889e)" d="M 201.827859 244.8 
L 204.813741 244.8 
L 204.813741 244.8 
L 201.827859 244.8 
z
" style="fill:#5bc0de;"/>
   </g>
   <g id="patch_29">
    <path clip-path="url(#pe2185e889e)" d="M 204.813741 244.8 
L 207.799624 244.8 
L 207.799624 244.8 
L 204.813741 244.8 
z
" style="fill:#5bc0de;"/>
   </g>
   <g id="patch_30">
    <path clip-path="url(#pe2185e889e)" d="M 207.799624 244.8 
L 210.785506 244.8 
L 210.785506 95.926154 
L 207.799624 95.926154 
z
" style="fill:#5bc0de;"/>
   </g>
   <g id="patch_31">
    <path clip-path="url(#pe2185e889e)" d="M 210.785506 244.8 
L 213.771388 244.8 
L 213.771388 244.8 
L 210.785506 244.8 
z
" style="fill:#5bc0de;"/>
   </g>
   <g id="patch_32">
    <path clip-path="url(#pe2185e889e)" d="M 213.771388 244.8 
L 216.757271 244.8 
L 216.757271 77.006769 
L 213.771388 77.006769 
z
" style="fill:#5bc0de;"/>
   </g>
   <g id="patch_33">
    <path clip-path="url(#pe2185e889e)" d="M 216.757271 244.8 
L 219.743153 244.8 
L 219.743153 244.8 
L 216.757271 244.8 
z
" style="fill:#5bc0de;"/>
   </g>
   <g id="patch_34">
    <path clip-path="url(#pe2185e889e)" d="M 219.743153 244.8 
L 222.729035 244.8 
L 222.729035 244.8 
L 219.743153 244.8 
z
" style="fill:#5bc0de;"/>
   </g>
   <g id="patch_35">
    <path clip-path="url(#pe2185e889e)" d="M 222.729035 244.8 
L 225.714918 244.8 
L 225.714918 68.632615 
L 222.729035 68.632615 
z
" style="fill:#5bc0de;"/>
   </g>
   <g id="patch_36">
    <path clip-path="url(#pe2185e889e)" d="M 225.714918 244.8 
L 228.7008 244.8 
L 228.7008 244.8 
L 225.714918 244.8 
z
" style="fill:#5bc0de;"/>
   </g>
   <g id="patch_37">
    <path clip-path="url(#pe2185e889e)" d="M 228.7008 244.8 
L 231.686682 244.8 
L 231.686682 244.8 
L 228.7008 244.8 
z
" style="fill:#5bc0de;"/>
   </g>
   <g id="patch_38">
    <path clip-path="url(#pe2185e889e)" d="M 231.686682 244.8 
L 234.672565 244.8 
L 234.672565 71.268923 
L 231.686682 71.268923 
z
" style="fill:#5bc0de;"/>
   </g>
   <g id="patch_39">
    <path clip-path="url(#pe2185e889e)" d="M 234.672565 244.8 
L 237.658447 244.8 
L 237.658447 244.8 
L 234.672565 244.8 
z
" style="fill:#5bc0de;"/>
   </g>
   <g id="patch_40">
    <path clip-path="url(#pe2185e889e)" d="M 237.658447 244.8 
L 240.644329 244.8 
L 240.644329 244.8 
L 237.658447 244.8 
z
" style="fill:#5bc0de;"/>
   </g>
   <g id="patch_41">
    <path clip-path="url(#pe2185e889e)" d="M 240.644329 244.8 
L 243.630212 244.8 
L 243.630212 102.904615 
L 240.644329 102.904615 
z
" style="fill:#5bc0de;"/>
   </g>
   <g id="patch_42">
    <path clip-path="url(#pe2185e889e)" d="M 243.630212 244.8 
L 246.616094 244.8 
L 246.616094 244.8 
L 243.630212 244.8 
z
" style="fill:#5bc0de;"/>
   </g>
   <g id="patch_43">
    <path clip-path="url(#pe2185e889e)" d="M 246.616094 244.8 
L 249.601976 244.8 
L 249.601976 125.080615 
L 246.616094 125.080615 
z
" style="fill:#5bc0de;"/>
   </g>
   <g id="patch_44">
    <path clip-path="url(#pe2185e889e)" d="M 249.601976 244.8 
L 252.587859 244.8 
L 252.587859 244.8 
L 249.601976 244.8 
z
" style="fill:#5bc0de;"/>
   </g>
   <g id="patch_45">
    <path clip-path="url(#pe2185e889e)" d="M 252.587859 244.8 
L 255.573741 244.8 
L 255.573741 244.8 
L 252.587859 244.8 
z
" style="fill:#5bc0de;"/>
   </g>
   <g id="patch_46">
    <path clip-path="url(#pe2185e889e)" d="M 255.573741 244.8 
L 258.559624 244.8 
L 258.559624 149.272615 
L 255.573741 149.272615 
z
" style="fill:#5bc0de;"/>
   </g>
   <g id="patch_47">
    <path clip-path="url(#pe2185e889e)" d="M 258.559624 244.8 
L 261.545506 244.8 
L 261.545506 244.8 
L 258.559624 244.8 
z
" style="fill:#5bc0de;"/>
   </g>
   <g id="patch_48">
    <path clip-path="url(#pe2185e889e)" d="M 261.545506 244.8 
L 264.531388 244.8 
L 264.531388 244.8 
L 261.545506 244.8 
z
" style="fill:#5bc0de;"/>
   </g>
   <g id="patch_49">
    <path clip-path="url(#pe2185e889e)" d="M 264.531388 244.8 
L 267.517271 244.8 
L 267.517271 183.389538 
L 264.531388 183.389538 
z
" style="fill:#5bc0de;"/>
   </g>
   <g id="patch_50">
    <path clip-path="url(#pe2185e889e)" d="M 267.517271 244.8 
L 270.503153 244.8 
L 270.503153 244.8 
L 267.517271 244.8 
z
" style="fill:#5bc0de;"/>
   </g>
   <g id="patch_51">
    <path clip-path="url(#pe2185e889e)" d="M 270.503153 244.8 
L 273.489035 244.8 
L 273.489035 208.201846 
L 270.503153 208.201846 
z
" style="fill:#5bc0de;"/>
   </g>
   <g id="patch_52">
    <path clip-path="url(#pe2185e889e)" d="M 273.489035 244.8 
L 276.474918 244.8 
L 276.474918 244.8 
L 273.489035 244.8 
z
" style="fill:#5bc0de;"/>
   </g>
   <g id="patch_53">
    <path clip-path="url(#pe2185e889e)" d="M 276.474918 244.8 
L 279.4608 244.8 
L 279.4608 244.8 
L 276.474918 244.8 
z
" style="fill:#5bc0de;"/>
   </g>
   <g id="patch_54">
    <path clip-path="url(#pe2185e889e)" d="M 279.4608 244.8 
L 282.446682 244.8 
L 282.446682 217.506462 
L 279.4608 217.506462 
z
" style="fill:#5bc0de;"/>
   </g>
   <g id="patch_55">
    <path clip-path="url(#pe2185e889e)" d="M 282.446682 244.8 
L 285.432565 244.8 
L 285.432565 244.8 
L 282.446682 244.8 
z
" style="fill:#5bc0de;"/>
   </g>
   <g id="patch_56">
    <path clip-path="url(#pe2185e889e)" d="M 285.432565 244.8 
L 288.418447 244.8 
L 288.418447 244.8 
L 285.432565 244.8 
z
" style="fill:#5bc0de;"/>
   </g>
   <g id="patch_57">
    <path clip-path="url(#pe2185e889e)" d="M 288.418447 244.8 
L 291.404329 244.8 
L 291.404329 228.827077 
L 288.418447 228.827077 
z
" style="fill:#5bc0de;"/>
   </g>
   <g id="patch_58">
    <path clip-path="url(#pe2185e889e)" d="M 291.404329 244.8 
L 294.390212 244.8 
L 294.390212 244.8 
L 291.404329 244.8 
z
" style="fill:#5bc0de;"/>
   </g>
   <g id="patch_59">
    <path clip-path="url(#pe2185e889e)" d="M 294.390212 244.8 
L 297.376094 244.8 
L 297.376094 244.8 
L 294.390212 244.8 
z
" style="fill:#5bc0de;"/>
   </g>
   <g id="patch_60">
    <path clip-path="url(#pe2185e889e)" d="M 297.376094 244.8 
L 300.361976 244.8 
L 300.361976 238.286769 
L 297.376094 238.286769 
z
" style="fill:#5bc0de;"/>
   </g>
   <g id="patch_61">
    <path clip-path="url(#pe2185e889e)" d="M 300.361976 244.8 
L 303.347859 244.8 
L 303.347859 244.8 
L 300.361976 244.8 
z
" style="fill:#5bc0de;"/>
   </g>
   <g id="patch_62">
    <path clip-path="url(#pe2185e889e)" d="M 303.347859 244.8 
L 306.333741 244.8 
L 306.333741 241.543385 
L 303.347859 241.543385 
z
" style="fill:#5bc0de;"/>
   </g>
   <g id="patch_63">
    <path clip-path="url(#pe2185e889e)" d="M 306.333741 244.8 
L 309.319624 244.8 
L 309.319624 244.8 
L 306.333741 244.8 
z
" style="fill:#5bc0de;"/>
   </g>
   <g id="patch_64">
    <path clip-path="url(#pe2185e889e)" d="M 309.319624 244.8 
L 312.305506 244.8 
L 312.305506 244.8 
L 309.319624 244.8 
z
" style="fill:#5bc0de;"/>
   </g>
   <g id="patch_65">
    <path clip-path="url(#pe2185e889e)" d="M 312.305506 244.8 
L 315.291388 244.8 
L 315.291388 243.559385 
L 312.305506 243.559385 
z
" style="fill:#5bc0de;"/>
   </g>
   <g id="patch_66">
    <path clip-path="url(#pe2185e889e)" d="M 315.291388 244.8 
L 318.277271 244.8 
L 318.277271 244.8 
L 315.291388 244.8 
z
" style="fill:#5bc0de;"/>
   </g>
   <g id="patch_67">
    <path clip-path="url(#pe2185e889e)" d="M 318.277271 244.8 
L 321.263153 244.8 
L 321.263153 244.8 
L 318.277271 244.8 
z
" style="fill:#5bc0de;"/>
   </g>
   <g id="patch_68">
    <path clip-path="url(#pe2185e889e)" d="M 321.263153 244.8 
L 324.249035 244.8 
L 324.249035 244.489846 
L 321.263153 244.489846 
z
" style="fill:#5bc0de;"/>
   </g>
   <g id="patch_69">
    <path clip-path="url(#pe2185e889e)" d="M 324.249035 244.8 
L 327.234918 244.8 
L 327.234918 244.8 
L 324.249035 244.8 
z
" style="fill:#5bc0de;"/>
   </g>
   <g id="patch_70">
    <path clip-path="url(#pe2185e889e)" d="M 327.234918 244.8 
L 330.2208 244.8 
L 330.2208 244.644923 
L 327.234918 244.644923 
z
" style="fill:#5bc0de;"/>
   </g>
   <g id="matplotlib.axis_1">
    <g id="text_1">
     <!-- Statistic of interest -->
     <defs>
      <path d="M 53.515625 70.515625 
L 53.515625 60.890625 
Q 47.90625 63.578125 42.921875 64.890625 
Q 37.9375 66.21875 33.296875 66.21875 
Q 25.25 66.21875 20.875 63.09375 
Q 16.5 59.96875 16.5 54.203125 
Q 16.5 49.359375 19.40625 46.890625 
Q 22.3125 44.4375 30.421875 42.921875 
L 36.375 41.703125 
Q 47.40625 39.59375 52.65625 34.296875 
Q 57.90625 29 57.90625 20.125 
Q 57.90625 9.515625 50.796875 4.046875 
Q 43.703125 -1.421875 29.984375 -1.421875 
Q 24.8125 -1.421875 18.96875 -0.25 
Q 13.140625 0.921875 6.890625 3.21875 
L 6.890625 13.375 
Q 12.890625 10.015625 18.65625 8.296875 
Q 24.421875 6.59375 29.984375 6.59375 
Q 38.421875 6.59375 43.015625 9.90625 
Q 47.609375 13.234375 47.609375 19.390625 
Q 47.609375 24.75 44.3125 27.78125 
Q 41.015625 30.8125 33.5 32.328125 
L 27.484375 33.5 
Q 16.453125 35.6875 11.515625 40.375 
Q 6.59375 45.0625 6.59375 53.421875 
Q 6.59375 63.09375 13.40625 68.65625 
Q 20.21875 74.21875 32.171875 74.21875 
Q 37.3125 74.21875 42.625 73.28125 
Q 47.953125 72.359375 53.515625 70.515625 
" id="DejaVuSans-53"/>
      <path d="M 18.3125 70.21875 
L 18.3125 54.6875 
L 36.8125 54.6875 
L 36.8125 47.703125 
L 18.3125 47.703125 
L 18.3125 18.015625 
Q 18.3125 11.328125 20.140625 9.421875 
Q 21.96875 7.515625 27.59375 7.515625 
L 36.8125 7.515625 
L 36.8125 0 
L 27.59375 0 
Q 17.1875 0 13.234375 3.875 
Q 9.28125 7.765625 9.28125 18.015625 
L 9.28125 47.703125 
L 2.6875 47.703125 
L 2.6875 54.6875 
L 9.28125 54.6875 
L 9.28125 70.21875 
z
" id="DejaVuSans-74"/>
      <path d="M 34.28125 27.484375 
Q 23.390625 27.484375 19.1875 25 
Q 14.984375 22.515625 14.984375 16.5 
Q 14.984375 11.71875 18.140625 8.90625 
Q 21.296875 6.109375 26.703125 6.109375 
Q 34.1875 6.109375 38.703125 11.40625 
Q 43.21875 16.703125 43.21875 25.484375 
L 43.21875 27.484375 
z
M 52.203125 31.203125 
L 52.203125 0 
L 43.21875 0 
L 43.21875 8.296875 
Q 40.140625 3.328125 35.546875 0.953125 
Q 30.953125 -1.421875 24.3125 -1.421875 
Q 15.921875 -1.421875 10.953125 3.296875 
Q 6 8.015625 6 15.921875 
Q 6 25.140625 12.171875 29.828125 
Q 18.359375 34.515625 30.609375 34.515625 
L 43.21875 34.515625 
L 43.21875 35.40625 
Q 43.21875 41.609375 39.140625 45 
Q 35.0625 48.390625 27.6875 48.390625 
Q 23 48.390625 18.546875 47.265625 
Q 14.109375 46.140625 10.015625 43.890625 
L 10.015625 52.203125 
Q 14.9375 54.109375 19.578125 55.046875 
Q 24.21875 56 28.609375 56 
Q 40.484375 56 46.34375 49.84375 
Q 52.203125 43.703125 52.203125 31.203125 
" id="DejaVuSans-61"/>
      <path d="M 9.421875 54.6875 
L 18.40625 54.6875 
L 18.40625 0 
L 9.421875 0 
z
M 9.421875 75.984375 
L 18.40625 75.984375 
L 18.40625 64.59375 
L 9.421875 64.59375 
z
" id="DejaVuSans-69"/>
      <path d="M 44.28125 53.078125 
L 44.28125 44.578125 
Q 40.484375 46.53125 36.375 47.5 
Q 32.28125 48.484375 27.875 48.484375 
Q 21.1875 48.484375 17.84375 46.4375 
Q 14.5 44.390625 14.5 40.28125 
Q 14.5 37.15625 16.890625 35.375 
Q 19.28125 33.59375 26.515625 31.984375 
L 29.59375 31.296875 
Q 39.15625 29.25 43.1875 25.515625 
Q 47.21875 21.78125 47.21875 15.09375 
Q 47.21875 7.46875 41.1875 3.015625 
Q 35.15625 -1.421875 24.609375 -1.421875 
Q 20.21875 -1.421875 15.453125 -0.5625 
Q 10.6875 0.296875 5.421875 2 
L 5.421875 11.28125 
Q 10.40625 8.6875 15.234375 7.390625 
Q 20.0625 6.109375 24.8125 6.109375 
Q 31.15625 6.109375 34.5625 8.28125 
Q 37.984375 10.453125 37.984375 14.40625 
Q 37.984375 18.0625 35.515625 20.015625 
Q 33.0625 21.96875 24.703125 23.78125 
L 21.578125 24.515625 
Q 13.234375 26.265625 9.515625 29.90625 
Q 5.8125 33.546875 5.8125 39.890625 
Q 5.8125 47.609375 11.28125 51.796875 
Q 16.75 56 26.8125 56 
Q 31.78125 56 36.171875 55.265625 
Q 40.578125 54.546875 44.28125 53.078125 
" id="DejaVuSans-73"/>
      <path d="M 48.78125 52.59375 
L 48.78125 44.1875 
Q 44.96875 46.296875 41.140625 47.34375 
Q 37.3125 48.390625 33.40625 48.390625 
Q 24.65625 48.390625 19.8125 42.84375 
Q 14.984375 37.3125 14.984375 27.296875 
Q 14.984375 17.28125 19.8125 11.734375 
Q 24.65625 6.203125 33.40625 6.203125 
Q 37.3125 6.203125 41.140625 7.25 
Q 44.96875 8.296875 48.78125 10.40625 
L 48.78125 2.09375 
Q 45.015625 0.34375 40.984375 -0.53125 
Q 36.96875 -1.421875 32.421875 -1.421875 
Q 20.0625 -1.421875 12.78125 6.34375 
Q 5.515625 14.109375 5.515625 27.296875 
Q 5.515625 40.671875 12.859375 48.328125 
Q 20.21875 56 33.015625 56 
Q 37.15625 56 41.109375 55.140625 
Q 45.0625 54.296875 48.78125 52.59375 
" id="DejaVuSans-63"/>
      <path id="DejaVuSans-20"/>
      <path d="M 30.609375 48.390625 
Q 23.390625 48.390625 19.1875 42.75 
Q 14.984375 37.109375 14.984375 27.296875 
Q 14.984375 17.484375 19.15625 11.84375 
Q 23.34375 6.203125 30.609375 6.203125 
Q 37.796875 6.203125 41.984375 11.859375 
Q 46.1875 17.53125 46.1875 27.296875 
Q 46.1875 37.015625 41.984375 42.703125 
Q 37.796875 48.390625 30.609375 48.390625 
M 30.609375 56 
Q 42.328125 56 49.015625 48.375 
Q 55.71875 40.765625 55.71875 27.296875 
Q 55.71875 13.875 49.015625 6.21875 
Q 42.328125 -1.421875 30.609375 -1.421875 
Q 18.84375 -1.421875 12.171875 6.21875 
Q 5.515625 13.875 5.515625 27.296875 
Q 5.515625 40.765625 12.171875 48.375 
Q 18.84375 56 30.609375 56 
" id="DejaVuSans-6f"/>
      <path d="M 37.109375 75.984375 
L 37.109375 68.5 
L 28.515625 68.5 
Q 23.6875 68.5 21.796875 66.546875 
Q 19.921875 64.59375 19.921875 59.515625 
L 19.921875 54.6875 
L 34.71875 54.6875 
L 34.71875 47.703125 
L 19.921875 47.703125 
L 19.921875 0 
L 10.890625 0 
L 10.890625 47.703125 
L 2.296875 47.703125 
L 2.296875 54.6875 
L 10.890625 54.6875 
L 10.890625 58.5 
Q 10.890625 67.625 15.140625 71.796875 
Q 19.390625 75.984375 28.609375 75.984375 
z
" id="DejaVuSans-66"/>
      <path d="M 54.890625 33.015625 
L 54.890625 0 
L 45.90625 0 
L 45.90625 32.71875 
Q 45.90625 40.484375 42.875 44.328125 
Q 39.84375 48.1875 33.796875 48.1875 
Q 26.515625 48.1875 22.3125 43.546875 
Q 18.109375 38.921875 18.109375 30.90625 
L 18.109375 0 
L 9.078125 0 
L 9.078125 54.6875 
L 18.109375 54.6875 
L 18.109375 46.1875 
Q 21.34375 51.125 25.703125 53.5625 
Q 30.078125 56 35.796875 56 
Q 45.21875 56 50.046875 50.171875 
Q 54.890625 44.34375 54.890625 33.015625 
" id="DejaVuSans-6e"/>
      <path d="M 56.203125 29.59375 
L 56.203125 25.203125 
L 14.890625 25.203125 
Q 15.484375 15.921875 20.484375 11.0625 
Q 25.484375 6.203125 34.421875 6.203125 
Q 39.59375 6.203125 44.453125 7.46875 
Q 49.3125 8.734375 54.109375 11.28125 
L 54.109375 2.78125 
Q 49.265625 0.734375 44.1875 -0.34375 
Q 39.109375 -1.421875 33.890625 -1.421875 
Q 20.796875 -1.421875 13.15625 6.1875 
Q 5.515625 13.8125 5.515625 26.8125 
Q 5.515625 40.234375 12.765625 48.109375 
Q 20.015625 56 32.328125 56 
Q 43.359375 56 49.78125 48.890625 
Q 56.203125 41.796875 56.203125 29.59375 
M 47.21875 32.234375 
Q 47.125 39.59375 43.09375 43.984375 
Q 39.0625 48.390625 32.421875 48.390625 
Q 24.90625 48.390625 20.390625 44.140625 
Q 15.875 39.890625 15.1875 32.171875 
z
" id="DejaVuSans-65"/>
      <path d="M 41.109375 46.296875 
Q 39.59375 47.171875 37.8125 47.578125 
Q 36.03125 48 33.890625 48 
Q 26.265625 48 22.1875 43.046875 
Q 18.109375 38.09375 18.109375 28.8125 
L 18.109375 0 
L 9.078125 0 
L 9.078125 54.6875 
L 18.109375 54.6875 
L 18.109375 46.1875 
Q 20.953125 51.171875 25.484375 53.578125 
Q 30.03125 56 36.53125 56 
Q 37.453125 56 38.578125 55.875 
Q 39.703125 55.765625 41.0625 55.515625 
z
" id="DejaVuSans-72"/>
     </defs>
     <g style="fill:#d2d2d2;" transform="translate(153.332578 264.167188)scale(0.15 -0.15)">
      <use xlink:href="#DejaVuSans-53"/>
      <use x="63.476562" xlink:href="#DejaVuSans-74"/>
      <use x="102.685547" xlink:href="#DejaVuSans-61"/>
      <use x="163.964844" xlink:href="#DejaVuSans-74"/>
      <use x="203.173828" xlink:href="#DejaVuSans-69"/>
      <use x="230.957031" xlink:href="#DejaVuSans-73"/>
      <use x="283.056641" xlink:href="#DejaVuSans-74"/>
      <use x="322.265625" xlink:href="#DejaVuSans-69"/>
      <use x="350.048828" xlink:href="#DejaVuSans-63"/>
      <use x="405.029297" xlink:href="#DejaVuSans-20"/>
      <use x="436.816406" xlink:href="#DejaVuSans-6f"/>
      <use x="497.998047" xlink:href="#DejaVuSans-66"/>
      <use x="533.203125" xlink:href="#DejaVuSans-20"/>
      <use x="564.990234" xlink:href="#DejaVuSans-69"/>
      <use x="592.773438" xlink:href="#DejaVuSans-6e"/>
      <use x="656.152344" xlink:href="#DejaVuSans-74"/>
      <use x="695.361328" xlink:href="#DejaVuSans-65"/>
      <use x="756.884766" xlink:href="#DejaVuSans-72"/>
      <use x="797.966797" xlink:href="#DejaVuSans-65"/>
      <use x="859.490234" xlink:href="#DejaVuSans-73"/>
      <use x="911.589844" xlink:href="#DejaVuSans-74"/>
     </g>
     <!-- ($\hat{p}$, ...) -->
     <defs>
      <path d="M 31 75.875 
Q 24.46875 64.65625 21.28125 53.65625 
Q 18.109375 42.671875 18.109375 31.390625 
Q 18.109375 20.125 21.3125 9.0625 
Q 24.515625 -2 31 -13.1875 
L 23.1875 -13.1875 
Q 15.875 -1.703125 12.234375 9.375 
Q 8.59375 20.453125 8.59375 31.390625 
Q 8.59375 42.28125 12.203125 53.3125 
Q 15.828125 64.359375 23.1875 75.875 
z
" id="DejaVuSans-28"/>
      <path d="M -28.609375 79.984375 
L -21.390625 79.984375 
L -9.421875 61.625 
L -16.21875 61.625 
L -25 73.578125 
L -33.796875 61.625 
L -40.578125 61.625 
z
M -25 56 
z
" id="DejaVuSans-302"/>
      <path d="M 49.609375 33.6875 
Q 49.609375 40.875 46.484375 44.671875 
Q 43.359375 48.484375 37.5 48.484375 
Q 33.5 48.484375 29.859375 46.4375 
Q 26.21875 44.390625 23.390625 40.484375 
Q 20.609375 36.625 18.9375 31.15625 
Q 17.28125 25.6875 17.28125 20.3125 
Q 17.28125 13.484375 20.40625 9.796875 
Q 23.53125 6.109375 29.296875 6.109375 
Q 33.546875 6.109375 37.1875 8.109375 
Q 40.828125 10.109375 43.40625 13.921875 
Q 46.1875 17.921875 47.890625 23.34375 
Q 49.609375 28.765625 49.609375 33.6875 
M 21.78125 46.390625 
Q 25.390625 51.125 30.296875 53.5625 
Q 35.203125 56 41.21875 56 
Q 49.609375 56 54.25 50.5 
Q 58.890625 45.015625 58.890625 35.109375 
Q 58.890625 27 56 19.65625 
Q 53.125 12.3125 47.703125 6.5 
Q 44.09375 2.640625 39.546875 0.609375 
Q 35.015625 -1.421875 29.984375 -1.421875 
Q 24.171875 -1.421875 20.21875 1 
Q 16.265625 3.421875 14.3125 8.203125 
L 8.6875 -20.796875 
L -0.296875 -20.796875 
L 14.40625 54.6875 
L 23.390625 54.6875 
z
" id="DejaVuSans-Oblique-70"/>
      <path d="M 11.71875 12.40625 
L 22.015625 12.40625 
L 22.015625 4 
L 14.015625 -11.625 
L 7.71875 -11.625 
L 11.71875 4 
z
" id="DejaVuSans-2c"/>
      <path d="M 10.6875 12.40625 
L 21 12.40625 
L 21 0 
L 10.6875 0 
z
" id="DejaVuSans-2e"/>
      <path d="M 8.015625 75.875 
L 15.828125 75.875 
Q 23.140625 64.359375 26.78125 53.3125 
Q 30.421875 42.28125 30.421875 31.390625 
Q 30.421875 20.453125 26.78125 9.375 
Q 23.140625 -1.703125 15.828125 -13.1875 
L 8.015625 -13.1875 
Q 14.5 -2 17.703125 9.0625 
Q 20.90625 20.125 20.90625 31.390625 
Q 20.90625 42.671875 17.703125 53.65625 
Q 14.5 64.65625 8.015625 75.875 
" id="DejaVuSans-29"/>
     </defs>
     <g style="fill:#d2d2d2;" transform="translate(202.065 284.026719)scale(0.15 -0.15)">
      <use transform="translate(0 0.515625)" xlink:href="#DejaVuSans-28"/>
      <use transform="translate(103.460938 13.015625)" xlink:href="#DejaVuSans-302"/>
      <use transform="translate(39.013672 0.515625)" xlink:href="#DejaVuSans-Oblique-70"/>
      <use transform="translate(102.490234 0.515625)" xlink:href="#DejaVuSans-2c"/>
      <use transform="translate(134.277344 0.515625)" xlink:href="#DejaVuSans-20"/>
      <use transform="translate(166.064453 0.515625)" xlink:href="#DejaVuSans-2e"/>
      <use transform="translate(197.851562 0.515625)" xlink:href="#DejaVuSans-2e"/>
      <use transform="translate(229.638672 0.515625)" xlink:href="#DejaVuSans-2e"/>
      <use transform="translate(261.425781 0.515625)" xlink:href="#DejaVuSans-29"/>
     </g>
    </g>
   </g>
   <g id="matplotlib.axis_2"/>
   <g id="line2d_1">
    <path clip-path="url(#pe2185e889e)" d="M 224.64 244.8 
L 224.64 43.2 
" style="fill:none;stroke:#d9534f;stroke-dasharray:5.6,2.4;stroke-dashoffset:0;stroke-width:2;"/>
   </g>
   <g id="line2d_2">
    <path clip-path="url(#pe2185e889e)" d="M 184.032 244.8 
L 184.032 119.808 
" style="fill:none;stroke:#f0ad4e;stroke-dasharray:5.6,2.4;stroke-dashoffset:0;stroke-width:2;"/>
   </g>
   <g id="patch_71">
    <path d="M 21.6 244.8 
L 427.68 244.8 
" style="fill:none;stroke:#d2d2d2;stroke-linecap:square;stroke-linejoin:miter;stroke-width:0.8;"/>
   </g>
   <g id="text_2">
    <!-- Parameter of the null distribution -->
    <defs>
     <path d="M 19.671875 64.796875 
L 19.671875 37.40625 
L 32.078125 37.40625 
Q 38.96875 37.40625 42.71875 40.96875 
Q 46.484375 44.53125 46.484375 51.125 
Q 46.484375 57.671875 42.71875 61.234375 
Q 38.96875 64.796875 32.078125 64.796875 
z
M 9.8125 72.90625 
L 32.078125 72.90625 
Q 44.34375 72.90625 50.609375 67.359375 
Q 56.890625 61.8125 56.890625 51.125 
Q 56.890625 40.328125 50.609375 34.8125 
Q 44.34375 29.296875 32.078125 29.296875 
L 19.671875 29.296875 
L 19.671875 0 
L 9.8125 0 
z
" id="DejaVuSans-50"/>
     <path d="M 52 44.1875 
Q 55.375 50.25 60.0625 53.125 
Q 64.75 56 71.09375 56 
Q 79.640625 56 84.28125 50.015625 
Q 88.921875 44.046875 88.921875 33.015625 
L 88.921875 0 
L 79.890625 0 
L 79.890625 32.71875 
Q 79.890625 40.578125 77.09375 44.375 
Q 74.3125 48.1875 68.609375 48.1875 
Q 61.625 48.1875 57.5625 43.546875 
Q 53.515625 38.921875 53.515625 30.90625 
L 53.515625 0 
L 44.484375 0 
L 44.484375 32.71875 
Q 44.484375 40.625 41.703125 44.40625 
Q 38.921875 48.1875 33.109375 48.1875 
Q 26.21875 48.1875 22.15625 43.53125 
Q 18.109375 38.875 18.109375 30.90625 
L 18.109375 0 
L 9.078125 0 
L 9.078125 54.6875 
L 18.109375 54.6875 
L 18.109375 46.1875 
Q 21.1875 51.21875 25.484375 53.609375 
Q 29.78125 56 35.6875 56 
Q 41.65625 56 45.828125 52.96875 
Q 50 49.953125 52 44.1875 
" id="DejaVuSans-6d"/>
     <path d="M 54.890625 33.015625 
L 54.890625 0 
L 45.90625 0 
L 45.90625 32.71875 
Q 45.90625 40.484375 42.875 44.328125 
Q 39.84375 48.1875 33.796875 48.1875 
Q 26.515625 48.1875 22.3125 43.546875 
Q 18.109375 38.921875 18.109375 30.90625 
L 18.109375 0 
L 9.078125 0 
L 9.078125 75.984375 
L 18.109375 75.984375 
L 18.109375 46.1875 
Q 21.34375 51.125 25.703125 53.5625 
Q 30.078125 56 35.796875 56 
Q 45.21875 56 50.046875 50.171875 
Q 54.890625 44.34375 54.890625 33.015625 
" id="DejaVuSans-68"/>
     <path d="M 8.5 21.578125 
L 8.5 54.6875 
L 17.484375 54.6875 
L 17.484375 21.921875 
Q 17.484375 14.15625 20.5 10.265625 
Q 23.53125 6.390625 29.59375 6.390625 
Q 36.859375 6.390625 41.078125 11.03125 
Q 45.3125 15.671875 45.3125 23.6875 
L 45.3125 54.6875 
L 54.296875 54.6875 
L 54.296875 0 
L 45.3125 0 
L 45.3125 8.40625 
Q 42.046875 3.421875 37.71875 1 
Q 33.40625 -1.421875 27.6875 -1.421875 
Q 18.265625 -1.421875 13.375 4.4375 
Q 8.5 10.296875 8.5 21.578125 
M 31.109375 56 
z
" id="DejaVuSans-75"/>
     <path d="M 9.421875 75.984375 
L 18.40625 75.984375 
L 18.40625 0 
L 9.421875 0 
z
" id="DejaVuSans-6c"/>
     <path d="M 45.40625 46.390625 
L 45.40625 75.984375 
L 54.390625 75.984375 
L 54.390625 0 
L 45.40625 0 
L 45.40625 8.203125 
Q 42.578125 3.328125 38.25 0.953125 
Q 33.9375 -1.421875 27.875 -1.421875 
Q 17.96875 -1.421875 11.734375 6.484375 
Q 5.515625 14.40625 5.515625 27.296875 
Q 5.515625 40.1875 11.734375 48.09375 
Q 17.96875 56 27.875 56 
Q 33.9375 56 38.25 53.625 
Q 42.578125 51.265625 45.40625 46.390625 
M 14.796875 27.296875 
Q 14.796875 17.390625 18.875 11.75 
Q 22.953125 6.109375 30.078125 6.109375 
Q 37.203125 6.109375 41.296875 11.75 
Q 45.40625 17.390625 45.40625 27.296875 
Q 45.40625 37.203125 41.296875 42.84375 
Q 37.203125 48.484375 30.078125 48.484375 
Q 22.953125 48.484375 18.875 42.84375 
Q 14.796875 37.203125 14.796875 27.296875 
" id="DejaVuSans-64"/>
     <path d="M 48.6875 27.296875 
Q 48.6875 37.203125 44.609375 42.84375 
Q 40.53125 48.484375 33.40625 48.484375 
Q 26.265625 48.484375 22.1875 42.84375 
Q 18.109375 37.203125 18.109375 27.296875 
Q 18.109375 17.390625 22.1875 11.75 
Q 26.265625 6.109375 33.40625 6.109375 
Q 40.53125 6.109375 44.609375 11.75 
Q 48.6875 17.390625 48.6875 27.296875 
M 18.109375 46.390625 
Q 20.953125 51.265625 25.265625 53.625 
Q 29.59375 56 35.59375 56 
Q 45.5625 56 51.78125 48.09375 
Q 58.015625 40.1875 58.015625 27.296875 
Q 58.015625 14.40625 51.78125 6.484375 
Q 45.5625 -1.421875 35.59375 -1.421875 
Q 29.59375 -1.421875 25.265625 0.953125 
Q 20.953125 3.328125 18.109375 8.203125 
L 18.109375 0 
L 9.078125 0 
L 9.078125 75.984375 
L 18.109375 75.984375 
z
" id="DejaVuSans-62"/>
    </defs>
    <g style="fill:#d9534f;" transform="translate(99.803672 16.323281)scale(0.15 -0.15)">
     <use xlink:href="#DejaVuSans-50"/>
     <use x="60.240234" xlink:href="#DejaVuSans-61"/>
     <use x="121.519531" xlink:href="#DejaVuSans-72"/>
     <use x="162.632812" xlink:href="#DejaVuSans-61"/>
     <use x="223.912109" xlink:href="#DejaVuSans-6d"/>
     <use x="321.324219" xlink:href="#DejaVuSans-65"/>
     <use x="382.847656" xlink:href="#DejaVuSans-74"/>
     <use x="422.056641" xlink:href="#DejaVuSans-65"/>
     <use x="483.580078" xlink:href="#DejaVuSans-72"/>
     <use x="524.693359" xlink:href="#DejaVuSans-20"/>
     <use x="556.480469" xlink:href="#DejaVuSans-6f"/>
     <use x="617.662109" xlink:href="#DejaVuSans-66"/>
     <use x="652.867188" xlink:href="#DejaVuSans-20"/>
     <use x="684.654297" xlink:href="#DejaVuSans-74"/>
     <use x="723.863281" xlink:href="#DejaVuSans-68"/>
     <use x="787.242188" xlink:href="#DejaVuSans-65"/>
     <use x="848.765625" xlink:href="#DejaVuSans-20"/>
     <use x="880.552734" xlink:href="#DejaVuSans-6e"/>
     <use x="943.931641" xlink:href="#DejaVuSans-75"/>
     <use x="1007.310547" xlink:href="#DejaVuSans-6c"/>
     <use x="1035.09375" xlink:href="#DejaVuSans-6c"/>
     <use x="1062.876953" xlink:href="#DejaVuSans-20"/>
     <use x="1094.664062" xlink:href="#DejaVuSans-64"/>
     <use x="1158.140625" xlink:href="#DejaVuSans-69"/>
     <use x="1185.923828" xlink:href="#DejaVuSans-73"/>
     <use x="1238.023438" xlink:href="#DejaVuSans-74"/>
     <use x="1277.232422" xlink:href="#DejaVuSans-72"/>
     <use x="1318.345703" xlink:href="#DejaVuSans-69"/>
     <use x="1346.128906" xlink:href="#DejaVuSans-62"/>
     <use x="1409.605469" xlink:href="#DejaVuSans-75"/>
     <use x="1472.984375" xlink:href="#DejaVuSans-74"/>
     <use x="1512.193359" xlink:href="#DejaVuSans-69"/>
     <use x="1539.976562" xlink:href="#DejaVuSans-6f"/>
     <use x="1601.158203" xlink:href="#DejaVuSans-6e"/>
    </g>
    <!-- ($\pi_0$, ...) -->
    <defs>
     <path d="M 9.125 54.6875 
L 61.53125 54.6875 
L 59.765625 45.703125 
L 52.875 45.703125 
L 46.34375 12.109375 
Q 45.65625 8.59375 46.578125 7.03125 
Q 47.46875 5.515625 50.140625 5.515625 
Q 50.875 5.515625 51.953125 5.671875 
Q 53.078125 5.765625 53.421875 5.8125 
L 52.15625 -0.6875 
Q 50.34375 -1.3125 48.484375 -1.609375 
Q 46.578125 -1.90625 44.78125 -1.90625 
Q 38.921875 -1.90625 37.3125 1.265625 
Q 35.6875 4.5 37.359375 13.09375 
L 43.703125 45.703125 
L 23.53125 45.703125 
L 14.65625 0 
L 5.46875 0 
L 14.359375 45.703125 
L 7.375 45.703125 
z
" id="DejaVuSans-Oblique-3c0"/>
     <path d="M 31.78125 66.40625 
Q 24.171875 66.40625 20.328125 58.90625 
Q 16.5 51.421875 16.5 36.375 
Q 16.5 21.390625 20.328125 13.890625 
Q 24.171875 6.390625 31.78125 6.390625 
Q 39.453125 6.390625 43.28125 13.890625 
Q 47.125 21.390625 47.125 36.375 
Q 47.125 51.421875 43.28125 58.90625 
Q 39.453125 66.40625 31.78125 66.40625 
M 31.78125 74.21875 
Q 44.046875 74.21875 50.515625 64.515625 
Q 56.984375 54.828125 56.984375 36.375 
Q 56.984375 17.96875 50.515625 8.265625 
Q 44.046875 -1.421875 31.78125 -1.421875 
Q 19.53125 -1.421875 13.0625 8.265625 
Q 6.59375 17.96875 6.59375 36.375 
Q 6.59375 54.828125 13.0625 64.515625 
Q 19.53125 74.21875 31.78125 74.21875 
" id="DejaVuSans-30"/>
    </defs>
    <g style="fill:#d9534f;" transform="translate(198.765 33.12)scale(0.15 -0.15)">
     <use transform="translate(0 0.125)" xlink:href="#DejaVuSans-28"/>
     <use transform="translate(39.013672 0.125)" xlink:href="#DejaVuSans-Oblique-3c0"/>
     <use transform="translate(99.21875 -16.28125)scale(0.7)" xlink:href="#DejaVuSans-30"/>
     <use transform="translate(146.489258 0.125)" xlink:href="#DejaVuSans-2c"/>
     <use transform="translate(178.276367 0.125)" xlink:href="#DejaVuSans-20"/>
     <use transform="translate(210.063477 0.125)" xlink:href="#DejaVuSans-2e"/>
     <use transform="translate(241.850586 0.125)" xlink:href="#DejaVuSans-2e"/>
     <use transform="translate(273.637695 0.125)" xlink:href="#DejaVuSans-2e"/>
     <use transform="translate(305.424805 0.125)" xlink:href="#DejaVuSans-29"/>
    </g>
   </g>
   <g id="text_3">
    <!-- Observed statistic ($\hat{p}$, ...) -->
    <defs>
     <path d="M 39.40625 66.21875 
Q 28.65625 66.21875 22.328125 58.203125 
Q 16.015625 50.203125 16.015625 36.375 
Q 16.015625 22.609375 22.328125 14.59375 
Q 28.65625 6.59375 39.40625 6.59375 
Q 50.140625 6.59375 56.421875 14.59375 
Q 62.703125 22.609375 62.703125 36.375 
Q 62.703125 50.203125 56.421875 58.203125 
Q 50.140625 66.21875 39.40625 66.21875 
M 39.40625 74.21875 
Q 54.734375 74.21875 63.90625 63.9375 
Q 73.09375 53.65625 73.09375 36.375 
Q 73.09375 19.140625 63.90625 8.859375 
Q 54.734375 -1.421875 39.40625 -1.421875 
Q 24.03125 -1.421875 14.8125 8.828125 
Q 5.609375 19.09375 5.609375 36.375 
Q 5.609375 53.65625 14.8125 63.9375 
Q 24.03125 74.21875 39.40625 74.21875 
" id="DejaVuSans-4f"/>
     <path d="M 2.984375 54.6875 
L 12.5 54.6875 
L 29.59375 8.796875 
L 46.6875 54.6875 
L 56.203125 54.6875 
L 35.6875 0 
L 23.484375 0 
z
" id="DejaVuSans-76"/>
    </defs>
    <g style="fill:#f0ad4e;" transform="translate(-1.818 96.452812)scale(0.15 -0.15)">
     <use transform="translate(0 0.515625)" xlink:href="#DejaVuSans-4f"/>
     <use transform="translate(78.710938 0.515625)" xlink:href="#DejaVuSans-62"/>
     <use transform="translate(142.1875 0.515625)" xlink:href="#DejaVuSans-73"/>
     <use transform="translate(194.287109 0.515625)" xlink:href="#DejaVuSans-65"/>
     <use transform="translate(255.810547 0.515625)" xlink:href="#DejaVuSans-72"/>
     <use transform="translate(296.923828 0.515625)" xlink:href="#DejaVuSans-76"/>
     <use transform="translate(356.103516 0.515625)" xlink:href="#DejaVuSans-65"/>
     <use transform="translate(417.626953 0.515625)" xlink:href="#DejaVuSans-64"/>
     <use transform="translate(481.103516 0.515625)" xlink:href="#DejaVuSans-20"/>
     <use transform="translate(512.890625 0.515625)" xlink:href="#DejaVuSans-73"/>
     <use transform="translate(564.990234 0.515625)" xlink:href="#DejaVuSans-74"/>
     <use transform="translate(604.199219 0.515625)" xlink:href="#DejaVuSans-61"/>
     <use transform="translate(665.478516 0.515625)" xlink:href="#DejaVuSans-74"/>
     <use transform="translate(704.6875 0.515625)" xlink:href="#DejaVuSans-69"/>
     <use transform="translate(732.470703 0.515625)" xlink:href="#DejaVuSans-73"/>
     <use transform="translate(784.570312 0.515625)" xlink:href="#DejaVuSans-74"/>
     <use transform="translate(823.779297 0.515625)" xlink:href="#DejaVuSans-69"/>
     <use transform="translate(851.5625 0.515625)" xlink:href="#DejaVuSans-63"/>
     <use transform="translate(906.542969 0.515625)" xlink:href="#DejaVuSans-20"/>
     <use transform="translate(938.330078 0.515625)" xlink:href="#DejaVuSans-28"/>
     <use transform="translate(1041.791016 13.015625)" xlink:href="#DejaVuSans-302"/>
     <use transform="translate(977.34375 0.515625)" xlink:href="#DejaVuSans-Oblique-70"/>
     <use transform="translate(1040.820312 0.515625)" xlink:href="#DejaVuSans-2c"/>
     <use transform="translate(1072.607422 0.515625)" xlink:href="#DejaVuSans-20"/>
     <use transform="translate(1104.394531 0.515625)" xlink:href="#DejaVuSans-2e"/>
     <use transform="translate(1136.181641 0.515625)" xlink:href="#DejaVuSans-2e"/>
     <use transform="translate(1167.96875 0.515625)" xlink:href="#DejaVuSans-2e"/>
     <use transform="translate(1199.755859 0.515625)" xlink:href="#DejaVuSans-29"/>
    </g>
    <!-- in the original sample  -->
    <defs>
     <path d="M 45.40625 27.984375 
Q 45.40625 37.75 41.375 43.109375 
Q 37.359375 48.484375 30.078125 48.484375 
Q 22.859375 48.484375 18.828125 43.109375 
Q 14.796875 37.75 14.796875 27.984375 
Q 14.796875 18.265625 18.828125 12.890625 
Q 22.859375 7.515625 30.078125 7.515625 
Q 37.359375 7.515625 41.375 12.890625 
Q 45.40625 18.265625 45.40625 27.984375 
M 54.390625 6.78125 
Q 54.390625 -7.171875 48.1875 -13.984375 
Q 42 -20.796875 29.203125 -20.796875 
Q 24.46875 -20.796875 20.265625 -20.09375 
Q 16.0625 -19.390625 12.109375 -17.921875 
L 12.109375 -9.1875 
Q 16.0625 -11.328125 19.921875 -12.34375 
Q 23.78125 -13.375 27.78125 -13.375 
Q 36.625 -13.375 41.015625 -8.765625 
Q 45.40625 -4.15625 45.40625 5.171875 
L 45.40625 9.625 
Q 42.625 4.78125 38.28125 2.390625 
Q 33.9375 0 27.875 0 
Q 17.828125 0 11.671875 7.65625 
Q 5.515625 15.328125 5.515625 27.984375 
Q 5.515625 40.671875 11.671875 48.328125 
Q 17.828125 56 27.875 56 
Q 33.9375 56 38.28125 53.609375 
Q 42.625 51.21875 45.40625 46.390625 
L 45.40625 54.6875 
L 54.390625 54.6875 
z
" id="DejaVuSans-67"/>
     <path d="M 18.109375 8.203125 
L 18.109375 -20.796875 
L 9.078125 -20.796875 
L 9.078125 54.6875 
L 18.109375 54.6875 
L 18.109375 46.390625 
Q 20.953125 51.265625 25.265625 53.625 
Q 29.59375 56 35.59375 56 
Q 45.5625 56 51.78125 48.09375 
Q 58.015625 40.1875 58.015625 27.296875 
Q 58.015625 14.40625 51.78125 6.484375 
Q 45.5625 -1.421875 35.59375 -1.421875 
Q 29.59375 -1.421875 25.265625 0.953125 
Q 20.953125 3.328125 18.109375 8.203125 
M 48.6875 27.296875 
Q 48.6875 37.203125 44.609375 42.84375 
Q 40.53125 48.484375 33.40625 48.484375 
Q 26.265625 48.484375 22.1875 42.84375 
Q 18.109375 37.203125 18.109375 27.296875 
Q 18.109375 17.390625 22.1875 11.75 
Q 26.265625 6.109375 33.40625 6.109375 
Q 40.53125 6.109375 44.609375 11.75 
Q 48.6875 17.390625 48.6875 27.296875 
" id="DejaVuSans-70"/>
    </defs>
    <g style="fill:#f0ad4e;" transform="translate(16.0695 113.28)scale(0.15 -0.15)">
     <use xlink:href="#DejaVuSans-69"/>
     <use x="27.783203" xlink:href="#DejaVuSans-6e"/>
     <use x="91.162109" xlink:href="#DejaVuSans-20"/>
     <use x="122.949219" xlink:href="#DejaVuSans-74"/>
     <use x="162.158203" xlink:href="#DejaVuSans-68"/>
     <use x="225.537109" xlink:href="#DejaVuSans-65"/>
     <use x="287.060547" xlink:href="#DejaVuSans-20"/>
     <use x="318.847656" xlink:href="#DejaVuSans-6f"/>
     <use x="380.029297" xlink:href="#DejaVuSans-72"/>
     <use x="421.142578" xlink:href="#DejaVuSans-69"/>
     <use x="448.925781" xlink:href="#DejaVuSans-67"/>
     <use x="512.402344" xlink:href="#DejaVuSans-69"/>
     <use x="540.185547" xlink:href="#DejaVuSans-6e"/>
     <use x="603.564453" xlink:href="#DejaVuSans-61"/>
     <use x="664.84375" xlink:href="#DejaVuSans-6c"/>
     <use x="692.626953" xlink:href="#DejaVuSans-20"/>
     <use x="724.414062" xlink:href="#DejaVuSans-73"/>
     <use x="776.513672" xlink:href="#DejaVuSans-61"/>
     <use x="837.792969" xlink:href="#DejaVuSans-6d"/>
     <use x="935.205078" xlink:href="#DejaVuSans-70"/>
     <use x="998.681641" xlink:href="#DejaVuSans-6c"/>
     <use x="1026.464844" xlink:href="#DejaVuSans-65"/>
     <use x="1087.988281" xlink:href="#DejaVuSans-20"/>
    </g>
   </g>
  </g>
 </g>
 <defs>
  <clipPath id="pe2185e889e">
   <rect height="201.6" width="406.08" x="21.6" y="43.2"/>
  </clipPath>
 </defs>
</svg>
