<?xml version="1.0" encoding="utf-8" standalone="no"?>
<!DOCTYPE svg PUBLIC "-//W3C//DTD SVG 1.1//EN"
  "http://www.w3.org/Graphics/SVG/1.1/DTD/svg11.dtd">
<!-- Created with matplotlib (http://matplotlib.org/) -->
<svg height="288pt" version="1.1" viewBox="0 0 648 288" width="648pt" xmlns="http://www.w3.org/2000/svg" xmlns:xlink="http://www.w3.org/1999/xlink">
 <defs>
  <style type="text/css">
*{stroke-linecap:butt;stroke-linejoin:round;}
  </style>
 </defs>
 <g id="figure_1">
  <g id="patch_1">
   <path d="M 0 288 
L 648 288 
L 648 0 
L 0 0 
z
" style="fill:none;"/>
  </g>
  <g id="axes_1">
   <g id="patch_2">
    <path d="M 6.48 236.16 
L 274.516364 236.16 
L 274.516364 46.08 
L 6.48 46.08 
z
" style="fill:none;"/>
   </g>
   <g id="patch_3">
    <path clip-path="url(#p42663a3087)" d="M 18.663471 236.16 
L 22.658052 236.16 
L 22.658052 235.797217 
L 18.663471 235.797217 
z
" style="fill:#5bc0de;"/>
   </g>
   <g id="patch_4">
    <path clip-path="url(#p42663a3087)" d="M 22.658052 236.16 
L 26.652632 236.16 
L 26.652632 235.797217 
L 22.658052 235.797217 
z
" style="fill:#5bc0de;"/>
   </g>
   <g id="patch_5">
    <path clip-path="url(#p42663a3087)" d="M 26.652632 236.16 
L 30.647213 236.16 
L 30.647213 235.797217 
L 26.652632 235.797217 
z
" style="fill:#5bc0de;"/>
   </g>
   <g id="patch_6">
    <path clip-path="url(#p42663a3087)" d="M 30.647213 236.16 
L 34.641794 236.16 
L 34.641794 236.16 
L 30.647213 236.16 
z
" style="fill:#5bc0de;"/>
   </g>
   <g id="patch_7">
    <path clip-path="url(#p42663a3087)" d="M 34.641794 236.16 
L 38.636374 236.16 
L 38.636374 236.16 
L 34.641794 236.16 
z
" style="fill:#5bc0de;"/>
   </g>
   <g id="patch_8">
    <path clip-path="url(#p42663a3087)" d="M 38.636374 236.16 
L 42.630955 236.16 
L 42.630955 236.16 
L 38.636374 236.16 
z
" style="fill:#5bc0de;"/>
   </g>
   <g id="patch_9">
    <path clip-path="url(#p42663a3087)" d="M 42.630955 236.16 
L 46.625536 236.16 
L 46.625536 234.346086 
L 42.630955 234.346086 
z
" style="fill:#5bc0de;"/>
   </g>
   <g id="patch_10">
    <path clip-path="url(#p42663a3087)" d="M 46.625536 236.16 
L 50.620117 236.16 
L 50.620117 234.708869 
L 46.625536 234.708869 
z
" style="fill:#5bc0de;"/>
   </g>
   <g id="patch_11">
    <path clip-path="url(#p42663a3087)" d="M 50.620117 236.16 
L 54.614697 236.16 
L 54.614697 235.434435 
L 50.620117 235.434435 
z
" style="fill:#5bc0de;"/>
   </g>
   <g id="patch_12">
    <path clip-path="url(#p42663a3087)" d="M 54.614697 236.16 
L 58.609278 236.16 
L 58.609278 232.894956 
L 54.614697 232.894956 
z
" style="fill:#5bc0de;"/>
   </g>
   <g id="patch_13">
    <path clip-path="url(#p42663a3087)" d="M 58.609278 236.16 
L 62.603859 236.16 
L 62.603859 232.894956 
L 58.609278 232.894956 
z
" style="fill:#5bc0de;"/>
   </g>
   <g id="patch_14">
    <path clip-path="url(#p42663a3087)" d="M 62.603859 236.16 
L 66.598439 236.16 
L 66.598439 227.815998 
L 62.603859 227.815998 
z
" style="fill:#5bc0de;"/>
   </g>
   <g id="patch_15">
    <path clip-path="url(#p42663a3087)" d="M 66.598439 236.16 
L 70.59302 236.16 
L 70.59302 226.72765 
L 66.598439 226.72765 
z
" style="fill:#5bc0de;"/>
   </g>
   <g id="patch_16">
    <path clip-path="url(#p42663a3087)" d="M 70.59302 236.16 
L 74.587601 236.16 
L 74.587601 227.815998 
L 70.59302 227.815998 
z
" style="fill:#5bc0de;"/>
   </g>
   <g id="patch_17">
    <path clip-path="url(#p42663a3087)" d="M 74.587601 236.16 
L 78.582181 236.16 
L 78.582181 218.020865 
L 74.587601 218.020865 
z
" style="fill:#5bc0de;"/>
   </g>
   <g id="patch_18">
    <path clip-path="url(#p42663a3087)" d="M 78.582181 236.16 
L 82.576762 236.16 
L 82.576762 215.118603 
L 78.582181 215.118603 
z
" style="fill:#5bc0de;"/>
   </g>
   <g id="patch_19">
    <path clip-path="url(#p42663a3087)" d="M 82.576762 236.16 
L 86.571343 236.16 
L 86.571343 214.030255 
L 82.576762 214.030255 
z
" style="fill:#5bc0de;"/>
   </g>
   <g id="patch_20">
    <path clip-path="url(#p42663a3087)" d="M 86.571343 236.16 
L 90.565923 236.16 
L 90.565923 200.607295 
L 86.571343 200.607295 
z
" style="fill:#5bc0de;"/>
   </g>
   <g id="patch_21">
    <path clip-path="url(#p42663a3087)" d="M 90.565923 236.16 
L 94.560504 236.16 
L 94.560504 198.430598 
L 90.565923 198.430598 
z
" style="fill:#5bc0de;"/>
   </g>
   <g id="patch_22">
    <path clip-path="url(#p42663a3087)" d="M 94.560504 236.16 
L 98.555085 236.16 
L 98.555085 192.626075 
L 94.560504 192.626075 
z
" style="fill:#5bc0de;"/>
   </g>
   <g id="patch_23">
    <path clip-path="url(#p42663a3087)" d="M 98.555085 236.16 
L 102.549665 236.16 
L 102.549665 181.017028 
L 98.555085 181.017028 
z
" style="fill:#5bc0de;"/>
   </g>
   <g id="patch_24">
    <path clip-path="url(#p42663a3087)" d="M 102.549665 236.16 
L 106.544246 236.16 
L 106.544246 161.063979 
L 102.549665 161.063979 
z
" style="fill:#5bc0de;"/>
   </g>
   <g id="patch_25">
    <path clip-path="url(#p42663a3087)" d="M 106.544246 236.16 
L 110.538827 236.16 
L 110.538827 153.08276 
L 106.544246 153.08276 
z
" style="fill:#5bc0de;"/>
   </g>
   <g id="patch_26">
    <path clip-path="url(#p42663a3087)" d="M 110.538827 236.16 
L 114.533407 236.16 
L 114.533407 154.171108 
L 110.538827 154.171108 
z
" style="fill:#5bc0de;"/>
   </g>
   <g id="patch_27">
    <path clip-path="url(#p42663a3087)" d="M 114.533407 236.16 
L 118.527988 236.16 
L 118.527988 128.050753 
L 114.533407 128.050753 
z
" style="fill:#5bc0de;"/>
   </g>
   <g id="patch_28">
    <path clip-path="url(#p42663a3087)" d="M 118.527988 236.16 
L 122.522569 236.16 
L 122.522569 111.725531 
L 118.527988 111.725531 
z
" style="fill:#5bc0de;"/>
   </g>
   <g id="patch_29">
    <path clip-path="url(#p42663a3087)" d="M 122.522569 236.16 
L 126.517149 236.16 
L 126.517149 110.2744 
L 122.522569 110.2744 
z
" style="fill:#5bc0de;"/>
   </g>
   <g id="patch_30">
    <path clip-path="url(#p42663a3087)" d="M 126.517149 236.16 
L 130.51173 236.16 
L 130.51173 83.065697 
L 126.517149 83.065697 
z
" style="fill:#5bc0de;"/>
   </g>
   <g id="patch_31">
    <path clip-path="url(#p42663a3087)" d="M 130.51173 236.16 
L 134.506311 236.16 
L 134.506311 81.977349 
L 130.51173 81.977349 
z
" style="fill:#5bc0de;"/>
   </g>
   <g id="patch_32">
    <path clip-path="url(#p42663a3087)" d="M 134.506311 236.16 
L 138.500891 236.16 
L 138.500891 75.084478 
L 134.506311 75.084478 
z
" style="fill:#5bc0de;"/>
   </g>
   <g id="patch_33">
    <path clip-path="url(#p42663a3087)" d="M 138.500891 236.16 
L 142.495472 236.16 
L 142.495472 55.131429 
L 138.500891 55.131429 
z
" style="fill:#5bc0de;"/>
   </g>
   <g id="patch_34">
    <path clip-path="url(#p42663a3087)" d="M 142.495472 236.16 
L 146.490053 236.16 
L 146.490053 65.289344 
L 142.495472 65.289344 
z
" style="fill:#5bc0de;"/>
   </g>
   <g id="patch_35">
    <path clip-path="url(#p42663a3087)" d="M 146.490053 236.16 
L 150.484634 236.16 
L 150.484634 62.0243 
L 146.490053 62.0243 
z
" style="fill:#5bc0de;"/>
   </g>
   <g id="patch_36">
    <path clip-path="url(#p42663a3087)" d="M 150.484634 236.16 
L 154.479214 236.16 
L 154.479214 72.182216 
L 150.484634 72.182216 
z
" style="fill:#5bc0de;"/>
   </g>
   <g id="patch_37">
    <path clip-path="url(#p42663a3087)" d="M 154.479214 236.16 
L 158.473795 236.16 
L 158.473795 60.210386 
L 154.479214 60.210386 
z
" style="fill:#5bc0de;"/>
   </g>
   <g id="patch_38">
    <path clip-path="url(#p42663a3087)" d="M 158.473795 236.16 
L 162.468376 236.16 
L 162.468376 62.0243 
L 158.473795 62.0243 
z
" style="fill:#5bc0de;"/>
   </g>
   <g id="patch_39">
    <path clip-path="url(#p42663a3087)" d="M 162.468376 236.16 
L 166.462956 236.16 
L 166.462956 62.749865 
L 162.468376 62.749865 
z
" style="fill:#5bc0de;"/>
   </g>
   <g id="patch_40">
    <path clip-path="url(#p42663a3087)" d="M 166.462956 236.16 
L 170.457537 236.16 
L 170.457537 81.251784 
L 166.462956 81.251784 
z
" style="fill:#5bc0de;"/>
   </g>
   <g id="patch_41">
    <path clip-path="url(#p42663a3087)" d="M 170.457537 236.16 
L 174.452118 236.16 
L 174.452118 100.116484 
L 170.457537 100.116484 
z
" style="fill:#5bc0de;"/>
   </g>
   <g id="patch_42">
    <path clip-path="url(#p42663a3087)" d="M 174.452118 236.16 
L 178.446698 236.16 
L 178.446698 116.804489 
L 174.452118 116.804489 
z
" style="fill:#5bc0de;"/>
   </g>
   <g id="patch_43">
    <path clip-path="url(#p42663a3087)" d="M 178.446698 236.16 
L 182.441279 236.16 
L 182.441279 126.236839 
L 178.446698 126.236839 
z
" style="fill:#5bc0de;"/>
   </g>
   <g id="patch_44">
    <path clip-path="url(#p42663a3087)" d="M 182.441279 236.16 
L 186.43586 236.16 
L 186.43586 140.385365 
L 182.441279 140.385365 
z
" style="fill:#5bc0de;"/>
   </g>
   <g id="patch_45">
    <path clip-path="url(#p42663a3087)" d="M 186.43586 236.16 
L 190.43044 236.16 
L 190.43044 155.259456 
L 186.43586 155.259456 
z
" style="fill:#5bc0de;"/>
   </g>
   <g id="patch_46">
    <path clip-path="url(#p42663a3087)" d="M 190.43044 236.16 
L 194.425021 236.16 
L 194.425021 148.366585 
L 190.43044 148.366585 
z
" style="fill:#5bc0de;"/>
   </g>
   <g id="patch_47">
    <path clip-path="url(#p42663a3087)" d="M 194.425021 236.16 
L 198.419602 236.16 
L 198.419602 170.133547 
L 194.425021 170.133547 
z
" style="fill:#5bc0de;"/>
   </g>
   <g id="patch_48">
    <path clip-path="url(#p42663a3087)" d="M 198.419602 236.16 
L 202.414182 236.16 
L 202.414182 186.458769 
L 198.419602 186.458769 
z
" style="fill:#5bc0de;"/>
   </g>
   <g id="patch_49">
    <path clip-path="url(#p42663a3087)" d="M 202.414182 236.16 
L 206.408763 236.16 
L 206.408763 193.35164 
L 202.414182 193.35164 
z
" style="fill:#5bc0de;"/>
   </g>
   <g id="patch_50">
    <path clip-path="url(#p42663a3087)" d="M 206.408763 236.16 
L 210.403344 236.16 
L 210.403344 208.225731 
L 206.408763 208.225731 
z
" style="fill:#5bc0de;"/>
   </g>
   <g id="patch_51">
    <path clip-path="url(#p42663a3087)" d="M 210.403344 236.16 
L 214.397924 236.16 
L 214.397924 207.500166 
L 210.403344 207.500166 
z
" style="fill:#5bc0de;"/>
   </g>
   <g id="patch_52">
    <path clip-path="url(#p42663a3087)" d="M 214.397924 236.16 
L 218.392505 236.16 
L 218.392505 214.75582 
L 214.397924 214.75582 
z
" style="fill:#5bc0de;"/>
   </g>
   <g id="patch_53">
    <path clip-path="url(#p42663a3087)" d="M 218.392505 236.16 
L 222.387086 236.16 
L 222.387086 218.74643 
L 218.392505 218.74643 
z
" style="fill:#5bc0de;"/>
   </g>
   <g id="patch_54">
    <path clip-path="url(#p42663a3087)" d="M 222.387086 236.16 
L 226.381666 236.16 
L 226.381666 224.913736 
L 222.387086 224.913736 
z
" style="fill:#5bc0de;"/>
   </g>
   <g id="patch_55">
    <path clip-path="url(#p42663a3087)" d="M 226.381666 236.16 
L 230.376247 236.16 
L 230.376247 229.629911 
L 226.381666 229.629911 
z
" style="fill:#5bc0de;"/>
   </g>
   <g id="patch_56">
    <path clip-path="url(#p42663a3087)" d="M 230.376247 236.16 
L 234.370828 236.16 
L 234.370828 230.718259 
L 230.376247 230.718259 
z
" style="fill:#5bc0de;"/>
   </g>
   <g id="patch_57">
    <path clip-path="url(#p42663a3087)" d="M 234.370828 236.16 
L 238.365408 236.16 
L 238.365408 230.355477 
L 234.370828 230.355477 
z
" style="fill:#5bc0de;"/>
   </g>
   <g id="patch_58">
    <path clip-path="url(#p42663a3087)" d="M 238.365408 236.16 
L 242.359989 236.16 
L 242.359989 232.16939 
L 238.365408 232.16939 
z
" style="fill:#5bc0de;"/>
   </g>
   <g id="patch_59">
    <path clip-path="url(#p42663a3087)" d="M 242.359989 236.16 
L 246.35457 236.16 
L 246.35457 235.071652 
L 242.359989 235.071652 
z
" style="fill:#5bc0de;"/>
   </g>
   <g id="patch_60">
    <path clip-path="url(#p42663a3087)" d="M 246.35457 236.16 
L 250.349151 236.16 
L 250.349151 235.071652 
L 246.35457 235.071652 
z
" style="fill:#5bc0de;"/>
   </g>
   <g id="patch_61">
    <path clip-path="url(#p42663a3087)" d="M 250.349151 236.16 
L 254.343731 236.16 
L 254.343731 235.434435 
L 250.349151 235.434435 
z
" style="fill:#5bc0de;"/>
   </g>
   <g id="patch_62">
    <path clip-path="url(#p42663a3087)" d="M 254.343731 236.16 
L 258.338312 236.16 
L 258.338312 235.434435 
L 254.343731 235.434435 
z
" style="fill:#5bc0de;"/>
   </g>
   <g id="patch_63">
    <path clip-path="url(#p42663a3087)" d="M 258.338312 236.16 
L 262.332893 236.16 
L 262.332893 235.071652 
L 258.338312 235.071652 
z
" style="fill:#5bc0de;"/>
   </g>
   <g id="matplotlib.axis_1">
    <g id="text_1">
     <!-- Statistic of interest -->
     <defs>
      <path d="M 53.515625 70.515625 
L 53.515625 60.890625 
Q 47.90625 63.578125 42.921875 64.890625 
Q 37.9375 66.21875 33.296875 66.21875 
Q 25.25 66.21875 20.875 63.09375 
Q 16.5 59.96875 16.5 54.203125 
Q 16.5 49.359375 19.40625 46.890625 
Q 22.3125 44.4375 30.421875 42.921875 
L 36.375 41.703125 
Q 47.40625 39.59375 52.65625 34.296875 
Q 57.90625 29 57.90625 20.125 
Q 57.90625 9.515625 50.796875 4.046875 
Q 43.703125 -1.421875 29.984375 -1.421875 
Q 24.8125 -1.421875 18.96875 -0.25 
Q 13.140625 0.921875 6.890625 3.21875 
L 6.890625 13.375 
Q 12.890625 10.015625 18.65625 8.296875 
Q 24.421875 6.59375 29.984375 6.59375 
Q 38.421875 6.59375 43.015625 9.90625 
Q 47.609375 13.234375 47.609375 19.390625 
Q 47.609375 24.75 44.3125 27.78125 
Q 41.015625 30.8125 33.5 32.328125 
L 27.484375 33.5 
Q 16.453125 35.6875 11.515625 40.375 
Q 6.59375 45.0625 6.59375 53.421875 
Q 6.59375 63.09375 13.40625 68.65625 
Q 20.21875 74.21875 32.171875 74.21875 
Q 37.3125 74.21875 42.625 73.28125 
Q 47.953125 72.359375 53.515625 70.515625 
" id="DejaVuSans-53"/>
      <path d="M 18.3125 70.21875 
L 18.3125 54.6875 
L 36.8125 54.6875 
L 36.8125 47.703125 
L 18.3125 47.703125 
L 18.3125 18.015625 
Q 18.3125 11.328125 20.140625 9.421875 
Q 21.96875 7.515625 27.59375 7.515625 
L 36.8125 7.515625 
L 36.8125 0 
L 27.59375 0 
Q 17.1875 0 13.234375 3.875 
Q 9.28125 7.765625 9.28125 18.015625 
L 9.28125 47.703125 
L 2.6875 47.703125 
L 2.6875 54.6875 
L 9.28125 54.6875 
L 9.28125 70.21875 
z
" id="DejaVuSans-74"/>
      <path d="M 34.28125 27.484375 
Q 23.390625 27.484375 19.1875 25 
Q 14.984375 22.515625 14.984375 16.5 
Q 14.984375 11.71875 18.140625 8.90625 
Q 21.296875 6.109375 26.703125 6.109375 
Q 34.1875 6.109375 38.703125 11.40625 
Q 43.21875 16.703125 43.21875 25.484375 
L 43.21875 27.484375 
z
M 52.203125 31.203125 
L 52.203125 0 
L 43.21875 0 
L 43.21875 8.296875 
Q 40.140625 3.328125 35.546875 0.953125 
Q 30.953125 -1.421875 24.3125 -1.421875 
Q 15.921875 -1.421875 10.953125 3.296875 
Q 6 8.015625 6 15.921875 
Q 6 25.140625 12.171875 29.828125 
Q 18.359375 34.515625 30.609375 34.515625 
L 43.21875 34.515625 
L 43.21875 35.40625 
Q 43.21875 41.609375 39.140625 45 
Q 35.0625 48.390625 27.6875 48.390625 
Q 23 48.390625 18.546875 47.265625 
Q 14.109375 46.140625 10.015625 43.890625 
L 10.015625 52.203125 
Q 14.9375 54.109375 19.578125 55.046875 
Q 24.21875 56 28.609375 56 
Q 40.484375 56 46.34375 49.84375 
Q 52.203125 43.703125 52.203125 31.203125 
" id="DejaVuSans-61"/>
      <path d="M 9.421875 54.6875 
L 18.40625 54.6875 
L 18.40625 0 
L 9.421875 0 
z
M 9.421875 75.984375 
L 18.40625 75.984375 
L 18.40625 64.59375 
L 9.421875 64.59375 
z
" id="DejaVuSans-69"/>
      <path d="M 44.28125 53.078125 
L 44.28125 44.578125 
Q 40.484375 46.53125 36.375 47.5 
Q 32.28125 48.484375 27.875 48.484375 
Q 21.1875 48.484375 17.84375 46.4375 
Q 14.5 44.390625 14.5 40.28125 
Q 14.5 37.15625 16.890625 35.375 
Q 19.28125 33.59375 26.515625 31.984375 
L 29.59375 31.296875 
Q 39.15625 29.25 43.1875 25.515625 
Q 47.21875 21.78125 47.21875 15.09375 
Q 47.21875 7.46875 41.1875 3.015625 
Q 35.15625 -1.421875 24.609375 -1.421875 
Q 20.21875 -1.421875 15.453125 -0.5625 
Q 10.6875 0.296875 5.421875 2 
L 5.421875 11.28125 
Q 10.40625 8.6875 15.234375 7.390625 
Q 20.0625 6.109375 24.8125 6.109375 
Q 31.15625 6.109375 34.5625 8.28125 
Q 37.984375 10.453125 37.984375 14.40625 
Q 37.984375 18.0625 35.515625 20.015625 
Q 33.0625 21.96875 24.703125 23.78125 
L 21.578125 24.515625 
Q 13.234375 26.265625 9.515625 29.90625 
Q 5.8125 33.546875 5.8125 39.890625 
Q 5.8125 47.609375 11.28125 51.796875 
Q 16.75 56 26.8125 56 
Q 31.78125 56 36.171875 55.265625 
Q 40.578125 54.546875 44.28125 53.078125 
" id="DejaVuSans-73"/>
      <path d="M 48.78125 52.59375 
L 48.78125 44.1875 
Q 44.96875 46.296875 41.140625 47.34375 
Q 37.3125 48.390625 33.40625 48.390625 
Q 24.65625 48.390625 19.8125 42.84375 
Q 14.984375 37.3125 14.984375 27.296875 
Q 14.984375 17.28125 19.8125 11.734375 
Q 24.65625 6.203125 33.40625 6.203125 
Q 37.3125 6.203125 41.140625 7.25 
Q 44.96875 8.296875 48.78125 10.40625 
L 48.78125 2.09375 
Q 45.015625 0.34375 40.984375 -0.53125 
Q 36.96875 -1.421875 32.421875 -1.421875 
Q 20.0625 -1.421875 12.78125 6.34375 
Q 5.515625 14.109375 5.515625 27.296875 
Q 5.515625 40.671875 12.859375 48.328125 
Q 20.21875 56 33.015625 56 
Q 37.15625 56 41.109375 55.140625 
Q 45.0625 54.296875 48.78125 52.59375 
" id="DejaVuSans-63"/>
      <path id="DejaVuSans-20"/>
      <path d="M 30.609375 48.390625 
Q 23.390625 48.390625 19.1875 42.75 
Q 14.984375 37.109375 14.984375 27.296875 
Q 14.984375 17.484375 19.15625 11.84375 
Q 23.34375 6.203125 30.609375 6.203125 
Q 37.796875 6.203125 41.984375 11.859375 
Q 46.1875 17.53125 46.1875 27.296875 
Q 46.1875 37.015625 41.984375 42.703125 
Q 37.796875 48.390625 30.609375 48.390625 
M 30.609375 56 
Q 42.328125 56 49.015625 48.375 
Q 55.71875 40.765625 55.71875 27.296875 
Q 55.71875 13.875 49.015625 6.21875 
Q 42.328125 -1.421875 30.609375 -1.421875 
Q 18.84375 -1.421875 12.171875 6.21875 
Q 5.515625 13.875 5.515625 27.296875 
Q 5.515625 40.765625 12.171875 48.375 
Q 18.84375 56 30.609375 56 
" id="DejaVuSans-6f"/>
      <path d="M 37.109375 75.984375 
L 37.109375 68.5 
L 28.515625 68.5 
Q 23.6875 68.5 21.796875 66.546875 
Q 19.921875 64.59375 19.921875 59.515625 
L 19.921875 54.6875 
L 34.71875 54.6875 
L 34.71875 47.703125 
L 19.921875 47.703125 
L 19.921875 0 
L 10.890625 0 
L 10.890625 47.703125 
L 2.296875 47.703125 
L 2.296875 54.6875 
L 10.890625 54.6875 
L 10.890625 58.5 
Q 10.890625 67.625 15.140625 71.796875 
Q 19.390625 75.984375 28.609375 75.984375 
z
" id="DejaVuSans-66"/>
      <path d="M 54.890625 33.015625 
L 54.890625 0 
L 45.90625 0 
L 45.90625 32.71875 
Q 45.90625 40.484375 42.875 44.328125 
Q 39.84375 48.1875 33.796875 48.1875 
Q 26.515625 48.1875 22.3125 43.546875 
Q 18.109375 38.921875 18.109375 30.90625 
L 18.109375 0 
L 9.078125 0 
L 9.078125 54.6875 
L 18.109375 54.6875 
L 18.109375 46.1875 
Q 21.34375 51.125 25.703125 53.5625 
Q 30.078125 56 35.796875 56 
Q 45.21875 56 50.046875 50.171875 
Q 54.890625 44.34375 54.890625 33.015625 
" id="DejaVuSans-6e"/>
      <path d="M 56.203125 29.59375 
L 56.203125 25.203125 
L 14.890625 25.203125 
Q 15.484375 15.921875 20.484375 11.0625 
Q 25.484375 6.203125 34.421875 6.203125 
Q 39.59375 6.203125 44.453125 7.46875 
Q 49.3125 8.734375 54.109375 11.28125 
L 54.109375 2.78125 
Q 49.265625 0.734375 44.1875 -0.34375 
Q 39.109375 -1.421875 33.890625 -1.421875 
Q 20.796875 -1.421875 13.15625 6.1875 
Q 5.515625 13.8125 5.515625 26.8125 
Q 5.515625 40.234375 12.765625 48.109375 
Q 20.015625 56 32.328125 56 
Q 43.359375 56 49.78125 48.890625 
Q 56.203125 41.796875 56.203125 29.59375 
M 47.21875 32.234375 
Q 47.125 39.59375 43.09375 43.984375 
Q 39.0625 48.390625 32.421875 48.390625 
Q 24.90625 48.390625 20.390625 44.140625 
Q 15.875 39.890625 15.1875 32.171875 
z
" id="DejaVuSans-65"/>
      <path d="M 41.109375 46.296875 
Q 39.59375 47.171875 37.8125 47.578125 
Q 36.03125 48 33.890625 48 
Q 26.265625 48 22.1875 43.046875 
Q 18.109375 38.09375 18.109375 28.8125 
L 18.109375 0 
L 9.078125 0 
L 9.078125 54.6875 
L 18.109375 54.6875 
L 18.109375 46.1875 
Q 20.953125 51.171875 25.484375 53.578125 
Q 30.03125 56 36.53125 56 
Q 37.453125 56 38.578125 55.875 
Q 39.703125 55.765625 41.0625 55.515625 
z
" id="DejaVuSans-72"/>
     </defs>
     <g style="fill:#d2d2d2;" transform="translate(69.19076 255.527187)scale(0.15 -0.15)">
      <use xlink:href="#DejaVuSans-53"/>
      <use x="63.476562" xlink:href="#DejaVuSans-74"/>
      <use x="102.685547" xlink:href="#DejaVuSans-61"/>
      <use x="163.964844" xlink:href="#DejaVuSans-74"/>
      <use x="203.173828" xlink:href="#DejaVuSans-69"/>
      <use x="230.957031" xlink:href="#DejaVuSans-73"/>
      <use x="283.056641" xlink:href="#DejaVuSans-74"/>
      <use x="322.265625" xlink:href="#DejaVuSans-69"/>
      <use x="350.048828" xlink:href="#DejaVuSans-63"/>
      <use x="405.029297" xlink:href="#DejaVuSans-20"/>
      <use x="436.816406" xlink:href="#DejaVuSans-6f"/>
      <use x="497.998047" xlink:href="#DejaVuSans-66"/>
      <use x="533.203125" xlink:href="#DejaVuSans-20"/>
      <use x="564.990234" xlink:href="#DejaVuSans-69"/>
      <use x="592.773438" xlink:href="#DejaVuSans-6e"/>
      <use x="656.152344" xlink:href="#DejaVuSans-74"/>
      <use x="695.361328" xlink:href="#DejaVuSans-65"/>
      <use x="756.884766" xlink:href="#DejaVuSans-72"/>
      <use x="797.966797" xlink:href="#DejaVuSans-65"/>
      <use x="859.490234" xlink:href="#DejaVuSans-73"/>
      <use x="911.589844" xlink:href="#DejaVuSans-74"/>
     </g>
     <!-- $(\hat{p}_1-\hat{p}_2)$, $(\bar{x}_1-\bar{x}_2)$, $(m_1-m_2)$, ... -->
     <defs>
      <path d="M 31 75.875 
Q 24.46875 64.65625 21.28125 53.65625 
Q 18.109375 42.671875 18.109375 31.390625 
Q 18.109375 20.125 21.3125 9.0625 
Q 24.515625 -2 31 -13.1875 
L 23.1875 -13.1875 
Q 15.875 -1.703125 12.234375 9.375 
Q 8.59375 20.453125 8.59375 31.390625 
Q 8.59375 42.28125 12.203125 53.3125 
Q 15.828125 64.359375 23.1875 75.875 
z
" id="DejaVuSans-28"/>
      <path d="M -28.609375 79.984375 
L -21.390625 79.984375 
L -9.421875 61.625 
L -16.21875 61.625 
L -25 73.578125 
L -33.796875 61.625 
L -40.578125 61.625 
z
M -25 56 
z
" id="DejaVuSans-302"/>
      <path d="M 49.609375 33.6875 
Q 49.609375 40.875 46.484375 44.671875 
Q 43.359375 48.484375 37.5 48.484375 
Q 33.5 48.484375 29.859375 46.4375 
Q 26.21875 44.390625 23.390625 40.484375 
Q 20.609375 36.625 18.9375 31.15625 
Q 17.28125 25.6875 17.28125 20.3125 
Q 17.28125 13.484375 20.40625 9.796875 
Q 23.53125 6.109375 29.296875 6.109375 
Q 33.546875 6.109375 37.1875 8.109375 
Q 40.828125 10.109375 43.40625 13.921875 
Q 46.1875 17.921875 47.890625 23.34375 
Q 49.609375 28.765625 49.609375 33.6875 
M 21.78125 46.390625 
Q 25.390625 51.125 30.296875 53.5625 
Q 35.203125 56 41.21875 56 
Q 49.609375 56 54.25 50.5 
Q 58.890625 45.015625 58.890625 35.109375 
Q 58.890625 27 56 19.65625 
Q 53.125 12.3125 47.703125 6.5 
Q 44.09375 2.640625 39.546875 0.609375 
Q 35.015625 -1.421875 29.984375 -1.421875 
Q 24.171875 -1.421875 20.21875 1 
Q 16.265625 3.421875 14.3125 8.203125 
L 8.6875 -20.796875 
L -0.296875 -20.796875 
L 14.40625 54.6875 
L 23.390625 54.6875 
z
" id="DejaVuSans-Oblique-70"/>
      <path d="M 12.40625 8.296875 
L 28.515625 8.296875 
L 28.515625 63.921875 
L 10.984375 60.40625 
L 10.984375 69.390625 
L 28.421875 72.90625 
L 38.28125 72.90625 
L 38.28125 8.296875 
L 54.390625 8.296875 
L 54.390625 0 
L 12.40625 0 
z
" id="DejaVuSans-31"/>
      <path d="M 10.59375 35.5 
L 73.1875 35.5 
L 73.1875 27.203125 
L 10.59375 27.203125 
z
" id="DejaVuSans-2212"/>
      <path d="M 19.1875 8.296875 
L 53.609375 8.296875 
L 53.609375 0 
L 7.328125 0 
L 7.328125 8.296875 
Q 12.9375 14.109375 22.625 23.890625 
Q 32.328125 33.6875 34.8125 36.53125 
Q 39.546875 41.84375 41.421875 45.53125 
Q 43.3125 49.21875 43.3125 52.78125 
Q 43.3125 58.59375 39.234375 62.25 
Q 35.15625 65.921875 28.609375 65.921875 
Q 23.96875 65.921875 18.8125 64.3125 
Q 13.671875 62.703125 7.8125 59.421875 
L 7.8125 69.390625 
Q 13.765625 71.78125 18.9375 73 
Q 24.125 74.21875 28.421875 74.21875 
Q 39.75 74.21875 46.484375 68.546875 
Q 53.21875 62.890625 53.21875 53.421875 
Q 53.21875 48.921875 51.53125 44.890625 
Q 49.859375 40.875 45.40625 35.40625 
Q 44.1875 33.984375 37.640625 27.21875 
Q 31.109375 20.453125 19.1875 8.296875 
" id="DejaVuSans-32"/>
      <path d="M 8.015625 75.875 
L 15.828125 75.875 
Q 23.140625 64.359375 26.78125 53.3125 
Q 30.421875 42.28125 30.421875 31.390625 
Q 30.421875 20.453125 26.78125 9.375 
Q 23.140625 -1.703125 15.828125 -13.1875 
L 8.015625 -13.1875 
Q 14.5 -2 17.703125 9.0625 
Q 20.90625 20.125 20.90625 31.390625 
Q 20.90625 42.671875 17.703125 53.65625 
Q 14.5 64.65625 8.015625 75.875 
" id="DejaVuSans-29"/>
      <path d="M 11.71875 12.40625 
L 22.015625 12.40625 
L 22.015625 4 
L 14.015625 -11.625 
L 7.71875 -11.625 
L 11.71875 4 
z
" id="DejaVuSans-2c"/>
      <path d="M -39.34375 74.515625 
L -10.15625 74.515625 
L -10.15625 67.28125 
L -39.34375 67.28125 
z
" id="DejaVuSans-304"/>
      <path d="M 60.015625 54.6875 
L 34.90625 27.875 
L 50.296875 0 
L 39.984375 0 
L 28.421875 21.6875 
L 8.296875 0 
L -2.59375 0 
L 24.3125 28.8125 
L 10.015625 54.6875 
L 20.3125 54.6875 
L 30.8125 34.90625 
L 49.125 54.6875 
z
" id="DejaVuSans-Oblique-78"/>
      <path d="M 89.796875 33.015625 
L 83.40625 0 
L 74.421875 0 
L 80.71875 32.71875 
Q 81.109375 34.8125 81.296875 36.328125 
Q 81.5 37.84375 81.5 38.921875 
Q 81.5 43.3125 79.046875 45.75 
Q 76.609375 48.1875 72.21875 48.1875 
Q 65.671875 48.1875 60.546875 43.28125 
Q 55.421875 38.375 53.90625 30.515625 
L 47.90625 0 
L 38.921875 0 
L 45.3125 32.71875 
Q 45.703125 34.515625 45.890625 36.046875 
Q 46.09375 37.59375 46.09375 38.8125 
Q 46.09375 43.265625 43.65625 45.71875 
Q 41.21875 48.1875 36.921875 48.1875 
Q 30.28125 48.1875 25.140625 43.28125 
Q 20.015625 38.375 18.5 30.515625 
L 12.5 0 
L 3.515625 0 
L 14.203125 54.6875 
L 23.1875 54.6875 
L 21.484375 46.1875 
Q 25.140625 50.984375 30.046875 53.484375 
Q 34.96875 56 40.578125 56 
Q 46.53125 56 50.359375 52.875 
Q 54.203125 49.75 54.984375 44.1875 
Q 59.078125 49.953125 64.46875 52.96875 
Q 69.875 56 75.875 56 
Q 82.90625 56 86.734375 51.953125 
Q 90.578125 47.90625 90.578125 40.484375 
Q 90.578125 38.875 90.375 36.9375 
Q 90.1875 35.015625 89.796875 33.015625 
" id="DejaVuSans-Oblique-6d"/>
      <path d="M 10.6875 12.40625 
L 21 12.40625 
L 21 0 
L 10.6875 0 
z
" id="DejaVuSans-2e"/>
     </defs>
     <g style="fill:#d2d2d2;" transform="translate(19.223182 275.386719)scale(0.15 -0.15)">
      <use transform="translate(0 0.515625)" xlink:href="#DejaVuSans-28"/>
      <use transform="translate(103.460938 13.015625)" xlink:href="#DejaVuSans-302"/>
      <use transform="translate(39.013672 0.515625)" xlink:href="#DejaVuSans-Oblique-70"/>
      <use transform="translate(103.447266 -15.890625)scale(0.7)" xlink:href="#DejaVuSans-31"/>
      <use transform="translate(170.200195 0.515625)" xlink:href="#DejaVuSans-2212"/>
      <use transform="translate(337.918945 13.015625)" xlink:href="#DejaVuSans-302"/>
      <use transform="translate(273.47168 0.515625)" xlink:href="#DejaVuSans-Oblique-70"/>
      <use transform="translate(337.905273 -15.890625)scale(0.7)" xlink:href="#DejaVuSans-32"/>
      <use transform="translate(385.175781 0.515625)" xlink:href="#DejaVuSans-29"/>
      <use transform="translate(424.189453 0.515625)" xlink:href="#DejaVuSans-2c"/>
      <use transform="translate(455.976562 0.515625)" xlink:href="#DejaVuSans-20"/>
      <use transform="translate(487.763672 0.515625)" xlink:href="#DejaVuSans-28"/>
      <use transform="translate(588.916016 0.421875)" xlink:href="#DejaVuSans-304"/>
      <use transform="translate(526.777344 0.515625)" xlink:href="#DejaVuSans-Oblique-78"/>
      <use transform="translate(586.914062 -15.890625)scale(0.7)" xlink:href="#DejaVuSans-31"/>
      <use transform="translate(653.666992 0.515625)" xlink:href="#DejaVuSans-2212"/>
      <use transform="translate(819.077148 0.421875)" xlink:href="#DejaVuSans-304"/>
      <use transform="translate(756.938477 0.515625)" xlink:href="#DejaVuSans-Oblique-78"/>
      <use transform="translate(817.075195 -15.890625)scale(0.7)" xlink:href="#DejaVuSans-32"/>
      <use transform="translate(864.345703 0.515625)" xlink:href="#DejaVuSans-29"/>
      <use transform="translate(903.359375 0.515625)" xlink:href="#DejaVuSans-2c"/>
      <use transform="translate(935.146484 0.515625)" xlink:href="#DejaVuSans-20"/>
      <use transform="translate(966.933594 0.515625)" xlink:href="#DejaVuSans-28"/>
      <use transform="translate(1005.947266 0.515625)" xlink:href="#DejaVuSans-Oblique-6d"/>
      <use transform="translate(1103.359375 -15.890625)scale(0.7)" xlink:href="#DejaVuSans-31"/>
      <use transform="translate(1170.112305 0.515625)" xlink:href="#DejaVuSans-2212"/>
      <use transform="translate(1273.383789 0.515625)" xlink:href="#DejaVuSans-Oblique-6d"/>
      <use transform="translate(1370.795898 -15.890625)scale(0.7)" xlink:href="#DejaVuSans-32"/>
      <use transform="translate(1418.066406 0.515625)" xlink:href="#DejaVuSans-29"/>
      <use transform="translate(1457.080078 0.515625)" xlink:href="#DejaVuSans-2c"/>
      <use transform="translate(1488.867188 0.515625)" xlink:href="#DejaVuSans-20"/>
      <use transform="translate(1520.654297 0.515625)" xlink:href="#DejaVuSans-2e"/>
      <use transform="translate(1552.441406 0.515625)" xlink:href="#DejaVuSans-2e"/>
      <use transform="translate(1584.228516 0.515625)" xlink:href="#DejaVuSans-2e"/>
     </g>
    </g>
   </g>
   <g id="matplotlib.axis_2"/>
   <g id="line2d_1">
    <path clip-path="url(#p42663a3087)" d="M 149.093505 236.16 
L 149.093505 169.632 
" style="fill:none;stroke:#d9534f;stroke-dasharray:5.6,2.4;stroke-dashoffset:0;stroke-width:2;"/>
   </g>
   <g id="line2d_2">
    <path clip-path="url(#p42663a3087)" d="M 149.093505 141.12 
L 149.093505 46.08 
" style="fill:none;stroke:#d9534f;stroke-dasharray:5.6,2.4;stroke-dashoffset:0;stroke-width:2;"/>
   </g>
   <g id="line2d_3">
    <path clip-path="url(#p42663a3087)" d="M 192.885185 236.16 
L 192.885185 118.3104 
" style="fill:none;stroke:#f0ad4e;stroke-dasharray:5.6,2.4;stroke-dashoffset:0;stroke-width:2;"/>
   </g>
   <g id="patch_64">
    <path d="M 6.48 236.16 
L 274.516364 236.16 
" style="fill:none;stroke:#d2d2d2;stroke-linecap:square;stroke-linejoin:miter;stroke-width:0.8;"/>
   </g>
   <g id="text_2">
    <!-- 0 -->
    <defs>
     <path d="M 31.78125 66.40625 
Q 24.171875 66.40625 20.328125 58.90625 
Q 16.5 51.421875 16.5 36.375 
Q 16.5 21.390625 20.328125 13.890625 
Q 24.171875 6.390625 31.78125 6.390625 
Q 39.453125 6.390625 43.28125 13.890625 
Q 47.125 21.390625 47.125 36.375 
Q 47.125 51.421875 43.28125 58.90625 
Q 39.453125 66.40625 31.78125 66.40625 
M 31.78125 74.21875 
Q 44.046875 74.21875 50.515625 64.515625 
Q 56.984375 54.828125 56.984375 36.375 
Q 56.984375 17.96875 50.515625 8.265625 
Q 44.046875 -1.421875 31.78125 -1.421875 
Q 19.53125 -1.421875 13.0625 8.265625 
Q 6.59375 17.96875 6.59375 36.375 
Q 6.59375 54.828125 13.0625 64.515625 
Q 19.53125 74.21875 31.78125 74.21875 
" id="DejaVuSans-30"/>
    </defs>
    <g style="fill:#d9534f;" transform="translate(144.32163 160.128)scale(0.15 -0.15)">
     <use xlink:href="#DejaVuSans-30"/>
    </g>
   </g>
   <g id="text_3">
    <!-- Difference of the parameters -->
    <defs>
     <path d="M 19.671875 64.796875 
L 19.671875 8.109375 
L 31.59375 8.109375 
Q 46.6875 8.109375 53.6875 14.9375 
Q 60.6875 21.78125 60.6875 36.53125 
Q 60.6875 51.171875 53.6875 57.984375 
Q 46.6875 64.796875 31.59375 64.796875 
z
M 9.8125 72.90625 
L 30.078125 72.90625 
Q 51.265625 72.90625 61.171875 64.09375 
Q 71.09375 55.28125 71.09375 36.53125 
Q 71.09375 17.671875 61.125 8.828125 
Q 51.171875 0 30.078125 0 
L 9.8125 0 
z
" id="DejaVuSans-44"/>
     <path d="M 54.890625 33.015625 
L 54.890625 0 
L 45.90625 0 
L 45.90625 32.71875 
Q 45.90625 40.484375 42.875 44.328125 
Q 39.84375 48.1875 33.796875 48.1875 
Q 26.515625 48.1875 22.3125 43.546875 
Q 18.109375 38.921875 18.109375 30.90625 
L 18.109375 0 
L 9.078125 0 
L 9.078125 75.984375 
L 18.109375 75.984375 
L 18.109375 46.1875 
Q 21.34375 51.125 25.703125 53.5625 
Q 30.078125 56 35.796875 56 
Q 45.21875 56 50.046875 50.171875 
Q 54.890625 44.34375 54.890625 33.015625 
" id="DejaVuSans-68"/>
     <path d="M 18.109375 8.203125 
L 18.109375 -20.796875 
L 9.078125 -20.796875 
L 9.078125 54.6875 
L 18.109375 54.6875 
L 18.109375 46.390625 
Q 20.953125 51.265625 25.265625 53.625 
Q 29.59375 56 35.59375 56 
Q 45.5625 56 51.78125 48.09375 
Q 58.015625 40.1875 58.015625 27.296875 
Q 58.015625 14.40625 51.78125 6.484375 
Q 45.5625 -1.421875 35.59375 -1.421875 
Q 29.59375 -1.421875 25.265625 0.953125 
Q 20.953125 3.328125 18.109375 8.203125 
M 48.6875 27.296875 
Q 48.6875 37.203125 44.609375 42.84375 
Q 40.53125 48.484375 33.40625 48.484375 
Q 26.265625 48.484375 22.1875 42.84375 
Q 18.109375 37.203125 18.109375 27.296875 
Q 18.109375 17.390625 22.1875 11.75 
Q 26.265625 6.109375 33.40625 6.109375 
Q 40.53125 6.109375 44.609375 11.75 
Q 48.6875 17.390625 48.6875 27.296875 
" id="DejaVuSans-70"/>
     <path d="M 52 44.1875 
Q 55.375 50.25 60.0625 53.125 
Q 64.75 56 71.09375 56 
Q 79.640625 56 84.28125 50.015625 
Q 88.921875 44.046875 88.921875 33.015625 
L 88.921875 0 
L 79.890625 0 
L 79.890625 32.71875 
Q 79.890625 40.578125 77.09375 44.375 
Q 74.3125 48.1875 68.609375 48.1875 
Q 61.625 48.1875 57.5625 43.546875 
Q 53.515625 38.921875 53.515625 30.90625 
L 53.515625 0 
L 44.484375 0 
L 44.484375 32.71875 
Q 44.484375 40.625 41.703125 44.40625 
Q 38.921875 48.1875 33.109375 48.1875 
Q 26.21875 48.1875 22.15625 43.53125 
Q 18.109375 38.875 18.109375 30.90625 
L 18.109375 0 
L 9.078125 0 
L 9.078125 54.6875 
L 18.109375 54.6875 
L 18.109375 46.1875 
Q 21.1875 51.21875 25.484375 53.609375 
Q 29.78125 56 35.6875 56 
Q 41.65625 56 45.828125 52.96875 
Q 50 49.953125 52 44.1875 
" id="DejaVuSans-6d"/>
    </defs>
    <g style="fill:#d9534f;" transform="translate(39.961473 13.093669)scale(0.15 -0.15)">
     <use xlink:href="#DejaVuSans-44"/>
     <use x="77.001953" xlink:href="#DejaVuSans-69"/>
     <use x="104.785156" xlink:href="#DejaVuSans-66"/>
     <use x="139.990234" xlink:href="#DejaVuSans-66"/>
     <use x="175.195312" xlink:href="#DejaVuSans-65"/>
     <use x="236.71875" xlink:href="#DejaVuSans-72"/>
     <use x="277.800781" xlink:href="#DejaVuSans-65"/>
     <use x="339.324219" xlink:href="#DejaVuSans-6e"/>
     <use x="402.703125" xlink:href="#DejaVuSans-63"/>
     <use x="457.683594" xlink:href="#DejaVuSans-65"/>
     <use x="519.207031" xlink:href="#DejaVuSans-20"/>
     <use x="550.994141" xlink:href="#DejaVuSans-6f"/>
     <use x="612.175781" xlink:href="#DejaVuSans-66"/>
     <use x="647.380859" xlink:href="#DejaVuSans-20"/>
     <use x="679.167969" xlink:href="#DejaVuSans-74"/>
     <use x="718.376953" xlink:href="#DejaVuSans-68"/>
     <use x="781.755859" xlink:href="#DejaVuSans-65"/>
     <use x="843.279297" xlink:href="#DejaVuSans-20"/>
     <use x="875.066406" xlink:href="#DejaVuSans-70"/>
     <use x="938.542969" xlink:href="#DejaVuSans-61"/>
     <use x="999.822266" xlink:href="#DejaVuSans-72"/>
     <use x="1040.935547" xlink:href="#DejaVuSans-61"/>
     <use x="1102.214844" xlink:href="#DejaVuSans-6d"/>
     <use x="1199.626953" xlink:href="#DejaVuSans-65"/>
     <use x="1261.150391" xlink:href="#DejaVuSans-74"/>
     <use x="1300.359375" xlink:href="#DejaVuSans-65"/>
     <use x="1361.882812" xlink:href="#DejaVuSans-72"/>
     <use x="1402.996094" xlink:href="#DejaVuSans-73"/>
    </g>
    <!--  ($\pi_1-\pi_2=0$), ($\mu_1-\mu_2=0$), ... -->
    <defs>
     <path d="M 9.125 54.6875 
L 61.53125 54.6875 
L 59.765625 45.703125 
L 52.875 45.703125 
L 46.34375 12.109375 
Q 45.65625 8.59375 46.578125 7.03125 
Q 47.46875 5.515625 50.140625 5.515625 
Q 50.875 5.515625 51.953125 5.671875 
Q 53.078125 5.765625 53.421875 5.8125 
L 52.15625 -0.6875 
Q 50.34375 -1.3125 48.484375 -1.609375 
Q 46.578125 -1.90625 44.78125 -1.90625 
Q 38.921875 -1.90625 37.3125 1.265625 
Q 35.6875 4.5 37.359375 13.09375 
L 43.703125 45.703125 
L 23.53125 45.703125 
L 14.65625 0 
L 5.46875 0 
L 14.359375 45.703125 
L 7.375 45.703125 
z
" id="DejaVuSans-Oblique-3c0"/>
     <path d="M 10.59375 45.40625 
L 73.1875 45.40625 
L 73.1875 37.203125 
L 10.59375 37.203125 
z
M 10.59375 25.484375 
L 73.1875 25.484375 
L 73.1875 17.1875 
L 10.59375 17.1875 
z
" id="DejaVuSans-3d"/>
     <path d="M -1.3125 -20.796875 
L 13.375 54.6875 
L 22.40625 54.6875 
L 15.765625 20.65625 
Q 15.578125 19.625 15.421875 18.359375 
Q 15.28125 17.09375 15.28125 15.828125 
Q 15.28125 11.28125 18.140625 8.828125 
Q 21 6.390625 26.3125 6.390625 
Q 33.546875 6.390625 37.984375 10.484375 
Q 42.4375 14.59375 44 22.796875 
L 50.203125 54.6875 
L 59.1875 54.6875 
L 51.03125 12.640625 
Q 50.828125 11.71875 50.75 11.03125 
Q 50.6875 10.359375 50.6875 9.8125 
Q 50.6875 8.296875 51.296875 7.59375 
Q 51.90625 6.890625 53.21875 6.890625 
Q 53.71875 6.890625 54.5625 7.125 
Q 55.421875 7.375 56.984375 8.015625 
L 55.609375 0.78125 
Q 53.46875 -0.296875 51.515625 -0.859375 
Q 49.5625 -1.421875 47.703125 -1.421875 
Q 44.484375 -1.421875 42.65625 0.625 
Q 40.828125 2.6875 40.828125 6.296875 
Q 38.09375 2.390625 34.296875 0.484375 
Q 30.515625 -1.421875 25.390625 -1.421875 
Q 20.84375 -1.421875 17.453125 0.671875 
Q 14.0625 2.78125 12.984375 6.203125 
L 7.71875 -20.796875 
z
" id="DejaVuSans-Oblique-3bc"/>
    </defs>
    <g style="fill:#d9534f;" transform="translate(39.143505 29.8932)scale(0.15 -0.15)">
     <use transform="translate(0 0.125)" xlink:href="#DejaVuSans-20"/>
     <use transform="translate(31.787109 0.125)" xlink:href="#DejaVuSans-28"/>
     <use transform="translate(70.800781 0.125)" xlink:href="#DejaVuSans-Oblique-3c0"/>
     <use transform="translate(131.005859 -16.28125)scale(0.7)" xlink:href="#DejaVuSans-31"/>
     <use transform="translate(197.758789 0.125)" xlink:href="#DejaVuSans-2212"/>
     <use transform="translate(301.030273 0.125)" xlink:href="#DejaVuSans-Oblique-3c0"/>
     <use transform="translate(361.235352 -16.28125)scale(0.7)" xlink:href="#DejaVuSans-32"/>
     <use transform="translate(427.988281 0.125)" xlink:href="#DejaVuSans-3d"/>
     <use transform="translate(531.259766 0.125)" xlink:href="#DejaVuSans-30"/>
     <use transform="translate(594.882812 0.125)" xlink:href="#DejaVuSans-29"/>
     <use transform="translate(633.896484 0.125)" xlink:href="#DejaVuSans-2c"/>
     <use transform="translate(665.683594 0.125)" xlink:href="#DejaVuSans-20"/>
     <use transform="translate(697.470703 0.125)" xlink:href="#DejaVuSans-28"/>
     <use transform="translate(736.484375 0.125)" xlink:href="#DejaVuSans-Oblique-3bc"/>
     <use transform="translate(800.107422 -16.28125)scale(0.7)" xlink:href="#DejaVuSans-31"/>
     <use transform="translate(866.860352 0.125)" xlink:href="#DejaVuSans-2212"/>
     <use transform="translate(970.131836 0.125)" xlink:href="#DejaVuSans-Oblique-3bc"/>
     <use transform="translate(1033.754883 -16.28125)scale(0.7)" xlink:href="#DejaVuSans-32"/>
     <use transform="translate(1100.507812 0.125)" xlink:href="#DejaVuSans-3d"/>
     <use transform="translate(1203.779297 0.125)" xlink:href="#DejaVuSans-30"/>
     <use transform="translate(1267.402344 0.125)" xlink:href="#DejaVuSans-29"/>
     <use transform="translate(1306.416016 0.125)" xlink:href="#DejaVuSans-2c"/>
     <use transform="translate(1338.203125 0.125)" xlink:href="#DejaVuSans-20"/>
     <use transform="translate(1369.990234 0.125)" xlink:href="#DejaVuSans-2e"/>
     <use transform="translate(1401.777344 0.125)" xlink:href="#DejaVuSans-2e"/>
     <use transform="translate(1433.564453 0.125)" xlink:href="#DejaVuSans-2e"/>
    </g>
   </g>
   <g id="text_4">
    <!-- Statistic calculated -->
    <defs>
     <path d="M 9.421875 75.984375 
L 18.40625 75.984375 
L 18.40625 0 
L 9.421875 0 
z
" id="DejaVuSans-6c"/>
     <path d="M 8.5 21.578125 
L 8.5 54.6875 
L 17.484375 54.6875 
L 17.484375 21.921875 
Q 17.484375 14.15625 20.5 10.265625 
Q 23.53125 6.390625 29.59375 6.390625 
Q 36.859375 6.390625 41.078125 11.03125 
Q 45.3125 15.671875 45.3125 23.6875 
L 45.3125 54.6875 
L 54.296875 54.6875 
L 54.296875 0 
L 45.3125 0 
L 45.3125 8.40625 
Q 42.046875 3.421875 37.71875 1 
Q 33.40625 -1.421875 27.6875 -1.421875 
Q 18.265625 -1.421875 13.375 4.4375 
Q 8.5 10.296875 8.5 21.578125 
M 31.109375 56 
z
" id="DejaVuSans-75"/>
     <path d="M 45.40625 46.390625 
L 45.40625 75.984375 
L 54.390625 75.984375 
L 54.390625 0 
L 45.40625 0 
L 45.40625 8.203125 
Q 42.578125 3.328125 38.25 0.953125 
Q 33.9375 -1.421875 27.875 -1.421875 
Q 17.96875 -1.421875 11.734375 6.484375 
Q 5.515625 14.40625 5.515625 27.296875 
Q 5.515625 40.1875 11.734375 48.09375 
Q 17.96875 56 27.875 56 
Q 33.9375 56 38.25 53.625 
Q 42.578125 51.265625 45.40625 46.390625 
M 14.796875 27.296875 
Q 14.796875 17.390625 18.875 11.75 
Q 22.953125 6.109375 30.078125 6.109375 
Q 37.203125 6.109375 41.296875 11.75 
Q 45.40625 17.390625 45.40625 27.296875 
Q 45.40625 37.203125 41.296875 42.84375 
Q 37.203125 48.484375 30.078125 48.484375 
Q 22.953125 48.484375 18.875 42.84375 
Q 14.796875 37.203125 14.796875 27.296875 
" id="DejaVuSans-64"/>
    </defs>
    <g style="fill:#f0ad4e;" transform="translate(192.885185 79.014562)scale(0.15 -0.15)">
     <use xlink:href="#DejaVuSans-53"/>
     <use x="63.476562" xlink:href="#DejaVuSans-74"/>
     <use x="102.685547" xlink:href="#DejaVuSans-61"/>
     <use x="163.964844" xlink:href="#DejaVuSans-74"/>
     <use x="203.173828" xlink:href="#DejaVuSans-69"/>
     <use x="230.957031" xlink:href="#DejaVuSans-73"/>
     <use x="283.056641" xlink:href="#DejaVuSans-74"/>
     <use x="322.265625" xlink:href="#DejaVuSans-69"/>
     <use x="350.048828" xlink:href="#DejaVuSans-63"/>
     <use x="405.029297" xlink:href="#DejaVuSans-20"/>
     <use x="436.816406" xlink:href="#DejaVuSans-63"/>
     <use x="491.796875" xlink:href="#DejaVuSans-61"/>
     <use x="553.076172" xlink:href="#DejaVuSans-6c"/>
     <use x="580.859375" xlink:href="#DejaVuSans-63"/>
     <use x="635.839844" xlink:href="#DejaVuSans-75"/>
     <use x="699.21875" xlink:href="#DejaVuSans-6c"/>
     <use x="727.001953" xlink:href="#DejaVuSans-61"/>
     <use x="788.28125" xlink:href="#DejaVuSans-74"/>
     <use x="827.490234" xlink:href="#DejaVuSans-65"/>
     <use x="889.013672" xlink:href="#DejaVuSans-64"/>
    </g>
    <!-- from the two -->
    <defs>
     <path d="M 4.203125 54.6875 
L 13.1875 54.6875 
L 24.421875 12.015625 
L 35.59375 54.6875 
L 46.1875 54.6875 
L 57.421875 12.015625 
L 68.609375 54.6875 
L 77.59375 54.6875 
L 63.28125 0 
L 52.6875 0 
L 40.921875 44.828125 
L 29.109375 0 
L 18.5 0 
z
" id="DejaVuSans-77"/>
    </defs>
    <g style="fill:#f0ad4e;" transform="translate(192.885185 95.811281)scale(0.15 -0.15)">
     <use xlink:href="#DejaVuSans-66"/>
     <use x="35.205078" xlink:href="#DejaVuSans-72"/>
     <use x="76.287109" xlink:href="#DejaVuSans-6f"/>
     <use x="137.46875" xlink:href="#DejaVuSans-6d"/>
     <use x="234.880859" xlink:href="#DejaVuSans-20"/>
     <use x="266.667969" xlink:href="#DejaVuSans-74"/>
     <use x="305.876953" xlink:href="#DejaVuSans-68"/>
     <use x="369.255859" xlink:href="#DejaVuSans-65"/>
     <use x="430.779297" xlink:href="#DejaVuSans-20"/>
     <use x="462.566406" xlink:href="#DejaVuSans-74"/>
     <use x="501.775391" xlink:href="#DejaVuSans-77"/>
     <use x="583.5625" xlink:href="#DejaVuSans-6f"/>
    </g>
    <!-- original samples -->
    <defs>
     <path d="M 45.40625 27.984375 
Q 45.40625 37.75 41.375 43.109375 
Q 37.359375 48.484375 30.078125 48.484375 
Q 22.859375 48.484375 18.828125 43.109375 
Q 14.796875 37.75 14.796875 27.984375 
Q 14.796875 18.265625 18.828125 12.890625 
Q 22.859375 7.515625 30.078125 7.515625 
Q 37.359375 7.515625 41.375 12.890625 
Q 45.40625 18.265625 45.40625 27.984375 
M 54.390625 6.78125 
Q 54.390625 -7.171875 48.1875 -13.984375 
Q 42 -20.796875 29.203125 -20.796875 
Q 24.46875 -20.796875 20.265625 -20.09375 
Q 16.0625 -19.390625 12.109375 -17.921875 
L 12.109375 -9.1875 
Q 16.0625 -11.328125 19.921875 -12.34375 
Q 23.78125 -13.375 27.78125 -13.375 
Q 36.625 -13.375 41.015625 -8.765625 
Q 45.40625 -4.15625 45.40625 5.171875 
L 45.40625 9.625 
Q 42.625 4.78125 38.28125 2.390625 
Q 33.9375 0 27.875 0 
Q 17.828125 0 11.671875 7.65625 
Q 5.515625 15.328125 5.515625 27.984375 
Q 5.515625 40.671875 11.671875 48.328125 
Q 17.828125 56 27.875 56 
Q 33.9375 56 38.28125 53.609375 
Q 42.625 51.21875 45.40625 46.390625 
L 45.40625 54.6875 
L 54.390625 54.6875 
z
" id="DejaVuSans-67"/>
    </defs>
    <g style="fill:#f0ad4e;" transform="translate(192.885185 112.608)scale(0.15 -0.15)">
     <use xlink:href="#DejaVuSans-6f"/>
     <use x="61.181641" xlink:href="#DejaVuSans-72"/>
     <use x="102.294922" xlink:href="#DejaVuSans-69"/>
     <use x="130.078125" xlink:href="#DejaVuSans-67"/>
     <use x="193.554688" xlink:href="#DejaVuSans-69"/>
     <use x="221.337891" xlink:href="#DejaVuSans-6e"/>
     <use x="284.716797" xlink:href="#DejaVuSans-61"/>
     <use x="345.996094" xlink:href="#DejaVuSans-6c"/>
     <use x="373.779297" xlink:href="#DejaVuSans-20"/>
     <use x="405.566406" xlink:href="#DejaVuSans-73"/>
     <use x="457.666016" xlink:href="#DejaVuSans-61"/>
     <use x="518.945312" xlink:href="#DejaVuSans-6d"/>
     <use x="616.357422" xlink:href="#DejaVuSans-70"/>
     <use x="679.833984" xlink:href="#DejaVuSans-6c"/>
     <use x="707.617188" xlink:href="#DejaVuSans-65"/>
     <use x="769.140625" xlink:href="#DejaVuSans-73"/>
    </g>
   </g>
  </g>
  <g id="axes_2">
   <g id="patch_65">
    <path d="M 328.123636 236.16 
L 596.16 236.16 
L 596.16 46.08 
L 328.123636 46.08 
z
" style="fill:none;"/>
   </g>
   <g id="patch_66">
    <path clip-path="url(#p3462dfd7a8)" d="M 340.307107 236.16 
L 343.999068 236.16 
L 343.999068 235.817143 
L 340.307107 235.817143 
z
" style="fill:#5bc0de;"/>
   </g>
   <g id="patch_67">
    <path clip-path="url(#p3462dfd7a8)" d="M 343.999068 236.16 
L 347.691029 236.16 
L 347.691029 236.16 
L 343.999068 236.16 
z
" style="fill:#5bc0de;"/>
   </g>
   <g id="patch_68">
    <path clip-path="url(#p3462dfd7a8)" d="M 347.691029 236.16 
L 351.38299 236.16 
L 351.38299 235.817143 
L 347.691029 235.817143 
z
" style="fill:#5bc0de;"/>
   </g>
   <g id="patch_69">
    <path clip-path="url(#p3462dfd7a8)" d="M 351.38299 236.16 
L 355.074951 236.16 
L 355.074951 235.131429 
L 351.38299 235.131429 
z
" style="fill:#5bc0de;"/>
   </g>
   <g id="patch_70">
    <path clip-path="url(#p3462dfd7a8)" d="M 355.074951 236.16 
L 358.766912 236.16 
L 358.766912 235.474286 
L 355.074951 235.474286 
z
" style="fill:#5bc0de;"/>
   </g>
   <g id="patch_71">
    <path clip-path="url(#p3462dfd7a8)" d="M 358.766912 236.16 
L 362.458873 236.16 
L 362.458873 235.817143 
L 358.766912 235.817143 
z
" style="fill:#5bc0de;"/>
   </g>
   <g id="patch_72">
    <path clip-path="url(#p3462dfd7a8)" d="M 362.458873 236.16 
L 366.150834 236.16 
L 366.150834 235.474286 
L 362.458873 235.474286 
z
" style="fill:#5bc0de;"/>
   </g>
   <g id="patch_73">
    <path clip-path="url(#p3462dfd7a8)" d="M 366.150834 236.16 
L 369.842795 236.16 
L 369.842795 234.445714 
L 366.150834 234.445714 
z
" style="fill:#5bc0de;"/>
   </g>
   <g id="patch_74">
    <path clip-path="url(#p3462dfd7a8)" d="M 369.842795 236.16 
L 373.534756 236.16 
L 373.534756 234.445714 
L 369.842795 234.445714 
z
" style="fill:#5bc0de;"/>
   </g>
   <g id="patch_75">
    <path clip-path="url(#p3462dfd7a8)" d="M 373.534756 236.16 
L 377.226717 236.16 
L 377.226717 232.388571 
L 373.534756 232.388571 
z
" style="fill:#5bc0de;"/>
   </g>
   <g id="patch_76">
    <path clip-path="url(#p3462dfd7a8)" d="M 377.226717 236.16 
L 380.918678 236.16 
L 380.918678 232.045714 
L 377.226717 232.045714 
z
" style="fill:#5bc0de;"/>
   </g>
   <g id="patch_77">
    <path clip-path="url(#p3462dfd7a8)" d="M 380.918678 236.16 
L 384.610639 236.16 
L 384.610639 228.617143 
L 380.918678 228.617143 
z
" style="fill:#5bc0de;"/>
   </g>
   <g id="patch_78">
    <path clip-path="url(#p3462dfd7a8)" d="M 384.610639 236.16 
L 388.3026 236.16 
L 388.3026 226.217143 
L 384.610639 226.217143 
z
" style="fill:#5bc0de;"/>
   </g>
   <g id="patch_79">
    <path clip-path="url(#p3462dfd7a8)" d="M 388.3026 236.16 
L 391.99456 236.16 
L 391.99456 225.188571 
L 388.3026 225.188571 
z
" style="fill:#5bc0de;"/>
   </g>
   <g id="patch_80">
    <path clip-path="url(#p3462dfd7a8)" d="M 391.99456 236.16 
L 395.686521 236.16 
L 395.686521 222.445714 
L 391.99456 222.445714 
z
" style="fill:#5bc0de;"/>
   </g>
   <g id="patch_81">
    <path clip-path="url(#p3462dfd7a8)" d="M 395.686521 236.16 
L 399.378482 236.16 
L 399.378482 213.874286 
L 395.686521 213.874286 
z
" style="fill:#5bc0de;"/>
   </g>
   <g id="patch_82">
    <path clip-path="url(#p3462dfd7a8)" d="M 399.378482 236.16 
L 403.070443 236.16 
L 403.070443 212.845714 
L 399.378482 212.845714 
z
" style="fill:#5bc0de;"/>
   </g>
   <g id="patch_83">
    <path clip-path="url(#p3462dfd7a8)" d="M 403.070443 236.16 
L 406.762404 236.16 
L 406.762404 206.331429 
L 403.070443 206.331429 
z
" style="fill:#5bc0de;"/>
   </g>
   <g id="patch_84">
    <path clip-path="url(#p3462dfd7a8)" d="M 406.762404 236.16 
L 410.454365 236.16 
L 410.454365 197.074286 
L 406.762404 197.074286 
z
" style="fill:#5bc0de;"/>
   </g>
   <g id="patch_85">
    <path clip-path="url(#p3462dfd7a8)" d="M 410.454365 236.16 
L 414.146326 236.16 
L 414.146326 184.388571 
L 410.454365 184.388571 
z
" style="fill:#5bc0de;"/>
   </g>
   <g id="patch_86">
    <path clip-path="url(#p3462dfd7a8)" d="M 414.146326 236.16 
L 417.838287 236.16 
L 417.838287 171.36 
L 414.146326 171.36 
z
" style="fill:#5bc0de;"/>
   </g>
   <g id="patch_87">
    <path clip-path="url(#p3462dfd7a8)" d="M 417.838287 236.16 
L 421.530248 236.16 
L 421.530248 166.56 
L 417.838287 166.56 
z
" style="fill:#5bc0de;"/>
   </g>
   <g id="patch_88">
    <path clip-path="url(#p3462dfd7a8)" d="M 421.530248 236.16 
L 425.222209 236.16 
L 425.222209 161.074286 
L 421.530248 161.074286 
z
" style="fill:#5bc0de;"/>
   </g>
   <g id="patch_89">
    <path clip-path="url(#p3462dfd7a8)" d="M 425.222209 236.16 
L 428.91417 236.16 
L 428.91417 152.502857 
L 425.222209 152.502857 
z
" style="fill:#5bc0de;"/>
   </g>
   <g id="patch_90">
    <path clip-path="url(#p3462dfd7a8)" d="M 428.91417 236.16 
L 432.606131 236.16 
L 432.606131 135.017143 
L 428.91417 135.017143 
z
" style="fill:#5bc0de;"/>
   </g>
   <g id="patch_91">
    <path clip-path="url(#p3462dfd7a8)" d="M 432.606131 236.16 
L 436.298092 236.16 
L 436.298092 118.217143 
L 432.606131 118.217143 
z
" style="fill:#5bc0de;"/>
   </g>
   <g id="patch_92">
    <path clip-path="url(#p3462dfd7a8)" d="M 436.298092 236.16 
L 439.990053 236.16 
L 439.990053 116.16 
L 436.298092 116.16 
z
" style="fill:#5bc0de;"/>
   </g>
   <g id="patch_93">
    <path clip-path="url(#p3462dfd7a8)" d="M 439.990053 236.16 
L 443.682014 236.16 
L 443.682014 96.617143 
L 439.990053 96.617143 
z
" style="fill:#5bc0de;"/>
   </g>
   <g id="patch_94">
    <path clip-path="url(#p3462dfd7a8)" d="M 443.682014 236.16 
L 447.373974 236.16 
L 447.373974 82.902857 
L 443.682014 82.902857 
z
" style="fill:#5bc0de;"/>
   </g>
   <g id="patch_95">
    <path clip-path="url(#p3462dfd7a8)" d="M 447.373974 236.16 
L 451.065935 236.16 
L 451.065935 85.988571 
L 447.373974 85.988571 
z
" style="fill:#5bc0de;"/>
   </g>
   <g id="patch_96">
    <path clip-path="url(#p3462dfd7a8)" d="M 451.065935 236.16 
L 454.757896 236.16 
L 454.757896 77.417143 
L 451.065935 77.417143 
z
" style="fill:#5bc0de;"/>
   </g>
   <g id="patch_97">
    <path clip-path="url(#p3462dfd7a8)" d="M 454.757896 236.16 
L 458.449857 236.16 
L 458.449857 55.131429 
L 454.757896 55.131429 
z
" style="fill:#5bc0de;"/>
   </g>
   <g id="patch_98">
    <path clip-path="url(#p3462dfd7a8)" d="M 458.449857 236.16 
L 462.141818 236.16 
L 462.141818 72.617143 
L 458.449857 72.617143 
z
" style="fill:#5bc0de;"/>
   </g>
   <g id="patch_99">
    <path clip-path="url(#p3462dfd7a8)" d="M 462.141818 236.16 
L 465.833779 236.16 
L 465.833779 67.131429 
L 462.141818 67.131429 
z
" style="fill:#5bc0de;"/>
   </g>
   <g id="patch_100">
    <path clip-path="url(#p3462dfd7a8)" d="M 465.833779 236.16 
L 469.52574 236.16 
L 469.52574 68.16 
L 465.833779 68.16 
z
" style="fill:#5bc0de;"/>
   </g>
   <g id="patch_101">
    <path clip-path="url(#p3462dfd7a8)" d="M 469.52574 236.16 
L 473.217701 236.16 
L 473.217701 85.988571 
L 469.52574 85.988571 
z
" style="fill:#5bc0de;"/>
   </g>
   <g id="patch_102">
    <path clip-path="url(#p3462dfd7a8)" d="M 473.217701 236.16 
L 476.909662 236.16 
L 476.909662 71.245714 
L 473.217701 71.245714 
z
" style="fill:#5bc0de;"/>
   </g>
   <g id="patch_103">
    <path clip-path="url(#p3462dfd7a8)" d="M 476.909662 236.16 
L 480.601623 236.16 
L 480.601623 103.131429 
L 476.909662 103.131429 
z
" style="fill:#5bc0de;"/>
   </g>
   <g id="patch_104">
    <path clip-path="url(#p3462dfd7a8)" d="M 480.601623 236.16 
L 484.293584 236.16 
L 484.293584 109.645714 
L 480.601623 109.645714 
z
" style="fill:#5bc0de;"/>
   </g>
   <g id="patch_105">
    <path clip-path="url(#p3462dfd7a8)" d="M 484.293584 236.16 
L 487.985545 236.16 
L 487.985545 118.217143 
L 484.293584 118.217143 
z
" style="fill:#5bc0de;"/>
   </g>
   <g id="patch_106">
    <path clip-path="url(#p3462dfd7a8)" d="M 487.985545 236.16 
L 491.677506 236.16 
L 491.677506 133.988571 
L 487.985545 133.988571 
z
" style="fill:#5bc0de;"/>
   </g>
   <g id="patch_107">
    <path clip-path="url(#p3462dfd7a8)" d="M 491.677506 236.16 
L 495.369467 236.16 
L 495.369467 149.417143 
L 491.677506 149.417143 
z
" style="fill:#5bc0de;"/>
   </g>
   <g id="patch_108">
    <path clip-path="url(#p3462dfd7a8)" d="M 495.369467 236.16 
L 499.061427 236.16 
L 499.061427 156.617143 
L 495.369467 156.617143 
z
" style="fill:#5bc0de;"/>
   </g>
   <g id="patch_109">
    <path clip-path="url(#p3462dfd7a8)" d="M 499.061427 236.16 
L 502.753388 236.16 
L 502.753388 173.417143 
L 499.061427 173.417143 
z
" style="fill:#5bc0de;"/>
   </g>
   <g id="patch_110">
    <path clip-path="url(#p3462dfd7a8)" d="M 502.753388 236.16 
L 506.445349 236.16 
L 506.445349 174.788571 
L 502.753388 174.788571 
z
" style="fill:#5bc0de;"/>
   </g>
   <g id="patch_111">
    <path clip-path="url(#p3462dfd7a8)" d="M 506.445349 236.16 
L 510.13731 236.16 
L 510.13731 194.674286 
L 506.445349 194.674286 
z
" style="fill:#5bc0de;"/>
   </g>
   <g id="patch_112">
    <path clip-path="url(#p3462dfd7a8)" d="M 510.13731 236.16 
L 513.829271 236.16 
L 513.829271 197.074286 
L 510.13731 197.074286 
z
" style="fill:#5bc0de;"/>
   </g>
   <g id="patch_113">
    <path clip-path="url(#p3462dfd7a8)" d="M 513.829271 236.16 
L 517.521232 236.16 
L 517.521232 206.674286 
L 513.829271 206.674286 
z
" style="fill:#5bc0de;"/>
   </g>
   <g id="patch_114">
    <path clip-path="url(#p3462dfd7a8)" d="M 517.521232 236.16 
L 521.213193 236.16 
L 521.213193 210.788571 
L 517.521232 210.788571 
z
" style="fill:#5bc0de;"/>
   </g>
   <g id="patch_115">
    <path clip-path="url(#p3462dfd7a8)" d="M 521.213193 236.16 
L 524.905154 236.16 
L 524.905154 219.017143 
L 521.213193 219.017143 
z
" style="fill:#5bc0de;"/>
   </g>
   <g id="patch_116">
    <path clip-path="url(#p3462dfd7a8)" d="M 524.905154 236.16 
L 528.597115 236.16 
L 528.597115 224.845714 
L 524.905154 224.845714 
z
" style="fill:#5bc0de;"/>
   </g>
   <g id="patch_117">
    <path clip-path="url(#p3462dfd7a8)" d="M 528.597115 236.16 
L 532.289076 236.16 
L 532.289076 225.874286 
L 528.597115 225.874286 
z
" style="fill:#5bc0de;"/>
   </g>
   <g id="patch_118">
    <path clip-path="url(#p3462dfd7a8)" d="M 532.289076 236.16 
L 535.981037 236.16 
L 535.981037 228.617143 
L 532.289076 228.617143 
z
" style="fill:#5bc0de;"/>
   </g>
   <g id="patch_119">
    <path clip-path="url(#p3462dfd7a8)" d="M 535.981037 236.16 
L 539.672998 236.16 
L 539.672998 229.645714 
L 535.981037 229.645714 
z
" style="fill:#5bc0de;"/>
   </g>
   <g id="patch_120">
    <path clip-path="url(#p3462dfd7a8)" d="M 539.672998 236.16 
L 543.364959 236.16 
L 543.364959 232.388571 
L 539.672998 232.388571 
z
" style="fill:#5bc0de;"/>
   </g>
   <g id="patch_121">
    <path clip-path="url(#p3462dfd7a8)" d="M 543.364959 236.16 
L 547.05692 236.16 
L 547.05692 232.731429 
L 543.364959 232.731429 
z
" style="fill:#5bc0de;"/>
   </g>
   <g id="patch_122">
    <path clip-path="url(#p3462dfd7a8)" d="M 547.05692 236.16 
L 550.748881 236.16 
L 550.748881 232.731429 
L 547.05692 232.731429 
z
" style="fill:#5bc0de;"/>
   </g>
   <g id="patch_123">
    <path clip-path="url(#p3462dfd7a8)" d="M 550.748881 236.16 
L 554.440841 236.16 
L 554.440841 234.445714 
L 550.748881 234.445714 
z
" style="fill:#5bc0de;"/>
   </g>
   <g id="patch_124">
    <path clip-path="url(#p3462dfd7a8)" d="M 554.440841 236.16 
L 558.132802 236.16 
L 558.132802 234.788571 
L 554.440841 234.788571 
z
" style="fill:#5bc0de;"/>
   </g>
   <g id="patch_125">
    <path clip-path="url(#p3462dfd7a8)" d="M 558.132802 236.16 
L 561.824763 236.16 
L 561.824763 235.131429 
L 558.132802 235.131429 
z
" style="fill:#5bc0de;"/>
   </g>
   <g id="patch_126">
    <path clip-path="url(#p3462dfd7a8)" d="M 561.824763 236.16 
L 565.516724 236.16 
L 565.516724 235.131429 
L 561.824763 235.131429 
z
" style="fill:#5bc0de;"/>
   </g>
   <g id="patch_127">
    <path clip-path="url(#p3462dfd7a8)" d="M 565.516724 236.16 
L 569.208685 236.16 
L 569.208685 235.817143 
L 565.516724 235.817143 
z
" style="fill:#5bc0de;"/>
   </g>
   <g id="patch_128">
    <path clip-path="url(#p3462dfd7a8)" d="M 569.208685 236.16 
L 572.900646 236.16 
L 572.900646 236.16 
L 569.208685 236.16 
z
" style="fill:#5bc0de;"/>
   </g>
   <g id="patch_129">
    <path clip-path="url(#p3462dfd7a8)" d="M 572.900646 236.16 
L 576.592607 236.16 
L 576.592607 236.16 
L 572.900646 236.16 
z
" style="fill:#5bc0de;"/>
   </g>
   <g id="patch_130">
    <path clip-path="url(#p3462dfd7a8)" d="M 576.592607 236.16 
L 580.284568 236.16 
L 580.284568 236.16 
L 576.592607 236.16 
z
" style="fill:#5bc0de;"/>
   </g>
   <g id="patch_131">
    <path clip-path="url(#p3462dfd7a8)" d="M 580.284568 236.16 
L 583.976529 236.16 
L 583.976529 235.817143 
L 580.284568 235.817143 
z
" style="fill:#5bc0de;"/>
   </g>
   <g id="matplotlib.axis_3">
    <g id="text_5">
     <!-- Statistic of interest -->
     <g style="fill:#d2d2d2;" transform="translate(390.834396 254.627187)scale(0.15 -0.15)">
      <use xlink:href="#DejaVuSans-53"/>
      <use x="63.476562" xlink:href="#DejaVuSans-74"/>
      <use x="102.685547" xlink:href="#DejaVuSans-61"/>
      <use x="163.964844" xlink:href="#DejaVuSans-74"/>
      <use x="203.173828" xlink:href="#DejaVuSans-69"/>
      <use x="230.957031" xlink:href="#DejaVuSans-73"/>
      <use x="283.056641" xlink:href="#DejaVuSans-74"/>
      <use x="322.265625" xlink:href="#DejaVuSans-69"/>
      <use x="350.048828" xlink:href="#DejaVuSans-63"/>
      <use x="405.029297" xlink:href="#DejaVuSans-20"/>
      <use x="436.816406" xlink:href="#DejaVuSans-6f"/>
      <use x="497.998047" xlink:href="#DejaVuSans-66"/>
      <use x="533.203125" xlink:href="#DejaVuSans-20"/>
      <use x="564.990234" xlink:href="#DejaVuSans-69"/>
      <use x="592.773438" xlink:href="#DejaVuSans-6e"/>
      <use x="656.152344" xlink:href="#DejaVuSans-74"/>
      <use x="695.361328" xlink:href="#DejaVuSans-65"/>
      <use x="756.884766" xlink:href="#DejaVuSans-72"/>
      <use x="797.966797" xlink:href="#DejaVuSans-65"/>
      <use x="859.490234" xlink:href="#DejaVuSans-73"/>
      <use x="911.589844" xlink:href="#DejaVuSans-74"/>
     </g>
     <!-- $\frac{\hat{p}_1}{\hat{p}_2}$, $\frac{\bar{x}_1}{\bar{x}_2}$, $\frac{m_1}{m_2}$, ... -->
     <g style="fill:#d2d2d2;" transform="translate(418.716818 276.346719)scale(0.15 -0.15)">
      <use transform="translate(45.514648 68.007812)scale(0.7)" xlink:href="#DejaVuSans-302"/>
      <use transform="translate(0 59.260938)scale(0.7)" xlink:href="#DejaVuSans-Oblique-70"/>
      <use transform="translate(45.103516 47.776562)scale(0.49)" xlink:href="#DejaVuSans-31"/>
      <use transform="translate(45.514648 -42.539062)scale(0.7)" xlink:href="#DejaVuSans-302"/>
      <use transform="translate(0 -51.285937)scale(0.7)" xlink:href="#DejaVuSans-Oblique-70"/>
      <use transform="translate(45.103516 -62.770312)scale(0.49)" xlink:href="#DejaVuSans-32"/>
      <use transform="translate(90.692871 0.90625)" xlink:href="#DejaVuSans-2c"/>
      <use transform="translate(122.47998 0.90625)" xlink:href="#DejaVuSans-20"/>
      <use transform="translate(197.217285 56.125)scale(0.7)" xlink:href="#DejaVuSans-304"/>
      <use transform="translate(154.26709 56.1875)scale(0.7)" xlink:href="#DejaVuSans-Oblique-78"/>
      <use transform="translate(196.362793 44.703125)scale(0.49)" xlink:href="#DejaVuSans-31"/>
      <use transform="translate(197.217285 -38.704687)scale(0.7)" xlink:href="#DejaVuSans-304"/>
      <use transform="translate(154.26709 -38.642187)scale(0.7)" xlink:href="#DejaVuSans-Oblique-78"/>
      <use transform="translate(196.362793 -50.126562)scale(0.49)" xlink:href="#DejaVuSans-32"/>
      <use transform="translate(241.952148 0.90625)" xlink:href="#DejaVuSans-2c"/>
      <use transform="translate(273.739258 0.90625)" xlink:href="#DejaVuSans-20"/>
      <use transform="translate(305.526367 56.1875)scale(0.7)" xlink:href="#DejaVuSans-Oblique-6d"/>
      <use transform="translate(373.714844 44.703125)scale(0.49)" xlink:href="#DejaVuSans-31"/>
      <use transform="translate(305.526367 -25.746875)scale(0.7)" xlink:href="#DejaVuSans-Oblique-6d"/>
      <use transform="translate(373.714844 -37.23125)scale(0.49)" xlink:href="#DejaVuSans-32"/>
      <use transform="translate(419.304199 0.90625)" xlink:href="#DejaVuSans-2c"/>
      <use transform="translate(451.091309 0.90625)" xlink:href="#DejaVuSans-20"/>
      <use transform="translate(482.878418 0.90625)" xlink:href="#DejaVuSans-2e"/>
      <use transform="translate(514.665527 0.90625)" xlink:href="#DejaVuSans-2e"/>
      <use transform="translate(546.452637 0.90625)" xlink:href="#DejaVuSans-2e"/>
      <path d="M 0 19.703125 
L 0 25.953125 
L 78.192871 25.953125 
L 78.192871 19.703125 
L 0 19.703125 
z
"/>
      <path d="M 154.26709 19.703125 
L 154.26709 25.953125 
L 229.452148 25.953125 
L 229.452148 19.703125 
L 154.26709 19.703125 
z
"/>
      <path d="M 305.526367 19.703125 
L 305.526367 25.953125 
L 406.804199 25.953125 
L 406.804199 19.703125 
L 305.526367 19.703125 
z
"/>
     </g>
    </g>
   </g>
   <g id="matplotlib.axis_4"/>
   <g id="line2d_4">
    <path clip-path="url(#p3462dfd7a8)" d="M 460.432111 236.16 
L 460.432111 169.632 
" style="fill:none;stroke:#d9534f;stroke-dasharray:5.6,2.4;stroke-dashoffset:0;stroke-width:2;"/>
   </g>
   <g id="line2d_5">
    <path clip-path="url(#p3462dfd7a8)" d="M 460.432111 141.12 
L 460.432111 46.08 
" style="fill:none;stroke:#d9534f;stroke-dasharray:5.6,2.4;stroke-dashoffset:0;stroke-width:2;"/>
   </g>
   <g id="line2d_6">
    <path clip-path="url(#p3462dfd7a8)" d="M 501.220172 236.16 
L 501.220172 118.3104 
" style="fill:none;stroke:#f0ad4e;stroke-dasharray:5.6,2.4;stroke-dashoffset:0;stroke-width:2;"/>
   </g>
   <g id="patch_132">
    <path d="M 328.123636 236.16 
L 596.16 236.16 
" style="fill:none;stroke:#d2d2d2;stroke-linecap:square;stroke-linejoin:miter;stroke-width:0.8;"/>
   </g>
   <g id="text_6">
    <!-- 1 -->
    <g style="fill:#d9534f;" transform="translate(455.660236 160.128)scale(0.15 -0.15)">
     <use xlink:href="#DejaVuSans-31"/>
    </g>
   </g>
   <g id="text_7">
    <!-- Ratio of the parameters -->
    <defs>
     <path d="M 44.390625 34.1875 
Q 47.5625 33.109375 50.5625 29.59375 
Q 53.5625 26.078125 56.59375 19.921875 
L 66.609375 0 
L 56 0 
L 46.6875 18.703125 
Q 43.0625 26.03125 39.671875 28.421875 
Q 36.28125 30.8125 30.421875 30.8125 
L 19.671875 30.8125 
L 19.671875 0 
L 9.8125 0 
L 9.8125 72.90625 
L 32.078125 72.90625 
Q 44.578125 72.90625 50.734375 67.671875 
Q 56.890625 62.453125 56.890625 51.90625 
Q 56.890625 45.015625 53.6875 40.46875 
Q 50.484375 35.9375 44.390625 34.1875 
M 19.671875 64.796875 
L 19.671875 38.921875 
L 32.078125 38.921875 
Q 39.203125 38.921875 42.84375 42.21875 
Q 46.484375 45.515625 46.484375 51.90625 
Q 46.484375 58.296875 42.84375 61.546875 
Q 39.203125 64.796875 32.078125 64.796875 
z
" id="DejaVuSans-52"/>
    </defs>
    <g style="fill:#d9534f;" transform="translate(370.823517 13.596469)scale(0.15 -0.15)">
     <use xlink:href="#DejaVuSans-52"/>
     <use x="69.451172" xlink:href="#DejaVuSans-61"/>
     <use x="130.730469" xlink:href="#DejaVuSans-74"/>
     <use x="169.939453" xlink:href="#DejaVuSans-69"/>
     <use x="197.722656" xlink:href="#DejaVuSans-6f"/>
     <use x="258.904297" xlink:href="#DejaVuSans-20"/>
     <use x="290.691406" xlink:href="#DejaVuSans-6f"/>
     <use x="351.873047" xlink:href="#DejaVuSans-66"/>
     <use x="387.078125" xlink:href="#DejaVuSans-20"/>
     <use x="418.865234" xlink:href="#DejaVuSans-74"/>
     <use x="458.074219" xlink:href="#DejaVuSans-68"/>
     <use x="521.453125" xlink:href="#DejaVuSans-65"/>
     <use x="582.976562" xlink:href="#DejaVuSans-20"/>
     <use x="614.763672" xlink:href="#DejaVuSans-70"/>
     <use x="678.240234" xlink:href="#DejaVuSans-61"/>
     <use x="739.519531" xlink:href="#DejaVuSans-72"/>
     <use x="780.632812" xlink:href="#DejaVuSans-61"/>
     <use x="841.912109" xlink:href="#DejaVuSans-6d"/>
     <use x="939.324219" xlink:href="#DejaVuSans-65"/>
     <use x="1000.847656" xlink:href="#DejaVuSans-74"/>
     <use x="1040.056641" xlink:href="#DejaVuSans-65"/>
     <use x="1101.580078" xlink:href="#DejaVuSans-72"/>
     <use x="1142.693359" xlink:href="#DejaVuSans-73"/>
    </g>
    <!-- $(\frac{\pi_1}{\pi_2}=1)$, $(\frac{\mu_1}{\mu_2}=1)$, ... -->
    <g style="fill:#d9534f;" transform="translate(390.682111 34.176)scale(0.15 -0.15)">
     <use transform="translate(0 0.364063)" xlink:href="#DejaVuSans-28"/>
     <use transform="translate(39.013672 55.645313)scale(0.7)" xlink:href="#DejaVuSans-Oblique-3c0"/>
     <use transform="translate(81.157227 44.160938)scale(0.49)" xlink:href="#DejaVuSans-31"/>
     <use transform="translate(39.013672 -25.370312)scale(0.7)" xlink:href="#DejaVuSans-Oblique-3c0"/>
     <use transform="translate(81.157227 -36.854688)scale(0.49)" xlink:href="#DejaVuSans-32"/>
     <use transform="translate(146.229004 0.364063)" xlink:href="#DejaVuSans-3d"/>
     <use transform="translate(249.500488 0.364063)" xlink:href="#DejaVuSans-31"/>
     <use transform="translate(313.123535 0.364063)" xlink:href="#DejaVuSans-29"/>
     <use transform="translate(352.137207 0.364063)" xlink:href="#DejaVuSans-2c"/>
     <use transform="translate(383.924316 0.364063)" xlink:href="#DejaVuSans-20"/>
     <use transform="translate(415.711426 0.364063)" xlink:href="#DejaVuSans-28"/>
     <use transform="translate(454.725098 58.71875)scale(0.7)" xlink:href="#DejaVuSans-Oblique-3bc"/>
     <use transform="translate(499.26123 47.234375)scale(0.49)" xlink:href="#DejaVuSans-31"/>
     <use transform="translate(454.725098 -25.370312)scale(0.7)" xlink:href="#DejaVuSans-Oblique-3bc"/>
     <use transform="translate(499.26123 -36.854688)scale(0.49)" xlink:href="#DejaVuSans-32"/>
     <use transform="translate(564.333008 0.364063)" xlink:href="#DejaVuSans-3d"/>
     <use transform="translate(667.604492 0.364063)" xlink:href="#DejaVuSans-31"/>
     <use transform="translate(731.227539 0.364063)" xlink:href="#DejaVuSans-29"/>
     <use transform="translate(770.241211 0.364063)" xlink:href="#DejaVuSans-2c"/>
     <use transform="translate(802.02832 0.364063)" xlink:href="#DejaVuSans-20"/>
     <use transform="translate(833.81543 0.364063)" xlink:href="#DejaVuSans-2e"/>
     <use transform="translate(865.602539 0.364063)" xlink:href="#DejaVuSans-2e"/>
     <use transform="translate(897.389648 0.364063)" xlink:href="#DejaVuSans-2e"/>
     <path d="M 39.013672 19.160938 
L 39.013672 25.410938 
L 114.246582 25.410938 
L 114.246582 19.160938 
L 39.013672 19.160938 
z
"/>
     <path d="M 454.725098 19.160938 
L 454.725098 25.410938 
L 532.350586 25.410938 
L 532.350586 19.160938 
L 454.725098 19.160938 
z
"/>
    </g>
   </g>
   <g id="text_8">
    <!-- Statistic calculated -->
    <g style="fill:#f0ad4e;" transform="translate(501.220172 79.014563)scale(0.15 -0.15)">
     <use xlink:href="#DejaVuSans-53"/>
     <use x="63.476562" xlink:href="#DejaVuSans-74"/>
     <use x="102.685547" xlink:href="#DejaVuSans-61"/>
     <use x="163.964844" xlink:href="#DejaVuSans-74"/>
     <use x="203.173828" xlink:href="#DejaVuSans-69"/>
     <use x="230.957031" xlink:href="#DejaVuSans-73"/>
     <use x="283.056641" xlink:href="#DejaVuSans-74"/>
     <use x="322.265625" xlink:href="#DejaVuSans-69"/>
     <use x="350.048828" xlink:href="#DejaVuSans-63"/>
     <use x="405.029297" xlink:href="#DejaVuSans-20"/>
     <use x="436.816406" xlink:href="#DejaVuSans-63"/>
     <use x="491.796875" xlink:href="#DejaVuSans-61"/>
     <use x="553.076172" xlink:href="#DejaVuSans-6c"/>
     <use x="580.859375" xlink:href="#DejaVuSans-63"/>
     <use x="635.839844" xlink:href="#DejaVuSans-75"/>
     <use x="699.21875" xlink:href="#DejaVuSans-6c"/>
     <use x="727.001953" xlink:href="#DejaVuSans-61"/>
     <use x="788.28125" xlink:href="#DejaVuSans-74"/>
     <use x="827.490234" xlink:href="#DejaVuSans-65"/>
     <use x="889.013672" xlink:href="#DejaVuSans-64"/>
    </g>
    <!-- from the two -->
    <g style="fill:#f0ad4e;" transform="translate(501.220172 95.811281)scale(0.15 -0.15)">
     <use xlink:href="#DejaVuSans-66"/>
     <use x="35.205078" xlink:href="#DejaVuSans-72"/>
     <use x="76.287109" xlink:href="#DejaVuSans-6f"/>
     <use x="137.46875" xlink:href="#DejaVuSans-6d"/>
     <use x="234.880859" xlink:href="#DejaVuSans-20"/>
     <use x="266.667969" xlink:href="#DejaVuSans-74"/>
     <use x="305.876953" xlink:href="#DejaVuSans-68"/>
     <use x="369.255859" xlink:href="#DejaVuSans-65"/>
     <use x="430.779297" xlink:href="#DejaVuSans-20"/>
     <use x="462.566406" xlink:href="#DejaVuSans-74"/>
     <use x="501.775391" xlink:href="#DejaVuSans-77"/>
     <use x="583.5625" xlink:href="#DejaVuSans-6f"/>
    </g>
    <!-- original samples -->
    <g style="fill:#f0ad4e;" transform="translate(501.220172 112.608)scale(0.15 -0.15)">
     <use xlink:href="#DejaVuSans-6f"/>
     <use x="61.181641" xlink:href="#DejaVuSans-72"/>
     <use x="102.294922" xlink:href="#DejaVuSans-69"/>
     <use x="130.078125" xlink:href="#DejaVuSans-67"/>
     <use x="193.554688" xlink:href="#DejaVuSans-69"/>
     <use x="221.337891" xlink:href="#DejaVuSans-6e"/>
     <use x="284.716797" xlink:href="#DejaVuSans-61"/>
     <use x="345.996094" xlink:href="#DejaVuSans-6c"/>
     <use x="373.779297" xlink:href="#DejaVuSans-20"/>
     <use x="405.566406" xlink:href="#DejaVuSans-73"/>
     <use x="457.666016" xlink:href="#DejaVuSans-61"/>
     <use x="518.945312" xlink:href="#DejaVuSans-6d"/>
     <use x="616.357422" xlink:href="#DejaVuSans-70"/>
     <use x="679.833984" xlink:href="#DejaVuSans-6c"/>
     <use x="707.617188" xlink:href="#DejaVuSans-65"/>
     <use x="769.140625" xlink:href="#DejaVuSans-73"/>
    </g>
   </g>
  </g>
 </g>
 <defs>
  <clipPath id="p42663a3087">
   <rect height="190.08" width="268.036364" x="6.48" y="46.08"/>
  </clipPath>
  <clipPath id="p3462dfd7a8">
   <rect height="190.08" width="268.036364" x="328.123636" y="46.08"/>
  </clipPath>
 </defs>
</svg>
