<?xml version="1.0" encoding="utf-8" standalone="no"?>
<!DOCTYPE svg PUBLIC "-//W3C//DTD SVG 1.1//EN"
  "http://www.w3.org/Graphics/SVG/1.1/DTD/svg11.dtd">
<!-- Created with matplotlib (http://matplotlib.org/) -->
<svg height="288pt" version="1.1" viewBox="0 0 432 288" width="432pt" xmlns="http://www.w3.org/2000/svg" xmlns:xlink="http://www.w3.org/1999/xlink">
 <defs>
  <style type="text/css">
*{stroke-linecap:butt;stroke-linejoin:round;}
  </style>
 </defs>
 <g id="figure_1">
  <g id="patch_1">
   <path d="M 0 288 
L 432 288 
L 432 0 
L 0 0 
z
" style="fill:none;"/>
  </g>
  <g id="axes_1">
   <g id="patch_2">
    <path d="M 64.8 230.4 
L 410.4 230.4 
L 410.4 14.4 
L 64.8 14.4 
z
" style="fill:none;"/>
   </g>
   <g id="matplotlib.axis_1">
    <g id="xtick_1">
     <g id="line2d_1">
      <defs>
       <path d="M 0 0 
L 0 4 
" id="m41c641974f" style="stroke:#d2d2d2;"/>
      </defs>
      <g>
       <use style="fill:#d2d2d2;stroke:#d2d2d2;" x="77.367273" xlink:href="#m41c641974f" y="230.4"/>
      </g>
     </g>
     <g id="text_1">
      <!-- 1900 -->
      <defs>
       <path d="M 12.40625 8.296875 
L 28.515625 8.296875 
L 28.515625 63.921875 
L 10.984375 60.40625 
L 10.984375 69.390625 
L 28.421875 72.90625 
L 38.28125 72.90625 
L 38.28125 8.296875 
L 54.390625 8.296875 
L 54.390625 0 
L 12.40625 0 
z
" id="DejaVuSans-31"/>
       <path d="M 10.984375 1.515625 
L 10.984375 10.5 
Q 14.703125 8.734375 18.5 7.8125 
Q 22.3125 6.890625 25.984375 6.890625 
Q 35.75 6.890625 40.890625 13.453125 
Q 46.046875 20.015625 46.78125 33.40625 
Q 43.953125 29.203125 39.59375 26.953125 
Q 35.25 24.703125 29.984375 24.703125 
Q 19.046875 24.703125 12.671875 31.3125 
Q 6.296875 37.9375 6.296875 49.421875 
Q 6.296875 60.640625 12.9375 67.421875 
Q 19.578125 74.21875 30.609375 74.21875 
Q 43.265625 74.21875 49.921875 64.515625 
Q 56.59375 54.828125 56.59375 36.375 
Q 56.59375 19.140625 48.40625 8.859375 
Q 40.234375 -1.421875 26.421875 -1.421875 
Q 22.703125 -1.421875 18.890625 -0.6875 
Q 15.09375 0.046875 10.984375 1.515625 
M 30.609375 32.421875 
Q 37.25 32.421875 41.125 36.953125 
Q 45.015625 41.5 45.015625 49.421875 
Q 45.015625 57.28125 41.125 61.84375 
Q 37.25 66.40625 30.609375 66.40625 
Q 23.96875 66.40625 20.09375 61.84375 
Q 16.21875 57.28125 16.21875 49.421875 
Q 16.21875 41.5 20.09375 36.953125 
Q 23.96875 32.421875 30.609375 32.421875 
" id="DejaVuSans-39"/>
       <path d="M 31.78125 66.40625 
Q 24.171875 66.40625 20.328125 58.90625 
Q 16.5 51.421875 16.5 36.375 
Q 16.5 21.390625 20.328125 13.890625 
Q 24.171875 6.390625 31.78125 6.390625 
Q 39.453125 6.390625 43.28125 13.890625 
Q 47.125 21.390625 47.125 36.375 
Q 47.125 51.421875 43.28125 58.90625 
Q 39.453125 66.40625 31.78125 66.40625 
M 31.78125 74.21875 
Q 44.046875 74.21875 50.515625 64.515625 
Q 56.984375 54.828125 56.984375 36.375 
Q 56.984375 17.96875 50.515625 8.265625 
Q 44.046875 -1.421875 31.78125 -1.421875 
Q 19.53125 -1.421875 13.0625 8.265625 
Q 6.59375 17.96875 6.59375 36.375 
Q 6.59375 54.828125 13.0625 64.515625 
Q 19.53125 74.21875 31.78125 74.21875 
" id="DejaVuSans-30"/>
      </defs>
      <g style="fill:#d2d2d2;" transform="translate(60.824773 248.277969)scale(0.13 -0.13)">
       <use xlink:href="#DejaVuSans-31"/>
       <use x="63.623047" xlink:href="#DejaVuSans-39"/>
       <use x="127.246094" xlink:href="#DejaVuSans-30"/>
       <use x="190.869141" xlink:href="#DejaVuSans-30"/>
      </g>
     </g>
    </g>
    <g id="xtick_2">
     <g id="line2d_2">
      <g>
       <use style="fill:#d2d2d2;stroke:#d2d2d2;" x="122.609455" xlink:href="#m41c641974f" y="230.4"/>
      </g>
     </g>
     <g id="text_2">
      <!-- 1936 -->
      <defs>
       <path d="M 40.578125 39.3125 
Q 47.65625 37.796875 51.625 33 
Q 55.609375 28.21875 55.609375 21.1875 
Q 55.609375 10.40625 48.1875 4.484375 
Q 40.765625 -1.421875 27.09375 -1.421875 
Q 22.515625 -1.421875 17.65625 -0.515625 
Q 12.796875 0.390625 7.625 2.203125 
L 7.625 11.71875 
Q 11.71875 9.328125 16.59375 8.109375 
Q 21.484375 6.890625 26.8125 6.890625 
Q 36.078125 6.890625 40.9375 10.546875 
Q 45.796875 14.203125 45.796875 21.1875 
Q 45.796875 27.640625 41.28125 31.265625 
Q 36.765625 34.90625 28.71875 34.90625 
L 20.21875 34.90625 
L 20.21875 43.015625 
L 29.109375 43.015625 
Q 36.375 43.015625 40.234375 45.921875 
Q 44.09375 48.828125 44.09375 54.296875 
Q 44.09375 59.90625 40.109375 62.90625 
Q 36.140625 65.921875 28.71875 65.921875 
Q 24.65625 65.921875 20.015625 65.03125 
Q 15.375 64.15625 9.8125 62.3125 
L 9.8125 71.09375 
Q 15.4375 72.65625 20.34375 73.4375 
Q 25.25 74.21875 29.59375 74.21875 
Q 40.828125 74.21875 47.359375 69.109375 
Q 53.90625 64.015625 53.90625 55.328125 
Q 53.90625 49.265625 50.4375 45.09375 
Q 46.96875 40.921875 40.578125 39.3125 
" id="DejaVuSans-33"/>
       <path d="M 33.015625 40.375 
Q 26.375 40.375 22.484375 35.828125 
Q 18.609375 31.296875 18.609375 23.390625 
Q 18.609375 15.53125 22.484375 10.953125 
Q 26.375 6.390625 33.015625 6.390625 
Q 39.65625 6.390625 43.53125 10.953125 
Q 47.40625 15.53125 47.40625 23.390625 
Q 47.40625 31.296875 43.53125 35.828125 
Q 39.65625 40.375 33.015625 40.375 
M 52.59375 71.296875 
L 52.59375 62.3125 
Q 48.875 64.0625 45.09375 64.984375 
Q 41.3125 65.921875 37.59375 65.921875 
Q 27.828125 65.921875 22.671875 59.328125 
Q 17.53125 52.734375 16.796875 39.40625 
Q 19.671875 43.65625 24.015625 45.921875 
Q 28.375 48.1875 33.59375 48.1875 
Q 44.578125 48.1875 50.953125 41.515625 
Q 57.328125 34.859375 57.328125 23.390625 
Q 57.328125 12.15625 50.6875 5.359375 
Q 44.046875 -1.421875 33.015625 -1.421875 
Q 20.359375 -1.421875 13.671875 8.265625 
Q 6.984375 17.96875 6.984375 36.375 
Q 6.984375 53.65625 15.1875 63.9375 
Q 23.390625 74.21875 37.203125 74.21875 
Q 40.921875 74.21875 44.703125 73.484375 
Q 48.484375 72.75 52.59375 71.296875 
" id="DejaVuSans-36"/>
      </defs>
      <g style="fill:#d2d2d2;" transform="translate(106.066955 248.277969)scale(0.13 -0.13)">
       <use xlink:href="#DejaVuSans-31"/>
       <use x="63.623047" xlink:href="#DejaVuSans-39"/>
       <use x="127.246094" xlink:href="#DejaVuSans-33"/>
       <use x="190.869141" xlink:href="#DejaVuSans-36"/>
      </g>
     </g>
    </g>
    <g id="xtick_3">
     <g id="line2d_3">
      <g>
       <use style="fill:#d2d2d2;stroke:#d2d2d2;" x="167.851636" xlink:href="#m41c641974f" y="230.4"/>
      </g>
     </g>
     <g id="text_3">
      <!-- 1972 -->
      <defs>
       <path d="M 8.203125 72.90625 
L 55.078125 72.90625 
L 55.078125 68.703125 
L 28.609375 0 
L 18.3125 0 
L 43.21875 64.59375 
L 8.203125 64.59375 
z
" id="DejaVuSans-37"/>
       <path d="M 19.1875 8.296875 
L 53.609375 8.296875 
L 53.609375 0 
L 7.328125 0 
L 7.328125 8.296875 
Q 12.9375 14.109375 22.625 23.890625 
Q 32.328125 33.6875 34.8125 36.53125 
Q 39.546875 41.84375 41.421875 45.53125 
Q 43.3125 49.21875 43.3125 52.78125 
Q 43.3125 58.59375 39.234375 62.25 
Q 35.15625 65.921875 28.609375 65.921875 
Q 23.96875 65.921875 18.8125 64.3125 
Q 13.671875 62.703125 7.8125 59.421875 
L 7.8125 69.390625 
Q 13.765625 71.78125 18.9375 73 
Q 24.125 74.21875 28.421875 74.21875 
Q 39.75 74.21875 46.484375 68.546875 
Q 53.21875 62.890625 53.21875 53.421875 
Q 53.21875 48.921875 51.53125 44.890625 
Q 49.859375 40.875 45.40625 35.40625 
Q 44.1875 33.984375 37.640625 27.21875 
Q 31.109375 20.453125 19.1875 8.296875 
" id="DejaVuSans-32"/>
      </defs>
      <g style="fill:#d2d2d2;" transform="translate(151.309136 248.277969)scale(0.13 -0.13)">
       <use xlink:href="#DejaVuSans-31"/>
       <use x="63.623047" xlink:href="#DejaVuSans-39"/>
       <use x="127.246094" xlink:href="#DejaVuSans-37"/>
       <use x="190.869141" xlink:href="#DejaVuSans-32"/>
      </g>
     </g>
    </g>
    <g id="xtick_4">
     <g id="line2d_4">
      <g>
       <use style="fill:#d2d2d2;stroke:#d2d2d2;" x="213.093818" xlink:href="#m41c641974f" y="230.4"/>
      </g>
     </g>
     <g id="text_4">
      <!-- 2008 -->
      <defs>
       <path d="M 31.78125 34.625 
Q 24.75 34.625 20.71875 30.859375 
Q 16.703125 27.09375 16.703125 20.515625 
Q 16.703125 13.921875 20.71875 10.15625 
Q 24.75 6.390625 31.78125 6.390625 
Q 38.8125 6.390625 42.859375 10.171875 
Q 46.921875 13.96875 46.921875 20.515625 
Q 46.921875 27.09375 42.890625 30.859375 
Q 38.875 34.625 31.78125 34.625 
M 21.921875 38.8125 
Q 15.578125 40.375 12.03125 44.71875 
Q 8.5 49.078125 8.5 55.328125 
Q 8.5 64.0625 14.71875 69.140625 
Q 20.953125 74.21875 31.78125 74.21875 
Q 42.671875 74.21875 48.875 69.140625 
Q 55.078125 64.0625 55.078125 55.328125 
Q 55.078125 49.078125 51.53125 44.71875 
Q 48 40.375 41.703125 38.8125 
Q 48.828125 37.15625 52.796875 32.3125 
Q 56.78125 27.484375 56.78125 20.515625 
Q 56.78125 9.90625 50.3125 4.234375 
Q 43.84375 -1.421875 31.78125 -1.421875 
Q 19.734375 -1.421875 13.25 4.234375 
Q 6.78125 9.90625 6.78125 20.515625 
Q 6.78125 27.484375 10.78125 32.3125 
Q 14.796875 37.15625 21.921875 38.8125 
M 18.3125 54.390625 
Q 18.3125 48.734375 21.84375 45.5625 
Q 25.390625 42.390625 31.78125 42.390625 
Q 38.140625 42.390625 41.71875 45.5625 
Q 45.3125 48.734375 45.3125 54.390625 
Q 45.3125 60.0625 41.71875 63.234375 
Q 38.140625 66.40625 31.78125 66.40625 
Q 25.390625 66.40625 21.84375 63.234375 
Q 18.3125 60.0625 18.3125 54.390625 
" id="DejaVuSans-38"/>
      </defs>
      <g style="fill:#d2d2d2;" transform="translate(196.551318 248.277969)scale(0.13 -0.13)">
       <use xlink:href="#DejaVuSans-32"/>
       <use x="63.623047" xlink:href="#DejaVuSans-30"/>
       <use x="127.246094" xlink:href="#DejaVuSans-30"/>
       <use x="190.869141" xlink:href="#DejaVuSans-38"/>
      </g>
     </g>
    </g>
    <g id="xtick_5">
     <g id="line2d_5">
      <g>
       <use style="fill:#d2d2d2;stroke:#d2d2d2;" x="258.336" xlink:href="#m41c641974f" y="230.4"/>
      </g>
     </g>
     <g id="text_5">
      <!-- 2044 -->
      <defs>
       <path d="M 37.796875 64.3125 
L 12.890625 25.390625 
L 37.796875 25.390625 
z
M 35.203125 72.90625 
L 47.609375 72.90625 
L 47.609375 25.390625 
L 58.015625 25.390625 
L 58.015625 17.1875 
L 47.609375 17.1875 
L 47.609375 0 
L 37.796875 0 
L 37.796875 17.1875 
L 4.890625 17.1875 
L 4.890625 26.703125 
z
" id="DejaVuSans-34"/>
      </defs>
      <g style="fill:#d2d2d2;" transform="translate(241.7935 248.277969)scale(0.13 -0.13)">
       <use xlink:href="#DejaVuSans-32"/>
       <use x="63.623047" xlink:href="#DejaVuSans-30"/>
       <use x="127.246094" xlink:href="#DejaVuSans-34"/>
       <use x="190.869141" xlink:href="#DejaVuSans-34"/>
      </g>
     </g>
    </g>
    <g id="xtick_6">
     <g id="line2d_6">
      <g>
       <use style="fill:#d2d2d2;stroke:#d2d2d2;" x="303.578182" xlink:href="#m41c641974f" y="230.4"/>
      </g>
     </g>
     <g id="text_6">
      <!-- 2080 -->
      <g style="fill:#d2d2d2;" transform="translate(287.035682 248.277969)scale(0.13 -0.13)">
       <use xlink:href="#DejaVuSans-32"/>
       <use x="63.623047" xlink:href="#DejaVuSans-30"/>
       <use x="127.246094" xlink:href="#DejaVuSans-38"/>
       <use x="190.869141" xlink:href="#DejaVuSans-30"/>
      </g>
     </g>
    </g>
    <g id="xtick_7">
     <g id="line2d_7">
      <g>
       <use style="fill:#d2d2d2;stroke:#d2d2d2;" x="348.820364" xlink:href="#m41c641974f" y="230.4"/>
      </g>
     </g>
     <g id="text_7">
      <!-- 2116 -->
      <g style="fill:#d2d2d2;" transform="translate(332.277864 248.277969)scale(0.13 -0.13)">
       <use xlink:href="#DejaVuSans-32"/>
       <use x="63.623047" xlink:href="#DejaVuSans-31"/>
       <use x="127.246094" xlink:href="#DejaVuSans-31"/>
       <use x="190.869141" xlink:href="#DejaVuSans-36"/>
      </g>
     </g>
    </g>
    <g id="xtick_8">
     <g id="line2d_8">
      <g>
       <use style="fill:#d2d2d2;stroke:#d2d2d2;" x="394.062545" xlink:href="#m41c641974f" y="230.4"/>
      </g>
     </g>
     <g id="text_8">
      <!-- 2152 -->
      <defs>
       <path d="M 10.796875 72.90625 
L 49.515625 72.90625 
L 49.515625 64.59375 
L 19.828125 64.59375 
L 19.828125 46.734375 
Q 21.96875 47.46875 24.109375 47.828125 
Q 26.265625 48.1875 28.421875 48.1875 
Q 40.625 48.1875 47.75 41.5 
Q 54.890625 34.8125 54.890625 23.390625 
Q 54.890625 11.625 47.5625 5.09375 
Q 40.234375 -1.421875 26.90625 -1.421875 
Q 22.3125 -1.421875 17.546875 -0.640625 
Q 12.796875 0.140625 7.71875 1.703125 
L 7.71875 11.625 
Q 12.109375 9.234375 16.796875 8.0625 
Q 21.484375 6.890625 26.703125 6.890625 
Q 35.15625 6.890625 40.078125 11.328125 
Q 45.015625 15.765625 45.015625 23.390625 
Q 45.015625 31 40.078125 35.4375 
Q 35.15625 39.890625 26.703125 39.890625 
Q 22.75 39.890625 18.8125 39.015625 
Q 14.890625 38.140625 10.796875 36.28125 
z
" id="DejaVuSans-35"/>
      </defs>
      <g style="fill:#d2d2d2;" transform="translate(377.520045 248.277969)scale(0.13 -0.13)">
       <use xlink:href="#DejaVuSans-32"/>
       <use x="63.623047" xlink:href="#DejaVuSans-31"/>
       <use x="127.246094" xlink:href="#DejaVuSans-35"/>
       <use x="190.869141" xlink:href="#DejaVuSans-32"/>
      </g>
     </g>
    </g>
   </g>
   <g id="matplotlib.axis_2">
    <g id="ytick_1">
     <g id="line2d_9">
      <defs>
       <path d="M 0 0 
L -4 0 
" id="mf495f4379b" style="stroke:#d2d2d2;"/>
      </defs>
      <g>
       <use style="fill:#d2d2d2;stroke:#d2d2d2;" x="64.8" xlink:href="#mf495f4379b" y="210.763636"/>
      </g>
     </g>
     <g id="text_9">
      <!-- 8 -->
      <g style="fill:#d2d2d2;" transform="translate(48.52875 215.702621)scale(0.13 -0.13)">
       <use xlink:href="#DejaVuSans-38"/>
      </g>
     </g>
    </g>
    <g id="ytick_2">
     <g id="line2d_10">
      <g>
       <use style="fill:#d2d2d2;stroke:#d2d2d2;" x="64.8" xlink:href="#mf495f4379b" y="171.490909"/>
      </g>
     </g>
     <g id="text_10">
      <!-- 9 -->
      <g style="fill:#d2d2d2;" transform="translate(48.52875 176.429893)scale(0.13 -0.13)">
       <use xlink:href="#DejaVuSans-39"/>
      </g>
     </g>
    </g>
    <g id="ytick_3">
     <g id="line2d_11">
      <g>
       <use style="fill:#d2d2d2;stroke:#d2d2d2;" x="64.8" xlink:href="#mf495f4379b" y="132.218182"/>
      </g>
     </g>
     <g id="text_11">
      <!-- 10 -->
      <g style="fill:#d2d2d2;" transform="translate(40.2575 137.157166)scale(0.13 -0.13)">
       <use xlink:href="#DejaVuSans-31"/>
       <use x="63.623047" xlink:href="#DejaVuSans-30"/>
      </g>
     </g>
    </g>
    <g id="ytick_4">
     <g id="line2d_12">
      <g>
       <use style="fill:#d2d2d2;stroke:#d2d2d2;" x="64.8" xlink:href="#mf495f4379b" y="92.945455"/>
      </g>
     </g>
     <g id="text_12">
      <!-- 11 -->
      <g style="fill:#d2d2d2;" transform="translate(40.2575 97.884439)scale(0.13 -0.13)">
       <use xlink:href="#DejaVuSans-31"/>
       <use x="63.623047" xlink:href="#DejaVuSans-31"/>
      </g>
     </g>
    </g>
    <g id="ytick_5">
     <g id="line2d_13">
      <g>
       <use style="fill:#d2d2d2;stroke:#d2d2d2;" x="64.8" xlink:href="#mf495f4379b" y="53.672727"/>
      </g>
     </g>
     <g id="text_13">
      <!-- 12 -->
      <g style="fill:#d2d2d2;" transform="translate(40.2575 58.611712)scale(0.13 -0.13)">
       <use xlink:href="#DejaVuSans-31"/>
       <use x="63.623047" xlink:href="#DejaVuSans-32"/>
      </g>
     </g>
    </g>
    <g id="ytick_6">
     <g id="line2d_14">
      <g>
       <use style="fill:#d2d2d2;stroke:#d2d2d2;" x="64.8" xlink:href="#mf495f4379b" y="14.4"/>
      </g>
     </g>
     <g id="text_14">
      <!-- 13 -->
      <g style="fill:#d2d2d2;" transform="translate(40.2575 19.338984)scale(0.13 -0.13)">
       <use xlink:href="#DejaVuSans-31"/>
       <use x="63.623047" xlink:href="#DejaVuSans-33"/>
      </g>
     </g>
    </g>
    <g id="text_15">
     <!-- Winning time (s) -->
     <defs>
      <path d="M 3.328125 72.90625 
L 13.28125 72.90625 
L 28.609375 11.28125 
L 43.890625 72.90625 
L 54.984375 72.90625 
L 70.3125 11.28125 
L 85.59375 72.90625 
L 95.609375 72.90625 
L 77.296875 0 
L 64.890625 0 
L 49.515625 63.28125 
L 33.984375 0 
L 21.578125 0 
z
" id="DejaVuSans-57"/>
      <path d="M 9.421875 54.6875 
L 18.40625 54.6875 
L 18.40625 0 
L 9.421875 0 
z
M 9.421875 75.984375 
L 18.40625 75.984375 
L 18.40625 64.59375 
L 9.421875 64.59375 
z
" id="DejaVuSans-69"/>
      <path d="M 54.890625 33.015625 
L 54.890625 0 
L 45.90625 0 
L 45.90625 32.71875 
Q 45.90625 40.484375 42.875 44.328125 
Q 39.84375 48.1875 33.796875 48.1875 
Q 26.515625 48.1875 22.3125 43.546875 
Q 18.109375 38.921875 18.109375 30.90625 
L 18.109375 0 
L 9.078125 0 
L 9.078125 54.6875 
L 18.109375 54.6875 
L 18.109375 46.1875 
Q 21.34375 51.125 25.703125 53.5625 
Q 30.078125 56 35.796875 56 
Q 45.21875 56 50.046875 50.171875 
Q 54.890625 44.34375 54.890625 33.015625 
" id="DejaVuSans-6e"/>
      <path d="M 45.40625 27.984375 
Q 45.40625 37.75 41.375 43.109375 
Q 37.359375 48.484375 30.078125 48.484375 
Q 22.859375 48.484375 18.828125 43.109375 
Q 14.796875 37.75 14.796875 27.984375 
Q 14.796875 18.265625 18.828125 12.890625 
Q 22.859375 7.515625 30.078125 7.515625 
Q 37.359375 7.515625 41.375 12.890625 
Q 45.40625 18.265625 45.40625 27.984375 
M 54.390625 6.78125 
Q 54.390625 -7.171875 48.1875 -13.984375 
Q 42 -20.796875 29.203125 -20.796875 
Q 24.46875 -20.796875 20.265625 -20.09375 
Q 16.0625 -19.390625 12.109375 -17.921875 
L 12.109375 -9.1875 
Q 16.0625 -11.328125 19.921875 -12.34375 
Q 23.78125 -13.375 27.78125 -13.375 
Q 36.625 -13.375 41.015625 -8.765625 
Q 45.40625 -4.15625 45.40625 5.171875 
L 45.40625 9.625 
Q 42.625 4.78125 38.28125 2.390625 
Q 33.9375 0 27.875 0 
Q 17.828125 0 11.671875 7.65625 
Q 5.515625 15.328125 5.515625 27.984375 
Q 5.515625 40.671875 11.671875 48.328125 
Q 17.828125 56 27.875 56 
Q 33.9375 56 38.28125 53.609375 
Q 42.625 51.21875 45.40625 46.390625 
L 45.40625 54.6875 
L 54.390625 54.6875 
z
" id="DejaVuSans-67"/>
      <path id="DejaVuSans-20"/>
      <path d="M 18.3125 70.21875 
L 18.3125 54.6875 
L 36.8125 54.6875 
L 36.8125 47.703125 
L 18.3125 47.703125 
L 18.3125 18.015625 
Q 18.3125 11.328125 20.140625 9.421875 
Q 21.96875 7.515625 27.59375 7.515625 
L 36.8125 7.515625 
L 36.8125 0 
L 27.59375 0 
Q 17.1875 0 13.234375 3.875 
Q 9.28125 7.765625 9.28125 18.015625 
L 9.28125 47.703125 
L 2.6875 47.703125 
L 2.6875 54.6875 
L 9.28125 54.6875 
L 9.28125 70.21875 
z
" id="DejaVuSans-74"/>
      <path d="M 52 44.1875 
Q 55.375 50.25 60.0625 53.125 
Q 64.75 56 71.09375 56 
Q 79.640625 56 84.28125 50.015625 
Q 88.921875 44.046875 88.921875 33.015625 
L 88.921875 0 
L 79.890625 0 
L 79.890625 32.71875 
Q 79.890625 40.578125 77.09375 44.375 
Q 74.3125 48.1875 68.609375 48.1875 
Q 61.625 48.1875 57.5625 43.546875 
Q 53.515625 38.921875 53.515625 30.90625 
L 53.515625 0 
L 44.484375 0 
L 44.484375 32.71875 
Q 44.484375 40.625 41.703125 44.40625 
Q 38.921875 48.1875 33.109375 48.1875 
Q 26.21875 48.1875 22.15625 43.53125 
Q 18.109375 38.875 18.109375 30.90625 
L 18.109375 0 
L 9.078125 0 
L 9.078125 54.6875 
L 18.109375 54.6875 
L 18.109375 46.1875 
Q 21.1875 51.21875 25.484375 53.609375 
Q 29.78125 56 35.6875 56 
Q 41.65625 56 45.828125 52.96875 
Q 50 49.953125 52 44.1875 
" id="DejaVuSans-6d"/>
      <path d="M 56.203125 29.59375 
L 56.203125 25.203125 
L 14.890625 25.203125 
Q 15.484375 15.921875 20.484375 11.0625 
Q 25.484375 6.203125 34.421875 6.203125 
Q 39.59375 6.203125 44.453125 7.46875 
Q 49.3125 8.734375 54.109375 11.28125 
L 54.109375 2.78125 
Q 49.265625 0.734375 44.1875 -0.34375 
Q 39.109375 -1.421875 33.890625 -1.421875 
Q 20.796875 -1.421875 13.15625 6.1875 
Q 5.515625 13.8125 5.515625 26.8125 
Q 5.515625 40.234375 12.765625 48.109375 
Q 20.015625 56 32.328125 56 
Q 43.359375 56 49.78125 48.890625 
Q 56.203125 41.796875 56.203125 29.59375 
M 47.21875 32.234375 
Q 47.125 39.59375 43.09375 43.984375 
Q 39.0625 48.390625 32.421875 48.390625 
Q 24.90625 48.390625 20.390625 44.140625 
Q 15.875 39.890625 15.1875 32.171875 
z
" id="DejaVuSans-65"/>
      <path d="M 31 75.875 
Q 24.46875 64.65625 21.28125 53.65625 
Q 18.109375 42.671875 18.109375 31.390625 
Q 18.109375 20.125 21.3125 9.0625 
Q 24.515625 -2 31 -13.1875 
L 23.1875 -13.1875 
Q 15.875 -1.703125 12.234375 9.375 
Q 8.59375 20.453125 8.59375 31.390625 
Q 8.59375 42.28125 12.203125 53.3125 
Q 15.828125 64.359375 23.1875 75.875 
z
" id="DejaVuSans-28"/>
      <path d="M 44.28125 53.078125 
L 44.28125 44.578125 
Q 40.484375 46.53125 36.375 47.5 
Q 32.28125 48.484375 27.875 48.484375 
Q 21.1875 48.484375 17.84375 46.4375 
Q 14.5 44.390625 14.5 40.28125 
Q 14.5 37.15625 16.890625 35.375 
Q 19.28125 33.59375 26.515625 31.984375 
L 29.59375 31.296875 
Q 39.15625 29.25 43.1875 25.515625 
Q 47.21875 21.78125 47.21875 15.09375 
Q 47.21875 7.46875 41.1875 3.015625 
Q 35.15625 -1.421875 24.609375 -1.421875 
Q 20.21875 -1.421875 15.453125 -0.5625 
Q 10.6875 0.296875 5.421875 2 
L 5.421875 11.28125 
Q 10.40625 8.6875 15.234375 7.390625 
Q 20.0625 6.109375 24.8125 6.109375 
Q 31.15625 6.109375 34.5625 8.28125 
Q 37.984375 10.453125 37.984375 14.40625 
Q 37.984375 18.0625 35.515625 20.015625 
Q 33.0625 21.96875 24.703125 23.78125 
L 21.578125 24.515625 
Q 13.234375 26.265625 9.515625 29.90625 
Q 5.8125 33.546875 5.8125 39.890625 
Q 5.8125 47.609375 11.28125 51.796875 
Q 16.75 56 26.8125 56 
Q 31.78125 56 36.171875 55.265625 
Q 40.578125 54.546875 44.28125 53.078125 
" id="DejaVuSans-73"/>
      <path d="M 8.015625 75.875 
L 15.828125 75.875 
Q 23.140625 64.359375 26.78125 53.3125 
Q 30.421875 42.28125 30.421875 31.390625 
Q 30.421875 20.453125 26.78125 9.375 
Q 23.140625 -1.703125 15.828125 -13.1875 
L 8.015625 -13.1875 
Q 14.5 -2 17.703125 9.0625 
Q 20.90625 20.125 20.90625 31.390625 
Q 20.90625 42.671875 17.703125 53.65625 
Q 14.5 64.65625 8.015625 75.875 
" id="DejaVuSans-29"/>
     </defs>
     <g style="fill:#d2d2d2;" transform="translate(32.93 188.61)rotate(-90)scale(0.16 -0.16)">
      <use xlink:href="#DejaVuSans-57"/>
      <use x="98.845703" xlink:href="#DejaVuSans-69"/>
      <use x="126.628906" xlink:href="#DejaVuSans-6e"/>
      <use x="190.007812" xlink:href="#DejaVuSans-6e"/>
      <use x="253.386719" xlink:href="#DejaVuSans-69"/>
      <use x="281.169922" xlink:href="#DejaVuSans-6e"/>
      <use x="344.548828" xlink:href="#DejaVuSans-67"/>
      <use x="408.025391" xlink:href="#DejaVuSans-20"/>
      <use x="439.8125" xlink:href="#DejaVuSans-74"/>
      <use x="479.021484" xlink:href="#DejaVuSans-69"/>
      <use x="506.804688" xlink:href="#DejaVuSans-6d"/>
      <use x="604.216797" xlink:href="#DejaVuSans-65"/>
      <use x="665.740234" xlink:href="#DejaVuSans-20"/>
      <use x="697.527344" xlink:href="#DejaVuSans-28"/>
      <use x="736.541016" xlink:href="#DejaVuSans-73"/>
      <use x="788.640625" xlink:href="#DejaVuSans-29"/>
     </g>
    </g>
   </g>
   <g id="line2d_15">
    <defs>
     <path d="M 0 2.5 
C 0.663008 2.5 1.29895 2.236584 1.767767 1.767767 
C 2.236584 1.29895 2.5 0.663008 2.5 0 
C 2.5 -0.663008 2.236584 -1.29895 1.767767 -1.767767 
C 1.29895 -2.236584 0.663008 -2.5 0 -2.5 
C -0.663008 -2.5 -1.29895 -2.236584 -1.767767 -1.767767 
C -2.236584 -1.29895 -2.5 -0.663008 -2.5 0 
C -2.5 0.663008 -2.236584 1.29895 -1.767767 1.767767 
C -1.29895 2.236584 -0.663008 2.5 0 2.5 
z
" id="m24ee24800c" style="stroke:#5bc0de;"/>
    </defs>
    <g clip-path="url(#p0dfeec1f22)">
     <use style="fill:#5bc0de;stroke:#5bc0de;" x="77.367273" xlink:href="#m24ee24800c" y="92.945455"/>
     <use style="fill:#5bc0de;stroke:#5bc0de;" x="82.394182" xlink:href="#m24ee24800c" y="92.945455"/>
     <use style="fill:#5bc0de;stroke:#5bc0de;" x="87.421091" xlink:href="#m24ee24800c" y="100.8"/>
     <use style="fill:#5bc0de;stroke:#5bc0de;" x="92.448" xlink:href="#m24ee24800c" y="100.8"/>
     <use style="fill:#5bc0de;stroke:#5bc0de;" x="102.501818" xlink:href="#m24ee24800c" y="100.8"/>
     <use style="fill:#5bc0de;stroke:#5bc0de;" x="107.528727" xlink:href="#m24ee24800c" y="108.654545"/>
     <use style="fill:#5bc0de;stroke:#5bc0de;" x="112.555636" xlink:href="#m24ee24800c" y="100.8"/>
     <use style="fill:#5bc0de;stroke:#5bc0de;" x="117.582545" xlink:href="#m24ee24800c" y="120.436364"/>
     <use style="fill:#5bc0de;stroke:#5bc0de;" x="122.609455" xlink:href="#m24ee24800c" y="120.436364"/>
     <use style="fill:#5bc0de;stroke:#5bc0de;" x="137.690182" xlink:href="#m24ee24800c" y="120.436364"/>
     <use style="fill:#5bc0de;stroke:#5bc0de;" x="142.717091" xlink:href="#m24ee24800c" y="116.509091"/>
     <use style="fill:#5bc0de;stroke:#5bc0de;" x="147.744" xlink:href="#m24ee24800c" y="112.581818"/>
     <use style="fill:#5bc0de;stroke:#5bc0de;" x="152.770909" xlink:href="#m24ee24800c" y="124.363636"/>
     <use style="fill:#5bc0de;stroke:#5bc0de;" x="157.797818" xlink:href="#m24ee24800c" y="132.218182"/>
     <use style="fill:#5bc0de;stroke:#5bc0de;" x="162.824727" xlink:href="#m24ee24800c" y="134.181818"/>
     <use style="fill:#5bc0de;stroke:#5bc0de;" x="167.851636" xlink:href="#m24ee24800c" y="126.72"/>
     <use style="fill:#5bc0de;stroke:#5bc0de;" x="172.878545" xlink:href="#m24ee24800c" y="129.861818"/>
     <use style="fill:#5bc0de;stroke:#5bc0de;" x="177.905455" xlink:href="#m24ee24800c" y="122.4"/>
     <use style="fill:#5bc0de;stroke:#5bc0de;" x="182.932364" xlink:href="#m24ee24800c" y="132.610909"/>
     <use style="fill:#5bc0de;stroke:#5bc0de;" x="187.959273" xlink:href="#m24ee24800c" y="135.36"/>
     <use style="fill:#5bc0de;stroke:#5bc0de;" x="192.986182" xlink:href="#m24ee24800c" y="133.789091"/>
     <use style="fill:#5bc0de;stroke:#5bc0de;" x="198.013091" xlink:href="#m24ee24800c" y="138.501818"/>
     <use style="fill:#5bc0de;stroke:#5bc0de;" x="203.04" xlink:href="#m24ee24800c" y="137.323636"/>
     <use style="fill:#5bc0de;stroke:#5bc0de;" x="208.066909" xlink:href="#m24ee24800c" y="138.109091"/>
    </g>
   </g>
   <g id="line2d_16">
    <defs>
     <path d="M 0 2.5 
C 0.663008 2.5 1.29895 2.236584 1.767767 1.767767 
C 2.236584 1.29895 2.5 0.663008 2.5 0 
C 2.5 -0.663008 2.236584 -1.29895 1.767767 -1.767767 
C 1.29895 -2.236584 0.663008 -2.5 0 -2.5 
C -0.663008 -2.5 -1.29895 -2.236584 -1.767767 -1.767767 
C -2.236584 -1.29895 -2.5 -0.663008 -2.5 0 
C -2.5 0.663008 -2.236584 1.29895 -1.767767 1.767767 
C -1.29895 2.236584 -0.663008 2.5 0 2.5 
z
" id="m22e3053e3a" style="stroke:#fccde5;"/>
    </defs>
    <g clip-path="url(#p0dfeec1f22)">
     <use style="fill:#fccde5;stroke:#fccde5;" x="112.555636" xlink:href="#m22e3053e3a" y="45.818182"/>
     <use style="fill:#fccde5;stroke:#fccde5;" x="117.582545" xlink:href="#m22e3053e3a" y="57.6"/>
     <use style="fill:#fccde5;stroke:#fccde5;" x="122.609455" xlink:href="#m22e3053e3a" y="73.309091"/>
     <use style="fill:#fccde5;stroke:#fccde5;" x="137.690182" xlink:href="#m22e3053e3a" y="57.6"/>
     <use style="fill:#fccde5;stroke:#fccde5;" x="142.717091" xlink:href="#m22e3053e3a" y="73.309091"/>
     <use style="fill:#fccde5;stroke:#fccde5;" x="147.744" xlink:href="#m22e3053e3a" y="73.309091"/>
     <use style="fill:#fccde5;stroke:#fccde5;" x="152.770909" xlink:href="#m22e3053e3a" y="92.945455"/>
     <use style="fill:#fccde5;stroke:#fccde5;" x="157.797818" xlink:href="#m22e3053e3a" y="77.236364"/>
     <use style="fill:#fccde5;stroke:#fccde5;" x="162.824727" xlink:href="#m22e3053e3a" y="89.803636"/>
     <use style="fill:#fccde5;stroke:#fccde5;" x="167.851636" xlink:href="#m22e3053e3a" y="90.196364"/>
     <use style="fill:#fccde5;stroke:#fccde5;" x="172.878545" xlink:href="#m22e3053e3a" y="89.803636"/>
     <use style="fill:#fccde5;stroke:#fccde5;" x="177.905455" xlink:href="#m22e3053e3a" y="90.589091"/>
     <use style="fill:#fccde5;stroke:#fccde5;" x="182.932364" xlink:href="#m22e3053e3a" y="94.123636"/>
     <use style="fill:#fccde5;stroke:#fccde5;" x="187.959273" xlink:href="#m22e3053e3a" y="111.010909"/>
     <use style="fill:#fccde5;stroke:#fccde5;" x="192.986182" xlink:href="#m22e3053e3a" y="100.014545"/>
     <use style="fill:#fccde5;stroke:#fccde5;" x="198.013091" xlink:href="#m22e3053e3a" y="95.301818"/>
     <use style="fill:#fccde5;stroke:#fccde5;" x="203.04" xlink:href="#m22e3053e3a" y="102.763636"/>
     <use style="fill:#fccde5;stroke:#fccde5;" x="208.066909" xlink:href="#m22e3053e3a" y="95.694545"/>
    </g>
   </g>
   <g id="line2d_17">
    <path clip-path="url(#p0dfeec1f22)" d="M 64.8 91.926676 
L 410.4 210.786741 
" style="fill:none;stroke:#5bc0de;stroke-linecap:square;stroke-width:1.5;"/>
   </g>
   <g id="line2d_18">
    <path clip-path="url(#p0dfeec1f22)" d="M 64.8 31.941706 
L 410.4 213.620064 
" style="fill:none;stroke:#fccde5;stroke-linecap:square;stroke-width:1.5;"/>
   </g>
   <g id="patch_3">
    <path d="M 64.8 230.4 
L 64.8 14.4 
" style="fill:none;stroke:#d2d2d2;stroke-linecap:square;stroke-linejoin:miter;"/>
   </g>
   <g id="patch_4">
    <path d="M 64.8 230.4 
L 410.4 230.4 
" style="fill:none;stroke:#d2d2d2;stroke-linecap:square;stroke-linejoin:miter;"/>
   </g>
   <g id="text_16">
    <!-- $y=44.3-0.017x$ (Women) -->
    <defs>
     <path d="M 24.8125 -5.078125 
Q 18.5625 -15.578125 14.625 -18.1875 
Q 10.6875 -20.796875 4.59375 -20.796875 
L -2.484375 -20.796875 
L -0.984375 -13.28125 
L 4.203125 -13.28125 
Q 7.953125 -13.28125 10.59375 -11.234375 
Q 13.234375 -9.1875 16.5 -3.21875 
L 19.28125 2 
L 7.171875 54.6875 
L 16.703125 54.6875 
L 25.78125 12.796875 
L 50.875 54.6875 
L 60.296875 54.6875 
z
" id="DejaVuSans-Oblique-79"/>
     <path d="M 10.59375 45.40625 
L 73.1875 45.40625 
L 73.1875 37.203125 
L 10.59375 37.203125 
z
M 10.59375 25.484375 
L 73.1875 25.484375 
L 73.1875 17.1875 
L 10.59375 17.1875 
z
" id="DejaVuSans-3d"/>
     <path d="M 10.6875 12.40625 
L 21 12.40625 
L 21 0 
L 10.6875 0 
z
" id="DejaVuSans-2e"/>
     <path d="M 10.59375 35.5 
L 73.1875 35.5 
L 73.1875 27.203125 
L 10.59375 27.203125 
z
" id="DejaVuSans-2212"/>
     <path d="M 60.015625 54.6875 
L 34.90625 27.875 
L 50.296875 0 
L 39.984375 0 
L 28.421875 21.6875 
L 8.296875 0 
L -2.59375 0 
L 24.3125 28.8125 
L 10.015625 54.6875 
L 20.3125 54.6875 
L 30.8125 34.90625 
L 49.125 54.6875 
z
" id="DejaVuSans-Oblique-78"/>
     <path d="M 30.609375 48.390625 
Q 23.390625 48.390625 19.1875 42.75 
Q 14.984375 37.109375 14.984375 27.296875 
Q 14.984375 17.484375 19.15625 11.84375 
Q 23.34375 6.203125 30.609375 6.203125 
Q 37.796875 6.203125 41.984375 11.859375 
Q 46.1875 17.53125 46.1875 27.296875 
Q 46.1875 37.015625 41.984375 42.703125 
Q 37.796875 48.390625 30.609375 48.390625 
M 30.609375 56 
Q 42.328125 56 49.015625 48.375 
Q 55.71875 40.765625 55.71875 27.296875 
Q 55.71875 13.875 49.015625 6.21875 
Q 42.328125 -1.421875 30.609375 -1.421875 
Q 18.84375 -1.421875 12.171875 6.21875 
Q 5.515625 13.875 5.515625 27.296875 
Q 5.515625 40.765625 12.171875 48.375 
Q 18.84375 56 30.609375 56 
" id="DejaVuSans-6f"/>
    </defs>
    <g style="fill:#fccde5;" transform="translate(209.952 25.8)scale(0.15 -0.15)">
     <use transform="translate(0 0.125)" xlink:href="#DejaVuSans-Oblique-79"/>
     <use transform="translate(78.662109 0.125)" xlink:href="#DejaVuSans-3d"/>
     <use transform="translate(181.933594 0.125)" xlink:href="#DejaVuSans-34"/>
     <use transform="translate(245.556641 0.125)" xlink:href="#DejaVuSans-34"/>
     <use transform="translate(309.179688 0.125)" xlink:href="#DejaVuSans-2e"/>
     <use transform="translate(340.966797 0.125)" xlink:href="#DejaVuSans-33"/>
     <use transform="translate(424.072266 0.125)" xlink:href="#DejaVuSans-2212"/>
     <use transform="translate(527.34375 0.125)" xlink:href="#DejaVuSans-30"/>
     <use transform="translate(590.966797 0.125)" xlink:href="#DejaVuSans-2e"/>
     <use transform="translate(622.753906 0.125)" xlink:href="#DejaVuSans-30"/>
     <use transform="translate(686.376953 0.125)" xlink:href="#DejaVuSans-31"/>
     <use transform="translate(750 0.125)" xlink:href="#DejaVuSans-37"/>
     <use transform="translate(813.623047 0.125)" xlink:href="#DejaVuSans-Oblique-78"/>
     <use transform="translate(872.802734 0.125)" xlink:href="#DejaVuSans-20"/>
     <use transform="translate(904.589844 0.125)" xlink:href="#DejaVuSans-28"/>
     <use transform="translate(943.603516 0.125)" xlink:href="#DejaVuSans-57"/>
     <use transform="translate(1042.480469 0.125)" xlink:href="#DejaVuSans-6f"/>
     <use transform="translate(1103.662109 0.125)" xlink:href="#DejaVuSans-6d"/>
     <use transform="translate(1201.074219 0.125)" xlink:href="#DejaVuSans-65"/>
     <use transform="translate(1262.597656 0.125)" xlink:href="#DejaVuSans-6e"/>
     <use transform="translate(1325.976562 0.125)" xlink:href="#DejaVuSans-29"/>
    </g>
   </g>
   <g id="text_17">
    <!-- $y=31.8-0.011x$ (Men) -->
    <defs>
     <path d="M 9.8125 72.90625 
L 24.515625 72.90625 
L 43.109375 23.296875 
L 61.8125 72.90625 
L 76.515625 72.90625 
L 76.515625 0 
L 66.890625 0 
L 66.890625 64.015625 
L 48.09375 14.015625 
L 38.1875 14.015625 
L 19.390625 64.015625 
L 19.390625 0 
L 9.8125 0 
z
" id="DejaVuSans-4d"/>
    </defs>
    <g style="fill:#5bc0de;" transform="translate(75.168 220.77)scale(0.15 -0.15)">
     <use transform="translate(0 0.125)" xlink:href="#DejaVuSans-Oblique-79"/>
     <use transform="translate(78.662109 0.125)" xlink:href="#DejaVuSans-3d"/>
     <use transform="translate(181.933594 0.125)" xlink:href="#DejaVuSans-33"/>
     <use transform="translate(245.556641 0.125)" xlink:href="#DejaVuSans-31"/>
     <use transform="translate(309.179688 0.125)" xlink:href="#DejaVuSans-2e"/>
     <use transform="translate(340.935547 0.125)" xlink:href="#DejaVuSans-38"/>
     <use transform="translate(424.041016 0.125)" xlink:href="#DejaVuSans-2212"/>
     <use transform="translate(527.3125 0.125)" xlink:href="#DejaVuSans-30"/>
     <use transform="translate(590.935547 0.125)" xlink:href="#DejaVuSans-2e"/>
     <use transform="translate(622.722656 0.125)" xlink:href="#DejaVuSans-30"/>
     <use transform="translate(686.345703 0.125)" xlink:href="#DejaVuSans-31"/>
     <use transform="translate(749.96875 0.125)" xlink:href="#DejaVuSans-31"/>
     <use transform="translate(813.591797 0.125)" xlink:href="#DejaVuSans-Oblique-78"/>
     <use transform="translate(872.771484 0.125)" xlink:href="#DejaVuSans-20"/>
     <use transform="translate(904.558594 0.125)" xlink:href="#DejaVuSans-28"/>
     <use transform="translate(943.572266 0.125)" xlink:href="#DejaVuSans-4d"/>
     <use transform="translate(1029.851562 0.125)" xlink:href="#DejaVuSans-65"/>
     <use transform="translate(1091.375 0.125)" xlink:href="#DejaVuSans-6e"/>
     <use transform="translate(1154.753906 0.125)" xlink:href="#DejaVuSans-29"/>
    </g>
   </g>
  </g>
  <g id="axes_2">
   <g id="line2d_19">
    <defs>
     <path d="M 0 2.5 
C 0.663008 2.5 1.29895 2.236584 1.767767 1.767767 
C 2.236584 1.29895 2.5 0.663008 2.5 0 
C 2.5 -0.663008 2.236584 -1.29895 1.767767 -1.767767 
C 1.29895 -2.236584 0.663008 -2.5 0 -2.5 
C -0.663008 -2.5 -1.29895 -2.236584 -1.767767 -1.767767 
C -2.236584 -1.29895 -2.5 -0.663008 -2.5 0 
C -2.5 0.663008 -2.236584 1.29895 -1.767767 1.767767 
C -1.29895 2.236584 -0.663008 2.5 0 2.5 
z
" id="m8b71a41b4b" style="stroke:#fb8072;"/>
    </defs>
    <g clip-path="url(#p0dfeec1f22)">
     <use style="fill:#fb8072;stroke:#fb8072;" x="213.093818" xlink:href="#m8b71a41b4b" y="144.392727"/>
    </g>
   </g>
   <g id="line2d_20">
    <g clip-path="url(#p0dfeec1f22)"/>
   </g>
   <g id="line2d_21">
    <g clip-path="url(#p0dfeec1f22)"/>
   </g>
   <g id="line2d_22">
    <defs>
     <path d="M 0 2.5 
C 0.663008 2.5 1.29895 2.236584 1.767767 1.767767 
C 2.236584 1.29895 2.5 0.663008 2.5 0 
C 2.5 -0.663008 2.236584 -1.29895 1.767767 -1.767767 
C 1.29895 -2.236584 0.663008 -2.5 0 -2.5 
C -0.663008 -2.5 -1.29895 -2.236584 -1.767767 -1.767767 
C -2.236584 -1.29895 -2.5 -0.663008 -2.5 0 
C -2.5 0.663008 -2.236584 1.29895 -1.767767 1.767767 
C -1.29895 2.236584 -0.663008 2.5 0 2.5 
z
" id="mce4ee8a41f" style="stroke:#b3de69;"/>
    </defs>
    <g clip-path="url(#p0dfeec1f22)">
     <use style="fill:#b3de69;stroke:#b3de69;" x="213.093818" xlink:href="#mce4ee8a41f" y="101.585455"/>
    </g>
   </g>
   <g id="line2d_23">
    <g clip-path="url(#p0dfeec1f22)"/>
   </g>
   <g id="line2d_24">
    <g clip-path="url(#p0dfeec1f22)"/>
   </g>
  </g>
  <g id="axes_3">
   <g id="line2d_25">
    <g clip-path="url(#p0dfeec1f22)">
     <use style="fill:#fb8072;stroke:#fb8072;" x="218.120727" xlink:href="#m8b71a41b4b" y="146.749091"/>
    </g>
   </g>
   <g id="line2d_26">
    <g clip-path="url(#p0dfeec1f22)"/>
   </g>
   <g id="line2d_27">
    <g clip-path="url(#p0dfeec1f22)"/>
   </g>
   <g id="line2d_28">
    <g clip-path="url(#p0dfeec1f22)">
     <use style="fill:#b3de69;stroke:#b3de69;" x="218.120727" xlink:href="#mce4ee8a41f" y="102.763636"/>
    </g>
   </g>
   <g id="line2d_29">
    <g clip-path="url(#p0dfeec1f22)"/>
   </g>
   <g id="line2d_30">
    <g clip-path="url(#p0dfeec1f22)"/>
   </g>
  </g>
  <g id="axes_4">
   <g id="line2d_31">
    <g clip-path="url(#p0dfeec1f22)">
     <use style="fill:#fb8072;stroke:#fb8072;" x="223.147636" xlink:href="#m8b71a41b4b" y="139.68"/>
    </g>
   </g>
   <g id="line2d_32">
    <g clip-path="url(#p0dfeec1f22)"/>
   </g>
   <g id="line2d_33">
    <g clip-path="url(#p0dfeec1f22)"/>
   </g>
   <g id="line2d_34">
    <g clip-path="url(#p0dfeec1f22)">
     <use style="fill:#b3de69;stroke:#b3de69;" x="223.147636" xlink:href="#mce4ee8a41f" y="104.334545"/>
    </g>
   </g>
   <g id="line2d_35">
    <g clip-path="url(#p0dfeec1f22)"/>
   </g>
   <g id="line2d_36">
    <g clip-path="url(#p0dfeec1f22)"/>
   </g>
  </g>
  <g id="axes_5">
   <g id="line2d_37">
    <path clip-path="url(#p0dfeec1f22)" d="M 64.8 92.220325 
L 410.4 209.485293 
" style="fill:none;stroke:#ffffb3;stroke-linecap:square;stroke-width:1.5;"/>
   </g>
   <g id="text_18">
    <!-- $y=31.5-0.011x$ -->
    <g style="fill:#ffffb3;" transform="translate(75.168 199.17)scale(0.15 -0.15)">
     <use transform="translate(0 0.78125)" xlink:href="#DejaVuSans-Oblique-79"/>
     <use transform="translate(78.662109 0.78125)" xlink:href="#DejaVuSans-3d"/>
     <use transform="translate(181.933594 0.78125)" xlink:href="#DejaVuSans-33"/>
     <use transform="translate(245.556641 0.78125)" xlink:href="#DejaVuSans-31"/>
     <use transform="translate(309.179688 0.78125)" xlink:href="#DejaVuSans-2e"/>
     <use transform="translate(340.966797 0.78125)" xlink:href="#DejaVuSans-35"/>
     <use transform="translate(424.072266 0.78125)" xlink:href="#DejaVuSans-2212"/>
     <use transform="translate(527.34375 0.78125)" xlink:href="#DejaVuSans-30"/>
     <use transform="translate(590.966797 0.78125)" xlink:href="#DejaVuSans-2e"/>
     <use transform="translate(622.753906 0.78125)" xlink:href="#DejaVuSans-30"/>
     <use transform="translate(686.376953 0.78125)" xlink:href="#DejaVuSans-31"/>
     <use transform="translate(750 0.78125)" xlink:href="#DejaVuSans-31"/>
     <use transform="translate(813.623047 0.78125)" xlink:href="#DejaVuSans-Oblique-78"/>
    </g>
   </g>
  </g>
  <g id="axes_6">
   <g id="line2d_38">
    <path clip-path="url(#p0dfeec1f22)" d="M 64.8 37.04183 
L 410.4 197.726134 
" style="fill:none;stroke:#8dd3c7;stroke-linecap:square;stroke-width:1.5;"/>
   </g>
   <g id="text_19">
    <!-- $y=40.5-0.015x$ -->
    <g style="fill:#8dd3c7;" transform="translate(209.952 47.367188)scale(0.15 -0.15)">
     <use transform="translate(0 0.78125)" xlink:href="#DejaVuSans-Oblique-79"/>
     <use transform="translate(78.662109 0.78125)" xlink:href="#DejaVuSans-3d"/>
     <use transform="translate(181.933594 0.78125)" xlink:href="#DejaVuSans-34"/>
     <use transform="translate(245.556641 0.78125)" xlink:href="#DejaVuSans-30"/>
     <use transform="translate(309.179688 0.78125)" xlink:href="#DejaVuSans-2e"/>
     <use transform="translate(340.966797 0.78125)" xlink:href="#DejaVuSans-35"/>
     <use transform="translate(424.072266 0.78125)" xlink:href="#DejaVuSans-2212"/>
     <use transform="translate(527.34375 0.78125)" xlink:href="#DejaVuSans-30"/>
     <use transform="translate(590.966797 0.78125)" xlink:href="#DejaVuSans-2e"/>
     <use transform="translate(622.753906 0.78125)" xlink:href="#DejaVuSans-30"/>
     <use transform="translate(686.376953 0.78125)" xlink:href="#DejaVuSans-31"/>
     <use transform="translate(750 0.78125)" xlink:href="#DejaVuSans-35"/>
     <use transform="translate(813.623047 0.78125)" xlink:href="#DejaVuSans-Oblique-78"/>
    </g>
   </g>
  </g>
 </g>
 <defs>
  <clipPath id="p0dfeec1f22">
   <rect height="216" width="345.6" x="64.8" y="14.4"/>
  </clipPath>
 </defs>
</svg>
