<?xml version="1.0" encoding="utf-8" standalone="no"?>
<!DOCTYPE svg PUBLIC "-//W3C//DTD SVG 1.1//EN"
  "http://www.w3.org/Graphics/SVG/1.1/DTD/svg11.dtd">
<!-- Created with matplotlib (http://matplotlib.org/) -->
<svg height="360pt" version="1.1" viewBox="0 0 360 360" width="360pt" xmlns="http://www.w3.org/2000/svg" xmlns:xlink="http://www.w3.org/1999/xlink">
 <defs>
  <style type="text/css">
*{stroke-linecap:butt;stroke-linejoin:round;}
  </style>
 </defs>
 <g id="figure_1">
  <g id="patch_1">
   <path d="M 0 360 
L 360 360 
L 360 0 
L 0 0 
z
" style="fill:none;"/>
  </g>
  <g id="axes_1">
   <g id="patch_2">
    <path d="M 54 288 
L 342 288 
L 342 18 
L 54 18 
z
" style="fill:none;"/>
   </g>
   <g id="PathCollection_1">
    <defs>
     <path d="M 0 5 
C 1.326016 5 2.597899 4.473168 3.535534 3.535534 
C 4.473168 2.597899 5 1.326016 5 0 
C 5 -1.326016 4.473168 -2.597899 3.535534 -3.535534 
C 2.597899 -4.473168 1.326016 -5 0 -5 
C -1.326016 -5 -2.597899 -4.473168 -3.535534 -3.535534 
C -4.473168 -2.597899 -5 -1.326016 -5 0 
C -5 1.326016 -4.473168 2.597899 -3.535534 3.535534 
C -2.597899 4.473168 -1.326016 5 0 5 
z
" id="C0_0_f92478129d"/>
    </defs>
    <g clip-path="url(#pa4a9f19872)">
     <use style="fill:#8dd3c7;stroke:#8dd3c7;" x="99.620807" xlink:href="#C0_0_f92478129d" y="273.674873"/>
    </g>
    <g clip-path="url(#pa4a9f19872)">
     <use style="fill:#ffffb3;stroke:#ffffb3;" x="91.329463" xlink:href="#C0_0_f92478129d" y="225.245388"/>
    </g>
    <g clip-path="url(#pa4a9f19872)">
     <use style="fill:#bebada;stroke:#bebada;" x="126.760285" xlink:href="#C0_0_f92478129d" y="184.297325"/>
    </g>
    <g clip-path="url(#pa4a9f19872)">
     <use style="fill:#fb8072;stroke:#fb8072;" x="177.909408" xlink:href="#C0_0_f92478129d" y="201.822334"/>
    </g>
    <g clip-path="url(#pa4a9f19872)">
     <use style="fill:#80b1d3;stroke:#80b1d3;" x="200.807381" xlink:href="#C0_0_f92478129d" y="143.843944"/>
    </g>
    <g clip-path="url(#pa4a9f19872)">
     <use style="fill:#fdb462;stroke:#fdb462;" x="292.492454" xlink:href="#C0_0_f92478129d" y="127.84383"/>
    </g>
    <g clip-path="url(#pa4a9f19872)">
     <use style="fill:#b3de69;stroke:#b3de69;" x="314.938696" xlink:href="#C0_0_f92478129d" y="70.113348"/>
    </g>
    <g clip-path="url(#pa4a9f19872)">
     <use style="fill:#fccde5;stroke:#fccde5;" x="266.370739" xlink:href="#C0_0_f92478129d" y="26.207217"/>
    </g>
   </g>
   <g id="matplotlib.axis_1">
    <g id="xtick_1">
     <g id="line2d_1">
      <defs>
       <path d="M 0 0 
L 0 4 
" id="m6167946819" style="stroke:#d2d2d2;"/>
      </defs>
      <g>
       <use style="fill:#d2d2d2;stroke:#d2d2d2;" x="54" xlink:href="#m6167946819" y="288"/>
      </g>
     </g>
     <g id="text_1">
      <!-- 0 -->
      <defs>
       <path d="M 31.78125 66.40625 
Q 24.171875 66.40625 20.328125 58.90625 
Q 16.5 51.421875 16.5 36.375 
Q 16.5 21.390625 20.328125 13.890625 
Q 24.171875 6.390625 31.78125 6.390625 
Q 39.453125 6.390625 43.28125 13.890625 
Q 47.125 21.390625 47.125 36.375 
Q 47.125 51.421875 43.28125 58.90625 
Q 39.453125 66.40625 31.78125 66.40625 
M 31.78125 74.21875 
Q 44.046875 74.21875 50.515625 64.515625 
Q 56.984375 54.828125 56.984375 36.375 
Q 56.984375 17.96875 50.515625 8.265625 
Q 44.046875 -1.421875 31.78125 -1.421875 
Q 19.53125 -1.421875 13.0625 8.265625 
Q 6.59375 17.96875 6.59375 36.375 
Q 6.59375 54.828125 13.0625 64.515625 
Q 19.53125 74.21875 31.78125 74.21875 
" id="DejaVuSans-30"/>
      </defs>
      <g style="fill:#d2d2d2;" transform="translate(49.864375 305.877969)scale(0.13 -0.13)">
       <use xlink:href="#DejaVuSans-30"/>
      </g>
     </g>
    </g>
    <g id="xtick_2">
     <g id="line2d_2">
      <g>
       <use style="fill:#d2d2d2;stroke:#d2d2d2;" x="111.6" xlink:href="#m6167946819" y="288"/>
      </g>
     </g>
     <g id="text_2">
      <!-- 20 -->
      <defs>
       <path d="M 19.1875 8.296875 
L 53.609375 8.296875 
L 53.609375 0 
L 7.328125 0 
L 7.328125 8.296875 
Q 12.9375 14.109375 22.625 23.890625 
Q 32.328125 33.6875 34.8125 36.53125 
Q 39.546875 41.84375 41.421875 45.53125 
Q 43.3125 49.21875 43.3125 52.78125 
Q 43.3125 58.59375 39.234375 62.25 
Q 35.15625 65.921875 28.609375 65.921875 
Q 23.96875 65.921875 18.8125 64.3125 
Q 13.671875 62.703125 7.8125 59.421875 
L 7.8125 69.390625 
Q 13.765625 71.78125 18.9375 73 
Q 24.125 74.21875 28.421875 74.21875 
Q 39.75 74.21875 46.484375 68.546875 
Q 53.21875 62.890625 53.21875 53.421875 
Q 53.21875 48.921875 51.53125 44.890625 
Q 49.859375 40.875 45.40625 35.40625 
Q 44.1875 33.984375 37.640625 27.21875 
Q 31.109375 20.453125 19.1875 8.296875 
" id="DejaVuSans-32"/>
      </defs>
      <g style="fill:#d2d2d2;" transform="translate(103.32875 305.877969)scale(0.13 -0.13)">
       <use xlink:href="#DejaVuSans-32"/>
       <use x="63.623047" xlink:href="#DejaVuSans-30"/>
      </g>
     </g>
    </g>
    <g id="xtick_3">
     <g id="line2d_3">
      <g>
       <use style="fill:#d2d2d2;stroke:#d2d2d2;" x="169.2" xlink:href="#m6167946819" y="288"/>
      </g>
     </g>
     <g id="text_3">
      <!-- 40 -->
      <defs>
       <path d="M 37.796875 64.3125 
L 12.890625 25.390625 
L 37.796875 25.390625 
z
M 35.203125 72.90625 
L 47.609375 72.90625 
L 47.609375 25.390625 
L 58.015625 25.390625 
L 58.015625 17.1875 
L 47.609375 17.1875 
L 47.609375 0 
L 37.796875 0 
L 37.796875 17.1875 
L 4.890625 17.1875 
L 4.890625 26.703125 
z
" id="DejaVuSans-34"/>
      </defs>
      <g style="fill:#d2d2d2;" transform="translate(160.92875 305.877969)scale(0.13 -0.13)">
       <use xlink:href="#DejaVuSans-34"/>
       <use x="63.623047" xlink:href="#DejaVuSans-30"/>
      </g>
     </g>
    </g>
    <g id="xtick_4">
     <g id="line2d_4">
      <g>
       <use style="fill:#d2d2d2;stroke:#d2d2d2;" x="226.8" xlink:href="#m6167946819" y="288"/>
      </g>
     </g>
     <g id="text_4">
      <!-- 60 -->
      <defs>
       <path d="M 33.015625 40.375 
Q 26.375 40.375 22.484375 35.828125 
Q 18.609375 31.296875 18.609375 23.390625 
Q 18.609375 15.53125 22.484375 10.953125 
Q 26.375 6.390625 33.015625 6.390625 
Q 39.65625 6.390625 43.53125 10.953125 
Q 47.40625 15.53125 47.40625 23.390625 
Q 47.40625 31.296875 43.53125 35.828125 
Q 39.65625 40.375 33.015625 40.375 
M 52.59375 71.296875 
L 52.59375 62.3125 
Q 48.875 64.0625 45.09375 64.984375 
Q 41.3125 65.921875 37.59375 65.921875 
Q 27.828125 65.921875 22.671875 59.328125 
Q 17.53125 52.734375 16.796875 39.40625 
Q 19.671875 43.65625 24.015625 45.921875 
Q 28.375 48.1875 33.59375 48.1875 
Q 44.578125 48.1875 50.953125 41.515625 
Q 57.328125 34.859375 57.328125 23.390625 
Q 57.328125 12.15625 50.6875 5.359375 
Q 44.046875 -1.421875 33.015625 -1.421875 
Q 20.359375 -1.421875 13.671875 8.265625 
Q 6.984375 17.96875 6.984375 36.375 
Q 6.984375 53.65625 15.1875 63.9375 
Q 23.390625 74.21875 37.203125 74.21875 
Q 40.921875 74.21875 44.703125 73.484375 
Q 48.484375 72.75 52.59375 71.296875 
" id="DejaVuSans-36"/>
      </defs>
      <g style="fill:#d2d2d2;" transform="translate(218.52875 305.877969)scale(0.13 -0.13)">
       <use xlink:href="#DejaVuSans-36"/>
       <use x="63.623047" xlink:href="#DejaVuSans-30"/>
      </g>
     </g>
    </g>
    <g id="xtick_5">
     <g id="line2d_5">
      <g>
       <use style="fill:#d2d2d2;stroke:#d2d2d2;" x="284.4" xlink:href="#m6167946819" y="288"/>
      </g>
     </g>
     <g id="text_5">
      <!-- 80 -->
      <defs>
       <path d="M 31.78125 34.625 
Q 24.75 34.625 20.71875 30.859375 
Q 16.703125 27.09375 16.703125 20.515625 
Q 16.703125 13.921875 20.71875 10.15625 
Q 24.75 6.390625 31.78125 6.390625 
Q 38.8125 6.390625 42.859375 10.171875 
Q 46.921875 13.96875 46.921875 20.515625 
Q 46.921875 27.09375 42.890625 30.859375 
Q 38.875 34.625 31.78125 34.625 
M 21.921875 38.8125 
Q 15.578125 40.375 12.03125 44.71875 
Q 8.5 49.078125 8.5 55.328125 
Q 8.5 64.0625 14.71875 69.140625 
Q 20.953125 74.21875 31.78125 74.21875 
Q 42.671875 74.21875 48.875 69.140625 
Q 55.078125 64.0625 55.078125 55.328125 
Q 55.078125 49.078125 51.53125 44.71875 
Q 48 40.375 41.703125 38.8125 
Q 48.828125 37.15625 52.796875 32.3125 
Q 56.78125 27.484375 56.78125 20.515625 
Q 56.78125 9.90625 50.3125 4.234375 
Q 43.84375 -1.421875 31.78125 -1.421875 
Q 19.734375 -1.421875 13.25 4.234375 
Q 6.78125 9.90625 6.78125 20.515625 
Q 6.78125 27.484375 10.78125 32.3125 
Q 14.796875 37.15625 21.921875 38.8125 
M 18.3125 54.390625 
Q 18.3125 48.734375 21.84375 45.5625 
Q 25.390625 42.390625 31.78125 42.390625 
Q 38.140625 42.390625 41.71875 45.5625 
Q 45.3125 48.734375 45.3125 54.390625 
Q 45.3125 60.0625 41.71875 63.234375 
Q 38.140625 66.40625 31.78125 66.40625 
Q 25.390625 66.40625 21.84375 63.234375 
Q 18.3125 60.0625 18.3125 54.390625 
" id="DejaVuSans-38"/>
      </defs>
      <g style="fill:#d2d2d2;" transform="translate(276.12875 305.877969)scale(0.13 -0.13)">
       <use xlink:href="#DejaVuSans-38"/>
       <use x="63.623047" xlink:href="#DejaVuSans-30"/>
      </g>
     </g>
    </g>
    <g id="xtick_6">
     <g id="line2d_6">
      <g>
       <use style="fill:#d2d2d2;stroke:#d2d2d2;" x="342" xlink:href="#m6167946819" y="288"/>
      </g>
     </g>
     <g id="text_6">
      <!-- 100 -->
      <defs>
       <path d="M 12.40625 8.296875 
L 28.515625 8.296875 
L 28.515625 63.921875 
L 10.984375 60.40625 
L 10.984375 69.390625 
L 28.421875 72.90625 
L 38.28125 72.90625 
L 38.28125 8.296875 
L 54.390625 8.296875 
L 54.390625 0 
L 12.40625 0 
z
" id="DejaVuSans-31"/>
      </defs>
      <g style="fill:#d2d2d2;" transform="translate(329.593125 305.877969)scale(0.13 -0.13)">
       <use xlink:href="#DejaVuSans-31"/>
       <use x="63.623047" xlink:href="#DejaVuSans-30"/>
       <use x="127.246094" xlink:href="#DejaVuSans-30"/>
      </g>
     </g>
    </g>
    <g id="text_7">
     <!-- X -->
     <defs>
      <path d="M 6.296875 72.90625 
L 16.890625 72.90625 
L 35.015625 45.796875 
L 53.21875 72.90625 
L 63.8125 72.90625 
L 40.375 37.890625 
L 65.375 0 
L 54.78125 0 
L 34.28125 31 
L 13.625 0 
L 2.984375 0 
L 29 38.921875 
z
" id="DejaVuSans-58"/>
     </defs>
     <g style="fill:#d2d2d2;" transform="translate(192.52 324.739062)scale(0.16 -0.16)">
      <use xlink:href="#DejaVuSans-58"/>
     </g>
    </g>
   </g>
   <g id="matplotlib.axis_2">
    <g id="ytick_1">
     <g id="line2d_7">
      <defs>
       <path d="M 0 0 
L -4 0 
" id="m50792bee27" style="stroke:#d2d2d2;"/>
      </defs>
      <g>
       <use style="fill:#d2d2d2;stroke:#d2d2d2;" x="54" xlink:href="#m50792bee27" y="288"/>
      </g>
     </g>
     <g id="text_8">
      <!-- 0 -->
      <g style="fill:#d2d2d2;" transform="translate(37.72875 292.938984)scale(0.13 -0.13)">
       <use xlink:href="#DejaVuSans-30"/>
      </g>
     </g>
    </g>
    <g id="ytick_2">
     <g id="line2d_8">
      <g>
       <use style="fill:#d2d2d2;stroke:#d2d2d2;" x="54" xlink:href="#m50792bee27" y="234"/>
      </g>
     </g>
     <g id="text_9">
      <!-- 20 -->
      <g style="fill:#d2d2d2;" transform="translate(29.4575 238.938984)scale(0.13 -0.13)">
       <use xlink:href="#DejaVuSans-32"/>
       <use x="63.623047" xlink:href="#DejaVuSans-30"/>
      </g>
     </g>
    </g>
    <g id="ytick_3">
     <g id="line2d_9">
      <g>
       <use style="fill:#d2d2d2;stroke:#d2d2d2;" x="54" xlink:href="#m50792bee27" y="180"/>
      </g>
     </g>
     <g id="text_10">
      <!-- 40 -->
      <g style="fill:#d2d2d2;" transform="translate(29.4575 184.938984)scale(0.13 -0.13)">
       <use xlink:href="#DejaVuSans-34"/>
       <use x="63.623047" xlink:href="#DejaVuSans-30"/>
      </g>
     </g>
    </g>
    <g id="ytick_4">
     <g id="line2d_10">
      <g>
       <use style="fill:#d2d2d2;stroke:#d2d2d2;" x="54" xlink:href="#m50792bee27" y="126"/>
      </g>
     </g>
     <g id="text_11">
      <!-- 60 -->
      <g style="fill:#d2d2d2;" transform="translate(29.4575 130.938984)scale(0.13 -0.13)">
       <use xlink:href="#DejaVuSans-36"/>
       <use x="63.623047" xlink:href="#DejaVuSans-30"/>
      </g>
     </g>
    </g>
    <g id="ytick_5">
     <g id="line2d_11">
      <g>
       <use style="fill:#d2d2d2;stroke:#d2d2d2;" x="54" xlink:href="#m50792bee27" y="72"/>
      </g>
     </g>
     <g id="text_12">
      <!-- 80 -->
      <g style="fill:#d2d2d2;" transform="translate(29.4575 76.938984)scale(0.13 -0.13)">
       <use xlink:href="#DejaVuSans-38"/>
       <use x="63.623047" xlink:href="#DejaVuSans-30"/>
      </g>
     </g>
    </g>
    <g id="ytick_6">
     <g id="line2d_12">
      <g>
       <use style="fill:#d2d2d2;stroke:#d2d2d2;" x="54" xlink:href="#m50792bee27" y="18"/>
      </g>
     </g>
     <g id="text_13">
      <!-- 100 -->
      <g style="fill:#d2d2d2;" transform="translate(21.18625 22.938984)scale(0.13 -0.13)">
       <use xlink:href="#DejaVuSans-31"/>
       <use x="63.623047" xlink:href="#DejaVuSans-30"/>
       <use x="127.246094" xlink:href="#DejaVuSans-30"/>
      </g>
     </g>
    </g>
    <g id="text_14">
     <!-- Y -->
     <defs>
      <path d="M -0.203125 72.90625 
L 10.40625 72.90625 
L 30.609375 42.921875 
L 50.6875 72.90625 
L 61.28125 72.90625 
L 35.5 34.71875 
L 35.5 0 
L 25.59375 0 
L 25.59375 34.71875 
z
" id="DejaVuSans-59"/>
     </defs>
     <g style="fill:#d2d2d2;" transform="translate(13.85875 157.88625)rotate(-90)scale(0.16 -0.16)">
      <use xlink:href="#DejaVuSans-59"/>
     </g>
    </g>
   </g>
   <g id="line2d_13">
    <path clip-path="url(#pa4a9f19872)" d="M 76.929463 253.141451 
L 329.338696 49.033484 
" style="fill:none;stroke:#d2d2d2;stroke-linecap:square;stroke-width:1.5;"/>
   </g>
   <g id="patch_3">
    <path d="M 54 288 
L 54 18 
" style="fill:none;stroke:#d2d2d2;stroke-linecap:square;stroke-linejoin:miter;"/>
   </g>
   <g id="patch_4">
    <path d="M 54 288 
L 342 288 
" style="fill:none;stroke:#d2d2d2;stroke-linecap:square;stroke-linejoin:miter;"/>
   </g>
  </g>
  <g id="axes_2">
   <g id="PatchCollection_1">
    <path clip-path="url(#pa4a9f19872)" d="M 99.620807 273.674873 
L 141.095505 273.674873 
L 141.095505 234.792343 
L 99.620807 234.792343 
z
" style="fill:#8dd3c7;fill-opacity:0.5;stroke:#8dd3c7;stroke-opacity:0.5;"/>
    <path clip-path="url(#pa4a9f19872)" d="M 73.994358 241.497048 
L 91.329463 241.497048 
L 91.329463 225.245388 
L 73.994358 225.245388 
z
" style="fill:#ffffb3;fill-opacity:0.5;stroke:#ffffb3;stroke-opacity:0.5;"/>
    <path clip-path="url(#pa4a9f19872)" d="M 96.308045 212.846301 
L 126.760285 212.846301 
L 126.760285 184.297325 
L 96.308045 184.297325 
z
" style="fill:#bebada;fill-opacity:0.5;stroke:#bebada;stroke-opacity:0.5;"/>
    <path clip-path="url(#pa4a9f19872)" d="M 177.909408 201.822334 
L 210.269101 201.822334 
L 210.269101 171.485122 
L 177.909408 171.485122 
z
" style="fill:#fb8072;fill-opacity:0.5;stroke:#fb8072;stroke-opacity:0.5;"/>
    <path clip-path="url(#pa4a9f19872)" d="M 191.074065 152.968927 
L 200.807381 152.968927 
L 200.807381 143.843944 
L 191.074065 143.843944 
z
" style="fill:#80b1d3;fill-opacity:0.5;stroke:#80b1d3;stroke-opacity:0.5;"/>
    <path clip-path="url(#pa4a9f19872)" d="M 292.492454 127.84383 
L 344.775158 127.84383 
L 344.775158 78.828795 
L 292.492454 78.828795 
z
" style="fill:#fdb462;fill-opacity:0.5;stroke:#fdb462;stroke-opacity:0.5;"/>
    <path clip-path="url(#pa4a9f19872)" d="M 314.938696 70.113348 
L 325.003188 70.113348 
L 325.003188 60.677887 
L 314.938696 60.677887 
z
" style="fill:#b3de69;fill-opacity:0.5;stroke:#b3de69;stroke-opacity:0.5;"/>
    <path clip-path="url(#pa4a9f19872)" d="M 187.709814 99.951834 
L 266.370739 99.951834 
L 266.370739 26.207217 
L 187.709814 26.207217 
z
" style="fill:#fccde5;fill-opacity:0.5;stroke:#fccde5;stroke-opacity:0.5;"/>
   </g>
  </g>
  <g id="axes_3">
   <g id="line2d_14">
    <path clip-path="url(#pa4a9f19872)" d="M 99.620807 275.727273 
L 99.620807 237.161046 
" style="fill:none;stroke:#8dd3c7;stroke-dasharray:5.6,2.4;stroke-dashoffset:0;stroke-width:1.5;"/>
   </g>
   <g id="line2d_15">
    <path clip-path="url(#pa4a9f19872)" d="M 91.329463 227.691754 
L 91.329463 243.81121 
" style="fill:none;stroke:#ffffb3;stroke-dasharray:5.6,2.4;stroke-dashoffset:0;stroke-width:1.5;"/>
   </g>
   <g id="line2d_16">
    <path clip-path="url(#pa4a9f19872)" d="M 126.760285 187.076797 
L 126.760285 215.393532 
" style="fill:none;stroke:#bebada;stroke-dasharray:5.6,2.4;stroke-dashoffset:0;stroke-width:1.5;"/>
   </g>
   <g id="line2d_17">
    <path clip-path="url(#pa4a9f19872)" d="M 177.909408 204.459243 
L 177.909408 174.36882 
" style="fill:none;stroke:#fb8072;stroke-dasharray:5.6,2.4;stroke-dashoffset:0;stroke-width:1.5;"/>
   </g>
   <g id="line2d_18">
    <path clip-path="url(#pa4a9f19872)" d="M 200.807381 146.952498 
L 200.807381 156.003251 
" style="fill:none;stroke:#80b1d3;stroke-dasharray:5.6,2.4;stroke-dashoffset:0;stroke-width:1.5;"/>
   </g>
   <g id="line2d_19">
    <path clip-path="url(#pa4a9f19872)" d="M 292.492454 131.082542 
L 292.492454 82.466237 
" style="fill:none;stroke:#fdb462;stroke-dasharray:5.6,2.4;stroke-dashoffset:0;stroke-width:1.5;"/>
   </g>
   <g id="line2d_20">
    <path clip-path="url(#pa4a9f19872)" d="M 314.938696 73.821689 
L 314.938696 64.462984 
" style="fill:none;stroke:#b3de69;stroke-dasharray:5.6,2.4;stroke-dashoffset:0;stroke-width:1.5;"/>
   </g>
   <g id="line2d_21">
    <path clip-path="url(#pa4a9f19872)" d="M 266.370739 30.272727 
L 266.370739 103.417444 
" style="fill:none;stroke:#fccde5;stroke-dasharray:5.6,2.4;stroke-dashoffset:0;stroke-width:1.5;"/>
   </g>
  </g>
 </g>
 <defs>
  <clipPath id="pa4a9f19872">
   <rect height="270" width="288" x="54" y="18"/>
  </clipPath>
 </defs>
</svg>
