<?xml version="1.0" encoding="utf-8"?>
<!-- Generator: Adobe Illustrator 16.0.4, SVG Export Plug-In . SVG Version: 6.00 Build 0)  -->
<!DOCTYPE svg PUBLIC "-//W3C//DTD SVG 1.1//EN" "http://www.w3.org/Graphics/SVG/1.1/DTD/svg11.dtd">
<svg version="1.1" xmlns="http://www.w3.org/2000/svg" xmlns:xlink="http://www.w3.org/1999/xlink" x="0px" y="0px" width="360px"
	 height="216px" viewBox="0 0 360 216" enable-background="new 0 0 360 216" xml:space="preserve">
<g id="layer1">
	<g>
		<path fill="none" stroke="#F0AD4E" stroke-width="3" stroke-miterlimit="10" d="M351.545,65.861
			c0,6.263-5.076,11.339-11.338,11.339h-63.724c-6.262,0-11.339-5.076-11.339-11.339V14.938c0-6.262,5.077-11.338,11.339-11.338
			h63.724c6.262,0,11.338,5.077,11.338,11.338V65.861z"/>
		<g>
			<path fill="#D2D2D2" d="M309.763,43.75c-1.518,0-2.854-0.373-4.008-1.12c-1.154-0.747-2.07-1.691-2.748-2.835v11.06h-3.08V25.13
				h2.73v3.43c0.723-1.12,1.662-2.024,2.818-2.713c1.154-0.688,2.432-1.032,3.832-1.032c1.26,0,2.414,0.257,3.465,0.77
				c1.05,0.514,1.96,1.208,2.73,2.083c0.77,0.875,1.37,1.884,1.802,3.027c0.432,1.144,0.647,2.333,0.647,3.57
				c0,1.307-0.198,2.537-0.595,3.692c-0.397,1.155-0.957,2.158-1.681,3.01c-0.723,0.852-1.586,1.529-2.59,2.03
				C312.084,43.5,310.976,43.75,309.763,43.75z M308.817,41.09c0.91,0,1.732-0.192,2.467-0.578c0.736-0.385,1.365-0.898,1.891-1.54
				c0.525-0.641,0.928-1.37,1.207-2.188c0.281-0.816,0.42-1.656,0.42-2.52c0-0.91-0.163-1.779-0.489-2.608
				c-0.327-0.828-0.771-1.551-1.33-2.17c-0.56-0.618-1.22-1.108-1.978-1.47s-1.581-0.542-2.467-0.542
				c-0.561,0-1.139,0.111-1.733,0.333s-1.155,0.513-1.68,0.875s-0.979,0.793-1.365,1.295c-0.385,0.502-0.636,1.032-0.753,1.592
				v5.215c0.257,0.607,0.584,1.173,0.98,1.698s0.852,0.98,1.365,1.365c0.513,0.385,1.062,0.689,1.645,0.91
				C307.581,40.98,308.188,41.09,308.817,41.09z"/>
		</g>
		<g>
			<path fill="#D2D2D2" d="M302.056,18.592l5.311-10.915h1.984l5.283,10.915h-2.012l-4.264-8.796l-4.345,8.796H302.056z"/>
		</g>
		<g>
			<path fill="#D2D2D2" d="M276.206,70.599c-0.84,0-1.668-0.13-2.48-0.39c-0.814-0.261-1.514-0.637-2.1-1.13l0.76-1.18
				c0.613,0.467,1.227,0.816,1.84,1.049c0.613,0.234,1.26,0.351,1.939,0.351c0.76,0,1.363-0.149,1.811-0.45
				c0.447-0.3,0.67-0.723,0.67-1.27c0-0.254-0.061-0.471-0.18-0.65c-0.121-0.18-0.301-0.336-0.541-0.47s-0.547-0.253-0.92-0.36
				c-0.373-0.106-0.807-0.22-1.299-0.34c-0.627-0.16-1.168-0.312-1.621-0.46c-0.453-0.146-0.826-0.319-1.119-0.521
				c-0.293-0.199-0.508-0.439-0.641-0.719c-0.133-0.281-0.199-0.627-0.199-1.041c0-0.52,0.104-0.982,0.309-1.39
				c0.207-0.407,0.49-0.747,0.852-1.021c0.359-0.272,0.783-0.479,1.27-0.619c0.486-0.141,1.01-0.211,1.57-0.211
				c0.785,0,1.52,0.127,2.199,0.381s1.254,0.586,1.721,1l-0.801,1.06c-0.439-0.386-0.934-0.677-1.48-0.87s-1.105-0.289-1.68-0.289
				c-0.639,0-1.184,0.137-1.629,0.409c-0.447,0.273-0.67,0.71-0.67,1.31c0,0.24,0.043,0.44,0.129,0.601
				c0.088,0.16,0.23,0.3,0.43,0.42c0.201,0.12,0.457,0.228,0.771,0.32c0.312,0.093,0.689,0.193,1.129,0.3
				c0.693,0.16,1.297,0.323,1.811,0.49c0.514,0.166,0.939,0.363,1.279,0.59s0.594,0.493,0.76,0.8c0.168,0.308,0.25,0.681,0.25,1.12
				c0,0.974-0.373,1.747-1.119,2.32S277.472,70.599,276.206,70.599z"/>
			<path fill="#D2D2D2" d="M281.726,65.16c0-0.733,0.127-1.427,0.379-2.08c0.254-0.653,0.613-1.223,1.08-1.71s1.023-0.874,1.67-1.16
				s1.371-0.431,2.17-0.431c1.041,0,1.938,0.23,2.691,0.69c0.752,0.46,1.322,1.077,1.709,1.851l-1.719,0.539
				c-0.268-0.492-0.641-0.876-1.121-1.149c-0.48-0.272-1.014-0.41-1.6-0.41c-0.48,0-0.934,0.097-1.359,0.29
				c-0.428,0.193-0.795,0.463-1.102,0.811c-0.307,0.346-0.549,0.753-0.729,1.22s-0.271,0.979-0.271,1.54
				c0,0.547,0.094,1.06,0.281,1.539c0.186,0.48,0.436,0.897,0.75,1.25c0.312,0.354,0.68,0.631,1.1,0.83
				c0.42,0.201,0.869,0.301,1.35,0.301c0.307,0,0.611-0.043,0.91-0.131c0.301-0.086,0.574-0.203,0.82-0.35s0.463-0.316,0.65-0.51
				c0.186-0.193,0.32-0.402,0.4-0.63l1.719,0.521c-0.16,0.387-0.383,0.739-0.67,1.06c-0.287,0.319-0.623,0.593-1.01,0.819
				c-0.387,0.228-0.816,0.407-1.289,0.541c-0.475,0.133-0.971,0.199-1.49,0.199c-0.787,0-1.508-0.146-2.16-0.439
				c-0.654-0.293-1.213-0.688-1.68-1.18c-0.467-0.494-0.83-1.07-1.09-1.73C281.854,66.589,281.726,65.893,281.726,65.16z"/>
			<path fill="#D2D2D2" d="M293.505,58v-2.2h1.76V58H293.505z M293.505,70.4v-10.44h1.76V70.4H293.505z"/>
			<path fill="#D2D2D2" d="M301.765,70.599c-0.84,0-1.666-0.13-2.48-0.39c-0.812-0.261-1.512-0.637-2.1-1.13l0.76-1.18
				c0.613,0.467,1.227,0.816,1.84,1.049c0.613,0.234,1.262,0.351,1.941,0.351c0.76,0,1.363-0.149,1.809-0.45
				c0.447-0.3,0.67-0.723,0.67-1.27c0-0.254-0.059-0.471-0.18-0.65c-0.119-0.18-0.299-0.336-0.539-0.47s-0.547-0.253-0.92-0.36
				c-0.373-0.106-0.807-0.22-1.301-0.34c-0.627-0.16-1.166-0.312-1.619-0.46c-0.453-0.146-0.828-0.319-1.121-0.521
				c-0.293-0.199-0.506-0.439-0.639-0.719c-0.135-0.281-0.201-0.627-0.201-1.041c0-0.52,0.104-0.982,0.311-1.39
				s0.49-0.747,0.85-1.021c0.359-0.272,0.783-0.479,1.27-0.619c0.488-0.141,1.012-0.211,1.57-0.211c0.787,0,1.52,0.127,2.201,0.381
				c0.68,0.254,1.252,0.586,1.719,1l-0.799,1.06c-0.441-0.386-0.934-0.677-1.48-0.87s-1.107-0.289-1.68-0.289
				c-0.641,0-1.184,0.137-1.631,0.409c-0.447,0.273-0.67,0.71-0.67,1.31c0,0.24,0.043,0.44,0.131,0.601
				c0.086,0.16,0.229,0.3,0.43,0.42c0.199,0.12,0.457,0.228,0.77,0.32s0.689,0.193,1.131,0.3c0.693,0.16,1.297,0.323,1.809,0.49
				c0.514,0.166,0.941,0.363,1.281,0.59s0.592,0.493,0.76,0.8c0.166,0.308,0.25,0.681,0.25,1.12c0,0.974-0.373,1.747-1.121,2.32
				C304.038,70.313,303.032,70.599,301.765,70.599z"/>
			<path fill="#D2D2D2" d="M311.646,70.599c-0.84,0-1.668-0.13-2.48-0.39c-0.814-0.261-1.514-0.637-2.1-1.13l0.76-1.18
				c0.613,0.467,1.227,0.816,1.84,1.049c0.613,0.234,1.26,0.351,1.939,0.351c0.76,0,1.363-0.149,1.811-0.45
				c0.447-0.3,0.67-0.723,0.67-1.27c0-0.254-0.061-0.471-0.18-0.65c-0.121-0.18-0.301-0.336-0.541-0.47s-0.547-0.253-0.92-0.36
				c-0.373-0.106-0.807-0.22-1.299-0.34c-0.627-0.16-1.168-0.312-1.621-0.46c-0.453-0.146-0.826-0.319-1.119-0.521
				c-0.293-0.199-0.508-0.439-0.641-0.719c-0.133-0.281-0.199-0.627-0.199-1.041c0-0.52,0.104-0.982,0.309-1.39
				c0.207-0.407,0.49-0.747,0.852-1.021c0.359-0.272,0.783-0.479,1.27-0.619c0.486-0.141,1.01-0.211,1.57-0.211
				c0.785,0,1.52,0.127,2.199,0.381s1.254,0.586,1.721,1l-0.801,1.06c-0.439-0.386-0.934-0.677-1.48-0.87s-1.105-0.289-1.68-0.289
				c-0.639,0-1.184,0.137-1.629,0.409c-0.447,0.273-0.67,0.71-0.67,1.31c0,0.24,0.043,0.44,0.129,0.601
				c0.088,0.16,0.23,0.3,0.43,0.42c0.201,0.12,0.457,0.228,0.771,0.32c0.312,0.093,0.689,0.193,1.129,0.3
				c0.693,0.16,1.297,0.323,1.811,0.49c0.514,0.166,0.939,0.363,1.279,0.59s0.594,0.493,0.76,0.8c0.168,0.308,0.25,0.681,0.25,1.12
				c0,0.974-0.373,1.747-1.119,2.32S312.911,70.599,311.646,70.599z"/>
			<path fill="#D2D2D2" d="M322.425,70.599c-0.787,0-1.504-0.146-2.15-0.439s-1.199-0.688-1.66-1.18
				c-0.459-0.494-0.816-1.066-1.07-1.721c-0.252-0.652-0.379-1.34-0.379-2.061c0-0.732,0.129-1.426,0.391-2.079
				c0.26-0.653,0.619-1.227,1.08-1.72c0.459-0.494,1.012-0.887,1.658-1.181c0.646-0.293,1.357-0.44,2.131-0.44
				s1.486,0.147,2.141,0.44c0.652,0.294,1.209,0.687,1.67,1.181c0.459,0.493,0.82,1.066,1.08,1.72s0.389,1.347,0.389,2.079
				c0,0.721-0.127,1.408-0.379,2.061c-0.254,0.654-0.613,1.227-1.08,1.721c-0.467,0.492-1.023,0.887-1.67,1.18
				S323.212,70.599,322.425,70.599z M318.964,65.219c0,0.547,0.092,1.054,0.271,1.521s0.426,0.873,0.74,1.22
				c0.312,0.347,0.68,0.62,1.1,0.819c0.42,0.201,0.869,0.301,1.35,0.301s0.93-0.1,1.35-0.301c0.42-0.199,0.791-0.477,1.111-0.83
				c0.318-0.353,0.568-0.766,0.75-1.239c0.18-0.474,0.27-0.983,0.27-1.53c0-0.533-0.09-1.036-0.27-1.51
				c-0.182-0.473-0.432-0.887-0.75-1.24c-0.32-0.354-0.691-0.63-1.111-0.83c-0.42-0.199-0.869-0.3-1.35-0.3s-0.93,0.104-1.35,0.31
				c-0.42,0.207-0.787,0.487-1.1,0.84c-0.314,0.354-0.561,0.768-0.74,1.24C319.056,64.164,318.964,64.673,318.964,65.219z"/>
			<path fill="#D2D2D2" d="M335.364,61.5c-0.881,0.027-1.656,0.254-2.33,0.68c-0.674,0.428-1.15,1.02-1.43,1.78v6.44h-1.76v-10.44
				h1.639v2.42c0.361-0.72,0.834-1.304,1.422-1.75c0.586-0.446,1.213-0.696,1.879-0.75c0.133,0,0.246,0,0.34,0
				s0.174,0.007,0.24,0.021V61.5z"/>
			<path fill="#D2D2D2" d="M340.765,70.599c-0.84,0-1.668-0.13-2.48-0.39c-0.814-0.261-1.514-0.637-2.1-1.13l0.76-1.18
				c0.613,0.467,1.227,0.816,1.84,1.049c0.613,0.234,1.26,0.351,1.939,0.351c0.76,0,1.363-0.149,1.811-0.45
				c0.447-0.3,0.67-0.723,0.67-1.27c0-0.254-0.061-0.471-0.18-0.65c-0.121-0.18-0.301-0.336-0.541-0.47s-0.547-0.253-0.92-0.36
				c-0.373-0.106-0.807-0.22-1.299-0.34c-0.627-0.16-1.168-0.312-1.621-0.46c-0.453-0.146-0.826-0.319-1.119-0.521
				c-0.293-0.199-0.508-0.439-0.641-0.719c-0.133-0.281-0.199-0.627-0.199-1.041c0-0.52,0.104-0.982,0.309-1.39
				c0.207-0.407,0.49-0.747,0.852-1.021c0.359-0.272,0.783-0.479,1.27-0.619c0.486-0.141,1.01-0.211,1.57-0.211
				c0.785,0,1.52,0.127,2.199,0.381s1.254,0.586,1.721,1l-0.801,1.06c-0.439-0.386-0.934-0.677-1.48-0.87s-1.105-0.289-1.68-0.289
				c-0.639,0-1.184,0.137-1.629,0.409c-0.447,0.273-0.67,0.71-0.67,1.31c0,0.24,0.043,0.44,0.129,0.601
				c0.088,0.16,0.23,0.3,0.43,0.42c0.201,0.12,0.457,0.228,0.771,0.32c0.312,0.093,0.689,0.193,1.129,0.3
				c0.693,0.16,1.297,0.323,1.811,0.49c0.514,0.166,0.939,0.363,1.279,0.59s0.594,0.493,0.76,0.8c0.168,0.308,0.25,0.681,0.25,1.12
				c0,0.974-0.373,1.747-1.119,2.32S342.03,70.599,340.765,70.599z"/>
		</g>
	</g>
	<g>
		<path fill="none" stroke="#5BC0DE" stroke-width="3" stroke-miterlimit="10" d="M224.039,65.861
			c0,6.263-5.076,11.339-11.338,11.339h-63.724c-6.262,0-11.339-5.076-11.339-11.339V14.938c0-6.262,5.077-11.338,11.339-11.338
			h63.724c6.262,0,11.338,5.077,11.338,11.338V65.861z"/>
		<g>
			<path fill="#D2D2D2" d="M182.257,43.75c-1.518,0-2.853-0.373-4.008-1.12c-1.155-0.747-2.071-1.691-2.748-2.835v11.06h-3.08V25.13
				h2.73v3.43c0.723-1.12,1.663-2.024,2.818-2.713c1.155-0.688,2.432-1.032,3.833-1.032c1.26,0,2.414,0.257,3.465,0.77
				c1.05,0.514,1.96,1.208,2.73,2.083c0.77,0.875,1.37,1.884,1.802,3.027c0.432,1.144,0.647,2.333,0.647,3.57
				c0,1.307-0.198,2.537-0.595,3.692c-0.397,1.155-0.957,2.158-1.681,3.01c-0.723,0.852-1.586,1.529-2.59,2.03
				C184.578,43.5,183.47,43.75,182.257,43.75z M181.312,41.09c0.91,0,1.732-0.192,2.467-0.578c0.736-0.385,1.365-0.898,1.891-1.54
				c0.525-0.641,0.928-1.37,1.207-2.188c0.281-0.816,0.42-1.656,0.42-2.52c0-0.91-0.163-1.779-0.489-2.608
				c-0.327-0.828-0.771-1.551-1.33-2.17c-0.56-0.618-1.22-1.108-1.978-1.47s-1.581-0.542-2.467-0.542
				c-0.56,0-1.138,0.111-1.733,0.333c-0.595,0.222-1.155,0.513-1.68,0.875s-0.98,0.793-1.365,1.295
				c-0.385,0.502-0.636,1.032-0.752,1.592v5.215c0.256,0.607,0.583,1.173,0.98,1.698c0.396,0.525,0.852,0.98,1.365,1.365
				c0.513,0.385,1.062,0.689,1.645,0.91C180.075,40.98,180.682,41.09,181.312,41.09z"/>
		</g>
		<g>
			<path fill="#D2D2D2" d="M174.55,18.592l5.31-10.915h1.984l5.283,10.915h-2.012l-4.264-8.796l-4.345,8.796H174.55z"/>
		</g>
		<g>
			<path fill="#D2D2D2" d="M160.5,70.599c-0.867,0-1.63-0.213-2.29-0.64s-1.184-0.967-1.57-1.62v6.32h-1.76v-14.7h1.561v1.96
				c0.413-0.641,0.949-1.156,1.609-1.55s1.391-0.591,2.19-0.591c0.72,0,1.38,0.147,1.979,0.44c0.601,0.294,1.12,0.69,1.561,1.19
				c0.439,0.5,0.783,1.076,1.029,1.73c0.247,0.652,0.37,1.332,0.37,2.039c0,0.747-0.113,1.45-0.34,2.11
				c-0.227,0.659-0.547,1.233-0.96,1.72s-0.907,0.873-1.479,1.16C161.826,70.457,161.193,70.599,160.5,70.599z M159.959,69.08
				c0.52,0,0.99-0.11,1.41-0.33c0.42-0.221,0.78-0.514,1.08-0.88s0.529-0.783,0.689-1.25s0.24-0.946,0.24-1.44
				c0-0.52-0.094-1.016-0.28-1.49c-0.187-0.473-0.439-0.887-0.76-1.24c-0.32-0.353-0.696-0.633-1.13-0.84
				c-0.434-0.206-0.903-0.31-1.41-0.31c-0.32,0-0.649,0.063-0.99,0.19c-0.34,0.127-0.659,0.293-0.96,0.5
				c-0.3,0.207-0.56,0.453-0.779,0.74c-0.221,0.286-0.364,0.59-0.431,0.91v2.979c0.146,0.347,0.333,0.67,0.561,0.97
				c0.227,0.301,0.486,0.561,0.779,0.78c0.294,0.22,0.607,0.394,0.94,0.521C159.252,69.016,159.599,69.08,159.959,69.08z"/>
			<path fill="#D2D2D2" d="M170.019,70.599c-0.493,0-0.953-0.083-1.38-0.25c-0.427-0.166-0.797-0.396-1.109-0.689
				c-0.313-0.293-0.561-0.637-0.74-1.03s-0.271-0.823-0.271-1.29c0-0.48,0.107-0.916,0.32-1.311c0.213-0.393,0.517-0.729,0.91-1.01
				c0.393-0.279,0.86-0.5,1.4-0.66c0.539-0.16,1.13-0.239,1.77-0.239c0.507,0,1.02,0.047,1.54,0.14
				c0.52,0.094,0.979,0.221,1.38,0.381v-0.841c0-0.853-0.24-1.522-0.72-2.01c-0.48-0.487-1.16-0.729-2.04-0.729
				c-1.054,0-2.16,0.406-3.32,1.219l-0.58-1.139c1.347-0.907,2.7-1.361,4.061-1.361c1.373,0,2.442,0.367,3.21,1.101
				c0.767,0.733,1.149,1.767,1.149,3.101v4.26c0,0.413,0.187,0.627,0.561,0.64V70.4c-0.188,0.025-0.34,0.046-0.46,0.06
				c-0.12,0.013-0.247,0.021-0.38,0.021c-0.348,0-0.624-0.104-0.83-0.311c-0.207-0.207-0.33-0.457-0.37-0.75l-0.04-0.74
				c-0.467,0.627-1.057,1.104-1.771,1.43C171.596,70.436,170.833,70.599,170.019,70.599z M170.479,69.279
				c0.627,0,1.21-0.115,1.75-0.35c0.54-0.232,0.95-0.543,1.23-0.93c0.253-0.254,0.38-0.514,0.38-0.78v-1.54
				c-0.854-0.333-1.74-0.5-2.66-0.5c-0.88,0-1.597,0.188-2.149,0.561c-0.554,0.373-0.83,0.859-0.83,1.459
				c0,0.294,0.057,0.567,0.17,0.82c0.113,0.254,0.272,0.474,0.479,0.66c0.207,0.188,0.45,0.334,0.73,0.44
				S170.16,69.279,170.479,69.279z"/>
			<path fill="#D2D2D2" d="M184.038,70.599c-0.867,0-1.629-0.213-2.29-0.64c-0.66-0.427-1.184-0.967-1.57-1.62v6.32h-1.76v-14.7
				h1.561v1.96c0.413-0.641,0.949-1.156,1.609-1.55c0.661-0.394,1.391-0.591,2.19-0.591c0.721,0,1.381,0.147,1.98,0.44
				c0.6,0.294,1.119,0.69,1.561,1.19c0.439,0.5,0.783,1.076,1.029,1.73c0.246,0.652,0.369,1.332,0.369,2.039
				c0,0.747-0.113,1.45-0.34,2.11c-0.227,0.659-0.547,1.233-0.959,1.72c-0.414,0.486-0.908,0.873-1.48,1.16
				C185.364,70.457,184.731,70.599,184.038,70.599z M183.499,69.08c0.52,0,0.99-0.11,1.41-0.33c0.42-0.221,0.779-0.514,1.08-0.88
				c0.299-0.366,0.529-0.783,0.689-1.25s0.24-0.946,0.24-1.44c0-0.52-0.094-1.016-0.281-1.49c-0.186-0.473-0.439-0.887-0.76-1.24
				c-0.32-0.353-0.695-0.633-1.129-0.84c-0.434-0.206-0.904-0.31-1.41-0.31c-0.32,0-0.65,0.063-0.99,0.19s-0.66,0.293-0.96,0.5
				c-0.3,0.207-0.56,0.453-0.779,0.74c-0.221,0.286-0.364,0.59-0.431,0.91v2.979c0.146,0.347,0.333,0.67,0.561,0.97
				c0.227,0.301,0.486,0.561,0.779,0.78c0.293,0.22,0.608,0.394,0.94,0.521C182.792,69.016,183.138,69.08,183.499,69.08z"/>
			<path fill="#D2D2D2" d="M195.499,70.599c-0.787,0-1.508-0.143-2.16-0.43c-0.654-0.287-1.213-0.677-1.68-1.17
				s-0.83-1.07-1.09-1.73c-0.262-0.66-0.391-1.355-0.391-2.09c0-0.732,0.129-1.426,0.391-2.08c0.26-0.652,0.625-1.227,1.1-1.72
				c0.473-0.493,1.035-0.884,1.689-1.17c0.652-0.286,1.373-0.431,2.16-0.431s1.504,0.147,2.15,0.44
				c0.646,0.294,1.195,0.684,1.65,1.171c0.453,0.486,0.803,1.053,1.049,1.699s0.371,1.316,0.371,2.01c0,0.146-0.004,0.28-0.012,0.4
				c-0.006,0.12-0.016,0.213-0.029,0.279h-8.66c0.041,0.521,0.16,0.994,0.361,1.42c0.199,0.428,0.459,0.794,0.779,1.101
				c0.32,0.308,0.684,0.547,1.09,0.72c0.406,0.174,0.836,0.26,1.289,0.26c0.32,0,0.635-0.043,0.941-0.129
				c0.307-0.087,0.592-0.203,0.859-0.351c0.268-0.146,0.504-0.327,0.711-0.54c0.205-0.213,0.361-0.453,0.469-0.72l1.52,0.42
				c-0.172,0.387-0.408,0.739-0.709,1.06s-0.646,0.598-1.041,0.83c-0.393,0.234-0.83,0.417-1.309,0.551
				C196.519,70.533,196.019,70.599,195.499,70.599z M199.079,64.48c-0.041-0.494-0.164-0.951-0.371-1.371s-0.467-0.775-0.779-1.069
				c-0.314-0.294-0.678-0.523-1.09-0.69c-0.414-0.166-0.854-0.25-1.32-0.25s-0.906,0.084-1.32,0.25c-0.414,0.167-0.777,0.4-1.09,0.7
				s-0.566,0.657-0.76,1.07s-0.311,0.866-0.35,1.36H199.079z"/>
			<path fill="#D2D2D2" d="M208.22,61.5c-0.881,0.027-1.658,0.254-2.33,0.68c-0.674,0.428-1.15,1.02-1.432,1.78v6.44h-1.76v-10.44
				h1.641v2.42c0.359-0.72,0.834-1.304,1.42-1.75s1.213-0.696,1.881-0.75c0.133,0,0.246,0,0.34,0c0.092,0,0.172,0.007,0.24,0.021
				V61.5z"/>
		</g>
	</g>
	<g>
		<path fill="none" stroke="#D9534F" stroke-width="3" stroke-miterlimit="10" d="M96.533,65.861
			c0,6.263-5.076,11.339-11.338,11.339H21.471c-6.262,0-11.339-5.076-11.339-11.339V14.938c0-6.262,5.077-11.338,11.339-11.338
			h63.724c6.262,0,11.338,5.077,11.338,11.338V65.861z"/>
		<g>
			<path fill="#D2D2D2" d="M54.75,43.75c-1.517,0-2.853-0.373-4.007-1.12c-1.155-0.747-2.071-1.691-2.748-2.835v11.06h-3.08V25.13
				h2.73v3.43c0.723-1.12,1.663-2.024,2.818-2.713c1.155-0.688,2.432-1.032,3.833-1.032c1.26,0,2.415,0.257,3.465,0.77
				c1.05,0.514,1.96,1.208,2.73,2.083s1.371,1.884,1.802,3.027c0.432,1.144,0.647,2.333,0.647,3.57c0,1.307-0.198,2.537-0.595,3.692
				c-0.397,1.155-0.957,2.158-1.68,3.01c-0.723,0.852-1.587,1.529-2.59,2.03C57.072,43.5,55.963,43.75,54.75,43.75z M53.805,41.09
				c0.91,0,1.732-0.192,2.467-0.578c0.735-0.385,1.365-0.898,1.89-1.54c0.525-0.641,0.928-1.37,1.208-2.188
				c0.28-0.816,0.42-1.656,0.42-2.52c0-0.91-0.164-1.779-0.49-2.608c-0.327-0.828-0.77-1.551-1.33-2.17
				c-0.56-0.618-1.22-1.108-1.978-1.47c-0.758-0.362-1.581-0.542-2.467-0.542c-0.56,0-1.138,0.111-1.733,0.333
				c-0.595,0.222-1.155,0.513-1.68,0.875s-0.98,0.793-1.365,1.295c-0.385,0.502-0.636,1.032-0.752,1.592v5.215
				c0.256,0.607,0.583,1.173,0.98,1.698c0.396,0.525,0.852,0.98,1.365,1.365c0.513,0.385,1.062,0.689,1.645,0.91
				C52.568,40.98,53.175,41.09,53.805,41.09z"/>
		</g>
		<g>
			<path fill="#D2D2D2" d="M47.044,18.592l5.31-10.915h1.984l5.283,10.915H57.61l-4.264-8.796l-4.345,8.796H47.044z"/>
		</g>
		<g>
			<path fill="#D2D2D2" d="M39.843,61.5c-0.881,0.027-1.657,0.254-2.33,0.68c-0.674,0.428-1.15,1.02-1.431,1.78v6.44h-1.76v-10.44
				h1.64v2.42c0.36-0.72,0.834-1.304,1.421-1.75c0.586-0.446,1.213-0.696,1.88-0.75c0.133,0,0.246,0,0.34,0
				c0.093,0,0.173,0.007,0.24,0.021V61.5z"/>
			<path fill="#D2D2D2" d="M45.903,70.599c-0.787,0-1.504-0.146-2.15-0.439s-1.2-0.688-1.66-1.18
				c-0.46-0.494-0.816-1.066-1.07-1.721c-0.253-0.652-0.38-1.34-0.38-2.061c0-0.732,0.13-1.426,0.391-2.079
				c0.26-0.653,0.62-1.227,1.08-1.72c0.46-0.494,1.013-0.887,1.659-1.181c0.646-0.293,1.357-0.44,2.131-0.44
				c0.772,0,1.486,0.147,2.14,0.44c0.653,0.294,1.21,0.687,1.67,1.181c0.46,0.493,0.82,1.066,1.08,1.72s0.39,1.347,0.39,2.079
				c0,0.721-0.127,1.408-0.38,2.061c-0.253,0.654-0.613,1.227-1.08,1.721c-0.467,0.492-1.023,0.887-1.67,1.18
				S46.689,70.599,45.903,70.599z M42.442,65.219c0,0.547,0.091,1.054,0.271,1.521s0.427,0.873,0.74,1.22
				c0.312,0.347,0.68,0.62,1.1,0.819c0.42,0.201,0.87,0.301,1.351,0.301c0.479,0,0.93-0.1,1.35-0.301
				c0.42-0.199,0.79-0.477,1.11-0.83c0.319-0.353,0.569-0.766,0.75-1.239c0.18-0.474,0.27-0.983,0.27-1.53
				c0-0.533-0.09-1.036-0.27-1.51c-0.181-0.473-0.431-0.887-0.75-1.24c-0.32-0.354-0.69-0.63-1.11-0.83
				c-0.42-0.199-0.87-0.3-1.35-0.3c-0.48,0-0.931,0.104-1.351,0.31c-0.42,0.207-0.787,0.487-1.1,0.84
				c-0.313,0.354-0.561,0.768-0.74,1.24C42.533,64.164,42.442,64.673,42.442,65.219z"/>
			<path fill="#D2D2D2" d="M52.623,65.16c0-0.733,0.127-1.427,0.38-2.08c0.254-0.653,0.613-1.223,1.08-1.71s1.023-0.874,1.67-1.16
				s1.37-0.431,2.17-0.431c1.04,0,1.938,0.23,2.69,0.69s1.323,1.077,1.71,1.851l-1.72,0.539c-0.267-0.492-0.641-0.876-1.12-1.149
				c-0.48-0.272-1.014-0.41-1.6-0.41c-0.48,0-0.934,0.097-1.36,0.29s-0.794,0.463-1.101,0.811c-0.307,0.346-0.55,0.753-0.729,1.22
				s-0.271,0.979-0.271,1.54c0,0.547,0.094,1.06,0.28,1.539c0.187,0.48,0.437,0.897,0.75,1.25c0.313,0.354,0.681,0.631,1.101,0.83
				c0.42,0.201,0.869,0.301,1.35,0.301c0.307,0,0.61-0.043,0.91-0.131c0.3-0.086,0.573-0.203,0.82-0.35
				c0.246-0.146,0.463-0.316,0.649-0.51s0.32-0.402,0.4-0.63l1.72,0.521c-0.16,0.387-0.384,0.739-0.67,1.06
				c-0.287,0.319-0.623,0.593-1.01,0.819c-0.387,0.228-0.817,0.407-1.29,0.541c-0.474,0.133-0.971,0.199-1.49,0.199
				c-0.787,0-1.507-0.146-2.16-0.439s-1.213-0.688-1.68-1.18c-0.467-0.494-0.83-1.07-1.09-1.73
				C52.752,66.589,52.623,65.893,52.623,65.16z"/>
			<path fill="#D2D2D2" d="M71.763,70.4l-3.601-5.101l-2,1.88V70.4h-1.76V55.799h1.76V65.4l5.36-5.42h1.94l-4.16,4.319l4.359,6.101
				H71.763z"/>
		</g>
	</g>
	<g>
		<g>
			<g>
				<path fill="#D2D2D2" d="M58.793,163.861v2.799H46.228v-2.799h4.97v-13.65c-0.21,0.279-0.537,0.577-0.98,0.893
					c-0.443,0.314-0.939,0.606-1.487,0.875c-0.549,0.268-1.115,0.496-1.698,0.682c-0.583,0.188-1.097,0.28-1.54,0.28V150
					c0.513,0,1.085-0.145,1.715-0.438c0.63-0.291,1.23-0.629,1.802-1.014c0.572-0.386,1.062-0.759,1.47-1.121
					c0.408-0.361,0.647-0.612,0.717-0.752h3.15v17.186H58.793z"/>
				<path fill="#D2D2D2" d="M56.413,191.4c1.493,0.258,2.678,0.945,3.553,2.065s1.312,2.509,1.312,4.165
					c0,1.073-0.199,2.053-0.595,2.939c-0.397,0.887-0.962,1.646-1.697,2.275s-1.616,1.113-2.643,1.453
					c-1.027,0.338-2.17,0.507-3.43,0.507c-1.773,0-3.331-0.333-4.672-0.997c-1.342-0.666-2.386-1.605-3.132-2.818l2.065-2.064
					c0.537,0.957,1.26,1.709,2.17,2.258c0.91,0.547,2.1,0.822,3.57,0.822c1.61,0,2.875-0.362,3.798-1.086
					c0.921-0.723,1.382-1.819,1.382-3.289c0-1.471-0.496-2.643-1.487-3.518c-0.992-0.875-2.433-1.312-4.323-1.312h-0.91v-2.59h0.98
					c1.68,0,2.969-0.402,3.867-1.208c0.898-0.805,1.348-1.825,1.348-3.062c0-1.236-0.432-2.157-1.295-2.765
					c-0.864-0.606-1.949-0.91-3.255-0.91c-1.283,0-2.409,0.274-3.377,0.822c-0.968,0.549-1.721,1.312-2.257,2.293l-1.89-1.961
					c0.303-0.582,0.718-1.113,1.243-1.592s1.131-0.893,1.82-1.242c0.688-0.35,1.435-0.618,2.24-0.805
					c0.805-0.188,1.65-0.281,2.538-0.281c1.096,0,2.105,0.152,3.027,0.455c0.921,0.305,1.715,0.725,2.38,1.261s1.178,1.19,1.54,1.96
					c0.361,0.77,0.542,1.622,0.542,2.555c0,0.7-0.1,1.365-0.297,1.995c-0.199,0.63-0.49,1.202-0.875,1.715
					c-0.385,0.514-0.852,0.94-1.4,1.278C57.702,191.056,57.089,191.284,56.413,191.4z"/>
			</g>
			<line fill="none" stroke="#D2D2D2" stroke-width="2" stroke-miterlimit="10" x1="39.407" y1="173.21" x2="67.258" y2="173.21"/>
		</g>
		
			<ellipse fill="none" stroke="#D2D2D2" stroke-width="2" stroke-miterlimit="10" cx="53.333" cy="175.135" rx="19.35" ry="37.025"/>
	</g>
	<g>
		<g>
			<g>
				<path fill="#D2D2D2" d="M186.3,163.861v2.799h-12.565v-2.799h4.97v-13.65c-0.21,0.279-0.537,0.577-0.98,0.893
					c-0.443,0.314-0.939,0.606-1.487,0.875c-0.549,0.268-1.115,0.496-1.698,0.682c-0.583,0.188-1.097,0.28-1.54,0.28V150
					c0.513,0,1.085-0.145,1.715-0.438c0.63-0.291,1.23-0.629,1.802-1.014c0.572-0.386,1.062-0.759,1.47-1.121
					c0.408-0.361,0.647-0.612,0.717-0.752h3.15v17.186H186.3z"/>
				<path fill="#D2D2D2" d="M183.919,191.4c1.493,0.258,2.678,0.945,3.553,2.065s1.312,2.509,1.312,4.165
					c0,1.073-0.199,2.053-0.596,2.939s-0.962,1.646-1.697,2.275c-0.734,0.63-1.615,1.113-2.643,1.453
					c-1.026,0.338-2.169,0.507-3.43,0.507c-1.773,0-3.331-0.333-4.672-0.997c-1.342-0.666-2.386-1.605-3.132-2.818l2.065-2.064
					c0.537,0.957,1.26,1.709,2.17,2.258c0.91,0.547,2.1,0.822,3.57,0.822c1.61,0,2.875-0.362,3.798-1.086
					c0.921-0.723,1.382-1.819,1.382-3.289c0-1.471-0.496-2.643-1.486-3.518c-0.992-0.875-2.433-1.312-4.323-1.312h-0.91v-2.59h0.98
					c1.68,0,2.969-0.402,3.867-1.208c0.897-0.805,1.348-1.825,1.348-3.062c0-1.236-0.433-2.157-1.295-2.765
					c-0.864-0.606-1.948-0.91-3.255-0.91c-1.283,0-2.409,0.274-3.377,0.822c-0.968,0.549-1.721,1.312-2.257,2.293l-1.89-1.961
					c0.303-0.582,0.718-1.113,1.243-1.592s1.131-0.893,1.82-1.242c0.688-0.35,1.435-0.618,2.24-0.805
					c0.805-0.188,1.65-0.281,2.538-0.281c1.096,0,2.105,0.152,3.027,0.455c0.922,0.305,1.715,0.725,2.381,1.261
					c0.664,0.536,1.178,1.19,1.539,1.96s0.543,1.622,0.543,2.555c0,0.7-0.1,1.365-0.297,1.995c-0.199,0.63-0.49,1.202-0.875,1.715
					c-0.386,0.514-0.853,0.94-1.4,1.278C185.208,191.056,184.596,191.284,183.919,191.4z"/>
			</g>
			
				<line fill="none" stroke="#D2D2D2" stroke-width="2" stroke-miterlimit="10" x1="166.914" y1="173.21" x2="194.764" y2="173.21"/>
		</g>
		
			<ellipse fill="none" stroke="#D2D2D2" stroke-width="2" stroke-miterlimit="10" cx="180.839" cy="175.135" rx="19.351" ry="37.025"/>
	</g>
	<g>
		<g>
			<g>
				<path fill="#D2D2D2" d="M313.806,163.861v2.799H301.24v-2.799h4.97v-13.65c-0.21,0.279-0.537,0.577-0.98,0.893
					c-0.443,0.314-0.939,0.606-1.486,0.875c-0.549,0.268-1.115,0.496-1.698,0.682c-0.583,0.188-1.097,0.28-1.54,0.28V150
					c0.514,0,1.085-0.145,1.715-0.438c0.631-0.291,1.23-0.629,1.803-1.014c0.572-0.386,1.062-0.759,1.471-1.121
					c0.407-0.361,0.646-0.612,0.717-0.752h3.15v17.186H313.806z"/>
				<path fill="#D2D2D2" d="M311.425,191.4c1.493,0.258,2.678,0.945,3.553,2.065s1.312,2.509,1.312,4.165
					c0,1.073-0.199,2.053-0.596,2.939s-0.962,1.646-1.697,2.275c-0.734,0.63-1.615,1.113-2.643,1.453
					c-1.026,0.338-2.17,0.507-3.43,0.507c-1.773,0-3.33-0.333-4.672-0.997c-1.342-0.666-2.387-1.605-3.133-2.818l2.064-2.064
					c0.537,0.957,1.26,1.709,2.17,2.258c0.91,0.547,2.101,0.822,3.57,0.822c1.61,0,2.875-0.362,3.798-1.086
					c0.921-0.723,1.382-1.819,1.382-3.289c0-1.471-0.496-2.643-1.486-3.518c-0.992-0.875-2.434-1.312-4.323-1.312h-0.909v-2.59
					h0.979c1.68,0,2.969-0.402,3.867-1.208c0.897-0.805,1.348-1.825,1.348-3.062c0-1.236-0.433-2.157-1.295-2.765
					c-0.864-0.606-1.948-0.91-3.255-0.91c-1.283,0-2.41,0.274-3.378,0.822c-0.968,0.549-1.721,1.312-2.257,2.293l-1.891-1.961
					c0.303-0.582,0.718-1.113,1.242-1.592c0.525-0.479,1.132-0.893,1.82-1.242c0.688-0.35,1.436-0.618,2.24-0.805
					c0.805-0.188,1.65-0.281,2.537-0.281c1.097,0,2.105,0.152,3.027,0.455c0.922,0.305,1.715,0.725,2.381,1.261
					c0.664,0.536,1.178,1.19,1.539,1.96s0.543,1.622,0.543,2.555c0,0.7-0.1,1.365-0.297,1.995c-0.199,0.63-0.49,1.202-0.875,1.715
					c-0.386,0.514-0.853,0.94-1.4,1.278C312.714,191.056,312.102,191.284,311.425,191.4z"/>
			</g>
			<line fill="none" stroke="#D2D2D2" stroke-width="2" stroke-miterlimit="10" x1="294.42" y1="173.21" x2="322.27" y2="173.21"/>
		</g>
		
			<ellipse fill="none" stroke="#D2D2D2" stroke-width="2" stroke-miterlimit="10" cx="308.344" cy="175.135" rx="19.35" ry="37.025"/>
	</g>
</g>
<g id="layer2">
	<g>
		<g>
			<path fill="#D9534F" d="M54.342,93.598c0,0,0.106,1.65,0.266,4.126c0.129,2.475,0.226,5.775,0.224,9.076
				c0.003,3.301-0.091,6.602-0.22,9.076c-0.159,2.476-0.265,4.126-0.265,4.126h-2.028c0,0-0.106-1.65-0.265-4.126
				c-0.129-2.475-0.223-5.775-0.22-9.076c-0.002-3.301,0.095-6.602,0.224-9.076c0.16-2.476,0.266-4.126,0.266-4.126H54.342z"/>
			<g>
				<polygon fill="#D9534F" points="53.333,85.125 48.454,97.065 53.333,94.232 58.21,97.065 				"/>
			</g>
			<g>
				<polygon fill="#D9534F" points="53.333,128.475 48.454,116.536 53.333,119.369 58.21,116.536 				"/>
			</g>
		</g>
	</g>
	<g>
		<path fill="#D9534F" d="M66.68,111.97c-0.72,0-1.387-0.146-2-0.439c-0.614-0.293-1.14-0.688-1.58-1.18
			c-0.44-0.494-0.784-1.066-1.03-1.721c-0.247-0.652-0.37-1.34-0.37-2.061c0-0.732,0.116-1.43,0.35-2.09s0.56-1.236,0.98-1.729
			c0.42-0.493,0.92-0.884,1.5-1.17c0.58-0.286,1.217-0.431,1.91-0.431c0.84,0,1.59,0.221,2.25,0.66
			c0.66,0.44,1.183,0.975,1.57,1.601v-6.24h1.76v12.44c0,0.413,0.187,0.627,0.56,0.64v1.521c-0.187,0.025-0.337,0.046-0.45,0.06
			c-0.113,0.013-0.223,0.021-0.33,0.021c-0.347,0-0.65-0.117-0.91-0.351c-0.26-0.233-0.39-0.503-0.39-0.81v-0.881
			c-0.414,0.681-0.963,1.211-1.65,1.59C68.163,111.781,67.44,111.97,66.68,111.97z M67.1,110.451c0.32,0,0.65-0.061,0.99-0.18
			c0.34-0.121,0.66-0.287,0.96-0.5c0.3-0.213,0.56-0.463,0.78-0.75c0.22-0.287,0.363-0.59,0.43-0.91v-3
			c-0.12-0.334-0.3-0.65-0.54-0.95c-0.24-0.3-0.51-0.56-0.81-0.78c-0.3-0.22-0.62-0.393-0.96-0.52c-0.34-0.127-0.677-0.19-1.01-0.19
			c-0.52,0-0.99,0.11-1.41,0.33c-0.42,0.22-0.78,0.514-1.08,0.88c-0.3,0.367-0.53,0.787-0.69,1.26c-0.16,0.474-0.24,0.957-0.24,1.45
			c0,0.521,0.093,1.017,0.28,1.49s0.44,0.884,0.76,1.229c0.32,0.348,0.696,0.624,1.13,0.83
			C66.123,110.347,66.593,110.451,67.1,110.451z"/>
		<path fill="#D9534F" d="M78.507,117.498v0.934h-4.186v-0.934h1.656v-4.547c-0.07,0.094-0.179,0.192-0.327,0.297
			c-0.147,0.105-0.313,0.203-0.496,0.291c-0.183,0.09-0.371,0.166-0.565,0.229s-0.365,0.093-0.513,0.093v-0.979
			c0.171,0,0.362-0.049,0.572-0.146c0.209-0.097,0.41-0.21,0.6-0.339c0.19-0.127,0.354-0.252,0.49-0.373
			c0.136-0.12,0.216-0.203,0.239-0.25h1.049v5.725H78.507z"/>
	</g>
</g>
<g id="layer3">
	<g>
		<g>
			<path fill="#5BC0DE" d="M181.848,93.598c0,0,0.106,1.65,0.267,4.126c0.129,2.475,0.227,5.775,0.225,9.076
				c0.003,3.301-0.092,6.602-0.221,9.076c-0.159,2.476-0.266,4.126-0.266,4.126h-2.028c0,0-0.106-1.65-0.265-4.126
				c-0.129-2.475-0.223-5.775-0.22-9.076c-0.002-3.301,0.095-6.602,0.224-9.076c0.16-2.476,0.266-4.126,0.266-4.126H181.848z"/>
			<g>
				<polygon fill="#5BC0DE" points="180.839,85.125 175.96,97.065 180.839,94.232 185.716,97.065 				"/>
			</g>
			<g>
				<polygon fill="#5BC0DE" points="180.839,128.475 175.96,116.536 180.839,119.369 185.716,116.536 				"/>
			</g>
		</g>
	</g>
	<g>
		<path fill="#5BC0DE" d="M194.014,111.97c-0.721,0-1.388-0.146-2-0.439c-0.614-0.293-1.141-0.688-1.58-1.18
			c-0.44-0.494-0.784-1.066-1.03-1.721c-0.247-0.652-0.37-1.34-0.37-2.061c0-0.732,0.116-1.43,0.35-2.09s0.561-1.236,0.98-1.729
			s0.92-0.884,1.5-1.17s1.217-0.431,1.91-0.431c0.84,0,1.59,0.221,2.25,0.66c0.66,0.44,1.183,0.975,1.569,1.601v-6.24h1.761v12.44
			c0,0.413,0.187,0.627,0.56,0.64v1.521c-0.187,0.025-0.337,0.046-0.45,0.06c-0.113,0.013-0.223,0.021-0.33,0.021
			c-0.347,0-0.649-0.117-0.909-0.351c-0.261-0.233-0.391-0.503-0.391-0.81v-0.881c-0.413,0.681-0.963,1.211-1.649,1.59
			C195.496,111.781,194.773,111.97,194.014,111.97z M194.434,110.451c0.319,0,0.649-0.061,0.989-0.18
			c0.341-0.121,0.66-0.287,0.96-0.5c0.301-0.213,0.561-0.463,0.78-0.75s0.363-0.59,0.43-0.91v-3c-0.119-0.334-0.3-0.65-0.54-0.95
			c-0.239-0.3-0.51-0.56-0.81-0.78c-0.3-0.22-0.62-0.393-0.96-0.52s-0.677-0.19-1.01-0.19c-0.521,0-0.99,0.11-1.41,0.33
			s-0.78,0.514-1.08,0.88c-0.3,0.367-0.53,0.787-0.69,1.26c-0.159,0.474-0.239,0.957-0.239,1.45c0,0.521,0.093,1.017,0.279,1.49
			s0.44,0.884,0.761,1.229c0.319,0.348,0.696,0.624,1.13,0.83C193.456,110.347,193.927,110.451,194.434,110.451z"/>
		<path fill="#5BC0DE" d="M201.375,118.431c0-0.312,0.024-0.604,0.075-0.875s0.146-0.532,0.286-0.781
			c0.14-0.248,0.332-0.486,0.577-0.711c0.245-0.226,0.565-0.451,0.962-0.677c0.233-0.124,0.47-0.247,0.711-0.367
			s0.461-0.249,0.659-0.385s0.361-0.282,0.489-0.437c0.129-0.156,0.192-0.339,0.192-0.549c0-0.132-0.031-0.264-0.093-0.396
			c-0.062-0.132-0.151-0.248-0.269-0.35c-0.116-0.102-0.263-0.183-0.438-0.244c-0.175-0.062-0.375-0.094-0.601-0.094
			c-0.232,0-0.444,0.033-0.635,0.099c-0.19,0.066-0.36,0.147-0.508,0.245s-0.275,0.2-0.385,0.309
			c-0.108,0.109-0.198,0.207-0.268,0.292l-0.665-0.747c0.062-0.069,0.167-0.164,0.315-0.285c0.147-0.12,0.334-0.242,0.56-0.367
			c0.225-0.124,0.485-0.23,0.781-0.32c0.295-0.09,0.625-0.135,0.991-0.135c0.357,0,0.68,0.049,0.968,0.146
			c0.287,0.098,0.53,0.23,0.729,0.402c0.198,0.171,0.352,0.371,0.46,0.6c0.109,0.23,0.164,0.473,0.164,0.729
			c0,0.303-0.066,0.567-0.198,0.792c-0.133,0.227-0.294,0.424-0.484,0.596c-0.19,0.171-0.395,0.316-0.612,0.438
			c-0.218,0.12-0.412,0.223-0.583,0.309s-0.363,0.188-0.577,0.309c-0.214,0.121-0.418,0.257-0.612,0.408
			c-0.194,0.152-0.363,0.32-0.507,0.508c-0.144,0.186-0.235,0.389-0.274,0.605h3.977v0.934H201.375z"/>
	</g>
</g>
<g id="layer4">
	<g>
		<path fill="#F0AD4E" d="M321.468,111.97c-0.721,0-1.388-0.146-2-0.44c-0.614-0.293-1.141-0.687-1.58-1.18
			c-0.44-0.493-0.784-1.066-1.031-1.72c-0.246-0.653-0.369-1.34-0.369-2.061c0-0.732,0.116-1.43,0.35-2.09s0.561-1.236,0.98-1.73
			c0.42-0.492,0.92-0.883,1.5-1.17c0.58-0.286,1.217-0.43,1.91-0.43c0.84,0,1.59,0.221,2.25,0.66s1.183,0.974,1.569,1.6v-6.24h1.761
			v12.44c0,0.413,0.186,0.627,0.56,0.64v1.521c-0.187,0.026-0.337,0.046-0.45,0.06s-0.223,0.021-0.33,0.021
			c-0.347,0-0.65-0.116-0.91-0.351c-0.26-0.232-0.39-0.502-0.39-0.81v-0.88c-0.413,0.68-0.964,1.21-1.649,1.59
			C322.95,111.78,322.228,111.97,321.468,111.97z M321.888,110.451c0.319,0,0.649-0.061,0.989-0.181c0.341-0.12,0.66-0.286,0.96-0.5
			c0.301-0.213,0.561-0.463,0.78-0.75c0.22-0.286,0.362-0.59,0.43-0.91v-3c-0.12-0.333-0.3-0.649-0.54-0.95
			c-0.24-0.3-0.51-0.56-0.81-0.779c-0.3-0.221-0.62-0.394-0.96-0.521c-0.34-0.126-0.678-0.19-1.01-0.19
			c-0.521,0-0.99,0.11-1.41,0.33c-0.42,0.221-0.78,0.514-1.08,0.881c-0.301,0.367-0.53,0.787-0.69,1.26
			c-0.159,0.473-0.239,0.957-0.239,1.449c0,0.521,0.093,1.018,0.279,1.49c0.187,0.474,0.439,0.884,0.76,1.23s0.697,0.623,1.131,0.83
			C320.91,110.347,321.38,110.451,321.888,110.451z"/>
		<path fill="#F0AD4E" d="M332.501,115.678c0.498,0.086,0.893,0.315,1.184,0.688c0.292,0.373,0.438,0.836,0.438,1.387
			c0,0.357-0.066,0.685-0.198,0.98c-0.132,0.295-0.32,0.547-0.565,0.758c-0.244,0.209-0.538,0.371-0.881,0.483
			c-0.342,0.112-0.723,0.169-1.143,0.169c-0.59,0-1.109-0.111-1.557-0.332c-0.447-0.222-0.795-0.535-1.043-0.939l0.688-0.688
			c0.18,0.318,0.42,0.57,0.723,0.752c0.304,0.184,0.7,0.274,1.189,0.274c0.537,0,0.959-0.12,1.266-0.361s0.461-0.606,0.461-1.097
			c0-0.489-0.166-0.88-0.496-1.172c-0.33-0.291-0.811-0.437-1.439-0.437h-0.304v-0.863h0.327c0.559,0,0.988-0.134,1.288-0.401
			c0.299-0.27,0.448-0.609,0.448-1.021c0-0.411-0.144-0.719-0.432-0.92c-0.287-0.203-0.648-0.304-1.084-0.304
			c-0.428,0-0.803,0.091-1.125,0.274c-0.322,0.182-0.573,0.437-0.752,0.764l-0.63-0.653c0.101-0.194,0.239-0.371,0.414-0.53
			c0.175-0.16,0.377-0.298,0.606-0.414c0.229-0.117,0.479-0.206,0.746-0.269c0.268-0.062,0.55-0.093,0.846-0.093
			c0.365,0,0.701,0.051,1.008,0.151c0.308,0.101,0.572,0.241,0.793,0.419c0.223,0.18,0.393,0.396,0.514,0.654
			c0.12,0.256,0.181,0.539,0.181,0.851c0,0.233-0.033,0.454-0.099,0.665c-0.066,0.209-0.164,0.4-0.292,0.57
			c-0.128,0.172-0.284,0.313-0.466,0.426C332.931,115.564,332.727,115.64,332.501,115.678z"/>
	</g>
	<g>
		<g>
			<path fill="#F0AD4E" d="M309.354,93.598c0,0,0.105,1.65,0.266,4.126c0.129,2.475,0.227,5.775,0.225,9.076
				c0.003,3.301-0.092,6.602-0.221,9.076c-0.159,2.476-0.266,4.126-0.266,4.126h-2.027c0,0-0.106-1.65-0.266-4.126
				c-0.129-2.475-0.224-5.775-0.221-9.076c-0.002-3.301,0.096-6.602,0.225-9.076c0.16-2.476,0.266-4.126,0.266-4.126H309.354z"/>
			<g>
				<polygon fill="#F0AD4E" points="308.345,85.125 303.466,97.065 308.345,94.232 313.222,97.065 				"/>
			</g>
			<g>
				<polygon fill="#F0AD4E" points="308.345,128.475 303.466,116.536 308.345,119.369 313.222,116.536 				"/>
			</g>
		</g>
	</g>
	<g>
	</g>
	<g>
	</g>
	<g>
	</g>
	<g>
	</g>
	<g>
	</g>
	<g>
	</g>
	<g>
	</g>
</g>
</svg>
