<?xml version="1.0" encoding="utf-8" standalone="no"?>
<!DOCTYPE svg PUBLIC "-//W3C//DTD SVG 1.1//EN"
  "http://www.w3.org/Graphics/SVG/1.1/DTD/svg11.dtd">
<!-- Created with matplotlib (http://matplotlib.org/) -->
<svg height="288pt" version="1.1" viewBox="0 0 432 288" width="432pt" xmlns="http://www.w3.org/2000/svg" xmlns:xlink="http://www.w3.org/1999/xlink">
 <defs>
  <style type="text/css">
*{stroke-linecap:butt;stroke-linejoin:round;}
  </style>
 </defs>
 <g id="figure_1">
  <g id="patch_1">
   <path d="M 0 288 
L 432 288 
L 432 0 
L 0 0 
z
" style="fill:none;"/>
  </g>
  <g id="axes_1">
   <g id="patch_2">
    <path d="M 64.8 244.8 
L 419.04 244.8 
L 419.04 43.2 
L 64.8 43.2 
z
" style="fill:none;"/>
   </g>
   <g id="matplotlib.axis_1">
    <g id="xtick_1">
     <g id="line2d_1">
      <defs>
       <path d="M 0 0 
L 0 4 
" id="m38d3a427bd" style="stroke:#d2d2d2;"/>
      </defs>
      <g>
       <use style="fill:#d2d2d2;stroke:#d2d2d2;" x="64.8" xlink:href="#m38d3a427bd" y="244.8"/>
      </g>
     </g>
     <g id="text_1">
      <!-- 0 -->
      <defs>
       <path d="M 31.78125 66.40625 
Q 24.171875 66.40625 20.328125 58.90625 
Q 16.5 51.421875 16.5 36.375 
Q 16.5 21.390625 20.328125 13.890625 
Q 24.171875 6.390625 31.78125 6.390625 
Q 39.453125 6.390625 43.28125 13.890625 
Q 47.125 21.390625 47.125 36.375 
Q 47.125 51.421875 43.28125 58.90625 
Q 39.453125 66.40625 31.78125 66.40625 
M 31.78125 74.21875 
Q 44.046875 74.21875 50.515625 64.515625 
Q 56.984375 54.828125 56.984375 36.375 
Q 56.984375 17.96875 50.515625 8.265625 
Q 44.046875 -1.421875 31.78125 -1.421875 
Q 19.53125 -1.421875 13.0625 8.265625 
Q 6.59375 17.96875 6.59375 36.375 
Q 6.59375 54.828125 13.0625 64.515625 
Q 19.53125 74.21875 31.78125 74.21875 
" id="DejaVuSans-30"/>
      </defs>
      <g style="fill:#d2d2d2;" transform="translate(60.664375 262.677969)scale(0.13 -0.13)">
       <use xlink:href="#DejaVuSans-30"/>
      </g>
     </g>
    </g>
    <g id="xtick_2">
     <g id="line2d_2">
      <g>
       <use style="fill:#d2d2d2;stroke:#d2d2d2;" x="138.6" xlink:href="#m38d3a427bd" y="244.8"/>
      </g>
     </g>
     <g id="text_2">
      <!-- 5 -->
      <defs>
       <path d="M 10.796875 72.90625 
L 49.515625 72.90625 
L 49.515625 64.59375 
L 19.828125 64.59375 
L 19.828125 46.734375 
Q 21.96875 47.46875 24.109375 47.828125 
Q 26.265625 48.1875 28.421875 48.1875 
Q 40.625 48.1875 47.75 41.5 
Q 54.890625 34.8125 54.890625 23.390625 
Q 54.890625 11.625 47.5625 5.09375 
Q 40.234375 -1.421875 26.90625 -1.421875 
Q 22.3125 -1.421875 17.546875 -0.640625 
Q 12.796875 0.140625 7.71875 1.703125 
L 7.71875 11.625 
Q 12.109375 9.234375 16.796875 8.0625 
Q 21.484375 6.890625 26.703125 6.890625 
Q 35.15625 6.890625 40.078125 11.328125 
Q 45.015625 15.765625 45.015625 23.390625 
Q 45.015625 31 40.078125 35.4375 
Q 35.15625 39.890625 26.703125 39.890625 
Q 22.75 39.890625 18.8125 39.015625 
Q 14.890625 38.140625 10.796875 36.28125 
z
" id="DejaVuSans-35"/>
      </defs>
      <g style="fill:#d2d2d2;" transform="translate(134.464375 262.677969)scale(0.13 -0.13)">
       <use xlink:href="#DejaVuSans-35"/>
      </g>
     </g>
    </g>
    <g id="xtick_3">
     <g id="line2d_3">
      <g>
       <use style="fill:#d2d2d2;stroke:#d2d2d2;" x="212.4" xlink:href="#m38d3a427bd" y="244.8"/>
      </g>
     </g>
     <g id="text_3">
      <!-- 10 -->
      <defs>
       <path d="M 12.40625 8.296875 
L 28.515625 8.296875 
L 28.515625 63.921875 
L 10.984375 60.40625 
L 10.984375 69.390625 
L 28.421875 72.90625 
L 38.28125 72.90625 
L 38.28125 8.296875 
L 54.390625 8.296875 
L 54.390625 0 
L 12.40625 0 
z
" id="DejaVuSans-31"/>
      </defs>
      <g style="fill:#d2d2d2;" transform="translate(204.12875 262.677969)scale(0.13 -0.13)">
       <use xlink:href="#DejaVuSans-31"/>
       <use x="63.623047" xlink:href="#DejaVuSans-30"/>
      </g>
     </g>
    </g>
    <g id="xtick_4">
     <g id="line2d_4">
      <g>
       <use style="fill:#d2d2d2;stroke:#d2d2d2;" x="286.2" xlink:href="#m38d3a427bd" y="244.8"/>
      </g>
     </g>
     <g id="text_4">
      <!-- 15 -->
      <g style="fill:#d2d2d2;" transform="translate(277.92875 262.677969)scale(0.13 -0.13)">
       <use xlink:href="#DejaVuSans-31"/>
       <use x="63.623047" xlink:href="#DejaVuSans-35"/>
      </g>
     </g>
    </g>
    <g id="xtick_5">
     <g id="line2d_5">
      <g>
       <use style="fill:#d2d2d2;stroke:#d2d2d2;" x="360" xlink:href="#m38d3a427bd" y="244.8"/>
      </g>
     </g>
     <g id="text_5">
      <!-- 20 -->
      <defs>
       <path d="M 19.1875 8.296875 
L 53.609375 8.296875 
L 53.609375 0 
L 7.328125 0 
L 7.328125 8.296875 
Q 12.9375 14.109375 22.625 23.890625 
Q 32.328125 33.6875 34.8125 36.53125 
Q 39.546875 41.84375 41.421875 45.53125 
Q 43.3125 49.21875 43.3125 52.78125 
Q 43.3125 58.59375 39.234375 62.25 
Q 35.15625 65.921875 28.609375 65.921875 
Q 23.96875 65.921875 18.8125 64.3125 
Q 13.671875 62.703125 7.8125 59.421875 
L 7.8125 69.390625 
Q 13.765625 71.78125 18.9375 73 
Q 24.125 74.21875 28.421875 74.21875 
Q 39.75 74.21875 46.484375 68.546875 
Q 53.21875 62.890625 53.21875 53.421875 
Q 53.21875 48.921875 51.53125 44.890625 
Q 49.859375 40.875 45.40625 35.40625 
Q 44.1875 33.984375 37.640625 27.21875 
Q 31.109375 20.453125 19.1875 8.296875 
" id="DejaVuSans-32"/>
      </defs>
      <g style="fill:#d2d2d2;" transform="translate(351.72875 262.677969)scale(0.13 -0.13)">
       <use xlink:href="#DejaVuSans-32"/>
       <use x="63.623047" xlink:href="#DejaVuSans-30"/>
      </g>
     </g>
    </g>
    <g id="text_6">
     <!-- $\chi^2$ -->
     <defs>
      <path d="M 30.03125 -12.203125 
L 26.421875 6.5 
L 6.15625 -20.84375 
L -4.4375 -20.84375 
L 24.265625 17.828125 
L 19.828125 40.828125 
Q 18.65625 46.96875 11.140625 46.96875 
L 8.734375 46.96875 
L 10.203125 54.6875 
L 13.625 54.59375 
Q 26.171875 54.25 27.734375 46.09375 
L 31.34375 27.390625 
L 51.609375 54.734375 
L 62.203125 54.734375 
L 33.5 16.0625 
L 37.9375 -6.9375 
Q 39.109375 -13.09375 46.625 -13.09375 
L 49.03125 -13.09375 
L 47.5625 -20.796875 
L 44.140625 -20.703125 
Q 31.59375 -20.359375 30.03125 -12.203125 
" id="DejaVuSans-Oblique-3c7"/>
     </defs>
     <g style="fill:#d2d2d2;" transform="translate(233.04 283.941563)scale(0.16 -0.16)">
      <use transform="translate(0 0.765625)" xlink:href="#DejaVuSans-Oblique-3c7"/>
      <use transform="translate(63.652396 39.046875)scale(0.7)" xlink:href="#DejaVuSans-32"/>
     </g>
    </g>
   </g>
   <g id="matplotlib.axis_2">
    <g id="ytick_1">
     <g id="line2d_6">
      <defs>
       <path d="M 0 0 
L -4 0 
" id="m4829e679a3" style="stroke:#d2d2d2;"/>
      </defs>
      <g>
       <use style="fill:#d2d2d2;stroke:#d2d2d2;" x="64.8" xlink:href="#m4829e679a3" y="244.8"/>
      </g>
     </g>
     <g id="text_7">
      <!-- 0.0 -->
      <defs>
       <path d="M 10.6875 12.40625 
L 21 12.40625 
L 21 0 
L 10.6875 0 
z
" id="DejaVuSans-2e"/>
      </defs>
      <g style="fill:#d2d2d2;" transform="translate(36.125937 249.738984)scale(0.13 -0.13)">
       <use xlink:href="#DejaVuSans-30"/>
       <use x="63.623047" xlink:href="#DejaVuSans-2e"/>
       <use x="95.410156" xlink:href="#DejaVuSans-30"/>
      </g>
     </g>
    </g>
    <g id="ytick_2">
     <g id="line2d_7">
      <g>
       <use style="fill:#d2d2d2;stroke:#d2d2d2;" x="64.8" xlink:href="#m4829e679a3" y="206.399993"/>
      </g>
     </g>
     <g id="text_8">
      <!-- 0.1 -->
      <g style="fill:#d2d2d2;" transform="translate(36.125937 211.338978)scale(0.13 -0.13)">
       <use xlink:href="#DejaVuSans-30"/>
       <use x="63.623047" xlink:href="#DejaVuSans-2e"/>
       <use x="95.410156" xlink:href="#DejaVuSans-31"/>
      </g>
     </g>
    </g>
    <g id="ytick_3">
     <g id="line2d_8">
      <g>
       <use style="fill:#d2d2d2;stroke:#d2d2d2;" x="64.8" xlink:href="#m4829e679a3" y="167.999986"/>
      </g>
     </g>
     <g id="text_9">
      <!-- 0.2 -->
      <g style="fill:#d2d2d2;" transform="translate(36.125937 172.938971)scale(0.13 -0.13)">
       <use xlink:href="#DejaVuSans-30"/>
       <use x="63.623047" xlink:href="#DejaVuSans-2e"/>
       <use x="95.410156" xlink:href="#DejaVuSans-32"/>
      </g>
     </g>
    </g>
    <g id="ytick_4">
     <g id="line2d_9">
      <g>
       <use style="fill:#d2d2d2;stroke:#d2d2d2;" x="64.8" xlink:href="#m4829e679a3" y="129.59998"/>
      </g>
     </g>
     <g id="text_10">
      <!-- 0.3 -->
      <defs>
       <path d="M 40.578125 39.3125 
Q 47.65625 37.796875 51.625 33 
Q 55.609375 28.21875 55.609375 21.1875 
Q 55.609375 10.40625 48.1875 4.484375 
Q 40.765625 -1.421875 27.09375 -1.421875 
Q 22.515625 -1.421875 17.65625 -0.515625 
Q 12.796875 0.390625 7.625 2.203125 
L 7.625 11.71875 
Q 11.71875 9.328125 16.59375 8.109375 
Q 21.484375 6.890625 26.8125 6.890625 
Q 36.078125 6.890625 40.9375 10.546875 
Q 45.796875 14.203125 45.796875 21.1875 
Q 45.796875 27.640625 41.28125 31.265625 
Q 36.765625 34.90625 28.71875 34.90625 
L 20.21875 34.90625 
L 20.21875 43.015625 
L 29.109375 43.015625 
Q 36.375 43.015625 40.234375 45.921875 
Q 44.09375 48.828125 44.09375 54.296875 
Q 44.09375 59.90625 40.109375 62.90625 
Q 36.140625 65.921875 28.71875 65.921875 
Q 24.65625 65.921875 20.015625 65.03125 
Q 15.375 64.15625 9.8125 62.3125 
L 9.8125 71.09375 
Q 15.4375 72.65625 20.34375 73.4375 
Q 25.25 74.21875 29.59375 74.21875 
Q 40.828125 74.21875 47.359375 69.109375 
Q 53.90625 64.015625 53.90625 55.328125 
Q 53.90625 49.265625 50.4375 45.09375 
Q 46.96875 40.921875 40.578125 39.3125 
" id="DejaVuSans-33"/>
      </defs>
      <g style="fill:#d2d2d2;" transform="translate(36.125937 134.538964)scale(0.13 -0.13)">
       <use xlink:href="#DejaVuSans-30"/>
       <use x="63.623047" xlink:href="#DejaVuSans-2e"/>
       <use x="95.410156" xlink:href="#DejaVuSans-33"/>
      </g>
     </g>
    </g>
    <g id="ytick_5">
     <g id="line2d_10">
      <g>
       <use style="fill:#d2d2d2;stroke:#d2d2d2;" x="64.8" xlink:href="#m4829e679a3" y="91.199973"/>
      </g>
     </g>
     <g id="text_11">
      <!-- 0.4 -->
      <defs>
       <path d="M 37.796875 64.3125 
L 12.890625 25.390625 
L 37.796875 25.390625 
z
M 35.203125 72.90625 
L 47.609375 72.90625 
L 47.609375 25.390625 
L 58.015625 25.390625 
L 58.015625 17.1875 
L 47.609375 17.1875 
L 47.609375 0 
L 37.796875 0 
L 37.796875 17.1875 
L 4.890625 17.1875 
L 4.890625 26.703125 
z
" id="DejaVuSans-34"/>
      </defs>
      <g style="fill:#d2d2d2;" transform="translate(36.125937 96.138957)scale(0.13 -0.13)">
       <use xlink:href="#DejaVuSans-30"/>
       <use x="63.623047" xlink:href="#DejaVuSans-2e"/>
       <use x="95.410156" xlink:href="#DejaVuSans-34"/>
      </g>
     </g>
    </g>
    <g id="ytick_6">
     <g id="line2d_11">
      <g>
       <use style="fill:#d2d2d2;stroke:#d2d2d2;" x="64.8" xlink:href="#m4829e679a3" y="52.799966"/>
      </g>
     </g>
     <g id="text_12">
      <!-- 0.5 -->
      <g style="fill:#d2d2d2;" transform="translate(36.125937 57.73895)scale(0.13 -0.13)">
       <use xlink:href="#DejaVuSans-30"/>
       <use x="63.623047" xlink:href="#DejaVuSans-2e"/>
       <use x="95.410156" xlink:href="#DejaVuSans-35"/>
      </g>
     </g>
    </g>
    <g id="text_13">
     <!-- Relative frequency -->
     <defs>
      <path d="M 44.390625 34.1875 
Q 47.5625 33.109375 50.5625 29.59375 
Q 53.5625 26.078125 56.59375 19.921875 
L 66.609375 0 
L 56 0 
L 46.6875 18.703125 
Q 43.0625 26.03125 39.671875 28.421875 
Q 36.28125 30.8125 30.421875 30.8125 
L 19.671875 30.8125 
L 19.671875 0 
L 9.8125 0 
L 9.8125 72.90625 
L 32.078125 72.90625 
Q 44.578125 72.90625 50.734375 67.671875 
Q 56.890625 62.453125 56.890625 51.90625 
Q 56.890625 45.015625 53.6875 40.46875 
Q 50.484375 35.9375 44.390625 34.1875 
M 19.671875 64.796875 
L 19.671875 38.921875 
L 32.078125 38.921875 
Q 39.203125 38.921875 42.84375 42.21875 
Q 46.484375 45.515625 46.484375 51.90625 
Q 46.484375 58.296875 42.84375 61.546875 
Q 39.203125 64.796875 32.078125 64.796875 
z
" id="DejaVuSans-52"/>
      <path d="M 56.203125 29.59375 
L 56.203125 25.203125 
L 14.890625 25.203125 
Q 15.484375 15.921875 20.484375 11.0625 
Q 25.484375 6.203125 34.421875 6.203125 
Q 39.59375 6.203125 44.453125 7.46875 
Q 49.3125 8.734375 54.109375 11.28125 
L 54.109375 2.78125 
Q 49.265625 0.734375 44.1875 -0.34375 
Q 39.109375 -1.421875 33.890625 -1.421875 
Q 20.796875 -1.421875 13.15625 6.1875 
Q 5.515625 13.8125 5.515625 26.8125 
Q 5.515625 40.234375 12.765625 48.109375 
Q 20.015625 56 32.328125 56 
Q 43.359375 56 49.78125 48.890625 
Q 56.203125 41.796875 56.203125 29.59375 
M 47.21875 32.234375 
Q 47.125 39.59375 43.09375 43.984375 
Q 39.0625 48.390625 32.421875 48.390625 
Q 24.90625 48.390625 20.390625 44.140625 
Q 15.875 39.890625 15.1875 32.171875 
z
" id="DejaVuSans-65"/>
      <path d="M 9.421875 75.984375 
L 18.40625 75.984375 
L 18.40625 0 
L 9.421875 0 
z
" id="DejaVuSans-6c"/>
      <path d="M 34.28125 27.484375 
Q 23.390625 27.484375 19.1875 25 
Q 14.984375 22.515625 14.984375 16.5 
Q 14.984375 11.71875 18.140625 8.90625 
Q 21.296875 6.109375 26.703125 6.109375 
Q 34.1875 6.109375 38.703125 11.40625 
Q 43.21875 16.703125 43.21875 25.484375 
L 43.21875 27.484375 
z
M 52.203125 31.203125 
L 52.203125 0 
L 43.21875 0 
L 43.21875 8.296875 
Q 40.140625 3.328125 35.546875 0.953125 
Q 30.953125 -1.421875 24.3125 -1.421875 
Q 15.921875 -1.421875 10.953125 3.296875 
Q 6 8.015625 6 15.921875 
Q 6 25.140625 12.171875 29.828125 
Q 18.359375 34.515625 30.609375 34.515625 
L 43.21875 34.515625 
L 43.21875 35.40625 
Q 43.21875 41.609375 39.140625 45 
Q 35.0625 48.390625 27.6875 48.390625 
Q 23 48.390625 18.546875 47.265625 
Q 14.109375 46.140625 10.015625 43.890625 
L 10.015625 52.203125 
Q 14.9375 54.109375 19.578125 55.046875 
Q 24.21875 56 28.609375 56 
Q 40.484375 56 46.34375 49.84375 
Q 52.203125 43.703125 52.203125 31.203125 
" id="DejaVuSans-61"/>
      <path d="M 18.3125 70.21875 
L 18.3125 54.6875 
L 36.8125 54.6875 
L 36.8125 47.703125 
L 18.3125 47.703125 
L 18.3125 18.015625 
Q 18.3125 11.328125 20.140625 9.421875 
Q 21.96875 7.515625 27.59375 7.515625 
L 36.8125 7.515625 
L 36.8125 0 
L 27.59375 0 
Q 17.1875 0 13.234375 3.875 
Q 9.28125 7.765625 9.28125 18.015625 
L 9.28125 47.703125 
L 2.6875 47.703125 
L 2.6875 54.6875 
L 9.28125 54.6875 
L 9.28125 70.21875 
z
" id="DejaVuSans-74"/>
      <path d="M 9.421875 54.6875 
L 18.40625 54.6875 
L 18.40625 0 
L 9.421875 0 
z
M 9.421875 75.984375 
L 18.40625 75.984375 
L 18.40625 64.59375 
L 9.421875 64.59375 
z
" id="DejaVuSans-69"/>
      <path d="M 2.984375 54.6875 
L 12.5 54.6875 
L 29.59375 8.796875 
L 46.6875 54.6875 
L 56.203125 54.6875 
L 35.6875 0 
L 23.484375 0 
z
" id="DejaVuSans-76"/>
      <path id="DejaVuSans-20"/>
      <path d="M 37.109375 75.984375 
L 37.109375 68.5 
L 28.515625 68.5 
Q 23.6875 68.5 21.796875 66.546875 
Q 19.921875 64.59375 19.921875 59.515625 
L 19.921875 54.6875 
L 34.71875 54.6875 
L 34.71875 47.703125 
L 19.921875 47.703125 
L 19.921875 0 
L 10.890625 0 
L 10.890625 47.703125 
L 2.296875 47.703125 
L 2.296875 54.6875 
L 10.890625 54.6875 
L 10.890625 58.5 
Q 10.890625 67.625 15.140625 71.796875 
Q 19.390625 75.984375 28.609375 75.984375 
z
" id="DejaVuSans-66"/>
      <path d="M 41.109375 46.296875 
Q 39.59375 47.171875 37.8125 47.578125 
Q 36.03125 48 33.890625 48 
Q 26.265625 48 22.1875 43.046875 
Q 18.109375 38.09375 18.109375 28.8125 
L 18.109375 0 
L 9.078125 0 
L 9.078125 54.6875 
L 18.109375 54.6875 
L 18.109375 46.1875 
Q 20.953125 51.171875 25.484375 53.578125 
Q 30.03125 56 36.53125 56 
Q 37.453125 56 38.578125 55.875 
Q 39.703125 55.765625 41.0625 55.515625 
z
" id="DejaVuSans-72"/>
      <path d="M 14.796875 27.296875 
Q 14.796875 17.390625 18.875 11.75 
Q 22.953125 6.109375 30.078125 6.109375 
Q 37.203125 6.109375 41.296875 11.75 
Q 45.40625 17.390625 45.40625 27.296875 
Q 45.40625 37.203125 41.296875 42.84375 
Q 37.203125 48.484375 30.078125 48.484375 
Q 22.953125 48.484375 18.875 42.84375 
Q 14.796875 37.203125 14.796875 27.296875 
M 45.40625 8.203125 
Q 42.578125 3.328125 38.25 0.953125 
Q 33.9375 -1.421875 27.875 -1.421875 
Q 17.96875 -1.421875 11.734375 6.484375 
Q 5.515625 14.40625 5.515625 27.296875 
Q 5.515625 40.1875 11.734375 48.09375 
Q 17.96875 56 27.875 56 
Q 33.9375 56 38.25 53.625 
Q 42.578125 51.265625 45.40625 46.390625 
L 45.40625 54.6875 
L 54.390625 54.6875 
L 54.390625 -20.796875 
L 45.40625 -20.796875 
z
" id="DejaVuSans-71"/>
      <path d="M 8.5 21.578125 
L 8.5 54.6875 
L 17.484375 54.6875 
L 17.484375 21.921875 
Q 17.484375 14.15625 20.5 10.265625 
Q 23.53125 6.390625 29.59375 6.390625 
Q 36.859375 6.390625 41.078125 11.03125 
Q 45.3125 15.671875 45.3125 23.6875 
L 45.3125 54.6875 
L 54.296875 54.6875 
L 54.296875 0 
L 45.3125 0 
L 45.3125 8.40625 
Q 42.046875 3.421875 37.71875 1 
Q 33.40625 -1.421875 27.6875 -1.421875 
Q 18.265625 -1.421875 13.375 4.4375 
Q 8.5 10.296875 8.5 21.578125 
M 31.109375 56 
z
" id="DejaVuSans-75"/>
      <path d="M 54.890625 33.015625 
L 54.890625 0 
L 45.90625 0 
L 45.90625 32.71875 
Q 45.90625 40.484375 42.875 44.328125 
Q 39.84375 48.1875 33.796875 48.1875 
Q 26.515625 48.1875 22.3125 43.546875 
Q 18.109375 38.921875 18.109375 30.90625 
L 18.109375 0 
L 9.078125 0 
L 9.078125 54.6875 
L 18.109375 54.6875 
L 18.109375 46.1875 
Q 21.34375 51.125 25.703125 53.5625 
Q 30.078125 56 35.796875 56 
Q 45.21875 56 50.046875 50.171875 
Q 54.890625 44.34375 54.890625 33.015625 
" id="DejaVuSans-6e"/>
      <path d="M 48.78125 52.59375 
L 48.78125 44.1875 
Q 44.96875 46.296875 41.140625 47.34375 
Q 37.3125 48.390625 33.40625 48.390625 
Q 24.65625 48.390625 19.8125 42.84375 
Q 14.984375 37.3125 14.984375 27.296875 
Q 14.984375 17.28125 19.8125 11.734375 
Q 24.65625 6.203125 33.40625 6.203125 
Q 37.3125 6.203125 41.140625 7.25 
Q 44.96875 8.296875 48.78125 10.40625 
L 48.78125 2.09375 
Q 45.015625 0.34375 40.984375 -0.53125 
Q 36.96875 -1.421875 32.421875 -1.421875 
Q 20.0625 -1.421875 12.78125 6.34375 
Q 5.515625 14.109375 5.515625 27.296875 
Q 5.515625 40.671875 12.859375 48.328125 
Q 20.21875 56 33.015625 56 
Q 37.15625 56 41.109375 55.140625 
Q 45.0625 54.296875 48.78125 52.59375 
" id="DejaVuSans-63"/>
      <path d="M 32.171875 -5.078125 
Q 28.375 -14.84375 24.75 -17.8125 
Q 21.140625 -20.796875 15.09375 -20.796875 
L 7.90625 -20.796875 
L 7.90625 -13.28125 
L 13.1875 -13.28125 
Q 16.890625 -13.28125 18.9375 -11.515625 
Q 21 -9.765625 23.484375 -3.21875 
L 25.09375 0.875 
L 2.984375 54.6875 
L 12.5 54.6875 
L 29.59375 11.921875 
L 46.6875 54.6875 
L 56.203125 54.6875 
z
" id="DejaVuSans-79"/>
     </defs>
     <g style="fill:#d2d2d2;" transform="translate(28.798437 219.46)rotate(-90)scale(0.16 -0.16)">
      <use xlink:href="#DejaVuSans-52"/>
      <use x="69.419922" xlink:href="#DejaVuSans-65"/>
      <use x="130.943359" xlink:href="#DejaVuSans-6c"/>
      <use x="158.726562" xlink:href="#DejaVuSans-61"/>
      <use x="220.005859" xlink:href="#DejaVuSans-74"/>
      <use x="259.214844" xlink:href="#DejaVuSans-69"/>
      <use x="286.998047" xlink:href="#DejaVuSans-76"/>
      <use x="346.177734" xlink:href="#DejaVuSans-65"/>
      <use x="407.701172" xlink:href="#DejaVuSans-20"/>
      <use x="439.488281" xlink:href="#DejaVuSans-66"/>
      <use x="474.693359" xlink:href="#DejaVuSans-72"/>
      <use x="515.775391" xlink:href="#DejaVuSans-65"/>
      <use x="577.298828" xlink:href="#DejaVuSans-71"/>
      <use x="640.775391" xlink:href="#DejaVuSans-75"/>
      <use x="704.154297" xlink:href="#DejaVuSans-65"/>
      <use x="765.677734" xlink:href="#DejaVuSans-6e"/>
      <use x="829.056641" xlink:href="#DejaVuSans-63"/>
      <use x="884.037109" xlink:href="#DejaVuSans-79"/>
     </g>
    </g>
   </g>
   <g id="line2d_12">
    <path clip-path="url(#p5153a7481d)" d="M 64.8 52.799966 
L 66.034114 60.661254 
L 67.268227 68.200667 
L 69.736455 82.366048 
L 72.204682 95.395196 
L 74.67291 107.37925 
L 77.141137 118.402039 
L 79.609365 128.540669 
L 82.077592 137.866059 
L 84.545819 146.443441 
L 87.014047 154.332815 
L 89.482274 161.589366 
L 91.950502 168.263855 
L 94.418729 174.40297 
L 96.886957 180.049655 
L 99.355184 185.243408 
L 101.823411 190.02056 
L 104.291639 194.414527 
L 106.759866 198.456045 
L 109.228094 202.173385 
L 111.696321 205.59255 
L 114.164548 208.737457 
L 116.632776 211.630104 
L 120.335117 215.539905 
L 124.037458 218.98885 
L 127.739799 222.03126 
L 131.44214 224.715056 
L 135.144482 227.082508 
L 138.846823 229.170903 
L 142.549164 231.013136 
L 146.251505 232.63822 
L 151.18796 234.511013 
L 156.124415 236.095414 
L 161.06087 237.435833 
L 165.997324 238.569841 
L 172.167893 239.745031 
L 178.338462 240.698545 
L 185.743144 241.608454 
L 194.38194 242.418183 
L 204.254849 243.095255 
L 215.361873 243.629816 
L 228.937124 244.061183 
L 247.448829 244.405366 
L 273.365217 244.635973 
L 316.559197 244.762029 
L 433 244.799265 
L 433 244.799265 
" style="fill:none;stroke:#5bc0de;stroke-linecap:square;stroke-width:2;"/>
   </g>
   <g id="patch_3">
    <path d="M 64.8 244.8 
L 64.8 43.2 
" style="fill:none;stroke:#d2d2d2;stroke-linecap:square;stroke-linejoin:miter;"/>
   </g>
   <g id="patch_4">
    <path d="M 64.8 244.8 
L 419.04 244.8 
" style="fill:none;stroke:#d2d2d2;stroke-linecap:square;stroke-linejoin:miter;"/>
   </g>
   <g id="legend_1">
    <g id="line2d_13">
     <path d="M 320.4625 64.1575 
L 352.4625 64.1575 
" style="fill:none;stroke:#5bc0de;stroke-linecap:square;stroke-width:2;"/>
    </g>
    <g id="line2d_14"/>
    <g id="text_14">
     <!-- df=2 -->
     <defs>
      <path d="M 45.40625 46.390625 
L 45.40625 75.984375 
L 54.390625 75.984375 
L 54.390625 0 
L 45.40625 0 
L 45.40625 8.203125 
Q 42.578125 3.328125 38.25 0.953125 
Q 33.9375 -1.421875 27.875 -1.421875 
Q 17.96875 -1.421875 11.734375 6.484375 
Q 5.515625 14.40625 5.515625 27.296875 
Q 5.515625 40.1875 11.734375 48.09375 
Q 17.96875 56 27.875 56 
Q 33.9375 56 38.25 53.625 
Q 42.578125 51.265625 45.40625 46.390625 
M 14.796875 27.296875 
Q 14.796875 17.390625 18.875 11.75 
Q 22.953125 6.109375 30.078125 6.109375 
Q 37.203125 6.109375 41.296875 11.75 
Q 45.40625 17.390625 45.40625 27.296875 
Q 45.40625 37.203125 41.296875 42.84375 
Q 37.203125 48.484375 30.078125 48.484375 
Q 22.953125 48.484375 18.875 42.84375 
Q 14.796875 37.203125 14.796875 27.296875 
" id="DejaVuSans-64"/>
      <path d="M 10.59375 45.40625 
L 73.1875 45.40625 
L 73.1875 37.203125 
L 10.59375 37.203125 
z
M 10.59375 25.484375 
L 73.1875 25.484375 
L 73.1875 17.1875 
L 10.59375 17.1875 
z
" id="DejaVuSans-3d"/>
     </defs>
     <g style="fill:#d2d2d2;" transform="translate(365.2625 69.7575)scale(0.16 -0.16)">
      <use xlink:href="#DejaVuSans-64"/>
      <use x="63.476562" xlink:href="#DejaVuSans-66"/>
      <use x="98.681641" xlink:href="#DejaVuSans-3d"/>
      <use x="182.470703" xlink:href="#DejaVuSans-32"/>
     </g>
    </g>
   </g>
  </g>
  <g id="axes_2">
   <g id="PolyCollection_1">
    <defs>
     <path d="M 174.63612 -43.2 
L 174.63612 -47.8495 
L 175.870234 -47.65913 
L 177.104348 -47.476555 
L 178.338462 -47.301455 
L 179.572575 -47.133524 
L 180.806689 -46.972469 
L 182.040803 -46.818008 
L 183.274916 -46.669872 
L 184.50903 -46.527801 
L 185.743144 -46.391546 
L 186.977258 -46.260871 
L 188.211371 -46.135546 
L 189.445485 -46.015353 
L 190.679599 -45.90008 
L 191.913712 -45.789528 
L 193.147826 -45.683502 
L 194.38194 -45.581817 
L 195.616054 -45.484295 
L 196.850167 -45.390766 
L 198.084281 -45.301067 
L 199.318395 -45.215041 
L 200.552508 -45.132536 
L 201.786622 -45.05341 
L 203.020736 -44.977524 
L 204.254849 -44.904745 
L 205.488963 -44.834945 
L 206.723077 -44.768004 
L 207.957191 -44.703803 
L 209.191304 -44.642231 
L 210.425418 -44.58318 
L 211.659532 -44.526547 
L 212.893645 -44.472232 
L 214.127759 -44.420142 
L 215.361873 -44.370184 
L 216.595987 -44.322272 
L 217.8301 -44.276321 
L 219.064214 -44.232252 
L 220.298328 -44.189987 
L 221.532441 -44.149453 
L 222.766555 -44.110579 
L 224.000669 -44.073296 
L 225.234783 -44.037539 
L 226.468896 -44.003247 
L 227.70301 -43.970359 
L 228.937124 -43.938817 
L 230.171237 -43.908567 
L 231.405351 -43.879555 
L 232.639465 -43.851731 
L 233.873579 -43.825047 
L 235.107692 -43.799454 
L 236.341806 -43.77491 
L 237.57592 -43.751371 
L 238.810033 -43.728796 
L 240.044147 -43.707145 
L 241.278261 -43.68638 
L 242.512375 -43.666465 
L 243.746488 -43.647366 
L 244.980602 -43.629049 
L 246.214716 -43.611482 
L 247.448829 -43.594634 
L 248.682943 -43.578476 
L 249.917057 -43.56298 
L 251.151171 -43.548118 
L 252.385284 -43.533865 
L 253.619398 -43.520195 
L 254.853512 -43.507085 
L 256.087625 -43.494511 
L 257.321739 -43.482453 
L 258.555853 -43.470888 
L 259.789967 -43.459797 
L 261.02408 -43.44916 
L 262.258194 -43.438958 
L 263.492308 -43.429174 
L 264.726421 -43.419791 
L 265.960535 -43.410792 
L 267.194649 -43.402161 
L 268.428763 -43.393884 
L 269.662876 -43.385945 
L 270.89699 -43.378332 
L 272.131104 -43.37103 
L 273.365217 -43.364027 
L 274.599331 -43.357311 
L 275.833445 -43.35087 
L 277.067559 -43.344693 
L 278.301672 -43.338769 
L 279.535786 -43.333087 
L 280.7699 -43.327638 
L 282.004013 -43.322412 
L 283.238127 -43.3174 
L 284.472241 -43.312593 
L 285.706355 -43.307983 
L 286.940468 -43.303562 
L 288.174582 -43.299321 
L 289.408696 -43.295255 
L 290.642809 -43.291355 
L 291.876923 -43.287614 
L 293.111037 -43.284027 
L 294.345151 -43.280586 
L 295.579264 -43.277287 
L 296.813378 -43.274122 
L 298.047492 -43.271088 
L 299.281605 -43.268177 
L 300.515719 -43.265386 
L 301.749833 -43.262708 
L 302.983946 -43.260141 
L 304.21806 -43.257678 
L 305.452174 -43.255317 
L 306.686288 -43.253052 
L 307.920401 -43.25088 
L 309.154515 -43.248797 
L 310.388629 -43.246799 
L 311.622742 -43.244882 
L 312.856856 -43.243045 
L 314.09097 -43.241282 
L 315.325084 -43.239592 
L 316.559197 -43.237971 
L 317.793311 -43.236416 
L 319.027425 -43.234925 
L 320.261538 -43.233495 
L 321.495652 -43.232124 
L 322.729766 -43.230809 
L 323.96388 -43.229547 
L 325.197993 -43.228337 
L 326.432107 -43.227177 
L 327.666221 -43.226064 
L 328.900334 -43.224997 
L 330.134448 -43.223974 
L 331.368562 -43.222992 
L 332.602676 -43.222051 
L 333.836789 -43.221148 
L 335.070903 -43.220282 
L 336.305017 -43.219452 
L 337.53913 -43.218655 
L 338.773244 -43.217891 
L 340.007358 -43.217159 
L 341.241472 -43.216456 
L 342.475585 -43.215782 
L 343.709699 -43.215136 
L 344.943813 -43.214516 
L 346.177926 -43.213922 
L 347.41204 -43.213352 
L 348.646154 -43.212805 
L 349.880268 -43.212281 
L 351.114381 -43.211778 
L 352.348495 -43.211296 
L 353.582609 -43.210833 
L 354.816722 -43.21039 
L 356.050836 -43.209965 
L 357.28495 -43.209557 
L 358.519064 -43.209165 
L 359.753177 -43.20879 
L 360.987291 -43.20843 
L 362.221405 -43.208085 
L 363.455518 -43.207754 
L 364.689632 -43.207436 
L 365.923746 -43.207132 
L 367.15786 -43.20684 
L 368.391973 -43.20656 
L 369.626087 -43.206291 
L 370.860201 -43.206034 
L 372.094314 -43.205787 
L 373.328428 -43.20555 
L 374.562542 -43.205322 
L 375.796656 -43.205105 
L 377.030769 -43.204896 
L 378.264883 -43.204695 
L 379.498997 -43.204503 
L 380.73311 -43.204319 
L 381.967224 -43.204142 
L 383.201338 -43.203972 
L 384.435452 -43.203809 
L 385.669565 -43.203653 
L 386.903679 -43.203504 
L 388.137793 -43.20336 
L 389.371906 -43.203223 
L 390.60602 -43.203091 
L 391.840134 -43.202964 
L 393.074247 -43.202843 
L 394.308361 -43.202727 
L 395.542475 -43.202615 
L 396.776589 -43.202508 
L 398.010702 -43.202405 
L 399.244816 -43.202307 
L 400.47893 -43.202212 
L 401.713043 -43.202122 
L 402.947157 -43.202035 
L 404.181271 -43.201951 
L 405.415385 -43.201872 
L 406.649498 -43.201795 
L 407.883612 -43.201721 
L 409.117726 -43.201651 
L 410.351839 -43.201583 
L 411.585953 -43.201519 
L 412.820067 -43.201456 
L 414.054181 -43.201397 
L 415.288294 -43.20134 
L 416.522408 -43.201285 
L 417.756522 -43.201232 
L 418.990635 -43.201182 
L 420.224749 -43.201133 
L 421.458863 -43.201087 
L 422.692977 -43.201042 
L 423.92709 -43.201 
L 425.161204 -43.200959 
L 426.395318 -43.20092 
L 427.629431 -43.200882 
L 428.863545 -43.200846 
L 430.097659 -43.200811 
L 431.331773 -43.200778 
L 432.565886 -43.200746 
L 433.8 -43.200716 
L 433.8 -43.2 
L 433.8 -43.2 
L 432.565886 -43.2 
L 431.331773 -43.2 
L 430.097659 -43.2 
L 428.863545 -43.2 
L 427.629431 -43.2 
L 426.395318 -43.2 
L 425.161204 -43.2 
L 423.92709 -43.2 
L 422.692977 -43.2 
L 421.458863 -43.2 
L 420.224749 -43.2 
L 418.990635 -43.2 
L 417.756522 -43.2 
L 416.522408 -43.2 
L 415.288294 -43.2 
L 414.054181 -43.2 
L 412.820067 -43.2 
L 411.585953 -43.2 
L 410.351839 -43.2 
L 409.117726 -43.2 
L 407.883612 -43.2 
L 406.649498 -43.2 
L 405.415385 -43.2 
L 404.181271 -43.2 
L 402.947157 -43.2 
L 401.713043 -43.2 
L 400.47893 -43.2 
L 399.244816 -43.2 
L 398.010702 -43.2 
L 396.776589 -43.2 
L 395.542475 -43.2 
L 394.308361 -43.2 
L 393.074247 -43.2 
L 391.840134 -43.2 
L 390.60602 -43.2 
L 389.371906 -43.2 
L 388.137793 -43.2 
L 386.903679 -43.2 
L 385.669565 -43.2 
L 384.435452 -43.2 
L 383.201338 -43.2 
L 381.967224 -43.2 
L 380.73311 -43.2 
L 379.498997 -43.2 
L 378.264883 -43.2 
L 377.030769 -43.2 
L 375.796656 -43.2 
L 374.562542 -43.2 
L 373.328428 -43.2 
L 372.094314 -43.2 
L 370.860201 -43.2 
L 369.626087 -43.2 
L 368.391973 -43.2 
L 367.15786 -43.2 
L 365.923746 -43.2 
L 364.689632 -43.2 
L 363.455518 -43.2 
L 362.221405 -43.2 
L 360.987291 -43.2 
L 359.753177 -43.2 
L 358.519064 -43.2 
L 357.28495 -43.2 
L 356.050836 -43.2 
L 354.816722 -43.2 
L 353.582609 -43.2 
L 352.348495 -43.2 
L 351.114381 -43.2 
L 349.880268 -43.2 
L 348.646154 -43.2 
L 347.41204 -43.2 
L 346.177926 -43.2 
L 344.943813 -43.2 
L 343.709699 -43.2 
L 342.475585 -43.2 
L 341.241472 -43.2 
L 340.007358 -43.2 
L 338.773244 -43.2 
L 337.53913 -43.2 
L 336.305017 -43.2 
L 335.070903 -43.2 
L 333.836789 -43.2 
L 332.602676 -43.2 
L 331.368562 -43.2 
L 330.134448 -43.2 
L 328.900334 -43.2 
L 327.666221 -43.2 
L 326.432107 -43.2 
L 325.197993 -43.2 
L 323.96388 -43.2 
L 322.729766 -43.2 
L 321.495652 -43.2 
L 320.261538 -43.2 
L 319.027425 -43.2 
L 317.793311 -43.2 
L 316.559197 -43.2 
L 315.325084 -43.2 
L 314.09097 -43.2 
L 312.856856 -43.2 
L 311.622742 -43.2 
L 310.388629 -43.2 
L 309.154515 -43.2 
L 307.920401 -43.2 
L 306.686288 -43.2 
L 305.452174 -43.2 
L 304.21806 -43.2 
L 302.983946 -43.2 
L 301.749833 -43.2 
L 300.515719 -43.2 
L 299.281605 -43.2 
L 298.047492 -43.2 
L 296.813378 -43.2 
L 295.579264 -43.2 
L 294.345151 -43.2 
L 293.111037 -43.2 
L 291.876923 -43.2 
L 290.642809 -43.2 
L 289.408696 -43.2 
L 288.174582 -43.2 
L 286.940468 -43.2 
L 285.706355 -43.2 
L 284.472241 -43.2 
L 283.238127 -43.2 
L 282.004013 -43.2 
L 280.7699 -43.2 
L 279.535786 -43.2 
L 278.301672 -43.2 
L 277.067559 -43.2 
L 275.833445 -43.2 
L 274.599331 -43.2 
L 273.365217 -43.2 
L 272.131104 -43.2 
L 270.89699 -43.2 
L 269.662876 -43.2 
L 268.428763 -43.2 
L 267.194649 -43.2 
L 265.960535 -43.2 
L 264.726421 -43.2 
L 263.492308 -43.2 
L 262.258194 -43.2 
L 261.02408 -43.2 
L 259.789967 -43.2 
L 258.555853 -43.2 
L 257.321739 -43.2 
L 256.087625 -43.2 
L 254.853512 -43.2 
L 253.619398 -43.2 
L 252.385284 -43.2 
L 251.151171 -43.2 
L 249.917057 -43.2 
L 248.682943 -43.2 
L 247.448829 -43.2 
L 246.214716 -43.2 
L 244.980602 -43.2 
L 243.746488 -43.2 
L 242.512375 -43.2 
L 241.278261 -43.2 
L 240.044147 -43.2 
L 238.810033 -43.2 
L 237.57592 -43.2 
L 236.341806 -43.2 
L 235.107692 -43.2 
L 233.873579 -43.2 
L 232.639465 -43.2 
L 231.405351 -43.2 
L 230.171237 -43.2 
L 228.937124 -43.2 
L 227.70301 -43.2 
L 226.468896 -43.2 
L 225.234783 -43.2 
L 224.000669 -43.2 
L 222.766555 -43.2 
L 221.532441 -43.2 
L 220.298328 -43.2 
L 219.064214 -43.2 
L 217.8301 -43.2 
L 216.595987 -43.2 
L 215.361873 -43.2 
L 214.127759 -43.2 
L 212.893645 -43.2 
L 211.659532 -43.2 
L 210.425418 -43.2 
L 209.191304 -43.2 
L 207.957191 -43.2 
L 206.723077 -43.2 
L 205.488963 -43.2 
L 204.254849 -43.2 
L 203.020736 -43.2 
L 201.786622 -43.2 
L 200.552508 -43.2 
L 199.318395 -43.2 
L 198.084281 -43.2 
L 196.850167 -43.2 
L 195.616054 -43.2 
L 194.38194 -43.2 
L 193.147826 -43.2 
L 191.913712 -43.2 
L 190.679599 -43.2 
L 189.445485 -43.2 
L 188.211371 -43.2 
L 186.977258 -43.2 
L 185.743144 -43.2 
L 184.50903 -43.2 
L 183.274916 -43.2 
L 182.040803 -43.2 
L 180.806689 -43.2 
L 179.572575 -43.2 
L 178.338462 -43.2 
L 177.104348 -43.2 
L 175.870234 -43.2 
L 174.63612 -43.2 
z
" id="mff044e3970" style="stroke:#d9534f;stroke-opacity:0.6;"/>
    </defs>
    <g clip-path="url(#p5153a7481d)">
     <use style="fill:#d9534f;fill-opacity:0.6;stroke:#d9534f;stroke-opacity:0.6;" x="0" xlink:href="#mff044e3970" y="288"/>
    </g>
   </g>
   <g id="line2d_15">
    <path clip-path="url(#p5153a7481d)" d="M 173.814803 244.8 
L 173.814803 43.2 
" style="fill:none;stroke:#f0ad4e;stroke-linecap:square;stroke-width:1.5;"/>
   </g>
   <g id="text_15">
    <!-- Observed $\chi^2$ -->
    <defs>
     <path d="M 39.40625 66.21875 
Q 28.65625 66.21875 22.328125 58.203125 
Q 16.015625 50.203125 16.015625 36.375 
Q 16.015625 22.609375 22.328125 14.59375 
Q 28.65625 6.59375 39.40625 6.59375 
Q 50.140625 6.59375 56.421875 14.59375 
Q 62.703125 22.609375 62.703125 36.375 
Q 62.703125 50.203125 56.421875 58.203125 
Q 50.140625 66.21875 39.40625 66.21875 
M 39.40625 74.21875 
Q 54.734375 74.21875 63.90625 63.9375 
Q 73.09375 53.65625 73.09375 36.375 
Q 73.09375 19.140625 63.90625 8.859375 
Q 54.734375 -1.421875 39.40625 -1.421875 
Q 24.03125 -1.421875 14.8125 8.828125 
Q 5.609375 19.09375 5.609375 36.375 
Q 5.609375 53.65625 14.8125 63.9375 
Q 24.03125 74.21875 39.40625 74.21875 
" id="DejaVuSans-4f"/>
     <path d="M 48.6875 27.296875 
Q 48.6875 37.203125 44.609375 42.84375 
Q 40.53125 48.484375 33.40625 48.484375 
Q 26.265625 48.484375 22.1875 42.84375 
Q 18.109375 37.203125 18.109375 27.296875 
Q 18.109375 17.390625 22.1875 11.75 
Q 26.265625 6.109375 33.40625 6.109375 
Q 40.53125 6.109375 44.609375 11.75 
Q 48.6875 17.390625 48.6875 27.296875 
M 18.109375 46.390625 
Q 20.953125 51.265625 25.265625 53.625 
Q 29.59375 56 35.59375 56 
Q 45.5625 56 51.78125 48.09375 
Q 58.015625 40.1875 58.015625 27.296875 
Q 58.015625 14.40625 51.78125 6.484375 
Q 45.5625 -1.421875 35.59375 -1.421875 
Q 29.59375 -1.421875 25.265625 0.953125 
Q 20.953125 3.328125 18.109375 8.203125 
L 18.109375 0 
L 9.078125 0 
L 9.078125 75.984375 
L 18.109375 75.984375 
z
" id="DejaVuSans-62"/>
     <path d="M 44.28125 53.078125 
L 44.28125 44.578125 
Q 40.484375 46.53125 36.375 47.5 
Q 32.28125 48.484375 27.875 48.484375 
Q 21.1875 48.484375 17.84375 46.4375 
Q 14.5 44.390625 14.5 40.28125 
Q 14.5 37.15625 16.890625 35.375 
Q 19.28125 33.59375 26.515625 31.984375 
L 29.59375 31.296875 
Q 39.15625 29.25 43.1875 25.515625 
Q 47.21875 21.78125 47.21875 15.09375 
Q 47.21875 7.46875 41.1875 3.015625 
Q 35.15625 -1.421875 24.609375 -1.421875 
Q 20.21875 -1.421875 15.453125 -0.5625 
Q 10.6875 0.296875 5.421875 2 
L 5.421875 11.28125 
Q 10.40625 8.6875 15.234375 7.390625 
Q 20.0625 6.109375 24.8125 6.109375 
Q 31.15625 6.109375 34.5625 8.28125 
Q 37.984375 10.453125 37.984375 14.40625 
Q 37.984375 18.0625 35.515625 20.015625 
Q 33.0625 21.96875 24.703125 23.78125 
L 21.578125 24.515625 
Q 13.234375 26.265625 9.515625 29.90625 
Q 5.8125 33.546875 5.8125 39.890625 
Q 5.8125 47.609375 11.28125 51.796875 
Q 16.75 56 26.8125 56 
Q 31.78125 56 36.171875 55.265625 
Q 40.578125 54.546875 44.28125 53.078125 
" id="DejaVuSans-73"/>
    </defs>
    <g style="fill:#f0ad4e;" transform="translate(130.134803 20.551063)scale(0.14 -0.14)">
     <use transform="translate(0 0.765625)" xlink:href="#DejaVuSans-4f"/>
     <use transform="translate(78.710938 0.765625)" xlink:href="#DejaVuSans-62"/>
     <use transform="translate(142.1875 0.765625)" xlink:href="#DejaVuSans-73"/>
     <use transform="translate(194.287109 0.765625)" xlink:href="#DejaVuSans-65"/>
     <use transform="translate(255.810547 0.765625)" xlink:href="#DejaVuSans-72"/>
     <use transform="translate(296.923828 0.765625)" xlink:href="#DejaVuSans-76"/>
     <use transform="translate(356.103516 0.765625)" xlink:href="#DejaVuSans-65"/>
     <use transform="translate(417.626953 0.765625)" xlink:href="#DejaVuSans-64"/>
     <use transform="translate(481.103516 0.765625)" xlink:href="#DejaVuSans-20"/>
     <use transform="translate(512.890625 0.765625)" xlink:href="#DejaVuSans-Oblique-3c7"/>
     <use transform="translate(576.543021 39.046875)scale(0.7)" xlink:href="#DejaVuSans-32"/>
    </g>
    <!-- 7.39 -->
    <defs>
     <path d="M 8.203125 72.90625 
L 55.078125 72.90625 
L 55.078125 68.703125 
L 28.609375 0 
L 18.3125 0 
L 43.21875 64.59375 
L 8.203125 64.59375 
z
" id="DejaVuSans-37"/>
     <path d="M 10.984375 1.515625 
L 10.984375 10.5 
Q 14.703125 8.734375 18.5 7.8125 
Q 22.3125 6.890625 25.984375 6.890625 
Q 35.75 6.890625 40.890625 13.453125 
Q 46.046875 20.015625 46.78125 33.40625 
Q 43.953125 29.203125 39.59375 26.953125 
Q 35.25 24.703125 29.984375 24.703125 
Q 19.046875 24.703125 12.671875 31.3125 
Q 6.296875 37.9375 6.296875 49.421875 
Q 6.296875 60.640625 12.9375 67.421875 
Q 19.578125 74.21875 30.609375 74.21875 
Q 43.265625 74.21875 49.921875 64.515625 
Q 56.59375 54.828125 56.59375 36.375 
Q 56.59375 19.140625 48.40625 8.859375 
Q 40.234375 -1.421875 26.421875 -1.421875 
Q 22.703125 -1.421875 18.890625 -0.6875 
Q 15.09375 0.046875 10.984375 1.515625 
M 30.609375 32.421875 
Q 37.25 32.421875 41.125 36.953125 
Q 45.015625 41.5 45.015625 49.421875 
Q 45.015625 57.28125 41.125 61.84375 
Q 37.25 66.40625 30.609375 66.40625 
Q 23.96875 66.40625 20.09375 61.84375 
Q 16.21875 57.28125 16.21875 49.421875 
Q 16.21875 41.5 20.09375 36.953125 
Q 23.96875 32.421875 30.609375 32.421875 
" id="DejaVuSans-39"/>
    </defs>
    <g style="fill:#f0ad4e;" transform="translate(158.228866 36.256438)scale(0.14 -0.14)">
     <use xlink:href="#DejaVuSans-37"/>
     <use x="63.623047" xlink:href="#DejaVuSans-2e"/>
     <use x="95.410156" xlink:href="#DejaVuSans-33"/>
     <use x="159.033203" xlink:href="#DejaVuSans-39"/>
    </g>
   </g>
   <g id="text_16">
    <!-- Area under the curve -->
    <defs>
     <path d="M 34.1875 63.1875 
L 20.796875 26.90625 
L 47.609375 26.90625 
z
M 28.609375 72.90625 
L 39.796875 72.90625 
L 67.578125 0 
L 57.328125 0 
L 50.6875 18.703125 
L 17.828125 18.703125 
L 11.1875 0 
L 0.78125 0 
z
" id="DejaVuSans-41"/>
     <path d="M 54.890625 33.015625 
L 54.890625 0 
L 45.90625 0 
L 45.90625 32.71875 
Q 45.90625 40.484375 42.875 44.328125 
Q 39.84375 48.1875 33.796875 48.1875 
Q 26.515625 48.1875 22.3125 43.546875 
Q 18.109375 38.921875 18.109375 30.90625 
L 18.109375 0 
L 9.078125 0 
L 9.078125 75.984375 
L 18.109375 75.984375 
L 18.109375 46.1875 
Q 21.34375 51.125 25.703125 53.5625 
Q 30.078125 56 35.796875 56 
Q 45.21875 56 50.046875 50.171875 
Q 54.890625 44.34375 54.890625 33.015625 
" id="DejaVuSans-68"/>
    </defs>
    <g style="fill:#d2d2d2;" transform="translate(224.208 106.032438)scale(0.14 -0.14)">
     <use xlink:href="#DejaVuSans-41"/>
     <use x="68.408203" xlink:href="#DejaVuSans-72"/>
     <use x="109.490234" xlink:href="#DejaVuSans-65"/>
     <use x="171.013672" xlink:href="#DejaVuSans-61"/>
     <use x="232.292969" xlink:href="#DejaVuSans-20"/>
     <use x="264.080078" xlink:href="#DejaVuSans-75"/>
     <use x="327.458984" xlink:href="#DejaVuSans-6e"/>
     <use x="390.837891" xlink:href="#DejaVuSans-64"/>
     <use x="454.314453" xlink:href="#DejaVuSans-65"/>
     <use x="515.837891" xlink:href="#DejaVuSans-72"/>
     <use x="556.951172" xlink:href="#DejaVuSans-20"/>
     <use x="588.738281" xlink:href="#DejaVuSans-74"/>
     <use x="627.947266" xlink:href="#DejaVuSans-68"/>
     <use x="691.326172" xlink:href="#DejaVuSans-65"/>
     <use x="752.849609" xlink:href="#DejaVuSans-20"/>
     <use x="784.636719" xlink:href="#DejaVuSans-63"/>
     <use x="839.617188" xlink:href="#DejaVuSans-75"/>
     <use x="902.996094" xlink:href="#DejaVuSans-72"/>
     <use x="944.109375" xlink:href="#DejaVuSans-76"/>
     <use x="1003.289062" xlink:href="#DejaVuSans-65"/>
    </g>
    <!-- for $\chi^2\geq$7.39 -->
    <defs>
     <path d="M 30.609375 48.390625 
Q 23.390625 48.390625 19.1875 42.75 
Q 14.984375 37.109375 14.984375 27.296875 
Q 14.984375 17.484375 19.15625 11.84375 
Q 23.34375 6.203125 30.609375 6.203125 
Q 37.796875 6.203125 41.984375 11.859375 
Q 46.1875 17.53125 46.1875 27.296875 
Q 46.1875 37.015625 41.984375 42.703125 
Q 37.796875 48.390625 30.609375 48.390625 
M 30.609375 56 
Q 42.328125 56 49.015625 48.375 
Q 55.71875 40.765625 55.71875 27.296875 
Q 55.71875 13.875 49.015625 6.21875 
Q 42.328125 -1.421875 30.609375 -1.421875 
Q 18.84375 -1.421875 12.171875 6.21875 
Q 5.515625 13.875 5.515625 27.296875 
Q 5.515625 40.765625 12.171875 48.375 
Q 18.84375 56 30.609375 56 
" id="DejaVuSans-6f"/>
     <path d="M 10.59375 49.609375 
L 10.59375 58.203125 
L 73.1875 40.28125 
L 73.1875 31.984375 
L 10.59375 14.015625 
L 10.59375 22.703125 
L 57.515625 36.078125 
z
M 73.1875 8.296875 
L 73.1875 0 
L 10.59375 0 
L 10.59375 8.296875 
z
" id="DejaVuSans-2265"/>
    </defs>
    <g style="fill:#d2d2d2;" transform="translate(224.208 124.232)scale(0.14 -0.14)">
     <use transform="translate(0 0.765625)" xlink:href="#DejaVuSans-66"/>
     <use transform="translate(35.205078 0.765625)" xlink:href="#DejaVuSans-6f"/>
     <use transform="translate(96.386719 0.765625)" xlink:href="#DejaVuSans-72"/>
     <use transform="translate(137.5 0.765625)" xlink:href="#DejaVuSans-20"/>
     <use transform="translate(169.287109 0.765625)" xlink:href="#DejaVuSans-Oblique-3c7"/>
     <use transform="translate(232.939505 39.046875)scale(0.7)" xlink:href="#DejaVuSans-32"/>
     <use transform="translate(299.692435 0.765625)" xlink:href="#DejaVuSans-2265"/>
     <use transform="translate(402.963919 0.765625)" xlink:href="#DejaVuSans-37"/>
     <use transform="translate(466.586966 0.765625)" xlink:href="#DejaVuSans-2e"/>
     <use transform="translate(498.374076 0.765625)" xlink:href="#DejaVuSans-33"/>
     <use transform="translate(561.997122 0.765625)" xlink:href="#DejaVuSans-39"/>
    </g>
   </g>
   <g id="text_17">
    <!-- p-value = 0.025 -->
    <defs>
     <path d="M 18.109375 8.203125 
L 18.109375 -20.796875 
L 9.078125 -20.796875 
L 9.078125 54.6875 
L 18.109375 54.6875 
L 18.109375 46.390625 
Q 20.953125 51.265625 25.265625 53.625 
Q 29.59375 56 35.59375 56 
Q 45.5625 56 51.78125 48.09375 
Q 58.015625 40.1875 58.015625 27.296875 
Q 58.015625 14.40625 51.78125 6.484375 
Q 45.5625 -1.421875 35.59375 -1.421875 
Q 29.59375 -1.421875 25.265625 0.953125 
Q 20.953125 3.328125 18.109375 8.203125 
M 48.6875 27.296875 
Q 48.6875 37.203125 44.609375 42.84375 
Q 40.53125 48.484375 33.40625 48.484375 
Q 26.265625 48.484375 22.1875 42.84375 
Q 18.109375 37.203125 18.109375 27.296875 
Q 18.109375 17.390625 22.1875 11.75 
Q 26.265625 6.109375 33.40625 6.109375 
Q 40.53125 6.109375 44.609375 11.75 
Q 48.6875 17.390625 48.6875 27.296875 
" id="DejaVuSans-70"/>
     <path d="M 4.890625 31.390625 
L 31.203125 31.390625 
L 31.203125 23.390625 
L 4.890625 23.390625 
z
" id="DejaVuSans-2d"/>
    </defs>
    <g style="fill:#d9534f;" transform="translate(224.208 164.16)scale(0.14 -0.14)">
     <use xlink:href="#DejaVuSans-70"/>
     <use x="63.476562" xlink:href="#DejaVuSans-2d"/>
     <use x="99.529297" xlink:href="#DejaVuSans-76"/>
     <use x="158.708984" xlink:href="#DejaVuSans-61"/>
     <use x="219.988281" xlink:href="#DejaVuSans-6c"/>
     <use x="247.771484" xlink:href="#DejaVuSans-75"/>
     <use x="311.150391" xlink:href="#DejaVuSans-65"/>
     <use x="372.673828" xlink:href="#DejaVuSans-20"/>
     <use x="404.460938" xlink:href="#DejaVuSans-3d"/>
     <use x="488.25" xlink:href="#DejaVuSans-20"/>
     <use x="520.037109" xlink:href="#DejaVuSans-30"/>
     <use x="583.660156" xlink:href="#DejaVuSans-2e"/>
     <use x="615.447266" xlink:href="#DejaVuSans-30"/>
     <use x="679.070312" xlink:href="#DejaVuSans-32"/>
     <use x="742.693359" xlink:href="#DejaVuSans-35"/>
    </g>
   </g>
  </g>
 </g>
 <defs>
  <clipPath id="p5153a7481d">
   <rect height="201.6" width="354.24" x="64.8" y="43.2"/>
  </clipPath>
 </defs>
</svg>
