<?xml version="1.0" encoding="utf-8"?>
<!-- Generator: Adobe Illustrator 16.0.4, SVG Export Plug-In . SVG Version: 6.00 Build 0)  -->
<!DOCTYPE svg PUBLIC "-//W3C//DTD SVG 1.1//EN" "http://www.w3.org/Graphics/SVG/1.1/DTD/svg11.dtd">
<svg version="1.1" id="Layer_1" xmlns="http://www.w3.org/2000/svg" xmlns:xlink="http://www.w3.org/1999/xlink" x="0px" y="0px"
	 width="345.6px" height="338.4px" viewBox="0 0 345.6 338.4" enable-background="new 0 0 345.6 338.4" xml:space="preserve">
<circle fill="#D9534F" cx="175.865" cy="285.398" r="49.6"/>
<circle fill="none" stroke="#FFFFFF" stroke-width="2" cx="175.865" cy="285.398" r="49.6"/>
<path fill="none" stroke="#FFFFFF" stroke-width="2" d="M154.493,320.746c0.027,0.105,0.05,0.215,0.074,0.32
	c0.269-0.07,0.582-0.078,0.804-0.219c3.313-2.109,6.688-4.082,10.375-5.488c2.649-1.016,5.332-1.938,7.754-3.496
	c1.68-1.086,3.465-2.039,5.277-2.883c2.57-1.191,4.887-2.707,6.863-4.73c2.973-3.047,6.242-5.734,9.687-8.227
	c1.286-0.934,2.485-1.992,3.692-3.031c0.281-0.242,0.438-0.633,0.648-0.953c0.473-0.73,0.816-1.602,1.445-2.156
	c1.445-1.277,1.781-2.797,1.406-4.582c-0.315-1.484-0.668-2.961-0.949-4.453c-0.402-2.164-0.996-4.246-2.316-6.051
	c-0.449-0.617-0.684-1.246-0.68-2.031c0.003-0.508-0.219-1.059-0.469-1.52c-1.211-2.203-2.68-4.223-4.465-5.996
	c-0.348-0.348-0.375-0.621-0.297-1.078c0.129-0.73,0.363-1.578,0.117-2.207c-0.801-2.051-2.172-3.582-4.484-4.039
	c-2.387-0.473-4.777-0.34-7.176-0.121c-0.297,0.027-0.672,0.008-0.895-0.152c-0.863-0.621-1.805-0.645-2.742-0.359
	c-2.195,0.668-4.082,1.879-5.734,3.465c-0.156,0.152-0.312,0.324-0.406,0.52c-1.152,2.352-2.977,4.191-4.692,6.102
	c-2.918,3.238-4.882,6.953-5.867,11.199c-0.554,2.387-1.129,4.766-1.722,7.141c-0.172,0.684-0.321,1.438-0.715,1.988
	c-1.715,2.383-3.887,4.195-6.782,5.004c-1.46,0.41-2.957,0.727-4.367,1.266c-3.312,1.273-6.586,2.652-9.867,4.008
	c-0.176,0.07-0.273,0.32-0.41,0.488c0.066,0.059,0.129,0.117,0.191,0.176c0.223-0.086,0.45-0.164,0.672-0.258
	c2.145-0.898,4.27-1.852,6.438-2.688c2.125-0.812,4.246-1.695,6.449-2.203c3.102-0.715,5.508-2.379,7.508-4.723
	c0.519-0.609,0.906-1.402,1.148-2.176c0.446-1.395,0.723-2.844,1.086-4.27c0.559-2.18,1.012-4.395,1.723-6.523
	c1.16-3.473,3.254-6.395,5.734-9.066c1.113-1.199,2.285-2.426,3.062-3.84c1.527-2.777,3.98-4.164,6.785-5.145
	c0.766-0.27,1.527-0.168,2.246,0.316c0.293,0.195,0.723,0.273,1.086,0.266c1.691-0.047,3.379-0.23,5.066-0.195
	c2.348,0.051,4.398,0.738,5.73,2.945c0.723,1.195,0.703,2.281,0.141,3.488c-1.043-0.422-2.117-0.668-2.895-1.625
	c-0.336-0.414-1.055-0.703-1.613-0.723c-1.191-0.039-2.387,0.125-3.583,0.219c-0.464,0.035-0.925,0.102-1.386,0.152
	c-0.004,0.09-0.008,0.18-0.012,0.27c0.277,0.039,0.559,0.125,0.832,0.102c1.074-0.094,2.145-0.238,3.215-0.336
	c1.262-0.117,2.25,0.348,2.922,1.445c0.27,0.438,0.556,0.867,0.848,1.289c0.211,0.301,0.422,0.609,0.684,0.859
	c0.121,0.117,0.363,0.105,0.551,0.152c-0.066-0.16-0.105-0.332-0.203-0.473c-0.289-0.418-0.598-0.82-0.898-1.23
	c0.051-0.059,0.109-0.121,0.164-0.184c0.656,0.355,1.441,0.578,1.953,1.082c1.828,1.797,3.331,3.855,4.52,6.129
	c0.211,0.402,0.254,0.891,0.371,1.336c-0.102,0.055-0.203,0.113-0.301,0.168c-0.547-0.656-1.215-1.25-1.613-1.984
	c-0.605-1.117-1.438-1.738-2.672-1.938c-0.988-0.164-1.957-0.422-2.938-0.629c-0.082-0.02-0.176,0.027-0.496,0.086
	c0.328,0.246,0.492,0.453,0.695,0.504c0.758,0.184,1.523,0.383,2.301,0.461c1.383,0.137,2.32,0.789,2.832,2.094
	c0.259,0.656,0.594,1.289,0.93,1.914c0.121,0.227,0.348,0.398,0.523,0.594c0.066-0.039,0.137-0.082,0.203-0.121
	c-0.117-0.301-0.234-0.598-0.367-0.945c1.422,1.129,3.199,4.18,3.258,5.641c-0.18-0.293-0.316-0.516-0.457-0.742
	c-0.086,0.027-0.172,0.055-0.258,0.082c0.074,0.285,0.074,0.629,0.23,0.855c0.844,1.191,1.305,2.449,0.984,3.934
	c-0.094,0.438,0.016,0.793,0.617,0.48c0.141,0.621,0.254,1.172,0.387,1.719c0.43,1.777,0.07,3.273-1.422,4.469
	c-0.477,0.383-0.945,0.941-1.113,1.512c-0.301,0.984-0.922,1.648-1.668,2.258c-0.625,0.512-1.238,1.047-1.895,1.516
	c-3.969,2.852-7.738,5.941-11.164,9.438c-1.504,1.535-3.28,2.703-5.219,3.652c-2.02,0.988-3.977,2.109-5.973,3.145
	c-1.738,0.898-3.472,1.801-5.242,2.625c-1.152,0.535-2.367,0.938-3.555,1.395C161.09,316.621,157.835,318.758,154.493,320.746z"/>
<path fill="none" stroke="#FFFFFF" stroke-width="2" d="M154.493,320.746c3.343-1.984,6.597-4.121,10.257-5.527
	c1.188-0.457,2.403-0.859,3.555-1.395c1.77-0.824,3.504-1.727,5.242-2.625c1.996-1.035,3.953-2.156,5.973-3.145
	c1.938-0.949,3.715-2.117,5.219-3.652c3.426-3.496,7.195-6.582,11.164-9.438c0.656-0.469,1.27-1.004,1.895-1.516
	c0.746-0.609,1.367-1.27,1.668-2.258c0.172-0.57,0.637-1.129,1.112-1.512c1.493-1.195,1.853-2.688,1.423-4.469
	c-0.133-0.547-0.246-1.098-0.387-1.719c-0.602,0.312-0.711-0.043-0.617-0.48c0.32-1.48-0.141-2.742-0.984-3.934
	c-0.156-0.227-0.156-0.566-0.23-0.855c0.086-0.027,0.173-0.051,0.258-0.078c0.141,0.223,0.277,0.445,0.457,0.738
	c-0.059-1.461-1.836-4.508-3.258-5.641c0.133,0.348,0.25,0.645,0.367,0.945c-0.066,0.043-0.137,0.082-0.203,0.125
	c-0.176-0.199-0.402-0.371-0.523-0.594c-0.336-0.625-0.672-1.258-0.93-1.918c-0.512-1.305-1.449-1.957-2.832-2.094
	c-0.777-0.078-1.543-0.273-2.301-0.461c-0.203-0.051-0.362-0.254-0.695-0.504c0.32-0.059,0.418-0.105,0.5-0.086
	c0.977,0.207,1.945,0.465,2.934,0.629c1.234,0.199,2.066,0.824,2.672,1.938c0.398,0.734,1.066,1.328,1.613,1.984
	c0.098-0.055,0.199-0.113,0.301-0.168c-0.117-0.445-0.16-0.934-0.371-1.332c-1.188-2.273-2.692-4.336-4.52-6.133
	c-0.512-0.5-1.296-0.727-1.953-1.082c-0.055,0.062-0.109,0.125-0.164,0.184c0.301,0.41,0.609,0.816,0.898,1.23
	c0.098,0.141,0.137,0.316,0.203,0.473c-0.188-0.047-0.43-0.035-0.551-0.152c-0.262-0.25-0.473-0.559-0.684-0.859
	c-0.293-0.422-0.578-0.848-0.848-1.289c-0.672-1.094-1.66-1.559-2.922-1.445c-1.07,0.098-2.141,0.242-3.215,0.34
	c-0.273,0.023-0.555-0.066-0.832-0.105c0.004-0.09,0.008-0.176,0.012-0.266c0.461-0.055,0.922-0.121,1.387-0.156
	c1.191-0.094,2.391-0.258,3.582-0.215c0.559,0.016,1.277,0.305,1.613,0.723c0.777,0.953,1.852,1.199,2.895,1.621
	c0.562-1.207,0.582-2.293-0.141-3.488c-1.332-2.207-3.383-2.895-5.73-2.945c-1.688-0.035-3.375,0.152-5.066,0.195
	c-0.363,0.008-0.793-0.07-1.086-0.266c-0.719-0.484-1.48-0.582-2.246-0.316c-2.805,0.98-5.258,2.367-6.785,5.145
	c-0.777,1.414-1.95,2.641-3.062,3.84c-2.48,2.672-4.57,5.594-5.734,9.066c-0.711,2.129-1.164,4.344-1.723,6.523
	c-0.363,1.426-0.644,2.875-1.086,4.273c-0.242,0.77-0.625,1.562-1.148,2.172c-2,2.344-4.407,4.008-7.508,4.723
	c-2.203,0.508-4.324,1.391-6.449,2.203c-2.168,0.836-4.293,1.789-6.438,2.688c-0.223,0.094-0.449,0.172-0.672,0.258
	c-0.062-0.059-0.125-0.117-0.191-0.176c0.137-0.164,0.234-0.414,0.41-0.488c3.281-1.355,6.555-2.734,9.867-4.004
	c1.41-0.543,2.906-0.855,4.367-1.266c2.895-0.812,5.067-2.621,6.782-5.008c0.394-0.551,0.543-1.305,0.714-1.984
	c0.594-2.379,1.168-4.758,1.723-7.145c0.985-4.246,2.949-7.957,5.867-11.199c1.715-1.91,3.543-3.75,4.692-6.102
	c0.094-0.195,0.25-0.367,0.406-0.52c1.652-1.586,3.539-2.797,5.734-3.465c0.938-0.285,1.879-0.262,2.742,0.359
	c0.223,0.16,0.598,0.18,0.895,0.152c2.399-0.219,4.785-0.352,7.176,0.121c2.312,0.457,3.684,1.988,4.484,4.039
	c0.246,0.629,0.012,1.48-0.117,2.207c-0.078,0.457-0.051,0.73,0.297,1.078c1.785,1.777,3.254,3.797,4.465,6
	c0.25,0.457,0.473,1.012,0.468,1.516c-0.003,0.785,0.231,1.414,0.681,2.031c1.316,1.805,1.914,3.887,2.316,6.051
	c0.281,1.492,0.633,2.969,0.949,4.453c0.379,1.785,0.039,3.305-1.406,4.582c-0.629,0.555-0.973,1.43-1.445,2.156
	c-0.211,0.324-0.367,0.711-0.648,0.953c-1.207,1.039-2.406,2.098-3.691,3.031c-3.445,2.492-6.719,5.184-9.688,8.227
	c-1.977,2.027-4.293,3.539-6.863,4.73c-1.812,0.844-3.598,1.797-5.277,2.883c-2.422,1.562-5.105,2.484-7.754,3.496
	c-3.687,1.406-7.062,3.379-10.375,5.488c-0.222,0.145-0.535,0.152-0.804,0.219C154.542,320.961,154.52,320.852,154.493,320.746z"/>
<path fill="#D9534F" d="M204.664,202.598c0,15.906-12.895,28.801-28.797,28.801c-15.907,0-28.801-12.895-28.801-28.801
	s12.894-28.801,28.801-28.801C191.77,173.797,204.664,186.691,204.664,202.598z"/>
<path fill="none" stroke="#FFFFFF" stroke-width="2" d="M204.664,202.598c0,15.906-12.895,28.801-28.797,28.801
	c-15.907,0-28.801-12.895-28.801-28.801s12.894-28.801,28.801-28.801C191.77,173.797,204.664,186.691,204.664,202.598z"/>
<path fill="none" stroke="#FFFFFF" stroke-width="2" d="M192.273,216.223c-8.598,3.379-7.703,1.969-9.746,2.789
	c-0.297,0.117-6.383-3.211-8.691-3.41s-11.14,1.695-15.855-2.465c-4.715-4.16-2.024-12.805-2.024-12.805s0.313-11.316,9.106-14.742
	c7.32-2.855,10.34-1.602,10.34-1.602l10.367,3.141l3.324,2.656c0,0,5.336,8.059,6.172,9.074
	C196.098,199.875,202.309,212.277,192.273,216.223z"/>
<path fill="#F0AD4E" d="M101.465,78.199c0,27.39-22.207,49.597-49.597,49.597c-27.395,0-49.602-22.207-49.602-49.597
	c0-27.395,22.207-49.602,49.602-49.602C79.258,28.598,101.465,50.805,101.465,78.199z"/>
<path fill="none" stroke="#FFFFFF" stroke-width="2" d="M101.465,78.199c0,27.39-22.207,49.597-49.597,49.597
	c-27.395,0-49.602-22.207-49.602-49.597c0-27.395,22.207-49.602,49.602-49.602C79.258,28.598,101.465,50.805,101.465,78.199z"/>
<path fill="none" stroke="#FFFFFF" stroke-width="2" d="M33.828,111.339c0.028,0.102,0.059,0.2,0.086,0.301
	c0.278-0.054,0.586-0.047,0.829-0.172c1.257-0.664,2.492-1.367,3.746-2.031c0.32-0.168,0.679-0.273,1.031-0.375
	c0.836-0.246,1.746-0.34,2.512-0.726c1.769-0.891,3.511-1.852,5.191-2.907c4.406-2.758,8.121-6.398,12.121-9.672
	c0.192-0.156,0.36-0.441,0.387-0.683c0.082-0.754,0.562-1.184,1.164-1.496c0.828-0.426,1.66-0.856,2.523-1.196
	c2.989-1.179,4.227-5.265,1.922-7.515c-0.367-0.36-0.308-0.703-0.039-1.11c0.449-0.671,0.883-1.355,1.262-2.066
	c0.48-0.902,0.601-1.867,0.246-2.848c-0.477-1.316-1.508-2.148-2.648-2.851c-0.883-0.551-1.79-1.035-2.899-0.571
	c-0.144,0.059-0.406-0.16-0.613-0.25c0.086-0.183,0.121-0.429,0.265-0.539c0.446-0.343,0.907-0.675,1.399-0.945
	c3.242-1.769,6.457-3.519,9.371-5.887c3.262-2.644,6.914-4.812,10.394-7.195c0.872-0.594,1.758-1.168,2.579-1.828
	c0.312-0.25,0.582-0.691,0.656-1.086c0.398-2.02-1.488-4.469-3.918-3.766c-2.41,0.696-4.758,1.508-6.91,2.832
	c-1.082,0.664-2.235,1.219-3.356,1.821c-4.121,2.211-8.383,4.183-12.058,7.144c-0.684,0.551-1.457,0.992-2.192,1.485
	c-0.511,0.339-0.855,0.187-1.097-0.348c-0.524-1.16-0.477-2.328-0.075-3.508c0.739-2.156,1.344-4.363,2.231-6.453
	c1.558-3.676,3.293-7.27,4.93-10.91c0.46-1.024,0.933-2.059,1.214-3.141c0.309-1.191-0.054-2.312-1.062-3.086
	c-0.984-0.761-2.106-0.668-3.109-0.062c-0.653,0.394-1.286,0.937-1.723,1.558c-3.594,5.082-7.25,10.129-9.785,15.868
	c-0.762,1.726-1.524,3.457-2.403,5.121c-0.515,0.98-1.175,1.922-1.929,2.738c-0.895,0.969-1.606,2.008-2.188,3.191
	c-0.461,0.926-1.082,1.793-1.738,2.602c-1.031,1.277-2.219,2.433-3.223,3.73c-3.761,4.871-7.461,9.789-11.222,14.664
	c-0.43,0.559-1.024,1.067-1.645,1.399c-1.949,1.031-3.949,1.965-5.926,2.937c-0.168,0.082-0.324,0.188-0.488,0.282
	c0.016,0.086,0.027,0.168,0.039,0.25c0.215-0.016,0.457,0.031,0.637-0.055c1.98-0.961,3.949-1.957,5.933-2.914
	c0.797-0.387,1.414-0.934,1.926-1.652c0.914-1.278,1.867-2.524,2.801-3.786c3.656-4.922,7.269-9.879,11.449-14.382
	c0.832-0.895,1.473-1.868,2-2.965c0.418-0.871,0.91-1.774,1.586-2.438c1.195-1.179,2.106-2.504,2.781-4.019
	c0.379-0.852,0.817-1.676,1.172-2.535c2.571-6.297,6.434-11.825,10.317-17.336c0.496-0.704,1.14-1.395,1.875-1.817
	c1.722-0.996,3.371-0.07,3.507,1.91c0.036,0.539-0.109,1.133-0.32,1.637c-0.492,1.176-1.031,2.332-1.629,3.453
	c-2.801,5.231-4.703,10.817-6.582,16.41c-0.414,1.243-0.328,2.477,0.274,3.641c0.418,0.805,0.828,0.957,1.605,0.492
	c0.945-0.562,1.852-1.199,2.742-1.847c2.141-1.559,4.321-3.032,6.715-4.215c2.895-1.43,5.723-3.004,8.535-4.598
	c2.086-1.184,4.313-1.953,6.594-2.637c1.762-0.531,3.449,1.278,3.262,2.957c-0.043,0.41-0.317,0.907-0.645,1.153
	c-1.137,0.851-2.347,1.601-3.519,2.41c-3.246,2.238-6.602,4.347-9.696,6.785c-2.195,1.73-4.472,3.246-6.949,4.504
	c-0.762,0.387-1.527,0.781-2.262,1.223c-0.5,0.3-0.98,0.652-1.406,1.05c-0.176,0.164-0.328,0.582-0.238,0.754
	c0.148,0.289,0.469,0.535,0.773,0.688c0.184,0.093,0.473-0.055,0.715-0.047c0.473,0.012,1.035-0.09,1.406,0.129
	c0.918,0.539,1.832,1.14,2.594,1.875c1.043,1.011,1.168,2.297,0.492,3.586c-0.437,0.84-0.972,1.629-1.515,2.519
	c-0.852-0.699-1.641-1.344-2.434-1.98c-0.098-0.078-0.234-0.11-0.351-0.16c-0.012,0.148-0.094,0.363-0.024,0.437
	c0.277,0.305,0.602,0.563,0.903,0.844c0.828,0.785,1.746,1.504,2.46,2.383c1.352,1.656,1.055,4.136-0.55,5.547
	c-0.125,0.109-0.289,0.273-0.422,0.261c-1.266-0.121-2.309,0.352-3.11,1.27c-0.679,0.781-1.8,1.246-1.863,2.512
	c-0.008,0.167-0.25,0.347-0.414,0.484c-2.152,1.824-4.262,3.703-6.477,5.449c-4.097,3.215-8.136,6.488-13.417,7.762
	C37.114,109.214,35.516,110.464,33.828,111.339z"/>
<path fill="none" stroke="#FFFFFF" stroke-width="2" d="M33.828,111.339c1.684-0.875,3.286-2.125,5.079-2.558
	c5.285-1.274,9.324-4.547,13.418-7.762c2.218-1.742,4.324-3.625,6.476-5.449c0.164-0.137,0.41-0.317,0.418-0.484
	c0.059-1.262,1.18-1.731,1.863-2.512c0.801-0.914,1.844-1.391,3.106-1.27c0.133,0.016,0.297-0.148,0.422-0.261
	c1.605-1.411,1.902-3.891,0.551-5.547c-0.715-0.879-1.629-1.598-2.461-2.383c-0.297-0.281-0.625-0.539-0.903-0.844
	c-0.066-0.074,0.016-0.285,0.028-0.437c0.117,0.054,0.253,0.082,0.351,0.16c0.793,0.636,1.578,1.281,2.434,1.98
	c0.539-0.89,1.074-1.679,1.515-2.519c0.676-1.289,0.551-2.571-0.496-3.582c-0.761-0.739-1.675-1.34-2.593-1.879
	c-0.368-0.219-0.93-0.114-1.407-0.129c-0.238-0.008-0.531,0.14-0.715,0.047c-0.304-0.149-0.625-0.395-0.773-0.688
	c-0.086-0.172,0.063-0.586,0.242-0.754c0.426-0.394,0.906-0.75,1.406-1.047c0.735-0.445,1.497-0.835,2.262-1.226
	c2.473-1.258,4.75-2.774,6.949-4.504c3.09-2.438,6.446-4.543,9.696-6.785c1.168-0.809,2.382-1.555,3.515-2.41
	c0.328-0.243,0.602-0.743,0.649-1.149c0.183-1.683-1.504-3.492-3.262-2.961C79.312,55.07,77.09,55.839,75,57.023
	c-2.812,1.594-5.64,3.168-8.535,4.598c-2.39,1.183-4.57,2.656-6.715,4.215c-0.886,0.652-1.796,1.285-2.742,1.847
	c-0.777,0.465-1.187,0.317-1.601-0.488c-0.606-1.168-0.688-2.402-0.274-3.641c1.875-5.597,3.781-11.183,6.578-16.414
	c0.602-1.121,1.141-2.277,1.629-3.449c0.215-0.508,0.356-1.102,0.321-1.641c-0.137-1.98-1.786-2.906-3.508-1.91
	c-0.731,0.426-1.379,1.113-1.871,1.817c-3.883,5.515-7.75,11.039-10.321,17.336c-0.351,0.859-0.789,1.683-1.168,2.535
	c-0.675,1.515-1.586,2.84-2.781,4.019c-0.68,0.668-1.172,1.567-1.59,2.438c-0.523,1.097-1.168,2.07-1.996,2.968
	c-4.183,4.5-7.797,9.457-11.449,14.383c-0.938,1.258-1.891,2.504-2.805,3.782c-0.511,0.718-1.125,1.269-1.922,1.652
	c-1.988,0.957-3.953,1.953-5.937,2.918c-0.18,0.086-0.422,0.039-0.633,0.051c-0.016-0.082-0.027-0.164-0.039-0.246
	c0.16-0.098,0.32-0.204,0.488-0.286c1.977-0.972,3.977-1.906,5.922-2.937c0.625-0.332,1.215-0.84,1.649-1.399
	c3.757-4.875,7.461-9.793,11.222-14.664c1-1.297,2.188-2.449,3.219-3.726c0.656-0.813,1.281-1.676,1.738-2.606
	c0.582-1.179,1.293-2.222,2.188-3.191c0.754-0.816,1.414-1.754,1.929-2.738c0.879-1.664,1.645-3.395,2.407-5.121
	c2.535-5.735,6.191-10.786,9.785-15.868c0.437-0.621,1.07-1.164,1.723-1.558c1-0.606,2.121-0.699,3.109,0.062
	c1.004,0.774,1.371,1.895,1.058,3.09c-0.277,1.078-0.75,2.113-1.21,3.141c-1.637,3.636-3.375,7.234-4.934,10.906
	c-0.883,2.09-1.488,4.301-2.227,6.453c-0.406,1.18-0.453,2.348,0.071,3.508c0.242,0.535,0.59,0.691,1.097,0.348
	c0.735-0.493,1.508-0.93,2.192-1.485c3.679-2.961,7.937-4.933,12.058-7.144c1.121-0.602,2.274-1.153,3.356-1.821
	c2.152-1.324,4.504-2.136,6.91-2.832c2.434-0.703,4.32,1.746,3.922,3.766c-0.078,0.395-0.348,0.836-0.66,1.086
	c-0.817,0.66-1.707,1.234-2.578,1.828c-3.477,2.383-7.129,4.551-10.391,7.199c-2.918,2.364-6.129,4.117-9.375,5.887
	c-0.492,0.266-0.953,0.598-1.398,0.941c-0.141,0.114-0.18,0.356-0.266,0.539c0.207,0.09,0.469,0.309,0.617,0.25
	c1.106-0.461,2.012,0.024,2.899,0.571c1.136,0.707,2.171,1.535,2.648,2.855c0.355,0.977,0.23,1.942-0.246,2.844
	c-0.383,0.711-0.817,1.398-1.266,2.066c-0.269,0.407-0.328,0.75,0.039,1.11c2.305,2.25,1.071,6.34-1.922,7.515
	c-0.863,0.34-1.695,0.77-2.519,1.196c-0.606,0.312-1.082,0.742-1.168,1.5c-0.027,0.242-0.191,0.523-0.383,0.679
	c-4.004,3.274-7.719,6.914-12.125,9.676c-1.68,1.051-3.422,2.012-5.187,2.903c-0.766,0.386-1.676,0.484-2.516,0.726
	c-0.352,0.102-0.711,0.207-1.027,0.375c-1.258,0.668-2.493,1.371-3.75,2.031c-0.239,0.125-0.547,0.118-0.825,0.176
	C33.887,111.54,33.855,111.441,33.828,111.339z"/>
<path fill="#F0AD4E" d="M151.266,120.796c0,15.907-12.895,28.801-28.801,28.801c-15.906,0-28.801-12.894-28.801-28.801
	c0-15.902,12.895-28.796,28.801-28.796C138.371,92,151.266,104.895,151.266,120.796z"/>
<path fill="none" stroke="#FFFFFF" stroke-width="2" d="M151.266,120.796c0,15.907-12.895,28.801-28.801,28.801
	c-15.906,0-28.801-12.894-28.801-28.801c0-15.902,12.895-28.796,28.801-28.796C138.371,92,151.266,104.895,151.266,120.796z"/>
<path fill="none" stroke="#FFFFFF" stroke-width="2" d="M123.309,139.036c-0.008,1.519,1.328,2.922,2.793,2.933
	c1.445,0.012,2.555-1.175,2.547-2.73c-0.004-1.617-1.215-2.977-2.649-2.981C124.547,136.25,123.312,137.527,123.309,139.036z
	 M140.84,122.406c1.715,0,3-1.176,3-2.738c0-1.411-1.465-2.739-3.015-2.735c-1.555,0-2.848,1.293-2.86,2.852
	C137.957,121.266,139.207,122.406,140.84,122.406z M146.128,120.425c-0.086,0.219-0.187,0.43-0.258,0.649
	c-0.863,2.621-3.433,4.023-6.117,3.328c-2.008-0.52-3.992-1.121-6.011-1.563c-2.454-0.539-4.856-0.035-7.215,0.645
	c-0.192,0.055-0.414,0.398-0.426,0.617c-0.195,3.387,0.457,6.578,2.242,9.5c0.617,1.008,1.188,2.043,1.813,3.047
	c1.718,2.777,0.363,6.711-2.985,7.453c-0.101,0.024-0.188,0.09-0.281,0.137h-1.105c-1.536-0.461-2.903-1.149-3.856-2.531
	c-1.687-2.465-1.102-5.52,1.41-6.934c0.442-0.246,0.977-0.359,1.485-0.457c0.929-0.176,1.238-0.582,0.953-1.488
	c-0.215-0.672-0.524-1.317-0.782-1.977c-0.8-2.051-1.628-4.094-2.386-6.164c-0.203-0.562-0.477-0.773-1.062-0.801
	c-4.695-0.211-9.39-0.429-14.082-0.687c-1.332-0.078-2.679-0.18-3.972-0.481c-2.063-0.48-3.614-1.91-4.161-3.668
	c7.258,0.243,14.465,0.481,21.821,0.723c-2.028-7.02-4.008-13.887-6.02-20.844c1.852,0.223,3.192,1.094,4.133,2.489
	c0.594,0.878,1.086,1.871,1.406,2.878c1.571,4.926,3.074,9.875,4.574,14.825c0.18,0.586,0.434,0.808,1.071,0.879
	c2.554,0.281,5.101,0.648,7.648,0.984c0.313,0.039,0.629,0.086,0.942,0.082c0.816-0.012,1.16-0.387,1.066-1.191
	c-0.43-3.836,3.191-5.93,6.441-4.719c1.813,0.672,3.043,1.914,3.543,3.82c0.036,0.125,0.114,0.231,0.172,0.348V120.425z"/>
<path fill="#5BC0DE" d="M343.066,78.199c0,27.39-22.207,49.597-49.602,49.597c-27.391,0-49.598-22.207-49.598-49.597
	c0-27.395,22.207-49.602,49.598-49.602C320.859,28.598,343.066,50.805,343.066,78.199z"/>
<path fill="none" stroke="#FFFFFF" stroke-width="2" d="M343.066,78.199c0,27.39-22.207,49.597-49.602,49.597
	c-27.391,0-49.598-22.207-49.598-49.597c0-27.395,22.207-49.602,49.598-49.602C320.859,28.598,343.066,50.805,343.066,78.199z"/>
<path fill="none" stroke="#FFFFFF" stroke-width="2" d="M316.969,48.507c-0.078-0.64-0.012-1.312-0.25-1.847
	c-0.82-1.84-2.457-2.391-4.5-1.563c-2.363,0.957-4.469,2.379-6.406,3.992c-2.977,2.477-5.824,5.102-8.75,7.637
	c-1.113,0.965-2.285,1.863-3.473,2.828c-0.195-1.492-0.875-2.058-2.27-1.781c-0.953,0.187-1.859,0.59-2.785,0.898
	c-1.617,0.543-3.203,1.293-4.867,1.582c-2.02,0.356-3.453,1.29-4.555,2.977c-2.043,3.133-4.445,5.98-6.965,8.734
	c-0.316,0.352-0.57,0.801-0.727,1.25c-1.043,3.008-2.086,6.016-3.07,9.043c-0.84,2.594-2.168,5.063-2.094,7.907
	c0.008,0.226-0.305,0.55-0.547,0.679c-1.293,0.696-2.617,1.336-3.918,2.02c-0.172,0.09-0.281,0.305-0.418,0.465
	c0.207,0,0.449,0.074,0.613-0.008c1.254-0.617,2.477-1.297,3.742-1.887c0.703-0.328,1.043-0.777,1.082-1.566
	c0.051-0.922,0.074-1.891,0.359-2.754c1.527-4.602,3.133-9.176,4.723-13.758c0.109-0.316,0.258-0.648,0.48-0.891
	c2.789-3.007,5.332-6.214,7.645-9.601c0.75-1.098,1.727-1.746,3.055-1.942c2.098-0.316,4.078-1,5.992-1.925
	c0.758-0.368,1.613-0.571,2.441-0.743c0.516-0.101,1.125-0.097,1.422,0.493c0.32,0.632,0.125,1.281-0.473,1.789
	c-0.301,0.258-0.586,0.531-0.906,0.754c-3.496,2.437-7.027,4.828-10.492,7.312c-2.508,1.797-4.934,3.715-7.383,5.59
	c-0.199,0.152-0.328,0.395-0.488,0.598c0.059,0.058,0.117,0.121,0.176,0.179c0.184-0.113,0.383-0.215,0.547-0.351
	c0.488-0.41,0.934-0.879,1.453-1.242c3.402-2.407,6.77-4.86,10.242-7.157c4.531-3.004,8.676-6.48,12.77-10.031
	c1.387-1.203,2.781-2.398,4.172-3.594c0.855-0.734,1.742-1.437,2.562-2.207c1.926-1.816,4.121-3.238,6.453-4.453
	c0.578-0.301,1.23-0.48,1.867-0.64c0.941-0.239,1.73,0.074,2.371,0.8c0.656,0.75,0.906,1.578,0.391,2.493
	c-0.246,0.437-0.543,0.871-0.91,1.21c-4.512,4.188-9.238,8.137-13.477,12.622c-1.559,1.648-3.398,3.027-5.102,4.535
	c-0.117,0.101-0.184,0.257-0.273,0.39c0.051,0.055,0.105,0.114,0.156,0.168c0.281-0.152,0.605-0.258,0.84-0.465
	c1.633-1.445,3.34-2.816,4.848-4.386c5.383-5.594,11.246-10.657,17.176-15.645c0.73-0.613,1.594-0.879,2.516-0.902
	c1.824-0.047,3.074,2.129,2.227,3.937c-0.328,0.696-0.82,1.336-1.328,1.926c-1.414,1.656-2.867,3.281-4.32,4.902
	c-4.141,4.618-8.176,9.336-13.004,13.286c-0.691,0.566-1.227,1.328-1.809,2.019c-0.168,0.203-0.234,0.488-0.344,0.738
	c0.059,0.047,0.125,0.098,0.188,0.145c0.133-0.117,0.285-0.219,0.402-0.352c0.727-0.824,1.344-1.785,2.188-2.457
	c3.441-2.73,6.328-6.011,9.301-9.199c2.137-2.297,4.164-4.699,6.25-7.047c0.672-0.758,1.484-0.933,2.309-0.543
	c1.496,0.715,2.141,2.969,1.23,4.344c-2.262,3.41-4.52,6.816-7.027,10.059c-2.051,2.652-4.18,5.183-6.691,7.406
	c-0.805,0.711-1.57,1.496-2.207,2.359c-1.031,1.395-1.953,2.875-2.902,4.332c-0.09,0.141-0.039,0.375-0.059,0.567
	c0.16-0.11,0.355-0.196,0.473-0.344c0.18-0.231,0.305-0.5,0.453-0.754c1.266-2.144,2.777-4.082,4.559-5.836
	c2.895-2.855,5.711-5.789,8.559-8.691c0.461-0.473,0.875-1.004,1.375-1.434c0.75-0.644,1.824-0.59,2.277,0.113
	c0.469,0.735,0.859,1.567,0.551,2.43c-0.418,1.168-0.898,2.332-1.52,3.402c-1.91,3.282-4.488,6.067-6.949,8.926
	c-2.926,3.399-5.984,6.688-8.199,10.641c-0.41,0.738-0.988,1.422-1.617,1.988c-3.77,3.363-7.523,6.746-11.383,10.008
	c-3.738,3.156-7.738,5.934-12.461,7.5c-1.055,0.352-2.047,0.906-3.066,1.367c0.023,0.09,0.047,0.18,0.07,0.27
	c0.309-0.051,0.641-0.043,0.922-0.161c1.238-0.527,2.43-1.175,3.699-1.621c2.785-0.98,5.25-2.507,7.613-4.234
	c4.703-3.437,9.02-7.332,13.34-11.219c1.867-1.679,3.367-3.597,4.684-5.722c0.922-1.493,1.996-2.907,3.117-4.262
	c1.953-2.363,4-4.649,5.996-6.977c2.059-2.406,4.062-4.859,5.48-7.715c0.348-0.695,0.621-1.445,0.797-2.199
	c0.277-1.183-0.449-2.859-1.328-3.285c-0.938-0.453-2.008-0.09-3.035,1.035c-0.355,0.387-0.707,0.778-1.059,1.164
	c-0.051-0.148-0.016-0.222,0.031-0.293c1.969-2.839,3.93-5.679,5.906-8.511c0.574-0.825,0.75-1.688,0.43-2.645
	c-0.504-1.516-1.332-2.66-3.191-2.723c0.211-0.25,0.387-0.417,0.512-0.617c0.477-0.761,1.09-1.484,1.367-2.316
	c0.832-2.469-1.145-4.656-3.664-4.059c-0.797,0.192-1.555,0.676-2.25,1.145C318.156,47.378,317.555,48,316.969,48.507z"/>
<path fill="none" stroke="#FFFFFF" stroke-width="2" d="M316.969,48.507c0.586-0.507,1.188-1.129,1.887-1.601
	c0.695-0.469,1.449-0.953,2.25-1.145c2.52-0.597,4.496,1.59,3.664,4.059c-0.277,0.832-0.891,1.555-1.367,2.316
	c-0.125,0.2-0.301,0.367-0.512,0.617c1.859,0.063,2.688,1.207,3.191,2.723c0.316,0.957,0.145,1.82-0.43,2.645
	c-1.977,2.832-3.938,5.672-5.906,8.511c-0.047,0.067-0.082,0.145-0.031,0.293c0.352-0.386,0.703-0.777,1.059-1.164
	c1.027-1.125,2.098-1.488,3.035-1.035c0.879,0.426,1.605,2.102,1.328,3.285c-0.176,0.754-0.449,1.508-0.797,2.199
	c-1.418,2.856-3.422,5.309-5.48,7.715c-1.996,2.328-4.043,4.614-5.996,6.977c-1.121,1.355-2.195,2.769-3.117,4.262
	c-1.316,2.125-2.816,4.043-4.684,5.722c-4.32,3.887-8.637,7.782-13.34,11.219c-2.359,1.727-4.824,3.254-7.613,4.234
	c-1.27,0.45-2.461,1.094-3.699,1.621c-0.281,0.118-0.617,0.11-0.922,0.161c-0.023-0.09-0.047-0.18-0.07-0.27
	c1.02-0.461,2.012-1.015,3.066-1.367c4.723-1.566,8.723-4.344,12.461-7.5c3.859-3.262,7.613-6.645,11.383-10.008
	c0.629-0.566,1.207-1.25,1.617-1.988c2.215-3.953,5.273-7.242,8.199-10.641c2.461-2.859,5.039-5.644,6.949-8.926
	c0.621-1.07,1.102-2.234,1.52-3.402c0.309-0.863-0.082-1.695-0.551-2.43c-0.453-0.703-1.527-0.757-2.277-0.113
	c-0.5,0.43-0.914,0.961-1.375,1.434c-2.848,2.902-5.664,5.836-8.559,8.691c-1.781,1.754-3.293,3.692-4.559,5.836
	c-0.152,0.254-0.273,0.523-0.453,0.754c-0.117,0.148-0.312,0.234-0.473,0.344c0.02-0.192-0.031-0.426,0.059-0.567
	c0.949-1.457,1.871-2.937,2.902-4.332c0.637-0.863,1.402-1.648,2.207-2.359c2.512-2.223,4.641-4.754,6.691-7.406
	c2.508-3.246,4.766-6.649,7.027-10.059c0.91-1.375,0.266-3.629-1.23-4.344c-0.82-0.39-1.637-0.215-2.309,0.543
	c-2.086,2.348-4.113,4.75-6.25,7.047c-2.973,3.188-5.859,6.469-9.301,9.199c-0.844,0.672-1.461,1.633-2.188,2.457
	c-0.117,0.133-0.27,0.235-0.402,0.352c-0.062-0.047-0.129-0.098-0.188-0.145c0.109-0.25,0.176-0.535,0.344-0.738
	c0.582-0.691,1.117-1.453,1.809-2.019c4.828-3.95,8.863-8.668,13.004-13.286c1.453-1.621,2.906-3.246,4.32-4.902
	c0.508-0.59,1-1.23,1.328-1.926c0.848-1.808-0.402-3.984-2.227-3.937c-0.922,0.023-1.785,0.289-2.516,0.902
	c-5.93,4.988-11.793,10.051-17.176,15.645c-1.508,1.57-3.215,2.941-4.848,4.386c-0.234,0.207-0.559,0.313-0.84,0.465
	c-0.051-0.054-0.105-0.113-0.156-0.168c0.09-0.133,0.156-0.289,0.273-0.39c1.703-1.508,3.543-2.887,5.102-4.535
	c4.238-4.485,8.965-8.434,13.477-12.622c0.367-0.336,0.664-0.773,0.91-1.21c0.516-0.915,0.266-1.743-0.391-2.493
	c-0.641-0.726-1.43-1.039-2.371-0.8c-0.637,0.16-1.289,0.339-1.867,0.64c-2.332,1.215-4.527,2.637-6.453,4.453
	c-0.82,0.77-1.707,1.473-2.562,2.207c-1.391,1.196-2.785,2.391-4.172,3.594c-4.094,3.551-8.238,7.027-12.77,10.031
	c-3.473,2.297-6.84,4.75-10.242,7.157c-0.52,0.363-0.965,0.832-1.453,1.242c-0.164,0.136-0.363,0.238-0.547,0.351
	c-0.059-0.058-0.117-0.121-0.176-0.179c0.16-0.203,0.289-0.446,0.488-0.598c2.449-1.875,4.875-3.793,7.383-5.59
	c3.465-2.484,6.996-4.875,10.492-7.312c0.32-0.223,0.605-0.5,0.906-0.754c0.598-0.508,0.793-1.157,0.473-1.789
	c-0.297-0.59-0.906-0.598-1.422-0.493c-0.828,0.172-1.684,0.375-2.441,0.743c-1.914,0.925-3.895,1.609-5.992,1.925
	c-1.328,0.2-2.305,0.844-3.055,1.942c-2.312,3.387-4.855,6.594-7.645,9.601c-0.223,0.243-0.371,0.575-0.48,0.891
	c-1.59,4.582-3.195,9.156-4.723,13.758c-0.285,0.863-0.312,1.832-0.359,2.754c-0.039,0.789-0.379,1.238-1.082,1.566
	c-1.266,0.59-2.488,1.27-3.742,1.887c-0.164,0.082-0.406,0.008-0.613,0.008c0.137-0.16,0.246-0.375,0.418-0.465
	c1.301-0.684,2.625-1.324,3.918-2.02c0.242-0.129,0.551-0.453,0.547-0.679c-0.074-2.844,1.254-5.313,2.094-7.907
	c0.984-3.027,2.027-6.035,3.07-9.043c0.156-0.449,0.41-0.898,0.727-1.25c2.52-2.754,4.922-5.605,6.965-8.734
	c1.102-1.687,2.535-2.621,4.555-2.977c1.664-0.289,3.25-1.039,4.867-1.582c0.926-0.308,1.832-0.711,2.785-0.898
	c1.395-0.277,2.074,0.289,2.27,1.781c1.188-0.965,2.359-1.863,3.473-2.828c2.926-2.535,5.773-5.16,8.75-7.637
	c1.938-1.613,4.043-3.035,6.406-3.992c2.043-0.828,3.68-0.277,4.5,1.563C316.957,47.195,316.891,47.868,316.969,48.507z"/>
<path fill="#5BC0DE" d="M252.664,122.199c0,15.906-12.895,28.801-28.797,28.801c-15.906,0-28.801-12.895-28.801-28.801
	c0-15.906,12.895-28.801,28.801-28.801C239.77,93.398,252.664,106.293,252.664,122.199z"/>
<path fill="none" stroke="#FFFFFF" stroke-width="2" d="M252.664,122.199c0,15.906-12.895,28.801-28.797,28.801
	c-15.906,0-28.801-12.895-28.801-28.801c0-15.906,12.895-28.801,28.801-28.801C239.77,93.398,252.664,106.293,252.664,122.199z"/>
<path fill="none" stroke="#FFFFFF" stroke-width="2" d="M227.652,101.503v15.665c4.293-0.633,8.586-1.266,12.922-1.911v26.657
	h-30.656v-40.411C215.82,101.503,221.73,101.503,227.652,101.503z"/>
<line fill="none" stroke="#FFFFFF" stroke-width="2" x1="240.574" y1="115.257" x2="227.652" y2="101.503"/>
<g>
	<g>
		<path fill="#D2D2D2" d="M98.493,26.726c0,0,0.482-0.27,1.387-0.777c0.901-0.512,2.232-1.249,3.946-2.164
			c1.712-0.915,3.795-2.016,6.229-3.193c2.423-1.201,5.196-2.477,8.244-3.823c3.062-1.312,6.396-2.71,9.991-4.019
			c1.786-0.687,3.654-1.297,5.552-1.962c1.917-0.606,3.87-1.246,5.885-1.802c4.015-1.17,8.218-2.207,12.533-3.069
			c4.311-0.887,8.738-1.578,13.195-2.052c4.454-0.507,8.94-0.755,13.364-0.816c4.425-0.092,8.784,0.122,12.999,0.423
			c2.104,0.201,4.179,0.369,6.189,0.688c1.009,0.14,2.006,0.282,2.988,0.443c0.978,0.186,1.943,0.368,2.896,0.549
			c3.807,0.753,7.348,1.729,10.578,2.731c3.213,1.061,6.129,2.108,8.663,3.16c2.55,1.012,4.687,2.092,6.476,2.899
			c1.772,0.847,3.112,1.621,4.049,2.096c0.928,0.491,1.423,0.753,1.423,0.753l-1.433,2.944c0,0-2.032-0.803-5.59-2.208
			c-1.801-0.638-3.946-1.509-6.486-2.281c-2.501-0.877-5.369-1.724-8.511-2.567c-3.141-0.845-6.561-1.691-10.21-2.423
			c-0.911-0.19-1.835-0.383-2.77-0.578c-0.941-0.165-1.894-0.332-2.857-0.5c-1.921-0.376-3.905-0.615-5.917-0.927
			c-4.035-0.513-8.234-0.928-12.521-1.011c-4.284-0.139-8.65-0.049-13.003,0.279c-4.356,0.297-8.704,0.808-12.954,1.517
			c-4.255,0.685-8.417,1.545-12.407,2.547c-3.995,0.983-7.828,2.071-11.43,3.215c-3.611,1.121-6.974,2.344-10.07,3.498
			c-3.083,1.188-5.896,2.321-8.36,3.397c-2.47,1.061-4.607,2.033-6.357,2.846c-1.751,0.811-3.121,1.472-4.051,1.934
			c-0.932,0.455-1.429,0.698-1.429,0.698L98.493,26.726z"/>
		<g>
			<polygon fill="#D2D2D2" points="249.735,26.947 223.053,23.781 233.142,17.752 232.904,6.004 			"/>
		</g>
	</g>
</g>
<g>
	<g>
		<path fill="#D2D2D2" d="M106.02,271.974c0,0-0.469-0.294-1.347-0.845c-0.882-0.545-2.167-1.359-3.792-2.425
			c-1.624-1.063-3.588-2.363-5.79-3.934c-2.215-1.551-4.666-3.371-7.309-5.4c-2.621-2.058-5.446-4.312-8.318-6.839
			c-1.459-1.238-2.891-2.584-4.385-3.931c-1.452-1.391-2.949-2.798-4.404-4.3c-2.952-2.961-5.878-6.152-8.704-9.524
			c-2.846-3.356-5.576-6.91-8.129-10.594c-2.581-3.665-4.951-7.482-7.126-11.335c-2.203-3.839-4.106-7.767-5.864-11.609
			c-0.832-1.942-1.68-3.844-2.366-5.761c-0.361-0.952-0.714-1.896-1.043-2.835c-0.307-0.946-0.609-1.882-0.908-2.805
			c-1.165-3.701-2.007-7.276-2.677-10.592c-0.61-3.328-1.09-6.39-1.382-9.117c-0.336-2.723-0.412-5.115-0.562-7.073
			c-0.107-1.961-0.071-3.508-0.103-4.558c-0.014-1.05-0.021-1.61-0.021-1.61l3.27-0.155c0,0,0.271,2.169,0.744,5.964
			c0.305,1.886,0.569,4.187,1.11,6.786c0.43,2.615,1.062,5.537,1.829,8.698c0.766,3.162,1.663,6.567,2.771,10.122
			c0.27,0.891,0.544,1.793,0.821,2.707c0.307,0.905,0.618,1.821,0.932,2.747c0.591,1.866,1.333,3.722,2.024,5.637
			c1.485,3.787,3.136,7.671,5.118,11.472c1.933,3.825,4.105,7.613,6.481,11.276c2.35,3.68,4.884,7.249,7.545,10.639
			c2.641,3.405,5.394,6.645,8.186,9.665c2.778,3.034,5.571,5.875,8.303,8.486c2.715,2.632,5.401,4.996,7.899,7.159
			c2.521,2.136,4.865,4.061,6.991,5.706c2.116,1.659,3.993,3.067,5.546,4.214c1.552,1.147,2.789,2.032,3.639,2.627
			c0.847,0.6,1.298,0.919,1.298,0.919L106.02,271.974z"/>
		<g>
			<polygon fill="#D2D2D2" points="33.671,139.159 43.691,164.09 33.562,158.129 23.367,163.973 			"/>
		</g>
	</g>
</g>
<g>
	<g>
		<path fill="#D2D2D2" d="M317.282,138.962c0,0-0.005,0.553-0.014,1.59c-0.002,1.037-0.021,2.558-0.077,4.5
			c-0.054,1.94-0.131,4.295-0.314,6.993c-0.159,2.7-0.426,5.741-0.768,9.056c-0.379,3.31-0.817,6.898-1.464,10.668
			c-0.289,1.892-0.685,3.816-1.048,5.795c-0.423,1.965-0.837,3.979-1.353,6.004c-0.975,4.066-2.158,8.23-3.549,12.405
			c-1.366,4.184-2.961,8.371-4.76,12.477c-1.768,4.119-3.776,8.139-5.917,12.011c-2.114,3.888-4.461,7.568-6.812,11.08
			c-1.218,1.727-2.392,3.445-3.666,5.034c-0.621,0.807-1.239,1.602-1.866,2.375c-0.646,0.757-1.283,1.505-1.913,2.243
			c-2.541,2.933-5.145,5.523-7.616,7.832c-2.515,2.264-4.87,4.278-7.04,5.956c-2.143,1.714-4.141,3.033-5.729,4.187
			c-1.614,1.12-2.95,1.899-3.827,2.478c-0.887,0.562-1.36,0.862-1.36,0.862l-1.846-2.704c0,0,1.705-1.367,4.689-3.76
			c1.446-1.248,3.267-2.679,5.197-4.502c2.001-1.737,4.158-3.808,6.448-6.117c2.291-2.31,4.722-4.859,7.167-7.666
			c0.617-0.697,1.242-1.403,1.875-2.119c0.61-0.735,1.227-1.48,1.851-2.232c1.279-1.482,2.471-3.087,3.739-4.68
			c2.446-3.25,4.889-6.691,7.086-10.372c2.245-3.651,4.331-7.487,6.205-11.431c1.901-3.931,3.613-7.959,5.104-12.002
			c1.516-4.035,2.831-8.077,3.939-12.038c1.127-3.957,2.083-7.824,2.875-11.521c0.817-3.691,1.422-7.218,1.955-10.479
			c0.497-3.267,0.907-6.272,1.194-8.945c0.304-2.671,0.519-5.009,0.681-6.932c0.164-1.923,0.269-3.44,0.329-4.476
			c0.067-1.035,0.103-1.587,0.103-1.587L317.282,138.962z"/>
		<g>
			<polygon fill="#D2D2D2" points="242.104,270.197 258.083,248.596 258.317,260.346 268.638,265.965 			"/>
		</g>
	</g>
</g>
<g>
	<path fill="#D2D2D2" d="M139.923,25.776c-0.194-0.226-0.452-0.443-0.774-0.653c-0.323-0.209-0.686-0.399-1.088-0.568
		s-0.842-0.306-1.317-0.411c-0.476-0.104-0.972-0.157-1.487-0.157c-1.338,0-2.317,0.25-2.938,0.75
		c-0.621,0.5-0.931,1.185-0.931,2.056c0,0.467,0.088,0.854,0.266,1.161s0.456,0.568,0.834,0.786c0.378,0.218,0.85,0.407,1.415,0.568
		c0.564,0.161,1.233,0.331,2.007,0.508c0.886,0.193,1.688,0.415,2.406,0.665s1.33,0.56,1.838,0.931
		c0.508,0.371,0.895,0.822,1.161,1.354c0.266,0.532,0.399,1.185,0.399,1.958c0,0.822-0.161,1.536-0.483,2.14
		c-0.323,0.604-0.762,1.104-1.318,1.499c-0.556,0.396-1.213,0.686-1.971,0.871c-0.758,0.185-1.58,0.278-2.466,0.278
		c-1.322,0-2.575-0.206-3.76-0.617c-1.185-0.411-2.261-1.012-3.228-1.801l1.04-1.838c0.257,0.274,0.592,0.548,1.003,0.822
		c0.411,0.274,0.878,0.52,1.402,0.737c0.523,0.218,1.088,0.395,1.692,0.532c0.604,0.137,1.237,0.205,1.898,0.205
		c1.225,0,2.176-0.217,2.853-0.653c0.677-0.435,1.016-1.088,1.016-1.958c0-0.483-0.109-0.891-0.326-1.221
		c-0.218-0.33-0.536-0.616-0.956-0.858c-0.419-0.242-0.939-0.455-1.56-0.641c-0.621-0.185-1.326-0.375-2.116-0.568
		c-0.87-0.209-1.636-0.435-2.297-0.677c-0.661-0.242-1.213-0.532-1.656-0.871c-0.444-0.338-0.778-0.75-1.004-1.233
		c-0.226-0.483-0.338-1.064-0.338-1.741c0-0.822,0.153-1.547,0.459-2.176s0.733-1.161,1.282-1.596
		c0.548-0.436,1.201-0.762,1.958-0.979c0.757-0.218,1.58-0.327,2.466-0.327c1.161,0,2.208,0.178,3.144,0.532
		c0.935,0.354,1.765,0.831,2.49,1.427L139.923,25.776z"/>
	<path fill="#D2D2D2" d="M143.38,33.006c0-0.886,0.153-1.725,0.459-2.515c0.306-0.79,0.741-1.479,1.306-2.067
		c0.564-0.588,1.237-1.056,2.019-1.402c0.782-0.347,1.656-0.52,2.624-0.52c1.257,0,2.341,0.278,3.252,0.834s1.6,1.302,2.067,2.236
		l-2.079,0.653c-0.323-0.596-0.774-1.06-1.354-1.391c-0.58-0.33-1.225-0.496-1.934-0.496c-0.581,0-1.128,0.117-1.645,0.351
		c-0.516,0.234-0.959,0.56-1.33,0.979c-0.371,0.419-0.665,0.911-0.883,1.475c-0.218,0.564-0.326,1.185-0.326,1.862
		c0,0.662,0.112,1.282,0.338,1.862c0.226,0.58,0.528,1.084,0.907,1.511c0.378,0.427,0.822,0.762,1.33,1.003s1.052,0.363,1.632,0.363
		c0.371,0,0.738-0.052,1.101-0.157c0.362-0.105,0.693-0.246,0.991-0.423c0.298-0.177,0.56-0.383,0.786-0.617
		c0.226-0.233,0.387-0.487,0.484-0.762l2.08,0.629c-0.194,0.468-0.464,0.895-0.81,1.282c-0.347,0.387-0.754,0.717-1.221,0.991
		c-0.468,0.274-0.988,0.492-1.56,0.653c-0.573,0.161-1.173,0.242-1.802,0.242c-0.951,0-1.822-0.177-2.611-0.532
		c-0.79-0.354-1.467-0.83-2.031-1.427c-0.564-0.596-1.003-1.293-1.318-2.092C143.538,34.735,143.38,33.893,143.38,33.006z"/>
	<path fill="#D2D2D2" d="M157.622,24.35v-2.66h2.128v2.66H157.622z M157.622,39.341V26.719h2.128v12.622H157.622z"/>
	<path fill="#D2D2D2" d="M167.608,39.583c-1.016,0-2.015-0.157-2.998-0.471c-0.983-0.314-1.83-0.77-2.539-1.366l0.919-1.427
		c0.741,0.564,1.483,0.987,2.225,1.27c0.741,0.282,1.523,0.423,2.345,0.423c0.919,0,1.648-0.181,2.188-0.544
		c0.54-0.363,0.81-0.874,0.81-1.535c0-0.306-0.073-0.568-0.218-0.786s-0.363-0.407-0.653-0.568c-0.29-0.161-0.661-0.306-1.112-0.435
		c-0.451-0.129-0.976-0.266-1.572-0.411c-0.758-0.193-1.411-0.378-1.958-0.556c-0.548-0.177-1-0.387-1.354-0.628
		c-0.355-0.242-0.613-0.532-0.774-0.871s-0.242-0.758-0.242-1.257c0-0.629,0.125-1.189,0.375-1.681
		c0.25-0.492,0.592-0.903,1.027-1.233c0.436-0.33,0.947-0.58,1.536-0.75c0.588-0.169,1.221-0.254,1.898-0.254
		c0.951,0,1.838,0.153,2.66,0.459c0.822,0.307,1.515,0.709,2.079,1.209l-0.967,1.282c-0.532-0.467-1.129-0.818-1.79-1.052
		c-0.661-0.233-1.338-0.351-2.031-0.351c-0.773,0-1.431,0.166-1.971,0.496c-0.54,0.331-0.81,0.858-0.81,1.583
		c0,0.291,0.052,0.532,0.157,0.726s0.278,0.363,0.52,0.508s0.552,0.274,0.931,0.387c0.379,0.113,0.834,0.234,1.366,0.363
		c0.838,0.193,1.568,0.391,2.188,0.592c0.621,0.202,1.137,0.439,1.547,0.713c0.411,0.274,0.717,0.597,0.919,0.967
		c0.201,0.371,0.303,0.822,0.303,1.354c0,1.177-0.452,2.112-1.354,2.805C170.357,39.237,169.14,39.583,167.608,39.583z"/>
	<path fill="#D2D2D2" d="M179.553,39.583c-1.016,0-2.015-0.157-2.998-0.471c-0.983-0.314-1.83-0.77-2.539-1.366l0.919-1.427
		c0.741,0.564,1.482,0.987,2.225,1.27c0.741,0.282,1.523,0.423,2.346,0.423c0.919,0,1.647-0.181,2.188-0.544
		s0.811-0.874,0.811-1.535c0-0.306-0.072-0.568-0.218-0.786c-0.145-0.218-0.362-0.407-0.652-0.568
		c-0.291-0.161-0.661-0.306-1.112-0.435c-0.452-0.129-0.976-0.266-1.572-0.411c-0.758-0.193-1.41-0.378-1.958-0.556
		c-0.549-0.177-1-0.387-1.354-0.628c-0.354-0.242-0.613-0.532-0.773-0.871c-0.162-0.338-0.242-0.758-0.242-1.257
		c0-0.629,0.125-1.189,0.375-1.681s0.592-0.903,1.027-1.233c0.436-0.33,0.947-0.58,1.535-0.75c0.589-0.169,1.222-0.254,1.898-0.254
		c0.951,0,1.838,0.153,2.66,0.459c0.822,0.307,1.515,0.709,2.079,1.209l-0.967,1.282c-0.532-0.467-1.129-0.818-1.79-1.052
		c-0.661-0.233-1.338-0.351-2.03-0.351c-0.774,0-1.432,0.166-1.971,0.496c-0.541,0.331-0.811,0.858-0.811,1.583
		c0,0.291,0.053,0.532,0.157,0.726s0.278,0.363,0.52,0.508c0.242,0.145,0.553,0.274,0.932,0.387
		c0.378,0.113,0.834,0.234,1.366,0.363c0.838,0.193,1.567,0.391,2.188,0.592c0.62,0.202,1.136,0.439,1.547,0.713
		c0.411,0.274,0.717,0.597,0.919,0.967c0.201,0.371,0.303,0.822,0.303,1.354c0,1.177-0.452,2.112-1.354,2.805
		C182.301,39.237,181.084,39.583,179.553,39.583z"/>
	<path fill="#D2D2D2" d="M192.585,39.583c-0.951,0-1.817-0.177-2.599-0.532c-0.782-0.354-1.451-0.83-2.007-1.427
		c-0.557-0.596-0.988-1.29-1.294-2.08c-0.307-0.79-0.46-1.62-0.46-2.49c0-0.887,0.157-1.725,0.472-2.515
		c0.314-0.79,0.75-1.483,1.306-2.079c0.557-0.596,1.226-1.072,2.007-1.427c0.782-0.354,1.641-0.532,2.575-0.532
		c0.936,0,1.798,0.178,2.588,0.532c0.789,0.354,1.463,0.831,2.019,1.427c0.557,0.596,0.991,1.29,1.306,2.079
		c0.314,0.79,0.472,1.628,0.472,2.515c0,0.87-0.153,1.701-0.459,2.49c-0.307,0.79-0.742,1.483-1.306,2.08
		c-0.564,0.597-1.237,1.072-2.02,1.427S193.536,39.583,192.585,39.583z M188.402,33.079c0,0.661,0.108,1.273,0.326,1.838
		s0.516,1.056,0.895,1.475c0.379,0.419,0.822,0.75,1.33,0.992s1.052,0.363,1.632,0.363c0.581,0,1.125-0.121,1.633-0.363
		s0.955-0.576,1.342-1.003s0.689-0.927,0.906-1.5c0.218-0.572,0.327-1.188,0.327-1.85c0-0.645-0.109-1.253-0.327-1.826
		c-0.217-0.572-0.52-1.072-0.906-1.499c-0.387-0.427-0.834-0.762-1.342-1.003s-1.052-0.363-1.633-0.363
		c-0.58,0-1.124,0.125-1.632,0.375c-0.508,0.25-0.951,0.589-1.33,1.016c-0.379,0.428-0.677,0.927-0.895,1.5
		S188.402,32.418,188.402,33.079z"/>
	<path fill="#D2D2D2" d="M208.23,28.581c-1.064,0.033-2.003,0.307-2.817,0.822c-0.813,0.516-1.39,1.233-1.729,2.152v7.786h-2.128
		V26.719h1.982v2.926c0.436-0.871,1.008-1.576,1.717-2.116c0.71-0.54,1.467-0.842,2.273-0.907c0.161,0,0.298,0,0.411,0
		c0.112,0,0.209,0.008,0.29,0.024V28.581z"/>
	<path fill="#D2D2D2" d="M214.759,39.583c-1.016,0-2.015-0.157-2.998-0.471c-0.983-0.314-1.83-0.77-2.539-1.366l0.919-1.427
		c0.741,0.564,1.482,0.987,2.225,1.27c0.741,0.282,1.523,0.423,2.346,0.423c0.919,0,1.647-0.181,2.188-0.544
		s0.811-0.874,0.811-1.535c0-0.306-0.072-0.568-0.218-0.786c-0.145-0.218-0.362-0.407-0.652-0.568
		c-0.291-0.161-0.661-0.306-1.112-0.435c-0.452-0.129-0.976-0.266-1.572-0.411c-0.758-0.193-1.41-0.378-1.958-0.556
		c-0.549-0.177-1-0.387-1.354-0.628c-0.354-0.242-0.613-0.532-0.773-0.871c-0.162-0.338-0.242-0.758-0.242-1.257
		c0-0.629,0.125-1.189,0.375-1.681s0.592-0.903,1.027-1.233c0.436-0.33,0.947-0.58,1.535-0.75c0.589-0.169,1.222-0.254,1.898-0.254
		c0.951,0,1.838,0.153,2.66,0.459c0.822,0.307,1.515,0.709,2.079,1.209l-0.967,1.282c-0.532-0.467-1.129-0.818-1.79-1.052
		c-0.661-0.233-1.338-0.351-2.03-0.351c-0.774,0-1.432,0.166-1.971,0.496c-0.541,0.331-0.811,0.858-0.811,1.583
		c0,0.291,0.053,0.532,0.157,0.726s0.278,0.363,0.52,0.508c0.242,0.145,0.553,0.274,0.932,0.387
		c0.378,0.113,0.834,0.234,1.366,0.363c0.838,0.193,1.567,0.391,2.188,0.592c0.62,0.202,1.136,0.439,1.547,0.713
		c0.411,0.274,0.717,0.597,0.919,0.967c0.201,0.371,0.303,0.822,0.303,1.354c0,1.177-0.452,2.112-1.354,2.805
		C217.507,39.237,216.29,39.583,214.759,39.583z"/>
</g>
<g>
	<path fill="#D2D2D2" d="M137.243,57.929c-0.61,0-1.165-0.15-1.665-0.45c-0.5-0.3-0.895-0.69-1.185-1.17v1.47h-1.17v-10.95h1.32
		v4.68c0.33-0.51,0.735-0.92,1.215-1.23s1.04-0.465,1.68-0.465c0.54,0,1.025,0.115,1.455,0.345c0.43,0.23,0.797,0.533,1.103,0.908
		s0.54,0.81,0.705,1.305c0.165,0.495,0.248,1.003,0.248,1.523c0,0.55-0.095,1.07-0.285,1.56c-0.19,0.49-0.45,0.918-0.78,1.283
		c-0.33,0.365-0.723,0.655-1.178,0.87S137.763,57.929,137.243,57.929z M136.913,56.789c0.39,0,0.75-0.08,1.08-0.24
		c0.33-0.16,0.615-0.375,0.855-0.645c0.24-0.27,0.425-0.578,0.555-0.922c0.13-0.345,0.195-0.708,0.195-1.087
		c0-0.38-0.062-0.748-0.188-1.103s-0.3-0.667-0.525-0.938s-0.495-0.488-0.81-0.653s-0.663-0.248-1.042-0.248
		c-0.28,0-0.545,0.05-0.795,0.15s-0.482,0.232-0.698,0.397c-0.215,0.165-0.405,0.357-0.57,0.577
		c-0.165,0.22-0.308,0.456-0.428,0.705v2.265c0.05,0.25,0.158,0.48,0.323,0.69s0.36,0.393,0.585,0.547
		c0.225,0.155,0.465,0.278,0.72,0.368C136.426,56.744,136.673,56.789,136.913,56.789z"/>
	<path fill="#D2D2D2" d="M146.033,57.929c-0.59,0-1.13-0.107-1.62-0.322c-0.49-0.215-0.91-0.507-1.26-0.877
		s-0.623-0.803-0.817-1.298c-0.195-0.495-0.292-1.017-0.292-1.567c0-0.55,0.098-1.07,0.292-1.56c0.195-0.49,0.47-0.92,0.825-1.29
		c0.354-0.37,0.777-0.662,1.267-0.877c0.49-0.215,1.03-0.322,1.62-0.322s1.127,0.11,1.613,0.33c0.485,0.22,0.897,0.512,1.237,0.877
		c0.34,0.365,0.603,0.79,0.788,1.275c0.185,0.485,0.277,0.988,0.277,1.507c0,0.11-0.002,0.21-0.007,0.3
		c-0.005,0.09-0.013,0.16-0.022,0.21h-6.495c0.03,0.39,0.12,0.745,0.27,1.065s0.345,0.595,0.585,0.825
		c0.24,0.23,0.512,0.41,0.817,0.54c0.305,0.13,0.627,0.195,0.968,0.195c0.24,0,0.475-0.033,0.705-0.098s0.445-0.152,0.645-0.263
		c0.2-0.11,0.377-0.245,0.533-0.405c0.155-0.16,0.272-0.34,0.353-0.54l1.14,0.315c-0.13,0.29-0.308,0.555-0.533,0.795
		c-0.225,0.24-0.485,0.448-0.78,0.623c-0.295,0.175-0.623,0.313-0.983,0.413C146.798,57.879,146.423,57.929,146.033,57.929z
		 M148.718,53.339c-0.03-0.37-0.123-0.712-0.277-1.027c-0.155-0.315-0.35-0.583-0.585-0.803c-0.235-0.22-0.508-0.392-0.817-0.518
		c-0.31-0.125-0.64-0.188-0.99-0.188s-0.68,0.062-0.99,0.188c-0.31,0.125-0.583,0.3-0.818,0.525
		c-0.235,0.225-0.425,0.493-0.57,0.803s-0.232,0.65-0.263,1.02H148.718z"/>
	<path fill="#D2D2D2" d="M153.443,57.929c-0.37,0-0.715-0.062-1.035-0.188c-0.32-0.125-0.598-0.297-0.833-0.518
		c-0.235-0.22-0.42-0.477-0.555-0.772c-0.135-0.295-0.202-0.617-0.202-0.967c0-0.36,0.08-0.688,0.24-0.982
		c0.16-0.295,0.388-0.548,0.683-0.758s0.645-0.375,1.05-0.495c0.405-0.12,0.848-0.18,1.328-0.18c0.38,0,0.765,0.035,1.155,0.105
		c0.39,0.07,0.735,0.165,1.035,0.285v-0.63c0-0.64-0.18-1.142-0.54-1.507c-0.36-0.365-0.87-0.547-1.53-0.547
		c-0.79,0-1.62,0.305-2.49,0.915l-0.435-0.855c1.01-0.68,2.025-1.02,3.045-1.02c1.03,0,1.832,0.275,2.407,0.825
		c0.575,0.55,0.862,1.325,0.862,2.325v3.195c0,0.31,0.14,0.47,0.42,0.48v1.14c-0.14,0.02-0.255,0.035-0.345,0.045
		s-0.185,0.015-0.285,0.015c-0.26,0-0.467-0.078-0.622-0.232c-0.155-0.155-0.248-0.343-0.278-0.562l-0.03-0.555
		c-0.35,0.47-0.793,0.828-1.328,1.073C154.625,57.807,154.053,57.929,153.443,57.929z M153.788,56.939
		c0.47,0,0.908-0.087,1.312-0.263c0.405-0.175,0.712-0.407,0.922-0.697c0.19-0.19,0.285-0.385,0.285-0.585v-1.155
		c-0.64-0.25-1.305-0.375-1.995-0.375c-0.66,0-1.197,0.14-1.612,0.42c-0.415,0.28-0.623,0.645-0.623,1.095
		c0,0.22,0.042,0.425,0.127,0.615c0.085,0.19,0.205,0.355,0.36,0.495c0.155,0.14,0.338,0.25,0.548,0.33
		S153.548,56.939,153.788,56.939z"/>
	<path fill="#D2D2D2" d="M163.732,57.389c-0.081,0.04-0.186,0.088-0.315,0.143c-0.13,0.055-0.277,0.11-0.442,0.165
		c-0.165,0.055-0.345,0.1-0.54,0.135c-0.195,0.035-0.397,0.052-0.607,0.052c-0.48,0-0.895-0.132-1.245-0.397
		c-0.35-0.265-0.525-0.677-0.525-1.237v-5.265h-1.065v-1.035h1.065v-2.61h1.32v2.61h1.755v1.035h-1.755v4.86
		c0.02,0.29,0.115,0.5,0.285,0.63c0.17,0.13,0.37,0.195,0.6,0.195c0.26,0,0.498-0.042,0.712-0.127s0.362-0.152,0.442-0.203
		L163.732,57.389z"/>
	<path fill="#D2D2D2" d="M167.707,57.929c-0.63,0-1.25-0.097-1.86-0.292c-0.61-0.195-1.135-0.478-1.575-0.848l0.57-0.885
		c0.46,0.35,0.92,0.613,1.38,0.788c0.459,0.175,0.945,0.262,1.455,0.262c0.57,0,1.022-0.112,1.358-0.337
		c0.335-0.225,0.502-0.542,0.502-0.953c0-0.189-0.045-0.352-0.135-0.487c-0.09-0.135-0.225-0.252-0.405-0.353
		c-0.18-0.1-0.41-0.19-0.69-0.27c-0.28-0.08-0.605-0.165-0.975-0.255c-0.47-0.12-0.875-0.235-1.215-0.345
		c-0.34-0.11-0.621-0.24-0.84-0.39c-0.22-0.15-0.38-0.33-0.48-0.54s-0.15-0.47-0.15-0.78c0-0.39,0.077-0.737,0.232-1.042
		c0.155-0.305,0.368-0.56,0.638-0.765s0.587-0.36,0.952-0.465c0.365-0.105,0.758-0.157,1.178-0.157c0.59,0,1.14,0.095,1.65,0.285
		c0.51,0.19,0.94,0.44,1.29,0.75l-0.6,0.795c-0.33-0.29-0.7-0.508-1.11-0.653c-0.41-0.145-0.83-0.217-1.26-0.217
		c-0.48,0-0.888,0.103-1.223,0.308c-0.335,0.205-0.502,0.532-0.502,0.982c0,0.18,0.032,0.33,0.097,0.45
		c0.065,0.12,0.173,0.225,0.323,0.315c0.15,0.09,0.342,0.17,0.578,0.24c0.235,0.07,0.517,0.145,0.847,0.225
		c0.52,0.12,0.973,0.243,1.357,0.367c0.385,0.125,0.705,0.273,0.96,0.443c0.255,0.17,0.445,0.37,0.57,0.6
		c0.125,0.23,0.188,0.51,0.188,0.84c0,0.73-0.28,1.31-0.84,1.74C169.412,57.714,168.657,57.929,167.707,57.929z"/>
	<path fill="#D2D2D2" d="M180.382,57.929c-0.65,0-1.223-0.16-1.718-0.48c-0.495-0.32-0.888-0.725-1.178-1.215v4.74h-1.319V49.949
		h1.17v1.47c0.31-0.48,0.712-0.868,1.207-1.163s1.043-0.442,1.643-0.442c0.54,0,1.035,0.11,1.485,0.33
		c0.449,0.22,0.84,0.517,1.17,0.892s0.587,0.808,0.772,1.298c0.185,0.49,0.277,1,0.277,1.53c0,0.56-0.085,1.087-0.255,1.583
		s-0.41,0.925-0.72,1.29c-0.311,0.365-0.681,0.655-1.11,0.87S180.901,57.929,180.382,57.929z M179.977,56.789
		c0.39,0,0.742-0.082,1.058-0.247c0.314-0.165,0.585-0.385,0.81-0.66c0.226-0.275,0.397-0.587,0.518-0.938s0.181-0.71,0.181-1.08
		c0-0.39-0.07-0.762-0.21-1.118c-0.141-0.354-0.33-0.665-0.57-0.93s-0.522-0.475-0.848-0.63c-0.325-0.155-0.678-0.233-1.058-0.233
		c-0.24,0-0.487,0.048-0.742,0.143c-0.255,0.095-0.495,0.22-0.72,0.375c-0.226,0.155-0.421,0.34-0.586,0.555
		c-0.164,0.215-0.272,0.442-0.322,0.683v2.235c0.11,0.26,0.25,0.502,0.42,0.728s0.365,0.42,0.585,0.585s0.455,0.295,0.705,0.39
		S179.707,56.789,179.977,56.789z"/>
	<path fill="#D2D2D2" d="M187.521,57.929c-0.37,0-0.715-0.062-1.035-0.188s-0.598-0.297-0.833-0.518
		c-0.234-0.22-0.42-0.477-0.555-0.772c-0.135-0.295-0.202-0.617-0.202-0.967c0-0.36,0.08-0.688,0.24-0.982
		c0.159-0.295,0.387-0.548,0.682-0.758s0.646-0.375,1.051-0.495c0.404-0.12,0.847-0.18,1.327-0.18c0.38,0,0.765,0.035,1.155,0.105
		c0.39,0.07,0.734,0.165,1.035,0.285v-0.63c0-0.64-0.181-1.142-0.54-1.507c-0.36-0.365-0.87-0.547-1.53-0.547
		c-0.79,0-1.62,0.305-2.49,0.915l-0.435-0.855c1.01-0.68,2.024-1.02,3.045-1.02c1.029,0,1.832,0.275,2.407,0.825
		c0.575,0.55,0.862,1.325,0.862,2.325v3.195c0,0.31,0.141,0.47,0.42,0.48v1.14c-0.14,0.02-0.255,0.035-0.345,0.045
		s-0.186,0.015-0.285,0.015c-0.26,0-0.468-0.078-0.622-0.232c-0.155-0.155-0.248-0.343-0.277-0.562l-0.03-0.555
		c-0.351,0.47-0.793,0.828-1.327,1.073C188.704,57.807,188.131,57.929,187.521,57.929z M187.866,56.939
		c0.47,0,0.907-0.087,1.312-0.263c0.405-0.175,0.713-0.407,0.923-0.697c0.189-0.19,0.285-0.385,0.285-0.585v-1.155
		c-0.641-0.25-1.306-0.375-1.995-0.375c-0.66,0-1.198,0.14-1.613,0.42c-0.415,0.28-0.622,0.645-0.622,1.095
		c0,0.22,0.042,0.425,0.128,0.615c0.084,0.19,0.204,0.355,0.359,0.495c0.155,0.14,0.338,0.25,0.548,0.33
		S187.626,56.939,187.866,56.939z"/>
	<path fill="#D2D2D2" d="M198.036,57.929c-0.65,0-1.223-0.16-1.718-0.48c-0.495-0.32-0.888-0.725-1.178-1.215v4.74h-1.319V49.949
		h1.17v1.47c0.31-0.48,0.712-0.868,1.207-1.163s1.043-0.442,1.643-0.442c0.54,0,1.035,0.11,1.485,0.33
		c0.449,0.22,0.84,0.517,1.17,0.892s0.587,0.808,0.772,1.298c0.185,0.49,0.277,1,0.277,1.53c0,0.56-0.085,1.087-0.255,1.583
		s-0.41,0.925-0.72,1.29c-0.311,0.365-0.681,0.655-1.11,0.87S198.556,57.929,198.036,57.929z M197.631,56.789
		c0.39,0,0.742-0.082,1.058-0.247c0.314-0.165,0.585-0.385,0.81-0.66c0.226-0.275,0.397-0.587,0.518-0.938s0.181-0.71,0.181-1.08
		c0-0.39-0.07-0.762-0.21-1.118c-0.141-0.354-0.33-0.665-0.57-0.93s-0.522-0.475-0.848-0.63c-0.325-0.155-0.678-0.233-1.058-0.233
		c-0.24,0-0.487,0.048-0.742,0.143c-0.255,0.095-0.495,0.22-0.72,0.375c-0.226,0.155-0.421,0.34-0.586,0.555
		c-0.164,0.215-0.272,0.442-0.322,0.683v2.235c0.11,0.26,0.25,0.502,0.42,0.728s0.365,0.42,0.585,0.585s0.455,0.295,0.705,0.39
		S197.361,56.789,197.631,56.789z"/>
	<path fill="#D2D2D2" d="M206.631,57.929c-0.591,0-1.131-0.107-1.62-0.322c-0.49-0.215-0.91-0.507-1.26-0.877
		c-0.351-0.37-0.623-0.803-0.818-1.298c-0.194-0.495-0.292-1.017-0.292-1.567c0-0.55,0.098-1.07,0.292-1.56
		c0.195-0.49,0.471-0.92,0.825-1.29c0.355-0.37,0.777-0.662,1.268-0.877c0.49-0.215,1.03-0.322,1.62-0.322s1.127,0.11,1.612,0.33
		c0.485,0.22,0.897,0.512,1.237,0.877c0.34,0.365,0.603,0.79,0.788,1.275c0.185,0.485,0.277,0.988,0.277,1.507
		c0,0.11-0.003,0.21-0.008,0.3c-0.005,0.09-0.013,0.16-0.022,0.21h-6.495c0.03,0.39,0.12,0.745,0.271,1.065s0.345,0.595,0.585,0.825
		c0.24,0.23,0.513,0.41,0.817,0.54c0.305,0.13,0.628,0.195,0.968,0.195c0.24,0,0.475-0.033,0.705-0.098
		c0.229-0.065,0.444-0.152,0.645-0.263c0.2-0.11,0.378-0.245,0.532-0.405c0.155-0.16,0.272-0.34,0.353-0.54l1.141,0.315
		c-0.13,0.29-0.308,0.555-0.532,0.795c-0.226,0.24-0.485,0.448-0.78,0.623c-0.295,0.175-0.623,0.313-0.982,0.413
		C207.396,57.879,207.021,57.929,206.631,57.929z M209.315,53.339c-0.03-0.37-0.122-0.712-0.277-1.027
		c-0.155-0.315-0.351-0.583-0.585-0.803c-0.235-0.22-0.508-0.392-0.817-0.518c-0.311-0.125-0.641-0.188-0.99-0.188
		s-0.68,0.062-0.99,0.188c-0.31,0.125-0.582,0.3-0.817,0.525c-0.235,0.225-0.425,0.493-0.569,0.803
		c-0.146,0.31-0.233,0.65-0.263,1.02H209.315z"/>
	<path fill="#D2D2D2" d="M216.171,51.104c-0.66,0.02-1.243,0.19-1.748,0.51c-0.505,0.32-0.862,0.765-1.072,1.335v4.83h-1.319v-7.83
		h1.229v1.815c0.271-0.54,0.625-0.977,1.065-1.312c0.439-0.335,0.909-0.522,1.409-0.562c0.101,0,0.186,0,0.256,0
		c0.069,0,0.13,0.005,0.18,0.015V51.104z"/>
</g>
<g>
	<path fill="#D2D2D2" d="M76.683,172.985l14.671-8.917l3.818,6.281c0.394,0.647,0.62,1.323,0.684,2.032
		c0.062,0.707-0.013,1.394-0.222,2.057c-0.209,0.666-0.525,1.277-0.949,1.838c-0.424,0.559-0.925,1.014-1.504,1.365
		c-0.51,0.311-1.045,0.538-1.609,0.682c-0.562,0.145-1.119,0.199-1.668,0.166c-0.549-0.034-1.076-0.156-1.582-0.368
		s-0.963-0.515-1.371-0.907l-3.461,6.971l-1.281-2.108l3.235-6.55l-2.361-3.885l-5.269,3.203L76.683,172.985z M84.735,170.638
		l2.7,4.441c0.234,0.387,0.528,0.684,0.882,0.893s0.738,0.339,1.155,0.389c0.416,0.047,0.849,0.021,1.295-0.08
		c0.448-0.103,0.871-0.275,1.271-0.518c0.413-0.252,0.758-0.561,1.035-0.927s0.483-0.757,0.62-1.169
		c0.136-0.412,0.185-0.83,0.146-1.25c-0.039-0.419-0.166-0.809-0.384-1.166l-2.625-4.318L84.735,170.638z"/>
	<path fill="#D2D2D2" d="M87.202,190.756c-0.494-0.812-0.793-1.645-0.896-2.497s-0.044-1.671,0.178-2.455
		c0.221-0.785,0.589-1.515,1.104-2.186c0.516-0.673,1.146-1.235,1.89-1.688c0.757-0.46,1.555-0.761,2.394-0.902
		c0.838-0.143,1.657-0.13,2.456,0.035c0.798,0.166,1.552,0.49,2.261,0.974c0.709,0.485,1.307,1.126,1.792,1.925
		c0.486,0.8,0.782,1.629,0.89,2.487c0.106,0.858,0.05,1.683-0.171,2.466c-0.221,0.786-0.587,1.518-1.099,2.195
		c-0.512,0.68-1.146,1.25-1.904,1.71c-0.743,0.452-1.533,0.753-2.366,0.901c-0.834,0.148-1.653,0.137-2.455-0.035
		c-0.804-0.173-1.559-0.501-2.268-0.984C88.297,192.217,87.695,191.568,87.202,190.756z M90.587,183.804
		c-0.564,0.344-1.031,0.754-1.4,1.232c-0.369,0.48-0.635,0.99-0.796,1.531c-0.162,0.542-0.214,1.092-0.156,1.651
		c0.057,0.56,0.236,1.087,0.538,1.583c0.301,0.496,0.687,0.898,1.157,1.207c0.47,0.309,0.988,0.516,1.555,0.625
		c0.565,0.109,1.149,0.107,1.752-0.004c0.602-0.111,1.186-0.338,1.751-0.682c0.551-0.334,1.014-0.744,1.39-1.228
		c0.376-0.482,0.646-1.001,0.811-1.553c0.163-0.553,0.217-1.108,0.16-1.668c-0.058-0.56-0.236-1.087-0.538-1.583
		c-0.301-0.496-0.69-0.896-1.168-1.2c-0.477-0.304-0.997-0.507-1.559-0.609c-0.562-0.102-1.144-0.097-1.746,0.014
		C91.735,183.233,91.152,183.46,90.587,183.804z"/>
	<path fill="#D2D2D2" d="M97.042,194.284c0.757-0.461,1.553-0.766,2.387-0.914s1.649-0.135,2.445,0.042s1.545,0.509,2.247,0.997
		c0.702,0.487,1.305,1.145,1.807,1.972c0.653,1.074,0.979,2.145,0.977,3.213c-0.002,1.067-0.281,2.043-0.838,2.928l-1.638-1.437
		c0.342-0.586,0.504-1.213,0.484-1.881c-0.019-0.666-0.212-1.303-0.581-1.91c-0.301-0.496-0.686-0.903-1.153-1.223
		c-0.468-0.32-0.977-0.529-1.527-0.629c-0.551-0.098-1.123-0.095-1.719,0.013c-0.596,0.106-1.182,0.336-1.761,0.688
		c-0.565,0.343-1.036,0.762-1.415,1.256s-0.652,1.014-0.82,1.56s-0.225,1.099-0.167,1.658s0.236,1.087,0.538,1.583
		c0.192,0.317,0.428,0.603,0.705,0.858s0.57,0.465,0.877,0.627c0.307,0.163,0.617,0.28,0.936,0.353
		c0.316,0.071,0.617,0.077,0.901,0.017l0.543,2.103c-0.5,0.078-1.005,0.07-1.516-0.025c-0.511-0.095-1.005-0.271-1.481-0.529
		c-0.478-0.256-0.934-0.588-1.368-0.993s-0.815-0.877-1.142-1.413c-0.494-0.813-0.795-1.649-0.902-2.508
		c-0.107-0.859-0.053-1.686,0.164-2.477c0.217-0.793,0.584-1.529,1.104-2.214C95.646,195.315,96.284,194.744,97.042,194.284z"/>
	<path fill="#D2D2D2" d="M103.646,217.349l3.009-6.922l-3.198-0.887l-3.327,2.022l-1.105-1.818l15.084-9.168l1.105,1.818
		l-9.918,6.028l8.966,2.135l1.218,2.004l-7.076-1.586l-3.563,8.336L103.646,217.349z"/>
</g>
<g>
	<path fill="#D2D2D2" d="M51.335,167.065c-0.316-0.521-0.477-1.073-0.479-1.657c-0.004-0.583,0.124-1.123,0.384-1.62l-1.256,0.764
		l-0.607-1l9.356-5.687l0.686,1.127l-3.999,2.431c0.607,0.017,1.168,0.151,1.682,0.399c0.515,0.25,0.938,0.647,1.271,1.195
		c0.28,0.462,0.434,0.935,0.461,1.422c0.026,0.487-0.041,0.958-0.203,1.414c-0.162,0.456-0.411,0.883-0.749,1.28
		c-0.338,0.398-0.729,0.732-1.172,1.002c-0.471,0.286-0.964,0.475-1.482,0.567c-0.517,0.091-1.017,0.092-1.501-0.001
		c-0.483-0.092-0.935-0.277-1.354-0.554C51.95,167.871,51.604,167.51,51.335,167.065z M52.138,166.191
		c0.203,0.333,0.458,0.6,0.766,0.798c0.309,0.199,0.641,0.332,0.996,0.396c0.355,0.063,0.714,0.063,1.076-0.006
		c0.363-0.067,0.706-0.2,1.031-0.397c0.324-0.197,0.605-0.442,0.845-0.733c0.237-0.292,0.414-0.604,0.528-0.936
		c0.113-0.332,0.159-0.676,0.137-1.03c-0.023-0.355-0.133-0.695-0.33-1.021c-0.146-0.239-0.326-0.438-0.541-0.601
		s-0.449-0.291-0.702-0.389c-0.253-0.099-0.516-0.161-0.79-0.188c-0.273-0.027-0.549-0.027-0.824,0l-1.936,1.176
		c-0.188,0.173-0.328,0.385-0.422,0.634c-0.094,0.251-0.148,0.513-0.164,0.786s0.005,0.542,0.061,0.806
		C51.923,165.751,52.013,165.986,52.138,166.191z"/>
	<path fill="#D2D2D2" d="M55.901,174.577c-0.308-0.505-0.496-1.023-0.566-1.553c-0.071-0.53-0.039-1.041,0.096-1.531
		c0.133-0.492,0.361-0.949,0.684-1.373s0.717-0.779,1.188-1.064c0.47-0.286,0.965-0.472,1.484-0.561
		c0.52-0.087,1.031-0.075,1.531,0.035c0.501,0.112,0.97,0.32,1.408,0.627s0.811,0.712,1.117,1.217
		c0.307,0.504,0.491,1.021,0.555,1.548c0.064,0.529,0.029,1.034-0.106,1.514c-0.136,0.48-0.362,0.925-0.681,1.336
		c-0.318,0.409-0.7,0.75-1.145,1.02c-0.094,0.057-0.181,0.107-0.26,0.15c-0.08,0.041-0.144,0.072-0.191,0.089l-3.373-5.551
		c-0.317,0.229-0.574,0.491-0.77,0.785c-0.195,0.295-0.33,0.604-0.401,0.929c-0.072,0.324-0.084,0.65-0.037,0.979
		c0.048,0.328,0.16,0.638,0.336,0.928c0.125,0.205,0.274,0.389,0.45,0.553c0.174,0.162,0.36,0.301,0.559,0.414
		s0.406,0.195,0.623,0.244c0.217,0.051,0.432,0.057,0.645,0.021l0.322,1.139c-0.314,0.04-0.634,0.025-0.955-0.042
		c-0.322-0.068-0.635-0.182-0.938-0.344c-0.303-0.16-0.591-0.369-0.863-0.625C56.341,175.204,56.103,174.91,55.901,174.577z
		 M61.217,174.487c0.301-0.219,0.546-0.475,0.734-0.771c0.188-0.296,0.315-0.602,0.382-0.916c0.066-0.316,0.072-0.638,0.018-0.968
		s-0.172-0.644-0.354-0.942s-0.407-0.549-0.675-0.75c-0.268-0.199-0.559-0.341-0.874-0.426c-0.313-0.084-0.641-0.107-0.98-0.069
		c-0.341,0.036-0.677,0.138-1.009,0.306L61.217,174.487z"/>
	<path fill="#D2D2D2" d="M59.749,180.909c-0.191-0.316-0.318-0.643-0.377-0.982c-0.06-0.338-0.057-0.665,0.009-0.98
		c0.066-0.314,0.19-0.606,0.372-0.875c0.183-0.269,0.423-0.493,0.722-0.676c0.308-0.187,0.63-0.288,0.965-0.305
		s0.669,0.047,1.001,0.189c0.333,0.143,0.656,0.357,0.969,0.641s0.594,0.63,0.844,1.041c0.197,0.324,0.367,0.672,0.51,1.041
		s0.24,0.714,0.294,1.033l0.538-0.328c0.547-0.332,0.883-0.747,1.009-1.243c0.124-0.499,0.016-1.028-0.327-1.593
		c-0.41-0.676-1.103-1.226-2.075-1.652l0.505-0.816c1.105,0.511,1.923,1.201,2.453,2.073c0.535,0.879,0.717,1.708,0.545,2.485
		s-0.684,1.426-1.539,1.944l-2.729,1.659c-0.266,0.162-0.329,0.365-0.192,0.608l-0.975,0.592c-0.09-0.108-0.162-0.2-0.217-0.271
		c-0.056-0.072-0.109-0.151-0.162-0.236c-0.135-0.222-0.176-0.439-0.123-0.652c0.051-0.213,0.163-0.39,0.336-0.529l0.459-0.314
		c-0.584-0.055-1.119-0.247-1.605-0.576C60.469,181.856,60.065,181.43,59.749,180.909z M60.774,180.689
		c0.244,0.401,0.546,0.73,0.905,0.985c0.36,0.256,0.719,0.397,1.076,0.427c0.261,0.063,0.477,0.043,0.647-0.062l0.987-0.6
		c-0.119-0.676-0.357-1.31-0.716-1.899c-0.343-0.563-0.742-0.95-1.197-1.16c-0.454-0.209-0.874-0.197-1.259,0.037
		c-0.188,0.114-0.341,0.257-0.458,0.429c-0.119,0.171-0.198,0.359-0.236,0.564c-0.04,0.205-0.039,0.418,0.002,0.639
		C60.567,180.271,60.649,180.483,60.774,180.689z"/>
	<path fill="#D2D2D2" d="M65.555,189.422c-0.075-0.048-0.171-0.112-0.285-0.196c-0.114-0.081-0.238-0.179-0.371-0.292
		c-0.133-0.112-0.265-0.242-0.396-0.391c-0.131-0.149-0.251-0.312-0.36-0.492c-0.249-0.409-0.353-0.833-0.308-1.271
		c0.045-0.436,0.307-0.799,0.785-1.09l4.5-2.735l-0.554-0.911l0.885-0.537l0.553,0.911l2.23-1.356l0.686,1.127l-2.23,1.356
		l0.911,1.5l-0.885,0.537l-0.91-1.5l-4.153,2.524c-0.238,0.168-0.368,0.358-0.391,0.571c-0.022,0.212,0.026,0.417,0.146,0.612
		c0.135,0.225,0.294,0.404,0.479,0.544c0.184,0.14,0.318,0.23,0.402,0.272L65.555,189.422z"/>
	<path fill="#D2D2D2" d="M67.158,193.099c-0.327-0.538-0.566-1.119-0.716-1.741c-0.15-0.622-0.182-1.218-0.094-1.786L67.4,189.6
		c-0.06,0.574-0.045,1.104,0.044,1.588c0.09,0.484,0.266,0.944,0.531,1.38c0.296,0.486,0.627,0.814,0.994,0.984
		c0.366,0.17,0.724,0.148,1.074-0.065c0.162-0.099,0.278-0.222,0.347-0.368c0.069-0.147,0.099-0.324,0.091-0.529
		s-0.051-0.449-0.127-0.729c-0.078-0.28-0.174-0.604-0.289-0.967c-0.142-0.464-0.254-0.87-0.336-1.217
		c-0.083-0.347-0.117-0.655-0.104-0.921c0.015-0.266,0.084-0.495,0.212-0.689c0.128-0.195,0.323-0.373,0.589-0.533
		c0.333-0.203,0.67-0.317,1.012-0.344c0.342-0.025,0.669,0.023,0.985,0.147c0.315,0.124,0.612,0.315,0.892,0.573
		c0.279,0.257,0.528,0.565,0.746,0.924c0.307,0.504,0.511,1.023,0.613,1.559c0.103,0.533,0.112,1.031,0.029,1.492l-0.991-0.101
		c0.076-0.433,0.07-0.862-0.019-1.287c-0.089-0.426-0.246-0.823-0.469-1.19c-0.249-0.41-0.549-0.705-0.897-0.885
		c-0.35-0.18-0.716-0.152-1.101,0.082c-0.154,0.094-0.266,0.198-0.334,0.316c-0.069,0.117-0.104,0.264-0.102,0.439
		c0.001,0.175,0.032,0.381,0.094,0.617c0.063,0.238,0.146,0.518,0.249,0.842c0.167,0.506,0.298,0.957,0.391,1.351
		s0.134,0.744,0.12,1.05c-0.013,0.307-0.084,0.572-0.216,0.8c-0.132,0.226-0.339,0.425-0.62,0.597
		c-0.625,0.379-1.266,0.439-1.924,0.186C68.228,194.444,67.651,193.911,67.158,193.099z"/>
	<path fill="#D2D2D2" d="M72.978,202.674c-0.326-0.538-0.565-1.119-0.716-1.741c-0.15-0.623-0.182-1.219-0.094-1.785l1.053,0.027
		c-0.061,0.574-0.046,1.104,0.044,1.588c0.089,0.484,0.266,0.943,0.531,1.381c0.295,0.486,0.627,0.814,0.993,0.983
		c0.366,0.17,0.724,0.147,1.074-0.065c0.163-0.099,0.278-0.222,0.347-0.368c0.068-0.147,0.1-0.323,0.092-0.53
		c-0.009-0.205-0.052-0.449-0.128-0.729c-0.077-0.281-0.174-0.604-0.289-0.967c-0.142-0.463-0.254-0.869-0.337-1.217
		c-0.082-0.348-0.116-0.655-0.102-0.92c0.014-0.266,0.084-0.496,0.212-0.69c0.127-0.194,0.323-0.373,0.589-0.534
		c0.333-0.202,0.67-0.316,1.011-0.343c0.341-0.025,0.67,0.023,0.985,0.147c0.314,0.124,0.612,0.314,0.892,0.572
		c0.28,0.258,0.528,0.566,0.747,0.925c0.307,0.504,0.51,1.022,0.613,1.558c0.103,0.535,0.111,1.031,0.029,1.492l-0.992-0.1
		c0.076-0.433,0.07-0.861-0.018-1.287c-0.09-0.426-0.246-0.822-0.47-1.189c-0.249-0.41-0.548-0.706-0.897-0.886
		s-0.716-0.152-1.1,0.081c-0.154,0.094-0.266,0.199-0.335,0.317c-0.068,0.117-0.103,0.263-0.102,0.438s0.033,0.382,0.095,0.618
		c0.062,0.237,0.146,0.518,0.248,0.842c0.167,0.505,0.298,0.957,0.391,1.351c0.094,0.394,0.134,0.744,0.121,1.051
		c-0.014,0.306-0.086,0.572-0.217,0.799c-0.132,0.226-0.338,0.425-0.62,0.596c-0.624,0.38-1.266,0.44-1.924,0.187
		C74.047,204.019,73.472,203.486,72.978,202.674z"/>
	<path fill="#D2D2D2" d="M78.614,204.094c0.471-0.286,0.964-0.476,1.481-0.567s1.022-0.082,1.517,0.025
		c0.494,0.11,0.958,0.316,1.395,0.619c0.435,0.303,0.809,0.711,1.121,1.224c0.404,0.666,0.606,1.331,0.605,1.992
		c-0.002,0.663-0.176,1.268-0.52,1.817l-1.017-0.893c0.212-0.362,0.312-0.751,0.301-1.166c-0.012-0.413-0.132-0.81-0.36-1.185
		c-0.188-0.308-0.426-0.561-0.716-0.759s-0.606-0.328-0.948-0.39c-0.341-0.062-0.696-0.06-1.065,0.007
		c-0.37,0.066-0.733,0.209-1.093,0.428c-0.351,0.213-0.643,0.473-0.878,0.778c-0.234,0.308-0.404,0.63-0.509,0.968
		c-0.104,0.339-0.139,0.682-0.104,1.029s0.146,0.674,0.334,0.982c0.119,0.195,0.265,0.373,0.438,0.532
		c0.172,0.158,0.354,0.288,0.545,0.389c0.189,0.101,0.382,0.174,0.579,0.219c0.196,0.044,0.383,0.048,0.56,0.011l0.337,1.305
		c-0.311,0.048-0.623,0.043-0.94-0.018c-0.316-0.059-0.623-0.168-0.919-0.326c-0.296-0.16-0.579-0.366-0.849-0.617
		c-0.271-0.252-0.506-0.544-0.709-0.877c-0.307-0.505-0.493-1.023-0.559-1.555c-0.067-0.533-0.033-1.047,0.102-1.537
		c0.134-0.492,0.362-0.949,0.684-1.373C77.749,204.733,78.145,204.38,78.614,204.094z"/>
	<path fill="#D2D2D2" d="M79.845,213.685l6.691-4.066l0.686,1.127l-6.691,4.066L79.845,213.685z M87.792,208.854l1.41-0.857
		l0.686,1.127l-1.41,0.857L87.792,208.854z"/>
	<path fill="#D2D2D2" d="M82.935,219.056c-0.328-0.538-0.566-1.119-0.716-1.741c-0.151-0.622-0.183-1.218-0.095-1.786l1.053,0.028
		c-0.061,0.574-0.046,1.104,0.043,1.588c0.09,0.484,0.268,0.942,0.532,1.38c0.296,0.486,0.628,0.814,0.993,0.984
		c0.366,0.169,0.725,0.146,1.075-0.066c0.162-0.099,0.277-0.221,0.347-0.368c0.068-0.146,0.099-0.323,0.091-0.528
		c-0.009-0.205-0.052-0.449-0.128-0.73c-0.077-0.281-0.174-0.603-0.288-0.966c-0.142-0.464-0.254-0.87-0.337-1.217
		c-0.082-0.349-0.117-0.655-0.103-0.921c0.014-0.266,0.085-0.496,0.212-0.69c0.128-0.194,0.324-0.372,0.589-0.532
		c0.333-0.203,0.67-0.318,1.012-0.344c0.341-0.025,0.669,0.022,0.984,0.147c0.315,0.124,0.612,0.315,0.893,0.571
		c0.279,0.259,0.528,0.566,0.746,0.926c0.306,0.504,0.511,1.023,0.614,1.559c0.102,0.533,0.111,1.031,0.028,1.492l-0.991-0.102
		c0.076-0.433,0.07-0.861-0.019-1.286c-0.089-0.426-0.246-0.823-0.469-1.19c-0.249-0.41-0.549-0.705-0.898-0.886
		c-0.349-0.18-0.716-0.152-1.101,0.081c-0.153,0.094-0.265,0.199-0.333,0.318c-0.069,0.117-0.104,0.264-0.103,0.439
		c0.002,0.174,0.033,0.381,0.096,0.617c0.062,0.238,0.145,0.518,0.248,0.841c0.167,0.507,0.297,0.958,0.391,1.351
		c0.093,0.395,0.133,0.744,0.121,1.051c-0.014,0.306-0.086,0.572-0.218,0.799s-0.338,0.425-0.62,0.596
		c-0.623,0.38-1.265,0.441-1.923,0.187C84.003,220.401,83.428,219.867,82.935,219.056z"/>
	<path fill="#D2D2D2" d="M86.783,225.388c-0.327-0.538-0.566-1.119-0.716-1.741c-0.151-0.622-0.182-1.218-0.094-1.786l1.052,0.028
		c-0.06,0.574-0.046,1.104,0.044,1.588c0.09,0.484,0.266,0.944,0.531,1.38c0.296,0.486,0.627,0.814,0.994,0.984
		c0.366,0.169,0.724,0.148,1.074-0.065c0.162-0.099,0.277-0.222,0.347-0.368c0.068-0.147,0.099-0.324,0.091-0.529
		s-0.051-0.449-0.128-0.729c-0.077-0.282-0.173-0.604-0.288-0.967c-0.142-0.464-0.254-0.87-0.337-1.217
		c-0.082-0.347-0.116-0.655-0.103-0.921s0.084-0.495,0.212-0.69c0.128-0.194,0.323-0.372,0.589-0.532
		c0.333-0.203,0.67-0.318,1.012-0.344c0.341-0.025,0.669,0.023,0.985,0.147c0.314,0.124,0.612,0.315,0.892,0.571
		c0.279,0.259,0.527,0.567,0.746,0.926c0.307,0.504,0.51,1.023,0.613,1.559c0.103,0.533,0.112,1.031,0.029,1.492l-0.991-0.101
		c0.076-0.433,0.069-0.862-0.019-1.287c-0.089-0.426-0.246-0.823-0.469-1.19c-0.249-0.41-0.549-0.705-0.898-0.885
		c-0.349-0.18-0.716-0.153-1.1,0.08c-0.154,0.094-0.266,0.2-0.334,0.318c-0.069,0.117-0.104,0.264-0.102,0.439
		c0.001,0.174,0.032,0.381,0.094,0.617c0.062,0.238,0.146,0.518,0.249,0.842c0.167,0.506,0.298,0.957,0.391,1.35
		c0.093,0.395,0.134,0.744,0.12,1.051c-0.013,0.307-0.085,0.572-0.217,0.8c-0.132,0.226-0.338,0.425-0.619,0.597
		c-0.625,0.379-1.266,0.439-1.924,0.186C87.853,226.733,87.276,226.2,86.783,225.388z"/>
	<path fill="#D2D2D2" d="M90.982,232.298c-0.307-0.505-0.491-1.021-0.556-1.551c-0.064-0.527-0.027-1.035,0.109-1.522
		s0.365-0.939,0.686-1.356s0.711-0.766,1.173-1.046c0.47-0.286,0.965-0.472,1.484-0.561c0.521-0.087,1.028-0.079,1.523,0.022
		c0.495,0.104,0.963,0.305,1.403,0.605c0.438,0.299,0.811,0.697,1.111,1.193c0.301,0.495,0.484,1.01,0.551,1.543
		c0.067,0.533,0.031,1.043-0.104,1.529c-0.138,0.487-0.365,0.941-0.683,1.362c-0.316,0.421-0.711,0.774-1.181,1.061
		c-0.461,0.28-0.951,0.466-1.469,0.558c-0.517,0.093-1.024,0.086-1.522-0.021s-0.967-0.311-1.407-0.609
		C91.662,233.203,91.289,232.802,90.982,232.298z M93.082,227.983c-0.351,0.213-0.64,0.468-0.868,0.766
		c-0.229,0.297-0.395,0.613-0.494,0.95c-0.1,0.335-0.133,0.677-0.097,1.024c0.035,0.347,0.146,0.674,0.333,0.982
		c0.188,0.307,0.427,0.557,0.719,0.747c0.291,0.191,0.613,0.321,0.965,0.389c0.351,0.067,0.713,0.066,1.086-0.003
		c0.373-0.068,0.735-0.21,1.086-0.423c0.342-0.208,0.629-0.462,0.863-0.761c0.232-0.3,0.4-0.621,0.502-0.964s0.135-0.688,0.1-1.035
		c-0.035-0.347-0.146-0.675-0.334-0.981c-0.187-0.309-0.429-0.557-0.725-0.744c-0.296-0.189-0.618-0.315-0.967-0.378
		c-0.349-0.063-0.709-0.061-1.083,0.009C93.794,227.63,93.433,227.771,93.082,227.983z"/>
	<path fill="#D2D2D2" d="M101.855,237.046c-0.36-0.553-0.809-0.964-1.344-1.229c-0.536-0.266-1.102-0.34-1.697-0.224l-4.128,2.509
		l-0.686-1.127l6.691-4.066l0.639,1.051l-1.551,0.942c0.602-0.05,1.159,0.026,1.674,0.229c0.516,0.201,0.919,0.506,1.213,0.912
		c0.053,0.086,0.097,0.158,0.133,0.219c0.036,0.06,0.063,0.114,0.081,0.161L101.855,237.046z"/>
	<path fill="#D2D2D2" d="M98.126,244.052c-0.326-0.538-0.565-1.119-0.715-1.741c-0.151-0.622-0.183-1.218-0.094-1.786l1.052,0.028
		c-0.06,0.574-0.046,1.104,0.044,1.588c0.09,0.484,0.266,0.942,0.531,1.38c0.296,0.486,0.627,0.814,0.994,0.984
		c0.365,0.169,0.724,0.146,1.074-0.066c0.162-0.099,0.277-0.221,0.347-0.368c0.068-0.146,0.099-0.323,0.091-0.528
		c-0.009-0.205-0.051-0.449-0.128-0.73s-0.173-0.603-0.289-0.966c-0.141-0.464-0.253-0.87-0.336-1.217
		c-0.082-0.349-0.116-0.655-0.103-0.921s0.084-0.496,0.212-0.69s0.323-0.372,0.589-0.532c0.333-0.203,0.67-0.318,1.012-0.344
		c0.341-0.025,0.669,0.022,0.984,0.147c0.315,0.124,0.613,0.315,0.893,0.571c0.279,0.259,0.527,0.566,0.746,0.926
		c0.307,0.504,0.51,1.023,0.613,1.559c0.103,0.533,0.112,1.031,0.029,1.492l-0.991-0.102c0.076-0.433,0.069-0.861-0.019-1.286
		c-0.089-0.426-0.246-0.823-0.469-1.19c-0.249-0.41-0.549-0.705-0.898-0.886c-0.349-0.18-0.716-0.152-1.1,0.081
		c-0.154,0.094-0.266,0.199-0.334,0.318c-0.069,0.117-0.104,0.264-0.102,0.439c0.001,0.174,0.032,0.381,0.094,0.617
		c0.062,0.238,0.146,0.518,0.249,0.841c0.167,0.507,0.298,0.958,0.39,1.351c0.094,0.395,0.134,0.744,0.121,1.051
		c-0.013,0.306-0.085,0.572-0.217,0.799s-0.338,0.425-0.619,0.596c-0.625,0.38-1.266,0.441-1.924,0.187
		S98.62,244.863,98.126,244.052z"/>
</g>
<g>
	<path fill="#D2D2D2" d="M245.963,220.859l-14.918-8.496l3.542-6.22c0.375-0.658,0.856-1.187,1.445-1.584s1.224-0.667,1.906-0.807
		s1.371-0.16,2.066-0.062c0.694,0.1,1.336,0.316,1.925,0.652c0.616,0.35,1.152,0.795,1.606,1.331
		c0.455,0.537,0.797,1.127,1.025,1.767c0.229,0.641,0.322,1.307,0.282,1.998c-0.042,0.69-0.249,1.365-0.624,2.023l-2.537,4.454
		l5.357,3.052L245.963,220.859z M240.001,214.959l2.478-4.349c0.223-0.393,0.345-0.792,0.362-1.199
		c0.019-0.406-0.052-0.804-0.212-1.191c-0.158-0.388-0.392-0.752-0.699-1.094c-0.306-0.342-0.668-0.632-1.089-0.871
		c-0.434-0.247-0.883-0.405-1.344-0.474c-0.463-0.068-0.903-0.06-1.323,0.026c-0.42,0.085-0.801,0.249-1.142,0.49
		s-0.617,0.544-0.824,0.908l-2.405,4.224L240.001,214.959z"/>
	<path fill="#D2D2D2" d="M254.993,205.494c-0.295,0.519-0.659,0.951-1.089,1.301c-0.431,0.349-0.893,0.6-1.389,0.753
		c-0.495,0.153-1.004,0.207-1.525,0.161c-0.521-0.047-1.025-0.209-1.516-0.488c-0.505-0.287-0.9-0.66-1.186-1.12
		c-0.286-0.459-0.458-0.979-0.518-1.561c-0.059-0.58-0.011-1.202,0.145-1.866c0.155-0.662,0.425-1.33,0.808-2.003
		c0.303-0.532,0.659-1.044,1.068-1.533c0.409-0.491,0.818-0.897,1.226-1.223l-0.883-0.503c-0.896-0.51-1.744-0.659-2.542-0.446
		c-0.799,0.214-1.461,0.782-1.987,1.707c-0.631,1.106-0.866,2.513-0.705,4.217l-1.545-0.072c-0.146-1.957,0.186-3.65,1-5.079
		c0.821-1.442,1.848-2.348,3.076-2.714c1.229-0.366,2.544-0.151,3.945,0.647l4.476,2.549c0.434,0.247,0.771,0.179,1.007-0.206
		l1.597,0.909c-0.083,0.213-0.154,0.385-0.212,0.52s-0.127,0.271-0.206,0.411c-0.208,0.364-0.481,0.593-0.823,0.687
		c-0.34,0.094-0.677,0.074-1.009-0.061l-0.801-0.4c0.379,0.866,0.526,1.771,0.442,2.715
		C255.764,203.74,255.48,204.641,254.993,205.494z M253.881,204.221c0.375-0.658,0.603-1.341,0.68-2.048s-0.002-1.322-0.241-1.849
		c-0.114-0.417-0.312-0.706-0.592-0.865l-1.617-0.922c-0.861,0.697-1.566,1.529-2.117,2.496c-0.526,0.924-0.759,1.789-0.698,2.594
		c0.062,0.805,0.407,1.387,1.036,1.744c0.31,0.177,0.63,0.28,0.963,0.312c0.335,0.033,0.662-0.003,0.981-0.108
		c0.32-0.106,0.619-0.274,0.899-0.505C253.454,204.841,253.689,204.557,253.881,204.221z"/>
	<path fill="#D2D2D2" d="M263.382,190.766c-0.519,0.911-1.199,1.585-2.043,2.022c-0.843,0.438-1.724,0.666-2.642,0.681l6.64,3.781
		l-1.053,1.85l-15.443-8.797l0.934-1.639l2.06,1.174c-0.426-0.817-0.646-1.69-0.666-2.619c-0.018-0.929,0.212-1.813,0.69-2.654
		c0.431-0.756,0.98-1.361,1.647-1.816s1.395-0.764,2.184-0.928c0.789-0.162,1.6-0.178,2.434-0.047
		c0.834,0.133,1.623,0.41,2.365,0.833c0.784,0.446,1.455,0.986,2.014,1.619c0.557,0.634,0.969,1.313,1.231,2.038
		c0.265,0.726,0.375,1.475,0.333,2.248C264.024,189.286,263.797,190.037,263.382,190.766z M261.461,190.424
		c0.312-0.547,0.478-1.105,0.497-1.679c0.021-0.573-0.072-1.127-0.277-1.661c-0.206-0.535-0.506-1.025-0.901-1.473
		c-0.394-0.447-0.851-0.819-1.368-1.114c-0.547-0.312-1.124-0.51-1.733-0.598c-0.608-0.087-1.194-0.067-1.757,0.057
		c-0.562,0.126-1.082,0.354-1.56,0.685c-0.476,0.332-0.865,0.764-1.169,1.296c-0.191,0.336-0.323,0.721-0.393,1.153
		c-0.071,0.434-0.087,0.869-0.049,1.308c0.037,0.439,0.142,0.86,0.311,1.263s0.402,0.734,0.698,0.996l3.13,1.783
		c0.453,0.054,0.904,0.051,1.354-0.008c0.451-0.059,0.879-0.177,1.286-0.354c0.407-0.176,0.777-0.4,1.109-0.676
		C260.972,191.129,261.246,190.802,261.461,190.424z"/>
	<path fill="#D2D2D2" d="M270.239,178.727c-0.471,0.826-1.053,1.497-1.746,2.012c-0.691,0.515-1.436,0.87-2.233,1.065
		s-1.621,0.231-2.47,0.109c-0.849-0.121-1.658-0.401-2.429-0.841c-0.771-0.438-1.421-0.99-1.952-1.654
		c-0.53-0.664-0.913-1.393-1.148-2.185c-0.234-0.792-0.308-1.617-0.218-2.476c0.09-0.857,0.369-1.699,0.84-2.526
		c0.471-0.826,1.054-1.491,1.75-1.996c0.694-0.503,1.434-0.848,2.215-1.033c0.783-0.185,1.588-0.213,2.415-0.085
		s1.604,0.398,2.333,0.813c0.154,0.088,0.292,0.171,0.414,0.25s0.214,0.146,0.276,0.199l-5.182,9.098
		c0.569,0.269,1.14,0.427,1.706,0.472c0.569,0.045,1.11-0.009,1.623-0.162c0.514-0.152,0.983-0.391,1.409-0.714
		c0.425-0.323,0.773-0.724,1.045-1.2c0.191-0.336,0.333-0.689,0.426-1.064c0.092-0.374,0.142-0.745,0.147-1.113
		c0.005-0.367-0.042-0.724-0.143-1.068s-0.259-0.652-0.477-0.925l1.352-1.346c0.303,0.414,0.532,0.873,0.689,1.38
		c0.156,0.507,0.238,1.037,0.249,1.59c0.009,0.553-0.059,1.121-0.206,1.705S270.551,178.18,270.239,178.727z M265.951,171.304
		c-0.542-0.253-1.096-0.396-1.66-0.431c-0.565-0.034-1.096,0.025-1.591,0.179c-0.496,0.154-0.956,0.398-1.378,0.732
		c-0.422,0.335-0.773,0.747-1.053,1.237s-0.455,1.002-0.527,1.536s-0.044,1.056,0.084,1.563c0.127,0.509,0.351,0.989,0.669,1.439
		s0.726,0.844,1.22,1.182L265.951,171.304z"/>
	<path fill="#D2D2D2" d="M268.289,159.919c-0.498,0.94-0.726,1.892-0.68,2.854s0.383,1.818,1.015,2.567l6.766,3.854l-1.054,1.849
		l-10.968-6.247l0.981-1.723l2.542,1.448c-0.54-0.809-0.869-1.655-0.989-2.539c-0.116-0.883-0.006-1.691,0.338-2.424
		c0.08-0.14,0.147-0.259,0.203-0.357c0.056-0.098,0.11-0.178,0.166-0.24L268.289,159.919z"/>
</g>
<g>
	<path fill="#D2D2D2" d="M261.681,230.823c-0.302,0.53-0.707,0.938-1.215,1.224c-0.509,0.286-1.044,0.437-1.604,0.451l1.277,0.727
		l-0.579,1.018l-9.516-5.42l0.653-1.146l4.067,2.316c-0.28-0.54-0.436-1.094-0.468-1.665c-0.031-0.57,0.11-1.134,0.427-1.689
		c0.268-0.47,0.608-0.834,1.021-1.095c0.413-0.259,0.857-0.429,1.334-0.508c0.477-0.08,0.972-0.068,1.483,0.033
		s0.993,0.281,1.445,0.538c0.478,0.272,0.883,0.612,1.215,1.02c0.332,0.408,0.574,0.845,0.729,1.312
		c0.152,0.468,0.211,0.952,0.173,1.454C262.085,229.895,261.938,230.371,261.681,230.823z M260.525,230.545
		c0.193-0.339,0.303-0.691,0.327-1.057c0.024-0.366-0.022-0.721-0.138-1.062s-0.291-0.654-0.527-0.939
		c-0.235-0.283-0.518-0.519-0.848-0.707c-0.33-0.188-0.682-0.315-1.051-0.383c-0.37-0.067-0.729-0.069-1.074-0.008
		c-0.347,0.062-0.669,0.189-0.968,0.381c-0.3,0.192-0.543,0.453-0.731,0.783c-0.139,0.244-0.226,0.499-0.264,0.766
		c-0.036,0.267-0.036,0.534,0.001,0.803s0.11,0.529,0.22,0.781s0.242,0.492,0.4,0.721l1.968,1.12
		c0.243,0.081,0.495,0.101,0.76,0.062s0.52-0.118,0.766-0.237c0.246-0.118,0.472-0.267,0.676-0.444
		C260.246,230.946,260.407,230.754,260.525,230.545z"/>
	<path fill="#D2D2D2" d="M266.03,223.186c-0.292,0.513-0.653,0.928-1.082,1.248c-0.429,0.319-0.891,0.539-1.386,0.66
		s-1.006,0.144-1.532,0.068c-0.526-0.076-1.029-0.25-1.507-0.521c-0.478-0.272-0.881-0.614-1.211-1.026
		c-0.329-0.412-0.565-0.864-0.713-1.355c-0.146-0.491-0.191-1.003-0.135-1.536c0.056-0.531,0.229-1.054,0.521-1.566
		s0.654-0.925,1.085-1.238c0.432-0.312,0.89-0.525,1.374-0.642c0.485-0.114,0.984-0.132,1.498-0.053s0.996,0.248,1.448,0.505
		c0.095,0.055,0.182,0.106,0.257,0.155c0.076,0.049,0.133,0.09,0.172,0.124l-3.215,5.643c0.353,0.167,0.707,0.266,1.059,0.293
		c0.353,0.027,0.688-0.005,1.006-0.101c0.319-0.094,0.61-0.241,0.874-0.442s0.48-0.449,0.648-0.744
		c0.119-0.209,0.208-0.429,0.264-0.661c0.059-0.231,0.089-0.462,0.092-0.69s-0.026-0.449-0.089-0.664
		c-0.062-0.213-0.16-0.404-0.294-0.572l0.837-0.835c0.188,0.257,0.331,0.542,0.428,0.855c0.098,0.315,0.149,0.644,0.155,0.987
		c0.006,0.342-0.036,0.695-0.128,1.057C266.365,222.496,266.224,222.847,266.03,223.186z M263.37,218.58
		c-0.335-0.156-0.679-0.246-1.03-0.268c-0.349-0.021-0.679,0.017-0.985,0.111c-0.308,0.096-0.593,0.247-0.854,0.455
		c-0.263,0.207-0.479,0.463-0.652,0.767c-0.174,0.305-0.283,0.622-0.328,0.953c-0.044,0.332-0.027,0.655,0.052,0.97
		c0.08,0.316,0.218,0.614,0.415,0.894c0.197,0.278,0.45,0.523,0.756,0.732L263.37,218.58z"/>
	<path fill="#D2D2D2" d="M269.697,216.746c-0.183,0.322-0.407,0.591-0.674,0.807c-0.268,0.217-0.556,0.372-0.862,0.468
		c-0.308,0.096-0.623,0.128-0.945,0.101c-0.324-0.029-0.638-0.131-0.941-0.304c-0.313-0.179-0.558-0.409-0.735-0.694
		c-0.177-0.285-0.284-0.607-0.32-0.969c-0.037-0.359-0.008-0.746,0.09-1.157c0.096-0.411,0.263-0.825,0.5-1.242
		c0.188-0.33,0.409-0.647,0.663-0.952c0.253-0.304,0.506-0.557,0.759-0.758l-0.547-0.312c-0.556-0.316-1.082-0.409-1.576-0.276
		c-0.496,0.132-0.906,0.485-1.233,1.059c-0.391,0.687-0.537,1.559-0.438,2.616l-0.958-0.045c-0.091-1.214,0.115-2.264,0.62-3.15
		c0.51-0.895,1.146-1.456,1.909-1.684c0.763-0.229,1.578-0.094,2.446,0.4l2.776,1.582c0.27,0.153,0.479,0.111,0.625-0.127
		l0.991,0.563c-0.053,0.132-0.096,0.238-0.132,0.321c-0.036,0.084-0.078,0.169-0.128,0.256c-0.129,0.226-0.299,0.367-0.511,0.426
		c-0.211,0.059-0.419,0.046-0.626-0.037l-0.496-0.249c0.234,0.537,0.326,1.099,0.274,1.685S270,216.217,269.697,216.746z
		 M269.008,215.957c0.232-0.408,0.373-0.832,0.421-1.271c0.05-0.438-0.001-0.821-0.148-1.147c-0.071-0.259-0.193-0.438-0.367-0.536
		l-1.004-0.572c-0.534,0.433-0.972,0.948-1.313,1.548c-0.326,0.574-0.471,1.11-0.433,1.609s0.253,0.859,0.644,1.082
		c0.191,0.109,0.391,0.174,0.597,0.194c0.208,0.021,0.41-0.002,0.609-0.068c0.198-0.064,0.384-0.169,0.557-0.312
		C268.744,216.341,268.89,216.165,269.008,215.957z"/>
	<path fill="#D2D2D2" d="M274.321,207.538c-0.005,0.089-0.017,0.204-0.032,0.345c-0.017,0.14-0.042,0.295-0.075,0.466
		c-0.034,0.171-0.085,0.35-0.151,0.536c-0.064,0.187-0.15,0.371-0.254,0.554c-0.238,0.417-0.559,0.712-0.962,0.885
		c-0.404,0.174-0.848,0.121-1.335-0.156l-4.575-2.605l-0.527,0.926l-0.899-0.513l0.527-0.926l-2.268-1.291l0.653-1.147l2.268,1.292
		l0.868-1.525l0.899,0.513l-0.868,1.525l4.224,2.405c0.262,0.126,0.491,0.147,0.688,0.063c0.196-0.083,0.352-0.226,0.466-0.425
		c0.129-0.227,0.209-0.453,0.242-0.682c0.032-0.229,0.047-0.391,0.042-0.485L274.321,207.538z"/>
	<path fill="#D2D2D2" d="M276.758,204.352c-0.312,0.547-0.704,1.038-1.175,1.471c-0.472,0.434-0.977,0.75-1.517,0.949l-0.486-0.933
		c0.532-0.226,0.987-0.497,1.367-0.81s0.695-0.691,0.947-1.135c0.282-0.495,0.408-0.943,0.379-1.346
		c-0.029-0.403-0.223-0.706-0.579-0.908c-0.164-0.094-0.328-0.136-0.489-0.124c-0.162,0.011-0.33,0.07-0.508,0.177
		c-0.176,0.107-0.367,0.263-0.576,0.467c-0.207,0.203-0.442,0.443-0.703,0.721c-0.337,0.35-0.638,0.644-0.901,0.885
		s-0.517,0.42-0.755,0.537c-0.24,0.117-0.476,0.167-0.706,0.149c-0.232-0.017-0.482-0.102-0.753-0.256
		c-0.338-0.192-0.603-0.432-0.791-0.718c-0.188-0.285-0.305-0.597-0.349-0.933c-0.045-0.335-0.022-0.688,0.066-1.058
		c0.09-0.369,0.238-0.736,0.446-1.101c0.292-0.513,0.647-0.944,1.064-1.293c0.418-0.349,0.848-0.599,1.291-0.749l0.394,0.914
		c-0.415,0.144-0.788,0.357-1.117,0.642c-0.328,0.284-0.599,0.614-0.812,0.987c-0.237,0.417-0.351,0.822-0.339,1.215
		c0.013,0.393,0.215,0.699,0.605,0.922c0.156,0.089,0.303,0.136,0.439,0.139s0.28-0.039,0.433-0.125s0.317-0.213,0.495-0.383
		c0.177-0.169,0.382-0.377,0.614-0.625c0.361-0.393,0.693-0.725,0.992-0.997s0.586-0.478,0.859-0.615s0.542-0.204,0.803-0.198
		c0.262,0.005,0.536,0.088,0.823,0.252c0.634,0.361,1,0.892,1.096,1.592C277.414,202.764,277.228,203.526,276.758,204.352z"/>
	<path fill="#D2D2D2" d="M277.062,190.025c-0.31,0.583-0.45,1.173-0.422,1.771s0.237,1.128,0.63,1.593l4.197,2.391l-0.653,1.146
		l-6.805-3.875l0.608-1.068l1.578,0.898c-0.336-0.502-0.54-1.027-0.613-1.575s-0.004-1.049,0.208-1.504
		c0.05-0.087,0.092-0.16,0.127-0.222c0.034-0.061,0.068-0.109,0.102-0.148L277.062,190.025z"/>
	<path fill="#D2D2D2" d="M285.242,189.453c-0.292,0.514-0.653,0.926-1.084,1.238c-0.432,0.312-0.894,0.527-1.386,0.644
		c-0.492,0.117-0.998,0.137-1.519,0.059c-0.52-0.077-1.014-0.249-1.483-0.517c-0.478-0.271-0.882-0.613-1.211-1.025
		s-0.568-0.86-0.72-1.343c-0.15-0.483-0.201-0.989-0.152-1.52s0.216-1.048,0.503-1.552s0.648-0.914,1.082-1.231
		c0.434-0.316,0.896-0.534,1.388-0.65c0.493-0.116,1-0.139,1.522-0.065c0.522,0.074,1.022,0.246,1.5,0.518
		c0.47,0.268,0.87,0.605,1.202,1.013c0.331,0.407,0.572,0.855,0.72,1.342c0.148,0.487,0.198,0.997,0.149,1.527
		S285.534,188.941,285.242,189.453z M280.452,189.712c0.356,0.203,0.72,0.332,1.091,0.388c0.371,0.057,0.728,0.047,1.069-0.029
		c0.342-0.075,0.657-0.213,0.943-0.412c0.286-0.2,0.518-0.456,0.695-0.77c0.179-0.312,0.281-0.643,0.307-0.99
		s-0.017-0.691-0.13-1.031c-0.11-0.34-0.287-0.656-0.529-0.949c-0.24-0.293-0.54-0.541-0.896-0.744
		c-0.347-0.197-0.709-0.326-1.085-0.385c-0.374-0.059-0.737-0.049-1.086,0.029c-0.349,0.077-0.667,0.215-0.953,0.415
		c-0.286,0.199-0.518,0.456-0.696,0.769c-0.178,0.312-0.277,0.645-0.3,0.994c-0.021,0.352,0.025,0.694,0.14,1.029
		c0.114,0.336,0.292,0.649,0.534,0.942C279.796,189.26,280.096,189.509,280.452,189.712z"/>
	<path fill="#D2D2D2" d="M284.192,183.055c-0.478-0.272-0.883-0.612-1.216-1.02c-0.331-0.407-0.569-0.854-0.713-1.339
		c-0.145-0.484-0.189-0.991-0.137-1.519c0.054-0.527,0.229-1.053,0.525-1.574c0.386-0.678,0.868-1.177,1.449-1.497
		c0.579-0.319,1.193-0.462,1.84-0.427l-0.286,1.32c-0.421-0.008-0.81,0.092-1.166,0.304c-0.355,0.211-0.643,0.508-0.86,0.89
		c-0.178,0.313-0.283,0.645-0.316,0.994c-0.032,0.35,0.008,0.689,0.12,1.018c0.111,0.329,0.287,0.639,0.523,0.929
		c0.238,0.291,0.539,0.54,0.904,0.748c0.356,0.203,0.725,0.332,1.106,0.389c0.383,0.057,0.747,0.049,1.093-0.024
		c0.348-0.073,0.664-0.21,0.95-0.409s0.518-0.455,0.695-0.769c0.114-0.199,0.199-0.414,0.254-0.642
		c0.055-0.227,0.08-0.448,0.077-0.663c-0.005-0.216-0.035-0.42-0.092-0.613s-0.144-0.358-0.263-0.494l0.978-0.929
		c0.193,0.249,0.341,0.524,0.442,0.83s0.155,0.627,0.159,0.963c0.005,0.337-0.037,0.684-0.126,1.041
		c-0.09,0.358-0.23,0.706-0.423,1.046c-0.292,0.512-0.655,0.927-1.088,1.244c-0.435,0.316-0.899,0.535-1.394,0.656
		c-0.494,0.122-1.005,0.145-1.531,0.068C285.172,183.5,284.67,183.327,284.192,183.055z"/>
	<path fill="#D2D2D2" d="M294.711,172.526l-4.66,0.453l0.483,2.001l2.099,1.195l-0.653,1.147l-9.516-5.42l0.653-1.146l6.257,3.563
		l-1.544-5.506l0.721-1.264l1.271,4.315l5.594-0.577L294.711,172.526z"/>
</g>
<g>
</g>
</svg>
