<?xml version="1.0" encoding="utf-8" standalone="no"?>
<!DOCTYPE svg PUBLIC "-//W3C//DTD SVG 1.1//EN"
  "http://www.w3.org/Graphics/SVG/1.1/DTD/svg11.dtd">
<!-- Created with matplotlib (http://matplotlib.org/) -->
<svg height="288pt" version="1.1" viewBox="0 0 432 288" width="432pt" xmlns="http://www.w3.org/2000/svg" xmlns:xlink="http://www.w3.org/1999/xlink">
 <defs>
  <style type="text/css">
*{stroke-linecap:butt;stroke-linejoin:round;}
  </style>
 </defs>
 <g id="figure_1">
  <g id="patch_1">
   <path d="M 0 288 
L 432 288 
L 432 0 
L 0 0 
z
" style="fill:none;"/>
  </g>
  <g id="axes_1">
   <g id="patch_2">
    <path d="M 54 252 
L 388.8 252 
L 388.8 34.56 
L 54 34.56 
z
" style="fill:none;"/>
   </g>
   <g id="matplotlib.axis_1">
    <g id="xtick_1">
     <g id="line2d_1">
      <defs>
       <path d="M 0 0 
L 0 4 
" id="m489105c32c" style="stroke:#d2d2d2;"/>
      </defs>
      <g>
       <use style="fill:#d2d2d2;stroke:#d2d2d2;" x="80.364487" xlink:href="#m489105c32c" y="252"/>
      </g>
     </g>
     <g id="text_1">
      <!-- 0.6 -->
      <defs>
       <path d="M 31.78125 66.40625 
Q 24.171875 66.40625 20.328125 58.90625 
Q 16.5 51.421875 16.5 36.375 
Q 16.5 21.390625 20.328125 13.890625 
Q 24.171875 6.390625 31.78125 6.390625 
Q 39.453125 6.390625 43.28125 13.890625 
Q 47.125 21.390625 47.125 36.375 
Q 47.125 51.421875 43.28125 58.90625 
Q 39.453125 66.40625 31.78125 66.40625 
M 31.78125 74.21875 
Q 44.046875 74.21875 50.515625 64.515625 
Q 56.984375 54.828125 56.984375 36.375 
Q 56.984375 17.96875 50.515625 8.265625 
Q 44.046875 -1.421875 31.78125 -1.421875 
Q 19.53125 -1.421875 13.0625 8.265625 
Q 6.59375 17.96875 6.59375 36.375 
Q 6.59375 54.828125 13.0625 64.515625 
Q 19.53125 74.21875 31.78125 74.21875 
" id="DejaVuSans-30"/>
       <path d="M 10.6875 12.40625 
L 21 12.40625 
L 21 0 
L 10.6875 0 
z
" id="DejaVuSans-2e"/>
       <path d="M 33.015625 40.375 
Q 26.375 40.375 22.484375 35.828125 
Q 18.609375 31.296875 18.609375 23.390625 
Q 18.609375 15.53125 22.484375 10.953125 
Q 26.375 6.390625 33.015625 6.390625 
Q 39.65625 6.390625 43.53125 10.953125 
Q 47.40625 15.53125 47.40625 23.390625 
Q 47.40625 31.296875 43.53125 35.828125 
Q 39.65625 40.375 33.015625 40.375 
M 52.59375 71.296875 
L 52.59375 62.3125 
Q 48.875 64.0625 45.09375 64.984375 
Q 41.3125 65.921875 37.59375 65.921875 
Q 27.828125 65.921875 22.671875 59.328125 
Q 17.53125 52.734375 16.796875 39.40625 
Q 19.671875 43.65625 24.015625 45.921875 
Q 28.375 48.1875 33.59375 48.1875 
Q 44.578125 48.1875 50.953125 41.515625 
Q 57.328125 34.859375 57.328125 23.390625 
Q 57.328125 12.15625 50.6875 5.359375 
Q 44.046875 -1.421875 33.015625 -1.421875 
Q 20.359375 -1.421875 13.671875 8.265625 
Q 6.984375 17.96875 6.984375 36.375 
Q 6.984375 53.65625 15.1875 63.9375 
Q 23.390625 74.21875 37.203125 74.21875 
Q 40.921875 74.21875 44.703125 73.484375 
Q 48.484375 72.75 52.59375 71.296875 
" id="DejaVuSans-36"/>
      </defs>
      <g style="fill:#d2d2d2;" transform="translate(70.027456 269.877969)scale(0.13 -0.13)">
       <use xlink:href="#DejaVuSans-30"/>
       <use x="63.623047" xlink:href="#DejaVuSans-2e"/>
       <use x="95.410156" xlink:href="#DejaVuSans-36"/>
      </g>
     </g>
    </g>
    <g id="xtick_2">
     <g id="line2d_2">
      <g>
       <use style="fill:#d2d2d2;stroke:#d2d2d2;" x="131.040086" xlink:href="#m489105c32c" y="252"/>
      </g>
     </g>
     <g id="text_2">
      <!-- 0.7 -->
      <defs>
       <path d="M 8.203125 72.90625 
L 55.078125 72.90625 
L 55.078125 68.703125 
L 28.609375 0 
L 18.3125 0 
L 43.21875 64.59375 
L 8.203125 64.59375 
z
" id="DejaVuSans-37"/>
      </defs>
      <g style="fill:#d2d2d2;" transform="translate(120.703055 269.877969)scale(0.13 -0.13)">
       <use xlink:href="#DejaVuSans-30"/>
       <use x="63.623047" xlink:href="#DejaVuSans-2e"/>
       <use x="95.410156" xlink:href="#DejaVuSans-37"/>
      </g>
     </g>
    </g>
    <g id="xtick_3">
     <g id="line2d_3">
      <g>
       <use style="fill:#d2d2d2;stroke:#d2d2d2;" x="181.715685" xlink:href="#m489105c32c" y="252"/>
      </g>
     </g>
     <g id="text_3">
      <!-- 0.8 -->
      <defs>
       <path d="M 31.78125 34.625 
Q 24.75 34.625 20.71875 30.859375 
Q 16.703125 27.09375 16.703125 20.515625 
Q 16.703125 13.921875 20.71875 10.15625 
Q 24.75 6.390625 31.78125 6.390625 
Q 38.8125 6.390625 42.859375 10.171875 
Q 46.921875 13.96875 46.921875 20.515625 
Q 46.921875 27.09375 42.890625 30.859375 
Q 38.875 34.625 31.78125 34.625 
M 21.921875 38.8125 
Q 15.578125 40.375 12.03125 44.71875 
Q 8.5 49.078125 8.5 55.328125 
Q 8.5 64.0625 14.71875 69.140625 
Q 20.953125 74.21875 31.78125 74.21875 
Q 42.671875 74.21875 48.875 69.140625 
Q 55.078125 64.0625 55.078125 55.328125 
Q 55.078125 49.078125 51.53125 44.71875 
Q 48 40.375 41.703125 38.8125 
Q 48.828125 37.15625 52.796875 32.3125 
Q 56.78125 27.484375 56.78125 20.515625 
Q 56.78125 9.90625 50.3125 4.234375 
Q 43.84375 -1.421875 31.78125 -1.421875 
Q 19.734375 -1.421875 13.25 4.234375 
Q 6.78125 9.90625 6.78125 20.515625 
Q 6.78125 27.484375 10.78125 32.3125 
Q 14.796875 37.15625 21.921875 38.8125 
M 18.3125 54.390625 
Q 18.3125 48.734375 21.84375 45.5625 
Q 25.390625 42.390625 31.78125 42.390625 
Q 38.140625 42.390625 41.71875 45.5625 
Q 45.3125 48.734375 45.3125 54.390625 
Q 45.3125 60.0625 41.71875 63.234375 
Q 38.140625 66.40625 31.78125 66.40625 
Q 25.390625 66.40625 21.84375 63.234375 
Q 18.3125 60.0625 18.3125 54.390625 
" id="DejaVuSans-38"/>
      </defs>
      <g style="fill:#d2d2d2;" transform="translate(171.378654 269.877969)scale(0.13 -0.13)">
       <use xlink:href="#DejaVuSans-30"/>
       <use x="63.623047" xlink:href="#DejaVuSans-2e"/>
       <use x="95.410156" xlink:href="#DejaVuSans-38"/>
      </g>
     </g>
    </g>
    <g id="xtick_4">
     <g id="line2d_4">
      <g>
       <use style="fill:#d2d2d2;stroke:#d2d2d2;" x="232.391284" xlink:href="#m489105c32c" y="252"/>
      </g>
     </g>
     <g id="text_4">
      <!-- 0.9 -->
      <defs>
       <path d="M 10.984375 1.515625 
L 10.984375 10.5 
Q 14.703125 8.734375 18.5 7.8125 
Q 22.3125 6.890625 25.984375 6.890625 
Q 35.75 6.890625 40.890625 13.453125 
Q 46.046875 20.015625 46.78125 33.40625 
Q 43.953125 29.203125 39.59375 26.953125 
Q 35.25 24.703125 29.984375 24.703125 
Q 19.046875 24.703125 12.671875 31.3125 
Q 6.296875 37.9375 6.296875 49.421875 
Q 6.296875 60.640625 12.9375 67.421875 
Q 19.578125 74.21875 30.609375 74.21875 
Q 43.265625 74.21875 49.921875 64.515625 
Q 56.59375 54.828125 56.59375 36.375 
Q 56.59375 19.140625 48.40625 8.859375 
Q 40.234375 -1.421875 26.421875 -1.421875 
Q 22.703125 -1.421875 18.890625 -0.6875 
Q 15.09375 0.046875 10.984375 1.515625 
M 30.609375 32.421875 
Q 37.25 32.421875 41.125 36.953125 
Q 45.015625 41.5 45.015625 49.421875 
Q 45.015625 57.28125 41.125 61.84375 
Q 37.25 66.40625 30.609375 66.40625 
Q 23.96875 66.40625 20.09375 61.84375 
Q 16.21875 57.28125 16.21875 49.421875 
Q 16.21875 41.5 20.09375 36.953125 
Q 23.96875 32.421875 30.609375 32.421875 
" id="DejaVuSans-39"/>
      </defs>
      <g style="fill:#d2d2d2;" transform="translate(222.054253 269.877969)scale(0.13 -0.13)">
       <use xlink:href="#DejaVuSans-30"/>
       <use x="63.623047" xlink:href="#DejaVuSans-2e"/>
       <use x="95.410156" xlink:href="#DejaVuSans-39"/>
      </g>
     </g>
    </g>
    <g id="xtick_5">
     <g id="line2d_5">
      <g>
       <use style="fill:#d2d2d2;stroke:#d2d2d2;" x="283.066883" xlink:href="#m489105c32c" y="252"/>
      </g>
     </g>
     <g id="text_5">
      <!-- 1.0 -->
      <defs>
       <path d="M 12.40625 8.296875 
L 28.515625 8.296875 
L 28.515625 63.921875 
L 10.984375 60.40625 
L 10.984375 69.390625 
L 28.421875 72.90625 
L 38.28125 72.90625 
L 38.28125 8.296875 
L 54.390625 8.296875 
L 54.390625 0 
L 12.40625 0 
z
" id="DejaVuSans-31"/>
      </defs>
      <g style="fill:#d2d2d2;" transform="translate(272.729852 269.877969)scale(0.13 -0.13)">
       <use xlink:href="#DejaVuSans-31"/>
       <use x="63.623047" xlink:href="#DejaVuSans-2e"/>
       <use x="95.410156" xlink:href="#DejaVuSans-30"/>
      </g>
     </g>
    </g>
    <g id="xtick_6">
     <g id="line2d_6">
      <g>
       <use style="fill:#d2d2d2;stroke:#d2d2d2;" x="333.742482" xlink:href="#m489105c32c" y="252"/>
      </g>
     </g>
     <g id="text_6">
      <!-- 1.1 -->
      <g style="fill:#d2d2d2;" transform="translate(323.405451 269.877969)scale(0.13 -0.13)">
       <use xlink:href="#DejaVuSans-31"/>
       <use x="63.623047" xlink:href="#DejaVuSans-2e"/>
       <use x="95.410156" xlink:href="#DejaVuSans-31"/>
      </g>
     </g>
    </g>
    <g id="xtick_7">
     <g id="line2d_7">
      <g>
       <use style="fill:#d2d2d2;stroke:#d2d2d2;" x="384.418081" xlink:href="#m489105c32c" y="252"/>
      </g>
     </g>
     <g id="text_7">
      <!-- 1.2 -->
      <defs>
       <path d="M 19.1875 8.296875 
L 53.609375 8.296875 
L 53.609375 0 
L 7.328125 0 
L 7.328125 8.296875 
Q 12.9375 14.109375 22.625 23.890625 
Q 32.328125 33.6875 34.8125 36.53125 
Q 39.546875 41.84375 41.421875 45.53125 
Q 43.3125 49.21875 43.3125 52.78125 
Q 43.3125 58.59375 39.234375 62.25 
Q 35.15625 65.921875 28.609375 65.921875 
Q 23.96875 65.921875 18.8125 64.3125 
Q 13.671875 62.703125 7.8125 59.421875 
L 7.8125 69.390625 
Q 13.765625 71.78125 18.9375 73 
Q 24.125 74.21875 28.421875 74.21875 
Q 39.75 74.21875 46.484375 68.546875 
Q 53.21875 62.890625 53.21875 53.421875 
Q 53.21875 48.921875 51.53125 44.890625 
Q 49.859375 40.875 45.40625 35.40625 
Q 44.1875 33.984375 37.640625 27.21875 
Q 31.109375 20.453125 19.1875 8.296875 
" id="DejaVuSans-32"/>
      </defs>
      <g style="fill:#d2d2d2;" transform="translate(374.08105 269.877969)scale(0.13 -0.13)">
       <use xlink:href="#DejaVuSans-31"/>
       <use x="63.623047" xlink:href="#DejaVuSans-2e"/>
       <use x="95.410156" xlink:href="#DejaVuSans-32"/>
      </g>
     </g>
    </g>
    <g id="text_8">
     <!-- $\bar{x}$ -->
     <defs>
      <path d="M -39.34375 74.515625 
L -10.15625 74.515625 
L -10.15625 67.28125 
L -39.34375 67.28125 
z
" id="DejaVuSans-304"/>
      <path d="M 60.015625 54.6875 
L 34.90625 27.875 
L 50.296875 0 
L 39.984375 0 
L 28.421875 21.6875 
L 8.296875 0 
L -2.59375 0 
L 24.3125 28.8125 
L 10.015625 54.6875 
L 20.3125 54.6875 
L 30.8125 34.90625 
L 49.125 54.6875 
z
" id="DejaVuSans-Oblique-78"/>
     </defs>
     <g style="fill:#d2d2d2;" transform="translate(216 290.25875)scale(0.18 -0.18)">
      <use transform="translate(62.138672 0.484375)" xlink:href="#DejaVuSans-304"/>
      <use transform="translate(0 0.578125)" xlink:href="#DejaVuSans-Oblique-78"/>
     </g>
    </g>
    <g id="text_9">
     <!-- 1e5 -->
     <defs>
      <path d="M 56.203125 29.59375 
L 56.203125 25.203125 
L 14.890625 25.203125 
Q 15.484375 15.921875 20.484375 11.0625 
Q 25.484375 6.203125 34.421875 6.203125 
Q 39.59375 6.203125 44.453125 7.46875 
Q 49.3125 8.734375 54.109375 11.28125 
L 54.109375 2.78125 
Q 49.265625 0.734375 44.1875 -0.34375 
Q 39.109375 -1.421875 33.890625 -1.421875 
Q 20.796875 -1.421875 13.15625 6.1875 
Q 5.515625 13.8125 5.515625 26.8125 
Q 5.515625 40.234375 12.765625 48.109375 
Q 20.015625 56 32.328125 56 
Q 43.359375 56 49.78125 48.890625 
Q 56.203125 41.796875 56.203125 29.59375 
M 47.21875 32.234375 
Q 47.125 39.59375 43.09375 43.984375 
Q 39.0625 48.390625 32.421875 48.390625 
Q 24.90625 48.390625 20.390625 44.140625 
Q 15.875 39.890625 15.1875 32.171875 
z
" id="DejaVuSans-65"/>
      <path d="M 10.796875 72.90625 
L 49.515625 72.90625 
L 49.515625 64.59375 
L 19.828125 64.59375 
L 19.828125 46.734375 
Q 21.96875 47.46875 24.109375 47.828125 
Q 26.265625 48.1875 28.421875 48.1875 
Q 40.625 48.1875 47.75 41.5 
Q 54.890625 34.8125 54.890625 23.390625 
Q 54.890625 11.625 47.5625 5.09375 
Q 40.234375 -1.421875 26.90625 -1.421875 
Q 22.3125 -1.421875 17.546875 -0.640625 
Q 12.796875 0.140625 7.71875 1.703125 
L 7.71875 11.625 
Q 12.109375 9.234375 16.796875 8.0625 
Q 21.484375 6.890625 26.703125 6.890625 
Q 35.15625 6.890625 40.078125 11.328125 
Q 45.015625 15.765625 45.015625 23.390625 
Q 45.015625 31 40.078125 35.4375 
Q 35.15625 39.890625 26.703125 39.890625 
Q 22.75 39.890625 18.8125 39.015625 
Q 14.890625 38.140625 10.796875 36.28125 
z
" id="DejaVuSans-35"/>
     </defs>
     <g style="fill:#d2d2d2;" transform="translate(369.921875 283.18)scale(0.1 -0.1)">
      <use xlink:href="#DejaVuSans-31"/>
      <use x="63.623047" xlink:href="#DejaVuSans-65"/>
      <use x="125.146484" xlink:href="#DejaVuSans-35"/>
     </g>
    </g>
   </g>
   <g id="matplotlib.axis_2"/>
   <g id="patch_3">
    <path d="M 54 252 
L 388.8 252 
" style="fill:none;stroke:#d2d2d2;stroke-linecap:square;stroke-linejoin:miter;"/>
   </g>
  </g>
  <g id="axes_2">
   <g id="PathCollection_1">
    <defs>
     <path d="M 0 3.535534 
C 0.937635 3.535534 1.836992 3.163008 2.5 2.5 
C 3.163008 1.836992 3.535534 0.937635 3.535534 0 
C 3.535534 -0.937635 3.163008 -1.836992 2.5 -2.5 
C 1.836992 -3.163008 0.937635 -3.535534 0 -3.535534 
C -0.937635 -3.535534 -1.836992 -3.163008 -2.5 -2.5 
C -3.163008 -1.836992 -3.535534 -0.937635 -3.535534 0 
C -3.535534 0.937635 -3.163008 1.836992 -2.5 2.5 
C -1.836992 3.163008 -0.937635 3.535534 0 3.535534 
z
" id="m628b658485" style="stroke:#5bc0de;"/>
    </defs>
    <g clip-path="url(#pe23a6aa180)">
     <use style="fill:#5bc0de;stroke:#5bc0de;" x="320.981206" xlink:href="#m628b658485" y="248.43541"/>
    </g>
   </g>
  </g>
  <g id="axes_3">
   <g id="PathCollection_2">
    <g clip-path="url(#pe23a6aa180)">
     <use style="fill:#5bc0de;stroke:#5bc0de;" x="183.51811" xlink:href="#m628b658485" y="248.43541"/>
    </g>
   </g>
  </g>
  <g id="axes_4">
   <g id="PathCollection_3">
    <g clip-path="url(#pe23a6aa180)">
     <use style="fill:#5bc0de;stroke:#5bc0de;" x="173.699317" xlink:href="#m628b658485" y="248.43541"/>
    </g>
   </g>
  </g>
  <g id="axes_5">
   <g id="PathCollection_4">
    <defs>
     <path d="M 0 3 
C 0.795609 3 1.55874 2.683901 2.12132 2.12132 
C 2.683901 1.55874 3 0.795609 3 0 
C 3 -0.795609 2.683901 -1.55874 2.12132 -2.12132 
C 1.55874 -2.683901 0.795609 -3 0 -3 
C -0.795609 -3 -1.55874 -2.683901 -2.12132 -2.12132 
C -2.683901 -1.55874 -3 -0.795609 -3 0 
C -3 0.795609 -2.683901 1.55874 -2.12132 2.12132 
C -1.55874 2.683901 -0.795609 3 0 3 
z
" id="m52455cb161" style="stroke:#5bc0de;"/>
    </defs>
    <g clip-path="url(#pe23a6aa180)">
     <use style="fill:#5bc0de;stroke:#5bc0de;" x="134.424147" xlink:href="#m52455cb161" y="248.43541"/>
     <use style="fill:#5bc0de;stroke:#5bc0de;" x="281.706035" xlink:href="#m52455cb161" y="248.43541"/>
     <use style="fill:#5bc0de;stroke:#5bc0de;" x="212.974487" xlink:href="#m52455cb161" y="248.43541"/>
     <use style="fill:#5bc0de;stroke:#5bc0de;" x="163.880525" xlink:href="#m52455cb161" y="248.43541"/>
     <use style="fill:#5bc0de;stroke:#5bc0de;" x="291.524828" xlink:href="#m52455cb161" y="248.43541"/>
     <use style="fill:#5bc0de;stroke:#5bc0de;" x="252.249658" xlink:href="#m52455cb161" y="248.43541"/>
     <use style="fill:#5bc0de;stroke:#5bc0de;" x="232.612073" xlink:href="#m52455cb161" y="248.43541"/>
     <use style="fill:#5bc0de;stroke:#5bc0de;" x="144.242939" xlink:href="#m52455cb161" y="248.43541"/>
     <use style="fill:#5bc0de;stroke:#5bc0de;" x="271.887243" xlink:href="#m52455cb161" y="248.43541"/>
     <use style="fill:#5bc0de;stroke:#5bc0de;" x="222.79328" xlink:href="#m52455cb161" y="248.43541"/>
     <use style="fill:#5bc0de;stroke:#5bc0de;" x="203.155695" xlink:href="#m52455cb161" y="248.43541"/>
     <use style="fill:#5bc0de;stroke:#5bc0de;" x="301.343621" xlink:href="#m52455cb161" y="248.43541"/>
     <use style="fill:#5bc0de;stroke:#5bc0de;" x="262.06845" xlink:href="#m52455cb161" y="248.43541"/>
     <use style="fill:#5bc0de;stroke:#5bc0de;" x="154.061732" xlink:href="#m52455cb161" y="248.43541"/>
     <use style="fill:#5bc0de;stroke:#5bc0de;" x="193.336902" xlink:href="#m52455cb161" y="248.43541"/>
     <use style="fill:#5bc0de;stroke:#5bc0de;" x="242.430865" xlink:href="#m52455cb161" y="248.43541"/>
     <use style="fill:#5bc0de;stroke:#5bc0de;" x="232.612073" xlink:href="#m52455cb161" y="239.523934"/>
     <use style="fill:#5bc0de;stroke:#5bc0de;" x="173.699317" xlink:href="#m52455cb161" y="239.523934"/>
     <use style="fill:#5bc0de;stroke:#5bc0de;" x="163.880525" xlink:href="#m52455cb161" y="239.523934"/>
     <use style="fill:#5bc0de;stroke:#5bc0de;" x="144.242939" xlink:href="#m52455cb161" y="239.523934"/>
     <use style="fill:#5bc0de;stroke:#5bc0de;" x="252.249658" xlink:href="#m52455cb161" y="239.523934"/>
     <use style="fill:#5bc0de;stroke:#5bc0de;" x="203.155695" xlink:href="#m52455cb161" y="239.523934"/>
    </g>
   </g>
  </g>
  <g id="axes_6">
   <g id="PathCollection_5">
    <g clip-path="url(#pe23a6aa180)">
     <use style="fill:#5bc0de;stroke:#5bc0de;" x="212.974487" xlink:href="#m52455cb161" y="239.523934"/>
     <use style="fill:#5bc0de;stroke:#5bc0de;" x="271.887243" xlink:href="#m52455cb161" y="239.523934"/>
     <use style="fill:#5bc0de;stroke:#5bc0de;" x="134.424147" xlink:href="#m52455cb161" y="239.523934"/>
     <use style="fill:#5bc0de;stroke:#5bc0de;" x="183.51811" xlink:href="#m52455cb161" y="239.523934"/>
     <use style="fill:#5bc0de;stroke:#5bc0de;" x="281.706035" xlink:href="#m52455cb161" y="239.523934"/>
     <use style="fill:#5bc0de;stroke:#5bc0de;" x="242.430865" xlink:href="#m52455cb161" y="239.523934"/>
     <use style="fill:#5bc0de;stroke:#5bc0de;" x="301.343621" xlink:href="#m52455cb161" y="239.523934"/>
     <use style="fill:#5bc0de;stroke:#5bc0de;" x="193.336902" xlink:href="#m52455cb161" y="239.523934"/>
     <use style="fill:#5bc0de;stroke:#5bc0de;" x="222.79328" xlink:href="#m52455cb161" y="239.523934"/>
     <use style="fill:#5bc0de;stroke:#5bc0de;" x="183.51811" xlink:href="#m52455cb161" y="230.612459"/>
     <use style="fill:#5bc0de;stroke:#5bc0de;" x="203.155695" xlink:href="#m52455cb161" y="230.612459"/>
     <use style="fill:#5bc0de;stroke:#5bc0de;" x="173.699317" xlink:href="#m52455cb161" y="230.612459"/>
     <use style="fill:#5bc0de;stroke:#5bc0de;" x="252.249658" xlink:href="#m52455cb161" y="230.612459"/>
     <use style="fill:#5bc0de;stroke:#5bc0de;" x="271.887243" xlink:href="#m52455cb161" y="230.612459"/>
     <use style="fill:#5bc0de;stroke:#5bc0de;" x="222.79328" xlink:href="#m52455cb161" y="230.612459"/>
     <use style="fill:#5bc0de;stroke:#5bc0de;" x="134.424147" xlink:href="#m52455cb161" y="230.612459"/>
     <use style="fill:#5bc0de;stroke:#5bc0de;" x="163.880525" xlink:href="#m52455cb161" y="230.612459"/>
     <use style="fill:#5bc0de;stroke:#5bc0de;" x="242.430865" xlink:href="#m52455cb161" y="230.612459"/>
     <use style="fill:#5bc0de;stroke:#5bc0de;" x="193.336902" xlink:href="#m52455cb161" y="230.612459"/>
     <use style="fill:#5bc0de;stroke:#5bc0de;" x="232.612073" xlink:href="#m52455cb161" y="230.612459"/>
     <use style="fill:#5bc0de;stroke:#5bc0de;" x="212.974487" xlink:href="#m52455cb161" y="230.612459"/>
     <use style="fill:#5bc0de;stroke:#5bc0de;" x="281.706035" xlink:href="#m52455cb161" y="230.612459"/>
     <use style="fill:#5bc0de;stroke:#5bc0de;" x="242.430865" xlink:href="#m52455cb161" y="221.700984"/>
     <use style="fill:#5bc0de;stroke:#5bc0de;" x="173.699317" xlink:href="#m52455cb161" y="221.700984"/>
     <use style="fill:#5bc0de;stroke:#5bc0de;" x="163.880525" xlink:href="#m52455cb161" y="221.700984"/>
    </g>
   </g>
  </g>
  <g id="axes_7">
   <g id="PathCollection_6">
    <g clip-path="url(#pe23a6aa180)">
     <use style="fill:#5bc0de;stroke:#5bc0de;" x="212.974487" xlink:href="#m52455cb161" y="221.700984"/>
     <use style="fill:#5bc0de;stroke:#5bc0de;" x="203.155695" xlink:href="#m52455cb161" y="221.700984"/>
     <use style="fill:#5bc0de;stroke:#5bc0de;" x="222.79328" xlink:href="#m52455cb161" y="221.700984"/>
     <use style="fill:#5bc0de;stroke:#5bc0de;" x="281.706035" xlink:href="#m52455cb161" y="221.700984"/>
     <use style="fill:#5bc0de;stroke:#5bc0de;" x="183.51811" xlink:href="#m52455cb161" y="221.700984"/>
     <use style="fill:#5bc0de;stroke:#5bc0de;" x="193.336902" xlink:href="#m52455cb161" y="221.700984"/>
     <use style="fill:#5bc0de;stroke:#5bc0de;" x="232.612073" xlink:href="#m52455cb161" y="221.700984"/>
     <use style="fill:#5bc0de;stroke:#5bc0de;" x="222.79328" xlink:href="#m52455cb161" y="212.789508"/>
     <use style="fill:#5bc0de;stroke:#5bc0de;" x="183.51811" xlink:href="#m52455cb161" y="212.789508"/>
     <use style="fill:#5bc0de;stroke:#5bc0de;" x="232.612073" xlink:href="#m52455cb161" y="212.789508"/>
     <use style="fill:#5bc0de;stroke:#5bc0de;" x="281.706035" xlink:href="#m52455cb161" y="212.789508"/>
     <use style="fill:#5bc0de;stroke:#5bc0de;" x="193.336902" xlink:href="#m52455cb161" y="212.789508"/>
     <use style="fill:#5bc0de;stroke:#5bc0de;" x="242.430865" xlink:href="#m52455cb161" y="212.789508"/>
     <use style="fill:#5bc0de;stroke:#5bc0de;" x="173.699317" xlink:href="#m52455cb161" y="212.789508"/>
     <use style="fill:#5bc0de;stroke:#5bc0de;" x="163.880525" xlink:href="#m52455cb161" y="212.789508"/>
     <use style="fill:#5bc0de;stroke:#5bc0de;" x="212.974487" xlink:href="#m52455cb161" y="212.789508"/>
     <use style="fill:#5bc0de;stroke:#5bc0de;" x="203.155695" xlink:href="#m52455cb161" y="212.789508"/>
     <use style="fill:#5bc0de;stroke:#5bc0de;" x="242.430865" xlink:href="#m52455cb161" y="203.878033"/>
     <use style="fill:#5bc0de;stroke:#5bc0de;" x="183.51811" xlink:href="#m52455cb161" y="203.878033"/>
     <use style="fill:#5bc0de;stroke:#5bc0de;" x="203.155695" xlink:href="#m52455cb161" y="203.878033"/>
     <use style="fill:#5bc0de;stroke:#5bc0de;" x="232.612073" xlink:href="#m52455cb161" y="203.878033"/>
     <use style="fill:#5bc0de;stroke:#5bc0de;" x="193.336902" xlink:href="#m52455cb161" y="203.878033"/>
     <use style="fill:#5bc0de;stroke:#5bc0de;" x="173.699317" xlink:href="#m52455cb161" y="203.878033"/>
     <use style="fill:#5bc0de;stroke:#5bc0de;" x="281.706035" xlink:href="#m52455cb161" y="203.878033"/>
     <use style="fill:#5bc0de;stroke:#5bc0de;" x="163.880525" xlink:href="#m52455cb161" y="203.878033"/>
     <use style="fill:#5bc0de;stroke:#5bc0de;" x="222.79328" xlink:href="#m52455cb161" y="203.878033"/>
     <use style="fill:#5bc0de;stroke:#5bc0de;" x="212.974487" xlink:href="#m52455cb161" y="203.878033"/>
     <use style="fill:#5bc0de;stroke:#5bc0de;" x="183.51811" xlink:href="#m52455cb161" y="194.966557"/>
     <use style="fill:#5bc0de;stroke:#5bc0de;" x="222.79328" xlink:href="#m52455cb161" y="194.966557"/>
     <use style="fill:#5bc0de;stroke:#5bc0de;" x="242.430865" xlink:href="#m52455cb161" y="194.966557"/>
    </g>
   </g>
  </g>
  <g id="axes_8">
   <g id="PathCollection_7">
    <g clip-path="url(#pe23a6aa180)">
     <use style="fill:#5bc0de;stroke:#5bc0de;" x="173.699317" xlink:href="#m52455cb161" y="194.966557"/>
     <use style="fill:#5bc0de;stroke:#5bc0de;" x="163.880525" xlink:href="#m52455cb161" y="194.966557"/>
     <use style="fill:#5bc0de;stroke:#5bc0de;" x="212.974487" xlink:href="#m52455cb161" y="194.966557"/>
     <use style="fill:#5bc0de;stroke:#5bc0de;" x="203.155695" xlink:href="#m52455cb161" y="194.966557"/>
     <use style="fill:#5bc0de;stroke:#5bc0de;" x="232.612073" xlink:href="#m52455cb161" y="194.966557"/>
     <use style="fill:#5bc0de;stroke:#5bc0de;" x="193.336902" xlink:href="#m52455cb161" y="194.966557"/>
     <use style="fill:#5bc0de;stroke:#5bc0de;" x="193.336902" xlink:href="#m52455cb161" y="186.055082"/>
     <use style="fill:#5bc0de;stroke:#5bc0de;" x="242.430865" xlink:href="#m52455cb161" y="186.055082"/>
     <use style="fill:#5bc0de;stroke:#5bc0de;" x="173.699317" xlink:href="#m52455cb161" y="186.055082"/>
     <use style="fill:#5bc0de;stroke:#5bc0de;" x="222.79328" xlink:href="#m52455cb161" y="186.055082"/>
     <use style="fill:#5bc0de;stroke:#5bc0de;" x="183.51811" xlink:href="#m52455cb161" y="186.055082"/>
     <use style="fill:#5bc0de;stroke:#5bc0de;" x="232.612073" xlink:href="#m52455cb161" y="186.055082"/>
     <use style="fill:#5bc0de;stroke:#5bc0de;" x="212.974487" xlink:href="#m52455cb161" y="186.055082"/>
     <use style="fill:#5bc0de;stroke:#5bc0de;" x="203.155695" xlink:href="#m52455cb161" y="186.055082"/>
     <use style="fill:#5bc0de;stroke:#5bc0de;" x="183.51811" xlink:href="#m52455cb161" y="177.143607"/>
     <use style="fill:#5bc0de;stroke:#5bc0de;" x="173.699317" xlink:href="#m52455cb161" y="177.143607"/>
     <use style="fill:#5bc0de;stroke:#5bc0de;" x="222.79328" xlink:href="#m52455cb161" y="177.143607"/>
     <use style="fill:#5bc0de;stroke:#5bc0de;" x="193.336902" xlink:href="#m52455cb161" y="177.143607"/>
     <use style="fill:#5bc0de;stroke:#5bc0de;" x="242.430865" xlink:href="#m52455cb161" y="177.143607"/>
     <use style="fill:#5bc0de;stroke:#5bc0de;" x="203.155695" xlink:href="#m52455cb161" y="177.143607"/>
     <use style="fill:#5bc0de;stroke:#5bc0de;" x="212.974487" xlink:href="#m52455cb161" y="177.143607"/>
     <use style="fill:#5bc0de;stroke:#5bc0de;" x="173.699317" xlink:href="#m52455cb161" y="168.232131"/>
     <use style="fill:#5bc0de;stroke:#5bc0de;" x="222.79328" xlink:href="#m52455cb161" y="168.232131"/>
     <use style="fill:#5bc0de;stroke:#5bc0de;" x="203.155695" xlink:href="#m52455cb161" y="168.232131"/>
     <use style="fill:#5bc0de;stroke:#5bc0de;" x="212.974487" xlink:href="#m52455cb161" y="168.232131"/>
     <use style="fill:#5bc0de;stroke:#5bc0de;" x="183.51811" xlink:href="#m52455cb161" y="168.232131"/>
     <use style="fill:#5bc0de;stroke:#5bc0de;" x="193.336902" xlink:href="#m52455cb161" y="168.232131"/>
     <use style="fill:#5bc0de;stroke:#5bc0de;" x="242.430865" xlink:href="#m52455cb161" y="168.232131"/>
     <use style="fill:#5bc0de;stroke:#5bc0de;" x="183.51811" xlink:href="#m52455cb161" y="159.320656"/>
     <use style="fill:#5bc0de;stroke:#5bc0de;" x="212.974487" xlink:href="#m52455cb161" y="159.320656"/>
     <use style="fill:#5bc0de;stroke:#5bc0de;" x="193.336902" xlink:href="#m52455cb161" y="159.320656"/>
     <use style="fill:#5bc0de;stroke:#5bc0de;" x="222.79328" xlink:href="#m52455cb161" y="159.320656"/>
     <use style="fill:#5bc0de;stroke:#5bc0de;" x="183.51811" xlink:href="#m52455cb161" y="150.40918"/>
     <use style="fill:#5bc0de;stroke:#5bc0de;" x="212.974487" xlink:href="#m52455cb161" y="150.40918"/>
     <use style="fill:#5bc0de;stroke:#5bc0de;" x="193.336902" xlink:href="#m52455cb161" y="150.40918"/>
     <use style="fill:#5bc0de;stroke:#5bc0de;" x="212.974487" xlink:href="#m52455cb161" y="141.497705"/>
     <use style="fill:#5bc0de;stroke:#5bc0de;" x="212.974487" xlink:href="#m52455cb161" y="132.58623"/>
     <use style="fill:#5bc0de;stroke:#5bc0de;" x="212.974487" xlink:href="#m52455cb161" y="123.674754"/>
     <use style="fill:#5bc0de;stroke:#5bc0de;" x="212.974487" xlink:href="#m52455cb161" y="114.763279"/>
     <use style="fill:#5bc0de;stroke:#5bc0de;" x="212.974487" xlink:href="#m52455cb161" y="105.851803"/>
    </g>
   </g>
  </g>
 </g>
 <defs>
  <clipPath id="pe23a6aa180">
   <rect height="217.44" width="334.8" x="54" y="34.56"/>
  </clipPath>
 </defs>
</svg>
