<?xml version="1.0" encoding="utf-8" standalone="no"?>
<!DOCTYPE svg PUBLIC "-//W3C//DTD SVG 1.1//EN"
  "http://www.w3.org/Graphics/SVG/1.1/DTD/svg11.dtd">
<!-- Created with matplotlib (http://matplotlib.org/) -->
<svg height="288pt" version="1.1" viewBox="0 0 432 288" width="432pt" xmlns="http://www.w3.org/2000/svg" xmlns:xlink="http://www.w3.org/1999/xlink">
 <defs>
  <style type="text/css">
*{stroke-linecap:butt;stroke-linejoin:round;}
  </style>
 </defs>
 <g id="figure_1">
  <g id="patch_1">
   <path d="M 0 288 
L 432 288 
L 432 0 
L 0 0 
z
" style="fill:none;"/>
  </g>
  <g id="axes_1">
   <g id="patch_2">
    <path d="M 43.2 244.8 
L 397.44 244.8 
L 397.44 28.8 
L 43.2 28.8 
z
" style="fill:none;"/>
   </g>
   <g id="PolyCollection_1">
    <defs>
     <path d="M 43.2 -43.2 
L 43.2 -43.218712 
L 43.554595 -43.219358 
L 43.909189 -43.220026 
L 44.263784 -43.220716 
L 44.618378 -43.221429 
L 44.972973 -43.222166 
L 45.327568 -43.222927 
L 45.682162 -43.223713 
L 46.036757 -43.224524 
L 46.391351 -43.225363 
L 46.745946 -43.226228 
L 47.100541 -43.227122 
L 47.455135 -43.228045 
L 47.80973 -43.228999 
L 48.164324 -43.229983 
L 48.518919 -43.230999 
L 48.873514 -43.232049 
L 49.228108 -43.233132 
L 49.582703 -43.23425 
L 49.937297 -43.235404 
L 50.291892 -43.236596 
L 50.646486 -43.237826 
L 51.001081 -43.239095 
L 51.355676 -43.240405 
L 51.71027 -43.241757 
L 52.064865 -43.243152 
L 52.419459 -43.244591 
L 52.774054 -43.246077 
L 53.128649 -43.247609 
L 53.483243 -43.24919 
L 53.837838 -43.250821 
L 54.192432 -43.252504 
L 54.547027 -43.25424 
L 54.901622 -43.256031 
L 55.256216 -43.257878 
L 55.610811 -43.259782 
L 55.965405 -43.261747 
L 56.32 -43.263773 
L 56.674595 -43.265862 
L 57.029189 -43.268016 
L 57.383784 -43.270238 
L 57.738378 -43.272528 
L 58.092973 -43.274889 
L 58.447568 -43.277324 
L 58.802162 -43.279833 
L 59.156757 -43.28242 
L 59.511351 -43.285086 
L 59.865946 -43.287835 
L 60.220541 -43.290667 
L 60.575135 -43.293587 
L 60.92973 -43.296595 
L 61.284324 -43.299695 
L 61.638919 -43.302889 
L 61.993514 -43.306181 
L 62.348108 -43.309572 
L 62.702703 -43.313065 
L 63.057297 -43.316664 
L 63.411892 -43.320372 
L 63.766486 -43.324191 
L 64.121081 -43.328124 
L 64.475676 -43.332176 
L 64.83027 -43.336348 
L 65.184865 -43.340645 
L 65.539459 -43.34507 
L 65.894054 -43.349626 
L 66.248649 -43.354318 
L 66.603243 -43.359148 
L 66.957838 -43.364121 
L 67.312432 -43.369241 
L 67.667027 -43.374511 
L 68.021622 -43.379935 
L 68.376216 -43.385519 
L 68.730811 -43.391266 
L 69.085405 -43.39718 
L 69.44 -43.403267 
L 69.794595 -43.40953 
L 70.149189 -43.415975 
L 70.503784 -43.422606 
L 70.858378 -43.429429 
L 71.212973 -43.436448 
L 71.567568 -43.443669 
L 71.922162 -43.451097 
L 72.276757 -43.458738 
L 72.631351 -43.466596 
L 72.985946 -43.474679 
L 73.340541 -43.482991 
L 73.695135 -43.49154 
L 74.04973 -43.50033 
L 74.404324 -43.509368 
L 74.758919 -43.518661 
L 75.113514 -43.528215 
L 75.468108 -43.538037 
L 75.822703 -43.548134 
L 76.177297 -43.558513 
L 76.531892 -43.569181 
L 76.886486 -43.580145 
L 77.241081 -43.591414 
L 77.595676 -43.602994 
L 77.95027 -43.614894 
L 78.304865 -43.627122 
L 78.659459 -43.639685 
L 79.014054 -43.652593 
L 79.368649 -43.665854 
L 79.723243 -43.679477 
L 80.077838 -43.69347 
L 80.432432 -43.707843 
L 80.787027 -43.722605 
L 81.141622 -43.737766 
L 81.496216 -43.753336 
L 81.850811 -43.769325 
L 82.205405 -43.785742 
L 82.56 -43.802598 
L 82.914595 -43.819904 
L 83.269189 -43.837671 
L 83.623784 -43.855909 
L 83.978378 -43.874631 
L 84.332973 -43.893847 
L 84.687568 -43.91357 
L 85.042162 -43.933811 
L 85.396757 -43.954582 
L 85.751351 -43.975897 
L 86.105946 -43.997768 
L 86.460541 -44.020208 
L 86.815135 -44.04323 
L 87.16973 -44.066847 
L 87.524324 -44.091075 
L 87.878919 -44.115926 
L 88.233514 -44.141415 
L 88.588108 -44.167556 
L 88.942703 -44.194365 
L 89.297297 -44.221857 
L 89.651892 -44.250048 
L 90.006486 -44.278952 
L 90.361081 -44.308586 
L 90.715676 -44.338967 
L 91.07027 -44.370111 
L 91.424865 -44.402036 
L 91.779459 -44.434758 
L 92.134054 -44.468295 
L 92.488649 -44.502665 
L 92.843243 -44.537886 
L 93.197838 -44.573978 
L 93.552432 -44.610958 
L 93.907027 -44.648847 
L 94.261622 -44.687663 
L 94.616216 -44.727427 
L 94.970811 -44.768159 
L 95.325405 -44.80988 
L 95.68 -44.852611 
L 96.034595 -44.896373 
L 96.389189 -44.941188 
L 96.743784 -44.987077 
L 97.098378 -45.034064 
L 97.452973 -45.082172 
L 97.807568 -45.131423 
L 97.807568 -43.2 
L 97.807568 -43.2 
L 97.452973 -43.2 
L 97.098378 -43.2 
L 96.743784 -43.2 
L 96.389189 -43.2 
L 96.034595 -43.2 
L 95.68 -43.2 
L 95.325405 -43.2 
L 94.970811 -43.2 
L 94.616216 -43.2 
L 94.261622 -43.2 
L 93.907027 -43.2 
L 93.552432 -43.2 
L 93.197838 -43.2 
L 92.843243 -43.2 
L 92.488649 -43.2 
L 92.134054 -43.2 
L 91.779459 -43.2 
L 91.424865 -43.2 
L 91.07027 -43.2 
L 90.715676 -43.2 
L 90.361081 -43.2 
L 90.006486 -43.2 
L 89.651892 -43.2 
L 89.297297 -43.2 
L 88.942703 -43.2 
L 88.588108 -43.2 
L 88.233514 -43.2 
L 87.878919 -43.2 
L 87.524324 -43.2 
L 87.16973 -43.2 
L 86.815135 -43.2 
L 86.460541 -43.2 
L 86.105946 -43.2 
L 85.751351 -43.2 
L 85.396757 -43.2 
L 85.042162 -43.2 
L 84.687568 -43.2 
L 84.332973 -43.2 
L 83.978378 -43.2 
L 83.623784 -43.2 
L 83.269189 -43.2 
L 82.914595 -43.2 
L 82.56 -43.2 
L 82.205405 -43.2 
L 81.850811 -43.2 
L 81.496216 -43.2 
L 81.141622 -43.2 
L 80.787027 -43.2 
L 80.432432 -43.2 
L 80.077838 -43.2 
L 79.723243 -43.2 
L 79.368649 -43.2 
L 79.014054 -43.2 
L 78.659459 -43.2 
L 78.304865 -43.2 
L 77.95027 -43.2 
L 77.595676 -43.2 
L 77.241081 -43.2 
L 76.886486 -43.2 
L 76.531892 -43.2 
L 76.177297 -43.2 
L 75.822703 -43.2 
L 75.468108 -43.2 
L 75.113514 -43.2 
L 74.758919 -43.2 
L 74.404324 -43.2 
L 74.04973 -43.2 
L 73.695135 -43.2 
L 73.340541 -43.2 
L 72.985946 -43.2 
L 72.631351 -43.2 
L 72.276757 -43.2 
L 71.922162 -43.2 
L 71.567568 -43.2 
L 71.212973 -43.2 
L 70.858378 -43.2 
L 70.503784 -43.2 
L 70.149189 -43.2 
L 69.794595 -43.2 
L 69.44 -43.2 
L 69.085405 -43.2 
L 68.730811 -43.2 
L 68.376216 -43.2 
L 68.021622 -43.2 
L 67.667027 -43.2 
L 67.312432 -43.2 
L 66.957838 -43.2 
L 66.603243 -43.2 
L 66.248649 -43.2 
L 65.894054 -43.2 
L 65.539459 -43.2 
L 65.184865 -43.2 
L 64.83027 -43.2 
L 64.475676 -43.2 
L 64.121081 -43.2 
L 63.766486 -43.2 
L 63.411892 -43.2 
L 63.057297 -43.2 
L 62.702703 -43.2 
L 62.348108 -43.2 
L 61.993514 -43.2 
L 61.638919 -43.2 
L 61.284324 -43.2 
L 60.92973 -43.2 
L 60.575135 -43.2 
L 60.220541 -43.2 
L 59.865946 -43.2 
L 59.511351 -43.2 
L 59.156757 -43.2 
L 58.802162 -43.2 
L 58.447568 -43.2 
L 58.092973 -43.2 
L 57.738378 -43.2 
L 57.383784 -43.2 
L 57.029189 -43.2 
L 56.674595 -43.2 
L 56.32 -43.2 
L 55.965405 -43.2 
L 55.610811 -43.2 
L 55.256216 -43.2 
L 54.901622 -43.2 
L 54.547027 -43.2 
L 54.192432 -43.2 
L 53.837838 -43.2 
L 53.483243 -43.2 
L 53.128649 -43.2 
L 52.774054 -43.2 
L 52.419459 -43.2 
L 52.064865 -43.2 
L 51.71027 -43.2 
L 51.355676 -43.2 
L 51.001081 -43.2 
L 50.646486 -43.2 
L 50.291892 -43.2 
L 49.937297 -43.2 
L 49.582703 -43.2 
L 49.228108 -43.2 
L 48.873514 -43.2 
L 48.518919 -43.2 
L 48.164324 -43.2 
L 47.80973 -43.2 
L 47.455135 -43.2 
L 47.100541 -43.2 
L 46.745946 -43.2 
L 46.391351 -43.2 
L 46.036757 -43.2 
L 45.682162 -43.2 
L 45.327568 -43.2 
L 44.972973 -43.2 
L 44.618378 -43.2 
L 44.263784 -43.2 
L 43.909189 -43.2 
L 43.554595 -43.2 
L 43.2 -43.2 
z
" id="mfceb2b96e5" style="stroke:#f0ad4e;stroke-opacity:0.7;"/>
    </defs>
    <g clip-path="url(#p9ce0ee061e)">
     <use style="fill:#f0ad4e;fill-opacity:0.7;stroke:#f0ad4e;stroke-opacity:0.7;" x="0" xlink:href="#mfceb2b96e5" y="288"/>
    </g>
   </g>
   <g id="PolyCollection_2">
    <defs>
     <path d="M 342.832432 -43.2 
L 342.832432 -45.131423 
L 343.187027 -45.082172 
L 343.541622 -45.034064 
L 343.896216 -44.987077 
L 344.250811 -44.941188 
L 344.605405 -44.896373 
L 344.96 -44.852611 
L 345.314595 -44.80988 
L 345.669189 -44.768159 
L 346.023784 -44.727427 
L 346.378378 -44.687663 
L 346.732973 -44.648847 
L 347.087568 -44.610958 
L 347.442162 -44.573978 
L 347.796757 -44.537886 
L 348.151351 -44.502665 
L 348.505946 -44.468295 
L 348.860541 -44.434758 
L 349.215135 -44.402036 
L 349.56973 -44.370111 
L 349.924324 -44.338967 
L 350.278919 -44.308586 
L 350.633514 -44.278952 
L 350.988108 -44.250048 
L 351.342703 -44.221857 
L 351.697297 -44.194365 
L 352.051892 -44.167556 
L 352.406486 -44.141415 
L 352.761081 -44.115926 
L 353.115676 -44.091075 
L 353.47027 -44.066847 
L 353.824865 -44.04323 
L 354.179459 -44.020208 
L 354.534054 -43.997768 
L 354.888649 -43.975897 
L 355.243243 -43.954582 
L 355.597838 -43.933811 
L 355.952432 -43.91357 
L 356.307027 -43.893847 
L 356.661622 -43.874631 
L 357.016216 -43.855909 
L 357.370811 -43.837671 
L 357.725405 -43.819904 
L 358.08 -43.802598 
L 358.434595 -43.785742 
L 358.789189 -43.769325 
L 359.143784 -43.753336 
L 359.498378 -43.737766 
L 359.852973 -43.722605 
L 360.207568 -43.707843 
L 360.562162 -43.69347 
L 360.916757 -43.679477 
L 361.271351 -43.665854 
L 361.625946 -43.652593 
L 361.980541 -43.639685 
L 362.335135 -43.627122 
L 362.68973 -43.614894 
L 363.044324 -43.602994 
L 363.398919 -43.591414 
L 363.753514 -43.580145 
L 364.108108 -43.569181 
L 364.462703 -43.558513 
L 364.817297 -43.548134 
L 365.171892 -43.538037 
L 365.526486 -43.528215 
L 365.881081 -43.518661 
L 366.235676 -43.509368 
L 366.59027 -43.50033 
L 366.944865 -43.49154 
L 367.299459 -43.482991 
L 367.654054 -43.474679 
L 368.008649 -43.466596 
L 368.363243 -43.458738 
L 368.717838 -43.451097 
L 369.072432 -43.443669 
L 369.427027 -43.436448 
L 369.781622 -43.429429 
L 370.136216 -43.422606 
L 370.490811 -43.415975 
L 370.845405 -43.40953 
L 371.2 -43.403267 
L 371.554595 -43.39718 
L 371.909189 -43.391266 
L 372.263784 -43.385519 
L 372.618378 -43.379935 
L 372.972973 -43.374511 
L 373.327568 -43.369241 
L 373.682162 -43.364121 
L 374.036757 -43.359148 
L 374.391351 -43.354318 
L 374.745946 -43.349626 
L 375.100541 -43.34507 
L 375.455135 -43.340645 
L 375.80973 -43.336348 
L 376.164324 -43.332176 
L 376.518919 -43.328124 
L 376.873514 -43.324191 
L 377.228108 -43.320372 
L 377.582703 -43.316664 
L 377.937297 -43.313065 
L 378.291892 -43.309572 
L 378.646486 -43.306181 
L 379.001081 -43.302889 
L 379.355676 -43.299695 
L 379.71027 -43.296595 
L 380.064865 -43.293587 
L 380.419459 -43.290667 
L 380.774054 -43.287835 
L 381.128649 -43.285086 
L 381.483243 -43.28242 
L 381.837838 -43.279833 
L 382.192432 -43.277324 
L 382.547027 -43.274889 
L 382.901622 -43.272528 
L 383.256216 -43.270238 
L 383.610811 -43.268016 
L 383.965405 -43.265862 
L 384.32 -43.263773 
L 384.674595 -43.261747 
L 385.029189 -43.259782 
L 385.383784 -43.257878 
L 385.738378 -43.256031 
L 386.092973 -43.25424 
L 386.447568 -43.252504 
L 386.802162 -43.250821 
L 387.156757 -43.24919 
L 387.511351 -43.247609 
L 387.865946 -43.246077 
L 388.220541 -43.244591 
L 388.575135 -43.243152 
L 388.92973 -43.241757 
L 389.284324 -43.240405 
L 389.638919 -43.239095 
L 389.993514 -43.237826 
L 390.348108 -43.236596 
L 390.702703 -43.235404 
L 391.057297 -43.23425 
L 391.411892 -43.233132 
L 391.766486 -43.232049 
L 392.121081 -43.230999 
L 392.475676 -43.229983 
L 392.83027 -43.228999 
L 393.184865 -43.228045 
L 393.539459 -43.227122 
L 393.894054 -43.226228 
L 394.248649 -43.225363 
L 394.603243 -43.224524 
L 394.957838 -43.223713 
L 395.312432 -43.222927 
L 395.667027 -43.222166 
L 396.021622 -43.221429 
L 396.376216 -43.220716 
L 396.730811 -43.220026 
L 397.085405 -43.219358 
L 397.44 -43.218712 
L 397.44 -43.2 
L 397.44 -43.2 
L 397.085405 -43.2 
L 396.730811 -43.2 
L 396.376216 -43.2 
L 396.021622 -43.2 
L 395.667027 -43.2 
L 395.312432 -43.2 
L 394.957838 -43.2 
L 394.603243 -43.2 
L 394.248649 -43.2 
L 393.894054 -43.2 
L 393.539459 -43.2 
L 393.184865 -43.2 
L 392.83027 -43.2 
L 392.475676 -43.2 
L 392.121081 -43.2 
L 391.766486 -43.2 
L 391.411892 -43.2 
L 391.057297 -43.2 
L 390.702703 -43.2 
L 390.348108 -43.2 
L 389.993514 -43.2 
L 389.638919 -43.2 
L 389.284324 -43.2 
L 388.92973 -43.2 
L 388.575135 -43.2 
L 388.220541 -43.2 
L 387.865946 -43.2 
L 387.511351 -43.2 
L 387.156757 -43.2 
L 386.802162 -43.2 
L 386.447568 -43.2 
L 386.092973 -43.2 
L 385.738378 -43.2 
L 385.383784 -43.2 
L 385.029189 -43.2 
L 384.674595 -43.2 
L 384.32 -43.2 
L 383.965405 -43.2 
L 383.610811 -43.2 
L 383.256216 -43.2 
L 382.901622 -43.2 
L 382.547027 -43.2 
L 382.192432 -43.2 
L 381.837838 -43.2 
L 381.483243 -43.2 
L 381.128649 -43.2 
L 380.774054 -43.2 
L 380.419459 -43.2 
L 380.064865 -43.2 
L 379.71027 -43.2 
L 379.355676 -43.2 
L 379.001081 -43.2 
L 378.646486 -43.2 
L 378.291892 -43.2 
L 377.937297 -43.2 
L 377.582703 -43.2 
L 377.228108 -43.2 
L 376.873514 -43.2 
L 376.518919 -43.2 
L 376.164324 -43.2 
L 375.80973 -43.2 
L 375.455135 -43.2 
L 375.100541 -43.2 
L 374.745946 -43.2 
L 374.391351 -43.2 
L 374.036757 -43.2 
L 373.682162 -43.2 
L 373.327568 -43.2 
L 372.972973 -43.2 
L 372.618378 -43.2 
L 372.263784 -43.2 
L 371.909189 -43.2 
L 371.554595 -43.2 
L 371.2 -43.2 
L 370.845405 -43.2 
L 370.490811 -43.2 
L 370.136216 -43.2 
L 369.781622 -43.2 
L 369.427027 -43.2 
L 369.072432 -43.2 
L 368.717838 -43.2 
L 368.363243 -43.2 
L 368.008649 -43.2 
L 367.654054 -43.2 
L 367.299459 -43.2 
L 366.944865 -43.2 
L 366.59027 -43.2 
L 366.235676 -43.2 
L 365.881081 -43.2 
L 365.526486 -43.2 
L 365.171892 -43.2 
L 364.817297 -43.2 
L 364.462703 -43.2 
L 364.108108 -43.2 
L 363.753514 -43.2 
L 363.398919 -43.2 
L 363.044324 -43.2 
L 362.68973 -43.2 
L 362.335135 -43.2 
L 361.980541 -43.2 
L 361.625946 -43.2 
L 361.271351 -43.2 
L 360.916757 -43.2 
L 360.562162 -43.2 
L 360.207568 -43.2 
L 359.852973 -43.2 
L 359.498378 -43.2 
L 359.143784 -43.2 
L 358.789189 -43.2 
L 358.434595 -43.2 
L 358.08 -43.2 
L 357.725405 -43.2 
L 357.370811 -43.2 
L 357.016216 -43.2 
L 356.661622 -43.2 
L 356.307027 -43.2 
L 355.952432 -43.2 
L 355.597838 -43.2 
L 355.243243 -43.2 
L 354.888649 -43.2 
L 354.534054 -43.2 
L 354.179459 -43.2 
L 353.824865 -43.2 
L 353.47027 -43.2 
L 353.115676 -43.2 
L 352.761081 -43.2 
L 352.406486 -43.2 
L 352.051892 -43.2 
L 351.697297 -43.2 
L 351.342703 -43.2 
L 350.988108 -43.2 
L 350.633514 -43.2 
L 350.278919 -43.2 
L 349.924324 -43.2 
L 349.56973 -43.2 
L 349.215135 -43.2 
L 348.860541 -43.2 
L 348.505946 -43.2 
L 348.151351 -43.2 
L 347.796757 -43.2 
L 347.442162 -43.2 
L 347.087568 -43.2 
L 346.732973 -43.2 
L 346.378378 -43.2 
L 346.023784 -43.2 
L 345.669189 -43.2 
L 345.314595 -43.2 
L 344.96 -43.2 
L 344.605405 -43.2 
L 344.250811 -43.2 
L 343.896216 -43.2 
L 343.541622 -43.2 
L 343.187027 -43.2 
L 342.832432 -43.2 
z
" id="m908b823eeb" style="stroke:#f0ad4e;stroke-opacity:0.7;"/>
    </defs>
    <g clip-path="url(#p9ce0ee061e)">
     <use style="fill:#f0ad4e;fill-opacity:0.7;stroke:#f0ad4e;stroke-opacity:0.7;" x="0" xlink:href="#m908b823eeb" y="288"/>
    </g>
   </g>
   <g id="matplotlib.axis_1">
    <g id="xtick_1">
     <g id="line2d_1">
      <defs>
       <path d="M 0 0 
L 0 4 
" id="mc8ed15a35d" style="stroke:#d2d2d2;"/>
      </defs>
      <g>
       <use style="fill:#d2d2d2;stroke:#d2d2d2;" x="62.88" xlink:href="#mc8ed15a35d" y="244.8"/>
      </g>
     </g>
     <g id="text_1">
      <!-- −4 -->
      <defs>
       <path d="M 10.59375 35.5 
L 73.1875 35.5 
L 73.1875 27.203125 
L 10.59375 27.203125 
z
" id="DejaVuSans-2212"/>
       <path d="M 37.796875 64.3125 
L 12.890625 25.390625 
L 37.796875 25.390625 
z
M 35.203125 72.90625 
L 47.609375 72.90625 
L 47.609375 25.390625 
L 58.015625 25.390625 
L 58.015625 17.1875 
L 47.609375 17.1875 
L 47.609375 0 
L 37.796875 0 
L 37.796875 17.1875 
L 4.890625 17.1875 
L 4.890625 26.703125 
z
" id="DejaVuSans-34"/>
      </defs>
      <g style="fill:#d2d2d2;" transform="translate(53.297578 262.677969)scale(0.13 -0.13)">
       <use xlink:href="#DejaVuSans-2212"/>
       <use x="83.789062" xlink:href="#DejaVuSans-34"/>
      </g>
     </g>
    </g>
    <g id="xtick_2">
     <g id="line2d_2">
      <g>
       <use style="fill:#d2d2d2;stroke:#d2d2d2;" x="102.24" xlink:href="#mc8ed15a35d" y="244.8"/>
      </g>
     </g>
     <g id="text_2">
      <!-- −3 -->
      <defs>
       <path d="M 40.578125 39.3125 
Q 47.65625 37.796875 51.625 33 
Q 55.609375 28.21875 55.609375 21.1875 
Q 55.609375 10.40625 48.1875 4.484375 
Q 40.765625 -1.421875 27.09375 -1.421875 
Q 22.515625 -1.421875 17.65625 -0.515625 
Q 12.796875 0.390625 7.625 2.203125 
L 7.625 11.71875 
Q 11.71875 9.328125 16.59375 8.109375 
Q 21.484375 6.890625 26.8125 6.890625 
Q 36.078125 6.890625 40.9375 10.546875 
Q 45.796875 14.203125 45.796875 21.1875 
Q 45.796875 27.640625 41.28125 31.265625 
Q 36.765625 34.90625 28.71875 34.90625 
L 20.21875 34.90625 
L 20.21875 43.015625 
L 29.109375 43.015625 
Q 36.375 43.015625 40.234375 45.921875 
Q 44.09375 48.828125 44.09375 54.296875 
Q 44.09375 59.90625 40.109375 62.90625 
Q 36.140625 65.921875 28.71875 65.921875 
Q 24.65625 65.921875 20.015625 65.03125 
Q 15.375 64.15625 9.8125 62.3125 
L 9.8125 71.09375 
Q 15.4375 72.65625 20.34375 73.4375 
Q 25.25 74.21875 29.59375 74.21875 
Q 40.828125 74.21875 47.359375 69.109375 
Q 53.90625 64.015625 53.90625 55.328125 
Q 53.90625 49.265625 50.4375 45.09375 
Q 46.96875 40.921875 40.578125 39.3125 
" id="DejaVuSans-33"/>
      </defs>
      <g style="fill:#d2d2d2;" transform="translate(92.657578 262.677969)scale(0.13 -0.13)">
       <use xlink:href="#DejaVuSans-2212"/>
       <use x="83.789062" xlink:href="#DejaVuSans-33"/>
      </g>
     </g>
    </g>
    <g id="xtick_3">
     <g id="line2d_3">
      <g>
       <use style="fill:#d2d2d2;stroke:#d2d2d2;" x="141.6" xlink:href="#mc8ed15a35d" y="244.8"/>
      </g>
     </g>
     <g id="text_3">
      <!-- −2 -->
      <defs>
       <path d="M 19.1875 8.296875 
L 53.609375 8.296875 
L 53.609375 0 
L 7.328125 0 
L 7.328125 8.296875 
Q 12.9375 14.109375 22.625 23.890625 
Q 32.328125 33.6875 34.8125 36.53125 
Q 39.546875 41.84375 41.421875 45.53125 
Q 43.3125 49.21875 43.3125 52.78125 
Q 43.3125 58.59375 39.234375 62.25 
Q 35.15625 65.921875 28.609375 65.921875 
Q 23.96875 65.921875 18.8125 64.3125 
Q 13.671875 62.703125 7.8125 59.421875 
L 7.8125 69.390625 
Q 13.765625 71.78125 18.9375 73 
Q 24.125 74.21875 28.421875 74.21875 
Q 39.75 74.21875 46.484375 68.546875 
Q 53.21875 62.890625 53.21875 53.421875 
Q 53.21875 48.921875 51.53125 44.890625 
Q 49.859375 40.875 45.40625 35.40625 
Q 44.1875 33.984375 37.640625 27.21875 
Q 31.109375 20.453125 19.1875 8.296875 
" id="DejaVuSans-32"/>
      </defs>
      <g style="fill:#d2d2d2;" transform="translate(132.017578 262.677969)scale(0.13 -0.13)">
       <use xlink:href="#DejaVuSans-2212"/>
       <use x="83.789062" xlink:href="#DejaVuSans-32"/>
      </g>
     </g>
    </g>
    <g id="xtick_4">
     <g id="line2d_4">
      <g>
       <use style="fill:#d2d2d2;stroke:#d2d2d2;" x="180.96" xlink:href="#mc8ed15a35d" y="244.8"/>
      </g>
     </g>
     <g id="text_4">
      <!-- −1 -->
      <defs>
       <path d="M 12.40625 8.296875 
L 28.515625 8.296875 
L 28.515625 63.921875 
L 10.984375 60.40625 
L 10.984375 69.390625 
L 28.421875 72.90625 
L 38.28125 72.90625 
L 38.28125 8.296875 
L 54.390625 8.296875 
L 54.390625 0 
L 12.40625 0 
z
" id="DejaVuSans-31"/>
      </defs>
      <g style="fill:#d2d2d2;" transform="translate(171.377578 262.677969)scale(0.13 -0.13)">
       <use xlink:href="#DejaVuSans-2212"/>
       <use x="83.789062" xlink:href="#DejaVuSans-31"/>
      </g>
     </g>
    </g>
    <g id="xtick_5">
     <g id="line2d_5">
      <g>
       <use style="fill:#d2d2d2;stroke:#d2d2d2;" x="220.32" xlink:href="#mc8ed15a35d" y="244.8"/>
      </g>
     </g>
     <g id="text_5">
      <!-- 0 -->
      <defs>
       <path d="M 31.78125 66.40625 
Q 24.171875 66.40625 20.328125 58.90625 
Q 16.5 51.421875 16.5 36.375 
Q 16.5 21.390625 20.328125 13.890625 
Q 24.171875 6.390625 31.78125 6.390625 
Q 39.453125 6.390625 43.28125 13.890625 
Q 47.125 21.390625 47.125 36.375 
Q 47.125 51.421875 43.28125 58.90625 
Q 39.453125 66.40625 31.78125 66.40625 
M 31.78125 74.21875 
Q 44.046875 74.21875 50.515625 64.515625 
Q 56.984375 54.828125 56.984375 36.375 
Q 56.984375 17.96875 50.515625 8.265625 
Q 44.046875 -1.421875 31.78125 -1.421875 
Q 19.53125 -1.421875 13.0625 8.265625 
Q 6.59375 17.96875 6.59375 36.375 
Q 6.59375 54.828125 13.0625 64.515625 
Q 19.53125 74.21875 31.78125 74.21875 
" id="DejaVuSans-30"/>
      </defs>
      <g style="fill:#d2d2d2;" transform="translate(216.184375 262.677969)scale(0.13 -0.13)">
       <use xlink:href="#DejaVuSans-30"/>
      </g>
     </g>
    </g>
    <g id="xtick_6">
     <g id="line2d_6">
      <g>
       <use style="fill:#d2d2d2;stroke:#d2d2d2;" x="259.68" xlink:href="#mc8ed15a35d" y="244.8"/>
      </g>
     </g>
     <g id="text_6">
      <!-- 1 -->
      <g style="fill:#d2d2d2;" transform="translate(255.544375 262.677969)scale(0.13 -0.13)">
       <use xlink:href="#DejaVuSans-31"/>
      </g>
     </g>
    </g>
    <g id="xtick_7">
     <g id="line2d_7">
      <g>
       <use style="fill:#d2d2d2;stroke:#d2d2d2;" x="299.04" xlink:href="#mc8ed15a35d" y="244.8"/>
      </g>
     </g>
     <g id="text_7">
      <!-- 2 -->
      <g style="fill:#d2d2d2;" transform="translate(294.904375 262.677969)scale(0.13 -0.13)">
       <use xlink:href="#DejaVuSans-32"/>
      </g>
     </g>
    </g>
    <g id="xtick_8">
     <g id="line2d_8">
      <g>
       <use style="fill:#d2d2d2;stroke:#d2d2d2;" x="338.4" xlink:href="#mc8ed15a35d" y="244.8"/>
      </g>
     </g>
     <g id="text_8">
      <!-- 3 -->
      <g style="fill:#d2d2d2;" transform="translate(334.264375 262.677969)scale(0.13 -0.13)">
       <use xlink:href="#DejaVuSans-33"/>
      </g>
     </g>
    </g>
    <g id="xtick_9">
     <g id="line2d_9">
      <g>
       <use style="fill:#d2d2d2;stroke:#d2d2d2;" x="377.76" xlink:href="#mc8ed15a35d" y="244.8"/>
      </g>
     </g>
     <g id="text_9">
      <!-- 4 -->
      <g style="fill:#d2d2d2;" transform="translate(373.624375 262.677969)scale(0.13 -0.13)">
       <use xlink:href="#DejaVuSans-34"/>
      </g>
     </g>
    </g>
    <g id="text_10">
     <!-- Standardized x -->
     <defs>
      <path d="M 53.515625 70.515625 
L 53.515625 60.890625 
Q 47.90625 63.578125 42.921875 64.890625 
Q 37.9375 66.21875 33.296875 66.21875 
Q 25.25 66.21875 20.875 63.09375 
Q 16.5 59.96875 16.5 54.203125 
Q 16.5 49.359375 19.40625 46.890625 
Q 22.3125 44.4375 30.421875 42.921875 
L 36.375 41.703125 
Q 47.40625 39.59375 52.65625 34.296875 
Q 57.90625 29 57.90625 20.125 
Q 57.90625 9.515625 50.796875 4.046875 
Q 43.703125 -1.421875 29.984375 -1.421875 
Q 24.8125 -1.421875 18.96875 -0.25 
Q 13.140625 0.921875 6.890625 3.21875 
L 6.890625 13.375 
Q 12.890625 10.015625 18.65625 8.296875 
Q 24.421875 6.59375 29.984375 6.59375 
Q 38.421875 6.59375 43.015625 9.90625 
Q 47.609375 13.234375 47.609375 19.390625 
Q 47.609375 24.75 44.3125 27.78125 
Q 41.015625 30.8125 33.5 32.328125 
L 27.484375 33.5 
Q 16.453125 35.6875 11.515625 40.375 
Q 6.59375 45.0625 6.59375 53.421875 
Q 6.59375 63.09375 13.40625 68.65625 
Q 20.21875 74.21875 32.171875 74.21875 
Q 37.3125 74.21875 42.625 73.28125 
Q 47.953125 72.359375 53.515625 70.515625 
" id="DejaVuSans-53"/>
      <path d="M 18.3125 70.21875 
L 18.3125 54.6875 
L 36.8125 54.6875 
L 36.8125 47.703125 
L 18.3125 47.703125 
L 18.3125 18.015625 
Q 18.3125 11.328125 20.140625 9.421875 
Q 21.96875 7.515625 27.59375 7.515625 
L 36.8125 7.515625 
L 36.8125 0 
L 27.59375 0 
Q 17.1875 0 13.234375 3.875 
Q 9.28125 7.765625 9.28125 18.015625 
L 9.28125 47.703125 
L 2.6875 47.703125 
L 2.6875 54.6875 
L 9.28125 54.6875 
L 9.28125 70.21875 
z
" id="DejaVuSans-74"/>
      <path d="M 34.28125 27.484375 
Q 23.390625 27.484375 19.1875 25 
Q 14.984375 22.515625 14.984375 16.5 
Q 14.984375 11.71875 18.140625 8.90625 
Q 21.296875 6.109375 26.703125 6.109375 
Q 34.1875 6.109375 38.703125 11.40625 
Q 43.21875 16.703125 43.21875 25.484375 
L 43.21875 27.484375 
z
M 52.203125 31.203125 
L 52.203125 0 
L 43.21875 0 
L 43.21875 8.296875 
Q 40.140625 3.328125 35.546875 0.953125 
Q 30.953125 -1.421875 24.3125 -1.421875 
Q 15.921875 -1.421875 10.953125 3.296875 
Q 6 8.015625 6 15.921875 
Q 6 25.140625 12.171875 29.828125 
Q 18.359375 34.515625 30.609375 34.515625 
L 43.21875 34.515625 
L 43.21875 35.40625 
Q 43.21875 41.609375 39.140625 45 
Q 35.0625 48.390625 27.6875 48.390625 
Q 23 48.390625 18.546875 47.265625 
Q 14.109375 46.140625 10.015625 43.890625 
L 10.015625 52.203125 
Q 14.9375 54.109375 19.578125 55.046875 
Q 24.21875 56 28.609375 56 
Q 40.484375 56 46.34375 49.84375 
Q 52.203125 43.703125 52.203125 31.203125 
" id="DejaVuSans-61"/>
      <path d="M 54.890625 33.015625 
L 54.890625 0 
L 45.90625 0 
L 45.90625 32.71875 
Q 45.90625 40.484375 42.875 44.328125 
Q 39.84375 48.1875 33.796875 48.1875 
Q 26.515625 48.1875 22.3125 43.546875 
Q 18.109375 38.921875 18.109375 30.90625 
L 18.109375 0 
L 9.078125 0 
L 9.078125 54.6875 
L 18.109375 54.6875 
L 18.109375 46.1875 
Q 21.34375 51.125 25.703125 53.5625 
Q 30.078125 56 35.796875 56 
Q 45.21875 56 50.046875 50.171875 
Q 54.890625 44.34375 54.890625 33.015625 
" id="DejaVuSans-6e"/>
      <path d="M 45.40625 46.390625 
L 45.40625 75.984375 
L 54.390625 75.984375 
L 54.390625 0 
L 45.40625 0 
L 45.40625 8.203125 
Q 42.578125 3.328125 38.25 0.953125 
Q 33.9375 -1.421875 27.875 -1.421875 
Q 17.96875 -1.421875 11.734375 6.484375 
Q 5.515625 14.40625 5.515625 27.296875 
Q 5.515625 40.1875 11.734375 48.09375 
Q 17.96875 56 27.875 56 
Q 33.9375 56 38.25 53.625 
Q 42.578125 51.265625 45.40625 46.390625 
M 14.796875 27.296875 
Q 14.796875 17.390625 18.875 11.75 
Q 22.953125 6.109375 30.078125 6.109375 
Q 37.203125 6.109375 41.296875 11.75 
Q 45.40625 17.390625 45.40625 27.296875 
Q 45.40625 37.203125 41.296875 42.84375 
Q 37.203125 48.484375 30.078125 48.484375 
Q 22.953125 48.484375 18.875 42.84375 
Q 14.796875 37.203125 14.796875 27.296875 
" id="DejaVuSans-64"/>
      <path d="M 41.109375 46.296875 
Q 39.59375 47.171875 37.8125 47.578125 
Q 36.03125 48 33.890625 48 
Q 26.265625 48 22.1875 43.046875 
Q 18.109375 38.09375 18.109375 28.8125 
L 18.109375 0 
L 9.078125 0 
L 9.078125 54.6875 
L 18.109375 54.6875 
L 18.109375 46.1875 
Q 20.953125 51.171875 25.484375 53.578125 
Q 30.03125 56 36.53125 56 
Q 37.453125 56 38.578125 55.875 
Q 39.703125 55.765625 41.0625 55.515625 
z
" id="DejaVuSans-72"/>
      <path d="M 9.421875 54.6875 
L 18.40625 54.6875 
L 18.40625 0 
L 9.421875 0 
z
M 9.421875 75.984375 
L 18.40625 75.984375 
L 18.40625 64.59375 
L 9.421875 64.59375 
z
" id="DejaVuSans-69"/>
      <path d="M 5.515625 54.6875 
L 48.1875 54.6875 
L 48.1875 46.484375 
L 14.40625 7.171875 
L 48.1875 7.171875 
L 48.1875 0 
L 4.296875 0 
L 4.296875 8.203125 
L 38.09375 47.515625 
L 5.515625 47.515625 
z
" id="DejaVuSans-7a"/>
      <path d="M 56.203125 29.59375 
L 56.203125 25.203125 
L 14.890625 25.203125 
Q 15.484375 15.921875 20.484375 11.0625 
Q 25.484375 6.203125 34.421875 6.203125 
Q 39.59375 6.203125 44.453125 7.46875 
Q 49.3125 8.734375 54.109375 11.28125 
L 54.109375 2.78125 
Q 49.265625 0.734375 44.1875 -0.34375 
Q 39.109375 -1.421875 33.890625 -1.421875 
Q 20.796875 -1.421875 13.15625 6.1875 
Q 5.515625 13.8125 5.515625 26.8125 
Q 5.515625 40.234375 12.765625 48.109375 
Q 20.015625 56 32.328125 56 
Q 43.359375 56 49.78125 48.890625 
Q 56.203125 41.796875 56.203125 29.59375 
M 47.21875 32.234375 
Q 47.125 39.59375 43.09375 43.984375 
Q 39.0625 48.390625 32.421875 48.390625 
Q 24.90625 48.390625 20.390625 44.140625 
Q 15.875 39.890625 15.1875 32.171875 
z
" id="DejaVuSans-65"/>
      <path id="DejaVuSans-20"/>
      <path d="M 54.890625 54.6875 
L 35.109375 28.078125 
L 55.90625 0 
L 45.3125 0 
L 29.390625 21.484375 
L 13.484375 0 
L 2.875 0 
L 24.125 28.609375 
L 4.6875 54.6875 
L 15.28125 54.6875 
L 29.78125 35.203125 
L 44.28125 54.6875 
z
" id="DejaVuSans-78"/>
     </defs>
     <g style="fill:#d2d2d2;" transform="translate(152.555625 283.05875)scale(0.18 -0.18)">
      <use xlink:href="#DejaVuSans-53"/>
      <use x="63.476562" xlink:href="#DejaVuSans-74"/>
      <use x="102.685547" xlink:href="#DejaVuSans-61"/>
      <use x="163.964844" xlink:href="#DejaVuSans-6e"/>
      <use x="227.34375" xlink:href="#DejaVuSans-64"/>
      <use x="290.820312" xlink:href="#DejaVuSans-61"/>
      <use x="352.099609" xlink:href="#DejaVuSans-72"/>
      <use x="393.197266" xlink:href="#DejaVuSans-64"/>
      <use x="456.673828" xlink:href="#DejaVuSans-69"/>
      <use x="484.457031" xlink:href="#DejaVuSans-7a"/>
      <use x="536.947266" xlink:href="#DejaVuSans-65"/>
      <use x="598.470703" xlink:href="#DejaVuSans-64"/>
      <use x="661.947266" xlink:href="#DejaVuSans-20"/>
      <use x="693.734375" xlink:href="#DejaVuSans-78"/>
     </g>
    </g>
   </g>
   <g id="matplotlib.axis_2"/>
   <g id="line2d_10">
    <path clip-path="url(#p9ce0ee061e)" d="M 43.2 244.781288 
L 67.312432 244.630759 
L 79.014054 244.347407 
L 87.16973 243.933153 
L 93.552432 243.389042 
L 98.871351 242.713725 
L 103.481081 241.904572 
L 107.381622 241.010787 
L 110.927568 239.993335 
L 114.473514 238.74221 
L 117.664865 237.38198 
L 120.856216 235.765372 
L 123.692973 234.084285 
L 126.52973 232.145917 
L 129.366486 229.922878 
L 132.203243 227.387286 
L 135.04 224.511302 
L 137.522162 221.694198 
L 140.004324 218.578297 
L 142.841081 214.630782 
L 145.677838 210.250672 
L 148.514595 205.420469 
L 151.351351 200.12749 
L 154.188108 194.364881 
L 157.024865 188.132621 
L 160.216216 180.569945 
L 163.407568 172.447153 
L 166.953514 162.813349 
L 170.854054 151.567249 
L 175.463784 137.587251 
L 183.264865 113.056343 
L 189.647568 93.278096 
L 193.548108 81.85974 
L 196.739459 73.133489 
L 199.576216 65.973984 
L 202.058378 60.25413 
L 204.540541 55.109875 
L 206.668108 51.203437 
L 208.795676 47.796706 
L 210.568649 45.360959 
L 212.341622 43.307716 
L 213.76 41.949089 
L 215.178378 40.848776 
L 216.596757 40.011153 
L 218.015135 39.439566 
L 219.433514 39.136303 
L 220.851892 39.102578 
L 222.27027 39.338529 
L 223.688649 39.843208 
L 225.107027 40.614594 
L 226.525405 41.649606 
L 227.943784 42.94412 
L 229.716757 44.919273 
L 231.48973 47.279639 
L 233.262703 50.010792 
L 235.39027 53.754197 
L 237.517838 57.975404 
L 240 63.456138 
L 242.482162 69.476452 
L 245.318919 76.932199 
L 248.51027 85.928801 
L 252.410811 97.585045 
L 258.438919 116.416003 
L 267.303784 144.116748 
L 271.913514 157.77872 
L 275.814054 168.666957 
L 279.36 177.922961 
L 282.551351 185.675758 
L 285.742703 192.850683 
L 288.579459 198.73099 
L 291.416216 204.140984 
L 294.252973 209.085903 
L 297.08973 213.577066 
L 299.926486 217.630864 
L 302.763243 221.267754 
L 305.6 224.511302 
L 308.436757 227.387286 
L 311.273514 229.922878 
L 314.11027 232.145917 
L 316.947027 234.084285 
L 319.783784 235.765372 
L 322.975135 237.38198 
L 326.166486 238.74221 
L 329.712432 239.993335 
L 333.258378 241.010787 
L 337.158919 241.904572 
L 341.414054 242.65966 
L 346.378378 243.312337 
L 352.051892 243.832444 
L 359.143784 244.246664 
L 368.363243 244.541262 
L 381.483243 244.71758 
L 397.44 244.781288 
L 397.44 244.781288 
" style="fill:none;stroke:#5bc0de;stroke-linecap:square;stroke-width:1.5;"/>
   </g>
   <g id="line2d_11">
    <path clip-path="url(#p9ce0ee061e)" d="M 342.673422 244.8 
L 342.673422 173.52 
" style="fill:none;stroke:#f0ad4e;stroke-dasharray:5.6,2.4;stroke-dashoffset:0;stroke-width:1.5;"/>
   </g>
   <g id="line2d_12">
    <path clip-path="url(#p9ce0ee061e)" d="M 97.966578 244.8 
L 97.966578 173.52 
" style="fill:none;stroke:#f0ad4e;stroke-dasharray:5.6,2.4;stroke-dashoffset:0;stroke-width:1.5;"/>
   </g>
   <g id="patch_3">
    <path d="M 43.2 244.8 
L 397.44 244.8 
" style="fill:none;stroke:#d2d2d2;stroke-linecap:square;stroke-linejoin:miter;"/>
   </g>
   <g id="text_11">
    <!-- 3.11 -->
    <defs>
     <path d="M 10.6875 12.40625 
L 21 12.40625 
L 21 0 
L 10.6875 0 
z
" id="DejaVuSans-2e"/>
    </defs>
    <g style="fill:#f0ad4e;" transform="translate(328.200766 169.2)scale(0.13 -0.13)">
     <use xlink:href="#DejaVuSans-33"/>
     <use x="63.623047" xlink:href="#DejaVuSans-2e"/>
     <use x="95.410156" xlink:href="#DejaVuSans-31"/>
     <use x="159.033203" xlink:href="#DejaVuSans-31"/>
    </g>
   </g>
   <g id="text_12">
    <!-- -3.11 -->
    <defs>
     <path d="M 4.890625 31.390625 
L 31.203125 31.390625 
L 31.203125 23.390625 
L 4.890625 23.390625 
z
" id="DejaVuSans-2d"/>
    </defs>
    <g style="fill:#f0ad4e;" transform="translate(81.148844 169.2)scale(0.13 -0.13)">
     <use xlink:href="#DejaVuSans-2d"/>
     <use x="36.083984" xlink:href="#DejaVuSans-33"/>
     <use x="99.707031" xlink:href="#DejaVuSans-2e"/>
     <use x="131.494141" xlink:href="#DejaVuSans-31"/>
     <use x="195.117188" xlink:href="#DejaVuSans-31"/>
    </g>
   </g>
   <g id="text_13">
    <!-- Area under the curve -->
    <defs>
     <path d="M 34.1875 63.1875 
L 20.796875 26.90625 
L 47.609375 26.90625 
z
M 28.609375 72.90625 
L 39.796875 72.90625 
L 67.578125 0 
L 57.328125 0 
L 50.6875 18.703125 
L 17.828125 18.703125 
L 11.1875 0 
L 0.78125 0 
z
" id="DejaVuSans-41"/>
     <path d="M 8.5 21.578125 
L 8.5 54.6875 
L 17.484375 54.6875 
L 17.484375 21.921875 
Q 17.484375 14.15625 20.5 10.265625 
Q 23.53125 6.390625 29.59375 6.390625 
Q 36.859375 6.390625 41.078125 11.03125 
Q 45.3125 15.671875 45.3125 23.6875 
L 45.3125 54.6875 
L 54.296875 54.6875 
L 54.296875 0 
L 45.3125 0 
L 45.3125 8.40625 
Q 42.046875 3.421875 37.71875 1 
Q 33.40625 -1.421875 27.6875 -1.421875 
Q 18.265625 -1.421875 13.375 4.4375 
Q 8.5 10.296875 8.5 21.578125 
M 31.109375 56 
z
" id="DejaVuSans-75"/>
     <path d="M 54.890625 33.015625 
L 54.890625 0 
L 45.90625 0 
L 45.90625 32.71875 
Q 45.90625 40.484375 42.875 44.328125 
Q 39.84375 48.1875 33.796875 48.1875 
Q 26.515625 48.1875 22.3125 43.546875 
Q 18.109375 38.921875 18.109375 30.90625 
L 18.109375 0 
L 9.078125 0 
L 9.078125 75.984375 
L 18.109375 75.984375 
L 18.109375 46.1875 
Q 21.34375 51.125 25.703125 53.5625 
Q 30.078125 56 35.796875 56 
Q 45.21875 56 50.046875 50.171875 
Q 54.890625 44.34375 54.890625 33.015625 
" id="DejaVuSans-68"/>
     <path d="M 48.78125 52.59375 
L 48.78125 44.1875 
Q 44.96875 46.296875 41.140625 47.34375 
Q 37.3125 48.390625 33.40625 48.390625 
Q 24.65625 48.390625 19.8125 42.84375 
Q 14.984375 37.3125 14.984375 27.296875 
Q 14.984375 17.28125 19.8125 11.734375 
Q 24.65625 6.203125 33.40625 6.203125 
Q 37.3125 6.203125 41.140625 7.25 
Q 44.96875 8.296875 48.78125 10.40625 
L 48.78125 2.09375 
Q 45.015625 0.34375 40.984375 -0.53125 
Q 36.96875 -1.421875 32.421875 -1.421875 
Q 20.0625 -1.421875 12.78125 6.34375 
Q 5.515625 14.109375 5.515625 27.296875 
Q 5.515625 40.671875 12.859375 48.328125 
Q 20.21875 56 33.015625 56 
Q 37.15625 56 41.109375 55.140625 
Q 45.0625 54.296875 48.78125 52.59375 
" id="DejaVuSans-63"/>
     <path d="M 2.984375 54.6875 
L 12.5 54.6875 
L 29.59375 8.796875 
L 46.6875 54.6875 
L 56.203125 54.6875 
L 35.6875 0 
L 23.484375 0 
z
" id="DejaVuSans-76"/>
    </defs>
    <g style="fill:#f0ad4e;" transform="translate(248.36625 62.246125)scale(0.14 -0.14)">
     <use xlink:href="#DejaVuSans-41"/>
     <use x="68.408203" xlink:href="#DejaVuSans-72"/>
     <use x="109.490234" xlink:href="#DejaVuSans-65"/>
     <use x="171.013672" xlink:href="#DejaVuSans-61"/>
     <use x="232.292969" xlink:href="#DejaVuSans-20"/>
     <use x="264.080078" xlink:href="#DejaVuSans-75"/>
     <use x="327.458984" xlink:href="#DejaVuSans-6e"/>
     <use x="390.837891" xlink:href="#DejaVuSans-64"/>
     <use x="454.314453" xlink:href="#DejaVuSans-65"/>
     <use x="515.837891" xlink:href="#DejaVuSans-72"/>
     <use x="556.951172" xlink:href="#DejaVuSans-20"/>
     <use x="588.738281" xlink:href="#DejaVuSans-74"/>
     <use x="627.947266" xlink:href="#DejaVuSans-68"/>
     <use x="691.326172" xlink:href="#DejaVuSans-65"/>
     <use x="752.849609" xlink:href="#DejaVuSans-20"/>
     <use x="784.636719" xlink:href="#DejaVuSans-63"/>
     <use x="839.617188" xlink:href="#DejaVuSans-75"/>
     <use x="902.996094" xlink:href="#DejaVuSans-72"/>
     <use x="944.109375" xlink:href="#DejaVuSans-76"/>
     <use x="1003.289062" xlink:href="#DejaVuSans-65"/>
    </g>
    <!-- 2-tailed p-value -->
    <defs>
     <path d="M 9.421875 75.984375 
L 18.40625 75.984375 
L 18.40625 0 
L 9.421875 0 
z
" id="DejaVuSans-6c"/>
     <path d="M 18.109375 8.203125 
L 18.109375 -20.796875 
L 9.078125 -20.796875 
L 9.078125 54.6875 
L 18.109375 54.6875 
L 18.109375 46.390625 
Q 20.953125 51.265625 25.265625 53.625 
Q 29.59375 56 35.59375 56 
Q 45.5625 56 51.78125 48.09375 
Q 58.015625 40.1875 58.015625 27.296875 
Q 58.015625 14.40625 51.78125 6.484375 
Q 45.5625 -1.421875 35.59375 -1.421875 
Q 29.59375 -1.421875 25.265625 0.953125 
Q 20.953125 3.328125 18.109375 8.203125 
M 48.6875 27.296875 
Q 48.6875 37.203125 44.609375 42.84375 
Q 40.53125 48.484375 33.40625 48.484375 
Q 26.265625 48.484375 22.1875 42.84375 
Q 18.109375 37.203125 18.109375 27.296875 
Q 18.109375 17.390625 22.1875 11.75 
Q 26.265625 6.109375 33.40625 6.109375 
Q 40.53125 6.109375 44.609375 11.75 
Q 48.6875 17.390625 48.6875 27.296875 
" id="DejaVuSans-70"/>
    </defs>
    <g style="fill:#f0ad4e;" transform="translate(287.507187 77.923063)scale(0.14 -0.14)">
     <use xlink:href="#DejaVuSans-32"/>
     <use x="63.623047" xlink:href="#DejaVuSans-2d"/>
     <use x="99.707031" xlink:href="#DejaVuSans-74"/>
     <use x="138.916016" xlink:href="#DejaVuSans-61"/>
     <use x="200.195312" xlink:href="#DejaVuSans-69"/>
     <use x="227.978516" xlink:href="#DejaVuSans-6c"/>
     <use x="255.761719" xlink:href="#DejaVuSans-65"/>
     <use x="317.285156" xlink:href="#DejaVuSans-64"/>
     <use x="380.761719" xlink:href="#DejaVuSans-20"/>
     <use x="412.548828" xlink:href="#DejaVuSans-70"/>
     <use x="476.025391" xlink:href="#DejaVuSans-2d"/>
     <use x="512.078125" xlink:href="#DejaVuSans-76"/>
     <use x="571.257812" xlink:href="#DejaVuSans-61"/>
     <use x="632.537109" xlink:href="#DejaVuSans-6c"/>
     <use x="660.320312" xlink:href="#DejaVuSans-75"/>
     <use x="723.699219" xlink:href="#DejaVuSans-65"/>
    </g>
    <!-- 0.0025 -->
    <defs>
     <path d="M 10.796875 72.90625 
L 49.515625 72.90625 
L 49.515625 64.59375 
L 19.828125 64.59375 
L 19.828125 46.734375 
Q 21.96875 47.46875 24.109375 47.828125 
Q 26.265625 48.1875 28.421875 48.1875 
Q 40.625 48.1875 47.75 41.5 
Q 54.890625 34.8125 54.890625 23.390625 
Q 54.890625 11.625 47.5625 5.09375 
Q 40.234375 -1.421875 26.90625 -1.421875 
Q 22.3125 -1.421875 17.546875 -0.640625 
Q 12.796875 0.140625 7.71875 1.703125 
L 7.71875 11.625 
Q 12.109375 9.234375 16.796875 8.0625 
Q 21.484375 6.890625 26.703125 6.890625 
Q 35.15625 6.890625 40.078125 11.328125 
Q 45.015625 15.765625 45.015625 23.390625 
Q 45.015625 31 40.078125 35.4375 
Q 35.15625 39.890625 26.703125 39.890625 
Q 22.75 39.890625 18.8125 39.015625 
Q 14.890625 38.140625 10.796875 36.28125 
z
" id="DejaVuSans-35"/>
    </defs>
    <g style="fill:#f0ad4e;" transform="translate(348.453125 93.6)scale(0.14 -0.14)">
     <use xlink:href="#DejaVuSans-30"/>
     <use x="63.623047" xlink:href="#DejaVuSans-2e"/>
     <use x="95.410156" xlink:href="#DejaVuSans-30"/>
     <use x="159.033203" xlink:href="#DejaVuSans-30"/>
     <use x="222.65625" xlink:href="#DejaVuSans-32"/>
     <use x="286.279297" xlink:href="#DejaVuSans-35"/>
    </g>
   </g>
  </g>
 </g>
 <defs>
  <clipPath id="p9ce0ee061e">
   <rect height="216" width="354.24" x="43.2" y="28.8"/>
  </clipPath>
 </defs>
</svg>
