<?xml version="1.0" encoding="utf-8" standalone="no"?>
<!DOCTYPE svg PUBLIC "-//W3C//DTD SVG 1.1//EN"
  "http://www.w3.org/Graphics/SVG/1.1/DTD/svg11.dtd">
<!-- Created with matplotlib (http://matplotlib.org/) -->
<svg height="288pt" version="1.1" viewBox="0 0 432 288" width="432pt" xmlns="http://www.w3.org/2000/svg" xmlns:xlink="http://www.w3.org/1999/xlink">
 <defs>
  <style type="text/css">
*{stroke-linecap:butt;stroke-linejoin:round;}
  </style>
 </defs>
 <g id="figure_1">
  <g id="patch_1">
   <path d="M 0 288 
L 432 288 
L 432 0 
L 0 0 
z
" style="fill:none;"/>
  </g>
  <g id="axes_1">
   <g id="patch_2">
    <path d="M 43.2 244.8 
L 397.44 244.8 
L 397.44 28.8 
L 43.2 28.8 
z
" style="fill:none;"/>
   </g>
   <g id="patch_3">
    <path clip-path="url(#p5adefa45b8)" d="M 105.808378 244.8 
L 108.035003 244.8 
L 108.035003 244.643919 
L 105.808378 244.643919 
z
" style="fill:#5bc0de;"/>
   </g>
   <g id="patch_4">
    <path clip-path="url(#p5adefa45b8)" d="M 108.035003 244.8 
L 110.261629 244.8 
L 110.261629 244.643919 
L 108.035003 244.643919 
z
" style="fill:#5bc0de;"/>
   </g>
   <g id="patch_5">
    <path clip-path="url(#p5adefa45b8)" d="M 110.261629 244.8 
L 112.488254 244.8 
L 112.488254 244.331758 
L 110.261629 244.331758 
z
" style="fill:#5bc0de;"/>
   </g>
   <g id="patch_6">
    <path clip-path="url(#p5adefa45b8)" d="M 112.488254 244.8 
L 114.71488 244.8 
L 114.71488 244.175677 
L 112.488254 244.175677 
z
" style="fill:#5bc0de;"/>
   </g>
   <g id="patch_7">
    <path clip-path="url(#p5adefa45b8)" d="M 114.71488 244.8 
L 116.941505 244.8 
L 116.941505 243.863516 
L 114.71488 243.863516 
z
" style="fill:#5bc0de;"/>
   </g>
   <g id="patch_8">
    <path clip-path="url(#p5adefa45b8)" d="M 116.941505 244.8 
L 119.16813 244.8 
L 119.16813 244.331758 
L 116.941505 244.331758 
z
" style="fill:#5bc0de;"/>
   </g>
   <g id="patch_9">
    <path clip-path="url(#p5adefa45b8)" d="M 119.16813 244.8 
L 121.394756 244.8 
L 121.394756 239.9615 
L 119.16813 239.9615 
z
" style="fill:#5bc0de;"/>
   </g>
   <g id="patch_10">
    <path clip-path="url(#p5adefa45b8)" d="M 121.394756 244.8 
L 123.621381 244.8 
L 123.621381 243.239194 
L 121.394756 243.239194 
z
" style="fill:#5bc0de;"/>
   </g>
   <g id="patch_11">
    <path clip-path="url(#p5adefa45b8)" d="M 123.621381 244.8 
L 125.848007 244.8 
L 125.848007 241.054065 
L 123.621381 241.054065 
z
" style="fill:#5bc0de;"/>
   </g>
   <g id="patch_12">
    <path clip-path="url(#p5adefa45b8)" d="M 125.848007 244.8 
L 128.074632 244.8 
L 128.074632 242.927032 
L 125.848007 242.927032 
z
" style="fill:#5bc0de;"/>
   </g>
   <g id="patch_13">
    <path clip-path="url(#p5adefa45b8)" d="M 128.074632 244.8 
L 130.301258 244.8 
L 130.301258 234.342597 
L 128.074632 234.342597 
z
" style="fill:#5bc0de;"/>
   </g>
   <g id="patch_14">
    <path clip-path="url(#p5adefa45b8)" d="M 130.301258 244.8 
L 132.527883 244.8 
L 132.527883 238.244613 
L 130.301258 238.244613 
z
" style="fill:#5bc0de;"/>
   </g>
   <g id="patch_15">
    <path clip-path="url(#p5adefa45b8)" d="M 132.527883 244.8 
L 134.754509 244.8 
L 134.754509 236.215565 
L 132.527883 236.215565 
z
" style="fill:#5bc0de;"/>
   </g>
   <g id="patch_16">
    <path clip-path="url(#p5adefa45b8)" d="M 134.754509 244.8 
L 136.981134 244.8 
L 136.981134 244.331758 
L 134.754509 244.331758 
z
" style="fill:#5bc0de;"/>
   </g>
   <g id="patch_17">
    <path clip-path="url(#p5adefa45b8)" d="M 136.981134 244.8 
L 139.20776 244.8 
L 139.20776 244.175677 
L 136.981134 244.175677 
z
" style="fill:#5bc0de;"/>
   </g>
   <g id="patch_18">
    <path clip-path="url(#p5adefa45b8)" d="M 139.20776 244.8 
L 141.434385 244.8 
L 141.434385 232.62571 
L 139.20776 232.62571 
z
" style="fill:#5bc0de;"/>
   </g>
   <g id="patch_19">
    <path clip-path="url(#p5adefa45b8)" d="M 141.434385 244.8 
L 143.661011 244.8 
L 143.661011 244.8 
L 141.434385 244.8 
z
" style="fill:#5bc0de;"/>
   </g>
   <g id="patch_20">
    <path clip-path="url(#p5adefa45b8)" d="M 143.661011 244.8 
L 145.887636 244.8 
L 145.887636 241.834468 
L 143.661011 241.834468 
z
" style="fill:#5bc0de;"/>
   </g>
   <g id="patch_21">
    <path clip-path="url(#p5adefa45b8)" d="M 145.887636 244.8 
L 148.114262 244.8 
L 148.114262 238.088532 
L 145.887636 238.088532 
z
" style="fill:#5bc0de;"/>
   </g>
   <g id="patch_22">
    <path clip-path="url(#p5adefa45b8)" d="M 148.114262 244.8 
L 150.340887 244.8 
L 150.340887 236.527726 
L 148.114262 236.527726 
z
" style="fill:#5bc0de;"/>
   </g>
   <g id="patch_23">
    <path clip-path="url(#p5adefa45b8)" d="M 150.340887 244.8 
L 152.567513 244.8 
L 152.567513 244.643919 
L 150.340887 244.643919 
z
" style="fill:#5bc0de;"/>
   </g>
   <g id="patch_24">
    <path clip-path="url(#p5adefa45b8)" d="M 152.567513 244.8 
L 154.794138 244.8 
L 154.794138 244.487839 
L 152.567513 244.487839 
z
" style="fill:#5bc0de;"/>
   </g>
   <g id="patch_25">
    <path clip-path="url(#p5adefa45b8)" d="M 154.794138 244.8 
L 157.020764 244.8 
L 157.020764 226.538565 
L 154.794138 226.538565 
z
" style="fill:#5bc0de;"/>
   </g>
   <g id="patch_26">
    <path clip-path="url(#p5adefa45b8)" d="M 157.020764 244.8 
L 159.247389 244.8 
L 159.247389 244.643919 
L 157.020764 244.643919 
z
" style="fill:#5bc0de;"/>
   </g>
   <g id="patch_27">
    <path clip-path="url(#p5adefa45b8)" d="M 159.247389 244.8 
L 161.474015 244.8 
L 161.474015 129.924648 
L 159.247389 129.924648 
z
" style="fill:#5bc0de;"/>
   </g>
   <g id="patch_28">
    <path clip-path="url(#p5adefa45b8)" d="M 161.474015 244.8 
L 163.70064 244.8 
L 163.70064 244.8 
L 161.474015 244.8 
z
" style="fill:#5bc0de;"/>
   </g>
   <g id="patch_29">
    <path clip-path="url(#p5adefa45b8)" d="M 163.70064 244.8 
L 165.927265 244.8 
L 165.927265 244.487839 
L 163.70064 244.487839 
z
" style="fill:#5bc0de;"/>
   </g>
   <g id="patch_30">
    <path clip-path="url(#p5adefa45b8)" d="M 165.927265 244.8 
L 168.153891 244.8 
L 168.153891 244.331758 
L 165.927265 244.331758 
z
" style="fill:#5bc0de;"/>
   </g>
   <g id="patch_31">
    <path clip-path="url(#p5adefa45b8)" d="M 168.153891 244.8 
L 170.380516 244.8 
L 170.380516 202.658227 
L 168.153891 202.658227 
z
" style="fill:#5bc0de;"/>
   </g>
   <g id="patch_32">
    <path clip-path="url(#p5adefa45b8)" d="M 170.380516 244.8 
L 172.607142 244.8 
L 172.607142 225.446 
L 170.380516 225.446 
z
" style="fill:#5bc0de;"/>
   </g>
   <g id="patch_33">
    <path clip-path="url(#p5adefa45b8)" d="M 172.607142 244.8 
L 174.833767 244.8 
L 174.833767 233.406113 
L 172.607142 233.406113 
z
" style="fill:#5bc0de;"/>
   </g>
   <g id="patch_34">
    <path clip-path="url(#p5adefa45b8)" d="M 174.833767 244.8 
L 177.060393 244.8 
L 177.060393 244.8 
L 174.833767 244.8 
z
" style="fill:#5bc0de;"/>
   </g>
   <g id="patch_35">
    <path clip-path="url(#p5adefa45b8)" d="M 177.060393 244.8 
L 179.287018 244.8 
L 179.287018 211.554823 
L 177.060393 211.554823 
z
" style="fill:#5bc0de;"/>
   </g>
   <g id="patch_36">
    <path clip-path="url(#p5adefa45b8)" d="M 179.287018 244.8 
L 181.513644 244.8 
L 181.513644 189.079211 
L 179.287018 189.079211 
z
" style="fill:#5bc0de;"/>
   </g>
   <g id="patch_37">
    <path clip-path="url(#p5adefa45b8)" d="M 181.513644 244.8 
L 183.740269 244.8 
L 183.740269 202.033904 
L 181.513644 202.033904 
z
" style="fill:#5bc0de;"/>
   </g>
   <g id="patch_38">
    <path clip-path="url(#p5adefa45b8)" d="M 183.740269 244.8 
L 185.966895 244.8 
L 185.966895 39.085714 
L 183.740269 39.085714 
z
" style="fill:#5bc0de;"/>
   </g>
   <g id="patch_39">
    <path clip-path="url(#p5adefa45b8)" d="M 185.966895 244.8 
L 188.19352 244.8 
L 188.19352 148.966486 
L 185.966895 148.966486 
z
" style="fill:#5bc0de;"/>
   </g>
   <g id="patch_40">
    <path clip-path="url(#p5adefa45b8)" d="M 188.19352 244.8 
L 190.420146 244.8 
L 190.420146 215.456839 
L 188.19352 215.456839 
z
" style="fill:#5bc0de;"/>
   </g>
   <g id="patch_41">
    <path clip-path="url(#p5adefa45b8)" d="M 190.420146 244.8 
L 192.646771 244.8 
L 192.646771 191.732582 
L 190.420146 191.732582 
z
" style="fill:#5bc0de;"/>
   </g>
   <g id="patch_42">
    <path clip-path="url(#p5adefa45b8)" d="M 192.646771 244.8 
L 194.873397 244.8 
L 194.873397 208.589291 
L 192.646771 208.589291 
z
" style="fill:#5bc0de;"/>
   </g>
   <g id="patch_43">
    <path clip-path="url(#p5adefa45b8)" d="M 194.873397 244.8 
L 197.100022 244.8 
L 197.100022 200.160936 
L 194.873397 200.160936 
z
" style="fill:#5bc0de;"/>
   </g>
   <g id="patch_44">
    <path clip-path="url(#p5adefa45b8)" d="M 197.100022 244.8 
L 199.326648 244.8 
L 199.326648 177.529243 
L 197.100022 177.529243 
z
" style="fill:#5bc0de;"/>
   </g>
   <g id="patch_45">
    <path clip-path="url(#p5adefa45b8)" d="M 199.326648 244.8 
L 201.553273 244.8 
L 201.553273 95.742987 
L 199.326648 95.742987 
z
" style="fill:#5bc0de;"/>
   </g>
   <g id="patch_46">
    <path clip-path="url(#p5adefa45b8)" d="M 201.553273 244.8 
L 203.779899 244.8 
L 203.779899 244.487839 
L 201.553273 244.487839 
z
" style="fill:#5bc0de;"/>
   </g>
   <g id="patch_47">
    <path clip-path="url(#p5adefa45b8)" d="M 203.779899 244.8 
L 206.006524 244.8 
L 206.006524 182.523824 
L 203.779899 182.523824 
z
" style="fill:#5bc0de;"/>
   </g>
   <g id="patch_48">
    <path clip-path="url(#p5adefa45b8)" d="M 206.006524 244.8 
L 208.23315 244.8 
L 208.23315 188.142727 
L 206.006524 188.142727 
z
" style="fill:#5bc0de;"/>
   </g>
   <g id="patch_49">
    <path clip-path="url(#p5adefa45b8)" d="M 208.23315 244.8 
L 210.459775 244.8 
L 210.459775 237.932452 
L 208.23315 237.932452 
z
" style="fill:#5bc0de;"/>
   </g>
   <g id="patch_50">
    <path clip-path="url(#p5adefa45b8)" d="M 210.459775 244.8 
L 212.6864 244.8 
L 212.6864 209.057533 
L 210.459775 209.057533 
z
" style="fill:#5bc0de;"/>
   </g>
   <g id="patch_51">
    <path clip-path="url(#p5adefa45b8)" d="M 212.6864 244.8 
L 214.913026 244.8 
L 214.913026 197.819727 
L 212.6864 197.819727 
z
" style="fill:#5bc0de;"/>
   </g>
   <g id="patch_52">
    <path clip-path="url(#p5adefa45b8)" d="M 214.913026 244.8 
L 217.139651 244.8 
L 217.139651 203.43863 
L 214.913026 203.43863 
z
" style="fill:#5bc0de;"/>
   </g>
   <g id="patch_53">
    <path clip-path="url(#p5adefa45b8)" d="M 217.139651 244.8 
L 219.366277 244.8 
L 219.366277 193.137308 
L 217.139651 193.137308 
z
" style="fill:#5bc0de;"/>
   </g>
   <g id="patch_54">
    <path clip-path="url(#p5adefa45b8)" d="M 219.366277 244.8 
L 221.592902 244.8 
L 221.592902 176.436679 
L 219.366277 176.436679 
z
" style="fill:#5bc0de;"/>
   </g>
   <g id="patch_55">
    <path clip-path="url(#p5adefa45b8)" d="M 221.592902 244.8 
L 223.819528 244.8 
L 223.819528 223.573033 
L 221.592902 223.573033 
z
" style="fill:#5bc0de;"/>
   </g>
   <g id="patch_56">
    <path clip-path="url(#p5adefa45b8)" d="M 223.819528 244.8 
L 226.046153 244.8 
L 226.046153 229.660178 
L 223.819528 229.660178 
z
" style="fill:#5bc0de;"/>
   </g>
   <g id="patch_57">
    <path clip-path="url(#p5adefa45b8)" d="M 226.046153 244.8 
L 228.272779 244.8 
L 228.272779 230.440581 
L 226.046153 230.440581 
z
" style="fill:#5bc0de;"/>
   </g>
   <g id="patch_58">
    <path clip-path="url(#p5adefa45b8)" d="M 228.272779 244.8 
L 230.499404 244.8 
L 230.499404 244.8 
L 228.272779 244.8 
z
" style="fill:#5bc0de;"/>
   </g>
   <g id="patch_59">
    <path clip-path="url(#p5adefa45b8)" d="M 230.499404 244.8 
L 232.72603 244.8 
L 232.72603 236.527726 
L 230.499404 236.527726 
z
" style="fill:#5bc0de;"/>
   </g>
   <g id="patch_60">
    <path clip-path="url(#p5adefa45b8)" d="M 232.72603 244.8 
L 234.952655 244.8 
L 234.952655 244.8 
L 232.72603 244.8 
z
" style="fill:#5bc0de;"/>
   </g>
   <g id="patch_61">
    <path clip-path="url(#p5adefa45b8)" d="M 234.952655 244.8 
L 237.179281 244.8 
L 237.179281 242.45879 
L 234.952655 242.45879 
z
" style="fill:#5bc0de;"/>
   </g>
   <g id="patch_62">
    <path clip-path="url(#p5adefa45b8)" d="M 237.179281 244.8 
L 239.405906 244.8 
L 239.405906 241.054065 
L 237.179281 241.054065 
z
" style="fill:#5bc0de;"/>
   </g>
   <g id="patch_63">
    <path clip-path="url(#p5adefa45b8)" d="M 239.405906 244.8 
L 241.632532 244.8 
L 241.632532 244.643919 
L 239.405906 244.643919 
z
" style="fill:#5bc0de;"/>
   </g>
   <g id="patch_64">
    <path clip-path="url(#p5adefa45b8)" d="M 241.632532 244.8 
L 243.859157 244.8 
L 243.859157 237.46421 
L 241.632532 237.46421 
z
" style="fill:#5bc0de;"/>
   </g>
   <g id="patch_65">
    <path clip-path="url(#p5adefa45b8)" d="M 243.859157 244.8 
L 246.085783 244.8 
L 246.085783 244.8 
L 243.859157 244.8 
z
" style="fill:#5bc0de;"/>
   </g>
   <g id="patch_66">
    <path clip-path="url(#p5adefa45b8)" d="M 246.085783 244.8 
L 248.312408 244.8 
L 248.312408 244.8 
L 246.085783 244.8 
z
" style="fill:#5bc0de;"/>
   </g>
   <g id="patch_67">
    <path clip-path="url(#p5adefa45b8)" d="M 248.312408 244.8 
L 250.539034 244.8 
L 250.539034 244.8 
L 248.312408 244.8 
z
" style="fill:#5bc0de;"/>
   </g>
   <g id="patch_68">
    <path clip-path="url(#p5adefa45b8)" d="M 250.539034 244.8 
L 252.765659 244.8 
L 252.765659 240.585823 
L 250.539034 240.585823 
z
" style="fill:#5bc0de;"/>
   </g>
   <g id="patch_69">
    <path clip-path="url(#p5adefa45b8)" d="M 252.765659 244.8 
L 254.992285 244.8 
L 254.992285 241.210145 
L 252.765659 241.210145 
z
" style="fill:#5bc0de;"/>
   </g>
   <g id="patch_70">
    <path clip-path="url(#p5adefa45b8)" d="M 254.992285 244.8 
L 257.21891 244.8 
L 257.21891 241.210145 
L 254.992285 241.210145 
z
" style="fill:#5bc0de;"/>
   </g>
   <g id="patch_71">
    <path clip-path="url(#p5adefa45b8)" d="M 257.21891 244.8 
L 259.445536 244.8 
L 259.445536 244.8 
L 257.21891 244.8 
z
" style="fill:#5bc0de;"/>
   </g>
   <g id="patch_72">
    <path clip-path="url(#p5adefa45b8)" d="M 259.445536 244.8 
L 261.672161 244.8 
L 261.672161 243.083113 
L 259.445536 243.083113 
z
" style="fill:#5bc0de;"/>
   </g>
   <g id="patch_73">
    <path clip-path="url(#p5adefa45b8)" d="M 261.672161 244.8 
L 263.898786 244.8 
L 263.898786 244.8 
L 261.672161 244.8 
z
" style="fill:#5bc0de;"/>
   </g>
   <g id="patch_74">
    <path clip-path="url(#p5adefa45b8)" d="M 263.898786 244.8 
L 266.125412 244.8 
L 266.125412 244.8 
L 263.898786 244.8 
z
" style="fill:#5bc0de;"/>
   </g>
   <g id="patch_75">
    <path clip-path="url(#p5adefa45b8)" d="M 266.125412 244.8 
L 268.352037 244.8 
L 268.352037 244.8 
L 266.125412 244.8 
z
" style="fill:#5bc0de;"/>
   </g>
   <g id="patch_76">
    <path clip-path="url(#p5adefa45b8)" d="M 268.352037 244.8 
L 270.578663 244.8 
L 270.578663 244.019597 
L 268.352037 244.019597 
z
" style="fill:#5bc0de;"/>
   </g>
   <g id="patch_77">
    <path clip-path="url(#p5adefa45b8)" d="M 270.578663 244.8 
L 272.805288 244.8 
L 272.805288 242.45879 
L 270.578663 242.45879 
z
" style="fill:#5bc0de;"/>
   </g>
   <g id="patch_78">
    <path clip-path="url(#p5adefa45b8)" d="M 272.805288 244.8 
L 275.031914 244.8 
L 275.031914 243.551355 
L 272.805288 243.551355 
z
" style="fill:#5bc0de;"/>
   </g>
   <g id="patch_79">
    <path clip-path="url(#p5adefa45b8)" d="M 275.031914 244.8 
L 277.258539 244.8 
L 277.258539 244.8 
L 275.031914 244.8 
z
" style="fill:#5bc0de;"/>
   </g>
   <g id="patch_80">
    <path clip-path="url(#p5adefa45b8)" d="M 277.258539 244.8 
L 279.485165 244.8 
L 279.485165 244.8 
L 277.258539 244.8 
z
" style="fill:#5bc0de;"/>
   </g>
   <g id="patch_81">
    <path clip-path="url(#p5adefa45b8)" d="M 279.485165 244.8 
L 281.71179 244.8 
L 281.71179 244.643919 
L 279.485165 244.643919 
z
" style="fill:#5bc0de;"/>
   </g>
   <g id="patch_82">
    <path clip-path="url(#p5adefa45b8)" d="M 281.71179 244.8 
L 283.938416 244.8 
L 283.938416 244.8 
L 281.71179 244.8 
z
" style="fill:#5bc0de;"/>
   </g>
   <g id="patch_83">
    <path clip-path="url(#p5adefa45b8)" d="M 283.938416 244.8 
L 286.165041 244.8 
L 286.165041 244.8 
L 283.938416 244.8 
z
" style="fill:#5bc0de;"/>
   </g>
   <g id="patch_84">
    <path clip-path="url(#p5adefa45b8)" d="M 286.165041 244.8 
L 288.391667 244.8 
L 288.391667 242.30271 
L 286.165041 242.30271 
z
" style="fill:#5bc0de;"/>
   </g>
   <g id="patch_85">
    <path clip-path="url(#p5adefa45b8)" d="M 288.391667 244.8 
L 290.618292 244.8 
L 290.618292 243.083113 
L 288.391667 243.083113 
z
" style="fill:#5bc0de;"/>
   </g>
   <g id="patch_86">
    <path clip-path="url(#p5adefa45b8)" d="M 290.618292 244.8 
L 292.844918 244.8 
L 292.844918 244.8 
L 290.618292 244.8 
z
" style="fill:#5bc0de;"/>
   </g>
   <g id="patch_87">
    <path clip-path="url(#p5adefa45b8)" d="M 292.844918 244.8 
L 295.071543 244.8 
L 295.071543 244.8 
L 292.844918 244.8 
z
" style="fill:#5bc0de;"/>
   </g>
   <g id="patch_88">
    <path clip-path="url(#p5adefa45b8)" d="M 295.071543 244.8 
L 297.298169 244.8 
L 297.298169 244.8 
L 295.071543 244.8 
z
" style="fill:#5bc0de;"/>
   </g>
   <g id="patch_89">
    <path clip-path="url(#p5adefa45b8)" d="M 297.298169 244.8 
L 299.524794 244.8 
L 299.524794 242.770952 
L 297.298169 242.770952 
z
" style="fill:#5bc0de;"/>
   </g>
   <g id="patch_90">
    <path clip-path="url(#p5adefa45b8)" d="M 299.524794 244.8 
L 301.75142 244.8 
L 301.75142 244.8 
L 299.524794 244.8 
z
" style="fill:#5bc0de;"/>
   </g>
   <g id="patch_91">
    <path clip-path="url(#p5adefa45b8)" d="M 301.75142 244.8 
L 303.978045 244.8 
L 303.978045 244.8 
L 301.75142 244.8 
z
" style="fill:#5bc0de;"/>
   </g>
   <g id="patch_92">
    <path clip-path="url(#p5adefa45b8)" d="M 303.978045 244.8 
L 306.204671 244.8 
L 306.204671 244.8 
L 303.978045 244.8 
z
" style="fill:#5bc0de;"/>
   </g>
   <g id="patch_93">
    <path clip-path="url(#p5adefa45b8)" d="M 306.204671 244.8 
L 308.431296 244.8 
L 308.431296 243.863516 
L 306.204671 243.863516 
z
" style="fill:#5bc0de;"/>
   </g>
   <g id="patch_94">
    <path clip-path="url(#p5adefa45b8)" d="M 308.431296 244.8 
L 310.657921 244.8 
L 310.657921 244.8 
L 308.431296 244.8 
z
" style="fill:#5bc0de;"/>
   </g>
   <g id="patch_95">
    <path clip-path="url(#p5adefa45b8)" d="M 310.657921 244.8 
L 312.884547 244.8 
L 312.884547 244.8 
L 310.657921 244.8 
z
" style="fill:#5bc0de;"/>
   </g>
   <g id="patch_96">
    <path clip-path="url(#p5adefa45b8)" d="M 312.884547 244.8 
L 315.111172 244.8 
L 315.111172 244.8 
L 312.884547 244.8 
z
" style="fill:#5bc0de;"/>
   </g>
   <g id="patch_97">
    <path clip-path="url(#p5adefa45b8)" d="M 315.111172 244.8 
L 317.337798 244.8 
L 317.337798 244.8 
L 315.111172 244.8 
z
" style="fill:#5bc0de;"/>
   </g>
   <g id="patch_98">
    <path clip-path="url(#p5adefa45b8)" d="M 317.337798 244.8 
L 319.564423 244.8 
L 319.564423 244.8 
L 317.337798 244.8 
z
" style="fill:#5bc0de;"/>
   </g>
   <g id="patch_99">
    <path clip-path="url(#p5adefa45b8)" d="M 319.564423 244.8 
L 321.791049 244.8 
L 321.791049 244.8 
L 319.564423 244.8 
z
" style="fill:#5bc0de;"/>
   </g>
   <g id="patch_100">
    <path clip-path="url(#p5adefa45b8)" d="M 321.791049 244.8 
L 324.017674 244.8 
L 324.017674 244.8 
L 321.791049 244.8 
z
" style="fill:#5bc0de;"/>
   </g>
   <g id="patch_101">
    <path clip-path="url(#p5adefa45b8)" d="M 324.017674 244.8 
L 326.2443 244.8 
L 326.2443 244.331758 
L 324.017674 244.331758 
z
" style="fill:#5bc0de;"/>
   </g>
   <g id="patch_102">
    <path clip-path="url(#p5adefa45b8)" d="M 326.2443 244.8 
L 328.470925 244.8 
L 328.470925 244.643919 
L 326.2443 244.643919 
z
" style="fill:#5bc0de;"/>
   </g>
   <g id="patch_103">
    <path clip-path="url(#p5adefa45b8)" d="M 328.470925 244.8 
L 330.697551 244.8 
L 330.697551 244.8 
L 328.470925 244.8 
z
" style="fill:#5bc0de;"/>
   </g>
   <g id="patch_104">
    <path clip-path="url(#p5adefa45b8)" d="M 330.697551 244.8 
L 332.924176 244.8 
L 332.924176 244.8 
L 330.697551 244.8 
z
" style="fill:#5bc0de;"/>
   </g>
   <g id="patch_105">
    <path clip-path="url(#p5adefa45b8)" d="M 332.924176 244.8 
L 335.150802 244.8 
L 335.150802 244.8 
L 332.924176 244.8 
z
" style="fill:#5bc0de;"/>
   </g>
   <g id="patch_106">
    <path clip-path="url(#p5adefa45b8)" d="M 335.150802 244.8 
L 337.377427 244.8 
L 337.377427 244.8 
L 335.150802 244.8 
z
" style="fill:#5bc0de;"/>
   </g>
   <g id="patch_107">
    <path clip-path="url(#p5adefa45b8)" d="M 337.377427 244.8 
L 339.604053 244.8 
L 339.604053 244.8 
L 337.377427 244.8 
z
" style="fill:#5bc0de;"/>
   </g>
   <g id="patch_108">
    <path clip-path="url(#p5adefa45b8)" d="M 339.604053 244.8 
L 341.830678 244.8 
L 341.830678 244.643919 
L 339.604053 244.643919 
z
" style="fill:#5bc0de;"/>
   </g>
   <g id="patch_109">
    <path clip-path="url(#p5adefa45b8)" d="M 341.830678 244.8 
L 344.057304 244.8 
L 344.057304 244.8 
L 341.830678 244.8 
z
" style="fill:#5bc0de;"/>
   </g>
   <g id="patch_110">
    <path clip-path="url(#p5adefa45b8)" d="M 344.057304 244.8 
L 346.283929 244.8 
L 346.283929 244.8 
L 344.057304 244.8 
z
" style="fill:#5bc0de;"/>
   </g>
   <g id="patch_111">
    <path clip-path="url(#p5adefa45b8)" d="M 346.283929 244.8 
L 348.510555 244.8 
L 348.510555 244.8 
L 346.283929 244.8 
z
" style="fill:#5bc0de;"/>
   </g>
   <g id="patch_112">
    <path clip-path="url(#p5adefa45b8)" d="M 348.510555 244.8 
L 350.73718 244.8 
L 350.73718 244.8 
L 348.510555 244.8 
z
" style="fill:#5bc0de;"/>
   </g>
   <g id="patch_113">
    <path clip-path="url(#p5adefa45b8)" d="M 350.73718 244.8 
L 352.963806 244.8 
L 352.963806 244.8 
L 350.73718 244.8 
z
" style="fill:#5bc0de;"/>
   </g>
   <g id="patch_114">
    <path clip-path="url(#p5adefa45b8)" d="M 352.963806 244.8 
L 355.190431 244.8 
L 355.190431 244.643919 
L 352.963806 244.643919 
z
" style="fill:#5bc0de;"/>
   </g>
   <g id="patch_115">
    <path clip-path="url(#p5adefa45b8)" d="M 355.190431 244.8 
L 357.417056 244.8 
L 357.417056 244.643919 
L 355.190431 244.643919 
z
" style="fill:#5bc0de;"/>
   </g>
   <g id="patch_116">
    <path clip-path="url(#p5adefa45b8)" d="M 357.417056 244.8 
L 359.643682 244.8 
L 359.643682 244.8 
L 357.417056 244.8 
z
" style="fill:#5bc0de;"/>
   </g>
   <g id="patch_117">
    <path clip-path="url(#p5adefa45b8)" d="M 359.643682 244.8 
L 361.870307 244.8 
L 361.870307 244.8 
L 359.643682 244.8 
z
" style="fill:#5bc0de;"/>
   </g>
   <g id="patch_118">
    <path clip-path="url(#p5adefa45b8)" d="M 361.870307 244.8 
L 364.096933 244.8 
L 364.096933 244.8 
L 361.870307 244.8 
z
" style="fill:#5bc0de;"/>
   </g>
   <g id="patch_119">
    <path clip-path="url(#p5adefa45b8)" d="M 364.096933 244.8 
L 366.323558 244.8 
L 366.323558 244.643919 
L 364.096933 244.643919 
z
" style="fill:#5bc0de;"/>
   </g>
   <g id="matplotlib.axis_1">
    <g id="xtick_1">
     <g id="line2d_1">
      <defs>
       <path d="M 0 0 
L 0 4 
" id="m6d73adfaa0" style="stroke:#d2d2d2;"/>
      </defs>
      <g>
       <use style="fill:#d2d2d2;stroke:#d2d2d2;" x="43.2" xlink:href="#m6d73adfaa0" y="244.8"/>
      </g>
     </g>
     <g id="text_1">
      <!-- 40000 -->
      <defs>
       <path d="M 37.796875 64.3125 
L 12.890625 25.390625 
L 37.796875 25.390625 
z
M 35.203125 72.90625 
L 47.609375 72.90625 
L 47.609375 25.390625 
L 58.015625 25.390625 
L 58.015625 17.1875 
L 47.609375 17.1875 
L 47.609375 0 
L 37.796875 0 
L 37.796875 17.1875 
L 4.890625 17.1875 
L 4.890625 26.703125 
z
" id="DejaVuSans-34"/>
       <path d="M 31.78125 66.40625 
Q 24.171875 66.40625 20.328125 58.90625 
Q 16.5 51.421875 16.5 36.375 
Q 16.5 21.390625 20.328125 13.890625 
Q 24.171875 6.390625 31.78125 6.390625 
Q 39.453125 6.390625 43.28125 13.890625 
Q 47.125 21.390625 47.125 36.375 
Q 47.125 51.421875 43.28125 58.90625 
Q 39.453125 66.40625 31.78125 66.40625 
M 31.78125 74.21875 
Q 44.046875 74.21875 50.515625 64.515625 
Q 56.984375 54.828125 56.984375 36.375 
Q 56.984375 17.96875 50.515625 8.265625 
Q 44.046875 -1.421875 31.78125 -1.421875 
Q 19.53125 -1.421875 13.0625 8.265625 
Q 6.59375 17.96875 6.59375 36.375 
Q 6.59375 54.828125 13.0625 64.515625 
Q 19.53125 74.21875 31.78125 74.21875 
" id="DejaVuSans-30"/>
      </defs>
      <g style="fill:#d2d2d2;" transform="translate(22.521875 262.677969)scale(0.13 -0.13)">
       <use xlink:href="#DejaVuSans-34"/>
       <use x="63.623047" xlink:href="#DejaVuSans-30"/>
       <use x="127.246094" xlink:href="#DejaVuSans-30"/>
       <use x="190.869141" xlink:href="#DejaVuSans-30"/>
       <use x="254.492188" xlink:href="#DejaVuSans-30"/>
      </g>
     </g>
    </g>
    <g id="xtick_2">
     <g id="line2d_2">
      <g>
       <use style="fill:#d2d2d2;stroke:#d2d2d2;" x="114.048" xlink:href="#m6d73adfaa0" y="244.8"/>
      </g>
     </g>
     <g id="text_2">
      <!-- 50000 -->
      <defs>
       <path d="M 10.796875 72.90625 
L 49.515625 72.90625 
L 49.515625 64.59375 
L 19.828125 64.59375 
L 19.828125 46.734375 
Q 21.96875 47.46875 24.109375 47.828125 
Q 26.265625 48.1875 28.421875 48.1875 
Q 40.625 48.1875 47.75 41.5 
Q 54.890625 34.8125 54.890625 23.390625 
Q 54.890625 11.625 47.5625 5.09375 
Q 40.234375 -1.421875 26.90625 -1.421875 
Q 22.3125 -1.421875 17.546875 -0.640625 
Q 12.796875 0.140625 7.71875 1.703125 
L 7.71875 11.625 
Q 12.109375 9.234375 16.796875 8.0625 
Q 21.484375 6.890625 26.703125 6.890625 
Q 35.15625 6.890625 40.078125 11.328125 
Q 45.015625 15.765625 45.015625 23.390625 
Q 45.015625 31 40.078125 35.4375 
Q 35.15625 39.890625 26.703125 39.890625 
Q 22.75 39.890625 18.8125 39.015625 
Q 14.890625 38.140625 10.796875 36.28125 
z
" id="DejaVuSans-35"/>
      </defs>
      <g style="fill:#d2d2d2;" transform="translate(93.369875 262.677969)scale(0.13 -0.13)">
       <use xlink:href="#DejaVuSans-35"/>
       <use x="63.623047" xlink:href="#DejaVuSans-30"/>
       <use x="127.246094" xlink:href="#DejaVuSans-30"/>
       <use x="190.869141" xlink:href="#DejaVuSans-30"/>
       <use x="254.492188" xlink:href="#DejaVuSans-30"/>
      </g>
     </g>
    </g>
    <g id="xtick_3">
     <g id="line2d_3">
      <g>
       <use style="fill:#d2d2d2;stroke:#d2d2d2;" x="184.896" xlink:href="#m6d73adfaa0" y="244.8"/>
      </g>
     </g>
     <g id="text_3">
      <!-- 60000 -->
      <defs>
       <path d="M 33.015625 40.375 
Q 26.375 40.375 22.484375 35.828125 
Q 18.609375 31.296875 18.609375 23.390625 
Q 18.609375 15.53125 22.484375 10.953125 
Q 26.375 6.390625 33.015625 6.390625 
Q 39.65625 6.390625 43.53125 10.953125 
Q 47.40625 15.53125 47.40625 23.390625 
Q 47.40625 31.296875 43.53125 35.828125 
Q 39.65625 40.375 33.015625 40.375 
M 52.59375 71.296875 
L 52.59375 62.3125 
Q 48.875 64.0625 45.09375 64.984375 
Q 41.3125 65.921875 37.59375 65.921875 
Q 27.828125 65.921875 22.671875 59.328125 
Q 17.53125 52.734375 16.796875 39.40625 
Q 19.671875 43.65625 24.015625 45.921875 
Q 28.375 48.1875 33.59375 48.1875 
Q 44.578125 48.1875 50.953125 41.515625 
Q 57.328125 34.859375 57.328125 23.390625 
Q 57.328125 12.15625 50.6875 5.359375 
Q 44.046875 -1.421875 33.015625 -1.421875 
Q 20.359375 -1.421875 13.671875 8.265625 
Q 6.984375 17.96875 6.984375 36.375 
Q 6.984375 53.65625 15.1875 63.9375 
Q 23.390625 74.21875 37.203125 74.21875 
Q 40.921875 74.21875 44.703125 73.484375 
Q 48.484375 72.75 52.59375 71.296875 
" id="DejaVuSans-36"/>
      </defs>
      <g style="fill:#d2d2d2;" transform="translate(164.217875 262.677969)scale(0.13 -0.13)">
       <use xlink:href="#DejaVuSans-36"/>
       <use x="63.623047" xlink:href="#DejaVuSans-30"/>
       <use x="127.246094" xlink:href="#DejaVuSans-30"/>
       <use x="190.869141" xlink:href="#DejaVuSans-30"/>
       <use x="254.492188" xlink:href="#DejaVuSans-30"/>
      </g>
     </g>
    </g>
    <g id="xtick_4">
     <g id="line2d_4">
      <g>
       <use style="fill:#d2d2d2;stroke:#d2d2d2;" x="255.744" xlink:href="#m6d73adfaa0" y="244.8"/>
      </g>
     </g>
     <g id="text_4">
      <!-- 70000 -->
      <defs>
       <path d="M 8.203125 72.90625 
L 55.078125 72.90625 
L 55.078125 68.703125 
L 28.609375 0 
L 18.3125 0 
L 43.21875 64.59375 
L 8.203125 64.59375 
z
" id="DejaVuSans-37"/>
      </defs>
      <g style="fill:#d2d2d2;" transform="translate(235.065875 262.677969)scale(0.13 -0.13)">
       <use xlink:href="#DejaVuSans-37"/>
       <use x="63.623047" xlink:href="#DejaVuSans-30"/>
       <use x="127.246094" xlink:href="#DejaVuSans-30"/>
       <use x="190.869141" xlink:href="#DejaVuSans-30"/>
       <use x="254.492188" xlink:href="#DejaVuSans-30"/>
      </g>
     </g>
    </g>
    <g id="xtick_5">
     <g id="line2d_5">
      <g>
       <use style="fill:#d2d2d2;stroke:#d2d2d2;" x="326.592" xlink:href="#m6d73adfaa0" y="244.8"/>
      </g>
     </g>
     <g id="text_5">
      <!-- 80000 -->
      <defs>
       <path d="M 31.78125 34.625 
Q 24.75 34.625 20.71875 30.859375 
Q 16.703125 27.09375 16.703125 20.515625 
Q 16.703125 13.921875 20.71875 10.15625 
Q 24.75 6.390625 31.78125 6.390625 
Q 38.8125 6.390625 42.859375 10.171875 
Q 46.921875 13.96875 46.921875 20.515625 
Q 46.921875 27.09375 42.890625 30.859375 
Q 38.875 34.625 31.78125 34.625 
M 21.921875 38.8125 
Q 15.578125 40.375 12.03125 44.71875 
Q 8.5 49.078125 8.5 55.328125 
Q 8.5 64.0625 14.71875 69.140625 
Q 20.953125 74.21875 31.78125 74.21875 
Q 42.671875 74.21875 48.875 69.140625 
Q 55.078125 64.0625 55.078125 55.328125 
Q 55.078125 49.078125 51.53125 44.71875 
Q 48 40.375 41.703125 38.8125 
Q 48.828125 37.15625 52.796875 32.3125 
Q 56.78125 27.484375 56.78125 20.515625 
Q 56.78125 9.90625 50.3125 4.234375 
Q 43.84375 -1.421875 31.78125 -1.421875 
Q 19.734375 -1.421875 13.25 4.234375 
Q 6.78125 9.90625 6.78125 20.515625 
Q 6.78125 27.484375 10.78125 32.3125 
Q 14.796875 37.15625 21.921875 38.8125 
M 18.3125 54.390625 
Q 18.3125 48.734375 21.84375 45.5625 
Q 25.390625 42.390625 31.78125 42.390625 
Q 38.140625 42.390625 41.71875 45.5625 
Q 45.3125 48.734375 45.3125 54.390625 
Q 45.3125 60.0625 41.71875 63.234375 
Q 38.140625 66.40625 31.78125 66.40625 
Q 25.390625 66.40625 21.84375 63.234375 
Q 18.3125 60.0625 18.3125 54.390625 
" id="DejaVuSans-38"/>
      </defs>
      <g style="fill:#d2d2d2;" transform="translate(305.913875 262.677969)scale(0.13 -0.13)">
       <use xlink:href="#DejaVuSans-38"/>
       <use x="63.623047" xlink:href="#DejaVuSans-30"/>
       <use x="127.246094" xlink:href="#DejaVuSans-30"/>
       <use x="190.869141" xlink:href="#DejaVuSans-30"/>
       <use x="254.492188" xlink:href="#DejaVuSans-30"/>
      </g>
     </g>
    </g>
    <g id="xtick_6">
     <g id="line2d_6">
      <g>
       <use style="fill:#d2d2d2;stroke:#d2d2d2;" x="397.44" xlink:href="#m6d73adfaa0" y="244.8"/>
      </g>
     </g>
     <g id="text_6">
      <!-- 90000 -->
      <defs>
       <path d="M 10.984375 1.515625 
L 10.984375 10.5 
Q 14.703125 8.734375 18.5 7.8125 
Q 22.3125 6.890625 25.984375 6.890625 
Q 35.75 6.890625 40.890625 13.453125 
Q 46.046875 20.015625 46.78125 33.40625 
Q 43.953125 29.203125 39.59375 26.953125 
Q 35.25 24.703125 29.984375 24.703125 
Q 19.046875 24.703125 12.671875 31.3125 
Q 6.296875 37.9375 6.296875 49.421875 
Q 6.296875 60.640625 12.9375 67.421875 
Q 19.578125 74.21875 30.609375 74.21875 
Q 43.265625 74.21875 49.921875 64.515625 
Q 56.59375 54.828125 56.59375 36.375 
Q 56.59375 19.140625 48.40625 8.859375 
Q 40.234375 -1.421875 26.421875 -1.421875 
Q 22.703125 -1.421875 18.890625 -0.6875 
Q 15.09375 0.046875 10.984375 1.515625 
M 30.609375 32.421875 
Q 37.25 32.421875 41.125 36.953125 
Q 45.015625 41.5 45.015625 49.421875 
Q 45.015625 57.28125 41.125 61.84375 
Q 37.25 66.40625 30.609375 66.40625 
Q 23.96875 66.40625 20.09375 61.84375 
Q 16.21875 57.28125 16.21875 49.421875 
Q 16.21875 41.5 20.09375 36.953125 
Q 23.96875 32.421875 30.609375 32.421875 
" id="DejaVuSans-39"/>
      </defs>
      <g style="fill:#d2d2d2;" transform="translate(376.761875 262.677969)scale(0.13 -0.13)">
       <use xlink:href="#DejaVuSans-39"/>
       <use x="63.623047" xlink:href="#DejaVuSans-30"/>
       <use x="127.246094" xlink:href="#DejaVuSans-30"/>
       <use x="190.869141" xlink:href="#DejaVuSans-30"/>
       <use x="254.492188" xlink:href="#DejaVuSans-30"/>
      </g>
     </g>
    </g>
    <g id="text_7">
     <!-- $m$ -->
     <defs>
      <path d="M 89.796875 33.015625 
L 83.40625 0 
L 74.421875 0 
L 80.71875 32.71875 
Q 81.109375 34.8125 81.296875 36.328125 
Q 81.5 37.84375 81.5 38.921875 
Q 81.5 43.3125 79.046875 45.75 
Q 76.609375 48.1875 72.21875 48.1875 
Q 65.671875 48.1875 60.546875 43.28125 
Q 55.421875 38.375 53.90625 30.515625 
L 47.90625 0 
L 38.921875 0 
L 45.3125 32.71875 
Q 45.703125 34.515625 45.890625 36.046875 
Q 46.09375 37.59375 46.09375 38.8125 
Q 46.09375 43.265625 43.65625 45.71875 
Q 41.21875 48.1875 36.921875 48.1875 
Q 30.28125 48.1875 25.140625 43.28125 
Q 20.015625 38.375 18.5 30.515625 
L 12.5 0 
L 3.515625 0 
L 14.203125 54.6875 
L 23.1875 54.6875 
L 21.484375 46.1875 
Q 25.140625 50.984375 30.046875 53.484375 
Q 34.96875 56 40.578125 56 
Q 46.53125 56 50.359375 52.875 
Q 54.203125 49.75 54.984375 44.1875 
Q 59.078125 49.953125 64.46875 52.96875 
Q 69.875 56 75.875 56 
Q 82.90625 56 86.734375 51.953125 
Q 90.578125 47.90625 90.578125 40.484375 
Q 90.578125 38.875 90.375 36.9375 
Q 90.1875 35.015625 89.796875 33.015625 
" id="DejaVuSans-Oblique-6d"/>
     </defs>
     <g style="fill:#d2d2d2;" transform="translate(211.5 283.05875)scale(0.18 -0.18)">
      <use xlink:href="#DejaVuSans-Oblique-6d"/>
     </g>
    </g>
   </g>
   <g id="matplotlib.axis_2"/>
   <g id="patch_120">
    <path d="M 43.2 244.8 
L 397.44 244.8 
" style="fill:none;stroke:#d2d2d2;stroke-linecap:square;stroke-linejoin:miter;"/>
   </g>
  </g>
  <g id="axes_2">
   <g id="line2d_7">
    <path clip-path="url(#p5adefa45b8)" d="M 190.928707 244.8 
L 190.928707 28.8 
" style="fill:none;stroke:#d9534f;stroke-dasharray:5.6,2.4;stroke-dashoffset:0;stroke-width:1.5;"/>
   </g>
   <g id="text_8">
    <!-- Original sample -->
    <defs>
     <path d="M 39.40625 66.21875 
Q 28.65625 66.21875 22.328125 58.203125 
Q 16.015625 50.203125 16.015625 36.375 
Q 16.015625 22.609375 22.328125 14.59375 
Q 28.65625 6.59375 39.40625 6.59375 
Q 50.140625 6.59375 56.421875 14.59375 
Q 62.703125 22.609375 62.703125 36.375 
Q 62.703125 50.203125 56.421875 58.203125 
Q 50.140625 66.21875 39.40625 66.21875 
M 39.40625 74.21875 
Q 54.734375 74.21875 63.90625 63.9375 
Q 73.09375 53.65625 73.09375 36.375 
Q 73.09375 19.140625 63.90625 8.859375 
Q 54.734375 -1.421875 39.40625 -1.421875 
Q 24.03125 -1.421875 14.8125 8.828125 
Q 5.609375 19.09375 5.609375 36.375 
Q 5.609375 53.65625 14.8125 63.9375 
Q 24.03125 74.21875 39.40625 74.21875 
" id="DejaVuSans-4f"/>
     <path d="M 41.109375 46.296875 
Q 39.59375 47.171875 37.8125 47.578125 
Q 36.03125 48 33.890625 48 
Q 26.265625 48 22.1875 43.046875 
Q 18.109375 38.09375 18.109375 28.8125 
L 18.109375 0 
L 9.078125 0 
L 9.078125 54.6875 
L 18.109375 54.6875 
L 18.109375 46.1875 
Q 20.953125 51.171875 25.484375 53.578125 
Q 30.03125 56 36.53125 56 
Q 37.453125 56 38.578125 55.875 
Q 39.703125 55.765625 41.0625 55.515625 
z
" id="DejaVuSans-72"/>
     <path d="M 9.421875 54.6875 
L 18.40625 54.6875 
L 18.40625 0 
L 9.421875 0 
z
M 9.421875 75.984375 
L 18.40625 75.984375 
L 18.40625 64.59375 
L 9.421875 64.59375 
z
" id="DejaVuSans-69"/>
     <path d="M 45.40625 27.984375 
Q 45.40625 37.75 41.375 43.109375 
Q 37.359375 48.484375 30.078125 48.484375 
Q 22.859375 48.484375 18.828125 43.109375 
Q 14.796875 37.75 14.796875 27.984375 
Q 14.796875 18.265625 18.828125 12.890625 
Q 22.859375 7.515625 30.078125 7.515625 
Q 37.359375 7.515625 41.375 12.890625 
Q 45.40625 18.265625 45.40625 27.984375 
M 54.390625 6.78125 
Q 54.390625 -7.171875 48.1875 -13.984375 
Q 42 -20.796875 29.203125 -20.796875 
Q 24.46875 -20.796875 20.265625 -20.09375 
Q 16.0625 -19.390625 12.109375 -17.921875 
L 12.109375 -9.1875 
Q 16.0625 -11.328125 19.921875 -12.34375 
Q 23.78125 -13.375 27.78125 -13.375 
Q 36.625 -13.375 41.015625 -8.765625 
Q 45.40625 -4.15625 45.40625 5.171875 
L 45.40625 9.625 
Q 42.625 4.78125 38.28125 2.390625 
Q 33.9375 0 27.875 0 
Q 17.828125 0 11.671875 7.65625 
Q 5.515625 15.328125 5.515625 27.984375 
Q 5.515625 40.671875 11.671875 48.328125 
Q 17.828125 56 27.875 56 
Q 33.9375 56 38.28125 53.609375 
Q 42.625 51.21875 45.40625 46.390625 
L 45.40625 54.6875 
L 54.390625 54.6875 
z
" id="DejaVuSans-67"/>
     <path d="M 54.890625 33.015625 
L 54.890625 0 
L 45.90625 0 
L 45.90625 32.71875 
Q 45.90625 40.484375 42.875 44.328125 
Q 39.84375 48.1875 33.796875 48.1875 
Q 26.515625 48.1875 22.3125 43.546875 
Q 18.109375 38.921875 18.109375 30.90625 
L 18.109375 0 
L 9.078125 0 
L 9.078125 54.6875 
L 18.109375 54.6875 
L 18.109375 46.1875 
Q 21.34375 51.125 25.703125 53.5625 
Q 30.078125 56 35.796875 56 
Q 45.21875 56 50.046875 50.171875 
Q 54.890625 44.34375 54.890625 33.015625 
" id="DejaVuSans-6e"/>
     <path d="M 34.28125 27.484375 
Q 23.390625 27.484375 19.1875 25 
Q 14.984375 22.515625 14.984375 16.5 
Q 14.984375 11.71875 18.140625 8.90625 
Q 21.296875 6.109375 26.703125 6.109375 
Q 34.1875 6.109375 38.703125 11.40625 
Q 43.21875 16.703125 43.21875 25.484375 
L 43.21875 27.484375 
z
M 52.203125 31.203125 
L 52.203125 0 
L 43.21875 0 
L 43.21875 8.296875 
Q 40.140625 3.328125 35.546875 0.953125 
Q 30.953125 -1.421875 24.3125 -1.421875 
Q 15.921875 -1.421875 10.953125 3.296875 
Q 6 8.015625 6 15.921875 
Q 6 25.140625 12.171875 29.828125 
Q 18.359375 34.515625 30.609375 34.515625 
L 43.21875 34.515625 
L 43.21875 35.40625 
Q 43.21875 41.609375 39.140625 45 
Q 35.0625 48.390625 27.6875 48.390625 
Q 23 48.390625 18.546875 47.265625 
Q 14.109375 46.140625 10.015625 43.890625 
L 10.015625 52.203125 
Q 14.9375 54.109375 19.578125 55.046875 
Q 24.21875 56 28.609375 56 
Q 40.484375 56 46.34375 49.84375 
Q 52.203125 43.703125 52.203125 31.203125 
" id="DejaVuSans-61"/>
     <path d="M 9.421875 75.984375 
L 18.40625 75.984375 
L 18.40625 0 
L 9.421875 0 
z
" id="DejaVuSans-6c"/>
     <path id="DejaVuSans-20"/>
     <path d="M 44.28125 53.078125 
L 44.28125 44.578125 
Q 40.484375 46.53125 36.375 47.5 
Q 32.28125 48.484375 27.875 48.484375 
Q 21.1875 48.484375 17.84375 46.4375 
Q 14.5 44.390625 14.5 40.28125 
Q 14.5 37.15625 16.890625 35.375 
Q 19.28125 33.59375 26.515625 31.984375 
L 29.59375 31.296875 
Q 39.15625 29.25 43.1875 25.515625 
Q 47.21875 21.78125 47.21875 15.09375 
Q 47.21875 7.46875 41.1875 3.015625 
Q 35.15625 -1.421875 24.609375 -1.421875 
Q 20.21875 -1.421875 15.453125 -0.5625 
Q 10.6875 0.296875 5.421875 2 
L 5.421875 11.28125 
Q 10.40625 8.6875 15.234375 7.390625 
Q 20.0625 6.109375 24.8125 6.109375 
Q 31.15625 6.109375 34.5625 8.28125 
Q 37.984375 10.453125 37.984375 14.40625 
Q 37.984375 18.0625 35.515625 20.015625 
Q 33.0625 21.96875 24.703125 23.78125 
L 21.578125 24.515625 
Q 13.234375 26.265625 9.515625 29.90625 
Q 5.8125 33.546875 5.8125 39.890625 
Q 5.8125 47.609375 11.28125 51.796875 
Q 16.75 56 26.8125 56 
Q 31.78125 56 36.171875 55.265625 
Q 40.578125 54.546875 44.28125 53.078125 
" id="DejaVuSans-73"/>
     <path d="M 52 44.1875 
Q 55.375 50.25 60.0625 53.125 
Q 64.75 56 71.09375 56 
Q 79.640625 56 84.28125 50.015625 
Q 88.921875 44.046875 88.921875 33.015625 
L 88.921875 0 
L 79.890625 0 
L 79.890625 32.71875 
Q 79.890625 40.578125 77.09375 44.375 
Q 74.3125 48.1875 68.609375 48.1875 
Q 61.625 48.1875 57.5625 43.546875 
Q 53.515625 38.921875 53.515625 30.90625 
L 53.515625 0 
L 44.484375 0 
L 44.484375 32.71875 
Q 44.484375 40.625 41.703125 44.40625 
Q 38.921875 48.1875 33.109375 48.1875 
Q 26.21875 48.1875 22.15625 43.53125 
Q 18.109375 38.875 18.109375 30.90625 
L 18.109375 0 
L 9.078125 0 
L 9.078125 54.6875 
L 18.109375 54.6875 
L 18.109375 46.1875 
Q 21.1875 51.21875 25.484375 53.609375 
Q 29.78125 56 35.6875 56 
Q 41.65625 56 45.828125 52.96875 
Q 50 49.953125 52 44.1875 
" id="DejaVuSans-6d"/>
     <path d="M 18.109375 8.203125 
L 18.109375 -20.796875 
L 9.078125 -20.796875 
L 9.078125 54.6875 
L 18.109375 54.6875 
L 18.109375 46.390625 
Q 20.953125 51.265625 25.265625 53.625 
Q 29.59375 56 35.59375 56 
Q 45.5625 56 51.78125 48.09375 
Q 58.015625 40.1875 58.015625 27.296875 
Q 58.015625 14.40625 51.78125 6.484375 
Q 45.5625 -1.421875 35.59375 -1.421875 
Q 29.59375 -1.421875 25.265625 0.953125 
Q 20.953125 3.328125 18.109375 8.203125 
M 48.6875 27.296875 
Q 48.6875 37.203125 44.609375 42.84375 
Q 40.53125 48.484375 33.40625 48.484375 
Q 26.265625 48.484375 22.1875 42.84375 
Q 18.109375 37.203125 18.109375 27.296875 
Q 18.109375 17.390625 22.1875 11.75 
Q 26.265625 6.109375 33.40625 6.109375 
Q 40.53125 6.109375 44.609375 11.75 
Q 48.6875 17.390625 48.6875 27.296875 
" id="DejaVuSans-70"/>
     <path d="M 56.203125 29.59375 
L 56.203125 25.203125 
L 14.890625 25.203125 
Q 15.484375 15.921875 20.484375 11.0625 
Q 25.484375 6.203125 34.421875 6.203125 
Q 39.59375 6.203125 44.453125 7.46875 
Q 49.3125 8.734375 54.109375 11.28125 
L 54.109375 2.78125 
Q 49.265625 0.734375 44.1875 -0.34375 
Q 39.109375 -1.421875 33.890625 -1.421875 
Q 20.796875 -1.421875 13.15625 6.1875 
Q 5.515625 13.8125 5.515625 26.8125 
Q 5.515625 40.234375 12.765625 48.109375 
Q 20.015625 56 32.328125 56 
Q 43.359375 56 49.78125 48.890625 
Q 56.203125 41.796875 56.203125 29.59375 
M 47.21875 32.234375 
Q 47.125 39.59375 43.09375 43.984375 
Q 39.0625 48.390625 32.421875 48.390625 
Q 24.90625 48.390625 20.390625 44.140625 
Q 15.875 39.890625 15.1875 32.171875 
z
" id="DejaVuSans-65"/>
    </defs>
    <g style="fill:#d9534f;" transform="translate(139.795035 12.082844)scale(0.13 -0.13)">
     <use xlink:href="#DejaVuSans-4f"/>
     <use x="78.710938" xlink:href="#DejaVuSans-72"/>
     <use x="119.824219" xlink:href="#DejaVuSans-69"/>
     <use x="147.607422" xlink:href="#DejaVuSans-67"/>
     <use x="211.083984" xlink:href="#DejaVuSans-69"/>
     <use x="238.867188" xlink:href="#DejaVuSans-6e"/>
     <use x="302.246094" xlink:href="#DejaVuSans-61"/>
     <use x="363.525391" xlink:href="#DejaVuSans-6c"/>
     <use x="391.308594" xlink:href="#DejaVuSans-20"/>
     <use x="423.095703" xlink:href="#DejaVuSans-73"/>
     <use x="475.195312" xlink:href="#DejaVuSans-61"/>
     <use x="536.474609" xlink:href="#DejaVuSans-6d"/>
     <use x="633.886719" xlink:href="#DejaVuSans-70"/>
     <use x="697.363281" xlink:href="#DejaVuSans-6c"/>
     <use x="725.146484" xlink:href="#DejaVuSans-65"/>
    </g>
    <!-- $m$=\$60852 -->
    <defs>
     <path d="M 10.59375 45.40625 
L 73.1875 45.40625 
L 73.1875 37.203125 
L 10.59375 37.203125 
z
M 10.59375 25.484375 
L 73.1875 25.484375 
L 73.1875 17.1875 
L 10.59375 17.1875 
z
" id="DejaVuSans-3d"/>
     <path d="M 33.796875 -14.703125 
L 28.90625 -14.703125 
L 28.859375 0 
Q 23.734375 0.09375 18.609375 1.1875 
Q 13.484375 2.296875 8.296875 4.5 
L 8.296875 13.28125 
Q 13.28125 10.15625 18.375 8.5625 
Q 23.484375 6.984375 28.90625 6.9375 
L 28.90625 29.203125 
Q 18.109375 30.953125 13.203125 35.15625 
Q 8.296875 39.359375 8.296875 46.6875 
Q 8.296875 54.640625 13.625 59.21875 
Q 18.953125 63.8125 28.90625 64.5 
L 28.90625 75.984375 
L 33.796875 75.984375 
L 33.796875 64.65625 
Q 38.328125 64.453125 42.578125 63.6875 
Q 46.828125 62.9375 50.875 61.625 
L 50.875 53.078125 
Q 46.828125 55.125 42.546875 56.25 
Q 38.28125 57.375 33.796875 57.5625 
L 33.796875 36.71875 
Q 44.875 35.015625 50.09375 30.609375 
Q 55.328125 26.21875 55.328125 18.609375 
Q 55.328125 10.359375 49.78125 5.59375 
Q 44.234375 0.828125 33.796875 0.09375 
z
M 28.90625 37.59375 
L 28.90625 57.625 
Q 23.25 56.984375 20.265625 54.390625 
Q 17.28125 51.8125 17.28125 47.515625 
Q 17.28125 43.3125 20.03125 40.96875 
Q 22.796875 38.625 28.90625 37.59375 
M 33.796875 28.21875 
L 33.796875 7.078125 
Q 39.984375 7.90625 43.140625 10.59375 
Q 46.296875 13.28125 46.296875 17.671875 
Q 46.296875 21.96875 43.28125 24.5 
Q 40.28125 27.046875 33.796875 28.21875 
" id="DejaVuSans-24"/>
     <path d="M 19.1875 8.296875 
L 53.609375 8.296875 
L 53.609375 0 
L 7.328125 0 
L 7.328125 8.296875 
Q 12.9375 14.109375 22.625 23.890625 
Q 32.328125 33.6875 34.8125 36.53125 
Q 39.546875 41.84375 41.421875 45.53125 
Q 43.3125 49.21875 43.3125 52.78125 
Q 43.3125 58.59375 39.234375 62.25 
Q 35.15625 65.921875 28.609375 65.921875 
Q 23.96875 65.921875 18.8125 64.3125 
Q 13.671875 62.703125 7.8125 59.421875 
L 7.8125 69.390625 
Q 13.765625 71.78125 18.9375 73 
Q 24.125 74.21875 28.421875 74.21875 
Q 39.75 74.21875 46.484375 68.546875 
Q 53.21875 62.890625 53.21875 53.421875 
Q 53.21875 48.921875 51.53125 44.890625 
Q 49.859375 40.875 45.40625 35.40625 
Q 44.1875 33.984375 37.640625 27.21875 
Q 31.109375 20.453125 19.1875 8.296875 
" id="DejaVuSans-32"/>
    </defs>
    <g style="fill:#d9534f;" transform="translate(154.333707 26.64)scale(0.13 -0.13)">
     <use transform="translate(0 0.015625)" xlink:href="#DejaVuSans-Oblique-6d"/>
     <use transform="translate(97.412109 0.015625)" xlink:href="#DejaVuSans-3d"/>
     <use transform="translate(181.201172 0.015625)" xlink:href="#DejaVuSans-24"/>
     <use transform="translate(244.824219 0.015625)" xlink:href="#DejaVuSans-36"/>
     <use transform="translate(308.447266 0.015625)" xlink:href="#DejaVuSans-30"/>
     <use transform="translate(372.070312 0.015625)" xlink:href="#DejaVuSans-38"/>
     <use transform="translate(435.693359 0.015625)" xlink:href="#DejaVuSans-35"/>
     <use transform="translate(499.316406 0.015625)" xlink:href="#DejaVuSans-32"/>
    </g>
   </g>
  </g>
  <g id="axes_3">
   <g id="line2d_8">
    <path clip-path="url(#p5adefa45b8)" d="M 132.851059 244.8 
L 132.851059 82.8 
" style="fill:none;stroke:#d2d2d2;stroke-linecap:square;stroke-width:1.5;"/>
   </g>
   <g id="line2d_9">
    <path clip-path="url(#p5adefa45b8)" d="M 236.443676 244.8 
L 236.443676 82.8 
" style="fill:none;stroke:#d2d2d2;stroke-linecap:square;stroke-width:1.5;"/>
   </g>
   <g id="text_9">
    <!-- 2.5$^{th}$ % -->
    <defs>
     <path d="M 10.6875 12.40625 
L 21 12.40625 
L 21 0 
L 10.6875 0 
z
" id="DejaVuSans-2e"/>
     <path d="M 42.28125 54.6875 
L 40.921875 47.703125 
L 23 47.703125 
L 17.1875 18.015625 
Q 16.890625 16.359375 16.75 15.234375 
Q 16.609375 14.109375 16.609375 13.484375 
Q 16.609375 10.359375 18.484375 8.9375 
Q 20.359375 7.515625 24.515625 7.515625 
L 33.59375 7.515625 
L 32.078125 0 
L 23.484375 0 
Q 15.484375 0 11.546875 3.125 
Q 7.625 6.25 7.625 12.59375 
Q 7.625 13.71875 7.765625 15.0625 
Q 7.90625 16.40625 8.203125 18.015625 
L 14.015625 47.703125 
L 6.390625 47.703125 
L 7.8125 54.6875 
L 15.28125 54.6875 
L 18.3125 70.21875 
L 27.296875 70.21875 
L 24.3125 54.6875 
z
" id="DejaVuSans-Oblique-74"/>
     <path d="M 55.71875 33.015625 
L 49.3125 0 
L 40.28125 0 
L 46.6875 32.671875 
Q 47.125 34.96875 47.359375 36.71875 
Q 47.609375 38.484375 47.609375 39.5 
Q 47.609375 43.609375 45.015625 45.890625 
Q 42.4375 48.1875 37.796875 48.1875 
Q 30.5625 48.1875 25.265625 43.296875 
Q 19.96875 38.421875 18.40625 30.328125 
L 12.5 0 
L 3.515625 0 
L 18.3125 75.984375 
L 27.296875 75.984375 
L 21.484375 46.09375 
Q 24.90625 50.6875 30.21875 53.34375 
Q 35.546875 56 41.40625 56 
Q 48.640625 56 52.609375 52.09375 
Q 56.59375 48.1875 56.59375 41.109375 
Q 56.59375 39.359375 56.375 37.359375 
Q 56.15625 35.359375 55.71875 33.015625 
" id="DejaVuSans-Oblique-68"/>
     <path d="M 72.703125 32.078125 
Q 68.453125 32.078125 66.03125 28.46875 
Q 63.625 24.859375 63.625 18.40625 
Q 63.625 12.0625 66.03125 8.421875 
Q 68.453125 4.78125 72.703125 4.78125 
Q 76.859375 4.78125 79.265625 8.421875 
Q 81.6875 12.0625 81.6875 18.40625 
Q 81.6875 24.8125 79.265625 28.4375 
Q 76.859375 32.078125 72.703125 32.078125 
M 72.703125 38.28125 
Q 80.421875 38.28125 84.953125 32.90625 
Q 89.5 27.546875 89.5 18.40625 
Q 89.5 9.28125 84.9375 3.921875 
Q 80.375 -1.421875 72.703125 -1.421875 
Q 64.890625 -1.421875 60.34375 3.921875 
Q 55.8125 9.28125 55.8125 18.40625 
Q 55.8125 27.59375 60.375 32.9375 
Q 64.9375 38.28125 72.703125 38.28125 
M 22.3125 68.015625 
Q 18.109375 68.015625 15.6875 64.375 
Q 13.28125 60.75 13.28125 54.390625 
Q 13.28125 47.953125 15.671875 44.328125 
Q 18.0625 40.71875 22.3125 40.71875 
Q 26.5625 40.71875 28.96875 44.328125 
Q 31.390625 47.953125 31.390625 54.390625 
Q 31.390625 60.6875 28.953125 64.34375 
Q 26.515625 68.015625 22.3125 68.015625 
M 66.40625 74.21875 
L 74.21875 74.21875 
L 28.609375 -1.421875 
L 20.796875 -1.421875 
z
M 22.3125 74.21875 
Q 30.03125 74.21875 34.609375 68.875 
Q 39.203125 63.53125 39.203125 54.390625 
Q 39.203125 45.171875 34.640625 39.84375 
Q 30.078125 34.515625 22.3125 34.515625 
Q 14.546875 34.515625 10.03125 39.859375 
Q 5.515625 45.21875 5.515625 54.390625 
Q 5.515625 63.484375 10.046875 68.84375 
Q 14.59375 74.21875 22.3125 74.21875 
" id="DejaVuSans-25"/>
    </defs>
    <g style="fill:#d2d2d2;" transform="translate(109.321059 57.442844)scale(0.13 -0.13)">
     <use transform="translate(0 0.529687)" xlink:href="#DejaVuSans-32"/>
     <use transform="translate(63.623047 0.529687)" xlink:href="#DejaVuSans-2e"/>
     <use transform="translate(95.410156 0.529687)" xlink:href="#DejaVuSans-35"/>
     <use transform="translate(159.990234 38.810937)scale(0.7)" xlink:href="#DejaVuSans-Oblique-74"/>
     <use transform="translate(187.436523 38.810937)scale(0.7)" xlink:href="#DejaVuSans-Oblique-68"/>
     <use transform="translate(234.536133 0.529687)" xlink:href="#DejaVuSans-20"/>
     <use transform="translate(266.323242 0.529687)" xlink:href="#DejaVuSans-25"/>
    </g>
    <!-- (52654) -->
    <defs>
     <path d="M 31 75.875 
Q 24.46875 64.65625 21.28125 53.65625 
Q 18.109375 42.671875 18.109375 31.390625 
Q 18.109375 20.125 21.3125 9.0625 
Q 24.515625 -2 31 -13.1875 
L 23.1875 -13.1875 
Q 15.875 -1.703125 12.234375 9.375 
Q 8.59375 20.453125 8.59375 31.390625 
Q 8.59375 42.28125 12.203125 53.3125 
Q 15.828125 64.359375 23.1875 75.875 
z
" id="DejaVuSans-28"/>
     <path d="M 8.015625 75.875 
L 15.828125 75.875 
Q 23.140625 64.359375 26.78125 53.3125 
Q 30.421875 42.28125 30.421875 31.390625 
Q 30.421875 20.453125 26.78125 9.375 
Q 23.140625 -1.703125 15.828125 -13.1875 
L 8.015625 -13.1875 
Q 14.5 -2 17.703125 9.0625 
Q 20.90625 20.125 20.90625 31.390625 
Q 20.90625 42.671875 17.703125 53.65625 
Q 14.5 64.65625 8.015625 75.875 
" id="DejaVuSans-29"/>
    </defs>
    <g style="fill:#d2d2d2;" transform="translate(107.100903 72)scale(0.13 -0.13)">
     <use xlink:href="#DejaVuSans-28"/>
     <use x="39.013672" xlink:href="#DejaVuSans-35"/>
     <use x="102.636719" xlink:href="#DejaVuSans-32"/>
     <use x="166.259766" xlink:href="#DejaVuSans-36"/>
     <use x="229.882812" xlink:href="#DejaVuSans-35"/>
     <use x="293.505859" xlink:href="#DejaVuSans-34"/>
     <use x="357.128906" xlink:href="#DejaVuSans-29"/>
    </g>
   </g>
   <g id="text_10">
    <!-- 97.5$^{th}$ % -->
    <g style="fill:#d2d2d2;" transform="translate(208.818676 57.442844)scale(0.13 -0.13)">
     <use transform="translate(0 0.529687)" xlink:href="#DejaVuSans-39"/>
     <use transform="translate(63.623047 0.529687)" xlink:href="#DejaVuSans-37"/>
     <use transform="translate(127.246094 0.529687)" xlink:href="#DejaVuSans-2e"/>
     <use transform="translate(159.033203 0.529687)" xlink:href="#DejaVuSans-35"/>
     <use transform="translate(223.613281 38.810937)scale(0.7)" xlink:href="#DejaVuSans-Oblique-74"/>
     <use transform="translate(251.05957 38.810937)scale(0.7)" xlink:href="#DejaVuSans-Oblique-68"/>
     <use transform="translate(298.15918 0.529687)" xlink:href="#DejaVuSans-20"/>
     <use transform="translate(329.946289 0.529687)" xlink:href="#DejaVuSans-25"/>
    </g>
    <!-- (67276) -->
    <g style="fill:#d2d2d2;" transform="translate(210.69352 72)scale(0.13 -0.13)">
     <use xlink:href="#DejaVuSans-28"/>
     <use x="39.013672" xlink:href="#DejaVuSans-36"/>
     <use x="102.636719" xlink:href="#DejaVuSans-37"/>
     <use x="166.259766" xlink:href="#DejaVuSans-32"/>
     <use x="229.882812" xlink:href="#DejaVuSans-37"/>
     <use x="293.505859" xlink:href="#DejaVuSans-36"/>
     <use x="357.128906" xlink:href="#DejaVuSans-29"/>
    </g>
   </g>
  </g>
  <g id="axes_4">
   <g id="line2d_10">
    <path clip-path="url(#p5adefa45b8)" d="M 89.109504 244.8 
L 89.109504 28.8 
" style="fill:none;stroke:#5cb85c;stroke-dasharray:5.6,2.4;stroke-dashoffset:0;stroke-width:1.5;"/>
   </g>
   <g id="text_11">
    <!-- Census data -->
    <defs>
     <path d="M 64.40625 67.28125 
L 64.40625 56.890625 
Q 59.421875 61.53125 53.78125 63.8125 
Q 48.140625 66.109375 41.796875 66.109375 
Q 29.296875 66.109375 22.65625 58.46875 
Q 16.015625 50.828125 16.015625 36.375 
Q 16.015625 21.96875 22.65625 14.328125 
Q 29.296875 6.6875 41.796875 6.6875 
Q 48.140625 6.6875 53.78125 8.984375 
Q 59.421875 11.28125 64.40625 15.921875 
L 64.40625 5.609375 
Q 59.234375 2.09375 53.4375 0.328125 
Q 47.65625 -1.421875 41.21875 -1.421875 
Q 24.65625 -1.421875 15.125 8.703125 
Q 5.609375 18.84375 5.609375 36.375 
Q 5.609375 53.953125 15.125 64.078125 
Q 24.65625 74.21875 41.21875 74.21875 
Q 47.75 74.21875 53.53125 72.484375 
Q 59.328125 70.75 64.40625 67.28125 
" id="DejaVuSans-43"/>
     <path d="M 8.5 21.578125 
L 8.5 54.6875 
L 17.484375 54.6875 
L 17.484375 21.921875 
Q 17.484375 14.15625 20.5 10.265625 
Q 23.53125 6.390625 29.59375 6.390625 
Q 36.859375 6.390625 41.078125 11.03125 
Q 45.3125 15.671875 45.3125 23.6875 
L 45.3125 54.6875 
L 54.296875 54.6875 
L 54.296875 0 
L 45.3125 0 
L 45.3125 8.40625 
Q 42.046875 3.421875 37.71875 1 
Q 33.40625 -1.421875 27.6875 -1.421875 
Q 18.265625 -1.421875 13.375 4.4375 
Q 8.5 10.296875 8.5 21.578125 
M 31.109375 56 
z
" id="DejaVuSans-75"/>
     <path d="M 45.40625 46.390625 
L 45.40625 75.984375 
L 54.390625 75.984375 
L 54.390625 0 
L 45.40625 0 
L 45.40625 8.203125 
Q 42.578125 3.328125 38.25 0.953125 
Q 33.9375 -1.421875 27.875 -1.421875 
Q 17.96875 -1.421875 11.734375 6.484375 
Q 5.515625 14.40625 5.515625 27.296875 
Q 5.515625 40.1875 11.734375 48.09375 
Q 17.96875 56 27.875 56 
Q 33.9375 56 38.25 53.625 
Q 42.578125 51.265625 45.40625 46.390625 
M 14.796875 27.296875 
Q 14.796875 17.390625 18.875 11.75 
Q 22.953125 6.109375 30.078125 6.109375 
Q 37.203125 6.109375 41.296875 11.75 
Q 45.40625 17.390625 45.40625 27.296875 
Q 45.40625 37.203125 41.296875 42.84375 
Q 37.203125 48.484375 30.078125 48.484375 
Q 22.953125 48.484375 18.875 42.84375 
Q 14.796875 37.203125 14.796875 27.296875 
" id="DejaVuSans-64"/>
     <path d="M 18.3125 70.21875 
L 18.3125 54.6875 
L 36.8125 54.6875 
L 36.8125 47.703125 
L 18.3125 47.703125 
L 18.3125 18.015625 
Q 18.3125 11.328125 20.140625 9.421875 
Q 21.96875 7.515625 27.59375 7.515625 
L 36.8125 7.515625 
L 36.8125 0 
L 27.59375 0 
Q 17.1875 0 13.234375 3.875 
Q 9.28125 7.765625 9.28125 18.015625 
L 9.28125 47.703125 
L 2.6875 47.703125 
L 2.6875 54.6875 
L 9.28125 54.6875 
L 9.28125 70.21875 
z
" id="DejaVuSans-74"/>
    </defs>
    <g style="fill:#5cb85c;" transform="translate(48.853176 12.082844)scale(0.13 -0.13)">
     <use xlink:href="#DejaVuSans-43"/>
     <use x="69.824219" xlink:href="#DejaVuSans-65"/>
     <use x="131.347656" xlink:href="#DejaVuSans-6e"/>
     <use x="194.726562" xlink:href="#DejaVuSans-73"/>
     <use x="246.826172" xlink:href="#DejaVuSans-75"/>
     <use x="310.205078" xlink:href="#DejaVuSans-73"/>
     <use x="362.304688" xlink:href="#DejaVuSans-20"/>
     <use x="394.091797" xlink:href="#DejaVuSans-64"/>
     <use x="457.568359" xlink:href="#DejaVuSans-61"/>
     <use x="518.847656" xlink:href="#DejaVuSans-74"/>
     <use x="558.056641" xlink:href="#DejaVuSans-61"/>
    </g>
    <!-- ($46480) -->
    <g style="fill:#5cb85c;" transform="translate(59.223723 26.64)scale(0.13 -0.13)">
     <use xlink:href="#DejaVuSans-28"/>
     <use x="39.013672" xlink:href="#DejaVuSans-24"/>
     <use x="102.636719" xlink:href="#DejaVuSans-34"/>
     <use x="166.259766" xlink:href="#DejaVuSans-36"/>
     <use x="229.882812" xlink:href="#DejaVuSans-34"/>
     <use x="293.505859" xlink:href="#DejaVuSans-38"/>
     <use x="357.128906" xlink:href="#DejaVuSans-30"/>
     <use x="420.751953" xlink:href="#DejaVuSans-29"/>
    </g>
   </g>
  </g>
  <g id="axes_5">
   <g id="text_12">
    <!-- true $M$ -->
    <defs>
     <path d="M 16.890625 72.90625 
L 31.6875 72.90625 
L 40.1875 23.78125 
L 68.40625 72.90625 
L 83.59375 72.90625 
L 69.390625 0 
L 59.8125 0 
L 72.21875 63.921875 
L 43.609375 14.015625 
L 33.984375 14.015625 
L 24.703125 64.109375 
L 12.3125 0 
L 2.6875 0 
z
" id="DejaVuSans-Oblique-4d"/>
    </defs>
    <g style="fill:#f0ad4e;" transform="translate(163.846627 277.2)scale(0.13 -0.13)">
     <use transform="translate(0 0.09375)" xlink:href="#DejaVuSans-74"/>
     <use transform="translate(39.208984 0.09375)" xlink:href="#DejaVuSans-72"/>
     <use transform="translate(80.322266 0.09375)" xlink:href="#DejaVuSans-75"/>
     <use transform="translate(143.701172 0.09375)" xlink:href="#DejaVuSans-65"/>
     <use transform="translate(205.224609 0.09375)" xlink:href="#DejaVuSans-20"/>
     <use transform="translate(237.011719 0.09375)" xlink:href="#DejaVuSans-Oblique-4d"/>
    </g>
   </g>
   <g id="patch_121">
    <path d="M 178.906627 256.8 
Q 181.906627 250.8 184.906627 244.8 
Q 187.906627 250.8 190.906627 256.8 
z
" style="fill:#f0ad4e;"/>
   </g>
  </g>
 </g>
 <defs>
  <clipPath id="p5adefa45b8">
   <rect height="216" width="354.24" x="43.2" y="28.8"/>
  </clipPath>
 </defs>
</svg>
