<?xml version="1.0" encoding="utf-8" standalone="no"?>
<!DOCTYPE svg PUBLIC "-//W3C//DTD SVG 1.1//EN"
  "http://www.w3.org/Graphics/SVG/1.1/DTD/svg11.dtd">
<!-- Created with matplotlib (http://matplotlib.org/) -->
<svg height="288pt" version="1.1" viewBox="0 0 432 288" width="432pt" xmlns="http://www.w3.org/2000/svg" xmlns:xlink="http://www.w3.org/1999/xlink">
 <defs>
  <style type="text/css">
*{stroke-linecap:butt;stroke-linejoin:round;}
  </style>
 </defs>
 <g id="figure_1">
  <g id="patch_1">
   <path d="M 0 288 
L 432 288 
L 432 0 
L 0 0 
z
" style="fill:none;"/>
  </g>
  <g id="axes_1">
   <g id="patch_2">
    <path d="M 54 252 
L 388.8 252 
L 388.8 34.56 
L 54 34.56 
z
" style="fill:none;"/>
   </g>
   <g id="matplotlib.axis_1">
    <g id="xtick_1">
     <g id="line2d_1">
      <defs>
       <path d="M 0 0 
L 0 4 
" id="mdf273e73e2" style="stroke:#d2d2d2;"/>
      </defs>
      <g>
       <use style="fill:#d2d2d2;stroke:#d2d2d2;" x="54" xlink:href="#mdf273e73e2" y="252"/>
      </g>
     </g>
     <g id="text_1">
      <!-- 40000 -->
      <defs>
       <path d="M 37.796875 64.3125 
L 12.890625 25.390625 
L 37.796875 25.390625 
z
M 35.203125 72.90625 
L 47.609375 72.90625 
L 47.609375 25.390625 
L 58.015625 25.390625 
L 58.015625 17.1875 
L 47.609375 17.1875 
L 47.609375 0 
L 37.796875 0 
L 37.796875 17.1875 
L 4.890625 17.1875 
L 4.890625 26.703125 
z
" id="DejaVuSans-34"/>
       <path d="M 31.78125 66.40625 
Q 24.171875 66.40625 20.328125 58.90625 
Q 16.5 51.421875 16.5 36.375 
Q 16.5 21.390625 20.328125 13.890625 
Q 24.171875 6.390625 31.78125 6.390625 
Q 39.453125 6.390625 43.28125 13.890625 
Q 47.125 21.390625 47.125 36.375 
Q 47.125 51.421875 43.28125 58.90625 
Q 39.453125 66.40625 31.78125 66.40625 
M 31.78125 74.21875 
Q 44.046875 74.21875 50.515625 64.515625 
Q 56.984375 54.828125 56.984375 36.375 
Q 56.984375 17.96875 50.515625 8.265625 
Q 44.046875 -1.421875 31.78125 -1.421875 
Q 19.53125 -1.421875 13.0625 8.265625 
Q 6.59375 17.96875 6.59375 36.375 
Q 6.59375 54.828125 13.0625 64.515625 
Q 19.53125 74.21875 31.78125 74.21875 
" id="DejaVuSans-30"/>
      </defs>
      <g style="fill:#d2d2d2;" transform="translate(33.321875 269.877969)scale(0.13 -0.13)">
       <use xlink:href="#DejaVuSans-34"/>
       <use x="63.623047" xlink:href="#DejaVuSans-30"/>
       <use x="127.246094" xlink:href="#DejaVuSans-30"/>
       <use x="190.869141" xlink:href="#DejaVuSans-30"/>
       <use x="254.492188" xlink:href="#DejaVuSans-30"/>
      </g>
     </g>
    </g>
    <g id="xtick_2">
     <g id="line2d_2">
      <g>
       <use style="fill:#d2d2d2;stroke:#d2d2d2;" x="120.96" xlink:href="#mdf273e73e2" y="252"/>
      </g>
     </g>
     <g id="text_2">
      <!-- 50000 -->
      <defs>
       <path d="M 10.796875 72.90625 
L 49.515625 72.90625 
L 49.515625 64.59375 
L 19.828125 64.59375 
L 19.828125 46.734375 
Q 21.96875 47.46875 24.109375 47.828125 
Q 26.265625 48.1875 28.421875 48.1875 
Q 40.625 48.1875 47.75 41.5 
Q 54.890625 34.8125 54.890625 23.390625 
Q 54.890625 11.625 47.5625 5.09375 
Q 40.234375 -1.421875 26.90625 -1.421875 
Q 22.3125 -1.421875 17.546875 -0.640625 
Q 12.796875 0.140625 7.71875 1.703125 
L 7.71875 11.625 
Q 12.109375 9.234375 16.796875 8.0625 
Q 21.484375 6.890625 26.703125 6.890625 
Q 35.15625 6.890625 40.078125 11.328125 
Q 45.015625 15.765625 45.015625 23.390625 
Q 45.015625 31 40.078125 35.4375 
Q 35.15625 39.890625 26.703125 39.890625 
Q 22.75 39.890625 18.8125 39.015625 
Q 14.890625 38.140625 10.796875 36.28125 
z
" id="DejaVuSans-35"/>
      </defs>
      <g style="fill:#d2d2d2;" transform="translate(100.281875 269.877969)scale(0.13 -0.13)">
       <use xlink:href="#DejaVuSans-35"/>
       <use x="63.623047" xlink:href="#DejaVuSans-30"/>
       <use x="127.246094" xlink:href="#DejaVuSans-30"/>
       <use x="190.869141" xlink:href="#DejaVuSans-30"/>
       <use x="254.492188" xlink:href="#DejaVuSans-30"/>
      </g>
     </g>
    </g>
    <g id="xtick_3">
     <g id="line2d_3">
      <g>
       <use style="fill:#d2d2d2;stroke:#d2d2d2;" x="187.92" xlink:href="#mdf273e73e2" y="252"/>
      </g>
     </g>
     <g id="text_3">
      <!-- 60000 -->
      <defs>
       <path d="M 33.015625 40.375 
Q 26.375 40.375 22.484375 35.828125 
Q 18.609375 31.296875 18.609375 23.390625 
Q 18.609375 15.53125 22.484375 10.953125 
Q 26.375 6.390625 33.015625 6.390625 
Q 39.65625 6.390625 43.53125 10.953125 
Q 47.40625 15.53125 47.40625 23.390625 
Q 47.40625 31.296875 43.53125 35.828125 
Q 39.65625 40.375 33.015625 40.375 
M 52.59375 71.296875 
L 52.59375 62.3125 
Q 48.875 64.0625 45.09375 64.984375 
Q 41.3125 65.921875 37.59375 65.921875 
Q 27.828125 65.921875 22.671875 59.328125 
Q 17.53125 52.734375 16.796875 39.40625 
Q 19.671875 43.65625 24.015625 45.921875 
Q 28.375 48.1875 33.59375 48.1875 
Q 44.578125 48.1875 50.953125 41.515625 
Q 57.328125 34.859375 57.328125 23.390625 
Q 57.328125 12.15625 50.6875 5.359375 
Q 44.046875 -1.421875 33.015625 -1.421875 
Q 20.359375 -1.421875 13.671875 8.265625 
Q 6.984375 17.96875 6.984375 36.375 
Q 6.984375 53.65625 15.1875 63.9375 
Q 23.390625 74.21875 37.203125 74.21875 
Q 40.921875 74.21875 44.703125 73.484375 
Q 48.484375 72.75 52.59375 71.296875 
" id="DejaVuSans-36"/>
      </defs>
      <g style="fill:#d2d2d2;" transform="translate(167.241875 269.877969)scale(0.13 -0.13)">
       <use xlink:href="#DejaVuSans-36"/>
       <use x="63.623047" xlink:href="#DejaVuSans-30"/>
       <use x="127.246094" xlink:href="#DejaVuSans-30"/>
       <use x="190.869141" xlink:href="#DejaVuSans-30"/>
       <use x="254.492188" xlink:href="#DejaVuSans-30"/>
      </g>
     </g>
    </g>
    <g id="xtick_4">
     <g id="line2d_4">
      <g>
       <use style="fill:#d2d2d2;stroke:#d2d2d2;" x="254.88" xlink:href="#mdf273e73e2" y="252"/>
      </g>
     </g>
     <g id="text_4">
      <!-- 70000 -->
      <defs>
       <path d="M 8.203125 72.90625 
L 55.078125 72.90625 
L 55.078125 68.703125 
L 28.609375 0 
L 18.3125 0 
L 43.21875 64.59375 
L 8.203125 64.59375 
z
" id="DejaVuSans-37"/>
      </defs>
      <g style="fill:#d2d2d2;" transform="translate(234.201875 269.877969)scale(0.13 -0.13)">
       <use xlink:href="#DejaVuSans-37"/>
       <use x="63.623047" xlink:href="#DejaVuSans-30"/>
       <use x="127.246094" xlink:href="#DejaVuSans-30"/>
       <use x="190.869141" xlink:href="#DejaVuSans-30"/>
       <use x="254.492188" xlink:href="#DejaVuSans-30"/>
      </g>
     </g>
    </g>
    <g id="xtick_5">
     <g id="line2d_5">
      <g>
       <use style="fill:#d2d2d2;stroke:#d2d2d2;" x="321.84" xlink:href="#mdf273e73e2" y="252"/>
      </g>
     </g>
     <g id="text_5">
      <!-- 80000 -->
      <defs>
       <path d="M 31.78125 34.625 
Q 24.75 34.625 20.71875 30.859375 
Q 16.703125 27.09375 16.703125 20.515625 
Q 16.703125 13.921875 20.71875 10.15625 
Q 24.75 6.390625 31.78125 6.390625 
Q 38.8125 6.390625 42.859375 10.171875 
Q 46.921875 13.96875 46.921875 20.515625 
Q 46.921875 27.09375 42.890625 30.859375 
Q 38.875 34.625 31.78125 34.625 
M 21.921875 38.8125 
Q 15.578125 40.375 12.03125 44.71875 
Q 8.5 49.078125 8.5 55.328125 
Q 8.5 64.0625 14.71875 69.140625 
Q 20.953125 74.21875 31.78125 74.21875 
Q 42.671875 74.21875 48.875 69.140625 
Q 55.078125 64.0625 55.078125 55.328125 
Q 55.078125 49.078125 51.53125 44.71875 
Q 48 40.375 41.703125 38.8125 
Q 48.828125 37.15625 52.796875 32.3125 
Q 56.78125 27.484375 56.78125 20.515625 
Q 56.78125 9.90625 50.3125 4.234375 
Q 43.84375 -1.421875 31.78125 -1.421875 
Q 19.734375 -1.421875 13.25 4.234375 
Q 6.78125 9.90625 6.78125 20.515625 
Q 6.78125 27.484375 10.78125 32.3125 
Q 14.796875 37.15625 21.921875 38.8125 
M 18.3125 54.390625 
Q 18.3125 48.734375 21.84375 45.5625 
Q 25.390625 42.390625 31.78125 42.390625 
Q 38.140625 42.390625 41.71875 45.5625 
Q 45.3125 48.734375 45.3125 54.390625 
Q 45.3125 60.0625 41.71875 63.234375 
Q 38.140625 66.40625 31.78125 66.40625 
Q 25.390625 66.40625 21.84375 63.234375 
Q 18.3125 60.0625 18.3125 54.390625 
" id="DejaVuSans-38"/>
      </defs>
      <g style="fill:#d2d2d2;" transform="translate(301.161875 269.877969)scale(0.13 -0.13)">
       <use xlink:href="#DejaVuSans-38"/>
       <use x="63.623047" xlink:href="#DejaVuSans-30"/>
       <use x="127.246094" xlink:href="#DejaVuSans-30"/>
       <use x="190.869141" xlink:href="#DejaVuSans-30"/>
       <use x="254.492188" xlink:href="#DejaVuSans-30"/>
      </g>
     </g>
    </g>
    <g id="xtick_6">
     <g id="line2d_6">
      <g>
       <use style="fill:#d2d2d2;stroke:#d2d2d2;" x="388.8" xlink:href="#mdf273e73e2" y="252"/>
      </g>
     </g>
     <g id="text_6">
      <!-- 90000 -->
      <defs>
       <path d="M 10.984375 1.515625 
L 10.984375 10.5 
Q 14.703125 8.734375 18.5 7.8125 
Q 22.3125 6.890625 25.984375 6.890625 
Q 35.75 6.890625 40.890625 13.453125 
Q 46.046875 20.015625 46.78125 33.40625 
Q 43.953125 29.203125 39.59375 26.953125 
Q 35.25 24.703125 29.984375 24.703125 
Q 19.046875 24.703125 12.671875 31.3125 
Q 6.296875 37.9375 6.296875 49.421875 
Q 6.296875 60.640625 12.9375 67.421875 
Q 19.578125 74.21875 30.609375 74.21875 
Q 43.265625 74.21875 49.921875 64.515625 
Q 56.59375 54.828125 56.59375 36.375 
Q 56.59375 19.140625 48.40625 8.859375 
Q 40.234375 -1.421875 26.421875 -1.421875 
Q 22.703125 -1.421875 18.890625 -0.6875 
Q 15.09375 0.046875 10.984375 1.515625 
M 30.609375 32.421875 
Q 37.25 32.421875 41.125 36.953125 
Q 45.015625 41.5 45.015625 49.421875 
Q 45.015625 57.28125 41.125 61.84375 
Q 37.25 66.40625 30.609375 66.40625 
Q 23.96875 66.40625 20.09375 61.84375 
Q 16.21875 57.28125 16.21875 49.421875 
Q 16.21875 41.5 20.09375 36.953125 
Q 23.96875 32.421875 30.609375 32.421875 
" id="DejaVuSans-39"/>
      </defs>
      <g style="fill:#d2d2d2;" transform="translate(368.121875 269.877969)scale(0.13 -0.13)">
       <use xlink:href="#DejaVuSans-39"/>
       <use x="63.623047" xlink:href="#DejaVuSans-30"/>
       <use x="127.246094" xlink:href="#DejaVuSans-30"/>
       <use x="190.869141" xlink:href="#DejaVuSans-30"/>
       <use x="254.492188" xlink:href="#DejaVuSans-30"/>
      </g>
     </g>
    </g>
    <g id="text_7">
     <!-- $m$ -->
     <defs>
      <path d="M 89.796875 33.015625 
L 83.40625 0 
L 74.421875 0 
L 80.71875 32.71875 
Q 81.109375 34.8125 81.296875 36.328125 
Q 81.5 37.84375 81.5 38.921875 
Q 81.5 43.3125 79.046875 45.75 
Q 76.609375 48.1875 72.21875 48.1875 
Q 65.671875 48.1875 60.546875 43.28125 
Q 55.421875 38.375 53.90625 30.515625 
L 47.90625 0 
L 38.921875 0 
L 45.3125 32.71875 
Q 45.703125 34.515625 45.890625 36.046875 
Q 46.09375 37.59375 46.09375 38.8125 
Q 46.09375 43.265625 43.65625 45.71875 
Q 41.21875 48.1875 36.921875 48.1875 
Q 30.28125 48.1875 25.140625 43.28125 
Q 20.015625 38.375 18.5 30.515625 
L 12.5 0 
L 3.515625 0 
L 14.203125 54.6875 
L 23.1875 54.6875 
L 21.484375 46.1875 
Q 25.140625 50.984375 30.046875 53.484375 
Q 34.96875 56 40.578125 56 
Q 46.53125 56 50.359375 52.875 
Q 54.203125 49.75 54.984375 44.1875 
Q 59.078125 49.953125 64.46875 52.96875 
Q 69.875 56 75.875 56 
Q 82.90625 56 86.734375 51.953125 
Q 90.578125 47.90625 90.578125 40.484375 
Q 90.578125 38.875 90.375 36.9375 
Q 90.1875 35.015625 89.796875 33.015625 
" id="DejaVuSans-Oblique-6d"/>
     </defs>
     <g style="fill:#d2d2d2;" transform="translate(212.58 290.25875)scale(0.18 -0.18)">
      <use xlink:href="#DejaVuSans-Oblique-6d"/>
     </g>
    </g>
   </g>
   <g id="matplotlib.axis_2"/>
   <g id="patch_3">
    <path d="M 54 252 
L 388.8 252 
" style="fill:none;stroke:#d2d2d2;stroke-linecap:square;stroke-linejoin:miter;"/>
   </g>
  </g>
  <g id="axes_2">
   <g id="PathCollection_1">
    <defs>
     <path d="M 0 3 
C 0.795609 3 1.55874 2.683901 2.12132 2.12132 
C 2.683901 1.55874 3 0.795609 3 0 
C 3 -0.795609 2.683901 -1.55874 2.12132 -2.12132 
C 1.55874 -2.683901 0.795609 -3 0 -3 
C -0.795609 -3 -1.55874 -2.683901 -2.12132 -2.12132 
C -2.683901 -1.55874 -3 -0.795609 -3 0 
C -3 0.795609 -2.683901 1.55874 -2.12132 2.12132 
C -1.55874 2.683901 -0.795609 3 0 3 
z
" id="m0b4126beb2" style="stroke:#5bc0de;"/>
    </defs>
    <g clip-path="url(#p30eb3d0184)">
     <use style="fill:#5bc0de;stroke:#5bc0de;" x="160.605175" xlink:href="#m0b4126beb2" y="249.315556"/>
     <use style="fill:#5bc0de;stroke:#5bc0de;" x="203.725741" xlink:href="#m0b4126beb2" y="249.315556"/>
     <use style="fill:#5bc0de;stroke:#5bc0de;" x="220.973967" xlink:href="#m0b4126beb2" y="249.315556"/>
     <use style="fill:#5bc0de;stroke:#5bc0de;" x="272.718646" xlink:href="#m0b4126beb2" y="249.315556"/>
     <use style="fill:#5bc0de;stroke:#5bc0de;" x="246.846307" xlink:href="#m0b4126beb2" y="249.315556"/>
     <use style="fill:#5bc0de;stroke:#5bc0de;" x="117.484609" xlink:href="#m0b4126beb2" y="249.315556"/>
     <use style="fill:#5bc0de;stroke:#5bc0de;" x="281.342759" xlink:href="#m0b4126beb2" y="249.315556"/>
     <use style="fill:#5bc0de;stroke:#5bc0de;" x="177.853401" xlink:href="#m0b4126beb2" y="249.315556"/>
     <use style="fill:#5bc0de;stroke:#5bc0de;" x="229.59808" xlink:href="#m0b4126beb2" y="249.315556"/>
     <use style="fill:#5bc0de;stroke:#5bc0de;" x="212.349854" xlink:href="#m0b4126beb2" y="249.315556"/>
     <use style="fill:#5bc0de;stroke:#5bc0de;" x="169.229288" xlink:href="#m0b4126beb2" y="249.315556"/>
     <use style="fill:#5bc0de;stroke:#5bc0de;" x="143.356948" xlink:href="#m0b4126beb2" y="249.315556"/>
     <use style="fill:#5bc0de;stroke:#5bc0de;" x="134.732835" xlink:href="#m0b4126beb2" y="249.315556"/>
     <use style="fill:#5bc0de;stroke:#5bc0de;" x="186.477514" xlink:href="#m0b4126beb2" y="249.315556"/>
     <use style="fill:#5bc0de;stroke:#5bc0de;" x="195.101627" xlink:href="#m0b4126beb2" y="249.315556"/>
     <use style="fill:#5bc0de;stroke:#5bc0de;" x="126.108722" xlink:href="#m0b4126beb2" y="249.315556"/>
     <use style="fill:#5bc0de;stroke:#5bc0de;" x="186.477514" xlink:href="#m0b4126beb2" y="242.604444"/>
     <use style="fill:#5bc0de;stroke:#5bc0de;" x="169.229288" xlink:href="#m0b4126beb2" y="242.604444"/>
     <use style="fill:#5bc0de;stroke:#5bc0de;" x="177.853401" xlink:href="#m0b4126beb2" y="242.604444"/>
     <use style="fill:#5bc0de;stroke:#5bc0de;" x="160.605175" xlink:href="#m0b4126beb2" y="242.604444"/>
     <use style="fill:#5bc0de;stroke:#5bc0de;" x="195.101627" xlink:href="#m0b4126beb2" y="242.604444"/>
     <use style="fill:#5bc0de;stroke:#5bc0de;" x="229.59808" xlink:href="#m0b4126beb2" y="242.604444"/>
     <use style="fill:#5bc0de;stroke:#5bc0de;" x="134.732835" xlink:href="#m0b4126beb2" y="242.604444"/>
     <use style="fill:#5bc0de;stroke:#5bc0de;" x="203.725741" xlink:href="#m0b4126beb2" y="242.604444"/>
     <use style="fill:#5bc0de;stroke:#5bc0de;" x="212.349854" xlink:href="#m0b4126beb2" y="242.604444"/>
     <use style="fill:#5bc0de;stroke:#5bc0de;" x="220.973967" xlink:href="#m0b4126beb2" y="242.604444"/>
     <use style="fill:#5bc0de;stroke:#5bc0de;" x="229.59808" xlink:href="#m0b4126beb2" y="235.893333"/>
     <use style="fill:#5bc0de;stroke:#5bc0de;" x="203.725741" xlink:href="#m0b4126beb2" y="235.893333"/>
     <use style="fill:#5bc0de;stroke:#5bc0de;" x="177.853401" xlink:href="#m0b4126beb2" y="235.893333"/>
     <use style="fill:#5bc0de;stroke:#5bc0de;" x="212.349854" xlink:href="#m0b4126beb2" y="235.893333"/>
     <use style="fill:#5bc0de;stroke:#5bc0de;" x="186.477514" xlink:href="#m0b4126beb2" y="235.893333"/>
     <use style="fill:#5bc0de;stroke:#5bc0de;" x="220.973967" xlink:href="#m0b4126beb2" y="235.893333"/>
     <use style="fill:#5bc0de;stroke:#5bc0de;" x="169.229288" xlink:href="#m0b4126beb2" y="235.893333"/>
     <use style="fill:#5bc0de;stroke:#5bc0de;" x="195.101627" xlink:href="#m0b4126beb2" y="235.893333"/>
     <use style="fill:#5bc0de;stroke:#5bc0de;" x="186.477514" xlink:href="#m0b4126beb2" y="229.182222"/>
     <use style="fill:#5bc0de;stroke:#5bc0de;" x="195.101627" xlink:href="#m0b4126beb2" y="229.182222"/>
     <use style="fill:#5bc0de;stroke:#5bc0de;" x="212.349854" xlink:href="#m0b4126beb2" y="229.182222"/>
     <use style="fill:#5bc0de;stroke:#5bc0de;" x="203.725741" xlink:href="#m0b4126beb2" y="229.182222"/>
     <use style="fill:#5bc0de;stroke:#5bc0de;" x="177.853401" xlink:href="#m0b4126beb2" y="229.182222"/>
     <use style="fill:#5bc0de;stroke:#5bc0de;" x="220.973967" xlink:href="#m0b4126beb2" y="229.182222"/>
     <use style="fill:#5bc0de;stroke:#5bc0de;" x="169.229288" xlink:href="#m0b4126beb2" y="229.182222"/>
     <use style="fill:#5bc0de;stroke:#5bc0de;" x="203.725741" xlink:href="#m0b4126beb2" y="222.471111"/>
     <use style="fill:#5bc0de;stroke:#5bc0de;" x="195.101627" xlink:href="#m0b4126beb2" y="222.471111"/>
     <use style="fill:#5bc0de;stroke:#5bc0de;" x="220.973967" xlink:href="#m0b4126beb2" y="222.471111"/>
     <use style="fill:#5bc0de;stroke:#5bc0de;" x="177.853401" xlink:href="#m0b4126beb2" y="222.471111"/>
     <use style="fill:#5bc0de;stroke:#5bc0de;" x="212.349854" xlink:href="#m0b4126beb2" y="222.471111"/>
     <use style="fill:#5bc0de;stroke:#5bc0de;" x="169.229288" xlink:href="#m0b4126beb2" y="222.471111"/>
     <use style="fill:#5bc0de;stroke:#5bc0de;" x="186.477514" xlink:href="#m0b4126beb2" y="222.471111"/>
     <use style="fill:#5bc0de;stroke:#5bc0de;" x="212.349854" xlink:href="#m0b4126beb2" y="215.76"/>
     <use style="fill:#5bc0de;stroke:#5bc0de;" x="195.101627" xlink:href="#m0b4126beb2" y="215.76"/>
    </g>
   </g>
  </g>
  <g id="axes_3">
   <g id="PathCollection_2">
    <g clip-path="url(#p30eb3d0184)">
     <use style="fill:#5bc0de;stroke:#5bc0de;" x="203.725741" xlink:href="#m0b4126beb2" y="215.76"/>
     <use style="fill:#5bc0de;stroke:#5bc0de;" x="169.229288" xlink:href="#m0b4126beb2" y="215.76"/>
     <use style="fill:#5bc0de;stroke:#5bc0de;" x="220.973967" xlink:href="#m0b4126beb2" y="215.76"/>
     <use style="fill:#5bc0de;stroke:#5bc0de;" x="186.477514" xlink:href="#m0b4126beb2" y="215.76"/>
     <use style="fill:#5bc0de;stroke:#5bc0de;" x="203.725741" xlink:href="#m0b4126beb2" y="209.048889"/>
     <use style="fill:#5bc0de;stroke:#5bc0de;" x="212.349854" xlink:href="#m0b4126beb2" y="209.048889"/>
     <use style="fill:#5bc0de;stroke:#5bc0de;" x="186.477514" xlink:href="#m0b4126beb2" y="209.048889"/>
     <use style="fill:#5bc0de;stroke:#5bc0de;" x="169.229288" xlink:href="#m0b4126beb2" y="209.048889"/>
     <use style="fill:#5bc0de;stroke:#5bc0de;" x="195.101627" xlink:href="#m0b4126beb2" y="209.048889"/>
     <use style="fill:#5bc0de;stroke:#5bc0de;" x="220.973967" xlink:href="#m0b4126beb2" y="209.048889"/>
     <use style="fill:#5bc0de;stroke:#5bc0de;" x="220.973967" xlink:href="#m0b4126beb2" y="202.337778"/>
     <use style="fill:#5bc0de;stroke:#5bc0de;" x="203.725741" xlink:href="#m0b4126beb2" y="202.337778"/>
     <use style="fill:#5bc0de;stroke:#5bc0de;" x="169.229288" xlink:href="#m0b4126beb2" y="202.337778"/>
     <use style="fill:#5bc0de;stroke:#5bc0de;" x="186.477514" xlink:href="#m0b4126beb2" y="202.337778"/>
     <use style="fill:#5bc0de;stroke:#5bc0de;" x="212.349854" xlink:href="#m0b4126beb2" y="202.337778"/>
     <use style="fill:#5bc0de;stroke:#5bc0de;" x="195.101627" xlink:href="#m0b4126beb2" y="202.337778"/>
     <use style="fill:#5bc0de;stroke:#5bc0de;" x="220.973967" xlink:href="#m0b4126beb2" y="195.626667"/>
     <use style="fill:#5bc0de;stroke:#5bc0de;" x="169.229288" xlink:href="#m0b4126beb2" y="195.626667"/>
     <use style="fill:#5bc0de;stroke:#5bc0de;" x="212.349854" xlink:href="#m0b4126beb2" y="195.626667"/>
     <use style="fill:#5bc0de;stroke:#5bc0de;" x="195.101627" xlink:href="#m0b4126beb2" y="195.626667"/>
     <use style="fill:#5bc0de;stroke:#5bc0de;" x="203.725741" xlink:href="#m0b4126beb2" y="195.626667"/>
     <use style="fill:#5bc0de;stroke:#5bc0de;" x="186.477514" xlink:href="#m0b4126beb2" y="195.626667"/>
     <use style="fill:#5bc0de;stroke:#5bc0de;" x="203.725741" xlink:href="#m0b4126beb2" y="188.915556"/>
     <use style="fill:#5bc0de;stroke:#5bc0de;" x="186.477514" xlink:href="#m0b4126beb2" y="188.915556"/>
     <use style="fill:#5bc0de;stroke:#5bc0de;" x="220.973967" xlink:href="#m0b4126beb2" y="188.915556"/>
     <use style="fill:#5bc0de;stroke:#5bc0de;" x="195.101627" xlink:href="#m0b4126beb2" y="188.915556"/>
     <use style="fill:#5bc0de;stroke:#5bc0de;" x="169.229288" xlink:href="#m0b4126beb2" y="188.915556"/>
     <use style="fill:#5bc0de;stroke:#5bc0de;" x="186.477514" xlink:href="#m0b4126beb2" y="182.204444"/>
     <use style="fill:#5bc0de;stroke:#5bc0de;" x="169.229288" xlink:href="#m0b4126beb2" y="182.204444"/>
     <use style="fill:#5bc0de;stroke:#5bc0de;" x="203.725741" xlink:href="#m0b4126beb2" y="182.204444"/>
     <use style="fill:#5bc0de;stroke:#5bc0de;" x="220.973967" xlink:href="#m0b4126beb2" y="182.204444"/>
     <use style="fill:#5bc0de;stroke:#5bc0de;" x="186.477514" xlink:href="#m0b4126beb2" y="175.493333"/>
     <use style="fill:#5bc0de;stroke:#5bc0de;" x="203.725741" xlink:href="#m0b4126beb2" y="175.493333"/>
     <use style="fill:#5bc0de;stroke:#5bc0de;" x="169.229288" xlink:href="#m0b4126beb2" y="175.493333"/>
     <use style="fill:#5bc0de;stroke:#5bc0de;" x="220.973967" xlink:href="#m0b4126beb2" y="175.493333"/>
     <use style="fill:#5bc0de;stroke:#5bc0de;" x="220.973967" xlink:href="#m0b4126beb2" y="168.782222"/>
     <use style="fill:#5bc0de;stroke:#5bc0de;" x="169.229288" xlink:href="#m0b4126beb2" y="168.782222"/>
     <use style="fill:#5bc0de;stroke:#5bc0de;" x="186.477514" xlink:href="#m0b4126beb2" y="168.782222"/>
     <use style="fill:#5bc0de;stroke:#5bc0de;" x="203.725741" xlink:href="#m0b4126beb2" y="168.782222"/>
     <use style="fill:#5bc0de;stroke:#5bc0de;" x="186.477514" xlink:href="#m0b4126beb2" y="162.071111"/>
     <use style="fill:#5bc0de;stroke:#5bc0de;" x="220.973967" xlink:href="#m0b4126beb2" y="162.071111"/>
     <use style="fill:#5bc0de;stroke:#5bc0de;" x="203.725741" xlink:href="#m0b4126beb2" y="162.071111"/>
     <use style="fill:#5bc0de;stroke:#5bc0de;" x="220.973967" xlink:href="#m0b4126beb2" y="155.36"/>
     <use style="fill:#5bc0de;stroke:#5bc0de;" x="203.725741" xlink:href="#m0b4126beb2" y="155.36"/>
     <use style="fill:#5bc0de;stroke:#5bc0de;" x="186.477514" xlink:href="#m0b4126beb2" y="155.36"/>
     <use style="fill:#5bc0de;stroke:#5bc0de;" x="203.725741" xlink:href="#m0b4126beb2" y="148.648889"/>
     <use style="fill:#5bc0de;stroke:#5bc0de;" x="186.477514" xlink:href="#m0b4126beb2" y="148.648889"/>
     <use style="fill:#5bc0de;stroke:#5bc0de;" x="186.477514" xlink:href="#m0b4126beb2" y="141.937778"/>
     <use style="fill:#5bc0de;stroke:#5bc0de;" x="203.725741" xlink:href="#m0b4126beb2" y="141.937778"/>
     <use style="fill:#5bc0de;stroke:#5bc0de;" x="186.477514" xlink:href="#m0b4126beb2" y="135.226667"/>
     <use style="fill:#5bc0de;stroke:#5bc0de;" x="203.725741" xlink:href="#m0b4126beb2" y="135.226667"/>
     <use style="fill:#5bc0de;stroke:#5bc0de;" x="203.725741" xlink:href="#m0b4126beb2" y="128.515556"/>
     <use style="fill:#5bc0de;stroke:#5bc0de;" x="186.477514" xlink:href="#m0b4126beb2" y="128.515556"/>
     <use style="fill:#5bc0de;stroke:#5bc0de;" x="186.477514" xlink:href="#m0b4126beb2" y="121.804444"/>
     <use style="fill:#5bc0de;stroke:#5bc0de;" x="203.725741" xlink:href="#m0b4126beb2" y="121.804444"/>
     <use style="fill:#5bc0de;stroke:#5bc0de;" x="186.477514" xlink:href="#m0b4126beb2" y="115.093333"/>
     <use style="fill:#5bc0de;stroke:#5bc0de;" x="203.725741" xlink:href="#m0b4126beb2" y="115.093333"/>
     <use style="fill:#5bc0de;stroke:#5bc0de;" x="203.725741" xlink:href="#m0b4126beb2" y="108.382222"/>
     <use style="fill:#5bc0de;stroke:#5bc0de;" x="186.477514" xlink:href="#m0b4126beb2" y="108.382222"/>
     <use style="fill:#5bc0de;stroke:#5bc0de;" x="186.477514" xlink:href="#m0b4126beb2" y="101.671111"/>
     <use style="fill:#5bc0de;stroke:#5bc0de;" x="203.725741" xlink:href="#m0b4126beb2" y="101.671111"/>
     <use style="fill:#5bc0de;stroke:#5bc0de;" x="186.477514" xlink:href="#m0b4126beb2" y="94.96"/>
     <use style="fill:#5bc0de;stroke:#5bc0de;" x="203.725741" xlink:href="#m0b4126beb2" y="94.96"/>
     <use style="fill:#5bc0de;stroke:#5bc0de;" x="203.725741" xlink:href="#m0b4126beb2" y="88.248889"/>
     <use style="fill:#5bc0de;stroke:#5bc0de;" x="186.477514" xlink:href="#m0b4126beb2" y="88.248889"/>
     <use style="fill:#5bc0de;stroke:#5bc0de;" x="203.725741" xlink:href="#m0b4126beb2" y="81.537778"/>
     <use style="fill:#5bc0de;stroke:#5bc0de;" x="203.725741" xlink:href="#m0b4126beb2" y="74.826667"/>
     <use style="fill:#5bc0de;stroke:#5bc0de;" x="203.725741" xlink:href="#m0b4126beb2" y="68.115556"/>
     <use style="fill:#5bc0de;stroke:#5bc0de;" x="203.725741" xlink:href="#m0b4126beb2" y="61.404444"/>
     <use style="fill:#5bc0de;stroke:#5bc0de;" x="203.725741" xlink:href="#m0b4126beb2" y="54.693333"/>
    </g>
   </g>
  </g>
 </g>
 <defs>
  <clipPath id="p30eb3d0184">
   <rect height="217.44" width="334.8" x="54" y="34.56"/>
  </clipPath>
 </defs>
</svg>
