<?xml version="1.0" encoding="utf-8"?>
<!-- Generator: Adobe Illustrator 16.0.4, SVG Export Plug-In . SVG Version: 6.00 Build 0)  -->
<!DOCTYPE svg PUBLIC "-//W3C//DTD SVG 1.1//EN" "http://www.w3.org/Graphics/SVG/1.1/DTD/svg11.dtd">
<svg version="1.1" xmlns="http://www.w3.org/2000/svg" xmlns:xlink="http://www.w3.org/1999/xlink" x="0px" y="0px" width="400px"
	 height="235px" viewBox="0 -35 400 235" enable-background="new 0 -35 400 235" xml:space="preserve">
<g id="normal">
	<g id="colours">
		<path fill="#2B8CBE" d="M155.641,79.148c-4.144,7.859-8.322,15.692-12.687,23.42c-4.234,7.496-8.798,14.781-13.72,21.806
			c-4.784,6.826-10.222,13.536-16.437,18.996c-0.743,0.653-1.495,1.292-2.253,1.922V164.8h45.976V77.483
			C156.227,78.038,155.933,78.593,155.641,79.148z"/>
		<path fill="#74A9CF" d="M91.657,156.961c-7.855,3.18-16.052,4.928-24.396,5.979c-0.896,0.113-1.794,0.216-2.693,0.313v1.547
			h45.977v-19.508C104.781,150.08,98.574,154.16,91.657,156.961z"/>
		<path fill="#BDC9E1" d="M43.484,164.48c-8.295,0.218-16.594,0.283-24.893,0.318h45.976v-1.547
			C57.567,164.007,50.515,164.295,43.484,164.48z"/>
		<path fill="#045A8D" d="M202.104,20.831c-4.104,0.322-8.023,1.843-11.271,4.541c-3.339,2.773-6.319,5.849-9.025,9.298
			c-5.224,6.657-9.685,14.041-13.813,21.477c-3.919,7.058-7.704,14.191-11.473,21.336V164.8h45.976V20.814
			C202.365,20.819,202.234,20.82,202.104,20.831z"/>
		<path fill="#045A8D" d="M236.688,55.604c-4.303-7.503-8.707-15.093-14.174-21.75c-2.654-3.234-5.511-6.552-8.943-8.912
			c-3.25-2.234-7.057-4.295-11.074-4.127V164.8h45.977V77.48C244.611,70.152,240.805,62.781,236.688,55.604z"/>
		<path fill="#74A9CF" d="M336.089,162.732c-7.962-1.004-16.086-2.795-23.49-6.08c-6.541-2.9-12.646-6.65-18.149-11.311V164.8
			h45.976v-1.594C338.979,163.059,337.533,162.916,336.089,162.732z"/>
		<path fill="#2B8CBE" d="M291.594,142.807c-6.322-5.968-11.824-12.712-16.852-19.885c-4.902-6.994-9.317-14.354-13.531-21.816
			c-4.343-7.69-8.463-15.514-12.585-23.333c-0.052-0.097-0.103-0.195-0.153-0.292v87.32h45.977v-19.457
			C293.479,144.521,292.523,143.684,291.594,142.807z"/>
		<path fill="#BDC9E1" d="M385.16,164.795c-8.146-0.035-16.298-0.092-24.44-0.337c-6.782-0.204-13.548-0.563-20.296-1.252v1.594
			H386.4C385.986,164.798,385.574,164.796,385.16,164.795z"/>
	</g>
	<g id="white_lines">
		
			<line fill="none" stroke="#D2D2D2" stroke-linejoin="round" stroke-miterlimit="10" x1="110.544" y1="145.739" x2="110.544" y2="164.854"/>
		
			<line fill="none" stroke="#D2D2D2" stroke-linejoin="round" stroke-miterlimit="10" x1="156.52" y1="78.302" x2="156.52" y2="164.854"/>
		
			<line fill="none" stroke="#D2D2D2" stroke-linejoin="round" stroke-miterlimit="10" x1="202.496" y1="20.832" x2="202.496" y2="164.854"/>
		
			<line fill="none" stroke="#D2D2D2" stroke-linejoin="round" stroke-miterlimit="10" x1="248.473" y1="78.302" x2="248.473" y2="164.854"/>
		
			<line fill="none" stroke="#D2D2D2" stroke-linejoin="round" stroke-miterlimit="10" x1="294.448" y1="145.739" x2="294.448" y2="164.854"/>
	</g>
	
		<line fill="none" stroke="#D2D2D2" stroke-width="3" stroke-linecap="round" stroke-linejoin="round" stroke-miterlimit="10" x1="18.448" y1="164.85" x2="386.325" y2="164.85"/>
	<path fill="none" stroke="#D2D2D2" stroke-width="3" stroke-linecap="round" stroke-linejoin="round" stroke-miterlimit="10" d="
		M18.591,164.8c8.299-0.034,16.598-0.102,24.893-0.319c7.932-0.209,15.894-0.545,23.776-1.539
		c8.345-1.053,16.541-2.801,24.396-5.979c7.827-3.169,14.747-7.974,21.14-13.591c6.215-5.46,11.653-12.17,16.437-18.996
		c4.922-7.023,9.486-14.309,13.72-21.807c4.365-7.728,8.543-15.562,12.687-23.419c4.061-7.702,8.129-15.395,12.353-23.001
		c4.128-7.436,8.59-14.82,13.813-21.477c2.706-3.449,5.687-6.525,9.025-9.298c3.247-2.698,7.168-4.219,11.271-4.541
		c4.162-0.326,8.111,1.804,11.469,4.111c3.434,2.36,6.289,5.678,8.943,8.912c5.467,6.658,9.871,14.247,14.174,21.75
		c4.17,7.272,8.024,14.744,11.938,22.168c4.122,7.82,8.242,15.642,12.585,23.333c4.214,7.463,8.629,14.824,13.531,21.817
		c5.027,7.173,10.529,13.917,16.852,19.884c6.212,5.863,13.312,10.437,21.005,13.849c7.404,3.284,15.528,5.075,23.49,6.079
		c8.182,1.033,16.396,1.478,24.631,1.726c8.144,0.245,16.294,0.302,24.44,0.337c0.414,0.001,0.826,0.003,1.24,0.005"/>
	
		<line fill="none" stroke="#D2D2D2" stroke-width="2" stroke-linejoin="round" stroke-miterlimit="10" x1="64.567" y1="170.561" x2="64.567" y2="164.75"/>
	
		<line fill="none" stroke="#D2D2D2" stroke-width="2" stroke-linejoin="round" stroke-miterlimit="10" x1="110.544" y1="170.561" x2="110.544" y2="164.75"/>
	
		<line fill="none" stroke="#D2D2D2" stroke-width="2" stroke-linejoin="round" stroke-miterlimit="10" x1="156.52" y1="170.561" x2="156.52" y2="164.75"/>
	
		<line fill="none" stroke="#D2D2D2" stroke-width="2" stroke-linejoin="round" stroke-miterlimit="10" x1="202.496" y1="170.561" x2="202.496" y2="164.75"/>
	
		<line fill="none" stroke="#D2D2D2" stroke-width="2" stroke-linejoin="round" stroke-miterlimit="10" x1="248.473" y1="170.561" x2="248.473" y2="164.75"/>
	
		<line fill="none" stroke="#D2D2D2" stroke-width="2" stroke-linejoin="round" stroke-miterlimit="10" x1="294.448" y1="170.561" x2="294.448" y2="164.75"/>
	
		<line fill="none" stroke="#D2D2D2" stroke-width="2" stroke-linejoin="round" stroke-miterlimit="10" x1="340.424" y1="170.561" x2="340.424" y2="164.75"/>
	<g enable-background="new    ">
		<path fill="#D9534F" d="M103.803,182.134v1.477h-9.167v-1.477H103.803z"/>
		<path fill="#D9534F" d="M105.574,184.63c0.39-0.803,1.15-1.532,2.281-2.188l1.688-0.976c0.756-0.439,1.286-0.814,1.591-1.126
			c0.48-0.487,0.721-1.045,0.721-1.673c0-0.734-0.22-1.316-0.659-1.748s-1.025-0.647-1.758-0.647c-1.084,0-1.834,0.411-2.25,1.234
			c-0.223,0.44-0.346,1.052-0.369,1.833h-1.608c0.018-1.096,0.22-1.989,0.606-2.681c0.686-1.219,1.896-1.828,3.63-1.828
			c1.441,0,2.495,0.39,3.16,1.169s0.998,1.646,0.998,2.602c0,1.008-0.354,1.869-1.063,2.584c-0.41,0.416-1.146,0.92-2.206,1.512
			l-1.204,0.668c-0.574,0.316-1.025,0.618-1.354,0.905c-0.586,0.51-0.955,1.075-1.107,1.696h6.873v1.494h-8.64
			C104.96,186.376,105.184,185.433,105.574,184.63z"/>
		<path fill="#D9534F" d="M125.257,179.4h-2.048c0.768,0.791,1.157,1.857,1.169,3.199c0,1.488-0.378,2.689-1.134,3.604
			c-0.768,0.932-1.901,1.409-3.401,1.433c-1.512-0.023-2.64-0.513-3.384-1.468c-0.756-0.938-1.134-2.127-1.134-3.568
			c0.012-1.389,0.425-2.511,1.239-3.366c0.803-0.861,1.896-1.298,3.278-1.31c0.586,0.012,1.046,0.07,1.38,0.176h4.034V179.4z
			 M122.646,182.802c0-0.879-0.205-1.685-0.615-2.417c-0.428-0.756-1.157-1.146-2.188-1.169c-1.02,0.023-1.74,0.396-2.162,1.116
			c-0.434,0.721-0.645,1.544-0.633,2.47c0,1.008,0.252,1.84,0.756,2.496c0.48,0.686,1.16,1.034,2.039,1.046
			c0.967-0.012,1.679-0.378,2.136-1.099C122.424,184.548,122.646,183.733,122.646,182.802z"/>
	</g>
	<g enable-background="new    ">
		<path fill="#D2D2D2" d="M150.232,182.134v1.477h-9.167v-1.477H150.232z"/>
		<path fill="#D2D2D2" d="M152.491,178.548v-1.213c1.143-0.111,1.939-0.297,2.391-0.559c0.451-0.26,0.788-0.877,1.011-1.85h1.248
			v12.533h-1.688v-8.912H152.491z"/>
		<path fill="#D2D2D2" d="M171.686,179.4h-2.048c0.768,0.791,1.157,1.857,1.169,3.199c0,1.488-0.378,2.689-1.134,3.604
			c-0.768,0.932-1.901,1.409-3.401,1.433c-1.512-0.023-2.64-0.513-3.384-1.468c-0.756-0.938-1.134-2.127-1.134-3.568
			c0.012-1.389,0.425-2.511,1.239-3.366c0.803-0.861,1.896-1.298,3.278-1.31c0.586,0.012,1.046,0.07,1.38,0.176h4.034V179.4z
			 M169.076,182.802c0-0.879-0.205-1.685-0.615-2.417c-0.428-0.756-1.157-1.146-2.188-1.169c-1.02,0.023-1.74,0.396-2.162,1.116
			c-0.434,0.721-0.645,1.544-0.633,2.47c0,1.008,0.252,1.84,0.756,2.496c0.48,0.686,1.16,1.034,2.039,1.046
			c0.967-0.012,1.679-0.378,2.136-1.099C168.853,184.548,169.076,183.733,169.076,182.802z"/>
	</g>
	<g enable-background="new    ">
		<path fill="#D2D2D2" d="M240.092,178.548v-1.213c1.143-0.111,1.939-0.297,2.391-0.559c0.451-0.26,0.789-0.877,1.012-1.85h1.248
			v12.533h-1.688v-8.912H240.092z"/>
		<path fill="#D2D2D2" d="M259.287,179.4h-2.047c0.768,0.791,1.156,1.857,1.168,3.199c0,1.488-0.377,2.689-1.133,3.604
			c-0.768,0.932-1.902,1.409-3.402,1.433c-1.512-0.023-2.639-0.513-3.383-1.468c-0.756-0.938-1.135-2.127-1.135-3.568
			c0.012-1.389,0.426-2.511,1.24-3.366c0.803-0.861,1.895-1.298,3.277-1.31c0.586,0.012,1.047,0.07,1.381,0.176h4.033V179.4z
			 M256.678,182.802c0-0.879-0.205-1.685-0.615-2.417c-0.428-0.756-1.158-1.146-2.189-1.169c-1.02,0.023-1.74,0.396-2.162,1.116
			c-0.434,0.721-0.645,1.544-0.633,2.47c0,1.008,0.252,1.84,0.756,2.496c0.48,0.686,1.16,1.034,2.039,1.046
			c0.967-0.012,1.68-0.378,2.137-1.099C256.455,184.548,256.678,183.733,256.678,182.802z"/>
	</g>
	<g enable-background="new    ">
		<path fill="#D2D2D2" d="M57.374,182.134v1.477h-9.167v-1.477H57.374z"/>
		<path fill="#D2D2D2" d="M59.347,186.577c-0.671-0.818-1.006-1.812-1.006-2.984h1.652c0.07,0.814,0.223,1.406,0.457,1.775
			c0.41,0.662,1.151,0.993,2.224,0.993c0.832,0,1.5-0.223,2.004-0.668s0.756-1.02,0.756-1.723c0-0.867-0.265-1.474-0.795-1.819
			s-1.267-0.519-2.21-0.519c-0.105,0-0.212,0.002-0.321,0.005s-0.218,0.007-0.33,0.013v-1.397c0.164,0.018,0.302,0.029,0.413,0.035
			s0.231,0.009,0.36,0.009c0.592,0,1.078-0.094,1.459-0.281c0.668-0.328,1.002-0.914,1.002-1.758c0-0.627-0.223-1.11-0.668-1.45
			s-0.964-0.51-1.556-0.51c-1.055,0-1.784,0.352-2.188,1.055c-0.223,0.387-0.349,0.938-0.378,1.652h-1.564
			c0-0.938,0.188-1.734,0.562-2.391c0.645-1.172,1.778-1.758,3.401-1.758c1.283,0,2.276,0.285,2.979,0.857
			c0.703,0.57,1.055,1.398,1.055,2.482c0,0.773-0.208,1.4-0.624,1.881c-0.258,0.299-0.592,0.533-1.002,0.703
			c0.662,0.182,1.179,0.531,1.551,1.051c0.372,0.518,0.558,1.152,0.558,1.902c0,1.201-0.396,2.18-1.187,2.936
			s-1.913,1.134-3.366,1.134C61.098,187.803,60.018,187.394,59.347,186.577z"/>
		<path fill="#D2D2D2" d="M78.828,179.4H76.78c0.768,0.791,1.157,1.857,1.169,3.199c0,1.488-0.378,2.689-1.134,3.604
			c-0.768,0.932-1.901,1.409-3.401,1.433c-1.512-0.023-2.64-0.513-3.384-1.468c-0.756-0.938-1.134-2.127-1.134-3.568
			c0.012-1.389,0.425-2.511,1.239-3.366c0.803-0.861,1.896-1.298,3.278-1.31c0.586,0.012,1.046,0.07,1.38,0.176h4.034V179.4z
			 M76.218,182.802c0-0.879-0.205-1.685-0.615-2.417c-0.428-0.756-1.157-1.146-2.188-1.169c-1.02,0.023-1.74,0.396-2.162,1.116
			c-0.434,0.721-0.645,1.544-0.633,2.47c0,1.008,0.252,1.84,0.756,2.496c0.48,0.686,1.16,1.034,2.039,1.046
			c0.967-0.012,1.679-0.378,2.136-1.099C75.995,184.548,76.218,183.733,76.218,182.802z"/>
	</g>
	<g enable-background="new    ">
		<path fill="#D2D2D2" d="M332.664,186.577c-0.67-0.818-1.006-1.812-1.006-2.984h1.652c0.07,0.814,0.223,1.406,0.457,1.775
			c0.41,0.662,1.151,0.993,2.224,0.993c0.832,0,1.5-0.223,2.004-0.668s0.756-1.02,0.756-1.723c0-0.867-0.265-1.474-0.796-1.819
			c-0.529-0.346-1.267-0.519-2.21-0.519c-0.105,0-0.212,0.002-0.321,0.005c-0.107,0.003-0.218,0.007-0.329,0.013v-1.397
			c0.164,0.018,0.302,0.029,0.413,0.035s0.231,0.009,0.36,0.009c0.592,0,1.078-0.094,1.459-0.281
			c0.668-0.328,1.002-0.914,1.002-1.758c0-0.627-0.223-1.11-0.668-1.45s-0.964-0.51-1.556-0.51c-1.055,0-1.784,0.352-2.188,1.055
			c-0.223,0.387-0.349,0.938-0.378,1.652h-1.564c0-0.938,0.188-1.734,0.562-2.391c0.645-1.172,1.778-1.758,3.401-1.758
			c1.283,0,2.276,0.285,2.979,0.857c0.703,0.57,1.055,1.398,1.055,2.482c0,0.773-0.208,1.4-0.624,1.881
			c-0.258,0.299-0.592,0.533-1.002,0.703c0.662,0.182,1.179,0.531,1.552,1.051c0.371,0.518,0.558,1.152,0.558,1.902
			c0,1.201-0.396,2.18-1.187,2.936s-1.913,1.134-3.366,1.134C334.415,187.803,333.336,187.394,332.664,186.577z"/>
		<path fill="#D2D2D2" d="M352.146,179.4h-2.048c0.768,0.791,1.157,1.857,1.169,3.199c0,1.488-0.378,2.689-1.134,3.604
			c-0.768,0.932-1.901,1.409-3.401,1.433c-1.512-0.023-2.64-0.513-3.384-1.468c-0.756-0.938-1.134-2.127-1.134-3.568
			c0.012-1.389,0.425-2.511,1.239-3.366c0.803-0.861,1.896-1.298,3.278-1.31c0.586,0.012,1.046,0.07,1.38,0.176h4.034V179.4z
			 M349.535,182.802c0-0.879-0.205-1.685-0.615-2.417c-0.428-0.756-1.157-1.146-2.188-1.169c-1.02,0.023-1.74,0.396-2.162,1.116
			c-0.434,0.721-0.645,1.544-0.633,2.47c0,1.008,0.252,1.84,0.756,2.496c0.48,0.686,1.16,1.034,2.039,1.046
			c0.967-0.012,1.679-0.378,2.136-1.099C349.312,184.548,349.535,183.733,349.535,182.802z"/>
	</g>
	<g enable-background="new    ">
		<path fill="#D2D2D2" d="M201.104,178.064l-1.429,6.65c-0.023,0.1-0.039,0.187-0.048,0.26s-0.013,0.153-0.013,0.241
			c0,0.284,0.055,0.509,0.165,0.675c0.203,0.302,0.586,0.453,1.149,0.453c0.841,0,1.553-0.312,2.136-0.937
			c0.583-0.625,0.965-1.356,1.145-2.193l1.101-5.149h1.609l-1.999,9.396h-1.521l0.366-1.577c-0.128,0.257-0.399,0.563-0.816,0.92
			c-0.712,0.603-1.503,0.903-2.371,0.903c-0.272,0-0.55-0.05-0.833-0.148c-0.284-0.1-0.492-0.214-0.625-0.342l-0.845,3.953h-1.619
			l2.831-13.104H201.104z"/>
	</g>
	<g enable-background="new    ">
		<path fill="#D9534F" d="M286.033,184.63c0.391-0.803,1.15-1.532,2.281-2.188l1.688-0.976c0.756-0.439,1.286-0.814,1.591-1.126
			c0.48-0.487,0.721-1.045,0.721-1.673c0-0.734-0.22-1.316-0.659-1.748s-1.025-0.647-1.758-0.647c-1.084,0-1.834,0.411-2.25,1.234
			c-0.223,0.44-0.346,1.052-0.369,1.833h-1.608c0.018-1.096,0.22-1.989,0.606-2.681c0.686-1.219,1.896-1.828,3.63-1.828
			c1.441,0,2.495,0.39,3.159,1.169c0.666,0.779,0.998,1.646,0.998,2.602c0,1.008-0.354,1.869-1.063,2.584
			c-0.41,0.416-1.146,0.92-2.206,1.512l-1.204,0.668c-0.574,0.316-1.025,0.618-1.354,0.905c-0.586,0.51-0.955,1.075-1.107,1.696
			h6.873v1.494h-8.64C285.42,186.376,285.645,185.433,286.033,184.63z"/>
		<path fill="#D9534F" d="M305.717,179.4h-2.048c0.768,0.791,1.157,1.857,1.169,3.199c0,1.488-0.378,2.689-1.134,3.604
			c-0.768,0.932-1.901,1.409-3.401,1.433c-1.512-0.023-2.64-0.513-3.384-1.468c-0.756-0.938-1.134-2.127-1.134-3.568
			c0.012-1.389,0.425-2.511,1.239-3.366c0.803-0.861,1.896-1.298,3.278-1.31c0.586,0.012,1.046,0.07,1.38,0.176h4.034V179.4z
			 M303.106,182.802c0-0.879-0.205-1.685-0.615-2.417c-0.428-0.756-1.157-1.146-2.188-1.169c-1.02,0.023-1.74,0.396-2.162,1.116
			c-0.434,0.721-0.645,1.544-0.633,2.47c0,1.008,0.252,1.84,0.756,2.496c0.48,0.686,1.16,1.034,2.039,1.046
			c0.967-0.012,1.679-0.378,2.136-1.099C302.884,184.548,303.106,183.733,303.106,182.802z"/>
	</g>
	<g id="Layer_2">
	</g>
</g>
<g id="percent">
	<g enable-background="new    ">
		<path fill="#D9534F" d="M185.468-1.52l1.521-0.141c0.129,0.715,0.375,1.233,0.738,1.556s0.829,0.483,1.397,0.483
			c0.486,0,0.913-0.111,1.279-0.334s0.667-0.52,0.901-0.892s0.431-0.875,0.589-1.508s0.237-1.277,0.237-1.934
			c0-0.07-0.003-0.176-0.009-0.316c-0.316,0.504-0.749,0.913-1.296,1.227s-1.141,0.47-1.78,0.47c-1.066,0-1.969-0.387-2.707-1.16
			s-1.107-1.793-1.107-3.059c0-1.307,0.385-2.358,1.156-3.155s1.736-1.195,2.896-1.195c0.838,0,1.604,0.226,2.298,0.677
			s1.222,1.095,1.582,1.929c0.36,0.836,0.541,2.044,0.541,3.626c0,1.646-0.179,2.958-0.536,3.933
			c-0.357,0.977-0.889,1.719-1.595,2.229s-1.534,0.765-2.483,0.765c-1.008,0-1.831-0.279-2.47-0.839S185.597-0.506,185.468-1.52z
			 M191.946-7.206c0-0.908-0.242-1.629-0.725-2.162s-1.065-0.8-1.745-0.8c-0.703,0-1.315,0.287-1.837,0.861
			s-0.782,1.318-0.782,2.232c0,0.82,0.248,1.487,0.743,1.999c0.495,0.514,1.106,0.77,1.833,0.77c0.732,0,1.334-0.256,1.806-0.77
			C191.71-5.587,191.946-6.298,191.946-7.206z"/>
		<path fill="#D9534F" d="M195.242-1.915l1.661-0.141c0.123,0.809,0.409,1.417,0.857,1.824s0.989,0.61,1.622,0.61
			c0.762,0,1.406-0.287,1.933-0.861s0.791-1.336,0.791-2.285c0-0.902-0.253-1.614-0.76-2.136s-1.17-0.782-1.991-0.782
			c-0.51,0-0.97,0.116-1.38,0.347c-0.41,0.232-0.732,0.532-0.967,0.901l-1.485-0.193l1.248-6.618h6.407v1.512h-5.141l-0.694,3.463
			c0.773-0.539,1.585-0.809,2.435-0.809c1.125,0,2.075,0.39,2.848,1.169s1.16,1.781,1.16,3.006c0,1.166-0.34,2.174-1.02,3.023
			c-0.826,1.043-1.955,1.564-3.384,1.564c-1.172,0-2.128-0.328-2.87-0.984S195.347-0.831,195.242-1.915z"/>
		<path fill="#D9534F" d="M205.551-8.331c0-0.92,0.232-1.702,0.695-2.347s1.133-0.967,2.012-0.967c0.809,0,1.479,0.289,2.009,0.866
			s0.796,1.425,0.796,2.544c0,1.09-0.269,1.929-0.805,2.519c-0.536,0.588-1.197,0.883-1.982,0.883c-0.779,0-1.428-0.29-1.946-0.87
			S205.551-7.159,205.551-8.331z M208.303-10.555c-0.393,0-0.72,0.17-0.98,0.51s-0.391,0.964-0.391,1.872
			c0,0.826,0.131,1.408,0.395,1.744c0.264,0.338,0.59,0.506,0.977,0.506c0.398,0,0.728-0.17,0.988-0.51s0.391-0.961,0.391-1.863
			c0-0.832-0.131-1.416-0.395-1.754C209.023-10.386,208.695-10.555,208.303-10.555z M208.311,1.935l7.049-13.579h1.283
			l-7.021,13.579H208.311z M213.883-1.563c0-0.926,0.232-1.709,0.695-2.352c0.463-0.641,1.137-0.962,2.021-0.962
			c0.809,0,1.478,0.289,2.008,0.866s0.795,1.425,0.795,2.544c0,1.09-0.268,1.929-0.804,2.519c-0.536,0.588-1.2,0.883-1.991,0.883
			c-0.779,0-1.428-0.292-1.946-0.875C214.143,0.478,213.883-0.397,213.883-1.563z M216.643-3.787c-0.398,0-0.728,0.17-0.988,0.51
			s-0.391,0.964-0.391,1.872c0,0.82,0.131,1.4,0.395,1.74s0.59,0.51,0.977,0.51c0.404,0,0.736-0.17,0.997-0.51
			s0.392-0.961,0.392-1.863c0-0.832-0.133-1.416-0.396-1.754C217.363-3.618,217.035-3.787,216.643-3.787z"/>
	</g>
	<g>
		<g>
			<line fill="none" stroke="#D2D2D2" stroke-width="2" x1="119.017" y1="7" x2="285.976" y2="7"/>
			<g>
				<polygon fill="#D2D2D2" points="110.544,7 122.483,11.878 119.65,7 122.483,2.123 				"/>
			</g>
			<g>
				<polygon fill="#D2D2D2" points="294.448,7 282.509,11.878 285.342,7 282.509,2.123 				"/>
			</g>
		</g>
	</g>
	<g>
	</g>
</g>
</svg>
