<?xml version="1.0" encoding="utf-8"?>
<!-- Generator: Adobe Illustrator 16.0.4, SVG Export Plug-In . SVG Version: 6.00 Build 0)  -->
<!DOCTYPE svg PUBLIC "-//W3C//DTD SVG 1.1//EN" "http://www.w3.org/Graphics/SVG/1.1/DTD/svg11.dtd">
<svg version="1.1" xmlns="http://www.w3.org/2000/svg" xmlns:xlink="http://www.w3.org/1999/xlink" x="0px" y="0px" width="400px"
	 height="235px" viewBox="0 -35 400 235" enable-background="new 0 -35 400 235" xml:space="preserve">
<g id="normal">
	<g id="colours">
		<path fill="#2B8CBE" d="M155.641,82.148c-4.144,7.859-8.322,15.692-12.687,23.42c-4.234,7.496-8.798,14.781-13.72,21.806
			c-4.784,6.826-10.222,13.536-16.437,18.996c-0.743,0.653-1.495,1.292-2.253,1.922V167.8h45.976V80.483
			C156.227,81.038,155.933,81.593,155.641,82.148z"/>
		<path fill="#74A9CF" d="M91.657,159.961c-7.855,3.18-16.052,4.928-24.396,5.979c-0.896,0.113-1.794,0.216-2.693,0.313v1.547
			h45.977v-19.508C104.781,153.08,98.574,157.16,91.657,159.961z"/>
		<path fill="#BDC9E1" d="M43.484,167.48c-8.295,0.218-16.594,0.283-24.893,0.318h45.976v-1.547
			C57.567,167.007,50.515,167.295,43.484,167.48z"/>
		<path fill="#045A8D" d="M202.104,23.831c-4.104,0.322-8.023,1.843-11.271,4.541c-3.339,2.773-6.319,5.849-9.025,9.298
			c-5.224,6.657-9.685,14.041-13.813,21.477c-3.919,7.058-7.704,14.191-11.473,21.336V167.8h45.976V23.814
			C202.365,23.819,202.234,23.82,202.104,23.831z"/>
		<path fill="#045A8D" d="M236.688,58.604c-4.303-7.503-8.707-15.093-14.174-21.75c-2.654-3.234-5.511-6.552-8.943-8.912
			c-3.25-2.234-7.057-4.295-11.074-4.127V167.8h45.977V80.48C244.611,73.152,240.805,65.781,236.688,58.604z"/>
		<path fill="#74A9CF" d="M336.089,165.732c-7.962-1.004-16.086-2.795-23.49-6.08c-6.541-2.9-12.646-6.65-18.149-11.311V167.8
			h45.976v-1.594C338.979,166.059,337.533,165.916,336.089,165.732z"/>
		<path fill="#2B8CBE" d="M291.594,145.807c-6.322-5.968-11.824-12.712-16.852-19.885c-4.902-6.994-9.317-14.354-13.531-21.816
			c-4.343-7.69-8.463-15.514-12.585-23.333c-0.052-0.097-0.103-0.195-0.153-0.292v87.32h45.977v-19.457
			C293.479,147.521,292.523,146.684,291.594,145.807z"/>
		<path fill="#BDC9E1" d="M385.16,167.795c-8.146-0.035-16.298-0.092-24.44-0.337c-6.782-0.204-13.548-0.563-20.296-1.252v1.594
			H386.4C385.986,167.798,385.574,167.796,385.16,167.795z"/>
	</g>
	<g id="white_lines">
		
			<line fill="none" stroke="#D2D2D2" stroke-linejoin="round" stroke-miterlimit="10" x1="110.544" y1="148.739" x2="110.544" y2="167.854"/>
		
			<line fill="none" stroke="#D2D2D2" stroke-linejoin="round" stroke-miterlimit="10" x1="156.52" y1="81.302" x2="156.52" y2="167.854"/>
		
			<line fill="none" stroke="#D2D2D2" stroke-linejoin="round" stroke-miterlimit="10" x1="202.496" y1="23.832" x2="202.496" y2="167.854"/>
		
			<line fill="none" stroke="#D2D2D2" stroke-linejoin="round" stroke-miterlimit="10" x1="248.473" y1="81.302" x2="248.473" y2="167.854"/>
		
			<line fill="none" stroke="#D2D2D2" stroke-linejoin="round" stroke-miterlimit="10" x1="294.448" y1="148.739" x2="294.448" y2="167.854"/>
	</g>
	
		<line fill="none" stroke="#D2D2D2" stroke-width="3" stroke-linecap="round" stroke-linejoin="round" stroke-miterlimit="10" x1="18.448" y1="167.85" x2="386.325" y2="167.85"/>
	<path fill="none" stroke="#D2D2D2" stroke-width="3" stroke-linecap="round" stroke-linejoin="round" stroke-miterlimit="10" d="
		M18.591,167.8c8.299-0.034,16.598-0.102,24.893-0.319c7.932-0.209,15.894-0.545,23.776-1.539
		c8.345-1.053,16.541-2.801,24.396-5.979c7.827-3.169,14.747-7.974,21.14-13.591c6.215-5.46,11.653-12.17,16.437-18.996
		c4.922-7.023,9.486-14.309,13.72-21.807c4.365-7.728,8.543-15.562,12.687-23.419c4.061-7.702,8.129-15.395,12.353-23.001
		c4.128-7.436,8.59-14.82,13.813-21.477c2.706-3.449,5.687-6.525,9.025-9.298c3.247-2.698,7.168-4.219,11.271-4.541
		c4.162-0.326,8.111,1.804,11.469,4.111c3.434,2.36,6.289,5.678,8.943,8.912c5.467,6.658,9.871,14.247,14.174,21.75
		c4.17,7.272,8.024,14.744,11.938,22.168c4.122,7.82,8.242,15.642,12.585,23.333c4.214,7.463,8.629,14.824,13.531,21.817
		c5.027,7.173,10.529,13.917,16.852,19.884c6.212,5.863,13.312,10.437,21.005,13.849c7.404,3.284,15.528,5.075,23.49,6.079
		c8.182,1.033,16.396,1.478,24.631,1.726c8.144,0.245,16.294,0.302,24.44,0.337c0.414,0.001,0.826,0.003,1.24,0.005"/>
	
		<line fill="none" stroke="#D2D2D2" stroke-width="2" stroke-linejoin="round" stroke-miterlimit="10" x1="64.567" y1="173.561" x2="64.567" y2="167.75"/>
	
		<line fill="none" stroke="#D2D2D2" stroke-width="2" stroke-linejoin="round" stroke-miterlimit="10" x1="110.544" y1="173.561" x2="110.544" y2="167.75"/>
	
		<line fill="none" stroke="#D2D2D2" stroke-width="2" stroke-linejoin="round" stroke-miterlimit="10" x1="156.52" y1="173.561" x2="156.52" y2="167.75"/>
	
		<line fill="none" stroke="#D2D2D2" stroke-width="2" stroke-linejoin="round" stroke-miterlimit="10" x1="202.496" y1="173.561" x2="202.496" y2="167.75"/>
	
		<line fill="none" stroke="#D2D2D2" stroke-width="2" stroke-linejoin="round" stroke-miterlimit="10" x1="248.473" y1="173.561" x2="248.473" y2="167.75"/>
	
		<line fill="none" stroke="#D2D2D2" stroke-width="2" stroke-linejoin="round" stroke-miterlimit="10" x1="294.448" y1="173.561" x2="294.448" y2="167.75"/>
	
		<line fill="none" stroke="#D2D2D2" stroke-width="2" stroke-linejoin="round" stroke-miterlimit="10" x1="340.424" y1="173.561" x2="340.424" y2="167.75"/>
	<g enable-background="new    ">
		<path fill="#D9534F" d="M103.803,185.134v1.477h-9.167v-1.477H103.803z"/>
		<path fill="#D9534F" d="M105.574,187.63c0.39-0.803,1.15-1.532,2.281-2.188l1.688-0.976c0.756-0.439,1.286-0.814,1.591-1.126
			c0.48-0.487,0.721-1.045,0.721-1.673c0-0.734-0.22-1.316-0.659-1.748s-1.025-0.647-1.758-0.647c-1.084,0-1.834,0.411-2.25,1.234
			c-0.223,0.44-0.346,1.052-0.369,1.833h-1.608c0.018-1.096,0.22-1.989,0.606-2.681c0.686-1.219,1.896-1.828,3.63-1.828
			c1.441,0,2.495,0.39,3.16,1.169s0.998,1.646,0.998,2.602c0,1.008-0.354,1.869-1.063,2.584c-0.41,0.416-1.146,0.92-2.206,1.512
			l-1.204,0.668c-0.574,0.316-1.025,0.618-1.354,0.905c-0.586,0.51-0.955,1.075-1.107,1.696h6.873v1.494h-8.64
			C104.96,189.376,105.184,188.433,105.574,187.63z"/>
		<path fill="#D9534F" d="M125.257,182.4h-2.048c0.768,0.791,1.157,1.857,1.169,3.199c0,1.488-0.378,2.689-1.134,3.604
			c-0.768,0.932-1.901,1.409-3.401,1.433c-1.512-0.023-2.64-0.513-3.384-1.468c-0.756-0.938-1.134-2.127-1.134-3.568
			c0.012-1.389,0.425-2.511,1.239-3.366c0.803-0.861,1.896-1.298,3.278-1.31c0.586,0.012,1.046,0.07,1.38,0.176h4.034V182.4z
			 M122.646,185.802c0-0.879-0.205-1.685-0.615-2.417c-0.428-0.756-1.157-1.146-2.188-1.169c-1.02,0.023-1.74,0.396-2.162,1.116
			c-0.434,0.721-0.645,1.544-0.633,2.47c0,1.008,0.252,1.84,0.756,2.496c0.48,0.686,1.16,1.034,2.039,1.046
			c0.967-0.012,1.679-0.378,2.136-1.099C122.424,187.548,122.646,186.733,122.646,185.802z"/>
	</g>
	<g enable-background="new    ">
		<path fill="#D2D2D2" d="M150.232,185.134v1.477h-9.167v-1.477H150.232z"/>
		<path fill="#D2D2D2" d="M152.491,181.548v-1.213c1.143-0.111,1.939-0.297,2.391-0.559c0.451-0.26,0.788-0.877,1.011-1.85h1.248
			v12.533h-1.688v-8.912H152.491z"/>
		<path fill="#D2D2D2" d="M171.686,182.4h-2.048c0.768,0.791,1.157,1.857,1.169,3.199c0,1.488-0.378,2.689-1.134,3.604
			c-0.768,0.932-1.901,1.409-3.401,1.433c-1.512-0.023-2.64-0.513-3.384-1.468c-0.756-0.938-1.134-2.127-1.134-3.568
			c0.012-1.389,0.425-2.511,1.239-3.366c0.803-0.861,1.896-1.298,3.278-1.31c0.586,0.012,1.046,0.07,1.38,0.176h4.034V182.4z
			 M169.076,185.802c0-0.879-0.205-1.685-0.615-2.417c-0.428-0.756-1.157-1.146-2.188-1.169c-1.02,0.023-1.74,0.396-2.162,1.116
			c-0.434,0.721-0.645,1.544-0.633,2.47c0,1.008,0.252,1.84,0.756,2.496c0.48,0.686,1.16,1.034,2.039,1.046
			c0.967-0.012,1.679-0.378,2.136-1.099C168.853,187.548,169.076,186.733,169.076,185.802z"/>
	</g>
	<g enable-background="new    ">
		<path fill="#D2D2D2" d="M240.092,181.548v-1.213c1.143-0.111,1.939-0.297,2.391-0.559c0.451-0.26,0.789-0.877,1.012-1.85h1.248
			v12.533h-1.688v-8.912H240.092z"/>
		<path fill="#D2D2D2" d="M259.287,182.4h-2.047c0.768,0.791,1.156,1.857,1.168,3.199c0,1.488-0.377,2.689-1.133,3.604
			c-0.768,0.932-1.902,1.409-3.402,1.433c-1.512-0.023-2.639-0.513-3.383-1.468c-0.756-0.938-1.135-2.127-1.135-3.568
			c0.012-1.389,0.426-2.511,1.24-3.366c0.803-0.861,1.895-1.298,3.277-1.31c0.586,0.012,1.047,0.07,1.381,0.176h4.033V182.4z
			 M256.678,185.802c0-0.879-0.205-1.685-0.615-2.417c-0.428-0.756-1.158-1.146-2.189-1.169c-1.02,0.023-1.74,0.396-2.162,1.116
			c-0.434,0.721-0.645,1.544-0.633,2.47c0,1.008,0.252,1.84,0.756,2.496c0.48,0.686,1.16,1.034,2.039,1.046
			c0.967-0.012,1.68-0.378,2.137-1.099C256.455,187.548,256.678,186.733,256.678,185.802z"/>
	</g>
	<g enable-background="new    ">
		<path fill="#D2D2D2" d="M57.374,185.134v1.477h-9.167v-1.477H57.374z"/>
		<path fill="#D2D2D2" d="M59.347,189.577c-0.671-0.818-1.006-1.812-1.006-2.984h1.652c0.07,0.814,0.223,1.406,0.457,1.775
			c0.41,0.662,1.151,0.993,2.224,0.993c0.832,0,1.5-0.223,2.004-0.668s0.756-1.02,0.756-1.723c0-0.867-0.265-1.474-0.795-1.819
			s-1.267-0.519-2.21-0.519c-0.105,0-0.212,0.002-0.321,0.005s-0.218,0.007-0.33,0.013v-1.397c0.164,0.018,0.302,0.029,0.413,0.035
			s0.231,0.009,0.36,0.009c0.592,0,1.078-0.094,1.459-0.281c0.668-0.328,1.002-0.914,1.002-1.758c0-0.627-0.223-1.11-0.668-1.45
			s-0.964-0.51-1.556-0.51c-1.055,0-1.784,0.352-2.188,1.055c-0.223,0.387-0.349,0.938-0.378,1.652h-1.564
			c0-0.938,0.188-1.734,0.562-2.391c0.645-1.172,1.778-1.758,3.401-1.758c1.283,0,2.276,0.285,2.979,0.857
			c0.703,0.57,1.055,1.398,1.055,2.482c0,0.773-0.208,1.4-0.624,1.881c-0.258,0.299-0.592,0.533-1.002,0.703
			c0.662,0.182,1.179,0.531,1.551,1.051c0.372,0.518,0.558,1.152,0.558,1.902c0,1.201-0.396,2.18-1.187,2.936
			s-1.913,1.134-3.366,1.134C61.098,190.803,60.018,190.394,59.347,189.577z"/>
		<path fill="#D2D2D2" d="M78.828,182.4H76.78c0.768,0.791,1.157,1.857,1.169,3.199c0,1.488-0.378,2.689-1.134,3.604
			c-0.768,0.932-1.901,1.409-3.401,1.433c-1.512-0.023-2.64-0.513-3.384-1.468c-0.756-0.938-1.134-2.127-1.134-3.568
			c0.012-1.389,0.425-2.511,1.239-3.366c0.803-0.861,1.896-1.298,3.278-1.31c0.586,0.012,1.046,0.07,1.38,0.176h4.034V182.4z
			 M76.218,185.802c0-0.879-0.205-1.685-0.615-2.417c-0.428-0.756-1.157-1.146-2.188-1.169c-1.02,0.023-1.74,0.396-2.162,1.116
			c-0.434,0.721-0.645,1.544-0.633,2.47c0,1.008,0.252,1.84,0.756,2.496c0.48,0.686,1.16,1.034,2.039,1.046
			c0.967-0.012,1.679-0.378,2.136-1.099C75.995,187.548,76.218,186.733,76.218,185.802z"/>
	</g>
	<g enable-background="new    ">
		<path fill="#D2D2D2" d="M332.664,189.577c-0.67-0.818-1.006-1.812-1.006-2.984h1.652c0.07,0.814,0.223,1.406,0.457,1.775
			c0.41,0.662,1.151,0.993,2.224,0.993c0.832,0,1.5-0.223,2.004-0.668s0.756-1.02,0.756-1.723c0-0.867-0.265-1.474-0.796-1.819
			c-0.529-0.346-1.267-0.519-2.21-0.519c-0.105,0-0.212,0.002-0.321,0.005c-0.107,0.003-0.218,0.007-0.329,0.013v-1.397
			c0.164,0.018,0.302,0.029,0.413,0.035s0.231,0.009,0.36,0.009c0.592,0,1.078-0.094,1.459-0.281
			c0.668-0.328,1.002-0.914,1.002-1.758c0-0.627-0.223-1.11-0.668-1.45s-0.964-0.51-1.556-0.51c-1.055,0-1.784,0.352-2.188,1.055
			c-0.223,0.387-0.349,0.938-0.378,1.652h-1.564c0-0.938,0.188-1.734,0.562-2.391c0.645-1.172,1.778-1.758,3.401-1.758
			c1.283,0,2.276,0.285,2.979,0.857c0.703,0.57,1.055,1.398,1.055,2.482c0,0.773-0.208,1.4-0.624,1.881
			c-0.258,0.299-0.592,0.533-1.002,0.703c0.662,0.182,1.179,0.531,1.552,1.051c0.371,0.518,0.558,1.152,0.558,1.902
			c0,1.201-0.396,2.18-1.187,2.936s-1.913,1.134-3.366,1.134C334.415,190.803,333.336,190.394,332.664,189.577z"/>
		<path fill="#D2D2D2" d="M352.146,182.4h-2.048c0.768,0.791,1.157,1.857,1.169,3.199c0,1.488-0.378,2.689-1.134,3.604
			c-0.768,0.932-1.901,1.409-3.401,1.433c-1.512-0.023-2.64-0.513-3.384-1.468c-0.756-0.938-1.134-2.127-1.134-3.568
			c0.012-1.389,0.425-2.511,1.239-3.366c0.803-0.861,1.896-1.298,3.278-1.31c0.586,0.012,1.046,0.07,1.38,0.176h4.034V182.4z
			 M349.535,185.802c0-0.879-0.205-1.685-0.615-2.417c-0.428-0.756-1.157-1.146-2.188-1.169c-1.02,0.023-1.74,0.396-2.162,1.116
			c-0.434,0.721-0.645,1.544-0.633,2.47c0,1.008,0.252,1.84,0.756,2.496c0.48,0.686,1.16,1.034,2.039,1.046
			c0.967-0.012,1.679-0.378,2.136-1.099C349.312,187.548,349.535,186.733,349.535,185.802z"/>
	</g>
	<g enable-background="new    ">
		<path fill="#D2D2D2" d="M201.104,181.064l-1.429,6.65c-0.023,0.1-0.039,0.187-0.048,0.26s-0.013,0.153-0.013,0.241
			c0,0.284,0.055,0.509,0.165,0.675c0.203,0.302,0.586,0.453,1.149,0.453c0.841,0,1.553-0.312,2.136-0.937
			c0.583-0.625,0.965-1.356,1.145-2.193l1.101-5.149h1.609l-1.999,9.396h-1.521l0.366-1.577c-0.128,0.257-0.399,0.563-0.816,0.92
			c-0.712,0.603-1.503,0.903-2.371,0.903c-0.272,0-0.55-0.05-0.833-0.148c-0.284-0.1-0.492-0.214-0.625-0.342l-0.845,3.953h-1.619
			l2.831-13.104H201.104z"/>
	</g>
	<g enable-background="new    ">
		<path fill="#D9534F" d="M286.033,187.63c0.391-0.803,1.15-1.532,2.281-2.188l1.688-0.976c0.756-0.439,1.286-0.814,1.591-1.126
			c0.48-0.487,0.721-1.045,0.721-1.673c0-0.734-0.22-1.316-0.659-1.748s-1.025-0.647-1.758-0.647c-1.084,0-1.834,0.411-2.25,1.234
			c-0.223,0.44-0.346,1.052-0.369,1.833h-1.608c0.018-1.096,0.22-1.989,0.606-2.681c0.686-1.219,1.896-1.828,3.63-1.828
			c1.441,0,2.495,0.39,3.159,1.169c0.666,0.779,0.998,1.646,0.998,2.602c0,1.008-0.354,1.869-1.063,2.584
			c-0.41,0.416-1.146,0.92-2.206,1.512l-1.204,0.668c-0.574,0.316-1.025,0.618-1.354,0.905c-0.586,0.51-0.955,1.075-1.107,1.696
			h6.873v1.494h-8.64C285.42,189.376,285.645,188.433,286.033,187.63z"/>
		<path fill="#D9534F" d="M305.717,182.4h-2.048c0.768,0.791,1.157,1.857,1.169,3.199c0,1.488-0.378,2.689-1.134,3.604
			c-0.768,0.932-1.901,1.409-3.401,1.433c-1.512-0.023-2.64-0.513-3.384-1.468c-0.756-0.938-1.134-2.127-1.134-3.568
			c0.012-1.389,0.425-2.511,1.239-3.366c0.803-0.861,1.896-1.298,3.278-1.31c0.586,0.012,1.046,0.07,1.38,0.176h4.034V182.4z
			 M303.106,185.802c0-0.879-0.205-1.685-0.615-2.417c-0.428-0.756-1.157-1.146-2.188-1.169c-1.02,0.023-1.74,0.396-2.162,1.116
			c-0.434,0.721-0.645,1.544-0.633,2.47c0,1.008,0.252,1.84,0.756,2.496c0.48,0.686,1.16,1.034,2.039,1.046
			c0.967-0.012,1.679-0.378,2.136-1.099C302.884,187.548,303.106,186.733,303.106,185.802z"/>
	</g>
	<g id="Layer_2">
	</g>
</g>
<g id="percent">
	<g enable-background="new    ">
		<path fill="#D9534F" d="M187.326-4.188l1.352-0.125c0.114,0.636,0.333,1.097,0.656,1.383c0.323,0.286,0.737,0.43,1.242,0.43
			c0.432,0,0.811-0.099,1.137-0.297c0.325-0.198,0.592-0.462,0.801-0.793c0.208-0.331,0.383-0.777,0.523-1.34
			s0.211-1.136,0.211-1.719c0-0.062-0.003-0.156-0.008-0.281c-0.281,0.448-0.666,0.812-1.152,1.09
			c-0.487,0.278-1.015,0.418-1.582,0.418c-0.948,0-1.75-0.344-2.406-1.031s-0.984-1.594-0.984-2.719
			c0-1.161,0.342-2.097,1.027-2.805c0.685-0.708,1.543-1.062,2.574-1.062c0.745,0,1.426,0.2,2.043,0.602s1.086,0.973,1.406,1.715
			s0.48,1.816,0.48,3.223c0,1.464-0.159,2.629-0.477,3.496c-0.318,0.867-0.791,1.527-1.418,1.98c-0.628,0.453-1.363,0.68-2.207,0.68
			c-0.896,0-1.628-0.249-2.195-0.746C187.782-2.588,187.44-3.287,187.326-4.188z M193.084-9.243c0-0.808-0.215-1.448-0.645-1.922
			s-0.947-0.711-1.551-0.711c-0.625,0-1.169,0.255-1.633,0.766c-0.464,0.511-0.695,1.172-0.695,1.984c0,0.729,0.22,1.321,0.66,1.777
			c0.44,0.456,0.983,0.684,1.629,0.684c0.651,0,1.186-0.228,1.605-0.684C192.874-7.805,193.084-8.436,193.084-9.243z"/>
		<path fill="#D9534F" d="M196.014-4.54l1.477-0.125c0.109,0.719,0.363,1.259,0.762,1.621s0.879,0.543,1.441,0.543
			c0.677,0,1.25-0.255,1.719-0.766s0.703-1.188,0.703-2.031c0-0.802-0.226-1.435-0.676-1.898c-0.451-0.464-1.041-0.695-1.77-0.695
			c-0.453,0-0.862,0.103-1.227,0.309c-0.365,0.206-0.651,0.473-0.859,0.801l-1.32-0.172l1.109-5.883h5.695v1.344h-4.57l-0.617,3.078
			c0.688-0.479,1.409-0.719,2.164-0.719c1,0,1.844,0.347,2.531,1.039s1.031,1.583,1.031,2.672c0,1.036-0.303,1.933-0.906,2.688
			c-0.734,0.927-1.737,1.391-3.008,1.391c-1.042,0-1.892-0.292-2.551-0.875C196.483-2.803,196.107-3.576,196.014-4.54z"/>
		<path fill="#D9534F" d="M205.178-10.243c0-0.817,0.205-1.513,0.617-2.086c0.411-0.573,1.008-0.859,1.789-0.859
			c0.719,0,1.313,0.257,1.785,0.77c0.471,0.513,0.707,1.267,0.707,2.262c0,0.969-0.238,1.715-0.715,2.238s-1.064,0.785-1.762,0.785
			c-0.693,0-1.27-0.258-1.73-0.773S205.178-9.201,205.178-10.243z M207.623-12.22c-0.35,0-0.64,0.151-0.871,0.453
			c-0.232,0.302-0.348,0.856-0.348,1.664c0,0.734,0.117,1.251,0.352,1.551s0.523,0.449,0.867,0.449c0.354,0,0.646-0.151,0.879-0.453
			c0.231-0.302,0.348-0.854,0.348-1.656c0-0.739-0.117-1.259-0.352-1.559S207.972-12.22,207.623-12.22z M207.631-1.118l6.266-12.07
			h1.141l-6.242,12.07H207.631z M212.584-4.228c0-0.823,0.205-1.52,0.617-2.09c0.411-0.57,1.01-0.855,1.797-0.855
			c0.719,0,1.313,0.257,1.785,0.77c0.471,0.513,0.707,1.267,0.707,2.262c0,0.969-0.238,1.715-0.715,2.238s-1.066,0.785-1.77,0.785
			c-0.693,0-1.27-0.259-1.73-0.777S212.584-3.191,212.584-4.228z M215.037-6.204c-0.354,0-0.647,0.151-0.879,0.453
			c-0.232,0.302-0.348,0.856-0.348,1.664c0,0.729,0.117,1.245,0.352,1.547s0.523,0.453,0.867,0.453c0.359,0,0.654-0.151,0.887-0.453
			c0.231-0.302,0.348-0.854,0.348-1.656c0-0.739-0.117-1.259-0.352-1.559S215.386-6.204,215.037-6.204z"/>
	</g>
	<g enable-background="new    ">
		<path fill="#D2D2D2" d="M194.412,8.312l-1.398,0.109c-0.125-0.552-0.302-0.953-0.531-1.203c-0.38-0.401-0.849-0.602-1.406-0.602
			c-0.448,0-0.841,0.125-1.18,0.375c-0.443,0.323-0.792,0.794-1.047,1.414c-0.255,0.62-0.388,1.503-0.398,2.648
			c0.338-0.516,0.752-0.898,1.242-1.148c0.489-0.25,1.002-0.375,1.539-0.375c0.938,0,1.735,0.345,2.395,1.035
			c0.659,0.69,0.988,1.582,0.988,2.676c0,0.719-0.155,1.387-0.465,2.004c-0.31,0.617-0.736,1.09-1.277,1.418
			c-0.542,0.328-1.156,0.492-1.844,0.492c-1.172,0-2.128-0.431-2.867-1.293c-0.74-0.862-1.109-2.282-1.109-4.262
			c0-2.214,0.409-3.823,1.227-4.828c0.713-0.875,1.674-1.312,2.883-1.312c0.901,0,1.639,0.253,2.215,0.758
			C193.952,6.723,194.297,7.421,194.412,8.312z M188.67,13.249c0,0.484,0.103,0.948,0.309,1.391c0.206,0.442,0.493,0.78,0.863,1.012
			c0.37,0.231,0.758,0.348,1.164,0.348c0.594,0,1.104-0.239,1.531-0.719c0.427-0.479,0.641-1.13,0.641-1.953
			c0-0.792-0.211-1.415-0.633-1.871s-0.953-0.684-1.594-0.684c-0.636,0-1.175,0.228-1.617,0.684
			C188.891,11.912,188.67,12.51,188.67,13.249z"/>
		<path fill="#D2D2D2" d="M198.178,10.749c-0.583-0.214-1.016-0.519-1.297-0.914s-0.422-0.87-0.422-1.422
			c0-0.833,0.299-1.534,0.898-2.102c0.599-0.567,1.396-0.852,2.391-0.852c1,0,1.805,0.29,2.414,0.871s0.914,1.288,0.914,2.121
			c0,0.531-0.14,0.993-0.418,1.387c-0.279,0.394-0.702,0.696-1.27,0.91c0.703,0.229,1.238,0.599,1.605,1.109s0.551,1.12,0.551,1.828
			c0,0.979-0.347,1.802-1.039,2.469c-0.693,0.667-1.604,1-2.734,1c-1.13,0-2.042-0.335-2.734-1.004
			c-0.693-0.669-1.039-1.504-1.039-2.504c0-0.745,0.188-1.368,0.566-1.871C196.942,11.273,197.479,10.932,198.178,10.749z
			 M197.443,13.655c0,0.401,0.095,0.789,0.285,1.164c0.19,0.375,0.473,0.665,0.848,0.871s0.778,0.309,1.211,0.309
			c0.672,0,1.227-0.216,1.664-0.648s0.656-0.981,0.656-1.648c0-0.677-0.226-1.237-0.676-1.68c-0.451-0.442-1.015-0.664-1.691-0.664
			c-0.662,0-1.21,0.219-1.645,0.656C197.661,12.452,197.443,12.999,197.443,13.655z M197.896,8.366c0,0.542,0.174,0.984,0.523,1.328
			c0.349,0.344,0.802,0.516,1.359,0.516c0.542,0,0.985-0.171,1.332-0.512c0.346-0.341,0.52-0.759,0.52-1.254
			c0-0.516-0.179-0.949-0.535-1.301c-0.357-0.352-0.801-0.527-1.332-0.527c-0.537,0-0.982,0.172-1.336,0.516
			C198.073,7.476,197.896,7.887,197.896,8.366z"/>
		<path fill="#D2D2D2" d="M205.178,8.257c0-0.817,0.205-1.513,0.617-2.086c0.411-0.573,1.008-0.859,1.789-0.859
			c0.719,0,1.313,0.257,1.785,0.77c0.471,0.513,0.707,1.267,0.707,2.262c0,0.969-0.238,1.715-0.715,2.238s-1.064,0.785-1.762,0.785
			c-0.693,0-1.27-0.258-1.73-0.773S205.178,9.299,205.178,8.257z M207.623,6.28c-0.35,0-0.64,0.151-0.871,0.453
			c-0.232,0.302-0.348,0.856-0.348,1.664c0,0.734,0.117,1.251,0.352,1.551s0.523,0.449,0.867,0.449c0.354,0,0.646-0.151,0.879-0.453
			c0.231-0.302,0.348-0.854,0.348-1.656c0-0.739-0.117-1.259-0.352-1.559S207.972,6.28,207.623,6.28z M207.631,17.382l6.266-12.07
			h1.141l-6.242,12.07H207.631z M212.584,14.272c0-0.823,0.205-1.52,0.617-2.09c0.411-0.57,1.01-0.855,1.797-0.855
			c0.719,0,1.313,0.257,1.785,0.77c0.471,0.513,0.707,1.267,0.707,2.262c0,0.969-0.238,1.715-0.715,2.238s-1.066,0.785-1.77,0.785
			c-0.693,0-1.27-0.259-1.73-0.777S212.584,15.309,212.584,14.272z M215.037,12.296c-0.354,0-0.647,0.151-0.879,0.453
			c-0.232,0.302-0.348,0.856-0.348,1.664c0,0.729,0.117,1.245,0.352,1.547s0.523,0.453,0.867,0.453c0.359,0,0.654-0.151,0.887-0.453
			c0.231-0.302,0.348-0.854,0.348-1.656c0-0.739-0.117-1.259-0.352-1.559S215.386,12.296,215.037,12.296z"/>
	</g>
	<g>
		<g>
			<line fill="none" stroke="#D2D2D2" stroke-width="2" x1="230.261" y1="-7" x2="285.96" y2="-7"/>
			<g>
				<polygon fill="#D2D2D2" points="294.433,-7 282.493,-2.122 285.326,-7 282.493,-11.877 				"/>
			</g>
		</g>
	</g>
	<g>
		<g>
			<line fill="none" stroke="#D2D2D2" stroke-width="2" x1="119.017" y1="-7" x2="175.03" y2="-7"/>
			<g>
				<polygon fill="#D2D2D2" points="110.544,-7 122.483,-2.122 119.65,-7 122.483,-11.877 				"/>
			</g>
		</g>
	</g>
	<g enable-background="new    ">
		<path fill="#D2D2D2" d="M180.654-21.188l1.352-0.125c0.114,0.636,0.333,1.097,0.656,1.383c0.323,0.286,0.737,0.43,1.242,0.43
			c0.432,0,0.811-0.099,1.137-0.297c0.325-0.198,0.592-0.462,0.801-0.793c0.208-0.331,0.383-0.777,0.523-1.34
			s0.211-1.136,0.211-1.719c0-0.062-0.003-0.156-0.008-0.281c-0.281,0.448-0.666,0.812-1.152,1.09
			c-0.487,0.278-1.015,0.418-1.582,0.418c-0.948,0-1.75-0.344-2.406-1.031s-0.984-1.594-0.984-2.719
			c0-1.161,0.342-2.097,1.027-2.805c0.685-0.708,1.543-1.062,2.574-1.062c0.745,0,1.426,0.2,2.043,0.602s1.086,0.973,1.406,1.715
			s0.48,1.816,0.48,3.223c0,1.464-0.159,2.629-0.477,3.496c-0.318,0.867-0.791,1.527-1.418,1.98c-0.628,0.453-1.363,0.68-2.207,0.68
			c-0.896,0-1.628-0.249-2.195-0.746C181.11-19.588,180.769-20.287,180.654-21.188z M186.412-26.243
			c0-0.808-0.215-1.448-0.645-1.922s-0.947-0.711-1.551-0.711c-0.625,0-1.169,0.255-1.633,0.766
			c-0.464,0.511-0.695,1.172-0.695,1.984c0,0.729,0.22,1.321,0.66,1.777c0.44,0.456,0.983,0.684,1.629,0.684
			c0.651,0,1.186-0.228,1.605-0.684C186.202-24.805,186.412-25.436,186.412-26.243z"/>
		<path fill="#D2D2D2" d="M189.553-21.188l1.352-0.125c0.114,0.636,0.333,1.097,0.656,1.383c0.323,0.286,0.737,0.43,1.242,0.43
			c0.432,0,0.811-0.099,1.137-0.297c0.325-0.198,0.592-0.462,0.801-0.793c0.208-0.331,0.383-0.777,0.523-1.34
			s0.211-1.136,0.211-1.719c0-0.062-0.003-0.156-0.008-0.281c-0.281,0.448-0.666,0.812-1.152,1.09
			c-0.487,0.278-1.015,0.418-1.582,0.418c-0.948,0-1.75-0.344-2.406-1.031s-0.984-1.594-0.984-2.719
			c0-1.161,0.342-2.097,1.027-2.805c0.685-0.708,1.543-1.062,2.574-1.062c0.745,0,1.426,0.2,2.043,0.602s1.086,0.973,1.406,1.715
			s0.48,1.816,0.48,3.223c0,1.464-0.159,2.629-0.477,3.496c-0.318,0.867-0.791,1.527-1.418,1.98c-0.628,0.453-1.363,0.68-2.207,0.68
			c-0.896,0-1.628-0.249-2.195-0.746C190.008-19.588,189.667-20.287,189.553-21.188z M195.311-26.243
			c0-0.808-0.215-1.448-0.645-1.922s-0.947-0.711-1.551-0.711c-0.625,0-1.169,0.255-1.633,0.766
			c-0.464,0.511-0.695,1.172-0.695,1.984c0,0.729,0.22,1.321,0.66,1.777c0.44,0.456,0.983,0.684,1.629,0.684
			c0.651,0,1.186-0.228,1.605-0.684C195.101-24.805,195.311-25.436,195.311-26.243z"/>
		<path fill="#D2D2D2" d="M199.029-18.54v-1.602h1.602v1.602H199.029z"/>
		<path fill="#D2D2D2" d="M202.779-28.493v-1.352h7.414v1.094c-0.729,0.776-1.452,1.808-2.168,3.094
			c-0.717,1.286-1.27,2.609-1.66,3.969c-0.281,0.958-0.461,2.008-0.539,3.148h-1.445c0.016-0.901,0.192-1.989,0.531-3.266
			c0.338-1.276,0.824-2.507,1.457-3.691s1.306-2.184,2.02-2.996H202.779z"/>
		<path fill="#D2D2D2" d="M211.85-27.243c0-0.817,0.205-1.513,0.617-2.086c0.411-0.573,1.008-0.859,1.789-0.859
			c0.719,0,1.313,0.257,1.785,0.77c0.471,0.513,0.707,1.267,0.707,2.262c0,0.969-0.238,1.715-0.715,2.238s-1.064,0.785-1.762,0.785
			c-0.693,0-1.27-0.258-1.73-0.773S211.85-26.201,211.85-27.243z M214.295-29.22c-0.35,0-0.64,0.151-0.871,0.453
			c-0.232,0.302-0.348,0.856-0.348,1.664c0,0.734,0.117,1.251,0.352,1.551s0.523,0.449,0.867,0.449c0.354,0,0.646-0.151,0.879-0.453
			c0.231-0.302,0.348-0.854,0.348-1.656c0-0.739-0.117-1.259-0.352-1.559S214.644-29.22,214.295-29.22z M214.303-18.118l6.266-12.07
			h1.141l-6.242,12.07H214.303z M219.256-21.228c0-0.823,0.205-1.52,0.617-2.09c0.411-0.57,1.01-0.855,1.797-0.855
			c0.719,0,1.313,0.257,1.785,0.77c0.471,0.513,0.707,1.267,0.707,2.262c0,0.969-0.238,1.715-0.715,2.238s-1.066,0.785-1.77,0.785
			c-0.693,0-1.27-0.259-1.73-0.777S219.256-20.191,219.256-21.228z M221.709-23.204c-0.354,0-0.647,0.151-0.879,0.453
			c-0.232,0.302-0.348,0.856-0.348,1.664c0,0.729,0.117,1.245,0.352,1.547s0.523,0.453,0.867,0.453c0.359,0,0.654-0.151,0.887-0.453
			c0.231-0.302,0.348-0.854,0.348-1.656c0-0.739-0.117-1.259-0.352-1.559S222.058-23.204,221.709-23.204z"/>
	</g>
	<g>
		<g>
			<line fill="none" stroke="#D2D2D2" stroke-width="2" x1="235.973" y1="-24.25" x2="332.5" y2="-24.25"/>
			<g>
				<polygon fill="#D2D2D2" points="340.973,-24.25 329.033,-19.372 331.866,-24.25 329.033,-29.127 				"/>
			</g>
		</g>
	</g>
	<g>
		<g>
			<line fill="none" stroke="#D2D2D2" stroke-width="2" x1="73.041" y1="-24.25" x2="169.568" y2="-24.25"/>
			<g>
				<polygon fill="#D2D2D2" points="64.568,-24.25 76.507,-19.372 73.674,-24.25 76.507,-29.127 				"/>
			</g>
		</g>
	</g>
	<g>
		<g>
			<line fill="none" stroke="#D2D2D2" stroke-width="2" x1="223.473" y1="13.5" x2="240" y2="13.5"/>
			<g>
				<polygon fill="#D2D2D2" points="248.473,13.5 236.533,18.378 239.366,13.5 236.533,8.623 				"/>
			</g>
		</g>
	</g>
	<g>
		<g>
			<line fill="none" stroke="#D2D2D2" stroke-width="2" x1="164.993" y1="13.5" x2="181.52" y2="13.5"/>
			<g>
				<polygon fill="#D2D2D2" points="156.52,13.5 168.459,18.378 165.626,13.5 168.459,8.623 				"/>
			</g>
		</g>
	</g>
	<g>
	</g>
</g>
</svg>
