<?xml version="1.0" encoding="utf-8" standalone="no"?>
<!DOCTYPE svg PUBLIC "-//W3C//DTD SVG 1.1//EN"
  "http://www.w3.org/Graphics/SVG/1.1/DTD/svg11.dtd">
<!-- Created with matplotlib (http://matplotlib.org/) -->
<svg height="288pt" version="1.1" viewBox="0 0 432 288" width="432pt" xmlns="http://www.w3.org/2000/svg" xmlns:xlink="http://www.w3.org/1999/xlink">
 <defs>
  <style type="text/css">
*{stroke-linecap:butt;stroke-linejoin:round;}
  </style>
 </defs>
 <g id="figure_1">
  <g id="patch_1">
   <path d="M 0 288 
L 432 288 
L 432 0 
L 0 0 
z
" style="fill:none;"/>
  </g>
  <g id="axes_1">
   <g id="patch_2">
    <path d="M 43.2 244.8 
L 397.44 244.8 
L 397.44 28.8 
L 43.2 28.8 
z
" style="fill:none;"/>
   </g>
   <g id="patch_3">
    <path clip-path="url(#pc81a0f148b)" d="M 50.308495 244.8 
L 52.985334 244.8 
L 52.985334 244.715966 
L 50.308495 244.715966 
z
" style="fill:#5bc0de;"/>
   </g>
   <g id="patch_4">
    <path clip-path="url(#pc81a0f148b)" d="M 52.985334 244.8 
L 55.662173 244.8 
L 55.662173 244.295798 
L 52.985334 244.295798 
z
" style="fill:#5bc0de;"/>
   </g>
   <g id="patch_5">
    <path clip-path="url(#pc81a0f148b)" d="M 55.662173 244.8 
L 58.339012 244.8 
L 58.339012 244.8 
L 55.662173 244.8 
z
" style="fill:#5bc0de;"/>
   </g>
   <g id="patch_6">
    <path clip-path="url(#pc81a0f148b)" d="M 58.339012 244.8 
L 61.015851 244.8 
L 61.015851 240.934454 
L 58.339012 240.934454 
z
" style="fill:#5bc0de;"/>
   </g>
   <g id="patch_7">
    <path clip-path="url(#pc81a0f148b)" d="M 61.015851 244.8 
L 63.692691 244.8 
L 63.692691 244.8 
L 61.015851 244.8 
z
" style="fill:#5bc0de;"/>
   </g>
   <g id="patch_8">
    <path clip-path="url(#pc81a0f148b)" d="M 63.692691 244.8 
L 66.36953 244.8 
L 66.36953 223.035294 
L 63.692691 223.035294 
z
" style="fill:#5bc0de;"/>
   </g>
   <g id="patch_9">
    <path clip-path="url(#pc81a0f148b)" d="M 66.36953 244.8 
L 69.046369 244.8 
L 69.046369 244.8 
L 66.36953 244.8 
z
" style="fill:#5bc0de;"/>
   </g>
   <g id="patch_10">
    <path clip-path="url(#pc81a0f148b)" d="M 69.046369 244.8 
L 71.723208 244.8 
L 71.723208 244.8 
L 69.046369 244.8 
z
" style="fill:#5bc0de;"/>
   </g>
   <g id="patch_11">
    <path clip-path="url(#pc81a0f148b)" d="M 71.723208 244.8 
L 74.400047 244.8 
L 74.400047 182.531092 
L 71.723208 182.531092 
z
" style="fill:#5bc0de;"/>
   </g>
   <g id="patch_12">
    <path clip-path="url(#pc81a0f148b)" d="M 74.400047 244.8 
L 77.076886 244.8 
L 77.076886 244.8 
L 74.400047 244.8 
z
" style="fill:#5bc0de;"/>
   </g>
   <g id="patch_13">
    <path clip-path="url(#pc81a0f148b)" d="M 77.076886 244.8 
L 79.753725 244.8 
L 79.753725 244.8 
L 77.076886 244.8 
z
" style="fill:#5bc0de;"/>
   </g>
   <g id="patch_14">
    <path clip-path="url(#pc81a0f148b)" d="M 79.753725 244.8 
L 82.430564 244.8 
L 82.430564 244.8 
L 79.753725 244.8 
z
" style="fill:#5bc0de;"/>
   </g>
   <g id="patch_15">
    <path clip-path="url(#pc81a0f148b)" d="M 82.430564 244.8 
L 85.107403 244.8 
L 85.107403 100.094118 
L 82.430564 100.094118 
z
" style="fill:#5bc0de;"/>
   </g>
   <g id="patch_16">
    <path clip-path="url(#pc81a0f148b)" d="M 85.107403 244.8 
L 87.784243 244.8 
L 87.784243 244.8 
L 85.107403 244.8 
z
" style="fill:#5bc0de;"/>
   </g>
   <g id="patch_17">
    <path clip-path="url(#pc81a0f148b)" d="M 87.784243 244.8 
L 90.461082 244.8 
L 90.461082 244.8 
L 87.784243 244.8 
z
" style="fill:#5bc0de;"/>
   </g>
   <g id="patch_18">
    <path clip-path="url(#pc81a0f148b)" d="M 90.461082 244.8 
L 93.137921 244.8 
L 93.137921 244.8 
L 90.461082 244.8 
z
" style="fill:#5bc0de;"/>
   </g>
   <g id="patch_19">
    <path clip-path="url(#pc81a0f148b)" d="M 93.137921 244.8 
L 95.81476 244.8 
L 95.81476 244.8 
L 93.137921 244.8 
z
" style="fill:#5bc0de;"/>
   </g>
   <g id="patch_20">
    <path clip-path="url(#pc81a0f148b)" d="M 95.81476 244.8 
L 98.491599 244.8 
L 98.491599 39.085714 
L 95.81476 39.085714 
z
" style="fill:#5bc0de;"/>
   </g>
   <g id="patch_21">
    <path clip-path="url(#pc81a0f148b)" d="M 98.491599 244.8 
L 101.168438 244.8 
L 101.168438 244.8 
L 98.491599 244.8 
z
" style="fill:#5bc0de;"/>
   </g>
   <g id="patch_22">
    <path clip-path="url(#pc81a0f148b)" d="M 101.168438 244.8 
L 103.845277 244.8 
L 103.845277 244.8 
L 101.168438 244.8 
z
" style="fill:#5bc0de;"/>
   </g>
   <g id="patch_23">
    <path clip-path="url(#pc81a0f148b)" d="M 103.845277 244.8 
L 106.522116 244.8 
L 106.522116 244.8 
L 103.845277 244.8 
z
" style="fill:#5bc0de;"/>
   </g>
   <g id="patch_24">
    <path clip-path="url(#pc81a0f148b)" d="M 106.522116 244.8 
L 109.198956 244.8 
L 109.198956 244.8 
L 106.522116 244.8 
z
" style="fill:#5bc0de;"/>
   </g>
   <g id="patch_25">
    <path clip-path="url(#pc81a0f148b)" d="M 109.198956 244.8 
L 111.875795 244.8 
L 111.875795 244.8 
L 109.198956 244.8 
z
" style="fill:#5bc0de;"/>
   </g>
   <g id="patch_26">
    <path clip-path="url(#pc81a0f148b)" d="M 111.875795 244.8 
L 114.552634 244.8 
L 114.552634 44.8 
L 111.875795 44.8 
z
" style="fill:#5bc0de;"/>
   </g>
   <g id="patch_27">
    <path clip-path="url(#pc81a0f148b)" d="M 114.552634 244.8 
L 117.229473 244.8 
L 117.229473 244.8 
L 114.552634 244.8 
z
" style="fill:#5bc0de;"/>
   </g>
   <g id="patch_28">
    <path clip-path="url(#pc81a0f148b)" d="M 117.229473 244.8 
L 119.906312 244.8 
L 119.906312 244.8 
L 117.229473 244.8 
z
" style="fill:#5bc0de;"/>
   </g>
   <g id="patch_29">
    <path clip-path="url(#pc81a0f148b)" d="M 119.906312 244.8 
L 122.583151 244.8 
L 122.583151 244.8 
L 119.906312 244.8 
z
" style="fill:#5bc0de;"/>
   </g>
   <g id="patch_30">
    <path clip-path="url(#pc81a0f148b)" d="M 122.583151 244.8 
L 125.25999 244.8 
L 125.25999 244.8 
L 122.583151 244.8 
z
" style="fill:#5bc0de;"/>
   </g>
   <g id="patch_31">
    <path clip-path="url(#pc81a0f148b)" d="M 125.25999 244.8 
L 127.936829 244.8 
L 127.936829 244.8 
L 125.25999 244.8 
z
" style="fill:#5bc0de;"/>
   </g>
   <g id="patch_32">
    <path clip-path="url(#pc81a0f148b)" d="M 127.936829 244.8 
L 130.613668 244.8 
L 130.613668 244.8 
L 127.936829 244.8 
z
" style="fill:#5bc0de;"/>
   </g>
   <g id="patch_33">
    <path clip-path="url(#pc81a0f148b)" d="M 130.613668 244.8 
L 133.290508 244.8 
L 133.290508 244.8 
L 130.613668 244.8 
z
" style="fill:#5bc0de;"/>
   </g>
   <g id="patch_34">
    <path clip-path="url(#pc81a0f148b)" d="M 133.290508 244.8 
L 135.967347 244.8 
L 135.967347 118.74958 
L 133.290508 118.74958 
z
" style="fill:#5bc0de;"/>
   </g>
   <g id="patch_35">
    <path clip-path="url(#pc81a0f148b)" d="M 135.967347 244.8 
L 138.644186 244.8 
L 138.644186 244.8 
L 135.967347 244.8 
z
" style="fill:#5bc0de;"/>
   </g>
   <g id="patch_36">
    <path clip-path="url(#pc81a0f148b)" d="M 138.644186 244.8 
L 141.321025 244.8 
L 141.321025 244.8 
L 138.644186 244.8 
z
" style="fill:#5bc0de;"/>
   </g>
   <g id="patch_37">
    <path clip-path="url(#pc81a0f148b)" d="M 141.321025 244.8 
L 143.997864 244.8 
L 143.997864 244.8 
L 141.321025 244.8 
z
" style="fill:#5bc0de;"/>
   </g>
   <g id="patch_38">
    <path clip-path="url(#pc81a0f148b)" d="M 143.997864 244.8 
L 146.674703 244.8 
L 146.674703 244.8 
L 143.997864 244.8 
z
" style="fill:#5bc0de;"/>
   </g>
   <g id="patch_39">
    <path clip-path="url(#pc81a0f148b)" d="M 146.674703 244.8 
L 149.351542 244.8 
L 149.351542 244.8 
L 146.674703 244.8 
z
" style="fill:#5bc0de;"/>
   </g>
   <g id="patch_40">
    <path clip-path="url(#pc81a0f148b)" d="M 149.351542 244.8 
L 152.028381 244.8 
L 152.028381 244.8 
L 149.351542 244.8 
z
" style="fill:#5bc0de;"/>
   </g>
   <g id="patch_41">
    <path clip-path="url(#pc81a0f148b)" d="M 152.028381 244.8 
L 154.70522 244.8 
L 154.70522 244.8 
L 152.028381 244.8 
z
" style="fill:#5bc0de;"/>
   </g>
   <g id="patch_42">
    <path clip-path="url(#pc81a0f148b)" d="M 154.70522 244.8 
L 157.38206 244.8 
L 157.38206 244.8 
L 154.70522 244.8 
z
" style="fill:#5bc0de;"/>
   </g>
   <g id="patch_43">
    <path clip-path="url(#pc81a0f148b)" d="M 157.38206 244.8 
L 160.058899 244.8 
L 160.058899 244.8 
L 157.38206 244.8 
z
" style="fill:#5bc0de;"/>
   </g>
   <g id="patch_44">
    <path clip-path="url(#pc81a0f148b)" d="M 160.058899 244.8 
L 162.735738 244.8 
L 162.735738 244.8 
L 160.058899 244.8 
z
" style="fill:#5bc0de;"/>
   </g>
   <g id="patch_45">
    <path clip-path="url(#pc81a0f148b)" d="M 162.735738 244.8 
L 165.412577 244.8 
L 165.412577 244.8 
L 162.735738 244.8 
z
" style="fill:#5bc0de;"/>
   </g>
   <g id="patch_46">
    <path clip-path="url(#pc81a0f148b)" d="M 165.412577 244.8 
L 168.089416 244.8 
L 168.089416 244.8 
L 165.412577 244.8 
z
" style="fill:#5bc0de;"/>
   </g>
   <g id="patch_47">
    <path clip-path="url(#pc81a0f148b)" d="M 168.089416 244.8 
L 170.766255 244.8 
L 170.766255 186.816807 
L 168.089416 186.816807 
z
" style="fill:#5bc0de;"/>
   </g>
   <g id="patch_48">
    <path clip-path="url(#pc81a0f148b)" d="M 170.766255 244.8 
L 173.443094 244.8 
L 173.443094 244.8 
L 170.766255 244.8 
z
" style="fill:#5bc0de;"/>
   </g>
   <g id="patch_49">
    <path clip-path="url(#pc81a0f148b)" d="M 173.443094 244.8 
L 176.119933 244.8 
L 176.119933 244.8 
L 173.443094 244.8 
z
" style="fill:#5bc0de;"/>
   </g>
   <g id="patch_50">
    <path clip-path="url(#pc81a0f148b)" d="M 176.119933 244.8 
L 178.796773 244.8 
L 178.796773 244.8 
L 176.119933 244.8 
z
" style="fill:#5bc0de;"/>
   </g>
   <g id="patch_51">
    <path clip-path="url(#pc81a0f148b)" d="M 178.796773 244.8 
L 181.473612 244.8 
L 181.473612 244.8 
L 178.796773 244.8 
z
" style="fill:#5bc0de;"/>
   </g>
   <g id="patch_52">
    <path clip-path="url(#pc81a0f148b)" d="M 181.473612 244.8 
L 184.150451 244.8 
L 184.150451 244.8 
L 181.473612 244.8 
z
" style="fill:#5bc0de;"/>
   </g>
   <g id="patch_53">
    <path clip-path="url(#pc81a0f148b)" d="M 184.150451 244.8 
L 186.82729 244.8 
L 186.82729 244.8 
L 184.150451 244.8 
z
" style="fill:#5bc0de;"/>
   </g>
   <g id="patch_54">
    <path clip-path="url(#pc81a0f148b)" d="M 186.82729 244.8 
L 189.504129 244.8 
L 189.504129 244.8 
L 186.82729 244.8 
z
" style="fill:#5bc0de;"/>
   </g>
   <g id="patch_55">
    <path clip-path="url(#pc81a0f148b)" d="M 189.504129 244.8 
L 192.180968 244.8 
L 192.180968 244.8 
L 189.504129 244.8 
z
" style="fill:#5bc0de;"/>
   </g>
   <g id="patch_56">
    <path clip-path="url(#pc81a0f148b)" d="M 192.180968 244.8 
L 194.857807 244.8 
L 194.857807 244.8 
L 192.180968 244.8 
z
" style="fill:#5bc0de;"/>
   </g>
   <g id="patch_57">
    <path clip-path="url(#pc81a0f148b)" d="M 194.857807 244.8 
L 197.534646 244.8 
L 197.534646 244.8 
L 194.857807 244.8 
z
" style="fill:#5bc0de;"/>
   </g>
   <g id="patch_58">
    <path clip-path="url(#pc81a0f148b)" d="M 197.534646 244.8 
L 200.211485 244.8 
L 200.211485 244.8 
L 197.534646 244.8 
z
" style="fill:#5bc0de;"/>
   </g>
   <g id="patch_59">
    <path clip-path="url(#pc81a0f148b)" d="M 200.211485 244.8 
L 202.888325 244.8 
L 202.888325 244.8 
L 200.211485 244.8 
z
" style="fill:#5bc0de;"/>
   </g>
   <g id="patch_60">
    <path clip-path="url(#pc81a0f148b)" d="M 202.888325 244.8 
L 205.565164 244.8 
L 205.565164 244.8 
L 202.888325 244.8 
z
" style="fill:#5bc0de;"/>
   </g>
   <g id="patch_61">
    <path clip-path="url(#pc81a0f148b)" d="M 205.565164 244.8 
L 208.242003 244.8 
L 208.242003 244.8 
L 205.565164 244.8 
z
" style="fill:#5bc0de;"/>
   </g>
   <g id="patch_62">
    <path clip-path="url(#pc81a0f148b)" d="M 208.242003 244.8 
L 210.918842 244.8 
L 210.918842 244.8 
L 208.242003 244.8 
z
" style="fill:#5bc0de;"/>
   </g>
   <g id="patch_63">
    <path clip-path="url(#pc81a0f148b)" d="M 210.918842 244.8 
L 213.595681 244.8 
L 213.595681 244.8 
L 210.918842 244.8 
z
" style="fill:#5bc0de;"/>
   </g>
   <g id="patch_64">
    <path clip-path="url(#pc81a0f148b)" d="M 213.595681 244.8 
L 216.27252 244.8 
L 216.27252 244.8 
L 213.595681 244.8 
z
" style="fill:#5bc0de;"/>
   </g>
   <g id="patch_65">
    <path clip-path="url(#pc81a0f148b)" d="M 216.27252 244.8 
L 218.949359 244.8 
L 218.949359 244.8 
L 216.27252 244.8 
z
" style="fill:#5bc0de;"/>
   </g>
   <g id="patch_66">
    <path clip-path="url(#pc81a0f148b)" d="M 218.949359 244.8 
L 221.626198 244.8 
L 221.626198 244.8 
L 218.949359 244.8 
z
" style="fill:#5bc0de;"/>
   </g>
   <g id="patch_67">
    <path clip-path="url(#pc81a0f148b)" d="M 221.626198 244.8 
L 224.303037 244.8 
L 224.303037 244.8 
L 221.626198 244.8 
z
" style="fill:#5bc0de;"/>
   </g>
   <g id="patch_68">
    <path clip-path="url(#pc81a0f148b)" d="M 224.303037 244.8 
L 226.979877 244.8 
L 226.979877 244.8 
L 224.303037 244.8 
z
" style="fill:#5bc0de;"/>
   </g>
   <g id="patch_69">
    <path clip-path="url(#pc81a0f148b)" d="M 226.979877 244.8 
L 229.656716 244.8 
L 229.656716 229.842017 
L 226.979877 229.842017 
z
" style="fill:#5bc0de;"/>
   </g>
   <g id="patch_70">
    <path clip-path="url(#pc81a0f148b)" d="M 229.656716 244.8 
L 232.333555 244.8 
L 232.333555 244.8 
L 229.656716 244.8 
z
" style="fill:#5bc0de;"/>
   </g>
   <g id="patch_71">
    <path clip-path="url(#pc81a0f148b)" d="M 232.333555 244.8 
L 235.010394 244.8 
L 235.010394 244.8 
L 232.333555 244.8 
z
" style="fill:#5bc0de;"/>
   </g>
   <g id="patch_72">
    <path clip-path="url(#pc81a0f148b)" d="M 235.010394 244.8 
L 237.687233 244.8 
L 237.687233 244.8 
L 235.010394 244.8 
z
" style="fill:#5bc0de;"/>
   </g>
   <g id="patch_73">
    <path clip-path="url(#pc81a0f148b)" d="M 237.687233 244.8 
L 240.364072 244.8 
L 240.364072 244.8 
L 237.687233 244.8 
z
" style="fill:#5bc0de;"/>
   </g>
   <g id="patch_74">
    <path clip-path="url(#pc81a0f148b)" d="M 240.364072 244.8 
L 243.040911 244.8 
L 243.040911 244.8 
L 240.364072 244.8 
z
" style="fill:#5bc0de;"/>
   </g>
   <g id="patch_75">
    <path clip-path="url(#pc81a0f148b)" d="M 243.040911 244.8 
L 245.71775 244.8 
L 245.71775 244.8 
L 243.040911 244.8 
z
" style="fill:#5bc0de;"/>
   </g>
   <g id="patch_76">
    <path clip-path="url(#pc81a0f148b)" d="M 245.71775 244.8 
L 248.394589 244.8 
L 248.394589 244.8 
L 245.71775 244.8 
z
" style="fill:#5bc0de;"/>
   </g>
   <g id="patch_77">
    <path clip-path="url(#pc81a0f148b)" d="M 248.394589 244.8 
L 251.071429 244.8 
L 251.071429 244.8 
L 248.394589 244.8 
z
" style="fill:#5bc0de;"/>
   </g>
   <g id="patch_78">
    <path clip-path="url(#pc81a0f148b)" d="M 251.071429 244.8 
L 253.748268 244.8 
L 253.748268 244.8 
L 251.071429 244.8 
z
" style="fill:#5bc0de;"/>
   </g>
   <g id="patch_79">
    <path clip-path="url(#pc81a0f148b)" d="M 253.748268 244.8 
L 256.425107 244.8 
L 256.425107 244.8 
L 253.748268 244.8 
z
" style="fill:#5bc0de;"/>
   </g>
   <g id="patch_80">
    <path clip-path="url(#pc81a0f148b)" d="M 256.425107 244.8 
L 259.101946 244.8 
L 259.101946 244.8 
L 256.425107 244.8 
z
" style="fill:#5bc0de;"/>
   </g>
   <g id="patch_81">
    <path clip-path="url(#pc81a0f148b)" d="M 259.101946 244.8 
L 261.778785 244.8 
L 261.778785 244.8 
L 259.101946 244.8 
z
" style="fill:#5bc0de;"/>
   </g>
   <g id="patch_82">
    <path clip-path="url(#pc81a0f148b)" d="M 261.778785 244.8 
L 264.455624 244.8 
L 264.455624 244.8 
L 261.778785 244.8 
z
" style="fill:#5bc0de;"/>
   </g>
   <g id="patch_83">
    <path clip-path="url(#pc81a0f148b)" d="M 264.455624 244.8 
L 267.132463 244.8 
L 267.132463 244.8 
L 264.455624 244.8 
z
" style="fill:#5bc0de;"/>
   </g>
   <g id="patch_84">
    <path clip-path="url(#pc81a0f148b)" d="M 267.132463 244.8 
L 269.809302 244.8 
L 269.809302 244.8 
L 267.132463 244.8 
z
" style="fill:#5bc0de;"/>
   </g>
   <g id="patch_85">
    <path clip-path="url(#pc81a0f148b)" d="M 269.809302 244.8 
L 272.486142 244.8 
L 272.486142 244.8 
L 269.809302 244.8 
z
" style="fill:#5bc0de;"/>
   </g>
   <g id="patch_86">
    <path clip-path="url(#pc81a0f148b)" d="M 272.486142 244.8 
L 275.162981 244.8 
L 275.162981 244.8 
L 272.486142 244.8 
z
" style="fill:#5bc0de;"/>
   </g>
   <g id="patch_87">
    <path clip-path="url(#pc81a0f148b)" d="M 275.162981 244.8 
L 277.83982 244.8 
L 277.83982 244.8 
L 275.162981 244.8 
z
" style="fill:#5bc0de;"/>
   </g>
   <g id="patch_88">
    <path clip-path="url(#pc81a0f148b)" d="M 277.83982 244.8 
L 280.516659 244.8 
L 280.516659 244.8 
L 277.83982 244.8 
z
" style="fill:#5bc0de;"/>
   </g>
   <g id="patch_89">
    <path clip-path="url(#pc81a0f148b)" d="M 280.516659 244.8 
L 283.193498 244.8 
L 283.193498 244.8 
L 280.516659 244.8 
z
" style="fill:#5bc0de;"/>
   </g>
   <g id="patch_90">
    <path clip-path="url(#pc81a0f148b)" d="M 283.193498 244.8 
L 285.870337 244.8 
L 285.870337 244.8 
L 283.193498 244.8 
z
" style="fill:#5bc0de;"/>
   </g>
   <g id="patch_91">
    <path clip-path="url(#pc81a0f148b)" d="M 285.870337 244.8 
L 288.547176 244.8 
L 288.547176 244.8 
L 285.870337 244.8 
z
" style="fill:#5bc0de;"/>
   </g>
   <g id="patch_92">
    <path clip-path="url(#pc81a0f148b)" d="M 288.547176 244.8 
L 291.224015 244.8 
L 291.224015 244.8 
L 288.547176 244.8 
z
" style="fill:#5bc0de;"/>
   </g>
   <g id="patch_93">
    <path clip-path="url(#pc81a0f148b)" d="M 291.224015 244.8 
L 293.900854 244.8 
L 293.900854 244.8 
L 291.224015 244.8 
z
" style="fill:#5bc0de;"/>
   </g>
   <g id="patch_94">
    <path clip-path="url(#pc81a0f148b)" d="M 293.900854 244.8 
L 296.577694 244.8 
L 296.577694 244.8 
L 293.900854 244.8 
z
" style="fill:#5bc0de;"/>
   </g>
   <g id="patch_95">
    <path clip-path="url(#pc81a0f148b)" d="M 296.577694 244.8 
L 299.254533 244.8 
L 299.254533 244.8 
L 296.577694 244.8 
z
" style="fill:#5bc0de;"/>
   </g>
   <g id="patch_96">
    <path clip-path="url(#pc81a0f148b)" d="M 299.254533 244.8 
L 301.931372 244.8 
L 301.931372 244.8 
L 299.254533 244.8 
z
" style="fill:#5bc0de;"/>
   </g>
   <g id="patch_97">
    <path clip-path="url(#pc81a0f148b)" d="M 301.931372 244.8 
L 304.608211 244.8 
L 304.608211 244.8 
L 301.931372 244.8 
z
" style="fill:#5bc0de;"/>
   </g>
   <g id="patch_98">
    <path clip-path="url(#pc81a0f148b)" d="M 304.608211 244.8 
L 307.28505 244.8 
L 307.28505 244.8 
L 304.608211 244.8 
z
" style="fill:#5bc0de;"/>
   </g>
   <g id="patch_99">
    <path clip-path="url(#pc81a0f148b)" d="M 307.28505 244.8 
L 309.961889 244.8 
L 309.961889 244.8 
L 307.28505 244.8 
z
" style="fill:#5bc0de;"/>
   </g>
   <g id="patch_100">
    <path clip-path="url(#pc81a0f148b)" d="M 309.961889 244.8 
L 312.638728 244.8 
L 312.638728 244.8 
L 309.961889 244.8 
z
" style="fill:#5bc0de;"/>
   </g>
   <g id="patch_101">
    <path clip-path="url(#pc81a0f148b)" d="M 312.638728 244.8 
L 315.315567 244.8 
L 315.315567 244.8 
L 312.638728 244.8 
z
" style="fill:#5bc0de;"/>
   </g>
   <g id="patch_102">
    <path clip-path="url(#pc81a0f148b)" d="M 315.315567 244.8 
L 317.992406 244.8 
L 317.992406 244.8 
L 315.315567 244.8 
z
" style="fill:#5bc0de;"/>
   </g>
   <g id="patch_103">
    <path clip-path="url(#pc81a0f148b)" d="M 317.992406 244.8 
L 320.669246 244.8 
L 320.669246 244.8 
L 317.992406 244.8 
z
" style="fill:#5bc0de;"/>
   </g>
   <g id="patch_104">
    <path clip-path="url(#pc81a0f148b)" d="M 320.669246 244.8 
L 323.346085 244.8 
L 323.346085 244.8 
L 320.669246 244.8 
z
" style="fill:#5bc0de;"/>
   </g>
   <g id="patch_105">
    <path clip-path="url(#pc81a0f148b)" d="M 323.346085 244.8 
L 326.022924 244.8 
L 326.022924 244.8 
L 323.346085 244.8 
z
" style="fill:#5bc0de;"/>
   </g>
   <g id="patch_106">
    <path clip-path="url(#pc81a0f148b)" d="M 326.022924 244.8 
L 328.699763 244.8 
L 328.699763 244.8 
L 326.022924 244.8 
z
" style="fill:#5bc0de;"/>
   </g>
   <g id="patch_107">
    <path clip-path="url(#pc81a0f148b)" d="M 328.699763 244.8 
L 331.376602 244.8 
L 331.376602 244.8 
L 328.699763 244.8 
z
" style="fill:#5bc0de;"/>
   </g>
   <g id="patch_108">
    <path clip-path="url(#pc81a0f148b)" d="M 331.376602 244.8 
L 334.053441 244.8 
L 334.053441 244.8 
L 331.376602 244.8 
z
" style="fill:#5bc0de;"/>
   </g>
   <g id="patch_109">
    <path clip-path="url(#pc81a0f148b)" d="M 334.053441 244.8 
L 336.73028 244.8 
L 336.73028 244.8 
L 334.053441 244.8 
z
" style="fill:#5bc0de;"/>
   </g>
   <g id="patch_110">
    <path clip-path="url(#pc81a0f148b)" d="M 336.73028 244.8 
L 339.407119 244.8 
L 339.407119 244.8 
L 336.73028 244.8 
z
" style="fill:#5bc0de;"/>
   </g>
   <g id="patch_111">
    <path clip-path="url(#pc81a0f148b)" d="M 339.407119 244.8 
L 342.083959 244.8 
L 342.083959 244.8 
L 339.407119 244.8 
z
" style="fill:#5bc0de;"/>
   </g>
   <g id="patch_112">
    <path clip-path="url(#pc81a0f148b)" d="M 342.083959 244.8 
L 344.760798 244.8 
L 344.760798 242.615126 
L 342.083959 242.615126 
z
" style="fill:#5bc0de;"/>
   </g>
   <g id="patch_113">
    <path clip-path="url(#pc81a0f148b)" d="M 344.760798 244.8 
L 347.437637 244.8 
L 347.437637 244.8 
L 344.760798 244.8 
z
" style="fill:#5bc0de;"/>
   </g>
   <g id="patch_114">
    <path clip-path="url(#pc81a0f148b)" d="M 347.437637 244.8 
L 350.114476 244.8 
L 350.114476 244.8 
L 347.437637 244.8 
z
" style="fill:#5bc0de;"/>
   </g>
   <g id="patch_115">
    <path clip-path="url(#pc81a0f148b)" d="M 350.114476 244.8 
L 352.791315 244.8 
L 352.791315 244.8 
L 350.114476 244.8 
z
" style="fill:#5bc0de;"/>
   </g>
   <g id="patch_116">
    <path clip-path="url(#pc81a0f148b)" d="M 352.791315 244.8 
L 355.468154 244.8 
L 355.468154 244.8 
L 352.791315 244.8 
z
" style="fill:#5bc0de;"/>
   </g>
   <g id="patch_117">
    <path clip-path="url(#pc81a0f148b)" d="M 355.468154 244.8 
L 358.144993 244.8 
L 358.144993 244.8 
L 355.468154 244.8 
z
" style="fill:#5bc0de;"/>
   </g>
   <g id="patch_118">
    <path clip-path="url(#pc81a0f148b)" d="M 358.144993 244.8 
L 360.821832 244.8 
L 360.821832 244.8 
L 358.144993 244.8 
z
" style="fill:#5bc0de;"/>
   </g>
   <g id="patch_119">
    <path clip-path="url(#pc81a0f148b)" d="M 360.821832 244.8 
L 363.498671 244.8 
L 363.498671 244.8 
L 360.821832 244.8 
z
" style="fill:#5bc0de;"/>
   </g>
   <g id="patch_120">
    <path clip-path="url(#pc81a0f148b)" d="M 363.498671 244.8 
L 366.175511 244.8 
L 366.175511 244.8 
L 363.498671 244.8 
z
" style="fill:#5bc0de;"/>
   </g>
   <g id="patch_121">
    <path clip-path="url(#pc81a0f148b)" d="M 366.175511 244.8 
L 368.85235 244.8 
L 368.85235 244.8 
L 366.175511 244.8 
z
" style="fill:#5bc0de;"/>
   </g>
   <g id="patch_122">
    <path clip-path="url(#pc81a0f148b)" d="M 368.85235 244.8 
L 371.529189 244.8 
L 371.529189 244.8 
L 368.85235 244.8 
z
" style="fill:#5bc0de;"/>
   </g>
   <g id="patch_123">
    <path clip-path="url(#pc81a0f148b)" d="M 371.529189 244.8 
L 374.206028 244.8 
L 374.206028 244.8 
L 371.529189 244.8 
z
" style="fill:#5bc0de;"/>
   </g>
   <g id="patch_124">
    <path clip-path="url(#pc81a0f148b)" d="M 374.206028 244.8 
L 376.882867 244.8 
L 376.882867 244.8 
L 374.206028 244.8 
z
" style="fill:#5bc0de;"/>
   </g>
   <g id="patch_125">
    <path clip-path="url(#pc81a0f148b)" d="M 376.882867 244.8 
L 379.559706 244.8 
L 379.559706 244.8 
L 376.882867 244.8 
z
" style="fill:#5bc0de;"/>
   </g>
   <g id="patch_126">
    <path clip-path="url(#pc81a0f148b)" d="M 379.559706 244.8 
L 382.236545 244.8 
L 382.236545 244.8 
L 379.559706 244.8 
z
" style="fill:#5bc0de;"/>
   </g>
   <g id="patch_127">
    <path clip-path="url(#pc81a0f148b)" d="M 382.236545 244.8 
L 384.913384 244.8 
L 384.913384 244.8 
L 382.236545 244.8 
z
" style="fill:#5bc0de;"/>
   </g>
   <g id="patch_128">
    <path clip-path="url(#pc81a0f148b)" d="M 384.913384 244.8 
L 387.590223 244.8 
L 387.590223 244.8 
L 384.913384 244.8 
z
" style="fill:#5bc0de;"/>
   </g>
   <g id="patch_129">
    <path clip-path="url(#pc81a0f148b)" d="M 387.590223 244.8 
L 390.267063 244.8 
L 390.267063 244.8 
L 387.590223 244.8 
z
" style="fill:#5bc0de;"/>
   </g>
   <g id="patch_130">
    <path clip-path="url(#pc81a0f148b)" d="M 390.267063 244.8 
L 392.943902 244.8 
L 392.943902 244.8 
L 390.267063 244.8 
z
" style="fill:#5bc0de;"/>
   </g>
   <g id="patch_131">
    <path clip-path="url(#pc81a0f148b)" d="M 392.943902 244.8 
L 395.620741 244.8 
L 395.620741 244.8 
L 392.943902 244.8 
z
" style="fill:#5bc0de;"/>
   </g>
   <g id="patch_132">
    <path clip-path="url(#pc81a0f148b)" d="M 395.620741 244.8 
L 398.29758 244.8 
L 398.29758 244.8 
L 395.620741 244.8 
z
" style="fill:#5bc0de;"/>
   </g>
   <g id="patch_133">
    <path clip-path="url(#pc81a0f148b)" d="M 398.29758 244.8 
L 400.974419 244.8 
L 400.974419 244.8 
L 398.29758 244.8 
z
" style="fill:#5bc0de;"/>
   </g>
   <g id="patch_134">
    <path clip-path="url(#pc81a0f148b)" d="M 400.974419 244.8 
L 403.651258 244.8 
L 403.651258 244.8 
L 400.974419 244.8 
z
" style="fill:#5bc0de;"/>
   </g>
   <g id="patch_135">
    <path clip-path="url(#pc81a0f148b)" d="M 403.651258 244.8 
L 406.328097 244.8 
L 406.328097 244.8 
L 403.651258 244.8 
z
" style="fill:#5bc0de;"/>
   </g>
   <g id="patch_136">
    <path clip-path="url(#pc81a0f148b)" d="M 406.328097 244.8 
L 409.004936 244.8 
L 409.004936 244.8 
L 406.328097 244.8 
z
" style="fill:#5bc0de;"/>
   </g>
   <g id="patch_137">
    <path clip-path="url(#pc81a0f148b)" d="M 409.004936 244.8 
L 411.681776 244.8 
L 411.681776 244.8 
L 409.004936 244.8 
z
" style="fill:#5bc0de;"/>
   </g>
   <g id="patch_138">
    <path clip-path="url(#pc81a0f148b)" d="M 411.681776 244.8 
L 414.358615 244.8 
L 414.358615 244.8 
L 411.681776 244.8 
z
" style="fill:#5bc0de;"/>
   </g>
   <g id="patch_139">
    <path clip-path="url(#pc81a0f148b)" d="M 414.358615 244.8 
L 417.035454 244.8 
L 417.035454 244.8 
L 414.358615 244.8 
z
" style="fill:#5bc0de;"/>
   </g>
   <g id="patch_140">
    <path clip-path="url(#pc81a0f148b)" d="M 417.035454 244.8 
L 419.712293 244.8 
L 419.712293 244.8 
L 417.035454 244.8 
z
" style="fill:#5bc0de;"/>
   </g>
   <g id="patch_141">
    <path clip-path="url(#pc81a0f148b)" d="M 419.712293 244.8 
L 422.389132 244.8 
L 422.389132 244.8 
L 419.712293 244.8 
z
" style="fill:#5bc0de;"/>
   </g>
   <g id="patch_142">
    <path clip-path="url(#pc81a0f148b)" d="M 422.389132 244.8 
L 425.065971 244.8 
L 425.065971 244.8 
L 422.389132 244.8 
z
" style="fill:#5bc0de;"/>
   </g>
   <g id="patch_143">
    <path clip-path="url(#pc81a0f148b)" d="M 425.065971 244.8 
L 427.74281 244.8 
L 427.74281 244.8 
L 425.065971 244.8 
z
" style="fill:#5bc0de;"/>
   </g>
   <g id="patch_144">
    <path clip-path="url(#pc81a0f148b)" d="M 427.74281 244.8 
L 430.419649 244.8 
L 430.419649 244.8 
L 427.74281 244.8 
z
" style="fill:#5bc0de;"/>
   </g>
   <g id="patch_145">
    <path clip-path="url(#pc81a0f148b)" d="M 430.419649 244.8 
L 433.096488 244.8 
L 433.096488 244.8 
L 430.419649 244.8 
z
" style="fill:#5bc0de;"/>
   </g>
   <g id="patch_146">
    <path clip-path="url(#pc81a0f148b)" d="M 433.096488 244.8 
L 435.773328 244.8 
L 435.773328 244.8 
L 433.096488 244.8 
z
" style="fill:#5bc0de;"/>
   </g>
   <g id="patch_147">
    <path clip-path="url(#pc81a0f148b)" d="M 435.773328 244.8 
L 438.450167 244.8 
L 438.450167 244.8 
L 435.773328 244.8 
z
" style="fill:#5bc0de;"/>
   </g>
   <g id="patch_148">
    <path clip-path="url(#pc81a0f148b)" d="M 438.450167 244.8 
L 441.127006 244.8 
L 441.127006 244.8 
L 438.450167 244.8 
z
" style="fill:#5bc0de;"/>
   </g>
   <g id="patch_149">
    <path clip-path="url(#pc81a0f148b)" d="M 441.127006 244.8 
L 443.803845 244.8 
L 443.803845 244.8 
L 441.127006 244.8 
z
" style="fill:#5bc0de;"/>
   </g>
   <g id="patch_150">
    <path clip-path="url(#pc81a0f148b)" d="M 443.803845 244.8 
L 446.480684 244.8 
L 446.480684 244.8 
L 443.803845 244.8 
z
" style="fill:#5bc0de;"/>
   </g>
   <g id="patch_151">
    <path clip-path="url(#pc81a0f148b)" d="M 446.480684 244.8 
L 449.157523 244.8 
L 449.157523 244.8 
L 446.480684 244.8 
z
" style="fill:#5bc0de;"/>
   </g>
   <g id="patch_152">
    <path clip-path="url(#pc81a0f148b)" d="M 449.157523 244.8 
L 451.834362 244.8 
L 451.834362 244.8 
L 449.157523 244.8 
z
" style="fill:#5bc0de;"/>
   </g>
   <g id="patch_153">
    <path clip-path="url(#pc81a0f148b)" d="M 451.834362 244.8 
L 454.511201 244.8 
L 454.511201 244.8 
L 451.834362 244.8 
z
" style="fill:#5bc0de;"/>
   </g>
   <g id="patch_154">
    <path clip-path="url(#pc81a0f148b)" d="M 454.511201 244.8 
L 457.18804 244.8 
L 457.18804 244.8 
L 454.511201 244.8 
z
" style="fill:#5bc0de;"/>
   </g>
   <g id="patch_155">
    <path clip-path="url(#pc81a0f148b)" d="M 457.18804 244.8 
L 459.86488 244.8 
L 459.86488 244.8 
L 457.18804 244.8 
z
" style="fill:#5bc0de;"/>
   </g>
   <g id="patch_156">
    <path clip-path="url(#pc81a0f148b)" d="M 459.86488 244.8 
L 462.541719 244.8 
L 462.541719 244.8 
L 459.86488 244.8 
z
" style="fill:#5bc0de;"/>
   </g>
   <g id="patch_157">
    <path clip-path="url(#pc81a0f148b)" d="M 462.541719 244.8 
L 465.218558 244.8 
L 465.218558 244.8 
L 462.541719 244.8 
z
" style="fill:#5bc0de;"/>
   </g>
   <g id="patch_158">
    <path clip-path="url(#pc81a0f148b)" d="M 465.218558 244.8 
L 467.895397 244.8 
L 467.895397 244.8 
L 465.218558 244.8 
z
" style="fill:#5bc0de;"/>
   </g>
   <g id="patch_159">
    <path clip-path="url(#pc81a0f148b)" d="M 467.895397 244.8 
L 470.572236 244.8 
L 470.572236 244.8 
L 467.895397 244.8 
z
" style="fill:#5bc0de;"/>
   </g>
   <g id="patch_160">
    <path clip-path="url(#pc81a0f148b)" d="M 470.572236 244.8 
L 473.249075 244.8 
L 473.249075 244.8 
L 470.572236 244.8 
z
" style="fill:#5bc0de;"/>
   </g>
   <g id="patch_161">
    <path clip-path="url(#pc81a0f148b)" d="M 473.249075 244.8 
L 475.925914 244.8 
L 475.925914 244.8 
L 473.249075 244.8 
z
" style="fill:#5bc0de;"/>
   </g>
   <g id="patch_162">
    <path clip-path="url(#pc81a0f148b)" d="M 475.925914 244.8 
L 478.602753 244.8 
L 478.602753 244.8 
L 475.925914 244.8 
z
" style="fill:#5bc0de;"/>
   </g>
   <g id="patch_163">
    <path clip-path="url(#pc81a0f148b)" d="M 478.602753 244.8 
L 481.279593 244.8 
L 481.279593 244.8 
L 478.602753 244.8 
z
" style="fill:#5bc0de;"/>
   </g>
   <g id="patch_164">
    <path clip-path="url(#pc81a0f148b)" d="M 481.279593 244.8 
L 483.956432 244.8 
L 483.956432 244.8 
L 481.279593 244.8 
z
" style="fill:#5bc0de;"/>
   </g>
   <g id="patch_165">
    <path clip-path="url(#pc81a0f148b)" d="M 483.956432 244.8 
L 486.633271 244.8 
L 486.633271 244.8 
L 483.956432 244.8 
z
" style="fill:#5bc0de;"/>
   </g>
   <g id="patch_166">
    <path clip-path="url(#pc81a0f148b)" d="M 486.633271 244.8 
L 489.31011 244.8 
L 489.31011 244.8 
L 486.633271 244.8 
z
" style="fill:#5bc0de;"/>
   </g>
   <g id="patch_167">
    <path clip-path="url(#pc81a0f148b)" d="M 489.31011 244.8 
L 491.986949 244.8 
L 491.986949 244.8 
L 489.31011 244.8 
z
" style="fill:#5bc0de;"/>
   </g>
   <g id="patch_168">
    <path clip-path="url(#pc81a0f148b)" d="M 491.986949 244.8 
L 494.663788 244.8 
L 494.663788 244.8 
L 491.986949 244.8 
z
" style="fill:#5bc0de;"/>
   </g>
   <g id="patch_169">
    <path clip-path="url(#pc81a0f148b)" d="M 494.663788 244.8 
L 497.340627 244.8 
L 497.340627 244.8 
L 494.663788 244.8 
z
" style="fill:#5bc0de;"/>
   </g>
   <g id="patch_170">
    <path clip-path="url(#pc81a0f148b)" d="M 497.340627 244.8 
L 500.017466 244.8 
L 500.017466 244.8 
L 497.340627 244.8 
z
" style="fill:#5bc0de;"/>
   </g>
   <g id="patch_171">
    <path clip-path="url(#pc81a0f148b)" d="M 500.017466 244.8 
L 502.694305 244.8 
L 502.694305 244.8 
L 500.017466 244.8 
z
" style="fill:#5bc0de;"/>
   </g>
   <g id="patch_172">
    <path clip-path="url(#pc81a0f148b)" d="M 502.694305 244.8 
L 505.371145 244.8 
L 505.371145 244.8 
L 502.694305 244.8 
z
" style="fill:#5bc0de;"/>
   </g>
   <g id="patch_173">
    <path clip-path="url(#pc81a0f148b)" d="M 505.371145 244.8 
L 508.047984 244.8 
L 508.047984 244.8 
L 505.371145 244.8 
z
" style="fill:#5bc0de;"/>
   </g>
   <g id="patch_174">
    <path clip-path="url(#pc81a0f148b)" d="M 508.047984 244.8 
L 510.724823 244.8 
L 510.724823 244.8 
L 508.047984 244.8 
z
" style="fill:#5bc0de;"/>
   </g>
   <g id="patch_175">
    <path clip-path="url(#pc81a0f148b)" d="M 510.724823 244.8 
L 513.401662 244.8 
L 513.401662 244.8 
L 510.724823 244.8 
z
" style="fill:#5bc0de;"/>
   </g>
   <g id="patch_176">
    <path clip-path="url(#pc81a0f148b)" d="M 513.401662 244.8 
L 516.078501 244.8 
L 516.078501 244.8 
L 513.401662 244.8 
z
" style="fill:#5bc0de;"/>
   </g>
   <g id="patch_177">
    <path clip-path="url(#pc81a0f148b)" d="M 516.078501 244.8 
L 518.75534 244.8 
L 518.75534 244.8 
L 516.078501 244.8 
z
" style="fill:#5bc0de;"/>
   </g>
   <g id="patch_178">
    <path clip-path="url(#pc81a0f148b)" d="M 518.75534 244.8 
L 521.432179 244.8 
L 521.432179 244.8 
L 518.75534 244.8 
z
" style="fill:#5bc0de;"/>
   </g>
   <g id="patch_179">
    <path clip-path="url(#pc81a0f148b)" d="M 521.432179 244.8 
L 524.109018 244.8 
L 524.109018 244.8 
L 521.432179 244.8 
z
" style="fill:#5bc0de;"/>
   </g>
   <g id="patch_180">
    <path clip-path="url(#pc81a0f148b)" d="M 524.109018 244.8 
L 526.785857 244.8 
L 526.785857 244.8 
L 524.109018 244.8 
z
" style="fill:#5bc0de;"/>
   </g>
   <g id="patch_181">
    <path clip-path="url(#pc81a0f148b)" d="M 526.785857 244.8 
L 529.462697 244.8 
L 529.462697 244.8 
L 526.785857 244.8 
z
" style="fill:#5bc0de;"/>
   </g>
   <g id="patch_182">
    <path clip-path="url(#pc81a0f148b)" d="M 529.462697 244.8 
L 532.139536 244.8 
L 532.139536 244.8 
L 529.462697 244.8 
z
" style="fill:#5bc0de;"/>
   </g>
   <g id="patch_183">
    <path clip-path="url(#pc81a0f148b)" d="M 532.139536 244.8 
L 534.816375 244.8 
L 534.816375 244.8 
L 532.139536 244.8 
z
" style="fill:#5bc0de;"/>
   </g>
   <g id="patch_184">
    <path clip-path="url(#pc81a0f148b)" d="M 534.816375 244.8 
L 537.493214 244.8 
L 537.493214 244.8 
L 534.816375 244.8 
z
" style="fill:#5bc0de;"/>
   </g>
   <g id="patch_185">
    <path clip-path="url(#pc81a0f148b)" d="M 537.493214 244.8 
L 540.170053 244.8 
L 540.170053 244.8 
L 537.493214 244.8 
z
" style="fill:#5bc0de;"/>
   </g>
   <g id="patch_186">
    <path clip-path="url(#pc81a0f148b)" d="M 540.170053 244.8 
L 542.846892 244.8 
L 542.846892 244.8 
L 540.170053 244.8 
z
" style="fill:#5bc0de;"/>
   </g>
   <g id="patch_187">
    <path clip-path="url(#pc81a0f148b)" d="M 542.846892 244.8 
L 545.523731 244.8 
L 545.523731 244.8 
L 542.846892 244.8 
z
" style="fill:#5bc0de;"/>
   </g>
   <g id="patch_188">
    <path clip-path="url(#pc81a0f148b)" d="M 545.523731 244.8 
L 548.20057 244.8 
L 548.20057 244.8 
L 545.523731 244.8 
z
" style="fill:#5bc0de;"/>
   </g>
   <g id="patch_189">
    <path clip-path="url(#pc81a0f148b)" d="M 548.20057 244.8 
L 550.877409 244.8 
L 550.877409 244.8 
L 548.20057 244.8 
z
" style="fill:#5bc0de;"/>
   </g>
   <g id="patch_190">
    <path clip-path="url(#pc81a0f148b)" d="M 550.877409 244.8 
L 553.554249 244.8 
L 553.554249 244.8 
L 550.877409 244.8 
z
" style="fill:#5bc0de;"/>
   </g>
   <g id="patch_191">
    <path clip-path="url(#pc81a0f148b)" d="M 553.554249 244.8 
L 556.231088 244.8 
L 556.231088 244.8 
L 553.554249 244.8 
z
" style="fill:#5bc0de;"/>
   </g>
   <g id="patch_192">
    <path clip-path="url(#pc81a0f148b)" d="M 556.231088 244.8 
L 558.907927 244.8 
L 558.907927 244.8 
L 556.231088 244.8 
z
" style="fill:#5bc0de;"/>
   </g>
   <g id="patch_193">
    <path clip-path="url(#pc81a0f148b)" d="M 558.907927 244.8 
L 561.584766 244.8 
L 561.584766 244.8 
L 558.907927 244.8 
z
" style="fill:#5bc0de;"/>
   </g>
   <g id="patch_194">
    <path clip-path="url(#pc81a0f148b)" d="M 561.584766 244.8 
L 564.261605 244.8 
L 564.261605 244.8 
L 561.584766 244.8 
z
" style="fill:#5bc0de;"/>
   </g>
   <g id="patch_195">
    <path clip-path="url(#pc81a0f148b)" d="M 564.261605 244.8 
L 566.938444 244.8 
L 566.938444 244.8 
L 564.261605 244.8 
z
" style="fill:#5bc0de;"/>
   </g>
   <g id="patch_196">
    <path clip-path="url(#pc81a0f148b)" d="M 566.938444 244.8 
L 569.615283 244.8 
L 569.615283 244.8 
L 566.938444 244.8 
z
" style="fill:#5bc0de;"/>
   </g>
   <g id="patch_197">
    <path clip-path="url(#pc81a0f148b)" d="M 569.615283 244.8 
L 572.292122 244.8 
L 572.292122 244.8 
L 569.615283 244.8 
z
" style="fill:#5bc0de;"/>
   </g>
   <g id="patch_198">
    <path clip-path="url(#pc81a0f148b)" d="M 572.292122 244.8 
L 574.968962 244.8 
L 574.968962 244.8 
L 572.292122 244.8 
z
" style="fill:#5bc0de;"/>
   </g>
   <g id="patch_199">
    <path clip-path="url(#pc81a0f148b)" d="M 574.968962 244.8 
L 577.645801 244.8 
L 577.645801 244.8 
L 574.968962 244.8 
z
" style="fill:#5bc0de;"/>
   </g>
   <g id="patch_200">
    <path clip-path="url(#pc81a0f148b)" d="M 577.645801 244.8 
L 580.32264 244.8 
L 580.32264 244.8 
L 577.645801 244.8 
z
" style="fill:#5bc0de;"/>
   </g>
   <g id="patch_201">
    <path clip-path="url(#pc81a0f148b)" d="M 580.32264 244.8 
L 582.999479 244.8 
L 582.999479 244.8 
L 580.32264 244.8 
z
" style="fill:#5bc0de;"/>
   </g>
   <g id="patch_202">
    <path clip-path="url(#pc81a0f148b)" d="M 582.999479 244.8 
L 585.676318 244.8 
L 585.676318 244.8 
L 582.999479 244.8 
z
" style="fill:#5bc0de;"/>
   </g>
   <g id="patch_203">
    <path clip-path="url(#pc81a0f148b)" d="M 585.676318 244.8 
L 588.353157 244.8 
L 588.353157 244.8 
L 585.676318 244.8 
z
" style="fill:#5bc0de;"/>
   </g>
   <g id="patch_204">
    <path clip-path="url(#pc81a0f148b)" d="M 588.353157 244.8 
L 591.029996 244.8 
L 591.029996 244.8 
L 588.353157 244.8 
z
" style="fill:#5bc0de;"/>
   </g>
   <g id="patch_205">
    <path clip-path="url(#pc81a0f148b)" d="M 591.029996 244.8 
L 593.706835 244.8 
L 593.706835 244.8 
L 591.029996 244.8 
z
" style="fill:#5bc0de;"/>
   </g>
   <g id="patch_206">
    <path clip-path="url(#pc81a0f148b)" d="M 593.706835 244.8 
L 596.383674 244.8 
L 596.383674 244.8 
L 593.706835 244.8 
z
" style="fill:#5bc0de;"/>
   </g>
   <g id="patch_207">
    <path clip-path="url(#pc81a0f148b)" d="M 596.383674 244.8 
L 599.060514 244.8 
L 599.060514 244.8 
L 596.383674 244.8 
z
" style="fill:#5bc0de;"/>
   </g>
   <g id="patch_208">
    <path clip-path="url(#pc81a0f148b)" d="M 599.060514 244.8 
L 601.737353 244.8 
L 601.737353 244.8 
L 599.060514 244.8 
z
" style="fill:#5bc0de;"/>
   </g>
   <g id="patch_209">
    <path clip-path="url(#pc81a0f148b)" d="M 601.737353 244.8 
L 604.414192 244.8 
L 604.414192 244.8 
L 601.737353 244.8 
z
" style="fill:#5bc0de;"/>
   </g>
   <g id="patch_210">
    <path clip-path="url(#pc81a0f148b)" d="M 604.414192 244.8 
L 607.091031 244.8 
L 607.091031 244.8 
L 604.414192 244.8 
z
" style="fill:#5bc0de;"/>
   </g>
   <g id="patch_211">
    <path clip-path="url(#pc81a0f148b)" d="M 607.091031 244.8 
L 609.76787 244.8 
L 609.76787 244.8 
L 607.091031 244.8 
z
" style="fill:#5bc0de;"/>
   </g>
   <g id="patch_212">
    <path clip-path="url(#pc81a0f148b)" d="M 609.76787 244.8 
L 612.444709 244.8 
L 612.444709 244.8 
L 609.76787 244.8 
z
" style="fill:#5bc0de;"/>
   </g>
   <g id="patch_213">
    <path clip-path="url(#pc81a0f148b)" d="M 612.444709 244.8 
L 615.121548 244.8 
L 615.121548 244.8 
L 612.444709 244.8 
z
" style="fill:#5bc0de;"/>
   </g>
   <g id="patch_214">
    <path clip-path="url(#pc81a0f148b)" d="M 615.121548 244.8 
L 617.798387 244.8 
L 617.798387 244.8 
L 615.121548 244.8 
z
" style="fill:#5bc0de;"/>
   </g>
   <g id="patch_215">
    <path clip-path="url(#pc81a0f148b)" d="M 617.798387 244.8 
L 620.475226 244.8 
L 620.475226 244.8 
L 617.798387 244.8 
z
" style="fill:#5bc0de;"/>
   </g>
   <g id="patch_216">
    <path clip-path="url(#pc81a0f148b)" d="M 620.475226 244.8 
L 623.152066 244.8 
L 623.152066 244.8 
L 620.475226 244.8 
z
" style="fill:#5bc0de;"/>
   </g>
   <g id="patch_217">
    <path clip-path="url(#pc81a0f148b)" d="M 623.152066 244.8 
L 625.828905 244.8 
L 625.828905 244.8 
L 623.152066 244.8 
z
" style="fill:#5bc0de;"/>
   </g>
   <g id="patch_218">
    <path clip-path="url(#pc81a0f148b)" d="M 625.828905 244.8 
L 628.505744 244.8 
L 628.505744 244.8 
L 625.828905 244.8 
z
" style="fill:#5bc0de;"/>
   </g>
   <g id="patch_219">
    <path clip-path="url(#pc81a0f148b)" d="M 628.505744 244.8 
L 631.182583 244.8 
L 631.182583 244.8 
L 628.505744 244.8 
z
" style="fill:#5bc0de;"/>
   </g>
   <g id="patch_220">
    <path clip-path="url(#pc81a0f148b)" d="M 631.182583 244.8 
L 633.859422 244.8 
L 633.859422 244.8 
L 631.182583 244.8 
z
" style="fill:#5bc0de;"/>
   </g>
   <g id="patch_221">
    <path clip-path="url(#pc81a0f148b)" d="M 633.859422 244.8 
L 636.536261 244.8 
L 636.536261 244.8 
L 633.859422 244.8 
z
" style="fill:#5bc0de;"/>
   </g>
   <g id="patch_222">
    <path clip-path="url(#pc81a0f148b)" d="M 636.536261 244.8 
L 639.2131 244.8 
L 639.2131 244.8 
L 636.536261 244.8 
z
" style="fill:#5bc0de;"/>
   </g>
   <g id="patch_223">
    <path clip-path="url(#pc81a0f148b)" d="M 639.2131 244.8 
L 641.889939 244.8 
L 641.889939 244.8 
L 639.2131 244.8 
z
" style="fill:#5bc0de;"/>
   </g>
   <g id="patch_224">
    <path clip-path="url(#pc81a0f148b)" d="M 641.889939 244.8 
L 644.566779 244.8 
L 644.566779 244.8 
L 641.889939 244.8 
z
" style="fill:#5bc0de;"/>
   </g>
   <g id="patch_225">
    <path clip-path="url(#pc81a0f148b)" d="M 644.566779 244.8 
L 647.243618 244.8 
L 647.243618 244.8 
L 644.566779 244.8 
z
" style="fill:#5bc0de;"/>
   </g>
   <g id="patch_226">
    <path clip-path="url(#pc81a0f148b)" d="M 647.243618 244.8 
L 649.920457 244.8 
L 649.920457 244.8 
L 647.243618 244.8 
z
" style="fill:#5bc0de;"/>
   </g>
   <g id="patch_227">
    <path clip-path="url(#pc81a0f148b)" d="M 649.920457 244.8 
L 652.597296 244.8 
L 652.597296 244.8 
L 649.920457 244.8 
z
" style="fill:#5bc0de;"/>
   </g>
   <g id="patch_228">
    <path clip-path="url(#pc81a0f148b)" d="M 652.597296 244.8 
L 655.274135 244.8 
L 655.274135 244.8 
L 652.597296 244.8 
z
" style="fill:#5bc0de;"/>
   </g>
   <g id="patch_229">
    <path clip-path="url(#pc81a0f148b)" d="M 655.274135 244.8 
L 657.950974 244.8 
L 657.950974 244.8 
L 655.274135 244.8 
z
" style="fill:#5bc0de;"/>
   </g>
   <g id="patch_230">
    <path clip-path="url(#pc81a0f148b)" d="M 657.950974 244.8 
L 660.627813 244.8 
L 660.627813 244.8 
L 657.950974 244.8 
z
" style="fill:#5bc0de;"/>
   </g>
   <g id="patch_231">
    <path clip-path="url(#pc81a0f148b)" d="M 660.627813 244.8 
L 663.304652 244.8 
L 663.304652 244.8 
L 660.627813 244.8 
z
" style="fill:#5bc0de;"/>
   </g>
   <g id="patch_232">
    <path clip-path="url(#pc81a0f148b)" d="M 663.304652 244.8 
L 665.981491 244.8 
L 665.981491 244.8 
L 663.304652 244.8 
z
" style="fill:#5bc0de;"/>
   </g>
   <g id="patch_233">
    <path clip-path="url(#pc81a0f148b)" d="M 665.981491 244.8 
L 668.658331 244.8 
L 668.658331 244.8 
L 665.981491 244.8 
z
" style="fill:#5bc0de;"/>
   </g>
   <g id="patch_234">
    <path clip-path="url(#pc81a0f148b)" d="M 668.658331 244.8 
L 671.33517 244.8 
L 671.33517 244.8 
L 668.658331 244.8 
z
" style="fill:#5bc0de;"/>
   </g>
   <g id="patch_235">
    <path clip-path="url(#pc81a0f148b)" d="M 671.33517 244.8 
L 674.012009 244.8 
L 674.012009 244.8 
L 671.33517 244.8 
z
" style="fill:#5bc0de;"/>
   </g>
   <g id="patch_236">
    <path clip-path="url(#pc81a0f148b)" d="M 674.012009 244.8 
L 676.688848 244.8 
L 676.688848 244.8 
L 674.012009 244.8 
z
" style="fill:#5bc0de;"/>
   </g>
   <g id="patch_237">
    <path clip-path="url(#pc81a0f148b)" d="M 676.688848 244.8 
L 679.365687 244.8 
L 679.365687 244.8 
L 676.688848 244.8 
z
" style="fill:#5bc0de;"/>
   </g>
   <g id="patch_238">
    <path clip-path="url(#pc81a0f148b)" d="M 679.365687 244.8 
L 682.042526 244.8 
L 682.042526 244.8 
L 679.365687 244.8 
z
" style="fill:#5bc0de;"/>
   </g>
   <g id="patch_239">
    <path clip-path="url(#pc81a0f148b)" d="M 682.042526 244.8 
L 684.719365 244.8 
L 684.719365 244.8 
L 682.042526 244.8 
z
" style="fill:#5bc0de;"/>
   </g>
   <g id="patch_240">
    <path clip-path="url(#pc81a0f148b)" d="M 684.719365 244.8 
L 687.396204 244.8 
L 687.396204 244.8 
L 684.719365 244.8 
z
" style="fill:#5bc0de;"/>
   </g>
   <g id="patch_241">
    <path clip-path="url(#pc81a0f148b)" d="M 687.396204 244.8 
L 690.073043 244.8 
L 690.073043 244.547899 
L 687.396204 244.547899 
z
" style="fill:#5bc0de;"/>
   </g>
   <g id="matplotlib.axis_1">
    <g id="xtick_1">
     <g id="line2d_1">
      <defs>
       <path d="M 0 0 
L 0 4 
" id="md050c39014" style="stroke:#d2d2d2;"/>
      </defs>
      <g>
       <use style="fill:#d2d2d2;stroke:#d2d2d2;" x="43.2" xlink:href="#md050c39014" y="244.8"/>
      </g>
     </g>
     <g id="text_1">
      <!-- 0 -->
      <defs>
       <path d="M 31.78125 66.40625 
Q 24.171875 66.40625 20.328125 58.90625 
Q 16.5 51.421875 16.5 36.375 
Q 16.5 21.390625 20.328125 13.890625 
Q 24.171875 6.390625 31.78125 6.390625 
Q 39.453125 6.390625 43.28125 13.890625 
Q 47.125 21.390625 47.125 36.375 
Q 47.125 51.421875 43.28125 58.90625 
Q 39.453125 66.40625 31.78125 66.40625 
M 31.78125 74.21875 
Q 44.046875 74.21875 50.515625 64.515625 
Q 56.984375 54.828125 56.984375 36.375 
Q 56.984375 17.96875 50.515625 8.265625 
Q 44.046875 -1.421875 31.78125 -1.421875 
Q 19.53125 -1.421875 13.0625 8.265625 
Q 6.59375 17.96875 6.59375 36.375 
Q 6.59375 54.828125 13.0625 64.515625 
Q 19.53125 74.21875 31.78125 74.21875 
" id="DejaVuSans-30"/>
      </defs>
      <g style="fill:#d2d2d2;" transform="translate(39.064375 262.677969)scale(0.13 -0.13)">
       <use xlink:href="#DejaVuSans-30"/>
      </g>
     </g>
    </g>
    <g id="xtick_2">
     <g id="line2d_2">
      <g>
       <use style="fill:#d2d2d2;stroke:#d2d2d2;" x="102.24" xlink:href="#md050c39014" y="244.8"/>
      </g>
     </g>
     <g id="text_2">
      <!-- 1 -->
      <defs>
       <path d="M 12.40625 8.296875 
L 28.515625 8.296875 
L 28.515625 63.921875 
L 10.984375 60.40625 
L 10.984375 69.390625 
L 28.421875 72.90625 
L 38.28125 72.90625 
L 38.28125 8.296875 
L 54.390625 8.296875 
L 54.390625 0 
L 12.40625 0 
z
" id="DejaVuSans-31"/>
      </defs>
      <g style="fill:#d2d2d2;" transform="translate(98.104375 262.677969)scale(0.13 -0.13)">
       <use xlink:href="#DejaVuSans-31"/>
      </g>
     </g>
    </g>
    <g id="xtick_3">
     <g id="line2d_3">
      <g>
       <use style="fill:#d2d2d2;stroke:#d2d2d2;" x="161.28" xlink:href="#md050c39014" y="244.8"/>
      </g>
     </g>
     <g id="text_3">
      <!-- 2 -->
      <defs>
       <path d="M 19.1875 8.296875 
L 53.609375 8.296875 
L 53.609375 0 
L 7.328125 0 
L 7.328125 8.296875 
Q 12.9375 14.109375 22.625 23.890625 
Q 32.328125 33.6875 34.8125 36.53125 
Q 39.546875 41.84375 41.421875 45.53125 
Q 43.3125 49.21875 43.3125 52.78125 
Q 43.3125 58.59375 39.234375 62.25 
Q 35.15625 65.921875 28.609375 65.921875 
Q 23.96875 65.921875 18.8125 64.3125 
Q 13.671875 62.703125 7.8125 59.421875 
L 7.8125 69.390625 
Q 13.765625 71.78125 18.9375 73 
Q 24.125 74.21875 28.421875 74.21875 
Q 39.75 74.21875 46.484375 68.546875 
Q 53.21875 62.890625 53.21875 53.421875 
Q 53.21875 48.921875 51.53125 44.890625 
Q 49.859375 40.875 45.40625 35.40625 
Q 44.1875 33.984375 37.640625 27.21875 
Q 31.109375 20.453125 19.1875 8.296875 
" id="DejaVuSans-32"/>
      </defs>
      <g style="fill:#d2d2d2;" transform="translate(157.144375 262.677969)scale(0.13 -0.13)">
       <use xlink:href="#DejaVuSans-32"/>
      </g>
     </g>
    </g>
    <g id="xtick_4">
     <g id="line2d_4">
      <g>
       <use style="fill:#d2d2d2;stroke:#d2d2d2;" x="220.32" xlink:href="#md050c39014" y="244.8"/>
      </g>
     </g>
     <g id="text_4">
      <!-- 3 -->
      <defs>
       <path d="M 40.578125 39.3125 
Q 47.65625 37.796875 51.625 33 
Q 55.609375 28.21875 55.609375 21.1875 
Q 55.609375 10.40625 48.1875 4.484375 
Q 40.765625 -1.421875 27.09375 -1.421875 
Q 22.515625 -1.421875 17.65625 -0.515625 
Q 12.796875 0.390625 7.625 2.203125 
L 7.625 11.71875 
Q 11.71875 9.328125 16.59375 8.109375 
Q 21.484375 6.890625 26.8125 6.890625 
Q 36.078125 6.890625 40.9375 10.546875 
Q 45.796875 14.203125 45.796875 21.1875 
Q 45.796875 27.640625 41.28125 31.265625 
Q 36.765625 34.90625 28.71875 34.90625 
L 20.21875 34.90625 
L 20.21875 43.015625 
L 29.109375 43.015625 
Q 36.375 43.015625 40.234375 45.921875 
Q 44.09375 48.828125 44.09375 54.296875 
Q 44.09375 59.90625 40.109375 62.90625 
Q 36.140625 65.921875 28.71875 65.921875 
Q 24.65625 65.921875 20.015625 65.03125 
Q 15.375 64.15625 9.8125 62.3125 
L 9.8125 71.09375 
Q 15.4375 72.65625 20.34375 73.4375 
Q 25.25 74.21875 29.59375 74.21875 
Q 40.828125 74.21875 47.359375 69.109375 
Q 53.90625 64.015625 53.90625 55.328125 
Q 53.90625 49.265625 50.4375 45.09375 
Q 46.96875 40.921875 40.578125 39.3125 
" id="DejaVuSans-33"/>
      </defs>
      <g style="fill:#d2d2d2;" transform="translate(216.184375 262.677969)scale(0.13 -0.13)">
       <use xlink:href="#DejaVuSans-33"/>
      </g>
     </g>
    </g>
    <g id="xtick_5">
     <g id="line2d_5">
      <g>
       <use style="fill:#d2d2d2;stroke:#d2d2d2;" x="279.36" xlink:href="#md050c39014" y="244.8"/>
      </g>
     </g>
     <g id="text_5">
      <!-- 4 -->
      <defs>
       <path d="M 37.796875 64.3125 
L 12.890625 25.390625 
L 37.796875 25.390625 
z
M 35.203125 72.90625 
L 47.609375 72.90625 
L 47.609375 25.390625 
L 58.015625 25.390625 
L 58.015625 17.1875 
L 47.609375 17.1875 
L 47.609375 0 
L 37.796875 0 
L 37.796875 17.1875 
L 4.890625 17.1875 
L 4.890625 26.703125 
z
" id="DejaVuSans-34"/>
      </defs>
      <g style="fill:#d2d2d2;" transform="translate(275.224375 262.677969)scale(0.13 -0.13)">
       <use xlink:href="#DejaVuSans-34"/>
      </g>
     </g>
    </g>
    <g id="xtick_6">
     <g id="line2d_6">
      <g>
       <use style="fill:#d2d2d2;stroke:#d2d2d2;" x="338.4" xlink:href="#md050c39014" y="244.8"/>
      </g>
     </g>
     <g id="text_6">
      <!-- 5 -->
      <defs>
       <path d="M 10.796875 72.90625 
L 49.515625 72.90625 
L 49.515625 64.59375 
L 19.828125 64.59375 
L 19.828125 46.734375 
Q 21.96875 47.46875 24.109375 47.828125 
Q 26.265625 48.1875 28.421875 48.1875 
Q 40.625 48.1875 47.75 41.5 
Q 54.890625 34.8125 54.890625 23.390625 
Q 54.890625 11.625 47.5625 5.09375 
Q 40.234375 -1.421875 26.90625 -1.421875 
Q 22.3125 -1.421875 17.546875 -0.640625 
Q 12.796875 0.140625 7.71875 1.703125 
L 7.71875 11.625 
Q 12.109375 9.234375 16.796875 8.0625 
Q 21.484375 6.890625 26.703125 6.890625 
Q 35.15625 6.890625 40.078125 11.328125 
Q 45.015625 15.765625 45.015625 23.390625 
Q 45.015625 31 40.078125 35.4375 
Q 35.15625 39.890625 26.703125 39.890625 
Q 22.75 39.890625 18.8125 39.015625 
Q 14.890625 38.140625 10.796875 36.28125 
z
" id="DejaVuSans-35"/>
      </defs>
      <g style="fill:#d2d2d2;" transform="translate(334.264375 262.677969)scale(0.13 -0.13)">
       <use xlink:href="#DejaVuSans-35"/>
      </g>
     </g>
    </g>
    <g id="xtick_7">
     <g id="line2d_7">
      <g>
       <use style="fill:#d2d2d2;stroke:#d2d2d2;" x="397.44" xlink:href="#md050c39014" y="244.8"/>
      </g>
     </g>
     <g id="text_7">
      <!-- 6 -->
      <defs>
       <path d="M 33.015625 40.375 
Q 26.375 40.375 22.484375 35.828125 
Q 18.609375 31.296875 18.609375 23.390625 
Q 18.609375 15.53125 22.484375 10.953125 
Q 26.375 6.390625 33.015625 6.390625 
Q 39.65625 6.390625 43.53125 10.953125 
Q 47.40625 15.53125 47.40625 23.390625 
Q 47.40625 31.296875 43.53125 35.828125 
Q 39.65625 40.375 33.015625 40.375 
M 52.59375 71.296875 
L 52.59375 62.3125 
Q 48.875 64.0625 45.09375 64.984375 
Q 41.3125 65.921875 37.59375 65.921875 
Q 27.828125 65.921875 22.671875 59.328125 
Q 17.53125 52.734375 16.796875 39.40625 
Q 19.671875 43.65625 24.015625 45.921875 
Q 28.375 48.1875 33.59375 48.1875 
Q 44.578125 48.1875 50.953125 41.515625 
Q 57.328125 34.859375 57.328125 23.390625 
Q 57.328125 12.15625 50.6875 5.359375 
Q 44.046875 -1.421875 33.015625 -1.421875 
Q 20.359375 -1.421875 13.671875 8.265625 
Q 6.984375 17.96875 6.984375 36.375 
Q 6.984375 53.65625 15.1875 63.9375 
Q 23.390625 74.21875 37.203125 74.21875 
Q 40.921875 74.21875 44.703125 73.484375 
Q 48.484375 72.75 52.59375 71.296875 
" id="DejaVuSans-36"/>
      </defs>
      <g style="fill:#d2d2d2;" transform="translate(393.304375 262.677969)scale(0.13 -0.13)">
       <use xlink:href="#DejaVuSans-36"/>
      </g>
     </g>
    </g>
    <g id="text_8">
     <!-- Relative risk -->
     <defs>
      <path d="M 44.390625 34.1875 
Q 47.5625 33.109375 50.5625 29.59375 
Q 53.5625 26.078125 56.59375 19.921875 
L 66.609375 0 
L 56 0 
L 46.6875 18.703125 
Q 43.0625 26.03125 39.671875 28.421875 
Q 36.28125 30.8125 30.421875 30.8125 
L 19.671875 30.8125 
L 19.671875 0 
L 9.8125 0 
L 9.8125 72.90625 
L 32.078125 72.90625 
Q 44.578125 72.90625 50.734375 67.671875 
Q 56.890625 62.453125 56.890625 51.90625 
Q 56.890625 45.015625 53.6875 40.46875 
Q 50.484375 35.9375 44.390625 34.1875 
M 19.671875 64.796875 
L 19.671875 38.921875 
L 32.078125 38.921875 
Q 39.203125 38.921875 42.84375 42.21875 
Q 46.484375 45.515625 46.484375 51.90625 
Q 46.484375 58.296875 42.84375 61.546875 
Q 39.203125 64.796875 32.078125 64.796875 
z
" id="DejaVuSans-52"/>
      <path d="M 56.203125 29.59375 
L 56.203125 25.203125 
L 14.890625 25.203125 
Q 15.484375 15.921875 20.484375 11.0625 
Q 25.484375 6.203125 34.421875 6.203125 
Q 39.59375 6.203125 44.453125 7.46875 
Q 49.3125 8.734375 54.109375 11.28125 
L 54.109375 2.78125 
Q 49.265625 0.734375 44.1875 -0.34375 
Q 39.109375 -1.421875 33.890625 -1.421875 
Q 20.796875 -1.421875 13.15625 6.1875 
Q 5.515625 13.8125 5.515625 26.8125 
Q 5.515625 40.234375 12.765625 48.109375 
Q 20.015625 56 32.328125 56 
Q 43.359375 56 49.78125 48.890625 
Q 56.203125 41.796875 56.203125 29.59375 
M 47.21875 32.234375 
Q 47.125 39.59375 43.09375 43.984375 
Q 39.0625 48.390625 32.421875 48.390625 
Q 24.90625 48.390625 20.390625 44.140625 
Q 15.875 39.890625 15.1875 32.171875 
z
" id="DejaVuSans-65"/>
      <path d="M 9.421875 75.984375 
L 18.40625 75.984375 
L 18.40625 0 
L 9.421875 0 
z
" id="DejaVuSans-6c"/>
      <path d="M 34.28125 27.484375 
Q 23.390625 27.484375 19.1875 25 
Q 14.984375 22.515625 14.984375 16.5 
Q 14.984375 11.71875 18.140625 8.90625 
Q 21.296875 6.109375 26.703125 6.109375 
Q 34.1875 6.109375 38.703125 11.40625 
Q 43.21875 16.703125 43.21875 25.484375 
L 43.21875 27.484375 
z
M 52.203125 31.203125 
L 52.203125 0 
L 43.21875 0 
L 43.21875 8.296875 
Q 40.140625 3.328125 35.546875 0.953125 
Q 30.953125 -1.421875 24.3125 -1.421875 
Q 15.921875 -1.421875 10.953125 3.296875 
Q 6 8.015625 6 15.921875 
Q 6 25.140625 12.171875 29.828125 
Q 18.359375 34.515625 30.609375 34.515625 
L 43.21875 34.515625 
L 43.21875 35.40625 
Q 43.21875 41.609375 39.140625 45 
Q 35.0625 48.390625 27.6875 48.390625 
Q 23 48.390625 18.546875 47.265625 
Q 14.109375 46.140625 10.015625 43.890625 
L 10.015625 52.203125 
Q 14.9375 54.109375 19.578125 55.046875 
Q 24.21875 56 28.609375 56 
Q 40.484375 56 46.34375 49.84375 
Q 52.203125 43.703125 52.203125 31.203125 
" id="DejaVuSans-61"/>
      <path d="M 18.3125 70.21875 
L 18.3125 54.6875 
L 36.8125 54.6875 
L 36.8125 47.703125 
L 18.3125 47.703125 
L 18.3125 18.015625 
Q 18.3125 11.328125 20.140625 9.421875 
Q 21.96875 7.515625 27.59375 7.515625 
L 36.8125 7.515625 
L 36.8125 0 
L 27.59375 0 
Q 17.1875 0 13.234375 3.875 
Q 9.28125 7.765625 9.28125 18.015625 
L 9.28125 47.703125 
L 2.6875 47.703125 
L 2.6875 54.6875 
L 9.28125 54.6875 
L 9.28125 70.21875 
z
" id="DejaVuSans-74"/>
      <path d="M 9.421875 54.6875 
L 18.40625 54.6875 
L 18.40625 0 
L 9.421875 0 
z
M 9.421875 75.984375 
L 18.40625 75.984375 
L 18.40625 64.59375 
L 9.421875 64.59375 
z
" id="DejaVuSans-69"/>
      <path d="M 2.984375 54.6875 
L 12.5 54.6875 
L 29.59375 8.796875 
L 46.6875 54.6875 
L 56.203125 54.6875 
L 35.6875 0 
L 23.484375 0 
z
" id="DejaVuSans-76"/>
      <path id="DejaVuSans-20"/>
      <path d="M 41.109375 46.296875 
Q 39.59375 47.171875 37.8125 47.578125 
Q 36.03125 48 33.890625 48 
Q 26.265625 48 22.1875 43.046875 
Q 18.109375 38.09375 18.109375 28.8125 
L 18.109375 0 
L 9.078125 0 
L 9.078125 54.6875 
L 18.109375 54.6875 
L 18.109375 46.1875 
Q 20.953125 51.171875 25.484375 53.578125 
Q 30.03125 56 36.53125 56 
Q 37.453125 56 38.578125 55.875 
Q 39.703125 55.765625 41.0625 55.515625 
z
" id="DejaVuSans-72"/>
      <path d="M 44.28125 53.078125 
L 44.28125 44.578125 
Q 40.484375 46.53125 36.375 47.5 
Q 32.28125 48.484375 27.875 48.484375 
Q 21.1875 48.484375 17.84375 46.4375 
Q 14.5 44.390625 14.5 40.28125 
Q 14.5 37.15625 16.890625 35.375 
Q 19.28125 33.59375 26.515625 31.984375 
L 29.59375 31.296875 
Q 39.15625 29.25 43.1875 25.515625 
Q 47.21875 21.78125 47.21875 15.09375 
Q 47.21875 7.46875 41.1875 3.015625 
Q 35.15625 -1.421875 24.609375 -1.421875 
Q 20.21875 -1.421875 15.453125 -0.5625 
Q 10.6875 0.296875 5.421875 2 
L 5.421875 11.28125 
Q 10.40625 8.6875 15.234375 7.390625 
Q 20.0625 6.109375 24.8125 6.109375 
Q 31.15625 6.109375 34.5625 8.28125 
Q 37.984375 10.453125 37.984375 14.40625 
Q 37.984375 18.0625 35.515625 20.015625 
Q 33.0625 21.96875 24.703125 23.78125 
L 21.578125 24.515625 
Q 13.234375 26.265625 9.515625 29.90625 
Q 5.8125 33.546875 5.8125 39.890625 
Q 5.8125 47.609375 11.28125 51.796875 
Q 16.75 56 26.8125 56 
Q 31.78125 56 36.171875 55.265625 
Q 40.578125 54.546875 44.28125 53.078125 
" id="DejaVuSans-73"/>
      <path d="M 9.078125 75.984375 
L 18.109375 75.984375 
L 18.109375 31.109375 
L 44.921875 54.6875 
L 56.390625 54.6875 
L 27.390625 29.109375 
L 57.625 0 
L 45.90625 0 
L 18.109375 26.703125 
L 18.109375 0 
L 9.078125 0 
z
" id="DejaVuSans-6b"/>
     </defs>
     <g style="fill:#d2d2d2;" transform="translate(164.664844 283.05875)scale(0.18 -0.18)">
      <use xlink:href="#DejaVuSans-52"/>
      <use x="69.419922" xlink:href="#DejaVuSans-65"/>
      <use x="130.943359" xlink:href="#DejaVuSans-6c"/>
      <use x="158.726562" xlink:href="#DejaVuSans-61"/>
      <use x="220.005859" xlink:href="#DejaVuSans-74"/>
      <use x="259.214844" xlink:href="#DejaVuSans-69"/>
      <use x="286.998047" xlink:href="#DejaVuSans-76"/>
      <use x="346.177734" xlink:href="#DejaVuSans-65"/>
      <use x="407.701172" xlink:href="#DejaVuSans-20"/>
      <use x="439.488281" xlink:href="#DejaVuSans-72"/>
      <use x="480.601562" xlink:href="#DejaVuSans-69"/>
      <use x="508.384766" xlink:href="#DejaVuSans-73"/>
      <use x="560.484375" xlink:href="#DejaVuSans-6b"/>
     </g>
    </g>
   </g>
   <g id="matplotlib.axis_2"/>
   <g id="line2d_8">
    <path clip-path="url(#pc81a0f148b)" d="M 102.24 244.8 
L 102.24 28.8 
" style="fill:none;stroke:#d9534f;stroke-linecap:square;stroke-width:1.5;"/>
   </g>
   <g id="patch_242">
    <path d="M 43.2 244.8 
L 397.44 244.8 
" style="fill:none;stroke:#d2d2d2;stroke-linecap:square;stroke-linejoin:miter;"/>
   </g>
  </g>
  <g id="axes_2">
   <g id="line2d_9">
    <path clip-path="url(#pc81a0f148b)" d="M 228.02087 244.8 
L 228.02087 72 
" style="fill:none;stroke:#f0ad4e;stroke-linecap:square;stroke-width:1.5;"/>
   </g>
   <g id="text_9">
    <!-- Observed statistic -->
    <defs>
     <path d="M 39.40625 66.21875 
Q 28.65625 66.21875 22.328125 58.203125 
Q 16.015625 50.203125 16.015625 36.375 
Q 16.015625 22.609375 22.328125 14.59375 
Q 28.65625 6.59375 39.40625 6.59375 
Q 50.140625 6.59375 56.421875 14.59375 
Q 62.703125 22.609375 62.703125 36.375 
Q 62.703125 50.203125 56.421875 58.203125 
Q 50.140625 66.21875 39.40625 66.21875 
M 39.40625 74.21875 
Q 54.734375 74.21875 63.90625 63.9375 
Q 73.09375 53.65625 73.09375 36.375 
Q 73.09375 19.140625 63.90625 8.859375 
Q 54.734375 -1.421875 39.40625 -1.421875 
Q 24.03125 -1.421875 14.8125 8.828125 
Q 5.609375 19.09375 5.609375 36.375 
Q 5.609375 53.65625 14.8125 63.9375 
Q 24.03125 74.21875 39.40625 74.21875 
" id="DejaVuSans-4f"/>
     <path d="M 48.6875 27.296875 
Q 48.6875 37.203125 44.609375 42.84375 
Q 40.53125 48.484375 33.40625 48.484375 
Q 26.265625 48.484375 22.1875 42.84375 
Q 18.109375 37.203125 18.109375 27.296875 
Q 18.109375 17.390625 22.1875 11.75 
Q 26.265625 6.109375 33.40625 6.109375 
Q 40.53125 6.109375 44.609375 11.75 
Q 48.6875 17.390625 48.6875 27.296875 
M 18.109375 46.390625 
Q 20.953125 51.265625 25.265625 53.625 
Q 29.59375 56 35.59375 56 
Q 45.5625 56 51.78125 48.09375 
Q 58.015625 40.1875 58.015625 27.296875 
Q 58.015625 14.40625 51.78125 6.484375 
Q 45.5625 -1.421875 35.59375 -1.421875 
Q 29.59375 -1.421875 25.265625 0.953125 
Q 20.953125 3.328125 18.109375 8.203125 
L 18.109375 0 
L 9.078125 0 
L 9.078125 75.984375 
L 18.109375 75.984375 
z
" id="DejaVuSans-62"/>
     <path d="M 45.40625 46.390625 
L 45.40625 75.984375 
L 54.390625 75.984375 
L 54.390625 0 
L 45.40625 0 
L 45.40625 8.203125 
Q 42.578125 3.328125 38.25 0.953125 
Q 33.9375 -1.421875 27.875 -1.421875 
Q 17.96875 -1.421875 11.734375 6.484375 
Q 5.515625 14.40625 5.515625 27.296875 
Q 5.515625 40.1875 11.734375 48.09375 
Q 17.96875 56 27.875 56 
Q 33.9375 56 38.25 53.625 
Q 42.578125 51.265625 45.40625 46.390625 
M 14.796875 27.296875 
Q 14.796875 17.390625 18.875 11.75 
Q 22.953125 6.109375 30.078125 6.109375 
Q 37.203125 6.109375 41.296875 11.75 
Q 45.40625 17.390625 45.40625 27.296875 
Q 45.40625 37.203125 41.296875 42.84375 
Q 37.203125 48.484375 30.078125 48.484375 
Q 22.953125 48.484375 18.875 42.84375 
Q 14.796875 37.203125 14.796875 27.296875 
" id="DejaVuSans-64"/>
     <path d="M 48.78125 52.59375 
L 48.78125 44.1875 
Q 44.96875 46.296875 41.140625 47.34375 
Q 37.3125 48.390625 33.40625 48.390625 
Q 24.65625 48.390625 19.8125 42.84375 
Q 14.984375 37.3125 14.984375 27.296875 
Q 14.984375 17.28125 19.8125 11.734375 
Q 24.65625 6.203125 33.40625 6.203125 
Q 37.3125 6.203125 41.140625 7.25 
Q 44.96875 8.296875 48.78125 10.40625 
L 48.78125 2.09375 
Q 45.015625 0.34375 40.984375 -0.53125 
Q 36.96875 -1.421875 32.421875 -1.421875 
Q 20.0625 -1.421875 12.78125 6.34375 
Q 5.515625 14.109375 5.515625 27.296875 
Q 5.515625 40.671875 12.859375 48.328125 
Q 20.21875 56 33.015625 56 
Q 37.15625 56 41.109375 55.140625 
Q 45.0625 54.296875 48.78125 52.59375 
" id="DejaVuSans-63"/>
    </defs>
    <g style="fill:#f0ad4e;" transform="translate(164.562588 45.523063)scale(0.14 -0.14)">
     <use xlink:href="#DejaVuSans-4f"/>
     <use x="78.710938" xlink:href="#DejaVuSans-62"/>
     <use x="142.1875" xlink:href="#DejaVuSans-73"/>
     <use x="194.287109" xlink:href="#DejaVuSans-65"/>
     <use x="255.810547" xlink:href="#DejaVuSans-72"/>
     <use x="296.923828" xlink:href="#DejaVuSans-76"/>
     <use x="356.103516" xlink:href="#DejaVuSans-65"/>
     <use x="417.626953" xlink:href="#DejaVuSans-64"/>
     <use x="481.103516" xlink:href="#DejaVuSans-20"/>
     <use x="512.890625" xlink:href="#DejaVuSans-73"/>
     <use x="564.990234" xlink:href="#DejaVuSans-74"/>
     <use x="604.199219" xlink:href="#DejaVuSans-61"/>
     <use x="665.478516" xlink:href="#DejaVuSans-74"/>
     <use x="704.6875" xlink:href="#DejaVuSans-69"/>
     <use x="732.470703" xlink:href="#DejaVuSans-73"/>
     <use x="784.570312" xlink:href="#DejaVuSans-74"/>
     <use x="823.779297" xlink:href="#DejaVuSans-69"/>
     <use x="851.5625" xlink:href="#DejaVuSans-63"/>
    </g>
    <!-- Relative Risk = 3.1 -->
    <defs>
     <path d="M 10.59375 45.40625 
L 73.1875 45.40625 
L 73.1875 37.203125 
L 10.59375 37.203125 
z
M 10.59375 25.484375 
L 73.1875 25.484375 
L 73.1875 17.1875 
L 10.59375 17.1875 
z
" id="DejaVuSans-3d"/>
     <path d="M 10.6875 12.40625 
L 21 12.40625 
L 21 0 
L 10.6875 0 
z
" id="DejaVuSans-2e"/>
    </defs>
    <g style="fill:#f0ad4e;" transform="translate(161.299932 61.2)scale(0.14 -0.14)">
     <use xlink:href="#DejaVuSans-52"/>
     <use x="69.419922" xlink:href="#DejaVuSans-65"/>
     <use x="130.943359" xlink:href="#DejaVuSans-6c"/>
     <use x="158.726562" xlink:href="#DejaVuSans-61"/>
     <use x="220.005859" xlink:href="#DejaVuSans-74"/>
     <use x="259.214844" xlink:href="#DejaVuSans-69"/>
     <use x="286.998047" xlink:href="#DejaVuSans-76"/>
     <use x="346.177734" xlink:href="#DejaVuSans-65"/>
     <use x="407.701172" xlink:href="#DejaVuSans-20"/>
     <use x="439.488281" xlink:href="#DejaVuSans-52"/>
     <use x="508.970703" xlink:href="#DejaVuSans-69"/>
     <use x="536.753906" xlink:href="#DejaVuSans-73"/>
     <use x="588.853516" xlink:href="#DejaVuSans-6b"/>
     <use x="646.763672" xlink:href="#DejaVuSans-20"/>
     <use x="678.550781" xlink:href="#DejaVuSans-3d"/>
     <use x="762.339844" xlink:href="#DejaVuSans-20"/>
     <use x="794.126953" xlink:href="#DejaVuSans-33"/>
     <use x="857.75" xlink:href="#DejaVuSans-2e"/>
     <use x="889.537109" xlink:href="#DejaVuSans-31"/>
    </g>
   </g>
  </g>
  <g id="axes_3">
   <g id="line2d_10">
    <path clip-path="url(#pc81a0f148b)" d="M 62.06 244.8 
L 62.06 72 
" style="fill:none;stroke:#f0ad4e;stroke-linecap:square;stroke-width:1.5;"/>
   </g>
   <g id="text_10">
    <!-- 207 simulations$\geq$3.1 -->
    <defs>
     <path d="M 8.203125 72.90625 
L 55.078125 72.90625 
L 55.078125 68.703125 
L 28.609375 0 
L 18.3125 0 
L 43.21875 64.59375 
L 8.203125 64.59375 
z
" id="DejaVuSans-37"/>
     <path d="M 52 44.1875 
Q 55.375 50.25 60.0625 53.125 
Q 64.75 56 71.09375 56 
Q 79.640625 56 84.28125 50.015625 
Q 88.921875 44.046875 88.921875 33.015625 
L 88.921875 0 
L 79.890625 0 
L 79.890625 32.71875 
Q 79.890625 40.578125 77.09375 44.375 
Q 74.3125 48.1875 68.609375 48.1875 
Q 61.625 48.1875 57.5625 43.546875 
Q 53.515625 38.921875 53.515625 30.90625 
L 53.515625 0 
L 44.484375 0 
L 44.484375 32.71875 
Q 44.484375 40.625 41.703125 44.40625 
Q 38.921875 48.1875 33.109375 48.1875 
Q 26.21875 48.1875 22.15625 43.53125 
Q 18.109375 38.875 18.109375 30.90625 
L 18.109375 0 
L 9.078125 0 
L 9.078125 54.6875 
L 18.109375 54.6875 
L 18.109375 46.1875 
Q 21.1875 51.21875 25.484375 53.609375 
Q 29.78125 56 35.6875 56 
Q 41.65625 56 45.828125 52.96875 
Q 50 49.953125 52 44.1875 
" id="DejaVuSans-6d"/>
     <path d="M 8.5 21.578125 
L 8.5 54.6875 
L 17.484375 54.6875 
L 17.484375 21.921875 
Q 17.484375 14.15625 20.5 10.265625 
Q 23.53125 6.390625 29.59375 6.390625 
Q 36.859375 6.390625 41.078125 11.03125 
Q 45.3125 15.671875 45.3125 23.6875 
L 45.3125 54.6875 
L 54.296875 54.6875 
L 54.296875 0 
L 45.3125 0 
L 45.3125 8.40625 
Q 42.046875 3.421875 37.71875 1 
Q 33.40625 -1.421875 27.6875 -1.421875 
Q 18.265625 -1.421875 13.375 4.4375 
Q 8.5 10.296875 8.5 21.578125 
M 31.109375 56 
z
" id="DejaVuSans-75"/>
     <path d="M 30.609375 48.390625 
Q 23.390625 48.390625 19.1875 42.75 
Q 14.984375 37.109375 14.984375 27.296875 
Q 14.984375 17.484375 19.15625 11.84375 
Q 23.34375 6.203125 30.609375 6.203125 
Q 37.796875 6.203125 41.984375 11.859375 
Q 46.1875 17.53125 46.1875 27.296875 
Q 46.1875 37.015625 41.984375 42.703125 
Q 37.796875 48.390625 30.609375 48.390625 
M 30.609375 56 
Q 42.328125 56 49.015625 48.375 
Q 55.71875 40.765625 55.71875 27.296875 
Q 55.71875 13.875 49.015625 6.21875 
Q 42.328125 -1.421875 30.609375 -1.421875 
Q 18.84375 -1.421875 12.171875 6.21875 
Q 5.515625 13.875 5.515625 27.296875 
Q 5.515625 40.765625 12.171875 48.375 
Q 18.84375 56 30.609375 56 
" id="DejaVuSans-6f"/>
     <path d="M 54.890625 33.015625 
L 54.890625 0 
L 45.90625 0 
L 45.90625 32.71875 
Q 45.90625 40.484375 42.875 44.328125 
Q 39.84375 48.1875 33.796875 48.1875 
Q 26.515625 48.1875 22.3125 43.546875 
Q 18.109375 38.921875 18.109375 30.90625 
L 18.109375 0 
L 9.078125 0 
L 9.078125 54.6875 
L 18.109375 54.6875 
L 18.109375 46.1875 
Q 21.34375 51.125 25.703125 53.5625 
Q 30.078125 56 35.796875 56 
Q 45.21875 56 50.046875 50.171875 
Q 54.890625 44.34375 54.890625 33.015625 
" id="DejaVuSans-6e"/>
     <path d="M 10.59375 49.609375 
L 10.59375 58.203125 
L 73.1875 40.28125 
L 73.1875 31.984375 
L 10.59375 14.015625 
L 10.59375 22.703125 
L 57.515625 36.078125 
z
M 73.1875 8.296875 
L 73.1875 0 
L 10.59375 0 
L 10.59375 8.296875 
z
" id="DejaVuSans-2265"/>
    </defs>
    <g style="fill:#d2d2d2;" transform="translate(257.54087 105.446125)scale(0.14 -0.14)">
     <use transform="translate(0 0.015625)" xlink:href="#DejaVuSans-32"/>
     <use transform="translate(63.623047 0.015625)" xlink:href="#DejaVuSans-30"/>
     <use transform="translate(127.246094 0.015625)" xlink:href="#DejaVuSans-37"/>
     <use transform="translate(190.869141 0.015625)" xlink:href="#DejaVuSans-20"/>
     <use transform="translate(222.65625 0.015625)" xlink:href="#DejaVuSans-73"/>
     <use transform="translate(274.755859 0.015625)" xlink:href="#DejaVuSans-69"/>
     <use transform="translate(302.539062 0.015625)" xlink:href="#DejaVuSans-6d"/>
     <use transform="translate(399.951172 0.015625)" xlink:href="#DejaVuSans-75"/>
     <use transform="translate(463.330078 0.015625)" xlink:href="#DejaVuSans-6c"/>
     <use transform="translate(491.113281 0.015625)" xlink:href="#DejaVuSans-61"/>
     <use transform="translate(552.392578 0.015625)" xlink:href="#DejaVuSans-74"/>
     <use transform="translate(591.601562 0.015625)" xlink:href="#DejaVuSans-69"/>
     <use transform="translate(619.384766 0.015625)" xlink:href="#DejaVuSans-6f"/>
     <use transform="translate(680.566406 0.015625)" xlink:href="#DejaVuSans-6e"/>
     <use transform="translate(743.945312 0.015625)" xlink:href="#DejaVuSans-73"/>
     <use transform="translate(815.527344 0.015625)" xlink:href="#DejaVuSans-2265"/>
     <use transform="translate(918.798828 0.015625)" xlink:href="#DejaVuSans-33"/>
     <use transform="translate(982.421875 0.015625)" xlink:href="#DejaVuSans-2e"/>
     <use transform="translate(1014.208984 0.015625)" xlink:href="#DejaVuSans-31"/>
    </g>
    <!-- 53 simulations$\leq$0.32 -->
    <defs>
     <path d="M 73.1875 49.609375 
L 26.3125 36.078125 
L 73.1875 22.703125 
L 73.1875 14.015625 
L 10.59375 31.984375 
L 10.59375 40.28125 
L 73.1875 58.203125 
z
M 10.59375 8.296875 
L 73.1875 8.296875 
L 73.1875 0 
L 10.59375 0 
z
" id="DejaVuSans-2264"/>
    </defs>
    <g style="fill:#d2d2d2;" transform="translate(257.54087 121.123063)scale(0.14 -0.14)">
     <use transform="translate(0 0.015625)" xlink:href="#DejaVuSans-35"/>
     <use transform="translate(63.623047 0.015625)" xlink:href="#DejaVuSans-33"/>
     <use transform="translate(127.246094 0.015625)" xlink:href="#DejaVuSans-20"/>
     <use transform="translate(159.033203 0.015625)" xlink:href="#DejaVuSans-73"/>
     <use transform="translate(211.132812 0.015625)" xlink:href="#DejaVuSans-69"/>
     <use transform="translate(238.916016 0.015625)" xlink:href="#DejaVuSans-6d"/>
     <use transform="translate(336.328125 0.015625)" xlink:href="#DejaVuSans-75"/>
     <use transform="translate(399.707031 0.015625)" xlink:href="#DejaVuSans-6c"/>
     <use transform="translate(427.490234 0.015625)" xlink:href="#DejaVuSans-61"/>
     <use transform="translate(488.769531 0.015625)" xlink:href="#DejaVuSans-74"/>
     <use transform="translate(527.978516 0.015625)" xlink:href="#DejaVuSans-69"/>
     <use transform="translate(555.761719 0.015625)" xlink:href="#DejaVuSans-6f"/>
     <use transform="translate(616.943359 0.015625)" xlink:href="#DejaVuSans-6e"/>
     <use transform="translate(680.322266 0.015625)" xlink:href="#DejaVuSans-73"/>
     <use transform="translate(751.904297 0.015625)" xlink:href="#DejaVuSans-2264"/>
     <use transform="translate(855.175781 0.015625)" xlink:href="#DejaVuSans-30"/>
     <use transform="translate(918.798828 0.015625)" xlink:href="#DejaVuSans-2e"/>
     <use transform="translate(950.585938 0.015625)" xlink:href="#DejaVuSans-33"/>
     <use transform="translate(1014.208984 0.015625)" xlink:href="#DejaVuSans-32"/>
    </g>
    <!-- (2-tail p-value=0.026) -->
    <defs>
     <path d="M 31 75.875 
Q 24.46875 64.65625 21.28125 53.65625 
Q 18.109375 42.671875 18.109375 31.390625 
Q 18.109375 20.125 21.3125 9.0625 
Q 24.515625 -2 31 -13.1875 
L 23.1875 -13.1875 
Q 15.875 -1.703125 12.234375 9.375 
Q 8.59375 20.453125 8.59375 31.390625 
Q 8.59375 42.28125 12.203125 53.3125 
Q 15.828125 64.359375 23.1875 75.875 
z
" id="DejaVuSans-28"/>
     <path d="M 4.890625 31.390625 
L 31.203125 31.390625 
L 31.203125 23.390625 
L 4.890625 23.390625 
z
" id="DejaVuSans-2d"/>
     <path d="M 18.109375 8.203125 
L 18.109375 -20.796875 
L 9.078125 -20.796875 
L 9.078125 54.6875 
L 18.109375 54.6875 
L 18.109375 46.390625 
Q 20.953125 51.265625 25.265625 53.625 
Q 29.59375 56 35.59375 56 
Q 45.5625 56 51.78125 48.09375 
Q 58.015625 40.1875 58.015625 27.296875 
Q 58.015625 14.40625 51.78125 6.484375 
Q 45.5625 -1.421875 35.59375 -1.421875 
Q 29.59375 -1.421875 25.265625 0.953125 
Q 20.953125 3.328125 18.109375 8.203125 
M 48.6875 27.296875 
Q 48.6875 37.203125 44.609375 42.84375 
Q 40.53125 48.484375 33.40625 48.484375 
Q 26.265625 48.484375 22.1875 42.84375 
Q 18.109375 37.203125 18.109375 27.296875 
Q 18.109375 17.390625 22.1875 11.75 
Q 26.265625 6.109375 33.40625 6.109375 
Q 40.53125 6.109375 44.609375 11.75 
Q 48.6875 17.390625 48.6875 27.296875 
" id="DejaVuSans-70"/>
     <path d="M 8.015625 75.875 
L 15.828125 75.875 
Q 23.140625 64.359375 26.78125 53.3125 
Q 30.421875 42.28125 30.421875 31.390625 
Q 30.421875 20.453125 26.78125 9.375 
Q 23.140625 -1.703125 15.828125 -13.1875 
L 8.015625 -13.1875 
Q 14.5 -2 17.703125 9.0625 
Q 20.90625 20.125 20.90625 31.390625 
Q 20.90625 42.671875 17.703125 53.65625 
Q 14.5 64.65625 8.015625 75.875 
" id="DejaVuSans-29"/>
    </defs>
    <g style="fill:#d2d2d2;" transform="translate(257.54087 136.8)scale(0.14 -0.14)">
     <use xlink:href="#DejaVuSans-28"/>
     <use x="39.013672" xlink:href="#DejaVuSans-32"/>
     <use x="102.636719" xlink:href="#DejaVuSans-2d"/>
     <use x="138.720703" xlink:href="#DejaVuSans-74"/>
     <use x="177.929688" xlink:href="#DejaVuSans-61"/>
     <use x="239.208984" xlink:href="#DejaVuSans-69"/>
     <use x="266.992188" xlink:href="#DejaVuSans-6c"/>
     <use x="294.775391" xlink:href="#DejaVuSans-20"/>
     <use x="326.5625" xlink:href="#DejaVuSans-70"/>
     <use x="390.039062" xlink:href="#DejaVuSans-2d"/>
     <use x="426.091797" xlink:href="#DejaVuSans-76"/>
     <use x="485.271484" xlink:href="#DejaVuSans-61"/>
     <use x="546.550781" xlink:href="#DejaVuSans-6c"/>
     <use x="574.333984" xlink:href="#DejaVuSans-75"/>
     <use x="637.712891" xlink:href="#DejaVuSans-65"/>
     <use x="699.236328" xlink:href="#DejaVuSans-3d"/>
     <use x="783.025391" xlink:href="#DejaVuSans-30"/>
     <use x="846.648438" xlink:href="#DejaVuSans-2e"/>
     <use x="878.435547" xlink:href="#DejaVuSans-30"/>
     <use x="942.058594" xlink:href="#DejaVuSans-32"/>
     <use x="1005.681641" xlink:href="#DejaVuSans-36"/>
     <use x="1069.304688" xlink:href="#DejaVuSans-29"/>
    </g>
   </g>
   <g id="text_11">
    <!-- $\frac{1}{3.1}$ -->
    <g style="fill:#f0ad4e;" transform="translate(53.38 44.990625)scale(0.14 -0.14)">
     <use transform="translate(33 43.965625)scale(0.7)" xlink:href="#DejaVuSans-31"/>
     <use transform="translate(0 -39.2375)scale(0.7)" xlink:href="#DejaVuSans-33"/>
     <use transform="translate(44.536133 -39.2375)scale(0.7)" xlink:href="#DejaVuSans-2e"/>
     <use transform="translate(66.787109 -39.2375)scale(0.7)" xlink:href="#DejaVuSans-31"/>
     <path d="M 0 18.965625 
L 0 25.215625 
L 111.323242 25.215625 
L 111.323242 18.965625 
L 0 18.965625 
z
"/>
    </g>
    <!-- (0.32) -->
    <g style="fill:#f0ad4e;" transform="translate(41.011875 63.496)scale(0.14 -0.14)">
     <use xlink:href="#DejaVuSans-28"/>
     <use x="39.013672" xlink:href="#DejaVuSans-30"/>
     <use x="102.636719" xlink:href="#DejaVuSans-2e"/>
     <use x="134.423828" xlink:href="#DejaVuSans-33"/>
     <use x="198.046875" xlink:href="#DejaVuSans-32"/>
     <use x="261.669922" xlink:href="#DejaVuSans-29"/>
    </g>
   </g>
  </g>
 </g>
 <defs>
  <clipPath id="pc81a0f148b">
   <rect height="216" width="354.24" x="43.2" y="28.8"/>
  </clipPath>
 </defs>
</svg>
