<?xml version="1.0" encoding="utf-8" standalone="no"?>
<!DOCTYPE svg PUBLIC "-//W3C//DTD SVG 1.1//EN"
  "http://www.w3.org/Graphics/SVG/1.1/DTD/svg11.dtd">
<!-- Created with matplotlib (http://matplotlib.org/) -->
<svg height="288pt" version="1.1" viewBox="0 0 432 288" width="432pt" xmlns="http://www.w3.org/2000/svg" xmlns:xlink="http://www.w3.org/1999/xlink">
 <defs>
  <style type="text/css">
*{stroke-linecap:butt;stroke-linejoin:round;}
  </style>
 </defs>
 <g id="figure_1">
  <g id="patch_1">
   <path d="M 0 288 
L 432 288 
L 432 0 
L 0 0 
z
" style="fill:none;"/>
  </g>
  <g id="axes_1">
   <g id="patch_2">
    <path d="M 43.2 244.8 
L 397.44 244.8 
L 397.44 43.2 
L 43.2 43.2 
z
" style="fill:none;"/>
   </g>
   <g id="patch_3">
    <path clip-path="url(#pf792e39353)" d="M 40.037143 244.8 
L 46.362857 244.8 
L 46.362857 244.8 
L 40.037143 244.8 
z
" style="fill:#5bc0de;"/>
   </g>
   <g id="patch_4">
    <path clip-path="url(#pf792e39353)" d="M 46.362857 244.8 
L 52.688571 244.8 
L 52.688571 244.8 
L 46.362857 244.8 
z
" style="fill:#5bc0de;"/>
   </g>
   <g id="patch_5">
    <path clip-path="url(#pf792e39353)" d="M 52.688571 244.8 
L 59.014286 244.8 
L 59.014286 244.8 
L 52.688571 244.8 
z
" style="fill:#5bc0de;"/>
   </g>
   <g id="patch_6">
    <path clip-path="url(#pf792e39353)" d="M 59.014286 244.8 
L 65.34 244.8 
L 65.34 244.8 
L 59.014286 244.8 
z
" style="fill:#5bc0de;"/>
   </g>
   <g id="patch_7">
    <path clip-path="url(#pf792e39353)" d="M 65.34 244.8 
L 71.665714 244.8 
L 71.665714 244.676049 
L 65.34 244.676049 
z
" style="fill:#5bc0de;"/>
   </g>
   <g id="patch_8">
    <path clip-path="url(#pf792e39353)" d="M 71.665714 244.8 
L 77.991429 244.8 
L 77.991429 244.8 
L 71.665714 244.8 
z
" style="fill:#5bc0de;"/>
   </g>
   <g id="patch_9">
    <path clip-path="url(#pf792e39353)" d="M 77.991429 244.8 
L 84.317143 244.8 
L 84.317143 244.8 
L 77.991429 244.8 
z
" style="fill:#5bc0de;"/>
   </g>
   <g id="patch_10">
    <path clip-path="url(#pf792e39353)" d="M 84.317143 244.8 
L 90.642857 244.8 
L 90.642857 244.8 
L 84.317143 244.8 
z
" style="fill:#5bc0de;"/>
   </g>
   <g id="patch_11">
    <path clip-path="url(#pf792e39353)" d="M 90.642857 244.8 
L 96.968571 244.8 
L 96.968571 244.8 
L 90.642857 244.8 
z
" style="fill:#5bc0de;"/>
   </g>
   <g id="patch_12">
    <path clip-path="url(#pf792e39353)" d="M 96.968571 244.8 
L 103.294286 244.8 
L 103.294286 244.8 
L 96.968571 244.8 
z
" style="fill:#5bc0de;"/>
   </g>
   <g id="patch_13">
    <path clip-path="url(#pf792e39353)" d="M 103.294286 244.8 
L 109.62 244.8 
L 109.62 243.932343 
L 103.294286 243.932343 
z
" style="fill:#5bc0de;"/>
   </g>
   <g id="patch_14">
    <path clip-path="url(#pf792e39353)" d="M 109.62 244.8 
L 115.945714 244.8 
L 115.945714 244.8 
L 109.62 244.8 
z
" style="fill:#5bc0de;"/>
   </g>
   <g id="patch_15">
    <path clip-path="url(#pf792e39353)" d="M 115.945714 244.8 
L 122.271429 244.8 
L 122.271429 243.188638 
L 115.945714 243.188638 
z
" style="fill:#5bc0de;"/>
   </g>
   <g id="patch_16">
    <path clip-path="url(#pf792e39353)" d="M 122.271429 244.8 
L 128.597143 244.8 
L 128.597143 244.8 
L 122.271429 244.8 
z
" style="fill:#5bc0de;"/>
   </g>
   <g id="patch_17">
    <path clip-path="url(#pf792e39353)" d="M 128.597143 244.8 
L 134.922857 244.8 
L 134.922857 239.098257 
L 128.597143 239.098257 
z
" style="fill:#5bc0de;"/>
   </g>
   <g id="patch_18">
    <path clip-path="url(#pf792e39353)" d="M 134.922857 244.8 
L 141.248571 244.8 
L 141.248571 244.8 
L 134.922857 244.8 
z
" style="fill:#5bc0de;"/>
   </g>
   <g id="patch_19">
    <path clip-path="url(#pf792e39353)" d="M 141.248571 244.8 
L 147.574286 244.8 
L 147.574286 229.677986 
L 141.248571 229.677986 
z
" style="fill:#5bc0de;"/>
   </g>
   <g id="patch_20">
    <path clip-path="url(#pf792e39353)" d="M 147.574286 244.8 
L 153.9 244.8 
L 153.9 244.8 
L 147.574286 244.8 
z
" style="fill:#5bc0de;"/>
   </g>
   <g id="patch_21">
    <path clip-path="url(#pf792e39353)" d="M 153.9 244.8 
L 160.225714 244.8 
L 160.225714 214.060168 
L 153.9 214.060168 
z
" style="fill:#5bc0de;"/>
   </g>
   <g id="patch_22">
    <path clip-path="url(#pf792e39353)" d="M 160.225714 244.8 
L 166.551429 244.8 
L 166.551429 244.8 
L 160.225714 244.8 
z
" style="fill:#5bc0de;"/>
   </g>
   <g id="patch_23">
    <path clip-path="url(#pf792e39353)" d="M 166.551429 244.8 
L 172.877143 244.8 
L 172.877143 182.700581 
L 166.551429 182.700581 
z
" style="fill:#5bc0de;"/>
   </g>
   <g id="patch_24">
    <path clip-path="url(#pf792e39353)" d="M 172.877143 244.8 
L 179.202857 244.8 
L 179.202857 244.8 
L 172.877143 244.8 
z
" style="fill:#5bc0de;"/>
   </g>
   <g id="patch_25">
    <path clip-path="url(#pf792e39353)" d="M 179.202857 244.8 
L 185.528571 244.8 
L 185.528571 147.126662 
L 179.202857 147.126662 
z
" style="fill:#5bc0de;"/>
   </g>
   <g id="patch_26">
    <path clip-path="url(#pf792e39353)" d="M 185.528571 244.8 
L 191.854286 244.8 
L 191.854286 244.8 
L 185.528571 244.8 
z
" style="fill:#5bc0de;"/>
   </g>
   <g id="patch_27">
    <path clip-path="url(#pf792e39353)" d="M 191.854286 244.8 
L 198.18 244.8 
L 198.18 103.000129 
L 191.854286 103.000129 
z
" style="fill:#5bc0de;"/>
   </g>
   <g id="patch_28">
    <path clip-path="url(#pf792e39353)" d="M 198.18 244.8 
L 204.505714 244.8 
L 204.505714 244.8 
L 198.18 244.8 
z
" style="fill:#5bc0de;"/>
   </g>
   <g id="patch_29">
    <path clip-path="url(#pf792e39353)" d="M 204.505714 244.8 
L 210.831429 244.8 
L 210.831429 77.714138 
L 204.505714 77.714138 
z
" style="fill:#5bc0de;"/>
   </g>
   <g id="patch_30">
    <path clip-path="url(#pf792e39353)" d="M 210.831429 244.8 
L 217.157143 244.8 
L 217.157143 244.8 
L 210.831429 244.8 
z
" style="fill:#5bc0de;"/>
   </g>
   <g id="patch_31">
    <path clip-path="url(#pf792e39353)" d="M 217.157143 244.8 
L 223.482857 244.8 
L 223.482857 52.8 
L 217.157143 52.8 
z
" style="fill:#5bc0de;"/>
   </g>
   <g id="patch_32">
    <path clip-path="url(#pf792e39353)" d="M 223.482857 244.8 
L 229.808571 244.8 
L 229.808571 244.8 
L 223.482857 244.8 
z
" style="fill:#5bc0de;"/>
   </g>
   <g id="patch_33">
    <path clip-path="url(#pf792e39353)" d="M 229.808571 244.8 
L 236.134286 244.8 
L 236.134286 70.648935 
L 229.808571 70.648935 
z
" style="fill:#5bc0de;"/>
   </g>
   <g id="patch_34">
    <path clip-path="url(#pf792e39353)" d="M 236.134286 244.8 
L 242.46 244.8 
L 242.46 244.8 
L 236.134286 244.8 
z
" style="fill:#5bc0de;"/>
   </g>
   <g id="patch_35">
    <path clip-path="url(#pf792e39353)" d="M 242.46 244.8 
L 248.785714 244.8 
L 248.785714 109.321627 
L 242.46 109.321627 
z
" style="fill:#5bc0de;"/>
   </g>
   <g id="patch_36">
    <path clip-path="url(#pf792e39353)" d="M 248.785714 244.8 
L 255.111429 244.8 
L 255.111429 244.8 
L 248.785714 244.8 
z
" style="fill:#5bc0de;"/>
   </g>
   <g id="patch_37">
    <path clip-path="url(#pf792e39353)" d="M 255.111429 244.8 
L 261.437143 244.8 
L 261.437143 138.697999 
L 255.111429 138.697999 
z
" style="fill:#5bc0de;"/>
   </g>
   <g id="patch_38">
    <path clip-path="url(#pf792e39353)" d="M 261.437143 244.8 
L 267.762857 244.8 
L 267.762857 244.8 
L 261.437143 244.8 
z
" style="fill:#5bc0de;"/>
   </g>
   <g id="patch_39">
    <path clip-path="url(#pf792e39353)" d="M 267.762857 244.8 
L 274.088571 244.8 
L 274.088571 189.393932 
L 267.762857 189.393932 
z
" style="fill:#5bc0de;"/>
   </g>
   <g id="patch_40">
    <path clip-path="url(#pf792e39353)" d="M 274.088571 244.8 
L 280.414286 244.8 
L 280.414286 244.8 
L 274.088571 244.8 
z
" style="fill:#5bc0de;"/>
   </g>
   <g id="patch_41">
    <path clip-path="url(#pf792e39353)" d="M 280.414286 244.8 
L 286.74 244.8 
L 286.74 211.953002 
L 280.414286 211.953002 
z
" style="fill:#5bc0de;"/>
   </g>
   <g id="patch_42">
    <path clip-path="url(#pf792e39353)" d="M 286.74 244.8 
L 293.065714 244.8 
L 293.065714 244.8 
L 286.74 244.8 
z
" style="fill:#5bc0de;"/>
   </g>
   <g id="patch_43">
    <path clip-path="url(#pf792e39353)" d="M 293.065714 244.8 
L 299.391429 244.8 
L 299.391429 232.033054 
L 293.065714 232.033054 
z
" style="fill:#5bc0de;"/>
   </g>
   <g id="patch_44">
    <path clip-path="url(#pf792e39353)" d="M 299.391429 244.8 
L 305.717143 244.8 
L 305.717143 244.8 
L 299.391429 244.8 
z
" style="fill:#5bc0de;"/>
   </g>
   <g id="patch_45">
    <path clip-path="url(#pf792e39353)" d="M 305.717143 244.8 
L 312.042857 244.8 
L 312.042857 239.841963 
L 305.717143 239.841963 
z
" style="fill:#5bc0de;"/>
   </g>
   <g id="patch_46">
    <path clip-path="url(#pf792e39353)" d="M 312.042857 244.8 
L 318.368571 244.8 
L 318.368571 244.8 
L 312.042857 244.8 
z
" style="fill:#5bc0de;"/>
   </g>
   <g id="patch_47">
    <path clip-path="url(#pf792e39353)" d="M 318.368571 244.8 
L 324.694286 244.8 
L 324.694286 242.568883 
L 318.368571 242.568883 
z
" style="fill:#5bc0de;"/>
   </g>
   <g id="patch_48">
    <path clip-path="url(#pf792e39353)" d="M 324.694286 244.8 
L 331.02 244.8 
L 331.02 244.8 
L 324.694286 244.8 
z
" style="fill:#5bc0de;"/>
   </g>
   <g id="patch_49">
    <path clip-path="url(#pf792e39353)" d="M 331.02 244.8 
L 337.345714 244.8 
L 337.345714 244.304196 
L 331.02 244.304196 
z
" style="fill:#5bc0de;"/>
   </g>
   <g id="patch_50">
    <path clip-path="url(#pf792e39353)" d="M 337.345714 244.8 
L 343.671429 244.8 
L 343.671429 244.8 
L 337.345714 244.8 
z
" style="fill:#5bc0de;"/>
   </g>
   <g id="patch_51">
    <path clip-path="url(#pf792e39353)" d="M 343.671429 244.8 
L 349.997143 244.8 
L 349.997143 244.552098 
L 343.671429 244.552098 
z
" style="fill:#5bc0de;"/>
   </g>
   <g id="patch_52">
    <path clip-path="url(#pf792e39353)" d="M 349.997143 244.8 
L 356.322857 244.8 
L 356.322857 244.8 
L 349.997143 244.8 
z
" style="fill:#5bc0de;"/>
   </g>
   <g id="patch_53">
    <path clip-path="url(#pf792e39353)" d="M 356.322857 244.8 
L 362.648571 244.8 
L 362.648571 244.8 
L 356.322857 244.8 
z
" style="fill:#5bc0de;"/>
   </g>
   <g id="patch_54">
    <path clip-path="url(#pf792e39353)" d="M 362.648571 244.8 
L 368.974286 244.8 
L 368.974286 244.8 
L 362.648571 244.8 
z
" style="fill:#5bc0de;"/>
   </g>
   <g id="patch_55">
    <path clip-path="url(#pf792e39353)" d="M 368.974286 244.8 
L 375.3 244.8 
L 375.3 244.8 
L 368.974286 244.8 
z
" style="fill:#5bc0de;"/>
   </g>
   <g id="patch_56">
    <path clip-path="url(#pf792e39353)" d="M 375.3 244.8 
L 381.625714 244.8 
L 381.625714 244.8 
L 375.3 244.8 
z
" style="fill:#5bc0de;"/>
   </g>
   <g id="patch_57">
    <path clip-path="url(#pf792e39353)" d="M 381.625714 244.8 
L 387.951429 244.8 
L 387.951429 244.8 
L 381.625714 244.8 
z
" style="fill:#5bc0de;"/>
   </g>
   <g id="patch_58">
    <path clip-path="url(#pf792e39353)" d="M 387.951429 244.8 
L 394.277143 244.8 
L 394.277143 244.8 
L 387.951429 244.8 
z
" style="fill:#5bc0de;"/>
   </g>
   <g id="patch_59">
    <path clip-path="url(#pf792e39353)" d="M 394.277143 244.8 
L 400.602857 244.8 
L 400.602857 244.8 
L 394.277143 244.8 
z
" style="fill:#5bc0de;"/>
   </g>
   <g id="matplotlib.axis_1">
    <g id="xtick_1">
     <g id="line2d_1">
      <defs>
       <path d="M 0 0 
L 0 4 
" id="m7633d25f36" style="stroke:#d2d2d2;"/>
      </defs>
      <g>
       <use style="fill:#d2d2d2;stroke:#d2d2d2;" x="43.2" xlink:href="#m7633d25f36" y="244.8"/>
      </g>
     </g>
     <g id="text_1">
      <!-- 0.0 -->
      <defs>
       <path d="M 31.78125 66.40625 
Q 24.171875 66.40625 20.328125 58.90625 
Q 16.5 51.421875 16.5 36.375 
Q 16.5 21.390625 20.328125 13.890625 
Q 24.171875 6.390625 31.78125 6.390625 
Q 39.453125 6.390625 43.28125 13.890625 
Q 47.125 21.390625 47.125 36.375 
Q 47.125 51.421875 43.28125 58.90625 
Q 39.453125 66.40625 31.78125 66.40625 
M 31.78125 74.21875 
Q 44.046875 74.21875 50.515625 64.515625 
Q 56.984375 54.828125 56.984375 36.375 
Q 56.984375 17.96875 50.515625 8.265625 
Q 44.046875 -1.421875 31.78125 -1.421875 
Q 19.53125 -1.421875 13.0625 8.265625 
Q 6.59375 17.96875 6.59375 36.375 
Q 6.59375 54.828125 13.0625 64.515625 
Q 19.53125 74.21875 31.78125 74.21875 
" id="DejaVuSans-30"/>
       <path d="M 10.6875 12.40625 
L 21 12.40625 
L 21 0 
L 10.6875 0 
z
" id="DejaVuSans-2e"/>
      </defs>
      <g style="fill:#d2d2d2;" transform="translate(32.862969 262.677969)scale(0.13 -0.13)">
       <use xlink:href="#DejaVuSans-30"/>
       <use x="63.623047" xlink:href="#DejaVuSans-2e"/>
       <use x="95.410156" xlink:href="#DejaVuSans-30"/>
      </g>
     </g>
    </g>
    <g id="xtick_2">
     <g id="line2d_2">
      <g>
       <use style="fill:#d2d2d2;stroke:#d2d2d2;" x="78.624" xlink:href="#m7633d25f36" y="244.8"/>
      </g>
     </g>
     <g id="text_2">
      <!-- 0.1 -->
      <defs>
       <path d="M 12.40625 8.296875 
L 28.515625 8.296875 
L 28.515625 63.921875 
L 10.984375 60.40625 
L 10.984375 69.390625 
L 28.421875 72.90625 
L 38.28125 72.90625 
L 38.28125 8.296875 
L 54.390625 8.296875 
L 54.390625 0 
L 12.40625 0 
z
" id="DejaVuSans-31"/>
      </defs>
      <g style="fill:#d2d2d2;" transform="translate(68.286969 262.677969)scale(0.13 -0.13)">
       <use xlink:href="#DejaVuSans-30"/>
       <use x="63.623047" xlink:href="#DejaVuSans-2e"/>
       <use x="95.410156" xlink:href="#DejaVuSans-31"/>
      </g>
     </g>
    </g>
    <g id="xtick_3">
     <g id="line2d_3">
      <g>
       <use style="fill:#d2d2d2;stroke:#d2d2d2;" x="114.048" xlink:href="#m7633d25f36" y="244.8"/>
      </g>
     </g>
     <g id="text_3">
      <!-- 0.2 -->
      <defs>
       <path d="M 19.1875 8.296875 
L 53.609375 8.296875 
L 53.609375 0 
L 7.328125 0 
L 7.328125 8.296875 
Q 12.9375 14.109375 22.625 23.890625 
Q 32.328125 33.6875 34.8125 36.53125 
Q 39.546875 41.84375 41.421875 45.53125 
Q 43.3125 49.21875 43.3125 52.78125 
Q 43.3125 58.59375 39.234375 62.25 
Q 35.15625 65.921875 28.609375 65.921875 
Q 23.96875 65.921875 18.8125 64.3125 
Q 13.671875 62.703125 7.8125 59.421875 
L 7.8125 69.390625 
Q 13.765625 71.78125 18.9375 73 
Q 24.125 74.21875 28.421875 74.21875 
Q 39.75 74.21875 46.484375 68.546875 
Q 53.21875 62.890625 53.21875 53.421875 
Q 53.21875 48.921875 51.53125 44.890625 
Q 49.859375 40.875 45.40625 35.40625 
Q 44.1875 33.984375 37.640625 27.21875 
Q 31.109375 20.453125 19.1875 8.296875 
" id="DejaVuSans-32"/>
      </defs>
      <g style="fill:#d2d2d2;" transform="translate(103.710969 262.677969)scale(0.13 -0.13)">
       <use xlink:href="#DejaVuSans-30"/>
       <use x="63.623047" xlink:href="#DejaVuSans-2e"/>
       <use x="95.410156" xlink:href="#DejaVuSans-32"/>
      </g>
     </g>
    </g>
    <g id="xtick_4">
     <g id="line2d_4">
      <g>
       <use style="fill:#d2d2d2;stroke:#d2d2d2;" x="149.472" xlink:href="#m7633d25f36" y="244.8"/>
      </g>
     </g>
     <g id="text_4">
      <!-- 0.3 -->
      <defs>
       <path d="M 40.578125 39.3125 
Q 47.65625 37.796875 51.625 33 
Q 55.609375 28.21875 55.609375 21.1875 
Q 55.609375 10.40625 48.1875 4.484375 
Q 40.765625 -1.421875 27.09375 -1.421875 
Q 22.515625 -1.421875 17.65625 -0.515625 
Q 12.796875 0.390625 7.625 2.203125 
L 7.625 11.71875 
Q 11.71875 9.328125 16.59375 8.109375 
Q 21.484375 6.890625 26.8125 6.890625 
Q 36.078125 6.890625 40.9375 10.546875 
Q 45.796875 14.203125 45.796875 21.1875 
Q 45.796875 27.640625 41.28125 31.265625 
Q 36.765625 34.90625 28.71875 34.90625 
L 20.21875 34.90625 
L 20.21875 43.015625 
L 29.109375 43.015625 
Q 36.375 43.015625 40.234375 45.921875 
Q 44.09375 48.828125 44.09375 54.296875 
Q 44.09375 59.90625 40.109375 62.90625 
Q 36.140625 65.921875 28.71875 65.921875 
Q 24.65625 65.921875 20.015625 65.03125 
Q 15.375 64.15625 9.8125 62.3125 
L 9.8125 71.09375 
Q 15.4375 72.65625 20.34375 73.4375 
Q 25.25 74.21875 29.59375 74.21875 
Q 40.828125 74.21875 47.359375 69.109375 
Q 53.90625 64.015625 53.90625 55.328125 
Q 53.90625 49.265625 50.4375 45.09375 
Q 46.96875 40.921875 40.578125 39.3125 
" id="DejaVuSans-33"/>
      </defs>
      <g style="fill:#d2d2d2;" transform="translate(139.134969 262.677969)scale(0.13 -0.13)">
       <use xlink:href="#DejaVuSans-30"/>
       <use x="63.623047" xlink:href="#DejaVuSans-2e"/>
       <use x="95.410156" xlink:href="#DejaVuSans-33"/>
      </g>
     </g>
    </g>
    <g id="xtick_5">
     <g id="line2d_5">
      <g>
       <use style="fill:#d2d2d2;stroke:#d2d2d2;" x="184.896" xlink:href="#m7633d25f36" y="244.8"/>
      </g>
     </g>
     <g id="text_5">
      <!-- 0.4 -->
      <defs>
       <path d="M 37.796875 64.3125 
L 12.890625 25.390625 
L 37.796875 25.390625 
z
M 35.203125 72.90625 
L 47.609375 72.90625 
L 47.609375 25.390625 
L 58.015625 25.390625 
L 58.015625 17.1875 
L 47.609375 17.1875 
L 47.609375 0 
L 37.796875 0 
L 37.796875 17.1875 
L 4.890625 17.1875 
L 4.890625 26.703125 
z
" id="DejaVuSans-34"/>
      </defs>
      <g style="fill:#d2d2d2;" transform="translate(174.558969 262.677969)scale(0.13 -0.13)">
       <use xlink:href="#DejaVuSans-30"/>
       <use x="63.623047" xlink:href="#DejaVuSans-2e"/>
       <use x="95.410156" xlink:href="#DejaVuSans-34"/>
      </g>
     </g>
    </g>
    <g id="xtick_6">
     <g id="line2d_6">
      <g>
       <use style="fill:#d2d2d2;stroke:#d2d2d2;" x="220.32" xlink:href="#m7633d25f36" y="244.8"/>
      </g>
     </g>
     <g id="text_6">
      <!-- 0.5 -->
      <defs>
       <path d="M 10.796875 72.90625 
L 49.515625 72.90625 
L 49.515625 64.59375 
L 19.828125 64.59375 
L 19.828125 46.734375 
Q 21.96875 47.46875 24.109375 47.828125 
Q 26.265625 48.1875 28.421875 48.1875 
Q 40.625 48.1875 47.75 41.5 
Q 54.890625 34.8125 54.890625 23.390625 
Q 54.890625 11.625 47.5625 5.09375 
Q 40.234375 -1.421875 26.90625 -1.421875 
Q 22.3125 -1.421875 17.546875 -0.640625 
Q 12.796875 0.140625 7.71875 1.703125 
L 7.71875 11.625 
Q 12.109375 9.234375 16.796875 8.0625 
Q 21.484375 6.890625 26.703125 6.890625 
Q 35.15625 6.890625 40.078125 11.328125 
Q 45.015625 15.765625 45.015625 23.390625 
Q 45.015625 31 40.078125 35.4375 
Q 35.15625 39.890625 26.703125 39.890625 
Q 22.75 39.890625 18.8125 39.015625 
Q 14.890625 38.140625 10.796875 36.28125 
z
" id="DejaVuSans-35"/>
      </defs>
      <g style="fill:#d2d2d2;" transform="translate(209.982969 262.677969)scale(0.13 -0.13)">
       <use xlink:href="#DejaVuSans-30"/>
       <use x="63.623047" xlink:href="#DejaVuSans-2e"/>
       <use x="95.410156" xlink:href="#DejaVuSans-35"/>
      </g>
     </g>
    </g>
    <g id="xtick_7">
     <g id="line2d_7">
      <g>
       <use style="fill:#d2d2d2;stroke:#d2d2d2;" x="255.744" xlink:href="#m7633d25f36" y="244.8"/>
      </g>
     </g>
     <g id="text_7">
      <!-- 0.6 -->
      <defs>
       <path d="M 33.015625 40.375 
Q 26.375 40.375 22.484375 35.828125 
Q 18.609375 31.296875 18.609375 23.390625 
Q 18.609375 15.53125 22.484375 10.953125 
Q 26.375 6.390625 33.015625 6.390625 
Q 39.65625 6.390625 43.53125 10.953125 
Q 47.40625 15.53125 47.40625 23.390625 
Q 47.40625 31.296875 43.53125 35.828125 
Q 39.65625 40.375 33.015625 40.375 
M 52.59375 71.296875 
L 52.59375 62.3125 
Q 48.875 64.0625 45.09375 64.984375 
Q 41.3125 65.921875 37.59375 65.921875 
Q 27.828125 65.921875 22.671875 59.328125 
Q 17.53125 52.734375 16.796875 39.40625 
Q 19.671875 43.65625 24.015625 45.921875 
Q 28.375 48.1875 33.59375 48.1875 
Q 44.578125 48.1875 50.953125 41.515625 
Q 57.328125 34.859375 57.328125 23.390625 
Q 57.328125 12.15625 50.6875 5.359375 
Q 44.046875 -1.421875 33.015625 -1.421875 
Q 20.359375 -1.421875 13.671875 8.265625 
Q 6.984375 17.96875 6.984375 36.375 
Q 6.984375 53.65625 15.1875 63.9375 
Q 23.390625 74.21875 37.203125 74.21875 
Q 40.921875 74.21875 44.703125 73.484375 
Q 48.484375 72.75 52.59375 71.296875 
" id="DejaVuSans-36"/>
      </defs>
      <g style="fill:#d2d2d2;" transform="translate(245.406969 262.677969)scale(0.13 -0.13)">
       <use xlink:href="#DejaVuSans-30"/>
       <use x="63.623047" xlink:href="#DejaVuSans-2e"/>
       <use x="95.410156" xlink:href="#DejaVuSans-36"/>
      </g>
     </g>
    </g>
    <g id="xtick_8">
     <g id="line2d_8">
      <g>
       <use style="fill:#d2d2d2;stroke:#d2d2d2;" x="291.168" xlink:href="#m7633d25f36" y="244.8"/>
      </g>
     </g>
     <g id="text_8">
      <!-- 0.7 -->
      <defs>
       <path d="M 8.203125 72.90625 
L 55.078125 72.90625 
L 55.078125 68.703125 
L 28.609375 0 
L 18.3125 0 
L 43.21875 64.59375 
L 8.203125 64.59375 
z
" id="DejaVuSans-37"/>
      </defs>
      <g style="fill:#d2d2d2;" transform="translate(280.830969 262.677969)scale(0.13 -0.13)">
       <use xlink:href="#DejaVuSans-30"/>
       <use x="63.623047" xlink:href="#DejaVuSans-2e"/>
       <use x="95.410156" xlink:href="#DejaVuSans-37"/>
      </g>
     </g>
    </g>
    <g id="xtick_9">
     <g id="line2d_9">
      <g>
       <use style="fill:#d2d2d2;stroke:#d2d2d2;" x="326.592" xlink:href="#m7633d25f36" y="244.8"/>
      </g>
     </g>
     <g id="text_9">
      <!-- 0.8 -->
      <defs>
       <path d="M 31.78125 34.625 
Q 24.75 34.625 20.71875 30.859375 
Q 16.703125 27.09375 16.703125 20.515625 
Q 16.703125 13.921875 20.71875 10.15625 
Q 24.75 6.390625 31.78125 6.390625 
Q 38.8125 6.390625 42.859375 10.171875 
Q 46.921875 13.96875 46.921875 20.515625 
Q 46.921875 27.09375 42.890625 30.859375 
Q 38.875 34.625 31.78125 34.625 
M 21.921875 38.8125 
Q 15.578125 40.375 12.03125 44.71875 
Q 8.5 49.078125 8.5 55.328125 
Q 8.5 64.0625 14.71875 69.140625 
Q 20.953125 74.21875 31.78125 74.21875 
Q 42.671875 74.21875 48.875 69.140625 
Q 55.078125 64.0625 55.078125 55.328125 
Q 55.078125 49.078125 51.53125 44.71875 
Q 48 40.375 41.703125 38.8125 
Q 48.828125 37.15625 52.796875 32.3125 
Q 56.78125 27.484375 56.78125 20.515625 
Q 56.78125 9.90625 50.3125 4.234375 
Q 43.84375 -1.421875 31.78125 -1.421875 
Q 19.734375 -1.421875 13.25 4.234375 
Q 6.78125 9.90625 6.78125 20.515625 
Q 6.78125 27.484375 10.78125 32.3125 
Q 14.796875 37.15625 21.921875 38.8125 
M 18.3125 54.390625 
Q 18.3125 48.734375 21.84375 45.5625 
Q 25.390625 42.390625 31.78125 42.390625 
Q 38.140625 42.390625 41.71875 45.5625 
Q 45.3125 48.734375 45.3125 54.390625 
Q 45.3125 60.0625 41.71875 63.234375 
Q 38.140625 66.40625 31.78125 66.40625 
Q 25.390625 66.40625 21.84375 63.234375 
Q 18.3125 60.0625 18.3125 54.390625 
" id="DejaVuSans-38"/>
      </defs>
      <g style="fill:#d2d2d2;" transform="translate(316.254969 262.677969)scale(0.13 -0.13)">
       <use xlink:href="#DejaVuSans-30"/>
       <use x="63.623047" xlink:href="#DejaVuSans-2e"/>
       <use x="95.410156" xlink:href="#DejaVuSans-38"/>
      </g>
     </g>
    </g>
    <g id="xtick_10">
     <g id="line2d_10">
      <g>
       <use style="fill:#d2d2d2;stroke:#d2d2d2;" x="362.016" xlink:href="#m7633d25f36" y="244.8"/>
      </g>
     </g>
     <g id="text_10">
      <!-- 0.9 -->
      <defs>
       <path d="M 10.984375 1.515625 
L 10.984375 10.5 
Q 14.703125 8.734375 18.5 7.8125 
Q 22.3125 6.890625 25.984375 6.890625 
Q 35.75 6.890625 40.890625 13.453125 
Q 46.046875 20.015625 46.78125 33.40625 
Q 43.953125 29.203125 39.59375 26.953125 
Q 35.25 24.703125 29.984375 24.703125 
Q 19.046875 24.703125 12.671875 31.3125 
Q 6.296875 37.9375 6.296875 49.421875 
Q 6.296875 60.640625 12.9375 67.421875 
Q 19.578125 74.21875 30.609375 74.21875 
Q 43.265625 74.21875 49.921875 64.515625 
Q 56.59375 54.828125 56.59375 36.375 
Q 56.59375 19.140625 48.40625 8.859375 
Q 40.234375 -1.421875 26.421875 -1.421875 
Q 22.703125 -1.421875 18.890625 -0.6875 
Q 15.09375 0.046875 10.984375 1.515625 
M 30.609375 32.421875 
Q 37.25 32.421875 41.125 36.953125 
Q 45.015625 41.5 45.015625 49.421875 
Q 45.015625 57.28125 41.125 61.84375 
Q 37.25 66.40625 30.609375 66.40625 
Q 23.96875 66.40625 20.09375 61.84375 
Q 16.21875 57.28125 16.21875 49.421875 
Q 16.21875 41.5 20.09375 36.953125 
Q 23.96875 32.421875 30.609375 32.421875 
" id="DejaVuSans-39"/>
      </defs>
      <g style="fill:#d2d2d2;" transform="translate(351.678969 262.677969)scale(0.13 -0.13)">
       <use xlink:href="#DejaVuSans-30"/>
       <use x="63.623047" xlink:href="#DejaVuSans-2e"/>
       <use x="95.410156" xlink:href="#DejaVuSans-39"/>
      </g>
     </g>
    </g>
    <g id="xtick_11">
     <g id="line2d_11">
      <g>
       <use style="fill:#d2d2d2;stroke:#d2d2d2;" x="397.44" xlink:href="#m7633d25f36" y="244.8"/>
      </g>
     </g>
     <g id="text_11">
      <!-- 1.0 -->
      <g style="fill:#d2d2d2;" transform="translate(387.102969 262.677969)scale(0.13 -0.13)">
       <use xlink:href="#DejaVuSans-31"/>
       <use x="63.623047" xlink:href="#DejaVuSans-2e"/>
       <use x="95.410156" xlink:href="#DejaVuSans-30"/>
      </g>
     </g>
    </g>
    <g id="text_12">
     <!-- $\pi$ -->
     <defs>
      <path d="M 9.125 54.6875 
L 61.53125 54.6875 
L 59.765625 45.703125 
L 52.875 45.703125 
L 46.34375 12.109375 
Q 45.65625 8.59375 46.578125 7.03125 
Q 47.46875 5.515625 50.140625 5.515625 
Q 50.875 5.515625 51.953125 5.671875 
Q 53.078125 5.765625 53.421875 5.8125 
L 52.15625 -0.6875 
Q 50.34375 -1.3125 48.484375 -1.609375 
Q 46.578125 -1.90625 44.78125 -1.90625 
Q 38.921875 -1.90625 37.3125 1.265625 
Q 35.6875 4.5 37.359375 13.09375 
L 43.703125 45.703125 
L 23.53125 45.703125 
L 14.65625 0 
L 5.46875 0 
L 14.359375 45.703125 
L 7.375 45.703125 
z
" id="DejaVuSans-Oblique-3c0"/>
     </defs>
     <g style="fill:#d2d2d2;" transform="translate(215.44 281.539062)scale(0.16 -0.16)">
      <use transform="translate(0 0.3125)" xlink:href="#DejaVuSans-Oblique-3c0"/>
     </g>
    </g>
   </g>
   <g id="matplotlib.axis_2"/>
   <g id="line2d_12">
    <path clip-path="url(#pf792e39353)" d="M 296.228571 244.8 
L 296.228571 184.32 
" style="fill:none;stroke:#d2d2d2;stroke-dasharray:5.6,2.4;stroke-dashoffset:0;stroke-width:1.5;"/>
   </g>
   <g id="line2d_13">
    <path d="M 296.228571 144 
L 296.228571 23.04 
" style="fill:none;stroke:#d2d2d2;stroke-dasharray:5.6,2.4;stroke-dashoffset:0;stroke-width:1.5;"/>
   </g>
   <g id="patch_60">
    <path d="M 43.2 244.8 
L 397.44 244.8 
" style="fill:none;stroke:#d2d2d2;stroke-linecap:square;stroke-linejoin:miter;"/>
   </g>
   <g id="text_13">
    <!-- Observed -->
    <defs>
     <path d="M 39.40625 66.21875 
Q 28.65625 66.21875 22.328125 58.203125 
Q 16.015625 50.203125 16.015625 36.375 
Q 16.015625 22.609375 22.328125 14.59375 
Q 28.65625 6.59375 39.40625 6.59375 
Q 50.140625 6.59375 56.421875 14.59375 
Q 62.703125 22.609375 62.703125 36.375 
Q 62.703125 50.203125 56.421875 58.203125 
Q 50.140625 66.21875 39.40625 66.21875 
M 39.40625 74.21875 
Q 54.734375 74.21875 63.90625 63.9375 
Q 73.09375 53.65625 73.09375 36.375 
Q 73.09375 19.140625 63.90625 8.859375 
Q 54.734375 -1.421875 39.40625 -1.421875 
Q 24.03125 -1.421875 14.8125 8.828125 
Q 5.609375 19.09375 5.609375 36.375 
Q 5.609375 53.65625 14.8125 63.9375 
Q 24.03125 74.21875 39.40625 74.21875 
" id="DejaVuSans-4f"/>
     <path d="M 48.6875 27.296875 
Q 48.6875 37.203125 44.609375 42.84375 
Q 40.53125 48.484375 33.40625 48.484375 
Q 26.265625 48.484375 22.1875 42.84375 
Q 18.109375 37.203125 18.109375 27.296875 
Q 18.109375 17.390625 22.1875 11.75 
Q 26.265625 6.109375 33.40625 6.109375 
Q 40.53125 6.109375 44.609375 11.75 
Q 48.6875 17.390625 48.6875 27.296875 
M 18.109375 46.390625 
Q 20.953125 51.265625 25.265625 53.625 
Q 29.59375 56 35.59375 56 
Q 45.5625 56 51.78125 48.09375 
Q 58.015625 40.1875 58.015625 27.296875 
Q 58.015625 14.40625 51.78125 6.484375 
Q 45.5625 -1.421875 35.59375 -1.421875 
Q 29.59375 -1.421875 25.265625 0.953125 
Q 20.953125 3.328125 18.109375 8.203125 
L 18.109375 0 
L 9.078125 0 
L 9.078125 75.984375 
L 18.109375 75.984375 
z
" id="DejaVuSans-62"/>
     <path d="M 44.28125 53.078125 
L 44.28125 44.578125 
Q 40.484375 46.53125 36.375 47.5 
Q 32.28125 48.484375 27.875 48.484375 
Q 21.1875 48.484375 17.84375 46.4375 
Q 14.5 44.390625 14.5 40.28125 
Q 14.5 37.15625 16.890625 35.375 
Q 19.28125 33.59375 26.515625 31.984375 
L 29.59375 31.296875 
Q 39.15625 29.25 43.1875 25.515625 
Q 47.21875 21.78125 47.21875 15.09375 
Q 47.21875 7.46875 41.1875 3.015625 
Q 35.15625 -1.421875 24.609375 -1.421875 
Q 20.21875 -1.421875 15.453125 -0.5625 
Q 10.6875 0.296875 5.421875 2 
L 5.421875 11.28125 
Q 10.40625 8.6875 15.234375 7.390625 
Q 20.0625 6.109375 24.8125 6.109375 
Q 31.15625 6.109375 34.5625 8.28125 
Q 37.984375 10.453125 37.984375 14.40625 
Q 37.984375 18.0625 35.515625 20.015625 
Q 33.0625 21.96875 24.703125 23.78125 
L 21.578125 24.515625 
Q 13.234375 26.265625 9.515625 29.90625 
Q 5.8125 33.546875 5.8125 39.890625 
Q 5.8125 47.609375 11.28125 51.796875 
Q 16.75 56 26.8125 56 
Q 31.78125 56 36.171875 55.265625 
Q 40.578125 54.546875 44.28125 53.078125 
" id="DejaVuSans-73"/>
     <path d="M 56.203125 29.59375 
L 56.203125 25.203125 
L 14.890625 25.203125 
Q 15.484375 15.921875 20.484375 11.0625 
Q 25.484375 6.203125 34.421875 6.203125 
Q 39.59375 6.203125 44.453125 7.46875 
Q 49.3125 8.734375 54.109375 11.28125 
L 54.109375 2.78125 
Q 49.265625 0.734375 44.1875 -0.34375 
Q 39.109375 -1.421875 33.890625 -1.421875 
Q 20.796875 -1.421875 13.15625 6.1875 
Q 5.515625 13.8125 5.515625 26.8125 
Q 5.515625 40.234375 12.765625 48.109375 
Q 20.015625 56 32.328125 56 
Q 43.359375 56 49.78125 48.890625 
Q 56.203125 41.796875 56.203125 29.59375 
M 47.21875 32.234375 
Q 47.125 39.59375 43.09375 43.984375 
Q 39.0625 48.390625 32.421875 48.390625 
Q 24.90625 48.390625 20.390625 44.140625 
Q 15.875 39.890625 15.1875 32.171875 
z
" id="DejaVuSans-65"/>
     <path d="M 41.109375 46.296875 
Q 39.59375 47.171875 37.8125 47.578125 
Q 36.03125 48 33.890625 48 
Q 26.265625 48 22.1875 43.046875 
Q 18.109375 38.09375 18.109375 28.8125 
L 18.109375 0 
L 9.078125 0 
L 9.078125 54.6875 
L 18.109375 54.6875 
L 18.109375 46.1875 
Q 20.953125 51.171875 25.484375 53.578125 
Q 30.03125 56 36.53125 56 
Q 37.453125 56 38.578125 55.875 
Q 39.703125 55.765625 41.0625 55.515625 
z
" id="DejaVuSans-72"/>
     <path d="M 2.984375 54.6875 
L 12.5 54.6875 
L 29.59375 8.796875 
L 46.6875 54.6875 
L 56.203125 54.6875 
L 35.6875 0 
L 23.484375 0 
z
" id="DejaVuSans-76"/>
     <path d="M 45.40625 46.390625 
L 45.40625 75.984375 
L 54.390625 75.984375 
L 54.390625 0 
L 45.40625 0 
L 45.40625 8.203125 
Q 42.578125 3.328125 38.25 0.953125 
Q 33.9375 -1.421875 27.875 -1.421875 
Q 17.96875 -1.421875 11.734375 6.484375 
Q 5.515625 14.40625 5.515625 27.296875 
Q 5.515625 40.1875 11.734375 48.09375 
Q 17.96875 56 27.875 56 
Q 33.9375 56 38.25 53.625 
Q 42.578125 51.265625 45.40625 46.390625 
M 14.796875 27.296875 
Q 14.796875 17.390625 18.875 11.75 
Q 22.953125 6.109375 30.078125 6.109375 
Q 37.203125 6.109375 41.296875 11.75 
Q 45.40625 17.390625 45.40625 27.296875 
Q 45.40625 37.203125 41.296875 42.84375 
Q 37.203125 48.484375 30.078125 48.484375 
Q 22.953125 48.484375 18.875 42.84375 
Q 14.796875 37.203125 14.796875 27.296875 
" id="DejaVuSans-64"/>
    </defs>
    <g style="fill:#d2d2d2;" transform="translate(268.874442 159.571063)scale(0.14 -0.14)">
     <use xlink:href="#DejaVuSans-4f"/>
     <use x="78.710938" xlink:href="#DejaVuSans-62"/>
     <use x="142.1875" xlink:href="#DejaVuSans-73"/>
     <use x="194.287109" xlink:href="#DejaVuSans-65"/>
     <use x="255.810547" xlink:href="#DejaVuSans-72"/>
     <use x="296.923828" xlink:href="#DejaVuSans-76"/>
     <use x="356.103516" xlink:href="#DejaVuSans-65"/>
     <use x="417.626953" xlink:href="#DejaVuSans-64"/>
    </g>
    <!-- statistic -->
    <defs>
     <path d="M 18.3125 70.21875 
L 18.3125 54.6875 
L 36.8125 54.6875 
L 36.8125 47.703125 
L 18.3125 47.703125 
L 18.3125 18.015625 
Q 18.3125 11.328125 20.140625 9.421875 
Q 21.96875 7.515625 27.59375 7.515625 
L 36.8125 7.515625 
L 36.8125 0 
L 27.59375 0 
Q 17.1875 0 13.234375 3.875 
Q 9.28125 7.765625 9.28125 18.015625 
L 9.28125 47.703125 
L 2.6875 47.703125 
L 2.6875 54.6875 
L 9.28125 54.6875 
L 9.28125 70.21875 
z
" id="DejaVuSans-74"/>
     <path d="M 34.28125 27.484375 
Q 23.390625 27.484375 19.1875 25 
Q 14.984375 22.515625 14.984375 16.5 
Q 14.984375 11.71875 18.140625 8.90625 
Q 21.296875 6.109375 26.703125 6.109375 
Q 34.1875 6.109375 38.703125 11.40625 
Q 43.21875 16.703125 43.21875 25.484375 
L 43.21875 27.484375 
z
M 52.203125 31.203125 
L 52.203125 0 
L 43.21875 0 
L 43.21875 8.296875 
Q 40.140625 3.328125 35.546875 0.953125 
Q 30.953125 -1.421875 24.3125 -1.421875 
Q 15.921875 -1.421875 10.953125 3.296875 
Q 6 8.015625 6 15.921875 
Q 6 25.140625 12.171875 29.828125 
Q 18.359375 34.515625 30.609375 34.515625 
L 43.21875 34.515625 
L 43.21875 35.40625 
Q 43.21875 41.609375 39.140625 45 
Q 35.0625 48.390625 27.6875 48.390625 
Q 23 48.390625 18.546875 47.265625 
Q 14.109375 46.140625 10.015625 43.890625 
L 10.015625 52.203125 
Q 14.9375 54.109375 19.578125 55.046875 
Q 24.21875 56 28.609375 56 
Q 40.484375 56 46.34375 49.84375 
Q 52.203125 43.703125 52.203125 31.203125 
" id="DejaVuSans-61"/>
     <path d="M 9.421875 54.6875 
L 18.40625 54.6875 
L 18.40625 0 
L 9.421875 0 
z
M 9.421875 75.984375 
L 18.40625 75.984375 
L 18.40625 64.59375 
L 9.421875 64.59375 
z
" id="DejaVuSans-69"/>
     <path d="M 48.78125 52.59375 
L 48.78125 44.1875 
Q 44.96875 46.296875 41.140625 47.34375 
Q 37.3125 48.390625 33.40625 48.390625 
Q 24.65625 48.390625 19.8125 42.84375 
Q 14.984375 37.3125 14.984375 27.296875 
Q 14.984375 17.28125 19.8125 11.734375 
Q 24.65625 6.203125 33.40625 6.203125 
Q 37.3125 6.203125 41.140625 7.25 
Q 44.96875 8.296875 48.78125 10.40625 
L 48.78125 2.09375 
Q 45.015625 0.34375 40.984375 -0.53125 
Q 36.96875 -1.421875 32.421875 -1.421875 
Q 20.0625 -1.421875 12.78125 6.34375 
Q 5.515625 14.109375 5.515625 27.296875 
Q 5.515625 40.671875 12.859375 48.328125 
Q 20.21875 56 33.015625 56 
Q 37.15625 56 41.109375 55.140625 
Q 45.0625 54.296875 48.78125 52.59375 
" id="DejaVuSans-63"/>
    </defs>
    <g style="fill:#d2d2d2;" transform="translate(275.000536 175.248)scale(0.14 -0.14)">
     <use xlink:href="#DejaVuSans-73"/>
     <use x="52.099609" xlink:href="#DejaVuSans-74"/>
     <use x="91.308594" xlink:href="#DejaVuSans-61"/>
     <use x="152.587891" xlink:href="#DejaVuSans-74"/>
     <use x="191.796875" xlink:href="#DejaVuSans-69"/>
     <use x="219.580078" xlink:href="#DejaVuSans-73"/>
     <use x="271.679688" xlink:href="#DejaVuSans-74"/>
     <use x="310.888672" xlink:href="#DejaVuSans-69"/>
     <use x="338.671875" xlink:href="#DejaVuSans-63"/>
    </g>
   </g>
  </g>
  <g id="axes_2">
   <g id="PolyCollection_1">
    <defs>
     <path d="M 43.2 -43.2 
L 43.2 -43.200155 
L 44.222338 -43.200183 
L 45.244675 -43.200214 
L 46.267013 -43.200251 
L 47.289351 -43.200294 
L 48.311688 -43.200345 
L 49.334026 -43.200403 
L 50.356364 -43.200471 
L 51.378701 -43.20055 
L 52.401039 -43.200641 
L 53.423377 -43.200747 
L 54.445714 -43.200869 
L 55.468052 -43.201011 
L 56.49039 -43.201174 
L 57.512727 -43.201363 
L 58.535065 -43.20158 
L 59.557403 -43.201831 
L 60.57974 -43.202119 
L 61.602078 -43.202451 
L 62.624416 -43.202831 
L 63.646753 -43.203268 
L 64.669091 -43.203768 
L 65.691429 -43.204341 
L 66.713766 -43.204997 
L 67.736104 -43.205746 
L 68.758442 -43.206601 
L 69.780779 -43.207576 
L 70.803117 -43.208688 
L 71.825455 -43.209953 
L 72.847792 -43.211392 
L 73.87013 -43.213027 
L 74.892468 -43.214883 
L 75.914805 -43.216987 
L 76.937143 -43.21937 
L 77.959481 -43.222067 
L 78.981818 -43.225117 
L 80.004156 -43.228561 
L 81.026494 -43.232447 
L 82.048831 -43.236827 
L 83.071169 -43.24176 
L 84.093506 -43.247309 
L 85.115844 -43.253546 
L 86.138182 -43.260548 
L 87.160519 -43.268402 
L 88.182857 -43.277204 
L 89.205195 -43.287056 
L 90.227532 -43.298074 
L 91.24987 -43.310383 
L 92.272208 -43.324122 
L 93.294545 -43.339441 
L 94.316883 -43.356504 
L 95.339221 -43.375491 
L 96.361558 -43.396598 
L 97.383896 -43.420038 
L 98.406234 -43.446044 
L 99.428571 -43.474867 
L 100.450909 -43.50678 
L 101.473247 -43.542078 
L 102.495584 -43.581083 
L 103.517922 -43.624139 
L 104.54026 -43.67162 
L 105.562597 -43.723927 
L 106.584935 -43.781492 
L 107.607273 -43.844781 
L 108.62961 -43.914292 
L 109.651948 -43.990558 
L 110.674286 -44.074151 
L 111.696623 -44.165682 
L 112.718961 -44.265803 
L 113.741299 -44.375207 
L 114.763636 -44.494633 
L 115.785974 -44.624866 
L 116.808312 -44.766737 
L 117.830649 -44.921128 
L 118.852987 -45.08897 
L 119.875325 -45.271246 
L 120.897662 -45.468994 
L 121.92 -45.683303 
L 122.942338 -45.91532 
L 123.964675 -46.166247 
L 124.987013 -46.43734 
L 126.009351 -46.729915 
L 127.031688 -47.045343 
L 128.054026 -47.385051 
L 129.076364 -47.750523 
L 130.098701 -48.143297 
L 131.121039 -48.564966 
L 132.143377 -49.017175 
L 133.165714 -49.501619 
L 134.188052 -50.020042 
L 135.21039 -50.574232 
L 136.232727 -51.16602 
L 137.255065 -51.797276 
L 138.277403 -52.469904 
L 139.29974 -53.185837 
L 140.322078 -53.947032 
L 141.344416 -54.755467 
L 142.366753 -55.613131 
L 143.389091 -56.522019 
L 144.411429 -57.484124 
L 144.411429 -57.484124 
L 145.944935 -59.031401 
L 147.478442 -60.709492 
L 149.011948 -62.524852 
L 150.545455 -64.483707 
L 152.078961 -66.591971 
L 153.612468 -68.855166 
L 155.145974 -71.278331 
L 156.679481 -73.865934 
L 158.212987 -76.621779 
L 159.746494 -79.54891 
L 161.28 -82.649514 
L 162.813506 -85.924835 
L 164.347013 -89.375072 
L 165.880519 -92.999298 
L 167.414026 -96.795375 
L 168.947532 -100.759878 
L 170.481039 -104.888025 
L 172.014545 -109.173621 
L 173.548052 -113.609009 
L 175.081558 -118.185035 
L 176.615065 -122.891027 
L 178.148571 -127.714786 
L 179.682078 -132.642602 
L 181.215584 -137.659276 
L 182.749091 -142.748163 
L 184.282597 -147.89124 
L 185.816104 -153.069182 
L 187.34961 -158.261463 
L 188.883117 -163.446473 
L 190.416623 -168.601652 
L 191.95013 -173.70364 
L 193.483636 -178.728442 
L 195.017143 -183.651609 
L 196.550649 -188.44843 
L 198.084156 -193.094132 
L 199.617662 -197.564087 
L 201.151169 -201.834031 
L 202.684675 -205.880279 
L 204.218182 -209.679939 
L 205.751688 -213.211134 
L 207.285195 -216.453204 
L 208.818701 -219.38691 
L 210.352208 -221.994624 
L 211.885714 -224.260506 
L 213.419221 -226.170661 
L 214.952727 -227.713285 
L 216.486234 -228.878781 
L 218.01974 -229.659866 
L 219.553247 -230.05164 
L 221.086753 -230.05164 
L 222.62026 -229.659866 
L 224.153766 -228.878781 
L 225.687273 -227.713285 
L 227.220779 -226.170661 
L 228.754286 -224.260506 
L 230.287792 -221.994624 
L 231.821299 -219.38691 
L 233.354805 -216.453204 
L 234.888312 -213.211134 
L 236.421818 -209.679939 
L 237.955325 -205.880279 
L 239.488831 -201.834031 
L 241.022338 -197.564087 
L 242.555844 -193.094132 
L 244.089351 -188.44843 
L 245.622857 -183.651609 
L 247.156364 -178.728442 
L 248.68987 -173.70364 
L 250.223377 -168.601652 
L 251.756883 -163.446473 
L 253.29039 -158.261463 
L 254.823896 -153.069182 
L 256.357403 -147.89124 
L 257.890909 -142.748163 
L 259.424416 -137.659276 
L 260.957922 -132.642602 
L 262.491429 -127.714786 
L 264.024935 -122.891027 
L 265.558442 -118.185035 
L 267.091948 -113.609009 
L 268.625455 -109.173621 
L 270.158961 -104.888025 
L 271.692468 -100.759878 
L 273.225974 -96.795375 
L 274.759481 -92.999298 
L 276.292987 -89.375072 
L 277.826494 -85.924835 
L 279.36 -82.649514 
L 280.893506 -79.54891 
L 282.427013 -76.621779 
L 283.960519 -73.865934 
L 285.494026 -71.278331 
L 287.027532 -68.855166 
L 288.561039 -66.591971 
L 290.094545 -64.483707 
L 291.628052 -62.524852 
L 293.161558 -60.709492 
L 294.695065 -59.031401 
L 296.228571 -57.484124 
L 296.228571 -43.2 
L 296.228571 -43.2 
L 294.695065 -43.2 
L 293.161558 -43.2 
L 291.628052 -43.2 
L 290.094545 -43.2 
L 288.561039 -43.2 
L 287.027532 -43.2 
L 285.494026 -43.2 
L 283.960519 -43.2 
L 282.427013 -43.2 
L 280.893506 -43.2 
L 279.36 -43.2 
L 277.826494 -43.2 
L 276.292987 -43.2 
L 274.759481 -43.2 
L 273.225974 -43.2 
L 271.692468 -43.2 
L 270.158961 -43.2 
L 268.625455 -43.2 
L 267.091948 -43.2 
L 265.558442 -43.2 
L 264.024935 -43.2 
L 262.491429 -43.2 
L 260.957922 -43.2 
L 259.424416 -43.2 
L 257.890909 -43.2 
L 256.357403 -43.2 
L 254.823896 -43.2 
L 253.29039 -43.2 
L 251.756883 -43.2 
L 250.223377 -43.2 
L 248.68987 -43.2 
L 247.156364 -43.2 
L 245.622857 -43.2 
L 244.089351 -43.2 
L 242.555844 -43.2 
L 241.022338 -43.2 
L 239.488831 -43.2 
L 237.955325 -43.2 
L 236.421818 -43.2 
L 234.888312 -43.2 
L 233.354805 -43.2 
L 231.821299 -43.2 
L 230.287792 -43.2 
L 228.754286 -43.2 
L 227.220779 -43.2 
L 225.687273 -43.2 
L 224.153766 -43.2 
L 222.62026 -43.2 
L 221.086753 -43.2 
L 219.553247 -43.2 
L 218.01974 -43.2 
L 216.486234 -43.2 
L 214.952727 -43.2 
L 213.419221 -43.2 
L 211.885714 -43.2 
L 210.352208 -43.2 
L 208.818701 -43.2 
L 207.285195 -43.2 
L 205.751688 -43.2 
L 204.218182 -43.2 
L 202.684675 -43.2 
L 201.151169 -43.2 
L 199.617662 -43.2 
L 198.084156 -43.2 
L 196.550649 -43.2 
L 195.017143 -43.2 
L 193.483636 -43.2 
L 191.95013 -43.2 
L 190.416623 -43.2 
L 188.883117 -43.2 
L 187.34961 -43.2 
L 185.816104 -43.2 
L 184.282597 -43.2 
L 182.749091 -43.2 
L 181.215584 -43.2 
L 179.682078 -43.2 
L 178.148571 -43.2 
L 176.615065 -43.2 
L 175.081558 -43.2 
L 173.548052 -43.2 
L 172.014545 -43.2 
L 170.481039 -43.2 
L 168.947532 -43.2 
L 167.414026 -43.2 
L 165.880519 -43.2 
L 164.347013 -43.2 
L 162.813506 -43.2 
L 161.28 -43.2 
L 159.746494 -43.2 
L 158.212987 -43.2 
L 156.679481 -43.2 
L 155.145974 -43.2 
L 153.612468 -43.2 
L 152.078961 -43.2 
L 150.545455 -43.2 
L 149.011948 -43.2 
L 147.478442 -43.2 
L 145.944935 -43.2 
L 144.411429 -43.2 
L 144.411429 -43.2 
L 143.389091 -43.2 
L 142.366753 -43.2 
L 141.344416 -43.2 
L 140.322078 -43.2 
L 139.29974 -43.2 
L 138.277403 -43.2 
L 137.255065 -43.2 
L 136.232727 -43.2 
L 135.21039 -43.2 
L 134.188052 -43.2 
L 133.165714 -43.2 
L 132.143377 -43.2 
L 131.121039 -43.2 
L 130.098701 -43.2 
L 129.076364 -43.2 
L 128.054026 -43.2 
L 127.031688 -43.2 
L 126.009351 -43.2 
L 124.987013 -43.2 
L 123.964675 -43.2 
L 122.942338 -43.2 
L 121.92 -43.2 
L 120.897662 -43.2 
L 119.875325 -43.2 
L 118.852987 -43.2 
L 117.830649 -43.2 
L 116.808312 -43.2 
L 115.785974 -43.2 
L 114.763636 -43.2 
L 113.741299 -43.2 
L 112.718961 -43.2 
L 111.696623 -43.2 
L 110.674286 -43.2 
L 109.651948 -43.2 
L 108.62961 -43.2 
L 107.607273 -43.2 
L 106.584935 -43.2 
L 105.562597 -43.2 
L 104.54026 -43.2 
L 103.517922 -43.2 
L 102.495584 -43.2 
L 101.473247 -43.2 
L 100.450909 -43.2 
L 99.428571 -43.2 
L 98.406234 -43.2 
L 97.383896 -43.2 
L 96.361558 -43.2 
L 95.339221 -43.2 
L 94.316883 -43.2 
L 93.294545 -43.2 
L 92.272208 -43.2 
L 91.24987 -43.2 
L 90.227532 -43.2 
L 89.205195 -43.2 
L 88.182857 -43.2 
L 87.160519 -43.2 
L 86.138182 -43.2 
L 85.115844 -43.2 
L 84.093506 -43.2 
L 83.071169 -43.2 
L 82.048831 -43.2 
L 81.026494 -43.2 
L 80.004156 -43.2 
L 78.981818 -43.2 
L 77.959481 -43.2 
L 76.937143 -43.2 
L 75.914805 -43.2 
L 74.892468 -43.2 
L 73.87013 -43.2 
L 72.847792 -43.2 
L 71.825455 -43.2 
L 70.803117 -43.2 
L 69.780779 -43.2 
L 68.758442 -43.2 
L 67.736104 -43.2 
L 66.713766 -43.2 
L 65.691429 -43.2 
L 64.669091 -43.2 
L 63.646753 -43.2 
L 62.624416 -43.2 
L 61.602078 -43.2 
L 60.57974 -43.2 
L 59.557403 -43.2 
L 58.535065 -43.2 
L 57.512727 -43.2 
L 56.49039 -43.2 
L 55.468052 -43.2 
L 54.445714 -43.2 
L 53.423377 -43.2 
L 52.401039 -43.2 
L 51.378701 -43.2 
L 50.356364 -43.2 
L 49.334026 -43.2 
L 48.311688 -43.2 
L 47.289351 -43.2 
L 46.267013 -43.2 
L 45.244675 -43.2 
L 44.222338 -43.2 
L 43.2 -43.2 
z
" id="m945c35bb17" style="stroke:#f0ad4e;stroke-opacity:0.7;"/>
    </defs>
    <g clip-path="url(#pf792e39353)">
     <use style="fill:#f0ad4e;fill-opacity:0.7;stroke:#f0ad4e;stroke-opacity:0.7;" x="0" xlink:href="#m945c35bb17" y="288"/>
    </g>
   </g>
   <g id="PolyCollection_2">
    <defs>
     <path d="M 296.228571 -43.2 
L 296.228571 -57.484124 
L 297.250909 -56.522019 
L 298.273247 -55.613131 
L 299.295584 -54.755467 
L 300.317922 -53.947032 
L 301.34026 -53.185837 
L 302.362597 -52.469904 
L 303.384935 -51.797276 
L 304.407273 -51.16602 
L 305.42961 -50.574232 
L 306.451948 -50.020042 
L 307.474286 -49.501619 
L 308.496623 -49.017175 
L 309.518961 -48.564966 
L 310.541299 -48.143297 
L 311.563636 -47.750523 
L 312.585974 -47.385051 
L 313.608312 -47.045343 
L 314.630649 -46.729915 
L 315.652987 -46.43734 
L 316.675325 -46.166247 
L 317.697662 -45.91532 
L 318.72 -45.683303 
L 319.742338 -45.468994 
L 320.764675 -45.271246 
L 321.787013 -45.08897 
L 322.809351 -44.921128 
L 323.831688 -44.766737 
L 324.854026 -44.624866 
L 325.876364 -44.494633 
L 326.898701 -44.375207 
L 327.921039 -44.265803 
L 328.943377 -44.165682 
L 329.965714 -44.074151 
L 330.988052 -43.990558 
L 332.01039 -43.914292 
L 333.032727 -43.844781 
L 334.055065 -43.781492 
L 335.077403 -43.723927 
L 336.09974 -43.67162 
L 337.122078 -43.624139 
L 338.144416 -43.581083 
L 339.166753 -43.542078 
L 340.189091 -43.50678 
L 341.211429 -43.474867 
L 342.233766 -43.446044 
L 343.256104 -43.420038 
L 344.278442 -43.396598 
L 345.300779 -43.375491 
L 346.323117 -43.356504 
L 347.345455 -43.339441 
L 348.367792 -43.324122 
L 349.39013 -43.310383 
L 350.412468 -43.298074 
L 351.434805 -43.287056 
L 352.457143 -43.277204 
L 353.479481 -43.268402 
L 354.501818 -43.260548 
L 355.524156 -43.253546 
L 356.546494 -43.247309 
L 357.568831 -43.24176 
L 358.591169 -43.236827 
L 359.613506 -43.232447 
L 360.635844 -43.228561 
L 361.658182 -43.225117 
L 362.680519 -43.222067 
L 363.702857 -43.21937 
L 364.725195 -43.216987 
L 365.747532 -43.214883 
L 366.76987 -43.213027 
L 367.792208 -43.211392 
L 368.814545 -43.209953 
L 369.836883 -43.208688 
L 370.859221 -43.207576 
L 371.881558 -43.206601 
L 372.903896 -43.205746 
L 373.926234 -43.204997 
L 374.948571 -43.204341 
L 375.970909 -43.203768 
L 376.993247 -43.203268 
L 378.015584 -43.202831 
L 379.037922 -43.202451 
L 380.06026 -43.202119 
L 381.082597 -43.201831 
L 382.104935 -43.20158 
L 383.127273 -43.201363 
L 384.14961 -43.201174 
L 385.171948 -43.201011 
L 386.194286 -43.200869 
L 387.216623 -43.200747 
L 388.238961 -43.200641 
L 389.261299 -43.20055 
L 390.283636 -43.200471 
L 391.305974 -43.200403 
L 392.328312 -43.200345 
L 393.350649 -43.200294 
L 394.372987 -43.200251 
L 395.395325 -43.200214 
L 396.417662 -43.200183 
L 397.44 -43.200155 
L 397.44 -43.2 
L 397.44 -43.2 
L 396.417662 -43.2 
L 395.395325 -43.2 
L 394.372987 -43.2 
L 393.350649 -43.2 
L 392.328312 -43.2 
L 391.305974 -43.2 
L 390.283636 -43.2 
L 389.261299 -43.2 
L 388.238961 -43.2 
L 387.216623 -43.2 
L 386.194286 -43.2 
L 385.171948 -43.2 
L 384.14961 -43.2 
L 383.127273 -43.2 
L 382.104935 -43.2 
L 381.082597 -43.2 
L 380.06026 -43.2 
L 379.037922 -43.2 
L 378.015584 -43.2 
L 376.993247 -43.2 
L 375.970909 -43.2 
L 374.948571 -43.2 
L 373.926234 -43.2 
L 372.903896 -43.2 
L 371.881558 -43.2 
L 370.859221 -43.2 
L 369.836883 -43.2 
L 368.814545 -43.2 
L 367.792208 -43.2 
L 366.76987 -43.2 
L 365.747532 -43.2 
L 364.725195 -43.2 
L 363.702857 -43.2 
L 362.680519 -43.2 
L 361.658182 -43.2 
L 360.635844 -43.2 
L 359.613506 -43.2 
L 358.591169 -43.2 
L 357.568831 -43.2 
L 356.546494 -43.2 
L 355.524156 -43.2 
L 354.501818 -43.2 
L 353.479481 -43.2 
L 352.457143 -43.2 
L 351.434805 -43.2 
L 350.412468 -43.2 
L 349.39013 -43.2 
L 348.367792 -43.2 
L 347.345455 -43.2 
L 346.323117 -43.2 
L 345.300779 -43.2 
L 344.278442 -43.2 
L 343.256104 -43.2 
L 342.233766 -43.2 
L 341.211429 -43.2 
L 340.189091 -43.2 
L 339.166753 -43.2 
L 338.144416 -43.2 
L 337.122078 -43.2 
L 336.09974 -43.2 
L 335.077403 -43.2 
L 334.055065 -43.2 
L 333.032727 -43.2 
L 332.01039 -43.2 
L 330.988052 -43.2 
L 329.965714 -43.2 
L 328.943377 -43.2 
L 327.921039 -43.2 
L 326.898701 -43.2 
L 325.876364 -43.2 
L 324.854026 -43.2 
L 323.831688 -43.2 
L 322.809351 -43.2 
L 321.787013 -43.2 
L 320.764675 -43.2 
L 319.742338 -43.2 
L 318.72 -43.2 
L 317.697662 -43.2 
L 316.675325 -43.2 
L 315.652987 -43.2 
L 314.630649 -43.2 
L 313.608312 -43.2 
L 312.585974 -43.2 
L 311.563636 -43.2 
L 310.541299 -43.2 
L 309.518961 -43.2 
L 308.496623 -43.2 
L 307.474286 -43.2 
L 306.451948 -43.2 
L 305.42961 -43.2 
L 304.407273 -43.2 
L 303.384935 -43.2 
L 302.362597 -43.2 
L 301.34026 -43.2 
L 300.317922 -43.2 
L 299.295584 -43.2 
L 298.273247 -43.2 
L 297.250909 -43.2 
L 296.228571 -43.2 
z
" id="m03410d1680" style="stroke:#d9534f;stroke-opacity:0.8;"/>
    </defs>
    <g clip-path="url(#pf792e39353)">
     <use style="fill:#d9534f;fill-opacity:0.8;stroke:#d9534f;stroke-opacity:0.8;" x="0" xlink:href="#m03410d1680" y="288"/>
    </g>
   </g>
  </g>
  <g id="axes_3">
   <g id="line2d_14">
    <path d="M 220.32 43.2 
L 220.32 23.04 
" style="fill:none;stroke:#d2d2d2;stroke-dasharray:5.6,2.4;stroke-dashoffset:0;stroke-width:1.5;"/>
   </g>
   <g id="line2d_15">
    <path d="M 144.411429 244.8 
L 144.411429 23.04 
" style="fill:none;stroke:#d2d2d2;stroke-dasharray:5.6,2.4;stroke-dashoffset:0;stroke-width:1.5;"/>
   </g>
   <g id="text_14">
    <!-- $\mid\hat{p}-\pi_0\mid$ -->
    <defs>
     <path d="M 21.09375 77.09375 
L 28.90625 77.09375 
L 28.90625 -21.390625 
L 21.09375 -21.390625 
z
" id="DejaVuSans-2223"/>
     <path d="M -28.609375 79.984375 
L -21.390625 79.984375 
L -9.421875 61.625 
L -16.21875 61.625 
L -25 73.578125 
L -33.796875 61.625 
L -40.578125 61.625 
z
M -25 56 
z
" id="DejaVuSans-302"/>
     <path d="M 49.609375 33.6875 
Q 49.609375 40.875 46.484375 44.671875 
Q 43.359375 48.484375 37.5 48.484375 
Q 33.5 48.484375 29.859375 46.4375 
Q 26.21875 44.390625 23.390625 40.484375 
Q 20.609375 36.625 18.9375 31.15625 
Q 17.28125 25.6875 17.28125 20.3125 
Q 17.28125 13.484375 20.40625 9.796875 
Q 23.53125 6.109375 29.296875 6.109375 
Q 33.546875 6.109375 37.1875 8.109375 
Q 40.828125 10.109375 43.40625 13.921875 
Q 46.1875 17.921875 47.890625 23.34375 
Q 49.609375 28.765625 49.609375 33.6875 
M 21.78125 46.390625 
Q 25.390625 51.125 30.296875 53.5625 
Q 35.203125 56 41.21875 56 
Q 49.609375 56 54.25 50.5 
Q 58.890625 45.015625 58.890625 35.109375 
Q 58.890625 27 56 19.65625 
Q 53.125 12.3125 47.703125 6.5 
Q 44.09375 2.640625 39.546875 0.609375 
Q 35.015625 -1.421875 29.984375 -1.421875 
Q 24.171875 -1.421875 20.21875 1 
Q 16.265625 3.421875 14.3125 8.203125 
L 8.6875 -20.796875 
L -0.296875 -20.796875 
L 14.40625 54.6875 
L 23.390625 54.6875 
z
" id="DejaVuSans-Oblique-70"/>
     <path d="M 10.59375 35.5 
L 73.1875 35.5 
L 73.1875 27.203125 
L 10.59375 27.203125 
z
" id="DejaVuSans-2212"/>
    </defs>
    <g style="fill:#d2d2d2;" transform="translate(225.234286 33.12)scale(0.14 -0.14)">
     <use transform="translate(19.482422 0.515625)" xlink:href="#DejaVuSans-2223"/>
     <use transform="translate(153.412109 13.015625)" xlink:href="#DejaVuSans-302"/>
     <use transform="translate(88.964844 0.515625)" xlink:href="#DejaVuSans-Oblique-70"/>
     <use transform="translate(171.923828 0.515625)" xlink:href="#DejaVuSans-2212"/>
     <use transform="translate(275.195312 0.515625)" xlink:href="#DejaVuSans-Oblique-3c0"/>
     <use transform="translate(335.400391 -15.890625)scale(0.7)" xlink:href="#DejaVuSans-30"/>
     <use transform="translate(402.15332 0.515625)" xlink:href="#DejaVuSans-2223"/>
    </g>
   </g>
   <g id="patch_61">
    <path d="M 291.995641 43.2 
Q 258.275088 43.2 224.554535 43.2 
" style="fill:none;stroke:#d2d2d2;stroke-linecap:round;stroke-width:2;"/>
    <path d="M 287.995641 41.2 
L 291.995641 43.2 
L 287.995641 45.2 
" style="fill:none;stroke:#d2d2d2;stroke-linecap:round;stroke-width:2;"/>
    <path d="M 228.554535 45.2 
L 224.554535 43.2 
L 228.554535 41.2 
" style="fill:none;stroke:#d2d2d2;stroke-linecap:round;stroke-width:2;"/>
   </g>
   <g id="text_15">
    <!-- $\mid\hat{p}-\pi_0\mid$ -->
    <g style="fill:#d2d2d2;" transform="translate(149.325714 33.12)scale(0.14 -0.14)">
     <use transform="translate(19.482422 0.515625)" xlink:href="#DejaVuSans-2223"/>
     <use transform="translate(153.412109 13.015625)" xlink:href="#DejaVuSans-302"/>
     <use transform="translate(88.964844 0.515625)" xlink:href="#DejaVuSans-Oblique-70"/>
     <use transform="translate(171.923828 0.515625)" xlink:href="#DejaVuSans-2212"/>
     <use transform="translate(275.195312 0.515625)" xlink:href="#DejaVuSans-Oblique-3c0"/>
     <use transform="translate(335.400391 -15.890625)scale(0.7)" xlink:href="#DejaVuSans-30"/>
     <use transform="translate(402.15332 0.515625)" xlink:href="#DejaVuSans-2223"/>
    </g>
   </g>
   <g id="patch_62">
    <path d="M 216.08707 43.2 
Q 182.366517 43.2 148.645964 43.2 
" style="fill:none;stroke:#d2d2d2;stroke-linecap:round;stroke-width:2;"/>
    <path d="M 212.08707 41.2 
L 216.08707 43.2 
L 212.08707 45.2 
" style="fill:none;stroke:#d2d2d2;stroke-linecap:round;stroke-width:2;"/>
    <path d="M 152.645964 45.2 
L 148.645964 43.2 
L 152.645964 41.2 
" style="fill:none;stroke:#d2d2d2;stroke-linecap:round;stroke-width:2;"/>
   </g>
   <g id="PolyCollection_3">
    <defs>
     <path d="M 43.2 -43.2 
L 43.2 -43.200155 
L 44.222338 -43.200183 
L 45.244675 -43.200214 
L 46.267013 -43.200251 
L 47.289351 -43.200294 
L 48.311688 -43.200345 
L 49.334026 -43.200403 
L 50.356364 -43.200471 
L 51.378701 -43.20055 
L 52.401039 -43.200641 
L 53.423377 -43.200747 
L 54.445714 -43.200869 
L 55.468052 -43.201011 
L 56.49039 -43.201174 
L 57.512727 -43.201363 
L 58.535065 -43.20158 
L 59.557403 -43.201831 
L 60.57974 -43.202119 
L 61.602078 -43.202451 
L 62.624416 -43.202831 
L 63.646753 -43.203268 
L 64.669091 -43.203768 
L 65.691429 -43.204341 
L 66.713766 -43.204997 
L 67.736104 -43.205746 
L 68.758442 -43.206601 
L 69.780779 -43.207576 
L 70.803117 -43.208688 
L 71.825455 -43.209953 
L 72.847792 -43.211392 
L 73.87013 -43.213027 
L 74.892468 -43.214883 
L 75.914805 -43.216987 
L 76.937143 -43.21937 
L 77.959481 -43.222067 
L 78.981818 -43.225117 
L 80.004156 -43.228561 
L 81.026494 -43.232447 
L 82.048831 -43.236827 
L 83.071169 -43.24176 
L 84.093506 -43.247309 
L 85.115844 -43.253546 
L 86.138182 -43.260548 
L 87.160519 -43.268402 
L 88.182857 -43.277204 
L 89.205195 -43.287056 
L 90.227532 -43.298074 
L 91.24987 -43.310383 
L 92.272208 -43.324122 
L 93.294545 -43.339441 
L 94.316883 -43.356504 
L 95.339221 -43.375491 
L 96.361558 -43.396598 
L 97.383896 -43.420038 
L 98.406234 -43.446044 
L 99.428571 -43.474867 
L 100.450909 -43.50678 
L 101.473247 -43.542078 
L 102.495584 -43.581083 
L 103.517922 -43.624139 
L 104.54026 -43.67162 
L 105.562597 -43.723927 
L 106.584935 -43.781492 
L 107.607273 -43.844781 
L 108.62961 -43.914292 
L 109.651948 -43.990558 
L 110.674286 -44.074151 
L 111.696623 -44.165682 
L 112.718961 -44.265803 
L 113.741299 -44.375207 
L 114.763636 -44.494633 
L 115.785974 -44.624866 
L 116.808312 -44.766737 
L 117.830649 -44.921128 
L 118.852987 -45.08897 
L 119.875325 -45.271246 
L 120.897662 -45.468994 
L 121.92 -45.683303 
L 122.942338 -45.91532 
L 123.964675 -46.166247 
L 124.987013 -46.43734 
L 126.009351 -46.729915 
L 127.031688 -47.045343 
L 128.054026 -47.385051 
L 129.076364 -47.750523 
L 130.098701 -48.143297 
L 131.121039 -48.564966 
L 132.143377 -49.017175 
L 133.165714 -49.501619 
L 134.188052 -50.020042 
L 135.21039 -50.574232 
L 136.232727 -51.16602 
L 137.255065 -51.797276 
L 138.277403 -52.469904 
L 139.29974 -53.185837 
L 140.322078 -53.947032 
L 141.344416 -54.755467 
L 142.366753 -55.613131 
L 143.389091 -56.522019 
L 144.411429 -57.484124 
L 144.411429 -43.2 
L 144.411429 -43.2 
L 143.389091 -43.2 
L 142.366753 -43.2 
L 141.344416 -43.2 
L 140.322078 -43.2 
L 139.29974 -43.2 
L 138.277403 -43.2 
L 137.255065 -43.2 
L 136.232727 -43.2 
L 135.21039 -43.2 
L 134.188052 -43.2 
L 133.165714 -43.2 
L 132.143377 -43.2 
L 131.121039 -43.2 
L 130.098701 -43.2 
L 129.076364 -43.2 
L 128.054026 -43.2 
L 127.031688 -43.2 
L 126.009351 -43.2 
L 124.987013 -43.2 
L 123.964675 -43.2 
L 122.942338 -43.2 
L 121.92 -43.2 
L 120.897662 -43.2 
L 119.875325 -43.2 
L 118.852987 -43.2 
L 117.830649 -43.2 
L 116.808312 -43.2 
L 115.785974 -43.2 
L 114.763636 -43.2 
L 113.741299 -43.2 
L 112.718961 -43.2 
L 111.696623 -43.2 
L 110.674286 -43.2 
L 109.651948 -43.2 
L 108.62961 -43.2 
L 107.607273 -43.2 
L 106.584935 -43.2 
L 105.562597 -43.2 
L 104.54026 -43.2 
L 103.517922 -43.2 
L 102.495584 -43.2 
L 101.473247 -43.2 
L 100.450909 -43.2 
L 99.428571 -43.2 
L 98.406234 -43.2 
L 97.383896 -43.2 
L 96.361558 -43.2 
L 95.339221 -43.2 
L 94.316883 -43.2 
L 93.294545 -43.2 
L 92.272208 -43.2 
L 91.24987 -43.2 
L 90.227532 -43.2 
L 89.205195 -43.2 
L 88.182857 -43.2 
L 87.160519 -43.2 
L 86.138182 -43.2 
L 85.115844 -43.2 
L 84.093506 -43.2 
L 83.071169 -43.2 
L 82.048831 -43.2 
L 81.026494 -43.2 
L 80.004156 -43.2 
L 78.981818 -43.2 
L 77.959481 -43.2 
L 76.937143 -43.2 
L 75.914805 -43.2 
L 74.892468 -43.2 
L 73.87013 -43.2 
L 72.847792 -43.2 
L 71.825455 -43.2 
L 70.803117 -43.2 
L 69.780779 -43.2 
L 68.758442 -43.2 
L 67.736104 -43.2 
L 66.713766 -43.2 
L 65.691429 -43.2 
L 64.669091 -43.2 
L 63.646753 -43.2 
L 62.624416 -43.2 
L 61.602078 -43.2 
L 60.57974 -43.2 
L 59.557403 -43.2 
L 58.535065 -43.2 
L 57.512727 -43.2 
L 56.49039 -43.2 
L 55.468052 -43.2 
L 54.445714 -43.2 
L 53.423377 -43.2 
L 52.401039 -43.2 
L 51.378701 -43.2 
L 50.356364 -43.2 
L 49.334026 -43.2 
L 48.311688 -43.2 
L 47.289351 -43.2 
L 46.267013 -43.2 
L 45.244675 -43.2 
L 44.222338 -43.2 
L 43.2 -43.2 
z
" id="mc0894ddfc6" style="stroke:#d9534f;stroke-opacity:0.8;"/>
    </defs>
    <g clip-path="url(#pf792e39353)">
     <use style="fill:#d9534f;fill-opacity:0.8;stroke:#d9534f;stroke-opacity:0.8;" x="0" xlink:href="#mc0894ddfc6" y="288"/>
    </g>
   </g>
   <g id="PolyCollection_4">
    <defs>
     <path d="M 144.411429 -43.2 
L 144.411429 -57.484124 
L 145.944935 -59.031401 
L 147.478442 -60.709492 
L 149.011948 -62.524852 
L 150.545455 -64.483707 
L 152.078961 -66.591971 
L 153.612468 -68.855166 
L 155.145974 -71.278331 
L 156.679481 -73.865934 
L 158.212987 -76.621779 
L 159.746494 -79.54891 
L 161.28 -82.649514 
L 162.813506 -85.924835 
L 164.347013 -89.375072 
L 165.880519 -92.999298 
L 167.414026 -96.795375 
L 168.947532 -100.759878 
L 170.481039 -104.888025 
L 172.014545 -109.173621 
L 173.548052 -113.609009 
L 175.081558 -118.185035 
L 176.615065 -122.891027 
L 178.148571 -127.714786 
L 179.682078 -132.642602 
L 181.215584 -137.659276 
L 182.749091 -142.748163 
L 184.282597 -147.89124 
L 185.816104 -153.069182 
L 187.34961 -158.261463 
L 188.883117 -163.446473 
L 190.416623 -168.601652 
L 191.95013 -173.70364 
L 193.483636 -178.728442 
L 195.017143 -183.651609 
L 196.550649 -188.44843 
L 198.084156 -193.094132 
L 199.617662 -197.564087 
L 201.151169 -201.834031 
L 202.684675 -205.880279 
L 204.218182 -209.679939 
L 205.751688 -213.211134 
L 207.285195 -216.453204 
L 208.818701 -219.38691 
L 210.352208 -221.994624 
L 211.885714 -224.260506 
L 213.419221 -226.170661 
L 214.952727 -227.713285 
L 216.486234 -228.878781 
L 218.01974 -229.659866 
L 219.553247 -230.05164 
L 221.086753 -230.05164 
L 222.62026 -229.659866 
L 224.153766 -228.878781 
L 225.687273 -227.713285 
L 227.220779 -226.170661 
L 228.754286 -224.260506 
L 230.287792 -221.994624 
L 231.821299 -219.38691 
L 233.354805 -216.453204 
L 234.888312 -213.211134 
L 236.421818 -209.679939 
L 237.955325 -205.880279 
L 239.488831 -201.834031 
L 241.022338 -197.564087 
L 242.555844 -193.094132 
L 244.089351 -188.44843 
L 245.622857 -183.651609 
L 247.156364 -178.728442 
L 248.68987 -173.70364 
L 250.223377 -168.601652 
L 251.756883 -163.446473 
L 253.29039 -158.261463 
L 254.823896 -153.069182 
L 256.357403 -147.89124 
L 257.890909 -142.748163 
L 259.424416 -137.659276 
L 260.957922 -132.642602 
L 262.491429 -127.714786 
L 264.024935 -122.891027 
L 265.558442 -118.185035 
L 267.091948 -113.609009 
L 268.625455 -109.173621 
L 270.158961 -104.888025 
L 271.692468 -100.759878 
L 273.225974 -96.795375 
L 274.759481 -92.999298 
L 276.292987 -89.375072 
L 277.826494 -85.924835 
L 279.36 -82.649514 
L 280.893506 -79.54891 
L 282.427013 -76.621779 
L 283.960519 -73.865934 
L 285.494026 -71.278331 
L 287.027532 -68.855166 
L 288.561039 -66.591971 
L 290.094545 -64.483707 
L 291.628052 -62.524852 
L 293.161558 -60.709492 
L 294.695065 -59.031401 
L 296.228571 -57.484124 
L 296.228571 -43.2 
L 296.228571 -43.2 
L 294.695065 -43.2 
L 293.161558 -43.2 
L 291.628052 -43.2 
L 290.094545 -43.2 
L 288.561039 -43.2 
L 287.027532 -43.2 
L 285.494026 -43.2 
L 283.960519 -43.2 
L 282.427013 -43.2 
L 280.893506 -43.2 
L 279.36 -43.2 
L 277.826494 -43.2 
L 276.292987 -43.2 
L 274.759481 -43.2 
L 273.225974 -43.2 
L 271.692468 -43.2 
L 270.158961 -43.2 
L 268.625455 -43.2 
L 267.091948 -43.2 
L 265.558442 -43.2 
L 264.024935 -43.2 
L 262.491429 -43.2 
L 260.957922 -43.2 
L 259.424416 -43.2 
L 257.890909 -43.2 
L 256.357403 -43.2 
L 254.823896 -43.2 
L 253.29039 -43.2 
L 251.756883 -43.2 
L 250.223377 -43.2 
L 248.68987 -43.2 
L 247.156364 -43.2 
L 245.622857 -43.2 
L 244.089351 -43.2 
L 242.555844 -43.2 
L 241.022338 -43.2 
L 239.488831 -43.2 
L 237.955325 -43.2 
L 236.421818 -43.2 
L 234.888312 -43.2 
L 233.354805 -43.2 
L 231.821299 -43.2 
L 230.287792 -43.2 
L 228.754286 -43.2 
L 227.220779 -43.2 
L 225.687273 -43.2 
L 224.153766 -43.2 
L 222.62026 -43.2 
L 221.086753 -43.2 
L 219.553247 -43.2 
L 218.01974 -43.2 
L 216.486234 -43.2 
L 214.952727 -43.2 
L 213.419221 -43.2 
L 211.885714 -43.2 
L 210.352208 -43.2 
L 208.818701 -43.2 
L 207.285195 -43.2 
L 205.751688 -43.2 
L 204.218182 -43.2 
L 202.684675 -43.2 
L 201.151169 -43.2 
L 199.617662 -43.2 
L 198.084156 -43.2 
L 196.550649 -43.2 
L 195.017143 -43.2 
L 193.483636 -43.2 
L 191.95013 -43.2 
L 190.416623 -43.2 
L 188.883117 -43.2 
L 187.34961 -43.2 
L 185.816104 -43.2 
L 184.282597 -43.2 
L 182.749091 -43.2 
L 181.215584 -43.2 
L 179.682078 -43.2 
L 178.148571 -43.2 
L 176.615065 -43.2 
L 175.081558 -43.2 
L 173.548052 -43.2 
L 172.014545 -43.2 
L 170.481039 -43.2 
L 168.947532 -43.2 
L 167.414026 -43.2 
L 165.880519 -43.2 
L 164.347013 -43.2 
L 162.813506 -43.2 
L 161.28 -43.2 
L 159.746494 -43.2 
L 158.212987 -43.2 
L 156.679481 -43.2 
L 155.145974 -43.2 
L 153.612468 -43.2 
L 152.078961 -43.2 
L 150.545455 -43.2 
L 149.011948 -43.2 
L 147.478442 -43.2 
L 145.944935 -43.2 
L 144.411429 -43.2 
z
" id="m0c884004d1" style="stroke:#f0ad4e;stroke-opacity:0.7;"/>
    </defs>
    <g clip-path="url(#pf792e39353)">
     <use style="fill:#f0ad4e;fill-opacity:0.7;stroke:#f0ad4e;stroke-opacity:0.7;" x="0" xlink:href="#m0c884004d1" y="288"/>
    </g>
   </g>
   <g id="PolyCollection_5">
    <g clip-path="url(#pf792e39353)">
     <use style="fill:#d9534f;fill-opacity:0.8;stroke:#d9534f;stroke-opacity:0.8;" x="0" xlink:href="#m03410d1680" y="288"/>
    </g>
   </g>
  </g>
  <g id="axes_4">
   <g id="text_16">
    <!-- samples -->
    <defs>
     <path d="M 52 44.1875 
Q 55.375 50.25 60.0625 53.125 
Q 64.75 56 71.09375 56 
Q 79.640625 56 84.28125 50.015625 
Q 88.921875 44.046875 88.921875 33.015625 
L 88.921875 0 
L 79.890625 0 
L 79.890625 32.71875 
Q 79.890625 40.578125 77.09375 44.375 
Q 74.3125 48.1875 68.609375 48.1875 
Q 61.625 48.1875 57.5625 43.546875 
Q 53.515625 38.921875 53.515625 30.90625 
L 53.515625 0 
L 44.484375 0 
L 44.484375 32.71875 
Q 44.484375 40.625 41.703125 44.40625 
Q 38.921875 48.1875 33.109375 48.1875 
Q 26.21875 48.1875 22.15625 43.53125 
Q 18.109375 38.875 18.109375 30.90625 
L 18.109375 0 
L 9.078125 0 
L 9.078125 54.6875 
L 18.109375 54.6875 
L 18.109375 46.1875 
Q 21.1875 51.21875 25.484375 53.609375 
Q 29.78125 56 35.6875 56 
Q 41.65625 56 45.828125 52.96875 
Q 50 49.953125 52 44.1875 
" id="DejaVuSans-6d"/>
     <path d="M 18.109375 8.203125 
L 18.109375 -20.796875 
L 9.078125 -20.796875 
L 9.078125 54.6875 
L 18.109375 54.6875 
L 18.109375 46.390625 
Q 20.953125 51.265625 25.265625 53.625 
Q 29.59375 56 35.59375 56 
Q 45.5625 56 51.78125 48.09375 
Q 58.015625 40.1875 58.015625 27.296875 
Q 58.015625 14.40625 51.78125 6.484375 
Q 45.5625 -1.421875 35.59375 -1.421875 
Q 29.59375 -1.421875 25.265625 0.953125 
Q 20.953125 3.328125 18.109375 8.203125 
M 48.6875 27.296875 
Q 48.6875 37.203125 44.609375 42.84375 
Q 40.53125 48.484375 33.40625 48.484375 
Q 26.265625 48.484375 22.1875 42.84375 
Q 18.109375 37.203125 18.109375 27.296875 
Q 18.109375 17.390625 22.1875 11.75 
Q 26.265625 6.109375 33.40625 6.109375 
Q 40.53125 6.109375 44.609375 11.75 
Q 48.6875 17.390625 48.6875 27.296875 
" id="DejaVuSans-70"/>
     <path d="M 9.421875 75.984375 
L 18.40625 75.984375 
L 18.40625 0 
L 9.421875 0 
z
" id="DejaVuSans-6c"/>
    </defs>
    <g style="fill:#d2d2d2;" transform="translate(317.737254 57.763063)scale(0.14 -0.14)">
     <use xlink:href="#DejaVuSans-73"/>
     <use x="52.099609" xlink:href="#DejaVuSans-61"/>
     <use x="113.378906" xlink:href="#DejaVuSans-6d"/>
     <use x="210.791016" xlink:href="#DejaVuSans-70"/>
     <use x="274.267578" xlink:href="#DejaVuSans-6c"/>
     <use x="302.050781" xlink:href="#DejaVuSans-65"/>
     <use x="363.574219" xlink:href="#DejaVuSans-73"/>
    </g>
    <!-- $\geq$statistic -->
    <defs>
     <path d="M 10.59375 49.609375 
L 10.59375 58.203125 
L 73.1875 40.28125 
L 73.1875 31.984375 
L 10.59375 14.015625 
L 10.59375 22.703125 
L 57.515625 36.078125 
z
M 73.1875 8.296875 
L 73.1875 0 
L 10.59375 0 
L 10.59375 8.296875 
z
" id="DejaVuSans-2265"/>
    </defs>
    <g style="fill:#d2d2d2;" transform="translate(310.644286 73.44)scale(0.14 -0.14)">
     <use transform="translate(19.482422 0.015625)" xlink:href="#DejaVuSans-2265"/>
     <use transform="translate(122.753906 0.015625)" xlink:href="#DejaVuSans-73"/>
     <use transform="translate(174.853516 0.015625)" xlink:href="#DejaVuSans-74"/>
     <use transform="translate(214.0625 0.015625)" xlink:href="#DejaVuSans-61"/>
     <use transform="translate(275.341797 0.015625)" xlink:href="#DejaVuSans-74"/>
     <use transform="translate(314.550781 0.015625)" xlink:href="#DejaVuSans-69"/>
     <use transform="translate(342.333984 0.015625)" xlink:href="#DejaVuSans-73"/>
     <use transform="translate(394.433594 0.015625)" xlink:href="#DejaVuSans-74"/>
     <use transform="translate(433.642578 0.015625)" xlink:href="#DejaVuSans-69"/>
     <use transform="translate(461.425781 0.015625)" xlink:href="#DejaVuSans-63"/>
    </g>
   </g>
  </g>
 </g>
 <defs>
  <clipPath id="pf792e39353">
   <rect height="201.6" width="354.24" x="43.2" y="43.2"/>
  </clipPath>
 </defs>
</svg>
