<?xml version="1.0" encoding="utf-8" standalone="no"?>
<!DOCTYPE svg PUBLIC "-//W3C//DTD SVG 1.1//EN"
  "http://www.w3.org/Graphics/SVG/1.1/DTD/svg11.dtd">
<!-- Created with matplotlib (http://matplotlib.org/) -->
<svg height="288pt" version="1.1" viewBox="0 0 432 288" width="432pt" xmlns="http://www.w3.org/2000/svg" xmlns:xlink="http://www.w3.org/1999/xlink">
 <defs>
  <style type="text/css">
*{stroke-linecap:butt;stroke-linejoin:round;}
  </style>
 </defs>
 <g id="figure_1">
  <g id="patch_1">
   <path d="M 0 288 
L 432 288 
L 432 0 
L 0 0 
z
" style="fill:none;"/>
  </g>
  <g id="axes_1">
   <g id="patch_2">
    <path d="M 56.16 230.4 
L 423.36 230.4 
L 423.36 5.76 
L 56.16 5.76 
z
" style="fill:none;"/>
   </g>
   <g id="patch_3">
    <path clip-path="url(#pf7023e5e9a)" d="M 53.29125 230.4 
L 59.02875 230.4 
L 59.02875 230.4 
L 53.29125 230.4 
z
" style="fill:#5bc0de;"/>
   </g>
   <g id="patch_4">
    <path clip-path="url(#pf7023e5e9a)" d="M 59.02875 230.4 
L 64.76625 230.4 
L 64.76625 230.4 
L 59.02875 230.4 
z
" style="fill:#5bc0de;"/>
   </g>
   <g id="patch_5">
    <path clip-path="url(#pf7023e5e9a)" d="M 64.76625 230.4 
L 70.50375 230.4 
L 70.50375 230.4 
L 64.76625 230.4 
z
" style="fill:#5bc0de;"/>
   </g>
   <g id="patch_6">
    <path clip-path="url(#pf7023e5e9a)" d="M 70.50375 230.4 
L 76.24125 230.4 
L 76.24125 230.4 
L 70.50375 230.4 
z
" style="fill:#5bc0de;"/>
   </g>
   <g id="patch_7">
    <path clip-path="url(#pf7023e5e9a)" d="M 76.24125 230.4 
L 81.97875 230.4 
L 81.97875 230.4 
L 76.24125 230.4 
z
" style="fill:#5bc0de;"/>
   </g>
   <g id="patch_8">
    <path clip-path="url(#pf7023e5e9a)" d="M 81.97875 230.4 
L 87.71625 230.4 
L 87.71625 230.4 
L 81.97875 230.4 
z
" style="fill:#5bc0de;"/>
   </g>
   <g id="patch_9">
    <path clip-path="url(#pf7023e5e9a)" d="M 87.71625 230.4 
L 93.45375 230.4 
L 93.45375 230.4 
L 87.71625 230.4 
z
" style="fill:#5bc0de;"/>
   </g>
   <g id="patch_10">
    <path clip-path="url(#pf7023e5e9a)" d="M 93.45375 230.4 
L 99.19125 230.4 
L 99.19125 230.4 
L 93.45375 230.4 
z
" style="fill:#5bc0de;"/>
   </g>
   <g id="patch_11">
    <path clip-path="url(#pf7023e5e9a)" d="M 99.19125 230.4 
L 104.92875 230.4 
L 104.92875 229.330286 
L 99.19125 229.330286 
z
" style="fill:#5bc0de;"/>
   </g>
   <g id="patch_12">
    <path clip-path="url(#pf7023e5e9a)" d="M 104.92875 230.4 
L 110.66625 230.4 
L 110.66625 230.4 
L 104.92875 230.4 
z
" style="fill:#5bc0de;"/>
   </g>
   <g id="patch_13">
    <path clip-path="url(#pf7023e5e9a)" d="M 110.66625 230.4 
L 116.40375 230.4 
L 116.40375 230.4 
L 110.66625 230.4 
z
" style="fill:#5bc0de;"/>
   </g>
   <g id="patch_14">
    <path clip-path="url(#pf7023e5e9a)" d="M 116.40375 230.4 
L 122.14125 230.4 
L 122.14125 230.4 
L 116.40375 230.4 
z
" style="fill:#5bc0de;"/>
   </g>
   <g id="patch_15">
    <path clip-path="url(#pf7023e5e9a)" d="M 122.14125 230.4 
L 127.87875 230.4 
L 127.87875 216.493714 
L 122.14125 216.493714 
z
" style="fill:#5bc0de;"/>
   </g>
   <g id="patch_16">
    <path clip-path="url(#pf7023e5e9a)" d="M 127.87875 230.4 
L 133.61625 230.4 
L 133.61625 230.4 
L 127.87875 230.4 
z
" style="fill:#5bc0de;"/>
   </g>
   <g id="patch_17">
    <path clip-path="url(#pf7023e5e9a)" d="M 133.61625 230.4 
L 139.35375 230.4 
L 139.35375 230.4 
L 133.61625 230.4 
z
" style="fill:#5bc0de;"/>
   </g>
   <g id="patch_18">
    <path clip-path="url(#pf7023e5e9a)" d="M 139.35375 230.4 
L 145.09125 230.4 
L 145.09125 230.4 
L 139.35375 230.4 
z
" style="fill:#5bc0de;"/>
   </g>
   <g id="patch_19">
    <path clip-path="url(#pf7023e5e9a)" d="M 145.09125 230.4 
L 150.82875 230.4 
L 150.82875 204.726857 
L 145.09125 204.726857 
z
" style="fill:#5bc0de;"/>
   </g>
   <g id="patch_20">
    <path clip-path="url(#pf7023e5e9a)" d="M 150.82875 230.4 
L 156.56625 230.4 
L 156.56625 230.4 
L 150.82875 230.4 
z
" style="fill:#5bc0de;"/>
   </g>
   <g id="patch_21">
    <path clip-path="url(#pf7023e5e9a)" d="M 156.56625 230.4 
L 162.30375 230.4 
L 162.30375 230.4 
L 156.56625 230.4 
z
" style="fill:#5bc0de;"/>
   </g>
   <g id="patch_22">
    <path clip-path="url(#pf7023e5e9a)" d="M 162.30375 230.4 
L 168.04125 230.4 
L 168.04125 230.4 
L 162.30375 230.4 
z
" style="fill:#5bc0de;"/>
   </g>
   <g id="patch_23">
    <path clip-path="url(#pf7023e5e9a)" d="M 168.04125 230.4 
L 173.77875 230.4 
L 173.77875 163.008 
L 168.04125 163.008 
z
" style="fill:#5bc0de;"/>
   </g>
   <g id="patch_24">
    <path clip-path="url(#pf7023e5e9a)" d="M 173.77875 230.4 
L 179.51625 230.4 
L 179.51625 230.4 
L 173.77875 230.4 
z
" style="fill:#5bc0de;"/>
   </g>
   <g id="patch_25">
    <path clip-path="url(#pf7023e5e9a)" d="M 179.51625 230.4 
L 185.25375 230.4 
L 185.25375 230.4 
L 179.51625 230.4 
z
" style="fill:#5bc0de;"/>
   </g>
   <g id="patch_26">
    <path clip-path="url(#pf7023e5e9a)" d="M 185.25375 230.4 
L 190.99125 230.4 
L 190.99125 230.4 
L 185.25375 230.4 
z
" style="fill:#5bc0de;"/>
   </g>
   <g id="patch_27">
    <path clip-path="url(#pf7023e5e9a)" d="M 190.99125 230.4 
L 196.72875 230.4 
L 196.72875 92.406857 
L 190.99125 92.406857 
z
" style="fill:#5bc0de;"/>
   </g>
   <g id="patch_28">
    <path clip-path="url(#pf7023e5e9a)" d="M 196.72875 230.4 
L 202.46625 230.4 
L 202.46625 230.4 
L 196.72875 230.4 
z
" style="fill:#5bc0de;"/>
   </g>
   <g id="patch_29">
    <path clip-path="url(#pf7023e5e9a)" d="M 202.46625 230.4 
L 208.20375 230.4 
L 208.20375 230.4 
L 202.46625 230.4 
z
" style="fill:#5bc0de;"/>
   </g>
   <g id="patch_30">
    <path clip-path="url(#pf7023e5e9a)" d="M 208.20375 230.4 
L 213.94125 230.4 
L 213.94125 230.4 
L 208.20375 230.4 
z
" style="fill:#5bc0de;"/>
   </g>
   <g id="patch_31">
    <path clip-path="url(#pf7023e5e9a)" d="M 213.94125 230.4 
L 219.67875 230.4 
L 219.67875 59.245714 
L 213.94125 59.245714 
z
" style="fill:#5bc0de;"/>
   </g>
   <g id="patch_32">
    <path clip-path="url(#pf7023e5e9a)" d="M 219.67875 230.4 
L 225.41625 230.4 
L 225.41625 230.4 
L 219.67875 230.4 
z
" style="fill:#5bc0de;"/>
   </g>
   <g id="patch_33">
    <path clip-path="url(#pf7023e5e9a)" d="M 225.41625 230.4 
L 231.15375 230.4 
L 231.15375 230.4 
L 225.41625 230.4 
z
" style="fill:#5bc0de;"/>
   </g>
   <g id="patch_34">
    <path clip-path="url(#pf7023e5e9a)" d="M 231.15375 230.4 
L 236.89125 230.4 
L 236.89125 230.4 
L 231.15375 230.4 
z
" style="fill:#5bc0de;"/>
   </g>
   <g id="patch_35">
    <path clip-path="url(#pf7023e5e9a)" d="M 236.89125 230.4 
L 242.62875 230.4 
L 242.62875 16.457143 
L 236.89125 16.457143 
z
" style="fill:#5bc0de;"/>
   </g>
   <g id="patch_36">
    <path clip-path="url(#pf7023e5e9a)" d="M 242.62875 230.4 
L 248.36625 230.4 
L 248.36625 230.4 
L 242.62875 230.4 
z
" style="fill:#5bc0de;"/>
   </g>
   <g id="patch_37">
    <path clip-path="url(#pf7023e5e9a)" d="M 248.36625 230.4 
L 254.10375 230.4 
L 254.10375 230.4 
L 248.36625 230.4 
z
" style="fill:#5bc0de;"/>
   </g>
   <g id="patch_38">
    <path clip-path="url(#pf7023e5e9a)" d="M 254.10375 230.4 
L 259.84125 230.4 
L 259.84125 230.4 
L 254.10375 230.4 
z
" style="fill:#5bc0de;"/>
   </g>
   <g id="patch_39">
    <path clip-path="url(#pf7023e5e9a)" d="M 259.84125 230.4 
L 265.57875 230.4 
L 265.57875 43.2 
L 259.84125 43.2 
z
" style="fill:#5bc0de;"/>
   </g>
   <g id="patch_40">
    <path clip-path="url(#pf7023e5e9a)" d="M 265.57875 230.4 
L 271.31625 230.4 
L 271.31625 230.4 
L 265.57875 230.4 
z
" style="fill:#5bc0de;"/>
   </g>
   <g id="patch_41">
    <path clip-path="url(#pf7023e5e9a)" d="M 271.31625 230.4 
L 277.05375 230.4 
L 277.05375 230.4 
L 271.31625 230.4 
z
" style="fill:#5bc0de;"/>
   </g>
   <g id="patch_42">
    <path clip-path="url(#pf7023e5e9a)" d="M 277.05375 230.4 
L 282.79125 230.4 
L 282.79125 230.4 
L 277.05375 230.4 
z
" style="fill:#5bc0de;"/>
   </g>
   <g id="patch_43">
    <path clip-path="url(#pf7023e5e9a)" d="M 282.79125 230.4 
L 288.52875 230.4 
L 288.52875 105.243429 
L 282.79125 105.243429 
z
" style="fill:#5bc0de;"/>
   </g>
   <g id="patch_44">
    <path clip-path="url(#pf7023e5e9a)" d="M 288.52875 230.4 
L 294.26625 230.4 
L 294.26625 230.4 
L 288.52875 230.4 
z
" style="fill:#5bc0de;"/>
   </g>
   <g id="patch_45">
    <path clip-path="url(#pf7023e5e9a)" d="M 294.26625 230.4 
L 300.00375 230.4 
L 300.00375 230.4 
L 294.26625 230.4 
z
" style="fill:#5bc0de;"/>
   </g>
   <g id="patch_46">
    <path clip-path="url(#pf7023e5e9a)" d="M 300.00375 230.4 
L 305.74125 230.4 
L 305.74125 230.4 
L 300.00375 230.4 
z
" style="fill:#5bc0de;"/>
   </g>
   <g id="patch_47">
    <path clip-path="url(#pf7023e5e9a)" d="M 305.74125 230.4 
L 311.47875 230.4 
L 311.47875 157.659429 
L 305.74125 157.659429 
z
" style="fill:#5bc0de;"/>
   </g>
   <g id="patch_48">
    <path clip-path="url(#pf7023e5e9a)" d="M 311.47875 230.4 
L 317.21625 230.4 
L 317.21625 230.4 
L 311.47875 230.4 
z
" style="fill:#5bc0de;"/>
   </g>
   <g id="patch_49">
    <path clip-path="url(#pf7023e5e9a)" d="M 317.21625 230.4 
L 322.95375 230.4 
L 322.95375 230.4 
L 317.21625 230.4 
z
" style="fill:#5bc0de;"/>
   </g>
   <g id="patch_50">
    <path clip-path="url(#pf7023e5e9a)" d="M 322.95375 230.4 
L 328.69125 230.4 
L 328.69125 230.4 
L 322.95375 230.4 
z
" style="fill:#5bc0de;"/>
   </g>
   <g id="patch_51">
    <path clip-path="url(#pf7023e5e9a)" d="M 328.69125 230.4 
L 334.42875 230.4 
L 334.42875 192.96 
L 328.69125 192.96 
z
" style="fill:#5bc0de;"/>
   </g>
   <g id="patch_52">
    <path clip-path="url(#pf7023e5e9a)" d="M 334.42875 230.4 
L 340.16625 230.4 
L 340.16625 230.4 
L 334.42875 230.4 
z
" style="fill:#5bc0de;"/>
   </g>
   <g id="patch_53">
    <path clip-path="url(#pf7023e5e9a)" d="M 340.16625 230.4 
L 345.90375 230.4 
L 345.90375 230.4 
L 340.16625 230.4 
z
" style="fill:#5bc0de;"/>
   </g>
   <g id="patch_54">
    <path clip-path="url(#pf7023e5e9a)" d="M 345.90375 230.4 
L 351.64125 230.4 
L 351.64125 230.4 
L 345.90375 230.4 
z
" style="fill:#5bc0de;"/>
   </g>
   <g id="patch_55">
    <path clip-path="url(#pf7023e5e9a)" d="M 351.64125 230.4 
L 357.37875 230.4 
L 357.37875 219.702857 
L 351.64125 219.702857 
z
" style="fill:#5bc0de;"/>
   </g>
   <g id="patch_56">
    <path clip-path="url(#pf7023e5e9a)" d="M 357.37875 230.4 
L 363.11625 230.4 
L 363.11625 230.4 
L 357.37875 230.4 
z
" style="fill:#5bc0de;"/>
   </g>
   <g id="patch_57">
    <path clip-path="url(#pf7023e5e9a)" d="M 363.11625 230.4 
L 368.85375 230.4 
L 368.85375 230.4 
L 363.11625 230.4 
z
" style="fill:#5bc0de;"/>
   </g>
   <g id="patch_58">
    <path clip-path="url(#pf7023e5e9a)" d="M 368.85375 230.4 
L 374.59125 230.4 
L 374.59125 230.4 
L 368.85375 230.4 
z
" style="fill:#5bc0de;"/>
   </g>
   <g id="patch_59">
    <path clip-path="url(#pf7023e5e9a)" d="M 374.59125 230.4 
L 380.32875 230.4 
L 380.32875 225.051429 
L 374.59125 225.051429 
z
" style="fill:#5bc0de;"/>
   </g>
   <g id="patch_60">
    <path clip-path="url(#pf7023e5e9a)" d="M 380.32875 230.4 
L 386.06625 230.4 
L 386.06625 230.4 
L 380.32875 230.4 
z
" style="fill:#5bc0de;"/>
   </g>
   <g id="patch_61">
    <path clip-path="url(#pf7023e5e9a)" d="M 386.06625 230.4 
L 391.80375 230.4 
L 391.80375 230.4 
L 386.06625 230.4 
z
" style="fill:#5bc0de;"/>
   </g>
   <g id="patch_62">
    <path clip-path="url(#pf7023e5e9a)" d="M 391.80375 230.4 
L 397.54125 230.4 
L 397.54125 230.4 
L 391.80375 230.4 
z
" style="fill:#5bc0de;"/>
   </g>
   <g id="patch_63">
    <path clip-path="url(#pf7023e5e9a)" d="M 397.54125 230.4 
L 403.27875 230.4 
L 403.27875 230.4 
L 397.54125 230.4 
z
" style="fill:#5bc0de;"/>
   </g>
   <g id="patch_64">
    <path clip-path="url(#pf7023e5e9a)" d="M 403.27875 230.4 
L 409.01625 230.4 
L 409.01625 230.4 
L 403.27875 230.4 
z
" style="fill:#5bc0de;"/>
   </g>
   <g id="patch_65">
    <path clip-path="url(#pf7023e5e9a)" d="M 409.01625 230.4 
L 414.75375 230.4 
L 414.75375 230.4 
L 409.01625 230.4 
z
" style="fill:#5bc0de;"/>
   </g>
   <g id="patch_66">
    <path clip-path="url(#pf7023e5e9a)" d="M 414.75375 230.4 
L 420.49125 230.4 
L 420.49125 230.4 
L 414.75375 230.4 
z
" style="fill:#5bc0de;"/>
   </g>
   <g id="patch_67">
    <path clip-path="url(#pf7023e5e9a)" d="M 420.49125 230.4 
L 426.22875 230.4 
L 426.22875 230.4 
L 420.49125 230.4 
z
" style="fill:#5bc0de;"/>
   </g>
   <g id="patch_68">
    <path clip-path="url(#pf7023e5e9a)" d="M 53.29125 230.4 
L 59.02875 230.4 
L 59.02875 230.4 
L 53.29125 230.4 
z
" style="fill:#d9534f;"/>
   </g>
   <g id="patch_69">
    <path clip-path="url(#pf7023e5e9a)" d="M 59.02875 230.4 
L 64.76625 230.4 
L 64.76625 230.4 
L 59.02875 230.4 
z
" style="fill:#d9534f;"/>
   </g>
   <g id="patch_70">
    <path clip-path="url(#pf7023e5e9a)" d="M 64.76625 230.4 
L 70.50375 230.4 
L 70.50375 230.4 
L 64.76625 230.4 
z
" style="fill:#d9534f;"/>
   </g>
   <g id="patch_71">
    <path clip-path="url(#pf7023e5e9a)" d="M 70.50375 230.4 
L 76.24125 230.4 
L 76.24125 230.4 
L 70.50375 230.4 
z
" style="fill:#d9534f;"/>
   </g>
   <g id="patch_72">
    <path clip-path="url(#pf7023e5e9a)" d="M 76.24125 230.4 
L 81.97875 230.4 
L 81.97875 230.4 
L 76.24125 230.4 
z
" style="fill:#d9534f;"/>
   </g>
   <g id="patch_73">
    <path clip-path="url(#pf7023e5e9a)" d="M 81.97875 230.4 
L 87.71625 230.4 
L 87.71625 230.4 
L 81.97875 230.4 
z
" style="fill:#d9534f;"/>
   </g>
   <g id="patch_74">
    <path clip-path="url(#pf7023e5e9a)" d="M 87.71625 230.4 
L 93.45375 230.4 
L 93.45375 230.4 
L 87.71625 230.4 
z
" style="fill:#d9534f;"/>
   </g>
   <g id="patch_75">
    <path clip-path="url(#pf7023e5e9a)" d="M 93.45375 230.4 
L 99.19125 230.4 
L 99.19125 230.4 
L 93.45375 230.4 
z
" style="fill:#d9534f;"/>
   </g>
   <g id="patch_76">
    <path clip-path="url(#pf7023e5e9a)" d="M 99.19125 230.4 
L 104.92875 230.4 
L 104.92875 229.330286 
L 99.19125 229.330286 
z
" style="fill:#d9534f;"/>
   </g>
   <g id="patch_77">
    <path clip-path="url(#pf7023e5e9a)" d="M 104.92875 230.4 
L 110.66625 230.4 
L 110.66625 230.4 
L 104.92875 230.4 
z
" style="fill:#d9534f;"/>
   </g>
   <g id="patch_78">
    <path clip-path="url(#pf7023e5e9a)" d="M 110.66625 230.4 
L 116.40375 230.4 
L 116.40375 230.4 
L 110.66625 230.4 
z
" style="fill:#d9534f;"/>
   </g>
   <g id="patch_79">
    <path clip-path="url(#pf7023e5e9a)" d="M 116.40375 230.4 
L 122.14125 230.4 
L 122.14125 230.4 
L 116.40375 230.4 
z
" style="fill:#d9534f;"/>
   </g>
   <g id="patch_80">
    <path clip-path="url(#pf7023e5e9a)" d="M 122.14125 230.4 
L 127.87875 230.4 
L 127.87875 225.051429 
L 122.14125 225.051429 
z
" style="fill:#d9534f;"/>
   </g>
   <g id="patch_81">
    <path clip-path="url(#pf7023e5e9a)" d="M 127.87875 230.4 
L 133.61625 230.4 
L 133.61625 230.4 
L 127.87875 230.4 
z
" style="fill:#d9534f;"/>
   </g>
   <g id="patch_82">
    <path clip-path="url(#pf7023e5e9a)" d="M 133.61625 230.4 
L 139.35375 230.4 
L 139.35375 230.4 
L 133.61625 230.4 
z
" style="fill:#d9534f;"/>
   </g>
   <g id="patch_83">
    <path clip-path="url(#pf7023e5e9a)" d="M 139.35375 230.4 
L 145.09125 230.4 
L 145.09125 230.4 
L 139.35375 230.4 
z
" style="fill:#d9534f;"/>
   </g>
   <g id="patch_84">
    <path clip-path="url(#pf7023e5e9a)" d="M 145.09125 230.4 
L 150.82875 230.4 
L 150.82875 216.493714 
L 145.09125 216.493714 
z
" style="fill:#d9534f;"/>
   </g>
   <g id="patch_85">
    <path clip-path="url(#pf7023e5e9a)" d="M 150.82875 230.4 
L 156.56625 230.4 
L 156.56625 230.4 
L 150.82875 230.4 
z
" style="fill:#d9534f;"/>
   </g>
   <g id="patch_86">
    <path clip-path="url(#pf7023e5e9a)" d="M 156.56625 230.4 
L 162.30375 230.4 
L 162.30375 230.4 
L 156.56625 230.4 
z
" style="fill:#d9534f;"/>
   </g>
   <g id="patch_87">
    <path clip-path="url(#pf7023e5e9a)" d="M 162.30375 230.4 
L 168.04125 230.4 
L 168.04125 230.4 
L 162.30375 230.4 
z
" style="fill:#d9534f;"/>
   </g>
   <g id="patch_88">
    <path clip-path="url(#pf7023e5e9a)" d="M 168.04125 230.4 
L 173.77875 230.4 
L 173.77875 195.099429 
L 168.04125 195.099429 
z
" style="fill:#d9534f;"/>
   </g>
   <g id="patch_89">
    <path clip-path="url(#pf7023e5e9a)" d="M 173.77875 230.4 
L 179.51625 230.4 
L 179.51625 230.4 
L 173.77875 230.4 
z
" style="fill:#d9534f;"/>
   </g>
   <g id="patch_90">
    <path clip-path="url(#pf7023e5e9a)" d="M 179.51625 230.4 
L 185.25375 230.4 
L 185.25375 230.4 
L 179.51625 230.4 
z
" style="fill:#d9534f;"/>
   </g>
   <g id="patch_91">
    <path clip-path="url(#pf7023e5e9a)" d="M 185.25375 230.4 
L 190.99125 230.4 
L 190.99125 230.4 
L 185.25375 230.4 
z
" style="fill:#d9534f;"/>
   </g>
   <g id="patch_92">
    <path clip-path="url(#pf7023e5e9a)" d="M 190.99125 230.4 
L 196.72875 230.4 
L 196.72875 161.938286 
L 190.99125 161.938286 
z
" style="fill:#d9534f;"/>
   </g>
   <g id="patch_93">
    <path clip-path="url(#pf7023e5e9a)" d="M 196.72875 230.4 
L 202.46625 230.4 
L 202.46625 230.4 
L 196.72875 230.4 
z
" style="fill:#d9534f;"/>
   </g>
   <g id="patch_94">
    <path clip-path="url(#pf7023e5e9a)" d="M 202.46625 230.4 
L 208.20375 230.4 
L 208.20375 230.4 
L 202.46625 230.4 
z
" style="fill:#d9534f;"/>
   </g>
   <g id="patch_95">
    <path clip-path="url(#pf7023e5e9a)" d="M 208.20375 230.4 
L 213.94125 230.4 
L 213.94125 230.4 
L 208.20375 230.4 
z
" style="fill:#d9534f;"/>
   </g>
   <g id="patch_96">
    <path clip-path="url(#pf7023e5e9a)" d="M 213.94125 230.4 
L 219.67875 230.4 
L 219.67875 135.195429 
L 213.94125 135.195429 
z
" style="fill:#d9534f;"/>
   </g>
   <g id="patch_97">
    <path clip-path="url(#pf7023e5e9a)" d="M 219.67875 230.4 
L 225.41625 230.4 
L 225.41625 230.4 
L 219.67875 230.4 
z
" style="fill:#d9534f;"/>
   </g>
   <g id="patch_98">
    <path clip-path="url(#pf7023e5e9a)" d="M 225.41625 230.4 
L 231.15375 230.4 
L 231.15375 230.4 
L 225.41625 230.4 
z
" style="fill:#d9534f;"/>
   </g>
   <g id="patch_99">
    <path clip-path="url(#pf7023e5e9a)" d="M 231.15375 230.4 
L 236.89125 230.4 
L 236.89125 230.4 
L 231.15375 230.4 
z
" style="fill:#d9534f;"/>
   </g>
   <g id="patch_100">
    <path clip-path="url(#pf7023e5e9a)" d="M 236.89125 230.4 
L 242.62875 230.4 
L 242.62875 127.707429 
L 236.89125 127.707429 
z
" style="fill:#d9534f;"/>
   </g>
   <g id="patch_101">
    <path clip-path="url(#pf7023e5e9a)" d="M 242.62875 230.4 
L 248.36625 230.4 
L 248.36625 230.4 
L 242.62875 230.4 
z
" style="fill:#d9534f;"/>
   </g>
   <g id="patch_102">
    <path clip-path="url(#pf7023e5e9a)" d="M 248.36625 230.4 
L 254.10375 230.4 
L 254.10375 230.4 
L 248.36625 230.4 
z
" style="fill:#d9534f;"/>
   </g>
   <g id="patch_103">
    <path clip-path="url(#pf7023e5e9a)" d="M 254.10375 230.4 
L 259.84125 230.4 
L 259.84125 230.4 
L 254.10375 230.4 
z
" style="fill:#d9534f;"/>
   </g>
   <g id="patch_104">
    <path clip-path="url(#pf7023e5e9a)" d="M 259.84125 230.4 
L 265.57875 230.4 
L 265.57875 151.241143 
L 259.84125 151.241143 
z
" style="fill:#d9534f;"/>
   </g>
   <g id="patch_105">
    <path clip-path="url(#pf7023e5e9a)" d="M 265.57875 230.4 
L 271.31625 230.4 
L 271.31625 230.4 
L 265.57875 230.4 
z
" style="fill:#d9534f;"/>
   </g>
   <g id="patch_106">
    <path clip-path="url(#pf7023e5e9a)" d="M 271.31625 230.4 
L 277.05375 230.4 
L 277.05375 230.4 
L 271.31625 230.4 
z
" style="fill:#d9534f;"/>
   </g>
   <g id="patch_107">
    <path clip-path="url(#pf7023e5e9a)" d="M 277.05375 230.4 
L 282.79125 230.4 
L 282.79125 230.4 
L 277.05375 230.4 
z
" style="fill:#d9534f;"/>
   </g>
   <g id="patch_108">
    <path clip-path="url(#pf7023e5e9a)" d="M 282.79125 230.4 
L 288.52875 230.4 
L 288.52875 172.635429 
L 282.79125 172.635429 
z
" style="fill:#d9534f;"/>
   </g>
   <g id="patch_109">
    <path clip-path="url(#pf7023e5e9a)" d="M 288.52875 230.4 
L 294.26625 230.4 
L 294.26625 230.4 
L 288.52875 230.4 
z
" style="fill:#d9534f;"/>
   </g>
   <g id="patch_110">
    <path clip-path="url(#pf7023e5e9a)" d="M 294.26625 230.4 
L 300.00375 230.4 
L 300.00375 230.4 
L 294.26625 230.4 
z
" style="fill:#d9534f;"/>
   </g>
   <g id="patch_111">
    <path clip-path="url(#pf7023e5e9a)" d="M 300.00375 230.4 
L 305.74125 230.4 
L 305.74125 230.4 
L 300.00375 230.4 
z
" style="fill:#d9534f;"/>
   </g>
   <g id="patch_112">
    <path clip-path="url(#pf7023e5e9a)" d="M 305.74125 230.4 
L 311.47875 230.4 
L 311.47875 183.332571 
L 305.74125 183.332571 
z
" style="fill:#d9534f;"/>
   </g>
   <g id="patch_113">
    <path clip-path="url(#pf7023e5e9a)" d="M 311.47875 230.4 
L 317.21625 230.4 
L 317.21625 230.4 
L 311.47875 230.4 
z
" style="fill:#d9534f;"/>
   </g>
   <g id="patch_114">
    <path clip-path="url(#pf7023e5e9a)" d="M 317.21625 230.4 
L 322.95375 230.4 
L 322.95375 230.4 
L 317.21625 230.4 
z
" style="fill:#d9534f;"/>
   </g>
   <g id="patch_115">
    <path clip-path="url(#pf7023e5e9a)" d="M 322.95375 230.4 
L 328.69125 230.4 
L 328.69125 230.4 
L 322.95375 230.4 
z
" style="fill:#d9534f;"/>
   </g>
   <g id="patch_116">
    <path clip-path="url(#pf7023e5e9a)" d="M 328.69125 230.4 
L 334.42875 230.4 
L 334.42875 209.005714 
L 328.69125 209.005714 
z
" style="fill:#d9534f;"/>
   </g>
   <g id="patch_117">
    <path clip-path="url(#pf7023e5e9a)" d="M 334.42875 230.4 
L 340.16625 230.4 
L 340.16625 230.4 
L 334.42875 230.4 
z
" style="fill:#d9534f;"/>
   </g>
   <g id="patch_118">
    <path clip-path="url(#pf7023e5e9a)" d="M 340.16625 230.4 
L 345.90375 230.4 
L 345.90375 230.4 
L 340.16625 230.4 
z
" style="fill:#d9534f;"/>
   </g>
   <g id="patch_119">
    <path clip-path="url(#pf7023e5e9a)" d="M 345.90375 230.4 
L 351.64125 230.4 
L 351.64125 230.4 
L 345.90375 230.4 
z
" style="fill:#d9534f;"/>
   </g>
   <g id="patch_120">
    <path clip-path="url(#pf7023e5e9a)" d="M 351.64125 230.4 
L 357.37875 230.4 
L 357.37875 225.051429 
L 351.64125 225.051429 
z
" style="fill:#d9534f;"/>
   </g>
   <g id="patch_121">
    <path clip-path="url(#pf7023e5e9a)" d="M 357.37875 230.4 
L 363.11625 230.4 
L 363.11625 230.4 
L 357.37875 230.4 
z
" style="fill:#d9534f;"/>
   </g>
   <g id="patch_122">
    <path clip-path="url(#pf7023e5e9a)" d="M 363.11625 230.4 
L 368.85375 230.4 
L 368.85375 230.4 
L 363.11625 230.4 
z
" style="fill:#d9534f;"/>
   </g>
   <g id="patch_123">
    <path clip-path="url(#pf7023e5e9a)" d="M 368.85375 230.4 
L 374.59125 230.4 
L 374.59125 230.4 
L 368.85375 230.4 
z
" style="fill:#d9534f;"/>
   </g>
   <g id="patch_124">
    <path clip-path="url(#pf7023e5e9a)" d="M 374.59125 230.4 
L 380.32875 230.4 
L 380.32875 228.260571 
L 374.59125 228.260571 
z
" style="fill:#d9534f;"/>
   </g>
   <g id="patch_125">
    <path clip-path="url(#pf7023e5e9a)" d="M 380.32875 230.4 
L 386.06625 230.4 
L 386.06625 230.4 
L 380.32875 230.4 
z
" style="fill:#d9534f;"/>
   </g>
   <g id="patch_126">
    <path clip-path="url(#pf7023e5e9a)" d="M 386.06625 230.4 
L 391.80375 230.4 
L 391.80375 230.4 
L 386.06625 230.4 
z
" style="fill:#d9534f;"/>
   </g>
   <g id="patch_127">
    <path clip-path="url(#pf7023e5e9a)" d="M 391.80375 230.4 
L 397.54125 230.4 
L 397.54125 230.4 
L 391.80375 230.4 
z
" style="fill:#d9534f;"/>
   </g>
   <g id="patch_128">
    <path clip-path="url(#pf7023e5e9a)" d="M 397.54125 230.4 
L 403.27875 230.4 
L 403.27875 230.4 
L 397.54125 230.4 
z
" style="fill:#d9534f;"/>
   </g>
   <g id="patch_129">
    <path clip-path="url(#pf7023e5e9a)" d="M 403.27875 230.4 
L 409.01625 230.4 
L 409.01625 230.4 
L 403.27875 230.4 
z
" style="fill:#d9534f;"/>
   </g>
   <g id="patch_130">
    <path clip-path="url(#pf7023e5e9a)" d="M 409.01625 230.4 
L 414.75375 230.4 
L 414.75375 230.4 
L 409.01625 230.4 
z
" style="fill:#d9534f;"/>
   </g>
   <g id="patch_131">
    <path clip-path="url(#pf7023e5e9a)" d="M 414.75375 230.4 
L 420.49125 230.4 
L 420.49125 230.4 
L 414.75375 230.4 
z
" style="fill:#d9534f;"/>
   </g>
   <g id="patch_132">
    <path clip-path="url(#pf7023e5e9a)" d="M 420.49125 230.4 
L 426.22875 230.4 
L 426.22875 230.4 
L 420.49125 230.4 
z
" style="fill:#d9534f;"/>
   </g>
   <g id="patch_133">
    <path clip-path="url(#pf7023e5e9a)" d="M 53.29125 230.4 
L 59.02875 230.4 
L 59.02875 230.4 
L 53.29125 230.4 
z
" style="fill:#f0ad4e;"/>
   </g>
   <g id="patch_134">
    <path clip-path="url(#pf7023e5e9a)" d="M 59.02875 230.4 
L 64.76625 230.4 
L 64.76625 230.4 
L 59.02875 230.4 
z
" style="fill:#f0ad4e;"/>
   </g>
   <g id="patch_135">
    <path clip-path="url(#pf7023e5e9a)" d="M 64.76625 230.4 
L 70.50375 230.4 
L 70.50375 230.4 
L 64.76625 230.4 
z
" style="fill:#f0ad4e;"/>
   </g>
   <g id="patch_136">
    <path clip-path="url(#pf7023e5e9a)" d="M 70.50375 230.4 
L 76.24125 230.4 
L 76.24125 230.4 
L 70.50375 230.4 
z
" style="fill:#f0ad4e;"/>
   </g>
   <g id="patch_137">
    <path clip-path="url(#pf7023e5e9a)" d="M 76.24125 230.4 
L 81.97875 230.4 
L 81.97875 230.4 
L 76.24125 230.4 
z
" style="fill:#f0ad4e;"/>
   </g>
   <g id="patch_138">
    <path clip-path="url(#pf7023e5e9a)" d="M 81.97875 230.4 
L 87.71625 230.4 
L 87.71625 230.4 
L 81.97875 230.4 
z
" style="fill:#f0ad4e;"/>
   </g>
   <g id="patch_139">
    <path clip-path="url(#pf7023e5e9a)" d="M 87.71625 230.4 
L 93.45375 230.4 
L 93.45375 230.4 
L 87.71625 230.4 
z
" style="fill:#f0ad4e;"/>
   </g>
   <g id="patch_140">
    <path clip-path="url(#pf7023e5e9a)" d="M 93.45375 230.4 
L 99.19125 230.4 
L 99.19125 230.4 
L 93.45375 230.4 
z
" style="fill:#f0ad4e;"/>
   </g>
   <g id="patch_141">
    <path clip-path="url(#pf7023e5e9a)" d="M 99.19125 230.4 
L 104.92875 230.4 
L 104.92875 230.4 
L 99.19125 230.4 
z
" style="fill:#f0ad4e;"/>
   </g>
   <g id="patch_142">
    <path clip-path="url(#pf7023e5e9a)" d="M 104.92875 230.4 
L 110.66625 230.4 
L 110.66625 230.4 
L 104.92875 230.4 
z
" style="fill:#f0ad4e;"/>
   </g>
   <g id="patch_143">
    <path clip-path="url(#pf7023e5e9a)" d="M 110.66625 230.4 
L 116.40375 230.4 
L 116.40375 230.4 
L 110.66625 230.4 
z
" style="fill:#f0ad4e;"/>
   </g>
   <g id="patch_144">
    <path clip-path="url(#pf7023e5e9a)" d="M 116.40375 230.4 
L 122.14125 230.4 
L 122.14125 230.4 
L 116.40375 230.4 
z
" style="fill:#f0ad4e;"/>
   </g>
   <g id="patch_145">
    <path clip-path="url(#pf7023e5e9a)" d="M 122.14125 230.4 
L 127.87875 230.4 
L 127.87875 227.190857 
L 122.14125 227.190857 
z
" style="fill:#f0ad4e;"/>
   </g>
   <g id="patch_146">
    <path clip-path="url(#pf7023e5e9a)" d="M 127.87875 230.4 
L 133.61625 230.4 
L 133.61625 230.4 
L 127.87875 230.4 
z
" style="fill:#f0ad4e;"/>
   </g>
   <g id="patch_147">
    <path clip-path="url(#pf7023e5e9a)" d="M 133.61625 230.4 
L 139.35375 230.4 
L 139.35375 230.4 
L 133.61625 230.4 
z
" style="fill:#f0ad4e;"/>
   </g>
   <g id="patch_148">
    <path clip-path="url(#pf7023e5e9a)" d="M 139.35375 230.4 
L 145.09125 230.4 
L 145.09125 230.4 
L 139.35375 230.4 
z
" style="fill:#f0ad4e;"/>
   </g>
   <g id="patch_149">
    <path clip-path="url(#pf7023e5e9a)" d="M 145.09125 230.4 
L 150.82875 230.4 
L 150.82875 220.772571 
L 145.09125 220.772571 
z
" style="fill:#f0ad4e;"/>
   </g>
   <g id="patch_150">
    <path clip-path="url(#pf7023e5e9a)" d="M 150.82875 230.4 
L 156.56625 230.4 
L 156.56625 230.4 
L 150.82875 230.4 
z
" style="fill:#f0ad4e;"/>
   </g>
   <g id="patch_151">
    <path clip-path="url(#pf7023e5e9a)" d="M 156.56625 230.4 
L 162.30375 230.4 
L 162.30375 230.4 
L 156.56625 230.4 
z
" style="fill:#f0ad4e;"/>
   </g>
   <g id="patch_152">
    <path clip-path="url(#pf7023e5e9a)" d="M 162.30375 230.4 
L 168.04125 230.4 
L 168.04125 230.4 
L 162.30375 230.4 
z
" style="fill:#f0ad4e;"/>
   </g>
   <g id="patch_153">
    <path clip-path="url(#pf7023e5e9a)" d="M 168.04125 230.4 
L 173.77875 230.4 
L 173.77875 212.214857 
L 168.04125 212.214857 
z
" style="fill:#f0ad4e;"/>
   </g>
   <g id="patch_154">
    <path clip-path="url(#pf7023e5e9a)" d="M 173.77875 230.4 
L 179.51625 230.4 
L 179.51625 230.4 
L 173.77875 230.4 
z
" style="fill:#f0ad4e;"/>
   </g>
   <g id="patch_155">
    <path clip-path="url(#pf7023e5e9a)" d="M 179.51625 230.4 
L 185.25375 230.4 
L 185.25375 230.4 
L 179.51625 230.4 
z
" style="fill:#f0ad4e;"/>
   </g>
   <g id="patch_156">
    <path clip-path="url(#pf7023e5e9a)" d="M 185.25375 230.4 
L 190.99125 230.4 
L 190.99125 230.4 
L 185.25375 230.4 
z
" style="fill:#f0ad4e;"/>
   </g>
   <g id="patch_157">
    <path clip-path="url(#pf7023e5e9a)" d="M 190.99125 230.4 
L 196.72875 230.4 
L 196.72875 194.029714 
L 190.99125 194.029714 
z
" style="fill:#f0ad4e;"/>
   </g>
   <g id="patch_158">
    <path clip-path="url(#pf7023e5e9a)" d="M 196.72875 230.4 
L 202.46625 230.4 
L 202.46625 230.4 
L 196.72875 230.4 
z
" style="fill:#f0ad4e;"/>
   </g>
   <g id="patch_159">
    <path clip-path="url(#pf7023e5e9a)" d="M 202.46625 230.4 
L 208.20375 230.4 
L 208.20375 230.4 
L 202.46625 230.4 
z
" style="fill:#f0ad4e;"/>
   </g>
   <g id="patch_160">
    <path clip-path="url(#pf7023e5e9a)" d="M 208.20375 230.4 
L 213.94125 230.4 
L 213.94125 230.4 
L 208.20375 230.4 
z
" style="fill:#f0ad4e;"/>
   </g>
   <g id="patch_161">
    <path clip-path="url(#pf7023e5e9a)" d="M 213.94125 230.4 
L 219.67875 230.4 
L 219.67875 170.496 
L 213.94125 170.496 
z
" style="fill:#f0ad4e;"/>
   </g>
   <g id="patch_162">
    <path clip-path="url(#pf7023e5e9a)" d="M 219.67875 230.4 
L 225.41625 230.4 
L 225.41625 230.4 
L 219.67875 230.4 
z
" style="fill:#f0ad4e;"/>
   </g>
   <g id="patch_163">
    <path clip-path="url(#pf7023e5e9a)" d="M 225.41625 230.4 
L 231.15375 230.4 
L 231.15375 230.4 
L 225.41625 230.4 
z
" style="fill:#f0ad4e;"/>
   </g>
   <g id="patch_164">
    <path clip-path="url(#pf7023e5e9a)" d="M 231.15375 230.4 
L 236.89125 230.4 
L 236.89125 230.4 
L 231.15375 230.4 
z
" style="fill:#f0ad4e;"/>
   </g>
   <g id="patch_165">
    <path clip-path="url(#pf7023e5e9a)" d="M 236.89125 230.4 
L 242.62875 230.4 
L 242.62875 166.217143 
L 236.89125 166.217143 
z
" style="fill:#f0ad4e;"/>
   </g>
   <g id="patch_166">
    <path clip-path="url(#pf7023e5e9a)" d="M 242.62875 230.4 
L 248.36625 230.4 
L 248.36625 230.4 
L 242.62875 230.4 
z
" style="fill:#f0ad4e;"/>
   </g>
   <g id="patch_167">
    <path clip-path="url(#pf7023e5e9a)" d="M 248.36625 230.4 
L 254.10375 230.4 
L 254.10375 230.4 
L 248.36625 230.4 
z
" style="fill:#f0ad4e;"/>
   </g>
   <g id="patch_168">
    <path clip-path="url(#pf7023e5e9a)" d="M 254.10375 230.4 
L 259.84125 230.4 
L 259.84125 230.4 
L 254.10375 230.4 
z
" style="fill:#f0ad4e;"/>
   </g>
   <g id="patch_169">
    <path clip-path="url(#pf7023e5e9a)" d="M 259.84125 230.4 
L 265.57875 230.4 
L 265.57875 183.332571 
L 259.84125 183.332571 
z
" style="fill:#f0ad4e;"/>
   </g>
   <g id="patch_170">
    <path clip-path="url(#pf7023e5e9a)" d="M 265.57875 230.4 
L 271.31625 230.4 
L 271.31625 230.4 
L 265.57875 230.4 
z
" style="fill:#f0ad4e;"/>
   </g>
   <g id="patch_171">
    <path clip-path="url(#pf7023e5e9a)" d="M 271.31625 230.4 
L 277.05375 230.4 
L 277.05375 230.4 
L 271.31625 230.4 
z
" style="fill:#f0ad4e;"/>
   </g>
   <g id="patch_172">
    <path clip-path="url(#pf7023e5e9a)" d="M 277.05375 230.4 
L 282.79125 230.4 
L 282.79125 230.4 
L 277.05375 230.4 
z
" style="fill:#f0ad4e;"/>
   </g>
   <g id="patch_173">
    <path clip-path="url(#pf7023e5e9a)" d="M 282.79125 230.4 
L 288.52875 230.4 
L 288.52875 195.099429 
L 282.79125 195.099429 
z
" style="fill:#f0ad4e;"/>
   </g>
   <g id="patch_174">
    <path clip-path="url(#pf7023e5e9a)" d="M 288.52875 230.4 
L 294.26625 230.4 
L 294.26625 230.4 
L 288.52875 230.4 
z
" style="fill:#f0ad4e;"/>
   </g>
   <g id="patch_175">
    <path clip-path="url(#pf7023e5e9a)" d="M 294.26625 230.4 
L 300.00375 230.4 
L 300.00375 230.4 
L 294.26625 230.4 
z
" style="fill:#f0ad4e;"/>
   </g>
   <g id="patch_176">
    <path clip-path="url(#pf7023e5e9a)" d="M 300.00375 230.4 
L 305.74125 230.4 
L 305.74125 230.4 
L 300.00375 230.4 
z
" style="fill:#f0ad4e;"/>
   </g>
   <g id="patch_177">
    <path clip-path="url(#pf7023e5e9a)" d="M 305.74125 230.4 
L 311.47875 230.4 
L 311.47875 197.238857 
L 305.74125 197.238857 
z
" style="fill:#f0ad4e;"/>
   </g>
   <g id="patch_178">
    <path clip-path="url(#pf7023e5e9a)" d="M 311.47875 230.4 
L 317.21625 230.4 
L 317.21625 230.4 
L 311.47875 230.4 
z
" style="fill:#f0ad4e;"/>
   </g>
   <g id="patch_179">
    <path clip-path="url(#pf7023e5e9a)" d="M 317.21625 230.4 
L 322.95375 230.4 
L 322.95375 230.4 
L 317.21625 230.4 
z
" style="fill:#f0ad4e;"/>
   </g>
   <g id="patch_180">
    <path clip-path="url(#pf7023e5e9a)" d="M 322.95375 230.4 
L 328.69125 230.4 
L 328.69125 230.4 
L 322.95375 230.4 
z
" style="fill:#f0ad4e;"/>
   </g>
   <g id="patch_181">
    <path clip-path="url(#pf7023e5e9a)" d="M 328.69125 230.4 
L 334.42875 230.4 
L 334.42875 219.702857 
L 328.69125 219.702857 
z
" style="fill:#f0ad4e;"/>
   </g>
   <g id="patch_182">
    <path clip-path="url(#pf7023e5e9a)" d="M 334.42875 230.4 
L 340.16625 230.4 
L 340.16625 230.4 
L 334.42875 230.4 
z
" style="fill:#f0ad4e;"/>
   </g>
   <g id="patch_183">
    <path clip-path="url(#pf7023e5e9a)" d="M 340.16625 230.4 
L 345.90375 230.4 
L 345.90375 230.4 
L 340.16625 230.4 
z
" style="fill:#f0ad4e;"/>
   </g>
   <g id="patch_184">
    <path clip-path="url(#pf7023e5e9a)" d="M 345.90375 230.4 
L 351.64125 230.4 
L 351.64125 230.4 
L 345.90375 230.4 
z
" style="fill:#f0ad4e;"/>
   </g>
   <g id="patch_185">
    <path clip-path="url(#pf7023e5e9a)" d="M 351.64125 230.4 
L 357.37875 230.4 
L 357.37875 228.260571 
L 351.64125 228.260571 
z
" style="fill:#f0ad4e;"/>
   </g>
   <g id="patch_186">
    <path clip-path="url(#pf7023e5e9a)" d="M 357.37875 230.4 
L 363.11625 230.4 
L 363.11625 230.4 
L 357.37875 230.4 
z
" style="fill:#f0ad4e;"/>
   </g>
   <g id="patch_187">
    <path clip-path="url(#pf7023e5e9a)" d="M 363.11625 230.4 
L 368.85375 230.4 
L 368.85375 230.4 
L 363.11625 230.4 
z
" style="fill:#f0ad4e;"/>
   </g>
   <g id="patch_188">
    <path clip-path="url(#pf7023e5e9a)" d="M 368.85375 230.4 
L 374.59125 230.4 
L 374.59125 230.4 
L 368.85375 230.4 
z
" style="fill:#f0ad4e;"/>
   </g>
   <g id="patch_189">
    <path clip-path="url(#pf7023e5e9a)" d="M 374.59125 230.4 
L 380.32875 230.4 
L 380.32875 229.330286 
L 374.59125 229.330286 
z
" style="fill:#f0ad4e;"/>
   </g>
   <g id="patch_190">
    <path clip-path="url(#pf7023e5e9a)" d="M 380.32875 230.4 
L 386.06625 230.4 
L 386.06625 230.4 
L 380.32875 230.4 
z
" style="fill:#f0ad4e;"/>
   </g>
   <g id="patch_191">
    <path clip-path="url(#pf7023e5e9a)" d="M 386.06625 230.4 
L 391.80375 230.4 
L 391.80375 230.4 
L 386.06625 230.4 
z
" style="fill:#f0ad4e;"/>
   </g>
   <g id="patch_192">
    <path clip-path="url(#pf7023e5e9a)" d="M 391.80375 230.4 
L 397.54125 230.4 
L 397.54125 230.4 
L 391.80375 230.4 
z
" style="fill:#f0ad4e;"/>
   </g>
   <g id="patch_193">
    <path clip-path="url(#pf7023e5e9a)" d="M 397.54125 230.4 
L 403.27875 230.4 
L 403.27875 230.4 
L 397.54125 230.4 
z
" style="fill:#f0ad4e;"/>
   </g>
   <g id="patch_194">
    <path clip-path="url(#pf7023e5e9a)" d="M 403.27875 230.4 
L 409.01625 230.4 
L 409.01625 230.4 
L 403.27875 230.4 
z
" style="fill:#f0ad4e;"/>
   </g>
   <g id="patch_195">
    <path clip-path="url(#pf7023e5e9a)" d="M 409.01625 230.4 
L 414.75375 230.4 
L 414.75375 230.4 
L 409.01625 230.4 
z
" style="fill:#f0ad4e;"/>
   </g>
   <g id="patch_196">
    <path clip-path="url(#pf7023e5e9a)" d="M 414.75375 230.4 
L 420.49125 230.4 
L 420.49125 230.4 
L 414.75375 230.4 
z
" style="fill:#f0ad4e;"/>
   </g>
   <g id="patch_197">
    <path clip-path="url(#pf7023e5e9a)" d="M 420.49125 230.4 
L 426.22875 230.4 
L 426.22875 230.4 
L 420.49125 230.4 
z
" style="fill:#f0ad4e;"/>
   </g>
   <g id="patch_198">
    <path clip-path="url(#pf7023e5e9a)" d="M 53.29125 230.4 
L 59.02875 230.4 
L 59.02875 230.4 
L 53.29125 230.4 
z
" style="fill:#636c72;"/>
   </g>
   <g id="patch_199">
    <path clip-path="url(#pf7023e5e9a)" d="M 59.02875 230.4 
L 64.76625 230.4 
L 64.76625 230.4 
L 59.02875 230.4 
z
" style="fill:#636c72;"/>
   </g>
   <g id="patch_200">
    <path clip-path="url(#pf7023e5e9a)" d="M 64.76625 230.4 
L 70.50375 230.4 
L 70.50375 230.4 
L 64.76625 230.4 
z
" style="fill:#636c72;"/>
   </g>
   <g id="patch_201">
    <path clip-path="url(#pf7023e5e9a)" d="M 70.50375 230.4 
L 76.24125 230.4 
L 76.24125 230.4 
L 70.50375 230.4 
z
" style="fill:#636c72;"/>
   </g>
   <g id="patch_202">
    <path clip-path="url(#pf7023e5e9a)" d="M 76.24125 230.4 
L 81.97875 230.4 
L 81.97875 230.4 
L 76.24125 230.4 
z
" style="fill:#636c72;"/>
   </g>
   <g id="patch_203">
    <path clip-path="url(#pf7023e5e9a)" d="M 81.97875 230.4 
L 87.71625 230.4 
L 87.71625 230.4 
L 81.97875 230.4 
z
" style="fill:#636c72;"/>
   </g>
   <g id="patch_204">
    <path clip-path="url(#pf7023e5e9a)" d="M 87.71625 230.4 
L 93.45375 230.4 
L 93.45375 230.4 
L 87.71625 230.4 
z
" style="fill:#636c72;"/>
   </g>
   <g id="patch_205">
    <path clip-path="url(#pf7023e5e9a)" d="M 93.45375 230.4 
L 99.19125 230.4 
L 99.19125 230.4 
L 93.45375 230.4 
z
" style="fill:#636c72;"/>
   </g>
   <g id="patch_206">
    <path clip-path="url(#pf7023e5e9a)" d="M 99.19125 230.4 
L 104.92875 230.4 
L 104.92875 230.4 
L 99.19125 230.4 
z
" style="fill:#636c72;"/>
   </g>
   <g id="patch_207">
    <path clip-path="url(#pf7023e5e9a)" d="M 104.92875 230.4 
L 110.66625 230.4 
L 110.66625 230.4 
L 104.92875 230.4 
z
" style="fill:#636c72;"/>
   </g>
   <g id="patch_208">
    <path clip-path="url(#pf7023e5e9a)" d="M 110.66625 230.4 
L 116.40375 230.4 
L 116.40375 230.4 
L 110.66625 230.4 
z
" style="fill:#636c72;"/>
   </g>
   <g id="patch_209">
    <path clip-path="url(#pf7023e5e9a)" d="M 116.40375 230.4 
L 122.14125 230.4 
L 122.14125 230.4 
L 116.40375 230.4 
z
" style="fill:#636c72;"/>
   </g>
   <g id="patch_210">
    <path clip-path="url(#pf7023e5e9a)" d="M 122.14125 230.4 
L 127.87875 230.4 
L 127.87875 230.4 
L 122.14125 230.4 
z
" style="fill:#636c72;"/>
   </g>
   <g id="patch_211">
    <path clip-path="url(#pf7023e5e9a)" d="M 127.87875 230.4 
L 133.61625 230.4 
L 133.61625 230.4 
L 127.87875 230.4 
z
" style="fill:#636c72;"/>
   </g>
   <g id="patch_212">
    <path clip-path="url(#pf7023e5e9a)" d="M 133.61625 230.4 
L 139.35375 230.4 
L 139.35375 230.4 
L 133.61625 230.4 
z
" style="fill:#636c72;"/>
   </g>
   <g id="patch_213">
    <path clip-path="url(#pf7023e5e9a)" d="M 139.35375 230.4 
L 145.09125 230.4 
L 145.09125 230.4 
L 139.35375 230.4 
z
" style="fill:#636c72;"/>
   </g>
   <g id="patch_214">
    <path clip-path="url(#pf7023e5e9a)" d="M 145.09125 230.4 
L 150.82875 230.4 
L 150.82875 228.260571 
L 145.09125 228.260571 
z
" style="fill:#636c72;"/>
   </g>
   <g id="patch_215">
    <path clip-path="url(#pf7023e5e9a)" d="M 150.82875 230.4 
L 156.56625 230.4 
L 156.56625 230.4 
L 150.82875 230.4 
z
" style="fill:#636c72;"/>
   </g>
   <g id="patch_216">
    <path clip-path="url(#pf7023e5e9a)" d="M 156.56625 230.4 
L 162.30375 230.4 
L 162.30375 230.4 
L 156.56625 230.4 
z
" style="fill:#636c72;"/>
   </g>
   <g id="patch_217">
    <path clip-path="url(#pf7023e5e9a)" d="M 162.30375 230.4 
L 168.04125 230.4 
L 168.04125 230.4 
L 162.30375 230.4 
z
" style="fill:#636c72;"/>
   </g>
   <g id="patch_218">
    <path clip-path="url(#pf7023e5e9a)" d="M 168.04125 230.4 
L 173.77875 230.4 
L 173.77875 222.912 
L 168.04125 222.912 
z
" style="fill:#636c72;"/>
   </g>
   <g id="patch_219">
    <path clip-path="url(#pf7023e5e9a)" d="M 173.77875 230.4 
L 179.51625 230.4 
L 179.51625 230.4 
L 173.77875 230.4 
z
" style="fill:#636c72;"/>
   </g>
   <g id="patch_220">
    <path clip-path="url(#pf7023e5e9a)" d="M 179.51625 230.4 
L 185.25375 230.4 
L 185.25375 230.4 
L 179.51625 230.4 
z
" style="fill:#636c72;"/>
   </g>
   <g id="patch_221">
    <path clip-path="url(#pf7023e5e9a)" d="M 185.25375 230.4 
L 190.99125 230.4 
L 190.99125 230.4 
L 185.25375 230.4 
z
" style="fill:#636c72;"/>
   </g>
   <g id="patch_222">
    <path clip-path="url(#pf7023e5e9a)" d="M 190.99125 230.4 
L 196.72875 230.4 
L 196.72875 219.702857 
L 190.99125 219.702857 
z
" style="fill:#636c72;"/>
   </g>
   <g id="patch_223">
    <path clip-path="url(#pf7023e5e9a)" d="M 196.72875 230.4 
L 202.46625 230.4 
L 202.46625 230.4 
L 196.72875 230.4 
z
" style="fill:#636c72;"/>
   </g>
   <g id="patch_224">
    <path clip-path="url(#pf7023e5e9a)" d="M 202.46625 230.4 
L 208.20375 230.4 
L 208.20375 230.4 
L 202.46625 230.4 
z
" style="fill:#636c72;"/>
   </g>
   <g id="patch_225">
    <path clip-path="url(#pf7023e5e9a)" d="M 208.20375 230.4 
L 213.94125 230.4 
L 213.94125 230.4 
L 208.20375 230.4 
z
" style="fill:#636c72;"/>
   </g>
   <g id="patch_226">
    <path clip-path="url(#pf7023e5e9a)" d="M 213.94125 230.4 
L 219.67875 230.4 
L 219.67875 209.005714 
L 213.94125 209.005714 
z
" style="fill:#636c72;"/>
   </g>
   <g id="patch_227">
    <path clip-path="url(#pf7023e5e9a)" d="M 219.67875 230.4 
L 225.41625 230.4 
L 225.41625 230.4 
L 219.67875 230.4 
z
" style="fill:#636c72;"/>
   </g>
   <g id="patch_228">
    <path clip-path="url(#pf7023e5e9a)" d="M 225.41625 230.4 
L 231.15375 230.4 
L 231.15375 230.4 
L 225.41625 230.4 
z
" style="fill:#636c72;"/>
   </g>
   <g id="patch_229">
    <path clip-path="url(#pf7023e5e9a)" d="M 231.15375 230.4 
L 236.89125 230.4 
L 236.89125 230.4 
L 231.15375 230.4 
z
" style="fill:#636c72;"/>
   </g>
   <g id="patch_230">
    <path clip-path="url(#pf7023e5e9a)" d="M 236.89125 230.4 
L 242.62875 230.4 
L 242.62875 216.493714 
L 236.89125 216.493714 
z
" style="fill:#636c72;"/>
   </g>
   <g id="patch_231">
    <path clip-path="url(#pf7023e5e9a)" d="M 242.62875 230.4 
L 248.36625 230.4 
L 248.36625 230.4 
L 242.62875 230.4 
z
" style="fill:#636c72;"/>
   </g>
   <g id="patch_232">
    <path clip-path="url(#pf7023e5e9a)" d="M 248.36625 230.4 
L 254.10375 230.4 
L 254.10375 230.4 
L 248.36625 230.4 
z
" style="fill:#636c72;"/>
   </g>
   <g id="patch_233">
    <path clip-path="url(#pf7023e5e9a)" d="M 254.10375 230.4 
L 259.84125 230.4 
L 259.84125 230.4 
L 254.10375 230.4 
z
" style="fill:#636c72;"/>
   </g>
   <g id="patch_234">
    <path clip-path="url(#pf7023e5e9a)" d="M 259.84125 230.4 
L 265.57875 230.4 
L 265.57875 214.354286 
L 259.84125 214.354286 
z
" style="fill:#636c72;"/>
   </g>
   <g id="patch_235">
    <path clip-path="url(#pf7023e5e9a)" d="M 265.57875 230.4 
L 271.31625 230.4 
L 271.31625 230.4 
L 265.57875 230.4 
z
" style="fill:#636c72;"/>
   </g>
   <g id="patch_236">
    <path clip-path="url(#pf7023e5e9a)" d="M 271.31625 230.4 
L 277.05375 230.4 
L 277.05375 230.4 
L 271.31625 230.4 
z
" style="fill:#636c72;"/>
   </g>
   <g id="patch_237">
    <path clip-path="url(#pf7023e5e9a)" d="M 277.05375 230.4 
L 282.79125 230.4 
L 282.79125 230.4 
L 277.05375 230.4 
z
" style="fill:#636c72;"/>
   </g>
   <g id="patch_238">
    <path clip-path="url(#pf7023e5e9a)" d="M 282.79125 230.4 
L 288.52875 230.4 
L 288.52875 213.284571 
L 282.79125 213.284571 
z
" style="fill:#636c72;"/>
   </g>
   <g id="patch_239">
    <path clip-path="url(#pf7023e5e9a)" d="M 288.52875 230.4 
L 294.26625 230.4 
L 294.26625 230.4 
L 288.52875 230.4 
z
" style="fill:#636c72;"/>
   </g>
   <g id="patch_240">
    <path clip-path="url(#pf7023e5e9a)" d="M 294.26625 230.4 
L 300.00375 230.4 
L 300.00375 230.4 
L 294.26625 230.4 
z
" style="fill:#636c72;"/>
   </g>
   <g id="patch_241">
    <path clip-path="url(#pf7023e5e9a)" d="M 300.00375 230.4 
L 305.74125 230.4 
L 305.74125 230.4 
L 300.00375 230.4 
z
" style="fill:#636c72;"/>
   </g>
   <g id="patch_242">
    <path clip-path="url(#pf7023e5e9a)" d="M 305.74125 230.4 
L 311.47875 230.4 
L 311.47875 217.563429 
L 305.74125 217.563429 
z
" style="fill:#636c72;"/>
   </g>
   <g id="patch_243">
    <path clip-path="url(#pf7023e5e9a)" d="M 311.47875 230.4 
L 317.21625 230.4 
L 317.21625 230.4 
L 311.47875 230.4 
z
" style="fill:#636c72;"/>
   </g>
   <g id="patch_244">
    <path clip-path="url(#pf7023e5e9a)" d="M 317.21625 230.4 
L 322.95375 230.4 
L 322.95375 230.4 
L 317.21625 230.4 
z
" style="fill:#636c72;"/>
   </g>
   <g id="patch_245">
    <path clip-path="url(#pf7023e5e9a)" d="M 322.95375 230.4 
L 328.69125 230.4 
L 328.69125 230.4 
L 322.95375 230.4 
z
" style="fill:#636c72;"/>
   </g>
   <g id="patch_246">
    <path clip-path="url(#pf7023e5e9a)" d="M 328.69125 230.4 
L 334.42875 230.4 
L 334.42875 226.121143 
L 328.69125 226.121143 
z
" style="fill:#636c72;"/>
   </g>
   <g id="patch_247">
    <path clip-path="url(#pf7023e5e9a)" d="M 334.42875 230.4 
L 340.16625 230.4 
L 340.16625 230.4 
L 334.42875 230.4 
z
" style="fill:#636c72;"/>
   </g>
   <g id="patch_248">
    <path clip-path="url(#pf7023e5e9a)" d="M 340.16625 230.4 
L 345.90375 230.4 
L 345.90375 230.4 
L 340.16625 230.4 
z
" style="fill:#636c72;"/>
   </g>
   <g id="patch_249">
    <path clip-path="url(#pf7023e5e9a)" d="M 345.90375 230.4 
L 351.64125 230.4 
L 351.64125 230.4 
L 345.90375 230.4 
z
" style="fill:#636c72;"/>
   </g>
   <g id="patch_250">
    <path clip-path="url(#pf7023e5e9a)" d="M 351.64125 230.4 
L 357.37875 230.4 
L 357.37875 229.330286 
L 351.64125 229.330286 
z
" style="fill:#636c72;"/>
   </g>
   <g id="patch_251">
    <path clip-path="url(#pf7023e5e9a)" d="M 357.37875 230.4 
L 363.11625 230.4 
L 363.11625 230.4 
L 357.37875 230.4 
z
" style="fill:#636c72;"/>
   </g>
   <g id="patch_252">
    <path clip-path="url(#pf7023e5e9a)" d="M 363.11625 230.4 
L 368.85375 230.4 
L 368.85375 230.4 
L 363.11625 230.4 
z
" style="fill:#636c72;"/>
   </g>
   <g id="patch_253">
    <path clip-path="url(#pf7023e5e9a)" d="M 368.85375 230.4 
L 374.59125 230.4 
L 374.59125 230.4 
L 368.85375 230.4 
z
" style="fill:#636c72;"/>
   </g>
   <g id="patch_254">
    <path clip-path="url(#pf7023e5e9a)" d="M 374.59125 230.4 
L 380.32875 230.4 
L 380.32875 230.4 
L 374.59125 230.4 
z
" style="fill:#636c72;"/>
   </g>
   <g id="patch_255">
    <path clip-path="url(#pf7023e5e9a)" d="M 380.32875 230.4 
L 386.06625 230.4 
L 386.06625 230.4 
L 380.32875 230.4 
z
" style="fill:#636c72;"/>
   </g>
   <g id="patch_256">
    <path clip-path="url(#pf7023e5e9a)" d="M 386.06625 230.4 
L 391.80375 230.4 
L 391.80375 230.4 
L 386.06625 230.4 
z
" style="fill:#636c72;"/>
   </g>
   <g id="patch_257">
    <path clip-path="url(#pf7023e5e9a)" d="M 391.80375 230.4 
L 397.54125 230.4 
L 397.54125 230.4 
L 391.80375 230.4 
z
" style="fill:#636c72;"/>
   </g>
   <g id="patch_258">
    <path clip-path="url(#pf7023e5e9a)" d="M 397.54125 230.4 
L 403.27875 230.4 
L 403.27875 230.4 
L 397.54125 230.4 
z
" style="fill:#636c72;"/>
   </g>
   <g id="patch_259">
    <path clip-path="url(#pf7023e5e9a)" d="M 403.27875 230.4 
L 409.01625 230.4 
L 409.01625 230.4 
L 403.27875 230.4 
z
" style="fill:#636c72;"/>
   </g>
   <g id="patch_260">
    <path clip-path="url(#pf7023e5e9a)" d="M 409.01625 230.4 
L 414.75375 230.4 
L 414.75375 230.4 
L 409.01625 230.4 
z
" style="fill:#636c72;"/>
   </g>
   <g id="patch_261">
    <path clip-path="url(#pf7023e5e9a)" d="M 414.75375 230.4 
L 420.49125 230.4 
L 420.49125 230.4 
L 414.75375 230.4 
z
" style="fill:#636c72;"/>
   </g>
   <g id="patch_262">
    <path clip-path="url(#pf7023e5e9a)" d="M 420.49125 230.4 
L 426.22875 230.4 
L 426.22875 230.4 
L 420.49125 230.4 
z
" style="fill:#636c72;"/>
   </g>
   <g id="matplotlib.axis_1">
    <g id="xtick_1">
     <g id="line2d_1">
      <defs>
       <path d="M 0 0 
L 0 4 
" id="m22d9e8b78b" style="stroke:#d2d2d2;"/>
      </defs>
      <g>
       <use style="fill:#d2d2d2;stroke:#d2d2d2;" x="79.11" xlink:href="#m22d9e8b78b" y="230.4"/>
      </g>
     </g>
     <g id="text_1">
      <!-- 0.06 -->
      <defs>
       <path d="M 31.78125 66.40625 
Q 24.171875 66.40625 20.328125 58.90625 
Q 16.5 51.421875 16.5 36.375 
Q 16.5 21.390625 20.328125 13.890625 
Q 24.171875 6.390625 31.78125 6.390625 
Q 39.453125 6.390625 43.28125 13.890625 
Q 47.125 21.390625 47.125 36.375 
Q 47.125 51.421875 43.28125 58.90625 
Q 39.453125 66.40625 31.78125 66.40625 
M 31.78125 74.21875 
Q 44.046875 74.21875 50.515625 64.515625 
Q 56.984375 54.828125 56.984375 36.375 
Q 56.984375 17.96875 50.515625 8.265625 
Q 44.046875 -1.421875 31.78125 -1.421875 
Q 19.53125 -1.421875 13.0625 8.265625 
Q 6.59375 17.96875 6.59375 36.375 
Q 6.59375 54.828125 13.0625 64.515625 
Q 19.53125 74.21875 31.78125 74.21875 
" id="DejaVuSans-30"/>
       <path d="M 10.6875 12.40625 
L 21 12.40625 
L 21 0 
L 10.6875 0 
z
" id="DejaVuSans-2e"/>
       <path d="M 33.015625 40.375 
Q 26.375 40.375 22.484375 35.828125 
Q 18.609375 31.296875 18.609375 23.390625 
Q 18.609375 15.53125 22.484375 10.953125 
Q 26.375 6.390625 33.015625 6.390625 
Q 39.65625 6.390625 43.53125 10.953125 
Q 47.40625 15.53125 47.40625 23.390625 
Q 47.40625 31.296875 43.53125 35.828125 
Q 39.65625 40.375 33.015625 40.375 
M 52.59375 71.296875 
L 52.59375 62.3125 
Q 48.875 64.0625 45.09375 64.984375 
Q 41.3125 65.921875 37.59375 65.921875 
Q 27.828125 65.921875 22.671875 59.328125 
Q 17.53125 52.734375 16.796875 39.40625 
Q 19.671875 43.65625 24.015625 45.921875 
Q 28.375 48.1875 33.59375 48.1875 
Q 44.578125 48.1875 50.953125 41.515625 
Q 57.328125 34.859375 57.328125 23.390625 
Q 57.328125 12.15625 50.6875 5.359375 
Q 44.046875 -1.421875 33.015625 -1.421875 
Q 20.359375 -1.421875 13.671875 8.265625 
Q 6.984375 17.96875 6.984375 36.375 
Q 6.984375 53.65625 15.1875 63.9375 
Q 23.390625 74.21875 37.203125 74.21875 
Q 40.921875 74.21875 44.703125 73.484375 
Q 48.484375 72.75 52.59375 71.296875 
" id="DejaVuSans-36"/>
      </defs>
      <g style="fill:#f0ad4e;" transform="translate(71.412811 265.852205)rotate(-45)scale(0.13 -0.13)">
       <use xlink:href="#DejaVuSans-30"/>
       <use x="63.623047" xlink:href="#DejaVuSans-2e"/>
       <use x="95.410156" xlink:href="#DejaVuSans-30"/>
       <use x="159.033203" xlink:href="#DejaVuSans-36"/>
      </g>
     </g>
    </g>
    <g id="xtick_2">
     <g id="line2d_2">
      <g>
       <use style="fill:#d2d2d2;stroke:#d2d2d2;" x="102.06" xlink:href="#m22d9e8b78b" y="230.4"/>
      </g>
     </g>
     <g id="text_2">
      <!-- 0.12 -->
      <defs>
       <path d="M 12.40625 8.296875 
L 28.515625 8.296875 
L 28.515625 63.921875 
L 10.984375 60.40625 
L 10.984375 69.390625 
L 28.421875 72.90625 
L 38.28125 72.90625 
L 38.28125 8.296875 
L 54.390625 8.296875 
L 54.390625 0 
L 12.40625 0 
z
" id="DejaVuSans-31"/>
       <path d="M 19.1875 8.296875 
L 53.609375 8.296875 
L 53.609375 0 
L 7.328125 0 
L 7.328125 8.296875 
Q 12.9375 14.109375 22.625 23.890625 
Q 32.328125 33.6875 34.8125 36.53125 
Q 39.546875 41.84375 41.421875 45.53125 
Q 43.3125 49.21875 43.3125 52.78125 
Q 43.3125 58.59375 39.234375 62.25 
Q 35.15625 65.921875 28.609375 65.921875 
Q 23.96875 65.921875 18.8125 64.3125 
Q 13.671875 62.703125 7.8125 59.421875 
L 7.8125 69.390625 
Q 13.765625 71.78125 18.9375 73 
Q 24.125 74.21875 28.421875 74.21875 
Q 39.75 74.21875 46.484375 68.546875 
Q 53.21875 62.890625 53.21875 53.421875 
Q 53.21875 48.921875 51.53125 44.890625 
Q 49.859375 40.875 45.40625 35.40625 
Q 44.1875 33.984375 37.640625 27.21875 
Q 31.109375 20.453125 19.1875 8.296875 
" id="DejaVuSans-32"/>
      </defs>
      <g style="fill:#f0ad4e;" transform="translate(94.362811 265.852205)rotate(-45)scale(0.13 -0.13)">
       <use xlink:href="#DejaVuSans-30"/>
       <use x="63.623047" xlink:href="#DejaVuSans-2e"/>
       <use x="95.410156" xlink:href="#DejaVuSans-31"/>
       <use x="159.033203" xlink:href="#DejaVuSans-32"/>
      </g>
     </g>
    </g>
    <g id="xtick_3">
     <g id="line2d_3">
      <g>
       <use style="fill:#d2d2d2;stroke:#d2d2d2;" x="125.01" xlink:href="#m22d9e8b78b" y="230.4"/>
      </g>
     </g>
     <g id="text_3">
      <!-- 0.19 -->
      <defs>
       <path d="M 10.984375 1.515625 
L 10.984375 10.5 
Q 14.703125 8.734375 18.5 7.8125 
Q 22.3125 6.890625 25.984375 6.890625 
Q 35.75 6.890625 40.890625 13.453125 
Q 46.046875 20.015625 46.78125 33.40625 
Q 43.953125 29.203125 39.59375 26.953125 
Q 35.25 24.703125 29.984375 24.703125 
Q 19.046875 24.703125 12.671875 31.3125 
Q 6.296875 37.9375 6.296875 49.421875 
Q 6.296875 60.640625 12.9375 67.421875 
Q 19.578125 74.21875 30.609375 74.21875 
Q 43.265625 74.21875 49.921875 64.515625 
Q 56.59375 54.828125 56.59375 36.375 
Q 56.59375 19.140625 48.40625 8.859375 
Q 40.234375 -1.421875 26.421875 -1.421875 
Q 22.703125 -1.421875 18.890625 -0.6875 
Q 15.09375 0.046875 10.984375 1.515625 
M 30.609375 32.421875 
Q 37.25 32.421875 41.125 36.953125 
Q 45.015625 41.5 45.015625 49.421875 
Q 45.015625 57.28125 41.125 61.84375 
Q 37.25 66.40625 30.609375 66.40625 
Q 23.96875 66.40625 20.09375 61.84375 
Q 16.21875 57.28125 16.21875 49.421875 
Q 16.21875 41.5 20.09375 36.953125 
Q 23.96875 32.421875 30.609375 32.421875 
" id="DejaVuSans-39"/>
      </defs>
      <g style="fill:#f0ad4e;" transform="translate(117.312811 265.852205)rotate(-45)scale(0.13 -0.13)">
       <use xlink:href="#DejaVuSans-30"/>
       <use x="63.623047" xlink:href="#DejaVuSans-2e"/>
       <use x="95.410156" xlink:href="#DejaVuSans-31"/>
       <use x="159.033203" xlink:href="#DejaVuSans-39"/>
      </g>
     </g>
    </g>
    <g id="xtick_4">
     <g id="line2d_4">
      <g>
       <use style="fill:#d2d2d2;stroke:#d2d2d2;" x="147.96" xlink:href="#m22d9e8b78b" y="230.4"/>
      </g>
     </g>
     <g id="text_4">
      <!-- 0.25 -->
      <defs>
       <path d="M 10.796875 72.90625 
L 49.515625 72.90625 
L 49.515625 64.59375 
L 19.828125 64.59375 
L 19.828125 46.734375 
Q 21.96875 47.46875 24.109375 47.828125 
Q 26.265625 48.1875 28.421875 48.1875 
Q 40.625 48.1875 47.75 41.5 
Q 54.890625 34.8125 54.890625 23.390625 
Q 54.890625 11.625 47.5625 5.09375 
Q 40.234375 -1.421875 26.90625 -1.421875 
Q 22.3125 -1.421875 17.546875 -0.640625 
Q 12.796875 0.140625 7.71875 1.703125 
L 7.71875 11.625 
Q 12.109375 9.234375 16.796875 8.0625 
Q 21.484375 6.890625 26.703125 6.890625 
Q 35.15625 6.890625 40.078125 11.328125 
Q 45.015625 15.765625 45.015625 23.390625 
Q 45.015625 31 40.078125 35.4375 
Q 35.15625 39.890625 26.703125 39.890625 
Q 22.75 39.890625 18.8125 39.015625 
Q 14.890625 38.140625 10.796875 36.28125 
z
" id="DejaVuSans-35"/>
      </defs>
      <g style="fill:#f0ad4e;" transform="translate(140.262811 265.852205)rotate(-45)scale(0.13 -0.13)">
       <use xlink:href="#DejaVuSans-30"/>
       <use x="63.623047" xlink:href="#DejaVuSans-2e"/>
       <use x="95.410156" xlink:href="#DejaVuSans-32"/>
       <use x="159.033203" xlink:href="#DejaVuSans-35"/>
      </g>
     </g>
    </g>
    <g id="xtick_5">
     <g id="line2d_5">
      <g>
       <use style="fill:#d2d2d2;stroke:#d2d2d2;" x="170.91" xlink:href="#m22d9e8b78b" y="230.4"/>
      </g>
     </g>
     <g id="text_5">
      <!-- 0.31 -->
      <defs>
       <path d="M 40.578125 39.3125 
Q 47.65625 37.796875 51.625 33 
Q 55.609375 28.21875 55.609375 21.1875 
Q 55.609375 10.40625 48.1875 4.484375 
Q 40.765625 -1.421875 27.09375 -1.421875 
Q 22.515625 -1.421875 17.65625 -0.515625 
Q 12.796875 0.390625 7.625 2.203125 
L 7.625 11.71875 
Q 11.71875 9.328125 16.59375 8.109375 
Q 21.484375 6.890625 26.8125 6.890625 
Q 36.078125 6.890625 40.9375 10.546875 
Q 45.796875 14.203125 45.796875 21.1875 
Q 45.796875 27.640625 41.28125 31.265625 
Q 36.765625 34.90625 28.71875 34.90625 
L 20.21875 34.90625 
L 20.21875 43.015625 
L 29.109375 43.015625 
Q 36.375 43.015625 40.234375 45.921875 
Q 44.09375 48.828125 44.09375 54.296875 
Q 44.09375 59.90625 40.109375 62.90625 
Q 36.140625 65.921875 28.71875 65.921875 
Q 24.65625 65.921875 20.015625 65.03125 
Q 15.375 64.15625 9.8125 62.3125 
L 9.8125 71.09375 
Q 15.4375 72.65625 20.34375 73.4375 
Q 25.25 74.21875 29.59375 74.21875 
Q 40.828125 74.21875 47.359375 69.109375 
Q 53.90625 64.015625 53.90625 55.328125 
Q 53.90625 49.265625 50.4375 45.09375 
Q 46.96875 40.921875 40.578125 39.3125 
" id="DejaVuSans-33"/>
      </defs>
      <g style="fill:#f0ad4e;" transform="translate(163.212811 265.852205)rotate(-45)scale(0.13 -0.13)">
       <use xlink:href="#DejaVuSans-30"/>
       <use x="63.623047" xlink:href="#DejaVuSans-2e"/>
       <use x="95.410156" xlink:href="#DejaVuSans-33"/>
       <use x="159.033203" xlink:href="#DejaVuSans-31"/>
      </g>
     </g>
    </g>
    <g id="xtick_6">
     <g id="line2d_6">
      <g>
       <use style="fill:#d2d2d2;stroke:#d2d2d2;" x="193.86" xlink:href="#m22d9e8b78b" y="230.4"/>
      </g>
     </g>
     <g id="text_6">
      <!-- 0.38 -->
      <defs>
       <path d="M 31.78125 34.625 
Q 24.75 34.625 20.71875 30.859375 
Q 16.703125 27.09375 16.703125 20.515625 
Q 16.703125 13.921875 20.71875 10.15625 
Q 24.75 6.390625 31.78125 6.390625 
Q 38.8125 6.390625 42.859375 10.171875 
Q 46.921875 13.96875 46.921875 20.515625 
Q 46.921875 27.09375 42.890625 30.859375 
Q 38.875 34.625 31.78125 34.625 
M 21.921875 38.8125 
Q 15.578125 40.375 12.03125 44.71875 
Q 8.5 49.078125 8.5 55.328125 
Q 8.5 64.0625 14.71875 69.140625 
Q 20.953125 74.21875 31.78125 74.21875 
Q 42.671875 74.21875 48.875 69.140625 
Q 55.078125 64.0625 55.078125 55.328125 
Q 55.078125 49.078125 51.53125 44.71875 
Q 48 40.375 41.703125 38.8125 
Q 48.828125 37.15625 52.796875 32.3125 
Q 56.78125 27.484375 56.78125 20.515625 
Q 56.78125 9.90625 50.3125 4.234375 
Q 43.84375 -1.421875 31.78125 -1.421875 
Q 19.734375 -1.421875 13.25 4.234375 
Q 6.78125 9.90625 6.78125 20.515625 
Q 6.78125 27.484375 10.78125 32.3125 
Q 14.796875 37.15625 21.921875 38.8125 
M 18.3125 54.390625 
Q 18.3125 48.734375 21.84375 45.5625 
Q 25.390625 42.390625 31.78125 42.390625 
Q 38.140625 42.390625 41.71875 45.5625 
Q 45.3125 48.734375 45.3125 54.390625 
Q 45.3125 60.0625 41.71875 63.234375 
Q 38.140625 66.40625 31.78125 66.40625 
Q 25.390625 66.40625 21.84375 63.234375 
Q 18.3125 60.0625 18.3125 54.390625 
" id="DejaVuSans-38"/>
      </defs>
      <g style="fill:#f0ad4e;" transform="translate(186.162811 265.852205)rotate(-45)scale(0.13 -0.13)">
       <use xlink:href="#DejaVuSans-30"/>
       <use x="63.623047" xlink:href="#DejaVuSans-2e"/>
       <use x="95.410156" xlink:href="#DejaVuSans-33"/>
       <use x="159.033203" xlink:href="#DejaVuSans-38"/>
      </g>
     </g>
    </g>
    <g id="xtick_7">
     <g id="line2d_7">
      <g>
       <use style="fill:#d2d2d2;stroke:#d2d2d2;" x="216.81" xlink:href="#m22d9e8b78b" y="230.4"/>
      </g>
     </g>
     <g id="text_7">
      <!-- 0.44 -->
      <defs>
       <path d="M 37.796875 64.3125 
L 12.890625 25.390625 
L 37.796875 25.390625 
z
M 35.203125 72.90625 
L 47.609375 72.90625 
L 47.609375 25.390625 
L 58.015625 25.390625 
L 58.015625 17.1875 
L 47.609375 17.1875 
L 47.609375 0 
L 37.796875 0 
L 37.796875 17.1875 
L 4.890625 17.1875 
L 4.890625 26.703125 
z
" id="DejaVuSans-34"/>
      </defs>
      <g style="fill:#f0ad4e;" transform="translate(209.112811 265.852205)rotate(-45)scale(0.13 -0.13)">
       <use xlink:href="#DejaVuSans-30"/>
       <use x="63.623047" xlink:href="#DejaVuSans-2e"/>
       <use x="95.410156" xlink:href="#DejaVuSans-34"/>
       <use x="159.033203" xlink:href="#DejaVuSans-34"/>
      </g>
     </g>
    </g>
    <g id="xtick_8">
     <g id="line2d_8">
      <g>
       <use style="fill:#d2d2d2;stroke:#d2d2d2;" x="239.76" xlink:href="#m22d9e8b78b" y="230.4"/>
      </g>
     </g>
     <g id="text_8">
      <!-- 0.50 -->
      <g style="fill:#f0ad4e;" transform="translate(232.062811 265.852205)rotate(-45)scale(0.13 -0.13)">
       <use xlink:href="#DejaVuSans-30"/>
       <use x="63.623047" xlink:href="#DejaVuSans-2e"/>
       <use x="95.410156" xlink:href="#DejaVuSans-35"/>
       <use x="159.033203" xlink:href="#DejaVuSans-30"/>
      </g>
     </g>
    </g>
    <g id="xtick_9">
     <g id="line2d_9">
      <g>
       <use style="fill:#d2d2d2;stroke:#d2d2d2;" x="262.71" xlink:href="#m22d9e8b78b" y="230.4"/>
      </g>
     </g>
     <g id="text_9">
      <!-- 0.56 -->
      <g style="fill:#f0ad4e;" transform="translate(255.012811 265.852205)rotate(-45)scale(0.13 -0.13)">
       <use xlink:href="#DejaVuSans-30"/>
       <use x="63.623047" xlink:href="#DejaVuSans-2e"/>
       <use x="95.410156" xlink:href="#DejaVuSans-35"/>
       <use x="159.033203" xlink:href="#DejaVuSans-36"/>
      </g>
     </g>
    </g>
    <g id="xtick_10">
     <g id="line2d_10">
      <g>
       <use style="fill:#d2d2d2;stroke:#d2d2d2;" x="285.66" xlink:href="#m22d9e8b78b" y="230.4"/>
      </g>
     </g>
     <g id="text_10">
      <!-- 0.62 -->
      <g style="fill:#f0ad4e;" transform="translate(277.962811 265.852205)rotate(-45)scale(0.13 -0.13)">
       <use xlink:href="#DejaVuSans-30"/>
       <use x="63.623047" xlink:href="#DejaVuSans-2e"/>
       <use x="95.410156" xlink:href="#DejaVuSans-36"/>
       <use x="159.033203" xlink:href="#DejaVuSans-32"/>
      </g>
     </g>
    </g>
    <g id="xtick_11">
     <g id="line2d_11">
      <g>
       <use style="fill:#d2d2d2;stroke:#d2d2d2;" x="308.61" xlink:href="#m22d9e8b78b" y="230.4"/>
      </g>
     </g>
     <g id="text_11">
      <!-- 0.69 -->
      <g style="fill:#f0ad4e;" transform="translate(300.912811 265.852205)rotate(-45)scale(0.13 -0.13)">
       <use xlink:href="#DejaVuSans-30"/>
       <use x="63.623047" xlink:href="#DejaVuSans-2e"/>
       <use x="95.410156" xlink:href="#DejaVuSans-36"/>
       <use x="159.033203" xlink:href="#DejaVuSans-39"/>
      </g>
     </g>
    </g>
    <g id="xtick_12">
     <g id="line2d_12">
      <g>
       <use style="fill:#d2d2d2;stroke:#d2d2d2;" x="331.56" xlink:href="#m22d9e8b78b" y="230.4"/>
      </g>
     </g>
     <g id="text_12">
      <!-- 0.75 -->
      <defs>
       <path d="M 8.203125 72.90625 
L 55.078125 72.90625 
L 55.078125 68.703125 
L 28.609375 0 
L 18.3125 0 
L 43.21875 64.59375 
L 8.203125 64.59375 
z
" id="DejaVuSans-37"/>
      </defs>
      <g style="fill:#f0ad4e;" transform="translate(323.862811 265.852205)rotate(-45)scale(0.13 -0.13)">
       <use xlink:href="#DejaVuSans-30"/>
       <use x="63.623047" xlink:href="#DejaVuSans-2e"/>
       <use x="95.410156" xlink:href="#DejaVuSans-37"/>
       <use x="159.033203" xlink:href="#DejaVuSans-35"/>
      </g>
     </g>
    </g>
    <g id="xtick_13">
     <g id="line2d_13">
      <g>
       <use style="fill:#d2d2d2;stroke:#d2d2d2;" x="354.51" xlink:href="#m22d9e8b78b" y="230.4"/>
      </g>
     </g>
     <g id="text_13">
      <!-- 0.81 -->
      <g style="fill:#f0ad4e;" transform="translate(346.812811 265.852205)rotate(-45)scale(0.13 -0.13)">
       <use xlink:href="#DejaVuSans-30"/>
       <use x="63.623047" xlink:href="#DejaVuSans-2e"/>
       <use x="95.410156" xlink:href="#DejaVuSans-38"/>
       <use x="159.033203" xlink:href="#DejaVuSans-31"/>
      </g>
     </g>
    </g>
    <g id="xtick_14">
     <g id="line2d_14">
      <g>
       <use style="fill:#d2d2d2;stroke:#d2d2d2;" x="377.46" xlink:href="#m22d9e8b78b" y="230.4"/>
      </g>
     </g>
     <g id="text_14">
      <!-- 0.88 -->
      <g style="fill:#f0ad4e;" transform="translate(369.762811 265.852205)rotate(-45)scale(0.13 -0.13)">
       <use xlink:href="#DejaVuSans-30"/>
       <use x="63.623047" xlink:href="#DejaVuSans-2e"/>
       <use x="95.410156" xlink:href="#DejaVuSans-38"/>
       <use x="159.033203" xlink:href="#DejaVuSans-38"/>
      </g>
     </g>
    </g>
    <g id="xtick_15">
     <g id="line2d_15">
      <g>
       <use style="fill:#d2d2d2;stroke:#d2d2d2;" x="400.41" xlink:href="#m22d9e8b78b" y="230.4"/>
      </g>
     </g>
     <g id="text_15">
      <!-- 0.94 -->
      <g style="fill:#f0ad4e;" transform="translate(392.712811 265.852205)rotate(-45)scale(0.13 -0.13)">
       <use xlink:href="#DejaVuSans-30"/>
       <use x="63.623047" xlink:href="#DejaVuSans-2e"/>
       <use x="95.410156" xlink:href="#DejaVuSans-39"/>
       <use x="159.033203" xlink:href="#DejaVuSans-34"/>
      </g>
     </g>
    </g>
    <g id="xtick_16">
     <g id="line2d_16">
      <g>
       <use style="fill:#d2d2d2;stroke:#d2d2d2;" x="423.36" xlink:href="#m22d9e8b78b" y="230.4"/>
      </g>
     </g>
     <g id="text_16">
      <!-- 1.00 -->
      <g style="fill:#f0ad4e;" transform="translate(415.662811 265.852205)rotate(-45)scale(0.13 -0.13)">
       <use xlink:href="#DejaVuSans-31"/>
       <use x="63.623047" xlink:href="#DejaVuSans-2e"/>
       <use x="95.410156" xlink:href="#DejaVuSans-30"/>
       <use x="159.033203" xlink:href="#DejaVuSans-30"/>
      </g>
     </g>
    </g>
   </g>
   <g id="matplotlib.axis_2">
    <g id="ytick_1">
     <g id="line2d_17">
      <defs>
       <path d="M 0 0 
L -4 0 
" id="m0895028def" style="stroke:#d2d2d2;"/>
      </defs>
      <g>
       <use style="fill:#d2d2d2;stroke:#d2d2d2;" x="56.16" xlink:href="#m0895028def" y="230.4"/>
      </g>
     </g>
     <g id="text_17">
      <!-- 0 -->
      <g style="fill:#d2d2d2;" transform="translate(39.88875 235.338984)scale(0.13 -0.13)">
       <use xlink:href="#DejaVuSans-30"/>
      </g>
     </g>
    </g>
    <g id="ytick_2">
     <g id="line2d_18">
      <g>
       <use style="fill:#d2d2d2;stroke:#d2d2d2;" x="56.16" xlink:href="#m0895028def" y="203.657143"/>
      </g>
     </g>
     <g id="text_18">
      <!-- 25 -->
      <g style="fill:#d2d2d2;" transform="translate(31.6175 208.596127)scale(0.13 -0.13)">
       <use xlink:href="#DejaVuSans-32"/>
       <use x="63.623047" xlink:href="#DejaVuSans-35"/>
      </g>
     </g>
    </g>
    <g id="ytick_3">
     <g id="line2d_19">
      <g>
       <use style="fill:#d2d2d2;stroke:#d2d2d2;" x="56.16" xlink:href="#m0895028def" y="176.914286"/>
      </g>
     </g>
     <g id="text_19">
      <!-- 50 -->
      <g style="fill:#d2d2d2;" transform="translate(31.6175 181.85327)scale(0.13 -0.13)">
       <use xlink:href="#DejaVuSans-35"/>
       <use x="63.623047" xlink:href="#DejaVuSans-30"/>
      </g>
     </g>
    </g>
    <g id="ytick_4">
     <g id="line2d_20">
      <g>
       <use style="fill:#d2d2d2;stroke:#d2d2d2;" x="56.16" xlink:href="#m0895028def" y="150.171429"/>
      </g>
     </g>
     <g id="text_20">
      <!-- 75 -->
      <g style="fill:#d2d2d2;" transform="translate(31.6175 155.110413)scale(0.13 -0.13)">
       <use xlink:href="#DejaVuSans-37"/>
       <use x="63.623047" xlink:href="#DejaVuSans-35"/>
      </g>
     </g>
    </g>
    <g id="ytick_5">
     <g id="line2d_21">
      <g>
       <use style="fill:#d2d2d2;stroke:#d2d2d2;" x="56.16" xlink:href="#m0895028def" y="123.428571"/>
      </g>
     </g>
     <g id="text_21">
      <!-- 100 -->
      <g style="fill:#d2d2d2;" transform="translate(23.34625 128.367556)scale(0.13 -0.13)">
       <use xlink:href="#DejaVuSans-31"/>
       <use x="63.623047" xlink:href="#DejaVuSans-30"/>
       <use x="127.246094" xlink:href="#DejaVuSans-30"/>
      </g>
     </g>
    </g>
    <g id="ytick_6">
     <g id="line2d_22">
      <g>
       <use style="fill:#d2d2d2;stroke:#d2d2d2;" x="56.16" xlink:href="#m0895028def" y="96.685714"/>
      </g>
     </g>
     <g id="text_22">
      <!-- 125 -->
      <g style="fill:#d2d2d2;" transform="translate(23.34625 101.624699)scale(0.13 -0.13)">
       <use xlink:href="#DejaVuSans-31"/>
       <use x="63.623047" xlink:href="#DejaVuSans-32"/>
       <use x="127.246094" xlink:href="#DejaVuSans-35"/>
      </g>
     </g>
    </g>
    <g id="ytick_7">
     <g id="line2d_23">
      <g>
       <use style="fill:#d2d2d2;stroke:#d2d2d2;" x="56.16" xlink:href="#m0895028def" y="69.942857"/>
      </g>
     </g>
     <g id="text_23">
      <!-- 150 -->
      <g style="fill:#d2d2d2;" transform="translate(23.34625 74.881842)scale(0.13 -0.13)">
       <use xlink:href="#DejaVuSans-31"/>
       <use x="63.623047" xlink:href="#DejaVuSans-35"/>
       <use x="127.246094" xlink:href="#DejaVuSans-30"/>
      </g>
     </g>
    </g>
    <g id="ytick_8">
     <g id="line2d_24">
      <g>
       <use style="fill:#d2d2d2;stroke:#d2d2d2;" x="56.16" xlink:href="#m0895028def" y="43.2"/>
      </g>
     </g>
     <g id="text_24">
      <!-- 175 -->
      <g style="fill:#d2d2d2;" transform="translate(23.34625 48.138984)scale(0.13 -0.13)">
       <use xlink:href="#DejaVuSans-31"/>
       <use x="63.623047" xlink:href="#DejaVuSans-37"/>
       <use x="127.246094" xlink:href="#DejaVuSans-35"/>
      </g>
     </g>
    </g>
    <g id="ytick_9">
     <g id="line2d_25">
      <g>
       <use style="fill:#d2d2d2;stroke:#d2d2d2;" x="56.16" xlink:href="#m0895028def" y="16.457143"/>
      </g>
     </g>
     <g id="text_25">
      <!-- 200 -->
      <g style="fill:#d2d2d2;" transform="translate(23.34625 21.396127)scale(0.13 -0.13)">
       <use xlink:href="#DejaVuSans-32"/>
       <use x="63.623047" xlink:href="#DejaVuSans-30"/>
       <use x="127.246094" xlink:href="#DejaVuSans-30"/>
      </g>
     </g>
    </g>
    <g id="text_26">
     <!-- Frequency -->
     <defs>
      <path d="M 9.8125 72.90625 
L 51.703125 72.90625 
L 51.703125 64.59375 
L 19.671875 64.59375 
L 19.671875 43.109375 
L 48.578125 43.109375 
L 48.578125 34.8125 
L 19.671875 34.8125 
L 19.671875 0 
L 9.8125 0 
z
" id="DejaVuSans-46"/>
      <path d="M 41.109375 46.296875 
Q 39.59375 47.171875 37.8125 47.578125 
Q 36.03125 48 33.890625 48 
Q 26.265625 48 22.1875 43.046875 
Q 18.109375 38.09375 18.109375 28.8125 
L 18.109375 0 
L 9.078125 0 
L 9.078125 54.6875 
L 18.109375 54.6875 
L 18.109375 46.1875 
Q 20.953125 51.171875 25.484375 53.578125 
Q 30.03125 56 36.53125 56 
Q 37.453125 56 38.578125 55.875 
Q 39.703125 55.765625 41.0625 55.515625 
z
" id="DejaVuSans-72"/>
      <path d="M 56.203125 29.59375 
L 56.203125 25.203125 
L 14.890625 25.203125 
Q 15.484375 15.921875 20.484375 11.0625 
Q 25.484375 6.203125 34.421875 6.203125 
Q 39.59375 6.203125 44.453125 7.46875 
Q 49.3125 8.734375 54.109375 11.28125 
L 54.109375 2.78125 
Q 49.265625 0.734375 44.1875 -0.34375 
Q 39.109375 -1.421875 33.890625 -1.421875 
Q 20.796875 -1.421875 13.15625 6.1875 
Q 5.515625 13.8125 5.515625 26.8125 
Q 5.515625 40.234375 12.765625 48.109375 
Q 20.015625 56 32.328125 56 
Q 43.359375 56 49.78125 48.890625 
Q 56.203125 41.796875 56.203125 29.59375 
M 47.21875 32.234375 
Q 47.125 39.59375 43.09375 43.984375 
Q 39.0625 48.390625 32.421875 48.390625 
Q 24.90625 48.390625 20.390625 44.140625 
Q 15.875 39.890625 15.1875 32.171875 
z
" id="DejaVuSans-65"/>
      <path d="M 14.796875 27.296875 
Q 14.796875 17.390625 18.875 11.75 
Q 22.953125 6.109375 30.078125 6.109375 
Q 37.203125 6.109375 41.296875 11.75 
Q 45.40625 17.390625 45.40625 27.296875 
Q 45.40625 37.203125 41.296875 42.84375 
Q 37.203125 48.484375 30.078125 48.484375 
Q 22.953125 48.484375 18.875 42.84375 
Q 14.796875 37.203125 14.796875 27.296875 
M 45.40625 8.203125 
Q 42.578125 3.328125 38.25 0.953125 
Q 33.9375 -1.421875 27.875 -1.421875 
Q 17.96875 -1.421875 11.734375 6.484375 
Q 5.515625 14.40625 5.515625 27.296875 
Q 5.515625 40.1875 11.734375 48.09375 
Q 17.96875 56 27.875 56 
Q 33.9375 56 38.25 53.625 
Q 42.578125 51.265625 45.40625 46.390625 
L 45.40625 54.6875 
L 54.390625 54.6875 
L 54.390625 -20.796875 
L 45.40625 -20.796875 
z
" id="DejaVuSans-71"/>
      <path d="M 8.5 21.578125 
L 8.5 54.6875 
L 17.484375 54.6875 
L 17.484375 21.921875 
Q 17.484375 14.15625 20.5 10.265625 
Q 23.53125 6.390625 29.59375 6.390625 
Q 36.859375 6.390625 41.078125 11.03125 
Q 45.3125 15.671875 45.3125 23.6875 
L 45.3125 54.6875 
L 54.296875 54.6875 
L 54.296875 0 
L 45.3125 0 
L 45.3125 8.40625 
Q 42.046875 3.421875 37.71875 1 
Q 33.40625 -1.421875 27.6875 -1.421875 
Q 18.265625 -1.421875 13.375 4.4375 
Q 8.5 10.296875 8.5 21.578125 
M 31.109375 56 
z
" id="DejaVuSans-75"/>
      <path d="M 54.890625 33.015625 
L 54.890625 0 
L 45.90625 0 
L 45.90625 32.71875 
Q 45.90625 40.484375 42.875 44.328125 
Q 39.84375 48.1875 33.796875 48.1875 
Q 26.515625 48.1875 22.3125 43.546875 
Q 18.109375 38.921875 18.109375 30.90625 
L 18.109375 0 
L 9.078125 0 
L 9.078125 54.6875 
L 18.109375 54.6875 
L 18.109375 46.1875 
Q 21.34375 51.125 25.703125 53.5625 
Q 30.078125 56 35.796875 56 
Q 45.21875 56 50.046875 50.171875 
Q 54.890625 44.34375 54.890625 33.015625 
" id="DejaVuSans-6e"/>
      <path d="M 48.78125 52.59375 
L 48.78125 44.1875 
Q 44.96875 46.296875 41.140625 47.34375 
Q 37.3125 48.390625 33.40625 48.390625 
Q 24.65625 48.390625 19.8125 42.84375 
Q 14.984375 37.3125 14.984375 27.296875 
Q 14.984375 17.28125 19.8125 11.734375 
Q 24.65625 6.203125 33.40625 6.203125 
Q 37.3125 6.203125 41.140625 7.25 
Q 44.96875 8.296875 48.78125 10.40625 
L 48.78125 2.09375 
Q 45.015625 0.34375 40.984375 -0.53125 
Q 36.96875 -1.421875 32.421875 -1.421875 
Q 20.0625 -1.421875 12.78125 6.34375 
Q 5.515625 14.109375 5.515625 27.296875 
Q 5.515625 40.671875 12.859375 48.328125 
Q 20.21875 56 33.015625 56 
Q 37.15625 56 41.109375 55.140625 
Q 45.0625 54.296875 48.78125 52.59375 
" id="DejaVuSans-63"/>
      <path d="M 32.171875 -5.078125 
Q 28.375 -14.84375 24.75 -17.8125 
Q 21.140625 -20.796875 15.09375 -20.796875 
L 7.90625 -20.796875 
L 7.90625 -13.28125 
L 13.1875 -13.28125 
Q 16.890625 -13.28125 18.9375 -11.515625 
Q 21 -9.765625 23.484375 -3.21875 
L 25.09375 0.875 
L 2.984375 54.6875 
L 12.5 54.6875 
L 29.59375 11.921875 
L 46.6875 54.6875 
L 56.203125 54.6875 
z
" id="DejaVuSans-79"/>
     </defs>
     <g style="fill:#d2d2d2;" transform="translate(16.01875 160.15625)rotate(-90)scale(0.16 -0.16)">
      <use xlink:href="#DejaVuSans-46"/>
      <use x="57.410156" xlink:href="#DejaVuSans-72"/>
      <use x="98.492188" xlink:href="#DejaVuSans-65"/>
      <use x="160.015625" xlink:href="#DejaVuSans-71"/>
      <use x="223.492188" xlink:href="#DejaVuSans-75"/>
      <use x="286.871094" xlink:href="#DejaVuSans-65"/>
      <use x="348.394531" xlink:href="#DejaVuSans-6e"/>
      <use x="411.773438" xlink:href="#DejaVuSans-63"/>
      <use x="466.753906" xlink:href="#DejaVuSans-79"/>
     </g>
    </g>
   </g>
   <g id="line2d_26">
    <path clip-path="url(#pf7023e5e9a)" d="M 400.41 230.4 
L 400.41 73.152 
" style="fill:none;stroke:#d2d2d2;stroke-dasharray:5.6,2.4;stroke-dashoffset:0;stroke-width:1.5;"/>
   </g>
   <g id="patch_263">
    <path d="M 56.16 230.4 
L 56.16 5.76 
" style="fill:none;stroke:#d2d2d2;stroke-linecap:square;stroke-linejoin:miter;"/>
   </g>
   <g id="patch_264">
    <path d="M 56.16 230.4 
L 423.36 230.4 
" style="fill:none;stroke:#d2d2d2;stroke-linecap:square;stroke-linejoin:miter;"/>
   </g>
   <g id="text_27">
    <!-- 1000 -->
    <g style="fill:#5bc0de;" transform="translate(79.11 52.114286)scale(0.2 -0.2)">
     <use xlink:href="#DejaVuSans-31"/>
     <use x="63.623047" xlink:href="#DejaVuSans-30"/>
     <use x="127.246094" xlink:href="#DejaVuSans-30"/>
     <use x="190.869141" xlink:href="#DejaVuSans-30"/>
    </g>
   </g>
   <g id="text_28">
    <!-- 500 -->
    <g style="fill:#d9534f;" transform="translate(79.11 141.257143)scale(0.2 -0.2)">
     <use xlink:href="#DejaVuSans-35"/>
     <use x="63.623047" xlink:href="#DejaVuSans-30"/>
     <use x="127.246094" xlink:href="#DejaVuSans-30"/>
    </g>
   </g>
   <g id="text_29">
    <!-- 300 -->
    <g style="fill:#f0ad4e;" transform="translate(79.11 176.914286)scale(0.2 -0.2)">
     <use xlink:href="#DejaVuSans-33"/>
     <use x="63.623047" xlink:href="#DejaVuSans-30"/>
     <use x="127.246094" xlink:href="#DejaVuSans-30"/>
    </g>
   </g>
   <g id="text_30">
    <!-- 100 -->
    <g style="fill:#636c72;" transform="translate(79.11 212.571429)scale(0.2 -0.2)">
     <use xlink:href="#DejaVuSans-31"/>
     <use x="63.623047" xlink:href="#DejaVuSans-30"/>
     <use x="127.246094" xlink:href="#DejaVuSans-30"/>
    </g>
   </g>
   <g id="text_31">
    <!-- Buzz's -->
    <defs>
     <path d="M 19.671875 34.8125 
L 19.671875 8.109375 
L 35.5 8.109375 
Q 43.453125 8.109375 47.28125 11.40625 
Q 51.125 14.703125 51.125 21.484375 
Q 51.125 28.328125 47.28125 31.5625 
Q 43.453125 34.8125 35.5 34.8125 
z
M 19.671875 64.796875 
L 19.671875 42.828125 
L 34.28125 42.828125 
Q 41.5 42.828125 45.03125 45.53125 
Q 48.578125 48.25 48.578125 53.8125 
Q 48.578125 59.328125 45.03125 62.0625 
Q 41.5 64.796875 34.28125 64.796875 
z
M 9.8125 72.90625 
L 35.015625 72.90625 
Q 46.296875 72.90625 52.390625 68.21875 
Q 58.5 63.53125 58.5 54.890625 
Q 58.5 48.1875 55.375 44.234375 
Q 52.25 40.28125 46.1875 39.3125 
Q 53.46875 37.75 57.5 32.78125 
Q 61.53125 27.828125 61.53125 20.40625 
Q 61.53125 10.640625 54.890625 5.3125 
Q 48.25 0 35.984375 0 
L 9.8125 0 
z
" id="DejaVuSans-42"/>
     <path d="M 5.515625 54.6875 
L 48.1875 54.6875 
L 48.1875 46.484375 
L 14.40625 7.171875 
L 48.1875 7.171875 
L 48.1875 0 
L 4.296875 0 
L 4.296875 8.203125 
L 38.09375 47.515625 
L 5.515625 47.515625 
z
" id="DejaVuSans-7a"/>
     <path d="M 17.921875 72.90625 
L 17.921875 45.796875 
L 9.625 45.796875 
L 9.625 72.90625 
z
" id="DejaVuSans-27"/>
     <path d="M 44.28125 53.078125 
L 44.28125 44.578125 
Q 40.484375 46.53125 36.375 47.5 
Q 32.28125 48.484375 27.875 48.484375 
Q 21.1875 48.484375 17.84375 46.4375 
Q 14.5 44.390625 14.5 40.28125 
Q 14.5 37.15625 16.890625 35.375 
Q 19.28125 33.59375 26.515625 31.984375 
L 29.59375 31.296875 
Q 39.15625 29.25 43.1875 25.515625 
Q 47.21875 21.78125 47.21875 15.09375 
Q 47.21875 7.46875 41.1875 3.015625 
Q 35.15625 -1.421875 24.609375 -1.421875 
Q 20.21875 -1.421875 15.453125 -0.5625 
Q 10.6875 0.296875 5.421875 2 
L 5.421875 11.28125 
Q 10.40625 8.6875 15.234375 7.390625 
Q 20.0625 6.109375 24.8125 6.109375 
Q 31.15625 6.109375 34.5625 8.28125 
Q 37.984375 10.453125 37.984375 14.40625 
Q 37.984375 18.0625 35.515625 20.015625 
Q 33.0625 21.96875 24.703125 23.78125 
L 21.578125 24.515625 
Q 13.234375 26.265625 9.515625 29.90625 
Q 5.8125 33.546875 5.8125 39.890625 
Q 5.8125 47.609375 11.28125 51.796875 
Q 16.75 56 26.8125 56 
Q 31.78125 56 36.171875 55.265625 
Q 40.578125 54.546875 44.28125 53.078125 
" id="DejaVuSans-73"/>
    </defs>
    <g style="fill:#d2d2d2;" transform="translate(375.0875 44.0035)scale(0.16 -0.16)">
     <use xlink:href="#DejaVuSans-42"/>
     <use x="68.603516" xlink:href="#DejaVuSans-75"/>
     <use x="131.982422" xlink:href="#DejaVuSans-7a"/>
     <use x="184.472656" xlink:href="#DejaVuSans-7a"/>
     <use x="236.962891" xlink:href="#DejaVuSans-27"/>
     <use x="264.453125" xlink:href="#DejaVuSans-73"/>
    </g>
    <!-- successes -->
    <g style="fill:#d2d2d2;" transform="translate(360.0275 61.92)scale(0.16 -0.16)">
     <use xlink:href="#DejaVuSans-73"/>
     <use x="52.099609" xlink:href="#DejaVuSans-75"/>
     <use x="115.478516" xlink:href="#DejaVuSans-63"/>
     <use x="170.458984" xlink:href="#DejaVuSans-63"/>
     <use x="225.439453" xlink:href="#DejaVuSans-65"/>
     <use x="286.962891" xlink:href="#DejaVuSans-73"/>
     <use x="339.0625" xlink:href="#DejaVuSans-73"/>
     <use x="391.162109" xlink:href="#DejaVuSans-65"/>
     <use x="452.685547" xlink:href="#DejaVuSans-73"/>
    </g>
   </g>
   <g id="text_32">
    <!-- Proportion -->
    <defs>
     <path d="M 19.671875 64.796875 
L 19.671875 37.40625 
L 32.078125 37.40625 
Q 38.96875 37.40625 42.71875 40.96875 
Q 46.484375 44.53125 46.484375 51.125 
Q 46.484375 57.671875 42.71875 61.234375 
Q 38.96875 64.796875 32.078125 64.796875 
z
M 9.8125 72.90625 
L 32.078125 72.90625 
Q 44.34375 72.90625 50.609375 67.359375 
Q 56.890625 61.8125 56.890625 51.125 
Q 56.890625 40.328125 50.609375 34.8125 
Q 44.34375 29.296875 32.078125 29.296875 
L 19.671875 29.296875 
L 19.671875 0 
L 9.8125 0 
z
" id="DejaVuSans-50"/>
     <path d="M 30.609375 48.390625 
Q 23.390625 48.390625 19.1875 42.75 
Q 14.984375 37.109375 14.984375 27.296875 
Q 14.984375 17.484375 19.15625 11.84375 
Q 23.34375 6.203125 30.609375 6.203125 
Q 37.796875 6.203125 41.984375 11.859375 
Q 46.1875 17.53125 46.1875 27.296875 
Q 46.1875 37.015625 41.984375 42.703125 
Q 37.796875 48.390625 30.609375 48.390625 
M 30.609375 56 
Q 42.328125 56 49.015625 48.375 
Q 55.71875 40.765625 55.71875 27.296875 
Q 55.71875 13.875 49.015625 6.21875 
Q 42.328125 -1.421875 30.609375 -1.421875 
Q 18.84375 -1.421875 12.171875 6.21875 
Q 5.515625 13.875 5.515625 27.296875 
Q 5.515625 40.765625 12.171875 48.375 
Q 18.84375 56 30.609375 56 
" id="DejaVuSans-6f"/>
     <path d="M 18.109375 8.203125 
L 18.109375 -20.796875 
L 9.078125 -20.796875 
L 9.078125 54.6875 
L 18.109375 54.6875 
L 18.109375 46.390625 
Q 20.953125 51.265625 25.265625 53.625 
Q 29.59375 56 35.59375 56 
Q 45.5625 56 51.78125 48.09375 
Q 58.015625 40.1875 58.015625 27.296875 
Q 58.015625 14.40625 51.78125 6.484375 
Q 45.5625 -1.421875 35.59375 -1.421875 
Q 29.59375 -1.421875 25.265625 0.953125 
Q 20.953125 3.328125 18.109375 8.203125 
M 48.6875 27.296875 
Q 48.6875 37.203125 44.609375 42.84375 
Q 40.53125 48.484375 33.40625 48.484375 
Q 26.265625 48.484375 22.1875 42.84375 
Q 18.109375 37.203125 18.109375 27.296875 
Q 18.109375 17.390625 22.1875 11.75 
Q 26.265625 6.109375 33.40625 6.109375 
Q 40.53125 6.109375 44.609375 11.75 
Q 48.6875 17.390625 48.6875 27.296875 
" id="DejaVuSans-70"/>
     <path d="M 18.3125 70.21875 
L 18.3125 54.6875 
L 36.8125 54.6875 
L 36.8125 47.703125 
L 18.3125 47.703125 
L 18.3125 18.015625 
Q 18.3125 11.328125 20.140625 9.421875 
Q 21.96875 7.515625 27.59375 7.515625 
L 36.8125 7.515625 
L 36.8125 0 
L 27.59375 0 
Q 17.1875 0 13.234375 3.875 
Q 9.28125 7.765625 9.28125 18.015625 
L 9.28125 47.703125 
L 2.6875 47.703125 
L 2.6875 54.6875 
L 9.28125 54.6875 
L 9.28125 70.21875 
z
" id="DejaVuSans-74"/>
     <path d="M 9.421875 54.6875 
L 18.40625 54.6875 
L 18.40625 0 
L 9.421875 0 
z
M 9.421875 75.984375 
L 18.40625 75.984375 
L 18.40625 64.59375 
L 9.421875 64.59375 
z
" id="DejaVuSans-69"/>
    </defs>
    <g style="fill:#f0ad4e;" transform="translate(89.6 283.9626)scale(0.16 -0.16)">
     <use xlink:href="#DejaVuSans-50"/>
     <use x="60.287109" xlink:href="#DejaVuSans-72"/>
     <use x="101.369141" xlink:href="#DejaVuSans-6f"/>
     <use x="162.550781" xlink:href="#DejaVuSans-70"/>
     <use x="226.027344" xlink:href="#DejaVuSans-6f"/>
     <use x="287.208984" xlink:href="#DejaVuSans-72"/>
     <use x="328.322266" xlink:href="#DejaVuSans-74"/>
     <use x="367.53125" xlink:href="#DejaVuSans-69"/>
     <use x="395.314453" xlink:href="#DejaVuSans-6f"/>
     <use x="456.496094" xlink:href="#DejaVuSans-6e"/>
    </g>
   </g>
   <g id="text_33">
    <!-- of heads out of 16 flips -->
    <defs>
     <path d="M 37.109375 75.984375 
L 37.109375 68.5 
L 28.515625 68.5 
Q 23.6875 68.5 21.796875 66.546875 
Q 19.921875 64.59375 19.921875 59.515625 
L 19.921875 54.6875 
L 34.71875 54.6875 
L 34.71875 47.703125 
L 19.921875 47.703125 
L 19.921875 0 
L 10.890625 0 
L 10.890625 47.703125 
L 2.296875 47.703125 
L 2.296875 54.6875 
L 10.890625 54.6875 
L 10.890625 58.5 
Q 10.890625 67.625 15.140625 71.796875 
Q 19.390625 75.984375 28.609375 75.984375 
z
" id="DejaVuSans-66"/>
     <path id="DejaVuSans-20"/>
     <path d="M 54.890625 33.015625 
L 54.890625 0 
L 45.90625 0 
L 45.90625 32.71875 
Q 45.90625 40.484375 42.875 44.328125 
Q 39.84375 48.1875 33.796875 48.1875 
Q 26.515625 48.1875 22.3125 43.546875 
Q 18.109375 38.921875 18.109375 30.90625 
L 18.109375 0 
L 9.078125 0 
L 9.078125 75.984375 
L 18.109375 75.984375 
L 18.109375 46.1875 
Q 21.34375 51.125 25.703125 53.5625 
Q 30.078125 56 35.796875 56 
Q 45.21875 56 50.046875 50.171875 
Q 54.890625 44.34375 54.890625 33.015625 
" id="DejaVuSans-68"/>
     <path d="M 34.28125 27.484375 
Q 23.390625 27.484375 19.1875 25 
Q 14.984375 22.515625 14.984375 16.5 
Q 14.984375 11.71875 18.140625 8.90625 
Q 21.296875 6.109375 26.703125 6.109375 
Q 34.1875 6.109375 38.703125 11.40625 
Q 43.21875 16.703125 43.21875 25.484375 
L 43.21875 27.484375 
z
M 52.203125 31.203125 
L 52.203125 0 
L 43.21875 0 
L 43.21875 8.296875 
Q 40.140625 3.328125 35.546875 0.953125 
Q 30.953125 -1.421875 24.3125 -1.421875 
Q 15.921875 -1.421875 10.953125 3.296875 
Q 6 8.015625 6 15.921875 
Q 6 25.140625 12.171875 29.828125 
Q 18.359375 34.515625 30.609375 34.515625 
L 43.21875 34.515625 
L 43.21875 35.40625 
Q 43.21875 41.609375 39.140625 45 
Q 35.0625 48.390625 27.6875 48.390625 
Q 23 48.390625 18.546875 47.265625 
Q 14.109375 46.140625 10.015625 43.890625 
L 10.015625 52.203125 
Q 14.9375 54.109375 19.578125 55.046875 
Q 24.21875 56 28.609375 56 
Q 40.484375 56 46.34375 49.84375 
Q 52.203125 43.703125 52.203125 31.203125 
" id="DejaVuSans-61"/>
     <path d="M 45.40625 46.390625 
L 45.40625 75.984375 
L 54.390625 75.984375 
L 54.390625 0 
L 45.40625 0 
L 45.40625 8.203125 
Q 42.578125 3.328125 38.25 0.953125 
Q 33.9375 -1.421875 27.875 -1.421875 
Q 17.96875 -1.421875 11.734375 6.484375 
Q 5.515625 14.40625 5.515625 27.296875 
Q 5.515625 40.1875 11.734375 48.09375 
Q 17.96875 56 27.875 56 
Q 33.9375 56 38.25 53.625 
Q 42.578125 51.265625 45.40625 46.390625 
M 14.796875 27.296875 
Q 14.796875 17.390625 18.875 11.75 
Q 22.953125 6.109375 30.078125 6.109375 
Q 37.203125 6.109375 41.296875 11.75 
Q 45.40625 17.390625 45.40625 27.296875 
Q 45.40625 37.203125 41.296875 42.84375 
Q 37.203125 48.484375 30.078125 48.484375 
Q 22.953125 48.484375 18.875 42.84375 
Q 14.796875 37.203125 14.796875 27.296875 
" id="DejaVuSans-64"/>
     <path d="M 9.421875 75.984375 
L 18.40625 75.984375 
L 18.40625 0 
L 9.421875 0 
z
" id="DejaVuSans-6c"/>
    </defs>
    <g style="fill:#d2d2d2;" transform="translate(177.78 283.9626)scale(0.16 -0.16)">
     <use xlink:href="#DejaVuSans-6f"/>
     <use x="61.181641" xlink:href="#DejaVuSans-66"/>
     <use x="96.386719" xlink:href="#DejaVuSans-20"/>
     <use x="128.173828" xlink:href="#DejaVuSans-68"/>
     <use x="191.552734" xlink:href="#DejaVuSans-65"/>
     <use x="253.076172" xlink:href="#DejaVuSans-61"/>
     <use x="314.355469" xlink:href="#DejaVuSans-64"/>
     <use x="377.832031" xlink:href="#DejaVuSans-73"/>
     <use x="429.931641" xlink:href="#DejaVuSans-20"/>
     <use x="461.71875" xlink:href="#DejaVuSans-6f"/>
     <use x="522.900391" xlink:href="#DejaVuSans-75"/>
     <use x="586.279297" xlink:href="#DejaVuSans-74"/>
     <use x="625.488281" xlink:href="#DejaVuSans-20"/>
     <use x="657.275391" xlink:href="#DejaVuSans-6f"/>
     <use x="718.457031" xlink:href="#DejaVuSans-66"/>
     <use x="753.662109" xlink:href="#DejaVuSans-20"/>
     <use x="785.449219" xlink:href="#DejaVuSans-31"/>
     <use x="849.072266" xlink:href="#DejaVuSans-36"/>
     <use x="912.695312" xlink:href="#DejaVuSans-20"/>
     <use x="944.482422" xlink:href="#DejaVuSans-66"/>
     <use x="979.6875" xlink:href="#DejaVuSans-6c"/>
     <use x="1007.470703" xlink:href="#DejaVuSans-69"/>
     <use x="1035.253906" xlink:href="#DejaVuSans-70"/>
     <use x="1098.730469" xlink:href="#DejaVuSans-73"/>
    </g>
   </g>
  </g>
 </g>
 <defs>
  <clipPath id="pf7023e5e9a">
   <rect height="224.64" width="367.2" x="56.16" y="5.76"/>
  </clipPath>
 </defs>
</svg>
