<?xml version="1.0" encoding="utf-8" standalone="no"?>
<!DOCTYPE svg PUBLIC "-//W3C//DTD SVG 1.1//EN"
  "http://www.w3.org/Graphics/SVG/1.1/DTD/svg11.dtd">
<!-- Created with matplotlib (http://matplotlib.org/) -->
<svg height="288pt" version="1.1" viewBox="0 0 648 288" width="648pt" xmlns="http://www.w3.org/2000/svg" xmlns:xlink="http://www.w3.org/1999/xlink">
 <defs>
  <style type="text/css">
*{stroke-linecap:butt;stroke-linejoin:round;}
  </style>
 </defs>
 <g id="figure_1">
  <g id="patch_1">
   <path d="M 0 288 
L 648 288 
L 648 0 
L 0 0 
z
" style="fill:none;"/>
  </g>
  <g id="axes_1">
   <g id="patch_2">
    <path d="M 184.68 230.4 
L 456.84 230.4 
L 456.84 14.4 
L 184.68 14.4 
z
" style="fill:none;"/>
   </g>
   <g id="matplotlib.axis_1">
    <g id="xtick_1">
     <g id="line2d_1">
      <defs>
       <path d="M 0 0 
L 0 4 
" id="mdeeb0946ae" style="stroke:#d2d2d2;"/>
      </defs>
      <g>
       <use style="fill:#d2d2d2;stroke:#d2d2d2;" x="204.292355" xlink:href="#mdeeb0946ae" y="230.4"/>
      </g>
     </g>
     <g id="text_1">
      <!-- 1000 -->
      <defs>
       <path d="M 12.40625 8.296875 
L 28.515625 8.296875 
L 28.515625 63.921875 
L 10.984375 60.40625 
L 10.984375 69.390625 
L 28.421875 72.90625 
L 38.28125 72.90625 
L 38.28125 8.296875 
L 54.390625 8.296875 
L 54.390625 0 
L 12.40625 0 
z
" id="DejaVuSans-31"/>
       <path d="M 31.78125 66.40625 
Q 24.171875 66.40625 20.328125 58.90625 
Q 16.5 51.421875 16.5 36.375 
Q 16.5 21.390625 20.328125 13.890625 
Q 24.171875 6.390625 31.78125 6.390625 
Q 39.453125 6.390625 43.28125 13.890625 
Q 47.125 21.390625 47.125 36.375 
Q 47.125 51.421875 43.28125 58.90625 
Q 39.453125 66.40625 31.78125 66.40625 
M 31.78125 74.21875 
Q 44.046875 74.21875 50.515625 64.515625 
Q 56.984375 54.828125 56.984375 36.375 
Q 56.984375 17.96875 50.515625 8.265625 
Q 44.046875 -1.421875 31.78125 -1.421875 
Q 19.53125 -1.421875 13.0625 8.265625 
Q 6.59375 17.96875 6.59375 36.375 
Q 6.59375 54.828125 13.0625 64.515625 
Q 19.53125 74.21875 31.78125 74.21875 
" id="DejaVuSans-30"/>
      </defs>
      <g style="fill:#d2d2d2;" transform="translate(187.749855 248.277969)scale(0.13 -0.13)">
       <use xlink:href="#DejaVuSans-31"/>
       <use x="63.623047" xlink:href="#DejaVuSans-30"/>
       <use x="127.246094" xlink:href="#DejaVuSans-30"/>
       <use x="190.869141" xlink:href="#DejaVuSans-30"/>
      </g>
     </g>
    </g>
    <g id="xtick_2">
     <g id="line2d_2">
      <g>
       <use style="fill:#d2d2d2;stroke:#d2d2d2;" x="260.407819" xlink:href="#mdeeb0946ae" y="230.4"/>
      </g>
     </g>
     <g id="text_2">
      <!-- 3000 -->
      <defs>
       <path d="M 40.578125 39.3125 
Q 47.65625 37.796875 51.625 33 
Q 55.609375 28.21875 55.609375 21.1875 
Q 55.609375 10.40625 48.1875 4.484375 
Q 40.765625 -1.421875 27.09375 -1.421875 
Q 22.515625 -1.421875 17.65625 -0.515625 
Q 12.796875 0.390625 7.625 2.203125 
L 7.625 11.71875 
Q 11.71875 9.328125 16.59375 8.109375 
Q 21.484375 6.890625 26.8125 6.890625 
Q 36.078125 6.890625 40.9375 10.546875 
Q 45.796875 14.203125 45.796875 21.1875 
Q 45.796875 27.640625 41.28125 31.265625 
Q 36.765625 34.90625 28.71875 34.90625 
L 20.21875 34.90625 
L 20.21875 43.015625 
L 29.109375 43.015625 
Q 36.375 43.015625 40.234375 45.921875 
Q 44.09375 48.828125 44.09375 54.296875 
Q 44.09375 59.90625 40.109375 62.90625 
Q 36.140625 65.921875 28.71875 65.921875 
Q 24.65625 65.921875 20.015625 65.03125 
Q 15.375 64.15625 9.8125 62.3125 
L 9.8125 71.09375 
Q 15.4375 72.65625 20.34375 73.4375 
Q 25.25 74.21875 29.59375 74.21875 
Q 40.828125 74.21875 47.359375 69.109375 
Q 53.90625 64.015625 53.90625 55.328125 
Q 53.90625 49.265625 50.4375 45.09375 
Q 46.96875 40.921875 40.578125 39.3125 
" id="DejaVuSans-33"/>
      </defs>
      <g style="fill:#d2d2d2;" transform="translate(243.865319 248.277969)scale(0.13 -0.13)">
       <use xlink:href="#DejaVuSans-33"/>
       <use x="63.623047" xlink:href="#DejaVuSans-30"/>
       <use x="127.246094" xlink:href="#DejaVuSans-30"/>
       <use x="190.869141" xlink:href="#DejaVuSans-30"/>
      </g>
     </g>
    </g>
    <g id="xtick_3">
     <g id="line2d_3">
      <g>
       <use style="fill:#d2d2d2;stroke:#d2d2d2;" x="316.523282" xlink:href="#mdeeb0946ae" y="230.4"/>
      </g>
     </g>
     <g id="text_3">
      <!-- 5000 -->
      <defs>
       <path d="M 10.796875 72.90625 
L 49.515625 72.90625 
L 49.515625 64.59375 
L 19.828125 64.59375 
L 19.828125 46.734375 
Q 21.96875 47.46875 24.109375 47.828125 
Q 26.265625 48.1875 28.421875 48.1875 
Q 40.625 48.1875 47.75 41.5 
Q 54.890625 34.8125 54.890625 23.390625 
Q 54.890625 11.625 47.5625 5.09375 
Q 40.234375 -1.421875 26.90625 -1.421875 
Q 22.3125 -1.421875 17.546875 -0.640625 
Q 12.796875 0.140625 7.71875 1.703125 
L 7.71875 11.625 
Q 12.109375 9.234375 16.796875 8.0625 
Q 21.484375 6.890625 26.703125 6.890625 
Q 35.15625 6.890625 40.078125 11.328125 
Q 45.015625 15.765625 45.015625 23.390625 
Q 45.015625 31 40.078125 35.4375 
Q 35.15625 39.890625 26.703125 39.890625 
Q 22.75 39.890625 18.8125 39.015625 
Q 14.890625 38.140625 10.796875 36.28125 
z
" id="DejaVuSans-35"/>
      </defs>
      <g style="fill:#d2d2d2;" transform="translate(299.980782 248.277969)scale(0.13 -0.13)">
       <use xlink:href="#DejaVuSans-35"/>
       <use x="63.623047" xlink:href="#DejaVuSans-30"/>
       <use x="127.246094" xlink:href="#DejaVuSans-30"/>
       <use x="190.869141" xlink:href="#DejaVuSans-30"/>
      </g>
     </g>
    </g>
    <g id="xtick_4">
     <g id="line2d_4">
      <g>
       <use style="fill:#d2d2d2;stroke:#d2d2d2;" x="372.638746" xlink:href="#mdeeb0946ae" y="230.4"/>
      </g>
     </g>
     <g id="text_4">
      <!-- 7000 -->
      <defs>
       <path d="M 8.203125 72.90625 
L 55.078125 72.90625 
L 55.078125 68.703125 
L 28.609375 0 
L 18.3125 0 
L 43.21875 64.59375 
L 8.203125 64.59375 
z
" id="DejaVuSans-37"/>
      </defs>
      <g style="fill:#d2d2d2;" transform="translate(356.096246 248.277969)scale(0.13 -0.13)">
       <use xlink:href="#DejaVuSans-37"/>
       <use x="63.623047" xlink:href="#DejaVuSans-30"/>
       <use x="127.246094" xlink:href="#DejaVuSans-30"/>
       <use x="190.869141" xlink:href="#DejaVuSans-30"/>
      </g>
     </g>
    </g>
    <g id="xtick_5">
     <g id="line2d_5">
      <g>
       <use style="fill:#d2d2d2;stroke:#d2d2d2;" x="428.75421" xlink:href="#mdeeb0946ae" y="230.4"/>
      </g>
     </g>
     <g id="text_5">
      <!-- 9000 -->
      <defs>
       <path d="M 10.984375 1.515625 
L 10.984375 10.5 
Q 14.703125 8.734375 18.5 7.8125 
Q 22.3125 6.890625 25.984375 6.890625 
Q 35.75 6.890625 40.890625 13.453125 
Q 46.046875 20.015625 46.78125 33.40625 
Q 43.953125 29.203125 39.59375 26.953125 
Q 35.25 24.703125 29.984375 24.703125 
Q 19.046875 24.703125 12.671875 31.3125 
Q 6.296875 37.9375 6.296875 49.421875 
Q 6.296875 60.640625 12.9375 67.421875 
Q 19.578125 74.21875 30.609375 74.21875 
Q 43.265625 74.21875 49.921875 64.515625 
Q 56.59375 54.828125 56.59375 36.375 
Q 56.59375 19.140625 48.40625 8.859375 
Q 40.234375 -1.421875 26.421875 -1.421875 
Q 22.703125 -1.421875 18.890625 -0.6875 
Q 15.09375 0.046875 10.984375 1.515625 
M 30.609375 32.421875 
Q 37.25 32.421875 41.125 36.953125 
Q 45.015625 41.5 45.015625 49.421875 
Q 45.015625 57.28125 41.125 61.84375 
Q 37.25 66.40625 30.609375 66.40625 
Q 23.96875 66.40625 20.09375 61.84375 
Q 16.21875 57.28125 16.21875 49.421875 
Q 16.21875 41.5 20.09375 36.953125 
Q 23.96875 32.421875 30.609375 32.421875 
" id="DejaVuSans-39"/>
      </defs>
      <g style="fill:#d2d2d2;" transform="translate(412.21171 248.277969)scale(0.13 -0.13)">
       <use xlink:href="#DejaVuSans-39"/>
       <use x="63.623047" xlink:href="#DejaVuSans-30"/>
       <use x="127.246094" xlink:href="#DejaVuSans-30"/>
       <use x="190.869141" xlink:href="#DejaVuSans-30"/>
      </g>
     </g>
    </g>
   </g>
   <g id="matplotlib.axis_2"/>
   <g id="line2d_6">
    <path clip-path="url(#p1d1028a486)" d="M 184.68 131.563636 
L 184.708058 131.239625 
L 184.708058 131.239625 
L 184.708058 131.239625 
L 184.820289 131.896274 
L 184.848346 131.576471 
L 184.876404 131.25875 
L 184.904462 131.580638 
L 185.072808 132.843544 
L 185.185039 132.218182 
L 185.353386 133.430303 
L 185.381443 133.124476 
L 185.409501 133.422867 
L 185.409501 133.422867 
L 185.437559 133.719433 
L 185.437559 133.719433 
L 185.437559 133.719433 
L 185.577847 132.218182 
L 185.605905 132.513022 
L 185.633963 132.806097 
L 185.662021 132.511262 
L 185.690078 132.218182 
L 185.718136 132.509523 
L 185.942598 134.210277 
L 186.139002 133.333884 
L 186.279291 134.693354 
L 186.307348 134.412189 
L 186.475695 133.836563 
L 186.503753 134.101121 
L 186.503753 134.101121 
L 186.503753 134.101121 
L 186.700157 133.2739 
L 186.728214 133.534292 
L 186.78433 133.527273 
L 186.924619 133.251675 
L 186.952676 133.506657 
L 187.008792 133.499929 
L 187.121023 132.979281 
L 187.14908 133.230366 
L 187.177138 133.480159 
L 187.205196 133.225175 
L 187.233254 132.971495 
L 187.261311 133.220037 
L 187.261311 133.220037 
L 187.317427 133.713336 
L 187.345485 133.46099 
L 187.373542 133.209917 
L 187.4016 133.454729 
L 187.4016 133.454729 
L 187.485773 134.181818 
L 187.513831 133.932079 
L 187.569946 133.436319 
L 187.65412 133.669145 
L 187.766351 134.61286 
L 187.822466 134.601236 
L 187.934697 133.634266 
L 187.990812 134.09726 
L 188.01887 134.327099 
L 188.01887 134.327099 
L 188.01887 134.327099 
L 188.243332 133.367852 
L 188.27139 133.135769 
L 188.299447 133.362492 
L 188.299447 133.362492 
L 188.383621 133.581818 
L 188.523909 133.341544 
L 188.664198 133.995228 
L 188.804487 132.87712 
L 188.860602 133.311521 
L 189.028948 134.16024 
L 189.141179 133.715508 
L 189.169237 133.925692 
L 189.309526 134.540762 
L 189.337584 134.325088 
L 189.365641 134.530816 
L 189.365641 134.530816 
L 189.393699 134.735664 
L 189.393699 134.735664 
L 189.393699 134.735664 
L 189.646219 133.247341 
L 189.674276 133.45059 
L 189.702334 133.243044 
L 189.87068 132.420619 
L 189.898738 132.622222 
L 190.095142 131.222423 
L 190.1232 131.423187 
L 190.151258 131.62314 
L 190.179315 131.426393 
L 190.179315 131.426393 
L 190.291546 131.04 
L 190.487951 132.024529 
L 190.628239 131.451136 
L 190.656297 131.644019 
L 190.684355 131.454121 
L 190.684355 131.454121 
L 190.796586 130.70186 
L 190.824643 130.893957 
L 190.852701 131.085315 
L 190.880759 130.89904 
L 190.880759 130.89904 
L 190.964932 130.719223 
L 191.133278 131.477187 
L 191.161336 131.293683 
L 191.301625 130.752782 
L 191.385798 130.943093 
L 191.413856 130.763636 
L 191.582202 130.06034 
L 191.666375 130.608644 
L 191.722491 130.258109 
L 191.834722 129.918428 
L 192.059184 130.648668 
L 192.115299 130.306677 
L 192.143357 130.483521 
L 192.395876 131.364427 
L 192.451992 131.027068 
L 192.480049 131.198993 
L 192.704511 131.88309 
L 192.788685 131.38472 
L 192.816742 131.552542 
L 192.8448 131.719797 
L 192.872858 131.554791 
L 192.872858 131.554791 
L 193.041204 130.904713 
L 193.293724 131.732934 
L 193.377897 131.252459 
L 193.405955 131.41473 
L 193.602359 132.218182 
L 193.630416 132.059568 
L 193.798763 132.375273 
L 193.967109 132.684973 
L 193.995167 132.839586 
L 194.023225 132.683498 
L 194.023225 132.683498 
L 194.247687 131.758673 
L 194.303802 132.065488 
L 194.359918 131.761522 
L 194.556322 131.013497 
L 194.724668 131.322907 
L 194.808841 131.178435 
L 195.033303 131.777905 
L 195.257765 130.912958 
L 195.369996 131.208971 
L 195.398054 131.066489 
L 195.594458 130.365695 
L 195.678631 130.799369 
L 195.762804 130.664225 
L 195.846977 130.530242 
L 196.043381 130.964797 
L 196.18367 130.558771 
L 196.352016 130.846927 
L 196.464247 130.581818 
L 196.632594 131.136289 
L 196.660652 131.002726 
L 196.744825 130.873225 
L 196.885113 131.283117 
L 196.913171 131.150988 
L 197.277922 129.727588 
L 197.446268 130.007465 
L 197.502384 129.753909 
L 197.530441 129.886687 
L 197.726845 130.293048 
L 197.923249 129.674611 
L 197.951307 129.804916 
L 197.979365 129.681184 
L 197.979365 129.681184 
L 198.007423 129.557771 
L 198.03548 129.687723 
L 198.259942 130.214471 
L 198.316058 129.969743 
L 198.344115 130.097355 
L 198.484404 130.482645 
L 198.512462 130.361023 
L 198.596635 129.99799 
L 198.624693 130.123965 
L 198.821097 130.508548 
L 198.849155 130.388707 
L 198.877212 130.51279 
L 199.213905 131.498022 
L 199.354194 131.144505 
L 199.382252 131.26496 
L 199.662829 131.982734 
L 199.859233 131.634461 
L 199.887291 131.75176 
L 199.915348 131.635846 
L 199.915348 131.635846 
L 200.111753 131.063102 
L 200.13981 131.179831 
L 200.167868 131.296287 
L 200.195926 131.182266 
L 200.195926 131.182266 
L 200.39233 130.848203 
L 200.560676 131.084443 
L 200.588734 130.972507 
L 200.616792 131.087055 
L 200.616792 131.087055 
L 200.729023 131.317431 
L 200.75708 131.205998 
L 200.785138 131.09482 
L 200.813196 131.208312 
L 200.813196 131.208312 
L 201.0096 131.772913 
L 201.037658 131.662226 
L 201.26212 131.226446 
L 201.290177 131.337627 
L 201.318235 131.228667 
L 201.318235 131.228667 
L 201.346293 131.119951 
L 201.374351 131.230879 
L 201.374351 131.230879 
L 201.402408 131.341558 
L 201.430466 131.23308 
L 201.430466 131.23308 
L 201.458524 131.124843 
L 201.486581 131.235272 
L 201.486581 131.235272 
L 201.542697 131.455393 
L 201.598812 131.239625 
L 201.739101 130.920625 
L 201.767159 131.030063 
L 201.87939 131.250344 
L 201.907447 131.143982 
L 201.963563 130.931957 
L 202.019678 131.148663 
L 202.075794 131.364427 
L 202.159967 131.260829 
L 202.412487 130.532657 
L 202.440544 130.639696 
L 202.693064 131.175912 
L 202.749179 130.970108 
L 202.833353 131.077738 
L 202.917526 131.184689 
L 202.945584 131.082535 
L 203.141988 130.783374 
L 203.310334 130.996002 
L 203.47868 130.801125 
L 203.647027 131.011028 
L 203.927604 130.425816 
L 203.955662 130.328157 
L 203.98372 130.429444 
L 203.98372 130.429444 
L 204.011777 130.530527 
L 204.039835 130.433058 
L 204.039835 130.433058 
L 204.264297 130.053853 
L 204.516816 130.560693 
L 204.685163 130.182823 
L 204.713221 130.281657 
L 204.797394 130.38391 
L 204.825452 130.289266 
L 204.993798 130.108807 
L 205.021856 130.206652 
L 205.049913 130.112919 
L 205.049913 130.112919 
L 205.302433 129.656917 
L 205.526895 129.300026 
L 205.58301 129.493519 
L 205.639126 129.311175 
L 205.83553 128.864723 
L 206.031934 129.534607 
L 206.088049 129.35493 
L 206.256396 129.187312 
L 206.508915 129.668005 
L 206.70532 129.412987 
L 206.761435 129.598796 
L 206.845608 129.51593 
L 206.873666 129.428414 
L 206.901724 129.520879 
L 206.901724 129.520879 
L 207.098128 129.806072 
L 207.266474 129.641464 
L 207.294532 129.732566 
L 207.32259 129.64612 
L 207.32259 129.64612 
L 207.462878 129.569392 
L 207.547052 129.664574 
L 207.575109 129.578886 
L 207.603167 129.493351 
L 207.631225 129.583607 
L 207.631225 129.583607 
L 207.771513 129.857622 
L 207.799571 129.772371 
L 207.883744 129.517528 
L 207.93986 129.69624 
L 207.995975 129.874319 
L 208.080148 129.793939 
L 208.388784 129.045494 
L 208.416841 129.133936 
L 208.444899 129.051026 
L 208.444899 129.051026 
L 208.585188 128.809091 
L 208.613245 128.897201 
L 208.837707 129.258351 
L 209.090227 128.861538 
L 209.314689 129.217719 
L 209.370804 129.056394 
L 209.42692 129.227873 
L 209.511093 129.484005 
L 209.595266 129.408264 
L 209.651381 129.247976 
L 209.707497 129.417694 
L 209.875843 129.759539 
L 209.903901 129.679703 
L 210.072247 129.20347 
L 210.128363 129.371153 
L 210.156421 129.454786 
L 210.184478 129.375863 
L 210.184478 129.375863 
L 210.40894 129.071846 
L 210.493113 129.16006 
L 210.521171 129.082153 
L 210.605344 129.009626 
L 210.633402 129.092393 
L 210.773691 129.344568 
L 210.801748 129.267144 
L 211.082326 128.816233 
L 211.222614 128.908682 
L 211.531249 128.390887 
L 211.559307 128.471976 
L 211.587365 128.396967 
L 211.587365 128.396967 
L 211.811827 128.111129 
L 211.839885 128.191798 
L 211.867942 128.117602 
L 211.867942 128.117602 
L 212.14852 127.689075 
L 212.260751 128.009296 
L 212.344924 127.942768 
L 212.429097 127.87655 
L 212.457155 127.956025 
L 212.625501 128.127273 
L 212.709674 127.909973 
L 212.76579 128.067528 
L 212.990252 128.392916 
L 213.270829 127.975298 
L 213.298887 128.052893 
L 213.326944 127.981722 
L 213.326944 127.981722 
L 213.467233 127.627478 
L 213.523348 127.782256 
L 213.691695 128.096606 
L 213.719753 128.026149 
L 213.74781 127.955797 
L 213.775868 128.03242 
L 213.775868 128.03242 
L 213.803926 128.108928 
L 213.831984 128.038672 
L 213.831984 128.038672 
L 214.056445 127.771938 
L 214.084503 127.848071 
L 214.112561 127.77853 
L 214.112561 127.77853 
L 214.252849 127.577387 
L 214.280907 127.653271 
L 214.533427 128.043295 
L 214.645658 127.911962 
L 214.673715 127.986825 
L 214.898177 128.296613 
L 214.926235 128.22821 
L 214.954293 128.302301 
L 214.954293 128.302301 
L 215.038466 128.381844 
L 215.066524 128.313627 
L 215.094581 128.245507 
L 215.122639 128.319265 
L 215.122639 128.319265 
L 215.375159 128.696596 
L 215.515447 128.498642 
L 215.543505 128.571429 
L 215.599621 128.71669 
L 215.683794 128.654287 
L 216.020487 128.13016 
L 216.048544 128.202282 
L 216.076602 128.135922 
L 216.076602 128.135922 
L 216.10466 128.069654 
L 216.132718 128.141667 
L 216.132718 128.141667 
L 216.216891 128.357099 
L 216.273006 128.224812 
L 216.441353 127.967293 
L 216.46941 128.038774 
L 216.637757 128.329117 
L 216.665814 128.263636 
L 216.693872 128.198246 
L 216.72193 128.269121 
L 216.72193 128.269121 
L 216.918334 128.62699 
L 216.946392 128.561755 
L 217.030565 128.36659 
L 217.114738 128.441958 
L 217.255027 128.656487 
L 217.283085 128.591767 
L 217.3392 128.462593 
L 217.395315 128.601662 
L 217.451431 128.740352 
L 217.507546 128.611503 
L 217.675893 128.493126 
L 217.703951 128.562122 
L 217.732008 128.498167 
L 217.732008 128.498167 
L 217.788124 128.370516 
L 217.844239 128.508208 
L 217.872297 128.576914 
L 217.900355 128.513208 
L 217.900355 128.513208 
L 217.95647 128.386052 
L 218.012586 128.523167 
L 218.152874 128.864349 
L 218.20899 128.737489 
L 218.293163 128.678917 
L 218.321221 128.746777 
L 218.57374 129.093031 
L 218.601798 129.030038 
L 218.629856 129.09717 
L 218.629856 129.09717 
L 218.770144 129.172277 
L 218.882375 128.921755 
L 218.938491 129.055191 
L 219.162953 129.328593 
L 219.19101 129.26631 
L 219.219068 129.332367 
L 219.219068 129.332367 
L 219.275184 129.464223 
L 219.331299 129.339887 
L 219.611876 128.977229 
L 219.696049 129.046934 
L 219.724107 128.985598 
L 219.864396 128.932819 
L 220.0608 129.262035 
L 220.088858 129.201071 
L 220.116915 129.140185 
L 220.144973 129.204929 
L 220.144973 129.204929 
L 220.173031 129.26959 
L 220.201089 129.208777 
L 220.201089 129.208777 
L 220.229146 129.148042 
L 220.257204 129.212616 
L 220.257204 129.212616 
L 220.509724 129.541062 
L 220.790301 129.063001 
L 220.818359 129.126815 
L 221.098936 129.514803 
L 221.407571 129.106142 
L 221.603975 129.423402 
L 221.632033 129.364412 
L 221.828437 129.195343 
L 221.996784 129.447407 
L 222.024841 129.388908 
L 222.052899 129.330481 
L 222.080957 129.392373 
L 222.080957 129.392373 
L 222.109014 129.454189 
L 222.137072 129.39583 
L 222.137072 129.39583 
L 222.193188 129.279325 
L 222.249303 129.402718 
L 222.417649 129.651727 
L 222.445707 129.593637 
L 222.642111 129.426563 
L 222.7824 129.612633 
L 222.810458 129.555022 
L 222.922689 129.325272 
L 222.978804 129.446683 
L 223.147151 129.809173 
L 223.203266 129.69468 
L 223.371612 129.586745 
L 223.511901 129.886072 
L 223.596074 129.83202 
L 223.624132 129.775269 
L 223.65219 129.834846 
L 223.65219 129.834846 
L 223.680247 129.894352 
L 223.708305 129.837665 
L 223.708305 129.837665 
L 223.904709 129.674012 
L 224.241402 130.151196 
L 224.409748 130.043992 
L 224.774499 130.571408 
L 224.858672 130.517573 
L 224.88673 130.575209 
L 224.942845 130.69028 
L 224.998961 130.578992 
L 225.027019 130.523444 
L 225.055076 130.580877 
L 225.055076 130.580877 
L 225.195365 130.754462 
L 225.223423 130.699036 
L 225.25148 130.643674 
L 225.279538 130.700775 
L 225.279538 130.700775 
L 225.307596 130.757812 
L 225.335654 130.702511 
L 225.335654 130.702511 
L 225.363711 130.647273 
L 225.391769 130.704242 
L 225.391769 130.704242 
L 225.475942 130.874759 
L 225.532058 130.764465 
L 225.728462 130.603166 
L 225.75652 130.65974 
L 225.784577 130.604996 
L 225.784577 130.604996 
L 226.205443 130.011849 
L 226.429905 130.241367 
L 226.486021 130.133875 
L 226.542136 130.245779 
L 226.682425 130.415177 
L 226.710482 130.361573 
L 226.73854 130.30803 
L 226.766598 130.363636 
L 226.766598 130.363636 
L 227.047175 130.699347 
L 227.075233 130.645972 
L 227.103291 130.701023 
L 227.103291 130.701023 
L 227.131348 130.756015 
L 227.159406 130.702696 
L 227.159406 130.702696 
L 227.439984 130.388038 
L 227.60833 130.501341 
L 227.776676 130.293048 
L 227.804734 130.347543 
L 227.832792 130.401978 
L 227.860849 130.349577 
L 227.860849 130.349577 
L 228.057254 129.984359 
L 228.113369 130.093034 
L 228.281715 130.205825 
L 228.422004 130.052795 
L 228.450062 130.106745 
L 228.702581 130.379571 
L 228.758697 130.276585 
L 228.814812 130.383498 
L 228.84287 130.436868 
L 228.870928 130.385455 
L 228.870928 130.385455 
L 228.955101 130.336102 
L 228.983159 130.389356 
L 229.011216 130.442553 
L 229.039274 130.391301 
L 229.039274 130.391301 
L 229.235678 130.138059 
L 229.263736 130.191135 
L 229.291794 130.244156 
L 229.319852 130.193279 
L 229.319852 130.193279 
L 229.347909 130.142456 
L 229.375967 130.195419 
L 229.375967 130.195419 
L 229.488198 130.406709 
L 229.544313 130.305213 
L 229.796833 129.954031 
L 229.824891 130.006648 
L 229.909064 130.061468 
L 229.937122 130.011272 
L 230.105468 129.81352 
L 230.133526 129.865909 
L 230.161584 129.918243 
L 230.189641 129.868357 
L 230.189641 129.868357 
L 230.217699 129.818522 
L 230.245757 129.870799 
L 230.245757 129.870799 
L 230.273814 129.923022 
L 230.301872 129.873237 
L 230.301872 129.873237 
L 230.32993 129.823503 
L 230.357988 129.87567 
L 230.357988 129.87567 
L 230.582449 130.088204 
L 230.750796 129.993671 
L 230.778854 130.045347 
L 230.806911 129.99596 
L 230.806911 129.99596 
L 230.919142 129.89972 
L 230.9472 129.951285 
L 231.031373 130.105663 
L 231.115546 130.058684 
L 231.452239 129.672542 
L 231.648643 129.830782 
L 231.676701 129.782278 
L 231.704759 129.833198 
L 231.704759 129.833198 
L 231.845047 129.88878 
L 231.901163 129.792106 
L 231.985336 129.845207 
L 232.350087 130.302679 
L 232.406202 130.20646 
L 232.462318 130.306504 
L 232.742895 130.706192 
L 232.770953 130.658193 
L 232.855126 130.514481 
L 232.939299 130.565617 
L 232.967357 130.615015 
L 233.023472 130.519534 
L 233.079588 130.424242 
L 233.163761 130.475309 
L 233.275992 130.47874 
L 233.500454 130.293048 
L 233.752973 130.541089 
L 233.893262 130.40177 
L 233.92132 130.450431 
L 234.033551 130.644602 
L 234.089666 130.550854 
L 234.117724 130.504047 
L 234.173839 130.600846 
L 234.28607 130.698927 
L 234.314128 130.652208 
L 234.454416 130.608644 
L 234.678878 130.803458 
L 234.847225 130.71348 
L 235.015571 130.811566 
L 235.183918 130.628571 
L 235.211975 130.676059 
L 235.324206 130.772274 
L 235.352264 130.72634 
L 235.632841 130.454992 
L 235.717014 130.503823 
L 235.745072 130.458319 
L 235.857303 130.461633 
L 236.13788 130.745915 
L 236.362342 130.568067 
L 236.446515 130.616147 
L 236.474573 130.571143 
L 236.699035 130.394935 
L 236.951555 130.629479 
L 237.00767 130.540248 
L 237.063786 130.632412 
L 237.204074 130.681266 
L 237.316305 130.684091 
L 237.456594 130.822658 
L 237.484652 130.778302 
L 237.933575 130.252759 
L 238.101922 130.347203 
L 238.186095 130.30526 
L 238.214153 130.350593 
L 238.49473 130.624609 
L 238.663076 130.540615 
L 238.887538 130.722581 
L 239.168115 130.466499 
L 239.280346 130.557047 
L 239.308404 130.514092 
L 239.448693 130.474277 
L 239.476751 130.51863 
L 239.532866 130.433058 
L 239.841501 130.138426 
L 240.122078 130.492667 
L 240.150136 130.450305 
L 240.318482 130.36894 
L 240.655175 130.720856 
L 240.879637 130.470264 
L 240.907695 130.513636 
L 241.104099 130.731222 
L 241.132157 130.689399 
L 241.272445 130.650324 
L 241.440792 130.738903 
L 241.524965 130.698601 
L 241.553023 130.741446 
L 241.721369 130.829412 
L 241.8336 130.747765 
L 241.861658 130.790388 
L 242.058062 131.003993 
L 242.08612 130.96266 
L 242.254466 130.882375 
L 242.422812 130.969049 
L 242.591159 130.889156 
L 242.815621 131.059206 
L 242.955909 130.855119 
L 243.012025 130.938805 
L 243.152313 130.982672 
L 243.404833 130.782175 
L 243.573179 130.867619 
L 243.797641 130.708947 
L 243.93793 130.752782 
L 244.106276 130.675209 
L 244.134334 130.716434 
L 244.190449 130.636566 
L 244.246565 130.55683 
L 244.30268 130.639175 
L 244.414911 130.641776 
L 244.499085 130.603349 
L 244.527142 130.644367 
L 244.639373 130.727526 
L 244.667431 130.687866 
L 245.032181 130.335462 
L 245.42499 130.744459 
L 245.593336 130.66857 
L 245.761682 130.751598 
L 246.04226 130.441671 
L 246.070318 130.481847 
L 246.238664 130.564759 
L 246.519241 130.336102 
L 246.65953 130.457248 
L 246.687588 130.418834 
L 246.771761 130.381912 
L 246.799819 130.421697 
L 246.940107 130.464239 
L 247.108454 130.390639 
L 247.2768 130.472555 
L 247.641551 130.134134 
L 247.669608 130.173531 
L 247.725724 130.09804 
L 247.753781 130.06034 
L 247.809897 130.139037 
L 247.89407 130.179938 
L 247.922128 130.142294 
L 247.950186 130.104679 
L 248.006301 130.183127 
L 248.090474 130.223864 
L 248.118532 130.186305 
L 248.174647 130.111276 
L 248.230763 130.189474 
L 248.539398 130.464935 
L 248.735802 130.355654 
L 248.960264 130.512978 
L 249.240841 130.293048 
L 249.465303 130.449479 
L 249.605592 130.415302 
L 249.74588 130.531209 
L 249.773938 130.494379 
L 249.942285 130.348764 
L 249.970342 130.38685 
L 250.110631 130.502238 
L 250.138689 130.465601 
L 250.222862 130.430349 
L 250.25092 130.468259 
L 250.278977 130.506141 
L 250.335093 130.433058 
L 250.447324 130.435758 
L 250.587612 130.476187 
L 250.61567 130.439794 
L 250.671786 130.515179 
L 250.784016 130.517744 
L 250.980421 130.411607 
L 251.092652 130.414316 
L 251.260998 130.344904 
L 251.373229 130.347703 
L 251.597691 130.133875 
L 251.625748 130.171204 
L 251.85021 130.323061 
L 252.046614 130.146222 
L 252.074672 130.183325 
L 252.355249 130.408045 
L 252.523596 130.339795 
L 252.804173 130.562623 
L 252.97252 130.494434 
L 253.084751 130.496952 
L 253.140866 130.426543 
L 253.196981 130.499463 
L 253.33727 130.609816 
L 253.365328 130.574672 
L 253.505616 130.470667 
L 253.533674 130.506952 
L 253.645905 130.651829 
L 253.702021 130.581818 
L 253.842309 130.478251 
L 253.870367 130.514376 
L 253.926482 130.586548 
L 253.982598 130.516836 
L 254.235118 130.275037 
L 254.263175 130.311053 
L 254.319291 130.383008 
L 254.375406 130.313793 
L 254.57181 130.213035 
L 254.712099 130.321966 
L 254.740157 130.287542 
L 254.852388 130.150089 
L 254.908503 130.22162 
L 255.020734 130.364375 
L 255.076849 130.29579 
L 255.104907 130.261533 
L 255.161023 130.332756 
L 255.245196 130.369643 
L 255.273254 130.335434 
L 255.4416 130.200271 
L 255.469658 130.235765 
L 255.525773 130.306677 
L 255.581889 130.23857 
L 255.638004 130.170558 
L 255.69412 130.241367 
L 255.750235 130.312075 
L 255.806351 130.244156 
L 256.05887 130.077791 
L 256.086928 130.113053 
L 256.143043 130.04556 
L 256.283332 130.014943 
L 256.451678 130.088275 
L 256.788371 129.686665 
L 256.844487 129.756799 
L 257.012833 129.83016 
L 257.040891 129.796887 
L 257.097006 129.866726 
L 257.153122 129.936468 
L 257.209237 129.869986 
L 257.237295 129.836779 
L 257.29341 129.906422 
L 257.321468 129.941206 
L 257.377584 129.874859 
L 257.573988 129.643365 
L 257.630103 129.712853 
L 257.826507 129.820208 
L 257.994854 129.757738 
L 258.107085 129.761112 
L 258.135142 129.728307 
L 258.191258 129.79726 
L 258.471835 130.006578 
L 258.640181 129.944216 
L 258.752412 130.0141 
L 258.78047 129.981466 
L 258.808528 129.948854 
L 258.864643 130.017095 
L 259.004932 130.05412 
L 259.201336 129.893173 
L 259.229394 129.927162 
L 259.313567 129.962654 
L 259.341625 129.930257 
L 259.481913 129.834807 
L 259.509971 129.868701 
L 259.622202 129.871864 
L 259.818606 129.778472 
L 259.902779 129.813864 
L 259.930837 129.781745 
L 260.099184 129.589485 
L 260.155299 129.656917 
L 260.183357 129.690599 
L 260.239472 129.62668 
L 260.407819 129.500912 
L 260.435876 129.534545 
L 260.63228 129.638746 
L 260.716454 129.608698 
L 260.744511 129.642173 
L 260.968973 129.779084 
L 261.165377 129.622496 
L 261.193435 129.655789 
L 261.277608 129.690729 
L 261.305666 129.65917 
L 261.474012 129.599569 
L 261.614301 129.700699 
L 261.642359 129.669262 
L 261.838763 129.578539 
L 262.035167 129.680935 
L 262.315744 129.497134 
L 262.624379 129.730144 
L 262.764668 129.702332 
L 263.045245 129.964412 
L 263.073303 129.933408 
L 263.213592 129.842049 
L 263.241649 129.874487 
L 263.269707 129.906904 
L 263.325823 129.845112 
L 263.35388 129.814246 
L 263.409996 129.879014 
L 263.550285 129.914333 
L 263.718631 129.85577 
L 263.915035 129.955349 
L 264.055324 129.802074 
L 264.111439 129.866334 
L 264.251728 129.964007 
L 264.279786 129.933428 
L 264.392016 129.936338 
L 264.532305 129.971173 
L 264.784825 129.821985 
L 264.953171 129.888654 
L 264.981229 129.858341 
L 265.037344 129.921894 
L 265.121518 129.955071 
L 265.149575 129.924793 
L 265.374037 129.806916 
L 265.542384 129.873173 
L 265.626557 129.844555 
L 265.654614 129.876117 
L 265.766845 129.879054 
L 265.879076 129.820504 
L 265.907134 129.851985 
L 265.935192 129.883445 
L 265.991307 129.823503 
L 266.187711 129.736832 
L 266.468289 129.927782 
L 266.552462 129.899407 
L 266.58052 129.930628 
L 266.748866 129.995772 
L 266.889155 129.968815 
L 266.973328 130.062008 
L 267.029443 130.002642 
L 267.225847 129.856004 
L 267.253905 129.887007 
L 267.422252 129.95175 
L 267.506425 129.92365 
L 267.534482 129.954537 
L 267.730887 130.049749 
L 267.955348 129.934884 
L 268.095637 129.968369 
L 268.17981 129.94046 
L 268.207868 129.971115 
L 268.43233 130.096139 
L 268.628734 129.95153 
L 268.656792 129.982034 
L 268.740965 130.013857 
L 268.769023 129.984746 
L 268.79708 129.955654 
L 268.853196 130.016529 
L 268.881254 130.046939 
L 268.937369 129.988804 
L 269.105715 129.933504 
L 269.133773 129.963856 
L 269.189889 129.905929 
L 269.217946 129.876991 
L 269.274062 129.937639 
L 269.442408 130.000887 
L 269.470466 129.971999 
L 269.526581 130.032425 
L 269.554639 130.062611 
L 269.610755 130.004886 
L 269.751043 129.978741 
L 269.835216 130.010195 
L 269.863274 129.981426 
L 270.115794 129.840685 
L 270.480544 130.113033 
L 270.592775 130.05713 
L 270.620833 130.086968 
L 270.648891 130.116787 
L 270.705006 130.059699 
L 270.817237 130.003992 
L 270.845295 130.033775 
L 271.069757 130.155172 
L 271.210045 130.129207 
L 271.406449 130.278287 
L 271.434507 130.249914 
L 271.546738 130.252233 
L 271.658969 130.254545 
L 271.799258 130.170925 
L 271.827315 130.200352 
L 271.939546 130.317889 
L 271.995662 130.261452 
L 272.107893 130.206259 
L 272.135951 130.235581 
L 272.332355 130.325658 
L 272.472643 130.299785 
L 272.500701 130.328969 
L 272.556816 130.272854 
L 272.669047 130.21797 
L 272.697105 130.247118 
L 272.921567 130.365695 
L 273.174087 130.171543 
L 273.202144 130.200553 
L 273.230202 130.229545 
L 273.286318 130.17391 
L 273.398548 130.062833 
L 273.454664 130.120764 
L 273.62301 130.18098 
L 273.707184 130.097929 
L 273.763299 130.155657 
L 274.043876 130.330612 
L 274.268338 130.166286 
L 274.296396 130.194973 
L 274.324454 130.223644 
L 274.380569 130.168633 
L 274.520858 130.143523 
L 274.74532 130.26014 
L 274.885608 130.234993 
L 275.082012 130.322565 
L 275.306474 130.215606 
L 275.502878 130.302845 
L 275.615109 130.305009 
L 275.811513 130.391801 
L 275.951802 130.366737 
L 276.204322 130.509234 
L 276.400726 130.430057 
L 276.569072 130.487985 
L 276.933823 130.247978 
L 277.046054 130.250172 
L 277.242458 130.172159 
L 277.326631 130.146605 
L 277.579151 130.01582 
L 277.83167 130.156906 
L 277.971959 130.132665 
L 278.112247 130.162585 
L 278.308652 130.085555 
L 278.44894 130.115441 
L 278.617287 130.065072 
L 278.813691 130.149782 
L 278.953979 130.125782 
L 279.06621 130.128067 
L 279.262614 130.051816 
L 279.374845 130.054174 
L 279.459019 130.082634 
L 279.599307 130.112191 
L 279.68348 130.140542 
L 279.795711 130.142794 
L 279.907942 130.145041 
L 280.160462 130.28265 
L 280.356866 130.20691 
L 280.469097 130.209076 
L 280.693559 130.107879 
L 280.974136 130.271383 
L 281.17054 130.196251 
L 281.366944 130.278658 
L 281.535291 130.229424 
L 281.647522 130.231542 
L 281.78781 130.208078 
L 281.928099 130.236817 
L 282.152561 130.136956 
L 282.264792 130.13916 
L 282.377023 130.141359 
L 282.517311 130.170027 
L 282.685658 130.121497 
L 282.769831 130.097289 
L 282.882062 130.099522 
L 283.050408 130.154455 
L 283.190697 130.1314 
L 283.443216 130.264826 
L 283.555447 130.26687 
L 283.639621 130.242744 
L 283.807967 130.194607 
L 283.948256 130.222824 
L 284.032429 130.249944 
L 284.116602 130.225939 
L 284.228833 130.22801 
L 284.369122 130.256074 
L 284.481353 130.258109 
L 284.621641 130.286069 
L 284.818045 130.213435 
L 285.042507 130.318869 
L 285.12668 130.345642 
L 285.295027 130.399064 
L 285.435315 130.376169 
L 285.547546 130.37806 
L 285.800066 130.256557 
L 285.968412 130.309788 
L 286.080643 130.311739 
L 286.24899 130.36475 
L 286.585682 130.170646 
L 286.810144 130.224642 
L 286.950433 130.202281 
L 287.202953 130.281363 
L 287.371299 130.234711 
L 287.539645 130.237711 
L 287.651876 130.239707 
L 287.932454 130.343353 
L 288.1008 130.296912 
L 288.381377 130.4 
L 288.465551 130.425916 
L 288.605839 130.403633 
L 288.830301 130.309363 
L 289.082821 130.386887 
L 289.195052 130.388707 
L 289.363398 130.39143 
L 289.447571 130.417127 
L 289.615918 130.419802 
L 289.728148 130.470138 
L 289.924553 130.497395 
L 290.036784 130.547517 
L 290.289303 130.623694 
L 290.401534 130.673532 
L 290.513765 130.626826 
L 290.8224 130.510881 
L 291.07492 130.586617 
L 291.271324 130.565451 
L 291.720247 130.810472 
L 292.000825 130.718678 
L 292.253344 130.793192 
L 292.365575 130.842023 
L 292.533922 130.844015 
L 292.954788 130.636508 
L 293.403711 130.877735 
L 293.515942 130.926007 
L 293.656231 130.904085 
L 293.936808 130.813578 
L 294.077097 130.791868 
L 294.245443 130.793903 
L 294.385732 130.772274 
L 294.554078 130.774332 
L 294.862713 130.894225 
L 295.143291 130.80466 
L 295.39581 130.877027 
L 295.676388 130.787902 
L 295.900849 130.836637 
L 296.069196 130.838578 
L 296.321715 130.910315 
L 296.574235 130.844369 
L 296.714524 130.823099 
L 296.88287 130.825046 
L 297.079274 130.850112 
L 297.275678 130.829568 
L 297.444025 130.831497 
L 297.556256 130.878203 
L 297.780718 130.926018 
L 298.005179 130.883144 
L 298.285757 130.976517 
L 298.482161 130.955973 
L 298.650507 130.957709 
L 298.874969 130.915082 
L 299.099431 130.962316 
L 299.211662 131.008274 
L 299.351951 130.987272 
L 299.744759 130.812716 
L 299.885047 130.792027 
L 300.081452 130.772041 
L 300.249798 130.774005 
L 300.390087 130.79783 
L 300.586491 130.822232 
L 300.754837 130.824119 
L 300.951241 130.848408 
L 301.119588 130.850255 
L 301.287934 130.852097 
L 301.512396 130.810557 
L 301.652685 130.790163 
L 301.792973 130.813703 
L 302.017435 130.860022 
L 302.157724 130.883417 
L 302.32607 130.885199 
L 302.550532 130.843942 
L 302.887225 130.978128 
L 303.055571 130.979774 
L 303.251975 131.003382 
L 303.504495 130.940844 
L 303.616726 130.898708 
L 303.897303 130.815276 
L 304.093707 130.838982 
L 304.262054 130.840796 
L 304.374285 130.798997 
L 304.570689 130.779699 
L 304.823208 130.846808 
L 305.019612 130.827505 
L 305.356305 130.959167 
L 305.496594 130.98185 
L 305.692998 131.00501 
L 306.029691 130.880786 
L 306.198037 130.882519 
L 306.53473 130.759094 
L 306.675019 130.73954 
L 306.871423 130.720672 
L 307.039769 130.7226 
L 307.292289 130.66241 
L 307.572866 130.74965 
L 307.825386 130.689653 
L 307.965674 130.670364 
L 308.38654 130.487646 
L 308.751291 130.637958 
L 309.00381 130.578705 
L 309.172157 130.580782 
L 309.396619 130.542159 
L 309.593023 130.565289 
L 310.013889 130.385125 
L 310.210293 130.408379 
L 310.462812 130.350202 
L 310.827563 130.498567 
L 311.136198 130.400378 
L 311.472891 130.527148 
L 311.613179 130.549254 
L 311.72541 130.509965 
L 312.034045 130.412399 
L 312.174334 130.393994 
L 312.398796 130.356532 
L 312.763546 130.502775 
L 313.100239 130.386206 
L 313.268586 130.388457 
L 313.605278 130.272597 
L 313.857798 130.33623 
L 314.054202 130.31892 
L 314.362837 130.422903 
L 314.559241 130.405533 
L 314.867876 130.508944 
L 315.06428 130.491516 
L 315.288742 130.533933 
L 315.485146 130.516522 
L 315.821839 130.639061 
L 316.130474 130.544069 
L 316.242705 130.506051 
L 316.439109 130.488798 
L 316.635513 130.510843 
L 316.775802 130.532152 
L 316.972206 130.554083 
L 317.16861 130.536852 
L 317.365014 130.558716 
L 317.589476 130.522367 
L 317.729765 130.504576 
L 317.898111 130.506613 
L 318.0384 130.488876 
L 318.206746 130.490927 
L 318.431208 130.532408 
L 318.599555 130.534401 
L 318.795959 130.556049 
L 318.936247 130.576991 
L 319.104594 130.578925 
L 319.300998 130.561917 
L 319.52546 130.60297 
L 319.693806 130.604866 
L 319.862153 130.606757 
L 320.114672 130.552136 
L 320.311076 130.573531 
L 320.675827 130.444156 
L 320.928346 130.50438 
L 321.152808 130.469009 
L 321.321155 130.471039 
L 321.573674 130.417202 
L 321.798136 130.457837 
L 321.938425 130.478442 
L 322.162887 130.518881 
L 322.415406 130.465272 
L 322.639868 130.505599 
L 322.808214 130.507566 
L 322.920445 130.471308 
L 323.060734 130.491743 
L 323.22908 130.493721 
L 323.369369 130.514092 
L 323.593831 130.554083 
L 323.706062 130.592717 
L 323.902466 130.613538 
L 324.154986 130.560397 
L 324.575852 130.732267 
L 324.772256 130.715683 
L 324.996718 130.754993 
L 325.137006 130.774876 
L 325.33341 130.795257 
L 325.473699 130.815057 
L 325.642045 130.816638 
L 325.810392 130.818216 
L 326.062911 130.875745 
L 326.315431 130.822928 
L 326.680181 130.95451 
L 326.960759 130.883743 
L 327.07299 130.848203 
L 327.185221 130.885727 
L 327.353567 130.887212 
L 327.549971 130.870731 
L 327.802491 130.927512 
L 327.970837 130.928944 
L 328.111126 130.911994 
L 328.391703 130.84197 
L 328.644223 130.898485 
L 328.812569 130.899941 
L 329.008973 130.919671 
L 329.289551 130.850045 
L 329.457897 130.851548 
L 329.570128 130.888487 
L 329.79459 130.926316 
L 329.934878 130.945421 
L 330.15934 130.983078 
L 330.467975 130.896229 
L 330.664379 130.915752 
L 330.832726 130.91717 
L 331.141361 131.008696 
L 331.337765 130.992463 
L 331.618342 131.065605 
L 331.786689 131.066853 
L 331.89892 131.032283 
L 332.123381 130.998642 
L 332.375901 131.053552 
L 332.51619 131.072228 
L 332.628421 131.037815 
L 332.768709 131.056475 
L 332.937056 131.057723 
L 333.077344 131.076329 
L 333.273748 131.095302 
L 333.526268 131.044554 
L 333.778788 131.098902 
L 333.975192 131.082829 
L 334.255769 131.154589 
L 334.368 131.190191 
L 334.592462 131.226446 
L 334.788866 131.210298 
L 334.929155 131.193827 
L 335.041386 131.22925 
L 335.153616 131.195274 
L 335.293905 131.213498 
L 335.518367 131.24951 
L 335.686713 131.250533 
L 335.85506 131.251554 
L 336.023406 131.252572 
L 336.191753 131.253589 
L 336.388157 131.237568 
L 336.528445 131.221238 
L 336.724849 131.20529 
L 336.865138 131.189022 
L 337.005427 131.207058 
L 337.173773 131.208116 
L 337.314062 131.226101 
L 337.791043 131.416628 
L 338.183852 131.282469 
L 338.520544 131.386276 
L 338.716948 131.370325 
L 338.885295 131.371203 
L 338.997526 131.405643 
L 339.418392 131.559697 
L 339.55868 131.577132 
L 339.895373 131.679461 
L 340.091777 131.663292 
L 340.288181 131.680751 
L 340.512643 131.647942 
L 340.737105 131.682218 
L 340.877394 131.69941 
L 341.214087 131.800671 
L 341.522722 131.718105 
L 341.831357 131.802228 
L 342.139992 131.719966 
L 342.308338 131.720471 
L 342.504742 131.704488 
L 342.701146 131.721645 
L 342.925608 131.689256 
L 343.122012 131.706388 
L 343.374532 131.657708 
L 343.486763 131.625137 
L 343.683167 131.609379 
L 343.851513 131.60999 
L 344.160148 131.529071 
L 344.328495 131.529762 
L 344.496841 131.530451 
L 344.777419 131.596985 
L 345.00188 131.56516 
L 345.226342 131.598635 
L 345.478862 131.550721 
L 345.675266 131.567756 
L 345.927786 131.520014 
L 346.152247 131.553367 
L 346.292536 131.570117 
L 346.629229 131.668415 
L 346.825633 131.652897 
L 346.993979 131.653455 
L 347.190384 131.637987 
L 347.330672 131.62236 
L 347.527076 131.606958 
L 347.72348 131.623725 
L 347.947942 131.592411 
L 348.116289 131.593024 
L 348.537155 131.450637 
L 348.84579 131.499895 
L 349.098309 131.453129 
L 349.350829 131.47016 
L 349.855868 131.281908 
L 350.136445 131.315106 
L 350.304792 131.347635 
L 350.557311 131.364702 
L 350.809831 131.350154 
L 351.090408 131.383061 
L 351.511274 131.275033 
L 351.791852 131.307928 
L 352.18466 131.216007 
L 352.577468 131.311984 
L 352.942219 131.235896 
L 353.194738 131.252867 
L 353.363085 131.284895 
L 353.643662 131.317431 
L 353.896181 131.303204 
L 354.232874 131.36685 
L 354.485394 131.352599 
L 354.737913 131.369259 
L 355.130722 131.278717 
L 355.467414 131.34197 
L 355.776049 131.29744 
L 355.972454 131.283117 
L 356.449435 131.147997 
L 356.617781 131.118448 
L 356.786128 131.149993 
L 357.263109 131.289785 
L 357.62786 131.215707 
L 357.964553 131.278208 
L 358.160957 131.294367 
L 358.385419 131.295506 
L 358.722111 131.236817 
L 359.030746 131.283691 
L 359.227151 131.29975 
L 359.451612 131.300876 
L 359.816363 131.227659 
L 360.181113 131.304514 
L 360.34946 131.335279 
L 360.658095 131.381575 
L 360.938672 131.353012 
L 361.219249 131.384113 
L 361.640115 131.281985 
L 362.004866 131.357979 
L 362.313501 131.314986 
L 362.622136 131.360828 
L 363.07106 131.244917 
L 363.407753 131.305547 
L 363.604157 131.321208 
L 363.856676 131.337101 
L 364.193369 131.280046 
L 364.389773 131.266382 
L 364.614235 131.267516 
L 364.810639 131.253896 
L 365.259563 131.139581 
L 365.455967 131.12614 
L 365.596256 131.170599 
L 366.129353 131.333138 
L 366.578276 131.219428 
L 366.858854 131.249805 
L 367.167489 131.208081 
L 367.588355 131.311091 
L 367.925047 131.255192 
L 368.177567 131.270813 
L 368.458144 131.24353 
L 368.682606 131.244667 
L 369.103472 131.146796 
L 369.468223 131.220109 
L 369.7488 131.193082 
L 369.973262 131.194269 
L 370.225781 131.1814 
L 370.422186 131.168261 
L 370.702763 131.14144 
L 370.955282 131.156986 
L 371.179744 131.158208 
L 371.516437 131.21647 
L 371.684784 131.245526 
L 371.965361 131.275073 
L 372.133707 131.304012 
L 372.302054 131.276693 
L 372.498458 131.291673 
L 372.666804 131.264416 
L 372.919324 131.251632 
L 373.227959 131.295105 
L 373.424363 131.309997 
L 373.732998 131.353267 
L 374.125806 131.271448 
L 374.518614 131.356694 
L 374.743076 131.357668 
L 375.023654 131.386602 
L 375.276173 131.373815 
L 375.584808 131.416585 
L 376.145963 131.253453 
L 376.370425 131.254535 
L 376.791291 131.160395 
L 377.04381 131.175446 
L 377.408561 131.10886 
L 377.633023 131.110097 
L 377.9136 131.084316 
L 378.110004 131.071772 
L 378.306408 131.086521 
L 378.586986 131.115321 
L 378.895621 131.076217 
L 379.176198 131.104948 
L 379.428718 131.092772 
L 379.597064 131.066608 
L 379.877641 131.041136 
L 380.130161 131.056107 
L 380.494911 130.99074 
L 380.88772 131.073872 
L 381.224412 131.02199 
L 381.533047 131.064049 
L 381.729452 131.078559 
L 382.12226 131.161024 
L 382.262548 131.201862 
L 382.515068 131.216463 
L 382.73953 131.217552 
L 383.020107 131.245557 
L 383.188454 131.272974 
L 383.412915 131.273998 
L 383.721551 131.235567 
L 383.917955 131.22323 
L 384.198532 131.198077 
L 384.619398 131.292687 
L 384.871918 131.280602 
L 385.124437 131.294925 
L 385.348899 131.295916 
L 385.629476 131.323467 
L 385.797823 131.35048 
L 385.994227 131.338157 
L 386.274804 131.313099 
L 386.583439 131.353721 
L 386.779843 131.367613 
L 387.060421 131.394882 
L 387.31294 131.382814 
L 387.593518 131.409994 
L 387.958268 131.346322 
L 388.435249 131.465134 
L 388.575538 131.504557 
L 388.828058 131.518364 
L 389.192808 131.454876 
L 389.361155 131.429625 
L 389.557559 131.443266 
L 389.866194 131.483076 
L 390.315118 131.381661 
L 390.539579 131.382537 
L 390.876272 131.332505 
L 391.128792 131.346366 
L 391.409369 131.321895 
L 391.661889 131.335735 
L 391.970524 131.298685 
L 392.251101 131.325388 
L 392.868371 131.149882 
L 393.064775 131.138144 
L 393.317295 131.126709 
L 393.653988 131.179087 
L 394.018738 131.117574 
L 394.411546 131.195323 
L 394.607951 131.20886 
L 394.972701 131.27352 
L 395.225221 131.262029 
L 395.421625 131.250316 
L 395.618029 131.263741 
L 395.954722 131.315361 
L 396.375588 131.22948 
L 396.71228 131.280975 
L 396.880627 131.306663 
L 397.048973 131.282404 
L 397.329551 131.258669 
L 397.469839 131.221918 
L 397.806532 131.173694 
L 398.115167 131.212399 
L 398.339629 131.213415 
L 398.592148 131.226947 
L 398.872726 131.203447 
L 399.125245 131.216957 
L 399.43388 131.181311 
L 399.602227 131.157423 
L 399.966977 131.097582 
L 400.331728 131.160877 
L 400.55619 131.161935 
L 401.005113 131.262104 
L 401.482095 131.154046 
L 401.650441 131.130396 
L 401.931019 131.107334 
L 402.099365 131.083766 
L 402.295769 131.09694 
L 402.604404 131.134981 
L 402.913039 131.099993 
L 403.137501 131.1011 
L 403.418078 131.078225 
L 403.782829 131.140591 
L 404.063406 131.117733 
L 404.315926 131.106872 
L 404.624561 131.072184 
L 404.961254 131.097962 
L 405.241831 131.099335 
L 405.802986 131.222082 
L 406.083563 131.223298 
L 406.392198 131.236603 
L 406.700833 131.225963 
L 407.121699 131.287435 
L 407.514507 131.241367 
L 407.8512 131.266577 
L 408.10372 131.279496 
L 408.328181 131.256662 
L 408.608759 131.257823 
L 408.973509 131.294842 
L 409.282144 131.284243 
L 409.590779 131.297285 
L 409.899414 131.28671 
L 410.516685 131.430281 
L 410.993666 131.349732 
L 411.638994 131.50426 
L 412.003744 131.470308 
L 412.452668 131.541709 
L 412.929649 131.461594 
L 413.266342 131.485915 
L 413.603035 131.463741 
L 413.883612 131.464631 
L 414.16419 131.46552 
L 414.444767 131.466407 
L 414.753402 131.455829 
L 415.118153 131.491593 
L 415.510961 131.446729 
L 415.76348 131.43604 
L 416.128231 131.402775 
L 416.521039 131.449972 
L 416.773559 131.462232 
L 417.110252 131.486165 
L 417.390829 131.487016 
L 417.727522 131.510853 
L 418.036157 131.500362 
L 418.288676 131.489729 
L 418.653427 131.45673 
L 418.877889 131.434726 
L 419.35487 131.356938 
L 419.747678 131.403583 
L 420.056313 131.393314 
L 420.364948 131.405643 
L 420.673584 131.395398 
L 420.982219 131.407692 
L 421.431142 131.341759 
L 421.739777 131.354083 
L 422.07647 131.332853 
L 422.469278 131.379021 
L 422.665682 131.41323 
L 422.862087 131.380358 
L 423.226837 131.348132 
L 423.507414 131.349119 
L 424.012454 131.261938 
L 424.489435 131.341459 
L 424.854186 131.309501 
L 425.162821 131.321696 
L 425.611744 131.257023 
L 425.836206 131.235812 
L 426.116784 131.236915 
L 426.593765 131.315816 
L 426.986573 131.273281 
L 427.267151 131.274337 
L 427.51967 131.286249 
L 427.996652 131.364617 
L 428.417518 131.311418 
L 428.670037 131.301411 
L 428.866441 131.33484 
L 429.231192 131.368783 
L 429.455654 131.391296 
L 429.792346 131.414125 
L 430.185155 131.371974 
L 430.49379 131.383837 
L 430.914656 131.331127 
L 431.11106 131.299382 
L 431.419695 131.289698 
L 431.756388 131.312485 
L 432.09308 131.292141 
L 432.3456 131.282297 
L 432.570062 131.304613 
L 433.131216 131.413852 
L 433.608198 131.340412 
L 433.972948 131.373722 
L 434.309641 131.353473 
L 434.730507 131.408171 
L 435.039142 131.398492 
L 435.347777 131.410101 
L 435.656412 131.400442 
L 435.908932 131.390628 
L 436.245625 131.370508 
L 436.694548 131.435435 
L 436.890953 131.467734 
L 437.087357 131.436614 
L 437.395992 131.426988 
L 437.844915 131.491533 
L 438.378012 131.398424 
L 438.826936 131.462776 
L 439.135571 131.453183 
L 439.388091 131.443448 
L 439.696726 131.433898 
L 440.005361 131.445261 
L 440.454285 131.384012 
L 440.847093 131.426897 
L 441.12767 131.427735 
L 441.492421 131.459981 
L 441.74494 131.471079 
L 442.053575 131.48231 
L 442.390268 131.462539 
L 442.61473 131.442491 
L 443.007538 131.402324 
L 443.316173 131.413582 
L 443.624808 131.404207 
L 444.073732 131.467289 
L 444.382367 131.457879 
L 444.887406 131.541349 
L 445.252157 131.511543 
L 445.588849 131.532883 
L 445.897485 131.523451 
L 446.346408 131.585804 
L 446.626986 131.58646 
L 446.907563 131.587115 
L 447.384544 131.517101 
L 447.580948 131.487149 
L 447.889584 131.477838 
L 448.310449 131.529613 
L 448.647142 131.510237 
L 449.096066 131.571983 
L 449.516932 131.522572 
L 449.90974 131.563838 
L 450.16226 131.574499 
L 450.498953 131.595379 
L 450.807588 131.586045 
L 451.14428 131.606863 
L 451.565146 131.557766 
L 451.901839 131.578561 
L 452.294647 131.539552 
L 452.88386 131.650542 
L 453.164437 131.651117 
L 453.529188 131.681669 
L 453.921996 131.642743 
L 454.455093 131.732967 
L 454.73567 131.733455 
L 455.044305 131.743874 
L 455.240709 131.773831 
L 455.633518 131.813898 
L 455.857979 131.833928 
L 456.082441 131.814547 
L 456.306903 131.834544 
L 456.531365 131.815193 
L 456.811942 131.795958 
L 456.811942 131.795958 
" style="fill:none;stroke:#5bc0de;stroke-linecap:square;stroke-width:1.5;"/>
   </g>
   <g id="line2d_7">
    <path clip-path="url(#p1d1028a486)" d="M 184.68 132.218182 
L 456.84 132.218182 
" style="fill:none;stroke:#f0ad4e;stroke-dasharray:5.6,2.4;stroke-dashoffset:0;stroke-width:1.5;"/>
   </g>
   <g id="patch_3">
    <path d="M 184.68 230.4 
L 456.84 230.4 
" style="fill:none;stroke:#d2d2d2;stroke-linecap:square;stroke-linejoin:miter;"/>
   </g>
   <g id="text_6">
    <!-- Number of coin-flips -->
    <defs>
     <path d="M 9.8125 72.90625 
L 23.09375 72.90625 
L 55.421875 11.921875 
L 55.421875 72.90625 
L 64.984375 72.90625 
L 64.984375 0 
L 51.703125 0 
L 19.390625 60.984375 
L 19.390625 0 
L 9.8125 0 
z
" id="DejaVuSans-4e"/>
     <path d="M 8.5 21.578125 
L 8.5 54.6875 
L 17.484375 54.6875 
L 17.484375 21.921875 
Q 17.484375 14.15625 20.5 10.265625 
Q 23.53125 6.390625 29.59375 6.390625 
Q 36.859375 6.390625 41.078125 11.03125 
Q 45.3125 15.671875 45.3125 23.6875 
L 45.3125 54.6875 
L 54.296875 54.6875 
L 54.296875 0 
L 45.3125 0 
L 45.3125 8.40625 
Q 42.046875 3.421875 37.71875 1 
Q 33.40625 -1.421875 27.6875 -1.421875 
Q 18.265625 -1.421875 13.375 4.4375 
Q 8.5 10.296875 8.5 21.578125 
M 31.109375 56 
z
" id="DejaVuSans-75"/>
     <path d="M 52 44.1875 
Q 55.375 50.25 60.0625 53.125 
Q 64.75 56 71.09375 56 
Q 79.640625 56 84.28125 50.015625 
Q 88.921875 44.046875 88.921875 33.015625 
L 88.921875 0 
L 79.890625 0 
L 79.890625 32.71875 
Q 79.890625 40.578125 77.09375 44.375 
Q 74.3125 48.1875 68.609375 48.1875 
Q 61.625 48.1875 57.5625 43.546875 
Q 53.515625 38.921875 53.515625 30.90625 
L 53.515625 0 
L 44.484375 0 
L 44.484375 32.71875 
Q 44.484375 40.625 41.703125 44.40625 
Q 38.921875 48.1875 33.109375 48.1875 
Q 26.21875 48.1875 22.15625 43.53125 
Q 18.109375 38.875 18.109375 30.90625 
L 18.109375 0 
L 9.078125 0 
L 9.078125 54.6875 
L 18.109375 54.6875 
L 18.109375 46.1875 
Q 21.1875 51.21875 25.484375 53.609375 
Q 29.78125 56 35.6875 56 
Q 41.65625 56 45.828125 52.96875 
Q 50 49.953125 52 44.1875 
" id="DejaVuSans-6d"/>
     <path d="M 48.6875 27.296875 
Q 48.6875 37.203125 44.609375 42.84375 
Q 40.53125 48.484375 33.40625 48.484375 
Q 26.265625 48.484375 22.1875 42.84375 
Q 18.109375 37.203125 18.109375 27.296875 
Q 18.109375 17.390625 22.1875 11.75 
Q 26.265625 6.109375 33.40625 6.109375 
Q 40.53125 6.109375 44.609375 11.75 
Q 48.6875 17.390625 48.6875 27.296875 
M 18.109375 46.390625 
Q 20.953125 51.265625 25.265625 53.625 
Q 29.59375 56 35.59375 56 
Q 45.5625 56 51.78125 48.09375 
Q 58.015625 40.1875 58.015625 27.296875 
Q 58.015625 14.40625 51.78125 6.484375 
Q 45.5625 -1.421875 35.59375 -1.421875 
Q 29.59375 -1.421875 25.265625 0.953125 
Q 20.953125 3.328125 18.109375 8.203125 
L 18.109375 0 
L 9.078125 0 
L 9.078125 75.984375 
L 18.109375 75.984375 
z
" id="DejaVuSans-62"/>
     <path d="M 56.203125 29.59375 
L 56.203125 25.203125 
L 14.890625 25.203125 
Q 15.484375 15.921875 20.484375 11.0625 
Q 25.484375 6.203125 34.421875 6.203125 
Q 39.59375 6.203125 44.453125 7.46875 
Q 49.3125 8.734375 54.109375 11.28125 
L 54.109375 2.78125 
Q 49.265625 0.734375 44.1875 -0.34375 
Q 39.109375 -1.421875 33.890625 -1.421875 
Q 20.796875 -1.421875 13.15625 6.1875 
Q 5.515625 13.8125 5.515625 26.8125 
Q 5.515625 40.234375 12.765625 48.109375 
Q 20.015625 56 32.328125 56 
Q 43.359375 56 49.78125 48.890625 
Q 56.203125 41.796875 56.203125 29.59375 
M 47.21875 32.234375 
Q 47.125 39.59375 43.09375 43.984375 
Q 39.0625 48.390625 32.421875 48.390625 
Q 24.90625 48.390625 20.390625 44.140625 
Q 15.875 39.890625 15.1875 32.171875 
z
" id="DejaVuSans-65"/>
     <path d="M 41.109375 46.296875 
Q 39.59375 47.171875 37.8125 47.578125 
Q 36.03125 48 33.890625 48 
Q 26.265625 48 22.1875 43.046875 
Q 18.109375 38.09375 18.109375 28.8125 
L 18.109375 0 
L 9.078125 0 
L 9.078125 54.6875 
L 18.109375 54.6875 
L 18.109375 46.1875 
Q 20.953125 51.171875 25.484375 53.578125 
Q 30.03125 56 36.53125 56 
Q 37.453125 56 38.578125 55.875 
Q 39.703125 55.765625 41.0625 55.515625 
z
" id="DejaVuSans-72"/>
     <path id="DejaVuSans-20"/>
     <path d="M 30.609375 48.390625 
Q 23.390625 48.390625 19.1875 42.75 
Q 14.984375 37.109375 14.984375 27.296875 
Q 14.984375 17.484375 19.15625 11.84375 
Q 23.34375 6.203125 30.609375 6.203125 
Q 37.796875 6.203125 41.984375 11.859375 
Q 46.1875 17.53125 46.1875 27.296875 
Q 46.1875 37.015625 41.984375 42.703125 
Q 37.796875 48.390625 30.609375 48.390625 
M 30.609375 56 
Q 42.328125 56 49.015625 48.375 
Q 55.71875 40.765625 55.71875 27.296875 
Q 55.71875 13.875 49.015625 6.21875 
Q 42.328125 -1.421875 30.609375 -1.421875 
Q 18.84375 -1.421875 12.171875 6.21875 
Q 5.515625 13.875 5.515625 27.296875 
Q 5.515625 40.765625 12.171875 48.375 
Q 18.84375 56 30.609375 56 
" id="DejaVuSans-6f"/>
     <path d="M 37.109375 75.984375 
L 37.109375 68.5 
L 28.515625 68.5 
Q 23.6875 68.5 21.796875 66.546875 
Q 19.921875 64.59375 19.921875 59.515625 
L 19.921875 54.6875 
L 34.71875 54.6875 
L 34.71875 47.703125 
L 19.921875 47.703125 
L 19.921875 0 
L 10.890625 0 
L 10.890625 47.703125 
L 2.296875 47.703125 
L 2.296875 54.6875 
L 10.890625 54.6875 
L 10.890625 58.5 
Q 10.890625 67.625 15.140625 71.796875 
Q 19.390625 75.984375 28.609375 75.984375 
z
" id="DejaVuSans-66"/>
     <path d="M 48.78125 52.59375 
L 48.78125 44.1875 
Q 44.96875 46.296875 41.140625 47.34375 
Q 37.3125 48.390625 33.40625 48.390625 
Q 24.65625 48.390625 19.8125 42.84375 
Q 14.984375 37.3125 14.984375 27.296875 
Q 14.984375 17.28125 19.8125 11.734375 
Q 24.65625 6.203125 33.40625 6.203125 
Q 37.3125 6.203125 41.140625 7.25 
Q 44.96875 8.296875 48.78125 10.40625 
L 48.78125 2.09375 
Q 45.015625 0.34375 40.984375 -0.53125 
Q 36.96875 -1.421875 32.421875 -1.421875 
Q 20.0625 -1.421875 12.78125 6.34375 
Q 5.515625 14.109375 5.515625 27.296875 
Q 5.515625 40.671875 12.859375 48.328125 
Q 20.21875 56 33.015625 56 
Q 37.15625 56 41.109375 55.140625 
Q 45.0625 54.296875 48.78125 52.59375 
" id="DejaVuSans-63"/>
     <path d="M 9.421875 54.6875 
L 18.40625 54.6875 
L 18.40625 0 
L 9.421875 0 
z
M 9.421875 75.984375 
L 18.40625 75.984375 
L 18.40625 64.59375 
L 9.421875 64.59375 
z
" id="DejaVuSans-69"/>
     <path d="M 54.890625 33.015625 
L 54.890625 0 
L 45.90625 0 
L 45.90625 32.71875 
Q 45.90625 40.484375 42.875 44.328125 
Q 39.84375 48.1875 33.796875 48.1875 
Q 26.515625 48.1875 22.3125 43.546875 
Q 18.109375 38.921875 18.109375 30.90625 
L 18.109375 0 
L 9.078125 0 
L 9.078125 54.6875 
L 18.109375 54.6875 
L 18.109375 46.1875 
Q 21.34375 51.125 25.703125 53.5625 
Q 30.078125 56 35.796875 56 
Q 45.21875 56 50.046875 50.171875 
Q 54.890625 44.34375 54.890625 33.015625 
" id="DejaVuSans-6e"/>
     <path d="M 4.890625 31.390625 
L 31.203125 31.390625 
L 31.203125 23.390625 
L 4.890625 23.390625 
z
" id="DejaVuSans-2d"/>
     <path d="M 9.421875 75.984375 
L 18.40625 75.984375 
L 18.40625 0 
L 9.421875 0 
z
" id="DejaVuSans-6c"/>
     <path d="M 18.109375 8.203125 
L 18.109375 -20.796875 
L 9.078125 -20.796875 
L 9.078125 54.6875 
L 18.109375 54.6875 
L 18.109375 46.390625 
Q 20.953125 51.265625 25.265625 53.625 
Q 29.59375 56 35.59375 56 
Q 45.5625 56 51.78125 48.09375 
Q 58.015625 40.1875 58.015625 27.296875 
Q 58.015625 14.40625 51.78125 6.484375 
Q 45.5625 -1.421875 35.59375 -1.421875 
Q 29.59375 -1.421875 25.265625 0.953125 
Q 20.953125 3.328125 18.109375 8.203125 
M 48.6875 27.296875 
Q 48.6875 37.203125 44.609375 42.84375 
Q 40.53125 48.484375 33.40625 48.484375 
Q 26.265625 48.484375 22.1875 42.84375 
Q 18.109375 37.203125 18.109375 27.296875 
Q 18.109375 17.390625 22.1875 11.75 
Q 26.265625 6.109375 33.40625 6.109375 
Q 40.53125 6.109375 44.609375 11.75 
Q 48.6875 17.390625 48.6875 27.296875 
" id="DejaVuSans-70"/>
     <path d="M 44.28125 53.078125 
L 44.28125 44.578125 
Q 40.484375 46.53125 36.375 47.5 
Q 32.28125 48.484375 27.875 48.484375 
Q 21.1875 48.484375 17.84375 46.4375 
Q 14.5 44.390625 14.5 40.28125 
Q 14.5 37.15625 16.890625 35.375 
Q 19.28125 33.59375 26.515625 31.984375 
L 29.59375 31.296875 
Q 39.15625 29.25 43.1875 25.515625 
Q 47.21875 21.78125 47.21875 15.09375 
Q 47.21875 7.46875 41.1875 3.015625 
Q 35.15625 -1.421875 24.609375 -1.421875 
Q 20.21875 -1.421875 15.453125 -0.5625 
Q 10.6875 0.296875 5.421875 2 
L 5.421875 11.28125 
Q 10.40625 8.6875 15.234375 7.390625 
Q 20.0625 6.109375 24.8125 6.109375 
Q 31.15625 6.109375 34.5625 8.28125 
Q 37.984375 10.453125 37.984375 14.40625 
Q 37.984375 18.0625 35.515625 20.015625 
Q 33.0625 21.96875 24.703125 23.78125 
L 21.578125 24.515625 
Q 13.234375 26.265625 9.515625 29.90625 
Q 5.8125 33.546875 5.8125 39.890625 
Q 5.8125 47.609375 11.28125 51.796875 
Q 16.75 56 26.8125 56 
Q 31.78125 56 36.171875 55.265625 
Q 40.578125 54.546875 44.28125 53.078125 
" id="DejaVuSans-73"/>
    </defs>
    <g style="fill:#d2d2d2;" transform="translate(204.292355 269.672727)scale(0.16 -0.16)">
     <use xlink:href="#DejaVuSans-4e"/>
     <use x="74.804688" xlink:href="#DejaVuSans-75"/>
     <use x="138.183594" xlink:href="#DejaVuSans-6d"/>
     <use x="235.595703" xlink:href="#DejaVuSans-62"/>
     <use x="299.072266" xlink:href="#DejaVuSans-65"/>
     <use x="360.595703" xlink:href="#DejaVuSans-72"/>
     <use x="401.708984" xlink:href="#DejaVuSans-20"/>
     <use x="433.496094" xlink:href="#DejaVuSans-6f"/>
     <use x="494.677734" xlink:href="#DejaVuSans-66"/>
     <use x="529.882812" xlink:href="#DejaVuSans-20"/>
     <use x="561.669922" xlink:href="#DejaVuSans-63"/>
     <use x="616.650391" xlink:href="#DejaVuSans-6f"/>
     <use x="677.832031" xlink:href="#DejaVuSans-69"/>
     <use x="705.615234" xlink:href="#DejaVuSans-6e"/>
     <use x="768.994141" xlink:href="#DejaVuSans-2d"/>
     <use x="805.078125" xlink:href="#DejaVuSans-66"/>
     <use x="840.283203" xlink:href="#DejaVuSans-6c"/>
     <use x="868.066406" xlink:href="#DejaVuSans-69"/>
     <use x="895.849609" xlink:href="#DejaVuSans-70"/>
     <use x="959.326172" xlink:href="#DejaVuSans-73"/>
    </g>
   </g>
  </g>
  <g id="axes_2">
   <g id="patch_4">
    <path d="M 77.76 230.4 
L 174.96 230.4 
L 174.96 14.4 
L 77.76 14.4 
z
" style="fill:none;"/>
   </g>
   <g id="matplotlib.axis_3">
    <g id="xtick_6">
     <g id="line2d_8">
      <g>
       <use style="fill:#d2d2d2;stroke:#d2d2d2;" x="77.76" xlink:href="#mdeeb0946ae" y="230.4"/>
      </g>
     </g>
     <g id="text_7">
      <!-- 0 -->
      <g style="fill:#d2d2d2;" transform="translate(73.624375 248.277969)scale(0.13 -0.13)">
       <use xlink:href="#DejaVuSans-30"/>
      </g>
     </g>
    </g>
    <g id="xtick_7">
     <g id="line2d_9">
      <g>
       <use style="fill:#d2d2d2;stroke:#d2d2d2;" x="110.052359" xlink:href="#mdeeb0946ae" y="230.4"/>
      </g>
     </g>
     <g id="text_8">
      <!-- 100 -->
      <g style="fill:#d2d2d2;" transform="translate(97.645484 248.277969)scale(0.13 -0.13)">
       <use xlink:href="#DejaVuSans-31"/>
       <use x="63.623047" xlink:href="#DejaVuSans-30"/>
       <use x="127.246094" xlink:href="#DejaVuSans-30"/>
      </g>
     </g>
    </g>
    <g id="xtick_8">
     <g id="line2d_10">
      <g>
       <use style="fill:#d2d2d2;stroke:#d2d2d2;" x="142.344718" xlink:href="#mdeeb0946ae" y="230.4"/>
      </g>
     </g>
     <g id="text_9">
      <!-- 200 -->
      <defs>
       <path d="M 19.1875 8.296875 
L 53.609375 8.296875 
L 53.609375 0 
L 7.328125 0 
L 7.328125 8.296875 
Q 12.9375 14.109375 22.625 23.890625 
Q 32.328125 33.6875 34.8125 36.53125 
Q 39.546875 41.84375 41.421875 45.53125 
Q 43.3125 49.21875 43.3125 52.78125 
Q 43.3125 58.59375 39.234375 62.25 
Q 35.15625 65.921875 28.609375 65.921875 
Q 23.96875 65.921875 18.8125 64.3125 
Q 13.671875 62.703125 7.8125 59.421875 
L 7.8125 69.390625 
Q 13.765625 71.78125 18.9375 73 
Q 24.125 74.21875 28.421875 74.21875 
Q 39.75 74.21875 46.484375 68.546875 
Q 53.21875 62.890625 53.21875 53.421875 
Q 53.21875 48.921875 51.53125 44.890625 
Q 49.859375 40.875 45.40625 35.40625 
Q 44.1875 33.984375 37.640625 27.21875 
Q 31.109375 20.453125 19.1875 8.296875 
" id="DejaVuSans-32"/>
      </defs>
      <g style="fill:#d2d2d2;" transform="translate(129.937843 248.277969)scale(0.13 -0.13)">
       <use xlink:href="#DejaVuSans-32"/>
       <use x="63.623047" xlink:href="#DejaVuSans-30"/>
       <use x="127.246094" xlink:href="#DejaVuSans-30"/>
      </g>
     </g>
    </g>
   </g>
   <g id="matplotlib.axis_4">
    <g id="ytick_1">
     <g id="line2d_11">
      <defs>
       <path d="M 0 0 
L -4 0 
" id="m68e2ff3e12" style="stroke:#d2d2d2;"/>
      </defs>
      <g>
       <use style="fill:#d2d2d2;stroke:#d2d2d2;" x="77.76" xlink:href="#m68e2ff3e12" y="230.4"/>
      </g>
     </g>
     <g id="text_10">
      <!-- 0.00 -->
      <defs>
       <path d="M 10.6875 12.40625 
L 21 12.40625 
L 21 0 
L 10.6875 0 
z
" id="DejaVuSans-2e"/>
      </defs>
      <g style="fill:#d2d2d2;" transform="translate(40.814687 235.338984)scale(0.13 -0.13)">
       <use xlink:href="#DejaVuSans-30"/>
       <use x="63.623047" xlink:href="#DejaVuSans-2e"/>
       <use x="95.410156" xlink:href="#DejaVuSans-30"/>
       <use x="159.033203" xlink:href="#DejaVuSans-30"/>
      </g>
     </g>
    </g>
    <g id="ytick_2">
     <g id="line2d_12">
      <g>
       <use style="fill:#d2d2d2;stroke:#d2d2d2;" x="77.76" xlink:href="#m68e2ff3e12" y="181.309091"/>
      </g>
     </g>
     <g id="text_11">
      <!-- 0.25 -->
      <g style="fill:#d2d2d2;" transform="translate(40.814687 186.248075)scale(0.13 -0.13)">
       <use xlink:href="#DejaVuSans-30"/>
       <use x="63.623047" xlink:href="#DejaVuSans-2e"/>
       <use x="95.410156" xlink:href="#DejaVuSans-32"/>
       <use x="159.033203" xlink:href="#DejaVuSans-35"/>
      </g>
     </g>
    </g>
    <g id="ytick_3">
     <g id="line2d_13">
      <g>
       <use style="fill:#d2d2d2;stroke:#d2d2d2;" x="77.76" xlink:href="#m68e2ff3e12" y="132.218182"/>
      </g>
     </g>
     <g id="text_12">
      <!-- 0.50 -->
      <g style="fill:#d2d2d2;" transform="translate(40.814687 137.157166)scale(0.13 -0.13)">
       <use xlink:href="#DejaVuSans-30"/>
       <use x="63.623047" xlink:href="#DejaVuSans-2e"/>
       <use x="95.410156" xlink:href="#DejaVuSans-35"/>
       <use x="159.033203" xlink:href="#DejaVuSans-30"/>
      </g>
     </g>
    </g>
    <g id="ytick_4">
     <g id="line2d_14">
      <g>
       <use style="fill:#d2d2d2;stroke:#d2d2d2;" x="77.76" xlink:href="#m68e2ff3e12" y="83.127273"/>
      </g>
     </g>
     <g id="text_13">
      <!-- 0.75 -->
      <g style="fill:#d2d2d2;" transform="translate(40.814687 88.066257)scale(0.13 -0.13)">
       <use xlink:href="#DejaVuSans-30"/>
       <use x="63.623047" xlink:href="#DejaVuSans-2e"/>
       <use x="95.410156" xlink:href="#DejaVuSans-37"/>
       <use x="159.033203" xlink:href="#DejaVuSans-35"/>
      </g>
     </g>
    </g>
    <g id="ytick_5">
     <g id="line2d_15">
      <g>
       <use style="fill:#d2d2d2;stroke:#d2d2d2;" x="77.76" xlink:href="#m68e2ff3e12" y="34.036364"/>
      </g>
     </g>
     <g id="text_14">
      <!-- 1.00 -->
      <g style="fill:#d2d2d2;" transform="translate(40.814687 38.975348)scale(0.13 -0.13)">
       <use xlink:href="#DejaVuSans-31"/>
       <use x="63.623047" xlink:href="#DejaVuSans-2e"/>
       <use x="95.410156" xlink:href="#DejaVuSans-30"/>
       <use x="159.033203" xlink:href="#DejaVuSans-30"/>
      </g>
     </g>
    </g>
    <g id="text_15">
     <!-- Proportion of heads -->
     <defs>
      <path d="M 19.671875 64.796875 
L 19.671875 37.40625 
L 32.078125 37.40625 
Q 38.96875 37.40625 42.71875 40.96875 
Q 46.484375 44.53125 46.484375 51.125 
Q 46.484375 57.671875 42.71875 61.234375 
Q 38.96875 64.796875 32.078125 64.796875 
z
M 9.8125 72.90625 
L 32.078125 72.90625 
Q 44.34375 72.90625 50.609375 67.359375 
Q 56.890625 61.8125 56.890625 51.125 
Q 56.890625 40.328125 50.609375 34.8125 
Q 44.34375 29.296875 32.078125 29.296875 
L 19.671875 29.296875 
L 19.671875 0 
L 9.8125 0 
z
" id="DejaVuSans-50"/>
      <path d="M 18.3125 70.21875 
L 18.3125 54.6875 
L 36.8125 54.6875 
L 36.8125 47.703125 
L 18.3125 47.703125 
L 18.3125 18.015625 
Q 18.3125 11.328125 20.140625 9.421875 
Q 21.96875 7.515625 27.59375 7.515625 
L 36.8125 7.515625 
L 36.8125 0 
L 27.59375 0 
Q 17.1875 0 13.234375 3.875 
Q 9.28125 7.765625 9.28125 18.015625 
L 9.28125 47.703125 
L 2.6875 47.703125 
L 2.6875 54.6875 
L 9.28125 54.6875 
L 9.28125 70.21875 
z
" id="DejaVuSans-74"/>
      <path d="M 54.890625 33.015625 
L 54.890625 0 
L 45.90625 0 
L 45.90625 32.71875 
Q 45.90625 40.484375 42.875 44.328125 
Q 39.84375 48.1875 33.796875 48.1875 
Q 26.515625 48.1875 22.3125 43.546875 
Q 18.109375 38.921875 18.109375 30.90625 
L 18.109375 0 
L 9.078125 0 
L 9.078125 75.984375 
L 18.109375 75.984375 
L 18.109375 46.1875 
Q 21.34375 51.125 25.703125 53.5625 
Q 30.078125 56 35.796875 56 
Q 45.21875 56 50.046875 50.171875 
Q 54.890625 44.34375 54.890625 33.015625 
" id="DejaVuSans-68"/>
      <path d="M 34.28125 27.484375 
Q 23.390625 27.484375 19.1875 25 
Q 14.984375 22.515625 14.984375 16.5 
Q 14.984375 11.71875 18.140625 8.90625 
Q 21.296875 6.109375 26.703125 6.109375 
Q 34.1875 6.109375 38.703125 11.40625 
Q 43.21875 16.703125 43.21875 25.484375 
L 43.21875 27.484375 
z
M 52.203125 31.203125 
L 52.203125 0 
L 43.21875 0 
L 43.21875 8.296875 
Q 40.140625 3.328125 35.546875 0.953125 
Q 30.953125 -1.421875 24.3125 -1.421875 
Q 15.921875 -1.421875 10.953125 3.296875 
Q 6 8.015625 6 15.921875 
Q 6 25.140625 12.171875 29.828125 
Q 18.359375 34.515625 30.609375 34.515625 
L 43.21875 34.515625 
L 43.21875 35.40625 
Q 43.21875 41.609375 39.140625 45 
Q 35.0625 48.390625 27.6875 48.390625 
Q 23 48.390625 18.546875 47.265625 
Q 14.109375 46.140625 10.015625 43.890625 
L 10.015625 52.203125 
Q 14.9375 54.109375 19.578125 55.046875 
Q 24.21875 56 28.609375 56 
Q 40.484375 56 46.34375 49.84375 
Q 52.203125 43.703125 52.203125 31.203125 
" id="DejaVuSans-61"/>
      <path d="M 45.40625 46.390625 
L 45.40625 75.984375 
L 54.390625 75.984375 
L 54.390625 0 
L 45.40625 0 
L 45.40625 8.203125 
Q 42.578125 3.328125 38.25 0.953125 
Q 33.9375 -1.421875 27.875 -1.421875 
Q 17.96875 -1.421875 11.734375 6.484375 
Q 5.515625 14.40625 5.515625 27.296875 
Q 5.515625 40.1875 11.734375 48.09375 
Q 17.96875 56 27.875 56 
Q 33.9375 56 38.25 53.625 
Q 42.578125 51.265625 45.40625 46.390625 
M 14.796875 27.296875 
Q 14.796875 17.390625 18.875 11.75 
Q 22.953125 6.109375 30.078125 6.109375 
Q 37.203125 6.109375 41.296875 11.75 
Q 45.40625 17.390625 45.40625 27.296875 
Q 45.40625 37.203125 41.296875 42.84375 
Q 37.203125 48.484375 30.078125 48.484375 
Q 22.953125 48.484375 18.875 42.84375 
Q 14.796875 37.203125 14.796875 27.296875 
" id="DejaVuSans-64"/>
     </defs>
     <g style="fill:#d2d2d2;" transform="translate(15.570687 200.9275)rotate(-90)scale(0.16 -0.16)">
      <use xlink:href="#DejaVuSans-50"/>
      <use x="60.287109" xlink:href="#DejaVuSans-72"/>
      <use x="101.369141" xlink:href="#DejaVuSans-6f"/>
      <use x="162.550781" xlink:href="#DejaVuSans-70"/>
      <use x="226.027344" xlink:href="#DejaVuSans-6f"/>
      <use x="287.208984" xlink:href="#DejaVuSans-72"/>
      <use x="328.322266" xlink:href="#DejaVuSans-74"/>
      <use x="367.53125" xlink:href="#DejaVuSans-69"/>
      <use x="395.314453" xlink:href="#DejaVuSans-6f"/>
      <use x="456.496094" xlink:href="#DejaVuSans-6e"/>
      <use x="519.875" xlink:href="#DejaVuSans-20"/>
      <use x="551.662109" xlink:href="#DejaVuSans-6f"/>
      <use x="612.84375" xlink:href="#DejaVuSans-66"/>
      <use x="648.048828" xlink:href="#DejaVuSans-20"/>
      <use x="679.835938" xlink:href="#DejaVuSans-68"/>
      <use x="743.214844" xlink:href="#DejaVuSans-65"/>
      <use x="804.738281" xlink:href="#DejaVuSans-61"/>
      <use x="866.017578" xlink:href="#DejaVuSans-64"/>
      <use x="929.494141" xlink:href="#DejaVuSans-73"/>
     </g>
     <!-- in the sample -->
     <g style="fill:#d2d2d2;" transform="translate(33.487187 176.9925)rotate(-90)scale(0.16 -0.16)">
      <use xlink:href="#DejaVuSans-69"/>
      <use x="27.783203" xlink:href="#DejaVuSans-6e"/>
      <use x="91.162109" xlink:href="#DejaVuSans-20"/>
      <use x="122.949219" xlink:href="#DejaVuSans-74"/>
      <use x="162.158203" xlink:href="#DejaVuSans-68"/>
      <use x="225.537109" xlink:href="#DejaVuSans-65"/>
      <use x="287.060547" xlink:href="#DejaVuSans-20"/>
      <use x="318.847656" xlink:href="#DejaVuSans-73"/>
      <use x="370.947266" xlink:href="#DejaVuSans-61"/>
      <use x="432.226562" xlink:href="#DejaVuSans-6d"/>
      <use x="529.638672" xlink:href="#DejaVuSans-70"/>
      <use x="593.115234" xlink:href="#DejaVuSans-6c"/>
      <use x="620.898438" xlink:href="#DejaVuSans-65"/>
     </g>
    </g>
   </g>
   <g id="line2d_16">
    <path clip-path="url(#p98af779f52)" d="M 78.082924 230.4 
L 78.405847 230.4 
L 78.728771 132.218182 
L 79.051694 99.490909 
L 79.374618 83.127273 
L 79.697542 73.309091 
L 80.343389 118.192208 
L 80.989236 99.490909 
L 81.635083 87.590083 
L 81.958007 99.490909 
L 82.28093 94.455944 
L 82.603854 104.166234 
L 82.926777 99.490909 
L 83.572625 114.891979 
L 83.895548 110.4 
L 84.218472 116.715789 
L 84.541395 112.581818 
L 85.510166 127.949407 
L 85.83309 132.218182 
L 86.156013 128.290909 
L 86.478937 132.218182 
L 87.447708 122.061442 
L 87.770631 125.672727 
L 88.093555 122.716716 
L 89.062326 132.218182 
L 89.385249 129.412987 
L 90.35402 137.385646 
L 90.999867 132.218182 
L 91.322791 134.61286 
L 91.645714 132.218182 
L 92.937409 140.755731 
L 93.583256 144.490909 
L 94.229103 140.072727 
L 95.197874 145.185592 
L 96.166645 139.231169 
L 96.812492 142.374922 
L 97.135415 140.538675 
L 97.458339 142.036364 
L 98.42711 136.893506 
L 98.750033 138.354545 
L 99.072957 136.74965 
L 99.39588 138.168595 
L 101.010498 130.835339 
L 101.979269 126.911057 
L 102.625116 129.63445 
L 103.270963 127.183217 
L 104.562658 132.218182 
L 105.208505 129.880519 
L 105.531429 131.063102 
L 106.177276 128.832602 
L 106.500199 129.986777 
L 106.823123 128.908682 
L 108.437741 134.307157 
L 109.083588 132.218182 
L 109.406512 133.230366 
L 109.729435 132.218182 
L 110.698206 135.134473 
L 111.02113 134.143316 
L 111.344053 135.077846 
L 111.9899 133.153247 
L 112.635748 134.970943 
L 112.958671 134.036364 
L 113.604518 135.78843 
L 113.927442 134.871744 
L 114.573289 136.56251 
L 114.896213 135.663158 
L 115.219136 136.486957 
L 115.864983 134.735664 
L 116.187907 135.546379 
L 116.833754 133.854545 
L 117.156678 134.652442 
L 117.479601 133.82772 
L 117.802525 134.61286 
L 118.448372 133.003636 
L 119.094219 134.537437 
L 119.417143 133.752273 
L 120.06299 135.239161 
L 120.385914 134.46662 
L 121.031761 135.909228 
L 121.354684 135.148982 
L 122.646379 137.909881 
L 122.969302 137.16259 
L 123.938073 139.132394 
L 124.260997 138.397457 
L 124.58392 139.036364 
L 124.906844 138.312226 
L 125.552691 139.565121 
L 125.875615 138.852088 
L 126.844385 140.670921 
L 127.167309 139.969378 
L 127.490233 140.560428 
L 127.813156 139.868713 
L 128.459003 141.029371 
L 129.427774 139.010635 
L 130.073621 140.145906 
L 130.719468 138.843949 
L 131.688239 140.498576 
L 133.948704 136.190857 
L 134.271628 136.732288 
L 134.594551 136.145455 
L 135.563322 137.734014 
L 135.886246 137.154698 
L 136.209169 137.672727 
L 136.855017 136.533866 
L 137.17794 137.046796 
L 137.500864 136.486957 
L 137.823787 136.994595 
L 138.792558 135.351644 
L 139.115482 135.854545 
L 141.69887 131.719797 
L 142.344718 132.711558 
L 142.990565 131.729715 
L 143.636412 132.701836 
L 143.959336 132.218182 
L 144.605183 133.171403 
L 145.573953 131.748412 
L 146.542724 133.144425 
L 147.188571 132.218182 
L 147.511495 132.674841 
L 148.157342 131.765731 
L 148.480266 132.218182 
L 148.803189 131.769863 
L 149.449037 132.662443 
L 150.417807 131.341558 
L 151.063654 132.218182 
L 151.709502 131.356938 
L 152.032425 131.78944 
L 152.355349 131.364427 
L 152.678272 131.793152 
L 153.32412 130.954038 
L 153.647043 131.379021 
L 154.29289 130.554083 
L 154.615814 130.975374 
L 154.938738 130.568067 
L 155.261661 130.985774 
L 155.584585 130.581818 
L 157.522126 133.016408 
L 158.490897 131.823877 
L 158.813821 132.218182 
L 159.136744 131.827019 
L 159.459668 132.218182 
L 160.105515 131.445097 
L 161.720133 133.355423 
L 162.043056 132.973427 
L 162.36598 133.346708 
L 162.688904 132.967661 
L 163.011827 133.338127 
L 163.334751 132.961983 
L 163.657674 133.329674 
L 164.949369 131.853194 
L 165.272292 132.218182 
L 165.595216 131.855887 
L 165.91814 132.218182 
L 166.241063 131.858541 
L 166.563987 132.218182 
L 166.88691 131.861157 
L 167.532757 132.572629 
L 167.855681 132.218182 
L 168.501528 132.919481 
L 169.470299 131.87125 
L 169.793223 132.218182 
L 170.43907 131.531596 
L 171.730764 132.895298 
L 173.668306 130.8914 
L 174.637076 131.889815 
L 174.637076 131.889815 
" style="fill:none;stroke:#5bc0de;stroke-linecap:square;stroke-width:1.5;"/>
   </g>
   <g id="line2d_17">
    <path clip-path="url(#p98af779f52)" d="M 77.76 132.218182 
L 174.96 132.218182 
" style="fill:none;stroke:#f0ad4e;stroke-dasharray:5.6,2.4;stroke-dashoffset:0;stroke-width:1.5;"/>
   </g>
   <g id="line2d_18">
    <path d="M 171.407841 240.218182 
L 179.48093 220.581818 
" style="fill:none;stroke:#d2d2d2;stroke-linecap:square;stroke-width:1.5;"/>
   </g>
   <g id="line2d_19">
    <path d="M 181.095548 240.218182 
L 189.168638 220.581818 
" style="fill:none;stroke:#d2d2d2;stroke-linecap:square;stroke-width:1.5;"/>
   </g>
   <g id="patch_5">
    <path d="M 77.76 230.4 
L 77.76 14.4 
" style="fill:none;stroke:#d2d2d2;stroke-linecap:square;stroke-linejoin:miter;"/>
   </g>
   <g id="patch_6">
    <path d="M 77.76 230.4 
L 174.96 230.4 
" style="fill:none;stroke:#d2d2d2;stroke-linecap:square;stroke-linejoin:miter;"/>
   </g>
  </g>
  <g id="axes_3">
   <g id="patch_7">
    <path d="M 531.36 230.4 
L 625.32 230.4 
L 625.32 14.4 
L 531.36 14.4 
z
" style="fill:none;"/>
   </g>
   <g id="patch_8">
    <path clip-path="url(#p95efc5ce68)" d="M 543.105 230.4 
L 566.595 230.4 
L 566.595 26.406487 
L 543.105 26.406487 
z
" style="fill:#5bc0de;"/>
   </g>
   <g id="patch_9">
    <path clip-path="url(#p95efc5ce68)" d="M 566.595 230.4 
L 590.085 230.4 
L 590.085 230.4 
L 566.595 230.4 
z
" style="fill:#5bc0de;"/>
   </g>
   <g id="patch_10">
    <path clip-path="url(#p95efc5ce68)" d="M 590.085 230.4 
L 613.575 230.4 
L 613.575 24.685714 
L 590.085 24.685714 
z
" style="fill:#5bc0de;"/>
   </g>
   <g id="matplotlib.axis_5">
    <g id="xtick_9">
     <g id="line2d_20">
      <g>
       <use style="fill:#d2d2d2;stroke:#d2d2d2;" x="554.85" xlink:href="#mdeeb0946ae" y="230.4"/>
      </g>
     </g>
     <g id="text_16">
      <!-- 0 -->
      <g style="fill:#d2d2d2;" transform="translate(550.714375 248.277969)scale(0.13 -0.13)">
       <use xlink:href="#DejaVuSans-30"/>
      </g>
     </g>
    </g>
    <g id="xtick_10">
     <g id="line2d_21">
      <g>
       <use style="fill:#d2d2d2;stroke:#d2d2d2;" x="601.83" xlink:href="#mdeeb0946ae" y="230.4"/>
      </g>
     </g>
     <g id="text_17">
      <!-- 1 -->
      <g style="fill:#d2d2d2;" transform="translate(597.694375 248.277969)scale(0.13 -0.13)">
       <use xlink:href="#DejaVuSans-31"/>
      </g>
     </g>
    </g>
    <g id="text_18">
     <!-- Number of heads -->
     <g style="fill:#d2d2d2;" transform="translate(509.265 267.139063)scale(0.16 -0.16)">
      <use xlink:href="#DejaVuSans-4e"/>
      <use x="74.804688" xlink:href="#DejaVuSans-75"/>
      <use x="138.183594" xlink:href="#DejaVuSans-6d"/>
      <use x="235.595703" xlink:href="#DejaVuSans-62"/>
      <use x="299.072266" xlink:href="#DejaVuSans-65"/>
      <use x="360.595703" xlink:href="#DejaVuSans-72"/>
      <use x="401.708984" xlink:href="#DejaVuSans-20"/>
      <use x="433.496094" xlink:href="#DejaVuSans-6f"/>
      <use x="494.677734" xlink:href="#DejaVuSans-66"/>
      <use x="529.882812" xlink:href="#DejaVuSans-20"/>
      <use x="561.669922" xlink:href="#DejaVuSans-68"/>
      <use x="625.048828" xlink:href="#DejaVuSans-65"/>
      <use x="686.572266" xlink:href="#DejaVuSans-61"/>
      <use x="747.851562" xlink:href="#DejaVuSans-64"/>
      <use x="811.328125" xlink:href="#DejaVuSans-73"/>
     </g>
    </g>
   </g>
   <g id="matplotlib.axis_6">
    <g id="ytick_6">
     <g id="line2d_22">
      <g>
       <use style="fill:#d2d2d2;stroke:#d2d2d2;" x="531.36" xlink:href="#m68e2ff3e12" y="230.4"/>
      </g>
     </g>
     <g id="text_19">
      <!-- 0 -->
      <g style="fill:#d2d2d2;" transform="translate(515.08875 235.338984)scale(0.13 -0.13)">
       <use xlink:href="#DejaVuSans-30"/>
      </g>
     </g>
    </g>
    <g id="ytick_7">
     <g id="line2d_23">
      <g>
       <use style="fill:#d2d2d2;stroke:#d2d2d2;" x="531.36" xlink:href="#m68e2ff3e12" y="189.42922"/>
      </g>
     </g>
     <g id="text_20">
      <!-- 1000 -->
      <g style="fill:#d2d2d2;" transform="translate(490.275 194.368205)scale(0.13 -0.13)">
       <use xlink:href="#DejaVuSans-31"/>
       <use x="63.623047" xlink:href="#DejaVuSans-30"/>
       <use x="127.246094" xlink:href="#DejaVuSans-30"/>
       <use x="190.869141" xlink:href="#DejaVuSans-30"/>
      </g>
     </g>
    </g>
    <g id="ytick_8">
     <g id="line2d_24">
      <g>
       <use style="fill:#d2d2d2;stroke:#d2d2d2;" x="531.36" xlink:href="#m68e2ff3e12" y="148.45844"/>
      </g>
     </g>
     <g id="text_21">
      <!-- 2000 -->
      <g style="fill:#d2d2d2;" transform="translate(490.275 153.397425)scale(0.13 -0.13)">
       <use xlink:href="#DejaVuSans-32"/>
       <use x="63.623047" xlink:href="#DejaVuSans-30"/>
       <use x="127.246094" xlink:href="#DejaVuSans-30"/>
       <use x="190.869141" xlink:href="#DejaVuSans-30"/>
      </g>
     </g>
    </g>
    <g id="ytick_9">
     <g id="line2d_25">
      <g>
       <use style="fill:#d2d2d2;stroke:#d2d2d2;" x="531.36" xlink:href="#m68e2ff3e12" y="107.48766"/>
      </g>
     </g>
     <g id="text_22">
      <!-- 3000 -->
      <g style="fill:#d2d2d2;" transform="translate(490.275 112.426645)scale(0.13 -0.13)">
       <use xlink:href="#DejaVuSans-33"/>
       <use x="63.623047" xlink:href="#DejaVuSans-30"/>
       <use x="127.246094" xlink:href="#DejaVuSans-30"/>
       <use x="190.869141" xlink:href="#DejaVuSans-30"/>
      </g>
     </g>
    </g>
    <g id="ytick_10">
     <g id="line2d_26">
      <g>
       <use style="fill:#d2d2d2;stroke:#d2d2d2;" x="531.36" xlink:href="#m68e2ff3e12" y="66.516881"/>
      </g>
     </g>
     <g id="text_23">
      <!-- 4000 -->
      <defs>
       <path d="M 37.796875 64.3125 
L 12.890625 25.390625 
L 37.796875 25.390625 
z
M 35.203125 72.90625 
L 47.609375 72.90625 
L 47.609375 25.390625 
L 58.015625 25.390625 
L 58.015625 17.1875 
L 47.609375 17.1875 
L 47.609375 0 
L 37.796875 0 
L 37.796875 17.1875 
L 4.890625 17.1875 
L 4.890625 26.703125 
z
" id="DejaVuSans-34"/>
      </defs>
      <g style="fill:#d2d2d2;" transform="translate(490.275 71.455865)scale(0.13 -0.13)">
       <use xlink:href="#DejaVuSans-34"/>
       <use x="63.623047" xlink:href="#DejaVuSans-30"/>
       <use x="127.246094" xlink:href="#DejaVuSans-30"/>
       <use x="190.869141" xlink:href="#DejaVuSans-30"/>
      </g>
     </g>
    </g>
    <g id="ytick_11">
     <g id="line2d_27">
      <g>
       <use style="fill:#d2d2d2;stroke:#d2d2d2;" x="531.36" xlink:href="#m68e2ff3e12" y="25.546101"/>
      </g>
     </g>
     <g id="text_24">
      <!-- 5000 -->
      <g style="fill:#d2d2d2;" transform="translate(490.275 30.485085)scale(0.13 -0.13)">
       <use xlink:href="#DejaVuSans-35"/>
       <use x="63.623047" xlink:href="#DejaVuSans-30"/>
       <use x="127.246094" xlink:href="#DejaVuSans-30"/>
       <use x="190.869141" xlink:href="#DejaVuSans-30"/>
      </g>
     </g>
    </g>
    <g id="text_25">
     <!-- Frequency -->
     <defs>
      <path d="M 9.8125 72.90625 
L 51.703125 72.90625 
L 51.703125 64.59375 
L 19.671875 64.59375 
L 19.671875 43.109375 
L 48.578125 43.109375 
L 48.578125 34.8125 
L 19.671875 34.8125 
L 19.671875 0 
L 9.8125 0 
z
" id="DejaVuSans-46"/>
      <path d="M 14.796875 27.296875 
Q 14.796875 17.390625 18.875 11.75 
Q 22.953125 6.109375 30.078125 6.109375 
Q 37.203125 6.109375 41.296875 11.75 
Q 45.40625 17.390625 45.40625 27.296875 
Q 45.40625 37.203125 41.296875 42.84375 
Q 37.203125 48.484375 30.078125 48.484375 
Q 22.953125 48.484375 18.875 42.84375 
Q 14.796875 37.203125 14.796875 27.296875 
M 45.40625 8.203125 
Q 42.578125 3.328125 38.25 0.953125 
Q 33.9375 -1.421875 27.875 -1.421875 
Q 17.96875 -1.421875 11.734375 6.484375 
Q 5.515625 14.40625 5.515625 27.296875 
Q 5.515625 40.1875 11.734375 48.09375 
Q 17.96875 56 27.875 56 
Q 33.9375 56 38.25 53.625 
Q 42.578125 51.265625 45.40625 46.390625 
L 45.40625 54.6875 
L 54.390625 54.6875 
L 54.390625 -20.796875 
L 45.40625 -20.796875 
z
" id="DejaVuSans-71"/>
      <path d="M 32.171875 -5.078125 
Q 28.375 -14.84375 24.75 -17.8125 
Q 21.140625 -20.796875 15.09375 -20.796875 
L 7.90625 -20.796875 
L 7.90625 -13.28125 
L 13.1875 -13.28125 
Q 16.890625 -13.28125 18.9375 -11.515625 
Q 21 -9.765625 23.484375 -3.21875 
L 25.09375 0.875 
L 2.984375 54.6875 
L 12.5 54.6875 
L 29.59375 11.921875 
L 46.6875 54.6875 
L 56.203125 54.6875 
z
" id="DejaVuSans-79"/>
     </defs>
     <g style="fill:#d2d2d2;" transform="translate(482.9475 164.47625)rotate(-90)scale(0.16 -0.16)">
      <use xlink:href="#DejaVuSans-46"/>
      <use x="57.410156" xlink:href="#DejaVuSans-72"/>
      <use x="98.492188" xlink:href="#DejaVuSans-65"/>
      <use x="160.015625" xlink:href="#DejaVuSans-71"/>
      <use x="223.492188" xlink:href="#DejaVuSans-75"/>
      <use x="286.871094" xlink:href="#DejaVuSans-65"/>
      <use x="348.394531" xlink:href="#DejaVuSans-6e"/>
      <use x="411.773438" xlink:href="#DejaVuSans-63"/>
      <use x="466.753906" xlink:href="#DejaVuSans-79"/>
     </g>
    </g>
   </g>
   <g id="patch_11">
    <path d="M 531.36 230.4 
L 531.36 14.4 
" style="fill:none;stroke:#d2d2d2;stroke-linecap:square;stroke-linejoin:miter;"/>
   </g>
   <g id="patch_12">
    <path d="M 531.36 230.4 
L 625.32 230.4 
" style="fill:none;stroke:#d2d2d2;stroke-linecap:square;stroke-linejoin:miter;"/>
   </g>
  </g>
 </g>
 <defs>
  <clipPath id="p1d1028a486">
   <rect height="216" width="272.16" x="184.68" y="14.4"/>
  </clipPath>
  <clipPath id="p98af779f52">
   <rect height="216" width="97.2" x="77.76" y="14.4"/>
  </clipPath>
  <clipPath id="p95efc5ce68">
   <rect height="216" width="93.96" x="531.36" y="14.4"/>
  </clipPath>
 </defs>
</svg>
