<?xml version="1.0" encoding="utf-8" standalone="no"?>
<!DOCTYPE svg PUBLIC "-//W3C//DTD SVG 1.1//EN"
  "http://www.w3.org/Graphics/SVG/1.1/DTD/svg11.dtd">
<!-- Created with matplotlib (http://matplotlib.org/) -->
<svg height="288pt" version="1.1" viewBox="0 0 432 288" width="432pt" xmlns="http://www.w3.org/2000/svg" xmlns:xlink="http://www.w3.org/1999/xlink">
 <defs>
  <style type="text/css">
*{stroke-linecap:butt;stroke-linejoin:round;}
  </style>
 </defs>
 <g id="figure_1">
  <g id="patch_1">
   <path d="M 0 288 
L 432 288 
L 432 0 
L 0 0 
z
" style="fill:none;"/>
  </g>
  <g id="axes_1">
   <g id="patch_2">
    <path d="M 43.2 244.8 
L 397.44 244.8 
L 397.44 28.8 
L 43.2 28.8 
z
" style="fill:none;"/>
   </g>
   <g id="patch_3">
    <path clip-path="url(#p667450e8bf)" d="M 40.037143 244.8 
L 46.362857 244.8 
L 46.362857 244.8 
L 40.037143 244.8 
z
" style="fill:#5bc0de;"/>
   </g>
   <g id="patch_4">
    <path clip-path="url(#p667450e8bf)" d="M 46.362857 244.8 
L 52.688571 244.8 
L 52.688571 244.8 
L 46.362857 244.8 
z
" style="fill:#5bc0de;"/>
   </g>
   <g id="patch_5">
    <path clip-path="url(#p667450e8bf)" d="M 52.688571 244.8 
L 59.014286 244.8 
L 59.014286 244.8 
L 52.688571 244.8 
z
" style="fill:#5bc0de;"/>
   </g>
   <g id="patch_6">
    <path clip-path="url(#p667450e8bf)" d="M 59.014286 244.8 
L 65.34 244.8 
L 65.34 244.8 
L 59.014286 244.8 
z
" style="fill:#5bc0de;"/>
   </g>
   <g id="patch_7">
    <path clip-path="url(#p667450e8bf)" d="M 65.34 244.8 
L 71.665714 244.8 
L 71.665714 244.8 
L 65.34 244.8 
z
" style="fill:#5bc0de;"/>
   </g>
   <g id="patch_8">
    <path clip-path="url(#p667450e8bf)" d="M 71.665714 244.8 
L 77.991429 244.8 
L 77.991429 244.8 
L 71.665714 244.8 
z
" style="fill:#5bc0de;"/>
   </g>
   <g id="patch_9">
    <path clip-path="url(#p667450e8bf)" d="M 77.991429 244.8 
L 84.317143 244.8 
L 84.317143 244.66091 
L 77.991429 244.66091 
z
" style="fill:#5bc0de;"/>
   </g>
   <g id="patch_10">
    <path clip-path="url(#p667450e8bf)" d="M 84.317143 244.8 
L 90.642857 244.8 
L 90.642857 244.8 
L 84.317143 244.8 
z
" style="fill:#5bc0de;"/>
   </g>
   <g id="patch_11">
    <path clip-path="url(#p667450e8bf)" d="M 90.642857 244.8 
L 96.968571 244.8 
L 96.968571 244.8 
L 90.642857 244.8 
z
" style="fill:#5bc0de;"/>
   </g>
   <g id="patch_12">
    <path clip-path="url(#p667450e8bf)" d="M 96.968571 244.8 
L 103.294286 244.8 
L 103.294286 244.8 
L 96.968571 244.8 
z
" style="fill:#5bc0de;"/>
   </g>
   <g id="patch_13">
    <path clip-path="url(#p667450e8bf)" d="M 103.294286 244.8 
L 109.62 244.8 
L 109.62 244.52182 
L 103.294286 244.52182 
z
" style="fill:#5bc0de;"/>
   </g>
   <g id="patch_14">
    <path clip-path="url(#p667450e8bf)" d="M 109.62 244.8 
L 115.945714 244.8 
L 115.945714 244.8 
L 109.62 244.8 
z
" style="fill:#5bc0de;"/>
   </g>
   <g id="patch_15">
    <path clip-path="url(#p667450e8bf)" d="M 115.945714 244.8 
L 122.271429 244.8 
L 122.271429 242.157288 
L 115.945714 242.157288 
z
" style="fill:#5bc0de;"/>
   </g>
   <g id="patch_16">
    <path clip-path="url(#p667450e8bf)" d="M 122.271429 244.8 
L 128.597143 244.8 
L 128.597143 244.8 
L 122.271429 244.8 
z
" style="fill:#5bc0de;"/>
   </g>
   <g id="patch_17">
    <path clip-path="url(#p667450e8bf)" d="M 128.597143 244.8 
L 134.922857 244.8 
L 134.922857 239.514575 
L 128.597143 239.514575 
z
" style="fill:#5bc0de;"/>
   </g>
   <g id="patch_18">
    <path clip-path="url(#p667450e8bf)" d="M 134.922857 244.8 
L 141.248571 244.8 
L 141.248571 244.8 
L 134.922857 244.8 
z
" style="fill:#5bc0de;"/>
   </g>
   <g id="patch_19">
    <path clip-path="url(#p667450e8bf)" d="M 141.248571 244.8 
L 147.574286 244.8 
L 147.574286 228.665546 
L 141.248571 228.665546 
z
" style="fill:#5bc0de;"/>
   </g>
   <g id="patch_20">
    <path clip-path="url(#p667450e8bf)" d="M 147.574286 244.8 
L 153.9 244.8 
L 153.9 244.8 
L 147.574286 244.8 
z
" style="fill:#5bc0de;"/>
   </g>
   <g id="patch_21">
    <path clip-path="url(#p667450e8bf)" d="M 153.9 244.8 
L 160.225714 244.8 
L 160.225714 211.001101 
L 153.9 211.001101 
z
" style="fill:#5bc0de;"/>
   </g>
   <g id="patch_22">
    <path clip-path="url(#p667450e8bf)" d="M 160.225714 244.8 
L 166.551429 244.8 
L 166.551429 244.8 
L 160.225714 244.8 
z
" style="fill:#5bc0de;"/>
   </g>
   <g id="patch_23">
    <path clip-path="url(#p667450e8bf)" d="M 166.551429 244.8 
L 172.877143 244.8 
L 172.877143 178.314923 
L 166.551429 178.314923 
z
" style="fill:#5bc0de;"/>
   </g>
   <g id="patch_24">
    <path clip-path="url(#p667450e8bf)" d="M 172.877143 244.8 
L 179.202857 244.8 
L 179.202857 244.8 
L 172.877143 244.8 
z
" style="fill:#5bc0de;"/>
   </g>
   <g id="patch_25">
    <path clip-path="url(#p667450e8bf)" d="M 179.202857 244.8 
L 185.528571 244.8 
L 185.528571 138.117879 
L 179.202857 138.117879 
z
" style="fill:#5bc0de;"/>
   </g>
   <g id="patch_26">
    <path clip-path="url(#p667450e8bf)" d="M 185.528571 244.8 
L 191.854286 244.8 
L 191.854286 244.8 
L 185.528571 244.8 
z
" style="fill:#5bc0de;"/>
   </g>
   <g id="patch_27">
    <path clip-path="url(#p667450e8bf)" d="M 191.854286 244.8 
L 198.18 244.8 
L 198.18 77.613677 
L 191.854286 77.613677 
z
" style="fill:#5bc0de;"/>
   </g>
   <g id="patch_28">
    <path clip-path="url(#p667450e8bf)" d="M 198.18 244.8 
L 204.505714 244.8 
L 204.505714 244.8 
L 198.18 244.8 
z
" style="fill:#5bc0de;"/>
   </g>
   <g id="patch_29">
    <path clip-path="url(#p667450e8bf)" d="M 204.505714 244.8 
L 210.831429 244.8 
L 210.831429 49.517473 
L 204.505714 49.517473 
z
" style="fill:#5bc0de;"/>
   </g>
   <g id="patch_30">
    <path clip-path="url(#p667450e8bf)" d="M 210.831429 244.8 
L 217.157143 244.8 
L 217.157143 244.8 
L 210.831429 244.8 
z
" style="fill:#5bc0de;"/>
   </g>
   <g id="patch_31">
    <path clip-path="url(#p667450e8bf)" d="M 217.157143 244.8 
L 223.482857 244.8 
L 223.482857 39.085714 
L 217.157143 39.085714 
z
" style="fill:#5bc0de;"/>
   </g>
   <g id="patch_32">
    <path clip-path="url(#p667450e8bf)" d="M 223.482857 244.8 
L 229.808571 244.8 
L 229.808571 244.8 
L 223.482857 244.8 
z
" style="fill:#5bc0de;"/>
   </g>
   <g id="patch_33">
    <path clip-path="url(#p667450e8bf)" d="M 229.808571 244.8 
L 236.134286 244.8 
L 236.134286 49.239293 
L 229.808571 49.239293 
z
" style="fill:#5bc0de;"/>
   </g>
   <g id="patch_34">
    <path clip-path="url(#p667450e8bf)" d="M 236.134286 244.8 
L 242.46 244.8 
L 242.46 244.8 
L 236.134286 244.8 
z
" style="fill:#5bc0de;"/>
   </g>
   <g id="patch_35">
    <path clip-path="url(#p667450e8bf)" d="M 242.46 244.8 
L 248.785714 244.8 
L 248.785714 92.91359 
L 242.46 92.91359 
z
" style="fill:#5bc0de;"/>
   </g>
   <g id="patch_36">
    <path clip-path="url(#p667450e8bf)" d="M 248.785714 244.8 
L 255.111429 244.8 
L 255.111429 244.8 
L 248.785714 244.8 
z
" style="fill:#5bc0de;"/>
   </g>
   <g id="patch_37">
    <path clip-path="url(#p667450e8bf)" d="M 255.111429 244.8 
L 261.437143 244.8 
L 261.437143 132.276094 
L 255.111429 132.276094 
z
" style="fill:#5bc0de;"/>
   </g>
   <g id="patch_38">
    <path clip-path="url(#p667450e8bf)" d="M 261.437143 244.8 
L 267.762857 244.8 
L 267.762857 244.8 
L 261.437143 244.8 
z
" style="fill:#5bc0de;"/>
   </g>
   <g id="patch_39">
    <path clip-path="url(#p667450e8bf)" d="M 267.762857 244.8 
L 274.088571 244.8 
L 274.088571 175.254941 
L 267.762857 175.254941 
z
" style="fill:#5bc0de;"/>
   </g>
   <g id="patch_40">
    <path clip-path="url(#p667450e8bf)" d="M 274.088571 244.8 
L 280.414286 244.8 
L 280.414286 244.8 
L 274.088571 244.8 
z
" style="fill:#5bc0de;"/>
   </g>
   <g id="patch_41">
    <path clip-path="url(#p667450e8bf)" d="M 280.414286 244.8 
L 286.74 244.8 
L 286.74 208.219299 
L 280.414286 208.219299 
z
" style="fill:#5bc0de;"/>
   </g>
   <g id="patch_42">
    <path clip-path="url(#p667450e8bf)" d="M 286.74 244.8 
L 293.065714 244.8 
L 293.065714 244.8 
L 286.74 244.8 
z
" style="fill:#5bc0de;"/>
   </g>
   <g id="patch_43">
    <path clip-path="url(#p667450e8bf)" d="M 293.065714 244.8 
L 299.391429 244.8 
L 299.391429 228.248276 
L 293.065714 228.248276 
z
" style="fill:#5bc0de;"/>
   </g>
   <g id="patch_44">
    <path clip-path="url(#p667450e8bf)" d="M 299.391429 244.8 
L 305.717143 244.8 
L 305.717143 244.8 
L 299.391429 244.8 
z
" style="fill:#5bc0de;"/>
   </g>
   <g id="patch_45">
    <path clip-path="url(#p667450e8bf)" d="M 305.717143 244.8 
L 312.042857 244.8 
L 312.042857 239.514575 
L 305.717143 239.514575 
z
" style="fill:#5bc0de;"/>
   </g>
   <g id="patch_46">
    <path clip-path="url(#p667450e8bf)" d="M 312.042857 244.8 
L 318.368571 244.8 
L 318.368571 244.8 
L 312.042857 244.8 
z
" style="fill:#5bc0de;"/>
   </g>
   <g id="patch_47">
    <path clip-path="url(#p667450e8bf)" d="M 318.368571 244.8 
L 324.694286 244.8 
L 324.694286 241.740017 
L 318.368571 241.740017 
z
" style="fill:#5bc0de;"/>
   </g>
   <g id="patch_48">
    <path clip-path="url(#p667450e8bf)" d="M 324.694286 244.8 
L 331.02 244.8 
L 331.02 244.8 
L 324.694286 244.8 
z
" style="fill:#5bc0de;"/>
   </g>
   <g id="patch_49">
    <path clip-path="url(#p667450e8bf)" d="M 331.02 244.8 
L 337.345714 244.8 
L 337.345714 244.52182 
L 331.02 244.52182 
z
" style="fill:#5bc0de;"/>
   </g>
   <g id="patch_50">
    <path clip-path="url(#p667450e8bf)" d="M 337.345714 244.8 
L 343.671429 244.8 
L 343.671429 244.8 
L 337.345714 244.8 
z
" style="fill:#5bc0de;"/>
   </g>
   <g id="patch_51">
    <path clip-path="url(#p667450e8bf)" d="M 343.671429 244.8 
L 349.997143 244.8 
L 349.997143 244.8 
L 343.671429 244.8 
z
" style="fill:#5bc0de;"/>
   </g>
   <g id="patch_52">
    <path clip-path="url(#p667450e8bf)" d="M 349.997143 244.8 
L 356.322857 244.8 
L 356.322857 244.8 
L 349.997143 244.8 
z
" style="fill:#5bc0de;"/>
   </g>
   <g id="patch_53">
    <path clip-path="url(#p667450e8bf)" d="M 356.322857 244.8 
L 362.648571 244.8 
L 362.648571 244.8 
L 356.322857 244.8 
z
" style="fill:#5bc0de;"/>
   </g>
   <g id="patch_54">
    <path clip-path="url(#p667450e8bf)" d="M 362.648571 244.8 
L 368.974286 244.8 
L 368.974286 244.8 
L 362.648571 244.8 
z
" style="fill:#5bc0de;"/>
   </g>
   <g id="patch_55">
    <path clip-path="url(#p667450e8bf)" d="M 368.974286 244.8 
L 375.3 244.8 
L 375.3 244.8 
L 368.974286 244.8 
z
" style="fill:#5bc0de;"/>
   </g>
   <g id="patch_56">
    <path clip-path="url(#p667450e8bf)" d="M 375.3 244.8 
L 381.625714 244.8 
L 381.625714 244.8 
L 375.3 244.8 
z
" style="fill:#5bc0de;"/>
   </g>
   <g id="patch_57">
    <path clip-path="url(#p667450e8bf)" d="M 381.625714 244.8 
L 387.951429 244.8 
L 387.951429 244.8 
L 381.625714 244.8 
z
" style="fill:#5bc0de;"/>
   </g>
   <g id="patch_58">
    <path clip-path="url(#p667450e8bf)" d="M 387.951429 244.8 
L 394.277143 244.8 
L 394.277143 244.8 
L 387.951429 244.8 
z
" style="fill:#5bc0de;"/>
   </g>
   <g id="patch_59">
    <path clip-path="url(#p667450e8bf)" d="M 394.277143 244.8 
L 400.602857 244.8 
L 400.602857 244.8 
L 394.277143 244.8 
z
" style="fill:#5bc0de;"/>
   </g>
   <g id="matplotlib.axis_1">
    <g id="xtick_1">
     <g id="line2d_1">
      <defs>
       <path d="M 0 0 
L 0 4 
" id="ma353cbca7d" style="stroke:#d2d2d2;"/>
      </defs>
      <g>
       <use style="fill:#d2d2d2;stroke:#d2d2d2;" x="43.2" xlink:href="#ma353cbca7d" y="244.8"/>
      </g>
     </g>
     <g id="text_1">
      <!-- 0.0 -->
      <defs>
       <path d="M 31.78125 66.40625 
Q 24.171875 66.40625 20.328125 58.90625 
Q 16.5 51.421875 16.5 36.375 
Q 16.5 21.390625 20.328125 13.890625 
Q 24.171875 6.390625 31.78125 6.390625 
Q 39.453125 6.390625 43.28125 13.890625 
Q 47.125 21.390625 47.125 36.375 
Q 47.125 51.421875 43.28125 58.90625 
Q 39.453125 66.40625 31.78125 66.40625 
M 31.78125 74.21875 
Q 44.046875 74.21875 50.515625 64.515625 
Q 56.984375 54.828125 56.984375 36.375 
Q 56.984375 17.96875 50.515625 8.265625 
Q 44.046875 -1.421875 31.78125 -1.421875 
Q 19.53125 -1.421875 13.0625 8.265625 
Q 6.59375 17.96875 6.59375 36.375 
Q 6.59375 54.828125 13.0625 64.515625 
Q 19.53125 74.21875 31.78125 74.21875 
" id="DejaVuSans-30"/>
       <path d="M 10.6875 12.40625 
L 21 12.40625 
L 21 0 
L 10.6875 0 
z
" id="DejaVuSans-2e"/>
      </defs>
      <g style="fill:#d2d2d2;" transform="translate(32.862969 262.677969)scale(0.13 -0.13)">
       <use xlink:href="#DejaVuSans-30"/>
       <use x="63.623047" xlink:href="#DejaVuSans-2e"/>
       <use x="95.410156" xlink:href="#DejaVuSans-30"/>
      </g>
     </g>
    </g>
    <g id="xtick_2">
     <g id="line2d_2">
      <g>
       <use style="fill:#d2d2d2;stroke:#d2d2d2;" x="78.624" xlink:href="#ma353cbca7d" y="244.8"/>
      </g>
     </g>
     <g id="text_2">
      <!-- 0.1 -->
      <defs>
       <path d="M 12.40625 8.296875 
L 28.515625 8.296875 
L 28.515625 63.921875 
L 10.984375 60.40625 
L 10.984375 69.390625 
L 28.421875 72.90625 
L 38.28125 72.90625 
L 38.28125 8.296875 
L 54.390625 8.296875 
L 54.390625 0 
L 12.40625 0 
z
" id="DejaVuSans-31"/>
      </defs>
      <g style="fill:#d2d2d2;" transform="translate(68.286969 262.677969)scale(0.13 -0.13)">
       <use xlink:href="#DejaVuSans-30"/>
       <use x="63.623047" xlink:href="#DejaVuSans-2e"/>
       <use x="95.410156" xlink:href="#DejaVuSans-31"/>
      </g>
     </g>
    </g>
    <g id="xtick_3">
     <g id="line2d_3">
      <g>
       <use style="fill:#d2d2d2;stroke:#d2d2d2;" x="114.048" xlink:href="#ma353cbca7d" y="244.8"/>
      </g>
     </g>
     <g id="text_3">
      <!-- 0.2 -->
      <defs>
       <path d="M 19.1875 8.296875 
L 53.609375 8.296875 
L 53.609375 0 
L 7.328125 0 
L 7.328125 8.296875 
Q 12.9375 14.109375 22.625 23.890625 
Q 32.328125 33.6875 34.8125 36.53125 
Q 39.546875 41.84375 41.421875 45.53125 
Q 43.3125 49.21875 43.3125 52.78125 
Q 43.3125 58.59375 39.234375 62.25 
Q 35.15625 65.921875 28.609375 65.921875 
Q 23.96875 65.921875 18.8125 64.3125 
Q 13.671875 62.703125 7.8125 59.421875 
L 7.8125 69.390625 
Q 13.765625 71.78125 18.9375 73 
Q 24.125 74.21875 28.421875 74.21875 
Q 39.75 74.21875 46.484375 68.546875 
Q 53.21875 62.890625 53.21875 53.421875 
Q 53.21875 48.921875 51.53125 44.890625 
Q 49.859375 40.875 45.40625 35.40625 
Q 44.1875 33.984375 37.640625 27.21875 
Q 31.109375 20.453125 19.1875 8.296875 
" id="DejaVuSans-32"/>
      </defs>
      <g style="fill:#d2d2d2;" transform="translate(103.710969 262.677969)scale(0.13 -0.13)">
       <use xlink:href="#DejaVuSans-30"/>
       <use x="63.623047" xlink:href="#DejaVuSans-2e"/>
       <use x="95.410156" xlink:href="#DejaVuSans-32"/>
      </g>
     </g>
    </g>
    <g id="xtick_4">
     <g id="line2d_4">
      <g>
       <use style="fill:#d2d2d2;stroke:#d2d2d2;" x="149.472" xlink:href="#ma353cbca7d" y="244.8"/>
      </g>
     </g>
     <g id="text_4">
      <!-- 0.3 -->
      <defs>
       <path d="M 40.578125 39.3125 
Q 47.65625 37.796875 51.625 33 
Q 55.609375 28.21875 55.609375 21.1875 
Q 55.609375 10.40625 48.1875 4.484375 
Q 40.765625 -1.421875 27.09375 -1.421875 
Q 22.515625 -1.421875 17.65625 -0.515625 
Q 12.796875 0.390625 7.625 2.203125 
L 7.625 11.71875 
Q 11.71875 9.328125 16.59375 8.109375 
Q 21.484375 6.890625 26.8125 6.890625 
Q 36.078125 6.890625 40.9375 10.546875 
Q 45.796875 14.203125 45.796875 21.1875 
Q 45.796875 27.640625 41.28125 31.265625 
Q 36.765625 34.90625 28.71875 34.90625 
L 20.21875 34.90625 
L 20.21875 43.015625 
L 29.109375 43.015625 
Q 36.375 43.015625 40.234375 45.921875 
Q 44.09375 48.828125 44.09375 54.296875 
Q 44.09375 59.90625 40.109375 62.90625 
Q 36.140625 65.921875 28.71875 65.921875 
Q 24.65625 65.921875 20.015625 65.03125 
Q 15.375 64.15625 9.8125 62.3125 
L 9.8125 71.09375 
Q 15.4375 72.65625 20.34375 73.4375 
Q 25.25 74.21875 29.59375 74.21875 
Q 40.828125 74.21875 47.359375 69.109375 
Q 53.90625 64.015625 53.90625 55.328125 
Q 53.90625 49.265625 50.4375 45.09375 
Q 46.96875 40.921875 40.578125 39.3125 
" id="DejaVuSans-33"/>
      </defs>
      <g style="fill:#d2d2d2;" transform="translate(139.134969 262.677969)scale(0.13 -0.13)">
       <use xlink:href="#DejaVuSans-30"/>
       <use x="63.623047" xlink:href="#DejaVuSans-2e"/>
       <use x="95.410156" xlink:href="#DejaVuSans-33"/>
      </g>
     </g>
    </g>
    <g id="xtick_5">
     <g id="line2d_5">
      <g>
       <use style="fill:#d2d2d2;stroke:#d2d2d2;" x="184.896" xlink:href="#ma353cbca7d" y="244.8"/>
      </g>
     </g>
     <g id="text_5">
      <!-- 0.4 -->
      <defs>
       <path d="M 37.796875 64.3125 
L 12.890625 25.390625 
L 37.796875 25.390625 
z
M 35.203125 72.90625 
L 47.609375 72.90625 
L 47.609375 25.390625 
L 58.015625 25.390625 
L 58.015625 17.1875 
L 47.609375 17.1875 
L 47.609375 0 
L 37.796875 0 
L 37.796875 17.1875 
L 4.890625 17.1875 
L 4.890625 26.703125 
z
" id="DejaVuSans-34"/>
      </defs>
      <g style="fill:#d2d2d2;" transform="translate(174.558969 262.677969)scale(0.13 -0.13)">
       <use xlink:href="#DejaVuSans-30"/>
       <use x="63.623047" xlink:href="#DejaVuSans-2e"/>
       <use x="95.410156" xlink:href="#DejaVuSans-34"/>
      </g>
     </g>
    </g>
    <g id="xtick_6">
     <g id="line2d_6">
      <g>
       <use style="fill:#d2d2d2;stroke:#d2d2d2;" x="220.32" xlink:href="#ma353cbca7d" y="244.8"/>
      </g>
     </g>
     <g id="text_6">
      <!-- 0.5 -->
      <defs>
       <path d="M 10.796875 72.90625 
L 49.515625 72.90625 
L 49.515625 64.59375 
L 19.828125 64.59375 
L 19.828125 46.734375 
Q 21.96875 47.46875 24.109375 47.828125 
Q 26.265625 48.1875 28.421875 48.1875 
Q 40.625 48.1875 47.75 41.5 
Q 54.890625 34.8125 54.890625 23.390625 
Q 54.890625 11.625 47.5625 5.09375 
Q 40.234375 -1.421875 26.90625 -1.421875 
Q 22.3125 -1.421875 17.546875 -0.640625 
Q 12.796875 0.140625 7.71875 1.703125 
L 7.71875 11.625 
Q 12.109375 9.234375 16.796875 8.0625 
Q 21.484375 6.890625 26.703125 6.890625 
Q 35.15625 6.890625 40.078125 11.328125 
Q 45.015625 15.765625 45.015625 23.390625 
Q 45.015625 31 40.078125 35.4375 
Q 35.15625 39.890625 26.703125 39.890625 
Q 22.75 39.890625 18.8125 39.015625 
Q 14.890625 38.140625 10.796875 36.28125 
z
" id="DejaVuSans-35"/>
      </defs>
      <g style="fill:#d2d2d2;" transform="translate(209.982969 262.677969)scale(0.13 -0.13)">
       <use xlink:href="#DejaVuSans-30"/>
       <use x="63.623047" xlink:href="#DejaVuSans-2e"/>
       <use x="95.410156" xlink:href="#DejaVuSans-35"/>
      </g>
     </g>
    </g>
    <g id="xtick_7">
     <g id="line2d_7">
      <g>
       <use style="fill:#d2d2d2;stroke:#d2d2d2;" x="255.744" xlink:href="#ma353cbca7d" y="244.8"/>
      </g>
     </g>
     <g id="text_7">
      <!-- 0.6 -->
      <defs>
       <path d="M 33.015625 40.375 
Q 26.375 40.375 22.484375 35.828125 
Q 18.609375 31.296875 18.609375 23.390625 
Q 18.609375 15.53125 22.484375 10.953125 
Q 26.375 6.390625 33.015625 6.390625 
Q 39.65625 6.390625 43.53125 10.953125 
Q 47.40625 15.53125 47.40625 23.390625 
Q 47.40625 31.296875 43.53125 35.828125 
Q 39.65625 40.375 33.015625 40.375 
M 52.59375 71.296875 
L 52.59375 62.3125 
Q 48.875 64.0625 45.09375 64.984375 
Q 41.3125 65.921875 37.59375 65.921875 
Q 27.828125 65.921875 22.671875 59.328125 
Q 17.53125 52.734375 16.796875 39.40625 
Q 19.671875 43.65625 24.015625 45.921875 
Q 28.375 48.1875 33.59375 48.1875 
Q 44.578125 48.1875 50.953125 41.515625 
Q 57.328125 34.859375 57.328125 23.390625 
Q 57.328125 12.15625 50.6875 5.359375 
Q 44.046875 -1.421875 33.015625 -1.421875 
Q 20.359375 -1.421875 13.671875 8.265625 
Q 6.984375 17.96875 6.984375 36.375 
Q 6.984375 53.65625 15.1875 63.9375 
Q 23.390625 74.21875 37.203125 74.21875 
Q 40.921875 74.21875 44.703125 73.484375 
Q 48.484375 72.75 52.59375 71.296875 
" id="DejaVuSans-36"/>
      </defs>
      <g style="fill:#d2d2d2;" transform="translate(245.406969 262.677969)scale(0.13 -0.13)">
       <use xlink:href="#DejaVuSans-30"/>
       <use x="63.623047" xlink:href="#DejaVuSans-2e"/>
       <use x="95.410156" xlink:href="#DejaVuSans-36"/>
      </g>
     </g>
    </g>
    <g id="xtick_8">
     <g id="line2d_8">
      <g>
       <use style="fill:#d2d2d2;stroke:#d2d2d2;" x="291.168" xlink:href="#ma353cbca7d" y="244.8"/>
      </g>
     </g>
     <g id="text_8">
      <!-- 0.7 -->
      <defs>
       <path d="M 8.203125 72.90625 
L 55.078125 72.90625 
L 55.078125 68.703125 
L 28.609375 0 
L 18.3125 0 
L 43.21875 64.59375 
L 8.203125 64.59375 
z
" id="DejaVuSans-37"/>
      </defs>
      <g style="fill:#d2d2d2;" transform="translate(280.830969 262.677969)scale(0.13 -0.13)">
       <use xlink:href="#DejaVuSans-30"/>
       <use x="63.623047" xlink:href="#DejaVuSans-2e"/>
       <use x="95.410156" xlink:href="#DejaVuSans-37"/>
      </g>
     </g>
    </g>
    <g id="xtick_9">
     <g id="line2d_9">
      <g>
       <use style="fill:#d2d2d2;stroke:#d2d2d2;" x="326.592" xlink:href="#ma353cbca7d" y="244.8"/>
      </g>
     </g>
     <g id="text_9">
      <!-- 0.8 -->
      <defs>
       <path d="M 31.78125 34.625 
Q 24.75 34.625 20.71875 30.859375 
Q 16.703125 27.09375 16.703125 20.515625 
Q 16.703125 13.921875 20.71875 10.15625 
Q 24.75 6.390625 31.78125 6.390625 
Q 38.8125 6.390625 42.859375 10.171875 
Q 46.921875 13.96875 46.921875 20.515625 
Q 46.921875 27.09375 42.890625 30.859375 
Q 38.875 34.625 31.78125 34.625 
M 21.921875 38.8125 
Q 15.578125 40.375 12.03125 44.71875 
Q 8.5 49.078125 8.5 55.328125 
Q 8.5 64.0625 14.71875 69.140625 
Q 20.953125 74.21875 31.78125 74.21875 
Q 42.671875 74.21875 48.875 69.140625 
Q 55.078125 64.0625 55.078125 55.328125 
Q 55.078125 49.078125 51.53125 44.71875 
Q 48 40.375 41.703125 38.8125 
Q 48.828125 37.15625 52.796875 32.3125 
Q 56.78125 27.484375 56.78125 20.515625 
Q 56.78125 9.90625 50.3125 4.234375 
Q 43.84375 -1.421875 31.78125 -1.421875 
Q 19.734375 -1.421875 13.25 4.234375 
Q 6.78125 9.90625 6.78125 20.515625 
Q 6.78125 27.484375 10.78125 32.3125 
Q 14.796875 37.15625 21.921875 38.8125 
M 18.3125 54.390625 
Q 18.3125 48.734375 21.84375 45.5625 
Q 25.390625 42.390625 31.78125 42.390625 
Q 38.140625 42.390625 41.71875 45.5625 
Q 45.3125 48.734375 45.3125 54.390625 
Q 45.3125 60.0625 41.71875 63.234375 
Q 38.140625 66.40625 31.78125 66.40625 
Q 25.390625 66.40625 21.84375 63.234375 
Q 18.3125 60.0625 18.3125 54.390625 
" id="DejaVuSans-38"/>
      </defs>
      <g style="fill:#d2d2d2;" transform="translate(316.254969 262.677969)scale(0.13 -0.13)">
       <use xlink:href="#DejaVuSans-30"/>
       <use x="63.623047" xlink:href="#DejaVuSans-2e"/>
       <use x="95.410156" xlink:href="#DejaVuSans-38"/>
      </g>
     </g>
    </g>
    <g id="xtick_10">
     <g id="line2d_10">
      <g>
       <use style="fill:#d2d2d2;stroke:#d2d2d2;" x="362.016" xlink:href="#ma353cbca7d" y="244.8"/>
      </g>
     </g>
     <g id="text_10">
      <!-- 0.9 -->
      <defs>
       <path d="M 10.984375 1.515625 
L 10.984375 10.5 
Q 14.703125 8.734375 18.5 7.8125 
Q 22.3125 6.890625 25.984375 6.890625 
Q 35.75 6.890625 40.890625 13.453125 
Q 46.046875 20.015625 46.78125 33.40625 
Q 43.953125 29.203125 39.59375 26.953125 
Q 35.25 24.703125 29.984375 24.703125 
Q 19.046875 24.703125 12.671875 31.3125 
Q 6.296875 37.9375 6.296875 49.421875 
Q 6.296875 60.640625 12.9375 67.421875 
Q 19.578125 74.21875 30.609375 74.21875 
Q 43.265625 74.21875 49.921875 64.515625 
Q 56.59375 54.828125 56.59375 36.375 
Q 56.59375 19.140625 48.40625 8.859375 
Q 40.234375 -1.421875 26.421875 -1.421875 
Q 22.703125 -1.421875 18.890625 -0.6875 
Q 15.09375 0.046875 10.984375 1.515625 
M 30.609375 32.421875 
Q 37.25 32.421875 41.125 36.953125 
Q 45.015625 41.5 45.015625 49.421875 
Q 45.015625 57.28125 41.125 61.84375 
Q 37.25 66.40625 30.609375 66.40625 
Q 23.96875 66.40625 20.09375 61.84375 
Q 16.21875 57.28125 16.21875 49.421875 
Q 16.21875 41.5 20.09375 36.953125 
Q 23.96875 32.421875 30.609375 32.421875 
" id="DejaVuSans-39"/>
      </defs>
      <g style="fill:#d2d2d2;" transform="translate(351.678969 262.677969)scale(0.13 -0.13)">
       <use xlink:href="#DejaVuSans-30"/>
       <use x="63.623047" xlink:href="#DejaVuSans-2e"/>
       <use x="95.410156" xlink:href="#DejaVuSans-39"/>
      </g>
     </g>
    </g>
    <g id="xtick_11">
     <g id="line2d_11">
      <g>
       <use style="fill:#d2d2d2;stroke:#d2d2d2;" x="397.44" xlink:href="#ma353cbca7d" y="244.8"/>
      </g>
     </g>
     <g id="text_11">
      <!-- 1.0 -->
      <g style="fill:#d2d2d2;" transform="translate(387.102969 262.677969)scale(0.13 -0.13)">
       <use xlink:href="#DejaVuSans-31"/>
       <use x="63.623047" xlink:href="#DejaVuSans-2e"/>
       <use x="95.410156" xlink:href="#DejaVuSans-30"/>
      </g>
     </g>
    </g>
    <g id="text_12">
     <!-- Proportion of heads for 28 flips -->
     <defs>
      <path d="M 19.671875 64.796875 
L 19.671875 37.40625 
L 32.078125 37.40625 
Q 38.96875 37.40625 42.71875 40.96875 
Q 46.484375 44.53125 46.484375 51.125 
Q 46.484375 57.671875 42.71875 61.234375 
Q 38.96875 64.796875 32.078125 64.796875 
z
M 9.8125 72.90625 
L 32.078125 72.90625 
Q 44.34375 72.90625 50.609375 67.359375 
Q 56.890625 61.8125 56.890625 51.125 
Q 56.890625 40.328125 50.609375 34.8125 
Q 44.34375 29.296875 32.078125 29.296875 
L 19.671875 29.296875 
L 19.671875 0 
L 9.8125 0 
z
" id="DejaVuSans-50"/>
      <path d="M 41.109375 46.296875 
Q 39.59375 47.171875 37.8125 47.578125 
Q 36.03125 48 33.890625 48 
Q 26.265625 48 22.1875 43.046875 
Q 18.109375 38.09375 18.109375 28.8125 
L 18.109375 0 
L 9.078125 0 
L 9.078125 54.6875 
L 18.109375 54.6875 
L 18.109375 46.1875 
Q 20.953125 51.171875 25.484375 53.578125 
Q 30.03125 56 36.53125 56 
Q 37.453125 56 38.578125 55.875 
Q 39.703125 55.765625 41.0625 55.515625 
z
" id="DejaVuSans-72"/>
      <path d="M 30.609375 48.390625 
Q 23.390625 48.390625 19.1875 42.75 
Q 14.984375 37.109375 14.984375 27.296875 
Q 14.984375 17.484375 19.15625 11.84375 
Q 23.34375 6.203125 30.609375 6.203125 
Q 37.796875 6.203125 41.984375 11.859375 
Q 46.1875 17.53125 46.1875 27.296875 
Q 46.1875 37.015625 41.984375 42.703125 
Q 37.796875 48.390625 30.609375 48.390625 
M 30.609375 56 
Q 42.328125 56 49.015625 48.375 
Q 55.71875 40.765625 55.71875 27.296875 
Q 55.71875 13.875 49.015625 6.21875 
Q 42.328125 -1.421875 30.609375 -1.421875 
Q 18.84375 -1.421875 12.171875 6.21875 
Q 5.515625 13.875 5.515625 27.296875 
Q 5.515625 40.765625 12.171875 48.375 
Q 18.84375 56 30.609375 56 
" id="DejaVuSans-6f"/>
      <path d="M 18.109375 8.203125 
L 18.109375 -20.796875 
L 9.078125 -20.796875 
L 9.078125 54.6875 
L 18.109375 54.6875 
L 18.109375 46.390625 
Q 20.953125 51.265625 25.265625 53.625 
Q 29.59375 56 35.59375 56 
Q 45.5625 56 51.78125 48.09375 
Q 58.015625 40.1875 58.015625 27.296875 
Q 58.015625 14.40625 51.78125 6.484375 
Q 45.5625 -1.421875 35.59375 -1.421875 
Q 29.59375 -1.421875 25.265625 0.953125 
Q 20.953125 3.328125 18.109375 8.203125 
M 48.6875 27.296875 
Q 48.6875 37.203125 44.609375 42.84375 
Q 40.53125 48.484375 33.40625 48.484375 
Q 26.265625 48.484375 22.1875 42.84375 
Q 18.109375 37.203125 18.109375 27.296875 
Q 18.109375 17.390625 22.1875 11.75 
Q 26.265625 6.109375 33.40625 6.109375 
Q 40.53125 6.109375 44.609375 11.75 
Q 48.6875 17.390625 48.6875 27.296875 
" id="DejaVuSans-70"/>
      <path d="M 18.3125 70.21875 
L 18.3125 54.6875 
L 36.8125 54.6875 
L 36.8125 47.703125 
L 18.3125 47.703125 
L 18.3125 18.015625 
Q 18.3125 11.328125 20.140625 9.421875 
Q 21.96875 7.515625 27.59375 7.515625 
L 36.8125 7.515625 
L 36.8125 0 
L 27.59375 0 
Q 17.1875 0 13.234375 3.875 
Q 9.28125 7.765625 9.28125 18.015625 
L 9.28125 47.703125 
L 2.6875 47.703125 
L 2.6875 54.6875 
L 9.28125 54.6875 
L 9.28125 70.21875 
z
" id="DejaVuSans-74"/>
      <path d="M 9.421875 54.6875 
L 18.40625 54.6875 
L 18.40625 0 
L 9.421875 0 
z
M 9.421875 75.984375 
L 18.40625 75.984375 
L 18.40625 64.59375 
L 9.421875 64.59375 
z
" id="DejaVuSans-69"/>
      <path d="M 54.890625 33.015625 
L 54.890625 0 
L 45.90625 0 
L 45.90625 32.71875 
Q 45.90625 40.484375 42.875 44.328125 
Q 39.84375 48.1875 33.796875 48.1875 
Q 26.515625 48.1875 22.3125 43.546875 
Q 18.109375 38.921875 18.109375 30.90625 
L 18.109375 0 
L 9.078125 0 
L 9.078125 54.6875 
L 18.109375 54.6875 
L 18.109375 46.1875 
Q 21.34375 51.125 25.703125 53.5625 
Q 30.078125 56 35.796875 56 
Q 45.21875 56 50.046875 50.171875 
Q 54.890625 44.34375 54.890625 33.015625 
" id="DejaVuSans-6e"/>
      <path id="DejaVuSans-20"/>
      <path d="M 37.109375 75.984375 
L 37.109375 68.5 
L 28.515625 68.5 
Q 23.6875 68.5 21.796875 66.546875 
Q 19.921875 64.59375 19.921875 59.515625 
L 19.921875 54.6875 
L 34.71875 54.6875 
L 34.71875 47.703125 
L 19.921875 47.703125 
L 19.921875 0 
L 10.890625 0 
L 10.890625 47.703125 
L 2.296875 47.703125 
L 2.296875 54.6875 
L 10.890625 54.6875 
L 10.890625 58.5 
Q 10.890625 67.625 15.140625 71.796875 
Q 19.390625 75.984375 28.609375 75.984375 
z
" id="DejaVuSans-66"/>
      <path d="M 54.890625 33.015625 
L 54.890625 0 
L 45.90625 0 
L 45.90625 32.71875 
Q 45.90625 40.484375 42.875 44.328125 
Q 39.84375 48.1875 33.796875 48.1875 
Q 26.515625 48.1875 22.3125 43.546875 
Q 18.109375 38.921875 18.109375 30.90625 
L 18.109375 0 
L 9.078125 0 
L 9.078125 75.984375 
L 18.109375 75.984375 
L 18.109375 46.1875 
Q 21.34375 51.125 25.703125 53.5625 
Q 30.078125 56 35.796875 56 
Q 45.21875 56 50.046875 50.171875 
Q 54.890625 44.34375 54.890625 33.015625 
" id="DejaVuSans-68"/>
      <path d="M 56.203125 29.59375 
L 56.203125 25.203125 
L 14.890625 25.203125 
Q 15.484375 15.921875 20.484375 11.0625 
Q 25.484375 6.203125 34.421875 6.203125 
Q 39.59375 6.203125 44.453125 7.46875 
Q 49.3125 8.734375 54.109375 11.28125 
L 54.109375 2.78125 
Q 49.265625 0.734375 44.1875 -0.34375 
Q 39.109375 -1.421875 33.890625 -1.421875 
Q 20.796875 -1.421875 13.15625 6.1875 
Q 5.515625 13.8125 5.515625 26.8125 
Q 5.515625 40.234375 12.765625 48.109375 
Q 20.015625 56 32.328125 56 
Q 43.359375 56 49.78125 48.890625 
Q 56.203125 41.796875 56.203125 29.59375 
M 47.21875 32.234375 
Q 47.125 39.59375 43.09375 43.984375 
Q 39.0625 48.390625 32.421875 48.390625 
Q 24.90625 48.390625 20.390625 44.140625 
Q 15.875 39.890625 15.1875 32.171875 
z
" id="DejaVuSans-65"/>
      <path d="M 34.28125 27.484375 
Q 23.390625 27.484375 19.1875 25 
Q 14.984375 22.515625 14.984375 16.5 
Q 14.984375 11.71875 18.140625 8.90625 
Q 21.296875 6.109375 26.703125 6.109375 
Q 34.1875 6.109375 38.703125 11.40625 
Q 43.21875 16.703125 43.21875 25.484375 
L 43.21875 27.484375 
z
M 52.203125 31.203125 
L 52.203125 0 
L 43.21875 0 
L 43.21875 8.296875 
Q 40.140625 3.328125 35.546875 0.953125 
Q 30.953125 -1.421875 24.3125 -1.421875 
Q 15.921875 -1.421875 10.953125 3.296875 
Q 6 8.015625 6 15.921875 
Q 6 25.140625 12.171875 29.828125 
Q 18.359375 34.515625 30.609375 34.515625 
L 43.21875 34.515625 
L 43.21875 35.40625 
Q 43.21875 41.609375 39.140625 45 
Q 35.0625 48.390625 27.6875 48.390625 
Q 23 48.390625 18.546875 47.265625 
Q 14.109375 46.140625 10.015625 43.890625 
L 10.015625 52.203125 
Q 14.9375 54.109375 19.578125 55.046875 
Q 24.21875 56 28.609375 56 
Q 40.484375 56 46.34375 49.84375 
Q 52.203125 43.703125 52.203125 31.203125 
" id="DejaVuSans-61"/>
      <path d="M 45.40625 46.390625 
L 45.40625 75.984375 
L 54.390625 75.984375 
L 54.390625 0 
L 45.40625 0 
L 45.40625 8.203125 
Q 42.578125 3.328125 38.25 0.953125 
Q 33.9375 -1.421875 27.875 -1.421875 
Q 17.96875 -1.421875 11.734375 6.484375 
Q 5.515625 14.40625 5.515625 27.296875 
Q 5.515625 40.1875 11.734375 48.09375 
Q 17.96875 56 27.875 56 
Q 33.9375 56 38.25 53.625 
Q 42.578125 51.265625 45.40625 46.390625 
M 14.796875 27.296875 
Q 14.796875 17.390625 18.875 11.75 
Q 22.953125 6.109375 30.078125 6.109375 
Q 37.203125 6.109375 41.296875 11.75 
Q 45.40625 17.390625 45.40625 27.296875 
Q 45.40625 37.203125 41.296875 42.84375 
Q 37.203125 48.484375 30.078125 48.484375 
Q 22.953125 48.484375 18.875 42.84375 
Q 14.796875 37.203125 14.796875 27.296875 
" id="DejaVuSans-64"/>
      <path d="M 44.28125 53.078125 
L 44.28125 44.578125 
Q 40.484375 46.53125 36.375 47.5 
Q 32.28125 48.484375 27.875 48.484375 
Q 21.1875 48.484375 17.84375 46.4375 
Q 14.5 44.390625 14.5 40.28125 
Q 14.5 37.15625 16.890625 35.375 
Q 19.28125 33.59375 26.515625 31.984375 
L 29.59375 31.296875 
Q 39.15625 29.25 43.1875 25.515625 
Q 47.21875 21.78125 47.21875 15.09375 
Q 47.21875 7.46875 41.1875 3.015625 
Q 35.15625 -1.421875 24.609375 -1.421875 
Q 20.21875 -1.421875 15.453125 -0.5625 
Q 10.6875 0.296875 5.421875 2 
L 5.421875 11.28125 
Q 10.40625 8.6875 15.234375 7.390625 
Q 20.0625 6.109375 24.8125 6.109375 
Q 31.15625 6.109375 34.5625 8.28125 
Q 37.984375 10.453125 37.984375 14.40625 
Q 37.984375 18.0625 35.515625 20.015625 
Q 33.0625 21.96875 24.703125 23.78125 
L 21.578125 24.515625 
Q 13.234375 26.265625 9.515625 29.90625 
Q 5.8125 33.546875 5.8125 39.890625 
Q 5.8125 47.609375 11.28125 51.796875 
Q 16.75 56 26.8125 56 
Q 31.78125 56 36.171875 55.265625 
Q 40.578125 54.546875 44.28125 53.078125 
" id="DejaVuSans-73"/>
      <path d="M 9.421875 75.984375 
L 18.40625 75.984375 
L 18.40625 0 
L 9.421875 0 
z
" id="DejaVuSans-6c"/>
     </defs>
     <g style="fill:#d2d2d2;" transform="translate(96.4775 281.539062)scale(0.16 -0.16)">
      <use xlink:href="#DejaVuSans-50"/>
      <use x="60.287109" xlink:href="#DejaVuSans-72"/>
      <use x="101.369141" xlink:href="#DejaVuSans-6f"/>
      <use x="162.550781" xlink:href="#DejaVuSans-70"/>
      <use x="226.027344" xlink:href="#DejaVuSans-6f"/>
      <use x="287.208984" xlink:href="#DejaVuSans-72"/>
      <use x="328.322266" xlink:href="#DejaVuSans-74"/>
      <use x="367.53125" xlink:href="#DejaVuSans-69"/>
      <use x="395.314453" xlink:href="#DejaVuSans-6f"/>
      <use x="456.496094" xlink:href="#DejaVuSans-6e"/>
      <use x="519.875" xlink:href="#DejaVuSans-20"/>
      <use x="551.662109" xlink:href="#DejaVuSans-6f"/>
      <use x="612.84375" xlink:href="#DejaVuSans-66"/>
      <use x="648.048828" xlink:href="#DejaVuSans-20"/>
      <use x="679.835938" xlink:href="#DejaVuSans-68"/>
      <use x="743.214844" xlink:href="#DejaVuSans-65"/>
      <use x="804.738281" xlink:href="#DejaVuSans-61"/>
      <use x="866.017578" xlink:href="#DejaVuSans-64"/>
      <use x="929.494141" xlink:href="#DejaVuSans-73"/>
      <use x="981.59375" xlink:href="#DejaVuSans-20"/>
      <use x="1013.380859" xlink:href="#DejaVuSans-66"/>
      <use x="1048.585938" xlink:href="#DejaVuSans-6f"/>
      <use x="1109.767578" xlink:href="#DejaVuSans-72"/>
      <use x="1150.880859" xlink:href="#DejaVuSans-20"/>
      <use x="1182.667969" xlink:href="#DejaVuSans-32"/>
      <use x="1246.291016" xlink:href="#DejaVuSans-38"/>
      <use x="1309.914062" xlink:href="#DejaVuSans-20"/>
      <use x="1341.701172" xlink:href="#DejaVuSans-66"/>
      <use x="1376.90625" xlink:href="#DejaVuSans-6c"/>
      <use x="1404.689453" xlink:href="#DejaVuSans-69"/>
      <use x="1432.472656" xlink:href="#DejaVuSans-70"/>
      <use x="1495.949219" xlink:href="#DejaVuSans-73"/>
     </g>
    </g>
   </g>
   <g id="matplotlib.axis_2"/>
   <g id="line2d_12">
    <path clip-path="url(#p667450e8bf)" d="M 245.622857 244.8 
L 245.622857 30.96 
" style="fill:none;stroke:#d2d2d2;stroke-dasharray:5.6,2.4;stroke-dashoffset:0;stroke-width:1.5;"/>
   </g>
   <g id="patch_60">
    <path d="M 43.2 244.8 
L 397.44 244.8 
" style="fill:none;stroke:#d2d2d2;stroke-linecap:square;stroke-linejoin:miter;"/>
   </g>
   <g id="text_13">
    <!-- Buzz' successes -->
    <defs>
     <path d="M 19.671875 34.8125 
L 19.671875 8.109375 
L 35.5 8.109375 
Q 43.453125 8.109375 47.28125 11.40625 
Q 51.125 14.703125 51.125 21.484375 
Q 51.125 28.328125 47.28125 31.5625 
Q 43.453125 34.8125 35.5 34.8125 
z
M 19.671875 64.796875 
L 19.671875 42.828125 
L 34.28125 42.828125 
Q 41.5 42.828125 45.03125 45.53125 
Q 48.578125 48.25 48.578125 53.8125 
Q 48.578125 59.328125 45.03125 62.0625 
Q 41.5 64.796875 34.28125 64.796875 
z
M 9.8125 72.90625 
L 35.015625 72.90625 
Q 46.296875 72.90625 52.390625 68.21875 
Q 58.5 63.53125 58.5 54.890625 
Q 58.5 48.1875 55.375 44.234375 
Q 52.25 40.28125 46.1875 39.3125 
Q 53.46875 37.75 57.5 32.78125 
Q 61.53125 27.828125 61.53125 20.40625 
Q 61.53125 10.640625 54.890625 5.3125 
Q 48.25 0 35.984375 0 
L 9.8125 0 
z
" id="DejaVuSans-42"/>
     <path d="M 8.5 21.578125 
L 8.5 54.6875 
L 17.484375 54.6875 
L 17.484375 21.921875 
Q 17.484375 14.15625 20.5 10.265625 
Q 23.53125 6.390625 29.59375 6.390625 
Q 36.859375 6.390625 41.078125 11.03125 
Q 45.3125 15.671875 45.3125 23.6875 
L 45.3125 54.6875 
L 54.296875 54.6875 
L 54.296875 0 
L 45.3125 0 
L 45.3125 8.40625 
Q 42.046875 3.421875 37.71875 1 
Q 33.40625 -1.421875 27.6875 -1.421875 
Q 18.265625 -1.421875 13.375 4.4375 
Q 8.5 10.296875 8.5 21.578125 
M 31.109375 56 
z
" id="DejaVuSans-75"/>
     <path d="M 5.515625 54.6875 
L 48.1875 54.6875 
L 48.1875 46.484375 
L 14.40625 7.171875 
L 48.1875 7.171875 
L 48.1875 0 
L 4.296875 0 
L 4.296875 8.203125 
L 38.09375 47.515625 
L 5.515625 47.515625 
z
" id="DejaVuSans-7a"/>
     <path d="M 17.921875 72.90625 
L 17.921875 45.796875 
L 9.625 45.796875 
L 9.625 72.90625 
z
" id="DejaVuSans-27"/>
     <path d="M 48.78125 52.59375 
L 48.78125 44.1875 
Q 44.96875 46.296875 41.140625 47.34375 
Q 37.3125 48.390625 33.40625 48.390625 
Q 24.65625 48.390625 19.8125 42.84375 
Q 14.984375 37.3125 14.984375 27.296875 
Q 14.984375 17.28125 19.8125 11.734375 
Q 24.65625 6.203125 33.40625 6.203125 
Q 37.3125 6.203125 41.140625 7.25 
Q 44.96875 8.296875 48.78125 10.40625 
L 48.78125 2.09375 
Q 45.015625 0.34375 40.984375 -0.53125 
Q 36.96875 -1.421875 32.421875 -1.421875 
Q 20.0625 -1.421875 12.78125 6.34375 
Q 5.515625 14.109375 5.515625 27.296875 
Q 5.515625 40.671875 12.859375 48.328125 
Q 20.21875 56 33.015625 56 
Q 37.15625 56 41.109375 55.140625 
Q 45.0625 54.296875 48.78125 52.59375 
" id="DejaVuSans-63"/>
    </defs>
    <g style="fill:#d2d2d2;" transform="translate(189.552857 10.552876)scale(0.14 -0.14)">
     <use xlink:href="#DejaVuSans-42"/>
     <use x="68.603516" xlink:href="#DejaVuSans-75"/>
     <use x="131.982422" xlink:href="#DejaVuSans-7a"/>
     <use x="184.472656" xlink:href="#DejaVuSans-7a"/>
     <use x="236.962891" xlink:href="#DejaVuSans-27"/>
     <use x="264.453125" xlink:href="#DejaVuSans-20"/>
     <use x="296.240234" xlink:href="#DejaVuSans-73"/>
     <use x="348.339844" xlink:href="#DejaVuSans-75"/>
     <use x="411.71875" xlink:href="#DejaVuSans-63"/>
     <use x="466.699219" xlink:href="#DejaVuSans-63"/>
     <use x="521.679688" xlink:href="#DejaVuSans-65"/>
     <use x="583.203125" xlink:href="#DejaVuSans-73"/>
     <use x="635.302734" xlink:href="#DejaVuSans-73"/>
     <use x="687.402344" xlink:href="#DejaVuSans-65"/>
     <use x="748.925781" xlink:href="#DejaVuSans-73"/>
    </g>
    <!-- ($\pi+z*\sigma$) -->
    <defs>
     <path d="M 31 75.875 
Q 24.46875 64.65625 21.28125 53.65625 
Q 18.109375 42.671875 18.109375 31.390625 
Q 18.109375 20.125 21.3125 9.0625 
Q 24.515625 -2 31 -13.1875 
L 23.1875 -13.1875 
Q 15.875 -1.703125 12.234375 9.375 
Q 8.59375 20.453125 8.59375 31.390625 
Q 8.59375 42.28125 12.203125 53.3125 
Q 15.828125 64.359375 23.1875 75.875 
z
" id="DejaVuSans-28"/>
     <path d="M 9.125 54.6875 
L 61.53125 54.6875 
L 59.765625 45.703125 
L 52.875 45.703125 
L 46.34375 12.109375 
Q 45.65625 8.59375 46.578125 7.03125 
Q 47.46875 5.515625 50.140625 5.515625 
Q 50.875 5.515625 51.953125 5.671875 
Q 53.078125 5.765625 53.421875 5.8125 
L 52.15625 -0.6875 
Q 50.34375 -1.3125 48.484375 -1.609375 
Q 46.578125 -1.90625 44.78125 -1.90625 
Q 38.921875 -1.90625 37.3125 1.265625 
Q 35.6875 4.5 37.359375 13.09375 
L 43.703125 45.703125 
L 23.53125 45.703125 
L 14.65625 0 
L 5.46875 0 
L 14.359375 45.703125 
L 7.375 45.703125 
z
" id="DejaVuSans-Oblique-3c0"/>
     <path d="M 46 62.703125 
L 46 35.5 
L 73.1875 35.5 
L 73.1875 27.203125 
L 46 27.203125 
L 46 0 
L 37.796875 0 
L 37.796875 27.203125 
L 10.59375 27.203125 
L 10.59375 35.5 
L 37.796875 35.5 
L 37.796875 62.703125 
z
" id="DejaVuSans-2b"/>
     <path d="M 11.625 54.6875 
L 54.296875 54.6875 
L 52.6875 46.484375 
L 11.53125 7.171875 
L 45.515625 7.171875 
L 44.09375 0 
L -0.296875 0 
L 1.3125 8.203125 
L 42.484375 47.515625 
L 10.203125 47.515625 
z
" id="DejaVuSans-Oblique-7a"/>
     <path d="M 47.015625 60.890625 
L 29.5 51.421875 
L 47.015625 41.890625 
L 44.1875 37.109375 
L 27.78125 47.015625 
L 27.78125 28.609375 
L 22.21875 28.609375 
L 22.21875 47.015625 
L 5.8125 37.109375 
L 2.984375 41.890625 
L 20.515625 51.421875 
L 2.984375 60.890625 
L 5.8125 65.71875 
L 22.21875 55.8125 
L 22.21875 74.21875 
L 27.78125 74.21875 
L 27.78125 55.8125 
L 44.1875 65.71875 
z
" id="DejaVuSans-2a"/>
     <path d="M 34.671875 47.5625 
Q 27.25 47.5625 22.21875 42.1875 
Q 16.890625 36.578125 15.140625 27.296875 
Q 13.1875 17.484375 16.3125 11.8125 
Q 19.390625 6.203125 26.65625 6.203125 
Q 33.84375 6.203125 39.109375 11.859375 
Q 44.4375 17.53125 46.34375 27.296875 
Q 48.046875 36.234375 45.015625 42.1875 
Q 42.1875 47.5625 34.671875 47.5625 
M 36.078125 54.734375 
L 65.921875 54.6875 
L 64.15625 45.703125 
L 54.109375 45.703125 
Q 57.90625 38.09375 55.859375 27.296875 
Q 53.21875 13.875 45.0625 6.25 
Q 36.859375 -1.421875 25.140625 -1.421875 
Q 13.375 -1.421875 8.203125 6.25 
Q 3.03125 13.875 5.671875 27.296875 
Q 8.25 40.765625 16.40625 48.390625 
Q 23.1875 54.734375 36.078125 54.734375 
" id="DejaVuSans-Oblique-3c3"/>
     <path d="M 8.015625 75.875 
L 15.828125 75.875 
Q 23.140625 64.359375 26.78125 53.3125 
Q 30.421875 42.28125 30.421875 31.390625 
Q 30.421875 20.453125 26.78125 9.375 
Q 23.140625 -1.703125 15.828125 -13.1875 
L 8.015625 -13.1875 
Q 14.5 -2 17.703125 9.0625 
Q 20.90625 20.125 20.90625 31.390625 
Q 20.90625 42.671875 17.703125 53.65625 
Q 14.5 64.65625 8.015625 75.875 
" id="DejaVuSans-29"/>
    </defs>
    <g style="fill:#d2d2d2;" transform="translate(213.002857 26.229813)scale(0.14 -0.14)">
     <use transform="translate(0 0.125)" xlink:href="#DejaVuSans-28"/>
     <use transform="translate(39.013672 0.125)" xlink:href="#DejaVuSans-Oblique-3c0"/>
     <use transform="translate(118.701172 0.125)" xlink:href="#DejaVuSans-2b"/>
     <use transform="translate(221.972656 0.125)" xlink:href="#DejaVuSans-Oblique-7a"/>
     <use transform="translate(293.945312 0.125)" xlink:href="#DejaVuSans-2a"/>
     <use transform="translate(363.427734 0.125)" xlink:href="#DejaVuSans-Oblique-3c3"/>
     <use transform="translate(426.806641 0.125)" xlink:href="#DejaVuSans-29"/>
    </g>
   </g>
   <g id="PolyCollection_1">
    <defs>
     <path d="M 43.2 -43.2 
L 43.2 -43.200174 
L 45.244675 -43.20024 
L 47.289351 -43.20033 
L 49.334026 -43.200452 
L 51.378701 -43.200617 
L 53.423377 -43.200838 
L 55.468052 -43.201134 
L 57.512727 -43.201529 
L 59.557403 -43.202054 
L 61.602078 -43.20275 
L 63.646753 -43.203667 
L 65.691429 -43.204871 
L 67.736104 -43.206448 
L 69.780779 -43.208502 
L 71.825455 -43.211169 
L 73.87013 -43.214618 
L 75.914805 -43.219061 
L 77.959481 -43.224763 
L 80.004156 -43.232049 
L 82.048831 -43.241325 
L 84.093506 -43.253087 
L 86.138182 -43.267943 
L 88.182857 -43.286633 
L 90.227532 -43.310053 
L 92.272208 -43.339282 
L 94.316883 -43.375619 
L 96.361558 -43.42061 
L 98.406234 -43.476096 
L 100.450909 -43.544249 
L 102.495584 -43.627628 
L 104.54026 -43.729223 
L 106.584935 -43.852515 
L 108.62961 -44.001534 
L 110.674286 -44.180919 
L 112.718961 -44.395979 
L 114.763636 -44.652758 
L 116.808312 -44.958096 
L 118.852987 -45.319686 
L 120.897662 -45.746125 
L 122.942338 -46.246966 
L 124.987013 -46.832744 
L 127.031688 -47.515007 
L 129.076364 -48.306317 
L 131.121039 -49.220235 
L 133.165714 -50.271289 
L 135.21039 -51.474909 
L 137.255065 -52.847335 
L 139.29974 -54.405492 
L 141.344416 -56.166835 
L 143.389091 -58.149151 
L 145.433766 -60.370325 
L 147.478442 -62.848075 
L 149.523117 -65.599636 
L 151.567792 -68.641422 
L 153.612468 -71.98865 
L 155.657143 -75.65493 
L 157.701818 -79.651846 
L 159.746494 -83.988511 
L 161.791169 -88.671121 
L 163.835844 -93.702507 
L 165.880519 -99.08171 
L 167.925195 -104.803574 
L 169.96987 -110.858383 
L 172.014545 -117.231541 
L 174.059221 -123.903327 
L 176.103896 -130.848717 
L 178.148571 -138.037296 
L 180.193247 -145.433267 
L 182.237922 -152.995562 
L 184.282597 -160.678072 
L 186.327273 -168.429979 
L 188.371948 -176.196214 
L 190.416623 -183.918024 
L 192.461299 -191.533638 
L 194.505974 -198.979048 
L 196.550649 -206.188857 
L 198.595325 -213.097215 
L 200.64 -219.638794 
L 202.684675 -225.749805 
L 204.729351 -231.369029 
L 206.774026 -236.438825 
L 208.818701 -240.906116 
L 210.863377 -244.723315 
L 212.908052 -247.84916 
L 214.952727 -250.249463 
L 216.997403 -251.897729 
L 219.042078 -252.775647 
L 221.086753 -252.873421 
L 223.131429 -252.189959 
L 225.176104 -250.732891 
L 227.220779 -248.518426 
L 229.265455 -245.571052 
L 231.31013 -241.923088 
L 233.354805 -237.614092 
L 235.399481 -232.690145 
L 237.444156 -227.203037 
L 239.488831 -221.209356 
L 241.533506 -214.769521 
L 243.578182 -207.946776 
L 245.622857 -200.806159 
L 245.622857 -43.2 
L 245.622857 -43.2 
L 243.578182 -43.2 
L 241.533506 -43.2 
L 239.488831 -43.2 
L 237.444156 -43.2 
L 235.399481 -43.2 
L 233.354805 -43.2 
L 231.31013 -43.2 
L 229.265455 -43.2 
L 227.220779 -43.2 
L 225.176104 -43.2 
L 223.131429 -43.2 
L 221.086753 -43.2 
L 219.042078 -43.2 
L 216.997403 -43.2 
L 214.952727 -43.2 
L 212.908052 -43.2 
L 210.863377 -43.2 
L 208.818701 -43.2 
L 206.774026 -43.2 
L 204.729351 -43.2 
L 202.684675 -43.2 
L 200.64 -43.2 
L 198.595325 -43.2 
L 196.550649 -43.2 
L 194.505974 -43.2 
L 192.461299 -43.2 
L 190.416623 -43.2 
L 188.371948 -43.2 
L 186.327273 -43.2 
L 184.282597 -43.2 
L 182.237922 -43.2 
L 180.193247 -43.2 
L 178.148571 -43.2 
L 176.103896 -43.2 
L 174.059221 -43.2 
L 172.014545 -43.2 
L 169.96987 -43.2 
L 167.925195 -43.2 
L 165.880519 -43.2 
L 163.835844 -43.2 
L 161.791169 -43.2 
L 159.746494 -43.2 
L 157.701818 -43.2 
L 155.657143 -43.2 
L 153.612468 -43.2 
L 151.567792 -43.2 
L 149.523117 -43.2 
L 147.478442 -43.2 
L 145.433766 -43.2 
L 143.389091 -43.2 
L 141.344416 -43.2 
L 139.29974 -43.2 
L 137.255065 -43.2 
L 135.21039 -43.2 
L 133.165714 -43.2 
L 131.121039 -43.2 
L 129.076364 -43.2 
L 127.031688 -43.2 
L 124.987013 -43.2 
L 122.942338 -43.2 
L 120.897662 -43.2 
L 118.852987 -43.2 
L 116.808312 -43.2 
L 114.763636 -43.2 
L 112.718961 -43.2 
L 110.674286 -43.2 
L 108.62961 -43.2 
L 106.584935 -43.2 
L 104.54026 -43.2 
L 102.495584 -43.2 
L 100.450909 -43.2 
L 98.406234 -43.2 
L 96.361558 -43.2 
L 94.316883 -43.2 
L 92.272208 -43.2 
L 90.227532 -43.2 
L 88.182857 -43.2 
L 86.138182 -43.2 
L 84.093506 -43.2 
L 82.048831 -43.2 
L 80.004156 -43.2 
L 77.959481 -43.2 
L 75.914805 -43.2 
L 73.87013 -43.2 
L 71.825455 -43.2 
L 69.780779 -43.2 
L 67.736104 -43.2 
L 65.691429 -43.2 
L 63.646753 -43.2 
L 61.602078 -43.2 
L 59.557403 -43.2 
L 57.512727 -43.2 
L 55.468052 -43.2 
L 53.423377 -43.2 
L 51.378701 -43.2 
L 49.334026 -43.2 
L 47.289351 -43.2 
L 45.244675 -43.2 
L 43.2 -43.2 
z
" id="mc2a46f5f47" style="stroke:#f0ad4e;stroke-opacity:0.7;"/>
    </defs>
    <g clip-path="url(#p667450e8bf)">
     <use style="fill:#f0ad4e;fill-opacity:0.7;stroke:#f0ad4e;stroke-opacity:0.7;" x="0" xlink:href="#mc2a46f5f47" y="288"/>
    </g>
   </g>
   <g id="PolyCollection_2">
    <defs>
     <path d="M 245.622857 -43.2 
L 245.622857 -200.806159 
L 247.156364 -195.281684 
L 248.68987 -189.64316 
L 250.223377 -183.918024 
L 251.756883 -178.133199 
L 253.29039 -172.314899 
L 254.823896 -166.48844 
L 256.357403 -160.678072 
L 257.890909 -154.906827 
L 259.424416 -149.196391 
L 260.957922 -143.566989 
L 262.491429 -138.037296 
L 264.024935 -132.62437 
L 265.558442 -127.343596 
L 267.091948 -122.208661 
L 268.625455 -117.231541 
L 270.158961 -112.422508 
L 271.692468 -107.790155 
L 273.225974 -103.341434 
L 274.759481 -99.08171 
L 276.292987 -95.014826 
L 277.826494 -91.143183 
L 279.36 -87.467819 
L 280.893506 -83.988511 
L 282.427013 -80.703865 
L 283.960519 -77.611426 
L 285.494026 -74.707776 
L 287.027532 -71.98865 
L 288.561039 -69.449032 
L 290.094545 -67.083267 
L 291.628052 -64.885161 
L 293.161558 -62.848075 
L 294.695065 -60.965025 
L 296.228571 -59.228766 
L 297.762078 -57.631877 
L 299.295584 -56.166835 
L 300.829091 -54.826088 
L 302.362597 -53.602116 
L 303.896104 -52.487488 
L 305.42961 -51.474909 
L 306.963117 -50.55727 
L 308.496623 -49.727676 
L 310.03013 -48.979482 
L 311.563636 -48.306317 
L 313.097143 -47.702099 
L 314.630649 -47.161054 
L 316.164156 -46.677723 
L 317.697662 -46.246966 
L 319.231169 -45.863966 
L 320.764675 -45.524225 
L 322.298182 -45.22356 
L 323.831688 -44.958096 
L 325.365195 -44.724255 
L 326.898701 -44.518745 
L 328.432208 -44.338552 
L 329.965714 -44.180919 
L 331.499221 -44.043338 
L 333.032727 -43.923534 
L 334.566234 -43.819447 
L 336.09974 -43.729223 
L 337.633247 -43.651192 
L 339.166753 -43.583859 
L 340.70026 -43.52589 
L 342.233766 -43.476096 
L 343.767273 -43.433419 
L 345.300779 -43.396925 
L 346.834286 -43.365788 
L 348.367792 -43.339282 
L 349.901299 -43.316769 
L 351.434805 -43.297689 
L 352.968312 -43.281555 
L 354.501818 -43.267943 
L 356.035325 -43.256485 
L 357.568831 -43.24686 
L 359.102338 -43.238794 
L 360.635844 -43.232049 
L 362.169351 -43.226421 
L 363.702857 -43.221736 
L 365.236364 -43.217844 
L 366.76987 -43.214618 
L 368.303377 -43.211951 
L 369.836883 -43.209749 
L 371.37039 -43.207937 
L 372.903896 -43.206448 
L 374.437403 -43.205227 
L 375.970909 -43.204228 
L 377.504416 -43.203413 
L 379.037922 -43.20275 
L 380.571429 -43.202211 
L 382.104935 -43.201773 
L 383.638442 -43.20142 
L 385.171948 -43.201134 
L 386.705455 -43.200904 
L 388.238961 -43.200719 
L 389.772468 -43.200571 
L 391.305974 -43.200452 
L 392.839481 -43.200358 
L 394.372987 -43.200282 
L 395.906494 -43.200222 
L 397.44 -43.200174 
L 397.44 -43.2 
L 397.44 -43.2 
L 395.906494 -43.2 
L 394.372987 -43.2 
L 392.839481 -43.2 
L 391.305974 -43.2 
L 389.772468 -43.2 
L 388.238961 -43.2 
L 386.705455 -43.2 
L 385.171948 -43.2 
L 383.638442 -43.2 
L 382.104935 -43.2 
L 380.571429 -43.2 
L 379.037922 -43.2 
L 377.504416 -43.2 
L 375.970909 -43.2 
L 374.437403 -43.2 
L 372.903896 -43.2 
L 371.37039 -43.2 
L 369.836883 -43.2 
L 368.303377 -43.2 
L 366.76987 -43.2 
L 365.236364 -43.2 
L 363.702857 -43.2 
L 362.169351 -43.2 
L 360.635844 -43.2 
L 359.102338 -43.2 
L 357.568831 -43.2 
L 356.035325 -43.2 
L 354.501818 -43.2 
L 352.968312 -43.2 
L 351.434805 -43.2 
L 349.901299 -43.2 
L 348.367792 -43.2 
L 346.834286 -43.2 
L 345.300779 -43.2 
L 343.767273 -43.2 
L 342.233766 -43.2 
L 340.70026 -43.2 
L 339.166753 -43.2 
L 337.633247 -43.2 
L 336.09974 -43.2 
L 334.566234 -43.2 
L 333.032727 -43.2 
L 331.499221 -43.2 
L 329.965714 -43.2 
L 328.432208 -43.2 
L 326.898701 -43.2 
L 325.365195 -43.2 
L 323.831688 -43.2 
L 322.298182 -43.2 
L 320.764675 -43.2 
L 319.231169 -43.2 
L 317.697662 -43.2 
L 316.164156 -43.2 
L 314.630649 -43.2 
L 313.097143 -43.2 
L 311.563636 -43.2 
L 310.03013 -43.2 
L 308.496623 -43.2 
L 306.963117 -43.2 
L 305.42961 -43.2 
L 303.896104 -43.2 
L 302.362597 -43.2 
L 300.829091 -43.2 
L 299.295584 -43.2 
L 297.762078 -43.2 
L 296.228571 -43.2 
L 294.695065 -43.2 
L 293.161558 -43.2 
L 291.628052 -43.2 
L 290.094545 -43.2 
L 288.561039 -43.2 
L 287.027532 -43.2 
L 285.494026 -43.2 
L 283.960519 -43.2 
L 282.427013 -43.2 
L 280.893506 -43.2 
L 279.36 -43.2 
L 277.826494 -43.2 
L 276.292987 -43.2 
L 274.759481 -43.2 
L 273.225974 -43.2 
L 271.692468 -43.2 
L 270.158961 -43.2 
L 268.625455 -43.2 
L 267.091948 -43.2 
L 265.558442 -43.2 
L 264.024935 -43.2 
L 262.491429 -43.2 
L 260.957922 -43.2 
L 259.424416 -43.2 
L 257.890909 -43.2 
L 256.357403 -43.2 
L 254.823896 -43.2 
L 253.29039 -43.2 
L 251.756883 -43.2 
L 250.223377 -43.2 
L 248.68987 -43.2 
L 247.156364 -43.2 
L 245.622857 -43.2 
z
" id="m0899a95da0" style="stroke:#d9534f;stroke-opacity:0.7;"/>
    </defs>
    <g clip-path="url(#p667450e8bf)">
     <use style="fill:#d9534f;fill-opacity:0.7;stroke:#d9534f;stroke-opacity:0.7;" x="0" xlink:href="#m0899a95da0" y="288"/>
    </g>
   </g>
  </g>
  <g id="axes_2">
   <g id="text_14">
    <!-- Normal approximation: -->
    <defs>
     <path d="M 9.8125 72.90625 
L 23.09375 72.90625 
L 55.421875 11.921875 
L 55.421875 72.90625 
L 64.984375 72.90625 
L 64.984375 0 
L 51.703125 0 
L 19.390625 60.984375 
L 19.390625 0 
L 9.8125 0 
z
" id="DejaVuSans-4e"/>
     <path d="M 52 44.1875 
Q 55.375 50.25 60.0625 53.125 
Q 64.75 56 71.09375 56 
Q 79.640625 56 84.28125 50.015625 
Q 88.921875 44.046875 88.921875 33.015625 
L 88.921875 0 
L 79.890625 0 
L 79.890625 32.71875 
Q 79.890625 40.578125 77.09375 44.375 
Q 74.3125 48.1875 68.609375 48.1875 
Q 61.625 48.1875 57.5625 43.546875 
Q 53.515625 38.921875 53.515625 30.90625 
L 53.515625 0 
L 44.484375 0 
L 44.484375 32.71875 
Q 44.484375 40.625 41.703125 44.40625 
Q 38.921875 48.1875 33.109375 48.1875 
Q 26.21875 48.1875 22.15625 43.53125 
Q 18.109375 38.875 18.109375 30.90625 
L 18.109375 0 
L 9.078125 0 
L 9.078125 54.6875 
L 18.109375 54.6875 
L 18.109375 46.1875 
Q 21.1875 51.21875 25.484375 53.609375 
Q 29.78125 56 35.6875 56 
Q 41.65625 56 45.828125 52.96875 
Q 50 49.953125 52 44.1875 
" id="DejaVuSans-6d"/>
     <path d="M 54.890625 54.6875 
L 35.109375 28.078125 
L 55.90625 0 
L 45.3125 0 
L 29.390625 21.484375 
L 13.484375 0 
L 2.875 0 
L 24.125 28.609375 
L 4.6875 54.6875 
L 15.28125 54.6875 
L 29.78125 35.203125 
L 44.28125 54.6875 
z
" id="DejaVuSans-78"/>
     <path d="M 11.71875 12.40625 
L 22.015625 12.40625 
L 22.015625 0 
L 11.71875 0 
z
M 11.71875 51.703125 
L 22.015625 51.703125 
L 22.015625 39.3125 
L 11.71875 39.3125 
z
" id="DejaVuSans-3a"/>
    </defs>
    <g style="fill:#d9534f;" transform="translate(277.251429 141.173124)scale(0.13 -0.13)">
     <use xlink:href="#DejaVuSans-4e"/>
     <use x="74.804688" xlink:href="#DejaVuSans-6f"/>
     <use x="135.986328" xlink:href="#DejaVuSans-72"/>
     <use x="177.083984" xlink:href="#DejaVuSans-6d"/>
     <use x="274.496094" xlink:href="#DejaVuSans-61"/>
     <use x="335.775391" xlink:href="#DejaVuSans-6c"/>
     <use x="363.558594" xlink:href="#DejaVuSans-20"/>
     <use x="395.345703" xlink:href="#DejaVuSans-61"/>
     <use x="456.625" xlink:href="#DejaVuSans-70"/>
     <use x="520.101562" xlink:href="#DejaVuSans-70"/>
     <use x="583.578125" xlink:href="#DejaVuSans-72"/>
     <use x="624.660156" xlink:href="#DejaVuSans-6f"/>
     <use x="685.794922" xlink:href="#DejaVuSans-78"/>
     <use x="744.974609" xlink:href="#DejaVuSans-69"/>
     <use x="772.757812" xlink:href="#DejaVuSans-6d"/>
     <use x="870.169922" xlink:href="#DejaVuSans-61"/>
     <use x="931.449219" xlink:href="#DejaVuSans-74"/>
     <use x="970.658203" xlink:href="#DejaVuSans-69"/>
     <use x="998.441406" xlink:href="#DejaVuSans-6f"/>
     <use x="1059.623047" xlink:href="#DejaVuSans-6e"/>
     <use x="1123.001953" xlink:href="#DejaVuSans-3a"/>
    </g>
    <!-- area under the curve -->
    <defs>
     <path d="M 2.984375 54.6875 
L 12.5 54.6875 
L 29.59375 8.796875 
L 46.6875 54.6875 
L 56.203125 54.6875 
L 35.6875 0 
L 23.484375 0 
z
" id="DejaVuSans-76"/>
    </defs>
    <g style="fill:#d9534f;" transform="translate(277.251429 155.73028)scale(0.13 -0.13)">
     <use xlink:href="#DejaVuSans-61"/>
     <use x="61.279297" xlink:href="#DejaVuSans-72"/>
     <use x="102.361328" xlink:href="#DejaVuSans-65"/>
     <use x="163.884766" xlink:href="#DejaVuSans-61"/>
     <use x="225.164062" xlink:href="#DejaVuSans-20"/>
     <use x="256.951172" xlink:href="#DejaVuSans-75"/>
     <use x="320.330078" xlink:href="#DejaVuSans-6e"/>
     <use x="383.708984" xlink:href="#DejaVuSans-64"/>
     <use x="447.185547" xlink:href="#DejaVuSans-65"/>
     <use x="508.708984" xlink:href="#DejaVuSans-72"/>
     <use x="549.822266" xlink:href="#DejaVuSans-20"/>
     <use x="581.609375" xlink:href="#DejaVuSans-74"/>
     <use x="620.818359" xlink:href="#DejaVuSans-68"/>
     <use x="684.197266" xlink:href="#DejaVuSans-65"/>
     <use x="745.720703" xlink:href="#DejaVuSans-20"/>
     <use x="777.507812" xlink:href="#DejaVuSans-63"/>
     <use x="832.488281" xlink:href="#DejaVuSans-75"/>
     <use x="895.867188" xlink:href="#DejaVuSans-72"/>
     <use x="936.980469" xlink:href="#DejaVuSans-76"/>
     <use x="996.160156" xlink:href="#DejaVuSans-65"/>
    </g>
    <!-- p-value=0.225 -->
    <defs>
     <path d="M 4.890625 31.390625 
L 31.203125 31.390625 
L 31.203125 23.390625 
L 4.890625 23.390625 
z
" id="DejaVuSans-2d"/>
     <path d="M 10.59375 45.40625 
L 73.1875 45.40625 
L 73.1875 37.203125 
L 10.59375 37.203125 
z
M 10.59375 25.484375 
L 73.1875 25.484375 
L 73.1875 17.1875 
L 10.59375 17.1875 
z
" id="DejaVuSans-3d"/>
    </defs>
    <g style="fill:#d9534f;" transform="translate(277.251429 170.287436)scale(0.13 -0.13)">
     <use xlink:href="#DejaVuSans-70"/>
     <use x="63.476562" xlink:href="#DejaVuSans-2d"/>
     <use x="99.529297" xlink:href="#DejaVuSans-76"/>
     <use x="158.708984" xlink:href="#DejaVuSans-61"/>
     <use x="219.988281" xlink:href="#DejaVuSans-6c"/>
     <use x="247.771484" xlink:href="#DejaVuSans-75"/>
     <use x="311.150391" xlink:href="#DejaVuSans-65"/>
     <use x="372.673828" xlink:href="#DejaVuSans-3d"/>
     <use x="456.462891" xlink:href="#DejaVuSans-30"/>
     <use x="520.085938" xlink:href="#DejaVuSans-2e"/>
     <use x="551.873047" xlink:href="#DejaVuSans-32"/>
     <use x="615.496094" xlink:href="#DejaVuSans-32"/>
     <use x="679.119141" xlink:href="#DejaVuSans-35"/>
    </g>
   </g>
  </g>
  <g id="axes_3">
   <g id="text_15">
    <!-- Proportion of samples: -->
    <g style="fill:#5bc0de;" transform="translate(251.948571 66.631716)scale(0.13 -0.13)">
     <use xlink:href="#DejaVuSans-50"/>
     <use x="60.287109" xlink:href="#DejaVuSans-72"/>
     <use x="101.369141" xlink:href="#DejaVuSans-6f"/>
     <use x="162.550781" xlink:href="#DejaVuSans-70"/>
     <use x="226.027344" xlink:href="#DejaVuSans-6f"/>
     <use x="287.208984" xlink:href="#DejaVuSans-72"/>
     <use x="328.322266" xlink:href="#DejaVuSans-74"/>
     <use x="367.53125" xlink:href="#DejaVuSans-69"/>
     <use x="395.314453" xlink:href="#DejaVuSans-6f"/>
     <use x="456.496094" xlink:href="#DejaVuSans-6e"/>
     <use x="519.875" xlink:href="#DejaVuSans-20"/>
     <use x="551.662109" xlink:href="#DejaVuSans-6f"/>
     <use x="612.84375" xlink:href="#DejaVuSans-66"/>
     <use x="648.048828" xlink:href="#DejaVuSans-20"/>
     <use x="679.835938" xlink:href="#DejaVuSans-73"/>
     <use x="731.935547" xlink:href="#DejaVuSans-61"/>
     <use x="793.214844" xlink:href="#DejaVuSans-6d"/>
     <use x="890.626953" xlink:href="#DejaVuSans-70"/>
     <use x="954.103516" xlink:href="#DejaVuSans-6c"/>
     <use x="981.886719" xlink:href="#DejaVuSans-65"/>
     <use x="1043.410156" xlink:href="#DejaVuSans-73"/>
     <use x="1095.509766" xlink:href="#DejaVuSans-3a"/>
    </g>
    <!-- $\geq16$ heads in 2845 samples -->
    <defs>
     <path d="M 10.59375 49.609375 
L 10.59375 58.203125 
L 73.1875 40.28125 
L 73.1875 31.984375 
L 10.59375 14.015625 
L 10.59375 22.703125 
L 57.515625 36.078125 
z
M 73.1875 8.296875 
L 73.1875 0 
L 10.59375 0 
L 10.59375 8.296875 
z
" id="DejaVuSans-2265"/>
    </defs>
    <g style="fill:#5bc0de;" transform="translate(251.948571 81.19131)scale(0.13 -0.13)">
     <use transform="translate(19.482422 0.015625)" xlink:href="#DejaVuSans-2265"/>
     <use transform="translate(122.753906 0.015625)" xlink:href="#DejaVuSans-31"/>
     <use transform="translate(186.376953 0.015625)" xlink:href="#DejaVuSans-36"/>
     <use transform="translate(250 0.015625)" xlink:href="#DejaVuSans-20"/>
     <use transform="translate(281.787109 0.015625)" xlink:href="#DejaVuSans-68"/>
     <use transform="translate(345.166016 0.015625)" xlink:href="#DejaVuSans-65"/>
     <use transform="translate(406.689453 0.015625)" xlink:href="#DejaVuSans-61"/>
     <use transform="translate(467.96875 0.015625)" xlink:href="#DejaVuSans-64"/>
     <use transform="translate(531.445312 0.015625)" xlink:href="#DejaVuSans-73"/>
     <use transform="translate(583.544922 0.015625)" xlink:href="#DejaVuSans-20"/>
     <use transform="translate(615.332031 0.015625)" xlink:href="#DejaVuSans-69"/>
     <use transform="translate(643.115234 0.015625)" xlink:href="#DejaVuSans-6e"/>
     <use transform="translate(706.494141 0.015625)" xlink:href="#DejaVuSans-20"/>
     <use transform="translate(738.28125 0.015625)" xlink:href="#DejaVuSans-32"/>
     <use transform="translate(801.904297 0.015625)" xlink:href="#DejaVuSans-38"/>
     <use transform="translate(865.527344 0.015625)" xlink:href="#DejaVuSans-34"/>
     <use transform="translate(929.150391 0.015625)" xlink:href="#DejaVuSans-35"/>
     <use transform="translate(992.773438 0.015625)" xlink:href="#DejaVuSans-20"/>
     <use transform="translate(1024.560547 0.015625)" xlink:href="#DejaVuSans-73"/>
     <use transform="translate(1076.660156 0.015625)" xlink:href="#DejaVuSans-61"/>
     <use transform="translate(1137.939453 0.015625)" xlink:href="#DejaVuSans-6d"/>
     <use transform="translate(1235.351562 0.015625)" xlink:href="#DejaVuSans-70"/>
     <use transform="translate(1298.828125 0.015625)" xlink:href="#DejaVuSans-6c"/>
     <use transform="translate(1326.611328 0.015625)" xlink:href="#DejaVuSans-65"/>
     <use transform="translate(1388.134766 0.015625)" xlink:href="#DejaVuSans-73"/>
    </g>
    <!-- p-value=0.284 -->
    <g style="fill:#5bc0de;" transform="translate(251.948571 95.774873)scale(0.13 -0.13)">
     <use xlink:href="#DejaVuSans-70"/>
     <use x="63.476562" xlink:href="#DejaVuSans-2d"/>
     <use x="99.529297" xlink:href="#DejaVuSans-76"/>
     <use x="158.708984" xlink:href="#DejaVuSans-61"/>
     <use x="219.988281" xlink:href="#DejaVuSans-6c"/>
     <use x="247.771484" xlink:href="#DejaVuSans-75"/>
     <use x="311.150391" xlink:href="#DejaVuSans-65"/>
     <use x="372.673828" xlink:href="#DejaVuSans-3d"/>
     <use x="456.462891" xlink:href="#DejaVuSans-30"/>
     <use x="520.085938" xlink:href="#DejaVuSans-2e"/>
     <use x="551.873047" xlink:href="#DejaVuSans-32"/>
     <use x="615.496094" xlink:href="#DejaVuSans-38"/>
     <use x="679.119141" xlink:href="#DejaVuSans-34"/>
    </g>
   </g>
  </g>
 </g>
 <defs>
  <clipPath id="p667450e8bf">
   <rect height="216" width="354.24" x="43.2" y="28.8"/>
  </clipPath>
 </defs>
</svg>
