<?xml version="1.0" encoding="utf-8" standalone="no"?>
<!DOCTYPE svg PUBLIC "-//W3C//DTD SVG 1.1//EN"
  "http://www.w3.org/Graphics/SVG/1.1/DTD/svg11.dtd">
<!-- Created with matplotlib (http://matplotlib.org/) -->
<svg height="288pt" version="1.1" viewBox="0 0 432 288" width="432pt" xmlns="http://www.w3.org/2000/svg" xmlns:xlink="http://www.w3.org/1999/xlink">
 <defs>
  <style type="text/css">
*{stroke-linecap:butt;stroke-linejoin:round;}
  </style>
 </defs>
 <g id="figure_1">
  <g id="patch_1">
   <path d="M 0 288 
L 432 288 
L 432 0 
L 0 0 
z
" style="fill:none;"/>
  </g>
  <g id="axes_1">
   <g id="patch_2">
    <path d="M 64.8 244.8 
L 419.04 244.8 
L 419.04 43.2 
L 64.8 43.2 
z
" style="fill:none;"/>
   </g>
   <g id="matplotlib.axis_1">
    <g id="xtick_1">
     <g id="line2d_1">
      <defs>
       <path d="M 0 0 
L 0 4 
" id="md2b94a0379" style="stroke:#d2d2d2;"/>
      </defs>
      <g>
       <use style="fill:#d2d2d2;stroke:#d2d2d2;" x="64.8" xlink:href="#md2b94a0379" y="244.8"/>
      </g>
     </g>
     <g id="text_1">
      <!-- 0 -->
      <defs>
       <path d="M 31.78125 66.40625 
Q 24.171875 66.40625 20.328125 58.90625 
Q 16.5 51.421875 16.5 36.375 
Q 16.5 21.390625 20.328125 13.890625 
Q 24.171875 6.390625 31.78125 6.390625 
Q 39.453125 6.390625 43.28125 13.890625 
Q 47.125 21.390625 47.125 36.375 
Q 47.125 51.421875 43.28125 58.90625 
Q 39.453125 66.40625 31.78125 66.40625 
M 31.78125 74.21875 
Q 44.046875 74.21875 50.515625 64.515625 
Q 56.984375 54.828125 56.984375 36.375 
Q 56.984375 17.96875 50.515625 8.265625 
Q 44.046875 -1.421875 31.78125 -1.421875 
Q 19.53125 -1.421875 13.0625 8.265625 
Q 6.59375 17.96875 6.59375 36.375 
Q 6.59375 54.828125 13.0625 64.515625 
Q 19.53125 74.21875 31.78125 74.21875 
" id="DejaVuSans-30"/>
      </defs>
      <g style="fill:#d2d2d2;" transform="translate(60.664375 262.677969)scale(0.13 -0.13)">
       <use xlink:href="#DejaVuSans-30"/>
      </g>
     </g>
    </g>
    <g id="xtick_2">
     <g id="line2d_2">
      <g>
       <use style="fill:#d2d2d2;stroke:#d2d2d2;" x="138.6" xlink:href="#md2b94a0379" y="244.8"/>
      </g>
     </g>
     <g id="text_2">
      <!-- 5 -->
      <defs>
       <path d="M 10.796875 72.90625 
L 49.515625 72.90625 
L 49.515625 64.59375 
L 19.828125 64.59375 
L 19.828125 46.734375 
Q 21.96875 47.46875 24.109375 47.828125 
Q 26.265625 48.1875 28.421875 48.1875 
Q 40.625 48.1875 47.75 41.5 
Q 54.890625 34.8125 54.890625 23.390625 
Q 54.890625 11.625 47.5625 5.09375 
Q 40.234375 -1.421875 26.90625 -1.421875 
Q 22.3125 -1.421875 17.546875 -0.640625 
Q 12.796875 0.140625 7.71875 1.703125 
L 7.71875 11.625 
Q 12.109375 9.234375 16.796875 8.0625 
Q 21.484375 6.890625 26.703125 6.890625 
Q 35.15625 6.890625 40.078125 11.328125 
Q 45.015625 15.765625 45.015625 23.390625 
Q 45.015625 31 40.078125 35.4375 
Q 35.15625 39.890625 26.703125 39.890625 
Q 22.75 39.890625 18.8125 39.015625 
Q 14.890625 38.140625 10.796875 36.28125 
z
" id="DejaVuSans-35"/>
      </defs>
      <g style="fill:#d2d2d2;" transform="translate(134.464375 262.677969)scale(0.13 -0.13)">
       <use xlink:href="#DejaVuSans-35"/>
      </g>
     </g>
    </g>
    <g id="xtick_3">
     <g id="line2d_3">
      <g>
       <use style="fill:#d2d2d2;stroke:#d2d2d2;" x="212.4" xlink:href="#md2b94a0379" y="244.8"/>
      </g>
     </g>
     <g id="text_3">
      <!-- 10 -->
      <defs>
       <path d="M 12.40625 8.296875 
L 28.515625 8.296875 
L 28.515625 63.921875 
L 10.984375 60.40625 
L 10.984375 69.390625 
L 28.421875 72.90625 
L 38.28125 72.90625 
L 38.28125 8.296875 
L 54.390625 8.296875 
L 54.390625 0 
L 12.40625 0 
z
" id="DejaVuSans-31"/>
      </defs>
      <g style="fill:#d2d2d2;" transform="translate(204.12875 262.677969)scale(0.13 -0.13)">
       <use xlink:href="#DejaVuSans-31"/>
       <use x="63.623047" xlink:href="#DejaVuSans-30"/>
      </g>
     </g>
    </g>
    <g id="xtick_4">
     <g id="line2d_4">
      <g>
       <use style="fill:#d2d2d2;stroke:#d2d2d2;" x="286.2" xlink:href="#md2b94a0379" y="244.8"/>
      </g>
     </g>
     <g id="text_4">
      <!-- 15 -->
      <g style="fill:#d2d2d2;" transform="translate(277.92875 262.677969)scale(0.13 -0.13)">
       <use xlink:href="#DejaVuSans-31"/>
       <use x="63.623047" xlink:href="#DejaVuSans-35"/>
      </g>
     </g>
    </g>
    <g id="xtick_5">
     <g id="line2d_5">
      <g>
       <use style="fill:#d2d2d2;stroke:#d2d2d2;" x="360" xlink:href="#md2b94a0379" y="244.8"/>
      </g>
     </g>
     <g id="text_5">
      <!-- 20 -->
      <defs>
       <path d="M 19.1875 8.296875 
L 53.609375 8.296875 
L 53.609375 0 
L 7.328125 0 
L 7.328125 8.296875 
Q 12.9375 14.109375 22.625 23.890625 
Q 32.328125 33.6875 34.8125 36.53125 
Q 39.546875 41.84375 41.421875 45.53125 
Q 43.3125 49.21875 43.3125 52.78125 
Q 43.3125 58.59375 39.234375 62.25 
Q 35.15625 65.921875 28.609375 65.921875 
Q 23.96875 65.921875 18.8125 64.3125 
Q 13.671875 62.703125 7.8125 59.421875 
L 7.8125 69.390625 
Q 13.765625 71.78125 18.9375 73 
Q 24.125 74.21875 28.421875 74.21875 
Q 39.75 74.21875 46.484375 68.546875 
Q 53.21875 62.890625 53.21875 53.421875 
Q 53.21875 48.921875 51.53125 44.890625 
Q 49.859375 40.875 45.40625 35.40625 
Q 44.1875 33.984375 37.640625 27.21875 
Q 31.109375 20.453125 19.1875 8.296875 
" id="DejaVuSans-32"/>
      </defs>
      <g style="fill:#d2d2d2;" transform="translate(351.72875 262.677969)scale(0.13 -0.13)">
       <use xlink:href="#DejaVuSans-32"/>
       <use x="63.623047" xlink:href="#DejaVuSans-30"/>
      </g>
     </g>
    </g>
    <g id="text_6">
     <!-- $\chi^2$ -->
     <defs>
      <path d="M 30.03125 -12.203125 
L 26.421875 6.5 
L 6.15625 -20.84375 
L -4.4375 -20.84375 
L 24.265625 17.828125 
L 19.828125 40.828125 
Q 18.65625 46.96875 11.140625 46.96875 
L 8.734375 46.96875 
L 10.203125 54.6875 
L 13.625 54.59375 
Q 26.171875 54.25 27.734375 46.09375 
L 31.34375 27.390625 
L 51.609375 54.734375 
L 62.203125 54.734375 
L 33.5 16.0625 
L 37.9375 -6.9375 
Q 39.109375 -13.09375 46.625 -13.09375 
L 49.03125 -13.09375 
L 47.5625 -20.796875 
L 44.140625 -20.703125 
Q 31.59375 -20.359375 30.03125 -12.203125 
" id="DejaVuSans-Oblique-3c7"/>
     </defs>
     <g style="fill:#d2d2d2;" transform="translate(233.04 283.941563)scale(0.16 -0.16)">
      <use transform="translate(0 0.765625)" xlink:href="#DejaVuSans-Oblique-3c7"/>
      <use transform="translate(63.652396 39.046875)scale(0.7)" xlink:href="#DejaVuSans-32"/>
     </g>
    </g>
   </g>
   <g id="matplotlib.axis_2">
    <g id="ytick_1">
     <g id="line2d_6">
      <defs>
       <path d="M 0 0 
L -4 0 
" id="m18ecc7d483" style="stroke:#d2d2d2;"/>
      </defs>
      <g>
       <use style="fill:#d2d2d2;stroke:#d2d2d2;" x="64.8" xlink:href="#m18ecc7d483" y="244.8"/>
      </g>
     </g>
     <g id="text_7">
      <!-- 0.00 -->
      <defs>
       <path d="M 10.6875 12.40625 
L 21 12.40625 
L 21 0 
L 10.6875 0 
z
" id="DejaVuSans-2e"/>
      </defs>
      <g style="fill:#d2d2d2;" transform="translate(27.854687 249.738984)scale(0.13 -0.13)">
       <use xlink:href="#DejaVuSans-30"/>
       <use x="63.623047" xlink:href="#DejaVuSans-2e"/>
       <use x="95.410156" xlink:href="#DejaVuSans-30"/>
       <use x="159.033203" xlink:href="#DejaVuSans-30"/>
      </g>
     </g>
    </g>
    <g id="ytick_2">
     <g id="line2d_7">
      <g>
       <use style="fill:#d2d2d2;stroke:#d2d2d2;" x="64.8" xlink:href="#m18ecc7d483" y="192.608698"/>
      </g>
     </g>
     <g id="text_8">
      <!-- 0.05 -->
      <g style="fill:#d2d2d2;" transform="translate(27.854687 197.547682)scale(0.13 -0.13)">
       <use xlink:href="#DejaVuSans-30"/>
       <use x="63.623047" xlink:href="#DejaVuSans-2e"/>
       <use x="95.410156" xlink:href="#DejaVuSans-30"/>
       <use x="159.033203" xlink:href="#DejaVuSans-35"/>
      </g>
     </g>
    </g>
    <g id="ytick_3">
     <g id="line2d_8">
      <g>
       <use style="fill:#d2d2d2;stroke:#d2d2d2;" x="64.8" xlink:href="#m18ecc7d483" y="140.417395"/>
      </g>
     </g>
     <g id="text_9">
      <!-- 0.10 -->
      <g style="fill:#d2d2d2;" transform="translate(27.854687 145.35638)scale(0.13 -0.13)">
       <use xlink:href="#DejaVuSans-30"/>
       <use x="63.623047" xlink:href="#DejaVuSans-2e"/>
       <use x="95.410156" xlink:href="#DejaVuSans-31"/>
       <use x="159.033203" xlink:href="#DejaVuSans-30"/>
      </g>
     </g>
    </g>
    <g id="ytick_4">
     <g id="line2d_9">
      <g>
       <use style="fill:#d2d2d2;stroke:#d2d2d2;" x="64.8" xlink:href="#m18ecc7d483" y="88.226093"/>
      </g>
     </g>
     <g id="text_10">
      <!-- 0.15 -->
      <g style="fill:#d2d2d2;" transform="translate(27.854687 93.165077)scale(0.13 -0.13)">
       <use xlink:href="#DejaVuSans-30"/>
       <use x="63.623047" xlink:href="#DejaVuSans-2e"/>
       <use x="95.410156" xlink:href="#DejaVuSans-31"/>
       <use x="159.033203" xlink:href="#DejaVuSans-35"/>
      </g>
     </g>
    </g>
    <g id="text_11">
     <!-- Relative frequency -->
     <defs>
      <path d="M 44.390625 34.1875 
Q 47.5625 33.109375 50.5625 29.59375 
Q 53.5625 26.078125 56.59375 19.921875 
L 66.609375 0 
L 56 0 
L 46.6875 18.703125 
Q 43.0625 26.03125 39.671875 28.421875 
Q 36.28125 30.8125 30.421875 30.8125 
L 19.671875 30.8125 
L 19.671875 0 
L 9.8125 0 
L 9.8125 72.90625 
L 32.078125 72.90625 
Q 44.578125 72.90625 50.734375 67.671875 
Q 56.890625 62.453125 56.890625 51.90625 
Q 56.890625 45.015625 53.6875 40.46875 
Q 50.484375 35.9375 44.390625 34.1875 
M 19.671875 64.796875 
L 19.671875 38.921875 
L 32.078125 38.921875 
Q 39.203125 38.921875 42.84375 42.21875 
Q 46.484375 45.515625 46.484375 51.90625 
Q 46.484375 58.296875 42.84375 61.546875 
Q 39.203125 64.796875 32.078125 64.796875 
z
" id="DejaVuSans-52"/>
      <path d="M 56.203125 29.59375 
L 56.203125 25.203125 
L 14.890625 25.203125 
Q 15.484375 15.921875 20.484375 11.0625 
Q 25.484375 6.203125 34.421875 6.203125 
Q 39.59375 6.203125 44.453125 7.46875 
Q 49.3125 8.734375 54.109375 11.28125 
L 54.109375 2.78125 
Q 49.265625 0.734375 44.1875 -0.34375 
Q 39.109375 -1.421875 33.890625 -1.421875 
Q 20.796875 -1.421875 13.15625 6.1875 
Q 5.515625 13.8125 5.515625 26.8125 
Q 5.515625 40.234375 12.765625 48.109375 
Q 20.015625 56 32.328125 56 
Q 43.359375 56 49.78125 48.890625 
Q 56.203125 41.796875 56.203125 29.59375 
M 47.21875 32.234375 
Q 47.125 39.59375 43.09375 43.984375 
Q 39.0625 48.390625 32.421875 48.390625 
Q 24.90625 48.390625 20.390625 44.140625 
Q 15.875 39.890625 15.1875 32.171875 
z
" id="DejaVuSans-65"/>
      <path d="M 9.421875 75.984375 
L 18.40625 75.984375 
L 18.40625 0 
L 9.421875 0 
z
" id="DejaVuSans-6c"/>
      <path d="M 34.28125 27.484375 
Q 23.390625 27.484375 19.1875 25 
Q 14.984375 22.515625 14.984375 16.5 
Q 14.984375 11.71875 18.140625 8.90625 
Q 21.296875 6.109375 26.703125 6.109375 
Q 34.1875 6.109375 38.703125 11.40625 
Q 43.21875 16.703125 43.21875 25.484375 
L 43.21875 27.484375 
z
M 52.203125 31.203125 
L 52.203125 0 
L 43.21875 0 
L 43.21875 8.296875 
Q 40.140625 3.328125 35.546875 0.953125 
Q 30.953125 -1.421875 24.3125 -1.421875 
Q 15.921875 -1.421875 10.953125 3.296875 
Q 6 8.015625 6 15.921875 
Q 6 25.140625 12.171875 29.828125 
Q 18.359375 34.515625 30.609375 34.515625 
L 43.21875 34.515625 
L 43.21875 35.40625 
Q 43.21875 41.609375 39.140625 45 
Q 35.0625 48.390625 27.6875 48.390625 
Q 23 48.390625 18.546875 47.265625 
Q 14.109375 46.140625 10.015625 43.890625 
L 10.015625 52.203125 
Q 14.9375 54.109375 19.578125 55.046875 
Q 24.21875 56 28.609375 56 
Q 40.484375 56 46.34375 49.84375 
Q 52.203125 43.703125 52.203125 31.203125 
" id="DejaVuSans-61"/>
      <path d="M 18.3125 70.21875 
L 18.3125 54.6875 
L 36.8125 54.6875 
L 36.8125 47.703125 
L 18.3125 47.703125 
L 18.3125 18.015625 
Q 18.3125 11.328125 20.140625 9.421875 
Q 21.96875 7.515625 27.59375 7.515625 
L 36.8125 7.515625 
L 36.8125 0 
L 27.59375 0 
Q 17.1875 0 13.234375 3.875 
Q 9.28125 7.765625 9.28125 18.015625 
L 9.28125 47.703125 
L 2.6875 47.703125 
L 2.6875 54.6875 
L 9.28125 54.6875 
L 9.28125 70.21875 
z
" id="DejaVuSans-74"/>
      <path d="M 9.421875 54.6875 
L 18.40625 54.6875 
L 18.40625 0 
L 9.421875 0 
z
M 9.421875 75.984375 
L 18.40625 75.984375 
L 18.40625 64.59375 
L 9.421875 64.59375 
z
" id="DejaVuSans-69"/>
      <path d="M 2.984375 54.6875 
L 12.5 54.6875 
L 29.59375 8.796875 
L 46.6875 54.6875 
L 56.203125 54.6875 
L 35.6875 0 
L 23.484375 0 
z
" id="DejaVuSans-76"/>
      <path id="DejaVuSans-20"/>
      <path d="M 37.109375 75.984375 
L 37.109375 68.5 
L 28.515625 68.5 
Q 23.6875 68.5 21.796875 66.546875 
Q 19.921875 64.59375 19.921875 59.515625 
L 19.921875 54.6875 
L 34.71875 54.6875 
L 34.71875 47.703125 
L 19.921875 47.703125 
L 19.921875 0 
L 10.890625 0 
L 10.890625 47.703125 
L 2.296875 47.703125 
L 2.296875 54.6875 
L 10.890625 54.6875 
L 10.890625 58.5 
Q 10.890625 67.625 15.140625 71.796875 
Q 19.390625 75.984375 28.609375 75.984375 
z
" id="DejaVuSans-66"/>
      <path d="M 41.109375 46.296875 
Q 39.59375 47.171875 37.8125 47.578125 
Q 36.03125 48 33.890625 48 
Q 26.265625 48 22.1875 43.046875 
Q 18.109375 38.09375 18.109375 28.8125 
L 18.109375 0 
L 9.078125 0 
L 9.078125 54.6875 
L 18.109375 54.6875 
L 18.109375 46.1875 
Q 20.953125 51.171875 25.484375 53.578125 
Q 30.03125 56 36.53125 56 
Q 37.453125 56 38.578125 55.875 
Q 39.703125 55.765625 41.0625 55.515625 
z
" id="DejaVuSans-72"/>
      <path d="M 14.796875 27.296875 
Q 14.796875 17.390625 18.875 11.75 
Q 22.953125 6.109375 30.078125 6.109375 
Q 37.203125 6.109375 41.296875 11.75 
Q 45.40625 17.390625 45.40625 27.296875 
Q 45.40625 37.203125 41.296875 42.84375 
Q 37.203125 48.484375 30.078125 48.484375 
Q 22.953125 48.484375 18.875 42.84375 
Q 14.796875 37.203125 14.796875 27.296875 
M 45.40625 8.203125 
Q 42.578125 3.328125 38.25 0.953125 
Q 33.9375 -1.421875 27.875 -1.421875 
Q 17.96875 -1.421875 11.734375 6.484375 
Q 5.515625 14.40625 5.515625 27.296875 
Q 5.515625 40.1875 11.734375 48.09375 
Q 17.96875 56 27.875 56 
Q 33.9375 56 38.25 53.625 
Q 42.578125 51.265625 45.40625 46.390625 
L 45.40625 54.6875 
L 54.390625 54.6875 
L 54.390625 -20.796875 
L 45.40625 -20.796875 
z
" id="DejaVuSans-71"/>
      <path d="M 8.5 21.578125 
L 8.5 54.6875 
L 17.484375 54.6875 
L 17.484375 21.921875 
Q 17.484375 14.15625 20.5 10.265625 
Q 23.53125 6.390625 29.59375 6.390625 
Q 36.859375 6.390625 41.078125 11.03125 
Q 45.3125 15.671875 45.3125 23.6875 
L 45.3125 54.6875 
L 54.296875 54.6875 
L 54.296875 0 
L 45.3125 0 
L 45.3125 8.40625 
Q 42.046875 3.421875 37.71875 1 
Q 33.40625 -1.421875 27.6875 -1.421875 
Q 18.265625 -1.421875 13.375 4.4375 
Q 8.5 10.296875 8.5 21.578125 
M 31.109375 56 
z
" id="DejaVuSans-75"/>
      <path d="M 54.890625 33.015625 
L 54.890625 0 
L 45.90625 0 
L 45.90625 32.71875 
Q 45.90625 40.484375 42.875 44.328125 
Q 39.84375 48.1875 33.796875 48.1875 
Q 26.515625 48.1875 22.3125 43.546875 
Q 18.109375 38.921875 18.109375 30.90625 
L 18.109375 0 
L 9.078125 0 
L 9.078125 54.6875 
L 18.109375 54.6875 
L 18.109375 46.1875 
Q 21.34375 51.125 25.703125 53.5625 
Q 30.078125 56 35.796875 56 
Q 45.21875 56 50.046875 50.171875 
Q 54.890625 44.34375 54.890625 33.015625 
" id="DejaVuSans-6e"/>
      <path d="M 48.78125 52.59375 
L 48.78125 44.1875 
Q 44.96875 46.296875 41.140625 47.34375 
Q 37.3125 48.390625 33.40625 48.390625 
Q 24.65625 48.390625 19.8125 42.84375 
Q 14.984375 37.3125 14.984375 27.296875 
Q 14.984375 17.28125 19.8125 11.734375 
Q 24.65625 6.203125 33.40625 6.203125 
Q 37.3125 6.203125 41.140625 7.25 
Q 44.96875 8.296875 48.78125 10.40625 
L 48.78125 2.09375 
Q 45.015625 0.34375 40.984375 -0.53125 
Q 36.96875 -1.421875 32.421875 -1.421875 
Q 20.0625 -1.421875 12.78125 6.34375 
Q 5.515625 14.109375 5.515625 27.296875 
Q 5.515625 40.671875 12.859375 48.328125 
Q 20.21875 56 33.015625 56 
Q 37.15625 56 41.109375 55.140625 
Q 45.0625 54.296875 48.78125 52.59375 
" id="DejaVuSans-63"/>
      <path d="M 32.171875 -5.078125 
Q 28.375 -14.84375 24.75 -17.8125 
Q 21.140625 -20.796875 15.09375 -20.796875 
L 7.90625 -20.796875 
L 7.90625 -13.28125 
L 13.1875 -13.28125 
Q 16.890625 -13.28125 18.9375 -11.515625 
Q 21 -9.765625 23.484375 -3.21875 
L 25.09375 0.875 
L 2.984375 54.6875 
L 12.5 54.6875 
L 29.59375 11.921875 
L 46.6875 54.6875 
L 56.203125 54.6875 
z
" id="DejaVuSans-79"/>
     </defs>
     <g style="fill:#d2d2d2;" transform="translate(20.527187 219.46)rotate(-90)scale(0.16 -0.16)">
      <use xlink:href="#DejaVuSans-52"/>
      <use x="69.419922" xlink:href="#DejaVuSans-65"/>
      <use x="130.943359" xlink:href="#DejaVuSans-6c"/>
      <use x="158.726562" xlink:href="#DejaVuSans-61"/>
      <use x="220.005859" xlink:href="#DejaVuSans-74"/>
      <use x="259.214844" xlink:href="#DejaVuSans-69"/>
      <use x="286.998047" xlink:href="#DejaVuSans-76"/>
      <use x="346.177734" xlink:href="#DejaVuSans-65"/>
      <use x="407.701172" xlink:href="#DejaVuSans-20"/>
      <use x="439.488281" xlink:href="#DejaVuSans-66"/>
      <use x="474.693359" xlink:href="#DejaVuSans-72"/>
      <use x="515.775391" xlink:href="#DejaVuSans-65"/>
      <use x="577.298828" xlink:href="#DejaVuSans-71"/>
      <use x="640.775391" xlink:href="#DejaVuSans-75"/>
      <use x="704.154297" xlink:href="#DejaVuSans-65"/>
      <use x="765.677734" xlink:href="#DejaVuSans-6e"/>
      <use x="829.056641" xlink:href="#DejaVuSans-63"/>
      <use x="884.037109" xlink:href="#DejaVuSans-79"/>
     </g>
    </g>
   </g>
   <g id="line2d_10">
    <path clip-path="url(#ped143b946b)" d="M 64.8 244.8 
L 66.034114 223.87426 
L 67.268227 204.662094 
L 69.736455 170.96327 
L 72.204682 142.92879 
L 73.438796 130.816462 
L 74.67291 119.866774 
L 75.907023 110.004823 
L 77.141137 101.159893 
L 78.375251 93.265234 
L 79.609365 86.257859 
L 80.843478 80.078343 
L 82.077592 74.670643 
L 83.311706 69.981914 
L 84.545819 65.962348 
L 85.779933 62.565007 
L 87.014047 59.745677 
L 88.248161 57.462721 
L 89.482274 55.676944 
L 90.716388 54.351458 
L 91.950502 53.451565 
L 93.184615 52.944636 
L 94.418729 52.8 
L 95.652843 52.98884 
L 96.886957 53.48409 
L 98.12107 54.260343 
L 99.355184 55.293756 
L 100.589298 56.561971 
L 101.823411 58.044028 
L 104.291639 61.572366 
L 106.759866 65.736254 
L 109.228094 70.411034 
L 111.696321 75.487957 
L 115.398662 83.653923 
L 120.335117 95.1682 
L 133.910368 127.233916 
L 138.846823 138.233481 
L 143.783278 148.633235 
L 147.485619 155.992128 
L 151.18796 162.952328 
L 154.890301 169.505582 
L 158.592642 175.651122 
L 162.294983 181.394013 
L 165.997324 186.743793 
L 169.699666 191.713345 
L 173.402007 196.317977 
L 177.104348 200.57467 
L 180.806689 204.501473 
L 184.50903 208.117014 
L 188.211371 211.440113 
L 191.913712 214.489477 
L 195.616054 217.283468 
L 199.318395 219.839921 
L 203.020736 222.176015 
L 206.723077 224.308179 
L 211.659532 226.860713 
L 216.595987 229.113038 
L 221.532441 231.097085 
L 226.468896 232.842069 
L 231.405351 234.374569 
L 237.57592 236.027817 
L 243.746488 237.428311 
L 249.917057 238.612579 
L 257.321739 239.79267 
L 264.726421 240.753683 
L 273.365217 241.649796 
L 283.238127 242.438563 
L 294.345151 243.096623 
L 307.920401 243.66094 
L 323.96388 244.094868 
L 344.943813 244.425525 
L 374.562542 244.648182 
L 425.161204 244.768185 
L 433 244.77507 
L 433 244.77507 
" style="fill:none;stroke:#5bc0de;stroke-linecap:square;stroke-width:2;"/>
   </g>
   <g id="patch_3">
    <path d="M 64.8 244.8 
L 64.8 43.2 
" style="fill:none;stroke:#d2d2d2;stroke-linecap:square;stroke-linejoin:miter;"/>
   </g>
   <g id="patch_4">
    <path d="M 64.8 244.8 
L 419.04 244.8 
" style="fill:none;stroke:#d2d2d2;stroke-linecap:square;stroke-linejoin:miter;"/>
   </g>
   <g id="legend_1">
    <g id="line2d_11">
     <path d="M 320.4625 64.1575 
L 352.4625 64.1575 
" style="fill:none;stroke:#5bc0de;stroke-linecap:square;stroke-width:2;"/>
    </g>
    <g id="line2d_12"/>
    <g id="text_12">
     <!-- df=4 -->
     <defs>
      <path d="M 45.40625 46.390625 
L 45.40625 75.984375 
L 54.390625 75.984375 
L 54.390625 0 
L 45.40625 0 
L 45.40625 8.203125 
Q 42.578125 3.328125 38.25 0.953125 
Q 33.9375 -1.421875 27.875 -1.421875 
Q 17.96875 -1.421875 11.734375 6.484375 
Q 5.515625 14.40625 5.515625 27.296875 
Q 5.515625 40.1875 11.734375 48.09375 
Q 17.96875 56 27.875 56 
Q 33.9375 56 38.25 53.625 
Q 42.578125 51.265625 45.40625 46.390625 
M 14.796875 27.296875 
Q 14.796875 17.390625 18.875 11.75 
Q 22.953125 6.109375 30.078125 6.109375 
Q 37.203125 6.109375 41.296875 11.75 
Q 45.40625 17.390625 45.40625 27.296875 
Q 45.40625 37.203125 41.296875 42.84375 
Q 37.203125 48.484375 30.078125 48.484375 
Q 22.953125 48.484375 18.875 42.84375 
Q 14.796875 37.203125 14.796875 27.296875 
" id="DejaVuSans-64"/>
      <path d="M 10.59375 45.40625 
L 73.1875 45.40625 
L 73.1875 37.203125 
L 10.59375 37.203125 
z
M 10.59375 25.484375 
L 73.1875 25.484375 
L 73.1875 17.1875 
L 10.59375 17.1875 
z
" id="DejaVuSans-3d"/>
      <path d="M 37.796875 64.3125 
L 12.890625 25.390625 
L 37.796875 25.390625 
z
M 35.203125 72.90625 
L 47.609375 72.90625 
L 47.609375 25.390625 
L 58.015625 25.390625 
L 58.015625 17.1875 
L 47.609375 17.1875 
L 47.609375 0 
L 37.796875 0 
L 37.796875 17.1875 
L 4.890625 17.1875 
L 4.890625 26.703125 
z
" id="DejaVuSans-34"/>
     </defs>
     <g style="fill:#d2d2d2;" transform="translate(365.2625 69.7575)scale(0.16 -0.16)">
      <use xlink:href="#DejaVuSans-64"/>
      <use x="63.476562" xlink:href="#DejaVuSans-66"/>
      <use x="98.681641" xlink:href="#DejaVuSans-3d"/>
      <use x="182.470703" xlink:href="#DejaVuSans-34"/>
     </g>
    </g>
   </g>
  </g>
  <g id="axes_2">
   <g id="PolyCollection_1">
    <defs>
     <path d="M 184.50903 -43.2 
L 184.50903 -79.882986 
L 185.743144 -78.743722 
L 186.977258 -77.636253 
L 188.211371 -76.559887 
L 189.445485 -75.513933 
L 190.679599 -74.497706 
L 191.913712 -73.510523 
L 193.147826 -72.551711 
L 194.38194 -71.620601 
L 195.616054 -70.716532 
L 196.850167 -69.838851 
L 198.084281 -68.986912 
L 199.318395 -68.160079 
L 200.552508 -67.357724 
L 201.786622 -66.579229 
L 203.020736 -65.823985 
L 204.254849 -65.091394 
L 205.488963 -64.380865 
L 206.723077 -63.691821 
L 207.957191 -63.023694 
L 209.191304 -62.375925 
L 210.425418 -61.747969 
L 211.659532 -61.139287 
L 212.893645 -60.549355 
L 214.127759 -59.977658 
L 215.361873 -59.423692 
L 216.595987 -58.886962 
L 217.8301 -58.366986 
L 219.064214 -57.863292 
L 220.298328 -57.375419 
L 221.532441 -56.902915 
L 222.766555 -56.445339 
L 224.000669 -56.002262 
L 225.234783 -55.573262 
L 226.468896 -55.157931 
L 227.70301 -54.755867 
L 228.937124 -54.366682 
L 230.171237 -53.989993 
L 231.405351 -53.625431 
L 232.639465 -53.272633 
L 233.873579 -52.931248 
L 235.107692 -52.600933 
L 236.341806 -52.281353 
L 237.57592 -51.972183 
L 238.810033 -51.673105 
L 240.044147 -51.383813 
L 241.278261 -51.104007 
L 242.512375 -50.833393 
L 243.746488 -50.571689 
L 244.980602 -50.318619 
L 246.214716 -50.073914 
L 247.448829 -49.837314 
L 248.682943 -49.608565 
L 249.917057 -49.387421 
L 251.151171 -49.173642 
L 252.385284 -48.966997 
L 253.619398 -48.767259 
L 254.853512 -48.57421 
L 256.087625 -48.387636 
L 257.321739 -48.20733 
L 258.555853 -48.033093 
L 259.789967 -47.86473 
L 261.02408 -47.702051 
L 262.258194 -47.544873 
L 263.492308 -47.39302 
L 264.726421 -47.246317 
L 265.960535 -47.104598 
L 267.194649 -46.967702 
L 268.428763 -46.835469 
L 269.662876 -46.707749 
L 270.89699 -46.584393 
L 272.131104 -46.465258 
L 273.365217 -46.350204 
L 274.599331 -46.239099 
L 275.833445 -46.13181 
L 277.067559 -46.028213 
L 278.301672 -45.928184 
L 279.535786 -45.831605 
L 280.7699 -45.738361 
L 282.004013 -45.648341 
L 283.238127 -45.561437 
L 284.472241 -45.477545 
L 285.706355 -45.396564 
L 286.940468 -45.318396 
L 288.174582 -45.242947 
L 289.408696 -45.170125 
L 290.642809 -45.099842 
L 291.876923 -45.032011 
L 293.111037 -44.966549 
L 294.345151 -44.903377 
L 295.579264 -44.842417 
L 296.813378 -44.783593 
L 298.047492 -44.726832 
L 299.281605 -44.672065 
L 300.515719 -44.619223 
L 301.749833 -44.56824 
L 302.983946 -44.519053 
L 304.21806 -44.4716 
L 305.452174 -44.425822 
L 306.686288 -44.381661 
L 307.920401 -44.33906 
L 309.154515 -44.297968 
L 310.388629 -44.258331 
L 311.622742 -44.220099 
L 312.856856 -44.183223 
L 314.09097 -44.147657 
L 315.325084 -44.113356 
L 316.559197 -44.080274 
L 317.793311 -44.04837 
L 319.027425 -44.017603 
L 320.261538 -43.987934 
L 321.495652 -43.959323 
L 322.729766 -43.931734 
L 323.96388 -43.905132 
L 325.197993 -43.879481 
L 326.432107 -43.854749 
L 327.666221 -43.830902 
L 328.900334 -43.807911 
L 330.134448 -43.785745 
L 331.368562 -43.764375 
L 332.602676 -43.743773 
L 333.836789 -43.723912 
L 335.070903 -43.704766 
L 336.305017 -43.686309 
L 337.53913 -43.668518 
L 338.773244 -43.651368 
L 340.007358 -43.634837 
L 341.241472 -43.618903 
L 342.475585 -43.603545 
L 343.709699 -43.588742 
L 344.943813 -43.574475 
L 346.177926 -43.560724 
L 347.41204 -43.547472 
L 348.646154 -43.5347 
L 349.880268 -43.522392 
L 351.114381 -43.51053 
L 352.348495 -43.4991 
L 353.582609 -43.488084 
L 354.816722 -43.47747 
L 356.050836 -43.467241 
L 357.28495 -43.457385 
L 358.519064 -43.447889 
L 359.753177 -43.438738 
L 360.987291 -43.429921 
L 362.221405 -43.421426 
L 363.455518 -43.413241 
L 364.689632 -43.405355 
L 365.923746 -43.397757 
L 367.15786 -43.390438 
L 368.391973 -43.383386 
L 369.626087 -43.376592 
L 370.860201 -43.370047 
L 372.094314 -43.363743 
L 373.328428 -43.357669 
L 374.562542 -43.351818 
L 375.796656 -43.346182 
L 377.030769 -43.340753 
L 378.264883 -43.335524 
L 379.498997 -43.330486 
L 380.73311 -43.325635 
L 381.967224 -43.320961 
L 383.201338 -43.31646 
L 384.435452 -43.312125 
L 385.669565 -43.307949 
L 386.903679 -43.303927 
L 388.137793 -43.300054 
L 389.371906 -43.296323 
L 390.60602 -43.292731 
L 391.840134 -43.289271 
L 393.074247 -43.285939 
L 394.308361 -43.28273 
L 395.542475 -43.27964 
L 396.776589 -43.276664 
L 398.010702 -43.273798 
L 399.244816 -43.271039 
L 400.47893 -43.268382 
L 401.713043 -43.265823 
L 402.947157 -43.263359 
L 404.181271 -43.260987 
L 405.415385 -43.258702 
L 406.649498 -43.256503 
L 407.883612 -43.254385 
L 409.117726 -43.252346 
L 410.351839 -43.250383 
L 411.585953 -43.248492 
L 412.820067 -43.246672 
L 414.054181 -43.24492 
L 415.288294 -43.243233 
L 416.522408 -43.241609 
L 417.756522 -43.240045 
L 418.990635 -43.23854 
L 420.224749 -43.237091 
L 421.458863 -43.235696 
L 422.692977 -43.234353 
L 423.92709 -43.23306 
L 425.161204 -43.231815 
L 426.395318 -43.230617 
L 427.629431 -43.229463 
L 428.863545 -43.228353 
L 430.097659 -43.227285 
L 431.331773 -43.226256 
L 432.565886 -43.225266 
L 433.8 -43.224312 
L 433.8 -43.2 
L 433.8 -43.2 
L 432.565886 -43.2 
L 431.331773 -43.2 
L 430.097659 -43.2 
L 428.863545 -43.2 
L 427.629431 -43.2 
L 426.395318 -43.2 
L 425.161204 -43.2 
L 423.92709 -43.2 
L 422.692977 -43.2 
L 421.458863 -43.2 
L 420.224749 -43.2 
L 418.990635 -43.2 
L 417.756522 -43.2 
L 416.522408 -43.2 
L 415.288294 -43.2 
L 414.054181 -43.2 
L 412.820067 -43.2 
L 411.585953 -43.2 
L 410.351839 -43.2 
L 409.117726 -43.2 
L 407.883612 -43.2 
L 406.649498 -43.2 
L 405.415385 -43.2 
L 404.181271 -43.2 
L 402.947157 -43.2 
L 401.713043 -43.2 
L 400.47893 -43.2 
L 399.244816 -43.2 
L 398.010702 -43.2 
L 396.776589 -43.2 
L 395.542475 -43.2 
L 394.308361 -43.2 
L 393.074247 -43.2 
L 391.840134 -43.2 
L 390.60602 -43.2 
L 389.371906 -43.2 
L 388.137793 -43.2 
L 386.903679 -43.2 
L 385.669565 -43.2 
L 384.435452 -43.2 
L 383.201338 -43.2 
L 381.967224 -43.2 
L 380.73311 -43.2 
L 379.498997 -43.2 
L 378.264883 -43.2 
L 377.030769 -43.2 
L 375.796656 -43.2 
L 374.562542 -43.2 
L 373.328428 -43.2 
L 372.094314 -43.2 
L 370.860201 -43.2 
L 369.626087 -43.2 
L 368.391973 -43.2 
L 367.15786 -43.2 
L 365.923746 -43.2 
L 364.689632 -43.2 
L 363.455518 -43.2 
L 362.221405 -43.2 
L 360.987291 -43.2 
L 359.753177 -43.2 
L 358.519064 -43.2 
L 357.28495 -43.2 
L 356.050836 -43.2 
L 354.816722 -43.2 
L 353.582609 -43.2 
L 352.348495 -43.2 
L 351.114381 -43.2 
L 349.880268 -43.2 
L 348.646154 -43.2 
L 347.41204 -43.2 
L 346.177926 -43.2 
L 344.943813 -43.2 
L 343.709699 -43.2 
L 342.475585 -43.2 
L 341.241472 -43.2 
L 340.007358 -43.2 
L 338.773244 -43.2 
L 337.53913 -43.2 
L 336.305017 -43.2 
L 335.070903 -43.2 
L 333.836789 -43.2 
L 332.602676 -43.2 
L 331.368562 -43.2 
L 330.134448 -43.2 
L 328.900334 -43.2 
L 327.666221 -43.2 
L 326.432107 -43.2 
L 325.197993 -43.2 
L 323.96388 -43.2 
L 322.729766 -43.2 
L 321.495652 -43.2 
L 320.261538 -43.2 
L 319.027425 -43.2 
L 317.793311 -43.2 
L 316.559197 -43.2 
L 315.325084 -43.2 
L 314.09097 -43.2 
L 312.856856 -43.2 
L 311.622742 -43.2 
L 310.388629 -43.2 
L 309.154515 -43.2 
L 307.920401 -43.2 
L 306.686288 -43.2 
L 305.452174 -43.2 
L 304.21806 -43.2 
L 302.983946 -43.2 
L 301.749833 -43.2 
L 300.515719 -43.2 
L 299.281605 -43.2 
L 298.047492 -43.2 
L 296.813378 -43.2 
L 295.579264 -43.2 
L 294.345151 -43.2 
L 293.111037 -43.2 
L 291.876923 -43.2 
L 290.642809 -43.2 
L 289.408696 -43.2 
L 288.174582 -43.2 
L 286.940468 -43.2 
L 285.706355 -43.2 
L 284.472241 -43.2 
L 283.238127 -43.2 
L 282.004013 -43.2 
L 280.7699 -43.2 
L 279.535786 -43.2 
L 278.301672 -43.2 
L 277.067559 -43.2 
L 275.833445 -43.2 
L 274.599331 -43.2 
L 273.365217 -43.2 
L 272.131104 -43.2 
L 270.89699 -43.2 
L 269.662876 -43.2 
L 268.428763 -43.2 
L 267.194649 -43.2 
L 265.960535 -43.2 
L 264.726421 -43.2 
L 263.492308 -43.2 
L 262.258194 -43.2 
L 261.02408 -43.2 
L 259.789967 -43.2 
L 258.555853 -43.2 
L 257.321739 -43.2 
L 256.087625 -43.2 
L 254.853512 -43.2 
L 253.619398 -43.2 
L 252.385284 -43.2 
L 251.151171 -43.2 
L 249.917057 -43.2 
L 248.682943 -43.2 
L 247.448829 -43.2 
L 246.214716 -43.2 
L 244.980602 -43.2 
L 243.746488 -43.2 
L 242.512375 -43.2 
L 241.278261 -43.2 
L 240.044147 -43.2 
L 238.810033 -43.2 
L 237.57592 -43.2 
L 236.341806 -43.2 
L 235.107692 -43.2 
L 233.873579 -43.2 
L 232.639465 -43.2 
L 231.405351 -43.2 
L 230.171237 -43.2 
L 228.937124 -43.2 
L 227.70301 -43.2 
L 226.468896 -43.2 
L 225.234783 -43.2 
L 224.000669 -43.2 
L 222.766555 -43.2 
L 221.532441 -43.2 
L 220.298328 -43.2 
L 219.064214 -43.2 
L 217.8301 -43.2 
L 216.595987 -43.2 
L 215.361873 -43.2 
L 214.127759 -43.2 
L 212.893645 -43.2 
L 211.659532 -43.2 
L 210.425418 -43.2 
L 209.191304 -43.2 
L 207.957191 -43.2 
L 206.723077 -43.2 
L 205.488963 -43.2 
L 204.254849 -43.2 
L 203.020736 -43.2 
L 201.786622 -43.2 
L 200.552508 -43.2 
L 199.318395 -43.2 
L 198.084281 -43.2 
L 196.850167 -43.2 
L 195.616054 -43.2 
L 194.38194 -43.2 
L 193.147826 -43.2 
L 191.913712 -43.2 
L 190.679599 -43.2 
L 189.445485 -43.2 
L 188.211371 -43.2 
L 186.977258 -43.2 
L 185.743144 -43.2 
L 184.50903 -43.2 
z
" id="m66281b9418" style="stroke:#d9534f;stroke-opacity:0.6;"/>
    </defs>
    <g clip-path="url(#ped143b946b)">
     <use style="fill:#d9534f;fill-opacity:0.6;stroke:#d9534f;stroke-opacity:0.6;" x="0" xlink:href="#m66281b9418" y="288"/>
    </g>
   </g>
   <g id="line2d_13">
    <path clip-path="url(#ped143b946b)" d="M 184.378266 244.8 
L 184.378266 43.2 
" style="fill:none;stroke:#f0ad4e;stroke-linecap:square;stroke-width:1.5;"/>
   </g>
   <g id="text_13">
    <!-- Observed $\chi^2$ -->
    <defs>
     <path d="M 39.40625 66.21875 
Q 28.65625 66.21875 22.328125 58.203125 
Q 16.015625 50.203125 16.015625 36.375 
Q 16.015625 22.609375 22.328125 14.59375 
Q 28.65625 6.59375 39.40625 6.59375 
Q 50.140625 6.59375 56.421875 14.59375 
Q 62.703125 22.609375 62.703125 36.375 
Q 62.703125 50.203125 56.421875 58.203125 
Q 50.140625 66.21875 39.40625 66.21875 
M 39.40625 74.21875 
Q 54.734375 74.21875 63.90625 63.9375 
Q 73.09375 53.65625 73.09375 36.375 
Q 73.09375 19.140625 63.90625 8.859375 
Q 54.734375 -1.421875 39.40625 -1.421875 
Q 24.03125 -1.421875 14.8125 8.828125 
Q 5.609375 19.09375 5.609375 36.375 
Q 5.609375 53.65625 14.8125 63.9375 
Q 24.03125 74.21875 39.40625 74.21875 
" id="DejaVuSans-4f"/>
     <path d="M 48.6875 27.296875 
Q 48.6875 37.203125 44.609375 42.84375 
Q 40.53125 48.484375 33.40625 48.484375 
Q 26.265625 48.484375 22.1875 42.84375 
Q 18.109375 37.203125 18.109375 27.296875 
Q 18.109375 17.390625 22.1875 11.75 
Q 26.265625 6.109375 33.40625 6.109375 
Q 40.53125 6.109375 44.609375 11.75 
Q 48.6875 17.390625 48.6875 27.296875 
M 18.109375 46.390625 
Q 20.953125 51.265625 25.265625 53.625 
Q 29.59375 56 35.59375 56 
Q 45.5625 56 51.78125 48.09375 
Q 58.015625 40.1875 58.015625 27.296875 
Q 58.015625 14.40625 51.78125 6.484375 
Q 45.5625 -1.421875 35.59375 -1.421875 
Q 29.59375 -1.421875 25.265625 0.953125 
Q 20.953125 3.328125 18.109375 8.203125 
L 18.109375 0 
L 9.078125 0 
L 9.078125 75.984375 
L 18.109375 75.984375 
z
" id="DejaVuSans-62"/>
     <path d="M 44.28125 53.078125 
L 44.28125 44.578125 
Q 40.484375 46.53125 36.375 47.5 
Q 32.28125 48.484375 27.875 48.484375 
Q 21.1875 48.484375 17.84375 46.4375 
Q 14.5 44.390625 14.5 40.28125 
Q 14.5 37.15625 16.890625 35.375 
Q 19.28125 33.59375 26.515625 31.984375 
L 29.59375 31.296875 
Q 39.15625 29.25 43.1875 25.515625 
Q 47.21875 21.78125 47.21875 15.09375 
Q 47.21875 7.46875 41.1875 3.015625 
Q 35.15625 -1.421875 24.609375 -1.421875 
Q 20.21875 -1.421875 15.453125 -0.5625 
Q 10.6875 0.296875 5.421875 2 
L 5.421875 11.28125 
Q 10.40625 8.6875 15.234375 7.390625 
Q 20.0625 6.109375 24.8125 6.109375 
Q 31.15625 6.109375 34.5625 8.28125 
Q 37.984375 10.453125 37.984375 14.40625 
Q 37.984375 18.0625 35.515625 20.015625 
Q 33.0625 21.96875 24.703125 23.78125 
L 21.578125 24.515625 
Q 13.234375 26.265625 9.515625 29.90625 
Q 5.8125 33.546875 5.8125 39.890625 
Q 5.8125 47.609375 11.28125 51.796875 
Q 16.75 56 26.8125 56 
Q 31.78125 56 36.171875 55.265625 
Q 40.578125 54.546875 44.28125 53.078125 
" id="DejaVuSans-73"/>
    </defs>
    <g style="fill:#f0ad4e;" transform="translate(140.698266 20.551063)scale(0.14 -0.14)">
     <use transform="translate(0 0.765625)" xlink:href="#DejaVuSans-4f"/>
     <use transform="translate(78.710938 0.765625)" xlink:href="#DejaVuSans-62"/>
     <use transform="translate(142.1875 0.765625)" xlink:href="#DejaVuSans-73"/>
     <use transform="translate(194.287109 0.765625)" xlink:href="#DejaVuSans-65"/>
     <use transform="translate(255.810547 0.765625)" xlink:href="#DejaVuSans-72"/>
     <use transform="translate(296.923828 0.765625)" xlink:href="#DejaVuSans-76"/>
     <use transform="translate(356.103516 0.765625)" xlink:href="#DejaVuSans-65"/>
     <use transform="translate(417.626953 0.765625)" xlink:href="#DejaVuSans-64"/>
     <use transform="translate(481.103516 0.765625)" xlink:href="#DejaVuSans-20"/>
     <use transform="translate(512.890625 0.765625)" xlink:href="#DejaVuSans-Oblique-3c7"/>
     <use transform="translate(576.543021 39.046875)scale(0.7)" xlink:href="#DejaVuSans-32"/>
    </g>
    <!-- 8.10 -->
    <defs>
     <path d="M 31.78125 34.625 
Q 24.75 34.625 20.71875 30.859375 
Q 16.703125 27.09375 16.703125 20.515625 
Q 16.703125 13.921875 20.71875 10.15625 
Q 24.75 6.390625 31.78125 6.390625 
Q 38.8125 6.390625 42.859375 10.171875 
Q 46.921875 13.96875 46.921875 20.515625 
Q 46.921875 27.09375 42.890625 30.859375 
Q 38.875 34.625 31.78125 34.625 
M 21.921875 38.8125 
Q 15.578125 40.375 12.03125 44.71875 
Q 8.5 49.078125 8.5 55.328125 
Q 8.5 64.0625 14.71875 69.140625 
Q 20.953125 74.21875 31.78125 74.21875 
Q 42.671875 74.21875 48.875 69.140625 
Q 55.078125 64.0625 55.078125 55.328125 
Q 55.078125 49.078125 51.53125 44.71875 
Q 48 40.375 41.703125 38.8125 
Q 48.828125 37.15625 52.796875 32.3125 
Q 56.78125 27.484375 56.78125 20.515625 
Q 56.78125 9.90625 50.3125 4.234375 
Q 43.84375 -1.421875 31.78125 -1.421875 
Q 19.734375 -1.421875 13.25 4.234375 
Q 6.78125 9.90625 6.78125 20.515625 
Q 6.78125 27.484375 10.78125 32.3125 
Q 14.796875 37.15625 21.921875 38.8125 
M 18.3125 54.390625 
Q 18.3125 48.734375 21.84375 45.5625 
Q 25.390625 42.390625 31.78125 42.390625 
Q 38.140625 42.390625 41.71875 45.5625 
Q 45.3125 48.734375 45.3125 54.390625 
Q 45.3125 60.0625 41.71875 63.234375 
Q 38.140625 66.40625 31.78125 66.40625 
Q 25.390625 66.40625 21.84375 63.234375 
Q 18.3125 60.0625 18.3125 54.390625 
" id="DejaVuSans-38"/>
    </defs>
    <g style="fill:#f0ad4e;" transform="translate(168.792329 36.256438)scale(0.14 -0.14)">
     <use xlink:href="#DejaVuSans-38"/>
     <use x="63.623047" xlink:href="#DejaVuSans-2e"/>
     <use x="95.410156" xlink:href="#DejaVuSans-31"/>
     <use x="159.033203" xlink:href="#DejaVuSans-30"/>
    </g>
   </g>
   <g id="text_14">
    <!-- Area under the curve -->
    <defs>
     <path d="M 34.1875 63.1875 
L 20.796875 26.90625 
L 47.609375 26.90625 
z
M 28.609375 72.90625 
L 39.796875 72.90625 
L 67.578125 0 
L 57.328125 0 
L 50.6875 18.703125 
L 17.828125 18.703125 
L 11.1875 0 
L 0.78125 0 
z
" id="DejaVuSans-41"/>
     <path d="M 54.890625 33.015625 
L 54.890625 0 
L 45.90625 0 
L 45.90625 32.71875 
Q 45.90625 40.484375 42.875 44.328125 
Q 39.84375 48.1875 33.796875 48.1875 
Q 26.515625 48.1875 22.3125 43.546875 
Q 18.109375 38.921875 18.109375 30.90625 
L 18.109375 0 
L 9.078125 0 
L 9.078125 75.984375 
L 18.109375 75.984375 
L 18.109375 46.1875 
Q 21.34375 51.125 25.703125 53.5625 
Q 30.078125 56 35.796875 56 
Q 45.21875 56 50.046875 50.171875 
Q 54.890625 44.34375 54.890625 33.015625 
" id="DejaVuSans-68"/>
    </defs>
    <g style="fill:#d2d2d2;" transform="translate(224.208 106.032438)scale(0.14 -0.14)">
     <use xlink:href="#DejaVuSans-41"/>
     <use x="68.408203" xlink:href="#DejaVuSans-72"/>
     <use x="109.490234" xlink:href="#DejaVuSans-65"/>
     <use x="171.013672" xlink:href="#DejaVuSans-61"/>
     <use x="232.292969" xlink:href="#DejaVuSans-20"/>
     <use x="264.080078" xlink:href="#DejaVuSans-75"/>
     <use x="327.458984" xlink:href="#DejaVuSans-6e"/>
     <use x="390.837891" xlink:href="#DejaVuSans-64"/>
     <use x="454.314453" xlink:href="#DejaVuSans-65"/>
     <use x="515.837891" xlink:href="#DejaVuSans-72"/>
     <use x="556.951172" xlink:href="#DejaVuSans-20"/>
     <use x="588.738281" xlink:href="#DejaVuSans-74"/>
     <use x="627.947266" xlink:href="#DejaVuSans-68"/>
     <use x="691.326172" xlink:href="#DejaVuSans-65"/>
     <use x="752.849609" xlink:href="#DejaVuSans-20"/>
     <use x="784.636719" xlink:href="#DejaVuSans-63"/>
     <use x="839.617188" xlink:href="#DejaVuSans-75"/>
     <use x="902.996094" xlink:href="#DejaVuSans-72"/>
     <use x="944.109375" xlink:href="#DejaVuSans-76"/>
     <use x="1003.289062" xlink:href="#DejaVuSans-65"/>
    </g>
    <!-- for $\chi^2\geq$8.10 -->
    <defs>
     <path d="M 30.609375 48.390625 
Q 23.390625 48.390625 19.1875 42.75 
Q 14.984375 37.109375 14.984375 27.296875 
Q 14.984375 17.484375 19.15625 11.84375 
Q 23.34375 6.203125 30.609375 6.203125 
Q 37.796875 6.203125 41.984375 11.859375 
Q 46.1875 17.53125 46.1875 27.296875 
Q 46.1875 37.015625 41.984375 42.703125 
Q 37.796875 48.390625 30.609375 48.390625 
M 30.609375 56 
Q 42.328125 56 49.015625 48.375 
Q 55.71875 40.765625 55.71875 27.296875 
Q 55.71875 13.875 49.015625 6.21875 
Q 42.328125 -1.421875 30.609375 -1.421875 
Q 18.84375 -1.421875 12.171875 6.21875 
Q 5.515625 13.875 5.515625 27.296875 
Q 5.515625 40.765625 12.171875 48.375 
Q 18.84375 56 30.609375 56 
" id="DejaVuSans-6f"/>
     <path d="M 10.59375 49.609375 
L 10.59375 58.203125 
L 73.1875 40.28125 
L 73.1875 31.984375 
L 10.59375 14.015625 
L 10.59375 22.703125 
L 57.515625 36.078125 
z
M 73.1875 8.296875 
L 73.1875 0 
L 10.59375 0 
L 10.59375 8.296875 
z
" id="DejaVuSans-2265"/>
    </defs>
    <g style="fill:#d2d2d2;" transform="translate(224.208 124.232)scale(0.14 -0.14)">
     <use transform="translate(0 0.765625)" xlink:href="#DejaVuSans-66"/>
     <use transform="translate(35.205078 0.765625)" xlink:href="#DejaVuSans-6f"/>
     <use transform="translate(96.386719 0.765625)" xlink:href="#DejaVuSans-72"/>
     <use transform="translate(137.5 0.765625)" xlink:href="#DejaVuSans-20"/>
     <use transform="translate(169.287109 0.765625)" xlink:href="#DejaVuSans-Oblique-3c7"/>
     <use transform="translate(232.939505 39.046875)scale(0.7)" xlink:href="#DejaVuSans-32"/>
     <use transform="translate(299.692435 0.765625)" xlink:href="#DejaVuSans-2265"/>
     <use transform="translate(402.963919 0.765625)" xlink:href="#DejaVuSans-38"/>
     <use transform="translate(466.586966 0.765625)" xlink:href="#DejaVuSans-2e"/>
     <use transform="translate(498.374076 0.765625)" xlink:href="#DejaVuSans-31"/>
     <use transform="translate(561.997122 0.765625)" xlink:href="#DejaVuSans-30"/>
    </g>
   </g>
   <g id="text_15">
    <!-- p-value = 0.088 -->
    <defs>
     <path d="M 18.109375 8.203125 
L 18.109375 -20.796875 
L 9.078125 -20.796875 
L 9.078125 54.6875 
L 18.109375 54.6875 
L 18.109375 46.390625 
Q 20.953125 51.265625 25.265625 53.625 
Q 29.59375 56 35.59375 56 
Q 45.5625 56 51.78125 48.09375 
Q 58.015625 40.1875 58.015625 27.296875 
Q 58.015625 14.40625 51.78125 6.484375 
Q 45.5625 -1.421875 35.59375 -1.421875 
Q 29.59375 -1.421875 25.265625 0.953125 
Q 20.953125 3.328125 18.109375 8.203125 
M 48.6875 27.296875 
Q 48.6875 37.203125 44.609375 42.84375 
Q 40.53125 48.484375 33.40625 48.484375 
Q 26.265625 48.484375 22.1875 42.84375 
Q 18.109375 37.203125 18.109375 27.296875 
Q 18.109375 17.390625 22.1875 11.75 
Q 26.265625 6.109375 33.40625 6.109375 
Q 40.53125 6.109375 44.609375 11.75 
Q 48.6875 17.390625 48.6875 27.296875 
" id="DejaVuSans-70"/>
     <path d="M 4.890625 31.390625 
L 31.203125 31.390625 
L 31.203125 23.390625 
L 4.890625 23.390625 
z
" id="DejaVuSans-2d"/>
    </defs>
    <g style="fill:#d9534f;" transform="translate(224.208 164.16)scale(0.14 -0.14)">
     <use xlink:href="#DejaVuSans-70"/>
     <use x="63.476562" xlink:href="#DejaVuSans-2d"/>
     <use x="99.529297" xlink:href="#DejaVuSans-76"/>
     <use x="158.708984" xlink:href="#DejaVuSans-61"/>
     <use x="219.988281" xlink:href="#DejaVuSans-6c"/>
     <use x="247.771484" xlink:href="#DejaVuSans-75"/>
     <use x="311.150391" xlink:href="#DejaVuSans-65"/>
     <use x="372.673828" xlink:href="#DejaVuSans-20"/>
     <use x="404.460938" xlink:href="#DejaVuSans-3d"/>
     <use x="488.25" xlink:href="#DejaVuSans-20"/>
     <use x="520.037109" xlink:href="#DejaVuSans-30"/>
     <use x="583.660156" xlink:href="#DejaVuSans-2e"/>
     <use x="615.447266" xlink:href="#DejaVuSans-30"/>
     <use x="679.070312" xlink:href="#DejaVuSans-38"/>
     <use x="742.693359" xlink:href="#DejaVuSans-38"/>
    </g>
   </g>
  </g>
 </g>
 <defs>
  <clipPath id="ped143b946b">
   <rect height="201.6" width="354.24" x="64.8" y="43.2"/>
  </clipPath>
 </defs>
</svg>
