<?xml version="1.0" encoding="utf-8"?>
<!-- Generator: Adobe Illustrator 16.0.4, SVG Export Plug-In . SVG Version: 6.00 Build 0)  -->
<!DOCTYPE svg PUBLIC "-//W3C//DTD SVG 1.1//EN" "http://www.w3.org/Graphics/SVG/1.1/DTD/svg11.dtd">
<svg version="1.1" xmlns="http://www.w3.org/2000/svg" xmlns:xlink="http://www.w3.org/1999/xlink" x="0px" y="0px" width="72px"
	 height="144px" viewBox="0 0 72 144" style="enable-background:new 0 0 72 144;" xml:space="preserve">
<g id="Layer_6">
	<path style="fill:#FFFF78;" d="M64.725,130.309c0,4.932-2.806,8.93-8.52,8.93H17.589c-5.712,0-8.518-3.998-8.518-8.93v-0.891
		c0-4.932,2.806-8.93,8.518-8.93h38.616c5.714,0,8.52,3.998,8.52,8.93V130.309z"/>
	<g>
		<path d="M22.795,128.025v-4.26h0.672v3.665h2.286v0.595H22.795z"/>
		<path d="M27.499,128.085c-0.248,0-0.471-0.044-0.669-0.132c-0.198-0.088-0.367-0.206-0.507-0.354
			c-0.14-0.148-0.248-0.322-0.324-0.52c-0.076-0.198-0.114-0.405-0.114-0.621c0-0.217,0.038-0.423,0.114-0.621
			c0.076-0.197,0.185-0.371,0.327-0.52c0.142-0.147,0.312-0.266,0.51-0.354c0.198-0.088,0.419-0.132,0.663-0.132
			c0.244,0,0.465,0.044,0.663,0.132c0.198,0.088,0.368,0.206,0.51,0.354c0.142,0.148,0.251,0.322,0.327,0.52
			c0.076,0.198,0.114,0.404,0.114,0.621c0,0.216-0.038,0.423-0.114,0.621c-0.076,0.197-0.185,0.371-0.327,0.52
			c-0.142,0.147-0.312,0.266-0.51,0.354C27.964,128.041,27.743,128.085,27.499,128.085z M26.563,126.465
			c0,0.152,0.024,0.292,0.072,0.42c0.048,0.129,0.114,0.239,0.198,0.333c0.084,0.095,0.183,0.168,0.297,0.222
			c0.114,0.055,0.237,0.082,0.369,0.082c0.132,0,0.255-0.027,0.369-0.082c0.114-0.054,0.213-0.129,0.297-0.225
			s0.15-0.208,0.198-0.336s0.072-0.268,0.072-0.42c0-0.148-0.024-0.287-0.072-0.417s-0.114-0.243-0.198-0.339
			s-0.183-0.172-0.297-0.225c-0.114-0.055-0.237-0.082-0.369-0.082c-0.128,0-0.249,0.028-0.363,0.084
			c-0.114,0.057-0.213,0.133-0.297,0.229s-0.151,0.209-0.201,0.339C26.588,126.178,26.563,126.316,26.563,126.465z"/>
		<path d="M31.111,128.085c-0.248,0-0.471-0.044-0.669-0.132c-0.198-0.088-0.367-0.206-0.507-0.354
			c-0.14-0.148-0.248-0.322-0.324-0.52c-0.076-0.198-0.114-0.405-0.114-0.621c0-0.217,0.038-0.423,0.114-0.621
			c0.076-0.197,0.185-0.371,0.327-0.52c0.142-0.147,0.312-0.266,0.51-0.354c0.198-0.088,0.419-0.132,0.663-0.132
			c0.244,0,0.465,0.044,0.663,0.132c0.198,0.088,0.368,0.206,0.51,0.354c0.142,0.148,0.251,0.322,0.327,0.52
			c0.076,0.198,0.114,0.404,0.114,0.621c0,0.216-0.038,0.423-0.114,0.621c-0.076,0.197-0.185,0.371-0.327,0.52
			c-0.142,0.147-0.312,0.266-0.51,0.354C31.576,128.041,31.354,128.085,31.111,128.085z M30.175,126.465
			c0,0.152,0.024,0.292,0.072,0.42c0.048,0.129,0.114,0.239,0.198,0.333c0.084,0.095,0.183,0.168,0.297,0.222
			c0.114,0.055,0.237,0.082,0.369,0.082c0.132,0,0.255-0.027,0.369-0.082c0.114-0.054,0.213-0.129,0.297-0.225
			s0.15-0.208,0.198-0.336s0.072-0.268,0.072-0.42c0-0.148-0.024-0.287-0.072-0.417s-0.114-0.243-0.198-0.339
			s-0.183-0.172-0.297-0.225c-0.114-0.055-0.237-0.082-0.369-0.082c-0.128,0-0.249,0.028-0.363,0.084
			c-0.114,0.057-0.213,0.133-0.297,0.229s-0.151,0.209-0.201,0.339C30.2,126.178,30.175,126.316,30.175,126.465z"/>
		<path d="M35.497,128.025l-1.002-1.446l-0.522,0.491v0.955h-0.66v-4.381h0.66v2.778l1.44-1.53h0.72l-1.218,1.314l1.284,1.818
			H35.497z"/>
		<path d="M39.774,128.085c-0.239,0-0.457-0.058-0.651-0.171c-0.193-0.114-0.347-0.268-0.459-0.459v0.57h-0.582v-4.381h0.66v1.836
			c0.125-0.199,0.279-0.357,0.465-0.474c0.187-0.116,0.405-0.174,0.658-0.174c0.207,0,0.397,0.045,0.569,0.135
			c0.172,0.091,0.319,0.21,0.44,0.36c0.123,0.15,0.217,0.324,0.283,0.521c0.065,0.198,0.098,0.405,0.098,0.621
			c0,0.225-0.037,0.434-0.113,0.631c-0.076,0.195-0.18,0.366-0.312,0.512c-0.131,0.146-0.289,0.262-0.471,0.346
			S39.982,128.085,39.774,128.085z M39.601,127.521c0.144,0,0.276-0.029,0.396-0.088c0.121-0.058,0.223-0.135,0.31-0.23
			c0.086-0.096,0.153-0.207,0.2-0.333c0.049-0.126,0.072-0.259,0.072-0.399c0-0.14-0.022-0.275-0.068-0.404
			c-0.047-0.131-0.11-0.244-0.192-0.342c-0.082-0.099-0.18-0.178-0.294-0.238c-0.113-0.06-0.238-0.09-0.375-0.09
			c-0.204,0-0.385,0.066-0.543,0.198s-0.279,0.292-0.363,0.479v0.828c0.024,0.093,0.066,0.176,0.127,0.25
			c0.06,0.074,0.129,0.139,0.209,0.194s0.166,0.099,0.258,0.13C39.429,127.506,39.517,127.521,39.601,127.521z"/>
		<path d="M42.685,128.085c-0.151,0-0.293-0.024-0.423-0.075c-0.131-0.05-0.242-0.119-0.336-0.207s-0.168-0.191-0.223-0.312
			c-0.054-0.119-0.08-0.25-0.08-0.389c0-0.148,0.031-0.283,0.096-0.402c0.064-0.12,0.154-0.225,0.273-0.312
			c0.117-0.088,0.258-0.156,0.42-0.203c0.162-0.049,0.34-0.072,0.537-0.072c0.147,0,0.293,0.013,0.438,0.039
			c0.145,0.025,0.273,0.061,0.39,0.104v-0.216c0-0.232-0.065-0.413-0.198-0.543c-0.131-0.131-0.322-0.195-0.569-0.195
			c-0.168,0-0.333,0.031-0.495,0.094c-0.162,0.062-0.329,0.15-0.501,0.267l-0.204-0.421c0.404-0.271,0.824-0.407,1.26-0.407
			c0.432,0,0.768,0.11,1.008,0.33s0.36,0.536,0.36,0.948v1.134c0,0.14,0.058,0.212,0.174,0.216v0.564
			c-0.063,0.012-0.118,0.02-0.165,0.023c-0.046,0.004-0.091,0.006-0.135,0.006c-0.128,0-0.227-0.031-0.297-0.096
			s-0.113-0.146-0.129-0.246l-0.018-0.197c-0.141,0.184-0.313,0.324-0.52,0.422S42.92,128.085,42.685,128.085z M42.865,127.6
			c0.159,0,0.311-0.029,0.452-0.088c0.142-0.058,0.253-0.139,0.333-0.242c0.084-0.072,0.126-0.148,0.126-0.229v-0.414
			c-0.112-0.044-0.231-0.078-0.356-0.102c-0.127-0.024-0.25-0.037-0.369-0.037c-0.236,0-0.43,0.052-0.579,0.154
			c-0.149,0.102-0.226,0.236-0.226,0.404c0,0.156,0.059,0.287,0.174,0.393C42.537,127.546,42.685,127.6,42.865,127.6z"/>
		<path d="M45.031,126.453c0-0.221,0.037-0.428,0.113-0.624s0.186-0.368,0.327-0.517c0.143-0.147,0.313-0.265,0.514-0.351
			c0.199-0.086,0.424-0.129,0.672-0.129c0.323,0,0.603,0.071,0.837,0.213c0.233,0.142,0.408,0.331,0.524,0.567l-0.642,0.203
			c-0.076-0.131-0.178-0.234-0.306-0.309c-0.129-0.074-0.271-0.111-0.427-0.111c-0.132,0-0.255,0.026-0.369,0.078
			c-0.113,0.053-0.213,0.125-0.297,0.219c-0.084,0.095-0.149,0.205-0.197,0.334c-0.049,0.127-0.072,0.27-0.072,0.426
			c0,0.152,0.024,0.293,0.075,0.423c0.05,0.13,0.117,0.243,0.204,0.339c0.086,0.096,0.186,0.171,0.3,0.225
			c0.114,0.055,0.234,0.082,0.362,0.082c0.08,0,0.16-0.012,0.24-0.033c0.08-0.022,0.153-0.053,0.22-0.094
			c0.065-0.039,0.123-0.086,0.174-0.138c0.05-0.052,0.087-0.108,0.11-0.168l0.648,0.192c-0.104,0.236-0.278,0.429-0.522,0.578
			c-0.244,0.15-0.531,0.226-0.863,0.226c-0.244,0-0.467-0.044-0.666-0.132c-0.2-0.088-0.371-0.207-0.514-0.357
			c-0.142-0.15-0.252-0.322-0.33-0.52C45.07,126.881,45.031,126.673,45.031,126.453z"/>
		<path d="M50.772,128.025l-1.002-1.446l-0.522,0.491v0.955h-0.659v-4.381h0.659v2.778l1.44-1.53h0.72l-1.218,1.314l1.284,1.818
			H50.772z"/>
		<path d="M23.122,135.285c-0.152,0-0.293-0.025-0.423-0.075c-0.13-0.05-0.242-0.118-0.336-0.207
			c-0.094-0.088-0.168-0.192-0.222-0.312c-0.054-0.12-0.081-0.25-0.081-0.391c0-0.147,0.032-0.281,0.096-0.402
			c0.064-0.119,0.155-0.223,0.273-0.312c0.118-0.088,0.258-0.155,0.42-0.204c0.162-0.048,0.341-0.072,0.537-0.072
			c0.148,0,0.294,0.014,0.438,0.039c0.144,0.026,0.274,0.062,0.39,0.105v-0.216c0-0.231-0.066-0.413-0.198-0.543
			s-0.322-0.195-0.57-0.195c-0.168,0-0.333,0.031-0.495,0.093c-0.162,0.062-0.329,0.151-0.501,0.268l-0.204-0.42
			c0.404-0.272,0.824-0.408,1.26-0.408c0.432,0,0.768,0.109,1.008,0.33c0.24,0.22,0.36,0.535,0.36,0.947v1.135
			c0,0.14,0.058,0.212,0.174,0.216v0.563c-0.064,0.013-0.119,0.021-0.165,0.024c-0.046,0.004-0.091,0.006-0.135,0.006
			c-0.128,0-0.227-0.032-0.297-0.096c-0.07-0.063-0.113-0.146-0.129-0.246l-0.018-0.198c-0.14,0.184-0.313,0.325-0.519,0.424
			C23.579,135.236,23.358,135.285,23.122,135.285z M23.302,134.799c0.16,0,0.311-0.029,0.453-0.087
			c0.142-0.058,0.253-0.139,0.333-0.243c0.084-0.072,0.126-0.147,0.126-0.228v-0.414c-0.112-0.044-0.231-0.078-0.357-0.103
			c-0.126-0.023-0.249-0.035-0.369-0.035c-0.236,0-0.429,0.051-0.579,0.152c-0.15,0.103-0.225,0.237-0.225,0.405
			c0,0.156,0.058,0.287,0.174,0.394C22.974,134.746,23.122,134.799,23.302,134.799z"/>
		<path d="M28.486,135.225h-0.66v-1.758c0-0.296-0.047-0.511-0.141-0.645c-0.094-0.135-0.233-0.201-0.417-0.201
			c-0.096,0-0.192,0.018-0.288,0.055c-0.096,0.035-0.186,0.086-0.27,0.152s-0.159,0.145-0.225,0.234s-0.117,0.188-0.153,0.297v1.865
			h-0.66v-3.138h0.6v0.63c0.12-0.211,0.294-0.379,0.522-0.5c0.228-0.123,0.48-0.184,0.756-0.184c0.188,0,0.342,0.033,0.462,0.102
			c0.12,0.068,0.215,0.162,0.285,0.279c0.07,0.118,0.119,0.254,0.147,0.408s0.042,0.316,0.042,0.488V135.225z"/>
		<path d="M30.532,135.285c-0.212,0-0.408-0.043-0.588-0.129s-0.336-0.203-0.468-0.352c-0.132-0.147-0.235-0.32-0.309-0.519
			c-0.074-0.198-0.111-0.411-0.111-0.64c0-0.219,0.035-0.426,0.105-0.621c0.07-0.193,0.168-0.364,0.294-0.512
			c0.126-0.148,0.274-0.266,0.444-0.352s0.357-0.129,0.561-0.129c0.252,0,0.474,0.061,0.666,0.184
			c0.192,0.121,0.342,0.276,0.45,0.465v-1.836h0.66v3.6c0,0.076,0.013,0.13,0.039,0.162c0.026,0.031,0.073,0.05,0.141,0.054v0.563
			c-0.068,0.013-0.123,0.021-0.165,0.024s-0.077,0.006-0.105,0.006c-0.132,0-0.24-0.034-0.324-0.102
			c-0.084-0.068-0.13-0.156-0.138-0.265l-0.012-0.233c-0.116,0.196-0.274,0.351-0.474,0.462
			C30.998,135.229,30.776,135.285,30.532,135.285z M30.694,134.721c0.096,0,0.192-0.016,0.288-0.047
			c0.096-0.033,0.184-0.076,0.264-0.133c0.08-0.056,0.149-0.122,0.207-0.197c0.058-0.076,0.099-0.158,0.123-0.246v-0.822
			c-0.036-0.1-0.087-0.192-0.153-0.276s-0.141-0.155-0.225-0.216s-0.173-0.105-0.267-0.139c-0.094-0.031-0.189-0.047-0.285-0.047
			c-0.132,0-0.253,0.029-0.363,0.09c-0.11,0.06-0.205,0.14-0.285,0.24c-0.08,0.1-0.143,0.213-0.189,0.342
			c-0.046,0.127-0.069,0.26-0.069,0.396c0,0.144,0.025,0.28,0.075,0.408c0.05,0.128,0.119,0.239,0.207,0.336
			c0.088,0.096,0.189,0.172,0.303,0.228C30.439,134.693,30.562,134.721,30.694,134.721z"/>
		<path d="M35.392,135.285c-0.152,0-0.293-0.025-0.423-0.075c-0.13-0.05-0.242-0.118-0.336-0.207
			c-0.094-0.088-0.168-0.192-0.222-0.312c-0.054-0.12-0.081-0.25-0.081-0.391c0-0.147,0.032-0.281,0.096-0.402
			c0.064-0.119,0.155-0.223,0.273-0.312c0.118-0.088,0.258-0.155,0.42-0.204c0.162-0.048,0.341-0.072,0.537-0.072
			c0.148,0,0.294,0.014,0.438,0.039c0.144,0.026,0.274,0.062,0.39,0.105v-0.216c0-0.231-0.066-0.413-0.198-0.543
			s-0.322-0.195-0.57-0.195c-0.168,0-0.333,0.031-0.495,0.093c-0.162,0.062-0.329,0.151-0.501,0.268l-0.204-0.42
			c0.404-0.272,0.824-0.408,1.26-0.408c0.432,0,0.768,0.109,1.008,0.33c0.24,0.22,0.36,0.535,0.36,0.947v1.135
			c0,0.14,0.058,0.212,0.174,0.216v0.563c-0.064,0.013-0.119,0.021-0.165,0.024c-0.046,0.004-0.091,0.006-0.135,0.006
			c-0.128,0-0.227-0.032-0.297-0.096c-0.07-0.063-0.113-0.146-0.129-0.246l-0.018-0.198c-0.14,0.184-0.313,0.325-0.519,0.424
			C35.849,135.236,35.627,135.285,35.392,135.285z M35.572,134.799c0.16,0,0.311-0.029,0.453-0.087
			c0.142-0.058,0.253-0.139,0.333-0.243c0.084-0.072,0.126-0.147,0.126-0.228v-0.414c-0.112-0.044-0.231-0.078-0.357-0.103
			c-0.126-0.023-0.249-0.035-0.369-0.035c-0.236,0-0.429,0.051-0.579,0.152c-0.15,0.103-0.225,0.237-0.225,0.405
			c0,0.156,0.058,0.287,0.174,0.394C35.244,134.746,35.392,134.799,35.572,134.799z"/>
		<path d="M40.756,135.225h-0.66v-1.758c0-0.287-0.051-0.5-0.153-0.639s-0.249-0.207-0.44-0.207c-0.093,0-0.185,0.018-0.276,0.055
			c-0.093,0.035-0.179,0.086-0.261,0.152s-0.155,0.145-0.219,0.234c-0.064,0.09-0.113,0.188-0.145,0.297v1.865h-0.66v-4.379h0.66
			v1.871c0.119-0.216,0.283-0.384,0.488-0.504c0.207-0.119,0.432-0.18,0.676-0.18c0.195,0,0.357,0.035,0.482,0.105
			c0.127,0.069,0.228,0.162,0.303,0.278c0.076,0.116,0.129,0.251,0.16,0.405c0.029,0.154,0.045,0.316,0.045,0.488V135.225z"/>
		<path d="M42.945,135.285c-0.244,0-0.466-0.043-0.666-0.129c-0.199-0.086-0.371-0.203-0.513-0.352
			c-0.142-0.147-0.252-0.319-0.33-0.516c-0.078-0.195-0.117-0.404-0.117-0.624s0.039-0.429,0.117-0.627s0.188-0.372,0.33-0.522
			c0.142-0.149,0.313-0.268,0.513-0.354c0.2-0.086,0.424-0.129,0.672-0.129c0.244,0,0.465,0.044,0.663,0.132
			s0.367,0.205,0.507,0.351c0.141,0.146,0.247,0.316,0.321,0.51c0.074,0.195,0.11,0.398,0.11,0.609c0,0.049-0.002,0.094-0.006,0.135
			c-0.004,0.043-0.008,0.078-0.012,0.105h-2.514c0.012,0.141,0.045,0.266,0.1,0.378c0.053,0.112,0.123,0.21,0.209,0.291
			c0.086,0.082,0.184,0.146,0.295,0.188c0.109,0.045,0.225,0.066,0.344,0.066c0.089,0,0.176-0.011,0.262-0.033
			c0.086-0.021,0.165-0.054,0.236-0.096c0.072-0.042,0.137-0.093,0.193-0.152c0.055-0.061,0.1-0.127,0.131-0.198l0.564,0.161
			c-0.107,0.236-0.287,0.43-0.537,0.58C43.568,135.21,43.277,135.285,42.945,135.285z M43.899,133.419
			c-0.013-0.132-0.045-0.254-0.099-0.366c-0.055-0.111-0.123-0.207-0.207-0.285s-0.182-0.139-0.295-0.183
			c-0.111-0.044-0.229-0.065-0.354-0.065s-0.24,0.021-0.352,0.065c-0.109,0.044-0.207,0.104-0.291,0.183s-0.151,0.174-0.203,0.285
			c-0.053,0.112-0.084,0.234-0.096,0.366H43.899z"/>
		<path d="M45.928,135.285c-0.152,0-0.294-0.025-0.424-0.075s-0.242-0.118-0.336-0.207c-0.094-0.088-0.168-0.192-0.222-0.312
			c-0.054-0.12-0.081-0.25-0.081-0.391c0-0.147,0.032-0.281,0.096-0.402c0.064-0.119,0.155-0.223,0.273-0.312
			c0.118-0.088,0.258-0.155,0.42-0.204c0.162-0.048,0.341-0.072,0.537-0.072c0.147,0,0.294,0.014,0.438,0.039
			c0.145,0.026,0.274,0.062,0.391,0.105v-0.216c0-0.231-0.066-0.413-0.198-0.543s-0.322-0.195-0.57-0.195
			c-0.168,0-0.333,0.031-0.495,0.093c-0.161,0.062-0.329,0.151-0.501,0.268l-0.204-0.42c0.404-0.272,0.824-0.408,1.261-0.408
			c0.432,0,0.768,0.109,1.008,0.33c0.24,0.22,0.36,0.535,0.36,0.947v1.135c0,0.14,0.058,0.212,0.174,0.216v0.563
			c-0.064,0.013-0.119,0.021-0.165,0.024s-0.091,0.006-0.135,0.006c-0.129,0-0.228-0.032-0.298-0.096
			c-0.069-0.063-0.112-0.146-0.129-0.246l-0.018-0.198c-0.141,0.184-0.313,0.325-0.52,0.424
			C46.384,135.236,46.163,135.285,45.928,135.285z M46.107,134.799c0.16,0,0.311-0.029,0.453-0.087
			c0.142-0.058,0.253-0.139,0.333-0.243c0.084-0.072,0.126-0.147,0.126-0.228v-0.414c-0.112-0.044-0.231-0.078-0.357-0.103
			c-0.126-0.023-0.249-0.035-0.369-0.035c-0.235,0-0.429,0.051-0.579,0.152c-0.149,0.103-0.225,0.237-0.225,0.405
			c0,0.156,0.058,0.287,0.174,0.394C45.779,134.746,45.928,134.799,46.107,134.799z"/>
		<path d="M49.755,135.285c-0.212,0-0.408-0.043-0.588-0.129s-0.336-0.203-0.468-0.352c-0.132-0.147-0.235-0.32-0.31-0.519
			c-0.073-0.198-0.11-0.411-0.11-0.64c0-0.219,0.035-0.426,0.104-0.621c0.07-0.193,0.168-0.364,0.294-0.512
			c0.126-0.148,0.274-0.266,0.444-0.352s0.357-0.129,0.561-0.129c0.252,0,0.475,0.061,0.666,0.184
			c0.192,0.121,0.343,0.276,0.45,0.465v-1.836h0.66v3.6c0,0.076,0.013,0.13,0.039,0.162c0.026,0.031,0.073,0.05,0.141,0.054v0.563
			c-0.067,0.013-0.123,0.021-0.165,0.024s-0.076,0.006-0.104,0.006c-0.132,0-0.24-0.034-0.324-0.102
			c-0.084-0.068-0.13-0.156-0.138-0.265l-0.012-0.233c-0.116,0.196-0.274,0.351-0.475,0.462S49.999,135.285,49.755,135.285z
			 M49.917,134.721c0.096,0,0.192-0.016,0.288-0.047c0.096-0.033,0.184-0.076,0.264-0.133c0.08-0.056,0.149-0.122,0.207-0.197
			c0.059-0.076,0.1-0.158,0.123-0.246v-0.822c-0.036-0.1-0.087-0.192-0.152-0.276c-0.066-0.084-0.142-0.155-0.226-0.216
			s-0.173-0.105-0.267-0.139c-0.095-0.031-0.189-0.047-0.285-0.047c-0.132,0-0.253,0.029-0.363,0.09
			c-0.11,0.06-0.205,0.14-0.285,0.24c-0.08,0.1-0.143,0.213-0.188,0.342c-0.046,0.127-0.069,0.26-0.069,0.396
			c0,0.144,0.025,0.28,0.075,0.408s0.119,0.239,0.207,0.336c0.088,0.096,0.188,0.172,0.303,0.228
			C49.662,134.693,49.785,134.721,49.917,134.721z"/>
	</g>
	<g>
		<g>
			
				<line style="fill:none;stroke:#FF695D;stroke-linecap:round;stroke-miterlimit:10;" x1="36.898" y1="115.988" x2="36.898" y2="120.504"/>
			<g>
				<polygon style="fill:#FF695D;" points="35.046,119.1 36.898,119.886 38.75,119.1 36.898,123.488 				"/>
			</g>
		</g>
	</g>
</g>
<g id="Layer_5">
	<path style="fill:#FFFF78;" d="M64.725,107.03c0,4.932-2.806,8.93-8.52,8.93H17.589c-5.712,0-8.518-3.998-8.518-8.93v-0.891
		c0-4.932,2.806-8.93,8.518-8.93h38.616c5.714,0,8.52,3.998,8.52,8.93V107.03z"/>
	<g>
		<path d="M22.777,104.746v-4.26h2.838v0.594h-2.166v1.271h1.812v0.559h-1.812v1.836H22.777z"/>
		<path d="M27.373,104.806c-0.248,0-0.471-0.044-0.669-0.132c-0.198-0.088-0.367-0.206-0.507-0.354
			c-0.14-0.148-0.248-0.322-0.324-0.52c-0.076-0.198-0.114-0.405-0.114-0.621c0-0.217,0.038-0.423,0.114-0.621
			c0.076-0.197,0.185-0.371,0.327-0.52c0.142-0.147,0.312-0.266,0.51-0.354c0.198-0.088,0.419-0.132,0.663-0.132
			c0.244,0,0.465,0.044,0.663,0.132c0.198,0.088,0.368,0.206,0.51,0.354c0.142,0.148,0.251,0.322,0.327,0.52
			c0.076,0.198,0.114,0.404,0.114,0.621c0,0.216-0.038,0.423-0.114,0.621c-0.076,0.197-0.185,0.371-0.327,0.52
			c-0.142,0.147-0.312,0.266-0.51,0.354C27.838,104.762,27.617,104.806,27.373,104.806z M26.437,103.186
			c0,0.152,0.024,0.292,0.072,0.42c0.048,0.129,0.114,0.239,0.198,0.333c0.084,0.095,0.183,0.168,0.297,0.222
			c0.114,0.055,0.237,0.082,0.369,0.082c0.132,0,0.255-0.027,0.369-0.082c0.114-0.054,0.213-0.129,0.297-0.225
			s0.15-0.208,0.198-0.336s0.072-0.268,0.072-0.42c0-0.148-0.024-0.287-0.072-0.417s-0.114-0.243-0.198-0.339
			s-0.183-0.172-0.297-0.225c-0.114-0.055-0.237-0.082-0.369-0.082c-0.128,0-0.249,0.028-0.363,0.084
			c-0.114,0.057-0.213,0.133-0.297,0.229s-0.151,0.209-0.201,0.339C26.462,102.898,26.437,103.037,26.437,103.186z"/>
		<path d="M31.339,102.178c-0.256,0.008-0.483,0.066-0.681,0.177c-0.198,0.11-0.339,0.267-0.423,0.472v1.92h-0.66v-3.139h0.612
			v0.702c0.108-0.216,0.249-0.39,0.423-0.519c0.174-0.131,0.361-0.201,0.561-0.213c0.04,0,0.073,0,0.099,0
			c0.026,0,0.049,0.002,0.069,0.006V102.178z"/>
		<path d="M36.619,104.746h-0.66v-1.758c0-0.293-0.048-0.507-0.144-0.643c-0.096-0.137-0.236-0.204-0.42-0.204
			c-0.188,0-0.359,0.069-0.513,0.207s-0.265,0.317-0.333,0.537v1.86h-0.66v-1.758c0-0.297-0.048-0.512-0.144-0.646
			c-0.096-0.134-0.234-0.201-0.414-0.201c-0.188,0-0.36,0.067-0.516,0.204c-0.156,0.136-0.268,0.314-0.336,0.533v1.867h-0.66v-3.139
			h0.6v0.631c0.124-0.221,0.287-0.39,0.489-0.508c0.202-0.117,0.433-0.177,0.693-0.177c0.26,0,0.465,0.067,0.615,0.204
			c0.15,0.136,0.243,0.306,0.279,0.51c0.132-0.232,0.298-0.408,0.498-0.531c0.2-0.121,0.428-0.183,0.684-0.183
			c0.184,0,0.337,0.035,0.459,0.104c0.122,0.07,0.219,0.164,0.291,0.279c0.072,0.116,0.122,0.251,0.15,0.405
			c0.028,0.153,0.042,0.317,0.042,0.489V104.746z"/>
		<path d="M38.347,104.806c-0.328,0-0.576-0.106-0.744-0.321c-0.168-0.214-0.252-0.533-0.252-0.957v-1.92h0.66v1.788
			c0,0.563,0.2,0.847,0.601,0.847c0.188,0,0.365-0.059,0.533-0.175s0.299-0.284,0.391-0.504v-1.956h0.66v2.358
			c0,0.075,0.013,0.13,0.039,0.161c0.025,0.033,0.072,0.051,0.141,0.055v0.564c-0.068,0.012-0.124,0.02-0.168,0.023
			c-0.045,0.004-0.086,0.006-0.126,0.006c-0.12,0-0.222-0.033-0.306-0.099s-0.129-0.151-0.133-0.255l-0.012-0.312
			c-0.141,0.229-0.322,0.401-0.546,0.52C38.861,104.746,38.615,104.806,38.347,104.806z"/>
		<path d="M41.041,100.365h0.66v3.475c0,0.115,0.029,0.207,0.09,0.273c0.06,0.065,0.144,0.098,0.252,0.098
			c0.043,0,0.095-0.008,0.152-0.023c0.059-0.016,0.113-0.033,0.166-0.054l0.096,0.516c-0.096,0.044-0.211,0.079-0.342,0.104
			c-0.133,0.027-0.25,0.039-0.354,0.039c-0.228,0-0.405-0.062-0.531-0.186c-0.126-0.123-0.188-0.3-0.188-0.527V100.365z"/>
		<path d="M43.675,104.806c-0.151,0-0.293-0.024-0.423-0.075c-0.131-0.05-0.242-0.119-0.336-0.207s-0.168-0.191-0.223-0.312
			c-0.054-0.119-0.08-0.25-0.08-0.389c0-0.148,0.031-0.283,0.096-0.402c0.064-0.12,0.154-0.225,0.273-0.312
			c0.117-0.088,0.258-0.156,0.42-0.203c0.162-0.049,0.34-0.072,0.537-0.072c0.147,0,0.293,0.013,0.438,0.039
			c0.145,0.025,0.274,0.061,0.39,0.104v-0.216c0-0.232-0.066-0.413-0.198-0.543c-0.131-0.131-0.322-0.195-0.569-0.195
			c-0.168,0-0.333,0.031-0.495,0.094c-0.162,0.062-0.329,0.15-0.501,0.267l-0.204-0.421c0.404-0.271,0.824-0.407,1.26-0.407
			c0.432,0,0.769,0.11,1.009,0.33c0.239,0.22,0.359,0.536,0.359,0.948v1.134c0,0.14,0.059,0.212,0.174,0.216v0.564
			c-0.064,0.012-0.119,0.02-0.164,0.023c-0.047,0.004-0.092,0.006-0.136,0.006c-0.128,0-0.228-0.031-0.297-0.096
			c-0.07-0.064-0.113-0.146-0.129-0.246l-0.019-0.197c-0.14,0.184-0.312,0.324-0.519,0.422S43.91,104.806,43.675,104.806z
			 M43.855,104.32c0.159,0,0.311-0.029,0.452-0.088c0.142-0.058,0.253-0.139,0.333-0.242c0.084-0.072,0.126-0.148,0.126-0.229
			v-0.414c-0.111-0.044-0.231-0.078-0.356-0.102c-0.127-0.024-0.25-0.037-0.369-0.037c-0.236,0-0.43,0.052-0.579,0.154
			c-0.149,0.102-0.226,0.236-0.226,0.404c0,0.156,0.059,0.287,0.174,0.393C43.527,104.267,43.675,104.32,43.855,104.32z"/>
		<path d="M47.947,104.584c-0.084,0.039-0.199,0.084-0.348,0.135c-0.148,0.05-0.306,0.074-0.474,0.074
			c-0.104,0-0.202-0.014-0.294-0.041c-0.093-0.028-0.174-0.07-0.243-0.127c-0.07-0.055-0.125-0.129-0.165-0.219
			s-0.061-0.199-0.061-0.326v-1.963h-0.414v-0.51h0.414v-1.031h0.66v1.031h0.685v0.51h-0.685v1.752
			c0.008,0.112,0.043,0.193,0.105,0.244c0.062,0.049,0.139,0.074,0.23,0.074s0.181-0.016,0.265-0.048s0.146-0.058,0.186-0.078
			L47.947,104.584z"/>
		<path d="M49.748,104.806c-0.244,0-0.467-0.043-0.666-0.129c-0.2-0.086-0.371-0.203-0.514-0.351
			c-0.142-0.148-0.252-0.32-0.33-0.517c-0.077-0.196-0.116-0.403-0.116-0.624c0-0.22,0.039-0.429,0.116-0.627
			c0.078-0.197,0.188-0.372,0.33-0.521c0.143-0.15,0.313-0.269,0.514-0.354c0.199-0.086,0.424-0.129,0.672-0.129
			c0.244,0,0.465,0.044,0.663,0.132c0.197,0.088,0.366,0.205,0.507,0.352c0.14,0.146,0.247,0.315,0.321,0.51
			c0.073,0.193,0.11,0.396,0.11,0.609c0,0.047-0.002,0.092-0.006,0.135c-0.004,0.041-0.008,0.076-0.012,0.104h-2.515
			c0.013,0.14,0.046,0.267,0.1,0.378c0.054,0.112,0.124,0.209,0.21,0.291s0.184,0.145,0.294,0.189
			c0.11,0.044,0.225,0.066,0.345,0.066c0.088,0,0.175-0.012,0.261-0.033c0.087-0.022,0.165-0.055,0.237-0.097
			s0.136-0.093,0.192-0.153c0.056-0.06,0.1-0.125,0.132-0.197l0.563,0.162c-0.107,0.236-0.286,0.429-0.536,0.578
			C50.371,104.73,50.08,104.806,49.748,104.806z M50.702,102.939c-0.013-0.132-0.046-0.254-0.1-0.365
			c-0.054-0.113-0.123-0.207-0.207-0.285s-0.182-0.139-0.294-0.184c-0.112-0.044-0.229-0.066-0.354-0.066s-0.241,0.022-0.352,0.066
			c-0.109,0.045-0.207,0.105-0.291,0.184s-0.151,0.172-0.204,0.285c-0.052,0.111-0.084,0.233-0.096,0.365H50.702z"/>
		<path d="M20.125,110.374c0-0.22,0.038-0.429,0.114-0.624c0.076-0.196,0.185-0.368,0.327-0.516
			c0.142-0.148,0.313-0.266,0.513-0.352s0.424-0.129,0.672-0.129c0.324,0,0.603,0.07,0.837,0.213
			c0.234,0.143,0.409,0.331,0.525,0.566l-0.642,0.205c-0.076-0.133-0.178-0.235-0.306-0.31c-0.128-0.073-0.27-0.11-0.426-0.11
			c-0.132,0-0.255,0.025-0.369,0.078c-0.114,0.051-0.213,0.125-0.297,0.219s-0.15,0.205-0.198,0.332
			c-0.048,0.129-0.072,0.271-0.072,0.427c0,0.151,0.025,0.293,0.075,0.423c0.05,0.13,0.118,0.243,0.204,0.339
			c0.086,0.097,0.186,0.171,0.3,0.226c0.114,0.054,0.235,0.08,0.363,0.08c0.08,0,0.16-0.011,0.24-0.033
			c0.08-0.021,0.153-0.053,0.219-0.092c0.066-0.041,0.124-0.086,0.174-0.139c0.05-0.052,0.087-0.107,0.111-0.168l0.648,0.191
			c-0.104,0.236-0.278,0.43-0.522,0.58c-0.244,0.149-0.532,0.225-0.864,0.225c-0.244,0-0.466-0.044-0.666-0.132
			c-0.2-0.089-0.371-0.207-0.513-0.357c-0.142-0.149-0.252-0.323-0.33-0.519C20.164,110.802,20.125,110.594,20.125,110.374z"/>
		<path d="M25.063,112.006c-0.248,0-0.471-0.044-0.669-0.132c-0.198-0.089-0.367-0.206-0.507-0.354
			c-0.14-0.147-0.248-0.32-0.324-0.519c-0.076-0.198-0.114-0.405-0.114-0.621s0.038-0.423,0.114-0.621
			c0.076-0.198,0.185-0.371,0.327-0.519c0.142-0.148,0.312-0.267,0.51-0.354c0.198-0.088,0.419-0.132,0.663-0.132
			c0.244,0,0.465,0.044,0.663,0.132c0.198,0.088,0.368,0.206,0.51,0.354c0.142,0.147,0.251,0.32,0.327,0.519
			c0.076,0.198,0.114,0.405,0.114,0.621s-0.038,0.423-0.114,0.621c-0.076,0.198-0.185,0.371-0.327,0.519
			c-0.142,0.148-0.312,0.266-0.51,0.354C25.528,111.962,25.307,112.006,25.063,112.006z M24.127,110.386
			c0,0.152,0.024,0.292,0.072,0.42c0.048,0.128,0.114,0.239,0.198,0.333s0.183,0.168,0.297,0.223c0.114,0.054,0.237,0.08,0.369,0.08
			c0.132,0,0.255-0.026,0.369-0.08c0.114-0.055,0.213-0.129,0.297-0.226c0.084-0.096,0.15-0.208,0.198-0.336S26,110.531,26,110.38
			c0-0.147-0.024-0.287-0.072-0.417s-0.114-0.243-0.198-0.339c-0.084-0.097-0.183-0.171-0.297-0.226
			c-0.114-0.054-0.237-0.08-0.369-0.08c-0.128,0-0.249,0.027-0.363,0.084c-0.114,0.056-0.213,0.131-0.297,0.228
			c-0.084,0.096-0.151,0.209-0.201,0.339C24.152,110.099,24.127,110.238,24.127,110.386z"/>
		<path d="M30.079,111.945h-0.66v-1.758c0-0.296-0.047-0.511-0.141-0.645c-0.094-0.135-0.233-0.201-0.417-0.201
			c-0.096,0-0.192,0.018-0.288,0.055c-0.096,0.035-0.186,0.086-0.27,0.152s-0.159,0.145-0.225,0.234s-0.117,0.188-0.153,0.297v1.865
			h-0.66v-3.138h0.6v0.63c0.12-0.211,0.294-0.379,0.522-0.5c0.228-0.123,0.48-0.184,0.756-0.184c0.188,0,0.342,0.033,0.462,0.102
			c0.12,0.068,0.215,0.162,0.285,0.279c0.07,0.118,0.119,0.254,0.147,0.408s0.042,0.316,0.042,0.488V111.945z"/>
		<path d="M30.643,110.374c0-0.22,0.038-0.429,0.114-0.624c0.076-0.196,0.185-0.368,0.327-0.516
			c0.142-0.148,0.313-0.266,0.513-0.352s0.424-0.129,0.672-0.129c0.324,0,0.603,0.07,0.837,0.213
			c0.234,0.143,0.409,0.331,0.525,0.566l-0.642,0.205c-0.076-0.133-0.178-0.235-0.306-0.31c-0.128-0.073-0.27-0.11-0.426-0.11
			c-0.132,0-0.255,0.025-0.369,0.078c-0.114,0.051-0.213,0.125-0.297,0.219s-0.15,0.205-0.198,0.332
			c-0.048,0.129-0.072,0.271-0.072,0.427c0,0.151,0.025,0.293,0.075,0.423c0.05,0.13,0.118,0.243,0.204,0.339
			c0.086,0.097,0.186,0.171,0.3,0.226c0.114,0.054,0.235,0.08,0.363,0.08c0.08,0,0.16-0.011,0.24-0.033
			c0.08-0.021,0.153-0.053,0.219-0.092c0.066-0.041,0.124-0.086,0.174-0.139c0.05-0.052,0.087-0.107,0.111-0.168l0.648,0.191
			c-0.104,0.236-0.278,0.43-0.522,0.58c-0.244,0.149-0.532,0.225-0.864,0.225c-0.244,0-0.466-0.044-0.666-0.132
			c-0.2-0.089-0.371-0.207-0.513-0.357c-0.142-0.149-0.252-0.323-0.33-0.519C30.682,110.802,30.643,110.594,30.643,110.374z"/>
		<path d="M34.207,107.566h0.66v3.474c0,0.116,0.03,0.206,0.09,0.272s0.144,0.1,0.252,0.1c0.044,0,0.095-0.008,0.153-0.024
			c0.058-0.016,0.113-0.034,0.165-0.054l0.096,0.516c-0.096,0.045-0.21,0.079-0.342,0.105c-0.132,0.025-0.25,0.039-0.354,0.039
			c-0.228,0-0.405-0.062-0.531-0.187s-0.189-0.3-0.189-0.528V107.566z"/>
		<path d="M36.973,112.006c-0.328,0-0.576-0.107-0.744-0.321s-0.252-0.532-0.252-0.956v-1.921h0.66v1.788
			c0,0.564,0.2,0.846,0.6,0.846c0.188,0,0.366-0.058,0.534-0.174c0.168-0.115,0.298-0.283,0.39-0.504v-1.956h0.66v2.358
			c0,0.076,0.013,0.13,0.039,0.162c0.026,0.031,0.073,0.05,0.142,0.054v0.563c-0.068,0.013-0.125,0.021-0.168,0.024
			c-0.045,0.004-0.087,0.006-0.127,0.006c-0.119,0-0.222-0.032-0.306-0.099s-0.128-0.15-0.132-0.256l-0.012-0.312
			c-0.141,0.228-0.323,0.401-0.546,0.519C37.487,111.947,37.241,112.006,36.973,112.006z"/>
		<path d="M40.801,112.006c-0.252,0-0.503-0.041-0.752-0.123c-0.25-0.082-0.466-0.199-0.646-0.352l0.264-0.42
			c0.188,0.137,0.374,0.24,0.558,0.31c0.185,0.069,0.373,0.104,0.564,0.104c0.195,0,0.352-0.037,0.465-0.113
			c0.114-0.076,0.172-0.184,0.172-0.324c0-0.133-0.064-0.229-0.193-0.288c-0.127-0.06-0.327-0.126-0.6-0.198
			c-0.195-0.052-0.363-0.102-0.504-0.15c-0.14-0.047-0.254-0.104-0.342-0.168c-0.088-0.063-0.152-0.137-0.191-0.221
			c-0.041-0.084-0.061-0.187-0.061-0.307c0-0.16,0.031-0.303,0.093-0.426c0.062-0.124,0.147-0.229,0.259-0.315
			c0.109-0.086,0.238-0.151,0.387-0.194c0.147-0.045,0.308-0.066,0.479-0.066c0.236,0,0.456,0.036,0.66,0.107
			c0.204,0.072,0.386,0.177,0.546,0.312l-0.281,0.396c-0.293-0.232-0.603-0.349-0.931-0.349c-0.168,0-0.31,0.035-0.423,0.104
			c-0.114,0.07-0.171,0.182-0.171,0.334c0,0.063,0.012,0.117,0.036,0.162c0.023,0.043,0.062,0.082,0.117,0.113
			c0.054,0.032,0.123,0.062,0.209,0.088c0.086,0.025,0.193,0.055,0.321,0.086c0.212,0.053,0.396,0.104,0.55,0.156
			c0.153,0.053,0.28,0.113,0.381,0.184c0.1,0.07,0.174,0.152,0.222,0.246s0.071,0.207,0.071,0.338c0,0.301-0.112,0.537-0.338,0.711
			C41.496,111.919,41.189,112.006,40.801,112.006z"/>
		<path d="M42.637,108.292v-0.726h0.66v0.726H42.637z M42.637,111.945v-3.138h0.66v3.138H42.637z"/>
		<path d="M45.499,112.006c-0.248,0-0.471-0.044-0.669-0.132c-0.198-0.089-0.367-0.206-0.507-0.354
			c-0.14-0.147-0.248-0.32-0.323-0.519c-0.076-0.198-0.115-0.405-0.115-0.621s0.039-0.423,0.115-0.621
			c0.075-0.198,0.185-0.371,0.326-0.519c0.143-0.148,0.312-0.267,0.51-0.354s0.419-0.132,0.663-0.132s0.466,0.044,0.663,0.132
			c0.198,0.088,0.368,0.206,0.51,0.354c0.143,0.147,0.251,0.32,0.327,0.519s0.114,0.405,0.114,0.621s-0.038,0.423-0.114,0.621
			s-0.185,0.371-0.327,0.519c-0.142,0.148-0.312,0.266-0.51,0.354C45.965,111.962,45.743,112.006,45.499,112.006z M44.563,110.386
			c0,0.152,0.024,0.292,0.072,0.42s0.113,0.239,0.197,0.333s0.184,0.168,0.297,0.223c0.114,0.054,0.237,0.08,0.369,0.08
			c0.133,0,0.255-0.026,0.369-0.08c0.114-0.055,0.213-0.129,0.297-0.226c0.084-0.096,0.15-0.208,0.198-0.336s0.072-0.269,0.072-0.42
			c0-0.147-0.024-0.287-0.072-0.417s-0.114-0.243-0.198-0.339c-0.084-0.097-0.183-0.171-0.297-0.226
			c-0.114-0.054-0.236-0.08-0.369-0.08c-0.128,0-0.249,0.027-0.362,0.084c-0.114,0.056-0.213,0.131-0.297,0.228
			c-0.085,0.096-0.151,0.209-0.202,0.339C44.588,110.099,44.563,110.238,44.563,110.386z"/>
		<path d="M50.515,111.945h-0.66v-1.758c0-0.296-0.047-0.511-0.141-0.645c-0.094-0.135-0.233-0.201-0.417-0.201
			c-0.096,0-0.192,0.018-0.288,0.055c-0.096,0.035-0.187,0.086-0.271,0.152s-0.158,0.145-0.225,0.234s-0.117,0.188-0.153,0.297
			v1.865h-0.659v-3.138h0.6v0.63c0.12-0.211,0.294-0.379,0.521-0.5c0.229-0.123,0.48-0.184,0.757-0.184
			c0.188,0,0.342,0.033,0.462,0.102s0.215,0.162,0.285,0.279c0.069,0.118,0.118,0.254,0.146,0.408s0.042,0.316,0.042,0.488V111.945z
			"/>
		<path d="M52.423,112.006c-0.252,0-0.503-0.041-0.753-0.123s-0.465-0.199-0.646-0.352l0.265-0.42
			c0.188,0.137,0.374,0.24,0.558,0.31s0.372,0.104,0.564,0.104c0.195,0,0.351-0.037,0.465-0.113
			c0.113-0.076,0.171-0.184,0.171-0.324c0-0.133-0.064-0.229-0.192-0.288s-0.328-0.126-0.6-0.198
			c-0.196-0.052-0.364-0.102-0.504-0.15c-0.141-0.047-0.254-0.104-0.342-0.168c-0.089-0.063-0.152-0.137-0.192-0.221
			s-0.061-0.187-0.061-0.307c0-0.16,0.031-0.303,0.094-0.426c0.062-0.124,0.147-0.229,0.258-0.315
			c0.11-0.086,0.239-0.151,0.387-0.194c0.148-0.045,0.309-0.066,0.48-0.066c0.235,0,0.456,0.036,0.66,0.107
			c0.203,0.072,0.386,0.177,0.546,0.312l-0.282,0.396c-0.292-0.232-0.603-0.349-0.93-0.349c-0.168,0-0.31,0.035-0.424,0.104
			c-0.113,0.07-0.171,0.182-0.171,0.334c0,0.063,0.013,0.117,0.036,0.162c0.024,0.043,0.063,0.082,0.117,0.113
			c0.054,0.032,0.124,0.062,0.21,0.088c0.086,0.025,0.193,0.055,0.321,0.086c0.212,0.053,0.395,0.104,0.549,0.156
			c0.154,0.053,0.281,0.113,0.381,0.184s0.174,0.152,0.222,0.246c0.049,0.094,0.072,0.207,0.072,0.338
			c0,0.301-0.113,0.537-0.339,0.711C53.118,111.919,52.811,112.006,52.423,112.006z"/>
	</g>
	<g>
		<g>
			
				<line style="fill:none;stroke:#FF695D;stroke-linecap:round;stroke-miterlimit:10;" x1="36.898" y1="92.572" x2="36.898" y2="97.088"/>
			<g>
				<polygon style="fill:#FF695D;" points="35.046,95.684 36.898,96.47 38.75,95.684 36.898,100.072 				"/>
			</g>
		</g>
	</g>
</g>
<g id="Layer_4">
	<path style="fill:#FFFF78;" d="M64.725,83.752c0,4.932-2.806,8.929-8.519,8.929H17.589c-5.712,0-8.518-3.997-8.518-8.929v-0.891
		c0-4.932,2.806-8.93,8.518-8.93h38.617c5.713,0,8.519,3.998,8.519,8.93V83.752z"/>
	<g>
		<path d="M30.069,81.467v-4.26h1.512c0.344,0,0.645,0.056,0.903,0.168c0.258,0.112,0.474,0.264,0.648,0.456
			c0.174,0.192,0.305,0.417,0.393,0.675c0.088,0.258,0.132,0.533,0.132,0.825c0,0.324-0.049,0.617-0.147,0.879
			c-0.098,0.262-0.237,0.486-0.417,0.672c-0.18,0.186-0.398,0.33-0.654,0.432c-0.256,0.102-0.542,0.153-0.858,0.153H30.069z
			 M32.973,79.331c0-0.224-0.031-0.43-0.093-0.618s-0.153-0.349-0.273-0.483c-0.12-0.134-0.266-0.239-0.438-0.315
			c-0.172-0.076-0.368-0.114-0.588-0.114h-0.84v3.072h0.84c0.224,0,0.423-0.039,0.597-0.117c0.174-0.078,0.32-0.186,0.438-0.324
			c0.118-0.138,0.207-0.301,0.267-0.489S32.973,79.551,32.973,79.331z"/>
		<path d="M36.045,78.899c-0.256,0.008-0.483,0.067-0.681,0.177c-0.198,0.11-0.339,0.267-0.423,0.471v1.92h-0.66v-3.138h0.612v0.702
			c0.108-0.216,0.249-0.389,0.423-0.519c0.174-0.13,0.361-0.201,0.561-0.213c0.04,0,0.073,0,0.099,0
			c0.026,0,0.049,0.002,0.069,0.006V78.899z"/>
		<path d="M37.317,81.527c-0.152,0-0.293-0.025-0.423-0.075c-0.13-0.05-0.242-0.119-0.336-0.207
			c-0.094-0.088-0.168-0.192-0.222-0.312c-0.054-0.12-0.081-0.25-0.081-0.39c0-0.148,0.032-0.282,0.096-0.402
			c0.064-0.12,0.155-0.224,0.273-0.312c0.118-0.088,0.258-0.156,0.42-0.204c0.162-0.048,0.341-0.072,0.537-0.072
			c0.148,0,0.294,0.013,0.438,0.039c0.145,0.026,0.273,0.061,0.39,0.105v-0.216c0-0.232-0.065-0.413-0.198-0.543
			c-0.131-0.13-0.322-0.195-0.569-0.195c-0.168,0-0.333,0.031-0.495,0.093s-0.329,0.151-0.501,0.267l-0.204-0.42
			c0.404-0.272,0.824-0.408,1.26-0.408c0.432,0,0.768,0.11,1.008,0.33c0.24,0.22,0.36,0.536,0.36,0.948v1.134
			c0,0.14,0.058,0.212,0.174,0.216v0.564c-0.063,0.012-0.118,0.02-0.165,0.024c-0.046,0.004-0.091,0.006-0.135,0.006
			c-0.128,0-0.227-0.032-0.297-0.096s-0.113-0.146-0.129-0.246L38.5,80.958c-0.141,0.184-0.313,0.325-0.52,0.423
			C37.774,81.478,37.553,81.527,37.317,81.527z M37.498,81.042c0.16,0,0.311-0.029,0.453-0.087c0.142-0.058,0.253-0.139,0.333-0.243
			c0.084-0.072,0.126-0.148,0.126-0.228v-0.414c-0.112-0.044-0.231-0.078-0.357-0.102c-0.126-0.024-0.249-0.036-0.369-0.036
			c-0.236,0-0.429,0.051-0.579,0.153s-0.225,0.237-0.225,0.405c0,0.156,0.058,0.287,0.174,0.393
			C37.169,80.988,37.317,81.042,37.498,81.042z"/>
		<path d="M43.695,78.329h0.63l-1.319,3.138h-0.547l-0.582-1.458l-0.582,1.458h-0.546l-1.325-3.138h0.629l1.015,2.502l0.456-1.164
			l-0.547-1.332h0.541l0.359,0.984l0.354-0.984h0.54l-0.54,1.332l0.456,1.164L43.695,78.329z"/>
		<path d="M22.462,85.014v-0.726h0.66v0.726H22.462z M22.462,88.667v-3.138h0.66v3.138H22.462z"/>
		<path d="M26.728,88.667h-0.66V86.91c0-0.296-0.047-0.511-0.141-0.645c-0.094-0.134-0.233-0.201-0.417-0.201
			c-0.096,0-0.192,0.018-0.288,0.054c-0.096,0.036-0.186,0.087-0.27,0.153s-0.159,0.144-0.225,0.234s-0.117,0.189-0.153,0.297v1.866
			h-0.66v-3.138h0.6v0.63c0.12-0.212,0.294-0.379,0.522-0.501s0.48-0.183,0.756-0.183c0.188,0,0.342,0.034,0.462,0.102
			c0.12,0.068,0.215,0.161,0.285,0.279c0.07,0.118,0.119,0.254,0.147,0.408c0.028,0.154,0.042,0.317,0.042,0.489V88.667z"/>
		<path d="M27.646,88.667v-2.55h-0.42v-0.51h0.42v-0.126c0-0.388,0.09-0.694,0.27-0.918c0.18-0.224,0.424-0.336,0.732-0.336
			c0.128,0,0.254,0.017,0.378,0.051c0.124,0.034,0.242,0.081,0.354,0.141l-0.144,0.492c-0.06-0.036-0.131-0.066-0.213-0.09
			c-0.082-0.024-0.161-0.036-0.237-0.036c-0.156,0-0.275,0.058-0.357,0.174c-0.082,0.116-0.123,0.284-0.123,0.504v0.144h0.804v0.51
			h-0.804v2.55H27.646z"/>
		<path d="M30.868,88.728c-0.244,0-0.466-0.043-0.666-0.129c-0.2-0.086-0.371-0.203-0.513-0.351c-0.142-0.148-0.252-0.32-0.33-0.516
			c-0.078-0.196-0.117-0.404-0.117-0.624c0-0.22,0.039-0.429,0.117-0.627c0.078-0.198,0.188-0.372,0.33-0.522
			c0.142-0.15,0.313-0.268,0.513-0.354c0.2-0.086,0.424-0.129,0.672-0.129c0.244,0,0.465,0.044,0.663,0.132
			c0.198,0.088,0.367,0.205,0.507,0.351c0.14,0.146,0.247,0.316,0.321,0.51c0.074,0.194,0.111,0.397,0.111,0.609
			c0,0.048-0.002,0.093-0.006,0.135s-0.008,0.077-0.012,0.105h-2.514c0.012,0.14,0.045,0.266,0.099,0.378
			c0.054,0.112,0.124,0.209,0.21,0.291c0.086,0.082,0.184,0.145,0.294,0.189c0.11,0.044,0.225,0.066,0.345,0.066
			c0.088,0,0.175-0.011,0.261-0.033s0.165-0.054,0.237-0.096c0.072-0.042,0.136-0.093,0.192-0.153c0.056-0.06,0.1-0.126,0.132-0.198
			l0.564,0.162c-0.108,0.236-0.287,0.429-0.537,0.579S31.2,88.728,30.868,88.728z M31.822,86.861
			c-0.012-0.132-0.045-0.254-0.099-0.366c-0.054-0.112-0.123-0.207-0.207-0.285s-0.182-0.139-0.294-0.183
			c-0.112-0.044-0.23-0.066-0.354-0.066s-0.241,0.022-0.351,0.066c-0.11,0.044-0.207,0.105-0.291,0.183s-0.152,0.173-0.204,0.285
			c-0.052,0.112-0.084,0.234-0.096,0.366H31.822z"/>
		<path d="M34.78,86.1c-0.256,0.008-0.483,0.067-0.681,0.177c-0.198,0.11-0.339,0.267-0.423,0.471v1.92h-0.66v-3.138h0.612v0.702
			c0.108-0.216,0.249-0.389,0.423-0.519c0.174-0.13,0.361-0.201,0.561-0.213c0.04,0,0.073,0,0.099,0
			c0.026,0,0.049,0.002,0.069,0.006V86.1z"/>
		<path d="M36.526,88.728c-0.244,0-0.466-0.043-0.666-0.129c-0.2-0.086-0.371-0.203-0.513-0.351c-0.142-0.148-0.252-0.32-0.33-0.516
			c-0.078-0.196-0.117-0.404-0.117-0.624c0-0.22,0.039-0.429,0.117-0.627c0.078-0.198,0.188-0.372,0.33-0.522
			c0.142-0.15,0.313-0.268,0.513-0.354c0.2-0.086,0.424-0.129,0.672-0.129c0.244,0,0.465,0.044,0.663,0.132
			c0.198,0.088,0.367,0.205,0.507,0.351c0.14,0.146,0.247,0.316,0.321,0.51c0.074,0.194,0.111,0.397,0.111,0.609
			c0,0.048-0.002,0.093-0.006,0.135s-0.008,0.077-0.012,0.105h-2.514c0.012,0.14,0.045,0.266,0.099,0.378
			c0.054,0.112,0.124,0.209,0.21,0.291c0.086,0.082,0.184,0.145,0.294,0.189c0.11,0.044,0.225,0.066,0.345,0.066
			c0.088,0,0.175-0.011,0.261-0.033s0.165-0.054,0.237-0.096c0.072-0.042,0.136-0.093,0.192-0.153c0.056-0.06,0.1-0.126,0.132-0.198
			l0.564,0.162c-0.108,0.236-0.287,0.429-0.537,0.579S36.858,88.728,36.526,88.728z M37.48,86.861
			c-0.012-0.132-0.045-0.254-0.099-0.366c-0.054-0.112-0.123-0.207-0.207-0.285s-0.182-0.139-0.294-0.183
			c-0.112-0.044-0.23-0.066-0.354-0.066s-0.241,0.022-0.351,0.066c-0.11,0.044-0.207,0.105-0.291,0.183s-0.152,0.173-0.204,0.285
			c-0.052,0.112-0.084,0.234-0.096,0.366H37.48z"/>
		<path d="M41.488,88.667h-0.66V86.91c0-0.296-0.047-0.511-0.141-0.645c-0.095-0.134-0.234-0.201-0.418-0.201
			c-0.096,0-0.191,0.018-0.287,0.054c-0.097,0.036-0.187,0.087-0.271,0.153s-0.159,0.144-0.226,0.234
			c-0.065,0.09-0.117,0.189-0.152,0.297v1.866h-0.66v-3.138h0.6v0.63c0.121-0.212,0.295-0.379,0.522-0.501s0.479-0.183,0.756-0.183
			c0.188,0,0.343,0.034,0.462,0.102c0.12,0.068,0.215,0.161,0.285,0.279c0.07,0.118,0.119,0.254,0.146,0.408
			c0.028,0.154,0.043,0.317,0.043,0.489V88.667z"/>
		<path d="M42.052,87.096c0-0.22,0.038-0.428,0.114-0.624c0.076-0.196,0.186-0.368,0.326-0.516c0.143-0.148,0.313-0.265,0.514-0.351
			s0.424-0.129,0.672-0.129c0.324,0,0.604,0.071,0.837,0.213s0.409,0.331,0.524,0.567l-0.641,0.204
			c-0.076-0.132-0.179-0.235-0.307-0.309c-0.128-0.074-0.27-0.111-0.426-0.111c-0.133,0-0.256,0.026-0.369,0.078
			c-0.113,0.052-0.213,0.125-0.297,0.219c-0.084,0.094-0.15,0.205-0.198,0.333s-0.071,0.27-0.071,0.426
			c0,0.152,0.024,0.293,0.074,0.423c0.051,0.13,0.118,0.243,0.204,0.339c0.086,0.096,0.187,0.171,0.3,0.225
			c0.114,0.054,0.235,0.081,0.363,0.081c0.08,0,0.16-0.011,0.24-0.033s0.152-0.053,0.219-0.093s0.124-0.086,0.174-0.138
			c0.051-0.052,0.088-0.108,0.111-0.168l0.648,0.192c-0.105,0.236-0.279,0.429-0.522,0.579c-0.244,0.15-0.532,0.225-0.864,0.225
			c-0.244,0-0.466-0.044-0.666-0.132c-0.199-0.088-0.371-0.207-0.513-0.357c-0.142-0.15-0.252-0.323-0.33-0.519
			C42.091,87.523,42.052,87.315,42.052,87.096z"/>
		<path d="M47.002,88.728c-0.244,0-0.467-0.043-0.666-0.129c-0.201-0.086-0.371-0.203-0.514-0.351s-0.252-0.32-0.33-0.516
			c-0.078-0.196-0.117-0.404-0.117-0.624c0-0.22,0.039-0.429,0.117-0.627c0.078-0.198,0.188-0.372,0.33-0.522
			s0.312-0.268,0.514-0.354c0.199-0.086,0.424-0.129,0.672-0.129c0.244,0,0.465,0.044,0.662,0.132s0.367,0.205,0.508,0.351
			c0.139,0.146,0.246,0.316,0.32,0.51c0.074,0.194,0.111,0.397,0.111,0.609c0,0.048-0.002,0.093-0.006,0.135
			s-0.008,0.077-0.012,0.105h-2.516c0.014,0.14,0.047,0.266,0.1,0.378c0.055,0.112,0.125,0.209,0.211,0.291
			c0.086,0.082,0.184,0.145,0.293,0.189c0.111,0.044,0.225,0.066,0.346,0.066c0.088,0,0.174-0.011,0.26-0.033
			c0.088-0.022,0.166-0.054,0.238-0.096s0.135-0.093,0.191-0.153s0.1-0.126,0.133-0.198l0.562,0.162
			c-0.107,0.236-0.285,0.429-0.535,0.579S47.334,88.728,47.002,88.728z M47.955,86.861c-0.012-0.132-0.045-0.254-0.1-0.366
			c-0.053-0.112-0.123-0.207-0.207-0.285s-0.182-0.139-0.293-0.183c-0.113-0.044-0.23-0.066-0.354-0.066
			c-0.125,0-0.242,0.022-0.352,0.066c-0.109,0.044-0.207,0.105-0.291,0.183s-0.152,0.173-0.205,0.285
			c-0.051,0.112-0.084,0.234-0.096,0.366H47.955z"/>
		<path d="M50.289,88.728c-0.252,0-0.502-0.041-0.752-0.123s-0.465-0.199-0.646-0.351l0.266-0.42
			c0.188,0.136,0.373,0.239,0.557,0.309s0.373,0.105,0.564,0.105c0.195,0,0.352-0.038,0.465-0.114
			c0.113-0.076,0.172-0.184,0.172-0.324c0-0.132-0.064-0.228-0.193-0.288c-0.127-0.06-0.328-0.126-0.6-0.198
			c-0.195-0.052-0.363-0.102-0.504-0.15c-0.141-0.048-0.254-0.104-0.342-0.168s-0.152-0.138-0.191-0.222
			c-0.041-0.084-0.061-0.186-0.061-0.306c0-0.16,0.031-0.302,0.094-0.426c0.061-0.124,0.146-0.229,0.258-0.315
			c0.109-0.086,0.238-0.151,0.387-0.195s0.309-0.066,0.48-0.066c0.234,0,0.455,0.036,0.66,0.108
			c0.203,0.072,0.385,0.176,0.545,0.312l-0.281,0.396c-0.293-0.232-0.604-0.348-0.93-0.348c-0.168,0-0.311,0.035-0.424,0.105
			c-0.113,0.07-0.172,0.181-0.172,0.333c0,0.064,0.014,0.118,0.037,0.162s0.062,0.082,0.117,0.114
			c0.053,0.032,0.123,0.061,0.209,0.087s0.193,0.055,0.322,0.087c0.211,0.052,0.395,0.104,0.549,0.156
			c0.154,0.052,0.281,0.113,0.381,0.183c0.1,0.07,0.174,0.152,0.221,0.246c0.049,0.094,0.072,0.207,0.072,0.339
			c0,0.3-0.113,0.537-0.338,0.711C50.984,88.641,50.678,88.728,50.289,88.728z"/>
	</g>
	<g>
		<g>
			
				<line style="fill:none;stroke:#FF695D;stroke-linecap:round;stroke-miterlimit:10;" x1="36.898" y1="69.155" x2="36.898" y2="73.67"/>
			<g>
				<polygon style="fill:#FF695D;" points="35.046,72.266 36.898,73.053 38.75,72.266 36.898,76.655 				"/>
			</g>
		</g>
	</g>
</g>
<g id="Layer_3">
	<path style="fill:#FFFF78;" d="M64.725,60.474c0,4.931-2.806,8.929-8.519,8.929H17.589c-5.712,0-8.518-3.998-8.518-8.929v-0.892
		c0-4.931,2.806-8.929,8.518-8.929h38.617c5.713,0,8.519,3.998,8.519,8.929V60.474z"/>
	<g>
		<path d="M29.503,57.594v0.594h-2.922v-4.26h2.868v0.594h-2.196v1.212h1.902v0.558h-1.902v1.302H29.503z"/>
		<path d="M30.463,55.05l0.768,1.074l0.054,0.102l0.054-0.102l0.762-1.074h0.69l-1.146,1.572l1.158,1.566h-0.69l-0.774-1.068
			l-0.054-0.096l-0.054,0.096l-0.774,1.068h-0.69l1.158-1.566l-1.146-1.572H30.463z"/>
		<path d="M35.029,58.249c-0.252,0-0.474-0.06-0.666-0.18c-0.192-0.12-0.344-0.276-0.456-0.468v1.866h-0.66V55.05h0.582v0.564
			c0.12-0.188,0.275-0.338,0.465-0.45s0.405-0.168,0.645-0.168c0.216,0,0.414,0.044,0.594,0.132c0.18,0.088,0.336,0.206,0.468,0.354
			c0.132,0.148,0.235,0.32,0.309,0.516s0.111,0.402,0.111,0.618c0,0.228-0.034,0.441-0.102,0.639
			c-0.068,0.198-0.164,0.37-0.288,0.516c-0.124,0.146-0.271,0.262-0.441,0.348C35.42,58.206,35.233,58.249,35.029,58.249z
			 M34.813,57.685c0.14,0,0.267-0.03,0.381-0.09c0.114-0.06,0.212-0.14,0.294-0.24c0.082-0.1,0.145-0.214,0.189-0.342
			c0.044-0.128,0.066-0.26,0.066-0.396c0-0.144-0.025-0.28-0.075-0.408c-0.05-0.128-0.118-0.24-0.204-0.336
			c-0.086-0.096-0.189-0.172-0.309-0.228c-0.12-0.056-0.25-0.084-0.39-0.084c-0.084,0-0.172,0.016-0.264,0.048
			c-0.092,0.032-0.178,0.076-0.258,0.132c-0.08,0.056-0.15,0.121-0.21,0.195s-0.102,0.155-0.126,0.243V57
			c0.04,0.096,0.092,0.186,0.156,0.27s0.135,0.156,0.213,0.216c0.078,0.06,0.163,0.108,0.255,0.144
			C34.623,57.667,34.717,57.685,34.813,57.685z"/>
		<path d="M37.021,53.809h0.66v3.474c0,0.116,0.03,0.207,0.09,0.273c0.06,0.066,0.144,0.099,0.252,0.099
			c0.044,0,0.095-0.008,0.153-0.024c0.059-0.016,0.113-0.034,0.166-0.054l0.096,0.516c-0.096,0.044-0.211,0.079-0.342,0.105
			c-0.132,0.026-0.25,0.039-0.354,0.039c-0.228,0-0.405-0.062-0.531-0.186c-0.126-0.124-0.189-0.3-0.189-0.528V53.809z"/>
		<path d="M40.231,58.249c-0.248,0-0.472-0.044-0.669-0.132c-0.198-0.088-0.367-0.206-0.508-0.354
			c-0.14-0.148-0.248-0.321-0.323-0.519c-0.076-0.198-0.114-0.405-0.114-0.621c0-0.216,0.038-0.423,0.114-0.621
			c0.075-0.198,0.185-0.371,0.327-0.519c0.142-0.148,0.312-0.266,0.51-0.354c0.197-0.088,0.419-0.132,0.663-0.132
			c0.243,0,0.465,0.044,0.663,0.132c0.197,0.088,0.367,0.206,0.51,0.354s0.251,0.321,0.327,0.519
			c0.075,0.198,0.114,0.405,0.114,0.621c0,0.216-0.039,0.423-0.114,0.621c-0.076,0.198-0.185,0.371-0.327,0.519
			s-0.312,0.266-0.51,0.354C40.696,58.205,40.475,58.249,40.231,58.249z M39.295,56.628c0,0.152,0.024,0.292,0.072,0.42
			c0.049,0.128,0.114,0.239,0.198,0.333c0.084,0.094,0.183,0.168,0.297,0.222s0.237,0.081,0.369,0.081s0.255-0.027,0.368-0.081
			c0.115-0.054,0.214-0.129,0.298-0.225c0.084-0.096,0.149-0.208,0.198-0.336c0.047-0.128,0.072-0.268,0.072-0.42
			c0-0.148-0.025-0.287-0.072-0.417c-0.049-0.13-0.114-0.243-0.198-0.339c-0.084-0.096-0.183-0.171-0.298-0.225
			c-0.113-0.054-0.236-0.081-0.368-0.081c-0.128,0-0.249,0.028-0.363,0.084s-0.213,0.132-0.297,0.228
			c-0.084,0.096-0.151,0.209-0.201,0.339S39.295,56.48,39.295,56.628z"/>
		<path d="M44.197,55.621c-0.256,0.008-0.483,0.067-0.682,0.177c-0.197,0.11-0.338,0.267-0.422,0.471v1.92h-0.66V55.05h0.611v0.702
			c0.108-0.216,0.249-0.389,0.424-0.519c0.174-0.13,0.36-0.201,0.561-0.213c0.039,0,0.072,0,0.099,0s0.05,0.002,0.069,0.006V55.621z
			"/>
		<path d="M45.944,58.249c-0.244,0-0.467-0.043-0.666-0.129c-0.201-0.086-0.372-0.203-0.514-0.351
			c-0.143-0.148-0.252-0.32-0.33-0.516c-0.078-0.196-0.117-0.404-0.117-0.624c0-0.22,0.039-0.429,0.117-0.627
			c0.078-0.198,0.188-0.372,0.33-0.522c0.142-0.15,0.312-0.268,0.514-0.354c0.199-0.086,0.424-0.129,0.672-0.129
			c0.244,0,0.465,0.044,0.662,0.132s0.367,0.205,0.508,0.351c0.139,0.146,0.246,0.316,0.32,0.51
			c0.074,0.194,0.111,0.397,0.111,0.609c0,0.048-0.002,0.093-0.006,0.135s-0.008,0.077-0.012,0.105H45.02
			c0.012,0.14,0.045,0.266,0.099,0.378c0.055,0.112,0.125,0.209,0.211,0.291c0.086,0.082,0.184,0.145,0.293,0.189
			c0.111,0.044,0.225,0.066,0.346,0.066c0.088,0,0.174-0.011,0.26-0.033c0.088-0.022,0.166-0.054,0.238-0.096
			s0.135-0.093,0.191-0.153s0.1-0.126,0.133-0.198l0.562,0.162c-0.107,0.236-0.285,0.429-0.535,0.579S46.276,58.249,45.944,58.249z
			 M46.897,56.382c-0.012-0.132-0.045-0.254-0.1-0.366c-0.053-0.112-0.123-0.207-0.207-0.285s-0.182-0.139-0.293-0.183
			c-0.113-0.044-0.23-0.066-0.354-0.066c-0.125,0-0.242,0.022-0.352,0.066c-0.109,0.044-0.207,0.105-0.291,0.183
			s-0.152,0.173-0.204,0.285c-0.052,0.112-0.084,0.234-0.097,0.366H46.897z"/>
		<path d="M27.238,65.227c-0.084,0.04-0.2,0.085-0.348,0.135c-0.148,0.05-0.306,0.075-0.474,0.075c-0.104,0-0.202-0.014-0.294-0.042
			c-0.092-0.028-0.173-0.07-0.243-0.126c-0.07-0.056-0.125-0.129-0.165-0.219c-0.04-0.09-0.06-0.199-0.06-0.327v-1.962H25.24v-0.51
			h0.414v-1.032h0.66v1.032h0.684v0.51h-0.684v1.752c0.008,0.112,0.043,0.193,0.105,0.243c0.062,0.05,0.139,0.075,0.231,0.075
			c0.092,0,0.18-0.016,0.264-0.048s0.146-0.058,0.186-0.078L27.238,65.227z"/>
		<path d="M30.508,65.389h-0.66v-1.758c0-0.288-0.051-0.501-0.153-0.639s-0.249-0.207-0.441-0.207c-0.092,0-0.184,0.018-0.276,0.054
			c-0.092,0.036-0.179,0.087-0.261,0.153s-0.155,0.144-0.219,0.234c-0.064,0.09-0.112,0.189-0.144,0.297v1.866h-0.66v-4.38h0.66
			v1.872c0.12-0.216,0.283-0.384,0.489-0.504c0.206-0.12,0.431-0.18,0.675-0.18c0.196,0,0.357,0.035,0.483,0.105
			s0.227,0.163,0.303,0.279c0.076,0.116,0.129,0.251,0.159,0.405c0.03,0.154,0.045,0.317,0.045,0.489V65.389z"/>
		<path d="M32.698,65.449c-0.244,0-0.466-0.043-0.666-0.129c-0.2-0.086-0.371-0.203-0.513-0.351c-0.142-0.148-0.252-0.32-0.33-0.516
			c-0.078-0.196-0.117-0.404-0.117-0.624c0-0.22,0.039-0.429,0.117-0.627c0.078-0.198,0.188-0.372,0.33-0.522
			c0.142-0.15,0.313-0.268,0.513-0.354c0.2-0.086,0.424-0.129,0.672-0.129c0.244,0,0.465,0.044,0.663,0.132
			c0.198,0.088,0.367,0.205,0.507,0.351c0.14,0.146,0.247,0.316,0.321,0.51c0.074,0.194,0.111,0.397,0.111,0.609
			c0,0.048-0.002,0.093-0.006,0.135s-0.008,0.077-0.012,0.105h-2.514c0.012,0.14,0.045,0.266,0.099,0.378
			c0.054,0.112,0.124,0.209,0.21,0.291c0.086,0.082,0.184,0.145,0.294,0.189c0.11,0.044,0.225,0.066,0.345,0.066
			c0.088,0,0.175-0.011,0.261-0.033s0.165-0.054,0.237-0.096c0.072-0.042,0.136-0.093,0.192-0.153c0.056-0.06,0.1-0.126,0.132-0.198
			l0.564,0.162c-0.108,0.236-0.287,0.429-0.537,0.579S33.03,65.449,32.698,65.449z M33.652,63.583
			c-0.012-0.132-0.045-0.254-0.099-0.366c-0.054-0.112-0.123-0.207-0.207-0.285s-0.182-0.139-0.294-0.183
			c-0.112-0.044-0.23-0.066-0.354-0.066s-0.241,0.022-0.351,0.066c-0.11,0.044-0.207,0.105-0.291,0.183s-0.152,0.173-0.204,0.285
			c-0.052,0.112-0.084,0.234-0.096,0.366H33.652z"/>
		<path d="M37.606,65.449c-0.212,0-0.408-0.043-0.588-0.129s-0.336-0.203-0.468-0.351c-0.132-0.148-0.235-0.321-0.309-0.519
			c-0.074-0.198-0.111-0.411-0.111-0.639c0-0.22,0.035-0.427,0.105-0.621c0.07-0.194,0.168-0.365,0.294-0.513
			s0.274-0.265,0.444-0.351s0.357-0.129,0.561-0.129c0.252,0,0.474,0.061,0.666,0.183c0.192,0.122,0.342,0.277,0.45,0.465v-1.836
			h0.66v3.6c0,0.076,0.013,0.13,0.039,0.162c0.025,0.032,0.072,0.05,0.141,0.054v0.564c-0.068,0.012-0.123,0.02-0.165,0.024
			s-0.077,0.006-0.104,0.006c-0.133,0-0.24-0.034-0.324-0.102c-0.084-0.068-0.131-0.156-0.139-0.264l-0.012-0.234
			c-0.116,0.196-0.273,0.35-0.475,0.462C38.072,65.393,37.85,65.449,37.606,65.449z M37.768,64.885c0.096,0,0.192-0.016,0.288-0.048
			c0.096-0.032,0.184-0.076,0.264-0.132c0.08-0.056,0.148-0.122,0.207-0.198c0.058-0.076,0.099-0.158,0.123-0.246v-0.822
			c-0.036-0.1-0.088-0.192-0.153-0.276s-0.142-0.156-0.226-0.216s-0.172-0.106-0.266-0.138c-0.094-0.032-0.189-0.048-0.285-0.048
			c-0.132,0-0.253,0.03-0.363,0.09c-0.11,0.06-0.205,0.14-0.285,0.24c-0.08,0.1-0.143,0.214-0.189,0.342
			c-0.046,0.128-0.069,0.26-0.069,0.396c0,0.144,0.025,0.28,0.075,0.408c0.05,0.128,0.119,0.24,0.207,0.336
			c0.088,0.096,0.189,0.172,0.303,0.228C37.513,64.857,37.636,64.885,37.768,64.885z"/>
		<path d="M40.984,65.449c-0.152,0-0.293-0.025-0.424-0.075c-0.13-0.05-0.242-0.119-0.336-0.207
			c-0.094-0.088-0.168-0.192-0.222-0.312c-0.054-0.12-0.081-0.25-0.081-0.39c0-0.148,0.032-0.282,0.096-0.402
			c0.064-0.12,0.155-0.224,0.273-0.312c0.117-0.088,0.258-0.156,0.42-0.204c0.162-0.048,0.341-0.072,0.537-0.072
			c0.148,0,0.294,0.013,0.438,0.039c0.145,0.026,0.274,0.061,0.391,0.105v-0.216c0-0.232-0.066-0.413-0.198-0.543
			c-0.132-0.13-0.322-0.195-0.569-0.195c-0.168,0-0.334,0.031-0.496,0.093s-0.328,0.151-0.5,0.267l-0.205-0.42
			c0.404-0.272,0.824-0.408,1.26-0.408c0.433,0,0.769,0.11,1.009,0.33c0.239,0.22,0.36,0.536,0.36,0.948v1.134
			c0,0.14,0.058,0.212,0.174,0.216v0.564c-0.064,0.012-0.119,0.02-0.165,0.024s-0.091,0.006-0.136,0.006
			c-0.127,0-0.227-0.032-0.297-0.096s-0.113-0.146-0.129-0.246l-0.018-0.198c-0.141,0.184-0.312,0.325-0.52,0.423
			C41.441,65.399,41.22,65.449,40.984,65.449z M41.164,64.963c0.16,0,0.311-0.029,0.453-0.087c0.142-0.058,0.252-0.139,0.332-0.243
			c0.084-0.072,0.127-0.148,0.127-0.228v-0.414c-0.112-0.044-0.231-0.078-0.357-0.102s-0.249-0.036-0.369-0.036
			c-0.236,0-0.429,0.051-0.578,0.153c-0.15,0.102-0.226,0.237-0.226,0.405c0,0.156,0.058,0.287,0.174,0.393
			S40.984,64.963,41.164,64.963z"/>
		<path d="M45.255,65.227c-0.084,0.04-0.199,0.085-0.348,0.135c-0.147,0.05-0.306,0.075-0.474,0.075
			c-0.104,0-0.201-0.014-0.294-0.042c-0.092-0.028-0.173-0.07-0.243-0.126c-0.07-0.056-0.125-0.129-0.164-0.219
			c-0.041-0.09-0.061-0.199-0.061-0.327v-1.962h-0.414v-0.51h0.414v-1.032h0.66v1.032h0.684v0.51h-0.684v1.752
			c0.008,0.112,0.043,0.193,0.105,0.243c0.061,0.05,0.139,0.075,0.23,0.075s0.18-0.016,0.264-0.048s0.146-0.058,0.187-0.078
			L45.255,65.227z"/>
		<path d="M46.546,65.449c-0.152,0-0.294-0.025-0.424-0.075c-0.13-0.05-0.242-0.119-0.336-0.207
			c-0.094-0.088-0.168-0.192-0.222-0.312c-0.054-0.12-0.081-0.25-0.081-0.39c0-0.148,0.032-0.282,0.096-0.402
			c0.064-0.12,0.155-0.224,0.273-0.312c0.118-0.088,0.258-0.156,0.42-0.204c0.162-0.048,0.341-0.072,0.537-0.072
			c0.147,0,0.294,0.013,0.438,0.039c0.145,0.026,0.274,0.061,0.391,0.105v-0.216c0-0.232-0.066-0.413-0.198-0.543
			c-0.132-0.13-0.322-0.195-0.57-0.195c-0.168,0-0.333,0.031-0.495,0.093c-0.161,0.062-0.329,0.151-0.501,0.267l-0.204-0.42
			c0.404-0.272,0.824-0.408,1.261-0.408c0.432,0,0.768,0.11,1.008,0.33c0.24,0.22,0.36,0.536,0.36,0.948v1.134
			c0,0.14,0.058,0.212,0.174,0.216v0.564c-0.064,0.012-0.119,0.02-0.165,0.024s-0.091,0.006-0.135,0.006
			c-0.129,0-0.228-0.032-0.298-0.096c-0.069-0.064-0.112-0.146-0.129-0.246l-0.018-0.198c-0.141,0.184-0.313,0.325-0.52,0.423
			C47.002,65.399,46.781,65.449,46.546,65.449z M46.726,64.963c0.16,0,0.311-0.029,0.453-0.087c0.142-0.058,0.253-0.139,0.333-0.243
			c0.084-0.072,0.126-0.148,0.126-0.228v-0.414c-0.112-0.044-0.231-0.078-0.357-0.102s-0.249-0.036-0.369-0.036
			c-0.235,0-0.429,0.051-0.579,0.153c-0.149,0.102-0.225,0.237-0.225,0.405c0,0.156,0.058,0.287,0.174,0.393
			S46.546,64.963,46.726,64.963z"/>
	</g>
	<g>
		<g>
			
				<line style="fill:none;stroke:#FF695D;stroke-linecap:round;stroke-miterlimit:10;" x1="36.898" y1="45.739" x2="36.898" y2="50.254"/>
			<g>
				<polygon style="fill:#FF695D;" points="35.046,48.85 36.898,49.636 38.75,48.85 36.898,53.239 				"/>
			</g>
		</g>
	</g>
</g>
<g id="Layer_2">
	<path style="fill:#FFFF78;" d="M64.725,37.195c0,4.931-2.806,8.929-8.519,8.929H17.589c-5.712,0-8.518-3.998-8.518-8.929v-0.892
		c0-4.931,2.806-8.929,8.518-8.929h38.617c5.713,0,8.519,3.998,8.519,8.929V37.195z"/>
	<g>
		<path d="M16.492,34.91v-4.26h1.512c0.344,0,0.645,0.056,0.903,0.168c0.258,0.112,0.474,0.264,0.648,0.456
			c0.174,0.192,0.305,0.417,0.393,0.675c0.088,0.258,0.132,0.533,0.132,0.825c0,0.324-0.049,0.617-0.147,0.879
			c-0.098,0.262-0.237,0.486-0.417,0.672c-0.18,0.186-0.398,0.33-0.654,0.432c-0.256,0.102-0.542,0.153-0.858,0.153H16.492z
			 M19.396,32.774c0-0.224-0.031-0.43-0.093-0.618s-0.153-0.349-0.273-0.483c-0.12-0.134-0.266-0.239-0.438-0.315
			c-0.172-0.076-0.368-0.114-0.588-0.114h-0.84v3.072h0.84c0.224,0,0.423-0.039,0.597-0.117c0.174-0.078,0.32-0.186,0.438-0.324
			c0.118-0.138,0.207-0.301,0.267-0.489S19.396,32.994,19.396,32.774z"/>
		<path d="M22.126,34.97c-0.244,0-0.466-0.043-0.666-0.129c-0.2-0.086-0.371-0.203-0.513-0.351c-0.142-0.148-0.252-0.32-0.33-0.516
			C20.539,33.778,20.5,33.57,20.5,33.35c0-0.22,0.039-0.429,0.117-0.627c0.078-0.198,0.188-0.372,0.33-0.522
			c0.142-0.15,0.313-0.268,0.513-0.354c0.2-0.086,0.424-0.129,0.672-0.129c0.244,0,0.465,0.044,0.663,0.132
			c0.198,0.088,0.367,0.205,0.507,0.351c0.14,0.146,0.247,0.316,0.321,0.51c0.074,0.194,0.111,0.397,0.111,0.609
			c0,0.048-0.002,0.093-0.006,0.135s-0.008,0.077-0.012,0.105h-2.514c0.012,0.14,0.045,0.266,0.099,0.378
			c0.054,0.112,0.124,0.209,0.21,0.291c0.086,0.082,0.184,0.145,0.294,0.189c0.11,0.044,0.225,0.066,0.345,0.066
			c0.088,0,0.175-0.011,0.261-0.033s0.165-0.054,0.237-0.096c0.072-0.042,0.136-0.093,0.192-0.153c0.056-0.06,0.1-0.126,0.132-0.198
			l0.564,0.162c-0.108,0.236-0.287,0.429-0.537,0.579S22.458,34.97,22.126,34.97z M23.08,33.104
			c-0.012-0.132-0.045-0.254-0.099-0.366c-0.054-0.112-0.123-0.207-0.207-0.285s-0.182-0.139-0.294-0.183
			c-0.112-0.044-0.23-0.066-0.354-0.066s-0.241,0.022-0.351,0.066c-0.11,0.044-0.207,0.105-0.291,0.183s-0.152,0.173-0.204,0.285
			c-0.052,0.112-0.084,0.234-0.096,0.366H23.08z"/>
		<path d="M25.414,34.97c-0.252,0-0.503-0.041-0.753-0.123c-0.25-0.082-0.465-0.199-0.645-0.351l0.264-0.42
			c0.188,0.136,0.374,0.239,0.558,0.309s0.372,0.105,0.564,0.105c0.196,0,0.351-0.038,0.465-0.114
			c0.114-0.076,0.171-0.184,0.171-0.324c0-0.132-0.064-0.228-0.192-0.288c-0.128-0.06-0.328-0.126-0.6-0.198
			c-0.196-0.052-0.364-0.102-0.504-0.15c-0.14-0.048-0.254-0.104-0.342-0.168s-0.152-0.138-0.192-0.222s-0.06-0.186-0.06-0.306
			c0-0.16,0.031-0.302,0.093-0.426c0.062-0.124,0.148-0.229,0.258-0.315c0.11-0.086,0.239-0.151,0.387-0.195s0.308-0.066,0.48-0.066
			c0.236,0,0.456,0.036,0.66,0.108s0.386,0.176,0.546,0.312l-0.282,0.396c-0.292-0.232-0.602-0.348-0.93-0.348
			c-0.168,0-0.309,0.035-0.423,0.105c-0.114,0.07-0.171,0.181-0.171,0.333c0,0.064,0.012,0.118,0.036,0.162
			c0.024,0.044,0.063,0.082,0.117,0.114c0.054,0.032,0.124,0.061,0.21,0.087s0.193,0.055,0.321,0.087
			c0.212,0.052,0.395,0.104,0.549,0.156c0.154,0.052,0.281,0.113,0.381,0.183c0.1,0.07,0.174,0.152,0.222,0.246
			c0.048,0.094,0.072,0.207,0.072,0.339c0,0.3-0.113,0.537-0.339,0.711C26.109,34.883,25.802,34.97,25.414,34.97z"/>
		<path d="M27.25,31.256V30.53h0.66v0.726H27.25z M27.25,34.91v-3.138h0.66v3.138H27.25z"/>
		<path d="M29.944,34.94c-0.212,0-0.406-0.042-0.582-0.129c-0.176-0.086-0.327-0.203-0.453-0.351
			c-0.126-0.148-0.224-0.318-0.294-0.51c-0.07-0.192-0.105-0.394-0.105-0.606c0-0.224,0.036-0.435,0.108-0.633
			c0.072-0.198,0.172-0.37,0.3-0.516s0.281-0.262,0.459-0.348c0.178-0.086,0.375-0.129,0.591-0.129c0.252,0,0.473,0.06,0.663,0.18
			c0.19,0.12,0.347,0.276,0.471,0.468v-0.594h0.582v3.048c0,0.228-0.042,0.43-0.126,0.606c-0.084,0.176-0.201,0.325-0.351,0.447
			s-0.327,0.215-0.531,0.279c-0.204,0.064-0.424,0.096-0.66,0.096c-0.348,0-0.637-0.059-0.867-0.177
			c-0.23-0.118-0.423-0.283-0.579-0.495l0.372-0.348c0.12,0.168,0.275,0.296,0.465,0.384c0.19,0.088,0.393,0.132,0.609,0.132
			c0.136,0,0.265-0.018,0.387-0.054c0.122-0.036,0.229-0.092,0.321-0.168c0.092-0.076,0.165-0.172,0.219-0.288
			c0.054-0.116,0.081-0.254,0.081-0.414v-0.48c-0.112,0.192-0.266,0.34-0.462,0.444C30.366,34.888,30.16,34.94,29.944,34.94z
			 M30.16,34.406c0.1,0,0.196-0.017,0.288-0.051c0.092-0.034,0.177-0.08,0.255-0.138s0.145-0.124,0.201-0.198
			c0.056-0.074,0.096-0.153,0.12-0.237V32.96c-0.04-0.1-0.092-0.191-0.156-0.273s-0.137-0.153-0.219-0.213s-0.169-0.107-0.261-0.141
			c-0.092-0.034-0.184-0.051-0.276-0.051c-0.144,0-0.273,0.031-0.387,0.093c-0.114,0.062-0.211,0.144-0.291,0.246
			s-0.142,0.217-0.186,0.345s-0.066,0.26-0.066,0.396c0,0.144,0.025,0.279,0.075,0.405c0.05,0.126,0.119,0.236,0.207,0.33
			c0.088,0.094,0.191,0.169,0.309,0.225C29.891,34.378,30.02,34.406,30.16,34.406z"/>
		<path d="M35.29,34.91h-0.66v-1.758c0-0.296-0.047-0.511-0.141-0.645c-0.094-0.134-0.233-0.201-0.417-0.201
			c-0.096,0-0.192,0.018-0.288,0.054c-0.096,0.036-0.186,0.087-0.27,0.153s-0.159,0.144-0.225,0.234s-0.117,0.189-0.153,0.297v1.866
			h-0.66v-3.138h0.6v0.63c0.12-0.212,0.294-0.379,0.522-0.501s0.48-0.183,0.756-0.183c0.188,0,0.342,0.034,0.462,0.102
			c0.12,0.068,0.215,0.161,0.285,0.279c0.07,0.118,0.119,0.254,0.147,0.408c0.028,0.154,0.042,0.317,0.042,0.489V34.91z"/>
		<path d="M38.374,34.97c-0.151,0-0.293-0.025-0.423-0.075c-0.13-0.05-0.242-0.119-0.336-0.207
			c-0.094-0.088-0.168-0.192-0.222-0.312c-0.054-0.12-0.081-0.25-0.081-0.39c0-0.148,0.032-0.282,0.096-0.402
			c0.064-0.12,0.155-0.224,0.273-0.312c0.118-0.088,0.258-0.156,0.42-0.204c0.163-0.048,0.34-0.072,0.538-0.072
			c0.147,0,0.293,0.013,0.438,0.039s0.273,0.061,0.39,0.105v-0.216c0-0.232-0.065-0.413-0.198-0.543
			c-0.131-0.13-0.322-0.195-0.569-0.195c-0.168,0-0.333,0.031-0.495,0.093s-0.329,0.151-0.501,0.267l-0.204-0.42
			c0.404-0.272,0.824-0.408,1.26-0.408c0.432,0,0.768,0.11,1.008,0.33c0.24,0.22,0.36,0.536,0.36,0.948v1.134
			c0,0.14,0.058,0.212,0.174,0.216v0.564c-0.063,0.012-0.118,0.02-0.165,0.024C40.089,34.938,40.044,34.94,40,34.94
			c-0.128,0-0.227-0.032-0.297-0.096s-0.113-0.146-0.129-0.246L39.557,34.4c-0.141,0.184-0.313,0.325-0.52,0.423
			C38.831,34.921,38.609,34.97,38.374,34.97z M38.555,34.484c0.159,0,0.311-0.029,0.452-0.087c0.142-0.058,0.253-0.139,0.333-0.243
			c0.084-0.072,0.126-0.148,0.126-0.228v-0.414c-0.112-0.044-0.231-0.078-0.356-0.102c-0.127-0.024-0.25-0.036-0.369-0.036
			c-0.236,0-0.43,0.051-0.579,0.153c-0.15,0.102-0.225,0.237-0.225,0.405c0,0.156,0.058,0.287,0.174,0.393
			C38.227,34.431,38.374,34.484,38.555,34.484z"/>
		<path d="M43.546,34.97c-0.252,0-0.503-0.041-0.753-0.123s-0.465-0.199-0.645-0.351l0.264-0.42
			c0.188,0.136,0.373,0.239,0.558,0.309s0.372,0.105,0.563,0.105c0.196,0,0.352-0.038,0.465-0.114
			c0.115-0.076,0.172-0.184,0.172-0.324c0-0.132-0.064-0.228-0.192-0.288s-0.327-0.126-0.6-0.198
			c-0.196-0.052-0.364-0.102-0.505-0.15c-0.139-0.048-0.254-0.104-0.342-0.168s-0.151-0.138-0.191-0.222s-0.061-0.186-0.061-0.306
			c0-0.16,0.031-0.302,0.094-0.426c0.062-0.124,0.147-0.229,0.258-0.315c0.109-0.086,0.238-0.151,0.387-0.195
			s0.309-0.066,0.48-0.066c0.236,0,0.455,0.036,0.66,0.108c0.203,0.072,0.386,0.176,0.546,0.312l-0.282,0.396
			c-0.292-0.232-0.602-0.348-0.93-0.348c-0.168,0-0.31,0.035-0.424,0.105c-0.113,0.07-0.17,0.181-0.17,0.333
			c0,0.064,0.012,0.118,0.035,0.162c0.024,0.044,0.062,0.082,0.117,0.114c0.055,0.032,0.124,0.061,0.21,0.087
			s0.192,0.055,0.321,0.087c0.212,0.052,0.395,0.104,0.549,0.156c0.154,0.052,0.281,0.113,0.381,0.183
			c0.1,0.07,0.174,0.152,0.222,0.246c0.049,0.094,0.072,0.207,0.072,0.339c0,0.3-0.113,0.537-0.339,0.711
			C44.24,34.883,43.934,34.97,43.546,34.97z"/>
		<path d="M47.127,34.748c-0.084,0.04-0.199,0.085-0.348,0.135c-0.148,0.05-0.306,0.075-0.474,0.075
			c-0.104,0-0.202-0.014-0.294-0.042c-0.093-0.028-0.174-0.07-0.243-0.126c-0.07-0.056-0.125-0.129-0.165-0.219
			c-0.04-0.09-0.061-0.199-0.061-0.327v-1.962h-0.414v-0.51h0.414V30.74h0.66v1.032h0.685v0.51h-0.685v1.752
			c0.008,0.112,0.043,0.193,0.105,0.243c0.062,0.05,0.139,0.075,0.23,0.075s0.181-0.016,0.265-0.048s0.146-0.058,0.186-0.078
			L47.127,34.748z"/>
		<path d="M48.55,34.97c-0.328,0-0.576-0.107-0.744-0.321c-0.168-0.214-0.252-0.533-0.252-0.957v-1.92h0.66v1.788
			c0,0.564,0.199,0.846,0.6,0.846c0.188,0,0.366-0.058,0.534-0.174c0.168-0.116,0.298-0.284,0.39-0.504v-1.956h0.66v2.358
			c0,0.076,0.013,0.13,0.039,0.162c0.026,0.032,0.073,0.05,0.141,0.054v0.564c-0.067,0.012-0.124,0.02-0.168,0.024
			s-0.086,0.006-0.126,0.006c-0.12,0-0.222-0.033-0.306-0.099s-0.128-0.151-0.132-0.255l-0.012-0.312
			c-0.141,0.228-0.322,0.401-0.547,0.519C49.063,34.911,48.817,34.97,48.55,34.97z"/>
		<path d="M52.516,34.97c-0.212,0-0.408-0.043-0.588-0.129s-0.336-0.203-0.468-0.351s-0.235-0.321-0.31-0.519
			c-0.073-0.198-0.11-0.411-0.11-0.639c0-0.22,0.035-0.427,0.104-0.621c0.07-0.194,0.168-0.365,0.294-0.513s0.274-0.265,0.444-0.351
			s0.357-0.129,0.561-0.129c0.252,0,0.475,0.061,0.666,0.183c0.192,0.122,0.343,0.277,0.45,0.465V30.53h0.66v3.6
			c0,0.076,0.013,0.13,0.039,0.162c0.026,0.032,0.073,0.05,0.141,0.054v0.564c-0.067,0.012-0.123,0.02-0.165,0.024
			s-0.076,0.006-0.104,0.006c-0.132,0-0.24-0.034-0.324-0.102c-0.084-0.068-0.13-0.156-0.138-0.264l-0.012-0.234
			c-0.116,0.196-0.274,0.35-0.475,0.462S52.76,34.97,52.516,34.97z M52.678,34.406c0.096,0,0.192-0.016,0.288-0.048
			c0.096-0.032,0.184-0.076,0.264-0.132c0.08-0.056,0.149-0.122,0.207-0.198c0.059-0.076,0.1-0.158,0.123-0.246V32.96
			c-0.036-0.1-0.087-0.192-0.152-0.276c-0.066-0.084-0.142-0.156-0.226-0.216s-0.173-0.106-0.267-0.138
			c-0.095-0.032-0.189-0.048-0.285-0.048c-0.132,0-0.253,0.03-0.363,0.09s-0.205,0.14-0.285,0.24s-0.143,0.214-0.188,0.342
			s-0.069,0.26-0.069,0.396c0,0.144,0.025,0.28,0.075,0.408s0.119,0.24,0.207,0.336c0.088,0.096,0.188,0.172,0.303,0.228
			S52.546,34.406,52.678,34.406z"/>
		<path d="M55.168,35.648c0.061,0.012,0.119,0.022,0.177,0.03c0.059,0.008,0.105,0.012,0.142,0.012c0.052,0,0.097-0.011,0.135-0.033
			s0.077-0.061,0.117-0.117s0.081-0.135,0.123-0.237s0.091-0.233,0.146-0.393l-1.29-3.138h0.679l0.972,2.556l0.864-2.556h0.624
			l-1.423,3.864c-0.063,0.18-0.175,0.331-0.333,0.453c-0.157,0.122-0.36,0.183-0.608,0.183c-0.048,0-0.099-0.003-0.15-0.009
			s-0.109-0.019-0.174-0.039V35.648z"/>
		<path d="M15.031,42.17c-0.152,0-0.293-0.025-0.423-0.075c-0.13-0.05-0.242-0.119-0.336-0.207
			c-0.094-0.088-0.168-0.192-0.222-0.312c-0.054-0.12-0.081-0.25-0.081-0.39c0-0.148,0.032-0.282,0.096-0.402
			c0.064-0.12,0.155-0.224,0.273-0.312c0.118-0.088,0.258-0.156,0.42-0.204c0.162-0.048,0.341-0.072,0.537-0.072
			c0.148,0,0.294,0.013,0.438,0.039s0.274,0.061,0.39,0.105v-0.216c0-0.232-0.066-0.413-0.198-0.543
			c-0.132-0.13-0.322-0.195-0.57-0.195c-0.168,0-0.333,0.031-0.495,0.093s-0.329,0.151-0.501,0.267l-0.204-0.42
			c0.404-0.272,0.824-0.408,1.26-0.408c0.432,0,0.768,0.11,1.008,0.33c0.24,0.22,0.36,0.536,0.36,0.948v1.134
			c0,0.14,0.058,0.212,0.174,0.216v0.564c-0.064,0.012-0.119,0.02-0.165,0.024c-0.046,0.004-0.091,0.006-0.135,0.006
			c-0.128,0-0.227-0.032-0.297-0.096c-0.07-0.064-0.113-0.146-0.129-0.246l-0.018-0.198c-0.14,0.184-0.313,0.325-0.519,0.423
			C15.488,42.121,15.267,42.17,15.031,42.17z M15.211,41.685c0.16,0,0.311-0.029,0.453-0.087c0.142-0.058,0.253-0.139,0.333-0.243
			c0.084-0.072,0.126-0.148,0.126-0.228v-0.414c-0.112-0.044-0.231-0.078-0.357-0.102s-0.249-0.036-0.369-0.036
			c-0.236,0-0.429,0.051-0.579,0.153s-0.225,0.237-0.225,0.405c0,0.156,0.058,0.287,0.174,0.393
			C14.883,41.631,15.031,41.685,15.211,41.685z"/>
		<path d="M20.395,42.11h-0.66v-1.758c0-0.296-0.047-0.511-0.141-0.645c-0.094-0.134-0.233-0.201-0.417-0.201
			c-0.096,0-0.192,0.018-0.288,0.054c-0.096,0.036-0.186,0.087-0.27,0.153s-0.159,0.144-0.225,0.234s-0.117,0.189-0.153,0.297v1.866
			h-0.66v-3.138h0.6v0.63c0.12-0.212,0.294-0.379,0.522-0.501s0.48-0.183,0.756-0.183c0.188,0,0.342,0.034,0.462,0.102
			c0.12,0.068,0.215,0.161,0.285,0.279c0.07,0.118,0.119,0.254,0.147,0.408c0.028,0.154,0.042,0.317,0.042,0.489V42.11z"/>
		<path d="M22.441,42.17c-0.212,0-0.408-0.043-0.588-0.129s-0.336-0.203-0.468-0.351c-0.132-0.148-0.235-0.321-0.309-0.519
			c-0.074-0.198-0.111-0.411-0.111-0.639c0-0.22,0.035-0.427,0.105-0.621c0.07-0.194,0.168-0.365,0.294-0.513
			s0.274-0.265,0.444-0.351s0.357-0.129,0.561-0.129c0.252,0,0.474,0.061,0.666,0.183s0.342,0.277,0.45,0.465V37.73h0.66v3.6
			c0,0.076,0.013,0.13,0.039,0.162c0.026,0.032,0.073,0.05,0.141,0.054v0.564c-0.068,0.012-0.123,0.02-0.165,0.024
			s-0.077,0.006-0.105,0.006c-0.132,0-0.24-0.034-0.324-0.102c-0.084-0.068-0.13-0.156-0.138-0.264l-0.012-0.234
			c-0.116,0.196-0.274,0.35-0.474,0.462C22.907,42.114,22.685,42.17,22.441,42.17z M22.603,41.606c0.096,0,0.192-0.016,0.288-0.048
			c0.096-0.032,0.184-0.076,0.264-0.132c0.08-0.056,0.149-0.122,0.207-0.198c0.058-0.076,0.099-0.158,0.123-0.246V40.16
			c-0.036-0.1-0.087-0.192-0.153-0.276s-0.141-0.156-0.225-0.216s-0.173-0.106-0.267-0.138c-0.094-0.032-0.189-0.048-0.285-0.048
			c-0.132,0-0.253,0.03-0.363,0.09c-0.11,0.06-0.205,0.14-0.285,0.24c-0.08,0.1-0.143,0.214-0.189,0.342
			c-0.046,0.128-0.069,0.26-0.069,0.396c0,0.144,0.025,0.28,0.075,0.408c0.05,0.128,0.119,0.24,0.207,0.336
			c0.088,0.096,0.189,0.172,0.303,0.228C22.348,41.579,22.471,41.606,22.603,41.606z"/>
		<path d="M26.263,40.539c0-0.22,0.038-0.428,0.114-0.624c0.076-0.196,0.185-0.368,0.327-0.516c0.142-0.148,0.313-0.265,0.513-0.351
			s0.424-0.129,0.672-0.129c0.324,0,0.603,0.071,0.837,0.213c0.234,0.142,0.409,0.331,0.525,0.567l-0.642,0.204
			c-0.076-0.132-0.178-0.235-0.306-0.309c-0.128-0.074-0.27-0.111-0.426-0.111c-0.132,0-0.255,0.026-0.369,0.078
			c-0.114,0.052-0.213,0.125-0.297,0.219c-0.084,0.094-0.15,0.205-0.198,0.333c-0.048,0.128-0.072,0.27-0.072,0.426
			c0,0.152,0.025,0.293,0.075,0.423c0.05,0.13,0.118,0.243,0.204,0.339c0.086,0.096,0.186,0.171,0.3,0.225
			c0.114,0.054,0.235,0.081,0.363,0.081c0.08,0,0.16-0.011,0.24-0.033c0.08-0.022,0.153-0.053,0.219-0.093s0.124-0.086,0.174-0.138
			c0.05-0.052,0.087-0.108,0.111-0.168l0.648,0.192c-0.104,0.236-0.278,0.429-0.522,0.579c-0.244,0.15-0.532,0.225-0.864,0.225
			c-0.244,0-0.466-0.044-0.666-0.132c-0.2-0.088-0.371-0.207-0.513-0.357c-0.142-0.15-0.252-0.323-0.33-0.519
			C26.302,40.966,26.263,40.758,26.263,40.539z"/>
		<path d="M31.201,42.17c-0.248,0-0.471-0.044-0.669-0.132c-0.198-0.088-0.367-0.206-0.507-0.354s-0.248-0.321-0.324-0.519
			c-0.076-0.198-0.114-0.405-0.114-0.621c0-0.216,0.038-0.423,0.114-0.621c0.076-0.198,0.185-0.371,0.327-0.519
			c0.142-0.148,0.312-0.266,0.51-0.354c0.198-0.088,0.419-0.132,0.663-0.132c0.244,0,0.465,0.044,0.663,0.132
			c0.198,0.088,0.368,0.206,0.51,0.354s0.251,0.321,0.327,0.519c0.076,0.198,0.114,0.405,0.114,0.621
			c0,0.216-0.038,0.423-0.114,0.621c-0.076,0.198-0.185,0.371-0.327,0.519s-0.312,0.266-0.51,0.354
			C31.666,42.126,31.445,42.17,31.201,42.17z M30.265,40.55c0,0.152,0.024,0.292,0.072,0.42c0.048,0.128,0.114,0.239,0.198,0.333
			c0.084,0.094,0.183,0.168,0.297,0.222s0.237,0.081,0.369,0.081c0.132,0,0.255-0.027,0.369-0.081
			c0.114-0.054,0.213-0.129,0.297-0.225c0.084-0.096,0.15-0.208,0.198-0.336s0.072-0.268,0.072-0.42
			c0-0.148-0.024-0.287-0.072-0.417s-0.114-0.243-0.198-0.339c-0.084-0.096-0.183-0.171-0.297-0.225
			c-0.114-0.054-0.237-0.081-0.369-0.081c-0.128,0-0.249,0.028-0.363,0.084c-0.114,0.056-0.213,0.132-0.297,0.228
			c-0.084,0.096-0.151,0.209-0.201,0.339C30.29,40.263,30.265,40.402,30.265,40.55z"/>
		<path d="M33.409,37.73h0.66v3.474c0,0.116,0.03,0.207,0.09,0.273c0.06,0.066,0.144,0.099,0.252,0.099
			c0.044,0,0.095-0.008,0.153-0.024c0.058-0.016,0.113-0.034,0.165-0.054l0.096,0.516c-0.096,0.044-0.21,0.079-0.342,0.105
			c-0.132,0.026-0.25,0.039-0.354,0.039c-0.228,0-0.405-0.062-0.531-0.186c-0.126-0.124-0.189-0.3-0.189-0.528V37.73z"/>
		<path d="M35.215,37.73h0.66v3.474c0,0.116,0.03,0.207,0.09,0.273c0.06,0.066,0.144,0.099,0.252,0.099
			c0.044,0,0.095-0.008,0.153-0.024c0.058-0.016,0.113-0.034,0.165-0.054l0.096,0.516c-0.096,0.044-0.21,0.079-0.342,0.105
			c-0.132,0.026-0.25,0.039-0.354,0.039c-0.228,0-0.405-0.062-0.531-0.186c-0.126-0.124-0.189-0.3-0.189-0.528V37.73z"/>
		<path d="M38.438,42.17c-0.244,0-0.466-0.043-0.667-0.129c-0.2-0.086-0.371-0.203-0.513-0.351c-0.142-0.148-0.252-0.32-0.33-0.516
			c-0.078-0.196-0.117-0.404-0.117-0.624c0-0.22,0.039-0.429,0.117-0.627c0.078-0.198,0.188-0.372,0.33-0.522
			c0.142-0.15,0.313-0.268,0.513-0.354c0.2-0.086,0.424-0.129,0.672-0.129c0.244,0,0.465,0.044,0.662,0.132
			c0.199,0.088,0.367,0.205,0.508,0.351c0.14,0.146,0.246,0.316,0.32,0.51c0.074,0.194,0.111,0.397,0.111,0.609
			c0,0.048-0.002,0.093-0.006,0.135s-0.008,0.077-0.012,0.105h-2.514c0.012,0.14,0.045,0.266,0.099,0.378
			c0.054,0.112,0.124,0.209,0.21,0.291c0.086,0.082,0.184,0.145,0.294,0.189c0.11,0.044,0.226,0.066,0.345,0.066
			c0.088,0,0.176-0.011,0.262-0.033s0.164-0.054,0.236-0.096s0.137-0.093,0.192-0.153s0.1-0.126,0.132-0.198l0.564,0.162
			c-0.108,0.236-0.287,0.429-0.537,0.579S38.77,42.17,38.438,42.17z M39.391,40.304c-0.012-0.132-0.045-0.254-0.099-0.366
			c-0.054-0.112-0.123-0.207-0.207-0.285s-0.182-0.139-0.294-0.183c-0.111-0.044-0.23-0.066-0.354-0.066
			c-0.125,0-0.241,0.022-0.352,0.066c-0.11,0.044-0.207,0.105-0.291,0.183s-0.152,0.173-0.204,0.285
			c-0.052,0.112-0.084,0.234-0.096,0.366H39.391z"/>
		<path d="M40.381,40.539c0-0.22,0.038-0.428,0.114-0.624c0.075-0.196,0.185-0.368,0.327-0.516c0.142-0.148,0.312-0.265,0.513-0.351
			s0.424-0.129,0.672-0.129c0.324,0,0.603,0.071,0.837,0.213s0.409,0.331,0.525,0.567l-0.643,0.204
			c-0.076-0.132-0.178-0.235-0.306-0.309c-0.128-0.074-0.271-0.111-0.426-0.111c-0.132,0-0.255,0.026-0.369,0.078
			c-0.114,0.052-0.213,0.125-0.297,0.219c-0.084,0.094-0.149,0.205-0.198,0.333c-0.048,0.128-0.072,0.27-0.072,0.426
			c0,0.152,0.025,0.293,0.075,0.423s0.118,0.243,0.204,0.339c0.086,0.096,0.186,0.171,0.301,0.225
			c0.113,0.054,0.234,0.081,0.362,0.081c0.08,0,0.16-0.011,0.239-0.033c0.08-0.022,0.154-0.053,0.22-0.093s0.124-0.086,0.174-0.138
			c0.05-0.052,0.087-0.108,0.111-0.168l0.647,0.192c-0.104,0.236-0.277,0.429-0.521,0.579s-0.532,0.225-0.864,0.225
			c-0.244,0-0.466-0.044-0.666-0.132c-0.2-0.088-0.371-0.207-0.513-0.357c-0.143-0.15-0.252-0.323-0.33-0.519
			C40.42,40.966,40.381,40.758,40.381,40.539z"/>
		<path d="M45.685,41.948c-0.084,0.04-0.199,0.085-0.348,0.135c-0.148,0.05-0.307,0.075-0.475,0.075
			c-0.104,0-0.201-0.014-0.294-0.042c-0.092-0.028-0.172-0.07-0.242-0.126c-0.07-0.056-0.125-0.129-0.165-0.219
			c-0.04-0.09-0.06-0.199-0.06-0.327v-1.962h-0.414v-0.51h0.414V37.94h0.659v1.032h0.684v0.51h-0.684v1.752
			c0.008,0.112,0.043,0.193,0.105,0.243c0.062,0.05,0.139,0.075,0.23,0.075s0.18-0.016,0.264-0.048s0.146-0.058,0.187-0.078
			L45.685,41.948z"/>
		<path d="M48.9,42.17c-0.212,0-0.408-0.043-0.588-0.129s-0.336-0.203-0.468-0.351s-0.235-0.321-0.31-0.519
			c-0.073-0.198-0.11-0.411-0.11-0.639c0-0.22,0.035-0.427,0.104-0.621c0.07-0.194,0.168-0.365,0.294-0.513s0.274-0.265,0.444-0.351
			s0.357-0.129,0.561-0.129c0.252,0,0.475,0.061,0.666,0.183c0.192,0.122,0.343,0.277,0.45,0.465V37.73h0.66v3.6
			c0,0.076,0.013,0.13,0.039,0.162c0.026,0.032,0.073,0.05,0.141,0.054v0.564c-0.067,0.012-0.123,0.02-0.165,0.024
			s-0.076,0.006-0.104,0.006c-0.132,0-0.24-0.034-0.324-0.102c-0.084-0.068-0.13-0.156-0.138-0.264l-0.012-0.234
			c-0.116,0.196-0.274,0.35-0.475,0.462S49.145,42.17,48.9,42.17z M49.062,41.606c0.096,0,0.192-0.016,0.288-0.048
			c0.096-0.032,0.184-0.076,0.264-0.132c0.08-0.056,0.149-0.122,0.207-0.198c0.059-0.076,0.1-0.158,0.123-0.246V40.16
			c-0.036-0.1-0.087-0.192-0.152-0.276c-0.066-0.084-0.142-0.156-0.226-0.216s-0.173-0.106-0.267-0.138
			c-0.095-0.032-0.189-0.048-0.285-0.048c-0.132,0-0.253,0.03-0.363,0.09s-0.205,0.14-0.285,0.24s-0.143,0.214-0.188,0.342
			s-0.069,0.26-0.069,0.396c0,0.144,0.025,0.28,0.075,0.408s0.119,0.24,0.207,0.336c0.088,0.096,0.188,0.172,0.303,0.228
			S48.931,41.606,49.062,41.606z"/>
		<path d="M52.279,42.17c-0.152,0-0.294-0.025-0.424-0.075c-0.13-0.05-0.242-0.119-0.336-0.207
			c-0.094-0.088-0.168-0.192-0.222-0.312c-0.054-0.12-0.081-0.25-0.081-0.39c0-0.148,0.032-0.282,0.096-0.402
			c0.064-0.12,0.155-0.224,0.273-0.312c0.118-0.088,0.258-0.156,0.42-0.204c0.162-0.048,0.341-0.072,0.537-0.072
			c0.147,0,0.294,0.013,0.438,0.039c0.145,0.026,0.274,0.061,0.391,0.105v-0.216c0-0.232-0.066-0.413-0.198-0.543
			c-0.132-0.13-0.322-0.195-0.57-0.195c-0.168,0-0.333,0.031-0.495,0.093c-0.161,0.062-0.329,0.151-0.501,0.267l-0.204-0.42
			c0.404-0.272,0.824-0.408,1.261-0.408c0.432,0,0.768,0.11,1.008,0.33c0.24,0.22,0.36,0.536,0.36,0.948v1.134
			c0,0.14,0.058,0.212,0.174,0.216v0.564c-0.064,0.012-0.119,0.02-0.165,0.024s-0.091,0.006-0.135,0.006
			c-0.129,0-0.228-0.032-0.298-0.096c-0.069-0.064-0.112-0.146-0.129-0.246l-0.018-0.198c-0.141,0.184-0.313,0.325-0.52,0.423
			C52.735,42.121,52.515,42.17,52.279,42.17z M52.459,41.685c0.16,0,0.311-0.029,0.453-0.087c0.142-0.058,0.253-0.139,0.333-0.243
			c0.084-0.072,0.126-0.148,0.126-0.228v-0.414c-0.112-0.044-0.231-0.078-0.357-0.102s-0.249-0.036-0.369-0.036
			c-0.235,0-0.429,0.051-0.579,0.153c-0.149,0.102-0.225,0.237-0.225,0.405c0,0.156,0.058,0.287,0.174,0.393
			S52.279,41.685,52.459,41.685z"/>
		<path d="M56.551,41.948c-0.084,0.04-0.199,0.085-0.348,0.135c-0.148,0.05-0.306,0.075-0.474,0.075
			c-0.104,0-0.202-0.014-0.294-0.042c-0.093-0.028-0.174-0.07-0.243-0.126c-0.07-0.056-0.125-0.129-0.165-0.219
			c-0.04-0.09-0.061-0.199-0.061-0.327v-1.962h-0.414v-0.51h0.414V37.94h0.66v1.032h0.685v0.51h-0.685v1.752
			c0.008,0.112,0.043,0.193,0.105,0.243c0.062,0.05,0.139,0.075,0.23,0.075s0.181-0.016,0.265-0.048s0.146-0.058,0.186-0.078
			L56.551,41.948z"/>
		<path d="M57.842,42.17c-0.152,0-0.294-0.025-0.424-0.075c-0.13-0.05-0.242-0.119-0.336-0.207
			c-0.094-0.088-0.168-0.192-0.222-0.312c-0.054-0.12-0.081-0.25-0.081-0.39c0-0.148,0.032-0.282,0.096-0.402
			c0.064-0.12,0.155-0.224,0.273-0.312c0.118-0.088,0.258-0.156,0.42-0.204c0.162-0.048,0.341-0.072,0.537-0.072
			c0.147,0,0.294,0.013,0.438,0.039c0.145,0.026,0.274,0.061,0.391,0.105v-0.216c0-0.232-0.066-0.413-0.198-0.543
			c-0.132-0.13-0.322-0.195-0.57-0.195c-0.168,0-0.333,0.031-0.495,0.093c-0.161,0.062-0.329,0.151-0.501,0.267l-0.204-0.42
			c0.404-0.272,0.824-0.408,1.261-0.408c0.432,0,0.768,0.11,1.008,0.33c0.24,0.22,0.36,0.536,0.36,0.948v1.134
			c0,0.14,0.058,0.212,0.174,0.216v0.564c-0.064,0.012-0.119,0.02-0.165,0.024s-0.091,0.006-0.135,0.006
			c-0.129,0-0.228-0.032-0.298-0.096c-0.069-0.064-0.112-0.146-0.129-0.246l-0.018-0.198c-0.141,0.184-0.313,0.325-0.52,0.423
			C58.298,42.121,58.077,42.17,57.842,42.17z M58.021,41.685c0.16,0,0.311-0.029,0.453-0.087c0.142-0.058,0.253-0.139,0.333-0.243
			c0.084-0.072,0.126-0.148,0.126-0.228v-0.414c-0.112-0.044-0.231-0.078-0.357-0.102s-0.249-0.036-0.369-0.036
			c-0.235,0-0.429,0.051-0.579,0.153c-0.149,0.102-0.225,0.237-0.225,0.405c0,0.156,0.058,0.287,0.174,0.393
			S57.842,41.685,58.021,41.685z"/>
	</g>
	<g>
		<g>
			
				<line style="fill:none;stroke:#FF695D;stroke-linecap:round;stroke-miterlimit:10;" x1="36.898" y1="22.322" x2="36.898" y2="26.837"/>
			<g>
				<polygon style="fill:#FF695D;" points="35.046,25.433 36.898,26.22 38.75,25.433 36.898,29.822 				"/>
			</g>
		</g>
	</g>
</g>
<g id="Layer_1">
	<path style="fill:#FFFF78;" d="M64.725,13.917c0,4.931-2.806,8.929-8.519,8.929H17.589c-5.712,0-8.518-3.998-8.518-8.929v-0.892
		c0-4.931,2.806-8.929,8.518-8.929h38.617c5.713,0,8.519,3.998,8.519,8.929V13.917z"/>
	<g>
		<path d="M30.318,7.372h0.588l1.68,4.26h-0.708l-0.45-1.158h-1.644l-0.444,1.158h-0.714L30.318,7.372z M31.296,9.976l-0.684-1.83
			l-0.708,1.83H31.296z"/>
		<path d="M34.134,11.691c-0.252,0-0.503-0.041-0.753-0.123c-0.25-0.082-0.465-0.199-0.645-0.351L33,10.797
			c0.188,0.136,0.374,0.239,0.558,0.309s0.372,0.105,0.564,0.105c0.196,0,0.351-0.038,0.465-0.114
			c0.114-0.076,0.171-0.184,0.171-0.324c0-0.132-0.064-0.228-0.192-0.288c-0.128-0.06-0.328-0.126-0.6-0.198
			c-0.196-0.052-0.364-0.102-0.504-0.15c-0.14-0.048-0.254-0.104-0.342-0.168s-0.152-0.138-0.192-0.222s-0.06-0.186-0.06-0.306
			c0-0.16,0.031-0.302,0.093-0.426c0.062-0.124,0.148-0.229,0.258-0.315c0.11-0.086,0.239-0.151,0.387-0.195s0.308-0.066,0.48-0.066
			c0.236,0,0.456,0.036,0.66,0.108s0.386,0.176,0.546,0.312L35.01,9.255c-0.292-0.232-0.602-0.348-0.93-0.348
			c-0.168,0-0.309,0.035-0.423,0.105c-0.114,0.07-0.171,0.181-0.171,0.333c0,0.064,0.012,0.118,0.036,0.162
			c0.024,0.044,0.063,0.082,0.117,0.114c0.054,0.032,0.124,0.061,0.21,0.087s0.193,0.055,0.321,0.087
			c0.212,0.052,0.395,0.104,0.549,0.156c0.154,0.052,0.281,0.113,0.381,0.183c0.1,0.07,0.174,0.152,0.222,0.246
			c0.048,0.094,0.072,0.207,0.072,0.339c0,0.3-0.113,0.537-0.339,0.711C34.829,11.604,34.522,11.691,34.134,11.691z"/>
		<path d="M38.154,11.631l-1.002-1.446l-0.522,0.492v0.954h-0.66v-4.38h0.66v2.778l1.44-1.53h0.72l-1.218,1.314l1.284,1.818H38.154z
			"/>
		<path d="M41.574,11.691c-0.152,0-0.293-0.025-0.423-0.075c-0.13-0.05-0.242-0.119-0.336-0.207
			c-0.095-0.088-0.168-0.192-0.222-0.312c-0.055-0.12-0.082-0.25-0.082-0.39c0-0.148,0.033-0.282,0.097-0.402
			c0.063-0.12,0.155-0.224,0.272-0.312c0.118-0.088,0.258-0.156,0.42-0.204c0.162-0.048,0.342-0.072,0.537-0.072
			c0.148,0,0.295,0.013,0.438,0.039s0.274,0.061,0.39,0.105V9.646c0-0.232-0.066-0.413-0.197-0.543
			c-0.133-0.13-0.322-0.195-0.57-0.195c-0.168,0-0.333,0.031-0.495,0.093s-0.329,0.151-0.501,0.267l-0.204-0.42
			c0.403-0.272,0.823-0.408,1.26-0.408c0.433,0,0.769,0.11,1.009,0.33c0.239,0.22,0.359,0.536,0.359,0.948v1.134
			c0,0.14,0.059,0.212,0.174,0.216v0.564c-0.064,0.012-0.119,0.02-0.164,0.024c-0.047,0.004-0.092,0.006-0.136,0.006
			c-0.128,0-0.228-0.032-0.297-0.096c-0.07-0.064-0.113-0.146-0.129-0.246l-0.019-0.198c-0.14,0.184-0.312,0.325-0.519,0.423
			C42.031,11.642,41.811,11.691,41.574,11.691z M41.754,11.206c0.16,0,0.312-0.029,0.453-0.087c0.143-0.058,0.253-0.139,0.333-0.243
			c0.084-0.072,0.126-0.148,0.126-0.228v-0.414c-0.111-0.044-0.23-0.078-0.357-0.102c-0.125-0.024-0.248-0.036-0.368-0.036
			c-0.236,0-0.429,0.051-0.579,0.153s-0.225,0.237-0.225,0.405c0,0.156,0.058,0.287,0.174,0.393
			C41.426,11.152,41.574,11.206,41.754,11.206z"/>
		<path d="M13.603,16.264c-0.256,0.008-0.483,0.067-0.681,0.177c-0.198,0.11-0.339,0.267-0.423,0.471v1.92h-0.66v-3.138h0.612v0.702
			c0.108-0.216,0.249-0.389,0.423-0.519c0.174-0.13,0.361-0.201,0.561-0.213c0.04,0,0.073,0,0.099,0
			c0.026,0,0.049,0.002,0.069,0.006V16.264z"/>
		<path d="M15.349,18.892c-0.244,0-0.466-0.043-0.666-0.129c-0.2-0.086-0.371-0.203-0.513-0.351c-0.142-0.148-0.252-0.32-0.33-0.516
			c-0.078-0.196-0.117-0.404-0.117-0.624c0-0.22,0.039-0.429,0.117-0.627c0.078-0.198,0.188-0.372,0.33-0.522
			c0.142-0.15,0.313-0.268,0.513-0.354c0.2-0.086,0.424-0.129,0.672-0.129c0.244,0,0.465,0.044,0.663,0.132
			c0.198,0.088,0.367,0.205,0.507,0.351c0.14,0.146,0.247,0.316,0.321,0.51c0.074,0.194,0.111,0.397,0.111,0.609
			c0,0.048-0.002,0.093-0.006,0.135s-0.008,0.077-0.012,0.105h-2.514c0.012,0.14,0.045,0.266,0.099,0.378
			c0.054,0.112,0.124,0.209,0.21,0.291c0.086,0.082,0.184,0.145,0.294,0.189c0.11,0.044,0.225,0.066,0.345,0.066
			c0.088,0,0.175-0.011,0.261-0.033s0.165-0.054,0.237-0.096c0.072-0.042,0.136-0.093,0.192-0.153c0.056-0.06,0.1-0.126,0.132-0.198
			l0.564,0.162c-0.108,0.236-0.287,0.429-0.537,0.579S15.681,18.892,15.349,18.892z M16.303,17.025
			c-0.012-0.132-0.045-0.254-0.099-0.366c-0.054-0.112-0.123-0.207-0.207-0.285s-0.182-0.139-0.294-0.183
			c-0.112-0.044-0.23-0.066-0.354-0.066s-0.241,0.022-0.351,0.066c-0.11,0.044-0.207,0.105-0.291,0.183s-0.152,0.173-0.204,0.285
			c-0.052,0.112-0.084,0.234-0.096,0.366H16.303z"/>
		<path d="M18.637,18.892c-0.252,0-0.503-0.041-0.753-0.123c-0.25-0.082-0.465-0.199-0.645-0.351l0.264-0.42
			c0.188,0.136,0.374,0.239,0.558,0.309s0.372,0.105,0.564,0.105c0.196,0,0.351-0.038,0.465-0.114
			c0.114-0.076,0.171-0.184,0.171-0.324c0-0.132-0.064-0.228-0.192-0.288c-0.128-0.06-0.328-0.126-0.6-0.198
			c-0.196-0.052-0.364-0.102-0.504-0.15c-0.14-0.048-0.254-0.104-0.342-0.168s-0.152-0.138-0.192-0.222s-0.06-0.186-0.06-0.306
			c0-0.16,0.031-0.302,0.093-0.426c0.062-0.124,0.148-0.229,0.258-0.315c0.11-0.086,0.239-0.151,0.387-0.195s0.308-0.066,0.48-0.066
			c0.236,0,0.456,0.036,0.66,0.108s0.386,0.176,0.546,0.312l-0.282,0.396c-0.292-0.232-0.602-0.348-0.93-0.348
			c-0.168,0-0.309,0.035-0.423,0.105c-0.114,0.07-0.171,0.181-0.171,0.333c0,0.064,0.012,0.118,0.036,0.162
			c0.024,0.044,0.063,0.082,0.117,0.114c0.054,0.032,0.124,0.061,0.21,0.087s0.193,0.055,0.321,0.087
			c0.212,0.052,0.395,0.104,0.549,0.156c0.154,0.052,0.281,0.113,0.381,0.183c0.1,0.07,0.174,0.152,0.222,0.246
			c0.048,0.094,0.072,0.207,0.072,0.339c0,0.3-0.113,0.537-0.339,0.711C19.332,18.805,19.025,18.892,18.637,18.892z"/>
		<path d="M21.895,18.892c-0.244,0-0.466-0.043-0.666-0.129c-0.2-0.086-0.371-0.203-0.513-0.351c-0.142-0.148-0.252-0.32-0.33-0.516
			c-0.078-0.196-0.117-0.404-0.117-0.624c0-0.22,0.039-0.429,0.117-0.627c0.078-0.198,0.188-0.372,0.33-0.522
			c0.142-0.15,0.313-0.268,0.513-0.354c0.2-0.086,0.424-0.129,0.672-0.129c0.244,0,0.465,0.044,0.663,0.132
			c0.198,0.088,0.367,0.205,0.507,0.351c0.14,0.146,0.247,0.316,0.321,0.51c0.074,0.194,0.111,0.397,0.111,0.609
			c0,0.048-0.002,0.093-0.006,0.135s-0.008,0.077-0.012,0.105h-2.514c0.012,0.14,0.045,0.266,0.099,0.378
			c0.054,0.112,0.124,0.209,0.21,0.291c0.086,0.082,0.184,0.145,0.294,0.189c0.11,0.044,0.225,0.066,0.345,0.066
			c0.088,0,0.175-0.011,0.261-0.033s0.165-0.054,0.237-0.096c0.072-0.042,0.136-0.093,0.192-0.153c0.056-0.06,0.1-0.126,0.132-0.198
			l0.564,0.162c-0.108,0.236-0.287,0.429-0.537,0.579S22.227,18.892,21.895,18.892z M22.849,17.025
			c-0.012-0.132-0.045-0.254-0.099-0.366c-0.054-0.112-0.123-0.207-0.207-0.285s-0.182-0.139-0.294-0.183
			c-0.112-0.044-0.23-0.066-0.354-0.066s-0.241,0.022-0.351,0.066c-0.11,0.044-0.207,0.105-0.291,0.183s-0.152,0.173-0.204,0.285
			c-0.052,0.112-0.084,0.234-0.096,0.366H22.849z"/>
		<path d="M24.877,18.892c-0.152,0-0.293-0.025-0.423-0.075c-0.13-0.05-0.242-0.119-0.336-0.207
			c-0.094-0.088-0.168-0.192-0.222-0.312c-0.054-0.12-0.081-0.25-0.081-0.39c0-0.148,0.032-0.282,0.096-0.402
			c0.064-0.12,0.155-0.224,0.273-0.312c0.118-0.088,0.258-0.156,0.42-0.204c0.162-0.048,0.341-0.072,0.537-0.072
			c0.148,0,0.294,0.013,0.438,0.039s0.274,0.061,0.39,0.105v-0.216c0-0.232-0.066-0.413-0.198-0.543
			c-0.132-0.13-0.322-0.195-0.57-0.195c-0.168,0-0.333,0.031-0.495,0.093s-0.329,0.151-0.501,0.267l-0.204-0.42
			c0.404-0.272,0.824-0.408,1.26-0.408c0.432,0,0.768,0.11,1.008,0.33c0.24,0.22,0.36,0.536,0.36,0.948v1.134
			c0,0.14,0.058,0.212,0.174,0.216v0.564c-0.064,0.012-0.119,0.02-0.165,0.024c-0.046,0.004-0.091,0.006-0.135,0.006
			c-0.128,0-0.227-0.032-0.297-0.096c-0.07-0.064-0.113-0.146-0.129-0.246l-0.018-0.198c-0.14,0.184-0.313,0.325-0.519,0.423
			C25.334,18.842,25.113,18.892,24.877,18.892z M25.057,18.406c0.16,0,0.311-0.029,0.453-0.087c0.142-0.058,0.253-0.139,0.333-0.243
			c0.084-0.072,0.126-0.148,0.126-0.228v-0.414c-0.112-0.044-0.231-0.078-0.357-0.102s-0.249-0.036-0.369-0.036
			c-0.236,0-0.429,0.051-0.579,0.153s-0.225,0.237-0.225,0.405c0,0.156,0.058,0.287,0.174,0.393
			C24.729,18.353,24.877,18.406,25.057,18.406z"/>
		<path d="M29.191,16.264c-0.256,0.008-0.483,0.067-0.681,0.177c-0.198,0.11-0.339,0.267-0.423,0.471v1.92h-0.66v-3.138h0.612v0.702
			c0.108-0.216,0.249-0.389,0.423-0.519c0.174-0.13,0.361-0.201,0.561-0.213c0.04,0,0.073,0,0.099,0
			c0.026,0,0.049,0.002,0.069,0.006V16.264z"/>
		<path d="M29.311,17.26c0-0.22,0.038-0.428,0.114-0.624c0.076-0.196,0.185-0.368,0.327-0.516c0.142-0.148,0.313-0.265,0.513-0.351
			s0.424-0.129,0.672-0.129c0.324,0,0.603,0.071,0.837,0.213c0.234,0.142,0.409,0.331,0.525,0.567l-0.642,0.204
			c-0.076-0.132-0.178-0.235-0.306-0.309c-0.128-0.074-0.27-0.111-0.426-0.111c-0.132,0-0.255,0.026-0.369,0.078
			c-0.114,0.052-0.213,0.125-0.297,0.219c-0.084,0.094-0.15,0.205-0.198,0.333c-0.048,0.128-0.072,0.27-0.072,0.426
			c0,0.152,0.025,0.293,0.075,0.423c0.05,0.13,0.118,0.243,0.204,0.339c0.086,0.096,0.186,0.171,0.3,0.225
			c0.114,0.054,0.235,0.081,0.363,0.081c0.08,0,0.16-0.011,0.24-0.033c0.08-0.022,0.153-0.053,0.219-0.093s0.124-0.086,0.174-0.138
			c0.05-0.052,0.087-0.108,0.111-0.168l0.648,0.192c-0.104,0.236-0.278,0.429-0.522,0.579c-0.244,0.15-0.532,0.225-0.864,0.225
			c-0.244,0-0.466-0.044-0.666-0.132c-0.2-0.088-0.371-0.207-0.513-0.357c-0.142-0.15-0.252-0.323-0.33-0.519
			C29.35,17.688,29.311,17.479,29.311,17.26z"/>
		<path d="M35.683,18.832h-0.66v-1.758c0-0.288-0.051-0.501-0.153-0.639s-0.249-0.207-0.441-0.207c-0.092,0-0.184,0.018-0.276,0.054
			c-0.092,0.036-0.179,0.087-0.261,0.153s-0.155,0.144-0.219,0.234c-0.064,0.09-0.112,0.189-0.144,0.297v1.866h-0.66v-4.38h0.66
			v1.872c0.12-0.216,0.283-0.384,0.489-0.504c0.206-0.12,0.431-0.18,0.675-0.18c0.196,0,0.357,0.035,0.483,0.105
			s0.227,0.163,0.303,0.279c0.076,0.116,0.129,0.251,0.159,0.405c0.03,0.154,0.045,0.317,0.045,0.489V18.832z"/>
		<path d="M39.127,18.892c-0.204,0-0.392-0.044-0.562-0.132c-0.17-0.088-0.315-0.206-0.438-0.354
			c-0.122-0.148-0.216-0.321-0.284-0.519c-0.068-0.198-0.102-0.407-0.102-0.627c0-0.224,0.037-0.434,0.111-0.63
			c0.074-0.196,0.177-0.368,0.309-0.516c0.133-0.148,0.289-0.264,0.469-0.348s0.375-0.126,0.588-0.126
			c0.24,0,0.456,0.058,0.648,0.174c0.191,0.116,0.346,0.266,0.461,0.45v-0.57h0.582v3.606c0,0.076,0.016,0.129,0.045,0.159
			c0.03,0.03,0.08,0.049,0.147,0.057v0.564c-0.06,0.008-0.121,0.014-0.183,0.018c-0.062,0.004-0.119,0.006-0.172,0.006
			c-0.136,0-0.252-0.046-0.351-0.138c-0.099-0.092-0.147-0.206-0.147-0.342v-1.38c-0.127,0.216-0.287,0.378-0.477,0.486
			S39.367,18.892,39.127,18.892z M39.367,18.328c0.199,0,0.373-0.057,0.519-0.171c0.146-0.114,0.267-0.257,0.362-0.429v-0.828
			c-0.02-0.096-0.06-0.186-0.119-0.27c-0.061-0.084-0.131-0.157-0.213-0.219s-0.172-0.112-0.268-0.15s-0.189-0.057-0.281-0.057
			c-0.141,0-0.269,0.03-0.385,0.09c-0.115,0.06-0.216,0.14-0.3,0.24s-0.149,0.215-0.198,0.345c-0.048,0.13-0.072,0.263-0.072,0.399
			c0,0.144,0.024,0.28,0.072,0.408c0.049,0.128,0.114,0.239,0.198,0.333c0.084,0.094,0.185,0.169,0.3,0.225
			C39.099,18.3,39.227,18.328,39.367,18.328z"/>
		<path d="M42.666,18.892c-0.327,0-0.575-0.107-0.743-0.321c-0.168-0.214-0.252-0.533-0.252-0.957v-1.92h0.659v1.788
			c0,0.564,0.201,0.846,0.601,0.846c0.188,0,0.366-0.058,0.534-0.174c0.168-0.116,0.298-0.284,0.39-0.504v-1.956h0.66v2.358
			c0,0.076,0.013,0.13,0.039,0.162c0.026,0.032,0.073,0.05,0.142,0.054v0.564c-0.068,0.012-0.125,0.02-0.168,0.024
			c-0.045,0.004-0.087,0.006-0.127,0.006c-0.119,0-0.222-0.033-0.306-0.099s-0.128-0.151-0.132-0.255l-0.012-0.312
			c-0.141,0.228-0.322,0.401-0.547,0.519C43.181,18.833,42.935,18.892,42.666,18.892z"/>
		<path d="M46.777,18.892c-0.244,0-0.467-0.043-0.666-0.129s-0.371-0.203-0.514-0.351c-0.141-0.148-0.252-0.32-0.33-0.516
			c-0.076-0.196-0.115-0.404-0.115-0.624c0-0.22,0.039-0.429,0.115-0.627c0.078-0.198,0.189-0.372,0.33-0.522
			c0.143-0.15,0.314-0.268,0.514-0.354s0.424-0.129,0.672-0.129c0.244,0,0.465,0.044,0.664,0.132
			c0.197,0.088,0.365,0.205,0.506,0.351s0.248,0.316,0.322,0.51c0.072,0.194,0.109,0.397,0.109,0.609
			c0,0.048-0.002,0.093-0.006,0.135s-0.008,0.077-0.012,0.105h-2.514c0.012,0.14,0.045,0.266,0.1,0.378
			c0.053,0.112,0.123,0.209,0.209,0.291c0.086,0.082,0.184,0.145,0.295,0.189c0.109,0.044,0.225,0.066,0.344,0.066
			c0.088,0,0.176-0.011,0.262-0.033s0.164-0.054,0.236-0.096s0.137-0.093,0.193-0.153c0.055-0.06,0.1-0.126,0.131-0.198l0.564,0.162
			c-0.107,0.236-0.287,0.429-0.537,0.579S47.109,18.892,46.777,18.892z M47.732,17.025c-0.014-0.132-0.047-0.254-0.1-0.366
			c-0.055-0.112-0.123-0.207-0.207-0.285s-0.182-0.139-0.295-0.183c-0.111-0.044-0.229-0.066-0.354-0.066
			c-0.123,0-0.24,0.022-0.352,0.066c-0.109,0.044-0.207,0.105-0.291,0.183s-0.15,0.173-0.203,0.285
			c-0.053,0.112-0.084,0.234-0.096,0.366H47.732z"/>
		<path d="M50.066,18.892c-0.252,0-0.504-0.041-0.754-0.123s-0.465-0.199-0.645-0.351l0.264-0.42
			c0.188,0.136,0.375,0.239,0.559,0.309s0.371,0.105,0.564,0.105c0.195,0,0.35-0.038,0.465-0.114c0.113-0.076,0.17-0.184,0.17-0.324
			c0-0.132-0.064-0.228-0.191-0.288c-0.129-0.06-0.328-0.126-0.6-0.198c-0.197-0.052-0.365-0.102-0.504-0.15
			c-0.141-0.048-0.254-0.104-0.342-0.168c-0.09-0.064-0.152-0.138-0.193-0.222c-0.039-0.084-0.061-0.186-0.061-0.306
			c0-0.16,0.031-0.302,0.094-0.426c0.062-0.124,0.148-0.229,0.258-0.315c0.111-0.086,0.24-0.151,0.387-0.195
			c0.148-0.044,0.309-0.066,0.48-0.066c0.236,0,0.457,0.036,0.66,0.108s0.387,0.176,0.547,0.312l-0.283,0.396
			c-0.291-0.232-0.602-0.348-0.93-0.348c-0.168,0-0.309,0.035-0.424,0.105c-0.113,0.07-0.17,0.181-0.17,0.333
			c0,0.064,0.012,0.118,0.035,0.162c0.025,0.044,0.064,0.082,0.117,0.114c0.055,0.032,0.125,0.061,0.211,0.087
			s0.193,0.055,0.32,0.087c0.213,0.052,0.395,0.104,0.549,0.156c0.154,0.052,0.281,0.113,0.381,0.183
			c0.1,0.07,0.174,0.152,0.223,0.246c0.049,0.094,0.072,0.207,0.072,0.339c0,0.3-0.113,0.537-0.34,0.711
			C50.762,18.805,50.453,18.892,50.066,18.892z"/>
		<path d="M53.646,18.669c-0.084,0.04-0.199,0.085-0.348,0.135c-0.148,0.05-0.305,0.075-0.473,0.075
			c-0.105,0-0.203-0.014-0.295-0.042c-0.092-0.028-0.174-0.07-0.242-0.126c-0.07-0.056-0.125-0.129-0.166-0.219
			c-0.039-0.09-0.061-0.199-0.061-0.327v-1.962h-0.414v-0.51h0.414v-1.032h0.66v1.032h0.686v0.51h-0.686v1.752
			c0.008,0.112,0.043,0.193,0.105,0.243c0.062,0.05,0.139,0.075,0.23,0.075s0.182-0.016,0.266-0.048s0.145-0.058,0.186-0.078
			L53.646,18.669z"/>
		<path d="M54.104,15.178v-0.726h0.66v0.726H54.104z M54.104,18.832v-3.138h0.66v3.138H54.104z"/>
		<path d="M56.965,18.892c-0.248,0-0.471-0.044-0.668-0.132c-0.197-0.088-0.367-0.206-0.508-0.354
			c-0.139-0.148-0.248-0.321-0.324-0.519c-0.076-0.198-0.113-0.405-0.113-0.621c0-0.216,0.037-0.423,0.113-0.621
			c0.076-0.198,0.186-0.371,0.328-0.519s0.312-0.266,0.51-0.354s0.418-0.132,0.662-0.132s0.467,0.044,0.664,0.132
			s0.367,0.206,0.51,0.354s0.25,0.321,0.326,0.519c0.076,0.198,0.115,0.405,0.115,0.621c0,0.216-0.039,0.423-0.115,0.621
			c-0.076,0.198-0.184,0.371-0.326,0.519s-0.312,0.266-0.51,0.354C57.432,18.848,57.209,18.892,56.965,18.892z M56.029,17.271
			c0,0.152,0.023,0.292,0.072,0.42c0.049,0.128,0.113,0.239,0.197,0.333c0.084,0.094,0.184,0.168,0.297,0.222
			c0.115,0.054,0.238,0.081,0.369,0.081c0.133,0,0.256-0.027,0.369-0.081c0.115-0.054,0.213-0.129,0.297-0.225
			c0.084-0.096,0.15-0.208,0.199-0.336c0.047-0.128,0.072-0.268,0.072-0.42c0-0.148-0.025-0.287-0.072-0.417
			c-0.049-0.13-0.115-0.243-0.199-0.339c-0.084-0.096-0.182-0.171-0.297-0.225c-0.113-0.054-0.236-0.081-0.369-0.081
			c-0.127,0-0.248,0.028-0.361,0.084c-0.115,0.056-0.213,0.132-0.297,0.228c-0.086,0.096-0.152,0.209-0.201,0.339
			C56.055,16.984,56.029,17.124,56.029,17.271z"/>
		<path d="M61.982,18.832h-0.66v-1.758c0-0.296-0.047-0.511-0.141-0.645c-0.094-0.134-0.234-0.201-0.418-0.201
			c-0.096,0-0.191,0.018-0.287,0.054c-0.096,0.036-0.188,0.087-0.271,0.153s-0.158,0.144-0.225,0.234s-0.117,0.189-0.152,0.297
			v1.866h-0.66v-3.138h0.6v0.63c0.121-0.212,0.295-0.379,0.521-0.501c0.229-0.122,0.48-0.183,0.758-0.183
			c0.188,0,0.342,0.034,0.461,0.102c0.121,0.068,0.215,0.161,0.285,0.279c0.07,0.118,0.119,0.254,0.146,0.408
			c0.029,0.154,0.043,0.317,0.043,0.489V18.832z"/>
	</g>
	<g>
	</g>
	<g>
	</g>
	<g>
	</g>
	<g>
	</g>
	<g>
	</g>
	<g>
	</g>
	<g>
	</g>
</g>
</svg>
