<?xml version="1.0" encoding="utf-8" standalone="no"?>
<!DOCTYPE svg PUBLIC "-//W3C//DTD SVG 1.1//EN"
  "http://www.w3.org/Graphics/SVG/1.1/DTD/svg11.dtd">
<!-- Created with matplotlib (http://matplotlib.org/) -->
<svg height="288pt" version="1.1" viewBox="0 0 432 288" width="432pt" xmlns="http://www.w3.org/2000/svg" xmlns:xlink="http://www.w3.org/1999/xlink">
 <defs>
  <style type="text/css">
*{stroke-linecap:butt;stroke-linejoin:round;}
  </style>
 </defs>
 <g id="figure_1">
  <g id="patch_1">
   <path d="M 0 288 
L 432 288 
L 432 0 
L 0 0 
z
" style="fill:none;"/>
  </g>
  <g id="axes_1">
   <g id="patch_2">
    <path d="M 4.32 244.8 
L 414.72 244.8 
L 414.72 28.8 
L 4.32 28.8 
z
" style="fill:none;"/>
   </g>
   <g id="patch_3">
    <path clip-path="url(#p20f337ecd7)" d="M 22.974545 244.8 
L 29.636883 244.8 
L 29.636883 243.970507 
L 22.974545 243.970507 
z
" style="fill:#5bc0de;"/>
   </g>
   <g id="patch_4">
    <path clip-path="url(#p20f337ecd7)" d="M 29.636883 244.8 
L 36.299221 244.8 
L 36.299221 244.385253 
L 29.636883 244.385253 
z
" style="fill:#5bc0de;"/>
   </g>
   <g id="patch_5">
    <path clip-path="url(#p20f337ecd7)" d="M 36.299221 244.8 
L 42.961558 244.8 
L 42.961558 244.385253 
L 36.299221 244.385253 
z
" style="fill:#5bc0de;"/>
   </g>
   <g id="patch_6">
    <path clip-path="url(#p20f337ecd7)" d="M 42.961558 244.8 
L 49.623896 244.8 
L 49.623896 244.8 
L 42.961558 244.8 
z
" style="fill:#5bc0de;"/>
   </g>
   <g id="patch_7">
    <path clip-path="url(#p20f337ecd7)" d="M 49.623896 244.8 
L 56.286234 244.8 
L 56.286234 242.726267 
L 49.623896 242.726267 
z
" style="fill:#5bc0de;"/>
   </g>
   <g id="patch_8">
    <path clip-path="url(#p20f337ecd7)" d="M 56.286234 244.8 
L 62.948571 244.8 
L 62.948571 243.970507 
L 56.286234 243.970507 
z
" style="fill:#5bc0de;"/>
   </g>
   <g id="patch_9">
    <path clip-path="url(#p20f337ecd7)" d="M 62.948571 244.8 
L 69.610909 244.8 
L 69.610909 243.55576 
L 62.948571 243.55576 
z
" style="fill:#5bc0de;"/>
   </g>
   <g id="patch_10">
    <path clip-path="url(#p20f337ecd7)" d="M 69.610909 244.8 
L 76.273247 244.8 
L 76.273247 242.726267 
L 69.610909 242.726267 
z
" style="fill:#5bc0de;"/>
   </g>
   <g id="patch_11">
    <path clip-path="url(#p20f337ecd7)" d="M 76.273247 244.8 
L 82.935584 244.8 
L 82.935584 241.482028 
L 76.273247 241.482028 
z
" style="fill:#5bc0de;"/>
   </g>
   <g id="patch_12">
    <path clip-path="url(#p20f337ecd7)" d="M 82.935584 244.8 
L 89.597922 244.8 
L 89.597922 235.675576 
L 82.935584 235.675576 
z
" style="fill:#5bc0de;"/>
   </g>
   <g id="patch_13">
    <path clip-path="url(#p20f337ecd7)" d="M 89.597922 244.8 
L 96.26026 244.8 
L 96.26026 235.260829 
L 89.597922 235.260829 
z
" style="fill:#5bc0de;"/>
   </g>
   <g id="patch_14">
    <path clip-path="url(#p20f337ecd7)" d="M 96.26026 244.8 
L 102.922597 244.8 
L 102.922597 233.187097 
L 96.26026 233.187097 
z
" style="fill:#5bc0de;"/>
   </g>
   <g id="patch_15">
    <path clip-path="url(#p20f337ecd7)" d="M 102.922597 244.8 
L 109.584935 244.8 
L 109.584935 230.698618 
L 102.922597 230.698618 
z
" style="fill:#5bc0de;"/>
   </g>
   <g id="patch_16">
    <path clip-path="url(#p20f337ecd7)" d="M 109.584935 244.8 
L 116.247273 244.8 
L 116.247273 223.647926 
L 109.584935 223.647926 
z
" style="fill:#5bc0de;"/>
   </g>
   <g id="patch_17">
    <path clip-path="url(#p20f337ecd7)" d="M 116.247273 244.8 
L 122.90961 244.8 
L 122.90961 220.7447 
L 116.247273 220.7447 
z
" style="fill:#5bc0de;"/>
   </g>
   <g id="patch_18">
    <path clip-path="url(#p20f337ecd7)" d="M 122.90961 244.8 
L 129.571948 244.8 
L 129.571948 216.182488 
L 122.90961 216.182488 
z
" style="fill:#5bc0de;"/>
   </g>
   <g id="patch_19">
    <path clip-path="url(#p20f337ecd7)" d="M 129.571948 244.8 
L 136.234286 244.8 
L 136.234286 212.864516 
L 129.571948 212.864516 
z
" style="fill:#5bc0de;"/>
   </g>
   <g id="patch_20">
    <path clip-path="url(#p20f337ecd7)" d="M 136.234286 244.8 
L 142.896623 244.8 
L 142.896623 199.17788 
L 136.234286 199.17788 
z
" style="fill:#5bc0de;"/>
   </g>
   <g id="patch_21">
    <path clip-path="url(#p20f337ecd7)" d="M 142.896623 244.8 
L 149.558961 244.8 
L 149.558961 190.053456 
L 142.896623 190.053456 
z
" style="fill:#5bc0de;"/>
   </g>
   <g id="patch_22">
    <path clip-path="url(#p20f337ecd7)" d="M 149.558961 244.8 
L 156.221299 244.8 
L 156.221299 182.173272 
L 149.558961 182.173272 
z
" style="fill:#5bc0de;"/>
   </g>
   <g id="patch_23">
    <path clip-path="url(#p20f337ecd7)" d="M 156.221299 244.8 
L 162.883636 244.8 
L 162.883636 167.242396 
L 156.221299 167.242396 
z
" style="fill:#5bc0de;"/>
   </g>
   <g id="patch_24">
    <path clip-path="url(#p20f337ecd7)" d="M 162.883636 244.8 
L 169.545974 244.8 
L 169.545974 137.795392 
L 162.883636 137.795392 
z
" style="fill:#5bc0de;"/>
   </g>
   <g id="patch_25">
    <path clip-path="url(#p20f337ecd7)" d="M 169.545974 244.8 
L 176.208312 244.8 
L 176.208312 153.55576 
L 169.545974 153.55576 
z
" style="fill:#5bc0de;"/>
   </g>
   <g id="patch_26">
    <path clip-path="url(#p20f337ecd7)" d="M 176.208312 244.8 
L 182.870649 244.8 
L 182.870649 129.915207 
L 176.208312 129.915207 
z
" style="fill:#5bc0de;"/>
   </g>
   <g id="patch_27">
    <path clip-path="url(#p20f337ecd7)" d="M 182.870649 244.8 
L 189.532987 244.8 
L 189.532987 114.984332 
L 182.870649 114.984332 
z
" style="fill:#5bc0de;"/>
   </g>
   <g id="patch_28">
    <path clip-path="url(#p20f337ecd7)" d="M 189.532987 244.8 
L 196.195325 244.8 
L 196.195325 93.002765 
L 189.532987 93.002765 
z
" style="fill:#5bc0de;"/>
   </g>
   <g id="patch_29">
    <path clip-path="url(#p20f337ecd7)" d="M 196.195325 244.8 
L 202.857662 244.8 
L 202.857662 76.82765 
L 196.195325 76.82765 
z
" style="fill:#5bc0de;"/>
   </g>
   <g id="patch_30">
    <path clip-path="url(#p20f337ecd7)" d="M 202.857662 244.8 
L 209.52 244.8 
L 209.52 71.435945 
L 202.857662 71.435945 
z
" style="fill:#5bc0de;"/>
   </g>
   <g id="patch_31">
    <path clip-path="url(#p20f337ecd7)" d="M 209.52 244.8 
L 216.182338 244.8 
L 216.182338 58.164055 
L 209.52 58.164055 
z
" style="fill:#5bc0de;"/>
   </g>
   <g id="patch_32">
    <path clip-path="url(#p20f337ecd7)" d="M 216.182338 244.8 
L 222.844675 244.8 
L 222.844675 51.528111 
L 216.182338 51.528111 
z
" style="fill:#5bc0de;"/>
   </g>
   <g id="patch_33">
    <path clip-path="url(#p20f337ecd7)" d="M 222.844675 244.8 
L 229.507013 244.8 
L 229.507013 43.23318 
L 222.844675 43.23318 
z
" style="fill:#5bc0de;"/>
   </g>
   <g id="patch_34">
    <path clip-path="url(#p20f337ecd7)" d="M 229.507013 244.8 
L 236.169351 244.8 
L 236.169351 46.965899 
L 229.507013 46.965899 
z
" style="fill:#5bc0de;"/>
   </g>
   <g id="patch_35">
    <path clip-path="url(#p20f337ecd7)" d="M 236.169351 244.8 
L 242.831688 244.8 
L 242.831688 52.77235 
L 236.169351 52.77235 
z
" style="fill:#5bc0de;"/>
   </g>
   <g id="patch_36">
    <path clip-path="url(#p20f337ecd7)" d="M 242.831688 244.8 
L 249.494026 244.8 
L 249.494026 39.085714 
L 242.831688 39.085714 
z
" style="fill:#5bc0de;"/>
   </g>
   <g id="patch_37">
    <path clip-path="url(#p20f337ecd7)" d="M 249.494026 244.8 
L 256.156364 244.8 
L 256.156364 47.795392 
L 249.494026 47.795392 
z
" style="fill:#5bc0de;"/>
   </g>
   <g id="patch_38">
    <path clip-path="url(#p20f337ecd7)" d="M 256.156364 244.8 
L 262.818701 244.8 
L 262.818701 48.624885 
L 256.156364 48.624885 
z
" style="fill:#5bc0de;"/>
   </g>
   <g id="patch_39">
    <path clip-path="url(#p20f337ecd7)" d="M 262.818701 244.8 
L 269.481039 244.8 
L 269.481039 65.214747 
L 262.818701 65.214747 
z
" style="fill:#5bc0de;"/>
   </g>
   <g id="patch_40">
    <path clip-path="url(#p20f337ecd7)" d="M 269.481039 244.8 
L 276.143377 244.8 
L 276.143377 67.703226 
L 269.481039 67.703226 
z
" style="fill:#5bc0de;"/>
   </g>
   <g id="patch_41">
    <path clip-path="url(#p20f337ecd7)" d="M 276.143377 244.8 
L 282.805714 244.8 
L 282.805714 73.509677 
L 276.143377 73.509677 
z
" style="fill:#5bc0de;"/>
   </g>
   <g id="patch_42">
    <path clip-path="url(#p20f337ecd7)" d="M 282.805714 244.8 
L 289.468052 244.8 
L 289.468052 104.615668 
L 282.805714 104.615668 
z
" style="fill:#5bc0de;"/>
   </g>
   <g id="patch_43">
    <path clip-path="url(#p20f337ecd7)" d="M 289.468052 244.8 
L 296.13039 244.8 
L 296.13039 119.546544 
L 289.468052 119.546544 
z
" style="fill:#5bc0de;"/>
   </g>
   <g id="patch_44">
    <path clip-path="url(#p20f337ecd7)" d="M 296.13039 244.8 
L 302.792727 244.8 
L 302.792727 132.818433 
L 296.13039 132.818433 
z
" style="fill:#5bc0de;"/>
   </g>
   <g id="patch_45">
    <path clip-path="url(#p20f337ecd7)" d="M 302.792727 244.8 
L 309.455065 244.8 
L 309.455065 167.657143 
L 302.792727 167.657143 
z
" style="fill:#5bc0de;"/>
   </g>
   <g id="patch_46">
    <path clip-path="url(#p20f337ecd7)" d="M 309.455065 244.8 
L 316.117403 244.8 
L 316.117403 171.804608 
L 309.455065 171.804608 
z
" style="fill:#5bc0de;"/>
   </g>
   <g id="patch_47">
    <path clip-path="url(#p20f337ecd7)" d="M 316.117403 244.8 
L 322.77974 244.8 
L 322.77974 200.42212 
L 316.117403 200.42212 
z
" style="fill:#5bc0de;"/>
   </g>
   <g id="patch_48">
    <path clip-path="url(#p20f337ecd7)" d="M 322.77974 244.8 
L 329.442078 244.8 
L 329.442078 203.740092 
L 322.77974 203.740092 
z
" style="fill:#5bc0de;"/>
   </g>
   <g id="patch_49">
    <path clip-path="url(#p20f337ecd7)" d="M 329.442078 244.8 
L 336.104416 244.8 
L 336.104416 210.790783 
L 329.442078 210.790783 
z
" style="fill:#5bc0de;"/>
   </g>
   <g id="patch_50">
    <path clip-path="url(#p20f337ecd7)" d="M 336.104416 244.8 
L 342.766753 244.8 
L 342.766753 224.062673 
L 336.104416 224.062673 
z
" style="fill:#5bc0de;"/>
   </g>
   <g id="patch_51">
    <path clip-path="url(#p20f337ecd7)" d="M 342.766753 244.8 
L 349.429091 244.8 
L 349.429091 227.795392 
L 342.766753 227.795392 
z
" style="fill:#5bc0de;"/>
   </g>
   <g id="patch_52">
    <path clip-path="url(#p20f337ecd7)" d="M 349.429091 244.8 
L 356.091429 244.8 
L 356.091429 234.01659 
L 349.429091 234.01659 
z
" style="fill:#5bc0de;"/>
   </g>
   <g id="patch_53">
    <path clip-path="url(#p20f337ecd7)" d="M 356.091429 244.8 
L 362.753766 244.8 
L 362.753766 239.823041 
L 356.091429 239.823041 
z
" style="fill:#5bc0de;"/>
   </g>
   <g id="patch_54">
    <path clip-path="url(#p20f337ecd7)" d="M 362.753766 244.8 
L 369.416104 244.8 
L 369.416104 239.823041 
L 362.753766 239.823041 
z
" style="fill:#5bc0de;"/>
   </g>
   <g id="patch_55">
    <path clip-path="url(#p20f337ecd7)" d="M 369.416104 244.8 
L 376.078442 244.8 
L 376.078442 243.141014 
L 369.416104 243.141014 
z
" style="fill:#5bc0de;"/>
   </g>
   <g id="patch_56">
    <path clip-path="url(#p20f337ecd7)" d="M 376.078442 244.8 
L 382.740779 244.8 
L 382.740779 242.726267 
L 376.078442 242.726267 
z
" style="fill:#5bc0de;"/>
   </g>
   <g id="patch_57">
    <path clip-path="url(#p20f337ecd7)" d="M 382.740779 244.8 
L 389.403117 244.8 
L 389.403117 243.970507 
L 382.740779 243.970507 
z
" style="fill:#5bc0de;"/>
   </g>
   <g id="patch_58">
    <path clip-path="url(#p20f337ecd7)" d="M 389.403117 244.8 
L 396.065455 244.8 
L 396.065455 243.55576 
L 389.403117 243.55576 
z
" style="fill:#5bc0de;"/>
   </g>
   <g id="matplotlib.axis_1">
    <g id="xtick_1">
     <g id="line2d_1">
      <defs>
       <path d="M 0 0 
L 0 4 
" id="m480c22a79b" style="stroke:#d2d2d2;"/>
      </defs>
      <g>
       <use style="fill:#d2d2d2;stroke:#d2d2d2;" x="31.900337" xlink:href="#m480c22a79b" y="244.8"/>
      </g>
     </g>
     <g id="text_1">
      <!-- −1.0 -->
      <defs>
       <path d="M 10.59375 35.5 
L 73.1875 35.5 
L 73.1875 27.203125 
L 10.59375 27.203125 
z
" id="DejaVuSans-2212"/>
       <path d="M 12.40625 8.296875 
L 28.515625 8.296875 
L 28.515625 63.921875 
L 10.984375 60.40625 
L 10.984375 69.390625 
L 28.421875 72.90625 
L 38.28125 72.90625 
L 38.28125 8.296875 
L 54.390625 8.296875 
L 54.390625 0 
L 12.40625 0 
z
" id="DejaVuSans-31"/>
       <path d="M 10.6875 12.40625 
L 21 12.40625 
L 21 0 
L 10.6875 0 
z
" id="DejaVuSans-2e"/>
       <path d="M 31.78125 66.40625 
Q 24.171875 66.40625 20.328125 58.90625 
Q 16.5 51.421875 16.5 36.375 
Q 16.5 21.390625 20.328125 13.890625 
Q 24.171875 6.390625 31.78125 6.390625 
Q 39.453125 6.390625 43.28125 13.890625 
Q 47.125 21.390625 47.125 36.375 
Q 47.125 51.421875 43.28125 58.90625 
Q 39.453125 66.40625 31.78125 66.40625 
M 31.78125 74.21875 
Q 44.046875 74.21875 50.515625 64.515625 
Q 56.984375 54.828125 56.984375 36.375 
Q 56.984375 17.96875 50.515625 8.265625 
Q 44.046875 -1.421875 31.78125 -1.421875 
Q 19.53125 -1.421875 13.0625 8.265625 
Q 6.59375 17.96875 6.59375 36.375 
Q 6.59375 54.828125 13.0625 64.515625 
Q 19.53125 74.21875 31.78125 74.21875 
" id="DejaVuSans-30"/>
      </defs>
      <g style="fill:#d2d2d2;" transform="translate(16.116509 262.677969)scale(0.13 -0.13)">
       <use xlink:href="#DejaVuSans-2212"/>
       <use x="83.789062" xlink:href="#DejaVuSans-31"/>
       <use x="147.412109" xlink:href="#DejaVuSans-2e"/>
       <use x="179.199219" xlink:href="#DejaVuSans-30"/>
      </g>
     </g>
    </g>
    <g id="xtick_2">
     <g id="line2d_2">
      <g>
       <use style="fill:#d2d2d2;stroke:#d2d2d2;" x="88.482517" xlink:href="#m480c22a79b" y="244.8"/>
      </g>
     </g>
     <g id="text_2">
      <!-- −0.8 -->
      <defs>
       <path d="M 31.78125 34.625 
Q 24.75 34.625 20.71875 30.859375 
Q 16.703125 27.09375 16.703125 20.515625 
Q 16.703125 13.921875 20.71875 10.15625 
Q 24.75 6.390625 31.78125 6.390625 
Q 38.8125 6.390625 42.859375 10.171875 
Q 46.921875 13.96875 46.921875 20.515625 
Q 46.921875 27.09375 42.890625 30.859375 
Q 38.875 34.625 31.78125 34.625 
M 21.921875 38.8125 
Q 15.578125 40.375 12.03125 44.71875 
Q 8.5 49.078125 8.5 55.328125 
Q 8.5 64.0625 14.71875 69.140625 
Q 20.953125 74.21875 31.78125 74.21875 
Q 42.671875 74.21875 48.875 69.140625 
Q 55.078125 64.0625 55.078125 55.328125 
Q 55.078125 49.078125 51.53125 44.71875 
Q 48 40.375 41.703125 38.8125 
Q 48.828125 37.15625 52.796875 32.3125 
Q 56.78125 27.484375 56.78125 20.515625 
Q 56.78125 9.90625 50.3125 4.234375 
Q 43.84375 -1.421875 31.78125 -1.421875 
Q 19.734375 -1.421875 13.25 4.234375 
Q 6.78125 9.90625 6.78125 20.515625 
Q 6.78125 27.484375 10.78125 32.3125 
Q 14.796875 37.15625 21.921875 38.8125 
M 18.3125 54.390625 
Q 18.3125 48.734375 21.84375 45.5625 
Q 25.390625 42.390625 31.78125 42.390625 
Q 38.140625 42.390625 41.71875 45.5625 
Q 45.3125 48.734375 45.3125 54.390625 
Q 45.3125 60.0625 41.71875 63.234375 
Q 38.140625 66.40625 31.78125 66.40625 
Q 25.390625 66.40625 21.84375 63.234375 
Q 18.3125 60.0625 18.3125 54.390625 
" id="DejaVuSans-38"/>
      </defs>
      <g style="fill:#d2d2d2;" transform="translate(72.698689 262.677969)scale(0.13 -0.13)">
       <use xlink:href="#DejaVuSans-2212"/>
       <use x="83.789062" xlink:href="#DejaVuSans-30"/>
       <use x="147.412109" xlink:href="#DejaVuSans-2e"/>
       <use x="179.199219" xlink:href="#DejaVuSans-38"/>
      </g>
     </g>
    </g>
    <g id="xtick_3">
     <g id="line2d_3">
      <g>
       <use style="fill:#d2d2d2;stroke:#d2d2d2;" x="145.064697" xlink:href="#m480c22a79b" y="244.8"/>
      </g>
     </g>
     <g id="text_3">
      <!-- −0.6 -->
      <defs>
       <path d="M 33.015625 40.375 
Q 26.375 40.375 22.484375 35.828125 
Q 18.609375 31.296875 18.609375 23.390625 
Q 18.609375 15.53125 22.484375 10.953125 
Q 26.375 6.390625 33.015625 6.390625 
Q 39.65625 6.390625 43.53125 10.953125 
Q 47.40625 15.53125 47.40625 23.390625 
Q 47.40625 31.296875 43.53125 35.828125 
Q 39.65625 40.375 33.015625 40.375 
M 52.59375 71.296875 
L 52.59375 62.3125 
Q 48.875 64.0625 45.09375 64.984375 
Q 41.3125 65.921875 37.59375 65.921875 
Q 27.828125 65.921875 22.671875 59.328125 
Q 17.53125 52.734375 16.796875 39.40625 
Q 19.671875 43.65625 24.015625 45.921875 
Q 28.375 48.1875 33.59375 48.1875 
Q 44.578125 48.1875 50.953125 41.515625 
Q 57.328125 34.859375 57.328125 23.390625 
Q 57.328125 12.15625 50.6875 5.359375 
Q 44.046875 -1.421875 33.015625 -1.421875 
Q 20.359375 -1.421875 13.671875 8.265625 
Q 6.984375 17.96875 6.984375 36.375 
Q 6.984375 53.65625 15.1875 63.9375 
Q 23.390625 74.21875 37.203125 74.21875 
Q 40.921875 74.21875 44.703125 73.484375 
Q 48.484375 72.75 52.59375 71.296875 
" id="DejaVuSans-36"/>
      </defs>
      <g style="fill:#d2d2d2;" transform="translate(129.280869 262.677969)scale(0.13 -0.13)">
       <use xlink:href="#DejaVuSans-2212"/>
       <use x="83.789062" xlink:href="#DejaVuSans-30"/>
       <use x="147.412109" xlink:href="#DejaVuSans-2e"/>
       <use x="179.199219" xlink:href="#DejaVuSans-36"/>
      </g>
     </g>
    </g>
    <g id="xtick_4">
     <g id="line2d_4">
      <g>
       <use style="fill:#d2d2d2;stroke:#d2d2d2;" x="201.646877" xlink:href="#m480c22a79b" y="244.8"/>
      </g>
     </g>
     <g id="text_4">
      <!-- −0.4 -->
      <defs>
       <path d="M 37.796875 64.3125 
L 12.890625 25.390625 
L 37.796875 25.390625 
z
M 35.203125 72.90625 
L 47.609375 72.90625 
L 47.609375 25.390625 
L 58.015625 25.390625 
L 58.015625 17.1875 
L 47.609375 17.1875 
L 47.609375 0 
L 37.796875 0 
L 37.796875 17.1875 
L 4.890625 17.1875 
L 4.890625 26.703125 
z
" id="DejaVuSans-34"/>
      </defs>
      <g style="fill:#d2d2d2;" transform="translate(185.863049 262.677969)scale(0.13 -0.13)">
       <use xlink:href="#DejaVuSans-2212"/>
       <use x="83.789062" xlink:href="#DejaVuSans-30"/>
       <use x="147.412109" xlink:href="#DejaVuSans-2e"/>
       <use x="179.199219" xlink:href="#DejaVuSans-34"/>
      </g>
     </g>
    </g>
    <g id="xtick_5">
     <g id="line2d_5">
      <g>
       <use style="fill:#d2d2d2;stroke:#d2d2d2;" x="258.229057" xlink:href="#m480c22a79b" y="244.8"/>
      </g>
     </g>
     <g id="text_5">
      <!-- −0.2 -->
      <defs>
       <path d="M 19.1875 8.296875 
L 53.609375 8.296875 
L 53.609375 0 
L 7.328125 0 
L 7.328125 8.296875 
Q 12.9375 14.109375 22.625 23.890625 
Q 32.328125 33.6875 34.8125 36.53125 
Q 39.546875 41.84375 41.421875 45.53125 
Q 43.3125 49.21875 43.3125 52.78125 
Q 43.3125 58.59375 39.234375 62.25 
Q 35.15625 65.921875 28.609375 65.921875 
Q 23.96875 65.921875 18.8125 64.3125 
Q 13.671875 62.703125 7.8125 59.421875 
L 7.8125 69.390625 
Q 13.765625 71.78125 18.9375 73 
Q 24.125 74.21875 28.421875 74.21875 
Q 39.75 74.21875 46.484375 68.546875 
Q 53.21875 62.890625 53.21875 53.421875 
Q 53.21875 48.921875 51.53125 44.890625 
Q 49.859375 40.875 45.40625 35.40625 
Q 44.1875 33.984375 37.640625 27.21875 
Q 31.109375 20.453125 19.1875 8.296875 
" id="DejaVuSans-32"/>
      </defs>
      <g style="fill:#d2d2d2;" transform="translate(242.445229 262.677969)scale(0.13 -0.13)">
       <use xlink:href="#DejaVuSans-2212"/>
       <use x="83.789062" xlink:href="#DejaVuSans-30"/>
       <use x="147.412109" xlink:href="#DejaVuSans-2e"/>
       <use x="179.199219" xlink:href="#DejaVuSans-32"/>
      </g>
     </g>
    </g>
    <g id="xtick_6">
     <g id="line2d_6">
      <g>
       <use style="fill:#d2d2d2;stroke:#d2d2d2;" x="314.811237" xlink:href="#m480c22a79b" y="244.8"/>
      </g>
     </g>
     <g id="text_6">
      <!-- 0.0 -->
      <g style="fill:#d2d2d2;" transform="translate(304.474206 262.677969)scale(0.13 -0.13)">
       <use xlink:href="#DejaVuSans-30"/>
       <use x="63.623047" xlink:href="#DejaVuSans-2e"/>
       <use x="95.410156" xlink:href="#DejaVuSans-30"/>
      </g>
     </g>
    </g>
    <g id="xtick_7">
     <g id="line2d_7">
      <g>
       <use style="fill:#d2d2d2;stroke:#d2d2d2;" x="371.393417" xlink:href="#m480c22a79b" y="244.8"/>
      </g>
     </g>
     <g id="text_7">
      <!-- 0.2 -->
      <g style="fill:#d2d2d2;" transform="translate(361.056385 262.677969)scale(0.13 -0.13)">
       <use xlink:href="#DejaVuSans-30"/>
       <use x="63.623047" xlink:href="#DejaVuSans-2e"/>
       <use x="95.410156" xlink:href="#DejaVuSans-32"/>
      </g>
     </g>
    </g>
    <g id="text_8">
     <!-- Regression intercept ($a$) -->
     <defs>
      <path d="M 44.390625 34.1875 
Q 47.5625 33.109375 50.5625 29.59375 
Q 53.5625 26.078125 56.59375 19.921875 
L 66.609375 0 
L 56 0 
L 46.6875 18.703125 
Q 43.0625 26.03125 39.671875 28.421875 
Q 36.28125 30.8125 30.421875 30.8125 
L 19.671875 30.8125 
L 19.671875 0 
L 9.8125 0 
L 9.8125 72.90625 
L 32.078125 72.90625 
Q 44.578125 72.90625 50.734375 67.671875 
Q 56.890625 62.453125 56.890625 51.90625 
Q 56.890625 45.015625 53.6875 40.46875 
Q 50.484375 35.9375 44.390625 34.1875 
M 19.671875 64.796875 
L 19.671875 38.921875 
L 32.078125 38.921875 
Q 39.203125 38.921875 42.84375 42.21875 
Q 46.484375 45.515625 46.484375 51.90625 
Q 46.484375 58.296875 42.84375 61.546875 
Q 39.203125 64.796875 32.078125 64.796875 
z
" id="DejaVuSans-52"/>
      <path d="M 56.203125 29.59375 
L 56.203125 25.203125 
L 14.890625 25.203125 
Q 15.484375 15.921875 20.484375 11.0625 
Q 25.484375 6.203125 34.421875 6.203125 
Q 39.59375 6.203125 44.453125 7.46875 
Q 49.3125 8.734375 54.109375 11.28125 
L 54.109375 2.78125 
Q 49.265625 0.734375 44.1875 -0.34375 
Q 39.109375 -1.421875 33.890625 -1.421875 
Q 20.796875 -1.421875 13.15625 6.1875 
Q 5.515625 13.8125 5.515625 26.8125 
Q 5.515625 40.234375 12.765625 48.109375 
Q 20.015625 56 32.328125 56 
Q 43.359375 56 49.78125 48.890625 
Q 56.203125 41.796875 56.203125 29.59375 
M 47.21875 32.234375 
Q 47.125 39.59375 43.09375 43.984375 
Q 39.0625 48.390625 32.421875 48.390625 
Q 24.90625 48.390625 20.390625 44.140625 
Q 15.875 39.890625 15.1875 32.171875 
z
" id="DejaVuSans-65"/>
      <path d="M 45.40625 27.984375 
Q 45.40625 37.75 41.375 43.109375 
Q 37.359375 48.484375 30.078125 48.484375 
Q 22.859375 48.484375 18.828125 43.109375 
Q 14.796875 37.75 14.796875 27.984375 
Q 14.796875 18.265625 18.828125 12.890625 
Q 22.859375 7.515625 30.078125 7.515625 
Q 37.359375 7.515625 41.375 12.890625 
Q 45.40625 18.265625 45.40625 27.984375 
M 54.390625 6.78125 
Q 54.390625 -7.171875 48.1875 -13.984375 
Q 42 -20.796875 29.203125 -20.796875 
Q 24.46875 -20.796875 20.265625 -20.09375 
Q 16.0625 -19.390625 12.109375 -17.921875 
L 12.109375 -9.1875 
Q 16.0625 -11.328125 19.921875 -12.34375 
Q 23.78125 -13.375 27.78125 -13.375 
Q 36.625 -13.375 41.015625 -8.765625 
Q 45.40625 -4.15625 45.40625 5.171875 
L 45.40625 9.625 
Q 42.625 4.78125 38.28125 2.390625 
Q 33.9375 0 27.875 0 
Q 17.828125 0 11.671875 7.65625 
Q 5.515625 15.328125 5.515625 27.984375 
Q 5.515625 40.671875 11.671875 48.328125 
Q 17.828125 56 27.875 56 
Q 33.9375 56 38.28125 53.609375 
Q 42.625 51.21875 45.40625 46.390625 
L 45.40625 54.6875 
L 54.390625 54.6875 
z
" id="DejaVuSans-67"/>
      <path d="M 41.109375 46.296875 
Q 39.59375 47.171875 37.8125 47.578125 
Q 36.03125 48 33.890625 48 
Q 26.265625 48 22.1875 43.046875 
Q 18.109375 38.09375 18.109375 28.8125 
L 18.109375 0 
L 9.078125 0 
L 9.078125 54.6875 
L 18.109375 54.6875 
L 18.109375 46.1875 
Q 20.953125 51.171875 25.484375 53.578125 
Q 30.03125 56 36.53125 56 
Q 37.453125 56 38.578125 55.875 
Q 39.703125 55.765625 41.0625 55.515625 
z
" id="DejaVuSans-72"/>
      <path d="M 44.28125 53.078125 
L 44.28125 44.578125 
Q 40.484375 46.53125 36.375 47.5 
Q 32.28125 48.484375 27.875 48.484375 
Q 21.1875 48.484375 17.84375 46.4375 
Q 14.5 44.390625 14.5 40.28125 
Q 14.5 37.15625 16.890625 35.375 
Q 19.28125 33.59375 26.515625 31.984375 
L 29.59375 31.296875 
Q 39.15625 29.25 43.1875 25.515625 
Q 47.21875 21.78125 47.21875 15.09375 
Q 47.21875 7.46875 41.1875 3.015625 
Q 35.15625 -1.421875 24.609375 -1.421875 
Q 20.21875 -1.421875 15.453125 -0.5625 
Q 10.6875 0.296875 5.421875 2 
L 5.421875 11.28125 
Q 10.40625 8.6875 15.234375 7.390625 
Q 20.0625 6.109375 24.8125 6.109375 
Q 31.15625 6.109375 34.5625 8.28125 
Q 37.984375 10.453125 37.984375 14.40625 
Q 37.984375 18.0625 35.515625 20.015625 
Q 33.0625 21.96875 24.703125 23.78125 
L 21.578125 24.515625 
Q 13.234375 26.265625 9.515625 29.90625 
Q 5.8125 33.546875 5.8125 39.890625 
Q 5.8125 47.609375 11.28125 51.796875 
Q 16.75 56 26.8125 56 
Q 31.78125 56 36.171875 55.265625 
Q 40.578125 54.546875 44.28125 53.078125 
" id="DejaVuSans-73"/>
      <path d="M 9.421875 54.6875 
L 18.40625 54.6875 
L 18.40625 0 
L 9.421875 0 
z
M 9.421875 75.984375 
L 18.40625 75.984375 
L 18.40625 64.59375 
L 9.421875 64.59375 
z
" id="DejaVuSans-69"/>
      <path d="M 30.609375 48.390625 
Q 23.390625 48.390625 19.1875 42.75 
Q 14.984375 37.109375 14.984375 27.296875 
Q 14.984375 17.484375 19.15625 11.84375 
Q 23.34375 6.203125 30.609375 6.203125 
Q 37.796875 6.203125 41.984375 11.859375 
Q 46.1875 17.53125 46.1875 27.296875 
Q 46.1875 37.015625 41.984375 42.703125 
Q 37.796875 48.390625 30.609375 48.390625 
M 30.609375 56 
Q 42.328125 56 49.015625 48.375 
Q 55.71875 40.765625 55.71875 27.296875 
Q 55.71875 13.875 49.015625 6.21875 
Q 42.328125 -1.421875 30.609375 -1.421875 
Q 18.84375 -1.421875 12.171875 6.21875 
Q 5.515625 13.875 5.515625 27.296875 
Q 5.515625 40.765625 12.171875 48.375 
Q 18.84375 56 30.609375 56 
" id="DejaVuSans-6f"/>
      <path d="M 54.890625 33.015625 
L 54.890625 0 
L 45.90625 0 
L 45.90625 32.71875 
Q 45.90625 40.484375 42.875 44.328125 
Q 39.84375 48.1875 33.796875 48.1875 
Q 26.515625 48.1875 22.3125 43.546875 
Q 18.109375 38.921875 18.109375 30.90625 
L 18.109375 0 
L 9.078125 0 
L 9.078125 54.6875 
L 18.109375 54.6875 
L 18.109375 46.1875 
Q 21.34375 51.125 25.703125 53.5625 
Q 30.078125 56 35.796875 56 
Q 45.21875 56 50.046875 50.171875 
Q 54.890625 44.34375 54.890625 33.015625 
" id="DejaVuSans-6e"/>
      <path id="DejaVuSans-20"/>
      <path d="M 18.3125 70.21875 
L 18.3125 54.6875 
L 36.8125 54.6875 
L 36.8125 47.703125 
L 18.3125 47.703125 
L 18.3125 18.015625 
Q 18.3125 11.328125 20.140625 9.421875 
Q 21.96875 7.515625 27.59375 7.515625 
L 36.8125 7.515625 
L 36.8125 0 
L 27.59375 0 
Q 17.1875 0 13.234375 3.875 
Q 9.28125 7.765625 9.28125 18.015625 
L 9.28125 47.703125 
L 2.6875 47.703125 
L 2.6875 54.6875 
L 9.28125 54.6875 
L 9.28125 70.21875 
z
" id="DejaVuSans-74"/>
      <path d="M 48.78125 52.59375 
L 48.78125 44.1875 
Q 44.96875 46.296875 41.140625 47.34375 
Q 37.3125 48.390625 33.40625 48.390625 
Q 24.65625 48.390625 19.8125 42.84375 
Q 14.984375 37.3125 14.984375 27.296875 
Q 14.984375 17.28125 19.8125 11.734375 
Q 24.65625 6.203125 33.40625 6.203125 
Q 37.3125 6.203125 41.140625 7.25 
Q 44.96875 8.296875 48.78125 10.40625 
L 48.78125 2.09375 
Q 45.015625 0.34375 40.984375 -0.53125 
Q 36.96875 -1.421875 32.421875 -1.421875 
Q 20.0625 -1.421875 12.78125 6.34375 
Q 5.515625 14.109375 5.515625 27.296875 
Q 5.515625 40.671875 12.859375 48.328125 
Q 20.21875 56 33.015625 56 
Q 37.15625 56 41.109375 55.140625 
Q 45.0625 54.296875 48.78125 52.59375 
" id="DejaVuSans-63"/>
      <path d="M 18.109375 8.203125 
L 18.109375 -20.796875 
L 9.078125 -20.796875 
L 9.078125 54.6875 
L 18.109375 54.6875 
L 18.109375 46.390625 
Q 20.953125 51.265625 25.265625 53.625 
Q 29.59375 56 35.59375 56 
Q 45.5625 56 51.78125 48.09375 
Q 58.015625 40.1875 58.015625 27.296875 
Q 58.015625 14.40625 51.78125 6.484375 
Q 45.5625 -1.421875 35.59375 -1.421875 
Q 29.59375 -1.421875 25.265625 0.953125 
Q 20.953125 3.328125 18.109375 8.203125 
M 48.6875 27.296875 
Q 48.6875 37.203125 44.609375 42.84375 
Q 40.53125 48.484375 33.40625 48.484375 
Q 26.265625 48.484375 22.1875 42.84375 
Q 18.109375 37.203125 18.109375 27.296875 
Q 18.109375 17.390625 22.1875 11.75 
Q 26.265625 6.109375 33.40625 6.109375 
Q 40.53125 6.109375 44.609375 11.75 
Q 48.6875 17.390625 48.6875 27.296875 
" id="DejaVuSans-70"/>
      <path d="M 31 75.875 
Q 24.46875 64.65625 21.28125 53.65625 
Q 18.109375 42.671875 18.109375 31.390625 
Q 18.109375 20.125 21.3125 9.0625 
Q 24.515625 -2 31 -13.1875 
L 23.1875 -13.1875 
Q 15.875 -1.703125 12.234375 9.375 
Q 8.59375 20.453125 8.59375 31.390625 
Q 8.59375 42.28125 12.203125 53.3125 
Q 15.828125 64.359375 23.1875 75.875 
z
" id="DejaVuSans-28"/>
      <path d="M 53.71875 31.203125 
L 47.609375 0 
L 38.625 0 
L 40.28125 8.296875 
Q 36.328125 3.421875 31.265625 1 
Q 26.21875 -1.421875 20.015625 -1.421875 
Q 13.03125 -1.421875 8.5625 2.84375 
Q 4.109375 7.125 4.109375 13.8125 
Q 4.109375 23.390625 11.75 28.953125 
Q 19.390625 34.515625 32.8125 34.515625 
L 45.3125 34.515625 
L 45.796875 36.921875 
Q 45.90625 37.3125 45.953125 37.765625 
Q 46 38.234375 46 39.203125 
Q 46 43.5625 42.453125 45.96875 
Q 38.921875 48.390625 32.515625 48.390625 
Q 28.125 48.390625 23.5 47.265625 
Q 18.890625 46.140625 14.015625 43.890625 
L 15.578125 52.203125 
Q 20.65625 54.109375 25.515625 55.046875 
Q 30.375 56 34.90625 56 
Q 44.578125 56 49.625 51.796875 
Q 54.6875 47.609375 54.6875 39.59375 
Q 54.6875 37.984375 54.4375 35.8125 
Q 54.203125 33.640625 53.71875 31.203125 
M 44 27.484375 
L 35.015625 27.484375 
Q 23.96875 27.484375 18.671875 24.53125 
Q 13.375 21.578125 13.375 15.375 
Q 13.375 11.078125 16.078125 8.640625 
Q 18.796875 6.203125 23.578125 6.203125 
Q 30.90625 6.203125 36.375 11.453125 
Q 41.84375 16.703125 43.609375 25.484375 
z
" id="DejaVuSans-Oblique-61"/>
      <path d="M 8.015625 75.875 
L 15.828125 75.875 
Q 23.140625 64.359375 26.78125 53.3125 
Q 30.421875 42.28125 30.421875 31.390625 
Q 30.421875 20.453125 26.78125 9.375 
Q 23.140625 -1.703125 15.828125 -13.1875 
L 8.015625 -13.1875 
Q 14.5 -2 17.703125 9.0625 
Q 20.90625 20.125 20.90625 31.390625 
Q 20.90625 42.671875 17.703125 53.65625 
Q 14.5 64.65625 8.015625 75.875 
" id="DejaVuSans-29"/>
     </defs>
     <g style="fill:#d2d2d2;" transform="translate(100.71 283.061562)scale(0.18 -0.18)">
      <use transform="translate(0 0.015625)" xlink:href="#DejaVuSans-52"/>
      <use transform="translate(69.482422 0.015625)" xlink:href="#DejaVuSans-65"/>
      <use transform="translate(131.005859 0.015625)" xlink:href="#DejaVuSans-67"/>
      <use transform="translate(194.482422 0.015625)" xlink:href="#DejaVuSans-72"/>
      <use transform="translate(235.595703 0.015625)" xlink:href="#DejaVuSans-65"/>
      <use transform="translate(297.119141 0.015625)" xlink:href="#DejaVuSans-73"/>
      <use transform="translate(349.21875 0.015625)" xlink:href="#DejaVuSans-73"/>
      <use transform="translate(401.318359 0.015625)" xlink:href="#DejaVuSans-69"/>
      <use transform="translate(429.101562 0.015625)" xlink:href="#DejaVuSans-6f"/>
      <use transform="translate(490.283203 0.015625)" xlink:href="#DejaVuSans-6e"/>
      <use transform="translate(553.662109 0.015625)" xlink:href="#DejaVuSans-20"/>
      <use transform="translate(585.449219 0.015625)" xlink:href="#DejaVuSans-69"/>
      <use transform="translate(613.232422 0.015625)" xlink:href="#DejaVuSans-6e"/>
      <use transform="translate(676.611328 0.015625)" xlink:href="#DejaVuSans-74"/>
      <use transform="translate(715.820312 0.015625)" xlink:href="#DejaVuSans-65"/>
      <use transform="translate(777.34375 0.015625)" xlink:href="#DejaVuSans-72"/>
      <use transform="translate(818.457031 0.015625)" xlink:href="#DejaVuSans-63"/>
      <use transform="translate(873.4375 0.015625)" xlink:href="#DejaVuSans-65"/>
      <use transform="translate(934.960938 0.015625)" xlink:href="#DejaVuSans-70"/>
      <use transform="translate(998.4375 0.015625)" xlink:href="#DejaVuSans-74"/>
      <use transform="translate(1037.646484 0.015625)" xlink:href="#DejaVuSans-20"/>
      <use transform="translate(1069.433594 0.015625)" xlink:href="#DejaVuSans-28"/>
      <use transform="translate(1108.447266 0.015625)" xlink:href="#DejaVuSans-Oblique-61"/>
      <use transform="translate(1169.726562 0.015625)" xlink:href="#DejaVuSans-29"/>
     </g>
    </g>
   </g>
   <g id="matplotlib.axis_2"/>
   <g id="patch_59">
    <path d="M 4.32 244.8 
L 414.72 244.8 
" style="fill:none;stroke:#d2d2d2;stroke-linecap:square;stroke-linejoin:miter;"/>
   </g>
  </g>
  <g id="axes_2">
   <g id="line2d_8">
    <path clip-path="url(#p20f337ecd7)" d="M 232.125587 244.8 
L 232.125587 28.8 
" style="fill:none;stroke:#f0ad4e;stroke-dasharray:5.6,2.4;stroke-dashoffset:0;stroke-width:1.5;"/>
   </g>
   <g id="text_9">
    <!-- Initial observation -->
    <defs>
     <path d="M 9.8125 72.90625 
L 19.671875 72.90625 
L 19.671875 0 
L 9.8125 0 
z
" id="DejaVuSans-49"/>
     <path d="M 34.28125 27.484375 
Q 23.390625 27.484375 19.1875 25 
Q 14.984375 22.515625 14.984375 16.5 
Q 14.984375 11.71875 18.140625 8.90625 
Q 21.296875 6.109375 26.703125 6.109375 
Q 34.1875 6.109375 38.703125 11.40625 
Q 43.21875 16.703125 43.21875 25.484375 
L 43.21875 27.484375 
z
M 52.203125 31.203125 
L 52.203125 0 
L 43.21875 0 
L 43.21875 8.296875 
Q 40.140625 3.328125 35.546875 0.953125 
Q 30.953125 -1.421875 24.3125 -1.421875 
Q 15.921875 -1.421875 10.953125 3.296875 
Q 6 8.015625 6 15.921875 
Q 6 25.140625 12.171875 29.828125 
Q 18.359375 34.515625 30.609375 34.515625 
L 43.21875 34.515625 
L 43.21875 35.40625 
Q 43.21875 41.609375 39.140625 45 
Q 35.0625 48.390625 27.6875 48.390625 
Q 23 48.390625 18.546875 47.265625 
Q 14.109375 46.140625 10.015625 43.890625 
L 10.015625 52.203125 
Q 14.9375 54.109375 19.578125 55.046875 
Q 24.21875 56 28.609375 56 
Q 40.484375 56 46.34375 49.84375 
Q 52.203125 43.703125 52.203125 31.203125 
" id="DejaVuSans-61"/>
     <path d="M 9.421875 75.984375 
L 18.40625 75.984375 
L 18.40625 0 
L 9.421875 0 
z
" id="DejaVuSans-6c"/>
     <path d="M 48.6875 27.296875 
Q 48.6875 37.203125 44.609375 42.84375 
Q 40.53125 48.484375 33.40625 48.484375 
Q 26.265625 48.484375 22.1875 42.84375 
Q 18.109375 37.203125 18.109375 27.296875 
Q 18.109375 17.390625 22.1875 11.75 
Q 26.265625 6.109375 33.40625 6.109375 
Q 40.53125 6.109375 44.609375 11.75 
Q 48.6875 17.390625 48.6875 27.296875 
M 18.109375 46.390625 
Q 20.953125 51.265625 25.265625 53.625 
Q 29.59375 56 35.59375 56 
Q 45.5625 56 51.78125 48.09375 
Q 58.015625 40.1875 58.015625 27.296875 
Q 58.015625 14.40625 51.78125 6.484375 
Q 45.5625 -1.421875 35.59375 -1.421875 
Q 29.59375 -1.421875 25.265625 0.953125 
Q 20.953125 3.328125 18.109375 8.203125 
L 18.109375 0 
L 9.078125 0 
L 9.078125 75.984375 
L 18.109375 75.984375 
z
" id="DejaVuSans-62"/>
     <path d="M 2.984375 54.6875 
L 12.5 54.6875 
L 29.59375 8.796875 
L 46.6875 54.6875 
L 56.203125 54.6875 
L 35.6875 0 
L 23.484375 0 
z
" id="DejaVuSans-76"/>
    </defs>
    <g style="fill:#f0ad4e;" transform="translate(173.631681 12.082844)scale(0.13 -0.13)">
     <use xlink:href="#DejaVuSans-49"/>
     <use x="29.492188" xlink:href="#DejaVuSans-6e"/>
     <use x="92.871094" xlink:href="#DejaVuSans-69"/>
     <use x="120.654297" xlink:href="#DejaVuSans-74"/>
     <use x="159.863281" xlink:href="#DejaVuSans-69"/>
     <use x="187.646484" xlink:href="#DejaVuSans-61"/>
     <use x="248.925781" xlink:href="#DejaVuSans-6c"/>
     <use x="276.708984" xlink:href="#DejaVuSans-20"/>
     <use x="308.496094" xlink:href="#DejaVuSans-6f"/>
     <use x="369.677734" xlink:href="#DejaVuSans-62"/>
     <use x="433.154297" xlink:href="#DejaVuSans-73"/>
     <use x="485.253906" xlink:href="#DejaVuSans-65"/>
     <use x="546.777344" xlink:href="#DejaVuSans-72"/>
     <use x="587.890625" xlink:href="#DejaVuSans-76"/>
     <use x="647.070312" xlink:href="#DejaVuSans-61"/>
     <use x="708.349609" xlink:href="#DejaVuSans-74"/>
     <use x="747.558594" xlink:href="#DejaVuSans-69"/>
     <use x="775.341797" xlink:href="#DejaVuSans-6f"/>
     <use x="836.523438" xlink:href="#DejaVuSans-6e"/>
    </g>
    <!-- $a=-0.292$ -->
    <defs>
     <path d="M 10.59375 45.40625 
L 73.1875 45.40625 
L 73.1875 37.203125 
L 10.59375 37.203125 
z
M 10.59375 25.484375 
L 73.1875 25.484375 
L 73.1875 17.1875 
L 10.59375 17.1875 
z
" id="DejaVuSans-3d"/>
     <path d="M 10.984375 1.515625 
L 10.984375 10.5 
Q 14.703125 8.734375 18.5 7.8125 
Q 22.3125 6.890625 25.984375 6.890625 
Q 35.75 6.890625 40.890625 13.453125 
Q 46.046875 20.015625 46.78125 33.40625 
Q 43.953125 29.203125 39.59375 26.953125 
Q 35.25 24.703125 29.984375 24.703125 
Q 19.046875 24.703125 12.671875 31.3125 
Q 6.296875 37.9375 6.296875 49.421875 
Q 6.296875 60.640625 12.9375 67.421875 
Q 19.578125 74.21875 30.609375 74.21875 
Q 43.265625 74.21875 49.921875 64.515625 
Q 56.59375 54.828125 56.59375 36.375 
Q 56.59375 19.140625 48.40625 8.859375 
Q 40.234375 -1.421875 26.421875 -1.421875 
Q 22.703125 -1.421875 18.890625 -0.6875 
Q 15.09375 0.046875 10.984375 1.515625 
M 30.609375 32.421875 
Q 37.25 32.421875 41.125 36.953125 
Q 45.015625 41.5 45.015625 49.421875 
Q 45.015625 57.28125 41.125 61.84375 
Q 37.25 66.40625 30.609375 66.40625 
Q 23.96875 66.40625 20.09375 61.84375 
Q 16.21875 57.28125 16.21875 49.421875 
Q 16.21875 41.5 20.09375 36.953125 
Q 23.96875 32.421875 30.609375 32.421875 
" id="DejaVuSans-39"/>
    </defs>
    <g style="fill:#f0ad4e;" transform="translate(193.580587 26.64)scale(0.13 -0.13)">
     <use transform="translate(0 0.78125)" xlink:href="#DejaVuSans-Oblique-61"/>
     <use transform="translate(80.761719 0.78125)" xlink:href="#DejaVuSans-3d"/>
     <use transform="translate(203.515625 0.78125)" xlink:href="#DejaVuSans-2212"/>
     <use transform="translate(306.787109 0.78125)" xlink:href="#DejaVuSans-30"/>
     <use transform="translate(370.410156 0.78125)" xlink:href="#DejaVuSans-2e"/>
     <use transform="translate(402.119141 0.78125)" xlink:href="#DejaVuSans-32"/>
     <use transform="translate(465.726562 0.78125)" xlink:href="#DejaVuSans-39"/>
     <use transform="translate(529.333984 0.78125)" xlink:href="#DejaVuSans-32"/>
    </g>
   </g>
  </g>
  <g id="axes_3">
   <g id="line2d_9">
    <path clip-path="url(#p20f337ecd7)" d="M 124.007513 244.8 
L 124.007513 126 
" style="fill:none;stroke:#d9534f;stroke-linecap:square;stroke-width:2;"/>
   </g>
   <g id="line2d_10">
    <path clip-path="url(#p20f337ecd7)" d="M 328.399992 244.8 
L 328.399992 126 
" style="fill:none;stroke:#d9534f;stroke-linecap:square;stroke-width:2;"/>
   </g>
   <g id="text_10">
    <!-- 2.5$^{th}$ -->
    <defs>
     <path d="M 10.796875 72.90625 
L 49.515625 72.90625 
L 49.515625 64.59375 
L 19.828125 64.59375 
L 19.828125 46.734375 
Q 21.96875 47.46875 24.109375 47.828125 
Q 26.265625 48.1875 28.421875 48.1875 
Q 40.625 48.1875 47.75 41.5 
Q 54.890625 34.8125 54.890625 23.390625 
Q 54.890625 11.625 47.5625 5.09375 
Q 40.234375 -1.421875 26.90625 -1.421875 
Q 22.3125 -1.421875 17.546875 -0.640625 
Q 12.796875 0.140625 7.71875 1.703125 
L 7.71875 11.625 
Q 12.109375 9.234375 16.796875 8.0625 
Q 21.484375 6.890625 26.703125 6.890625 
Q 35.15625 6.890625 40.078125 11.328125 
Q 45.015625 15.765625 45.015625 23.390625 
Q 45.015625 31 40.078125 35.4375 
Q 35.15625 39.890625 26.703125 39.890625 
Q 22.75 39.890625 18.8125 39.015625 
Q 14.890625 38.140625 10.796875 36.28125 
z
" id="DejaVuSans-35"/>
     <path d="M 42.28125 54.6875 
L 40.921875 47.703125 
L 23 47.703125 
L 17.1875 18.015625 
Q 16.890625 16.359375 16.75 15.234375 
Q 16.609375 14.109375 16.609375 13.484375 
Q 16.609375 10.359375 18.484375 8.9375 
Q 20.359375 7.515625 24.515625 7.515625 
L 33.59375 7.515625 
L 32.078125 0 
L 23.484375 0 
Q 15.484375 0 11.546875 3.125 
Q 7.625 6.25 7.625 12.59375 
Q 7.625 13.71875 7.765625 15.0625 
Q 7.90625 16.40625 8.203125 18.015625 
L 14.015625 47.703125 
L 6.390625 47.703125 
L 7.8125 54.6875 
L 15.28125 54.6875 
L 18.3125 70.21875 
L 27.296875 70.21875 
L 24.3125 54.6875 
z
" id="DejaVuSans-Oblique-74"/>
     <path d="M 55.71875 33.015625 
L 49.3125 0 
L 40.28125 0 
L 46.6875 32.671875 
Q 47.125 34.96875 47.359375 36.71875 
Q 47.609375 38.484375 47.609375 39.5 
Q 47.609375 43.609375 45.015625 45.890625 
Q 42.4375 48.1875 37.796875 48.1875 
Q 30.5625 48.1875 25.265625 43.296875 
Q 19.96875 38.421875 18.40625 30.328125 
L 12.5 0 
L 3.515625 0 
L 18.3125 75.984375 
L 27.296875 75.984375 
L 21.484375 46.09375 
Q 24.90625 50.6875 30.21875 53.34375 
Q 35.546875 56 41.40625 56 
Q 48.640625 56 52.609375 52.09375 
Q 56.59375 48.1875 56.59375 41.109375 
Q 56.59375 39.359375 56.375 37.359375 
Q 56.15625 35.359375 55.71875 33.015625 
" id="DejaVuSans-Oblique-68"/>
    </defs>
    <g style="fill:#d9534f;" transform="translate(106.382513 81.606563)scale(0.15 -0.15)">
     <use transform="translate(0 0.529687)" xlink:href="#DejaVuSans-32"/>
     <use transform="translate(63.623047 0.529687)" xlink:href="#DejaVuSans-2e"/>
     <use transform="translate(95.410156 0.529687)" xlink:href="#DejaVuSans-35"/>
     <use transform="translate(159.990234 38.810937)scale(0.7)" xlink:href="#DejaVuSans-Oblique-74"/>
     <use transform="translate(187.436523 38.810937)scale(0.7)" xlink:href="#DejaVuSans-Oblique-68"/>
    </g>
    <!-- percentile -->
    <g style="fill:#d9534f;" transform="translate(86.336419 98.403281)scale(0.15 -0.15)">
     <use xlink:href="#DejaVuSans-70"/>
     <use x="63.476562" xlink:href="#DejaVuSans-65"/>
     <use x="125" xlink:href="#DejaVuSans-72"/>
     <use x="166.082031" xlink:href="#DejaVuSans-63"/>
     <use x="221.0625" xlink:href="#DejaVuSans-65"/>
     <use x="282.585938" xlink:href="#DejaVuSans-6e"/>
     <use x="345.964844" xlink:href="#DejaVuSans-74"/>
     <use x="385.173828" xlink:href="#DejaVuSans-69"/>
     <use x="412.957031" xlink:href="#DejaVuSans-6c"/>
     <use x="440.740234" xlink:href="#DejaVuSans-65"/>
    </g>
    <!-- -0.674 -->
    <defs>
     <path d="M 4.890625 31.390625 
L 31.203125 31.390625 
L 31.203125 23.390625 
L 4.890625 23.390625 
z
" id="DejaVuSans-2d"/>
     <path d="M 8.203125 72.90625 
L 55.078125 72.90625 
L 55.078125 68.703125 
L 28.609375 0 
L 18.3125 0 
L 43.21875 64.59375 
L 8.203125 64.59375 
z
" id="DejaVuSans-37"/>
    </defs>
    <g style="fill:#d9534f;" transform="translate(99.83056 115.2)scale(0.15 -0.15)">
     <use xlink:href="#DejaVuSans-2d"/>
     <use x="36.083984" xlink:href="#DejaVuSans-30"/>
     <use x="99.707031" xlink:href="#DejaVuSans-2e"/>
     <use x="131.494141" xlink:href="#DejaVuSans-36"/>
     <use x="195.117188" xlink:href="#DejaVuSans-37"/>
     <use x="258.740234" xlink:href="#DejaVuSans-34"/>
    </g>
   </g>
   <g id="text_11">
    <!-- 97.5$^{th}$ -->
    <g style="fill:#d9534f;" transform="translate(305.974992 81.606563)scale(0.15 -0.15)">
     <use transform="translate(0 0.529687)" xlink:href="#DejaVuSans-39"/>
     <use transform="translate(63.623047 0.529687)" xlink:href="#DejaVuSans-37"/>
     <use transform="translate(127.246094 0.529687)" xlink:href="#DejaVuSans-2e"/>
     <use transform="translate(159.033203 0.529687)" xlink:href="#DejaVuSans-35"/>
     <use transform="translate(223.613281 38.810937)scale(0.7)" xlink:href="#DejaVuSans-Oblique-74"/>
     <use transform="translate(251.05957 38.810937)scale(0.7)" xlink:href="#DejaVuSans-Oblique-68"/>
    </g>
    <!-- percentile -->
    <g style="fill:#d9534f;" transform="translate(290.728898 98.403281)scale(0.15 -0.15)">
     <use xlink:href="#DejaVuSans-70"/>
     <use x="63.476562" xlink:href="#DejaVuSans-65"/>
     <use x="125" xlink:href="#DejaVuSans-72"/>
     <use x="166.082031" xlink:href="#DejaVuSans-63"/>
     <use x="221.0625" xlink:href="#DejaVuSans-65"/>
     <use x="282.585938" xlink:href="#DejaVuSans-6e"/>
     <use x="345.964844" xlink:href="#DejaVuSans-74"/>
     <use x="385.173828" xlink:href="#DejaVuSans-69"/>
     <use x="412.957031" xlink:href="#DejaVuSans-6c"/>
     <use x="440.740234" xlink:href="#DejaVuSans-65"/>
    </g>
    <!-- 0.048 -->
    <g style="fill:#d9534f;" transform="translate(306.928898 115.2)scale(0.15 -0.15)">
     <use xlink:href="#DejaVuSans-30"/>
     <use x="63.623047" xlink:href="#DejaVuSans-2e"/>
     <use x="95.410156" xlink:href="#DejaVuSans-30"/>
     <use x="159.033203" xlink:href="#DejaVuSans-34"/>
     <use x="222.65625" xlink:href="#DejaVuSans-38"/>
    </g>
   </g>
  </g>
 </g>
 <defs>
  <clipPath id="p20f337ecd7">
   <rect height="216" width="410.4" x="4.32" y="28.8"/>
  </clipPath>
 </defs>
</svg>
