<?xml version="1.0" encoding="utf-8" standalone="no"?>
<!DOCTYPE svg PUBLIC "-//W3C//DTD SVG 1.1//EN"
  "http://www.w3.org/Graphics/SVG/1.1/DTD/svg11.dtd">
<!-- Created with matplotlib (http://matplotlib.org/) -->
<svg height="288pt" version="1.1" viewBox="0 0 432 288" width="432pt" xmlns="http://www.w3.org/2000/svg" xmlns:xlink="http://www.w3.org/1999/xlink">
 <defs>
  <style type="text/css">
*{stroke-linecap:butt;stroke-linejoin:round;}
  </style>
 </defs>
 <g id="figure_1">
  <g id="patch_1">
   <path d="M 0 288 
L 432 288 
L 432 0 
L 0 0 
z
" style="fill:none;"/>
  </g>
  <g id="axes_1">
   <g id="patch_2">
    <path d="M 60.48 247.68 
L 427.68 247.68 
L 427.68 2.88 
L 60.48 2.88 
z
" style="fill:none;"/>
   </g>
   <g id="matplotlib.axis_1">
    <g id="xtick_1">
     <g id="line2d_1">
      <defs>
       <path d="M 0 0 
L 0 4 
" id="m495aab2ca8" style="stroke:#d2d2d2;"/>
      </defs>
      <g>
       <use style="fill:#d2d2d2;stroke:#d2d2d2;" x="69.122424" xlink:href="#m495aab2ca8" y="247.68"/>
      </g>
     </g>
     <g id="text_1">
      <!-- 0 -->
      <defs>
       <path d="M 31.78125 66.40625 
Q 24.171875 66.40625 20.328125 58.90625 
Q 16.5 51.421875 16.5 36.375 
Q 16.5 21.390625 20.328125 13.890625 
Q 24.171875 6.390625 31.78125 6.390625 
Q 39.453125 6.390625 43.28125 13.890625 
Q 47.125 21.390625 47.125 36.375 
Q 47.125 51.421875 43.28125 58.90625 
Q 39.453125 66.40625 31.78125 66.40625 
M 31.78125 74.21875 
Q 44.046875 74.21875 50.515625 64.515625 
Q 56.984375 54.828125 56.984375 36.375 
Q 56.984375 17.96875 50.515625 8.265625 
Q 44.046875 -1.421875 31.78125 -1.421875 
Q 19.53125 -1.421875 13.0625 8.265625 
Q 6.59375 17.96875 6.59375 36.375 
Q 6.59375 54.828125 13.0625 64.515625 
Q 19.53125 74.21875 31.78125 74.21875 
" id="DejaVuSans-30"/>
      </defs>
      <g style="fill:#d2d2d2;" transform="translate(64.668674 264.317813)scale(0.14 -0.14)">
       <use xlink:href="#DejaVuSans-30"/>
      </g>
     </g>
    </g>
    <g id="xtick_2">
     <g id="line2d_2">
      <g>
       <use style="fill:#d2d2d2;stroke:#d2d2d2;" x="117.607273" xlink:href="#m495aab2ca8" y="247.68"/>
      </g>
     </g>
     <g id="text_2">
      <!-- 10 -->
      <defs>
       <path d="M 12.40625 8.296875 
L 28.515625 8.296875 
L 28.515625 63.921875 
L 10.984375 60.40625 
L 10.984375 69.390625 
L 28.421875 72.90625 
L 38.28125 72.90625 
L 38.28125 8.296875 
L 54.390625 8.296875 
L 54.390625 0 
L 12.40625 0 
z
" id="DejaVuSans-31"/>
      </defs>
      <g style="fill:#d2d2d2;" transform="translate(108.699773 264.317813)scale(0.14 -0.14)">
       <use xlink:href="#DejaVuSans-31"/>
       <use x="63.623047" xlink:href="#DejaVuSans-30"/>
      </g>
     </g>
    </g>
    <g id="xtick_3">
     <g id="line2d_3">
      <g>
       <use style="fill:#d2d2d2;stroke:#d2d2d2;" x="166.092121" xlink:href="#m495aab2ca8" y="247.68"/>
      </g>
     </g>
     <g id="text_3">
      <!-- 20 -->
      <defs>
       <path d="M 19.1875 8.296875 
L 53.609375 8.296875 
L 53.609375 0 
L 7.328125 0 
L 7.328125 8.296875 
Q 12.9375 14.109375 22.625 23.890625 
Q 32.328125 33.6875 34.8125 36.53125 
Q 39.546875 41.84375 41.421875 45.53125 
Q 43.3125 49.21875 43.3125 52.78125 
Q 43.3125 58.59375 39.234375 62.25 
Q 35.15625 65.921875 28.609375 65.921875 
Q 23.96875 65.921875 18.8125 64.3125 
Q 13.671875 62.703125 7.8125 59.421875 
L 7.8125 69.390625 
Q 13.765625 71.78125 18.9375 73 
Q 24.125 74.21875 28.421875 74.21875 
Q 39.75 74.21875 46.484375 68.546875 
Q 53.21875 62.890625 53.21875 53.421875 
Q 53.21875 48.921875 51.53125 44.890625 
Q 49.859375 40.875 45.40625 35.40625 
Q 44.1875 33.984375 37.640625 27.21875 
Q 31.109375 20.453125 19.1875 8.296875 
" id="DejaVuSans-32"/>
      </defs>
      <g style="fill:#d2d2d2;" transform="translate(157.184621 264.317813)scale(0.14 -0.14)">
       <use xlink:href="#DejaVuSans-32"/>
       <use x="63.623047" xlink:href="#DejaVuSans-30"/>
      </g>
     </g>
    </g>
    <g id="xtick_4">
     <g id="line2d_4">
      <g>
       <use style="fill:#d2d2d2;stroke:#d2d2d2;" x="214.57697" xlink:href="#m495aab2ca8" y="247.68"/>
      </g>
     </g>
     <g id="text_4">
      <!-- 30 -->
      <defs>
       <path d="M 40.578125 39.3125 
Q 47.65625 37.796875 51.625 33 
Q 55.609375 28.21875 55.609375 21.1875 
Q 55.609375 10.40625 48.1875 4.484375 
Q 40.765625 -1.421875 27.09375 -1.421875 
Q 22.515625 -1.421875 17.65625 -0.515625 
Q 12.796875 0.390625 7.625 2.203125 
L 7.625 11.71875 
Q 11.71875 9.328125 16.59375 8.109375 
Q 21.484375 6.890625 26.8125 6.890625 
Q 36.078125 6.890625 40.9375 10.546875 
Q 45.796875 14.203125 45.796875 21.1875 
Q 45.796875 27.640625 41.28125 31.265625 
Q 36.765625 34.90625 28.71875 34.90625 
L 20.21875 34.90625 
L 20.21875 43.015625 
L 29.109375 43.015625 
Q 36.375 43.015625 40.234375 45.921875 
Q 44.09375 48.828125 44.09375 54.296875 
Q 44.09375 59.90625 40.109375 62.90625 
Q 36.140625 65.921875 28.71875 65.921875 
Q 24.65625 65.921875 20.015625 65.03125 
Q 15.375 64.15625 9.8125 62.3125 
L 9.8125 71.09375 
Q 15.4375 72.65625 20.34375 73.4375 
Q 25.25 74.21875 29.59375 74.21875 
Q 40.828125 74.21875 47.359375 69.109375 
Q 53.90625 64.015625 53.90625 55.328125 
Q 53.90625 49.265625 50.4375 45.09375 
Q 46.96875 40.921875 40.578125 39.3125 
" id="DejaVuSans-33"/>
      </defs>
      <g style="fill:#d2d2d2;" transform="translate(205.66947 264.317813)scale(0.14 -0.14)">
       <use xlink:href="#DejaVuSans-33"/>
       <use x="63.623047" xlink:href="#DejaVuSans-30"/>
      </g>
     </g>
    </g>
    <g id="xtick_5">
     <g id="line2d_5">
      <g>
       <use style="fill:#d2d2d2;stroke:#d2d2d2;" x="263.061818" xlink:href="#m495aab2ca8" y="247.68"/>
      </g>
     </g>
     <g id="text_5">
      <!-- 40 -->
      <defs>
       <path d="M 37.796875 64.3125 
L 12.890625 25.390625 
L 37.796875 25.390625 
z
M 35.203125 72.90625 
L 47.609375 72.90625 
L 47.609375 25.390625 
L 58.015625 25.390625 
L 58.015625 17.1875 
L 47.609375 17.1875 
L 47.609375 0 
L 37.796875 0 
L 37.796875 17.1875 
L 4.890625 17.1875 
L 4.890625 26.703125 
z
" id="DejaVuSans-34"/>
      </defs>
      <g style="fill:#d2d2d2;" transform="translate(254.154318 264.317813)scale(0.14 -0.14)">
       <use xlink:href="#DejaVuSans-34"/>
       <use x="63.623047" xlink:href="#DejaVuSans-30"/>
      </g>
     </g>
    </g>
    <g id="xtick_6">
     <g id="line2d_6">
      <g>
       <use style="fill:#d2d2d2;stroke:#d2d2d2;" x="311.546667" xlink:href="#m495aab2ca8" y="247.68"/>
      </g>
     </g>
     <g id="text_6">
      <!-- 50 -->
      <defs>
       <path d="M 10.796875 72.90625 
L 49.515625 72.90625 
L 49.515625 64.59375 
L 19.828125 64.59375 
L 19.828125 46.734375 
Q 21.96875 47.46875 24.109375 47.828125 
Q 26.265625 48.1875 28.421875 48.1875 
Q 40.625 48.1875 47.75 41.5 
Q 54.890625 34.8125 54.890625 23.390625 
Q 54.890625 11.625 47.5625 5.09375 
Q 40.234375 -1.421875 26.90625 -1.421875 
Q 22.3125 -1.421875 17.546875 -0.640625 
Q 12.796875 0.140625 7.71875 1.703125 
L 7.71875 11.625 
Q 12.109375 9.234375 16.796875 8.0625 
Q 21.484375 6.890625 26.703125 6.890625 
Q 35.15625 6.890625 40.078125 11.328125 
Q 45.015625 15.765625 45.015625 23.390625 
Q 45.015625 31 40.078125 35.4375 
Q 35.15625 39.890625 26.703125 39.890625 
Q 22.75 39.890625 18.8125 39.015625 
Q 14.890625 38.140625 10.796875 36.28125 
z
" id="DejaVuSans-35"/>
      </defs>
      <g style="fill:#d2d2d2;" transform="translate(302.639167 264.317813)scale(0.14 -0.14)">
       <use xlink:href="#DejaVuSans-35"/>
       <use x="63.623047" xlink:href="#DejaVuSans-30"/>
      </g>
     </g>
    </g>
    <g id="xtick_7">
     <g id="line2d_7">
      <g>
       <use style="fill:#d2d2d2;stroke:#d2d2d2;" x="360.031515" xlink:href="#m495aab2ca8" y="247.68"/>
      </g>
     </g>
     <g id="text_7">
      <!-- 60 -->
      <defs>
       <path d="M 33.015625 40.375 
Q 26.375 40.375 22.484375 35.828125 
Q 18.609375 31.296875 18.609375 23.390625 
Q 18.609375 15.53125 22.484375 10.953125 
Q 26.375 6.390625 33.015625 6.390625 
Q 39.65625 6.390625 43.53125 10.953125 
Q 47.40625 15.53125 47.40625 23.390625 
Q 47.40625 31.296875 43.53125 35.828125 
Q 39.65625 40.375 33.015625 40.375 
M 52.59375 71.296875 
L 52.59375 62.3125 
Q 48.875 64.0625 45.09375 64.984375 
Q 41.3125 65.921875 37.59375 65.921875 
Q 27.828125 65.921875 22.671875 59.328125 
Q 17.53125 52.734375 16.796875 39.40625 
Q 19.671875 43.65625 24.015625 45.921875 
Q 28.375 48.1875 33.59375 48.1875 
Q 44.578125 48.1875 50.953125 41.515625 
Q 57.328125 34.859375 57.328125 23.390625 
Q 57.328125 12.15625 50.6875 5.359375 
Q 44.046875 -1.421875 33.015625 -1.421875 
Q 20.359375 -1.421875 13.671875 8.265625 
Q 6.984375 17.96875 6.984375 36.375 
Q 6.984375 53.65625 15.1875 63.9375 
Q 23.390625 74.21875 37.203125 74.21875 
Q 40.921875 74.21875 44.703125 73.484375 
Q 48.484375 72.75 52.59375 71.296875 
" id="DejaVuSans-36"/>
      </defs>
      <g style="fill:#d2d2d2;" transform="translate(351.124015 264.317813)scale(0.14 -0.14)">
       <use xlink:href="#DejaVuSans-36"/>
       <use x="63.623047" xlink:href="#DejaVuSans-30"/>
      </g>
     </g>
    </g>
    <g id="xtick_8">
     <g id="line2d_8">
      <g>
       <use style="fill:#d2d2d2;stroke:#d2d2d2;" x="408.516364" xlink:href="#m495aab2ca8" y="247.68"/>
      </g>
     </g>
     <g id="text_8">
      <!-- 70 -->
      <defs>
       <path d="M 8.203125 72.90625 
L 55.078125 72.90625 
L 55.078125 68.703125 
L 28.609375 0 
L 18.3125 0 
L 43.21875 64.59375 
L 8.203125 64.59375 
z
" id="DejaVuSans-37"/>
      </defs>
      <g style="fill:#d2d2d2;" transform="translate(399.608864 264.317813)scale(0.14 -0.14)">
       <use xlink:href="#DejaVuSans-37"/>
       <use x="63.623047" xlink:href="#DejaVuSans-30"/>
      </g>
     </g>
    </g>
    <g id="text_9">
     <!-- Bill amount ($) -->
     <defs>
      <path d="M 19.671875 34.8125 
L 19.671875 8.109375 
L 35.5 8.109375 
Q 43.453125 8.109375 47.28125 11.40625 
Q 51.125 14.703125 51.125 21.484375 
Q 51.125 28.328125 47.28125 31.5625 
Q 43.453125 34.8125 35.5 34.8125 
z
M 19.671875 64.796875 
L 19.671875 42.828125 
L 34.28125 42.828125 
Q 41.5 42.828125 45.03125 45.53125 
Q 48.578125 48.25 48.578125 53.8125 
Q 48.578125 59.328125 45.03125 62.0625 
Q 41.5 64.796875 34.28125 64.796875 
z
M 9.8125 72.90625 
L 35.015625 72.90625 
Q 46.296875 72.90625 52.390625 68.21875 
Q 58.5 63.53125 58.5 54.890625 
Q 58.5 48.1875 55.375 44.234375 
Q 52.25 40.28125 46.1875 39.3125 
Q 53.46875 37.75 57.5 32.78125 
Q 61.53125 27.828125 61.53125 20.40625 
Q 61.53125 10.640625 54.890625 5.3125 
Q 48.25 0 35.984375 0 
L 9.8125 0 
z
" id="DejaVuSans-42"/>
      <path d="M 9.421875 54.6875 
L 18.40625 54.6875 
L 18.40625 0 
L 9.421875 0 
z
M 9.421875 75.984375 
L 18.40625 75.984375 
L 18.40625 64.59375 
L 9.421875 64.59375 
z
" id="DejaVuSans-69"/>
      <path d="M 9.421875 75.984375 
L 18.40625 75.984375 
L 18.40625 0 
L 9.421875 0 
z
" id="DejaVuSans-6c"/>
      <path id="DejaVuSans-20"/>
      <path d="M 34.28125 27.484375 
Q 23.390625 27.484375 19.1875 25 
Q 14.984375 22.515625 14.984375 16.5 
Q 14.984375 11.71875 18.140625 8.90625 
Q 21.296875 6.109375 26.703125 6.109375 
Q 34.1875 6.109375 38.703125 11.40625 
Q 43.21875 16.703125 43.21875 25.484375 
L 43.21875 27.484375 
z
M 52.203125 31.203125 
L 52.203125 0 
L 43.21875 0 
L 43.21875 8.296875 
Q 40.140625 3.328125 35.546875 0.953125 
Q 30.953125 -1.421875 24.3125 -1.421875 
Q 15.921875 -1.421875 10.953125 3.296875 
Q 6 8.015625 6 15.921875 
Q 6 25.140625 12.171875 29.828125 
Q 18.359375 34.515625 30.609375 34.515625 
L 43.21875 34.515625 
L 43.21875 35.40625 
Q 43.21875 41.609375 39.140625 45 
Q 35.0625 48.390625 27.6875 48.390625 
Q 23 48.390625 18.546875 47.265625 
Q 14.109375 46.140625 10.015625 43.890625 
L 10.015625 52.203125 
Q 14.9375 54.109375 19.578125 55.046875 
Q 24.21875 56 28.609375 56 
Q 40.484375 56 46.34375 49.84375 
Q 52.203125 43.703125 52.203125 31.203125 
" id="DejaVuSans-61"/>
      <path d="M 52 44.1875 
Q 55.375 50.25 60.0625 53.125 
Q 64.75 56 71.09375 56 
Q 79.640625 56 84.28125 50.015625 
Q 88.921875 44.046875 88.921875 33.015625 
L 88.921875 0 
L 79.890625 0 
L 79.890625 32.71875 
Q 79.890625 40.578125 77.09375 44.375 
Q 74.3125 48.1875 68.609375 48.1875 
Q 61.625 48.1875 57.5625 43.546875 
Q 53.515625 38.921875 53.515625 30.90625 
L 53.515625 0 
L 44.484375 0 
L 44.484375 32.71875 
Q 44.484375 40.625 41.703125 44.40625 
Q 38.921875 48.1875 33.109375 48.1875 
Q 26.21875 48.1875 22.15625 43.53125 
Q 18.109375 38.875 18.109375 30.90625 
L 18.109375 0 
L 9.078125 0 
L 9.078125 54.6875 
L 18.109375 54.6875 
L 18.109375 46.1875 
Q 21.1875 51.21875 25.484375 53.609375 
Q 29.78125 56 35.6875 56 
Q 41.65625 56 45.828125 52.96875 
Q 50 49.953125 52 44.1875 
" id="DejaVuSans-6d"/>
      <path d="M 30.609375 48.390625 
Q 23.390625 48.390625 19.1875 42.75 
Q 14.984375 37.109375 14.984375 27.296875 
Q 14.984375 17.484375 19.15625 11.84375 
Q 23.34375 6.203125 30.609375 6.203125 
Q 37.796875 6.203125 41.984375 11.859375 
Q 46.1875 17.53125 46.1875 27.296875 
Q 46.1875 37.015625 41.984375 42.703125 
Q 37.796875 48.390625 30.609375 48.390625 
M 30.609375 56 
Q 42.328125 56 49.015625 48.375 
Q 55.71875 40.765625 55.71875 27.296875 
Q 55.71875 13.875 49.015625 6.21875 
Q 42.328125 -1.421875 30.609375 -1.421875 
Q 18.84375 -1.421875 12.171875 6.21875 
Q 5.515625 13.875 5.515625 27.296875 
Q 5.515625 40.765625 12.171875 48.375 
Q 18.84375 56 30.609375 56 
" id="DejaVuSans-6f"/>
      <path d="M 8.5 21.578125 
L 8.5 54.6875 
L 17.484375 54.6875 
L 17.484375 21.921875 
Q 17.484375 14.15625 20.5 10.265625 
Q 23.53125 6.390625 29.59375 6.390625 
Q 36.859375 6.390625 41.078125 11.03125 
Q 45.3125 15.671875 45.3125 23.6875 
L 45.3125 54.6875 
L 54.296875 54.6875 
L 54.296875 0 
L 45.3125 0 
L 45.3125 8.40625 
Q 42.046875 3.421875 37.71875 1 
Q 33.40625 -1.421875 27.6875 -1.421875 
Q 18.265625 -1.421875 13.375 4.4375 
Q 8.5 10.296875 8.5 21.578125 
M 31.109375 56 
z
" id="DejaVuSans-75"/>
      <path d="M 54.890625 33.015625 
L 54.890625 0 
L 45.90625 0 
L 45.90625 32.71875 
Q 45.90625 40.484375 42.875 44.328125 
Q 39.84375 48.1875 33.796875 48.1875 
Q 26.515625 48.1875 22.3125 43.546875 
Q 18.109375 38.921875 18.109375 30.90625 
L 18.109375 0 
L 9.078125 0 
L 9.078125 54.6875 
L 18.109375 54.6875 
L 18.109375 46.1875 
Q 21.34375 51.125 25.703125 53.5625 
Q 30.078125 56 35.796875 56 
Q 45.21875 56 50.046875 50.171875 
Q 54.890625 44.34375 54.890625 33.015625 
" id="DejaVuSans-6e"/>
      <path d="M 18.3125 70.21875 
L 18.3125 54.6875 
L 36.8125 54.6875 
L 36.8125 47.703125 
L 18.3125 47.703125 
L 18.3125 18.015625 
Q 18.3125 11.328125 20.140625 9.421875 
Q 21.96875 7.515625 27.59375 7.515625 
L 36.8125 7.515625 
L 36.8125 0 
L 27.59375 0 
Q 17.1875 0 13.234375 3.875 
Q 9.28125 7.765625 9.28125 18.015625 
L 9.28125 47.703125 
L 2.6875 47.703125 
L 2.6875 54.6875 
L 9.28125 54.6875 
L 9.28125 70.21875 
z
" id="DejaVuSans-74"/>
      <path d="M 31 75.875 
Q 24.46875 64.65625 21.28125 53.65625 
Q 18.109375 42.671875 18.109375 31.390625 
Q 18.109375 20.125 21.3125 9.0625 
Q 24.515625 -2 31 -13.1875 
L 23.1875 -13.1875 
Q 15.875 -1.703125 12.234375 9.375 
Q 8.59375 20.453125 8.59375 31.390625 
Q 8.59375 42.28125 12.203125 53.3125 
Q 15.828125 64.359375 23.1875 75.875 
z
" id="DejaVuSans-28"/>
      <path d="M 33.796875 -14.703125 
L 28.90625 -14.703125 
L 28.859375 0 
Q 23.734375 0.09375 18.609375 1.1875 
Q 13.484375 2.296875 8.296875 4.5 
L 8.296875 13.28125 
Q 13.28125 10.15625 18.375 8.5625 
Q 23.484375 6.984375 28.90625 6.9375 
L 28.90625 29.203125 
Q 18.109375 30.953125 13.203125 35.15625 
Q 8.296875 39.359375 8.296875 46.6875 
Q 8.296875 54.640625 13.625 59.21875 
Q 18.953125 63.8125 28.90625 64.5 
L 28.90625 75.984375 
L 33.796875 75.984375 
L 33.796875 64.65625 
Q 38.328125 64.453125 42.578125 63.6875 
Q 46.828125 62.9375 50.875 61.625 
L 50.875 53.078125 
Q 46.828125 55.125 42.546875 56.25 
Q 38.28125 57.375 33.796875 57.5625 
L 33.796875 36.71875 
Q 44.875 35.015625 50.09375 30.609375 
Q 55.328125 26.21875 55.328125 18.609375 
Q 55.328125 10.359375 49.78125 5.59375 
Q 44.234375 0.828125 33.796875 0.09375 
z
M 28.90625 37.59375 
L 28.90625 57.625 
Q 23.25 56.984375 20.265625 54.390625 
Q 17.28125 51.8125 17.28125 47.515625 
Q 17.28125 43.3125 20.03125 40.96875 
Q 22.796875 38.625 28.90625 37.59375 
M 33.796875 28.21875 
L 33.796875 7.078125 
Q 39.984375 7.90625 43.140625 10.59375 
Q 46.296875 13.28125 46.296875 17.671875 
Q 46.296875 21.96875 43.28125 24.5 
Q 40.28125 27.046875 33.796875 28.21875 
" id="DejaVuSans-24"/>
      <path d="M 8.015625 75.875 
L 15.828125 75.875 
Q 23.140625 64.359375 26.78125 53.3125 
Q 30.421875 42.28125 30.421875 31.390625 
Q 30.421875 20.453125 26.78125 9.375 
Q 23.140625 -1.703125 15.828125 -13.1875 
L 8.015625 -13.1875 
Q 14.5 -2 17.703125 9.0625 
Q 20.90625 20.125 20.90625 31.390625 
Q 20.90625 42.671875 17.703125 53.65625 
Q 14.5 64.65625 8.015625 75.875 
" id="DejaVuSans-29"/>
     </defs>
     <g style="fill:#d2d2d2;" transform="translate(184.64 283.386875)scale(0.16 -0.16)">
      <use xlink:href="#DejaVuSans-42"/>
      <use x="68.603516" xlink:href="#DejaVuSans-69"/>
      <use x="96.386719" xlink:href="#DejaVuSans-6c"/>
      <use x="124.169922" xlink:href="#DejaVuSans-6c"/>
      <use x="151.953125" xlink:href="#DejaVuSans-20"/>
      <use x="183.740234" xlink:href="#DejaVuSans-61"/>
      <use x="245.019531" xlink:href="#DejaVuSans-6d"/>
      <use x="342.431641" xlink:href="#DejaVuSans-6f"/>
      <use x="403.613281" xlink:href="#DejaVuSans-75"/>
      <use x="466.992188" xlink:href="#DejaVuSans-6e"/>
      <use x="530.371094" xlink:href="#DejaVuSans-74"/>
      <use x="569.580078" xlink:href="#DejaVuSans-20"/>
      <use x="601.367188" xlink:href="#DejaVuSans-28"/>
      <use x="640.380859" xlink:href="#DejaVuSans-24"/>
      <use x="704.003906" xlink:href="#DejaVuSans-29"/>
     </g>
    </g>
   </g>
   <g id="matplotlib.axis_2">
    <g id="ytick_1">
     <g id="line2d_9">
      <defs>
       <path d="M 0 0 
L -4 0 
" id="md4b0bbe2af" style="stroke:#d2d2d2;"/>
      </defs>
      <g>
       <use style="fill:#d2d2d2;stroke:#d2d2d2;" x="60.48" xlink:href="#md4b0bbe2af" y="246.992805"/>
      </g>
     </g>
     <g id="text_10">
      <!-- 5 -->
      <g style="fill:#d2d2d2;" transform="translate(45.5725 252.311711)scale(0.14 -0.14)">
       <use xlink:href="#DejaVuSans-35"/>
      </g>
     </g>
    </g>
    <g id="ytick_2">
     <g id="line2d_10">
      <g>
       <use style="fill:#d2d2d2;stroke:#d2d2d2;" x="60.48" xlink:href="#md4b0bbe2af" y="215.672572"/>
      </g>
     </g>
     <g id="text_11">
      <!-- 10 -->
      <g style="fill:#d2d2d2;" transform="translate(36.665 220.991478)scale(0.14 -0.14)">
       <use xlink:href="#DejaVuSans-31"/>
       <use x="63.623047" xlink:href="#DejaVuSans-30"/>
      </g>
     </g>
    </g>
    <g id="ytick_3">
     <g id="line2d_11">
      <g>
       <use style="fill:#d2d2d2;stroke:#d2d2d2;" x="60.48" xlink:href="#md4b0bbe2af" y="184.352339"/>
      </g>
     </g>
     <g id="text_12">
      <!-- 15 -->
      <g style="fill:#d2d2d2;" transform="translate(36.665 189.671245)scale(0.14 -0.14)">
       <use xlink:href="#DejaVuSans-31"/>
       <use x="63.623047" xlink:href="#DejaVuSans-35"/>
      </g>
     </g>
    </g>
    <g id="ytick_4">
     <g id="line2d_12">
      <g>
       <use style="fill:#d2d2d2;stroke:#d2d2d2;" x="60.48" xlink:href="#md4b0bbe2af" y="153.032105"/>
      </g>
     </g>
     <g id="text_13">
      <!-- 20 -->
      <g style="fill:#d2d2d2;" transform="translate(36.665 158.351012)scale(0.14 -0.14)">
       <use xlink:href="#DejaVuSans-32"/>
       <use x="63.623047" xlink:href="#DejaVuSans-30"/>
      </g>
     </g>
    </g>
    <g id="ytick_5">
     <g id="line2d_13">
      <g>
       <use style="fill:#d2d2d2;stroke:#d2d2d2;" x="60.48" xlink:href="#md4b0bbe2af" y="121.711872"/>
      </g>
     </g>
     <g id="text_14">
      <!-- 25 -->
      <g style="fill:#d2d2d2;" transform="translate(36.665 127.030778)scale(0.14 -0.14)">
       <use xlink:href="#DejaVuSans-32"/>
       <use x="63.623047" xlink:href="#DejaVuSans-35"/>
      </g>
     </g>
    </g>
    <g id="ytick_6">
     <g id="line2d_14">
      <g>
       <use style="fill:#d2d2d2;stroke:#d2d2d2;" x="60.48" xlink:href="#md4b0bbe2af" y="90.391639"/>
      </g>
     </g>
     <g id="text_15">
      <!-- 30 -->
      <g style="fill:#d2d2d2;" transform="translate(36.665 95.710545)scale(0.14 -0.14)">
       <use xlink:href="#DejaVuSans-33"/>
       <use x="63.623047" xlink:href="#DejaVuSans-30"/>
      </g>
     </g>
    </g>
    <g id="ytick_7">
     <g id="line2d_15">
      <g>
       <use style="fill:#d2d2d2;stroke:#d2d2d2;" x="60.48" xlink:href="#md4b0bbe2af" y="59.071406"/>
      </g>
     </g>
     <g id="text_16">
      <!-- 35 -->
      <g style="fill:#d2d2d2;" transform="translate(36.665 64.390312)scale(0.14 -0.14)">
       <use xlink:href="#DejaVuSans-33"/>
       <use x="63.623047" xlink:href="#DejaVuSans-35"/>
      </g>
     </g>
    </g>
    <g id="ytick_8">
     <g id="line2d_16">
      <g>
       <use style="fill:#d2d2d2;stroke:#d2d2d2;" x="60.48" xlink:href="#md4b0bbe2af" y="27.751173"/>
      </g>
     </g>
     <g id="text_17">
      <!-- 40 -->
      <g style="fill:#d2d2d2;" transform="translate(36.665 33.070079)scale(0.14 -0.14)">
       <use xlink:href="#DejaVuSans-34"/>
       <use x="63.623047" xlink:href="#DejaVuSans-30"/>
      </g>
     </g>
    </g>
    <g id="text_18">
     <!-- Tip percentage -->
     <defs>
      <path d="M -0.296875 72.90625 
L 61.375 72.90625 
L 61.375 64.59375 
L 35.5 64.59375 
L 35.5 0 
L 25.59375 0 
L 25.59375 64.59375 
L -0.296875 64.59375 
z
" id="DejaVuSans-54"/>
      <path d="M 18.109375 8.203125 
L 18.109375 -20.796875 
L 9.078125 -20.796875 
L 9.078125 54.6875 
L 18.109375 54.6875 
L 18.109375 46.390625 
Q 20.953125 51.265625 25.265625 53.625 
Q 29.59375 56 35.59375 56 
Q 45.5625 56 51.78125 48.09375 
Q 58.015625 40.1875 58.015625 27.296875 
Q 58.015625 14.40625 51.78125 6.484375 
Q 45.5625 -1.421875 35.59375 -1.421875 
Q 29.59375 -1.421875 25.265625 0.953125 
Q 20.953125 3.328125 18.109375 8.203125 
M 48.6875 27.296875 
Q 48.6875 37.203125 44.609375 42.84375 
Q 40.53125 48.484375 33.40625 48.484375 
Q 26.265625 48.484375 22.1875 42.84375 
Q 18.109375 37.203125 18.109375 27.296875 
Q 18.109375 17.390625 22.1875 11.75 
Q 26.265625 6.109375 33.40625 6.109375 
Q 40.53125 6.109375 44.609375 11.75 
Q 48.6875 17.390625 48.6875 27.296875 
" id="DejaVuSans-70"/>
      <path d="M 56.203125 29.59375 
L 56.203125 25.203125 
L 14.890625 25.203125 
Q 15.484375 15.921875 20.484375 11.0625 
Q 25.484375 6.203125 34.421875 6.203125 
Q 39.59375 6.203125 44.453125 7.46875 
Q 49.3125 8.734375 54.109375 11.28125 
L 54.109375 2.78125 
Q 49.265625 0.734375 44.1875 -0.34375 
Q 39.109375 -1.421875 33.890625 -1.421875 
Q 20.796875 -1.421875 13.15625 6.1875 
Q 5.515625 13.8125 5.515625 26.8125 
Q 5.515625 40.234375 12.765625 48.109375 
Q 20.015625 56 32.328125 56 
Q 43.359375 56 49.78125 48.890625 
Q 56.203125 41.796875 56.203125 29.59375 
M 47.21875 32.234375 
Q 47.125 39.59375 43.09375 43.984375 
Q 39.0625 48.390625 32.421875 48.390625 
Q 24.90625 48.390625 20.390625 44.140625 
Q 15.875 39.890625 15.1875 32.171875 
z
" id="DejaVuSans-65"/>
      <path d="M 41.109375 46.296875 
Q 39.59375 47.171875 37.8125 47.578125 
Q 36.03125 48 33.890625 48 
Q 26.265625 48 22.1875 43.046875 
Q 18.109375 38.09375 18.109375 28.8125 
L 18.109375 0 
L 9.078125 0 
L 9.078125 54.6875 
L 18.109375 54.6875 
L 18.109375 46.1875 
Q 20.953125 51.171875 25.484375 53.578125 
Q 30.03125 56 36.53125 56 
Q 37.453125 56 38.578125 55.875 
Q 39.703125 55.765625 41.0625 55.515625 
z
" id="DejaVuSans-72"/>
      <path d="M 48.78125 52.59375 
L 48.78125 44.1875 
Q 44.96875 46.296875 41.140625 47.34375 
Q 37.3125 48.390625 33.40625 48.390625 
Q 24.65625 48.390625 19.8125 42.84375 
Q 14.984375 37.3125 14.984375 27.296875 
Q 14.984375 17.28125 19.8125 11.734375 
Q 24.65625 6.203125 33.40625 6.203125 
Q 37.3125 6.203125 41.140625 7.25 
Q 44.96875 8.296875 48.78125 10.40625 
L 48.78125 2.09375 
Q 45.015625 0.34375 40.984375 -0.53125 
Q 36.96875 -1.421875 32.421875 -1.421875 
Q 20.0625 -1.421875 12.78125 6.34375 
Q 5.515625 14.109375 5.515625 27.296875 
Q 5.515625 40.671875 12.859375 48.328125 
Q 20.21875 56 33.015625 56 
Q 37.15625 56 41.109375 55.140625 
Q 45.0625 54.296875 48.78125 52.59375 
" id="DejaVuSans-63"/>
      <path d="M 45.40625 27.984375 
Q 45.40625 37.75 41.375 43.109375 
Q 37.359375 48.484375 30.078125 48.484375 
Q 22.859375 48.484375 18.828125 43.109375 
Q 14.796875 37.75 14.796875 27.984375 
Q 14.796875 18.265625 18.828125 12.890625 
Q 22.859375 7.515625 30.078125 7.515625 
Q 37.359375 7.515625 41.375 12.890625 
Q 45.40625 18.265625 45.40625 27.984375 
M 54.390625 6.78125 
Q 54.390625 -7.171875 48.1875 -13.984375 
Q 42 -20.796875 29.203125 -20.796875 
Q 24.46875 -20.796875 20.265625 -20.09375 
Q 16.0625 -19.390625 12.109375 -17.921875 
L 12.109375 -9.1875 
Q 16.0625 -11.328125 19.921875 -12.34375 
Q 23.78125 -13.375 27.78125 -13.375 
Q 36.625 -13.375 41.015625 -8.765625 
Q 45.40625 -4.15625 45.40625 5.171875 
L 45.40625 9.625 
Q 42.625 4.78125 38.28125 2.390625 
Q 33.9375 0 27.875 0 
Q 17.828125 0 11.671875 7.65625 
Q 5.515625 15.328125 5.515625 27.984375 
Q 5.515625 40.671875 11.671875 48.328125 
Q 17.828125 56 27.875 56 
Q 33.9375 56 38.28125 53.609375 
Q 42.625 51.21875 45.40625 46.390625 
L 45.40625 54.6875 
L 54.390625 54.6875 
z
" id="DejaVuSans-67"/>
     </defs>
     <g style="fill:#d2d2d2;" transform="translate(29.3375 185.725)rotate(-90)scale(0.16 -0.16)">
      <use xlink:href="#DejaVuSans-54"/>
      <use x="61.037109" xlink:href="#DejaVuSans-69"/>
      <use x="88.820312" xlink:href="#DejaVuSans-70"/>
      <use x="152.296875" xlink:href="#DejaVuSans-20"/>
      <use x="184.083984" xlink:href="#DejaVuSans-70"/>
      <use x="247.560547" xlink:href="#DejaVuSans-65"/>
      <use x="309.083984" xlink:href="#DejaVuSans-72"/>
      <use x="350.166016" xlink:href="#DejaVuSans-63"/>
      <use x="405.146484" xlink:href="#DejaVuSans-65"/>
      <use x="466.669922" xlink:href="#DejaVuSans-6e"/>
      <use x="530.048828" xlink:href="#DejaVuSans-74"/>
      <use x="569.257812" xlink:href="#DejaVuSans-61"/>
      <use x="630.537109" xlink:href="#DejaVuSans-67"/>
      <use x="694.013672" xlink:href="#DejaVuSans-65"/>
     </g>
    </g>
   </g>
   <g id="line2d_17">
    <defs>
     <path d="M 0 3 
C 0.795609 3 1.55874 2.683901 2.12132 2.12132 
C 2.683901 1.55874 3 0.795609 3 0 
C 3 -0.795609 2.683901 -1.55874 2.12132 -2.12132 
C 1.55874 -2.683901 0.795609 -3 0 -3 
C -0.795609 -3 -1.55874 -2.683901 -2.12132 -2.12132 
C -2.683901 -1.55874 -3 -0.795609 -3 0 
C -3 0.795609 -2.683901 1.55874 -2.12132 2.12132 
C -1.55874 2.683901 -0.795609 3 0 3 
z
" id="mbd2cd53038" style="stroke:#5bc0de;"/>
    </defs>
    <g clip-path="url(#pd86760211c)">
     <use style="fill:#5bc0de;stroke:#5bc0de;" x="184.031515" xlink:href="#mbd2cd53038" y="14.007273"/>
     <use style="fill:#5bc0de;stroke:#5bc0de;" x="244.201212" xlink:href="#mbd2cd53038" y="156.883167"/>
     <use style="fill:#5bc0de;stroke:#5bc0de;" x="224.225455" xlink:href="#mbd2cd53038" y="180.210901"/>
     <use style="fill:#5bc0de;stroke:#5bc0de;" x="153.437576" xlink:href="#mbd2cd53038" y="148.277337"/>
     <use style="fill:#5bc0de;stroke:#5bc0de;" x="143.837576" xlink:href="#mbd2cd53038" y="156.365342"/>
     <use style="fill:#5bc0de;stroke:#5bc0de;" x="159.401212" xlink:href="#mbd2cd53038" y="194.209297"/>
     <use style="fill:#5bc0de;stroke:#5bc0de;" x="173.655758" xlink:href="#mbd2cd53038" y="178.367211"/>
     <use style="fill:#5bc0de;stroke:#5bc0de;" x="164.055758" xlink:href="#mbd2cd53038" y="200.892237"/>
     <use style="fill:#5bc0de;stroke:#5bc0de;" x="183.498182" xlink:href="#mbd2cd53038" y="198.651572"/>
     <use style="fill:#5bc0de;stroke:#5bc0de;" x="159.643636" xlink:href="#mbd2cd53038" y="211.210235"/>
     <use style="fill:#5bc0de;stroke:#5bc0de;" x="142.770909" xlink:href="#mbd2cd53038" y="206.146602"/>
     <use style="fill:#5bc0de;stroke:#5bc0de;" x="118.431515" xlink:href="#mbd2cd53038" y="148.966942"/>
     <use style="fill:#5bc0de;stroke:#5bc0de;" x="108.298182" xlink:href="#mbd2cd53038" y="200.787708"/>
     <use style="fill:#5bc0de;stroke:#5bc0de;" x="111.934545" xlink:href="#mbd2cd53038" y="189.637406"/>
     <use style="fill:#5bc0de;stroke:#5bc0de;" x="112.17697" xlink:href="#mbd2cd53038" y="199.307045"/>
     <use style="fill:#5bc0de;stroke:#5bc0de;" x="153.922424" xlink:href="#mbd2cd53038" y="170.867984"/>
     <use style="fill:#5bc0de;stroke:#5bc0de;" x="158.334545" xlink:href="#mbd2cd53038" y="189.799336"/>
     <use style="fill:#5bc0de;stroke:#5bc0de;" x="209.970909" xlink:href="#mbd2cd53038" y="150.875807"/>
     <use style="fill:#5bc0de;stroke:#5bc0de;" x="114.261818" xlink:href="#mbd2cd53038" y="194.209297"/>
     <use style="fill:#5bc0de;stroke:#5bc0de;" x="272.467879" xlink:href="#mbd2cd53038" y="172.86676"/>
     <use style="fill:#5bc0de;stroke:#5bc0de;" x="338.649697" xlink:href="#mbd2cd53038" y="165.630062"/>
     <use style="fill:#5bc0de;stroke:#5bc0de;" x="190.770909" xlink:href="#mbd2cd53038" y="153.481499"/>
     <use style="fill:#5bc0de;stroke:#5bc0de;" x="132.686061" xlink:href="#mbd2cd53038" y="182.751686"/>
     <use style="fill:#5bc0de;stroke:#5bc0de;" x="309.558788" xlink:href="#mbd2cd53038" y="146.817322"/>
     <use style="fill:#5bc0de;stroke:#5bc0de;" x="247.837576" xlink:href="#mbd2cd53038" y="173.968908"/>
     <use style="fill:#5bc0de;stroke:#5bc0de;" x="179.086061" xlink:href="#mbd2cd53038" y="180.264689"/>
     <use style="fill:#5bc0de;stroke:#5bc0de;" x="212.298182" xlink:href="#mbd2cd53038" y="183.493233"/>
     <use style="fill:#5bc0de;stroke:#5bc0de;" x="159.401212" xlink:href="#mbd2cd53038" y="173.687984"/>
     <use style="fill:#5bc0de;stroke:#5bc0de;" x="221.122424" xlink:href="#mbd2cd53038" y="188.398493"/>
     <use style="fill:#5bc0de;stroke:#5bc0de;" x="187.134545" xlink:href="#mbd2cd53038" y="175.370612"/>
     <use style="fill:#5bc0de;stroke:#5bc0de;" x="262.092121" xlink:href="#mbd2cd53038" y="179.158531"/>
     <use style="fill:#5bc0de;stroke:#5bc0de;" x="129.922424" xlink:href="#mbd2cd53038" y="178.407988"/>
     <use style="fill:#5bc0de;stroke:#5bc0de;" x="133.995152" xlink:href="#mbd2cd53038" y="184.680054"/>
     <use style="fill:#5bc0de;stroke:#5bc0de;" x="149.267879" xlink:href="#mbd2cd53038" y="184.712341"/>
     <use style="fill:#5bc0de;stroke:#5bc0de;" x="150.819394" xlink:href="#mbd2cd53038" y="166.786985"/>
     <use style="fill:#5bc0de;stroke:#5bc0de;" x="145.389091" xlink:href="#mbd2cd53038" y="79.201575"/>
     <use style="fill:#5bc0de;stroke:#5bc0de;" x="220.104242" xlink:href="#mbd2cd53038" y="177.734255"/>
     <use style="fill:#5bc0de;stroke:#5bc0de;" x="157.073939" xlink:href="#mbd2cd53038" y="183.35092"/>
     <use style="fill:#5bc0de;stroke:#5bc0de;" x="115.570909" xlink:href="#mbd2cd53038" y="185.463913"/>
     <use style="fill:#5bc0de;stroke:#5bc0de;" x="243.18303" xlink:href="#mbd2cd53038" y="191.070049"/>
     <use style="fill:#5bc0de;stroke:#5bc0de;" x="153.68" xlink:href="#mbd2cd53038" y="145.417553"/>
     <use style="fill:#5bc0de;stroke:#5bc0de;" x="164.589091" xlink:href="#mbd2cd53038" y="204.824223"/>
     <use style="fill:#5bc0de;stroke:#5bc0de;" x="356.78303" xlink:href="#mbd2cd53038" y="172.733287"/>
     <use style="fill:#5bc0de;stroke:#5bc0de;" x="114.504242" xlink:href="#mbd2cd53038" y="181.94309"/>
     <use style="fill:#5bc0de;stroke:#5bc0de;" x="120.467879" xlink:href="#mbd2cd53038" y="189.587165"/>
     <use style="fill:#5bc0de;stroke:#5bc0de;" x="223.98303" xlink:href="#mbd2cd53038" y="120.240978"/>
     <use style="fill:#5bc0de;stroke:#5bc0de;" x="177.049697" xlink:href="#mbd2cd53038" y="173.06805"/>
     <use style="fill:#5bc0de;stroke:#5bc0de;" x="167.692121" xlink:href="#mbd2cd53038" y="155.065687"/>
     <use style="fill:#5bc0de;stroke:#5bc0de;" x="118.431515" xlink:href="#mbd2cd53038" y="165.597155"/>
     <use style="fill:#5bc0de;stroke:#5bc0de;" x="113.728485" xlink:href="#mbd2cd53038" y="155.755604"/>
     <use style="fill:#5bc0de;stroke:#5bc0de;" x="175.207273" xlink:href="#mbd2cd53038" y="163.796646"/>
     <use style="fill:#5bc0de;stroke:#5bc0de;" x="170.310303" xlink:href="#mbd2cd53038" y="184.367346"/>
     <use style="fill:#5bc0de;stroke:#5bc0de;" x="153.437576" xlink:href="#mbd2cd53038" y="148.277337"/>
     <use style="fill:#5bc0de;stroke:#5bc0de;" x="107.764848" xlink:href="#mbd2cd53038" y="197.359863"/>
     <use style="fill:#5bc0de;stroke:#5bc0de;" x="225.77697" xlink:href="#mbd2cd53038" y="187.386456"/>
     <use style="fill:#5bc0de;stroke:#5bc0de;" x="106.455758" xlink:href="#mbd2cd53038" y="196.961783"/>
     <use style="fill:#5bc0de;stroke:#5bc0de;" x="106.746667" xlink:href="#mbd2cd53038" y="197.590788"/>
     <use style="fill:#5bc0de;stroke:#5bc0de;" x="182.722424" xlink:href="#mbd2cd53038" y="171.372421"/>
     <use style="fill:#5bc0de;stroke:#5bc0de;" x="256.904242" xlink:href="#mbd2cd53038" y="186.123351"/>
     <use style="fill:#5bc0de;stroke:#5bc0de;" x="410.989091" xlink:href="#mbd2cd53038" y="185.120797"/>
     <use style="fill:#5bc0de;stroke:#5bc0de;" x="363.522424" xlink:href="#mbd2cd53038" y="123.568803"/>
     <use style="fill:#5bc0de;stroke:#5bc0de;" x="219.328485" xlink:href="#mbd2cd53038" y="176.81041"/>
     <use style="fill:#5bc0de;stroke:#5bc0de;" x="181.946667" xlink:href="#mbd2cd53038" y="177.905243"/>
     <use style="fill:#5bc0de;stroke:#5bc0de;" x="194.940606" xlink:href="#mbd2cd53038" y="180.550461"/>
     <use style="fill:#5bc0de;stroke:#5bc0de;" x="212.831515" xlink:href="#mbd2cd53038" y="151.510475"/>
     <use style="fill:#5bc0de;stroke:#5bc0de;" x="109.316364" xlink:href="#mbd2cd53038" y="202.751559"/>
     <use style="fill:#5bc0de;stroke:#5bc0de;" x="195.958788" xlink:href="#mbd2cd53038" y="169.841588"/>
     <use style="fill:#5bc0de;stroke:#5bc0de;" x="238.528485" xlink:href="#mbd2cd53038" y="153.53409"/>
     <use style="fill:#5bc0de;stroke:#5bc0de;" x="328.710303" xlink:href="#mbd2cd53038" y="173.01528"/>
     <use style="fill:#5bc0de;stroke:#5bc0de;" x="178.067879" xlink:href="#mbd2cd53038" y="166.80353"/>
     <use style="fill:#5bc0de;stroke:#5bc0de;" x="249.68" xlink:href="#mbd2cd53038" y="165.614025"/>
     <use style="fill:#5bc0de;stroke:#5bc0de;" x="183.789091" xlink:href="#mbd2cd53038" y="194.880705"/>
     <use style="fill:#5bc0de;stroke:#5bc0de;" x="209.195152" xlink:href="#mbd2cd53038" y="203.291919"/>
     <use style="fill:#5bc0de;stroke:#5bc0de;" x="172.104242" xlink:href="#mbd2cd53038" y="171.552921"/>
     <use style="fill:#5bc0de;stroke:#5bc0de;" x="167.158788" xlink:href="#mbd2cd53038" y="216.35412"/>
     <use style="fill:#5bc0de;stroke:#5bc0de;" x="105.68" xlink:href="#mbd2cd53038" y="173.635336"/>
     <use style="fill:#5bc0de;stroke:#5bc0de;" x="177.534545" xlink:href="#mbd2cd53038" y="194.269479"/>
     <use style="fill:#5bc0de;stroke:#5bc0de;" x="204.78303" xlink:href="#mbd2cd53038" y="156.972321"/>
     <use style="fill:#5bc0de;stroke:#5bc0de;" x="180.395152" xlink:href="#mbd2cd53038" y="167.771039"/>
     <use style="fill:#5bc0de;stroke:#5bc0de;" x="154.989091" xlink:href="#mbd2cd53038" y="196.961783"/>
     <use style="fill:#5bc0de;stroke:#5bc0de;" x="205.316364" xlink:href="#mbd2cd53038" y="164.360463"/>
     <use style="fill:#5bc0de;stroke:#5bc0de;" x="209.728485" xlink:href="#mbd2cd53038" y="191.912395"/>
     <use style="fill:#5bc0de;stroke:#5bc0de;" x="159.643636" xlink:href="#mbd2cd53038" y="177.658834"/>
     <use style="fill:#5bc0de;stroke:#5bc0de;" x="250.164848" xlink:href="#mbd2cd53038" y="178.329862"/>
     <use style="fill:#5bc0de;stroke:#5bc0de;" x="176.758788" xlink:href="#mbd2cd53038" y="165.447333"/>
     <use style="fill:#5bc0de;stroke:#5bc0de;" x="244.97697" xlink:href="#mbd2cd53038" y="157.418838"/>
     <use style="fill:#5bc0de;stroke:#5bc0de;" x="180.637576" xlink:href="#mbd2cd53038" y="176.181843"/>
     <use style="fill:#5bc0de;stroke:#5bc0de;" x="277.413333" xlink:href="#mbd2cd53038" y="175.661995"/>
     <use style="fill:#5bc0de;stroke:#5bc0de;" x="182.48" xlink:href="#mbd2cd53038" y="171.14372"/>
     <use style="fill:#5bc0de;stroke:#5bc0de;" x="171.086061" xlink:href="#mbd2cd53038" y="188.954313"/>
     <use style="fill:#5bc0de;stroke:#5bc0de;" x="199.061818" xlink:href="#mbd2cd53038" y="226.89176"/>
     <use style="fill:#5bc0de;stroke:#5bc0de;" x="206.625455" xlink:href="#mbd2cd53038" y="163.457458"/>
     <use style="fill:#5bc0de;stroke:#5bc0de;" x="159.934545" xlink:href="#mbd2cd53038" y="202.395335"/>
     <use style="fill:#5bc0de;stroke:#5bc0de;" x="312.710303" xlink:href="#mbd2cd53038" y="156.62296"/>
     <use style="fill:#5bc0de;stroke:#5bc0de;" x="128.807273" xlink:href="#mbd2cd53038" y="181.629946"/>
     <use style="fill:#5bc0de;stroke:#5bc0de;" x="208.952727" xlink:href="#mbd2cd53038" y="166.237863"/>
     <use style="fill:#5bc0de;stroke:#5bc0de;" x="163.28" xlink:href="#mbd2cd53038" y="181.546097"/>
     <use style="fill:#5bc0de;stroke:#5bc0de;" x="159.401212" xlink:href="#mbd2cd53038" y="184.453263"/>
     <use style="fill:#5bc0de;stroke:#5bc0de;" x="118.431515" xlink:href="#mbd2cd53038" y="155.12628"/>
     <use style="fill:#5bc0de;stroke:#5bc0de;" x="159.401212" xlink:href="#mbd2cd53038" y="165.614025"/>
     <use style="fill:#5bc0de;stroke:#5bc0de;" x="346.940606" xlink:href="#mbd2cd53038" y="168.992852"/>
     <use style="fill:#5bc0de;stroke:#5bc0de;" x="193.389091" xlink:href="#mbd2cd53038" y="156.111582"/>
     <use style="fill:#5bc0de;stroke:#5bc0de;" x="261.849697" xlink:href="#mbd2cd53038" y="164.063131"/>
     <use style="fill:#5bc0de;stroke:#5bc0de;" x="77.170909" xlink:href="#mbd2cd53038" y="183.974986"/>
     <use style="fill:#5bc0de;stroke:#5bc0de;" x="115.28" xlink:href="#mbd2cd53038" y="212.514229"/>
     <use style="fill:#5bc0de;stroke:#5bc0de;" x="123.328485" xlink:href="#mbd2cd53038" y="166.254959"/>
     <use style="fill:#5bc0de;stroke:#5bc0de;" x="160.419394" xlink:href="#mbd2cd53038" y="185.167363"/>
     <use style="fill:#5bc0de;stroke:#5bc0de;" x="155.522424" xlink:href="#mbd2cd53038" y="181.645652"/>
     <use style="fill:#5bc0de;stroke:#5bc0de;" x="243.425455" xlink:href="#mbd2cd53038" y="172.895842"/>
     <use style="fill:#5bc0de;stroke:#5bc0de;" x="185.340606" xlink:href="#mbd2cd53038" y="173.781597"/>
     <use style="fill:#5bc0de;stroke:#5bc0de;" x="202.213333" xlink:href="#mbd2cd53038" y="187.03367"/>
     <use style="fill:#5bc0de;stroke:#5bc0de;" x="203.231515" xlink:href="#mbd2cd53038" y="184.103226"/>
     <use style="fill:#5bc0de;stroke:#5bc0de;" x="204.007273" xlink:href="#mbd2cd53038" y="172.261062"/>
     <use style="fill:#5bc0de;stroke:#5bc0de;" x="163.813333" xlink:href="#mbd2cd53038" y="21.721266"/>
     <use style="fill:#5bc0de;stroke:#5bc0de;" x="123.328485" xlink:href="#mbd2cd53038" y="176.340186"/>
     <use style="fill:#5bc0de;stroke:#5bc0de;" x="126.964848" xlink:href="#mbd2cd53038" y="173.299683"/>
     <use style="fill:#5bc0de;stroke:#5bc0de;" x="159.643636" xlink:href="#mbd2cd53038" y="166.586872"/>
     <use style="fill:#5bc0de;stroke:#5bc0de;" x="206.625455" xlink:href="#mbd2cd53038" y="158.156431"/>
     <use style="fill:#5bc0de;stroke:#5bc0de;" x="157.073939" xlink:href="#mbd2cd53038" y="140.186321"/>
     <use style="fill:#5bc0de;stroke:#5bc0de;" x="167.158788" xlink:href="#mbd2cd53038" y="142.932802"/>
     <use style="fill:#5bc0de;stroke:#5bc0de;" x="125.655758" xlink:href="#mbd2cd53038" y="197.729248"/>
     <use style="fill:#5bc0de;stroke:#5bc0de;" x="155.522424" xlink:href="#mbd2cd53038" y="166.530388"/>
     <use style="fill:#5bc0de;stroke:#5bc0de;" x="159.401212" xlink:href="#mbd2cd53038" y="198.246277"/>
     <use style="fill:#5bc0de;stroke:#5bc0de;" x="84.928485" xlink:href="#mbd2cd53038" y="136.123022"/>
     <use style="fill:#5bc0de;stroke:#5bc0de;" x="185.049697" xlink:href="#mbd2cd53038" y="173.519284"/>
     <use style="fill:#5bc0de;stroke:#5bc0de;" x="143.061818" xlink:href="#mbd2cd53038" y="165.35482"/>
     <use style="fill:#5bc0de;stroke:#5bc0de;" x="105.195152" xlink:href="#mbd2cd53038" y="146.970125"/>
     <use style="fill:#5bc0de;stroke:#5bc0de;" x="125.946667" xlink:href="#mbd2cd53038" y="156.452745"/>
     <use style="fill:#5bc0de;stroke:#5bc0de;" x="109.849697" xlink:href="#mbd2cd53038" y="158.997864"/>
     <use style="fill:#5bc0de;stroke:#5bc0de;" x="153.68" xlink:href="#mbd2cd53038" y="206.477641"/>
     <use style="fill:#5bc0de;stroke:#5bc0de;" x="129.825455" xlink:href="#mbd2cd53038" y="203.264556"/>
     <use style="fill:#5bc0de;stroke:#5bc0de;" x="138.649697" xlink:href="#mbd2cd53038" y="190.948371"/>
     <use style="fill:#5bc0de;stroke:#5bc0de;" x="217.486061" xlink:href="#mbd2cd53038" y="175.959335"/>
     <use style="fill:#5bc0de;stroke:#5bc0de;" x="156.78303" xlink:href="#mbd2cd53038" y="209.020487"/>
     <use style="fill:#5bc0de;stroke:#5bc0de;" x="149.025455" xlink:href="#mbd2cd53038" y="164.283063"/>
     <use style="fill:#5bc0de;stroke:#5bc0de;" x="187.910303" xlink:href="#mbd2cd53038" y="188.826658"/>
     <use style="fill:#5bc0de;stroke:#5bc0de;" x="152.128485" xlink:href="#mbd2cd53038" y="142.201744"/>
     <use style="fill:#5bc0de;stroke:#5bc0de;" x="101.558788" xlink:href="#mbd2cd53038" y="184.680054"/>
     <use style="fill:#5bc0de;stroke:#5bc0de;" x="147.958788" xlink:href="#mbd2cd53038" y="184.699057"/>
     <use style="fill:#5bc0de;stroke:#5bc0de;" x="136.322424" xlink:href="#mbd2cd53038" y="226.790577"/>
     <use style="fill:#5bc0de;stroke:#5bc0de;" x="219.328485" xlink:href="#mbd2cd53038" y="197.030057"/>
     <use style="fill:#5bc0de;stroke:#5bc0de;" x="158.334545" xlink:href="#mbd2cd53038" y="184.692776"/>
     <use style="fill:#5bc0de;stroke:#5bc0de;" x="150.57697" xlink:href="#mbd2cd53038" y="196.283856"/>
     <use style="fill:#5bc0de;stroke:#5bc0de;" x="87.304242" xlink:href="#mbd2cd53038" y="236.552727"/>
     <use style="fill:#5bc0de;stroke:#5bc0de;" x="227.619394" xlink:href="#mbd2cd53038" y="182.503209"/>
     <use style="fill:#5bc0de;stroke:#5bc0de;" x="242.116364" xlink:href="#mbd2cd53038" y="190.532116"/>
     <use style="fill:#5bc0de;stroke:#5bc0de;" x="116.831515" xlink:href="#mbd2cd53038" y="140.809575"/>
     <use style="fill:#5bc0de;stroke:#5bc0de;" x="138.116364" xlink:href="#mbd2cd53038" y="183.670029"/>
     <use style="fill:#5bc0de;stroke:#5bc0de;" x="213.849697" xlink:href="#mbd2cd53038" y="191.224953"/>
     <use style="fill:#5bc0de;stroke:#5bc0de;" x="169.77697" xlink:href="#mbd2cd53038" y="187.792133"/>
     <use style="fill:#5bc0de;stroke:#5bc0de;" x="189.461818" xlink:href="#mbd2cd53038" y="167.266281"/>
     <use style="fill:#5bc0de;stroke:#5bc0de;" x="144.855758" xlink:href="#mbd2cd53038" y="165.624363"/>
     <use style="fill:#5bc0de;stroke:#5bc0de;" x="220.88" xlink:href="#mbd2cd53038" y="164.239345"/>
     <use style="fill:#5bc0de;stroke:#5bc0de;" x="130.067879" xlink:href="#mbd2cd53038" y="178.646425"/>
     <use style="fill:#5bc0de;stroke:#5bc0de;" x="141.219394" xlink:href="#mbd2cd53038" y="146.460543"/>
     <use style="fill:#5bc0de;stroke:#5bc0de;" x="319.692121" xlink:href="#mbd2cd53038" y="157.104705"/>
     <use style="fill:#5bc0de;stroke:#5bc0de;" x="152.128485" xlink:href="#mbd2cd53038" y="186.840394"/>
    </g>
   </g>
   <g id="patch_3">
    <path d="M 60.48 247.68 
L 60.48 2.88 
" style="fill:none;stroke:#d2d2d2;stroke-linecap:square;stroke-linejoin:miter;"/>
   </g>
   <g id="patch_4">
    <path d="M 60.48 247.68 
L 427.68 247.68 
" style="fill:none;stroke:#d2d2d2;stroke-linecap:square;stroke-linejoin:miter;"/>
   </g>
  </g>
  <g id="axes_2">
   <g id="line2d_18">
    <path clip-path="url(#pd86760211c)" d="M 77.170909 180.6633 
L 410.989091 159.566751 
" style="fill:none;stroke:#d9534f;stroke-linecap:square;stroke-width:2;"/>
   </g>
   <g id="text_19">
    <!-- y=15.508+0.049x -->
    <defs>
     <path d="M 32.171875 -5.078125 
Q 28.375 -14.84375 24.75 -17.8125 
Q 21.140625 -20.796875 15.09375 -20.796875 
L 7.90625 -20.796875 
L 7.90625 -13.28125 
L 13.1875 -13.28125 
Q 16.890625 -13.28125 18.9375 -11.515625 
Q 21 -9.765625 23.484375 -3.21875 
L 25.09375 0.875 
L 2.984375 54.6875 
L 12.5 54.6875 
L 29.59375 11.921875 
L 46.6875 54.6875 
L 56.203125 54.6875 
z
" id="DejaVuSans-79"/>
     <path d="M 10.59375 45.40625 
L 73.1875 45.40625 
L 73.1875 37.203125 
L 10.59375 37.203125 
z
M 10.59375 25.484375 
L 73.1875 25.484375 
L 73.1875 17.1875 
L 10.59375 17.1875 
z
" id="DejaVuSans-3d"/>
     <path d="M 10.6875 12.40625 
L 21 12.40625 
L 21 0 
L 10.6875 0 
z
" id="DejaVuSans-2e"/>
     <path d="M 31.78125 34.625 
Q 24.75 34.625 20.71875 30.859375 
Q 16.703125 27.09375 16.703125 20.515625 
Q 16.703125 13.921875 20.71875 10.15625 
Q 24.75 6.390625 31.78125 6.390625 
Q 38.8125 6.390625 42.859375 10.171875 
Q 46.921875 13.96875 46.921875 20.515625 
Q 46.921875 27.09375 42.890625 30.859375 
Q 38.875 34.625 31.78125 34.625 
M 21.921875 38.8125 
Q 15.578125 40.375 12.03125 44.71875 
Q 8.5 49.078125 8.5 55.328125 
Q 8.5 64.0625 14.71875 69.140625 
Q 20.953125 74.21875 31.78125 74.21875 
Q 42.671875 74.21875 48.875 69.140625 
Q 55.078125 64.0625 55.078125 55.328125 
Q 55.078125 49.078125 51.53125 44.71875 
Q 48 40.375 41.703125 38.8125 
Q 48.828125 37.15625 52.796875 32.3125 
Q 56.78125 27.484375 56.78125 20.515625 
Q 56.78125 9.90625 50.3125 4.234375 
Q 43.84375 -1.421875 31.78125 -1.421875 
Q 19.734375 -1.421875 13.25 4.234375 
Q 6.78125 9.90625 6.78125 20.515625 
Q 6.78125 27.484375 10.78125 32.3125 
Q 14.796875 37.15625 21.921875 38.8125 
M 18.3125 54.390625 
Q 18.3125 48.734375 21.84375 45.5625 
Q 25.390625 42.390625 31.78125 42.390625 
Q 38.140625 42.390625 41.71875 45.5625 
Q 45.3125 48.734375 45.3125 54.390625 
Q 45.3125 60.0625 41.71875 63.234375 
Q 38.140625 66.40625 31.78125 66.40625 
Q 25.390625 66.40625 21.84375 63.234375 
Q 18.3125 60.0625 18.3125 54.390625 
" id="DejaVuSans-38"/>
     <path d="M 46 62.703125 
L 46 35.5 
L 73.1875 35.5 
L 73.1875 27.203125 
L 46 27.203125 
L 46 0 
L 37.796875 0 
L 37.796875 27.203125 
L 10.59375 27.203125 
L 10.59375 35.5 
L 37.796875 35.5 
L 37.796875 62.703125 
z
" id="DejaVuSans-2b"/>
     <path d="M 10.984375 1.515625 
L 10.984375 10.5 
Q 14.703125 8.734375 18.5 7.8125 
Q 22.3125 6.890625 25.984375 6.890625 
Q 35.75 6.890625 40.890625 13.453125 
Q 46.046875 20.015625 46.78125 33.40625 
Q 43.953125 29.203125 39.59375 26.953125 
Q 35.25 24.703125 29.984375 24.703125 
Q 19.046875 24.703125 12.671875 31.3125 
Q 6.296875 37.9375 6.296875 49.421875 
Q 6.296875 60.640625 12.9375 67.421875 
Q 19.578125 74.21875 30.609375 74.21875 
Q 43.265625 74.21875 49.921875 64.515625 
Q 56.59375 54.828125 56.59375 36.375 
Q 56.59375 19.140625 48.40625 8.859375 
Q 40.234375 -1.421875 26.421875 -1.421875 
Q 22.703125 -1.421875 18.890625 -0.6875 
Q 15.09375 0.046875 10.984375 1.515625 
M 30.609375 32.421875 
Q 37.25 32.421875 41.125 36.953125 
Q 45.015625 41.5 45.015625 49.421875 
Q 45.015625 57.28125 41.125 61.84375 
Q 37.25 66.40625 30.609375 66.40625 
Q 23.96875 66.40625 20.09375 61.84375 
Q 16.21875 57.28125 16.21875 49.421875 
Q 16.21875 41.5 20.09375 36.953125 
Q 23.96875 32.421875 30.609375 32.421875 
" id="DejaVuSans-39"/>
     <path d="M 54.890625 54.6875 
L 35.109375 28.078125 
L 55.90625 0 
L 45.3125 0 
L 29.390625 21.484375 
L 13.484375 0 
L 2.875 0 
L 24.125 28.609375 
L 4.6875 54.6875 
L 15.28125 54.6875 
L 29.78125 35.203125 
L 44.28125 54.6875 
z
" id="DejaVuSans-78"/>
    </defs>
    <g style="fill:#d9534f;" transform="translate(261.691875 54.22317)scale(0.18 -0.18)">
     <use xlink:href="#DejaVuSans-79"/>
     <use x="59.179688" xlink:href="#DejaVuSans-3d"/>
     <use x="142.96875" xlink:href="#DejaVuSans-31"/>
     <use x="206.591797" xlink:href="#DejaVuSans-35"/>
     <use x="270.214844" xlink:href="#DejaVuSans-2e"/>
     <use x="302.001953" xlink:href="#DejaVuSans-35"/>
     <use x="365.625" xlink:href="#DejaVuSans-30"/>
     <use x="429.248047" xlink:href="#DejaVuSans-38"/>
     <use x="492.871094" xlink:href="#DejaVuSans-2b"/>
     <use x="576.660156" xlink:href="#DejaVuSans-30"/>
     <use x="640.283203" xlink:href="#DejaVuSans-2e"/>
     <use x="672.070312" xlink:href="#DejaVuSans-30"/>
     <use x="735.693359" xlink:href="#DejaVuSans-34"/>
     <use x="799.316406" xlink:href="#DejaVuSans-39"/>
     <use x="862.939453" xlink:href="#DejaVuSans-78"/>
    </g>
   </g>
   <g id="text_20">
    <!-- $R^2$ = 0.018 -->
    <defs>
     <path d="M 25.203125 64.796875 
L 20.21875 38.921875 
L 32.90625 38.921875 
Q 40.375 38.921875 44.984375 43.046875 
Q 49.609375 47.171875 49.609375 53.8125 
Q 49.609375 59.125 46.5 61.953125 
Q 43.40625 64.796875 37.59375 64.796875 
z
M 43.3125 35.015625 
Q 46.4375 34.28125 48.515625 31.390625 
Q 50.59375 28.515625 53.328125 19.921875 
L 59.515625 0 
L 49.125 0 
L 43.40625 18.703125 
Q 41.21875 25.921875 38.328125 28.359375 
Q 35.453125 30.8125 29.5 30.8125 
L 18.609375 30.8125 
L 12.59375 0 
L 2.6875 0 
L 16.890625 72.90625 
L 39.109375 72.90625 
Q 49.21875 72.90625 54.609375 68.328125 
Q 60.015625 63.765625 60.015625 55.171875 
Q 60.015625 47.5625 55.421875 41.984375 
Q 50.828125 36.421875 43.3125 35.015625 
" id="DejaVuSans-Oblique-52"/>
    </defs>
    <g style="fill:#f0ad4e;" transform="translate(327.24 26.679866)scale(0.18 -0.18)">
     <use transform="translate(0 0.765625)" xlink:href="#DejaVuSans-Oblique-52"/>
     <use transform="translate(76.499193 39.046875)scale(0.7)" xlink:href="#DejaVuSans-32"/>
     <use transform="translate(123.769701 0.765625)" xlink:href="#DejaVuSans-20"/>
     <use transform="translate(155.55681 0.765625)" xlink:href="#DejaVuSans-3d"/>
     <use transform="translate(239.345872 0.765625)" xlink:href="#DejaVuSans-20"/>
     <use transform="translate(271.132982 0.765625)" xlink:href="#DejaVuSans-30"/>
     <use transform="translate(334.756029 0.765625)" xlink:href="#DejaVuSans-2e"/>
     <use transform="translate(366.543138 0.765625)" xlink:href="#DejaVuSans-30"/>
     <use transform="translate(430.166185 0.765625)" xlink:href="#DejaVuSans-31"/>
     <use transform="translate(493.789232 0.765625)" xlink:href="#DejaVuSans-38"/>
    </g>
   </g>
  </g>
  <g id="axes_3">
   <g id="text_21">
    <!-- r=0.136 -->
    <g style="fill:#5bc0de;" transform="translate(67.824 28.797188)scale(0.18 -0.18)">
     <use xlink:href="#DejaVuSans-72"/>
     <use x="41.113281" xlink:href="#DejaVuSans-3d"/>
     <use x="124.902344" xlink:href="#DejaVuSans-30"/>
     <use x="188.525391" xlink:href="#DejaVuSans-2e"/>
     <use x="220.3125" xlink:href="#DejaVuSans-31"/>
     <use x="283.935547" xlink:href="#DejaVuSans-33"/>
     <use x="347.558594" xlink:href="#DejaVuSans-36"/>
    </g>
   </g>
  </g>
  <g id="axes_4">
   <g id="line2d_19">
    <path clip-path="url(#pd86760211c)" d="M 77.170909 178.067974 
L 410.989091 161.02549 
" style="fill:none;opacity:0.08;stroke:#f0ad4e;stroke-linecap:square;stroke-width:1.5;"/>
   </g>
   <g id="line2d_20">
    <path clip-path="url(#pd86760211c)" d="M 77.170909 176.764841 
L 410.989091 161.286217 
" style="fill:none;opacity:0.08;stroke:#f0ad4e;stroke-linecap:square;stroke-width:1.5;"/>
   </g>
   <g id="line2d_21">
    <path clip-path="url(#pd86760211c)" d="M 77.170909 174.916902 
L 410.989091 161.21223 
" style="fill:none;opacity:0.08;stroke:#f0ad4e;stroke-linecap:square;stroke-width:1.5;"/>
   </g>
   <g id="line2d_22">
    <path clip-path="url(#pd86760211c)" d="M 77.170909 176.33926 
L 410.989091 166.49219 
" style="fill:none;opacity:0.08;stroke:#f0ad4e;stroke-linecap:square;stroke-width:1.5;"/>
   </g>
   <g id="line2d_23">
    <path clip-path="url(#pd86760211c)" d="M 77.170909 181.11873 
L 410.989091 162.26599 
" style="fill:none;opacity:0.08;stroke:#f0ad4e;stroke-linecap:square;stroke-width:1.5;"/>
   </g>
   <g id="line2d_24">
    <path clip-path="url(#pd86760211c)" d="M 77.170909 184.91108 
L 410.989091 152.749086 
" style="fill:none;opacity:0.08;stroke:#f0ad4e;stroke-linecap:square;stroke-width:1.5;"/>
   </g>
   <g id="line2d_25">
    <path clip-path="url(#pd86760211c)" d="M 77.170909 178.231279 
L 410.989091 159.171413 
" style="fill:none;opacity:0.08;stroke:#f0ad4e;stroke-linecap:square;stroke-width:1.5;"/>
   </g>
   <g id="line2d_26">
    <path clip-path="url(#pd86760211c)" d="M 77.170909 184.970488 
L 410.989091 145.079295 
" style="fill:none;opacity:0.08;stroke:#f0ad4e;stroke-linecap:square;stroke-width:1.5;"/>
   </g>
   <g id="line2d_27">
    <path clip-path="url(#pd86760211c)" d="M 77.170909 181.823747 
L 410.989091 162.136357 
" style="fill:none;opacity:0.08;stroke:#f0ad4e;stroke-linecap:square;stroke-width:1.5;"/>
   </g>
   <g id="line2d_28">
    <path clip-path="url(#pd86760211c)" d="M 77.170909 178.359188 
L 410.989091 167.250416 
" style="fill:none;opacity:0.08;stroke:#f0ad4e;stroke-linecap:square;stroke-width:1.5;"/>
   </g>
   <g id="line2d_29">
    <path clip-path="url(#pd86760211c)" d="M 77.170909 187.190282 
L 410.989091 142.394804 
" style="fill:none;opacity:0.08;stroke:#f0ad4e;stroke-linecap:square;stroke-width:1.5;"/>
   </g>
   <g id="line2d_30">
    <path clip-path="url(#pd86760211c)" d="M 77.170909 176.210919 
L 410.989091 162.440159 
" style="fill:none;opacity:0.08;stroke:#f0ad4e;stroke-linecap:square;stroke-width:1.5;"/>
   </g>
   <g id="line2d_31">
    <path clip-path="url(#pd86760211c)" d="M 77.170909 181.230048 
L 410.989091 158.924114 
" style="fill:none;opacity:0.08;stroke:#f0ad4e;stroke-linecap:square;stroke-width:1.5;"/>
   </g>
   <g id="line2d_32">
    <path clip-path="url(#pd86760211c)" d="M 77.170909 190.474629 
L 410.989091 150.994664 
" style="fill:none;opacity:0.08;stroke:#f0ad4e;stroke-linecap:square;stroke-width:1.5;"/>
   </g>
   <g id="line2d_33">
    <path clip-path="url(#pd86760211c)" d="M 77.170909 185.720531 
L 410.989091 162.162051 
" style="fill:none;opacity:0.08;stroke:#f0ad4e;stroke-linecap:square;stroke-width:1.5;"/>
   </g>
   <g id="line2d_34">
    <path clip-path="url(#pd86760211c)" d="M 77.170909 179.680364 
L 410.989091 164.427061 
" style="fill:none;opacity:0.08;stroke:#f0ad4e;stroke-linecap:square;stroke-width:1.5;"/>
   </g>
   <g id="line2d_35">
    <path clip-path="url(#pd86760211c)" d="M 77.170909 186.411774 
L 410.989091 146.739021 
" style="fill:none;opacity:0.08;stroke:#f0ad4e;stroke-linecap:square;stroke-width:1.5;"/>
   </g>
   <g id="line2d_36">
    <path clip-path="url(#pd86760211c)" d="M 77.170909 180.305193 
L 410.989091 154.513372 
" style="fill:none;opacity:0.08;stroke:#f0ad4e;stroke-linecap:square;stroke-width:1.5;"/>
   </g>
   <g id="line2d_37">
    <path clip-path="url(#pd86760211c)" d="M 77.170909 177.888306 
L 410.989091 160.890123 
" style="fill:none;opacity:0.08;stroke:#f0ad4e;stroke-linecap:square;stroke-width:1.5;"/>
   </g>
   <g id="line2d_38">
    <path clip-path="url(#pd86760211c)" d="M 77.170909 183.069984 
L 410.989091 155.914026 
" style="fill:none;opacity:0.08;stroke:#f0ad4e;stroke-linecap:square;stroke-width:1.5;"/>
   </g>
   <g id="line2d_39">
    <path clip-path="url(#pd86760211c)" d="M 77.170909 175.734042 
L 410.989091 168.110793 
" style="fill:none;opacity:0.08;stroke:#f0ad4e;stroke-linecap:square;stroke-width:1.5;"/>
   </g>
   <g id="line2d_40">
    <path clip-path="url(#pd86760211c)" d="M 77.170909 185.355624 
L 410.989091 153.320063 
" style="fill:none;opacity:0.08;stroke:#f0ad4e;stroke-linecap:square;stroke-width:1.5;"/>
   </g>
   <g id="line2d_41">
    <path clip-path="url(#pd86760211c)" d="M 77.170909 182.493966 
L 410.989091 168.264945 
" style="fill:none;opacity:0.08;stroke:#f0ad4e;stroke-linecap:square;stroke-width:1.5;"/>
   </g>
   <g id="line2d_42">
    <path clip-path="url(#pd86760211c)" d="M 77.170909 187.842663 
L 410.989091 157.278497 
" style="fill:none;opacity:0.08;stroke:#f0ad4e;stroke-linecap:square;stroke-width:1.5;"/>
   </g>
   <g id="line2d_43">
    <path clip-path="url(#pd86760211c)" d="M 77.170909 178.995744 
L 410.989091 160.245655 
" style="fill:none;opacity:0.08;stroke:#f0ad4e;stroke-linecap:square;stroke-width:1.5;"/>
   </g>
   <g id="line2d_44">
    <path clip-path="url(#pd86760211c)" d="M 77.170909 185.199822 
L 410.989091 160.392486 
" style="fill:none;opacity:0.08;stroke:#f0ad4e;stroke-linecap:square;stroke-width:1.5;"/>
   </g>
   <g id="line2d_45">
    <path clip-path="url(#pd86760211c)" d="M 77.170909 174.662483 
L 410.989091 171.293775 
" style="fill:none;opacity:0.08;stroke:#f0ad4e;stroke-linecap:square;stroke-width:1.5;"/>
   </g>
   <g id="line2d_46">
    <path clip-path="url(#pd86760211c)" d="M 77.170909 183.367973 
L 410.989091 155.412306 
" style="fill:none;opacity:0.08;stroke:#f0ad4e;stroke-linecap:square;stroke-width:1.5;"/>
   </g>
   <g id="line2d_47">
    <path clip-path="url(#pd86760211c)" d="M 77.170909 185.684978 
L 410.989091 148.594839 
" style="fill:none;opacity:0.08;stroke:#f0ad4e;stroke-linecap:square;stroke-width:1.5;"/>
   </g>
   <g id="line2d_48">
    <path clip-path="url(#pd86760211c)" d="M 77.170909 183.047608 
L 410.989091 154.184411 
" style="fill:none;opacity:0.08;stroke:#f0ad4e;stroke-linecap:square;stroke-width:1.5;"/>
   </g>
   <g id="line2d_49">
    <path clip-path="url(#pd86760211c)" d="M 77.170909 177.424361 
L 410.989091 160.567508 
" style="fill:none;opacity:0.08;stroke:#f0ad4e;stroke-linecap:square;stroke-width:1.5;"/>
   </g>
   <g id="line2d_50">
    <path clip-path="url(#pd86760211c)" d="M 77.170909 179.375324 
L 410.989091 162.104654 
" style="fill:none;opacity:0.08;stroke:#f0ad4e;stroke-linecap:square;stroke-width:1.5;"/>
   </g>
   <g id="line2d_51">
    <path clip-path="url(#pd86760211c)" d="M 77.170909 183.728337 
L 410.989091 151.187276 
" style="fill:none;opacity:0.08;stroke:#f0ad4e;stroke-linecap:square;stroke-width:1.5;"/>
   </g>
   <g id="line2d_52">
    <path clip-path="url(#pd86760211c)" d="M 77.170909 179.461865 
L 410.989091 157.202892 
" style="fill:none;opacity:0.08;stroke:#f0ad4e;stroke-linecap:square;stroke-width:1.5;"/>
   </g>
   <g id="line2d_53">
    <path clip-path="url(#pd86760211c)" d="M 77.170909 184.336403 
L 410.989091 152.943464 
" style="fill:none;opacity:0.08;stroke:#f0ad4e;stroke-linecap:square;stroke-width:1.5;"/>
   </g>
   <g id="line2d_54">
    <path clip-path="url(#pd86760211c)" d="M 77.170909 178.64216 
L 410.989091 154.457725 
" style="fill:none;opacity:0.08;stroke:#f0ad4e;stroke-linecap:square;stroke-width:1.5;"/>
   </g>
   <g id="line2d_55">
    <path clip-path="url(#pd86760211c)" d="M 77.170909 183.918341 
L 410.989091 157.503687 
" style="fill:none;opacity:0.08;stroke:#f0ad4e;stroke-linecap:square;stroke-width:1.5;"/>
   </g>
   <g id="line2d_56">
    <path clip-path="url(#pd86760211c)" d="M 77.170909 179.175267 
L 410.989091 163.915202 
" style="fill:none;opacity:0.08;stroke:#f0ad4e;stroke-linecap:square;stroke-width:1.5;"/>
   </g>
   <g id="line2d_57">
    <path clip-path="url(#pd86760211c)" d="M 77.170909 178.982136 
L 410.989091 167.350858 
" style="fill:none;opacity:0.08;stroke:#f0ad4e;stroke-linecap:square;stroke-width:1.5;"/>
   </g>
   <g id="line2d_58">
    <path clip-path="url(#pd86760211c)" d="M 77.170909 178.85676 
L 410.989091 159.394574 
" style="fill:none;opacity:0.08;stroke:#f0ad4e;stroke-linecap:square;stroke-width:1.5;"/>
   </g>
   <g id="line2d_59">
    <path clip-path="url(#pd86760211c)" d="M 77.170909 177.149184 
L 410.989091 166.015241 
" style="fill:none;opacity:0.08;stroke:#f0ad4e;stroke-linecap:square;stroke-width:1.5;"/>
   </g>
   <g id="line2d_60">
    <path clip-path="url(#pd86760211c)" d="M 77.170909 180.107422 
L 410.989091 165.824505 
" style="fill:none;opacity:0.08;stroke:#f0ad4e;stroke-linecap:square;stroke-width:1.5;"/>
   </g>
   <g id="line2d_61">
    <path clip-path="url(#pd86760211c)" d="M 77.170909 182.008758 
L 410.989091 154.276945 
" style="fill:none;opacity:0.08;stroke:#f0ad4e;stroke-linecap:square;stroke-width:1.5;"/>
   </g>
   <g id="line2d_62">
    <path clip-path="url(#pd86760211c)" d="M 77.170909 183.985397 
L 410.989091 156.693106 
" style="fill:none;opacity:0.08;stroke:#f0ad4e;stroke-linecap:square;stroke-width:1.5;"/>
   </g>
   <g id="line2d_63">
    <path clip-path="url(#pd86760211c)" d="M 77.170909 178.0159 
L 410.989091 165.486444 
" style="fill:none;opacity:0.08;stroke:#f0ad4e;stroke-linecap:square;stroke-width:1.5;"/>
   </g>
   <g id="line2d_64">
    <path clip-path="url(#pd86760211c)" d="M 77.170909 177.860773 
L 410.989091 169.642578 
" style="fill:none;opacity:0.08;stroke:#f0ad4e;stroke-linecap:square;stroke-width:1.5;"/>
   </g>
   <g id="line2d_65">
    <path clip-path="url(#pd86760211c)" d="M 77.170909 174.403788 
L 410.989091 164.84413 
" style="fill:none;opacity:0.08;stroke:#f0ad4e;stroke-linecap:square;stroke-width:1.5;"/>
   </g>
   <g id="line2d_66">
    <path clip-path="url(#pd86760211c)" d="M 77.170909 178.053445 
L 410.989091 168.55352 
" style="fill:none;opacity:0.08;stroke:#f0ad4e;stroke-linecap:square;stroke-width:1.5;"/>
   </g>
   <g id="line2d_67">
    <path clip-path="url(#pd86760211c)" d="M 77.170909 182.540237 
L 410.989091 155.929586 
" style="fill:none;opacity:0.08;stroke:#f0ad4e;stroke-linecap:square;stroke-width:1.5;"/>
   </g>
   <g id="line2d_68">
    <path clip-path="url(#pd86760211c)" d="M 77.170909 184.570254 
L 410.989091 157.063874 
" style="fill:none;opacity:0.08;stroke:#f0ad4e;stroke-linecap:square;stroke-width:1.5;"/>
   </g>
   <g id="line2d_69">
    <path clip-path="url(#pd86760211c)" d="M 77.170909 186.378416 
L 410.989091 160.727997 
" style="fill:none;opacity:0.08;stroke:#f0ad4e;stroke-linecap:square;stroke-width:1.5;"/>
   </g>
   <g id="line2d_70">
    <path clip-path="url(#pd86760211c)" d="M 77.170909 179.594522 
L 410.989091 156.141416 
" style="fill:none;opacity:0.08;stroke:#f0ad4e;stroke-linecap:square;stroke-width:1.5;"/>
   </g>
   <g id="line2d_71">
    <path clip-path="url(#pd86760211c)" d="M 77.170909 179.947144 
L 410.989091 167.336733 
" style="fill:none;opacity:0.08;stroke:#f0ad4e;stroke-linecap:square;stroke-width:1.5;"/>
   </g>
   <g id="line2d_72">
    <path clip-path="url(#pd86760211c)" d="M 77.170909 176.821437 
L 410.989091 161.453286 
" style="fill:none;opacity:0.08;stroke:#f0ad4e;stroke-linecap:square;stroke-width:1.5;"/>
   </g>
   <g id="line2d_73">
    <path clip-path="url(#pd86760211c)" d="M 77.170909 177.82029 
L 410.989091 164.461896 
" style="fill:none;opacity:0.08;stroke:#f0ad4e;stroke-linecap:square;stroke-width:1.5;"/>
   </g>
   <g id="line2d_74">
    <path clip-path="url(#pd86760211c)" d="M 77.170909 180.294992 
L 410.989091 160.493573 
" style="fill:none;opacity:0.08;stroke:#f0ad4e;stroke-linecap:square;stroke-width:1.5;"/>
   </g>
   <g id="line2d_75">
    <path clip-path="url(#pd86760211c)" d="M 77.170909 179.30467 
L 410.989091 157.050456 
" style="fill:none;opacity:0.08;stroke:#f0ad4e;stroke-linecap:square;stroke-width:1.5;"/>
   </g>
   <g id="line2d_76">
    <path clip-path="url(#pd86760211c)" d="M 77.170909 181.018064 
L 410.989091 163.116192 
" style="fill:none;opacity:0.08;stroke:#f0ad4e;stroke-linecap:square;stroke-width:1.5;"/>
   </g>
   <g id="line2d_77">
    <path clip-path="url(#pd86760211c)" d="M 77.170909 178.716649 
L 410.989091 162.460008 
" style="fill:none;opacity:0.08;stroke:#f0ad4e;stroke-linecap:square;stroke-width:1.5;"/>
   </g>
   <g id="line2d_78">
    <path clip-path="url(#pd86760211c)" d="M 77.170909 179.120097 
L 410.989091 164.774664 
" style="fill:none;opacity:0.08;stroke:#f0ad4e;stroke-linecap:square;stroke-width:1.5;"/>
   </g>
   <g id="line2d_79">
    <path clip-path="url(#pd86760211c)" d="M 77.170909 180.509799 
L 410.989091 166.292068 
" style="fill:none;opacity:0.08;stroke:#f0ad4e;stroke-linecap:square;stroke-width:1.5;"/>
   </g>
   <g id="line2d_80">
    <path clip-path="url(#pd86760211c)" d="M 77.170909 179.128957 
L 410.989091 162.377998 
" style="fill:none;opacity:0.08;stroke:#f0ad4e;stroke-linecap:square;stroke-width:1.5;"/>
   </g>
   <g id="line2d_81">
    <path clip-path="url(#pd86760211c)" d="M 77.170909 183.772609 
L 410.989091 156.588194 
" style="fill:none;opacity:0.08;stroke:#f0ad4e;stroke-linecap:square;stroke-width:1.5;"/>
   </g>
   <g id="line2d_82">
    <path clip-path="url(#pd86760211c)" d="M 77.170909 180.293081 
L 410.989091 157.175152 
" style="fill:none;opacity:0.08;stroke:#f0ad4e;stroke-linecap:square;stroke-width:1.5;"/>
   </g>
   <g id="line2d_83">
    <path clip-path="url(#pd86760211c)" d="M 77.170909 176.109557 
L 410.989091 172.445261 
" style="fill:none;opacity:0.08;stroke:#f0ad4e;stroke-linecap:square;stroke-width:1.5;"/>
   </g>
   <g id="line2d_84">
    <path clip-path="url(#pd86760211c)" d="M 77.170909 185.543954 
L 410.989091 148.580281 
" style="fill:none;opacity:0.08;stroke:#f0ad4e;stroke-linecap:square;stroke-width:1.5;"/>
   </g>
   <g id="line2d_85">
    <path clip-path="url(#pd86760211c)" d="M 77.170909 178.550948 
L 410.989091 159.804493 
" style="fill:none;opacity:0.08;stroke:#f0ad4e;stroke-linecap:square;stroke-width:1.5;"/>
   </g>
   <g id="line2d_86">
    <path clip-path="url(#pd86760211c)" d="M 77.170909 178.473877 
L 410.989091 155.71399 
" style="fill:none;opacity:0.08;stroke:#f0ad4e;stroke-linecap:square;stroke-width:1.5;"/>
   </g>
   <g id="line2d_87">
    <path clip-path="url(#pd86760211c)" d="M 77.170909 178.23145 
L 410.989091 161.775531 
" style="fill:none;opacity:0.08;stroke:#f0ad4e;stroke-linecap:square;stroke-width:1.5;"/>
   </g>
   <g id="line2d_88">
    <path clip-path="url(#pd86760211c)" d="M 77.170909 181.027017 
L 410.989091 154.006919 
" style="fill:none;opacity:0.08;stroke:#f0ad4e;stroke-linecap:square;stroke-width:1.5;"/>
   </g>
   <g id="line2d_89">
    <path clip-path="url(#pd86760211c)" d="M 77.170909 175.525601 
L 410.989091 164.696245 
" style="fill:none;opacity:0.08;stroke:#f0ad4e;stroke-linecap:square;stroke-width:1.5;"/>
   </g>
   <g id="line2d_90">
    <path clip-path="url(#pd86760211c)" d="M 77.170909 175.158172 
L 410.989091 164.754515 
" style="fill:none;opacity:0.08;stroke:#f0ad4e;stroke-linecap:square;stroke-width:1.5;"/>
   </g>
   <g id="line2d_91">
    <path clip-path="url(#pd86760211c)" d="M 77.170909 175.616524 
L 410.989091 163.417896 
" style="fill:none;opacity:0.08;stroke:#f0ad4e;stroke-linecap:square;stroke-width:1.5;"/>
   </g>
   <g id="line2d_92">
    <path clip-path="url(#pd86760211c)" d="M 77.170909 184.613379 
L 410.989091 154.577669 
" style="fill:none;opacity:0.08;stroke:#f0ad4e;stroke-linecap:square;stroke-width:1.5;"/>
   </g>
   <g id="line2d_93">
    <path clip-path="url(#pd86760211c)" d="M 77.170909 186.649718 
L 410.989091 141.41906 
" style="fill:none;opacity:0.08;stroke:#f0ad4e;stroke-linecap:square;stroke-width:1.5;"/>
   </g>
   <g id="line2d_94">
    <path clip-path="url(#pd86760211c)" d="M 77.170909 184.274859 
L 410.989091 152.564465 
" style="fill:none;opacity:0.08;stroke:#f0ad4e;stroke-linecap:square;stroke-width:1.5;"/>
   </g>
   <g id="line2d_95">
    <path clip-path="url(#pd86760211c)" d="M 77.170909 188.676387 
L 410.989091 134.674278 
" style="fill:none;opacity:0.08;stroke:#f0ad4e;stroke-linecap:square;stroke-width:1.5;"/>
   </g>
   <g id="line2d_96">
    <path clip-path="url(#pd86760211c)" d="M 77.170909 183.040955 
L 410.989091 158.961616 
" style="fill:none;opacity:0.08;stroke:#f0ad4e;stroke-linecap:square;stroke-width:1.5;"/>
   </g>
   <g id="line2d_97">
    <path clip-path="url(#pd86760211c)" d="M 77.170909 185.837257 
L 410.989091 149.601715 
" style="fill:none;opacity:0.08;stroke:#f0ad4e;stroke-linecap:square;stroke-width:1.5;"/>
   </g>
   <g id="line2d_98">
    <path clip-path="url(#pd86760211c)" d="M 77.170909 179.242807 
L 410.989091 172.669418 
" style="fill:none;opacity:0.08;stroke:#f0ad4e;stroke-linecap:square;stroke-width:1.5;"/>
   </g>
   <g id="line2d_99">
    <path clip-path="url(#pd86760211c)" d="M 77.170909 183.894462 
L 410.989091 157.644274 
" style="fill:none;opacity:0.08;stroke:#f0ad4e;stroke-linecap:square;stroke-width:1.5;"/>
   </g>
   <g id="line2d_100">
    <path clip-path="url(#pd86760211c)" d="M 77.170909 178.410867 
L 410.989091 158.965146 
" style="fill:none;opacity:0.08;stroke:#f0ad4e;stroke-linecap:square;stroke-width:1.5;"/>
   </g>
   <g id="line2d_101">
    <path clip-path="url(#pd86760211c)" d="M 77.170909 181.05905 
L 410.989091 158.597916 
" style="fill:none;opacity:0.08;stroke:#f0ad4e;stroke-linecap:square;stroke-width:1.5;"/>
   </g>
   <g id="line2d_102">
    <path clip-path="url(#pd86760211c)" d="M 77.170909 186.093819 
L 410.989091 160.112899 
" style="fill:none;opacity:0.08;stroke:#f0ad4e;stroke-linecap:square;stroke-width:1.5;"/>
   </g>
   <g id="line2d_103">
    <path clip-path="url(#pd86760211c)" d="M 77.170909 183.477761 
L 410.989091 157.929105 
" style="fill:none;opacity:0.08;stroke:#f0ad4e;stroke-linecap:square;stroke-width:1.5;"/>
   </g>
   <g id="line2d_104">
    <path clip-path="url(#pd86760211c)" d="M 77.170909 187.604322 
L 410.989091 150.595174 
" style="fill:none;opacity:0.08;stroke:#f0ad4e;stroke-linecap:square;stroke-width:1.5;"/>
   </g>
   <g id="line2d_105">
    <path clip-path="url(#pd86760211c)" d="M 77.170909 181.299702 
L 410.989091 159.023312 
" style="fill:none;opacity:0.08;stroke:#f0ad4e;stroke-linecap:square;stroke-width:1.5;"/>
   </g>
   <g id="line2d_106">
    <path clip-path="url(#pd86760211c)" d="M 77.170909 192.212363 
L 410.989091 140.854267 
" style="fill:none;opacity:0.08;stroke:#f0ad4e;stroke-linecap:square;stroke-width:1.5;"/>
   </g>
   <g id="line2d_107">
    <path clip-path="url(#pd86760211c)" d="M 77.170909 182.11439 
L 410.989091 161.693087 
" style="fill:none;opacity:0.08;stroke:#f0ad4e;stroke-linecap:square;stroke-width:1.5;"/>
   </g>
   <g id="line2d_108">
    <path clip-path="url(#pd86760211c)" d="M 77.170909 180.067706 
L 410.989091 166.197802 
" style="fill:none;opacity:0.08;stroke:#f0ad4e;stroke-linecap:square;stroke-width:1.5;"/>
   </g>
   <g id="line2d_109">
    <path clip-path="url(#pd86760211c)" d="M 77.170909 183.619529 
L 410.989091 153.391828 
" style="fill:none;opacity:0.08;stroke:#f0ad4e;stroke-linecap:square;stroke-width:1.5;"/>
   </g>
   <g id="line2d_110">
    <path clip-path="url(#pd86760211c)" d="M 77.170909 178.86427 
L 410.989091 147.240129 
" style="fill:none;opacity:0.08;stroke:#f0ad4e;stroke-linecap:square;stroke-width:1.5;"/>
   </g>
   <g id="line2d_111">
    <path clip-path="url(#pd86760211c)" d="M 77.170909 180.34533 
L 410.989091 148.114077 
" style="fill:none;opacity:0.08;stroke:#f0ad4e;stroke-linecap:square;stroke-width:1.5;"/>
   </g>
   <g id="line2d_112">
    <path clip-path="url(#pd86760211c)" d="M 77.170909 179.801533 
L 410.989091 157.138709 
" style="fill:none;opacity:0.08;stroke:#f0ad4e;stroke-linecap:square;stroke-width:1.5;"/>
   </g>
   <g id="line2d_113">
    <path clip-path="url(#pd86760211c)" d="M 77.170909 184.725847 
L 410.989091 154.572304 
" style="fill:none;opacity:0.08;stroke:#f0ad4e;stroke-linecap:square;stroke-width:1.5;"/>
   </g>
   <g id="line2d_114">
    <path clip-path="url(#pd86760211c)" d="M 77.170909 176.739398 
L 410.989091 161.108256 
" style="fill:none;opacity:0.08;stroke:#f0ad4e;stroke-linecap:square;stroke-width:1.5;"/>
   </g>
   <g id="line2d_115">
    <path clip-path="url(#pd86760211c)" d="M 77.170909 182.947385 
L 410.989091 167.689521 
" style="fill:none;opacity:0.08;stroke:#f0ad4e;stroke-linecap:square;stroke-width:1.5;"/>
   </g>
   <g id="line2d_116">
    <path clip-path="url(#pd86760211c)" d="M 77.170909 177.59494 
L 410.989091 159.455111 
" style="fill:none;opacity:0.08;stroke:#f0ad4e;stroke-linecap:square;stroke-width:1.5;"/>
   </g>
   <g id="line2d_117">
    <path clip-path="url(#pd86760211c)" d="M 77.170909 180.046492 
L 410.989091 154.724904 
" style="fill:none;opacity:0.08;stroke:#f0ad4e;stroke-linecap:square;stroke-width:1.5;"/>
   </g>
   <g id="line2d_118">
    <path clip-path="url(#pd86760211c)" d="M 77.170909 188.512894 
L 410.989091 143.385426 
" style="fill:none;opacity:0.08;stroke:#f0ad4e;stroke-linecap:square;stroke-width:1.5;"/>
   </g>
   <g id="line2d_119">
    <path clip-path="url(#pd86760211c)" d="M 77.170909 179.255722 
L 410.989091 158.774642 
" style="fill:none;opacity:0.08;stroke:#f0ad4e;stroke-linecap:square;stroke-width:1.5;"/>
   </g>
   <g id="line2d_120">
    <path clip-path="url(#pd86760211c)" d="M 77.170909 172.011115 
L 410.989091 168.009831 
" style="fill:none;opacity:0.08;stroke:#f0ad4e;stroke-linecap:square;stroke-width:1.5;"/>
   </g>
   <g id="line2d_121">
    <path clip-path="url(#pd86760211c)" d="M 77.170909 185.808982 
L 410.989091 159.676186 
" style="fill:none;opacity:0.08;stroke:#f0ad4e;stroke-linecap:square;stroke-width:1.5;"/>
   </g>
   <g id="line2d_122">
    <path clip-path="url(#pd86760211c)" d="M 77.170909 178.204955 
L 410.989091 162.44704 
" style="fill:none;opacity:0.08;stroke:#f0ad4e;stroke-linecap:square;stroke-width:1.5;"/>
   </g>
   <g id="line2d_123">
    <path clip-path="url(#pd86760211c)" d="M 77.170909 177.760201 
L 410.989091 158.101132 
" style="fill:none;opacity:0.08;stroke:#f0ad4e;stroke-linecap:square;stroke-width:1.5;"/>
   </g>
   <g id="line2d_124">
    <path clip-path="url(#pd86760211c)" d="M 77.170909 174.488965 
L 410.989091 169.373749 
" style="fill:none;opacity:0.08;stroke:#f0ad4e;stroke-linecap:square;stroke-width:1.5;"/>
   </g>
   <g id="line2d_125">
    <path clip-path="url(#pd86760211c)" d="M 77.170909 186.61361 
L 410.989091 156.560109 
" style="fill:none;opacity:0.08;stroke:#f0ad4e;stroke-linecap:square;stroke-width:1.5;"/>
   </g>
   <g id="line2d_126">
    <path clip-path="url(#pd86760211c)" d="M 77.170909 186.533131 
L 410.989091 149.687392 
" style="fill:none;opacity:0.08;stroke:#f0ad4e;stroke-linecap:square;stroke-width:1.5;"/>
   </g>
   <g id="line2d_127">
    <path clip-path="url(#pd86760211c)" d="M 77.170909 185.550934 
L 410.989091 149.490089 
" style="fill:none;opacity:0.08;stroke:#f0ad4e;stroke-linecap:square;stroke-width:1.5;"/>
   </g>
   <g id="line2d_128">
    <path clip-path="url(#pd86760211c)" d="M 77.170909 190.983938 
L 410.989091 142.918222 
" style="fill:none;opacity:0.08;stroke:#f0ad4e;stroke-linecap:square;stroke-width:1.5;"/>
   </g>
   <g id="line2d_129">
    <path clip-path="url(#pd86760211c)" d="M 77.170909 178.874695 
L 410.989091 164.590468 
" style="fill:none;opacity:0.08;stroke:#f0ad4e;stroke-linecap:square;stroke-width:1.5;"/>
   </g>
   <g id="line2d_130">
    <path clip-path="url(#pd86760211c)" d="M 77.170909 179.577893 
L 410.989091 154.434018 
" style="fill:none;opacity:0.08;stroke:#f0ad4e;stroke-linecap:square;stroke-width:1.5;"/>
   </g>
   <g id="line2d_131">
    <path clip-path="url(#pd86760211c)" d="M 77.170909 184.586081 
L 410.989091 157.002984 
" style="fill:none;opacity:0.08;stroke:#f0ad4e;stroke-linecap:square;stroke-width:1.5;"/>
   </g>
   <g id="line2d_132">
    <path clip-path="url(#pd86760211c)" d="M 77.170909 176.27904 
L 410.989091 159.836996 
" style="fill:none;opacity:0.08;stroke:#f0ad4e;stroke-linecap:square;stroke-width:1.5;"/>
   </g>
   <g id="line2d_133">
    <path clip-path="url(#pd86760211c)" d="M 77.170909 177.380659 
L 410.989091 172.096023 
" style="fill:none;opacity:0.08;stroke:#f0ad4e;stroke-linecap:square;stroke-width:1.5;"/>
   </g>
   <g id="line2d_134">
    <path clip-path="url(#pd86760211c)" d="M 77.170909 183.120974 
L 410.989091 152.067308 
" style="fill:none;opacity:0.08;stroke:#f0ad4e;stroke-linecap:square;stroke-width:1.5;"/>
   </g>
   <g id="line2d_135">
    <path clip-path="url(#pd86760211c)" d="M 77.170909 182.070204 
L 410.989091 164.810749 
" style="fill:none;opacity:0.08;stroke:#f0ad4e;stroke-linecap:square;stroke-width:1.5;"/>
   </g>
   <g id="line2d_136">
    <path clip-path="url(#pd86760211c)" d="M 77.170909 177.682738 
L 410.989091 162.037123 
" style="fill:none;opacity:0.08;stroke:#f0ad4e;stroke-linecap:square;stroke-width:1.5;"/>
   </g>
   <g id="line2d_137">
    <path clip-path="url(#pd86760211c)" d="M 77.170909 187.243978 
L 410.989091 155.099896 
" style="fill:none;opacity:0.08;stroke:#f0ad4e;stroke-linecap:square;stroke-width:1.5;"/>
   </g>
   <g id="line2d_138">
    <path clip-path="url(#pd86760211c)" d="M 77.170909 175.806891 
L 410.989091 160.89809 
" style="fill:none;opacity:0.08;stroke:#f0ad4e;stroke-linecap:square;stroke-width:1.5;"/>
   </g>
   <g id="line2d_139">
    <path clip-path="url(#pd86760211c)" d="M 77.170909 183.365312 
L 410.989091 152.218105 
" style="fill:none;opacity:0.08;stroke:#f0ad4e;stroke-linecap:square;stroke-width:1.5;"/>
   </g>
   <g id="line2d_140">
    <path clip-path="url(#pd86760211c)" d="M 77.170909 184.829108 
L 410.989091 151.642376 
" style="fill:none;opacity:0.08;stroke:#f0ad4e;stroke-linecap:square;stroke-width:1.5;"/>
   </g>
   <g id="line2d_141">
    <path clip-path="url(#pd86760211c)" d="M 77.170909 181.319795 
L 410.989091 151.437866 
" style="fill:none;opacity:0.08;stroke:#f0ad4e;stroke-linecap:square;stroke-width:1.5;"/>
   </g>
   <g id="line2d_142">
    <path clip-path="url(#pd86760211c)" d="M 77.170909 185.146303 
L 410.989091 151.29492 
" style="fill:none;opacity:0.08;stroke:#f0ad4e;stroke-linecap:square;stroke-width:1.5;"/>
   </g>
   <g id="line2d_143">
    <path clip-path="url(#pd86760211c)" d="M 77.170909 183.068438 
L 410.989091 153.189966 
" style="fill:none;opacity:0.08;stroke:#f0ad4e;stroke-linecap:square;stroke-width:1.5;"/>
   </g>
   <g id="line2d_144">
    <path clip-path="url(#pd86760211c)" d="M 77.170909 180.126194 
L 410.989091 160.971143 
" style="fill:none;opacity:0.08;stroke:#f0ad4e;stroke-linecap:square;stroke-width:1.5;"/>
   </g>
   <g id="line2d_145">
    <path clip-path="url(#pd86760211c)" d="M 77.170909 177.065344 
L 410.989091 171.047154 
" style="fill:none;opacity:0.08;stroke:#f0ad4e;stroke-linecap:square;stroke-width:1.5;"/>
   </g>
   <g id="line2d_146">
    <path clip-path="url(#pd86760211c)" d="M 77.170909 176.667641 
L 410.989091 167.520976 
" style="fill:none;opacity:0.08;stroke:#f0ad4e;stroke-linecap:square;stroke-width:1.5;"/>
   </g>
   <g id="line2d_147">
    <path clip-path="url(#pd86760211c)" d="M 77.170909 174.406829 
L 410.989091 172.866031 
" style="fill:none;opacity:0.08;stroke:#f0ad4e;stroke-linecap:square;stroke-width:1.5;"/>
   </g>
   <g id="line2d_148">
    <path clip-path="url(#pd86760211c)" d="M 77.170909 177.883019 
L 410.989091 162.541773 
" style="fill:none;opacity:0.08;stroke:#f0ad4e;stroke-linecap:square;stroke-width:1.5;"/>
   </g>
   <g id="line2d_149">
    <path clip-path="url(#pd86760211c)" d="M 77.170909 179.810469 
L 410.989091 159.039294 
" style="fill:none;opacity:0.08;stroke:#f0ad4e;stroke-linecap:square;stroke-width:1.5;"/>
   </g>
   <g id="line2d_150">
    <path clip-path="url(#pd86760211c)" d="M 77.170909 185.065165 
L 410.989091 148.56098 
" style="fill:none;opacity:0.08;stroke:#f0ad4e;stroke-linecap:square;stroke-width:1.5;"/>
   </g>
   <g id="line2d_151">
    <path clip-path="url(#pd86760211c)" d="M 77.170909 178.307259 
L 410.989091 163.599327 
" style="fill:none;opacity:0.08;stroke:#f0ad4e;stroke-linecap:square;stroke-width:1.5;"/>
   </g>
   <g id="line2d_152">
    <path clip-path="url(#pd86760211c)" d="M 77.170909 182.454841 
L 410.989091 141.261956 
" style="fill:none;opacity:0.08;stroke:#f0ad4e;stroke-linecap:square;stroke-width:1.5;"/>
   </g>
   <g id="line2d_153">
    <path clip-path="url(#pd86760211c)" d="M 77.170909 179.259275 
L 410.989091 161.04872 
" style="fill:none;opacity:0.08;stroke:#f0ad4e;stroke-linecap:square;stroke-width:1.5;"/>
   </g>
   <g id="line2d_154">
    <path clip-path="url(#pd86760211c)" d="M 77.170909 180.871412 
L 410.989091 148.691753 
" style="fill:none;opacity:0.08;stroke:#f0ad4e;stroke-linecap:square;stroke-width:1.5;"/>
   </g>
   <g id="line2d_155">
    <path clip-path="url(#pd86760211c)" d="M 77.170909 186.905375 
L 410.989091 157.583647 
" style="fill:none;opacity:0.08;stroke:#f0ad4e;stroke-linecap:square;stroke-width:1.5;"/>
   </g>
   <g id="line2d_156">
    <path clip-path="url(#pd86760211c)" d="M 77.170909 173.834218 
L 410.989091 169.307531 
" style="fill:none;opacity:0.08;stroke:#f0ad4e;stroke-linecap:square;stroke-width:1.5;"/>
   </g>
   <g id="line2d_157">
    <path clip-path="url(#pd86760211c)" d="M 77.170909 175.070484 
L 410.989091 160.986044 
" style="fill:none;opacity:0.08;stroke:#f0ad4e;stroke-linecap:square;stroke-width:1.5;"/>
   </g>
   <g id="line2d_158">
    <path clip-path="url(#pd86760211c)" d="M 77.170909 180.207019 
L 410.989091 158.417728 
" style="fill:none;opacity:0.08;stroke:#f0ad4e;stroke-linecap:square;stroke-width:1.5;"/>
   </g>
   <g id="line2d_159">
    <path clip-path="url(#pd86760211c)" d="M 77.170909 174.295206 
L 410.989091 167.445838 
" style="fill:none;opacity:0.08;stroke:#f0ad4e;stroke-linecap:square;stroke-width:1.5;"/>
   </g>
   <g id="line2d_160">
    <path clip-path="url(#pd86760211c)" d="M 77.170909 181.322421 
L 410.989091 154.68768 
" style="fill:none;opacity:0.08;stroke:#f0ad4e;stroke-linecap:square;stroke-width:1.5;"/>
   </g>
   <g id="line2d_161">
    <path clip-path="url(#pd86760211c)" d="M 77.170909 188.993687 
L 410.989091 152.721155 
" style="fill:none;opacity:0.08;stroke:#f0ad4e;stroke-linecap:square;stroke-width:1.5;"/>
   </g>
   <g id="line2d_162">
    <path clip-path="url(#pd86760211c)" d="M 77.170909 181.946791 
L 410.989091 160.504648 
" style="fill:none;opacity:0.08;stroke:#f0ad4e;stroke-linecap:square;stroke-width:1.5;"/>
   </g>
   <g id="line2d_163">
    <path clip-path="url(#pd86760211c)" d="M 77.170909 176.310879 
L 410.989091 160.837496 
" style="fill:none;opacity:0.08;stroke:#f0ad4e;stroke-linecap:square;stroke-width:1.5;"/>
   </g>
   <g id="line2d_164">
    <path clip-path="url(#pd86760211c)" d="M 77.170909 181.893875 
L 410.989091 159.51333 
" style="fill:none;opacity:0.08;stroke:#f0ad4e;stroke-linecap:square;stroke-width:1.5;"/>
   </g>
   <g id="line2d_165">
    <path clip-path="url(#pd86760211c)" d="M 77.170909 181.057631 
L 410.989091 154.806582 
" style="fill:none;opacity:0.08;stroke:#f0ad4e;stroke-linecap:square;stroke-width:1.5;"/>
   </g>
   <g id="line2d_166">
    <path clip-path="url(#pd86760211c)" d="M 77.170909 182.552786 
L 410.989091 145.044411 
" style="fill:none;opacity:0.08;stroke:#f0ad4e;stroke-linecap:square;stroke-width:1.5;"/>
   </g>
   <g id="line2d_167">
    <path clip-path="url(#pd86760211c)" d="M 77.170909 183.782404 
L 410.989091 157.443206 
" style="fill:none;opacity:0.08;stroke:#f0ad4e;stroke-linecap:square;stroke-width:1.5;"/>
   </g>
   <g id="line2d_168">
    <path clip-path="url(#pd86760211c)" d="M 77.170909 181.804981 
L 410.989091 161.02869 
" style="fill:none;opacity:0.08;stroke:#f0ad4e;stroke-linecap:square;stroke-width:1.5;"/>
   </g>
  </g>
  <g id="axes_5">
   <g id="line2d_169">
    <defs>
     <path d="M 0 7.5 
C 1.989023 7.5 3.896849 6.709753 5.303301 5.303301 
C 6.709753 3.896849 7.5 1.989023 7.5 0 
C 7.5 -1.989023 6.709753 -3.896849 5.303301 -5.303301 
C 3.896849 -6.709753 1.989023 -7.5 0 -7.5 
C -1.989023 -7.5 -3.896849 -6.709753 -5.303301 -5.303301 
C -6.709753 -3.896849 -7.5 -1.989023 -7.5 0 
C -7.5 1.989023 -6.709753 3.896849 -5.303301 5.303301 
C -3.896849 6.709753 -1.989023 7.5 0 7.5 
z
" id="mb3cfba8050" style="stroke:#d9534f;"/>
    </defs>
    <g clip-path="url(#pd86760211c)">
     <use style="fill:#d9534f;stroke:#d9534f;" x="184.031515" xlink:href="#mb3cfba8050" y="14.007273"/>
     <use style="fill:#d9534f;stroke:#d9534f;" x="145.389091" xlink:href="#mb3cfba8050" y="79.201575"/>
     <use style="fill:#d9534f;stroke:#d9534f;" x="163.813333" xlink:href="#mb3cfba8050" y="21.721266"/>
    </g>
   </g>
  </g>
 </g>
 <defs>
  <clipPath id="pd86760211c">
   <rect height="244.8" width="367.2" x="60.48" y="2.88"/>
  </clipPath>
 </defs>
</svg>
