<?xml version="1.0" encoding="utf-8" standalone="no"?>
<!DOCTYPE svg PUBLIC "-//W3C//DTD SVG 1.1//EN"
  "http://www.w3.org/Graphics/SVG/1.1/DTD/svg11.dtd">
<!-- Created with matplotlib (http://matplotlib.org/) -->
<svg height="288pt" version="1.1" viewBox="0 0 720 288" width="720pt" xmlns="http://www.w3.org/2000/svg" xmlns:xlink="http://www.w3.org/1999/xlink">
 <defs>
  <style type="text/css">
*{stroke-linecap:butt;stroke-linejoin:round;}
  </style>
 </defs>
 <g id="figure_1">
  <g id="patch_1">
   <path d="M 0 288 
L 720 288 
L 720 0 
L 0 0 
z
" style="fill:none;"/>
  </g>
  <g id="axes_1">
   <g id="patch_2">
    <path d="M 57.6 259.2 
L 339.33913 259.2 
L 339.33913 5.76 
L 57.6 5.76 
z
" style="fill:none;"/>
   </g>
   <g id="matplotlib.axis_1">
    <g id="xtick_1">
     <g id="line2d_1">
      <defs>
       <path d="M 0 0 
L 0 4 
" id="mc3d1514b1f" style="stroke:#d2d2d2;"/>
      </defs>
      <g>
       <use style="fill:#d2d2d2;stroke:#d2d2d2;" x="104.556522" xlink:href="#mc3d1514b1f" y="259.2"/>
      </g>
     </g>
     <g id="text_1">
      <!-- Grp 1 -->
      <defs>
       <path d="M 59.515625 10.40625 
L 59.515625 29.984375 
L 43.40625 29.984375 
L 43.40625 38.09375 
L 69.28125 38.09375 
L 69.28125 6.78125 
Q 63.578125 2.734375 56.6875 0.65625 
Q 49.8125 -1.421875 42 -1.421875 
Q 24.90625 -1.421875 15.25 8.5625 
Q 5.609375 18.5625 5.609375 36.375 
Q 5.609375 54.25 15.25 64.234375 
Q 24.90625 74.21875 42 74.21875 
Q 49.125 74.21875 55.546875 72.453125 
Q 61.96875 70.703125 67.390625 67.28125 
L 67.390625 56.78125 
Q 61.921875 61.421875 55.765625 63.765625 
Q 49.609375 66.109375 42.828125 66.109375 
Q 29.4375 66.109375 22.71875 58.640625 
Q 16.015625 51.171875 16.015625 36.375 
Q 16.015625 21.625 22.71875 14.15625 
Q 29.4375 6.6875 42.828125 6.6875 
Q 48.046875 6.6875 52.140625 7.59375 
Q 56.25 8.5 59.515625 10.40625 
" id="DejaVuSans-47"/>
       <path d="M 41.109375 46.296875 
Q 39.59375 47.171875 37.8125 47.578125 
Q 36.03125 48 33.890625 48 
Q 26.265625 48 22.1875 43.046875 
Q 18.109375 38.09375 18.109375 28.8125 
L 18.109375 0 
L 9.078125 0 
L 9.078125 54.6875 
L 18.109375 54.6875 
L 18.109375 46.1875 
Q 20.953125 51.171875 25.484375 53.578125 
Q 30.03125 56 36.53125 56 
Q 37.453125 56 38.578125 55.875 
Q 39.703125 55.765625 41.0625 55.515625 
z
" id="DejaVuSans-72"/>
       <path d="M 18.109375 8.203125 
L 18.109375 -20.796875 
L 9.078125 -20.796875 
L 9.078125 54.6875 
L 18.109375 54.6875 
L 18.109375 46.390625 
Q 20.953125 51.265625 25.265625 53.625 
Q 29.59375 56 35.59375 56 
Q 45.5625 56 51.78125 48.09375 
Q 58.015625 40.1875 58.015625 27.296875 
Q 58.015625 14.40625 51.78125 6.484375 
Q 45.5625 -1.421875 35.59375 -1.421875 
Q 29.59375 -1.421875 25.265625 0.953125 
Q 20.953125 3.328125 18.109375 8.203125 
M 48.6875 27.296875 
Q 48.6875 37.203125 44.609375 42.84375 
Q 40.53125 48.484375 33.40625 48.484375 
Q 26.265625 48.484375 22.1875 42.84375 
Q 18.109375 37.203125 18.109375 27.296875 
Q 18.109375 17.390625 22.1875 11.75 
Q 26.265625 6.109375 33.40625 6.109375 
Q 40.53125 6.109375 44.609375 11.75 
Q 48.6875 17.390625 48.6875 27.296875 
" id="DejaVuSans-70"/>
       <path id="DejaVuSans-20"/>
       <path d="M 12.40625 8.296875 
L 28.515625 8.296875 
L 28.515625 63.921875 
L 10.984375 60.40625 
L 10.984375 69.390625 
L 28.421875 72.90625 
L 38.28125 72.90625 
L 38.28125 8.296875 
L 54.390625 8.296875 
L 54.390625 0 
L 12.40625 0 
z
" id="DejaVuSans-31"/>
      </defs>
      <g style="fill:#d2d2d2;" transform="translate(83.745194 278.597656)scale(0.15 -0.15)">
       <use xlink:href="#DejaVuSans-47"/>
       <use x="77.490234" xlink:href="#DejaVuSans-72"/>
       <use x="118.603516" xlink:href="#DejaVuSans-70"/>
       <use x="182.080078" xlink:href="#DejaVuSans-20"/>
       <use x="213.867188" xlink:href="#DejaVuSans-31"/>
      </g>
     </g>
    </g>
    <g id="xtick_2">
     <g id="line2d_2">
      <g>
       <use style="fill:#d2d2d2;stroke:#d2d2d2;" x="198.469565" xlink:href="#mc3d1514b1f" y="259.2"/>
      </g>
     </g>
     <g id="text_2">
      <!-- Grp 2 -->
      <defs>
       <path d="M 19.1875 8.296875 
L 53.609375 8.296875 
L 53.609375 0 
L 7.328125 0 
L 7.328125 8.296875 
Q 12.9375 14.109375 22.625 23.890625 
Q 32.328125 33.6875 34.8125 36.53125 
Q 39.546875 41.84375 41.421875 45.53125 
Q 43.3125 49.21875 43.3125 52.78125 
Q 43.3125 58.59375 39.234375 62.25 
Q 35.15625 65.921875 28.609375 65.921875 
Q 23.96875 65.921875 18.8125 64.3125 
Q 13.671875 62.703125 7.8125 59.421875 
L 7.8125 69.390625 
Q 13.765625 71.78125 18.9375 73 
Q 24.125 74.21875 28.421875 74.21875 
Q 39.75 74.21875 46.484375 68.546875 
Q 53.21875 62.890625 53.21875 53.421875 
Q 53.21875 48.921875 51.53125 44.890625 
Q 49.859375 40.875 45.40625 35.40625 
Q 44.1875 33.984375 37.640625 27.21875 
Q 31.109375 20.453125 19.1875 8.296875 
" id="DejaVuSans-32"/>
      </defs>
      <g style="fill:#d2d2d2;" transform="translate(177.658237 278.597656)scale(0.15 -0.15)">
       <use xlink:href="#DejaVuSans-47"/>
       <use x="77.490234" xlink:href="#DejaVuSans-72"/>
       <use x="118.603516" xlink:href="#DejaVuSans-70"/>
       <use x="182.080078" xlink:href="#DejaVuSans-20"/>
       <use x="213.867188" xlink:href="#DejaVuSans-32"/>
      </g>
     </g>
    </g>
    <g id="xtick_3">
     <g id="line2d_3">
      <g>
       <use style="fill:#d2d2d2;stroke:#d2d2d2;" x="292.382609" xlink:href="#mc3d1514b1f" y="259.2"/>
      </g>
     </g>
     <g id="text_3">
      <!-- Grp 3 -->
      <defs>
       <path d="M 40.578125 39.3125 
Q 47.65625 37.796875 51.625 33 
Q 55.609375 28.21875 55.609375 21.1875 
Q 55.609375 10.40625 48.1875 4.484375 
Q 40.765625 -1.421875 27.09375 -1.421875 
Q 22.515625 -1.421875 17.65625 -0.515625 
Q 12.796875 0.390625 7.625 2.203125 
L 7.625 11.71875 
Q 11.71875 9.328125 16.59375 8.109375 
Q 21.484375 6.890625 26.8125 6.890625 
Q 36.078125 6.890625 40.9375 10.546875 
Q 45.796875 14.203125 45.796875 21.1875 
Q 45.796875 27.640625 41.28125 31.265625 
Q 36.765625 34.90625 28.71875 34.90625 
L 20.21875 34.90625 
L 20.21875 43.015625 
L 29.109375 43.015625 
Q 36.375 43.015625 40.234375 45.921875 
Q 44.09375 48.828125 44.09375 54.296875 
Q 44.09375 59.90625 40.109375 62.90625 
Q 36.140625 65.921875 28.71875 65.921875 
Q 24.65625 65.921875 20.015625 65.03125 
Q 15.375 64.15625 9.8125 62.3125 
L 9.8125 71.09375 
Q 15.4375 72.65625 20.34375 73.4375 
Q 25.25 74.21875 29.59375 74.21875 
Q 40.828125 74.21875 47.359375 69.109375 
Q 53.90625 64.015625 53.90625 55.328125 
Q 53.90625 49.265625 50.4375 45.09375 
Q 46.96875 40.921875 40.578125 39.3125 
" id="DejaVuSans-33"/>
      </defs>
      <g style="fill:#d2d2d2;" transform="translate(271.571281 278.597656)scale(0.15 -0.15)">
       <use xlink:href="#DejaVuSans-47"/>
       <use x="77.490234" xlink:href="#DejaVuSans-72"/>
       <use x="118.603516" xlink:href="#DejaVuSans-70"/>
       <use x="182.080078" xlink:href="#DejaVuSans-20"/>
       <use x="213.867188" xlink:href="#DejaVuSans-33"/>
      </g>
     </g>
    </g>
   </g>
   <g id="matplotlib.axis_2">
    <g id="ytick_1">
     <g id="line2d_4">
      <defs>
       <path d="M 0 0 
L -4 0 
" id="m561b8e1845" style="stroke:#d2d2d2;"/>
      </defs>
      <g>
       <use style="fill:#d2d2d2;stroke:#d2d2d2;" x="57.6" xlink:href="#m561b8e1845" y="259.2"/>
      </g>
     </g>
     <g id="text_4">
      <!-- 0 -->
      <defs>
       <path d="M 31.78125 66.40625 
Q 24.171875 66.40625 20.328125 58.90625 
Q 16.5 51.421875 16.5 36.375 
Q 16.5 21.390625 20.328125 13.890625 
Q 24.171875 6.390625 31.78125 6.390625 
Q 39.453125 6.390625 43.28125 13.890625 
Q 47.125 21.390625 47.125 36.375 
Q 47.125 51.421875 43.28125 58.90625 
Q 39.453125 66.40625 31.78125 66.40625 
M 31.78125 74.21875 
Q 44.046875 74.21875 50.515625 64.515625 
Q 56.984375 54.828125 56.984375 36.375 
Q 56.984375 17.96875 50.515625 8.265625 
Q 44.046875 -1.421875 31.78125 -1.421875 
Q 19.53125 -1.421875 13.0625 8.265625 
Q 6.59375 17.96875 6.59375 36.375 
Q 6.59375 54.828125 13.0625 64.515625 
Q 19.53125 74.21875 31.78125 74.21875 
" id="DejaVuSans-30"/>
      </defs>
      <g style="fill:#d2d2d2;" transform="translate(41.32875 264.138984)scale(0.13 -0.13)">
       <use xlink:href="#DejaVuSans-30"/>
      </g>
     </g>
    </g>
    <g id="ytick_2">
     <g id="line2d_5">
      <g>
       <use style="fill:#d2d2d2;stroke:#d2d2d2;" x="57.6" xlink:href="#m561b8e1845" y="230.235429"/>
      </g>
     </g>
     <g id="text_5">
      <!-- 2 -->
      <g style="fill:#d2d2d2;" transform="translate(41.32875 235.174413)scale(0.13 -0.13)">
       <use xlink:href="#DejaVuSans-32"/>
      </g>
     </g>
    </g>
    <g id="ytick_3">
     <g id="line2d_6">
      <g>
       <use style="fill:#d2d2d2;stroke:#d2d2d2;" x="57.6" xlink:href="#m561b8e1845" y="201.270857"/>
      </g>
     </g>
     <g id="text_6">
      <!-- 4 -->
      <defs>
       <path d="M 37.796875 64.3125 
L 12.890625 25.390625 
L 37.796875 25.390625 
z
M 35.203125 72.90625 
L 47.609375 72.90625 
L 47.609375 25.390625 
L 58.015625 25.390625 
L 58.015625 17.1875 
L 47.609375 17.1875 
L 47.609375 0 
L 37.796875 0 
L 37.796875 17.1875 
L 4.890625 17.1875 
L 4.890625 26.703125 
z
" id="DejaVuSans-34"/>
      </defs>
      <g style="fill:#d2d2d2;" transform="translate(41.32875 206.209842)scale(0.13 -0.13)">
       <use xlink:href="#DejaVuSans-34"/>
      </g>
     </g>
    </g>
    <g id="ytick_4">
     <g id="line2d_7">
      <g>
       <use style="fill:#d2d2d2;stroke:#d2d2d2;" x="57.6" xlink:href="#m561b8e1845" y="172.306286"/>
      </g>
     </g>
     <g id="text_7">
      <!-- 6 -->
      <defs>
       <path d="M 33.015625 40.375 
Q 26.375 40.375 22.484375 35.828125 
Q 18.609375 31.296875 18.609375 23.390625 
Q 18.609375 15.53125 22.484375 10.953125 
Q 26.375 6.390625 33.015625 6.390625 
Q 39.65625 6.390625 43.53125 10.953125 
Q 47.40625 15.53125 47.40625 23.390625 
Q 47.40625 31.296875 43.53125 35.828125 
Q 39.65625 40.375 33.015625 40.375 
M 52.59375 71.296875 
L 52.59375 62.3125 
Q 48.875 64.0625 45.09375 64.984375 
Q 41.3125 65.921875 37.59375 65.921875 
Q 27.828125 65.921875 22.671875 59.328125 
Q 17.53125 52.734375 16.796875 39.40625 
Q 19.671875 43.65625 24.015625 45.921875 
Q 28.375 48.1875 33.59375 48.1875 
Q 44.578125 48.1875 50.953125 41.515625 
Q 57.328125 34.859375 57.328125 23.390625 
Q 57.328125 12.15625 50.6875 5.359375 
Q 44.046875 -1.421875 33.015625 -1.421875 
Q 20.359375 -1.421875 13.671875 8.265625 
Q 6.984375 17.96875 6.984375 36.375 
Q 6.984375 53.65625 15.1875 63.9375 
Q 23.390625 74.21875 37.203125 74.21875 
Q 40.921875 74.21875 44.703125 73.484375 
Q 48.484375 72.75 52.59375 71.296875 
" id="DejaVuSans-36"/>
      </defs>
      <g style="fill:#d2d2d2;" transform="translate(41.32875 177.24527)scale(0.13 -0.13)">
       <use xlink:href="#DejaVuSans-36"/>
      </g>
     </g>
    </g>
    <g id="ytick_5">
     <g id="line2d_8">
      <g>
       <use style="fill:#d2d2d2;stroke:#d2d2d2;" x="57.6" xlink:href="#m561b8e1845" y="143.341714"/>
      </g>
     </g>
     <g id="text_8">
      <!-- 8 -->
      <defs>
       <path d="M 31.78125 34.625 
Q 24.75 34.625 20.71875 30.859375 
Q 16.703125 27.09375 16.703125 20.515625 
Q 16.703125 13.921875 20.71875 10.15625 
Q 24.75 6.390625 31.78125 6.390625 
Q 38.8125 6.390625 42.859375 10.171875 
Q 46.921875 13.96875 46.921875 20.515625 
Q 46.921875 27.09375 42.890625 30.859375 
Q 38.875 34.625 31.78125 34.625 
M 21.921875 38.8125 
Q 15.578125 40.375 12.03125 44.71875 
Q 8.5 49.078125 8.5 55.328125 
Q 8.5 64.0625 14.71875 69.140625 
Q 20.953125 74.21875 31.78125 74.21875 
Q 42.671875 74.21875 48.875 69.140625 
Q 55.078125 64.0625 55.078125 55.328125 
Q 55.078125 49.078125 51.53125 44.71875 
Q 48 40.375 41.703125 38.8125 
Q 48.828125 37.15625 52.796875 32.3125 
Q 56.78125 27.484375 56.78125 20.515625 
Q 56.78125 9.90625 50.3125 4.234375 
Q 43.84375 -1.421875 31.78125 -1.421875 
Q 19.734375 -1.421875 13.25 4.234375 
Q 6.78125 9.90625 6.78125 20.515625 
Q 6.78125 27.484375 10.78125 32.3125 
Q 14.796875 37.15625 21.921875 38.8125 
M 18.3125 54.390625 
Q 18.3125 48.734375 21.84375 45.5625 
Q 25.390625 42.390625 31.78125 42.390625 
Q 38.140625 42.390625 41.71875 45.5625 
Q 45.3125 48.734375 45.3125 54.390625 
Q 45.3125 60.0625 41.71875 63.234375 
Q 38.140625 66.40625 31.78125 66.40625 
Q 25.390625 66.40625 21.84375 63.234375 
Q 18.3125 60.0625 18.3125 54.390625 
" id="DejaVuSans-38"/>
      </defs>
      <g style="fill:#d2d2d2;" transform="translate(41.32875 148.280699)scale(0.13 -0.13)">
       <use xlink:href="#DejaVuSans-38"/>
      </g>
     </g>
    </g>
    <g id="ytick_6">
     <g id="line2d_9">
      <g>
       <use style="fill:#d2d2d2;stroke:#d2d2d2;" x="57.6" xlink:href="#m561b8e1845" y="114.377143"/>
      </g>
     </g>
     <g id="text_9">
      <!-- 10 -->
      <g style="fill:#d2d2d2;" transform="translate(33.0575 119.316127)scale(0.13 -0.13)">
       <use xlink:href="#DejaVuSans-31"/>
       <use x="63.623047" xlink:href="#DejaVuSans-30"/>
      </g>
     </g>
    </g>
    <g id="ytick_7">
     <g id="line2d_10">
      <g>
       <use style="fill:#d2d2d2;stroke:#d2d2d2;" x="57.6" xlink:href="#m561b8e1845" y="85.412571"/>
      </g>
     </g>
     <g id="text_10">
      <!-- 12 -->
      <g style="fill:#d2d2d2;" transform="translate(33.0575 90.351556)scale(0.13 -0.13)">
       <use xlink:href="#DejaVuSans-31"/>
       <use x="63.623047" xlink:href="#DejaVuSans-32"/>
      </g>
     </g>
    </g>
    <g id="ytick_8">
     <g id="line2d_11">
      <g>
       <use style="fill:#d2d2d2;stroke:#d2d2d2;" x="57.6" xlink:href="#m561b8e1845" y="56.448"/>
      </g>
     </g>
     <g id="text_11">
      <!-- 14 -->
      <g style="fill:#d2d2d2;" transform="translate(33.0575 61.386984)scale(0.13 -0.13)">
       <use xlink:href="#DejaVuSans-31"/>
       <use x="63.623047" xlink:href="#DejaVuSans-34"/>
      </g>
     </g>
    </g>
    <g id="ytick_9">
     <g id="line2d_12">
      <g>
       <use style="fill:#d2d2d2;stroke:#d2d2d2;" x="57.6" xlink:href="#m561b8e1845" y="27.483429"/>
      </g>
     </g>
     <g id="text_12">
      <!-- 16 -->
      <g style="fill:#d2d2d2;" transform="translate(33.0575 32.422413)scale(0.13 -0.13)">
       <use xlink:href="#DejaVuSans-31"/>
       <use x="63.623047" xlink:href="#DejaVuSans-36"/>
      </g>
     </g>
    </g>
    <g id="text_13">
     <!-- Value -->
     <defs>
      <path d="M 28.609375 0 
L 0.78125 72.90625 
L 11.078125 72.90625 
L 34.1875 11.53125 
L 57.328125 72.90625 
L 67.578125 72.90625 
L 39.796875 0 
z
" id="DejaVuSans-56"/>
      <path d="M 34.28125 27.484375 
Q 23.390625 27.484375 19.1875 25 
Q 14.984375 22.515625 14.984375 16.5 
Q 14.984375 11.71875 18.140625 8.90625 
Q 21.296875 6.109375 26.703125 6.109375 
Q 34.1875 6.109375 38.703125 11.40625 
Q 43.21875 16.703125 43.21875 25.484375 
L 43.21875 27.484375 
z
M 52.203125 31.203125 
L 52.203125 0 
L 43.21875 0 
L 43.21875 8.296875 
Q 40.140625 3.328125 35.546875 0.953125 
Q 30.953125 -1.421875 24.3125 -1.421875 
Q 15.921875 -1.421875 10.953125 3.296875 
Q 6 8.015625 6 15.921875 
Q 6 25.140625 12.171875 29.828125 
Q 18.359375 34.515625 30.609375 34.515625 
L 43.21875 34.515625 
L 43.21875 35.40625 
Q 43.21875 41.609375 39.140625 45 
Q 35.0625 48.390625 27.6875 48.390625 
Q 23 48.390625 18.546875 47.265625 
Q 14.109375 46.140625 10.015625 43.890625 
L 10.015625 52.203125 
Q 14.9375 54.109375 19.578125 55.046875 
Q 24.21875 56 28.609375 56 
Q 40.484375 56 46.34375 49.84375 
Q 52.203125 43.703125 52.203125 31.203125 
" id="DejaVuSans-61"/>
      <path d="M 9.421875 75.984375 
L 18.40625 75.984375 
L 18.40625 0 
L 9.421875 0 
z
" id="DejaVuSans-6c"/>
      <path d="M 8.5 21.578125 
L 8.5 54.6875 
L 17.484375 54.6875 
L 17.484375 21.921875 
Q 17.484375 14.15625 20.5 10.265625 
Q 23.53125 6.390625 29.59375 6.390625 
Q 36.859375 6.390625 41.078125 11.03125 
Q 45.3125 15.671875 45.3125 23.6875 
L 45.3125 54.6875 
L 54.296875 54.6875 
L 54.296875 0 
L 45.3125 0 
L 45.3125 8.40625 
Q 42.046875 3.421875 37.71875 1 
Q 33.40625 -1.421875 27.6875 -1.421875 
Q 18.265625 -1.421875 13.375 4.4375 
Q 8.5 10.296875 8.5 21.578125 
M 31.109375 56 
z
" id="DejaVuSans-75"/>
      <path d="M 56.203125 29.59375 
L 56.203125 25.203125 
L 14.890625 25.203125 
Q 15.484375 15.921875 20.484375 11.0625 
Q 25.484375 6.203125 34.421875 6.203125 
Q 39.59375 6.203125 44.453125 7.46875 
Q 49.3125 8.734375 54.109375 11.28125 
L 54.109375 2.78125 
Q 49.265625 0.734375 44.1875 -0.34375 
Q 39.109375 -1.421875 33.890625 -1.421875 
Q 20.796875 -1.421875 13.15625 6.1875 
Q 5.515625 13.8125 5.515625 26.8125 
Q 5.515625 40.234375 12.765625 48.109375 
Q 20.015625 56 32.328125 56 
Q 43.359375 56 49.78125 48.890625 
Q 56.203125 41.796875 56.203125 29.59375 
M 47.21875 32.234375 
Q 47.125 39.59375 43.09375 43.984375 
Q 39.0625 48.390625 32.421875 48.390625 
Q 24.90625 48.390625 20.390625 44.140625 
Q 15.875 39.890625 15.1875 32.171875 
z
" id="DejaVuSans-65"/>
     </defs>
     <g style="fill:#d2d2d2;" transform="translate(25.73 155.06125)rotate(-90)scale(0.16 -0.16)">
      <use xlink:href="#DejaVuSans-56"/>
      <use x="68.298828" xlink:href="#DejaVuSans-61"/>
      <use x="129.578125" xlink:href="#DejaVuSans-6c"/>
      <use x="157.361328" xlink:href="#DejaVuSans-75"/>
      <use x="220.740234" xlink:href="#DejaVuSans-65"/>
     </g>
    </g>
   </g>
   <g id="line2d_13">
    <defs>
     <path d="M 0 6 
C 1.591219 6 3.117479 5.367802 4.242641 4.242641 
C 5.367802 3.117479 6 1.591219 6 0 
C 6 -1.591219 5.367802 -3.117479 4.242641 -4.242641 
C 3.117479 -5.367802 1.591219 -6 0 -6 
C -1.591219 -6 -3.117479 -5.367802 -4.242641 -4.242641 
C -5.367802 -3.117479 -6 -1.591219 -6 0 
C -6 1.591219 -5.367802 3.117479 -4.242641 4.242641 
C -3.117479 5.367802 -1.591219 6 0 6 
z
" id="m1ed3dd7511" style="stroke:#636c72;"/>
    </defs>
    <g clip-path="url(#p013f30a744)">
     <use style="fill:none;stroke:#636c72;" x="99.894445" xlink:href="#m1ed3dd7511" y="104.822877"/>
     <use style="fill:none;stroke:#636c72;" x="87.478676" xlink:href="#m1ed3dd7511" y="119.061899"/>
     <use style="fill:none;stroke:#636c72;" x="104.607603" xlink:href="#m1ed3dd7511" y="120.058316"/>
     <use style="fill:none;stroke:#636c72;" x="93.780662" xlink:href="#m1ed3dd7511" y="130.100055"/>
     <use style="fill:none;stroke:#636c72;" x="99.308623" xlink:href="#m1ed3dd7511" y="118.868099"/>
     <use style="fill:none;stroke:#636c72;" x="109.52768" xlink:href="#m1ed3dd7511" y="121.457138"/>
     <use style="fill:none;stroke:#636c72;" x="102.408833" xlink:href="#m1ed3dd7511" y="98.661753"/>
     <use style="fill:none;stroke:#636c72;" x="104.917376" xlink:href="#m1ed3dd7511" y="128.819051"/>
     <use style="fill:none;stroke:#636c72;" x="101.056874" xlink:href="#m1ed3dd7511" y="91.692706"/>
     <use style="fill:none;stroke:#636c72;" x="110.509449" xlink:href="#m1ed3dd7511" y="121.905864"/>
     <use style="fill:none;stroke:#636c72;" x="88.104096" xlink:href="#m1ed3dd7511" y="105.405666"/>
     <use style="fill:none;stroke:#636c72;" x="109.497164" xlink:href="#m1ed3dd7511" y="111.596336"/>
     <use style="fill:none;stroke:#636c72;" x="91.399966" xlink:href="#m1ed3dd7511" y="99.176062"/>
     <use style="fill:none;stroke:#636c72;" x="110.365824" xlink:href="#m1ed3dd7511" y="120.304817"/>
    </g>
   </g>
   <g id="line2d_14">
    <defs>
     <path d="M 25 0 
L -25 -0 
" id="m05d81b7726" style="stroke:#d2d2d2;stroke-width:3;"/>
    </defs>
    <g clip-path="url(#p013f30a744)">
     <use style="fill:#d2d2d2;stroke:#d2d2d2;stroke-width:3;" x="104.556522" xlink:href="#m05d81b7726" y="114.377143"/>
    </g>
   </g>
   <g id="line2d_15">
    <g clip-path="url(#p013f30a744)">
     <use style="fill:none;stroke:#636c72;" x="194.338991" xlink:href="#m1ed3dd7511" y="100.459117"/>
     <use style="fill:none;stroke:#636c72;" x="200.773016" xlink:href="#m1ed3dd7511" y="89.841131"/>
     <use style="fill:none;stroke:#636c72;" x="197.152929" xlink:href="#m1ed3dd7511" y="82.253514"/>
     <use style="fill:none;stroke:#636c72;" x="208.363858" xlink:href="#m1ed3dd7511" y="82.050272"/>
     <use style="fill:none;stroke:#636c72;" x="185.645088" xlink:href="#m1ed3dd7511" y="85.140353"/>
     <use style="fill:none;stroke:#636c72;" x="190.194655" xlink:href="#m1ed3dd7511" y="84.971639"/>
     <use style="fill:none;stroke:#636c72;" x="191.387921" xlink:href="#m1ed3dd7511" y="80.869208"/>
     <use style="fill:none;stroke:#636c72;" x="214.30825" xlink:href="#m1ed3dd7511" y="71.136161"/>
     <use style="fill:none;stroke:#636c72;" x="201.707295" xlink:href="#m1ed3dd7511" y="90.727534"/>
     <use style="fill:none;stroke:#636c72;" x="203.517321" xlink:href="#m1ed3dd7511" y="67.91723"/>
     <use style="fill:none;stroke:#636c72;" x="185.822608" xlink:href="#m1ed3dd7511" y="85.650954"/>
     <use style="fill:none;stroke:#636c72;" x="203.800075" xlink:href="#m1ed3dd7511" y="95.742988"/>
     <use style="fill:none;stroke:#636c72;" x="214.191207" xlink:href="#m1ed3dd7511" y="80.431909"/>
     <use style="fill:none;stroke:#636c72;" x="202.446681" xlink:href="#m1ed3dd7511" y="91.63464"/>
    </g>
   </g>
   <g id="line2d_16">
    <g clip-path="url(#p013f30a744)">
     <use style="fill:#d2d2d2;stroke:#d2d2d2;stroke-width:3;" x="198.469565" xlink:href="#m05d81b7726" y="85.412571"/>
    </g>
   </g>
   <g id="line2d_17">
    <g clip-path="url(#p013f30a744)">
     <use style="fill:none;stroke:#636c72;" x="291.871536" xlink:href="#m1ed3dd7511" y="141.356809"/>
     <use style="fill:none;stroke:#636c72;" x="291.561593" xlink:href="#m1ed3dd7511" y="141.387822"/>
     <use style="fill:none;stroke:#636c72;" x="277.617854" xlink:href="#m1ed3dd7511" y="124.789524"/>
     <use style="fill:none;stroke:#636c72;" x="291.157739" xlink:href="#m1ed3dd7511" y="126.858606"/>
     <use style="fill:none;stroke:#636c72;" x="289.221753" xlink:href="#m1ed3dd7511" y="111.815616"/>
     <use style="fill:none;stroke:#636c72;" x="294.834036" xlink:href="#m1ed3dd7511" y="136.844931"/>
     <use style="fill:none;stroke:#636c72;" x="280.244066" xlink:href="#m1ed3dd7511" y="129.005599"/>
     <use style="fill:none;stroke:#636c72;" x="286.171522" xlink:href="#m1ed3dd7511" y="143.679226"/>
     <use style="fill:none;stroke:#636c72;" x="289.041551" xlink:href="#m1ed3dd7511" y="149.270024"/>
     <use style="fill:none;stroke:#636c72;" x="293.921455" xlink:href="#m1ed3dd7511" y="123.008793"/>
     <use style="fill:none;stroke:#636c72;" x="307.135947" xlink:href="#m1ed3dd7511" y="112.866384"/>
     <use style="fill:none;stroke:#636c72;" x="296.4329" xlink:href="#m1ed3dd7511" y="153.187207"/>
     <use style="fill:none;stroke:#636c72;" x="310.301787" xlink:href="#m1ed3dd7511" y="130.590733"/>
     <use style="fill:none;stroke:#636c72;" x="292.921592" xlink:href="#m1ed3dd7511" y="129.832627"/>
    </g>
   </g>
   <g id="line2d_18">
    <g clip-path="url(#p013f30a744)">
     <use style="fill:#d2d2d2;stroke:#d2d2d2;stroke-width:3;" x="292.382609" xlink:href="#m05d81b7726" y="128.859429"/>
    </g>
   </g>
   <g id="patch_3">
    <path d="M 57.6 259.2 
L 57.6 5.76 
" style="fill:none;stroke:#d2d2d2;stroke-linecap:square;stroke-linejoin:miter;"/>
   </g>
   <g id="patch_4">
    <path d="M 57.6 259.2 
L 339.33913 259.2 
" style="fill:none;stroke:#d2d2d2;stroke-linecap:square;stroke-linejoin:miter;"/>
   </g>
  </g>
  <g id="axes_2">
   <g id="patch_5">
    <path d="M 423.86087 259.2 
L 705.6 259.2 
L 705.6 5.76 
L 423.86087 5.76 
z
" style="fill:none;"/>
   </g>
   <g id="matplotlib.axis_3">
    <g id="xtick_4">
     <g id="line2d_19">
      <g>
       <use style="fill:#d2d2d2;stroke:#d2d2d2;" x="470.817391" xlink:href="#mc3d1514b1f" y="259.2"/>
      </g>
     </g>
     <g id="text_14">
      <!-- Grp 1 -->
      <g style="fill:#d2d2d2;" transform="translate(450.006063 278.597656)scale(0.15 -0.15)">
       <use xlink:href="#DejaVuSans-47"/>
       <use x="77.490234" xlink:href="#DejaVuSans-72"/>
       <use x="118.603516" xlink:href="#DejaVuSans-70"/>
       <use x="182.080078" xlink:href="#DejaVuSans-20"/>
       <use x="213.867188" xlink:href="#DejaVuSans-31"/>
      </g>
     </g>
    </g>
    <g id="xtick_5">
     <g id="line2d_20">
      <g>
       <use style="fill:#d2d2d2;stroke:#d2d2d2;" x="564.730435" xlink:href="#mc3d1514b1f" y="259.2"/>
      </g>
     </g>
     <g id="text_15">
      <!-- Grp 2 -->
      <g style="fill:#d2d2d2;" transform="translate(543.919107 278.597656)scale(0.15 -0.15)">
       <use xlink:href="#DejaVuSans-47"/>
       <use x="77.490234" xlink:href="#DejaVuSans-72"/>
       <use x="118.603516" xlink:href="#DejaVuSans-70"/>
       <use x="182.080078" xlink:href="#DejaVuSans-20"/>
       <use x="213.867188" xlink:href="#DejaVuSans-32"/>
      </g>
     </g>
    </g>
    <g id="xtick_6">
     <g id="line2d_21">
      <g>
       <use style="fill:#d2d2d2;stroke:#d2d2d2;" x="658.643478" xlink:href="#mc3d1514b1f" y="259.2"/>
      </g>
     </g>
     <g id="text_16">
      <!-- Grp 3 -->
      <g style="fill:#d2d2d2;" transform="translate(637.83215 278.597656)scale(0.15 -0.15)">
       <use xlink:href="#DejaVuSans-47"/>
       <use x="77.490234" xlink:href="#DejaVuSans-72"/>
       <use x="118.603516" xlink:href="#DejaVuSans-70"/>
       <use x="182.080078" xlink:href="#DejaVuSans-20"/>
       <use x="213.867188" xlink:href="#DejaVuSans-33"/>
      </g>
     </g>
    </g>
   </g>
   <g id="matplotlib.axis_4">
    <g id="ytick_10">
     <g id="line2d_22">
      <g>
       <use style="fill:#d2d2d2;stroke:#d2d2d2;" x="423.86087" xlink:href="#m561b8e1845" y="259.2"/>
      </g>
     </g>
     <g id="text_17">
      <!-- 0 -->
      <g style="fill:#d2d2d2;" transform="translate(407.58962 264.138984)scale(0.13 -0.13)">
       <use xlink:href="#DejaVuSans-30"/>
      </g>
     </g>
    </g>
    <g id="ytick_11">
     <g id="line2d_23">
      <g>
       <use style="fill:#d2d2d2;stroke:#d2d2d2;" x="423.86087" xlink:href="#m561b8e1845" y="230.235429"/>
      </g>
     </g>
     <g id="text_18">
      <!-- 2 -->
      <g style="fill:#d2d2d2;" transform="translate(407.58962 235.174413)scale(0.13 -0.13)">
       <use xlink:href="#DejaVuSans-32"/>
      </g>
     </g>
    </g>
    <g id="ytick_12">
     <g id="line2d_24">
      <g>
       <use style="fill:#d2d2d2;stroke:#d2d2d2;" x="423.86087" xlink:href="#m561b8e1845" y="201.270857"/>
      </g>
     </g>
     <g id="text_19">
      <!-- 4 -->
      <g style="fill:#d2d2d2;" transform="translate(407.58962 206.209842)scale(0.13 -0.13)">
       <use xlink:href="#DejaVuSans-34"/>
      </g>
     </g>
    </g>
    <g id="ytick_13">
     <g id="line2d_25">
      <g>
       <use style="fill:#d2d2d2;stroke:#d2d2d2;" x="423.86087" xlink:href="#m561b8e1845" y="172.306286"/>
      </g>
     </g>
     <g id="text_20">
      <!-- 6 -->
      <g style="fill:#d2d2d2;" transform="translate(407.58962 177.24527)scale(0.13 -0.13)">
       <use xlink:href="#DejaVuSans-36"/>
      </g>
     </g>
    </g>
    <g id="ytick_14">
     <g id="line2d_26">
      <g>
       <use style="fill:#d2d2d2;stroke:#d2d2d2;" x="423.86087" xlink:href="#m561b8e1845" y="143.341714"/>
      </g>
     </g>
     <g id="text_21">
      <!-- 8 -->
      <g style="fill:#d2d2d2;" transform="translate(407.58962 148.280699)scale(0.13 -0.13)">
       <use xlink:href="#DejaVuSans-38"/>
      </g>
     </g>
    </g>
    <g id="ytick_15">
     <g id="line2d_27">
      <g>
       <use style="fill:#d2d2d2;stroke:#d2d2d2;" x="423.86087" xlink:href="#m561b8e1845" y="114.377143"/>
      </g>
     </g>
     <g id="text_22">
      <!-- 10 -->
      <g style="fill:#d2d2d2;" transform="translate(399.31837 119.316127)scale(0.13 -0.13)">
       <use xlink:href="#DejaVuSans-31"/>
       <use x="63.623047" xlink:href="#DejaVuSans-30"/>
      </g>
     </g>
    </g>
    <g id="ytick_16">
     <g id="line2d_28">
      <g>
       <use style="fill:#d2d2d2;stroke:#d2d2d2;" x="423.86087" xlink:href="#m561b8e1845" y="85.412571"/>
      </g>
     </g>
     <g id="text_23">
      <!-- 12 -->
      <g style="fill:#d2d2d2;" transform="translate(399.31837 90.351556)scale(0.13 -0.13)">
       <use xlink:href="#DejaVuSans-31"/>
       <use x="63.623047" xlink:href="#DejaVuSans-32"/>
      </g>
     </g>
    </g>
    <g id="ytick_17">
     <g id="line2d_29">
      <g>
       <use style="fill:#d2d2d2;stroke:#d2d2d2;" x="423.86087" xlink:href="#m561b8e1845" y="56.448"/>
      </g>
     </g>
     <g id="text_24">
      <!-- 14 -->
      <g style="fill:#d2d2d2;" transform="translate(399.31837 61.386984)scale(0.13 -0.13)">
       <use xlink:href="#DejaVuSans-31"/>
       <use x="63.623047" xlink:href="#DejaVuSans-34"/>
      </g>
     </g>
    </g>
    <g id="ytick_18">
     <g id="line2d_30">
      <g>
       <use style="fill:#d2d2d2;stroke:#d2d2d2;" x="423.86087" xlink:href="#m561b8e1845" y="27.483429"/>
      </g>
     </g>
     <g id="text_25">
      <!-- 16 -->
      <g style="fill:#d2d2d2;" transform="translate(399.31837 32.422413)scale(0.13 -0.13)">
       <use xlink:href="#DejaVuSans-31"/>
       <use x="63.623047" xlink:href="#DejaVuSans-36"/>
      </g>
     </g>
    </g>
    <g id="text_26">
     <!-- Value -->
     <g style="fill:#d2d2d2;" transform="translate(391.99087 155.06125)rotate(-90)scale(0.16 -0.16)">
      <use xlink:href="#DejaVuSans-56"/>
      <use x="68.298828" xlink:href="#DejaVuSans-61"/>
      <use x="129.578125" xlink:href="#DejaVuSans-6c"/>
      <use x="157.361328" xlink:href="#DejaVuSans-75"/>
      <use x="220.740234" xlink:href="#DejaVuSans-65"/>
     </g>
    </g>
   </g>
   <g id="line2d_31">
    <g clip-path="url(#p9eaa733817)">
     <use style="fill:none;stroke:#636c72;" x="462.593746" xlink:href="#m1ed3dd7511" y="70.595875"/>
     <use style="fill:none;stroke:#636c72;" x="467.788042" xlink:href="#m1ed3dd7511" y="110.935663"/>
     <use style="fill:none;stroke:#636c72;" x="471.97679" xlink:href="#m1ed3dd7511" y="156.515854"/>
     <use style="fill:none;stroke:#636c72;" x="465.572189" xlink:href="#m1ed3dd7511" y="126.401047"/>
     <use style="fill:none;stroke:#636c72;" x="468.463552" xlink:href="#m1ed3dd7511" y="103.152731"/>
     <use style="fill:none;stroke:#636c72;" x="460.224923" xlink:href="#m1ed3dd7511" y="140.009654"/>
     <use style="fill:none;stroke:#636c72;" x="480.129718" xlink:href="#m1ed3dd7511" y="98.292046"/>
     <use style="fill:none;stroke:#636c72;" x="474.693141" xlink:href="#m1ed3dd7511" y="130.34598"/>
     <use style="fill:none;stroke:#636c72;" x="469.209596" xlink:href="#m1ed3dd7511" y="76.185587"/>
     <use style="fill:none;stroke:#636c72;" x="461.925871" xlink:href="#m1ed3dd7511" y="84.086714"/>
     <use style="fill:none;stroke:#636c72;" x="480.300172" xlink:href="#m1ed3dd7511" y="108.650146"/>
     <use style="fill:none;stroke:#636c72;" x="468.430954" xlink:href="#m1ed3dd7511" y="72.014687"/>
     <use style="fill:none;stroke:#636c72;" x="473.11611" xlink:href="#m1ed3dd7511" y="86.751521"/>
     <use style="fill:none;stroke:#636c72;" x="469.264232" xlink:href="#m1ed3dd7511" y="157.47965"/>
    </g>
   </g>
   <g id="line2d_32">
    <g clip-path="url(#p9eaa733817)">
     <use style="fill:#d2d2d2;stroke:#d2d2d2;stroke-width:3;" x="470.817391" xlink:href="#m05d81b7726" y="114.377143"/>
    </g>
   </g>
   <g id="line2d_33">
    <g clip-path="url(#p9eaa733817)">
     <use style="fill:none;stroke:#636c72;" x="567.690353" xlink:href="#m1ed3dd7511" y="95.536747"/>
     <use style="fill:none;stroke:#636c72;" x="555.130684" xlink:href="#m1ed3dd7511" y="82.889182"/>
     <use style="fill:none;stroke:#636c72;" x="571.921759" xlink:href="#m1ed3dd7511" y="25.353067"/>
     <use style="fill:none;stroke:#636c72;" x="558.545148" xlink:href="#m1ed3dd7511" y="77.740703"/>
     <use style="fill:none;stroke:#636c72;" x="572.596534" xlink:href="#m1ed3dd7511" y="165.548231"/>
     <use style="fill:none;stroke:#636c72;" x="552.611191" xlink:href="#m1ed3dd7511" y="90.457805"/>
     <use style="fill:none;stroke:#636c72;" x="573.423662" xlink:href="#m1ed3dd7511" y="147.020325"/>
     <use style="fill:none;stroke:#636c72;" x="548.284771" xlink:href="#m1ed3dd7511" y="33.811917"/>
     <use style="fill:none;stroke:#636c72;" x="555.518319" xlink:href="#m1ed3dd7511" y="121.046274"/>
     <use style="fill:none;stroke:#636c72;" x="562.988426" xlink:href="#m1ed3dd7511" y="151.564164"/>
     <use style="fill:none;stroke:#636c72;" x="564.616761" xlink:href="#m1ed3dd7511" y="80.689192"/>
     <use style="fill:none;stroke:#636c72;" x="555.011723" xlink:href="#m1ed3dd7511" y="60.073238"/>
     <use style="fill:none;stroke:#636c72;" x="553.056329" xlink:href="#m1ed3dd7511" y="13.733588"/>
     <use style="fill:none;stroke:#636c72;" x="566.296108" xlink:href="#m1ed3dd7511" y="62.121916"/>
    </g>
   </g>
   <g id="line2d_34">
    <g clip-path="url(#p9eaa733817)">
     <use style="fill:#d2d2d2;stroke:#d2d2d2;stroke-width:3;" x="564.730435" xlink:href="#m05d81b7726" y="85.412571"/>
    </g>
   </g>
   <g id="line2d_35">
    <g clip-path="url(#p9eaa733817)">
     <use style="fill:none;stroke:#636c72;" x="664.616333" xlink:href="#m1ed3dd7511" y="159.11288"/>
     <use style="fill:none;stroke:#636c72;" x="672.226479" xlink:href="#m1ed3dd7511" y="130.359297"/>
     <use style="fill:none;stroke:#636c72;" x="659.651721" xlink:href="#m1ed3dd7511" y="204.633683"/>
     <use style="fill:none;stroke:#636c72;" x="659.161056" xlink:href="#m1ed3dd7511" y="164.216448"/>
     <use style="fill:none;stroke:#636c72;" x="660.601163" xlink:href="#m1ed3dd7511" y="162.63155"/>
     <use style="fill:none;stroke:#636c72;" x="644.110046" xlink:href="#m1ed3dd7511" y="69.652828"/>
     <use style="fill:none;stroke:#636c72;" x="668.741828" xlink:href="#m1ed3dd7511" y="127.918726"/>
     <use style="fill:none;stroke:#636c72;" x="672.816052" xlink:href="#m1ed3dd7511" y="183.338174"/>
     <use style="fill:none;stroke:#636c72;" x="658.873402" xlink:href="#m1ed3dd7511" y="168.749993"/>
     <use style="fill:none;stroke:#636c72;" x="656.604585" xlink:href="#m1ed3dd7511" y="120.05051"/>
     <use style="fill:none;stroke:#636c72;" x="676.49866" xlink:href="#m1ed3dd7511" y="100.110875"/>
     <use style="fill:none;stroke:#636c72;" x="664.493662" xlink:href="#m1ed3dd7511" y="114.128685"/>
     <use style="fill:none;stroke:#636c72;" x="645.802682" xlink:href="#m1ed3dd7511" y="152.243769"/>
     <use style="fill:none;stroke:#636c72;" x="677.256269" xlink:href="#m1ed3dd7511" y="88.227608"/>
    </g>
   </g>
   <g id="line2d_36">
    <g clip-path="url(#p9eaa733817)">
     <use style="fill:#d2d2d2;stroke:#d2d2d2;stroke-width:3;" x="658.643478" xlink:href="#m05d81b7726" y="128.859429"/>
    </g>
   </g>
   <g id="patch_6">
    <path d="M 423.86087 259.2 
L 423.86087 5.76 
" style="fill:none;stroke:#d2d2d2;stroke-linecap:square;stroke-linejoin:miter;"/>
   </g>
   <g id="patch_7">
    <path d="M 423.86087 259.2 
L 705.6 259.2 
" style="fill:none;stroke:#d2d2d2;stroke-linecap:square;stroke-linejoin:miter;"/>
   </g>
  </g>
  <g id="axes_3">
   <g id="line2d_37">
    <path clip-path="url(#p013f30a744)" d="M 128.034783 114.377143 
L 333.704348 114.377143 
" style="fill:none;stroke:#636c72;stroke-dasharray:5.6,2.4;stroke-dashoffset:0;stroke-width:1.5;"/>
   </g>
   <g id="line2d_38">
    <path clip-path="url(#p013f30a744)" d="M 150.573913 85.412571 
L 249.182609 85.412571 
" style="fill:none;stroke:#636c72;stroke-dasharray:5.6,2.4;stroke-dashoffset:0;stroke-width:1.5;"/>
   </g>
   <g id="line2d_39">
    <path clip-path="url(#p013f30a744)" d="M 246.365217 128.859429 
L 333.704348 128.859429 
" style="fill:none;stroke:#636c72;stroke-dasharray:5.6,2.4;stroke-dashoffset:0;stroke-width:1.5;"/>
   </g>
   <g id="text_27">
    <!-- Variability between groups -->
    <defs>
     <path d="M 9.421875 54.6875 
L 18.40625 54.6875 
L 18.40625 0 
L 9.421875 0 
z
M 9.421875 75.984375 
L 18.40625 75.984375 
L 18.40625 64.59375 
L 9.421875 64.59375 
z
" id="DejaVuSans-69"/>
     <path d="M 48.6875 27.296875 
Q 48.6875 37.203125 44.609375 42.84375 
Q 40.53125 48.484375 33.40625 48.484375 
Q 26.265625 48.484375 22.1875 42.84375 
Q 18.109375 37.203125 18.109375 27.296875 
Q 18.109375 17.390625 22.1875 11.75 
Q 26.265625 6.109375 33.40625 6.109375 
Q 40.53125 6.109375 44.609375 11.75 
Q 48.6875 17.390625 48.6875 27.296875 
M 18.109375 46.390625 
Q 20.953125 51.265625 25.265625 53.625 
Q 29.59375 56 35.59375 56 
Q 45.5625 56 51.78125 48.09375 
Q 58.015625 40.1875 58.015625 27.296875 
Q 58.015625 14.40625 51.78125 6.484375 
Q 45.5625 -1.421875 35.59375 -1.421875 
Q 29.59375 -1.421875 25.265625 0.953125 
Q 20.953125 3.328125 18.109375 8.203125 
L 18.109375 0 
L 9.078125 0 
L 9.078125 75.984375 
L 18.109375 75.984375 
z
" id="DejaVuSans-62"/>
     <path d="M 18.3125 70.21875 
L 18.3125 54.6875 
L 36.8125 54.6875 
L 36.8125 47.703125 
L 18.3125 47.703125 
L 18.3125 18.015625 
Q 18.3125 11.328125 20.140625 9.421875 
Q 21.96875 7.515625 27.59375 7.515625 
L 36.8125 7.515625 
L 36.8125 0 
L 27.59375 0 
Q 17.1875 0 13.234375 3.875 
Q 9.28125 7.765625 9.28125 18.015625 
L 9.28125 47.703125 
L 2.6875 47.703125 
L 2.6875 54.6875 
L 9.28125 54.6875 
L 9.28125 70.21875 
z
" id="DejaVuSans-74"/>
     <path d="M 32.171875 -5.078125 
Q 28.375 -14.84375 24.75 -17.8125 
Q 21.140625 -20.796875 15.09375 -20.796875 
L 7.90625 -20.796875 
L 7.90625 -13.28125 
L 13.1875 -13.28125 
Q 16.890625 -13.28125 18.9375 -11.515625 
Q 21 -9.765625 23.484375 -3.21875 
L 25.09375 0.875 
L 2.984375 54.6875 
L 12.5 54.6875 
L 29.59375 11.921875 
L 46.6875 54.6875 
L 56.203125 54.6875 
z
" id="DejaVuSans-79"/>
     <path d="M 4.203125 54.6875 
L 13.1875 54.6875 
L 24.421875 12.015625 
L 35.59375 54.6875 
L 46.1875 54.6875 
L 57.421875 12.015625 
L 68.609375 54.6875 
L 77.59375 54.6875 
L 63.28125 0 
L 52.6875 0 
L 40.921875 44.828125 
L 29.109375 0 
L 18.5 0 
z
" id="DejaVuSans-77"/>
     <path d="M 54.890625 33.015625 
L 54.890625 0 
L 45.90625 0 
L 45.90625 32.71875 
Q 45.90625 40.484375 42.875 44.328125 
Q 39.84375 48.1875 33.796875 48.1875 
Q 26.515625 48.1875 22.3125 43.546875 
Q 18.109375 38.921875 18.109375 30.90625 
L 18.109375 0 
L 9.078125 0 
L 9.078125 54.6875 
L 18.109375 54.6875 
L 18.109375 46.1875 
Q 21.34375 51.125 25.703125 53.5625 
Q 30.078125 56 35.796875 56 
Q 45.21875 56 50.046875 50.171875 
Q 54.890625 44.34375 54.890625 33.015625 
" id="DejaVuSans-6e"/>
     <path d="M 45.40625 27.984375 
Q 45.40625 37.75 41.375 43.109375 
Q 37.359375 48.484375 30.078125 48.484375 
Q 22.859375 48.484375 18.828125 43.109375 
Q 14.796875 37.75 14.796875 27.984375 
Q 14.796875 18.265625 18.828125 12.890625 
Q 22.859375 7.515625 30.078125 7.515625 
Q 37.359375 7.515625 41.375 12.890625 
Q 45.40625 18.265625 45.40625 27.984375 
M 54.390625 6.78125 
Q 54.390625 -7.171875 48.1875 -13.984375 
Q 42 -20.796875 29.203125 -20.796875 
Q 24.46875 -20.796875 20.265625 -20.09375 
Q 16.0625 -19.390625 12.109375 -17.921875 
L 12.109375 -9.1875 
Q 16.0625 -11.328125 19.921875 -12.34375 
Q 23.78125 -13.375 27.78125 -13.375 
Q 36.625 -13.375 41.015625 -8.765625 
Q 45.40625 -4.15625 45.40625 5.171875 
L 45.40625 9.625 
Q 42.625 4.78125 38.28125 2.390625 
Q 33.9375 0 27.875 0 
Q 17.828125 0 11.671875 7.65625 
Q 5.515625 15.328125 5.515625 27.984375 
Q 5.515625 40.671875 11.671875 48.328125 
Q 17.828125 56 27.875 56 
Q 33.9375 56 38.28125 53.609375 
Q 42.625 51.21875 45.40625 46.390625 
L 45.40625 54.6875 
L 54.390625 54.6875 
z
" id="DejaVuSans-67"/>
     <path d="M 30.609375 48.390625 
Q 23.390625 48.390625 19.1875 42.75 
Q 14.984375 37.109375 14.984375 27.296875 
Q 14.984375 17.484375 19.15625 11.84375 
Q 23.34375 6.203125 30.609375 6.203125 
Q 37.796875 6.203125 41.984375 11.859375 
Q 46.1875 17.53125 46.1875 27.296875 
Q 46.1875 37.015625 41.984375 42.703125 
Q 37.796875 48.390625 30.609375 48.390625 
M 30.609375 56 
Q 42.328125 56 49.015625 48.375 
Q 55.71875 40.765625 55.71875 27.296875 
Q 55.71875 13.875 49.015625 6.21875 
Q 42.328125 -1.421875 30.609375 -1.421875 
Q 18.84375 -1.421875 12.171875 6.21875 
Q 5.515625 13.875 5.515625 27.296875 
Q 5.515625 40.765625 12.171875 48.375 
Q 18.84375 56 30.609375 56 
" id="DejaVuSans-6f"/>
     <path d="M 44.28125 53.078125 
L 44.28125 44.578125 
Q 40.484375 46.53125 36.375 47.5 
Q 32.28125 48.484375 27.875 48.484375 
Q 21.1875 48.484375 17.84375 46.4375 
Q 14.5 44.390625 14.5 40.28125 
Q 14.5 37.15625 16.890625 35.375 
Q 19.28125 33.59375 26.515625 31.984375 
L 29.59375 31.296875 
Q 39.15625 29.25 43.1875 25.515625 
Q 47.21875 21.78125 47.21875 15.09375 
Q 47.21875 7.46875 41.1875 3.015625 
Q 35.15625 -1.421875 24.609375 -1.421875 
Q 20.21875 -1.421875 15.453125 -0.5625 
Q 10.6875 0.296875 5.421875 2 
L 5.421875 11.28125 
Q 10.40625 8.6875 15.234375 7.390625 
Q 20.0625 6.109375 24.8125 6.109375 
Q 31.15625 6.109375 34.5625 8.28125 
Q 37.984375 10.453125 37.984375 14.40625 
Q 37.984375 18.0625 35.515625 20.015625 
Q 33.0625 21.96875 24.703125 23.78125 
L 21.578125 24.515625 
Q 13.234375 26.265625 9.515625 29.90625 
Q 5.8125 33.546875 5.8125 39.890625 
Q 5.8125 47.609375 11.28125 51.796875 
Q 16.75 56 26.8125 56 
Q 31.78125 56 36.171875 55.265625 
Q 40.578125 54.546875 44.28125 53.078125 
" id="DejaVuSans-73"/>
    </defs>
    <g style="fill:#f0ad4e;" transform="translate(66.991304 232.581656)scale(0.15 -0.15)">
     <use xlink:href="#DejaVuSans-56"/>
     <use x="68.298828" xlink:href="#DejaVuSans-61"/>
     <use x="129.578125" xlink:href="#DejaVuSans-72"/>
     <use x="170.691406" xlink:href="#DejaVuSans-69"/>
     <use x="198.474609" xlink:href="#DejaVuSans-61"/>
     <use x="259.753906" xlink:href="#DejaVuSans-62"/>
     <use x="323.230469" xlink:href="#DejaVuSans-69"/>
     <use x="351.013672" xlink:href="#DejaVuSans-6c"/>
     <use x="378.796875" xlink:href="#DejaVuSans-69"/>
     <use x="406.580078" xlink:href="#DejaVuSans-74"/>
     <use x="445.789062" xlink:href="#DejaVuSans-79"/>
     <use x="504.96875" xlink:href="#DejaVuSans-20"/>
     <use x="536.755859" xlink:href="#DejaVuSans-62"/>
     <use x="600.232422" xlink:href="#DejaVuSans-65"/>
     <use x="661.755859" xlink:href="#DejaVuSans-74"/>
     <use x="700.964844" xlink:href="#DejaVuSans-77"/>
     <use x="782.751953" xlink:href="#DejaVuSans-65"/>
     <use x="844.275391" xlink:href="#DejaVuSans-65"/>
     <use x="905.798828" xlink:href="#DejaVuSans-6e"/>
     <use x="969.177734" xlink:href="#DejaVuSans-20"/>
     <use x="1000.964844" xlink:href="#DejaVuSans-67"/>
     <use x="1064.441406" xlink:href="#DejaVuSans-72"/>
     <use x="1105.523438" xlink:href="#DejaVuSans-6f"/>
     <use x="1166.705078" xlink:href="#DejaVuSans-75"/>
     <use x="1230.083984" xlink:href="#DejaVuSans-70"/>
     <use x="1293.560547" xlink:href="#DejaVuSans-73"/>
    </g>
   </g>
   <g id="patch_8">
    <path d="M 151.513043 89.646318 
Q 151.513043 99.894618 151.513043 110.142918 
" style="fill:none;stroke:#f0ad4e;stroke-linecap:round;stroke-width:2;"/>
    <path d="M 149.513043 93.646318 
L 151.513043 89.646318 
L 153.513043 93.646318 
" style="fill:none;stroke:#f0ad4e;stroke-linecap:round;stroke-width:2;"/>
    <path d="M 153.513043 106.142918 
L 151.513043 110.142918 
L 149.513043 106.142918 
" style="fill:none;stroke:#f0ad4e;stroke-linecap:round;stroke-width:2;"/>
   </g>
   <g id="patch_9">
    <path d="M 245.426087 124.621262 
Q 245.426087 107.135403 245.426087 89.649543 
" style="fill:none;stroke:#f0ad4e;stroke-linecap:round;stroke-width:2;"/>
    <path d="M 247.426087 120.621262 
L 245.426087 124.621262 
L 243.426087 120.621262 
" style="fill:none;stroke:#f0ad4e;stroke-linecap:round;stroke-width:2;"/>
    <path d="M 243.426087 93.649543 
L 245.426087 89.649543 
L 247.426087 93.649543 
" style="fill:none;stroke:#f0ad4e;stroke-linecap:round;stroke-width:2;"/>
   </g>
   <g id="patch_10">
    <path d="M 329.947826 124.625682 
Q 329.947826 121.620714 329.947826 118.615747 
" style="fill:none;stroke:#f0ad4e;stroke-linecap:round;stroke-width:2;"/>
    <path d="M 331.947826 120.625682 
L 329.947826 124.625682 
L 327.947826 120.625682 
" style="fill:none;stroke:#f0ad4e;stroke-linecap:round;stroke-width:2;"/>
    <path d="M 327.947826 122.615747 
L 329.947826 118.615747 
L 331.947826 122.615747 
" style="fill:none;stroke:#f0ad4e;stroke-linecap:round;stroke-width:2;"/>
   </g>
  </g>
  <g id="axes_4">
   <g id="line2d_40">
    <path clip-path="url(#p9eaa733817)" d="M 494.295652 114.377143 
L 699.965217 114.377143 
" style="fill:none;stroke:#636c72;stroke-dasharray:5.6,2.4;stroke-dashoffset:0;stroke-width:1.5;"/>
   </g>
   <g id="line2d_41">
    <path clip-path="url(#p9eaa733817)" d="M 516.834783 85.412571 
L 615.443478 85.412571 
" style="fill:none;stroke:#636c72;stroke-dasharray:5.6,2.4;stroke-dashoffset:0;stroke-width:1.5;"/>
   </g>
   <g id="line2d_42">
    <path clip-path="url(#p9eaa733817)" d="M 612.626087 128.859429 
L 699.965217 128.859429 
" style="fill:none;stroke:#636c72;stroke-dasharray:5.6,2.4;stroke-dashoffset:0;stroke-width:1.5;"/>
   </g>
   <g id="text_28">
    <!-- Variability between groups -->
    <g style="fill:#f0ad4e;" transform="translate(433.252174 232.581656)scale(0.15 -0.15)">
     <use xlink:href="#DejaVuSans-56"/>
     <use x="68.298828" xlink:href="#DejaVuSans-61"/>
     <use x="129.578125" xlink:href="#DejaVuSans-72"/>
     <use x="170.691406" xlink:href="#DejaVuSans-69"/>
     <use x="198.474609" xlink:href="#DejaVuSans-61"/>
     <use x="259.753906" xlink:href="#DejaVuSans-62"/>
     <use x="323.230469" xlink:href="#DejaVuSans-69"/>
     <use x="351.013672" xlink:href="#DejaVuSans-6c"/>
     <use x="378.796875" xlink:href="#DejaVuSans-69"/>
     <use x="406.580078" xlink:href="#DejaVuSans-74"/>
     <use x="445.789062" xlink:href="#DejaVuSans-79"/>
     <use x="504.96875" xlink:href="#DejaVuSans-20"/>
     <use x="536.755859" xlink:href="#DejaVuSans-62"/>
     <use x="600.232422" xlink:href="#DejaVuSans-65"/>
     <use x="661.755859" xlink:href="#DejaVuSans-74"/>
     <use x="700.964844" xlink:href="#DejaVuSans-77"/>
     <use x="782.751953" xlink:href="#DejaVuSans-65"/>
     <use x="844.275391" xlink:href="#DejaVuSans-65"/>
     <use x="905.798828" xlink:href="#DejaVuSans-6e"/>
     <use x="969.177734" xlink:href="#DejaVuSans-20"/>
     <use x="1000.964844" xlink:href="#DejaVuSans-67"/>
     <use x="1064.441406" xlink:href="#DejaVuSans-72"/>
     <use x="1105.523438" xlink:href="#DejaVuSans-6f"/>
     <use x="1166.705078" xlink:href="#DejaVuSans-75"/>
     <use x="1230.083984" xlink:href="#DejaVuSans-70"/>
     <use x="1293.560547" xlink:href="#DejaVuSans-73"/>
    </g>
   </g>
   <g id="patch_11">
    <path d="M 517.773913 89.646318 
Q 517.773913 99.894618 517.773913 110.142918 
" style="fill:none;stroke:#f0ad4e;stroke-linecap:round;stroke-width:2;"/>
    <path d="M 515.773913 93.646318 
L 517.773913 89.646318 
L 519.773913 93.646318 
" style="fill:none;stroke:#f0ad4e;stroke-linecap:round;stroke-width:2;"/>
    <path d="M 519.773913 106.142918 
L 517.773913 110.142918 
L 515.773913 106.142918 
" style="fill:none;stroke:#f0ad4e;stroke-linecap:round;stroke-width:2;"/>
   </g>
   <g id="patch_12">
    <path d="M 611.686957 124.621262 
Q 611.686957 107.135403 611.686957 89.649543 
" style="fill:none;stroke:#f0ad4e;stroke-linecap:round;stroke-width:2;"/>
    <path d="M 613.686957 120.621262 
L 611.686957 124.621262 
L 609.686957 120.621262 
" style="fill:none;stroke:#f0ad4e;stroke-linecap:round;stroke-width:2;"/>
    <path d="M 609.686957 93.649543 
L 611.686957 89.649543 
L 613.686957 93.649543 
" style="fill:none;stroke:#f0ad4e;stroke-linecap:round;stroke-width:2;"/>
   </g>
   <g id="patch_13">
    <path d="M 696.208696 124.625682 
Q 696.208696 121.620714 696.208696 118.615747 
" style="fill:none;stroke:#f0ad4e;stroke-linecap:round;stroke-width:2;"/>
    <path d="M 698.208696 120.625682 
L 696.208696 124.625682 
L 694.208696 120.625682 
" style="fill:none;stroke:#f0ad4e;stroke-linecap:round;stroke-width:2;"/>
    <path d="M 694.208696 122.615747 
L 696.208696 118.615747 
L 698.208696 122.615747 
" style="fill:none;stroke:#f0ad4e;stroke-linecap:round;stroke-width:2;"/>
   </g>
  </g>
  <g id="axes_5">
   <g id="text_29">
    <!-- Variability within groups -->
    <defs>
     <path d="M 54.890625 33.015625 
L 54.890625 0 
L 45.90625 0 
L 45.90625 32.71875 
Q 45.90625 40.484375 42.875 44.328125 
Q 39.84375 48.1875 33.796875 48.1875 
Q 26.515625 48.1875 22.3125 43.546875 
Q 18.109375 38.921875 18.109375 30.90625 
L 18.109375 0 
L 9.078125 0 
L 9.078125 75.984375 
L 18.109375 75.984375 
L 18.109375 46.1875 
Q 21.34375 51.125 25.703125 53.5625 
Q 30.078125 56 35.796875 56 
Q 45.21875 56 50.046875 50.171875 
Q 54.890625 44.34375 54.890625 33.015625 
" id="DejaVuSans-68"/>
    </defs>
    <g style="fill:#5bc0de;" transform="translate(66.991304 252.856856)scale(0.15 -0.15)">
     <use xlink:href="#DejaVuSans-56"/>
     <use x="68.298828" xlink:href="#DejaVuSans-61"/>
     <use x="129.578125" xlink:href="#DejaVuSans-72"/>
     <use x="170.691406" xlink:href="#DejaVuSans-69"/>
     <use x="198.474609" xlink:href="#DejaVuSans-61"/>
     <use x="259.753906" xlink:href="#DejaVuSans-62"/>
     <use x="323.230469" xlink:href="#DejaVuSans-69"/>
     <use x="351.013672" xlink:href="#DejaVuSans-6c"/>
     <use x="378.796875" xlink:href="#DejaVuSans-69"/>
     <use x="406.580078" xlink:href="#DejaVuSans-74"/>
     <use x="445.789062" xlink:href="#DejaVuSans-79"/>
     <use x="504.96875" xlink:href="#DejaVuSans-20"/>
     <use x="536.755859" xlink:href="#DejaVuSans-77"/>
     <use x="618.542969" xlink:href="#DejaVuSans-69"/>
     <use x="646.326172" xlink:href="#DejaVuSans-74"/>
     <use x="685.535156" xlink:href="#DejaVuSans-68"/>
     <use x="748.914062" xlink:href="#DejaVuSans-69"/>
     <use x="776.697266" xlink:href="#DejaVuSans-6e"/>
     <use x="840.076172" xlink:href="#DejaVuSans-20"/>
     <use x="871.863281" xlink:href="#DejaVuSans-67"/>
     <use x="935.339844" xlink:href="#DejaVuSans-72"/>
     <use x="976.421875" xlink:href="#DejaVuSans-6f"/>
     <use x="1037.603516" xlink:href="#DejaVuSans-75"/>
     <use x="1100.982422" xlink:href="#DejaVuSans-70"/>
     <use x="1164.458984" xlink:href="#DejaVuSans-73"/>
    </g>
   </g>
   <g id="patch_14">
    <path d="M 76.382609 96.89188 
Q 76.382609 114.37774 76.382609 131.8636 
" style="fill:none;stroke:#5bc0de;stroke-linecap:round;stroke-width:2;"/>
    <path d="M 74.382609 100.89188 
L 76.382609 96.89188 
L 78.382609 100.89188 
" style="fill:none;stroke:#5bc0de;stroke-linecap:round;stroke-width:2;"/>
    <path d="M 78.382609 127.8636 
L 76.382609 131.8636 
L 74.382609 127.8636 
" style="fill:none;stroke:#5bc0de;stroke-linecap:round;stroke-width:2;"/>
   </g>
   <g id="patch_15">
    <path d="M 179.686957 67.927309 
Q 179.686957 85.413169 179.686957 102.899028 
" style="fill:none;stroke:#5bc0de;stroke-linecap:round;stroke-width:2;"/>
    <path d="M 177.686957 71.927309 
L 179.686957 67.927309 
L 181.686957 71.927309 
" style="fill:none;stroke:#5bc0de;stroke-linecap:round;stroke-width:2;"/>
    <path d="M 181.686957 98.899028 
L 179.686957 102.899028 
L 177.686957 98.899028 
" style="fill:none;stroke:#5bc0de;stroke-linecap:round;stroke-width:2;"/>
   </g>
   <g id="patch_16">
    <path d="M 273.6 111.374166 
Q 273.6 128.860026 273.6 146.345886 
" style="fill:none;stroke:#5bc0de;stroke-linecap:round;stroke-width:2;"/>
    <path d="M 271.6 115.374166 
L 273.6 111.374166 
L 275.6 115.374166 
" style="fill:none;stroke:#5bc0de;stroke-linecap:round;stroke-width:2;"/>
    <path d="M 275.6 142.345886 
L 273.6 146.345886 
L 271.6 142.345886 
" style="fill:none;stroke:#5bc0de;stroke-linecap:round;stroke-width:2;"/>
   </g>
  </g>
  <g id="axes_6">
   <g id="text_30">
    <!-- Variability within groups -->
    <g style="fill:#5bc0de;" transform="translate(433.252174 252.856856)scale(0.15 -0.15)">
     <use xlink:href="#DejaVuSans-56"/>
     <use x="68.298828" xlink:href="#DejaVuSans-61"/>
     <use x="129.578125" xlink:href="#DejaVuSans-72"/>
     <use x="170.691406" xlink:href="#DejaVuSans-69"/>
     <use x="198.474609" xlink:href="#DejaVuSans-61"/>
     <use x="259.753906" xlink:href="#DejaVuSans-62"/>
     <use x="323.230469" xlink:href="#DejaVuSans-69"/>
     <use x="351.013672" xlink:href="#DejaVuSans-6c"/>
     <use x="378.796875" xlink:href="#DejaVuSans-69"/>
     <use x="406.580078" xlink:href="#DejaVuSans-74"/>
     <use x="445.789062" xlink:href="#DejaVuSans-79"/>
     <use x="504.96875" xlink:href="#DejaVuSans-20"/>
     <use x="536.755859" xlink:href="#DejaVuSans-77"/>
     <use x="618.542969" xlink:href="#DejaVuSans-69"/>
     <use x="646.326172" xlink:href="#DejaVuSans-74"/>
     <use x="685.535156" xlink:href="#DejaVuSans-68"/>
     <use x="748.914062" xlink:href="#DejaVuSans-69"/>
     <use x="776.697266" xlink:href="#DejaVuSans-6e"/>
     <use x="840.076172" xlink:href="#DejaVuSans-20"/>
     <use x="871.863281" xlink:href="#DejaVuSans-67"/>
     <use x="935.339844" xlink:href="#DejaVuSans-72"/>
     <use x="976.421875" xlink:href="#DejaVuSans-6f"/>
     <use x="1037.603516" xlink:href="#DejaVuSans-75"/>
     <use x="1100.982422" xlink:href="#DejaVuSans-70"/>
     <use x="1164.458984" xlink:href="#DejaVuSans-73"/>
    </g>
   </g>
   <g id="patch_17">
    <path d="M 442.643478 46.20388 
Q 442.643478 114.377906 442.643478 182.551932 
" style="fill:none;stroke:#5bc0de;stroke-linecap:round;stroke-width:2;"/>
    <path d="M 440.643478 50.20388 
L 442.643478 46.20388 
L 444.643478 50.20388 
" style="fill:none;stroke:#5bc0de;stroke-linecap:round;stroke-width:2;"/>
    <path d="M 444.643478 178.551932 
L 442.643478 182.551932 
L 440.643478 178.551932 
" style="fill:none;stroke:#5bc0de;stroke-linecap:round;stroke-width:2;"/>
   </g>
   <g id="patch_18">
    <path d="M 545.947826 17.239309 
Q 545.947826 85.413335 545.947826 153.58736 
" style="fill:none;stroke:#5bc0de;stroke-linecap:round;stroke-width:2;"/>
    <path d="M 543.947826 21.239309 
L 545.947826 17.239309 
L 547.947826 21.239309 
" style="fill:none;stroke:#5bc0de;stroke-linecap:round;stroke-width:2;"/>
    <path d="M 547.947826 149.58736 
L 545.947826 153.58736 
L 543.947826 149.58736 
" style="fill:none;stroke:#5bc0de;stroke-linecap:round;stroke-width:2;"/>
   </g>
   <g id="patch_19">
    <path d="M 639.86087 60.686166 
Q 639.86087 128.860192 639.86087 197.034218 
" style="fill:none;stroke:#5bc0de;stroke-linecap:round;stroke-width:2;"/>
    <path d="M 637.86087 64.686166 
L 639.86087 60.686166 
L 641.86087 64.686166 
" style="fill:none;stroke:#5bc0de;stroke-linecap:round;stroke-width:2;"/>
    <path d="M 641.86087 193.034218 
L 639.86087 197.034218 
L 637.86087 193.034218 
" style="fill:none;stroke:#5bc0de;stroke-linecap:round;stroke-width:2;"/>
   </g>
  </g>
 </g>
 <defs>
  <clipPath id="p013f30a744">
   <rect height="253.44" width="281.73913" x="57.6" y="5.76"/>
  </clipPath>
  <clipPath id="p9eaa733817">
   <rect height="253.44" width="281.73913" x="423.86087" y="5.76"/>
  </clipPath>
 </defs>
</svg>
