<?xml version="1.0" encoding="utf-8"?>
<!-- Generator: Adobe Illustrator 16.0.4, SVG Export Plug-In . SVG Version: 6.00 Build 0)  -->
<!DOCTYPE svg PUBLIC "-//W3C//DTD SVG 1.1//EN" "http://www.w3.org/Graphics/SVG/1.1/DTD/svg11.dtd">
<svg version="1.1" id="layer1" xmlns="http://www.w3.org/2000/svg" xmlns:xlink="http://www.w3.org/1999/xlink" x="0px" y="0px"
	 width="427px" height="236.5px" viewBox="0 0 427 236.5" enable-background="new 0 0 427 236.5" xml:space="preserve">
<path fill="#5BC0DE" d="M228.463,218.915c0,3.336-2.703,6.039-6.037,6.039s-6.037-2.703-6.037-6.039
	c0-3.332,2.703-6.036,6.037-6.036S228.463,215.583,228.463,218.915z"/>
<path fill="#5BC0DE" d="M340.281,218.915c0,3.336-2.702,6.039-6.037,6.039c-3.334,0-6.037-2.703-6.037-6.039
	c0-3.332,2.703-6.036,6.037-6.036C337.579,212.879,340.281,215.583,340.281,218.915z"/>
<path fill="#5BC0DE" d="M340.281,181.061c0,3.336-2.702,6.039-6.037,6.039c-3.334,0-6.037-2.703-6.037-6.039
	c0-3.332,2.703-6.036,6.037-6.036C337.579,175.024,340.281,177.729,340.281,181.061z"/>
<path fill="#5BC0DE" d="M340.281,160.4c0,3.336-2.702,6.039-6.037,6.039c-3.334,0-6.037-2.703-6.037-6.039
	c0-3.332,2.703-6.036,6.037-6.036C337.579,154.364,340.281,157.068,340.281,160.4z"/>
<path fill="#5BC0DE" d="M214.632,160.4c0,3.336-2.703,6.039-6.037,6.039s-6.037-2.703-6.037-6.039c0-3.332,2.703-6.036,6.037-6.036
	S214.632,157.068,214.632,160.4z"/>
<circle fill="#F0AD4E" cx="236.257" cy="98.387" r="6.037"/>
<circle fill="#F0AD4E" cx="278.92" cy="36.873" r="6.037"/>
<circle fill="#F0AD4E" cx="334.244" cy="59.946" r="6.037"/>
<circle fill="#F0AD4E" cx="222.426" cy="59.946" r="6.037"/>
<circle fill="#F0AD4E" cx="222.426" cy="36.873" r="6.037"/>
<circle fill="#F0AD4E" cx="208.595" cy="59.946" r="6.037"/>
<g>
	<path fill="#D2D2D2" d="M149.738,79.358h-1.144v-3.796c0-0.728-0.11-1.257-0.331-1.586c-0.222-0.33-0.558-0.494-1.008-0.494
		c-0.234,0-0.468,0.045-0.702,0.137c-0.234,0.091-0.455,0.214-0.663,0.37c-0.208,0.156-0.39,0.343-0.546,0.559
		c-0.156,0.217-0.273,0.455-0.351,0.715v4.095h-1.145v-6.786h1.04v1.456c0.269-0.477,0.656-0.858,1.164-1.144
		c0.507-0.286,1.059-0.429,1.657-0.429c0.39,0,0.715,0.071,0.975,0.214s0.468,0.342,0.624,0.598
		c0.156,0.255,0.267,0.557,0.332,0.903c0.064,0.347,0.097,0.724,0.097,1.131V79.358z"/>
	<path fill="#D2D2D2" d="M153.825,83.081v0.606h-2.721v-0.606h1.076v-2.956c-0.046,0.061-0.116,0.125-0.212,0.193
		c-0.097,0.068-0.204,0.131-0.322,0.189c-0.119,0.058-0.241,0.107-0.368,0.147c-0.126,0.041-0.237,0.061-0.333,0.061V80.08
		c0.111,0,0.235-0.032,0.371-0.095c0.137-0.063,0.267-0.137,0.391-0.22c0.124-0.083,0.229-0.164,0.318-0.242
		c0.088-0.079,0.141-0.133,0.155-0.163h0.683v3.721H153.825z"/>
</g>
<g>
	<path fill="#D2D2D2" d="M393.645,137.879c-0.468,0-0.901-0.096-1.3-0.285c-0.398-0.191-0.741-0.447-1.027-0.768
		c-0.285-0.32-0.509-0.693-0.669-1.118c-0.161-0.425-0.24-0.871-0.24-1.339c0-0.477,0.075-0.93,0.228-1.358
		c0.151-0.429,0.363-0.804,0.637-1.124c0.272-0.321,0.598-0.574,0.975-0.762c0.377-0.186,0.791-0.279,1.241-0.279
		c0.547,0,1.034,0.144,1.463,0.43c0.429,0.285,0.77,0.633,1.021,1.039v-4.056h1.145v8.087c0,0.268,0.121,0.406,0.363,0.416v0.987
		c-0.121,0.017-0.219,0.03-0.292,0.039c-0.074,0.009-0.146,0.013-0.215,0.013c-0.226,0-0.423-0.076-0.592-0.227
		c-0.169-0.152-0.253-0.328-0.253-0.527v-0.572c-0.269,0.442-0.626,0.787-1.072,1.033
		C394.608,137.756,394.139,137.879,393.645,137.879z M393.918,136.891c0.208,0,0.422-0.039,0.644-0.117
		c0.221-0.078,0.429-0.186,0.624-0.324c0.194-0.139,0.363-0.301,0.507-0.488c0.143-0.186,0.236-0.383,0.279-0.591v-1.95
		c-0.078-0.217-0.195-0.422-0.351-0.617c-0.156-0.195-0.332-0.364-0.526-0.508c-0.195-0.143-0.403-0.255-0.624-0.338
		c-0.222-0.082-0.44-0.123-0.657-0.123c-0.338,0-0.644,0.072-0.916,0.215c-0.273,0.143-0.507,0.334-0.702,0.572
		s-0.345,0.511-0.448,0.818c-0.104,0.308-0.156,0.622-0.156,0.942c0,0.339,0.061,0.661,0.182,0.969s0.286,0.574,0.494,0.8
		c0.208,0.225,0.453,0.404,0.734,0.539C393.283,136.824,393.588,136.891,393.918,136.891z"/>
	<path fill="#D2D2D2" d="M401.332,141.472v0.606h-2.721v-0.606h1.076v-2.956c-0.046,0.061-0.116,0.125-0.212,0.193
		c-0.097,0.068-0.204,0.132-0.322,0.189c-0.119,0.059-0.241,0.107-0.368,0.148c-0.126,0.04-0.237,0.061-0.333,0.061v-0.637
		c0.111,0,0.235-0.031,0.371-0.095c0.137-0.063,0.267-0.137,0.391-0.22c0.124-0.084,0.229-0.164,0.318-0.242
		c0.088-0.079,0.141-0.133,0.155-0.164h0.683v3.722H401.332z"/>
	<path fill="#D2D2D2" d="M405.758,139.857c0,0.334-0.048,0.641-0.144,0.921c-0.097,0.28-0.23,0.522-0.402,0.728
		s-0.375,0.363-0.609,0.478c-0.235,0.114-0.489,0.171-0.762,0.171c-0.278,0-0.535-0.057-0.77-0.171
		c-0.235-0.114-0.438-0.272-0.606-0.478s-0.302-0.447-0.397-0.728c-0.097-0.28-0.145-0.587-0.145-0.921s0.048-0.641,0.145-0.921
		c0.096-0.28,0.229-0.522,0.397-0.728s0.371-0.365,0.606-0.481c0.234-0.116,0.491-0.175,0.77-0.175c0.272,0,0.526,0.059,0.762,0.175
		c0.234,0.116,0.438,0.276,0.609,0.481s0.306,0.447,0.402,0.728C405.71,139.217,405.758,139.523,405.758,139.857z M405.083,139.857
		c0-0.248-0.03-0.475-0.091-0.682s-0.146-0.386-0.258-0.535c-0.11-0.148-0.242-0.264-0.394-0.344
		c-0.151-0.082-0.318-0.122-0.5-0.122c-0.188,0-0.358,0.04-0.512,0.122c-0.154,0.08-0.286,0.195-0.395,0.344
		c-0.108,0.149-0.193,0.328-0.254,0.535s-0.091,0.434-0.091,0.682c0,0.253,0.03,0.481,0.091,0.686
		c0.061,0.205,0.146,0.381,0.254,0.527s0.24,0.26,0.395,0.341c0.153,0.081,0.324,0.121,0.512,0.121c0.182,0,0.349-0.04,0.5-0.121
		s0.283-0.194,0.394-0.341c0.111-0.146,0.197-0.322,0.258-0.527C405.053,140.339,405.083,140.11,405.083,139.857z"/>
	<path fill="#D2D2D2" d="M410.411,139.857c0,0.334-0.048,0.641-0.144,0.921c-0.097,0.28-0.23,0.522-0.402,0.728
		s-0.375,0.363-0.609,0.478c-0.235,0.114-0.489,0.171-0.762,0.171c-0.278,0-0.535-0.057-0.77-0.171
		c-0.235-0.114-0.438-0.272-0.606-0.478s-0.302-0.447-0.397-0.728c-0.097-0.28-0.145-0.587-0.145-0.921s0.048-0.641,0.145-0.921
		c0.096-0.28,0.229-0.522,0.397-0.728s0.371-0.365,0.606-0.481c0.234-0.116,0.491-0.175,0.77-0.175c0.272,0,0.526,0.059,0.762,0.175
		c0.234,0.116,0.438,0.276,0.609,0.481s0.306,0.447,0.402,0.728C410.363,139.217,410.411,139.523,410.411,139.857z M409.736,139.857
		c0-0.248-0.03-0.475-0.091-0.682s-0.146-0.386-0.258-0.535c-0.11-0.148-0.242-0.264-0.394-0.344
		c-0.151-0.082-0.318-0.122-0.5-0.122c-0.188,0-0.358,0.04-0.512,0.122c-0.154,0.08-0.286,0.195-0.395,0.344
		c-0.108,0.149-0.193,0.328-0.254,0.535s-0.091,0.434-0.091,0.682c0,0.253,0.03,0.481,0.091,0.686
		c0.061,0.205,0.146,0.381,0.254,0.527s0.24,0.26,0.395,0.341c0.153,0.081,0.324,0.121,0.512,0.121c0.182,0,0.349-0.04,0.5-0.121
		s0.283-0.194,0.394-0.341c0.111-0.146,0.197-0.322,0.258-0.527C409.706,140.339,409.736,140.11,409.736,139.857z"/>
	<path fill="#D2D2D2" d="M415.064,139.857c0,0.334-0.048,0.641-0.144,0.921c-0.097,0.28-0.23,0.522-0.402,0.728
		s-0.375,0.363-0.609,0.478c-0.235,0.114-0.489,0.171-0.762,0.171c-0.278,0-0.535-0.057-0.77-0.171
		c-0.235-0.114-0.438-0.272-0.606-0.478s-0.302-0.447-0.397-0.728c-0.097-0.28-0.145-0.587-0.145-0.921s0.048-0.641,0.145-0.921
		c0.096-0.28,0.229-0.522,0.397-0.728s0.371-0.365,0.606-0.481c0.234-0.116,0.491-0.175,0.77-0.175c0.272,0,0.526,0.059,0.762,0.175
		c0.234,0.116,0.438,0.276,0.609,0.481s0.306,0.447,0.402,0.728C415.017,139.217,415.064,139.523,415.064,139.857z M414.39,139.857
		c0-0.248-0.03-0.475-0.091-0.682s-0.146-0.386-0.258-0.535c-0.11-0.148-0.242-0.264-0.394-0.344
		c-0.151-0.082-0.318-0.122-0.5-0.122c-0.188,0-0.358,0.04-0.512,0.122c-0.154,0.08-0.286,0.195-0.395,0.344
		c-0.108,0.149-0.193,0.328-0.254,0.535s-0.091,0.434-0.091,0.682c0,0.253,0.03,0.481,0.091,0.686
		c0.061,0.205,0.146,0.381,0.254,0.527s0.24,0.26,0.395,0.341c0.153,0.081,0.324,0.121,0.512,0.121c0.182,0,0.349-0.04,0.5-0.121
		s0.283-0.194,0.394-0.341c0.111-0.146,0.197-0.322,0.258-0.527C414.359,140.339,414.39,140.11,414.39,139.857z"/>
	<path fill="#D2D2D2" d="M419.718,139.857c0,0.334-0.048,0.641-0.144,0.921c-0.097,0.28-0.23,0.522-0.402,0.728
		s-0.375,0.363-0.609,0.478c-0.235,0.114-0.489,0.171-0.762,0.171c-0.278,0-0.535-0.057-0.77-0.171
		c-0.235-0.114-0.438-0.272-0.606-0.478s-0.302-0.447-0.397-0.728c-0.097-0.28-0.145-0.587-0.145-0.921s0.048-0.641,0.145-0.921
		c0.096-0.28,0.229-0.522,0.397-0.728s0.371-0.365,0.606-0.481c0.234-0.116,0.491-0.175,0.77-0.175c0.272,0,0.526,0.059,0.762,0.175
		c0.234,0.116,0.438,0.276,0.609,0.481s0.306,0.447,0.402,0.728C419.67,139.217,419.718,139.523,419.718,139.857z M419.043,139.857
		c0-0.248-0.03-0.475-0.091-0.682s-0.146-0.386-0.258-0.535c-0.11-0.148-0.242-0.264-0.394-0.344
		c-0.151-0.082-0.318-0.122-0.5-0.122c-0.188,0-0.358,0.04-0.512,0.122c-0.154,0.08-0.286,0.195-0.395,0.344
		c-0.108,0.149-0.193,0.328-0.254,0.535s-0.091,0.434-0.091,0.682c0,0.253,0.03,0.481,0.091,0.686
		c0.061,0.205,0.146,0.381,0.254,0.527s0.24,0.26,0.395,0.341c0.153,0.081,0.324,0.121,0.512,0.121c0.182,0,0.349-0.04,0.5-0.121
		s0.283-0.194,0.394-0.341c0.111-0.146,0.197-0.322,0.258-0.527C419.013,140.339,419.043,140.11,419.043,139.857z"/>
</g>
<g>
	<path fill="#D2D2D2" d="M187.688,16.832c-0.546,0-1.083-0.084-1.611-0.253c-0.529-0.169-0.984-0.414-1.365-0.734l0.494-0.767
		c0.398,0.304,0.797,0.531,1.195,0.683s0.819,0.228,1.262,0.228c0.493,0,0.886-0.098,1.176-0.292
		c0.291-0.195,0.436-0.47,0.436-0.826c0-0.165-0.039-0.306-0.116-0.422c-0.078-0.117-0.195-0.219-0.352-0.306
		c-0.156-0.086-0.355-0.165-0.598-0.234c-0.243-0.069-0.524-0.143-0.846-0.221c-0.407-0.104-0.758-0.204-1.053-0.299
		s-0.537-0.208-0.728-0.338c-0.191-0.13-0.33-0.286-0.416-0.468c-0.087-0.182-0.13-0.407-0.13-0.676
		c0-0.338,0.066-0.639,0.201-0.904c0.134-0.264,0.318-0.485,0.553-0.663c0.233-0.178,0.509-0.312,0.825-0.403
		c0.316-0.091,0.656-0.136,1.021-0.136c0.512,0,0.988,0.083,1.43,0.247c0.442,0.165,0.814,0.381,1.118,0.65l-0.52,0.689
		c-0.286-0.251-0.607-0.44-0.962-0.565c-0.355-0.125-0.72-0.188-1.093-0.188c-0.416,0-0.769,0.089-1.06,0.266
		c-0.29,0.178-0.436,0.462-0.436,0.852c0,0.156,0.028,0.286,0.085,0.39s0.149,0.195,0.279,0.273s0.297,0.147,0.501,0.208
		c0.203,0.061,0.448,0.126,0.734,0.195c0.45,0.104,0.843,0.21,1.177,0.319c0.333,0.108,0.61,0.236,0.832,0.383
		c0.221,0.147,0.385,0.321,0.493,0.52c0.108,0.2,0.163,0.442,0.163,0.728c0,0.633-0.243,1.135-0.729,1.508
		C189.166,16.646,188.511,16.832,187.688,16.832z"/>
	<path fill="#D2D2D2" d="M194.037,11.767v0.606h-2.721v-0.606h1.076V8.811c-0.046,0.061-0.116,0.125-0.212,0.193
		c-0.097,0.068-0.204,0.131-0.322,0.189c-0.119,0.058-0.241,0.107-0.368,0.147c-0.126,0.041-0.237,0.061-0.333,0.061V8.766
		c0.111,0,0.235-0.032,0.371-0.095c0.137-0.063,0.267-0.137,0.391-0.22c0.124-0.083,0.229-0.164,0.318-0.242
		c0.088-0.079,0.141-0.133,0.155-0.163h0.683v3.721H194.037z"/>
	<path fill="#D2D2D2" d="M197.447,20.425v0.606h-2.721v-0.606h1.076v-2.956c-0.046,0.061-0.116,0.125-0.212,0.193
		c-0.097,0.068-0.204,0.131-0.322,0.189c-0.119,0.058-0.241,0.107-0.368,0.147c-0.126,0.041-0.237,0.061-0.333,0.061v-0.636
		c0.111,0,0.235-0.032,0.371-0.095c0.137-0.063,0.267-0.137,0.391-0.22c0.124-0.083,0.229-0.164,0.318-0.242
		c0.088-0.079,0.141-0.133,0.155-0.163h0.683v3.721H197.447z"/>
</g>
<g>
	<path fill="#D2D2D2" d="M187.688,43.04c-0.546,0-1.083-0.084-1.611-0.253c-0.529-0.169-0.984-0.414-1.365-0.734l0.494-0.767
		c0.398,0.304,0.797,0.531,1.195,0.683s0.819,0.228,1.262,0.228c0.493,0,0.886-0.098,1.176-0.292
		c0.291-0.195,0.436-0.47,0.436-0.826c0-0.165-0.039-0.306-0.116-0.422c-0.078-0.117-0.195-0.219-0.352-0.306
		c-0.156-0.086-0.355-0.165-0.598-0.234c-0.243-0.069-0.524-0.143-0.846-0.221c-0.407-0.104-0.758-0.204-1.053-0.299
		s-0.537-0.208-0.728-0.338c-0.191-0.13-0.33-0.286-0.416-0.468c-0.087-0.182-0.13-0.407-0.13-0.676
		c0-0.338,0.066-0.639,0.201-0.904c0.134-0.264,0.318-0.485,0.553-0.663c0.233-0.178,0.509-0.312,0.825-0.403
		c0.316-0.091,0.656-0.136,1.021-0.136c0.512,0,0.988,0.083,1.43,0.247c0.442,0.165,0.814,0.381,1.118,0.65l-0.52,0.689
		c-0.286-0.251-0.607-0.44-0.962-0.565c-0.355-0.125-0.72-0.188-1.093-0.188c-0.416,0-0.769,0.089-1.06,0.266
		c-0.29,0.178-0.436,0.462-0.436,0.852c0,0.156,0.028,0.286,0.085,0.39s0.149,0.195,0.279,0.273s0.297,0.147,0.501,0.208
		c0.203,0.061,0.448,0.126,0.734,0.195c0.45,0.104,0.843,0.21,1.177,0.319c0.333,0.108,0.61,0.236,0.832,0.383
		c0.221,0.147,0.385,0.321,0.493,0.52c0.108,0.2,0.163,0.442,0.163,0.728c0,0.633-0.243,1.135-0.729,1.508
		C189.166,42.854,188.511,43.04,187.688,43.04z"/>
	<path fill="#D2D2D2" d="M194.037,37.975v0.606h-2.721v-0.606h1.076v-2.956c-0.046,0.061-0.116,0.125-0.212,0.193
		c-0.097,0.068-0.204,0.131-0.322,0.189c-0.119,0.058-0.241,0.107-0.368,0.147c-0.126,0.041-0.237,0.061-0.333,0.061v-0.636
		c0.111,0,0.235-0.032,0.371-0.095c0.137-0.063,0.267-0.137,0.391-0.22c0.124-0.083,0.229-0.164,0.318-0.242
		c0.088-0.079,0.141-0.133,0.155-0.163h0.683v3.721H194.037z"/>
	<path fill="#D2D2D2" d="M194.544,47.239c0-0.202,0.016-0.392,0.049-0.568s0.095-0.346,0.186-0.508s0.216-0.316,0.375-0.462
		s0.368-0.293,0.626-0.439c0.151-0.081,0.306-0.161,0.462-0.239s0.3-0.162,0.429-0.25s0.234-0.183,0.318-0.284
		c0.083-0.101,0.125-0.22,0.125-0.356c0-0.086-0.021-0.172-0.061-0.258c-0.041-0.086-0.099-0.162-0.175-0.227
		c-0.076-0.066-0.171-0.119-0.284-0.159s-0.244-0.061-0.391-0.061c-0.151,0-0.289,0.021-0.413,0.064
		c-0.123,0.043-0.233,0.096-0.329,0.159c-0.097,0.063-0.18,0.13-0.25,0.201c-0.071,0.071-0.129,0.134-0.175,0.189l-0.432-0.485
		c0.04-0.045,0.108-0.107,0.204-0.186c0.097-0.078,0.218-0.158,0.364-0.239c0.146-0.081,0.315-0.15,0.508-0.208
		c0.191-0.058,0.406-0.087,0.645-0.087c0.231,0,0.441,0.032,0.629,0.095c0.187,0.063,0.345,0.15,0.474,0.261
		c0.129,0.111,0.229,0.242,0.299,0.391c0.071,0.149,0.106,0.307,0.106,0.474c0,0.197-0.043,0.369-0.129,0.515
		c-0.086,0.147-0.19,0.275-0.314,0.387s-0.257,0.206-0.398,0.284c-0.141,0.079-0.268,0.146-0.379,0.201
		c-0.11,0.056-0.235,0.123-0.375,0.201c-0.139,0.078-0.271,0.167-0.397,0.265c-0.127,0.099-0.236,0.208-0.33,0.33
		s-0.152,0.253-0.178,0.394h2.584v0.606H194.544z"/>
</g>
<g>
	<path fill="#D2D2D2" d="M187.688,64.384c-0.546,0-1.083-0.084-1.611-0.253c-0.529-0.169-0.984-0.414-1.365-0.734l0.494-0.767
		c0.398,0.304,0.797,0.531,1.195,0.683s0.819,0.228,1.262,0.228c0.493,0,0.886-0.098,1.176-0.292
		c0.291-0.195,0.436-0.47,0.436-0.826c0-0.165-0.039-0.306-0.116-0.422c-0.078-0.117-0.195-0.219-0.352-0.306
		c-0.156-0.086-0.355-0.165-0.598-0.234c-0.243-0.069-0.524-0.143-0.846-0.221c-0.407-0.104-0.758-0.204-1.053-0.299
		s-0.537-0.208-0.728-0.338c-0.191-0.13-0.33-0.286-0.416-0.468c-0.087-0.182-0.13-0.407-0.13-0.676
		c0-0.338,0.066-0.639,0.201-0.904c0.134-0.264,0.318-0.485,0.553-0.663c0.233-0.178,0.509-0.312,0.825-0.403
		c0.316-0.091,0.656-0.136,1.021-0.136c0.512,0,0.988,0.083,1.43,0.247c0.442,0.165,0.814,0.381,1.118,0.65l-0.52,0.689
		c-0.286-0.251-0.607-0.44-0.962-0.565c-0.355-0.125-0.72-0.188-1.093-0.188c-0.416,0-0.769,0.089-1.06,0.266
		c-0.29,0.178-0.436,0.462-0.436,0.852c0,0.156,0.028,0.286,0.085,0.39s0.149,0.195,0.279,0.273s0.297,0.147,0.501,0.208
		c0.203,0.061,0.448,0.126,0.734,0.195c0.45,0.104,0.843,0.21,1.177,0.319c0.333,0.108,0.61,0.236,0.832,0.383
		c0.221,0.147,0.385,0.321,0.493,0.52c0.108,0.2,0.163,0.442,0.163,0.728c0,0.633-0.243,1.135-0.729,1.508
		C189.166,64.198,188.511,64.384,187.688,64.384z"/>
	<path fill="#D2D2D2" d="M194.037,59.319v0.606h-2.721v-0.606h1.076v-2.956c-0.046,0.061-0.116,0.125-0.212,0.193
		c-0.097,0.068-0.204,0.131-0.322,0.189c-0.119,0.058-0.241,0.107-0.368,0.147c-0.126,0.041-0.237,0.061-0.333,0.061v-0.636
		c0.111,0,0.235-0.032,0.371-0.095c0.137-0.063,0.267-0.137,0.391-0.22c0.124-0.083,0.229-0.164,0.318-0.242
		c0.088-0.079,0.141-0.133,0.155-0.163h0.683v3.721H194.037z"/>
	<path fill="#D2D2D2" d="M196.931,66.795c0.323,0.056,0.58,0.205,0.77,0.447c0.189,0.242,0.284,0.543,0.284,0.902
		c0,0.232-0.043,0.444-0.129,0.637c-0.086,0.192-0.208,0.356-0.367,0.492c-0.159,0.137-0.351,0.242-0.572,0.315
		c-0.223,0.073-0.47,0.11-0.743,0.11c-0.384,0-0.721-0.072-1.012-0.216c-0.29-0.144-0.517-0.347-0.678-0.61l0.447-0.447
		c0.115,0.207,0.272,0.37,0.47,0.489c0.196,0.119,0.454,0.178,0.772,0.178c0.349,0,0.623-0.079,0.822-0.235
		c0.2-0.157,0.3-0.394,0.3-0.712s-0.107-0.572-0.322-0.762s-0.526-0.284-0.936-0.284h-0.197v-0.561h0.212
		c0.364,0,0.643-0.087,0.838-0.261c0.194-0.174,0.292-0.396,0.292-0.664c0-0.268-0.094-0.467-0.281-0.599
		c-0.187-0.131-0.422-0.197-0.704-0.197c-0.278,0-0.522,0.059-0.731,0.178c-0.21,0.119-0.373,0.284-0.489,0.497l-0.409-0.424
		c0.065-0.126,0.155-0.241,0.27-0.345c0.113-0.104,0.244-0.193,0.394-0.269c0.149-0.076,0.311-0.134,0.485-0.174
		c0.174-0.041,0.357-0.061,0.549-0.061c0.238,0,0.456,0.033,0.656,0.099c0.199,0.066,0.371,0.157,0.516,0.273
		c0.144,0.116,0.255,0.258,0.333,0.424c0.078,0.167,0.117,0.352,0.117,0.553c0,0.152-0.021,0.296-0.064,0.432
		s-0.105,0.26-0.189,0.372c-0.083,0.111-0.185,0.203-0.303,0.276C197.21,66.72,197.078,66.77,196.931,66.795z"/>
</g>
<g>
	<path fill="#D2D2D2" d="M187.688,106.385c-0.546,0-1.083-0.085-1.611-0.254c-0.529-0.169-0.984-0.414-1.365-0.734l0.494-0.768
		c0.398,0.305,0.797,0.531,1.195,0.684c0.398,0.151,0.819,0.227,1.262,0.227c0.493,0,0.886-0.098,1.176-0.292
		c0.291-0.195,0.436-0.47,0.436-0.825c0-0.165-0.039-0.307-0.116-0.423c-0.078-0.117-0.195-0.219-0.352-0.306
		c-0.156-0.086-0.355-0.164-0.598-0.234c-0.243-0.068-0.524-0.143-0.846-0.221c-0.407-0.104-0.758-0.203-1.053-0.299
		s-0.537-0.208-0.728-0.338c-0.191-0.131-0.33-0.286-0.416-0.469c-0.087-0.182-0.13-0.406-0.13-0.676
		c0-0.338,0.066-0.639,0.201-0.903c0.134-0.265,0.318-0.485,0.553-0.663c0.233-0.178,0.509-0.312,0.825-0.402
		c0.316-0.092,0.656-0.137,1.021-0.137c0.512,0,0.988,0.082,1.43,0.247c0.442,0.165,0.814,0.382,1.118,0.649l-0.52,0.689
		c-0.286-0.252-0.607-0.439-0.962-0.565c-0.355-0.126-0.72-0.188-1.093-0.188c-0.416,0-0.769,0.089-1.06,0.266
		c-0.29,0.178-0.436,0.463-0.436,0.852c0,0.156,0.028,0.287,0.085,0.391s0.149,0.195,0.279,0.273s0.297,0.146,0.501,0.207
		c0.203,0.061,0.448,0.127,0.734,0.195c0.45,0.104,0.843,0.211,1.177,0.318c0.333,0.109,0.61,0.236,0.832,0.384
		c0.221,0.147,0.385,0.321,0.493,0.521s0.163,0.441,0.163,0.728c0,0.633-0.243,1.136-0.729,1.508
		C189.166,106.198,188.511,106.385,187.688,106.385z"/>
	<path fill="#D2D2D2" d="M194.037,101.318v0.607h-2.721v-0.607h1.076v-2.955c-0.046,0.061-0.116,0.125-0.212,0.193
		c-0.097,0.068-0.204,0.131-0.322,0.189c-0.119,0.059-0.241,0.107-0.368,0.147c-0.126,0.04-0.237,0.061-0.333,0.061v-0.636
		c0.111,0,0.235-0.032,0.371-0.096c0.137-0.062,0.267-0.137,0.391-0.22s0.229-0.164,0.318-0.242
		c0.088-0.079,0.141-0.133,0.155-0.163h0.683v3.721H194.037z"/>
	<path fill="#D2D2D2" d="M197.447,109.977v0.607h-2.721v-0.607h1.076v-2.955c-0.046,0.061-0.116,0.125-0.212,0.193
		c-0.097,0.068-0.204,0.131-0.322,0.189c-0.119,0.059-0.241,0.107-0.368,0.147c-0.126,0.04-0.237,0.061-0.333,0.061v-0.636
		c0.111,0,0.235-0.032,0.371-0.096c0.137-0.062,0.267-0.137,0.391-0.22s0.229-0.164,0.318-0.242
		c0.088-0.079,0.141-0.133,0.155-0.163h0.683v3.721H197.447z"/>
	<path fill="#D2D2D2" d="M201.873,108.363c0,0.333-0.048,0.641-0.144,0.92c-0.097,0.281-0.23,0.523-0.402,0.729
		c-0.172,0.204-0.375,0.363-0.609,0.477c-0.235,0.114-0.489,0.171-0.762,0.171c-0.278,0-0.535-0.057-0.77-0.171
		c-0.235-0.113-0.438-0.272-0.606-0.477c-0.169-0.205-0.302-0.447-0.397-0.729c-0.097-0.279-0.145-0.587-0.145-0.92
		c0-0.334,0.048-0.641,0.145-0.922c0.096-0.279,0.229-0.522,0.397-0.727c0.169-0.205,0.371-0.365,0.606-0.482
		c0.234-0.115,0.491-0.174,0.77-0.174c0.272,0,0.526,0.059,0.762,0.174c0.234,0.117,0.438,0.277,0.609,0.482
		c0.172,0.204,0.306,0.447,0.402,0.727C201.825,107.723,201.873,108.029,201.873,108.363z M201.198,108.363
		c0-0.248-0.03-0.475-0.091-0.683c-0.061-0.207-0.146-0.386-0.258-0.534c-0.11-0.148-0.242-0.264-0.394-0.345
		s-0.318-0.122-0.5-0.122c-0.188,0-0.358,0.041-0.512,0.122c-0.154,0.081-0.286,0.196-0.395,0.345s-0.193,0.327-0.254,0.534
		c-0.061,0.208-0.091,0.435-0.091,0.683c0,0.252,0.03,0.48,0.091,0.686s0.146,0.381,0.254,0.527s0.24,0.26,0.395,0.34
		c0.153,0.082,0.324,0.121,0.512,0.121c0.182,0,0.349-0.039,0.5-0.121c0.151-0.08,0.283-0.193,0.394-0.34
		c0.111-0.146,0.197-0.322,0.258-0.527S201.198,108.615,201.198,108.363z"/>
	<path fill="#D2D2D2" d="M206.525,108.363c0,0.333-0.047,0.641-0.143,0.92c-0.098,0.281-0.23,0.523-0.402,0.729
		c-0.172,0.204-0.375,0.363-0.609,0.477c-0.236,0.114-0.49,0.171-0.762,0.171c-0.278,0-0.535-0.057-0.77-0.171
		c-0.235-0.113-0.438-0.272-0.606-0.477c-0.169-0.205-0.302-0.447-0.397-0.729c-0.097-0.279-0.145-0.587-0.145-0.92
		c0-0.334,0.048-0.641,0.145-0.922c0.096-0.279,0.229-0.522,0.397-0.727c0.169-0.205,0.371-0.365,0.606-0.482
		c0.234-0.115,0.491-0.174,0.77-0.174c0.272,0,0.526,0.059,0.762,0.174c0.234,0.117,0.438,0.277,0.609,0.482
		c0.172,0.204,0.305,0.447,0.402,0.727C206.479,107.723,206.525,108.029,206.525,108.363z M205.852,108.363
		c0-0.248-0.031-0.475-0.092-0.683c-0.061-0.207-0.146-0.386-0.258-0.534c-0.109-0.148-0.242-0.264-0.393-0.345
		c-0.152-0.081-0.319-0.122-0.5-0.122c-0.188,0-0.358,0.041-0.512,0.122c-0.154,0.081-0.286,0.196-0.395,0.345
		s-0.193,0.327-0.254,0.534c-0.061,0.208-0.091,0.435-0.091,0.683c0,0.252,0.03,0.48,0.091,0.686s0.146,0.381,0.254,0.527
		s0.24,0.26,0.395,0.34c0.153,0.082,0.324,0.121,0.512,0.121c0.182,0,0.349-0.039,0.5-0.121c0.15-0.08,0.283-0.193,0.393-0.34
		c0.111-0.146,0.197-0.322,0.258-0.527S205.852,108.615,205.852,108.363z"/>
	<path fill="#D2D2D2" d="M211.18,108.363c0,0.333-0.049,0.641-0.145,0.92c-0.096,0.281-0.23,0.523-0.402,0.729
		c-0.172,0.204-0.375,0.363-0.609,0.477c-0.234,0.114-0.488,0.171-0.762,0.171c-0.277,0-0.535-0.057-0.77-0.171
		c-0.234-0.113-0.438-0.272-0.605-0.477c-0.17-0.205-0.303-0.447-0.398-0.729c-0.096-0.279-0.145-0.587-0.145-0.92
		c0-0.334,0.049-0.641,0.145-0.922c0.096-0.279,0.229-0.522,0.398-0.727c0.168-0.205,0.371-0.365,0.605-0.482
		c0.234-0.115,0.492-0.174,0.77-0.174c0.273,0,0.527,0.059,0.762,0.174c0.234,0.117,0.438,0.277,0.609,0.482
		c0.172,0.204,0.307,0.447,0.402,0.727C211.131,107.723,211.18,108.029,211.18,108.363z M210.504,108.363
		c0-0.248-0.029-0.475-0.09-0.683c-0.061-0.207-0.146-0.386-0.258-0.534s-0.242-0.264-0.395-0.345
		c-0.15-0.081-0.318-0.122-0.5-0.122c-0.188,0-0.357,0.041-0.512,0.122s-0.285,0.196-0.395,0.345
		c-0.107,0.148-0.193,0.327-0.254,0.534c-0.061,0.208-0.09,0.435-0.09,0.683c0,0.252,0.029,0.48,0.09,0.686s0.146,0.381,0.254,0.527
		c0.109,0.146,0.24,0.26,0.395,0.34c0.154,0.082,0.324,0.121,0.512,0.121c0.182,0,0.35-0.039,0.5-0.121
		c0.152-0.08,0.283-0.193,0.395-0.34s0.197-0.322,0.258-0.527S210.504,108.615,210.504,108.363z"/>
	<path fill="#D2D2D2" d="M215.832,108.363c0,0.333-0.047,0.641-0.143,0.92c-0.098,0.281-0.23,0.523-0.402,0.729
		c-0.172,0.204-0.375,0.363-0.609,0.477c-0.236,0.114-0.49,0.171-0.762,0.171c-0.279,0-0.535-0.057-0.77-0.171
		c-0.236-0.113-0.438-0.272-0.607-0.477c-0.168-0.205-0.301-0.447-0.396-0.729c-0.098-0.279-0.145-0.587-0.145-0.92
		c0-0.334,0.047-0.641,0.145-0.922c0.096-0.279,0.229-0.522,0.396-0.727c0.17-0.205,0.371-0.365,0.607-0.482
		c0.234-0.115,0.49-0.174,0.77-0.174c0.271,0,0.525,0.059,0.762,0.174c0.234,0.117,0.438,0.277,0.609,0.482
		c0.172,0.204,0.305,0.447,0.402,0.727C215.785,107.723,215.832,108.029,215.832,108.363z M215.158,108.363
		c0-0.248-0.031-0.475-0.092-0.683c-0.061-0.207-0.146-0.386-0.258-0.534c-0.109-0.148-0.242-0.264-0.393-0.345
		c-0.152-0.081-0.318-0.122-0.5-0.122c-0.188,0-0.359,0.041-0.512,0.122c-0.154,0.081-0.287,0.196-0.395,0.345
		c-0.109,0.148-0.193,0.327-0.254,0.534c-0.061,0.208-0.092,0.435-0.092,0.683c0,0.252,0.031,0.48,0.092,0.686
		s0.145,0.381,0.254,0.527c0.107,0.146,0.24,0.26,0.395,0.34c0.152,0.082,0.324,0.121,0.512,0.121c0.182,0,0.348-0.039,0.5-0.121
		c0.15-0.08,0.283-0.193,0.393-0.34c0.111-0.146,0.197-0.322,0.258-0.527S215.158,108.615,215.158,108.363z"/>
</g>
<g>
	<path fill="#D2D2D2" d="M187.688,139.652c-0.546,0-1.083-0.084-1.611-0.254c-0.529-0.168-0.984-0.413-1.365-0.734l0.494-0.767
		c0.398,0.304,0.797,0.53,1.195,0.683s0.819,0.228,1.262,0.228c0.493,0,0.886-0.098,1.176-0.292
		c0.291-0.195,0.436-0.471,0.436-0.826c0-0.164-0.039-0.306-0.116-0.422c-0.078-0.117-0.195-0.219-0.352-0.307
		c-0.156-0.086-0.355-0.164-0.598-0.233c-0.243-0.069-0.524-0.144-0.846-0.222c-0.407-0.104-0.758-0.203-1.053-0.299
		c-0.295-0.095-0.537-0.207-0.728-0.338c-0.191-0.13-0.33-0.285-0.416-0.468c-0.087-0.183-0.13-0.407-0.13-0.676
		c0-0.338,0.066-0.64,0.201-0.903c0.134-0.265,0.318-0.485,0.553-0.663c0.233-0.178,0.509-0.312,0.825-0.403
		c0.316-0.091,0.656-0.137,1.021-0.137c0.512,0,0.988,0.083,1.43,0.248c0.442,0.164,0.814,0.381,1.118,0.649l-0.52,0.688
		c-0.286-0.251-0.607-0.439-0.962-0.564c-0.355-0.126-0.72-0.189-1.093-0.189c-0.416,0-0.769,0.09-1.06,0.267
		c-0.29,0.178-0.436,0.462-0.436,0.852c0,0.156,0.028,0.286,0.085,0.39c0.057,0.104,0.149,0.195,0.279,0.273
		s0.297,0.147,0.501,0.208c0.203,0.061,0.448,0.126,0.734,0.194c0.45,0.104,0.843,0.211,1.177,0.319
		c0.333,0.108,0.61,0.236,0.832,0.384c0.221,0.146,0.385,0.32,0.493,0.52s0.163,0.441,0.163,0.729c0,0.633-0.243,1.135-0.729,1.508
		S188.511,139.652,187.688,139.652z"/>
	<path fill="#D2D2D2" d="M191.134,135.193c0-0.202,0.016-0.392,0.049-0.568s0.095-0.346,0.186-0.508s0.216-0.316,0.375-0.463
		s0.368-0.293,0.626-0.439c0.151-0.08,0.306-0.16,0.462-0.238s0.3-0.162,0.429-0.25s0.234-0.184,0.318-0.284
		c0.083-0.101,0.125-0.22,0.125-0.356c0-0.086-0.021-0.172-0.061-0.258c-0.041-0.086-0.099-0.162-0.175-0.227
		c-0.076-0.066-0.171-0.119-0.284-0.16c-0.113-0.04-0.244-0.061-0.391-0.061c-0.151,0-0.289,0.021-0.413,0.064
		c-0.123,0.043-0.233,0.096-0.329,0.159c-0.097,0.063-0.18,0.13-0.25,0.201c-0.071,0.071-0.129,0.134-0.175,0.189l-0.432-0.485
		c0.04-0.045,0.108-0.107,0.204-0.186c0.097-0.078,0.218-0.158,0.364-0.238c0.146-0.081,0.315-0.15,0.508-0.209
		c0.191-0.058,0.406-0.087,0.645-0.087c0.231,0,0.441,0.032,0.629,0.095c0.187,0.062,0.345,0.15,0.474,0.262
		s0.229,0.241,0.299,0.391c0.071,0.148,0.106,0.307,0.106,0.473c0,0.197-0.043,0.369-0.129,0.516s-0.19,0.275-0.314,0.387
		s-0.257,0.206-0.398,0.284c-0.141,0.079-0.268,0.146-0.379,0.2c-0.11,0.057-0.235,0.123-0.375,0.201
		c-0.139,0.078-0.271,0.167-0.397,0.266c-0.127,0.099-0.236,0.209-0.33,0.33s-0.152,0.252-0.178,0.394h2.584v0.606H191.134z"/>
	<path fill="#D2D2D2" d="M198.091,143.245v0.606h-2.721v-0.606h1.076v-2.956c-0.046,0.061-0.116,0.125-0.212,0.193
		c-0.097,0.068-0.204,0.132-0.322,0.189c-0.119,0.059-0.241,0.107-0.368,0.148c-0.126,0.04-0.237,0.061-0.333,0.061v-0.637
		c0.111,0,0.235-0.031,0.371-0.095c0.137-0.063,0.267-0.137,0.391-0.22c0.124-0.084,0.229-0.164,0.318-0.242
		c0.088-0.079,0.141-0.133,0.155-0.164h0.683v3.722H198.091z"/>
</g>
<g>
	<path fill="#D2D2D2" d="M187.688,162.86c-0.546,0-1.083-0.085-1.611-0.253c-0.529-0.17-0.984-0.414-1.365-0.734l0.494-0.768
		c0.398,0.304,0.797,0.531,1.195,0.683s0.819,0.228,1.262,0.228c0.493,0,0.886-0.098,1.176-0.293
		c0.291-0.195,0.436-0.47,0.436-0.825c0-0.165-0.039-0.306-0.116-0.423c-0.078-0.117-0.195-0.219-0.352-0.305
		c-0.156-0.087-0.355-0.165-0.598-0.234c-0.243-0.069-0.524-0.143-0.846-0.221c-0.407-0.104-0.758-0.204-1.053-0.299
		c-0.295-0.096-0.537-0.209-0.728-0.338c-0.191-0.131-0.33-0.287-0.416-0.469c-0.087-0.182-0.13-0.407-0.13-0.676
		c0-0.338,0.066-0.639,0.201-0.904c0.134-0.264,0.318-0.484,0.553-0.662c0.233-0.178,0.509-0.312,0.825-0.403
		s0.656-0.136,1.021-0.136c0.512,0,0.988,0.082,1.43,0.246c0.442,0.165,0.814,0.382,1.118,0.65l-0.52,0.689
		c-0.286-0.252-0.607-0.44-0.962-0.566c-0.355-0.125-0.72-0.188-1.093-0.188c-0.416,0-0.769,0.088-1.06,0.266
		c-0.29,0.178-0.436,0.462-0.436,0.852c0,0.156,0.028,0.286,0.085,0.391c0.057,0.104,0.149,0.194,0.279,0.272
		s0.297,0.147,0.501,0.208c0.203,0.061,0.448,0.126,0.734,0.195c0.45,0.104,0.843,0.21,1.177,0.318
		c0.333,0.108,0.61,0.236,0.832,0.383c0.221,0.148,0.385,0.321,0.493,0.521c0.108,0.2,0.163,0.442,0.163,0.728
		c0,0.633-0.243,1.136-0.729,1.508C189.166,162.674,188.511,162.86,187.688,162.86z"/>
	<path fill="#D2D2D2" d="M191.134,158.401c0-0.202,0.016-0.392,0.049-0.568s0.095-0.347,0.186-0.508s0.216-0.315,0.375-0.462
		s0.368-0.293,0.626-0.439c0.151-0.082,0.306-0.161,0.462-0.239s0.3-0.161,0.429-0.25s0.234-0.183,0.318-0.284
		c0.083-0.102,0.125-0.221,0.125-0.356c0-0.086-0.021-0.172-0.061-0.258c-0.041-0.086-0.099-0.161-0.175-0.228
		c-0.076-0.065-0.171-0.118-0.284-0.158c-0.113-0.041-0.244-0.061-0.391-0.061c-0.151,0-0.289,0.021-0.413,0.063
		c-0.123,0.044-0.233,0.097-0.329,0.159c-0.097,0.063-0.18,0.131-0.25,0.201c-0.071,0.07-0.129,0.134-0.175,0.189l-0.432-0.485
		c0.04-0.046,0.108-0.106,0.204-0.186c0.097-0.078,0.218-0.157,0.364-0.239c0.146-0.08,0.315-0.15,0.508-0.208
		c0.191-0.058,0.406-0.087,0.645-0.087c0.231,0,0.441,0.031,0.629,0.095c0.187,0.063,0.345,0.15,0.474,0.261
		c0.129,0.111,0.229,0.242,0.299,0.391c0.071,0.149,0.106,0.307,0.106,0.475c0,0.196-0.043,0.368-0.129,0.515
		c-0.086,0.147-0.19,0.275-0.314,0.387s-0.257,0.206-0.398,0.284c-0.141,0.078-0.268,0.146-0.379,0.201
		c-0.11,0.055-0.235,0.122-0.375,0.201c-0.139,0.078-0.271,0.166-0.397,0.265c-0.127,0.099-0.236,0.208-0.33,0.329
		s-0.152,0.254-0.178,0.395h2.584v0.606H191.134z"/>
	<path fill="#D2D2D2" d="M195.189,167.06c0-0.202,0.016-0.392,0.049-0.568s0.095-0.347,0.186-0.508s0.216-0.315,0.375-0.462
		s0.368-0.293,0.626-0.439c0.151-0.082,0.306-0.161,0.462-0.239s0.3-0.161,0.429-0.25s0.234-0.183,0.318-0.284
		c0.083-0.102,0.125-0.221,0.125-0.356c0-0.086-0.021-0.172-0.061-0.258c-0.041-0.086-0.099-0.161-0.175-0.228
		c-0.076-0.065-0.171-0.118-0.284-0.158c-0.113-0.041-0.244-0.061-0.391-0.061c-0.151,0-0.289,0.021-0.413,0.063
		c-0.123,0.044-0.233,0.097-0.329,0.159c-0.097,0.063-0.18,0.131-0.25,0.201c-0.071,0.07-0.129,0.134-0.175,0.189l-0.432-0.485
		c0.04-0.046,0.108-0.106,0.204-0.186c0.097-0.078,0.218-0.157,0.364-0.239c0.146-0.08,0.315-0.15,0.508-0.208
		c0.191-0.058,0.406-0.087,0.645-0.087c0.231,0,0.441,0.031,0.629,0.095c0.187,0.063,0.345,0.15,0.474,0.261
		c0.129,0.111,0.229,0.242,0.299,0.391c0.071,0.149,0.106,0.307,0.106,0.475c0,0.196-0.043,0.368-0.129,0.515
		c-0.086,0.147-0.19,0.275-0.314,0.387s-0.257,0.206-0.398,0.284c-0.141,0.078-0.268,0.146-0.379,0.201
		c-0.11,0.055-0.235,0.122-0.375,0.201c-0.139,0.078-0.271,0.166-0.397,0.265c-0.127,0.099-0.236,0.208-0.33,0.329
		s-0.152,0.254-0.178,0.395h2.584v0.606H195.189z"/>
</g>
<g>
	<path fill="#D2D2D2" d="M187.688,183.205c-0.546,0-1.083-0.085-1.611-0.254c-0.529-0.169-0.984-0.414-1.365-0.734l0.494-0.768
		c0.398,0.305,0.797,0.531,1.195,0.684c0.398,0.151,0.819,0.227,1.262,0.227c0.493,0,0.886-0.098,1.176-0.292
		c0.291-0.195,0.436-0.47,0.436-0.825c0-0.165-0.039-0.307-0.116-0.423c-0.078-0.117-0.195-0.219-0.352-0.306
		c-0.156-0.086-0.355-0.164-0.598-0.234c-0.243-0.068-0.524-0.143-0.846-0.221c-0.407-0.104-0.758-0.203-1.053-0.299
		s-0.537-0.208-0.728-0.338c-0.191-0.131-0.33-0.286-0.416-0.469c-0.087-0.182-0.13-0.406-0.13-0.676
		c0-0.338,0.066-0.639,0.201-0.903c0.134-0.265,0.318-0.485,0.553-0.663c0.233-0.178,0.509-0.312,0.825-0.402
		c0.316-0.092,0.656-0.137,1.021-0.137c0.512,0,0.988,0.082,1.43,0.247c0.442,0.165,0.814,0.382,1.118,0.649l-0.52,0.689
		c-0.286-0.252-0.607-0.439-0.962-0.565c-0.355-0.126-0.72-0.188-1.093-0.188c-0.416,0-0.769,0.089-1.06,0.266
		c-0.29,0.178-0.436,0.463-0.436,0.852c0,0.156,0.028,0.287,0.085,0.391s0.149,0.195,0.279,0.273s0.297,0.146,0.501,0.207
		c0.203,0.061,0.448,0.127,0.734,0.195c0.45,0.104,0.843,0.211,1.177,0.318c0.333,0.109,0.61,0.236,0.832,0.384
		c0.221,0.147,0.385,0.321,0.493,0.521s0.163,0.441,0.163,0.728c0,0.633-0.243,1.136-0.729,1.508
		C189.166,183.019,188.511,183.205,187.688,183.205z"/>
	<path fill="#D2D2D2" d="M191.134,178.746c0-0.203,0.016-0.393,0.049-0.568c0.033-0.178,0.095-0.347,0.186-0.508
		c0.091-0.162,0.216-0.316,0.375-0.463s0.368-0.293,0.626-0.439c0.151-0.081,0.306-0.16,0.462-0.238s0.3-0.162,0.429-0.25
		c0.129-0.089,0.234-0.184,0.318-0.285c0.083-0.101,0.125-0.22,0.125-0.355c0-0.086-0.021-0.172-0.061-0.258
		c-0.041-0.086-0.099-0.162-0.175-0.228s-0.171-0.118-0.284-0.159s-0.244-0.061-0.391-0.061c-0.151,0-0.289,0.021-0.413,0.064
		c-0.123,0.043-0.233,0.096-0.329,0.158c-0.097,0.064-0.18,0.131-0.25,0.201c-0.071,0.071-0.129,0.135-0.175,0.189l-0.432-0.484
		c0.04-0.046,0.108-0.107,0.204-0.186c0.097-0.078,0.218-0.158,0.364-0.239s0.315-0.15,0.508-0.208
		c0.191-0.059,0.406-0.088,0.645-0.088c0.231,0,0.441,0.032,0.629,0.096c0.187,0.062,0.345,0.15,0.474,0.261
		c0.129,0.111,0.229,0.241,0.299,0.391c0.071,0.149,0.106,0.307,0.106,0.474c0,0.197-0.043,0.369-0.129,0.516
		s-0.19,0.275-0.314,0.387s-0.257,0.205-0.398,0.283c-0.141,0.079-0.268,0.146-0.379,0.201c-0.11,0.056-0.235,0.123-0.375,0.201
		c-0.139,0.078-0.271,0.166-0.397,0.266c-0.127,0.098-0.236,0.208-0.33,0.329s-0.152,0.253-0.178,0.394h2.584v0.607H191.134z"/>
	<path fill="#D2D2D2" d="M197.576,185.615c0.323,0.056,0.58,0.205,0.77,0.447s0.284,0.543,0.284,0.902
		c0,0.232-0.043,0.443-0.129,0.637c-0.086,0.191-0.208,0.355-0.367,0.492s-0.351,0.241-0.572,0.314
		c-0.223,0.073-0.47,0.109-0.743,0.109c-0.384,0-0.721-0.072-1.012-0.216c-0.29-0.144-0.517-0.347-0.678-0.61l0.447-0.447
		c0.115,0.207,0.272,0.371,0.47,0.489c0.196,0.118,0.454,0.179,0.772,0.179c0.349,0,0.623-0.079,0.822-0.235
		c0.2-0.157,0.3-0.394,0.3-0.712s-0.107-0.572-0.322-0.762s-0.526-0.285-0.936-0.285h-0.197v-0.561h0.212
		c0.364,0,0.643-0.087,0.838-0.262c0.194-0.174,0.292-0.395,0.292-0.663c0-0.268-0.094-0.468-0.281-0.599
		c-0.187-0.131-0.422-0.197-0.704-0.197c-0.278,0-0.522,0.06-0.731,0.178c-0.21,0.119-0.373,0.285-0.489,0.497l-0.409-0.425
		c0.065-0.126,0.155-0.24,0.27-0.344c0.113-0.104,0.244-0.193,0.394-0.27s0.311-0.134,0.485-0.174
		c0.174-0.041,0.357-0.062,0.549-0.062c0.238,0,0.456,0.033,0.656,0.099c0.199,0.066,0.371,0.156,0.516,0.273
		c0.144,0.115,0.255,0.258,0.333,0.424c0.078,0.167,0.117,0.352,0.117,0.553c0,0.152-0.021,0.297-0.064,0.433
		s-0.105,0.261-0.189,0.372c-0.083,0.11-0.185,0.203-0.303,0.275C197.855,185.541,197.722,185.59,197.576,185.615z"/>
</g>
<g>
	<path fill="#D2D2D2" d="M187.688,228.205c-0.546,0-1.083-0.085-1.611-0.254c-0.529-0.169-0.984-0.414-1.365-0.734l0.494-0.768
		c0.398,0.305,0.797,0.531,1.195,0.684c0.398,0.151,0.819,0.227,1.262,0.227c0.493,0,0.886-0.098,1.176-0.292
		c0.291-0.195,0.436-0.47,0.436-0.825c0-0.165-0.039-0.307-0.116-0.423c-0.078-0.117-0.195-0.219-0.352-0.306
		c-0.156-0.086-0.355-0.164-0.598-0.234c-0.243-0.068-0.524-0.143-0.846-0.221c-0.407-0.104-0.758-0.203-1.053-0.299
		s-0.537-0.208-0.728-0.338c-0.191-0.131-0.33-0.286-0.416-0.469c-0.087-0.182-0.13-0.406-0.13-0.676
		c0-0.338,0.066-0.639,0.201-0.903c0.134-0.265,0.318-0.485,0.553-0.663c0.233-0.178,0.509-0.312,0.825-0.402
		c0.316-0.092,0.656-0.137,1.021-0.137c0.512,0,0.988,0.082,1.43,0.247c0.442,0.165,0.814,0.382,1.118,0.649l-0.52,0.689
		c-0.286-0.252-0.607-0.439-0.962-0.565c-0.355-0.126-0.72-0.188-1.093-0.188c-0.416,0-0.769,0.089-1.06,0.266
		c-0.29,0.178-0.436,0.463-0.436,0.852c0,0.156,0.028,0.287,0.085,0.391s0.149,0.195,0.279,0.273s0.297,0.146,0.501,0.207
		c0.203,0.061,0.448,0.127,0.734,0.195c0.45,0.104,0.843,0.211,1.177,0.318c0.333,0.109,0.61,0.236,0.832,0.384
		c0.221,0.147,0.385,0.321,0.493,0.521s0.163,0.441,0.163,0.728c0,0.633-0.243,1.136-0.729,1.508
		C189.166,228.019,188.511,228.205,187.688,228.205z"/>
	<path fill="#D2D2D2" d="M191.134,223.746c0-0.203,0.016-0.393,0.049-0.568c0.033-0.178,0.095-0.347,0.186-0.508
		c0.091-0.162,0.216-0.316,0.375-0.463s0.368-0.293,0.626-0.439c0.151-0.081,0.306-0.16,0.462-0.238s0.3-0.162,0.429-0.25
		c0.129-0.089,0.234-0.184,0.318-0.285c0.083-0.101,0.125-0.22,0.125-0.355c0-0.086-0.021-0.172-0.061-0.258
		c-0.041-0.086-0.099-0.162-0.175-0.228s-0.171-0.118-0.284-0.159s-0.244-0.061-0.391-0.061c-0.151,0-0.289,0.021-0.413,0.064
		c-0.123,0.043-0.233,0.096-0.329,0.158c-0.097,0.064-0.18,0.131-0.25,0.201c-0.071,0.071-0.129,0.135-0.175,0.189l-0.432-0.484
		c0.04-0.046,0.108-0.107,0.204-0.186c0.097-0.078,0.218-0.158,0.364-0.239s0.315-0.15,0.508-0.208
		c0.191-0.059,0.406-0.088,0.645-0.088c0.231,0,0.441,0.032,0.629,0.096c0.187,0.062,0.345,0.15,0.474,0.261
		c0.129,0.111,0.229,0.241,0.299,0.391c0.071,0.149,0.106,0.307,0.106,0.474c0,0.197-0.043,0.369-0.129,0.516
		s-0.19,0.275-0.314,0.387s-0.257,0.205-0.398,0.283c-0.141,0.079-0.268,0.146-0.379,0.201c-0.11,0.056-0.235,0.123-0.375,0.201
		c-0.139,0.078-0.271,0.166-0.397,0.266c-0.127,0.098-0.236,0.208-0.33,0.329s-0.152,0.253-0.178,0.394h2.584v0.607H191.134z"/>
	<path fill="#D2D2D2" d="M198.091,231.797v0.607h-2.721v-0.607h1.076v-2.955c-0.046,0.061-0.116,0.125-0.212,0.193
		c-0.097,0.068-0.204,0.131-0.322,0.189c-0.119,0.059-0.241,0.107-0.368,0.147c-0.126,0.04-0.237,0.061-0.333,0.061v-0.636
		c0.111,0,0.235-0.032,0.371-0.096c0.137-0.062,0.267-0.137,0.391-0.22s0.229-0.164,0.318-0.242
		c0.088-0.079,0.141-0.133,0.155-0.163h0.683v3.721H198.091z"/>
	<path fill="#D2D2D2" d="M202.517,230.184c0,0.333-0.048,0.641-0.144,0.92c-0.097,0.281-0.23,0.523-0.402,0.729
		c-0.172,0.204-0.375,0.363-0.609,0.477c-0.235,0.114-0.489,0.171-0.762,0.171c-0.278,0-0.535-0.057-0.77-0.171
		c-0.235-0.113-0.438-0.272-0.606-0.477c-0.169-0.205-0.302-0.447-0.397-0.729c-0.097-0.279-0.145-0.587-0.145-0.92
		c0-0.334,0.048-0.641,0.145-0.922c0.096-0.279,0.229-0.522,0.397-0.727c0.169-0.205,0.371-0.365,0.606-0.482
		c0.234-0.115,0.491-0.174,0.77-0.174c0.272,0,0.526,0.059,0.762,0.174c0.234,0.117,0.438,0.277,0.609,0.482
		c0.172,0.204,0.306,0.447,0.402,0.727C202.469,229.543,202.517,229.85,202.517,230.184z M201.842,230.184
		c0-0.248-0.03-0.475-0.091-0.683c-0.061-0.207-0.146-0.386-0.258-0.534c-0.11-0.148-0.242-0.264-0.394-0.345
		s-0.318-0.122-0.5-0.122c-0.188,0-0.358,0.041-0.512,0.122c-0.154,0.081-0.286,0.196-0.395,0.345s-0.193,0.327-0.254,0.534
		c-0.061,0.208-0.091,0.435-0.091,0.683c0,0.252,0.03,0.48,0.091,0.686s0.146,0.381,0.254,0.527s0.24,0.26,0.395,0.34
		c0.153,0.082,0.324,0.121,0.512,0.121c0.182,0,0.349-0.039,0.5-0.121c0.151-0.08,0.283-0.193,0.394-0.34
		c0.111-0.146,0.197-0.322,0.258-0.527S201.842,230.436,201.842,230.184z"/>
	<path fill="#D2D2D2" d="M207.17,230.184c0,0.333-0.047,0.641-0.143,0.92c-0.098,0.281-0.23,0.523-0.402,0.729
		c-0.172,0.204-0.375,0.363-0.609,0.477c-0.236,0.114-0.49,0.171-0.762,0.171c-0.279,0-0.536-0.057-0.77-0.171
		c-0.235-0.113-0.438-0.272-0.606-0.477c-0.169-0.205-0.302-0.447-0.397-0.729c-0.097-0.279-0.145-0.587-0.145-0.92
		c0-0.334,0.048-0.641,0.145-0.922c0.096-0.279,0.229-0.522,0.397-0.727c0.169-0.205,0.371-0.365,0.606-0.482
		c0.234-0.115,0.491-0.174,0.77-0.174c0.271,0,0.525,0.059,0.762,0.174c0.234,0.117,0.438,0.277,0.609,0.482
		c0.172,0.204,0.305,0.447,0.402,0.727C207.123,229.543,207.17,229.85,207.17,230.184z M206.496,230.184
		c0-0.248-0.031-0.475-0.092-0.683c-0.061-0.207-0.146-0.386-0.258-0.534c-0.109-0.148-0.242-0.264-0.393-0.345
		c-0.152-0.081-0.318-0.122-0.5-0.122c-0.188,0-0.359,0.041-0.512,0.122c-0.154,0.081-0.286,0.196-0.395,0.345
		s-0.193,0.327-0.254,0.534c-0.061,0.208-0.091,0.435-0.091,0.683c0,0.252,0.03,0.48,0.091,0.686s0.146,0.381,0.254,0.527
		s0.24,0.26,0.395,0.34c0.153,0.082,0.325,0.121,0.512,0.121c0.182,0,0.348-0.039,0.5-0.121c0.15-0.08,0.283-0.193,0.393-0.34
		c0.111-0.146,0.197-0.322,0.258-0.527S206.496,230.436,206.496,230.184z"/>
	<path fill="#D2D2D2" d="M211.824,230.184c0,0.333-0.049,0.641-0.145,0.92c-0.096,0.281-0.23,0.523-0.402,0.729
		c-0.172,0.204-0.375,0.363-0.609,0.477c-0.234,0.114-0.488,0.171-0.762,0.171c-0.277,0-0.535-0.057-0.77-0.171
		c-0.234-0.113-0.438-0.272-0.605-0.477c-0.17-0.205-0.303-0.447-0.398-0.729c-0.096-0.279-0.145-0.587-0.145-0.92
		c0-0.334,0.049-0.641,0.145-0.922c0.096-0.279,0.229-0.522,0.398-0.727c0.168-0.205,0.371-0.365,0.605-0.482
		c0.234-0.115,0.492-0.174,0.77-0.174c0.273,0,0.527,0.059,0.762,0.174c0.234,0.117,0.438,0.277,0.609,0.482
		c0.172,0.204,0.307,0.447,0.402,0.727C211.775,229.543,211.824,229.85,211.824,230.184z M211.148,230.184
		c0-0.248-0.029-0.475-0.09-0.683c-0.061-0.207-0.146-0.386-0.258-0.534s-0.242-0.264-0.395-0.345
		c-0.15-0.081-0.318-0.122-0.5-0.122c-0.188,0-0.357,0.041-0.512,0.122s-0.285,0.196-0.395,0.345
		c-0.107,0.148-0.193,0.327-0.254,0.534c-0.061,0.208-0.09,0.435-0.09,0.683c0,0.252,0.029,0.48,0.09,0.686s0.146,0.381,0.254,0.527
		c0.109,0.146,0.24,0.26,0.395,0.34c0.154,0.082,0.324,0.121,0.512,0.121c0.182,0,0.35-0.039,0.5-0.121
		c0.152-0.08,0.283-0.193,0.395-0.34s0.197-0.322,0.258-0.527S211.148,230.436,211.148,230.184z"/>
	<path fill="#D2D2D2" d="M216.477,230.184c0,0.333-0.047,0.641-0.143,0.92c-0.098,0.281-0.23,0.523-0.402,0.729
		c-0.172,0.204-0.375,0.363-0.609,0.477c-0.236,0.114-0.49,0.171-0.762,0.171c-0.279,0-0.535-0.057-0.77-0.171
		c-0.236-0.113-0.438-0.272-0.607-0.477c-0.168-0.205-0.301-0.447-0.396-0.729c-0.098-0.279-0.145-0.587-0.145-0.92
		c0-0.334,0.047-0.641,0.145-0.922c0.096-0.279,0.229-0.522,0.396-0.727c0.17-0.205,0.371-0.365,0.607-0.482
		c0.234-0.115,0.49-0.174,0.77-0.174c0.271,0,0.525,0.059,0.762,0.174c0.234,0.117,0.438,0.277,0.609,0.482
		c0.172,0.204,0.305,0.447,0.402,0.727C216.43,229.543,216.477,229.85,216.477,230.184z M215.803,230.184
		c0-0.248-0.031-0.475-0.092-0.683c-0.061-0.207-0.146-0.386-0.258-0.534c-0.109-0.148-0.242-0.264-0.393-0.345
		c-0.152-0.081-0.318-0.122-0.5-0.122c-0.188,0-0.359,0.041-0.512,0.122c-0.154,0.081-0.287,0.196-0.395,0.345
		c-0.109,0.148-0.193,0.327-0.254,0.534c-0.061,0.208-0.092,0.435-0.092,0.683c0,0.252,0.031,0.48,0.092,0.686
		s0.145,0.381,0.254,0.527c0.107,0.146,0.24,0.26,0.395,0.34c0.152,0.082,0.324,0.121,0.512,0.121c0.182,0,0.348-0.039,0.5-0.121
		c0.15-0.08,0.283-0.193,0.393-0.34c0.111-0.146,0.197-0.322,0.258-0.527S215.803,230.436,215.803,230.184z"/>
</g>
<g>
	<circle fill="#F0AD4E" cx="115.588" cy="72.149" r="6.037"/>
	<circle fill="#F0AD4E" cx="74.095" cy="72.149" r="6.037"/>
	<circle fill="#5BC0DE" cx="18.77" cy="72.148" r="6.037"/>
	<circle fill="#5BC0DE" cx="129.419" cy="72.148" r="6.038"/>
	<circle fill="#5BC0DE" cx="101.757" cy="72.148" r="6.037"/>
	<circle fill="#5BC0DE" cx="129.419" cy="43.158" r="6.037"/>
	<circle fill="#5BC0DE" cx="115.588" cy="43.158" r="6.037"/>
	<circle fill="#5BC0DE" cx="87.926" cy="72.148" r="6.037"/>
	<circle fill="#5BC0DE" cx="87.926" cy="43.158" r="6.037"/>
	<circle fill="#5BC0DE" cx="74.095" cy="43.158" r="6.037"/>
	<circle fill="#5BC0DE" cx="60.264" cy="72.148" r="6.037"/>
	<circle fill="#5BC0DE" cx="46.432" cy="43.158" r="6.037"/>
	<circle fill="#5BC0DE" cx="32.601" cy="43.158" r="6.037"/>
	<circle fill="#5BC0DE" cx="18.77" cy="43.158" r="6.037"/>
	<circle fill="#5BC0DE" cx="46.432" cy="72.148" r="6.038"/>
	<circle fill="#5BC0DE" cx="32.601" cy="72.148" r="6.038"/>
	<circle fill="#5BC0DE" cx="31.723" cy="58.217" r="6.037"/>
	<circle fill="#5BC0DE" cx="73.217" cy="58.217" r="6.037"/>
	<circle fill="#5BC0DE" cx="59.385" cy="58.217" r="6.038"/>
	<circle fill="#5BC0DE" cx="45.554" cy="58.217" r="6.038"/>
	<circle fill="#5BC0DE" cx="129.419" cy="58.544" r="6.037"/>
	<circle fill="#5BC0DE" cx="115.588" cy="58.544" r="6.037"/>
	<circle fill="#5BC0DE" cx="101.757" cy="58.544" r="6.037"/>
	<circle fill="#F0AD4E" cx="60.264" cy="43.158" r="6.037"/>
	<circle fill="#F0AD4E" cx="101.757" cy="43.158" r="6.037"/>
	<circle fill="#F0AD4E" cx="18.77" cy="58.217" r="6.037"/>
	<circle fill="#F0AD4E" cx="87.926" cy="58.217" r="6.037"/>
	<path fill="none" stroke="#636C72" stroke-width="2" d="M139.688,71.505c0,6.262-5.076,11.338-11.339,11.338H19.839
		c-6.263,0-11.339-5.077-11.339-11.338v-27.92c0-6.262,5.076-11.338,11.339-11.338H128.35c6.263,0,11.339,5.077,11.339,11.338
		V71.505z"/>
</g>
<g>
	<circle fill="#F0AD4E" cx="46.431" cy="164.515" r="6.038"/>
	<circle fill="#F0AD4E" cx="46.431" cy="136.842" r="6.038"/>
	<circle fill="#F0AD4E" cx="32.599" cy="192.885" r="6.038"/>
	<circle fill="#F0AD4E" cx="115.587" cy="136.842" r="6.037"/>
	<circle fill="#F0AD4E" cx="60.262" cy="179.073" r="6.038"/>
	<circle fill="#F0AD4E" cx="101.756" cy="179.073" r="6.038"/>
	<circle fill="#F0AD4E" cx="115.587" cy="206.96" r="6.038"/>
	<circle fill="#F0AD4E" cx="18.769" cy="164.515" r="6.037"/>
	<circle fill="#F0AD4E" cx="46.43" cy="220.821" r="6.038"/>
	<circle fill="#F0AD4E" cx="60.263" cy="220.821" r="6.037"/>
	<circle fill="#F0AD4E" cx="74.094" cy="150.786" r="6.037"/>
	<circle fill="#F0AD4E" cx="129.418" cy="164.515" r="6.038"/>
	<circle fill="#5BC0DE" cx="18.769" cy="136.842" r="6.038"/>
	<circle fill="#5BC0DE" cx="129.418" cy="136.842" r="6.038"/>
	<circle fill="#5BC0DE" cx="101.756" cy="136.842" r="6.037"/>
	<circle fill="#5BC0DE" cx="87.925" cy="136.842" r="6.037"/>
	<circle fill="#5BC0DE" cx="74.093" cy="136.842" r="6.038"/>
	<circle fill="#5BC0DE" cx="60.263" cy="136.842" r="6.037"/>
	<circle fill="#5BC0DE" cx="32.6" cy="136.842" r="6.038"/>
	<circle fill="#5BC0DE" cx="18.769" cy="150.786" r="6.038"/>
	<circle fill="#5BC0DE" cx="129.418" cy="150.786" r="6.038"/>
	<circle fill="#5BC0DE" cx="115.587" cy="150.786" r="6.037"/>
	<circle fill="#5BC0DE" cx="101.756" cy="150.786" r="6.037"/>
	<circle fill="#5BC0DE" cx="87.925" cy="150.786" r="6.037"/>
	<circle fill="#5BC0DE" cx="60.263" cy="150.786" r="6.037"/>
	<circle fill="#5BC0DE" cx="46.431" cy="150.786" r="6.038"/>
	<circle fill="#5BC0DE" cx="32.6" cy="150.786" r="6.038"/>
	<circle fill="#5BC0DE" cx="115.587" cy="164.515" r="6.037"/>
	<circle fill="#5BC0DE" cx="101.756" cy="164.515" r="6.037"/>
	<circle fill="#5BC0DE" cx="87.925" cy="164.515" r="6.037"/>
	<circle fill="#5BC0DE" cx="74.093" cy="164.515" r="6.038"/>
	<circle fill="#5BC0DE" cx="60.263" cy="164.515" r="6.037"/>
	<circle fill="#5BC0DE" cx="32.6" cy="164.515" r="6.038"/>
	<circle fill="#5BC0DE" cx="18.769" cy="179.073" r="6.038"/>
	<circle fill="#5BC0DE" cx="129.418" cy="179.073" r="6.038"/>
	<circle fill="#5BC0DE" cx="115.587" cy="179.073" r="6.037"/>
	<circle fill="#5BC0DE" cx="87.925" cy="179.073" r="6.037"/>
	<circle fill="#5BC0DE" cx="74.093" cy="179.073" r="6.038"/>
	<circle fill="#5BC0DE" cx="46.431" cy="179.073" r="6.038"/>
	<circle fill="#5BC0DE" cx="32.6" cy="179.073" r="6.038"/>
	<circle fill="#5BC0DE" cx="18.769" cy="192.884" r="6.038"/>
	<circle fill="#5BC0DE" cx="129.418" cy="192.884" r="6.038"/>
	<circle fill="#5BC0DE" cx="115.587" cy="192.884" r="6.037"/>
	<circle fill="#5BC0DE" cx="101.756" cy="192.884" r="6.037"/>
	<circle fill="#5BC0DE" cx="87.925" cy="192.884" r="6.037"/>
	<circle fill="#5BC0DE" cx="74.093" cy="192.884" r="6.038"/>
	<circle fill="#5BC0DE" cx="60.263" cy="192.884" r="6.037"/>
	<circle fill="#5BC0DE" cx="46.431" cy="192.884" r="6.038"/>
	<circle fill="#5BC0DE" cx="18.769" cy="206.96" r="6.038"/>
	<circle fill="#5BC0DE" cx="129.418" cy="206.96" r="6.038"/>
	<circle fill="#5BC0DE" cx="101.756" cy="206.96" r="6.037"/>
	<circle fill="#5BC0DE" cx="87.925" cy="206.96" r="6.037"/>
	<circle fill="#5BC0DE" cx="74.093" cy="206.96" r="6.038"/>
	<circle fill="#5BC0DE" cx="60.263" cy="206.96" r="6.037"/>
	<circle fill="#5BC0DE" cx="46.431" cy="206.96" r="6.038"/>
	<circle fill="#5BC0DE" cx="32.6" cy="206.96" r="6.038"/>
	<circle fill="#5BC0DE" cx="18.769" cy="220.821" r="6.038"/>
	<circle fill="#5BC0DE" cx="129.418" cy="220.821" r="6.038"/>
	<circle fill="#5BC0DE" cx="115.587" cy="220.821" r="6.037"/>
	<circle fill="#5BC0DE" cx="101.756" cy="220.821" r="6.037"/>
	<circle fill="#5BC0DE" cx="87.925" cy="220.821" r="6.037"/>
	<circle fill="#5BC0DE" cx="74.093" cy="220.821" r="6.038"/>
	<circle fill="#5BC0DE" cx="32.6" cy="220.821" r="6.038"/>
	<path fill="none" stroke="#636C72" stroke-width="2" d="M140.422,219.661c0,6.263-5.076,11.339-11.339,11.339H19.104
		c-6.263,0-11.339-5.076-11.339-11.339v-81.572c0-6.263,5.076-11.339,11.339-11.339h109.979c6.263,0,11.339,5.076,11.339,11.339
		V219.661z"/>
</g>
<g>
	<path fill="#D2D2D2" d="M369.789,74.961c-0.467,0-0.9-0.095-1.299-0.286c-0.398-0.191-0.742-0.446-1.027-0.767
		s-0.51-0.693-0.67-1.118c-0.16-0.424-0.24-0.871-0.24-1.339c0-0.477,0.076-0.93,0.229-1.358c0.15-0.429,0.363-0.804,0.637-1.125
		c0.271-0.321,0.598-0.574,0.975-0.761c0.377-0.186,0.791-0.279,1.24-0.279c0.547,0,1.035,0.143,1.463,0.429
		c0.43,0.286,0.77,0.633,1.021,1.04v-4.056h1.145v8.086c0,0.269,0.121,0.407,0.363,0.416v0.988c-0.121,0.017-0.219,0.03-0.293,0.039
		c-0.074,0.008-0.145,0.013-0.215,0.013c-0.225,0-0.422-0.076-0.592-0.227c-0.168-0.152-0.252-0.327-0.252-0.527v-0.572
		c-0.27,0.442-0.627,0.787-1.072,1.033C370.754,74.838,370.283,74.961,369.789,74.961z M370.062,73.974
		c0.209,0,0.422-0.039,0.645-0.117c0.221-0.078,0.428-0.186,0.623-0.325s0.363-0.301,0.508-0.488
		c0.143-0.186,0.236-0.383,0.279-0.591v-1.95c-0.078-0.216-0.195-0.422-0.352-0.617c-0.156-0.195-0.332-0.364-0.525-0.507
		c-0.195-0.143-0.404-0.255-0.625-0.338c-0.221-0.082-0.439-0.124-0.656-0.124c-0.338,0-0.645,0.072-0.916,0.214
		c-0.273,0.143-0.508,0.334-0.703,0.572s-0.344,0.511-0.447,0.819c-0.105,0.308-0.156,0.622-0.156,0.942
		c0,0.338,0.061,0.661,0.182,0.969s0.285,0.574,0.494,0.799c0.207,0.226,0.453,0.405,0.734,0.54
		C369.428,73.907,369.732,73.974,370.062,73.974z"/>
	<path fill="#D2D2D2" d="M377.477,78.554v0.606h-2.721v-0.606h1.076v-2.956c-0.045,0.061-0.115,0.125-0.211,0.193
		c-0.098,0.068-0.205,0.131-0.322,0.189c-0.119,0.058-0.242,0.107-0.369,0.147c-0.125,0.041-0.236,0.061-0.332,0.061v-0.636
		c0.111,0,0.234-0.032,0.371-0.095c0.137-0.063,0.266-0.137,0.391-0.22c0.123-0.083,0.229-0.164,0.318-0.242
		c0.088-0.079,0.141-0.133,0.154-0.163h0.684v3.721H377.477z"/>
	<path fill="#D2D2D2" d="M378.531,70.763v-0.78h3.965v0.78H378.531z M378.531,72.504v-0.78h3.965v0.78H378.531z"/>
</g>
<g>
	<path fill="#D2D2D2" d="M149.738,225.847h-1.144v-3.796c0-0.729-0.11-1.257-0.331-1.586c-0.222-0.33-0.558-0.494-1.008-0.494
		c-0.234,0-0.468,0.045-0.702,0.137c-0.234,0.091-0.455,0.215-0.663,0.37c-0.208,0.156-0.39,0.343-0.546,0.56
		s-0.273,0.455-0.351,0.715v4.095h-1.145v-6.786h1.04v1.456c0.269-0.477,0.656-0.858,1.164-1.144c0.507-0.286,1.059-0.43,1.657-0.43
		c0.39,0,0.715,0.072,0.975,0.215s0.468,0.342,0.624,0.598s0.267,0.557,0.332,0.904c0.064,0.346,0.097,0.723,0.097,1.131V225.847z"
		/>
	<path fill="#D2D2D2" d="M150.923,230.176c0-0.202,0.016-0.392,0.049-0.568s0.095-0.346,0.186-0.508s0.216-0.316,0.375-0.463
		s0.368-0.293,0.626-0.439c0.151-0.08,0.306-0.16,0.462-0.238s0.3-0.162,0.429-0.25s0.234-0.184,0.318-0.284
		c0.083-0.101,0.125-0.22,0.125-0.356c0-0.086-0.021-0.172-0.061-0.258c-0.041-0.086-0.099-0.162-0.175-0.227
		c-0.076-0.066-0.171-0.119-0.284-0.16c-0.113-0.04-0.244-0.061-0.391-0.061c-0.151,0-0.289,0.021-0.413,0.064
		c-0.123,0.043-0.233,0.096-0.329,0.159c-0.097,0.063-0.18,0.13-0.25,0.201c-0.071,0.071-0.129,0.134-0.175,0.189l-0.432-0.485
		c0.04-0.045,0.108-0.107,0.204-0.186c0.097-0.078,0.218-0.158,0.364-0.238c0.146-0.081,0.315-0.15,0.508-0.209
		c0.191-0.058,0.406-0.087,0.645-0.087c0.231,0,0.441,0.032,0.629,0.095c0.187,0.062,0.345,0.15,0.474,0.262
		s0.229,0.241,0.299,0.391c0.071,0.148,0.106,0.307,0.106,0.473c0,0.197-0.043,0.369-0.129,0.516s-0.19,0.275-0.314,0.387
		s-0.257,0.206-0.398,0.284c-0.141,0.079-0.268,0.146-0.379,0.2c-0.11,0.057-0.235,0.123-0.375,0.201
		c-0.139,0.078-0.271,0.167-0.397,0.266c-0.127,0.099-0.236,0.209-0.33,0.33s-0.152,0.252-0.178,0.394h2.584v0.606H150.923z"/>
</g>
<g>
	<g>
		<g>
			<path fill="#D2D2D2" d="M145.911,57.452c0,0,1.917-2.28,4.791-5.699c1.439-1.708,3.119-3.7,4.918-5.834
				c1.812-2.124,3.745-4.389,5.677-6.654c1.926-2.271,3.852-4.542,5.658-6.671c1.792-2.142,3.498-4.11,5.021-5.743
				c0.753-0.825,1.472-1.554,2.094-2.215c0.632-0.651,1.184-1.219,1.638-1.687c0.919-0.925,1.444-1.454,1.444-1.454l1.071,0.955
				c0,0-0.465,0.582-1.28,1.6c-0.413,0.504-0.914,1.117-1.489,1.819c-0.585,0.693-1.228,1.491-1.961,2.333
				c-1.448,1.7-3.209,3.619-5.133,5.643c-1.91,2.037-3.946,4.208-5.983,6.381c-2.03,2.178-4.06,4.356-5.963,6.398
				c-1.916,2.031-3.703,3.927-5.236,5.551c-3.069,3.246-5.116,5.409-5.116,5.409L145.911,57.452z"/>
			<g>
				<polygon fill="#D2D2D2" points="182.386,16.702 178.798,26.833 177.335,22.366 172.731,21.422 				"/>
			</g>
		</g>
	</g>
	<g>
		<g>
			<path fill="#D2D2D2" d="M145.989,59.898c0,0,1.836-0.027,4.591-0.067c2.755-0.053,6.427-0.084,10.098-0.086
				c1.836-0.01,3.672-0.02,5.393-0.029c1.722-0.027,3.329-0.052,4.705-0.031c1.375,0.034,2.521,0.107,3.322,0.176
				c0.801,0.063,1.259,0.1,1.259,0.1l-0.053,1.796c0,0-0.459,0.01-1.263,0.026c-0.804,0.021-1.951,0.028-3.326-0.019
				c-1.375-0.06-2.978-0.179-4.694-0.306c-1.718-0.11-3.55-0.228-5.382-0.345c-3.665-0.217-7.329-0.463-10.075-0.678
				c-2.748-0.201-4.579-0.335-4.579-0.335L145.989,59.898z"/>
			<g>
				<polygon fill="#D2D2D2" points="182.386,61.065 172.322,64.837 174.801,60.843 172.561,56.711 				"/>
			</g>
		</g>
	</g>
	<g>
		<g>
			<polygon fill="#D2D2D2" points="146.028,61.147 147.412,61.73 147.276,62.019 145.943,61.328 			"/>
			<polygon fill="#D2D2D2" points="149.149,62.461 151.755,63.559 151.461,64.188 148.95,62.887 			"/>
			<polygon fill="#D2D2D2" points="153.493,64.291 156.096,65.396 155.649,66.349 153.135,65.055 			"/>
			<polygon fill="#D2D2D2" points="157.825,66.145 160.419,67.268 159.854,68.475 157.331,67.199 			"/>
			<polygon fill="#D2D2D2" points="162.149,68.016 164.744,69.138 164.058,70.602 161.536,69.325 			"/>
			<polygon fill="#D2D2D2" points="166.477,69.879 169.084,70.976 168.246,72.762 165.736,71.46 			"/>
			<path fill="#D2D2D2" d="M170.808,71.735c0,0,0.647,0.284,1.282,0.593c0.639,0.302,1.268,0.625,1.268,0.625l-0.857,1.829
				c0,0-0.65-0.277-1.291-0.575c-0.644-0.291-1.276-0.606-1.276-0.606L170.808,71.735z"/>
			<path fill="#D2D2D2" d="M175.031,73.823c0,0,0.333,0.174,0.665,0.349c0.329,0.181,0.659,0.362,0.659,0.362l-0.723,1.542
				c0,0-0.35-0.138-0.699-0.275c-0.347-0.144-0.693-0.288-0.693-0.288L175.031,73.823z"/>
			<g>
				<polygon fill="#D2D2D2" points="182.386,78.301 171.652,77.759 175.515,75.08 175.103,70.398 				"/>
			</g>
		</g>
	</g>
	<g>
		<g>
			<path fill="#D2D2D2" d="M146.058,62.408c0,0,2.032,1.991,5.08,4.978c1.521,1.496,3.297,3.24,5.2,5.109
				c1.89,1.881,3.906,3.887,5.922,5.893c2.022,2,4.044,4,5.94,5.876c0.959,0.927,1.869,1.839,2.728,2.709
				c0.866,0.862,1.657,1.703,2.38,2.487c1.442,1.571,2.627,2.897,3.44,3.842c0.814,0.943,1.279,1.482,1.279,1.482l-1.062,1.02
				c0,0-0.52-0.486-1.429-1.338c-0.911-0.851-2.188-2.089-3.699-3.593c-0.754-0.755-1.562-1.58-2.389-2.479
				c-0.833-0.894-1.708-1.84-2.596-2.836c-1.797-1.971-3.713-4.072-5.63-6.174c-1.923-2.096-3.845-4.192-5.647-6.157
				c-1.791-1.977-3.461-3.821-4.894-5.403c-2.86-3.167-4.768-5.277-4.768-5.277L146.058,62.408z"/>
			<g>
				<polygon fill="#D2D2D2" points="182.386,100.387 172.563,96.026 177.13,94.913 178.427,90.396 				"/>
			</g>
		</g>
	</g>
	<g>
		<g>
			<path fill="#D2D2D2" d="M145.94,58.669c0,0,1.845-1.05,4.613-2.626c2.761-1.588,6.465-3.664,10.179-5.72
				c1.853-1.036,3.706-2.072,5.443-3.043c1.726-0.993,3.344-1.905,4.758-2.634c1.414-0.73,2.624-1.279,3.467-1.669
				c0.84-0.396,1.332-0.6,1.332-0.6l0.776,1.495c0,0-0.449,0.286-1.257,0.744c-0.805,0.465-1.95,1.137-3.36,1.874
				c-1.411,0.735-3.088,1.534-4.894,2.373c-1.794,0.861-3.708,1.779-5.622,2.698c-3.819,1.852-7.649,3.685-10.538,5.028
				c-2.882,1.355-4.804,2.259-4.804,2.259L145.94,58.669z"/>
			<g>
				<polygon fill="#D2D2D2" points="182.386,39.873 175.427,48.063 175.65,43.367 171.683,40.847 				"/>
			</g>
		</g>
	</g>
</g>
<g>
	<g>
		<g>
			<path fill="#D2D2D2" d="M145.911,177.98c0,0,1.917-2.279,4.791-5.699c1.439-1.707,3.119-3.699,4.918-5.834
				c1.812-2.124,3.745-4.389,5.677-6.654c1.926-2.271,3.852-4.541,5.658-6.671c1.792-2.142,3.498-4.11,5.021-5.743
				c0.753-0.824,1.472-1.554,2.094-2.215c0.632-0.65,1.184-1.219,1.638-1.687c0.919-0.925,1.444-1.454,1.444-1.454l1.071,0.955
				c0,0-0.465,0.582-1.28,1.6c-0.413,0.505-0.914,1.117-1.489,1.82c-0.585,0.693-1.228,1.49-1.961,2.332
				c-1.448,1.7-3.209,3.619-5.133,5.644c-1.91,2.036-3.946,4.208-5.983,6.381c-2.03,2.179-4.06,4.356-5.963,6.398
				c-1.916,2.031-3.703,3.927-5.236,5.552c-3.069,3.245-5.116,5.408-5.116,5.408L145.911,177.98z"/>
			<g>
				<polygon fill="#D2D2D2" points="182.386,137.231 178.798,147.363 177.335,142.895 172.731,141.951 				"/>
			</g>
		</g>
	</g>
	<g>
		<g>
			<path fill="#D2D2D2" d="M145.989,180.428c0,0,1.836-0.027,4.591-0.067c2.755-0.054,6.427-0.085,10.098-0.087
				c1.836-0.01,3.672-0.02,5.393-0.028c1.722-0.027,3.329-0.052,4.705-0.031c1.375,0.034,2.521,0.107,3.322,0.176
				c0.801,0.063,1.259,0.1,1.259,0.1l-0.053,1.796c0,0-0.459,0.01-1.263,0.025c-0.804,0.021-1.951,0.028-3.326-0.019
				c-1.375-0.06-2.978-0.179-4.694-0.306c-1.718-0.111-3.55-0.229-5.382-0.346c-3.665-0.217-7.329-0.463-10.075-0.678
				c-2.748-0.201-4.579-0.336-4.579-0.336L145.989,180.428z"/>
			<g>
				<polygon fill="#D2D2D2" points="182.386,181.594 172.322,185.366 174.801,181.372 172.561,177.24 				"/>
			</g>
		</g>
	</g>
	<g>
		<g>
			<polygon fill="#D2D2D2" points="146.028,181.677 147.412,182.26 147.276,182.549 145.943,181.857 			"/>
			<polygon fill="#D2D2D2" points="149.149,182.99 151.755,184.088 151.461,184.717 148.95,183.416 			"/>
			<polygon fill="#D2D2D2" points="153.493,184.82 156.096,185.926 155.649,186.878 153.135,185.584 			"/>
			<polygon fill="#D2D2D2" points="157.825,186.674 160.419,187.797 159.854,189.004 157.331,187.729 			"/>
			<polygon fill="#D2D2D2" points="162.149,188.545 164.744,189.668 164.058,191.131 161.536,189.854 			"/>
			<polygon fill="#D2D2D2" points="166.477,190.408 169.084,191.505 168.246,193.291 165.736,191.989 			"/>
			<path fill="#D2D2D2" d="M170.808,192.265c0,0.001,0.647,0.284,1.282,0.593c0.639,0.303,1.268,0.625,1.268,0.625l-0.857,1.829
				c0,0-0.65-0.276-1.291-0.575c-0.644-0.29-1.276-0.605-1.276-0.605L170.808,192.265z"/>
			<path fill="#D2D2D2" d="M175.031,194.352c0,0,0.333,0.175,0.665,0.35c0.329,0.181,0.659,0.361,0.659,0.361l-0.723,1.541
				c0,0-0.35-0.137-0.699-0.274c-0.347-0.144-0.693-0.288-0.693-0.288L175.031,194.352z"/>
			<g>
				<polygon fill="#D2D2D2" points="182.386,198.83 171.652,198.288 175.515,195.609 175.103,190.928 				"/>
			</g>
		</g>
	</g>
	<g>
		<g>
			<path fill="#D2D2D2" d="M146.058,182.938c0,0,2.032,1.991,5.08,4.978c1.521,1.495,3.297,3.239,5.2,5.108
				c1.89,1.881,3.906,3.887,5.922,5.894c2.022,2,4.044,4,5.94,5.876c0.959,0.927,1.869,1.839,2.728,2.709
				c0.866,0.862,1.657,1.703,2.38,2.487c1.442,1.571,2.627,2.897,3.44,3.842c0.814,0.943,1.279,1.482,1.279,1.482l-1.062,1.02
				c0,0-0.52-0.486-1.429-1.338c-0.911-0.851-2.188-2.089-3.699-3.593c-0.754-0.755-1.562-1.58-2.389-2.479
				c-0.833-0.894-1.708-1.84-2.596-2.836c-1.797-1.971-3.713-4.072-5.63-6.174c-1.923-2.096-3.845-4.192-5.647-6.157
				c-1.791-1.977-3.461-3.82-4.894-5.402c-2.86-3.166-4.768-5.277-4.768-5.277L146.058,182.938z"/>
			<g>
				<polygon fill="#D2D2D2" points="182.386,220.916 172.563,216.556 177.13,215.442 178.427,210.925 				"/>
			</g>
		</g>
	</g>
	<g>
		<g>
			<path fill="#D2D2D2" d="M145.94,179.198c0,0,1.845-1.05,4.613-2.626c2.761-1.589,6.465-3.664,10.179-5.721
				c1.853-1.035,3.706-2.072,5.443-3.043c1.726-0.992,3.344-1.904,4.758-2.635c1.414-0.729,2.624-1.278,3.467-1.668
				c0.84-0.396,1.332-0.6,1.332-0.6l0.776,1.494c0,0-0.449,0.286-1.257,0.744c-0.805,0.465-1.95,1.138-3.36,1.874
				c-1.411,0.735-3.088,1.534-4.894,2.372c-1.794,0.861-3.708,1.779-5.622,2.698c-3.819,1.853-7.649,3.685-10.538,5.028
				c-2.882,1.355-4.804,2.259-4.804,2.259L145.94,179.198z"/>
			<g>
				<polygon fill="#D2D2D2" points="182.386,160.402 175.427,168.592 175.65,163.896 171.683,161.376 				"/>
			</g>
		</g>
	</g>
</g>
<circle fill="#5BC0DE" cx="334.244" cy="13.999" r="6.037"/>
<circle fill="#5BC0DE" cx="320.413" cy="13.999" r="6.037"/>
<circle fill="#5BC0DE" cx="292.751" cy="13.999" r="6.037"/>
<circle fill="#5BC0DE" cx="278.92" cy="13.999" r="6.037"/>
<circle fill="#5BC0DE" cx="236.257" cy="13.999" r="6.037"/>
<circle fill="#5BC0DE" cx="222.426" cy="13.999" r="6.037"/>
<circle fill="#5BC0DE" cx="208.595" cy="13.999" r="6.037"/>
<circle fill="#F0AD4E" cx="250.089" cy="14" r="6.037"/>
<circle fill="#F0AD4E" cx="306.582" cy="14" r="6.037"/>
<circle fill="#5BC0DE" cx="334.244" cy="36.872" r="6.037"/>
<circle fill="#5BC0DE" cx="320.413" cy="36.872" r="6.037"/>
<circle fill="#5BC0DE" cx="292.751" cy="36.872" r="6.037"/>
<circle fill="#5BC0DE" cx="236.257" cy="36.872" r="6.037"/>
<circle fill="#5BC0DE" cx="208.595" cy="36.872" r="6.037"/>
<circle fill="#5BC0DE" cx="250.089" cy="36.872" r="6.037"/>
<circle fill="#F0AD4E" cx="306.582" cy="36.873" r="6.037"/>
<circle fill="#5BC0DE" cx="320.413" cy="59.945" r="6.037"/>
<circle fill="#5BC0DE" cx="292.751" cy="59.945" r="6.037"/>
<circle fill="#5BC0DE" cx="306.582" cy="59.945" r="6.037"/>
<circle fill="#5BC0DE" cx="278.92" cy="59.945" r="6.037"/>
<circle fill="#5BC0DE" cx="236.257" cy="59.945" r="6.037"/>
<circle fill="#F0AD4E" cx="250.089" cy="59.946" r="6.037"/>
<circle fill="#F0AD4E" cx="334.244" cy="137.232" r="6.037"/>
<circle fill="#F0AD4E" cx="292.751" cy="137.232" r="6.037"/>
<circle fill="#F0AD4E" cx="292.751" cy="98.387" r="6.037"/>
<circle fill="#F0AD4E" cx="278.92" cy="137.232" r="6.037"/>
<circle fill="#F0AD4E" cx="222.426" cy="137.232" r="6.037"/>
<circle fill="#F0AD4E" cx="208.595" cy="137.232" r="6.037"/>
<path fill="#5BC0DE" d="M326.45,137.23c0,3.336-2.702,6.039-6.037,6.039c-3.334,0-6.037-2.703-6.037-6.039
	c0-3.332,2.703-6.036,6.037-6.036C323.748,131.194,326.45,133.898,326.45,137.23z"/>
<path fill="#5BC0DE" d="M312.619,137.23c0,3.336-2.703,6.039-6.037,6.039s-6.037-2.703-6.037-6.039c0-3.332,2.703-6.036,6.037-6.036
	S312.619,133.898,312.619,137.23z"/>
<path fill="#5BC0DE" d="M242.294,137.23c0,3.336-2.703,6.039-6.037,6.039s-6.037-2.703-6.037-6.039c0-3.332,2.703-6.036,6.037-6.036
	S242.294,133.898,242.294,137.23z"/>
<path fill="#5BC0DE" d="M256.126,136.84c0,3.336-2.703,6.039-6.037,6.039s-6.037-2.703-6.037-6.039c0-3.332,2.703-6.036,6.037-6.036
	S256.126,133.508,256.126,136.84z"/>
<circle fill="#F0AD4E" cx="334.244" cy="160.402" r="6.037"/>
<circle fill="#F0AD4E" cx="306.582" cy="160.402" r="6.037"/>
<circle fill="#F0AD4E" cx="222.426" cy="160.402" r="6.037"/>
<path fill="#5BC0DE" d="M326.45,160.4c0,3.336-2.702,6.039-6.037,6.039c-3.334,0-6.037-2.703-6.037-6.039
	c0-3.332,2.703-6.036,6.037-6.036C323.748,154.364,326.45,157.068,326.45,160.4z"/>
<path fill="#5BC0DE" d="M298.788,160.4c0,3.336-2.703,6.039-6.037,6.039s-6.037-2.703-6.037-6.039c0-3.332,2.703-6.036,6.037-6.036
	S298.788,157.068,298.788,160.4z"/>
<path fill="#5BC0DE" d="M284.957,160.4c0,3.336-2.703,6.039-6.037,6.039s-6.037-2.703-6.037-6.039c0-3.332,2.703-6.036,6.037-6.036
	S284.957,157.068,284.957,160.4z"/>
<path fill="#5BC0DE" d="M242.294,160.4c0,3.336-2.703,6.039-6.037,6.039s-6.037-2.703-6.037-6.039c0-3.332,2.703-6.036,6.037-6.036
	S242.294,157.068,242.294,160.4z"/>
<circle fill="#F0AD4E" cx="250.089" cy="160.402" r="6.037"/>
<circle fill="#F0AD4E" cx="208.595" cy="218.917" r="6.037"/>
<path fill="#5BC0DE" d="M326.45,218.915c0,3.336-2.702,6.039-6.037,6.039c-3.334,0-6.037-2.703-6.037-6.039
	c0-3.332,2.703-6.036,6.037-6.036C323.748,212.879,326.45,215.583,326.45,218.915z"/>
<path fill="#5BC0DE" d="M298.788,218.915c0,3.336-2.703,6.039-6.037,6.039s-6.037-2.703-6.037-6.039
	c0-3.332,2.703-6.036,6.037-6.036S298.788,215.583,298.788,218.915z"/>
<path fill="#5BC0DE" d="M312.619,218.915c0,3.336-2.703,6.039-6.037,6.039s-6.037-2.703-6.037-6.039
	c0-3.332,2.703-6.036,6.037-6.036S312.619,215.583,312.619,218.915z"/>
<path fill="#5BC0DE" d="M284.957,218.915c0,3.336-2.703,6.039-6.037,6.039s-6.037-2.703-6.037-6.039
	c0-3.332,2.703-6.036,6.037-6.036S284.957,215.583,284.957,218.915z"/>
<path fill="#5BC0DE" d="M242.294,218.915c0,3.336-2.703,6.039-6.037,6.039s-6.037-2.703-6.037-6.039
	c0-3.332,2.703-6.036,6.037-6.036S242.294,215.583,242.294,218.915z"/>
<circle fill="#F0AD4E" cx="250.089" cy="218.917" r="6.037"/>
<circle fill="#F0AD4E" cx="278.92" cy="181.062" r="6.037"/>
<circle fill="#F0AD4E" cx="222.426" cy="181.062" r="6.037"/>
<circle fill="#F0AD4E" cx="208.595" cy="181.062" r="6.037"/>
<path fill="#5BC0DE" d="M326.45,181.06c0,3.336-2.702,6.039-6.037,6.039c-3.334,0-6.037-2.703-6.037-6.039
	c0-3.332,2.703-6.036,6.037-6.036C323.748,175.023,326.45,177.728,326.45,181.06z"/>
<path fill="#5BC0DE" d="M298.788,181.06c0,3.336-2.703,6.039-6.037,6.039s-6.037-2.703-6.037-6.039c0-3.332,2.703-6.036,6.037-6.036
	S298.788,177.728,298.788,181.06z"/>
<path fill="#5BC0DE" d="M312.619,181.06c0,3.336-2.703,6.039-6.037,6.039s-6.037-2.703-6.037-6.039c0-3.332,2.703-6.036,6.037-6.036
	S312.619,177.728,312.619,181.06z"/>
<path fill="#5BC0DE" d="M242.294,181.06c0,3.336-2.703,6.039-6.037,6.039s-6.037-2.703-6.037-6.039c0-3.332,2.703-6.036,6.037-6.036
	S242.294,177.728,242.294,181.06z"/>
<circle fill="#F0AD4E" cx="250.089" cy="181.062" r="6.037"/>
<circle fill="#5BC0DE" cx="334.244" cy="98.386" r="6.037"/>
<circle fill="#5BC0DE" cx="320.413" cy="98.386" r="6.037"/>
<circle fill="#5BC0DE" cx="306.582" cy="98.386" r="6.037"/>
<circle fill="#5BC0DE" cx="278.92" cy="98.386" r="6.037"/>
<circle fill="#5BC0DE" cx="222.426" cy="98.386" r="6.037"/>
<circle fill="#5BC0DE" cx="208.595" cy="98.386" r="6.037"/>
<circle fill="#F0AD4E" cx="250.089" cy="98.387" r="6.037"/>
<g>
	<g>
		<line fill="none" stroke="#D2D2D2" stroke-miterlimit="10" x1="233.5" y1="72.149" x2="233.5" y2="73.149"/>
		
			<line fill="none" stroke="#D2D2D2" stroke-miterlimit="10" stroke-dasharray="1.7644,1.7644" x1="233.5" y1="74.914" x2="233.5" y2="84.618"/>
		<line fill="none" stroke="#D2D2D2" stroke-miterlimit="10" x1="233.5" y1="85.5" x2="233.5" y2="86.5"/>
	</g>
</g>
<g>
	<g>
		<line fill="none" stroke="#D2D2D2" stroke-miterlimit="10" x1="374.338" y1="82.628" x2="374.704" y2="83.559"/>
		
			<line fill="none" stroke="#D2D2D2" stroke-miterlimit="10" stroke-dasharray="2.0961,2.0961" x1="375.473" y1="85.509" x2="388.912" y2="119.641"/>
		<line fill="none" stroke="#D2D2D2" stroke-miterlimit="10" x1="389.296" y1="120.615" x2="389.662" y2="121.546"/>
	</g>
</g>
<g>
	<g>
		<line fill="none" stroke="#D2D2D2" stroke-miterlimit="10" x1="268.56" y1="14" x2="267.56" y2="14"/>
		
			<line fill="none" stroke="#D2D2D2" stroke-miterlimit="10" stroke-dasharray="1.8424,0.9212" x1="266.639" y1="14" x2="261.572" y2="14"/>
		<line fill="none" stroke="#D2D2D2" stroke-miterlimit="10" x1="261.111" y1="14" x2="260.111" y2="14"/>
	</g>
</g>
<g>
	<g>
		<line fill="none" stroke="#D2D2D2" stroke-miterlimit="10" x1="268.56" y1="37.121" x2="267.56" y2="37.121"/>
		
			<line fill="none" stroke="#D2D2D2" stroke-miterlimit="10" stroke-dasharray="1.8424,0.9212" x1="266.639" y1="37.121" x2="261.572" y2="37.121"/>
		<line fill="none" stroke="#D2D2D2" stroke-miterlimit="10" x1="261.111" y1="37.121" x2="260.111" y2="37.121"/>
	</g>
</g>
<g>
	<g>
		<line fill="none" stroke="#D2D2D2" stroke-miterlimit="10" x1="268.56" y1="59.998" x2="267.56" y2="59.998"/>
		
			<line fill="none" stroke="#D2D2D2" stroke-miterlimit="10" stroke-dasharray="1.8424,0.9212" x1="266.639" y1="59.998" x2="261.572" y2="59.998"/>
		<line fill="none" stroke="#D2D2D2" stroke-miterlimit="10" x1="261.111" y1="59.998" x2="260.111" y2="59.998"/>
	</g>
</g>
<g>
	<g>
		<line fill="none" stroke="#D2D2D2" stroke-miterlimit="10" x1="268.56" y1="98.387" x2="267.56" y2="98.387"/>
		
			<line fill="none" stroke="#D2D2D2" stroke-miterlimit="10" stroke-dasharray="1.8424,0.9212" x1="266.639" y1="98.387" x2="261.572" y2="98.387"/>
		<line fill="none" stroke="#D2D2D2" stroke-miterlimit="10" x1="261.111" y1="98.387" x2="260.111" y2="98.387"/>
	</g>
</g>
<g>
	<g>
		<line fill="none" stroke="#D2D2D2" stroke-miterlimit="10" x1="268.56" y1="137.232" x2="267.56" y2="137.232"/>
		
			<line fill="none" stroke="#D2D2D2" stroke-miterlimit="10" stroke-dasharray="1.8424,0.9212" x1="266.639" y1="137.232" x2="261.572" y2="137.232"/>
		<line fill="none" stroke="#D2D2D2" stroke-miterlimit="10" x1="261.111" y1="137.232" x2="260.111" y2="137.232"/>
	</g>
</g>
<g>
	<g>
		<line fill="none" stroke="#D2D2D2" stroke-miterlimit="10" x1="268.56" y1="160.402" x2="267.56" y2="160.402"/>
		
			<line fill="none" stroke="#D2D2D2" stroke-miterlimit="10" stroke-dasharray="1.8424,0.9212" x1="266.639" y1="160.402" x2="261.572" y2="160.402"/>
		<line fill="none" stroke="#D2D2D2" stroke-miterlimit="10" x1="261.111" y1="160.402" x2="260.111" y2="160.402"/>
	</g>
</g>
<g>
	<g>
		<line fill="none" stroke="#D2D2D2" stroke-miterlimit="10" x1="268.56" y1="181.061" x2="267.56" y2="181.061"/>
		
			<line fill="none" stroke="#D2D2D2" stroke-miterlimit="10" stroke-dasharray="1.8424,0.9212" x1="266.639" y1="181.061" x2="261.572" y2="181.061"/>
		<line fill="none" stroke="#D2D2D2" stroke-miterlimit="10" x1="261.111" y1="181.061" x2="260.111" y2="181.061"/>
	</g>
</g>
<g>
	<g>
		<line fill="none" stroke="#D2D2D2" stroke-miterlimit="10" x1="268.56" y1="218.917" x2="267.56" y2="218.917"/>
		
			<line fill="none" stroke="#D2D2D2" stroke-miterlimit="10" stroke-dasharray="1.8424,0.9212" x1="266.639" y1="218.917" x2="261.572" y2="218.917"/>
		<line fill="none" stroke="#D2D2D2" stroke-miterlimit="10" x1="261.111" y1="218.917" x2="260.111" y2="218.917"/>
	</g>
</g>
<g>
	<g>
		<line fill="none" stroke="#D2D2D2" stroke-miterlimit="10" x1="233.5" y1="192.148" x2="233.5" y2="193.148"/>
		
			<line fill="none" stroke="#D2D2D2" stroke-miterlimit="10" stroke-dasharray="1.7644,1.7644" x1="233.5" y1="194.914" x2="233.5" y2="204.617"/>
		<line fill="none" stroke="#D2D2D2" stroke-miterlimit="10" x1="233.5" y1="205.5" x2="233.5" y2="206.5"/>
	</g>
</g>
<polyline fill="none" stroke="#D2D2D2" stroke-linecap="round" stroke-linejoin="round" stroke-miterlimit="10" points="344,14 
	356,14 356,137.232 344,137.232 "/>
<g>
	<g>
		<path fill="#D2D2D2" d="M391.076,74.582c-0.563,0-1.06-0.138-1.488-0.416c-0.43-0.277-0.77-0.628-1.021-1.053v4.108h-1.145v-9.555
			h1.014v1.274c0.269-0.416,0.618-0.751,1.047-1.007c0.429-0.255,0.903-0.383,1.424-0.383c0.468,0,0.896,0.095,1.287,0.286
			c0.39,0.191,0.728,0.449,1.014,0.774c0.286,0.325,0.509,0.7,0.67,1.124c0.16,0.425,0.24,0.867,0.24,1.326
			c0,0.485-0.074,0.942-0.221,1.372c-0.147,0.429-0.355,0.802-0.624,1.118c-0.27,0.316-0.59,0.567-0.963,0.754
			C391.938,74.488,391.526,74.582,391.076,74.582z M390.725,73.594c0.339,0,0.644-0.072,0.917-0.214
			c0.272-0.143,0.507-0.334,0.702-0.572c0.194-0.238,0.345-0.509,0.448-0.812c0.104-0.303,0.156-0.615,0.156-0.936
			c0-0.338-0.061-0.661-0.183-0.968c-0.121-0.308-0.285-0.577-0.493-0.806s-0.453-0.412-0.735-0.546
			c-0.281-0.134-0.587-0.202-0.916-0.202c-0.208,0-0.423,0.042-0.644,0.124c-0.221,0.083-0.429,0.191-0.624,0.325
			s-0.364,0.294-0.507,0.481c-0.144,0.187-0.236,0.383-0.279,0.591v1.937c0.095,0.226,0.216,0.436,0.363,0.63
			c0.147,0.195,0.316,0.364,0.508,0.507c0.19,0.143,0.394,0.255,0.61,0.338S390.491,73.594,390.725,73.594z"/>
		<path fill="#D2D2D2" d="M396.523,78.856c-0.318,0-0.632-0.049-0.939-0.147c-0.309-0.099-0.573-0.241-0.796-0.428l0.288-0.447
			c0.232,0.177,0.465,0.31,0.697,0.398s0.478,0.132,0.735,0.132c0.288,0,0.517-0.057,0.686-0.17s0.254-0.274,0.254-0.481
			c0-0.096-0.022-0.178-0.068-0.246c-0.045-0.068-0.113-0.127-0.204-0.178c-0.091-0.05-0.208-0.096-0.349-0.136
			c-0.142-0.041-0.306-0.083-0.493-0.129c-0.237-0.061-0.442-0.119-0.613-0.174c-0.172-0.056-0.313-0.121-0.425-0.197
			c-0.111-0.076-0.192-0.167-0.242-0.272c-0.051-0.106-0.076-0.238-0.076-0.395c0-0.197,0.039-0.373,0.117-0.526
			c0.078-0.154,0.186-0.283,0.322-0.387s0.297-0.182,0.481-0.235s0.383-0.08,0.595-0.08c0.298,0,0.576,0.048,0.834,0.144
			s0.475,0.222,0.651,0.379l-0.303,0.402c-0.167-0.146-0.354-0.256-0.561-0.33c-0.208-0.073-0.42-0.11-0.637-0.11
			c-0.243,0-0.449,0.052-0.618,0.156s-0.254,0.269-0.254,0.496c0,0.091,0.017,0.167,0.05,0.228c0.032,0.061,0.087,0.114,0.163,0.159
			c0.075,0.045,0.173,0.086,0.291,0.121c0.119,0.036,0.262,0.073,0.429,0.114c0.263,0.061,0.491,0.123,0.686,0.186
			c0.194,0.063,0.356,0.138,0.485,0.224s0.225,0.187,0.288,0.303c0.062,0.116,0.095,0.258,0.095,0.424
			c0,0.369-0.142,0.662-0.425,0.879S397.004,78.856,396.523,78.856z"/>
		<path fill="#D2D2D2" d="M401.571,78.174v0.606h-2.721v-0.606h1.076v-2.956c-0.046,0.061-0.116,0.125-0.212,0.193
			c-0.097,0.068-0.204,0.131-0.322,0.189c-0.119,0.058-0.241,0.107-0.368,0.147c-0.126,0.041-0.237,0.061-0.333,0.061v-0.636
			c0.111,0,0.235-0.032,0.371-0.095c0.137-0.063,0.267-0.137,0.391-0.22c0.124-0.083,0.229-0.164,0.318-0.242
			c0.088-0.079,0.141-0.133,0.155-0.163h0.683v3.721H401.571z"/>
		<path fill="#D2D2D2" d="M402.585,71.423v-1.04h3.835v1.04H402.585z"/>
		<path fill="#D2D2D2" d="M411.828,74.582c-0.563,0-1.06-0.138-1.488-0.416c-0.43-0.277-0.77-0.628-1.021-1.053v4.108h-1.145v-9.555
			h1.014v1.274c0.269-0.416,0.618-0.751,1.047-1.007c0.429-0.255,0.903-0.383,1.424-0.383c0.468,0,0.896,0.095,1.287,0.286
			c0.39,0.191,0.728,0.449,1.014,0.774c0.286,0.325,0.509,0.7,0.67,1.124c0.16,0.425,0.24,0.867,0.24,1.326
			c0,0.485-0.074,0.942-0.221,1.372c-0.147,0.429-0.355,0.802-0.624,1.118c-0.27,0.316-0.59,0.567-0.963,0.754
			C412.69,74.488,412.278,74.582,411.828,74.582z M411.477,73.594c0.339,0,0.644-0.072,0.917-0.214
			c0.272-0.143,0.507-0.334,0.702-0.572c0.194-0.238,0.345-0.509,0.448-0.812c0.104-0.303,0.156-0.615,0.156-0.936
			c0-0.338-0.061-0.661-0.183-0.968c-0.121-0.308-0.285-0.577-0.493-0.806s-0.453-0.412-0.735-0.546
			c-0.281-0.134-0.587-0.202-0.916-0.202c-0.208,0-0.423,0.042-0.644,0.124c-0.221,0.083-0.429,0.191-0.624,0.325
			s-0.364,0.294-0.507,0.481c-0.144,0.187-0.236,0.383-0.279,0.591v1.937c0.095,0.226,0.216,0.436,0.363,0.63
			c0.147,0.195,0.316,0.364,0.508,0.507c0.19,0.143,0.394,0.255,0.61,0.338S411.243,73.594,411.477,73.594z"/>
		<path fill="#D2D2D2" d="M417.275,78.856c-0.318,0-0.632-0.049-0.939-0.147c-0.309-0.099-0.573-0.241-0.796-0.428l0.288-0.447
			c0.232,0.177,0.465,0.31,0.697,0.398s0.478,0.132,0.735,0.132c0.288,0,0.517-0.057,0.686-0.17s0.254-0.274,0.254-0.481
			c0-0.096-0.022-0.178-0.068-0.246c-0.045-0.068-0.113-0.127-0.204-0.178c-0.091-0.05-0.208-0.096-0.349-0.136
			c-0.142-0.041-0.306-0.083-0.493-0.129c-0.237-0.061-0.442-0.119-0.613-0.174c-0.172-0.056-0.313-0.121-0.425-0.197
			c-0.111-0.076-0.192-0.167-0.242-0.272c-0.051-0.106-0.076-0.238-0.076-0.395c0-0.197,0.039-0.373,0.117-0.526
			c0.078-0.154,0.186-0.283,0.322-0.387s0.297-0.182,0.481-0.235s0.383-0.08,0.595-0.08c0.298,0,0.576,0.048,0.834,0.144
			s0.475,0.222,0.651,0.379l-0.303,0.402c-0.167-0.146-0.354-0.256-0.561-0.33c-0.208-0.073-0.42-0.11-0.637-0.11
			c-0.243,0-0.449,0.052-0.618,0.156s-0.254,0.269-0.254,0.496c0,0.091,0.017,0.167,0.05,0.228c0.032,0.061,0.087,0.114,0.163,0.159
			c0.075,0.045,0.173,0.086,0.291,0.121c0.119,0.036,0.262,0.073,0.429,0.114c0.263,0.061,0.491,0.123,0.686,0.186
			c0.194,0.063,0.356,0.138,0.485,0.224s0.225,0.187,0.288,0.303c0.062,0.116,0.095,0.258,0.095,0.424
			c0,0.369-0.142,0.662-0.425,0.879S417.756,78.856,417.275,78.856z"/>
		<path fill="#D2D2D2" d="M419.421,78.781c0-0.202,0.016-0.392,0.049-0.568s0.095-0.346,0.186-0.508s0.216-0.316,0.375-0.462
			s0.368-0.293,0.626-0.439c0.151-0.081,0.306-0.161,0.462-0.239s0.3-0.162,0.429-0.25s0.234-0.183,0.318-0.284
			c0.083-0.101,0.125-0.22,0.125-0.356c0-0.086-0.021-0.172-0.061-0.258c-0.041-0.086-0.099-0.162-0.175-0.227
			c-0.076-0.066-0.171-0.119-0.284-0.159s-0.244-0.061-0.391-0.061c-0.151,0-0.289,0.021-0.413,0.064
			c-0.123,0.043-0.233,0.096-0.329,0.159c-0.097,0.063-0.18,0.13-0.25,0.201c-0.071,0.071-0.129,0.134-0.175,0.189l-0.432-0.485
			c0.04-0.045,0.108-0.107,0.204-0.186c0.097-0.078,0.218-0.158,0.364-0.239c0.146-0.081,0.315-0.15,0.508-0.208
			c0.191-0.058,0.406-0.087,0.645-0.087c0.231,0,0.441,0.032,0.629,0.095c0.187,0.063,0.345,0.15,0.474,0.261
			c0.129,0.111,0.229,0.242,0.299,0.391c0.071,0.149,0.106,0.307,0.106,0.474c0,0.197-0.043,0.369-0.129,0.515
			c-0.086,0.147-0.19,0.275-0.314,0.387s-0.257,0.206-0.398,0.284c-0.141,0.079-0.268,0.146-0.379,0.201
			c-0.11,0.056-0.235,0.123-0.375,0.201c-0.139,0.078-0.271,0.167-0.397,0.265c-0.127,0.099-0.236,0.208-0.33,0.33
			s-0.152,0.253-0.178,0.394h2.584v0.606H419.421z"/>
	</g>
	<g>
		<path fill="#D2D2D2" d="M387.206,65.147l2.574-5.291h0.962l2.561,5.291h-0.975l-2.067-4.264l-2.105,4.264H387.206z"/>
	</g>
	<g>
		<path fill="#D2D2D2" d="M408.206,65.147l2.574-5.291h0.962l2.561,5.291h-0.975l-2.067-4.264l-2.105,4.264H408.206z"/>
	</g>
</g>
<g>
</g>
<g>
</g>
<g>
</g>
<g>
</g>
<g>
</g>
<g>
</g>
<g>
</g>
</svg>
