<?xml version="1.0" encoding="utf-8"?>
<!-- Generator: Adobe Illustrator 16.0.4, SVG Export Plug-In . SVG Version: 6.00 Build 0)  -->
<!DOCTYPE svg PUBLIC "-//W3C//DTD SVG 1.1//EN" "http://www.w3.org/Graphics/SVG/1.1/DTD/svg11.dtd">
<svg version="1.1" id="layer1" xmlns="http://www.w3.org/2000/svg" xmlns:xlink="http://www.w3.org/1999/xlink" x="0px" y="0px"
	 width="620.5px" height="197px" viewBox="0 0 620.5 197" enable-background="new 0 0 620.5 197" xml:space="preserve">
<path fill="none" stroke="#636C72" stroke-width="2" d="M139.315,169.76c0,6.251-4.783,11.32-10.684,11.32H19.499
	c-5.9,0-10.684-5.069-10.684-11.32V44.14c0-6.253,4.783-11.321,10.684-11.321h109.133c5.9,0,10.684,5.068,10.684,11.321V169.76z"/>
<path fill="none" stroke="#636C72" stroke-width="2" d="M314.581,170.734c0,6.25-4.783,11.32-10.684,11.32H194.765
	c-5.9,0-10.684-5.07-10.684-11.32V45.114c0-6.253,4.783-11.321,10.684-11.321h109.133c5.9,0,10.684,5.068,10.684,11.321V170.734z"/>
<g>
	<g>
		<path fill="#D2D2D2" d="M142.359,114.141c0,0,1.837-0.05,4.594-0.125c2.756-0.087,6.432-0.166,10.106-0.213
			c1.838-0.034,3.676-0.067,5.397-0.098c1.725-0.049,3.331-0.095,4.708-0.091c1.379,0.016,2.525,0.075,3.328,0.133
			c0.802,0.054,1.262,0.084,1.262,0.084l-0.031,1.797c0,0-0.458,0.015-1.263,0.041c-0.806,0.032-1.954,0.052-3.331,0.024
			c-1.377-0.044-2.982-0.142-4.702-0.247c-1.722-0.089-3.556-0.184-5.392-0.277c-3.67-0.17-7.342-0.37-10.094-0.549
			c-2.752-0.167-4.588-0.277-4.588-0.277L142.359,114.141z"/>
		<g>
			<polygon fill="#D2D2D2" points="178.8,114.846 168.786,118.746 171.212,114.721 168.919,110.616 			"/>
		</g>
	</g>
</g>
<g>
	<g>
		<path fill="#D2D2D2" d="M320.75,109.204c0,0,1.892-1.854,4.729-4.635c1.42-1.388,3.078-3.008,4.854-4.742
			c1.788-1.723,3.693-3.561,5.602-5.398c1.9-1.842,3.803-3.686,5.586-5.413c1.764-1.746,3.441-3.345,4.926-4.662
			c2.982-2.624,5.054-4.282,5.054-4.282l1.034,1.126c0,0-1.829,1.922-4.697,4.67c-1.439,1.366-3.175,2.901-5.064,4.513
			c-1.875,1.629-3.873,3.364-5.871,5.104c-1.994,1.742-3.986,3.484-5.855,5.119c-1.88,1.621-3.635,3.135-5.139,4.432
			c-3.012,2.592-5.021,4.318-5.021,4.318L320.75,109.204z"/>
		<g>
			<polygon fill="#D2D2D2" points="357.217,75.858 352.637,85.581 351.628,80.99 347.139,79.593 			"/>
		</g>
	</g>
</g>
<g>
	<g>
		<path fill="#D2D2D2" d="M320.812,115.482c0,0,1.892,1.854,4.729,4.635c1.42,1.388,3.078,3.008,4.854,4.742
			c1.788,1.723,3.693,3.561,5.602,5.398c1.9,1.842,3.803,3.686,5.586,5.413c1.764,1.746,3.441,3.345,4.926,4.662
			c2.982,2.624,5.054,4.282,5.054,4.282l1.034-1.126c0,0-1.829-1.922-4.697-4.67c-1.439-1.366-3.175-2.901-5.064-4.513
			c-1.875-1.629-3.873-3.364-5.871-5.104c-1.994-1.742-3.986-3.484-5.855-5.119c-1.88-1.621-3.635-3.135-5.139-4.432
			c-3.012-2.592-5.021-4.318-5.021-4.318L320.812,115.482z"/>
		<g>
			<polygon fill="#D2D2D2" points="357.278,148.828 352.698,139.105 351.689,143.696 347.2,145.094 			"/>
		</g>
	</g>
</g>
<g>
	<g>
		<path fill="#D2D2D2" d="M513.851,71.162c0,0,1.333,1.307,3.333,3.266c1,0.978,2.169,2.119,3.42,3.341
			c1.26,1.214,2.603,2.509,3.947,3.804c1.339,1.298,2.679,2.597,3.936,3.814c1.243,1.23,2.425,2.356,3.471,3.285
			c2.102,1.849,3.562,3.017,3.562,3.017l0.729-0.793c0,0-1.289-1.354-3.31-3.291c-1.015-0.962-2.237-2.044-3.569-3.18
			c-1.32-1.148-2.729-2.371-4.137-3.596c-1.405-1.228-2.809-2.456-4.126-3.607c-1.324-1.142-2.562-2.209-3.621-3.123
			c-2.122-1.826-3.538-3.043-3.538-3.043L513.851,71.162z"/>
		<g>
			<polygon fill="#D2D2D2" points="539.547,94.658 536.319,87.808 535.608,91.043 532.445,92.028 			"/>
		</g>
	</g>
</g>
<g>
	<g>
		<path fill="#D2D2D2" d="M513.851,135.018c0,0,1.333-1.307,3.333-3.266c1-0.979,2.169-2.119,3.42-3.342
			c1.26-1.214,2.603-2.51,3.947-3.805c1.339-1.297,2.679-2.597,3.936-3.814c1.243-1.229,2.425-2.355,3.471-3.285
			c2.102-1.848,3.562-3.017,3.562-3.017l0.729,0.794c0,0-1.289,1.354-3.31,3.29c-1.015,0.962-2.237,2.044-3.569,3.18
			c-1.32,1.147-2.729,2.37-4.137,3.597c-1.405,1.227-2.809,2.455-4.126,3.607c-1.324,1.142-2.562,2.209-3.621,3.122
			c-2.122,1.826-3.538,3.043-3.538,3.043L513.851,135.018z"/>
		<g>
			<polygon fill="#D2D2D2" points="539.547,111.521 536.319,118.371 535.608,115.137 532.445,114.152 			"/>
		</g>
	</g>
</g>
<g>
	<path fill="#D2D2D2" d="M337.738,75.858h-1.144v-3.796c0-0.728-0.11-1.257-0.331-1.586c-0.222-0.33-0.558-0.494-1.008-0.494
		c-0.234,0-0.468,0.045-0.702,0.137c-0.234,0.091-0.455,0.214-0.663,0.37c-0.208,0.156-0.39,0.343-0.546,0.559
		c-0.156,0.217-0.273,0.455-0.351,0.715v4.095h-1.145v-6.786h1.04v1.456c0.269-0.477,0.656-0.858,1.164-1.144
		c0.507-0.286,1.059-0.429,1.657-0.429c0.39,0,0.715,0.071,0.975,0.214s0.468,0.342,0.624,0.598
		c0.156,0.255,0.267,0.557,0.332,0.903c0.064,0.347,0.097,0.724,0.097,1.131V75.858z"/>
	<path fill="#D2D2D2" d="M341.825,79.581v0.606h-2.721v-0.606h1.076v-2.956c-0.046,0.061-0.116,0.125-0.212,0.193
		c-0.097,0.068-0.204,0.131-0.322,0.189c-0.119,0.058-0.241,0.107-0.368,0.147c-0.126,0.041-0.237,0.061-0.333,0.061V76.58
		c0.111,0,0.235-0.032,0.371-0.095c0.137-0.063,0.267-0.137,0.391-0.22c0.124-0.083,0.229-0.164,0.318-0.242
		c0.088-0.079,0.141-0.133,0.155-0.163h0.683v3.721H341.825z"/>
</g>
<g>
	<path fill="#D2D2D2" d="M500.843,58.176l1.858,2.496l0.104,0.208l0.117-0.208l1.846-2.496h1.209l-2.535,3.406l2.548,3.38h-1.209
		l-1.858-2.483l-0.117-0.195l-0.104,0.195l-1.858,2.483h-1.209l2.548-3.38l-2.535-3.406H500.843z"/>
	<path fill="#D2D2D2" d="M509.375,68.685v0.606h-2.721v-0.606h1.076v-2.956c-0.046,0.061-0.116,0.125-0.212,0.193
		c-0.097,0.068-0.204,0.131-0.322,0.189c-0.119,0.058-0.241,0.107-0.368,0.147c-0.126,0.041-0.237,0.061-0.333,0.061v-0.636
		c0.111,0,0.235-0.032,0.371-0.095c0.137-0.063,0.267-0.137,0.391-0.22c0.124-0.083,0.229-0.164,0.318-0.242
		c0.088-0.079,0.141-0.133,0.155-0.163h0.683v3.721H509.375z"/>
</g>
<g>
	<path fill="#D2D2D2" d="M500.457,55.637v-1.04h4.9v1.04H500.457z"/>
</g>
<g>
	<path fill="#D2D2D2" d="M564.843,98.543l1.858,2.496l0.104,0.208l0.117-0.208l1.846-2.496h1.209l-2.535,3.406l2.548,3.38h-1.209
		l-1.858-2.483l-0.117-0.195l-0.104,0.195l-1.858,2.483h-1.209l2.548-3.38l-2.535-3.406H564.843z"/>
	<path fill="#D2D2D2" d="M573.375,109.052v0.606h-2.721v-0.606h1.076v-2.956c-0.046,0.061-0.116,0.125-0.212,0.193
		c-0.097,0.068-0.204,0.132-0.322,0.189c-0.119,0.059-0.241,0.107-0.368,0.148c-0.126,0.04-0.237,0.061-0.333,0.061v-0.637
		c0.111,0,0.235-0.031,0.371-0.095c0.137-0.063,0.267-0.137,0.391-0.22c0.124-0.084,0.229-0.164,0.318-0.242
		c0.088-0.079,0.141-0.133,0.155-0.164h0.683v3.722H573.375z"/>
	<path fill="#D2D2D2" d="M576.307,102.301v-1.041h3.835v1.041H576.307z"/>
</g>
<g>
	<path fill="#D2D2D2" d="M564.457,96.004v-1.04h4.9v1.04H564.457z"/>
</g>
<g>
	<path fill="#D2D2D2" d="M500.923,144.012l1.858,2.496l0.104,0.207l0.117-0.207l1.846-2.496h1.209l-2.535,3.406l2.548,3.379h-1.209
		l-1.858-2.482l-0.117-0.195l-0.104,0.195l-1.858,2.482h-1.209l2.548-3.379l-2.535-3.406H500.923z"/>
	<path fill="#D2D2D2" d="M506.553,155.127c0-0.203,0.016-0.393,0.049-0.568c0.033-0.178,0.095-0.347,0.186-0.508
		c0.091-0.162,0.216-0.316,0.375-0.463s0.368-0.293,0.626-0.439c0.151-0.081,0.306-0.16,0.462-0.238s0.3-0.162,0.429-0.25
		c0.129-0.089,0.234-0.184,0.318-0.285c0.083-0.101,0.125-0.22,0.125-0.355c0-0.086-0.021-0.172-0.061-0.258
		c-0.041-0.086-0.099-0.162-0.175-0.228s-0.171-0.118-0.284-0.159s-0.244-0.061-0.391-0.061c-0.151,0-0.289,0.021-0.413,0.064
		c-0.123,0.043-0.233,0.096-0.329,0.158c-0.097,0.064-0.18,0.131-0.25,0.201c-0.071,0.071-0.129,0.135-0.175,0.189l-0.432-0.484
		c0.04-0.046,0.108-0.107,0.204-0.186c0.097-0.078,0.218-0.158,0.364-0.239s0.315-0.15,0.508-0.208
		c0.191-0.059,0.406-0.088,0.645-0.088c0.231,0,0.441,0.032,0.629,0.096c0.187,0.062,0.345,0.15,0.474,0.261
		c0.129,0.111,0.229,0.241,0.299,0.391c0.071,0.149,0.106,0.307,0.106,0.474c0,0.197-0.043,0.369-0.129,0.516
		s-0.19,0.275-0.314,0.387s-0.257,0.205-0.398,0.283c-0.141,0.079-0.268,0.146-0.379,0.201c-0.11,0.056-0.235,0.123-0.375,0.201
		c-0.139,0.078-0.271,0.166-0.397,0.266c-0.127,0.098-0.236,0.208-0.33,0.329s-0.152,0.253-0.178,0.394h2.584v0.607H506.553z"/>
</g>
<g>
	<path fill="#D2D2D2" d="M500.537,141.473v-1.041h4.9v1.041H500.537z"/>
</g>
<g>
	<path fill="#D2D2D2" d="M584.436,98.664l1.858,2.496l0.104,0.207l0.117-0.207l1.846-2.496h1.209l-2.535,3.406l2.548,3.379h-1.209
		l-1.858-2.482l-0.117-0.195l-0.104,0.195l-1.858,2.482h-1.209l2.548-3.379l-2.535-3.406H584.436z"/>
	<path fill="#D2D2D2" d="M590.065,109.779c0-0.203,0.016-0.393,0.049-0.568c0.033-0.178,0.095-0.347,0.186-0.508
		c0.091-0.162,0.216-0.316,0.375-0.463s0.368-0.293,0.626-0.439c0.151-0.081,0.306-0.16,0.462-0.238s0.3-0.162,0.429-0.25
		c0.129-0.089,0.234-0.184,0.318-0.285c0.083-0.101,0.125-0.22,0.125-0.355c0-0.086-0.021-0.172-0.061-0.258
		c-0.041-0.086-0.099-0.162-0.175-0.228s-0.171-0.118-0.284-0.159s-0.244-0.061-0.391-0.061c-0.151,0-0.289,0.021-0.413,0.064
		c-0.123,0.043-0.233,0.096-0.329,0.158c-0.097,0.064-0.18,0.131-0.25,0.201c-0.071,0.071-0.129,0.135-0.175,0.189l-0.432-0.484
		c0.04-0.046,0.108-0.107,0.204-0.186c0.097-0.078,0.218-0.158,0.364-0.239s0.315-0.15,0.508-0.208
		c0.191-0.059,0.406-0.088,0.645-0.088c0.231,0,0.441,0.032,0.629,0.096c0.187,0.062,0.345,0.15,0.474,0.261
		c0.129,0.111,0.229,0.241,0.299,0.391c0.071,0.149,0.106,0.307,0.106,0.474c0,0.197-0.043,0.369-0.129,0.516
		s-0.19,0.275-0.314,0.387s-0.257,0.205-0.398,0.283c-0.141,0.079-0.268,0.146-0.379,0.201c-0.11,0.056-0.235,0.123-0.375,0.201
		c-0.139,0.078-0.271,0.166-0.397,0.266c-0.127,0.098-0.236,0.208-0.33,0.329s-0.152,0.253-0.178,0.394h2.584v0.607H590.065z"/>
</g>
<g>
	<path fill="#D2D2D2" d="M584.05,96.125v-1.041h4.9v1.041H584.05z"/>
</g>
<g>
	<path fill="#D2D2D2" d="M544.789,106.154c-0.467,0-0.9-0.096-1.299-0.286s-0.742-0.446-1.027-0.767
		c-0.285-0.321-0.51-0.693-0.67-1.119c-0.16-0.424-0.24-0.871-0.24-1.338c0-0.477,0.076-0.93,0.229-1.359
		c0.15-0.429,0.363-0.804,0.637-1.124c0.271-0.321,0.598-0.574,0.975-0.761c0.377-0.186,0.791-0.279,1.24-0.279
		c0.547,0,1.035,0.143,1.463,0.429c0.43,0.286,0.77,0.633,1.021,1.04v-4.057h1.145v8.087c0,0.269,0.121,0.407,0.363,0.416v0.987
		c-0.121,0.018-0.219,0.031-0.293,0.039c-0.074,0.009-0.145,0.014-0.215,0.014c-0.225,0-0.422-0.076-0.592-0.228
		c-0.168-0.151-0.252-0.327-0.252-0.526v-0.572c-0.27,0.441-0.627,0.787-1.072,1.033
		C545.754,106.03,545.283,106.154,544.789,106.154z M545.062,105.166c0.209,0,0.422-0.039,0.645-0.117
		c0.221-0.078,0.428-0.186,0.623-0.324s0.363-0.302,0.508-0.488c0.143-0.186,0.236-0.383,0.279-0.592v-1.949
		c-0.078-0.217-0.195-0.423-0.352-0.617c-0.156-0.195-0.332-0.365-0.525-0.508c-0.195-0.143-0.404-0.256-0.625-0.338
		s-0.439-0.123-0.656-0.123c-0.338,0-0.645,0.071-0.916,0.214c-0.273,0.144-0.508,0.334-0.703,0.572s-0.344,0.511-0.447,0.819
		c-0.105,0.307-0.156,0.621-0.156,0.941c0,0.339,0.061,0.662,0.182,0.969c0.121,0.309,0.285,0.574,0.494,0.8
		c0.207,0.226,0.453,0.405,0.734,0.54S544.732,105.166,545.062,105.166z"/>
	<path fill="#D2D2D2" d="M552.477,109.746v0.607h-2.721v-0.607h1.076v-2.955c-0.045,0.061-0.115,0.125-0.211,0.193
		c-0.098,0.068-0.205,0.131-0.322,0.189c-0.119,0.059-0.242,0.107-0.369,0.147c-0.125,0.04-0.236,0.061-0.332,0.061v-0.636
		c0.111,0,0.234-0.032,0.371-0.096c0.137-0.062,0.266-0.137,0.391-0.22c0.123-0.083,0.229-0.164,0.318-0.242
		c0.088-0.079,0.141-0.133,0.154-0.163h0.684v3.721H552.477z"/>
	<path fill="#D2D2D2" d="M556.82,101.955v-0.78h3.965v0.78H556.82z M556.82,103.697v-0.78h3.965v0.78H556.82z"/>
</g>
<g>
	<path fill="#D2D2D2" d="M337.738,146.347h-1.144v-3.796c0-0.729-0.11-1.257-0.331-1.586c-0.222-0.33-0.558-0.494-1.008-0.494
		c-0.234,0-0.468,0.045-0.702,0.137c-0.234,0.091-0.455,0.215-0.663,0.37c-0.208,0.156-0.39,0.343-0.546,0.56
		s-0.273,0.455-0.351,0.715v4.095h-1.145v-6.786h1.04v1.456c0.269-0.477,0.656-0.858,1.164-1.144c0.507-0.286,1.059-0.43,1.657-0.43
		c0.39,0,0.715,0.072,0.975,0.215s0.468,0.342,0.624,0.598s0.267,0.557,0.332,0.904c0.064,0.346,0.097,0.723,0.097,1.131V146.347z"
		/>
	<path fill="#D2D2D2" d="M338.923,150.676c0-0.202,0.016-0.392,0.049-0.568s0.095-0.346,0.186-0.508s0.216-0.316,0.375-0.463
		s0.368-0.293,0.626-0.439c0.151-0.08,0.306-0.16,0.462-0.238s0.3-0.162,0.429-0.25s0.234-0.184,0.318-0.284
		c0.083-0.101,0.125-0.22,0.125-0.356c0-0.086-0.021-0.172-0.061-0.258c-0.041-0.086-0.099-0.162-0.175-0.227
		c-0.076-0.066-0.171-0.119-0.284-0.16c-0.113-0.04-0.244-0.061-0.391-0.061c-0.151,0-0.289,0.021-0.413,0.064
		c-0.123,0.043-0.233,0.096-0.329,0.159c-0.097,0.063-0.18,0.13-0.25,0.201c-0.071,0.071-0.129,0.134-0.175,0.189l-0.432-0.485
		c0.04-0.045,0.108-0.107,0.204-0.186c0.097-0.078,0.218-0.158,0.364-0.238c0.146-0.081,0.315-0.15,0.508-0.209
		c0.191-0.058,0.406-0.087,0.645-0.087c0.231,0,0.441,0.032,0.629,0.095c0.187,0.062,0.345,0.15,0.474,0.262
		s0.229,0.241,0.299,0.391c0.071,0.148,0.106,0.307,0.106,0.473c0,0.197-0.043,0.369-0.129,0.516s-0.19,0.275-0.314,0.387
		s-0.257,0.206-0.398,0.284c-0.141,0.079-0.268,0.146-0.379,0.2c-0.11,0.057-0.235,0.123-0.375,0.201
		c-0.139,0.078-0.271,0.167-0.397,0.266c-0.127,0.099-0.236,0.209-0.33,0.33s-0.152,0.252-0.178,0.394h2.584v0.606H338.923z"/>
</g>
<g>
	<path fill="#D2D2D2" d="M333.121,13.325V2.977h4.373c0.446,0,0.857,0.095,1.231,0.284s0.697,0.437,0.969,0.743
		c0.272,0.306,0.483,0.654,0.635,1.042c0.15,0.389,0.226,0.783,0.226,1.181c0,0.379-0.056,0.741-0.168,1.086
		c-0.111,0.345-0.267,0.656-0.466,0.933c-0.199,0.277-0.44,0.51-0.722,0.7c-0.282,0.189-0.598,0.318-0.947,0.386l2.536,3.994h-1.151
		l-2.435-3.819h-3.061v3.819H333.121z M334.142,8.603h3.382c0.301,0,0.575-0.066,0.823-0.197c0.248-0.131,0.459-0.309,0.634-0.532
		c0.175-0.223,0.311-0.476,0.408-0.758c0.097-0.282,0.146-0.578,0.146-0.889c0-0.311-0.056-0.609-0.167-0.896
		c-0.112-0.286-0.263-0.537-0.452-0.75c-0.189-0.213-0.413-0.384-0.671-0.51c-0.257-0.126-0.526-0.19-0.809-0.19h-3.294V8.603z"/>
	<path fill="#D2D2D2" d="M345.495,13.471c-0.554,0-1.062-0.104-1.522-0.313c-0.462-0.209-0.862-0.496-1.202-0.86
		c-0.341-0.365-0.605-0.785-0.795-1.261s-0.284-0.986-0.284-1.531c0-0.534,0.095-1.037,0.284-1.508s0.452-0.884,0.787-1.239
		s0.736-0.636,1.202-0.846c0.467-0.208,0.972-0.313,1.517-0.313c0.554,0,1.061,0.104,1.522,0.313
		c0.462,0.209,0.857,0.494,1.188,0.853c0.33,0.359,0.587,0.772,0.772,1.239c0.184,0.466,0.276,0.962,0.276,1.487
		c0,0.078,0,0.155,0,0.233c0,0.078-0.005,0.131-0.015,0.16h-6.5c0.029,0.408,0.124,0.785,0.284,1.13s0.366,0.644,0.619,0.896
		c0.253,0.252,0.542,0.449,0.867,0.59c0.325,0.141,0.673,0.211,1.042,0.211c0.243,0,0.486-0.034,0.729-0.102
		c0.243-0.068,0.467-0.16,0.671-0.277s0.389-0.26,0.554-0.43s0.292-0.357,0.379-0.562l0.86,0.233
		c-0.117,0.282-0.282,0.537-0.496,0.765c-0.214,0.229-0.461,0.428-0.743,0.598s-0.593,0.301-0.933,0.394
		S345.864,13.471,345.495,13.471z M348.294,9.127c-0.029-0.408-0.124-0.78-0.284-1.115c-0.16-0.335-0.364-0.625-0.612-0.867
		s-0.534-0.432-0.859-0.568c-0.326-0.136-0.674-0.204-1.043-0.204s-0.719,0.068-1.049,0.204c-0.331,0.136-0.619,0.326-0.867,0.568
		s-0.447,0.534-0.598,0.875s-0.24,0.709-0.27,1.107H348.294z"/>
	<path fill="#D2D2D2" d="M354.648,13.471c-0.641,0-1.207-0.163-1.697-0.488c-0.491-0.326-0.887-0.736-1.188-1.232v4.679h-0.991
		V5.731h0.89v1.472c0.311-0.476,0.714-0.862,1.21-1.159c0.495-0.296,1.034-0.444,1.617-0.444c0.524,0,1.006,0.109,1.443,0.328
		c0.437,0.219,0.816,0.51,1.137,0.875c0.32,0.365,0.57,0.785,0.751,1.261c0.179,0.477,0.27,0.967,0.27,1.472
		c0,0.535-0.083,1.04-0.248,1.516c-0.165,0.477-0.401,0.895-0.707,1.254s-0.671,0.644-1.093,0.853
		C355.618,13.366,355.154,13.471,354.648,13.471z M354.372,12.597c0.408,0,0.779-0.088,1.115-0.263
		c0.335-0.175,0.621-0.405,0.859-0.692c0.238-0.286,0.42-0.612,0.547-0.977c0.126-0.364,0.189-0.741,0.189-1.129
		c0-0.408-0.073-0.796-0.219-1.166c-0.146-0.369-0.345-0.694-0.598-0.977c-0.253-0.282-0.552-0.505-0.896-0.67
		c-0.345-0.165-0.717-0.248-1.115-0.248c-0.252,0-0.517,0.051-0.794,0.153s-0.534,0.238-0.772,0.408s-0.442,0.369-0.612,0.598
		s-0.274,0.469-0.313,0.721v2.332c0.117,0.272,0.265,0.525,0.444,0.758c0.18,0.233,0.384,0.435,0.612,0.605
		c0.229,0.17,0.474,0.304,0.736,0.401S354.09,12.597,354.372,12.597z"/>
	<path fill="#D2D2D2" d="M363.043,13.471c-0.554,0-1.062-0.104-1.522-0.313c-0.462-0.209-0.862-0.496-1.202-0.86
		c-0.341-0.365-0.605-0.785-0.795-1.261s-0.284-0.986-0.284-1.531c0-0.534,0.095-1.037,0.284-1.508s0.452-0.884,0.787-1.239
		s0.736-0.636,1.202-0.846c0.467-0.208,0.972-0.313,1.517-0.313c0.554,0,1.061,0.104,1.522,0.313
		c0.462,0.209,0.857,0.494,1.188,0.853c0.33,0.359,0.587,0.772,0.772,1.239c0.184,0.466,0.276,0.962,0.276,1.487
		c0,0.078,0,0.155,0,0.233c0,0.078-0.005,0.131-0.015,0.16h-6.5c0.029,0.408,0.124,0.785,0.284,1.13s0.366,0.644,0.619,0.896
		c0.253,0.252,0.542,0.449,0.867,0.59c0.325,0.141,0.673,0.211,1.042,0.211c0.243,0,0.486-0.034,0.729-0.102
		c0.243-0.068,0.467-0.16,0.671-0.277s0.389-0.26,0.554-0.43s0.292-0.357,0.379-0.562l0.86,0.233
		c-0.117,0.282-0.282,0.537-0.496,0.765c-0.214,0.229-0.461,0.428-0.743,0.598s-0.593,0.301-0.933,0.394
		S363.412,13.471,363.043,13.471z M365.842,9.127c-0.029-0.408-0.124-0.78-0.284-1.115c-0.16-0.335-0.364-0.625-0.612-0.867
		s-0.534-0.432-0.859-0.568c-0.326-0.136-0.674-0.204-1.043-0.204s-0.719,0.068-1.049,0.204c-0.331,0.136-0.619,0.326-0.867,0.568
		s-0.447,0.534-0.598,0.875s-0.24,0.709-0.27,1.107H365.842z"/>
	<path fill="#D2D2D2" d="M370.229,13.471c-0.36,0-0.692-0.061-0.999-0.182c-0.306-0.121-0.573-0.289-0.802-0.502
		s-0.405-0.464-0.531-0.751c-0.127-0.286-0.189-0.595-0.189-0.925c0-0.33,0.077-0.636,0.232-0.918
		c0.155-0.282,0.374-0.524,0.656-0.729c0.281-0.204,0.617-0.362,1.006-0.474s0.816-0.168,1.282-0.168
		c0.389,0,0.782,0.034,1.181,0.102c0.398,0.068,0.753,0.166,1.064,0.292V8.53c0-0.67-0.189-1.202-0.569-1.596
		c-0.379-0.394-0.903-0.59-1.573-0.59c-0.389,0-0.787,0.078-1.195,0.233s-0.821,0.379-1.239,0.67l-0.35-0.656
		c0.981-0.661,1.934-0.991,2.856-0.991c0.952,0,1.7,0.267,2.245,0.801c0.544,0.535,0.815,1.273,0.815,2.216v3.425
		c0,0.272,0.122,0.408,0.365,0.408v0.875c-0.166,0.029-0.292,0.044-0.379,0.044c-0.253,0-0.45-0.063-0.591-0.189
		c-0.141-0.126-0.216-0.301-0.226-0.525l-0.029-0.598c-0.35,0.457-0.79,0.807-1.319,1.049S370.841,13.471,370.229,13.471z
		 M370.462,12.713c0.516,0,0.989-0.097,1.421-0.292c0.433-0.194,0.761-0.452,0.984-0.772c0.087-0.087,0.153-0.182,0.196-0.284
		c0.044-0.102,0.066-0.197,0.066-0.284V9.842c-0.331-0.126-0.674-0.224-1.028-0.292s-0.717-0.102-1.086-0.102
		c-0.699,0-1.268,0.146-1.705,0.437c-0.437,0.292-0.655,0.676-0.655,1.152c0,0.233,0.046,0.452,0.138,0.656
		c0.093,0.204,0.219,0.381,0.379,0.532c0.161,0.151,0.353,0.27,0.576,0.357S370.209,12.713,370.462,12.713z"/>
	<path fill="#D2D2D2" d="M379.849,12.961c-0.059,0.029-0.144,0.068-0.256,0.117c-0.111,0.048-0.24,0.097-0.386,0.146
		c-0.146,0.049-0.312,0.092-0.496,0.131c-0.185,0.039-0.379,0.058-0.583,0.058c-0.214,0-0.417-0.029-0.611-0.087
		c-0.195-0.058-0.365-0.148-0.511-0.27s-0.262-0.274-0.35-0.459s-0.131-0.398-0.131-0.642V6.519h-1.05V5.731h1.05V3.167h0.991v2.565
		h1.749v0.787h-1.749v5.16c0.019,0.282,0.118,0.488,0.299,0.62c0.18,0.131,0.386,0.197,0.619,0.197c0.281,0,0.529-0.046,0.743-0.139
		s0.35-0.158,0.408-0.197L379.849,12.961z"/>
	<path fill="#D2D2D2" d="M389.628,12.421v0.904h-4.94v-0.904h2.069V6.184c-0.077,0.116-0.211,0.243-0.4,0.379
		s-0.398,0.262-0.627,0.379s-0.464,0.214-0.707,0.292s-0.457,0.117-0.641,0.117V6.388c0.223,0,0.468-0.063,0.735-0.189
		c0.268-0.126,0.52-0.272,0.758-0.438c0.238-0.165,0.439-0.321,0.605-0.466c0.165-0.146,0.257-0.243,0.276-0.292h1.021v7.418
		H389.628z"/>
	<path fill="#D2D2D2" d="M398.067,9.055c0,0.641-0.093,1.231-0.276,1.771c-0.186,0.539-0.44,1.005-0.766,1.399
		s-0.712,0.7-1.159,0.918c-0.446,0.219-0.933,0.328-1.457,0.328s-1.011-0.109-1.457-0.328c-0.447-0.219-0.834-0.525-1.159-0.918
		s-0.581-0.86-0.766-1.399c-0.185-0.54-0.276-1.13-0.276-1.771s0.092-1.231,0.276-1.771c0.185-0.539,0.44-1.005,0.766-1.399
		s0.712-0.702,1.159-0.926c0.446-0.223,0.933-0.335,1.457-0.335s1.011,0.112,1.457,0.335c0.447,0.224,0.834,0.532,1.159,0.926
		s0.58,0.86,0.766,1.399C397.975,7.823,398.067,8.414,398.067,9.055z M397.062,9.055c0-0.525-0.065-1-0.196-1.428
		c-0.132-0.428-0.313-0.794-0.547-1.101s-0.513-0.544-0.838-0.714c-0.326-0.17-0.683-0.255-1.071-0.255
		c-0.398,0-0.761,0.085-1.086,0.255s-0.604,0.408-0.838,0.714s-0.415,0.673-0.547,1.101c-0.131,0.428-0.196,0.903-0.196,1.428
		s0.065,1.001,0.196,1.428c0.132,0.428,0.313,0.794,0.547,1.101s0.513,0.542,0.838,0.707s0.688,0.248,1.086,0.248
		c0.389,0,0.745-0.083,1.071-0.248c0.325-0.165,0.604-0.401,0.838-0.707s0.415-0.673,0.547-1.101
		C396.996,10.056,397.062,9.58,397.062,9.055z"/>
	<path fill="#D2D2D2" d="M406.987,9.055c0,0.641-0.093,1.231-0.276,1.771c-0.186,0.539-0.44,1.005-0.766,1.399
		s-0.712,0.7-1.159,0.918c-0.446,0.219-0.933,0.328-1.457,0.328s-1.011-0.109-1.457-0.328c-0.447-0.219-0.834-0.525-1.159-0.918
		s-0.581-0.86-0.766-1.399c-0.185-0.54-0.276-1.13-0.276-1.771s0.092-1.231,0.276-1.771c0.185-0.539,0.44-1.005,0.766-1.399
		s0.712-0.702,1.159-0.926c0.446-0.223,0.933-0.335,1.457-0.335s1.011,0.112,1.457,0.335c0.447,0.224,0.834,0.532,1.159,0.926
		s0.58,0.86,0.766,1.399C406.895,7.823,406.987,8.414,406.987,9.055z M405.981,9.055c0-0.525-0.065-1-0.196-1.428
		c-0.132-0.428-0.313-0.794-0.547-1.101s-0.513-0.544-0.838-0.714c-0.326-0.17-0.683-0.255-1.071-0.255
		c-0.398,0-0.761,0.085-1.086,0.255s-0.604,0.408-0.838,0.714s-0.415,0.673-0.547,1.101c-0.131,0.428-0.196,0.903-0.196,1.428
		s0.065,1.001,0.196,1.428c0.132,0.428,0.313,0.794,0.547,1.101s0.513,0.542,0.838,0.707s0.688,0.248,1.086,0.248
		c0.389,0,0.745-0.083,1.071-0.248c0.325-0.165,0.604-0.401,0.838-0.707s0.415-0.673,0.547-1.101
		C405.916,10.056,405.981,9.58,405.981,9.055z"/>
	<path fill="#D2D2D2" d="M415.907,9.055c0,0.641-0.093,1.231-0.276,1.771c-0.186,0.539-0.44,1.005-0.766,1.399
		s-0.712,0.7-1.159,0.918c-0.446,0.219-0.933,0.328-1.457,0.328s-1.011-0.109-1.457-0.328c-0.447-0.219-0.834-0.525-1.159-0.918
		s-0.581-0.86-0.766-1.399c-0.185-0.54-0.276-1.13-0.276-1.771s0.092-1.231,0.276-1.771c0.185-0.539,0.44-1.005,0.766-1.399
		s0.712-0.702,1.159-0.926c0.446-0.223,0.933-0.335,1.457-0.335s1.011,0.112,1.457,0.335c0.447,0.224,0.834,0.532,1.159,0.926
		s0.58,0.86,0.766,1.399C415.814,7.823,415.907,8.414,415.907,9.055z M414.901,9.055c0-0.525-0.065-1-0.196-1.428
		c-0.132-0.428-0.313-0.794-0.547-1.101s-0.513-0.544-0.838-0.714c-0.326-0.17-0.683-0.255-1.071-0.255
		c-0.398,0-0.761,0.085-1.086,0.255s-0.604,0.408-0.838,0.714s-0.415,0.673-0.547,1.101c-0.131,0.428-0.196,0.903-0.196,1.428
		s0.065,1.001,0.196,1.428c0.132,0.428,0.313,0.794,0.547,1.101s0.513,0.542,0.838,0.707s0.688,0.248,1.086,0.248
		c0.389,0,0.745-0.083,1.071-0.248c0.325-0.165,0.604-0.401,0.838-0.707s0.415-0.673,0.547-1.101
		C414.836,10.056,414.901,9.58,414.901,9.055z"/>
	<path fill="#D2D2D2" d="M424.827,9.055c0,0.641-0.093,1.231-0.276,1.771c-0.186,0.539-0.44,1.005-0.766,1.399
		s-0.712,0.7-1.159,0.918c-0.446,0.219-0.933,0.328-1.457,0.328s-1.011-0.109-1.457-0.328c-0.447-0.219-0.834-0.525-1.159-0.918
		s-0.581-0.86-0.766-1.399c-0.185-0.54-0.276-1.13-0.276-1.771s0.092-1.231,0.276-1.771c0.185-0.539,0.44-1.005,0.766-1.399
		s0.712-0.702,1.159-0.926c0.446-0.223,0.933-0.335,1.457-0.335s1.011,0.112,1.457,0.335c0.447,0.224,0.834,0.532,1.159,0.926
		s0.58,0.86,0.766,1.399C424.734,7.823,424.827,8.414,424.827,9.055z M423.821,9.055c0-0.525-0.065-1-0.196-1.428
		c-0.132-0.428-0.313-0.794-0.547-1.101s-0.513-0.544-0.838-0.714c-0.326-0.17-0.683-0.255-1.071-0.255
		c-0.398,0-0.761,0.085-1.086,0.255s-0.604,0.408-0.838,0.714s-0.415,0.673-0.547,1.101c-0.131,0.428-0.196,0.903-0.196,1.428
		s0.065,1.001,0.196,1.428c0.132,0.428,0.313,0.794,0.547,1.101s0.513,0.542,0.838,0.707s0.688,0.248,1.086,0.248
		c0.389,0,0.745-0.083,1.071-0.248c0.325-0.165,0.604-0.401,0.838-0.707s0.415-0.673,0.547-1.101
		C423.756,10.056,423.821,9.58,423.821,9.055z"/>
	<path fill="#D2D2D2" d="M434.083,12.961c-0.059,0.029-0.144,0.068-0.256,0.117c-0.111,0.048-0.24,0.097-0.386,0.146
		c-0.146,0.049-0.312,0.092-0.496,0.131c-0.185,0.039-0.379,0.058-0.583,0.058c-0.214,0-0.417-0.029-0.611-0.087
		c-0.195-0.058-0.365-0.148-0.511-0.27s-0.262-0.274-0.35-0.459s-0.131-0.398-0.131-0.642V6.519h-1.05V5.731h1.05V3.167h0.991v2.565
		h1.749v0.787h-1.749v5.16c0.019,0.282,0.118,0.488,0.299,0.62c0.18,0.131,0.386,0.197,0.619,0.197c0.281,0,0.529-0.046,0.743-0.139
		s0.35-0.158,0.408-0.197L434.083,12.961z"/>
	<path fill="#D2D2D2" d="M435.321,4.143V2.686h0.991v1.458H435.321z M435.321,13.325V5.731h0.991v7.594H435.321z"/>
	<path fill="#D2D2D2" d="M449.794,13.325h-0.991V9.084c0-0.884-0.141-1.535-0.423-1.953c-0.281-0.417-0.699-0.627-1.253-0.627
		c-0.292,0-0.566,0.054-0.823,0.161c-0.258,0.107-0.496,0.257-0.715,0.452s-0.41,0.425-0.575,0.692
		c-0.166,0.267-0.292,0.561-0.379,0.882v4.635h-0.991V9.084c0-0.904-0.137-1.56-0.408-1.968c-0.272-0.408-0.69-0.612-1.254-0.612
		c-0.573,0-1.083,0.199-1.53,0.598c-0.446,0.398-0.768,0.923-0.962,1.574v4.649h-0.991V5.731h0.904v1.72
		c0.311-0.583,0.719-1.037,1.224-1.363c0.506-0.326,1.064-0.488,1.677-0.488c0.641,0,1.153,0.18,1.537,0.539
		c0.384,0.36,0.62,0.831,0.707,1.414c0.709-1.302,1.686-1.953,2.93-1.953c0.428,0,0.789,0.078,1.086,0.233
		c0.296,0.156,0.534,0.377,0.714,0.663c0.18,0.287,0.312,0.632,0.394,1.035c0.083,0.403,0.124,0.853,0.124,1.348V13.325z"/>
	<path fill="#D2D2D2" d="M455.172,13.471c-0.554,0-1.062-0.104-1.522-0.313c-0.462-0.209-0.862-0.496-1.202-0.86
		c-0.341-0.365-0.605-0.785-0.795-1.261s-0.284-0.986-0.284-1.531c0-0.534,0.095-1.037,0.284-1.508s0.452-0.884,0.787-1.239
		s0.736-0.636,1.202-0.846c0.467-0.208,0.972-0.313,1.517-0.313c0.554,0,1.061,0.104,1.522,0.313
		c0.462,0.209,0.857,0.494,1.188,0.853c0.33,0.359,0.587,0.772,0.772,1.239c0.184,0.466,0.276,0.962,0.276,1.487
		c0,0.078,0,0.155,0,0.233c0,0.078-0.005,0.131-0.015,0.16h-6.5c0.029,0.408,0.124,0.785,0.284,1.13s0.366,0.644,0.619,0.896
		c0.253,0.252,0.542,0.449,0.867,0.59c0.325,0.141,0.673,0.211,1.042,0.211c0.243,0,0.486-0.034,0.729-0.102
		c0.243-0.068,0.467-0.16,0.671-0.277s0.389-0.26,0.554-0.43s0.292-0.357,0.379-0.562l0.86,0.233
		c-0.117,0.282-0.282,0.537-0.496,0.765c-0.214,0.229-0.461,0.428-0.743,0.598s-0.593,0.301-0.933,0.394
		S455.541,13.471,455.172,13.471z M457.971,9.127c-0.029-0.408-0.124-0.78-0.284-1.115c-0.16-0.335-0.364-0.625-0.612-0.867
		s-0.534-0.432-0.859-0.568c-0.326-0.136-0.674-0.204-1.043-0.204s-0.719,0.068-1.049,0.204c-0.331,0.136-0.619,0.326-0.867,0.568
		s-0.447,0.534-0.598,0.875s-0.24,0.709-0.27,1.107H457.971z"/>
	<path fill="#D2D2D2" d="M462.97,13.471c-0.593,0-1.171-0.097-1.734-0.291c-0.563-0.194-1.049-0.476-1.457-0.846l0.451-0.67
		c0.428,0.35,0.862,0.612,1.305,0.787s0.916,0.262,1.421,0.262c0.612,0,1.101-0.124,1.465-0.372c0.364-0.248,0.547-0.6,0.547-1.057
		c0-0.213-0.049-0.391-0.146-0.532c-0.098-0.141-0.24-0.265-0.43-0.372c-0.19-0.106-0.428-0.201-0.715-0.284
		c-0.286-0.083-0.619-0.167-0.998-0.255c-0.438-0.107-0.816-0.214-1.137-0.321c-0.321-0.106-0.586-0.228-0.795-0.364
		c-0.209-0.136-0.364-0.304-0.466-0.503c-0.103-0.199-0.153-0.449-0.153-0.75c0-0.379,0.075-0.714,0.226-1.006
		s0.354-0.532,0.612-0.721s0.559-0.333,0.904-0.43c0.345-0.097,0.711-0.146,1.1-0.146c0.583,0,1.113,0.095,1.589,0.284
		c0.477,0.189,0.86,0.439,1.151,0.75l-0.48,0.583c-0.282-0.292-0.625-0.51-1.028-0.656c-0.403-0.146-0.823-0.219-1.26-0.219
		c-0.263,0-0.506,0.027-0.729,0.08c-0.224,0.054-0.42,0.139-0.59,0.255c-0.17,0.116-0.304,0.265-0.401,0.444
		c-0.097,0.18-0.146,0.391-0.146,0.634c0,0.204,0.034,0.37,0.103,0.496c0.067,0.126,0.18,0.236,0.335,0.328s0.352,0.175,0.59,0.248
		c0.238,0.073,0.527,0.148,0.867,0.226c0.486,0.117,0.913,0.233,1.283,0.35c0.369,0.117,0.678,0.253,0.925,0.408
		c0.248,0.156,0.436,0.345,0.562,0.568c0.126,0.224,0.189,0.496,0.189,0.816c0,0.7-0.268,1.253-0.802,1.662
		S463.874,13.471,462.97,13.471z"/>
</g>
<g>
	<path fill="#D2D2D2" d="M30.746,21.825V11.477h4.285c0.447,0,0.857,0.095,1.231,0.284s0.697,0.437,0.97,0.743
		c0.271,0.306,0.485,0.654,0.642,1.042c0.155,0.389,0.232,0.783,0.232,1.181c0,0.428-0.072,0.838-0.219,1.232
		c-0.146,0.393-0.35,0.741-0.611,1.042c-0.263,0.301-0.576,0.544-0.94,0.729c-0.364,0.185-0.771,0.277-1.217,0.277h-3.353v3.819
		H30.746z M31.767,17.103h3.309c0.301,0,0.576-0.066,0.823-0.197c0.248-0.131,0.459-0.306,0.634-0.525
		c0.176-0.219,0.312-0.471,0.408-0.758c0.098-0.287,0.146-0.585,0.146-0.896c0-0.32-0.057-0.624-0.168-0.911
		c-0.112-0.287-0.263-0.537-0.452-0.751c-0.189-0.213-0.413-0.381-0.67-0.502c-0.258-0.122-0.527-0.183-0.81-0.183h-3.221V17.103z"
		/>
	<path fill="#D2D2D2" d="M42.713,21.971c-0.554,0-1.06-0.104-1.517-0.313c-0.456-0.209-0.853-0.493-1.188-0.853
		s-0.595-0.777-0.779-1.254c-0.185-0.476-0.277-0.976-0.277-1.501c0-0.534,0.095-1.04,0.284-1.516s0.452-0.894,0.787-1.253
		s0.731-0.646,1.188-0.86c0.457-0.213,0.957-0.32,1.502-0.32c0.544,0,1.047,0.107,1.508,0.32c0.462,0.214,0.86,0.501,1.195,0.86
		s0.598,0.777,0.787,1.253s0.284,0.981,0.284,1.516c0,0.525-0.092,1.025-0.276,1.501c-0.186,0.477-0.445,0.895-0.78,1.254
		s-0.733,0.644-1.195,0.853C43.774,21.866,43.267,21.971,42.713,21.971z M39.958,18.065c0,0.428,0.073,0.823,0.219,1.188
		c0.146,0.364,0.342,0.685,0.59,0.962c0.248,0.277,0.539,0.493,0.875,0.648c0.335,0.155,0.692,0.233,1.071,0.233
		s0.735-0.081,1.071-0.241c0.335-0.16,0.629-0.379,0.882-0.656c0.252-0.277,0.451-0.6,0.598-0.969
		c0.146-0.369,0.218-0.768,0.218-1.195c0-0.417-0.072-0.813-0.218-1.188c-0.146-0.374-0.346-0.699-0.598-0.977
		c-0.253-0.277-0.547-0.495-0.882-0.656c-0.336-0.16-0.692-0.24-1.071-0.24s-0.734,0.08-1.064,0.24
		c-0.33,0.161-0.622,0.381-0.874,0.663c-0.253,0.282-0.452,0.61-0.598,0.984C40.031,17.237,39.958,17.637,39.958,18.065z"/>
	<path fill="#D2D2D2" d="M51.385,21.971c-0.554,0-1.06-0.104-1.517-0.313c-0.456-0.209-0.853-0.493-1.188-0.853
		s-0.595-0.777-0.779-1.254c-0.185-0.476-0.277-0.976-0.277-1.501c0-0.534,0.095-1.04,0.284-1.516s0.452-0.894,0.787-1.253
		s0.731-0.646,1.188-0.86c0.457-0.213,0.957-0.32,1.502-0.32c0.544,0,1.047,0.107,1.508,0.32c0.462,0.214,0.86,0.501,1.195,0.86
		s0.598,0.777,0.787,1.253s0.284,0.981,0.284,1.516c0,0.525-0.092,1.025-0.276,1.501c-0.186,0.477-0.445,0.895-0.78,1.254
		s-0.733,0.644-1.195,0.853C52.446,21.866,51.938,21.971,51.385,21.971z M48.63,18.065c0,0.428,0.073,0.823,0.219,1.188
		c0.146,0.364,0.342,0.685,0.59,0.962c0.248,0.277,0.539,0.493,0.875,0.648c0.335,0.155,0.692,0.233,1.071,0.233
		s0.735-0.081,1.071-0.241c0.335-0.16,0.629-0.379,0.882-0.656c0.252-0.277,0.451-0.6,0.598-0.969
		c0.146-0.369,0.218-0.768,0.218-1.195c0-0.417-0.072-0.813-0.218-1.188c-0.146-0.374-0.346-0.699-0.598-0.977
		c-0.253-0.277-0.547-0.495-0.882-0.656c-0.336-0.16-0.692-0.24-1.071-0.24s-0.734,0.08-1.064,0.24
		c-0.33,0.161-0.622,0.381-0.874,0.663c-0.253,0.282-0.452,0.61-0.598,0.984C48.703,17.237,48.63,17.637,48.63,18.065z"/>
	<path fill="#D2D2D2" d="M56.864,11.186h0.991v8.92c0,0.282,0.078,0.503,0.233,0.663s0.374,0.24,0.655,0.24
		c0.107,0,0.233-0.014,0.379-0.043c0.146-0.029,0.282-0.068,0.408-0.117l0.175,0.802c-0.185,0.078-0.41,0.141-0.678,0.189
		c-0.267,0.048-0.498,0.073-0.691,0.073c-0.457,0-0.816-0.128-1.079-0.386c-0.263-0.257-0.394-0.62-0.394-1.086V11.186z"/>
	<path fill="#D2D2D2" d="M64.063,21.971c-0.554,0-1.062-0.104-1.522-0.313c-0.462-0.209-0.862-0.496-1.202-0.86
		c-0.341-0.365-0.605-0.785-0.795-1.261s-0.284-0.986-0.284-1.531c0-0.534,0.095-1.037,0.284-1.508s0.452-0.884,0.787-1.239
		s0.736-0.636,1.202-0.846c0.467-0.208,0.972-0.313,1.517-0.313c0.554,0,1.061,0.104,1.522,0.313
		c0.462,0.209,0.857,0.494,1.188,0.853c0.33,0.359,0.587,0.772,0.772,1.239c0.184,0.466,0.276,0.962,0.276,1.487
		c0,0.078,0,0.155,0,0.233c0,0.078-0.005,0.131-0.015,0.16h-6.5c0.029,0.408,0.124,0.785,0.284,1.13s0.366,0.644,0.619,0.896
		c0.253,0.252,0.542,0.449,0.867,0.59c0.325,0.141,0.673,0.211,1.042,0.211c0.243,0,0.486-0.034,0.729-0.102
		c0.243-0.068,0.467-0.16,0.671-0.277s0.389-0.26,0.554-0.43s0.292-0.357,0.379-0.562l0.86,0.233
		c-0.117,0.282-0.282,0.537-0.496,0.765c-0.214,0.229-0.461,0.428-0.743,0.598s-0.593,0.301-0.933,0.394
		S64.433,21.971,64.063,21.971z M66.862,17.627c-0.029-0.408-0.124-0.78-0.284-1.115c-0.16-0.335-0.364-0.625-0.612-0.867
		s-0.534-0.432-0.859-0.568c-0.326-0.136-0.674-0.204-1.043-0.204s-0.719,0.068-1.049,0.204c-0.331,0.136-0.619,0.326-0.867,0.568
		S61.7,16.18,61.55,16.52s-0.24,0.709-0.27,1.107H66.862z"/>
	<path fill="#D2D2D2" d="M72.459,21.971c-0.524,0-1.011-0.109-1.457-0.328c-0.447-0.219-0.831-0.508-1.151-0.867
		c-0.321-0.359-0.571-0.775-0.751-1.246s-0.27-0.964-0.27-1.479c0-0.534,0.088-1.042,0.263-1.523s0.415-0.901,0.721-1.261
		c0.307-0.359,0.671-0.644,1.094-0.853c0.423-0.208,0.887-0.313,1.392-0.313c0.642,0,1.21,0.167,1.705,0.503
		c0.496,0.335,0.885,0.741,1.166,1.217v-4.635h0.991v9.357c0,0.272,0.117,0.408,0.35,0.408v0.875
		c-0.146,0.029-0.262,0.044-0.35,0.044c-0.233,0-0.438-0.075-0.612-0.226c-0.175-0.15-0.262-0.333-0.262-0.546v-0.744
		c-0.302,0.496-0.71,0.889-1.225,1.181C73.547,21.825,73.013,21.971,72.459,21.971z M72.678,21.097c0.243,0,0.503-0.049,0.78-0.146
		c0.276-0.097,0.536-0.23,0.779-0.401c0.243-0.17,0.449-0.369,0.619-0.598c0.17-0.228,0.274-0.474,0.313-0.736V16.87
		c-0.097-0.262-0.238-0.507-0.423-0.736s-0.396-0.43-0.634-0.605s-0.493-0.311-0.765-0.408c-0.272-0.097-0.54-0.146-0.802-0.146
		c-0.408,0-0.777,0.087-1.107,0.262c-0.331,0.175-0.615,0.406-0.854,0.692c-0.237,0.287-0.42,0.615-0.546,0.984
		c-0.127,0.369-0.189,0.748-0.189,1.137c0,0.408,0.072,0.797,0.219,1.166c0.146,0.369,0.345,0.692,0.598,0.969
		c0.252,0.277,0.551,0.498,0.896,0.663C71.907,21.014,72.279,21.097,72.678,21.097z"/>
	<path fill="#D2D2D2" d="M85.169,21.927c-0.525,0-1.004-0.109-1.436-0.328c-0.433-0.218-0.807-0.507-1.123-0.867
		c-0.315-0.359-0.561-0.772-0.735-1.239s-0.263-0.947-0.263-1.443c0-0.525,0.085-1.027,0.255-1.508
		c0.17-0.481,0.41-0.901,0.722-1.261c0.311-0.359,0.683-0.646,1.115-0.86c0.432-0.213,0.911-0.32,1.436-0.32
		c0.65,0,1.214,0.163,1.69,0.488c0.476,0.326,0.884,0.736,1.225,1.231v-1.589h0.889v7.623c0,0.524-0.1,0.988-0.299,1.392
		s-0.466,0.741-0.802,1.013c-0.335,0.272-0.729,0.476-1.181,0.612c-0.451,0.136-0.93,0.204-1.436,0.204
		c-0.874,0-1.579-0.155-2.113-0.466s-0.967-0.729-1.297-1.253l0.612-0.481c0.301,0.486,0.699,0.843,1.195,1.071
		c0.495,0.228,1.029,0.343,1.603,0.343c0.369,0,0.72-0.051,1.05-0.153s0.619-0.253,0.867-0.452c0.248-0.199,0.444-0.452,0.59-0.758
		c0.146-0.306,0.219-0.664,0.219-1.071v-1.501c-0.291,0.486-0.689,0.87-1.195,1.151C86.252,21.787,85.723,21.927,85.169,21.927z
		 M85.445,21.097c0.292,0,0.578-0.054,0.86-0.161c0.281-0.107,0.536-0.25,0.765-0.43s0.421-0.381,0.576-0.605
		s0.257-0.452,0.306-0.685V16.87c-0.106-0.272-0.253-0.524-0.437-0.758c-0.186-0.233-0.394-0.432-0.627-0.598
		c-0.233-0.165-0.483-0.296-0.751-0.394s-0.537-0.146-0.809-0.146c-0.428,0-0.81,0.09-1.145,0.27s-0.619,0.416-0.853,0.707
		s-0.41,0.622-0.532,0.991c-0.121,0.37-0.182,0.744-0.182,1.123c0,0.408,0.072,0.797,0.219,1.166
		c0.146,0.369,0.347,0.692,0.604,0.969s0.557,0.496,0.896,0.656S85.047,21.097,85.445,21.097z"/>
	<path fill="#D2D2D2" d="M94.919,15.106c-0.671,0.02-1.254,0.204-1.749,0.554c-0.496,0.35-0.846,0.831-1.05,1.443v4.722h-0.991
		v-7.594h0.934v1.822c0.281-0.583,0.66-1.04,1.137-1.37c0.476-0.331,0.985-0.496,1.53-0.496c0.077,0,0.141,0.005,0.189,0.015V15.106
		z"/>
	<path fill="#D2D2D2" d="M99.103,21.971c-0.554,0-1.06-0.104-1.517-0.313c-0.456-0.209-0.853-0.493-1.188-0.853
		s-0.595-0.777-0.779-1.254c-0.185-0.476-0.277-0.976-0.277-1.501c0-0.534,0.095-1.04,0.284-1.516s0.452-0.894,0.787-1.253
		s0.731-0.646,1.188-0.86c0.457-0.213,0.957-0.32,1.502-0.32c0.544,0,1.047,0.107,1.508,0.32c0.462,0.214,0.86,0.501,1.195,0.86
		s0.598,0.777,0.787,1.253s0.284,0.981,0.284,1.516c0,0.525-0.092,1.025-0.276,1.501c-0.186,0.477-0.445,0.895-0.78,1.254
		s-0.733,0.644-1.195,0.853C100.164,21.866,99.656,21.971,99.103,21.971z M96.348,18.065c0,0.428,0.073,0.823,0.219,1.188
		c0.146,0.364,0.342,0.685,0.59,0.962c0.248,0.277,0.539,0.493,0.875,0.648c0.335,0.155,0.692,0.233,1.071,0.233
		s0.735-0.081,1.071-0.241c0.335-0.16,0.629-0.379,0.882-0.656c0.252-0.277,0.451-0.6,0.598-0.969
		c0.146-0.369,0.218-0.768,0.218-1.195c0-0.417-0.072-0.813-0.218-1.188c-0.146-0.374-0.346-0.699-0.598-0.977
		c-0.253-0.277-0.547-0.495-0.882-0.656c-0.336-0.16-0.692-0.24-1.071-0.24s-0.734,0.08-1.064,0.24
		c-0.33,0.161-0.622,0.381-0.874,0.663c-0.253,0.282-0.452,0.61-0.598,0.984C96.421,17.237,96.348,17.637,96.348,18.065z"/>
	<path fill="#D2D2D2" d="M106.914,21.971c-0.826,0-1.44-0.274-1.844-0.823s-0.604-1.368-0.604-2.456v-4.46h0.991v4.285
		c0,1.72,0.588,2.58,1.764,2.58c0.291,0,0.577-0.049,0.859-0.146s0.542-0.238,0.78-0.423c0.237-0.184,0.451-0.403,0.641-0.656
		c0.189-0.252,0.343-0.539,0.459-0.86v-4.781h0.991v6.311c0,0.272,0.117,0.408,0.35,0.408v0.875
		c-0.116,0.02-0.211,0.029-0.284,0.029c-0.072,0-0.123,0-0.152,0c-0.233-0.01-0.423-0.092-0.568-0.248
		c-0.146-0.155-0.219-0.364-0.219-0.626v-0.875c-0.331,0.593-0.78,1.052-1.349,1.377C108.16,21.808,107.556,21.971,106.914,21.971z"
		/>
	<path fill="#D2D2D2" d="M117.072,21.971c-0.641,0-1.207-0.163-1.697-0.488c-0.491-0.326-0.887-0.736-1.188-1.232v4.679h-0.991
		V14.231h0.89v1.472c0.311-0.476,0.714-0.862,1.21-1.159c0.495-0.296,1.034-0.444,1.617-0.444c0.524,0,1.006,0.109,1.443,0.328
		c0.437,0.219,0.816,0.51,1.137,0.875c0.32,0.365,0.57,0.785,0.751,1.261c0.179,0.477,0.27,0.967,0.27,1.472
		c0,0.535-0.083,1.04-0.248,1.516c-0.165,0.477-0.401,0.895-0.707,1.254s-0.671,0.644-1.093,0.853
		C118.042,21.866,117.578,21.971,117.072,21.971z M116.796,21.097c0.408,0,0.779-0.088,1.115-0.263
		c0.335-0.175,0.621-0.405,0.859-0.692c0.238-0.286,0.42-0.612,0.547-0.977c0.126-0.364,0.189-0.741,0.189-1.129
		c0-0.408-0.073-0.796-0.219-1.166c-0.146-0.369-0.345-0.694-0.598-0.977c-0.253-0.282-0.552-0.505-0.896-0.67
		c-0.345-0.165-0.717-0.248-1.115-0.248c-0.252,0-0.517,0.051-0.794,0.153s-0.534,0.238-0.772,0.408s-0.442,0.369-0.612,0.598
		s-0.274,0.469-0.313,0.721v2.332c0.117,0.272,0.265,0.525,0.444,0.758c0.18,0.233,0.384,0.435,0.612,0.605
		c0.229,0.17,0.474,0.304,0.736,0.401S116.514,21.097,116.796,21.097z"/>
</g>
<polyline fill="none" stroke="#D2D2D2" stroke-width="1.5" stroke-linecap="round" stroke-linejoin="round" points="179.5,25.5 
	179.5,19.5 594.499,19.5 594.499,25.5 "/>
<g>
	<circle fill="#45AAFF" cx="115.559" cy="72.73" r="6.037"/>
	<circle fill="#0088FF" cx="74.067" cy="72.73" r="6.037"/>
	<circle fill="#5BC0DE" cx="18.74" cy="72.729" r="6.037"/>
	<circle fill="#5BC0DE" cx="129.391" cy="72.729" r="6.037"/>
	<circle fill="#0000FF" cx="101.729" cy="72.729" r="6.037"/>
	<circle fill="#0000FF" cx="46.403" cy="86.447" r="6.037"/>
	<circle fill="#5BC0DE" cx="129.391" cy="43.739" r="6.037"/>
	<circle fill="#5BC0DE" cx="115.559" cy="43.739" r="6.037"/>
	<circle fill="#5BC0DE" cx="87.897" cy="72.729" r="6.037"/>
	<circle fill="#5BC0DE" cx="87.897" cy="43.739" r="6.037"/>
	<circle fill="#5BC0DE" cx="74.067" cy="43.739" r="6.037"/>
	<circle fill="#5BC0DE" cx="60.234" cy="72.729" r="6.037"/>
	<circle fill="#5BC0DE" cx="46.402" cy="43.739" r="6.037"/>
	<circle fill="#0000FF" cx="32.572" cy="43.739" r="6.037"/>
	<circle fill="#5BC0DE" cx="18.74" cy="43.739" r="6.037"/>
	<circle fill="#0000FF" cx="46.403" cy="72.729" r="6.038"/>
	<circle fill="#0000FF" cx="32.572" cy="72.729" r="6.037"/>
	<circle fill="#5BC0DE" cx="31.693" cy="58.797" r="6.037"/>
	<circle fill="#5BC0DE" cx="73.188" cy="58.797" r="6.037"/>
	<circle fill="#5BC0DE" cx="74.066" cy="86.446" r="6.037"/>
	<circle fill="#5BC0DE" cx="60.235" cy="86.446" r="6.037"/>
	<circle fill="#5BC0DE" cx="59.356" cy="58.797" r="6.038"/>
	<circle fill="#0000FF" cx="45.525" cy="58.797" r="6.037"/>
	<circle fill="#0000FF" cx="18.741" cy="86.446" r="6.037"/>
	<circle fill="#0000FF" cx="129.391" cy="59.125" r="6.037"/>
	<circle fill="#0000FF" cx="115.559" cy="86.447" r="6.037"/>
	<circle fill="#5BC0DE" cx="115.559" cy="59.125" r="6.037"/>
	<circle fill="#5BC0DE" cx="101.727" cy="86.447" r="6.037"/>
	<circle fill="#5BC0DE" cx="101.729" cy="59.125" r="6.037"/>
	<circle fill="#0088FF" cx="60.234" cy="43.739" r="6.037"/>
	<circle fill="#0088FF" cx="101.729" cy="43.739" r="6.037"/>
	<circle fill="#0088FF" cx="18.74" cy="58.798" r="6.037"/>
	<circle fill="#0088FF" cx="87.897" cy="58.798" r="6.037"/>
	<circle fill="#0088FF" cx="87.897" cy="86.447" r="6.037"/>
	<circle fill="#0088FF" cx="32.572" cy="86.447" r="6.037"/>
	<circle fill="#0088FF" cx="129.39" cy="86.447" r="6.037"/>
	<circle fill="#F0AD4E" cx="46.403" cy="114.443" r="6.037"/>
	<circle fill="#F0AD4E" cx="32.571" cy="142.812" r="6.037"/>
	<circle fill="#FFFF4E" cx="60.234" cy="129.002" r="6.038"/>
	<circle fill="#F0AD4E" cx="101.728" cy="129.002" r="6.038"/>
	<circle fill="#FFFF4E" cx="115.559" cy="156.889" r="6.037"/>
	<circle fill="#F0AD4E" cx="18.741" cy="114.443" r="6.037"/>
	<circle fill="#F0AD4E" cx="46.402" cy="170.75" r="6.038"/>
	<circle fill="#F0AD4E" cx="60.235" cy="170.75" r="6.037"/>
	<circle fill="#FFFF00" cx="74.065" cy="100.715" r="6.037"/>
	<circle fill="#F0AD4E" cx="129.39" cy="114.443" r="6.038"/>
	<circle fill="#D9534F" cx="101.728" cy="170.75" r="6.038"/>
	<circle fill="#D9534F" cx="46.402" cy="142.812" r="6.037"/>
	<circle fill="#D9534F" cx="18.741" cy="100.715" r="6.037"/>
	<circle fill="#F0AD4E" cx="129.39" cy="100.715" r="6.038"/>
	<circle fill="#FFFF4E" cx="115.559" cy="100.715" r="6.037"/>
	<circle fill="#F0AD4E" cx="101.727" cy="100.715" r="6.037"/>
	<circle fill="#FFFF4E" cx="87.897" cy="100.715" r="6.037"/>
	<circle fill="#F0AD4E" cx="60.235" cy="100.715" r="6.037"/>
	<circle fill="#F0AD4E" cx="46.403" cy="100.715" r="6.037"/>
	<circle fill="#FFFF4E" cx="32.572" cy="100.715" r="6.038"/>
	<circle fill="#D9534F" cx="115.559" cy="114.443" r="6.037"/>
	<circle fill="#F0AD4E" cx="101.727" cy="114.443" r="6.037"/>
	<circle fill="#F0AD4E" cx="87.897" cy="114.443" r="6.037"/>
	<circle fill="#F0AD4E" cx="74.065" cy="114.443" r="6.037"/>
	<circle fill="#D9534F" cx="60.235" cy="114.443" r="6.037"/>
	<circle fill="#F0AD4E" cx="32.572" cy="114.443" r="6.038"/>
	<circle fill="#FFFF4E" cx="18.741" cy="129.002" r="6.037"/>
	<circle fill="#D9534F" cx="129.39" cy="129.002" r="6.038"/>
	<circle fill="#FFFF00" cx="115.559" cy="129.002" r="6.037"/>
	<circle fill="#FFFF00" cx="87.897" cy="129.002" r="6.037"/>
	<circle fill="#F0AD4E" cx="74.065" cy="129.002" r="6.037"/>
	<circle fill="#F0AD4E" cx="46.403" cy="129.002" r="6.037"/>
	<circle fill="#F0AD4E" cx="32.572" cy="129.002" r="6.038"/>
	<circle fill="#FFFF4E" cx="18.741" cy="142.812" r="6.037"/>
	<circle fill="#F0AD4E" cx="129.39" cy="142.812" r="6.038"/>
	<circle fill="#F0AD4E" cx="115.559" cy="142.812" r="6.037"/>
	<circle fill="#FFFF4E" cx="101.727" cy="142.812" r="6.037"/>
	<circle fill="#D9534F" cx="87.897" cy="142.812" r="6.037"/>
	<circle fill="#F0AD4E" cx="74.065" cy="142.812" r="6.037"/>
	<circle fill="#F0AD4E" cx="60.235" cy="142.812" r="6.037"/>
	<circle fill="#F0AD4E" cx="18.741" cy="156.889" r="6.037"/>
	<circle fill="#F0AD4E" cx="129.39" cy="156.889" r="6.038"/>
	<circle fill="#F0AD4E" cx="101.727" cy="156.889" r="6.037"/>
	<circle fill="#F0AD4E" cx="87.897" cy="156.889" r="6.037"/>
	<circle fill="#F0AD4E" cx="74.065" cy="156.889" r="6.037"/>
	<circle fill="#FFFF4E" cx="60.235" cy="156.889" r="6.037"/>
	<circle fill="#F0AD4E" cx="46.403" cy="156.889" r="6.037"/>
	<circle fill="#FFFF4E" cx="32.572" cy="156.889" r="6.038"/>
	<circle fill="#F0AD4E" cx="18.741" cy="170.75" r="6.037"/>
	<circle fill="#FFFF4E" cx="129.39" cy="170.75" r="6.038"/>
	<circle fill="#F0AD4E" cx="115.559" cy="170.75" r="6.037"/>
	<circle fill="#F0AD4E" cx="87.897" cy="170.75" r="6.037"/>
	<circle fill="#D9534F" cx="74.065" cy="170.75" r="6.037"/>
	<circle fill="#D9534F" cx="32.572" cy="170.75" r="6.038"/>
</g>
<circle fill="#5BC0DE" cx="304.656" cy="114.662" r="6.037"/>
<circle fill="#5BC0DE" cx="221.668" cy="156.994" r="6.037"/>
<circle fill="#FFFF4E" cx="194.006" cy="170.855" r="6.037"/>
<circle fill="#0088FF" cx="290.824" cy="100.82" r="6.037"/>
<circle fill="#0000FF" cx="221.668" cy="87.044" r="6.037"/>
<circle fill="#0088FF" cx="207.838" cy="114.549" r="6.037"/>
<circle fill="#FFFF4E" cx="276.994" cy="86.625" r="6.037"/>
<circle fill="#0000FF" cx="249.332" cy="129.107" r="6.037"/>
<circle fill="#5BC0DE" cx="263.162" cy="115.039" r="6.037"/>
<circle fill="#0000FF" cx="249.33" cy="86.876" r="6.037"/>
<circle fill="#0088FF" cx="249.332" cy="143.408" r="6.037"/>
<circle fill="#FFFF4E" cx="194.006" cy="58.905" r="6.037"/>
<circle fill="#D9534F" cx="263.162" cy="100.82" r="6.037"/>
<circle fill="#D9534F" cx="249.332" cy="72.681" r="6.037"/>
<circle fill="#45AAFF" cx="194.006" cy="143.408" r="6.037"/>
<circle fill="#0088FF" cx="249.332" cy="171.625" r="6.037"/>
<circle fill="#5BC0DE" cx="194.005" cy="72.835" r="6.037"/>
<circle fill="#5BC0DE" cx="304.656" cy="72.835" r="6.037"/>
<circle fill="#0000FF" cx="276.994" cy="72.835" r="6.037"/>
<circle fill="#5BC0DE" cx="304.656" cy="43.845" r="6.037"/>
<circle fill="#5BC0DE" cx="235.5" cy="142.918" r="6.037"/>
<circle fill="#5BC0DE" cx="263.162" cy="72.835" r="6.037"/>
<circle fill="#5BC0DE" cx="235.5" cy="114.549" r="6.037"/>
<circle fill="#5BC0DE" cx="263.162" cy="156.994" r="6.037"/>
<circle fill="#5BC0DE" cx="290.824" cy="142.918" r="6.037"/>
<circle fill="#5BC0DE" cx="221.668" cy="100.82" r="6.037"/>
<circle fill="#0000FF" cx="276.994" cy="171.623" r="6.037"/>
<circle fill="#5BC0DE" cx="194.005" cy="43.845" r="6.037"/>
<circle fill="#0000FF" cx="290.825" cy="156.994" r="6.038"/>
<circle fill="#0000FF" cx="207.838" cy="72.835" r="6.037"/>
<circle fill="#5BC0DE" cx="221.668" cy="129.107" r="6.037"/>
<circle fill="#5BC0DE" cx="276.992" cy="129.107" r="6.037"/>
<circle fill="#5BC0DE" cx="234.622" cy="58.904" r="6.038"/>
<circle fill="#0000FF" cx="220.791" cy="58.904" r="6.037"/>
<circle fill="#0000FF" cx="304.656" cy="59.232" r="6.037"/>
<circle fill="#5BC0DE" cx="290.824" cy="59.232" r="6.037"/>
<circle fill="#5BC0DE" cx="207.838" cy="157.484" r="6.037"/>
<circle fill="#0088FF" cx="235.5" cy="43.845" r="6.037"/>
<circle fill="#0088FF" cx="276.994" cy="43.845" r="6.037"/>
<circle fill="#0088FF" cx="235.5" cy="157.484" r="6.037"/>
<circle fill="#0088FF" cx="263.162" cy="58.905" r="6.037"/>
<circle fill="#F0AD4E" cx="221.668" cy="114.549" r="6.037"/>
<circle fill="#F0AD4E" cx="207.836" cy="142.918" r="6.037"/>
<circle fill="#F0AD4E" cx="290.824" cy="86.875" r="6.037"/>
<circle fill="#FFFF4E" cx="235.499" cy="129.107" r="6.038"/>
<circle fill="#F0AD4E" cx="249.331" cy="59.722" r="6.038"/>
<circle fill="#FFFF4E" cx="221.668" cy="72.836" r="6.037"/>
<circle fill="#F0AD4E" cx="194.006" cy="114.549" r="6.037"/>
<circle fill="#F0AD4E" cx="221.667" cy="170.855" r="6.038"/>
<circle fill="#F0AD4E" cx="263.162" cy="86.875" r="6.037"/>
<circle fill="#FFFF00" cx="249.33" cy="100.82" r="6.037"/>
<circle fill="#F0AD4E" cx="194.006" cy="86.875" r="6.037"/>
<circle fill="#D9534F" cx="304.655" cy="86.875" r="6.038"/>
<circle fill="#F0AD4E" cx="263.162" cy="143.408" r="6.037"/>
<circle fill="#D9534F" cx="235.5" cy="86.875" r="6.037"/>
<circle fill="#F0AD4E" cx="207.837" cy="86.875" r="6.038"/>
<circle fill="#D9534F" cx="194.006" cy="100.82" r="6.037"/>
<circle fill="#F0AD4E" cx="304.655" cy="100.82" r="6.038"/>
<circle fill="#F0AD4E" cx="276.992" cy="100.82" r="6.037"/>
<circle fill="#FFFF4E" cx="234.621" cy="171.623" r="6.037"/>
<circle fill="#F0AD4E" cx="235.5" cy="100.82" r="6.037"/>
<circle fill="#F0AD4E" cx="221.668" cy="43.845" r="6.037"/>
<circle fill="#FFFF4E" cx="207.837" cy="100.82" r="6.038"/>
<circle fill="#D9534F" cx="290.824" cy="114.549" r="6.037"/>
<circle fill="#F0AD4E" cx="276.992" cy="114.549" r="6.037"/>
<circle fill="#F0AD4E" cx="249.33" cy="114.549" r="6.037"/>
<circle fill="#D9534F" cx="263.162" cy="44.409" r="6.037"/>
<circle fill="#FFFF4E" cx="194.006" cy="129.107" r="6.037"/>
<circle fill="#D9534F" cx="304.655" cy="129.107" r="6.038"/>
<circle fill="#FFFF00" cx="290.824" cy="129.107" r="6.037"/>
<circle fill="#FFFF00" cx="263.162" cy="129.107" r="6.037"/>
<circle fill="#F0AD4E" cx="290.824" cy="73.327" r="6.037"/>
<circle fill="#F0AD4E" cx="207.836" cy="58.905" r="6.037"/>
<circle fill="#F0AD4E" cx="207.837" cy="129.107" r="6.038"/>
<circle fill="#F0AD4E" cx="304.655" cy="142.918" r="6.038"/>
<circle fill="#F0AD4E" cx="235.5" cy="72.681" r="6.037"/>
<circle fill="#FFFF4E" cx="276.992" cy="142.918" r="6.037"/>
<circle fill="#F0AD4E" cx="290.824" cy="44.409" r="6.037"/>
<circle fill="#F0AD4E" cx="221.668" cy="142.918" r="6.037"/>
<circle fill="#F0AD4E" cx="194.006" cy="156.994" r="6.037"/>
<circle fill="#F0AD4E" cx="304.655" cy="156.994" r="6.038"/>
<circle fill="#F0AD4E" cx="276.992" cy="156.994" r="6.037"/>
<circle fill="#F0AD4E" cx="249.33" cy="43.845" r="6.037"/>
<circle fill="#F0AD4E" cx="249.33" cy="156.994" r="6.037"/>
<circle fill="#FFFF4E" cx="276.993" cy="58.22" r="6.038"/>
<circle fill="#FFFF4E" cx="304.655" cy="170.855" r="6.038"/>
<circle fill="#F0AD4E" cx="290.824" cy="170.855" r="6.037"/>
<circle fill="#F0AD4E" cx="207.838" cy="44.409" r="6.037"/>
<circle fill="#F0AD4E" cx="263.162" cy="170.855" r="6.037"/>
<circle fill="#D9534F" cx="207.837" cy="170.855" r="6.038"/>
<path fill="none" stroke="#636C72" stroke-width="2" d="M492.782,82.513c0,5.579-5.076,10.102-11.339,10.102H373.621
	c-6.263,0-11.339-4.522-11.339-10.102V37.025c0-5.579,5.076-10.102,11.339-10.102h107.822c6.263,0,11.339,4.523,11.339,10.102
	V82.513z"/>
<path fill="none" stroke="#636C72" stroke-width="2" d="M362.282,112.712c0-6.555,5.076-11.868,11.339-11.868h107.822
	c6.263,0,11.339,5.313,11.339,11.868v68.344c0,6.556-5.076,11.868-11.339,11.868H373.621c-6.263,0-11.339-5.312-11.339-11.868
	V112.712z"/>
<circle fill="#0000FF" cx="399.87" cy="80.527" r="6.037"/>
<circle fill="#FFFF4E" cx="455.195" cy="80.109" r="6.037"/>
<circle fill="#0000FF" cx="427.532" cy="80.359" r="6.037"/>
<circle fill="#FFFF4E" cx="372.208" cy="52.388" r="6.037"/>
<circle fill="#D9534F" cx="427.533" cy="66.164" r="6.037"/>
<circle fill="#5BC0DE" cx="372.207" cy="66.319" r="6.037"/>
<circle fill="#5BC0DE" cx="482.857" cy="66.319" r="6.037"/>
<circle fill="#0000FF" cx="455.195" cy="66.319" r="6.037"/>
<circle fill="#5BC0DE" cx="482.857" cy="37.329" r="6.037"/>
<circle fill="#5BC0DE" cx="441.363" cy="66.319" r="6.037"/>
<circle fill="#5BC0DE" cx="372.207" cy="37.329" r="6.037"/>
<circle fill="#0000FF" cx="386.039" cy="66.319" r="6.037"/>
<circle fill="#5BC0DE" cx="412.823" cy="52.387" r="6.038"/>
<circle fill="#0000FF" cx="398.992" cy="52.387" r="6.037"/>
<circle fill="#0000FF" cx="482.857" cy="52.715" r="6.037"/>
<circle fill="#5BC0DE" cx="469.025" cy="52.715" r="6.037"/>
<circle fill="#0088FF" cx="413.701" cy="37.329" r="6.037"/>
<circle fill="#0088FF" cx="455.195" cy="37.329" r="6.037"/>
<circle fill="#0088FF" cx="441.363" cy="52.388" r="6.037"/>
<circle fill="#F0AD4E" cx="469.026" cy="80.359" r="6.037"/>
<circle fill="#F0AD4E" cx="427.532" cy="53.206" r="6.038"/>
<circle fill="#FFFF4E" cx="399.87" cy="66.32" r="6.037"/>
<circle fill="#F0AD4E" cx="441.364" cy="80.359" r="6.037"/>
<circle fill="#F0AD4E" cx="372.208" cy="80.359" r="6.037"/>
<circle fill="#D9534F" cx="482.857" cy="80.359" r="6.038"/>
<circle fill="#D9534F" cx="413.702" cy="80.359" r="6.037"/>
<circle fill="#F0AD4E" cx="386.039" cy="80.359" r="6.038"/>
<circle fill="#F0AD4E" cx="399.87" cy="37.329" r="6.037"/>
<circle fill="#D9534F" cx="441.364" cy="37.893" r="6.037"/>
<circle fill="#F0AD4E" cx="469.026" cy="66.81" r="6.037"/>
<circle fill="#F0AD4E" cx="386.038" cy="52.388" r="6.037"/>
<circle fill="#F0AD4E" cx="413.702" cy="66.165" r="6.037"/>
<circle fill="#F0AD4E" cx="469.026" cy="37.893" r="6.037"/>
<circle fill="#F0AD4E" cx="427.532" cy="37.328" r="6.037"/>
<circle fill="#FFFF4E" cx="455.195" cy="51.704" r="6.038"/>
<circle fill="#F0AD4E" cx="386.039" cy="37.893" r="6.037"/>
<circle fill="#5BC0DE" cx="482.858" cy="125.211" r="6.037"/>
<circle fill="#5BC0DE" cx="399.87" cy="167.543" r="6.037"/>
<circle fill="#FFFF4E" cx="372.208" cy="181.404" r="6.037"/>
<circle fill="#0088FF" cx="469.026" cy="111.369" r="6.037"/>
<circle fill="#0088FF" cx="386.04" cy="125.098" r="6.037"/>
<circle fill="#0000FF" cx="427.533" cy="139.656" r="6.037"/>
<circle fill="#5BC0DE" cx="441.364" cy="125.588" r="6.037"/>
<circle fill="#0088FF" cx="427.533" cy="153.957" r="6.037"/>
<circle fill="#D9534F" cx="441.364" cy="111.369" r="6.037"/>
<circle fill="#45AAFF" cx="372.208" cy="153.957" r="6.037"/>
<circle fill="#0088FF" cx="427.533" cy="182.173" r="6.037"/>
<circle fill="#5BC0DE" cx="413.701" cy="153.466" r="6.037"/>
<circle fill="#5BC0DE" cx="413.701" cy="125.098" r="6.037"/>
<circle fill="#5BC0DE" cx="441.364" cy="167.543" r="6.037"/>
<circle fill="#5BC0DE" cx="469.025" cy="153.467" r="6.037"/>
<circle fill="#5BC0DE" cx="399.869" cy="111.369" r="6.037"/>
<circle fill="#0000FF" cx="455.195" cy="182.172" r="6.037"/>
<circle fill="#0000FF" cx="469.026" cy="167.543" r="6.038"/>
<circle fill="#5BC0DE" cx="399.869" cy="139.655" r="6.037"/>
<circle fill="#5BC0DE" cx="455.194" cy="139.655" r="6.037"/>
<circle fill="#5BC0DE" cx="386.039" cy="168.033" r="6.037"/>
<circle fill="#0088FF" cx="413.701" cy="168.033" r="6.037"/>
<circle fill="#F0AD4E" cx="399.87" cy="125.098" r="6.037"/>
<circle fill="#F0AD4E" cx="386.038" cy="153.467" r="6.037"/>
<circle fill="#FFFF4E" cx="413.701" cy="139.656" r="6.038"/>
<circle fill="#F0AD4E" cx="372.208" cy="125.098" r="6.037"/>
<circle fill="#F0AD4E" cx="399.869" cy="181.404" r="6.038"/>
<circle fill="#FFFF00" cx="427.532" cy="111.369" r="6.037"/>
<circle fill="#F0AD4E" cx="441.364" cy="153.957" r="6.037"/>
<circle fill="#D9534F" cx="372.208" cy="111.369" r="6.037"/>
<circle fill="#F0AD4E" cx="482.857" cy="111.369" r="6.038"/>
<circle fill="#F0AD4E" cx="455.194" cy="111.369" r="6.037"/>
<circle fill="#FFFF4E" cx="412.823" cy="182.172" r="6.037"/>
<circle fill="#F0AD4E" cx="413.702" cy="111.369" r="6.037"/>
<circle fill="#FFFF4E" cx="386.039" cy="111.369" r="6.038"/>
<circle fill="#D9534F" cx="469.026" cy="125.098" r="6.037"/>
<circle fill="#F0AD4E" cx="455.194" cy="125.098" r="6.037"/>
<circle fill="#F0AD4E" cx="427.532" cy="125.098" r="6.037"/>
<circle fill="#FFFF4E" cx="372.208" cy="139.656" r="6.037"/>
<circle fill="#D9534F" cx="482.857" cy="139.656" r="6.038"/>
<circle fill="#FFFF00" cx="469.026" cy="139.656" r="6.037"/>
<circle fill="#FFFF00" cx="441.364" cy="139.656" r="6.037"/>
<circle fill="#F0AD4E" cx="386.039" cy="139.656" r="6.038"/>
<circle fill="#F0AD4E" cx="482.857" cy="153.467" r="6.038"/>
<circle fill="#FFFF4E" cx="455.194" cy="153.467" r="6.037"/>
<circle fill="#F0AD4E" cx="399.87" cy="153.467" r="6.037"/>
<circle fill="#F0AD4E" cx="372.208" cy="167.543" r="6.037"/>
<circle fill="#F0AD4E" cx="482.857" cy="167.543" r="6.038"/>
<circle fill="#F0AD4E" cx="455.194" cy="167.543" r="6.037"/>
<circle fill="#F0AD4E" cx="427.532" cy="167.543" r="6.037"/>
<circle fill="#FFFF4E" cx="482.857" cy="181.404" r="6.038"/>
<circle fill="#F0AD4E" cx="469.026" cy="181.404" r="6.037"/>
<circle fill="#F0AD4E" cx="441.364" cy="181.404" r="6.037"/>
<circle fill="#D9534F" cx="386.039" cy="181.404" r="6.038"/>
<g>
</g>
<g>
</g>
<g>
</g>
<g>
</g>
<g>
</g>
<g>
</g>
</svg>
