<?xml version="1.0" encoding="utf-8"?>
<!-- Generator: Adobe Illustrator 16.0.4, SVG Export Plug-In . SVG Version: 6.00 Build 0)  -->
<!DOCTYPE svg PUBLIC "-//W3C//DTD SVG 1.1//EN" "http://www.w3.org/Graphics/SVG/1.1/DTD/svg11.dtd">
<svg version="1.1" id="layer1" xmlns="http://www.w3.org/2000/svg" xmlns:xlink="http://www.w3.org/1999/xlink" x="0px" y="0px"
	 width="620.5px" height="173.5px" viewBox="0 0 620.5 173.5" enable-background="new 0 0 620.5 173.5" xml:space="preserve">
<circle fill="#F0AD4E" cx="290.824" cy="49.422" r="6.037"/>
<circle fill="#F0AD4E" cx="221.668" cy="91.436" r="6.038"/>
<circle fill="#F0AD4E" cx="221.668" cy="63.763" r="6.038"/>
<circle fill="#F0AD4E" cx="207.836" cy="119.806" r="6.038"/>
<circle fill="#F0AD4E" cx="249.331" cy="49.422" r="6.037"/>
<circle fill="#F0AD4E" cx="290.824" cy="63.762" r="6.037"/>
<circle fill="#F0AD4E" cx="235.5" cy="105.994" r="6.038"/>
<circle fill="#F0AD4E" cx="276.994" cy="105.994" r="6.038"/>
<circle fill="#F0AD4E" cx="290.825" cy="133.881" r="6.038"/>
<circle fill="#F0AD4E" cx="194.006" cy="91.436" r="6.037"/>
<circle fill="#F0AD4E" cx="221.667" cy="147.742" r="6.038"/>
<circle fill="#F0AD4E" cx="235.5" cy="147.742" r="6.037"/>
<circle fill="#F0AD4E" cx="249.331" cy="77.707" r="6.037"/>
<circle fill="#F0AD4E" cx="304.656" cy="91.436" r="6.038"/>
<circle fill="#5BC0DE" cx="18.74" cy="48.447" r="6.037"/>
<circle fill="#5BC0DE" cx="129.39" cy="48.447" r="6.037"/>
<circle fill="#5BC0DE" cx="115.559" cy="48.447" r="6.037"/>
<circle fill="#5BC0DE" cx="101.728" cy="48.447" r="6.037"/>
<circle fill="#5BC0DE" cx="87.896" cy="48.447" r="6.037"/>
<circle fill="#5BC0DE" cx="74.065" cy="48.447" r="6.037"/>
<circle fill="#5BC0DE" cx="60.234" cy="48.447" r="6.037"/>
<circle fill="#5BC0DE" cx="46.403" cy="48.447" r="6.038"/>
<circle fill="#5BC0DE" cx="32.572" cy="48.447" r="6.037"/>
<circle fill="#5BC0DE" cx="18.74" cy="62.788" r="6.037"/>
<circle fill="#5BC0DE" cx="129.39" cy="62.788" r="6.037"/>
<circle fill="#5BC0DE" cx="115.559" cy="62.788" r="6.037"/>
<circle fill="#5BC0DE" cx="101.728" cy="62.788" r="6.037"/>
<circle fill="#5BC0DE" cx="87.896" cy="62.788" r="6.037"/>
<circle fill="#5BC0DE" cx="74.065" cy="62.788" r="6.037"/>
<circle fill="#5BC0DE" cx="60.234" cy="62.788" r="6.037"/>
<circle fill="#5BC0DE" cx="46.403" cy="62.788" r="6.038"/>
<circle fill="#5BC0DE" cx="32.572" cy="62.788" r="6.037"/>
<circle fill="#5BC0DE" cx="18.74" cy="76.732" r="6.037"/>
<circle fill="#5BC0DE" cx="129.39" cy="76.732" r="6.037"/>
<circle fill="#5BC0DE" cx="115.559" cy="76.732" r="6.037"/>
<circle fill="#5BC0DE" cx="101.728" cy="76.732" r="6.037"/>
<circle fill="#5BC0DE" cx="87.896" cy="76.732" r="6.037"/>
<circle fill="#5BC0DE" cx="74.065" cy="76.732" r="6.037"/>
<circle fill="#5BC0DE" cx="60.234" cy="76.732" r="6.037"/>
<circle fill="#5BC0DE" cx="46.403" cy="76.732" r="6.038"/>
<circle fill="#5BC0DE" cx="32.572" cy="76.732" r="6.037"/>
<circle fill="#5BC0DE" cx="18.74" cy="90.461" r="6.037"/>
<circle fill="#5BC0DE" cx="129.39" cy="90.461" r="6.037"/>
<circle fill="#5BC0DE" cx="115.559" cy="90.461" r="6.037"/>
<circle fill="#5BC0DE" cx="101.728" cy="90.461" r="6.037"/>
<circle fill="#5BC0DE" cx="87.896" cy="90.461" r="6.037"/>
<circle fill="#5BC0DE" cx="74.065" cy="90.461" r="6.037"/>
<circle fill="#5BC0DE" cx="60.234" cy="90.461" r="6.037"/>
<circle fill="#5BC0DE" cx="46.403" cy="90.461" r="6.038"/>
<circle fill="#5BC0DE" cx="32.572" cy="90.461" r="6.037"/>
<circle fill="#5BC0DE" cx="18.74" cy="105.02" r="6.037"/>
<circle fill="#5BC0DE" cx="129.39" cy="105.02" r="6.037"/>
<circle fill="#5BC0DE" cx="115.559" cy="105.02" r="6.037"/>
<circle fill="#5BC0DE" cx="101.728" cy="105.02" r="6.037"/>
<circle fill="#5BC0DE" cx="87.896" cy="105.02" r="6.037"/>
<circle fill="#5BC0DE" cx="74.065" cy="105.02" r="6.037"/>
<circle fill="#5BC0DE" cx="60.234" cy="105.02" r="6.037"/>
<circle fill="#5BC0DE" cx="46.403" cy="105.02" r="6.038"/>
<circle fill="#5BC0DE" cx="32.572" cy="105.02" r="6.037"/>
<circle fill="#5BC0DE" cx="18.74" cy="118.831" r="6.037"/>
<circle fill="#5BC0DE" cx="129.39" cy="118.831" r="6.037"/>
<circle fill="#5BC0DE" cx="115.559" cy="118.831" r="6.037"/>
<circle fill="#5BC0DE" cx="101.728" cy="118.831" r="6.037"/>
<circle fill="#5BC0DE" cx="87.896" cy="118.831" r="6.037"/>
<circle fill="#5BC0DE" cx="74.065" cy="118.831" r="6.037"/>
<circle fill="#5BC0DE" cx="60.234" cy="118.831" r="6.037"/>
<circle fill="#5BC0DE" cx="46.403" cy="118.831" r="6.038"/>
<circle fill="#5BC0DE" cx="32.572" cy="118.831" r="6.037"/>
<circle fill="#5BC0DE" cx="18.74" cy="132.906" r="6.037"/>
<circle fill="#5BC0DE" cx="129.39" cy="132.906" r="6.037"/>
<circle fill="#5BC0DE" cx="115.559" cy="132.906" r="6.037"/>
<circle fill="#5BC0DE" cx="101.728" cy="132.906" r="6.037"/>
<circle fill="#5BC0DE" cx="87.896" cy="132.906" r="6.037"/>
<circle fill="#5BC0DE" cx="74.065" cy="132.906" r="6.037"/>
<circle fill="#5BC0DE" cx="60.234" cy="132.906" r="6.037"/>
<circle fill="#5BC0DE" cx="46.403" cy="132.906" r="6.038"/>
<circle fill="#5BC0DE" cx="32.572" cy="132.906" r="6.037"/>
<circle fill="#5BC0DE" cx="18.74" cy="146.768" r="6.037"/>
<circle fill="#5BC0DE" cx="129.39" cy="146.768" r="6.037"/>
<circle fill="#5BC0DE" cx="115.559" cy="146.768" r="6.037"/>
<circle fill="#5BC0DE" cx="101.728" cy="146.768" r="6.037"/>
<circle fill="#5BC0DE" cx="87.896" cy="146.768" r="6.037"/>
<circle fill="#5BC0DE" cx="74.065" cy="146.768" r="6.037"/>
<circle fill="#5BC0DE" cx="60.234" cy="146.768" r="6.037"/>
<circle fill="#5BC0DE" cx="46.403" cy="146.768" r="6.038"/>
<circle fill="#5BC0DE" cx="32.572" cy="146.768" r="6.037"/>
<circle fill="#F0AD4E" cx="18.74" cy="20.215" r="6.037"/>
<circle fill="#F0AD4E" cx="32.572" cy="20.215" r="6.037"/>
<circle fill="#F0AD4E" cx="46.403" cy="20.215" r="6.038"/>
<circle fill="#F0AD4E" cx="60.234" cy="20.215" r="6.037"/>
<circle fill="#F0AD4E" cx="74.065" cy="20.215" r="6.037"/>
<circle fill="#F0AD4E" cx="87.896" cy="20.215" r="6.037"/>
<circle fill="#F0AD4E" cx="101.728" cy="20.215" r="6.037"/>
<circle fill="#F0AD4E" cx="115.559" cy="20.215" r="6.037"/>
<circle fill="#F0AD4E" cx="129.39" cy="20.215" r="6.037"/>
<circle fill="#F0AD4E" cx="18.74" cy="34.516" r="6.037"/>
<circle fill="#F0AD4E" cx="32.572" cy="34.516" r="6.037"/>
<circle fill="#F0AD4E" cx="46.403" cy="34.516" r="6.038"/>
<circle fill="#F0AD4E" cx="60.234" cy="34.516" r="6.037"/>
<circle fill="#F0AD4E" cx="74.065" cy="34.516" r="6.037"/>
<circle fill="#F0AD4E" cx="87.896" cy="34.516" r="6.037"/>
<circle fill="#F0AD4E" cx="101.728" cy="34.516" r="6.037"/>
<circle fill="#F0AD4E" cx="115.559" cy="34.516" r="6.037"/>
<circle fill="#F0AD4E" cx="129.39" cy="34.516" r="6.037"/>
<path fill="none" stroke="#636C72" stroke-width="2" d="M139.315,146.26c0,6.251-4.783,11.32-10.684,11.32H19.499
	c-5.9,0-10.684-5.069-10.684-11.32V20.64c0-6.253,4.783-11.321,10.684-11.321h109.133c5.9,0,10.684,5.068,10.684,11.321V146.26z"/>
<circle fill="#5BC0DE" cx="194.006" cy="49.421" r="6.037"/>
<circle fill="#5BC0DE" cx="304.656" cy="49.421" r="6.038"/>
<circle fill="#5BC0DE" cx="276.993" cy="49.421" r="6.037"/>
<circle fill="#5BC0DE" cx="304.655" cy="20.431" r="6.037"/>
<circle fill="#5BC0DE" cx="290.824" cy="20.431" r="6.037"/>
<circle fill="#5BC0DE" cx="263.162" cy="49.421" r="6.037"/>
<circle fill="#5BC0DE" cx="263.162" cy="20.431" r="6.037"/>
<circle fill="#5BC0DE" cx="249.331" cy="20.431" r="6.037"/>
<circle fill="#5BC0DE" cx="235.5" cy="49.421" r="6.037"/>
<circle fill="#5BC0DE" cx="221.668" cy="20.431" r="6.037"/>
<circle fill="#5BC0DE" cx="207.837" cy="20.431" r="6.037"/>
<circle fill="#5BC0DE" cx="194.006" cy="20.431" r="6.037"/>
<circle fill="#5BC0DE" cx="221.668" cy="49.421" r="6.038"/>
<circle fill="#5BC0DE" cx="207.837" cy="49.421" r="6.038"/>
<circle fill="#5BC0DE" cx="206.959" cy="35.49" r="6.037"/>
<circle fill="#5BC0DE" cx="248.453" cy="35.49" r="6.037"/>
<circle fill="#5BC0DE" cx="234.622" cy="35.49" r="6.038"/>
<circle fill="#5BC0DE" cx="220.791" cy="35.49" r="6.038"/>
<circle fill="#5BC0DE" cx="194.006" cy="63.762" r="6.037"/>
<circle fill="#5BC0DE" cx="304.656" cy="63.762" r="6.038"/>
<circle fill="#5BC0DE" cx="276.993" cy="63.762" r="6.037"/>
<circle fill="#5BC0DE" cx="263.162" cy="63.762" r="6.037"/>
<circle fill="#5BC0DE" cx="249.331" cy="63.762" r="6.038"/>
<circle fill="#5BC0DE" cx="235.5" cy="63.762" r="6.037"/>
<circle fill="#5BC0DE" cx="207.837" cy="63.762" r="6.038"/>
<circle fill="#5BC0DE" cx="194.006" cy="77.707" r="6.037"/>
<circle fill="#5BC0DE" cx="304.656" cy="77.707" r="6.038"/>
<circle fill="#5BC0DE" cx="290.824" cy="77.707" r="6.037"/>
<circle fill="#5BC0DE" cx="276.993" cy="77.707" r="6.037"/>
<circle fill="#5BC0DE" cx="263.162" cy="77.707" r="6.037"/>
<circle fill="#5BC0DE" cx="304.655" cy="35.817" r="6.037"/>
<circle fill="#5BC0DE" cx="290.824" cy="35.817" r="6.037"/>
<circle fill="#5BC0DE" cx="276.993" cy="35.817" r="6.037"/>
<circle fill="#5BC0DE" cx="235.5" cy="77.707" r="6.037"/>
<circle fill="#5BC0DE" cx="221.668" cy="77.707" r="6.038"/>
<circle fill="#5BC0DE" cx="207.837" cy="77.707" r="6.038"/>
<circle fill="#5BC0DE" cx="290.824" cy="91.436" r="6.037"/>
<circle fill="#5BC0DE" cx="276.993" cy="91.436" r="6.037"/>
<circle fill="#5BC0DE" cx="263.162" cy="91.436" r="6.037"/>
<circle fill="#5BC0DE" cx="249.331" cy="91.436" r="6.038"/>
<circle fill="#5BC0DE" cx="235.5" cy="91.436" r="6.037"/>
<circle fill="#5BC0DE" cx="207.837" cy="91.436" r="6.038"/>
<circle fill="#5BC0DE" cx="194.006" cy="105.994" r="6.037"/>
<circle fill="#5BC0DE" cx="304.656" cy="105.994" r="6.038"/>
<circle fill="#5BC0DE" cx="290.824" cy="105.994" r="6.037"/>
<circle fill="#5BC0DE" cx="263.162" cy="105.994" r="6.037"/>
<circle fill="#5BC0DE" cx="249.331" cy="105.994" r="6.038"/>
<circle fill="#5BC0DE" cx="221.668" cy="105.994" r="6.038"/>
<circle fill="#5BC0DE" cx="207.837" cy="105.994" r="6.038"/>
<circle fill="#5BC0DE" cx="194.006" cy="119.805" r="6.037"/>
<circle fill="#5BC0DE" cx="304.656" cy="119.805" r="6.038"/>
<circle fill="#5BC0DE" cx="290.824" cy="119.805" r="6.037"/>
<circle fill="#5BC0DE" cx="276.993" cy="119.805" r="6.037"/>
<circle fill="#5BC0DE" cx="263.162" cy="119.805" r="6.037"/>
<circle fill="#5BC0DE" cx="249.331" cy="119.805" r="6.038"/>
<circle fill="#5BC0DE" cx="235.5" cy="119.805" r="6.037"/>
<circle fill="#5BC0DE" cx="221.668" cy="119.805" r="6.038"/>
<circle fill="#5BC0DE" cx="194.006" cy="133.881" r="6.037"/>
<circle fill="#5BC0DE" cx="304.656" cy="133.881" r="6.038"/>
<circle fill="#5BC0DE" cx="276.993" cy="133.881" r="6.037"/>
<circle fill="#5BC0DE" cx="263.162" cy="133.881" r="6.037"/>
<circle fill="#5BC0DE" cx="249.331" cy="133.881" r="6.038"/>
<circle fill="#5BC0DE" cx="235.5" cy="133.881" r="6.037"/>
<circle fill="#5BC0DE" cx="221.668" cy="133.881" r="6.038"/>
<circle fill="#5BC0DE" cx="207.837" cy="133.881" r="6.038"/>
<circle fill="#5BC0DE" cx="194.006" cy="147.742" r="6.037"/>
<circle fill="#5BC0DE" cx="304.656" cy="147.742" r="6.038"/>
<circle fill="#5BC0DE" cx="290.824" cy="147.742" r="6.037"/>
<circle fill="#5BC0DE" cx="276.993" cy="147.742" r="6.037"/>
<circle fill="#5BC0DE" cx="263.162" cy="147.742" r="6.037"/>
<circle fill="#5BC0DE" cx="249.331" cy="147.742" r="6.038"/>
<circle fill="#5BC0DE" cx="207.837" cy="147.742" r="6.038"/>
<circle fill="#F0AD4E" cx="235.5" cy="20.431" r="6.037"/>
<circle fill="#F0AD4E" cx="276.993" cy="20.431" r="6.037"/>
<circle fill="#F0AD4E" cx="194.006" cy="35.49" r="6.037"/>
<circle fill="#F0AD4E" cx="263.162" cy="35.49" r="6.037"/>
<path fill="none" stroke="#636C72" stroke-width="2" d="M314.581,147.234c0,6.25-4.783,11.32-10.684,11.32H194.765
	c-5.9,0-10.684-5.07-10.684-11.32V21.614c0-6.253,4.783-11.321,10.684-11.321h109.133c5.9,0,10.684,5.068,10.684,11.321V147.234z"/>
<g>
	<g>
		<path fill="#D2D2D2" d="M142.359,90.641c0,0,1.837-0.05,4.594-0.125c2.756-0.087,6.432-0.166,10.106-0.213
			c1.838-0.034,3.676-0.067,5.397-0.098c1.725-0.049,3.331-0.095,4.708-0.091c1.379,0.016,2.525,0.075,3.328,0.133
			c0.802,0.054,1.262,0.084,1.262,0.084l-0.031,1.797c0,0-0.458,0.015-1.263,0.041c-0.806,0.032-1.954,0.052-3.331,0.024
			c-1.377-0.044-2.982-0.142-4.702-0.247c-1.722-0.089-3.556-0.184-5.392-0.277c-3.67-0.17-7.342-0.37-10.094-0.549
			c-2.752-0.167-4.588-0.277-4.588-0.277L142.359,90.641z"/>
		<g>
			<polygon fill="#D2D2D2" points="178.8,91.346 168.786,95.246 171.212,91.221 168.919,87.116 			"/>
		</g>
	</g>
</g>
<g>
	<g>
		<path fill="#D2D2D2" d="M320.75,85.704c0,0,1.892-1.854,4.729-4.635c1.42-1.388,3.078-3.008,4.854-4.742
			c1.788-1.723,3.693-3.561,5.602-5.398c1.9-1.842,3.803-3.686,5.586-5.413c1.764-1.746,3.441-3.345,4.926-4.662
			c2.982-2.624,5.054-4.282,5.054-4.282l1.034,1.126c0,0-1.829,1.922-4.697,4.67c-1.439,1.366-3.175,2.901-5.064,4.513
			c-1.875,1.629-3.873,3.364-5.871,5.104c-1.994,1.742-3.986,3.484-5.855,5.119c-1.88,1.621-3.635,3.135-5.139,4.432
			c-3.012,2.592-5.021,4.318-5.021,4.318L320.75,85.704z"/>
		<g>
			<polygon fill="#D2D2D2" points="357.217,52.358 352.637,62.081 351.628,57.49 347.139,56.093 			"/>
		</g>
	</g>
</g>
<g>
	<g>
		<path fill="#D2D2D2" d="M320.812,91.982c0,0,1.892,1.854,4.729,4.635c1.42,1.388,3.078,3.008,4.854,4.742
			c1.788,1.723,3.693,3.561,5.602,5.398c1.9,1.842,3.803,3.686,5.586,5.413c1.764,1.746,3.441,3.345,4.926,4.662
			c2.982,2.624,5.054,4.282,5.054,4.282l1.034-1.126c0,0-1.829-1.922-4.697-4.67c-1.439-1.366-3.175-2.901-5.064-4.513
			c-1.875-1.629-3.873-3.364-5.871-5.104c-1.994-1.742-3.986-3.484-5.855-5.119c-1.88-1.621-3.635-3.135-5.139-4.432
			c-3.012-2.592-5.021-4.318-5.021-4.318L320.812,91.982z"/>
		<g>
			<polygon fill="#D2D2D2" points="357.278,125.328 352.698,115.605 351.689,120.196 347.2,121.594 			"/>
		</g>
	</g>
</g>
<g>
	<g>
		<path fill="#D2D2D2" d="M536.851,40.662c0,0,1.333,1.307,3.333,3.266c1,0.978,2.169,2.119,3.42,3.341
			c1.26,1.214,2.603,2.509,3.947,3.804c1.339,1.298,2.679,2.597,3.936,3.814c1.243,1.23,2.425,2.356,3.471,3.285
			c2.102,1.849,3.562,3.017,3.562,3.017l0.729-0.793c0,0-1.289-1.354-3.31-3.291c-1.015-0.962-2.237-2.044-3.569-3.18
			c-1.32-1.148-2.729-2.371-4.137-3.596c-1.405-1.228-2.809-2.456-4.126-3.607c-1.324-1.142-2.562-2.209-3.621-3.123
			c-2.122-1.826-3.538-3.043-3.538-3.043L536.851,40.662z"/>
		<g>
			<polygon fill="#D2D2D2" points="562.547,64.159 559.319,57.308 558.608,60.543 555.445,61.528 			"/>
		</g>
	</g>
</g>
<g>
	<g>
		<path fill="#D2D2D2" d="M536.851,104.518c0,0,1.333-1.307,3.333-3.266c1-0.979,2.169-2.119,3.42-3.342
			c1.26-1.214,2.603-2.51,3.947-3.805c1.339-1.297,2.679-2.597,3.936-3.814c1.243-1.229,2.425-2.355,3.471-3.285
			c2.102-1.848,3.562-3.017,3.562-3.017l0.729,0.794c0,0-1.289,1.354-3.31,3.29c-1.015,0.962-2.237,2.044-3.569,3.18
			c-1.32,1.147-2.729,2.37-4.137,3.597c-1.405,1.227-2.809,2.455-4.126,3.607c-1.324,1.142-2.562,2.209-3.621,3.122
			c-2.122,1.826-3.538,3.043-3.538,3.043L536.851,104.518z"/>
		<g>
			<polygon fill="#D2D2D2" points="562.547,81.021 559.319,87.871 558.608,84.637 555.445,83.652 			"/>
		</g>
	</g>
</g>
<g>
	<path fill="#D2D2D2" d="M337.738,52.358h-1.144v-3.796c0-0.728-0.11-1.257-0.331-1.586c-0.222-0.33-0.558-0.494-1.008-0.494
		c-0.234,0-0.468,0.045-0.702,0.137c-0.234,0.091-0.455,0.214-0.663,0.37c-0.208,0.156-0.39,0.343-0.546,0.559
		c-0.156,0.217-0.273,0.455-0.351,0.715v4.095h-1.145v-6.786h1.04v1.456c0.269-0.477,0.656-0.858,1.164-1.144
		c0.507-0.286,1.059-0.429,1.657-0.429c0.39,0,0.715,0.071,0.975,0.214s0.468,0.342,0.624,0.598
		c0.156,0.255,0.267,0.557,0.332,0.903c0.064,0.347,0.097,0.724,0.097,1.131V52.358z"/>
	<path fill="#D2D2D2" d="M341.825,56.081v0.606h-2.721v-0.606h1.076v-2.956c-0.046,0.061-0.116,0.125-0.212,0.193
		c-0.097,0.068-0.204,0.131-0.322,0.189c-0.119,0.058-0.241,0.107-0.368,0.147c-0.126,0.041-0.237,0.061-0.333,0.061V53.08
		c0.111,0,0.235-0.032,0.371-0.095c0.137-0.063,0.267-0.137,0.391-0.22c0.124-0.083,0.229-0.164,0.318-0.242
		c0.088-0.079,0.141-0.133,0.155-0.163h0.683v3.721H341.825z"/>
</g>
<g>
	<circle fill="#F0AD4E" cx="468.588" cy="48.149" r="6.037"/>
	<circle fill="#F0AD4E" cx="427.095" cy="48.149" r="6.037"/>
	<circle fill="#5BC0DE" cx="371.77" cy="48.148" r="6.037"/>
	<circle fill="#5BC0DE" cx="482.419" cy="48.148" r="6.038"/>
	<circle fill="#5BC0DE" cx="454.757" cy="48.148" r="6.037"/>
	<circle fill="#5BC0DE" cx="482.419" cy="19.158" r="6.037"/>
	<circle fill="#5BC0DE" cx="468.588" cy="19.158" r="6.037"/>
	<circle fill="#5BC0DE" cx="440.926" cy="48.148" r="6.037"/>
	<circle fill="#5BC0DE" cx="440.926" cy="19.158" r="6.037"/>
	<circle fill="#5BC0DE" cx="427.095" cy="19.158" r="6.037"/>
	<circle fill="#5BC0DE" cx="413.264" cy="48.148" r="6.037"/>
	<circle fill="#5BC0DE" cx="399.432" cy="19.158" r="6.037"/>
	<circle fill="#5BC0DE" cx="385.601" cy="19.158" r="6.037"/>
	<circle fill="#5BC0DE" cx="371.77" cy="19.158" r="6.037"/>
	<circle fill="#5BC0DE" cx="399.432" cy="48.148" r="6.038"/>
	<circle fill="#5BC0DE" cx="385.601" cy="48.148" r="6.038"/>
	<circle fill="#5BC0DE" cx="384.723" cy="34.217" r="6.037"/>
	<circle fill="#5BC0DE" cx="426.217" cy="34.217" r="6.037"/>
	<circle fill="#5BC0DE" cx="412.385" cy="34.217" r="6.038"/>
	<circle fill="#5BC0DE" cx="398.554" cy="34.217" r="6.038"/>
	<circle fill="#5BC0DE" cx="482.419" cy="34.544" r="6.037"/>
	<circle fill="#5BC0DE" cx="468.588" cy="34.544" r="6.037"/>
	<circle fill="#5BC0DE" cx="454.757" cy="34.544" r="6.037"/>
	<circle fill="#F0AD4E" cx="413.264" cy="19.158" r="6.037"/>
	<circle fill="#F0AD4E" cx="454.757" cy="19.158" r="6.037"/>
	<circle fill="#F0AD4E" cx="371.77" cy="34.217" r="6.037"/>
	<circle fill="#F0AD4E" cx="440.926" cy="34.217" r="6.037"/>
	<path fill="none" stroke="#636C72" stroke-width="2" d="M492.688,47.505c0,6.262-5.076,11.338-11.339,11.338H372.839
		c-6.263,0-11.339-5.077-11.339-11.338v-27.92c0-6.262,5.076-11.338,11.339-11.338H481.35c6.263,0,11.339,5.077,11.339,11.338
		V47.505z"/>
</g>
<g>
	<circle fill="#F0AD4E" cx="399.431" cy="100.515" r="6.038"/>
	<circle fill="#F0AD4E" cx="399.431" cy="72.842" r="6.038"/>
	<circle fill="#F0AD4E" cx="385.599" cy="128.885" r="6.038"/>
	<circle fill="#F0AD4E" cx="468.587" cy="72.842" r="6.037"/>
	<circle fill="#F0AD4E" cx="413.262" cy="115.073" r="6.038"/>
	<circle fill="#F0AD4E" cx="454.756" cy="115.073" r="6.038"/>
	<circle fill="#F0AD4E" cx="468.587" cy="142.96" r="6.038"/>
	<circle fill="#F0AD4E" cx="371.769" cy="100.515" r="6.037"/>
	<circle fill="#F0AD4E" cx="399.43" cy="156.821" r="6.038"/>
	<circle fill="#F0AD4E" cx="413.263" cy="156.821" r="6.037"/>
	<circle fill="#F0AD4E" cx="427.094" cy="86.786" r="6.037"/>
	<circle fill="#F0AD4E" cx="482.418" cy="100.515" r="6.038"/>
	<circle fill="#5BC0DE" cx="371.769" cy="72.842" r="6.038"/>
	<circle fill="#5BC0DE" cx="482.418" cy="72.842" r="6.038"/>
	<circle fill="#5BC0DE" cx="454.756" cy="72.842" r="6.037"/>
	<circle fill="#5BC0DE" cx="440.925" cy="72.842" r="6.037"/>
	<circle fill="#5BC0DE" cx="427.093" cy="72.842" r="6.038"/>
	<circle fill="#5BC0DE" cx="413.263" cy="72.842" r="6.037"/>
	<circle fill="#5BC0DE" cx="385.6" cy="72.842" r="6.038"/>
	<circle fill="#5BC0DE" cx="371.769" cy="86.786" r="6.038"/>
	<circle fill="#5BC0DE" cx="482.418" cy="86.786" r="6.038"/>
	<circle fill="#5BC0DE" cx="468.587" cy="86.786" r="6.037"/>
	<circle fill="#5BC0DE" cx="454.756" cy="86.786" r="6.037"/>
	<circle fill="#5BC0DE" cx="440.925" cy="86.786" r="6.037"/>
	<circle fill="#5BC0DE" cx="413.263" cy="86.786" r="6.037"/>
	<circle fill="#5BC0DE" cx="399.431" cy="86.786" r="6.038"/>
	<circle fill="#5BC0DE" cx="385.6" cy="86.786" r="6.038"/>
	<circle fill="#5BC0DE" cx="468.587" cy="100.515" r="6.037"/>
	<circle fill="#5BC0DE" cx="454.756" cy="100.515" r="6.037"/>
	<circle fill="#5BC0DE" cx="440.925" cy="100.515" r="6.037"/>
	<circle fill="#5BC0DE" cx="427.093" cy="100.515" r="6.038"/>
	<circle fill="#5BC0DE" cx="413.263" cy="100.515" r="6.037"/>
	<circle fill="#5BC0DE" cx="385.6" cy="100.515" r="6.038"/>
	<circle fill="#5BC0DE" cx="371.769" cy="115.073" r="6.038"/>
	<circle fill="#5BC0DE" cx="482.418" cy="115.073" r="6.038"/>
	<circle fill="#5BC0DE" cx="468.587" cy="115.073" r="6.037"/>
	<circle fill="#5BC0DE" cx="440.925" cy="115.073" r="6.037"/>
	<circle fill="#5BC0DE" cx="427.093" cy="115.073" r="6.038"/>
	<circle fill="#5BC0DE" cx="399.431" cy="115.073" r="6.038"/>
	<circle fill="#5BC0DE" cx="385.6" cy="115.073" r="6.038"/>
	<circle fill="#5BC0DE" cx="371.769" cy="128.884" r="6.038"/>
	<circle fill="#5BC0DE" cx="482.418" cy="128.884" r="6.038"/>
	<circle fill="#5BC0DE" cx="468.587" cy="128.884" r="6.037"/>
	<circle fill="#5BC0DE" cx="454.756" cy="128.884" r="6.037"/>
	<circle fill="#5BC0DE" cx="440.925" cy="128.884" r="6.037"/>
	<circle fill="#5BC0DE" cx="427.093" cy="128.884" r="6.038"/>
	<circle fill="#5BC0DE" cx="413.263" cy="128.884" r="6.037"/>
	<circle fill="#5BC0DE" cx="399.431" cy="128.884" r="6.038"/>
	<circle fill="#5BC0DE" cx="371.769" cy="142.96" r="6.038"/>
	<circle fill="#5BC0DE" cx="482.418" cy="142.96" r="6.038"/>
	<circle fill="#5BC0DE" cx="454.756" cy="142.96" r="6.037"/>
	<circle fill="#5BC0DE" cx="440.925" cy="142.96" r="6.037"/>
	<circle fill="#5BC0DE" cx="427.093" cy="142.96" r="6.038"/>
	<circle fill="#5BC0DE" cx="413.263" cy="142.96" r="6.037"/>
	<circle fill="#5BC0DE" cx="399.431" cy="142.96" r="6.038"/>
	<circle fill="#5BC0DE" cx="385.6" cy="142.96" r="6.038"/>
	<circle fill="#5BC0DE" cx="371.769" cy="156.821" r="6.038"/>
	<circle fill="#5BC0DE" cx="482.418" cy="156.821" r="6.038"/>
	<circle fill="#5BC0DE" cx="468.587" cy="156.821" r="6.037"/>
	<circle fill="#5BC0DE" cx="454.756" cy="156.821" r="6.037"/>
	<circle fill="#5BC0DE" cx="440.925" cy="156.821" r="6.037"/>
	<circle fill="#5BC0DE" cx="427.093" cy="156.821" r="6.038"/>
	<circle fill="#5BC0DE" cx="385.6" cy="156.821" r="6.038"/>
	<path fill="none" stroke="#636C72" stroke-width="2" d="M493.422,155.661c0,6.263-5.076,11.339-11.339,11.339H372.104
		c-6.263,0-11.339-5.076-11.339-11.339V74.089c0-6.263,5.076-11.339,11.339-11.339h109.979c6.263,0,11.339,5.076,11.339,11.339
		V155.661z"/>
</g>
<g>
	<circle fill="#F0AD4E" cx="526.188" cy="23.331" r="6.038"/>
	<g>
		<path fill="#D2D2D2" d="M504.054,36.592c-0.563,0-1.06-0.138-1.488-0.416c-0.43-0.277-0.77-0.628-1.021-1.053v4.108H500.4v-9.555
			h1.014v1.274c0.269-0.416,0.618-0.751,1.047-1.007c0.429-0.255,0.903-0.383,1.424-0.383c0.468,0,0.896,0.095,1.287,0.286
			c0.39,0.191,0.728,0.449,1.014,0.774c0.286,0.325,0.509,0.7,0.67,1.124c0.16,0.425,0.24,0.867,0.24,1.326
			c0,0.485-0.074,0.942-0.221,1.372c-0.147,0.429-0.355,0.802-0.624,1.118c-0.27,0.316-0.59,0.567-0.963,0.754
			C504.916,36.499,504.504,36.592,504.054,36.592z M503.702,35.604c0.339,0,0.644-0.072,0.917-0.214
			c0.272-0.143,0.507-0.334,0.702-0.572c0.194-0.238,0.345-0.509,0.448-0.812c0.104-0.303,0.156-0.615,0.156-0.936
			c0-0.338-0.061-0.661-0.183-0.968c-0.121-0.308-0.285-0.577-0.493-0.806s-0.453-0.412-0.735-0.546
			c-0.281-0.134-0.587-0.202-0.916-0.202c-0.208,0-0.423,0.042-0.644,0.124c-0.221,0.083-0.429,0.191-0.624,0.325
			s-0.364,0.294-0.507,0.481c-0.144,0.187-0.236,0.383-0.279,0.591v1.937c0.095,0.226,0.216,0.436,0.363,0.63
			c0.147,0.195,0.316,0.364,0.508,0.507c0.19,0.143,0.394,0.255,0.61,0.338S503.469,35.604,503.702,35.604z"/>
		<path fill="#D2D2D2" d="M510.805,40.185v0.606h-2.721v-0.606h1.076v-2.956c-0.046,0.061-0.116,0.125-0.212,0.193
			c-0.097,0.068-0.204,0.131-0.322,0.189c-0.119,0.058-0.241,0.107-0.368,0.147c-0.126,0.041-0.237,0.061-0.333,0.061v-0.636
			c0.111,0,0.235-0.032,0.371-0.095c0.137-0.063,0.267-0.137,0.391-0.22c0.124-0.083,0.229-0.164,0.318-0.242
			c0.088-0.079,0.141-0.133,0.155-0.163h0.683v3.721H510.805z"/>
		<path fill="#D2D2D2" d="M511.858,32.394v-0.78h3.965v0.78H511.858z M511.858,34.135v-0.78h3.965v0.78H511.858z"/>
	</g>
	<g>
		<path fill="#D2D2D2" d="M527.963,43.817h-1.144v-3.796c0-0.728-0.11-1.257-0.331-1.586c-0.222-0.33-0.558-0.494-1.008-0.494
			c-0.234,0-0.468,0.045-0.702,0.137c-0.234,0.091-0.455,0.214-0.663,0.37c-0.208,0.156-0.39,0.343-0.546,0.559
			c-0.156,0.217-0.273,0.455-0.351,0.715v4.095h-1.145v-6.786h1.04v1.456c0.269-0.477,0.656-0.858,1.164-1.144
			c0.507-0.286,1.059-0.429,1.657-0.429c0.39,0,0.715,0.071,0.975,0.214s0.468,0.342,0.624,0.598
			c0.156,0.255,0.267,0.557,0.332,0.903c0.064,0.347,0.097,0.724,0.097,1.131V43.817z"/>
		<path fill="#D2D2D2" d="M532.05,47.54v0.606h-2.721V47.54h1.076v-2.956c-0.046,0.061-0.116,0.125-0.212,0.193
			c-0.097,0.068-0.204,0.131-0.322,0.189c-0.119,0.058-0.241,0.107-0.368,0.147c-0.126,0.041-0.237,0.061-0.333,0.061v-0.636
			c0.111,0,0.235-0.032,0.371-0.095c0.137-0.063,0.267-0.137,0.391-0.22c0.124-0.083,0.229-0.164,0.318-0.242
			c0.088-0.079,0.141-0.133,0.155-0.163h0.683v3.721H532.05z"/>
	</g>
	<g>
		<path fill="#D2D2D2" d="M500.184,27.158l2.574-5.291h0.962l2.561,5.291h-0.975l-2.067-4.264l-2.105,4.264H500.184z"/>
	</g>
	<line fill="none" stroke="#D2D2D2" x1="534" y1="33.468" x2="519.15" y2="33.468"/>
</g>
<g>
	<g>
		<path fill="#D2D2D2" d="M527.963,123.848h-1.144v-3.796c0-0.728-0.11-1.257-0.331-1.586c-0.222-0.329-0.558-0.494-1.008-0.494
			c-0.234,0-0.468,0.046-0.702,0.137s-0.455,0.214-0.663,0.37s-0.39,0.343-0.546,0.559c-0.156,0.217-0.273,0.455-0.351,0.715v4.096
			h-1.145v-6.786h1.04v1.456c0.269-0.477,0.656-0.857,1.164-1.145c0.507-0.285,1.059-0.428,1.657-0.428
			c0.39,0,0.715,0.07,0.975,0.214s0.468,0.343,0.624,0.599c0.156,0.255,0.267,0.557,0.332,0.902
			c0.064,0.348,0.097,0.725,0.097,1.131V123.848z"/>
		<path fill="#D2D2D2" d="M529.147,128.177c0-0.202,0.016-0.392,0.049-0.568s0.095-0.347,0.186-0.508s0.216-0.315,0.375-0.462
			s0.368-0.293,0.626-0.439c0.151-0.082,0.306-0.161,0.462-0.239s0.3-0.161,0.429-0.25s0.234-0.183,0.318-0.284
			c0.083-0.102,0.125-0.221,0.125-0.356c0-0.086-0.021-0.172-0.061-0.258c-0.041-0.086-0.099-0.161-0.175-0.228
			c-0.076-0.065-0.171-0.118-0.284-0.158c-0.113-0.041-0.244-0.061-0.391-0.061c-0.151,0-0.289,0.021-0.413,0.063
			c-0.123,0.044-0.233,0.097-0.329,0.159c-0.097,0.063-0.18,0.131-0.25,0.201c-0.071,0.07-0.129,0.134-0.175,0.189l-0.432-0.485
			c0.04-0.046,0.108-0.106,0.204-0.186c0.097-0.078,0.218-0.157,0.364-0.239c0.146-0.08,0.315-0.15,0.508-0.208
			c0.191-0.058,0.406-0.087,0.645-0.087c0.231,0,0.441,0.031,0.629,0.095c0.187,0.063,0.345,0.15,0.474,0.261
			c0.129,0.111,0.229,0.242,0.299,0.391c0.071,0.149,0.106,0.307,0.106,0.475c0,0.196-0.043,0.368-0.129,0.515
			c-0.086,0.147-0.19,0.275-0.314,0.387s-0.257,0.206-0.398,0.284c-0.141,0.078-0.268,0.146-0.379,0.201
			c-0.11,0.055-0.235,0.122-0.375,0.201c-0.139,0.078-0.271,0.166-0.397,0.265c-0.127,0.099-0.236,0.208-0.33,0.329
			s-0.152,0.254-0.178,0.395h2.584v0.606H529.147z"/>
	</g>
	<circle fill="#F0AD4E" cx="526.188" cy="103.287" r="6.038"/>
	<g>
		<path fill="#D2D2D2" d="M504.054,116.549c-0.563,0-1.06-0.138-1.488-0.416c-0.43-0.277-0.77-0.627-1.021-1.053v4.108H500.4v-9.556
			h1.014v1.274c0.269-0.416,0.618-0.751,1.047-1.007s0.903-0.384,1.424-0.384c0.468,0,0.896,0.095,1.287,0.286
			c0.39,0.19,0.728,0.448,1.014,0.773c0.286,0.324,0.509,0.699,0.67,1.124c0.16,0.425,0.24,0.867,0.24,1.326
			c0,0.485-0.074,0.942-0.221,1.372c-0.147,0.429-0.355,0.801-0.624,1.117c-0.27,0.316-0.59,0.568-0.963,0.754
			C504.916,116.456,504.504,116.549,504.054,116.549z M503.702,115.562c0.339,0,0.644-0.071,0.917-0.214
			c0.272-0.144,0.507-0.334,0.702-0.572c0.194-0.238,0.345-0.51,0.448-0.812c0.104-0.304,0.156-0.615,0.156-0.937
			c0-0.338-0.061-0.661-0.183-0.968c-0.121-0.309-0.285-0.577-0.493-0.807s-0.453-0.412-0.735-0.546
			c-0.281-0.134-0.587-0.202-0.916-0.202c-0.208,0-0.423,0.042-0.644,0.124c-0.221,0.083-0.429,0.19-0.624,0.325
			s-0.364,0.295-0.507,0.48c-0.144,0.188-0.236,0.384-0.279,0.592v1.938c0.095,0.225,0.216,0.436,0.363,0.63
			c0.147,0.195,0.316,0.364,0.508,0.507c0.19,0.144,0.394,0.256,0.61,0.338C503.243,115.521,503.469,115.562,503.702,115.562z"/>
		<path fill="#D2D2D2" d="M507.902,120.748c0-0.201,0.016-0.391,0.049-0.568c0.033-0.176,0.095-0.346,0.186-0.508
			c0.091-0.161,0.216-0.315,0.375-0.462s0.368-0.293,0.626-0.439c0.151-0.081,0.306-0.161,0.462-0.239s0.3-0.161,0.429-0.25
			c0.129-0.088,0.234-0.183,0.318-0.283c0.083-0.102,0.125-0.221,0.125-0.357c0-0.086-0.021-0.172-0.061-0.258
			c-0.041-0.086-0.099-0.161-0.175-0.227c-0.076-0.066-0.171-0.119-0.284-0.159s-0.244-0.061-0.391-0.061
			c-0.151,0-0.289,0.021-0.413,0.063c-0.123,0.044-0.233,0.097-0.329,0.16c-0.097,0.062-0.18,0.13-0.25,0.201
			c-0.071,0.07-0.129,0.133-0.175,0.189l-0.432-0.486c0.04-0.045,0.108-0.106,0.204-0.186c0.097-0.078,0.218-0.157,0.364-0.238
			c0.146-0.08,0.315-0.15,0.508-0.209c0.191-0.057,0.406-0.086,0.645-0.086c0.231,0,0.441,0.031,0.629,0.094
			c0.187,0.063,0.345,0.15,0.474,0.262s0.229,0.242,0.299,0.391c0.071,0.148,0.106,0.307,0.106,0.474
			c0,0.196-0.043,0.368-0.129,0.515c-0.086,0.147-0.19,0.275-0.314,0.387s-0.257,0.207-0.398,0.285
			c-0.141,0.078-0.268,0.145-0.379,0.2c-0.11,0.056-0.235,0.122-0.375,0.201c-0.139,0.078-0.271,0.167-0.397,0.265
			c-0.127,0.1-0.236,0.209-0.33,0.33s-0.152,0.253-0.178,0.395h2.584v0.605H507.902z"/>
		<path fill="#D2D2D2" d="M512.502,112.351v-0.78h3.965v0.78H512.502z M512.502,114.092v-0.779h3.965v0.779H512.502z"/>
	</g>
	<g>
		<path fill="#D2D2D2" d="M500.184,107.115l2.574-5.291h0.962l2.561,5.291h-0.975l-2.067-4.264l-2.105,4.264H500.184z"/>
	</g>
	<line fill="none" stroke="#D2D2D2" x1="534" y1="113.426" x2="519.15" y2="113.426"/>
</g>
<g>
	<path fill="#D2D2D2" d="M589.377,75.654c-0.562,0-1.059-0.139-1.488-0.416s-0.77-0.629-1.02-1.053v4.107h-1.145v-9.555h1.014v1.274
		c0.268-0.416,0.617-0.751,1.047-1.007c0.428-0.255,0.902-0.383,1.424-0.383c0.467,0,0.896,0.095,1.287,0.286
		c0.389,0.191,0.727,0.449,1.014,0.774c0.285,0.325,0.508,0.7,0.67,1.124c0.16,0.425,0.24,0.867,0.24,1.326
		c0,0.485-0.074,0.942-0.221,1.371c-0.148,0.43-0.355,0.803-0.625,1.119s-0.59,0.566-0.963,0.754
		C590.24,75.561,589.828,75.654,589.377,75.654z M589.025,74.666c0.34,0,0.645-0.072,0.918-0.215
		c0.271-0.143,0.506-0.334,0.701-0.572s0.346-0.508,0.449-0.812c0.104-0.303,0.156-0.615,0.156-0.936
		c0-0.338-0.061-0.66-0.184-0.969c-0.121-0.307-0.285-0.576-0.492-0.806c-0.209-0.229-0.453-0.411-0.736-0.546
		c-0.281-0.135-0.586-0.201-0.916-0.201c-0.207,0-0.422,0.041-0.643,0.123s-0.43,0.191-0.625,0.325s-0.363,0.294-0.506,0.481
		c-0.145,0.186-0.236,0.383-0.279,0.591v1.937c0.094,0.227,0.215,0.436,0.363,0.631c0.146,0.195,0.316,0.364,0.508,0.508
		c0.189,0.143,0.393,0.255,0.609,0.338C588.566,74.625,588.793,74.666,589.025,74.666z"/>
	<path fill="#D2D2D2" d="M596.129,79.246v0.607h-2.721v-0.607h1.076v-2.955c-0.047,0.061-0.117,0.125-0.213,0.193
		s-0.203,0.131-0.322,0.189s-0.24,0.107-0.367,0.147s-0.238,0.061-0.334,0.061v-0.636c0.111,0,0.236-0.032,0.371-0.096
		c0.137-0.062,0.268-0.137,0.391-0.22c0.125-0.083,0.23-0.164,0.318-0.242c0.088-0.079,0.141-0.133,0.156-0.163h0.682v3.721H596.129
		z"/>
	<path fill="#D2D2D2" d="M597.143,72.495v-1.04h3.836v1.04H597.143z"/>
</g>
<g>
	<path fill="#D2D2D2" d="M585.508,66.22l2.574-5.291h0.961l2.561,5.291h-0.975l-2.066-4.264l-2.105,4.264H585.508z"/>
</g>
<g>
	<path fill="#D2D2D2" d="M609.727,75.654c-0.562,0-1.059-0.139-1.488-0.416s-0.77-0.629-1.02-1.053v4.107h-1.145v-9.555h1.014v1.274
		c0.268-0.416,0.617-0.751,1.047-1.007c0.428-0.255,0.902-0.383,1.424-0.383c0.467,0,0.896,0.095,1.287,0.286
		c0.389,0.191,0.727,0.449,1.014,0.774c0.285,0.325,0.508,0.7,0.67,1.124c0.16,0.425,0.24,0.867,0.24,1.326
		c0,0.485-0.074,0.942-0.221,1.371c-0.148,0.43-0.355,0.803-0.625,1.119s-0.59,0.566-0.963,0.754
		C610.59,75.561,610.178,75.654,609.727,75.654z M609.375,74.666c0.34,0,0.645-0.072,0.918-0.215
		c0.271-0.143,0.506-0.334,0.701-0.572s0.346-0.508,0.449-0.812c0.104-0.303,0.156-0.615,0.156-0.936
		c0-0.338-0.061-0.66-0.184-0.969c-0.121-0.307-0.285-0.576-0.492-0.806c-0.209-0.229-0.453-0.411-0.736-0.546
		c-0.281-0.135-0.586-0.201-0.916-0.201c-0.207,0-0.422,0.041-0.643,0.123s-0.43,0.191-0.625,0.325s-0.363,0.294-0.506,0.481
		c-0.145,0.186-0.236,0.383-0.279,0.591v1.937c0.094,0.227,0.215,0.436,0.363,0.631c0.146,0.195,0.316,0.364,0.508,0.508
		c0.189,0.143,0.393,0.255,0.609,0.338C608.916,74.625,609.143,74.666,609.375,74.666z"/>
	<path fill="#D2D2D2" d="M613.576,79.854c0-0.203,0.016-0.393,0.049-0.568c0.033-0.178,0.094-0.347,0.186-0.508
		c0.09-0.162,0.215-0.316,0.375-0.463c0.158-0.146,0.367-0.293,0.625-0.439c0.152-0.081,0.307-0.16,0.463-0.238
		s0.299-0.162,0.428-0.25c0.129-0.089,0.234-0.184,0.318-0.285c0.084-0.101,0.125-0.22,0.125-0.355c0-0.086-0.02-0.172-0.061-0.258
		s-0.098-0.162-0.174-0.228s-0.172-0.118-0.285-0.159s-0.244-0.061-0.391-0.061c-0.15,0-0.289,0.021-0.412,0.064
		s-0.234,0.096-0.33,0.158c-0.096,0.064-0.18,0.131-0.25,0.201c-0.07,0.071-0.129,0.135-0.174,0.189l-0.432-0.484
		c0.039-0.046,0.107-0.107,0.203-0.186c0.098-0.078,0.219-0.158,0.365-0.239s0.314-0.15,0.508-0.208
		c0.191-0.059,0.406-0.088,0.645-0.088c0.23,0,0.441,0.032,0.629,0.096c0.186,0.062,0.344,0.15,0.473,0.261
		c0.129,0.111,0.229,0.241,0.299,0.391c0.072,0.149,0.107,0.307,0.107,0.474c0,0.197-0.043,0.369-0.129,0.516
		s-0.191,0.275-0.314,0.387c-0.125,0.111-0.258,0.205-0.398,0.283c-0.141,0.079-0.268,0.146-0.379,0.201
		c-0.111,0.056-0.236,0.123-0.375,0.201s-0.271,0.166-0.398,0.266c-0.127,0.098-0.236,0.208-0.33,0.329s-0.152,0.253-0.178,0.394
		h2.584v0.607H613.576z"/>
</g>
<g>
	<path fill="#D2D2D2" d="M567.789,75.654c-0.467,0-0.9-0.096-1.299-0.286s-0.742-0.446-1.027-0.767
		c-0.285-0.321-0.51-0.693-0.67-1.119c-0.16-0.424-0.24-0.871-0.24-1.338c0-0.477,0.076-0.93,0.229-1.359
		c0.15-0.429,0.363-0.804,0.637-1.124c0.271-0.321,0.598-0.574,0.975-0.761c0.377-0.186,0.791-0.279,1.24-0.279
		c0.547,0,1.035,0.143,1.463,0.429c0.43,0.286,0.77,0.633,1.021,1.04v-4.056h1.145v8.086c0,0.269,0.121,0.407,0.363,0.416v0.987
		c-0.121,0.018-0.219,0.031-0.293,0.039c-0.074,0.009-0.145,0.014-0.215,0.014c-0.225,0-0.422-0.076-0.592-0.228
		c-0.168-0.151-0.252-0.327-0.252-0.526V74.25c-0.27,0.441-0.627,0.787-1.072,1.033C568.754,75.53,568.283,75.654,567.789,75.654z
		 M568.062,74.666c0.209,0,0.422-0.039,0.645-0.117c0.221-0.078,0.428-0.186,0.623-0.324s0.363-0.302,0.508-0.488
		c0.143-0.186,0.236-0.383,0.279-0.592v-1.949c-0.078-0.217-0.195-0.423-0.352-0.617c-0.156-0.195-0.332-0.365-0.525-0.508
		c-0.195-0.143-0.404-0.256-0.625-0.338s-0.439-0.123-0.656-0.123c-0.338,0-0.645,0.071-0.916,0.214
		c-0.273,0.144-0.508,0.334-0.703,0.572s-0.344,0.511-0.447,0.819c-0.105,0.307-0.156,0.621-0.156,0.941
		c0,0.339,0.061,0.662,0.182,0.969c0.121,0.309,0.285,0.574,0.494,0.8c0.207,0.226,0.453,0.405,0.734,0.54
		S567.732,74.666,568.062,74.666z"/>
	<path fill="#D2D2D2" d="M576.408,71.455v-0.78h3.965v0.78H576.408z M576.408,73.197v-0.78h3.965v0.78H576.408z"/>
</g>
<g>
	<path fill="#D2D2D2" d="M605.857,66.22l2.574-5.291h0.961l2.561,5.291h-0.975l-2.066-4.264l-2.105,4.264H605.857z"/>
</g>
<g>
	<path fill="#D2D2D2" d="M337.738,122.847h-1.144v-3.796c0-0.729-0.11-1.257-0.331-1.586c-0.222-0.33-0.558-0.494-1.008-0.494
		c-0.234,0-0.468,0.045-0.702,0.137c-0.234,0.091-0.455,0.215-0.663,0.37c-0.208,0.156-0.39,0.343-0.546,0.56
		s-0.273,0.455-0.351,0.715v4.095h-1.145v-6.786h1.04v1.456c0.269-0.477,0.656-0.858,1.164-1.144c0.507-0.286,1.059-0.43,1.657-0.43
		c0.39,0,0.715,0.072,0.975,0.215s0.468,0.342,0.624,0.598s0.267,0.557,0.332,0.904c0.064,0.346,0.097,0.723,0.097,1.131V122.847z"
		/>
	<path fill="#D2D2D2" d="M338.923,127.176c0-0.202,0.016-0.392,0.049-0.568s0.095-0.346,0.186-0.508s0.216-0.316,0.375-0.463
		s0.368-0.293,0.626-0.439c0.151-0.08,0.306-0.16,0.462-0.238s0.3-0.162,0.429-0.25s0.234-0.184,0.318-0.284
		c0.083-0.101,0.125-0.22,0.125-0.356c0-0.086-0.021-0.172-0.061-0.258c-0.041-0.086-0.099-0.162-0.175-0.227
		c-0.076-0.066-0.171-0.119-0.284-0.16c-0.113-0.04-0.244-0.061-0.391-0.061c-0.151,0-0.289,0.021-0.413,0.064
		c-0.123,0.043-0.233,0.096-0.329,0.159c-0.097,0.063-0.18,0.13-0.25,0.201c-0.071,0.071-0.129,0.134-0.175,0.189l-0.432-0.485
		c0.04-0.045,0.108-0.107,0.204-0.186c0.097-0.078,0.218-0.158,0.364-0.238c0.146-0.081,0.315-0.15,0.508-0.209
		c0.191-0.058,0.406-0.087,0.645-0.087c0.231,0,0.441,0.032,0.629,0.095c0.187,0.062,0.345,0.15,0.474,0.262
		s0.229,0.241,0.299,0.391c0.071,0.148,0.106,0.307,0.106,0.473c0,0.197-0.043,0.369-0.129,0.516s-0.19,0.275-0.314,0.387
		s-0.257,0.206-0.398,0.284c-0.141,0.079-0.268,0.146-0.379,0.2c-0.11,0.057-0.235,0.123-0.375,0.201
		c-0.139,0.078-0.271,0.167-0.397,0.266c-0.127,0.099-0.236,0.209-0.33,0.33s-0.152,0.252-0.178,0.394h2.584v0.606H338.923z"/>
</g>
<g>
</g>
<g>
</g>
<g>
</g>
<g>
</g>
<g>
</g>
<g>
</g>
</svg>
