<?xml version="1.0" encoding="utf-8" standalone="no"?>
<!DOCTYPE svg PUBLIC "-//W3C//DTD SVG 1.1//EN"
  "http://www.w3.org/Graphics/SVG/1.1/DTD/svg11.dtd">
<!-- Created with matplotlib (http://matplotlib.org/) -->
<svg height="288pt" version="1.1" viewBox="0 0 432 288" width="432pt" xmlns="http://www.w3.org/2000/svg" xmlns:xlink="http://www.w3.org/1999/xlink">
 <defs>
  <style type="text/css">
*{stroke-linecap:butt;stroke-linejoin:round;}
  </style>
 </defs>
 <g id="figure_1">
  <g id="patch_1">
   <path d="M 0 288 
L 432 288 
L 432 0 
L 0 0 
z
" style="fill:none;"/>
  </g>
  <g id="axes_1">
   <g id="patch_2">
    <path d="M 4.32 244.8 
L 427.68 244.8 
L 427.68 57.6 
L 4.32 57.6 
z
" style="fill:none;"/>
   </g>
   <g id="PolyCollection_1">
    <defs>
     <path d="M 214.516757 -43.2 
L 214.516757 -70.184116 
L 214.940541 -69.620268 
L 215.364324 -69.065505 
L 215.788108 -68.51976 
L 216.211892 -67.982959 
L 216.635676 -67.455031 
L 217.059459 -66.9359 
L 217.483243 -66.425492 
L 217.907027 -65.923729 
L 218.330811 -65.430531 
L 218.754595 -64.945819 
L 219.178378 -64.469512 
L 219.602162 -64.001528 
L 220.025946 -63.541782 
L 220.44973 -63.09019 
L 220.873514 -62.646668 
L 221.297297 -62.211128 
L 221.721081 -61.783483 
L 222.144865 -61.363647 
L 222.568649 -60.951529 
L 222.992432 -60.547042 
L 223.416216 -60.150095 
L 223.84 -59.760598 
L 224.263784 -59.378461 
L 224.687568 -59.003593 
L 225.111351 -58.635902 
L 225.535135 -58.275297 
L 225.958919 -57.921685 
L 226.382703 -57.574976 
L 226.806486 -57.235077 
L 227.23027 -56.901895 
L 227.654054 -56.575339 
L 228.077838 -56.255316 
L 228.501622 -55.941735 
L 228.925405 -55.634504 
L 229.349189 -55.33353 
L 229.772973 -55.038722 
L 230.196757 -54.749989 
L 230.620541 -54.467239 
L 231.044324 -54.190382 
L 231.468108 -53.919328 
L 231.891892 -53.653986 
L 232.315676 -53.394267 
L 232.739459 -53.140082 
L 233.163243 -52.891342 
L 233.587027 -52.647958 
L 234.010811 -52.409844 
L 234.434595 -52.176912 
L 234.858378 -51.949075 
L 235.282162 -51.726248 
L 235.705946 -51.508346 
L 236.12973 -51.295284 
L 236.553514 -51.086978 
L 236.977297 -50.883345 
L 237.401081 -50.684302 
L 237.824865 -50.489769 
L 238.248649 -50.299663 
L 238.672432 -50.113905 
L 239.096216 -49.932415 
L 239.52 -49.755115 
L 239.943784 -49.581927 
L 240.367568 -49.412775 
L 240.791351 -49.247581 
L 241.215135 -49.086271 
L 241.638919 -48.928771 
L 242.062703 -48.775007 
L 242.486486 -48.624906 
L 242.91027 -48.478397 
L 243.334054 -48.335409 
L 243.757838 -48.195871 
L 244.181622 -48.059716 
L 244.605405 -47.926875 
L 245.029189 -47.79728 
L 245.452973 -47.670866 
L 245.876757 -47.547567 
L 246.300541 -47.427318 
L 246.724324 -47.310057 
L 247.148108 -47.19572 
L 247.571892 -47.084247 
L 247.995676 -46.975575 
L 248.419459 -46.869646 
L 248.843243 -46.766401 
L 249.267027 -46.665781 
L 249.690811 -46.567729 
L 250.114595 -46.47219 
L 250.538378 -46.379108 
L 250.962162 -46.288428 
L 251.385946 -46.200098 
L 251.80973 -46.114065 
L 252.233514 -46.030277 
L 252.657297 -45.948684 
L 253.081081 -45.869235 
L 253.504865 -45.791881 
L 253.928649 -45.716575 
L 254.352432 -45.643269 
L 254.776216 -45.571917 
L 255.2 -45.502472 
L 255.623784 -45.434892 
L 256.047568 -45.36913 
L 256.471351 -45.305145 
L 256.895135 -45.242894 
L 257.318919 -45.182336 
L 257.742703 -45.123429 
L 258.166486 -45.066135 
L 258.59027 -45.010414 
L 259.014054 -44.956227 
L 259.437838 -44.903538 
L 259.861622 -44.852308 
L 260.285405 -44.802503 
L 260.709189 -44.754087 
L 261.132973 -44.707025 
L 261.556757 -44.661284 
L 261.980541 -44.61683 
L 262.404324 -44.57363 
L 262.828108 -44.531653 
L 263.251892 -44.490868 
L 263.675676 -44.451245 
L 264.099459 -44.412753 
L 264.523243 -44.375363 
L 264.947027 -44.339047 
L 265.370811 -44.303777 
L 265.794595 -44.269526 
L 266.218378 -44.236267 
L 266.642162 -44.203974 
L 267.065946 -44.172621 
L 267.48973 -44.142183 
L 267.913514 -44.112637 
L 268.337297 -44.083959 
L 268.761081 -44.056124 
L 269.184865 -44.029111 
L 269.608649 -44.002898 
L 270.032432 -43.977462 
L 270.456216 -43.952783 
L 270.88 -43.92884 
L 271.303784 -43.905612 
L 271.727568 -43.883081 
L 272.151351 -43.861227 
L 272.575135 -43.840031 
L 272.998919 -43.819476 
L 273.422703 -43.799542 
L 273.846486 -43.780214 
L 274.27027 -43.761473 
L 274.694054 -43.743304 
L 275.117838 -43.72569 
L 275.541622 -43.708616 
L 275.965405 -43.692066 
L 276.389189 -43.676025 
L 276.812973 -43.660479 
L 277.236757 -43.645414 
L 277.660541 -43.630816 
L 278.084324 -43.616671 
L 278.508108 -43.602967 
L 278.931892 -43.58969 
L 279.355676 -43.576828 
L 279.779459 -43.56437 
L 280.203243 -43.552302 
L 280.627027 -43.540615 
L 281.050811 -43.529296 
L 281.474595 -43.518335 
L 281.898378 -43.507721 
L 282.322162 -43.497444 
L 282.745946 -43.487494 
L 283.16973 -43.477861 
L 283.593514 -43.468535 
L 284.017297 -43.459508 
L 284.441081 -43.450771 
L 284.864865 -43.442314 
L 285.288649 -43.43413 
L 285.712432 -43.42621 
L 286.136216 -43.418545 
L 286.56 -43.411129 
L 286.983784 -43.403954 
L 287.407568 -43.397011 
L 287.831351 -43.390295 
L 288.255135 -43.383798 
L 288.678919 -43.377514 
L 289.102703 -43.371435 
L 289.526486 -43.365556 
L 289.95027 -43.359871 
L 290.374054 -43.354372 
L 290.797838 -43.349055 
L 291.221622 -43.343914 
L 291.645405 -43.338943 
L 292.069189 -43.334137 
L 292.492973 -43.32949 
L 292.916757 -43.324999 
L 293.340541 -43.320657 
L 293.764324 -43.31646 
L 294.188108 -43.312403 
L 294.611892 -43.308483 
L 295.035676 -43.304694 
L 295.459459 -43.301033 
L 295.883243 -43.297495 
L 296.307027 -43.294076 
L 296.730811 -43.290773 
L 297.154595 -43.287582 
L 297.578378 -43.284499 
L 298.002162 -43.281521 
L 298.425946 -43.278644 
L 298.84973 -43.275865 
L 299.273514 -43.27318 
L 299.697297 -43.270588 
L 300.121081 -43.268084 
L 300.544865 -43.265667 
L 300.968649 -43.263332 
L 301.392432 -43.261077 
L 301.816216 -43.2589 
L 302.24 -43.256799 
L 302.663784 -43.254769 
L 303.087568 -43.25281 
L 303.511351 -43.250919 
L 303.935135 -43.249094 
L 304.358919 -43.247331 
L 304.782703 -43.245631 
L 305.206486 -43.243989 
L 305.63027 -43.242405 
L 306.054054 -43.240876 
L 306.477838 -43.2394 
L 306.901622 -43.237977 
L 307.325405 -43.236603 
L 307.749189 -43.235277 
L 308.172973 -43.233998 
L 308.596757 -43.232764 
L 309.020541 -43.231574 
L 309.444324 -43.230426 
L 309.868108 -43.229318 
L 310.291892 -43.228249 
L 310.715676 -43.227219 
L 311.139459 -43.226225 
L 311.563243 -43.225266 
L 311.987027 -43.224342 
L 312.410811 -43.22345 
L 312.834595 -43.22259 
L 313.258378 -43.221761 
L 313.682162 -43.220961 
L 314.105946 -43.220191 
L 314.52973 -43.219447 
L 314.953514 -43.218731 
L 315.377297 -43.21804 
L 315.801081 -43.217374 
L 316.224865 -43.216732 
L 316.648649 -43.216113 
L 317.072432 -43.215517 
L 317.496216 -43.214942 
L 317.92 -43.214388 
L 318.343784 -43.213854 
L 318.767568 -43.213339 
L 319.191351 -43.212843 
L 319.615135 -43.212365 
L 320.038919 -43.211904 
L 320.462703 -43.21146 
L 320.886486 -43.211033 
L 321.31027 -43.210621 
L 321.734054 -43.210224 
L 322.157838 -43.209841 
L 322.581622 -43.209473 
L 323.005405 -43.209118 
L 323.429189 -43.208776 
L 323.852973 -43.208447 
L 324.276757 -43.208129 
L 324.700541 -43.207824 
L 325.124324 -43.207529 
L 325.548108 -43.207246 
L 325.971892 -43.206973 
L 326.395676 -43.20671 
L 326.819459 -43.206457 
L 327.243243 -43.206213 
L 327.667027 -43.205978 
L 328.090811 -43.205752 
L 328.514595 -43.205534 
L 328.938378 -43.205324 
L 329.362162 -43.205123 
L 329.785946 -43.204928 
L 330.20973 -43.204741 
L 330.633514 -43.204561 
L 331.057297 -43.204388 
L 331.481081 -43.204221 
L 331.904865 -43.20406 
L 332.328649 -43.203905 
L 332.752432 -43.203757 
L 333.176216 -43.203613 
L 333.6 -43.203475 
L 334.023784 -43.203343 
L 334.447568 -43.203215 
L 334.871351 -43.203092 
L 335.295135 -43.202973 
L 335.718919 -43.20286 
L 336.142703 -43.20275 
L 336.566486 -43.202645 
L 336.99027 -43.202543 
L 337.414054 -43.202445 
L 337.837838 -43.202351 
L 338.261622 -43.202261 
L 338.685405 -43.202174 
L 339.109189 -43.20209 
L 339.532973 -43.20201 
L 339.956757 -43.201932 
L 340.380541 -43.201858 
L 340.804324 -43.201786 
L 341.228108 -43.201717 
L 341.651892 -43.201651 
L 342.075676 -43.201587 
L 342.499459 -43.201526 
L 342.923243 -43.201467 
L 343.347027 -43.20141 
L 343.770811 -43.201355 
L 344.194595 -43.201303 
L 344.618378 -43.201252 
L 345.042162 -43.201204 
L 345.465946 -43.201157 
L 345.88973 -43.201112 
L 346.313514 -43.201069 
L 346.737297 -43.201027 
L 347.161081 -43.200987 
L 347.584865 -43.200949 
L 348.008649 -43.200912 
L 348.432432 -43.200877 
L 348.856216 -43.200842 
L 349.28 -43.20081 
L 349.703784 -43.200778 
L 350.127568 -43.200748 
L 350.551351 -43.200718 
L 350.975135 -43.20069 
L 351.398919 -43.200663 
L 351.822703 -43.200638 
L 352.246486 -43.200613 
L 352.67027 -43.200589 
L 353.094054 -43.200566 
L 353.517838 -43.200543 
L 353.941622 -43.200522 
L 354.365405 -43.200502 
L 354.789189 -43.200482 
L 355.212973 -43.200463 
L 355.636757 -43.200445 
L 356.060541 -43.200427 
L 356.484324 -43.200411 
L 356.908108 -43.200395 
L 357.331892 -43.200379 
L 357.755676 -43.200364 
L 358.179459 -43.20035 
L 358.603243 -43.200336 
L 359.027027 -43.200323 
L 359.450811 -43.20031 
L 359.874595 -43.200298 
L 360.298378 -43.200286 
L 360.722162 -43.200275 
L 361.145946 -43.200264 
L 361.56973 -43.200254 
L 361.993514 -43.200244 
L 362.417297 -43.200234 
L 362.841081 -43.200225 
L 363.264865 -43.200216 
L 363.688649 -43.200207 
L 364.112432 -43.200199 
L 364.536216 -43.200191 
L 364.96 -43.200184 
L 365.383784 -43.200176 
L 365.807568 -43.200169 
L 366.231351 -43.200163 
L 366.655135 -43.200156 
L 367.078919 -43.20015 
L 367.502703 -43.200144 
L 367.926486 -43.200138 
L 368.35027 -43.200133 
L 368.774054 -43.200128 
L 369.197838 -43.200123 
L 369.621622 -43.200118 
L 370.045405 -43.200113 
L 370.469189 -43.200109 
L 370.892973 -43.200104 
L 371.316757 -43.2001 
L 371.740541 -43.200096 
L 372.164324 -43.200092 
L 372.588108 -43.200089 
L 373.011892 -43.200085 
L 373.435676 -43.200082 
L 373.859459 -43.200079 
L 374.283243 -43.200075 
L 374.707027 -43.200072 
L 375.130811 -43.20007 
L 375.554595 -43.200067 
L 375.978378 -43.200064 
L 376.402162 -43.200062 
L 376.825946 -43.200059 
L 377.24973 -43.200057 
L 377.673514 -43.200054 
L 378.097297 -43.200052 
L 378.521081 -43.20005 
L 378.944865 -43.200048 
L 379.368649 -43.200046 
L 379.792432 -43.200044 
L 380.216216 -43.200043 
L 380.64 -43.200041 
L 381.063784 -43.200039 
L 381.487568 -43.200038 
L 381.911351 -43.200036 
L 382.335135 -43.200035 
L 382.758919 -43.200033 
L 383.182703 -43.200032 
L 383.606486 -43.200031 
L 384.03027 -43.20003 
L 384.454054 -43.200028 
L 384.877838 -43.200027 
L 385.301622 -43.200026 
L 385.725405 -43.200025 
L 386.149189 -43.200024 
L 386.572973 -43.200023 
L 386.996757 -43.200022 
L 387.420541 -43.200021 
L 387.844324 -43.20002 
L 388.268108 -43.20002 
L 388.691892 -43.200019 
L 389.115676 -43.200018 
L 389.539459 -43.200017 
L 389.963243 -43.200017 
L 390.387027 -43.200016 
L 390.810811 -43.200015 
L 391.234595 -43.200015 
L 391.658378 -43.200014 
L 392.082162 -43.200014 
L 392.505946 -43.200013 
L 392.92973 -43.200013 
L 393.353514 -43.200012 
L 393.777297 -43.200012 
L 394.201081 -43.200011 
L 394.624865 -43.200011 
L 395.048649 -43.20001 
L 395.472432 -43.20001 
L 395.896216 -43.200009 
L 396.32 -43.200009 
L 396.743784 -43.200009 
L 397.167568 -43.200008 
L 397.591351 -43.200008 
L 398.015135 -43.200008 
L 398.438919 -43.200007 
L 398.862703 -43.200007 
L 399.286486 -43.200007 
L 399.71027 -43.200007 
L 400.134054 -43.200006 
L 400.557838 -43.200006 
L 400.981622 -43.200006 
L 401.405405 -43.200006 
L 401.829189 -43.200005 
L 402.252973 -43.200005 
L 402.676757 -43.200005 
L 403.100541 -43.200005 
L 403.524324 -43.200005 
L 403.948108 -43.200004 
L 404.371892 -43.200004 
L 404.795676 -43.200004 
L 405.219459 -43.200004 
L 405.643243 -43.200004 
L 406.067027 -43.200004 
L 406.490811 -43.200003 
L 406.914595 -43.200003 
L 407.338378 -43.200003 
L 407.762162 -43.200003 
L 408.185946 -43.200003 
L 408.60973 -43.200003 
L 409.033514 -43.200003 
L 409.457297 -43.200003 
L 409.881081 -43.200002 
L 410.304865 -43.200002 
L 410.728649 -43.200002 
L 411.152432 -43.200002 
L 411.576216 -43.200002 
L 412 -43.200002 
L 412.423784 -43.200002 
L 412.847568 -43.200002 
L 413.271351 -43.200002 
L 413.695135 -43.200002 
L 414.118919 -43.200002 
L 414.542703 -43.200002 
L 414.966486 -43.200001 
L 415.39027 -43.200001 
L 415.814054 -43.200001 
L 416.237838 -43.200001 
L 416.661622 -43.200001 
L 417.085405 -43.200001 
L 417.509189 -43.200001 
L 417.932973 -43.200001 
L 418.356757 -43.200001 
L 418.780541 -43.200001 
L 419.204324 -43.200001 
L 419.628108 -43.200001 
L 420.051892 -43.200001 
L 420.475676 -43.200001 
L 420.899459 -43.200001 
L 421.323243 -43.200001 
L 421.747027 -43.200001 
L 422.170811 -43.200001 
L 422.594595 -43.200001 
L 423.018378 -43.200001 
L 423.442162 -43.200001 
L 423.865946 -43.200001 
L 424.28973 -43.200001 
L 424.713514 -43.200001 
L 425.137297 -43.200001 
L 425.561081 -43.200001 
L 425.984865 -43.200001 
L 426.408649 -43.2 
L 426.832432 -43.2 
L 427.256216 -43.2 
L 427.68 -43.2 
L 427.68 -43.2 
L 427.68 -43.2 
L 427.256216 -43.2 
L 426.832432 -43.2 
L 426.408649 -43.2 
L 425.984865 -43.2 
L 425.561081 -43.2 
L 425.137297 -43.2 
L 424.713514 -43.2 
L 424.28973 -43.2 
L 423.865946 -43.2 
L 423.442162 -43.2 
L 423.018378 -43.2 
L 422.594595 -43.2 
L 422.170811 -43.2 
L 421.747027 -43.2 
L 421.323243 -43.2 
L 420.899459 -43.2 
L 420.475676 -43.2 
L 420.051892 -43.2 
L 419.628108 -43.2 
L 419.204324 -43.2 
L 418.780541 -43.2 
L 418.356757 -43.2 
L 417.932973 -43.2 
L 417.509189 -43.2 
L 417.085405 -43.2 
L 416.661622 -43.2 
L 416.237838 -43.2 
L 415.814054 -43.2 
L 415.39027 -43.2 
L 414.966486 -43.2 
L 414.542703 -43.2 
L 414.118919 -43.2 
L 413.695135 -43.2 
L 413.271351 -43.2 
L 412.847568 -43.2 
L 412.423784 -43.2 
L 412 -43.2 
L 411.576216 -43.2 
L 411.152432 -43.2 
L 410.728649 -43.2 
L 410.304865 -43.2 
L 409.881081 -43.2 
L 409.457297 -43.2 
L 409.033514 -43.2 
L 408.60973 -43.2 
L 408.185946 -43.2 
L 407.762162 -43.2 
L 407.338378 -43.2 
L 406.914595 -43.2 
L 406.490811 -43.2 
L 406.067027 -43.2 
L 405.643243 -43.2 
L 405.219459 -43.2 
L 404.795676 -43.2 
L 404.371892 -43.2 
L 403.948108 -43.2 
L 403.524324 -43.2 
L 403.100541 -43.2 
L 402.676757 -43.2 
L 402.252973 -43.2 
L 401.829189 -43.2 
L 401.405405 -43.2 
L 400.981622 -43.2 
L 400.557838 -43.2 
L 400.134054 -43.2 
L 399.71027 -43.2 
L 399.286486 -43.2 
L 398.862703 -43.2 
L 398.438919 -43.2 
L 398.015135 -43.2 
L 397.591351 -43.2 
L 397.167568 -43.2 
L 396.743784 -43.2 
L 396.32 -43.2 
L 395.896216 -43.2 
L 395.472432 -43.2 
L 395.048649 -43.2 
L 394.624865 -43.2 
L 394.201081 -43.2 
L 393.777297 -43.2 
L 393.353514 -43.2 
L 392.92973 -43.2 
L 392.505946 -43.2 
L 392.082162 -43.2 
L 391.658378 -43.2 
L 391.234595 -43.2 
L 390.810811 -43.2 
L 390.387027 -43.2 
L 389.963243 -43.2 
L 389.539459 -43.2 
L 389.115676 -43.2 
L 388.691892 -43.2 
L 388.268108 -43.2 
L 387.844324 -43.2 
L 387.420541 -43.2 
L 386.996757 -43.2 
L 386.572973 -43.2 
L 386.149189 -43.2 
L 385.725405 -43.2 
L 385.301622 -43.2 
L 384.877838 -43.2 
L 384.454054 -43.2 
L 384.03027 -43.2 
L 383.606486 -43.2 
L 383.182703 -43.2 
L 382.758919 -43.2 
L 382.335135 -43.2 
L 381.911351 -43.2 
L 381.487568 -43.2 
L 381.063784 -43.2 
L 380.64 -43.2 
L 380.216216 -43.2 
L 379.792432 -43.2 
L 379.368649 -43.2 
L 378.944865 -43.2 
L 378.521081 -43.2 
L 378.097297 -43.2 
L 377.673514 -43.2 
L 377.24973 -43.2 
L 376.825946 -43.2 
L 376.402162 -43.2 
L 375.978378 -43.2 
L 375.554595 -43.2 
L 375.130811 -43.2 
L 374.707027 -43.2 
L 374.283243 -43.2 
L 373.859459 -43.2 
L 373.435676 -43.2 
L 373.011892 -43.2 
L 372.588108 -43.2 
L 372.164324 -43.2 
L 371.740541 -43.2 
L 371.316757 -43.2 
L 370.892973 -43.2 
L 370.469189 -43.2 
L 370.045405 -43.2 
L 369.621622 -43.2 
L 369.197838 -43.2 
L 368.774054 -43.2 
L 368.35027 -43.2 
L 367.926486 -43.2 
L 367.502703 -43.2 
L 367.078919 -43.2 
L 366.655135 -43.2 
L 366.231351 -43.2 
L 365.807568 -43.2 
L 365.383784 -43.2 
L 364.96 -43.2 
L 364.536216 -43.2 
L 364.112432 -43.2 
L 363.688649 -43.2 
L 363.264865 -43.2 
L 362.841081 -43.2 
L 362.417297 -43.2 
L 361.993514 -43.2 
L 361.56973 -43.2 
L 361.145946 -43.2 
L 360.722162 -43.2 
L 360.298378 -43.2 
L 359.874595 -43.2 
L 359.450811 -43.2 
L 359.027027 -43.2 
L 358.603243 -43.2 
L 358.179459 -43.2 
L 357.755676 -43.2 
L 357.331892 -43.2 
L 356.908108 -43.2 
L 356.484324 -43.2 
L 356.060541 -43.2 
L 355.636757 -43.2 
L 355.212973 -43.2 
L 354.789189 -43.2 
L 354.365405 -43.2 
L 353.941622 -43.2 
L 353.517838 -43.2 
L 353.094054 -43.2 
L 352.67027 -43.2 
L 352.246486 -43.2 
L 351.822703 -43.2 
L 351.398919 -43.2 
L 350.975135 -43.2 
L 350.551351 -43.2 
L 350.127568 -43.2 
L 349.703784 -43.2 
L 349.28 -43.2 
L 348.856216 -43.2 
L 348.432432 -43.2 
L 348.008649 -43.2 
L 347.584865 -43.2 
L 347.161081 -43.2 
L 346.737297 -43.2 
L 346.313514 -43.2 
L 345.88973 -43.2 
L 345.465946 -43.2 
L 345.042162 -43.2 
L 344.618378 -43.2 
L 344.194595 -43.2 
L 343.770811 -43.2 
L 343.347027 -43.2 
L 342.923243 -43.2 
L 342.499459 -43.2 
L 342.075676 -43.2 
L 341.651892 -43.2 
L 341.228108 -43.2 
L 340.804324 -43.2 
L 340.380541 -43.2 
L 339.956757 -43.2 
L 339.532973 -43.2 
L 339.109189 -43.2 
L 338.685405 -43.2 
L 338.261622 -43.2 
L 337.837838 -43.2 
L 337.414054 -43.2 
L 336.99027 -43.2 
L 336.566486 -43.2 
L 336.142703 -43.2 
L 335.718919 -43.2 
L 335.295135 -43.2 
L 334.871351 -43.2 
L 334.447568 -43.2 
L 334.023784 -43.2 
L 333.6 -43.2 
L 333.176216 -43.2 
L 332.752432 -43.2 
L 332.328649 -43.2 
L 331.904865 -43.2 
L 331.481081 -43.2 
L 331.057297 -43.2 
L 330.633514 -43.2 
L 330.20973 -43.2 
L 329.785946 -43.2 
L 329.362162 -43.2 
L 328.938378 -43.2 
L 328.514595 -43.2 
L 328.090811 -43.2 
L 327.667027 -43.2 
L 327.243243 -43.2 
L 326.819459 -43.2 
L 326.395676 -43.2 
L 325.971892 -43.2 
L 325.548108 -43.2 
L 325.124324 -43.2 
L 324.700541 -43.2 
L 324.276757 -43.2 
L 323.852973 -43.2 
L 323.429189 -43.2 
L 323.005405 -43.2 
L 322.581622 -43.2 
L 322.157838 -43.2 
L 321.734054 -43.2 
L 321.31027 -43.2 
L 320.886486 -43.2 
L 320.462703 -43.2 
L 320.038919 -43.2 
L 319.615135 -43.2 
L 319.191351 -43.2 
L 318.767568 -43.2 
L 318.343784 -43.2 
L 317.92 -43.2 
L 317.496216 -43.2 
L 317.072432 -43.2 
L 316.648649 -43.2 
L 316.224865 -43.2 
L 315.801081 -43.2 
L 315.377297 -43.2 
L 314.953514 -43.2 
L 314.52973 -43.2 
L 314.105946 -43.2 
L 313.682162 -43.2 
L 313.258378 -43.2 
L 312.834595 -43.2 
L 312.410811 -43.2 
L 311.987027 -43.2 
L 311.563243 -43.2 
L 311.139459 -43.2 
L 310.715676 -43.2 
L 310.291892 -43.2 
L 309.868108 -43.2 
L 309.444324 -43.2 
L 309.020541 -43.2 
L 308.596757 -43.2 
L 308.172973 -43.2 
L 307.749189 -43.2 
L 307.325405 -43.2 
L 306.901622 -43.2 
L 306.477838 -43.2 
L 306.054054 -43.2 
L 305.63027 -43.2 
L 305.206486 -43.2 
L 304.782703 -43.2 
L 304.358919 -43.2 
L 303.935135 -43.2 
L 303.511351 -43.2 
L 303.087568 -43.2 
L 302.663784 -43.2 
L 302.24 -43.2 
L 301.816216 -43.2 
L 301.392432 -43.2 
L 300.968649 -43.2 
L 300.544865 -43.2 
L 300.121081 -43.2 
L 299.697297 -43.2 
L 299.273514 -43.2 
L 298.84973 -43.2 
L 298.425946 -43.2 
L 298.002162 -43.2 
L 297.578378 -43.2 
L 297.154595 -43.2 
L 296.730811 -43.2 
L 296.307027 -43.2 
L 295.883243 -43.2 
L 295.459459 -43.2 
L 295.035676 -43.2 
L 294.611892 -43.2 
L 294.188108 -43.2 
L 293.764324 -43.2 
L 293.340541 -43.2 
L 292.916757 -43.2 
L 292.492973 -43.2 
L 292.069189 -43.2 
L 291.645405 -43.2 
L 291.221622 -43.2 
L 290.797838 -43.2 
L 290.374054 -43.2 
L 289.95027 -43.2 
L 289.526486 -43.2 
L 289.102703 -43.2 
L 288.678919 -43.2 
L 288.255135 -43.2 
L 287.831351 -43.2 
L 287.407568 -43.2 
L 286.983784 -43.2 
L 286.56 -43.2 
L 286.136216 -43.2 
L 285.712432 -43.2 
L 285.288649 -43.2 
L 284.864865 -43.2 
L 284.441081 -43.2 
L 284.017297 -43.2 
L 283.593514 -43.2 
L 283.16973 -43.2 
L 282.745946 -43.2 
L 282.322162 -43.2 
L 281.898378 -43.2 
L 281.474595 -43.2 
L 281.050811 -43.2 
L 280.627027 -43.2 
L 280.203243 -43.2 
L 279.779459 -43.2 
L 279.355676 -43.2 
L 278.931892 -43.2 
L 278.508108 -43.2 
L 278.084324 -43.2 
L 277.660541 -43.2 
L 277.236757 -43.2 
L 276.812973 -43.2 
L 276.389189 -43.2 
L 275.965405 -43.2 
L 275.541622 -43.2 
L 275.117838 -43.2 
L 274.694054 -43.2 
L 274.27027 -43.2 
L 273.846486 -43.2 
L 273.422703 -43.2 
L 272.998919 -43.2 
L 272.575135 -43.2 
L 272.151351 -43.2 
L 271.727568 -43.2 
L 271.303784 -43.2 
L 270.88 -43.2 
L 270.456216 -43.2 
L 270.032432 -43.2 
L 269.608649 -43.2 
L 269.184865 -43.2 
L 268.761081 -43.2 
L 268.337297 -43.2 
L 267.913514 -43.2 
L 267.48973 -43.2 
L 267.065946 -43.2 
L 266.642162 -43.2 
L 266.218378 -43.2 
L 265.794595 -43.2 
L 265.370811 -43.2 
L 264.947027 -43.2 
L 264.523243 -43.2 
L 264.099459 -43.2 
L 263.675676 -43.2 
L 263.251892 -43.2 
L 262.828108 -43.2 
L 262.404324 -43.2 
L 261.980541 -43.2 
L 261.556757 -43.2 
L 261.132973 -43.2 
L 260.709189 -43.2 
L 260.285405 -43.2 
L 259.861622 -43.2 
L 259.437838 -43.2 
L 259.014054 -43.2 
L 258.59027 -43.2 
L 258.166486 -43.2 
L 257.742703 -43.2 
L 257.318919 -43.2 
L 256.895135 -43.2 
L 256.471351 -43.2 
L 256.047568 -43.2 
L 255.623784 -43.2 
L 255.2 -43.2 
L 254.776216 -43.2 
L 254.352432 -43.2 
L 253.928649 -43.2 
L 253.504865 -43.2 
L 253.081081 -43.2 
L 252.657297 -43.2 
L 252.233514 -43.2 
L 251.80973 -43.2 
L 251.385946 -43.2 
L 250.962162 -43.2 
L 250.538378 -43.2 
L 250.114595 -43.2 
L 249.690811 -43.2 
L 249.267027 -43.2 
L 248.843243 -43.2 
L 248.419459 -43.2 
L 247.995676 -43.2 
L 247.571892 -43.2 
L 247.148108 -43.2 
L 246.724324 -43.2 
L 246.300541 -43.2 
L 245.876757 -43.2 
L 245.452973 -43.2 
L 245.029189 -43.2 
L 244.605405 -43.2 
L 244.181622 -43.2 
L 243.757838 -43.2 
L 243.334054 -43.2 
L 242.91027 -43.2 
L 242.486486 -43.2 
L 242.062703 -43.2 
L 241.638919 -43.2 
L 241.215135 -43.2 
L 240.791351 -43.2 
L 240.367568 -43.2 
L 239.943784 -43.2 
L 239.52 -43.2 
L 239.096216 -43.2 
L 238.672432 -43.2 
L 238.248649 -43.2 
L 237.824865 -43.2 
L 237.401081 -43.2 
L 236.977297 -43.2 
L 236.553514 -43.2 
L 236.12973 -43.2 
L 235.705946 -43.2 
L 235.282162 -43.2 
L 234.858378 -43.2 
L 234.434595 -43.2 
L 234.010811 -43.2 
L 233.587027 -43.2 
L 233.163243 -43.2 
L 232.739459 -43.2 
L 232.315676 -43.2 
L 231.891892 -43.2 
L 231.468108 -43.2 
L 231.044324 -43.2 
L 230.620541 -43.2 
L 230.196757 -43.2 
L 229.772973 -43.2 
L 229.349189 -43.2 
L 228.925405 -43.2 
L 228.501622 -43.2 
L 228.077838 -43.2 
L 227.654054 -43.2 
L 227.23027 -43.2 
L 226.806486 -43.2 
L 226.382703 -43.2 
L 225.958919 -43.2 
L 225.535135 -43.2 
L 225.111351 -43.2 
L 224.687568 -43.2 
L 224.263784 -43.2 
L 223.84 -43.2 
L 223.416216 -43.2 
L 222.992432 -43.2 
L 222.568649 -43.2 
L 222.144865 -43.2 
L 221.721081 -43.2 
L 221.297297 -43.2 
L 220.873514 -43.2 
L 220.44973 -43.2 
L 220.025946 -43.2 
L 219.602162 -43.2 
L 219.178378 -43.2 
L 218.754595 -43.2 
L 218.330811 -43.2 
L 217.907027 -43.2 
L 217.483243 -43.2 
L 217.059459 -43.2 
L 216.635676 -43.2 
L 216.211892 -43.2 
L 215.788108 -43.2 
L 215.364324 -43.2 
L 214.940541 -43.2 
L 214.516757 -43.2 
z
" id="me1aeea9a13" style="stroke:#d9534f;stroke-opacity:0.8;"/>
    </defs>
    <g clip-path="url(#p56c13b1936)">
     <use style="fill:#d9534f;fill-opacity:0.8;stroke:#d9534f;stroke-opacity:0.8;" x="0" xlink:href="#me1aeea9a13" y="288"/>
    </g>
   </g>
   <g id="matplotlib.axis_1"/>
   <g id="matplotlib.axis_2"/>
   <g id="line2d_1">
    <path clip-path="url(#p56c13b1936)" d="M 4.32 244.389024 
L 12.795676 244.007669 
L 19.576216 243.485283 
L 25.085405 242.842118 
L 29.747027 242.084288 
L 33.984865 241.173188 
L 37.798919 240.126877 
L 41.189189 238.979039 
L 44.579459 237.589042 
L 47.545946 236.143279 
L 50.512432 234.453633 
L 53.478919 232.490179 
L 56.445405 230.221908 
L 58.988108 228.011183 
L 61.530811 225.533634 
L 64.073514 222.770079 
L 66.616216 219.702355 
L 69.158919 216.313848 
L 71.701622 212.590074 
L 74.244324 208.519306 
L 77.210811 203.320638 
L 80.177297 197.632421 
L 83.143784 191.457547 
L 86.534054 183.822139 
L 89.924324 175.607122 
L 93.738378 165.74791 
L 97.976216 154.169547 
L 104.332973 136.050645 
L 111.961081 114.356184 
L 115.775135 104.108089 
L 119.165405 95.624757 
L 122.131892 88.838992 
L 124.674595 83.591721 
L 126.793514 79.674383 
L 128.912432 76.211046 
L 131.031351 73.235327 
L 132.726486 71.225696 
L 134.421622 69.55982 
L 136.116757 68.248416 
L 137.388108 67.502681 
L 138.659459 66.96389 
L 139.930811 66.63402 
L 141.202162 66.514286 
L 142.473514 66.605127 
L 143.744865 66.906208 
L 145.016216 67.416424 
L 146.287568 68.1339 
L 147.558919 69.05601 
L 149.254054 70.59789 
L 150.949189 72.487554 
L 152.644324 74.712908 
L 154.339459 77.259839 
L 156.458378 80.87122 
L 158.577297 84.925115 
L 161.12 90.319613 
L 163.662703 96.224061 
L 166.629189 103.655247 
L 170.443243 113.874661 
L 175.528649 128.230657 
L 186.547027 159.551622 
L 190.784865 170.849711 
L 194.598919 180.386586 
L 197.989189 188.275089 
L 201.379459 195.559454 
L 204.345946 201.416166 
L 207.312432 206.783239 
L 210.278919 211.663833 
L 213.245405 216.06916 
L 215.788108 219.48024 
L 218.330811 222.569469 
L 220.873514 225.353332 
L 223.416216 227.849905 
L 225.958919 230.078315 
L 228.925405 232.365496 
L 231.891892 234.346014 
L 234.858378 236.050925 
L 237.824865 237.510231 
L 241.215135 238.913729 
L 244.605405 240.073125 
L 248.419459 241.130354 
L 252.657297 242.051316 
L 257.318919 242.817664 
L 262.404324 243.42637 
L 268.337297 243.916041 
L 275.965405 244.307934 
L 285.712432 244.57379 
L 300.544865 244.734333 
L 331.481081 244.795779 
L 427.68 244.8 
L 427.68 244.8 
" style="fill:none;stroke:#d2d2d2;stroke-linecap:square;stroke-width:2;"/>
   </g>
   <g id="patch_3">
    <path d="M 4.32 244.8 
L 427.68 244.8 
" style="fill:none;stroke:#d2d2d2;stroke-linecap:square;stroke-linejoin:miter;"/>
   </g>
   <g id="text_1">
    <!-- Type II -->
    <defs>
     <path d="M -0.296875 72.90625 
L 61.375 72.90625 
L 61.375 64.59375 
L 35.5 64.59375 
L 35.5 0 
L 25.59375 0 
L 25.59375 64.59375 
L -0.296875 64.59375 
z
" id="DejaVuSans-54"/>
     <path d="M 32.171875 -5.078125 
Q 28.375 -14.84375 24.75 -17.8125 
Q 21.140625 -20.796875 15.09375 -20.796875 
L 7.90625 -20.796875 
L 7.90625 -13.28125 
L 13.1875 -13.28125 
Q 16.890625 -13.28125 18.9375 -11.515625 
Q 21 -9.765625 23.484375 -3.21875 
L 25.09375 0.875 
L 2.984375 54.6875 
L 12.5 54.6875 
L 29.59375 11.921875 
L 46.6875 54.6875 
L 56.203125 54.6875 
z
" id="DejaVuSans-79"/>
     <path d="M 18.109375 8.203125 
L 18.109375 -20.796875 
L 9.078125 -20.796875 
L 9.078125 54.6875 
L 18.109375 54.6875 
L 18.109375 46.390625 
Q 20.953125 51.265625 25.265625 53.625 
Q 29.59375 56 35.59375 56 
Q 45.5625 56 51.78125 48.09375 
Q 58.015625 40.1875 58.015625 27.296875 
Q 58.015625 14.40625 51.78125 6.484375 
Q 45.5625 -1.421875 35.59375 -1.421875 
Q 29.59375 -1.421875 25.265625 0.953125 
Q 20.953125 3.328125 18.109375 8.203125 
M 48.6875 27.296875 
Q 48.6875 37.203125 44.609375 42.84375 
Q 40.53125 48.484375 33.40625 48.484375 
Q 26.265625 48.484375 22.1875 42.84375 
Q 18.109375 37.203125 18.109375 27.296875 
Q 18.109375 17.390625 22.1875 11.75 
Q 26.265625 6.109375 33.40625 6.109375 
Q 40.53125 6.109375 44.609375 11.75 
Q 48.6875 17.390625 48.6875 27.296875 
" id="DejaVuSans-70"/>
     <path d="M 56.203125 29.59375 
L 56.203125 25.203125 
L 14.890625 25.203125 
Q 15.484375 15.921875 20.484375 11.0625 
Q 25.484375 6.203125 34.421875 6.203125 
Q 39.59375 6.203125 44.453125 7.46875 
Q 49.3125 8.734375 54.109375 11.28125 
L 54.109375 2.78125 
Q 49.265625 0.734375 44.1875 -0.34375 
Q 39.109375 -1.421875 33.890625 -1.421875 
Q 20.796875 -1.421875 13.15625 6.1875 
Q 5.515625 13.8125 5.515625 26.8125 
Q 5.515625 40.234375 12.765625 48.109375 
Q 20.015625 56 32.328125 56 
Q 43.359375 56 49.78125 48.890625 
Q 56.203125 41.796875 56.203125 29.59375 
M 47.21875 32.234375 
Q 47.125 39.59375 43.09375 43.984375 
Q 39.0625 48.390625 32.421875 48.390625 
Q 24.90625 48.390625 20.390625 44.140625 
Q 15.875 39.890625 15.1875 32.171875 
z
" id="DejaVuSans-65"/>
     <path id="DejaVuSans-20"/>
     <path d="M 9.8125 72.90625 
L 19.671875 72.90625 
L 19.671875 0 
L 9.8125 0 
z
" id="DejaVuSans-49"/>
    </defs>
    <g style="fill:#5bc0de;" transform="translate(141.005832 268.425628)scale(0.15 -0.15)">
     <use xlink:href="#DejaVuSans-54"/>
     <use x="60.849609" xlink:href="#DejaVuSans-79"/>
     <use x="120.029297" xlink:href="#DejaVuSans-70"/>
     <use x="183.505859" xlink:href="#DejaVuSans-65"/>
     <use x="245.029297" xlink:href="#DejaVuSans-20"/>
     <use x="276.816406" xlink:href="#DejaVuSans-49"/>
     <use x="306.308594" xlink:href="#DejaVuSans-49"/>
    </g>
    <!-- error -->
    <defs>
     <path d="M 41.109375 46.296875 
Q 39.59375 47.171875 37.8125 47.578125 
Q 36.03125 48 33.890625 48 
Q 26.265625 48 22.1875 43.046875 
Q 18.109375 38.09375 18.109375 28.8125 
L 18.109375 0 
L 9.078125 0 
L 9.078125 54.6875 
L 18.109375 54.6875 
L 18.109375 46.1875 
Q 20.953125 51.171875 25.484375 53.578125 
Q 30.03125 56 36.53125 56 
Q 37.453125 56 38.578125 55.875 
Q 39.703125 55.765625 41.0625 55.515625 
z
" id="DejaVuSans-72"/>
     <path d="M 30.609375 48.390625 
Q 23.390625 48.390625 19.1875 42.75 
Q 14.984375 37.109375 14.984375 27.296875 
Q 14.984375 17.484375 19.15625 11.84375 
Q 23.34375 6.203125 30.609375 6.203125 
Q 37.796875 6.203125 41.984375 11.859375 
Q 46.1875 17.53125 46.1875 27.296875 
Q 46.1875 37.015625 41.984375 42.703125 
Q 37.796875 48.390625 30.609375 48.390625 
M 30.609375 56 
Q 42.328125 56 49.015625 48.375 
Q 55.71875 40.765625 55.71875 27.296875 
Q 55.71875 13.875 49.015625 6.21875 
Q 42.328125 -1.421875 30.609375 -1.421875 
Q 18.84375 -1.421875 12.171875 6.21875 
Q 5.515625 13.875 5.515625 27.296875 
Q 5.515625 40.765625 12.171875 48.375 
Q 18.84375 56 30.609375 56 
" id="DejaVuSans-6f"/>
    </defs>
    <g style="fill:#5bc0de;" transform="translate(147.742941 285.222347)scale(0.15 -0.15)">
     <use xlink:href="#DejaVuSans-65"/>
     <use x="61.523438" xlink:href="#DejaVuSans-72"/>
     <use x="102.621094" xlink:href="#DejaVuSans-72"/>
     <use x="143.703125" xlink:href="#DejaVuSans-6f"/>
     <use x="204.884766" xlink:href="#DejaVuSans-72"/>
    </g>
   </g>
   <g id="text_2">
    <!-- Type I -->
    <g style="fill:#d9534f;" transform="translate(217.92892 268.425628)scale(0.15 -0.15)">
     <use xlink:href="#DejaVuSans-54"/>
     <use x="60.849609" xlink:href="#DejaVuSans-79"/>
     <use x="120.029297" xlink:href="#DejaVuSans-70"/>
     <use x="183.505859" xlink:href="#DejaVuSans-65"/>
     <use x="245.029297" xlink:href="#DejaVuSans-20"/>
     <use x="276.816406" xlink:href="#DejaVuSans-49"/>
    </g>
    <!-- error -->
    <g style="fill:#d9534f;" transform="translate(222.453529 285.222347)scale(0.15 -0.15)">
     <use xlink:href="#DejaVuSans-65"/>
     <use x="61.523438" xlink:href="#DejaVuSans-72"/>
     <use x="102.621094" xlink:href="#DejaVuSans-72"/>
     <use x="143.703125" xlink:href="#DejaVuSans-6f"/>
     <use x="204.884766" xlink:href="#DejaVuSans-72"/>
    </g>
   </g>
   <g id="text_3">
    <!-- Null -->
    <defs>
     <path d="M 9.8125 72.90625 
L 23.09375 72.90625 
L 55.421875 11.921875 
L 55.421875 72.90625 
L 64.984375 72.90625 
L 64.984375 0 
L 51.703125 0 
L 19.390625 60.984375 
L 19.390625 0 
L 9.8125 0 
z
" id="DejaVuSans-4e"/>
     <path d="M 8.5 21.578125 
L 8.5 54.6875 
L 17.484375 54.6875 
L 17.484375 21.921875 
Q 17.484375 14.15625 20.5 10.265625 
Q 23.53125 6.390625 29.59375 6.390625 
Q 36.859375 6.390625 41.078125 11.03125 
Q 45.3125 15.671875 45.3125 23.6875 
L 45.3125 54.6875 
L 54.296875 54.6875 
L 54.296875 0 
L 45.3125 0 
L 45.3125 8.40625 
Q 42.046875 3.421875 37.71875 1 
Q 33.40625 -1.421875 27.6875 -1.421875 
Q 18.265625 -1.421875 13.375 4.4375 
Q 8.5 10.296875 8.5 21.578125 
M 31.109375 56 
z
" id="DejaVuSans-75"/>
     <path d="M 9.421875 75.984375 
L 18.40625 75.984375 
L 18.40625 0 
L 9.421875 0 
z
" id="DejaVuSans-6c"/>
    </defs>
    <g style="fill:#d2d2d2;" transform="translate(129.180037 169.646064)scale(0.125 -0.125)">
     <use xlink:href="#DejaVuSans-4e"/>
     <use x="74.804688" xlink:href="#DejaVuSans-75"/>
     <use x="138.183594" xlink:href="#DejaVuSans-6c"/>
     <use x="165.966797" xlink:href="#DejaVuSans-6c"/>
    </g>
    <!-- Hypothesis -->
    <defs>
     <path d="M 9.8125 72.90625 
L 19.671875 72.90625 
L 19.671875 43.015625 
L 55.515625 43.015625 
L 55.515625 72.90625 
L 65.375 72.90625 
L 65.375 0 
L 55.515625 0 
L 55.515625 34.71875 
L 19.671875 34.71875 
L 19.671875 0 
L 9.8125 0 
z
" id="DejaVuSans-48"/>
     <path d="M 18.3125 70.21875 
L 18.3125 54.6875 
L 36.8125 54.6875 
L 36.8125 47.703125 
L 18.3125 47.703125 
L 18.3125 18.015625 
Q 18.3125 11.328125 20.140625 9.421875 
Q 21.96875 7.515625 27.59375 7.515625 
L 36.8125 7.515625 
L 36.8125 0 
L 27.59375 0 
Q 17.1875 0 13.234375 3.875 
Q 9.28125 7.765625 9.28125 18.015625 
L 9.28125 47.703125 
L 2.6875 47.703125 
L 2.6875 54.6875 
L 9.28125 54.6875 
L 9.28125 70.21875 
z
" id="DejaVuSans-74"/>
     <path d="M 54.890625 33.015625 
L 54.890625 0 
L 45.90625 0 
L 45.90625 32.71875 
Q 45.90625 40.484375 42.875 44.328125 
Q 39.84375 48.1875 33.796875 48.1875 
Q 26.515625 48.1875 22.3125 43.546875 
Q 18.109375 38.921875 18.109375 30.90625 
L 18.109375 0 
L 9.078125 0 
L 9.078125 75.984375 
L 18.109375 75.984375 
L 18.109375 46.1875 
Q 21.34375 51.125 25.703125 53.5625 
Q 30.078125 56 35.796875 56 
Q 45.21875 56 50.046875 50.171875 
Q 54.890625 44.34375 54.890625 33.015625 
" id="DejaVuSans-68"/>
     <path d="M 44.28125 53.078125 
L 44.28125 44.578125 
Q 40.484375 46.53125 36.375 47.5 
Q 32.28125 48.484375 27.875 48.484375 
Q 21.1875 48.484375 17.84375 46.4375 
Q 14.5 44.390625 14.5 40.28125 
Q 14.5 37.15625 16.890625 35.375 
Q 19.28125 33.59375 26.515625 31.984375 
L 29.59375 31.296875 
Q 39.15625 29.25 43.1875 25.515625 
Q 47.21875 21.78125 47.21875 15.09375 
Q 47.21875 7.46875 41.1875 3.015625 
Q 35.15625 -1.421875 24.609375 -1.421875 
Q 20.21875 -1.421875 15.453125 -0.5625 
Q 10.6875 0.296875 5.421875 2 
L 5.421875 11.28125 
Q 10.40625 8.6875 15.234375 7.390625 
Q 20.0625 6.109375 24.8125 6.109375 
Q 31.15625 6.109375 34.5625 8.28125 
Q 37.984375 10.453125 37.984375 14.40625 
Q 37.984375 18.0625 35.515625 20.015625 
Q 33.0625 21.96875 24.703125 23.78125 
L 21.578125 24.515625 
Q 13.234375 26.265625 9.515625 29.90625 
Q 5.8125 33.546875 5.8125 39.890625 
Q 5.8125 47.609375 11.28125 51.796875 
Q 16.75 56 26.8125 56 
Q 31.78125 56 36.171875 55.265625 
Q 40.578125 54.546875 44.28125 53.078125 
" id="DejaVuSans-73"/>
     <path d="M 9.421875 54.6875 
L 18.40625 54.6875 
L 18.40625 0 
L 9.421875 0 
z
M 9.421875 75.984375 
L 18.40625 75.984375 
L 18.40625 64.59375 
L 9.421875 64.59375 
z
" id="DejaVuSans-69"/>
    </defs>
    <g style="fill:#d2d2d2;" transform="translate(106.593123 183.64333)scale(0.125 -0.125)">
     <use xlink:href="#DejaVuSans-48"/>
     <use x="75.195312" xlink:href="#DejaVuSans-79"/>
     <use x="134.375" xlink:href="#DejaVuSans-70"/>
     <use x="197.851562" xlink:href="#DejaVuSans-6f"/>
     <use x="259.033203" xlink:href="#DejaVuSans-74"/>
     <use x="298.242188" xlink:href="#DejaVuSans-68"/>
     <use x="361.621094" xlink:href="#DejaVuSans-65"/>
     <use x="423.144531" xlink:href="#DejaVuSans-73"/>
     <use x="475.244141" xlink:href="#DejaVuSans-69"/>
     <use x="503.027344" xlink:href="#DejaVuSans-73"/>
    </g>
    <!-- H$_0$ -->
    <defs>
     <path d="M 31.78125 66.40625 
Q 24.171875 66.40625 20.328125 58.90625 
Q 16.5 51.421875 16.5 36.375 
Q 16.5 21.390625 20.328125 13.890625 
Q 24.171875 6.390625 31.78125 6.390625 
Q 39.453125 6.390625 43.28125 13.890625 
Q 47.125 21.390625 47.125 36.375 
Q 47.125 51.421875 43.28125 58.90625 
Q 39.453125 66.40625 31.78125 66.40625 
M 31.78125 74.21875 
Q 44.046875 74.21875 50.515625 64.515625 
Q 56.984375 54.828125 56.984375 36.375 
Q 56.984375 17.96875 50.515625 8.265625 
Q 44.046875 -1.421875 31.78125 -1.421875 
Q 19.53125 -1.421875 13.0625 8.265625 
Q 6.59375 17.96875 6.59375 36.375 
Q 6.59375 54.828125 13.0625 64.515625 
Q 19.53125 74.21875 31.78125 74.21875 
" id="DejaVuSans-30"/>
    </defs>
    <g style="fill:#d2d2d2;" transform="translate(133.539412 197.640595)scale(0.125 -0.125)">
     <use transform="translate(0 0.09375)" xlink:href="#DejaVuSans-48"/>
     <use transform="translate(76.152344 -16.3125)scale(0.7)" xlink:href="#DejaVuSans-30"/>
    </g>
   </g>
   <g id="text_4">
    <!-- Alternative -->
    <defs>
     <path d="M 34.1875 63.1875 
L 20.796875 26.90625 
L 47.609375 26.90625 
z
M 28.609375 72.90625 
L 39.796875 72.90625 
L 67.578125 0 
L 57.328125 0 
L 50.6875 18.703125 
L 17.828125 18.703125 
L 11.1875 0 
L 0.78125 0 
z
" id="DejaVuSans-41"/>
     <path d="M 54.890625 33.015625 
L 54.890625 0 
L 45.90625 0 
L 45.90625 32.71875 
Q 45.90625 40.484375 42.875 44.328125 
Q 39.84375 48.1875 33.796875 48.1875 
Q 26.515625 48.1875 22.3125 43.546875 
Q 18.109375 38.921875 18.109375 30.90625 
L 18.109375 0 
L 9.078125 0 
L 9.078125 54.6875 
L 18.109375 54.6875 
L 18.109375 46.1875 
Q 21.34375 51.125 25.703125 53.5625 
Q 30.078125 56 35.796875 56 
Q 45.21875 56 50.046875 50.171875 
Q 54.890625 44.34375 54.890625 33.015625 
" id="DejaVuSans-6e"/>
     <path d="M 34.28125 27.484375 
Q 23.390625 27.484375 19.1875 25 
Q 14.984375 22.515625 14.984375 16.5 
Q 14.984375 11.71875 18.140625 8.90625 
Q 21.296875 6.109375 26.703125 6.109375 
Q 34.1875 6.109375 38.703125 11.40625 
Q 43.21875 16.703125 43.21875 25.484375 
L 43.21875 27.484375 
z
M 52.203125 31.203125 
L 52.203125 0 
L 43.21875 0 
L 43.21875 8.296875 
Q 40.140625 3.328125 35.546875 0.953125 
Q 30.953125 -1.421875 24.3125 -1.421875 
Q 15.921875 -1.421875 10.953125 3.296875 
Q 6 8.015625 6 15.921875 
Q 6 25.140625 12.171875 29.828125 
Q 18.359375 34.515625 30.609375 34.515625 
L 43.21875 34.515625 
L 43.21875 35.40625 
Q 43.21875 41.609375 39.140625 45 
Q 35.0625 48.390625 27.6875 48.390625 
Q 23 48.390625 18.546875 47.265625 
Q 14.109375 46.140625 10.015625 43.890625 
L 10.015625 52.203125 
Q 14.9375 54.109375 19.578125 55.046875 
Q 24.21875 56 28.609375 56 
Q 40.484375 56 46.34375 49.84375 
Q 52.203125 43.703125 52.203125 31.203125 
" id="DejaVuSans-61"/>
     <path d="M 2.984375 54.6875 
L 12.5 54.6875 
L 29.59375 8.796875 
L 46.6875 54.6875 
L 56.203125 54.6875 
L 35.6875 0 
L 23.484375 0 
z
" id="DejaVuSans-76"/>
    </defs>
    <g style="fill:#d2d2d2;" transform="translate(231.408621 169.646064)scale(0.125 -0.125)">
     <use xlink:href="#DejaVuSans-41"/>
     <use x="68.408203" xlink:href="#DejaVuSans-6c"/>
     <use x="96.191406" xlink:href="#DejaVuSans-74"/>
     <use x="135.400391" xlink:href="#DejaVuSans-65"/>
     <use x="196.923828" xlink:href="#DejaVuSans-72"/>
     <use x="238.021484" xlink:href="#DejaVuSans-6e"/>
     <use x="301.400391" xlink:href="#DejaVuSans-61"/>
     <use x="362.679688" xlink:href="#DejaVuSans-74"/>
     <use x="401.888672" xlink:href="#DejaVuSans-69"/>
     <use x="429.671875" xlink:href="#DejaVuSans-76"/>
     <use x="488.851562" xlink:href="#DejaVuSans-65"/>
    </g>
    <!-- Hypothesis -->
    <g style="fill:#d2d2d2;" transform="translate(231.11077 183.64333)scale(0.125 -0.125)">
     <use xlink:href="#DejaVuSans-48"/>
     <use x="75.195312" xlink:href="#DejaVuSans-79"/>
     <use x="134.375" xlink:href="#DejaVuSans-70"/>
     <use x="197.851562" xlink:href="#DejaVuSans-6f"/>
     <use x="259.033203" xlink:href="#DejaVuSans-74"/>
     <use x="298.242188" xlink:href="#DejaVuSans-68"/>
     <use x="361.621094" xlink:href="#DejaVuSans-65"/>
     <use x="423.144531" xlink:href="#DejaVuSans-73"/>
     <use x="475.244141" xlink:href="#DejaVuSans-69"/>
     <use x="503.027344" xlink:href="#DejaVuSans-73"/>
    </g>
    <!-- H$_a$ -->
    <defs>
     <path d="M 53.71875 31.203125 
L 47.609375 0 
L 38.625 0 
L 40.28125 8.296875 
Q 36.328125 3.421875 31.265625 1 
Q 26.21875 -1.421875 20.015625 -1.421875 
Q 13.03125 -1.421875 8.5625 2.84375 
Q 4.109375 7.125 4.109375 13.8125 
Q 4.109375 23.390625 11.75 28.953125 
Q 19.390625 34.515625 32.8125 34.515625 
L 45.3125 34.515625 
L 45.796875 36.921875 
Q 45.90625 37.3125 45.953125 37.765625 
Q 46 38.234375 46 39.203125 
Q 46 43.5625 42.453125 45.96875 
Q 38.921875 48.390625 32.515625 48.390625 
Q 28.125 48.390625 23.5 47.265625 
Q 18.890625 46.140625 14.015625 43.890625 
L 15.578125 52.203125 
Q 20.65625 54.109375 25.515625 55.046875 
Q 30.375 56 34.90625 56 
Q 44.578125 56 49.625 51.796875 
Q 54.6875 47.609375 54.6875 39.59375 
Q 54.6875 37.984375 54.4375 35.8125 
Q 54.203125 33.640625 53.71875 31.203125 
M 44 27.484375 
L 35.015625 27.484375 
Q 23.96875 27.484375 18.671875 24.53125 
Q 13.375 21.578125 13.375 15.375 
Q 13.375 11.078125 16.078125 8.640625 
Q 18.796875 6.203125 23.578125 6.203125 
Q 30.90625 6.203125 36.375 11.453125 
Q 41.84375 16.703125 43.609375 25.484375 
z
" id="DejaVuSans-Oblique-61"/>
    </defs>
    <g style="fill:#d2d2d2;" transform="translate(258.182059 197.640595)scale(0.125 -0.125)">
     <use transform="translate(0 0.09375)" xlink:href="#DejaVuSans-48"/>
     <use transform="translate(76.152344 -16.3125)scale(0.7)" xlink:href="#DejaVuSans-Oblique-61"/>
    </g>
   </g>
  </g>
  <g id="axes_2">
   <g id="PolyCollection_2">
    <defs>
     <path d="M 4.32 -43.2 
L 4.32 -43.200005 
L 4.743784 -43.200005 
L 5.167568 -43.200005 
L 5.591351 -43.200005 
L 6.015135 -43.200006 
L 6.438919 -43.200006 
L 6.862703 -43.200006 
L 7.286486 -43.200006 
L 7.71027 -43.200007 
L 8.134054 -43.200007 
L 8.557838 -43.200007 
L 8.981622 -43.200008 
L 9.405405 -43.200008 
L 9.829189 -43.200008 
L 10.252973 -43.200009 
L 10.676757 -43.200009 
L 11.100541 -43.200009 
L 11.524324 -43.20001 
L 11.948108 -43.20001 
L 12.371892 -43.200011 
L 12.795676 -43.200011 
L 13.219459 -43.200011 
L 13.643243 -43.200012 
L 14.067027 -43.200012 
L 14.490811 -43.200013 
L 14.914595 -43.200013 
L 15.338378 -43.200014 
L 15.762162 -43.200015 
L 16.185946 -43.200015 
L 16.60973 -43.200016 
L 17.033514 -43.200017 
L 17.457297 -43.200017 
L 17.881081 -43.200018 
L 18.304865 -43.200019 
L 18.728649 -43.200019 
L 19.152432 -43.20002 
L 19.576216 -43.200021 
L 20 -43.200022 
L 20.423784 -43.200023 
L 20.847568 -43.200024 
L 21.271351 -43.200025 
L 21.695135 -43.200026 
L 22.118919 -43.200027 
L 22.542703 -43.200028 
L 22.966486 -43.200029 
L 23.39027 -43.200031 
L 23.814054 -43.200032 
L 24.237838 -43.200033 
L 24.661622 -43.200034 
L 25.085405 -43.200036 
L 25.509189 -43.200037 
L 25.932973 -43.200039 
L 26.356757 -43.200041 
L 26.780541 -43.200042 
L 27.204324 -43.200044 
L 27.628108 -43.200046 
L 28.051892 -43.200048 
L 28.475676 -43.20005 
L 28.899459 -43.200052 
L 29.323243 -43.200054 
L 29.747027 -43.200056 
L 30.170811 -43.200059 
L 30.594595 -43.200061 
L 31.018378 -43.200063 
L 31.442162 -43.200066 
L 31.865946 -43.200069 
L 32.28973 -43.200072 
L 32.713514 -43.200075 
L 33.137297 -43.200078 
L 33.561081 -43.200081 
L 33.984865 -43.200084 
L 34.408649 -43.200088 
L 34.832432 -43.200091 
L 35.256216 -43.200095 
L 35.68 -43.200099 
L 36.103784 -43.200103 
L 36.527568 -43.200108 
L 36.951351 -43.200112 
L 37.375135 -43.200117 
L 37.798919 -43.200121 
L 38.222703 -43.200127 
L 38.646486 -43.200132 
L 39.07027 -43.200137 
L 39.494054 -43.200143 
L 39.917838 -43.200149 
L 40.341622 -43.200155 
L 40.765405 -43.200161 
L 41.189189 -43.200168 
L 41.612973 -43.200175 
L 42.036757 -43.200182 
L 42.460541 -43.20019 
L 42.884324 -43.200197 
L 43.308108 -43.200205 
L 43.731892 -43.200214 
L 44.155676 -43.200223 
L 44.579459 -43.200232 
L 45.003243 -43.200241 
L 45.427027 -43.200251 
L 45.850811 -43.200262 
L 46.274595 -43.200272 
L 46.698378 -43.200283 
L 47.122162 -43.200295 
L 47.545946 -43.200307 
L 47.96973 -43.20032 
L 48.393514 -43.200333 
L 48.817297 -43.200347 
L 49.241081 -43.200361 
L 49.664865 -43.200375 
L 50.088649 -43.200391 
L 50.512432 -43.200407 
L 50.936216 -43.200423 
L 51.36 -43.200441 
L 51.783784 -43.200459 
L 52.207568 -43.200478 
L 52.631351 -43.200497 
L 53.055135 -43.200517 
L 53.478919 -43.200538 
L 53.902703 -43.20056 
L 54.326486 -43.200583 
L 54.75027 -43.200607 
L 55.174054 -43.200632 
L 55.597838 -43.200657 
L 56.021622 -43.200684 
L 56.445405 -43.200712 
L 56.869189 -43.200741 
L 57.292973 -43.200771 
L 57.716757 -43.200802 
L 58.140541 -43.200835 
L 58.564324 -43.200868 
L 58.988108 -43.200904 
L 59.411892 -43.20094 
L 59.835676 -43.200978 
L 60.259459 -43.201018 
L 60.683243 -43.201059 
L 61.107027 -43.201102 
L 61.530811 -43.201146 
L 61.954595 -43.201193 
L 62.378378 -43.201241 
L 62.802162 -43.201291 
L 63.225946 -43.201343 
L 63.64973 -43.201397 
L 64.073514 -43.201453 
L 64.497297 -43.201512 
L 64.921081 -43.201573 
L 65.344865 -43.201636 
L 65.768649 -43.201702 
L 66.192432 -43.20177 
L 66.616216 -43.201841 
L 67.04 -43.201915 
L 67.463784 -43.201991 
L 67.887568 -43.202071 
L 68.311351 -43.202154 
L 68.735135 -43.20224 
L 69.158919 -43.20233 
L 69.582703 -43.202423 
L 70.006486 -43.20252 
L 70.43027 -43.20262 
L 70.854054 -43.202725 
L 71.277838 -43.202833 
L 71.701622 -43.202946 
L 72.125405 -43.203064 
L 72.549189 -43.203185 
L 72.972973 -43.203312 
L 73.396757 -43.203444 
L 73.820541 -43.20358 
L 74.244324 -43.203722 
L 74.668108 -43.20387 
L 75.091892 -43.204023 
L 75.515676 -43.204182 
L 75.939459 -43.204348 
L 76.363243 -43.20452 
L 76.787027 -43.204698 
L 77.210811 -43.204884 
L 77.634595 -43.205076 
L 78.058378 -43.205276 
L 78.482162 -43.205484 
L 78.905946 -43.2057 
L 79.32973 -43.205924 
L 79.753514 -43.206157 
L 80.177297 -43.206398 
L 80.601081 -43.206649 
L 81.024865 -43.20691 
L 81.448649 -43.207181 
L 81.872432 -43.207462 
L 82.296216 -43.207753 
L 82.72 -43.208056 
L 83.143784 -43.208371 
L 83.567568 -43.208697 
L 83.991351 -43.209036 
L 84.415135 -43.209388 
L 84.838919 -43.209753 
L 85.262703 -43.210132 
L 85.686486 -43.210526 
L 86.11027 -43.210934 
L 86.534054 -43.211358 
L 86.957838 -43.211798 
L 87.381622 -43.212255 
L 87.805405 -43.212729 
L 88.229189 -43.21322 
L 88.652973 -43.213731 
L 89.076757 -43.21426 
L 89.500541 -43.214809 
L 89.924324 -43.215379 
L 90.348108 -43.215971 
L 90.771892 -43.216584 
L 91.195676 -43.217221 
L 91.619459 -43.217881 
L 92.043243 -43.218566 
L 92.467027 -43.219276 
L 92.890811 -43.220013 
L 93.314595 -43.220777 
L 93.738378 -43.22157 
L 94.162162 -43.222392 
L 94.585946 -43.223245 
L 95.00973 -43.224129 
L 95.433514 -43.225045 
L 95.857297 -43.225996 
L 96.281081 -43.226982 
L 96.704865 -43.228004 
L 97.128649 -43.229063 
L 97.552432 -43.230161 
L 97.976216 -43.2313 
L 98.4 -43.23248 
L 98.823784 -43.233704 
L 99.247568 -43.234972 
L 99.671351 -43.236287 
L 100.095135 -43.237649 
L 100.518919 -43.239061 
L 100.942703 -43.240524 
L 101.366486 -43.24204 
L 101.79027 -43.243611 
L 102.214054 -43.245239 
L 102.637838 -43.246926 
L 103.061622 -43.248673 
L 103.485405 -43.250484 
L 103.909189 -43.252359 
L 104.332973 -43.254302 
L 104.756757 -43.256314 
L 105.180541 -43.258399 
L 105.604324 -43.260558 
L 106.028108 -43.262794 
L 106.451892 -43.26511 
L 106.875676 -43.267508 
L 107.299459 -43.269991 
L 107.723243 -43.272562 
L 108.147027 -43.275224 
L 108.570811 -43.277981 
L 108.994595 -43.280834 
L 109.418378 -43.283789 
L 109.842162 -43.286847 
L 110.265946 -43.290012 
L 110.68973 -43.293289 
L 111.113514 -43.29668 
L 111.537297 -43.300189 
L 111.961081 -43.303821 
L 112.384865 -43.30758 
L 112.808649 -43.311469 
L 113.232432 -43.315493 
L 113.656216 -43.319656 
L 114.08 -43.323963 
L 114.503784 -43.328419 
L 114.927568 -43.333029 
L 115.351351 -43.337797 
L 115.775135 -43.342729 
L 116.198919 -43.347829 
L 116.622703 -43.353105 
L 117.046486 -43.35856 
L 117.47027 -43.364201 
L 117.894054 -43.370034 
L 118.317838 -43.376065 
L 118.741622 -43.3823 
L 119.165405 -43.388747 
L 119.589189 -43.395411 
L 120.012973 -43.402299 
L 120.436757 -43.409419 
L 120.860541 -43.416778 
L 121.284324 -43.424383 
L 121.708108 -43.432242 
L 122.131892 -43.440364 
L 122.555676 -43.448756 
L 122.979459 -43.457426 
L 123.403243 -43.466384 
L 123.827027 -43.475638 
L 124.250811 -43.485198 
L 124.674595 -43.495073 
L 125.098378 -43.505272 
L 125.522162 -43.515806 
L 125.945946 -43.526684 
L 126.36973 -43.537918 
L 126.793514 -43.549518 
L 127.217297 -43.561495 
L 127.641081 -43.57386 
L 128.064865 -43.586626 
L 128.488649 -43.599804 
L 128.912432 -43.613406 
L 129.336216 -43.627446 
L 129.76 -43.641937 
L 130.183784 -43.65689 
L 130.607568 -43.672322 
L 131.031351 -43.688245 
L 131.455135 -43.704673 
L 131.878919 -43.721623 
L 132.302703 -43.739108 
L 132.726486 -43.757146 
L 133.15027 -43.77575 
L 133.574054 -43.794939 
L 133.997838 -43.814728 
L 134.421622 -43.835136 
L 134.845405 -43.85618 
L 135.269189 -43.877877 
L 135.692973 -43.900247 
L 136.116757 -43.923309 
L 136.540541 -43.947082 
L 136.964324 -43.971586 
L 137.388108 -43.996842 
L 137.811892 -44.02287 
L 138.235676 -44.049693 
L 138.659459 -44.077332 
L 139.083243 -44.10581 
L 139.507027 -44.13515 
L 139.930811 -44.165375 
L 140.354595 -44.19651 
L 140.778378 -44.22858 
L 141.202162 -44.261609 
L 141.625946 -44.295625 
L 142.04973 -44.330652 
L 142.473514 -44.366719 
L 142.897297 -44.403854 
L 143.321081 -44.442084 
L 143.744865 -44.481438 
L 144.168649 -44.521947 
L 144.592432 -44.563641 
L 145.016216 -44.606549 
L 145.44 -44.650706 
L 145.863784 -44.696141 
L 146.287568 -44.742889 
L 146.711351 -44.790983 
L 147.135135 -44.840458 
L 147.558919 -44.891349 
L 147.982703 -44.943692 
L 148.406486 -44.997523 
L 148.83027 -45.052879 
L 149.254054 -45.1098 
L 149.677838 -45.168323 
L 150.101622 -45.228489 
L 150.525405 -45.290338 
L 150.949189 -45.353911 
L 151.372973 -45.41925 
L 151.796757 -45.486399 
L 152.220541 -45.5554 
L 152.644324 -45.6263 
L 153.068108 -45.699142 
L 153.491892 -45.773973 
L 153.915676 -45.85084 
L 154.339459 -45.929791 
L 154.763243 -46.010876 
L 155.187027 -46.094142 
L 155.610811 -46.179643 
L 156.034595 -46.267427 
L 156.458378 -46.357549 
L 156.882162 -46.45006 
L 157.305946 -46.545016 
L 157.72973 -46.642471 
L 158.153514 -46.742482 
L 158.577297 -46.845104 
L 159.001081 -46.950396 
L 159.424865 -47.058417 
L 159.848649 -47.169225 
L 160.272432 -47.282882 
L 160.696216 -47.39945 
L 161.12 -47.518989 
L 161.543784 -47.641564 
L 161.967568 -47.767239 
L 162.391351 -47.89608 
L 162.815135 -48.028151 
L 163.238919 -48.16352 
L 163.662703 -48.302255 
L 164.086486 -48.444424 
L 164.51027 -48.590098 
L 164.934054 -48.739347 
L 165.357838 -48.892242 
L 165.781622 -49.048856 
L 166.205405 -49.209263 
L 166.629189 -49.373535 
L 167.052973 -49.541749 
L 167.476757 -49.71398 
L 167.900541 -49.890305 
L 168.324324 -50.070802 
L 168.748108 -50.255548 
L 169.171892 -50.444623 
L 169.595676 -50.638107 
L 170.019459 -50.836081 
L 170.443243 -51.038626 
L 170.867027 -51.245824 
L 171.290811 -51.457759 
L 171.714595 -51.674514 
L 172.138378 -51.896174 
L 172.562162 -52.122824 
L 172.985946 -52.354548 
L 173.40973 -52.591435 
L 173.833514 -52.83357 
L 174.257297 -53.081041 
L 174.681081 -53.333937 
L 175.104865 -53.592345 
L 175.528649 -53.856355 
L 175.952432 -54.126056 
L 176.376216 -54.401539 
L 176.8 -54.682893 
L 177.223784 -54.970209 
L 177.647568 -55.263579 
L 178.071351 -55.563093 
L 178.495135 -55.868843 
L 178.918919 -56.180921 
L 179.342703 -56.499419 
L 179.766486 -56.824428 
L 180.19027 -57.156042 
L 180.614054 -57.494351 
L 181.037838 -57.839449 
L 181.461622 -58.191427 
L 181.885405 -58.550378 
L 182.309189 -58.916392 
L 182.732973 -59.289562 
L 183.156757 -59.66998 
L 183.580541 -60.057736 
L 184.004324 -60.45292 
L 184.428108 -60.855624 
L 184.851892 -61.265937 
L 185.275676 -61.683949 
L 185.699459 -62.109747 
L 186.123243 -62.54342 
L 186.547027 -62.985055 
L 186.970811 -63.434739 
L 187.394595 -63.892558 
L 187.818378 -64.358595 
L 188.242162 -64.832935 
L 188.665946 -65.315661 
L 189.08973 -65.806853 
L 189.513514 -66.306592 
L 189.937297 -66.814958 
L 190.361081 -67.332028 
L 190.784865 -67.857878 
L 191.208649 -68.392583 
L 191.632432 -68.936216 
L 192.056216 -69.488849 
L 192.48 -70.050551 
L 192.903784 -70.621391 
L 193.327568 -71.201435 
L 193.751351 -71.790747 
L 194.175135 -72.389388 
L 194.598919 -72.99742 
L 195.022703 -73.614899 
L 195.446486 -74.241881 
L 195.87027 -74.878419 
L 196.294054 -75.524564 
L 196.717838 -76.180363 
L 197.141622 -76.845863 
L 197.565405 -77.521105 
L 197.989189 -78.206129 
L 198.412973 -78.900973 
L 198.836757 -79.605671 
L 199.260541 -80.320252 
L 199.684324 -81.044745 
L 200.108108 -81.779175 
L 200.531892 -82.523562 
L 200.955676 -83.277924 
L 201.379459 -84.042275 
L 201.803243 -84.816626 
L 202.227027 -85.600984 
L 202.650811 -86.395351 
L 203.074595 -87.199728 
L 203.498378 -88.014109 
L 203.922162 -88.838486 
L 204.345946 -89.672846 
L 204.76973 -90.517172 
L 205.193514 -91.371443 
L 205.617297 -92.235634 
L 206.041081 -93.109714 
L 206.464865 -93.993649 
L 206.888649 -94.887401 
L 207.312432 -95.790925 
L 207.736216 -96.704173 
L 208.16 -97.627093 
L 208.583784 -98.559626 
L 209.007568 -99.50171 
L 209.431351 -100.453276 
L 209.855135 -101.414252 
L 210.278919 -102.38456 
L 210.702703 -103.364118 
L 211.126486 -104.352836 
L 211.55027 -105.350621 
L 211.974054 -106.357375 
L 212.397838 -107.372993 
L 212.821622 -108.397366 
L 213.245405 -109.430378 
L 213.669189 -110.47191 
L 214.092973 -111.521835 
L 214.092973 -43.2 
L 214.092973 -43.2 
L 213.669189 -43.2 
L 213.245405 -43.2 
L 212.821622 -43.2 
L 212.397838 -43.2 
L 211.974054 -43.2 
L 211.55027 -43.2 
L 211.126486 -43.2 
L 210.702703 -43.2 
L 210.278919 -43.2 
L 209.855135 -43.2 
L 209.431351 -43.2 
L 209.007568 -43.2 
L 208.583784 -43.2 
L 208.16 -43.2 
L 207.736216 -43.2 
L 207.312432 -43.2 
L 206.888649 -43.2 
L 206.464865 -43.2 
L 206.041081 -43.2 
L 205.617297 -43.2 
L 205.193514 -43.2 
L 204.76973 -43.2 
L 204.345946 -43.2 
L 203.922162 -43.2 
L 203.498378 -43.2 
L 203.074595 -43.2 
L 202.650811 -43.2 
L 202.227027 -43.2 
L 201.803243 -43.2 
L 201.379459 -43.2 
L 200.955676 -43.2 
L 200.531892 -43.2 
L 200.108108 -43.2 
L 199.684324 -43.2 
L 199.260541 -43.2 
L 198.836757 -43.2 
L 198.412973 -43.2 
L 197.989189 -43.2 
L 197.565405 -43.2 
L 197.141622 -43.2 
L 196.717838 -43.2 
L 196.294054 -43.2 
L 195.87027 -43.2 
L 195.446486 -43.2 
L 195.022703 -43.2 
L 194.598919 -43.2 
L 194.175135 -43.2 
L 193.751351 -43.2 
L 193.327568 -43.2 
L 192.903784 -43.2 
L 192.48 -43.2 
L 192.056216 -43.2 
L 191.632432 -43.2 
L 191.208649 -43.2 
L 190.784865 -43.2 
L 190.361081 -43.2 
L 189.937297 -43.2 
L 189.513514 -43.2 
L 189.08973 -43.2 
L 188.665946 -43.2 
L 188.242162 -43.2 
L 187.818378 -43.2 
L 187.394595 -43.2 
L 186.970811 -43.2 
L 186.547027 -43.2 
L 186.123243 -43.2 
L 185.699459 -43.2 
L 185.275676 -43.2 
L 184.851892 -43.2 
L 184.428108 -43.2 
L 184.004324 -43.2 
L 183.580541 -43.2 
L 183.156757 -43.2 
L 182.732973 -43.2 
L 182.309189 -43.2 
L 181.885405 -43.2 
L 181.461622 -43.2 
L 181.037838 -43.2 
L 180.614054 -43.2 
L 180.19027 -43.2 
L 179.766486 -43.2 
L 179.342703 -43.2 
L 178.918919 -43.2 
L 178.495135 -43.2 
L 178.071351 -43.2 
L 177.647568 -43.2 
L 177.223784 -43.2 
L 176.8 -43.2 
L 176.376216 -43.2 
L 175.952432 -43.2 
L 175.528649 -43.2 
L 175.104865 -43.2 
L 174.681081 -43.2 
L 174.257297 -43.2 
L 173.833514 -43.2 
L 173.40973 -43.2 
L 172.985946 -43.2 
L 172.562162 -43.2 
L 172.138378 -43.2 
L 171.714595 -43.2 
L 171.290811 -43.2 
L 170.867027 -43.2 
L 170.443243 -43.2 
L 170.019459 -43.2 
L 169.595676 -43.2 
L 169.171892 -43.2 
L 168.748108 -43.2 
L 168.324324 -43.2 
L 167.900541 -43.2 
L 167.476757 -43.2 
L 167.052973 -43.2 
L 166.629189 -43.2 
L 166.205405 -43.2 
L 165.781622 -43.2 
L 165.357838 -43.2 
L 164.934054 -43.2 
L 164.51027 -43.2 
L 164.086486 -43.2 
L 163.662703 -43.2 
L 163.238919 -43.2 
L 162.815135 -43.2 
L 162.391351 -43.2 
L 161.967568 -43.2 
L 161.543784 -43.2 
L 161.12 -43.2 
L 160.696216 -43.2 
L 160.272432 -43.2 
L 159.848649 -43.2 
L 159.424865 -43.2 
L 159.001081 -43.2 
L 158.577297 -43.2 
L 158.153514 -43.2 
L 157.72973 -43.2 
L 157.305946 -43.2 
L 156.882162 -43.2 
L 156.458378 -43.2 
L 156.034595 -43.2 
L 155.610811 -43.2 
L 155.187027 -43.2 
L 154.763243 -43.2 
L 154.339459 -43.2 
L 153.915676 -43.2 
L 153.491892 -43.2 
L 153.068108 -43.2 
L 152.644324 -43.2 
L 152.220541 -43.2 
L 151.796757 -43.2 
L 151.372973 -43.2 
L 150.949189 -43.2 
L 150.525405 -43.2 
L 150.101622 -43.2 
L 149.677838 -43.2 
L 149.254054 -43.2 
L 148.83027 -43.2 
L 148.406486 -43.2 
L 147.982703 -43.2 
L 147.558919 -43.2 
L 147.135135 -43.2 
L 146.711351 -43.2 
L 146.287568 -43.2 
L 145.863784 -43.2 
L 145.44 -43.2 
L 145.016216 -43.2 
L 144.592432 -43.2 
L 144.168649 -43.2 
L 143.744865 -43.2 
L 143.321081 -43.2 
L 142.897297 -43.2 
L 142.473514 -43.2 
L 142.04973 -43.2 
L 141.625946 -43.2 
L 141.202162 -43.2 
L 140.778378 -43.2 
L 140.354595 -43.2 
L 139.930811 -43.2 
L 139.507027 -43.2 
L 139.083243 -43.2 
L 138.659459 -43.2 
L 138.235676 -43.2 
L 137.811892 -43.2 
L 137.388108 -43.2 
L 136.964324 -43.2 
L 136.540541 -43.2 
L 136.116757 -43.2 
L 135.692973 -43.2 
L 135.269189 -43.2 
L 134.845405 -43.2 
L 134.421622 -43.2 
L 133.997838 -43.2 
L 133.574054 -43.2 
L 133.15027 -43.2 
L 132.726486 -43.2 
L 132.302703 -43.2 
L 131.878919 -43.2 
L 131.455135 -43.2 
L 131.031351 -43.2 
L 130.607568 -43.2 
L 130.183784 -43.2 
L 129.76 -43.2 
L 129.336216 -43.2 
L 128.912432 -43.2 
L 128.488649 -43.2 
L 128.064865 -43.2 
L 127.641081 -43.2 
L 127.217297 -43.2 
L 126.793514 -43.2 
L 126.36973 -43.2 
L 125.945946 -43.2 
L 125.522162 -43.2 
L 125.098378 -43.2 
L 124.674595 -43.2 
L 124.250811 -43.2 
L 123.827027 -43.2 
L 123.403243 -43.2 
L 122.979459 -43.2 
L 122.555676 -43.2 
L 122.131892 -43.2 
L 121.708108 -43.2 
L 121.284324 -43.2 
L 120.860541 -43.2 
L 120.436757 -43.2 
L 120.012973 -43.2 
L 119.589189 -43.2 
L 119.165405 -43.2 
L 118.741622 -43.2 
L 118.317838 -43.2 
L 117.894054 -43.2 
L 117.47027 -43.2 
L 117.046486 -43.2 
L 116.622703 -43.2 
L 116.198919 -43.2 
L 115.775135 -43.2 
L 115.351351 -43.2 
L 114.927568 -43.2 
L 114.503784 -43.2 
L 114.08 -43.2 
L 113.656216 -43.2 
L 113.232432 -43.2 
L 112.808649 -43.2 
L 112.384865 -43.2 
L 111.961081 -43.2 
L 111.537297 -43.2 
L 111.113514 -43.2 
L 110.68973 -43.2 
L 110.265946 -43.2 
L 109.842162 -43.2 
L 109.418378 -43.2 
L 108.994595 -43.2 
L 108.570811 -43.2 
L 108.147027 -43.2 
L 107.723243 -43.2 
L 107.299459 -43.2 
L 106.875676 -43.2 
L 106.451892 -43.2 
L 106.028108 -43.2 
L 105.604324 -43.2 
L 105.180541 -43.2 
L 104.756757 -43.2 
L 104.332973 -43.2 
L 103.909189 -43.2 
L 103.485405 -43.2 
L 103.061622 -43.2 
L 102.637838 -43.2 
L 102.214054 -43.2 
L 101.79027 -43.2 
L 101.366486 -43.2 
L 100.942703 -43.2 
L 100.518919 -43.2 
L 100.095135 -43.2 
L 99.671351 -43.2 
L 99.247568 -43.2 
L 98.823784 -43.2 
L 98.4 -43.2 
L 97.976216 -43.2 
L 97.552432 -43.2 
L 97.128649 -43.2 
L 96.704865 -43.2 
L 96.281081 -43.2 
L 95.857297 -43.2 
L 95.433514 -43.2 
L 95.00973 -43.2 
L 94.585946 -43.2 
L 94.162162 -43.2 
L 93.738378 -43.2 
L 93.314595 -43.2 
L 92.890811 -43.2 
L 92.467027 -43.2 
L 92.043243 -43.2 
L 91.619459 -43.2 
L 91.195676 -43.2 
L 90.771892 -43.2 
L 90.348108 -43.2 
L 89.924324 -43.2 
L 89.500541 -43.2 
L 89.076757 -43.2 
L 88.652973 -43.2 
L 88.229189 -43.2 
L 87.805405 -43.2 
L 87.381622 -43.2 
L 86.957838 -43.2 
L 86.534054 -43.2 
L 86.11027 -43.2 
L 85.686486 -43.2 
L 85.262703 -43.2 
L 84.838919 -43.2 
L 84.415135 -43.2 
L 83.991351 -43.2 
L 83.567568 -43.2 
L 83.143784 -43.2 
L 82.72 -43.2 
L 82.296216 -43.2 
L 81.872432 -43.2 
L 81.448649 -43.2 
L 81.024865 -43.2 
L 80.601081 -43.2 
L 80.177297 -43.2 
L 79.753514 -43.2 
L 79.32973 -43.2 
L 78.905946 -43.2 
L 78.482162 -43.2 
L 78.058378 -43.2 
L 77.634595 -43.2 
L 77.210811 -43.2 
L 76.787027 -43.2 
L 76.363243 -43.2 
L 75.939459 -43.2 
L 75.515676 -43.2 
L 75.091892 -43.2 
L 74.668108 -43.2 
L 74.244324 -43.2 
L 73.820541 -43.2 
L 73.396757 -43.2 
L 72.972973 -43.2 
L 72.549189 -43.2 
L 72.125405 -43.2 
L 71.701622 -43.2 
L 71.277838 -43.2 
L 70.854054 -43.2 
L 70.43027 -43.2 
L 70.006486 -43.2 
L 69.582703 -43.2 
L 69.158919 -43.2 
L 68.735135 -43.2 
L 68.311351 -43.2 
L 67.887568 -43.2 
L 67.463784 -43.2 
L 67.04 -43.2 
L 66.616216 -43.2 
L 66.192432 -43.2 
L 65.768649 -43.2 
L 65.344865 -43.2 
L 64.921081 -43.2 
L 64.497297 -43.2 
L 64.073514 -43.2 
L 63.64973 -43.2 
L 63.225946 -43.2 
L 62.802162 -43.2 
L 62.378378 -43.2 
L 61.954595 -43.2 
L 61.530811 -43.2 
L 61.107027 -43.2 
L 60.683243 -43.2 
L 60.259459 -43.2 
L 59.835676 -43.2 
L 59.411892 -43.2 
L 58.988108 -43.2 
L 58.564324 -43.2 
L 58.140541 -43.2 
L 57.716757 -43.2 
L 57.292973 -43.2 
L 56.869189 -43.2 
L 56.445405 -43.2 
L 56.021622 -43.2 
L 55.597838 -43.2 
L 55.174054 -43.2 
L 54.75027 -43.2 
L 54.326486 -43.2 
L 53.902703 -43.2 
L 53.478919 -43.2 
L 53.055135 -43.2 
L 52.631351 -43.2 
L 52.207568 -43.2 
L 51.783784 -43.2 
L 51.36 -43.2 
L 50.936216 -43.2 
L 50.512432 -43.2 
L 50.088649 -43.2 
L 49.664865 -43.2 
L 49.241081 -43.2 
L 48.817297 -43.2 
L 48.393514 -43.2 
L 47.96973 -43.2 
L 47.545946 -43.2 
L 47.122162 -43.2 
L 46.698378 -43.2 
L 46.274595 -43.2 
L 45.850811 -43.2 
L 45.427027 -43.2 
L 45.003243 -43.2 
L 44.579459 -43.2 
L 44.155676 -43.2 
L 43.731892 -43.2 
L 43.308108 -43.2 
L 42.884324 -43.2 
L 42.460541 -43.2 
L 42.036757 -43.2 
L 41.612973 -43.2 
L 41.189189 -43.2 
L 40.765405 -43.2 
L 40.341622 -43.2 
L 39.917838 -43.2 
L 39.494054 -43.2 
L 39.07027 -43.2 
L 38.646486 -43.2 
L 38.222703 -43.2 
L 37.798919 -43.2 
L 37.375135 -43.2 
L 36.951351 -43.2 
L 36.527568 -43.2 
L 36.103784 -43.2 
L 35.68 -43.2 
L 35.256216 -43.2 
L 34.832432 -43.2 
L 34.408649 -43.2 
L 33.984865 -43.2 
L 33.561081 -43.2 
L 33.137297 -43.2 
L 32.713514 -43.2 
L 32.28973 -43.2 
L 31.865946 -43.2 
L 31.442162 -43.2 
L 31.018378 -43.2 
L 30.594595 -43.2 
L 30.170811 -43.2 
L 29.747027 -43.2 
L 29.323243 -43.2 
L 28.899459 -43.2 
L 28.475676 -43.2 
L 28.051892 -43.2 
L 27.628108 -43.2 
L 27.204324 -43.2 
L 26.780541 -43.2 
L 26.356757 -43.2 
L 25.932973 -43.2 
L 25.509189 -43.2 
L 25.085405 -43.2 
L 24.661622 -43.2 
L 24.237838 -43.2 
L 23.814054 -43.2 
L 23.39027 -43.2 
L 22.966486 -43.2 
L 22.542703 -43.2 
L 22.118919 -43.2 
L 21.695135 -43.2 
L 21.271351 -43.2 
L 20.847568 -43.2 
L 20.423784 -43.2 
L 20 -43.2 
L 19.576216 -43.2 
L 19.152432 -43.2 
L 18.728649 -43.2 
L 18.304865 -43.2 
L 17.881081 -43.2 
L 17.457297 -43.2 
L 17.033514 -43.2 
L 16.60973 -43.2 
L 16.185946 -43.2 
L 15.762162 -43.2 
L 15.338378 -43.2 
L 14.914595 -43.2 
L 14.490811 -43.2 
L 14.067027 -43.2 
L 13.643243 -43.2 
L 13.219459 -43.2 
L 12.795676 -43.2 
L 12.371892 -43.2 
L 11.948108 -43.2 
L 11.524324 -43.2 
L 11.100541 -43.2 
L 10.676757 -43.2 
L 10.252973 -43.2 
L 9.829189 -43.2 
L 9.405405 -43.2 
L 8.981622 -43.2 
L 8.557838 -43.2 
L 8.134054 -43.2 
L 7.71027 -43.2 
L 7.286486 -43.2 
L 6.862703 -43.2 
L 6.438919 -43.2 
L 6.015135 -43.2 
L 5.591351 -43.2 
L 5.167568 -43.2 
L 4.743784 -43.2 
L 4.32 -43.2 
z
" id="mfed2e60be1" style="stroke:#5bc0de;stroke-opacity:0.8;"/>
    </defs>
    <g clip-path="url(#p56c13b1936)">
     <use style="fill:#5bc0de;fill-opacity:0.8;stroke:#5bc0de;stroke-opacity:0.8;" x="0" xlink:href="#mfed2e60be1" y="288"/>
    </g>
   </g>
   <g id="line2d_2">
    <path clip-path="url(#p56c13b1936)" d="M 4.32 244.799995 
L 112.384865 244.69242 
L 126.793514 244.450482 
L 136.116757 244.076691 
L 142.897297 243.596146 
L 148.406486 243.002477 
L 153.068108 242.300858 
L 157.305946 241.454984 
L 161.12 240.481011 
L 164.51027 239.409902 
L 167.900541 238.109695 
L 170.867027 236.754176 
L 173.833514 235.16643 
L 176.8 233.317107 
L 179.766486 231.175572 
L 182.309189 229.083608 
L 184.851892 226.734063 
L 187.394595 224.107442 
L 189.937297 221.185042 
L 192.48 217.949449 
L 195.022703 214.385101 
L 197.565405 210.478895 
L 200.531892 205.476438 
L 203.498378 199.985891 
L 206.464865 194.006351 
L 209.431351 187.546724 
L 212.821622 179.602634 
L 216.211892 171.107436 
L 220.025946 160.98178 
L 225.111351 146.780131 
L 238.672432 108.385569 
L 242.062703 99.593208 
L 245.029189 92.464119 
L 247.571892 86.870991 
L 250.114595 81.833486 
L 252.233514 78.109398 
L 254.352432 74.854436 
L 256.047568 72.609762 
L 257.742703 70.700002 
L 259.437838 69.137372 
L 261.132973 67.931946 
L 262.404324 67.267083 
L 263.675676 66.81003 
L 264.947027 66.562465 
L 266.218378 66.525299 
L 267.48973 66.69867 
L 268.761081 67.081938 
L 270.032432 67.673696 
L 271.303784 68.471773 
L 272.998919 69.851666 
L 274.694054 71.58415 
L 276.389189 73.658096 
L 278.084324 76.060292 
L 280.203243 79.501395 
L 282.322162 83.398168 
L 284.864865 88.623191 
L 287.407568 94.380531 
L 290.374054 101.669886 
L 293.764324 110.602598 
L 298.425946 123.598674 
L 312.834595 164.349838 
L 316.648649 174.290691 
L 320.038919 182.590406 
L 323.429189 190.318318 
L 326.395676 196.577996 
L 329.362162 202.352566 
L 332.328649 207.637405 
L 335.295135 212.437127 
L 338.261622 216.764157 
L 340.804324 220.110915 
L 343.347027 223.138902 
L 345.88973 225.864962 
L 348.432432 228.307415 
L 351.398919 230.824244 
L 354.365405 233.012702 
L 357.331892 234.904233 
L 360.298378 236.529625 
L 363.264865 237.918449 
L 366.655135 239.251761 
L 370.045405 240.351129 
L 373.859459 241.351717 
L 378.097297 242.221563 
L 382.758919 242.943816 
L 388.268108 243.555633 
L 394.624865 244.026949 
L 402.676757 244.38578 
L 413.695135 244.629617 
L 427.68 244.747528 
L 427.68 244.747528 
" style="fill:none;stroke:#d2d2d2;stroke-linecap:square;stroke-width:2;"/>
   </g>
   <g id="line2d_3">
    <path clip-path="url(#p56c13b1936)" d="M 214.505788 244.8 
L 214.505788 113.76 
" style="fill:none;stroke:#f0ad4e;stroke-linecap:square;"/>
   </g>
   <g id="line2d_4">
    <path clip-path="url(#p56c13b1936)" d="M 141.289412 76.32 
L 141.289412 57.6 
" style="fill:none;stroke:#d2d2d2;stroke-linecap:square;"/>
   </g>
   <g id="line2d_5">
    <path clip-path="url(#p56c13b1936)" d="M 265.807059 76.32 
L 265.807059 57.6 
" style="fill:none;stroke:#d2d2d2;stroke-linecap:square;"/>
   </g>
   <g id="text_5">
    <!-- $\alpha$ -->
    <defs>
     <path d="M 40.921875 25.4375 
L 40.96875 36.71875 
Q 41.015625 48.25 32.328125 48.296875 
Q 25.828125 48.34375 21.78125 42.921875 
Q 16.703125 36.234375 14.984375 27.296875 
Q 12.890625 16.546875 15.53125 11.421875 
Q 18.265625 6.203125 24.171875 6.203125 
Q 30.71875 6.203125 36.234375 16.609375 
z
M 33.84375 55.90625 
Q 49.078125 56.15625 48.875 40.375 
Q 48.875 40.375 56.5 54.6875 
L 64.5 54.6875 
L 48.734375 25.046875 
L 48.578125 14.359375 
Q 48.578125 11.96875 49.90625 9.96875 
Q 51.421875 7.625 52.984375 7.625 
L 57.328125 7.625 
L 55.859375 0 
L 50.4375 0 
Q 45.84375 0 42.53125 4.109375 
Q 40.96875 6.15625 40.921875 10.453125 
Q 37.75 5.21875 32.28125 0.78125 
Q 29.6875 -1.265625 22.703125 -1.21875 
Q 11.28125 -1.125 7.125 6.203125 
Q 2.875 13.8125 5.515625 27.296875 
Q 8.34375 41.796875 15.765625 48.390625 
Q 24.125 55.765625 33.84375 55.90625 
z
" id="DejaVuSans-Oblique-3b1"/>
    </defs>
    <g style="fill:#f0ad4e;" transform="translate(209.225788 104.4)scale(0.16 -0.16)">
     <use transform="translate(0 0.84375)" xlink:href="#DejaVuSans-Oblique-3b1"/>
    </g>
   </g>
   <g id="text_6">
    <!-- Null -->
    <g style="fill:#d2d2d2;" transform="translate(127.726912 48.24)scale(0.14 -0.14)">
     <use xlink:href="#DejaVuSans-4e"/>
     <use x="74.804688" xlink:href="#DejaVuSans-75"/>
     <use x="138.183594" xlink:href="#DejaVuSans-6c"/>
     <use x="165.966797" xlink:href="#DejaVuSans-6c"/>
    </g>
   </g>
   <g id="text_7">
    <!-- Theoretical -->
    <defs>
     <path d="M 48.78125 52.59375 
L 48.78125 44.1875 
Q 44.96875 46.296875 41.140625 47.34375 
Q 37.3125 48.390625 33.40625 48.390625 
Q 24.65625 48.390625 19.8125 42.84375 
Q 14.984375 37.3125 14.984375 27.296875 
Q 14.984375 17.28125 19.8125 11.734375 
Q 24.65625 6.203125 33.40625 6.203125 
Q 37.3125 6.203125 41.140625 7.25 
Q 44.96875 8.296875 48.78125 10.40625 
L 48.78125 2.09375 
Q 45.015625 0.34375 40.984375 -0.53125 
Q 36.96875 -1.421875 32.421875 -1.421875 
Q 20.0625 -1.421875 12.78125 6.34375 
Q 5.515625 14.109375 5.515625 27.296875 
Q 5.515625 40.671875 12.859375 48.328125 
Q 20.21875 56 33.015625 56 
Q 37.15625 56 41.109375 55.140625 
Q 45.0625 54.296875 48.78125 52.59375 
" id="DejaVuSans-63"/>
    </defs>
    <g style="fill:#d2d2d2;" transform="translate(226.550184 32.563062)scale(0.14 -0.14)">
     <use xlink:href="#DejaVuSans-54"/>
     <use x="61.083984" xlink:href="#DejaVuSans-68"/>
     <use x="124.462891" xlink:href="#DejaVuSans-65"/>
     <use x="185.986328" xlink:href="#DejaVuSans-6f"/>
     <use x="247.167969" xlink:href="#DejaVuSans-72"/>
     <use x="288.25" xlink:href="#DejaVuSans-65"/>
     <use x="349.773438" xlink:href="#DejaVuSans-74"/>
     <use x="388.982422" xlink:href="#DejaVuSans-69"/>
     <use x="416.765625" xlink:href="#DejaVuSans-63"/>
     <use x="471.746094" xlink:href="#DejaVuSans-61"/>
     <use x="533.025391" xlink:href="#DejaVuSans-6c"/>
    </g>
    <!-- non-null values -->
    <defs>
     <path d="M 4.890625 31.390625 
L 31.203125 31.390625 
L 31.203125 23.390625 
L 4.890625 23.390625 
z
" id="DejaVuSans-2d"/>
    </defs>
    <g style="fill:#d2d2d2;" transform="translate(212.371903 48.24)scale(0.14 -0.14)">
     <use xlink:href="#DejaVuSans-6e"/>
     <use x="63.378906" xlink:href="#DejaVuSans-6f"/>
     <use x="124.560547" xlink:href="#DejaVuSans-6e"/>
     <use x="187.939453" xlink:href="#DejaVuSans-2d"/>
     <use x="224.023438" xlink:href="#DejaVuSans-6e"/>
     <use x="287.402344" xlink:href="#DejaVuSans-75"/>
     <use x="350.78125" xlink:href="#DejaVuSans-6c"/>
     <use x="378.564453" xlink:href="#DejaVuSans-6c"/>
     <use x="406.347656" xlink:href="#DejaVuSans-20"/>
     <use x="438.134766" xlink:href="#DejaVuSans-76"/>
     <use x="497.314453" xlink:href="#DejaVuSans-61"/>
     <use x="558.59375" xlink:href="#DejaVuSans-6c"/>
     <use x="586.376953" xlink:href="#DejaVuSans-75"/>
     <use x="649.755859" xlink:href="#DejaVuSans-65"/>
     <use x="711.279297" xlink:href="#DejaVuSans-73"/>
    </g>
   </g>
  </g>
 </g>
 <defs>
  <clipPath id="p56c13b1936">
   <rect height="187.2" width="423.36" x="4.32" y="57.6"/>
  </clipPath>
 </defs>
</svg>
