<?xml version="1.0" encoding="utf-8" standalone="no"?>
<!DOCTYPE svg PUBLIC "-//W3C//DTD SVG 1.1//EN"
  "http://www.w3.org/Graphics/SVG/1.1/DTD/svg11.dtd">
<!-- Created with matplotlib (http://matplotlib.org/) -->
<svg height="216pt" version="1.1" viewBox="0 0 648 216" width="648pt" xmlns="http://www.w3.org/2000/svg" xmlns:xlink="http://www.w3.org/1999/xlink">
 <defs>
  <style type="text/css">
*{stroke-linecap:butt;stroke-linejoin:round;}
  </style>
 </defs>
 <g id="figure_1">
  <g id="patch_1">
   <path d="M 0 216 
L 648 216 
L 648 0 
L 0 0 
z
" style="fill:none;"/>
  </g>
  <g id="axes_1">
   <g id="patch_2">
    <path d="M 12.96 179.28 
L 204.96 179.28 
L 204.96 23.76 
L 12.96 23.76 
z
" style="fill:none;"/>
   </g>
   <g id="patch_3">
    <path clip-path="url(#pb340dc8ea2)" d="M 23.79871 179.28 
L 31.927742 179.28 
L 31.927742 179.007104 
L 23.79871 179.007104 
z
" style="fill:#5bc0de;stroke:#d2d2d2;stroke-linejoin:miter;"/>
   </g>
   <g id="patch_4">
    <path clip-path="url(#pb340dc8ea2)" d="M 31.927742 179.28 
L 40.056774 179.28 
L 40.056774 178.93888 
L 31.927742 178.93888 
z
" style="fill:#5bc0de;stroke:#d2d2d2;stroke-linejoin:miter;"/>
   </g>
   <g id="patch_5">
    <path clip-path="url(#pb340dc8ea2)" d="M 40.056774 179.28 
L 48.185806 179.28 
L 48.185806 178.188416 
L 40.056774 178.188416 
z
" style="fill:#5bc0de;stroke:#d2d2d2;stroke-linejoin:miter;"/>
   </g>
   <g id="patch_6">
    <path clip-path="url(#pb340dc8ea2)" d="M 48.185806 179.28 
L 56.314839 179.28 
L 56.314839 175.937024 
L 48.185806 175.937024 
z
" style="fill:#5bc0de;stroke:#d2d2d2;stroke-linejoin:miter;"/>
   </g>
   <g id="patch_7">
    <path clip-path="url(#pb340dc8ea2)" d="M 56.314839 179.28 
L 64.443871 179.28 
L 64.443871 171.024897 
L 56.314839 171.024897 
z
" style="fill:#5bc0de;stroke:#d2d2d2;stroke-linejoin:miter;"/>
   </g>
   <g id="patch_8">
    <path clip-path="url(#pb340dc8ea2)" d="M 64.443871 179.28 
L 72.572903 179.28 
L 72.572903 162.224002 
L 64.443871 162.224002 
z
" style="fill:#5bc0de;stroke:#d2d2d2;stroke-linejoin:miter;"/>
   </g>
   <g id="patch_9">
    <path clip-path="url(#pb340dc8ea2)" d="M 72.572903 179.28 
L 80.701935 179.28 
L 80.701935 150.080132 
L 72.572903 150.080132 
z
" style="fill:#5bc0de;stroke:#d2d2d2;stroke-linejoin:miter;"/>
   </g>
   <g id="patch_10">
    <path clip-path="url(#pb340dc8ea2)" d="M 80.701935 179.28 
L 88.830968 179.28 
L 88.830968 131.796102 
L 80.701935 131.796102 
z
" style="fill:#5bc0de;stroke:#d2d2d2;stroke-linejoin:miter;"/>
   </g>
   <g id="patch_11">
    <path clip-path="url(#pb340dc8ea2)" d="M 88.830968 179.28 
L 96.96 179.28 
L 96.96 105.461641 
L 88.830968 105.461641 
z
" style="fill:#5bc0de;stroke:#d2d2d2;stroke-linejoin:miter;"/>
   </g>
   <g id="patch_12">
    <path clip-path="url(#pb340dc8ea2)" d="M 96.96 179.28 
L 105.089032 179.28 
L 105.089032 90.588811 
L 96.96 90.588811 
z
" style="fill:#5bc0de;stroke:#d2d2d2;stroke-linejoin:miter;"/>
   </g>
   <g id="patch_13">
    <path clip-path="url(#pb340dc8ea2)" d="M 105.089032 179.28 
L 113.218065 179.28 
L 113.218065 31.165714 
L 105.089032 31.165714 
z
" style="fill:#5bc0de;stroke:#d2d2d2;stroke-linejoin:miter;"/>
   </g>
   <g id="patch_14">
    <path clip-path="url(#pb340dc8ea2)" d="M 113.218065 179.28 
L 121.347097 179.28 
L 121.347097 91.543947 
L 113.218065 91.543947 
z
" style="fill:#5bc0de;stroke:#d2d2d2;stroke-linejoin:miter;"/>
   </g>
   <g id="patch_15">
    <path clip-path="url(#pb340dc8ea2)" d="M 121.347097 179.28 
L 129.476129 179.28 
L 129.476129 109.145737 
L 121.347097 109.145737 
z
" style="fill:#5bc0de;stroke:#d2d2d2;stroke-linejoin:miter;"/>
   </g>
   <g id="patch_16">
    <path clip-path="url(#pb340dc8ea2)" d="M 129.476129 179.28 
L 137.605161 179.28 
L 137.605161 128.316678 
L 129.476129 128.316678 
z
" style="fill:#5bc0de;stroke:#d2d2d2;stroke-linejoin:miter;"/>
   </g>
   <g id="patch_17">
    <path clip-path="url(#pb340dc8ea2)" d="M 137.605161 179.28 
L 145.734194 179.28 
L 145.734194 151.171715 
L 137.605161 151.171715 
z
" style="fill:#5bc0de;stroke:#d2d2d2;stroke-linejoin:miter;"/>
   </g>
   <g id="patch_18">
    <path clip-path="url(#pb340dc8ea2)" d="M 145.734194 179.28 
L 153.863226 179.28 
L 153.863226 163.793154 
L 145.734194 163.793154 
z
" style="fill:#5bc0de;stroke:#d2d2d2;stroke-linejoin:miter;"/>
   </g>
   <g id="patch_19">
    <path clip-path="url(#pb340dc8ea2)" d="M 153.863226 179.28 
L 161.992258 179.28 
L 161.992258 171.911809 
L 153.863226 171.911809 
z
" style="fill:#5bc0de;stroke:#d2d2d2;stroke-linejoin:miter;"/>
   </g>
   <g id="patch_20">
    <path clip-path="url(#pb340dc8ea2)" d="M 161.992258 179.28 
L 170.12129 179.28 
L 170.12129 176.619264 
L 161.992258 176.619264 
z
" style="fill:#5bc0de;stroke:#d2d2d2;stroke-linejoin:miter;"/>
   </g>
   <g id="patch_21">
    <path clip-path="url(#pb340dc8ea2)" d="M 170.12129 179.28 
L 178.250323 179.28 
L 178.250323 177.983744 
L 170.12129 177.983744 
z
" style="fill:#5bc0de;stroke:#d2d2d2;stroke-linejoin:miter;"/>
   </g>
   <g id="patch_22">
    <path clip-path="url(#pb340dc8ea2)" d="M 178.250323 179.28 
L 186.379355 179.28 
L 186.379355 178.461312 
L 178.250323 178.461312 
z
" style="fill:#5bc0de;stroke:#d2d2d2;stroke-linejoin:miter;"/>
   </g>
   <g id="matplotlib.axis_1">
    <g id="xtick_1">
     <g id="line2d_1">
      <defs>
       <path d="M 0 0 
L 0 4 
" id="m1d33494254" style="stroke:#d2d2d2;"/>
      </defs>
      <g>
       <use style="fill:#d2d2d2;stroke:#d2d2d2;" x="12.96" xlink:href="#m1d33494254" y="179.28"/>
      </g>
     </g>
     <g id="text_1">
      <!-- 0.3 -->
      <defs>
       <path d="M 31.78125 66.40625 
Q 24.171875 66.40625 20.328125 58.90625 
Q 16.5 51.421875 16.5 36.375 
Q 16.5 21.390625 20.328125 13.890625 
Q 24.171875 6.390625 31.78125 6.390625 
Q 39.453125 6.390625 43.28125 13.890625 
Q 47.125 21.390625 47.125 36.375 
Q 47.125 51.421875 43.28125 58.90625 
Q 39.453125 66.40625 31.78125 66.40625 
M 31.78125 74.21875 
Q 44.046875 74.21875 50.515625 64.515625 
Q 56.984375 54.828125 56.984375 36.375 
Q 56.984375 17.96875 50.515625 8.265625 
Q 44.046875 -1.421875 31.78125 -1.421875 
Q 19.53125 -1.421875 13.0625 8.265625 
Q 6.59375 17.96875 6.59375 36.375 
Q 6.59375 54.828125 13.0625 64.515625 
Q 19.53125 74.21875 31.78125 74.21875 
" id="DejaVuSans-30"/>
       <path d="M 10.6875 12.40625 
L 21 12.40625 
L 21 0 
L 10.6875 0 
z
" id="DejaVuSans-2e"/>
       <path d="M 40.578125 39.3125 
Q 47.65625 37.796875 51.625 33 
Q 55.609375 28.21875 55.609375 21.1875 
Q 55.609375 10.40625 48.1875 4.484375 
Q 40.765625 -1.421875 27.09375 -1.421875 
Q 22.515625 -1.421875 17.65625 -0.515625 
Q 12.796875 0.390625 7.625 2.203125 
L 7.625 11.71875 
Q 11.71875 9.328125 16.59375 8.109375 
Q 21.484375 6.890625 26.8125 6.890625 
Q 36.078125 6.890625 40.9375 10.546875 
Q 45.796875 14.203125 45.796875 21.1875 
Q 45.796875 27.640625 41.28125 31.265625 
Q 36.765625 34.90625 28.71875 34.90625 
L 20.21875 34.90625 
L 20.21875 43.015625 
L 29.109375 43.015625 
Q 36.375 43.015625 40.234375 45.921875 
Q 44.09375 48.828125 44.09375 54.296875 
Q 44.09375 59.90625 40.109375 62.90625 
Q 36.140625 65.921875 28.71875 65.921875 
Q 24.65625 65.921875 20.015625 65.03125 
Q 15.375 64.15625 9.8125 62.3125 
L 9.8125 71.09375 
Q 15.4375 72.65625 20.34375 73.4375 
Q 25.25 74.21875 29.59375 74.21875 
Q 40.828125 74.21875 47.359375 69.109375 
Q 53.90625 64.015625 53.90625 55.328125 
Q 53.90625 49.265625 50.4375 45.09375 
Q 46.96875 40.921875 40.578125 39.3125 
" id="DejaVuSans-33"/>
      </defs>
      <g style="fill:#d2d2d2;" transform="translate(2.622969 197.157969)scale(0.13 -0.13)">
       <use xlink:href="#DejaVuSans-30"/>
       <use x="63.623047" xlink:href="#DejaVuSans-2e"/>
       <use x="95.410156" xlink:href="#DejaVuSans-33"/>
      </g>
     </g>
    </g>
    <g id="xtick_2">
     <g id="line2d_2">
      <g>
       <use style="fill:#d2d2d2;stroke:#d2d2d2;" x="60.96" xlink:href="#m1d33494254" y="179.28"/>
      </g>
     </g>
     <g id="text_2">
      <!-- 0.4 -->
      <defs>
       <path d="M 37.796875 64.3125 
L 12.890625 25.390625 
L 37.796875 25.390625 
z
M 35.203125 72.90625 
L 47.609375 72.90625 
L 47.609375 25.390625 
L 58.015625 25.390625 
L 58.015625 17.1875 
L 47.609375 17.1875 
L 47.609375 0 
L 37.796875 0 
L 37.796875 17.1875 
L 4.890625 17.1875 
L 4.890625 26.703125 
z
" id="DejaVuSans-34"/>
      </defs>
      <g style="fill:#d2d2d2;" transform="translate(50.622969 197.157969)scale(0.13 -0.13)">
       <use xlink:href="#DejaVuSans-30"/>
       <use x="63.623047" xlink:href="#DejaVuSans-2e"/>
       <use x="95.410156" xlink:href="#DejaVuSans-34"/>
      </g>
     </g>
    </g>
    <g id="xtick_3">
     <g id="line2d_3">
      <g>
       <use style="fill:#d2d2d2;stroke:#d2d2d2;" x="108.96" xlink:href="#m1d33494254" y="179.28"/>
      </g>
     </g>
     <g id="text_3">
      <!-- 0.5 -->
      <defs>
       <path d="M 10.796875 72.90625 
L 49.515625 72.90625 
L 49.515625 64.59375 
L 19.828125 64.59375 
L 19.828125 46.734375 
Q 21.96875 47.46875 24.109375 47.828125 
Q 26.265625 48.1875 28.421875 48.1875 
Q 40.625 48.1875 47.75 41.5 
Q 54.890625 34.8125 54.890625 23.390625 
Q 54.890625 11.625 47.5625 5.09375 
Q 40.234375 -1.421875 26.90625 -1.421875 
Q 22.3125 -1.421875 17.546875 -0.640625 
Q 12.796875 0.140625 7.71875 1.703125 
L 7.71875 11.625 
Q 12.109375 9.234375 16.796875 8.0625 
Q 21.484375 6.890625 26.703125 6.890625 
Q 35.15625 6.890625 40.078125 11.328125 
Q 45.015625 15.765625 45.015625 23.390625 
Q 45.015625 31 40.078125 35.4375 
Q 35.15625 39.890625 26.703125 39.890625 
Q 22.75 39.890625 18.8125 39.015625 
Q 14.890625 38.140625 10.796875 36.28125 
z
" id="DejaVuSans-35"/>
      </defs>
      <g style="fill:#d2d2d2;" transform="translate(98.622969 197.157969)scale(0.13 -0.13)">
       <use xlink:href="#DejaVuSans-30"/>
       <use x="63.623047" xlink:href="#DejaVuSans-2e"/>
       <use x="95.410156" xlink:href="#DejaVuSans-35"/>
      </g>
     </g>
    </g>
    <g id="xtick_4">
     <g id="line2d_4">
      <g>
       <use style="fill:#d2d2d2;stroke:#d2d2d2;" x="156.96" xlink:href="#m1d33494254" y="179.28"/>
      </g>
     </g>
     <g id="text_4">
      <!-- 0.6 -->
      <defs>
       <path d="M 33.015625 40.375 
Q 26.375 40.375 22.484375 35.828125 
Q 18.609375 31.296875 18.609375 23.390625 
Q 18.609375 15.53125 22.484375 10.953125 
Q 26.375 6.390625 33.015625 6.390625 
Q 39.65625 6.390625 43.53125 10.953125 
Q 47.40625 15.53125 47.40625 23.390625 
Q 47.40625 31.296875 43.53125 35.828125 
Q 39.65625 40.375 33.015625 40.375 
M 52.59375 71.296875 
L 52.59375 62.3125 
Q 48.875 64.0625 45.09375 64.984375 
Q 41.3125 65.921875 37.59375 65.921875 
Q 27.828125 65.921875 22.671875 59.328125 
Q 17.53125 52.734375 16.796875 39.40625 
Q 19.671875 43.65625 24.015625 45.921875 
Q 28.375 48.1875 33.59375 48.1875 
Q 44.578125 48.1875 50.953125 41.515625 
Q 57.328125 34.859375 57.328125 23.390625 
Q 57.328125 12.15625 50.6875 5.359375 
Q 44.046875 -1.421875 33.015625 -1.421875 
Q 20.359375 -1.421875 13.671875 8.265625 
Q 6.984375 17.96875 6.984375 36.375 
Q 6.984375 53.65625 15.1875 63.9375 
Q 23.390625 74.21875 37.203125 74.21875 
Q 40.921875 74.21875 44.703125 73.484375 
Q 48.484375 72.75 52.59375 71.296875 
" id="DejaVuSans-36"/>
      </defs>
      <g style="fill:#d2d2d2;" transform="translate(146.622969 197.157969)scale(0.13 -0.13)">
       <use xlink:href="#DejaVuSans-30"/>
       <use x="63.623047" xlink:href="#DejaVuSans-2e"/>
       <use x="95.410156" xlink:href="#DejaVuSans-36"/>
      </g>
     </g>
    </g>
    <g id="xtick_5">
     <g id="line2d_5">
      <g>
       <use style="fill:#d2d2d2;stroke:#d2d2d2;" x="204.96" xlink:href="#m1d33494254" y="179.28"/>
      </g>
     </g>
     <g id="text_5">
      <!-- 0.7 -->
      <defs>
       <path d="M 8.203125 72.90625 
L 55.078125 72.90625 
L 55.078125 68.703125 
L 28.609375 0 
L 18.3125 0 
L 43.21875 64.59375 
L 8.203125 64.59375 
z
" id="DejaVuSans-37"/>
      </defs>
      <g style="fill:#d2d2d2;" transform="translate(194.622969 197.157969)scale(0.13 -0.13)">
       <use xlink:href="#DejaVuSans-30"/>
       <use x="63.623047" xlink:href="#DejaVuSans-2e"/>
       <use x="95.410156" xlink:href="#DejaVuSans-37"/>
      </g>
     </g>
    </g>
    <g id="text_6">
     <!-- Proportion of UCLA wins -->
     <defs>
      <path d="M 19.671875 64.796875 
L 19.671875 37.40625 
L 32.078125 37.40625 
Q 38.96875 37.40625 42.71875 40.96875 
Q 46.484375 44.53125 46.484375 51.125 
Q 46.484375 57.671875 42.71875 61.234375 
Q 38.96875 64.796875 32.078125 64.796875 
z
M 9.8125 72.90625 
L 32.078125 72.90625 
Q 44.34375 72.90625 50.609375 67.359375 
Q 56.890625 61.8125 56.890625 51.125 
Q 56.890625 40.328125 50.609375 34.8125 
Q 44.34375 29.296875 32.078125 29.296875 
L 19.671875 29.296875 
L 19.671875 0 
L 9.8125 0 
z
" id="DejaVuSans-50"/>
      <path d="M 41.109375 46.296875 
Q 39.59375 47.171875 37.8125 47.578125 
Q 36.03125 48 33.890625 48 
Q 26.265625 48 22.1875 43.046875 
Q 18.109375 38.09375 18.109375 28.8125 
L 18.109375 0 
L 9.078125 0 
L 9.078125 54.6875 
L 18.109375 54.6875 
L 18.109375 46.1875 
Q 20.953125 51.171875 25.484375 53.578125 
Q 30.03125 56 36.53125 56 
Q 37.453125 56 38.578125 55.875 
Q 39.703125 55.765625 41.0625 55.515625 
z
" id="DejaVuSans-72"/>
      <path d="M 30.609375 48.390625 
Q 23.390625 48.390625 19.1875 42.75 
Q 14.984375 37.109375 14.984375 27.296875 
Q 14.984375 17.484375 19.15625 11.84375 
Q 23.34375 6.203125 30.609375 6.203125 
Q 37.796875 6.203125 41.984375 11.859375 
Q 46.1875 17.53125 46.1875 27.296875 
Q 46.1875 37.015625 41.984375 42.703125 
Q 37.796875 48.390625 30.609375 48.390625 
M 30.609375 56 
Q 42.328125 56 49.015625 48.375 
Q 55.71875 40.765625 55.71875 27.296875 
Q 55.71875 13.875 49.015625 6.21875 
Q 42.328125 -1.421875 30.609375 -1.421875 
Q 18.84375 -1.421875 12.171875 6.21875 
Q 5.515625 13.875 5.515625 27.296875 
Q 5.515625 40.765625 12.171875 48.375 
Q 18.84375 56 30.609375 56 
" id="DejaVuSans-6f"/>
      <path d="M 18.109375 8.203125 
L 18.109375 -20.796875 
L 9.078125 -20.796875 
L 9.078125 54.6875 
L 18.109375 54.6875 
L 18.109375 46.390625 
Q 20.953125 51.265625 25.265625 53.625 
Q 29.59375 56 35.59375 56 
Q 45.5625 56 51.78125 48.09375 
Q 58.015625 40.1875 58.015625 27.296875 
Q 58.015625 14.40625 51.78125 6.484375 
Q 45.5625 -1.421875 35.59375 -1.421875 
Q 29.59375 -1.421875 25.265625 0.953125 
Q 20.953125 3.328125 18.109375 8.203125 
M 48.6875 27.296875 
Q 48.6875 37.203125 44.609375 42.84375 
Q 40.53125 48.484375 33.40625 48.484375 
Q 26.265625 48.484375 22.1875 42.84375 
Q 18.109375 37.203125 18.109375 27.296875 
Q 18.109375 17.390625 22.1875 11.75 
Q 26.265625 6.109375 33.40625 6.109375 
Q 40.53125 6.109375 44.609375 11.75 
Q 48.6875 17.390625 48.6875 27.296875 
" id="DejaVuSans-70"/>
      <path d="M 18.3125 70.21875 
L 18.3125 54.6875 
L 36.8125 54.6875 
L 36.8125 47.703125 
L 18.3125 47.703125 
L 18.3125 18.015625 
Q 18.3125 11.328125 20.140625 9.421875 
Q 21.96875 7.515625 27.59375 7.515625 
L 36.8125 7.515625 
L 36.8125 0 
L 27.59375 0 
Q 17.1875 0 13.234375 3.875 
Q 9.28125 7.765625 9.28125 18.015625 
L 9.28125 47.703125 
L 2.6875 47.703125 
L 2.6875 54.6875 
L 9.28125 54.6875 
L 9.28125 70.21875 
z
" id="DejaVuSans-74"/>
      <path d="M 9.421875 54.6875 
L 18.40625 54.6875 
L 18.40625 0 
L 9.421875 0 
z
M 9.421875 75.984375 
L 18.40625 75.984375 
L 18.40625 64.59375 
L 9.421875 64.59375 
z
" id="DejaVuSans-69"/>
      <path d="M 54.890625 33.015625 
L 54.890625 0 
L 45.90625 0 
L 45.90625 32.71875 
Q 45.90625 40.484375 42.875 44.328125 
Q 39.84375 48.1875 33.796875 48.1875 
Q 26.515625 48.1875 22.3125 43.546875 
Q 18.109375 38.921875 18.109375 30.90625 
L 18.109375 0 
L 9.078125 0 
L 9.078125 54.6875 
L 18.109375 54.6875 
L 18.109375 46.1875 
Q 21.34375 51.125 25.703125 53.5625 
Q 30.078125 56 35.796875 56 
Q 45.21875 56 50.046875 50.171875 
Q 54.890625 44.34375 54.890625 33.015625 
" id="DejaVuSans-6e"/>
      <path id="DejaVuSans-20"/>
      <path d="M 37.109375 75.984375 
L 37.109375 68.5 
L 28.515625 68.5 
Q 23.6875 68.5 21.796875 66.546875 
Q 19.921875 64.59375 19.921875 59.515625 
L 19.921875 54.6875 
L 34.71875 54.6875 
L 34.71875 47.703125 
L 19.921875 47.703125 
L 19.921875 0 
L 10.890625 0 
L 10.890625 47.703125 
L 2.296875 47.703125 
L 2.296875 54.6875 
L 10.890625 54.6875 
L 10.890625 58.5 
Q 10.890625 67.625 15.140625 71.796875 
Q 19.390625 75.984375 28.609375 75.984375 
z
" id="DejaVuSans-66"/>
      <path d="M 8.6875 72.90625 
L 18.609375 72.90625 
L 18.609375 28.609375 
Q 18.609375 16.890625 22.84375 11.734375 
Q 27.09375 6.59375 36.625 6.59375 
Q 46.09375 6.59375 50.34375 11.734375 
Q 54.59375 16.890625 54.59375 28.609375 
L 54.59375 72.90625 
L 64.5 72.90625 
L 64.5 27.390625 
Q 64.5 13.140625 57.4375 5.859375 
Q 50.390625 -1.421875 36.625 -1.421875 
Q 22.796875 -1.421875 15.734375 5.859375 
Q 8.6875 13.140625 8.6875 27.390625 
z
" id="DejaVuSans-55"/>
      <path d="M 64.40625 67.28125 
L 64.40625 56.890625 
Q 59.421875 61.53125 53.78125 63.8125 
Q 48.140625 66.109375 41.796875 66.109375 
Q 29.296875 66.109375 22.65625 58.46875 
Q 16.015625 50.828125 16.015625 36.375 
Q 16.015625 21.96875 22.65625 14.328125 
Q 29.296875 6.6875 41.796875 6.6875 
Q 48.140625 6.6875 53.78125 8.984375 
Q 59.421875 11.28125 64.40625 15.921875 
L 64.40625 5.609375 
Q 59.234375 2.09375 53.4375 0.328125 
Q 47.65625 -1.421875 41.21875 -1.421875 
Q 24.65625 -1.421875 15.125 8.703125 
Q 5.609375 18.84375 5.609375 36.375 
Q 5.609375 53.953125 15.125 64.078125 
Q 24.65625 74.21875 41.21875 74.21875 
Q 47.75 74.21875 53.53125 72.484375 
Q 59.328125 70.75 64.40625 67.28125 
" id="DejaVuSans-43"/>
      <path d="M 9.8125 72.90625 
L 19.671875 72.90625 
L 19.671875 8.296875 
L 55.171875 8.296875 
L 55.171875 0 
L 9.8125 0 
z
" id="DejaVuSans-4c"/>
      <path d="M 34.1875 63.1875 
L 20.796875 26.90625 
L 47.609375 26.90625 
z
M 28.609375 72.90625 
L 39.796875 72.90625 
L 67.578125 0 
L 57.328125 0 
L 50.6875 18.703125 
L 17.828125 18.703125 
L 11.1875 0 
L 0.78125 0 
z
" id="DejaVuSans-41"/>
      <path d="M 4.203125 54.6875 
L 13.1875 54.6875 
L 24.421875 12.015625 
L 35.59375 54.6875 
L 46.1875 54.6875 
L 57.421875 12.015625 
L 68.609375 54.6875 
L 77.59375 54.6875 
L 63.28125 0 
L 52.6875 0 
L 40.921875 44.828125 
L 29.109375 0 
L 18.5 0 
z
" id="DejaVuSans-77"/>
      <path d="M 44.28125 53.078125 
L 44.28125 44.578125 
Q 40.484375 46.53125 36.375 47.5 
Q 32.28125 48.484375 27.875 48.484375 
Q 21.1875 48.484375 17.84375 46.4375 
Q 14.5 44.390625 14.5 40.28125 
Q 14.5 37.15625 16.890625 35.375 
Q 19.28125 33.59375 26.515625 31.984375 
L 29.59375 31.296875 
Q 39.15625 29.25 43.1875 25.515625 
Q 47.21875 21.78125 47.21875 15.09375 
Q 47.21875 7.46875 41.1875 3.015625 
Q 35.15625 -1.421875 24.609375 -1.421875 
Q 20.21875 -1.421875 15.453125 -0.5625 
Q 10.6875 0.296875 5.421875 2 
L 5.421875 11.28125 
Q 10.40625 8.6875 15.234375 7.390625 
Q 20.0625 6.109375 24.8125 6.109375 
Q 31.15625 6.109375 34.5625 8.28125 
Q 37.984375 10.453125 37.984375 14.40625 
Q 37.984375 18.0625 35.515625 20.015625 
Q 33.0625 21.96875 24.703125 23.78125 
L 21.578125 24.515625 
Q 13.234375 26.265625 9.515625 29.90625 
Q 5.8125 33.546875 5.8125 39.890625 
Q 5.8125 47.609375 11.28125 51.796875 
Q 16.75 56 26.8125 56 
Q 31.78125 56 36.171875 55.265625 
Q 40.578125 54.546875 44.28125 53.078125 
" id="DejaVuSans-73"/>
     </defs>
     <g style="fill:#d2d2d2;" transform="translate(24.693125 214.499375)scale(0.14 -0.14)">
      <use xlink:href="#DejaVuSans-50"/>
      <use x="60.287109" xlink:href="#DejaVuSans-72"/>
      <use x="101.369141" xlink:href="#DejaVuSans-6f"/>
      <use x="162.550781" xlink:href="#DejaVuSans-70"/>
      <use x="226.027344" xlink:href="#DejaVuSans-6f"/>
      <use x="287.208984" xlink:href="#DejaVuSans-72"/>
      <use x="328.322266" xlink:href="#DejaVuSans-74"/>
      <use x="367.53125" xlink:href="#DejaVuSans-69"/>
      <use x="395.314453" xlink:href="#DejaVuSans-6f"/>
      <use x="456.496094" xlink:href="#DejaVuSans-6e"/>
      <use x="519.875" xlink:href="#DejaVuSans-20"/>
      <use x="551.662109" xlink:href="#DejaVuSans-6f"/>
      <use x="612.84375" xlink:href="#DejaVuSans-66"/>
      <use x="648.048828" xlink:href="#DejaVuSans-20"/>
      <use x="679.835938" xlink:href="#DejaVuSans-55"/>
      <use x="753.029297" xlink:href="#DejaVuSans-43"/>
      <use x="822.853516" xlink:href="#DejaVuSans-4c"/>
      <use x="878.597656" xlink:href="#DejaVuSans-41"/>
      <use x="947.005859" xlink:href="#DejaVuSans-20"/>
      <use x="978.792969" xlink:href="#DejaVuSans-77"/>
      <use x="1060.580078" xlink:href="#DejaVuSans-69"/>
      <use x="1088.363281" xlink:href="#DejaVuSans-6e"/>
      <use x="1151.742188" xlink:href="#DejaVuSans-73"/>
     </g>
    </g>
   </g>
   <g id="matplotlib.axis_2"/>
   <g id="line2d_6">
    <path clip-path="url(#pb340dc8ea2)" d="M 138.839518 179.28 
L 138.839518 51.7536 
" style="fill:none;stroke:#d9534f;stroke-dasharray:5.6,2.4;stroke-dashoffset:0;stroke-width:1.5;"/>
   </g>
   <g id="patch_23">
    <path d="M 12.96 179.28 
L 204.96 179.28 
" style="fill:none;stroke:#d2d2d2;stroke-linecap:square;stroke-linejoin:miter;"/>
   </g>
   <g id="text_7">
    <!-- $\hat{p}=0.562$ -->
    <defs>
     <path d="M -28.609375 79.984375 
L -21.390625 79.984375 
L -9.421875 61.625 
L -16.21875 61.625 
L -25 73.578125 
L -33.796875 61.625 
L -40.578125 61.625 
z
M -25 56 
z
" id="DejaVuSans-302"/>
     <path d="M 49.609375 33.6875 
Q 49.609375 40.875 46.484375 44.671875 
Q 43.359375 48.484375 37.5 48.484375 
Q 33.5 48.484375 29.859375 46.4375 
Q 26.21875 44.390625 23.390625 40.484375 
Q 20.609375 36.625 18.9375 31.15625 
Q 17.28125 25.6875 17.28125 20.3125 
Q 17.28125 13.484375 20.40625 9.796875 
Q 23.53125 6.109375 29.296875 6.109375 
Q 33.546875 6.109375 37.1875 8.109375 
Q 40.828125 10.109375 43.40625 13.921875 
Q 46.1875 17.921875 47.890625 23.34375 
Q 49.609375 28.765625 49.609375 33.6875 
M 21.78125 46.390625 
Q 25.390625 51.125 30.296875 53.5625 
Q 35.203125 56 41.21875 56 
Q 49.609375 56 54.25 50.5 
Q 58.890625 45.015625 58.890625 35.109375 
Q 58.890625 27 56 19.65625 
Q 53.125 12.3125 47.703125 6.5 
Q 44.09375 2.640625 39.546875 0.609375 
Q 35.015625 -1.421875 29.984375 -1.421875 
Q 24.171875 -1.421875 20.21875 1 
Q 16.265625 3.421875 14.3125 8.203125 
L 8.6875 -20.796875 
L -0.296875 -20.796875 
L 14.40625 54.6875 
L 23.390625 54.6875 
z
" id="DejaVuSans-Oblique-70"/>
     <path d="M 10.59375 45.40625 
L 73.1875 45.40625 
L 73.1875 37.203125 
L 10.59375 37.203125 
z
M 10.59375 25.484375 
L 73.1875 25.484375 
L 73.1875 17.1875 
L 10.59375 17.1875 
z
" id="DejaVuSans-3d"/>
     <path d="M 19.1875 8.296875 
L 53.609375 8.296875 
L 53.609375 0 
L 7.328125 0 
L 7.328125 8.296875 
Q 12.9375 14.109375 22.625 23.890625 
Q 32.328125 33.6875 34.8125 36.53125 
Q 39.546875 41.84375 41.421875 45.53125 
Q 43.3125 49.21875 43.3125 52.78125 
Q 43.3125 58.59375 39.234375 62.25 
Q 35.15625 65.921875 28.609375 65.921875 
Q 23.96875 65.921875 18.8125 64.3125 
Q 13.671875 62.703125 7.8125 59.421875 
L 7.8125 69.390625 
Q 13.765625 71.78125 18.9375 73 
Q 24.125 74.21875 28.421875 74.21875 
Q 39.75 74.21875 46.484375 68.546875 
Q 53.21875 62.890625 53.21875 53.421875 
Q 53.21875 48.921875 51.53125 44.890625 
Q 49.859375 40.875 45.40625 35.40625 
Q 44.1875 33.984375 37.640625 27.21875 
Q 31.109375 20.453125 19.1875 8.296875 
" id="DejaVuSans-32"/>
    </defs>
    <g style="fill:#d9534f;" transform="translate(129.239518 39.312)scale(0.12 -0.12)">
     <use transform="translate(64.447266 13.015625)" xlink:href="#DejaVuSans-302"/>
     <use transform="translate(0 0.515625)" xlink:href="#DejaVuSans-Oblique-70"/>
     <use transform="translate(82.958984 0.515625)" xlink:href="#DejaVuSans-3d"/>
     <use transform="translate(186.230469 0.515625)" xlink:href="#DejaVuSans-30"/>
     <use transform="translate(249.853516 0.515625)" xlink:href="#DejaVuSans-2e"/>
     <use transform="translate(281.640625 0.515625)" xlink:href="#DejaVuSans-35"/>
     <use transform="translate(345.263672 0.515625)" xlink:href="#DejaVuSans-36"/>
     <use transform="translate(408.886719 0.515625)" xlink:href="#DejaVuSans-32"/>
    </g>
   </g>
   <g id="text_8">
    <!-- 10000 simulations -->
    <defs>
     <path d="M 12.40625 8.296875 
L 28.515625 8.296875 
L 28.515625 63.921875 
L 10.984375 60.40625 
L 10.984375 69.390625 
L 28.421875 72.90625 
L 38.28125 72.90625 
L 38.28125 8.296875 
L 54.390625 8.296875 
L 54.390625 0 
L 12.40625 0 
z
" id="DejaVuSans-31"/>
     <path d="M 52 44.1875 
Q 55.375 50.25 60.0625 53.125 
Q 64.75 56 71.09375 56 
Q 79.640625 56 84.28125 50.015625 
Q 88.921875 44.046875 88.921875 33.015625 
L 88.921875 0 
L 79.890625 0 
L 79.890625 32.71875 
Q 79.890625 40.578125 77.09375 44.375 
Q 74.3125 48.1875 68.609375 48.1875 
Q 61.625 48.1875 57.5625 43.546875 
Q 53.515625 38.921875 53.515625 30.90625 
L 53.515625 0 
L 44.484375 0 
L 44.484375 32.71875 
Q 44.484375 40.625 41.703125 44.40625 
Q 38.921875 48.1875 33.109375 48.1875 
Q 26.21875 48.1875 22.15625 43.53125 
Q 18.109375 38.875 18.109375 30.90625 
L 18.109375 0 
L 9.078125 0 
L 9.078125 54.6875 
L 18.109375 54.6875 
L 18.109375 46.1875 
Q 21.1875 51.21875 25.484375 53.609375 
Q 29.78125 56 35.6875 56 
Q 41.65625 56 45.828125 52.96875 
Q 50 49.953125 52 44.1875 
" id="DejaVuSans-6d"/>
     <path d="M 8.5 21.578125 
L 8.5 54.6875 
L 17.484375 54.6875 
L 17.484375 21.921875 
Q 17.484375 14.15625 20.5 10.265625 
Q 23.53125 6.390625 29.59375 6.390625 
Q 36.859375 6.390625 41.078125 11.03125 
Q 45.3125 15.671875 45.3125 23.6875 
L 45.3125 54.6875 
L 54.296875 54.6875 
L 54.296875 0 
L 45.3125 0 
L 45.3125 8.40625 
Q 42.046875 3.421875 37.71875 1 
Q 33.40625 -1.421875 27.6875 -1.421875 
Q 18.265625 -1.421875 13.375 4.4375 
Q 8.5 10.296875 8.5 21.578125 
M 31.109375 56 
z
" id="DejaVuSans-75"/>
     <path d="M 9.421875 75.984375 
L 18.40625 75.984375 
L 18.40625 0 
L 9.421875 0 
z
" id="DejaVuSans-6c"/>
     <path d="M 34.28125 27.484375 
Q 23.390625 27.484375 19.1875 25 
Q 14.984375 22.515625 14.984375 16.5 
Q 14.984375 11.71875 18.140625 8.90625 
Q 21.296875 6.109375 26.703125 6.109375 
Q 34.1875 6.109375 38.703125 11.40625 
Q 43.21875 16.703125 43.21875 25.484375 
L 43.21875 27.484375 
z
M 52.203125 31.203125 
L 52.203125 0 
L 43.21875 0 
L 43.21875 8.296875 
Q 40.140625 3.328125 35.546875 0.953125 
Q 30.953125 -1.421875 24.3125 -1.421875 
Q 15.921875 -1.421875 10.953125 3.296875 
Q 6 8.015625 6 15.921875 
Q 6 25.140625 12.171875 29.828125 
Q 18.359375 34.515625 30.609375 34.515625 
L 43.21875 34.515625 
L 43.21875 35.40625 
Q 43.21875 41.609375 39.140625 45 
Q 35.0625 48.390625 27.6875 48.390625 
Q 23 48.390625 18.546875 47.265625 
Q 14.109375 46.140625 10.015625 43.890625 
L 10.015625 52.203125 
Q 14.9375 54.109375 19.578125 55.046875 
Q 24.21875 56 28.609375 56 
Q 40.484375 56 46.34375 49.84375 
Q 52.203125 43.703125 52.203125 31.203125 
" id="DejaVuSans-61"/>
    </defs>
    <g style="fill:#5bc0de;" transform="translate(12.96 10.322625)scale(0.12 -0.12)">
     <use xlink:href="#DejaVuSans-31"/>
     <use x="63.623047" xlink:href="#DejaVuSans-30"/>
     <use x="127.246094" xlink:href="#DejaVuSans-30"/>
     <use x="190.869141" xlink:href="#DejaVuSans-30"/>
     <use x="254.492188" xlink:href="#DejaVuSans-30"/>
     <use x="318.115234" xlink:href="#DejaVuSans-20"/>
     <use x="349.902344" xlink:href="#DejaVuSans-73"/>
     <use x="402.001953" xlink:href="#DejaVuSans-69"/>
     <use x="429.785156" xlink:href="#DejaVuSans-6d"/>
     <use x="527.197266" xlink:href="#DejaVuSans-75"/>
     <use x="590.576172" xlink:href="#DejaVuSans-6c"/>
     <use x="618.359375" xlink:href="#DejaVuSans-61"/>
     <use x="679.638672" xlink:href="#DejaVuSans-74"/>
     <use x="718.847656" xlink:href="#DejaVuSans-69"/>
     <use x="746.630859" xlink:href="#DejaVuSans-6f"/>
     <use x="807.8125" xlink:href="#DejaVuSans-6e"/>
     <use x="871.191406" xlink:href="#DejaVuSans-73"/>
    </g>
    <!-- of        games -->
    <defs>
     <path d="M 45.40625 27.984375 
Q 45.40625 37.75 41.375 43.109375 
Q 37.359375 48.484375 30.078125 48.484375 
Q 22.859375 48.484375 18.828125 43.109375 
Q 14.796875 37.75 14.796875 27.984375 
Q 14.796875 18.265625 18.828125 12.890625 
Q 22.859375 7.515625 30.078125 7.515625 
Q 37.359375 7.515625 41.375 12.890625 
Q 45.40625 18.265625 45.40625 27.984375 
M 54.390625 6.78125 
Q 54.390625 -7.171875 48.1875 -13.984375 
Q 42 -20.796875 29.203125 -20.796875 
Q 24.46875 -20.796875 20.265625 -20.09375 
Q 16.0625 -19.390625 12.109375 -17.921875 
L 12.109375 -9.1875 
Q 16.0625 -11.328125 19.921875 -12.34375 
Q 23.78125 -13.375 27.78125 -13.375 
Q 36.625 -13.375 41.015625 -8.765625 
Q 45.40625 -4.15625 45.40625 5.171875 
L 45.40625 9.625 
Q 42.625 4.78125 38.28125 2.390625 
Q 33.9375 0 27.875 0 
Q 17.828125 0 11.671875 7.65625 
Q 5.515625 15.328125 5.515625 27.984375 
Q 5.515625 40.671875 11.671875 48.328125 
Q 17.828125 56 27.875 56 
Q 33.9375 56 38.28125 53.609375 
Q 42.625 51.21875 45.40625 46.390625 
L 45.40625 54.6875 
L 54.390625 54.6875 
z
" id="DejaVuSans-67"/>
     <path d="M 56.203125 29.59375 
L 56.203125 25.203125 
L 14.890625 25.203125 
Q 15.484375 15.921875 20.484375 11.0625 
Q 25.484375 6.203125 34.421875 6.203125 
Q 39.59375 6.203125 44.453125 7.46875 
Q 49.3125 8.734375 54.109375 11.28125 
L 54.109375 2.78125 
Q 49.265625 0.734375 44.1875 -0.34375 
Q 39.109375 -1.421875 33.890625 -1.421875 
Q 20.796875 -1.421875 13.15625 6.1875 
Q 5.515625 13.8125 5.515625 26.8125 
Q 5.515625 40.234375 12.765625 48.109375 
Q 20.015625 56 32.328125 56 
Q 43.359375 56 49.78125 48.890625 
Q 56.203125 41.796875 56.203125 29.59375 
M 47.21875 32.234375 
Q 47.125 39.59375 43.09375 43.984375 
Q 39.0625 48.390625 32.421875 48.390625 
Q 24.90625 48.390625 20.390625 44.140625 
Q 15.875 39.890625 15.1875 32.171875 
z
" id="DejaVuSans-65"/>
    </defs>
    <g style="fill:#5bc0de;" transform="translate(12.96 23.76)scale(0.12 -0.12)">
     <use xlink:href="#DejaVuSans-6f"/>
     <use x="61.181641" xlink:href="#DejaVuSans-66"/>
     <use x="96.386719" xlink:href="#DejaVuSans-20"/>
     <use x="128.173828" xlink:href="#DejaVuSans-20"/>
     <use x="159.960938" xlink:href="#DejaVuSans-20"/>
     <use x="191.748047" xlink:href="#DejaVuSans-20"/>
     <use x="223.535156" xlink:href="#DejaVuSans-20"/>
     <use x="255.322266" xlink:href="#DejaVuSans-20"/>
     <use x="287.109375" xlink:href="#DejaVuSans-20"/>
     <use x="318.896484" xlink:href="#DejaVuSans-20"/>
     <use x="350.683594" xlink:href="#DejaVuSans-67"/>
     <use x="414.160156" xlink:href="#DejaVuSans-61"/>
     <use x="475.439453" xlink:href="#DejaVuSans-6d"/>
     <use x="572.851562" xlink:href="#DejaVuSans-65"/>
     <use x="634.375" xlink:href="#DejaVuSans-73"/>
    </g>
   </g>
   <g id="text_9">
    <!-- 124 -->
    <g style="fill:#f0ad4e;" transform="translate(29.76 23.76)scale(0.12 -0.12)">
     <use xlink:href="#DejaVuSans-31"/>
     <use x="63.623047" xlink:href="#DejaVuSans-32"/>
     <use x="127.246094" xlink:href="#DejaVuSans-34"/>
    </g>
   </g>
  </g>
  <g id="axes_2">
   <g id="patch_24">
    <path d="M 228 179.28 
L 420 179.28 
L 420 23.76 
L 228 23.76 
z
" style="fill:none;"/>
   </g>
   <g id="patch_25">
    <path clip-path="url(#pa3b496362f)" d="M 261.349398 179.28 
L 267.518072 179.28 
L 267.518072 179.050128 
L 261.349398 179.050128 
z
" style="fill:#5bc0de;stroke:#d2d2d2;stroke-linejoin:miter;"/>
   </g>
   <g id="patch_26">
    <path clip-path="url(#pa3b496362f)" d="M 267.518072 179.28 
L 273.686747 179.28 
L 273.686747 179.203376 
L 267.518072 179.203376 
z
" style="fill:#5bc0de;stroke:#d2d2d2;stroke-linejoin:miter;"/>
   </g>
   <g id="patch_27">
    <path clip-path="url(#pa3b496362f)" d="M 273.686747 179.28 
L 279.855422 179.28 
L 279.855422 178.437135 
L 273.686747 178.437135 
z
" style="fill:#5bc0de;stroke:#d2d2d2;stroke-linejoin:miter;"/>
   </g>
   <g id="patch_28">
    <path clip-path="url(#pa3b496362f)" d="M 279.855422 179.28 
L 286.024096 179.28 
L 286.024096 175.602046 
L 279.855422 175.602046 
z
" style="fill:#5bc0de;stroke:#d2d2d2;stroke-linejoin:miter;"/>
   </g>
   <g id="patch_29">
    <path clip-path="url(#pa3b496362f)" d="M 286.024096 179.28 
L 292.192771 179.28 
L 292.192771 171.081227 
L 286.024096 171.081227 
z
" style="fill:#5bc0de;stroke:#d2d2d2;stroke-linejoin:miter;"/>
   </g>
   <g id="patch_30">
    <path clip-path="url(#pa3b496362f)" d="M 292.192771 179.28 
L 298.361446 179.28 
L 298.361446 152.231711 
L 292.192771 152.231711 
z
" style="fill:#5bc0de;stroke:#d2d2d2;stroke-linejoin:miter;"/>
   </g>
   <g id="patch_31">
    <path clip-path="url(#pa3b496362f)" d="M 298.361446 179.28 
L 304.53012 179.28 
L 304.53012 138.822502 
L 298.361446 138.822502 
z
" style="fill:#5bc0de;stroke:#d2d2d2;stroke-linejoin:miter;"/>
   </g>
   <g id="patch_32">
    <path clip-path="url(#pa3b496362f)" d="M 304.53012 179.28 
L 310.698795 179.28 
L 310.698795 112.540454 
L 304.53012 112.540454 
z
" style="fill:#5bc0de;stroke:#d2d2d2;stroke-linejoin:miter;"/>
   </g>
   <g id="patch_33">
    <path clip-path="url(#pa3b496362f)" d="M 310.698795 179.28 
L 316.86747 179.28 
L 316.86747 89.629863 
L 310.698795 89.629863 
z
" style="fill:#5bc0de;stroke:#d2d2d2;stroke-linejoin:miter;"/>
   </g>
   <g id="patch_34">
    <path clip-path="url(#pa3b496362f)" d="M 316.86747 179.28 
L 323.036145 179.28 
L 323.036145 68.405002 
L 316.86747 68.405002 
z
" style="fill:#5bc0de;stroke:#d2d2d2;stroke-linejoin:miter;"/>
   </g>
   <g id="patch_35">
    <path clip-path="url(#pa3b496362f)" d="M 323.036145 179.28 
L 329.204819 179.28 
L 329.204819 31.165714 
L 323.036145 31.165714 
z
" style="fill:#5bc0de;stroke:#d2d2d2;stroke-linejoin:miter;"/>
   </g>
   <g id="patch_36">
    <path clip-path="url(#pa3b496362f)" d="M 329.204819 179.28 
L 335.373494 179.28 
L 335.373494 81.890834 
L 329.204819 81.890834 
z
" style="fill:#5bc0de;stroke:#d2d2d2;stroke-linejoin:miter;"/>
   </g>
   <g id="patch_37">
    <path clip-path="url(#pa3b496362f)" d="M 335.373494 179.28 
L 341.542169 179.28 
L 341.542169 101.813087 
L 335.373494 101.813087 
z
" style="fill:#5bc0de;stroke:#d2d2d2;stroke-linejoin:miter;"/>
   </g>
   <g id="patch_38">
    <path clip-path="url(#pa3b496362f)" d="M 341.542169 179.28 
L 347.710843 179.28 
L 347.710843 131.313346 
L 341.542169 131.313346 
z
" style="fill:#5bc0de;stroke:#d2d2d2;stroke-linejoin:miter;"/>
   </g>
   <g id="patch_39">
    <path clip-path="url(#pa3b496362f)" d="M 347.710843 179.28 
L 353.879518 179.28 
L 353.879518 152.384959 
L 347.710843 152.384959 
z
" style="fill:#5bc0de;stroke:#d2d2d2;stroke-linejoin:miter;"/>
   </g>
   <g id="patch_40">
    <path clip-path="url(#pa3b496362f)" d="M 353.879518 179.28 
L 360.048193 179.28 
L 360.048193 164.185062 
L 353.879518 164.185062 
z
" style="fill:#5bc0de;stroke:#d2d2d2;stroke-linejoin:miter;"/>
   </g>
   <g id="patch_41">
    <path clip-path="url(#pa3b496362f)" d="M 360.048193 179.28 
L 366.216867 179.28 
L 366.216867 176.215038 
L 360.048193 176.215038 
z
" style="fill:#5bc0de;stroke:#d2d2d2;stroke-linejoin:miter;"/>
   </g>
   <g id="patch_42">
    <path clip-path="url(#pa3b496362f)" d="M 366.216867 179.28 
L 372.385542 179.28 
L 372.385542 177.517647 
L 366.216867 177.517647 
z
" style="fill:#5bc0de;stroke:#d2d2d2;stroke-linejoin:miter;"/>
   </g>
   <g id="patch_43">
    <path clip-path="url(#pa3b496362f)" d="M 372.385542 179.28 
L 378.554217 179.28 
L 378.554217 178.743632 
L 372.385542 178.743632 
z
" style="fill:#5bc0de;stroke:#d2d2d2;stroke-linejoin:miter;"/>
   </g>
   <g id="patch_44">
    <path clip-path="url(#pa3b496362f)" d="M 378.554217 179.28 
L 384.722892 179.28 
L 384.722892 179.126752 
L 378.554217 179.126752 
z
" style="fill:#5bc0de;stroke:#d2d2d2;stroke-linejoin:miter;"/>
   </g>
   <g id="matplotlib.axis_3">
    <g id="xtick_6">
     <g id="line2d_7">
      <g>
       <use style="fill:#d2d2d2;stroke:#d2d2d2;" x="228" xlink:href="#m1d33494254" y="179.28"/>
      </g>
     </g>
     <g id="text_10">
      <!-- 0.3 -->
      <g style="fill:#d2d2d2;" transform="translate(217.662969 197.157969)scale(0.13 -0.13)">
       <use xlink:href="#DejaVuSans-30"/>
       <use x="63.623047" xlink:href="#DejaVuSans-2e"/>
       <use x="95.410156" xlink:href="#DejaVuSans-33"/>
      </g>
     </g>
    </g>
    <g id="xtick_7">
     <g id="line2d_8">
      <g>
       <use style="fill:#d2d2d2;stroke:#d2d2d2;" x="276" xlink:href="#m1d33494254" y="179.28"/>
      </g>
     </g>
     <g id="text_11">
      <!-- 0.4 -->
      <g style="fill:#d2d2d2;" transform="translate(265.662969 197.157969)scale(0.13 -0.13)">
       <use xlink:href="#DejaVuSans-30"/>
       <use x="63.623047" xlink:href="#DejaVuSans-2e"/>
       <use x="95.410156" xlink:href="#DejaVuSans-34"/>
      </g>
     </g>
    </g>
    <g id="xtick_8">
     <g id="line2d_9">
      <g>
       <use style="fill:#d2d2d2;stroke:#d2d2d2;" x="324" xlink:href="#m1d33494254" y="179.28"/>
      </g>
     </g>
     <g id="text_12">
      <!-- 0.5 -->
      <g style="fill:#d2d2d2;" transform="translate(313.662969 197.157969)scale(0.13 -0.13)">
       <use xlink:href="#DejaVuSans-30"/>
       <use x="63.623047" xlink:href="#DejaVuSans-2e"/>
       <use x="95.410156" xlink:href="#DejaVuSans-35"/>
      </g>
     </g>
    </g>
    <g id="xtick_9">
     <g id="line2d_10">
      <g>
       <use style="fill:#d2d2d2;stroke:#d2d2d2;" x="372" xlink:href="#m1d33494254" y="179.28"/>
      </g>
     </g>
     <g id="text_13">
      <!-- 0.6 -->
      <g style="fill:#d2d2d2;" transform="translate(361.662969 197.157969)scale(0.13 -0.13)">
       <use xlink:href="#DejaVuSans-30"/>
       <use x="63.623047" xlink:href="#DejaVuSans-2e"/>
       <use x="95.410156" xlink:href="#DejaVuSans-36"/>
      </g>
     </g>
    </g>
    <g id="xtick_10">
     <g id="line2d_11">
      <g>
       <use style="fill:#d2d2d2;stroke:#d2d2d2;" x="420" xlink:href="#m1d33494254" y="179.28"/>
      </g>
     </g>
     <g id="text_14">
      <!-- 0.7 -->
      <g style="fill:#d2d2d2;" transform="translate(409.662969 197.157969)scale(0.13 -0.13)">
       <use xlink:href="#DejaVuSans-30"/>
       <use x="63.623047" xlink:href="#DejaVuSans-2e"/>
       <use x="95.410156" xlink:href="#DejaVuSans-37"/>
      </g>
     </g>
    </g>
    <g id="text_15">
     <!-- Proportion of UCLA wins -->
     <g style="fill:#d2d2d2;" transform="translate(239.733125 214.499375)scale(0.14 -0.14)">
      <use xlink:href="#DejaVuSans-50"/>
      <use x="60.287109" xlink:href="#DejaVuSans-72"/>
      <use x="101.369141" xlink:href="#DejaVuSans-6f"/>
      <use x="162.550781" xlink:href="#DejaVuSans-70"/>
      <use x="226.027344" xlink:href="#DejaVuSans-6f"/>
      <use x="287.208984" xlink:href="#DejaVuSans-72"/>
      <use x="328.322266" xlink:href="#DejaVuSans-74"/>
      <use x="367.53125" xlink:href="#DejaVuSans-69"/>
      <use x="395.314453" xlink:href="#DejaVuSans-6f"/>
      <use x="456.496094" xlink:href="#DejaVuSans-6e"/>
      <use x="519.875" xlink:href="#DejaVuSans-20"/>
      <use x="551.662109" xlink:href="#DejaVuSans-6f"/>
      <use x="612.84375" xlink:href="#DejaVuSans-66"/>
      <use x="648.048828" xlink:href="#DejaVuSans-20"/>
      <use x="679.835938" xlink:href="#DejaVuSans-55"/>
      <use x="753.029297" xlink:href="#DejaVuSans-43"/>
      <use x="822.853516" xlink:href="#DejaVuSans-4c"/>
      <use x="878.597656" xlink:href="#DejaVuSans-41"/>
      <use x="947.005859" xlink:href="#DejaVuSans-20"/>
      <use x="978.792969" xlink:href="#DejaVuSans-77"/>
      <use x="1060.580078" xlink:href="#DejaVuSans-69"/>
      <use x="1088.363281" xlink:href="#DejaVuSans-6e"/>
      <use x="1151.742188" xlink:href="#DejaVuSans-73"/>
     </g>
    </g>
   </g>
   <g id="matplotlib.axis_4"/>
   <g id="line2d_12">
    <path clip-path="url(#pa3b496362f)" d="M 353.879518 179.28 
L 353.879518 51.7536 
" style="fill:none;stroke:#d9534f;stroke-dasharray:5.6,2.4;stroke-dashoffset:0;stroke-width:1.5;"/>
   </g>
   <g id="patch_45">
    <path d="M 228 179.28 
L 420 179.28 
" style="fill:none;stroke:#d2d2d2;stroke-linecap:square;stroke-linejoin:miter;"/>
   </g>
   <g id="text_16">
    <!-- $\hat{p}=0.562$ -->
    <g style="fill:#d9534f;" transform="translate(344.279518 39.312)scale(0.12 -0.12)">
     <use transform="translate(64.447266 13.015625)" xlink:href="#DejaVuSans-302"/>
     <use transform="translate(0 0.515625)" xlink:href="#DejaVuSans-Oblique-70"/>
     <use transform="translate(82.958984 0.515625)" xlink:href="#DejaVuSans-3d"/>
     <use transform="translate(186.230469 0.515625)" xlink:href="#DejaVuSans-30"/>
     <use transform="translate(249.853516 0.515625)" xlink:href="#DejaVuSans-2e"/>
     <use transform="translate(281.640625 0.515625)" xlink:href="#DejaVuSans-35"/>
     <use transform="translate(345.263672 0.515625)" xlink:href="#DejaVuSans-36"/>
     <use transform="translate(408.886719 0.515625)" xlink:href="#DejaVuSans-32"/>
    </g>
   </g>
   <g id="text_17">
    <!-- 10000 simulations -->
    <g style="fill:#5bc0de;" transform="translate(228 10.322625)scale(0.12 -0.12)">
     <use xlink:href="#DejaVuSans-31"/>
     <use x="63.623047" xlink:href="#DejaVuSans-30"/>
     <use x="127.246094" xlink:href="#DejaVuSans-30"/>
     <use x="190.869141" xlink:href="#DejaVuSans-30"/>
     <use x="254.492188" xlink:href="#DejaVuSans-30"/>
     <use x="318.115234" xlink:href="#DejaVuSans-20"/>
     <use x="349.902344" xlink:href="#DejaVuSans-73"/>
     <use x="402.001953" xlink:href="#DejaVuSans-69"/>
     <use x="429.785156" xlink:href="#DejaVuSans-6d"/>
     <use x="527.197266" xlink:href="#DejaVuSans-75"/>
     <use x="590.576172" xlink:href="#DejaVuSans-6c"/>
     <use x="618.359375" xlink:href="#DejaVuSans-61"/>
     <use x="679.638672" xlink:href="#DejaVuSans-74"/>
     <use x="718.847656" xlink:href="#DejaVuSans-69"/>
     <use x="746.630859" xlink:href="#DejaVuSans-6f"/>
     <use x="807.8125" xlink:href="#DejaVuSans-6e"/>
     <use x="871.191406" xlink:href="#DejaVuSans-73"/>
    </g>
    <!-- of        games -->
    <g style="fill:#5bc0de;" transform="translate(228 23.76)scale(0.12 -0.12)">
     <use xlink:href="#DejaVuSans-6f"/>
     <use x="61.181641" xlink:href="#DejaVuSans-66"/>
     <use x="96.386719" xlink:href="#DejaVuSans-20"/>
     <use x="128.173828" xlink:href="#DejaVuSans-20"/>
     <use x="159.960938" xlink:href="#DejaVuSans-20"/>
     <use x="191.748047" xlink:href="#DejaVuSans-20"/>
     <use x="223.535156" xlink:href="#DejaVuSans-20"/>
     <use x="255.322266" xlink:href="#DejaVuSans-20"/>
     <use x="287.109375" xlink:href="#DejaVuSans-20"/>
     <use x="318.896484" xlink:href="#DejaVuSans-20"/>
     <use x="350.683594" xlink:href="#DejaVuSans-67"/>
     <use x="414.160156" xlink:href="#DejaVuSans-61"/>
     <use x="475.439453" xlink:href="#DejaVuSans-6d"/>
     <use x="572.851562" xlink:href="#DejaVuSans-65"/>
     <use x="634.375" xlink:href="#DejaVuSans-73"/>
    </g>
   </g>
   <g id="text_18">
    <!-- 249 -->
    <defs>
     <path d="M 10.984375 1.515625 
L 10.984375 10.5 
Q 14.703125 8.734375 18.5 7.8125 
Q 22.3125 6.890625 25.984375 6.890625 
Q 35.75 6.890625 40.890625 13.453125 
Q 46.046875 20.015625 46.78125 33.40625 
Q 43.953125 29.203125 39.59375 26.953125 
Q 35.25 24.703125 29.984375 24.703125 
Q 19.046875 24.703125 12.671875 31.3125 
Q 6.296875 37.9375 6.296875 49.421875 
Q 6.296875 60.640625 12.9375 67.421875 
Q 19.578125 74.21875 30.609375 74.21875 
Q 43.265625 74.21875 49.921875 64.515625 
Q 56.59375 54.828125 56.59375 36.375 
Q 56.59375 19.140625 48.40625 8.859375 
Q 40.234375 -1.421875 26.421875 -1.421875 
Q 22.703125 -1.421875 18.890625 -0.6875 
Q 15.09375 0.046875 10.984375 1.515625 
M 30.609375 32.421875 
Q 37.25 32.421875 41.125 36.953125 
Q 45.015625 41.5 45.015625 49.421875 
Q 45.015625 57.28125 41.125 61.84375 
Q 37.25 66.40625 30.609375 66.40625 
Q 23.96875 66.40625 20.09375 61.84375 
Q 16.21875 57.28125 16.21875 49.421875 
Q 16.21875 41.5 20.09375 36.953125 
Q 23.96875 32.421875 30.609375 32.421875 
" id="DejaVuSans-39"/>
    </defs>
    <g style="fill:#f0ad4e;" transform="translate(244.8 23.76)scale(0.12 -0.12)">
     <use xlink:href="#DejaVuSans-32"/>
     <use x="63.623047" xlink:href="#DejaVuSans-34"/>
     <use x="127.246094" xlink:href="#DejaVuSans-39"/>
    </g>
   </g>
  </g>
  <g id="axes_3">
   <g id="patch_46">
    <path d="M 443.04 179.28 
L 635.04 179.28 
L 635.04 23.76 
L 443.04 23.76 
z
" style="fill:none;"/>
   </g>
   <g id="patch_47">
    <path clip-path="url(#pfea0c02723)" d="M 497.594217 179.28 
L 501.786988 179.28 
L 501.786988 178.698399 
L 497.594217 178.698399 
z
" style="fill:#5bc0de;stroke:#d2d2d2;stroke-linejoin:miter;"/>
   </g>
   <g id="patch_48">
    <path clip-path="url(#pfea0c02723)" d="M 501.786988 179.28 
L 505.979759 179.28 
L 505.979759 178.601466 
L 501.786988 178.601466 
z
" style="fill:#5bc0de;stroke:#d2d2d2;stroke-linejoin:miter;"/>
   </g>
   <g id="patch_49">
    <path clip-path="url(#pfea0c02723)" d="M 505.979759 179.28 
L 510.17253 179.28 
L 510.17253 175.305729 
L 505.979759 175.305729 
z
" style="fill:#5bc0de;stroke:#d2d2d2;stroke-linejoin:miter;"/>
   </g>
   <g id="patch_50">
    <path clip-path="url(#pfea0c02723)" d="M 510.17253 179.28 
L 514.365301 179.28 
L 514.365301 172.979327 
L 510.17253 172.979327 
z
" style="fill:#5bc0de;stroke:#d2d2d2;stroke-linejoin:miter;"/>
   </g>
   <g id="patch_51">
    <path clip-path="url(#pfea0c02723)" d="M 514.365301 179.28 
L 518.558072 179.28 
L 518.558072 164.255318 
L 514.365301 164.255318 
z
" style="fill:#5bc0de;stroke:#d2d2d2;stroke-linejoin:miter;"/>
   </g>
   <g id="patch_52">
    <path clip-path="url(#pfea0c02723)" d="M 518.558072 179.28 
L 522.750843 179.28 
L 522.750843 133.81822 
L 518.558072 133.81822 
z
" style="fill:#5bc0de;stroke:#d2d2d2;stroke-linejoin:miter;"/>
   </g>
   <g id="patch_53">
    <path clip-path="url(#pfea0c02723)" d="M 522.750843 179.28 
L 526.943614 179.28 
L 526.943614 122.573942 
L 522.750843 122.573942 
z
" style="fill:#5bc0de;stroke:#d2d2d2;stroke-linejoin:miter;"/>
   </g>
   <g id="patch_54">
    <path clip-path="url(#pfea0c02723)" d="M 526.943614 179.28 
L 531.136386 179.28 
L 531.136386 86.417771 
L 526.943614 86.417771 
z
" style="fill:#5bc0de;stroke:#d2d2d2;stroke-linejoin:miter;"/>
   </g>
   <g id="patch_55">
    <path clip-path="url(#pfea0c02723)" d="M 531.136386 179.28 
L 535.329157 179.28 
L 535.329157 31.165714 
L 531.136386 31.165714 
z
" style="fill:#5bc0de;stroke:#d2d2d2;stroke-linejoin:miter;"/>
   </g>
   <g id="patch_56">
    <path clip-path="url(#pfea0c02723)" d="M 535.329157 179.28 
L 539.521928 179.28 
L 539.521928 42.700793 
L 535.329157 42.700793 
z
" style="fill:#5bc0de;stroke:#d2d2d2;stroke-linejoin:miter;"/>
   </g>
   <g id="patch_57">
    <path clip-path="url(#pfea0c02723)" d="M 539.521928 179.28 
L 543.714699 179.28 
L 543.714699 45.99653 
L 539.521928 45.99653 
z
" style="fill:#5bc0de;stroke:#d2d2d2;stroke-linejoin:miter;"/>
   </g>
   <g id="patch_58">
    <path clip-path="url(#pfea0c02723)" d="M 543.714699 179.28 
L 547.90747 179.28 
L 547.90747 38.144921 
L 543.714699 38.144921 
z
" style="fill:#5bc0de;stroke:#d2d2d2;stroke-linejoin:miter;"/>
   </g>
   <g id="patch_59">
    <path clip-path="url(#pfea0c02723)" d="M 547.90747 179.28 
L 552.100241 179.28 
L 552.100241 98.049783 
L 547.90747 98.049783 
z
" style="fill:#5bc0de;stroke:#d2d2d2;stroke-linejoin:miter;"/>
   </g>
   <g id="patch_60">
    <path clip-path="url(#pfea0c02723)" d="M 552.100241 179.28 
L 556.293012 179.28 
L 556.293012 125.675812 
L 552.100241 125.675812 
z
" style="fill:#5bc0de;stroke:#d2d2d2;stroke-linejoin:miter;"/>
   </g>
   <g id="patch_61">
    <path clip-path="url(#pfea0c02723)" d="M 556.293012 179.28 
L 560.485783 179.28 
L 560.485783 146.710366 
L 556.293012 146.710366 
z
" style="fill:#5bc0de;stroke:#d2d2d2;stroke-linejoin:miter;"/>
   </g>
   <g id="patch_62">
    <path clip-path="url(#pfea0c02723)" d="M 560.485783 179.28 
L 564.678554 179.28 
L 564.678554 166.097053 
L 560.485783 166.097053 
z
" style="fill:#5bc0de;stroke:#d2d2d2;stroke-linejoin:miter;"/>
   </g>
   <g id="patch_63">
    <path clip-path="url(#pfea0c02723)" d="M 564.678554 179.28 
L 568.871325 179.28 
L 568.871325 173.754794 
L 564.678554 173.754794 
z
" style="fill:#5bc0de;stroke:#d2d2d2;stroke-linejoin:miter;"/>
   </g>
   <g id="patch_64">
    <path clip-path="url(#pfea0c02723)" d="M 568.871325 179.28 
L 573.064096 179.28 
L 573.064096 177.341331 
L 568.871325 177.341331 
z
" style="fill:#5bc0de;stroke:#d2d2d2;stroke-linejoin:miter;"/>
   </g>
   <g id="patch_65">
    <path clip-path="url(#pfea0c02723)" d="M 573.064096 179.28 
L 577.256867 179.28 
L 577.256867 178.795333 
L 573.064096 178.795333 
z
" style="fill:#5bc0de;stroke:#d2d2d2;stroke-linejoin:miter;"/>
   </g>
   <g id="patch_66">
    <path clip-path="url(#pfea0c02723)" d="M 577.256867 179.28 
L 581.449639 179.28 
L 581.449639 179.183067 
L 577.256867 179.183067 
z
" style="fill:#5bc0de;stroke:#d2d2d2;stroke-linejoin:miter;"/>
   </g>
   <g id="matplotlib.axis_5">
    <g id="xtick_11">
     <g id="line2d_13">
      <g>
       <use style="fill:#d2d2d2;stroke:#d2d2d2;" x="443.04" xlink:href="#m1d33494254" y="179.28"/>
      </g>
     </g>
     <g id="text_19">
      <!-- 0.3 -->
      <g style="fill:#d2d2d2;" transform="translate(432.702969 197.157969)scale(0.13 -0.13)">
       <use xlink:href="#DejaVuSans-30"/>
       <use x="63.623047" xlink:href="#DejaVuSans-2e"/>
       <use x="95.410156" xlink:href="#DejaVuSans-33"/>
      </g>
     </g>
    </g>
    <g id="xtick_12">
     <g id="line2d_14">
      <g>
       <use style="fill:#d2d2d2;stroke:#d2d2d2;" x="491.04" xlink:href="#m1d33494254" y="179.28"/>
      </g>
     </g>
     <g id="text_20">
      <!-- 0.4 -->
      <g style="fill:#d2d2d2;" transform="translate(480.702969 197.157969)scale(0.13 -0.13)">
       <use xlink:href="#DejaVuSans-30"/>
       <use x="63.623047" xlink:href="#DejaVuSans-2e"/>
       <use x="95.410156" xlink:href="#DejaVuSans-34"/>
      </g>
     </g>
    </g>
    <g id="xtick_13">
     <g id="line2d_15">
      <g>
       <use style="fill:#d2d2d2;stroke:#d2d2d2;" x="539.04" xlink:href="#m1d33494254" y="179.28"/>
      </g>
     </g>
     <g id="text_21">
      <!-- 0.5 -->
      <g style="fill:#d2d2d2;" transform="translate(528.702969 197.157969)scale(0.13 -0.13)">
       <use xlink:href="#DejaVuSans-30"/>
       <use x="63.623047" xlink:href="#DejaVuSans-2e"/>
       <use x="95.410156" xlink:href="#DejaVuSans-35"/>
      </g>
     </g>
    </g>
    <g id="xtick_14">
     <g id="line2d_16">
      <g>
       <use style="fill:#d2d2d2;stroke:#d2d2d2;" x="587.04" xlink:href="#m1d33494254" y="179.28"/>
      </g>
     </g>
     <g id="text_22">
      <!-- 0.6 -->
      <g style="fill:#d2d2d2;" transform="translate(576.702969 197.157969)scale(0.13 -0.13)">
       <use xlink:href="#DejaVuSans-30"/>
       <use x="63.623047" xlink:href="#DejaVuSans-2e"/>
       <use x="95.410156" xlink:href="#DejaVuSans-36"/>
      </g>
     </g>
    </g>
    <g id="xtick_15">
     <g id="line2d_17">
      <g>
       <use style="fill:#d2d2d2;stroke:#d2d2d2;" x="635.04" xlink:href="#m1d33494254" y="179.28"/>
      </g>
     </g>
     <g id="text_23">
      <!-- 0.7 -->
      <g style="fill:#d2d2d2;" transform="translate(624.702969 197.157969)scale(0.13 -0.13)">
       <use xlink:href="#DejaVuSans-30"/>
       <use x="63.623047" xlink:href="#DejaVuSans-2e"/>
       <use x="95.410156" xlink:href="#DejaVuSans-37"/>
      </g>
     </g>
    </g>
    <g id="text_24">
     <!-- Proportion of UCLA wins -->
     <g style="fill:#d2d2d2;" transform="translate(454.773125 214.499375)scale(0.14 -0.14)">
      <use xlink:href="#DejaVuSans-50"/>
      <use x="60.287109" xlink:href="#DejaVuSans-72"/>
      <use x="101.369141" xlink:href="#DejaVuSans-6f"/>
      <use x="162.550781" xlink:href="#DejaVuSans-70"/>
      <use x="226.027344" xlink:href="#DejaVuSans-6f"/>
      <use x="287.208984" xlink:href="#DejaVuSans-72"/>
      <use x="328.322266" xlink:href="#DejaVuSans-74"/>
      <use x="367.53125" xlink:href="#DejaVuSans-69"/>
      <use x="395.314453" xlink:href="#DejaVuSans-6f"/>
      <use x="456.496094" xlink:href="#DejaVuSans-6e"/>
      <use x="519.875" xlink:href="#DejaVuSans-20"/>
      <use x="551.662109" xlink:href="#DejaVuSans-6f"/>
      <use x="612.84375" xlink:href="#DejaVuSans-66"/>
      <use x="648.048828" xlink:href="#DejaVuSans-20"/>
      <use x="679.835938" xlink:href="#DejaVuSans-55"/>
      <use x="753.029297" xlink:href="#DejaVuSans-43"/>
      <use x="822.853516" xlink:href="#DejaVuSans-4c"/>
      <use x="878.597656" xlink:href="#DejaVuSans-41"/>
      <use x="947.005859" xlink:href="#DejaVuSans-20"/>
      <use x="978.792969" xlink:href="#DejaVuSans-77"/>
      <use x="1060.580078" xlink:href="#DejaVuSans-69"/>
      <use x="1088.363281" xlink:href="#DejaVuSans-6e"/>
      <use x="1151.742188" xlink:href="#DejaVuSans-73"/>
     </g>
    </g>
   </g>
   <g id="matplotlib.axis_6"/>
   <g id="line2d_18">
    <path clip-path="url(#pfea0c02723)" d="M 568.919518 179.28 
L 568.919518 51.7536 
" style="fill:none;stroke:#d9534f;stroke-dasharray:5.6,2.4;stroke-dashoffset:0;stroke-width:1.5;"/>
   </g>
   <g id="patch_67">
    <path d="M 443.04 179.28 
L 635.04 179.28 
" style="fill:none;stroke:#d2d2d2;stroke-linecap:square;stroke-linejoin:miter;"/>
   </g>
   <g id="text_25">
    <!-- $\hat{p}=0.562$ -->
    <g style="fill:#d9534f;" transform="translate(559.319518 39.312)scale(0.12 -0.12)">
     <use transform="translate(64.447266 13.015625)" xlink:href="#DejaVuSans-302"/>
     <use transform="translate(0 0.515625)" xlink:href="#DejaVuSans-Oblique-70"/>
     <use transform="translate(82.958984 0.515625)" xlink:href="#DejaVuSans-3d"/>
     <use transform="translate(186.230469 0.515625)" xlink:href="#DejaVuSans-30"/>
     <use transform="translate(249.853516 0.515625)" xlink:href="#DejaVuSans-2e"/>
     <use transform="translate(281.640625 0.515625)" xlink:href="#DejaVuSans-35"/>
     <use transform="translate(345.263672 0.515625)" xlink:href="#DejaVuSans-36"/>
     <use transform="translate(408.886719 0.515625)" xlink:href="#DejaVuSans-32"/>
    </g>
   </g>
   <g id="text_26">
    <!-- 10000 simulations -->
    <g style="fill:#5bc0de;" transform="translate(443.04 10.322625)scale(0.12 -0.12)">
     <use xlink:href="#DejaVuSans-31"/>
     <use x="63.623047" xlink:href="#DejaVuSans-30"/>
     <use x="127.246094" xlink:href="#DejaVuSans-30"/>
     <use x="190.869141" xlink:href="#DejaVuSans-30"/>
     <use x="254.492188" xlink:href="#DejaVuSans-30"/>
     <use x="318.115234" xlink:href="#DejaVuSans-20"/>
     <use x="349.902344" xlink:href="#DejaVuSans-73"/>
     <use x="402.001953" xlink:href="#DejaVuSans-69"/>
     <use x="429.785156" xlink:href="#DejaVuSans-6d"/>
     <use x="527.197266" xlink:href="#DejaVuSans-75"/>
     <use x="590.576172" xlink:href="#DejaVuSans-6c"/>
     <use x="618.359375" xlink:href="#DejaVuSans-61"/>
     <use x="679.638672" xlink:href="#DejaVuSans-74"/>
     <use x="718.847656" xlink:href="#DejaVuSans-69"/>
     <use x="746.630859" xlink:href="#DejaVuSans-6f"/>
     <use x="807.8125" xlink:href="#DejaVuSans-6e"/>
     <use x="871.191406" xlink:href="#DejaVuSans-73"/>
    </g>
    <!-- of        games -->
    <g style="fill:#5bc0de;" transform="translate(443.04 23.76)scale(0.12 -0.12)">
     <use xlink:href="#DejaVuSans-6f"/>
     <use x="61.181641" xlink:href="#DejaVuSans-66"/>
     <use x="96.386719" xlink:href="#DejaVuSans-20"/>
     <use x="128.173828" xlink:href="#DejaVuSans-20"/>
     <use x="159.960938" xlink:href="#DejaVuSans-20"/>
     <use x="191.748047" xlink:href="#DejaVuSans-20"/>
     <use x="223.535156" xlink:href="#DejaVuSans-20"/>
     <use x="255.322266" xlink:href="#DejaVuSans-20"/>
     <use x="287.109375" xlink:href="#DejaVuSans-20"/>
     <use x="318.896484" xlink:href="#DejaVuSans-20"/>
     <use x="350.683594" xlink:href="#DejaVuSans-67"/>
     <use x="414.160156" xlink:href="#DejaVuSans-61"/>
     <use x="475.439453" xlink:href="#DejaVuSans-6d"/>
     <use x="572.851562" xlink:href="#DejaVuSans-65"/>
     <use x="634.375" xlink:href="#DejaVuSans-73"/>
    </g>
   </g>
   <g id="text_27">
    <!-- 498 -->
    <defs>
     <path d="M 31.78125 34.625 
Q 24.75 34.625 20.71875 30.859375 
Q 16.703125 27.09375 16.703125 20.515625 
Q 16.703125 13.921875 20.71875 10.15625 
Q 24.75 6.390625 31.78125 6.390625 
Q 38.8125 6.390625 42.859375 10.171875 
Q 46.921875 13.96875 46.921875 20.515625 
Q 46.921875 27.09375 42.890625 30.859375 
Q 38.875 34.625 31.78125 34.625 
M 21.921875 38.8125 
Q 15.578125 40.375 12.03125 44.71875 
Q 8.5 49.078125 8.5 55.328125 
Q 8.5 64.0625 14.71875 69.140625 
Q 20.953125 74.21875 31.78125 74.21875 
Q 42.671875 74.21875 48.875 69.140625 
Q 55.078125 64.0625 55.078125 55.328125 
Q 55.078125 49.078125 51.53125 44.71875 
Q 48 40.375 41.703125 38.8125 
Q 48.828125 37.15625 52.796875 32.3125 
Q 56.78125 27.484375 56.78125 20.515625 
Q 56.78125 9.90625 50.3125 4.234375 
Q 43.84375 -1.421875 31.78125 -1.421875 
Q 19.734375 -1.421875 13.25 4.234375 
Q 6.78125 9.90625 6.78125 20.515625 
Q 6.78125 27.484375 10.78125 32.3125 
Q 14.796875 37.15625 21.921875 38.8125 
M 18.3125 54.390625 
Q 18.3125 48.734375 21.84375 45.5625 
Q 25.390625 42.390625 31.78125 42.390625 
Q 38.140625 42.390625 41.71875 45.5625 
Q 45.3125 48.734375 45.3125 54.390625 
Q 45.3125 60.0625 41.71875 63.234375 
Q 38.140625 66.40625 31.78125 66.40625 
Q 25.390625 66.40625 21.84375 63.234375 
Q 18.3125 60.0625 18.3125 54.390625 
" id="DejaVuSans-38"/>
    </defs>
    <g style="fill:#f0ad4e;" transform="translate(459.84 23.76)scale(0.12 -0.12)">
     <use xlink:href="#DejaVuSans-34"/>
     <use x="63.623047" xlink:href="#DejaVuSans-39"/>
     <use x="127.246094" xlink:href="#DejaVuSans-38"/>
    </g>
   </g>
  </g>
 </g>
 <defs>
  <clipPath id="pb340dc8ea2">
   <rect height="155.52" width="192" x="12.96" y="23.76"/>
  </clipPath>
  <clipPath id="pa3b496362f">
   <rect height="155.52" width="192" x="228" y="23.76"/>
  </clipPath>
  <clipPath id="pfea0c02723">
   <rect height="155.52" width="192" x="443.04" y="23.76"/>
  </clipPath>
 </defs>
</svg>
