<?xml version="1.0" encoding="UTF-8" standalone="no"?>
<svg xmlns:rdf="http://www.w3.org/1999/02/22-rdf-syntax-ns#" xmlns="http://www.w3.org/2000/svg" xml:space="preserve" height="229.05" viewBox="0 0 308.89362 229.05156" width="308.89" version="1.1" xmlns:cc="http://creativecommons.org/ns#" xmlns:dc="http://purl.org/dc/elements/1.1/"><g transform="matrix(1.25 0 0 -1.25 -237.23 925.17)"><g><path d="m357.58 735.71c-7.3796-0.24083-13.437-4.3228-17.164-9.0695-6.2893-8.2763-10.807-16.858-14.219-24.798-2.0279-4.7283-4.9229-12.466-8.1742-22.043-1.131 1.8607-2.8448 3.6026-5.5042 4.6619-0.85393 3.9244-3.813 9.1848-12.052 9.6151-6.8467-0.3465-10.809-1.6934-15.056-4.7466-1.2002-0.82885-2.4332-1.8064-3.6659-2.9349 2.4558 6.7108 4.9598 13.706 7.7186 21.694 0 0 1.6468 5.1423 2.4899 7.6285 0.84307 2.4849-2.3971 3.154-4.7678 3.3216-1.6119 0.11455-2.7629 0.14809-3.9838 0.14303 0.54737 1.7052 1.1019 3.4492 1.6687 5.1175 0.84812 2.4849-2.3896 3.1527-4.7678 3.3216-3.6278 0.25835-5.1316 0.25327-9.6416-0.2119-4.3501-0.44988-5.6944-5.3886-6.5425-7.6656-1.7743-4.3638-8.3573-23.626-9.5251-27.002-2.5683-6.1342-7.3588-20.844-11.379-29.052-3.6465-8.6184-6.4648-11.603-8.9052-12.37 0.40461 3.2111 1.5416 7.1597 3.3375 11.777 2.0209 5.0794 10.823 26.315 12.322 29.772 3.0628 8.5573 4.354 11.771 3.3587 17.408-1.2913 5.9625-4.2242 9.3122-7.9517 11.538-1.7052 4.6714-4.6654 7.3866-8.243 9.239-3.2465 1.6583-9.344 2.6425-15.914 0.25958-10.48-3.798-12.645-13.533-12.884-17.736-0.42784-2.3552 0.72203-5.0635 3.7295-5.1228 4.5124-0.0909 3.9647 5.513 5.3664 8.3861 0.59018 2.1724 1.6998 3.4752 2.0396 3.9944 0.99032 1.4403 3.0543 2.6013 6.0869 1.9813 0.54038-0.12068 1.0112-0.34974 1.4356-0.63041-9.3332-4.1095-11.352-13.168-11.581-17.191-0.42282-2.3551 0.72231-5.0608 3.7348-5.1175 4.5074-0.0933 3.9649 5.5103 5.3718 8.3808 0.58512 2.1724 1.6945 3.4752 2.0343 3.9944 0.25819 0.3739 0.59478 0.72814 0.99595 1.0383-5.3728-15.976-12.34-26.388-19.225-48.913-4.0305-14.715 0.19113-19.841 5.1969-23.966 0.37655-0.28962 0.77297-0.53072 1.1655-0.77344 1.1979-3.5168 3.4627-5.7856 5.9174-7.8086 4.1098-3.1603 9.1949-3.4961 14.563-1.6476 4.5879 1.5802 8.4701 4.1256 12.746 7.7874 1.1653-4.4393 3.9165-6.9936 6.9239-8.0205 3.926-1.2866 10.427-0.12735 13.991 2.1031 3.2654 1.4 5.683 3.388 8.8628 6.0657 2.8791-4.2818 6.8367-7.0047 12.592-8.5609 13.63-2.5984 24.383 5.5783 28.39 8.6404 0.99788-3.8143 3.251-6.1466 5.8167-7.8616 7.6218-3.4237 18.225 1.6054 19.839 2.4157 2.4598 1.2403 5.8123 3.2143 8.4814 5.3718 0.0387-0.0136 0.0778-0.0187 0.11655-0.0318 0.0859-4.0441 4.2769-8.3105 8.492-8.9476 8.3954-0.65575 13.601 3.708 18.568 8.651 0.13619-0.004 0.27956 0.005 0.41851 0.005-0.22846-3.1115 0.50853-6.2123 3.4116-7.9305 3.2642-1.5613 9.2439-0.17888 13.678 1.637 6.2968 2.9587 9.8772 7.0021 13.938 9.2867 0.47653 0.29958 0.94963 0.51792 1.4144 0.69399-0.81042-6.6132-5.5792-14.122-12.02-16.56-0.20649-0.0756-14.611-5.9302-30.784-5.8962-10.507 0.0202-46.601 3.066-56.123 3.9519-9.8151 0.91104-31.689 3.2409-44.696 3.5282-8.5996 0.19156-34.708 0.31372-44.537-0.77875-4.4747-0.50026-8.6488-2.0746-9.3396-4.3705-2.4764-4.8312-17.038-40.022-18.616-43.732-2.94-6.922-6.0341-11.944 6.9557-8.8682-2.9216-6.8099-5.7998-11.71 7.3478-8.5291 5.5695 1.5852 19.191 4.932 28.157 7.4749 24.231 5.3554 58.232 9.7872 74.601 10.929 20.115 1.4995 49.527 1.7776 63.349 3.703 25.01 1.9292 34.543 8.6012 42.688 15.077 11.482 11.132 15.385 22.313 14.044 38.561-1.1469 7.6855-5.2564 11.282-8.2589 13.016-2.2133 5.894-6.3896 8.398-8.7304 9.4403-2.3267 1.0408-4.7285 2.1059-9.4032 1.5098-3.5305-0.44863-6.9674-2.1549-9.5568-3.8778 2.6617 6.7206 7.7538 19.125 8.1795 20.639 0.95384 2.7949 1.0765 6.1858-0.26488 7.4749-0.6682 0.65022-1.2685 1.0858-2.9031 1.1602-1.3287 0.0592-2.9086-0.444-4.3175-1.1072 0.0873 0.24284 0.37111 0.94159 0.40262 1.0542 0.95383 2.7949 1.0767 6.1808-0.25958 7.4749-0.66819 0.64771-1.2685 1.0858-2.9031 1.1602-2.7231 0.11834-6.4876-2.0894-7.6868-3.2739-0.93871-0.92746-1.6611-1.4067-2.3998-2.7865-1.6006 4.1609-6.1844 5.5883-8.1159 5.9386-2.9138 0.39159-5.6514 0.22163-8.4179-0.50857 0.24465 0.41507 0.53075 0.87607 0.73636 1.2502 7.7174 13.448 8.182 16.144 9.239 21.948 0.17868 1.9632-0.58289 4.8678-2.2515 7.0087-0.72435 0.93117-2.5433 1.8557-4.8526 2.5693-0.0941 1.8734-0.81697 4.2007-2.225 6.0128-1.1111 1.4227-4.6486 2.8951-8.8629 3.4911-1.1052 0.13169-2.1879 0.17215-3.2421 0.13774zm14.87-17.954c2.1958 0.33229 2.3446-3.4186 0.13773-7.4219-1.8699-3.3846-8.2972-15.583-11.978-20.925-0.019-0.0273-0.0341-0.047-0.053-0.0742-7.7936-5.281-10.221-9.9763-13.18-17.095-0.42656-0.50664-0.6852-0.82947-1.1496-1.3774 0.14714 0.625 0.48232 1.0659 0.58803 1.3986 2.5057 7.2008 4.8437 12.951 7.0723 17.863 3.6577 4.8197 7.0157 9.7353 8.8099 13 3.2434 5.6528 5.1625 9.3544 6.426 12.237 1.3663 1.4477 2.5107 2.271 3.3269 2.3945zm3.7825-32.776c0.19494-0.0136 0.3735-0.0594 0.55625-0.0954-2.4454-0.56321-4.9081-1.5905-7.512-3.0832 1.2358 1.129 2.2141 1.836 2.5799 2.0343 1.7497 0.88143 3.181 1.2276 4.3758 1.1443zm-76.587-0.016c0.60706 0.0288 1.1257-0.0749 1.584-0.25428-3.356-0.73786-5.99-1.9864-8.7357-3.9573-0.32063-0.22146-0.64958-0.47387-0.97476-0.71517 1.6294 1.9254 3.5231 3.4853 5.7267 4.3546 0.89343 0.35378 1.6947 0.53867 2.3998 0.57214zm10.415-10.749c0.0978-0.30649 0.16382-0.63759 0.19602-0.99595-0.27587 0.11346-0.55675 0.19545-0.84232 0.27018 0.2283 0.22461 0.43513 0.4774 0.64631 0.72577zm-6.8975-3.3746c-0.0685-0.11638-0.13708-0.23065-0.20131-0.35493-0.003 0.10746 0.0125 0.22925 0.005 0.33375 0.0658 0.003 0.13024 0.0171 0.19602 0.0212zm70.929-6.3624c-0.68874-1.675-1.5147-3.4152-2.1826-4.7625 0.63966 1.7599 1.3922 3.312 2.1826 4.7625zm-69.764-0.86881c1.876-1.3801 5.3311-1.7473 8.1636-0.99594-0.36372-1.188-0.71367-2.2622-1.0807-3.4858-2.7189 0.98658-5.2067 2.3126-7.0829 4.4818zm40.172-0.78404c-0.10839-0.68802-0.2279-1.4414-0.31786-2.2515-2.3662-1.6597-7.0312-5.0076-7.0193-4.9215 3.0362 2.8132 5.3551 5.1335 7.3372 7.1729zm-0.58274-4.9162c-0.0211-0.23977-0.0418-0.39294-0.0636-0.6463l0.005-0.0318c-0.29393-0.4381-0.6786-0.86737-1.1178-1.2873 0.40346 0.65918 0.81424 1.3704 1.1761 1.9654zm63.433-7.4272c0.81858 0.0491 1.5803-0.11533 2.2833-0.4238-2.9661-1.2094-5.5813-2.9633-7.263-4.3811-2.1794-1.841-4.077-3.8057-6.0551-3.56-0.62246 0.0765-1.0628 0.32226-1.3827 0.66749 3.6056 2.404 6.3036 4.951 9.2231 6.5902 1.1004 0.69085 2.1838 1.0466 3.1944 1.1072zm-95.96-3.6976c0.10011-0.38291 0.22515-0.74264 0.34964-1.0966-1.1682-0.53865-2.3481-1.0849-3.4646-1.5469-0.34019-0.14118-0.74267-0.26009-1.1231-0.38672 1.7984 1.1639 3.2308 2.2598 4.2381 3.0302zm34.244 0c0.002-0.67652 0.15517-1.3559 0.37083-2.029-2.2546-1.1688-4.7174-1.9646-6.5955-2.0925 2.0717 1.1734 4.2904 2.5454 6.2247 4.1215zm27.505 0c-0.15235-1.5103-0.069-3.0262 0.35494-4.4023-1.0199 0.48863-1.7557 1.4292-2.2992 2.5799 0.64463 0.61085 1.311 1.187 1.9442 1.8224zm-102.73-0.0795c0.48626-0.72496 1.0211-1.3914 1.5734-2.029-1.3239-1.1268-2.7933-1.9508-4.0791-1.6264-0.44773 0.20807-0.76608 0.49028-1.0171 0.81053 1.1234 0.85336 2.26 1.7813 3.5229 2.8448zm-29.778-0.15891c0.34765-1.3149 0.84535-2.4444 1.4356-3.4381-2.1043-1.1135-3.9072-0.42833-5.6684 0.15362 1.395 0.98661 2.7924 2.05 4.2328 3.2845z" fill="#231f20"/><path d="m352.72 638.53c0.0136-4.0752 4.257-8.4149 8.509-9.0576 8.631-0.67415 13.896 3.9454 18.991 9.0576-0.32481-3.2435 0.37624-6.5362 3.4038-8.328 3.2642-1.5613 9.2451-0.18274 13.68 1.6331 6.2968 2.9587 9.8793 7.0049 13.94 9.2895 2.9345 1.8448 5.7217 1.274 7.4419-0.80269 3.809-6.9306-1.9706-20.241-10.972-23.647-0.19868-0.0729-14.606-5.9262-30.784-5.8973-10.51 0.0237-46.594 3.0696-56.12 3.9554-9.8089 0.91109-31.69 3.2372-44.697 3.5245-8.5996 0.19156-34.7 0.3126-44.537-0.78001-4.4747-0.49772-8.6512-2.0678-9.3345-4.3662-2.479-4.8338-17.044-40.021-18.621-43.729-2.9647-6.9747-6.1257-12.05 7.2255-8.8207 5.5695 1.5852 19.19 4.9346 28.156 7.4774 24.231 5.3554 58.233 9.7872 74.601 10.929 20.115 1.4995 49.524 1.7792 63.345 3.7047 25.01 1.9292 34.546 8.5964 42.691 15.072 11.482 11.132 15.385 22.318 14.043 38.565-1.3766 9.2252-7.0506 12.596-9.9146 13.874-2.3267 1.0409-4.7238 2.1069-9.3936 1.5134-4.8044-0.61242-9.459-3.5484-11.998-5.6894-2.1795-1.841-4.0771-3.8055-6.0552-3.5598-3.8833 0.47754-1.1904 7.0263-0.5021 9.1357 1.0281 3.0079 9.571 23.598 10.092 25.452 0.95384 2.7949 1.0759 6.1846-0.26547 7.4736-0.66819 0.65022-1.2659 1.0874-2.9005 1.1618-2.7155 0.12104-6.4881-2.0867-7.6822-3.2712-0.94377-0.92742-1.6673-1.41-2.4035-2.7886-1.6031 4.1596-6.1798 5.5898-8.1088 5.9388-5.4876 0.7359-10.354-0.44479-15.953-3.8017-9.147-5.9174-11.315-10.819-14.706-19.077-2.0474-5.3428-2.3984-7.2481-2.9446-13.662v-0.0271c-2.226-3.3153-9.157-6.3131-12.556-6.0132-5.6953-0.46748 6.9763 16.522 7.7187 19.281 0.0203 0.10849-8.9557-6.3736-8.9406-6.2639 7.7804 7.209 11.846 11.973 13.497 13.801 6.0564 5.862 15.592 18.675 19.117 25.089 7.7174 13.448 8.1843 16.144 9.2413 21.948 0.17867 1.9632-0.58513 4.8652-2.2537 7.0062-1.1086 1.4251-4.6433 2.8944-8.8601 3.493-8.8412 1.0534-16.147-3.5094-20.404-8.9341-6.2842-8.2738-10.809-16.859-14.221-24.799-3.4064-7.9399-9.123-23.646-15.186-44.019-3.0163-2.1863-6.6051-3.7715-9.8152-5.0996-4.7213-1.9594-13.714-2.752-15.962 4.1319-1.4622 5.8847-1.091 10.635 2.6123 17.536 2.2336 4.3713 5.2838 8.3797 9.3961 10.005 3.5762 1.4151 5.694 0.0956 5.9356-2.5945-2.6501 1.09-5.8601 0.44988-7.4671-3.0293-0.72481-1.5411-0.95634-4.0512 1.1112-6.269 2.0398-1.9317 6.9159-2.2568 10.081-0.79008 3.5209 1.6142 6.2779 6.2072 5.9344 10.524-0.11596 3.7425-2.4337 11.321-12.373 11.84-6.8467-0.34654-10.799-1.691-15.051-4.743-4.4533-3.0759-9.4226-8.0104-12.772-16.356-1.7592-4.4746-2.7017-7.083-3.9097-15.372 0 0-4.5817-6.8108-7.9075-5.9716-3.1673 1.4718-1.0394 5.9666 1.0922 10.434 7.2003 17.543 12.994 32.957 20.47 54.603 0 0 1.6447 5.1412 2.4878 7.6274 0.84307 2.4849-2.3947 3.154-4.7654 3.3216-3.6354 0.25835-5.1354 0.25835-9.6466-0.20682-4.3501-0.45239-5.6953-5.392-6.5434-7.669-1.7742-4.365-8.3554-23.622-9.5232-27.003-2.5683-6.1291-7.3614-20.841-11.377-29.052-6.2477-14.752-10.072-13.048-13.707-11.847-3.8782 2.3035-2.9609 9.5138 1.0545 19.837 2.0209 5.0794 10.827 26.315 12.326 29.772 3.0628 8.5573 4.3526 11.771 3.3573 17.407-1.4232 6.5714-4.8346 9.98-9.113 12.195-3.2465 1.6608-9.3445 2.6412-15.914 0.26344-10.474-3.8005-12.649-13.531-12.888-17.737-0.42282-2.3551 0.72356-5.0656 3.736-5.1223 4.5074-0.0932 3.9613 5.5129 5.3681 8.3834 0.58512 2.1724 1.695 3.4766 2.0348 3.9958 0.99286 1.4378 3.0553 2.5996 6.0904 1.9847 2.6488-0.59353 3.9814-3.3519 3.2088-5.838-5.5053-18.237-13.035-28.36-20.448-52.604-4.0305-14.718 0.19495-19.842 5.2008-23.967 4.1098-3.1603 9.1948-3.4968 14.563-1.6482 4.5879 1.5802 8.4737 4.1243 12.75 7.7861 1.1653-4.4393 3.9135-6.9936 6.921-8.0205 3.926-1.2866 10.427-0.12613 13.99 2.1044 3.2654 1.4 5.684 3.3909 8.8638 6.0687 2.8791-4.2818 6.8379-7.0037 12.594-8.5599 13.63-2.5984 24.381 5.5772 28.387 8.6392 0.99788-3.8143 3.2541-6.148 5.8199-7.863 7.6218-3.4237 18.222 1.6041 19.837 2.4144 2.489 1.255 5.9004 3.2611 8.5845 5.4487zm15.504 76.216c5.8098 7.0301 7.5816 1.7452 4.3715-4.0777-1.8699-3.3846-8.3001-15.586-11.981-20.929-3.8644-5.5558-5.7092-8.3167-14.378-18.545 0.14715 0.625 0.47941 1.0673 0.58512 1.4 8.4813 24.373 15.183 33.425 21.402 42.152zm17.272-58.693c-1.4005-3.406-3.3963-7.1271-3.3963-7.1271-2.9244-5.2962-5.2549-6.9923-8.061-6.4379-4.0846 1.2399-4.5716 8.7098-3.4881 12.842 2.7948 12.926 11.412 19.379 12.709 20.082 3.502 1.7629 5.7217 1.3836 7.3337-0.28988 1.5578-1.3559 0.72983-5.5205-0.61913-8.3041-0.73739-1.5159-2.635-6.3396-4.4785-10.765z" stroke="#231f20" stroke-width="4.0459" fill="none"/><path d="m345.64 646.79c0.0102-4.0752 4.252-8.4175 8.509-9.0564 8.626-0.67792 13.896 3.9416 18.994 9.0564-0.32718-3.2435 0.36871-6.5399 3.4013-8.3331 3.2642-1.5562 9.2451-0.18275 13.68 1.6344 6.2968 2.96 9.8756 7.0087 13.94 9.2907 2.9345 1.8423 5.7192 1.2765 7.4494-0.8052 3.7977-6.9255-1.9806-20.236-10.979-23.642-0.20648-0.0756-14.613-5.9313-30.787-5.8972-10.507 0.0203-46.597 3.0671-56.119 3.9529-9.8151 0.91105-31.689 3.2372-44.695 3.5245-8.5996 0.19156-34.708 0.31498-44.537-0.7775-4.4747-0.50026-8.6512-2.0728-9.342-4.3688-2.4765-4.8312-17.037-40.021-18.615-43.73-2.9634-6.9772-6.1295-12.049 7.2242-8.8182 5.572 1.5802 19.192 4.932 28.158 7.4774 24.231 5.3529 58.233 9.7859 74.599 10.928 20.112 1.4957 49.526 1.7818 63.348 3.7009 25.005 1.9355 34.546 8.6002 42.688 15.075 11.485 11.133 15.383 22.316 14.041 38.567-1.3767 9.2227-7.0455 12.598-9.9096 13.874-2.3267 1.0408-4.7238 2.1069-9.3986 1.5109-4.7994-0.60988-9.454-3.5434-11.993-5.6843-2.187-1.8461-4.0846-3.808-6.0552-3.5648-3.8833 0.48009-1.1904 7.0276-0.50209 9.1408 1.0231 3.0079 9.5685 23.595 10.087 25.449 0.95384 2.7949 1.0759 6.182-0.26039 7.4762-0.66819 0.64772-1.2659 1.0875-2.9005 1.1618-2.7231 0.11833-6.4881-2.0892-7.6873-3.2737-0.93872-0.92746-1.6623-1.4076-2.401-2.7874-1.6006 4.1609-6.1823 5.5886-8.1138 5.9389-5.4852 0.73715-10.346-0.44609-15.95-3.803-9.1457-5.9162-11.311-10.819-14.703-19.077-2.0549-5.3403-2.3984-7.2456-2.9496-13.659l0.003-0.0305c-2.226-3.3179-9.1621-6.3106-12.563-6.0157-5.6877-0.465-1.9618 10.261-1.2194 13.018 0.0204 0.10951-0.0136-0.10578 0 0 7.7854 7.2078 11.851 11.977 13.502 13.799 6.0564 5.867 15.592 18.675 19.117 25.089 7.7174 13.45 8.1793 16.149 9.2413 21.948 0.17868 1.9658-0.59017 4.8678-2.2537 7.0087-1.1111 1.4227-4.6458 2.8945-8.8601 3.4905-8.8412 1.0534-16.147-3.5043-20.407-8.9291-6.2892-8.2763-10.807-16.859-14.218-24.799-3.4064-7.9424-9.123-23.646-15.187-44.019-3.02-2.1863-6.6038-3.7715-9.8139-5.0996-4.7213-1.962-13.716-2.7546-15.97 4.1294-1.4547 5.8872-1.0835 10.638 2.6199 17.536 2.2336 4.3738 5.2788 8.3809 9.3961 10.005 3.5737 1.4151 5.694 0.0983 5.9356-2.5946-2.6501 1.0875-5.8601 0.45239-7.4671-3.0268-0.73234-1.5462-0.95635-4.0512 1.1061-6.2715 2.0398-1.9292 6.9159-2.2543 10.083-0.79008 3.5221 1.6167 6.2754 6.2072 5.9357 10.527-0.12206 3.74-2.4324 11.318-12.372 11.837-6.8467-0.3465-10.804-1.691-15.051-4.7443-4.4558-3.0772-9.4225-8.0092-12.772-16.355-1.7667-4.4746-2.7017-7.083-3.9122-15.369 0 0-4.5816-6.8121-7.9125-5.9716-3.1648 1.4693-1.0369 5.9666 1.0922 10.431 7.2079 17.543 12.999 32.959 20.475 54.6 0 0 1.6396 5.1437 2.4852 7.6324 0.84813 2.4849-2.3896 3.1503-4.7679 3.3191-3.6278 0.25835-5.1303 0.25835-9.6402-0.20682-4.3501-0.44988-5.694-5.392-6.5422-7.669-1.7743-4.3638-8.3554-23.624-9.5232-27-2.5683-6.1342-7.3614-20.846-11.382-29.054-6.2427-14.754-10.067-13.047-13.702-11.845-3.8858 2.3035-2.9609 9.51 1.0495 19.834 2.0234 5.082 10.824 26.315 12.331 29.772 3.0553 8.5548 4.3476 11.769 3.3497 17.41-1.4156 6.5689-4.827 9.9775-9.1055 12.193-3.2465 1.6583-9.3445 2.6437-15.914 0.26073-10.48-3.798-12.649-13.531-12.888-17.735-0.42785-2.3551 0.72355-5.0656 3.731-5.1248 4.5124-0.0909 3.9663 5.513 5.3681 8.386 0.59018 2.1724 1.7 3.4766 2.0398 3.9958 0.99032 1.4403 3.0553 2.6021 6.0879 1.9821 2.6463-0.59099 3.984-3.3494 3.2113-5.8356-5.5066-18.235-13.038-28.36-20.448-52.604-4.0305-14.715 0.19495-19.839 5.2008-23.965 4.1073-3.159 9.1948-3.4993 14.563-1.6507 4.5879 1.5827 8.4737 4.1268 12.742 7.7849 1.1728-4.4356 3.9235-6.9923 6.9209-8.0193 3.9311-1.2841 10.433-0.12714 13.998 2.1018 3.2604 1.4025 5.6814 3.3959 8.8626 6.0749 2.8728-4.2831 6.8391-7.0074 12.595-8.5649 13.628-2.5945 24.381 5.5785 28.387 8.643 0.99787-3.8168 3.2541-6.1531 5.8199-7.8656 7.6218-3.4237 18.222 1.6041 19.829 2.4169 2.4928 1.255 5.9042 3.2586 8.592 5.4487zm11.188 76.394c5.8048 7.0288 7.5765 1.7402 4.3703-4.0802-1.8686-3.3846-8.3026-15.591-11.977-20.933-3.8657-5.5545-5.7167-8.3154-14.378-18.544 0.13968 0.62503 0.47188 1.0724 0.57756 1.4 8.4838 24.373 15.188 33.424 21.407 42.157zm17.272-58.698c-1.4005-3.406-3.3938-7.1271-3.3938-7.1271-2.9244-5.2962-5.2574-6.9898-8.0635-6.4391-4.0846 1.2412-4.5716 8.7124-3.4894 12.843 2.791 12.925 11.413 19.379 12.711 20.082 3.4995 1.7629 5.7217 1.3836 7.3362-0.28717 1.5553-1.3609 0.72482-5.5205-0.61913-8.3016-0.73989-1.526-2.6375-6.3446-4.481-10.77z" stroke="#231f20" stroke-width="6.9157" fill="none"/><path d="m345.64 646.79c0.0102-4.0752 4.252-8.4175 8.509-9.0564 8.626-0.67792 13.896 3.9416 18.994 9.0564-0.32718-3.2435 0.36871-6.5399 3.4013-8.3331 3.2642-1.5562 9.2451-0.18275 13.68 1.6344 6.2968 2.96 9.8756 7.0087 13.94 9.2907 2.9345 1.8423 5.7192 1.2765 7.4494-0.8052 3.7977-6.9255-1.9806-20.236-10.979-23.642-0.20648-0.0756-14.613-5.9313-30.787-5.8972-10.507 0.0203-46.597 3.0671-56.119 3.9529-9.8151 0.91105-31.689 3.2372-44.695 3.5245-8.5996 0.19156-34.708 0.31498-44.537-0.7775-4.4747-0.50026-8.6512-2.0728-9.342-4.3688-2.4765-4.8312-17.037-40.021-18.615-43.73-2.9634-6.9772-6.1295-12.049 7.2242-8.8182 5.572 1.5802 19.192 4.932 28.158 7.4774 24.231 5.3529 58.233 9.7859 74.599 10.928 20.112 1.4957 49.526 1.7818 63.348 3.7009 25.005 1.9355 34.546 8.6002 42.688 15.075 11.485 11.133 15.383 22.316 14.041 38.567-1.3767 9.2227-7.0455 12.598-9.9096 13.874-2.3267 1.0408-4.7238 2.1069-9.3986 1.5109-4.7994-0.60988-9.454-3.5434-11.993-5.6843-2.187-1.8461-4.0846-3.808-6.0552-3.5648-3.8833 0.48009-1.1904 7.0276-0.50209 9.1408 1.0231 3.0079 9.5685 23.595 10.087 25.449 0.95384 2.7949 1.0759 6.182-0.26039 7.4762-0.66819 0.64772-1.2659 1.0875-2.9005 1.1618-2.7231 0.11833-6.4881-2.0892-7.6873-3.2737-0.93872-0.92746-1.6623-1.4076-2.401-2.7874-1.6006 4.1609-6.1823 5.5886-8.1138 5.9389-5.4852 0.73715-10.346-0.44609-15.95-3.803-9.1457-5.9162-11.311-10.819-14.703-19.077-2.0549-5.3403-2.3984-7.2456-2.9496-13.659l0.003-0.003c-2.226-3.3116-9.1621-6.3345-12.563-6.0397-5.6877-0.465-1.9618 10.261-1.2194 13.018 0.0204 0.10951-0.0136-0.10578 0 0 7.7854 7.2078 11.851 11.977 13.502 13.799 6.0564 5.867 15.592 18.675 19.117 25.089 7.7174 13.45 8.1793 16.149 9.2413 21.948 0.17868 1.9658-0.59017 4.8678-2.2537 7.0087-1.1111 1.4227-4.6458 2.8945-8.8601 3.4905-8.8412 1.0534-16.147-3.5043-20.407-8.9291-6.2892-8.2763-10.807-16.859-14.218-24.799-3.4064-7.9424-9.123-23.646-15.187-44.019-3.02-2.1863-6.6038-3.7715-9.8139-5.0996-4.7213-1.962-13.716-2.7546-15.97 4.1294-1.4547 5.8872-1.0835 10.638 2.6199 17.536 2.2336 4.3738 5.2788 8.3809 9.3961 10.005 3.5737 1.4151 5.694 0.0983 5.9356-2.5945-2.6501 1.0874-5.8601 0.45239-7.4671-3.0268-0.73234-1.5462-0.95635-4.0512 1.1061-6.2715 2.0398-1.9292 6.9159-2.2543 10.083-0.79007 3.5221 1.6167 6.2754 6.2072 5.9357 10.527-0.12206 3.74-2.4324 11.318-12.372 11.837-6.8467-0.3465-10.804-1.6911-15.051-4.7443-4.4558-3.0772-9.4225-8.0092-12.772-16.355-1.7667-4.4746-2.7017-7.083-3.9122-15.369 0 0-4.5816-6.8121-7.9125-5.9716-3.1648 1.4693-1.0369 5.9666 1.0922 10.431 7.2079 17.543 12.999 32.959 20.475 54.6 0 0 1.6396 5.1437 2.4852 7.6324 0.84813 2.4849-2.3896 3.1503-4.7679 3.3191-3.6278 0.25835-5.1303 0.25835-9.6402-0.20682-4.3501-0.44988-5.694-5.392-6.5422-7.669-1.7743-4.3638-8.3554-23.624-9.5232-27-2.5683-6.1342-7.3614-20.846-11.382-29.054-6.2427-14.755-10.067-13.047-13.702-11.845-3.8858 2.3035-2.9609 9.51 1.0495 19.834 2.0234 5.082 10.824 26.315 12.331 29.772 3.0553 8.5548 4.3476 11.769 3.3497 17.41-1.4156 6.5689-4.827 9.9775-9.1055 12.193-3.2465 1.6583-9.3445 2.6437-15.914 0.26073-10.48-3.798-12.649-13.531-12.888-17.735-0.42785-2.3551 0.72355-5.0656 3.731-5.1248 4.5124-0.0909 3.9663 5.5129 5.3681 8.386 0.59018 2.1724 1.7 3.4766 2.0398 3.9958 0.99032 1.4403 3.0553 2.6021 6.0879 1.9821 2.6463-0.59099 3.984-3.3494 3.2113-5.8355-5.5066-18.235-13.038-28.36-20.448-52.604-4.0305-14.715 0.19495-19.839 5.2008-23.965 4.1073-3.159 9.1948-3.4993 14.563-1.6507 4.5879 1.5827 8.4737 4.1268 12.742 7.7849 1.1728-4.4356 3.9235-6.9923 6.9209-8.0193 3.9311-1.2841 10.433-0.12714 13.998 2.1018 3.2604 1.4025 5.6814 3.396 8.8626 6.075 2.8728-4.2831 6.8391-7.0074 12.595-8.5649 13.628-2.5945 24.381 5.5785 28.387 8.643 0.99787-3.8168 3.2541-6.1531 5.8199-7.8656 7.6218-3.4237 18.222 1.6041 19.829 2.4169 2.4928 1.255 5.9042 3.2586 8.592 5.4487m11.188 76.394c5.8048 7.0288 7.5766 1.7402 4.3703-4.0802-1.8686-3.3846-8.3026-15.591-11.977-20.933-3.8657-5.5545-5.7167-8.3154-14.378-18.544 0.13969 0.62503 0.47188 1.0724 0.57756 1.4 8.4838 24.373 15.188 33.424 21.407 42.157m17.272-58.698c-1.4005-3.406-3.3938-7.1271-3.3938-7.1271-2.9244-5.2962-5.2574-6.9898-8.0635-6.4391-4.0846 1.2412-4.5716 8.7124-3.4894 12.843 2.7911 12.925 11.413 19.379 12.711 20.082 3.4995 1.7629 5.7217 1.3836 7.3362-0.28717 1.5553-1.3609 0.72481-5.5205-0.61913-8.3016-0.7399-1.526-2.6375-6.3446-4.481-10.77" fill="#0069cc"/><path d="m345.64 646.79c0.0102-4.0752 4.252-8.4175 8.509-9.0564 8.626-0.67792 13.896 3.9416 18.994 9.0564-0.32718-3.2435 0.36871-6.5399 3.4013-8.3331 3.2642-1.5562 9.2451-0.18275 13.68 1.6344 6.2968 2.96 9.8756 7.0087 13.94 9.2907 2.9345 1.8423 5.7192 1.2765 7.4494-0.8052 3.7977-6.9255-1.9806-20.236-10.979-23.642-0.20648-0.0756-14.613-5.9313-30.787-5.8972-10.507 0.0203-46.597 3.0671-56.119 3.9529-9.8151 0.91105-31.689 3.2372-44.695 3.5245-8.5996 0.19156-34.708 0.31498-44.537-0.7775-4.4747-0.50026-8.6512-2.0728-9.342-4.3688-2.4765-4.8312-17.037-40.021-18.615-43.73-2.9634-6.9772-6.1295-12.049 7.2242-8.8182 5.572 1.5802 19.192 4.932 28.158 7.4774 24.231 5.3529 58.233 9.7859 74.599 10.928 20.112 1.4957 49.526 1.7818 63.348 3.7009 25.005 1.9355 34.546 8.6002 42.688 15.075 11.485 11.133 15.383 22.316 14.041 38.567-1.3767 9.2227-7.0455 12.598-9.9096 13.874-2.3267 1.0408-4.7238 2.1069-9.3986 1.5109-4.7994-0.60988-9.454-3.5434-11.993-5.6843-2.187-1.8461-4.0846-3.808-6.0552-3.5648-3.8833 0.48009-1.1904 7.0276-0.50209 9.1408 1.0231 3.0079 9.5685 23.595 10.087 25.449 0.95384 2.7949 1.0759 6.182-0.26039 7.4762-0.66819 0.64772-1.2659 1.0875-2.9005 1.1618-2.7231 0.11833-6.4881-2.0892-7.6873-3.2737-0.93872-0.92746-1.6623-1.4076-2.401-2.7874-1.6006 4.1609-6.1823 5.5886-8.1138 5.9389-5.4852 0.73715-10.346-0.44609-15.95-3.803-9.1457-5.9162-11.311-10.819-14.703-19.077-2.0549-5.3403-2.3984-7.2456-2.9496-13.659l0.003-0.003c-2.226-3.3116-9.1621-6.3345-12.563-6.0397-5.6877-0.465-1.9618 10.261-1.2194 13.018 0.0204 0.10951-0.0136-0.10578 0 0 7.7854 7.2078 11.851 11.977 13.502 13.799 6.0564 5.867 15.592 18.675 19.117 25.089 7.7174 13.45 8.1793 16.149 9.2413 21.948 0.17868 1.9658-0.59017 4.8678-2.2537 7.0087-1.1111 1.4227-4.6458 2.8945-8.8601 3.4905-8.8412 1.0534-16.147-3.5043-20.407-8.9291-6.2892-8.2763-10.807-16.859-14.218-24.799-3.4064-7.9424-9.123-23.646-15.187-44.019-3.02-2.1863-6.6038-3.7715-9.8139-5.0996-4.7213-1.962-13.716-2.7546-15.97 4.1294-1.4547 5.8872-1.0835 10.638 2.6199 17.536 2.2336 4.3738 5.2788 8.3809 9.3961 10.005 3.5737 1.4151 5.694 0.0983 5.9356-2.5945-2.6501 1.0874-5.8601 0.45239-7.4671-3.0268-0.73234-1.5462-0.95635-4.0512 1.1061-6.2715 2.0398-1.9292 6.9159-2.2543 10.083-0.79007 3.5221 1.6167 6.2754 6.2072 5.9357 10.527-0.12206 3.74-2.4324 11.318-12.372 11.837-6.8467-0.3465-10.804-1.6911-15.051-4.7443-4.4558-3.0772-9.4225-8.0092-12.772-16.355-1.7667-4.4746-2.7017-7.083-3.9122-15.369 0 0-4.5816-6.8121-7.9125-5.9716-3.1648 1.4693-1.0369 5.9666 1.0922 10.431 7.2079 17.543 12.999 32.959 20.475 54.6 0 0 1.6396 5.1437 2.4852 7.6324 0.84813 2.4849-2.3896 3.1503-4.7679 3.3191-3.6278 0.25835-5.1303 0.25835-9.6402-0.20682-4.3501-0.44988-5.694-5.392-6.5422-7.669-1.7743-4.3638-8.3554-23.624-9.5232-27-2.5683-6.1342-7.3614-20.846-11.382-29.054-6.2427-14.755-10.067-13.047-13.702-11.845-3.8858 2.3035-2.9609 9.51 1.0495 19.834 2.0234 5.082 10.824 26.315 12.331 29.772 3.0553 8.5548 4.3476 11.769 3.3497 17.41-1.4156 6.5689-4.827 9.9775-9.1055 12.193-3.2465 1.6583-9.3445 2.6437-15.914 0.26073-10.48-3.798-12.649-13.531-12.888-17.735-0.42785-2.3551 0.72355-5.0656 3.731-5.1248 4.5124-0.0909 3.9663 5.5129 5.3681 8.386 0.59018 2.1724 1.7 3.4766 2.0398 3.9958 0.99032 1.4403 3.0553 2.6021 6.0879 1.9821 2.6463-0.59099 3.984-3.3494 3.2113-5.8355-5.5066-18.235-13.038-28.36-20.448-52.604-4.0305-14.715 0.19495-19.839 5.2008-23.965 4.1073-3.159 9.1948-3.4993 14.563-1.6507 4.5879 1.5827 8.4737 4.1268 12.742 7.7849 1.1728-4.4356 3.9235-6.9923 6.9209-8.0193 3.9311-1.2841 10.433-0.12714 13.998 2.1018 3.2604 1.4025 5.6814 3.396 8.8626 6.075 2.8728-4.2831 6.8391-7.0074 12.595-8.5649 13.628-2.5945 24.381 5.5785 28.387 8.643 0.99787-3.8168 3.2541-6.1531 5.8199-7.8656 7.6218-3.4237 18.222 1.6041 19.829 2.4169 2.4928 1.255 5.9042 3.2586 8.592 5.4487zm11.188 76.394c5.8048 7.0288 7.5765 1.7402 4.3703-4.0802-1.8686-3.3846-8.3026-15.591-11.977-20.933-3.8657-5.5545-5.7167-8.3154-14.378-18.544 0.13968 0.62503 0.47188 1.0724 0.57756 1.4 8.4838 24.373 15.188 33.424 21.407 42.157zm17.272-58.698c-1.4005-3.406-3.3938-7.1271-3.3938-7.1271-2.9244-5.2962-5.2574-6.9898-8.0635-6.4391-4.0846 1.2412-4.5716 8.7124-3.4894 12.843 2.791 12.925 11.413 19.379 12.711 20.082 3.4995 1.7629 5.7217 1.3836 7.3362-0.28717 1.5553-1.3609 0.72482-5.5205-0.61913-8.3016-0.73989-1.526-2.6375-6.3446-4.481-10.77z" stroke="#fab217" stroke-width="3.1115" fill="none"/><path d="m345.64 646.79c0.0102-4.0752 4.252-8.4175 8.509-9.0564 8.626-0.67792 13.896 3.9416 18.994 9.0564-0.32718-3.2435 0.36871-6.5399 3.4013-8.3331 3.2642-1.5562 9.2451-0.18275 13.68 1.6344 6.2968 2.96 9.8756 7.0087 13.94 9.2907 2.9345 1.8423 5.7192 1.2765 7.4494-0.8052 3.7977-6.9255-1.9806-20.236-10.979-23.642-0.20648-0.0756-14.613-5.9313-30.787-5.8972-10.507 0.0203-46.597 3.0671-56.119 3.9529-9.8151 0.91105-31.689 3.2372-44.695 3.5245-8.5996 0.19156-34.708 0.31498-44.537-0.7775-4.4747-0.50026-8.6512-2.0728-9.342-4.3688-2.4765-4.8312-17.037-40.021-18.615-43.73-2.9634-6.9772-6.1295-12.049 7.2242-8.8182 5.572 1.5802 19.192 4.932 28.158 7.4774 24.231 5.3529 58.233 9.7859 74.599 10.928 20.112 1.4957 49.526 1.7818 63.348 3.7009 25.005 1.9355 34.546 8.6002 42.688 15.075 11.485 11.133 15.383 22.316 14.041 38.567-1.3767 9.2227-7.0455 12.598-9.9096 13.874-2.3267 1.0408-4.7238 2.1069-9.3986 1.5109-4.7994-0.60988-9.454-3.5434-11.993-5.6843-2.187-1.8461-4.0846-3.808-6.0552-3.5648-3.8833 0.48009-1.1904 7.0276-0.50209 9.1408 1.0231 3.0079 9.5685 23.595 10.087 25.449 0.95384 2.7949 1.0759 6.182-0.26039 7.4762-0.66819 0.64772-1.2659 1.0875-2.9005 1.1618-2.7231 0.11833-6.4881-2.0892-7.6873-3.2737-0.93872-0.92746-1.6623-1.4076-2.401-2.7874-1.6006 4.1609-6.1823 5.5886-8.1138 5.9389-5.4852 0.73715-10.346-0.44609-15.95-3.803-9.1457-5.9162-11.311-10.819-14.703-19.077-2.0549-5.3403-2.3984-7.2456-2.9496-13.659l0.0136-0.003c-2.2298-3.3116-9.1696-6.3345-12.571-6.0397-5.6877-0.465-1.9618 10.261-1.2194 13.018 0.0204 0.10951-0.0136-0.10578 0 0 7.7854 7.2078 11.851 11.977 13.502 13.799 6.0564 5.867 15.592 18.675 19.117 25.089 7.7174 13.45 8.1793 16.149 9.2413 21.948 0.17868 1.9658-0.59017 4.8678-2.2537 7.0087-1.1111 1.4227-4.6458 2.8945-8.8601 3.4905-8.8412 1.0534-16.147-3.5043-20.407-8.9291-6.2892-8.2763-10.807-16.859-14.218-24.799-3.4064-7.9424-9.123-23.646-15.187-44.019-3.02-2.1863-6.6038-3.7715-9.8139-5.0996-4.7213-1.962-13.716-2.7546-15.97 4.1294-1.4547 5.8872-1.0835 10.638 2.6199 17.536 2.2336 4.3738 5.2788 8.3809 9.3961 10.005 3.5737 1.4151 5.694 0.0983 5.9356-2.5945-2.6501 1.0874-5.8601 0.45239-7.4671-3.0268-0.73234-1.5462-0.95635-4.0512 1.1061-6.2715 2.0398-1.9292 6.9159-2.2543 10.083-0.79007 3.5221 1.6167 6.2754 6.2072 5.9357 10.527-0.12206 3.74-2.4324 11.318-12.372 11.837-6.8467-0.3465-10.804-1.6911-15.051-4.7443-4.4558-3.0772-9.4225-8.0092-12.772-16.355-1.7667-4.4746-2.7017-7.083-3.9122-15.369 0 0-4.5816-6.8121-7.9125-5.9716-3.1648 1.4693-1.0369 5.9666 1.0922 10.431 7.2079 17.543 12.999 32.959 20.475 54.6 0 0 1.6396 5.1437 2.4852 7.6324 0.84812 2.4849-2.3896 3.1503-4.7679 3.3191-3.6278 0.25835-5.1303 0.25835-9.6402-0.20682-4.3501-0.44988-5.694-5.392-6.5422-7.669-1.7743-4.3638-8.3554-23.624-9.5232-27-2.5683-6.1342-7.3614-20.846-11.382-29.054-6.2427-14.755-10.067-13.047-13.702-11.845-3.8858 2.3035-2.9609 9.51 1.0495 19.834 2.0234 5.082 10.824 26.315 12.331 29.772 3.0553 8.5548 4.3476 11.769 3.3497 17.41-1.4156 6.5689-4.8271 9.9775-9.1055 12.193-3.2465 1.6583-9.3445 2.6437-15.914 0.26073-10.48-3.798-12.649-13.531-12.888-17.735-0.42785-2.3551 0.72355-5.0656 3.731-5.1248 4.5124-0.0909 3.9663 5.5129 5.3681 8.386 0.59017 2.1724 1.7 3.4766 2.0398 3.9958 0.99032 1.4403 3.0553 2.6021 6.0879 1.9821 2.6463-0.59099 3.984-3.3494 3.2113-5.8355-5.5066-18.235-13.038-28.36-20.448-52.604-4.0305-14.715 0.19495-19.839 5.2008-23.965 4.1073-3.159 9.1948-3.4993 14.563-1.6507 4.5879 1.5827 8.4737 4.1268 12.742 7.7849 1.1728-4.4356 3.9235-6.9923 6.9209-8.0193 3.9311-1.2841 10.433-0.12714 13.998 2.1018 3.2604 1.4025 5.6815 3.396 8.8626 6.075 2.8728-4.2831 6.8391-7.0074 12.595-8.5649 13.628-2.5945 24.381 5.5785 28.387 8.643 0.99787-3.8168 3.2541-6.1531 5.8199-7.8656 7.6218-3.4237 18.222 1.6041 19.829 2.4169 2.4928 1.255 5.9042 3.2586 8.592 5.4487m11.188 76.394c5.8048 7.0288 7.5766 1.7402 4.3703-4.0802-1.8686-3.3846-8.3026-15.591-11.977-20.933-3.8657-5.5545-5.7167-8.3154-14.378-18.544 0.13969 0.62503 0.47188 1.0724 0.57756 1.4 8.4838 24.373 15.188 33.424 21.407 42.157m17.272-58.698c-1.4005-3.406-3.3938-7.1271-3.3938-7.1271-2.9244-5.2962-5.2574-6.9898-8.0635-6.4391-4.0846 1.2412-4.5716 8.7124-3.4894 12.843 2.7911 12.925 11.413 19.379 12.711 20.082 3.4995 1.7629 5.7217 1.3836 7.3362-0.28717 1.5553-1.3609 0.72481-5.5205-0.61913-8.3016-0.7399-1.526-2.6375-6.3446-4.481-10.77" fill="#007dc3"/><path d="m345.64 646.79c0.0102-4.0752 4.252-8.4175 8.509-9.0564 8.626-0.67792 13.896 3.9416 18.994 9.0564-0.32718-3.2435 0.36871-6.5399 3.4013-8.3331 3.2642-1.5562 9.2451-0.18275 13.68 1.6344 6.2968 2.96 9.8756 7.0087 13.94 9.2907 2.9345 1.8423 5.7192 1.2765 7.4494-0.8052 3.7977-6.9255-1.9806-20.236-10.979-23.642-0.20648-0.0756-14.613-5.9313-30.787-5.8972-10.507 0.0203-46.597 3.0671-56.119 3.9529-9.8151 0.91105-31.689 3.2372-44.695 3.5245-8.5996 0.19156-34.708 0.31498-44.537-0.7775-4.4747-0.50026-8.6512-2.0728-9.342-4.3688-2.4765-4.8312-17.037-40.021-18.615-43.73-2.9634-6.9772-6.1295-12.049 7.2242-8.8182 5.572 1.5802 19.192 4.932 28.158 7.4774 24.231 5.3529 58.233 9.7859 74.599 10.928 20.112 1.4957 49.526 1.7818 63.348 3.7009 25.005 1.9355 34.546 8.6002 42.688 15.075 11.485 11.133 15.383 22.316 14.041 38.567-1.3767 9.2227-7.0455 12.598-9.9096 13.874-2.3267 1.0408-4.7238 2.1069-9.3986 1.5109-4.7994-0.60988-9.454-3.5434-11.993-5.6843-2.187-1.8461-4.0846-3.808-6.0552-3.5648-3.8833 0.48009-1.1904 7.0276-0.50209 9.1408 1.0231 3.0079 9.5685 23.595 10.087 25.449 0.95384 2.7949 1.0759 6.182-0.26039 7.4762-0.66819 0.64772-1.2659 1.0875-2.9005 1.1618-2.7231 0.11833-6.4881-2.0892-7.6873-3.2737-0.93872-0.92746-1.6623-1.4076-2.401-2.7874-1.6006 4.1609-6.1823 5.5886-8.1138 5.9389-5.4852 0.73715-10.346-0.44609-15.95-3.803-9.1457-5.9162-11.311-10.819-14.703-19.077-2.0549-5.3403-2.3984-7.2456-2.9496-13.659l0.0136-0.003c-2.2298-3.3116-9.1696-6.3345-12.571-6.0397-5.6877-0.465-1.9618 10.261-1.2194 13.018 0.0204 0.10951-0.0136-0.10578 0 0 7.7854 7.2078 11.851 11.977 13.502 13.799 6.0564 5.867 15.592 18.675 19.117 25.089 7.7174 13.45 8.1793 16.149 9.2413 21.948 0.17868 1.9658-0.59017 4.8678-2.2537 7.0087-1.1111 1.4227-4.6458 2.8945-8.8601 3.4905-8.8412 1.0534-16.147-3.5043-20.407-8.9291-6.2892-8.2763-10.807-16.859-14.218-24.799-3.4064-7.9424-9.123-23.646-15.187-44.019-3.02-2.1863-6.6038-3.7715-9.8139-5.0996-4.7213-1.962-13.716-2.7546-15.97 4.1294-1.4547 5.8872-1.0835 10.638 2.6199 17.536 2.2336 4.3738 5.2788 8.3809 9.3961 10.005 3.5737 1.4151 5.694 0.0983 5.9356-2.5945-2.6501 1.0874-5.8601 0.45239-7.4671-3.0268-0.73234-1.5462-0.95635-4.0512 1.1061-6.2715 2.0398-1.9292 6.9159-2.2543 10.083-0.79007 3.5221 1.6167 6.2754 6.2072 5.9357 10.527-0.12206 3.74-2.4324 11.318-12.372 11.837-6.8467-0.3465-10.804-1.6911-15.051-4.7443-4.4558-3.0772-9.4225-8.0092-12.772-16.355-1.7667-4.4746-2.7017-7.083-3.9122-15.369 0 0-4.5816-6.8121-7.9125-5.9716-3.1648 1.4693-1.0369 5.9666 1.0922 10.431 7.2079 17.543 12.999 32.959 20.475 54.6 0 0 1.6396 5.1437 2.4852 7.6324 0.84812 2.4849-2.3896 3.1503-4.7679 3.3191-3.6278 0.25835-5.1303 0.25835-9.6402-0.20682-4.3501-0.44988-5.694-5.392-6.5422-7.669-1.7743-4.3638-8.3554-23.624-9.5232-27-2.5683-6.1342-7.3614-20.846-11.382-29.054-6.2427-14.755-10.067-13.047-13.702-11.845-3.8858 2.3035-2.9609 9.51 1.0495 19.834 2.0234 5.082 10.824 26.315 12.331 29.772 3.0553 8.5548 4.3476 11.769 3.3497 17.41-1.4156 6.5689-4.8271 9.9775-9.1055 12.193-3.2465 1.6583-9.3445 2.6437-15.914 0.26073-10.48-3.798-12.649-13.531-12.888-17.735-0.42785-2.3551 0.72355-5.0656 3.731-5.1248 4.5124-0.0909 3.9663 5.5129 5.3681 8.386 0.59017 2.1724 1.7 3.4766 2.0398 3.9958 0.99032 1.4403 3.0553 2.6021 6.0879 1.9821 2.6463-0.59099 3.984-3.3494 3.2113-5.8355-5.5066-18.235-13.038-28.36-20.448-52.604-4.0305-14.715 0.19495-19.839 5.2008-23.965 4.1073-3.159 9.1948-3.4993 14.563-1.6507 4.5879 1.5827 8.4737 4.1268 12.742 7.7849 1.1728-4.4356 3.9235-6.9923 6.9209-8.0193 3.9311-1.2841 10.433-0.12714 13.998 2.1018 3.2604 1.4025 5.6815 3.396 8.8626 6.075 2.8728-4.2831 6.8391-7.0074 12.595-8.5649 13.628-2.5945 24.381 5.5785 28.387 8.643 0.99787-3.8168 3.2541-6.1531 5.8199-7.8656 7.6218-3.4237 18.222 1.6041 19.829 2.4169 2.4928 1.255 5.9042 3.2586 8.592 5.4487zm11.188 76.394c5.8048 7.0288 7.5765 1.7402 4.3703-4.0802-1.8686-3.3846-8.3026-15.591-11.977-20.933-3.8657-5.5545-5.7167-8.3154-14.378-18.544 0.13968 0.62503 0.47188 1.0724 0.57756 1.4 8.4838 24.373 15.188 33.424 21.407 42.157zm17.272-58.698c-1.4005-3.406-3.3938-7.1271-3.3938-7.1271-2.9244-5.2962-5.2574-6.9898-8.0635-6.4391-4.0846 1.2412-4.5716 8.7124-3.4894 12.843 2.791 12.925 11.413 19.379 12.711 20.082 3.4995 1.7629 5.7217 1.3836 7.3362-0.28717 1.5553-1.3609 0.72482-5.5205-0.61913-8.3016-0.73989-1.526-2.6375-6.3446-4.481-10.77z" stroke="#febb36" stroke-width=".69132" fill="none"/><path d="m258.34 619.99c-1.7692 0.01-3.6713-0.009-5.4406-0.0583-0.15729-0.68548-0.37981-1.4931-0.60392-2.1773l-0.63571-2.2091-0.60393-2.2038-0.64101-2.2409 0.65691 0.0901 0.61981 0.0266 0.68869 0.0583 0.61981-0.005-1.3032-4.5082-1.3085-4.5347-1.3032-4.5082-1.2714-4.5347-0.6516-0.0583-0.68869-0.12713-0.6516-0.0848-0.6516-0.14834-0.60923-2.1455-0.63041-2.2144-0.64101-2.2038-0.63571-2.2409 3.7083 0.75756 3.8302 0.72577 3.7348 0.66219 3.8302 0.65691 0.54036 1.8965 0.54035 1.8648 0.54036 1.8648 0.50856 1.833-0.49797-0.053-0.4344-0.0318-0.4344-0.0901-0.4397-0.0583 0.38672 1.3668 0.37613 1.335 0.38143 1.3668 0.41321 1.3668 0.72047 0.0583 0.68339 0.0901 0.71517 0.0583 0.74696 0.0583 0.36553-1.2502 0.39732-1.2502 0.39202-1.2132 0.39732-1.2502-0.37083-0.0266-0.37613-0.0636-0.33374-0.0266-0.34435-0.0583-0.51386-1.8065-0.54036-1.833-0.50856-1.833-0.54036-1.87 3.5759 0.57214 3.5812 0.53505 3.613 0.50857v0.005l3.6076 0.50327 0.55095 1.8648 0.50327 1.8331 0.50327 1.8383 0.51387 1.8012-0.81053-0.09-0.77875-0.0848-0.77345-0.0583-0.77874-0.09-0.42381 1.5946-0.4291 1.5575-0.36024 1.5893c-0.12582 0.46748-0.33832 1.0638-0.39731 1.5628l1.1284 0.79994 1.1867 0.80523 1.1549 0.77345 1.1867 0.76285 0.59863 2.1508 0.60392 2.1137 0.60922 2.1402 0.60393 2.082-1.2078 1.3509-1.139 1.3138-1.139 1.3509c-0.37373 0.43472-0.74414 0.93455-1.1443 1.3403l-5.4724 0.22249-5.4406 0.12713-5.4141 0.005zm-14.584-0.31255-5.5678-0.30727-5.3241-0.0901-5.4671-0.2172-5.483-0.58803-0.86351-3.168-0.72577-2.5799-0.73107-2.5481-0.70458-2.5852 0.59333 0.0954 0.62512 0.0848 0.6516 0.12184 0.65161 0.0901-1.4939-5.2552-1.4939-5.2817-1.4939-5.2552-1.4674-5.2817-0.64631-0.18541-0.6569-0.15363-0.6569-0.14834-0.59333-0.15363-0.73106-2.4899-0.69928-2.5799-0.73107-2.5746-0.73636-2.5799 5.5836 1.5522 5.6684 1.5204 5.6631 1.3933 5.7055 1.335 2.1243 2.0714c0.65436 0.58848 1.5002 1.3333 2.1243 1.9495l2.1349 2.0131 2.1508 1.9124 0.70458 2.5852 0.76286 2.5746 0.73106 2.5852 0.73636 2.5164c-0.0616 0.1273-0.28636 0.31125-0.34434 0.46619-0.0641 0.15499-0.27734 0.34303-0.33904 0.49797-0.0617 0.15754-0.28243 0.34969-0.33905 0.50327-0.0288 0.12222-0.24319 0.31654-0.30726 0.47149l0.62512 0.58803 0.63041 0.58803 0.61982 0.55625c0.15729 0.12222 0.53111 0.40367 0.6569 0.55624l0.63571 2.2992 0.66749 2.2992 0.6675 2.2992 0.63571 2.2727-1.0701 1.5363-1.0542 1.5257c-0.33725 0.47127-0.67449 1.1579-1.0118 1.6581-0.34101 0.47002-0.68386 1.0672-1.0171 1.5045zm41.385-0.60393-0.47678-1.7747-0.50857-1.8012-0.50857-1.8012-0.50856-1.8383 0.61981-0.005h0.65161l0.68339-0.0371h0.68868l-1.1761-4.1639-1.1814-4.1692-1.1761-4.1957-1.1443-4.1957 1.1708-1.0966c0.40519-0.344 0.83444-0.81864 1.2396-1.1337l1.2396-1.0595 1.2661-1.1337 3.454 0.38142 3.5176 0.38143 3.5123 0.35494 3.5494 0.34964 1.9389 1.2661 1.9336 1.2026 1.9389 1.2343 1.9283 1.139 0.89529 3.5123 0.92708 3.4805 0.88999 3.4805 0.92708 3.4858 0.70988-0.0371 0.75225-0.0371 0.68339-0.0318 0.77345-0.0371 0.35494 1.4515 0.38672 1.4356 0.37613 1.4568 0.35494 1.1178-3.6394 0.33904-3.6077 0.33375-4.042 0.30196-3.2898 0.46089-0.22779-1.3085-0.41321-1.4939-0.38142-1.4886-0.41851-1.5257 0.34434-0.005h0.34434l0.37084-0.0318 0.37612-0.005-0.92178-3.4169-0.95356-3.4487-0.92708-3.454-0.92178-3.4487-1.4674-0.053-1.4304-0.0848-1.4621-0.11655-1.425-0.0848 0.98005 3.5812 0.99065 3.6024 0.98535 3.5759 0.98535 3.5759c0.0943 0 0.25114-0.0358 0.34435-0.005l0.37083-0.0318h0.37613l0.39731-0.0371 0.41851 1.5575 0.445 1.5204 0.41321 1.5257 0.38143 1.1814-3.6077 0.45559-3.2315 0.0848-3.4487 0.55095-3.3904 0.21192zm107.68-2.0925-3.5335-0.64631-3.5123-0.56155-3.5123-0.4291-3.507-0.34434-1.5787-0.72047-1.5151-0.74166-1.5469-0.75226-1.5469-0.75226-0.11126-1.0966-0.12713-2.1614-0.13773-1.0966-0.0954-1.1284 1.0489-0.4344c0.30955-0.15257 0.80825-0.28207 1.1178-0.4397l1.086-0.42381 1.1178-0.40791 2.8925 0.28607 2.9614 0.31786c0.93244 0.0831 1.9613 0.26546 2.8925 0.40791 0.92868 0.11834 2.0235 0.29093 2.9296 0.46619l-0.0371-0.64101-0.0371-0.60393-0.0318-1.6952-0.005-0.6728-1.5575-0.26488c-0.49579-0.12106-1.029-0.17674-1.531-0.26489l-1.5204-0.2331-1.5257-0.2331 0.0371 0.33374 0.0266 0.33375 0.005 0.33375 0.0318 0.30726-2.6117-0.28607-2.5852-0.22779-2.5799-0.22778-2.5216-0.20131-0.10065-0.64101-0.0636-0.63571-0.0636-0.63571-0.0636-0.61452 1.4568-0.52446 1.5204-0.50327c0.49327-0.18783 1.0181-0.36665 1.5151-0.49267l1.5575-0.52976 3.6394 0.49267c1.1841 0.1475 2.5478 0.3496 3.703 0.55625 1.1803 0.17527 2.5239 0.47298 3.6765 0.70988 1.1816 0.23562 2.5214 0.55828 3.6765 0.8582l1.5257 1.1178c0.50083 0.3326 1.096 0.7539 1.5628 1.1496l1.4727 1.1496c0.46937 0.36165 1.0591 1.877 1.531 2.2992h0.005l0.005 1.1284 0.0371 1.1284 0.005 1.1284 0.0371 1.1231-1.0224 0.0371-0.96416 0.0954-1.0277 0.10066-0.95886 0.19071c-0.96642-0.26853-2.0535-0.53752-3.0249-0.71518-0.96265-0.20681-2.0239-0.40883-2.9878-0.55624-0.96262-0.17766-2.0239-0.35682-2.9878-0.47149l-3.0143-0.40791 0.0266 0.48737v0.4556l0.0371 1.7005 0.053 0.42381 1.4621 0.2331 1.4621 0.19602 1.4886 0.22779 1.4886 0.26488v-0.2172-0.21192l-0.0266-0.21192v-0.21191l2.4846 0.51386c0.80411 0.16239 1.6749 0.35037 2.4475 0.57214 0.81039 0.19293 1.6764 0.41423 2.4528 0.6675l2.3839 0.78934 0.0266 0.51916-0.005 0.48738-0.005 0.48738-0.005 0.48737-1.3085 0.13774-1.3403 0.16952-1.3403 0.20131-1.3085 0.19602zm-74.055-1.0224-0.34964-1.0595-0.34964-1.4304-0.34964-1.4304-0.34964-1.4304 0.6516-0.0371 0.6569-0.0371 0.68339-0.0318 0.68339-0.0689-0.74166-2.8607-0.73107-2.8872-0.73106-2.8925-0.70458-2.8925-0.68339 0.005-0.74166-0.0266-0.6569-0.0266-0.68339-0.0266-0.38143-1.3668-0.34964-1.4356-0.38672-1.3986-0.35494-1.4568 8.1318 0.11655 8.2907 0.34435 0.29137 1.2767 0.28607 1.2767 0.31785 1.2714 0.29137 1.2132-0.71518 0.005-0.68338-0.0266-0.6569-0.0318-0.65161 0.0106 0.77345 3.2845 0.63571 2.6488 0.60393 2.67 0.641 2.6435 0.62512-0.005c0.18615-0.0339 0.49404-0.0686 0.6463-0.0371l0.6569-0.0318 0.68869-0.0318 0.28077 1.2661 0.29137 1.2449 0.28607 1.2767 0.40261 1.7058-7.9411 0.51387-7.6232 0.18541zm18.637-1.1072-0.25428-1.1814-0.28607-1.2132-0.25958-1.2449-0.25957-1.2449 0.6569-0.0371 0.62512-0.0318 0.68338-0.005 0.68339-0.0636-0.66219-2.8713-0.54036-2.5164-0.54565-2.4899-0.54565-2.5216-0.70988 0.005-0.72047-0.0266-0.6516-0.0212-0.6516-0.0318-0.28607-1.1814-0.28607-1.2449-0.25958-1.2132-0.29136-1.2714 3.7984-0.0848 3.7348 0.22249 3.6977 0.22779 3.5812 0.1907 0.22778 1.4039 0.19071 1.0542 0.19602 1.0595 0.21721 1.0542-0.8688-0.0212-0.83702-0.0266-0.84232-0.0212-0.77874-0.0318 0.25426 1.2768 0.22778 1.2132 0.25958 1.2449 0.25957 1.2132 0.21192 0.0583c0.0641-0.0305 0.21636 0.0318 0.28077 0.0318h0.24899l0.31256 0.0318 2.1296-2.2886 2.2303-2.225 1.7588-2.2356c0.71348-0.69182 2.1163-2.6477 2.8713-3.3269l2.3256 0.16952 2.3627 0.2066 2.4899 0.17482 2.0502 0.20131 0.56684 4.3122 0.42381 3.1097 0.38672 3.0832 0.32845 3.8778 0.31256 0.0106 0.68338 0.0266 0.59333-0.005h0.6569l0.0954 0.98535 0.12713 0.99594 0.13773 1.0012 0.11655 1.139-3.5229 0.0106-3.1468 0.0848-3.364 0.0742-3.2951-0.0424-0.15892-0.96946-0.16423-0.99064-0.16423-0.99595-0.15892-0.99595 0.6463 0.0266 0.62512-0.0371h0.79993l0.90589-0.0689-0.15363-1.6846-0.15892-0.93238-0.15891-0.96416-0.13245-0.96416-0.28077-0.0318-0.28077-0.0266c-0.0641 0.003-0.23787-0.0749-0.30196-0.0424l-0.25958-0.053-2.2621 2.8236-1.7853 2.0661c-0.2404-0.12239-1.2674 1.2063-1.8224 1.9283l-1.335 1.9018-3.168 0.2331-3.1415 0.23839-3.1415 0.23839-3.0779 0.27018zm-70.251-3.0196 1.4304-0.0106-0.32316-1.0224-0.28077-1.0277-0.29137-1.086-0.31255-1.0277-1.4039-0.0477-1.3615-0.053-1.3403-0.0583-1.3456-0.0848 0.28607 1.0913 0.31786 1.086 0.32315 1.0595 0.28607 1.0807 1.335 0.0583 1.3403 0.0212 1.3403 0.0212zm-30.154-1.8277-0.34964-1.1814-0.34434-1.2449-0.34964-1.2131-0.34964-1.2132-1.4039-0.17481-1.3668-0.18013-1.3403-0.17481-1.3403-0.21192 0.35494 1.2714 0.34964 1.2502 0.34964 1.2396 0.34964 1.2449 1.3403 0.14302 1.335 0.18013 1.3721 0.14834 1.3933 0.11655zm-3.9414-13.864-0.445-1.4303-0.37613-1.4304-0.4185-1.4621-0.40792-1.4621-1.4409-0.27018-1.3986-0.27018-1.3668-0.27017-1.3403-0.30197 0.41322 1.4939 0.4185 1.4886 0.41321 1.4886 0.40792 1.4621 1.3668 0.24367 1.3721 0.26489 1.3668 0.24368 1.4356 0.21192z" fill="#febb36"/></g></g></svg>
