<?xml version="1.0" encoding="utf-8" standalone="no"?>
<!DOCTYPE svg PUBLIC "-//W3C//DTD SVG 1.1//EN"
  "http://www.w3.org/Graphics/SVG/1.1/DTD/svg11.dtd">
<!-- Created with matplotlib (http://matplotlib.org/) -->
<svg height="432pt" version="1.1" viewBox="0 0 648 432" width="648pt" xmlns="http://www.w3.org/2000/svg" xmlns:xlink="http://www.w3.org/1999/xlink">
 <defs>
  <style type="text/css">
*{stroke-linecap:butt;stroke-linejoin:round;}
  </style>
 </defs>
 <g id="figure_1">
  <g id="patch_1">
   <path d="M 0 432 
L 648 432 
L 648 0 
L 0 0 
z
" style="fill:none;"/>
  </g>
  <g id="axes_1">
   <g id="patch_2">
    <path d="M 12.96 171.936 
L 204.96 171.936 
L 204.96 47.52 
L 12.96 47.52 
z
" style="fill:none;"/>
   </g>
   <g id="patch_3">
    <path clip-path="url(#p9608a8043e)" d="M 35.812136 171.936 
L 39.877853 171.936 
L 39.877853 171.774677 
L 35.812136 171.774677 
z
" style="fill:#5bc0de;stroke:#d2d2d2;stroke-linejoin:miter;"/>
   </g>
   <g id="patch_4">
    <path clip-path="url(#p9608a8043e)" d="M 39.877853 171.936 
L 43.943571 171.936 
L 43.943571 170.806742 
L 39.877853 170.806742 
z
" style="fill:#5bc0de;stroke:#d2d2d2;stroke-linejoin:miter;"/>
   </g>
   <g id="patch_5">
    <path clip-path="url(#p9608a8043e)" d="M 43.943571 171.936 
L 48.009288 171.936 
L 48.009288 169.032194 
L 43.943571 169.032194 
z
" style="fill:#5bc0de;stroke:#d2d2d2;stroke-linejoin:miter;"/>
   </g>
   <g id="patch_6">
    <path clip-path="url(#p9608a8043e)" d="M 48.009288 171.936 
L 52.075005 171.936 
L 52.075005 164.111855 
L 48.009288 164.111855 
z
" style="fill:#5bc0de;stroke:#d2d2d2;stroke-linejoin:miter;"/>
   </g>
   <g id="patch_7">
    <path clip-path="url(#p9608a8043e)" d="M 52.075005 171.936 
L 56.140723 171.936 
L 56.140723 153.706549 
L 52.075005 153.706549 
z
" style="fill:#5bc0de;stroke:#d2d2d2;stroke-linejoin:miter;"/>
   </g>
   <g id="patch_8">
    <path clip-path="url(#p9608a8043e)" d="M 56.140723 171.936 
L 60.20644 171.936 
L 60.20644 138.70355 
L 56.140723 138.70355 
z
" style="fill:#5bc0de;stroke:#d2d2d2;stroke-linejoin:miter;"/>
   </g>
   <g id="patch_9">
    <path clip-path="url(#p9608a8043e)" d="M 60.20644 171.936 
L 64.272158 171.936 
L 64.272158 111.278713 
L 60.20644 111.278713 
z
" style="fill:#5bc0de;stroke:#d2d2d2;stroke-linejoin:miter;"/>
   </g>
   <g id="patch_10">
    <path clip-path="url(#p9608a8043e)" d="M 64.272158 171.936 
L 68.337875 171.936 
L 68.337875 80.30478 
L 64.272158 80.30478 
z
" style="fill:#5bc0de;stroke:#d2d2d2;stroke-linejoin:miter;"/>
   </g>
   <g id="patch_11">
    <path clip-path="url(#p9608a8043e)" d="M 68.337875 171.936 
L 72.403593 171.936 
L 72.403593 62.317313 
L 68.337875 62.317313 
z
" style="fill:#5bc0de;stroke:#d2d2d2;stroke-linejoin:miter;"/>
   </g>
   <g id="patch_12">
    <path clip-path="url(#p9608a8043e)" d="M 72.403593 171.936 
L 76.46931 171.936 
L 76.46931 89.419505 
L 72.403593 89.419505 
z
" style="fill:#5bc0de;stroke:#d2d2d2;stroke-linejoin:miter;"/>
   </g>
   <g id="patch_13">
    <path clip-path="url(#p9608a8043e)" d="M 76.46931 171.936 
L 80.535027 171.936 
L 80.535027 53.444571 
L 76.46931 53.444571 
z
" style="fill:#5bc0de;stroke:#d2d2d2;stroke-linejoin:miter;"/>
   </g>
   <g id="patch_14">
    <path clip-path="url(#p9608a8043e)" d="M 80.535027 171.936 
L 84.600745 171.936 
L 84.600745 72.399974 
L 80.535027 72.399974 
z
" style="fill:#5bc0de;stroke:#d2d2d2;stroke-linejoin:miter;"/>
   </g>
   <g id="patch_15">
    <path clip-path="url(#p9608a8043e)" d="M 84.600745 171.936 
L 88.666462 171.936 
L 88.666462 91.920005 
L 84.600745 91.920005 
z
" style="fill:#5bc0de;stroke:#d2d2d2;stroke-linejoin:miter;"/>
   </g>
   <g id="patch_16">
    <path clip-path="url(#p9608a8043e)" d="M 88.666462 171.936 
L 92.73218 171.936 
L 92.73218 125.555761 
L 88.666462 125.555761 
z
" style="fill:#5bc0de;stroke:#d2d2d2;stroke-linejoin:miter;"/>
   </g>
   <g id="patch_17">
    <path clip-path="url(#p9608a8043e)" d="M 92.73218 171.936 
L 96.797897 171.936 
L 96.797897 140.236115 
L 92.73218 140.236115 
z
" style="fill:#5bc0de;stroke:#d2d2d2;stroke-linejoin:miter;"/>
   </g>
   <g id="patch_18">
    <path clip-path="url(#p9608a8043e)" d="M 96.797897 171.936 
L 100.863614 171.936 
L 100.863614 157.094323 
L 96.797897 157.094323 
z
" style="fill:#5bc0de;stroke:#d2d2d2;stroke-linejoin:miter;"/>
   </g>
   <g id="patch_19">
    <path clip-path="url(#p9608a8043e)" d="M 100.863614 171.936 
L 104.929332 171.936 
L 104.929332 167.338307 
L 100.863614 167.338307 
z
" style="fill:#5bc0de;stroke:#d2d2d2;stroke-linejoin:miter;"/>
   </g>
   <g id="patch_20">
    <path clip-path="url(#p9608a8043e)" d="M 104.929332 171.936 
L 108.995049 171.936 
L 108.995049 169.838807 
L 104.929332 169.838807 
z
" style="fill:#5bc0de;stroke:#d2d2d2;stroke-linejoin:miter;"/>
   </g>
   <g id="patch_21">
    <path clip-path="url(#p9608a8043e)" d="M 108.995049 171.936 
L 113.060767 171.936 
L 113.060767 171.210048 
L 108.995049 171.210048 
z
" style="fill:#5bc0de;stroke:#d2d2d2;stroke-linejoin:miter;"/>
   </g>
   <g id="patch_22">
    <path clip-path="url(#p9608a8043e)" d="M 113.060767 171.936 
L 117.126484 171.936 
L 117.126484 171.613355 
L 113.060767 171.613355 
z
" style="fill:#5bc0de;stroke:#d2d2d2;stroke-linejoin:miter;"/>
   </g>
   <g id="matplotlib.axis_1">
    <g id="xtick_1">
     <g id="line2d_1">
      <defs>
       <path d="M 0 0 
L 0 4 
" id="m337ac8f194" style="stroke:#d2d2d2;"/>
      </defs>
      <g>
       <use style="fill:#d2d2d2;stroke:#d2d2d2;" x="12.96" xlink:href="#m337ac8f194" y="171.936"/>
      </g>
     </g>
     <g id="text_1">
      <!-- 0.3 -->
      <defs>
       <path d="M 31.78125 66.40625 
Q 24.171875 66.40625 20.328125 58.90625 
Q 16.5 51.421875 16.5 36.375 
Q 16.5 21.390625 20.328125 13.890625 
Q 24.171875 6.390625 31.78125 6.390625 
Q 39.453125 6.390625 43.28125 13.890625 
Q 47.125 21.390625 47.125 36.375 
Q 47.125 51.421875 43.28125 58.90625 
Q 39.453125 66.40625 31.78125 66.40625 
M 31.78125 74.21875 
Q 44.046875 74.21875 50.515625 64.515625 
Q 56.984375 54.828125 56.984375 36.375 
Q 56.984375 17.96875 50.515625 8.265625 
Q 44.046875 -1.421875 31.78125 -1.421875 
Q 19.53125 -1.421875 13.0625 8.265625 
Q 6.59375 17.96875 6.59375 36.375 
Q 6.59375 54.828125 13.0625 64.515625 
Q 19.53125 74.21875 31.78125 74.21875 
" id="DejaVuSans-30"/>
       <path d="M 10.6875 12.40625 
L 21 12.40625 
L 21 0 
L 10.6875 0 
z
" id="DejaVuSans-2e"/>
       <path d="M 40.578125 39.3125 
Q 47.65625 37.796875 51.625 33 
Q 55.609375 28.21875 55.609375 21.1875 
Q 55.609375 10.40625 48.1875 4.484375 
Q 40.765625 -1.421875 27.09375 -1.421875 
Q 22.515625 -1.421875 17.65625 -0.515625 
Q 12.796875 0.390625 7.625 2.203125 
L 7.625 11.71875 
Q 11.71875 9.328125 16.59375 8.109375 
Q 21.484375 6.890625 26.8125 6.890625 
Q 36.078125 6.890625 40.9375 10.546875 
Q 45.796875 14.203125 45.796875 21.1875 
Q 45.796875 27.640625 41.28125 31.265625 
Q 36.765625 34.90625 28.71875 34.90625 
L 20.21875 34.90625 
L 20.21875 43.015625 
L 29.109375 43.015625 
Q 36.375 43.015625 40.234375 45.921875 
Q 44.09375 48.828125 44.09375 54.296875 
Q 44.09375 59.90625 40.109375 62.90625 
Q 36.140625 65.921875 28.71875 65.921875 
Q 24.65625 65.921875 20.015625 65.03125 
Q 15.375 64.15625 9.8125 62.3125 
L 9.8125 71.09375 
Q 15.4375 72.65625 20.34375 73.4375 
Q 25.25 74.21875 29.59375 74.21875 
Q 40.828125 74.21875 47.359375 69.109375 
Q 53.90625 64.015625 53.90625 55.328125 
Q 53.90625 49.265625 50.4375 45.09375 
Q 46.96875 40.921875 40.578125 39.3125 
" id="DejaVuSans-33"/>
      </defs>
      <g style="fill:#d2d2d2;" transform="translate(2.622969 187.813969)scale(0.13 -0.13)">
       <use xlink:href="#DejaVuSans-30"/>
       <use x="63.623047" xlink:href="#DejaVuSans-2e"/>
       <use x="95.410156" xlink:href="#DejaVuSans-33"/>
      </g>
     </g>
    </g>
    <g id="xtick_2">
     <g id="line2d_2">
      <g>
       <use style="fill:#d2d2d2;stroke:#d2d2d2;" x="47.869091" xlink:href="#m337ac8f194" y="171.936"/>
      </g>
     </g>
     <g id="text_2">
      <!-- 0.4 -->
      <defs>
       <path d="M 37.796875 64.3125 
L 12.890625 25.390625 
L 37.796875 25.390625 
z
M 35.203125 72.90625 
L 47.609375 72.90625 
L 47.609375 25.390625 
L 58.015625 25.390625 
L 58.015625 17.1875 
L 47.609375 17.1875 
L 47.609375 0 
L 37.796875 0 
L 37.796875 17.1875 
L 4.890625 17.1875 
L 4.890625 26.703125 
z
" id="DejaVuSans-34"/>
      </defs>
      <g style="fill:#d2d2d2;" transform="translate(37.53206 187.813969)scale(0.13 -0.13)">
       <use xlink:href="#DejaVuSans-30"/>
       <use x="63.623047" xlink:href="#DejaVuSans-2e"/>
       <use x="95.410156" xlink:href="#DejaVuSans-34"/>
      </g>
     </g>
    </g>
    <g id="xtick_3">
     <g id="line2d_3">
      <g>
       <use style="fill:#d2d2d2;stroke:#d2d2d2;" x="82.778182" xlink:href="#m337ac8f194" y="171.936"/>
      </g>
     </g>
     <g id="text_3">
      <!-- 0.5 -->
      <defs>
       <path d="M 10.796875 72.90625 
L 49.515625 72.90625 
L 49.515625 64.59375 
L 19.828125 64.59375 
L 19.828125 46.734375 
Q 21.96875 47.46875 24.109375 47.828125 
Q 26.265625 48.1875 28.421875 48.1875 
Q 40.625 48.1875 47.75 41.5 
Q 54.890625 34.8125 54.890625 23.390625 
Q 54.890625 11.625 47.5625 5.09375 
Q 40.234375 -1.421875 26.90625 -1.421875 
Q 22.3125 -1.421875 17.546875 -0.640625 
Q 12.796875 0.140625 7.71875 1.703125 
L 7.71875 11.625 
Q 12.109375 9.234375 16.796875 8.0625 
Q 21.484375 6.890625 26.703125 6.890625 
Q 35.15625 6.890625 40.078125 11.328125 
Q 45.015625 15.765625 45.015625 23.390625 
Q 45.015625 31 40.078125 35.4375 
Q 35.15625 39.890625 26.703125 39.890625 
Q 22.75 39.890625 18.8125 39.015625 
Q 14.890625 38.140625 10.796875 36.28125 
z
" id="DejaVuSans-35"/>
      </defs>
      <g style="fill:#d2d2d2;" transform="translate(72.441151 187.813969)scale(0.13 -0.13)">
       <use xlink:href="#DejaVuSans-30"/>
       <use x="63.623047" xlink:href="#DejaVuSans-2e"/>
       <use x="95.410156" xlink:href="#DejaVuSans-35"/>
      </g>
     </g>
    </g>
    <g id="xtick_4">
     <g id="line2d_4">
      <g>
       <use style="fill:#d2d2d2;stroke:#d2d2d2;" x="117.687273" xlink:href="#m337ac8f194" y="171.936"/>
      </g>
     </g>
     <g id="text_4">
      <!-- 0.6 -->
      <defs>
       <path d="M 33.015625 40.375 
Q 26.375 40.375 22.484375 35.828125 
Q 18.609375 31.296875 18.609375 23.390625 
Q 18.609375 15.53125 22.484375 10.953125 
Q 26.375 6.390625 33.015625 6.390625 
Q 39.65625 6.390625 43.53125 10.953125 
Q 47.40625 15.53125 47.40625 23.390625 
Q 47.40625 31.296875 43.53125 35.828125 
Q 39.65625 40.375 33.015625 40.375 
M 52.59375 71.296875 
L 52.59375 62.3125 
Q 48.875 64.0625 45.09375 64.984375 
Q 41.3125 65.921875 37.59375 65.921875 
Q 27.828125 65.921875 22.671875 59.328125 
Q 17.53125 52.734375 16.796875 39.40625 
Q 19.671875 43.65625 24.015625 45.921875 
Q 28.375 48.1875 33.59375 48.1875 
Q 44.578125 48.1875 50.953125 41.515625 
Q 57.328125 34.859375 57.328125 23.390625 
Q 57.328125 12.15625 50.6875 5.359375 
Q 44.046875 -1.421875 33.015625 -1.421875 
Q 20.359375 -1.421875 13.671875 8.265625 
Q 6.984375 17.96875 6.984375 36.375 
Q 6.984375 53.65625 15.1875 63.9375 
Q 23.390625 74.21875 37.203125 74.21875 
Q 40.921875 74.21875 44.703125 73.484375 
Q 48.484375 72.75 52.59375 71.296875 
" id="DejaVuSans-36"/>
      </defs>
      <g style="fill:#d2d2d2;" transform="translate(107.350241 187.813969)scale(0.13 -0.13)">
       <use xlink:href="#DejaVuSans-30"/>
       <use x="63.623047" xlink:href="#DejaVuSans-2e"/>
       <use x="95.410156" xlink:href="#DejaVuSans-36"/>
      </g>
     </g>
    </g>
    <g id="xtick_5">
     <g id="line2d_5">
      <g>
       <use style="fill:#d2d2d2;stroke:#d2d2d2;" x="152.596364" xlink:href="#m337ac8f194" y="171.936"/>
      </g>
     </g>
     <g id="text_5">
      <!-- 0.7 -->
      <defs>
       <path d="M 8.203125 72.90625 
L 55.078125 72.90625 
L 55.078125 68.703125 
L 28.609375 0 
L 18.3125 0 
L 43.21875 64.59375 
L 8.203125 64.59375 
z
" id="DejaVuSans-37"/>
      </defs>
      <g style="fill:#d2d2d2;" transform="translate(142.259332 187.813969)scale(0.13 -0.13)">
       <use xlink:href="#DejaVuSans-30"/>
       <use x="63.623047" xlink:href="#DejaVuSans-2e"/>
       <use x="95.410156" xlink:href="#DejaVuSans-37"/>
      </g>
     </g>
    </g>
    <g id="xtick_6">
     <g id="line2d_6">
      <g>
       <use style="fill:#d2d2d2;stroke:#d2d2d2;" x="187.505455" xlink:href="#m337ac8f194" y="171.936"/>
      </g>
     </g>
     <g id="text_6">
      <!-- 0.8 -->
      <defs>
       <path d="M 31.78125 34.625 
Q 24.75 34.625 20.71875 30.859375 
Q 16.703125 27.09375 16.703125 20.515625 
Q 16.703125 13.921875 20.71875 10.15625 
Q 24.75 6.390625 31.78125 6.390625 
Q 38.8125 6.390625 42.859375 10.171875 
Q 46.921875 13.96875 46.921875 20.515625 
Q 46.921875 27.09375 42.890625 30.859375 
Q 38.875 34.625 31.78125 34.625 
M 21.921875 38.8125 
Q 15.578125 40.375 12.03125 44.71875 
Q 8.5 49.078125 8.5 55.328125 
Q 8.5 64.0625 14.71875 69.140625 
Q 20.953125 74.21875 31.78125 74.21875 
Q 42.671875 74.21875 48.875 69.140625 
Q 55.078125 64.0625 55.078125 55.328125 
Q 55.078125 49.078125 51.53125 44.71875 
Q 48 40.375 41.703125 38.8125 
Q 48.828125 37.15625 52.796875 32.3125 
Q 56.78125 27.484375 56.78125 20.515625 
Q 56.78125 9.90625 50.3125 4.234375 
Q 43.84375 -1.421875 31.78125 -1.421875 
Q 19.734375 -1.421875 13.25 4.234375 
Q 6.78125 9.90625 6.78125 20.515625 
Q 6.78125 27.484375 10.78125 32.3125 
Q 14.796875 37.15625 21.921875 38.8125 
M 18.3125 54.390625 
Q 18.3125 48.734375 21.84375 45.5625 
Q 25.390625 42.390625 31.78125 42.390625 
Q 38.140625 42.390625 41.71875 45.5625 
Q 45.3125 48.734375 45.3125 54.390625 
Q 45.3125 60.0625 41.71875 63.234375 
Q 38.140625 66.40625 31.78125 66.40625 
Q 25.390625 66.40625 21.84375 63.234375 
Q 18.3125 60.0625 18.3125 54.390625 
" id="DejaVuSans-38"/>
      </defs>
      <g style="fill:#d2d2d2;" transform="translate(177.168423 187.813969)scale(0.13 -0.13)">
       <use xlink:href="#DejaVuSans-30"/>
       <use x="63.623047" xlink:href="#DejaVuSans-2e"/>
       <use x="95.410156" xlink:href="#DejaVuSans-38"/>
      </g>
     </g>
    </g>
    <g id="text_7">
     <!-- Proportion of UCLA wins -->
     <defs>
      <path d="M 19.671875 64.796875 
L 19.671875 37.40625 
L 32.078125 37.40625 
Q 38.96875 37.40625 42.71875 40.96875 
Q 46.484375 44.53125 46.484375 51.125 
Q 46.484375 57.671875 42.71875 61.234375 
Q 38.96875 64.796875 32.078125 64.796875 
z
M 9.8125 72.90625 
L 32.078125 72.90625 
Q 44.34375 72.90625 50.609375 67.359375 
Q 56.890625 61.8125 56.890625 51.125 
Q 56.890625 40.328125 50.609375 34.8125 
Q 44.34375 29.296875 32.078125 29.296875 
L 19.671875 29.296875 
L 19.671875 0 
L 9.8125 0 
z
" id="DejaVuSans-50"/>
      <path d="M 41.109375 46.296875 
Q 39.59375 47.171875 37.8125 47.578125 
Q 36.03125 48 33.890625 48 
Q 26.265625 48 22.1875 43.046875 
Q 18.109375 38.09375 18.109375 28.8125 
L 18.109375 0 
L 9.078125 0 
L 9.078125 54.6875 
L 18.109375 54.6875 
L 18.109375 46.1875 
Q 20.953125 51.171875 25.484375 53.578125 
Q 30.03125 56 36.53125 56 
Q 37.453125 56 38.578125 55.875 
Q 39.703125 55.765625 41.0625 55.515625 
z
" id="DejaVuSans-72"/>
      <path d="M 30.609375 48.390625 
Q 23.390625 48.390625 19.1875 42.75 
Q 14.984375 37.109375 14.984375 27.296875 
Q 14.984375 17.484375 19.15625 11.84375 
Q 23.34375 6.203125 30.609375 6.203125 
Q 37.796875 6.203125 41.984375 11.859375 
Q 46.1875 17.53125 46.1875 27.296875 
Q 46.1875 37.015625 41.984375 42.703125 
Q 37.796875 48.390625 30.609375 48.390625 
M 30.609375 56 
Q 42.328125 56 49.015625 48.375 
Q 55.71875 40.765625 55.71875 27.296875 
Q 55.71875 13.875 49.015625 6.21875 
Q 42.328125 -1.421875 30.609375 -1.421875 
Q 18.84375 -1.421875 12.171875 6.21875 
Q 5.515625 13.875 5.515625 27.296875 
Q 5.515625 40.765625 12.171875 48.375 
Q 18.84375 56 30.609375 56 
" id="DejaVuSans-6f"/>
      <path d="M 18.109375 8.203125 
L 18.109375 -20.796875 
L 9.078125 -20.796875 
L 9.078125 54.6875 
L 18.109375 54.6875 
L 18.109375 46.390625 
Q 20.953125 51.265625 25.265625 53.625 
Q 29.59375 56 35.59375 56 
Q 45.5625 56 51.78125 48.09375 
Q 58.015625 40.1875 58.015625 27.296875 
Q 58.015625 14.40625 51.78125 6.484375 
Q 45.5625 -1.421875 35.59375 -1.421875 
Q 29.59375 -1.421875 25.265625 0.953125 
Q 20.953125 3.328125 18.109375 8.203125 
M 48.6875 27.296875 
Q 48.6875 37.203125 44.609375 42.84375 
Q 40.53125 48.484375 33.40625 48.484375 
Q 26.265625 48.484375 22.1875 42.84375 
Q 18.109375 37.203125 18.109375 27.296875 
Q 18.109375 17.390625 22.1875 11.75 
Q 26.265625 6.109375 33.40625 6.109375 
Q 40.53125 6.109375 44.609375 11.75 
Q 48.6875 17.390625 48.6875 27.296875 
" id="DejaVuSans-70"/>
      <path d="M 18.3125 70.21875 
L 18.3125 54.6875 
L 36.8125 54.6875 
L 36.8125 47.703125 
L 18.3125 47.703125 
L 18.3125 18.015625 
Q 18.3125 11.328125 20.140625 9.421875 
Q 21.96875 7.515625 27.59375 7.515625 
L 36.8125 7.515625 
L 36.8125 0 
L 27.59375 0 
Q 17.1875 0 13.234375 3.875 
Q 9.28125 7.765625 9.28125 18.015625 
L 9.28125 47.703125 
L 2.6875 47.703125 
L 2.6875 54.6875 
L 9.28125 54.6875 
L 9.28125 70.21875 
z
" id="DejaVuSans-74"/>
      <path d="M 9.421875 54.6875 
L 18.40625 54.6875 
L 18.40625 0 
L 9.421875 0 
z
M 9.421875 75.984375 
L 18.40625 75.984375 
L 18.40625 64.59375 
L 9.421875 64.59375 
z
" id="DejaVuSans-69"/>
      <path d="M 54.890625 33.015625 
L 54.890625 0 
L 45.90625 0 
L 45.90625 32.71875 
Q 45.90625 40.484375 42.875 44.328125 
Q 39.84375 48.1875 33.796875 48.1875 
Q 26.515625 48.1875 22.3125 43.546875 
Q 18.109375 38.921875 18.109375 30.90625 
L 18.109375 0 
L 9.078125 0 
L 9.078125 54.6875 
L 18.109375 54.6875 
L 18.109375 46.1875 
Q 21.34375 51.125 25.703125 53.5625 
Q 30.078125 56 35.796875 56 
Q 45.21875 56 50.046875 50.171875 
Q 54.890625 44.34375 54.890625 33.015625 
" id="DejaVuSans-6e"/>
      <path id="DejaVuSans-20"/>
      <path d="M 37.109375 75.984375 
L 37.109375 68.5 
L 28.515625 68.5 
Q 23.6875 68.5 21.796875 66.546875 
Q 19.921875 64.59375 19.921875 59.515625 
L 19.921875 54.6875 
L 34.71875 54.6875 
L 34.71875 47.703125 
L 19.921875 47.703125 
L 19.921875 0 
L 10.890625 0 
L 10.890625 47.703125 
L 2.296875 47.703125 
L 2.296875 54.6875 
L 10.890625 54.6875 
L 10.890625 58.5 
Q 10.890625 67.625 15.140625 71.796875 
Q 19.390625 75.984375 28.609375 75.984375 
z
" id="DejaVuSans-66"/>
      <path d="M 8.6875 72.90625 
L 18.609375 72.90625 
L 18.609375 28.609375 
Q 18.609375 16.890625 22.84375 11.734375 
Q 27.09375 6.59375 36.625 6.59375 
Q 46.09375 6.59375 50.34375 11.734375 
Q 54.59375 16.890625 54.59375 28.609375 
L 54.59375 72.90625 
L 64.5 72.90625 
L 64.5 27.390625 
Q 64.5 13.140625 57.4375 5.859375 
Q 50.390625 -1.421875 36.625 -1.421875 
Q 22.796875 -1.421875 15.734375 5.859375 
Q 8.6875 13.140625 8.6875 27.390625 
z
" id="DejaVuSans-55"/>
      <path d="M 64.40625 67.28125 
L 64.40625 56.890625 
Q 59.421875 61.53125 53.78125 63.8125 
Q 48.140625 66.109375 41.796875 66.109375 
Q 29.296875 66.109375 22.65625 58.46875 
Q 16.015625 50.828125 16.015625 36.375 
Q 16.015625 21.96875 22.65625 14.328125 
Q 29.296875 6.6875 41.796875 6.6875 
Q 48.140625 6.6875 53.78125 8.984375 
Q 59.421875 11.28125 64.40625 15.921875 
L 64.40625 5.609375 
Q 59.234375 2.09375 53.4375 0.328125 
Q 47.65625 -1.421875 41.21875 -1.421875 
Q 24.65625 -1.421875 15.125 8.703125 
Q 5.609375 18.84375 5.609375 36.375 
Q 5.609375 53.953125 15.125 64.078125 
Q 24.65625 74.21875 41.21875 74.21875 
Q 47.75 74.21875 53.53125 72.484375 
Q 59.328125 70.75 64.40625 67.28125 
" id="DejaVuSans-43"/>
      <path d="M 9.8125 72.90625 
L 19.671875 72.90625 
L 19.671875 8.296875 
L 55.171875 8.296875 
L 55.171875 0 
L 9.8125 0 
z
" id="DejaVuSans-4c"/>
      <path d="M 34.1875 63.1875 
L 20.796875 26.90625 
L 47.609375 26.90625 
z
M 28.609375 72.90625 
L 39.796875 72.90625 
L 67.578125 0 
L 57.328125 0 
L 50.6875 18.703125 
L 17.828125 18.703125 
L 11.1875 0 
L 0.78125 0 
z
" id="DejaVuSans-41"/>
      <path d="M 4.203125 54.6875 
L 13.1875 54.6875 
L 24.421875 12.015625 
L 35.59375 54.6875 
L 46.1875 54.6875 
L 57.421875 12.015625 
L 68.609375 54.6875 
L 77.59375 54.6875 
L 63.28125 0 
L 52.6875 0 
L 40.921875 44.828125 
L 29.109375 0 
L 18.5 0 
z
" id="DejaVuSans-77"/>
      <path d="M 44.28125 53.078125 
L 44.28125 44.578125 
Q 40.484375 46.53125 36.375 47.5 
Q 32.28125 48.484375 27.875 48.484375 
Q 21.1875 48.484375 17.84375 46.4375 
Q 14.5 44.390625 14.5 40.28125 
Q 14.5 37.15625 16.890625 35.375 
Q 19.28125 33.59375 26.515625 31.984375 
L 29.59375 31.296875 
Q 39.15625 29.25 43.1875 25.515625 
Q 47.21875 21.78125 47.21875 15.09375 
Q 47.21875 7.46875 41.1875 3.015625 
Q 35.15625 -1.421875 24.609375 -1.421875 
Q 20.21875 -1.421875 15.453125 -0.5625 
Q 10.6875 0.296875 5.421875 2 
L 5.421875 11.28125 
Q 10.40625 8.6875 15.234375 7.390625 
Q 20.0625 6.109375 24.8125 6.109375 
Q 31.15625 6.109375 34.5625 8.28125 
Q 37.984375 10.453125 37.984375 14.40625 
Q 37.984375 18.0625 35.515625 20.015625 
Q 33.0625 21.96875 24.703125 23.78125 
L 21.578125 24.515625 
Q 13.234375 26.265625 9.515625 29.90625 
Q 5.8125 33.546875 5.8125 39.890625 
Q 5.8125 47.609375 11.28125 51.796875 
Q 16.75 56 26.8125 56 
Q 31.78125 56 36.171875 55.265625 
Q 40.578125 54.546875 44.28125 53.078125 
" id="DejaVuSans-73"/>
     </defs>
     <g style="fill:#d2d2d2;" transform="translate(24.693125 202.155375)scale(0.14 -0.14)">
      <use xlink:href="#DejaVuSans-50"/>
      <use x="60.287109" xlink:href="#DejaVuSans-72"/>
      <use x="101.369141" xlink:href="#DejaVuSans-6f"/>
      <use x="162.550781" xlink:href="#DejaVuSans-70"/>
      <use x="226.027344" xlink:href="#DejaVuSans-6f"/>
      <use x="287.208984" xlink:href="#DejaVuSans-72"/>
      <use x="328.322266" xlink:href="#DejaVuSans-74"/>
      <use x="367.53125" xlink:href="#DejaVuSans-69"/>
      <use x="395.314453" xlink:href="#DejaVuSans-6f"/>
      <use x="456.496094" xlink:href="#DejaVuSans-6e"/>
      <use x="519.875" xlink:href="#DejaVuSans-20"/>
      <use x="551.662109" xlink:href="#DejaVuSans-6f"/>
      <use x="612.84375" xlink:href="#DejaVuSans-66"/>
      <use x="648.048828" xlink:href="#DejaVuSans-20"/>
      <use x="679.835938" xlink:href="#DejaVuSans-55"/>
      <use x="753.029297" xlink:href="#DejaVuSans-43"/>
      <use x="822.853516" xlink:href="#DejaVuSans-4c"/>
      <use x="878.597656" xlink:href="#DejaVuSans-41"/>
      <use x="947.005859" xlink:href="#DejaVuSans-20"/>
      <use x="978.792969" xlink:href="#DejaVuSans-77"/>
      <use x="1060.580078" xlink:href="#DejaVuSans-69"/>
      <use x="1088.363281" xlink:href="#DejaVuSans-6e"/>
      <use x="1151.742188" xlink:href="#DejaVuSans-73"/>
     </g>
    </g>
   </g>
   <g id="matplotlib.axis_2"/>
   <g id="line2d_7">
    <path clip-path="url(#p9608a8043e)" d="M 104.50874 171.936 
L 104.50874 53.7408 
" style="fill:none;stroke:#d9534f;stroke-dasharray:5.6,2.4;stroke-dashoffset:0;stroke-width:1.5;"/>
   </g>
   <g id="line2d_8">
    <path d="M 47.083987 171.936 
L 47.083987 53.7408 
" style="fill:none;stroke:#d2d2d2;stroke-dasharray:5.6,2.4;stroke-dashoffset:0;stroke-width:1.5;"/>
   </g>
   <g id="patch_23">
    <path d="M 12.96 171.936 
L 204.96 171.936 
" style="fill:none;stroke:#d2d2d2;stroke-linecap:square;stroke-linejoin:miter;"/>
   </g>
   <g id="text_8">
    <!-- $\hat{p}=0.562$ -->
    <defs>
     <path d="M -28.609375 79.984375 
L -21.390625 79.984375 
L -9.421875 61.625 
L -16.21875 61.625 
L -25 73.578125 
L -33.796875 61.625 
L -40.578125 61.625 
z
M -25 56 
z
" id="DejaVuSans-302"/>
     <path d="M 49.609375 33.6875 
Q 49.609375 40.875 46.484375 44.671875 
Q 43.359375 48.484375 37.5 48.484375 
Q 33.5 48.484375 29.859375 46.4375 
Q 26.21875 44.390625 23.390625 40.484375 
Q 20.609375 36.625 18.9375 31.15625 
Q 17.28125 25.6875 17.28125 20.3125 
Q 17.28125 13.484375 20.40625 9.796875 
Q 23.53125 6.109375 29.296875 6.109375 
Q 33.546875 6.109375 37.1875 8.109375 
Q 40.828125 10.109375 43.40625 13.921875 
Q 46.1875 17.921875 47.890625 23.34375 
Q 49.609375 28.765625 49.609375 33.6875 
M 21.78125 46.390625 
Q 25.390625 51.125 30.296875 53.5625 
Q 35.203125 56 41.21875 56 
Q 49.609375 56 54.25 50.5 
Q 58.890625 45.015625 58.890625 35.109375 
Q 58.890625 27 56 19.65625 
Q 53.125 12.3125 47.703125 6.5 
Q 44.09375 2.640625 39.546875 0.609375 
Q 35.015625 -1.421875 29.984375 -1.421875 
Q 24.171875 -1.421875 20.21875 1 
Q 16.265625 3.421875 14.3125 8.203125 
L 8.6875 -20.796875 
L -0.296875 -20.796875 
L 14.40625 54.6875 
L 23.390625 54.6875 
z
" id="DejaVuSans-Oblique-70"/>
     <path d="M 10.59375 45.40625 
L 73.1875 45.40625 
L 73.1875 37.203125 
L 10.59375 37.203125 
z
M 10.59375 25.484375 
L 73.1875 25.484375 
L 73.1875 17.1875 
L 10.59375 17.1875 
z
" id="DejaVuSans-3d"/>
     <path d="M 19.1875 8.296875 
L 53.609375 8.296875 
L 53.609375 0 
L 7.328125 0 
L 7.328125 8.296875 
Q 12.9375 14.109375 22.625 23.890625 
Q 32.328125 33.6875 34.8125 36.53125 
Q 39.546875 41.84375 41.421875 45.53125 
Q 43.3125 49.21875 43.3125 52.78125 
Q 43.3125 58.59375 39.234375 62.25 
Q 35.15625 65.921875 28.609375 65.921875 
Q 23.96875 65.921875 18.8125 64.3125 
Q 13.671875 62.703125 7.8125 59.421875 
L 7.8125 69.390625 
Q 13.765625 71.78125 18.9375 73 
Q 24.125 74.21875 28.421875 74.21875 
Q 39.75 74.21875 46.484375 68.546875 
Q 53.21875 62.890625 53.21875 53.421875 
Q 53.21875 48.921875 51.53125 44.890625 
Q 49.859375 40.875 45.40625 35.40625 
Q 44.1875 33.984375 37.640625 27.21875 
Q 31.109375 20.453125 19.1875 8.296875 
" id="DejaVuSans-32"/>
    </defs>
    <g style="fill:#d9534f;" transform="translate(104.50874 47.52)scale(0.12 -0.12)">
     <use transform="translate(64.447266 13.015625)" xlink:href="#DejaVuSans-302"/>
     <use transform="translate(0 0.515625)" xlink:href="#DejaVuSans-Oblique-70"/>
     <use transform="translate(82.958984 0.515625)" xlink:href="#DejaVuSans-3d"/>
     <use transform="translate(186.230469 0.515625)" xlink:href="#DejaVuSans-30"/>
     <use transform="translate(249.853516 0.515625)" xlink:href="#DejaVuSans-2e"/>
     <use transform="translate(281.640625 0.515625)" xlink:href="#DejaVuSans-35"/>
     <use transform="translate(345.263672 0.515625)" xlink:href="#DejaVuSans-36"/>
     <use transform="translate(408.886719 0.515625)" xlink:href="#DejaVuSans-32"/>
    </g>
   </g>
   <g id="text_9">
    <!-- $\pi_0=0.48$ -->
    <defs>
     <path d="M 9.125 54.6875 
L 61.53125 54.6875 
L 59.765625 45.703125 
L 52.875 45.703125 
L 46.34375 12.109375 
Q 45.65625 8.59375 46.578125 7.03125 
Q 47.46875 5.515625 50.140625 5.515625 
Q 50.875 5.515625 51.953125 5.671875 
Q 53.078125 5.765625 53.421875 5.8125 
L 52.15625 -0.6875 
Q 50.34375 -1.3125 48.484375 -1.609375 
Q 46.578125 -1.90625 44.78125 -1.90625 
Q 38.921875 -1.90625 37.3125 1.265625 
Q 35.6875 4.5 37.359375 13.09375 
L 43.703125 45.703125 
L 23.53125 45.703125 
L 14.65625 0 
L 5.46875 0 
L 14.359375 45.703125 
L 7.375 45.703125 
z
" id="DejaVuSans-Oblique-3c0"/>
    </defs>
    <g style="fill:#f0ad4e;" transform="translate(12.96 47.52)scale(0.12 -0.12)">
     <use transform="translate(0 0.78125)" xlink:href="#DejaVuSans-Oblique-3c0"/>
     <use transform="translate(60.205078 -15.625)scale(0.7)" xlink:href="#DejaVuSans-30"/>
     <use transform="translate(126.958008 0.78125)" xlink:href="#DejaVuSans-3d"/>
     <use transform="translate(230.229492 0.78125)" xlink:href="#DejaVuSans-30"/>
     <use transform="translate(293.852539 0.78125)" xlink:href="#DejaVuSans-2e"/>
     <use transform="translate(325.639648 0.78125)" xlink:href="#DejaVuSans-34"/>
     <use transform="translate(389.262695 0.78125)" xlink:href="#DejaVuSans-38"/>
    </g>
   </g>
   <g id="text_10">
    <!-- 48 -->
    <g style="fill:#d2d2d2;" transform="translate(121.963286 109.728)scale(0.12 -0.12)">
     <use xlink:href="#DejaVuSans-34"/>
     <use x="63.623047" xlink:href="#DejaVuSans-38"/>
    </g>
   </g>
   <g id="text_11">
    <!-- 52 -->
    <g style="fill:#d2d2d2;" transform="translate(14.359441 109.728)scale(0.12 -0.12)">
     <use xlink:href="#DejaVuSans-35"/>
     <use x="63.623047" xlink:href="#DejaVuSans-32"/>
    </g>
   </g>
   <g id="text_12">
    <!-- p-value -->
    <defs>
     <path d="M 4.890625 31.390625 
L 31.203125 31.390625 
L 31.203125 23.390625 
L 4.890625 23.390625 
z
" id="DejaVuSans-2d"/>
     <path d="M 2.984375 54.6875 
L 12.5 54.6875 
L 29.59375 8.796875 
L 46.6875 54.6875 
L 56.203125 54.6875 
L 35.6875 0 
L 23.484375 0 
z
" id="DejaVuSans-76"/>
     <path d="M 34.28125 27.484375 
Q 23.390625 27.484375 19.1875 25 
Q 14.984375 22.515625 14.984375 16.5 
Q 14.984375 11.71875 18.140625 8.90625 
Q 21.296875 6.109375 26.703125 6.109375 
Q 34.1875 6.109375 38.703125 11.40625 
Q 43.21875 16.703125 43.21875 25.484375 
L 43.21875 27.484375 
z
M 52.203125 31.203125 
L 52.203125 0 
L 43.21875 0 
L 43.21875 8.296875 
Q 40.140625 3.328125 35.546875 0.953125 
Q 30.953125 -1.421875 24.3125 -1.421875 
Q 15.921875 -1.421875 10.953125 3.296875 
Q 6 8.015625 6 15.921875 
Q 6 25.140625 12.171875 29.828125 
Q 18.359375 34.515625 30.609375 34.515625 
L 43.21875 34.515625 
L 43.21875 35.40625 
Q 43.21875 41.609375 39.140625 45 
Q 35.0625 48.390625 27.6875 48.390625 
Q 23 48.390625 18.546875 47.265625 
Q 14.109375 46.140625 10.015625 43.890625 
L 10.015625 52.203125 
Q 14.9375 54.109375 19.578125 55.046875 
Q 24.21875 56 28.609375 56 
Q 40.484375 56 46.34375 49.84375 
Q 52.203125 43.703125 52.203125 31.203125 
" id="DejaVuSans-61"/>
     <path d="M 9.421875 75.984375 
L 18.40625 75.984375 
L 18.40625 0 
L 9.421875 0 
z
" id="DejaVuSans-6c"/>
     <path d="M 8.5 21.578125 
L 8.5 54.6875 
L 17.484375 54.6875 
L 17.484375 21.921875 
Q 17.484375 14.15625 20.5 10.265625 
Q 23.53125 6.390625 29.59375 6.390625 
Q 36.859375 6.390625 41.078125 11.03125 
Q 45.3125 15.671875 45.3125 23.6875 
L 45.3125 54.6875 
L 54.296875 54.6875 
L 54.296875 0 
L 45.3125 0 
L 45.3125 8.40625 
Q 42.046875 3.421875 37.71875 1 
Q 33.40625 -1.421875 27.6875 -1.421875 
Q 18.265625 -1.421875 13.375 4.4375 
Q 8.5 10.296875 8.5 21.578125 
M 31.109375 56 
z
" id="DejaVuSans-75"/>
     <path d="M 56.203125 29.59375 
L 56.203125 25.203125 
L 14.890625 25.203125 
Q 15.484375 15.921875 20.484375 11.0625 
Q 25.484375 6.203125 34.421875 6.203125 
Q 39.59375 6.203125 44.453125 7.46875 
Q 49.3125 8.734375 54.109375 11.28125 
L 54.109375 2.78125 
Q 49.265625 0.734375 44.1875 -0.34375 
Q 39.109375 -1.421875 33.890625 -1.421875 
Q 20.796875 -1.421875 13.15625 6.1875 
Q 5.515625 13.8125 5.515625 26.8125 
Q 5.515625 40.234375 12.765625 48.109375 
Q 20.015625 56 32.328125 56 
Q 43.359375 56 49.78125 48.890625 
Q 56.203125 41.796875 56.203125 29.59375 
M 47.21875 32.234375 
Q 47.125 39.59375 43.09375 43.984375 
Q 39.0625 48.390625 32.421875 48.390625 
Q 24.90625 48.390625 20.390625 44.140625 
Q 15.875 39.890625 15.1875 32.171875 
z
" id="DejaVuSans-65"/>
    </defs>
    <g style="fill:#5cb85c;" transform="translate(152.596364 152.277825)scale(0.12 -0.12)">
     <use xlink:href="#DejaVuSans-70"/>
     <use x="63.476562" xlink:href="#DejaVuSans-2d"/>
     <use x="99.529297" xlink:href="#DejaVuSans-76"/>
     <use x="158.708984" xlink:href="#DejaVuSans-61"/>
     <use x="219.988281" xlink:href="#DejaVuSans-6c"/>
     <use x="247.771484" xlink:href="#DejaVuSans-75"/>
     <use x="311.150391" xlink:href="#DejaVuSans-65"/>
    </g>
    <!-- 0.010 -->
    <defs>
     <path d="M 12.40625 8.296875 
L 28.515625 8.296875 
L 28.515625 63.921875 
L 10.984375 60.40625 
L 10.984375 69.390625 
L 28.421875 72.90625 
L 38.28125 72.90625 
L 38.28125 8.296875 
L 54.390625 8.296875 
L 54.390625 0 
L 12.40625 0 
z
" id="DejaVuSans-31"/>
    </defs>
    <g style="fill:#5cb85c;" transform="translate(152.596364 165.7152)scale(0.12 -0.12)">
     <use xlink:href="#DejaVuSans-30"/>
     <use x="63.623047" xlink:href="#DejaVuSans-2e"/>
     <use x="95.410156" xlink:href="#DejaVuSans-30"/>
     <use x="159.033203" xlink:href="#DejaVuSans-31"/>
     <use x="222.65625" xlink:href="#DejaVuSans-30"/>
    </g>
   </g>
  </g>
  <g id="axes_2">
   <g id="patch_24">
    <path d="M 228 171.936 
L 420 171.936 
L 420 47.52 
L 228 47.52 
z
" style="fill:none;"/>
   </g>
   <g id="patch_25">
    <path clip-path="url(#p5dfeda61a7)" d="M 266.273823 171.936 
L 270.199343 171.936 
L 270.199343 171.529093 
L 266.273823 171.529093 
z
" style="fill:#5bc0de;stroke:#d2d2d2;stroke-linejoin:miter;"/>
   </g>
   <g id="patch_26">
    <path clip-path="url(#p5dfeda61a7)" d="M 270.199343 171.936 
L 274.124863 171.936 
L 274.124863 170.145608 
L 270.199343 170.145608 
z
" style="fill:#5bc0de;stroke:#d2d2d2;stroke-linejoin:miter;"/>
   </g>
   <g id="patch_27">
    <path clip-path="url(#p5dfeda61a7)" d="M 274.124863 171.936 
L 278.050383 171.936 
L 278.050383 167.948308 
L 274.124863 167.948308 
z
" style="fill:#5bc0de;stroke:#d2d2d2;stroke-linejoin:miter;"/>
   </g>
   <g id="patch_28">
    <path clip-path="url(#p5dfeda61a7)" d="M 278.050383 171.936 
L 281.975904 171.936 
L 281.975904 159.81016 
L 278.050383 159.81016 
z
" style="fill:#5bc0de;stroke:#d2d2d2;stroke-linejoin:miter;"/>
   </g>
   <g id="patch_29">
    <path clip-path="url(#p5dfeda61a7)" d="M 281.975904 171.936 
L 285.901424 171.936 
L 285.901424 159.077727 
L 281.975904 159.077727 
z
" style="fill:#5bc0de;stroke:#d2d2d2;stroke-linejoin:miter;"/>
   </g>
   <g id="patch_30">
    <path clip-path="url(#p5dfeda61a7)" d="M 285.901424 171.936 
L 289.826944 171.936 
L 289.826944 133.117036 
L 285.901424 133.117036 
z
" style="fill:#5bc0de;stroke:#d2d2d2;stroke-linejoin:miter;"/>
   </g>
   <g id="patch_31">
    <path clip-path="url(#p5dfeda61a7)" d="M 289.826944 171.936 
L 293.752464 171.936 
L 293.752464 109.109501 
L 289.826944 109.109501 
z
" style="fill:#5bc0de;stroke:#d2d2d2;stroke-linejoin:miter;"/>
   </g>
   <g id="patch_32">
    <path clip-path="url(#p5dfeda61a7)" d="M 293.752464 171.936 
L 297.677985 171.936 
L 297.677985 85.590254 
L 293.752464 85.590254 
z
" style="fill:#5bc0de;stroke:#d2d2d2;stroke-linejoin:miter;"/>
   </g>
   <g id="patch_33">
    <path clip-path="url(#p5dfeda61a7)" d="M 297.677985 171.936 
L 301.603505 171.936 
L 301.603505 61.6641 
L 297.677985 61.6641 
z
" style="fill:#5bc0de;stroke:#d2d2d2;stroke-linejoin:miter;"/>
   </g>
   <g id="patch_34">
    <path clip-path="url(#p5dfeda61a7)" d="M 301.603505 171.936 
L 305.529025 171.936 
L 305.529025 85.427491 
L 301.603505 85.427491 
z
" style="fill:#5bc0de;stroke:#d2d2d2;stroke-linejoin:miter;"/>
   </g>
   <g id="patch_35">
    <path clip-path="url(#p5dfeda61a7)" d="M 305.529025 171.936 
L 309.454545 171.936 
L 309.454545 53.444571 
L 305.529025 53.444571 
z
" style="fill:#5bc0de;stroke:#d2d2d2;stroke-linejoin:miter;"/>
   </g>
   <g id="patch_36">
    <path clip-path="url(#p5dfeda61a7)" d="M 309.454545 171.936 
L 313.380066 171.936 
L 313.380066 65.407648 
L 309.454545 65.407648 
z
" style="fill:#5bc0de;stroke:#d2d2d2;stroke-linejoin:miter;"/>
   </g>
   <g id="patch_37">
    <path clip-path="url(#p5dfeda61a7)" d="M 313.380066 171.936 
L 317.305586 171.936 
L 317.305586 98.367146 
L 313.380066 98.367146 
z
" style="fill:#5bc0de;stroke:#d2d2d2;stroke-linejoin:miter;"/>
   </g>
   <g id="patch_38">
    <path clip-path="url(#p5dfeda61a7)" d="M 317.305586 171.936 
L 321.231106 171.936 
L 321.231106 122.374681 
L 317.305586 122.374681 
z
" style="fill:#5bc0de;stroke:#d2d2d2;stroke-linejoin:miter;"/>
   </g>
   <g id="patch_39">
    <path clip-path="url(#p5dfeda61a7)" d="M 321.231106 171.936 
L 325.156627 171.936 
L 325.156627 150.369909 
L 321.231106 150.369909 
z
" style="fill:#5bc0de;stroke:#d2d2d2;stroke-linejoin:miter;"/>
   </g>
   <g id="patch_40">
    <path clip-path="url(#p5dfeda61a7)" d="M 325.156627 171.936 
L 329.082147 171.936 
L 329.082147 155.496942 
L 325.156627 155.496942 
z
" style="fill:#5bc0de;stroke:#d2d2d2;stroke-linejoin:miter;"/>
   </g>
   <g id="patch_41">
    <path clip-path="url(#p5dfeda61a7)" d="M 329.082147 171.936 
L 333.007667 171.936 
L 333.007667 164.041997 
L 329.082147 164.041997 
z
" style="fill:#5bc0de;stroke:#d2d2d2;stroke-linejoin:miter;"/>
   </g>
   <g id="patch_42">
    <path clip-path="url(#p5dfeda61a7)" d="M 333.007667 171.936 
L 336.933187 171.936 
L 336.933187 169.250411 
L 333.007667 169.250411 
z
" style="fill:#5bc0de;stroke:#d2d2d2;stroke-linejoin:miter;"/>
   </g>
   <g id="patch_43">
    <path clip-path="url(#p5dfeda61a7)" d="M 336.933187 171.936 
L 340.858708 171.936 
L 340.858708 171.040804 
L 336.933187 171.040804 
z
" style="fill:#5bc0de;stroke:#d2d2d2;stroke-linejoin:miter;"/>
   </g>
   <g id="patch_44">
    <path clip-path="url(#p5dfeda61a7)" d="M 340.858708 171.936 
L 344.784228 171.936 
L 344.784228 171.691856 
L 340.858708 171.691856 
z
" style="fill:#5bc0de;stroke:#d2d2d2;stroke-linejoin:miter;"/>
   </g>
   <g id="matplotlib.axis_3">
    <g id="xtick_7">
     <g id="line2d_9">
      <g>
       <use style="fill:#d2d2d2;stroke:#d2d2d2;" x="228" xlink:href="#m337ac8f194" y="171.936"/>
      </g>
     </g>
     <g id="text_13">
      <!-- 0.3 -->
      <g style="fill:#d2d2d2;" transform="translate(217.662969 187.813969)scale(0.13 -0.13)">
       <use xlink:href="#DejaVuSans-30"/>
       <use x="63.623047" xlink:href="#DejaVuSans-2e"/>
       <use x="95.410156" xlink:href="#DejaVuSans-33"/>
      </g>
     </g>
    </g>
    <g id="xtick_8">
     <g id="line2d_10">
      <g>
       <use style="fill:#d2d2d2;stroke:#d2d2d2;" x="262.909091" xlink:href="#m337ac8f194" y="171.936"/>
      </g>
     </g>
     <g id="text_14">
      <!-- 0.4 -->
      <g style="fill:#d2d2d2;" transform="translate(252.57206 187.813969)scale(0.13 -0.13)">
       <use xlink:href="#DejaVuSans-30"/>
       <use x="63.623047" xlink:href="#DejaVuSans-2e"/>
       <use x="95.410156" xlink:href="#DejaVuSans-34"/>
      </g>
     </g>
    </g>
    <g id="xtick_9">
     <g id="line2d_11">
      <g>
       <use style="fill:#d2d2d2;stroke:#d2d2d2;" x="297.818182" xlink:href="#m337ac8f194" y="171.936"/>
      </g>
     </g>
     <g id="text_15">
      <!-- 0.5 -->
      <g style="fill:#d2d2d2;" transform="translate(287.481151 187.813969)scale(0.13 -0.13)">
       <use xlink:href="#DejaVuSans-30"/>
       <use x="63.623047" xlink:href="#DejaVuSans-2e"/>
       <use x="95.410156" xlink:href="#DejaVuSans-35"/>
      </g>
     </g>
    </g>
    <g id="xtick_10">
     <g id="line2d_12">
      <g>
       <use style="fill:#d2d2d2;stroke:#d2d2d2;" x="332.727273" xlink:href="#m337ac8f194" y="171.936"/>
      </g>
     </g>
     <g id="text_16">
      <!-- 0.6 -->
      <g style="fill:#d2d2d2;" transform="translate(322.390241 187.813969)scale(0.13 -0.13)">
       <use xlink:href="#DejaVuSans-30"/>
       <use x="63.623047" xlink:href="#DejaVuSans-2e"/>
       <use x="95.410156" xlink:href="#DejaVuSans-36"/>
      </g>
     </g>
    </g>
    <g id="xtick_11">
     <g id="line2d_13">
      <g>
       <use style="fill:#d2d2d2;stroke:#d2d2d2;" x="367.636364" xlink:href="#m337ac8f194" y="171.936"/>
      </g>
     </g>
     <g id="text_17">
      <!-- 0.7 -->
      <g style="fill:#d2d2d2;" transform="translate(357.299332 187.813969)scale(0.13 -0.13)">
       <use xlink:href="#DejaVuSans-30"/>
       <use x="63.623047" xlink:href="#DejaVuSans-2e"/>
       <use x="95.410156" xlink:href="#DejaVuSans-37"/>
      </g>
     </g>
    </g>
    <g id="xtick_12">
     <g id="line2d_14">
      <g>
       <use style="fill:#d2d2d2;stroke:#d2d2d2;" x="402.545455" xlink:href="#m337ac8f194" y="171.936"/>
      </g>
     </g>
     <g id="text_18">
      <!-- 0.8 -->
      <g style="fill:#d2d2d2;" transform="translate(392.208423 187.813969)scale(0.13 -0.13)">
       <use xlink:href="#DejaVuSans-30"/>
       <use x="63.623047" xlink:href="#DejaVuSans-2e"/>
       <use x="95.410156" xlink:href="#DejaVuSans-38"/>
      </g>
     </g>
    </g>
    <g id="text_19">
     <!-- Proportion of UCLA wins -->
     <g style="fill:#d2d2d2;" transform="translate(239.733125 202.155375)scale(0.14 -0.14)">
      <use xlink:href="#DejaVuSans-50"/>
      <use x="60.287109" xlink:href="#DejaVuSans-72"/>
      <use x="101.369141" xlink:href="#DejaVuSans-6f"/>
      <use x="162.550781" xlink:href="#DejaVuSans-70"/>
      <use x="226.027344" xlink:href="#DejaVuSans-6f"/>
      <use x="287.208984" xlink:href="#DejaVuSans-72"/>
      <use x="328.322266" xlink:href="#DejaVuSans-74"/>
      <use x="367.53125" xlink:href="#DejaVuSans-69"/>
      <use x="395.314453" xlink:href="#DejaVuSans-6f"/>
      <use x="456.496094" xlink:href="#DejaVuSans-6e"/>
      <use x="519.875" xlink:href="#DejaVuSans-20"/>
      <use x="551.662109" xlink:href="#DejaVuSans-6f"/>
      <use x="612.84375" xlink:href="#DejaVuSans-66"/>
      <use x="648.048828" xlink:href="#DejaVuSans-20"/>
      <use x="679.835938" xlink:href="#DejaVuSans-55"/>
      <use x="753.029297" xlink:href="#DejaVuSans-43"/>
      <use x="822.853516" xlink:href="#DejaVuSans-4c"/>
      <use x="878.597656" xlink:href="#DejaVuSans-41"/>
      <use x="947.005859" xlink:href="#DejaVuSans-20"/>
      <use x="978.792969" xlink:href="#DejaVuSans-77"/>
      <use x="1060.580078" xlink:href="#DejaVuSans-69"/>
      <use x="1088.363281" xlink:href="#DejaVuSans-6e"/>
      <use x="1151.742188" xlink:href="#DejaVuSans-73"/>
     </g>
    </g>
   </g>
   <g id="matplotlib.axis_4"/>
   <g id="line2d_15">
    <path clip-path="url(#p5dfeda61a7)" d="M 319.54874 171.936 
L 319.54874 53.7408 
" style="fill:none;stroke:#d9534f;stroke-dasharray:5.6,2.4;stroke-dashoffset:0;stroke-width:1.5;"/>
   </g>
   <g id="line2d_16">
    <path d="M 290.05126 171.936 
L 290.05126 53.7408 
" style="fill:none;stroke:#d2d2d2;stroke-dasharray:5.6,2.4;stroke-dashoffset:0;stroke-width:1.5;"/>
   </g>
   <g id="patch_45">
    <path d="M 228 171.936 
L 420 171.936 
" style="fill:none;stroke:#d2d2d2;stroke-linecap:square;stroke-linejoin:miter;"/>
   </g>
   <g id="text_20">
    <!-- $\hat{p}=0.562$ -->
    <g style="fill:#d9534f;" transform="translate(319.54874 47.52)scale(0.12 -0.12)">
     <use transform="translate(64.447266 13.015625)" xlink:href="#DejaVuSans-302"/>
     <use transform="translate(0 0.515625)" xlink:href="#DejaVuSans-Oblique-70"/>
     <use transform="translate(82.958984 0.515625)" xlink:href="#DejaVuSans-3d"/>
     <use transform="translate(186.230469 0.515625)" xlink:href="#DejaVuSans-30"/>
     <use transform="translate(249.853516 0.515625)" xlink:href="#DejaVuSans-2e"/>
     <use transform="translate(281.640625 0.515625)" xlink:href="#DejaVuSans-35"/>
     <use transform="translate(345.263672 0.515625)" xlink:href="#DejaVuSans-36"/>
     <use transform="translate(408.886719 0.515625)" xlink:href="#DejaVuSans-32"/>
    </g>
   </g>
   <g id="text_21">
    <!-- $\pi_0=0.52$ -->
    <g style="fill:#f0ad4e;" transform="translate(228 47.52)scale(0.12 -0.12)">
     <use transform="translate(0 0.78125)" xlink:href="#DejaVuSans-Oblique-3c0"/>
     <use transform="translate(60.205078 -15.625)scale(0.7)" xlink:href="#DejaVuSans-30"/>
     <use transform="translate(126.958008 0.78125)" xlink:href="#DejaVuSans-3d"/>
     <use transform="translate(230.229492 0.78125)" xlink:href="#DejaVuSans-30"/>
     <use transform="translate(293.852539 0.78125)" xlink:href="#DejaVuSans-2e"/>
     <use transform="translate(325.639648 0.78125)" xlink:href="#DejaVuSans-35"/>
     <use transform="translate(389.262695 0.78125)" xlink:href="#DejaVuSans-32"/>
    </g>
   </g>
   <g id="text_22">
    <!-- 983 -->
    <defs>
     <path d="M 10.984375 1.515625 
L 10.984375 10.5 
Q 14.703125 8.734375 18.5 7.8125 
Q 22.3125 6.890625 25.984375 6.890625 
Q 35.75 6.890625 40.890625 13.453125 
Q 46.046875 20.015625 46.78125 33.40625 
Q 43.953125 29.203125 39.59375 26.953125 
Q 35.25 24.703125 29.984375 24.703125 
Q 19.046875 24.703125 12.671875 31.3125 
Q 6.296875 37.9375 6.296875 49.421875 
Q 6.296875 60.640625 12.9375 67.421875 
Q 19.578125 74.21875 30.609375 74.21875 
Q 43.265625 74.21875 49.921875 64.515625 
Q 56.59375 54.828125 56.59375 36.375 
Q 56.59375 19.140625 48.40625 8.859375 
Q 40.234375 -1.421875 26.421875 -1.421875 
Q 22.703125 -1.421875 18.890625 -0.6875 
Q 15.09375 0.046875 10.984375 1.515625 
M 30.609375 32.421875 
Q 37.25 32.421875 41.125 36.953125 
Q 45.015625 41.5 45.015625 49.421875 
Q 45.015625 57.28125 41.125 61.84375 
Q 37.25 66.40625 30.609375 66.40625 
Q 23.96875 66.40625 20.09375 61.84375 
Q 16.21875 57.28125 16.21875 49.421875 
Q 16.21875 41.5 20.09375 36.953125 
Q 23.96875 32.421875 30.609375 32.421875 
" id="DejaVuSans-39"/>
    </defs>
    <g style="fill:#d2d2d2;" transform="translate(337.003286 109.728)scale(0.12 -0.12)">
     <use xlink:href="#DejaVuSans-39"/>
     <use x="63.623047" xlink:href="#DejaVuSans-38"/>
     <use x="127.246094" xlink:href="#DejaVuSans-33"/>
    </g>
   </g>
   <g id="text_23">
    <!-- 860 -->
    <g style="fill:#d2d2d2;" transform="translate(249.691714 109.728)scale(0.12 -0.12)">
     <use xlink:href="#DejaVuSans-38"/>
     <use x="63.623047" xlink:href="#DejaVuSans-36"/>
     <use x="127.246094" xlink:href="#DejaVuSans-30"/>
    </g>
   </g>
   <g id="text_24">
    <!-- p-value -->
    <g style="fill:#5cb85c;" transform="translate(367.636364 152.277825)scale(0.12 -0.12)">
     <use xlink:href="#DejaVuSans-70"/>
     <use x="63.476562" xlink:href="#DejaVuSans-2d"/>
     <use x="99.529297" xlink:href="#DejaVuSans-76"/>
     <use x="158.708984" xlink:href="#DejaVuSans-61"/>
     <use x="219.988281" xlink:href="#DejaVuSans-6c"/>
     <use x="247.771484" xlink:href="#DejaVuSans-75"/>
     <use x="311.150391" xlink:href="#DejaVuSans-65"/>
    </g>
    <!-- 0.184 -->
    <g style="fill:#5cb85c;" transform="translate(367.636364 165.7152)scale(0.12 -0.12)">
     <use xlink:href="#DejaVuSans-30"/>
     <use x="63.623047" xlink:href="#DejaVuSans-2e"/>
     <use x="95.410156" xlink:href="#DejaVuSans-31"/>
     <use x="159.033203" xlink:href="#DejaVuSans-38"/>
     <use x="222.65625" xlink:href="#DejaVuSans-34"/>
    </g>
   </g>
  </g>
  <g id="axes_3">
   <g id="patch_46">
    <path d="M 443.04 171.936 
L 635.04 171.936 
L 635.04 47.52 
L 443.04 47.52 
z
" style="fill:none;"/>
   </g>
   <g id="patch_47">
    <path clip-path="url(#pb23e5dd735)" d="M 498.137481 171.936 
L 502.273297 171.936 
L 502.273297 171.782514 
L 498.137481 171.782514 
z
" style="fill:#5bc0de;stroke:#d2d2d2;stroke-linejoin:miter;"/>
   </g>
   <g id="patch_48">
    <path clip-path="url(#pb23e5dd735)" d="M 502.273297 171.936 
L 506.409113 171.936 
L 506.409113 171.398798 
L 502.273297 171.398798 
z
" style="fill:#5bc0de;stroke:#d2d2d2;stroke-linejoin:miter;"/>
   </g>
   <g id="patch_49">
    <path clip-path="url(#pb23e5dd735)" d="M 506.409113 171.936 
L 510.544929 171.936 
L 510.544929 170.70811 
L 506.409113 170.70811 
z
" style="fill:#5bc0de;stroke:#d2d2d2;stroke-linejoin:miter;"/>
   </g>
   <g id="patch_50">
    <path clip-path="url(#pb23e5dd735)" d="M 510.544929 171.936 
L 514.680745 171.936 
L 514.680745 167.715127 
L 510.544929 167.715127 
z
" style="fill:#5bc0de;stroke:#d2d2d2;stroke-linejoin:miter;"/>
   </g>
   <g id="patch_51">
    <path clip-path="url(#pb23e5dd735)" d="M 514.680745 171.936 
L 518.816561 171.936 
L 518.816561 160.961729 
L 514.680745 160.961729 
z
" style="fill:#5bc0de;stroke:#d2d2d2;stroke-linejoin:miter;"/>
   </g>
   <g id="patch_52">
    <path clip-path="url(#pb23e5dd735)" d="M 518.816561 171.936 
L 522.952377 171.936 
L 522.952377 151.445578 
L 518.816561 151.445578 
z
" style="fill:#5bc0de;stroke:#d2d2d2;stroke-linejoin:miter;"/>
   </g>
   <g id="patch_53">
    <path clip-path="url(#pb23e5dd735)" d="M 522.952377 171.936 
L 527.088193 171.936 
L 527.088193 132.183047 
L 522.952377 132.183047 
z
" style="fill:#5bc0de;stroke:#d2d2d2;stroke-linejoin:miter;"/>
   </g>
   <g id="patch_54">
    <path clip-path="url(#pb23e5dd735)" d="M 527.088193 171.936 
L 531.224009 171.936 
L 531.224009 104.708998 
L 527.088193 104.708998 
z
" style="fill:#5bc0de;stroke:#d2d2d2;stroke-linejoin:miter;"/>
   </g>
   <g id="patch_55">
    <path clip-path="url(#pb23e5dd735)" d="M 531.224009 171.936 
L 535.359825 171.936 
L 535.359825 79.076785 
L 531.224009 79.076785 
z
" style="fill:#5bc0de;stroke:#d2d2d2;stroke-linejoin:miter;"/>
   </g>
   <g id="patch_56">
    <path clip-path="url(#pb23e5dd735)" d="M 535.359825 171.936 
L 539.495641 171.936 
L 539.495641 62.65375 
L 535.359825 62.65375 
z
" style="fill:#5bc0de;stroke:#d2d2d2;stroke-linejoin:miter;"/>
   </g>
   <g id="patch_57">
    <path clip-path="url(#pb23e5dd735)" d="M 539.495641 171.936 
L 543.631457 171.936 
L 543.631457 53.444571 
L 539.495641 53.444571 
z
" style="fill:#5bc0de;stroke:#d2d2d2;stroke-linejoin:miter;"/>
   </g>
   <g id="patch_58">
    <path clip-path="url(#pb23e5dd735)" d="M 543.631457 171.936 
L 547.767273 171.936 
L 547.767273 69.867606 
L 543.631457 69.867606 
z
" style="fill:#5bc0de;stroke:#d2d2d2;stroke-linejoin:miter;"/>
   </g>
   <g id="patch_59">
    <path clip-path="url(#pb23e5dd735)" d="M 547.767273 171.936 
L 551.903089 171.936 
L 551.903089 84.06509 
L 547.767273 84.06509 
z
" style="fill:#5bc0de;stroke:#d2d2d2;stroke-linejoin:miter;"/>
   </g>
   <g id="patch_60">
    <path clip-path="url(#pb23e5dd735)" d="M 551.903089 171.936 
L 556.038905 171.936 
L 556.038905 116.4507 
L 551.903089 116.4507 
z
" style="fill:#5bc0de;stroke:#d2d2d2;stroke-linejoin:miter;"/>
   </g>
   <g id="patch_61">
    <path clip-path="url(#pb23e5dd735)" d="M 556.038905 171.936 
L 560.174721 171.936 
L 560.174721 142.850345 
L 556.038905 142.850345 
z
" style="fill:#5bc0de;stroke:#d2d2d2;stroke-linejoin:miter;"/>
   </g>
   <g id="patch_62">
    <path clip-path="url(#pb23e5dd735)" d="M 560.174721 171.936 
L 564.310537 171.936 
L 564.310537 154.975763 
L 560.174721 154.975763 
z
" style="fill:#5bc0de;stroke:#d2d2d2;stroke-linejoin:miter;"/>
   </g>
   <g id="patch_63">
    <path clip-path="url(#pb23e5dd735)" d="M 564.310537 171.936 
L 568.446353 171.936 
L 568.446353 164.491914 
L 564.310537 164.491914 
z
" style="fill:#5bc0de;stroke:#d2d2d2;stroke-linejoin:miter;"/>
   </g>
   <g id="patch_64">
    <path clip-path="url(#pb23e5dd735)" d="M 568.446353 171.936 
L 572.582169 171.936 
L 572.582169 169.480219 
L 568.446353 169.480219 
z
" style="fill:#5bc0de;stroke:#d2d2d2;stroke-linejoin:miter;"/>
   </g>
   <g id="patch_65">
    <path clip-path="url(#pb23e5dd735)" d="M 572.582169 171.936 
L 576.717985 171.936 
L 576.717985 171.245312 
L 572.582169 171.245312 
z
" style="fill:#5bc0de;stroke:#d2d2d2;stroke-linejoin:miter;"/>
   </g>
   <g id="patch_66">
    <path clip-path="url(#pb23e5dd735)" d="M 576.717985 171.936 
L 580.853801 171.936 
L 580.853801 171.782514 
L 576.717985 171.782514 
z
" style="fill:#5bc0de;stroke:#d2d2d2;stroke-linejoin:miter;"/>
   </g>
   <g id="matplotlib.axis_5">
    <g id="xtick_13">
     <g id="line2d_17">
      <g>
       <use style="fill:#d2d2d2;stroke:#d2d2d2;" x="443.04" xlink:href="#m337ac8f194" y="171.936"/>
      </g>
     </g>
     <g id="text_25">
      <!-- 0.3 -->
      <g style="fill:#d2d2d2;" transform="translate(432.702969 187.813969)scale(0.13 -0.13)">
       <use xlink:href="#DejaVuSans-30"/>
       <use x="63.623047" xlink:href="#DejaVuSans-2e"/>
       <use x="95.410156" xlink:href="#DejaVuSans-33"/>
      </g>
     </g>
    </g>
    <g id="xtick_14">
     <g id="line2d_18">
      <g>
       <use style="fill:#d2d2d2;stroke:#d2d2d2;" x="477.949091" xlink:href="#m337ac8f194" y="171.936"/>
      </g>
     </g>
     <g id="text_26">
      <!-- 0.4 -->
      <g style="fill:#d2d2d2;" transform="translate(467.61206 187.813969)scale(0.13 -0.13)">
       <use xlink:href="#DejaVuSans-30"/>
       <use x="63.623047" xlink:href="#DejaVuSans-2e"/>
       <use x="95.410156" xlink:href="#DejaVuSans-34"/>
      </g>
     </g>
    </g>
    <g id="xtick_15">
     <g id="line2d_19">
      <g>
       <use style="fill:#d2d2d2;stroke:#d2d2d2;" x="512.858182" xlink:href="#m337ac8f194" y="171.936"/>
      </g>
     </g>
     <g id="text_27">
      <!-- 0.5 -->
      <g style="fill:#d2d2d2;" transform="translate(502.521151 187.813969)scale(0.13 -0.13)">
       <use xlink:href="#DejaVuSans-30"/>
       <use x="63.623047" xlink:href="#DejaVuSans-2e"/>
       <use x="95.410156" xlink:href="#DejaVuSans-35"/>
      </g>
     </g>
    </g>
    <g id="xtick_16">
     <g id="line2d_20">
      <g>
       <use style="fill:#d2d2d2;stroke:#d2d2d2;" x="547.767273" xlink:href="#m337ac8f194" y="171.936"/>
      </g>
     </g>
     <g id="text_28">
      <!-- 0.6 -->
      <g style="fill:#d2d2d2;" transform="translate(537.430241 187.813969)scale(0.13 -0.13)">
       <use xlink:href="#DejaVuSans-30"/>
       <use x="63.623047" xlink:href="#DejaVuSans-2e"/>
       <use x="95.410156" xlink:href="#DejaVuSans-36"/>
      </g>
     </g>
    </g>
    <g id="xtick_17">
     <g id="line2d_21">
      <g>
       <use style="fill:#d2d2d2;stroke:#d2d2d2;" x="582.676364" xlink:href="#m337ac8f194" y="171.936"/>
      </g>
     </g>
     <g id="text_29">
      <!-- 0.7 -->
      <g style="fill:#d2d2d2;" transform="translate(572.339332 187.813969)scale(0.13 -0.13)">
       <use xlink:href="#DejaVuSans-30"/>
       <use x="63.623047" xlink:href="#DejaVuSans-2e"/>
       <use x="95.410156" xlink:href="#DejaVuSans-37"/>
      </g>
     </g>
    </g>
    <g id="xtick_18">
     <g id="line2d_22">
      <g>
       <use style="fill:#d2d2d2;stroke:#d2d2d2;" x="617.585455" xlink:href="#m337ac8f194" y="171.936"/>
      </g>
     </g>
     <g id="text_30">
      <!-- 0.8 -->
      <g style="fill:#d2d2d2;" transform="translate(607.248423 187.813969)scale(0.13 -0.13)">
       <use xlink:href="#DejaVuSans-30"/>
       <use x="63.623047" xlink:href="#DejaVuSans-2e"/>
       <use x="95.410156" xlink:href="#DejaVuSans-38"/>
      </g>
     </g>
    </g>
    <g id="text_31">
     <!-- Proportion of UCLA wins -->
     <g style="fill:#d2d2d2;" transform="translate(454.773125 202.155375)scale(0.14 -0.14)">
      <use xlink:href="#DejaVuSans-50"/>
      <use x="60.287109" xlink:href="#DejaVuSans-72"/>
      <use x="101.369141" xlink:href="#DejaVuSans-6f"/>
      <use x="162.550781" xlink:href="#DejaVuSans-70"/>
      <use x="226.027344" xlink:href="#DejaVuSans-6f"/>
      <use x="287.208984" xlink:href="#DejaVuSans-72"/>
      <use x="328.322266" xlink:href="#DejaVuSans-74"/>
      <use x="367.53125" xlink:href="#DejaVuSans-69"/>
      <use x="395.314453" xlink:href="#DejaVuSans-6f"/>
      <use x="456.496094" xlink:href="#DejaVuSans-6e"/>
      <use x="519.875" xlink:href="#DejaVuSans-20"/>
      <use x="551.662109" xlink:href="#DejaVuSans-6f"/>
      <use x="612.84375" xlink:href="#DejaVuSans-66"/>
      <use x="648.048828" xlink:href="#DejaVuSans-20"/>
      <use x="679.835938" xlink:href="#DejaVuSans-55"/>
      <use x="753.029297" xlink:href="#DejaVuSans-43"/>
      <use x="822.853516" xlink:href="#DejaVuSans-4c"/>
      <use x="878.597656" xlink:href="#DejaVuSans-41"/>
      <use x="947.005859" xlink:href="#DejaVuSans-20"/>
      <use x="978.792969" xlink:href="#DejaVuSans-77"/>
      <use x="1060.580078" xlink:href="#DejaVuSans-69"/>
      <use x="1088.363281" xlink:href="#DejaVuSans-6e"/>
      <use x="1151.742188" xlink:href="#DejaVuSans-73"/>
     </g>
    </g>
   </g>
   <g id="matplotlib.axis_6"/>
   <g id="line2d_23">
    <path clip-path="url(#pb23e5dd735)" d="M 534.58874 171.936 
L 534.58874 53.7408 
" style="fill:none;stroke:#d9534f;stroke-dasharray:5.6,2.4;stroke-dashoffset:0;stroke-width:1.5;"/>
   </g>
   <g id="line2d_24">
    <path d="M 546.982169 171.936 
L 546.982169 53.7408 
" style="fill:none;stroke:#d2d2d2;stroke-dasharray:5.6,2.4;stroke-dashoffset:0;stroke-width:1.5;"/>
   </g>
   <g id="patch_67">
    <path d="M 443.04 171.936 
L 635.04 171.936 
" style="fill:none;stroke:#d2d2d2;stroke-linecap:square;stroke-linejoin:miter;"/>
   </g>
   <g id="text_32">
    <!-- $\hat{p}=0.562$ -->
    <g style="fill:#d9534f;" transform="translate(534.58874 47.52)scale(0.12 -0.12)">
     <use transform="translate(64.447266 13.015625)" xlink:href="#DejaVuSans-302"/>
     <use transform="translate(0 0.515625)" xlink:href="#DejaVuSans-Oblique-70"/>
     <use transform="translate(82.958984 0.515625)" xlink:href="#DejaVuSans-3d"/>
     <use transform="translate(186.230469 0.515625)" xlink:href="#DejaVuSans-30"/>
     <use transform="translate(249.853516 0.515625)" xlink:href="#DejaVuSans-2e"/>
     <use transform="translate(281.640625 0.515625)" xlink:href="#DejaVuSans-35"/>
     <use transform="translate(345.263672 0.515625)" xlink:href="#DejaVuSans-36"/>
     <use transform="translate(408.886719 0.515625)" xlink:href="#DejaVuSans-32"/>
    </g>
   </g>
   <g id="text_33">
    <!-- $\pi_0=0.58$ -->
    <g style="fill:#f0ad4e;" transform="translate(443.04 47.52)scale(0.12 -0.12)">
     <use transform="translate(0 0.78125)" xlink:href="#DejaVuSans-Oblique-3c0"/>
     <use transform="translate(60.205078 -15.625)scale(0.7)" xlink:href="#DejaVuSans-30"/>
     <use transform="translate(126.958008 0.78125)" xlink:href="#DejaVuSans-3d"/>
     <use transform="translate(230.229492 0.78125)" xlink:href="#DejaVuSans-30"/>
     <use transform="translate(293.852539 0.78125)" xlink:href="#DejaVuSans-2e"/>
     <use transform="translate(325.639648 0.78125)" xlink:href="#DejaVuSans-35"/>
     <use transform="translate(389.262695 0.78125)" xlink:href="#DejaVuSans-38"/>
    </g>
   </g>
   <g id="text_34">
    <!-- 3094 -->
    <g style="fill:#d2d2d2;" transform="translate(486.594195 109.728)scale(0.12 -0.12)">
     <use xlink:href="#DejaVuSans-33"/>
     <use x="63.623047" xlink:href="#DejaVuSans-30"/>
     <use x="127.246094" xlink:href="#DejaVuSans-39"/>
     <use x="190.869141" xlink:href="#DejaVuSans-34"/>
    </g>
   </g>
   <g id="text_35">
    <!-- 3033 -->
    <g style="fill:#d2d2d2;" transform="translate(564.436714 109.728)scale(0.12 -0.12)">
     <use xlink:href="#DejaVuSans-33"/>
     <use x="63.623047" xlink:href="#DejaVuSans-30"/>
     <use x="127.246094" xlink:href="#DejaVuSans-33"/>
     <use x="190.869141" xlink:href="#DejaVuSans-33"/>
    </g>
   </g>
   <g id="text_36">
    <!-- p-value -->
    <g style="fill:#5cb85c;" transform="translate(443.04 152.277825)scale(0.12 -0.12)">
     <use xlink:href="#DejaVuSans-70"/>
     <use x="63.476562" xlink:href="#DejaVuSans-2d"/>
     <use x="99.529297" xlink:href="#DejaVuSans-76"/>
     <use x="158.708984" xlink:href="#DejaVuSans-61"/>
     <use x="219.988281" xlink:href="#DejaVuSans-6c"/>
     <use x="247.771484" xlink:href="#DejaVuSans-75"/>
     <use x="311.150391" xlink:href="#DejaVuSans-65"/>
    </g>
    <!-- 0.613 -->
    <g style="fill:#5cb85c;" transform="translate(443.04 165.7152)scale(0.12 -0.12)">
     <use xlink:href="#DejaVuSans-30"/>
     <use x="63.623047" xlink:href="#DejaVuSans-2e"/>
     <use x="95.410156" xlink:href="#DejaVuSans-36"/>
     <use x="159.033203" xlink:href="#DejaVuSans-31"/>
     <use x="222.65625" xlink:href="#DejaVuSans-33"/>
    </g>
   </g>
  </g>
  <g id="axes_4">
   <g id="patch_68">
    <path d="M 12.96 358.56 
L 204.96 358.56 
L 204.96 234.144 
L 12.96 234.144 
z
" style="fill:none;"/>
   </g>
   <g id="patch_69">
    <path clip-path="url(#pc5a6530090)" d="M 76.46931 358.56 
L 80.535027 358.56 
L 80.535027 358.405915 
L 76.46931 358.405915 
z
" style="fill:#5bc0de;stroke:#d2d2d2;stroke-linejoin:miter;"/>
   </g>
   <g id="patch_70">
    <path clip-path="url(#pc5a6530090)" d="M 80.535027 358.56 
L 84.600745 358.56 
L 84.600745 357.94366 
L 80.535027 357.94366 
z
" style="fill:#5bc0de;stroke:#d2d2d2;stroke-linejoin:miter;"/>
   </g>
   <g id="patch_71">
    <path clip-path="url(#pc5a6530090)" d="M 84.600745 358.56 
L 88.666462 358.56 
L 88.666462 356.710979 
L 84.600745 356.710979 
z
" style="fill:#5bc0de;stroke:#d2d2d2;stroke-linejoin:miter;"/>
   </g>
   <g id="patch_72">
    <path clip-path="url(#pc5a6530090)" d="M 88.666462 358.56 
L 92.73218 358.56 
L 92.73218 352.088427 
L 88.666462 352.088427 
z
" style="fill:#5bc0de;stroke:#d2d2d2;stroke-linejoin:miter;"/>
   </g>
   <g id="patch_73">
    <path clip-path="url(#pc5a6530090)" d="M 92.73218 358.56 
L 96.797897 358.56 
L 96.797897 344.769385 
L 92.73218 344.769385 
z
" style="fill:#5bc0de;stroke:#d2d2d2;stroke-linejoin:miter;"/>
   </g>
   <g id="patch_74">
    <path clip-path="url(#pc5a6530090)" d="M 96.797897 358.56 
L 100.863614 358.56 
L 100.863614 330.285387 
L 96.797897 330.285387 
z
" style="fill:#5bc0de;stroke:#d2d2d2;stroke-linejoin:miter;"/>
   </g>
   <g id="patch_75">
    <path clip-path="url(#pc5a6530090)" d="M 100.863614 358.56 
L 104.929332 358.56 
L 104.929332 310.023199 
L 100.863614 310.023199 
z
" style="fill:#5bc0de;stroke:#d2d2d2;stroke-linejoin:miter;"/>
   </g>
   <g id="patch_76">
    <path clip-path="url(#pc5a6530090)" d="M 104.929332 358.56 
L 108.995049 358.56 
L 108.995049 282.827182 
L 104.929332 282.827182 
z
" style="fill:#5bc0de;stroke:#d2d2d2;stroke-linejoin:miter;"/>
   </g>
   <g id="patch_77">
    <path clip-path="url(#pc5a6530090)" d="M 108.995049 358.56 
L 113.060767 358.56 
L 113.060767 258.327654 
L 108.995049 258.327654 
z
" style="fill:#5bc0de;stroke:#d2d2d2;stroke-linejoin:miter;"/>
   </g>
   <g id="patch_78">
    <path clip-path="url(#pc5a6530090)" d="M 113.060767 358.56 
L 117.126484 358.56 
L 117.126484 286.833394 
L 113.060767 286.833394 
z
" style="fill:#5bc0de;stroke:#d2d2d2;stroke-linejoin:miter;"/>
   </g>
   <g id="patch_79">
    <path clip-path="url(#pc5a6530090)" d="M 117.126484 358.56 
L 121.192202 358.56 
L 121.192202 240.068571 
L 117.126484 240.068571 
z
" style="fill:#5bc0de;stroke:#d2d2d2;stroke-linejoin:miter;"/>
   </g>
   <g id="patch_80">
    <path clip-path="url(#pc5a6530090)" d="M 121.192202 358.56 
L 125.257919 358.56 
L 125.257919 254.167356 
L 121.192202 254.167356 
z
" style="fill:#5bc0de;stroke:#d2d2d2;stroke-linejoin:miter;"/>
   </g>
   <g id="patch_81">
    <path clip-path="url(#pc5a6530090)" d="M 125.257919 358.56 
L 129.323636 358.56 
L 129.323636 275.816311 
L 125.257919 275.816311 
z
" style="fill:#5bc0de;stroke:#d2d2d2;stroke-linejoin:miter;"/>
   </g>
   <g id="patch_82">
    <path clip-path="url(#pc5a6530090)" d="M 129.323636 358.56 
L 133.389354 358.56 
L 133.389354 301.240349 
L 129.323636 301.240349 
z
" style="fill:#5bc0de;stroke:#d2d2d2;stroke-linejoin:miter;"/>
   </g>
   <g id="patch_83">
    <path clip-path="url(#pc5a6530090)" d="M 133.389354 358.56 
L 137.455071 358.56 
L 137.455071 325.585792 
L 133.389354 325.585792 
z
" style="fill:#5bc0de;stroke:#d2d2d2;stroke-linejoin:miter;"/>
   </g>
   <g id="patch_84">
    <path clip-path="url(#pc5a6530090)" d="M 137.455071 358.56 
L 141.520789 358.56 
L 141.520789 342.458109 
L 137.455071 342.458109 
z
" style="fill:#5bc0de;stroke:#d2d2d2;stroke-linejoin:miter;"/>
   </g>
   <g id="patch_85">
    <path clip-path="url(#pc5a6530090)" d="M 141.520789 358.56 
L 145.586506 358.56 
L 145.586506 351.472086 
L 141.520789 351.472086 
z
" style="fill:#5bc0de;stroke:#d2d2d2;stroke-linejoin:miter;"/>
   </g>
   <g id="patch_86">
    <path clip-path="url(#pc5a6530090)" d="M 145.586506 358.56 
L 149.652223 358.56 
L 149.652223 355.786469 
L 145.586506 355.786469 
z
" style="fill:#5bc0de;stroke:#d2d2d2;stroke-linejoin:miter;"/>
   </g>
   <g id="patch_87">
    <path clip-path="url(#pc5a6530090)" d="M 149.652223 358.56 
L 153.717941 358.56 
L 153.717941 357.63549 
L 149.652223 357.63549 
z
" style="fill:#5bc0de;stroke:#d2d2d2;stroke-linejoin:miter;"/>
   </g>
   <g id="patch_88">
    <path clip-path="url(#pc5a6530090)" d="M 153.717941 358.56 
L 157.783658 358.56 
L 157.783658 358.328872 
L 153.717941 358.328872 
z
" style="fill:#5bc0de;stroke:#d2d2d2;stroke-linejoin:miter;"/>
   </g>
   <g id="matplotlib.axis_7">
    <g id="xtick_19">
     <g id="line2d_25">
      <g>
       <use style="fill:#d2d2d2;stroke:#d2d2d2;" x="12.96" xlink:href="#m337ac8f194" y="358.56"/>
      </g>
     </g>
     <g id="text_37">
      <!-- 0.3 -->
      <g style="fill:#d2d2d2;" transform="translate(2.622969 374.437969)scale(0.13 -0.13)">
       <use xlink:href="#DejaVuSans-30"/>
       <use x="63.623047" xlink:href="#DejaVuSans-2e"/>
       <use x="95.410156" xlink:href="#DejaVuSans-33"/>
      </g>
     </g>
    </g>
    <g id="xtick_20">
     <g id="line2d_26">
      <g>
       <use style="fill:#d2d2d2;stroke:#d2d2d2;" x="47.869091" xlink:href="#m337ac8f194" y="358.56"/>
      </g>
     </g>
     <g id="text_38">
      <!-- 0.4 -->
      <g style="fill:#d2d2d2;" transform="translate(37.53206 374.437969)scale(0.13 -0.13)">
       <use xlink:href="#DejaVuSans-30"/>
       <use x="63.623047" xlink:href="#DejaVuSans-2e"/>
       <use x="95.410156" xlink:href="#DejaVuSans-34"/>
      </g>
     </g>
    </g>
    <g id="xtick_21">
     <g id="line2d_27">
      <g>
       <use style="fill:#d2d2d2;stroke:#d2d2d2;" x="82.778182" xlink:href="#m337ac8f194" y="358.56"/>
      </g>
     </g>
     <g id="text_39">
      <!-- 0.5 -->
      <g style="fill:#d2d2d2;" transform="translate(72.441151 374.437969)scale(0.13 -0.13)">
       <use xlink:href="#DejaVuSans-30"/>
       <use x="63.623047" xlink:href="#DejaVuSans-2e"/>
       <use x="95.410156" xlink:href="#DejaVuSans-35"/>
      </g>
     </g>
    </g>
    <g id="xtick_22">
     <g id="line2d_28">
      <g>
       <use style="fill:#d2d2d2;stroke:#d2d2d2;" x="117.687273" xlink:href="#m337ac8f194" y="358.56"/>
      </g>
     </g>
     <g id="text_40">
      <!-- 0.6 -->
      <g style="fill:#d2d2d2;" transform="translate(107.350241 374.437969)scale(0.13 -0.13)">
       <use xlink:href="#DejaVuSans-30"/>
       <use x="63.623047" xlink:href="#DejaVuSans-2e"/>
       <use x="95.410156" xlink:href="#DejaVuSans-36"/>
      </g>
     </g>
    </g>
    <g id="xtick_23">
     <g id="line2d_29">
      <g>
       <use style="fill:#d2d2d2;stroke:#d2d2d2;" x="152.596364" xlink:href="#m337ac8f194" y="358.56"/>
      </g>
     </g>
     <g id="text_41">
      <!-- 0.7 -->
      <g style="fill:#d2d2d2;" transform="translate(142.259332 374.437969)scale(0.13 -0.13)">
       <use xlink:href="#DejaVuSans-30"/>
       <use x="63.623047" xlink:href="#DejaVuSans-2e"/>
       <use x="95.410156" xlink:href="#DejaVuSans-37"/>
      </g>
     </g>
    </g>
    <g id="xtick_24">
     <g id="line2d_30">
      <g>
       <use style="fill:#d2d2d2;stroke:#d2d2d2;" x="187.505455" xlink:href="#m337ac8f194" y="358.56"/>
      </g>
     </g>
     <g id="text_42">
      <!-- 0.8 -->
      <g style="fill:#d2d2d2;" transform="translate(177.168423 374.437969)scale(0.13 -0.13)">
       <use xlink:href="#DejaVuSans-30"/>
       <use x="63.623047" xlink:href="#DejaVuSans-2e"/>
       <use x="95.410156" xlink:href="#DejaVuSans-38"/>
      </g>
     </g>
    </g>
    <g id="text_43">
     <!-- Proportion of UCLA wins -->
     <g style="fill:#d2d2d2;" transform="translate(24.693125 388.779375)scale(0.14 -0.14)">
      <use xlink:href="#DejaVuSans-50"/>
      <use x="60.287109" xlink:href="#DejaVuSans-72"/>
      <use x="101.369141" xlink:href="#DejaVuSans-6f"/>
      <use x="162.550781" xlink:href="#DejaVuSans-70"/>
      <use x="226.027344" xlink:href="#DejaVuSans-6f"/>
      <use x="287.208984" xlink:href="#DejaVuSans-72"/>
      <use x="328.322266" xlink:href="#DejaVuSans-74"/>
      <use x="367.53125" xlink:href="#DejaVuSans-69"/>
      <use x="395.314453" xlink:href="#DejaVuSans-6f"/>
      <use x="456.496094" xlink:href="#DejaVuSans-6e"/>
      <use x="519.875" xlink:href="#DejaVuSans-20"/>
      <use x="551.662109" xlink:href="#DejaVuSans-6f"/>
      <use x="612.84375" xlink:href="#DejaVuSans-66"/>
      <use x="648.048828" xlink:href="#DejaVuSans-20"/>
      <use x="679.835938" xlink:href="#DejaVuSans-55"/>
      <use x="753.029297" xlink:href="#DejaVuSans-43"/>
      <use x="822.853516" xlink:href="#DejaVuSans-4c"/>
      <use x="878.597656" xlink:href="#DejaVuSans-41"/>
      <use x="947.005859" xlink:href="#DejaVuSans-20"/>
      <use x="978.792969" xlink:href="#DejaVuSans-77"/>
      <use x="1060.580078" xlink:href="#DejaVuSans-69"/>
      <use x="1088.363281" xlink:href="#DejaVuSans-6e"/>
      <use x="1151.742188" xlink:href="#DejaVuSans-73"/>
     </g>
    </g>
   </g>
   <g id="matplotlib.axis_8"/>
   <g id="line2d_31">
    <path clip-path="url(#pc5a6530090)" d="M 104.50874 358.56 
L 104.50874 240.3648 
" style="fill:none;stroke:#d9534f;stroke-dasharray:5.6,2.4;stroke-dashoffset:0;stroke-width:1.5;"/>
   </g>
   <g id="line2d_32">
    <path d="M 130.865805 358.56 
L 130.865805 240.3648 
" style="fill:none;stroke:#d2d2d2;stroke-dasharray:5.6,2.4;stroke-dashoffset:0;stroke-width:1.5;"/>
   </g>
   <g id="patch_89">
    <path d="M 12.96 358.56 
L 204.96 358.56 
" style="fill:none;stroke:#d2d2d2;stroke-linecap:square;stroke-linejoin:miter;"/>
   </g>
   <g id="text_44">
    <!-- $\hat{p}=0.562$ -->
    <g style="fill:#d9534f;" transform="translate(104.50874 234.144)scale(0.12 -0.12)">
     <use transform="translate(64.447266 13.015625)" xlink:href="#DejaVuSans-302"/>
     <use transform="translate(0 0.515625)" xlink:href="#DejaVuSans-Oblique-70"/>
     <use transform="translate(82.958984 0.515625)" xlink:href="#DejaVuSans-3d"/>
     <use transform="translate(186.230469 0.515625)" xlink:href="#DejaVuSans-30"/>
     <use transform="translate(249.853516 0.515625)" xlink:href="#DejaVuSans-2e"/>
     <use transform="translate(281.640625 0.515625)" xlink:href="#DejaVuSans-35"/>
     <use transform="translate(345.263672 0.515625)" xlink:href="#DejaVuSans-36"/>
     <use transform="translate(408.886719 0.515625)" xlink:href="#DejaVuSans-32"/>
    </g>
   </g>
   <g id="text_45">
    <!-- $\pi_0=0.6$ -->
    <g style="fill:#f0ad4e;" transform="translate(12.96 234.144)scale(0.12 -0.12)">
     <use transform="translate(0 0.78125)" xlink:href="#DejaVuSans-Oblique-3c0"/>
     <use transform="translate(60.205078 -15.625)scale(0.7)" xlink:href="#DejaVuSans-30"/>
     <use transform="translate(126.958008 0.78125)" xlink:href="#DejaVuSans-3d"/>
     <use transform="translate(230.229492 0.78125)" xlink:href="#DejaVuSans-30"/>
     <use transform="translate(293.852539 0.78125)" xlink:href="#DejaVuSans-2e"/>
     <use transform="translate(325.639648 0.78125)" xlink:href="#DejaVuSans-36"/>
    </g>
   </g>
   <g id="text_46">
    <!-- 1294 -->
    <g style="fill:#d2d2d2;" transform="translate(56.514195 296.352)scale(0.12 -0.12)">
     <use xlink:href="#DejaVuSans-31"/>
     <use x="63.623047" xlink:href="#DejaVuSans-32"/>
     <use x="127.246094" xlink:href="#DejaVuSans-39"/>
     <use x="190.869141" xlink:href="#DejaVuSans-34"/>
    </g>
   </g>
   <g id="text_47">
    <!-- 1236 -->
    <g style="fill:#d2d2d2;" transform="translate(148.32035 296.352)scale(0.12 -0.12)">
     <use xlink:href="#DejaVuSans-31"/>
     <use x="63.623047" xlink:href="#DejaVuSans-32"/>
     <use x="127.246094" xlink:href="#DejaVuSans-33"/>
     <use x="190.869141" xlink:href="#DejaVuSans-36"/>
    </g>
   </g>
   <g id="text_48">
    <!-- p-value -->
    <g style="fill:#5cb85c;" transform="translate(12.96 338.901825)scale(0.12 -0.12)">
     <use xlink:href="#DejaVuSans-70"/>
     <use x="63.476562" xlink:href="#DejaVuSans-2d"/>
     <use x="99.529297" xlink:href="#DejaVuSans-76"/>
     <use x="158.708984" xlink:href="#DejaVuSans-61"/>
     <use x="219.988281" xlink:href="#DejaVuSans-6c"/>
     <use x="247.771484" xlink:href="#DejaVuSans-75"/>
     <use x="311.150391" xlink:href="#DejaVuSans-65"/>
    </g>
    <!-- 0.253 -->
    <g style="fill:#5cb85c;" transform="translate(12.96 352.3392)scale(0.12 -0.12)">
     <use xlink:href="#DejaVuSans-30"/>
     <use x="63.623047" xlink:href="#DejaVuSans-2e"/>
     <use x="95.410156" xlink:href="#DejaVuSans-32"/>
     <use x="159.033203" xlink:href="#DejaVuSans-35"/>
     <use x="222.65625" xlink:href="#DejaVuSans-33"/>
    </g>
   </g>
  </g>
  <g id="axes_5">
   <g id="patch_90">
    <path d="M 228 358.56 
L 420 358.56 
L 420 234.144 
L 228 234.144 
z
" style="fill:none;"/>
   </g>
   <g id="patch_91">
    <path clip-path="url(#p212cba4d1b)" d="M 297.117196 358.56 
L 301.253012 358.56 
L 301.253012 358.341247 
L 297.117196 358.341247 
z
" style="fill:#5bc0de;stroke:#d2d2d2;stroke-linejoin:miter;"/>
   </g>
   <g id="patch_92">
    <path clip-path="url(#p212cba4d1b)" d="M 301.253012 358.56 
L 305.388828 358.56 
L 305.388828 358.195411 
L 301.253012 358.195411 
z
" style="fill:#5bc0de;stroke:#d2d2d2;stroke-linejoin:miter;"/>
   </g>
   <g id="patch_93">
    <path clip-path="url(#p212cba4d1b)" d="M 305.388828 358.56 
L 309.524644 358.56 
L 309.524644 356.809973 
L 305.388828 356.809973 
z
" style="fill:#5bc0de;stroke:#d2d2d2;stroke-linejoin:miter;"/>
   </g>
   <g id="patch_94">
    <path clip-path="url(#p212cba4d1b)" d="M 309.524644 358.56 
L 313.66046 358.56 
L 313.66046 355.934959 
L 309.524644 355.934959 
z
" style="fill:#5bc0de;stroke:#d2d2d2;stroke-linejoin:miter;"/>
   </g>
   <g id="patch_95">
    <path clip-path="url(#p212cba4d1b)" d="M 313.66046 358.56 
L 317.796276 358.56 
L 317.796276 349.664028 
L 313.66046 349.664028 
z
" style="fill:#5bc0de;stroke:#d2d2d2;stroke-linejoin:miter;"/>
   </g>
   <g id="patch_96">
    <path clip-path="url(#p212cba4d1b)" d="M 317.796276 358.56 
L 321.932092 358.56 
L 321.932092 339.236782 
L 317.796276 339.236782 
z
" style="fill:#5bc0de;stroke:#d2d2d2;stroke-linejoin:miter;"/>
   </g>
   <g id="patch_97">
    <path clip-path="url(#p212cba4d1b)" d="M 321.932092 358.56 
L 326.067908 358.56 
L 326.067908 321.955263 
L 321.932092 321.955263 
z
" style="fill:#5bc0de;stroke:#d2d2d2;stroke-linejoin:miter;"/>
   </g>
   <g id="patch_98">
    <path clip-path="url(#p212cba4d1b)" d="M 326.067908 358.56 
L 330.203724 358.56 
L 330.203724 295.85069 
L 326.067908 295.85069 
z
" style="fill:#5bc0de;stroke:#d2d2d2;stroke-linejoin:miter;"/>
   </g>
   <g id="patch_99">
    <path clip-path="url(#p212cba4d1b)" d="M 330.203724 358.56 
L 334.33954 358.56 
L 334.33954 272.152404 
L 330.203724 272.152404 
z
" style="fill:#5bc0de;stroke:#d2d2d2;stroke-linejoin:miter;"/>
   </g>
   <g id="patch_100">
    <path clip-path="url(#p212cba4d1b)" d="M 334.33954 358.56 
L 338.475356 358.56 
L 338.475356 251.881255 
L 334.33954 251.881255 
z
" style="fill:#5bc0de;stroke:#d2d2d2;stroke-linejoin:miter;"/>
   </g>
   <g id="patch_101">
    <path clip-path="url(#p212cba4d1b)" d="M 338.475356 358.56 
L 342.611172 358.56 
L 342.611172 240.068571 
L 338.475356 240.068571 
z
" style="fill:#5bc0de;stroke:#d2d2d2;stroke-linejoin:miter;"/>
   </g>
   <g id="patch_102">
    <path clip-path="url(#p212cba4d1b)" d="M 342.611172 358.56 
L 346.746988 358.56 
L 346.746988 258.589693 
L 342.611172 258.589693 
z
" style="fill:#5bc0de;stroke:#d2d2d2;stroke-linejoin:miter;"/>
   </g>
   <g id="patch_103">
    <path clip-path="url(#p212cba4d1b)" d="M 346.746988 358.56 
L 350.882804 358.56 
L 350.882804 279.371267 
L 346.746988 279.371267 
z
" style="fill:#5bc0de;stroke:#d2d2d2;stroke-linejoin:miter;"/>
   </g>
   <g id="patch_104">
    <path clip-path="url(#p212cba4d1b)" d="M 350.882804 358.56 
L 355.01862 358.56 
L 355.01862 305.257087 
L 350.882804 305.257087 
z
" style="fill:#5bc0de;stroke:#d2d2d2;stroke-linejoin:miter;"/>
   </g>
   <g id="patch_105">
    <path clip-path="url(#p212cba4d1b)" d="M 355.01862 358.56 
L 359.154436 358.56 
L 359.154436 328.517865 
L 355.01862 328.517865 
z
" style="fill:#5bc0de;stroke:#d2d2d2;stroke-linejoin:miter;"/>
   </g>
   <g id="patch_106">
    <path clip-path="url(#p212cba4d1b)" d="M 359.154436 358.56 
L 363.290252 358.56 
L 363.290252 344.997289 
L 359.154436 344.997289 
z
" style="fill:#5bc0de;stroke:#d2d2d2;stroke-linejoin:miter;"/>
   </g>
   <g id="patch_107">
    <path clip-path="url(#p212cba4d1b)" d="M 363.290252 358.56 
L 367.426068 358.56 
L 367.426068 352.507822 
L 363.290252 352.507822 
z
" style="fill:#5bc0de;stroke:#d2d2d2;stroke-linejoin:miter;"/>
   </g>
   <g id="patch_108">
    <path clip-path="url(#p212cba4d1b)" d="M 367.426068 358.56 
L 371.561884 358.56 
L 371.561884 356.007877 
L 367.426068 356.007877 
z
" style="fill:#5bc0de;stroke:#d2d2d2;stroke-linejoin:miter;"/>
   </g>
   <g id="patch_109">
    <path clip-path="url(#p212cba4d1b)" d="M 371.561884 358.56 
L 375.6977 358.56 
L 375.6977 358.195411 
L 371.561884 358.195411 
z
" style="fill:#5bc0de;stroke:#d2d2d2;stroke-linejoin:miter;"/>
   </g>
   <g id="patch_110">
    <path clip-path="url(#p212cba4d1b)" d="M 375.6977 358.56 
L 379.833516 358.56 
L 379.833516 358.487082 
L 375.6977 358.487082 
z
" style="fill:#5bc0de;stroke:#d2d2d2;stroke-linejoin:miter;"/>
   </g>
   <g id="matplotlib.axis_9">
    <g id="xtick_25">
     <g id="line2d_33">
      <g>
       <use style="fill:#d2d2d2;stroke:#d2d2d2;" x="228" xlink:href="#m337ac8f194" y="358.56"/>
      </g>
     </g>
     <g id="text_49">
      <!-- 0.3 -->
      <g style="fill:#d2d2d2;" transform="translate(217.662969 374.437969)scale(0.13 -0.13)">
       <use xlink:href="#DejaVuSans-30"/>
       <use x="63.623047" xlink:href="#DejaVuSans-2e"/>
       <use x="95.410156" xlink:href="#DejaVuSans-33"/>
      </g>
     </g>
    </g>
    <g id="xtick_26">
     <g id="line2d_34">
      <g>
       <use style="fill:#d2d2d2;stroke:#d2d2d2;" x="262.909091" xlink:href="#m337ac8f194" y="358.56"/>
      </g>
     </g>
     <g id="text_50">
      <!-- 0.4 -->
      <g style="fill:#d2d2d2;" transform="translate(252.57206 374.437969)scale(0.13 -0.13)">
       <use xlink:href="#DejaVuSans-30"/>
       <use x="63.623047" xlink:href="#DejaVuSans-2e"/>
       <use x="95.410156" xlink:href="#DejaVuSans-34"/>
      </g>
     </g>
    </g>
    <g id="xtick_27">
     <g id="line2d_35">
      <g>
       <use style="fill:#d2d2d2;stroke:#d2d2d2;" x="297.818182" xlink:href="#m337ac8f194" y="358.56"/>
      </g>
     </g>
     <g id="text_51">
      <!-- 0.5 -->
      <g style="fill:#d2d2d2;" transform="translate(287.481151 374.437969)scale(0.13 -0.13)">
       <use xlink:href="#DejaVuSans-30"/>
       <use x="63.623047" xlink:href="#DejaVuSans-2e"/>
       <use x="95.410156" xlink:href="#DejaVuSans-35"/>
      </g>
     </g>
    </g>
    <g id="xtick_28">
     <g id="line2d_36">
      <g>
       <use style="fill:#d2d2d2;stroke:#d2d2d2;" x="332.727273" xlink:href="#m337ac8f194" y="358.56"/>
      </g>
     </g>
     <g id="text_52">
      <!-- 0.6 -->
      <g style="fill:#d2d2d2;" transform="translate(322.390241 374.437969)scale(0.13 -0.13)">
       <use xlink:href="#DejaVuSans-30"/>
       <use x="63.623047" xlink:href="#DejaVuSans-2e"/>
       <use x="95.410156" xlink:href="#DejaVuSans-36"/>
      </g>
     </g>
    </g>
    <g id="xtick_29">
     <g id="line2d_37">
      <g>
       <use style="fill:#d2d2d2;stroke:#d2d2d2;" x="367.636364" xlink:href="#m337ac8f194" y="358.56"/>
      </g>
     </g>
     <g id="text_53">
      <!-- 0.7 -->
      <g style="fill:#d2d2d2;" transform="translate(357.299332 374.437969)scale(0.13 -0.13)">
       <use xlink:href="#DejaVuSans-30"/>
       <use x="63.623047" xlink:href="#DejaVuSans-2e"/>
       <use x="95.410156" xlink:href="#DejaVuSans-37"/>
      </g>
     </g>
    </g>
    <g id="xtick_30">
     <g id="line2d_38">
      <g>
       <use style="fill:#d2d2d2;stroke:#d2d2d2;" x="402.545455" xlink:href="#m337ac8f194" y="358.56"/>
      </g>
     </g>
     <g id="text_54">
      <!-- 0.8 -->
      <g style="fill:#d2d2d2;" transform="translate(392.208423 374.437969)scale(0.13 -0.13)">
       <use xlink:href="#DejaVuSans-30"/>
       <use x="63.623047" xlink:href="#DejaVuSans-2e"/>
       <use x="95.410156" xlink:href="#DejaVuSans-38"/>
      </g>
     </g>
    </g>
    <g id="text_55">
     <!-- Proportion of UCLA wins -->
     <g style="fill:#d2d2d2;" transform="translate(239.733125 388.779375)scale(0.14 -0.14)">
      <use xlink:href="#DejaVuSans-50"/>
      <use x="60.287109" xlink:href="#DejaVuSans-72"/>
      <use x="101.369141" xlink:href="#DejaVuSans-6f"/>
      <use x="162.550781" xlink:href="#DejaVuSans-70"/>
      <use x="226.027344" xlink:href="#DejaVuSans-6f"/>
      <use x="287.208984" xlink:href="#DejaVuSans-72"/>
      <use x="328.322266" xlink:href="#DejaVuSans-74"/>
      <use x="367.53125" xlink:href="#DejaVuSans-69"/>
      <use x="395.314453" xlink:href="#DejaVuSans-6f"/>
      <use x="456.496094" xlink:href="#DejaVuSans-6e"/>
      <use x="519.875" xlink:href="#DejaVuSans-20"/>
      <use x="551.662109" xlink:href="#DejaVuSans-6f"/>
      <use x="612.84375" xlink:href="#DejaVuSans-66"/>
      <use x="648.048828" xlink:href="#DejaVuSans-20"/>
      <use x="679.835938" xlink:href="#DejaVuSans-55"/>
      <use x="753.029297" xlink:href="#DejaVuSans-43"/>
      <use x="822.853516" xlink:href="#DejaVuSans-4c"/>
      <use x="878.597656" xlink:href="#DejaVuSans-41"/>
      <use x="947.005859" xlink:href="#DejaVuSans-20"/>
      <use x="978.792969" xlink:href="#DejaVuSans-77"/>
      <use x="1060.580078" xlink:href="#DejaVuSans-69"/>
      <use x="1088.363281" xlink:href="#DejaVuSans-6e"/>
      <use x="1151.742188" xlink:href="#DejaVuSans-73"/>
     </g>
    </g>
   </g>
   <g id="matplotlib.axis_10"/>
   <g id="line2d_39">
    <path clip-path="url(#p212cba4d1b)" d="M 319.54874 358.56 
L 319.54874 240.3648 
" style="fill:none;stroke:#d9534f;stroke-dasharray:5.6,2.4;stroke-dashoffset:0;stroke-width:1.5;"/>
   </g>
   <g id="line2d_40">
    <path d="M 359.869441 358.56 
L 359.869441 240.3648 
" style="fill:none;stroke:#d2d2d2;stroke-dasharray:5.6,2.4;stroke-dashoffset:0;stroke-width:1.5;"/>
   </g>
   <g id="patch_111">
    <path d="M 228 358.56 
L 420 358.56 
" style="fill:none;stroke:#d2d2d2;stroke-linecap:square;stroke-linejoin:miter;"/>
   </g>
   <g id="text_56">
    <!-- $\hat{p}=0.562$ -->
    <g style="fill:#d9534f;" transform="translate(319.54874 234.144)scale(0.12 -0.12)">
     <use transform="translate(64.447266 13.015625)" xlink:href="#DejaVuSans-302"/>
     <use transform="translate(0 0.515625)" xlink:href="#DejaVuSans-Oblique-70"/>
     <use transform="translate(82.958984 0.515625)" xlink:href="#DejaVuSans-3d"/>
     <use transform="translate(186.230469 0.515625)" xlink:href="#DejaVuSans-30"/>
     <use transform="translate(249.853516 0.515625)" xlink:href="#DejaVuSans-2e"/>
     <use transform="translate(281.640625 0.515625)" xlink:href="#DejaVuSans-35"/>
     <use transform="translate(345.263672 0.515625)" xlink:href="#DejaVuSans-36"/>
     <use transform="translate(408.886719 0.515625)" xlink:href="#DejaVuSans-32"/>
    </g>
   </g>
   <g id="text_57">
    <!-- $\pi_0=0.62$ -->
    <g style="fill:#f0ad4e;" transform="translate(228 234.144)scale(0.12 -0.12)">
     <use transform="translate(0 0.78125)" xlink:href="#DejaVuSans-Oblique-3c0"/>
     <use transform="translate(60.205078 -15.625)scale(0.7)" xlink:href="#DejaVuSans-30"/>
     <use transform="translate(126.958008 0.78125)" xlink:href="#DejaVuSans-3d"/>
     <use transform="translate(230.229492 0.78125)" xlink:href="#DejaVuSans-30"/>
     <use transform="translate(293.852539 0.78125)" xlink:href="#DejaVuSans-2e"/>
     <use transform="translate(325.639648 0.78125)" xlink:href="#DejaVuSans-36"/>
     <use transform="translate(389.262695 0.78125)" xlink:href="#DejaVuSans-32"/>
    </g>
   </g>
   <g id="text_58">
    <!-- 348 -->
    <g style="fill:#d2d2d2;" transform="translate(279.189195 296.352)scale(0.12 -0.12)">
     <use xlink:href="#DejaVuSans-33"/>
     <use x="63.623047" xlink:href="#DejaVuSans-34"/>
     <use x="127.246094" xlink:href="#DejaVuSans-38"/>
    </g>
   </g>
   <g id="text_59">
    <!-- 310 -->
    <g style="fill:#d2d2d2;" transform="translate(377.323987 296.352)scale(0.12 -0.12)">
     <use xlink:href="#DejaVuSans-33"/>
     <use x="63.623047" xlink:href="#DejaVuSans-31"/>
     <use x="127.246094" xlink:href="#DejaVuSans-30"/>
    </g>
   </g>
   <g id="text_60">
    <!-- p-value -->
    <g style="fill:#5cb85c;" transform="translate(228 338.901825)scale(0.12 -0.12)">
     <use xlink:href="#DejaVuSans-70"/>
     <use x="63.476562" xlink:href="#DejaVuSans-2d"/>
     <use x="99.529297" xlink:href="#DejaVuSans-76"/>
     <use x="158.708984" xlink:href="#DejaVuSans-61"/>
     <use x="219.988281" xlink:href="#DejaVuSans-6c"/>
     <use x="247.771484" xlink:href="#DejaVuSans-75"/>
     <use x="311.150391" xlink:href="#DejaVuSans-65"/>
    </g>
    <!-- 0.066 -->
    <g style="fill:#5cb85c;" transform="translate(228 352.3392)scale(0.12 -0.12)">
     <use xlink:href="#DejaVuSans-30"/>
     <use x="63.623047" xlink:href="#DejaVuSans-2e"/>
     <use x="95.410156" xlink:href="#DejaVuSans-30"/>
     <use x="159.033203" xlink:href="#DejaVuSans-36"/>
     <use x="222.65625" xlink:href="#DejaVuSans-36"/>
    </g>
   </g>
  </g>
  <g id="axes_6">
   <g id="patch_112">
    <path d="M 443.04 358.56 
L 635.04 358.56 
L 635.04 234.144 
L 443.04 234.144 
z
" style="fill:none;"/>
   </g>
   <g id="patch_113">
    <path clip-path="url(#p04cc9ef9e3)" d="M 528.980854 358.56 
L 532.766177 358.56 
L 532.766177 357.419929 
L 528.980854 357.419929 
z
" style="fill:#5bc0de;stroke:#d2d2d2;stroke-linejoin:miter;"/>
   </g>
   <g id="patch_114">
    <path clip-path="url(#p04cc9ef9e3)" d="M 532.766177 358.56 
L 536.551501 358.56 
L 536.551501 356.81189 
L 532.766177 356.81189 
z
" style="fill:#5bc0de;stroke:#d2d2d2;stroke-linejoin:miter;"/>
   </g>
   <g id="patch_115">
    <path clip-path="url(#p04cc9ef9e3)" d="M 536.551501 358.56 
L 540.336824 358.56 
L 540.336824 353.239666 
L 536.551501 353.239666 
z
" style="fill:#5bc0de;stroke:#d2d2d2;stroke-linejoin:miter;"/>
   </g>
   <g id="patch_116">
    <path clip-path="url(#p04cc9ef9e3)" d="M 540.336824 358.56 
L 544.122147 358.56 
L 544.122147 349.439428 
L 540.336824 349.439428 
z
" style="fill:#5bc0de;stroke:#d2d2d2;stroke-linejoin:miter;"/>
   </g>
   <g id="patch_117">
    <path clip-path="url(#p04cc9ef9e3)" d="M 544.122147 358.56 
L 547.90747 358.56 
L 547.90747 334.922518 
L 544.122147 334.922518 
z
" style="fill:#5bc0de;stroke:#d2d2d2;stroke-linejoin:miter;"/>
   </g>
   <g id="patch_118">
    <path clip-path="url(#p04cc9ef9e3)" d="M 547.90747 358.56 
L 551.692793 358.56 
L 551.692793 323.065775 
L 547.90747 323.065775 
z
" style="fill:#5bc0de;stroke:#d2d2d2;stroke-linejoin:miter;"/>
   </g>
   <g id="patch_119">
    <path clip-path="url(#p04cc9ef9e3)" d="M 551.692793 358.56 
L 555.478116 358.56 
L 555.478116 314.85726 
L 551.692793 314.85726 
z
" style="fill:#5bc0de;stroke:#d2d2d2;stroke-linejoin:miter;"/>
   </g>
   <g id="patch_120">
    <path clip-path="url(#p04cc9ef9e3)" d="M 555.478116 358.56 
L 559.263439 358.56 
L 559.263439 272.370597 
L 555.478116 272.370597 
z
" style="fill:#5bc0de;stroke:#d2d2d2;stroke-linejoin:miter;"/>
   </g>
   <g id="patch_121">
    <path clip-path="url(#p04cc9ef9e3)" d="M 559.263439 358.56 
L 563.048762 358.56 
L 563.048762 244.324838 
L 559.263439 244.324838 
z
" style="fill:#5bc0de;stroke:#d2d2d2;stroke-linejoin:miter;"/>
   </g>
   <g id="patch_122">
    <path clip-path="url(#p04cc9ef9e3)" d="M 563.048762 358.56 
L 566.834085 358.56 
L 566.834085 276.018825 
L 563.048762 276.018825 
z
" style="fill:#5bc0de;stroke:#d2d2d2;stroke-linejoin:miter;"/>
   </g>
   <g id="patch_123">
    <path clip-path="url(#p04cc9ef9e3)" d="M 566.834085 358.56 
L 570.619409 358.56 
L 570.619409 240.068571 
L 566.834085 240.068571 
z
" style="fill:#5bc0de;stroke:#d2d2d2;stroke-linejoin:miter;"/>
   </g>
   <g id="patch_124">
    <path clip-path="url(#p04cc9ef9e3)" d="M 570.619409 358.56 
L 574.404732 358.56 
L 574.404732 260.741867 
L 570.619409 260.741867 
z
" style="fill:#5bc0de;stroke:#d2d2d2;stroke-linejoin:miter;"/>
   </g>
   <g id="patch_125">
    <path clip-path="url(#p04cc9ef9e3)" d="M 574.404732 358.56 
L 578.190055 358.56 
L 578.190055 289.547673 
L 574.404732 289.547673 
z
" style="fill:#5bc0de;stroke:#d2d2d2;stroke-linejoin:miter;"/>
   </g>
   <g id="patch_126">
    <path clip-path="url(#p04cc9ef9e3)" d="M 578.190055 358.56 
L 581.975378 358.56 
L 581.975378 329.602185 
L 578.190055 329.602185 
z
" style="fill:#5bc0de;stroke:#d2d2d2;stroke-linejoin:miter;"/>
   </g>
   <g id="patch_127">
    <path clip-path="url(#p04cc9ef9e3)" d="M 581.975378 358.56 
L 585.760701 358.56 
L 585.760701 334.010461 
L 581.975378 334.010461 
z
" style="fill:#5bc0de;stroke:#d2d2d2;stroke-linejoin:miter;"/>
   </g>
   <g id="patch_128">
    <path clip-path="url(#p04cc9ef9e3)" d="M 585.760701 358.56 
L 589.546024 358.56 
L 589.546024 346.931271 
L 585.760701 346.931271 
z
" style="fill:#5bc0de;stroke:#d2d2d2;stroke-linejoin:miter;"/>
   </g>
   <g id="patch_129">
    <path clip-path="url(#p04cc9ef9e3)" d="M 589.546024 358.56 
L 593.331347 358.56 
L 593.331347 354.683757 
L 589.546024 354.683757 
z
" style="fill:#5bc0de;stroke:#d2d2d2;stroke-linejoin:miter;"/>
   </g>
   <g id="patch_130">
    <path clip-path="url(#p04cc9ef9e3)" d="M 593.331347 358.56 
L 597.11667 358.56 
L 597.11667 356.81189 
L 593.331347 356.81189 
z
" style="fill:#5bc0de;stroke:#d2d2d2;stroke-linejoin:miter;"/>
   </g>
   <g id="patch_131">
    <path clip-path="url(#p04cc9ef9e3)" d="M 597.11667 358.56 
L 600.901993 358.56 
L 600.901993 358.027967 
L 597.11667 358.027967 
z
" style="fill:#5bc0de;stroke:#d2d2d2;stroke-linejoin:miter;"/>
   </g>
   <g id="patch_132">
    <path clip-path="url(#p04cc9ef9e3)" d="M 600.901993 358.56 
L 604.687317 358.56 
L 604.687317 358.255981 
L 600.901993 358.255981 
z
" style="fill:#5bc0de;stroke:#d2d2d2;stroke-linejoin:miter;"/>
   </g>
   <g id="matplotlib.axis_11">
    <g id="xtick_31">
     <g id="line2d_41">
      <g>
       <use style="fill:#d2d2d2;stroke:#d2d2d2;" x="443.04" xlink:href="#m337ac8f194" y="358.56"/>
      </g>
     </g>
     <g id="text_61">
      <!-- 0.3 -->
      <g style="fill:#d2d2d2;" transform="translate(432.702969 374.437969)scale(0.13 -0.13)">
       <use xlink:href="#DejaVuSans-30"/>
       <use x="63.623047" xlink:href="#DejaVuSans-2e"/>
       <use x="95.410156" xlink:href="#DejaVuSans-33"/>
      </g>
     </g>
    </g>
    <g id="xtick_32">
     <g id="line2d_42">
      <g>
       <use style="fill:#d2d2d2;stroke:#d2d2d2;" x="477.949091" xlink:href="#m337ac8f194" y="358.56"/>
      </g>
     </g>
     <g id="text_62">
      <!-- 0.4 -->
      <g style="fill:#d2d2d2;" transform="translate(467.61206 374.437969)scale(0.13 -0.13)">
       <use xlink:href="#DejaVuSans-30"/>
       <use x="63.623047" xlink:href="#DejaVuSans-2e"/>
       <use x="95.410156" xlink:href="#DejaVuSans-34"/>
      </g>
     </g>
    </g>
    <g id="xtick_33">
     <g id="line2d_43">
      <g>
       <use style="fill:#d2d2d2;stroke:#d2d2d2;" x="512.858182" xlink:href="#m337ac8f194" y="358.56"/>
      </g>
     </g>
     <g id="text_63">
      <!-- 0.5 -->
      <g style="fill:#d2d2d2;" transform="translate(502.521151 374.437969)scale(0.13 -0.13)">
       <use xlink:href="#DejaVuSans-30"/>
       <use x="63.623047" xlink:href="#DejaVuSans-2e"/>
       <use x="95.410156" xlink:href="#DejaVuSans-35"/>
      </g>
     </g>
    </g>
    <g id="xtick_34">
     <g id="line2d_44">
      <g>
       <use style="fill:#d2d2d2;stroke:#d2d2d2;" x="547.767273" xlink:href="#m337ac8f194" y="358.56"/>
      </g>
     </g>
     <g id="text_64">
      <!-- 0.6 -->
      <g style="fill:#d2d2d2;" transform="translate(537.430241 374.437969)scale(0.13 -0.13)">
       <use xlink:href="#DejaVuSans-30"/>
       <use x="63.623047" xlink:href="#DejaVuSans-2e"/>
       <use x="95.410156" xlink:href="#DejaVuSans-36"/>
      </g>
     </g>
    </g>
    <g id="xtick_35">
     <g id="line2d_45">
      <g>
       <use style="fill:#d2d2d2;stroke:#d2d2d2;" x="582.676364" xlink:href="#m337ac8f194" y="358.56"/>
      </g>
     </g>
     <g id="text_65">
      <!-- 0.7 -->
      <g style="fill:#d2d2d2;" transform="translate(572.339332 374.437969)scale(0.13 -0.13)">
       <use xlink:href="#DejaVuSans-30"/>
       <use x="63.623047" xlink:href="#DejaVuSans-2e"/>
       <use x="95.410156" xlink:href="#DejaVuSans-37"/>
      </g>
     </g>
    </g>
    <g id="xtick_36">
     <g id="line2d_46">
      <g>
       <use style="fill:#d2d2d2;stroke:#d2d2d2;" x="617.585455" xlink:href="#m337ac8f194" y="358.56"/>
      </g>
     </g>
     <g id="text_66">
      <!-- 0.8 -->
      <g style="fill:#d2d2d2;" transform="translate(607.248423 374.437969)scale(0.13 -0.13)">
       <use xlink:href="#DejaVuSans-30"/>
       <use x="63.623047" xlink:href="#DejaVuSans-2e"/>
       <use x="95.410156" xlink:href="#DejaVuSans-38"/>
      </g>
     </g>
    </g>
    <g id="text_67">
     <!-- Proportion of UCLA wins -->
     <g style="fill:#d2d2d2;" transform="translate(454.773125 388.779375)scale(0.14 -0.14)">
      <use xlink:href="#DejaVuSans-50"/>
      <use x="60.287109" xlink:href="#DejaVuSans-72"/>
      <use x="101.369141" xlink:href="#DejaVuSans-6f"/>
      <use x="162.550781" xlink:href="#DejaVuSans-70"/>
      <use x="226.027344" xlink:href="#DejaVuSans-6f"/>
      <use x="287.208984" xlink:href="#DejaVuSans-72"/>
      <use x="328.322266" xlink:href="#DejaVuSans-74"/>
      <use x="367.53125" xlink:href="#DejaVuSans-69"/>
      <use x="395.314453" xlink:href="#DejaVuSans-6f"/>
      <use x="456.496094" xlink:href="#DejaVuSans-6e"/>
      <use x="519.875" xlink:href="#DejaVuSans-20"/>
      <use x="551.662109" xlink:href="#DejaVuSans-6f"/>
      <use x="612.84375" xlink:href="#DejaVuSans-66"/>
      <use x="648.048828" xlink:href="#DejaVuSans-20"/>
      <use x="679.835938" xlink:href="#DejaVuSans-55"/>
      <use x="753.029297" xlink:href="#DejaVuSans-43"/>
      <use x="822.853516" xlink:href="#DejaVuSans-4c"/>
      <use x="878.597656" xlink:href="#DejaVuSans-41"/>
      <use x="947.005859" xlink:href="#DejaVuSans-20"/>
      <use x="978.792969" xlink:href="#DejaVuSans-77"/>
      <use x="1060.580078" xlink:href="#DejaVuSans-69"/>
      <use x="1088.363281" xlink:href="#DejaVuSans-6e"/>
      <use x="1151.742188" xlink:href="#DejaVuSans-73"/>
     </g>
    </g>
   </g>
   <g id="matplotlib.axis_12"/>
   <g id="line2d_47">
    <path clip-path="url(#p04cc9ef9e3)" d="M 534.58874 358.56 
L 534.58874 240.3648 
" style="fill:none;stroke:#d9534f;stroke-dasharray:5.6,2.4;stroke-dashoffset:0;stroke-width:1.5;"/>
   </g>
   <g id="line2d_48">
    <path d="M 595.854896 358.56 
L 595.854896 240.3648 
" style="fill:none;stroke:#d2d2d2;stroke-dasharray:5.6,2.4;stroke-dashoffset:0;stroke-width:1.5;"/>
   </g>
   <g id="patch_133">
    <path d="M 443.04 358.56 
L 635.04 358.56 
" style="fill:none;stroke:#d2d2d2;stroke-linecap:square;stroke-linejoin:miter;"/>
   </g>
   <g id="text_68">
    <!-- $\hat{p}=0.562$ -->
    <g style="fill:#d9534f;" transform="translate(534.58874 234.144)scale(0.12 -0.12)">
     <use transform="translate(64.447266 13.015625)" xlink:href="#DejaVuSans-302"/>
     <use transform="translate(0 0.515625)" xlink:href="#DejaVuSans-Oblique-70"/>
     <use transform="translate(82.958984 0.515625)" xlink:href="#DejaVuSans-3d"/>
     <use transform="translate(186.230469 0.515625)" xlink:href="#DejaVuSans-30"/>
     <use transform="translate(249.853516 0.515625)" xlink:href="#DejaVuSans-2e"/>
     <use transform="translate(281.640625 0.515625)" xlink:href="#DejaVuSans-35"/>
     <use transform="translate(345.263672 0.515625)" xlink:href="#DejaVuSans-36"/>
     <use transform="translate(408.886719 0.515625)" xlink:href="#DejaVuSans-32"/>
    </g>
   </g>
   <g id="text_69">
    <!-- $\pi_0=0.65$ -->
    <g style="fill:#f0ad4e;" transform="translate(443.04 234.144)scale(0.12 -0.12)">
     <use transform="translate(0 0.78125)" xlink:href="#DejaVuSans-Oblique-3c0"/>
     <use transform="translate(60.205078 -15.625)scale(0.7)" xlink:href="#DejaVuSans-30"/>
     <use transform="translate(126.958008 0.78125)" xlink:href="#DejaVuSans-3d"/>
     <use transform="translate(230.229492 0.78125)" xlink:href="#DejaVuSans-30"/>
     <use transform="translate(293.852539 0.78125)" xlink:href="#DejaVuSans-2e"/>
     <use transform="translate(325.639648 0.78125)" xlink:href="#DejaVuSans-36"/>
     <use transform="translate(389.262695 0.78125)" xlink:href="#DejaVuSans-35"/>
    </g>
   </g>
   <g id="text_70">
    <!-- 31 -->
    <g style="fill:#d2d2d2;" transform="translate(501.864195 296.352)scale(0.12 -0.12)">
     <use xlink:href="#DejaVuSans-33"/>
     <use x="63.623047" xlink:href="#DejaVuSans-31"/>
    </g>
   </g>
   <g id="text_71">
    <!-- 13 -->
    <g style="fill:#d2d2d2;" transform="translate(613.309441 296.352)scale(0.12 -0.12)">
     <use xlink:href="#DejaVuSans-31"/>
     <use x="63.623047" xlink:href="#DejaVuSans-33"/>
    </g>
   </g>
   <g id="text_72">
    <!-- p-value -->
    <g style="fill:#5cb85c;" transform="translate(443.04 338.901825)scale(0.12 -0.12)">
     <use xlink:href="#DejaVuSans-70"/>
     <use x="63.476562" xlink:href="#DejaVuSans-2d"/>
     <use x="99.529297" xlink:href="#DejaVuSans-76"/>
     <use x="158.708984" xlink:href="#DejaVuSans-61"/>
     <use x="219.988281" xlink:href="#DejaVuSans-6c"/>
     <use x="247.771484" xlink:href="#DejaVuSans-75"/>
     <use x="311.150391" xlink:href="#DejaVuSans-65"/>
    </g>
    <!-- 0.004 -->
    <g style="fill:#5cb85c;" transform="translate(443.04 352.3392)scale(0.12 -0.12)">
     <use xlink:href="#DejaVuSans-30"/>
     <use x="63.623047" xlink:href="#DejaVuSans-2e"/>
     <use x="95.410156" xlink:href="#DejaVuSans-30"/>
     <use x="159.033203" xlink:href="#DejaVuSans-30"/>
     <use x="222.65625" xlink:href="#DejaVuSans-34"/>
    </g>
   </g>
  </g>
 </g>
 <defs>
  <clipPath id="p9608a8043e">
   <rect height="124.416" width="192" x="12.96" y="47.52"/>
  </clipPath>
  <clipPath id="p5dfeda61a7">
   <rect height="124.416" width="192" x="228" y="47.52"/>
  </clipPath>
  <clipPath id="pb23e5dd735">
   <rect height="124.416" width="192" x="443.04" y="47.52"/>
  </clipPath>
  <clipPath id="pc5a6530090">
   <rect height="124.416" width="192" x="12.96" y="234.144"/>
  </clipPath>
  <clipPath id="p212cba4d1b">
   <rect height="124.416" width="192" x="228" y="234.144"/>
  </clipPath>
  <clipPath id="p04cc9ef9e3">
   <rect height="124.416" width="192" x="443.04" y="234.144"/>
  </clipPath>
 </defs>
</svg>
