<?xml version="1.0" encoding="UTF-8" standalone="no"?>
<svg xmlns:rdf="http://www.w3.org/1999/02/22-rdf-syntax-ns#" xmlns="http://www.w3.org/2000/svg" height="315pt" width="219pt" version="1.1" xmlns:cc="http://creativecommons.org/ns#" xmlns:dc="http://purl.org/dc/elements/1.1/" viewBox="0 0 219 315">
 <g transform="translate(-109.5,-157.5)">
  <g style="">
   <g fill="#ffba00" transform="matrix(.5 0 0 .5 109.5 157.5)">
    <path d="m59.43 0h197.02c16.48 16.04 32.32 32.72 48.95 48.6 3.43 3.94 9.13 7.31 8.26 13.44 1.18 22.63-0.02 45.31 0.32 67.96-33.3 0.02-66.61 0.01-99.91-0.01-0.06-10.33-0.08-20.65-0.13-30.98-37.65-0.03-75.29-0.03-112.94 0-0.03 17.33-0.02 34.65 0.01 51.98 43.33-0.04 86.66 0.18 129.99-0.17 6.9 0.06 13.85-0.17 20.71 0.71 4.83 2.93 8.65 7.19 12.65 11.11 13.82 14.18 27.83 28.18 42.05 41.96 3.24 3.52 8.09 6.85 7.24 12.44 0.89 12.97 0.44 25.98 0.34 38.98 23.25-0.12 46.5 0 69.75 0.09 17.86 18.41 36.49 36.07 54.26 54.56v97.33c-34.67-0.01-69.33 0.03-103.99-0.01 0.05-18.41-0.09-36.82-0.02-55.23-8.6 0.14-17.24-0.18-25.8 0.79-9.81 6.88-17.27 16.51-25.95 24.69-9.87 9.39-18.64 19.98-29.21 28.61-10.44 2.11-21.38 1.05-32.02 1.25-0.03 40.3-0.03 80.59 0 120.89 37.66 0.03 75.32 0.03 112.97 0-0.02-16.33 0.06-32.66 0.03-48.98 34.66-0.04 69.33 0 103.99-0.01v100.45c-16.51 16.55-32.9 33.25-49.65 49.55h-216.81c-6.47-6.05-12.48-12.55-18.8-18.74-9.66-9.69-20.42-18.27-29.48-28.54-2.93-3.07-1.47-7.96-2.24-11.66-0.19-54.35 0.11-108.71-0.03-163.07-22.21-0.51-44.55 1.13-66.68-0.52-9.01-6.04-15.86-14.69-23.43-22.33-9.74-11.13-20.8-20.98-30.88-31.76v-85.38c32.99 0.01 65.98-0.04 98.97 0.01 0.01 13.41 0.07 26.81 0.06 40.22 8.56-0.12 17.16 0.18 25.68-0.73 4.24-2.54 7.64-6.21 11.16-9.63 11.38-11.62 22.89-23.12 34.23-34.78 3.38-3.08 6.59-7.63 11.93-6.76 9.3-0.71 18.64-0.47 27.97-0.41-0.01-2.64-0.01-5.28 0-7.92-45.01 0.04-90.02-0.16-135.02 0.21-4.18-0.38-8.58 0.48-12.65-0.77-6.61-4.11-11.63-10.23-17.15-15.62-14.81-15.4-30.42-30.02-45.18-45.45v-124.78c7.17-7.68 14.94-14.79 21.97-22.61 12.16-13.31 25.77-25.23 37.46-38.98m6.11 10.64c-2.92 1.57-5 4.28-7.4 6.5-16.22 16.77-33.05 32.93-49.28 49.69 0.36 38.31-0.09 76.62 0.26 114.93 17.15 16.89 34.14 33.95 51.05 51.08 4.06 3.87 8.34 9.04 14.79 7.26 48.3-0.14 96.61-0.12 144.91-0.08 2.46 52.63 0.5 105.35 1.13 158.02 9.24-0.1 18.49-0.13 27.73-0.17 17.85-17.55 34.86-35.9 52.43-53.7 4.74-4.08 2.37-10.83 3-16.17-0.55-34.99 0.33-70-0.37-104.99 1.08-4.09-2-6.84-4.43-9.36-17.67-17.37-35.2-34.89-52.6-52.53-51.59-0.3-103.17-0.02-154.76-0.12-0.02-24.33-0.01-48.66 0-72.99 43.99-0.02 87.98-0.02 131.97 0 0 10.33 0.06 20.66 0.06 30.98 26.65 0.02 53.3 0.02 79.95 0 0.05-18.39-0.03-36.78 0.15-55.17-17.82-18.15-35.81-36.13-53.96-53.96-48.39 0.28-96.78 0.09-145.17 0.12-13.15 0.14-26.35-0.7-39.46 0.66m116.99 255.95c-3.27 1.92-5.63 5.01-8.37 7.56-12.29 12.73-24.98 25.04-37.48 37.55-2.24 2.75-5.91 5.28-5.7 9.23 0.02 81.7 0.03 163.4 0 245.11 0.95 3.45-1.08 8.28 1.81 11.17 13.63 14.04 26.96 28.37 40.81 42.2 3.31 4.6 9.73 1.88 14.39 2.74 64.92-0.43 129.84 0.14 194.76-0.31 15.53-15.16 29.97-31.38 45.39-46.66-0.27-28.4-0.07-56.79-0.14-85.18-28-0.02-56-0.01-84 0.01 0.07 16.66-0.07 33.32 0 49.98-44.33 0.02-88.66 0.02-133 0-0.02-91.33 0.02-182.67-0.01-274.01-9.49-0.01-19.01-0.45-28.46 0.61m131.48-0.59c-0.03 25.66-0.02 51.31-0.01 76.96 10 0.01 20 0.07 30 0.08-0.07 18.32 0.07 36.63 0 54.96 27.99 0.01 55.99 0.01 83.99 0-0.04-27.25 0.18-54.5-0.14-81.75-14.98-14.73-29.72-29.69-44.55-44.57-2.76-2.25-5.28-5.91-9.23-5.7-20.02-0.34-40.04 0.21-60.06 0.02m-305.01 12c0.1 24.12-0.36 48.24 0.37 72.36 15.52 14.9 30.89 29.96 46.47 44.79 2.52 2.97 6.42 3.4 10.12 2.95 18.34 0.12 36.69-0.24 55.03-0.11 0.02-26.66 0.03-53.31 0.01-79.97-10.66 0-21.32-0.06-31.98-0.05-0.01-13.32-0.03-26.64-0.04-39.96-26.66-0.02-53.32-0.03-79.98-0.01z" fill="#ffba00"/>
   </g>
   <g fill="#ad003d" transform="matrix(.5 0 0 .5 109.5 157.5)">
    <path d="m65.54 10.64c13.11-1.36 26.31-0.52 39.46-0.66 48.39-0.03 96.78 0.16 145.17-0.12 18.15 17.83 36.14 35.81 53.96 53.96-0.18 18.39-0.1 36.78-0.15 55.17-26.65 0.02-53.3 0.02-79.95 0 0-10.32-0.06-20.65-0.06-30.98-43.99-0.02-87.98-0.02-131.97 0-0.01 24.33-0.02 48.66 0 72.99 51.59 0.1 103.17-0.18 154.76 0.12 17.4 17.64 34.93 35.16 52.6 52.53 2.43 2.52 5.51 5.27 4.43 9.36 0.7 34.99-0.18 70 0.37 104.99-0.63 5.34 1.74 12.09-3 16.17-17.57 17.8-34.58 36.15-52.43 53.7-9.24 0.04-18.49 0.07-27.73 0.17-0.63-52.67 1.33-105.39-1.13-158.02-48.3-0.04-96.61-0.06-144.91 0.08-6.45 1.78-10.73-3.39-14.79-7.26-16.91-17.13-33.9-34.19-51.05-51.08-0.35-38.31 0.1-76.62-0.26-114.93 16.23-16.76 33.06-32.92 49.28-49.69 2.4-2.22 4.48-4.93 7.4-6.5z"/>
    <path d="m182.53 266.59c9.45-1.06 18.97-0.62 28.46-0.61 0.03 91.34-0.01 182.68 0.01 274.01 44.34 0.02 88.67 0.02 133 0-0.07-16.66 0.07-33.32 0-49.98 28-0.02 56-0.03 84-0.01 0.07 28.39-0.13 56.78 0.14 85.18-15.42 15.28-29.86 31.5-45.39 46.66-64.92 0.45-129.84-0.12-194.76 0.31-4.66-0.86-11.08 1.86-14.39-2.74-13.85-13.83-27.18-28.16-40.81-42.2-2.89-2.89-0.86-7.72-1.81-11.17 0.03-81.71 0.02-163.41 0-245.11-0.21-3.95 3.46-6.48 5.7-9.23 12.5-12.51 25.19-24.82 37.48-37.55 2.74-2.55 5.1-5.64 8.37-7.56z"/>
    <path d="m314.01 266c20.02 0.19 40.04-0.36 60.06-0.02 3.95-0.21 6.47 3.45 9.23 5.7 14.83 14.88 29.57 29.84 44.55 44.57 0.32 27.25 0.1 54.5 0.14 81.75-28 0.01-56 0.01-83.99 0 0.07-18.33-0.07-36.64 0-54.96-10-0.01-20-0.07-30-0.08-0.01-25.65-0.02-51.3 0.01-76.96z"/>
    <path d="m9 278c26.66-0.02 53.32-0.01 79.98 0.01 0.01 13.32 0.03 26.64 0.04 39.96 10.66-0.01 21.32 0.05 31.98 0.05 0.02 26.66 0.01 53.31-0.01 79.97-18.34-0.13-36.69 0.23-55.03 0.11-3.7 0.45-7.6 0.02-10.12-2.95-15.58-14.83-30.95-29.89-46.47-44.79-0.73-24.12-0.27-48.24-0.37-72.36z"/>
   </g>
  </g>
 </g>
</svg>
