<?xml version="1.0" encoding="utf-8" standalone="no"?>
<!DOCTYPE svg PUBLIC "-//W3C//DTD SVG 1.1//EN"
  "http://www.w3.org/Graphics/SVG/1.1/DTD/svg11.dtd">
<!-- Created with matplotlib (http://matplotlib.org/) -->
<svg height="288pt" version="1.1" viewBox="0 0 432 288" width="432pt" xmlns="http://www.w3.org/2000/svg" xmlns:xlink="http://www.w3.org/1999/xlink">
 <defs>
  <style type="text/css">
*{stroke-linecap:butt;stroke-linejoin:round;}
  </style>
 </defs>
 <g id="figure_1">
  <g id="patch_1">
   <path d="M 0 288 
L 432 288 
L 432 0 
L 0 0 
z
" style="fill:none;"/>
  </g>
  <g id="axes_1">
   <g id="patch_2">
    <path d="M 4.32 244.8 
L 358.56 244.8 
L 358.56 28.8 
L 4.32 28.8 
z
" style="fill:none;"/>
   </g>
   <g id="patch_3">
    <path clip-path="url(#p8fc412e1ff)" d="M 20.421818 244.8 
L 26.497976 244.8 
L 26.497976 244.45074 
L 20.421818 244.45074 
z
" style="fill:#5bc0de;opacity:0.8;"/>
   </g>
   <g id="patch_4">
    <path clip-path="url(#p8fc412e1ff)" d="M 26.497976 244.8 
L 32.574134 244.8 
L 32.574134 243.752219 
L 26.497976 243.752219 
z
" style="fill:#5bc0de;opacity:0.8;"/>
   </g>
   <g id="patch_5">
    <path clip-path="url(#p8fc412e1ff)" d="M 32.574134 244.8 
L 38.650292 244.8 
L 38.650292 243.402959 
L 32.574134 243.402959 
z
" style="fill:#5bc0de;opacity:0.8;"/>
   </g>
   <g id="patch_6">
    <path clip-path="url(#p8fc412e1ff)" d="M 38.650292 244.8 
L 44.726449 244.8 
L 44.726449 243.053699 
L 38.650292 243.053699 
z
" style="fill:#5bc0de;opacity:0.8;"/>
   </g>
   <g id="patch_7">
    <path clip-path="url(#p8fc412e1ff)" d="M 44.726449 244.8 
L 50.802607 244.8 
L 50.802607 240.608877 
L 44.726449 240.608877 
z
" style="fill:#5bc0de;opacity:0.8;"/>
   </g>
   <g id="patch_8">
    <path clip-path="url(#p8fc412e1ff)" d="M 50.802607 244.8 
L 56.878765 244.8 
L 56.878765 237.814795 
L 50.802607 237.814795 
z
" style="fill:#5bc0de;opacity:0.8;"/>
   </g>
   <g id="patch_9">
    <path clip-path="url(#p8fc412e1ff)" d="M 56.878765 244.8 
L 62.954923 244.8 
L 62.954923 236.068494 
L 56.878765 236.068494 
z
" style="fill:#5bc0de;opacity:0.8;"/>
   </g>
   <g id="patch_10">
    <path clip-path="url(#p8fc412e1ff)" d="M 62.954923 244.8 
L 69.031081 244.8 
L 69.031081 233.274412 
L 62.954923 233.274412 
z
" style="fill:#5bc0de;opacity:0.8;"/>
   </g>
   <g id="patch_11">
    <path clip-path="url(#p8fc412e1ff)" d="M 69.031081 244.8 
L 75.107238 244.8 
L 75.107238 227.686248 
L 69.031081 227.686248 
z
" style="fill:#5bc0de;opacity:0.8;"/>
   </g>
   <g id="patch_12">
    <path clip-path="url(#p8fc412e1ff)" d="M 75.107238 244.8 
L 81.183396 244.8 
L 81.183396 217.557701 
L 75.107238 217.557701 
z
" style="fill:#5bc0de;opacity:0.8;"/>
   </g>
   <g id="patch_13">
    <path clip-path="url(#p8fc412e1ff)" d="M 81.183396 244.8 
L 87.259554 244.8 
L 87.259554 214.065098 
L 81.183396 214.065098 
z
" style="fill:#5bc0de;opacity:0.8;"/>
   </g>
   <g id="patch_14">
    <path clip-path="url(#p8fc412e1ff)" d="M 87.259554 244.8 
L 93.335712 244.8 
L 93.335712 213.715838 
L 87.259554 213.715838 
z
" style="fill:#5bc0de;opacity:0.8;"/>
   </g>
   <g id="patch_15">
    <path clip-path="url(#p8fc412e1ff)" d="M 93.335712 244.8 
L 99.41187 244.8 
L 99.41187 193.458744 
L 93.335712 193.458744 
z
" style="fill:#5bc0de;opacity:0.8;"/>
   </g>
   <g id="patch_16">
    <path clip-path="url(#p8fc412e1ff)" d="M 99.41187 244.8 
L 105.488027 244.8 
L 105.488027 192.760223 
L 99.41187 192.760223 
z
" style="fill:#5bc0de;opacity:0.8;"/>
   </g>
   <g id="patch_17">
    <path clip-path="url(#p8fc412e1ff)" d="M 105.488027 244.8 
L 111.564185 244.8 
L 111.564185 184.028717 
L 105.488027 184.028717 
z
" style="fill:#5bc0de;opacity:0.8;"/>
   </g>
   <g id="patch_18">
    <path clip-path="url(#p8fc412e1ff)" d="M 111.564185 244.8 
L 117.640343 244.8 
L 117.640343 153.643075 
L 111.564185 153.643075 
z
" style="fill:#5bc0de;opacity:0.8;"/>
   </g>
   <g id="patch_19">
    <path clip-path="url(#p8fc412e1ff)" d="M 117.640343 244.8 
L 123.716501 244.8 
L 123.716501 161.326801 
L 117.640343 161.326801 
z
" style="fill:#5bc0de;opacity:0.8;"/>
   </g>
   <g id="patch_20">
    <path clip-path="url(#p8fc412e1ff)" d="M 123.716501 244.8 
L 129.792659 244.8 
L 129.792659 157.484938 
L 123.716501 157.484938 
z
" style="fill:#5bc0de;opacity:0.8;"/>
   </g>
   <g id="patch_21">
    <path clip-path="url(#p8fc412e1ff)" d="M 129.792659 244.8 
L 135.868816 244.8 
L 135.868816 122.908174 
L 129.792659 122.908174 
z
" style="fill:#5bc0de;opacity:0.8;"/>
   </g>
   <g id="patch_22">
    <path clip-path="url(#p8fc412e1ff)" d="M 135.868816 244.8 
L 141.944974 244.8 
L 141.944974 115.922969 
L 135.868816 115.922969 
z
" style="fill:#5bc0de;opacity:0.8;"/>
   </g>
   <g id="patch_23">
    <path clip-path="url(#p8fc412e1ff)" d="M 141.944974 244.8 
L 148.021132 244.8 
L 148.021132 100.555518 
L 141.944974 100.555518 
z
" style="fill:#5bc0de;opacity:0.8;"/>
   </g>
   <g id="patch_24">
    <path clip-path="url(#p8fc412e1ff)" d="M 148.021132 244.8 
L 154.09729 244.8 
L 154.09729 76.107301 
L 148.021132 76.107301 
z
" style="fill:#5bc0de;opacity:0.8;"/>
   </g>
   <g id="patch_25">
    <path clip-path="url(#p8fc412e1ff)" d="M 154.09729 244.8 
L 160.173448 244.8 
L 160.173448 98.809217 
L 154.09729 98.809217 
z
" style="fill:#5bc0de;opacity:0.8;"/>
   </g>
   <g id="patch_26">
    <path clip-path="url(#p8fc412e1ff)" d="M 160.173448 244.8 
L 166.249605 244.8 
L 166.249605 95.316614 
L 160.173448 95.316614 
z
" style="fill:#5bc0de;opacity:0.8;"/>
   </g>
   <g id="patch_27">
    <path clip-path="url(#p8fc412e1ff)" d="M 166.249605 244.8 
L 172.325763 244.8 
L 172.325763 40.133495 
L 166.249605 40.133495 
z
" style="fill:#5bc0de;opacity:0.8;"/>
   </g>
   <g id="patch_28">
    <path clip-path="url(#p8fc412e1ff)" d="M 172.325763 244.8 
L 178.401921 244.8 
L 178.401921 88.680669 
L 172.325763 88.680669 
z
" style="fill:#5bc0de;opacity:0.8;"/>
   </g>
   <g id="patch_29">
    <path clip-path="url(#p8fc412e1ff)" d="M 178.401921 244.8 
L 184.478079 244.8 
L 184.478079 93.570313 
L 178.401921 93.570313 
z
" style="fill:#5bc0de;opacity:0.8;"/>
   </g>
   <g id="patch_30">
    <path clip-path="url(#p8fc412e1ff)" d="M 184.478079 244.8 
L 190.554237 244.8 
L 190.554237 93.570313 
L 184.478079 93.570313 
z
" style="fill:#5bc0de;opacity:0.8;"/>
   </g>
   <g id="patch_31">
    <path clip-path="url(#p8fc412e1ff)" d="M 190.554237 244.8 
L 196.630395 244.8 
L 196.630395 55.151686 
L 190.554237 55.151686 
z
" style="fill:#5bc0de;opacity:0.8;"/>
   </g>
   <g id="patch_32">
    <path clip-path="url(#p8fc412e1ff)" d="M 196.630395 244.8 
L 202.706552 244.8 
L 202.706552 96.364395 
L 196.630395 96.364395 
z
" style="fill:#5bc0de;opacity:0.8;"/>
   </g>
   <g id="patch_33">
    <path clip-path="url(#p8fc412e1ff)" d="M 202.706552 244.8 
L 208.78271 244.8 
L 208.78271 116.621489 
L 202.706552 116.621489 
z
" style="fill:#5bc0de;opacity:0.8;"/>
   </g>
   <g id="patch_34">
    <path clip-path="url(#p8fc412e1ff)" d="M 208.78271 244.8 
L 214.858868 244.8 
L 214.858868 79.250643 
L 208.78271 79.250643 
z
" style="fill:#5bc0de;opacity:0.8;"/>
   </g>
   <g id="patch_35">
    <path clip-path="url(#p8fc412e1ff)" d="M 214.858868 244.8 
L 220.935026 244.8 
L 220.935026 130.591899 
L 214.858868 130.591899 
z
" style="fill:#5bc0de;opacity:0.8;"/>
   </g>
   <g id="patch_36">
    <path clip-path="url(#p8fc412e1ff)" d="M 220.935026 244.8 
L 227.011184 244.8 
L 227.011184 149.102692 
L 220.935026 149.102692 
z
" style="fill:#5bc0de;opacity:0.8;"/>
   </g>
   <g id="patch_37">
    <path clip-path="url(#p8fc412e1ff)" d="M 227.011184 244.8 
L 233.087341 244.8 
L 233.087341 124.654475 
L 227.011184 124.654475 
z
" style="fill:#5bc0de;opacity:0.8;"/>
   </g>
   <g id="patch_38">
    <path clip-path="url(#p8fc412e1ff)" d="M 233.087341 244.8 
L 239.163499 244.8 
L 239.163499 163.771623 
L 233.087341 163.771623 
z
" style="fill:#5bc0de;opacity:0.8;"/>
   </g>
   <g id="patch_39">
    <path clip-path="url(#p8fc412e1ff)" d="M 239.163499 244.8 
L 245.239657 244.8 
L 245.239657 168.312006 
L 239.163499 168.312006 
z
" style="fill:#5bc0de;opacity:0.8;"/>
   </g>
   <g id="patch_40">
    <path clip-path="url(#p8fc412e1ff)" d="M 245.239657 244.8 
L 251.315815 244.8 
L 251.315815 171.106088 
L 245.239657 171.106088 
z
" style="fill:#5bc0de;opacity:0.8;"/>
   </g>
   <g id="patch_41">
    <path clip-path="url(#p8fc412e1ff)" d="M 251.315815 244.8 
L 257.391973 244.8 
L 257.391973 196.602086 
L 251.315815 196.602086 
z
" style="fill:#5bc0de;opacity:0.8;"/>
   </g>
   <g id="patch_42">
    <path clip-path="url(#p8fc412e1ff)" d="M 257.391973 244.8 
L 263.46813 244.8 
L 263.46813 202.19025 
L 257.391973 202.19025 
z
" style="fill:#5bc0de;opacity:0.8;"/>
   </g>
   <g id="patch_43">
    <path clip-path="url(#p8fc412e1ff)" d="M 263.46813 244.8 
L 269.544288 244.8 
L 269.544288 207.079893 
L 263.46813 207.079893 
z
" style="fill:#5bc0de;opacity:0.8;"/>
   </g>
   <g id="patch_44">
    <path clip-path="url(#p8fc412e1ff)" d="M 269.544288 244.8 
L 275.620446 244.8 
L 275.620446 223.145865 
L 269.544288 223.145865 
z
" style="fill:#5bc0de;opacity:0.8;"/>
   </g>
   <g id="patch_45">
    <path clip-path="url(#p8fc412e1ff)" d="M 275.620446 244.8 
L 281.696604 244.8 
L 281.696604 232.226631 
L 275.620446 232.226631 
z
" style="fill:#5bc0de;opacity:0.8;"/>
   </g>
   <g id="patch_46">
    <path clip-path="url(#p8fc412e1ff)" d="M 281.696604 244.8 
L 287.772762 244.8 
L 287.772762 227.686248 
L 281.696604 227.686248 
z
" style="fill:#5bc0de;opacity:0.8;"/>
   </g>
   <g id="patch_47">
    <path clip-path="url(#p8fc412e1ff)" d="M 287.772762 244.8 
L 293.848919 244.8 
L 293.848919 233.972932 
L 287.772762 233.972932 
z
" style="fill:#5bc0de;opacity:0.8;"/>
   </g>
   <g id="patch_48">
    <path clip-path="url(#p8fc412e1ff)" d="M 293.848919 244.8 
L 299.925077 244.8 
L 299.925077 237.814795 
L 293.848919 237.814795 
z
" style="fill:#5bc0de;opacity:0.8;"/>
   </g>
   <g id="patch_49">
    <path clip-path="url(#p8fc412e1ff)" d="M 299.925077 244.8 
L 306.001235 244.8 
L 306.001235 239.561096 
L 299.925077 239.561096 
z
" style="fill:#5bc0de;opacity:0.8;"/>
   </g>
   <g id="patch_50">
    <path clip-path="url(#p8fc412e1ff)" d="M 306.001235 244.8 
L 312.077393 244.8 
L 312.077393 242.005918 
L 306.001235 242.005918 
z
" style="fill:#5bc0de;opacity:0.8;"/>
   </g>
   <g id="patch_51">
    <path clip-path="url(#p8fc412e1ff)" d="M 312.077393 244.8 
L 318.153551 244.8 
L 318.153551 243.053699 
L 312.077393 243.053699 
z
" style="fill:#5bc0de;opacity:0.8;"/>
   </g>
   <g id="patch_52">
    <path clip-path="url(#p8fc412e1ff)" d="M 318.153551 244.8 
L 324.229708 244.8 
L 324.229708 244.45074 
L 318.153551 244.45074 
z
" style="fill:#5bc0de;opacity:0.8;"/>
   </g>
   <g id="patch_53">
    <path clip-path="url(#p8fc412e1ff)" d="M 324.229708 244.8 
L 330.305866 244.8 
L 330.305866 244.45074 
L 324.229708 244.45074 
z
" style="fill:#5bc0de;opacity:0.8;"/>
   </g>
   <g id="patch_54">
    <path clip-path="url(#p8fc412e1ff)" d="M 330.305866 244.8 
L 336.382024 244.8 
L 336.382024 244.8 
L 330.305866 244.8 
z
" style="fill:#5bc0de;opacity:0.8;"/>
   </g>
   <g id="patch_55">
    <path clip-path="url(#p8fc412e1ff)" d="M 336.382024 244.8 
L 342.458182 244.8 
L 342.458182 244.10148 
L 336.382024 244.10148 
z
" style="fill:#5bc0de;opacity:0.8;"/>
   </g>
   <g id="patch_56">
    <path clip-path="url(#p8fc412e1ff)" d="M 111.82952 244.8 
L 114.393899 244.8 
L 114.393899 244.10148 
L 111.82952 244.10148 
z
" style="fill:#d9534f;"/>
   </g>
   <g id="patch_57">
    <path clip-path="url(#p8fc412e1ff)" d="M 114.393899 244.8 
L 116.958278 244.8 
L 116.958278 244.8 
L 114.393899 244.8 
z
" style="fill:#d9534f;"/>
   </g>
   <g id="patch_58">
    <path clip-path="url(#p8fc412e1ff)" d="M 116.958278 244.8 
L 119.522657 244.8 
L 119.522657 243.752219 
L 116.958278 243.752219 
z
" style="fill:#d9534f;"/>
   </g>
   <g id="patch_59">
    <path clip-path="url(#p8fc412e1ff)" d="M 119.522657 244.8 
L 122.087035 244.8 
L 122.087035 243.402959 
L 119.522657 243.402959 
z
" style="fill:#d9534f;"/>
   </g>
   <g id="patch_60">
    <path clip-path="url(#p8fc412e1ff)" d="M 122.087035 244.8 
L 124.651414 244.8 
L 124.651414 243.053699 
L 122.087035 243.053699 
z
" style="fill:#d9534f;"/>
   </g>
   <g id="patch_61">
    <path clip-path="url(#p8fc412e1ff)" d="M 124.651414 244.8 
L 127.215793 244.8 
L 127.215793 240.958137 
L 124.651414 240.958137 
z
" style="fill:#d9534f;"/>
   </g>
   <g id="patch_62">
    <path clip-path="url(#p8fc412e1ff)" d="M 127.215793 244.8 
L 129.780172 244.8 
L 129.780172 238.164055 
L 127.215793 238.164055 
z
" style="fill:#d9534f;"/>
   </g>
   <g id="patch_63">
    <path clip-path="url(#p8fc412e1ff)" d="M 129.780172 244.8 
L 132.344551 244.8 
L 132.344551 236.068494 
L 129.780172 236.068494 
z
" style="fill:#d9534f;"/>
   </g>
   <g id="patch_64">
    <path clip-path="url(#p8fc412e1ff)" d="M 132.344551 244.8 
L 134.90893 244.8 
L 134.90893 222.796604 
L 132.344551 222.796604 
z
" style="fill:#d9534f;"/>
   </g>
   <g id="patch_65">
    <path clip-path="url(#p8fc412e1ff)" d="M 134.90893 244.8 
L 137.473309 244.8 
L 137.473309 223.844385 
L 134.90893 223.844385 
z
" style="fill:#d9534f;"/>
   </g>
   <g id="patch_66">
    <path clip-path="url(#p8fc412e1ff)" d="M 137.473309 244.8 
L 140.037688 244.8 
L 140.037688 225.590686 
L 137.473309 225.590686 
z
" style="fill:#d9534f;"/>
   </g>
   <g id="patch_67">
    <path clip-path="url(#p8fc412e1ff)" d="M 140.037688 244.8 
L 142.602067 244.8 
L 142.602067 223.495125 
L 140.037688 223.495125 
z
" style="fill:#d9534f;"/>
   </g>
   <g id="patch_68">
    <path clip-path="url(#p8fc412e1ff)" d="M 142.602067 244.8 
L 145.166446 244.8 
L 145.166446 198.348387 
L 142.602067 198.348387 
z
" style="fill:#d9534f;"/>
   </g>
   <g id="patch_69">
    <path clip-path="url(#p8fc412e1ff)" d="M 145.166446 244.8 
L 147.730825 244.8 
L 147.730825 199.046908 
L 145.166446 199.046908 
z
" style="fill:#d9534f;"/>
   </g>
   <g id="patch_70">
    <path clip-path="url(#p8fc412e1ff)" d="M 147.730825 244.8 
L 150.295204 244.8 
L 150.295204 185.775018 
L 147.730825 185.775018 
z
" style="fill:#d9534f;"/>
   </g>
   <g id="patch_71">
    <path clip-path="url(#p8fc412e1ff)" d="M 150.295204 244.8 
L 152.859583 244.8 
L 152.859583 143.863789 
L 150.295204 143.863789 
z
" style="fill:#d9534f;"/>
   </g>
   <g id="patch_72">
    <path clip-path="url(#p8fc412e1ff)" d="M 152.859583 244.8 
L 155.423962 244.8 
L 155.423962 174.24943 
L 152.859583 174.24943 
z
" style="fill:#d9534f;"/>
   </g>
   <g id="patch_73">
    <path clip-path="url(#p8fc412e1ff)" d="M 155.423962 244.8 
L 157.988341 244.8 
L 157.988341 150.499733 
L 155.423962 150.499733 
z
" style="fill:#d9534f;"/>
   </g>
   <g id="patch_74">
    <path clip-path="url(#p8fc412e1ff)" d="M 157.988341 244.8 
L 160.55272 244.8 
L 160.55272 101.952559 
L 157.988341 101.952559 
z
" style="fill:#d9534f;"/>
   </g>
   <g id="patch_75">
    <path clip-path="url(#p8fc412e1ff)" d="M 160.55272 244.8 
L 163.117099 244.8 
L 163.117099 97.062915 
L 160.55272 97.062915 
z
" style="fill:#d9534f;"/>
   </g>
   <g id="patch_76">
    <path clip-path="url(#p8fc412e1ff)" d="M 163.117099 244.8 
L 165.681478 244.8 
L 165.681478 101.254038 
L 163.117099 101.254038 
z
" style="fill:#d9534f;"/>
   </g>
   <g id="patch_77">
    <path clip-path="url(#p8fc412e1ff)" d="M 165.681478 244.8 
L 168.245857 244.8 
L 168.245857 71.566917 
L 165.681478 71.566917 
z
" style="fill:#d9534f;"/>
   </g>
   <g id="patch_78">
    <path clip-path="url(#p8fc412e1ff)" d="M 168.245857 244.8 
L 170.810236 244.8 
L 170.810236 138.624885 
L 168.245857 138.624885 
z
" style="fill:#d9534f;"/>
   </g>
   <g id="patch_79">
    <path clip-path="url(#p8fc412e1ff)" d="M 170.810236 244.8 
L 173.374615 244.8 
L 173.374615 65.978753 
L 170.810236 65.978753 
z
" style="fill:#d9534f;"/>
   </g>
   <g id="patch_80">
    <path clip-path="url(#p8fc412e1ff)" d="M 173.374615 244.8 
L 175.938994 244.8 
L 175.938994 47.1187 
L 173.374615 47.1187 
z
" style="fill:#d9534f;"/>
   </g>
   <g id="patch_81">
    <path clip-path="url(#p8fc412e1ff)" d="M 175.938994 244.8 
L 178.503372 244.8 
L 178.503372 39.085714 
L 175.938994 39.085714 
z
" style="fill:#d9534f;"/>
   </g>
   <g id="patch_82">
    <path clip-path="url(#p8fc412e1ff)" d="M 178.503372 244.8 
L 181.067751 244.8 
L 181.067751 39.085714 
L 178.503372 39.085714 
z
" style="fill:#d9534f;"/>
   </g>
   <g id="patch_83">
    <path clip-path="url(#p8fc412e1ff)" d="M 181.067751 244.8 
L 183.63213 244.8 
L 183.63213 79.250643 
L 181.067751 79.250643 
z
" style="fill:#d9534f;"/>
   </g>
   <g id="patch_84">
    <path clip-path="url(#p8fc412e1ff)" d="M 183.63213 244.8 
L 186.196509 244.8 
L 186.196509 133.385981 
L 183.63213 133.385981 
z
" style="fill:#d9534f;"/>
   </g>
   <g id="patch_85">
    <path clip-path="url(#p8fc412e1ff)" d="M 186.196509 244.8 
L 188.760888 244.8 
L 188.760888 71.566917 
L 186.196509 71.566917 
z
" style="fill:#d9534f;"/>
   </g>
   <g id="patch_86">
    <path clip-path="url(#p8fc412e1ff)" d="M 188.760888 244.8 
L 191.325267 244.8 
L 191.325267 108.937764 
L 188.760888 108.937764 
z
" style="fill:#d9534f;"/>
   </g>
   <g id="patch_87">
    <path clip-path="url(#p8fc412e1ff)" d="M 191.325267 244.8 
L 193.889646 244.8 
L 193.889646 93.919573 
L 191.325267 93.919573 
z
" style="fill:#d9534f;"/>
   </g>
   <g id="patch_88">
    <path clip-path="url(#p8fc412e1ff)" d="M 193.889646 244.8 
L 196.454025 244.8 
L 196.454025 99.507737 
L 193.889646 99.507737 
z
" style="fill:#d9534f;"/>
   </g>
   <g id="patch_89">
    <path clip-path="url(#p8fc412e1ff)" d="M 196.454025 244.8 
L 199.018404 244.8 
L 199.018404 156.087897 
L 196.454025 156.087897 
z
" style="fill:#d9534f;"/>
   </g>
   <g id="patch_90">
    <path clip-path="url(#p8fc412e1ff)" d="M 199.018404 244.8 
L 201.582783 244.8 
L 201.582783 165.168664 
L 199.018404 165.168664 
z
" style="fill:#d9534f;"/>
   </g>
   <g id="patch_91">
    <path clip-path="url(#p8fc412e1ff)" d="M 201.582783 244.8 
L 204.147162 244.8 
L 204.147162 137.577104 
L 201.582783 137.577104 
z
" style="fill:#d9534f;"/>
   </g>
   <g id="patch_92">
    <path clip-path="url(#p8fc412e1ff)" d="M 204.147162 244.8 
L 206.711541 244.8 
L 206.711541 166.216444 
L 204.147162 166.216444 
z
" style="fill:#d9534f;"/>
   </g>
   <g id="patch_93">
    <path clip-path="url(#p8fc412e1ff)" d="M 206.711541 244.8 
L 209.27592 244.8 
L 209.27592 187.87058 
L 206.711541 187.87058 
z
" style="fill:#d9534f;"/>
   </g>
   <g id="patch_94">
    <path clip-path="url(#p8fc412e1ff)" d="M 209.27592 244.8 
L 211.840299 244.8 
L 211.840299 186.473539 
L 209.27592 186.473539 
z
" style="fill:#d9534f;"/>
   </g>
   <g id="patch_95">
    <path clip-path="url(#p8fc412e1ff)" d="M 211.840299 244.8 
L 214.404678 244.8 
L 214.404678 222.098084 
L 211.840299 222.098084 
z
" style="fill:#d9534f;"/>
   </g>
   <g id="patch_96">
    <path clip-path="url(#p8fc412e1ff)" d="M 214.404678 244.8 
L 216.969057 244.8 
L 216.969057 218.954742 
L 214.404678 218.954742 
z
" style="fill:#d9534f;"/>
   </g>
   <g id="patch_97">
    <path clip-path="url(#p8fc412e1ff)" d="M 216.969057 244.8 
L 219.533436 244.8 
L 219.533436 222.796604 
L 216.969057 222.796604 
z
" style="fill:#d9534f;"/>
   </g>
   <g id="patch_98">
    <path clip-path="url(#p8fc412e1ff)" d="M 219.533436 244.8 
L 222.097815 244.8 
L 222.097815 227.336988 
L 219.533436 227.336988 
z
" style="fill:#d9534f;"/>
   </g>
   <g id="patch_99">
    <path clip-path="url(#p8fc412e1ff)" d="M 222.097815 244.8 
L 224.662194 244.8 
L 224.662194 233.972932 
L 222.097815 233.972932 
z
" style="fill:#d9534f;"/>
   </g>
   <g id="patch_100">
    <path clip-path="url(#p8fc412e1ff)" d="M 224.662194 244.8 
L 227.226573 244.8 
L 227.226573 240.259617 
L 224.662194 240.259617 
z
" style="fill:#d9534f;"/>
   </g>
   <g id="patch_101">
    <path clip-path="url(#p8fc412e1ff)" d="M 227.226573 244.8 
L 229.790952 244.8 
L 229.790952 240.259617 
L 227.226573 240.259617 
z
" style="fill:#d9534f;"/>
   </g>
   <g id="patch_102">
    <path clip-path="url(#p8fc412e1ff)" d="M 229.790952 244.8 
L 232.355331 244.8 
L 232.355331 243.402959 
L 229.790952 243.402959 
z
" style="fill:#d9534f;"/>
   </g>
   <g id="patch_103">
    <path clip-path="url(#p8fc412e1ff)" d="M 232.355331 244.8 
L 234.91971 244.8 
L 234.91971 243.053699 
L 232.355331 243.053699 
z
" style="fill:#d9534f;"/>
   </g>
   <g id="patch_104">
    <path clip-path="url(#p8fc412e1ff)" d="M 234.91971 244.8 
L 237.484088 244.8 
L 237.484088 242.355178 
L 234.91971 242.355178 
z
" style="fill:#d9534f;"/>
   </g>
   <g id="patch_105">
    <path clip-path="url(#p8fc412e1ff)" d="M 237.484088 244.8 
L 240.048467 244.8 
L 240.048467 244.8 
L 237.484088 244.8 
z
" style="fill:#d9534f;"/>
   </g>
   <g id="patch_106">
    <path clip-path="url(#p8fc412e1ff)" d="M 240.048467 244.8 
L 242.612846 244.8 
L 242.612846 243.402959 
L 240.048467 243.402959 
z
" style="fill:#d9534f;"/>
   </g>
   <g id="matplotlib.axis_1">
    <g id="xtick_1">
     <g id="line2d_1">
      <defs>
       <path d="M 0 0 
L 0 4 
" id="me279ee1b58" style="stroke:#d2d2d2;"/>
      </defs>
      <g>
       <use style="fill:#d2d2d2;stroke:#d2d2d2;" x="8.468503" xlink:href="#me279ee1b58" y="244.8"/>
      </g>
     </g>
     <g id="text_1">
      <!-- −0.20 -->
      <defs>
       <path d="M 10.59375 35.5 
L 73.1875 35.5 
L 73.1875 27.203125 
L 10.59375 27.203125 
z
" id="DejaVuSans-2212"/>
       <path d="M 31.78125 66.40625 
Q 24.171875 66.40625 20.328125 58.90625 
Q 16.5 51.421875 16.5 36.375 
Q 16.5 21.390625 20.328125 13.890625 
Q 24.171875 6.390625 31.78125 6.390625 
Q 39.453125 6.390625 43.28125 13.890625 
Q 47.125 21.390625 47.125 36.375 
Q 47.125 51.421875 43.28125 58.90625 
Q 39.453125 66.40625 31.78125 66.40625 
M 31.78125 74.21875 
Q 44.046875 74.21875 50.515625 64.515625 
Q 56.984375 54.828125 56.984375 36.375 
Q 56.984375 17.96875 50.515625 8.265625 
Q 44.046875 -1.421875 31.78125 -1.421875 
Q 19.53125 -1.421875 13.0625 8.265625 
Q 6.59375 17.96875 6.59375 36.375 
Q 6.59375 54.828125 13.0625 64.515625 
Q 19.53125 74.21875 31.78125 74.21875 
" id="DejaVuSans-30"/>
       <path d="M 10.6875 12.40625 
L 21 12.40625 
L 21 0 
L 10.6875 0 
z
" id="DejaVuSans-2e"/>
       <path d="M 19.1875 8.296875 
L 53.609375 8.296875 
L 53.609375 0 
L 7.328125 0 
L 7.328125 8.296875 
Q 12.9375 14.109375 22.625 23.890625 
Q 32.328125 33.6875 34.8125 36.53125 
Q 39.546875 41.84375 41.421875 45.53125 
Q 43.3125 49.21875 43.3125 52.78125 
Q 43.3125 58.59375 39.234375 62.25 
Q 35.15625 65.921875 28.609375 65.921875 
Q 23.96875 65.921875 18.8125 64.3125 
Q 13.671875 62.703125 7.8125 59.421875 
L 7.8125 69.390625 
Q 13.765625 71.78125 18.9375 73 
Q 24.125 74.21875 28.421875 74.21875 
Q 39.75 74.21875 46.484375 68.546875 
Q 53.21875 62.890625 53.21875 53.421875 
Q 53.21875 48.921875 51.53125 44.890625 
Q 49.859375 40.875 45.40625 35.40625 
Q 44.1875 33.984375 37.640625 27.21875 
Q 31.109375 20.453125 19.1875 8.296875 
" id="DejaVuSans-32"/>
      </defs>
      <g style="fill:#d2d2d2;" transform="translate(-11.45095 262.677969)scale(0.13 -0.13)">
       <use xlink:href="#DejaVuSans-2212"/>
       <use x="83.789062" xlink:href="#DejaVuSans-30"/>
       <use x="147.412109" xlink:href="#DejaVuSans-2e"/>
       <use x="179.199219" xlink:href="#DejaVuSans-32"/>
       <use x="242.822266" xlink:href="#DejaVuSans-30"/>
      </g>
     </g>
    </g>
    <g id="xtick_2">
     <g id="line2d_2">
      <g>
       <use style="fill:#d2d2d2;stroke:#d2d2d2;" x="50.656673" xlink:href="#me279ee1b58" y="244.8"/>
      </g>
     </g>
     <g id="text_2">
      <!-- −0.15 -->
      <defs>
       <path d="M 12.40625 8.296875 
L 28.515625 8.296875 
L 28.515625 63.921875 
L 10.984375 60.40625 
L 10.984375 69.390625 
L 28.421875 72.90625 
L 38.28125 72.90625 
L 38.28125 8.296875 
L 54.390625 8.296875 
L 54.390625 0 
L 12.40625 0 
z
" id="DejaVuSans-31"/>
       <path d="M 10.796875 72.90625 
L 49.515625 72.90625 
L 49.515625 64.59375 
L 19.828125 64.59375 
L 19.828125 46.734375 
Q 21.96875 47.46875 24.109375 47.828125 
Q 26.265625 48.1875 28.421875 48.1875 
Q 40.625 48.1875 47.75 41.5 
Q 54.890625 34.8125 54.890625 23.390625 
Q 54.890625 11.625 47.5625 5.09375 
Q 40.234375 -1.421875 26.90625 -1.421875 
Q 22.3125 -1.421875 17.546875 -0.640625 
Q 12.796875 0.140625 7.71875 1.703125 
L 7.71875 11.625 
Q 12.109375 9.234375 16.796875 8.0625 
Q 21.484375 6.890625 26.703125 6.890625 
Q 35.15625 6.890625 40.078125 11.328125 
Q 45.015625 15.765625 45.015625 23.390625 
Q 45.015625 31 40.078125 35.4375 
Q 35.15625 39.890625 26.703125 39.890625 
Q 22.75 39.890625 18.8125 39.015625 
Q 14.890625 38.140625 10.796875 36.28125 
z
" id="DejaVuSans-35"/>
      </defs>
      <g style="fill:#d2d2d2;" transform="translate(30.73722 262.677969)scale(0.13 -0.13)">
       <use xlink:href="#DejaVuSans-2212"/>
       <use x="83.789062" xlink:href="#DejaVuSans-30"/>
       <use x="147.412109" xlink:href="#DejaVuSans-2e"/>
       <use x="179.199219" xlink:href="#DejaVuSans-31"/>
       <use x="242.822266" xlink:href="#DejaVuSans-35"/>
      </g>
     </g>
    </g>
    <g id="xtick_3">
     <g id="line2d_3">
      <g>
       <use style="fill:#d2d2d2;stroke:#d2d2d2;" x="92.844843" xlink:href="#me279ee1b58" y="244.8"/>
      </g>
     </g>
     <g id="text_3">
      <!-- −0.10 -->
      <g style="fill:#d2d2d2;" transform="translate(72.92539 262.677969)scale(0.13 -0.13)">
       <use xlink:href="#DejaVuSans-2212"/>
       <use x="83.789062" xlink:href="#DejaVuSans-30"/>
       <use x="147.412109" xlink:href="#DejaVuSans-2e"/>
       <use x="179.199219" xlink:href="#DejaVuSans-31"/>
       <use x="242.822266" xlink:href="#DejaVuSans-30"/>
      </g>
     </g>
    </g>
    <g id="xtick_4">
     <g id="line2d_4">
      <g>
       <use style="fill:#d2d2d2;stroke:#d2d2d2;" x="135.033013" xlink:href="#me279ee1b58" y="244.8"/>
      </g>
     </g>
     <g id="text_4">
      <!-- −0.05 -->
      <g style="fill:#d2d2d2;" transform="translate(115.11356 262.677969)scale(0.13 -0.13)">
       <use xlink:href="#DejaVuSans-2212"/>
       <use x="83.789062" xlink:href="#DejaVuSans-30"/>
       <use x="147.412109" xlink:href="#DejaVuSans-2e"/>
       <use x="179.199219" xlink:href="#DejaVuSans-30"/>
       <use x="242.822266" xlink:href="#DejaVuSans-35"/>
      </g>
     </g>
    </g>
    <g id="xtick_5">
     <g id="line2d_5">
      <g>
       <use style="fill:#d2d2d2;stroke:#d2d2d2;" x="177.221183" xlink:href="#me279ee1b58" y="244.8"/>
      </g>
     </g>
     <g id="text_5">
      <!-- 0.00 -->
      <g style="fill:#d2d2d2;" transform="translate(162.748527 262.677969)scale(0.13 -0.13)">
       <use xlink:href="#DejaVuSans-30"/>
       <use x="63.623047" xlink:href="#DejaVuSans-2e"/>
       <use x="95.410156" xlink:href="#DejaVuSans-30"/>
       <use x="159.033203" xlink:href="#DejaVuSans-30"/>
      </g>
     </g>
    </g>
    <g id="xtick_6">
     <g id="line2d_6">
      <g>
       <use style="fill:#d2d2d2;stroke:#d2d2d2;" x="219.409353" xlink:href="#me279ee1b58" y="244.8"/>
      </g>
     </g>
     <g id="text_6">
      <!-- 0.05 -->
      <g style="fill:#d2d2d2;" transform="translate(204.936697 262.677969)scale(0.13 -0.13)">
       <use xlink:href="#DejaVuSans-30"/>
       <use x="63.623047" xlink:href="#DejaVuSans-2e"/>
       <use x="95.410156" xlink:href="#DejaVuSans-30"/>
       <use x="159.033203" xlink:href="#DejaVuSans-35"/>
      </g>
     </g>
    </g>
    <g id="xtick_7">
     <g id="line2d_7">
      <g>
       <use style="fill:#d2d2d2;stroke:#d2d2d2;" x="261.597523" xlink:href="#me279ee1b58" y="244.8"/>
      </g>
     </g>
     <g id="text_7">
      <!-- 0.10 -->
      <g style="fill:#d2d2d2;" transform="translate(247.124867 262.677969)scale(0.13 -0.13)">
       <use xlink:href="#DejaVuSans-30"/>
       <use x="63.623047" xlink:href="#DejaVuSans-2e"/>
       <use x="95.410156" xlink:href="#DejaVuSans-31"/>
       <use x="159.033203" xlink:href="#DejaVuSans-30"/>
      </g>
     </g>
    </g>
    <g id="xtick_8">
     <g id="line2d_8">
      <g>
       <use style="fill:#d2d2d2;stroke:#d2d2d2;" x="303.785693" xlink:href="#me279ee1b58" y="244.8"/>
      </g>
     </g>
     <g id="text_8">
      <!-- 0.15 -->
      <g style="fill:#d2d2d2;" transform="translate(289.313036 262.677969)scale(0.13 -0.13)">
       <use xlink:href="#DejaVuSans-30"/>
       <use x="63.623047" xlink:href="#DejaVuSans-2e"/>
       <use x="95.410156" xlink:href="#DejaVuSans-31"/>
       <use x="159.033203" xlink:href="#DejaVuSans-35"/>
      </g>
     </g>
    </g>
    <g id="xtick_9">
     <g id="line2d_9">
      <g>
       <use style="fill:#d2d2d2;stroke:#d2d2d2;" x="345.973863" xlink:href="#me279ee1b58" y="244.8"/>
      </g>
     </g>
     <g id="text_9">
      <!-- 0.20 -->
      <g style="fill:#d2d2d2;" transform="translate(331.501206 262.677969)scale(0.13 -0.13)">
       <use xlink:href="#DejaVuSans-30"/>
       <use x="63.623047" xlink:href="#DejaVuSans-2e"/>
       <use x="95.410156" xlink:href="#DejaVuSans-32"/>
       <use x="159.033203" xlink:href="#DejaVuSans-30"/>
      </g>
     </g>
    </g>
    <g id="text_10">
     <!-- $\bar{x}_{\mathrm{Wetsuit}}-\bar{x}_{\mathrm{No Wetsuit}}$ (m/s) -->
     <defs>
      <path d="M -39.34375 74.515625 
L -10.15625 74.515625 
L -10.15625 67.28125 
L -39.34375 67.28125 
z
" id="DejaVuSans-304"/>
      <path d="M 60.015625 54.6875 
L 34.90625 27.875 
L 50.296875 0 
L 39.984375 0 
L 28.421875 21.6875 
L 8.296875 0 
L -2.59375 0 
L 24.3125 28.8125 
L 10.015625 54.6875 
L 20.3125 54.6875 
L 30.8125 34.90625 
L 49.125 54.6875 
z
" id="DejaVuSans-Oblique-78"/>
      <path d="M 3.328125 72.90625 
L 13.28125 72.90625 
L 28.609375 11.28125 
L 43.890625 72.90625 
L 54.984375 72.90625 
L 70.3125 11.28125 
L 85.59375 72.90625 
L 95.609375 72.90625 
L 77.296875 0 
L 64.890625 0 
L 49.515625 63.28125 
L 33.984375 0 
L 21.578125 0 
z
" id="DejaVuSans-57"/>
      <path d="M 56.203125 29.59375 
L 56.203125 25.203125 
L 14.890625 25.203125 
Q 15.484375 15.921875 20.484375 11.0625 
Q 25.484375 6.203125 34.421875 6.203125 
Q 39.59375 6.203125 44.453125 7.46875 
Q 49.3125 8.734375 54.109375 11.28125 
L 54.109375 2.78125 
Q 49.265625 0.734375 44.1875 -0.34375 
Q 39.109375 -1.421875 33.890625 -1.421875 
Q 20.796875 -1.421875 13.15625 6.1875 
Q 5.515625 13.8125 5.515625 26.8125 
Q 5.515625 40.234375 12.765625 48.109375 
Q 20.015625 56 32.328125 56 
Q 43.359375 56 49.78125 48.890625 
Q 56.203125 41.796875 56.203125 29.59375 
M 47.21875 32.234375 
Q 47.125 39.59375 43.09375 43.984375 
Q 39.0625 48.390625 32.421875 48.390625 
Q 24.90625 48.390625 20.390625 44.140625 
Q 15.875 39.890625 15.1875 32.171875 
z
" id="DejaVuSans-65"/>
      <path d="M 18.3125 70.21875 
L 18.3125 54.6875 
L 36.8125 54.6875 
L 36.8125 47.703125 
L 18.3125 47.703125 
L 18.3125 18.015625 
Q 18.3125 11.328125 20.140625 9.421875 
Q 21.96875 7.515625 27.59375 7.515625 
L 36.8125 7.515625 
L 36.8125 0 
L 27.59375 0 
Q 17.1875 0 13.234375 3.875 
Q 9.28125 7.765625 9.28125 18.015625 
L 9.28125 47.703125 
L 2.6875 47.703125 
L 2.6875 54.6875 
L 9.28125 54.6875 
L 9.28125 70.21875 
z
" id="DejaVuSans-74"/>
      <path d="M 44.28125 53.078125 
L 44.28125 44.578125 
Q 40.484375 46.53125 36.375 47.5 
Q 32.28125 48.484375 27.875 48.484375 
Q 21.1875 48.484375 17.84375 46.4375 
Q 14.5 44.390625 14.5 40.28125 
Q 14.5 37.15625 16.890625 35.375 
Q 19.28125 33.59375 26.515625 31.984375 
L 29.59375 31.296875 
Q 39.15625 29.25 43.1875 25.515625 
Q 47.21875 21.78125 47.21875 15.09375 
Q 47.21875 7.46875 41.1875 3.015625 
Q 35.15625 -1.421875 24.609375 -1.421875 
Q 20.21875 -1.421875 15.453125 -0.5625 
Q 10.6875 0.296875 5.421875 2 
L 5.421875 11.28125 
Q 10.40625 8.6875 15.234375 7.390625 
Q 20.0625 6.109375 24.8125 6.109375 
Q 31.15625 6.109375 34.5625 8.28125 
Q 37.984375 10.453125 37.984375 14.40625 
Q 37.984375 18.0625 35.515625 20.015625 
Q 33.0625 21.96875 24.703125 23.78125 
L 21.578125 24.515625 
Q 13.234375 26.265625 9.515625 29.90625 
Q 5.8125 33.546875 5.8125 39.890625 
Q 5.8125 47.609375 11.28125 51.796875 
Q 16.75 56 26.8125 56 
Q 31.78125 56 36.171875 55.265625 
Q 40.578125 54.546875 44.28125 53.078125 
" id="DejaVuSans-73"/>
      <path d="M 8.5 21.578125 
L 8.5 54.6875 
L 17.484375 54.6875 
L 17.484375 21.921875 
Q 17.484375 14.15625 20.5 10.265625 
Q 23.53125 6.390625 29.59375 6.390625 
Q 36.859375 6.390625 41.078125 11.03125 
Q 45.3125 15.671875 45.3125 23.6875 
L 45.3125 54.6875 
L 54.296875 54.6875 
L 54.296875 0 
L 45.3125 0 
L 45.3125 8.40625 
Q 42.046875 3.421875 37.71875 1 
Q 33.40625 -1.421875 27.6875 -1.421875 
Q 18.265625 -1.421875 13.375 4.4375 
Q 8.5 10.296875 8.5 21.578125 
M 31.109375 56 
z
" id="DejaVuSans-75"/>
      <path d="M 9.421875 54.6875 
L 18.40625 54.6875 
L 18.40625 0 
L 9.421875 0 
z
M 9.421875 75.984375 
L 18.40625 75.984375 
L 18.40625 64.59375 
L 9.421875 64.59375 
z
" id="DejaVuSans-69"/>
      <path d="M 9.8125 72.90625 
L 23.09375 72.90625 
L 55.421875 11.921875 
L 55.421875 72.90625 
L 64.984375 72.90625 
L 64.984375 0 
L 51.703125 0 
L 19.390625 60.984375 
L 19.390625 0 
L 9.8125 0 
z
" id="DejaVuSans-4e"/>
      <path d="M 30.609375 48.390625 
Q 23.390625 48.390625 19.1875 42.75 
Q 14.984375 37.109375 14.984375 27.296875 
Q 14.984375 17.484375 19.15625 11.84375 
Q 23.34375 6.203125 30.609375 6.203125 
Q 37.796875 6.203125 41.984375 11.859375 
Q 46.1875 17.53125 46.1875 27.296875 
Q 46.1875 37.015625 41.984375 42.703125 
Q 37.796875 48.390625 30.609375 48.390625 
M 30.609375 56 
Q 42.328125 56 49.015625 48.375 
Q 55.71875 40.765625 55.71875 27.296875 
Q 55.71875 13.875 49.015625 6.21875 
Q 42.328125 -1.421875 30.609375 -1.421875 
Q 18.84375 -1.421875 12.171875 6.21875 
Q 5.515625 13.875 5.515625 27.296875 
Q 5.515625 40.765625 12.171875 48.375 
Q 18.84375 56 30.609375 56 
" id="DejaVuSans-6f"/>
      <path id="DejaVuSans-20"/>
      <path d="M 31 75.875 
Q 24.46875 64.65625 21.28125 53.65625 
Q 18.109375 42.671875 18.109375 31.390625 
Q 18.109375 20.125 21.3125 9.0625 
Q 24.515625 -2 31 -13.1875 
L 23.1875 -13.1875 
Q 15.875 -1.703125 12.234375 9.375 
Q 8.59375 20.453125 8.59375 31.390625 
Q 8.59375 42.28125 12.203125 53.3125 
Q 15.828125 64.359375 23.1875 75.875 
z
" id="DejaVuSans-28"/>
      <path d="M 52 44.1875 
Q 55.375 50.25 60.0625 53.125 
Q 64.75 56 71.09375 56 
Q 79.640625 56 84.28125 50.015625 
Q 88.921875 44.046875 88.921875 33.015625 
L 88.921875 0 
L 79.890625 0 
L 79.890625 32.71875 
Q 79.890625 40.578125 77.09375 44.375 
Q 74.3125 48.1875 68.609375 48.1875 
Q 61.625 48.1875 57.5625 43.546875 
Q 53.515625 38.921875 53.515625 30.90625 
L 53.515625 0 
L 44.484375 0 
L 44.484375 32.71875 
Q 44.484375 40.625 41.703125 44.40625 
Q 38.921875 48.1875 33.109375 48.1875 
Q 26.21875 48.1875 22.15625 43.53125 
Q 18.109375 38.875 18.109375 30.90625 
L 18.109375 0 
L 9.078125 0 
L 9.078125 54.6875 
L 18.109375 54.6875 
L 18.109375 46.1875 
Q 21.1875 51.21875 25.484375 53.609375 
Q 29.78125 56 35.6875 56 
Q 41.65625 56 45.828125 52.96875 
Q 50 49.953125 52 44.1875 
" id="DejaVuSans-6d"/>
      <path d="M 25.390625 72.90625 
L 33.6875 72.90625 
L 8.296875 -9.28125 
L 0 -9.28125 
z
" id="DejaVuSans-2f"/>
      <path d="M 8.015625 75.875 
L 15.828125 75.875 
Q 23.140625 64.359375 26.78125 53.3125 
Q 30.421875 42.28125 30.421875 31.390625 
Q 30.421875 20.453125 26.78125 9.375 
Q 23.140625 -1.703125 15.828125 -13.1875 
L 8.015625 -13.1875 
Q 14.5 -2 17.703125 9.0625 
Q 20.90625 20.125 20.90625 31.390625 
Q 20.90625 42.671875 17.703125 53.65625 
Q 14.5 64.65625 8.015625 75.875 
" id="DejaVuSans-29"/>
     </defs>
     <g style="fill:#d2d2d2;" transform="translate(75.96 283.05875)scale(0.18 -0.18)">
      <use transform="translate(62.138672 0.03125)" xlink:href="#DejaVuSans-304"/>
      <use transform="translate(0 0.125)" xlink:href="#DejaVuSans-Oblique-78"/>
      <use transform="translate(60.136719 -16.28125)scale(0.7)" xlink:href="#DejaVuSans-57"/>
      <use transform="translate(129.350586 -16.28125)scale(0.7)" xlink:href="#DejaVuSans-65"/>
      <use transform="translate(172.416992 -16.28125)scale(0.7)" xlink:href="#DejaVuSans-74"/>
      <use transform="translate(199.863281 -16.28125)scale(0.7)" xlink:href="#DejaVuSans-73"/>
      <use transform="translate(236.333008 -16.28125)scale(0.7)" xlink:href="#DejaVuSans-75"/>
      <use transform="translate(280.698242 -16.28125)scale(0.7)" xlink:href="#DejaVuSans-69"/>
      <use transform="translate(300.146484 -16.28125)scale(0.7)" xlink:href="#DejaVuSans-74"/>
      <use transform="translate(349.80957 0.125)" xlink:href="#DejaVuSans-2212"/>
      <use transform="translate(515.219727 0.03125)" xlink:href="#DejaVuSans-304"/>
      <use transform="translate(453.081055 0.125)" xlink:href="#DejaVuSans-Oblique-78"/>
      <use transform="translate(513.217773 -16.28125)scale(0.7)" xlink:href="#DejaVuSans-4e"/>
      <use transform="translate(565.581055 -16.28125)scale(0.7)" xlink:href="#DejaVuSans-6f"/>
      <use transform="translate(608.408203 -16.28125)scale(0.7)" xlink:href="#DejaVuSans-57"/>
      <use transform="translate(677.62207 -16.28125)scale(0.7)" xlink:href="#DejaVuSans-65"/>
      <use transform="translate(720.688477 -16.28125)scale(0.7)" xlink:href="#DejaVuSans-74"/>
      <use transform="translate(748.134766 -16.28125)scale(0.7)" xlink:href="#DejaVuSans-73"/>
      <use transform="translate(784.604492 -16.28125)scale(0.7)" xlink:href="#DejaVuSans-75"/>
      <use transform="translate(828.969727 -16.28125)scale(0.7)" xlink:href="#DejaVuSans-69"/>
      <use transform="translate(848.417969 -16.28125)scale(0.7)" xlink:href="#DejaVuSans-74"/>
      <use transform="translate(878.598633 0.125)" xlink:href="#DejaVuSans-20"/>
      <use transform="translate(910.385742 0.125)" xlink:href="#DejaVuSans-28"/>
      <use transform="translate(949.399414 0.125)" xlink:href="#DejaVuSans-6d"/>
      <use transform="translate(1046.811523 0.125)" xlink:href="#DejaVuSans-2f"/>
      <use transform="translate(1080.50293 0.125)" xlink:href="#DejaVuSans-73"/>
      <use transform="translate(1132.602539 0.125)" xlink:href="#DejaVuSans-29"/>
     </g>
    </g>
   </g>
   <g id="matplotlib.axis_2"/>
   <g id="patch_107">
    <path d="M 4.32 244.8 
L 358.56 244.8 
" style="fill:none;stroke:#d2d2d2;stroke-linecap:square;stroke-linejoin:miter;"/>
   </g>
   <g id="text_11">
    <!-- Null hypothesis sampling -->
    <defs>
     <path d="M 9.421875 75.984375 
L 18.40625 75.984375 
L 18.40625 0 
L 9.421875 0 
z
" id="DejaVuSans-6c"/>
     <path d="M 54.890625 33.015625 
L 54.890625 0 
L 45.90625 0 
L 45.90625 32.71875 
Q 45.90625 40.484375 42.875 44.328125 
Q 39.84375 48.1875 33.796875 48.1875 
Q 26.515625 48.1875 22.3125 43.546875 
Q 18.109375 38.921875 18.109375 30.90625 
L 18.109375 0 
L 9.078125 0 
L 9.078125 75.984375 
L 18.109375 75.984375 
L 18.109375 46.1875 
Q 21.34375 51.125 25.703125 53.5625 
Q 30.078125 56 35.796875 56 
Q 45.21875 56 50.046875 50.171875 
Q 54.890625 44.34375 54.890625 33.015625 
" id="DejaVuSans-68"/>
     <path d="M 32.171875 -5.078125 
Q 28.375 -14.84375 24.75 -17.8125 
Q 21.140625 -20.796875 15.09375 -20.796875 
L 7.90625 -20.796875 
L 7.90625 -13.28125 
L 13.1875 -13.28125 
Q 16.890625 -13.28125 18.9375 -11.515625 
Q 21 -9.765625 23.484375 -3.21875 
L 25.09375 0.875 
L 2.984375 54.6875 
L 12.5 54.6875 
L 29.59375 11.921875 
L 46.6875 54.6875 
L 56.203125 54.6875 
z
" id="DejaVuSans-79"/>
     <path d="M 18.109375 8.203125 
L 18.109375 -20.796875 
L 9.078125 -20.796875 
L 9.078125 54.6875 
L 18.109375 54.6875 
L 18.109375 46.390625 
Q 20.953125 51.265625 25.265625 53.625 
Q 29.59375 56 35.59375 56 
Q 45.5625 56 51.78125 48.09375 
Q 58.015625 40.1875 58.015625 27.296875 
Q 58.015625 14.40625 51.78125 6.484375 
Q 45.5625 -1.421875 35.59375 -1.421875 
Q 29.59375 -1.421875 25.265625 0.953125 
Q 20.953125 3.328125 18.109375 8.203125 
M 48.6875 27.296875 
Q 48.6875 37.203125 44.609375 42.84375 
Q 40.53125 48.484375 33.40625 48.484375 
Q 26.265625 48.484375 22.1875 42.84375 
Q 18.109375 37.203125 18.109375 27.296875 
Q 18.109375 17.390625 22.1875 11.75 
Q 26.265625 6.109375 33.40625 6.109375 
Q 40.53125 6.109375 44.609375 11.75 
Q 48.6875 17.390625 48.6875 27.296875 
" id="DejaVuSans-70"/>
     <path d="M 34.28125 27.484375 
Q 23.390625 27.484375 19.1875 25 
Q 14.984375 22.515625 14.984375 16.5 
Q 14.984375 11.71875 18.140625 8.90625 
Q 21.296875 6.109375 26.703125 6.109375 
Q 34.1875 6.109375 38.703125 11.40625 
Q 43.21875 16.703125 43.21875 25.484375 
L 43.21875 27.484375 
z
M 52.203125 31.203125 
L 52.203125 0 
L 43.21875 0 
L 43.21875 8.296875 
Q 40.140625 3.328125 35.546875 0.953125 
Q 30.953125 -1.421875 24.3125 -1.421875 
Q 15.921875 -1.421875 10.953125 3.296875 
Q 6 8.015625 6 15.921875 
Q 6 25.140625 12.171875 29.828125 
Q 18.359375 34.515625 30.609375 34.515625 
L 43.21875 34.515625 
L 43.21875 35.40625 
Q 43.21875 41.609375 39.140625 45 
Q 35.0625 48.390625 27.6875 48.390625 
Q 23 48.390625 18.546875 47.265625 
Q 14.109375 46.140625 10.015625 43.890625 
L 10.015625 52.203125 
Q 14.9375 54.109375 19.578125 55.046875 
Q 24.21875 56 28.609375 56 
Q 40.484375 56 46.34375 49.84375 
Q 52.203125 43.703125 52.203125 31.203125 
" id="DejaVuSans-61"/>
     <path d="M 54.890625 33.015625 
L 54.890625 0 
L 45.90625 0 
L 45.90625 32.71875 
Q 45.90625 40.484375 42.875 44.328125 
Q 39.84375 48.1875 33.796875 48.1875 
Q 26.515625 48.1875 22.3125 43.546875 
Q 18.109375 38.921875 18.109375 30.90625 
L 18.109375 0 
L 9.078125 0 
L 9.078125 54.6875 
L 18.109375 54.6875 
L 18.109375 46.1875 
Q 21.34375 51.125 25.703125 53.5625 
Q 30.078125 56 35.796875 56 
Q 45.21875 56 50.046875 50.171875 
Q 54.890625 44.34375 54.890625 33.015625 
" id="DejaVuSans-6e"/>
     <path d="M 45.40625 27.984375 
Q 45.40625 37.75 41.375 43.109375 
Q 37.359375 48.484375 30.078125 48.484375 
Q 22.859375 48.484375 18.828125 43.109375 
Q 14.796875 37.75 14.796875 27.984375 
Q 14.796875 18.265625 18.828125 12.890625 
Q 22.859375 7.515625 30.078125 7.515625 
Q 37.359375 7.515625 41.375 12.890625 
Q 45.40625 18.265625 45.40625 27.984375 
M 54.390625 6.78125 
Q 54.390625 -7.171875 48.1875 -13.984375 
Q 42 -20.796875 29.203125 -20.796875 
Q 24.46875 -20.796875 20.265625 -20.09375 
Q 16.0625 -19.390625 12.109375 -17.921875 
L 12.109375 -9.1875 
Q 16.0625 -11.328125 19.921875 -12.34375 
Q 23.78125 -13.375 27.78125 -13.375 
Q 36.625 -13.375 41.015625 -8.765625 
Q 45.40625 -4.15625 45.40625 5.171875 
L 45.40625 9.625 
Q 42.625 4.78125 38.28125 2.390625 
Q 33.9375 0 27.875 0 
Q 17.828125 0 11.671875 7.65625 
Q 5.515625 15.328125 5.515625 27.984375 
Q 5.515625 40.671875 11.671875 48.328125 
Q 17.828125 56 27.875 56 
Q 33.9375 56 38.28125 53.609375 
Q 42.625 51.21875 45.40625 46.390625 
L 45.40625 54.6875 
L 54.390625 54.6875 
z
" id="DejaVuSans-67"/>
    </defs>
    <g style="fill:#d2d2d2;" transform="translate(4.32 12.757969)scale(0.13 -0.13)">
     <use xlink:href="#DejaVuSans-4e"/>
     <use x="74.804688" xlink:href="#DejaVuSans-75"/>
     <use x="138.183594" xlink:href="#DejaVuSans-6c"/>
     <use x="165.966797" xlink:href="#DejaVuSans-6c"/>
     <use x="193.75" xlink:href="#DejaVuSans-20"/>
     <use x="225.537109" xlink:href="#DejaVuSans-68"/>
     <use x="288.916016" xlink:href="#DejaVuSans-79"/>
     <use x="348.095703" xlink:href="#DejaVuSans-70"/>
     <use x="411.572266" xlink:href="#DejaVuSans-6f"/>
     <use x="472.753906" xlink:href="#DejaVuSans-74"/>
     <use x="511.962891" xlink:href="#DejaVuSans-68"/>
     <use x="575.341797" xlink:href="#DejaVuSans-65"/>
     <use x="636.865234" xlink:href="#DejaVuSans-73"/>
     <use x="688.964844" xlink:href="#DejaVuSans-69"/>
     <use x="716.748047" xlink:href="#DejaVuSans-73"/>
     <use x="768.847656" xlink:href="#DejaVuSans-20"/>
     <use x="800.634766" xlink:href="#DejaVuSans-73"/>
     <use x="852.734375" xlink:href="#DejaVuSans-61"/>
     <use x="914.013672" xlink:href="#DejaVuSans-6d"/>
     <use x="1011.425781" xlink:href="#DejaVuSans-70"/>
     <use x="1074.902344" xlink:href="#DejaVuSans-6c"/>
     <use x="1102.685547" xlink:href="#DejaVuSans-69"/>
     <use x="1130.46875" xlink:href="#DejaVuSans-6e"/>
     <use x="1193.847656" xlink:href="#DejaVuSans-67"/>
    </g>
    <!-- distribution when data -->
    <defs>
     <path d="M 45.40625 46.390625 
L 45.40625 75.984375 
L 54.390625 75.984375 
L 54.390625 0 
L 45.40625 0 
L 45.40625 8.203125 
Q 42.578125 3.328125 38.25 0.953125 
Q 33.9375 -1.421875 27.875 -1.421875 
Q 17.96875 -1.421875 11.734375 6.484375 
Q 5.515625 14.40625 5.515625 27.296875 
Q 5.515625 40.1875 11.734375 48.09375 
Q 17.96875 56 27.875 56 
Q 33.9375 56 38.25 53.625 
Q 42.578125 51.265625 45.40625 46.390625 
M 14.796875 27.296875 
Q 14.796875 17.390625 18.875 11.75 
Q 22.953125 6.109375 30.078125 6.109375 
Q 37.203125 6.109375 41.296875 11.75 
Q 45.40625 17.390625 45.40625 27.296875 
Q 45.40625 37.203125 41.296875 42.84375 
Q 37.203125 48.484375 30.078125 48.484375 
Q 22.953125 48.484375 18.875 42.84375 
Q 14.796875 37.203125 14.796875 27.296875 
" id="DejaVuSans-64"/>
     <path d="M 41.109375 46.296875 
Q 39.59375 47.171875 37.8125 47.578125 
Q 36.03125 48 33.890625 48 
Q 26.265625 48 22.1875 43.046875 
Q 18.109375 38.09375 18.109375 28.8125 
L 18.109375 0 
L 9.078125 0 
L 9.078125 54.6875 
L 18.109375 54.6875 
L 18.109375 46.1875 
Q 20.953125 51.171875 25.484375 53.578125 
Q 30.03125 56 36.53125 56 
Q 37.453125 56 38.578125 55.875 
Q 39.703125 55.765625 41.0625 55.515625 
z
" id="DejaVuSans-72"/>
     <path d="M 48.6875 27.296875 
Q 48.6875 37.203125 44.609375 42.84375 
Q 40.53125 48.484375 33.40625 48.484375 
Q 26.265625 48.484375 22.1875 42.84375 
Q 18.109375 37.203125 18.109375 27.296875 
Q 18.109375 17.390625 22.1875 11.75 
Q 26.265625 6.109375 33.40625 6.109375 
Q 40.53125 6.109375 44.609375 11.75 
Q 48.6875 17.390625 48.6875 27.296875 
M 18.109375 46.390625 
Q 20.953125 51.265625 25.265625 53.625 
Q 29.59375 56 35.59375 56 
Q 45.5625 56 51.78125 48.09375 
Q 58.015625 40.1875 58.015625 27.296875 
Q 58.015625 14.40625 51.78125 6.484375 
Q 45.5625 -1.421875 35.59375 -1.421875 
Q 29.59375 -1.421875 25.265625 0.953125 
Q 20.953125 3.328125 18.109375 8.203125 
L 18.109375 0 
L 9.078125 0 
L 9.078125 75.984375 
L 18.109375 75.984375 
z
" id="DejaVuSans-62"/>
     <path d="M 4.203125 54.6875 
L 13.1875 54.6875 
L 24.421875 12.015625 
L 35.59375 54.6875 
L 46.1875 54.6875 
L 57.421875 12.015625 
L 68.609375 54.6875 
L 77.59375 54.6875 
L 63.28125 0 
L 52.6875 0 
L 40.921875 44.828125 
L 29.109375 0 
L 18.5 0 
z
" id="DejaVuSans-77"/>
    </defs>
    <g style="fill:#d2d2d2;" transform="translate(4.32 27.315125)scale(0.13 -0.13)">
     <use xlink:href="#DejaVuSans-64"/>
     <use x="63.476562" xlink:href="#DejaVuSans-69"/>
     <use x="91.259766" xlink:href="#DejaVuSans-73"/>
     <use x="143.359375" xlink:href="#DejaVuSans-74"/>
     <use x="182.568359" xlink:href="#DejaVuSans-72"/>
     <use x="223.681641" xlink:href="#DejaVuSans-69"/>
     <use x="251.464844" xlink:href="#DejaVuSans-62"/>
     <use x="314.941406" xlink:href="#DejaVuSans-75"/>
     <use x="378.320312" xlink:href="#DejaVuSans-74"/>
     <use x="417.529297" xlink:href="#DejaVuSans-69"/>
     <use x="445.3125" xlink:href="#DejaVuSans-6f"/>
     <use x="506.494141" xlink:href="#DejaVuSans-6e"/>
     <use x="569.873047" xlink:href="#DejaVuSans-20"/>
     <use x="601.660156" xlink:href="#DejaVuSans-77"/>
     <use x="683.447266" xlink:href="#DejaVuSans-68"/>
     <use x="746.826172" xlink:href="#DejaVuSans-65"/>
     <use x="808.349609" xlink:href="#DejaVuSans-6e"/>
     <use x="871.728516" xlink:href="#DejaVuSans-20"/>
     <use x="903.515625" xlink:href="#DejaVuSans-64"/>
     <use x="966.992188" xlink:href="#DejaVuSans-61"/>
     <use x="1028.271484" xlink:href="#DejaVuSans-74"/>
     <use x="1067.480469" xlink:href="#DejaVuSans-61"/>
    </g>
    <!-- are considered: -->
    <defs>
     <path d="M 48.78125 52.59375 
L 48.78125 44.1875 
Q 44.96875 46.296875 41.140625 47.34375 
Q 37.3125 48.390625 33.40625 48.390625 
Q 24.65625 48.390625 19.8125 42.84375 
Q 14.984375 37.3125 14.984375 27.296875 
Q 14.984375 17.28125 19.8125 11.734375 
Q 24.65625 6.203125 33.40625 6.203125 
Q 37.3125 6.203125 41.140625 7.25 
Q 44.96875 8.296875 48.78125 10.40625 
L 48.78125 2.09375 
Q 45.015625 0.34375 40.984375 -0.53125 
Q 36.96875 -1.421875 32.421875 -1.421875 
Q 20.0625 -1.421875 12.78125 6.34375 
Q 5.515625 14.109375 5.515625 27.296875 
Q 5.515625 40.671875 12.859375 48.328125 
Q 20.21875 56 33.015625 56 
Q 37.15625 56 41.109375 55.140625 
Q 45.0625 54.296875 48.78125 52.59375 
" id="DejaVuSans-63"/>
     <path d="M 11.71875 12.40625 
L 22.015625 12.40625 
L 22.015625 0 
L 11.71875 0 
z
M 11.71875 51.703125 
L 22.015625 51.703125 
L 22.015625 39.3125 
L 11.71875 39.3125 
z
" id="DejaVuSans-3a"/>
    </defs>
    <g style="fill:#d2d2d2;" transform="translate(4.32 41.872281)scale(0.13 -0.13)">
     <use xlink:href="#DejaVuSans-61"/>
     <use x="61.279297" xlink:href="#DejaVuSans-72"/>
     <use x="102.361328" xlink:href="#DejaVuSans-65"/>
     <use x="163.884766" xlink:href="#DejaVuSans-20"/>
     <use x="195.671875" xlink:href="#DejaVuSans-63"/>
     <use x="250.652344" xlink:href="#DejaVuSans-6f"/>
     <use x="311.833984" xlink:href="#DejaVuSans-6e"/>
     <use x="375.212891" xlink:href="#DejaVuSans-73"/>
     <use x="427.3125" xlink:href="#DejaVuSans-69"/>
     <use x="455.095703" xlink:href="#DejaVuSans-64"/>
     <use x="518.572266" xlink:href="#DejaVuSans-65"/>
     <use x="580.095703" xlink:href="#DejaVuSans-72"/>
     <use x="621.177734" xlink:href="#DejaVuSans-65"/>
     <use x="682.701172" xlink:href="#DejaVuSans-64"/>
     <use x="746.177734" xlink:href="#DejaVuSans-3a"/>
    </g>
   </g>
   <g id="text_12">
    <!-- - Independant -->
    <defs>
     <path d="M 4.890625 31.390625 
L 31.203125 31.390625 
L 31.203125 23.390625 
L 4.890625 23.390625 
z
" id="DejaVuSans-2d"/>
     <path d="M 9.8125 72.90625 
L 19.671875 72.90625 
L 19.671875 0 
L 9.8125 0 
z
" id="DejaVuSans-49"/>
    </defs>
    <g style="fill:#5bc0de;" transform="translate(4.32 61.2)scale(0.15 -0.15)">
     <use xlink:href="#DejaVuSans-2d"/>
     <use x="36.083984" xlink:href="#DejaVuSans-20"/>
     <use x="67.871094" xlink:href="#DejaVuSans-49"/>
     <use x="97.363281" xlink:href="#DejaVuSans-6e"/>
     <use x="160.742188" xlink:href="#DejaVuSans-64"/>
     <use x="224.21875" xlink:href="#DejaVuSans-65"/>
     <use x="285.742188" xlink:href="#DejaVuSans-70"/>
     <use x="349.21875" xlink:href="#DejaVuSans-65"/>
     <use x="410.742188" xlink:href="#DejaVuSans-6e"/>
     <use x="474.121094" xlink:href="#DejaVuSans-64"/>
     <use x="537.597656" xlink:href="#DejaVuSans-61"/>
     <use x="598.876953" xlink:href="#DejaVuSans-6e"/>
     <use x="662.255859" xlink:href="#DejaVuSans-74"/>
    </g>
   </g>
   <g id="text_13">
    <!-- - Paired -->
    <defs>
     <path d="M 19.671875 64.796875 
L 19.671875 37.40625 
L 32.078125 37.40625 
Q 38.96875 37.40625 42.71875 40.96875 
Q 46.484375 44.53125 46.484375 51.125 
Q 46.484375 57.671875 42.71875 61.234375 
Q 38.96875 64.796875 32.078125 64.796875 
z
M 9.8125 72.90625 
L 32.078125 72.90625 
Q 44.34375 72.90625 50.609375 67.359375 
Q 56.890625 61.8125 56.890625 51.125 
Q 56.890625 40.328125 50.609375 34.8125 
Q 44.34375 29.296875 32.078125 29.296875 
L 19.671875 29.296875 
L 19.671875 0 
L 9.8125 0 
z
" id="DejaVuSans-50"/>
    </defs>
    <g style="fill:#d9534f;" transform="translate(4.32 82.8)scale(0.15 -0.15)">
     <use xlink:href="#DejaVuSans-2d"/>
     <use x="36.083984" xlink:href="#DejaVuSans-20"/>
     <use x="67.871094" xlink:href="#DejaVuSans-50"/>
     <use x="128.111328" xlink:href="#DejaVuSans-61"/>
     <use x="189.390625" xlink:href="#DejaVuSans-69"/>
     <use x="217.173828" xlink:href="#DejaVuSans-72"/>
     <use x="258.255859" xlink:href="#DejaVuSans-65"/>
     <use x="319.779297" xlink:href="#DejaVuSans-64"/>
    </g>
   </g>
  </g>
  <g id="axes_2">
   <g id="line2d_10">
    <path clip-path="url(#p8fc412e1ff)" d="M 242.612846 244.8 
L 242.612846 28.8 
" style="fill:none;stroke:#f0ad4e;stroke-dasharray:5.6,2.4;stroke-dashoffset:0;stroke-width:1.5;"/>
   </g>
   <g id="text_14">
    <!-- Initial observation -->
    <defs>
     <path d="M 2.984375 54.6875 
L 12.5 54.6875 
L 29.59375 8.796875 
L 46.6875 54.6875 
L 56.203125 54.6875 
L 35.6875 0 
L 23.484375 0 
z
" id="DejaVuSans-76"/>
    </defs>
    <g style="fill:#f0ad4e;" transform="translate(184.11894 12.082844)scale(0.13 -0.13)">
     <use xlink:href="#DejaVuSans-49"/>
     <use x="29.492188" xlink:href="#DejaVuSans-6e"/>
     <use x="92.871094" xlink:href="#DejaVuSans-69"/>
     <use x="120.654297" xlink:href="#DejaVuSans-74"/>
     <use x="159.863281" xlink:href="#DejaVuSans-69"/>
     <use x="187.646484" xlink:href="#DejaVuSans-61"/>
     <use x="248.925781" xlink:href="#DejaVuSans-6c"/>
     <use x="276.708984" xlink:href="#DejaVuSans-20"/>
     <use x="308.496094" xlink:href="#DejaVuSans-6f"/>
     <use x="369.677734" xlink:href="#DejaVuSans-62"/>
     <use x="433.154297" xlink:href="#DejaVuSans-73"/>
     <use x="485.253906" xlink:href="#DejaVuSans-65"/>
     <use x="546.777344" xlink:href="#DejaVuSans-72"/>
     <use x="587.890625" xlink:href="#DejaVuSans-76"/>
     <use x="647.070312" xlink:href="#DejaVuSans-61"/>
     <use x="708.349609" xlink:href="#DejaVuSans-74"/>
     <use x="747.558594" xlink:href="#DejaVuSans-69"/>
     <use x="775.341797" xlink:href="#DejaVuSans-6f"/>
     <use x="836.523438" xlink:href="#DejaVuSans-6e"/>
    </g>
    <!-- 0.078 -->
    <defs>
     <path d="M 8.203125 72.90625 
L 55.078125 72.90625 
L 55.078125 68.703125 
L 28.609375 0 
L 18.3125 0 
L 43.21875 64.59375 
L 8.203125 64.59375 
z
" id="DejaVuSans-37"/>
     <path d="M 31.78125 34.625 
Q 24.75 34.625 20.71875 30.859375 
Q 16.703125 27.09375 16.703125 20.515625 
Q 16.703125 13.921875 20.71875 10.15625 
Q 24.75 6.390625 31.78125 6.390625 
Q 38.8125 6.390625 42.859375 10.171875 
Q 46.921875 13.96875 46.921875 20.515625 
Q 46.921875 27.09375 42.890625 30.859375 
Q 38.875 34.625 31.78125 34.625 
M 21.921875 38.8125 
Q 15.578125 40.375 12.03125 44.71875 
Q 8.5 49.078125 8.5 55.328125 
Q 8.5 64.0625 14.71875 69.140625 
Q 20.953125 74.21875 31.78125 74.21875 
Q 42.671875 74.21875 48.875 69.140625 
Q 55.078125 64.0625 55.078125 55.328125 
Q 55.078125 49.078125 51.53125 44.71875 
Q 48 40.375 41.703125 38.8125 
Q 48.828125 37.15625 52.796875 32.3125 
Q 56.78125 27.484375 56.78125 20.515625 
Q 56.78125 9.90625 50.3125 4.234375 
Q 43.84375 -1.421875 31.78125 -1.421875 
Q 19.734375 -1.421875 13.25 4.234375 
Q 6.78125 9.90625 6.78125 20.515625 
Q 6.78125 27.484375 10.78125 32.3125 
Q 14.796875 37.15625 21.921875 38.8125 
M 18.3125 54.390625 
Q 18.3125 48.734375 21.84375 45.5625 
Q 25.390625 42.390625 31.78125 42.390625 
Q 38.140625 42.390625 41.71875 45.5625 
Q 45.3125 48.734375 45.3125 54.390625 
Q 45.3125 60.0625 41.71875 63.234375 
Q 38.140625 66.40625 31.78125 66.40625 
Q 25.390625 66.40625 21.84375 63.234375 
Q 18.3125 60.0625 18.3125 54.390625 
" id="DejaVuSans-38"/>
    </defs>
    <g style="fill:#f0ad4e;" transform="translate(224.004565 26.64)scale(0.13 -0.13)">
     <use xlink:href="#DejaVuSans-30"/>
     <use x="63.623047" xlink:href="#DejaVuSans-2e"/>
     <use x="95.410156" xlink:href="#DejaVuSans-30"/>
     <use x="159.033203" xlink:href="#DejaVuSans-37"/>
     <use x="222.65625" xlink:href="#DejaVuSans-38"/>
    </g>
   </g>
  </g>
  <g id="axes_3">
   <g id="text_15">
    <!-- 0 simulations with -->
    <g style="fill:#d2d2d2;" transform="translate(251.05048 79.042844)scale(0.13 -0.13)">
     <use xlink:href="#DejaVuSans-30"/>
     <use x="63.623047" xlink:href="#DejaVuSans-20"/>
     <use x="95.410156" xlink:href="#DejaVuSans-73"/>
     <use x="147.509766" xlink:href="#DejaVuSans-69"/>
     <use x="175.292969" xlink:href="#DejaVuSans-6d"/>
     <use x="272.705078" xlink:href="#DejaVuSans-75"/>
     <use x="336.083984" xlink:href="#DejaVuSans-6c"/>
     <use x="363.867188" xlink:href="#DejaVuSans-61"/>
     <use x="425.146484" xlink:href="#DejaVuSans-74"/>
     <use x="464.355469" xlink:href="#DejaVuSans-69"/>
     <use x="492.138672" xlink:href="#DejaVuSans-6f"/>
     <use x="553.320312" xlink:href="#DejaVuSans-6e"/>
     <use x="616.699219" xlink:href="#DejaVuSans-73"/>
     <use x="668.798828" xlink:href="#DejaVuSans-20"/>
     <use x="700.585938" xlink:href="#DejaVuSans-77"/>
     <use x="782.373047" xlink:href="#DejaVuSans-69"/>
     <use x="810.15625" xlink:href="#DejaVuSans-74"/>
     <use x="849.365234" xlink:href="#DejaVuSans-68"/>
    </g>
    <!-- $\bar{x}_{\mathrm{Wetsuit}}-\bar{x}_{\mathrm{No Wetsuit}}\geq$0.078 -->
    <defs>
     <path d="M 10.59375 49.609375 
L 10.59375 58.203125 
L 73.1875 40.28125 
L 73.1875 31.984375 
L 10.59375 14.015625 
L 10.59375 22.703125 
L 57.515625 36.078125 
z
M 73.1875 8.296875 
L 73.1875 0 
L 10.59375 0 
L 10.59375 8.296875 
z
" id="DejaVuSans-2265"/>
    </defs>
    <g style="fill:#d2d2d2;" transform="translate(251.05048 93.6)scale(0.13 -0.13)">
     <use transform="translate(62.138672 0.484375)" xlink:href="#DejaVuSans-304"/>
     <use transform="translate(0 0.578125)" xlink:href="#DejaVuSans-Oblique-78"/>
     <use transform="translate(60.136719 -15.828125)scale(0.7)" xlink:href="#DejaVuSans-57"/>
     <use transform="translate(129.350586 -15.828125)scale(0.7)" xlink:href="#DejaVuSans-65"/>
     <use transform="translate(172.416992 -15.828125)scale(0.7)" xlink:href="#DejaVuSans-74"/>
     <use transform="translate(199.863281 -15.828125)scale(0.7)" xlink:href="#DejaVuSans-73"/>
     <use transform="translate(236.333008 -15.828125)scale(0.7)" xlink:href="#DejaVuSans-75"/>
     <use transform="translate(280.698242 -15.828125)scale(0.7)" xlink:href="#DejaVuSans-69"/>
     <use transform="translate(300.146484 -15.828125)scale(0.7)" xlink:href="#DejaVuSans-74"/>
     <use transform="translate(349.80957 0.578125)" xlink:href="#DejaVuSans-2212"/>
     <use transform="translate(515.219727 0.484375)" xlink:href="#DejaVuSans-304"/>
     <use transform="translate(453.081055 0.578125)" xlink:href="#DejaVuSans-Oblique-78"/>
     <use transform="translate(513.217773 -15.828125)scale(0.7)" xlink:href="#DejaVuSans-4e"/>
     <use transform="translate(565.581055 -15.828125)scale(0.7)" xlink:href="#DejaVuSans-6f"/>
     <use transform="translate(608.408203 -15.828125)scale(0.7)" xlink:href="#DejaVuSans-57"/>
     <use transform="translate(677.62207 -15.828125)scale(0.7)" xlink:href="#DejaVuSans-65"/>
     <use transform="translate(720.688477 -15.828125)scale(0.7)" xlink:href="#DejaVuSans-74"/>
     <use transform="translate(748.134766 -15.828125)scale(0.7)" xlink:href="#DejaVuSans-73"/>
     <use transform="translate(784.604492 -15.828125)scale(0.7)" xlink:href="#DejaVuSans-75"/>
     <use transform="translate(828.969727 -15.828125)scale(0.7)" xlink:href="#DejaVuSans-69"/>
     <use transform="translate(848.417969 -15.828125)scale(0.7)" xlink:href="#DejaVuSans-74"/>
     <use transform="translate(898.081055 0.578125)" xlink:href="#DejaVuSans-2265"/>
     <use transform="translate(1001.352539 0.578125)" xlink:href="#DejaVuSans-30"/>
     <use transform="translate(1064.975586 0.578125)" xlink:href="#DejaVuSans-2e"/>
     <use transform="translate(1096.762695 0.578125)" xlink:href="#DejaVuSans-30"/>
     <use transform="translate(1160.385742 0.578125)" xlink:href="#DejaVuSans-37"/>
     <use transform="translate(1224.008789 0.578125)" xlink:href="#DejaVuSans-38"/>
    </g>
   </g>
   <g id="text_16">
    <!-- 1-tail p-value -->
    <g style="fill:#d2d2d2;" transform="translate(251.05048 122.242844)scale(0.13 -0.13)">
     <use xlink:href="#DejaVuSans-31"/>
     <use x="63.623047" xlink:href="#DejaVuSans-2d"/>
     <use x="99.707031" xlink:href="#DejaVuSans-74"/>
     <use x="138.916016" xlink:href="#DejaVuSans-61"/>
     <use x="200.195312" xlink:href="#DejaVuSans-69"/>
     <use x="227.978516" xlink:href="#DejaVuSans-6c"/>
     <use x="255.761719" xlink:href="#DejaVuSans-20"/>
     <use x="287.548828" xlink:href="#DejaVuSans-70"/>
     <use x="351.025391" xlink:href="#DejaVuSans-2d"/>
     <use x="387.078125" xlink:href="#DejaVuSans-76"/>
     <use x="446.257812" xlink:href="#DejaVuSans-61"/>
     <use x="507.537109" xlink:href="#DejaVuSans-6c"/>
     <use x="535.320312" xlink:href="#DejaVuSans-75"/>
     <use x="598.699219" xlink:href="#DejaVuSans-65"/>
    </g>
    <!-- p&lt;0.0001 -->
    <defs>
     <path d="M 73.1875 49.21875 
L 22.796875 31.296875 
L 73.1875 13.484375 
L 73.1875 4.59375 
L 10.59375 27.296875 
L 10.59375 35.40625 
L 73.1875 58.109375 
z
" id="DejaVuSans-3c"/>
    </defs>
    <g style="fill:#d2d2d2;" transform="translate(251.05048 136.8)scale(0.13 -0.13)">
     <use xlink:href="#DejaVuSans-70"/>
     <use x="63.476562" xlink:href="#DejaVuSans-3c"/>
     <use x="147.265625" xlink:href="#DejaVuSans-30"/>
     <use x="210.888672" xlink:href="#DejaVuSans-2e"/>
     <use x="242.675781" xlink:href="#DejaVuSans-30"/>
     <use x="306.298828" xlink:href="#DejaVuSans-30"/>
     <use x="369.921875" xlink:href="#DejaVuSans-30"/>
     <use x="433.544922" xlink:href="#DejaVuSans-31"/>
    </g>
   </g>
  </g>
 </g>
 <defs>
  <clipPath id="p8fc412e1ff">
   <rect height="216" width="354.24" x="4.32" y="28.8"/>
  </clipPath>
 </defs>
</svg>
