<?xml version="1.0" encoding="utf-8" standalone="no"?>
<!DOCTYPE svg PUBLIC "-//W3C//DTD SVG 1.1//EN"
  "http://www.w3.org/Graphics/SVG/1.1/DTD/svg11.dtd">
<!-- Created with matplotlib (http://matplotlib.org/) -->
<svg height="288pt" version="1.1" viewBox="0 0 432 288" width="432pt" xmlns="http://www.w3.org/2000/svg" xmlns:xlink="http://www.w3.org/1999/xlink">
 <defs>
  <style type="text/css">
*{stroke-linecap:butt;stroke-linejoin:round;}
  </style>
 </defs>
 <g id="figure_1">
  <g id="patch_1">
   <path d="M 0 288 
L 432 288 
L 432 0 
L 0 0 
z
" style="fill:none;"/>
  </g>
  <g id="axes_1">
   <g id="patch_2">
    <path d="M 4.32 244.8 
L 358.56 244.8 
L 358.56 28.8 
L 4.32 28.8 
z
" style="fill:none;"/>
   </g>
   <g id="patch_3">
    <path clip-path="url(#p97e1aeeabb)" d="M 20.421818 244.8 
L 26.862545 244.8 
L 26.862545 243.412383 
L 20.421818 243.412383 
z
" style="fill:#5bc0de;opacity:0.8;"/>
   </g>
   <g id="patch_4">
    <path clip-path="url(#p97e1aeeabb)" d="M 26.862545 244.8 
L 33.303273 244.8 
L 33.303273 242.371669 
L 26.862545 242.371669 
z
" style="fill:#5bc0de;opacity:0.8;"/>
   </g>
   <g id="patch_5">
    <path clip-path="url(#p97e1aeeabb)" d="M 33.303273 244.8 
L 39.744 244.8 
L 39.744 243.412383 
L 33.303273 243.412383 
z
" style="fill:#5bc0de;opacity:0.8;"/>
   </g>
   <g id="patch_6">
    <path clip-path="url(#p97e1aeeabb)" d="M 39.744 244.8 
L 46.184727 244.8 
L 46.184727 240.637148 
L 39.744 240.637148 
z
" style="fill:#5bc0de;opacity:0.8;"/>
   </g>
   <g id="patch_7">
    <path clip-path="url(#p97e1aeeabb)" d="M 46.184727 244.8 
L 52.625455 244.8 
L 52.625455 237.168104 
L 46.184727 237.168104 
z
" style="fill:#5bc0de;opacity:0.8;"/>
   </g>
   <g id="patch_8">
    <path clip-path="url(#p97e1aeeabb)" d="M 52.625455 244.8 
L 59.066182 244.8 
L 59.066182 237.515008 
L 52.625455 237.515008 
z
" style="fill:#5bc0de;opacity:0.8;"/>
   </g>
   <g id="patch_9">
    <path clip-path="url(#p97e1aeeabb)" d="M 59.066182 244.8 
L 65.506909 244.8 
L 65.506909 230.923826 
L 59.066182 230.923826 
z
" style="fill:#5bc0de;opacity:0.8;"/>
   </g>
   <g id="patch_10">
    <path clip-path="url(#p97e1aeeabb)" d="M 65.506909 244.8 
L 71.947636 244.8 
L 71.947636 221.904312 
L 65.506909 221.904312 
z
" style="fill:#5bc0de;opacity:0.8;"/>
   </g>
   <g id="patch_11">
    <path clip-path="url(#p97e1aeeabb)" d="M 71.947636 244.8 
L 78.388364 244.8 
L 78.388364 219.822886 
L 71.947636 219.822886 
z
" style="fill:#5bc0de;opacity:0.8;"/>
   </g>
   <g id="patch_12">
    <path clip-path="url(#p97e1aeeabb)" d="M 78.388364 244.8 
L 84.829091 244.8 
L 84.829091 209.068851 
L 78.388364 209.068851 
z
" style="fill:#5bc0de;opacity:0.8;"/>
   </g>
   <g id="patch_13">
    <path clip-path="url(#p97e1aeeabb)" d="M 84.829091 244.8 
L 91.269818 244.8 
L 91.269818 205.599807 
L 84.829091 205.599807 
z
" style="fill:#5bc0de;opacity:0.8;"/>
   </g>
   <g id="patch_14">
    <path clip-path="url(#p97e1aeeabb)" d="M 91.269818 244.8 
L 97.710545 244.8 
L 97.710545 177.847458 
L 91.269818 177.847458 
z
" style="fill:#5bc0de;opacity:0.8;"/>
   </g>
   <g id="patch_15">
    <path clip-path="url(#p97e1aeeabb)" d="M 97.710545 244.8 
L 104.151273 244.8 
L 104.151273 183.397928 
L 97.710545 183.397928 
z
" style="fill:#5bc0de;opacity:0.8;"/>
   </g>
   <g id="patch_16">
    <path clip-path="url(#p97e1aeeabb)" d="M 104.151273 244.8 
L 110.592 244.8 
L 110.592 162.583667 
L 104.151273 162.583667 
z
" style="fill:#5bc0de;opacity:0.8;"/>
   </g>
   <g id="patch_17">
    <path clip-path="url(#p97e1aeeabb)" d="M 110.592 244.8 
L 117.032727 244.8 
L 117.032727 167.440328 
L 110.592 167.440328 
z
" style="fill:#5bc0de;opacity:0.8;"/>
   </g>
   <g id="patch_18">
    <path clip-path="url(#p97e1aeeabb)" d="M 117.032727 244.8 
L 123.473455 244.8 
L 123.473455 134.831318 
L 117.032727 134.831318 
z
" style="fill:#5bc0de;opacity:0.8;"/>
   </g>
   <g id="patch_19">
    <path clip-path="url(#p97e1aeeabb)" d="M 123.473455 244.8 
L 129.914182 244.8 
L 129.914182 126.158709 
L 123.473455 126.158709 
z
" style="fill:#5bc0de;opacity:0.8;"/>
   </g>
   <g id="patch_20">
    <path clip-path="url(#p97e1aeeabb)" d="M 129.914182 244.8 
L 136.354909 244.8 
L 136.354909 98.753264 
L 129.914182 98.753264 
z
" style="fill:#5bc0de;opacity:0.8;"/>
   </g>
   <g id="patch_21">
    <path clip-path="url(#p97e1aeeabb)" d="M 136.354909 244.8 
L 142.795636 244.8 
L 142.795636 121.302048 
L 136.354909 121.302048 
z
" style="fill:#5bc0de;opacity:0.8;"/>
   </g>
   <g id="patch_22">
    <path clip-path="url(#p97e1aeeabb)" d="M 142.795636 244.8 
L 149.236364 244.8 
L 149.236364 80.367333 
L 142.795636 80.367333 
z
" style="fill:#5bc0de;opacity:0.8;"/>
   </g>
   <g id="patch_23">
    <path clip-path="url(#p97e1aeeabb)" d="M 149.236364 244.8 
L 155.677091 244.8 
L 155.677091 107.772778 
L 149.236364 107.772778 
z
" style="fill:#5bc0de;opacity:0.8;"/>
   </g>
   <g id="patch_24">
    <path clip-path="url(#p97e1aeeabb)" d="M 155.677091 244.8 
L 162.117818 244.8 
L 162.117818 85.223994 
L 155.677091 85.223994 
z
" style="fill:#5bc0de;opacity:0.8;"/>
   </g>
   <g id="patch_25">
    <path clip-path="url(#p97e1aeeabb)" d="M 162.117818 244.8 
L 168.558545 244.8 
L 168.558545 85.570899 
L 162.117818 85.570899 
z
" style="fill:#5bc0de;opacity:0.8;"/>
   </g>
   <g id="patch_26">
    <path clip-path="url(#p97e1aeeabb)" d="M 168.558545 244.8 
L 174.999273 244.8 
L 174.999273 58.512358 
L 168.558545 58.512358 
z
" style="fill:#5bc0de;opacity:0.8;"/>
   </g>
   <g id="patch_27">
    <path clip-path="url(#p97e1aeeabb)" d="M 174.999273 244.8 
L 181.44 244.8 
L 181.44 85.917803 
L 174.999273 85.917803 
z
" style="fill:#5bc0de;opacity:0.8;"/>
   </g>
   <g id="patch_28">
    <path clip-path="url(#p97e1aeeabb)" d="M 181.44 244.8 
L 187.880727 244.8 
L 187.880727 62.328306 
L 181.44 62.328306 
z
" style="fill:#5bc0de;opacity:0.8;"/>
   </g>
   <g id="patch_29">
    <path clip-path="url(#p97e1aeeabb)" d="M 187.880727 244.8 
L 194.321455 244.8 
L 194.321455 89.733751 
L 187.880727 89.733751 
z
" style="fill:#5bc0de;opacity:0.8;"/>
   </g>
   <g id="patch_30">
    <path clip-path="url(#p97e1aeeabb)" d="M 194.321455 244.8 
L 200.762182 244.8 
L 200.762182 89.039942 
L 194.321455 89.039942 
z
" style="fill:#5bc0de;opacity:0.8;"/>
   </g>
   <g id="patch_31">
    <path clip-path="url(#p97e1aeeabb)" d="M 200.762182 244.8 
L 207.202909 244.8 
L 207.202909 94.937316 
L 200.762182 94.937316 
z
" style="fill:#5bc0de;opacity:0.8;"/>
   </g>
   <g id="patch_32">
    <path clip-path="url(#p97e1aeeabb)" d="M 207.202909 244.8 
L 213.643636 244.8 
L 213.643636 100.140882 
L 207.202909 100.140882 
z
" style="fill:#5bc0de;opacity:0.8;"/>
   </g>
   <g id="patch_33">
    <path clip-path="url(#p97e1aeeabb)" d="M 213.643636 244.8 
L 220.084364 244.8 
L 220.084364 131.362274 
L 213.643636 131.362274 
z
" style="fill:#5bc0de;opacity:0.8;"/>
   </g>
   <g id="patch_34">
    <path clip-path="url(#p97e1aeeabb)" d="M 220.084364 244.8 
L 226.525091 244.8 
L 226.525091 121.302048 
L 220.084364 121.302048 
z
" style="fill:#5bc0de;opacity:0.8;"/>
   </g>
   <g id="patch_35">
    <path clip-path="url(#p97e1aeeabb)" d="M 226.525091 244.8 
L 232.965818 244.8 
L 232.965818 161.542954 
L 226.525091 161.542954 
z
" style="fill:#5bc0de;opacity:0.8;"/>
   </g>
   <g id="patch_36">
    <path clip-path="url(#p97e1aeeabb)" d="M 232.965818 244.8 
L 239.406545 244.8 
L 239.406545 150.09511 
L 232.965818 150.09511 
z
" style="fill:#5bc0de;opacity:0.8;"/>
   </g>
   <g id="patch_37">
    <path clip-path="url(#p97e1aeeabb)" d="M 239.406545 244.8 
L 245.847273 244.8 
L 245.847273 155.645579 
L 239.406545 155.645579 
z
" style="fill:#5bc0de;opacity:0.8;"/>
   </g>
   <g id="patch_38">
    <path clip-path="url(#p97e1aeeabb)" d="M 245.847273 244.8 
L 252.288 244.8 
L 252.288 173.337702 
L 245.847273 173.337702 
z
" style="fill:#5bc0de;opacity:0.8;"/>
   </g>
   <g id="patch_39">
    <path clip-path="url(#p97e1aeeabb)" d="M 252.288 244.8 
L 258.728727 244.8 
L 258.728727 203.865285 
L 252.288 203.865285 
z
" style="fill:#5bc0de;opacity:0.8;"/>
   </g>
   <g id="patch_40">
    <path clip-path="url(#p97e1aeeabb)" d="M 258.728727 244.8 
L 265.169455 244.8 
L 265.169455 205.599807 
L 258.728727 205.599807 
z
" style="fill:#5bc0de;opacity:0.8;"/>
   </g>
   <g id="patch_41">
    <path clip-path="url(#p97e1aeeabb)" d="M 265.169455 244.8 
L 271.610182 244.8 
L 271.610182 214.272416 
L 265.169455 214.272416 
z
" style="fill:#5bc0de;opacity:0.8;"/>
   </g>
   <g id="patch_42">
    <path clip-path="url(#p97e1aeeabb)" d="M 271.610182 244.8 
L 278.050909 244.8 
L 278.050909 218.435269 
L 271.610182 218.435269 
z
" style="fill:#5bc0de;opacity:0.8;"/>
   </g>
   <g id="patch_43">
    <path clip-path="url(#p97e1aeeabb)" d="M 278.050909 244.8 
L 284.491636 244.8 
L 284.491636 226.067165 
L 278.050909 226.067165 
z
" style="fill:#5bc0de;opacity:0.8;"/>
   </g>
   <g id="patch_44">
    <path clip-path="url(#p97e1aeeabb)" d="M 284.491636 244.8 
L 290.932364 244.8 
L 290.932364 231.617634 
L 284.491636 231.617634 
z
" style="fill:#5bc0de;opacity:0.8;"/>
   </g>
   <g id="patch_45">
    <path clip-path="url(#p97e1aeeabb)" d="M 290.932364 244.8 
L 297.373091 244.8 
L 297.373091 236.8212 
L 290.932364 236.8212 
z
" style="fill:#5bc0de;opacity:0.8;"/>
   </g>
   <g id="patch_46">
    <path clip-path="url(#p97e1aeeabb)" d="M 297.373091 244.8 
L 303.813818 244.8 
L 303.813818 239.596435 
L 297.373091 239.596435 
z
" style="fill:#5bc0de;opacity:0.8;"/>
   </g>
   <g id="patch_47">
    <path clip-path="url(#p97e1aeeabb)" d="M 303.813818 244.8 
L 310.254545 244.8 
L 310.254545 240.290243 
L 303.813818 240.290243 
z
" style="fill:#5bc0de;opacity:0.8;"/>
   </g>
   <g id="patch_48">
    <path clip-path="url(#p97e1aeeabb)" d="M 310.254545 244.8 
L 316.695273 244.8 
L 316.695273 241.677861 
L 310.254545 241.677861 
z
" style="fill:#5bc0de;opacity:0.8;"/>
   </g>
   <g id="patch_49">
    <path clip-path="url(#p97e1aeeabb)" d="M 316.695273 244.8 
L 323.136 244.8 
L 323.136 242.718574 
L 316.695273 242.718574 
z
" style="fill:#5bc0de;opacity:0.8;"/>
   </g>
   <g id="patch_50">
    <path clip-path="url(#p97e1aeeabb)" d="M 323.136 244.8 
L 329.576727 244.8 
L 329.576727 244.106191 
L 323.136 244.106191 
z
" style="fill:#5bc0de;opacity:0.8;"/>
   </g>
   <g id="patch_51">
    <path clip-path="url(#p97e1aeeabb)" d="M 329.576727 244.8 
L 336.017455 244.8 
L 336.017455 244.8 
L 329.576727 244.8 
z
" style="fill:#5bc0de;opacity:0.8;"/>
   </g>
   <g id="patch_52">
    <path clip-path="url(#p97e1aeeabb)" d="M 336.017455 244.8 
L 342.458182 244.8 
L 342.458182 244.106191 
L 336.017455 244.106191 
z
" style="fill:#5bc0de;opacity:0.8;"/>
   </g>
   <g id="patch_53">
    <path clip-path="url(#p97e1aeeabb)" d="M 107.729455 244.8 
L 110.240933 244.8 
L 110.240933 244.453096 
L 107.729455 244.453096 
z
" style="fill:#d9534f;"/>
   </g>
   <g id="patch_54">
    <path clip-path="url(#p97e1aeeabb)" d="M 110.240933 244.8 
L 112.752412 244.8 
L 112.752412 244.8 
L 110.240933 244.8 
z
" style="fill:#d9534f;"/>
   </g>
   <g id="patch_55">
    <path clip-path="url(#p97e1aeeabb)" d="M 112.752412 244.8 
L 115.26389 244.8 
L 115.26389 240.984052 
L 112.752412 240.984052 
z
" style="fill:#d9534f;"/>
   </g>
   <g id="patch_56">
    <path clip-path="url(#p97e1aeeabb)" d="M 115.26389 244.8 
L 117.775369 244.8 
L 117.775369 243.759287 
L 115.26389 243.759287 
z
" style="fill:#d9534f;"/>
   </g>
   <g id="patch_57">
    <path clip-path="url(#p97e1aeeabb)" d="M 117.775369 244.8 
L 120.286847 244.8 
L 120.286847 242.024765 
L 117.775369 242.024765 
z
" style="fill:#d9534f;"/>
   </g>
   <g id="patch_58">
    <path clip-path="url(#p97e1aeeabb)" d="M 120.286847 244.8 
L 122.798326 244.8 
L 122.798326 240.290243 
L 120.286847 240.290243 
z
" style="fill:#d9534f;"/>
   </g>
   <g id="patch_59">
    <path clip-path="url(#p97e1aeeabb)" d="M 122.798326 244.8 
L 125.309804 244.8 
L 125.309804 237.515008 
L 122.798326 237.515008 
z
" style="fill:#d9534f;"/>
   </g>
   <g id="patch_60">
    <path clip-path="url(#p97e1aeeabb)" d="M 125.309804 244.8 
L 127.821283 244.8 
L 127.821283 233.69906 
L 125.309804 233.69906 
z
" style="fill:#d9534f;"/>
   </g>
   <g id="patch_61">
    <path clip-path="url(#p97e1aeeabb)" d="M 127.821283 244.8 
L 130.332762 244.8 
L 130.332762 230.923826 
L 127.821283 230.923826 
z
" style="fill:#d9534f;"/>
   </g>
   <g id="patch_62">
    <path clip-path="url(#p97e1aeeabb)" d="M 130.332762 244.8 
L 132.84424 244.8 
L 132.84424 227.107878 
L 130.332762 227.107878 
z
" style="fill:#d9534f;"/>
   </g>
   <g id="patch_63">
    <path clip-path="url(#p97e1aeeabb)" d="M 132.84424 244.8 
L 135.355719 244.8 
L 135.355719 217.047651 
L 132.84424 217.047651 
z
" style="fill:#d9534f;"/>
   </g>
   <g id="patch_64">
    <path clip-path="url(#p97e1aeeabb)" d="M 135.355719 244.8 
L 137.867197 244.8 
L 137.867197 203.865285 
L 135.355719 203.865285 
z
" style="fill:#d9534f;"/>
   </g>
   <g id="patch_65">
    <path clip-path="url(#p97e1aeeabb)" d="M 137.867197 244.8 
L 140.378676 244.8 
L 140.378676 230.576921 
L 137.867197 230.576921 
z
" style="fill:#d9534f;"/>
   </g>
   <g id="patch_66">
    <path clip-path="url(#p97e1aeeabb)" d="M 140.378676 244.8 
L 142.890154 244.8 
L 142.890154 187.213876 
L 140.378676 187.213876 
z
" style="fill:#d9534f;"/>
   </g>
   <g id="patch_67">
    <path clip-path="url(#p97e1aeeabb)" d="M 142.890154 244.8 
L 145.401633 244.8 
L 145.401633 175.419128 
L 142.890154 175.419128 
z
" style="fill:#d9534f;"/>
   </g>
   <g id="patch_68">
    <path clip-path="url(#p97e1aeeabb)" d="M 145.401633 244.8 
L 147.913111 244.8 
L 147.913111 172.643893 
L 145.401633 172.643893 
z
" style="fill:#d9534f;"/>
   </g>
   <g id="patch_69">
    <path clip-path="url(#p97e1aeeabb)" d="M 147.913111 244.8 
L 150.42459 244.8 
L 150.42459 202.130764 
L 147.913111 202.130764 
z
" style="fill:#d9534f;"/>
   </g>
   <g id="patch_70">
    <path clip-path="url(#p97e1aeeabb)" d="M 150.42459 244.8 
L 152.936069 244.8 
L 152.936069 129.974657 
L 150.42459 129.974657 
z
" style="fill:#d9534f;"/>
   </g>
   <g id="patch_71">
    <path clip-path="url(#p97e1aeeabb)" d="M 152.936069 244.8 
L 155.447547 244.8 
L 155.447547 133.096796 
L 152.936069 133.096796 
z
" style="fill:#d9534f;"/>
   </g>
   <g id="patch_72">
    <path clip-path="url(#p97e1aeeabb)" d="M 155.447547 244.8 
L 157.959026 244.8 
L 157.959026 105.344447 
L 155.447547 105.344447 
z
" style="fill:#d9534f;"/>
   </g>
   <g id="patch_73">
    <path clip-path="url(#p97e1aeeabb)" d="M 157.959026 244.8 
L 160.470504 244.8 
L 160.470504 141.769405 
L 157.959026 141.769405 
z
" style="fill:#d9534f;"/>
   </g>
   <g id="patch_74">
    <path clip-path="url(#p97e1aeeabb)" d="M 160.470504 244.8 
L 162.981983 244.8 
L 162.981983 91.121368 
L 160.470504 91.121368 
z
" style="fill:#d9534f;"/>
   </g>
   <g id="patch_75">
    <path clip-path="url(#p97e1aeeabb)" d="M 162.981983 244.8 
L 165.493461 244.8 
L 165.493461 72.388533 
L 162.981983 72.388533 
z
" style="fill:#d9534f;"/>
   </g>
   <g id="patch_76">
    <path clip-path="url(#p97e1aeeabb)" d="M 165.493461 244.8 
L 168.00494 244.8 
L 168.00494 43.595471 
L 165.493461 43.595471 
z
" style="fill:#d9534f;"/>
   </g>
   <g id="patch_77">
    <path clip-path="url(#p97e1aeeabb)" d="M 168.00494 244.8 
L 170.516419 244.8 
L 170.516419 164.318188 
L 168.00494 164.318188 
z
" style="fill:#d9534f;"/>
   </g>
   <g id="patch_78">
    <path clip-path="url(#p97e1aeeabb)" d="M 170.516419 244.8 
L 173.027897 244.8 
L 173.027897 46.71761 
L 170.516419 46.71761 
z
" style="fill:#d9534f;"/>
   </g>
   <g id="patch_79">
    <path clip-path="url(#p97e1aeeabb)" d="M 173.027897 244.8 
L 175.539376 244.8 
L 175.539376 39.085714 
L 173.027897 39.085714 
z
" style="fill:#d9534f;"/>
   </g>
   <g id="patch_80">
    <path clip-path="url(#p97e1aeeabb)" d="M 175.539376 244.8 
L 178.050854 244.8 
L 178.050854 57.471645 
L 175.539376 57.471645 
z
" style="fill:#d9534f;"/>
   </g>
   <g id="patch_81">
    <path clip-path="url(#p97e1aeeabb)" d="M 178.050854 244.8 
L 180.562333 244.8 
L 180.562333 165.358901 
L 178.050854 165.358901 
z
" style="fill:#d9534f;"/>
   </g>
   <g id="patch_82">
    <path clip-path="url(#p97e1aeeabb)" d="M 180.562333 244.8 
L 183.073811 244.8 
L 183.073811 45.329993 
L 180.562333 45.329993 
z
" style="fill:#d9534f;"/>
   </g>
   <g id="patch_83">
    <path clip-path="url(#p97e1aeeabb)" d="M 183.073811 244.8 
L 185.58529 244.8 
L 185.58529 92.508986 
L 183.073811 92.508986 
z
" style="fill:#d9534f;"/>
   </g>
   <g id="patch_84">
    <path clip-path="url(#p97e1aeeabb)" d="M 185.58529 244.8 
L 188.096768 244.8 
L 188.096768 101.528499 
L 185.58529 101.528499 
z
" style="fill:#d9534f;"/>
   </g>
   <g id="patch_85">
    <path clip-path="url(#p97e1aeeabb)" d="M 188.096768 244.8 
L 190.608247 244.8 
L 190.608247 153.564153 
L 188.096768 153.564153 
z
" style="fill:#d9534f;"/>
   </g>
   <g id="patch_86">
    <path clip-path="url(#p97e1aeeabb)" d="M 190.608247 244.8 
L 193.119726 244.8 
L 193.119726 114.017056 
L 190.608247 114.017056 
z
" style="fill:#d9534f;"/>
   </g>
   <g id="patch_87">
    <path clip-path="url(#p97e1aeeabb)" d="M 193.119726 244.8 
L 195.631204 244.8 
L 195.631204 132.402987 
L 193.119726 132.402987 
z
" style="fill:#d9534f;"/>
   </g>
   <g id="patch_88">
    <path clip-path="url(#p97e1aeeabb)" d="M 195.631204 244.8 
L 198.142683 244.8 
L 198.142683 133.096796 
L 195.631204 133.096796 
z
" style="fill:#d9534f;"/>
   </g>
   <g id="patch_89">
    <path clip-path="url(#p97e1aeeabb)" d="M 198.142683 244.8 
L 200.654161 244.8 
L 200.654161 191.723633 
L 198.142683 191.723633 
z
" style="fill:#d9534f;"/>
   </g>
   <g id="patch_90">
    <path clip-path="url(#p97e1aeeabb)" d="M 200.654161 244.8 
L 203.16564 244.8 
L 203.16564 173.684606 
L 200.654161 173.684606 
z
" style="fill:#d9534f;"/>
   </g>
   <g id="patch_91">
    <path clip-path="url(#p97e1aeeabb)" d="M 203.16564 244.8 
L 205.677118 244.8 
L 205.677118 171.60318 
L 203.16564 171.60318 
z
" style="fill:#d9534f;"/>
   </g>
   <g id="patch_92">
    <path clip-path="url(#p97e1aeeabb)" d="M 205.677118 244.8 
L 208.188597 244.8 
L 208.188597 187.213876 
L 205.677118 187.213876 
z
" style="fill:#d9534f;"/>
   </g>
   <g id="patch_93">
    <path clip-path="url(#p97e1aeeabb)" d="M 208.188597 244.8 
L 210.700075 244.8 
L 210.700075 229.536208 
L 208.188597 229.536208 
z
" style="fill:#d9534f;"/>
   </g>
   <g id="patch_94">
    <path clip-path="url(#p97e1aeeabb)" d="M 210.700075 244.8 
L 213.211554 244.8 
L 213.211554 203.518381 
L 210.700075 203.518381 
z
" style="fill:#d9534f;"/>
   </g>
   <g id="patch_95">
    <path clip-path="url(#p97e1aeeabb)" d="M 213.211554 244.8 
L 215.723033 244.8 
L 215.723033 216.006938 
L 213.211554 216.006938 
z
" style="fill:#d9534f;"/>
   </g>
   <g id="patch_96">
    <path clip-path="url(#p97e1aeeabb)" d="M 215.723033 244.8 
L 218.234511 244.8 
L 218.234511 227.801686 
L 215.723033 227.801686 
z
" style="fill:#d9534f;"/>
   </g>
   <g id="patch_97">
    <path clip-path="url(#p97e1aeeabb)" d="M 218.234511 244.8 
L 220.74599 244.8 
L 220.74599 237.168104 
L 218.234511 237.168104 
z
" style="fill:#d9534f;"/>
   </g>
   <g id="patch_98">
    <path clip-path="url(#p97e1aeeabb)" d="M 220.74599 244.8 
L 223.257468 244.8 
L 223.257468 235.433582 
L 220.74599 235.433582 
z
" style="fill:#d9534f;"/>
   </g>
   <g id="patch_99">
    <path clip-path="url(#p97e1aeeabb)" d="M 223.257468 244.8 
L 225.768947 244.8 
L 225.768947 239.943339 
L 223.257468 239.943339 
z
" style="fill:#d9534f;"/>
   </g>
   <g id="patch_100">
    <path clip-path="url(#p97e1aeeabb)" d="M 225.768947 244.8 
L 228.280425 244.8 
L 228.280425 238.208817 
L 225.768947 238.208817 
z
" style="fill:#d9534f;"/>
   </g>
   <g id="patch_101">
    <path clip-path="url(#p97e1aeeabb)" d="M 228.280425 244.8 
L 230.791904 244.8 
L 230.791904 242.024765 
L 228.280425 242.024765 
z
" style="fill:#d9534f;"/>
   </g>
   <g id="patch_102">
    <path clip-path="url(#p97e1aeeabb)" d="M 230.791904 244.8 
L 233.303383 244.8 
L 233.303383 243.412383 
L 230.791904 243.412383 
z
" style="fill:#d9534f;"/>
   </g>
   <g id="patch_103">
    <path clip-path="url(#p97e1aeeabb)" d="M 233.303383 244.8 
L 235.814861 244.8 
L 235.814861 242.718574 
L 233.303383 242.718574 
z
" style="fill:#d9534f;"/>
   </g>
   <g id="patch_104">
    <path clip-path="url(#p97e1aeeabb)" d="M 235.814861 244.8 
L 238.32634 244.8 
L 238.32634 244.8 
L 235.814861 244.8 
z
" style="fill:#d9534f;"/>
   </g>
   <g id="patch_105">
    <path clip-path="url(#p97e1aeeabb)" d="M 238.32634 244.8 
L 240.837818 244.8 
L 240.837818 243.412383 
L 238.32634 243.412383 
z
" style="fill:#d9534f;"/>
   </g>
   <g id="matplotlib.axis_1">
    <g id="xtick_1">
     <g id="line2d_1">
      <defs>
       <path d="M 0 0 
L 0 4 
" id="mb7ba68bb24" style="stroke:#d2d2d2;"/>
      </defs>
      <g>
       <use style="fill:#d2d2d2;stroke:#d2d2d2;" x="45.469091" xlink:href="#mb7ba68bb24" y="244.8"/>
      </g>
     </g>
     <g id="text_1">
      <!-- −0.15 -->
      <defs>
       <path d="M 10.59375 35.5 
L 73.1875 35.5 
L 73.1875 27.203125 
L 10.59375 27.203125 
z
" id="DejaVuSans-2212"/>
       <path d="M 31.78125 66.40625 
Q 24.171875 66.40625 20.328125 58.90625 
Q 16.5 51.421875 16.5 36.375 
Q 16.5 21.390625 20.328125 13.890625 
Q 24.171875 6.390625 31.78125 6.390625 
Q 39.453125 6.390625 43.28125 13.890625 
Q 47.125 21.390625 47.125 36.375 
Q 47.125 51.421875 43.28125 58.90625 
Q 39.453125 66.40625 31.78125 66.40625 
M 31.78125 74.21875 
Q 44.046875 74.21875 50.515625 64.515625 
Q 56.984375 54.828125 56.984375 36.375 
Q 56.984375 17.96875 50.515625 8.265625 
Q 44.046875 -1.421875 31.78125 -1.421875 
Q 19.53125 -1.421875 13.0625 8.265625 
Q 6.59375 17.96875 6.59375 36.375 
Q 6.59375 54.828125 13.0625 64.515625 
Q 19.53125 74.21875 31.78125 74.21875 
" id="DejaVuSans-30"/>
       <path d="M 10.6875 12.40625 
L 21 12.40625 
L 21 0 
L 10.6875 0 
z
" id="DejaVuSans-2e"/>
       <path d="M 12.40625 8.296875 
L 28.515625 8.296875 
L 28.515625 63.921875 
L 10.984375 60.40625 
L 10.984375 69.390625 
L 28.421875 72.90625 
L 38.28125 72.90625 
L 38.28125 8.296875 
L 54.390625 8.296875 
L 54.390625 0 
L 12.40625 0 
z
" id="DejaVuSans-31"/>
       <path d="M 10.796875 72.90625 
L 49.515625 72.90625 
L 49.515625 64.59375 
L 19.828125 64.59375 
L 19.828125 46.734375 
Q 21.96875 47.46875 24.109375 47.828125 
Q 26.265625 48.1875 28.421875 48.1875 
Q 40.625 48.1875 47.75 41.5 
Q 54.890625 34.8125 54.890625 23.390625 
Q 54.890625 11.625 47.5625 5.09375 
Q 40.234375 -1.421875 26.90625 -1.421875 
Q 22.3125 -1.421875 17.546875 -0.640625 
Q 12.796875 0.140625 7.71875 1.703125 
L 7.71875 11.625 
Q 12.109375 9.234375 16.796875 8.0625 
Q 21.484375 6.890625 26.703125 6.890625 
Q 35.15625 6.890625 40.078125 11.328125 
Q 45.015625 15.765625 45.015625 23.390625 
Q 45.015625 31 40.078125 35.4375 
Q 35.15625 39.890625 26.703125 39.890625 
Q 22.75 39.890625 18.8125 39.015625 
Q 14.890625 38.140625 10.796875 36.28125 
z
" id="DejaVuSans-35"/>
      </defs>
      <g style="fill:#d2d2d2;" transform="translate(25.549638 262.677969)scale(0.13 -0.13)">
       <use xlink:href="#DejaVuSans-2212"/>
       <use x="83.789062" xlink:href="#DejaVuSans-30"/>
       <use x="147.412109" xlink:href="#DejaVuSans-2e"/>
       <use x="179.199219" xlink:href="#DejaVuSans-31"/>
       <use x="242.822266" xlink:href="#DejaVuSans-35"/>
      </g>
     </g>
    </g>
    <g id="xtick_2">
     <g id="line2d_2">
      <g>
       <use style="fill:#d2d2d2;stroke:#d2d2d2;" x="88.407273" xlink:href="#mb7ba68bb24" y="244.8"/>
      </g>
     </g>
     <g id="text_2">
      <!-- −0.10 -->
      <g style="fill:#d2d2d2;" transform="translate(68.48782 262.677969)scale(0.13 -0.13)">
       <use xlink:href="#DejaVuSans-2212"/>
       <use x="83.789062" xlink:href="#DejaVuSans-30"/>
       <use x="147.412109" xlink:href="#DejaVuSans-2e"/>
       <use x="179.199219" xlink:href="#DejaVuSans-31"/>
       <use x="242.822266" xlink:href="#DejaVuSans-30"/>
      </g>
     </g>
    </g>
    <g id="xtick_3">
     <g id="line2d_3">
      <g>
       <use style="fill:#d2d2d2;stroke:#d2d2d2;" x="131.345455" xlink:href="#mb7ba68bb24" y="244.8"/>
      </g>
     </g>
     <g id="text_3">
      <!-- −0.05 -->
      <g style="fill:#d2d2d2;" transform="translate(111.426001 262.677969)scale(0.13 -0.13)">
       <use xlink:href="#DejaVuSans-2212"/>
       <use x="83.789062" xlink:href="#DejaVuSans-30"/>
       <use x="147.412109" xlink:href="#DejaVuSans-2e"/>
       <use x="179.199219" xlink:href="#DejaVuSans-30"/>
       <use x="242.822266" xlink:href="#DejaVuSans-35"/>
      </g>
     </g>
    </g>
    <g id="xtick_4">
     <g id="line2d_4">
      <g>
       <use style="fill:#d2d2d2;stroke:#d2d2d2;" x="174.283636" xlink:href="#mb7ba68bb24" y="244.8"/>
      </g>
     </g>
     <g id="text_4">
      <!-- 0.00 -->
      <g style="fill:#d2d2d2;" transform="translate(159.81098 262.677969)scale(0.13 -0.13)">
       <use xlink:href="#DejaVuSans-30"/>
       <use x="63.623047" xlink:href="#DejaVuSans-2e"/>
       <use x="95.410156" xlink:href="#DejaVuSans-30"/>
       <use x="159.033203" xlink:href="#DejaVuSans-30"/>
      </g>
     </g>
    </g>
    <g id="xtick_5">
     <g id="line2d_5">
      <g>
       <use style="fill:#d2d2d2;stroke:#d2d2d2;" x="217.221818" xlink:href="#mb7ba68bb24" y="244.8"/>
      </g>
     </g>
     <g id="text_5">
      <!-- 0.05 -->
      <g style="fill:#d2d2d2;" transform="translate(202.749162 262.677969)scale(0.13 -0.13)">
       <use xlink:href="#DejaVuSans-30"/>
       <use x="63.623047" xlink:href="#DejaVuSans-2e"/>
       <use x="95.410156" xlink:href="#DejaVuSans-30"/>
       <use x="159.033203" xlink:href="#DejaVuSans-35"/>
      </g>
     </g>
    </g>
    <g id="xtick_6">
     <g id="line2d_6">
      <g>
       <use style="fill:#d2d2d2;stroke:#d2d2d2;" x="260.16" xlink:href="#mb7ba68bb24" y="244.8"/>
      </g>
     </g>
     <g id="text_6">
      <!-- 0.10 -->
      <g style="fill:#d2d2d2;" transform="translate(245.687344 262.677969)scale(0.13 -0.13)">
       <use xlink:href="#DejaVuSans-30"/>
       <use x="63.623047" xlink:href="#DejaVuSans-2e"/>
       <use x="95.410156" xlink:href="#DejaVuSans-31"/>
       <use x="159.033203" xlink:href="#DejaVuSans-30"/>
      </g>
     </g>
    </g>
    <g id="xtick_7">
     <g id="line2d_7">
      <g>
       <use style="fill:#d2d2d2;stroke:#d2d2d2;" x="303.098182" xlink:href="#mb7ba68bb24" y="244.8"/>
      </g>
     </g>
     <g id="text_7">
      <!-- 0.15 -->
      <g style="fill:#d2d2d2;" transform="translate(288.625526 262.677969)scale(0.13 -0.13)">
       <use xlink:href="#DejaVuSans-30"/>
       <use x="63.623047" xlink:href="#DejaVuSans-2e"/>
       <use x="95.410156" xlink:href="#DejaVuSans-31"/>
       <use x="159.033203" xlink:href="#DejaVuSans-35"/>
      </g>
     </g>
    </g>
    <g id="xtick_8">
     <g id="line2d_8">
      <g>
       <use style="fill:#d2d2d2;stroke:#d2d2d2;" x="346.036364" xlink:href="#mb7ba68bb24" y="244.8"/>
      </g>
     </g>
     <g id="text_8">
      <!-- 0.20 -->
      <defs>
       <path d="M 19.1875 8.296875 
L 53.609375 8.296875 
L 53.609375 0 
L 7.328125 0 
L 7.328125 8.296875 
Q 12.9375 14.109375 22.625 23.890625 
Q 32.328125 33.6875 34.8125 36.53125 
Q 39.546875 41.84375 41.421875 45.53125 
Q 43.3125 49.21875 43.3125 52.78125 
Q 43.3125 58.59375 39.234375 62.25 
Q 35.15625 65.921875 28.609375 65.921875 
Q 23.96875 65.921875 18.8125 64.3125 
Q 13.671875 62.703125 7.8125 59.421875 
L 7.8125 69.390625 
Q 13.765625 71.78125 18.9375 73 
Q 24.125 74.21875 28.421875 74.21875 
Q 39.75 74.21875 46.484375 68.546875 
Q 53.21875 62.890625 53.21875 53.421875 
Q 53.21875 48.921875 51.53125 44.890625 
Q 49.859375 40.875 45.40625 35.40625 
Q 44.1875 33.984375 37.640625 27.21875 
Q 31.109375 20.453125 19.1875 8.296875 
" id="DejaVuSans-32"/>
      </defs>
      <g style="fill:#d2d2d2;" transform="translate(331.563707 262.677969)scale(0.13 -0.13)">
       <use xlink:href="#DejaVuSans-30"/>
       <use x="63.623047" xlink:href="#DejaVuSans-2e"/>
       <use x="95.410156" xlink:href="#DejaVuSans-32"/>
       <use x="159.033203" xlink:href="#DejaVuSans-30"/>
      </g>
     </g>
    </g>
    <g id="text_9">
     <!-- $\bar{x}_{\mathrm{Wetsuit}}-\bar{x}_{\mathrm{No Wetsuit}}$ (m/s) -->
     <defs>
      <path d="M -39.34375 74.515625 
L -10.15625 74.515625 
L -10.15625 67.28125 
L -39.34375 67.28125 
z
" id="DejaVuSans-304"/>
      <path d="M 60.015625 54.6875 
L 34.90625 27.875 
L 50.296875 0 
L 39.984375 0 
L 28.421875 21.6875 
L 8.296875 0 
L -2.59375 0 
L 24.3125 28.8125 
L 10.015625 54.6875 
L 20.3125 54.6875 
L 30.8125 34.90625 
L 49.125 54.6875 
z
" id="DejaVuSans-Oblique-78"/>
      <path d="M 3.328125 72.90625 
L 13.28125 72.90625 
L 28.609375 11.28125 
L 43.890625 72.90625 
L 54.984375 72.90625 
L 70.3125 11.28125 
L 85.59375 72.90625 
L 95.609375 72.90625 
L 77.296875 0 
L 64.890625 0 
L 49.515625 63.28125 
L 33.984375 0 
L 21.578125 0 
z
" id="DejaVuSans-57"/>
      <path d="M 56.203125 29.59375 
L 56.203125 25.203125 
L 14.890625 25.203125 
Q 15.484375 15.921875 20.484375 11.0625 
Q 25.484375 6.203125 34.421875 6.203125 
Q 39.59375 6.203125 44.453125 7.46875 
Q 49.3125 8.734375 54.109375 11.28125 
L 54.109375 2.78125 
Q 49.265625 0.734375 44.1875 -0.34375 
Q 39.109375 -1.421875 33.890625 -1.421875 
Q 20.796875 -1.421875 13.15625 6.1875 
Q 5.515625 13.8125 5.515625 26.8125 
Q 5.515625 40.234375 12.765625 48.109375 
Q 20.015625 56 32.328125 56 
Q 43.359375 56 49.78125 48.890625 
Q 56.203125 41.796875 56.203125 29.59375 
M 47.21875 32.234375 
Q 47.125 39.59375 43.09375 43.984375 
Q 39.0625 48.390625 32.421875 48.390625 
Q 24.90625 48.390625 20.390625 44.140625 
Q 15.875 39.890625 15.1875 32.171875 
z
" id="DejaVuSans-65"/>
      <path d="M 18.3125 70.21875 
L 18.3125 54.6875 
L 36.8125 54.6875 
L 36.8125 47.703125 
L 18.3125 47.703125 
L 18.3125 18.015625 
Q 18.3125 11.328125 20.140625 9.421875 
Q 21.96875 7.515625 27.59375 7.515625 
L 36.8125 7.515625 
L 36.8125 0 
L 27.59375 0 
Q 17.1875 0 13.234375 3.875 
Q 9.28125 7.765625 9.28125 18.015625 
L 9.28125 47.703125 
L 2.6875 47.703125 
L 2.6875 54.6875 
L 9.28125 54.6875 
L 9.28125 70.21875 
z
" id="DejaVuSans-74"/>
      <path d="M 44.28125 53.078125 
L 44.28125 44.578125 
Q 40.484375 46.53125 36.375 47.5 
Q 32.28125 48.484375 27.875 48.484375 
Q 21.1875 48.484375 17.84375 46.4375 
Q 14.5 44.390625 14.5 40.28125 
Q 14.5 37.15625 16.890625 35.375 
Q 19.28125 33.59375 26.515625 31.984375 
L 29.59375 31.296875 
Q 39.15625 29.25 43.1875 25.515625 
Q 47.21875 21.78125 47.21875 15.09375 
Q 47.21875 7.46875 41.1875 3.015625 
Q 35.15625 -1.421875 24.609375 -1.421875 
Q 20.21875 -1.421875 15.453125 -0.5625 
Q 10.6875 0.296875 5.421875 2 
L 5.421875 11.28125 
Q 10.40625 8.6875 15.234375 7.390625 
Q 20.0625 6.109375 24.8125 6.109375 
Q 31.15625 6.109375 34.5625 8.28125 
Q 37.984375 10.453125 37.984375 14.40625 
Q 37.984375 18.0625 35.515625 20.015625 
Q 33.0625 21.96875 24.703125 23.78125 
L 21.578125 24.515625 
Q 13.234375 26.265625 9.515625 29.90625 
Q 5.8125 33.546875 5.8125 39.890625 
Q 5.8125 47.609375 11.28125 51.796875 
Q 16.75 56 26.8125 56 
Q 31.78125 56 36.171875 55.265625 
Q 40.578125 54.546875 44.28125 53.078125 
" id="DejaVuSans-73"/>
      <path d="M 8.5 21.578125 
L 8.5 54.6875 
L 17.484375 54.6875 
L 17.484375 21.921875 
Q 17.484375 14.15625 20.5 10.265625 
Q 23.53125 6.390625 29.59375 6.390625 
Q 36.859375 6.390625 41.078125 11.03125 
Q 45.3125 15.671875 45.3125 23.6875 
L 45.3125 54.6875 
L 54.296875 54.6875 
L 54.296875 0 
L 45.3125 0 
L 45.3125 8.40625 
Q 42.046875 3.421875 37.71875 1 
Q 33.40625 -1.421875 27.6875 -1.421875 
Q 18.265625 -1.421875 13.375 4.4375 
Q 8.5 10.296875 8.5 21.578125 
M 31.109375 56 
z
" id="DejaVuSans-75"/>
      <path d="M 9.421875 54.6875 
L 18.40625 54.6875 
L 18.40625 0 
L 9.421875 0 
z
M 9.421875 75.984375 
L 18.40625 75.984375 
L 18.40625 64.59375 
L 9.421875 64.59375 
z
" id="DejaVuSans-69"/>
      <path d="M 9.8125 72.90625 
L 23.09375 72.90625 
L 55.421875 11.921875 
L 55.421875 72.90625 
L 64.984375 72.90625 
L 64.984375 0 
L 51.703125 0 
L 19.390625 60.984375 
L 19.390625 0 
L 9.8125 0 
z
" id="DejaVuSans-4e"/>
      <path d="M 30.609375 48.390625 
Q 23.390625 48.390625 19.1875 42.75 
Q 14.984375 37.109375 14.984375 27.296875 
Q 14.984375 17.484375 19.15625 11.84375 
Q 23.34375 6.203125 30.609375 6.203125 
Q 37.796875 6.203125 41.984375 11.859375 
Q 46.1875 17.53125 46.1875 27.296875 
Q 46.1875 37.015625 41.984375 42.703125 
Q 37.796875 48.390625 30.609375 48.390625 
M 30.609375 56 
Q 42.328125 56 49.015625 48.375 
Q 55.71875 40.765625 55.71875 27.296875 
Q 55.71875 13.875 49.015625 6.21875 
Q 42.328125 -1.421875 30.609375 -1.421875 
Q 18.84375 -1.421875 12.171875 6.21875 
Q 5.515625 13.875 5.515625 27.296875 
Q 5.515625 40.765625 12.171875 48.375 
Q 18.84375 56 30.609375 56 
" id="DejaVuSans-6f"/>
      <path id="DejaVuSans-20"/>
      <path d="M 31 75.875 
Q 24.46875 64.65625 21.28125 53.65625 
Q 18.109375 42.671875 18.109375 31.390625 
Q 18.109375 20.125 21.3125 9.0625 
Q 24.515625 -2 31 -13.1875 
L 23.1875 -13.1875 
Q 15.875 -1.703125 12.234375 9.375 
Q 8.59375 20.453125 8.59375 31.390625 
Q 8.59375 42.28125 12.203125 53.3125 
Q 15.828125 64.359375 23.1875 75.875 
z
" id="DejaVuSans-28"/>
      <path d="M 52 44.1875 
Q 55.375 50.25 60.0625 53.125 
Q 64.75 56 71.09375 56 
Q 79.640625 56 84.28125 50.015625 
Q 88.921875 44.046875 88.921875 33.015625 
L 88.921875 0 
L 79.890625 0 
L 79.890625 32.71875 
Q 79.890625 40.578125 77.09375 44.375 
Q 74.3125 48.1875 68.609375 48.1875 
Q 61.625 48.1875 57.5625 43.546875 
Q 53.515625 38.921875 53.515625 30.90625 
L 53.515625 0 
L 44.484375 0 
L 44.484375 32.71875 
Q 44.484375 40.625 41.703125 44.40625 
Q 38.921875 48.1875 33.109375 48.1875 
Q 26.21875 48.1875 22.15625 43.53125 
Q 18.109375 38.875 18.109375 30.90625 
L 18.109375 0 
L 9.078125 0 
L 9.078125 54.6875 
L 18.109375 54.6875 
L 18.109375 46.1875 
Q 21.1875 51.21875 25.484375 53.609375 
Q 29.78125 56 35.6875 56 
Q 41.65625 56 45.828125 52.96875 
Q 50 49.953125 52 44.1875 
" id="DejaVuSans-6d"/>
      <path d="M 25.390625 72.90625 
L 33.6875 72.90625 
L 8.296875 -9.28125 
L 0 -9.28125 
z
" id="DejaVuSans-2f"/>
      <path d="M 8.015625 75.875 
L 15.828125 75.875 
Q 23.140625 64.359375 26.78125 53.3125 
Q 30.421875 42.28125 30.421875 31.390625 
Q 30.421875 20.453125 26.78125 9.375 
Q 23.140625 -1.703125 15.828125 -13.1875 
L 8.015625 -13.1875 
Q 14.5 -2 17.703125 9.0625 
Q 20.90625 20.125 20.90625 31.390625 
Q 20.90625 42.671875 17.703125 53.65625 
Q 14.5 64.65625 8.015625 75.875 
" id="DejaVuSans-29"/>
     </defs>
     <g style="fill:#d2d2d2;" transform="translate(75.96 283.05875)scale(0.18 -0.18)">
      <use transform="translate(62.138672 0.03125)" xlink:href="#DejaVuSans-304"/>
      <use transform="translate(0 0.125)" xlink:href="#DejaVuSans-Oblique-78"/>
      <use transform="translate(60.136719 -16.28125)scale(0.7)" xlink:href="#DejaVuSans-57"/>
      <use transform="translate(129.350586 -16.28125)scale(0.7)" xlink:href="#DejaVuSans-65"/>
      <use transform="translate(172.416992 -16.28125)scale(0.7)" xlink:href="#DejaVuSans-74"/>
      <use transform="translate(199.863281 -16.28125)scale(0.7)" xlink:href="#DejaVuSans-73"/>
      <use transform="translate(236.333008 -16.28125)scale(0.7)" xlink:href="#DejaVuSans-75"/>
      <use transform="translate(280.698242 -16.28125)scale(0.7)" xlink:href="#DejaVuSans-69"/>
      <use transform="translate(300.146484 -16.28125)scale(0.7)" xlink:href="#DejaVuSans-74"/>
      <use transform="translate(349.80957 0.125)" xlink:href="#DejaVuSans-2212"/>
      <use transform="translate(515.219727 0.03125)" xlink:href="#DejaVuSans-304"/>
      <use transform="translate(453.081055 0.125)" xlink:href="#DejaVuSans-Oblique-78"/>
      <use transform="translate(513.217773 -16.28125)scale(0.7)" xlink:href="#DejaVuSans-4e"/>
      <use transform="translate(565.581055 -16.28125)scale(0.7)" xlink:href="#DejaVuSans-6f"/>
      <use transform="translate(608.408203 -16.28125)scale(0.7)" xlink:href="#DejaVuSans-57"/>
      <use transform="translate(677.62207 -16.28125)scale(0.7)" xlink:href="#DejaVuSans-65"/>
      <use transform="translate(720.688477 -16.28125)scale(0.7)" xlink:href="#DejaVuSans-74"/>
      <use transform="translate(748.134766 -16.28125)scale(0.7)" xlink:href="#DejaVuSans-73"/>
      <use transform="translate(784.604492 -16.28125)scale(0.7)" xlink:href="#DejaVuSans-75"/>
      <use transform="translate(828.969727 -16.28125)scale(0.7)" xlink:href="#DejaVuSans-69"/>
      <use transform="translate(848.417969 -16.28125)scale(0.7)" xlink:href="#DejaVuSans-74"/>
      <use transform="translate(878.598633 0.125)" xlink:href="#DejaVuSans-20"/>
      <use transform="translate(910.385742 0.125)" xlink:href="#DejaVuSans-28"/>
      <use transform="translate(949.399414 0.125)" xlink:href="#DejaVuSans-6d"/>
      <use transform="translate(1046.811523 0.125)" xlink:href="#DejaVuSans-2f"/>
      <use transform="translate(1080.50293 0.125)" xlink:href="#DejaVuSans-73"/>
      <use transform="translate(1132.602539 0.125)" xlink:href="#DejaVuSans-29"/>
     </g>
    </g>
   </g>
   <g id="matplotlib.axis_2"/>
   <g id="patch_106">
    <path d="M 4.32 244.8 
L 358.56 244.8 
" style="fill:none;stroke:#d2d2d2;stroke-linecap:square;stroke-linejoin:miter;"/>
   </g>
   <g id="text_10">
    <!-- Null hypothesis sampling -->
    <defs>
     <path d="M 9.421875 75.984375 
L 18.40625 75.984375 
L 18.40625 0 
L 9.421875 0 
z
" id="DejaVuSans-6c"/>
     <path d="M 54.890625 33.015625 
L 54.890625 0 
L 45.90625 0 
L 45.90625 32.71875 
Q 45.90625 40.484375 42.875 44.328125 
Q 39.84375 48.1875 33.796875 48.1875 
Q 26.515625 48.1875 22.3125 43.546875 
Q 18.109375 38.921875 18.109375 30.90625 
L 18.109375 0 
L 9.078125 0 
L 9.078125 75.984375 
L 18.109375 75.984375 
L 18.109375 46.1875 
Q 21.34375 51.125 25.703125 53.5625 
Q 30.078125 56 35.796875 56 
Q 45.21875 56 50.046875 50.171875 
Q 54.890625 44.34375 54.890625 33.015625 
" id="DejaVuSans-68"/>
     <path d="M 32.171875 -5.078125 
Q 28.375 -14.84375 24.75 -17.8125 
Q 21.140625 -20.796875 15.09375 -20.796875 
L 7.90625 -20.796875 
L 7.90625 -13.28125 
L 13.1875 -13.28125 
Q 16.890625 -13.28125 18.9375 -11.515625 
Q 21 -9.765625 23.484375 -3.21875 
L 25.09375 0.875 
L 2.984375 54.6875 
L 12.5 54.6875 
L 29.59375 11.921875 
L 46.6875 54.6875 
L 56.203125 54.6875 
z
" id="DejaVuSans-79"/>
     <path d="M 18.109375 8.203125 
L 18.109375 -20.796875 
L 9.078125 -20.796875 
L 9.078125 54.6875 
L 18.109375 54.6875 
L 18.109375 46.390625 
Q 20.953125 51.265625 25.265625 53.625 
Q 29.59375 56 35.59375 56 
Q 45.5625 56 51.78125 48.09375 
Q 58.015625 40.1875 58.015625 27.296875 
Q 58.015625 14.40625 51.78125 6.484375 
Q 45.5625 -1.421875 35.59375 -1.421875 
Q 29.59375 -1.421875 25.265625 0.953125 
Q 20.953125 3.328125 18.109375 8.203125 
M 48.6875 27.296875 
Q 48.6875 37.203125 44.609375 42.84375 
Q 40.53125 48.484375 33.40625 48.484375 
Q 26.265625 48.484375 22.1875 42.84375 
Q 18.109375 37.203125 18.109375 27.296875 
Q 18.109375 17.390625 22.1875 11.75 
Q 26.265625 6.109375 33.40625 6.109375 
Q 40.53125 6.109375 44.609375 11.75 
Q 48.6875 17.390625 48.6875 27.296875 
" id="DejaVuSans-70"/>
     <path d="M 34.28125 27.484375 
Q 23.390625 27.484375 19.1875 25 
Q 14.984375 22.515625 14.984375 16.5 
Q 14.984375 11.71875 18.140625 8.90625 
Q 21.296875 6.109375 26.703125 6.109375 
Q 34.1875 6.109375 38.703125 11.40625 
Q 43.21875 16.703125 43.21875 25.484375 
L 43.21875 27.484375 
z
M 52.203125 31.203125 
L 52.203125 0 
L 43.21875 0 
L 43.21875 8.296875 
Q 40.140625 3.328125 35.546875 0.953125 
Q 30.953125 -1.421875 24.3125 -1.421875 
Q 15.921875 -1.421875 10.953125 3.296875 
Q 6 8.015625 6 15.921875 
Q 6 25.140625 12.171875 29.828125 
Q 18.359375 34.515625 30.609375 34.515625 
L 43.21875 34.515625 
L 43.21875 35.40625 
Q 43.21875 41.609375 39.140625 45 
Q 35.0625 48.390625 27.6875 48.390625 
Q 23 48.390625 18.546875 47.265625 
Q 14.109375 46.140625 10.015625 43.890625 
L 10.015625 52.203125 
Q 14.9375 54.109375 19.578125 55.046875 
Q 24.21875 56 28.609375 56 
Q 40.484375 56 46.34375 49.84375 
Q 52.203125 43.703125 52.203125 31.203125 
" id="DejaVuSans-61"/>
     <path d="M 54.890625 33.015625 
L 54.890625 0 
L 45.90625 0 
L 45.90625 32.71875 
Q 45.90625 40.484375 42.875 44.328125 
Q 39.84375 48.1875 33.796875 48.1875 
Q 26.515625 48.1875 22.3125 43.546875 
Q 18.109375 38.921875 18.109375 30.90625 
L 18.109375 0 
L 9.078125 0 
L 9.078125 54.6875 
L 18.109375 54.6875 
L 18.109375 46.1875 
Q 21.34375 51.125 25.703125 53.5625 
Q 30.078125 56 35.796875 56 
Q 45.21875 56 50.046875 50.171875 
Q 54.890625 44.34375 54.890625 33.015625 
" id="DejaVuSans-6e"/>
     <path d="M 45.40625 27.984375 
Q 45.40625 37.75 41.375 43.109375 
Q 37.359375 48.484375 30.078125 48.484375 
Q 22.859375 48.484375 18.828125 43.109375 
Q 14.796875 37.75 14.796875 27.984375 
Q 14.796875 18.265625 18.828125 12.890625 
Q 22.859375 7.515625 30.078125 7.515625 
Q 37.359375 7.515625 41.375 12.890625 
Q 45.40625 18.265625 45.40625 27.984375 
M 54.390625 6.78125 
Q 54.390625 -7.171875 48.1875 -13.984375 
Q 42 -20.796875 29.203125 -20.796875 
Q 24.46875 -20.796875 20.265625 -20.09375 
Q 16.0625 -19.390625 12.109375 -17.921875 
L 12.109375 -9.1875 
Q 16.0625 -11.328125 19.921875 -12.34375 
Q 23.78125 -13.375 27.78125 -13.375 
Q 36.625 -13.375 41.015625 -8.765625 
Q 45.40625 -4.15625 45.40625 5.171875 
L 45.40625 9.625 
Q 42.625 4.78125 38.28125 2.390625 
Q 33.9375 0 27.875 0 
Q 17.828125 0 11.671875 7.65625 
Q 5.515625 15.328125 5.515625 27.984375 
Q 5.515625 40.671875 11.671875 48.328125 
Q 17.828125 56 27.875 56 
Q 33.9375 56 38.28125 53.609375 
Q 42.625 51.21875 45.40625 46.390625 
L 45.40625 54.6875 
L 54.390625 54.6875 
z
" id="DejaVuSans-67"/>
    </defs>
    <g style="fill:#d2d2d2;" transform="translate(4.32 12.757969)scale(0.13 -0.13)">
     <use xlink:href="#DejaVuSans-4e"/>
     <use x="74.804688" xlink:href="#DejaVuSans-75"/>
     <use x="138.183594" xlink:href="#DejaVuSans-6c"/>
     <use x="165.966797" xlink:href="#DejaVuSans-6c"/>
     <use x="193.75" xlink:href="#DejaVuSans-20"/>
     <use x="225.537109" xlink:href="#DejaVuSans-68"/>
     <use x="288.916016" xlink:href="#DejaVuSans-79"/>
     <use x="348.095703" xlink:href="#DejaVuSans-70"/>
     <use x="411.572266" xlink:href="#DejaVuSans-6f"/>
     <use x="472.753906" xlink:href="#DejaVuSans-74"/>
     <use x="511.962891" xlink:href="#DejaVuSans-68"/>
     <use x="575.341797" xlink:href="#DejaVuSans-65"/>
     <use x="636.865234" xlink:href="#DejaVuSans-73"/>
     <use x="688.964844" xlink:href="#DejaVuSans-69"/>
     <use x="716.748047" xlink:href="#DejaVuSans-73"/>
     <use x="768.847656" xlink:href="#DejaVuSans-20"/>
     <use x="800.634766" xlink:href="#DejaVuSans-73"/>
     <use x="852.734375" xlink:href="#DejaVuSans-61"/>
     <use x="914.013672" xlink:href="#DejaVuSans-6d"/>
     <use x="1011.425781" xlink:href="#DejaVuSans-70"/>
     <use x="1074.902344" xlink:href="#DejaVuSans-6c"/>
     <use x="1102.685547" xlink:href="#DejaVuSans-69"/>
     <use x="1130.46875" xlink:href="#DejaVuSans-6e"/>
     <use x="1193.847656" xlink:href="#DejaVuSans-67"/>
    </g>
    <!-- distribution when data -->
    <defs>
     <path d="M 45.40625 46.390625 
L 45.40625 75.984375 
L 54.390625 75.984375 
L 54.390625 0 
L 45.40625 0 
L 45.40625 8.203125 
Q 42.578125 3.328125 38.25 0.953125 
Q 33.9375 -1.421875 27.875 -1.421875 
Q 17.96875 -1.421875 11.734375 6.484375 
Q 5.515625 14.40625 5.515625 27.296875 
Q 5.515625 40.1875 11.734375 48.09375 
Q 17.96875 56 27.875 56 
Q 33.9375 56 38.25 53.625 
Q 42.578125 51.265625 45.40625 46.390625 
M 14.796875 27.296875 
Q 14.796875 17.390625 18.875 11.75 
Q 22.953125 6.109375 30.078125 6.109375 
Q 37.203125 6.109375 41.296875 11.75 
Q 45.40625 17.390625 45.40625 27.296875 
Q 45.40625 37.203125 41.296875 42.84375 
Q 37.203125 48.484375 30.078125 48.484375 
Q 22.953125 48.484375 18.875 42.84375 
Q 14.796875 37.203125 14.796875 27.296875 
" id="DejaVuSans-64"/>
     <path d="M 41.109375 46.296875 
Q 39.59375 47.171875 37.8125 47.578125 
Q 36.03125 48 33.890625 48 
Q 26.265625 48 22.1875 43.046875 
Q 18.109375 38.09375 18.109375 28.8125 
L 18.109375 0 
L 9.078125 0 
L 9.078125 54.6875 
L 18.109375 54.6875 
L 18.109375 46.1875 
Q 20.953125 51.171875 25.484375 53.578125 
Q 30.03125 56 36.53125 56 
Q 37.453125 56 38.578125 55.875 
Q 39.703125 55.765625 41.0625 55.515625 
z
" id="DejaVuSans-72"/>
     <path d="M 48.6875 27.296875 
Q 48.6875 37.203125 44.609375 42.84375 
Q 40.53125 48.484375 33.40625 48.484375 
Q 26.265625 48.484375 22.1875 42.84375 
Q 18.109375 37.203125 18.109375 27.296875 
Q 18.109375 17.390625 22.1875 11.75 
Q 26.265625 6.109375 33.40625 6.109375 
Q 40.53125 6.109375 44.609375 11.75 
Q 48.6875 17.390625 48.6875 27.296875 
M 18.109375 46.390625 
Q 20.953125 51.265625 25.265625 53.625 
Q 29.59375 56 35.59375 56 
Q 45.5625 56 51.78125 48.09375 
Q 58.015625 40.1875 58.015625 27.296875 
Q 58.015625 14.40625 51.78125 6.484375 
Q 45.5625 -1.421875 35.59375 -1.421875 
Q 29.59375 -1.421875 25.265625 0.953125 
Q 20.953125 3.328125 18.109375 8.203125 
L 18.109375 0 
L 9.078125 0 
L 9.078125 75.984375 
L 18.109375 75.984375 
z
" id="DejaVuSans-62"/>
     <path d="M 4.203125 54.6875 
L 13.1875 54.6875 
L 24.421875 12.015625 
L 35.59375 54.6875 
L 46.1875 54.6875 
L 57.421875 12.015625 
L 68.609375 54.6875 
L 77.59375 54.6875 
L 63.28125 0 
L 52.6875 0 
L 40.921875 44.828125 
L 29.109375 0 
L 18.5 0 
z
" id="DejaVuSans-77"/>
    </defs>
    <g style="fill:#d2d2d2;" transform="translate(4.32 27.315125)scale(0.13 -0.13)">
     <use xlink:href="#DejaVuSans-64"/>
     <use x="63.476562" xlink:href="#DejaVuSans-69"/>
     <use x="91.259766" xlink:href="#DejaVuSans-73"/>
     <use x="143.359375" xlink:href="#DejaVuSans-74"/>
     <use x="182.568359" xlink:href="#DejaVuSans-72"/>
     <use x="223.681641" xlink:href="#DejaVuSans-69"/>
     <use x="251.464844" xlink:href="#DejaVuSans-62"/>
     <use x="314.941406" xlink:href="#DejaVuSans-75"/>
     <use x="378.320312" xlink:href="#DejaVuSans-74"/>
     <use x="417.529297" xlink:href="#DejaVuSans-69"/>
     <use x="445.3125" xlink:href="#DejaVuSans-6f"/>
     <use x="506.494141" xlink:href="#DejaVuSans-6e"/>
     <use x="569.873047" xlink:href="#DejaVuSans-20"/>
     <use x="601.660156" xlink:href="#DejaVuSans-77"/>
     <use x="683.447266" xlink:href="#DejaVuSans-68"/>
     <use x="746.826172" xlink:href="#DejaVuSans-65"/>
     <use x="808.349609" xlink:href="#DejaVuSans-6e"/>
     <use x="871.728516" xlink:href="#DejaVuSans-20"/>
     <use x="903.515625" xlink:href="#DejaVuSans-64"/>
     <use x="966.992188" xlink:href="#DejaVuSans-61"/>
     <use x="1028.271484" xlink:href="#DejaVuSans-74"/>
     <use x="1067.480469" xlink:href="#DejaVuSans-61"/>
    </g>
    <!-- are considered: -->
    <defs>
     <path d="M 48.78125 52.59375 
L 48.78125 44.1875 
Q 44.96875 46.296875 41.140625 47.34375 
Q 37.3125 48.390625 33.40625 48.390625 
Q 24.65625 48.390625 19.8125 42.84375 
Q 14.984375 37.3125 14.984375 27.296875 
Q 14.984375 17.28125 19.8125 11.734375 
Q 24.65625 6.203125 33.40625 6.203125 
Q 37.3125 6.203125 41.140625 7.25 
Q 44.96875 8.296875 48.78125 10.40625 
L 48.78125 2.09375 
Q 45.015625 0.34375 40.984375 -0.53125 
Q 36.96875 -1.421875 32.421875 -1.421875 
Q 20.0625 -1.421875 12.78125 6.34375 
Q 5.515625 14.109375 5.515625 27.296875 
Q 5.515625 40.671875 12.859375 48.328125 
Q 20.21875 56 33.015625 56 
Q 37.15625 56 41.109375 55.140625 
Q 45.0625 54.296875 48.78125 52.59375 
" id="DejaVuSans-63"/>
     <path d="M 11.71875 12.40625 
L 22.015625 12.40625 
L 22.015625 0 
L 11.71875 0 
z
M 11.71875 51.703125 
L 22.015625 51.703125 
L 22.015625 39.3125 
L 11.71875 39.3125 
z
" id="DejaVuSans-3a"/>
    </defs>
    <g style="fill:#d2d2d2;" transform="translate(4.32 41.872281)scale(0.13 -0.13)">
     <use xlink:href="#DejaVuSans-61"/>
     <use x="61.279297" xlink:href="#DejaVuSans-72"/>
     <use x="102.361328" xlink:href="#DejaVuSans-65"/>
     <use x="163.884766" xlink:href="#DejaVuSans-20"/>
     <use x="195.671875" xlink:href="#DejaVuSans-63"/>
     <use x="250.652344" xlink:href="#DejaVuSans-6f"/>
     <use x="311.833984" xlink:href="#DejaVuSans-6e"/>
     <use x="375.212891" xlink:href="#DejaVuSans-73"/>
     <use x="427.3125" xlink:href="#DejaVuSans-69"/>
     <use x="455.095703" xlink:href="#DejaVuSans-64"/>
     <use x="518.572266" xlink:href="#DejaVuSans-65"/>
     <use x="580.095703" xlink:href="#DejaVuSans-72"/>
     <use x="621.177734" xlink:href="#DejaVuSans-65"/>
     <use x="682.701172" xlink:href="#DejaVuSans-64"/>
     <use x="746.177734" xlink:href="#DejaVuSans-3a"/>
    </g>
   </g>
   <g id="text_11">
    <!-- - Independant -->
    <defs>
     <path d="M 4.890625 31.390625 
L 31.203125 31.390625 
L 31.203125 23.390625 
L 4.890625 23.390625 
z
" id="DejaVuSans-2d"/>
     <path d="M 9.8125 72.90625 
L 19.671875 72.90625 
L 19.671875 0 
L 9.8125 0 
z
" id="DejaVuSans-49"/>
    </defs>
    <g style="fill:#5bc0de;" transform="translate(4.32 61.2)scale(0.15 -0.15)">
     <use xlink:href="#DejaVuSans-2d"/>
     <use x="36.083984" xlink:href="#DejaVuSans-20"/>
     <use x="67.871094" xlink:href="#DejaVuSans-49"/>
     <use x="97.363281" xlink:href="#DejaVuSans-6e"/>
     <use x="160.742188" xlink:href="#DejaVuSans-64"/>
     <use x="224.21875" xlink:href="#DejaVuSans-65"/>
     <use x="285.742188" xlink:href="#DejaVuSans-70"/>
     <use x="349.21875" xlink:href="#DejaVuSans-65"/>
     <use x="410.742188" xlink:href="#DejaVuSans-6e"/>
     <use x="474.121094" xlink:href="#DejaVuSans-64"/>
     <use x="537.597656" xlink:href="#DejaVuSans-61"/>
     <use x="598.876953" xlink:href="#DejaVuSans-6e"/>
     <use x="662.255859" xlink:href="#DejaVuSans-74"/>
    </g>
   </g>
   <g id="text_12">
    <!-- - Paired -->
    <defs>
     <path d="M 19.671875 64.796875 
L 19.671875 37.40625 
L 32.078125 37.40625 
Q 38.96875 37.40625 42.71875 40.96875 
Q 46.484375 44.53125 46.484375 51.125 
Q 46.484375 57.671875 42.71875 61.234375 
Q 38.96875 64.796875 32.078125 64.796875 
z
M 9.8125 72.90625 
L 32.078125 72.90625 
Q 44.34375 72.90625 50.609375 67.359375 
Q 56.890625 61.8125 56.890625 51.125 
Q 56.890625 40.328125 50.609375 34.8125 
Q 44.34375 29.296875 32.078125 29.296875 
L 19.671875 29.296875 
L 19.671875 0 
L 9.8125 0 
z
" id="DejaVuSans-50"/>
    </defs>
    <g style="fill:#d9534f;" transform="translate(4.32 82.8)scale(0.15 -0.15)">
     <use xlink:href="#DejaVuSans-2d"/>
     <use x="36.083984" xlink:href="#DejaVuSans-20"/>
     <use x="67.871094" xlink:href="#DejaVuSans-50"/>
     <use x="128.111328" xlink:href="#DejaVuSans-61"/>
     <use x="189.390625" xlink:href="#DejaVuSans-69"/>
     <use x="217.173828" xlink:href="#DejaVuSans-72"/>
     <use x="258.255859" xlink:href="#DejaVuSans-65"/>
     <use x="319.779297" xlink:href="#DejaVuSans-64"/>
    </g>
   </g>
  </g>
  <g id="axes_2">
   <g id="line2d_9">
    <path clip-path="url(#p97e1aeeabb)" d="M 240.837818 244.8 
L 240.837818 28.8 
" style="fill:none;stroke:#f0ad4e;stroke-dasharray:5.6,2.4;stroke-dashoffset:0;stroke-width:1.5;"/>
   </g>
   <g id="text_13">
    <!-- Initial observation -->
    <defs>
     <path d="M 2.984375 54.6875 
L 12.5 54.6875 
L 29.59375 8.796875 
L 46.6875 54.6875 
L 56.203125 54.6875 
L 35.6875 0 
L 23.484375 0 
z
" id="DejaVuSans-76"/>
    </defs>
    <g style="fill:#f0ad4e;" transform="translate(182.343912 12.082844)scale(0.13 -0.13)">
     <use xlink:href="#DejaVuSans-49"/>
     <use x="29.492188" xlink:href="#DejaVuSans-6e"/>
     <use x="92.871094" xlink:href="#DejaVuSans-69"/>
     <use x="120.654297" xlink:href="#DejaVuSans-74"/>
     <use x="159.863281" xlink:href="#DejaVuSans-69"/>
     <use x="187.646484" xlink:href="#DejaVuSans-61"/>
     <use x="248.925781" xlink:href="#DejaVuSans-6c"/>
     <use x="276.708984" xlink:href="#DejaVuSans-20"/>
     <use x="308.496094" xlink:href="#DejaVuSans-6f"/>
     <use x="369.677734" xlink:href="#DejaVuSans-62"/>
     <use x="433.154297" xlink:href="#DejaVuSans-73"/>
     <use x="485.253906" xlink:href="#DejaVuSans-65"/>
     <use x="546.777344" xlink:href="#DejaVuSans-72"/>
     <use x="587.890625" xlink:href="#DejaVuSans-76"/>
     <use x="647.070312" xlink:href="#DejaVuSans-61"/>
     <use x="708.349609" xlink:href="#DejaVuSans-74"/>
     <use x="747.558594" xlink:href="#DejaVuSans-69"/>
     <use x="775.341797" xlink:href="#DejaVuSans-6f"/>
     <use x="836.523438" xlink:href="#DejaVuSans-6e"/>
    </g>
    <!-- 0.078 -->
    <defs>
     <path d="M 8.203125 72.90625 
L 55.078125 72.90625 
L 55.078125 68.703125 
L 28.609375 0 
L 18.3125 0 
L 43.21875 64.59375 
L 8.203125 64.59375 
z
" id="DejaVuSans-37"/>
     <path d="M 31.78125 34.625 
Q 24.75 34.625 20.71875 30.859375 
Q 16.703125 27.09375 16.703125 20.515625 
Q 16.703125 13.921875 20.71875 10.15625 
Q 24.75 6.390625 31.78125 6.390625 
Q 38.8125 6.390625 42.859375 10.171875 
Q 46.921875 13.96875 46.921875 20.515625 
Q 46.921875 27.09375 42.890625 30.859375 
Q 38.875 34.625 31.78125 34.625 
M 21.921875 38.8125 
Q 15.578125 40.375 12.03125 44.71875 
Q 8.5 49.078125 8.5 55.328125 
Q 8.5 64.0625 14.71875 69.140625 
Q 20.953125 74.21875 31.78125 74.21875 
Q 42.671875 74.21875 48.875 69.140625 
Q 55.078125 64.0625 55.078125 55.328125 
Q 55.078125 49.078125 51.53125 44.71875 
Q 48 40.375 41.703125 38.8125 
Q 48.828125 37.15625 52.796875 32.3125 
Q 56.78125 27.484375 56.78125 20.515625 
Q 56.78125 9.90625 50.3125 4.234375 
Q 43.84375 -1.421875 31.78125 -1.421875 
Q 19.734375 -1.421875 13.25 4.234375 
Q 6.78125 9.90625 6.78125 20.515625 
Q 6.78125 27.484375 10.78125 32.3125 
Q 14.796875 37.15625 21.921875 38.8125 
M 18.3125 54.390625 
Q 18.3125 48.734375 21.84375 45.5625 
Q 25.390625 42.390625 31.78125 42.390625 
Q 38.140625 42.390625 41.71875 45.5625 
Q 45.3125 48.734375 45.3125 54.390625 
Q 45.3125 60.0625 41.71875 63.234375 
Q 38.140625 66.40625 31.78125 66.40625 
Q 25.390625 66.40625 21.84375 63.234375 
Q 18.3125 60.0625 18.3125 54.390625 
" id="DejaVuSans-38"/>
    </defs>
    <g style="fill:#f0ad4e;" transform="translate(222.229537 26.64)scale(0.13 -0.13)">
     <use xlink:href="#DejaVuSans-30"/>
     <use x="63.623047" xlink:href="#DejaVuSans-2e"/>
     <use x="95.410156" xlink:href="#DejaVuSans-30"/>
     <use x="159.033203" xlink:href="#DejaVuSans-37"/>
     <use x="222.65625" xlink:href="#DejaVuSans-38"/>
    </g>
   </g>
  </g>
  <g id="axes_3">
   <g id="text_14">
    <!-- 0 simulations with -->
    <g style="fill:#d2d2d2;" transform="translate(249.425455 79.042844)scale(0.13 -0.13)">
     <use xlink:href="#DejaVuSans-30"/>
     <use x="63.623047" xlink:href="#DejaVuSans-20"/>
     <use x="95.410156" xlink:href="#DejaVuSans-73"/>
     <use x="147.509766" xlink:href="#DejaVuSans-69"/>
     <use x="175.292969" xlink:href="#DejaVuSans-6d"/>
     <use x="272.705078" xlink:href="#DejaVuSans-75"/>
     <use x="336.083984" xlink:href="#DejaVuSans-6c"/>
     <use x="363.867188" xlink:href="#DejaVuSans-61"/>
     <use x="425.146484" xlink:href="#DejaVuSans-74"/>
     <use x="464.355469" xlink:href="#DejaVuSans-69"/>
     <use x="492.138672" xlink:href="#DejaVuSans-6f"/>
     <use x="553.320312" xlink:href="#DejaVuSans-6e"/>
     <use x="616.699219" xlink:href="#DejaVuSans-73"/>
     <use x="668.798828" xlink:href="#DejaVuSans-20"/>
     <use x="700.585938" xlink:href="#DejaVuSans-77"/>
     <use x="782.373047" xlink:href="#DejaVuSans-69"/>
     <use x="810.15625" xlink:href="#DejaVuSans-74"/>
     <use x="849.365234" xlink:href="#DejaVuSans-68"/>
    </g>
    <!-- $\bar{x}_{\mathrm{Wetsuit}}-\bar{x}_{\mathrm{No Wetsuit}}\geq$0.078 -->
    <defs>
     <path d="M 10.59375 49.609375 
L 10.59375 58.203125 
L 73.1875 40.28125 
L 73.1875 31.984375 
L 10.59375 14.015625 
L 10.59375 22.703125 
L 57.515625 36.078125 
z
M 73.1875 8.296875 
L 73.1875 0 
L 10.59375 0 
L 10.59375 8.296875 
z
" id="DejaVuSans-2265"/>
    </defs>
    <g style="fill:#d2d2d2;" transform="translate(249.425455 93.6)scale(0.13 -0.13)">
     <use transform="translate(62.138672 0.484375)" xlink:href="#DejaVuSans-304"/>
     <use transform="translate(0 0.578125)" xlink:href="#DejaVuSans-Oblique-78"/>
     <use transform="translate(60.136719 -15.828125)scale(0.7)" xlink:href="#DejaVuSans-57"/>
     <use transform="translate(129.350586 -15.828125)scale(0.7)" xlink:href="#DejaVuSans-65"/>
     <use transform="translate(172.416992 -15.828125)scale(0.7)" xlink:href="#DejaVuSans-74"/>
     <use transform="translate(199.863281 -15.828125)scale(0.7)" xlink:href="#DejaVuSans-73"/>
     <use transform="translate(236.333008 -15.828125)scale(0.7)" xlink:href="#DejaVuSans-75"/>
     <use transform="translate(280.698242 -15.828125)scale(0.7)" xlink:href="#DejaVuSans-69"/>
     <use transform="translate(300.146484 -15.828125)scale(0.7)" xlink:href="#DejaVuSans-74"/>
     <use transform="translate(349.80957 0.578125)" xlink:href="#DejaVuSans-2212"/>
     <use transform="translate(515.219727 0.484375)" xlink:href="#DejaVuSans-304"/>
     <use transform="translate(453.081055 0.578125)" xlink:href="#DejaVuSans-Oblique-78"/>
     <use transform="translate(513.217773 -15.828125)scale(0.7)" xlink:href="#DejaVuSans-4e"/>
     <use transform="translate(565.581055 -15.828125)scale(0.7)" xlink:href="#DejaVuSans-6f"/>
     <use transform="translate(608.408203 -15.828125)scale(0.7)" xlink:href="#DejaVuSans-57"/>
     <use transform="translate(677.62207 -15.828125)scale(0.7)" xlink:href="#DejaVuSans-65"/>
     <use transform="translate(720.688477 -15.828125)scale(0.7)" xlink:href="#DejaVuSans-74"/>
     <use transform="translate(748.134766 -15.828125)scale(0.7)" xlink:href="#DejaVuSans-73"/>
     <use transform="translate(784.604492 -15.828125)scale(0.7)" xlink:href="#DejaVuSans-75"/>
     <use transform="translate(828.969727 -15.828125)scale(0.7)" xlink:href="#DejaVuSans-69"/>
     <use transform="translate(848.417969 -15.828125)scale(0.7)" xlink:href="#DejaVuSans-74"/>
     <use transform="translate(898.081055 0.578125)" xlink:href="#DejaVuSans-2265"/>
     <use transform="translate(1001.352539 0.578125)" xlink:href="#DejaVuSans-30"/>
     <use transform="translate(1064.975586 0.578125)" xlink:href="#DejaVuSans-2e"/>
     <use transform="translate(1096.762695 0.578125)" xlink:href="#DejaVuSans-30"/>
     <use transform="translate(1160.385742 0.578125)" xlink:href="#DejaVuSans-37"/>
     <use transform="translate(1224.008789 0.578125)" xlink:href="#DejaVuSans-38"/>
    </g>
   </g>
   <g id="text_15">
    <!-- 1-tail p-value -->
    <g style="fill:#d2d2d2;" transform="translate(249.425455 122.242844)scale(0.13 -0.13)">
     <use xlink:href="#DejaVuSans-31"/>
     <use x="63.623047" xlink:href="#DejaVuSans-2d"/>
     <use x="99.707031" xlink:href="#DejaVuSans-74"/>
     <use x="138.916016" xlink:href="#DejaVuSans-61"/>
     <use x="200.195312" xlink:href="#DejaVuSans-69"/>
     <use x="227.978516" xlink:href="#DejaVuSans-6c"/>
     <use x="255.761719" xlink:href="#DejaVuSans-20"/>
     <use x="287.548828" xlink:href="#DejaVuSans-70"/>
     <use x="351.025391" xlink:href="#DejaVuSans-2d"/>
     <use x="387.078125" xlink:href="#DejaVuSans-76"/>
     <use x="446.257812" xlink:href="#DejaVuSans-61"/>
     <use x="507.537109" xlink:href="#DejaVuSans-6c"/>
     <use x="535.320312" xlink:href="#DejaVuSans-75"/>
     <use x="598.699219" xlink:href="#DejaVuSans-65"/>
    </g>
    <!-- p&lt;0.0001 -->
    <defs>
     <path d="M 73.1875 49.21875 
L 22.796875 31.296875 
L 73.1875 13.484375 
L 73.1875 4.59375 
L 10.59375 27.296875 
L 10.59375 35.40625 
L 73.1875 58.109375 
z
" id="DejaVuSans-3c"/>
    </defs>
    <g style="fill:#d2d2d2;" transform="translate(249.425455 136.8)scale(0.13 -0.13)">
     <use xlink:href="#DejaVuSans-70"/>
     <use x="63.476562" xlink:href="#DejaVuSans-3c"/>
     <use x="147.265625" xlink:href="#DejaVuSans-30"/>
     <use x="210.888672" xlink:href="#DejaVuSans-2e"/>
     <use x="242.675781" xlink:href="#DejaVuSans-30"/>
     <use x="306.298828" xlink:href="#DejaVuSans-30"/>
     <use x="369.921875" xlink:href="#DejaVuSans-30"/>
     <use x="433.544922" xlink:href="#DejaVuSans-31"/>
    </g>
   </g>
  </g>
 </g>
 <defs>
  <clipPath id="p97e1aeeabb">
   <rect height="216" width="354.24" x="4.32" y="28.8"/>
  </clipPath>
 </defs>
</svg>
