<?xml version="1.0" encoding="utf-8"?>
<!-- Generator: Adobe Illustrator 16.0.4, SVG Export Plug-In . SVG Version: 6.00 Build 0)  -->
<!DOCTYPE svg PUBLIC "-//W3C//DTD SVG 1.1//EN" "http://www.w3.org/Graphics/SVG/1.1/DTD/svg11.dtd">
<svg version="1.1" id="Layer_1" xmlns="http://www.w3.org/2000/svg" xmlns:xlink="http://www.w3.org/1999/xlink" x="0px" y="0px"
	 width="549px" height="473px" viewBox="0 0 549 473" enable-background="new 0 0 549 473" xml:space="preserve">
<g>
	<rect x="67.116" y="307.169" fill="#81C77F" width="134.254" height="104.317"/>
	<rect x="228.285" y="305.566" fill="#BEAED4" width="134.574" height="105.92"/>
	<rect x="389.771" y="307.806" fill="#FCC086" width="134.254" height="103.68"/>
</g>
<g>
	<rect x="67.116" y="121.814" fill="#81C77F" width="134.254" height="37.393"/>
	<rect x="228.285" y="90.047" fill="#BEAED4" width="134.574" height="69.16"/>
	<rect x="389.771" y="130.74" fill="#FCC086" width="134.254" height="28.467"/>
	
		<line fill="none" stroke="#D2D2D2" stroke-width="2" stroke-linejoin="round" stroke-miterlimit="10" x1="53.659" y1="159.208" x2="53.659" y2="35.047"/>
	<path fill="none" stroke="#D2D2D2" stroke-width="2" stroke-linejoin="round" stroke-miterlimit="10" d="M45.648,35.047h8.011
		 M45.648,97.127h8.011 M45.648,159.208h8.011"/>
</g>
<line fill="none" stroke="#D2D2D2" stroke-width="2" stroke-linejoin="round" stroke-miterlimit="10" x1="53.659" y1="411.487" x2="53.659" y2="287.327"/>
<path fill="none" stroke="#D2D2D2" stroke-width="2" stroke-linejoin="round" stroke-miterlimit="10" d="M45.648,287.327h8.011
	 M45.648,349.406h8.011 M45.648,411.487h8.011"/>
<g>
	<path fill="#D2D2D2" d="M11.201,40.691c0.75,0.48,2.49,1.23,4.32,1.23c3.39,0,4.44-2.16,4.41-3.78c-0.03-2.73-2.49-3.9-5.04-3.9
		h-1.47v-1.98h1.47c1.92,0,4.35-0.99,4.35-3.3c0-1.56-0.99-2.94-3.42-2.94c-1.56,0-3.06,0.69-3.9,1.29l-0.69-1.92
		c1.02-0.75,3-1.5,5.1-1.5c3.84,0,5.58,2.28,5.58,4.65c0,2.01-1.2,3.72-3.6,4.59v0.06c2.4,0.48,4.35,2.28,4.35,5.01
		c0,3.12-2.43,5.85-7.11,5.85c-2.19,0-4.11-0.69-5.07-1.32L11.201,40.691z"/>
	<path fill="#D2D2D2" d="M37.6,26.441H30.16l-0.75,5.01c0.45-0.06,0.87-0.12,1.59-0.12c1.5,0,3,0.33,4.2,1.05
		c1.53,0.87,2.79,2.55,2.79,5.01c0,3.81-3.03,6.66-7.26,6.66c-2.13,0-3.93-0.6-4.86-1.2l0.66-2.01c0.81,0.48,2.4,1.08,4.17,1.08
		c2.49,0,4.62-1.62,4.62-4.23c-0.03-2.52-1.71-4.32-5.61-4.32c-1.11,0-1.979,0.12-2.7,0.21l1.26-9.359h9.33V26.441z"/>
</g>
<g>
	<path fill="#D2D2D2" d="M66.219,185.577c1.32-0.27,3.21-0.42,5.01-0.42c2.79,0,4.59,0.51,5.85,1.65c1.02,0.9,1.59,2.28,1.59,3.84
		c0,2.67-1.68,4.44-3.81,5.16v0.09c1.56,0.54,2.49,1.979,2.97,4.08c0.66,2.82,1.14,4.77,1.56,5.55h-2.7
		c-0.33-0.57-0.78-2.31-1.35-4.83c-0.6-2.79-1.68-3.84-4.05-3.93h-2.46v8.76h-2.61V185.577z M68.829,194.786h2.67
		c2.79,0,4.56-1.53,4.56-3.84c0-2.61-1.89-3.75-4.65-3.78c-1.26,0-2.16,0.12-2.58,0.24V194.786z"/>
	<path fill="#D2D2D2" d="M83.859,198.746c0.06,3.57,2.34,5.04,4.98,5.04c1.89,0,3.03-0.33,4.02-0.75l0.45,1.89
		c-0.93,0.42-2.52,0.9-4.83,0.9c-4.47,0-7.14-2.939-7.14-7.319s2.58-7.83,6.81-7.83c4.74,0,6,4.17,6,6.84
		c0,0.54-0.06,0.96-0.09,1.23H83.859z M91.599,196.856c0.03-1.68-0.69-4.29-3.66-4.29c-2.67,0-3.84,2.46-4.05,4.29H91.599z"/>
	<path fill="#D2D2D2" d="M97.419,195.746c0-1.86-0.06-3.36-0.12-4.74h2.37l0.12,2.49h0.06c1.08-1.77,2.79-2.82,5.16-2.82
		c3.51,0,6.149,2.97,6.149,7.38c0,5.22-3.18,7.8-6.6,7.8c-1.92,0-3.6-0.84-4.47-2.28h-0.06v7.89h-2.61V195.746z M100.029,199.616
		c0,0.39,0.06,0.75,0.12,1.08c0.48,1.83,2.07,3.09,3.959,3.09c2.79,0,4.41-2.28,4.41-5.61c0-2.91-1.53-5.4-4.32-5.4
		c-1.8,0-3.48,1.29-3.99,3.27c-0.09,0.33-0.18,0.72-0.18,1.08V199.616z"/>
	<path fill="#D2D2D2" d="M126.638,201.566c0,1.5,0.03,2.82,0.12,3.96h-2.34l-0.15-2.37h-0.06c-0.69,1.17-2.22,2.7-4.8,2.7
		c-2.28,0-5.01-1.26-5.01-6.36v-8.49h2.64v8.04c0,2.76,0.84,4.62,3.24,4.62c1.77,0,3-1.23,3.48-2.4c0.15-0.39,0.24-0.87,0.24-1.35
		v-8.91h2.64V201.566z"/>
	<path fill="#D2D2D2" d="M130.898,205.526c0.06-0.99,0.12-2.46,0.12-3.75v-17.549h2.61v9.12h0.06c0.93-1.62,2.61-2.67,4.95-2.67
		c3.6,0,6.15,3,6.12,7.41c0,5.189-3.27,7.77-6.51,7.77c-2.1,0-3.78-0.81-4.86-2.73h-0.09l-0.12,2.4H130.898z M133.628,199.706
		c0,0.33,0.06,0.66,0.12,0.96c0.51,1.83,2.04,3.09,3.96,3.09c2.76,0,4.41-2.25,4.41-5.58c0-2.91-1.5-5.4-4.32-5.4
		c-1.8,0-3.48,1.23-4.02,3.24c-0.06,0.3-0.15,0.66-0.15,1.08V199.706z"/>
	<path fill="#D2D2D2" d="M148.088,184.227h2.64v21.299h-2.64V184.227z"/>
	<path fill="#D2D2D2" d="M158.107,186.927c0.03,0.9-0.63,1.62-1.68,1.62c-0.93,0-1.59-0.72-1.59-1.62c0-0.93,0.69-1.65,1.65-1.65
		C157.478,185.277,158.107,185.997,158.107,186.927z M155.167,205.526v-14.52h2.64v14.52H155.167z"/>
	<path fill="#D2D2D2" d="M172.537,204.986c-0.69,0.36-2.22,0.84-4.17,0.84c-4.38,0-7.229-2.97-7.229-7.41
		c0-4.47,3.06-7.709,7.799-7.709c1.56,0,2.94,0.39,3.66,0.75l-0.6,2.04c-0.63-0.36-1.62-0.69-3.06-0.69
		c-3.33,0-5.129,2.46-5.129,5.49c0,3.36,2.16,5.43,5.04,5.43c1.5,0,2.49-0.39,3.24-0.72L172.537,204.986z"/>
	<path fill="#D2D2D2" d="M183.667,205.526l-0.21-1.83h-0.09c-0.81,1.14-2.37,2.16-4.44,2.16c-2.94,0-4.44-2.07-4.44-4.17
		c0-3.51,3.12-5.43,8.73-5.4v-0.3c0-1.2-0.33-3.36-3.3-3.36c-1.35,0-2.76,0.42-3.78,1.08l-0.6-1.74c1.2-0.78,2.94-1.29,4.77-1.29
		c4.44,0,5.52,3.03,5.52,5.94v5.43c0,1.26,0.06,2.49,0.24,3.48H183.667z M183.277,198.116c-2.88-0.06-6.15,0.45-6.15,3.27
		c0,1.71,1.14,2.52,2.49,2.52c1.89,0,3.09-1.2,3.51-2.43c0.09-0.27,0.15-0.57,0.15-0.84V198.116z"/>
	<path fill="#D2D2D2" d="M190.087,194.937c0-1.5-0.03-2.73-0.12-3.93h2.34l0.15,2.4h0.06c0.72-1.38,2.4-2.73,4.8-2.73
		c2.01,0,5.13,1.2,5.13,6.18v8.669h-2.64v-8.37c0-2.34-0.87-4.29-3.36-4.29c-1.74,0-3.09,1.23-3.54,2.7
		c-0.12,0.33-0.18,0.78-0.18,1.23v8.729h-2.64V194.937z"/>
</g>
<g>
	<path fill="#D2D2D2" d="M235.857,185.577c1.59-0.24,3.48-0.42,5.55-0.42c3.75,0,6.42,0.87,8.19,2.52c1.8,1.65,2.85,3.99,2.85,7.26
		c0,3.3-1.02,6-2.91,7.859c-1.89,1.89-5.01,2.91-8.94,2.91c-1.86,0-3.419-0.09-4.74-0.24V185.577z M238.467,203.456
		c0.66,0.12,1.62,0.15,2.64,0.15c5.58,0,8.609-3.12,8.609-8.58c0.03-4.77-2.67-7.8-8.189-7.8c-1.35,0-2.37,0.12-3.06,0.27V203.456z"
		/>
	<path fill="#D2D2D2" d="M257.337,198.746c0.06,3.57,2.34,5.04,4.98,5.04c1.89,0,3.03-0.33,4.02-0.75l0.45,1.89
		c-0.93,0.42-2.521,0.9-4.83,0.9c-4.47,0-7.14-2.939-7.14-7.319s2.58-7.83,6.81-7.83c4.74,0,6,4.17,6,6.84
		c0,0.54-0.061,0.96-0.09,1.23H257.337z M265.077,196.856c0.03-1.68-0.69-4.29-3.66-4.29c-2.67,0-3.84,2.46-4.05,4.29H265.077z"/>
	<path fill="#D2D2D2" d="M270.896,194.937c0-1.5-0.029-2.73-0.119-3.93h2.31l0.12,2.34h0.09c0.811-1.38,2.16-2.67,4.56-2.67
		c1.979,0,3.479,1.2,4.11,2.91h0.06c0.45-0.81,1.021-1.44,1.62-1.89c0.87-0.66,1.83-1.02,3.21-1.02c1.92,0,4.77,1.26,4.77,6.3v8.55
		h-2.579v-8.22c0-2.79-1.021-4.47-3.15-4.47c-1.5,0-2.67,1.11-3.12,2.4c-0.12,0.36-0.21,0.84-0.21,1.32v8.97h-2.58v-8.7
		c0-2.31-1.02-3.99-3.029-3.99c-1.65,0-2.85,1.32-3.27,2.64c-0.15,0.39-0.211,0.84-0.211,1.29v8.76h-2.58V194.937z"/>
	<path fill="#D2D2D2" d="M309.057,198.146c0,5.37-3.721,7.71-7.23,7.71c-3.93,0-6.959-2.88-6.959-7.47c0-4.86,3.18-7.71,7.199-7.71
		C306.236,190.676,309.057,193.707,309.057,198.146z M297.537,198.296c0,3.18,1.83,5.58,4.41,5.58c2.52,0,4.409-2.37,4.409-5.64
		c0-2.46-1.229-5.58-4.35-5.58S297.537,195.536,297.537,198.296z"/>
	<path fill="#D2D2D2" d="M322.736,204.986c-0.689,0.36-2.22,0.84-4.17,0.84c-4.38,0-7.229-2.97-7.229-7.41
		c0-4.47,3.06-7.709,7.8-7.709c1.56,0,2.939,0.39,3.66,0.75l-0.601,2.04c-0.63-0.36-1.62-0.69-3.06-0.69
		c-3.33,0-5.13,2.46-5.13,5.49c0,3.36,2.159,5.43,5.04,5.43c1.5,0,2.489-0.39,3.239-0.72L322.736,204.986z"/>
	<path fill="#D2D2D2" d="M325.826,195.536c0-1.71-0.029-3.18-0.119-4.53h2.31l0.09,2.85h0.12c0.66-1.95,2.25-3.18,4.02-3.18
		c0.301,0,0.51,0.03,0.75,0.09v2.49c-0.27-0.06-0.539-0.09-0.9-0.09c-1.859,0-3.18,1.41-3.539,3.39c-0.061,0.36-0.12,0.78-0.12,1.23
		v7.74h-2.61V195.536z"/>
	<path fill="#D2D2D2" d="M343.526,205.526l-0.21-1.83h-0.09c-0.811,1.14-2.37,2.16-4.439,2.16c-2.94,0-4.44-2.07-4.44-4.17
		c0-3.51,3.12-5.43,8.729-5.4v-0.3c0-1.2-0.33-3.36-3.3-3.36c-1.35,0-2.76,0.42-3.78,1.08l-0.6-1.74c1.2-0.78,2.94-1.29,4.77-1.29
		c4.44,0,5.521,3.03,5.521,5.94v5.43c0,1.26,0.06,2.49,0.239,3.48H343.526z M343.137,198.116c-2.88-0.06-6.15,0.45-6.15,3.27
		c0,1.71,1.141,2.52,2.49,2.52c1.891,0,3.09-1.2,3.51-2.43c0.09-0.27,0.15-0.57,0.15-0.84V198.116z"/>
	<path fill="#D2D2D2" d="M353.006,186.836v4.17h3.78v2.01h-3.78v7.83c0,1.8,0.511,2.82,1.98,2.82c0.689,0,1.2-0.09,1.53-0.18
		l0.12,1.98c-0.51,0.21-1.32,0.36-2.34,0.36c-1.23,0-2.221-0.39-2.85-1.11c-0.75-0.78-1.021-2.07-1.021-3.78v-7.919h-2.25v-2.01
		h2.25v-3.479L353.006,186.836z"/>
</g>
<g>
	<path fill="#D2D2D2" d="M440.158,195.207c0,6.959-4.229,10.649-9.39,10.649c-5.34,0-9.089-4.14-9.089-10.26
		c0-6.419,3.989-10.62,9.389-10.62C436.588,184.977,440.158,189.207,440.158,195.207z M424.469,195.536c0,4.32,2.34,8.19,6.45,8.19
		c4.14,0,6.479-3.81,6.479-8.4c0-4.02-2.1-8.22-6.449-8.22C426.629,187.106,424.469,191.097,424.469,195.536z"/>
	<path fill="#D2D2D2" d="M447.148,186.836v4.17h3.779v2.01h-3.779v7.83c0,1.8,0.51,2.82,1.98,2.82c0.689,0,1.199-0.09,1.529-0.18
		l0.12,1.98c-0.51,0.21-1.319,0.36-2.34,0.36c-1.229,0-2.22-0.39-2.85-1.11c-0.75-0.78-1.021-2.07-1.021-3.78v-7.919h-2.25v-2.01
		h2.25v-3.479L447.148,186.836z"/>
	<path fill="#D2D2D2" d="M453.898,184.227h2.641v9.06h0.06c0.42-0.75,1.08-1.41,1.89-1.86c0.78-0.45,1.711-0.75,2.7-0.75
		c1.95,0,5.069,1.2,5.069,6.21v8.64h-2.639v-8.34c0-2.34-0.871-4.32-3.36-4.32c-1.71,0-3.06,1.2-3.54,2.64
		c-0.15,0.36-0.18,0.75-0.18,1.26v8.76h-2.641V184.227z"/>
	<path fill="#D2D2D2" d="M472.018,198.746c0.061,3.57,2.341,5.04,4.98,5.04c1.891,0,3.029-0.33,4.02-0.75l0.45,1.89
		c-0.93,0.42-2.521,0.9-4.829,0.9c-4.471,0-7.141-2.939-7.141-7.319s2.58-7.83,6.811-7.83c4.739,0,5.999,4.17,5.999,6.84
		c0,0.54-0.06,0.96-0.09,1.23H472.018z M479.758,196.856c0.03-1.68-0.689-4.29-3.66-4.29c-2.67,0-3.84,2.46-4.049,4.29H479.758z"/>
	<path fill="#D2D2D2" d="M485.578,195.536c0-1.71-0.03-3.18-0.12-4.53h2.31l0.09,2.85h0.121c0.66-1.95,2.25-3.18,4.02-3.18
		c0.3,0,0.51,0.03,0.75,0.09v2.49c-0.27-0.06-0.54-0.09-0.9-0.09c-1.859,0-3.18,1.41-3.539,3.39c-0.061,0.36-0.121,0.78-0.121,1.23
		v7.74h-2.609V195.536z"/>
</g>
<g>
	<path fill="#D2D2D2" d="M227.458,19.547c1.26-0.21,2.91-0.39,5.01-0.39c2.58,0,4.47,0.6,5.67,1.68c1.11,0.96,1.77,2.43,1.77,4.23
		c0,1.83-0.54,3.27-1.56,4.32c-1.38,1.47-3.63,2.22-6.18,2.22c-0.78,0-1.5-0.03-2.1-0.18v8.1h-2.61V19.547z M230.068,29.296
		c0.57,0.15,1.29,0.21,2.16,0.21c3.15,0,5.07-1.53,5.07-4.32c0-2.67-1.89-3.96-4.77-3.96c-1.14,0-2.01,0.09-2.46,0.21V29.296z"/>
	<path fill="#D2D2D2" d="M255.718,32.146c0,5.37-3.72,7.71-7.23,7.71c-3.93,0-6.959-2.88-6.959-7.47c0-4.86,3.18-7.71,7.2-7.71
		C252.897,24.676,255.718,27.707,255.718,32.146z M244.198,32.296c0,3.18,1.83,5.58,4.41,5.58c2.52,0,4.41-2.37,4.41-5.64
		c0-2.46-1.23-5.58-4.35-5.58C245.548,26.656,244.198,29.536,244.198,32.296z"/>
	<path fill="#D2D2D2" d="M259.048,18.227h2.64v21.299h-2.64V18.227z"/>
	<path fill="#D2D2D2" d="M266.128,18.227h2.64v21.299h-2.64V18.227z"/>
	<path fill="#D2D2D2" d="M279.657,19.577c1.32-0.27,3.21-0.42,5.01-0.42c2.79,0,4.59,0.51,5.851,1.65c1.02,0.9,1.59,2.28,1.59,3.84
		c0,2.67-1.681,4.44-3.811,5.16v0.09c1.561,0.54,2.49,1.979,2.971,4.08c0.659,2.82,1.139,4.77,1.559,5.55h-2.699
		c-0.33-0.57-0.779-2.31-1.35-4.83c-0.601-2.79-1.68-3.84-4.051-3.93h-2.459v8.76h-2.61V19.577z M282.268,28.786h2.67
		c2.789,0,4.56-1.53,4.56-3.84c0-2.61-1.89-3.75-4.649-3.78c-1.26,0-2.16,0.12-2.58,0.24V28.786z"/>
	<path fill="#D2D2D2" d="M297.297,32.746c0.061,3.57,2.34,5.04,4.98,5.04c1.89,0,3.029-0.33,4.02-0.75l0.449,1.89
		c-0.93,0.42-2.52,0.9-4.829,0.9c-4.47,0-7.14-2.939-7.14-7.319s2.58-7.83,6.81-7.83c4.739,0,5.999,4.17,5.999,6.84
		c0,0.54-0.059,0.96-0.09,1.23H297.297z M305.037,30.856c0.029-1.68-0.69-4.29-3.66-4.29c-2.67,0-3.84,2.46-4.05,4.29H305.037z"/>
	<path fill="#D2D2D2" d="M310.497,36.826c0.78,0.51,2.159,1.05,3.479,1.05c1.92,0,2.82-0.96,2.82-2.16c0-1.26-0.75-1.95-2.7-2.669
		c-2.61-0.93-3.84-2.37-3.84-4.11c0-2.34,1.89-4.26,5.01-4.26c1.47,0,2.76,0.42,3.569,0.9l-0.659,1.92
		c-0.57-0.36-1.62-0.84-2.97-0.84c-1.561,0-2.43,0.9-2.43,1.98c0,1.2,0.869,1.74,2.76,2.46c2.52,0.96,3.81,2.22,3.81,4.38
		c0,2.55-1.979,4.35-5.43,4.35c-1.591,0-3.06-0.39-4.08-0.99L310.497,36.826z"/>
	<path fill="#D2D2D2" d="M334.887,35.566c0,1.5,0.029,2.82,0.119,3.96h-2.34l-0.149-2.37h-0.06c-0.69,1.17-2.221,2.7-4.801,2.7
		c-2.279,0-5.01-1.26-5.01-6.36v-8.49h2.641v8.04c0,2.76,0.84,4.62,3.239,4.62c1.771,0,3-1.23,3.479-2.4
		c0.15-0.39,0.24-0.87,0.24-1.35v-8.91h2.641V35.566z"/>
	<path fill="#D2D2D2" d="M339.267,18.227h2.64v21.299h-2.64V18.227z"/>
	<path fill="#D2D2D2" d="M349.525,20.836v4.17h3.78v2.01h-3.78v7.83c0,1.8,0.511,2.82,1.98,2.82c0.689,0,1.2-0.09,1.53-0.18
		l0.12,1.98c-0.51,0.21-1.32,0.36-2.34,0.36c-1.23,0-2.221-0.39-2.85-1.11c-0.75-0.78-1.021-2.07-1.021-3.78v-7.919h-2.25v-2.01
		h2.25v-3.479L349.525,20.836z"/>
	<path fill="#D2D2D2" d="M355.916,36.826c0.78,0.51,2.16,1.05,3.48,1.05c1.92,0,2.82-0.96,2.82-2.16c0-1.26-0.75-1.95-2.701-2.669
		c-2.609-0.93-3.84-2.37-3.84-4.11c0-2.34,1.891-4.26,5.01-4.26c1.471,0,2.761,0.42,3.57,0.9l-0.66,1.92
		c-0.57-0.36-1.619-0.84-2.97-0.84c-1.56,0-2.43,0.9-2.43,1.98c0,1.2,0.87,1.74,2.76,2.46c2.521,0.96,3.81,2.22,3.81,4.38
		c0,2.55-1.979,4.35-5.43,4.35c-1.59,0-3.06-0.39-4.08-0.99L355.916,36.826z"/>
</g>
<g>
	<path fill="#D2D2D2" d="M11.201,104.337c0.75,0.48,2.49,1.23,4.32,1.23c3.39,0,4.44-2.16,4.41-3.78c-0.03-2.73-2.49-3.9-5.04-3.9
		h-1.47v-1.98h1.47c1.92,0,4.35-0.99,4.35-3.3c0-1.56-0.99-2.94-3.42-2.94c-1.56,0-3.06,0.69-3.9,1.29l-0.69-1.92
		c1.02-0.75,3-1.5,5.1-1.5c3.84,0,5.58,2.28,5.58,4.65c0,2.01-1.2,3.72-3.6,4.59v0.06c2.4,0.48,4.35,2.28,4.35,5.01
		c0,3.12-2.43,5.85-7.11,5.85c-2.19,0-4.11-0.69-5.07-1.32L11.201,104.337z"/>
	<path fill="#D2D2D2" d="M34.12,107.367v-5.31h-9.06v-1.74l8.699-12.449h2.85v12.119h2.73v2.07h-2.73v5.31H34.12z M34.12,99.987
		v-6.51c0-1.02,0.03-2.04,0.09-3.06h-0.09c-0.6,1.14-1.08,1.98-1.62,2.88l-4.77,6.63v0.06H34.12z"/>
</g>
<g>
	<path fill="#D2D2D2" d="M11.201,165.337c0.75,0.48,2.49,1.23,4.32,1.23c3.39,0,4.44-2.16,4.41-3.78c-0.03-2.73-2.49-3.9-5.04-3.9
		h-1.47v-1.98h1.47c1.92,0,4.35-0.99,4.35-3.3c0-1.56-0.99-2.94-3.42-2.94c-1.56,0-3.06,0.69-3.9,1.29l-0.69-1.92
		c1.02-0.75,3-1.5,5.1-1.5c3.84,0,5.58,2.28,5.58,4.65c0,2.01-1.2,3.72-3.6,4.59v0.06c2.4,0.48,4.35,2.28,4.35,5.01
		c0,3.12-2.43,5.85-7.11,5.85c-2.19,0-4.11-0.69-5.07-1.32L11.201,165.337z"/>
	<path fill="#D2D2D2" d="M26.59,165.337c0.75,0.48,2.49,1.23,4.32,1.23c3.39,0,4.44-2.16,4.41-3.78c-0.03-2.73-2.49-3.9-5.04-3.9
		h-1.47v-1.98h1.47c1.92,0,4.35-0.99,4.35-3.3c0-1.56-0.99-2.94-3.42-2.94c-1.56,0-3.06,0.69-3.9,1.29l-0.69-1.92
		c1.02-0.75,3-1.5,5.1-1.5c3.84,0,5.58,2.28,5.58,4.65c0,2.01-1.2,3.72-3.6,4.59v0.06c2.4,0.48,4.35,2.28,4.35,5.01
		c0,3.12-2.43,5.85-7.11,5.85c-2.19,0-4.11-0.69-5.07-1.32L26.59,165.337z"/>
</g>
<g>
	<path fill="#D2D2D2" d="M18.73,296v-5.31h-9.06v-1.74l8.699-12.449h2.85v12.119h2.73v2.07h-2.73V296H18.73z M18.73,288.62v-6.51
		c0-1.02,0.03-2.04,0.09-3.06h-0.09c-0.6,1.14-1.08,1.98-1.62,2.88l-4.77,6.63v0.06H18.73z"/>
	<path fill="#D2D2D2" d="M38.92,286.041c0,6.629-2.46,10.29-6.78,10.29c-3.81,0-6.39-3.57-6.45-10.02c0-6.54,2.82-10.14,6.78-10.14
		C36.58,276.171,38.92,279.831,38.92,286.041z M28.33,286.34c0,5.07,1.56,7.95,3.96,7.95c2.7,0,3.99-3.15,3.99-8.13
		c0-4.8-1.23-7.949-3.96-7.949C30.01,278.211,28.33,281.031,28.33,286.34z"/>
</g>
<g>
	<path fill="#D2D2D2" d="M66.219,437.855c1.32-0.27,3.21-0.42,5.01-0.42c2.79,0,4.59,0.51,5.85,1.65c1.02,0.9,1.59,2.279,1.59,3.84
		c0,2.67-1.68,4.439-3.81,5.16v0.09c1.56,0.539,2.49,1.979,2.97,4.08c0.66,2.819,1.14,4.77,1.56,5.549h-2.7
		c-0.33-0.569-0.78-2.31-1.35-4.829c-0.6-2.79-1.68-3.84-4.05-3.931h-2.46v8.76h-2.61V437.855z M68.829,447.065h2.67
		c2.79,0,4.56-1.53,4.56-3.84c0-2.61-1.89-3.749-4.65-3.78c-1.26,0-2.16,0.121-2.58,0.24V447.065z"/>
	<path fill="#D2D2D2" d="M83.859,451.025c0.06,3.57,2.34,5.04,4.98,5.04c1.89,0,3.03-0.33,4.02-0.75l0.45,1.89
		c-0.93,0.42-2.52,0.9-4.83,0.9c-4.47,0-7.14-2.939-7.14-7.32c0-4.379,2.58-7.83,6.81-7.83c4.74,0,6,4.17,6,6.84
		c0,0.541-0.06,0.961-0.09,1.23H83.859z M91.599,449.136c0.03-1.681-0.69-4.29-3.66-4.29c-2.67,0-3.84,2.46-4.05,4.29H91.599z"/>
	<path fill="#D2D2D2" d="M97.419,448.025c0-1.859-0.06-3.359-0.12-4.74h2.37l0.12,2.49h0.06c1.08-1.77,2.79-2.82,5.16-2.82
		c3.51,0,6.149,2.971,6.149,7.381c0,5.219-3.18,7.799-6.6,7.799c-1.92,0-3.6-0.84-4.47-2.279h-0.06v7.89h-2.61V448.025z
		 M100.029,451.896c0,0.39,0.06,0.75,0.12,1.08c0.48,1.829,2.07,3.09,3.959,3.09c2.79,0,4.41-2.28,4.41-5.61
		c0-2.91-1.53-5.399-4.32-5.399c-1.8,0-3.48,1.29-3.99,3.271c-0.09,0.33-0.18,0.719-0.18,1.08V451.896z"/>
	<path fill="#D2D2D2" d="M126.638,453.846c0,1.5,0.03,2.819,0.12,3.959h-2.34l-0.15-2.369h-0.06c-0.69,1.17-2.22,2.699-4.8,2.699
		c-2.28,0-5.01-1.26-5.01-6.359v-8.49h2.64v8.041c0,2.76,0.84,4.619,3.24,4.619c1.77,0,3-1.23,3.48-2.4
		c0.15-0.39,0.24-0.869,0.24-1.35v-8.91h2.64V453.846z"/>
	<path fill="#D2D2D2" d="M130.898,457.805c0.06-0.989,0.12-2.459,0.12-3.75v-17.549h2.61v9.119h0.06c0.93-1.619,2.61-2.67,4.95-2.67
		c3.6,0,6.15,3,6.12,7.41c0,5.189-3.27,7.77-6.51,7.77c-2.1,0-3.78-0.81-4.86-2.729h-0.09l-0.12,2.399H130.898z M133.628,451.985
		c0,0.33,0.06,0.66,0.12,0.96c0.51,1.83,2.04,3.09,3.96,3.09c2.76,0,4.41-2.25,4.41-5.58c0-2.91-1.5-5.399-4.32-5.399
		c-1.8,0-3.48,1.229-4.02,3.239c-0.06,0.301-0.15,0.66-0.15,1.08V451.985z"/>
	<path fill="#D2D2D2" d="M148.088,436.506h2.64v21.299h-2.64V436.506z"/>
	<path fill="#D2D2D2" d="M158.107,439.206c0.03,0.899-0.63,1.62-1.68,1.62c-0.93,0-1.59-0.721-1.59-1.62
		c0-0.931,0.69-1.649,1.65-1.649C157.478,437.557,158.107,438.275,158.107,439.206z M155.167,457.805v-14.52h2.64v14.52H155.167z"/>
	<path fill="#D2D2D2" d="M172.537,457.266c-0.69,0.359-2.22,0.84-4.17,0.84c-4.38,0-7.229-2.971-7.229-7.41
		c0-4.47,3.06-7.709,7.799-7.709c1.56,0,2.94,0.39,3.66,0.75l-0.6,2.039c-0.63-0.359-1.62-0.689-3.06-0.689
		c-3.33,0-5.129,2.459-5.129,5.49c0,3.359,2.16,5.43,5.04,5.43c1.5,0,2.49-0.391,3.24-0.721L172.537,457.266z"/>
	<path fill="#D2D2D2" d="M183.667,457.805l-0.21-1.83h-0.09c-0.81,1.141-2.37,2.16-4.44,2.16c-2.94,0-4.44-2.069-4.44-4.17
		c0-3.51,3.12-5.43,8.73-5.399v-0.3c0-1.2-0.33-3.359-3.3-3.359c-1.35,0-2.76,0.42-3.78,1.08l-0.6-1.74
		c1.2-0.78,2.94-1.291,4.77-1.291c4.44,0,5.52,3.031,5.52,5.94v5.43c0,1.261,0.06,2.49,0.24,3.479H183.667z M183.277,450.396
		c-2.88-0.06-6.15,0.45-6.15,3.271c0,1.709,1.14,2.52,2.49,2.52c1.89,0,3.09-1.2,3.51-2.43c0.09-0.271,0.15-0.57,0.15-0.84V450.396z
		"/>
	<path fill="#D2D2D2" d="M190.087,447.216c0-1.5-0.03-2.729-0.12-3.931h2.34l0.15,2.4h0.06c0.72-1.38,2.4-2.73,4.8-2.73
		c2.01,0,5.13,1.201,5.13,6.181v8.669h-2.64v-8.369c0-2.34-0.87-4.29-3.36-4.29c-1.74,0-3.09,1.229-3.54,2.7
		c-0.12,0.33-0.18,0.779-0.18,1.23v8.729h-2.64V447.216z"/>
</g>
<g>
	<path fill="#D2D2D2" d="M235.857,437.855c1.59-0.239,3.48-0.42,5.55-0.42c3.75,0,6.42,0.871,8.19,2.521
		c1.8,1.649,2.85,3.989,2.85,7.26c0,3.3-1.02,5.999-2.91,7.859c-1.89,1.89-5.01,2.91-8.94,2.91c-1.86,0-3.419-0.091-4.74-0.24
		V437.855z M238.467,455.735c0.66,0.12,1.62,0.149,2.64,0.149c5.58,0,8.609-3.119,8.609-8.579c0.03-4.771-2.67-7.8-8.189-7.8
		c-1.35,0-2.37,0.12-3.06,0.27V455.735z"/>
	<path fill="#D2D2D2" d="M257.337,451.025c0.06,3.57,2.34,5.04,4.98,5.04c1.89,0,3.03-0.33,4.02-0.75l0.45,1.89
		c-0.93,0.42-2.521,0.9-4.83,0.9c-4.47,0-7.14-2.939-7.14-7.32c0-4.379,2.58-7.83,6.81-7.83c4.74,0,6,4.17,6,6.84
		c0,0.541-0.061,0.961-0.09,1.23H257.337z M265.077,449.136c0.03-1.681-0.69-4.29-3.66-4.29c-2.67,0-3.84,2.46-4.05,4.29H265.077z"
		/>
	<path fill="#D2D2D2" d="M270.896,447.216c0-1.5-0.029-2.729-0.119-3.931h2.31l0.12,2.34h0.09c0.811-1.379,2.16-2.67,4.56-2.67
		c1.979,0,3.479,1.201,4.11,2.91h0.06c0.45-0.81,1.021-1.439,1.62-1.89c0.87-0.659,1.83-1.021,3.21-1.021
		c1.92,0,4.77,1.261,4.77,6.301v8.549h-2.579v-8.219c0-2.791-1.021-4.471-3.15-4.471c-1.5,0-2.67,1.11-3.12,2.4
		c-0.12,0.359-0.21,0.84-0.21,1.32v8.969h-2.58v-8.699c0-2.311-1.02-3.99-3.029-3.99c-1.65,0-2.85,1.32-3.27,2.641
		c-0.15,0.39-0.211,0.84-0.211,1.289v8.76h-2.58V447.216z"/>
	<path fill="#D2D2D2" d="M309.057,450.426c0,5.369-3.721,7.709-7.23,7.709c-3.93,0-6.959-2.879-6.959-7.469
		c0-4.86,3.18-7.711,7.199-7.711C306.236,442.955,309.057,445.986,309.057,450.426z M297.537,450.576c0,3.18,1.83,5.579,4.41,5.579
		c2.52,0,4.409-2.37,4.409-5.64c0-2.46-1.229-5.58-4.35-5.58S297.537,447.815,297.537,450.576z"/>
	<path fill="#D2D2D2" d="M322.736,457.266c-0.689,0.359-2.22,0.84-4.17,0.84c-4.38,0-7.229-2.971-7.229-7.41
		c0-4.47,3.06-7.709,7.8-7.709c1.56,0,2.939,0.39,3.66,0.75l-0.601,2.039c-0.63-0.359-1.62-0.689-3.06-0.689
		c-3.33,0-5.13,2.459-5.13,5.49c0,3.359,2.159,5.43,5.04,5.43c1.5,0,2.489-0.391,3.239-0.721L322.736,457.266z"/>
	<path fill="#D2D2D2" d="M325.826,447.815c0-1.71-0.029-3.18-0.119-4.53h2.31l0.09,2.851h0.12c0.66-1.95,2.25-3.181,4.02-3.181
		c0.301,0,0.51,0.031,0.75,0.091v2.489c-0.27-0.06-0.539-0.09-0.9-0.09c-1.859,0-3.18,1.41-3.539,3.391
		c-0.061,0.359-0.12,0.779-0.12,1.229v7.739h-2.61V447.815z"/>
	<path fill="#D2D2D2" d="M343.526,457.805l-0.21-1.83h-0.09c-0.811,1.141-2.37,2.16-4.439,2.16c-2.94,0-4.44-2.069-4.44-4.17
		c0-3.51,3.12-5.43,8.729-5.399v-0.3c0-1.2-0.33-3.359-3.3-3.359c-1.35,0-2.76,0.42-3.78,1.08l-0.6-1.74
		c1.2-0.78,2.94-1.291,4.77-1.291c4.44,0,5.521,3.031,5.521,5.94v5.43c0,1.261,0.06,2.49,0.239,3.479H343.526z M343.137,450.396
		c-2.88-0.06-6.15,0.45-6.15,3.271c0,1.709,1.141,2.52,2.49,2.52c1.891,0,3.09-1.2,3.51-2.43c0.09-0.271,0.15-0.57,0.15-0.84
		V450.396z"/>
	<path fill="#D2D2D2" d="M353.006,439.115v4.17h3.78v2.011h-3.78v7.829c0,1.801,0.511,2.82,1.98,2.82c0.689,0,1.2-0.09,1.53-0.18
		l0.12,1.979c-0.51,0.21-1.32,0.36-2.34,0.36c-1.23,0-2.221-0.391-2.85-1.11c-0.75-0.78-1.021-2.069-1.021-3.78v-7.919h-2.25v-2.011
		h2.25v-3.479L353.006,439.115z"/>
</g>
<g>
	<path fill="#D2D2D2" d="M440.158,447.486c0,6.959-4.229,10.648-9.39,10.648c-5.34,0-9.089-4.14-9.089-10.26
		c0-6.419,3.989-10.619,9.389-10.619C436.588,437.256,440.158,441.486,440.158,447.486z M424.469,447.815
		c0,4.319,2.34,8.19,6.45,8.19c4.14,0,6.479-3.811,6.479-8.4c0-4.02-2.1-8.22-6.449-8.22
		C426.629,439.386,424.469,443.376,424.469,447.815z"/>
	<path fill="#D2D2D2" d="M447.148,439.115v4.17h3.779v2.011h-3.779v7.829c0,1.801,0.51,2.82,1.98,2.82
		c0.689,0,1.199-0.09,1.529-0.18l0.12,1.979c-0.51,0.21-1.319,0.36-2.34,0.36c-1.229,0-2.22-0.391-2.85-1.11
		c-0.75-0.78-1.021-2.069-1.021-3.78v-7.919h-2.25v-2.011h2.25v-3.479L447.148,439.115z"/>
	<path fill="#D2D2D2" d="M453.898,436.506h2.641v9.061h0.06c0.42-0.75,1.08-1.41,1.89-1.861c0.78-0.449,1.711-0.75,2.7-0.75
		c1.95,0,5.069,1.201,5.069,6.211v8.639h-2.639v-8.34c0-2.34-0.871-4.319-3.36-4.319c-1.71,0-3.06,1.2-3.54,2.64
		c-0.15,0.36-0.18,0.75-0.18,1.26v8.76h-2.641V436.506z"/>
	<path fill="#D2D2D2" d="M472.018,451.025c0.061,3.57,2.341,5.04,4.98,5.04c1.891,0,3.029-0.33,4.02-0.75l0.45,1.89
		c-0.93,0.42-2.521,0.9-4.829,0.9c-4.471,0-7.141-2.939-7.141-7.32c0-4.379,2.58-7.83,6.811-7.83c4.739,0,5.999,4.17,5.999,6.84
		c0,0.541-0.06,0.961-0.09,1.23H472.018z M479.758,449.136c0.03-1.681-0.689-4.29-3.66-4.29c-2.67,0-3.84,2.46-4.049,4.29H479.758z"
		/>
	<path fill="#D2D2D2" d="M485.578,447.815c0-1.71-0.03-3.18-0.12-4.53h2.31l0.09,2.851h0.121c0.66-1.95,2.25-3.181,4.02-3.181
		c0.3,0,0.51,0.031,0.75,0.091v2.489c-0.27-0.06-0.54-0.09-0.9-0.09c-1.859,0-3.18,1.41-3.539,3.391
		c-0.061,0.359-0.121,0.779-0.121,1.229v7.739h-2.609V447.815z"/>
</g>
<g>
	<path fill="#D2D2D2" d="M10.571,359.646v-1.62l2.07-2.01c4.979-4.74,7.229-7.26,7.26-10.2c0-1.98-0.96-3.81-3.87-3.81
		c-1.77,0-3.24,0.9-4.14,1.65l-0.84-1.86c1.35-1.14,3.27-1.98,5.52-1.98c4.2,0,5.97,2.88,5.97,5.67c0,3.6-2.61,6.509-6.72,10.469
		l-1.56,1.44v0.06h8.759v2.19H10.571z"/>
	<path fill="#D2D2D2" d="M38.92,349.687c0,6.629-2.46,10.29-6.78,10.29c-3.81,0-6.39-3.57-6.45-10.02c0-6.54,2.82-10.14,6.78-10.14
		C36.58,339.817,38.92,343.477,38.92,349.687z M28.33,349.987c0,5.07,1.56,7.95,3.96,7.95c2.7,0,3.99-3.15,3.99-8.13
		c0-4.8-1.23-7.949-3.96-7.949C30.01,341.857,28.33,344.677,28.33,349.987z"/>
</g>
<g>
	<path fill="#D2D2D2" d="M38.92,410.688c0,6.629-2.46,10.289-6.78,10.289c-3.81,0-6.39-3.57-6.45-10.02
		c0-6.54,2.82-10.14,6.78-10.14C36.58,400.817,38.92,404.477,38.92,410.688z M28.33,410.986c0,5.07,1.56,7.95,3.96,7.95
		c2.7,0,3.99-3.149,3.99-8.13c0-4.8-1.23-7.949-3.96-7.949C30.01,402.857,28.33,405.678,28.33,410.986z"/>
</g>
</svg>
