<?xml version="1.0" encoding="utf-8"?>
<!-- Generator: Adobe Illustrator 16.0.4, SVG Export Plug-In . SVG Version: 6.00 Build 0)  -->
<!DOCTYPE svg PUBLIC "-//W3C//DTD SVG 1.1//EN" "http://www.w3.org/Graphics/SVG/1.1/DTD/svg11.dtd">
<svg version="1.1" id="Layer_1" xmlns="http://www.w3.org/2000/svg" xmlns:xlink="http://www.w3.org/1999/xlink" x="0px" y="0px"
	 width="234px" height="157px" viewBox="0 0 234 157" enable-background="new 0 0 234 157" xml:space="preserve">
<g>
	<defs>
		<rect id="SVGID_1_" x="48.014" y="8.688" width="66.352" height="66"/>
	</defs>
	<clipPath id="SVGID_2_">
		<use xlink:href="#SVGID_1_"  overflow="visible"/>
	</clipPath>
	<path clip-path="url(#SVGID_2_)" fill="#7A7A7A" d="M47.856,74.688h67V8.687h-67V74.688z M80.687,20.94v19.249L65.289,28.338
		C69.178,23.723,74.656,21.119,80.687,20.94 M61.708,48.591c-1.912-5.173-1.663-10.771,0.699-15.761
		c0.601-1.27,1.251-2.356,2.07-3.453l16.061,12.361l-8.613,18.194C67.157,57.563,63.543,53.558,61.708,48.591 M81.369,62.153
		c-3.068,0-5.507-0.484-8.238-1.66l8.896-18.805V20.94c11.39,0.35,20.262,9.457,20.262,20.603
		C102.288,52.907,92.906,62.153,81.369,62.153"/>
</g>
<g>
	<defs>
		<rect id="SVGID_3_" x="120.426" y="8.688" width="66.352" height="66"/>
	</defs>
	<clipPath id="SVGID_4_">
		<use xlink:href="#SVGID_3_"  overflow="visible"/>
	</clipPath>
	<path clip-path="url(#SVGID_4_)" fill="#7A7A7A" d="M119.945,74.688h67v-66h-67V74.688z M180.176,36.934
		c-0.02,0.045-0.041,0.09-0.068,0.133l-2.201,3.74c-0.23,0.389-0.645,0.637-1.1,0.655c-0.451,0.022-0.893-0.19-1.156-0.558
		l-1.104-1.547l-1.105,1.547c-0.053,0.075-0.115,0.145-0.184,0.206l-2.201,2.017c-0.045,0.043-0.096,0.082-0.148,0.118l-2.201,1.504
		c-0.588,0.4-1.391,0.277-1.828-0.282l-2.199-2.83c-0.064-0.083-0.117-0.172-0.16-0.266l-2.121-4.695l-1.079-1.238l-1.18,1.297
		c-0.466,0.513-1.253,0.588-1.81,0.17l-2.201-1.65c-0.032-0.023-0.062-0.049-0.092-0.075l-0.639-0.575l-1.579,5.049l-2.215,6.313
		c-0.032,0.091-0.074,0.179-0.125,0.261l-2.201,3.52c-0.016,0.025-0.032,0.05-0.05,0.073l-2.202,3.044
		c-0.251,0.348-0.657,0.555-1.091,0.555c-0.432,0-0.838-0.207-1.089-0.555l-2.057-2.843l-1.992-1.294
		c-0.224-0.146-0.4-0.356-0.501-0.601l-0.866-2.075l-1.033,2.892c-0.189,0.527-0.696,0.882-1.264,0.882
		c-0.569,0-1.075-0.354-1.264-0.882L134.3,44.55l-0.63,0.505l-2.122,2.438c-0.237,0.272-0.574,0.438-0.937,0.459
		c-0.357,0.021-0.716-0.102-0.983-0.343l-0.855-0.768l-2.141,4.517l-2.428-1.115l2.912-6.146c0.181-0.382,0.534-0.655,0.953-0.737
		c0.418-0.083,0.85,0.037,1.165,0.321l1.18,1.06l1.301-1.495c0.053-0.06,0.11-0.115,0.173-0.165l2.201-1.761
		c0.338-0.271,0.791-0.362,1.209-0.246c0.419,0.117,0.755,0.428,0.898,0.832l0.938,2.623l0.937-2.623
		c0.186-0.517,0.674-0.867,1.229-0.881c0.541-0.025,1.063,0.312,1.275,0.818l2.042,4.903l1.856,1.206
		c0.138,0.09,0.259,0.204,0.354,0.336l1.108,1.533l1.084-1.497l2.1-3.358l2.152-6.133l2.187-6.997
		c0.135-0.433,0.486-0.767,0.928-0.886c0.443-0.118,0.917-0.007,1.255,0.299l2.157,1.94l1.169,0.876l1.375-1.512
		c0.258-0.283,0.621-0.439,1.013-0.439c0.386,0.004,0.751,0.173,1.003,0.461l2.2,2.53c0.085,0.097,0.155,0.205,0.206,0.321
		l2.137,4.728l1.328,1.708l1.07-0.732l2.029-1.858l2.121-2.967c0.25-0.352,0.658-0.561,1.096-0.561c0.436,0,0.844,0.209,1.096,0.561
		l0.996,1.393l1.113-1.892l2.707-6.091l2.455,1.06L180.176,36.934z"/>
</g>
<g>
	<defs>
		<rect id="SVGID_5_" x="11.984" y="80.229" width="66" height="66"/>
	</defs>
	<clipPath id="SVGID_6_">
		<use xlink:href="#SVGID_5_"  overflow="visible"/>
	</clipPath>
	<path clip-path="url(#SVGID_6_)" fill="#7A7A7A" d="M11.984,146.229h66v-66h-66V146.229z M57.205,96.62
		c1.185,0,2.145,0.961,2.145,2.146c0,1.184-0.96,2.145-2.145,2.145c-1.186,0-2.145-0.961-2.145-2.145
		C55.06,97.581,56.019,96.62,57.205,96.62 M57.205,102.808c0,0.41-0.333,0.743-0.742,0.743c-0.41,0-0.743-0.333-0.743-0.743
		s0.333-0.742,0.743-0.742C56.872,102.065,57.205,102.397,57.205,102.808 M53.203,104.541c1.025,0,1.857,0.83,1.857,1.855
		s-0.832,1.856-1.857,1.856c-1.023,0-1.855-0.831-1.855-1.856S52.179,104.541,53.203,104.541 M35.754,116.049
		c0,0.615-0.499,1.114-1.114,1.114c-0.614,0-1.113-0.499-1.113-1.114s0.499-1.113,1.113-1.113
		C35.256,114.936,35.754,115.434,35.754,116.049 M32.578,95.96c0.935,0,1.692,0.758,1.692,1.691s-0.757,1.691-1.692,1.691
		c-0.933,0-1.691-0.758-1.691-1.691S31.645,95.96,32.578,95.96 M28.247,113.45c0.41,0,0.742,0.332,0.742,0.743
		c0,0.409-0.333,0.742-0.742,0.742c-0.41,0-0.743-0.333-0.743-0.742C27.504,113.782,27.837,113.45,28.247,113.45 M23.627,132.92
		c-1.048,0-1.897-0.85-1.897-1.897s0.849-1.897,1.897-1.897c1.048,0,1.897,0.85,1.897,1.897S24.675,132.92,23.627,132.92
		 M25.153,122.36c-0.341,0-0.619-0.277-0.619-0.619s0.277-0.618,0.619-0.618c0.342,0,0.619,0.276,0.619,0.618
		S25.495,122.36,25.153,122.36 M27.504,121.123c0-1.868,1.515-3.383,3.382-3.383c1.869,0,3.383,1.515,3.383,3.383
		s-1.514,3.383-3.383,3.383C29.019,124.506,27.504,122.991,27.504,121.123 M33.527,137.457c-1.777,0-3.217-1.439-3.217-3.217
		c0-1.776,1.44-3.218,3.217-3.218c1.777,0,3.217,1.441,3.217,3.218C36.744,136.018,35.304,137.457,33.527,137.457 M40.869,123.516
		c-1.185,0-2.145-0.961-2.145-2.146s0.96-2.145,2.145-2.145c1.185,0,2.145,0.96,2.145,2.145S42.054,123.516,40.869,123.516
		 M51.347,125.166c-3.51,0-6.353-2.845-6.353-6.353c0-3.509,2.843-6.353,6.353-6.353c3.508,0,6.352,2.844,6.352,6.353
		C57.699,122.321,54.855,125.166,51.347,125.166 M57.699,107.676c0-1.276,1.035-2.311,2.311-2.311s2.311,1.034,2.311,2.311
		c0,1.275-1.035,2.31-2.311,2.31S57.699,108.951,57.699,107.676 M60.009,102.065c0-0.638,0.518-1.155,1.155-1.155
		s1.155,0.518,1.155,1.155s-0.518,1.155-1.155,1.155S60.009,102.703,60.009,102.065 M62.32,117.41c-1.641,0-2.971-1.329-2.971-2.97
		s1.33-2.97,2.971-2.97s2.97,1.329,2.97,2.97S63.96,117.41,62.32,117.41 M62.32,93.65c-1.641,0-2.971-1.33-2.971-2.971
		c0-1.64,1.33-2.97,2.971-2.97s2.97,1.33,2.97,2.97C65.29,92.32,63.96,93.65,62.32,93.65 M68.382,131.022
		c-0.523,0-0.947-0.425-0.947-0.948s0.424-0.949,0.947-0.949c0.525,0,0.949,0.426,0.949,0.949S68.908,131.022,68.382,131.022
		 M68.857,97.651c-0.784,0-1.422-0.637-1.422-1.423s0.638-1.424,1.422-1.424c0.787,0,1.424,0.638,1.424,1.424
		S69.644,97.651,68.857,97.651"/>
</g>
<g>
	<defs>
		<rect id="SVGID_7_" x="84.22" y="80.229" width="66.352" height="66"/>
	</defs>
	<clipPath id="SVGID_8_">
		<use xlink:href="#SVGID_7_"  overflow="visible"/>
	</clipPath>
	<path clip-path="url(#SVGID_8_)" fill="#7A7A7A" d="M126.999,116.257c0-1.703,0.51-3.154,1.801-3.154s1.801,1.451,1.801,3.154
		c0,1.701-0.51,3.152-1.801,3.152S126.999,117.958,126.999,116.257 M105.519,119.714c0.819,0,1.419-0.484,1.419-1.219
		c0-0.752-0.6-1.217-1.419-1.217c-0.801,0-1.4,0.465-1.4,1.217C104.118,119.229,104.718,119.714,105.519,119.714 M105.519,114.985
		c0.709,0,1.255-0.449,1.255-1.111c0-0.699-0.546-1.146-1.255-1.146c-0.69,0-1.255,0.447-1.255,1.146
		C104.264,114.536,104.828,114.985,105.519,114.985 M150.896,146.229h-67v-66h67V146.229z M128.8,110.577
		c-2.746,0-4.619,2.328-4.619,5.68c0,3.35,1.873,5.678,4.619,5.678s4.638-2.328,4.638-5.678
		C133.438,112.905,131.546,110.577,128.8,110.577 M118.735,102.669h8.041v-2.641h-3.088l1.131-1.334
		c0.965-1.326,1.822-2.391,1.822-3.787c0-1.99-1.32-3.314-3.557-3.314c-1.619,0-3.009,0.572-3.679,1.271v2.76
		c0.67-0.574,1.769-1.344,2.913-1.344c0.893,0,1.242,0.465,1.242,1.199c0,0.932-0.548,1.613-1.549,2.92l-3.277,4.301V102.669z
		 M120.076,113.874v7.936h2.681v-11.221h-1.996l-3.365,1.797v2.725L120.076,113.874z M116.45,99.548
		c-0.928,0-1.673,0.717-1.673,1.664c0,0.951,0.745,1.686,1.673,1.686c0.945,0,1.691-0.734,1.691-1.686
		C118.142,100.265,117.396,99.548,116.45,99.548 M108.016,94.089h4.178l-4.001,8.58h3.057l4.807-10.844v-0.377h-8.04V94.089z
		 M103.117,116.167c-1.018,0.34-1.8,1.254-1.8,2.543c0,2.025,1.874,3.225,4.201,3.225c2.328,0,4.22-1.199,4.22-3.225
		c0-1.289-0.801-2.203-1.8-2.543c0.891-0.43,1.437-1.309,1.437-2.383c0-2.078-1.801-3.207-3.856-3.207
		c-2.037,0-3.856,1.129-3.856,3.207C101.662,114.858,102.208,115.737,103.117,116.167 M101.787,132.788l1.892-1.816l-2.615-0.373
		l-1.169-2.334l-1.168,2.334l-2.616,0.373l1.894,1.816l-0.447,2.566l2.338-1.211l2.339,1.211L101.787,132.788z M110.497,132.788
		l1.892-1.816l-2.615-0.373l-1.169-2.334l-1.168,2.334l-2.616,0.373l1.894,1.816l-0.447,2.566l2.338-1.211l2.34,1.211
		L110.497,132.788z M112.449,123.128l4.511-13.199h-2.474l-4.511,13.199H112.449z M119.207,132.788l1.892-1.816l-2.615-0.373
		l-1.169-2.334l-1.168,2.334l-2.616,0.373l1.894,1.816l-0.447,2.566l2.338-1.211l2.339,1.211L119.207,132.788z M127.917,132.788
		l1.892-1.816l-2.614-0.373l-1.169-2.334l-1.169,2.334l-2.615,0.373l1.893,1.816l-0.447,2.566l2.339-1.211l2.338,1.211
		L127.917,132.788z M136.628,132.788l1.891-1.816l-2.615-0.373l-1.168-2.334l-1.168,2.334l-2.616,0.373l1.893,1.816l-0.446,2.566
		l2.338-1.211l2.338,1.211L136.628,132.788z"/>
</g>
<g>
	<defs>
		<rect id="SVGID_9_" x="156.807" y="80.229" width="66" height="66"/>
	</defs>
	<clipPath id="SVGID_10_">
		<use xlink:href="#SVGID_9_"  overflow="visible"/>
	</clipPath>
	<path clip-path="url(#SVGID_10_)" fill="#7A7A7A" d="M181.228,111.909h3.3v27.721h-3.3V111.909z M176.607,107.949h3.3v31.681h-3.3
		V107.949z M171.987,106.63h3.3v33h-3.3V106.63z M190.467,106.63h3.3v33h-3.3V106.63z M185.848,104.649h3.299v34.98h-3.299V104.649z
		 M167.367,102.01h3.299v37.62h-3.299V102.01z M195.088,100.689h3.299v38.94h-3.299V100.689z M162.747,99.369h3.3v40.261h-3.3
		V99.369z M199.707,97.39h3.301v42.24h-3.301V97.39z M213.567,95.409h3.3v44.221h-3.3V95.409z M208.947,92.109h3.299v47.521h-3.299
		V92.109z M204.327,90.789h3.3v48.841h-3.3V90.789z M156.807,146.229h66v-66h-66V146.229z"/>
</g>
<g>
</g>
<g>
</g>
<g>
</g>
<g>
</g>
<g>
</g>
<g>
</g>
</svg>
